<?xml version="1.0" encoding="utf-8" standalone="no"?>
<!DOCTYPE svg PUBLIC "-//W3C//DTD SVG 1.1//EN"
  "http://www.w3.org/Graphics/SVG/1.1/DTD/svg11.dtd">
<!-- Created with matplotlib (http://matplotlib.org/) -->
<svg height="432pt" version="1.1" viewBox="0 0 576 432" width="576pt" xmlns="http://www.w3.org/2000/svg" xmlns:xlink="http://www.w3.org/1999/xlink">
 <defs>
  <style type="text/css">
*{stroke-linecap:butt;stroke-linejoin:round;}
  </style>
 </defs>
 <g id="figure_1">
  <g id="patch_1">
   <path d="
M0 432
L576 432
L576 0
L0 0
z
" style="fill:#ffffff;"/>
  </g>
  <g id="axes_1">
   <g id="patch_2">
    <path d="
M72 388.8
L274.909 388.8
L274.909 43.2
L72 43.2
z
" style="fill:#ffffff;"/>
   </g>
   <g id="line2d_1">
    <path clip-path="url(#p346f55e68c)" d="
M72 388.8
L73.0248 388.8
L73.3664 43.2
L77.8072 43.2
L78.1488 100.8
L78.4904 92.5714
L79.8567 92.5714
L80.1983 86.4
L80.5399 86.4
L80.8815 81.6
L81.2231 81.6
L81.5647 77.76
L82.2479 77.76
L82.9311 72
L83.2727 69.7846
L85.3223 69.7846
L85.6639 67.8857
L86.3471 67.8857
L86.6887 66.24
L87.7135 66.24
L88.0551 64.8
L88.7383 64.8
L89.7631 61.3895
L90.7879 61.3895
L91.1295 60.48
L91.8127 60.48
L92.1543 76.1143
L94.5455 76.1143
L94.8871 77.76
L95.2287 77.76
L95.5702 61.3895
L96.2534 61.3895
L97.2782 58.9091
L97.6198 59.6571
L98.303 59.6571
L98.6446 74.6182
L98.9862 74.6182
L99.6694 72
L100.694 76.1143
L101.377 76.1143
L101.719 74.6182
L102.402 74.6182
L102.744 88.2783
L103.085 88.2783
L103.427 86.4
L103.769 86.4
L104.11 88.2783
L104.452 88.2783
L104.793 86.4
L105.135 86.4
L105.477 88.2783
L105.818 88.2783
L106.16 86.4
L106.501 86.4
L106.843 88.2783
L107.868 88.2783
L108.551 92.5714
L109.234 88.2783
L109.576 74.6182
L110.259 74.6182
L110.601 76.1143
L111.284 76.1143
L111.625 90.3273
L111.967 88.2783
L112.992 88.2783
L113.333 90.3273
L113.675 88.2783
L114.017 90.3273
L114.358 90.3273
L114.7 92.5714
L115.383 92.5714
L115.725 95.04
L116.066 79.5789
L116.408 81.6
L117.774 81.6
L118.116 79.5789
L118.799 79.5789
L119.14 81.6
L119.482 81.6
L119.824 79.5789
L120.165 61.3895
L120.848 63.5294
L121.19 81.6
L121.532 79.5789
L122.215 79.5789
L122.556 77.76
L122.898 77.76
L123.24 76.1143
L124.264 76.1143
L124.606 77.76
L124.948 77.76
L125.289 92.5714
L126.314 92.5714
L126.656 95.04
L127.339 90.3273
L128.705 90.3273
L129.047 76.1143
L129.388 76.1143
L129.73 74.6182
L130.072 74.6182
L130.413 73.2522
L130.755 73.2522
L131.096 74.6182
L131.438 88.2783
L131.78 90.3273
L132.121 90.3273
L132.463 88.2783
L132.804 88.2783
L133.146 86.4
L133.829 86.4
L134.512 90.3273
L134.854 88.2783
L135.196 88.2783
L135.537 90.3273
L136.904 90.3273
L137.245 92.5714
L137.587 109.029
L137.928 106.036
L138.27 106.036
L138.612 90.3273
L138.953 92.5714
L139.295 90.3273
L139.978 95.04
L140.32 95.04
L140.661 112.32
L141.003 115.958
L142.369 115.958
L142.711 100.8
L143.052 97.7684
L143.736 97.7684
L144.077 95.04
L145.785 95.04
L146.127 92.5714
L146.468 106.036
L146.81 109.029
L148.518 109.029
L148.86 92.5714
L149.543 92.5714
L149.884 95.04
L150.226 92.5714
L150.909 92.5714
L151.251 90.3273
L151.592 90.3273
L151.934 88.2783
L152.275 90.3273
L153.3 90.3273
L153.642 88.2783
L154.325 88.2783
L154.667 86.4
L155.008 73.2522
L155.35 88.2783
L156.375 88.2783
L156.716 90.3273
L157.741 90.3273
L158.083 76.1143
L158.424 76.1143
L158.766 77.76
L159.107 76.1143
L159.449 76.1143
L160.132 73.2522
L161.499 73.2522
L162.523 77.76
L163.207 77.76
L163.548 79.5789
L163.89 61.3895
L164.915 61.3895
L165.256 62.4
L165.598 62.4
L165.939 61.3895
L166.281 62.4
L166.623 61.3895
L166.964 61.3895
L167.306 77.76
L167.647 79.5789
L167.989 79.5789
L168.331 77.76
L168.672 79.5789
L169.014 77.76
L169.355 79.5789
L169.697 77.76
L170.722 77.76
L171.063 79.5789
L171.747 76.1143
L172.43 76.1143
L172.771 59.6571
L173.455 59.6571
L174.138 58.2261
L174.479 58.2261
L174.821 57.6
L176.529 57.6
L176.871 57.024
L177.212 57.6
L177.895 57.6
L178.237 57.024
L179.262 57.024
L179.603 56.4923
L180.287 56.4923
L180.97 55.5429
L181.311 56
L181.653 56
L181.994 68.8
L183.361 68.8
L183.702 67.8857
L184.044 68.8
L184.386 68.8
L184.727 56
L185.41 56
L185.752 56.4923
L186.094 56
L188.485 56
L189.168 57.024
L189.51 57.024
L189.851 56.4923
L190.193 57.024
L190.876 57.024
L191.218 57.6
L191.559 57.6
L191.901 57.024
L192.242 57.6
L192.584 57.6
L192.926 57.024
L193.267 57.024
L193.609 56.4923
L193.95 56.4923
L194.292 57.024
L195.317 57.024
L196.342 58.9091
L196.683 58.9091
L197.025 59.6571
L197.708 58.2261
L198.05 58.9091
L199.074 58.9091
L199.416 43.2
L200.441 43.2
L200.782 58.9091
L201.124 59.6571
L202.49 59.6571
L202.832 60.48
L203.174 59.6571
L203.857 59.6571
L204.198 58.9091
L204.54 74.6182
L205.565 74.6182
L206.248 72
L206.59 72
L206.931 73.2522
L207.273 73.2522
L207.956 70.848
L208.298 84.672
L208.639 83.0769
L208.981 83.0769
L209.322 84.672
L209.664 84.672
L210.006 83.0769
L210.347 84.672
L211.03 84.672
L211.372 98.496
L211.713 96.3692
L212.397 96.3692
L212.738 98.496
L213.08 98.496
L213.421 96.3692
L214.446 96.3692
L214.788 98.496
L215.129 98.496
L215.471 96.3692
L215.813 98.496
L216.154 98.496
L216.496 96.3692
L216.837 107.2
L217.179 109.662
L217.521 107.2
L217.862 107.2
L218.204 96.3692
L218.887 96.3692
L219.229 94.4
L219.57 96.3692
L220.253 96.3692
L220.595 98.496
L221.278 98.496
L221.62 100.8
L221.961 88.2783
L222.645 84.672
L222.986 84.672
L223.328 98.496
L223.669 100.8
L224.011 100.8
L224.353 98.496
L225.036 98.496
L225.377 100.8
L225.719 86.4
L226.061 86.4
L226.402 88.2783
L226.744 86.4
L227.085 98.496
L227.427 98.496
L227.769 96.3692
L228.11 96.3692
L228.452 98.496
L228.793 86.4
L229.135 88.2783
L229.477 88.2783
L229.818 90.3273
L230.16 90.3273
L230.501 88.2783
L230.843 90.3273
L231.185 90.3273
L231.526 88.2783
L231.868 88.2783
L232.209 86.4
L232.551 86.4
L232.893 88.2783
L233.234 88.2783
L233.576 86.4
L233.917 86.4
L234.259 73.2522
L234.601 72
L235.284 74.6182
L235.625 73.2522
L236.65 73.2522
L237.333 70.848
L237.675 83.0769
L238.017 83.0769
L238.358 84.672
L239.725 84.672
L240.066 86.4
L240.408 84.672
L240.749 72
L242.457 72
L242.799 70.848
L243.824 70.848
L244.165 72
L244.507 58.2261
L244.848 58.9091
L245.19 74.6182
L245.873 72
L246.215 72
L246.556 70.848
L246.898 70.848
L247.24 69.7846
L247.581 69.7846
L247.923 70.848
L248.606 70.848
L248.948 72
L249.289 70.848
L249.631 72
L249.972 72
L250.656 69.7846
L250.997 69.7846
L251.339 70.848
L251.68 69.7846
L252.705 69.7846
L253.047 70.848
L253.388 70.848
L253.73 69.7846
L254.072 70.848
L254.413 70.848
L254.755 72
L255.096 57.6
L255.78 56.4923
L256.121 69.7846
L256.804 67.8857
L257.146 67.8857
L257.488 67.0345
L257.829 67.8857
L258.171 67.8857
L258.512 67.0345
L258.854 67.0345
L259.196 78.9517
L259.537 78.9517
L260.562 83.0769
L260.904 83.0769
L261.245 94.4
L261.587 92.5714
L261.928 92.5714
L262.27 90.869
L262.612 80.2286
L263.295 83.0769
L263.636 83.0769
L263.978 84.672
L264.32 83.0769
L264.661 84.672
L265.686 80.2286
L266.028 90.869
L266.369 90.869
L266.711 92.5714
L267.394 92.5714
L268.077 96.3692
L268.419 96.3692
L268.76 94.4
L269.102 94.4
L269.444 107.2
L270.127 107.2
L270.81 102.786
L271.152 104.914
L271.493 102.786
L271.835 104.914
L272.176 104.914
L273.201 112.32
L273.543 98.496
L274.567 106.036
L274.909 109.029
L274.909 109.029" style="fill:none;stroke:#0000ff;stroke-linecap:square;"/>
   </g>
   <g id="line2d_2">
    <path clip-path="url(#p346f55e68c)" d="
M72 388.8
L72.3416 216
L72.6832 158.4
L73.0248 216
L73.3664 216
L73.708 250.56
L74.0496 216
L74.3912 240.686
L75.0744 196.8
L75.7576 196.8
L76.0992 181.44
L76.7824 216
L77.124 229.292
L78.4904 229.292
L78.832 240.686
L79.1736 227.52
L79.8567 246.494
L80.1983 246.494
L80.5399 254.4
L80.8815 254.4
L81.2231 243.284
L81.5647 243.284
L82.2479 224.229
L83.2727 224.229
L83.9559 238.539
L84.2975 230.4
L84.6391 236.736
L85.3223 222.4
L85.6639 222.4
L86.3471 210.041
L86.6887 210.041
L87.0303 216
L87.7135 205.2
L88.0551 205.2
L88.7383 216
L89.0799 216
L89.4215 210.764
L89.7631 216
L90.7879 216
L91.1295 210.426
L91.8127 210.426
L92.1543 216
L92.4959 227.52
L93.8623 227.52
L94.2039 216
L94.5455 216
L94.8871 221.574
L95.2287 221.574
L95.5702 216
L95.9118 216
L96.2534 205.2
L96.595 210.426
L97.2782 198.124
L97.6198 204.48
L97.9614 192.96
L98.303 192.96
L98.6446 198.124
L98.9862 198.124
L100.011 216
L100.694 204.48
L101.036 204.48
L101.377 192.96
L101.719 198.124
L102.402 198.124
L102.744 203.657
L103.085 203.657
L103.427 209.6
L103.769 222.4
L104.11 228.343
L104.452 216
L104.793 222.4
L105.135 235.2
L105.477 240.686
L105.818 228.343
L106.16 222.4
L106.501 222.4
L106.843 228.343
L107.185 228.343
L107.526 240.686
L107.868 228.343
L108.209 221.959
L108.893 233.876
L109.576 221.959
L110.259 221.959
L110.601 227.52
L110.942 239.04
L111.284 227.52
L111.625 233.876
L111.967 228.343
L112.309 216
L112.992 216
L113.333 210.041
L113.675 216
L114.017 210.041
L114.358 210.041
L114.7 204.48
L115.041 204.48
L115.383 216
L115.725 221.574
L116.408 210.764
L117.774 210.764
L118.116 216
L118.457 205.2
L118.799 205.2
L119.14 210.764
L119.482 210.764
L119.824 216
L120.165 216
L120.507 221.236
L121.532 205.2
L122.215 205.2
L122.556 199.277
L122.898 188.129
L123.24 192.96
L123.923 192.96
L124.264 181.44
L124.606 176.981
L124.948 176.981
L125.289 181.44
L125.631 192.96
L126.314 192.96
L126.997 204.48
L127.339 198.124
L128.705 198.124
L129.047 204.48
L129.388 204.48
L129.73 210.041
L130.072 210.041
L130.413 216
L130.755 228.343
L131.096 221.959
L131.78 233.876
L132.121 233.876
L132.463 228.343
L132.804 228.343
L133.146 222.4
L133.488 235.2
L133.829 235.2
L134.512 245.793
L134.854 240.686
L135.196 240.686
L135.537 233.876
L135.879 245.793
L136.22 245.793
L136.904 221.959
L137.245 227.52
L137.587 227.52
L137.928 221.959
L138.27 233.876
L138.612 233.876
L138.953 227.52
L139.295 233.876
L139.636 227.52
L139.978 232.723
L140.661 232.723
L141.003 226.8
L142.369 226.8
L143.052 216
L143.736 216
L144.077 210.426
L145.444 210.426
L145.785 199.277
L146.127 204.48
L146.468 198.124
L146.81 204.48
L148.86 204.48
L149.201 192.96
L149.543 192.96
L149.884 188.129
L150.226 181.44
L150.567 181.44
L150.909 169.92
L151.251 174.29
L151.592 174.29
L151.934 166.629
L152.275 162.372
L152.617 174.29
L153.3 174.29
L153.642 178.971
L154.325 203.657
L155.008 191.314
L156.375 191.314
L156.716 198.124
L157.058 198.124
L157.399 186.207
L157.741 186.207
L158.083 192.96
L158.424 204.48
L158.766 199.277
L159.107 204.48
L159.449 204.48
L159.791 198.124
L160.132 203.657
L161.499 203.657
L161.84 210.041
L162.182 204.48
L162.523 210.426
L162.865 199.277
L163.207 199.277
L163.548 205.2
L164.915 205.2
L165.256 210.764
L165.598 200.291
L165.939 205.2
L166.281 200.291
L166.623 205.2
L166.964 216
L167.306 221.574
L167.647 216
L167.989 216
L168.672 226.8
L169.355 216
L169.697 221.574
L170.039 210.426
L170.38 221.574
L170.722 221.574
L171.063 226.8
L171.747 216
L172.088 216
L172.43 227.52
L173.455 227.52
L173.796 233.876
L174.138 228.343
L174.479 240.686
L174.821 248
L175.504 248
L175.846 235.2
L176.187 248
L176.529 248
L176.871 255.877
L177.212 260.8
L177.895 260.8
L178.237 255.877
L179.262 255.877
L179.603 264.384
L180.287 264.384
L180.628 273.6
L180.97 268.591
L181.311 273.6
L182.678 273.6
L183.019 288
L183.361 288
L183.702 298.643
L184.044 302.4
L184.386 288
L185.41 288
L185.752 292.032
L186.094 288
L186.435 288
L186.777 302.4
L187.46 302.4
L188.485 259.2
L189.168 269.169
L189.51 269.169
L189.851 264.384
L190.193 269.169
L190.534 255.877
L190.876 255.877
L191.218 260.8
L191.559 260.8
L191.901 255.877
L192.242 260.8
L192.584 260.8
L192.926 255.877
L193.267 269.169
L193.609 264.384
L193.95 264.384
L194.292 255.877
L195.317 255.877
L196.342 233.876
L196.683 233.876
L197.366 221.959
L198.05 233.876
L198.391 233.876
L199.074 210.041
L199.416 204.48
L200.099 204.48
L200.441 198.124
L200.782 198.124
L201.124 204.48
L201.466 192.96
L201.807 204.48
L202.49 204.48
L202.832 210.426
L203.174 204.48
L203.857 204.48
L204.198 198.124
L205.223 198.124
L205.565 210.041
L205.906 216
L206.248 209.6
L206.59 209.6
L206.931 216
L207.273 216
L207.614 209.6
L207.956 216
L208.298 216
L208.639 209.088
L208.981 209.088
L209.322 202.708
L209.664 189.415
L210.347 202.708
L210.689 189.415
L211.372 189.415
L211.713 195.264
L212.055 181.44
L212.397 181.44
L212.738 189.415
L213.08 202.708
L213.421 209.088
L213.763 209.088
L214.105 195.264
L214.446 195.264
L214.788 202.708
L215.129 202.708
L215.813 189.415
L216.154 189.415
L216.837 201.6
L217.521 187.2
L217.862 187.2
L218.204 195.264
L218.887 195.264
L219.57 181.44
L219.912 181.44
L220.253 167.616
L220.595 176.123
L221.278 176.123
L221.961 191.314
L222.645 202.708
L222.986 189.415
L223.328 189.415
L223.669 196.8
L224.011 196.8
L224.353 189.415
L225.036 189.415
L225.377 184
L226.061 184
L226.744 196.8
L227.085 202.708
L227.427 202.708
L227.769 195.264
L228.11 195.264
L228.452 202.708
L229.135 191.314
L229.477 203.657
L229.818 210.041
L230.16 210.041
L230.843 198.124
L231.185 198.124
L231.526 203.657
L231.868 216
L232.209 209.6
L232.551 209.6
L232.893 203.657
L233.234 216
L233.576 222.4
L233.917 222.4
L234.259 216
L235.284 233.876
L235.625 228.343
L236.65 228.343
L237.675 250.56
L238.017 250.56
L238.358 242.585
L239.041 242.585
L239.383 229.292
L239.725 229.292
L240.749 248
L241.091 248
L241.433 235.2
L242.457 235.2
L242.799 242.585
L243.824 242.585
L244.848 257.71
L245.19 257.71
L245.532 265.371
L245.873 260.8
L246.556 282.462
L246.898 269.169
L247.24 264.384
L247.581 264.384
L247.923 255.877
L248.606 255.877
L248.948 260.8
L249.289 255.877
L249.631 248
L249.972 248
L250.314 255.877
L250.656 250.56
L250.997 250.56
L251.339 255.877
L251.68 264.384
L252.364 264.384
L252.705 250.56
L253.047 255.877
L253.388 255.877
L253.73 264.384
L254.072 255.877
L254.413 255.877
L254.755 248
L255.096 248
L255.438 242.585
L255.78 250.56
L256.121 250.56
L256.463 244.8
L256.804 253.565
L257.146 253.565
L257.488 247.418
L257.829 253.565
L258.171 253.565
L258.512 247.418
L258.854 263.127
L259.537 263.127
L260.22 244.8
L260.562 250.56
L260.904 250.56
L261.587 238.539
L261.928 223.513
L262.27 216
L262.953 230.4
L263.295 222.912
L263.636 222.912
L263.978 216
L264.661 229.292
L265.003 222.912
L266.028 247.418
L266.369 247.418
L266.711 238.539
L267.394 238.539
L267.736 230.4
L268.077 236.736
L268.419 236.736
L268.76 230.4
L270.127 230.4
L270.81 216
L271.835 238.539
L272.176 238.539
L272.518 230.4
L272.86 236.736
L273.201 229.292
L273.543 229.292
L273.884 235.2
L274.226 228.343
L274.567 233.876
L274.909 227.52
L274.909 227.52" style="fill:none;stroke:#ff0000;stroke-linecap:square;"/>
   </g>
   <g id="patch_3">
    <path d="
M72 43.2
L274.909 43.2" style="fill:none;stroke:#000000;stroke-linecap:square;stroke-linejoin:miter;"/>
   </g>
   <g id="patch_4">
    <path d="
M274.909 388.8
L274.909 43.2" style="fill:none;stroke:#000000;stroke-linecap:square;stroke-linejoin:miter;"/>
   </g>
   <g id="patch_5">
    <path d="
M72 388.8
L274.909 388.8" style="fill:none;stroke:#000000;stroke-linecap:square;stroke-linejoin:miter;"/>
   </g>
   <g id="patch_6">
    <path d="
M72 388.8
L72 43.2" style="fill:none;stroke:#000000;stroke-linecap:square;stroke-linejoin:miter;"/>
   </g>
   <g id="matplotlib.axis_1">
    <g id="xtick_1">
     <g id="text_1">
      <!-- 0 -->
      <defs>
       <path d="
M31.7812 66.4062
Q24.1719 66.4062 20.3281 58.9062
Q16.5 51.4219 16.5 36.375
Q16.5 21.3906 20.3281 13.8906
Q24.1719 6.39062 31.7812 6.39062
Q39.4531 6.39062 43.2812 13.8906
Q47.125 21.3906 47.125 36.375
Q47.125 51.4219 43.2812 58.9062
Q39.4531 66.4062 31.7812 66.4062
M31.7812 74.2188
Q44.0469 74.2188 50.5156 64.5156
Q56.9844 54.8281 56.9844 36.375
Q56.9844 17.9688 50.5156 8.26562
Q44.0469 -1.42188 31.7812 -1.42188
Q19.5312 -1.42188 13.0625 8.26562
Q6.59375 17.9688 6.59375 36.375
Q6.59375 54.8281 13.0625 64.5156
Q19.5312 74.2188 31.7812 74.2188" id="BitstreamVeraSans-Roman-30"/>
      </defs>
      <g transform="translate(68.6349647039 401.918125)scale(0.12 -0.12)">
       <use xlink:href="#BitstreamVeraSans-Roman-30"/>
      </g>
     </g>
    </g>
    <g id="xtick_2">
     <g id="line2d_3">
      <defs>
       <path d="
M0 0
L0 -4" id="m93b0483c22" style="stroke:#000000;stroke-width:0.5;"/>
      </defs>
      <g>
       <use style="stroke:#000000;stroke-width:0.5;" x="105.818181818" xlink:href="#m93b0483c22" y="388.8"/>
      </g>
     </g>
     <g id="line2d_4">
      <defs>
       <path d="
M0 0
L0 4" id="m741efc42ff" style="stroke:#000000;stroke-width:0.5;"/>
      </defs>
      <g>
       <use style="stroke:#000000;stroke-width:0.5;" x="105.818181818" xlink:href="#m741efc42ff" y="43.2"/>
      </g>
     </g>
     <g id="text_2">
      <!-- 100 -->
      <defs>
       <path d="
M12.4062 8.29688
L28.5156 8.29688
L28.5156 63.9219
L10.9844 60.4062
L10.9844 69.3906
L28.4219 72.9062
L38.2812 72.9062
L38.2812 8.29688
L54.3906 8.29688
L54.3906 0
L12.4062 0
z
" id="BitstreamVeraSans-Roman-31"/>
      </defs>
      <g transform="translate(95.4231818182 401.918125)scale(0.12 -0.12)">
       <use xlink:href="#BitstreamVeraSans-Roman-31"/>
       <use x="63.623046875" xlink:href="#BitstreamVeraSans-Roman-30"/>
       <use x="127.24609375" xlink:href="#BitstreamVeraSans-Roman-30"/>
      </g>
     </g>
    </g>
    <g id="xtick_3">
     <g id="line2d_5">
      <g>
       <use style="stroke:#000000;stroke-width:0.5;" x="139.977961433" xlink:href="#m93b0483c22" y="388.8"/>
      </g>
     </g>
     <g id="line2d_6">
      <g>
       <use style="stroke:#000000;stroke-width:0.5;" x="139.977961433" xlink:href="#m741efc42ff" y="43.2"/>
      </g>
     </g>
     <g id="text_3">
      <!-- 200 -->
      <defs>
       <path d="
M19.1875 8.29688
L53.6094 8.29688
L53.6094 0
L7.32812 0
L7.32812 8.29688
Q12.9375 14.1094 22.625 23.8906
Q32.3281 33.6875 34.8125 36.5312
Q39.5469 41.8438 41.4219 45.5312
Q43.3125 49.2188 43.3125 52.7812
Q43.3125 58.5938 39.2344 62.25
Q35.1562 65.9219 28.6094 65.9219
Q23.9688 65.9219 18.8125 64.3125
Q13.6719 62.7031 7.8125 59.4219
L7.8125 69.3906
Q13.7656 71.7812 18.9375 73
Q24.125 74.2188 28.4219 74.2188
Q39.75 74.2188 46.4844 68.5469
Q53.2188 62.8906 53.2188 53.4219
Q53.2188 48.9219 51.5312 44.8906
Q49.8594 40.875 45.4062 35.4062
Q44.1875 33.9844 37.6406 27.2188
Q31.1094 20.4531 19.1875 8.29688" id="BitstreamVeraSans-Roman-32"/>
      </defs>
      <g transform="translate(129.363586433 401.918125)scale(0.12 -0.12)">
       <use xlink:href="#BitstreamVeraSans-Roman-32"/>
       <use x="63.623046875" xlink:href="#BitstreamVeraSans-Roman-30"/>
       <use x="127.24609375" xlink:href="#BitstreamVeraSans-Roman-30"/>
      </g>
     </g>
    </g>
    <g id="xtick_4">
     <g id="line2d_7">
      <g>
       <use style="stroke:#000000;stroke-width:0.5;" x="174.137741047" xlink:href="#m93b0483c22" y="388.8"/>
      </g>
     </g>
     <g id="line2d_8">
      <g>
       <use style="stroke:#000000;stroke-width:0.5;" x="174.137741047" xlink:href="#m741efc42ff" y="43.2"/>
      </g>
     </g>
     <g id="text_4">
      <!-- 300 -->
      <defs>
       <path d="
M40.5781 39.3125
Q47.6562 37.7969 51.625 33
Q55.6094 28.2188 55.6094 21.1875
Q55.6094 10.4062 48.1875 4.48438
Q40.7656 -1.42188 27.0938 -1.42188
Q22.5156 -1.42188 17.6562 -0.515625
Q12.7969 0.390625 7.625 2.20312
L7.625 11.7188
Q11.7188 9.32812 16.5938 8.10938
Q21.4844 6.89062 26.8125 6.89062
Q36.0781 6.89062 40.9375 10.5469
Q45.7969 14.2031 45.7969 21.1875
Q45.7969 27.6406 41.2812 31.2656
Q36.7656 34.9062 28.7188 34.9062
L20.2188 34.9062
L20.2188 43.0156
L29.1094 43.0156
Q36.375 43.0156 40.2344 45.9219
Q44.0938 48.8281 44.0938 54.2969
Q44.0938 59.9062 40.1094 62.9062
Q36.1406 65.9219 28.7188 65.9219
Q24.6562 65.9219 20.0156 65.0312
Q15.375 64.1562 9.8125 62.3125
L9.8125 71.0938
Q15.4375 72.6562 20.3438 73.4375
Q25.25 74.2188 29.5938 74.2188
Q40.8281 74.2188 47.3594 69.1094
Q53.9062 64.0156 53.9062 55.3281
Q53.9062 49.2656 50.4375 45.0938
Q46.9688 40.9219 40.5781 39.3125" id="BitstreamVeraSans-Roman-33"/>
      </defs>
      <g transform="translate(163.541178547 401.918125)scale(0.12 -0.12)">
       <use xlink:href="#BitstreamVeraSans-Roman-33"/>
       <use x="63.623046875" xlink:href="#BitstreamVeraSans-Roman-30"/>
       <use x="127.24609375" xlink:href="#BitstreamVeraSans-Roman-30"/>
      </g>
     </g>
    </g>
    <g id="xtick_5">
     <g id="line2d_9">
      <g>
       <use style="stroke:#000000;stroke-width:0.5;" x="208.297520661" xlink:href="#m93b0483c22" y="388.8"/>
      </g>
     </g>
     <g id="line2d_10">
      <g>
       <use style="stroke:#000000;stroke-width:0.5;" x="208.297520661" xlink:href="#m741efc42ff" y="43.2"/>
      </g>
     </g>
     <g id="text_5">
      <!-- 400 -->
      <defs>
       <path d="
M37.7969 64.3125
L12.8906 25.3906
L37.7969 25.3906
z

M35.2031 72.9062
L47.6094 72.9062
L47.6094 25.3906
L58.0156 25.3906
L58.0156 17.1875
L47.6094 17.1875
L47.6094 0
L37.7969 0
L37.7969 17.1875
L4.89062 17.1875
L4.89062 26.7031
z
" id="BitstreamVeraSans-Roman-34"/>
      </defs>
      <g transform="translate(197.536895661 401.918125)scale(0.12 -0.12)">
       <use xlink:href="#BitstreamVeraSans-Roman-34"/>
       <use x="63.623046875" xlink:href="#BitstreamVeraSans-Roman-30"/>
       <use x="127.24609375" xlink:href="#BitstreamVeraSans-Roman-30"/>
      </g>
     </g>
    </g>
    <g id="xtick_6">
     <g id="line2d_11">
      <g>
       <use style="stroke:#000000;stroke-width:0.5;" x="242.457300275" xlink:href="#m93b0483c22" y="388.8"/>
      </g>
     </g>
     <g id="line2d_12">
      <g>
       <use style="stroke:#000000;stroke-width:0.5;" x="242.457300275" xlink:href="#m741efc42ff" y="43.2"/>
      </g>
     </g>
     <g id="text_6">
      <!-- 500 -->
      <defs>
       <path d="
M10.7969 72.9062
L49.5156 72.9062
L49.5156 64.5938
L19.8281 64.5938
L19.8281 46.7344
Q21.9688 47.4688 24.1094 47.8281
Q26.2656 48.1875 28.4219 48.1875
Q40.625 48.1875 47.75 41.5
Q54.8906 34.8125 54.8906 23.3906
Q54.8906 11.625 47.5625 5.09375
Q40.2344 -1.42188 26.9062 -1.42188
Q22.3125 -1.42188 17.5469 -0.640625
Q12.7969 0.140625 7.71875 1.70312
L7.71875 11.625
Q12.1094 9.23438 16.7969 8.0625
Q21.4844 6.89062 26.7031 6.89062
Q35.1562 6.89062 40.0781 11.3281
Q45.0156 15.7656 45.0156 23.3906
Q45.0156 31 40.0781 35.4375
Q35.1562 39.8906 26.7031 39.8906
Q22.75 39.8906 18.8125 39.0156
Q14.8906 38.1406 10.7969 36.2812
z
" id="BitstreamVeraSans-Roman-35"/>
      </defs>
      <g transform="translate(231.866362775 401.918125)scale(0.12 -0.12)">
       <use xlink:href="#BitstreamVeraSans-Roman-35"/>
       <use x="63.623046875" xlink:href="#BitstreamVeraSans-Roman-30"/>
       <use x="127.24609375" xlink:href="#BitstreamVeraSans-Roman-30"/>
      </g>
     </g>
    </g>
    <g id="text_7">
     <!-- Trials -->
     <defs>
      <path d="
M34.2812 27.4844
Q23.3906 27.4844 19.1875 25
Q14.9844 22.5156 14.9844 16.5
Q14.9844 11.7188 18.1406 8.90625
Q21.2969 6.10938 26.7031 6.10938
Q34.1875 6.10938 38.7031 11.4062
Q43.2188 16.7031 43.2188 25.4844
L43.2188 27.4844
z

M52.2031 31.2031
L52.2031 0
L43.2188 0
L43.2188 8.29688
Q40.1406 3.32812 35.5469 0.953125
Q30.9531 -1.42188 24.3125 -1.42188
Q15.9219 -1.42188 10.9531 3.29688
Q6 8.01562 6 15.9219
Q6 25.1406 12.1719 29.8281
Q18.3594 34.5156 30.6094 34.5156
L43.2188 34.5156
L43.2188 35.4062
Q43.2188 41.6094 39.1406 45
Q35.0625 48.3906 27.6875 48.3906
Q23 48.3906 18.5469 47.2656
Q14.1094 46.1406 10.0156 43.8906
L10.0156 52.2031
Q14.9375 54.1094 19.5781 55.0469
Q24.2188 56 28.6094 56
Q40.4844 56 46.3438 49.8438
Q52.2031 43.7031 52.2031 31.2031" id="BitstreamVeraSans-Roman-61"/>
      <path d="
M9.42188 75.9844
L18.4062 75.9844
L18.4062 0
L9.42188 0
z
" id="BitstreamVeraSans-Roman-6c"/>
      <path d="
M9.42188 54.6875
L18.4062 54.6875
L18.4062 0
L9.42188 0
z

M9.42188 75.9844
L18.4062 75.9844
L18.4062 64.5938
L9.42188 64.5938
z
" id="BitstreamVeraSans-Roman-69"/>
      <path d="
M-0.296875 72.9062
L61.375 72.9062
L61.375 64.5938
L35.5 64.5938
L35.5 0
L25.5938 0
L25.5938 64.5938
L-0.296875 64.5938
z
" id="BitstreamVeraSans-Roman-54"/>
      <path d="
M41.1094 46.2969
Q39.5938 47.1719 37.8125 47.5781
Q36.0312 48 33.8906 48
Q26.2656 48 22.1875 43.0469
Q18.1094 38.0938 18.1094 28.8125
L18.1094 0
L9.07812 0
L9.07812 54.6875
L18.1094 54.6875
L18.1094 46.1875
Q20.9531 51.1719 25.4844 53.5781
Q30.0312 56 36.5312 56
Q37.4531 56 38.5781 55.875
Q39.7031 55.7656 41.0625 55.5156
z
" id="BitstreamVeraSans-Roman-72"/>
      <path d="
M44.2812 53.0781
L44.2812 44.5781
Q40.4844 46.5312 36.375 47.5
Q32.2812 48.4844 27.875 48.4844
Q21.1875 48.4844 17.8438 46.4375
Q14.5 44.3906 14.5 40.2812
Q14.5 37.1562 16.8906 35.375
Q19.2812 33.5938 26.5156 31.9844
L29.5938 31.2969
Q39.1562 29.25 43.1875 25.5156
Q47.2188 21.7812 47.2188 15.0938
Q47.2188 7.46875 41.1875 3.01562
Q35.1562 -1.42188 24.6094 -1.42188
Q20.2188 -1.42188 15.4531 -0.5625
Q10.6875 0.296875 5.42188 2
L5.42188 11.2812
Q10.4062 8.6875 15.2344 7.39062
Q20.0625 6.10938 24.8125 6.10938
Q31.1562 6.10938 34.5625 8.28125
Q37.9844 10.4531 37.9844 14.4062
Q37.9844 18.0625 35.5156 20.0156
Q33.0625 21.9688 24.7031 23.7812
L21.5781 24.5156
Q13.2344 26.2656 9.51562 29.9062
Q5.8125 33.5469 5.8125 39.8906
Q5.8125 47.6094 11.2812 51.7969
Q16.75 56 26.8125 56
Q31.7812 56 36.1719 55.2656
Q40.5781 54.5469 44.2812 53.0781" id="BitstreamVeraSans-Roman-73"/>
     </defs>
     <g transform="translate(158.346732955 418.531875)scale(0.12 -0.12)">
      <use xlink:href="#BitstreamVeraSans-Roman-54"/>
      <use x="46.333984375" xlink:href="#BitstreamVeraSans-Roman-72"/>
      <use x="87.447265625" xlink:href="#BitstreamVeraSans-Roman-69"/>
      <use x="115.23046875" xlink:href="#BitstreamVeraSans-Roman-61"/>
      <use x="176.509765625" xlink:href="#BitstreamVeraSans-Roman-6c"/>
      <use x="204.29296875" xlink:href="#BitstreamVeraSans-Roman-73"/>
     </g>
    </g>
   </g>
   <g id="matplotlib.axis_2">
    <g id="ytick_1">
     <g id="line2d_13">
      <defs>
       <path d="
M0 0
L4 0" id="m728421d6d4" style="stroke:#000000;stroke-width:0.5;"/>
      </defs>
      <g>
       <use style="stroke:#000000;stroke-width:0.5;" x="72.0" xlink:href="#m728421d6d4" y="388.8"/>
      </g>
     </g>
     <g id="line2d_14">
      <defs>
       <path d="
M0 0
L-4 0" id="mcb0005524f" style="stroke:#000000;stroke-width:0.5;"/>
      </defs>
      <g>
       <use style="stroke:#000000;stroke-width:0.5;" x="274.909090909" xlink:href="#mcb0005524f" y="388.8"/>
      </g>
     </g>
     <g id="text_8">
      <!-- 0.0 -->
      <defs>
       <path d="
M10.6875 12.4062
L21 12.4062
L21 0
L10.6875 0
z
" id="BitstreamVeraSans-Roman-2e"/>
      </defs>
      <g transform="translate(50.504375 392.11125)scale(0.12 -0.12)">
       <use xlink:href="#BitstreamVeraSans-Roman-30"/>
       <use x="63.623046875" xlink:href="#BitstreamVeraSans-Roman-2e"/>
       <use x="95.41015625" xlink:href="#BitstreamVeraSans-Roman-30"/>
      </g>
     </g>
    </g>
    <g id="ytick_2">
     <g id="line2d_15">
      <g>
       <use style="stroke:#000000;stroke-width:0.5;" x="72.0" xlink:href="#m728421d6d4" y="319.68"/>
      </g>
     </g>
     <g id="line2d_16">
      <g>
       <use style="stroke:#000000;stroke-width:0.5;" x="274.909090909" xlink:href="#mcb0005524f" y="319.68"/>
      </g>
     </g>
     <g id="text_9">
      <!-- 0.2 -->
      <g transform="translate(50.909375 322.99125)scale(0.12 -0.12)">
       <use xlink:href="#BitstreamVeraSans-Roman-30"/>
       <use x="63.623046875" xlink:href="#BitstreamVeraSans-Roman-2e"/>
       <use x="95.41015625" xlink:href="#BitstreamVeraSans-Roman-32"/>
      </g>
     </g>
    </g>
    <g id="ytick_3">
     <g id="line2d_17">
      <g>
       <use style="stroke:#000000;stroke-width:0.5;" x="72.0" xlink:href="#m728421d6d4" y="250.56"/>
      </g>
     </g>
     <g id="line2d_18">
      <g>
       <use style="stroke:#000000;stroke-width:0.5;" x="274.909090909" xlink:href="#mcb0005524f" y="250.56"/>
      </g>
     </g>
     <g id="text_10">
      <!-- 0.4 -->
      <g transform="translate(50.380625 253.87125)scale(0.12 -0.12)">
       <use xlink:href="#BitstreamVeraSans-Roman-30"/>
       <use x="63.623046875" xlink:href="#BitstreamVeraSans-Roman-2e"/>
       <use x="95.41015625" xlink:href="#BitstreamVeraSans-Roman-34"/>
      </g>
     </g>
    </g>
    <g id="ytick_4">
     <g id="line2d_19">
      <g>
       <use style="stroke:#000000;stroke-width:0.5;" x="72.0" xlink:href="#m728421d6d4" y="181.44"/>
      </g>
     </g>
     <g id="line2d_20">
      <g>
       <use style="stroke:#000000;stroke-width:0.5;" x="274.909090909" xlink:href="#mcb0005524f" y="181.44"/>
      </g>
     </g>
     <g id="text_11">
      <!-- 0.6 -->
      <defs>
       <path d="
M33.0156 40.375
Q26.375 40.375 22.4844 35.8281
Q18.6094 31.2969 18.6094 23.3906
Q18.6094 15.5312 22.4844 10.9531
Q26.375 6.39062 33.0156 6.39062
Q39.6562 6.39062 43.5312 10.9531
Q47.4062 15.5312 47.4062 23.3906
Q47.4062 31.2969 43.5312 35.8281
Q39.6562 40.375 33.0156 40.375
M52.5938 71.2969
L52.5938 62.3125
Q48.875 64.0625 45.0938 64.9844
Q41.3125 65.9219 37.5938 65.9219
Q27.8281 65.9219 22.6719 59.3281
Q17.5312 52.7344 16.7969 39.4062
Q19.6719 43.6562 24.0156 45.9219
Q28.375 48.1875 33.5938 48.1875
Q44.5781 48.1875 50.9531 41.5156
Q57.3281 34.8594 57.3281 23.3906
Q57.3281 12.1562 50.6875 5.35938
Q44.0469 -1.42188 33.0156 -1.42188
Q20.3594 -1.42188 13.6719 8.26562
Q6.98438 17.9688 6.98438 36.375
Q6.98438 53.6562 15.1875 63.9375
Q23.3906 74.2188 37.2031 74.2188
Q40.9219 74.2188 44.7031 73.4844
Q48.4844 72.75 52.5938 71.2969" id="BitstreamVeraSans-Roman-36"/>
      </defs>
      <g transform="translate(50.463125 184.75125)scale(0.12 -0.12)">
       <use xlink:href="#BitstreamVeraSans-Roman-30"/>
       <use x="63.623046875" xlink:href="#BitstreamVeraSans-Roman-2e"/>
       <use x="95.41015625" xlink:href="#BitstreamVeraSans-Roman-36"/>
      </g>
     </g>
    </g>
    <g id="ytick_5">
     <g id="line2d_21">
      <g>
       <use style="stroke:#000000;stroke-width:0.5;" x="72.0" xlink:href="#m728421d6d4" y="112.32"/>
      </g>
     </g>
     <g id="line2d_22">
      <g>
       <use style="stroke:#000000;stroke-width:0.5;" x="274.909090909" xlink:href="#mcb0005524f" y="112.32"/>
      </g>
     </g>
     <g id="text_12">
      <!-- 0.8 -->
      <defs>
       <path d="
M31.7812 34.625
Q24.75 34.625 20.7188 30.8594
Q16.7031 27.0938 16.7031 20.5156
Q16.7031 13.9219 20.7188 10.1562
Q24.75 6.39062 31.7812 6.39062
Q38.8125 6.39062 42.8594 10.1719
Q46.9219 13.9688 46.9219 20.5156
Q46.9219 27.0938 42.8906 30.8594
Q38.875 34.625 31.7812 34.625
M21.9219 38.8125
Q15.5781 40.375 12.0312 44.7188
Q8.5 49.0781 8.5 55.3281
Q8.5 64.0625 14.7188 69.1406
Q20.9531 74.2188 31.7812 74.2188
Q42.6719 74.2188 48.875 69.1406
Q55.0781 64.0625 55.0781 55.3281
Q55.0781 49.0781 51.5312 44.7188
Q48 40.375 41.7031 38.8125
Q48.8281 37.1562 52.7969 32.3125
Q56.7812 27.4844 56.7812 20.5156
Q56.7812 9.90625 50.3125 4.23438
Q43.8438 -1.42188 31.7812 -1.42188
Q19.7344 -1.42188 13.25 4.23438
Q6.78125 9.90625 6.78125 20.5156
Q6.78125 27.4844 10.7812 32.3125
Q14.7969 37.1562 21.9219 38.8125
M18.3125 54.3906
Q18.3125 48.7344 21.8438 45.5625
Q25.3906 42.3906 31.7812 42.3906
Q38.1406 42.3906 41.7188 45.5625
Q45.3125 48.7344 45.3125 54.3906
Q45.3125 60.0625 41.7188 63.2344
Q38.1406 66.4062 31.7812 66.4062
Q25.3906 66.4062 21.8438 63.2344
Q18.3125 60.0625 18.3125 54.3906" id="BitstreamVeraSans-Roman-38"/>
      </defs>
      <g transform="translate(50.52875 115.63125)scale(0.12 -0.12)">
       <use xlink:href="#BitstreamVeraSans-Roman-30"/>
       <use x="63.623046875" xlink:href="#BitstreamVeraSans-Roman-2e"/>
       <use x="95.41015625" xlink:href="#BitstreamVeraSans-Roman-38"/>
      </g>
     </g>
    </g>
    <g id="ytick_6">
     <g id="line2d_23">
      <g>
       <use style="stroke:#000000;stroke-width:0.5;" x="72.0" xlink:href="#m728421d6d4" y="43.2"/>
      </g>
     </g>
     <g id="line2d_24">
      <g>
       <use style="stroke:#000000;stroke-width:0.5;" x="274.909090909" xlink:href="#mcb0005524f" y="43.2"/>
      </g>
     </g>
     <g id="text_13">
      <!-- 1.0 -->
      <g transform="translate(51.03125 46.51125)scale(0.12 -0.12)">
       <use xlink:href="#BitstreamVeraSans-Roman-31"/>
       <use x="63.623046875" xlink:href="#BitstreamVeraSans-Roman-2e"/>
       <use x="95.41015625" xlink:href="#BitstreamVeraSans-Roman-30"/>
      </g>
     </g>
    </g>
    <g id="text_14">
     <!-- Probability of Receiving Large Reward -->
     <defs>
      <path d="
M45.4062 46.3906
L45.4062 75.9844
L54.3906 75.9844
L54.3906 0
L45.4062 0
L45.4062 8.20312
Q42.5781 3.32812 38.25 0.953125
Q33.9375 -1.42188 27.875 -1.42188
Q17.9688 -1.42188 11.7344 6.48438
Q5.51562 14.4062 5.51562 27.2969
Q5.51562 40.1875 11.7344 48.0938
Q17.9688 56 27.875 56
Q33.9375 56 38.25 53.625
Q42.5781 51.2656 45.4062 46.3906
M14.7969 27.2969
Q14.7969 17.3906 18.875 11.75
Q22.9531 6.10938 30.0781 6.10938
Q37.2031 6.10938 41.2969 11.75
Q45.4062 17.3906 45.4062 27.2969
Q45.4062 37.2031 41.2969 42.8438
Q37.2031 48.4844 30.0781 48.4844
Q22.9531 48.4844 18.875 42.8438
Q14.7969 37.2031 14.7969 27.2969" id="BitstreamVeraSans-Roman-64"/>
      <path id="BitstreamVeraSans-Roman-20"/>
      <path d="
M9.8125 72.9062
L19.6719 72.9062
L19.6719 8.29688
L55.1719 8.29688
L55.1719 0
L9.8125 0
z
" id="BitstreamVeraSans-Roman-4c"/>
      <path d="
M54.8906 33.0156
L54.8906 0
L45.9062 0
L45.9062 32.7188
Q45.9062 40.4844 42.875 44.3281
Q39.8438 48.1875 33.7969 48.1875
Q26.5156 48.1875 22.3125 43.5469
Q18.1094 38.9219 18.1094 30.9062
L18.1094 0
L9.07812 0
L9.07812 54.6875
L18.1094 54.6875
L18.1094 46.1875
Q21.3438 51.125 25.7031 53.5625
Q30.0781 56 35.7969 56
Q45.2188 56 50.0469 50.1719
Q54.8906 44.3438 54.8906 33.0156" id="BitstreamVeraSans-Roman-6e"/>
      <path d="
M30.6094 48.3906
Q23.3906 48.3906 19.1875 42.75
Q14.9844 37.1094 14.9844 27.2969
Q14.9844 17.4844 19.1562 11.8438
Q23.3438 6.20312 30.6094 6.20312
Q37.7969 6.20312 41.9844 11.8594
Q46.1875 17.5312 46.1875 27.2969
Q46.1875 37.0156 41.9844 42.7031
Q37.7969 48.3906 30.6094 48.3906
M30.6094 56
Q42.3281 56 49.0156 48.375
Q55.7188 40.7656 55.7188 27.2969
Q55.7188 13.875 49.0156 6.21875
Q42.3281 -1.42188 30.6094 -1.42188
Q18.8438 -1.42188 12.1719 6.21875
Q5.51562 13.875 5.51562 27.2969
Q5.51562 40.7656 12.1719 48.375
Q18.8438 56 30.6094 56" id="BitstreamVeraSans-Roman-6f"/>
      <path d="
M19.6719 64.7969
L19.6719 37.4062
L32.0781 37.4062
Q38.9688 37.4062 42.7188 40.9688
Q46.4844 44.5312 46.4844 51.125
Q46.4844 57.6719 42.7188 61.2344
Q38.9688 64.7969 32.0781 64.7969
z

M9.8125 72.9062
L32.0781 72.9062
Q44.3438 72.9062 50.6094 67.3594
Q56.8906 61.8125 56.8906 51.125
Q56.8906 40.3281 50.6094 34.8125
Q44.3438 29.2969 32.0781 29.2969
L19.6719 29.2969
L19.6719 0
L9.8125 0
z
" id="BitstreamVeraSans-Roman-50"/>
      <path d="
M2.98438 54.6875
L12.5 54.6875
L29.5938 8.79688
L46.6875 54.6875
L56.2031 54.6875
L35.6875 0
L23.4844 0
z
" id="BitstreamVeraSans-Roman-76"/>
      <path d="
M44.3906 34.1875
Q47.5625 33.1094 50.5625 29.5938
Q53.5625 26.0781 56.5938 19.9219
L66.6094 0
L56 0
L46.6875 18.7031
Q43.0625 26.0312 39.6719 28.4219
Q36.2812 30.8125 30.4219 30.8125
L19.6719 30.8125
L19.6719 0
L9.8125 0
L9.8125 72.9062
L32.0781 72.9062
Q44.5781 72.9062 50.7344 67.6719
Q56.8906 62.4531 56.8906 51.9062
Q56.8906 45.0156 53.6875 40.4688
Q50.4844 35.9375 44.3906 34.1875
M19.6719 64.7969
L19.6719 38.9219
L32.0781 38.9219
Q39.2031 38.9219 42.8438 42.2188
Q46.4844 45.5156 46.4844 51.9062
Q46.4844 58.2969 42.8438 61.5469
Q39.2031 64.7969 32.0781 64.7969
z
" id="BitstreamVeraSans-Roman-52"/>
      <path d="
M32.1719 -5.07812
Q28.375 -14.8438 24.75 -17.8125
Q21.1406 -20.7969 15.0938 -20.7969
L7.90625 -20.7969
L7.90625 -13.2812
L13.1875 -13.2812
Q16.8906 -13.2812 18.9375 -11.5156
Q21 -9.76562 23.4844 -3.21875
L25.0938 0.875
L2.98438 54.6875
L12.5 54.6875
L29.5938 11.9219
L46.6875 54.6875
L56.2031 54.6875
z
" id="BitstreamVeraSans-Roman-79"/>
      <path d="
M56.2031 29.5938
L56.2031 25.2031
L14.8906 25.2031
Q15.4844 15.9219 20.4844 11.0625
Q25.4844 6.20312 34.4219 6.20312
Q39.5938 6.20312 44.4531 7.46875
Q49.3125 8.73438 54.1094 11.2812
L54.1094 2.78125
Q49.2656 0.734375 44.1875 -0.34375
Q39.1094 -1.42188 33.8906 -1.42188
Q20.7969 -1.42188 13.1562 6.1875
Q5.51562 13.8125 5.51562 26.8125
Q5.51562 40.2344 12.7656 48.1094
Q20.0156 56 32.3281 56
Q43.3594 56 49.7812 48.8906
Q56.2031 41.7969 56.2031 29.5938
M47.2188 32.2344
Q47.125 39.5938 43.0938 43.9844
Q39.0625 48.3906 32.4219 48.3906
Q24.9062 48.3906 20.3906 44.1406
Q15.875 39.8906 15.1875 32.1719
z
" id="BitstreamVeraSans-Roman-65"/>
      <path d="
M4.20312 54.6875
L13.1875 54.6875
L24.4219 12.0156
L35.5938 54.6875
L46.1875 54.6875
L57.4219 12.0156
L68.6094 54.6875
L77.5938 54.6875
L63.2812 0
L52.6875 0
L40.9219 44.8281
L29.1094 0
L18.5 0
z
" id="BitstreamVeraSans-Roman-77"/>
      <path d="
M18.3125 70.2188
L18.3125 54.6875
L36.8125 54.6875
L36.8125 47.7031
L18.3125 47.7031
L18.3125 18.0156
Q18.3125 11.3281 20.1406 9.42188
Q21.9688 7.51562 27.5938 7.51562
L36.8125 7.51562
L36.8125 0
L27.5938 0
Q17.1875 0 13.2344 3.875
Q9.28125 7.76562 9.28125 18.0156
L9.28125 47.7031
L2.6875 47.7031
L2.6875 54.6875
L9.28125 54.6875
L9.28125 70.2188
z
" id="BitstreamVeraSans-Roman-74"/>
      <path d="
M37.1094 75.9844
L37.1094 68.5
L28.5156 68.5
Q23.6875 68.5 21.7969 66.5469
Q19.9219 64.5938 19.9219 59.5156
L19.9219 54.6875
L34.7188 54.6875
L34.7188 47.7031
L19.9219 47.7031
L19.9219 0
L10.8906 0
L10.8906 47.7031
L2.29688 47.7031
L2.29688 54.6875
L10.8906 54.6875
L10.8906 58.5
Q10.8906 67.625 15.1406 71.7969
Q19.3906 75.9844 28.6094 75.9844
z
" id="BitstreamVeraSans-Roman-66"/>
      <path d="
M45.4062 27.9844
Q45.4062 37.75 41.375 43.1094
Q37.3594 48.4844 30.0781 48.4844
Q22.8594 48.4844 18.8281 43.1094
Q14.7969 37.75 14.7969 27.9844
Q14.7969 18.2656 18.8281 12.8906
Q22.8594 7.51562 30.0781 7.51562
Q37.3594 7.51562 41.375 12.8906
Q45.4062 18.2656 45.4062 27.9844
M54.3906 6.78125
Q54.3906 -7.17188 48.1875 -13.9844
Q42 -20.7969 29.2031 -20.7969
Q24.4688 -20.7969 20.2656 -20.0938
Q16.0625 -19.3906 12.1094 -17.9219
L12.1094 -9.1875
Q16.0625 -11.3281 19.9219 -12.3438
Q23.7812 -13.375 27.7812 -13.375
Q36.625 -13.375 41.0156 -8.76562
Q45.4062 -4.15625 45.4062 5.17188
L45.4062 9.625
Q42.625 4.78125 38.2812 2.39062
Q33.9375 0 27.875 0
Q17.8281 0 11.6719 7.65625
Q5.51562 15.3281 5.51562 27.9844
Q5.51562 40.6719 11.6719 48.3281
Q17.8281 56 27.875 56
Q33.9375 56 38.2812 53.6094
Q42.625 51.2188 45.4062 46.3906
L45.4062 54.6875
L54.3906 54.6875
z
" id="BitstreamVeraSans-Roman-67"/>
      <path d="
M48.7812 52.5938
L48.7812 44.1875
Q44.9688 46.2969 41.1406 47.3438
Q37.3125 48.3906 33.4062 48.3906
Q24.6562 48.3906 19.8125 42.8438
Q14.9844 37.3125 14.9844 27.2969
Q14.9844 17.2812 19.8125 11.7344
Q24.6562 6.20312 33.4062 6.20312
Q37.3125 6.20312 41.1406 7.25
Q44.9688 8.29688 48.7812 10.4062
L48.7812 2.09375
Q45.0156 0.34375 40.9844 -0.53125
Q36.9688 -1.42188 32.4219 -1.42188
Q20.0625 -1.42188 12.7812 6.34375
Q5.51562 14.1094 5.51562 27.2969
Q5.51562 40.6719 12.8594 48.3281
Q20.2188 56 33.0156 56
Q37.1562 56 41.1094 55.1406
Q45.0625 54.2969 48.7812 52.5938" id="BitstreamVeraSans-Roman-63"/>
      <path d="
M48.6875 27.2969
Q48.6875 37.2031 44.6094 42.8438
Q40.5312 48.4844 33.4062 48.4844
Q26.2656 48.4844 22.1875 42.8438
Q18.1094 37.2031 18.1094 27.2969
Q18.1094 17.3906 22.1875 11.75
Q26.2656 6.10938 33.4062 6.10938
Q40.5312 6.10938 44.6094 11.75
Q48.6875 17.3906 48.6875 27.2969
M18.1094 46.3906
Q20.9531 51.2656 25.2656 53.625
Q29.5938 56 35.5938 56
Q45.5625 56 51.7812 48.0938
Q58.0156 40.1875 58.0156 27.2969
Q58.0156 14.4062 51.7812 6.48438
Q45.5625 -1.42188 35.5938 -1.42188
Q29.5938 -1.42188 25.2656 0.953125
Q20.9531 3.32812 18.1094 8.20312
L18.1094 0
L9.07812 0
L9.07812 75.9844
L18.1094 75.9844
z
" id="BitstreamVeraSans-Roman-62"/>
     </defs>
     <g transform="translate(42.885 328.88625)rotate(-90.0)scale(0.12 -0.12)">
      <use xlink:href="#BitstreamVeraSans-Roman-50"/>
      <use x="58.552734375" xlink:href="#BitstreamVeraSans-Roman-72"/>
      <use x="97.416015625" xlink:href="#BitstreamVeraSans-Roman-6f"/>
      <use x="158.59765625" xlink:href="#BitstreamVeraSans-Roman-62"/>
      <use x="222.07421875" xlink:href="#BitstreamVeraSans-Roman-61"/>
      <use x="283.353515625" xlink:href="#BitstreamVeraSans-Roman-62"/>
      <use x="346.830078125" xlink:href="#BitstreamVeraSans-Roman-69"/>
      <use x="374.61328125" xlink:href="#BitstreamVeraSans-Roman-6c"/>
      <use x="402.396484375" xlink:href="#BitstreamVeraSans-Roman-69"/>
      <use x="430.1796875" xlink:href="#BitstreamVeraSans-Roman-74"/>
      <use x="469.388671875" xlink:href="#BitstreamVeraSans-Roman-79"/>
      <use x="528.568359375" xlink:href="#BitstreamVeraSans-Roman-20"/>
      <use x="560.35546875" xlink:href="#BitstreamVeraSans-Roman-6f"/>
      <use x="621.537109375" xlink:href="#BitstreamVeraSans-Roman-66"/>
      <use x="656.7421875" xlink:href="#BitstreamVeraSans-Roman-20"/>
      <use x="688.529296875" xlink:href="#BitstreamVeraSans-Roman-52"/>
      <use x="753.51171875" xlink:href="#BitstreamVeraSans-Roman-65"/>
      <use x="815.03515625" xlink:href="#BitstreamVeraSans-Roman-63"/>
      <use x="870.015625" xlink:href="#BitstreamVeraSans-Roman-65"/>
      <use x="931.5390625" xlink:href="#BitstreamVeraSans-Roman-69"/>
      <use x="959.322265625" xlink:href="#BitstreamVeraSans-Roman-76"/>
      <use x="1018.50195312" xlink:href="#BitstreamVeraSans-Roman-69"/>
      <use x="1046.28515625" xlink:href="#BitstreamVeraSans-Roman-6e"/>
      <use x="1109.6640625" xlink:href="#BitstreamVeraSans-Roman-67"/>
      <use x="1173.140625" xlink:href="#BitstreamVeraSans-Roman-20"/>
      <use x="1204.92773438" xlink:href="#BitstreamVeraSans-Roman-4c"/>
      <use x="1260.640625" xlink:href="#BitstreamVeraSans-Roman-61"/>
      <use x="1321.91992188" xlink:href="#BitstreamVeraSans-Roman-72"/>
      <use x="1361.28320312" xlink:href="#BitstreamVeraSans-Roman-67"/>
      <use x="1424.75976562" xlink:href="#BitstreamVeraSans-Roman-65"/>
      <use x="1486.28320312" xlink:href="#BitstreamVeraSans-Roman-20"/>
      <use x="1518.0703125" xlink:href="#BitstreamVeraSans-Roman-52"/>
      <use x="1583.05273438" xlink:href="#BitstreamVeraSans-Roman-65"/>
      <use x="1644.57617188" xlink:href="#BitstreamVeraSans-Roman-77"/>
      <use x="1726.36328125" xlink:href="#BitstreamVeraSans-Roman-61"/>
      <use x="1787.64257812" xlink:href="#BitstreamVeraSans-Roman-72"/>
      <use x="1827.00585938" xlink:href="#BitstreamVeraSans-Roman-64"/>
     </g>
    </g>
   </g>
   <g id="text_15">
    <!-- All Trials -->
    <defs>
     <path d="
M34.1875 63.1875
L20.7969 26.9062
L47.6094 26.9062
z

M28.6094 72.9062
L39.7969 72.9062
L67.5781 0
L57.3281 0
L50.6875 18.7031
L17.8281 18.7031
L11.1875 0
L0.78125 0
z
" id="BitstreamVeraSans-Roman-41"/>
    </defs>
    <g transform="translate(144.132545455 38.2)scale(0.144 -0.144)">
     <use xlink:href="#BitstreamVeraSans-Roman-41"/>
     <use x="68.408203125" xlink:href="#BitstreamVeraSans-Roman-6c"/>
     <use x="96.19140625" xlink:href="#BitstreamVeraSans-Roman-6c"/>
     <use x="123.974609375" xlink:href="#BitstreamVeraSans-Roman-20"/>
     <use x="155.76171875" xlink:href="#BitstreamVeraSans-Roman-54"/>
     <use x="202.095703125" xlink:href="#BitstreamVeraSans-Roman-72"/>
     <use x="243.208984375" xlink:href="#BitstreamVeraSans-Roman-69"/>
     <use x="270.9921875" xlink:href="#BitstreamVeraSans-Roman-61"/>
     <use x="332.271484375" xlink:href="#BitstreamVeraSans-Roman-6c"/>
     <use x="360.0546875" xlink:href="#BitstreamVeraSans-Roman-73"/>
    </g>
   </g>
   <g id="legend_1">
    <g id="patch_7">
     <path d="
M187.004 96.993
L267.709 96.993
L267.709 50.4
L187.004 50.4
z
" style="fill:#ffffff;stroke:#000000;stroke-linejoin:miter;"/>
    </g>
    <g id="line2d_25">
     <path d="
M197.084 62.0617
L217.244 62.0617" style="fill:none;stroke:#0000ff;stroke-linecap:square;"/>
    </g>
    <g id="line2d_26"/>
    <g id="text_16">
     <!-- high -->
     <defs>
      <path d="
M54.8906 33.0156
L54.8906 0
L45.9062 0
L45.9062 32.7188
Q45.9062 40.4844 42.875 44.3281
Q39.8438 48.1875 33.7969 48.1875
Q26.5156 48.1875 22.3125 43.5469
Q18.1094 38.9219 18.1094 30.9062
L18.1094 0
L9.07812 0
L9.07812 75.9844
L18.1094 75.9844
L18.1094 46.1875
Q21.3438 51.125 25.7031 53.5625
Q30.0781 56 35.7969 56
Q45.2188 56 50.0469 50.1719
Q54.8906 44.3438 54.8906 33.0156" id="BitstreamVeraSans-Roman-68"/>
     </defs>
     <g transform="translate(233.083840909 67.10175)scale(0.144 -0.144)">
      <use xlink:href="#BitstreamVeraSans-Roman-68"/>
      <use x="63.37890625" xlink:href="#BitstreamVeraSans-Roman-69"/>
      <use x="91.162109375" xlink:href="#BitstreamVeraSans-Roman-67"/>
      <use x="154.638671875" xlink:href="#BitstreamVeraSans-Roman-68"/>
     </g>
    </g>
    <g id="line2d_27">
     <path d="
M197.084 83.1982
L217.244 83.1982" style="fill:none;stroke:#ff0000;stroke-linecap:square;"/>
    </g>
    <g id="line2d_28"/>
    <g id="text_17">
     <!-- low -->
     <g transform="translate(233.083840909 88.23825)scale(0.144 -0.144)">
      <use xlink:href="#BitstreamVeraSans-Roman-6c"/>
      <use x="27.783203125" xlink:href="#BitstreamVeraSans-Roman-6f"/>
      <use x="88.96484375" xlink:href="#BitstreamVeraSans-Roman-77"/>
     </g>
    </g>
   </g>
  </g>
  <g id="axes_2">
   <g id="patch_8">
    <path d="
M315.491 388.8
L518.4 388.8
L518.4 43.2
L315.491 43.2
z
" style="fill:#ffffff;"/>
   </g>
   <g id="line2d_29">
    <path clip-path="url(#pc565ddf9d5)" d="
M315.491 388.8
L317.942 388.8
L318.432 43.2
L320.392 43.2
L320.882 129.6
L321.372 112.32
L322.843 112.32
L323.333 100.8
L323.823 100.8
L324.313 92.5714
L324.803 92.5714
L325.293 86.4
L326.274 86.4
L327.254 77.76
L327.744 74.6182
L330.194 74.6182
L330.685 72
L333.625 72
L334.606 67.8857
L335.586 67.8857
L336.076 66.24
L339.017 66.24
L339.997 63.5294
L340.977 61.3895
L341.467 60.48
L341.957 60.48
L342.447 59.6571
L342.938 74.6182
L343.428 74.6182
L343.918 73.2522
L344.408 73.2522
L345.388 76.1143
L345.878 60.48
L346.368 61.3895
L346.858 61.3895
L347.349 77.76
L347.839 77.76
L348.329 79.5789
L348.819 79.5789
L349.309 81.6
L349.799 79.5789
L351.76 79.5789
L352.74 83.8588
L353.23 83.8588
L353.72 100.8
L354.21 97.7684
L354.7 97.7684
L355.191 95.04
L355.681 97.7684
L356.661 97.7684
L357.151 95.04
L358.621 95.04
L359.602 100.8
L360.582 100.8
L361.072 104.188
L363.032 104.188
L363.523 120
L364.013 115.958
L364.503 120
L365.483 120
L365.973 124.518
L366.463 124.518
L366.953 120
L367.443 124.518
L367.934 108
L368.424 112.32
L368.914 135.36
L369.404 135.36
L370.384 124.518
L370.874 120
L371.855 120
L372.345 104.188
L373.325 97.7684
L374.305 92.5714
L375.285 97.7684
L375.775 112.32
L376.266 112.32
L376.756 115.958
L377.736 109.029
L378.226 109.029
L378.716 95.04
L379.206 97.7684
L379.696 97.7684
L380.187 100.8
L381.167 100.8
L381.657 97.7684
L384.598 97.7684
L385.088 95.04
L387.048 95.04
L387.538 92.5714
L388.028 92.5714
L388.519 76.1143
L389.009 76.1143
L389.499 74.6182
L389.989 76.1143
L391.459 76.1143
L391.949 77.76
L392.93 77.76
L393.42 76.1143
L393.91 60.48
L394.4 60.48
L395.38 62.4
L395.87 63.5294
L396.36 63.5294
L396.851 62.4
L397.341 62.4
L397.831 63.5294
L398.321 63.5294
L399.301 66.24
L400.281 66.24
L400.772 43.2
L409.594 43.2
L410.084 63.5294
L410.574 63.5294
L411.064 62.4
L411.554 62.4
L412.044 61.3895
L412.534 62.4
L413.025 62.4
L414.005 64.8
L414.495 64.8
L414.985 63.5294
L416.945 63.5294
L417.926 61.3895
L420.376 61.3895
L421.357 59.6571
L424.297 59.6571
L424.787 74.6182
L425.277 74.6182
L425.768 73.2522
L426.748 73.2522
L427.238 74.6182
L428.708 74.6182
L429.198 73.2522
L429.689 74.6182
L431.159 74.6182
L431.649 73.2522
L433.119 73.2522
L434.1 76.1143
L434.59 74.6182
L435.08 59.6571
L435.57 58.9091
L436.55 58.9091
L437.04 59.6571
L438.021 58.2261
L439.001 58.2261
L439.981 59.6571
L440.471 60.48
L440.961 59.6571
L441.942 59.6571
L442.922 61.3895
L443.412 62.4
L443.902 79.5789
L446.843 79.5789
L447.333 77.76
L447.823 92.5714
L448.313 95.04
L449.293 95.04
L449.783 77.76
L450.274 76.1143
L450.764 77.76
L451.254 77.76
L451.744 76.1143
L452.234 90.3273
L452.724 88.2783
L453.214 88.2783
L454.194 92.5714
L454.685 92.5714
L455.175 90.3273
L455.665 103.304
L456.155 100.8
L456.645 103.304
L458.115 103.304
L459.096 98.496
L459.586 100.8
L460.566 100.8
L461.056 115.2
L461.546 112.32
L462.036 112.32
L463.017 118.33
L463.997 118.33
L464.977 112.32
L465.957 112.32
L466.447 115.2
L467.428 115.2
L468.408 109.662
L468.898 98.496
L469.388 96.3692
L469.878 107.2
L470.368 104.914
L471.349 109.662
L472.329 115.2
L472.819 103.304
L473.799 103.304
L474.289 100.8
L474.779 103.304
L475.76 103.304
L476.25 100.8
L476.74 103.304
L477.23 90.3273
L480.171 90.3273
L480.661 76.1143
L481.151 76.1143
L481.641 74.6182
L482.131 76.1143
L483.602 76.1143
L484.092 77.76
L484.582 76.1143
L485.072 76.1143
L485.562 77.76
L486.052 60.48
L486.542 60.48
L487.523 58.9091
L488.993 58.9091
L489.483 74.6182
L490.953 74.6182
L491.443 73.2522
L492.424 73.2522
L493.404 76.1143
L494.384 76.1143
L494.874 59.6571
L495.364 59.6571
L496.345 58.2261
L498.305 58.2261
L498.795 57.6
L499.285 58.2261
L499.775 57.6
L500.266 72
L500.756 70.848
L501.246 72
L501.736 70.848
L502.716 70.848
L503.206 72
L504.187 72
L504.677 70.848
L505.167 84.672
L505.657 84.672
L506.637 88.2783
L507.617 88.2783
L508.108 86.4
L508.598 88.2783
L509.088 86.4
L509.578 86.4
L510.068 98.496
L510.558 98.496
L511.538 103.304
L512.028 106.036
L512.519 106.036
L513.499 100.8
L513.989 112.32
L514.479 100.8
L515.459 100.8
L516.44 106.036
L518.4 106.036
L518.4 106.036" style="fill:none;stroke:#0000ff;stroke-linecap:square;"/>
   </g>
   <g id="line2d_30">
    <path clip-path="url(#pc565ddf9d5)" d="
M315.491 388.8
L315.981 216
L316.471 273.6
L316.961 216
L317.451 250.56
L317.942 216
L318.432 216
L318.922 240.686
L319.412 259.2
L321.372 259.2
L321.862 273.6
L322.353 250.56
L322.843 263.127
L323.333 263.127
L323.823 273.6
L324.313 273.6
L324.803 255.877
L325.293 255.877
L326.274 227.52
L327.744 227.52
L328.724 246.494
L329.214 235.2
L329.704 243.284
L330.194 233.28
L330.685 233.28
L331.665 216
L332.155 223.513
L332.645 216
L333.625 229.292
L334.606 229.292
L335.096 222.4
L335.586 228.343
L336.076 228.343
L336.566 221.959
L337.546 232.723
L338.036 226.8
L339.017 236.329
L339.997 236.329
L340.487 231.709
L340.977 237.6
L341.467 232.723
L341.957 232.723
L342.447 227.52
L342.938 233.876
L343.428 233.876
L343.918 228.343
L344.408 228.343
L344.898 221.959
L345.388 227.52
L345.878 221.574
L346.368 226.8
L346.858 216
L347.349 221.574
L347.839 210.426
L348.329 216
L348.819 216
L349.309 210.764
L349.799 216
L350.289 216
L351.27 237.6
L351.76 237.6
L352.74 246.494
L353.23 236.329
L353.72 231.709
L354.21 237.6
L354.7 226.8
L355.191 232.723
L355.681 226.8
L356.661 226.8
L357.151 221.574
L357.641 232.723
L358.131 232.723
L358.621 221.574
L359.111 216
L359.602 221.236
L360.092 221.236
L360.582 210.764
L361.072 205.835
L361.562 216
L363.032 216
L364.503 200.291
L365.483 200.291
L365.973 195.671
L366.463 195.671
L366.953 200.291
L367.934 191.314
L368.424 196.8
L369.404 196.8
L369.894 201.189
L370.384 195.671
L370.874 200.291
L371.364 200.291
L371.855 210.764
L372.345 205.835
L372.835 210.764
L373.815 199.277
L374.795 210.426
L375.775 199.277
L376.266 199.277
L376.756 194.4
L377.736 181.44
L378.226 192.96
L378.716 188.129
L379.206 194.4
L379.696 194.4
L380.187 189.818
L381.167 189.818
L381.657 194.4
L382.147 194.4
L383.127 172.8
L383.617 183.6
L384.108 183.6
L384.598 172.8
L385.088 176.981
L386.558 176.981
L387.048 165.832
L387.538 158.4
L388.028 169.92
L389.009 169.92
L389.499 174.29
L389.989 169.92
L391.459 169.92
L391.949 165.832
L392.93 165.832
L393.42 158.4
L393.91 154.684
L394.4 154.684
L394.89 151.2
L395.38 158.4
L395.87 155.012
L396.36 155.012
L396.851 147.927
L397.341 158.4
L397.831 165.176
L398.321 165.176
L399.301 158.4
L400.281 158.4
L400.772 164.627
L402.242 164.627
L402.732 161.432
L403.222 155.286
L403.712 158.4
L404.202 158.4
L404.692 161.691
L405.183 171.566
L406.163 171.566
L406.653 177.6
L407.143 177.6
L407.633 187.2
L408.123 187.2
L408.613 181.44
L409.104 185.506
L409.594 195.671
L410.574 195.671
L411.064 200.291
L411.554 200.291
L412.044 205.2
L412.534 200.291
L413.025 189.818
L414.005 201.189
L414.495 201.189
L414.985 205.835
L415.475 205.835
L415.965 216
L416.455 216
L416.945 226.165
L417.926 237.6
L420.376 237.6
L420.866 243.871
L421.357 239.04
L423.317 239.04
L424.297 262.08
L424.787 257.71
L425.277 269.628
L425.768 265.371
L426.748 265.371
L427.238 257.71
L427.728 269.628
L428.708 269.628
L429.198 265.371
L429.689 257.71
L430.179 245.793
L430.669 245.793
L431.159 257.71
L431.649 253.029
L432.629 253.029
L433.119 265.371
L433.609 269.628
L434.1 262.08
L434.59 257.71
L435.08 262.08
L435.57 269.628
L436.06 269.628
L436.55 257.71
L437.04 262.08
L438.021 277.714
L439.001 253.029
L439.491 245.793
L439.981 250.56
L440.471 243.871
L440.961 239.04
L441.942 239.04
L442.922 226.8
L443.902 237.6
L446.843 237.6
L447.823 227.52
L448.313 221.574
L448.803 210.426
L449.783 210.426
L450.274 204.48
L450.764 210.426
L451.254 210.426
L452.234 221.959
L452.724 216
L453.214 216
L453.704 210.041
L454.194 216
L454.685 216
L455.665 228.343
L456.155 222.4
L456.645 228.343
L457.135 228.343
L457.625 216
L458.115 216
L458.606 209.6
L459.096 216
L459.586 209.6
L460.076 196.8
L461.056 196.8
L461.546 202.708
L462.036 202.708
L463.017 191.314
L463.997 191.314
L464.487 196.8
L464.977 189.415
L465.467 202.708
L465.957 202.708
L466.447 209.6
L467.428 209.6
L467.918 216
L468.408 209.088
L468.898 216
L469.388 209.088
L469.878 216
L470.858 201.6
L471.349 209.088
L472.329 196.8
L472.819 203.657
L473.799 228.343
L474.779 216
L475.76 216
L476.74 203.657
L477.23 210.041
L479.191 210.041
L479.681 221.959
L480.171 221.959
L480.661 216
L481.151 216
L481.641 210.041
L482.131 216
L482.621 216
L483.111 204.48
L483.602 204.48
L484.582 216
L485.072 227.52
L485.562 221.574
L486.542 221.574
L487.032 216
L487.523 221.959
L488.993 257.71
L490.953 257.71
L491.443 253.029
L492.424 253.029
L492.914 245.793
L493.404 250.56
L493.894 239.04
L495.364 239.04
L495.855 245.793
L496.345 240.686
L496.835 253.029
L497.815 253.029
L498.305 240.686
L498.795 235.2
L499.285 228.343
L499.775 235.2
L500.266 235.2
L500.756 229.292
L501.246 235.2
L501.736 242.585
L502.716 242.585
L503.206 235.2
L504.187 235.2
L504.677 229.292
L505.657 229.292
L506.637 240.686
L507.127 228.343
L507.617 228.343
L508.598 240.686
L509.088 235.2
L509.578 235.2
L510.068 229.292
L510.558 242.585
L512.028 221.959
L512.519 221.959
L513.499 209.6
L514.479 196.8
L515.459 196.8
L516.44 186.207
L517.42 186.207
L517.91 198.124
L518.4 198.124
L518.4 198.124" style="fill:none;stroke:#ff0000;stroke-linecap:square;"/>
   </g>
   <g id="patch_9">
    <path d="
M315.491 43.2
L518.4 43.2" style="fill:none;stroke:#000000;stroke-linecap:square;stroke-linejoin:miter;"/>
   </g>
   <g id="patch_10">
    <path d="
M518.4 388.8
L518.4 43.2" style="fill:none;stroke:#000000;stroke-linecap:square;stroke-linejoin:miter;"/>
   </g>
   <g id="patch_11">
    <path d="
M315.491 388.8
L518.4 388.8" style="fill:none;stroke:#000000;stroke-linecap:square;stroke-linejoin:miter;"/>
   </g>
   <g id="patch_12">
    <path d="
M315.491 388.8
L315.491 43.2" style="fill:none;stroke:#000000;stroke-linecap:square;stroke-linejoin:miter;"/>
   </g>
   <g id="matplotlib.axis_3">
    <g id="xtick_7">
     <g id="text_18">
      <!-- 0 -->
      <g transform="translate(311.977353014 401.918125)scale(0.12 -0.12)">
       <use xlink:href="#BitstreamVeraSans-Roman-30"/>
      </g>
     </g>
    </g>
    <g id="xtick_8">
     <g id="line2d_31">
      <g>
       <use style="stroke:#000000;stroke-width:0.5;" x="339.506719368" xlink:href="#m93b0483c22" y="388.8"/>
      </g>
     </g>
     <g id="line2d_32">
      <g>
       <use style="stroke:#000000;stroke-width:0.5;" x="339.506719368" xlink:href="#m741efc42ff" y="43.2"/>
      </g>
     </g>
     <g id="text_19">
      <!-- 50 -->
      <g transform="translate(332.733281868 401.918125)scale(0.12 -0.12)">
       <use xlink:href="#BitstreamVeraSans-Roman-35"/>
       <use x="63.623046875" xlink:href="#BitstreamVeraSans-Roman-30"/>
      </g>
     </g>
    </g>
    <g id="xtick_9">
     <g id="line2d_33">
      <g>
       <use style="stroke:#000000;stroke-width:0.5;" x="364.012648221" xlink:href="#m93b0483c22" y="388.8"/>
      </g>
     </g>
     <g id="line2d_34">
      <g>
       <use style="stroke:#000000;stroke-width:0.5;" x="364.012648221" xlink:href="#m741efc42ff" y="43.2"/>
      </g>
     </g>
     <g id="text_20">
      <!-- 100 -->
      <g transform="translate(353.617648221 401.918125)scale(0.12 -0.12)">
       <use xlink:href="#BitstreamVeraSans-Roman-31"/>
       <use x="63.623046875" xlink:href="#BitstreamVeraSans-Roman-30"/>
       <use x="127.24609375" xlink:href="#BitstreamVeraSans-Roman-30"/>
      </g>
     </g>
    </g>
    <g id="xtick_10">
     <g id="line2d_35">
      <g>
       <use style="stroke:#000000;stroke-width:0.5;" x="388.518577075" xlink:href="#m93b0483c22" y="388.8"/>
      </g>
     </g>
     <g id="line2d_36">
      <g>
       <use style="stroke:#000000;stroke-width:0.5;" x="388.518577075" xlink:href="#m741efc42ff" y="43.2"/>
      </g>
     </g>
     <g id="text_21">
      <!-- 150 -->
      <g transform="translate(378.123577075 401.918125)scale(0.12 -0.12)">
       <use xlink:href="#BitstreamVeraSans-Roman-31"/>
       <use x="63.623046875" xlink:href="#BitstreamVeraSans-Roman-35"/>
       <use x="127.24609375" xlink:href="#BitstreamVeraSans-Roman-30"/>
      </g>
     </g>
    </g>
    <g id="xtick_11">
     <g id="line2d_37">
      <g>
       <use style="stroke:#000000;stroke-width:0.5;" x="413.024505929" xlink:href="#m93b0483c22" y="388.8"/>
      </g>
     </g>
     <g id="line2d_38">
      <g>
       <use style="stroke:#000000;stroke-width:0.5;" x="413.024505929" xlink:href="#m741efc42ff" y="43.2"/>
      </g>
     </g>
     <g id="text_22">
      <!-- 200 -->
      <g transform="translate(402.410130929 401.918125)scale(0.12 -0.12)">
       <use xlink:href="#BitstreamVeraSans-Roman-32"/>
       <use x="63.623046875" xlink:href="#BitstreamVeraSans-Roman-30"/>
       <use x="127.24609375" xlink:href="#BitstreamVeraSans-Roman-30"/>
      </g>
     </g>
    </g>
    <g id="xtick_12">
     <g id="line2d_39">
      <g>
       <use style="stroke:#000000;stroke-width:0.5;" x="437.530434783" xlink:href="#m93b0483c22" y="388.8"/>
      </g>
     </g>
     <g id="line2d_40">
      <g>
       <use style="stroke:#000000;stroke-width:0.5;" x="437.530434783" xlink:href="#m741efc42ff" y="43.2"/>
      </g>
     </g>
     <g id="text_23">
      <!-- 250 -->
      <g transform="translate(426.916059783 401.918125)scale(0.12 -0.12)">
       <use xlink:href="#BitstreamVeraSans-Roman-32"/>
       <use x="63.623046875" xlink:href="#BitstreamVeraSans-Roman-35"/>
       <use x="127.24609375" xlink:href="#BitstreamVeraSans-Roman-30"/>
      </g>
     </g>
    </g>
    <g id="xtick_13">
     <g id="line2d_41">
      <g>
       <use style="stroke:#000000;stroke-width:0.5;" x="462.036363636" xlink:href="#m93b0483c22" y="388.8"/>
      </g>
     </g>
     <g id="line2d_42">
      <g>
       <use style="stroke:#000000;stroke-width:0.5;" x="462.036363636" xlink:href="#m741efc42ff" y="43.2"/>
      </g>
     </g>
     <g id="text_24">
      <!-- 300 -->
      <g transform="translate(451.439801136 401.918125)scale(0.12 -0.12)">
       <use xlink:href="#BitstreamVeraSans-Roman-33"/>
       <use x="63.623046875" xlink:href="#BitstreamVeraSans-Roman-30"/>
       <use x="127.24609375" xlink:href="#BitstreamVeraSans-Roman-30"/>
      </g>
     </g>
    </g>
    <g id="xtick_14">
     <g id="line2d_43">
      <g>
       <use style="stroke:#000000;stroke-width:0.5;" x="486.54229249" xlink:href="#m93b0483c22" y="388.8"/>
      </g>
     </g>
     <g id="line2d_44">
      <g>
       <use style="stroke:#000000;stroke-width:0.5;" x="486.54229249" xlink:href="#m741efc42ff" y="43.2"/>
      </g>
     </g>
     <g id="text_25">
      <!-- 350 -->
      <g transform="translate(475.94572999 401.918125)scale(0.12 -0.12)">
       <use xlink:href="#BitstreamVeraSans-Roman-33"/>
       <use x="63.623046875" xlink:href="#BitstreamVeraSans-Roman-35"/>
       <use x="127.24609375" xlink:href="#BitstreamVeraSans-Roman-30"/>
      </g>
     </g>
    </g>
    <g id="xtick_15">
     <g id="line2d_45">
      <g>
       <use style="stroke:#000000;stroke-width:0.5;" x="511.048221344" xlink:href="#m93b0483c22" y="388.8"/>
      </g>
     </g>
     <g id="line2d_46">
      <g>
       <use style="stroke:#000000;stroke-width:0.5;" x="511.048221344" xlink:href="#m741efc42ff" y="43.2"/>
      </g>
     </g>
     <g id="text_26">
      <!-- 400 -->
      <g transform="translate(500.287596344 401.918125)scale(0.12 -0.12)">
       <use xlink:href="#BitstreamVeraSans-Roman-34"/>
       <use x="63.623046875" xlink:href="#BitstreamVeraSans-Roman-30"/>
       <use x="127.24609375" xlink:href="#BitstreamVeraSans-Roman-30"/>
      </g>
     </g>
    </g>
    <g id="text_27">
     <!-- Trials -->
     <g transform="translate(401.837642045 418.531875)scale(0.12 -0.12)">
      <use xlink:href="#BitstreamVeraSans-Roman-54"/>
      <use x="46.333984375" xlink:href="#BitstreamVeraSans-Roman-72"/>
      <use x="87.447265625" xlink:href="#BitstreamVeraSans-Roman-69"/>
      <use x="115.23046875" xlink:href="#BitstreamVeraSans-Roman-61"/>
      <use x="176.509765625" xlink:href="#BitstreamVeraSans-Roman-6c"/>
      <use x="204.29296875" xlink:href="#BitstreamVeraSans-Roman-73"/>
     </g>
    </g>
   </g>
   <g id="matplotlib.axis_4">
    <g id="ytick_7">
     <g id="line2d_47">
      <g>
       <use style="stroke:#000000;stroke-width:0.5;" x="315.490909091" xlink:href="#m728421d6d4" y="388.8"/>
      </g>
     </g>
     <g id="line2d_48">
      <g>
       <use style="stroke:#000000;stroke-width:0.5;" x="518.4" xlink:href="#mcb0005524f" y="388.8"/>
      </g>
     </g>
     <g id="text_28">
      <!-- 0.0 -->
      <g transform="translate(293.995284091 392.11125)scale(0.12 -0.12)">
       <use xlink:href="#BitstreamVeraSans-Roman-30"/>
       <use x="63.623046875" xlink:href="#BitstreamVeraSans-Roman-2e"/>
       <use x="95.41015625" xlink:href="#BitstreamVeraSans-Roman-30"/>
      </g>
     </g>
    </g>
    <g id="ytick_8">
     <g id="line2d_49">
      <g>
       <use style="stroke:#000000;stroke-width:0.5;" x="315.490909091" xlink:href="#m728421d6d4" y="319.68"/>
      </g>
     </g>
     <g id="line2d_50">
      <g>
       <use style="stroke:#000000;stroke-width:0.5;" x="518.4" xlink:href="#mcb0005524f" y="319.68"/>
      </g>
     </g>
     <g id="text_29">
      <!-- 0.2 -->
      <g transform="translate(294.400284091 322.99125)scale(0.12 -0.12)">
       <use xlink:href="#BitstreamVeraSans-Roman-30"/>
       <use x="63.623046875" xlink:href="#BitstreamVeraSans-Roman-2e"/>
       <use x="95.41015625" xlink:href="#BitstreamVeraSans-Roman-32"/>
      </g>
     </g>
    </g>
    <g id="ytick_9">
     <g id="line2d_51">
      <g>
       <use style="stroke:#000000;stroke-width:0.5;" x="315.490909091" xlink:href="#m728421d6d4" y="250.56"/>
      </g>
     </g>
     <g id="line2d_52">
      <g>
       <use style="stroke:#000000;stroke-width:0.5;" x="518.4" xlink:href="#mcb0005524f" y="250.56"/>
      </g>
     </g>
     <g id="text_30">
      <!-- 0.4 -->
      <g transform="translate(293.871534091 253.87125)scale(0.12 -0.12)">
       <use xlink:href="#BitstreamVeraSans-Roman-30"/>
       <use x="63.623046875" xlink:href="#BitstreamVeraSans-Roman-2e"/>
       <use x="95.41015625" xlink:href="#BitstreamVeraSans-Roman-34"/>
      </g>
     </g>
    </g>
    <g id="ytick_10">
     <g id="line2d_53">
      <g>
       <use style="stroke:#000000;stroke-width:0.5;" x="315.490909091" xlink:href="#m728421d6d4" y="181.44"/>
      </g>
     </g>
     <g id="line2d_54">
      <g>
       <use style="stroke:#000000;stroke-width:0.5;" x="518.4" xlink:href="#mcb0005524f" y="181.44"/>
      </g>
     </g>
     <g id="text_31">
      <!-- 0.6 -->
      <g transform="translate(293.954034091 184.75125)scale(0.12 -0.12)">
       <use xlink:href="#BitstreamVeraSans-Roman-30"/>
       <use x="63.623046875" xlink:href="#BitstreamVeraSans-Roman-2e"/>
       <use x="95.41015625" xlink:href="#BitstreamVeraSans-Roman-36"/>
      </g>
     </g>
    </g>
    <g id="ytick_11">
     <g id="line2d_55">
      <g>
       <use style="stroke:#000000;stroke-width:0.5;" x="315.490909091" xlink:href="#m728421d6d4" y="112.32"/>
      </g>
     </g>
     <g id="line2d_56">
      <g>
       <use style="stroke:#000000;stroke-width:0.5;" x="518.4" xlink:href="#mcb0005524f" y="112.32"/>
      </g>
     </g>
     <g id="text_32">
      <!-- 0.8 -->
      <g transform="translate(294.019659091 115.63125)scale(0.12 -0.12)">
       <use xlink:href="#BitstreamVeraSans-Roman-30"/>
       <use x="63.623046875" xlink:href="#BitstreamVeraSans-Roman-2e"/>
       <use x="95.41015625" xlink:href="#BitstreamVeraSans-Roman-38"/>
      </g>
     </g>
    </g>
    <g id="ytick_12">
     <g id="line2d_57">
      <g>
       <use style="stroke:#000000;stroke-width:0.5;" x="315.490909091" xlink:href="#m728421d6d4" y="43.2"/>
      </g>
     </g>
     <g id="line2d_58">
      <g>
       <use style="stroke:#000000;stroke-width:0.5;" x="518.4" xlink:href="#mcb0005524f" y="43.2"/>
      </g>
     </g>
     <g id="text_33">
      <!-- 1.0 -->
      <g transform="translate(294.522159091 46.51125)scale(0.12 -0.12)">
       <use xlink:href="#BitstreamVeraSans-Roman-31"/>
       <use x="63.623046875" xlink:href="#BitstreamVeraSans-Roman-2e"/>
       <use x="95.41015625" xlink:href="#BitstreamVeraSans-Roman-30"/>
      </g>
     </g>
    </g>
   </g>
   <g id="text_34">
    <!-- Free-Choice Trials -->
    <defs>
     <path d="
M9.8125 72.9062
L51.7031 72.9062
L51.7031 64.5938
L19.6719 64.5938
L19.6719 43.1094
L48.5781 43.1094
L48.5781 34.8125
L19.6719 34.8125
L19.6719 0
L9.8125 0
z
" id="BitstreamVeraSans-Roman-46"/>
     <path d="
M64.4062 67.2812
L64.4062 56.8906
Q59.4219 61.5312 53.7812 63.8125
Q48.1406 66.1094 41.7969 66.1094
Q29.2969 66.1094 22.6562 58.4688
Q16.0156 50.8281 16.0156 36.375
Q16.0156 21.9688 22.6562 14.3281
Q29.2969 6.6875 41.7969 6.6875
Q48.1406 6.6875 53.7812 8.98438
Q59.4219 11.2812 64.4062 15.9219
L64.4062 5.60938
Q59.2344 2.09375 53.4375 0.328125
Q47.6562 -1.42188 41.2188 -1.42188
Q24.6562 -1.42188 15.125 8.70312
Q5.60938 18.8438 5.60938 36.375
Q5.60938 53.9531 15.125 64.0781
Q24.6562 74.2188 41.2188 74.2188
Q47.75 74.2188 53.5312 72.4844
Q59.3281 70.75 64.4062 67.2812" id="BitstreamVeraSans-Roman-43"/>
     <path d="
M4.89062 31.3906
L31.2031 31.3906
L31.2031 23.3906
L4.89062 23.3906
z
" id="BitstreamVeraSans-Roman-2d"/>
    </defs>
    <g transform="translate(354.288579545 38.2)scale(0.144 -0.144)">
     <use xlink:href="#BitstreamVeraSans-Roman-46"/>
     <use x="50.26953125" xlink:href="#BitstreamVeraSans-Roman-72"/>
     <use x="89.1328125" xlink:href="#BitstreamVeraSans-Roman-65"/>
     <use x="150.65625" xlink:href="#BitstreamVeraSans-Roman-65"/>
     <use x="212.1796875" xlink:href="#BitstreamVeraSans-Roman-2d"/>
     <use x="248.263671875" xlink:href="#BitstreamVeraSans-Roman-43"/>
     <use x="318.087890625" xlink:href="#BitstreamVeraSans-Roman-68"/>
     <use x="381.466796875" xlink:href="#BitstreamVeraSans-Roman-6f"/>
     <use x="442.6484375" xlink:href="#BitstreamVeraSans-Roman-69"/>
     <use x="470.431640625" xlink:href="#BitstreamVeraSans-Roman-63"/>
     <use x="525.412109375" xlink:href="#BitstreamVeraSans-Roman-65"/>
     <use x="586.935546875" xlink:href="#BitstreamVeraSans-Roman-20"/>
     <use x="618.72265625" xlink:href="#BitstreamVeraSans-Roman-54"/>
     <use x="665.056640625" xlink:href="#BitstreamVeraSans-Roman-72"/>
     <use x="706.169921875" xlink:href="#BitstreamVeraSans-Roman-69"/>
     <use x="733.953125" xlink:href="#BitstreamVeraSans-Roman-61"/>
     <use x="795.232421875" xlink:href="#BitstreamVeraSans-Roman-6c"/>
     <use x="823.015625" xlink:href="#BitstreamVeraSans-Roman-73"/>
    </g>
   </g>
   <g id="legend_2">
    <g id="patch_13">
     <path d="
M430.495 96.993
L511.2 96.993
L511.2 50.4
L430.495 50.4
z
" style="fill:#ffffff;stroke:#000000;stroke-linejoin:miter;"/>
    </g>
    <g id="line2d_59">
     <path d="
M440.575 62.0617
L460.735 62.0617" style="fill:none;stroke:#0000ff;stroke-linecap:square;"/>
    </g>
    <g id="line2d_60"/>
    <g id="text_35">
     <!-- high -->
     <g transform="translate(476.57475 67.10175)scale(0.144 -0.144)">
      <use xlink:href="#BitstreamVeraSans-Roman-68"/>
      <use x="63.37890625" xlink:href="#BitstreamVeraSans-Roman-69"/>
      <use x="91.162109375" xlink:href="#BitstreamVeraSans-Roman-67"/>
      <use x="154.638671875" xlink:href="#BitstreamVeraSans-Roman-68"/>
     </g>
    </g>
    <g id="line2d_61">
     <path d="
M440.575 83.1982
L460.735 83.1982" style="fill:none;stroke:#ff0000;stroke-linecap:square;"/>
    </g>
    <g id="line2d_62"/>
    <g id="text_36">
     <!-- low -->
     <g transform="translate(476.57475 88.23825)scale(0.144 -0.144)">
      <use xlink:href="#BitstreamVeraSans-Roman-6c"/>
      <use x="27.783203125" xlink:href="#BitstreamVeraSans-Roman-6f"/>
      <use x="88.96484375" xlink:href="#BitstreamVeraSans-Roman-77"/>
     </g>
    </g>
   </g>
  </g>
 </g>
 <defs>
  <clipPath id="p346f55e68c">
   <rect height="345.6" width="202.909090909" x="72.0" y="43.2"/>
  </clipPath>
  <clipPath id="pc565ddf9d5">
   <rect height="345.6" width="202.909090909" x="315.490909091" y="43.2"/>
  </clipPath>
 </defs>
</svg>
