<?xml version="1.0" encoding="utf-8" standalone="no"?>
<!DOCTYPE svg PUBLIC "-//W3C//DTD SVG 1.1//EN"
  "http://www.w3.org/Graphics/SVG/1.1/DTD/svg11.dtd">
<!-- Created with matplotlib (http://matplotlib.org/) -->
<svg height="432pt" version="1.1" viewBox="0 0 576 432" width="576pt" xmlns="http://www.w3.org/2000/svg" xmlns:xlink="http://www.w3.org/1999/xlink">
 <defs>
  <style type="text/css">
*{stroke-linecap:butt;stroke-linejoin:round;}
  </style>
 </defs>
 <g id="figure_1">
  <g id="patch_1">
   <path d="
M0 432
L576 432
L576 0
L0 0
z
" style="fill:#ffffff;"/>
  </g>
  <g id="axes_1">
   <g id="patch_2">
    <path d="
M72 388.8
L274.909 388.8
L274.909 43.2
L72 43.2
z
" style="fill:#ffffff;"/>
   </g>
   <g id="line2d_1">
    <path clip-path="url(#p346f55e68c)" d="
M72 388.8
L72.2738 43.2
L76.6551 43.2
L76.929 66.24
L77.4766 63.5294
L77.7505 63.5294
L78.0243 62.4
L78.2981 62.4
L79.1196 59.6571
L79.6673 59.6571
L79.9411 58.9091
L81.3103 58.9091
L81.5841 58.2261
L81.8579 58.2261
L82.4056 57.024
L82.6794 57.024
L83.5009 55.5429
L83.7748 55.5429
L84.0486 55.1172
L84.3224 66.24
L84.5962 65.4968
L85.1439 65.4968
L85.4177 64.8
L85.6916 64.8
L85.9654 64.1455
L87.0607 64.1455
L87.6084 65.4968
L87.8822 65.4968
L88.4299 67.0345
L89.5252 67.0345
L89.799 78.9517
L90.6205 78.9517
L90.8944 67.0345
L91.442 67.0345
L91.7159 66.24
L91.9897 66.24
L92.2635 65.4968
L92.8112 67.0345
L93.085 67.0345
L93.3589 77.76
L93.6327 77.76
L93.9065 78.9517
L94.1803 78.9517
L94.728 76.6452
L95.0018 86.4
L95.2757 85.0909
L95.5495 85.0909
L95.8233 83.8588
L96.371 83.8588
L96.6448 92.5714
L96.9187 92.5714
L97.1925 94.0235
L98.014 94.0235
L98.2878 83.8588
L98.5616 85.0909
L98.8355 85.0909
L99.1093 83.8588
L99.3831 85.0909
L99.657 83.8588
L100.205 83.8588
L100.478 85.0909
L101.3 85.0909
L101.848 82.6971
L102.121 82.6971
L102.395 81.6
L103.491 81.6
L103.764 72.8229
L104.038 73.6941
L104.586 73.6941
L104.86 74.6182
L105.134 74.6182
L105.955 77.76
L106.777 77.76
L107.05 78.9517
L107.324 67.8857
L107.598 67.8857
L108.146 66.24
L108.42 67.0345
L108.693 67.0345
L108.967 55.5429
L109.241 55.5429
L109.515 56
L110.336 56
L110.61 43.2
L111.158 43.2
L111.432 57.024
L111.706 56.4923
L112.527 56.4923
L112.801 56
L113.075 56.4923
L113.349 56
L113.622 56.4923
L113.896 56.4923
L114.17 57.024
L114.444 57.024
L114.718 57.6
L114.992 57.6
L115.265 57.024
L116.087 57.024
L116.635 58.2261
L117.182 58.2261
L117.456 73.2522
L117.73 73.2522
L118.004 72
L118.278 72
L118.551 73.2522
L118.825 72
L119.099 72
L119.373 70.848
L120.468 70.848
L120.742 69.7846
L121.016 69.7846
L121.563 67.8857
L122.111 67.8857
L122.385 67.0345
L123.754 67.0345
L124.028 67.8857
L124.302 67.8857
L124.576 78.9517
L125.123 76.6452
L125.397 66.24
L125.671 66.24
L125.945 67.0345
L126.219 67.0345
L126.492 66.24
L126.766 67.0345
L127.314 67.0345
L127.588 66.24
L127.862 66.24
L128.135 65.4968
L128.409 65.4968
L128.957 64.1455
L129.231 64.8
L130.326 64.8
L130.6 64.1455
L131.148 64.1455
L131.421 54
L131.695 64.1455
L132.243 64.1455
L132.517 63.5294
L132.791 63.5294
L133.064 64.1455
L133.338 74.6182
L133.886 72.8229
L134.16 72.8229
L134.434 72
L134.981 72
L135.255 81.6
L136.077 81.6
L136.624 83.8588
L136.898 83.8588
L137.172 85.0909
L137.446 83.8588
L137.72 85.0909
L137.993 83.8588
L138.267 83.8588
L138.541 73.6941
L138.815 83.8588
L139.089 85.0909
L139.363 83.8588
L139.91 83.8588
L140.458 86.4
L141.006 86.4
L141.279 87.7935
L141.827 87.7935
L142.101 89.28
L142.375 87.7935
L142.649 89.28
L143.196 89.28
L143.47 90.869
L143.744 90.869
L144.018 89.28
L144.291 89.28
L144.565 90.869
L145.387 90.869
L145.661 80.2286
L145.934 81.6
L146.208 80.2286
L146.482 80.2286
L146.756 81.6
L147.03 80.2286
L147.304 67.8857
L147.851 67.8857
L148.125 68.8
L148.399 81.6
L148.673 83.0769
L148.947 81.6
L149.22 68.8
L149.494 69.7846
L150.316 69.7846
L151.137 67.0345
L151.411 67.8857
L151.685 67.0345
L151.959 67.0345
L152.233 67.8857
L152.506 67.8857
L152.78 56
L153.054 67.8857
L153.876 67.8857
L154.423 66.24
L154.697 76.6452
L154.971 76.6452
L155.245 75.6
L155.519 75.6
L155.792 76.6452
L156.066 75.6
L156.614 75.6
L156.888 76.6452
L157.709 76.6452
L157.983 77.76
L158.531 75.6
L158.805 86.4
L159.078 86.4
L159.9 82.6971
L160.174 92.5714
L160.448 92.5714
L160.721 91.2
L161.269 91.2
L161.543 92.5714
L161.817 92.5714
L162.091 91.2
L162.364 82.6971
L162.638 81.6
L162.912 81.6
L163.186 91.2
L163.46 89.9027
L164.007 89.9027
L164.281 88.6737
L165.377 88.6737
L165.924 91.2
L166.472 91.2
L166.746 89.9027
L167.02 80.5622
L167.293 81.6
L168.115 81.6
L168.389 82.6971
L168.662 72.8229
L168.936 72.8229
L169.484 74.6182
L169.758 73.6941
L170.032 73.6941
L170.305 74.6182
L170.579 74.6182
L171.401 72
L171.675 81.6
L171.948 80.5622
L172.222 80.5622
L172.496 81.6
L172.77 72
L173.591 74.6182
L173.865 74.6182
L174.139 64.1455
L174.687 64.1455
L174.961 64.8
L175.234 75.6
L175.508 74.6182
L176.056 74.6182
L176.33 73.6941
L176.877 73.6941
L177.151 63.5294
L177.425 63.5294
L177.699 64.1455
L177.973 64.1455
L178.247 64.8
L178.794 64.8
L179.068 65.4968
L179.342 65.4968
L179.89 64.1455
L180.985 64.1455
L181.259 73.6941
L181.533 74.6182
L181.806 73.6941
L182.08 74.6182
L182.354 74.6182
L182.628 75.6
L183.449 72.8229
L183.723 73.6941
L183.997 73.6941
L184.545 72
L185.366 72
L185.64 62.9486
L186.188 62.9486
L186.462 72
L186.735 72
L187.283 70.4842
L187.831 70.4842
L188.105 79.5789
L188.926 79.5789
L189.2 71.2216
L189.474 72
L190.021 72
L190.295 72.8229
L190.569 72.8229
L190.843 73.6941
L191.117 73.6941
L191.391 74.6182
L191.938 74.6182
L192.212 83.8588
L192.76 86.4
L193.033 85.0909
L193.307 94.0235
L193.855 94.0235
L194.129 92.5714
L194.403 92.5714
L194.676 94.0235
L194.95 94.0235
L195.224 83.8588
L196.319 83.8588
L196.593 82.6971
L197.141 82.6971
L197.415 83.8588
L197.689 82.6971
L197.962 82.6971
L198.236 92.5714
L198.784 95.5636
L199.332 95.5636
L199.605 94.0235
L200.153 94.0235
L200.427 83.8588
L200.975 86.4
L201.248 86.4
L201.522 85.0909
L201.796 85.0909
L202.07 74.6182
L202.344 74.6182
L202.618 85.0909
L202.891 83.8588
L203.439 83.8588
L203.713 85.0909
L203.987 85.0909
L204.261 83.8588
L204.534 83.8588
L204.808 92.5714
L205.082 92.5714
L205.63 89.9027
L205.904 89.9027
L206.177 80.5622
L206.451 80.5622
L206.725 79.5789
L206.999 79.5789
L207.273 70.4842
L208.094 72.8229
L208.368 72.8229
L208.642 72
L208.916 72.8229
L209.19 72.8229
L209.463 72
L209.737 72
L210.011 71.2216
L210.559 71.2216
L210.833 80.5622
L211.106 80.5622
L211.38 79.5789
L211.928 79.5789
L212.202 71.2216
L212.749 69.7846
L213.023 69.7846
L213.845 72
L214.119 72
L214.392 72.8229
L214.666 72
L214.94 72
L215.214 72.8229
L215.488 72.8229
L216.035 74.6182
L216.309 74.6182
L216.583 64.8
L216.857 75.6
L217.678 72.8229
L218.5 72.8229
L218.774 62.9486
L219.047 63.5294
L219.321 63.5294
L219.595 73.6941
L220.143 75.6
L220.417 74.6182
L220.69 75.6
L221.512 75.6
L221.786 74.6182
L222.607 74.6182
L222.881 73.6941
L223.155 73.6941
L223.703 75.6
L223.976 75.6
L224.25 74.6182
L224.524 75.6
L224.798 64.8
L225.346 66.24
L225.619 66.24
L225.893 67.0345
L226.167 66.24
L226.441 66.24
L226.989 67.8857
L227.262 67.0345
L227.536 67.0345
L227.81 66.24
L228.084 67.0345
L228.358 66.24
L228.632 67.0345
L228.905 67.0345
L229.179 66.24
L229.727 66.24
L230.001 65.4968
L230.275 66.24
L230.548 65.4968
L230.822 54.72
L231.644 54.72
L232.465 56
L232.739 68.8
L233.287 68.8
L233.561 56
L234.108 55.1172
L234.93 55.1172
L235.204 55.5429
L235.477 55.1172
L235.751 55.1172
L236.025 54.72
L236.299 54.72
L236.573 55.1172
L237.394 55.1172
L237.668 66.24
L238.49 66.24
L238.763 67.0345
L239.311 65.4968
L240.406 65.4968
L240.954 64.1455
L241.228 64.1455
L241.502 73.6941
L241.775 74.6182
L242.049 73.6941
L242.323 73.6941
L242.597 72.8229
L243.966 72.8229
L244.24 72
L244.514 72.8229
L244.788 81.6
L245.061 82.6971
L245.883 82.6971
L246.431 80.5622
L246.704 71.2216
L246.978 70.4842
L247.252 71.2216
L247.526 71.2216
L248.074 72.8229
L248.347 72.8229
L248.621 72
L248.895 72
L249.169 71.2216
L249.443 80.5622
L249.717 80.5622
L249.99 89.9027
L250.264 89.9027
L250.538 88.6737
L251.36 88.6737
L251.633 80.5622
L252.181 80.5622
L252.729 78.6462
L253.276 80.5622
L253.55 89.9027
L254.372 89.9027
L254.646 91.2
L255.193 91.2
L255.467 81.6
L256.289 81.6
L256.562 82.6971
L257.11 82.6971
L257.384 92.5714
L257.658 91.2
L257.932 91.2
L258.205 100.8
L258.479 99.2432
L258.753 89.9027
L259.027 88.6737
L259.301 88.6737
L259.575 89.9027
L259.848 88.6737
L260.396 88.6737
L260.944 91.2
L261.491 91.2
L261.765 89.9027
L262.039 89.9027
L262.313 99.2432
L262.587 100.8
L263.134 100.8
L263.408 92.5714
L263.682 94.0235
L264.777 94.0235
L265.051 95.5636
L266.42 95.5636
L266.694 97.2
L267.242 97.2
L267.516 87.7935
L267.789 87.7935
L268.063 89.28
L268.885 89.28
L269.159 90.869
L269.432 90.869
L269.706 89.28
L270.254 89.28
L270.802 86.4
L271.075 87.7935
L271.349 76.6452
L271.623 77.76
L271.897 77.76
L272.171 66.24
L272.445 67.0345
L272.718 67.0345
L272.992 67.8857
L273.266 67.8857
L273.54 78.9517
L274.361 78.9517
L274.909 76.6452
L274.909 76.6452" style="fill:none;stroke:#0000ff;stroke-linecap:square;"/>
   </g>
   <g id="line2d_2">
    <path clip-path="url(#p346f55e68c)" d="
M72 388.8
L77.4766 388.8
L77.7505 319.68
L78.0243 319.68
L78.2981 331.2
L79.1196 331.2
L79.6673 259.2
L79.9411 259.2
L80.2149 235.2
L80.7626 263.127
L81.0364 244.8
L81.3103 255.877
L81.5841 255.877
L81.8579 240.686
L82.4056 240.686
L82.6794 227.52
L83.5009 227.52
L83.7748 237.6
L84.5962 237.6
L84.8701 226.165
L85.1439 235.2
L85.4177 235.2
L85.6916 243.284
L85.9654 235.2
L86.7869 235.2
L87.0607 216
L87.6084 198.72
L87.8822 198.72
L88.4299 216
L91.442 216
L91.7159 224.229
L91.9897 224.229
L92.2635 216
L92.5374 224.229
L92.8112 216
L93.085 216
L93.3589 224.229
L93.6327 240.686
L93.9065 247.418
L94.1803 263.127
L94.728 250.56
L95.0018 261.474
L95.2757 254.4
L95.5495 254.4
L95.8233 266.824
L96.371 266.824
L96.6448 280.8
L96.9187 280.8
L97.1925 266.824
L98.2878 266.824
L98.5616 273.6
L98.8355 292.8
L99.1093 287.153
L99.3831 292.8
L99.657 287.153
L100.205 287.153
L100.478 292.8
L101.026 292.8
L101.574 327.812
L101.848 324
L102.121 302.4
L102.395 296.64
L103.491 296.64
L103.764 280.8
L104.038 287.153
L104.312 266.824
L104.586 266.824
L104.86 254.4
L105.134 254.4
L105.407 261.474
L105.681 250.56
L105.955 257.143
L106.503 257.143
L106.777 273.6
L107.05 278.836
L107.324 268.591
L107.598 253.565
L108.146 240.686
L108.42 247.418
L108.693 247.418
L108.967 253.565
L109.241 253.565
L109.515 244.8
L110.336 244.8
L110.884 255.877
L111.432 255.877
L111.706 250.56
L112.253 250.56
L112.527 236.736
L112.801 230.4
L113.075 236.736
L113.349 230.4
L113.622 236.736
L113.896 236.736
L114.17 229.292
L114.444 229.292
L114.718 222.4
L114.992 235.2
L115.265 229.292
L116.087 229.292
L116.361 235.2
L116.635 228.343
L117.456 228.343
L117.73 240.686
L118.004 235.2
L118.278 235.2
L118.825 248
L119.099 248
L119.373 242.585
L119.647 255.877
L120.194 255.877
L120.468 242.585
L120.742 236.736
L121.016 222.912
L121.563 238.539
L122.111 238.539
L122.385 231.709
L122.659 231.709
L122.933 216
L123.754 216
L124.028 208.487
L124.302 208.487
L124.849 191.314
L125.397 207.771
L125.671 207.771
L125.945 216
L126.219 216
L126.492 224.229
L126.766 216
L127.314 216
L127.588 207.771
L127.862 207.771
L128.135 216
L128.409 216
L128.683 225.095
L128.957 216
L129.231 225.095
L130.326 225.095
L130.6 235.2
L131.148 235.2
L131.695 216
L131.969 216
L132.243 235.2
L132.517 226.165
L132.791 226.165
L133.064 235.2
L133.338 235.2
L133.886 216
L134.16 216
L134.434 227.52
L134.707 227.52
L134.981 250.56
L136.077 250.56
L136.35 237.6
L136.624 246.494
L136.898 246.494
L137.172 254.4
L137.446 266.824
L137.72 273.6
L137.993 287.153
L138.815 287.153
L139.089 292.8
L139.363 287.153
L139.91 287.153
L140.458 261.474
L141.006 261.474
L141.279 267.84
L141.827 267.84
L142.375 250.56
L142.649 257.143
L143.196 257.143
L143.47 263.127
L143.744 263.127
L144.018 273.6
L144.291 257.143
L144.565 263.127
L145.113 263.127
L145.387 278.836
L145.661 268.591
L145.934 273.6
L146.208 268.591
L146.482 268.591
L146.756 273.6
L147.03 268.591
L147.851 268.591
L148.125 273.6
L148.399 273.6
L148.673 264.384
L148.947 259.2
L149.22 259.2
L149.494 264.384
L150.042 264.384
L150.316 278.208
L150.59 273.6
L150.863 283.617
L151.137 278.836
L151.411 283.617
L151.685 278.836
L151.959 278.836
L152.233 268.591
L152.506 268.591
L153.054 253.565
L153.876 253.565
L154.697 285.12
L154.971 285.12
L155.245 279.663
L155.519 279.663
L155.792 267.84
L156.066 279.663
L156.34 279.663
L156.614 261.474
L156.888 267.84
L157.162 250.56
L157.709 250.56
L157.983 257.143
L158.257 267.84
L158.531 261.474
L159.078 261.474
L159.352 254.4
L159.626 266.824
L159.9 259.2
L160.448 259.2
L160.721 250.56
L161.269 250.56
L161.543 237.6
L161.817 237.6
L162.091 227.52
L162.638 250.56
L163.186 250.56
L163.46 240.686
L164.007 240.686
L164.281 229.292
L165.103 229.292
L165.377 202.708
L165.924 227.52
L166.472 227.52
L166.746 240.686
L167.02 240.686
L167.293 227.52
L167.567 227.52
L167.841 204.48
L168.115 204.48
L168.389 216
L168.662 216
L168.936 194.4
L169.758 226.165
L170.032 226.165
L170.305 235.2
L170.579 254.4
L170.853 246.494
L171.127 259.2
L171.401 250.56
L171.675 250.56
L171.948 240.686
L172.222 240.686
L172.496 250.56
L172.77 250.56
L173.044 259.2
L173.591 235.2
L174.687 235.2
L174.961 243.284
L175.234 243.284
L175.508 254.4
L176.056 254.4
L176.33 246.494
L177.425 246.494
L177.699 254.4
L177.973 254.4
L178.247 243.284
L178.794 243.284
L179.068 250.56
L179.342 250.56
L179.89 235.2
L180.163 254.4
L180.985 254.4
L181.259 266.824
L181.533 254.4
L181.806 266.824
L182.08 254.4
L182.354 235.2
L182.902 254.4
L183.449 237.6
L183.723 246.494
L183.997 246.494
L184.545 227.52
L185.366 227.52
L185.64 216
L186.188 216
L186.462 204.48
L186.735 204.48
L187.009 191.314
L187.283 202.708
L188.652 202.708
L188.926 176.123
L189.474 204.48
L190.021 204.48
L190.295 194.4
L190.569 194.4
L190.843 185.506
L191.117 185.506
L191.391 196.8
L191.664 177.6
L191.938 177.6
L192.212 185.506
L192.486 196.8
L193.033 177.6
L193.307 185.506
L193.855 185.506
L194.129 172.8
L194.403 172.8
L194.676 185.506
L195.224 185.506
L195.498 205.835
L195.772 205.835
L196.046 226.165
L196.319 226.165
L196.593 216
L197.141 216
L197.415 226.165
L197.689 216
L198.236 216
L198.784 235.2
L199.332 235.2
L199.605 246.494
L200.427 246.494
L200.975 225.095
L201.248 225.095
L201.522 235.2
L202.618 235.2
L202.891 246.494
L203.439 246.494
L203.713 235.2
L203.987 235.2
L204.261 246.494
L204.534 246.494
L204.808 259.2
L205.082 259.2
L205.356 250.56
L205.63 265.371
L206.451 265.371
L206.725 282.462
L207.273 282.462
L207.547 290.057
L208.094 259.2
L208.368 259.2
L208.642 250.56
L208.916 237.6
L209.19 237.6
L209.463 227.52
L209.737 227.52
L210.011 216
L210.285 240.686
L211.106 240.686
L211.38 229.292
L211.928 229.292
L212.749 187.2
L213.023 187.2
L213.571 166.629
L213.845 181.44
L214.119 181.44
L214.392 172.8
L214.666 181.44
L214.94 204.48
L215.214 216
L215.488 216
L215.762 226.165
L216.035 216
L216.309 216
L216.583 225.095
L216.857 225.095
L217.404 205.835
L217.678 216
L218.774 216
L219.047 226.165
L219.595 226.165
L220.69 188.716
L221.512 188.716
L221.786 196.8
L222.06 216
L222.607 216
L222.881 226.165
L223.155 226.165
L223.703 243.284
L223.976 243.284
L224.524 225.095
L224.798 225.095
L225.072 233.28
L225.346 224.229
L225.619 224.229
L225.893 216
L226.167 224.229
L226.441 224.229
L227.262 247.418
L227.536 247.418
L228.084 231.709
L228.358 240.686
L228.632 231.709
L228.905 216
L229.179 207.771
L229.727 207.771
L230.001 216
L230.822 191.314
L231.644 191.314
L231.918 184.582
L232.191 193.461
L232.465 187.2
L233.561 187.2
L234.108 200.291
L234.93 200.291
L235.204 208.487
L235.477 200.291
L235.751 200.291
L236.025 191.314
L236.299 191.314
L236.573 184.582
L237.12 184.582
L237.668 158.4
L238.216 158.4
L238.49 174.857
L238.763 184.582
L239.037 174.857
L239.311 181.44
L240.406 181.44
L240.954 158.4
L241.228 158.4
L241.502 165.176
L241.775 158.4
L242.049 165.176
L242.323 165.176
L242.597 172.8
L242.871 194.4
L243.966 194.4
L244.24 204.48
L244.514 194.4
L245.061 216
L245.883 216
L246.157 204.48
L246.431 216
L246.704 216
L247.252 191.314
L247.526 191.314
L248.074 216
L248.347 216
L248.621 227.52
L248.895 227.52
L249.169 216
L250.264 216
L250.538 229.292
L251.36 229.292
L251.633 216
L252.181 216
L253.276 166.629
L253.55 166.629
L253.824 191.314
L254.372 191.314
L254.646 204.48
L255.467 204.48
L255.741 227.52
L256.289 227.52
L256.562 237.6
L256.836 216
L257.384 216
L257.658 204.48
L258.205 204.48
L258.479 216
L258.753 216
L259.027 202.708
L259.301 202.708
L259.575 191.314
L259.848 202.708
L260.396 202.708
L260.67 191.314
L260.944 204.48
L261.491 204.48
L261.765 191.314
L262.039 166.629
L262.313 166.629
L262.587 181.44
L263.134 181.44
L263.408 172.8
L263.682 185.506
L264.777 185.506
L265.051 177.6
L266.42 177.6
L266.694 170.526
L267.242 206.905
L267.516 216
L267.789 198.72
L268.063 191.314
L268.337 191.314
L268.611 174.857
L268.885 174.857
L269.159 168.873
L269.432 168.873
L269.706 158.4
L270.254 158.4
L270.528 146.88
L270.802 152.337
L271.075 164.16
L271.349 164.16
L271.623 174.857
L272.171 174.857
L272.445 184.582
L272.718 184.582
L272.992 193.461
L273.266 193.461
L273.54 200.291
L274.361 200.291
L274.635 207.771
L274.909 198.72
L274.909 198.72" style="fill:none;stroke:#ff0000;stroke-linecap:square;"/>
   </g>
   <g id="patch_3">
    <path d="
M72 43.2
L274.909 43.2" style="fill:none;stroke:#000000;stroke-linecap:square;stroke-linejoin:miter;"/>
   </g>
   <g id="patch_4">
    <path d="
M274.909 388.8
L274.909 43.2" style="fill:none;stroke:#000000;stroke-linecap:square;stroke-linejoin:miter;"/>
   </g>
   <g id="patch_5">
    <path d="
M72 388.8
L274.909 388.8" style="fill:none;stroke:#000000;stroke-linecap:square;stroke-linejoin:miter;"/>
   </g>
   <g id="patch_6">
    <path d="
M72 388.8
L72 43.2" style="fill:none;stroke:#000000;stroke-linecap:square;stroke-linejoin:miter;"/>
   </g>
   <g id="matplotlib.axis_1">
    <g id="xtick_1">
     <g id="text_1">
      <!-- 0 -->
      <defs>
       <path d="
M31.7812 66.4062
Q24.1719 66.4062 20.3281 58.9062
Q16.5 51.4219 16.5 36.375
Q16.5 21.3906 20.3281 13.8906
Q24.1719 6.39062 31.7812 6.39062
Q39.4531 6.39062 43.2812 13.8906
Q47.125 21.3906 47.125 36.375
Q47.125 51.4219 43.2812 58.9062
Q39.4531 66.4062 31.7812 66.4062
M31.7812 74.2188
Q44.0469 74.2188 50.5156 64.5156
Q56.9844 54.8281 56.9844 36.375
Q56.9844 17.9688 50.5156 8.26562
Q44.0469 -1.42188 31.7812 -1.42188
Q19.5312 -1.42188 13.0625 8.26562
Q6.59375 17.9688 6.59375 36.375
Q6.59375 54.8281 13.0625 64.5156
Q19.5312 74.2188 31.7812 74.2188" id="BitstreamVeraSans-Roman-30"/>
      </defs>
      <g transform="translate(68.7027310683 401.918125)scale(0.12 -0.12)">
       <use xlink:href="#BitstreamVeraSans-Roman-30"/>
      </g>
     </g>
    </g>
    <g id="xtick_2">
     <g id="line2d_3">
      <defs>
       <path d="
M0 0
L0 -4" id="m93b0483c22" style="stroke:#000000;stroke-width:0.5;"/>
      </defs>
      <g>
       <use style="stroke:#000000;stroke-width:0.5;" x="99.1093117409" xlink:href="#m93b0483c22" y="388.8"/>
      </g>
     </g>
     <g id="line2d_4">
      <defs>
       <path d="
M0 0
L0 4" id="m741efc42ff" style="stroke:#000000;stroke-width:0.5;"/>
      </defs>
      <g>
       <use style="stroke:#000000;stroke-width:0.5;" x="99.1093117409" xlink:href="#m741efc42ff" y="43.2"/>
      </g>
     </g>
     <g id="text_2">
      <!-- 100 -->
      <defs>
       <path d="
M12.4062 8.29688
L28.5156 8.29688
L28.5156 63.9219
L10.9844 60.4062
L10.9844 69.3906
L28.4219 72.9062
L38.2812 72.9062
L38.2812 8.29688
L54.3906 8.29688
L54.3906 0
L12.4062 0
z
" id="BitstreamVeraSans-Roman-31"/>
      </defs>
      <g transform="translate(88.7143117409 401.918125)scale(0.12 -0.12)">
       <use xlink:href="#BitstreamVeraSans-Roman-31"/>
       <use x="63.623046875" xlink:href="#BitstreamVeraSans-Roman-30"/>
       <use x="127.24609375" xlink:href="#BitstreamVeraSans-Roman-30"/>
      </g>
     </g>
    </g>
    <g id="xtick_3">
     <g id="line2d_5">
      <g>
       <use style="stroke:#000000;stroke-width:0.5;" x="126.492454914" xlink:href="#m93b0483c22" y="388.8"/>
      </g>
     </g>
     <g id="line2d_6">
      <g>
       <use style="stroke:#000000;stroke-width:0.5;" x="126.492454914" xlink:href="#m741efc42ff" y="43.2"/>
      </g>
     </g>
     <g id="text_3">
      <!-- 200 -->
      <defs>
       <path d="
M19.1875 8.29688
L53.6094 8.29688
L53.6094 0
L7.32812 0
L7.32812 8.29688
Q12.9375 14.1094 22.625 23.8906
Q32.3281 33.6875 34.8125 36.5312
Q39.5469 41.8438 41.4219 45.5312
Q43.3125 49.2188 43.3125 52.7812
Q43.3125 58.5938 39.2344 62.25
Q35.1562 65.9219 28.6094 65.9219
Q23.9688 65.9219 18.8125 64.3125
Q13.6719 62.7031 7.8125 59.4219
L7.8125 69.3906
Q13.7656 71.7812 18.9375 73
Q24.125 74.2188 28.4219 74.2188
Q39.75 74.2188 46.4844 68.5469
Q53.2188 62.8906 53.2188 53.4219
Q53.2188 48.9219 51.5312 44.8906
Q49.8594 40.875 45.4062 35.4062
Q44.1875 33.9844 37.6406 27.2188
Q31.1094 20.4531 19.1875 8.29688" id="BitstreamVeraSans-Roman-32"/>
      </defs>
      <g transform="translate(115.878079914 401.918125)scale(0.12 -0.12)">
       <use xlink:href="#BitstreamVeraSans-Roman-32"/>
       <use x="63.623046875" xlink:href="#BitstreamVeraSans-Roman-30"/>
       <use x="127.24609375" xlink:href="#BitstreamVeraSans-Roman-30"/>
      </g>
     </g>
    </g>
    <g id="xtick_4">
     <g id="line2d_7">
      <g>
       <use style="stroke:#000000;stroke-width:0.5;" x="153.875598086" xlink:href="#m93b0483c22" y="388.8"/>
      </g>
     </g>
     <g id="line2d_8">
      <g>
       <use style="stroke:#000000;stroke-width:0.5;" x="153.875598086" xlink:href="#m741efc42ff" y="43.2"/>
      </g>
     </g>
     <g id="text_4">
      <!-- 300 -->
      <defs>
       <path d="
M40.5781 39.3125
Q47.6562 37.7969 51.625 33
Q55.6094 28.2188 55.6094 21.1875
Q55.6094 10.4062 48.1875 4.48438
Q40.7656 -1.42188 27.0938 -1.42188
Q22.5156 -1.42188 17.6562 -0.515625
Q12.7969 0.390625 7.625 2.20312
L7.625 11.7188
Q11.7188 9.32812 16.5938 8.10938
Q21.4844 6.89062 26.8125 6.89062
Q36.0781 6.89062 40.9375 10.5469
Q45.7969 14.2031 45.7969 21.1875
Q45.7969 27.6406 41.2812 31.2656
Q36.7656 34.9062 28.7188 34.9062
L20.2188 34.9062
L20.2188 43.0156
L29.1094 43.0156
Q36.375 43.0156 40.2344 45.9219
Q44.0938 48.8281 44.0938 54.2969
Q44.0938 59.9062 40.1094 62.9062
Q36.1406 65.9219 28.7188 65.9219
Q24.6562 65.9219 20.0156 65.0312
Q15.375 64.1562 9.8125 62.3125
L9.8125 71.0938
Q15.4375 72.6562 20.3438 73.4375
Q25.25 74.2188 29.5938 74.2188
Q40.8281 74.2188 47.3594 69.1094
Q53.9062 64.0156 53.9062 55.3281
Q53.9062 49.2656 50.4375 45.0938
Q46.9688 40.9219 40.5781 39.3125" id="BitstreamVeraSans-Roman-33"/>
      </defs>
      <g transform="translate(143.279035586 401.918125)scale(0.12 -0.12)">
       <use xlink:href="#BitstreamVeraSans-Roman-33"/>
       <use x="63.623046875" xlink:href="#BitstreamVeraSans-Roman-30"/>
       <use x="127.24609375" xlink:href="#BitstreamVeraSans-Roman-30"/>
      </g>
     </g>
    </g>
    <g id="xtick_5">
     <g id="line2d_9">
      <g>
       <use style="stroke:#000000;stroke-width:0.5;" x="181.258741259" xlink:href="#m93b0483c22" y="388.8"/>
      </g>
     </g>
     <g id="line2d_10">
      <g>
       <use style="stroke:#000000;stroke-width:0.5;" x="181.258741259" xlink:href="#m741efc42ff" y="43.2"/>
      </g>
     </g>
     <g id="text_5">
      <!-- 400 -->
      <defs>
       <path d="
M37.7969 64.3125
L12.8906 25.3906
L37.7969 25.3906
z

M35.2031 72.9062
L47.6094 72.9062
L47.6094 25.3906
L58.0156 25.3906
L58.0156 17.1875
L47.6094 17.1875
L47.6094 0
L37.7969 0
L37.7969 17.1875
L4.89062 17.1875
L4.89062 26.7031
z
" id="BitstreamVeraSans-Roman-34"/>
      </defs>
      <g transform="translate(170.498116259 401.918125)scale(0.12 -0.12)">
       <use xlink:href="#BitstreamVeraSans-Roman-34"/>
       <use x="63.623046875" xlink:href="#BitstreamVeraSans-Roman-30"/>
       <use x="127.24609375" xlink:href="#BitstreamVeraSans-Roman-30"/>
      </g>
     </g>
    </g>
    <g id="xtick_6">
     <g id="line2d_11">
      <g>
       <use style="stroke:#000000;stroke-width:0.5;" x="208.641884431" xlink:href="#m93b0483c22" y="388.8"/>
      </g>
     </g>
     <g id="line2d_12">
      <g>
       <use style="stroke:#000000;stroke-width:0.5;" x="208.641884431" xlink:href="#m741efc42ff" y="43.2"/>
      </g>
     </g>
     <g id="text_6">
      <!-- 500 -->
      <defs>
       <path d="
M10.7969 72.9062
L49.5156 72.9062
L49.5156 64.5938
L19.8281 64.5938
L19.8281 46.7344
Q21.9688 47.4688 24.1094 47.8281
Q26.2656 48.1875 28.4219 48.1875
Q40.625 48.1875 47.75 41.5
Q54.8906 34.8125 54.8906 23.3906
Q54.8906 11.625 47.5625 5.09375
Q40.2344 -1.42188 26.9062 -1.42188
Q22.3125 -1.42188 17.5469 -0.640625
Q12.7969 0.140625 7.71875 1.70312
L7.71875 11.625
Q12.1094 9.23438 16.7969 8.0625
Q21.4844 6.89062 26.7031 6.89062
Q35.1562 6.89062 40.0781 11.3281
Q45.0156 15.7656 45.0156 23.3906
Q45.0156 31 40.0781 35.4375
Q35.1562 39.8906 26.7031 39.8906
Q22.75 39.8906 18.8125 39.0156
Q14.8906 38.1406 10.7969 36.2812
z
" id="BitstreamVeraSans-Roman-35"/>
      </defs>
      <g transform="translate(198.050946931 401.918125)scale(0.12 -0.12)">
       <use xlink:href="#BitstreamVeraSans-Roman-35"/>
       <use x="63.623046875" xlink:href="#BitstreamVeraSans-Roman-30"/>
       <use x="127.24609375" xlink:href="#BitstreamVeraSans-Roman-30"/>
      </g>
     </g>
    </g>
    <g id="xtick_7">
     <g id="line2d_13">
      <g>
       <use style="stroke:#000000;stroke-width:0.5;" x="236.025027604" xlink:href="#m93b0483c22" y="388.8"/>
      </g>
     </g>
     <g id="line2d_14">
      <g>
       <use style="stroke:#000000;stroke-width:0.5;" x="236.025027604" xlink:href="#m741efc42ff" y="43.2"/>
      </g>
     </g>
     <g id="text_7">
      <!-- 600 -->
      <defs>
       <path d="
M33.0156 40.375
Q26.375 40.375 22.4844 35.8281
Q18.6094 31.2969 18.6094 23.3906
Q18.6094 15.5312 22.4844 10.9531
Q26.375 6.39062 33.0156 6.39062
Q39.6562 6.39062 43.5312 10.9531
Q47.4062 15.5312 47.4062 23.3906
Q47.4062 31.2969 43.5312 35.8281
Q39.6562 40.375 33.0156 40.375
M52.5938 71.2969
L52.5938 62.3125
Q48.875 64.0625 45.0938 64.9844
Q41.3125 65.9219 37.5938 65.9219
Q27.8281 65.9219 22.6719 59.3281
Q17.5312 52.7344 16.7969 39.4062
Q19.6719 43.6562 24.0156 45.9219
Q28.375 48.1875 33.5938 48.1875
Q44.5781 48.1875 50.9531 41.5156
Q57.3281 34.8594 57.3281 23.3906
Q57.3281 12.1562 50.6875 5.35938
Q44.0469 -1.42188 33.0156 -1.42188
Q20.3594 -1.42188 13.6719 8.26562
Q6.98438 17.9688 6.98438 36.375
Q6.98438 53.6562 15.1875 63.9375
Q23.3906 74.2188 37.2031 74.2188
Q40.9219 74.2188 44.7031 73.4844
Q48.4844 72.75 52.5938 71.2969" id="BitstreamVeraSans-Roman-36"/>
      </defs>
      <g transform="translate(225.390027604 401.918125)scale(0.12 -0.12)">
       <use xlink:href="#BitstreamVeraSans-Roman-36"/>
       <use x="63.623046875" xlink:href="#BitstreamVeraSans-Roman-30"/>
       <use x="127.24609375" xlink:href="#BitstreamVeraSans-Roman-30"/>
      </g>
     </g>
    </g>
    <g id="xtick_8">
     <g id="line2d_15">
      <g>
       <use style="stroke:#000000;stroke-width:0.5;" x="263.408170777" xlink:href="#m93b0483c22" y="388.8"/>
      </g>
     </g>
     <g id="line2d_16">
      <g>
       <use style="stroke:#000000;stroke-width:0.5;" x="263.408170777" xlink:href="#m741efc42ff" y="43.2"/>
      </g>
     </g>
     <g id="text_8">
      <!-- 700 -->
      <defs>
       <path d="
M8.20312 72.9062
L55.0781 72.9062
L55.0781 68.7031
L28.6094 0
L18.3125 0
L43.2188 64.5938
L8.20312 64.5938
z
" id="BitstreamVeraSans-Roman-37"/>
      </defs>
      <g transform="translate(252.846295777 401.918125)scale(0.12 -0.12)">
       <use xlink:href="#BitstreamVeraSans-Roman-37"/>
       <use x="63.623046875" xlink:href="#BitstreamVeraSans-Roman-30"/>
       <use x="127.24609375" xlink:href="#BitstreamVeraSans-Roman-30"/>
      </g>
     </g>
    </g>
    <g id="text_9">
     <!-- Trials -->
     <defs>
      <path d="
M34.2812 27.4844
Q23.3906 27.4844 19.1875 25
Q14.9844 22.5156 14.9844 16.5
Q14.9844 11.7188 18.1406 8.90625
Q21.2969 6.10938 26.7031 6.10938
Q34.1875 6.10938 38.7031 11.4062
Q43.2188 16.7031 43.2188 25.4844
L43.2188 27.4844
z

M52.2031 31.2031
L52.2031 0
L43.2188 0
L43.2188 8.29688
Q40.1406 3.32812 35.5469 0.953125
Q30.9531 -1.42188 24.3125 -1.42188
Q15.9219 -1.42188 10.9531 3.29688
Q6 8.01562 6 15.9219
Q6 25.1406 12.1719 29.8281
Q18.3594 34.5156 30.6094 34.5156
L43.2188 34.5156
L43.2188 35.4062
Q43.2188 41.6094 39.1406 45
Q35.0625 48.3906 27.6875 48.3906
Q23 48.3906 18.5469 47.2656
Q14.1094 46.1406 10.0156 43.8906
L10.0156 52.2031
Q14.9375 54.1094 19.5781 55.0469
Q24.2188 56 28.6094 56
Q40.4844 56 46.3438 49.8438
Q52.2031 43.7031 52.2031 31.2031" id="BitstreamVeraSans-Roman-61"/>
      <path d="
M9.42188 75.9844
L18.4062 75.9844
L18.4062 0
L9.42188 0
z
" id="BitstreamVeraSans-Roman-6c"/>
      <path d="
M9.42188 54.6875
L18.4062 54.6875
L18.4062 0
L9.42188 0
z

M9.42188 75.9844
L18.4062 75.9844
L18.4062 64.5938
L9.42188 64.5938
z
" id="BitstreamVeraSans-Roman-69"/>
      <path d="
M-0.296875 72.9062
L61.375 72.9062
L61.375 64.5938
L35.5 64.5938
L35.5 0
L25.5938 0
L25.5938 64.5938
L-0.296875 64.5938
z
" id="BitstreamVeraSans-Roman-54"/>
      <path d="
M41.1094 46.2969
Q39.5938 47.1719 37.8125 47.5781
Q36.0312 48 33.8906 48
Q26.2656 48 22.1875 43.0469
Q18.1094 38.0938 18.1094 28.8125
L18.1094 0
L9.07812 0
L9.07812 54.6875
L18.1094 54.6875
L18.1094 46.1875
Q20.9531 51.1719 25.4844 53.5781
Q30.0312 56 36.5312 56
Q37.4531 56 38.5781 55.875
Q39.7031 55.7656 41.0625 55.5156
z
" id="BitstreamVeraSans-Roman-72"/>
      <path d="
M44.2812 53.0781
L44.2812 44.5781
Q40.4844 46.5312 36.375 47.5
Q32.2812 48.4844 27.875 48.4844
Q21.1875 48.4844 17.8438 46.4375
Q14.5 44.3906 14.5 40.2812
Q14.5 37.1562 16.8906 35.375
Q19.2812 33.5938 26.5156 31.9844
L29.5938 31.2969
Q39.1562 29.25 43.1875 25.5156
Q47.2188 21.7812 47.2188 15.0938
Q47.2188 7.46875 41.1875 3.01562
Q35.1562 -1.42188 24.6094 -1.42188
Q20.2188 -1.42188 15.4531 -0.5625
Q10.6875 0.296875 5.42188 2
L5.42188 11.2812
Q10.4062 8.6875 15.2344 7.39062
Q20.0625 6.10938 24.8125 6.10938
Q31.1562 6.10938 34.5625 8.28125
Q37.9844 10.4531 37.9844 14.4062
Q37.9844 18.0625 35.5156 20.0156
Q33.0625 21.9688 24.7031 23.7812
L21.5781 24.5156
Q13.2344 26.2656 9.51562 29.9062
Q5.8125 33.5469 5.8125 39.8906
Q5.8125 47.6094 11.2812 51.7969
Q16.75 56 26.8125 56
Q31.7812 56 36.1719 55.2656
Q40.5781 54.5469 44.2812 53.0781" id="BitstreamVeraSans-Roman-73"/>
     </defs>
     <g transform="translate(158.346732955 418.531875)scale(0.12 -0.12)">
      <use xlink:href="#BitstreamVeraSans-Roman-54"/>
      <use x="46.333984375" xlink:href="#BitstreamVeraSans-Roman-72"/>
      <use x="87.447265625" xlink:href="#BitstreamVeraSans-Roman-69"/>
      <use x="115.23046875" xlink:href="#BitstreamVeraSans-Roman-61"/>
      <use x="176.509765625" xlink:href="#BitstreamVeraSans-Roman-6c"/>
      <use x="204.29296875" xlink:href="#BitstreamVeraSans-Roman-73"/>
     </g>
    </g>
   </g>
   <g id="matplotlib.axis_2">
    <g id="ytick_1">
     <g id="line2d_17">
      <defs>
       <path d="
M0 0
L4 0" id="m728421d6d4" style="stroke:#000000;stroke-width:0.5;"/>
      </defs>
      <g>
       <use style="stroke:#000000;stroke-width:0.5;" x="72.0" xlink:href="#m728421d6d4" y="388.8"/>
      </g>
     </g>
     <g id="line2d_18">
      <defs>
       <path d="
M0 0
L-4 0" id="mcb0005524f" style="stroke:#000000;stroke-width:0.5;"/>
      </defs>
      <g>
       <use style="stroke:#000000;stroke-width:0.5;" x="274.909090909" xlink:href="#mcb0005524f" y="388.8"/>
      </g>
     </g>
     <g id="text_10">
      <!-- 0.0 -->
      <defs>
       <path d="
M10.6875 12.4062
L21 12.4062
L21 0
L10.6875 0
z
" id="BitstreamVeraSans-Roman-2e"/>
      </defs>
      <g transform="translate(50.504375 392.11125)scale(0.12 -0.12)">
       <use xlink:href="#BitstreamVeraSans-Roman-30"/>
       <use x="63.623046875" xlink:href="#BitstreamVeraSans-Roman-2e"/>
       <use x="95.41015625" xlink:href="#BitstreamVeraSans-Roman-30"/>
      </g>
     </g>
    </g>
    <g id="ytick_2">
     <g id="line2d_19">
      <g>
       <use style="stroke:#000000;stroke-width:0.5;" x="72.0" xlink:href="#m728421d6d4" y="319.68"/>
      </g>
     </g>
     <g id="line2d_20">
      <g>
       <use style="stroke:#000000;stroke-width:0.5;" x="274.909090909" xlink:href="#mcb0005524f" y="319.68"/>
      </g>
     </g>
     <g id="text_11">
      <!-- 0.2 -->
      <g transform="translate(50.909375 322.99125)scale(0.12 -0.12)">
       <use xlink:href="#BitstreamVeraSans-Roman-30"/>
       <use x="63.623046875" xlink:href="#BitstreamVeraSans-Roman-2e"/>
       <use x="95.41015625" xlink:href="#BitstreamVeraSans-Roman-32"/>
      </g>
     </g>
    </g>
    <g id="ytick_3">
     <g id="line2d_21">
      <g>
       <use style="stroke:#000000;stroke-width:0.5;" x="72.0" xlink:href="#m728421d6d4" y="250.56"/>
      </g>
     </g>
     <g id="line2d_22">
      <g>
       <use style="stroke:#000000;stroke-width:0.5;" x="274.909090909" xlink:href="#mcb0005524f" y="250.56"/>
      </g>
     </g>
     <g id="text_12">
      <!-- 0.4 -->
      <g transform="translate(50.380625 253.87125)scale(0.12 -0.12)">
       <use xlink:href="#BitstreamVeraSans-Roman-30"/>
       <use x="63.623046875" xlink:href="#BitstreamVeraSans-Roman-2e"/>
       <use x="95.41015625" xlink:href="#BitstreamVeraSans-Roman-34"/>
      </g>
     </g>
    </g>
    <g id="ytick_4">
     <g id="line2d_23">
      <g>
       <use style="stroke:#000000;stroke-width:0.5;" x="72.0" xlink:href="#m728421d6d4" y="181.44"/>
      </g>
     </g>
     <g id="line2d_24">
      <g>
       <use style="stroke:#000000;stroke-width:0.5;" x="274.909090909" xlink:href="#mcb0005524f" y="181.44"/>
      </g>
     </g>
     <g id="text_13">
      <!-- 0.6 -->
      <g transform="translate(50.463125 184.75125)scale(0.12 -0.12)">
       <use xlink:href="#BitstreamVeraSans-Roman-30"/>
       <use x="63.623046875" xlink:href="#BitstreamVeraSans-Roman-2e"/>
       <use x="95.41015625" xlink:href="#BitstreamVeraSans-Roman-36"/>
      </g>
     </g>
    </g>
    <g id="ytick_5">
     <g id="line2d_25">
      <g>
       <use style="stroke:#000000;stroke-width:0.5;" x="72.0" xlink:href="#m728421d6d4" y="112.32"/>
      </g>
     </g>
     <g id="line2d_26">
      <g>
       <use style="stroke:#000000;stroke-width:0.5;" x="274.909090909" xlink:href="#mcb0005524f" y="112.32"/>
      </g>
     </g>
     <g id="text_14">
      <!-- 0.8 -->
      <defs>
       <path d="
M31.7812 34.625
Q24.75 34.625 20.7188 30.8594
Q16.7031 27.0938 16.7031 20.5156
Q16.7031 13.9219 20.7188 10.1562
Q24.75 6.39062 31.7812 6.39062
Q38.8125 6.39062 42.8594 10.1719
Q46.9219 13.9688 46.9219 20.5156
Q46.9219 27.0938 42.8906 30.8594
Q38.875 34.625 31.7812 34.625
M21.9219 38.8125
Q15.5781 40.375 12.0312 44.7188
Q8.5 49.0781 8.5 55.3281
Q8.5 64.0625 14.7188 69.1406
Q20.9531 74.2188 31.7812 74.2188
Q42.6719 74.2188 48.875 69.1406
Q55.0781 64.0625 55.0781 55.3281
Q55.0781 49.0781 51.5312 44.7188
Q48 40.375 41.7031 38.8125
Q48.8281 37.1562 52.7969 32.3125
Q56.7812 27.4844 56.7812 20.5156
Q56.7812 9.90625 50.3125 4.23438
Q43.8438 -1.42188 31.7812 -1.42188
Q19.7344 -1.42188 13.25 4.23438
Q6.78125 9.90625 6.78125 20.5156
Q6.78125 27.4844 10.7812 32.3125
Q14.7969 37.1562 21.9219 38.8125
M18.3125 54.3906
Q18.3125 48.7344 21.8438 45.5625
Q25.3906 42.3906 31.7812 42.3906
Q38.1406 42.3906 41.7188 45.5625
Q45.3125 48.7344 45.3125 54.3906
Q45.3125 60.0625 41.7188 63.2344
Q38.1406 66.4062 31.7812 66.4062
Q25.3906 66.4062 21.8438 63.2344
Q18.3125 60.0625 18.3125 54.3906" id="BitstreamVeraSans-Roman-38"/>
      </defs>
      <g transform="translate(50.52875 115.63125)scale(0.12 -0.12)">
       <use xlink:href="#BitstreamVeraSans-Roman-30"/>
       <use x="63.623046875" xlink:href="#BitstreamVeraSans-Roman-2e"/>
       <use x="95.41015625" xlink:href="#BitstreamVeraSans-Roman-38"/>
      </g>
     </g>
    </g>
    <g id="ytick_6">
     <g id="line2d_27">
      <g>
       <use style="stroke:#000000;stroke-width:0.5;" x="72.0" xlink:href="#m728421d6d4" y="43.2"/>
      </g>
     </g>
     <g id="line2d_28">
      <g>
       <use style="stroke:#000000;stroke-width:0.5;" x="274.909090909" xlink:href="#mcb0005524f" y="43.2"/>
      </g>
     </g>
     <g id="text_15">
      <!-- 1.0 -->
      <g transform="translate(51.03125 46.51125)scale(0.12 -0.12)">
       <use xlink:href="#BitstreamVeraSans-Roman-31"/>
       <use x="63.623046875" xlink:href="#BitstreamVeraSans-Roman-2e"/>
       <use x="95.41015625" xlink:href="#BitstreamVeraSans-Roman-30"/>
      </g>
     </g>
    </g>
    <g id="text_16">
     <!-- Probability of Receiving Large Reward -->
     <defs>
      <path d="
M45.4062 46.3906
L45.4062 75.9844
L54.3906 75.9844
L54.3906 0
L45.4062 0
L45.4062 8.20312
Q42.5781 3.32812 38.25 0.953125
Q33.9375 -1.42188 27.875 -1.42188
Q17.9688 -1.42188 11.7344 6.48438
Q5.51562 14.4062 5.51562 27.2969
Q5.51562 40.1875 11.7344 48.0938
Q17.9688 56 27.875 56
Q33.9375 56 38.25 53.625
Q42.5781 51.2656 45.4062 46.3906
M14.7969 27.2969
Q14.7969 17.3906 18.875 11.75
Q22.9531 6.10938 30.0781 6.10938
Q37.2031 6.10938 41.2969 11.75
Q45.4062 17.3906 45.4062 27.2969
Q45.4062 37.2031 41.2969 42.8438
Q37.2031 48.4844 30.0781 48.4844
Q22.9531 48.4844 18.875 42.8438
Q14.7969 37.2031 14.7969 27.2969" id="BitstreamVeraSans-Roman-64"/>
      <path id="BitstreamVeraSans-Roman-20"/>
      <path d="
M9.8125 72.9062
L19.6719 72.9062
L19.6719 8.29688
L55.1719 8.29688
L55.1719 0
L9.8125 0
z
" id="BitstreamVeraSans-Roman-4c"/>
      <path d="
M54.8906 33.0156
L54.8906 0
L45.9062 0
L45.9062 32.7188
Q45.9062 40.4844 42.875 44.3281
Q39.8438 48.1875 33.7969 48.1875
Q26.5156 48.1875 22.3125 43.5469
Q18.1094 38.9219 18.1094 30.9062
L18.1094 0
L9.07812 0
L9.07812 54.6875
L18.1094 54.6875
L18.1094 46.1875
Q21.3438 51.125 25.7031 53.5625
Q30.0781 56 35.7969 56
Q45.2188 56 50.0469 50.1719
Q54.8906 44.3438 54.8906 33.0156" id="BitstreamVeraSans-Roman-6e"/>
      <path d="
M30.6094 48.3906
Q23.3906 48.3906 19.1875 42.75
Q14.9844 37.1094 14.9844 27.2969
Q14.9844 17.4844 19.1562 11.8438
Q23.3438 6.20312 30.6094 6.20312
Q37.7969 6.20312 41.9844 11.8594
Q46.1875 17.5312 46.1875 27.2969
Q46.1875 37.0156 41.9844 42.7031
Q37.7969 48.3906 30.6094 48.3906
M30.6094 56
Q42.3281 56 49.0156 48.375
Q55.7188 40.7656 55.7188 27.2969
Q55.7188 13.875 49.0156 6.21875
Q42.3281 -1.42188 30.6094 -1.42188
Q18.8438 -1.42188 12.1719 6.21875
Q5.51562 13.875 5.51562 27.2969
Q5.51562 40.7656 12.1719 48.375
Q18.8438 56 30.6094 56" id="BitstreamVeraSans-Roman-6f"/>
      <path d="
M19.6719 64.7969
L19.6719 37.4062
L32.0781 37.4062
Q38.9688 37.4062 42.7188 40.9688
Q46.4844 44.5312 46.4844 51.125
Q46.4844 57.6719 42.7188 61.2344
Q38.9688 64.7969 32.0781 64.7969
z

M9.8125 72.9062
L32.0781 72.9062
Q44.3438 72.9062 50.6094 67.3594
Q56.8906 61.8125 56.8906 51.125
Q56.8906 40.3281 50.6094 34.8125
Q44.3438 29.2969 32.0781 29.2969
L19.6719 29.2969
L19.6719 0
L9.8125 0
z
" id="BitstreamVeraSans-Roman-50"/>
      <path d="
M2.98438 54.6875
L12.5 54.6875
L29.5938 8.79688
L46.6875 54.6875
L56.2031 54.6875
L35.6875 0
L23.4844 0
z
" id="BitstreamVeraSans-Roman-76"/>
      <path d="
M44.3906 34.1875
Q47.5625 33.1094 50.5625 29.5938
Q53.5625 26.0781 56.5938 19.9219
L66.6094 0
L56 0
L46.6875 18.7031
Q43.0625 26.0312 39.6719 28.4219
Q36.2812 30.8125 30.4219 30.8125
L19.6719 30.8125
L19.6719 0
L9.8125 0
L9.8125 72.9062
L32.0781 72.9062
Q44.5781 72.9062 50.7344 67.6719
Q56.8906 62.4531 56.8906 51.9062
Q56.8906 45.0156 53.6875 40.4688
Q50.4844 35.9375 44.3906 34.1875
M19.6719 64.7969
L19.6719 38.9219
L32.0781 38.9219
Q39.2031 38.9219 42.8438 42.2188
Q46.4844 45.5156 46.4844 51.9062
Q46.4844 58.2969 42.8438 61.5469
Q39.2031 64.7969 32.0781 64.7969
z
" id="BitstreamVeraSans-Roman-52"/>
      <path d="
M32.1719 -5.07812
Q28.375 -14.8438 24.75 -17.8125
Q21.1406 -20.7969 15.0938 -20.7969
L7.90625 -20.7969
L7.90625 -13.2812
L13.1875 -13.2812
Q16.8906 -13.2812 18.9375 -11.5156
Q21 -9.76562 23.4844 -3.21875
L25.0938 0.875
L2.98438 54.6875
L12.5 54.6875
L29.5938 11.9219
L46.6875 54.6875
L56.2031 54.6875
z
" id="BitstreamVeraSans-Roman-79"/>
      <path d="
M56.2031 29.5938
L56.2031 25.2031
L14.8906 25.2031
Q15.4844 15.9219 20.4844 11.0625
Q25.4844 6.20312 34.4219 6.20312
Q39.5938 6.20312 44.4531 7.46875
Q49.3125 8.73438 54.1094 11.2812
L54.1094 2.78125
Q49.2656 0.734375 44.1875 -0.34375
Q39.1094 -1.42188 33.8906 -1.42188
Q20.7969 -1.42188 13.1562 6.1875
Q5.51562 13.8125 5.51562 26.8125
Q5.51562 40.2344 12.7656 48.1094
Q20.0156 56 32.3281 56
Q43.3594 56 49.7812 48.8906
Q56.2031 41.7969 56.2031 29.5938
M47.2188 32.2344
Q47.125 39.5938 43.0938 43.9844
Q39.0625 48.3906 32.4219 48.3906
Q24.9062 48.3906 20.3906 44.1406
Q15.875 39.8906 15.1875 32.1719
z
" id="BitstreamVeraSans-Roman-65"/>
      <path d="
M4.20312 54.6875
L13.1875 54.6875
L24.4219 12.0156
L35.5938 54.6875
L46.1875 54.6875
L57.4219 12.0156
L68.6094 54.6875
L77.5938 54.6875
L63.2812 0
L52.6875 0
L40.9219 44.8281
L29.1094 0
L18.5 0
z
" id="BitstreamVeraSans-Roman-77"/>
      <path d="
M18.3125 70.2188
L18.3125 54.6875
L36.8125 54.6875
L36.8125 47.7031
L18.3125 47.7031
L18.3125 18.0156
Q18.3125 11.3281 20.1406 9.42188
Q21.9688 7.51562 27.5938 7.51562
L36.8125 7.51562
L36.8125 0
L27.5938 0
Q17.1875 0 13.2344 3.875
Q9.28125 7.76562 9.28125 18.0156
L9.28125 47.7031
L2.6875 47.7031
L2.6875 54.6875
L9.28125 54.6875
L9.28125 70.2188
z
" id="BitstreamVeraSans-Roman-74"/>
      <path d="
M37.1094 75.9844
L37.1094 68.5
L28.5156 68.5
Q23.6875 68.5 21.7969 66.5469
Q19.9219 64.5938 19.9219 59.5156
L19.9219 54.6875
L34.7188 54.6875
L34.7188 47.7031
L19.9219 47.7031
L19.9219 0
L10.8906 0
L10.8906 47.7031
L2.29688 47.7031
L2.29688 54.6875
L10.8906 54.6875
L10.8906 58.5
Q10.8906 67.625 15.1406 71.7969
Q19.3906 75.9844 28.6094 75.9844
z
" id="BitstreamVeraSans-Roman-66"/>
      <path d="
M45.4062 27.9844
Q45.4062 37.75 41.375 43.1094
Q37.3594 48.4844 30.0781 48.4844
Q22.8594 48.4844 18.8281 43.1094
Q14.7969 37.75 14.7969 27.9844
Q14.7969 18.2656 18.8281 12.8906
Q22.8594 7.51562 30.0781 7.51562
Q37.3594 7.51562 41.375 12.8906
Q45.4062 18.2656 45.4062 27.9844
M54.3906 6.78125
Q54.3906 -7.17188 48.1875 -13.9844
Q42 -20.7969 29.2031 -20.7969
Q24.4688 -20.7969 20.2656 -20.0938
Q16.0625 -19.3906 12.1094 -17.9219
L12.1094 -9.1875
Q16.0625 -11.3281 19.9219 -12.3438
Q23.7812 -13.375 27.7812 -13.375
Q36.625 -13.375 41.0156 -8.76562
Q45.4062 -4.15625 45.4062 5.17188
L45.4062 9.625
Q42.625 4.78125 38.2812 2.39062
Q33.9375 0 27.875 0
Q17.8281 0 11.6719 7.65625
Q5.51562 15.3281 5.51562 27.9844
Q5.51562 40.6719 11.6719 48.3281
Q17.8281 56 27.875 56
Q33.9375 56 38.2812 53.6094
Q42.625 51.2188 45.4062 46.3906
L45.4062 54.6875
L54.3906 54.6875
z
" id="BitstreamVeraSans-Roman-67"/>
      <path d="
M48.7812 52.5938
L48.7812 44.1875
Q44.9688 46.2969 41.1406 47.3438
Q37.3125 48.3906 33.4062 48.3906
Q24.6562 48.3906 19.8125 42.8438
Q14.9844 37.3125 14.9844 27.2969
Q14.9844 17.2812 19.8125 11.7344
Q24.6562 6.20312 33.4062 6.20312
Q37.3125 6.20312 41.1406 7.25
Q44.9688 8.29688 48.7812 10.4062
L48.7812 2.09375
Q45.0156 0.34375 40.9844 -0.53125
Q36.9688 -1.42188 32.4219 -1.42188
Q20.0625 -1.42188 12.7812 6.34375
Q5.51562 14.1094 5.51562 27.2969
Q5.51562 40.6719 12.8594 48.3281
Q20.2188 56 33.0156 56
Q37.1562 56 41.1094 55.1406
Q45.0625 54.2969 48.7812 52.5938" id="BitstreamVeraSans-Roman-63"/>
      <path d="
M48.6875 27.2969
Q48.6875 37.2031 44.6094 42.8438
Q40.5312 48.4844 33.4062 48.4844
Q26.2656 48.4844 22.1875 42.8438
Q18.1094 37.2031 18.1094 27.2969
Q18.1094 17.3906 22.1875 11.75
Q26.2656 6.10938 33.4062 6.10938
Q40.5312 6.10938 44.6094 11.75
Q48.6875 17.3906 48.6875 27.2969
M18.1094 46.3906
Q20.9531 51.2656 25.2656 53.625
Q29.5938 56 35.5938 56
Q45.5625 56 51.7812 48.0938
Q58.0156 40.1875 58.0156 27.2969
Q58.0156 14.4062 51.7812 6.48438
Q45.5625 -1.42188 35.5938 -1.42188
Q29.5938 -1.42188 25.2656 0.953125
Q20.9531 3.32812 18.1094 8.20312
L18.1094 0
L9.07812 0
L9.07812 75.9844
L18.1094 75.9844
z
" id="BitstreamVeraSans-Roman-62"/>
     </defs>
     <g transform="translate(42.885 328.88625)rotate(-90.0)scale(0.12 -0.12)">
      <use xlink:href="#BitstreamVeraSans-Roman-50"/>
      <use x="58.552734375" xlink:href="#BitstreamVeraSans-Roman-72"/>
      <use x="97.416015625" xlink:href="#BitstreamVeraSans-Roman-6f"/>
      <use x="158.59765625" xlink:href="#BitstreamVeraSans-Roman-62"/>
      <use x="222.07421875" xlink:href="#BitstreamVeraSans-Roman-61"/>
      <use x="283.353515625" xlink:href="#BitstreamVeraSans-Roman-62"/>
      <use x="346.830078125" xlink:href="#BitstreamVeraSans-Roman-69"/>
      <use x="374.61328125" xlink:href="#BitstreamVeraSans-Roman-6c"/>
      <use x="402.396484375" xlink:href="#BitstreamVeraSans-Roman-69"/>
      <use x="430.1796875" xlink:href="#BitstreamVeraSans-Roman-74"/>
      <use x="469.388671875" xlink:href="#BitstreamVeraSans-Roman-79"/>
      <use x="528.568359375" xlink:href="#BitstreamVeraSans-Roman-20"/>
      <use x="560.35546875" xlink:href="#BitstreamVeraSans-Roman-6f"/>
      <use x="621.537109375" xlink:href="#BitstreamVeraSans-Roman-66"/>
      <use x="656.7421875" xlink:href="#BitstreamVeraSans-Roman-20"/>
      <use x="688.529296875" xlink:href="#BitstreamVeraSans-Roman-52"/>
      <use x="753.51171875" xlink:href="#BitstreamVeraSans-Roman-65"/>
      <use x="815.03515625" xlink:href="#BitstreamVeraSans-Roman-63"/>
      <use x="870.015625" xlink:href="#BitstreamVeraSans-Roman-65"/>
      <use x="931.5390625" xlink:href="#BitstreamVeraSans-Roman-69"/>
      <use x="959.322265625" xlink:href="#BitstreamVeraSans-Roman-76"/>
      <use x="1018.50195312" xlink:href="#BitstreamVeraSans-Roman-69"/>
      <use x="1046.28515625" xlink:href="#BitstreamVeraSans-Roman-6e"/>
      <use x="1109.6640625" xlink:href="#BitstreamVeraSans-Roman-67"/>
      <use x="1173.140625" xlink:href="#BitstreamVeraSans-Roman-20"/>
      <use x="1204.92773438" xlink:href="#BitstreamVeraSans-Roman-4c"/>
      <use x="1260.640625" xlink:href="#BitstreamVeraSans-Roman-61"/>
      <use x="1321.91992188" xlink:href="#BitstreamVeraSans-Roman-72"/>
      <use x="1361.28320312" xlink:href="#BitstreamVeraSans-Roman-67"/>
      <use x="1424.75976562" xlink:href="#BitstreamVeraSans-Roman-65"/>
      <use x="1486.28320312" xlink:href="#BitstreamVeraSans-Roman-20"/>
      <use x="1518.0703125" xlink:href="#BitstreamVeraSans-Roman-52"/>
      <use x="1583.05273438" xlink:href="#BitstreamVeraSans-Roman-65"/>
      <use x="1644.57617188" xlink:href="#BitstreamVeraSans-Roman-77"/>
      <use x="1726.36328125" xlink:href="#BitstreamVeraSans-Roman-61"/>
      <use x="1787.64257812" xlink:href="#BitstreamVeraSans-Roman-72"/>
      <use x="1827.00585938" xlink:href="#BitstreamVeraSans-Roman-64"/>
     </g>
    </g>
   </g>
   <g id="text_17">
    <!-- All Trials -->
    <defs>
     <path d="
M34.1875 63.1875
L20.7969 26.9062
L47.6094 26.9062
z

M28.6094 72.9062
L39.7969 72.9062
L67.5781 0
L57.3281 0
L50.6875 18.7031
L17.8281 18.7031
L11.1875 0
L0.78125 0
z
" id="BitstreamVeraSans-Roman-41"/>
    </defs>
    <g transform="translate(144.132545455 38.2)scale(0.144 -0.144)">
     <use xlink:href="#BitstreamVeraSans-Roman-41"/>
     <use x="68.408203125" xlink:href="#BitstreamVeraSans-Roman-6c"/>
     <use x="96.19140625" xlink:href="#BitstreamVeraSans-Roman-6c"/>
     <use x="123.974609375" xlink:href="#BitstreamVeraSans-Roman-20"/>
     <use x="155.76171875" xlink:href="#BitstreamVeraSans-Roman-54"/>
     <use x="202.095703125" xlink:href="#BitstreamVeraSans-Roman-72"/>
     <use x="243.208984375" xlink:href="#BitstreamVeraSans-Roman-69"/>
     <use x="270.9921875" xlink:href="#BitstreamVeraSans-Roman-61"/>
     <use x="332.271484375" xlink:href="#BitstreamVeraSans-Roman-6c"/>
     <use x="360.0546875" xlink:href="#BitstreamVeraSans-Roman-73"/>
    </g>
   </g>
   <g id="legend_1">
    <g id="patch_7">
     <path d="
M187.004 96.993
L267.709 96.993
L267.709 50.4
L187.004 50.4
z
" style="fill:#ffffff;stroke:#000000;stroke-linejoin:miter;"/>
    </g>
    <g id="line2d_29">
     <path d="
M197.084 62.0617
L217.244 62.0617" style="fill:none;stroke:#0000ff;stroke-linecap:square;"/>
    </g>
    <g id="line2d_30"/>
    <g id="text_18">
     <!-- high -->
     <defs>
      <path d="
M54.8906 33.0156
L54.8906 0
L45.9062 0
L45.9062 32.7188
Q45.9062 40.4844 42.875 44.3281
Q39.8438 48.1875 33.7969 48.1875
Q26.5156 48.1875 22.3125 43.5469
Q18.1094 38.9219 18.1094 30.9062
L18.1094 0
L9.07812 0
L9.07812 75.9844
L18.1094 75.9844
L18.1094 46.1875
Q21.3438 51.125 25.7031 53.5625
Q30.0781 56 35.7969 56
Q45.2188 56 50.0469 50.1719
Q54.8906 44.3438 54.8906 33.0156" id="BitstreamVeraSans-Roman-68"/>
     </defs>
     <g transform="translate(233.083840909 67.10175)scale(0.144 -0.144)">
      <use xlink:href="#BitstreamVeraSans-Roman-68"/>
      <use x="63.37890625" xlink:href="#BitstreamVeraSans-Roman-69"/>
      <use x="91.162109375" xlink:href="#BitstreamVeraSans-Roman-67"/>
      <use x="154.638671875" xlink:href="#BitstreamVeraSans-Roman-68"/>
     </g>
    </g>
    <g id="line2d_31">
     <path d="
M197.084 83.1982
L217.244 83.1982" style="fill:none;stroke:#ff0000;stroke-linecap:square;"/>
    </g>
    <g id="line2d_32"/>
    <g id="text_19">
     <!-- low -->
     <g transform="translate(233.083840909 88.23825)scale(0.144 -0.144)">
      <use xlink:href="#BitstreamVeraSans-Roman-6c"/>
      <use x="27.783203125" xlink:href="#BitstreamVeraSans-Roman-6f"/>
      <use x="88.96484375" xlink:href="#BitstreamVeraSans-Roman-77"/>
     </g>
    </g>
   </g>
  </g>
  <g id="axes_2">
   <g id="patch_8">
    <path d="
M315.491 388.8
L518.4 388.8
L518.4 43.2
L315.491 43.2
z
" style="fill:#ffffff;"/>
   </g>
   <g id="line2d_33">
    <path clip-path="url(#pc565ddf9d5)" d="
M315.491 388.8
L315.884 43.2
L321.389 43.2
L321.783 69.7846
L322.176 67.8857
L322.569 67.8857
L322.962 66.24
L323.356 66.24
L324.142 63.5294
L324.535 62.4
L325.715 62.4
L326.895 59.6571
L327.288 59.6571
L327.681 58.9091
L328.074 73.2522
L328.468 72
L328.861 72
L329.254 70.848
L329.647 70.848
L330.434 68.8
L332.4 68.8
L333.58 66.24
L333.973 66.24
L335.153 64.1455
L335.546 63.5294
L336.726 63.5294
L337.119 64.1455
L337.512 63.5294
L337.905 73.6941
L338.299 73.6941
L338.692 83.8588
L340.265 83.8588
L340.658 85.0909
L341.444 85.0909
L341.838 75.6
L342.231 76.6452
L342.624 75.6
L343.017 76.6452
L343.411 75.6
L343.804 75.6
L344.197 76.6452
L344.59 76.6452
L344.984 75.6
L345.377 75.6
L345.77 74.6182
L346.95 74.6182
L347.343 73.6941
L347.736 74.6182
L348.129 64.8
L348.523 64.8
L348.916 64.1455
L349.309 64.8
L349.702 64.1455
L350.489 65.4968
L351.275 65.4968
L351.668 64.8
L352.062 64.8
L352.455 64.1455
L352.848 64.8
L354.028 64.8
L354.814 66.24
L355.208 77.76
L356.781 77.76
L357.174 76.6452
L357.567 77.76
L357.96 66.24
L358.353 67.0345
L358.747 55.5429
L359.926 57.024
L360.713 57.024
L361.106 56.4923
L361.499 57.024
L362.286 56
L362.679 56.4923
L363.072 56
L363.859 56
L364.252 55.5429
L365.038 55.5429
L365.432 55.1172
L365.825 55.5429
L366.218 55.5429
L366.611 56
L367.005 56
L367.398 56.4923
L367.791 68.8
L368.184 67.8857
L368.578 67.8857
L368.971 68.8
L369.757 68.8
L370.937 66.24
L371.33 65.4968
L371.723 65.4968
L372.117 64.8
L372.51 65.4968
L372.903 64.8
L373.296 64.8
L373.69 65.4968
L374.476 64.1455
L374.869 73.6941
L375.263 64.1455
L376.049 64.1455
L376.442 64.8
L376.836 64.1455
L377.229 64.1455
L377.622 63.5294
L378.015 64.1455
L378.408 73.6941
L378.802 72.8229
L379.981 72.8229
L380.375 73.6941
L380.768 72.8229
L381.161 72.8229
L381.554 72
L381.948 81.6
L382.341 82.6971
L382.734 81.6
L383.127 81.6
L384.307 85.0909
L385.487 89.28
L385.88 87.7935
L387.06 87.7935
L387.453 86.4
L387.846 75.6
L388.633 75.6
L389.419 73.6941
L390.205 73.6941
L390.599 74.6182
L390.992 85.0909
L391.385 86.4
L392.172 86.4
L392.565 85.0909
L393.351 85.0909
L393.745 83.8588
L394.138 83.8588
L394.531 85.0909
L394.924 74.6182
L395.318 73.6941
L395.711 73.6941
L396.104 74.6182
L396.497 83.8588
L397.284 83.8588
L397.677 85.0909
L398.07 83.8588
L398.463 73.6941
L398.857 83.8588
L399.643 81.6
L400.036 81.6
L400.43 80.5622
L400.823 81.6
L401.609 81.6
L402.003 72
L402.396 71.2216
L403.182 71.2216
L404.755 68.4878
L405.542 67.3116
L405.935 75.3488
L406.328 75.3488
L406.721 74.6182
L408.294 74.6182
L409.474 76.9171
L410.26 76.9171
L410.654 76.1143
L411.047 68.4878
L411.44 67.8857
L411.833 68.4878
L412.227 68.4878
L412.62 69.12
L413.013 69.12
L414.193 71.2216
L414.586 70.4842
L414.979 70.4842
L415.766 72
L416.159 71.2216
L416.552 61.8811
L416.945 71.2216
L417.339 71.2216
L417.732 70.4842
L418.125 70.4842
L418.518 71.2216
L418.912 62.4
L419.305 62.9486
L419.698 62.9486
L420.091 72
L420.485 72
L420.878 71.2216
L424.81 71.2216
L425.203 80.5622
L425.597 80.5622
L425.99 72
L428.349 72
L428.742 71.2216
L429.136 71.2216
L429.529 70.4842
L429.922 79.5789
L430.709 79.5789
L431.102 78.6462
L431.495 78.6462
L431.888 86.4
L432.282 86.4
L432.675 85.3463
L433.068 86.4
L433.461 85.3463
L433.855 85.3463
L434.248 84.3429
L434.641 84.3429
L435.034 85.3463
L435.427 84.3429
L436.214 99.4605
L436.607 99.4605
L437 91.4233
L437.394 92.5714
L438.967 92.5714
L439.36 91.4233
L439.753 91.4233
L440.146 83.386
L440.933 83.386
L441.326 91.4233
L441.719 92.5714
L443.292 92.5714
L444.079 95.04
L444.865 95.04
L445.258 86.4
L445.652 86.4
L446.045 85.3463
L446.438 93.7756
L446.831 93.7756
L447.225 95.04
L448.404 95.04
L448.797 103.68
L449.191 102.205
L449.584 102.205
L449.977 93.7756
L451.157 93.7756
L451.55 95.04
L451.943 87.5077
L452.73 87.5077
L453.123 86.4
L453.516 86.4
L453.91 85.3463
L454.696 85.3463
L455.089 92.5714
L455.482 92.5714
L456.269 76.1143
L456.662 76.1143
L457.055 76.9171
L457.449 76.1143
L458.628 76.1143
L459.022 75.3488
L459.415 75.3488
L459.808 76.1143
L460.201 76.1143
L460.595 84.3429
L460.988 84.3429
L461.381 76.1143
L461.774 75.3488
L463.347 75.3488
L463.74 82.4727
L464.134 82.4727
L464.527 83.386
L465.313 83.386
L465.707 84.3429
L466.1 84.3429
L466.493 76.1143
L466.886 76.1143
L467.279 75.3488
L467.673 75.3488
L468.066 76.1143
L468.459 76.1143
L468.852 67.8857
L469.246 67.8857
L469.639 68.4878
L470.032 68.4878
L470.425 69.12
L471.212 69.12
L471.605 68.4878
L471.998 68.4878
L472.392 69.12
L473.571 69.12
L473.964 69.7846
L474.358 69.7846
L474.751 70.4842
L475.144 61.3895
L475.931 61.3895
L476.324 61.8811
L476.717 71.2216
L477.11 70.4842
L478.29 70.4842
L478.683 69.7846
L479.077 70.4842
L479.47 70.4842
L479.863 69.7846
L480.256 69.7846
L480.649 60.9231
L481.436 60.9231
L481.829 69.7846
L482.616 69.7846
L483.009 70.4842
L483.402 70.4842
L483.795 61.3895
L484.582 60.48
L485.368 60.48
L485.762 60.0585
L486.155 68.4878
L486.548 69.12
L487.728 69.12
L488.121 68.4878
L488.514 76.9171
L489.301 76.9171
L489.694 76.1143
L490.087 76.1143
L490.48 75.3488
L491.66 77.76
L492.447 76.1143
L493.233 76.1143
L493.626 84.3429
L494.019 83.386
L494.413 84.3429
L495.986 84.3429
L496.379 83.386
L496.772 76.1143
L497.165 76.9171
L497.559 85.3463
L498.345 85.3463
L498.738 86.4
L499.132 85.3463
L499.525 85.3463
L499.918 86.4
L500.704 86.4
L501.098 95.04
L502.671 95.04
L503.064 93.7756
L503.457 93.7756
L503.85 95.04
L504.637 95.04
L505.423 97.7684
L505.816 97.7684
L506.21 88.6737
L506.603 96.3692
L507.389 96.3692
L508.176 99.2432
L509.356 99.2432
L509.749 100.8
L511.715 100.8
L512.501 104.188
L513.288 104.188
L513.681 95.5636
L514.074 95.5636
L514.861 92.5714
L515.254 94.0235
L516.041 94.0235
L516.434 95.5636
L516.827 94.0235
L517.22 102.446
L517.614 92.5714
L518.4 92.5714
L518.4 92.5714" style="fill:none;stroke:#0000ff;stroke-linecap:square;"/>
   </g>
   <g id="line2d_34">
    <path clip-path="url(#pc565ddf9d5)" d="
M315.491 388.8
L322.176 388.8
L322.569 319.68
L322.962 319.68
L323.356 331.2
L324.535 331.2
L324.929 290.057
L325.715 312
L326.895 312
L327.288 319.68
L328.468 319.68
L328.861 294.545
L329.254 294.545
L329.647 302.4
L330.434 302.4
L331.22 265.371
L332.007 280.8
L332.4 287.153
L333.58 287.153
L333.973 292.8
L335.153 292.8
L335.546 287.153
L336.726 287.153
L337.119 273.6
L337.512 266.824
L340.265 266.824
L340.658 254.4
L341.444 254.4
L342.231 267.84
L342.624 279.663
L343.017 285.12
L343.411 279.663
L343.804 279.663
L344.197 267.84
L344.59 267.84
L344.984 279.663
L345.377 261.474
L345.77 254.4
L346.95 254.4
L347.343 246.494
L347.736 254.4
L348.129 243.284
L348.523 243.284
L348.916 254.4
L349.702 235.2
L350.489 250.56
L351.275 250.56
L351.668 243.284
L352.062 243.284
L352.848 225.095
L354.028 225.095
L354.421 233.28
L354.814 224.229
L356.387 224.229
L356.781 207.771
L357.567 224.229
L357.96 224.229
L358.353 216
L358.747 223.513
L359.14 216
L359.533 222.912
L359.926 216
L360.32 216
L360.713 229.292
L361.893 209.088
L362.286 201.6
L362.679 209.088
L363.072 201.6
L363.859 201.6
L364.252 208.487
L365.038 208.487
L365.432 216
L365.825 208.487
L366.218 208.487
L366.611 201.6
L367.005 201.6
L367.791 187.2
L368.184 193.461
L368.578 193.461
L368.971 201.6
L369.364 216
L369.757 216
L370.544 200.291
L371.33 216
L371.723 216
L372.117 206.905
L372.903 225.095
L373.296 225.095
L374.476 196.8
L375.263 216
L376.049 216
L376.836 235.2
L377.229 235.2
L377.622 226.165
L378.408 246.494
L378.802 237.6
L379.981 237.6
L380.375 246.494
L380.768 237.6
L381.161 237.6
L381.554 250.56
L381.948 250.56
L382.341 259.2
L382.734 250.56
L383.127 250.56
L383.521 259.2
L384.307 235.2
L384.7 225.095
L385.88 250.56
L386.273 250.56
L386.666 267.84
L387.06 267.84
L387.453 279.663
L388.633 279.663
L389.419 266.824
L390.205 266.824
L390.599 273.6
L390.992 273.6
L391.385 261.474
L392.172 261.474
L392.565 254.4
L393.351 254.4
L393.745 266.824
L394.138 266.824
L394.531 273.6
L394.924 273.6
L395.318 266.824
L395.711 266.824
L396.104 254.4
L396.497 246.494
L397.284 246.494
L397.677 254.4
L398.07 246.494
L398.857 246.494
L399.25 259.2
L399.643 250.56
L400.036 250.56
L400.43 240.686
L400.823 250.56
L402.003 250.56
L402.396 240.686
L403.182 240.686
L403.575 229.292
L404.362 263.127
L404.755 285.12
L405.542 259.2
L406.328 259.2
L406.721 240.686
L408.294 240.686
L408.688 216
L409.474 250.56
L410.26 250.56
L411.047 216
L411.44 235.2
L411.833 216
L412.227 216
L412.62 231.709
L413.013 231.709
L413.406 216
L414.193 240.686
L414.586 229.292
L414.979 229.292
L416.159 265.371
L417.339 265.371
L417.732 255.877
L418.125 255.877
L418.518 265.371
L419.305 237.6
L419.698 237.6
L420.091 250.56
L420.485 250.56
L420.878 240.686
L425.597 240.686
L425.99 227.52
L428.349 227.52
L428.742 240.686
L429.136 216
L429.529 202.708
L430.709 202.708
L431.102 216
L431.495 216
L431.888 231.709
L432.282 231.709
L432.675 216
L433.461 250.56
L433.855 216
L434.248 196.8
L434.641 196.8
L435.034 181.44
L435.821 129.6
L437 129.6
L437.394 158.4
L438.573 158.4
L438.967 196.8
L439.36 216
L441.326 216
L441.719 235.2
L443.292 235.2
L444.079 200.291
L445.652 200.291
L446.045 216
L446.831 216
L447.225 231.709
L448.797 231.709
L449.191 250.56
L451.157 250.56
L451.943 216
L452.73 216
L453.123 200.291
L453.516 200.291
L453.91 216
L454.696 216
L455.089 235.2
L456.662 235.2
L457.449 196.8
L458.235 196.8
L459.022 129.6
L459.415 129.6
L459.808 158.4
L461.381 158.4
L461.774 129.6
L463.347 129.6
L463.74 141.943
L464.134 141.943
L464.527 129.6
L465.313 129.6
L465.707 158.4
L466.886 158.4
L467.279 129.6
L467.673 129.6
L468.066 158.4
L469.246 158.4
L469.639 181.44
L470.032 181.44
L470.425 168.873
L471.212 168.873
L471.605 181.44
L471.998 181.44
L472.392 168.873
L473.571 168.873
L473.964 187.2
L474.358 187.2
L474.751 176.123
L475.931 176.123
L476.324 166.629
L476.717 166.629
L477.11 176.123
L478.29 176.123
L478.683 187.2
L479.077 176.123
L479.47 176.123
L479.863 158.4
L482.616 158.4
L483.009 176.123
L483.795 176.123
L484.582 200.291
L485.368 200.291
L485.762 181.44
L486.155 181.44
L486.548 168.873
L487.728 168.873
L488.121 146.88
L489.301 146.88
L489.694 120
L490.087 120
L490.48 129.6
L490.874 120
L491.66 168.873
L492.447 196.8
L493.626 196.8
L494.019 172.8
L494.413 158.4
L495.986 158.4
L496.379 172.8
L497.165 146.88
L498.345 146.88
L498.738 168.873
L499.132 181.44
L499.525 181.44
L499.918 200.291
L502.671 200.291
L503.064 181.44
L503.457 181.44
L503.85 168.873
L504.637 168.873
L505.03 187.2
L505.423 176.123
L506.21 176.123
L506.603 187.2
L507.389 187.2
L507.783 176.123
L508.176 191.314
L509.356 191.314
L509.749 181.44
L511.715 181.44
L512.501 165.176
L513.288 165.176
L513.681 158.4
L514.074 158.4
L514.861 172.8
L515.254 185.506
L516.041 185.506
L516.827 205.835
L517.22 216
L518.4 216
L518.4 216" style="fill:none;stroke:#ff0000;stroke-linecap:square;"/>
   </g>
   <g id="patch_9">
    <path d="
M315.491 43.2
L518.4 43.2" style="fill:none;stroke:#000000;stroke-linecap:square;stroke-linejoin:miter;"/>
   </g>
   <g id="patch_10">
    <path d="
M518.4 388.8
L518.4 43.2" style="fill:none;stroke:#000000;stroke-linecap:square;stroke-linejoin:miter;"/>
   </g>
   <g id="patch_11">
    <path d="
M315.491 388.8
L518.4 388.8" style="fill:none;stroke:#000000;stroke-linecap:square;stroke-linejoin:miter;"/>
   </g>
   <g id="patch_12">
    <path d="
M315.491 388.8
L315.491 43.2" style="fill:none;stroke:#000000;stroke-linecap:square;stroke-linejoin:miter;"/>
   </g>
   <g id="matplotlib.axis_3">
    <g id="xtick_9">
     <g id="text_20">
      <!-- 0 -->
      <g transform="translate(312.074236919 401.918125)scale(0.12 -0.12)">
       <use xlink:href="#BitstreamVeraSans-Roman-30"/>
      </g>
     </g>
    </g>
    <g id="xtick_10">
     <g id="line2d_35">
      <g>
       <use style="stroke:#000000;stroke-width:0.5;" x="354.421141649" xlink:href="#m93b0483c22" y="388.8"/>
      </g>
     </g>
     <g id="line2d_36">
      <g>
       <use style="stroke:#000000;stroke-width:0.5;" x="354.421141649" xlink:href="#m741efc42ff" y="43.2"/>
      </g>
     </g>
     <g id="text_21">
      <!-- 100 -->
      <g transform="translate(344.026141649 401.918125)scale(0.12 -0.12)">
       <use xlink:href="#BitstreamVeraSans-Roman-31"/>
       <use x="63.623046875" xlink:href="#BitstreamVeraSans-Roman-30"/>
       <use x="127.24609375" xlink:href="#BitstreamVeraSans-Roman-30"/>
      </g>
     </g>
    </g>
    <g id="xtick_11">
     <g id="line2d_37">
      <g>
       <use style="stroke:#000000;stroke-width:0.5;" x="393.744608879" xlink:href="#m93b0483c22" y="388.8"/>
      </g>
     </g>
     <g id="line2d_38">
      <g>
       <use style="stroke:#000000;stroke-width:0.5;" x="393.744608879" xlink:href="#m741efc42ff" y="43.2"/>
      </g>
     </g>
     <g id="text_22">
      <!-- 200 -->
      <g transform="translate(383.130233879 401.918125)scale(0.12 -0.12)">
       <use xlink:href="#BitstreamVeraSans-Roman-32"/>
       <use x="63.623046875" xlink:href="#BitstreamVeraSans-Roman-30"/>
       <use x="127.24609375" xlink:href="#BitstreamVeraSans-Roman-30"/>
      </g>
     </g>
    </g>
    <g id="xtick_12">
     <g id="line2d_39">
      <g>
       <use style="stroke:#000000;stroke-width:0.5;" x="433.06807611" xlink:href="#m93b0483c22" y="388.8"/>
      </g>
     </g>
     <g id="line2d_40">
      <g>
       <use style="stroke:#000000;stroke-width:0.5;" x="433.06807611" xlink:href="#m741efc42ff" y="43.2"/>
      </g>
     </g>
     <g id="text_23">
      <!-- 300 -->
      <g transform="translate(422.47151361 401.918125)scale(0.12 -0.12)">
       <use xlink:href="#BitstreamVeraSans-Roman-33"/>
       <use x="63.623046875" xlink:href="#BitstreamVeraSans-Roman-30"/>
       <use x="127.24609375" xlink:href="#BitstreamVeraSans-Roman-30"/>
      </g>
     </g>
    </g>
    <g id="xtick_13">
     <g id="line2d_41">
      <g>
       <use style="stroke:#000000;stroke-width:0.5;" x="472.39154334" xlink:href="#m93b0483c22" y="388.8"/>
      </g>
     </g>
     <g id="line2d_42">
      <g>
       <use style="stroke:#000000;stroke-width:0.5;" x="472.39154334" xlink:href="#m741efc42ff" y="43.2"/>
      </g>
     </g>
     <g id="text_24">
      <!-- 400 -->
      <g transform="translate(461.63091834 401.918125)scale(0.12 -0.12)">
       <use xlink:href="#BitstreamVeraSans-Roman-34"/>
       <use x="63.623046875" xlink:href="#BitstreamVeraSans-Roman-30"/>
       <use x="127.24609375" xlink:href="#BitstreamVeraSans-Roman-30"/>
      </g>
     </g>
    </g>
    <g id="xtick_14">
     <g id="line2d_43">
      <g>
       <use style="stroke:#000000;stroke-width:0.5;" x="511.715010571" xlink:href="#m93b0483c22" y="388.8"/>
      </g>
     </g>
     <g id="line2d_44">
      <g>
       <use style="stroke:#000000;stroke-width:0.5;" x="511.715010571" xlink:href="#m741efc42ff" y="43.2"/>
      </g>
     </g>
     <g id="text_25">
      <!-- 500 -->
      <g transform="translate(501.124073071 401.918125)scale(0.12 -0.12)">
       <use xlink:href="#BitstreamVeraSans-Roman-35"/>
       <use x="63.623046875" xlink:href="#BitstreamVeraSans-Roman-30"/>
       <use x="127.24609375" xlink:href="#BitstreamVeraSans-Roman-30"/>
      </g>
     </g>
    </g>
    <g id="text_26">
     <!-- Trials -->
     <g transform="translate(401.837642045 418.531875)scale(0.12 -0.12)">
      <use xlink:href="#BitstreamVeraSans-Roman-54"/>
      <use x="46.333984375" xlink:href="#BitstreamVeraSans-Roman-72"/>
      <use x="87.447265625" xlink:href="#BitstreamVeraSans-Roman-69"/>
      <use x="115.23046875" xlink:href="#BitstreamVeraSans-Roman-61"/>
      <use x="176.509765625" xlink:href="#BitstreamVeraSans-Roman-6c"/>
      <use x="204.29296875" xlink:href="#BitstreamVeraSans-Roman-73"/>
     </g>
    </g>
   </g>
   <g id="matplotlib.axis_4">
    <g id="ytick_7">
     <g id="line2d_45">
      <g>
       <use style="stroke:#000000;stroke-width:0.5;" x="315.490909091" xlink:href="#m728421d6d4" y="388.8"/>
      </g>
     </g>
     <g id="line2d_46">
      <g>
       <use style="stroke:#000000;stroke-width:0.5;" x="518.4" xlink:href="#mcb0005524f" y="388.8"/>
      </g>
     </g>
     <g id="text_27">
      <!-- 0.0 -->
      <g transform="translate(293.995284091 392.11125)scale(0.12 -0.12)">
       <use xlink:href="#BitstreamVeraSans-Roman-30"/>
       <use x="63.623046875" xlink:href="#BitstreamVeraSans-Roman-2e"/>
       <use x="95.41015625" xlink:href="#BitstreamVeraSans-Roman-30"/>
      </g>
     </g>
    </g>
    <g id="ytick_8">
     <g id="line2d_47">
      <g>
       <use style="stroke:#000000;stroke-width:0.5;" x="315.490909091" xlink:href="#m728421d6d4" y="319.68"/>
      </g>
     </g>
     <g id="line2d_48">
      <g>
       <use style="stroke:#000000;stroke-width:0.5;" x="518.4" xlink:href="#mcb0005524f" y="319.68"/>
      </g>
     </g>
     <g id="text_28">
      <!-- 0.2 -->
      <g transform="translate(294.400284091 322.99125)scale(0.12 -0.12)">
       <use xlink:href="#BitstreamVeraSans-Roman-30"/>
       <use x="63.623046875" xlink:href="#BitstreamVeraSans-Roman-2e"/>
       <use x="95.41015625" xlink:href="#BitstreamVeraSans-Roman-32"/>
      </g>
     </g>
    </g>
    <g id="ytick_9">
     <g id="line2d_49">
      <g>
       <use style="stroke:#000000;stroke-width:0.5;" x="315.490909091" xlink:href="#m728421d6d4" y="250.56"/>
      </g>
     </g>
     <g id="line2d_50">
      <g>
       <use style="stroke:#000000;stroke-width:0.5;" x="518.4" xlink:href="#mcb0005524f" y="250.56"/>
      </g>
     </g>
     <g id="text_29">
      <!-- 0.4 -->
      <g transform="translate(293.871534091 253.87125)scale(0.12 -0.12)">
       <use xlink:href="#BitstreamVeraSans-Roman-30"/>
       <use x="63.623046875" xlink:href="#BitstreamVeraSans-Roman-2e"/>
       <use x="95.41015625" xlink:href="#BitstreamVeraSans-Roman-34"/>
      </g>
     </g>
    </g>
    <g id="ytick_10">
     <g id="line2d_51">
      <g>
       <use style="stroke:#000000;stroke-width:0.5;" x="315.490909091" xlink:href="#m728421d6d4" y="181.44"/>
      </g>
     </g>
     <g id="line2d_52">
      <g>
       <use style="stroke:#000000;stroke-width:0.5;" x="518.4" xlink:href="#mcb0005524f" y="181.44"/>
      </g>
     </g>
     <g id="text_30">
      <!-- 0.6 -->
      <g transform="translate(293.954034091 184.75125)scale(0.12 -0.12)">
       <use xlink:href="#BitstreamVeraSans-Roman-30"/>
       <use x="63.623046875" xlink:href="#BitstreamVeraSans-Roman-2e"/>
       <use x="95.41015625" xlink:href="#BitstreamVeraSans-Roman-36"/>
      </g>
     </g>
    </g>
    <g id="ytick_11">
     <g id="line2d_53">
      <g>
       <use style="stroke:#000000;stroke-width:0.5;" x="315.490909091" xlink:href="#m728421d6d4" y="112.32"/>
      </g>
     </g>
     <g id="line2d_54">
      <g>
       <use style="stroke:#000000;stroke-width:0.5;" x="518.4" xlink:href="#mcb0005524f" y="112.32"/>
      </g>
     </g>
     <g id="text_31">
      <!-- 0.8 -->
      <g transform="translate(294.019659091 115.63125)scale(0.12 -0.12)">
       <use xlink:href="#BitstreamVeraSans-Roman-30"/>
       <use x="63.623046875" xlink:href="#BitstreamVeraSans-Roman-2e"/>
       <use x="95.41015625" xlink:href="#BitstreamVeraSans-Roman-38"/>
      </g>
     </g>
    </g>
    <g id="ytick_12">
     <g id="line2d_55">
      <g>
       <use style="stroke:#000000;stroke-width:0.5;" x="315.490909091" xlink:href="#m728421d6d4" y="43.2"/>
      </g>
     </g>
     <g id="line2d_56">
      <g>
       <use style="stroke:#000000;stroke-width:0.5;" x="518.4" xlink:href="#mcb0005524f" y="43.2"/>
      </g>
     </g>
     <g id="text_32">
      <!-- 1.0 -->
      <g transform="translate(294.522159091 46.51125)scale(0.12 -0.12)">
       <use xlink:href="#BitstreamVeraSans-Roman-31"/>
       <use x="63.623046875" xlink:href="#BitstreamVeraSans-Roman-2e"/>
       <use x="95.41015625" xlink:href="#BitstreamVeraSans-Roman-30"/>
      </g>
     </g>
    </g>
   </g>
   <g id="text_33">
    <!-- Free-Choice Trials -->
    <defs>
     <path d="
M9.8125 72.9062
L51.7031 72.9062
L51.7031 64.5938
L19.6719 64.5938
L19.6719 43.1094
L48.5781 43.1094
L48.5781 34.8125
L19.6719 34.8125
L19.6719 0
L9.8125 0
z
" id="BitstreamVeraSans-Roman-46"/>
     <path d="
M64.4062 67.2812
L64.4062 56.8906
Q59.4219 61.5312 53.7812 63.8125
Q48.1406 66.1094 41.7969 66.1094
Q29.2969 66.1094 22.6562 58.4688
Q16.0156 50.8281 16.0156 36.375
Q16.0156 21.9688 22.6562 14.3281
Q29.2969 6.6875 41.7969 6.6875
Q48.1406 6.6875 53.7812 8.98438
Q59.4219 11.2812 64.4062 15.9219
L64.4062 5.60938
Q59.2344 2.09375 53.4375 0.328125
Q47.6562 -1.42188 41.2188 -1.42188
Q24.6562 -1.42188 15.125 8.70312
Q5.60938 18.8438 5.60938 36.375
Q5.60938 53.9531 15.125 64.0781
Q24.6562 74.2188 41.2188 74.2188
Q47.75 74.2188 53.5312 72.4844
Q59.3281 70.75 64.4062 67.2812" id="BitstreamVeraSans-Roman-43"/>
     <path d="
M4.89062 31.3906
L31.2031 31.3906
L31.2031 23.3906
L4.89062 23.3906
z
" id="BitstreamVeraSans-Roman-2d"/>
    </defs>
    <g transform="translate(354.288579545 38.2)scale(0.144 -0.144)">
     <use xlink:href="#BitstreamVeraSans-Roman-46"/>
     <use x="50.26953125" xlink:href="#BitstreamVeraSans-Roman-72"/>
     <use x="89.1328125" xlink:href="#BitstreamVeraSans-Roman-65"/>
     <use x="150.65625" xlink:href="#BitstreamVeraSans-Roman-65"/>
     <use x="212.1796875" xlink:href="#BitstreamVeraSans-Roman-2d"/>
     <use x="248.263671875" xlink:href="#BitstreamVeraSans-Roman-43"/>
     <use x="318.087890625" xlink:href="#BitstreamVeraSans-Roman-68"/>
     <use x="381.466796875" xlink:href="#BitstreamVeraSans-Roman-6f"/>
     <use x="442.6484375" xlink:href="#BitstreamVeraSans-Roman-69"/>
     <use x="470.431640625" xlink:href="#BitstreamVeraSans-Roman-63"/>
     <use x="525.412109375" xlink:href="#BitstreamVeraSans-Roman-65"/>
     <use x="586.935546875" xlink:href="#BitstreamVeraSans-Roman-20"/>
     <use x="618.72265625" xlink:href="#BitstreamVeraSans-Roman-54"/>
     <use x="665.056640625" xlink:href="#BitstreamVeraSans-Roman-72"/>
     <use x="706.169921875" xlink:href="#BitstreamVeraSans-Roman-69"/>
     <use x="733.953125" xlink:href="#BitstreamVeraSans-Roman-61"/>
     <use x="795.232421875" xlink:href="#BitstreamVeraSans-Roman-6c"/>
     <use x="823.015625" xlink:href="#BitstreamVeraSans-Roman-73"/>
    </g>
   </g>
   <g id="legend_2">
    <g id="patch_13">
     <path d="
M430.495 96.993
L511.2 96.993
L511.2 50.4
L430.495 50.4
z
" style="fill:#ffffff;stroke:#000000;stroke-linejoin:miter;"/>
    </g>
    <g id="line2d_57">
     <path d="
M440.575 62.0617
L460.735 62.0617" style="fill:none;stroke:#0000ff;stroke-linecap:square;"/>
    </g>
    <g id="line2d_58"/>
    <g id="text_34">
     <!-- high -->
     <g transform="translate(476.57475 67.10175)scale(0.144 -0.144)">
      <use xlink:href="#BitstreamVeraSans-Roman-68"/>
      <use x="63.37890625" xlink:href="#BitstreamVeraSans-Roman-69"/>
      <use x="91.162109375" xlink:href="#BitstreamVeraSans-Roman-67"/>
      <use x="154.638671875" xlink:href="#BitstreamVeraSans-Roman-68"/>
     </g>
    </g>
    <g id="line2d_59">
     <path d="
M440.575 83.1982
L460.735 83.1982" style="fill:none;stroke:#ff0000;stroke-linecap:square;"/>
    </g>
    <g id="line2d_60"/>
    <g id="text_35">
     <!-- low -->
     <g transform="translate(476.57475 88.23825)scale(0.144 -0.144)">
      <use xlink:href="#BitstreamVeraSans-Roman-6c"/>
      <use x="27.783203125" xlink:href="#BitstreamVeraSans-Roman-6f"/>
      <use x="88.96484375" xlink:href="#BitstreamVeraSans-Roman-77"/>
     </g>
    </g>
   </g>
  </g>
 </g>
 <defs>
  <clipPath id="p346f55e68c">
   <rect height="345.6" width="202.909090909" x="72.0" y="43.2"/>
  </clipPath>
  <clipPath id="pc565ddf9d5">
   <rect height="345.6" width="202.909090909" x="315.490909091" y="43.2"/>
  </clipPath>
 </defs>
</svg>
