<?xml version="1.0" encoding="utf-8" standalone="no"?>
<!DOCTYPE svg PUBLIC "-//W3C//DTD SVG 1.1//EN"
  "http://www.w3.org/Graphics/SVG/1.1/DTD/svg11.dtd">
<!-- Created with matplotlib (http://matplotlib.org/) -->
<svg height="432pt" version="1.1" viewBox="0 0 576 432" width="576pt" xmlns="http://www.w3.org/2000/svg" xmlns:xlink="http://www.w3.org/1999/xlink">
 <defs>
  <style type="text/css">
*{stroke-linecap:butt;stroke-linejoin:round;}
  </style>
 </defs>
 <g id="figure_1">
  <g id="patch_1">
   <path d="
M0 432
L576 432
L576 0
L0 0
z
" style="fill:#ffffff;"/>
  </g>
  <g id="axes_1">
   <g id="patch_2">
    <path d="
M72 388.8
L274.909 388.8
L274.909 43.2
L72 43.2
z
" style="fill:#ffffff;"/>
   </g>
   <g id="line2d_1">
    <path clip-path="url(#p346f55e68c)" d="
M72 388.8
L72.2738 216
L72.5477 158.4
L72.8215 129.6
L73.0953 181.44
L73.643 141.943
L73.9168 172.8
L74.4645 146.88
L75.0121 129.6
L75.8336 112.32
L76.1075 108
L76.3813 124.518
L77.2028 112.32
L77.4766 109.029
L77.7505 121.745
L78.0243 118.33
L78.2981 129.6
L79.1196 120
L79.6673 138.538
L79.9411 135.36
L81.0364 165.176
L81.3103 171.566
L81.5841 168
L81.8579 173.968
L82.4056 167.262
L82.6794 172.8
L83.5009 163.758
L83.7748 168.873
L84.5962 160.851
L85.1439 170.155
L85.4177 167.616
L85.6916 167.616
L85.9654 160.704
L87.0607 160.704
L87.6084 174.528
L87.8822 174.528
L88.4299 188.352
L91.442 188.352
L91.7159 181.44
L91.9897 181.44
L92.2635 174.528
L92.8112 188.352
L93.085 188.352
L93.3589 181.44
L93.6327 181.44
L93.9065 188.352
L94.1803 188.352
L95.2757 160.704
L95.5495 160.704
L95.8233 153.792
L96.371 153.792
L96.6448 146.88
L96.9187 146.88
L97.1925 153.792
L98.2878 153.792
L98.5616 160.704
L98.8355 160.704
L99.1093 153.792
L99.3831 160.704
L99.657 153.792
L100.205 153.792
L100.478 160.704
L101.3 160.704
L101.848 146.88
L102.121 146.88
L102.395 139.968
L103.491 139.968
L104.038 153.792
L104.586 153.792
L104.86 160.704
L105.134 160.704
L105.955 181.44
L106.777 181.44
L107.324 195.264
L107.598 195.264
L108.146 181.44
L108.42 188.352
L108.693 188.352
L108.967 195.264
L109.241 195.264
L109.515 202.176
L110.336 202.176
L110.884 216
L111.432 216
L111.706 209.088
L112.527 209.088
L112.801 202.176
L113.075 209.088
L113.349 202.176
L113.622 209.088
L113.896 209.088
L114.17 216
L114.444 216
L114.718 222.912
L114.992 222.912
L115.265 216
L116.087 216
L116.635 229.824
L117.73 229.824
L118.004 222.912
L118.278 222.912
L118.551 229.824
L118.825 222.912
L119.099 222.912
L119.373 216
L120.468 216
L120.742 209.088
L121.016 209.088
L121.563 195.264
L122.111 195.264
L122.385 188.352
L123.754 188.352
L124.028 195.264
L124.302 195.264
L125.123 174.528
L125.397 181.44
L125.671 181.44
L125.945 188.352
L126.219 188.352
L126.492 181.44
L126.766 188.352
L127.314 188.352
L127.588 181.44
L127.862 181.44
L128.135 174.528
L128.409 174.528
L128.957 160.704
L129.231 167.616
L130.326 167.616
L130.6 160.704
L131.148 160.704
L131.421 167.616
L131.695 160.704
L132.243 160.704
L132.517 153.792
L132.791 153.792
L133.064 160.704
L133.338 160.704
L133.886 146.88
L134.16 146.88
L134.434 139.968
L136.077 139.968
L136.624 153.792
L136.898 153.792
L137.172 160.704
L137.446 153.792
L137.72 160.704
L137.993 153.792
L138.815 153.792
L139.089 160.704
L139.363 153.792
L139.91 153.792
L140.458 167.616
L141.006 167.616
L141.279 174.528
L141.827 174.528
L142.101 181.44
L142.375 174.528
L142.649 181.44
L143.196 181.44
L143.47 188.352
L143.744 188.352
L144.018 181.44
L144.291 181.44
L144.565 188.352
L145.387 188.352
L145.934 202.176
L146.208 195.264
L146.482 195.264
L146.756 202.176
L147.03 195.264
L147.851 195.264
L148.125 202.176
L148.399 202.176
L148.673 209.088
L148.947 202.176
L149.22 202.176
L149.494 209.088
L150.316 209.088
L151.137 188.352
L151.411 195.264
L151.685 188.352
L151.959 188.352
L152.233 195.264
L152.506 195.264
L152.78 202.176
L153.054 195.264
L153.876 195.264
L154.697 174.528
L154.971 174.528
L155.245 167.616
L155.519 167.616
L155.792 174.528
L156.066 167.616
L156.614 167.616
L156.888 174.528
L157.709 174.528
L157.983 181.44
L158.531 167.616
L159.078 167.616
L159.9 146.88
L160.448 146.88
L160.721 139.968
L161.269 139.968
L161.543 146.88
L161.817 146.88
L162.091 139.968
L162.364 146.88
L162.638 139.968
L163.186 139.968
L163.46 133.056
L164.007 133.056
L164.281 126.144
L165.377 126.144
L165.924 139.968
L166.472 139.968
L166.746 133.056
L167.02 133.056
L167.293 139.968
L168.115 139.968
L168.389 146.88
L168.936 146.88
L169.484 160.704
L169.758 153.792
L170.032 153.792
L170.305 160.704
L170.579 160.704
L171.401 139.968
L171.675 139.968
L171.948 133.056
L172.222 133.056
L172.496 139.968
L172.77 139.968
L173.591 160.704
L174.687 160.704
L174.961 167.616
L175.234 167.616
L175.508 160.704
L176.056 160.704
L176.33 153.792
L177.425 153.792
L177.699 160.704
L177.973 160.704
L178.247 167.616
L178.794 167.616
L179.068 174.528
L179.342 174.528
L179.89 160.704
L180.985 160.704
L181.259 153.792
L181.533 160.704
L181.806 153.792
L182.08 160.704
L182.354 160.704
L182.628 167.616
L183.449 146.88
L183.723 153.792
L183.997 153.792
L184.545 139.968
L185.366 139.968
L185.64 146.88
L186.188 146.88
L186.462 139.968
L186.735 139.968
L187.283 126.144
L188.926 126.144
L189.474 139.968
L190.021 139.968
L190.295 146.88
L190.569 146.88
L190.843 153.792
L191.117 153.792
L191.391 160.704
L191.938 160.704
L192.212 153.792
L192.76 167.616
L193.307 153.792
L193.855 153.792
L194.129 146.88
L194.403 146.88
L194.676 153.792
L196.319 153.792
L196.593 146.88
L197.141 146.88
L197.415 153.792
L197.689 146.88
L198.236 146.88
L198.784 160.704
L199.332 160.704
L199.605 153.792
L200.427 153.792
L200.975 167.616
L201.248 167.616
L201.522 160.704
L202.618 160.704
L202.891 153.792
L203.439 153.792
L203.713 160.704
L203.987 160.704
L204.261 153.792
L204.534 153.792
L204.808 146.88
L205.082 146.88
L205.63 133.056
L206.451 133.056
L206.725 126.144
L207.273 126.144
L208.094 146.88
L208.368 146.88
L208.642 139.968
L208.916 146.88
L209.19 146.88
L209.463 139.968
L209.737 139.968
L210.011 133.056
L211.106 133.056
L211.38 126.144
L211.928 126.144
L212.202 133.056
L212.749 119.232
L213.023 119.232
L213.845 139.968
L214.119 139.968
L214.392 146.88
L214.666 139.968
L214.94 139.968
L215.214 146.88
L215.488 146.88
L216.035 160.704
L216.309 160.704
L216.583 167.616
L216.857 167.616
L217.678 146.88
L218.774 146.88
L219.047 153.792
L219.595 153.792
L220.143 167.616
L220.417 160.704
L220.69 167.616
L221.512 167.616
L221.786 160.704
L222.607 160.704
L222.881 153.792
L223.155 153.792
L223.703 167.616
L223.976 167.616
L224.25 160.704
L224.524 167.616
L224.798 167.616
L225.346 181.44
L225.619 181.44
L225.893 188.352
L226.167 181.44
L226.441 181.44
L226.989 195.264
L227.262 188.352
L227.536 188.352
L227.81 181.44
L228.084 188.352
L228.358 181.44
L228.632 188.352
L228.905 188.352
L229.179 181.44
L229.727 181.44
L230.001 174.528
L230.275 181.44
L230.548 174.528
L230.822 181.44
L231.644 181.44
L232.465 202.176
L233.561 202.176
L234.108 188.352
L234.93 188.352
L235.204 195.264
L235.477 188.352
L235.751 188.352
L236.025 181.44
L236.299 181.44
L236.573 188.352
L237.394 188.352
L237.668 181.44
L238.49 181.44
L238.763 188.352
L239.311 174.528
L240.406 174.528
L240.954 160.704
L241.228 160.704
L241.502 153.792
L241.775 160.704
L242.049 153.792
L242.323 153.792
L242.597 146.88
L243.966 146.88
L244.24 139.968
L244.514 146.88
L244.788 139.968
L245.061 146.88
L245.883 146.88
L246.431 133.056
L246.704 133.056
L246.978 126.144
L247.252 133.056
L247.526 133.056
L248.074 146.88
L248.347 146.88
L248.621 139.968
L248.895 139.968
L249.169 133.056
L250.264 133.056
L250.538 126.144
L251.36 126.144
L251.633 133.056
L252.181 133.056
L252.729 119.232
L253.276 133.056
L254.372 133.056
L254.646 139.968
L256.289 139.968
L256.562 146.88
L257.384 146.88
L257.658 139.968
L258.205 139.968
L258.479 133.056
L258.753 133.056
L259.027 126.144
L259.301 126.144
L259.575 133.056
L259.848 126.144
L260.396 126.144
L260.944 139.968
L261.491 139.968
L261.765 133.056
L262.313 133.056
L262.587 139.968
L263.134 139.968
L263.682 153.792
L264.777 153.792
L265.051 160.704
L266.42 160.704
L266.694 167.616
L267.242 167.616
L267.516 174.528
L267.789 174.528
L268.063 181.44
L268.885 181.44
L269.159 188.352
L269.432 188.352
L269.706 181.44
L270.254 181.44
L270.802 167.616
L271.075 174.528
L271.349 174.528
L271.623 181.44
L272.171 181.44
L272.445 188.352
L272.718 188.352
L272.992 195.264
L273.266 195.264
L273.54 188.352
L274.361 188.352
L274.909 174.528
L274.909 174.528" style="fill:none;stroke:#0000ff;stroke-linecap:square;"/>
   </g>
   <g id="line2d_2">
    <path clip-path="url(#p346f55e68c)" d="
M72 43.2
L72.2738 216
L72.5477 273.6
L72.8215 302.4
L73.0953 250.56
L73.643 290.057
L73.9168 259.2
L74.4645 285.12
L75.0121 302.4
L75.8336 319.68
L76.1075 324
L76.3813 307.482
L77.2028 319.68
L77.4766 322.971
L77.7505 310.255
L78.0243 313.67
L78.2981 302.4
L79.1196 312
L79.6673 293.462
L79.9411 296.64
L81.0364 266.824
L81.3103 260.434
L81.5841 264
L81.8579 258.032
L82.4056 264.738
L82.6794 259.2
L83.5009 268.242
L83.7748 263.127
L84.5962 271.149
L85.1439 261.845
L85.4177 264.384
L85.6916 257.472
L85.9654 264.384
L87.0607 264.384
L87.6084 250.56
L87.8822 250.56
L88.4299 236.736
L91.442 236.736
L91.7159 243.648
L91.9897 243.648
L92.2635 250.56
L92.8112 236.736
L93.085 236.736
L93.3589 243.648
L93.6327 243.648
L93.9065 236.736
L94.1803 236.736
L95.2757 264.384
L95.5495 264.384
L95.8233 271.296
L96.371 271.296
L96.6448 278.208
L96.9187 278.208
L97.1925 271.296
L98.2878 271.296
L98.5616 264.384
L98.8355 264.384
L99.1093 271.296
L99.3831 264.384
L99.657 271.296
L100.205 271.296
L100.478 264.384
L101.3 264.384
L101.848 278.208
L102.121 278.208
L102.395 285.12
L103.491 285.12
L104.038 271.296
L104.586 271.296
L104.86 264.384
L105.134 264.384
L105.955 243.648
L106.777 243.648
L107.324 229.824
L107.598 229.824
L108.146 243.648
L108.42 236.736
L108.693 236.736
L108.967 229.824
L109.241 229.824
L109.515 222.912
L110.336 222.912
L110.884 209.088
L111.432 209.088
L111.706 216
L112.527 216
L112.801 222.912
L113.075 216
L113.349 222.912
L113.622 216
L113.896 216
L114.17 209.088
L114.444 209.088
L114.718 202.176
L114.992 202.176
L115.265 209.088
L116.087 209.088
L116.635 195.264
L117.73 195.264
L118.004 202.176
L118.278 202.176
L118.551 195.264
L118.825 202.176
L119.099 202.176
L119.373 209.088
L120.468 209.088
L120.742 216
L121.016 216
L121.563 229.824
L122.111 229.824
L122.385 236.736
L123.754 236.736
L124.028 229.824
L124.302 229.824
L125.123 250.56
L125.397 243.648
L125.671 243.648
L125.945 236.736
L126.219 236.736
L126.492 243.648
L126.766 236.736
L127.314 236.736
L127.588 243.648
L127.862 243.648
L128.135 250.56
L128.409 250.56
L128.957 264.384
L129.231 257.472
L130.326 257.472
L130.6 264.384
L131.148 264.384
L131.421 257.472
L131.695 264.384
L132.243 264.384
L132.517 271.296
L132.791 271.296
L133.064 264.384
L133.338 264.384
L133.886 278.208
L134.16 278.208
L134.434 285.12
L136.077 285.12
L136.624 271.296
L136.898 271.296
L137.172 264.384
L137.446 271.296
L137.72 264.384
L137.993 271.296
L138.815 271.296
L139.089 264.384
L139.363 271.296
L139.91 271.296
L140.458 257.472
L141.006 257.472
L141.279 250.56
L141.827 250.56
L142.101 243.648
L142.375 250.56
L142.649 243.648
L143.196 243.648
L143.47 236.736
L143.744 236.736
L144.018 243.648
L144.291 243.648
L144.565 236.736
L145.387 236.736
L145.934 222.912
L146.208 229.824
L146.482 229.824
L146.756 222.912
L147.03 229.824
L147.851 229.824
L148.125 222.912
L148.399 222.912
L148.673 216
L148.947 222.912
L149.22 222.912
L149.494 216
L150.316 216
L151.137 236.736
L151.411 229.824
L151.685 236.736
L151.959 236.736
L152.233 229.824
L152.506 229.824
L152.78 222.912
L153.054 229.824
L153.876 229.824
L154.697 250.56
L154.971 250.56
L155.245 257.472
L155.519 257.472
L155.792 250.56
L156.066 257.472
L156.614 257.472
L156.888 250.56
L157.709 250.56
L157.983 243.648
L158.531 257.472
L159.078 257.472
L159.9 278.208
L160.448 278.208
L160.721 285.12
L161.269 285.12
L161.543 278.208
L161.817 278.208
L162.091 285.12
L162.364 278.208
L162.638 285.12
L163.186 285.12
L163.46 292.032
L164.007 292.032
L164.281 298.944
L165.377 298.944
L165.924 285.12
L166.472 285.12
L166.746 292.032
L167.02 292.032
L167.293 285.12
L168.115 285.12
L168.389 278.208
L168.936 278.208
L169.484 264.384
L169.758 271.296
L170.032 271.296
L170.305 264.384
L170.579 264.384
L171.401 285.12
L171.675 285.12
L171.948 292.032
L172.222 292.032
L172.496 285.12
L172.77 285.12
L173.591 264.384
L174.687 264.384
L174.961 257.472
L175.234 257.472
L175.508 264.384
L176.056 264.384
L176.33 271.296
L177.425 271.296
L177.699 264.384
L177.973 264.384
L178.247 257.472
L178.794 257.472
L179.068 250.56
L179.342 250.56
L179.89 264.384
L180.985 264.384
L181.259 271.296
L181.533 264.384
L181.806 271.296
L182.08 264.384
L182.354 264.384
L182.628 257.472
L183.449 278.208
L183.723 271.296
L183.997 271.296
L184.545 285.12
L185.366 285.12
L185.64 278.208
L186.188 278.208
L186.462 285.12
L186.735 285.12
L187.283 298.944
L188.926 298.944
L189.474 285.12
L190.021 285.12
L190.295 278.208
L190.569 278.208
L190.843 271.296
L191.117 271.296
L191.391 264.384
L191.938 264.384
L192.212 271.296
L192.76 257.472
L193.307 271.296
L193.855 271.296
L194.129 278.208
L194.403 278.208
L194.676 271.296
L196.319 271.296
L196.593 278.208
L197.141 278.208
L197.415 271.296
L197.689 278.208
L198.236 278.208
L198.784 264.384
L199.332 264.384
L199.605 271.296
L200.427 271.296
L200.975 257.472
L201.248 257.472
L201.522 264.384
L202.618 264.384
L202.891 271.296
L203.439 271.296
L203.713 264.384
L203.987 264.384
L204.261 271.296
L204.534 271.296
L204.808 278.208
L205.082 278.208
L205.63 292.032
L206.451 292.032
L206.725 298.944
L207.273 298.944
L208.094 278.208
L208.368 278.208
L208.642 285.12
L208.916 278.208
L209.19 278.208
L209.463 285.12
L209.737 285.12
L210.011 292.032
L211.106 292.032
L211.38 298.944
L211.928 298.944
L212.202 292.032
L212.749 305.856
L213.023 305.856
L213.845 285.12
L214.119 285.12
L214.392 278.208
L214.666 285.12
L214.94 285.12
L215.214 278.208
L215.488 278.208
L216.035 264.384
L216.309 264.384
L216.583 257.472
L216.857 257.472
L217.678 278.208
L218.774 278.208
L219.047 271.296
L219.595 271.296
L220.143 257.472
L220.417 264.384
L220.69 257.472
L221.512 257.472
L221.786 264.384
L222.607 264.384
L222.881 271.296
L223.155 271.296
L223.703 257.472
L223.976 257.472
L224.25 264.384
L224.524 257.472
L224.798 257.472
L225.346 243.648
L225.619 243.648
L225.893 236.736
L226.167 243.648
L226.441 243.648
L226.989 229.824
L227.262 236.736
L227.536 236.736
L227.81 243.648
L228.084 236.736
L228.358 243.648
L228.632 236.736
L228.905 236.736
L229.179 243.648
L229.727 243.648
L230.001 250.56
L230.275 243.648
L230.548 250.56
L230.822 243.648
L231.644 243.648
L232.465 222.912
L233.561 222.912
L234.108 236.736
L234.93 236.736
L235.204 229.824
L235.477 236.736
L235.751 236.736
L236.025 243.648
L236.299 243.648
L236.573 236.736
L237.394 236.736
L237.668 243.648
L238.49 243.648
L238.763 236.736
L239.311 250.56
L240.406 250.56
L240.954 264.384
L241.228 264.384
L241.502 271.296
L241.775 264.384
L242.049 271.296
L242.323 271.296
L242.597 278.208
L243.966 278.208
L244.24 285.12
L244.514 278.208
L244.788 285.12
L245.061 278.208
L245.883 278.208
L246.431 292.032
L246.704 292.032
L246.978 298.944
L247.252 292.032
L247.526 292.032
L248.074 278.208
L248.347 278.208
L248.621 285.12
L248.895 285.12
L249.169 292.032
L250.264 292.032
L250.538 298.944
L251.36 298.944
L251.633 292.032
L252.181 292.032
L252.729 305.856
L253.276 292.032
L254.372 292.032
L254.646 285.12
L256.289 285.12
L256.562 278.208
L257.384 278.208
L257.658 285.12
L258.205 285.12
L258.479 292.032
L258.753 292.032
L259.027 298.944
L259.301 298.944
L259.575 292.032
L259.848 298.944
L260.396 298.944
L260.944 285.12
L261.491 285.12
L261.765 292.032
L262.313 292.032
L262.587 285.12
L263.134 285.12
L263.682 271.296
L264.777 271.296
L265.051 264.384
L266.42 264.384
L266.694 257.472
L267.242 257.472
L267.516 250.56
L267.789 250.56
L268.063 243.648
L268.885 243.648
L269.159 236.736
L269.432 236.736
L269.706 243.648
L270.254 243.648
L270.802 257.472
L271.075 250.56
L271.349 250.56
L271.623 243.648
L272.171 243.648
L272.445 236.736
L272.718 236.736
L272.992 229.824
L273.266 229.824
L273.54 236.736
L274.361 236.736
L274.909 250.56
L274.909 250.56" style="fill:none;stroke:#ff0000;stroke-linecap:square;"/>
   </g>
   <g id="patch_3">
    <path d="
M72 43.2
L274.909 43.2" style="fill:none;stroke:#000000;stroke-linecap:square;stroke-linejoin:miter;"/>
   </g>
   <g id="patch_4">
    <path d="
M274.909 388.8
L274.909 43.2" style="fill:none;stroke:#000000;stroke-linecap:square;stroke-linejoin:miter;"/>
   </g>
   <g id="patch_5">
    <path d="
M72 388.8
L274.909 388.8" style="fill:none;stroke:#000000;stroke-linecap:square;stroke-linejoin:miter;"/>
   </g>
   <g id="patch_6">
    <path d="
M72 388.8
L72 43.2" style="fill:none;stroke:#000000;stroke-linecap:square;stroke-linejoin:miter;"/>
   </g>
   <g id="matplotlib.axis_1">
    <g id="xtick_1">
     <g id="text_1">
      <!-- 0 -->
      <defs>
       <path d="
M31.7812 66.4062
Q24.1719 66.4062 20.3281 58.9062
Q16.5 51.4219 16.5 36.375
Q16.5 21.3906 20.3281 13.8906
Q24.1719 6.39062 31.7812 6.39062
Q39.4531 6.39062 43.2812 13.8906
Q47.125 21.3906 47.125 36.375
Q47.125 51.4219 43.2812 58.9062
Q39.4531 66.4062 31.7812 66.4062
M31.7812 74.2188
Q44.0469 74.2188 50.5156 64.5156
Q56.9844 54.8281 56.9844 36.375
Q56.9844 17.9688 50.5156 8.26562
Q44.0469 -1.42188 31.7812 -1.42188
Q19.5312 -1.42188 13.0625 8.26562
Q6.59375 17.9688 6.59375 36.375
Q6.59375 54.8281 13.0625 64.5156
Q19.5312 74.2188 31.7812 74.2188" id="BitstreamVeraSans-Roman-30"/>
      </defs>
      <g transform="translate(68.7027310683 401.918125)scale(0.12 -0.12)">
       <use xlink:href="#BitstreamVeraSans-Roman-30"/>
      </g>
     </g>
    </g>
    <g id="xtick_2">
     <g id="line2d_3">
      <defs>
       <path d="
M0 0
L0 -4" id="m93b0483c22" style="stroke:#000000;stroke-width:0.5;"/>
      </defs>
      <g>
       <use style="stroke:#000000;stroke-width:0.5;" x="99.1093117409" xlink:href="#m93b0483c22" y="388.8"/>
      </g>
     </g>
     <g id="line2d_4">
      <defs>
       <path d="
M0 0
L0 4" id="m741efc42ff" style="stroke:#000000;stroke-width:0.5;"/>
      </defs>
      <g>
       <use style="stroke:#000000;stroke-width:0.5;" x="99.1093117409" xlink:href="#m741efc42ff" y="43.2"/>
      </g>
     </g>
     <g id="text_2">
      <!-- 100 -->
      <defs>
       <path d="
M12.4062 8.29688
L28.5156 8.29688
L28.5156 63.9219
L10.9844 60.4062
L10.9844 69.3906
L28.4219 72.9062
L38.2812 72.9062
L38.2812 8.29688
L54.3906 8.29688
L54.3906 0
L12.4062 0
z
" id="BitstreamVeraSans-Roman-31"/>
      </defs>
      <g transform="translate(88.7143117409 401.918125)scale(0.12 -0.12)">
       <use xlink:href="#BitstreamVeraSans-Roman-31"/>
       <use x="63.623046875" xlink:href="#BitstreamVeraSans-Roman-30"/>
       <use x="127.24609375" xlink:href="#BitstreamVeraSans-Roman-30"/>
      </g>
     </g>
    </g>
    <g id="xtick_3">
     <g id="line2d_5">
      <g>
       <use style="stroke:#000000;stroke-width:0.5;" x="126.492454914" xlink:href="#m93b0483c22" y="388.8"/>
      </g>
     </g>
     <g id="line2d_6">
      <g>
       <use style="stroke:#000000;stroke-width:0.5;" x="126.492454914" xlink:href="#m741efc42ff" y="43.2"/>
      </g>
     </g>
     <g id="text_3">
      <!-- 200 -->
      <defs>
       <path d="
M19.1875 8.29688
L53.6094 8.29688
L53.6094 0
L7.32812 0
L7.32812 8.29688
Q12.9375 14.1094 22.625 23.8906
Q32.3281 33.6875 34.8125 36.5312
Q39.5469 41.8438 41.4219 45.5312
Q43.3125 49.2188 43.3125 52.7812
Q43.3125 58.5938 39.2344 62.25
Q35.1562 65.9219 28.6094 65.9219
Q23.9688 65.9219 18.8125 64.3125
Q13.6719 62.7031 7.8125 59.4219
L7.8125 69.3906
Q13.7656 71.7812 18.9375 73
Q24.125 74.2188 28.4219 74.2188
Q39.75 74.2188 46.4844 68.5469
Q53.2188 62.8906 53.2188 53.4219
Q53.2188 48.9219 51.5312 44.8906
Q49.8594 40.875 45.4062 35.4062
Q44.1875 33.9844 37.6406 27.2188
Q31.1094 20.4531 19.1875 8.29688" id="BitstreamVeraSans-Roman-32"/>
      </defs>
      <g transform="translate(115.878079914 401.918125)scale(0.12 -0.12)">
       <use xlink:href="#BitstreamVeraSans-Roman-32"/>
       <use x="63.623046875" xlink:href="#BitstreamVeraSans-Roman-30"/>
       <use x="127.24609375" xlink:href="#BitstreamVeraSans-Roman-30"/>
      </g>
     </g>
    </g>
    <g id="xtick_4">
     <g id="line2d_7">
      <g>
       <use style="stroke:#000000;stroke-width:0.5;" x="153.875598086" xlink:href="#m93b0483c22" y="388.8"/>
      </g>
     </g>
     <g id="line2d_8">
      <g>
       <use style="stroke:#000000;stroke-width:0.5;" x="153.875598086" xlink:href="#m741efc42ff" y="43.2"/>
      </g>
     </g>
     <g id="text_4">
      <!-- 300 -->
      <defs>
       <path d="
M40.5781 39.3125
Q47.6562 37.7969 51.625 33
Q55.6094 28.2188 55.6094 21.1875
Q55.6094 10.4062 48.1875 4.48438
Q40.7656 -1.42188 27.0938 -1.42188
Q22.5156 -1.42188 17.6562 -0.515625
Q12.7969 0.390625 7.625 2.20312
L7.625 11.7188
Q11.7188 9.32812 16.5938 8.10938
Q21.4844 6.89062 26.8125 6.89062
Q36.0781 6.89062 40.9375 10.5469
Q45.7969 14.2031 45.7969 21.1875
Q45.7969 27.6406 41.2812 31.2656
Q36.7656 34.9062 28.7188 34.9062
L20.2188 34.9062
L20.2188 43.0156
L29.1094 43.0156
Q36.375 43.0156 40.2344 45.9219
Q44.0938 48.8281 44.0938 54.2969
Q44.0938 59.9062 40.1094 62.9062
Q36.1406 65.9219 28.7188 65.9219
Q24.6562 65.9219 20.0156 65.0312
Q15.375 64.1562 9.8125 62.3125
L9.8125 71.0938
Q15.4375 72.6562 20.3438 73.4375
Q25.25 74.2188 29.5938 74.2188
Q40.8281 74.2188 47.3594 69.1094
Q53.9062 64.0156 53.9062 55.3281
Q53.9062 49.2656 50.4375 45.0938
Q46.9688 40.9219 40.5781 39.3125" id="BitstreamVeraSans-Roman-33"/>
      </defs>
      <g transform="translate(143.279035586 401.918125)scale(0.12 -0.12)">
       <use xlink:href="#BitstreamVeraSans-Roman-33"/>
       <use x="63.623046875" xlink:href="#BitstreamVeraSans-Roman-30"/>
       <use x="127.24609375" xlink:href="#BitstreamVeraSans-Roman-30"/>
      </g>
     </g>
    </g>
    <g id="xtick_5">
     <g id="line2d_9">
      <g>
       <use style="stroke:#000000;stroke-width:0.5;" x="181.258741259" xlink:href="#m93b0483c22" y="388.8"/>
      </g>
     </g>
     <g id="line2d_10">
      <g>
       <use style="stroke:#000000;stroke-width:0.5;" x="181.258741259" xlink:href="#m741efc42ff" y="43.2"/>
      </g>
     </g>
     <g id="text_5">
      <!-- 400 -->
      <defs>
       <path d="
M37.7969 64.3125
L12.8906 25.3906
L37.7969 25.3906
z

M35.2031 72.9062
L47.6094 72.9062
L47.6094 25.3906
L58.0156 25.3906
L58.0156 17.1875
L47.6094 17.1875
L47.6094 0
L37.7969 0
L37.7969 17.1875
L4.89062 17.1875
L4.89062 26.7031
z
" id="BitstreamVeraSans-Roman-34"/>
      </defs>
      <g transform="translate(170.498116259 401.918125)scale(0.12 -0.12)">
       <use xlink:href="#BitstreamVeraSans-Roman-34"/>
       <use x="63.623046875" xlink:href="#BitstreamVeraSans-Roman-30"/>
       <use x="127.24609375" xlink:href="#BitstreamVeraSans-Roman-30"/>
      </g>
     </g>
    </g>
    <g id="xtick_6">
     <g id="line2d_11">
      <g>
       <use style="stroke:#000000;stroke-width:0.5;" x="208.641884431" xlink:href="#m93b0483c22" y="388.8"/>
      </g>
     </g>
     <g id="line2d_12">
      <g>
       <use style="stroke:#000000;stroke-width:0.5;" x="208.641884431" xlink:href="#m741efc42ff" y="43.2"/>
      </g>
     </g>
     <g id="text_6">
      <!-- 500 -->
      <defs>
       <path d="
M10.7969 72.9062
L49.5156 72.9062
L49.5156 64.5938
L19.8281 64.5938
L19.8281 46.7344
Q21.9688 47.4688 24.1094 47.8281
Q26.2656 48.1875 28.4219 48.1875
Q40.625 48.1875 47.75 41.5
Q54.8906 34.8125 54.8906 23.3906
Q54.8906 11.625 47.5625 5.09375
Q40.2344 -1.42188 26.9062 -1.42188
Q22.3125 -1.42188 17.5469 -0.640625
Q12.7969 0.140625 7.71875 1.70312
L7.71875 11.625
Q12.1094 9.23438 16.7969 8.0625
Q21.4844 6.89062 26.7031 6.89062
Q35.1562 6.89062 40.0781 11.3281
Q45.0156 15.7656 45.0156 23.3906
Q45.0156 31 40.0781 35.4375
Q35.1562 39.8906 26.7031 39.8906
Q22.75 39.8906 18.8125 39.0156
Q14.8906 38.1406 10.7969 36.2812
z
" id="BitstreamVeraSans-Roman-35"/>
      </defs>
      <g transform="translate(198.050946931 401.918125)scale(0.12 -0.12)">
       <use xlink:href="#BitstreamVeraSans-Roman-35"/>
       <use x="63.623046875" xlink:href="#BitstreamVeraSans-Roman-30"/>
       <use x="127.24609375" xlink:href="#BitstreamVeraSans-Roman-30"/>
      </g>
     </g>
    </g>
    <g id="xtick_7">
     <g id="line2d_13">
      <g>
       <use style="stroke:#000000;stroke-width:0.5;" x="236.025027604" xlink:href="#m93b0483c22" y="388.8"/>
      </g>
     </g>
     <g id="line2d_14">
      <g>
       <use style="stroke:#000000;stroke-width:0.5;" x="236.025027604" xlink:href="#m741efc42ff" y="43.2"/>
      </g>
     </g>
     <g id="text_7">
      <!-- 600 -->
      <defs>
       <path d="
M33.0156 40.375
Q26.375 40.375 22.4844 35.8281
Q18.6094 31.2969 18.6094 23.3906
Q18.6094 15.5312 22.4844 10.9531
Q26.375 6.39062 33.0156 6.39062
Q39.6562 6.39062 43.5312 10.9531
Q47.4062 15.5312 47.4062 23.3906
Q47.4062 31.2969 43.5312 35.8281
Q39.6562 40.375 33.0156 40.375
M52.5938 71.2969
L52.5938 62.3125
Q48.875 64.0625 45.0938 64.9844
Q41.3125 65.9219 37.5938 65.9219
Q27.8281 65.9219 22.6719 59.3281
Q17.5312 52.7344 16.7969 39.4062
Q19.6719 43.6562 24.0156 45.9219
Q28.375 48.1875 33.5938 48.1875
Q44.5781 48.1875 50.9531 41.5156
Q57.3281 34.8594 57.3281 23.3906
Q57.3281 12.1562 50.6875 5.35938
Q44.0469 -1.42188 33.0156 -1.42188
Q20.3594 -1.42188 13.6719 8.26562
Q6.98438 17.9688 6.98438 36.375
Q6.98438 53.6562 15.1875 63.9375
Q23.3906 74.2188 37.2031 74.2188
Q40.9219 74.2188 44.7031 73.4844
Q48.4844 72.75 52.5938 71.2969" id="BitstreamVeraSans-Roman-36"/>
      </defs>
      <g transform="translate(225.390027604 401.918125)scale(0.12 -0.12)">
       <use xlink:href="#BitstreamVeraSans-Roman-36"/>
       <use x="63.623046875" xlink:href="#BitstreamVeraSans-Roman-30"/>
       <use x="127.24609375" xlink:href="#BitstreamVeraSans-Roman-30"/>
      </g>
     </g>
    </g>
    <g id="xtick_8">
     <g id="line2d_15">
      <g>
       <use style="stroke:#000000;stroke-width:0.5;" x="263.408170777" xlink:href="#m93b0483c22" y="388.8"/>
      </g>
     </g>
     <g id="line2d_16">
      <g>
       <use style="stroke:#000000;stroke-width:0.5;" x="263.408170777" xlink:href="#m741efc42ff" y="43.2"/>
      </g>
     </g>
     <g id="text_8">
      <!-- 700 -->
      <defs>
       <path d="
M8.20312 72.9062
L55.0781 72.9062
L55.0781 68.7031
L28.6094 0
L18.3125 0
L43.2188 64.5938
L8.20312 64.5938
z
" id="BitstreamVeraSans-Roman-37"/>
      </defs>
      <g transform="translate(252.846295777 401.918125)scale(0.12 -0.12)">
       <use xlink:href="#BitstreamVeraSans-Roman-37"/>
       <use x="63.623046875" xlink:href="#BitstreamVeraSans-Roman-30"/>
       <use x="127.24609375" xlink:href="#BitstreamVeraSans-Roman-30"/>
      </g>
     </g>
    </g>
    <g id="text_9">
     <!-- Trials -->
     <defs>
      <path d="
M34.2812 27.4844
Q23.3906 27.4844 19.1875 25
Q14.9844 22.5156 14.9844 16.5
Q14.9844 11.7188 18.1406 8.90625
Q21.2969 6.10938 26.7031 6.10938
Q34.1875 6.10938 38.7031 11.4062
Q43.2188 16.7031 43.2188 25.4844
L43.2188 27.4844
z

M52.2031 31.2031
L52.2031 0
L43.2188 0
L43.2188 8.29688
Q40.1406 3.32812 35.5469 0.953125
Q30.9531 -1.42188 24.3125 -1.42188
Q15.9219 -1.42188 10.9531 3.29688
Q6 8.01562 6 15.9219
Q6 25.1406 12.1719 29.8281
Q18.3594 34.5156 30.6094 34.5156
L43.2188 34.5156
L43.2188 35.4062
Q43.2188 41.6094 39.1406 45
Q35.0625 48.3906 27.6875 48.3906
Q23 48.3906 18.5469 47.2656
Q14.1094 46.1406 10.0156 43.8906
L10.0156 52.2031
Q14.9375 54.1094 19.5781 55.0469
Q24.2188 56 28.6094 56
Q40.4844 56 46.3438 49.8438
Q52.2031 43.7031 52.2031 31.2031" id="BitstreamVeraSans-Roman-61"/>
      <path d="
M9.42188 75.9844
L18.4062 75.9844
L18.4062 0
L9.42188 0
z
" id="BitstreamVeraSans-Roman-6c"/>
      <path d="
M9.42188 54.6875
L18.4062 54.6875
L18.4062 0
L9.42188 0
z

M9.42188 75.9844
L18.4062 75.9844
L18.4062 64.5938
L9.42188 64.5938
z
" id="BitstreamVeraSans-Roman-69"/>
      <path d="
M-0.296875 72.9062
L61.375 72.9062
L61.375 64.5938
L35.5 64.5938
L35.5 0
L25.5938 0
L25.5938 64.5938
L-0.296875 64.5938
z
" id="BitstreamVeraSans-Roman-54"/>
      <path d="
M41.1094 46.2969
Q39.5938 47.1719 37.8125 47.5781
Q36.0312 48 33.8906 48
Q26.2656 48 22.1875 43.0469
Q18.1094 38.0938 18.1094 28.8125
L18.1094 0
L9.07812 0
L9.07812 54.6875
L18.1094 54.6875
L18.1094 46.1875
Q20.9531 51.1719 25.4844 53.5781
Q30.0312 56 36.5312 56
Q37.4531 56 38.5781 55.875
Q39.7031 55.7656 41.0625 55.5156
z
" id="BitstreamVeraSans-Roman-72"/>
      <path d="
M44.2812 53.0781
L44.2812 44.5781
Q40.4844 46.5312 36.375 47.5
Q32.2812 48.4844 27.875 48.4844
Q21.1875 48.4844 17.8438 46.4375
Q14.5 44.3906 14.5 40.2812
Q14.5 37.1562 16.8906 35.375
Q19.2812 33.5938 26.5156 31.9844
L29.5938 31.2969
Q39.1562 29.25 43.1875 25.5156
Q47.2188 21.7812 47.2188 15.0938
Q47.2188 7.46875 41.1875 3.01562
Q35.1562 -1.42188 24.6094 -1.42188
Q20.2188 -1.42188 15.4531 -0.5625
Q10.6875 0.296875 5.42188 2
L5.42188 11.2812
Q10.4062 8.6875 15.2344 7.39062
Q20.0625 6.10938 24.8125 6.10938
Q31.1562 6.10938 34.5625 8.28125
Q37.9844 10.4531 37.9844 14.4062
Q37.9844 18.0625 35.5156 20.0156
Q33.0625 21.9688 24.7031 23.7812
L21.5781 24.5156
Q13.2344 26.2656 9.51562 29.9062
Q5.8125 33.5469 5.8125 39.8906
Q5.8125 47.6094 11.2812 51.7969
Q16.75 56 26.8125 56
Q31.7812 56 36.1719 55.2656
Q40.5781 54.5469 44.2812 53.0781" id="BitstreamVeraSans-Roman-73"/>
     </defs>
     <g transform="translate(158.346732955 418.531875)scale(0.12 -0.12)">
      <use xlink:href="#BitstreamVeraSans-Roman-54"/>
      <use x="46.333984375" xlink:href="#BitstreamVeraSans-Roman-72"/>
      <use x="87.447265625" xlink:href="#BitstreamVeraSans-Roman-69"/>
      <use x="115.23046875" xlink:href="#BitstreamVeraSans-Roman-61"/>
      <use x="176.509765625" xlink:href="#BitstreamVeraSans-Roman-6c"/>
      <use x="204.29296875" xlink:href="#BitstreamVeraSans-Roman-73"/>
     </g>
    </g>
   </g>
   <g id="matplotlib.axis_2">
    <g id="ytick_1">
     <g id="line2d_17">
      <defs>
       <path d="
M0 0
L4 0" id="m728421d6d4" style="stroke:#000000;stroke-width:0.5;"/>
      </defs>
      <g>
       <use style="stroke:#000000;stroke-width:0.5;" x="72.0" xlink:href="#m728421d6d4" y="388.8"/>
      </g>
     </g>
     <g id="line2d_18">
      <defs>
       <path d="
M0 0
L-4 0" id="mcb0005524f" style="stroke:#000000;stroke-width:0.5;"/>
      </defs>
      <g>
       <use style="stroke:#000000;stroke-width:0.5;" x="274.909090909" xlink:href="#mcb0005524f" y="388.8"/>
      </g>
     </g>
     <g id="text_10">
      <!-- 0.0 -->
      <defs>
       <path d="
M10.6875 12.4062
L21 12.4062
L21 0
L10.6875 0
z
" id="BitstreamVeraSans-Roman-2e"/>
      </defs>
      <g transform="translate(50.504375 392.11125)scale(0.12 -0.12)">
       <use xlink:href="#BitstreamVeraSans-Roman-30"/>
       <use x="63.623046875" xlink:href="#BitstreamVeraSans-Roman-2e"/>
       <use x="95.41015625" xlink:href="#BitstreamVeraSans-Roman-30"/>
      </g>
     </g>
    </g>
    <g id="ytick_2">
     <g id="line2d_19">
      <g>
       <use style="stroke:#000000;stroke-width:0.5;" x="72.0" xlink:href="#m728421d6d4" y="319.68"/>
      </g>
     </g>
     <g id="line2d_20">
      <g>
       <use style="stroke:#000000;stroke-width:0.5;" x="274.909090909" xlink:href="#mcb0005524f" y="319.68"/>
      </g>
     </g>
     <g id="text_11">
      <!-- 0.2 -->
      <g transform="translate(50.909375 322.99125)scale(0.12 -0.12)">
       <use xlink:href="#BitstreamVeraSans-Roman-30"/>
       <use x="63.623046875" xlink:href="#BitstreamVeraSans-Roman-2e"/>
       <use x="95.41015625" xlink:href="#BitstreamVeraSans-Roman-32"/>
      </g>
     </g>
    </g>
    <g id="ytick_3">
     <g id="line2d_21">
      <g>
       <use style="stroke:#000000;stroke-width:0.5;" x="72.0" xlink:href="#m728421d6d4" y="250.56"/>
      </g>
     </g>
     <g id="line2d_22">
      <g>
       <use style="stroke:#000000;stroke-width:0.5;" x="274.909090909" xlink:href="#mcb0005524f" y="250.56"/>
      </g>
     </g>
     <g id="text_12">
      <!-- 0.4 -->
      <g transform="translate(50.380625 253.87125)scale(0.12 -0.12)">
       <use xlink:href="#BitstreamVeraSans-Roman-30"/>
       <use x="63.623046875" xlink:href="#BitstreamVeraSans-Roman-2e"/>
       <use x="95.41015625" xlink:href="#BitstreamVeraSans-Roman-34"/>
      </g>
     </g>
    </g>
    <g id="ytick_4">
     <g id="line2d_23">
      <g>
       <use style="stroke:#000000;stroke-width:0.5;" x="72.0" xlink:href="#m728421d6d4" y="181.44"/>
      </g>
     </g>
     <g id="line2d_24">
      <g>
       <use style="stroke:#000000;stroke-width:0.5;" x="274.909090909" xlink:href="#mcb0005524f" y="181.44"/>
      </g>
     </g>
     <g id="text_13">
      <!-- 0.6 -->
      <g transform="translate(50.463125 184.75125)scale(0.12 -0.12)">
       <use xlink:href="#BitstreamVeraSans-Roman-30"/>
       <use x="63.623046875" xlink:href="#BitstreamVeraSans-Roman-2e"/>
       <use x="95.41015625" xlink:href="#BitstreamVeraSans-Roman-36"/>
      </g>
     </g>
    </g>
    <g id="ytick_5">
     <g id="line2d_25">
      <g>
       <use style="stroke:#000000;stroke-width:0.5;" x="72.0" xlink:href="#m728421d6d4" y="112.32"/>
      </g>
     </g>
     <g id="line2d_26">
      <g>
       <use style="stroke:#000000;stroke-width:0.5;" x="274.909090909" xlink:href="#mcb0005524f" y="112.32"/>
      </g>
     </g>
     <g id="text_14">
      <!-- 0.8 -->
      <defs>
       <path d="
M31.7812 34.625
Q24.75 34.625 20.7188 30.8594
Q16.7031 27.0938 16.7031 20.5156
Q16.7031 13.9219 20.7188 10.1562
Q24.75 6.39062 31.7812 6.39062
Q38.8125 6.39062 42.8594 10.1719
Q46.9219 13.9688 46.9219 20.5156
Q46.9219 27.0938 42.8906 30.8594
Q38.875 34.625 31.7812 34.625
M21.9219 38.8125
Q15.5781 40.375 12.0312 44.7188
Q8.5 49.0781 8.5 55.3281
Q8.5 64.0625 14.7188 69.1406
Q20.9531 74.2188 31.7812 74.2188
Q42.6719 74.2188 48.875 69.1406
Q55.0781 64.0625 55.0781 55.3281
Q55.0781 49.0781 51.5312 44.7188
Q48 40.375 41.7031 38.8125
Q48.8281 37.1562 52.7969 32.3125
Q56.7812 27.4844 56.7812 20.5156
Q56.7812 9.90625 50.3125 4.23438
Q43.8438 -1.42188 31.7812 -1.42188
Q19.7344 -1.42188 13.25 4.23438
Q6.78125 9.90625 6.78125 20.5156
Q6.78125 27.4844 10.7812 32.3125
Q14.7969 37.1562 21.9219 38.8125
M18.3125 54.3906
Q18.3125 48.7344 21.8438 45.5625
Q25.3906 42.3906 31.7812 42.3906
Q38.1406 42.3906 41.7188 45.5625
Q45.3125 48.7344 45.3125 54.3906
Q45.3125 60.0625 41.7188 63.2344
Q38.1406 66.4062 31.7812 66.4062
Q25.3906 66.4062 21.8438 63.2344
Q18.3125 60.0625 18.3125 54.3906" id="BitstreamVeraSans-Roman-38"/>
      </defs>
      <g transform="translate(50.52875 115.63125)scale(0.12 -0.12)">
       <use xlink:href="#BitstreamVeraSans-Roman-30"/>
       <use x="63.623046875" xlink:href="#BitstreamVeraSans-Roman-2e"/>
       <use x="95.41015625" xlink:href="#BitstreamVeraSans-Roman-38"/>
      </g>
     </g>
    </g>
    <g id="ytick_6">
     <g id="line2d_27">
      <g>
       <use style="stroke:#000000;stroke-width:0.5;" x="72.0" xlink:href="#m728421d6d4" y="43.2"/>
      </g>
     </g>
     <g id="line2d_28">
      <g>
       <use style="stroke:#000000;stroke-width:0.5;" x="274.909090909" xlink:href="#mcb0005524f" y="43.2"/>
      </g>
     </g>
     <g id="text_15">
      <!-- 1.0 -->
      <g transform="translate(51.03125 46.51125)scale(0.12 -0.12)">
       <use xlink:href="#BitstreamVeraSans-Roman-31"/>
       <use x="63.623046875" xlink:href="#BitstreamVeraSans-Roman-2e"/>
       <use x="95.41015625" xlink:href="#BitstreamVeraSans-Roman-30"/>
      </g>
     </g>
    </g>
    <g id="text_16">
     <!-- Probability of Target Selection -->
     <defs>
      <path id="BitstreamVeraSans-Roman-20"/>
      <path d="
M54.8906 33.0156
L54.8906 0
L45.9062 0
L45.9062 32.7188
Q45.9062 40.4844 42.875 44.3281
Q39.8438 48.1875 33.7969 48.1875
Q26.5156 48.1875 22.3125 43.5469
Q18.1094 38.9219 18.1094 30.9062
L18.1094 0
L9.07812 0
L9.07812 54.6875
L18.1094 54.6875
L18.1094 46.1875
Q21.3438 51.125 25.7031 53.5625
Q30.0781 56 35.7969 56
Q45.2188 56 50.0469 50.1719
Q54.8906 44.3438 54.8906 33.0156" id="BitstreamVeraSans-Roman-6e"/>
      <path d="
M30.6094 48.3906
Q23.3906 48.3906 19.1875 42.75
Q14.9844 37.1094 14.9844 27.2969
Q14.9844 17.4844 19.1562 11.8438
Q23.3438 6.20312 30.6094 6.20312
Q37.7969 6.20312 41.9844 11.8594
Q46.1875 17.5312 46.1875 27.2969
Q46.1875 37.0156 41.9844 42.7031
Q37.7969 48.3906 30.6094 48.3906
M30.6094 56
Q42.3281 56 49.0156 48.375
Q55.7188 40.7656 55.7188 27.2969
Q55.7188 13.875 49.0156 6.21875
Q42.3281 -1.42188 30.6094 -1.42188
Q18.8438 -1.42188 12.1719 6.21875
Q5.51562 13.875 5.51562 27.2969
Q5.51562 40.7656 12.1719 48.375
Q18.8438 56 30.6094 56" id="BitstreamVeraSans-Roman-6f"/>
      <path d="
M19.6719 64.7969
L19.6719 37.4062
L32.0781 37.4062
Q38.9688 37.4062 42.7188 40.9688
Q46.4844 44.5312 46.4844 51.125
Q46.4844 57.6719 42.7188 61.2344
Q38.9688 64.7969 32.0781 64.7969
z

M9.8125 72.9062
L32.0781 72.9062
Q44.3438 72.9062 50.6094 67.3594
Q56.8906 61.8125 56.8906 51.125
Q56.8906 40.3281 50.6094 34.8125
Q44.3438 29.2969 32.0781 29.2969
L19.6719 29.2969
L19.6719 0
L9.8125 0
z
" id="BitstreamVeraSans-Roman-50"/>
      <path d="
M53.5156 70.5156
L53.5156 60.8906
Q47.9062 63.5781 42.9219 64.8906
Q37.9375 66.2188 33.2969 66.2188
Q25.25 66.2188 20.875 63.0938
Q16.5 59.9688 16.5 54.2031
Q16.5 49.3594 19.4062 46.8906
Q22.3125 44.4375 30.4219 42.9219
L36.375 41.7031
Q47.4062 39.5938 52.6562 34.2969
Q57.9062 29 57.9062 20.125
Q57.9062 9.51562 50.7969 4.04688
Q43.7031 -1.42188 29.9844 -1.42188
Q24.8125 -1.42188 18.9688 -0.25
Q13.1406 0.921875 6.89062 3.21875
L6.89062 13.375
Q12.8906 10.0156 18.6562 8.29688
Q24.4219 6.59375 29.9844 6.59375
Q38.4219 6.59375 43.0156 9.90625
Q47.6094 13.2344 47.6094 19.3906
Q47.6094 24.75 44.3125 27.7812
Q41.0156 30.8125 33.5 32.3281
L27.4844 33.5
Q16.4531 35.6875 11.5156 40.375
Q6.59375 45.0625 6.59375 53.4219
Q6.59375 63.0938 13.4062 68.6562
Q20.2188 74.2188 32.1719 74.2188
Q37.3125 74.2188 42.625 73.2812
Q47.9531 72.3594 53.5156 70.5156" id="BitstreamVeraSans-Roman-53"/>
      <path d="
M32.1719 -5.07812
Q28.375 -14.8438 24.75 -17.8125
Q21.1406 -20.7969 15.0938 -20.7969
L7.90625 -20.7969
L7.90625 -13.2812
L13.1875 -13.2812
Q16.8906 -13.2812 18.9375 -11.5156
Q21 -9.76562 23.4844 -3.21875
L25.0938 0.875
L2.98438 54.6875
L12.5 54.6875
L29.5938 11.9219
L46.6875 54.6875
L56.2031 54.6875
z
" id="BitstreamVeraSans-Roman-79"/>
      <path d="
M56.2031 29.5938
L56.2031 25.2031
L14.8906 25.2031
Q15.4844 15.9219 20.4844 11.0625
Q25.4844 6.20312 34.4219 6.20312
Q39.5938 6.20312 44.4531 7.46875
Q49.3125 8.73438 54.1094 11.2812
L54.1094 2.78125
Q49.2656 0.734375 44.1875 -0.34375
Q39.1094 -1.42188 33.8906 -1.42188
Q20.7969 -1.42188 13.1562 6.1875
Q5.51562 13.8125 5.51562 26.8125
Q5.51562 40.2344 12.7656 48.1094
Q20.0156 56 32.3281 56
Q43.3594 56 49.7812 48.8906
Q56.2031 41.7969 56.2031 29.5938
M47.2188 32.2344
Q47.125 39.5938 43.0938 43.9844
Q39.0625 48.3906 32.4219 48.3906
Q24.9062 48.3906 20.3906 44.1406
Q15.875 39.8906 15.1875 32.1719
z
" id="BitstreamVeraSans-Roman-65"/>
      <path d="
M18.3125 70.2188
L18.3125 54.6875
L36.8125 54.6875
L36.8125 47.7031
L18.3125 47.7031
L18.3125 18.0156
Q18.3125 11.3281 20.1406 9.42188
Q21.9688 7.51562 27.5938 7.51562
L36.8125 7.51562
L36.8125 0
L27.5938 0
Q17.1875 0 13.2344 3.875
Q9.28125 7.76562 9.28125 18.0156
L9.28125 47.7031
L2.6875 47.7031
L2.6875 54.6875
L9.28125 54.6875
L9.28125 70.2188
z
" id="BitstreamVeraSans-Roman-74"/>
      <path d="
M37.1094 75.9844
L37.1094 68.5
L28.5156 68.5
Q23.6875 68.5 21.7969 66.5469
Q19.9219 64.5938 19.9219 59.5156
L19.9219 54.6875
L34.7188 54.6875
L34.7188 47.7031
L19.9219 47.7031
L19.9219 0
L10.8906 0
L10.8906 47.7031
L2.29688 47.7031
L2.29688 54.6875
L10.8906 54.6875
L10.8906 58.5
Q10.8906 67.625 15.1406 71.7969
Q19.3906 75.9844 28.6094 75.9844
z
" id="BitstreamVeraSans-Roman-66"/>
      <path d="
M45.4062 27.9844
Q45.4062 37.75 41.375 43.1094
Q37.3594 48.4844 30.0781 48.4844
Q22.8594 48.4844 18.8281 43.1094
Q14.7969 37.75 14.7969 27.9844
Q14.7969 18.2656 18.8281 12.8906
Q22.8594 7.51562 30.0781 7.51562
Q37.3594 7.51562 41.375 12.8906
Q45.4062 18.2656 45.4062 27.9844
M54.3906 6.78125
Q54.3906 -7.17188 48.1875 -13.9844
Q42 -20.7969 29.2031 -20.7969
Q24.4688 -20.7969 20.2656 -20.0938
Q16.0625 -19.3906 12.1094 -17.9219
L12.1094 -9.1875
Q16.0625 -11.3281 19.9219 -12.3438
Q23.7812 -13.375 27.7812 -13.375
Q36.625 -13.375 41.0156 -8.76562
Q45.4062 -4.15625 45.4062 5.17188
L45.4062 9.625
Q42.625 4.78125 38.2812 2.39062
Q33.9375 0 27.875 0
Q17.8281 0 11.6719 7.65625
Q5.51562 15.3281 5.51562 27.9844
Q5.51562 40.6719 11.6719 48.3281
Q17.8281 56 27.875 56
Q33.9375 56 38.2812 53.6094
Q42.625 51.2188 45.4062 46.3906
L45.4062 54.6875
L54.3906 54.6875
z
" id="BitstreamVeraSans-Roman-67"/>
      <path d="
M48.7812 52.5938
L48.7812 44.1875
Q44.9688 46.2969 41.1406 47.3438
Q37.3125 48.3906 33.4062 48.3906
Q24.6562 48.3906 19.8125 42.8438
Q14.9844 37.3125 14.9844 27.2969
Q14.9844 17.2812 19.8125 11.7344
Q24.6562 6.20312 33.4062 6.20312
Q37.3125 6.20312 41.1406 7.25
Q44.9688 8.29688 48.7812 10.4062
L48.7812 2.09375
Q45.0156 0.34375 40.9844 -0.53125
Q36.9688 -1.42188 32.4219 -1.42188
Q20.0625 -1.42188 12.7812 6.34375
Q5.51562 14.1094 5.51562 27.2969
Q5.51562 40.6719 12.8594 48.3281
Q20.2188 56 33.0156 56
Q37.1562 56 41.1094 55.1406
Q45.0625 54.2969 48.7812 52.5938" id="BitstreamVeraSans-Roman-63"/>
      <path d="
M48.6875 27.2969
Q48.6875 37.2031 44.6094 42.8438
Q40.5312 48.4844 33.4062 48.4844
Q26.2656 48.4844 22.1875 42.8438
Q18.1094 37.2031 18.1094 27.2969
Q18.1094 17.3906 22.1875 11.75
Q26.2656 6.10938 33.4062 6.10938
Q40.5312 6.10938 44.6094 11.75
Q48.6875 17.3906 48.6875 27.2969
M18.1094 46.3906
Q20.9531 51.2656 25.2656 53.625
Q29.5938 56 35.5938 56
Q45.5625 56 51.7812 48.0938
Q58.0156 40.1875 58.0156 27.2969
Q58.0156 14.4062 51.7812 6.48438
Q45.5625 -1.42188 35.5938 -1.42188
Q29.5938 -1.42188 25.2656 0.953125
Q20.9531 3.32812 18.1094 8.20312
L18.1094 0
L9.07812 0
L9.07812 75.9844
L18.1094 75.9844
z
" id="BitstreamVeraSans-Roman-62"/>
     </defs>
     <g transform="translate(42.885 304.9275)rotate(-90.0)scale(0.12 -0.12)">
      <use xlink:href="#BitstreamVeraSans-Roman-50"/>
      <use x="58.552734375" xlink:href="#BitstreamVeraSans-Roman-72"/>
      <use x="97.416015625" xlink:href="#BitstreamVeraSans-Roman-6f"/>
      <use x="158.59765625" xlink:href="#BitstreamVeraSans-Roman-62"/>
      <use x="222.07421875" xlink:href="#BitstreamVeraSans-Roman-61"/>
      <use x="283.353515625" xlink:href="#BitstreamVeraSans-Roman-62"/>
      <use x="346.830078125" xlink:href="#BitstreamVeraSans-Roman-69"/>
      <use x="374.61328125" xlink:href="#BitstreamVeraSans-Roman-6c"/>
      <use x="402.396484375" xlink:href="#BitstreamVeraSans-Roman-69"/>
      <use x="430.1796875" xlink:href="#BitstreamVeraSans-Roman-74"/>
      <use x="469.388671875" xlink:href="#BitstreamVeraSans-Roman-79"/>
      <use x="528.568359375" xlink:href="#BitstreamVeraSans-Roman-20"/>
      <use x="560.35546875" xlink:href="#BitstreamVeraSans-Roman-6f"/>
      <use x="621.537109375" xlink:href="#BitstreamVeraSans-Roman-66"/>
      <use x="656.7421875" xlink:href="#BitstreamVeraSans-Roman-20"/>
      <use x="688.529296875" xlink:href="#BitstreamVeraSans-Roman-54"/>
      <use x="733.11328125" xlink:href="#BitstreamVeraSans-Roman-61"/>
      <use x="794.392578125" xlink:href="#BitstreamVeraSans-Roman-72"/>
      <use x="833.755859375" xlink:href="#BitstreamVeraSans-Roman-67"/>
      <use x="897.232421875" xlink:href="#BitstreamVeraSans-Roman-65"/>
      <use x="958.755859375" xlink:href="#BitstreamVeraSans-Roman-74"/>
      <use x="997.96484375" xlink:href="#BitstreamVeraSans-Roman-20"/>
      <use x="1029.75195312" xlink:href="#BitstreamVeraSans-Roman-53"/>
      <use x="1093.22851562" xlink:href="#BitstreamVeraSans-Roman-65"/>
      <use x="1154.75195312" xlink:href="#BitstreamVeraSans-Roman-6c"/>
      <use x="1182.53515625" xlink:href="#BitstreamVeraSans-Roman-65"/>
      <use x="1244.05859375" xlink:href="#BitstreamVeraSans-Roman-63"/>
      <use x="1299.0390625" xlink:href="#BitstreamVeraSans-Roman-74"/>
      <use x="1338.24804688" xlink:href="#BitstreamVeraSans-Roman-69"/>
      <use x="1366.03125" xlink:href="#BitstreamVeraSans-Roman-6f"/>
      <use x="1427.21289062" xlink:href="#BitstreamVeraSans-Roman-6e"/>
     </g>
    </g>
   </g>
   <g id="text_17">
    <!-- All trials -->
    <defs>
     <path d="
M34.1875 63.1875
L20.7969 26.9062
L47.6094 26.9062
z

M28.6094 72.9062
L39.7969 72.9062
L67.5781 0
L57.3281 0
L50.6875 18.7031
L17.8281 18.7031
L11.1875 0
L0.78125 0
z
" id="BitstreamVeraSans-Roman-41"/>
    </defs>
    <g transform="translate(144.645545455 38.2)scale(0.144 -0.144)">
     <use xlink:href="#BitstreamVeraSans-Roman-41"/>
     <use x="68.408203125" xlink:href="#BitstreamVeraSans-Roman-6c"/>
     <use x="96.19140625" xlink:href="#BitstreamVeraSans-Roman-6c"/>
     <use x="123.974609375" xlink:href="#BitstreamVeraSans-Roman-20"/>
     <use x="155.76171875" xlink:href="#BitstreamVeraSans-Roman-74"/>
     <use x="194.970703125" xlink:href="#BitstreamVeraSans-Roman-72"/>
     <use x="236.083984375" xlink:href="#BitstreamVeraSans-Roman-69"/>
     <use x="263.8671875" xlink:href="#BitstreamVeraSans-Roman-61"/>
     <use x="325.146484375" xlink:href="#BitstreamVeraSans-Roman-6c"/>
     <use x="352.9296875" xlink:href="#BitstreamVeraSans-Roman-73"/>
    </g>
   </g>
   <g id="legend_1">
    <g id="patch_7">
     <path d="
M187.004 96.993
L267.709 96.993
L267.709 50.4
L187.004 50.4
z
" style="fill:#ffffff;stroke:#000000;stroke-linejoin:miter;"/>
    </g>
    <g id="line2d_29">
     <path d="
M197.084 62.0617
L217.244 62.0617" style="fill:none;stroke:#0000ff;stroke-linecap:square;"/>
    </g>
    <g id="line2d_30"/>
    <g id="text_18">
     <!-- high -->
     <defs>
      <path d="
M54.8906 33.0156
L54.8906 0
L45.9062 0
L45.9062 32.7188
Q45.9062 40.4844 42.875 44.3281
Q39.8438 48.1875 33.7969 48.1875
Q26.5156 48.1875 22.3125 43.5469
Q18.1094 38.9219 18.1094 30.9062
L18.1094 0
L9.07812 0
L9.07812 75.9844
L18.1094 75.9844
L18.1094 46.1875
Q21.3438 51.125 25.7031 53.5625
Q30.0781 56 35.7969 56
Q45.2188 56 50.0469 50.1719
Q54.8906 44.3438 54.8906 33.0156" id="BitstreamVeraSans-Roman-68"/>
     </defs>
     <g transform="translate(233.083840909 67.10175)scale(0.144 -0.144)">
      <use xlink:href="#BitstreamVeraSans-Roman-68"/>
      <use x="63.37890625" xlink:href="#BitstreamVeraSans-Roman-69"/>
      <use x="91.162109375" xlink:href="#BitstreamVeraSans-Roman-67"/>
      <use x="154.638671875" xlink:href="#BitstreamVeraSans-Roman-68"/>
     </g>
    </g>
    <g id="line2d_31">
     <path d="
M197.084 83.1982
L217.244 83.1982" style="fill:none;stroke:#ff0000;stroke-linecap:square;"/>
    </g>
    <g id="line2d_32"/>
    <g id="text_19">
     <!-- low -->
     <defs>
      <path d="
M4.20312 54.6875
L13.1875 54.6875
L24.4219 12.0156
L35.5938 54.6875
L46.1875 54.6875
L57.4219 12.0156
L68.6094 54.6875
L77.5938 54.6875
L63.2812 0
L52.6875 0
L40.9219 44.8281
L29.1094 0
L18.5 0
z
" id="BitstreamVeraSans-Roman-77"/>
     </defs>
     <g transform="translate(233.083840909 88.23825)scale(0.144 -0.144)">
      <use xlink:href="#BitstreamVeraSans-Roman-6c"/>
      <use x="27.783203125" xlink:href="#BitstreamVeraSans-Roman-6f"/>
      <use x="88.96484375" xlink:href="#BitstreamVeraSans-Roman-77"/>
     </g>
    </g>
   </g>
  </g>
  <g id="axes_2">
   <g id="patch_8">
    <path d="
M315.491 388.8
L518.4 388.8
L518.4 43.2
L315.491 43.2
z
" style="fill:#ffffff;"/>
   </g>
   <g id="line2d_33">
    <path clip-path="url(#pc565ddf9d5)" d="
M315.491 388.8
L315.884 216
L316.277 158.4
L316.671 216
L317.064 181.44
L317.457 216
L318.244 172.8
L319.03 146.88
L319.816 129.6
L320.603 117.257
L320.996 135.36
L321.783 124.518
L322.176 120
L322.569 134.147
L322.962 129.6
L323.356 141.943
L324.535 129.6
L325.715 158.4
L326.895 146.88
L327.288 154.684
L328.468 144.847
L328.861 151.817
L329.254 148.8
L329.647 155.286
L330.434 149.538
L332.007 171.795
L332.4 176.727
L333.58 168.204
L333.973 172.8
L335.153 165.176
L335.546 158.4
L336.726 158.4
L337.119 165.176
L337.512 158.4
L340.265 158.4
L340.658 165.176
L341.444 165.176
L342.231 178.729
L342.624 171.953
L343.017 178.729
L343.411 171.953
L343.804 171.953
L344.197 178.729
L344.59 178.729
L344.984 171.953
L345.377 171.953
L345.77 165.176
L346.95 165.176
L347.343 158.4
L348.129 171.953
L348.523 171.953
L348.916 165.176
L349.309 171.953
L349.702 165.176
L350.489 178.729
L351.275 178.729
L351.668 171.953
L352.062 171.953
L352.455 165.176
L352.848 171.953
L354.028 171.953
L354.814 185.506
L356.781 185.506
L357.174 178.729
L357.567 185.506
L357.96 185.506
L359.926 219.388
L360.713 219.388
L361.106 212.612
L361.499 219.388
L362.286 205.835
L362.679 212.612
L363.072 205.835
L363.859 205.835
L364.252 199.059
L365.038 199.059
L365.432 192.282
L365.825 199.059
L366.218 199.059
L366.611 205.835
L367.005 205.835
L367.398 212.612
L368.184 199.059
L368.578 199.059
L368.971 205.835
L369.757 205.835
L371.33 178.729
L371.723 178.729
L372.117 171.953
L372.51 178.729
L372.903 171.953
L373.296 171.953
L373.69 178.729
L374.869 158.4
L375.263 165.176
L376.049 165.176
L376.442 171.953
L376.836 165.176
L377.229 165.176
L377.622 158.4
L378.015 165.176
L378.802 151.624
L379.981 151.624
L380.375 158.4
L380.768 151.624
L381.161 151.624
L381.554 144.847
L381.948 144.847
L382.341 151.624
L382.734 144.847
L383.127 144.847
L385.487 185.506
L385.88 178.729
L387.06 178.729
L387.453 171.953
L388.633 171.953
L389.419 158.4
L390.205 158.4
L390.599 165.176
L390.992 165.176
L391.385 171.953
L392.172 171.953
L392.565 165.176
L393.351 165.176
L393.745 158.4
L394.138 158.4
L394.531 165.176
L394.924 165.176
L395.318 158.4
L395.711 158.4
L396.104 165.176
L396.497 158.4
L397.284 158.4
L397.677 165.176
L398.07 158.4
L398.857 158.4
L399.643 144.847
L400.036 144.847
L400.43 138.071
L400.823 144.847
L402.003 144.847
L402.396 138.071
L403.182 138.071
L405.542 97.4118
L406.328 97.4118
L406.721 90.6353
L408.294 90.6353
L409.474 110.965
L410.26 110.965
L410.654 104.188
L411.047 110.965
L411.44 104.188
L411.833 110.965
L412.227 110.965
L412.62 117.741
L413.013 117.741
L414.193 138.071
L414.586 131.294
L414.979 131.294
L415.766 144.847
L416.159 138.071
L417.339 138.071
L417.732 131.294
L418.125 131.294
L419.305 151.624
L419.698 151.624
L420.091 144.847
L420.485 144.847
L420.878 138.071
L425.597 138.071
L425.99 144.847
L428.349 144.847
L428.742 138.071
L429.136 138.071
L429.529 131.294
L430.709 131.294
L431.102 124.518
L431.495 124.518
L431.888 117.741
L432.282 117.741
L432.675 110.965
L433.068 117.741
L433.461 110.965
L433.855 110.965
L434.248 104.188
L434.641 104.188
L435.034 110.965
L435.821 97.4118
L437 97.4118
L437.394 104.188
L438.967 104.188
L439.36 97.4118
L441.326 97.4118
L441.719 104.188
L443.292 104.188
L444.079 117.741
L445.652 117.741
L446.045 110.965
L446.831 110.965
L447.225 117.741
L448.797 117.741
L449.191 110.965
L451.157 110.965
L451.943 124.518
L452.73 124.518
L453.123 117.741
L453.516 117.741
L453.91 110.965
L454.696 110.965
L455.089 104.188
L456.662 104.188
L457.055 110.965
L457.449 104.188
L458.628 104.188
L459.022 97.4118
L459.415 97.4118
L459.808 104.188
L461.381 104.188
L461.774 97.4118
L463.347 97.4118
L463.74 90.6353
L464.134 90.6353
L464.527 97.4118
L465.313 97.4118
L465.707 104.188
L466.886 104.188
L467.279 97.4118
L467.673 97.4118
L468.066 104.188
L469.246 104.188
L469.639 110.965
L470.032 110.965
L470.425 117.741
L471.212 117.741
L471.605 110.965
L471.998 110.965
L472.392 117.741
L473.571 117.741
L473.964 124.518
L474.358 124.518
L474.751 131.294
L475.931 131.294
L476.324 138.071
L476.717 138.071
L477.11 131.294
L478.29 131.294
L478.683 124.518
L479.077 131.294
L479.47 131.294
L479.863 124.518
L482.616 124.518
L483.009 131.294
L483.795 131.294
L484.582 117.741
L485.368 117.741
L485.762 110.965
L486.155 110.965
L486.548 117.741
L487.728 117.741
L488.121 110.965
L489.301 110.965
L489.694 104.188
L490.087 104.188
L490.48 97.4118
L491.66 117.741
L492.447 104.188
L493.626 104.188
L494.019 97.4118
L494.413 104.188
L495.986 104.188
L496.379 97.4118
L497.165 110.965
L498.345 110.965
L498.738 117.741
L499.132 110.965
L499.525 110.965
L499.918 117.741
L502.671 117.741
L503.064 110.965
L503.457 110.965
L503.85 117.741
L504.637 117.741
L505.423 131.294
L506.21 131.294
L506.603 124.518
L507.389 124.518
L508.176 138.071
L509.356 138.071
L509.749 144.847
L511.715 144.847
L512.501 158.4
L513.288 158.4
L513.681 165.176
L514.074 165.176
L514.861 151.624
L515.254 158.4
L516.041 158.4
L516.434 165.176
L517.22 151.624
L518.4 151.624
L518.4 151.624" style="fill:none;stroke:#0000ff;stroke-linecap:square;"/>
   </g>
   <g id="line2d_34">
    <path clip-path="url(#pc565ddf9d5)" d="
M315.491 43.2
L315.884 216
L316.277 273.6
L316.671 216
L317.064 250.56
L317.457 216
L318.244 259.2
L319.03 285.12
L319.816 302.4
L320.603 314.743
L320.996 296.64
L321.783 307.482
L322.176 312
L322.569 297.853
L322.962 302.4
L323.356 290.057
L324.535 302.4
L325.715 273.6
L326.895 285.12
L327.288 277.316
L328.468 287.153
L328.861 280.183
L329.254 283.2
L329.647 276.714
L330.434 282.462
L332.007 260.205
L332.4 255.273
L333.58 263.796
L333.973 259.2
L335.153 266.824
L335.546 273.6
L336.726 273.6
L337.119 266.824
L337.512 273.6
L340.265 273.6
L340.658 266.824
L341.444 266.824
L342.231 253.271
L342.624 260.047
L343.017 253.271
L343.411 260.047
L343.804 260.047
L344.197 253.271
L344.59 253.271
L344.984 260.047
L345.377 260.047
L345.77 266.824
L346.95 266.824
L347.343 273.6
L348.129 260.047
L348.523 260.047
L348.916 266.824
L349.309 260.047
L349.702 266.824
L350.489 253.271
L351.275 253.271
L351.668 260.047
L352.062 260.047
L352.455 266.824
L352.848 260.047
L354.028 260.047
L354.814 246.494
L356.781 246.494
L357.174 253.271
L357.567 246.494
L357.96 246.494
L359.926 212.612
L360.713 212.612
L361.106 219.388
L361.499 212.612
L362.286 226.165
L362.679 219.388
L363.072 226.165
L363.859 226.165
L364.252 232.941
L365.038 232.941
L365.432 239.718
L365.825 232.941
L366.218 232.941
L366.611 226.165
L367.005 226.165
L367.398 219.388
L368.184 232.941
L368.578 232.941
L368.971 226.165
L369.757 226.165
L371.33 253.271
L371.723 253.271
L372.117 260.047
L372.51 253.271
L372.903 260.047
L373.296 260.047
L373.69 253.271
L374.869 273.6
L375.263 266.824
L376.049 266.824
L376.442 260.047
L376.836 266.824
L377.229 266.824
L377.622 273.6
L378.015 266.824
L378.802 280.376
L379.981 280.376
L380.375 273.6
L380.768 280.376
L381.161 280.376
L381.554 287.153
L381.948 287.153
L382.341 280.376
L382.734 287.153
L383.127 287.153
L385.487 246.494
L385.88 253.271
L387.06 253.271
L387.453 260.047
L388.633 260.047
L389.419 273.6
L390.205 273.6
L390.599 266.824
L390.992 266.824
L391.385 260.047
L392.172 260.047
L392.565 266.824
L393.351 266.824
L393.745 273.6
L394.138 273.6
L394.531 266.824
L394.924 266.824
L395.318 273.6
L395.711 273.6
L396.104 266.824
L396.497 273.6
L397.284 273.6
L397.677 266.824
L398.07 273.6
L398.857 273.6
L399.643 287.153
L400.036 287.153
L400.43 293.929
L400.823 287.153
L402.003 287.153
L402.396 293.929
L403.182 293.929
L405.542 334.588
L406.328 334.588
L406.721 341.365
L408.294 341.365
L409.474 321.035
L410.26 321.035
L410.654 327.812
L411.047 321.035
L411.44 327.812
L411.833 321.035
L412.227 321.035
L412.62 314.259
L413.013 314.259
L414.193 293.929
L414.586 300.706
L414.979 300.706
L415.766 287.153
L416.159 293.929
L417.339 293.929
L417.732 300.706
L418.125 300.706
L419.305 280.376
L419.698 280.376
L420.091 287.153
L420.485 287.153
L420.878 293.929
L425.597 293.929
L425.99 287.153
L428.349 287.153
L428.742 293.929
L429.136 293.929
L429.529 300.706
L430.709 300.706
L431.102 307.482
L431.495 307.482
L431.888 314.259
L432.282 314.259
L432.675 321.035
L433.068 314.259
L433.461 321.035
L433.855 321.035
L434.248 327.812
L434.641 327.812
L435.034 321.035
L435.821 334.588
L437 334.588
L437.394 327.812
L438.967 327.812
L439.36 334.588
L441.326 334.588
L441.719 327.812
L443.292 327.812
L444.079 314.259
L445.652 314.259
L446.045 321.035
L446.831 321.035
L447.225 314.259
L448.797 314.259
L449.191 321.035
L451.157 321.035
L451.943 307.482
L452.73 307.482
L453.123 314.259
L453.516 314.259
L453.91 321.035
L454.696 321.035
L455.089 327.812
L456.662 327.812
L457.055 321.035
L457.449 327.812
L458.628 327.812
L459.022 334.588
L459.415 334.588
L459.808 327.812
L461.381 327.812
L461.774 334.588
L463.347 334.588
L463.74 341.365
L464.134 341.365
L464.527 334.588
L465.313 334.588
L465.707 327.812
L466.886 327.812
L467.279 334.588
L467.673 334.588
L468.066 327.812
L469.246 327.812
L469.639 321.035
L470.032 321.035
L470.425 314.259
L471.212 314.259
L471.605 321.035
L471.998 321.035
L472.392 314.259
L473.571 314.259
L473.964 307.482
L474.358 307.482
L474.751 300.706
L475.931 300.706
L476.324 293.929
L476.717 293.929
L477.11 300.706
L478.29 300.706
L478.683 307.482
L479.077 300.706
L479.47 300.706
L479.863 307.482
L482.616 307.482
L483.009 300.706
L483.795 300.706
L484.582 314.259
L485.368 314.259
L485.762 321.035
L486.155 321.035
L486.548 314.259
L487.728 314.259
L488.121 321.035
L489.301 321.035
L489.694 327.812
L490.087 327.812
L490.48 334.588
L491.66 314.259
L492.447 327.812
L493.626 327.812
L494.019 334.588
L494.413 327.812
L495.986 327.812
L496.379 334.588
L497.165 321.035
L498.345 321.035
L498.738 314.259
L499.132 321.035
L499.525 321.035
L499.918 314.259
L502.671 314.259
L503.064 321.035
L503.457 321.035
L503.85 314.259
L504.637 314.259
L505.423 300.706
L506.21 300.706
L506.603 307.482
L507.389 307.482
L508.176 293.929
L509.356 293.929
L509.749 287.153
L511.715 287.153
L512.501 273.6
L513.288 273.6
L513.681 266.824
L514.074 266.824
L514.861 280.376
L515.254 273.6
L516.041 273.6
L516.434 266.824
L517.22 280.376
L518.4 280.376
L518.4 280.376" style="fill:none;stroke:#ff0000;stroke-linecap:square;"/>
   </g>
   <g id="patch_9">
    <path d="
M315.491 43.2
L518.4 43.2" style="fill:none;stroke:#000000;stroke-linecap:square;stroke-linejoin:miter;"/>
   </g>
   <g id="patch_10">
    <path d="
M518.4 388.8
L518.4 43.2" style="fill:none;stroke:#000000;stroke-linecap:square;stroke-linejoin:miter;"/>
   </g>
   <g id="patch_11">
    <path d="
M315.491 388.8
L518.4 388.8" style="fill:none;stroke:#000000;stroke-linecap:square;stroke-linejoin:miter;"/>
   </g>
   <g id="patch_12">
    <path d="
M315.491 388.8
L315.491 43.2" style="fill:none;stroke:#000000;stroke-linecap:square;stroke-linejoin:miter;"/>
   </g>
   <g id="matplotlib.axis_3">
    <g id="xtick_9">
     <g id="text_20">
      <!-- 0 -->
      <g transform="translate(312.074236919 401.918125)scale(0.12 -0.12)">
       <use xlink:href="#BitstreamVeraSans-Roman-30"/>
      </g>
     </g>
    </g>
    <g id="xtick_10">
     <g id="line2d_35">
      <g>
       <use style="stroke:#000000;stroke-width:0.5;" x="354.421141649" xlink:href="#m93b0483c22" y="388.8"/>
      </g>
     </g>
     <g id="line2d_36">
      <g>
       <use style="stroke:#000000;stroke-width:0.5;" x="354.421141649" xlink:href="#m741efc42ff" y="43.2"/>
      </g>
     </g>
     <g id="text_21">
      <!-- 100 -->
      <g transform="translate(344.026141649 401.918125)scale(0.12 -0.12)">
       <use xlink:href="#BitstreamVeraSans-Roman-31"/>
       <use x="63.623046875" xlink:href="#BitstreamVeraSans-Roman-30"/>
       <use x="127.24609375" xlink:href="#BitstreamVeraSans-Roman-30"/>
      </g>
     </g>
    </g>
    <g id="xtick_11">
     <g id="line2d_37">
      <g>
       <use style="stroke:#000000;stroke-width:0.5;" x="393.744608879" xlink:href="#m93b0483c22" y="388.8"/>
      </g>
     </g>
     <g id="line2d_38">
      <g>
       <use style="stroke:#000000;stroke-width:0.5;" x="393.744608879" xlink:href="#m741efc42ff" y="43.2"/>
      </g>
     </g>
     <g id="text_22">
      <!-- 200 -->
      <g transform="translate(383.130233879 401.918125)scale(0.12 -0.12)">
       <use xlink:href="#BitstreamVeraSans-Roman-32"/>
       <use x="63.623046875" xlink:href="#BitstreamVeraSans-Roman-30"/>
       <use x="127.24609375" xlink:href="#BitstreamVeraSans-Roman-30"/>
      </g>
     </g>
    </g>
    <g id="xtick_12">
     <g id="line2d_39">
      <g>
       <use style="stroke:#000000;stroke-width:0.5;" x="433.06807611" xlink:href="#m93b0483c22" y="388.8"/>
      </g>
     </g>
     <g id="line2d_40">
      <g>
       <use style="stroke:#000000;stroke-width:0.5;" x="433.06807611" xlink:href="#m741efc42ff" y="43.2"/>
      </g>
     </g>
     <g id="text_23">
      <!-- 300 -->
      <g transform="translate(422.47151361 401.918125)scale(0.12 -0.12)">
       <use xlink:href="#BitstreamVeraSans-Roman-33"/>
       <use x="63.623046875" xlink:href="#BitstreamVeraSans-Roman-30"/>
       <use x="127.24609375" xlink:href="#BitstreamVeraSans-Roman-30"/>
      </g>
     </g>
    </g>
    <g id="xtick_13">
     <g id="line2d_41">
      <g>
       <use style="stroke:#000000;stroke-width:0.5;" x="472.39154334" xlink:href="#m93b0483c22" y="388.8"/>
      </g>
     </g>
     <g id="line2d_42">
      <g>
       <use style="stroke:#000000;stroke-width:0.5;" x="472.39154334" xlink:href="#m741efc42ff" y="43.2"/>
      </g>
     </g>
     <g id="text_24">
      <!-- 400 -->
      <g transform="translate(461.63091834 401.918125)scale(0.12 -0.12)">
       <use xlink:href="#BitstreamVeraSans-Roman-34"/>
       <use x="63.623046875" xlink:href="#BitstreamVeraSans-Roman-30"/>
       <use x="127.24609375" xlink:href="#BitstreamVeraSans-Roman-30"/>
      </g>
     </g>
    </g>
    <g id="xtick_14">
     <g id="line2d_43">
      <g>
       <use style="stroke:#000000;stroke-width:0.5;" x="511.715010571" xlink:href="#m93b0483c22" y="388.8"/>
      </g>
     </g>
     <g id="line2d_44">
      <g>
       <use style="stroke:#000000;stroke-width:0.5;" x="511.715010571" xlink:href="#m741efc42ff" y="43.2"/>
      </g>
     </g>
     <g id="text_25">
      <!-- 500 -->
      <g transform="translate(501.124073071 401.918125)scale(0.12 -0.12)">
       <use xlink:href="#BitstreamVeraSans-Roman-35"/>
       <use x="63.623046875" xlink:href="#BitstreamVeraSans-Roman-30"/>
       <use x="127.24609375" xlink:href="#BitstreamVeraSans-Roman-30"/>
      </g>
     </g>
    </g>
    <g id="text_26">
     <!-- Trials -->
     <g transform="translate(401.837642045 418.531875)scale(0.12 -0.12)">
      <use xlink:href="#BitstreamVeraSans-Roman-54"/>
      <use x="46.333984375" xlink:href="#BitstreamVeraSans-Roman-72"/>
      <use x="87.447265625" xlink:href="#BitstreamVeraSans-Roman-69"/>
      <use x="115.23046875" xlink:href="#BitstreamVeraSans-Roman-61"/>
      <use x="176.509765625" xlink:href="#BitstreamVeraSans-Roman-6c"/>
      <use x="204.29296875" xlink:href="#BitstreamVeraSans-Roman-73"/>
     </g>
    </g>
   </g>
   <g id="matplotlib.axis_4">
    <g id="ytick_7">
     <g id="line2d_45">
      <g>
       <use style="stroke:#000000;stroke-width:0.5;" x="315.490909091" xlink:href="#m728421d6d4" y="388.8"/>
      </g>
     </g>
     <g id="line2d_46">
      <g>
       <use style="stroke:#000000;stroke-width:0.5;" x="518.4" xlink:href="#mcb0005524f" y="388.8"/>
      </g>
     </g>
     <g id="text_27">
      <!-- 0.0 -->
      <g transform="translate(293.995284091 392.11125)scale(0.12 -0.12)">
       <use xlink:href="#BitstreamVeraSans-Roman-30"/>
       <use x="63.623046875" xlink:href="#BitstreamVeraSans-Roman-2e"/>
       <use x="95.41015625" xlink:href="#BitstreamVeraSans-Roman-30"/>
      </g>
     </g>
    </g>
    <g id="ytick_8">
     <g id="line2d_47">
      <g>
       <use style="stroke:#000000;stroke-width:0.5;" x="315.490909091" xlink:href="#m728421d6d4" y="319.68"/>
      </g>
     </g>
     <g id="line2d_48">
      <g>
       <use style="stroke:#000000;stroke-width:0.5;" x="518.4" xlink:href="#mcb0005524f" y="319.68"/>
      </g>
     </g>
     <g id="text_28">
      <!-- 0.2 -->
      <g transform="translate(294.400284091 322.99125)scale(0.12 -0.12)">
       <use xlink:href="#BitstreamVeraSans-Roman-30"/>
       <use x="63.623046875" xlink:href="#BitstreamVeraSans-Roman-2e"/>
       <use x="95.41015625" xlink:href="#BitstreamVeraSans-Roman-32"/>
      </g>
     </g>
    </g>
    <g id="ytick_9">
     <g id="line2d_49">
      <g>
       <use style="stroke:#000000;stroke-width:0.5;" x="315.490909091" xlink:href="#m728421d6d4" y="250.56"/>
      </g>
     </g>
     <g id="line2d_50">
      <g>
       <use style="stroke:#000000;stroke-width:0.5;" x="518.4" xlink:href="#mcb0005524f" y="250.56"/>
      </g>
     </g>
     <g id="text_29">
      <!-- 0.4 -->
      <g transform="translate(293.871534091 253.87125)scale(0.12 -0.12)">
       <use xlink:href="#BitstreamVeraSans-Roman-30"/>
       <use x="63.623046875" xlink:href="#BitstreamVeraSans-Roman-2e"/>
       <use x="95.41015625" xlink:href="#BitstreamVeraSans-Roman-34"/>
      </g>
     </g>
    </g>
    <g id="ytick_10">
     <g id="line2d_51">
      <g>
       <use style="stroke:#000000;stroke-width:0.5;" x="315.490909091" xlink:href="#m728421d6d4" y="181.44"/>
      </g>
     </g>
     <g id="line2d_52">
      <g>
       <use style="stroke:#000000;stroke-width:0.5;" x="518.4" xlink:href="#mcb0005524f" y="181.44"/>
      </g>
     </g>
     <g id="text_30">
      <!-- 0.6 -->
      <g transform="translate(293.954034091 184.75125)scale(0.12 -0.12)">
       <use xlink:href="#BitstreamVeraSans-Roman-30"/>
       <use x="63.623046875" xlink:href="#BitstreamVeraSans-Roman-2e"/>
       <use x="95.41015625" xlink:href="#BitstreamVeraSans-Roman-36"/>
      </g>
     </g>
    </g>
    <g id="ytick_11">
     <g id="line2d_53">
      <g>
       <use style="stroke:#000000;stroke-width:0.5;" x="315.490909091" xlink:href="#m728421d6d4" y="112.32"/>
      </g>
     </g>
     <g id="line2d_54">
      <g>
       <use style="stroke:#000000;stroke-width:0.5;" x="518.4" xlink:href="#mcb0005524f" y="112.32"/>
      </g>
     </g>
     <g id="text_31">
      <!-- 0.8 -->
      <g transform="translate(294.019659091 115.63125)scale(0.12 -0.12)">
       <use xlink:href="#BitstreamVeraSans-Roman-30"/>
       <use x="63.623046875" xlink:href="#BitstreamVeraSans-Roman-2e"/>
       <use x="95.41015625" xlink:href="#BitstreamVeraSans-Roman-38"/>
      </g>
     </g>
    </g>
    <g id="ytick_12">
     <g id="line2d_55">
      <g>
       <use style="stroke:#000000;stroke-width:0.5;" x="315.490909091" xlink:href="#m728421d6d4" y="43.2"/>
      </g>
     </g>
     <g id="line2d_56">
      <g>
       <use style="stroke:#000000;stroke-width:0.5;" x="518.4" xlink:href="#mcb0005524f" y="43.2"/>
      </g>
     </g>
     <g id="text_32">
      <!-- 1.0 -->
      <g transform="translate(294.522159091 46.51125)scale(0.12 -0.12)">
       <use xlink:href="#BitstreamVeraSans-Roman-31"/>
       <use x="63.623046875" xlink:href="#BitstreamVeraSans-Roman-2e"/>
       <use x="95.41015625" xlink:href="#BitstreamVeraSans-Roman-30"/>
      </g>
     </g>
    </g>
   </g>
   <g id="text_33">
    <!-- Free-Choice Trials -->
    <defs>
     <path d="
M9.8125 72.9062
L51.7031 72.9062
L51.7031 64.5938
L19.6719 64.5938
L19.6719 43.1094
L48.5781 43.1094
L48.5781 34.8125
L19.6719 34.8125
L19.6719 0
L9.8125 0
z
" id="BitstreamVeraSans-Roman-46"/>
     <path d="
M64.4062 67.2812
L64.4062 56.8906
Q59.4219 61.5312 53.7812 63.8125
Q48.1406 66.1094 41.7969 66.1094
Q29.2969 66.1094 22.6562 58.4688
Q16.0156 50.8281 16.0156 36.375
Q16.0156 21.9688 22.6562 14.3281
Q29.2969 6.6875 41.7969 6.6875
Q48.1406 6.6875 53.7812 8.98438
Q59.4219 11.2812 64.4062 15.9219
L64.4062 5.60938
Q59.2344 2.09375 53.4375 0.328125
Q47.6562 -1.42188 41.2188 -1.42188
Q24.6562 -1.42188 15.125 8.70312
Q5.60938 18.8438 5.60938 36.375
Q5.60938 53.9531 15.125 64.0781
Q24.6562 74.2188 41.2188 74.2188
Q47.75 74.2188 53.5312 72.4844
Q59.3281 70.75 64.4062 67.2812" id="BitstreamVeraSans-Roman-43"/>
     <path d="
M4.89062 31.3906
L31.2031 31.3906
L31.2031 23.3906
L4.89062 23.3906
z
" id="BitstreamVeraSans-Roman-2d"/>
    </defs>
    <g transform="translate(354.288579545 38.2)scale(0.144 -0.144)">
     <use xlink:href="#BitstreamVeraSans-Roman-46"/>
     <use x="50.26953125" xlink:href="#BitstreamVeraSans-Roman-72"/>
     <use x="89.1328125" xlink:href="#BitstreamVeraSans-Roman-65"/>
     <use x="150.65625" xlink:href="#BitstreamVeraSans-Roman-65"/>
     <use x="212.1796875" xlink:href="#BitstreamVeraSans-Roman-2d"/>
     <use x="248.263671875" xlink:href="#BitstreamVeraSans-Roman-43"/>
     <use x="318.087890625" xlink:href="#BitstreamVeraSans-Roman-68"/>
     <use x="381.466796875" xlink:href="#BitstreamVeraSans-Roman-6f"/>
     <use x="442.6484375" xlink:href="#BitstreamVeraSans-Roman-69"/>
     <use x="470.431640625" xlink:href="#BitstreamVeraSans-Roman-63"/>
     <use x="525.412109375" xlink:href="#BitstreamVeraSans-Roman-65"/>
     <use x="586.935546875" xlink:href="#BitstreamVeraSans-Roman-20"/>
     <use x="618.72265625" xlink:href="#BitstreamVeraSans-Roman-54"/>
     <use x="665.056640625" xlink:href="#BitstreamVeraSans-Roman-72"/>
     <use x="706.169921875" xlink:href="#BitstreamVeraSans-Roman-69"/>
     <use x="733.953125" xlink:href="#BitstreamVeraSans-Roman-61"/>
     <use x="795.232421875" xlink:href="#BitstreamVeraSans-Roman-6c"/>
     <use x="823.015625" xlink:href="#BitstreamVeraSans-Roman-73"/>
    </g>
   </g>
   <g id="legend_2">
    <g id="patch_13">
     <path d="
M430.495 96.993
L511.2 96.993
L511.2 50.4
L430.495 50.4
z
" style="fill:#ffffff;stroke:#000000;stroke-linejoin:miter;"/>
    </g>
    <g id="line2d_57">
     <path d="
M440.575 62.0617
L460.735 62.0617" style="fill:none;stroke:#0000ff;stroke-linecap:square;"/>
    </g>
    <g id="line2d_58"/>
    <g id="text_34">
     <!-- high -->
     <g transform="translate(476.57475 67.10175)scale(0.144 -0.144)">
      <use xlink:href="#BitstreamVeraSans-Roman-68"/>
      <use x="63.37890625" xlink:href="#BitstreamVeraSans-Roman-69"/>
      <use x="91.162109375" xlink:href="#BitstreamVeraSans-Roman-67"/>
      <use x="154.638671875" xlink:href="#BitstreamVeraSans-Roman-68"/>
     </g>
    </g>
    <g id="line2d_59">
     <path d="
M440.575 83.1982
L460.735 83.1982" style="fill:none;stroke:#ff0000;stroke-linecap:square;"/>
    </g>
    <g id="line2d_60"/>
    <g id="text_35">
     <!-- low -->
     <g transform="translate(476.57475 88.23825)scale(0.144 -0.144)">
      <use xlink:href="#BitstreamVeraSans-Roman-6c"/>
      <use x="27.783203125" xlink:href="#BitstreamVeraSans-Roman-6f"/>
      <use x="88.96484375" xlink:href="#BitstreamVeraSans-Roman-77"/>
     </g>
    </g>
   </g>
  </g>
 </g>
 <defs>
  <clipPath id="p346f55e68c">
   <rect height="345.6" width="202.909090909" x="72.0" y="43.2"/>
  </clipPath>
  <clipPath id="pc565ddf9d5">
   <rect height="345.6" width="202.909090909" x="315.490909091" y="43.2"/>
  </clipPath>
 </defs>
</svg>
