<?xml version="1.0" encoding="utf-8" standalone="no"?>
<!DOCTYPE svg PUBLIC "-//W3C//DTD SVG 1.1//EN"
  "http://www.w3.org/Graphics/SVG/1.1/DTD/svg11.dtd">
<!-- Created with matplotlib (http://matplotlib.org/) -->
<svg height="432pt" version="1.1" viewBox="0 0 576 432" width="576pt" xmlns="http://www.w3.org/2000/svg" xmlns:xlink="http://www.w3.org/1999/xlink">
 <defs>
  <style type="text/css">
*{stroke-linecap:butt;stroke-linejoin:round;}
  </style>
 </defs>
 <g id="figure_1">
  <g id="patch_1">
   <path d="
M0 432
L576 432
L576 0
L0 0
z
" style="fill:#ffffff;"/>
  </g>
  <g id="axes_1">
   <g id="patch_2">
    <path d="
M492.615 384.84
L511.451 384.84
L511.451 335.455
L492.615 335.455
z
" style="fill:#ffffff;"/>
   </g>
   <g id="PolyCollection_1">
    <defs>
     <path d="
M493.661 -70.941
L493.661 -63.1687
L493.766 -61.8878
L493.871 -61.2397
L493.975 -62.6074
L494.08 -59.3095
L494.185 -60.6524
L494.289 -62.8799
L494.394 -60.8786
L494.498 -60.1028
L494.603 -63.8732
L494.708 -60.1345
L494.812 -64.3761
L494.917 -63.9202
L495.022 -63.3395
L495.126 -64.3937
L495.231 -59.2946
L495.336 -59.3208
L495.44 -62.0888
L495.545 -63.1596
L495.65 -59.324
L495.754 -59.3095
L495.859 -61.2366
L495.963 -60.1034
L496.068 -59.4151
L496.173 -60.6232
L496.277 -61.2547
L496.382 -63.0297
L496.487 -60.3031
L496.591 -64.9833
L496.696 -59.1639
L496.801 -60.9626
L496.905 -60.0778
L497.01 -60.4064
L497.115 -59.3237
L497.219 -59.3237
L497.324 -61.3463
L497.428 -62.5978
L497.533 -61.4207
L497.638 -61.3745
L497.742 -62.3404
L497.847 -61.4622
L497.952 -59.1639
L498.056 -62.396
L498.161 -59.337
L498.266 -61.5055
L498.37 -59.4151
L498.475 -61.8327
L498.58 -59.337
L498.684 -61.0817
L498.789 -59.3753
L498.893 -63.8429
L498.998 -60.3578
L499.103 -61.2141
L499.207 -59.4093
L499.312 -61.0547
L499.417 -64.449
L499.521 -59.3188
L499.626 -61.1047
L499.731 -60.2408
L499.835 -59.1639
L499.94 -60.1397
L500.045 -63.4873
L500.149 -59.3423
L500.254 -59.1639
L500.358 -61.7978
L500.463 -59.3095
L500.568 -63.223
L500.672 -62.93
L500.777 -59.311
L500.882 -59.1639
L500.986 -60.3543
L501.091 -59.1639
L501.196 -59.2858
L501.3 -61.0026
L501.405 -60.5346
L501.51 -59.324
L501.614 -61.4611
L501.719 -60.2608
L501.824 -59.2846
L501.928 -59.1639
L502.033 -59.3519
L502.137 -61.798
L502.242 -59.369
L502.347 -60.1666
L502.451 -60.3097
L502.556 -59.3519
L502.661 -60.6343
L502.765 -59.2858
L502.87 -60.4382
L502.975 -59.302
L503.079 -60.3578
L503.184 -59.3375
L503.289 -60.2824
L503.393 -59.1639
L503.498 -59.3435
L503.602 -59.324
L503.707 -59.1639
L503.812 -59.3519
L503.916 -59.306
L504.021 -59.1639
L504.126 -61.1435
L504.23 -62.2523
L504.335 -59.1639
L504.44 -60.6664
L504.544 -59.3409
L504.649 -62.8177
L504.754 -61.8168
L504.858 -59.1639
L504.963 -61.1581
L505.067 -59.1639
L505.172 -65.5852
L505.277 -63.0433
L505.381 -59.3286
L505.486 -63.3631
L505.591 -62.241
L505.695 -64.6759
L505.8 -61.5302
L505.905 -61.5367
L506.009 -62.1642
L506.114 -62.1802
L506.219 -59.3182
L506.323 -62.3996
L506.428 -59.2781
L506.532 -62.2365
L506.637 -62.4492
L506.742 -63.726
L506.846 -60.1427
L506.951 -60.0852
L507.056 -60.3161
L507.16 -65.1881
L507.265 -62.6169
L507.37 -60.4702
L507.474 -62.2421
L507.579 -59.1639
L507.684 -60.5095
L507.788 -64.4917
L507.893 -59.311
L507.997 -60.1188
L508.102 -61.4716
L508.207 -59.3182
L508.311 -60.4008
L508.416 -59.302
L508.521 -60.5566
L508.625 -63.5542
L508.73 -61.77
L508.835 -60.5346
L508.939 -64.3091
L509.044 -63.4997
L509.149 -63.4282
L509.253 -59.3107
L509.358 -59.3107
L509.462 -59.3574
L509.567 -59.3317
L509.672 -61.7632
L509.776 -61.1137
L509.881 -59.369
L509.986 -67.105
L510.09 -61.0213
L510.195 -59.3574
L510.3 -59.3625
L510.3 -61.439
L510.3 -61.439
L510.195 -61.9759
L510.09 -65.532
L509.986 -78.9139
L509.881 -63.5714
L509.776 -65.7483
L509.672 -69.6169
L509.567 -62.3749
L509.462 -61.9759
L509.358 -62.0138
L509.253 -62.0138
L509.149 -72.5237
L509.044 -71.8633
L508.939 -72.1543
L508.835 -66.5076
L508.73 -69.1448
L508.625 -72.0828
L508.521 -66.2141
L508.416 -62.7009
L508.311 -65.4698
L508.207 -61.4877
L508.102 -67.6985
L507.997 -63.7888
L507.893 -62.9195
L507.788 -73.9602
L507.684 -66.5093
L507.579 -59.4989
L507.474 -69.5452
L507.37 -67.2891
L507.265 -70.8234
L507.16 -76.3976
L507.056 -64.854
L506.951 -63.4403
L506.846 -64.0928
L506.742 -70.9876
L506.637 -70.8662
L506.532 -71.359
L506.428 -64.2097
L506.323 -68.804
L506.219 -61.4877
L506.114 -67.439
L506.009 -71.6433
L505.905 -67.4633
L505.8 -68.7391
L505.695 -75.0928
L505.591 -70.4945
L505.486 -69.0604
L505.381 -65.1317
L505.277 -70.3421
L505.172 -73.3926
L505.067 -59.4989
L504.963 -65.7815
L504.858 -59.4989
L504.754 -69.5449
L504.649 -70.0061
L504.544 -62.5349
L504.44 -69.6099
L504.335 -59.4989
L504.23 -70.4338
L504.126 -66.0176
L504.021 -59.4989
L503.916 -66.037
L503.812 -62.7248
L503.707 -59.4989
L503.602 -61.922
L503.498 -61.9257
L503.393 -59.4989
L503.289 -64.4648
L503.184 -62.1235
L503.079 -65.5965
L502.975 -62.7009
L502.87 -66.8223
L502.765 -62.9116
L502.661 -67.0388
L502.556 -62.7248
L502.451 -67.3199
L502.347 -64.049
L502.242 -63.5714
L502.137 -68.7779
L502.033 -62.7248
L501.928 -59.4989
L501.824 -65.4919
L501.719 -64.4224
L501.614 -67.5795
L501.51 -61.922
L501.405 -66.5076
L501.3 -68.8441
L501.196 -62.9116
L501.091 -59.4989
L500.986 -65.2163
L500.882 -59.4989
L500.777 -62.9195
L500.672 -72.454
L500.568 -70.9172
L500.463 -62.3684
L500.358 -71.013
L500.254 -59.4989
L500.149 -64.6088
L500.045 -71.6902
L499.94 -63.9297
L499.835 -59.4989
L499.731 -64.6271
L499.626 -65.5388
L499.521 -62.8098
L499.417 -72.4163
L499.312 -65.5621
L499.207 -61.2175
L499.103 -66.0621
L498.998 -65.5965
L498.893 -71.5297
L498.789 -61.7349
L498.684 -65.3804
L498.58 -61.97
L498.475 -73.0322
L498.37 -63.1758
L498.266 -67.8
L498.161 -61.97
L498.056 -68.6741
L497.952 -59.4989
L497.847 -69.9479
L497.742 -68.1709
L497.638 -66.464
L497.533 -67.4624
L497.428 -69.9811
L497.324 -67.1953
L497.219 -62.2378
L497.115 -62.2378
L497.01 -66.7156
L496.905 -63.1555
L496.801 -68.624
L496.696 -59.4989
L496.591 -73.774
L496.487 -64.9424
L496.382 -71.4612
L496.277 -70.3075
L496.173 -66.8956
L496.068 -63.1758
L495.963 -63.3687
L495.859 -66.0104
L495.754 -62.3684
L495.65 -61.922
L495.545 -75.5645
L495.44 -69.6583
L495.336 -63.9631
L495.231 -64.9686
L495.126 -74.345
L495.022 -71.6578
L494.917 -72.5466
L494.812 -72.4733
L494.708 -63.7179
L494.603 -70.6643
L494.498 -63.5678
L494.394 -64.3344
L494.289 -71.1391
L494.185 -68.3569
L494.08 -62.3684
L493.975 -68.6639
L493.871 -66.0649
L493.766 -71.6435
L493.661 -70.941
z
" id="ma52d569ea7"/>
    </defs>
    <g clip-path="url(#p936f119476)">
     <use style="fill:#808080;fill-opacity:0.5;" x="0.0" xlink:href="#ma52d569ea7" y="432.0"/>
    </g>
   </g>
   <g id="line2d_1">
    <path clip-path="url(#p936f119476)" d="
M493.661 364.945
L493.766 365.234
L493.871 368.348
L493.975 366.364
L494.08 371.161
L494.289 364.991
L494.498 370.165
L494.603 364.731
L494.708 370.074
L494.812 363.575
L494.917 363.767
L495.022 364.501
L495.126 362.631
L495.336 370.358
L495.545 362.638
L495.65 371.377
L495.754 371.161
L495.859 368.376
L496.068 370.705
L496.382 364.755
L496.487 369.377
L496.591 362.621
L496.696 372.669
L496.801 367.207
L496.905 370.383
L497.01 368.439
L497.219 371.219
L497.428 365.711
L497.638 368.081
L497.847 366.295
L497.952 372.669
L498.056 366.465
L498.161 371.347
L498.266 367.347
L498.37 370.705
L498.475 364.568
L498.58 371.347
L498.684 368.769
L498.789 371.445
L498.893 364.314
L498.998 369.023
L499.103 368.362
L499.207 371.687
L499.417 363.567
L499.521 370.936
L499.626 368.678
L499.731 369.566
L499.835 372.669
L500.045 364.411
L500.254 372.669
L500.358 365.595
L500.463 371.161
L500.672 364.308
L500.882 372.669
L500.986 369.215
L501.091 372.669
L501.196 370.901
L501.3 367.077
L501.405 368.479
L501.51 371.377
L501.614 367.48
L501.928 372.669
L502.033 370.962
L502.137 366.712
L502.242 370.53
L502.347 369.892
L502.451 368.185
L502.556 370.962
L502.661 368.163
L502.765 370.901
L502.87 368.37
L502.975 370.999
L503.079 369.023
L503.184 371.27
L503.289 369.626
L503.393 372.669
L503.498 371.365
L503.602 371.377
L503.707 372.669
L503.916 369.328
L504.021 372.669
L504.23 365.657
L504.335 372.669
L504.44 366.862
L504.544 371.062
L504.649 365.588
L504.754 366.319
L504.858 372.669
L504.963 368.53
L505.067 372.669
L505.172 362.511
L505.381 369.77
L505.591 365.632
L505.695 362.116
L505.905 367.5
L506.009 365.096
L506.114 367.19
L506.219 371.597
L506.323 366.398
L506.428 370.256
L506.532 365.202
L506.637 365.342
L506.742 364.643
L506.951 370.237
L507.056 369.415
L507.16 361.207
L507.37 368.12
L507.474 366.106
L507.579 372.669
L507.788 362.774
L507.893 370.885
L507.997 370.046
L508.102 367.415
L508.207 371.597
L508.311 369.065
L508.416 370.999
L508.625 364.182
L508.835 368.479
L508.939 363.768
L509.044 364.319
L509.149 364.024
L509.358 371.338
L509.462 371.333
L509.567 371.147
L509.672 366.31
L509.881 370.53
L509.986 358.991
L510.195 371.333
L510.3 371.599
L510.3 371.599" style="fill:none;stroke:#0000ff;stroke-linecap:square;"/>
   </g>
   <g id="line2d_2">
    <defs>
     <path d="
M-3 3
L3 -3
M-3 -3
L3 3" id="m562aef8efe" style="stroke:#ff0000;stroke-width:0.5;"/>
    </defs>
    <g clip-path="url(#p936f119476)">
     <use style="fill:#ff0000;stroke:#ff0000;stroke-width:0.5;" x="495.649530506" xlink:href="#m562aef8efe" y="351.916630435"/>
     <use style="fill:#ff0000;stroke:#ff0000;stroke-width:0.5;" x="496.695966518" xlink:href="#m562aef8efe" y="351.916630435"/>
     <use style="fill:#ff0000;stroke:#ff0000;stroke-width:0.5;" x="497.951689732" xlink:href="#m562aef8efe" y="351.916630435"/>
     <use style="fill:#ff0000;stroke:#ff0000;stroke-width:0.5;" x="498.160976935" xlink:href="#m562aef8efe" y="351.916630435"/>
     <use style="fill:#ff0000;stroke:#ff0000;stroke-width:0.5;" x="498.579551339" xlink:href="#m562aef8efe" y="351.916630435"/>
     <use style="fill:#ff0000;stroke:#ff0000;stroke-width:0.5;" x="498.788838542" xlink:href="#m562aef8efe" y="351.916630435"/>
     <use style="fill:#ff0000;stroke:#ff0000;stroke-width:0.5;" x="499.207412946" xlink:href="#m562aef8efe" y="351.916630435"/>
     <use style="fill:#ff0000;stroke:#ff0000;stroke-width:0.5;" x="499.835274554" xlink:href="#m562aef8efe" y="351.916630435"/>
     <use style="fill:#ff0000;stroke:#ff0000;stroke-width:0.5;" x="500.253848958" xlink:href="#m562aef8efe" y="351.916630435"/>
     <use style="fill:#ff0000;stroke:#ff0000;stroke-width:0.5;" x="500.881710565" xlink:href="#m562aef8efe" y="351.916630435"/>
     <use style="fill:#ff0000;stroke:#ff0000;stroke-width:0.5;" x="501.090997768" xlink:href="#m562aef8efe" y="351.916630435"/>
     <use style="fill:#ff0000;stroke:#ff0000;stroke-width:0.5;" x="501.509572173" xlink:href="#m562aef8efe" y="351.916630435"/>
     <use style="fill:#ff0000;stroke:#ff0000;stroke-width:0.5;" x="501.928146577" xlink:href="#m562aef8efe" y="351.916630435"/>
     <use style="fill:#ff0000;stroke:#ff0000;stroke-width:0.5;" x="503.183869792" xlink:href="#m562aef8efe" y="351.916630435"/>
     <use style="fill:#ff0000;stroke:#ff0000;stroke-width:0.5;" x="503.393156994" xlink:href="#m562aef8efe" y="351.916630435"/>
     <use style="fill:#ff0000;stroke:#ff0000;stroke-width:0.5;" x="503.497800595" xlink:href="#m562aef8efe" y="351.916630435"/>
     <use style="fill:#ff0000;stroke:#ff0000;stroke-width:0.5;" x="503.602444196" xlink:href="#m562aef8efe" y="351.916630435"/>
     <use style="fill:#ff0000;stroke:#ff0000;stroke-width:0.5;" x="503.707087798" xlink:href="#m562aef8efe" y="351.916630435"/>
     <use style="fill:#ff0000;stroke:#ff0000;stroke-width:0.5;" x="504.021018601" xlink:href="#m562aef8efe" y="351.916630435"/>
     <use style="fill:#ff0000;stroke:#ff0000;stroke-width:0.5;" x="504.334949405" xlink:href="#m562aef8efe" y="351.916630435"/>
     <use style="fill:#ff0000;stroke:#ff0000;stroke-width:0.5;" x="504.858167411" xlink:href="#m562aef8efe" y="351.916630435"/>
     <use style="fill:#ff0000;stroke:#ff0000;stroke-width:0.5;" x="505.067454613" xlink:href="#m562aef8efe" y="351.916630435"/>
     <use style="fill:#ff0000;stroke:#ff0000;stroke-width:0.5;" x="506.218534226" xlink:href="#m562aef8efe" y="351.916630435"/>
     <use style="fill:#ff0000;stroke:#ff0000;stroke-width:0.5;" x="507.578901042" xlink:href="#m562aef8efe" y="351.916630435"/>
     <use style="fill:#ff0000;stroke:#ff0000;stroke-width:0.5;" x="508.206762649" xlink:href="#m562aef8efe" y="351.916630435"/>
     <use style="fill:#ff0000;stroke:#ff0000;stroke-width:0.5;" x="509.253198661" xlink:href="#m562aef8efe" y="351.916630435"/>
     <use style="fill:#ff0000;stroke:#ff0000;stroke-width:0.5;" x="509.357842262" xlink:href="#m562aef8efe" y="351.916630435"/>
     <use style="fill:#ff0000;stroke:#ff0000;stroke-width:0.5;" x="509.462485863" xlink:href="#m562aef8efe" y="351.916630435"/>
     <use style="fill:#ff0000;stroke:#ff0000;stroke-width:0.5;" x="510.194991071" xlink:href="#m562aef8efe" y="351.916630435"/>
     <use style="fill:#ff0000;stroke:#ff0000;stroke-width:0.5;" x="510.299634673" xlink:href="#m562aef8efe" y="351.916630435"/>
    </g>
   </g>
   <g id="line2d_3">
    <path clip-path="url(#p936f119476)" d="
M493.661 368.378
L510.3 368.378
L510.3 368.378" style="fill:none;stroke:#000000;stroke-dasharray:6.000000,6.000000;stroke-dashoffset:0.0;"/>
   </g>
   <g id="patch_3">
    <path d="
M492.615 335.455
L511.451 335.455" style="fill:none;stroke:#000000;stroke-linecap:square;stroke-linejoin:miter;"/>
   </g>
   <g id="patch_4">
    <path d="
M511.451 384.84
L511.451 335.455" style="fill:none;stroke:#000000;stroke-linecap:square;stroke-linejoin:miter;"/>
   </g>
   <g id="patch_5">
    <path d="
M492.615 384.84
L511.451 384.84" style="fill:none;stroke:#000000;stroke-linecap:square;stroke-linejoin:miter;"/>
   </g>
   <g id="patch_6">
    <path d="
M492.615 384.84
L492.615 335.455" style="fill:none;stroke:#000000;stroke-linecap:square;stroke-linejoin:miter;"/>
   </g>
   <g id="matplotlib.axis_1">
    <g id="xtick_1">
     <g id="line2d_4">
      <defs>
       <path d="
M0 0
L0 -4" id="m93b0483c22" style="stroke:#000000;stroke-width:0.5;"/>
      </defs>
      <g>
       <use style="stroke:#000000;stroke-width:0.5;" x="492.614866071" xlink:href="#m93b0483c22" y="384.84"/>
      </g>
     </g>
     <g id="line2d_5">
      <defs>
       <path d="
M0 0
L0 4" id="m741efc42ff" style="stroke:#000000;stroke-width:0.5;"/>
      </defs>
      <g>
       <use style="stroke:#000000;stroke-width:0.5;" x="492.614866071" xlink:href="#m741efc42ff" y="335.454945652"/>
      </g>
     </g>
     <g id="text_1">
      <!-- −6 -->
      <defs>
       <path d="
M10.5938 35.5
L73.1875 35.5
L73.1875 27.2031
L10.5938 27.2031
z
" id="BitstreamVeraSans-Roman-2212"/>
       <path d="
M33.0156 40.375
Q26.375 40.375 22.4844 35.8281
Q18.6094 31.2969 18.6094 23.3906
Q18.6094 15.5312 22.4844 10.9531
Q26.375 6.39062 33.0156 6.39062
Q39.6562 6.39062 43.5312 10.9531
Q47.4062 15.5312 47.4062 23.3906
Q47.4062 31.2969 43.5312 35.8281
Q39.6562 40.375 33.0156 40.375
M52.5938 71.2969
L52.5938 62.3125
Q48.875 64.0625 45.0938 64.9844
Q41.3125 65.9219 37.5938 65.9219
Q27.8281 65.9219 22.6719 59.3281
Q17.5312 52.7344 16.7969 39.4062
Q19.6719 43.6562 24.0156 45.9219
Q28.375 48.1875 33.5938 48.1875
Q44.5781 48.1875 50.9531 41.5156
Q57.3281 34.8594 57.3281 23.3906
Q57.3281 12.1562 50.6875 5.35938
Q44.0469 -1.42188 33.0156 -1.42188
Q20.3594 -1.42188 13.6719 8.26562
Q6.98438 17.9688 6.98438 36.375
Q6.98438 53.6562 15.1875 63.9375
Q23.3906 74.2188 37.2031 74.2188
Q40.9219 74.2188 44.7031 73.4844
Q48.4844 72.75 52.5938 71.2969" id="BitstreamVeraSans-Roman-36"/>
      </defs>
      <g transform="translate(484.782991071 397.958125)scale(0.12 -0.12)">
       <use xlink:href="#BitstreamVeraSans-Roman-2212"/>
       <use x="83.7890625" xlink:href="#BitstreamVeraSans-Roman-36"/>
      </g>
     </g>
    </g>
    <g id="xtick_2">
     <g id="line2d_6">
      <g>
       <use style="stroke:#000000;stroke-width:0.5;" x="494.707738095" xlink:href="#m93b0483c22" y="384.84"/>
      </g>
     </g>
     <g id="line2d_7">
      <g>
       <use style="stroke:#000000;stroke-width:0.5;" x="494.707738095" xlink:href="#m741efc42ff" y="335.454945652"/>
      </g>
     </g>
     <g id="text_2">
      <!-- −4 -->
      <defs>
       <path d="
M37.7969 64.3125
L12.8906 25.3906
L37.7969 25.3906
z

M35.2031 72.9062
L47.6094 72.9062
L47.6094 25.3906
L58.0156 25.3906
L58.0156 17.1875
L47.6094 17.1875
L47.6094 0
L37.7969 0
L37.7969 17.1875
L4.89062 17.1875
L4.89062 26.7031
z
" id="BitstreamVeraSans-Roman-34"/>
      </defs>
      <g transform="translate(486.834613095 397.958125)scale(0.12 -0.12)">
       <use xlink:href="#BitstreamVeraSans-Roman-2212"/>
       <use x="83.7890625" xlink:href="#BitstreamVeraSans-Roman-34"/>
      </g>
     </g>
    </g>
    <g id="xtick_3">
     <g id="line2d_8">
      <g>
       <use style="stroke:#000000;stroke-width:0.5;" x="496.800610119" xlink:href="#m93b0483c22" y="384.84"/>
      </g>
     </g>
     <g id="line2d_9">
      <g>
       <use style="stroke:#000000;stroke-width:0.5;" x="496.800610119" xlink:href="#m741efc42ff" y="335.454945652"/>
      </g>
     </g>
     <g id="text_3">
      <!-- −2 -->
      <defs>
       <path d="
M19.1875 8.29688
L53.6094 8.29688
L53.6094 0
L7.32812 0
L7.32812 8.29688
Q12.9375 14.1094 22.625 23.8906
Q32.3281 33.6875 34.8125 36.5312
Q39.5469 41.8438 41.4219 45.5312
Q43.3125 49.2188 43.3125 52.7812
Q43.3125 58.5938 39.2344 62.25
Q35.1562 65.9219 28.6094 65.9219
Q23.9688 65.9219 18.8125 64.3125
Q13.6719 62.7031 7.8125 59.4219
L7.8125 69.3906
Q13.7656 71.7812 18.9375 73
Q24.125 74.2188 28.4219 74.2188
Q39.75 74.2188 46.4844 68.5469
Q53.2188 62.8906 53.2188 53.4219
Q53.2188 48.9219 51.5312 44.8906
Q49.8594 40.875 45.4062 35.4062
Q44.1875 33.9844 37.6406 27.2188
Q31.1094 20.4531 19.1875 8.29688" id="BitstreamVeraSans-Roman-32"/>
      </defs>
      <g transform="translate(489.191860119 397.958125)scale(0.12 -0.12)">
       <use xlink:href="#BitstreamVeraSans-Roman-2212"/>
       <use x="83.7890625" xlink:href="#BitstreamVeraSans-Roman-32"/>
      </g>
     </g>
    </g>
    <g id="xtick_4">
     <g id="line2d_10">
      <g>
       <use style="stroke:#000000;stroke-width:0.5;" x="498.893482143" xlink:href="#m93b0483c22" y="384.84"/>
      </g>
     </g>
     <g id="line2d_11">
      <g>
       <use style="stroke:#000000;stroke-width:0.5;" x="498.893482143" xlink:href="#m741efc42ff" y="335.454945652"/>
      </g>
     </g>
     <g id="text_4">
      <!-- 0 -->
      <defs>
       <path d="
M31.7812 66.4062
Q24.1719 66.4062 20.3281 58.9062
Q16.5 51.4219 16.5 36.375
Q16.5 21.3906 20.3281 13.8906
Q24.1719 6.39062 31.7812 6.39062
Q39.4531 6.39062 43.2812 13.8906
Q47.125 21.3906 47.125 36.375
Q47.125 51.4219 43.2812 58.9062
Q39.4531 66.4062 31.7812 66.4062
M31.7812 74.2188
Q44.0469 74.2188 50.5156 64.5156
Q56.9844 54.8281 56.9844 36.375
Q56.9844 17.9688 50.5156 8.26562
Q44.0469 -1.42188 31.7812 -1.42188
Q19.5312 -1.42188 13.0625 8.26562
Q6.59375 17.9688 6.59375 36.375
Q6.59375 54.8281 13.0625 64.5156
Q19.5312 74.2188 31.7812 74.2188" id="BitstreamVeraSans-Roman-30"/>
      </defs>
      <g transform="translate(495.870044643 397.958125)scale(0.12 -0.12)">
       <use xlink:href="#BitstreamVeraSans-Roman-30"/>
      </g>
     </g>
    </g>
    <g id="xtick_5">
     <g id="line2d_12">
      <g>
       <use style="stroke:#000000;stroke-width:0.5;" x="500.986354167" xlink:href="#m93b0483c22" y="384.84"/>
      </g>
     </g>
     <g id="line2d_13">
      <g>
       <use style="stroke:#000000;stroke-width:0.5;" x="500.986354167" xlink:href="#m741efc42ff" y="335.454945652"/>
      </g>
     </g>
     <g id="text_5">
      <!-- 2 -->
      <g transform="translate(498.209479167 397.958125)scale(0.12 -0.12)">
       <use xlink:href="#BitstreamVeraSans-Roman-32"/>
      </g>
     </g>
    </g>
    <g id="xtick_6">
     <g id="line2d_14">
      <g>
       <use style="stroke:#000000;stroke-width:0.5;" x="503.07922619" xlink:href="#m93b0483c22" y="384.84"/>
      </g>
     </g>
     <g id="line2d_15">
      <g>
       <use style="stroke:#000000;stroke-width:0.5;" x="503.07922619" xlink:href="#m741efc42ff" y="335.454945652"/>
      </g>
     </g>
     <g id="text_6">
      <!-- 4 -->
      <g transform="translate(499.89172619 397.958125)scale(0.12 -0.12)">
       <use xlink:href="#BitstreamVeraSans-Roman-34"/>
      </g>
     </g>
    </g>
    <g id="xtick_7">
     <g id="line2d_16">
      <g>
       <use style="stroke:#000000;stroke-width:0.5;" x="505.172098214" xlink:href="#m93b0483c22" y="384.84"/>
      </g>
     </g>
     <g id="line2d_17">
      <g>
       <use style="stroke:#000000;stroke-width:0.5;" x="505.172098214" xlink:href="#m741efc42ff" y="335.454945652"/>
      </g>
     </g>
     <g id="text_7">
      <!-- 6 -->
      <g transform="translate(502.151473214 397.958125)scale(0.12 -0.12)">
       <use xlink:href="#BitstreamVeraSans-Roman-36"/>
      </g>
     </g>
    </g>
    <g id="xtick_8">
     <g id="line2d_18">
      <g>
       <use style="stroke:#000000;stroke-width:0.5;" x="507.264970238" xlink:href="#m93b0483c22" y="384.84"/>
      </g>
     </g>
     <g id="line2d_19">
      <g>
       <use style="stroke:#000000;stroke-width:0.5;" x="507.264970238" xlink:href="#m741efc42ff" y="335.454945652"/>
      </g>
     </g>
     <g id="text_8">
      <!-- 8 -->
      <defs>
       <path d="
M31.7812 34.625
Q24.75 34.625 20.7188 30.8594
Q16.7031 27.0938 16.7031 20.5156
Q16.7031 13.9219 20.7188 10.1562
Q24.75 6.39062 31.7812 6.39062
Q38.8125 6.39062 42.8594 10.1719
Q46.9219 13.9688 46.9219 20.5156
Q46.9219 27.0938 42.8906 30.8594
Q38.875 34.625 31.7812 34.625
M21.9219 38.8125
Q15.5781 40.375 12.0312 44.7188
Q8.5 49.0781 8.5 55.3281
Q8.5 64.0625 14.7188 69.1406
Q20.9531 74.2188 31.7812 74.2188
Q42.6719 74.2188 48.875 69.1406
Q55.0781 64.0625 55.0781 55.3281
Q55.0781 49.0781 51.5312 44.7188
Q48 40.375 41.7031 38.8125
Q48.8281 37.1562 52.7969 32.3125
Q56.7812 27.4844 56.7812 20.5156
Q56.7812 9.90625 50.3125 4.23438
Q43.8438 -1.42188 31.7812 -1.42188
Q19.7344 -1.42188 13.25 4.23438
Q6.78125 9.90625 6.78125 20.5156
Q6.78125 27.4844 10.7812 32.3125
Q14.7969 37.1562 21.9219 38.8125
M18.3125 54.3906
Q18.3125 48.7344 21.8438 45.5625
Q25.3906 42.3906 31.7812 42.3906
Q38.1406 42.3906 41.7188 45.5625
Q45.3125 48.7344 45.3125 54.3906
Q45.3125 60.0625 41.7188 63.2344
Q38.1406 66.4062 31.7812 66.4062
Q25.3906 66.4062 21.8438 63.2344
Q18.3125 60.0625 18.3125 54.3906" id="BitstreamVeraSans-Roman-38"/>
      </defs>
      <g transform="translate(504.264970238 397.958125)scale(0.12 -0.12)">
       <use xlink:href="#BitstreamVeraSans-Roman-38"/>
      </g>
     </g>
    </g>
    <g id="xtick_9">
     <g id="line2d_20">
      <g>
       <use style="stroke:#000000;stroke-width:0.5;" x="509.357842262" xlink:href="#m93b0483c22" y="384.84"/>
      </g>
     </g>
     <g id="line2d_21">
      <g>
       <use style="stroke:#000000;stroke-width:0.5;" x="509.357842262" xlink:href="#m741efc42ff" y="335.454945652"/>
      </g>
     </g>
     <g id="text_9">
      <!-- 10 -->
      <defs>
       <path d="
M12.4062 8.29688
L28.5156 8.29688
L28.5156 63.9219
L10.9844 60.4062
L10.9844 69.3906
L28.4219 72.9062
L38.2812 72.9062
L38.2812 8.29688
L54.3906 8.29688
L54.3906 0
L12.4062 0
z
" id="BitstreamVeraSans-Roman-31"/>
      </defs>
      <g transform="translate(502.780342262 397.958125)scale(0.12 -0.12)">
       <use xlink:href="#BitstreamVeraSans-Roman-31"/>
       <use x="63.623046875" xlink:href="#BitstreamVeraSans-Roman-30"/>
      </g>
     </g>
    </g>
    <g id="xtick_10">
     <g id="line2d_22">
      <g>
       <use style="stroke:#000000;stroke-width:0.5;" x="511.450714286" xlink:href="#m93b0483c22" y="384.84"/>
      </g>
     </g>
     <g id="line2d_23">
      <g>
       <use style="stroke:#000000;stroke-width:0.5;" x="511.450714286" xlink:href="#m741efc42ff" y="335.454945652"/>
      </g>
     </g>
     <g id="text_10">
      <!-- 12 -->
      <g transform="translate(505.075714286 397.958125)scale(0.12 -0.12)">
       <use xlink:href="#BitstreamVeraSans-Roman-31"/>
       <use x="63.623046875" xlink:href="#BitstreamVeraSans-Roman-32"/>
      </g>
     </g>
    </g>
    <g id="text_11">
     <!-- Time (s) -->
     <defs>
      <path id="BitstreamVeraSans-Roman-20"/>
      <path d="
M8.01562 75.875
L15.8281 75.875
Q23.1406 64.3594 26.7812 53.3125
Q30.4219 42.2812 30.4219 31.3906
Q30.4219 20.4531 26.7812 9.375
Q23.1406 -1.70312 15.8281 -13.1875
L8.01562 -13.1875
Q14.5 -2 17.7031 9.0625
Q20.9062 20.125 20.9062 31.3906
Q20.9062 42.6719 17.7031 53.6562
Q14.5 64.6562 8.01562 75.875" id="BitstreamVeraSans-Roman-29"/>
      <path d="
M31 75.875
Q24.4688 64.6562 21.2812 53.6562
Q18.1094 42.6719 18.1094 31.3906
Q18.1094 20.125 21.3125 9.0625
Q24.5156 -2 31 -13.1875
L23.1875 -13.1875
Q15.875 -1.70312 12.2344 9.375
Q8.59375 20.4531 8.59375 31.3906
Q8.59375 42.2812 12.2031 53.3125
Q15.8281 64.3594 23.1875 75.875
z
" id="BitstreamVeraSans-Roman-28"/>
      <path d="
M9.42188 54.6875
L18.4062 54.6875
L18.4062 0
L9.42188 0
z

M9.42188 75.9844
L18.4062 75.9844
L18.4062 64.5938
L9.42188 64.5938
z
" id="BitstreamVeraSans-Roman-69"/>
      <path d="
M52 44.1875
Q55.375 50.25 60.0625 53.125
Q64.75 56 71.0938 56
Q79.6406 56 84.2812 50.0156
Q88.9219 44.0469 88.9219 33.0156
L88.9219 0
L79.8906 0
L79.8906 32.7188
Q79.8906 40.5781 77.0938 44.375
Q74.3125 48.1875 68.6094 48.1875
Q61.625 48.1875 57.5625 43.5469
Q53.5156 38.9219 53.5156 30.9062
L53.5156 0
L44.4844 0
L44.4844 32.7188
Q44.4844 40.625 41.7031 44.4062
Q38.9219 48.1875 33.1094 48.1875
Q26.2188 48.1875 22.1562 43.5312
Q18.1094 38.875 18.1094 30.9062
L18.1094 0
L9.07812 0
L9.07812 54.6875
L18.1094 54.6875
L18.1094 46.1875
Q21.1875 51.2188 25.4844 53.6094
Q29.7812 56 35.6875 56
Q41.6562 56 45.8281 52.9688
Q50 49.9531 52 44.1875" id="BitstreamVeraSans-Roman-6d"/>
      <path d="
M56.2031 29.5938
L56.2031 25.2031
L14.8906 25.2031
Q15.4844 15.9219 20.4844 11.0625
Q25.4844 6.20312 34.4219 6.20312
Q39.5938 6.20312 44.4531 7.46875
Q49.3125 8.73438 54.1094 11.2812
L54.1094 2.78125
Q49.2656 0.734375 44.1875 -0.34375
Q39.1094 -1.42188 33.8906 -1.42188
Q20.7969 -1.42188 13.1562 6.1875
Q5.51562 13.8125 5.51562 26.8125
Q5.51562 40.2344 12.7656 48.1094
Q20.0156 56 32.3281 56
Q43.3594 56 49.7812 48.8906
Q56.2031 41.7969 56.2031 29.5938
M47.2188 32.2344
Q47.125 39.5938 43.0938 43.9844
Q39.0625 48.3906 32.4219 48.3906
Q24.9062 48.3906 20.3906 44.1406
Q15.875 39.8906 15.1875 32.1719
z
" id="BitstreamVeraSans-Roman-65"/>
      <path d="
M-0.296875 72.9062
L61.375 72.9062
L61.375 64.5938
L35.5 64.5938
L35.5 0
L25.5938 0
L25.5938 64.5938
L-0.296875 64.5938
z
" id="BitstreamVeraSans-Roman-54"/>
      <path d="
M44.2812 53.0781
L44.2812 44.5781
Q40.4844 46.5312 36.375 47.5
Q32.2812 48.4844 27.875 48.4844
Q21.1875 48.4844 17.8438 46.4375
Q14.5 44.3906 14.5 40.2812
Q14.5 37.1562 16.8906 35.375
Q19.2812 33.5938 26.5156 31.9844
L29.5938 31.2969
Q39.1562 29.25 43.1875 25.5156
Q47.2188 21.7812 47.2188 15.0938
Q47.2188 7.46875 41.1875 3.01562
Q35.1562 -1.42188 24.6094 -1.42188
Q20.2188 -1.42188 15.4531 -0.5625
Q10.6875 0.296875 5.42188 2
L5.42188 11.2812
Q10.4062 8.6875 15.2344 7.39062
Q20.0625 6.10938 24.8125 6.10938
Q31.1562 6.10938 34.5625 8.28125
Q37.9844 10.4531 37.9844 14.4062
Q37.9844 18.0625 35.5156 20.0156
Q33.0625 21.9688 24.7031 23.7812
L21.5781 24.5156
Q13.2344 26.2656 9.51562 29.9062
Q5.8125 33.5469 5.8125 39.8906
Q5.8125 47.6094 11.2812 51.7969
Q16.75 56 26.8125 56
Q31.7812 56 36.1719 55.2656
Q40.5781 54.5469 44.2812 53.0781" id="BitstreamVeraSans-Roman-73"/>
     </defs>
     <g transform="translate(478.135915179 414.571875)scale(0.12 -0.12)">
      <use xlink:href="#BitstreamVeraSans-Roman-54"/>
      <use x="57.958984375" xlink:href="#BitstreamVeraSans-Roman-69"/>
      <use x="85.7421875" xlink:href="#BitstreamVeraSans-Roman-6d"/>
      <use x="183.154296875" xlink:href="#BitstreamVeraSans-Roman-65"/>
      <use x="244.677734375" xlink:href="#BitstreamVeraSans-Roman-20"/>
      <use x="276.46484375" xlink:href="#BitstreamVeraSans-Roman-28"/>
      <use x="315.478515625" xlink:href="#BitstreamVeraSans-Roman-73"/>
      <use x="367.578125" xlink:href="#BitstreamVeraSans-Roman-29"/>
     </g>
    </g>
   </g>
   <g id="matplotlib.axis_2">
    <g id="ytick_1">
     <g id="line2d_24">
      <defs>
       <path d="
M0 0
L4 0" id="m728421d6d4" style="stroke:#000000;stroke-width:0.5;"/>
      </defs>
      <g>
       <use style="stroke:#000000;stroke-width:0.5;" x="492.614866071" xlink:href="#m728421d6d4" y="384.84"/>
      </g>
     </g>
     <g id="line2d_25">
      <defs>
       <path d="
M0 0
L-4 0" id="mcb0005524f" style="stroke:#000000;stroke-width:0.5;"/>
      </defs>
      <g>
       <use style="stroke:#000000;stroke-width:0.5;" x="511.450714286" xlink:href="#mcb0005524f" y="384.84"/>
      </g>
     </g>
     <g id="text_12">
      <!-- −1.0 -->
      <defs>
       <path d="
M10.6875 12.4062
L21 12.4062
L21 0
L10.6875 0
z
" id="BitstreamVeraSans-Roman-2e"/>
      </defs>
      <g transform="translate(461.543616071 388.15125)scale(0.12 -0.12)">
       <use xlink:href="#BitstreamVeraSans-Roman-2212"/>
       <use x="83.7890625" xlink:href="#BitstreamVeraSans-Roman-31"/>
       <use x="147.412109375" xlink:href="#BitstreamVeraSans-Roman-2e"/>
       <use x="179.19921875" xlink:href="#BitstreamVeraSans-Roman-30"/>
      </g>
     </g>
    </g>
    <g id="ytick_2">
     <g id="line2d_26">
      <g>
       <use style="stroke:#000000;stroke-width:0.5;" x="492.614866071" xlink:href="#m728421d6d4" y="376.609157609"/>
      </g>
     </g>
     <g id="line2d_27">
      <g>
       <use style="stroke:#000000;stroke-width:0.5;" x="511.450714286" xlink:href="#mcb0005524f" y="376.609157609"/>
      </g>
     </g>
     <g id="text_13">
      <!-- −0.5 -->
      <defs>
       <path d="
M10.7969 72.9062
L49.5156 72.9062
L49.5156 64.5938
L19.8281 64.5938
L19.8281 46.7344
Q21.9688 47.4688 24.1094 47.8281
Q26.2656 48.1875 28.4219 48.1875
Q40.625 48.1875 47.75 41.5
Q54.8906 34.8125 54.8906 23.3906
Q54.8906 11.625 47.5625 5.09375
Q40.2344 -1.42188 26.9062 -1.42188
Q22.3125 -1.42188 17.5469 -0.640625
Q12.7969 0.140625 7.71875 1.70312
L7.71875 11.625
Q12.1094 9.23438 16.7969 8.0625
Q21.4844 6.89062 26.7031 6.89062
Q35.1562 6.89062 40.0781 11.3281
Q45.0156 15.7656 45.0156 23.3906
Q45.0156 31 40.0781 35.4375
Q35.1562 39.8906 26.7031 39.8906
Q22.75 39.8906 18.8125 39.0156
Q14.8906 38.1406 10.7969 36.2812
z
" id="BitstreamVeraSans-Roman-35"/>
      </defs>
      <g transform="translate(461.794866071 379.920407609)scale(0.12 -0.12)">
       <use xlink:href="#BitstreamVeraSans-Roman-2212"/>
       <use x="83.7890625" xlink:href="#BitstreamVeraSans-Roman-30"/>
       <use x="147.412109375" xlink:href="#BitstreamVeraSans-Roman-2e"/>
       <use x="179.19921875" xlink:href="#BitstreamVeraSans-Roman-35"/>
      </g>
     </g>
    </g>
    <g id="ytick_3">
     <g id="line2d_28">
      <g>
       <use style="stroke:#000000;stroke-width:0.5;" x="492.614866071" xlink:href="#m728421d6d4" y="368.378315217"/>
      </g>
     </g>
     <g id="line2d_29">
      <g>
       <use style="stroke:#000000;stroke-width:0.5;" x="511.450714286" xlink:href="#mcb0005524f" y="368.378315217"/>
      </g>
     </g>
     <g id="text_14">
      <!-- 0.0 -->
      <g transform="translate(471.119241071 371.689565217)scale(0.12 -0.12)">
       <use xlink:href="#BitstreamVeraSans-Roman-30"/>
       <use x="63.623046875" xlink:href="#BitstreamVeraSans-Roman-2e"/>
       <use x="95.41015625" xlink:href="#BitstreamVeraSans-Roman-30"/>
      </g>
     </g>
    </g>
    <g id="ytick_4">
     <g id="line2d_30">
      <g>
       <use style="stroke:#000000;stroke-width:0.5;" x="492.614866071" xlink:href="#m728421d6d4" y="360.147472826"/>
      </g>
     </g>
     <g id="line2d_31">
      <g>
       <use style="stroke:#000000;stroke-width:0.5;" x="511.450714286" xlink:href="#mcb0005524f" y="360.147472826"/>
      </g>
     </g>
     <g id="text_15">
      <!-- 0.5 -->
      <g transform="translate(471.370491071 363.458722826)scale(0.12 -0.12)">
       <use xlink:href="#BitstreamVeraSans-Roman-30"/>
       <use x="63.623046875" xlink:href="#BitstreamVeraSans-Roman-2e"/>
       <use x="95.41015625" xlink:href="#BitstreamVeraSans-Roman-35"/>
      </g>
     </g>
    </g>
    <g id="ytick_5">
     <g id="line2d_32">
      <g>
       <use style="stroke:#000000;stroke-width:0.5;" x="492.614866071" xlink:href="#m728421d6d4" y="351.916630435"/>
      </g>
     </g>
     <g id="line2d_33">
      <g>
       <use style="stroke:#000000;stroke-width:0.5;" x="511.450714286" xlink:href="#mcb0005524f" y="351.916630435"/>
      </g>
     </g>
     <g id="text_16">
      <!-- 1.0 -->
      <g transform="translate(471.646116071 355.227880435)scale(0.12 -0.12)">
       <use xlink:href="#BitstreamVeraSans-Roman-31"/>
       <use x="63.623046875" xlink:href="#BitstreamVeraSans-Roman-2e"/>
       <use x="95.41015625" xlink:href="#BitstreamVeraSans-Roman-30"/>
      </g>
     </g>
    </g>
    <g id="ytick_6">
     <g id="line2d_34">
      <g>
       <use style="stroke:#000000;stroke-width:0.5;" x="492.614866071" xlink:href="#m728421d6d4" y="343.685788043"/>
      </g>
     </g>
     <g id="line2d_35">
      <g>
       <use style="stroke:#000000;stroke-width:0.5;" x="511.450714286" xlink:href="#mcb0005524f" y="343.685788043"/>
      </g>
     </g>
     <g id="text_17">
      <!-- 1.5 -->
      <g transform="translate(471.897366071 346.997038043)scale(0.12 -0.12)">
       <use xlink:href="#BitstreamVeraSans-Roman-31"/>
       <use x="63.623046875" xlink:href="#BitstreamVeraSans-Roman-2e"/>
       <use x="95.41015625" xlink:href="#BitstreamVeraSans-Roman-35"/>
      </g>
     </g>
    </g>
    <g id="ytick_7">
     <g id="line2d_36">
      <g>
       <use style="stroke:#000000;stroke-width:0.5;" x="492.614866071" xlink:href="#m728421d6d4" y="335.454945652"/>
      </g>
     </g>
     <g id="line2d_37">
      <g>
       <use style="stroke:#000000;stroke-width:0.5;" x="511.450714286" xlink:href="#mcb0005524f" y="335.454945652"/>
      </g>
     </g>
     <g id="text_18">
      <!-- 2.0 -->
      <g transform="translate(471.207366071 338.766195652)scale(0.12 -0.12)">
       <use xlink:href="#BitstreamVeraSans-Roman-32"/>
       <use x="63.623046875" xlink:href="#BitstreamVeraSans-Roman-2e"/>
       <use x="95.41015625" xlink:href="#BitstreamVeraSans-Roman-30"/>
      </g>
     </g>
    </g>
    <g id="text_19">
     <!-- Spike Rate Deviation from Baseline  -->
     <defs>
      <path d="
M54.8906 33.0156
L54.8906 0
L45.9062 0
L45.9062 32.7188
Q45.9062 40.4844 42.875 44.3281
Q39.8438 48.1875 33.7969 48.1875
Q26.5156 48.1875 22.3125 43.5469
Q18.1094 38.9219 18.1094 30.9062
L18.1094 0
L9.07812 0
L9.07812 54.6875
L18.1094 54.6875
L18.1094 46.1875
Q21.3438 51.125 25.7031 53.5625
Q30.0781 56 35.7969 56
Q45.2188 56 50.0469 50.1719
Q54.8906 44.3438 54.8906 33.0156" id="BitstreamVeraSans-Roman-6e"/>
      <path d="
M41.1094 46.2969
Q39.5938 47.1719 37.8125 47.5781
Q36.0312 48 33.8906 48
Q26.2656 48 22.1875 43.0469
Q18.1094 38.0938 18.1094 28.8125
L18.1094 0
L9.07812 0
L9.07812 54.6875
L18.1094 54.6875
L18.1094 46.1875
Q20.9531 51.1719 25.4844 53.5781
Q30.0312 56 36.5312 56
Q37.4531 56 38.5781 55.875
Q39.7031 55.7656 41.0625 55.5156
z
" id="BitstreamVeraSans-Roman-72"/>
      <path d="
M30.6094 48.3906
Q23.3906 48.3906 19.1875 42.75
Q14.9844 37.1094 14.9844 27.2969
Q14.9844 17.4844 19.1562 11.8438
Q23.3438 6.20312 30.6094 6.20312
Q37.7969 6.20312 41.9844 11.8594
Q46.1875 17.5312 46.1875 27.2969
Q46.1875 37.0156 41.9844 42.7031
Q37.7969 48.3906 30.6094 48.3906
M30.6094 56
Q42.3281 56 49.0156 48.375
Q55.7188 40.7656 55.7188 27.2969
Q55.7188 13.875 49.0156 6.21875
Q42.3281 -1.42188 30.6094 -1.42188
Q18.8438 -1.42188 12.1719 6.21875
Q5.51562 13.875 5.51562 27.2969
Q5.51562 40.7656 12.1719 48.375
Q18.8438 56 30.6094 56" id="BitstreamVeraSans-Roman-6f"/>
      <path d="
M9.42188 75.9844
L18.4062 75.9844
L18.4062 0
L9.42188 0
z
" id="BitstreamVeraSans-Roman-6c"/>
      <path d="
M9.07812 75.9844
L18.1094 75.9844
L18.1094 31.1094
L44.9219 54.6875
L56.3906 54.6875
L27.3906 29.1094
L57.625 0
L45.9062 0
L18.1094 26.7031
L18.1094 0
L9.07812 0
z
" id="BitstreamVeraSans-Roman-6b"/>
      <path d="
M19.6719 64.7969
L19.6719 8.10938
L31.5938 8.10938
Q46.6875 8.10938 53.6875 14.9375
Q60.6875 21.7812 60.6875 36.5312
Q60.6875 51.1719 53.6875 57.9844
Q46.6875 64.7969 31.5938 64.7969
z

M9.8125 72.9062
L30.0781 72.9062
Q51.2656 72.9062 61.1719 64.0938
Q71.0938 55.2812 71.0938 36.5312
Q71.0938 17.6719 61.125 8.82812
Q51.1719 0 30.0781 0
L9.8125 0
z
" id="BitstreamVeraSans-Roman-44"/>
      <path d="
M44.3906 34.1875
Q47.5625 33.1094 50.5625 29.5938
Q53.5625 26.0781 56.5938 19.9219
L66.6094 0
L56 0
L46.6875 18.7031
Q43.0625 26.0312 39.6719 28.4219
Q36.2812 30.8125 30.4219 30.8125
L19.6719 30.8125
L19.6719 0
L9.8125 0
L9.8125 72.9062
L32.0781 72.9062
Q44.5781 72.9062 50.7344 67.6719
Q56.8906 62.4531 56.8906 51.9062
Q56.8906 45.0156 53.6875 40.4688
Q50.4844 35.9375 44.3906 34.1875
M19.6719 64.7969
L19.6719 38.9219
L32.0781 38.9219
Q39.2031 38.9219 42.8438 42.2188
Q46.4844 45.5156 46.4844 51.9062
Q46.4844 58.2969 42.8438 61.5469
Q39.2031 64.7969 32.0781 64.7969
z
" id="BitstreamVeraSans-Roman-52"/>
      <path d="
M53.5156 70.5156
L53.5156 60.8906
Q47.9062 63.5781 42.9219 64.8906
Q37.9375 66.2188 33.2969 66.2188
Q25.25 66.2188 20.875 63.0938
Q16.5 59.9688 16.5 54.2031
Q16.5 49.3594 19.4062 46.8906
Q22.3125 44.4375 30.4219 42.9219
L36.375 41.7031
Q47.4062 39.5938 52.6562 34.2969
Q57.9062 29 57.9062 20.125
Q57.9062 9.51562 50.7969 4.04688
Q43.7031 -1.42188 29.9844 -1.42188
Q24.8125 -1.42188 18.9688 -0.25
Q13.1406 0.921875 6.89062 3.21875
L6.89062 13.375
Q12.8906 10.0156 18.6562 8.29688
Q24.4219 6.59375 29.9844 6.59375
Q38.4219 6.59375 43.0156 9.90625
Q47.6094 13.2344 47.6094 19.3906
Q47.6094 24.75 44.3125 27.7812
Q41.0156 30.8125 33.5 32.3281
L27.4844 33.5
Q16.4531 35.6875 11.5156 40.375
Q6.59375 45.0625 6.59375 53.4219
Q6.59375 63.0938 13.4062 68.6562
Q20.2188 74.2188 32.1719 74.2188
Q37.3125 74.2188 42.625 73.2812
Q47.9531 72.3594 53.5156 70.5156" id="BitstreamVeraSans-Roman-53"/>
      <path d="
M19.6719 34.8125
L19.6719 8.10938
L35.5 8.10938
Q43.4531 8.10938 47.2812 11.4062
Q51.125 14.7031 51.125 21.4844
Q51.125 28.3281 47.2812 31.5625
Q43.4531 34.8125 35.5 34.8125
z

M19.6719 64.7969
L19.6719 42.8281
L34.2812 42.8281
Q41.5 42.8281 45.0312 45.5312
Q48.5781 48.25 48.5781 53.8125
Q48.5781 59.3281 45.0312 62.0625
Q41.5 64.7969 34.2812 64.7969
z

M9.8125 72.9062
L35.0156 72.9062
Q46.2969 72.9062 52.3906 68.2188
Q58.5 63.5312 58.5 54.8906
Q58.5 48.1875 55.375 44.2344
Q52.25 40.2812 46.1875 39.3125
Q53.4688 37.75 57.5 32.7812
Q61.5312 27.8281 61.5312 20.4062
Q61.5312 10.6406 54.8906 5.3125
Q48.25 0 35.9844 0
L9.8125 0
z
" id="BitstreamVeraSans-Roman-42"/>
      <path d="
M2.98438 54.6875
L12.5 54.6875
L29.5938 8.79688
L46.6875 54.6875
L56.2031 54.6875
L35.6875 0
L23.4844 0
z
" id="BitstreamVeraSans-Roman-76"/>
      <path d="
M18.3125 70.2188
L18.3125 54.6875
L36.8125 54.6875
L36.8125 47.7031
L18.3125 47.7031
L18.3125 18.0156
Q18.3125 11.3281 20.1406 9.42188
Q21.9688 7.51562 27.5938 7.51562
L36.8125 7.51562
L36.8125 0
L27.5938 0
Q17.1875 0 13.2344 3.875
Q9.28125 7.76562 9.28125 18.0156
L9.28125 47.7031
L2.6875 47.7031
L2.6875 54.6875
L9.28125 54.6875
L9.28125 70.2188
z
" id="BitstreamVeraSans-Roman-74"/>
      <path d="
M37.1094 75.9844
L37.1094 68.5
L28.5156 68.5
Q23.6875 68.5 21.7969 66.5469
Q19.9219 64.5938 19.9219 59.5156
L19.9219 54.6875
L34.7188 54.6875
L34.7188 47.7031
L19.9219 47.7031
L19.9219 0
L10.8906 0
L10.8906 47.7031
L2.29688 47.7031
L2.29688 54.6875
L10.8906 54.6875
L10.8906 58.5
Q10.8906 67.625 15.1406 71.7969
Q19.3906 75.9844 28.6094 75.9844
z
" id="BitstreamVeraSans-Roman-66"/>
      <path d="
M34.2812 27.4844
Q23.3906 27.4844 19.1875 25
Q14.9844 22.5156 14.9844 16.5
Q14.9844 11.7188 18.1406 8.90625
Q21.2969 6.10938 26.7031 6.10938
Q34.1875 6.10938 38.7031 11.4062
Q43.2188 16.7031 43.2188 25.4844
L43.2188 27.4844
z

M52.2031 31.2031
L52.2031 0
L43.2188 0
L43.2188 8.29688
Q40.1406 3.32812 35.5469 0.953125
Q30.9531 -1.42188 24.3125 -1.42188
Q15.9219 -1.42188 10.9531 3.29688
Q6 8.01562 6 15.9219
Q6 25.1406 12.1719 29.8281
Q18.3594 34.5156 30.6094 34.5156
L43.2188 34.5156
L43.2188 35.4062
Q43.2188 41.6094 39.1406 45
Q35.0625 48.3906 27.6875 48.3906
Q23 48.3906 18.5469 47.2656
Q14.1094 46.1406 10.0156 43.8906
L10.0156 52.2031
Q14.9375 54.1094 19.5781 55.0469
Q24.2188 56 28.6094 56
Q40.4844 56 46.3438 49.8438
Q52.2031 43.7031 52.2031 31.2031" id="BitstreamVeraSans-Roman-61"/>
      <path d="
M18.1094 8.20312
L18.1094 -20.7969
L9.07812 -20.7969
L9.07812 54.6875
L18.1094 54.6875
L18.1094 46.3906
Q20.9531 51.2656 25.2656 53.625
Q29.5938 56 35.5938 56
Q45.5625 56 51.7812 48.0938
Q58.0156 40.1875 58.0156 27.2969
Q58.0156 14.4062 51.7812 6.48438
Q45.5625 -1.42188 35.5938 -1.42188
Q29.5938 -1.42188 25.2656 0.953125
Q20.9531 3.32812 18.1094 8.20312
M48.6875 27.2969
Q48.6875 37.2031 44.6094 42.8438
Q40.5312 48.4844 33.4062 48.4844
Q26.2656 48.4844 22.1875 42.8438
Q18.1094 37.2031 18.1094 27.2969
Q18.1094 17.3906 22.1875 11.75
Q26.2656 6.10938 33.4062 6.10938
Q40.5312 6.10938 44.6094 11.75
Q48.6875 17.3906 48.6875 27.2969" id="BitstreamVeraSans-Roman-70"/>
     </defs>
     <g transform="translate(445.921616071 430.410597826)rotate(-90.0)scale(0.08 -0.08)">
      <use xlink:href="#BitstreamVeraSans-Roman-53"/>
      <use x="63.4765625" xlink:href="#BitstreamVeraSans-Roman-70"/>
      <use x="126.953125" xlink:href="#BitstreamVeraSans-Roman-69"/>
      <use x="154.736328125" xlink:href="#BitstreamVeraSans-Roman-6b"/>
      <use x="209.021484375" xlink:href="#BitstreamVeraSans-Roman-65"/>
      <use x="270.544921875" xlink:href="#BitstreamVeraSans-Roman-20"/>
      <use x="302.33203125" xlink:href="#BitstreamVeraSans-Roman-52"/>
      <use x="369.564453125" xlink:href="#BitstreamVeraSans-Roman-61"/>
      <use x="430.84375" xlink:href="#BitstreamVeraSans-Roman-74"/>
      <use x="470.052734375" xlink:href="#BitstreamVeraSans-Roman-65"/>
      <use x="531.576171875" xlink:href="#BitstreamVeraSans-Roman-20"/>
      <use x="563.36328125" xlink:href="#BitstreamVeraSans-Roman-44"/>
      <use x="640.365234375" xlink:href="#BitstreamVeraSans-Roman-65"/>
      <use x="701.888671875" xlink:href="#BitstreamVeraSans-Roman-76"/>
      <use x="761.068359375" xlink:href="#BitstreamVeraSans-Roman-69"/>
      <use x="788.8515625" xlink:href="#BitstreamVeraSans-Roman-61"/>
      <use x="850.130859375" xlink:href="#BitstreamVeraSans-Roman-74"/>
      <use x="889.33984375" xlink:href="#BitstreamVeraSans-Roman-69"/>
      <use x="917.123046875" xlink:href="#BitstreamVeraSans-Roman-6f"/>
      <use x="978.3046875" xlink:href="#BitstreamVeraSans-Roman-6e"/>
      <use x="1041.68359375" xlink:href="#BitstreamVeraSans-Roman-20"/>
      <use x="1073.47070312" xlink:href="#BitstreamVeraSans-Roman-66"/>
      <use x="1108.67578125" xlink:href="#BitstreamVeraSans-Roman-72"/>
      <use x="1147.5390625" xlink:href="#BitstreamVeraSans-Roman-6f"/>
      <use x="1208.72070312" xlink:href="#BitstreamVeraSans-Roman-6d"/>
      <use x="1306.1328125" xlink:href="#BitstreamVeraSans-Roman-20"/>
      <use x="1337.91992188" xlink:href="#BitstreamVeraSans-Roman-42"/>
      <use x="1406.5234375" xlink:href="#BitstreamVeraSans-Roman-61"/>
      <use x="1467.80273438" xlink:href="#BitstreamVeraSans-Roman-73"/>
      <use x="1519.90234375" xlink:href="#BitstreamVeraSans-Roman-65"/>
      <use x="1581.42578125" xlink:href="#BitstreamVeraSans-Roman-6c"/>
      <use x="1609.20898438" xlink:href="#BitstreamVeraSans-Roman-69"/>
      <use x="1636.9921875" xlink:href="#BitstreamVeraSans-Roman-6e"/>
      <use x="1700.37109375" xlink:href="#BitstreamVeraSans-Roman-65"/>
      <use x="1761.89453125" xlink:href="#BitstreamVeraSans-Roman-20"/>
     </g>
     <!--  [zscore(rate - background)] (Hz) -->
     <defs>
      <path d="
M8.59375 75.9844
L29.2969 75.9844
L29.2969 69
L17.5781 69
L17.5781 -6.20312
L29.2969 -6.20312
L29.2969 -13.1875
L8.59375 -13.1875
z
" id="BitstreamVeraSans-Roman-5b"/>
      <path d="
M30.4219 75.9844
L30.4219 -13.1875
L9.71875 -13.1875
L9.71875 -6.20312
L21.3906 -6.20312
L21.3906 69
L9.71875 69
L9.71875 75.9844
z
" id="BitstreamVeraSans-Roman-5d"/>
      <path d="
M5.51562 54.6875
L48.1875 54.6875
L48.1875 46.4844
L14.4062 7.17188
L48.1875 7.17188
L48.1875 0
L4.29688 0
L4.29688 8.20312
L38.0938 47.5156
L5.51562 47.5156
z
" id="BitstreamVeraSans-Roman-7a"/>
      <path d="
M4.89062 31.3906
L31.2031 31.3906
L31.2031 23.3906
L4.89062 23.3906
z
" id="BitstreamVeraSans-Roman-2d"/>
      <path d="
M9.8125 72.9062
L19.6719 72.9062
L19.6719 43.0156
L55.5156 43.0156
L55.5156 72.9062
L65.375 72.9062
L65.375 0
L55.5156 0
L55.5156 34.7188
L19.6719 34.7188
L19.6719 0
L9.8125 0
z
" id="BitstreamVeraSans-Roman-48"/>
      <path d="
M45.4062 46.3906
L45.4062 75.9844
L54.3906 75.9844
L54.3906 0
L45.4062 0
L45.4062 8.20312
Q42.5781 3.32812 38.25 0.953125
Q33.9375 -1.42188 27.875 -1.42188
Q17.9688 -1.42188 11.7344 6.48438
Q5.51562 14.4062 5.51562 27.2969
Q5.51562 40.1875 11.7344 48.0938
Q17.9688 56 27.875 56
Q33.9375 56 38.25 53.625
Q42.5781 51.2656 45.4062 46.3906
M14.7969 27.2969
Q14.7969 17.3906 18.875 11.75
Q22.9531 6.10938 30.0781 6.10938
Q37.2031 6.10938 41.2969 11.75
Q45.4062 17.3906 45.4062 27.2969
Q45.4062 37.2031 41.2969 42.8438
Q37.2031 48.4844 30.0781 48.4844
Q22.9531 48.4844 18.875 42.8438
Q14.7969 37.2031 14.7969 27.2969" id="BitstreamVeraSans-Roman-64"/>
      <path d="
M45.4062 27.9844
Q45.4062 37.75 41.375 43.1094
Q37.3594 48.4844 30.0781 48.4844
Q22.8594 48.4844 18.8281 43.1094
Q14.7969 37.75 14.7969 27.9844
Q14.7969 18.2656 18.8281 12.8906
Q22.8594 7.51562 30.0781 7.51562
Q37.3594 7.51562 41.375 12.8906
Q45.4062 18.2656 45.4062 27.9844
M54.3906 6.78125
Q54.3906 -7.17188 48.1875 -13.9844
Q42 -20.7969 29.2031 -20.7969
Q24.4688 -20.7969 20.2656 -20.0938
Q16.0625 -19.3906 12.1094 -17.9219
L12.1094 -9.1875
Q16.0625 -11.3281 19.9219 -12.3438
Q23.7812 -13.375 27.7812 -13.375
Q36.625 -13.375 41.0156 -8.76562
Q45.4062 -4.15625 45.4062 5.17188
L45.4062 9.625
Q42.625 4.78125 38.2812 2.39062
Q33.9375 0 27.875 0
Q17.8281 0 11.6719 7.65625
Q5.51562 15.3281 5.51562 27.9844
Q5.51562 40.6719 11.6719 48.3281
Q17.8281 56 27.875 56
Q33.9375 56 38.2812 53.6094
Q42.625 51.2188 45.4062 46.3906
L45.4062 54.6875
L54.3906 54.6875
z
" id="BitstreamVeraSans-Roman-67"/>
      <path d="
M8.5 21.5781
L8.5 54.6875
L17.4844 54.6875
L17.4844 21.9219
Q17.4844 14.1562 20.5 10.2656
Q23.5312 6.39062 29.5938 6.39062
Q36.8594 6.39062 41.0781 11.0312
Q45.3125 15.6719 45.3125 23.6875
L45.3125 54.6875
L54.2969 54.6875
L54.2969 0
L45.3125 0
L45.3125 8.40625
Q42.0469 3.42188 37.7188 1
Q33.4062 -1.42188 27.6875 -1.42188
Q18.2656 -1.42188 13.375 4.4375
Q8.5 10.2969 8.5 21.5781" id="BitstreamVeraSans-Roman-75"/>
      <path d="
M48.7812 52.5938
L48.7812 44.1875
Q44.9688 46.2969 41.1406 47.3438
Q37.3125 48.3906 33.4062 48.3906
Q24.6562 48.3906 19.8125 42.8438
Q14.9844 37.3125 14.9844 27.2969
Q14.9844 17.2812 19.8125 11.7344
Q24.6562 6.20312 33.4062 6.20312
Q37.3125 6.20312 41.1406 7.25
Q44.9688 8.29688 48.7812 10.4062
L48.7812 2.09375
Q45.0156 0.34375 40.9844 -0.53125
Q36.9688 -1.42188 32.4219 -1.42188
Q20.0625 -1.42188 12.7812 6.34375
Q5.51562 14.1094 5.51562 27.2969
Q5.51562 40.6719 12.8594 48.3281
Q20.2188 56 33.0156 56
Q37.1562 56 41.1094 55.1406
Q45.0625 54.2969 48.7812 52.5938" id="BitstreamVeraSans-Roman-63"/>
      <path d="
M48.6875 27.2969
Q48.6875 37.2031 44.6094 42.8438
Q40.5312 48.4844 33.4062 48.4844
Q26.2656 48.4844 22.1875 42.8438
Q18.1094 37.2031 18.1094 27.2969
Q18.1094 17.3906 22.1875 11.75
Q26.2656 6.10938 33.4062 6.10938
Q40.5312 6.10938 44.6094 11.75
Q48.6875 17.3906 48.6875 27.2969
M18.1094 46.3906
Q20.9531 51.2656 25.2656 53.625
Q29.5938 56 35.5938 56
Q45.5625 56 51.7812 48.0938
Q58.0156 40.1875 58.0156 27.2969
Q58.0156 14.4062 51.7812 6.48438
Q45.5625 -1.42188 35.5938 -1.42188
Q29.5938 -1.42188 25.2656 0.953125
Q20.9531 3.32812 18.1094 8.20312
L18.1094 0
L9.07812 0
L9.07812 75.9844
L18.1094 75.9844
z
" id="BitstreamVeraSans-Roman-62"/>
     </defs>
     <g transform="translate(454.879866071 425.430597826)rotate(-90.0)scale(0.08 -0.08)">
      <use xlink:href="#BitstreamVeraSans-Roman-20"/>
      <use x="31.787109375" xlink:href="#BitstreamVeraSans-Roman-5b"/>
      <use x="70.80078125" xlink:href="#BitstreamVeraSans-Roman-7a"/>
      <use x="123.291015625" xlink:href="#BitstreamVeraSans-Roman-73"/>
      <use x="175.390625" xlink:href="#BitstreamVeraSans-Roman-63"/>
      <use x="230.37109375" xlink:href="#BitstreamVeraSans-Roman-6f"/>
      <use x="291.552734375" xlink:href="#BitstreamVeraSans-Roman-72"/>
      <use x="330.416015625" xlink:href="#BitstreamVeraSans-Roman-65"/>
      <use x="391.939453125" xlink:href="#BitstreamVeraSans-Roman-28"/>
      <use x="430.953125" xlink:href="#BitstreamVeraSans-Roman-72"/>
      <use x="472.06640625" xlink:href="#BitstreamVeraSans-Roman-61"/>
      <use x="533.345703125" xlink:href="#BitstreamVeraSans-Roman-74"/>
      <use x="572.5546875" xlink:href="#BitstreamVeraSans-Roman-65"/>
      <use x="634.078125" xlink:href="#BitstreamVeraSans-Roman-20"/>
      <use x="665.865234375" xlink:href="#BitstreamVeraSans-Roman-2d"/>
      <use x="701.94921875" xlink:href="#BitstreamVeraSans-Roman-20"/>
      <use x="733.736328125" xlink:href="#BitstreamVeraSans-Roman-62"/>
      <use x="797.212890625" xlink:href="#BitstreamVeraSans-Roman-61"/>
      <use x="858.4921875" xlink:href="#BitstreamVeraSans-Roman-63"/>
      <use x="913.47265625" xlink:href="#BitstreamVeraSans-Roman-6b"/>
      <use x="971.3828125" xlink:href="#BitstreamVeraSans-Roman-67"/>
      <use x="1034.859375" xlink:href="#BitstreamVeraSans-Roman-72"/>
      <use x="1073.72265625" xlink:href="#BitstreamVeraSans-Roman-6f"/>
      <use x="1134.90429688" xlink:href="#BitstreamVeraSans-Roman-75"/>
      <use x="1198.28320312" xlink:href="#BitstreamVeraSans-Roman-6e"/>
      <use x="1261.66210938" xlink:href="#BitstreamVeraSans-Roman-64"/>
      <use x="1325.13867188" xlink:href="#BitstreamVeraSans-Roman-29"/>
      <use x="1364.15234375" xlink:href="#BitstreamVeraSans-Roman-5d"/>
      <use x="1403.16601562" xlink:href="#BitstreamVeraSans-Roman-20"/>
      <use x="1434.953125" xlink:href="#BitstreamVeraSans-Roman-28"/>
      <use x="1473.96679688" xlink:href="#BitstreamVeraSans-Roman-48"/>
      <use x="1549.16210938" xlink:href="#BitstreamVeraSans-Roman-7a"/>
      <use x="1601.65234375" xlink:href="#BitstreamVeraSans-Roman-29"/>
     </g>
    </g>
   </g>
   <g id="text_20">
    <!-- Pre-SMA: Ch 59 - Unit 1 -->
    <defs>
     <path d="
M9.8125 72.9062
L24.5156 72.9062
L43.1094 23.2969
L61.8125 72.9062
L76.5156 72.9062
L76.5156 0
L66.8906 0
L66.8906 64.0156
L48.0938 14.0156
L38.1875 14.0156
L19.3906 64.0156
L19.3906 0
L9.8125 0
z
" id="BitstreamVeraSans-Roman-4d"/>
     <path d="
M10.9844 1.51562
L10.9844 10.5
Q14.7031 8.73438 18.5 7.8125
Q22.3125 6.89062 25.9844 6.89062
Q35.75 6.89062 40.8906 13.4531
Q46.0469 20.0156 46.7812 33.4062
Q43.9531 29.2031 39.5938 26.9531
Q35.25 24.7031 29.9844 24.7031
Q19.0469 24.7031 12.6719 31.3125
Q6.29688 37.9375 6.29688 49.4219
Q6.29688 60.6406 12.9375 67.4219
Q19.5781 74.2188 30.6094 74.2188
Q43.2656 74.2188 49.9219 64.5156
Q56.5938 54.8281 56.5938 36.375
Q56.5938 19.1406 48.4062 8.85938
Q40.2344 -1.42188 26.4219 -1.42188
Q22.7031 -1.42188 18.8906 -0.6875
Q15.0938 0.046875 10.9844 1.51562
M30.6094 32.4219
Q37.25 32.4219 41.125 36.9531
Q45.0156 41.5 45.0156 49.4219
Q45.0156 57.2812 41.125 61.8438
Q37.25 66.4062 30.6094 66.4062
Q23.9688 66.4062 20.0938 61.8438
Q16.2188 57.2812 16.2188 49.4219
Q16.2188 41.5 20.0938 36.9531
Q23.9688 32.4219 30.6094 32.4219" id="BitstreamVeraSans-Roman-39"/>
     <path d="
M19.6719 64.7969
L19.6719 37.4062
L32.0781 37.4062
Q38.9688 37.4062 42.7188 40.9688
Q46.4844 44.5312 46.4844 51.125
Q46.4844 57.6719 42.7188 61.2344
Q38.9688 64.7969 32.0781 64.7969
z

M9.8125 72.9062
L32.0781 72.9062
Q44.3438 72.9062 50.6094 67.3594
Q56.8906 61.8125 56.8906 51.125
Q56.8906 40.3281 50.6094 34.8125
Q44.3438 29.2969 32.0781 29.2969
L19.6719 29.2969
L19.6719 0
L9.8125 0
z
" id="BitstreamVeraSans-Roman-50"/>
     <path d="
M11.7188 12.4062
L22.0156 12.4062
L22.0156 0
L11.7188 0
z

M11.7188 51.7031
L22.0156 51.7031
L22.0156 39.3125
L11.7188 39.3125
z
" id="BitstreamVeraSans-Roman-3a"/>
     <path d="
M64.4062 67.2812
L64.4062 56.8906
Q59.4219 61.5312 53.7812 63.8125
Q48.1406 66.1094 41.7969 66.1094
Q29.2969 66.1094 22.6562 58.4688
Q16.0156 50.8281 16.0156 36.375
Q16.0156 21.9688 22.6562 14.3281
Q29.2969 6.6875 41.7969 6.6875
Q48.1406 6.6875 53.7812 8.98438
Q59.4219 11.2812 64.4062 15.9219
L64.4062 5.60938
Q59.2344 2.09375 53.4375 0.328125
Q47.6562 -1.42188 41.2188 -1.42188
Q24.6562 -1.42188 15.125 8.70312
Q5.60938 18.8438 5.60938 36.375
Q5.60938 53.9531 15.125 64.0781
Q24.6562 74.2188 41.2188 74.2188
Q47.75 74.2188 53.5312 72.4844
Q59.3281 70.75 64.4062 67.2812" id="BitstreamVeraSans-Roman-43"/>
     <path d="
M54.8906 33.0156
L54.8906 0
L45.9062 0
L45.9062 32.7188
Q45.9062 40.4844 42.875 44.3281
Q39.8438 48.1875 33.7969 48.1875
Q26.5156 48.1875 22.3125 43.5469
Q18.1094 38.9219 18.1094 30.9062
L18.1094 0
L9.07812 0
L9.07812 75.9844
L18.1094 75.9844
L18.1094 46.1875
Q21.3438 51.125 25.7031 53.5625
Q30.0781 56 35.7969 56
Q45.2188 56 50.0469 50.1719
Q54.8906 44.3438 54.8906 33.0156" id="BitstreamVeraSans-Roman-68"/>
     <path d="
M34.1875 63.1875
L20.7969 26.9062
L47.6094 26.9062
z

M28.6094 72.9062
L39.7969 72.9062
L67.5781 0
L57.3281 0
L50.6875 18.7031
L17.8281 18.7031
L11.1875 0
L0.78125 0
z
" id="BitstreamVeraSans-Roman-41"/>
     <path d="
M8.6875 72.9062
L18.6094 72.9062
L18.6094 28.6094
Q18.6094 16.8906 22.8438 11.7344
Q27.0938 6.59375 36.625 6.59375
Q46.0938 6.59375 50.3438 11.7344
Q54.5938 16.8906 54.5938 28.6094
L54.5938 72.9062
L64.5 72.9062
L64.5 27.3906
Q64.5 13.1406 57.4375 5.85938
Q50.3906 -1.42188 36.625 -1.42188
Q22.7969 -1.42188 15.7344 5.85938
Q8.6875 13.1406 8.6875 27.3906
z
" id="BitstreamVeraSans-Roman-55"/>
    </defs>
    <g transform="translate(418.620790179 330.454945652)scale(0.144 -0.144)">
     <use xlink:href="#BitstreamVeraSans-Roman-50"/>
     <use x="58.552734375" xlink:href="#BitstreamVeraSans-Roman-72"/>
     <use x="97.416015625" xlink:href="#BitstreamVeraSans-Roman-65"/>
     <use x="158.939453125" xlink:href="#BitstreamVeraSans-Roman-2d"/>
     <use x="195.0234375" xlink:href="#BitstreamVeraSans-Roman-53"/>
     <use x="258.5" xlink:href="#BitstreamVeraSans-Roman-4d"/>
     <use x="344.779296875" xlink:href="#BitstreamVeraSans-Roman-41"/>
     <use x="411.4375" xlink:href="#BitstreamVeraSans-Roman-3a"/>
     <use x="445.12890625" xlink:href="#BitstreamVeraSans-Roman-20"/>
     <use x="476.916015625" xlink:href="#BitstreamVeraSans-Roman-43"/>
     <use x="546.740234375" xlink:href="#BitstreamVeraSans-Roman-68"/>
     <use x="610.119140625" xlink:href="#BitstreamVeraSans-Roman-20"/>
     <use x="641.90625" xlink:href="#BitstreamVeraSans-Roman-35"/>
     <use x="705.529296875" xlink:href="#BitstreamVeraSans-Roman-39"/>
     <use x="769.15234375" xlink:href="#BitstreamVeraSans-Roman-20"/>
     <use x="800.939453125" xlink:href="#BitstreamVeraSans-Roman-2d"/>
     <use x="837.0234375" xlink:href="#BitstreamVeraSans-Roman-20"/>
     <use x="868.810546875" xlink:href="#BitstreamVeraSans-Roman-55"/>
     <use x="942.00390625" xlink:href="#BitstreamVeraSans-Roman-6e"/>
     <use x="1005.3828125" xlink:href="#BitstreamVeraSans-Roman-69"/>
     <use x="1033.16601562" xlink:href="#BitstreamVeraSans-Roman-74"/>
     <use x="1072.375" xlink:href="#BitstreamVeraSans-Roman-20"/>
     <use x="1104.16210938" xlink:href="#BitstreamVeraSans-Roman-31"/>
    </g>
   </g>
  </g>
  <g id="axes_2">
   <g id="patch_7">
    <path d="
M66.4059 95.2048
L85.2418 95.2048
L85.2418 45.8198
L66.4059 45.8198
z
" style="fill:#ffffff;"/>
   </g>
   <g id="PolyCollection_2">
    <defs>
     <path d="
M67.4524 -353.197
L67.4524 -353.047
L67.557 -353.047
L67.6617 -353.047
L67.7663 -353.047
L67.8709 -353.047
L67.9756 -353.047
L68.0802 -353.047
L68.1849 -353.047
L68.2895 -353.047
L68.3942 -353.047
L68.4988 -353.047
L68.6035 -353.047
L68.7081 -353.047
L68.8127 -353.047
L68.9174 -353.047
L69.022 -353.047
L69.1267 -353.047
L69.2313 -353.047
L69.336 -353.047
L69.4406 -353.047
L69.5452 -353.047
L69.6499 -353.047
L69.7545 -353.047
L69.8592 -353.047
L69.9638 -353.047
L70.0685 -353.047
L70.1731 -353.164
L70.2778 -353.047
L70.3824 -353.047
L70.487 -353.047
L70.5917 -353.047
L70.6963 -353.047
L70.801 -353.047
L70.9056 -353.047
L71.0103 -353.047
L71.1149 -353.047
L71.2195 -353.047
L71.3242 -353.047
L71.4288 -353.047
L71.5335 -353.047
L71.6381 -353.047
L71.7428 -353.047
L71.8474 -353.047
L71.952 -353.047
L72.0567 -353.047
L72.1613 -353.047
L72.266 -353.047
L72.3706 -353.047
L72.4753 -353.047
L72.5799 -353.047
L72.6846 -2016.05
L72.7892 -2021.16
L72.8938 -2021.16
L72.9985 -2016.05
L73.1031 -2021.16
L73.2078 -2016.05
L73.3124 -2016.05
L73.4171 -2016.05
L73.5217 -2018.41
L73.6263 -2016.05
L73.731 -353.047
L73.8356 -353.047
L73.9403 -353.047
L74.0449 -353.047
L74.1496 -353.047
L74.2542 -353.047
L74.3589 -353.047
L74.4635 -353.047
L74.5681 -353.047
L74.6728 -353.047
L74.7774 -353.047
L74.8821 -353.047
L74.9867 -353.047
L75.0914 -353.047
L75.196 -353.047
L75.3006 -353.047
L75.4053 -353.047
L75.5099 -353.047
L75.6146 -353.047
L75.7192 -353.047
L75.8239 -353.047
L75.9285 -353.047
L76.0331 -353.047
L76.1378 -353.047
L76.2424 -353.047
L76.3471 -353.047
L76.4517 -353.047
L76.5564 -353.047
L76.661 -353.164
L76.7657 -353.047
L76.8703 -353.047
L76.9749 -353.047
L77.0796 -353.047
L77.1842 -353.047
L77.2889 -353.047
L77.3935 -353.047
L77.4982 -353.047
L77.6028 -353.047
L77.7074 -353.047
L77.8121 -353.047
L77.9167 -353.047
L78.0214 -353.047
L78.126 -353.047
L78.2307 -353.047
L78.3353 -353.047
L78.44 -353.047
L78.5446 -353.047
L78.6492 -353.047
L78.7539 -353.047
L78.8585 -353.047
L78.9632 -353.047
L79.0678 -353.047
L79.1725 -353.047
L79.2771 -353.047
L79.3817 -353.047
L79.4864 -353.047
L79.591 -353.047
L79.6957 -353.047
L79.8003 -353.047
L79.905 -353.047
L80.0096 -353.047
L80.1142 -353.047
L80.2189 -353.047
L80.3235 -353.047
L80.4282 -353.047
L80.5328 -353.047
L80.6375 -353.047
L80.7421 -353.047
L80.8468 -353.047
L80.9514 -353.047
L81.056 -353.047
L81.1607 -353.047
L81.2653 -353.047
L81.37 -353.047
L81.4746 -353.047
L81.5793 -353.047
L81.6839 -353.047
L81.7885 -353.047
L81.8932 -353.047
L81.9978 -353.047
L82.1025 -353.047
L82.2071 -353.047
L82.3118 -353.047
L82.4164 -353.047
L82.5211 -353.164
L82.6257 -353.047
L82.7303 -353.047
L82.835 -353.047
L82.9396 -353.047
L83.0443 -353.047
L83.1489 -353.047
L83.2536 -353.047
L83.3582 -353.047
L83.4628 -353.047
L83.5675 -353.047
L83.6721 -353.047
L83.7768 -353.047
L83.8814 -353.047
L83.9861 -353.047
L84.0907 -353.047
L84.0907 -353.197
L84.0907 -353.197
L83.9861 -353.197
L83.8814 -353.197
L83.7768 -353.197
L83.6721 -353.197
L83.5675 -353.197
L83.4628 -353.197
L83.3582 -353.197
L83.2536 -353.197
L83.1489 -353.197
L83.0443 -353.197
L82.9396 -353.197
L82.835 -353.197
L82.7303 -353.197
L82.6257 -353.197
L82.5211 -366.566
L82.4164 -353.197
L82.3118 -353.197
L82.2071 -353.197
L82.1025 -353.197
L81.9978 -353.197
L81.8932 -353.197
L81.7885 -353.197
L81.6839 -353.197
L81.5793 -353.197
L81.4746 -353.197
L81.37 -353.197
L81.2653 -353.197
L81.1607 -353.197
L81.056 -353.197
L80.9514 -353.197
L80.8468 -353.197
L80.7421 -353.197
L80.6375 -353.197
L80.5328 -353.197
L80.4282 -353.197
L80.3235 -353.197
L80.2189 -353.197
L80.1142 -353.197
L80.0096 -353.197
L79.905 -353.197
L79.8003 -353.197
L79.6957 -353.197
L79.591 -353.197
L79.4864 -353.197
L79.3817 -353.197
L79.2771 -353.197
L79.1725 -353.197
L79.0678 -353.197
L78.9632 -353.197
L78.8585 -353.197
L78.7539 -353.197
L78.6492 -353.197
L78.5446 -353.197
L78.44 -353.197
L78.3353 -353.197
L78.2307 -353.197
L78.126 -353.197
L78.0214 -353.197
L77.9167 -353.197
L77.8121 -353.197
L77.7074 -353.197
L77.6028 -353.197
L77.4982 -353.197
L77.3935 -353.197
L77.2889 -353.197
L77.1842 -353.197
L77.0796 -353.197
L76.9749 -353.197
L76.8703 -353.197
L76.7657 -353.197
L76.661 -366.566
L76.5564 -353.197
L76.4517 -353.197
L76.3471 -353.197
L76.2424 -353.197
L76.1378 -353.197
L76.0331 -353.197
L75.9285 -353.197
L75.8239 -353.197
L75.7192 -353.197
L75.6146 -353.197
L75.5099 -353.197
L75.4053 -353.197
L75.3006 -353.197
L75.196 -353.197
L75.0914 -353.197
L74.9867 -353.197
L74.8821 -353.197
L74.7774 -353.197
L74.6728 -353.197
L74.5681 -353.197
L74.4635 -353.197
L74.3589 -353.197
L74.2542 -353.197
L74.1496 -353.197
L74.0449 -353.197
L73.9403 -353.197
L73.8356 -353.197
L73.731 -353.197
L73.6263 -2057.87
L73.5217 -2069
L73.4171 -2057.87
L73.3124 -2057.87
L73.2078 -2057.87
L73.1031 -2063.74
L72.9985 -2057.87
L72.8938 -2063.74
L72.7892 -2063.74
L72.6846 -2057.87
L72.5799 -353.197
L72.4753 -353.197
L72.3706 -353.197
L72.266 -353.197
L72.1613 -353.197
L72.0567 -353.197
L71.952 -353.197
L71.8474 -353.197
L71.7428 -353.197
L71.6381 -353.197
L71.5335 -353.197
L71.4288 -353.197
L71.3242 -353.197
L71.2195 -353.197
L71.1149 -353.197
L71.0103 -353.197
L70.9056 -353.197
L70.801 -353.197
L70.6963 -353.197
L70.5917 -353.197
L70.487 -353.197
L70.3824 -353.197
L70.2778 -353.197
L70.1731 -366.566
L70.0685 -353.197
L69.9638 -353.197
L69.8592 -353.197
L69.7545 -353.197
L69.6499 -353.197
L69.5452 -353.197
L69.4406 -353.197
L69.336 -353.197
L69.2313 -353.197
L69.1267 -353.197
L69.022 -353.197
L68.9174 -353.197
L68.8127 -353.197
L68.7081 -353.197
L68.6035 -353.197
L68.4988 -353.197
L68.3942 -353.197
L68.2895 -353.197
L68.1849 -353.197
L68.0802 -353.197
L67.9756 -353.197
L67.8709 -353.197
L67.7663 -353.197
L67.6617 -353.197
L67.557 -353.197
L67.4524 -353.197
z
" id="m930c3c4693"/>
    </defs>
    <g clip-path="url(#p7d93dd6710)">
     <use style="fill:#808080;fill-opacity:0.5;" x="0.0" xlink:href="#m930c3c4693" y="432.0"/>
    </g>
   </g>
   <g id="line2d_38">
    <path clip-path="url(#p7d93dd6710)" d="
M67.4524 78.878
L70.0685 78.878
L70.1731 72.135
L70.3824 78.878
L72.5799 78.878
L72.5849 -1
M73.726 -1
L73.731 78.878
L73.8356 78.878
L76.5564 78.878
L76.661 72.135
L76.8703 78.878
L82.4164 78.878
L82.5211 72.135
L82.7303 78.878
L84.0907 78.878
L84.0907 78.878" style="fill:none;stroke:#0000ff;stroke-linecap:square;"/>
   </g>
   <g id="line2d_39">
    <g clip-path="url(#p7d93dd6710)">
     <use style="fill:#ff0000;stroke:#ff0000;stroke-width:0.5;" x="72.6845535714" xlink:href="#m562aef8efe" y="62.2814673913"/>
     <use style="fill:#ff0000;stroke:#ff0000;stroke-width:0.5;" x="72.7891971726" xlink:href="#m562aef8efe" y="62.2814673913"/>
     <use style="fill:#ff0000;stroke:#ff0000;stroke-width:0.5;" x="72.8938407738" xlink:href="#m562aef8efe" y="62.2814673913"/>
     <use style="fill:#ff0000;stroke:#ff0000;stroke-width:0.5;" x="72.998484375" xlink:href="#m562aef8efe" y="62.2814673913"/>
     <use style="fill:#ff0000;stroke:#ff0000;stroke-width:0.5;" x="73.1031279762" xlink:href="#m562aef8efe" y="62.2814673913"/>
     <use style="fill:#ff0000;stroke:#ff0000;stroke-width:0.5;" x="73.2077715774" xlink:href="#m562aef8efe" y="62.2814673913"/>
     <use style="fill:#ff0000;stroke:#ff0000;stroke-width:0.5;" x="73.3124151786" xlink:href="#m562aef8efe" y="62.2814673913"/>
     <use style="fill:#ff0000;stroke:#ff0000;stroke-width:0.5;" x="73.4170587798" xlink:href="#m562aef8efe" y="62.2814673913"/>
     <use style="fill:#ff0000;stroke:#ff0000;stroke-width:0.5;" x="73.521702381" xlink:href="#m562aef8efe" y="62.2814673913"/>
     <use style="fill:#ff0000;stroke:#ff0000;stroke-width:0.5;" x="73.6263459821" xlink:href="#m562aef8efe" y="62.2814673913"/>
    </g>
   </g>
   <g id="line2d_40">
    <path clip-path="url(#p7d93dd6710)" d="
M67.4524 78.7432
L84.0907 78.7432
L84.0907 78.7432" style="fill:none;stroke:#000000;stroke-dasharray:6.000000,6.000000;stroke-dashoffset:0.0;"/>
   </g>
   <g id="patch_8">
    <path d="
M66.4059 45.8198
L85.2418 45.8198" style="fill:none;stroke:#000000;stroke-linecap:square;stroke-linejoin:miter;"/>
   </g>
   <g id="patch_9">
    <path d="
M85.2418 95.2048
L85.2418 45.8198" style="fill:none;stroke:#000000;stroke-linecap:square;stroke-linejoin:miter;"/>
   </g>
   <g id="patch_10">
    <path d="
M66.4059 95.2048
L85.2418 95.2048" style="fill:none;stroke:#000000;stroke-linecap:square;stroke-linejoin:miter;"/>
   </g>
   <g id="patch_11">
    <path d="
M66.4059 95.2048
L66.4059 45.8198" style="fill:none;stroke:#000000;stroke-linecap:square;stroke-linejoin:miter;"/>
   </g>
   <g id="matplotlib.axis_3">
    <g id="xtick_11">
     <g id="line2d_41">
      <g>
       <use style="stroke:#000000;stroke-width:0.5;" x="66.4059375" xlink:href="#m93b0483c22" y="95.2048369565"/>
      </g>
     </g>
     <g id="line2d_42">
      <g>
       <use style="stroke:#000000;stroke-width:0.5;" x="66.4059375" xlink:href="#m741efc42ff" y="45.8197826087"/>
      </g>
     </g>
     <g id="text_21">
      <!-- −6 -->
      <g transform="translate(58.5740625 108.322961957)scale(0.12 -0.12)">
       <use xlink:href="#BitstreamVeraSans-Roman-2212"/>
       <use x="83.7890625" xlink:href="#BitstreamVeraSans-Roman-36"/>
      </g>
     </g>
    </g>
    <g id="xtick_12">
     <g id="line2d_43">
      <g>
       <use style="stroke:#000000;stroke-width:0.5;" x="68.4988095238" xlink:href="#m93b0483c22" y="95.2048369565"/>
      </g>
     </g>
     <g id="line2d_44">
      <g>
       <use style="stroke:#000000;stroke-width:0.5;" x="68.4988095238" xlink:href="#m741efc42ff" y="45.8197826087"/>
      </g>
     </g>
     <g id="text_22">
      <!-- −4 -->
      <g transform="translate(60.6256845238 108.322961957)scale(0.12 -0.12)">
       <use xlink:href="#BitstreamVeraSans-Roman-2212"/>
       <use x="83.7890625" xlink:href="#BitstreamVeraSans-Roman-34"/>
      </g>
     </g>
    </g>
    <g id="xtick_13">
     <g id="line2d_45">
      <g>
       <use style="stroke:#000000;stroke-width:0.5;" x="70.5916815476" xlink:href="#m93b0483c22" y="95.2048369565"/>
      </g>
     </g>
     <g id="line2d_46">
      <g>
       <use style="stroke:#000000;stroke-width:0.5;" x="70.5916815476" xlink:href="#m741efc42ff" y="45.8197826087"/>
      </g>
     </g>
     <g id="text_23">
      <!-- −2 -->
      <g transform="translate(62.9829315476 108.322961957)scale(0.12 -0.12)">
       <use xlink:href="#BitstreamVeraSans-Roman-2212"/>
       <use x="83.7890625" xlink:href="#BitstreamVeraSans-Roman-32"/>
      </g>
     </g>
    </g>
    <g id="xtick_14">
     <g id="line2d_47">
      <g>
       <use style="stroke:#000000;stroke-width:0.5;" x="72.6845535714" xlink:href="#m93b0483c22" y="95.2048369565"/>
      </g>
     </g>
     <g id="line2d_48">
      <g>
       <use style="stroke:#000000;stroke-width:0.5;" x="72.6845535714" xlink:href="#m741efc42ff" y="45.8197826087"/>
      </g>
     </g>
     <g id="text_24">
      <!-- 0 -->
      <g transform="translate(69.6611160714 108.322961957)scale(0.12 -0.12)">
       <use xlink:href="#BitstreamVeraSans-Roman-30"/>
      </g>
     </g>
    </g>
    <g id="xtick_15">
     <g id="line2d_49">
      <g>
       <use style="stroke:#000000;stroke-width:0.5;" x="74.7774255952" xlink:href="#m93b0483c22" y="95.2048369565"/>
      </g>
     </g>
     <g id="line2d_50">
      <g>
       <use style="stroke:#000000;stroke-width:0.5;" x="74.7774255952" xlink:href="#m741efc42ff" y="45.8197826087"/>
      </g>
     </g>
     <g id="text_25">
      <!-- 2 -->
      <g transform="translate(72.0005505952 108.322961957)scale(0.12 -0.12)">
       <use xlink:href="#BitstreamVeraSans-Roman-32"/>
      </g>
     </g>
    </g>
    <g id="xtick_16">
     <g id="line2d_51">
      <g>
       <use style="stroke:#000000;stroke-width:0.5;" x="76.870297619" xlink:href="#m93b0483c22" y="95.2048369565"/>
      </g>
     </g>
     <g id="line2d_52">
      <g>
       <use style="stroke:#000000;stroke-width:0.5;" x="76.870297619" xlink:href="#m741efc42ff" y="45.8197826087"/>
      </g>
     </g>
     <g id="text_26">
      <!-- 4 -->
      <g transform="translate(73.682797619 108.322961957)scale(0.12 -0.12)">
       <use xlink:href="#BitstreamVeraSans-Roman-34"/>
      </g>
     </g>
    </g>
    <g id="xtick_17">
     <g id="line2d_53">
      <g>
       <use style="stroke:#000000;stroke-width:0.5;" x="78.9631696429" xlink:href="#m93b0483c22" y="95.2048369565"/>
      </g>
     </g>
     <g id="line2d_54">
      <g>
       <use style="stroke:#000000;stroke-width:0.5;" x="78.9631696429" xlink:href="#m741efc42ff" y="45.8197826087"/>
      </g>
     </g>
     <g id="text_27">
      <!-- 6 -->
      <g transform="translate(75.9425446429 108.322961957)scale(0.12 -0.12)">
       <use xlink:href="#BitstreamVeraSans-Roman-36"/>
      </g>
     </g>
    </g>
    <g id="xtick_18">
     <g id="line2d_55">
      <g>
       <use style="stroke:#000000;stroke-width:0.5;" x="81.0560416667" xlink:href="#m93b0483c22" y="95.2048369565"/>
      </g>
     </g>
     <g id="line2d_56">
      <g>
       <use style="stroke:#000000;stroke-width:0.5;" x="81.0560416667" xlink:href="#m741efc42ff" y="45.8197826087"/>
      </g>
     </g>
     <g id="text_28">
      <!-- 8 -->
      <g transform="translate(78.0560416667 108.322961957)scale(0.12 -0.12)">
       <use xlink:href="#BitstreamVeraSans-Roman-38"/>
      </g>
     </g>
    </g>
    <g id="xtick_19">
     <g id="line2d_57">
      <g>
       <use style="stroke:#000000;stroke-width:0.5;" x="83.1489136905" xlink:href="#m93b0483c22" y="95.2048369565"/>
      </g>
     </g>
     <g id="line2d_58">
      <g>
       <use style="stroke:#000000;stroke-width:0.5;" x="83.1489136905" xlink:href="#m741efc42ff" y="45.8197826087"/>
      </g>
     </g>
     <g id="text_29">
      <!-- 10 -->
      <g transform="translate(76.5714136905 108.322961957)scale(0.12 -0.12)">
       <use xlink:href="#BitstreamVeraSans-Roman-31"/>
       <use x="63.623046875" xlink:href="#BitstreamVeraSans-Roman-30"/>
      </g>
     </g>
    </g>
    <g id="xtick_20">
     <g id="line2d_59">
      <g>
       <use style="stroke:#000000;stroke-width:0.5;" x="85.2417857143" xlink:href="#m93b0483c22" y="95.2048369565"/>
      </g>
     </g>
     <g id="line2d_60">
      <g>
       <use style="stroke:#000000;stroke-width:0.5;" x="85.2417857143" xlink:href="#m741efc42ff" y="45.8197826087"/>
      </g>
     </g>
     <g id="text_30">
      <!-- 12 -->
      <g transform="translate(78.8667857143 108.322961957)scale(0.12 -0.12)">
       <use xlink:href="#BitstreamVeraSans-Roman-31"/>
       <use x="63.623046875" xlink:href="#BitstreamVeraSans-Roman-32"/>
      </g>
     </g>
    </g>
    <g id="text_31">
     <!-- Time (s) -->
     <g transform="translate(51.9269866071 124.936711957)scale(0.12 -0.12)">
      <use xlink:href="#BitstreamVeraSans-Roman-54"/>
      <use x="57.958984375" xlink:href="#BitstreamVeraSans-Roman-69"/>
      <use x="85.7421875" xlink:href="#BitstreamVeraSans-Roman-6d"/>
      <use x="183.154296875" xlink:href="#BitstreamVeraSans-Roman-65"/>
      <use x="244.677734375" xlink:href="#BitstreamVeraSans-Roman-20"/>
      <use x="276.46484375" xlink:href="#BitstreamVeraSans-Roman-28"/>
      <use x="315.478515625" xlink:href="#BitstreamVeraSans-Roman-73"/>
      <use x="367.578125" xlink:href="#BitstreamVeraSans-Roman-29"/>
     </g>
    </g>
   </g>
   <g id="matplotlib.axis_4">
    <g id="ytick_8">
     <g id="line2d_61">
      <g>
       <use style="stroke:#000000;stroke-width:0.5;" x="66.4059375" xlink:href="#m728421d6d4" y="95.2048369565"/>
      </g>
     </g>
     <g id="line2d_62">
      <g>
       <use style="stroke:#000000;stroke-width:0.5;" x="85.2417857143" xlink:href="#mcb0005524f" y="95.2048369565"/>
      </g>
     </g>
     <g id="text_32">
      <!-- −1.0 -->
      <g transform="translate(35.3346875 98.5160869565)scale(0.12 -0.12)">
       <use xlink:href="#BitstreamVeraSans-Roman-2212"/>
       <use x="83.7890625" xlink:href="#BitstreamVeraSans-Roman-31"/>
       <use x="147.412109375" xlink:href="#BitstreamVeraSans-Roman-2e"/>
       <use x="179.19921875" xlink:href="#BitstreamVeraSans-Roman-30"/>
      </g>
     </g>
    </g>
    <g id="ytick_9">
     <g id="line2d_63">
      <g>
       <use style="stroke:#000000;stroke-width:0.5;" x="66.4059375" xlink:href="#m728421d6d4" y="86.9739945652"/>
      </g>
     </g>
     <g id="line2d_64">
      <g>
       <use style="stroke:#000000;stroke-width:0.5;" x="85.2417857143" xlink:href="#mcb0005524f" y="86.9739945652"/>
      </g>
     </g>
     <g id="text_33">
      <!-- −0.5 -->
      <g transform="translate(35.5859375 90.2852445652)scale(0.12 -0.12)">
       <use xlink:href="#BitstreamVeraSans-Roman-2212"/>
       <use x="83.7890625" xlink:href="#BitstreamVeraSans-Roman-30"/>
       <use x="147.412109375" xlink:href="#BitstreamVeraSans-Roman-2e"/>
       <use x="179.19921875" xlink:href="#BitstreamVeraSans-Roman-35"/>
      </g>
     </g>
    </g>
    <g id="ytick_10">
     <g id="line2d_65">
      <g>
       <use style="stroke:#000000;stroke-width:0.5;" x="66.4059375" xlink:href="#m728421d6d4" y="78.7431521739"/>
      </g>
     </g>
     <g id="line2d_66">
      <g>
       <use style="stroke:#000000;stroke-width:0.5;" x="85.2417857143" xlink:href="#mcb0005524f" y="78.7431521739"/>
      </g>
     </g>
     <g id="text_34">
      <!-- 0.0 -->
      <g transform="translate(44.9103125 82.0544021739)scale(0.12 -0.12)">
       <use xlink:href="#BitstreamVeraSans-Roman-30"/>
       <use x="63.623046875" xlink:href="#BitstreamVeraSans-Roman-2e"/>
       <use x="95.41015625" xlink:href="#BitstreamVeraSans-Roman-30"/>
      </g>
     </g>
    </g>
    <g id="ytick_11">
     <g id="line2d_67">
      <g>
       <use style="stroke:#000000;stroke-width:0.5;" x="66.4059375" xlink:href="#m728421d6d4" y="70.5123097826"/>
      </g>
     </g>
     <g id="line2d_68">
      <g>
       <use style="stroke:#000000;stroke-width:0.5;" x="85.2417857143" xlink:href="#mcb0005524f" y="70.5123097826"/>
      </g>
     </g>
     <g id="text_35">
      <!-- 0.5 -->
      <g transform="translate(45.1615625 73.8235597826)scale(0.12 -0.12)">
       <use xlink:href="#BitstreamVeraSans-Roman-30"/>
       <use x="63.623046875" xlink:href="#BitstreamVeraSans-Roman-2e"/>
       <use x="95.41015625" xlink:href="#BitstreamVeraSans-Roman-35"/>
      </g>
     </g>
    </g>
    <g id="ytick_12">
     <g id="line2d_69">
      <g>
       <use style="stroke:#000000;stroke-width:0.5;" x="66.4059375" xlink:href="#m728421d6d4" y="62.2814673913"/>
      </g>
     </g>
     <g id="line2d_70">
      <g>
       <use style="stroke:#000000;stroke-width:0.5;" x="85.2417857143" xlink:href="#mcb0005524f" y="62.2814673913"/>
      </g>
     </g>
     <g id="text_36">
      <!-- 1.0 -->
      <g transform="translate(45.4371875 65.5927173913)scale(0.12 -0.12)">
       <use xlink:href="#BitstreamVeraSans-Roman-31"/>
       <use x="63.623046875" xlink:href="#BitstreamVeraSans-Roman-2e"/>
       <use x="95.41015625" xlink:href="#BitstreamVeraSans-Roman-30"/>
      </g>
     </g>
    </g>
    <g id="ytick_13">
     <g id="line2d_71">
      <g>
       <use style="stroke:#000000;stroke-width:0.5;" x="66.4059375" xlink:href="#m728421d6d4" y="54.050625"/>
      </g>
     </g>
     <g id="line2d_72">
      <g>
       <use style="stroke:#000000;stroke-width:0.5;" x="85.2417857143" xlink:href="#mcb0005524f" y="54.050625"/>
      </g>
     </g>
     <g id="text_37">
      <!-- 1.5 -->
      <g transform="translate(45.6884375 57.361875)scale(0.12 -0.12)">
       <use xlink:href="#BitstreamVeraSans-Roman-31"/>
       <use x="63.623046875" xlink:href="#BitstreamVeraSans-Roman-2e"/>
       <use x="95.41015625" xlink:href="#BitstreamVeraSans-Roman-35"/>
      </g>
     </g>
    </g>
    <g id="ytick_14">
     <g id="line2d_73">
      <g>
       <use style="stroke:#000000;stroke-width:0.5;" x="66.4059375" xlink:href="#m728421d6d4" y="45.8197826087"/>
      </g>
     </g>
     <g id="line2d_74">
      <g>
       <use style="stroke:#000000;stroke-width:0.5;" x="85.2417857143" xlink:href="#mcb0005524f" y="45.8197826087"/>
      </g>
     </g>
     <g id="text_38">
      <!-- 2.0 -->
      <g transform="translate(44.9984375 49.1310326087)scale(0.12 -0.12)">
       <use xlink:href="#BitstreamVeraSans-Roman-32"/>
       <use x="63.623046875" xlink:href="#BitstreamVeraSans-Roman-2e"/>
       <use x="95.41015625" xlink:href="#BitstreamVeraSans-Roman-30"/>
      </g>
     </g>
    </g>
    <g id="text_39">
     <!-- Spike Rate Deviation from Baseline  -->
     <g transform="translate(19.7126875 140.775434783)rotate(-90.0)scale(0.08 -0.08)">
      <use xlink:href="#BitstreamVeraSans-Roman-53"/>
      <use x="63.4765625" xlink:href="#BitstreamVeraSans-Roman-70"/>
      <use x="126.953125" xlink:href="#BitstreamVeraSans-Roman-69"/>
      <use x="154.736328125" xlink:href="#BitstreamVeraSans-Roman-6b"/>
      <use x="209.021484375" xlink:href="#BitstreamVeraSans-Roman-65"/>
      <use x="270.544921875" xlink:href="#BitstreamVeraSans-Roman-20"/>
      <use x="302.33203125" xlink:href="#BitstreamVeraSans-Roman-52"/>
      <use x="369.564453125" xlink:href="#BitstreamVeraSans-Roman-61"/>
      <use x="430.84375" xlink:href="#BitstreamVeraSans-Roman-74"/>
      <use x="470.052734375" xlink:href="#BitstreamVeraSans-Roman-65"/>
      <use x="531.576171875" xlink:href="#BitstreamVeraSans-Roman-20"/>
      <use x="563.36328125" xlink:href="#BitstreamVeraSans-Roman-44"/>
      <use x="640.365234375" xlink:href="#BitstreamVeraSans-Roman-65"/>
      <use x="701.888671875" xlink:href="#BitstreamVeraSans-Roman-76"/>
      <use x="761.068359375" xlink:href="#BitstreamVeraSans-Roman-69"/>
      <use x="788.8515625" xlink:href="#BitstreamVeraSans-Roman-61"/>
      <use x="850.130859375" xlink:href="#BitstreamVeraSans-Roman-74"/>
      <use x="889.33984375" xlink:href="#BitstreamVeraSans-Roman-69"/>
      <use x="917.123046875" xlink:href="#BitstreamVeraSans-Roman-6f"/>
      <use x="978.3046875" xlink:href="#BitstreamVeraSans-Roman-6e"/>
      <use x="1041.68359375" xlink:href="#BitstreamVeraSans-Roman-20"/>
      <use x="1073.47070312" xlink:href="#BitstreamVeraSans-Roman-66"/>
      <use x="1108.67578125" xlink:href="#BitstreamVeraSans-Roman-72"/>
      <use x="1147.5390625" xlink:href="#BitstreamVeraSans-Roman-6f"/>
      <use x="1208.72070312" xlink:href="#BitstreamVeraSans-Roman-6d"/>
      <use x="1306.1328125" xlink:href="#BitstreamVeraSans-Roman-20"/>
      <use x="1337.91992188" xlink:href="#BitstreamVeraSans-Roman-42"/>
      <use x="1406.5234375" xlink:href="#BitstreamVeraSans-Roman-61"/>
      <use x="1467.80273438" xlink:href="#BitstreamVeraSans-Roman-73"/>
      <use x="1519.90234375" xlink:href="#BitstreamVeraSans-Roman-65"/>
      <use x="1581.42578125" xlink:href="#BitstreamVeraSans-Roman-6c"/>
      <use x="1609.20898438" xlink:href="#BitstreamVeraSans-Roman-69"/>
      <use x="1636.9921875" xlink:href="#BitstreamVeraSans-Roman-6e"/>
      <use x="1700.37109375" xlink:href="#BitstreamVeraSans-Roman-65"/>
      <use x="1761.89453125" xlink:href="#BitstreamVeraSans-Roman-20"/>
     </g>
     <!--  [zscore(rate - background)] (Hz) -->
     <g transform="translate(28.6709375 135.795434783)rotate(-90.0)scale(0.08 -0.08)">
      <use xlink:href="#BitstreamVeraSans-Roman-20"/>
      <use x="31.787109375" xlink:href="#BitstreamVeraSans-Roman-5b"/>
      <use x="70.80078125" xlink:href="#BitstreamVeraSans-Roman-7a"/>
      <use x="123.291015625" xlink:href="#BitstreamVeraSans-Roman-73"/>
      <use x="175.390625" xlink:href="#BitstreamVeraSans-Roman-63"/>
      <use x="230.37109375" xlink:href="#BitstreamVeraSans-Roman-6f"/>
      <use x="291.552734375" xlink:href="#BitstreamVeraSans-Roman-72"/>
      <use x="330.416015625" xlink:href="#BitstreamVeraSans-Roman-65"/>
      <use x="391.939453125" xlink:href="#BitstreamVeraSans-Roman-28"/>
      <use x="430.953125" xlink:href="#BitstreamVeraSans-Roman-72"/>
      <use x="472.06640625" xlink:href="#BitstreamVeraSans-Roman-61"/>
      <use x="533.345703125" xlink:href="#BitstreamVeraSans-Roman-74"/>
      <use x="572.5546875" xlink:href="#BitstreamVeraSans-Roman-65"/>
      <use x="634.078125" xlink:href="#BitstreamVeraSans-Roman-20"/>
      <use x="665.865234375" xlink:href="#BitstreamVeraSans-Roman-2d"/>
      <use x="701.94921875" xlink:href="#BitstreamVeraSans-Roman-20"/>
      <use x="733.736328125" xlink:href="#BitstreamVeraSans-Roman-62"/>
      <use x="797.212890625" xlink:href="#BitstreamVeraSans-Roman-61"/>
      <use x="858.4921875" xlink:href="#BitstreamVeraSans-Roman-63"/>
      <use x="913.47265625" xlink:href="#BitstreamVeraSans-Roman-6b"/>
      <use x="971.3828125" xlink:href="#BitstreamVeraSans-Roman-67"/>
      <use x="1034.859375" xlink:href="#BitstreamVeraSans-Roman-72"/>
      <use x="1073.72265625" xlink:href="#BitstreamVeraSans-Roman-6f"/>
      <use x="1134.90429688" xlink:href="#BitstreamVeraSans-Roman-75"/>
      <use x="1198.28320312" xlink:href="#BitstreamVeraSans-Roman-6e"/>
      <use x="1261.66210938" xlink:href="#BitstreamVeraSans-Roman-64"/>
      <use x="1325.13867188" xlink:href="#BitstreamVeraSans-Roman-29"/>
      <use x="1364.15234375" xlink:href="#BitstreamVeraSans-Roman-5d"/>
      <use x="1403.16601562" xlink:href="#BitstreamVeraSans-Roman-20"/>
      <use x="1434.953125" xlink:href="#BitstreamVeraSans-Roman-28"/>
      <use x="1473.96679688" xlink:href="#BitstreamVeraSans-Roman-48"/>
      <use x="1549.16210938" xlink:href="#BitstreamVeraSans-Roman-7a"/>
      <use x="1601.65234375" xlink:href="#BitstreamVeraSans-Roman-29"/>
     </g>
    </g>
   </g>
   <g id="text_40">
    <!-- Pre-SMA: Ch 59 - Unit 1 -->
    <g transform="translate(-7.58813839286 40.8197826087)scale(0.144 -0.144)">
     <use xlink:href="#BitstreamVeraSans-Roman-50"/>
     <use x="58.552734375" xlink:href="#BitstreamVeraSans-Roman-72"/>
     <use x="97.416015625" xlink:href="#BitstreamVeraSans-Roman-65"/>
     <use x="158.939453125" xlink:href="#BitstreamVeraSans-Roman-2d"/>
     <use x="195.0234375" xlink:href="#BitstreamVeraSans-Roman-53"/>
     <use x="258.5" xlink:href="#BitstreamVeraSans-Roman-4d"/>
     <use x="344.779296875" xlink:href="#BitstreamVeraSans-Roman-41"/>
     <use x="411.4375" xlink:href="#BitstreamVeraSans-Roman-3a"/>
     <use x="445.12890625" xlink:href="#BitstreamVeraSans-Roman-20"/>
     <use x="476.916015625" xlink:href="#BitstreamVeraSans-Roman-43"/>
     <use x="546.740234375" xlink:href="#BitstreamVeraSans-Roman-68"/>
     <use x="610.119140625" xlink:href="#BitstreamVeraSans-Roman-20"/>
     <use x="641.90625" xlink:href="#BitstreamVeraSans-Roman-35"/>
     <use x="705.529296875" xlink:href="#BitstreamVeraSans-Roman-39"/>
     <use x="769.15234375" xlink:href="#BitstreamVeraSans-Roman-20"/>
     <use x="800.939453125" xlink:href="#BitstreamVeraSans-Roman-2d"/>
     <use x="837.0234375" xlink:href="#BitstreamVeraSans-Roman-20"/>
     <use x="868.810546875" xlink:href="#BitstreamVeraSans-Roman-55"/>
     <use x="942.00390625" xlink:href="#BitstreamVeraSans-Roman-6e"/>
     <use x="1005.3828125" xlink:href="#BitstreamVeraSans-Roman-69"/>
     <use x="1033.16601562" xlink:href="#BitstreamVeraSans-Roman-74"/>
     <use x="1072.375" xlink:href="#BitstreamVeraSans-Roman-20"/>
     <use x="1104.16210938" xlink:href="#BitstreamVeraSans-Roman-31"/>
    </g>
   </g>
  </g>
 </g>
 <defs>
  <clipPath id="p7d93dd6710">
   <rect height="49.3850543478" width="18.8358482143" x="66.4059375" y="45.8197826087"/>
  </clipPath>
  <clipPath id="p936f119476">
   <rect height="49.3850543478" width="18.8358482143" x="492.614866071" y="335.454945652"/>
  </clipPath>
 </defs>
</svg>
