<?xml version="1.0" encoding="utf-8" standalone="no"?>
<!DOCTYPE svg PUBLIC "-//W3C//DTD SVG 1.1//EN"
  "http://www.w3.org/Graphics/SVG/1.1/DTD/svg11.dtd">
<!-- Created with matplotlib (http://matplotlib.org/) -->
<svg height="345pt" version="1.1" viewBox="0 0 460 345" width="460pt" xmlns="http://www.w3.org/2000/svg" xmlns:xlink="http://www.w3.org/1999/xlink">
 <defs>
  <style type="text/css">
*{stroke-linecap:butt;stroke-linejoin:round;}
  </style>
 </defs>
 <g id="figure_1">
  <g id="patch_1">
   <path d="M 0 345.6 
L 460.8 345.6 
L 460.8 0 
L 0 0 
z
" style="fill:#ffffff;"/>
  </g>
  <g id="axes_1">
   <g id="patch_2">
    <path d="M 57.6 307.584 
L 414.72 307.584 
L 414.72 41.472 
L 57.6 41.472 
z
" style="fill:#ffffff;"/>
   </g>
   <g id="PolyCollection_1">
    <defs>
     <path d="M 73.832727 -222.943873 
L 73.832727 -169.404827 
L 84.305455 -166.91481 
L 94.778182 -163.578186 
L 105.250909 -162.296261 
L 115.723636 -162.142086 
L 126.196364 -158.37099 
L 136.669091 -145.807506 
L 147.141818 -125.989051 
L 157.614545 -104.329255 
L 168.087273 -87.318705 
L 178.56 -83.189463 
L 189.032727 -87.499416 
L 199.505455 -93.152132 
L 209.978182 -97.746837 
L 220.450909 -103.366145 
L 230.923636 -110.987114 
L 241.396364 -119.160162 
L 251.869091 -126.490567 
L 262.341818 -133.118064 
L 272.814545 -139.860671 
L 283.287273 -147.030397 
L 293.76 -154.594884 
L 304.232727 -161.854763 
L 314.705455 -167.698287 
L 325.178182 -171.869226 
L 335.650909 -175.580531 
L 346.123636 -178.937575 
L 356.596364 -180.898579 
L 367.069091 -182.389045 
L 377.541818 -184.597714 
L 388.014545 -186.942962 
L 398.487273 -188.908906 
L 398.487273 -265.888894 
L 398.487273 -265.888894 
L 388.014545 -261.056438 
L 377.541818 -254.927486 
L 367.069091 -248.642355 
L 356.596364 -242.756221 
L 346.123636 -237.912525 
L 335.650909 -234.098769 
L 325.178182 -230.231174 
L 314.705455 -226.210713 
L 304.232727 -221.927337 
L 293.76 -216.533316 
L 283.287273 -210.204203 
L 272.814545 -203.656729 
L 262.341818 -197.050336 
L 251.869091 -189.894133 
L 241.396364 -181.954738 
L 230.923636 -173.565086 
L 220.450909 -165.425555 
L 209.978182 -158.030463 
L 199.505455 -150.648168 
L 189.032727 -141.143784 
L 178.56 -128.676837 
L 168.087273 -118.453395 
L 157.614545 -120.004745 
L 147.141818 -141.215049 
L 136.669091 -170.467994 
L 126.196364 -193.40221 
L 115.723636 -206.409414 
L 105.250909 -212.457239 
L 94.778182 -216.101214 
L 84.305455 -219.20319 
L 73.832727 -222.943873 
z
" id="m213e1bba40"/>
    </defs>
    <g clip-path="url(#p722230a05e)">
     <use style="fill-opacity:0.5;" x="0" xlink:href="#m213e1bba40" y="345.6"/>
    </g>
   </g>
   <g id="matplotlib.axis_1">
    <g id="xtick_1">
     <g id="line2d_1">
      <defs>
       <path d="M 0 0 
L 0 3.5 
" id="m3de1b0f427" style="stroke:#000000;stroke-width:0.8;"/>
      </defs>
      <g>
       <use style="stroke:#000000;stroke-width:0.8;" x="73.832727" xlink:href="#m3de1b0f427" y="307.584"/>
      </g>
     </g>
     <g id="text_1">
      <!-- 0.0000 -->
      <defs>
       <path d="M 31.78125 66.40625 
Q 24.171875 66.40625 20.328125 58.90625 
Q 16.5 51.421875 16.5 36.375 
Q 16.5 21.390625 20.328125 13.890625 
Q 24.171875 6.390625 31.78125 6.390625 
Q 39.453125 6.390625 43.28125 13.890625 
Q 47.125 21.390625 47.125 36.375 
Q 47.125 51.421875 43.28125 58.90625 
Q 39.453125 66.40625 31.78125 66.40625 
z
M 31.78125 74.21875 
Q 44.046875 74.21875 50.515625 64.515625 
Q 56.984375 54.828125 56.984375 36.375 
Q 56.984375 17.96875 50.515625 8.265625 
Q 44.046875 -1.421875 31.78125 -1.421875 
Q 19.53125 -1.421875 13.0625 8.265625 
Q 6.59375 17.96875 6.59375 36.375 
Q 6.59375 54.828125 13.0625 64.515625 
Q 19.53125 74.21875 31.78125 74.21875 
z
" id="DejaVuSans-30"/>
       <path d="M 10.6875 12.40625 
L 21 12.40625 
L 21 0 
L 10.6875 0 
z
" id="DejaVuSans-2e"/>
      </defs>
      <g transform="translate(56.337415 322.182437)scale(0.1 -0.1)">
       <use xlink:href="#DejaVuSans-30"/>
       <use x="63.623047" xlink:href="#DejaVuSans-2e"/>
       <use x="95.410156" xlink:href="#DejaVuSans-30"/>
       <use x="159.033203" xlink:href="#DejaVuSans-30"/>
       <use x="222.65625" xlink:href="#DejaVuSans-30"/>
       <use x="286.279297" xlink:href="#DejaVuSans-30"/>
      </g>
     </g>
    </g>
    <g id="xtick_2">
     <g id="line2d_2">
      <g>
       <use style="stroke:#000000;stroke-width:0.8;" x="115.723636" xlink:href="#m3de1b0f427" y="307.584"/>
      </g>
     </g>
     <g id="text_2">
      <!-- 0.0001 -->
      <defs>
       <path d="M 12.40625 8.296875 
L 28.515625 8.296875 
L 28.515625 63.921875 
L 10.984375 60.40625 
L 10.984375 69.390625 
L 28.421875 72.90625 
L 38.28125 72.90625 
L 38.28125 8.296875 
L 54.390625 8.296875 
L 54.390625 0 
L 12.40625 0 
z
" id="DejaVuSans-31"/>
      </defs>
      <g transform="translate(98.228324 322.182437)scale(0.1 -0.1)">
       <use xlink:href="#DejaVuSans-30"/>
       <use x="63.623047" xlink:href="#DejaVuSans-2e"/>
       <use x="95.410156" xlink:href="#DejaVuSans-30"/>
       <use x="159.033203" xlink:href="#DejaVuSans-30"/>
       <use x="222.65625" xlink:href="#DejaVuSans-30"/>
       <use x="286.279297" xlink:href="#DejaVuSans-31"/>
      </g>
     </g>
    </g>
    <g id="xtick_3">
     <g id="line2d_3">
      <g>
       <use style="stroke:#000000;stroke-width:0.8;" x="157.614545" xlink:href="#m3de1b0f427" y="307.584"/>
      </g>
     </g>
     <g id="text_3">
      <!-- 0.0002 -->
      <defs>
       <path d="M 19.1875 8.296875 
L 53.609375 8.296875 
L 53.609375 0 
L 7.328125 0 
L 7.328125 8.296875 
Q 12.9375 14.109375 22.625 23.890625 
Q 32.328125 33.6875 34.8125 36.53125 
Q 39.546875 41.84375 41.421875 45.53125 
Q 43.3125 49.21875 43.3125 52.78125 
Q 43.3125 58.59375 39.234375 62.25 
Q 35.15625 65.921875 28.609375 65.921875 
Q 23.96875 65.921875 18.8125 64.3125 
Q 13.671875 62.703125 7.8125 59.421875 
L 7.8125 69.390625 
Q 13.765625 71.78125 18.9375 73 
Q 24.125 74.21875 28.421875 74.21875 
Q 39.75 74.21875 46.484375 68.546875 
Q 53.21875 62.890625 53.21875 53.421875 
Q 53.21875 48.921875 51.53125 44.890625 
Q 49.859375 40.875 45.40625 35.40625 
Q 44.1875 33.984375 37.640625 27.21875 
Q 31.109375 20.453125 19.1875 8.296875 
z
" id="DejaVuSans-32"/>
      </defs>
      <g transform="translate(140.119233 322.182437)scale(0.1 -0.1)">
       <use xlink:href="#DejaVuSans-30"/>
       <use x="63.623047" xlink:href="#DejaVuSans-2e"/>
       <use x="95.410156" xlink:href="#DejaVuSans-30"/>
       <use x="159.033203" xlink:href="#DejaVuSans-30"/>
       <use x="222.65625" xlink:href="#DejaVuSans-30"/>
       <use x="286.279297" xlink:href="#DejaVuSans-32"/>
      </g>
     </g>
    </g>
    <g id="xtick_4">
     <g id="line2d_4">
      <g>
       <use style="stroke:#000000;stroke-width:0.8;" x="199.505455" xlink:href="#m3de1b0f427" y="307.584"/>
      </g>
     </g>
     <g id="text_4">
      <!-- 0.0003 -->
      <defs>
       <path d="M 40.578125 39.3125 
Q 47.65625 37.796875 51.625 33 
Q 55.609375 28.21875 55.609375 21.1875 
Q 55.609375 10.40625 48.1875 4.484375 
Q 40.765625 -1.421875 27.09375 -1.421875 
Q 22.515625 -1.421875 17.65625 -0.515625 
Q 12.796875 0.390625 7.625 2.203125 
L 7.625 11.71875 
Q 11.71875 9.328125 16.59375 8.109375 
Q 21.484375 6.890625 26.8125 6.890625 
Q 36.078125 6.890625 40.9375 10.546875 
Q 45.796875 14.203125 45.796875 21.1875 
Q 45.796875 27.640625 41.28125 31.265625 
Q 36.765625 34.90625 28.71875 34.90625 
L 20.21875 34.90625 
L 20.21875 43.015625 
L 29.109375 43.015625 
Q 36.375 43.015625 40.234375 45.921875 
Q 44.09375 48.828125 44.09375 54.296875 
Q 44.09375 59.90625 40.109375 62.90625 
Q 36.140625 65.921875 28.71875 65.921875 
Q 24.65625 65.921875 20.015625 65.03125 
Q 15.375 64.15625 9.8125 62.3125 
L 9.8125 71.09375 
Q 15.4375 72.65625 20.34375 73.4375 
Q 25.25 74.21875 29.59375 74.21875 
Q 40.828125 74.21875 47.359375 69.109375 
Q 53.90625 64.015625 53.90625 55.328125 
Q 53.90625 49.265625 50.4375 45.09375 
Q 46.96875 40.921875 40.578125 39.3125 
z
" id="DejaVuSans-33"/>
      </defs>
      <g transform="translate(182.010142 322.182437)scale(0.1 -0.1)">
       <use xlink:href="#DejaVuSans-30"/>
       <use x="63.623047" xlink:href="#DejaVuSans-2e"/>
       <use x="95.410156" xlink:href="#DejaVuSans-30"/>
       <use x="159.033203" xlink:href="#DejaVuSans-30"/>
       <use x="222.65625" xlink:href="#DejaVuSans-30"/>
       <use x="286.279297" xlink:href="#DejaVuSans-33"/>
      </g>
     </g>
    </g>
    <g id="xtick_5">
     <g id="line2d_5">
      <g>
       <use style="stroke:#000000;stroke-width:0.8;" x="241.396364" xlink:href="#m3de1b0f427" y="307.584"/>
      </g>
     </g>
     <g id="text_5">
      <!-- 0.0004 -->
      <defs>
       <path d="M 37.796875 64.3125 
L 12.890625 25.390625 
L 37.796875 25.390625 
z
M 35.203125 72.90625 
L 47.609375 72.90625 
L 47.609375 25.390625 
L 58.015625 25.390625 
L 58.015625 17.1875 
L 47.609375 17.1875 
L 47.609375 0 
L 37.796875 0 
L 37.796875 17.1875 
L 4.890625 17.1875 
L 4.890625 26.703125 
z
" id="DejaVuSans-34"/>
      </defs>
      <g transform="translate(223.901051 322.182437)scale(0.1 -0.1)">
       <use xlink:href="#DejaVuSans-30"/>
       <use x="63.623047" xlink:href="#DejaVuSans-2e"/>
       <use x="95.410156" xlink:href="#DejaVuSans-30"/>
       <use x="159.033203" xlink:href="#DejaVuSans-30"/>
       <use x="222.65625" xlink:href="#DejaVuSans-30"/>
       <use x="286.279297" xlink:href="#DejaVuSans-34"/>
      </g>
     </g>
    </g>
    <g id="xtick_6">
     <g id="line2d_6">
      <g>
       <use style="stroke:#000000;stroke-width:0.8;" x="283.287273" xlink:href="#m3de1b0f427" y="307.584"/>
      </g>
     </g>
     <g id="text_6">
      <!-- 0.0005 -->
      <defs>
       <path d="M 10.796875 72.90625 
L 49.515625 72.90625 
L 49.515625 64.59375 
L 19.828125 64.59375 
L 19.828125 46.734375 
Q 21.96875 47.46875 24.109375 47.828125 
Q 26.265625 48.1875 28.421875 48.1875 
Q 40.625 48.1875 47.75 41.5 
Q 54.890625 34.8125 54.890625 23.390625 
Q 54.890625 11.625 47.5625 5.09375 
Q 40.234375 -1.421875 26.90625 -1.421875 
Q 22.3125 -1.421875 17.546875 -0.640625 
Q 12.796875 0.140625 7.71875 1.703125 
L 7.71875 11.625 
Q 12.109375 9.234375 16.796875 8.0625 
Q 21.484375 6.890625 26.703125 6.890625 
Q 35.15625 6.890625 40.078125 11.328125 
Q 45.015625 15.765625 45.015625 23.390625 
Q 45.015625 31 40.078125 35.4375 
Q 35.15625 39.890625 26.703125 39.890625 
Q 22.75 39.890625 18.8125 39.015625 
Q 14.890625 38.140625 10.796875 36.28125 
z
" id="DejaVuSans-35"/>
      </defs>
      <g transform="translate(265.79196 322.182437)scale(0.1 -0.1)">
       <use xlink:href="#DejaVuSans-30"/>
       <use x="63.623047" xlink:href="#DejaVuSans-2e"/>
       <use x="95.410156" xlink:href="#DejaVuSans-30"/>
       <use x="159.033203" xlink:href="#DejaVuSans-30"/>
       <use x="222.65625" xlink:href="#DejaVuSans-30"/>
       <use x="286.279297" xlink:href="#DejaVuSans-35"/>
      </g>
     </g>
    </g>
    <g id="xtick_7">
     <g id="line2d_7">
      <g>
       <use style="stroke:#000000;stroke-width:0.8;" x="325.178182" xlink:href="#m3de1b0f427" y="307.584"/>
      </g>
     </g>
     <g id="text_7">
      <!-- 0.0006 -->
      <defs>
       <path d="M 33.015625 40.375 
Q 26.375 40.375 22.484375 35.828125 
Q 18.609375 31.296875 18.609375 23.390625 
Q 18.609375 15.53125 22.484375 10.953125 
Q 26.375 6.390625 33.015625 6.390625 
Q 39.65625 6.390625 43.53125 10.953125 
Q 47.40625 15.53125 47.40625 23.390625 
Q 47.40625 31.296875 43.53125 35.828125 
Q 39.65625 40.375 33.015625 40.375 
z
M 52.59375 71.296875 
L 52.59375 62.3125 
Q 48.875 64.0625 45.09375 64.984375 
Q 41.3125 65.921875 37.59375 65.921875 
Q 27.828125 65.921875 22.671875 59.328125 
Q 17.53125 52.734375 16.796875 39.40625 
Q 19.671875 43.65625 24.015625 45.921875 
Q 28.375 48.1875 33.59375 48.1875 
Q 44.578125 48.1875 50.953125 41.515625 
Q 57.328125 34.859375 57.328125 23.390625 
Q 57.328125 12.15625 50.6875 5.359375 
Q 44.046875 -1.421875 33.015625 -1.421875 
Q 20.359375 -1.421875 13.671875 8.265625 
Q 6.984375 17.96875 6.984375 36.375 
Q 6.984375 53.65625 15.1875 63.9375 
Q 23.390625 74.21875 37.203125 74.21875 
Q 40.921875 74.21875 44.703125 73.484375 
Q 48.484375 72.75 52.59375 71.296875 
z
" id="DejaVuSans-36"/>
      </defs>
      <g transform="translate(307.682869 322.182437)scale(0.1 -0.1)">
       <use xlink:href="#DejaVuSans-30"/>
       <use x="63.623047" xlink:href="#DejaVuSans-2e"/>
       <use x="95.410156" xlink:href="#DejaVuSans-30"/>
       <use x="159.033203" xlink:href="#DejaVuSans-30"/>
       <use x="222.65625" xlink:href="#DejaVuSans-30"/>
       <use x="286.279297" xlink:href="#DejaVuSans-36"/>
      </g>
     </g>
    </g>
    <g id="xtick_8">
     <g id="line2d_8">
      <g>
       <use style="stroke:#000000;stroke-width:0.8;" x="367.069091" xlink:href="#m3de1b0f427" y="307.584"/>
      </g>
     </g>
     <g id="text_8">
      <!-- 0.0007 -->
      <defs>
       <path d="M 8.203125 72.90625 
L 55.078125 72.90625 
L 55.078125 68.703125 
L 28.609375 0 
L 18.3125 0 
L 43.21875 64.59375 
L 8.203125 64.59375 
z
" id="DejaVuSans-37"/>
      </defs>
      <g transform="translate(349.573778 322.182437)scale(0.1 -0.1)">
       <use xlink:href="#DejaVuSans-30"/>
       <use x="63.623047" xlink:href="#DejaVuSans-2e"/>
       <use x="95.410156" xlink:href="#DejaVuSans-30"/>
       <use x="159.033203" xlink:href="#DejaVuSans-30"/>
       <use x="222.65625" xlink:href="#DejaVuSans-30"/>
       <use x="286.279297" xlink:href="#DejaVuSans-37"/>
      </g>
     </g>
    </g>
    <g id="xtick_9">
     <g id="line2d_9">
      <g>
       <use style="stroke:#000000;stroke-width:0.8;" x="408.96" xlink:href="#m3de1b0f427" y="307.584"/>
      </g>
     </g>
     <g id="text_9">
      <!-- 0.0008 -->
      <defs>
       <path d="M 31.78125 34.625 
Q 24.75 34.625 20.71875 30.859375 
Q 16.703125 27.09375 16.703125 20.515625 
Q 16.703125 13.921875 20.71875 10.15625 
Q 24.75 6.390625 31.78125 6.390625 
Q 38.8125 6.390625 42.859375 10.171875 
Q 46.921875 13.96875 46.921875 20.515625 
Q 46.921875 27.09375 42.890625 30.859375 
Q 38.875 34.625 31.78125 34.625 
z
M 21.921875 38.8125 
Q 15.578125 40.375 12.03125 44.71875 
Q 8.5 49.078125 8.5 55.328125 
Q 8.5 64.0625 14.71875 69.140625 
Q 20.953125 74.21875 31.78125 74.21875 
Q 42.671875 74.21875 48.875 69.140625 
Q 55.078125 64.0625 55.078125 55.328125 
Q 55.078125 49.078125 51.53125 44.71875 
Q 48 40.375 41.703125 38.8125 
Q 48.828125 37.15625 52.796875 32.3125 
Q 56.78125 27.484375 56.78125 20.515625 
Q 56.78125 9.90625 50.3125 4.234375 
Q 43.84375 -1.421875 31.78125 -1.421875 
Q 19.734375 -1.421875 13.25 4.234375 
Q 6.78125 9.90625 6.78125 20.515625 
Q 6.78125 27.484375 10.78125 32.3125 
Q 14.796875 37.15625 21.921875 38.8125 
z
M 18.3125 54.390625 
Q 18.3125 48.734375 21.84375 45.5625 
Q 25.390625 42.390625 31.78125 42.390625 
Q 38.140625 42.390625 41.71875 45.5625 
Q 45.3125 48.734375 45.3125 54.390625 
Q 45.3125 60.0625 41.71875 63.234375 
Q 38.140625 66.40625 31.78125 66.40625 
Q 25.390625 66.40625 21.84375 63.234375 
Q 18.3125 60.0625 18.3125 54.390625 
z
" id="DejaVuSans-38"/>
      </defs>
      <g transform="translate(391.464687 322.182437)scale(0.1 -0.1)">
       <use xlink:href="#DejaVuSans-30"/>
       <use x="63.623047" xlink:href="#DejaVuSans-2e"/>
       <use x="95.410156" xlink:href="#DejaVuSans-30"/>
       <use x="159.033203" xlink:href="#DejaVuSans-30"/>
       <use x="222.65625" xlink:href="#DejaVuSans-30"/>
       <use x="286.279297" xlink:href="#DejaVuSans-38"/>
      </g>
     </g>
    </g>
    <g id="text_10">
     <!-- Time (s) -->
     <defs>
      <path d="M -0.296875 72.90625 
L 61.375 72.90625 
L 61.375 64.59375 
L 35.5 64.59375 
L 35.5 0 
L 25.59375 0 
L 25.59375 64.59375 
L -0.296875 64.59375 
z
" id="DejaVuSans-54"/>
      <path d="M 9.421875 54.6875 
L 18.40625 54.6875 
L 18.40625 0 
L 9.421875 0 
z
M 9.421875 75.984375 
L 18.40625 75.984375 
L 18.40625 64.59375 
L 9.421875 64.59375 
z
" id="DejaVuSans-69"/>
      <path d="M 52 44.1875 
Q 55.375 50.25 60.0625 53.125 
Q 64.75 56 71.09375 56 
Q 79.640625 56 84.28125 50.015625 
Q 88.921875 44.046875 88.921875 33.015625 
L 88.921875 0 
L 79.890625 0 
L 79.890625 32.71875 
Q 79.890625 40.578125 77.09375 44.375 
Q 74.3125 48.1875 68.609375 48.1875 
Q 61.625 48.1875 57.5625 43.546875 
Q 53.515625 38.921875 53.515625 30.90625 
L 53.515625 0 
L 44.484375 0 
L 44.484375 32.71875 
Q 44.484375 40.625 41.703125 44.40625 
Q 38.921875 48.1875 33.109375 48.1875 
Q 26.21875 48.1875 22.15625 43.53125 
Q 18.109375 38.875 18.109375 30.90625 
L 18.109375 0 
L 9.078125 0 
L 9.078125 54.6875 
L 18.109375 54.6875 
L 18.109375 46.1875 
Q 21.1875 51.21875 25.484375 53.609375 
Q 29.78125 56 35.6875 56 
Q 41.65625 56 45.828125 52.96875 
Q 50 49.953125 52 44.1875 
z
" id="DejaVuSans-6d"/>
      <path d="M 56.203125 29.59375 
L 56.203125 25.203125 
L 14.890625 25.203125 
Q 15.484375 15.921875 20.484375 11.0625 
Q 25.484375 6.203125 34.421875 6.203125 
Q 39.59375 6.203125 44.453125 7.46875 
Q 49.3125 8.734375 54.109375 11.28125 
L 54.109375 2.78125 
Q 49.265625 0.734375 44.1875 -0.34375 
Q 39.109375 -1.421875 33.890625 -1.421875 
Q 20.796875 -1.421875 13.15625 6.1875 
Q 5.515625 13.8125 5.515625 26.8125 
Q 5.515625 40.234375 12.765625 48.109375 
Q 20.015625 56 32.328125 56 
Q 43.359375 56 49.78125 48.890625 
Q 56.203125 41.796875 56.203125 29.59375 
z
M 47.21875 32.234375 
Q 47.125 39.59375 43.09375 43.984375 
Q 39.0625 48.390625 32.421875 48.390625 
Q 24.90625 48.390625 20.390625 44.140625 
Q 15.875 39.890625 15.1875 32.171875 
z
" id="DejaVuSans-65"/>
      <path id="DejaVuSans-20"/>
      <path d="M 31 75.875 
Q 24.46875 64.65625 21.28125 53.65625 
Q 18.109375 42.671875 18.109375 31.390625 
Q 18.109375 20.125 21.3125 9.0625 
Q 24.515625 -2 31 -13.1875 
L 23.1875 -13.1875 
Q 15.875 -1.703125 12.234375 9.375 
Q 8.59375 20.453125 8.59375 31.390625 
Q 8.59375 42.28125 12.203125 53.3125 
Q 15.828125 64.359375 23.1875 75.875 
z
" id="DejaVuSans-28"/>
      <path d="M 44.28125 53.078125 
L 44.28125 44.578125 
Q 40.484375 46.53125 36.375 47.5 
Q 32.28125 48.484375 27.875 48.484375 
Q 21.1875 48.484375 17.84375 46.4375 
Q 14.5 44.390625 14.5 40.28125 
Q 14.5 37.15625 16.890625 35.375 
Q 19.28125 33.59375 26.515625 31.984375 
L 29.59375 31.296875 
Q 39.15625 29.25 43.1875 25.515625 
Q 47.21875 21.78125 47.21875 15.09375 
Q 47.21875 7.46875 41.1875 3.015625 
Q 35.15625 -1.421875 24.609375 -1.421875 
Q 20.21875 -1.421875 15.453125 -0.5625 
Q 10.6875 0.296875 5.421875 2 
L 5.421875 11.28125 
Q 10.40625 8.6875 15.234375 7.390625 
Q 20.0625 6.109375 24.8125 6.109375 
Q 31.15625 6.109375 34.5625 8.28125 
Q 37.984375 10.453125 37.984375 14.40625 
Q 37.984375 18.0625 35.515625 20.015625 
Q 33.0625 21.96875 24.703125 23.78125 
L 21.578125 24.515625 
Q 13.234375 26.265625 9.515625 29.90625 
Q 5.8125 33.546875 5.8125 39.890625 
Q 5.8125 47.609375 11.28125 51.796875 
Q 16.75 56 26.8125 56 
Q 31.78125 56 36.171875 55.265625 
Q 40.578125 54.546875 44.28125 53.078125 
z
" id="DejaVuSans-73"/>
      <path d="M 8.015625 75.875 
L 15.828125 75.875 
Q 23.140625 64.359375 26.78125 53.3125 
Q 30.421875 42.28125 30.421875 31.390625 
Q 30.421875 20.453125 26.78125 9.375 
Q 23.140625 -1.703125 15.828125 -13.1875 
L 8.015625 -13.1875 
Q 14.5 -2 17.703125 9.0625 
Q 20.90625 20.125 20.90625 31.390625 
Q 20.90625 42.671875 17.703125 53.65625 
Q 14.5 64.65625 8.015625 75.875 
z
" id="DejaVuSans-29"/>
     </defs>
     <g transform="translate(215.677188 335.860562)scale(0.1 -0.1)">
      <use xlink:href="#DejaVuSans-54"/>
      <use x="61.037109" xlink:href="#DejaVuSans-69"/>
      <use x="88.820312" xlink:href="#DejaVuSans-6d"/>
      <use x="186.232422" xlink:href="#DejaVuSans-65"/>
      <use x="247.755859" xlink:href="#DejaVuSans-20"/>
      <use x="279.542969" xlink:href="#DejaVuSans-28"/>
      <use x="318.556641" xlink:href="#DejaVuSans-73"/>
      <use x="370.65625" xlink:href="#DejaVuSans-29"/>
     </g>
    </g>
   </g>
   <g id="matplotlib.axis_2">
    <g id="ytick_1">
     <g id="line2d_10">
      <defs>
       <path d="M 0 0 
L -3.5 0 
" id="md52a5a30f0" style="stroke:#000000;stroke-width:0.8;"/>
      </defs>
      <g>
       <use style="stroke:#000000;stroke-width:0.8;" x="57.6" xlink:href="#md52a5a30f0" y="307.584"/>
      </g>
     </g>
     <g id="text_11">
      <!-- −50 -->
      <defs>
       <path d="M 10.59375 35.5 
L 73.1875 35.5 
L 73.1875 27.203125 
L 10.59375 27.203125 
z
" id="DejaVuSans-2212"/>
      </defs>
      <g transform="translate(29.495313 311.383219)scale(0.1 -0.1)">
       <use xlink:href="#DejaVuSans-2212"/>
       <use x="83.789062" xlink:href="#DejaVuSans-35"/>
       <use x="147.412109" xlink:href="#DejaVuSans-30"/>
      </g>
     </g>
    </g>
    <g id="ytick_2">
     <g id="line2d_11">
      <g>
       <use style="stroke:#000000;stroke-width:0.8;" x="57.6" xlink:href="#md52a5a30f0" y="274.32"/>
      </g>
     </g>
     <g id="text_12">
      <!-- −40 -->
      <g transform="translate(29.495313 278.119219)scale(0.1 -0.1)">
       <use xlink:href="#DejaVuSans-2212"/>
       <use x="83.789062" xlink:href="#DejaVuSans-34"/>
       <use x="147.412109" xlink:href="#DejaVuSans-30"/>
      </g>
     </g>
    </g>
    <g id="ytick_3">
     <g id="line2d_12">
      <g>
       <use style="stroke:#000000;stroke-width:0.8;" x="57.6" xlink:href="#md52a5a30f0" y="241.056"/>
      </g>
     </g>
     <g id="text_13">
      <!-- −30 -->
      <g transform="translate(29.495313 244.855219)scale(0.1 -0.1)">
       <use xlink:href="#DejaVuSans-2212"/>
       <use x="83.789062" xlink:href="#DejaVuSans-33"/>
       <use x="147.412109" xlink:href="#DejaVuSans-30"/>
      </g>
     </g>
    </g>
    <g id="ytick_4">
     <g id="line2d_13">
      <g>
       <use style="stroke:#000000;stroke-width:0.8;" x="57.6" xlink:href="#md52a5a30f0" y="207.792"/>
      </g>
     </g>
     <g id="text_14">
      <!-- −20 -->
      <g transform="translate(29.495313 211.591219)scale(0.1 -0.1)">
       <use xlink:href="#DejaVuSans-2212"/>
       <use x="83.789062" xlink:href="#DejaVuSans-32"/>
       <use x="147.412109" xlink:href="#DejaVuSans-30"/>
      </g>
     </g>
    </g>
    <g id="ytick_5">
     <g id="line2d_14">
      <g>
       <use style="stroke:#000000;stroke-width:0.8;" x="57.6" xlink:href="#md52a5a30f0" y="174.528"/>
      </g>
     </g>
     <g id="text_15">
      <!-- −10 -->
      <g transform="translate(29.495313 178.327219)scale(0.1 -0.1)">
       <use xlink:href="#DejaVuSans-2212"/>
       <use x="83.789062" xlink:href="#DejaVuSans-31"/>
       <use x="147.412109" xlink:href="#DejaVuSans-30"/>
      </g>
     </g>
    </g>
    <g id="ytick_6">
     <g id="line2d_15">
      <g>
       <use style="stroke:#000000;stroke-width:0.8;" x="57.6" xlink:href="#md52a5a30f0" y="141.264"/>
      </g>
     </g>
     <g id="text_16">
      <!-- 0 -->
      <g transform="translate(44.2375 145.063219)scale(0.1 -0.1)">
       <use xlink:href="#DejaVuSans-30"/>
      </g>
     </g>
    </g>
    <g id="ytick_7">
     <g id="line2d_16">
      <g>
       <use style="stroke:#000000;stroke-width:0.8;" x="57.6" xlink:href="#md52a5a30f0" y="108"/>
      </g>
     </g>
     <g id="text_17">
      <!-- 10 -->
      <g transform="translate(37.875 111.799219)scale(0.1 -0.1)">
       <use xlink:href="#DejaVuSans-31"/>
       <use x="63.623047" xlink:href="#DejaVuSans-30"/>
      </g>
     </g>
    </g>
    <g id="ytick_8">
     <g id="line2d_17">
      <g>
       <use style="stroke:#000000;stroke-width:0.8;" x="57.6" xlink:href="#md52a5a30f0" y="74.736"/>
      </g>
     </g>
     <g id="text_18">
      <!-- 20 -->
      <g transform="translate(37.875 78.535219)scale(0.1 -0.1)">
       <use xlink:href="#DejaVuSans-32"/>
       <use x="63.623047" xlink:href="#DejaVuSans-30"/>
      </g>
     </g>
    </g>
    <g id="ytick_9">
     <g id="line2d_18">
      <g>
       <use style="stroke:#000000;stroke-width:0.8;" x="57.6" xlink:href="#md52a5a30f0" y="41.472"/>
      </g>
     </g>
     <g id="text_19">
      <!-- 30 -->
      <g transform="translate(37.875 45.271219)scale(0.1 -0.1)">
       <use xlink:href="#DejaVuSans-33"/>
       <use x="63.623047" xlink:href="#DejaVuSans-30"/>
      </g>
     </g>
    </g>
    <g id="text_20">
     <!-- Voltage ($\mu$V) -->
     <defs>
      <path d="M 28.609375 0 
L 0.78125 72.90625 
L 11.078125 72.90625 
L 34.1875 11.53125 
L 57.328125 72.90625 
L 67.578125 72.90625 
L 39.796875 0 
z
" id="DejaVuSans-56"/>
      <path d="M 30.609375 48.390625 
Q 23.390625 48.390625 19.1875 42.75 
Q 14.984375 37.109375 14.984375 27.296875 
Q 14.984375 17.484375 19.15625 11.84375 
Q 23.34375 6.203125 30.609375 6.203125 
Q 37.796875 6.203125 41.984375 11.859375 
Q 46.1875 17.53125 46.1875 27.296875 
Q 46.1875 37.015625 41.984375 42.703125 
Q 37.796875 48.390625 30.609375 48.390625 
z
M 30.609375 56 
Q 42.328125 56 49.015625 48.375 
Q 55.71875 40.765625 55.71875 27.296875 
Q 55.71875 13.875 49.015625 6.21875 
Q 42.328125 -1.421875 30.609375 -1.421875 
Q 18.84375 -1.421875 12.171875 6.21875 
Q 5.515625 13.875 5.515625 27.296875 
Q 5.515625 40.765625 12.171875 48.375 
Q 18.84375 56 30.609375 56 
z
" id="DejaVuSans-6f"/>
      <path d="M 9.421875 75.984375 
L 18.40625 75.984375 
L 18.40625 0 
L 9.421875 0 
z
" id="DejaVuSans-6c"/>
      <path d="M 18.3125 70.21875 
L 18.3125 54.6875 
L 36.8125 54.6875 
L 36.8125 47.703125 
L 18.3125 47.703125 
L 18.3125 18.015625 
Q 18.3125 11.328125 20.140625 9.421875 
Q 21.96875 7.515625 27.59375 7.515625 
L 36.8125 7.515625 
L 36.8125 0 
L 27.59375 0 
Q 17.1875 0 13.234375 3.875 
Q 9.28125 7.765625 9.28125 18.015625 
L 9.28125 47.703125 
L 2.6875 47.703125 
L 2.6875 54.6875 
L 9.28125 54.6875 
L 9.28125 70.21875 
z
" id="DejaVuSans-74"/>
      <path d="M 34.28125 27.484375 
Q 23.390625 27.484375 19.1875 25 
Q 14.984375 22.515625 14.984375 16.5 
Q 14.984375 11.71875 18.140625 8.90625 
Q 21.296875 6.109375 26.703125 6.109375 
Q 34.1875 6.109375 38.703125 11.40625 
Q 43.21875 16.703125 43.21875 25.484375 
L 43.21875 27.484375 
z
M 52.203125 31.203125 
L 52.203125 0 
L 43.21875 0 
L 43.21875 8.296875 
Q 40.140625 3.328125 35.546875 0.953125 
Q 30.953125 -1.421875 24.3125 -1.421875 
Q 15.921875 -1.421875 10.953125 3.296875 
Q 6 8.015625 6 15.921875 
Q 6 25.140625 12.171875 29.828125 
Q 18.359375 34.515625 30.609375 34.515625 
L 43.21875 34.515625 
L 43.21875 35.40625 
Q 43.21875 41.609375 39.140625 45 
Q 35.0625 48.390625 27.6875 48.390625 
Q 23 48.390625 18.546875 47.265625 
Q 14.109375 46.140625 10.015625 43.890625 
L 10.015625 52.203125 
Q 14.9375 54.109375 19.578125 55.046875 
Q 24.21875 56 28.609375 56 
Q 40.484375 56 46.34375 49.84375 
Q 52.203125 43.703125 52.203125 31.203125 
z
" id="DejaVuSans-61"/>
      <path d="M 45.40625 27.984375 
Q 45.40625 37.75 41.375 43.109375 
Q 37.359375 48.484375 30.078125 48.484375 
Q 22.859375 48.484375 18.828125 43.109375 
Q 14.796875 37.75 14.796875 27.984375 
Q 14.796875 18.265625 18.828125 12.890625 
Q 22.859375 7.515625 30.078125 7.515625 
Q 37.359375 7.515625 41.375 12.890625 
Q 45.40625 18.265625 45.40625 27.984375 
z
M 54.390625 6.78125 
Q 54.390625 -7.171875 48.1875 -13.984375 
Q 42 -20.796875 29.203125 -20.796875 
Q 24.46875 -20.796875 20.265625 -20.09375 
Q 16.0625 -19.390625 12.109375 -17.921875 
L 12.109375 -9.1875 
Q 16.0625 -11.328125 19.921875 -12.34375 
Q 23.78125 -13.375 27.78125 -13.375 
Q 36.625 -13.375 41.015625 -8.765625 
Q 45.40625 -4.15625 45.40625 5.171875 
L 45.40625 9.625 
Q 42.625 4.78125 38.28125 2.390625 
Q 33.9375 0 27.875 0 
Q 17.828125 0 11.671875 7.65625 
Q 5.515625 15.328125 5.515625 27.984375 
Q 5.515625 40.671875 11.671875 48.328125 
Q 17.828125 56 27.875 56 
Q 33.9375 56 38.28125 53.609375 
Q 42.625 51.21875 45.40625 46.390625 
L 45.40625 54.6875 
L 54.390625 54.6875 
z
" id="DejaVuSans-67"/>
      <path d="M -1.3125 -20.796875 
L 13.375 54.6875 
L 22.40625 54.6875 
L 15.765625 20.65625 
Q 15.578125 19.625 15.421875 18.359375 
Q 15.28125 17.09375 15.28125 15.828125 
Q 15.28125 11.28125 18.140625 8.828125 
Q 21 6.390625 26.3125 6.390625 
Q 33.546875 6.390625 37.984375 10.484375 
Q 42.4375 14.59375 44 22.796875 
L 50.203125 54.6875 
L 59.1875 54.6875 
L 51.03125 12.640625 
Q 50.828125 11.71875 50.75 11.03125 
Q 50.6875 10.359375 50.6875 9.8125 
Q 50.6875 8.296875 51.296875 7.59375 
Q 51.90625 6.890625 53.21875 6.890625 
Q 53.71875 6.890625 54.5625 7.125 
Q 55.421875 7.375 56.984375 8.015625 
L 55.609375 0.78125 
Q 53.46875 -0.296875 51.515625 -0.859375 
Q 49.5625 -1.421875 47.703125 -1.421875 
Q 44.484375 -1.421875 42.65625 0.625 
Q 40.828125 2.6875 40.828125 6.296875 
Q 38.09375 2.390625 34.296875 0.484375 
Q 30.515625 -1.421875 25.390625 -1.421875 
Q 20.84375 -1.421875 17.453125 0.671875 
Q 14.0625 2.78125 12.984375 6.203125 
L 7.71875 -20.796875 
z
" id="DejaVuSans-Oblique-3bc"/>
     </defs>
     <g transform="translate(23.395312 205.778)rotate(-90)scale(0.1 -0.1)">
      <use transform="translate(0 0.015625)" xlink:href="#DejaVuSans-56"/>
      <use transform="translate(68.408203 0.015625)" xlink:href="#DejaVuSans-6f"/>
      <use transform="translate(129.589844 0.015625)" xlink:href="#DejaVuSans-6c"/>
      <use transform="translate(157.373047 0.015625)" xlink:href="#DejaVuSans-74"/>
      <use transform="translate(196.582031 0.015625)" xlink:href="#DejaVuSans-61"/>
      <use transform="translate(257.861328 0.015625)" xlink:href="#DejaVuSans-67"/>
      <use transform="translate(321.337891 0.015625)" xlink:href="#DejaVuSans-65"/>
      <use transform="translate(382.861328 0.015625)" xlink:href="#DejaVuSans-20"/>
      <use transform="translate(414.648438 0.015625)" xlink:href="#DejaVuSans-28"/>
      <use transform="translate(453.662109 0.015625)" xlink:href="#DejaVuSans-Oblique-3bc"/>
      <use transform="translate(517.285156 0.015625)" xlink:href="#DejaVuSans-56"/>
      <use transform="translate(585.693359 0.015625)" xlink:href="#DejaVuSans-29"/>
     </g>
    </g>
   </g>
   <g id="line2d_19">
    <path clip-path="url(#p722230a05e)" d="M 73.832727 149.42565 
L 84.305455 152.541 
L 94.778182 155.7603 
L 105.250909 158.22325 
L 115.723636 161.32425 
L 126.196364 169.7134 
L 136.669091 187.46225 
L 147.141818 211.99795 
L 157.614545 233.433 
L 168.087273 242.71395 
L 178.56 239.66685 
L 189.032727 231.2784 
L 199.505455 223.69985 
L 209.978182 217.71135 
L 220.450909 211.20415 
L 230.923636 203.3239 
L 241.396364 195.04255 
L 251.869091 187.40765 
L 262.341818 180.5158 
L 272.814545 173.8413 
L 283.287273 166.9827 
L 293.76 160.0359 
L 304.232727 153.70895 
L 314.705455 148.6455 
L 325.178182 144.5498 
L 335.650909 140.76035 
L 346.123636 137.17495 
L 356.596364 133.7726 
L 367.069091 130.0843 
L 377.541818 125.8374 
L 388.014545 121.6003 
L 398.487273 118.2011 
" style="fill:none;stroke:#000000;stroke-linecap:square;stroke-width:1.5;"/>
   </g>
   <g id="line2d_20">
    <path clip-path="url(#p722230a05e)" d="M 73.832727 172.55295 
L 84.305455 192.71925 
L 94.778182 209.14335 
L 105.250909 208.51965 
L 115.723636 195.318 
L 126.196364 187.31385 
L 136.669091 194.4864 
L 147.141818 212.7816 
L 157.614545 231.2847 
L 168.087273 243.5508 
L 178.56 248.43645 
L 189.032727 243.23895 
L 199.505455 228.06225 
L 209.978182 211.3263 
L 220.450909 202.3866 
L 230.923636 197.50095 
L 241.396364 184.0914 
L 251.869091 163.9251 
L 262.341818 150.72345 
L 272.814545 149.9958 
L 283.287273 155.71305 
L 293.76 159.5592 
L 304.232727 160.1829 
L 314.705455 162.57375 
L 325.178182 165.06855 
L 335.650909 159.1434 
L 346.123636 140.53635 
L 356.596364 117.25155 
L 367.069091 101.86695 
L 377.541818 96.04575 
L 388.014545 93.34305 
L 398.487273 93.34305 
" style="fill:none;stroke:#ff0000;stroke-linecap:square;stroke-width:1.5;"/>
   </g>
   <g id="line2d_21">
    <path clip-path="url(#p722230a05e)" d="M 73.832727 175.04775 
L 84.305455 179.20575 
L 94.778182 175.87935 
L 105.250909 172.76085 
L 115.723636 172.13715 
L 126.196364 177.8544 
L 136.669091 192.71925 
L 147.141818 211.3263 
L 157.614545 227.43855 
L 168.087273 237.00195 
L 178.56 234.50715 
L 189.032727 221.20155 
L 199.505455 207.27225 
L 209.978182 196.9812 
L 220.450909 187.8336 
L 230.923636 178.0623 
L 241.396364 168.60285 
L 251.869091 163.5093 
L 262.341818 166.73175 
L 272.814545 176.3991 
L 283.287273 184.40325 
L 293.76 182.6361 
L 304.232727 171.51345 
L 314.705455 161.4303 
L 325.178182 158.5197 
L 335.650909 157.16835 
L 346.123636 150.2037 
L 356.596364 137.00205 
L 367.069091 122.03325 
L 377.541818 110.59875 
L 388.014545 105.5052 
L 398.487273 105.0894 
" style="fill:none;stroke:#ff1e00;stroke-linecap:square;stroke-width:1.5;"/>
   </g>
   <g id="line2d_22">
    <path clip-path="url(#p722230a05e)" d="M 73.832727 137.62575 
L 84.305455 147.39705 
L 94.778182 143.1351 
L 105.250909 130.6611 
L 115.723636 130.4532 
L 126.196364 151.659 
L 136.669091 185.02695 
L 147.141818 214.13295 
L 157.614545 227.1267 
L 168.087273 224.32005 
L 178.56 217.66725 
L 189.032727 217.66725 
L 199.505455 222.44895 
L 209.978182 220.78575 
L 220.450909 209.76705 
L 230.923636 199.16415 
L 241.396364 198.33255 
L 251.869091 203.8419 
L 262.341818 205.40115 
L 272.814545 198.54045 
L 283.287273 189.7047 
L 293.76 185.3388 
L 304.232727 185.7546 
L 314.705455 186.27435 
L 325.178182 179.9334 
L 335.650909 169.1226 
L 346.123636 161.53425 
L 356.596364 159.1434 
L 367.069091 159.87105 
L 377.541818 163.9251 
L 388.014545 170.68185 
L 398.487273 172.96875 
" style="fill:none;stroke:#ff3b00;stroke-linecap:square;stroke-width:1.5;"/>
   </g>
   <g id="line2d_23">
    <path clip-path="url(#p722230a05e)" d="M 73.832727 113.8212 
L 84.305455 157.79205 
L 94.778182 189.4968 
L 105.250909 193.75875 
L 115.723636 175.46355 
L 126.196364 161.32635 
L 136.669091 175.46355 
L 147.141818 214.96455 
L 157.614545 253.63395 
L 168.087273 271.09755 
L 178.56 268.2909 
L 189.032727 257.99985 
L 199.505455 250.6194 
L 209.978182 246.98115 
L 220.450909 241.57575 
L 230.923636 232.74 
L 241.396364 226.2951 
L 251.869091 226.503 
L 262.341818 229.30965 
L 272.814545 228.06225 
L 283.287273 220.57785 
L 293.76 207.9999 
L 304.232727 193.13505 
L 314.705455 183.0519 
L 325.178182 181.3887 
L 335.650909 181.70055 
L 346.123636 178.58205 
L 356.596364 175.1517 
L 367.069091 175.7754 
L 377.541818 179.5176 
L 388.014545 181.07685 
L 398.487273 180.5571 
" style="fill:none;stroke:#ff5900;stroke-linecap:square;stroke-width:1.5;"/>
   </g>
   <g id="line2d_24">
    <path clip-path="url(#p722230a05e)" d="M 73.832727 115.6923 
L 84.305455 129.4137 
L 94.778182 138.7692 
L 105.250909 143.44695 
L 115.723636 150.4116 
L 126.196364 165.5883 
L 136.669091 187.93755 
L 147.141818 216.3159 
L 157.614545 249.68385 
L 168.087273 278.6859 
L 178.56 287.6256 
L 189.032727 273.2805 
L 199.505455 251.97075 
L 209.978182 243.44685 
L 220.450909 251.2431 
L 230.923636 264.9645 
L 241.396364 269.5383 
L 251.869091 257.37615 
L 262.341818 233.9874 
L 272.814545 211.01445 
L 283.287273 193.96665 
L 293.76 179.5176 
L 304.232727 166.0041 
L 314.705455 154.88145 
L 325.178182 146.98125 
L 335.650909 144.1746 
L 346.123636 144.90225 
L 356.596364 140.74425 
L 367.069091 125.8794 
L 377.541818 107.5842 
L 388.014545 98.54055 
L 398.487273 101.03535 
" style="fill:none;stroke:#ff7600;stroke-linecap:square;stroke-width:1.5;"/>
   </g>
   <g id="line2d_25">
    <path clip-path="url(#p722230a05e)" d="M 73.832727 162.4698 
L 84.305455 156.54465 
L 94.778182 161.11845 
L 105.250909 166.0041 
L 115.723636 165.27645 
L 126.196364 171.30555 
L 136.669091 191.47185 
L 147.141818 215.9001 
L 157.614545 231.9084 
L 168.087273 233.46765 
L 178.56 226.2951 
L 189.032727 222.7608 
L 199.505455 227.02275 
L 209.978182 235.6506 
L 220.450909 247.5009 
L 230.923636 259.03935 
L 241.396364 260.70255 
L 251.869091 252.80235 
L 262.341818 241.78365 
L 272.814545 228.47805 
L 283.287273 208.72755 
L 293.76 184.5072 
L 304.232727 166.4199 
L 314.705455 159.66315 
L 325.178182 156.12885 
L 335.650909 144.7983 
L 346.123636 125.2557 
L 356.596364 105.81705 
L 367.069091 92.09565 
L 377.541818 82.2204 
L 388.014545 76.815 
L 398.487273 78.99795 
" style="fill:none;stroke:#ff9400;stroke-linecap:square;stroke-width:1.5;"/>
   </g>
   <g id="line2d_26">
    <path clip-path="url(#p722230a05e)" d="M 73.832727 154.04985 
L 84.305455 157.16835 
L 94.778182 160.5987 
L 105.250909 167.14755 
L 115.723636 171.30555 
L 126.196364 174.63195 
L 136.669091 185.5467 
L 147.141818 205.713 
L 157.614545 224.73585 
L 168.087273 229.4136 
L 178.56 216.5238 
L 189.032727 200.3076 
L 199.505455 197.397 
L 209.978182 204.2577 
L 220.450909 206.1288 
L 230.923636 198.95625 
L 241.396364 190.01655 
L 251.869091 183.4677 
L 262.341818 176.607 
L 272.814545 167.77125 
L 283.287273 161.95005 
L 293.76 161.53425 
L 304.232727 163.19745 
L 314.705455 162.15795 
L 325.178182 155.71305 
L 335.650909 145.31805 
L 346.123636 136.0665 
L 356.596364 132.63615 
L 367.069091 135.13095 
L 377.541818 139.8087 
L 388.014545 143.03115 
L 398.487273 143.23905 
" style="fill:none;stroke:#ffb100;stroke-linecap:square;stroke-width:1.5;"/>
   </g>
   <g id="line2d_27">
    <path clip-path="url(#p722230a05e)" d="M 73.832727 145.0062 
L 84.305455 147.9168 
L 94.778182 152.38665 
L 105.250909 158.7276 
L 115.723636 166.6278 
L 126.196364 173.2806 
L 136.669091 183.36375 
L 147.141818 203.8419 
L 157.614545 230.55705 
L 168.087273 250.6194 
L 178.56 259.03935 
L 189.032727 260.8065 
L 199.505455 259.9749 
L 209.978182 254.88135 
L 220.450909 243.3429 
L 230.923636 226.60695 
L 241.396364 206.44065 
L 251.869091 183.15585 
L 262.341818 159.24735 
L 272.814545 138.7692 
L 283.287273 124.2162 
L 293.76 120.474 
L 304.232727 133.67565 
L 314.705455 160.49475 
L 325.178182 183.98745 
L 335.650909 188.14545 
L 346.123636 174.9438 
L 356.596364 161.6382 
L 367.069091 160.28685 
L 377.541818 166.93965 
L 388.014545 168.7068 
L 398.487273 157.79205 
" style="fill:none;stroke:#ffcf00;stroke-linecap:square;stroke-width:1.5;"/>
   </g>
   <g id="line2d_28">
    <path clip-path="url(#p722230a05e)" d="M 73.832727 128.06235 
L 84.305455 129.30975 
L 94.778182 138.66525 
L 105.250909 150.4116 
L 115.723636 161.11845 
L 126.196364 172.6569 
L 136.669091 191.47185 
L 147.141818 219.53835 
L 157.614545 247.81275 
L 168.087273 264.3408 
L 178.56 265.1724 
L 189.032727 258.20775 
L 199.505455 252.0747 
L 209.978182 247.39695 
L 220.450909 239.70465 
L 230.923636 228.27015 
L 241.396364 216.21195 
L 251.869091 205.9209 
L 262.341818 201.555 
L 272.814545 204.6735 
L 283.287273 208.2078 
L 293.76 201.24315 
L 304.232727 183.4677 
L 314.705455 167.97915 
L 325.178182 159.66315 
L 335.650909 150.09975 
L 346.123636 135.8586 
L 356.596364 124.632 
L 367.069091 121.9293 
L 377.541818 122.1372 
L 388.014545 120.0582 
L 398.487273 118.49895 
" style="fill:none;stroke:#ffec00;stroke-linecap:square;stroke-width:1.5;"/>
   </g>
   <g id="line2d_29">
    <path clip-path="url(#p722230a05e)" d="M 73.832727 152.59455 
L 84.305455 159.03945 
L 94.778182 164.65275 
L 105.250909 165.69225 
L 115.723636 167.56335 
L 126.196364 179.5176 
L 136.669091 201.65895 
L 147.141818 222.345 
L 157.614545 231.80445 
L 168.087273 231.38865 
L 178.56 224.2161 
L 189.032727 212.26185 
L 199.505455 204.6735 
L 209.978182 207.1683 
L 220.450909 211.63815 
L 230.923636 208.51965 
L 241.396364 198.2286 
L 251.869091 186.27435 
L 262.341818 178.99785 
L 272.814545 178.78995 
L 283.287273 180.86895 
L 293.76 179.9334 
L 304.232727 180.66105 
L 314.705455 186.48225 
L 325.178182 189.4968 
L 335.650909 182.844 
L 346.123636 166.73175 
L 356.596364 145.422 
L 367.069091 125.77545 
L 377.541818 113.50935 
L 388.014545 112.67775 
L 398.487273 122.7609 
" style="fill:none;stroke:#eeff00;stroke-linecap:square;stroke-width:1.5;"/>
   </g>
   <g id="line2d_30">
    <path clip-path="url(#p722230a05e)" d="M 73.832727 115.58835 
L 84.305455 119.4345 
L 94.778182 119.4345 
L 105.250909 129.10185 
L 115.723636 150.8274 
L 126.196364 177.4386 
L 136.669091 202.28265 
L 147.141818 220.16205 
L 157.614545 229.93335 
L 168.087273 234.29925 
L 178.56 235.96245 
L 189.032727 237.00195 
L 199.505455 238.04145 
L 209.978182 237.62565 
L 220.450909 235.33875 
L 230.923636 229.4136 
L 241.396364 220.57785 
L 251.869091 212.26185 
L 262.341818 202.90635 
L 272.814545 191.88765 
L 283.287273 183.98745 
L 293.76 180.5571 
L 304.232727 175.46355 
L 314.705455 164.3409 
L 325.178182 152.4906 
L 335.650909 146.98125 
L 346.123636 148.5405 
L 356.596364 152.9064 
L 367.069091 156.6486 
L 377.541818 159.975 
L 388.014545 164.23695 
L 398.487273 166.6278 
" style="fill:none;stroke:#d1ff00;stroke-linecap:square;stroke-width:1.5;"/>
   </g>
   <g id="line2d_31">
    <path clip-path="url(#p722230a05e)" d="M 73.832727 177.0228 
L 84.305455 174.42405 
L 94.778182 160.49475 
L 105.250909 138.04155 
L 115.723636 127.1268 
L 126.196364 141.264 
L 136.669091 172.76085 
L 147.141818 204.36165 
L 157.614545 225.2556 
L 168.087273 235.96245 
L 178.56 242.82315 
L 189.032727 249.89175 
L 199.505455 256.4406 
L 209.978182 258.62355 
L 220.450909 254.46555 
L 230.923636 245.11005 
L 241.396364 231.80445 
L 251.869091 214.2369 
L 262.341818 194.9022 
L 272.814545 180.86895 
L 283.287273 177.8544 
L 293.76 182.53215 
L 304.232727 186.1704 
L 314.705455 187.10595 
L 325.178182 187.2099 
L 335.650909 184.19535 
L 346.123636 177.0228 
L 356.596364 166.4199 
L 367.069091 153.01035 
L 377.541818 140.12055 
L 388.014545 129.72555 
L 398.487273 121.7214 
" style="fill:none;stroke:#b3ff00;stroke-linecap:square;stroke-width:1.5;"/>
   </g>
   <g id="line2d_32">
    <path clip-path="url(#p722230a05e)" d="M 73.832727 75.46365 
L 84.305455 62.57385 
L 94.778182 66.42 
L 105.250909 84.19545 
L 115.723636 107.68815 
L 126.196364 137.9376 
L 136.669091 177.33465 
L 147.141818 216.9396 
L 157.614545 242.61525 
L 168.087273 253.21815 
L 178.56 262.15785 
L 189.032727 276.91875 
L 199.505455 286.06635 
L 209.978182 278.78985 
L 220.450909 258.1038 
L 230.923636 230.4531 
L 241.396364 200.3076 
L 251.869091 172.2411 
L 262.341818 149.26815 
L 272.814545 130.869 
L 283.287273 117.04365 
L 293.76 109.55925 
L 304.232727 111.3264 
L 314.705455 123.28065 
L 325.178182 134.8191 
L 335.650909 135.8586 
L 346.123636 130.2453 
L 356.596364 128.3742 
L 367.069091 132.948 
L 377.541818 139.6008 
L 388.014545 145.94175 
L 398.487273 153.9459 
" style="fill:none;stroke:#96ff00;stroke-linecap:square;stroke-width:1.5;"/>
   </g>
   <g id="line2d_33">
    <path clip-path="url(#p722230a05e)" d="M 73.832727 148.43655 
L 84.305455 149.06025 
L 94.778182 141.99165 
L 105.250909 136.6902 
L 115.723636 142.7193 
L 126.196364 163.0935 
L 136.669091 192.6153 
L 147.141818 219.12255 
L 157.614545 233.88345 
L 168.087273 232.84395 
L 178.56 218.8107 
L 189.032727 205.2972 
L 199.505455 202.49055 
L 209.978182 207.9999 
L 220.450909 213.30135 
L 230.923636 209.14335 
L 241.396364 193.13505 
L 251.869091 173.6964 
L 262.341818 162.57375 
L 272.814545 165.06855 
L 283.287273 176.08725 
L 293.76 184.5072 
L 304.232727 186.3783 
L 314.705455 187.4178 
L 325.178182 189.4968 
L 335.650909 185.5467 
L 346.123636 172.8648 
L 356.596364 157.37625 
L 367.069091 145.6299 
L 377.541818 140.6403 
L 388.014545 135.13095 
L 398.487273 117.1476 
" style="fill:none;stroke:#78ff00;stroke-linecap:square;stroke-width:1.5;"/>
   </g>
   <g id="line2d_34">
    <path clip-path="url(#p722230a05e)" d="M 73.832727 150.6195 
L 84.305455 139.91265 
L 94.778182 136.0665 
L 105.250909 144.27855 
L 115.723636 159.03945 
L 126.196364 174.63195 
L 136.669091 191.67975 
L 147.141818 211.7421 
L 157.614545 232.63605 
L 168.087273 245.4219 
L 178.56 243.3429 
L 189.032727 234.50715 
L 199.505455 230.97285 
L 209.978182 232.9479 
L 220.450909 233.67555 
L 230.923636 229.93335 
L 241.396364 221.5134 
L 251.869091 211.84605 
L 262.341818 205.5051 
L 272.814545 201.1392 
L 283.287273 193.0311 
L 293.76 179.5176 
L 304.232727 164.9646 
L 314.705455 153.63405 
L 325.178182 148.85235 
L 335.650909 151.8669 
L 346.123636 156.54465 
L 356.596364 156.4407 
L 367.069091 152.2827 
L 377.541818 149.3721 
L 388.014545 147.39705 
L 398.487273 142.40745 
" style="fill:none;stroke:#5bff00;stroke-linecap:square;stroke-width:1.5;"/>
   </g>
   <g id="line2d_35">
    <path clip-path="url(#p722230a05e)" d="M 73.832727 126.60705 
L 84.305455 117.5634 
L 94.778182 126.9189 
L 105.250909 146.56545 
L 115.723636 162.98955 
L 126.196364 173.4885 
L 136.669091 187.8336 
L 147.141818 212.9895 
L 157.614545 242.5113 
L 168.087273 262.98945 
L 178.56 267.8751 
L 189.032727 256.96035 
L 199.505455 234.92295 
L 209.978182 212.3658 
L 220.450909 199.57995 
L 230.923636 196.1496 
L 241.396364 189.7047 
L 251.869091 175.04775 
L 262.341818 160.1829 
L 272.814545 147.2931 
L 283.287273 129.30975 
L 293.76 108.51975 
L 304.232727 96.66945 
L 314.705455 97.605 
L 325.178182 105.19335 
L 335.650909 117.3555 
L 346.123636 135.54675 
L 356.596364 154.3617 
L 367.069091 166.93965 
L 377.541818 173.4885 
L 388.014545 178.0623 
L 398.487273 183.77955 
" style="fill:none;stroke:#3dff00;stroke-linecap:square;stroke-width:1.5;"/>
   </g>
   <g id="line2d_36">
    <path clip-path="url(#p722230a05e)" d="M 73.832727 156.54465 
L 84.305455 161.4303 
L 94.778182 171.4095 
L 105.250909 179.62155 
L 115.723636 180.03735 
L 126.196364 172.55295 
L 136.669091 172.6569 
L 147.141818 195.62985 
L 157.614545 232.5321 
L 168.087273 258.9354 
L 178.56 262.57365 
L 189.032727 257.2722 
L 199.505455 262.36575 
L 209.978182 275.25555 
L 220.450909 277.75035 
L 230.923636 263.82105 
L 241.396364 245.73375 
L 251.869091 233.7795 
L 262.341818 226.0872 
L 272.814545 218.8107 
L 283.287273 208.31175 
L 293.76 191.3679 
L 304.232727 165.69225 
L 314.705455 134.50725 
L 325.178182 108.93555 
L 335.650909 98.95635 
L 346.123636 101.763 
L 356.596364 106.85655 
L 367.069091 110.59875 
L 377.541818 112.9896 
L 388.014545 112.05405 
L 398.487273 111.22245 
" style="fill:none;stroke:#20ff00;stroke-linecap:square;stroke-width:1.5;"/>
   </g>
   <g id="line2d_37">
    <path clip-path="url(#p722230a05e)" d="M 73.832727 162.8856 
L 84.305455 162.57375 
L 94.778182 161.74215 
L 105.250909 157.2723 
L 115.723636 153.3222 
L 126.196364 162.6777 
L 136.669091 190.64025 
L 147.141818 223.48845 
L 157.614545 242.82315 
L 168.087273 245.73375 
L 178.56 243.86265 
L 189.032727 245.0061 
L 199.505455 248.22855 
L 209.978182 246.6693 
L 220.450909 237.00195 
L 230.923636 221.5134 
L 241.396364 206.1288 
L 251.869091 197.8128 
L 262.341818 200.41155 
L 272.814545 208.93545 
L 283.287273 214.029 
L 293.76 214.75665 
L 304.232727 215.79615 
L 314.705455 214.4448 
L 325.178182 207.792 
L 335.650909 204.4656 
L 346.123636 212.7816 
L 356.596364 223.69635 
L 367.069091 221.82525 
L 377.541818 202.07475 
L 388.014545 170.68185 
L 398.487273 137.7297 
" style="fill:none;stroke:#04ff08;stroke-linecap:square;stroke-width:1.5;"/>
   </g>
   <g id="line2d_38">
    <path clip-path="url(#p722230a05e)" d="M 73.832727 191.7837 
L 84.305455 202.07475 
L 94.778182 199.57995 
L 105.250909 186.5862 
L 115.723636 177.4386 
L 126.196364 182.53215 
L 136.669091 200.82735 
L 147.141818 220.78575 
L 157.614545 229.8294 
L 168.087273 224.32005 
L 178.56 207.68805 
L 189.032727 184.19535 
L 199.505455 157.79205 
L 209.978182 135.6507 
L 220.450909 126.0873 
L 230.923636 132.1164 
L 241.396364 149.89185 
L 251.869091 168.18705 
L 262.341818 172.76085 
L 272.814545 162.57375 
L 283.287273 149.89185 
L 293.76 140.74425 
L 304.232727 131.9085 
L 314.705455 123.90435 
L 325.178182 121.9293 
L 335.650909 125.56755 
L 346.123636 131.80455 
L 356.596364 136.2744 
L 367.069091 133.25985 
L 377.541818 126.5031 
L 388.014545 126.5031 
L 398.487273 136.37835 
" style="fill:none;stroke:#00ff21;stroke-linecap:square;stroke-width:1.5;"/>
   </g>
   <g id="line2d_39">
    <path clip-path="url(#p722230a05e)" d="M 73.832727 146.0457 
L 84.305455 154.7775 
L 94.778182 163.61325 
L 105.250909 162.98955 
L 115.723636 160.3908 
L 126.196364 171.51345 
L 136.669091 196.66935 
L 147.141818 221.3055 
L 157.614545 233.5716 
L 168.087273 228.27015 
L 178.56 207.792 
L 189.032727 184.40325 
L 199.505455 168.39495 
L 209.978182 162.4698 
L 220.450909 166.8357 
L 230.923636 174.9438 
L 241.396364 174.83985 
L 251.869091 164.9646 
L 262.341818 155.1933 
L 272.814545 151.0353 
L 283.287273 150.6195 
L 293.76 151.97085 
L 304.232727 157.16835 
L 314.705455 167.97915 
L 325.178182 181.5966 
L 335.650909 188.14545 
L 346.123636 179.82945 
L 356.596364 161.0145 
L 367.069091 143.86275 
L 377.541818 134.71515 
L 388.014545 128.5821 
L 398.487273 117.7713 
" style="fill:none;stroke:#00ff3f;stroke-linecap:square;stroke-width:1.5;"/>
   </g>
   <g id="line2d_40">
    <path clip-path="url(#p722230a05e)" d="M 73.832727 180.03735 
L 84.305455 165.7962 
L 94.778182 155.29725 
L 105.250909 148.5405 
L 115.723636 143.03115 
L 126.196364 145.2141 
L 136.669091 167.56335 
L 147.141818 206.85645 
L 157.614545 236.37825 
L 168.087273 232.5321 
L 178.56 204.36165 
L 189.032727 179.7255 
L 199.505455 175.25565 
L 209.978182 190.1205 
L 220.450909 214.54875 
L 230.923636 238.04145 
L 241.396364 251.76285 
L 251.869091 251.6589 
L 262.341818 239.1849 
L 272.814545 220.266 
L 283.287273 200.7234 
L 293.76 179.3097 
L 304.232727 155.29725 
L 314.705455 134.8191 
L 325.178182 125.0478 
L 335.650909 125.77545 
L 346.123636 130.2453 
L 356.596364 133.7796 
L 367.069091 137.106 
L 377.541818 141.57585 
L 388.014545 143.5509 
L 398.487273 139.91265 
" style="fill:none;stroke:#00ff5c;stroke-linecap:square;stroke-width:1.5;"/>
   </g>
   <g id="line2d_41">
    <path clip-path="url(#p722230a05e)" d="M 73.832727 174.7359 
L 84.305455 168.81075 
L 94.778182 170.7858 
L 105.250909 182.6361 
L 115.723636 193.55085 
L 126.196364 196.9812 
L 136.669091 201.65895 
L 147.141818 213.92505 
L 157.614545 227.3346 
L 168.087273 232.3242 
L 178.56 227.7504 
L 189.032727 216.83565 
L 199.505455 202.3866 
L 209.978182 186.89805 
L 220.450909 171.09765 
L 230.923636 158.41575 
L 241.396364 154.88145 
L 251.869091 158.83155 
L 262.341818 159.24735 
L 272.814545 150.4116 
L 283.287273 139.185 
L 293.76 137.00205 
L 304.232727 143.03115 
L 314.705455 144.5904 
L 325.178182 138.7692 
L 335.650909 139.6008 
L 346.123636 158.83155 
L 356.596364 182.94795 
L 367.069091 187.72965 
L 377.541818 167.8752 
L 388.014545 140.12055 
L 398.487273 119.0187 
" style="fill:none;stroke:#00ff7a;stroke-linecap:square;stroke-width:1.5;"/>
   </g>
   <g id="line2d_42">
    <path clip-path="url(#p722230a05e)" d="M 73.832727 155.4012 
L 84.305455 153.738 
L 94.778182 154.04985 
L 105.250909 159.45525 
L 115.723636 171.92925 
L 126.196364 186.3783 
L 136.669091 198.54045 
L 147.141818 215.38035 
L 157.614545 238.87305 
L 168.087273 254.67345 
L 178.56 249.26805 
L 189.032727 229.51755 
L 199.505455 215.58825 
L 209.978182 215.6922 
L 220.450909 220.8897 
L 230.923636 221.20155 
L 241.396364 216.83565 
L 251.869091 211.3263 
L 262.341818 206.5446 
L 272.814545 199.2681 
L 283.287273 189.081 
L 293.76 179.9334 
L 304.232727 173.80035 
L 314.705455 171.72135 
L 325.178182 172.2411 
L 335.650909 171.4095 
L 346.123636 167.56335 
L 356.596364 159.87105 
L 367.069091 148.5405 
L 377.541818 136.79415 
L 388.014545 128.27025 
L 398.487273 124.8399 
" style="fill:none;stroke:#00ff97;stroke-linecap:square;stroke-width:1.5;"/>
   </g>
   <g id="line2d_43">
    <path clip-path="url(#p722230a05e)" d="M 73.832727 131.7006 
L 84.305455 133.5717 
L 94.778182 142.9272 
L 105.250909 150.2037 
L 115.723636 155.71305 
L 126.196364 168.9147 
L 136.669091 193.4469 
L 147.141818 220.266 
L 157.614545 233.5716 
L 168.087273 228.3741 
L 178.56 214.4448 
L 189.032727 203.4261 
L 199.505455 196.5654 
L 209.978182 185.1309 
L 220.450909 167.35545 
L 230.923636 150.51555 
L 241.396364 139.49685 
L 251.869091 131.38875 
L 262.341818 117.9792 
L 272.814545 102.28275 
L 283.287273 102.90645 
L 293.76 126.60705 
L 304.232727 156.0249 
L 314.705455 167.35545 
L 325.178182 157.58415 
L 335.650909 144.3825 
L 346.123636 138.3534 
L 356.596364 128.3742 
L 367.069091 100.82745 
L 377.541818 64.44495 
L 388.014545 41.36805 
L 398.487273 37.83375 
" style="fill:none;stroke:#00ffb5;stroke-linecap:square;stroke-width:1.5;"/>
   </g>
   <g id="line2d_44">
    <path clip-path="url(#p722230a05e)" d="M 73.832727 174.3201 
L 84.305455 172.2411 
L 94.778182 153.9459 
L 105.250909 132.84405 
L 115.723636 124.632 
L 126.196364 139.49685 
L 136.669091 177.12675 
L 147.141818 222.5529 
L 157.614545 254.5695 
L 168.087273 262.98945 
L 178.56 254.88135 
L 189.032727 246.2535 
L 199.505455 243.7587 
L 209.978182 238.5612 
L 220.450909 224.6319 
L 230.923636 211.95 
L 241.396364 209.14335 
L 251.869091 209.871 
L 262.341818 205.2972 
L 272.814545 198.8523 
L 283.287273 198.0207 
L 293.76 200.0997 
L 304.232727 196.7733 
L 314.705455 185.7546 
L 325.178182 171.6174 
L 335.650909 159.24735 
L 346.123636 152.9064 
L 356.596364 152.80245 
L 367.069091 152.9064 
L 377.541818 146.14965 
L 388.014545 127.43865 
L 398.487273 100.3077 
" style="fill:none;stroke:#00ffd3;stroke-linecap:square;stroke-width:1.5;"/>
   </g>
   <g id="line2d_45">
    <path clip-path="url(#p722230a05e)" d="M 73.832727 184.923 
L 84.305455 196.25355 
L 94.778182 210.9105 
L 105.250909 219.12255 
L 115.723636 215.4843 
L 126.196364 205.5051 
L 136.669091 199.78785 
L 147.141818 207.5841 
L 157.614545 226.0872 
L 168.087273 241.4718 
L 178.56 247.9167 
L 189.032727 253.3221 
L 199.505455 261.6381 
L 209.978182 260.07885 
L 220.450909 239.91255 
L 230.923636 213.50925 
L 241.396364 201.86685 
L 251.869091 210.4947 
L 262.341818 220.6818 
L 272.814545 211.7421 
L 283.287273 188.6652 
L 293.76 171.4095 
L 304.232727 167.2515 
L 314.705455 173.59245 
L 325.178182 184.19535 
L 335.650909 188.6652 
L 346.123636 180.765 
L 356.596364 163.19745 
L 367.069091 143.5509 
L 377.541818 126.39915 
L 388.014545 115.38045 
L 398.487273 116.9397 
" style="fill:none;stroke:#00fff6;stroke-linecap:square;stroke-width:1.5;"/>
   </g>
   <g id="line2d_46">
    <path clip-path="url(#p722230a05e)" d="M 73.832727 127.7505 
L 84.305455 128.79 
L 94.778182 136.8981 
L 105.250909 148.5405 
L 115.723636 156.75255 
L 126.196364 160.07895 
L 136.669091 171.4095 
L 147.141818 201.45105 
L 157.614545 236.4822 
L 168.087273 255.1932 
L 178.56 254.25765 
L 189.032727 238.04145 
L 199.505455 212.05395 
L 209.978182 187.31385 
L 220.450909 174.528 
L 230.923636 174.63195 
L 241.396364 181.28475 
L 251.869091 185.65065 
L 262.341818 181.70055 
L 272.814545 172.96875 
L 283.287273 169.01865 
L 293.76 176.29515 
L 304.232727 188.2494 
L 314.705455 190.5363 
L 325.178182 178.4781 
L 335.650909 162.57375 
L 346.123636 153.84195 
L 356.596364 149.58 
L 367.069091 139.70475 
L 377.541818 125.2557 
L 388.014545 116.62785 
L 398.487273 119.12265 
" style="fill:none;stroke:#00eaff;stroke-linecap:square;stroke-width:1.5;"/>
   </g>
   <g id="line2d_47">
    <path clip-path="url(#p722230a05e)" d="M 73.832727 164.3409 
L 84.305455 170.05815 
L 94.778182 169.3305 
L 105.250909 160.91055 
L 115.723636 154.7775 
L 126.196364 162.36585 
L 136.669091 185.02695 
L 147.141818 214.54875 
L 157.614545 239.6007 
L 168.087273 251.2431 
L 178.56 245.11005 
L 189.032727 226.39905 
L 199.505455 206.02485 
L 209.978182 188.97705 
L 220.450909 177.8544 
L 230.923636 175.67145 
L 241.396364 177.6465 
L 251.869091 170.7858 
L 262.341818 150.4116 
L 272.814545 130.2453 
L 283.287273 125.15175 
L 293.76 135.2349 
L 304.232727 147.9168 
L 314.705455 154.1538 
L 325.178182 154.46565 
L 335.650909 149.7879 
L 346.123636 141.57585 
L 356.596364 133.25985 
L 367.069091 124.632 
L 377.541818 118.395 
L 388.014545 119.74635 
L 398.487273 123.90435 
" style="fill:none;stroke:#00cdff;stroke-linecap:square;stroke-width:1.5;"/>
   </g>
   <g id="line2d_48">
    <path clip-path="url(#p722230a05e)" d="M 73.832727 114.4449 
L 84.305455 129.4137 
L 94.778182 143.86275 
L 105.250909 144.3825 
L 115.723636 143.03115 
L 126.196364 159.03945 
L 136.669091 191.9916 
L 147.141818 222.24105 
L 157.614545 228.47805 
L 168.087273 209.97495 
L 178.56 186.48225 
L 189.032727 173.0727 
L 199.505455 164.9646 
L 209.978182 151.55505 
L 220.450909 137.106 
L 230.923636 132.22035 
L 241.396364 136.58625 
L 251.869091 144.90225 
L 262.341818 154.04985 
L 272.814545 159.3513 
L 283.287273 156.96045 
L 293.76 149.26815 
L 304.232727 143.5509 
L 314.705455 144.48645 
L 325.178182 148.3326 
L 335.650909 147.501 
L 346.123636 141.0561 
L 356.596364 138.5613 
L 367.069091 145.11015 
L 377.541818 158.20785 
L 388.014545 176.29515 
L 398.487273 198.33255 
" style="fill:none;stroke:#00afff;stroke-linecap:square;stroke-width:1.5;"/>
   </g>
   <g id="line2d_49">
    <path clip-path="url(#p722230a05e)" d="M 73.832727 178.2702 
L 84.305455 181.90845 
L 94.778182 188.4573 
L 105.250909 191.47185 
L 115.723636 191.9916 
L 126.196364 193.8627 
L 136.669091 202.3866 
L 147.141818 218.70675 
L 157.614545 234.50715 
L 168.087273 238.45725 
L 178.56 223.28055 
L 189.032727 193.239 
L 199.505455 163.40535 
L 209.978182 144.07065 
L 220.450909 136.8981 
L 230.923636 142.19955 
L 241.396364 152.6985 
L 251.869091 153.21825 
L 262.341818 141.57585 
L 272.814545 131.4927 
L 283.287273 130.4532 
L 293.76 130.34925 
L 304.232727 127.1268 
L 314.705455 130.2453 
L 325.178182 144.48645 
L 335.650909 162.36585 
L 346.123636 174.528 
L 356.596364 179.41365 
L 367.069091 179.20575 
L 377.541818 177.2307 
L 388.014545 175.25565 
L 398.487273 174.21615 
" style="fill:none;stroke:#0092ff;stroke-linecap:square;stroke-width:1.5;"/>
   </g>
   <g id="line2d_50">
    <path clip-path="url(#p722230a05e)" d="M 73.832727 107.5842 
L 84.305455 112.26195 
L 94.778182 122.553 
L 105.250909 137.106 
L 115.723636 152.2827 
L 126.196364 166.0041 
L 136.669091 182.53215 
L 147.141818 205.5051 
L 157.614545 227.1267 
L 168.087273 235.33875 
L 178.56 228.27015 
L 189.032727 220.57785 
L 199.505455 226.0872 
L 209.978182 237.7296 
L 220.450909 240.74415 
L 230.923636 233.46765 
L 241.396364 220.36995 
L 251.869091 207.5841 
L 262.341818 203.53005 
L 272.814545 205.60905 
L 283.287273 201.24315 
L 293.76 184.61115 
L 304.232727 166.6278 
L 314.705455 159.87105 
L 325.178182 162.054 
L 335.650909 162.6777 
L 346.123636 157.6881 
L 356.596364 150.51555 
L 367.069091 142.82325 
L 377.541818 131.18085 
L 388.014545 118.1871 
L 398.487273 114.96465 
" style="fill:none;stroke:#0074ff;stroke-linecap:square;stroke-width:1.5;"/>
   </g>
   <g id="line2d_51">
    <path clip-path="url(#p722230a05e)" d="M 73.832727 141.4719 
L 84.305455 143.86275 
L 94.778182 144.5904 
L 105.250909 140.2245 
L 115.723636 140.2245 
L 126.196364 153.9459 
L 136.669091 179.9334 
L 147.141818 207.89595 
L 157.614545 226.39905 
L 168.087273 228.7899 
L 178.56 217.7712 
L 189.032727 206.02485 
L 199.505455 203.94585 
L 209.978182 211.5342 
L 220.450909 219.0186 
L 230.923636 216.9396 
L 241.396364 206.7525 
L 251.869091 199.99575 
L 262.341818 203.0103 
L 272.814545 208.51965 
L 283.287273 204.4656 
L 293.76 186.69015 
L 304.232727 165.27645 
L 314.705455 154.3617 
L 325.178182 155.6091 
L 335.650909 159.975 
L 346.123636 159.66315 
L 356.596364 154.3617 
L 367.069091 148.9563 
L 377.541818 144.90225 
L 388.014545 140.53635 
L 398.487273 138.24945 
" style="fill:none;stroke:#0057ff;stroke-linecap:square;stroke-width:1.5;"/>
   </g>
   <g id="line2d_52">
    <path clip-path="url(#p722230a05e)" d="M 73.832727 164.9646 
L 84.305455 171.72135 
L 94.778182 181.8045 
L 105.250909 186.1704 
L 115.723636 182.4282 
L 126.196364 179.7255 
L 136.669091 190.22445 
L 147.141818 211.22235 
L 157.614545 225.4635 
L 168.087273 225.56745 
L 178.56 222.5529 
L 189.032727 225.6714 
L 199.505455 230.661 
L 209.978182 230.76495 
L 220.450909 227.1267 
L 230.923636 221.40945 
L 241.396364 211.5342 
L 251.869091 196.87725 
L 262.341818 179.9334 
L 272.814545 160.3908 
L 283.287273 135.2349 
L 293.76 106.64865 
L 304.232727 85.85865 
L 314.705455 84.19545 
L 325.178182 99.58005 
L 335.650909 119.95425 
L 346.123636 138.45735 
L 356.596364 151.97085 
L 367.069091 160.70265 
L 377.541818 167.8752 
L 388.014545 174.21615 
L 398.487273 177.95835 
" style="fill:none;stroke:#0039ff;stroke-linecap:square;stroke-width:1.5;"/>
   </g>
   <g id="line2d_53">
    <path clip-path="url(#p722230a05e)" d="M 73.832727 135.33885 
L 84.305455 144.3825 
L 94.778182 151.34715 
L 105.250909 154.9854 
L 115.723636 158.7276 
L 126.196364 170.68185 
L 136.669091 193.239 
L 147.141818 217.45935 
L 157.614545 229.6215 
L 168.087273 223.90425 
L 178.56 206.9604 
L 189.032727 191.5758 
L 199.505455 185.44275 
L 209.978182 184.923 
L 220.450909 184.0914 
L 230.923636 179.62155 
L 241.396364 171.8253 
L 251.869091 165.27645 
L 262.341818 164.3409 
L 272.814545 168.60285 
L 283.287273 174.3201 
L 293.76 175.7754 
L 304.232727 167.14755 
L 314.705455 149.7879 
L 325.178182 137.7297 
L 335.650909 140.12055 
L 346.123636 146.56545 
L 356.596364 140.8482 
L 367.069091 116.1081 
L 377.541818 79.41375 
L 388.014545 47.9169 
L 398.487273 35.33895 
" style="fill:none;stroke:#001cff;stroke-linecap:square;stroke-width:1.5;"/>
   </g>
   <g id="line2d_54">
    <path clip-path="url(#p722230a05e)" d="M 73.832727 122.553 
L 84.305455 117.5634 
L 94.778182 116.41995 
L 105.250909 123.48855 
L 115.723636 137.62575 
L 126.196364 156.96045 
L 136.669091 181.49265 
L 147.141818 207.3762 
L 157.614545 227.23065 
L 168.087273 233.1558 
L 178.56 226.2951 
L 189.032727 218.29095 
L 199.505455 217.3554 
L 209.978182 219.33045 
L 220.450909 214.8606 
L 230.923636 201.86685 
L 241.396364 187.4178 
L 251.869091 178.4781 
L 262.341818 170.68185 
L 272.814545 156.2328 
L 283.287273 138.24945 
L 293.76 126.39915 
L 304.232727 122.24115 
L 314.705455 121.3056 
L 325.178182 120.57795 
L 335.650909 120.37005 
L 346.123636 118.91475 
L 356.596364 110.59875 
L 367.069091 91.47195 
L 377.541818 66.8358 
L 388.014545 50.2038 
L 398.487273 47.60505 
" style="fill:none;stroke:#0800ff;stroke-linecap:square;stroke-width:1.5;"/>
   </g>
   <g id="line2d_55">
    <path clip-path="url(#p722230a05e)" d="M 73.832727 163.0935 
L 84.305455 163.9251 
L 94.778182 166.31595 
L 105.250909 165.90015 
L 115.723636 163.0935 
L 126.196364 168.0831 
L 136.669091 187.10595 
L 147.141818 214.54875 
L 157.614545 233.7795 
L 168.087273 231.2847 
L 178.56 212.1579 
L 189.032727 194.17455 
L 199.505455 186.5862 
L 209.978182 184.923 
L 220.450909 185.02695 
L 230.923636 185.44275 
L 241.396364 183.15585 
L 251.869091 173.6964 
L 262.341818 158.7276 
L 272.814545 146.8773 
L 283.287273 143.5509 
L 293.76 146.8773 
L 304.232727 152.38665 
L 314.705455 157.0644 
L 325.178182 159.87105 
L 335.650909 158.5197 
L 346.123636 154.3617 
L 356.596364 149.9958 
L 367.069091 147.18915 
L 377.541818 151.4511 
L 388.014545 161.53425 
L 398.487273 163.0935 
" style="fill:none;stroke:#2500ff;stroke-linecap:square;stroke-width:1.5;"/>
   </g>
   <g id="line2d_56">
    <path clip-path="url(#p722230a05e)" d="M 73.832727 184.0914 
L 84.305455 181.3887 
L 94.778182 181.1808 
L 105.250909 179.82945 
L 115.723636 171.92925 
L 126.196364 163.19745 
L 136.669091 172.449 
L 147.141818 206.5446 
L 157.614545 244.07055 
L 168.087273 261.53415 
L 178.56 260.91045 
L 189.032727 257.4801 
L 199.505455 257.16825 
L 209.978182 256.12875 
L 220.450909 253.3221 
L 230.923636 251.34705 
L 241.396364 251.34705 
L 251.869091 247.39695 
L 262.341818 233.25975 
L 272.814545 215.2764 
L 283.287273 204.4656 
L 293.76 201.45105 
L 304.232727 198.33255 
L 314.705455 191.5758 
L 325.178182 184.40325 
L 335.650909 177.33465 
L 346.123636 166.6278 
L 356.596364 152.9064 
L 367.069091 140.95215 
L 377.541818 131.9085 
L 388.014545 119.95425 
L 398.487273 103.4262 
" style="fill:none;stroke:#4300ff;stroke-linecap:square;stroke-width:1.5;"/>
   </g>
   <g id="line2d_57">
    <path clip-path="url(#p722230a05e)" d="M 73.832727 143.86275 
L 84.305455 130.2453 
L 94.778182 118.6029 
L 105.250909 112.7817 
L 115.723636 114.8607 
L 126.196364 135.2349 
L 136.669091 175.87935 
L 147.141818 219.53835 
L 157.614545 242.9271 
L 168.087273 237.9375 
L 178.56 220.8897 
L 189.032727 213.50925 
L 199.505455 217.7712 
L 209.978182 221.3055 
L 220.450909 214.75665 
L 230.923636 196.87725 
L 241.396364 173.0727 
L 251.869091 149.58 
L 262.341818 128.06235 
L 272.814545 110.2869 
L 283.287273 102.49065 
L 293.76 106.44075 
L 304.232727 115.0686 
L 314.705455 113.50935 
L 325.178182 97.50105 
L 335.650909 80.1414 
L 346.123636 72.8649 
L 356.596364 72.55305 
L 367.069091 66.73185 
L 377.541818 55.1934 
L 388.014545 51.97095 
L 398.487273 62.98965 
" style="fill:none;stroke:#6000ff;stroke-linecap:square;stroke-width:1.5;"/>
   </g>
   <g id="line2d_58">
    <path clip-path="url(#p722230a05e)" d="M 73.832727 140.2245 
L 84.305455 147.2931 
L 94.778182 152.9064 
L 105.250909 154.1538 
L 115.723636 156.75255 
L 126.196364 169.3305 
L 136.669091 194.2785 
L 147.141818 223.8003 
L 157.614545 246.98115 
L 168.087273 259.5591 
L 178.56 262.98945 
L 189.032727 259.1433 
L 199.505455 251.13915 
L 209.978182 241.78365 
L 220.450909 229.93335 
L 230.923636 214.96455 
L 241.396364 199.6839 
L 251.869091 188.97705 
L 262.341818 184.7151 
L 272.814545 182.4282 
L 283.287273 177.8544 
L 293.76 171.51345 
L 304.232727 169.22655 
L 314.705455 177.75045 
L 325.178182 194.17455 
L 335.650909 207.68805 
L 346.123636 210.0789 
L 356.596364 202.07475 
L 367.069091 186.48225 
L 377.541818 168.291 
L 388.014545 156.6486 
L 398.487273 154.25775 
" style="fill:none;stroke:#7e00ff;stroke-linecap:square;stroke-width:1.5;"/>
   </g>
   <g id="line2d_59">
    <path clip-path="url(#p722230a05e)" d="M 73.832727 102.07485 
L 84.305455 112.9896 
L 94.778182 127.5426 
L 105.250909 141.8877 
L 115.723636 155.92095 
L 126.196364 175.3596 
L 136.669091 201.45105 
L 147.141818 222.7608 
L 157.614545 229.8294 
L 168.087273 225.98325 
L 178.56 220.266 
L 189.032727 217.66725 
L 199.505455 217.87515 
L 209.978182 216.41985 
L 220.450909 210.80655 
L 230.923636 204.77745 
L 241.396364 202.49055 
L 251.869091 200.0997 
L 262.341818 191.5758 
L 272.814545 180.03735 
L 283.287273 173.2806 
L 293.76 171.8253 
L 304.232727 171.92925 
L 314.705455 173.17665 
L 325.178182 176.91885 
L 335.650909 182.4282 
L 346.123636 187.6257 
L 356.596364 188.4573 
L 367.069091 185.1309 
L 377.541818 181.5966 
L 388.014545 177.95835 
L 398.487273 172.13715 
" style="fill:none;stroke:#9b00ff;stroke-linecap:square;stroke-width:1.5;"/>
   </g>
   <g id="line2d_60">
    <path clip-path="url(#p722230a05e)" d="M 73.832727 178.78995 
L 84.305455 172.13715 
L 94.778182 171.51345 
L 105.250909 172.6569 
L 115.723636 173.38455 
L 126.196364 178.58205 
L 136.669091 195.5259 
L 147.141818 222.24105 
L 157.614545 243.9666 
L 168.087273 248.1246 
L 178.56 234.819 
L 189.032727 214.13295 
L 199.505455 196.87725 
L 209.978182 185.44275 
L 220.450909 174.7359 
L 230.923636 159.3513 
L 241.396364 142.40745 
L 251.869091 131.2848 
L 262.341818 126.0873 
L 272.814545 122.24115 
L 283.287273 118.395 
L 293.76 116.1081 
L 304.232727 116.7318 
L 314.705455 116.1081 
L 325.178182 109.76715 
L 335.650909 99.99585 
L 346.123636 93.34305 
L 356.596364 95.3181 
L 367.069091 106.3368 
L 377.541818 119.0187 
L 388.014545 124.632 
L 398.487273 123.48855 
" style="fill:none;stroke:#b900ff;stroke-linecap:square;stroke-width:1.5;"/>
   </g>
   <g id="line2d_61">
    <path clip-path="url(#p722230a05e)" d="M 73.832727 178.8939 
L 84.305455 180.3492 
L 94.778182 180.3492 
L 105.250909 174.7359 
L 115.723636 168.60285 
L 126.196364 173.0727 
L 136.669091 192.4074 
L 147.141818 218.8107 
L 157.614545 237.5217 
L 168.087273 240.12045 
L 178.56 232.1163 
L 189.032727 227.3346 
L 199.505455 232.3242 
L 209.978182 238.3533 
L 220.450909 234.09135 
L 230.923636 219.2265 
L 241.396364 203.73795 
L 251.869091 195.83775 
L 262.341818 191.5758 
L 272.814545 187.8336 
L 283.287273 186.27435 
L 293.76 184.61115 
L 304.232727 176.607 
L 314.705455 160.1829 
L 325.178182 141.6798 
L 335.650909 131.2848 
L 346.123636 129.93345 
L 356.596364 128.9979 
L 367.069091 122.553 
L 377.541818 115.79625 
L 388.014545 117.66735 
L 398.487273 127.23075 
" style="fill:none;stroke:#d600ff;stroke-linecap:square;stroke-width:1.5;"/>
   </g>
   <g id="line2d_62">
    <path clip-path="url(#p722230a05e)" d="M 73.832727 140.4324 
L 84.305455 138.9771 
L 94.778182 134.4033 
L 105.250909 127.1268 
L 115.723636 126.60705 
L 126.196364 147.0852 
L 136.669091 186.48225 
L 147.141818 220.8897 
L 157.614545 233.88345 
L 168.087273 232.3242 
L 178.56 229.30965 
L 189.032727 225.4635 
L 199.505455 216.5238 
L 209.978182 206.44065 
L 220.450909 202.3866 
L 230.923636 203.2182 
L 241.396364 201.1392 
L 251.869091 194.0706 
L 262.341818 183.15585 
L 272.814545 168.9147 
L 283.287273 154.5696 
L 293.76 143.343 
L 304.232727 134.8191 
L 314.705455 128.5821 
L 325.178182 126.5031 
L 335.650909 129.8295 
L 346.123636 133.67565 
L 356.596364 128.47815 
L 367.069091 113.09355 
L 377.541818 94.17465 
L 388.014545 81.07695 
L 398.487273 79.1019 
" style="fill:none;stroke:#f800fd;stroke-linecap:square;stroke-width:1.5;"/>
   </g>
   <g id="line2d_63">
    <path clip-path="url(#p722230a05e)" d="M 73.832727 161.53425 
L 84.305455 162.36585 
L 94.778182 170.1621 
L 105.250909 181.5966 
L 115.723636 191.88765 
L 126.196364 198.54045 
L 136.669091 204.4656 
L 147.141818 214.75665 
L 157.614545 226.7109 
L 168.087273 232.1163 
L 178.56 226.60695 
L 189.032727 214.96455 
L 199.505455 203.8419 
L 209.978182 193.96665 
L 220.450909 182.94795 
L 230.923636 171.92925 
L 241.396364 161.32635 
L 251.869091 151.76295 
L 262.341818 148.7484 
L 272.814545 152.80245 
L 283.287273 155.6091 
L 293.76 152.38665 
L 304.232727 148.1247 
L 314.705455 147.9168 
L 325.178182 151.2432 
L 335.650909 153.9459 
L 346.123636 156.6486 
L 356.596364 168.0831 
L 367.069091 191.16 
L 377.541818 211.22235 
L 388.014545 213.1974 
L 398.487273 200.20365 
" style="fill:none;stroke:#ff00e7;stroke-linecap:square;stroke-width:1.5;"/>
   </g>
   <g id="line2d_64">
    <path clip-path="url(#p722230a05e)" d="M 73.832727 139.28895 
L 84.305455 144.07065 
L 94.778182 146.2536 
L 105.250909 145.11015 
L 115.723636 146.77335 
L 126.196364 154.88145 
L 136.669091 172.55295 
L 147.141818 200.5155 
L 157.614545 226.9188 
L 168.087273 235.13085 
L 178.56 221.9292 
L 189.032727 200.0997 
L 199.505455 183.8835 
L 209.978182 176.607 
L 220.450909 171.8253 
L 230.923636 165.1725 
L 241.396364 157.896 
L 251.869091 152.2827 
L 262.341818 147.7089 
L 272.814545 144.27855 
L 283.287273 143.65485 
L 293.76 144.07065 
L 304.232727 139.08105 
L 314.705455 128.06235 
L 325.178182 119.74635 
L 335.650909 122.86485 
L 346.123636 136.4823 
L 356.596364 150.2037 
L 367.069091 154.25775 
L 377.541818 149.47605 
L 388.014545 145.52595 
L 398.487273 149.1642 
" style="fill:none;stroke:#ff00c9;stroke-linecap:square;stroke-width:1.5;"/>
   </g>
   <g id="line2d_65">
    <path clip-path="url(#p722230a05e)" d="M 73.832727 161.53425 
L 84.305455 154.46565 
L 94.778182 148.85235 
L 105.250909 144.90225 
L 115.723636 146.4615 
L 126.196364 161.53425 
L 136.669091 190.5363 
L 147.141818 219.12255 
L 157.614545 228.27015 
L 168.087273 214.34085 
L 178.56 191.47185 
L 189.032727 174.1122 
L 199.505455 167.2515 
L 209.978182 167.97915 
L 220.450909 170.37 
L 230.923636 174.00825 
L 241.396364 184.7151 
L 251.869091 198.4365 
L 262.341818 203.4261 
L 272.814545 195.7338 
L 283.287273 184.40325 
L 293.76 179.7255 
L 304.232727 180.66105 
L 314.705455 180.1413 
L 325.178182 178.0623 
L 335.650909 177.8544 
L 346.123636 176.50305 
L 356.596364 169.85025 
L 367.069091 162.054 
L 377.541818 159.66315 
L 388.014545 162.15795 
L 398.487273 162.98955 
" style="fill:none;stroke:#ff00ac;stroke-linecap:square;stroke-width:1.5;"/>
   </g>
   <g id="line2d_66">
    <path clip-path="url(#p722230a05e)" d="M 73.832727 137.9376 
L 84.305455 145.2141 
L 94.778182 145.31805 
L 105.250909 142.0956 
L 115.723636 145.11015 
L 126.196364 159.7671 
L 136.669091 183.0519 
L 147.141818 208.31175 
L 157.614545 228.582 
L 168.087273 235.13085 
L 178.56 224.8398 
L 189.032727 206.44065 
L 199.505455 192.51135 
L 209.978182 188.76915 
L 220.450909 191.7837 
L 230.923636 193.13505 
L 241.396364 187.10595 
L 251.869091 177.0228 
L 262.341818 170.68185 
L 272.814545 169.85025 
L 283.287273 169.5384 
L 293.76 166.4199 
L 304.232727 160.8066 
L 314.705455 154.5696 
L 325.178182 154.67355 
L 335.650909 163.61325 
L 346.123636 170.88975 
L 356.596364 166.52385 
L 367.069091 156.0249 
L 377.541818 148.43655 
L 388.014545 142.0956 
L 398.487273 133.1559 
" style="fill:none;stroke:#ff008e;stroke-linecap:square;stroke-width:1.5;"/>
   </g>
   <g id="line2d_67">
    <path clip-path="url(#p722230a05e)" d="M 73.832727 127.02285 
L 84.305455 160.5987 
L 94.778182 177.4386 
L 105.250909 167.35545 
L 115.723636 149.26815 
L 126.196364 150.93135 
L 136.669091 176.1912 
L 147.141818 209.0394 
L 157.614545 233.88345 
L 168.087273 246.14955 
L 178.56 250.2036 
L 189.032727 252.9063 
L 199.505455 256.33665 
L 209.978182 257.58405 
L 220.450909 254.04975 
L 230.923636 244.5903 
L 241.396364 232.63605 
L 251.869091 224.6319 
L 262.341818 223.5924 
L 272.814545 224.8398 
L 283.287273 219.0186 
L 293.76 203.8419 
L 304.232727 187.6257 
L 314.705455 175.3596 
L 325.178182 163.19745 
L 335.650909 151.34715 
L 346.123636 145.94175 
L 356.596364 148.43655 
L 367.069091 153.738 
L 377.541818 154.88145 
L 388.014545 147.7089 
L 398.487273 134.92305 
" style="fill:none;stroke:#ff0071;stroke-linecap:square;stroke-width:1.5;"/>
   </g>
   <g id="line2d_68">
    <path clip-path="url(#p722230a05e)" d="M 73.832727 153.84195 
L 84.305455 156.33675 
L 94.778182 155.92095 
L 105.250909 150.51555 
L 115.723636 149.06025 
L 126.196364 160.49475 
L 136.669091 183.77955 
L 147.141818 211.1184 
L 157.614545 235.0269 
L 168.087273 248.02065 
L 178.56 247.7088 
L 189.032727 238.04145 
L 199.505455 223.28055 
L 209.978182 208.10385 
L 220.450909 197.91675 
L 230.923636 193.55085 
L 241.396364 187.31385 
L 251.869091 174.9438 
L 262.341818 164.133 
L 272.814545 160.5987 
L 283.287273 160.1829 
L 293.76 157.2723 
L 304.232727 152.2827 
L 314.705455 149.7879 
L 325.178182 151.55505 
L 335.650909 152.80245 
L 346.123636 149.89185 
L 356.596364 144.48645 
L 367.069091 138.45735 
L 377.541818 130.97295 
L 388.014545 125.35965 
L 398.487273 127.9584 
" style="fill:none;stroke:#ff0053;stroke-linecap:square;stroke-width:1.5;"/>
   </g>
   <g id="line2d_69">
    <path clip-path="url(#p722230a05e)" d="M 73.832727 177.6465 
L 84.305455 170.88975 
L 94.778182 176.29515 
L 105.250909 185.44275 
L 115.723636 189.39285 
L 126.196364 191.16 
L 136.669091 199.0602 
L 147.141818 213.8211 
L 157.614545 229.51755 
L 168.087273 241.4718 
L 178.56 245.94165 
L 189.032727 237.5217 
L 199.505455 220.0581 
L 209.978182 208.72755 
L 220.450909 209.35125 
L 230.923636 211.5342 
L 241.396364 206.3367 
L 251.869091 195.00615 
L 262.341818 183.8835 
L 272.814545 177.0228 
L 283.287273 170.5779 
L 293.76 158.1039 
L 304.232727 141.4719 
L 314.705455 130.14135 
L 325.178182 127.7505 
L 335.650909 130.34925 
L 346.123636 134.71515 
L 356.596364 135.33885 
L 367.069091 132.7401 
L 377.541818 135.6507 
L 388.014545 142.9272 
L 398.487273 141.264 
" style="fill:none;stroke:#ff0035;stroke-linecap:square;stroke-width:1.5;"/>
   </g>
   <g id="line2d_70">
    <path clip-path="url(#p722230a05e)" d="M 73.832727 149.42565 
L 84.305455 152.541 
L 94.778182 155.7603 
L 105.250909 158.22325 
L 115.723636 161.32425 
L 126.196364 169.7134 
L 136.669091 187.46225 
L 147.141818 211.99795 
L 157.614545 233.433 
L 168.087273 242.71395 
L 178.56 239.66685 
L 189.032727 231.2784 
L 199.505455 223.69985 
L 209.978182 217.71135 
L 220.450909 211.20415 
L 230.923636 203.3239 
L 241.396364 195.04255 
L 251.869091 187.40765 
L 262.341818 180.5158 
L 272.814545 173.8413 
L 283.287273 166.9827 
L 293.76 160.0359 
L 304.232727 153.70895 
L 314.705455 148.6455 
L 325.178182 144.5498 
L 335.650909 140.76035 
L 346.123636 137.17495 
L 356.596364 133.7726 
L 367.069091 130.0843 
L 377.541818 125.8374 
L 388.014545 121.6003 
L 398.487273 118.2011 
" style="fill:none;stroke:#000000;stroke-linecap:square;stroke-width:2;"/>
   </g>
   <g id="patch_3">
    <path d="M 57.6 307.584 
L 57.6 41.472 
" style="fill:none;stroke:#000000;stroke-linecap:square;stroke-linejoin:miter;stroke-width:0.8;"/>
   </g>
   <g id="patch_4">
    <path d="M 414.72 307.584 
L 414.72 41.472 
" style="fill:none;stroke:#000000;stroke-linecap:square;stroke-linejoin:miter;stroke-width:0.8;"/>
   </g>
   <g id="patch_5">
    <path d="M 57.6 307.584 
L 414.72 307.584 
" style="fill:none;stroke:#000000;stroke-linecap:square;stroke-linejoin:miter;stroke-width:0.8;"/>
   </g>
   <g id="patch_6">
    <path d="M 57.6 41.472 
L 414.72 41.472 
" style="fill:none;stroke:#000000;stroke-linecap:square;stroke-linejoin:miter;stroke-width:0.8;"/>
   </g>
   <g id="text_21">
    <!-- $V_{rms}=$ 14.766708 -->
    <defs>
     <path d="M 20.609375 0 
L 7.8125 72.90625 
L 17.484375 72.90625 
L 28.078125 10.203125 
L 63.484375 72.90625 
L 74.21875 72.90625 
L 32.078125 0 
z
" id="DejaVuSans-Oblique-56"/>
     <path d="M 44.578125 46.390625 
Q 43.21875 47.125 41.453125 47.515625 
Q 39.703125 47.90625 37.703125 47.90625 
Q 30.515625 47.90625 25.140625 42.453125 
Q 19.78125 37.015625 18.015625 27.875 
L 12.5 0 
L 3.515625 0 
L 14.203125 54.6875 
L 23.1875 54.6875 
L 21.484375 46.1875 
Q 25.046875 50.921875 30 53.453125 
Q 34.96875 56 40.578125 56 
Q 42.046875 56 43.453125 55.828125 
Q 44.875 55.671875 46.296875 55.28125 
z
" id="DejaVuSans-Oblique-72"/>
     <path d="M 89.796875 33.015625 
L 83.40625 0 
L 74.421875 0 
L 80.71875 32.71875 
Q 81.109375 34.8125 81.296875 36.328125 
Q 81.5 37.84375 81.5 38.921875 
Q 81.5 43.3125 79.046875 45.75 
Q 76.609375 48.1875 72.21875 48.1875 
Q 65.671875 48.1875 60.546875 43.28125 
Q 55.421875 38.375 53.90625 30.515625 
L 47.90625 0 
L 38.921875 0 
L 45.3125 32.71875 
Q 45.703125 34.515625 45.890625 36.046875 
Q 46.09375 37.59375 46.09375 38.8125 
Q 46.09375 43.265625 43.65625 45.71875 
Q 41.21875 48.1875 36.921875 48.1875 
Q 30.28125 48.1875 25.140625 43.28125 
Q 20.015625 38.375 18.5 30.515625 
L 12.5 0 
L 3.515625 0 
L 14.203125 54.6875 
L 23.1875 54.6875 
L 21.484375 46.1875 
Q 25.140625 50.984375 30.046875 53.484375 
Q 34.96875 56 40.578125 56 
Q 46.53125 56 50.359375 52.875 
Q 54.203125 49.75 54.984375 44.1875 
Q 59.078125 49.953125 64.46875 52.96875 
Q 69.875 56 75.875 56 
Q 82.90625 56 86.734375 51.953125 
Q 90.578125 47.90625 90.578125 40.484375 
Q 90.578125 38.875 90.375 36.9375 
Q 90.1875 35.015625 89.796875 33.015625 
z
" id="DejaVuSans-Oblique-6d"/>
     <path d="M 50 53.078125 
L 48.296875 44.578125 
Q 44.734375 46.53125 40.765625 47.5 
Q 36.8125 48.484375 32.625 48.484375 
Q 25.53125 48.484375 21.453125 46.0625 
Q 17.390625 43.65625 17.390625 39.5 
Q 17.390625 34.671875 26.859375 32.078125 
Q 27.59375 31.890625 27.9375 31.78125 
L 30.8125 30.90625 
Q 39.796875 28.421875 42.796875 25.6875 
Q 45.796875 22.953125 45.796875 18.21875 
Q 45.796875 9.515625 38.890625 4.046875 
Q 31.984375 -1.421875 20.796875 -1.421875 
Q 16.453125 -1.421875 11.671875 -0.578125 
Q 6.890625 0.25 1.125 2 
L 2.875 11.28125 
Q 7.8125 8.734375 12.59375 7.421875 
Q 17.390625 6.109375 21.78125 6.109375 
Q 28.375 6.109375 32.5 8.9375 
Q 36.625 11.765625 36.625 16.109375 
Q 36.625 20.796875 25.78125 23.6875 
L 24.859375 23.921875 
L 21.78125 24.703125 
Q 14.9375 26.515625 11.765625 29.46875 
Q 8.59375 32.421875 8.59375 37.015625 
Q 8.59375 45.75 15.15625 50.875 
Q 21.734375 56 33.015625 56 
Q 37.453125 56 41.671875 55.265625 
Q 45.90625 54.546875 50 53.078125 
z
" id="DejaVuSans-Oblique-73"/>
     <path d="M 10.59375 45.40625 
L 73.1875 45.40625 
L 73.1875 37.203125 
L 10.59375 37.203125 
z
M 10.59375 25.484375 
L 73.1875 25.484375 
L 73.1875 17.1875 
L 10.59375 17.1875 
z
" id="DejaVuSans-3d"/>
    </defs>
    <g transform="translate(325.178182 166.9827)scale(0.1 -0.1)">
     <use transform="translate(0 0.78125)" xlink:href="#DejaVuSans-Oblique-56"/>
     <use transform="translate(68.408203 -15.625)scale(0.7)" xlink:href="#DejaVuSans-Oblique-72"/>
     <use transform="translate(97.1875 -15.625)scale(0.7)" xlink:href="#DejaVuSans-Oblique-6d"/>
     <use transform="translate(165.375977 -15.625)scale(0.7)" xlink:href="#DejaVuSans-Oblique-73"/>
     <use transform="translate(224.0625 0.78125)" xlink:href="#DejaVuSans-3d"/>
     <use transform="translate(327.333984 0.78125)" xlink:href="#DejaVuSans-20"/>
     <use transform="translate(359.121094 0.78125)" xlink:href="#DejaVuSans-31"/>
     <use transform="translate(422.744141 0.78125)" xlink:href="#DejaVuSans-34"/>
     <use transform="translate(486.367188 0.78125)" xlink:href="#DejaVuSans-2e"/>
     <use transform="translate(518.044922 0.78125)" xlink:href="#DejaVuSans-37"/>
     <use transform="translate(581.667969 0.78125)" xlink:href="#DejaVuSans-36"/>
     <use transform="translate(645.291016 0.78125)" xlink:href="#DejaVuSans-36"/>
     <use transform="translate(708.914062 0.78125)" xlink:href="#DejaVuSans-37"/>
     <use transform="translate(772.537109 0.78125)" xlink:href="#DejaVuSans-30"/>
     <use transform="translate(836.160156 0.78125)" xlink:href="#DejaVuSans-38"/>
    </g>
   </g>
   <g id="text_22">
    <!-- Channel 31 - Unit 1 -->
    <defs>
     <path d="M 64.40625 67.28125 
L 64.40625 56.890625 
Q 59.421875 61.53125 53.78125 63.8125 
Q 48.140625 66.109375 41.796875 66.109375 
Q 29.296875 66.109375 22.65625 58.46875 
Q 16.015625 50.828125 16.015625 36.375 
Q 16.015625 21.96875 22.65625 14.328125 
Q 29.296875 6.6875 41.796875 6.6875 
Q 48.140625 6.6875 53.78125 8.984375 
Q 59.421875 11.28125 64.40625 15.921875 
L 64.40625 5.609375 
Q 59.234375 2.09375 53.4375 0.328125 
Q 47.65625 -1.421875 41.21875 -1.421875 
Q 24.65625 -1.421875 15.125 8.703125 
Q 5.609375 18.84375 5.609375 36.375 
Q 5.609375 53.953125 15.125 64.078125 
Q 24.65625 74.21875 41.21875 74.21875 
Q 47.75 74.21875 53.53125 72.484375 
Q 59.328125 70.75 64.40625 67.28125 
z
" id="DejaVuSans-43"/>
     <path d="M 54.890625 33.015625 
L 54.890625 0 
L 45.90625 0 
L 45.90625 32.71875 
Q 45.90625 40.484375 42.875 44.328125 
Q 39.84375 48.1875 33.796875 48.1875 
Q 26.515625 48.1875 22.3125 43.546875 
Q 18.109375 38.921875 18.109375 30.90625 
L 18.109375 0 
L 9.078125 0 
L 9.078125 75.984375 
L 18.109375 75.984375 
L 18.109375 46.1875 
Q 21.34375 51.125 25.703125 53.5625 
Q 30.078125 56 35.796875 56 
Q 45.21875 56 50.046875 50.171875 
Q 54.890625 44.34375 54.890625 33.015625 
z
" id="DejaVuSans-68"/>
     <path d="M 54.890625 33.015625 
L 54.890625 0 
L 45.90625 0 
L 45.90625 32.71875 
Q 45.90625 40.484375 42.875 44.328125 
Q 39.84375 48.1875 33.796875 48.1875 
Q 26.515625 48.1875 22.3125 43.546875 
Q 18.109375 38.921875 18.109375 30.90625 
L 18.109375 0 
L 9.078125 0 
L 9.078125 54.6875 
L 18.109375 54.6875 
L 18.109375 46.1875 
Q 21.34375 51.125 25.703125 53.5625 
Q 30.078125 56 35.796875 56 
Q 45.21875 56 50.046875 50.171875 
Q 54.890625 44.34375 54.890625 33.015625 
z
" id="DejaVuSans-6e"/>
     <path d="M 4.890625 31.390625 
L 31.203125 31.390625 
L 31.203125 23.390625 
L 4.890625 23.390625 
z
" id="DejaVuSans-2d"/>
     <path d="M 8.6875 72.90625 
L 18.609375 72.90625 
L 18.609375 28.609375 
Q 18.609375 16.890625 22.84375 11.734375 
Q 27.09375 6.59375 36.625 6.59375 
Q 46.09375 6.59375 50.34375 11.734375 
Q 54.59375 16.890625 54.59375 28.609375 
L 54.59375 72.90625 
L 64.5 72.90625 
L 64.5 27.390625 
Q 64.5 13.140625 57.4375 5.859375 
Q 50.390625 -1.421875 36.625 -1.421875 
Q 22.796875 -1.421875 15.734375 5.859375 
Q 8.6875 13.140625 8.6875 27.390625 
z
" id="DejaVuSans-55"/>
    </defs>
    <g transform="translate(178.069687 35.472)scale(0.12 -0.12)">
     <use xlink:href="#DejaVuSans-43"/>
     <use x="69.824219" xlink:href="#DejaVuSans-68"/>
     <use x="133.203125" xlink:href="#DejaVuSans-61"/>
     <use x="194.482422" xlink:href="#DejaVuSans-6e"/>
     <use x="257.861328" xlink:href="#DejaVuSans-6e"/>
     <use x="321.240234" xlink:href="#DejaVuSans-65"/>
     <use x="382.763672" xlink:href="#DejaVuSans-6c"/>
     <use x="410.546875" xlink:href="#DejaVuSans-20"/>
     <use x="442.333984" xlink:href="#DejaVuSans-33"/>
     <use x="505.957031" xlink:href="#DejaVuSans-31"/>
     <use x="569.580078" xlink:href="#DejaVuSans-20"/>
     <use x="601.367188" xlink:href="#DejaVuSans-2d"/>
     <use x="637.451172" xlink:href="#DejaVuSans-20"/>
     <use x="669.238281" xlink:href="#DejaVuSans-55"/>
     <use x="742.431641" xlink:href="#DejaVuSans-6e"/>
     <use x="805.810547" xlink:href="#DejaVuSans-69"/>
     <use x="833.59375" xlink:href="#DejaVuSans-74"/>
     <use x="872.802734" xlink:href="#DejaVuSans-20"/>
     <use x="904.589844" xlink:href="#DejaVuSans-31"/>
    </g>
   </g>
  </g>
 </g>
 <defs>
  <clipPath id="p722230a05e">
   <rect height="266.112" width="357.12" x="57.6" y="41.472"/>
  </clipPath>
 </defs>
</svg>
