<?xml version="1.0" encoding="utf-8" standalone="no"?>
<!DOCTYPE svg PUBLIC "-//W3C//DTD SVG 1.1//EN"
  "http://www.w3.org/Graphics/SVG/1.1/DTD/svg11.dtd">
<!-- Created with matplotlib (http://matplotlib.org/) -->
<svg height="345pt" version="1.1" viewBox="0 0 460 345" width="460pt" xmlns="http://www.w3.org/2000/svg" xmlns:xlink="http://www.w3.org/1999/xlink">
 <defs>
  <style type="text/css">
*{stroke-linecap:butt;stroke-linejoin:round;}
  </style>
 </defs>
 <g id="figure_1">
  <g id="patch_1">
   <path d="M 0 345.6 
L 460.8 345.6 
L 460.8 0 
L 0 0 
z
" style="fill:#ffffff;"/>
  </g>
  <g id="axes_1">
   <g id="patch_2">
    <path d="M 57.6 307.584 
L 414.72 307.584 
L 414.72 41.472 
L 57.6 41.472 
z
" style="fill:#ffffff;"/>
   </g>
   <g id="PolyCollection_1">
    <defs>
     <path d="M 73.832727 -186.61308 
L 73.832727 -162.941458 
L 84.305455 -162.98671 
L 94.778182 -162.931656 
L 105.250909 -163.163891 
L 115.723636 -163.047366 
L 126.196364 -159.753423 
L 136.669091 -149.788955 
L 147.141818 -132.644133 
L 157.614545 -109.059818 
L 168.087273 -83.80774 
L 178.56 -67.130552 
L 189.032727 -62.915272 
L 199.505455 -66.411537 
L 209.978182 -77.885025 
L 220.450909 -96.184305 
L 230.923636 -115.755816 
L 241.396364 -133.851283 
L 251.869091 -150.366998 
L 262.341818 -165.699336 
L 272.814545 -178.955547 
L 283.287273 -189.136286 
L 293.76 -196.678945 
L 304.232727 -202.919036 
L 314.705455 -208.331466 
L 325.178182 -212.673848 
L 335.650909 -215.754866 
L 346.123636 -217.613438 
L 356.596364 -218.158331 
L 367.069091 -217.358738 
L 377.541818 -216.277913 
L 388.014545 -215.795738 
L 398.487273 -215.292538 
L 398.487273 -258.92653 
L 398.487273 -258.92653 
L 388.014545 -259.74926 
L 377.541818 -259.799328 
L 367.069091 -258.756907 
L 356.596364 -257.015919 
L 346.123636 -254.978867 
L 335.650909 -252.11815 
L 325.178182 -247.748257 
L 314.705455 -241.690481 
L 304.232727 -234.044491 
L 293.76 -225.163167 
L 283.287273 -215.632688 
L 272.814545 -205.896408 
L 262.341818 -195.569966 
L 251.869091 -184.223188 
L 241.396364 -171.819047 
L 230.923636 -158.838115 
L 220.450909 -145.882729 
L 209.978182 -133.169616 
L 199.505455 -120.784236 
L 189.032727 -110.105896 
L 178.56 -104.958084 
L 168.087273 -109.314592 
L 157.614545 -124.528745 
L 147.141818 -149.190471 
L 136.669091 -172.712764 
L 126.196364 -186.353105 
L 115.723636 -190.698648 
L 105.250909 -189.812561 
L 94.778182 -187.755806 
L 84.305455 -186.627895 
L 73.832727 -186.61308 
z
" id="md71f557706"/>
    </defs>
    <g clip-path="url(#p6d7899ed41)">
     <use style="fill-opacity:0.5;" x="0" xlink:href="#md71f557706" y="345.6"/>
    </g>
   </g>
   <g id="matplotlib.axis_1">
    <g id="xtick_1">
     <g id="line2d_1">
      <defs>
       <path d="M 0 0 
L 0 3.5 
" id="m0c4fc6556b" style="stroke:#000000;stroke-width:0.8;"/>
      </defs>
      <g>
       <use style="stroke:#000000;stroke-width:0.8;" x="73.832727" xlink:href="#m0c4fc6556b" y="307.584"/>
      </g>
     </g>
     <g id="text_1">
      <!-- 0.0000 -->
      <defs>
       <path d="M 31.78125 66.40625 
Q 24.171875 66.40625 20.328125 58.90625 
Q 16.5 51.421875 16.5 36.375 
Q 16.5 21.390625 20.328125 13.890625 
Q 24.171875 6.390625 31.78125 6.390625 
Q 39.453125 6.390625 43.28125 13.890625 
Q 47.125 21.390625 47.125 36.375 
Q 47.125 51.421875 43.28125 58.90625 
Q 39.453125 66.40625 31.78125 66.40625 
z
M 31.78125 74.21875 
Q 44.046875 74.21875 50.515625 64.515625 
Q 56.984375 54.828125 56.984375 36.375 
Q 56.984375 17.96875 50.515625 8.265625 
Q 44.046875 -1.421875 31.78125 -1.421875 
Q 19.53125 -1.421875 13.0625 8.265625 
Q 6.59375 17.96875 6.59375 36.375 
Q 6.59375 54.828125 13.0625 64.515625 
Q 19.53125 74.21875 31.78125 74.21875 
z
" id="DejaVuSans-30"/>
       <path d="M 10.6875 12.40625 
L 21 12.40625 
L 21 0 
L 10.6875 0 
z
" id="DejaVuSans-2e"/>
      </defs>
      <g transform="translate(56.337415 322.182437)scale(0.1 -0.1)">
       <use xlink:href="#DejaVuSans-30"/>
       <use x="63.623047" xlink:href="#DejaVuSans-2e"/>
       <use x="95.410156" xlink:href="#DejaVuSans-30"/>
       <use x="159.033203" xlink:href="#DejaVuSans-30"/>
       <use x="222.65625" xlink:href="#DejaVuSans-30"/>
       <use x="286.279297" xlink:href="#DejaVuSans-30"/>
      </g>
     </g>
    </g>
    <g id="xtick_2">
     <g id="line2d_2">
      <g>
       <use style="stroke:#000000;stroke-width:0.8;" x="115.723636" xlink:href="#m0c4fc6556b" y="307.584"/>
      </g>
     </g>
     <g id="text_2">
      <!-- 0.0001 -->
      <defs>
       <path d="M 12.40625 8.296875 
L 28.515625 8.296875 
L 28.515625 63.921875 
L 10.984375 60.40625 
L 10.984375 69.390625 
L 28.421875 72.90625 
L 38.28125 72.90625 
L 38.28125 8.296875 
L 54.390625 8.296875 
L 54.390625 0 
L 12.40625 0 
z
" id="DejaVuSans-31"/>
      </defs>
      <g transform="translate(98.228324 322.182437)scale(0.1 -0.1)">
       <use xlink:href="#DejaVuSans-30"/>
       <use x="63.623047" xlink:href="#DejaVuSans-2e"/>
       <use x="95.410156" xlink:href="#DejaVuSans-30"/>
       <use x="159.033203" xlink:href="#DejaVuSans-30"/>
       <use x="222.65625" xlink:href="#DejaVuSans-30"/>
       <use x="286.279297" xlink:href="#DejaVuSans-31"/>
      </g>
     </g>
    </g>
    <g id="xtick_3">
     <g id="line2d_3">
      <g>
       <use style="stroke:#000000;stroke-width:0.8;" x="157.614545" xlink:href="#m0c4fc6556b" y="307.584"/>
      </g>
     </g>
     <g id="text_3">
      <!-- 0.0002 -->
      <defs>
       <path d="M 19.1875 8.296875 
L 53.609375 8.296875 
L 53.609375 0 
L 7.328125 0 
L 7.328125 8.296875 
Q 12.9375 14.109375 22.625 23.890625 
Q 32.328125 33.6875 34.8125 36.53125 
Q 39.546875 41.84375 41.421875 45.53125 
Q 43.3125 49.21875 43.3125 52.78125 
Q 43.3125 58.59375 39.234375 62.25 
Q 35.15625 65.921875 28.609375 65.921875 
Q 23.96875 65.921875 18.8125 64.3125 
Q 13.671875 62.703125 7.8125 59.421875 
L 7.8125 69.390625 
Q 13.765625 71.78125 18.9375 73 
Q 24.125 74.21875 28.421875 74.21875 
Q 39.75 74.21875 46.484375 68.546875 
Q 53.21875 62.890625 53.21875 53.421875 
Q 53.21875 48.921875 51.53125 44.890625 
Q 49.859375 40.875 45.40625 35.40625 
Q 44.1875 33.984375 37.640625 27.21875 
Q 31.109375 20.453125 19.1875 8.296875 
z
" id="DejaVuSans-32"/>
      </defs>
      <g transform="translate(140.119233 322.182437)scale(0.1 -0.1)">
       <use xlink:href="#DejaVuSans-30"/>
       <use x="63.623047" xlink:href="#DejaVuSans-2e"/>
       <use x="95.410156" xlink:href="#DejaVuSans-30"/>
       <use x="159.033203" xlink:href="#DejaVuSans-30"/>
       <use x="222.65625" xlink:href="#DejaVuSans-30"/>
       <use x="286.279297" xlink:href="#DejaVuSans-32"/>
      </g>
     </g>
    </g>
    <g id="xtick_4">
     <g id="line2d_4">
      <g>
       <use style="stroke:#000000;stroke-width:0.8;" x="199.505455" xlink:href="#m0c4fc6556b" y="307.584"/>
      </g>
     </g>
     <g id="text_4">
      <!-- 0.0003 -->
      <defs>
       <path d="M 40.578125 39.3125 
Q 47.65625 37.796875 51.625 33 
Q 55.609375 28.21875 55.609375 21.1875 
Q 55.609375 10.40625 48.1875 4.484375 
Q 40.765625 -1.421875 27.09375 -1.421875 
Q 22.515625 -1.421875 17.65625 -0.515625 
Q 12.796875 0.390625 7.625 2.203125 
L 7.625 11.71875 
Q 11.71875 9.328125 16.59375 8.109375 
Q 21.484375 6.890625 26.8125 6.890625 
Q 36.078125 6.890625 40.9375 10.546875 
Q 45.796875 14.203125 45.796875 21.1875 
Q 45.796875 27.640625 41.28125 31.265625 
Q 36.765625 34.90625 28.71875 34.90625 
L 20.21875 34.90625 
L 20.21875 43.015625 
L 29.109375 43.015625 
Q 36.375 43.015625 40.234375 45.921875 
Q 44.09375 48.828125 44.09375 54.296875 
Q 44.09375 59.90625 40.109375 62.90625 
Q 36.140625 65.921875 28.71875 65.921875 
Q 24.65625 65.921875 20.015625 65.03125 
Q 15.375 64.15625 9.8125 62.3125 
L 9.8125 71.09375 
Q 15.4375 72.65625 20.34375 73.4375 
Q 25.25 74.21875 29.59375 74.21875 
Q 40.828125 74.21875 47.359375 69.109375 
Q 53.90625 64.015625 53.90625 55.328125 
Q 53.90625 49.265625 50.4375 45.09375 
Q 46.96875 40.921875 40.578125 39.3125 
z
" id="DejaVuSans-33"/>
      </defs>
      <g transform="translate(182.010142 322.182437)scale(0.1 -0.1)">
       <use xlink:href="#DejaVuSans-30"/>
       <use x="63.623047" xlink:href="#DejaVuSans-2e"/>
       <use x="95.410156" xlink:href="#DejaVuSans-30"/>
       <use x="159.033203" xlink:href="#DejaVuSans-30"/>
       <use x="222.65625" xlink:href="#DejaVuSans-30"/>
       <use x="286.279297" xlink:href="#DejaVuSans-33"/>
      </g>
     </g>
    </g>
    <g id="xtick_5">
     <g id="line2d_5">
      <g>
       <use style="stroke:#000000;stroke-width:0.8;" x="241.396364" xlink:href="#m0c4fc6556b" y="307.584"/>
      </g>
     </g>
     <g id="text_5">
      <!-- 0.0004 -->
      <defs>
       <path d="M 37.796875 64.3125 
L 12.890625 25.390625 
L 37.796875 25.390625 
z
M 35.203125 72.90625 
L 47.609375 72.90625 
L 47.609375 25.390625 
L 58.015625 25.390625 
L 58.015625 17.1875 
L 47.609375 17.1875 
L 47.609375 0 
L 37.796875 0 
L 37.796875 17.1875 
L 4.890625 17.1875 
L 4.890625 26.703125 
z
" id="DejaVuSans-34"/>
      </defs>
      <g transform="translate(223.901051 322.182437)scale(0.1 -0.1)">
       <use xlink:href="#DejaVuSans-30"/>
       <use x="63.623047" xlink:href="#DejaVuSans-2e"/>
       <use x="95.410156" xlink:href="#DejaVuSans-30"/>
       <use x="159.033203" xlink:href="#DejaVuSans-30"/>
       <use x="222.65625" xlink:href="#DejaVuSans-30"/>
       <use x="286.279297" xlink:href="#DejaVuSans-34"/>
      </g>
     </g>
    </g>
    <g id="xtick_6">
     <g id="line2d_6">
      <g>
       <use style="stroke:#000000;stroke-width:0.8;" x="283.287273" xlink:href="#m0c4fc6556b" y="307.584"/>
      </g>
     </g>
     <g id="text_6">
      <!-- 0.0005 -->
      <defs>
       <path d="M 10.796875 72.90625 
L 49.515625 72.90625 
L 49.515625 64.59375 
L 19.828125 64.59375 
L 19.828125 46.734375 
Q 21.96875 47.46875 24.109375 47.828125 
Q 26.265625 48.1875 28.421875 48.1875 
Q 40.625 48.1875 47.75 41.5 
Q 54.890625 34.8125 54.890625 23.390625 
Q 54.890625 11.625 47.5625 5.09375 
Q 40.234375 -1.421875 26.90625 -1.421875 
Q 22.3125 -1.421875 17.546875 -0.640625 
Q 12.796875 0.140625 7.71875 1.703125 
L 7.71875 11.625 
Q 12.109375 9.234375 16.796875 8.0625 
Q 21.484375 6.890625 26.703125 6.890625 
Q 35.15625 6.890625 40.078125 11.328125 
Q 45.015625 15.765625 45.015625 23.390625 
Q 45.015625 31 40.078125 35.4375 
Q 35.15625 39.890625 26.703125 39.890625 
Q 22.75 39.890625 18.8125 39.015625 
Q 14.890625 38.140625 10.796875 36.28125 
z
" id="DejaVuSans-35"/>
      </defs>
      <g transform="translate(265.79196 322.182437)scale(0.1 -0.1)">
       <use xlink:href="#DejaVuSans-30"/>
       <use x="63.623047" xlink:href="#DejaVuSans-2e"/>
       <use x="95.410156" xlink:href="#DejaVuSans-30"/>
       <use x="159.033203" xlink:href="#DejaVuSans-30"/>
       <use x="222.65625" xlink:href="#DejaVuSans-30"/>
       <use x="286.279297" xlink:href="#DejaVuSans-35"/>
      </g>
     </g>
    </g>
    <g id="xtick_7">
     <g id="line2d_7">
      <g>
       <use style="stroke:#000000;stroke-width:0.8;" x="325.178182" xlink:href="#m0c4fc6556b" y="307.584"/>
      </g>
     </g>
     <g id="text_7">
      <!-- 0.0006 -->
      <defs>
       <path d="M 33.015625 40.375 
Q 26.375 40.375 22.484375 35.828125 
Q 18.609375 31.296875 18.609375 23.390625 
Q 18.609375 15.53125 22.484375 10.953125 
Q 26.375 6.390625 33.015625 6.390625 
Q 39.65625 6.390625 43.53125 10.953125 
Q 47.40625 15.53125 47.40625 23.390625 
Q 47.40625 31.296875 43.53125 35.828125 
Q 39.65625 40.375 33.015625 40.375 
z
M 52.59375 71.296875 
L 52.59375 62.3125 
Q 48.875 64.0625 45.09375 64.984375 
Q 41.3125 65.921875 37.59375 65.921875 
Q 27.828125 65.921875 22.671875 59.328125 
Q 17.53125 52.734375 16.796875 39.40625 
Q 19.671875 43.65625 24.015625 45.921875 
Q 28.375 48.1875 33.59375 48.1875 
Q 44.578125 48.1875 50.953125 41.515625 
Q 57.328125 34.859375 57.328125 23.390625 
Q 57.328125 12.15625 50.6875 5.359375 
Q 44.046875 -1.421875 33.015625 -1.421875 
Q 20.359375 -1.421875 13.671875 8.265625 
Q 6.984375 17.96875 6.984375 36.375 
Q 6.984375 53.65625 15.1875 63.9375 
Q 23.390625 74.21875 37.203125 74.21875 
Q 40.921875 74.21875 44.703125 73.484375 
Q 48.484375 72.75 52.59375 71.296875 
z
" id="DejaVuSans-36"/>
      </defs>
      <g transform="translate(307.682869 322.182437)scale(0.1 -0.1)">
       <use xlink:href="#DejaVuSans-30"/>
       <use x="63.623047" xlink:href="#DejaVuSans-2e"/>
       <use x="95.410156" xlink:href="#DejaVuSans-30"/>
       <use x="159.033203" xlink:href="#DejaVuSans-30"/>
       <use x="222.65625" xlink:href="#DejaVuSans-30"/>
       <use x="286.279297" xlink:href="#DejaVuSans-36"/>
      </g>
     </g>
    </g>
    <g id="xtick_8">
     <g id="line2d_8">
      <g>
       <use style="stroke:#000000;stroke-width:0.8;" x="367.069091" xlink:href="#m0c4fc6556b" y="307.584"/>
      </g>
     </g>
     <g id="text_8">
      <!-- 0.0007 -->
      <defs>
       <path d="M 8.203125 72.90625 
L 55.078125 72.90625 
L 55.078125 68.703125 
L 28.609375 0 
L 18.3125 0 
L 43.21875 64.59375 
L 8.203125 64.59375 
z
" id="DejaVuSans-37"/>
      </defs>
      <g transform="translate(349.573778 322.182437)scale(0.1 -0.1)">
       <use xlink:href="#DejaVuSans-30"/>
       <use x="63.623047" xlink:href="#DejaVuSans-2e"/>
       <use x="95.410156" xlink:href="#DejaVuSans-30"/>
       <use x="159.033203" xlink:href="#DejaVuSans-30"/>
       <use x="222.65625" xlink:href="#DejaVuSans-30"/>
       <use x="286.279297" xlink:href="#DejaVuSans-37"/>
      </g>
     </g>
    </g>
    <g id="xtick_9">
     <g id="line2d_9">
      <g>
       <use style="stroke:#000000;stroke-width:0.8;" x="408.96" xlink:href="#m0c4fc6556b" y="307.584"/>
      </g>
     </g>
     <g id="text_9">
      <!-- 0.0008 -->
      <defs>
       <path d="M 31.78125 34.625 
Q 24.75 34.625 20.71875 30.859375 
Q 16.703125 27.09375 16.703125 20.515625 
Q 16.703125 13.921875 20.71875 10.15625 
Q 24.75 6.390625 31.78125 6.390625 
Q 38.8125 6.390625 42.859375 10.171875 
Q 46.921875 13.96875 46.921875 20.515625 
Q 46.921875 27.09375 42.890625 30.859375 
Q 38.875 34.625 31.78125 34.625 
z
M 21.921875 38.8125 
Q 15.578125 40.375 12.03125 44.71875 
Q 8.5 49.078125 8.5 55.328125 
Q 8.5 64.0625 14.71875 69.140625 
Q 20.953125 74.21875 31.78125 74.21875 
Q 42.671875 74.21875 48.875 69.140625 
Q 55.078125 64.0625 55.078125 55.328125 
Q 55.078125 49.078125 51.53125 44.71875 
Q 48 40.375 41.703125 38.8125 
Q 48.828125 37.15625 52.796875 32.3125 
Q 56.78125 27.484375 56.78125 20.515625 
Q 56.78125 9.90625 50.3125 4.234375 
Q 43.84375 -1.421875 31.78125 -1.421875 
Q 19.734375 -1.421875 13.25 4.234375 
Q 6.78125 9.90625 6.78125 20.515625 
Q 6.78125 27.484375 10.78125 32.3125 
Q 14.796875 37.15625 21.921875 38.8125 
z
M 18.3125 54.390625 
Q 18.3125 48.734375 21.84375 45.5625 
Q 25.390625 42.390625 31.78125 42.390625 
Q 38.140625 42.390625 41.71875 45.5625 
Q 45.3125 48.734375 45.3125 54.390625 
Q 45.3125 60.0625 41.71875 63.234375 
Q 38.140625 66.40625 31.78125 66.40625 
Q 25.390625 66.40625 21.84375 63.234375 
Q 18.3125 60.0625 18.3125 54.390625 
z
" id="DejaVuSans-38"/>
      </defs>
      <g transform="translate(391.464687 322.182437)scale(0.1 -0.1)">
       <use xlink:href="#DejaVuSans-30"/>
       <use x="63.623047" xlink:href="#DejaVuSans-2e"/>
       <use x="95.410156" xlink:href="#DejaVuSans-30"/>
       <use x="159.033203" xlink:href="#DejaVuSans-30"/>
       <use x="222.65625" xlink:href="#DejaVuSans-30"/>
       <use x="286.279297" xlink:href="#DejaVuSans-38"/>
      </g>
     </g>
    </g>
    <g id="text_10">
     <!-- Time (s) -->
     <defs>
      <path d="M -0.296875 72.90625 
L 61.375 72.90625 
L 61.375 64.59375 
L 35.5 64.59375 
L 35.5 0 
L 25.59375 0 
L 25.59375 64.59375 
L -0.296875 64.59375 
z
" id="DejaVuSans-54"/>
      <path d="M 9.421875 54.6875 
L 18.40625 54.6875 
L 18.40625 0 
L 9.421875 0 
z
M 9.421875 75.984375 
L 18.40625 75.984375 
L 18.40625 64.59375 
L 9.421875 64.59375 
z
" id="DejaVuSans-69"/>
      <path d="M 52 44.1875 
Q 55.375 50.25 60.0625 53.125 
Q 64.75 56 71.09375 56 
Q 79.640625 56 84.28125 50.015625 
Q 88.921875 44.046875 88.921875 33.015625 
L 88.921875 0 
L 79.890625 0 
L 79.890625 32.71875 
Q 79.890625 40.578125 77.09375 44.375 
Q 74.3125 48.1875 68.609375 48.1875 
Q 61.625 48.1875 57.5625 43.546875 
Q 53.515625 38.921875 53.515625 30.90625 
L 53.515625 0 
L 44.484375 0 
L 44.484375 32.71875 
Q 44.484375 40.625 41.703125 44.40625 
Q 38.921875 48.1875 33.109375 48.1875 
Q 26.21875 48.1875 22.15625 43.53125 
Q 18.109375 38.875 18.109375 30.90625 
L 18.109375 0 
L 9.078125 0 
L 9.078125 54.6875 
L 18.109375 54.6875 
L 18.109375 46.1875 
Q 21.1875 51.21875 25.484375 53.609375 
Q 29.78125 56 35.6875 56 
Q 41.65625 56 45.828125 52.96875 
Q 50 49.953125 52 44.1875 
z
" id="DejaVuSans-6d"/>
      <path d="M 56.203125 29.59375 
L 56.203125 25.203125 
L 14.890625 25.203125 
Q 15.484375 15.921875 20.484375 11.0625 
Q 25.484375 6.203125 34.421875 6.203125 
Q 39.59375 6.203125 44.453125 7.46875 
Q 49.3125 8.734375 54.109375 11.28125 
L 54.109375 2.78125 
Q 49.265625 0.734375 44.1875 -0.34375 
Q 39.109375 -1.421875 33.890625 -1.421875 
Q 20.796875 -1.421875 13.15625 6.1875 
Q 5.515625 13.8125 5.515625 26.8125 
Q 5.515625 40.234375 12.765625 48.109375 
Q 20.015625 56 32.328125 56 
Q 43.359375 56 49.78125 48.890625 
Q 56.203125 41.796875 56.203125 29.59375 
z
M 47.21875 32.234375 
Q 47.125 39.59375 43.09375 43.984375 
Q 39.0625 48.390625 32.421875 48.390625 
Q 24.90625 48.390625 20.390625 44.140625 
Q 15.875 39.890625 15.1875 32.171875 
z
" id="DejaVuSans-65"/>
      <path id="DejaVuSans-20"/>
      <path d="M 31 75.875 
Q 24.46875 64.65625 21.28125 53.65625 
Q 18.109375 42.671875 18.109375 31.390625 
Q 18.109375 20.125 21.3125 9.0625 
Q 24.515625 -2 31 -13.1875 
L 23.1875 -13.1875 
Q 15.875 -1.703125 12.234375 9.375 
Q 8.59375 20.453125 8.59375 31.390625 
Q 8.59375 42.28125 12.203125 53.3125 
Q 15.828125 64.359375 23.1875 75.875 
z
" id="DejaVuSans-28"/>
      <path d="M 44.28125 53.078125 
L 44.28125 44.578125 
Q 40.484375 46.53125 36.375 47.5 
Q 32.28125 48.484375 27.875 48.484375 
Q 21.1875 48.484375 17.84375 46.4375 
Q 14.5 44.390625 14.5 40.28125 
Q 14.5 37.15625 16.890625 35.375 
Q 19.28125 33.59375 26.515625 31.984375 
L 29.59375 31.296875 
Q 39.15625 29.25 43.1875 25.515625 
Q 47.21875 21.78125 47.21875 15.09375 
Q 47.21875 7.46875 41.1875 3.015625 
Q 35.15625 -1.421875 24.609375 -1.421875 
Q 20.21875 -1.421875 15.453125 -0.5625 
Q 10.6875 0.296875 5.421875 2 
L 5.421875 11.28125 
Q 10.40625 8.6875 15.234375 7.390625 
Q 20.0625 6.109375 24.8125 6.109375 
Q 31.15625 6.109375 34.5625 8.28125 
Q 37.984375 10.453125 37.984375 14.40625 
Q 37.984375 18.0625 35.515625 20.015625 
Q 33.0625 21.96875 24.703125 23.78125 
L 21.578125 24.515625 
Q 13.234375 26.265625 9.515625 29.90625 
Q 5.8125 33.546875 5.8125 39.890625 
Q 5.8125 47.609375 11.28125 51.796875 
Q 16.75 56 26.8125 56 
Q 31.78125 56 36.171875 55.265625 
Q 40.578125 54.546875 44.28125 53.078125 
z
" id="DejaVuSans-73"/>
      <path d="M 8.015625 75.875 
L 15.828125 75.875 
Q 23.140625 64.359375 26.78125 53.3125 
Q 30.421875 42.28125 30.421875 31.390625 
Q 30.421875 20.453125 26.78125 9.375 
Q 23.140625 -1.703125 15.828125 -13.1875 
L 8.015625 -13.1875 
Q 14.5 -2 17.703125 9.0625 
Q 20.90625 20.125 20.90625 31.390625 
Q 20.90625 42.671875 17.703125 53.65625 
Q 14.5 64.65625 8.015625 75.875 
z
" id="DejaVuSans-29"/>
     </defs>
     <g transform="translate(215.677188 335.860562)scale(0.1 -0.1)">
      <use xlink:href="#DejaVuSans-54"/>
      <use x="61.037109" xlink:href="#DejaVuSans-69"/>
      <use x="88.820312" xlink:href="#DejaVuSans-6d"/>
      <use x="186.232422" xlink:href="#DejaVuSans-65"/>
      <use x="247.755859" xlink:href="#DejaVuSans-20"/>
      <use x="279.542969" xlink:href="#DejaVuSans-28"/>
      <use x="318.556641" xlink:href="#DejaVuSans-73"/>
      <use x="370.65625" xlink:href="#DejaVuSans-29"/>
     </g>
    </g>
   </g>
   <g id="matplotlib.axis_2">
    <g id="ytick_1">
     <g id="line2d_10">
      <defs>
       <path d="M 0 0 
L -3.5 0 
" id="mf8aa184a08" style="stroke:#000000;stroke-width:0.8;"/>
      </defs>
      <g>
       <use style="stroke:#000000;stroke-width:0.8;" x="57.6" xlink:href="#mf8aa184a08" y="287.830789"/>
      </g>
     </g>
     <g id="text_11">
      <!-- −60 -->
      <defs>
       <path d="M 10.59375 35.5 
L 73.1875 35.5 
L 73.1875 27.203125 
L 10.59375 27.203125 
z
" id="DejaVuSans-2212"/>
      </defs>
      <g transform="translate(29.495313 291.630008)scale(0.1 -0.1)">
       <use xlink:href="#DejaVuSans-2212"/>
       <use x="83.789062" xlink:href="#DejaVuSans-36"/>
       <use x="147.412109" xlink:href="#DejaVuSans-30"/>
      </g>
     </g>
    </g>
    <g id="ytick_2">
     <g id="line2d_11">
      <g>
       <use style="stroke:#000000;stroke-width:0.8;" x="57.6" xlink:href="#mf8aa184a08" y="249.544736"/>
      </g>
     </g>
     <g id="text_12">
      <!-- −40 -->
      <g transform="translate(29.495313 253.343955)scale(0.1 -0.1)">
       <use xlink:href="#DejaVuSans-2212"/>
       <use x="83.789062" xlink:href="#DejaVuSans-34"/>
       <use x="147.412109" xlink:href="#DejaVuSans-30"/>
      </g>
     </g>
    </g>
    <g id="ytick_3">
     <g id="line2d_12">
      <g>
       <use style="stroke:#000000;stroke-width:0.8;" x="57.6" xlink:href="#mf8aa184a08" y="211.258682"/>
      </g>
     </g>
     <g id="text_13">
      <!-- −20 -->
      <g transform="translate(29.495313 215.057901)scale(0.1 -0.1)">
       <use xlink:href="#DejaVuSans-2212"/>
       <use x="83.789062" xlink:href="#DejaVuSans-32"/>
       <use x="147.412109" xlink:href="#DejaVuSans-30"/>
      </g>
     </g>
    </g>
    <g id="ytick_4">
     <g id="line2d_13">
      <g>
       <use style="stroke:#000000;stroke-width:0.8;" x="57.6" xlink:href="#mf8aa184a08" y="172.972629"/>
      </g>
     </g>
     <g id="text_14">
      <!-- 0 -->
      <g transform="translate(44.2375 176.771848)scale(0.1 -0.1)">
       <use xlink:href="#DejaVuSans-30"/>
      </g>
     </g>
    </g>
    <g id="ytick_5">
     <g id="line2d_14">
      <g>
       <use style="stroke:#000000;stroke-width:0.8;" x="57.6" xlink:href="#mf8aa184a08" y="134.686576"/>
      </g>
     </g>
     <g id="text_15">
      <!-- 20 -->
      <g transform="translate(37.875 138.485794)scale(0.1 -0.1)">
       <use xlink:href="#DejaVuSans-32"/>
       <use x="63.623047" xlink:href="#DejaVuSans-30"/>
      </g>
     </g>
    </g>
    <g id="ytick_6">
     <g id="line2d_15">
      <g>
       <use style="stroke:#000000;stroke-width:0.8;" x="57.6" xlink:href="#mf8aa184a08" y="96.400522"/>
      </g>
     </g>
     <g id="text_16">
      <!-- 40 -->
      <g transform="translate(37.875 100.199741)scale(0.1 -0.1)">
       <use xlink:href="#DejaVuSans-34"/>
       <use x="63.623047" xlink:href="#DejaVuSans-30"/>
      </g>
     </g>
    </g>
    <g id="ytick_7">
     <g id="line2d_16">
      <g>
       <use style="stroke:#000000;stroke-width:0.8;" x="57.6" xlink:href="#mf8aa184a08" y="58.114469"/>
      </g>
     </g>
     <g id="text_17">
      <!-- 60 -->
      <g transform="translate(37.875 61.913688)scale(0.1 -0.1)">
       <use xlink:href="#DejaVuSans-36"/>
       <use x="63.623047" xlink:href="#DejaVuSans-30"/>
      </g>
     </g>
    </g>
    <g id="text_18">
     <!-- Voltage ($\mu$V) -->
     <defs>
      <path d="M 28.609375 0 
L 0.78125 72.90625 
L 11.078125 72.90625 
L 34.1875 11.53125 
L 57.328125 72.90625 
L 67.578125 72.90625 
L 39.796875 0 
z
" id="DejaVuSans-56"/>
      <path d="M 30.609375 48.390625 
Q 23.390625 48.390625 19.1875 42.75 
Q 14.984375 37.109375 14.984375 27.296875 
Q 14.984375 17.484375 19.15625 11.84375 
Q 23.34375 6.203125 30.609375 6.203125 
Q 37.796875 6.203125 41.984375 11.859375 
Q 46.1875 17.53125 46.1875 27.296875 
Q 46.1875 37.015625 41.984375 42.703125 
Q 37.796875 48.390625 30.609375 48.390625 
z
M 30.609375 56 
Q 42.328125 56 49.015625 48.375 
Q 55.71875 40.765625 55.71875 27.296875 
Q 55.71875 13.875 49.015625 6.21875 
Q 42.328125 -1.421875 30.609375 -1.421875 
Q 18.84375 -1.421875 12.171875 6.21875 
Q 5.515625 13.875 5.515625 27.296875 
Q 5.515625 40.765625 12.171875 48.375 
Q 18.84375 56 30.609375 56 
z
" id="DejaVuSans-6f"/>
      <path d="M 9.421875 75.984375 
L 18.40625 75.984375 
L 18.40625 0 
L 9.421875 0 
z
" id="DejaVuSans-6c"/>
      <path d="M 18.3125 70.21875 
L 18.3125 54.6875 
L 36.8125 54.6875 
L 36.8125 47.703125 
L 18.3125 47.703125 
L 18.3125 18.015625 
Q 18.3125 11.328125 20.140625 9.421875 
Q 21.96875 7.515625 27.59375 7.515625 
L 36.8125 7.515625 
L 36.8125 0 
L 27.59375 0 
Q 17.1875 0 13.234375 3.875 
Q 9.28125 7.765625 9.28125 18.015625 
L 9.28125 47.703125 
L 2.6875 47.703125 
L 2.6875 54.6875 
L 9.28125 54.6875 
L 9.28125 70.21875 
z
" id="DejaVuSans-74"/>
      <path d="M 34.28125 27.484375 
Q 23.390625 27.484375 19.1875 25 
Q 14.984375 22.515625 14.984375 16.5 
Q 14.984375 11.71875 18.140625 8.90625 
Q 21.296875 6.109375 26.703125 6.109375 
Q 34.1875 6.109375 38.703125 11.40625 
Q 43.21875 16.703125 43.21875 25.484375 
L 43.21875 27.484375 
z
M 52.203125 31.203125 
L 52.203125 0 
L 43.21875 0 
L 43.21875 8.296875 
Q 40.140625 3.328125 35.546875 0.953125 
Q 30.953125 -1.421875 24.3125 -1.421875 
Q 15.921875 -1.421875 10.953125 3.296875 
Q 6 8.015625 6 15.921875 
Q 6 25.140625 12.171875 29.828125 
Q 18.359375 34.515625 30.609375 34.515625 
L 43.21875 34.515625 
L 43.21875 35.40625 
Q 43.21875 41.609375 39.140625 45 
Q 35.0625 48.390625 27.6875 48.390625 
Q 23 48.390625 18.546875 47.265625 
Q 14.109375 46.140625 10.015625 43.890625 
L 10.015625 52.203125 
Q 14.9375 54.109375 19.578125 55.046875 
Q 24.21875 56 28.609375 56 
Q 40.484375 56 46.34375 49.84375 
Q 52.203125 43.703125 52.203125 31.203125 
z
" id="DejaVuSans-61"/>
      <path d="M 45.40625 27.984375 
Q 45.40625 37.75 41.375 43.109375 
Q 37.359375 48.484375 30.078125 48.484375 
Q 22.859375 48.484375 18.828125 43.109375 
Q 14.796875 37.75 14.796875 27.984375 
Q 14.796875 18.265625 18.828125 12.890625 
Q 22.859375 7.515625 30.078125 7.515625 
Q 37.359375 7.515625 41.375 12.890625 
Q 45.40625 18.265625 45.40625 27.984375 
z
M 54.390625 6.78125 
Q 54.390625 -7.171875 48.1875 -13.984375 
Q 42 -20.796875 29.203125 -20.796875 
Q 24.46875 -20.796875 20.265625 -20.09375 
Q 16.0625 -19.390625 12.109375 -17.921875 
L 12.109375 -9.1875 
Q 16.0625 -11.328125 19.921875 -12.34375 
Q 23.78125 -13.375 27.78125 -13.375 
Q 36.625 -13.375 41.015625 -8.765625 
Q 45.40625 -4.15625 45.40625 5.171875 
L 45.40625 9.625 
Q 42.625 4.78125 38.28125 2.390625 
Q 33.9375 0 27.875 0 
Q 17.828125 0 11.671875 7.65625 
Q 5.515625 15.328125 5.515625 27.984375 
Q 5.515625 40.671875 11.671875 48.328125 
Q 17.828125 56 27.875 56 
Q 33.9375 56 38.28125 53.609375 
Q 42.625 51.21875 45.40625 46.390625 
L 45.40625 54.6875 
L 54.390625 54.6875 
z
" id="DejaVuSans-67"/>
      <path d="M -1.3125 -20.796875 
L 13.375 54.6875 
L 22.40625 54.6875 
L 15.765625 20.65625 
Q 15.578125 19.625 15.421875 18.359375 
Q 15.28125 17.09375 15.28125 15.828125 
Q 15.28125 11.28125 18.140625 8.828125 
Q 21 6.390625 26.3125 6.390625 
Q 33.546875 6.390625 37.984375 10.484375 
Q 42.4375 14.59375 44 22.796875 
L 50.203125 54.6875 
L 59.1875 54.6875 
L 51.03125 12.640625 
Q 50.828125 11.71875 50.75 11.03125 
Q 50.6875 10.359375 50.6875 9.8125 
Q 50.6875 8.296875 51.296875 7.59375 
Q 51.90625 6.890625 53.21875 6.890625 
Q 53.71875 6.890625 54.5625 7.125 
Q 55.421875 7.375 56.984375 8.015625 
L 55.609375 0.78125 
Q 53.46875 -0.296875 51.515625 -0.859375 
Q 49.5625 -1.421875 47.703125 -1.421875 
Q 44.484375 -1.421875 42.65625 0.625 
Q 40.828125 2.6875 40.828125 6.296875 
Q 38.09375 2.390625 34.296875 0.484375 
Q 30.515625 -1.421875 25.390625 -1.421875 
Q 20.84375 -1.421875 17.453125 0.671875 
Q 14.0625 2.78125 12.984375 6.203125 
L 7.71875 -20.796875 
z
" id="DejaVuSans-Oblique-3bc"/>
     </defs>
     <g transform="translate(23.395312 205.778)rotate(-90)scale(0.1 -0.1)">
      <use transform="translate(0 0.015625)" xlink:href="#DejaVuSans-56"/>
      <use transform="translate(68.408203 0.015625)" xlink:href="#DejaVuSans-6f"/>
      <use transform="translate(129.589844 0.015625)" xlink:href="#DejaVuSans-6c"/>
      <use transform="translate(157.373047 0.015625)" xlink:href="#DejaVuSans-74"/>
      <use transform="translate(196.582031 0.015625)" xlink:href="#DejaVuSans-61"/>
      <use transform="translate(257.861328 0.015625)" xlink:href="#DejaVuSans-67"/>
      <use transform="translate(321.337891 0.015625)" xlink:href="#DejaVuSans-65"/>
      <use transform="translate(382.861328 0.015625)" xlink:href="#DejaVuSans-20"/>
      <use transform="translate(414.648438 0.015625)" xlink:href="#DejaVuSans-28"/>
      <use transform="translate(453.662109 0.015625)" xlink:href="#DejaVuSans-Oblique-3bc"/>
      <use transform="translate(517.285156 0.015625)" xlink:href="#DejaVuSans-56"/>
      <use transform="translate(585.693359 0.015625)" xlink:href="#DejaVuSans-29"/>
     </g>
    </g>
   </g>
   <g id="line2d_17">
    <path clip-path="url(#p6d7899ed41)" d="M 73.832727 170.822731 
L 84.305455 170.792697 
L 94.778182 170.256269 
L 105.250909 169.111774 
L 115.723636 168.726993 
L 126.196364 172.546736 
L 136.669091 184.349141 
L 147.141818 204.682698 
L 157.614545 228.805718 
L 168.087273 249.038834 
L 178.56 259.555682 
L 189.032727 259.089416 
L 199.505455 252.002114 
L 209.978182 240.07268 
L 220.450909 224.566483 
L 230.923636 208.303035 
L 241.396364 192.764835 
L 251.869091 178.304907 
L 262.341818 164.965349 
L 272.814545 153.174023 
L 283.287273 143.215513 
L 293.76 134.678944 
L 304.232727 127.118236 
L 314.705455 120.589026 
L 325.178182 115.388947 
L 335.650909 111.663492 
L 346.123636 109.303848 
L 356.596364 108.012875 
L 367.069091 107.542177 
L 377.541818 107.561379 
L 388.014545 107.827501 
L 398.487273 108.490466 
" style="fill:none;stroke:#000000;stroke-linecap:square;stroke-width:1.5;"/>
   </g>
   <g id="line2d_18">
    <path clip-path="url(#p6d7899ed41)" d="M 73.832727 183.979869 
L 84.305455 185.415596 
L 94.778182 185.714706 
L 105.250909 182.723608 
L 115.723636 177.339632 
L 126.196364 175.365507 
L 136.669091 183.202184 
L 147.141818 205.336309 
L 157.614545 239.793757 
L 168.087273 275.148534 
L 178.56 295.488 
L 189.032727 293.154944 
L 199.505455 267.850255 
L 209.978182 237.281234 
L 220.450909 218.138208 
L 230.923636 210.839929 
L 241.396364 203.84076 
L 251.869091 187.808475 
L 262.341818 164.537733 
L 272.814545 143.06165 
L 283.287273 130.499039 
L 293.76 126.311501 
L 304.232727 121.406101 
L 314.705455 109.322065 
L 325.178182 98.554113 
L 335.650909 97.23803 
L 346.123636 97.357674 
L 356.596364 88.504024 
L 367.069091 74.146754 
L 377.541818 65.831501 
L 388.014545 69.959217 
L 398.487273 81.325389 
" style="fill:none;stroke:#ff0000;stroke-linecap:square;stroke-width:1.5;"/>
   </g>
   <g id="line2d_19">
    <path clip-path="url(#p6d7899ed41)" d="M 73.832727 165.913638 
L 84.305455 163.22165 
L 94.778182 164.537733 
L 105.250909 169.02438 
L 115.723636 173.211917 
L 126.196364 179.73251 
L 136.669091 192.414766 
L 147.141818 207.011323 
L 157.614545 219.992688 
L 168.087273 236.324083 
L 178.56 258.338564 
L 189.032727 278.67803 
L 199.505455 286.275418 
L 209.978182 276.524439 
L 220.450909 258.936783 
L 230.923636 244.100938 
L 241.396364 230.820463 
L 251.869091 212.156012 
L 262.341818 187.748653 
L 272.814545 164.717199 
L 283.287273 149.522421 
L 293.76 144.317911 
L 304.232727 144.018801 
L 314.705455 140.130374 
L 325.178182 129.063312 
L 335.650909 115.364083 
L 346.123636 106.450611 
L 356.596364 104.356843 
L 367.069091 103.818445 
L 377.541818 99.98984 
L 388.014545 93.229958 
L 398.487273 89.580819 
" style="fill:none;stroke:#ff1e00;stroke-linecap:square;stroke-width:1.5;"/>
   </g>
   <g id="line2d_20">
    <path clip-path="url(#p6d7899ed41)" d="M 73.832727 183.800404 
L 84.305455 176.621769 
L 94.778182 175.186042 
L 105.250909 177.399454 
L 115.723636 179.911976 
L 126.196364 182.843252 
L 136.669091 190.380819 
L 147.141818 207.310433 
L 157.614545 233.392807 
L 168.087273 262.466279 
L 178.56 282.028059 
L 189.032727 282.566457 
L 199.505455 266.77346 
L 209.978182 243.083964 
L 220.450909 217.3007 
L 230.923636 193.371917 
L 241.396364 174.528 
L 251.869091 161.307347 
L 262.341818 152.692985 
L 272.814545 148.146516 
L 283.287273 142.583074 
L 293.76 131.037436 
L 304.232727 115.064973 
L 314.705455 99.39162 
L 325.178182 88.204914 
L 335.650909 82.521828 
L 346.123636 82.222718 
L 356.596364 85.03435 
L 367.069091 86.829009 
L 377.541818 87.307585 
L 388.014545 89.700463 
L 398.487273 96.280878 
" style="fill:none;stroke:#ff3b00;stroke-linecap:square;stroke-width:1.5;"/>
   </g>
   <g id="line2d_21">
    <path clip-path="url(#p6d7899ed41)" d="M 73.832727 175.365507 
L 84.305455 174.288712 
L 94.778182 172.494053 
L 105.250909 174.408356 
L 115.723636 176.741412 
L 126.196364 177.399454 
L 136.669091 182.843252 
L 147.141818 201.567525 
L 157.614545 231.358861 
L 168.087273 260.97073 
L 178.56 279.635181 
L 189.032727 281.968237 
L 199.505455 274.251205 
L 209.978182 267.132392 
L 220.450909 261.329662 
L 230.923636 251.159929 
L 241.396364 233.392807 
L 251.869091 210.421175 
L 262.341818 186.612036 
L 272.814545 164.418089 
L 283.287273 145.095596 
L 293.76 129.242777 
L 304.232727 115.124795 
L 314.705455 102.562184 
L 325.178182 94.964795 
L 335.650909 94.605864 
L 346.123636 96.400522 
L 356.596364 91.554944 
L 367.069091 78.872688 
L 377.541818 67.745804 
L 388.014545 67.865448 
L 398.487273 78.154825 
" style="fill:none;stroke:#ff5900;stroke-linecap:square;stroke-width:1.5;"/>
   </g>
   <g id="line2d_22">
    <path clip-path="url(#p6d7899ed41)" d="M 73.832727 172.733341 
L 84.305455 177.339632 
L 94.778182 174.587822 
L 105.250909 169.622599 
L 115.723636 167.768119 
L 126.196364 171.417258 
L 136.669091 182.843252 
L 147.141818 201.806813 
L 157.614545 225.197199 
L 168.087273 250.501887 
L 178.56 274.311027 
L 189.032727 290.881709 
L 199.505455 295.428178 
L 209.978182 289.625448 
L 220.450909 278.618208 
L 230.923636 263.782362 
L 241.396364 243.682184 
L 251.869091 218.796249 
L 262.341818 192.594231 
L 272.814545 170.579751 
L 283.287273 156.043015 
L 293.76 147.907228 
L 304.232727 141.805389 
L 314.705455 129.00349 
L 325.178182 106.630077 
L 335.650909 84.914706 
L 346.123636 75.582481 
L 356.596364 79.470908 
L 367.069091 85.33346 
L 377.541818 82.940582 
L 388.014545 76.240522 
L 398.487273 77.07803 
" style="fill:none;stroke:#ff7600;stroke-linecap:square;stroke-width:1.5;"/>
   </g>
   <g id="line2d_23">
    <path clip-path="url(#p6d7899ed41)" d="M 73.832727 152.154588 
L 84.305455 160.110908 
L 94.778182 166.930611 
L 105.250909 168.12705 
L 115.723636 169.502955 
L 126.196364 178.416427 
L 136.669091 192.893341 
L 147.141818 206.89168 
L 157.614545 221.428415 
L 168.087273 242.007169 
L 178.56 265.337733 
L 189.032727 280.113757 
L 199.505455 279.934291 
L 209.978182 267.431501 
L 220.450909 248.707228 
L 230.923636 228.726694 
L 241.396364 212.036368 
L 251.869091 199.832688 
L 262.341818 187.987941 
L 272.814545 173.211917 
L 283.287273 157.41892 
L 293.76 142.523252 
L 304.232727 129.422243 
L 314.705455 121.406101 
L 325.178182 119.55162 
L 335.650909 119.671264 
L 346.123636 115.962303 
L 356.596364 106.989009 
L 367.069091 96.101412 
L 377.541818 89.999573 
L 388.014545 92.153163 
L 398.487273 99.630908 
" style="fill:none;stroke:#ff9400;stroke-linecap:square;stroke-width:1.5;"/>
   </g>
   <g id="line2d_24">
    <path clip-path="url(#p6d7899ed41)" d="M 73.832727 173.211917 
L 84.305455 171.237792 
L 94.778182 164.597555 
L 105.250909 155.923371 
L 115.723636 151.01797 
L 126.196364 156.043015 
L 136.669091 172.972629 
L 147.141818 197.798742 
L 157.614545 224.539157 
L 168.087273 246.972392 
L 178.56 258.757318 
L 189.032727 256.484083 
L 199.505455 241.947347 
L 209.978182 222.086457 
L 220.450909 206.532748 
L 230.923636 198.157674 
L 241.396364 190.620107 
L 251.869091 180.62984 
L 262.341818 172.494053 
L 272.814545 166.930611 
L 283.287273 159.273401 
L 293.76 150.240285 
L 304.232727 141.566101 
L 314.705455 131.15708 
L 325.178182 119.85073 
L 335.650909 115.005151 
L 346.123636 121.645389 
L 356.596364 131.994588 
L 367.069091 137.617852 
L 377.541818 137.199098 
L 388.014545 133.191027 
L 398.487273 130.140107 
" style="fill:none;stroke:#ffb100;stroke-linecap:square;stroke-width:1.5;"/>
   </g>
   <g id="line2d_25">
    <path clip-path="url(#p6d7899ed41)" d="M 73.832727 194.927288 
L 84.305455 200.071976 
L 94.778182 192.773697 
L 105.250909 180.510196 
L 115.723636 175.006576 
L 126.196364 179.134291 
L 136.669091 189.842421 
L 147.141818 204.618445 
L 157.614545 221.906991 
L 168.087273 240.033045 
L 178.56 258.817139 
L 189.032727 275.62711 
L 199.505455 283.403964 
L 209.978182 277.003015 
L 220.450909 257.740344 
L 230.923636 231.119573 
L 241.396364 203.661294 
L 251.869091 180.390552 
L 262.341818 163.999335 
L 272.814545 153.889424 
L 283.287273 146.710789 
L 293.76 138.156249 
L 304.232727 126.670433 
L 314.705455 114.048 
L 325.178182 103.339869 
L 335.650909 95.323727 
L 346.123636 89.281709 
L 356.596364 83.239691 
L 367.069091 76.240522 
L 377.541818 72.711027 
L 388.014545 76.360166 
L 398.487273 85.393282 
" style="fill:none;stroke:#ffcf00;stroke-linecap:square;stroke-width:1.5;"/>
   </g>
   <g id="line2d_26">
    <path clip-path="url(#p6d7899ed41)" d="M 73.832727 172.553875 
L 84.305455 179.852154 
L 94.778182 181.646813 
L 105.250909 170.220819 
L 115.723636 150.240285 
L 126.196364 140.967881 
L 136.669091 157.179632 
L 147.141818 192.175478 
L 157.614545 224.419513 
L 168.087273 239.733935 
L 178.56 240.691086 
L 189.032727 238.896427 
L 199.505455 239.315181 
L 209.978182 233.213341 
L 220.450909 214.070315 
L 230.923636 189.543312 
L 241.396364 167.947585 
L 251.869091 151.556368 
L 262.341818 141.386635 
L 272.814545 138.814291 
L 283.287273 141.745567 
L 293.76 143.899157 
L 304.232727 139.352688 
L 314.705455 129.422243 
L 325.178182 120.628415 
L 335.650909 116.022125 
L 346.123636 115.304261 
L 356.596364 117.996249 
L 367.069091 120.090018 
L 377.541818 119.25251 
L 388.014545 120.14984 
L 398.487273 128.644558 
" style="fill:none;stroke:#ffec00;stroke-linecap:square;stroke-width:1.5;"/>
   </g>
   <g id="line2d_27">
    <path clip-path="url(#p6d7899ed41)" d="M 73.832727 158.376071 
L 84.305455 158.316249 
L 94.778182 159.632332 
L 105.250909 159.692154 
L 115.723636 160.350196 
L 126.196364 165.853816 
L 136.669091 178.057496 
L 147.141818 196.482659 
L 157.614545 219.813223 
L 168.087273 245.955418 
L 178.56 268.867228 
L 189.032727 281.370018 
L 199.505455 280.711976 
L 209.978182 268.568119 
L 220.450909 249.604558 
L 230.923636 231.837436 
L 241.396364 219.992688 
L 251.869091 210.181887 
L 262.341818 196.303193 
L 272.814545 178.835181 
L 283.287273 161.247525 
L 293.76 143.958979 
L 304.232727 126.550789 
L 314.705455 109.561353 
L 325.178182 94.306754 
L 335.650909 83.299513 
L 346.123636 81.086101 
L 356.596364 87.068297 
L 367.069091 93.229958 
L 377.541818 94.007644 
L 388.014545 88.803134 
L 398.487273 82.162896 
" style="fill:none;stroke:#eeff00;stroke-linecap:square;stroke-width:1.5;"/>
   </g>
   <g id="line2d_28">
    <path clip-path="url(#p6d7899ed41)" d="M 73.832727 154.786754 
L 84.305455 156.102837 
L 94.778182 151.077792 
L 105.250909 140.190196 
L 115.723636 135.583905 
L 126.196364 146.650967 
L 136.669091 169.861887 
L 147.141818 196.123727 
L 157.614545 218.018564 
L 168.087273 231.358861 
L 178.56 233.632095 
L 189.032727 226.932036 
L 199.505455 217.59981 
L 209.978182 209.583668 
L 220.450909 199.593401 
L 230.923636 183.800404 
L 241.396364 168.42616 
L 251.869091 160.76895 
L 262.341818 156.8207 
L 272.814545 149.941175 
L 283.287273 139.113401 
L 293.76 129.182955 
L 304.232727 125.35435 
L 314.705455 126.072214 
L 325.178182 124.995418 
L 335.650909 122.722184 
L 346.123636 123.679335 
L 356.596364 128.524914 
L 367.069091 133.549958 
L 377.541818 135.583905 
L 388.014545 136.122303 
L 398.487273 136.899988 
" style="fill:none;stroke:#d1ff00;stroke-linecap:square;stroke-width:1.5;"/>
   </g>
   <g id="line2d_29">
    <path clip-path="url(#p6d7899ed41)" d="M 73.832727 173.690493 
L 84.305455 178.835181 
L 94.778182 185.295953 
L 105.250909 195.28622 
L 115.723636 205.455953 
L 126.196364 208.686338 
L 136.669091 208.267585 
L 147.141818 216.822125 
L 157.614545 237.999098 
L 168.087273 260.791264 
L 178.56 273.593163 
L 189.032727 275.447644 
L 199.505455 271.020819 
L 209.978182 261.329662 
L 220.450909 242.96432 
L 230.923636 217.539988 
L 241.396364 192.414766 
L 251.869091 172.613697 
L 262.341818 156.940344 
L 272.814545 144.138445 
L 283.287273 133.191027 
L 293.76 122.064142 
L 304.232727 110.817614 
L 314.705455 101.365745 
L 325.178182 94.785329 
L 335.650909 92.392451 
L 346.123636 94.605864 
L 356.596364 99.750552 
L 367.069091 103.997911 
L 377.541818 105.732748 
L 388.014545 106.211323 
L 398.487273 102.980938 
" style="fill:none;stroke:#b3ff00;stroke-linecap:square;stroke-width:1.5;"/>
   </g>
   <g id="line2d_30">
    <path clip-path="url(#p6d7899ed41)" d="M 73.832727 150.300107 
L 84.305455 147.189365 
L 94.778182 150.479573 
L 105.250909 158.794825 
L 115.723636 168.844914 
L 126.196364 178.536071 
L 136.669091 193.012985 
L 147.141818 215.266754 
L 157.614545 237.699988 
L 168.087273 255.048356 
L 178.56 269.22616 
L 189.032727 277.541412 
L 199.505455 272.695834 
L 209.978182 256.603727 
L 220.450909 239.016071 
L 230.923636 224.419513 
L 241.396364 210.780107 
L 251.869091 195.226398 
L 262.341818 177.937852 
L 272.814545 162.92254 
L 283.287273 149.642065 
L 293.76 133.131205 
L 304.232727 116.022125 
L 314.705455 108.305092 
L 325.178182 111.176546 
L 335.650909 113.389958 
L 346.123636 105.613104 
L 356.596364 93.648712 
L 367.069091 89.760285 
L 377.541818 94.426398 
L 388.014545 97.058564 
L 398.487273 93.349602 
" style="fill:none;stroke:#96ff00;stroke-linecap:square;stroke-width:1.5;"/>
   </g>
   <g id="line2d_31">
    <path clip-path="url(#p6d7899ed41)" d="M 73.832727 167.169899 
L 84.305455 165.913638 
L 94.778182 165.195774 
L 105.250909 170.160997 
L 115.723636 182.125389 
L 126.196364 195.28622 
L 136.669091 204.678267 
L 147.141818 213.232807 
L 157.614545 225.197199 
L 168.087273 240.81073 
L 178.56 255.76622 
L 189.032727 262.047525 
L 199.505455 255.287644 
L 209.978182 241.648237 
L 220.450909 227.171323 
L 230.923636 209.882777 
L 241.396364 191.457614 
L 251.869091 179.253935 
L 262.341818 171.47708 
L 272.814545 159.153757 
L 283.287273 140.190196 
L 293.76 121.824855 
L 304.232727 112.372985 
L 314.705455 112.552451 
L 325.178182 114.34711 
L 335.650909 108.604202 
L 346.123636 92.871027 
L 356.596364 74.924439 
L 367.069091 65.652036 
L 377.541818 69.181531 
L 388.014545 80.966457 
L 398.487273 92.930849 
" style="fill:none;stroke:#78ff00;stroke-linecap:square;stroke-width:1.5;"/>
   </g>
   <g id="line2d_32">
    <path clip-path="url(#p6d7899ed41)" d="M 73.832727 171.058326 
L 84.305455 163.22165 
L 94.778182 161.845745 
L 105.250909 163.22165 
L 115.723636 163.281472 
L 126.196364 165.494884 
L 136.669091 176.023549 
L 147.141818 196.901412 
L 157.614545 222.385567 
L 168.087273 242.366101 
L 178.56 250.561709 
L 189.032727 243.801828 
L 199.505455 223.282896 
L 209.978182 199.772866 
L 220.450909 186.372748 
L 230.923636 184.877199 
L 241.396364 184.518267 
L 251.869091 173.391383 
L 262.341818 152.752807 
L 272.814545 133.669602 
L 283.287273 125.593638 
L 293.76 126.072214 
L 304.232727 125.294528 
L 314.705455 117.338208 
L 325.178182 106.749721 
L 335.650909 103.579157 
L 346.123636 109.980107 
L 356.596364 117.338208 
L 367.069091 119.073045 
L 377.541818 116.79981 
L 388.014545 114.34711 
L 398.487273 114.287288 
" style="fill:none;stroke:#5bff00;stroke-linecap:square;stroke-width:1.5;"/>
   </g>
   <g id="line2d_33">
    <path clip-path="url(#p6d7899ed41)" d="M 73.832727 161.726101 
L 84.305455 159.692154 
L 94.778182 159.153757 
L 105.250909 159.991264 
L 115.723636 162.862718 
L 126.196364 171.47708 
L 136.669091 186.851323 
L 147.141818 205.396131 
L 157.614545 223.282896 
L 168.087273 239.793757 
L 178.56 257.560878 
L 189.032727 275.088712 
L 199.505455 285.796843 
L 209.978182 282.745923 
L 220.450909 263.303786 
L 230.923636 234.589246 
L 241.396364 210.959573 
L 251.869091 199.832688 
L 262.341818 193.730849 
L 272.814545 179.433401 
L 283.287273 154.786754 
L 293.76 129.302599 
L 304.232727 112.612273 
L 314.705455 105.553282 
L 325.178182 102.502362 
L 335.650909 98.793401 
L 346.123636 92.332629 
L 356.596364 84.675418 
L 367.069091 79.949484 
L 377.541818 79.710196 
L 388.014545 80.906635 
L 398.487273 79.411086 
" style="fill:none;stroke:#3dff00;stroke-linecap:square;stroke-width:1.5;"/>
   </g>
   <g id="line2d_34">
    <path clip-path="url(#p6d7899ed41)" d="M 73.832727 174.587822 
L 84.305455 169.263668 
L 94.778182 169.682421 
L 105.250909 176.143193 
L 115.723636 185.83435 
L 126.196364 193.790671 
L 136.669091 198.755893 
L 147.141818 206.233638 
L 157.614545 221.428415 
L 168.087273 241.169662 
L 178.56 259.355537 
L 189.032727 272.27708 
L 199.505455 275.088712 
L 209.978182 264.859157 
L 220.450909 243.323252 
L 230.923636 213.591739 
L 241.396364 180.510196 
L 251.869091 153.709958 
L 262.341818 138.216071 
L 272.814545 130.319573 
L 283.287273 124.576665 
L 293.76 119.132866 
L 304.232727 113.44978 
L 314.705455 107.288119 
L 325.178182 102.801472 
L 335.650909 101.246101 
L 346.123636 100.408593 
L 356.596364 97.896071 
L 367.069091 93.708534 
L 377.541818 90.179039 
L 388.014545 89.401353 
L 398.487273 90.119217 
" style="fill:none;stroke:#20ff00;stroke-linecap:square;stroke-width:1.5;"/>
   </g>
   <g id="line2d_35">
    <path clip-path="url(#p6d7899ed41)" d="M 73.832727 177.040522 
L 84.305455 183.561116 
L 94.778182 185.595062 
L 105.250909 179.493223 
L 115.723636 169.443134 
L 126.196364 168.246694 
L 136.669091 182.185211 
L 147.141818 203.063074 
L 157.614545 221.308772 
L 168.087273 236.982125 
L 178.56 252.595656 
L 189.032727 263.782362 
L 199.505455 264.799335 
L 209.978182 256.902837 
L 220.450909 247.809899 
L 230.923636 240.870552 
L 241.396364 231.299039 
L 251.869091 214.369424 
L 262.341818 189.603134 
L 272.814545 161.247525 
L 283.287273 136.421412 
L 293.76 119.671264 
L 304.232727 109.621175 
L 314.705455 101.664855 
L 325.178182 95.802303 
L 335.650909 96.041591 
L 346.123636 102.681828 
L 356.596364 109.621175 
L 367.069091 109.561353 
L 377.541818 102.382718 
L 388.014545 94.845151 
L 398.487273 90.53797 
" style="fill:none;stroke:#04ff08;stroke-linecap:square;stroke-width:1.5;"/>
   </g>
   <g id="line2d_36">
    <path clip-path="url(#p6d7899ed41)" d="M 73.832727 189.064736 
L 84.305455 184.398623 
L 94.778182 183.501294 
L 105.250909 186.911145 
L 115.723636 191.816546 
L 126.196364 198.097852 
L 136.669091 207.130967 
L 147.141818 217.3007 
L 157.614545 227.05168 
L 168.087273 233.991027 
L 178.56 234.290136 
L 189.032727 230.222243 
L 199.505455 227.05168 
L 209.978182 224.778445 
L 220.450909 220.471264 
L 230.923636 212.455122 
L 241.396364 200.430908 
L 251.869091 184.817377 
L 262.341818 171.118148 
L 272.814545 163.640404 
L 283.287273 154.906398 
L 293.76 139.891086 
L 304.232727 126.191858 
L 314.705455 120.209662 
L 325.178182 119.431976 
L 335.650909 118.175715 
L 346.123636 114.107822 
L 356.596364 110.518504 
L 367.069091 109.800641 
L 377.541818 109.501531 
L 388.014545 107.64705 
L 398.487273 107.228297 
" style="fill:none;stroke:#00ff21;stroke-linecap:square;stroke-width:1.5;"/>
   </g>
   <g id="line2d_37">
    <path clip-path="url(#p6d7899ed41)" d="M 73.832727 193.312095 
L 84.305455 201.627347 
L 94.778182 210.241709 
L 105.250909 212.814053 
L 115.723636 205.814884 
L 126.196364 193.910315 
L 136.669091 189.244202 
L 147.141818 201.029128 
L 157.614545 224.718623 
L 168.087273 246.01524 
L 178.56 257.022481 
L 189.032727 261.748415 
L 199.505455 263.184142 
L 209.978182 256.364439 
L 220.450909 239.016071 
L 230.923636 216.762303 
L 241.396364 196.721947 
L 251.869091 180.211086 
L 262.341818 163.640404 
L 272.814545 147.368831 
L 283.287273 135.165151 
L 293.76 126.730255 
L 304.232727 116.440878 
L 314.705455 101.545211 
L 325.178182 89.580819 
L 335.650909 88.504024 
L 346.123636 93.409424 
L 356.596364 91.375478 
L 367.069091 79.889662 
L 377.541818 69.899395 
L 388.014545 71.036012 
L 398.487273 80.727169 
" style="fill:none;stroke:#00ff3f;stroke-linecap:square;stroke-width:1.5;"/>
   </g>
   <g id="line2d_38">
    <path clip-path="url(#p6d7899ed41)" d="M 73.832727 169.02438 
L 84.305455 158.615359 
L 94.778182 157.359098 
L 105.250909 162.683252 
L 115.723636 167.289543 
L 126.196364 170.819039 
L 136.669091 179.73251 
L 147.141818 198.097852 
L 157.614545 223.641828 
L 168.087273 250.083134 
L 178.56 271.080641 
L 189.032727 282.446813 
L 199.505455 285.677199 
L 209.978182 282.327169 
L 220.450909 269.644914 
L 230.923636 247.989365 
L 241.396364 222.744499 
L 251.869091 200.730018 
L 262.341818 185.475418 
L 272.814545 173.391383 
L 283.287273 157.299276 
L 293.76 135.344617 
L 304.232727 116.859632 
L 314.705455 109.680997 
L 325.178182 111.535478 
L 335.650909 117.039098 
L 346.123636 119.132866 
L 356.596364 114.107822 
L 367.069091 106.510433 
L 377.541818 100.827347 
L 388.014545 96.101412 
L 398.487273 89.640641 
" style="fill:none;stroke:#00ff5c;stroke-linecap:square;stroke-width:1.5;"/>
   </g>
   <g id="line2d_39">
    <path clip-path="url(#p6d7899ed41)" d="M 73.832727 158.675181 
L 84.305455 159.034113 
L 94.778182 163.999335 
L 105.250909 172.613697 
L 115.723636 176.023549 
L 126.196364 172.852985 
L 136.669091 174.886932 
L 147.141818 190.500463 
L 157.614545 218.138208 
L 168.087273 252.057258 
L 178.56 284.720047 
L 189.032727 295.488 
L 199.505455 295.488 
L 209.978182 293.274588 
L 220.450909 266.055596 
L 230.923636 239.793757 
L 241.396364 217.59981 
L 251.869091 198.516605 
L 262.341818 183.262006 
L 272.814545 170.699395 
L 283.287273 156.521591 
L 293.76 139.113401 
L 304.232727 124.397199 
L 314.705455 116.919454 
L 325.178182 112.612273 
L 335.650909 105.852392 
L 346.123636 96.101412 
L 356.596364 86.529899 
L 367.069091 80.547703 
L 377.541818 79.650374 
L 388.014545 81.923608 
L 398.487273 81.504855 
" style="fill:none;stroke:#00ff7a;stroke-linecap:square;stroke-width:1.5;"/>
   </g>
   <g id="line2d_40">
    <path clip-path="url(#p6d7899ed41)" d="M 73.832727 162.92254 
L 84.305455 166.152926 
L 94.778182 161.426991 
L 105.250909 150.599217 
L 115.723636 148.385804 
L 126.196364 163.341294 
L 136.669091 187.868297 
L 147.141818 209.822955 
L 157.614545 223.043608 
L 168.087273 229.025804 
L 178.56 231.897258 
L 189.032727 232.854409 
L 199.505455 230.820463 
L 209.978182 226.872214 
L 220.450909 220.770374 
L 230.923636 210.480997 
L 241.396364 197.918386 
L 251.869091 188.107585 
L 262.341818 180.091442 
L 272.814545 169.682421 
L 283.287273 156.162659 
L 293.76 143.121472 
L 304.232727 134.925864 
L 314.705455 130.977614 
L 325.178182 125.832926 
L 335.650909 117.577496 
L 346.123636 109.680997 
L 356.596364 105.014884 
L 367.069091 101.664855 
L 377.541818 96.3407 
L 388.014545 91.13619 
L 398.487273 91.375478 
" style="fill:none;stroke:#00ff97;stroke-linecap:square;stroke-width:1.5;"/>
   </g>
   <g id="line2d_41">
    <path clip-path="url(#p6d7899ed41)" d="M 73.832727 178.057496 
L 84.305455 168.904736 
L 94.778182 158.974291 
L 105.250909 155.085864 
L 115.723636 160.529662 
L 126.196364 173.092273 
L 136.669091 187.868297 
L 147.141818 203.063074 
L 157.614545 219.394469 
L 168.087273 239.674113 
L 178.56 264.679691 
L 189.032727 286.694172 
L 199.505455 293.812985 
L 209.978182 283.58343 
L 220.450909 263.543074 
L 230.923636 240.272332 
L 241.396364 215.685507 
L 251.869091 189.004914 
L 262.341818 162.085033 
L 272.814545 142.523252 
L 283.287273 135.105329 
L 293.76 132.114231 
L 304.232727 124.995418 
L 314.705455 113.689068 
L 325.178182 103.638979 
L 335.650909 100.827347 
L 346.123636 103.459513 
L 356.596364 102.681828 
L 367.069091 91.973697 
L 377.541818 73.967288 
L 388.014545 58.353757 
L 398.487273 53.568 
" style="fill:none;stroke:#00ffb5;stroke-linecap:square;stroke-width:1.5;"/>
   </g>
   <g id="line2d_42">
    <path clip-path="url(#p6d7899ed41)" d="M 73.832727 175.544973 
L 84.305455 187.150433 
L 94.778182 194.269246 
L 105.250909 192.534409 
L 115.723636 187.748653 
L 126.196364 188.825448 
L 136.669091 199.294291 
L 147.141818 215.864973 
L 157.614545 231.598148 
L 168.087273 240.451798 
L 178.56 239.434825 
L 189.032727 228.547228 
L 199.505455 213.591739 
L 209.978182 202.225567 
L 220.450909 196.123727 
L 230.923636 189.064736 
L 241.396364 175.186042 
L 251.869091 157.179632 
L 262.341818 142.044677 
L 272.814545 133.310671 
L 283.287273 129.482065 
L 293.76 126.849899 
L 304.232727 122.00432 
L 314.705455 114.765864 
L 325.178182 108.484558 
L 335.650909 104.775596 
L 346.123636 102.44254 
L 356.596364 102.083608 
L 367.069091 106.09168 
L 377.541818 111.655122 
L 388.014545 113.330136 
L 398.487273 111.356012 
" style="fill:none;stroke:#00ffd3;stroke-linecap:square;stroke-width:1.5;"/>
   </g>
   <g id="line2d_43">
    <path clip-path="url(#p6d7899ed41)" d="M 73.832727 170.519929 
L 84.305455 166.810967 
L 94.778182 161.367169 
L 105.250909 162.144855 
L 115.723636 171.836012 
L 126.196364 184.099513 
L 136.669091 192.534409 
L 147.141818 204.259513 
L 157.614545 228.846338 
L 168.087273 259.535003 
L 178.56 281.070908 
L 189.032727 286.93346 
L 199.505455 279.395893 
L 209.978182 263.184142 
L 220.450909 242.784855 
L 230.923636 222.445389 
L 241.396364 206.353282 
L 251.869091 196.004083 
L 262.341818 186.851323 
L 272.814545 173.331561 
L 283.287273 153.889424 
L 293.76 130.678504 
L 304.232727 111.415834 
L 314.705455 104.356843 
L 325.178182 105.672926 
L 335.650909 102.861294 
L 346.123636 92.691561 
L 356.596364 79.949484 
L 367.069091 68.52349 
L 377.541818 62.42165 
L 388.014545 65.831501 
L 398.487273 77.736071 
" style="fill:none;stroke:#00fff6;stroke-linecap:square;stroke-width:1.5;"/>
   </g>
   <g id="line2d_44">
    <path clip-path="url(#p6d7899ed41)" d="M 73.832727 180.570018 
L 84.305455 177.87803 
L 94.778182 175.724439 
L 105.250909 172.912807 
L 115.723636 169.084202 
L 126.196364 171.596724 
L 136.669091 185.295953 
L 147.141818 211.49797 
L 157.614545 248.109009 
L 168.087273 285.737021 
L 178.56 295.488 
L 189.032727 295.488 
L 199.505455 293.095122 
L 209.978182 268.029721 
L 220.450909 245.058089 
L 230.923636 224.718623 
L 241.396364 205.156843 
L 251.869091 183.979869 
L 262.341818 160.529662 
L 272.814545 138.275893 
L 283.287273 120.329306 
L 293.76 106.211323 
L 304.232727 96.041591 
L 314.705455 89.939751 
L 325.178182 85.273638 
L 335.650909 81.265567 
L 346.123636 81.086101 
L 356.596364 86.410255 
L 367.069091 93.888 
L 377.541818 99.69073 
L 388.014545 103.100582 
L 398.487273 102.622006 
" style="fill:none;stroke:#00eaff;stroke-linecap:square;stroke-width:1.5;"/>
   </g>
   <g id="line2d_45">
    <path clip-path="url(#p6d7899ed41)" d="M 73.832727 158.615359 
L 84.305455 161.127881 
L 94.778182 163.460938 
L 105.250909 165.913638 
L 115.723636 169.802065 
L 126.196364 176.382481 
L 136.669091 187.210255 
L 147.141818 202.524677 
L 157.614545 220.531086 
L 168.087273 237.341056 
L 178.56 247.271501 
L 189.032727 243.921472 
L 199.505455 229.863312 
L 209.978182 216.343549 
L 220.450909 208.865804 
L 230.923636 202.405033 
L 241.396364 191.33797 
L 251.869091 176.621769 
L 262.341818 163.52076 
L 272.814545 152.692985 
L 283.287273 143.300938 
L 293.76 138.096427 
L 304.232727 135.823193 
L 314.705455 129.960641 
L 325.178182 119.013223 
L 335.650909 110.039929 
L 346.123636 109.920285 
L 356.596364 116.440878 
L 367.069091 120.568593 
L 377.541818 119.790908 
L 388.014545 119.25251 
L 398.487273 120.987347 
" style="fill:none;stroke:#00cdff;stroke-linecap:square;stroke-width:1.5;"/>
   </g>
   <g id="line2d_46">
    <path clip-path="url(#p6d7899ed41)" d="M 73.832727 179.792332 
L 84.305455 177.698564 
L 94.778182 173.869958 
L 105.250909 167.169899 
L 115.723636 163.640404 
L 126.196364 171.237792 
L 136.669091 189.603134 
L 147.141818 210.660463 
L 157.614545 228.248119 
L 168.087273 240.51162 
L 178.56 244.16076 
L 189.032727 237.221412 
L 199.505455 224.060582 
L 209.978182 210.002421 
L 220.450909 197.858564 
L 230.923636 187.868297 
L 241.396364 179.852154 
L 251.869091 173.690493 
L 262.341818 165.793994 
L 272.814545 152.274231 
L 283.287273 138.275893 
L 293.76 133.310671 
L 304.232727 138.395537 
L 314.705455 142.702718 
L 325.178182 136.182125 
L 335.650909 124.756131 
L 346.123636 120.628415 
L 356.596364 126.849899 
L 367.069091 135.524083 
L 377.541818 138.335715 
L 388.014545 136.95981 
L 398.487273 138.694647 
" style="fill:none;stroke:#00afff;stroke-linecap:square;stroke-width:1.5;"/>
   </g>
   <g id="line2d_47">
    <path clip-path="url(#p6d7899ed41)" d="M 73.832727 181.826279 
L 84.305455 182.663786 
L 94.778182 175.963727 
L 105.250909 167.887763 
L 115.723636 165.135953 
L 126.196364 169.981531 
L 136.669091 182.723608 
L 147.141818 203.84076 
L 157.614545 232.316012 
L 168.087273 262.645745 
L 178.56 287.292392 
L 189.032727 295.488 
L 199.505455 295.488 
L 209.978182 295.488 
L 220.450909 271.738682 
L 230.923636 238.537496 
L 241.396364 209.105092 
L 251.869091 192.654053 
L 262.341818 185.116487 
L 272.814545 175.724439 
L 283.287273 157.777852 
L 293.76 131.934766 
L 304.232727 105.373816 
L 314.705455 87.427228 
L 325.178182 81.504855 
L 335.650909 82.043252 
L 346.123636 83.718267 
L 356.596364 85.393282 
L 367.069091 85.692392 
L 377.541818 81.385211 
L 388.014545 74.924439 
L 398.487273 73.967288 
" style="fill:none;stroke:#0092ff;stroke-linecap:square;stroke-width:1.5;"/>
   </g>
   <g id="line2d_48">
    <path clip-path="url(#p6d7899ed41)" d="M 73.832727 168.72527 
L 84.305455 177.818208 
L 94.778182 187.928119 
L 105.250909 195.525507 
L 115.723636 199.055003 
L 126.196364 200.311264 
L 136.669091 204.857733 
L 147.141818 217.480166 
L 157.614545 236.144617 
L 168.087273 251.758148 
L 178.56 255.945685 
L 189.032727 250.202777 
L 199.505455 241.947347 
L 209.978182 234.170493 
L 220.450909 224.359691 
L 230.923636 210.540819 
L 241.396364 196.123727 
L 251.869091 184.099513 
L 262.341818 173.869958 
L 272.814545 161.845745 
L 283.287273 146.710789 
L 293.76 132.532985 
L 304.232727 124.098089 
L 314.705455 121.047169 
L 325.178182 117.457852 
L 335.650909 109.322065 
L 346.123636 101.485389 
L 356.596364 100.348772 
L 367.069091 103.938089 
L 377.541818 106.450611 
L 388.014545 106.271145 
L 398.487273 104.89524 
" style="fill:none;stroke:#0074ff;stroke-linecap:square;stroke-width:1.5;"/>
   </g>
   <g id="line2d_49">
    <path clip-path="url(#p6d7899ed41)" d="M 73.832727 168.186872 
L 84.305455 173.630671 
L 94.778182 170.041353 
L 105.250909 159.751976 
L 115.723636 155.504617 
L 126.196364 167.469009 
L 136.669091 190.679929 
L 147.141818 212.09619 
L 157.614545 227.05168 
L 168.087273 239.195537 
L 178.56 248.946516 
L 189.032727 249.96349 
L 199.505455 238.836605 
L 209.978182 220.531086 
L 220.450909 203.422006 
L 230.923636 191.696902 
L 241.396364 183.920047 
L 251.869091 175.903905 
L 262.341818 165.97346 
L 272.814545 158.914469 
L 283.287273 159.153757 
L 293.76 161.666279 
L 304.232727 158.017139 
L 314.705455 149.522421 
L 325.178182 142.702718 
L 335.650909 140.908059 
L 346.123636 142.942006 
L 356.596364 144.617021 
L 367.069091 143.001828 
L 377.541818 138.096427 
L 388.014545 133.370493 
L 398.487273 132.293697 
" style="fill:none;stroke:#0057ff;stroke-linecap:square;stroke-width:1.5;"/>
   </g>
   <g id="line2d_50">
    <path clip-path="url(#p6d7899ed41)" d="M 73.832727 167.110077 
L 84.305455 172.613697 
L 94.778182 186.253104 
L 105.250909 200.251442 
L 115.723636 206.173816 
L 126.196364 203.661294 
L 136.669091 201.687169 
L 147.141818 210.421175 
L 157.614545 231.777614 
L 168.087273 259.714469 
L 178.56 287.23257 
L 189.032727 295.488 
L 199.505455 295.488 
L 209.978182 282.626279 
L 220.450909 246.31435 
L 230.923636 216.104261 
L 241.396364 197.320166 
L 251.869091 180.689662 
L 262.341818 157.957318 
L 272.814545 130.738326 
L 283.287273 106.271145 
L 293.76 91.13619 
L 304.232727 88.204914 
L 314.705455 91.255834 
L 325.178182 90.418326 
L 335.650909 84.495953 
L 346.123636 80.428059 
L 356.596364 83.239691 
L 367.069091 90.896902 
L 377.541818 95.921947 
L 388.014545 95.383549 
L 398.487273 95.084439 
" style="fill:none;stroke:#0039ff;stroke-linecap:square;stroke-width:1.5;"/>
   </g>
   <g id="line2d_51">
    <path clip-path="url(#p6d7899ed41)" d="M 73.832727 172.912807 
L 84.305455 168.12705 
L 94.778182 168.366338 
L 105.250909 172.673519 
L 115.723636 175.066398 
L 126.196364 173.570849 
L 136.669091 179.134291 
L 147.141818 201.328237 
L 157.614545 232.974053 
L 168.087273 258.637674 
L 178.56 268.807407 
L 189.032727 260.551976 
L 199.505455 238.417852 
L 209.978182 212.873875 
L 220.450909 191.876368 
L 230.923636 177.459276 
L 241.396364 166.212748 
L 251.869091 155.325151 
L 262.341818 144.856309 
L 272.814545 133.370493 
L 283.287273 121.226635 
L 293.76 112.133697 
L 304.232727 108.664024 
L 314.705455 113.031027 
L 325.178182 122.841828 
L 335.650909 129.422243 
L 346.123636 128.584736 
L 356.596364 127.268653 
L 367.069091 131.7553 
L 377.541818 136.062481 
L 388.014545 132.353519 
L 398.487273 120.807881 
" style="fill:none;stroke:#001cff;stroke-linecap:square;stroke-width:1.5;"/>
   </g>
   <g id="line2d_52">
    <path clip-path="url(#p6d7899ed41)" d="M 73.832727 167.110077 
L 84.305455 176.741412 
L 94.778182 179.553045 
L 105.250909 176.502125 
L 115.723636 174.348534 
L 126.196364 175.844083 
L 136.669091 181.407525 
L 147.141818 194.98711 
L 157.614545 218.556961 
L 168.087273 246.31435 
L 178.56 268.867228 
L 189.032727 280.891442 
L 199.505455 283.58343 
L 209.978182 277.003015 
L 220.450909 257.321591 
L 230.923636 227.530255 
L 241.396364 199.593401 
L 251.869091 181.108415 
L 262.341818 171.417258 
L 272.814545 163.760047 
L 283.287273 150.599217 
L 293.76 130.558861 
L 304.232727 109.800641 
L 314.705455 97.23803 
L 325.178182 94.48622 
L 335.650909 93.888 
L 346.123636 90.119217 
L 356.596364 87.367407 
L 367.069091 89.760285 
L 377.541818 92.751383 
L 388.014545 90.059395 
L 398.487273 80.607525 
" style="fill:none;stroke:#0800ff;stroke-linecap:square;stroke-width:1.5;"/>
   </g>
   <g id="line2d_53">
    <path clip-path="url(#p6d7899ed41)" d="M 73.832727 165.554706 
L 84.305455 169.383312 
L 94.778182 183.022718 
L 105.250909 191.93619 
L 115.723636 191.397792 
L 126.196364 186.791501 
L 136.669091 187.090611 
L 147.141818 198.696071 
L 157.614545 219.573935 
L 168.087273 243.742006 
L 178.56 266.115418 
L 189.032727 279.395893 
L 199.505455 277.182481 
L 209.978182 262.466279 
L 220.450909 244.758979 
L 230.923636 229.50438 
L 241.396364 211.49797 
L 251.869091 186.013816 
L 262.341818 158.914469 
L 272.814545 138.694647 
L 283.287273 126.490967 
L 293.76 119.790908 
L 304.232727 117.577496 
L 314.705455 115.005151 
L 325.178182 105.79257 
L 335.650909 91.13619 
L 346.123636 78.334291 
L 356.596364 72.651205 
L 367.069091 72.352095 
L 377.541818 72.711027 
L 388.014545 72.890493 
L 398.487273 74.984261 
" style="fill:none;stroke:#2500ff;stroke-linecap:square;stroke-width:1.5;"/>
   </g>
   <g id="line2d_54">
    <path clip-path="url(#p6d7899ed41)" d="M 73.832727 181.407525 
L 84.305455 182.185211 
L 94.778182 171.17797 
L 105.250909 160.529662 
L 115.723636 161.008237 
L 126.196364 173.989602 
L 136.669091 193.730849 
L 147.141818 212.694409 
L 157.614545 225.556131 
L 168.087273 229.80349 
L 178.56 227.530255 
L 189.032727 224.120404 
L 199.505455 223.342718 
L 209.978182 223.163252 
L 220.450909 217.958742 
L 230.923636 205.934528 
L 241.396364 190.141531 
L 251.869091 174.767288 
L 262.341818 161.666279 
L 272.814545 150.180463 
L 283.287273 142.044677 
L 293.76 138.335715 
L 304.232727 136.002659 
L 314.705455 132.054409 
L 325.178182 128.225804 
L 335.650909 127.388297 
L 346.123636 130.499039 
L 356.596364 132.532985 
L 367.069091 127.926694 
L 377.541818 120.44895 
L 388.014545 118.714113 
L 398.487273 122.064142 
" style="fill:none;stroke:#4300ff;stroke-linecap:square;stroke-width:1.5;"/>
   </g>
   <g id="line2d_55">
    <path clip-path="url(#p6d7899ed41)" d="M 73.832727 173.211917 
L 84.305455 166.870789 
L 94.778182 161.905567 
L 105.250909 163.102006 
L 115.723636 168.545804 
L 126.196364 172.015478 
L 136.669091 176.322659 
L 147.141818 193.132629 
L 157.614545 224.539157 
L 168.087273 256.543905 
L 178.56 276.225329 
L 189.032727 282.087881 
L 199.505455 277.302125 
L 209.978182 265.457377 
L 220.450909 249.305448 
L 230.923636 232.196368 
L 241.396364 215.745329 
L 251.869091 199.234469 
L 262.341818 182.663786 
L 272.814545 164.657377 
L 283.287273 144.736665 
L 293.76 126.790077 
L 304.232727 113.689068 
L 314.705455 103.399691 
L 325.178182 93.58889 
L 335.650909 85.153994 
L 346.123636 79.770018 
L 356.596364 77.855715 
L 367.069091 80.069128 
L 377.541818 87.247763 
L 388.014545 94.845151 
L 398.487273 98.554113 
" style="fill:none;stroke:#6000ff;stroke-linecap:square;stroke-width:1.5;"/>
   </g>
   <g id="line2d_56">
    <path clip-path="url(#p6d7899ed41)" d="M 73.832727 184.338801 
L 84.305455 183.800404 
L 94.778182 176.262837 
L 105.250909 163.460938 
L 115.723636 157.538564 
L 126.196364 167.289543 
L 136.669091 188.346872 
L 147.141818 212.156012 
L 157.614545 234.170493 
L 168.087273 250.501887 
L 178.56 258.51803 
L 189.032727 258.577852 
L 199.505455 250.741175 
L 209.978182 233.093697 
L 220.450909 207.130967 
L 230.923636 183.202184 
L 241.396364 170.938682 
L 251.869091 169.32349 
L 262.341818 169.921709 
L 272.814545 166.511858 
L 283.287273 162.32432 
L 293.76 162.085033 
L 304.232727 161.247525 
L 314.705455 154.487644 
L 325.178182 143.719691 
L 335.650909 132.473163 
L 346.123636 123.559691 
L 356.596364 120.628415 
L 367.069091 124.576665 
L 377.541818 131.45619 
L 388.014545 134.686576 
L 398.487273 133.490136 
" style="fill:none;stroke:#7e00ff;stroke-linecap:square;stroke-width:1.5;"/>
   </g>
   <g id="line2d_57">
    <path clip-path="url(#p6d7899ed41)" d="M 73.832727 175.844083 
L 84.305455 174.049424 
L 94.778182 167.648475 
L 105.250909 162.92254 
L 115.723636 164.836843 
L 126.196364 173.271739 
L 136.669091 187.688831 
L 147.141818 208.626516 
L 157.614545 234.948178 
L 168.087273 261.808237 
L 178.56 281.13073 
L 189.032727 286.574528 
L 199.505455 276.524439 
L 209.978182 256.005507 
L 220.450909 235.546398 
L 230.923636 221.129306 
L 241.396364 208.686338 
L 251.869091 191.876368 
L 262.341818 172.912807 
L 272.814545 157.957318 
L 283.287273 146.351858 
L 293.76 134.566932 
L 304.232727 123.559691 
L 314.705455 115.364083 
L 325.178182 107.886338 
L 335.650909 99.98984 
L 346.123636 96.520166 
L 356.596364 99.69073 
L 367.069091 103.878267 
L 377.541818 100.946991 
L 388.014545 91.674588 
L 398.487273 83.897733 
" style="fill:none;stroke:#9b00ff;stroke-linecap:square;stroke-width:1.5;"/>
   </g>
   <g id="line2d_58">
    <path clip-path="url(#p6d7899ed41)" d="M 73.832727 176.083371 
L 84.305455 170.878861 
L 94.778182 163.161828 
L 105.250909 155.863549 
L 115.723636 157.598386 
L 126.196364 173.511027 
L 136.669091 196.781769 
L 147.141818 217.719454 
L 157.614545 232.016902 
L 168.087273 241.289306 
L 178.56 250.561709 
L 189.032727 260.252866 
L 199.505455 260.312688 
L 209.978182 243.921472 
L 220.450909 219.753401 
L 230.923636 202.763964 
L 241.396364 198.03803 
L 251.869091 196.542481 
L 262.341818 187.030789 
L 272.814545 168.665448 
L 283.287273 148.385804 
L 293.76 132.293697 
L 304.232727 123.679335 
L 314.705455 121.824855 
L 325.178182 121.047169 
L 335.650909 115.663193 
L 346.123636 105.254172 
L 356.596364 95.563015 
L 367.069091 91.734409 
L 377.541818 94.546042 
L 388.014545 99.39162 
L 398.487273 100.827347 
" style="fill:none;stroke:#b900ff;stroke-linecap:square;stroke-width:1.5;"/>
   </g>
   <g id="line2d_59">
    <path clip-path="url(#p6d7899ed41)" d="M 73.832727 182.185211 
L 84.305455 183.022718 
L 94.778182 181.766457 
L 105.250909 172.972629 
L 115.723636 160.76895 
L 126.196364 160.529662 
L 136.669091 180.151264 
L 147.141818 209.464024 
L 157.614545 232.914231 
L 168.087273 247.630433 
L 178.56 262.944855 
L 189.032727 281.489662 
L 199.505455 291.479929 
L 209.978182 282.327169 
L 220.450909 258.637674 
L 230.923636 231.239217 
L 241.396364 206.233638 
L 251.869091 185.654884 
L 262.341818 170.280641 
L 272.814545 157.538564 
L 283.287273 142.044677 
L 293.76 121.465923 
L 304.232727 102.263074 
L 314.705455 91.973697 
L 325.178182 89.341531 
L 335.650909 89.580819 
L 346.123636 91.076368 
L 356.596364 91.973697 
L 367.069091 91.854053 
L 377.541818 92.272807 
L 388.014545 93.050493 
L 398.487273 91.674588 
" style="fill:none;stroke:#d600ff;stroke-linecap:square;stroke-width:1.5;"/>
   </g>
   <g id="line2d_60">
    <path clip-path="url(#p6d7899ed41)" d="M 73.832727 178.954825 
L 84.305455 179.313757 
L 94.778182 178.296783 
L 105.250909 175.903905 
L 115.723636 176.083371 
L 126.196364 182.005745 
L 136.669091 194.029958 
L 147.141818 211.019395 
L 157.614545 231.95708 
L 168.087273 255.227822 
L 178.56 274.191383 
L 189.032727 280.891442 
L 199.505455 273.652985 
L 209.978182 256.364439 
L 220.450909 234.230315 
L 230.923636 213.950671 
L 241.396364 200.430908 
L 251.869091 190.560285 
L 262.341818 176.083371 
L 272.814545 153.949246 
L 283.287273 129.661531 
L 293.76 111.655122 
L 304.232727 103.100582 
L 314.705455 100.348772 
L 325.178182 96.699632 
L 335.650909 90.418326 
L 346.123636 85.393282 
L 356.596364 85.812036 
L 367.069091 90.418326 
L 377.541818 94.725507 
L 388.014545 95.383549 
L 398.487273 92.811205 
" style="fill:none;stroke:#f800fd;stroke-linecap:square;stroke-width:1.5;"/>
   </g>
   <g id="line2d_61">
    <path clip-path="url(#p6d7899ed41)" d="M 73.832727 181.467347 
L 84.305455 182.245033 
L 94.778182 179.433401 
L 105.250909 171.77619 
L 115.723636 164.238623 
L 126.196364 168.246694 
L 136.669091 187.928119 
L 147.141818 213.113163 
L 157.614545 234.589246 
L 168.087273 254.749246 
L 178.56 275.387822 
L 189.032727 288.668297 
L 199.505455 286.155774 
L 209.978182 270.781531 
L 220.450909 253.253697 
L 230.923636 236.563371 
L 241.396364 218.437318 
L 251.869091 197.320166 
L 262.341818 175.544973 
L 272.814545 158.017139 
L 283.287273 144.198267 
L 293.76 129.362421 
L 304.232727 113.031027 
L 314.705455 100.468415 
L 325.178182 96.63981 
L 335.650909 98.255003 
L 346.123636 96.101412 
L 356.596364 88.68349 
L 367.069091 81.863786 
L 377.541818 78.513757 
L 388.014545 77.07803 
L 398.487273 78.394113 
" style="fill:none;stroke:#ff00e7;stroke-linecap:square;stroke-width:1.5;"/>
   </g>
   <g id="line2d_62">
    <path clip-path="url(#p6d7899ed41)" d="M 73.832727 151.257258 
L 84.305455 152.393875 
L 94.778182 158.615359 
L 105.250909 162.92254 
L 115.723636 164.178801 
L 126.196364 169.861887 
L 136.669091 187.090611 
L 147.141818 211.976546 
L 157.614545 234.768712 
L 168.087273 248.527763 
L 178.56 252.11708 
L 189.032727 248.707228 
L 199.505455 240.81073 
L 209.978182 229.145448 
L 220.450909 215.14711 
L 230.923636 200.849662 
L 241.396364 186.253104 
L 251.869091 172.553875 
L 262.341818 165.734172 
L 272.814545 168.485982 
L 283.287273 173.391383 
L 293.76 168.306516 
L 304.232727 150.419751 
L 314.705455 132.054409 
L 325.178182 124.157911 
L 335.650909 123.380226 
L 346.123636 118.953401 
L 356.596364 108.903312 
L 367.069091 102.74165 
L 377.541818 106.151501 
L 388.014545 113.210493 
L 398.487273 119.073045 
" style="fill:none;stroke:#ff00c9;stroke-linecap:square;stroke-width:1.5;"/>
   </g>
   <g id="line2d_63">
    <path clip-path="url(#p6d7899ed41)" d="M 73.832727 169.802065 
L 84.305455 171.536902 
L 94.778182 170.220819 
L 105.250909 167.887763 
L 115.723636 167.229721 
L 126.196364 172.434231 
L 136.669091 185.83435 
L 147.141818 203.601472 
L 157.614545 218.138208 
L 168.087273 225.257021 
L 178.56 227.410611 
L 189.032727 228.068653 
L 199.505455 226.094528 
L 209.978182 218.856071 
L 220.450909 208.147941 
L 230.923636 197.43981 
L 241.396364 186.492392 
L 251.869091 172.852985 
L 262.341818 156.581412 
L 272.814545 143.001828 
L 283.287273 139.233045 
L 293.76 145.095596 
L 304.232727 151.01797 
L 314.705455 147.189365 
L 325.178182 134.208 
L 335.650909 121.705211 
L 346.123636 116.321234 
L 356.596364 117.039098 
L 367.069091 121.525745 
L 377.541818 127.089187 
L 388.014545 131.037436 
L 398.487273 131.815122 
" style="fill:none;stroke:#ff00ac;stroke-linecap:square;stroke-width:1.5;"/>
   </g>
   <g id="line2d_64">
    <path clip-path="url(#p6d7899ed41)" d="M 73.832727 179.493223 
L 84.305455 167.947585 
L 94.778182 161.367169 
L 105.250909 162.683252 
L 115.723636 167.349365 
L 126.196364 172.254766 
L 136.669091 181.287881 
L 147.141818 200.78984 
L 157.614545 231.059751 
L 168.087273 264.141294 
L 178.56 289.38616 
L 189.032727 295.488 
L 199.505455 293.274588 
L 209.978182 271.97797 
L 220.450909 244.938445 
L 230.923636 225.615953 
L 241.396364 217.779276 
L 251.869091 212.215834 
L 262.341818 199.473757 
L 272.814545 179.971798 
L 283.287273 158.196605 
L 293.76 135.942837 
L 304.232727 113.928356 
L 314.705455 92.272807 
L 325.178182 73.548534 
L 335.650909 62.601116 
L 346.123636 60.567169 
L 356.596364 62.960047 
L 367.069091 65.592214 
L 377.541818 68.52349 
L 388.014545 72.411917 
L 398.487273 76.120878 
" style="fill:none;stroke:#ff008e;stroke-linecap:square;stroke-width:1.5;"/>
   </g>
   <g id="line2d_65">
    <path clip-path="url(#p6d7899ed41)" d="M 73.832727 172.852985 
L 84.305455 165.734172 
L 94.778182 162.085033 
L 105.250909 164.956487 
L 115.723636 171.237792 
L 126.196364 177.160166 
L 136.669091 184.697733 
L 147.141818 198.456783 
L 157.614545 220.172154 
L 168.087273 248.049187 
L 178.56 278.67803 
L 189.032727 295.488 
L 199.505455 295.488 
L 209.978182 295.488 
L 220.450909 271.738682 
L 230.923636 244.878623 
L 241.396364 222.206101 
L 251.869091 203.601472 
L 262.341818 184.398623 
L 272.814545 165.853816 
L 283.287273 151.137614 
L 293.76 140.01073 
L 304.232727 130.558861 
L 314.705455 121.585567 
L 325.178182 111.774766 
L 335.650909 102.382718 
L 346.123636 98.913045 
L 356.596364 102.263074 
L 367.069091 104.117555 
L 377.541818 98.853223 
L 388.014545 91.495122 
L 398.487273 89.999573 
" style="fill:none;stroke:#ff0071;stroke-linecap:square;stroke-width:1.5;"/>
   </g>
   <g id="line2d_66">
    <path clip-path="url(#p6d7899ed41)" d="M 73.832727 183.022718 
L 84.305455 190.081709 
L 94.778182 192.354944 
L 105.250909 183.321828 
L 115.723636 170.101175 
L 126.196364 167.169899 
L 136.669091 182.125389 
L 147.141818 205.635418 
L 157.614545 222.385567 
L 168.087273 231.598148 
L 178.56 241.648237 
L 189.032727 251.518861 
L 199.505455 251.877792 
L 209.978182 237.879454 
L 220.450909 215.984617 
L 230.923636 197.559454 
L 241.396364 185.894172 
L 251.869091 175.066398 
L 262.341818 163.102006 
L 272.814545 153.530493 
L 283.287273 149.881353 
L 293.76 150.898326 
L 304.232727 148.804558 
L 314.705455 136.122303 
L 325.178182 117.756961 
L 335.650909 107.108653 
L 346.123636 109.680997 
L 356.596364 119.073045 
L 367.069091 127.149009 
L 377.541818 130.199929 
L 388.014545 127.986516 
L 398.487273 122.00432 
" style="fill:none;stroke:#ff0053;stroke-linecap:square;stroke-width:1.5;"/>
   </g>
   <g id="line2d_67">
    <path clip-path="url(#p6d7899ed41)" d="M 73.832727 176.741412 
L 84.305455 175.12622 
L 94.778182 172.0753 
L 105.250909 172.434231 
L 115.723636 179.493223 
L 126.196364 188.526338 
L 136.669091 195.346042 
L 147.141818 204.917555 
L 157.614545 219.932866 
L 168.087273 233.691917 
L 178.56 240.990196 
L 189.032727 242.485745 
L 199.505455 241.468772 
L 209.978182 239.973223 
L 220.450909 236.084795 
L 230.923636 225.257021 
L 241.396364 206.29346 
L 251.869091 183.142362 
L 262.341818 162.92254 
L 272.814545 149.402777 
L 283.287273 139.053579 
L 293.76 126.012392 
L 304.232727 109.980107 
L 314.705455 97.836249 
L 325.178182 95.682659 
L 335.650909 101.605033 
L 346.123636 107.288119 
L 356.596364 104.057733 
L 367.069091 94.366576 
L 377.541818 92.751383 
L 388.014545 103.579157 
L 398.487273 115.603371 
" style="fill:none;stroke:#ff0035;stroke-linecap:square;stroke-width:1.5;"/>
   </g>
   <g id="patch_3">
    <path d="M 57.6 307.584 
L 57.6 41.472 
" style="fill:none;stroke:#000000;stroke-linecap:square;stroke-linejoin:miter;stroke-width:0.8;"/>
   </g>
   <g id="patch_4">
    <path d="M 414.72 307.584 
L 414.72 41.472 
" style="fill:none;stroke:#000000;stroke-linecap:square;stroke-linejoin:miter;stroke-width:0.8;"/>
   </g>
   <g id="patch_5">
    <path d="M 57.6 307.584 
L 414.72 307.584 
" style="fill:none;stroke:#000000;stroke-linecap:square;stroke-linejoin:miter;stroke-width:0.8;"/>
   </g>
   <g id="patch_6">
    <path d="M 57.6 41.472 
L 414.72 41.472 
" style="fill:none;stroke:#000000;stroke-linecap:square;stroke-linejoin:miter;stroke-width:0.8;"/>
   </g>
   <g id="text_19">
    <!-- $V_{rms}=$ 26.126320 -->
    <defs>
     <path d="M 20.609375 0 
L 7.8125 72.90625 
L 17.484375 72.90625 
L 28.078125 10.203125 
L 63.484375 72.90625 
L 74.21875 72.90625 
L 32.078125 0 
z
" id="DejaVuSans-Oblique-56"/>
     <path d="M 44.578125 46.390625 
Q 43.21875 47.125 41.453125 47.515625 
Q 39.703125 47.90625 37.703125 47.90625 
Q 30.515625 47.90625 25.140625 42.453125 
Q 19.78125 37.015625 18.015625 27.875 
L 12.5 0 
L 3.515625 0 
L 14.203125 54.6875 
L 23.1875 54.6875 
L 21.484375 46.1875 
Q 25.046875 50.921875 30 53.453125 
Q 34.96875 56 40.578125 56 
Q 42.046875 56 43.453125 55.828125 
Q 44.875 55.671875 46.296875 55.28125 
z
" id="DejaVuSans-Oblique-72"/>
     <path d="M 89.796875 33.015625 
L 83.40625 0 
L 74.421875 0 
L 80.71875 32.71875 
Q 81.109375 34.8125 81.296875 36.328125 
Q 81.5 37.84375 81.5 38.921875 
Q 81.5 43.3125 79.046875 45.75 
Q 76.609375 48.1875 72.21875 48.1875 
Q 65.671875 48.1875 60.546875 43.28125 
Q 55.421875 38.375 53.90625 30.515625 
L 47.90625 0 
L 38.921875 0 
L 45.3125 32.71875 
Q 45.703125 34.515625 45.890625 36.046875 
Q 46.09375 37.59375 46.09375 38.8125 
Q 46.09375 43.265625 43.65625 45.71875 
Q 41.21875 48.1875 36.921875 48.1875 
Q 30.28125 48.1875 25.140625 43.28125 
Q 20.015625 38.375 18.5 30.515625 
L 12.5 0 
L 3.515625 0 
L 14.203125 54.6875 
L 23.1875 54.6875 
L 21.484375 46.1875 
Q 25.140625 50.984375 30.046875 53.484375 
Q 34.96875 56 40.578125 56 
Q 46.53125 56 50.359375 52.875 
Q 54.203125 49.75 54.984375 44.1875 
Q 59.078125 49.953125 64.46875 52.96875 
Q 69.875 56 75.875 56 
Q 82.90625 56 86.734375 51.953125 
Q 90.578125 47.90625 90.578125 40.484375 
Q 90.578125 38.875 90.375 36.9375 
Q 90.1875 35.015625 89.796875 33.015625 
z
" id="DejaVuSans-Oblique-6d"/>
     <path d="M 50 53.078125 
L 48.296875 44.578125 
Q 44.734375 46.53125 40.765625 47.5 
Q 36.8125 48.484375 32.625 48.484375 
Q 25.53125 48.484375 21.453125 46.0625 
Q 17.390625 43.65625 17.390625 39.5 
Q 17.390625 34.671875 26.859375 32.078125 
Q 27.59375 31.890625 27.9375 31.78125 
L 30.8125 30.90625 
Q 39.796875 28.421875 42.796875 25.6875 
Q 45.796875 22.953125 45.796875 18.21875 
Q 45.796875 9.515625 38.890625 4.046875 
Q 31.984375 -1.421875 20.796875 -1.421875 
Q 16.453125 -1.421875 11.671875 -0.578125 
Q 6.890625 0.25 1.125 2 
L 2.875 11.28125 
Q 7.8125 8.734375 12.59375 7.421875 
Q 17.390625 6.109375 21.78125 6.109375 
Q 28.375 6.109375 32.5 8.9375 
Q 36.625 11.765625 36.625 16.109375 
Q 36.625 20.796875 25.78125 23.6875 
L 24.859375 23.921875 
L 21.78125 24.703125 
Q 14.9375 26.515625 11.765625 29.46875 
Q 8.59375 32.421875 8.59375 37.015625 
Q 8.59375 45.75 15.15625 50.875 
Q 21.734375 56 33.015625 56 
Q 37.453125 56 41.671875 55.265625 
Q 45.90625 54.546875 50 53.078125 
z
" id="DejaVuSans-Oblique-73"/>
     <path d="M 10.59375 45.40625 
L 73.1875 45.40625 
L 73.1875 37.203125 
L 10.59375 37.203125 
z
M 10.59375 25.484375 
L 73.1875 25.484375 
L 73.1875 17.1875 
L 10.59375 17.1875 
z
" id="DejaVuSans-3d"/>
    </defs>
    <g transform="translate(325.178182 143.215513)scale(0.1 -0.1)">
     <use transform="translate(0 0.78125)" xlink:href="#DejaVuSans-Oblique-56"/>
     <use transform="translate(68.408203 -15.625)scale(0.7)" xlink:href="#DejaVuSans-Oblique-72"/>
     <use transform="translate(97.1875 -15.625)scale(0.7)" xlink:href="#DejaVuSans-Oblique-6d"/>
     <use transform="translate(165.375977 -15.625)scale(0.7)" xlink:href="#DejaVuSans-Oblique-73"/>
     <use transform="translate(224.0625 0.78125)" xlink:href="#DejaVuSans-3d"/>
     <use transform="translate(327.333984 0.78125)" xlink:href="#DejaVuSans-20"/>
     <use transform="translate(359.121094 0.78125)" xlink:href="#DejaVuSans-32"/>
     <use transform="translate(422.744141 0.78125)" xlink:href="#DejaVuSans-36"/>
     <use transform="translate(486.367188 0.78125)" xlink:href="#DejaVuSans-2e"/>
     <use transform="translate(518.154297 0.78125)" xlink:href="#DejaVuSans-31"/>
     <use transform="translate(581.777344 0.78125)" xlink:href="#DejaVuSans-32"/>
     <use transform="translate(645.400391 0.78125)" xlink:href="#DejaVuSans-36"/>
     <use transform="translate(709.023438 0.78125)" xlink:href="#DejaVuSans-33"/>
     <use transform="translate(772.646484 0.78125)" xlink:href="#DejaVuSans-32"/>
     <use transform="translate(836.269531 0.78125)" xlink:href="#DejaVuSans-30"/>
    </g>
   </g>
   <g id="text_20">
    <!-- Channel 13 - Unit 1 -->
    <defs>
     <path d="M 64.40625 67.28125 
L 64.40625 56.890625 
Q 59.421875 61.53125 53.78125 63.8125 
Q 48.140625 66.109375 41.796875 66.109375 
Q 29.296875 66.109375 22.65625 58.46875 
Q 16.015625 50.828125 16.015625 36.375 
Q 16.015625 21.96875 22.65625 14.328125 
Q 29.296875 6.6875 41.796875 6.6875 
Q 48.140625 6.6875 53.78125 8.984375 
Q 59.421875 11.28125 64.40625 15.921875 
L 64.40625 5.609375 
Q 59.234375 2.09375 53.4375 0.328125 
Q 47.65625 -1.421875 41.21875 -1.421875 
Q 24.65625 -1.421875 15.125 8.703125 
Q 5.609375 18.84375 5.609375 36.375 
Q 5.609375 53.953125 15.125 64.078125 
Q 24.65625 74.21875 41.21875 74.21875 
Q 47.75 74.21875 53.53125 72.484375 
Q 59.328125 70.75 64.40625 67.28125 
z
" id="DejaVuSans-43"/>
     <path d="M 54.890625 33.015625 
L 54.890625 0 
L 45.90625 0 
L 45.90625 32.71875 
Q 45.90625 40.484375 42.875 44.328125 
Q 39.84375 48.1875 33.796875 48.1875 
Q 26.515625 48.1875 22.3125 43.546875 
Q 18.109375 38.921875 18.109375 30.90625 
L 18.109375 0 
L 9.078125 0 
L 9.078125 75.984375 
L 18.109375 75.984375 
L 18.109375 46.1875 
Q 21.34375 51.125 25.703125 53.5625 
Q 30.078125 56 35.796875 56 
Q 45.21875 56 50.046875 50.171875 
Q 54.890625 44.34375 54.890625 33.015625 
z
" id="DejaVuSans-68"/>
     <path d="M 54.890625 33.015625 
L 54.890625 0 
L 45.90625 0 
L 45.90625 32.71875 
Q 45.90625 40.484375 42.875 44.328125 
Q 39.84375 48.1875 33.796875 48.1875 
Q 26.515625 48.1875 22.3125 43.546875 
Q 18.109375 38.921875 18.109375 30.90625 
L 18.109375 0 
L 9.078125 0 
L 9.078125 54.6875 
L 18.109375 54.6875 
L 18.109375 46.1875 
Q 21.34375 51.125 25.703125 53.5625 
Q 30.078125 56 35.796875 56 
Q 45.21875 56 50.046875 50.171875 
Q 54.890625 44.34375 54.890625 33.015625 
z
" id="DejaVuSans-6e"/>
     <path d="M 4.890625 31.390625 
L 31.203125 31.390625 
L 31.203125 23.390625 
L 4.890625 23.390625 
z
" id="DejaVuSans-2d"/>
     <path d="M 8.6875 72.90625 
L 18.609375 72.90625 
L 18.609375 28.609375 
Q 18.609375 16.890625 22.84375 11.734375 
Q 27.09375 6.59375 36.625 6.59375 
Q 46.09375 6.59375 50.34375 11.734375 
Q 54.59375 16.890625 54.59375 28.609375 
L 54.59375 72.90625 
L 64.5 72.90625 
L 64.5 27.390625 
Q 64.5 13.140625 57.4375 5.859375 
Q 50.390625 -1.421875 36.625 -1.421875 
Q 22.796875 -1.421875 15.734375 5.859375 
Q 8.6875 13.140625 8.6875 27.390625 
z
" id="DejaVuSans-55"/>
    </defs>
    <g transform="translate(178.069687 35.472)scale(0.12 -0.12)">
     <use xlink:href="#DejaVuSans-43"/>
     <use x="69.824219" xlink:href="#DejaVuSans-68"/>
     <use x="133.203125" xlink:href="#DejaVuSans-61"/>
     <use x="194.482422" xlink:href="#DejaVuSans-6e"/>
     <use x="257.861328" xlink:href="#DejaVuSans-6e"/>
     <use x="321.240234" xlink:href="#DejaVuSans-65"/>
     <use x="382.763672" xlink:href="#DejaVuSans-6c"/>
     <use x="410.546875" xlink:href="#DejaVuSans-20"/>
     <use x="442.333984" xlink:href="#DejaVuSans-31"/>
     <use x="505.957031" xlink:href="#DejaVuSans-33"/>
     <use x="569.580078" xlink:href="#DejaVuSans-20"/>
     <use x="601.367188" xlink:href="#DejaVuSans-2d"/>
     <use x="637.451172" xlink:href="#DejaVuSans-20"/>
     <use x="669.238281" xlink:href="#DejaVuSans-55"/>
     <use x="742.431641" xlink:href="#DejaVuSans-6e"/>
     <use x="805.810547" xlink:href="#DejaVuSans-69"/>
     <use x="833.59375" xlink:href="#DejaVuSans-74"/>
     <use x="872.802734" xlink:href="#DejaVuSans-20"/>
     <use x="904.589844" xlink:href="#DejaVuSans-31"/>
    </g>
   </g>
  </g>
 </g>
 <defs>
  <clipPath id="p6d7899ed41">
   <rect height="266.112" width="357.12" x="57.6" y="41.472"/>
  </clipPath>
 </defs>
</svg>
