<?xml version="1.0" encoding="utf-8" standalone="no"?>
<!DOCTYPE svg PUBLIC "-//W3C//DTD SVG 1.1//EN"
  "http://www.w3.org/Graphics/SVG/1.1/DTD/svg11.dtd">
<!-- Created with matplotlib (http://matplotlib.org/) -->
<svg height="345pt" version="1.1" viewBox="0 0 460 345" width="460pt" xmlns="http://www.w3.org/2000/svg" xmlns:xlink="http://www.w3.org/1999/xlink">
 <defs>
  <style type="text/css">
*{stroke-linecap:butt;stroke-linejoin:round;}
  </style>
 </defs>
 <g id="figure_1">
  <g id="patch_1">
   <path d="M 0 345.6 
L 460.8 345.6 
L 460.8 0 
L 0 0 
z
" style="fill:#ffffff;"/>
  </g>
  <g id="axes_1">
   <g id="patch_2">
    <path d="M 57.6 307.584 
L 414.72 307.584 
L 414.72 41.472 
L 57.6 41.472 
z
" style="fill:#ffffff;"/>
   </g>
   <g id="PolyCollection_1">
    <defs>
     <path d="M 73.832727 -182.459302 
L 73.832727 -161.808893 
L 84.305455 -162.000872 
L 94.778182 -162.275482 
L 105.250909 -163.889303 
L 115.723636 -166.686022 
L 126.196364 -167.06242 
L 136.669091 -159.285614 
L 147.141818 -139.026297 
L 157.614545 -104.80365 
L 168.087273 -63.257996 
L 178.56 -44.598579 
L 189.032727 -45.081895 
L 199.505455 -44.773253 
L 209.978182 -44.49001 
L 220.450909 -57.092046 
L 230.923636 -84.742594 
L 241.396364 -111.126457 
L 251.869091 -135.102148 
L 262.341818 -157.123368 
L 272.814545 -176.743414 
L 283.287273 -194.116796 
L 293.76 -209.443588 
L 304.232727 -221.212128 
L 314.705455 -230.346103 
L 325.178182 -238.644867 
L 335.650909 -245.634531 
L 346.123636 -250.641264 
L 356.596364 -255.011785 
L 367.069091 -258.393986 
L 377.541818 -259.782691 
L 388.014545 -259.015644 
L 398.487273 -257.146446 
L 398.487273 -286.832297 
L 398.487273 -286.832297 
L 388.014545 -286.23116 
L 377.541818 -284.916601 
L 367.069091 -283.011188 
L 356.596364 -280.610928 
L 346.123636 -277.136775 
L 335.650909 -272.028721 
L 325.178182 -266.353272 
L 314.705455 -258.553345 
L 304.232727 -247.876129 
L 293.76 -234.855499 
L 283.287273 -220.110396 
L 272.814545 -202.88586 
L 262.341818 -184.115428 
L 251.869091 -163.985892 
L 241.396364 -141.905921 
L 230.923636 -117.638371 
L 220.450909 -91.486724 
L 209.978182 -68.887803 
L 199.505455 -60.40736 
L 189.032727 -60.452536 
L 178.56 -69.246686 
L 168.087273 -95.148891 
L 157.614545 -126.830524 
L 147.141818 -156.242064 
L 136.669091 -177.485269 
L 126.196364 -187.835793 
L 115.723636 -189.859895 
L 105.250909 -187.859418 
L 94.778182 -185.347522 
L 84.305455 -183.559919 
L 73.832727 -182.459302 
z
" id="me24ad89f3a"/>
    </defs>
    <g clip-path="url(#p1e54fb1dd8)">
     <use style="fill-opacity:0.5;" x="0" xlink:href="#me24ad89f3a" y="345.6"/>
    </g>
   </g>
   <g id="matplotlib.axis_1">
    <g id="xtick_1">
     <g id="line2d_1">
      <defs>
       <path d="M 0 0 
L 0 3.5 
" id="mb9854ca578" style="stroke:#000000;stroke-width:0.8;"/>
      </defs>
      <g>
       <use style="stroke:#000000;stroke-width:0.8;" x="73.832727" xlink:href="#mb9854ca578" y="307.584"/>
      </g>
     </g>
     <g id="text_1">
      <!-- 0.0000 -->
      <defs>
       <path d="M 31.78125 66.40625 
Q 24.171875 66.40625 20.328125 58.90625 
Q 16.5 51.421875 16.5 36.375 
Q 16.5 21.390625 20.328125 13.890625 
Q 24.171875 6.390625 31.78125 6.390625 
Q 39.453125 6.390625 43.28125 13.890625 
Q 47.125 21.390625 47.125 36.375 
Q 47.125 51.421875 43.28125 58.90625 
Q 39.453125 66.40625 31.78125 66.40625 
z
M 31.78125 74.21875 
Q 44.046875 74.21875 50.515625 64.515625 
Q 56.984375 54.828125 56.984375 36.375 
Q 56.984375 17.96875 50.515625 8.265625 
Q 44.046875 -1.421875 31.78125 -1.421875 
Q 19.53125 -1.421875 13.0625 8.265625 
Q 6.59375 17.96875 6.59375 36.375 
Q 6.59375 54.828125 13.0625 64.515625 
Q 19.53125 74.21875 31.78125 74.21875 
z
" id="DejaVuSans-30"/>
       <path d="M 10.6875 12.40625 
L 21 12.40625 
L 21 0 
L 10.6875 0 
z
" id="DejaVuSans-2e"/>
      </defs>
      <g transform="translate(56.337415 322.182437)scale(0.1 -0.1)">
       <use xlink:href="#DejaVuSans-30"/>
       <use x="63.623047" xlink:href="#DejaVuSans-2e"/>
       <use x="95.410156" xlink:href="#DejaVuSans-30"/>
       <use x="159.033203" xlink:href="#DejaVuSans-30"/>
       <use x="222.65625" xlink:href="#DejaVuSans-30"/>
       <use x="286.279297" xlink:href="#DejaVuSans-30"/>
      </g>
     </g>
    </g>
    <g id="xtick_2">
     <g id="line2d_2">
      <g>
       <use style="stroke:#000000;stroke-width:0.8;" x="115.723636" xlink:href="#mb9854ca578" y="307.584"/>
      </g>
     </g>
     <g id="text_2">
      <!-- 0.0001 -->
      <defs>
       <path d="M 12.40625 8.296875 
L 28.515625 8.296875 
L 28.515625 63.921875 
L 10.984375 60.40625 
L 10.984375 69.390625 
L 28.421875 72.90625 
L 38.28125 72.90625 
L 38.28125 8.296875 
L 54.390625 8.296875 
L 54.390625 0 
L 12.40625 0 
z
" id="DejaVuSans-31"/>
      </defs>
      <g transform="translate(98.228324 322.182437)scale(0.1 -0.1)">
       <use xlink:href="#DejaVuSans-30"/>
       <use x="63.623047" xlink:href="#DejaVuSans-2e"/>
       <use x="95.410156" xlink:href="#DejaVuSans-30"/>
       <use x="159.033203" xlink:href="#DejaVuSans-30"/>
       <use x="222.65625" xlink:href="#DejaVuSans-30"/>
       <use x="286.279297" xlink:href="#DejaVuSans-31"/>
      </g>
     </g>
    </g>
    <g id="xtick_3">
     <g id="line2d_3">
      <g>
       <use style="stroke:#000000;stroke-width:0.8;" x="157.614545" xlink:href="#mb9854ca578" y="307.584"/>
      </g>
     </g>
     <g id="text_3">
      <!-- 0.0002 -->
      <defs>
       <path d="M 19.1875 8.296875 
L 53.609375 8.296875 
L 53.609375 0 
L 7.328125 0 
L 7.328125 8.296875 
Q 12.9375 14.109375 22.625 23.890625 
Q 32.328125 33.6875 34.8125 36.53125 
Q 39.546875 41.84375 41.421875 45.53125 
Q 43.3125 49.21875 43.3125 52.78125 
Q 43.3125 58.59375 39.234375 62.25 
Q 35.15625 65.921875 28.609375 65.921875 
Q 23.96875 65.921875 18.8125 64.3125 
Q 13.671875 62.703125 7.8125 59.421875 
L 7.8125 69.390625 
Q 13.765625 71.78125 18.9375 73 
Q 24.125 74.21875 28.421875 74.21875 
Q 39.75 74.21875 46.484375 68.546875 
Q 53.21875 62.890625 53.21875 53.421875 
Q 53.21875 48.921875 51.53125 44.890625 
Q 49.859375 40.875 45.40625 35.40625 
Q 44.1875 33.984375 37.640625 27.21875 
Q 31.109375 20.453125 19.1875 8.296875 
z
" id="DejaVuSans-32"/>
      </defs>
      <g transform="translate(140.119233 322.182437)scale(0.1 -0.1)">
       <use xlink:href="#DejaVuSans-30"/>
       <use x="63.623047" xlink:href="#DejaVuSans-2e"/>
       <use x="95.410156" xlink:href="#DejaVuSans-30"/>
       <use x="159.033203" xlink:href="#DejaVuSans-30"/>
       <use x="222.65625" xlink:href="#DejaVuSans-30"/>
       <use x="286.279297" xlink:href="#DejaVuSans-32"/>
      </g>
     </g>
    </g>
    <g id="xtick_4">
     <g id="line2d_4">
      <g>
       <use style="stroke:#000000;stroke-width:0.8;" x="199.505455" xlink:href="#mb9854ca578" y="307.584"/>
      </g>
     </g>
     <g id="text_4">
      <!-- 0.0003 -->
      <defs>
       <path d="M 40.578125 39.3125 
Q 47.65625 37.796875 51.625 33 
Q 55.609375 28.21875 55.609375 21.1875 
Q 55.609375 10.40625 48.1875 4.484375 
Q 40.765625 -1.421875 27.09375 -1.421875 
Q 22.515625 -1.421875 17.65625 -0.515625 
Q 12.796875 0.390625 7.625 2.203125 
L 7.625 11.71875 
Q 11.71875 9.328125 16.59375 8.109375 
Q 21.484375 6.890625 26.8125 6.890625 
Q 36.078125 6.890625 40.9375 10.546875 
Q 45.796875 14.203125 45.796875 21.1875 
Q 45.796875 27.640625 41.28125 31.265625 
Q 36.765625 34.90625 28.71875 34.90625 
L 20.21875 34.90625 
L 20.21875 43.015625 
L 29.109375 43.015625 
Q 36.375 43.015625 40.234375 45.921875 
Q 44.09375 48.828125 44.09375 54.296875 
Q 44.09375 59.90625 40.109375 62.90625 
Q 36.140625 65.921875 28.71875 65.921875 
Q 24.65625 65.921875 20.015625 65.03125 
Q 15.375 64.15625 9.8125 62.3125 
L 9.8125 71.09375 
Q 15.4375 72.65625 20.34375 73.4375 
Q 25.25 74.21875 29.59375 74.21875 
Q 40.828125 74.21875 47.359375 69.109375 
Q 53.90625 64.015625 53.90625 55.328125 
Q 53.90625 49.265625 50.4375 45.09375 
Q 46.96875 40.921875 40.578125 39.3125 
z
" id="DejaVuSans-33"/>
      </defs>
      <g transform="translate(182.010142 322.182437)scale(0.1 -0.1)">
       <use xlink:href="#DejaVuSans-30"/>
       <use x="63.623047" xlink:href="#DejaVuSans-2e"/>
       <use x="95.410156" xlink:href="#DejaVuSans-30"/>
       <use x="159.033203" xlink:href="#DejaVuSans-30"/>
       <use x="222.65625" xlink:href="#DejaVuSans-30"/>
       <use x="286.279297" xlink:href="#DejaVuSans-33"/>
      </g>
     </g>
    </g>
    <g id="xtick_5">
     <g id="line2d_5">
      <g>
       <use style="stroke:#000000;stroke-width:0.8;" x="241.396364" xlink:href="#mb9854ca578" y="307.584"/>
      </g>
     </g>
     <g id="text_5">
      <!-- 0.0004 -->
      <defs>
       <path d="M 37.796875 64.3125 
L 12.890625 25.390625 
L 37.796875 25.390625 
z
M 35.203125 72.90625 
L 47.609375 72.90625 
L 47.609375 25.390625 
L 58.015625 25.390625 
L 58.015625 17.1875 
L 47.609375 17.1875 
L 47.609375 0 
L 37.796875 0 
L 37.796875 17.1875 
L 4.890625 17.1875 
L 4.890625 26.703125 
z
" id="DejaVuSans-34"/>
      </defs>
      <g transform="translate(223.901051 322.182437)scale(0.1 -0.1)">
       <use xlink:href="#DejaVuSans-30"/>
       <use x="63.623047" xlink:href="#DejaVuSans-2e"/>
       <use x="95.410156" xlink:href="#DejaVuSans-30"/>
       <use x="159.033203" xlink:href="#DejaVuSans-30"/>
       <use x="222.65625" xlink:href="#DejaVuSans-30"/>
       <use x="286.279297" xlink:href="#DejaVuSans-34"/>
      </g>
     </g>
    </g>
    <g id="xtick_6">
     <g id="line2d_6">
      <g>
       <use style="stroke:#000000;stroke-width:0.8;" x="283.287273" xlink:href="#mb9854ca578" y="307.584"/>
      </g>
     </g>
     <g id="text_6">
      <!-- 0.0005 -->
      <defs>
       <path d="M 10.796875 72.90625 
L 49.515625 72.90625 
L 49.515625 64.59375 
L 19.828125 64.59375 
L 19.828125 46.734375 
Q 21.96875 47.46875 24.109375 47.828125 
Q 26.265625 48.1875 28.421875 48.1875 
Q 40.625 48.1875 47.75 41.5 
Q 54.890625 34.8125 54.890625 23.390625 
Q 54.890625 11.625 47.5625 5.09375 
Q 40.234375 -1.421875 26.90625 -1.421875 
Q 22.3125 -1.421875 17.546875 -0.640625 
Q 12.796875 0.140625 7.71875 1.703125 
L 7.71875 11.625 
Q 12.109375 9.234375 16.796875 8.0625 
Q 21.484375 6.890625 26.703125 6.890625 
Q 35.15625 6.890625 40.078125 11.328125 
Q 45.015625 15.765625 45.015625 23.390625 
Q 45.015625 31 40.078125 35.4375 
Q 35.15625 39.890625 26.703125 39.890625 
Q 22.75 39.890625 18.8125 39.015625 
Q 14.890625 38.140625 10.796875 36.28125 
z
" id="DejaVuSans-35"/>
      </defs>
      <g transform="translate(265.79196 322.182437)scale(0.1 -0.1)">
       <use xlink:href="#DejaVuSans-30"/>
       <use x="63.623047" xlink:href="#DejaVuSans-2e"/>
       <use x="95.410156" xlink:href="#DejaVuSans-30"/>
       <use x="159.033203" xlink:href="#DejaVuSans-30"/>
       <use x="222.65625" xlink:href="#DejaVuSans-30"/>
       <use x="286.279297" xlink:href="#DejaVuSans-35"/>
      </g>
     </g>
    </g>
    <g id="xtick_7">
     <g id="line2d_7">
      <g>
       <use style="stroke:#000000;stroke-width:0.8;" x="325.178182" xlink:href="#mb9854ca578" y="307.584"/>
      </g>
     </g>
     <g id="text_7">
      <!-- 0.0006 -->
      <defs>
       <path d="M 33.015625 40.375 
Q 26.375 40.375 22.484375 35.828125 
Q 18.609375 31.296875 18.609375 23.390625 
Q 18.609375 15.53125 22.484375 10.953125 
Q 26.375 6.390625 33.015625 6.390625 
Q 39.65625 6.390625 43.53125 10.953125 
Q 47.40625 15.53125 47.40625 23.390625 
Q 47.40625 31.296875 43.53125 35.828125 
Q 39.65625 40.375 33.015625 40.375 
z
M 52.59375 71.296875 
L 52.59375 62.3125 
Q 48.875 64.0625 45.09375 64.984375 
Q 41.3125 65.921875 37.59375 65.921875 
Q 27.828125 65.921875 22.671875 59.328125 
Q 17.53125 52.734375 16.796875 39.40625 
Q 19.671875 43.65625 24.015625 45.921875 
Q 28.375 48.1875 33.59375 48.1875 
Q 44.578125 48.1875 50.953125 41.515625 
Q 57.328125 34.859375 57.328125 23.390625 
Q 57.328125 12.15625 50.6875 5.359375 
Q 44.046875 -1.421875 33.015625 -1.421875 
Q 20.359375 -1.421875 13.671875 8.265625 
Q 6.984375 17.96875 6.984375 36.375 
Q 6.984375 53.65625 15.1875 63.9375 
Q 23.390625 74.21875 37.203125 74.21875 
Q 40.921875 74.21875 44.703125 73.484375 
Q 48.484375 72.75 52.59375 71.296875 
z
" id="DejaVuSans-36"/>
      </defs>
      <g transform="translate(307.682869 322.182437)scale(0.1 -0.1)">
       <use xlink:href="#DejaVuSans-30"/>
       <use x="63.623047" xlink:href="#DejaVuSans-2e"/>
       <use x="95.410156" xlink:href="#DejaVuSans-30"/>
       <use x="159.033203" xlink:href="#DejaVuSans-30"/>
       <use x="222.65625" xlink:href="#DejaVuSans-30"/>
       <use x="286.279297" xlink:href="#DejaVuSans-36"/>
      </g>
     </g>
    </g>
    <g id="xtick_8">
     <g id="line2d_8">
      <g>
       <use style="stroke:#000000;stroke-width:0.8;" x="367.069091" xlink:href="#mb9854ca578" y="307.584"/>
      </g>
     </g>
     <g id="text_8">
      <!-- 0.0007 -->
      <defs>
       <path d="M 8.203125 72.90625 
L 55.078125 72.90625 
L 55.078125 68.703125 
L 28.609375 0 
L 18.3125 0 
L 43.21875 64.59375 
L 8.203125 64.59375 
z
" id="DejaVuSans-37"/>
      </defs>
      <g transform="translate(349.573778 322.182437)scale(0.1 -0.1)">
       <use xlink:href="#DejaVuSans-30"/>
       <use x="63.623047" xlink:href="#DejaVuSans-2e"/>
       <use x="95.410156" xlink:href="#DejaVuSans-30"/>
       <use x="159.033203" xlink:href="#DejaVuSans-30"/>
       <use x="222.65625" xlink:href="#DejaVuSans-30"/>
       <use x="286.279297" xlink:href="#DejaVuSans-37"/>
      </g>
     </g>
    </g>
    <g id="xtick_9">
     <g id="line2d_9">
      <g>
       <use style="stroke:#000000;stroke-width:0.8;" x="408.96" xlink:href="#mb9854ca578" y="307.584"/>
      </g>
     </g>
     <g id="text_9">
      <!-- 0.0008 -->
      <defs>
       <path d="M 31.78125 34.625 
Q 24.75 34.625 20.71875 30.859375 
Q 16.703125 27.09375 16.703125 20.515625 
Q 16.703125 13.921875 20.71875 10.15625 
Q 24.75 6.390625 31.78125 6.390625 
Q 38.8125 6.390625 42.859375 10.171875 
Q 46.921875 13.96875 46.921875 20.515625 
Q 46.921875 27.09375 42.890625 30.859375 
Q 38.875 34.625 31.78125 34.625 
z
M 21.921875 38.8125 
Q 15.578125 40.375 12.03125 44.71875 
Q 8.5 49.078125 8.5 55.328125 
Q 8.5 64.0625 14.71875 69.140625 
Q 20.953125 74.21875 31.78125 74.21875 
Q 42.671875 74.21875 48.875 69.140625 
Q 55.078125 64.0625 55.078125 55.328125 
Q 55.078125 49.078125 51.53125 44.71875 
Q 48 40.375 41.703125 38.8125 
Q 48.828125 37.15625 52.796875 32.3125 
Q 56.78125 27.484375 56.78125 20.515625 
Q 56.78125 9.90625 50.3125 4.234375 
Q 43.84375 -1.421875 31.78125 -1.421875 
Q 19.734375 -1.421875 13.25 4.234375 
Q 6.78125 9.90625 6.78125 20.515625 
Q 6.78125 27.484375 10.78125 32.3125 
Q 14.796875 37.15625 21.921875 38.8125 
z
M 18.3125 54.390625 
Q 18.3125 48.734375 21.84375 45.5625 
Q 25.390625 42.390625 31.78125 42.390625 
Q 38.140625 42.390625 41.71875 45.5625 
Q 45.3125 48.734375 45.3125 54.390625 
Q 45.3125 60.0625 41.71875 63.234375 
Q 38.140625 66.40625 31.78125 66.40625 
Q 25.390625 66.40625 21.84375 63.234375 
Q 18.3125 60.0625 18.3125 54.390625 
z
" id="DejaVuSans-38"/>
      </defs>
      <g transform="translate(391.464687 322.182437)scale(0.1 -0.1)">
       <use xlink:href="#DejaVuSans-30"/>
       <use x="63.623047" xlink:href="#DejaVuSans-2e"/>
       <use x="95.410156" xlink:href="#DejaVuSans-30"/>
       <use x="159.033203" xlink:href="#DejaVuSans-30"/>
       <use x="222.65625" xlink:href="#DejaVuSans-30"/>
       <use x="286.279297" xlink:href="#DejaVuSans-38"/>
      </g>
     </g>
    </g>
    <g id="text_10">
     <!-- Time (s) -->
     <defs>
      <path d="M -0.296875 72.90625 
L 61.375 72.90625 
L 61.375 64.59375 
L 35.5 64.59375 
L 35.5 0 
L 25.59375 0 
L 25.59375 64.59375 
L -0.296875 64.59375 
z
" id="DejaVuSans-54"/>
      <path d="M 9.421875 54.6875 
L 18.40625 54.6875 
L 18.40625 0 
L 9.421875 0 
z
M 9.421875 75.984375 
L 18.40625 75.984375 
L 18.40625 64.59375 
L 9.421875 64.59375 
z
" id="DejaVuSans-69"/>
      <path d="M 52 44.1875 
Q 55.375 50.25 60.0625 53.125 
Q 64.75 56 71.09375 56 
Q 79.640625 56 84.28125 50.015625 
Q 88.921875 44.046875 88.921875 33.015625 
L 88.921875 0 
L 79.890625 0 
L 79.890625 32.71875 
Q 79.890625 40.578125 77.09375 44.375 
Q 74.3125 48.1875 68.609375 48.1875 
Q 61.625 48.1875 57.5625 43.546875 
Q 53.515625 38.921875 53.515625 30.90625 
L 53.515625 0 
L 44.484375 0 
L 44.484375 32.71875 
Q 44.484375 40.625 41.703125 44.40625 
Q 38.921875 48.1875 33.109375 48.1875 
Q 26.21875 48.1875 22.15625 43.53125 
Q 18.109375 38.875 18.109375 30.90625 
L 18.109375 0 
L 9.078125 0 
L 9.078125 54.6875 
L 18.109375 54.6875 
L 18.109375 46.1875 
Q 21.1875 51.21875 25.484375 53.609375 
Q 29.78125 56 35.6875 56 
Q 41.65625 56 45.828125 52.96875 
Q 50 49.953125 52 44.1875 
z
" id="DejaVuSans-6d"/>
      <path d="M 56.203125 29.59375 
L 56.203125 25.203125 
L 14.890625 25.203125 
Q 15.484375 15.921875 20.484375 11.0625 
Q 25.484375 6.203125 34.421875 6.203125 
Q 39.59375 6.203125 44.453125 7.46875 
Q 49.3125 8.734375 54.109375 11.28125 
L 54.109375 2.78125 
Q 49.265625 0.734375 44.1875 -0.34375 
Q 39.109375 -1.421875 33.890625 -1.421875 
Q 20.796875 -1.421875 13.15625 6.1875 
Q 5.515625 13.8125 5.515625 26.8125 
Q 5.515625 40.234375 12.765625 48.109375 
Q 20.015625 56 32.328125 56 
Q 43.359375 56 49.78125 48.890625 
Q 56.203125 41.796875 56.203125 29.59375 
z
M 47.21875 32.234375 
Q 47.125 39.59375 43.09375 43.984375 
Q 39.0625 48.390625 32.421875 48.390625 
Q 24.90625 48.390625 20.390625 44.140625 
Q 15.875 39.890625 15.1875 32.171875 
z
" id="DejaVuSans-65"/>
      <path id="DejaVuSans-20"/>
      <path d="M 31 75.875 
Q 24.46875 64.65625 21.28125 53.65625 
Q 18.109375 42.671875 18.109375 31.390625 
Q 18.109375 20.125 21.3125 9.0625 
Q 24.515625 -2 31 -13.1875 
L 23.1875 -13.1875 
Q 15.875 -1.703125 12.234375 9.375 
Q 8.59375 20.453125 8.59375 31.390625 
Q 8.59375 42.28125 12.203125 53.3125 
Q 15.828125 64.359375 23.1875 75.875 
z
" id="DejaVuSans-28"/>
      <path d="M 44.28125 53.078125 
L 44.28125 44.578125 
Q 40.484375 46.53125 36.375 47.5 
Q 32.28125 48.484375 27.875 48.484375 
Q 21.1875 48.484375 17.84375 46.4375 
Q 14.5 44.390625 14.5 40.28125 
Q 14.5 37.15625 16.890625 35.375 
Q 19.28125 33.59375 26.515625 31.984375 
L 29.59375 31.296875 
Q 39.15625 29.25 43.1875 25.515625 
Q 47.21875 21.78125 47.21875 15.09375 
Q 47.21875 7.46875 41.1875 3.015625 
Q 35.15625 -1.421875 24.609375 -1.421875 
Q 20.21875 -1.421875 15.453125 -0.5625 
Q 10.6875 0.296875 5.421875 2 
L 5.421875 11.28125 
Q 10.40625 8.6875 15.234375 7.390625 
Q 20.0625 6.109375 24.8125 6.109375 
Q 31.15625 6.109375 34.5625 8.28125 
Q 37.984375 10.453125 37.984375 14.40625 
Q 37.984375 18.0625 35.515625 20.015625 
Q 33.0625 21.96875 24.703125 23.78125 
L 21.578125 24.515625 
Q 13.234375 26.265625 9.515625 29.90625 
Q 5.8125 33.546875 5.8125 39.890625 
Q 5.8125 47.609375 11.28125 51.796875 
Q 16.75 56 26.8125 56 
Q 31.78125 56 36.171875 55.265625 
Q 40.578125 54.546875 44.28125 53.078125 
z
" id="DejaVuSans-73"/>
      <path d="M 8.015625 75.875 
L 15.828125 75.875 
Q 23.140625 64.359375 26.78125 53.3125 
Q 30.421875 42.28125 30.421875 31.390625 
Q 30.421875 20.453125 26.78125 9.375 
Q 23.140625 -1.703125 15.828125 -13.1875 
L 8.015625 -13.1875 
Q 14.5 -2 17.703125 9.0625 
Q 20.90625 20.125 20.90625 31.390625 
Q 20.90625 42.671875 17.703125 53.65625 
Q 14.5 64.65625 8.015625 75.875 
z
" id="DejaVuSans-29"/>
     </defs>
     <g transform="translate(215.677188 335.860562)scale(0.1 -0.1)">
      <use xlink:href="#DejaVuSans-54"/>
      <use x="61.037109" xlink:href="#DejaVuSans-69"/>
      <use x="88.820312" xlink:href="#DejaVuSans-6d"/>
      <use x="186.232422" xlink:href="#DejaVuSans-65"/>
      <use x="247.755859" xlink:href="#DejaVuSans-20"/>
      <use x="279.542969" xlink:href="#DejaVuSans-28"/>
      <use x="318.556641" xlink:href="#DejaVuSans-73"/>
      <use x="370.65625" xlink:href="#DejaVuSans-29"/>
     </g>
    </g>
   </g>
   <g id="matplotlib.axis_2">
    <g id="ytick_1">
     <g id="line2d_10">
      <defs>
       <path d="M 0 0 
L -3.5 0 
" id="m159b6a4b96" style="stroke:#000000;stroke-width:0.8;"/>
      </defs>
      <g>
       <use style="stroke:#000000;stroke-width:0.8;" x="57.6" xlink:href="#m159b6a4b96" y="288.576"/>
      </g>
     </g>
     <g id="text_11">
      <!-- −60 -->
      <defs>
       <path d="M 10.59375 35.5 
L 73.1875 35.5 
L 73.1875 27.203125 
L 10.59375 27.203125 
z
" id="DejaVuSans-2212"/>
      </defs>
      <g transform="translate(29.495313 292.375219)scale(0.1 -0.1)">
       <use xlink:href="#DejaVuSans-2212"/>
       <use x="83.789062" xlink:href="#DejaVuSans-36"/>
       <use x="147.412109" xlink:href="#DejaVuSans-30"/>
      </g>
     </g>
    </g>
    <g id="ytick_2">
     <g id="line2d_11">
      <g>
       <use style="stroke:#000000;stroke-width:0.8;" x="57.6" xlink:href="#m159b6a4b96" y="250.56"/>
      </g>
     </g>
     <g id="text_12">
      <!-- −40 -->
      <g transform="translate(29.495313 254.359219)scale(0.1 -0.1)">
       <use xlink:href="#DejaVuSans-2212"/>
       <use x="83.789062" xlink:href="#DejaVuSans-34"/>
       <use x="147.412109" xlink:href="#DejaVuSans-30"/>
      </g>
     </g>
    </g>
    <g id="ytick_3">
     <g id="line2d_12">
      <g>
       <use style="stroke:#000000;stroke-width:0.8;" x="57.6" xlink:href="#m159b6a4b96" y="212.544"/>
      </g>
     </g>
     <g id="text_13">
      <!-- −20 -->
      <g transform="translate(29.495313 216.343219)scale(0.1 -0.1)">
       <use xlink:href="#DejaVuSans-2212"/>
       <use x="83.789062" xlink:href="#DejaVuSans-32"/>
       <use x="147.412109" xlink:href="#DejaVuSans-30"/>
      </g>
     </g>
    </g>
    <g id="ytick_4">
     <g id="line2d_13">
      <g>
       <use style="stroke:#000000;stroke-width:0.8;" x="57.6" xlink:href="#m159b6a4b96" y="174.528"/>
      </g>
     </g>
     <g id="text_14">
      <!-- 0 -->
      <g transform="translate(44.2375 178.327219)scale(0.1 -0.1)">
       <use xlink:href="#DejaVuSans-30"/>
      </g>
     </g>
    </g>
    <g id="ytick_5">
     <g id="line2d_14">
      <g>
       <use style="stroke:#000000;stroke-width:0.8;" x="57.6" xlink:href="#m159b6a4b96" y="136.512"/>
      </g>
     </g>
     <g id="text_15">
      <!-- 20 -->
      <g transform="translate(37.875 140.311219)scale(0.1 -0.1)">
       <use xlink:href="#DejaVuSans-32"/>
       <use x="63.623047" xlink:href="#DejaVuSans-30"/>
      </g>
     </g>
    </g>
    <g id="ytick_6">
     <g id="line2d_15">
      <g>
       <use style="stroke:#000000;stroke-width:0.8;" x="57.6" xlink:href="#m159b6a4b96" y="98.496"/>
      </g>
     </g>
     <g id="text_16">
      <!-- 40 -->
      <g transform="translate(37.875 102.295219)scale(0.1 -0.1)">
       <use xlink:href="#DejaVuSans-34"/>
       <use x="63.623047" xlink:href="#DejaVuSans-30"/>
      </g>
     </g>
    </g>
    <g id="ytick_7">
     <g id="line2d_16">
      <g>
       <use style="stroke:#000000;stroke-width:0.8;" x="57.6" xlink:href="#m159b6a4b96" y="60.48"/>
      </g>
     </g>
     <g id="text_17">
      <!-- 60 -->
      <g transform="translate(37.875 64.279219)scale(0.1 -0.1)">
       <use xlink:href="#DejaVuSans-36"/>
       <use x="63.623047" xlink:href="#DejaVuSans-30"/>
      </g>
     </g>
    </g>
    <g id="text_18">
     <!-- Voltage ($\mu$V) -->
     <defs>
      <path d="M 28.609375 0 
L 0.78125 72.90625 
L 11.078125 72.90625 
L 34.1875 11.53125 
L 57.328125 72.90625 
L 67.578125 72.90625 
L 39.796875 0 
z
" id="DejaVuSans-56"/>
      <path d="M 30.609375 48.390625 
Q 23.390625 48.390625 19.1875 42.75 
Q 14.984375 37.109375 14.984375 27.296875 
Q 14.984375 17.484375 19.15625 11.84375 
Q 23.34375 6.203125 30.609375 6.203125 
Q 37.796875 6.203125 41.984375 11.859375 
Q 46.1875 17.53125 46.1875 27.296875 
Q 46.1875 37.015625 41.984375 42.703125 
Q 37.796875 48.390625 30.609375 48.390625 
z
M 30.609375 56 
Q 42.328125 56 49.015625 48.375 
Q 55.71875 40.765625 55.71875 27.296875 
Q 55.71875 13.875 49.015625 6.21875 
Q 42.328125 -1.421875 30.609375 -1.421875 
Q 18.84375 -1.421875 12.171875 6.21875 
Q 5.515625 13.875 5.515625 27.296875 
Q 5.515625 40.765625 12.171875 48.375 
Q 18.84375 56 30.609375 56 
z
" id="DejaVuSans-6f"/>
      <path d="M 9.421875 75.984375 
L 18.40625 75.984375 
L 18.40625 0 
L 9.421875 0 
z
" id="DejaVuSans-6c"/>
      <path d="M 18.3125 70.21875 
L 18.3125 54.6875 
L 36.8125 54.6875 
L 36.8125 47.703125 
L 18.3125 47.703125 
L 18.3125 18.015625 
Q 18.3125 11.328125 20.140625 9.421875 
Q 21.96875 7.515625 27.59375 7.515625 
L 36.8125 7.515625 
L 36.8125 0 
L 27.59375 0 
Q 17.1875 0 13.234375 3.875 
Q 9.28125 7.765625 9.28125 18.015625 
L 9.28125 47.703125 
L 2.6875 47.703125 
L 2.6875 54.6875 
L 9.28125 54.6875 
L 9.28125 70.21875 
z
" id="DejaVuSans-74"/>
      <path d="M 34.28125 27.484375 
Q 23.390625 27.484375 19.1875 25 
Q 14.984375 22.515625 14.984375 16.5 
Q 14.984375 11.71875 18.140625 8.90625 
Q 21.296875 6.109375 26.703125 6.109375 
Q 34.1875 6.109375 38.703125 11.40625 
Q 43.21875 16.703125 43.21875 25.484375 
L 43.21875 27.484375 
z
M 52.203125 31.203125 
L 52.203125 0 
L 43.21875 0 
L 43.21875 8.296875 
Q 40.140625 3.328125 35.546875 0.953125 
Q 30.953125 -1.421875 24.3125 -1.421875 
Q 15.921875 -1.421875 10.953125 3.296875 
Q 6 8.015625 6 15.921875 
Q 6 25.140625 12.171875 29.828125 
Q 18.359375 34.515625 30.609375 34.515625 
L 43.21875 34.515625 
L 43.21875 35.40625 
Q 43.21875 41.609375 39.140625 45 
Q 35.0625 48.390625 27.6875 48.390625 
Q 23 48.390625 18.546875 47.265625 
Q 14.109375 46.140625 10.015625 43.890625 
L 10.015625 52.203125 
Q 14.9375 54.109375 19.578125 55.046875 
Q 24.21875 56 28.609375 56 
Q 40.484375 56 46.34375 49.84375 
Q 52.203125 43.703125 52.203125 31.203125 
z
" id="DejaVuSans-61"/>
      <path d="M 45.40625 27.984375 
Q 45.40625 37.75 41.375 43.109375 
Q 37.359375 48.484375 30.078125 48.484375 
Q 22.859375 48.484375 18.828125 43.109375 
Q 14.796875 37.75 14.796875 27.984375 
Q 14.796875 18.265625 18.828125 12.890625 
Q 22.859375 7.515625 30.078125 7.515625 
Q 37.359375 7.515625 41.375 12.890625 
Q 45.40625 18.265625 45.40625 27.984375 
z
M 54.390625 6.78125 
Q 54.390625 -7.171875 48.1875 -13.984375 
Q 42 -20.796875 29.203125 -20.796875 
Q 24.46875 -20.796875 20.265625 -20.09375 
Q 16.0625 -19.390625 12.109375 -17.921875 
L 12.109375 -9.1875 
Q 16.0625 -11.328125 19.921875 -12.34375 
Q 23.78125 -13.375 27.78125 -13.375 
Q 36.625 -13.375 41.015625 -8.765625 
Q 45.40625 -4.15625 45.40625 5.171875 
L 45.40625 9.625 
Q 42.625 4.78125 38.28125 2.390625 
Q 33.9375 0 27.875 0 
Q 17.828125 0 11.671875 7.65625 
Q 5.515625 15.328125 5.515625 27.984375 
Q 5.515625 40.671875 11.671875 48.328125 
Q 17.828125 56 27.875 56 
Q 33.9375 56 38.28125 53.609375 
Q 42.625 51.21875 45.40625 46.390625 
L 45.40625 54.6875 
L 54.390625 54.6875 
z
" id="DejaVuSans-67"/>
      <path d="M -1.3125 -20.796875 
L 13.375 54.6875 
L 22.40625 54.6875 
L 15.765625 20.65625 
Q 15.578125 19.625 15.421875 18.359375 
Q 15.28125 17.09375 15.28125 15.828125 
Q 15.28125 11.28125 18.140625 8.828125 
Q 21 6.390625 26.3125 6.390625 
Q 33.546875 6.390625 37.984375 10.484375 
Q 42.4375 14.59375 44 22.796875 
L 50.203125 54.6875 
L 59.1875 54.6875 
L 51.03125 12.640625 
Q 50.828125 11.71875 50.75 11.03125 
Q 50.6875 10.359375 50.6875 9.8125 
Q 50.6875 8.296875 51.296875 7.59375 
Q 51.90625 6.890625 53.21875 6.890625 
Q 53.71875 6.890625 54.5625 7.125 
Q 55.421875 7.375 56.984375 8.015625 
L 55.609375 0.78125 
Q 53.46875 -0.296875 51.515625 -0.859375 
Q 49.5625 -1.421875 47.703125 -1.421875 
Q 44.484375 -1.421875 42.65625 0.625 
Q 40.828125 2.6875 40.828125 6.296875 
Q 38.09375 2.390625 34.296875 0.484375 
Q 30.515625 -1.421875 25.390625 -1.421875 
Q 20.84375 -1.421875 17.453125 0.671875 
Q 14.0625 2.78125 12.984375 6.203125 
L 7.71875 -20.796875 
z
" id="DejaVuSans-Oblique-3bc"/>
     </defs>
     <g transform="translate(23.395312 205.778)rotate(-90)scale(0.1 -0.1)">
      <use transform="translate(0 0.015625)" xlink:href="#DejaVuSans-56"/>
      <use transform="translate(68.408203 0.015625)" xlink:href="#DejaVuSans-6f"/>
      <use transform="translate(129.589844 0.015625)" xlink:href="#DejaVuSans-6c"/>
      <use transform="translate(157.373047 0.015625)" xlink:href="#DejaVuSans-74"/>
      <use transform="translate(196.582031 0.015625)" xlink:href="#DejaVuSans-61"/>
      <use transform="translate(257.861328 0.015625)" xlink:href="#DejaVuSans-67"/>
      <use transform="translate(321.337891 0.015625)" xlink:href="#DejaVuSans-65"/>
      <use transform="translate(382.861328 0.015625)" xlink:href="#DejaVuSans-20"/>
      <use transform="translate(414.648438 0.015625)" xlink:href="#DejaVuSans-28"/>
      <use transform="translate(453.662109 0.015625)" xlink:href="#DejaVuSans-Oblique-3bc"/>
      <use transform="translate(517.285156 0.015625)" xlink:href="#DejaVuSans-56"/>
      <use transform="translate(585.693359 0.015625)" xlink:href="#DejaVuSans-29"/>
     </g>
    </g>
   </g>
   <g id="line2d_17">
    <path clip-path="url(#p1e54fb1dd8)" d="M 73.832727 173.465902 
L 84.305455 172.819604 
L 94.778182 171.788498 
L 105.250909 169.725639 
L 115.723636 167.327041 
L 126.196364 168.150893 
L 136.669091 177.214559 
L 147.141818 197.96582 
L 157.614545 229.782913 
L 168.087273 266.396557 
L 178.56 288.677367 
L 189.032727 292.832785 
L 199.505455 293.009693 
L 209.978182 288.911093 
L 220.450909 271.310615 
L 230.923636 244.409517 
L 241.396364 219.083811 
L 251.869091 196.05598 
L 262.341818 174.980602 
L 272.814545 155.785363 
L 283.287273 138.486404 
L 293.76 123.450457 
L 304.232727 111.055872 
L 314.705455 101.150276 
L 325.178182 93.10093 
L 335.650909 86.768374 
L 346.123636 81.71098 
L 356.596364 77.788643 
L 367.069091 74.897413 
L 377.541818 73.250354 
L 388.014545 72.976598 
L 398.487273 73.610628 
" style="fill:none;stroke:#000000;stroke-linecap:square;stroke-width:1.5;"/>
   </g>
   <g id="line2d_18">
    <path clip-path="url(#p1e54fb1dd8)" d="M 73.832727 175.3596 
L 84.305455 173.5776 
L 94.778182 163.7172 
L 105.250909 148.8078 
L 115.723636 139.2444 
L 126.196364 143.1648 
L 136.669091 161.4006 
L 147.141818 192.942 
L 157.614545 237.0168 
L 168.087273 284.0616 
L 178.56 296.1792 
L 189.032727 296.1792 
L 199.505455 296.1792 
L 209.978182 294.9912 
L 220.450909 273.4884 
L 230.923636 247.5306 
L 241.396364 222.939 
L 251.869091 203.7528 
L 262.341818 186.2298 
L 272.814545 166.2714 
L 283.287273 146.6694 
L 293.76 133.1856 
L 304.232727 125.2854 
L 314.705455 116.9694 
L 325.178182 104.733 
L 335.650909 91.6056 
L 346.123636 83.2302 
L 356.596364 79.3098 
L 367.069091 74.9736 
L 377.541818 70.8156 
L 388.014545 70.6374 
L 398.487273 72.657 
" style="fill:none;stroke:#ff0000;stroke-linecap:square;stroke-width:1.5;"/>
   </g>
   <g id="line2d_19">
    <path clip-path="url(#p1e54fb1dd8)" d="M 73.832727 195.7932 
L 84.305455 188.9028 
L 94.778182 176.31 
L 105.250909 165.6774 
L 115.723636 161.757 
L 126.196364 166.806 
L 136.669091 181.4778 
L 147.141818 205.0596 
L 157.614545 235.9476 
L 168.087273 267.8454 
L 178.56 291.9024 
L 189.032727 296.1792 
L 199.505455 296.1792 
L 209.978182 278.478 
L 220.450909 245.3328 
L 230.923636 212.4846 
L 241.396364 186.8832 
L 251.869091 167.7564 
L 262.341818 152.3124 
L 272.814545 139.185 
L 283.287273 128.8494 
L 293.76 122.256 
L 304.232727 117.6822 
L 314.705455 109.8414 
L 325.178182 95.526 
L 335.650909 76.9932 
L 346.123636 64.5192 
L 356.596364 66.7764 
L 367.069091 78.4782 
L 377.541818 85.0716 
L 388.014545 80.676 
L 398.487273 74.3202 
" style="fill:none;stroke:#ff1e00;stroke-linecap:square;stroke-width:1.5;"/>
   </g>
   <g id="line2d_20">
    <path clip-path="url(#p1e54fb1dd8)" d="M 73.832727 170.5482 
L 84.305455 173.8152 
L 94.778182 175.5972 
L 105.250909 173.8152 
L 115.723636 171.6174 
L 126.196364 172.6866 
L 136.669091 182.9034 
L 147.141818 208.3266 
L 157.614545 244.0854 
L 168.087273 278.5968 
L 178.56 296.1792 
L 189.032727 296.1792 
L 199.505455 296.1792 
L 209.978182 296.1792 
L 220.450909 280.3788 
L 230.923636 247.9464 
L 241.396364 218.6028 
L 251.869091 189.0216 
L 262.341818 160.866 
L 272.814545 141.264 
L 283.287273 129.7404 
L 293.76 121.4244 
L 304.232727 114.4746 
L 314.705455 107.8812 
L 325.178182 99.9216 
L 335.650909 92.1996 
L 346.123636 85.8438 
L 356.596364 78.4782 
L 367.069091 70.9344 
L 377.541818 68.6178 
L 388.014545 70.5186 
L 398.487273 69.7464 
" style="fill:none;stroke:#ff3b00;stroke-linecap:square;stroke-width:1.5;"/>
   </g>
   <g id="line2d_21">
    <path clip-path="url(#p1e54fb1dd8)" d="M 73.832727 173.7558 
L 84.305455 168.8256 
L 94.778182 168.5286 
L 105.250909 173.8746 
L 115.723636 180.765 
L 126.196364 186.5268 
L 136.669091 194.0706 
L 147.141818 208.6236 
L 157.614545 233.928 
L 168.087273 270.162 
L 178.56 296.1792 
L 189.032727 296.1792 
L 199.505455 296.1792 
L 209.978182 296.1792 
L 220.450909 287.8038 
L 230.923636 261.4302 
L 241.396364 234.6408 
L 251.869091 208.4454 
L 262.341818 184.8042 
L 272.814545 165.3804 
L 283.287273 149.58 
L 293.76 134.3142 
L 304.232727 116.613 
L 314.705455 98.9118 
L 325.178182 87.0912 
L 335.650909 83.4678 
L 346.123636 83.2302 
L 356.596364 79.488 
L 367.069091 72.7164 
L 377.541818 68.4396 
L 388.014545 68.3802 
L 398.487273 72.4194 
" style="fill:none;stroke:#ff5900;stroke-linecap:square;stroke-width:1.5;"/>
   </g>
   <g id="line2d_22">
    <path clip-path="url(#p1e54fb1dd8)" d="M 73.832727 174.528 
L 84.305455 178.6266 
L 94.778182 178.389 
L 105.250909 173.9934 
L 115.723636 169.5384 
L 126.196364 168.7662 
L 136.669091 173.637 
L 147.141818 187.8336 
L 157.614545 215.3358 
L 168.087273 253.233 
L 178.56 290.2986 
L 189.032727 296.1792 
L 199.505455 296.1792 
L 209.978182 296.1792 
L 220.450909 282.8142 
L 230.923636 259.5294 
L 241.396364 234.7002 
L 251.869091 206.7822 
L 262.341818 181.0026 
L 272.814545 163.8954 
L 283.287273 154.035 
L 293.76 144.1152 
L 304.232727 130.9878 
L 314.705455 120.8304 
L 325.178182 117.6822 
L 335.650909 115.3062 
L 346.123636 106.6338 
L 356.596364 93.3282 
L 367.069091 80.2008 
L 377.541818 71.2314 
L 388.014545 69.1524 
L 398.487273 73.4886 
" style="fill:none;stroke:#ff7600;stroke-linecap:square;stroke-width:1.5;"/>
   </g>
   <g id="line2d_23">
    <path clip-path="url(#p1e54fb1dd8)" d="M 73.832727 177.8544 
L 84.305455 180.0522 
L 94.778182 185.6952 
L 105.250909 189.378 
L 115.723636 185.7546 
L 126.196364 180.1116 
L 136.669091 183.7944 
L 147.141818 199.4166 
L 157.614545 222.5232 
L 168.087273 251.3322 
L 178.56 282.9924 
L 189.032727 296.1792 
L 199.505455 296.1792 
L 209.978182 296.1792 
L 220.450909 280.9728 
L 230.923636 243.2538 
L 241.396364 215.0982 
L 251.869091 195.5556 
L 262.341818 175.122 
L 272.814545 152.55 
L 283.287273 134.9082 
L 293.76 127.1862 
L 304.232727 125.4636 
L 314.705455 120.1176 
L 325.178182 106.8714 
L 335.650909 93.6252 
L 346.123636 89.4078 
L 356.596364 91.4274 
L 367.069091 87.7446 
L 377.541818 75.8646 
L 388.014545 65.6478 
L 398.487273 61.9056 
" style="fill:none;stroke:#ff9400;stroke-linecap:square;stroke-width:1.5;"/>
   </g>
   <g id="line2d_24">
    <path clip-path="url(#p1e54fb1dd8)" d="M 73.832727 186.2298 
L 84.305455 183.5568 
L 94.778182 178.389 
L 105.250909 175.419 
L 115.723636 175.419 
L 126.196364 178.1514 
L 136.669091 185.0418 
L 147.141818 200.4264 
L 157.614545 226.3842 
L 168.087273 258.6384 
L 178.56 290.1798 
L 189.032727 296.1792 
L 199.505455 296.1792 
L 209.978182 296.1792 
L 220.450909 296.1792 
L 230.923636 273.7854 
L 241.396364 251.8074 
L 251.869091 230.4234 
L 262.341818 206.9604 
L 272.814545 181.2996 
L 283.287273 156.5298 
L 293.76 137.8188 
L 304.232727 127.3644 
L 314.705455 121.1274 
L 325.178182 114.9498 
L 335.650909 108.4158 
L 346.123636 98.9118 
L 356.596364 85.725 
L 367.069091 73.7262 
L 377.541818 68.2614 
L 388.014545 69.39 
L 398.487273 71.766 
" style="fill:none;stroke:#ffb100;stroke-linecap:square;stroke-width:1.5;"/>
   </g>
   <g id="line2d_25">
    <path clip-path="url(#p1e54fb1dd8)" d="M 73.832727 158.2524 
L 84.305455 166.806 
L 94.778182 169.5384 
L 105.250909 163.1232 
L 115.723636 154.5102 
L 126.196364 154.2132 
L 136.669091 170.8452 
L 147.141818 203.04 
L 157.614545 240.165 
L 168.087273 272.241 
L 178.56 296.1792 
L 189.032727 296.1792 
L 199.505455 296.1792 
L 209.978182 296.1792 
L 220.450909 272.1816 
L 230.923636 249.0156 
L 241.396364 229.5918 
L 251.869091 208.7424 
L 262.341818 182.7252 
L 272.814545 154.5696 
L 283.287273 133.1856 
L 293.76 122.9094 
L 304.232727 118.2168 
L 314.705455 110.7918 
L 325.178182 100.2186 
L 335.650909 92.556 
L 346.123636 92.1402 
L 356.596364 97.308 
L 367.069091 101.8818 
L 377.541818 97.6644 
L 388.014545 82.2204 
L 398.487273 64.4598 
" style="fill:none;stroke:#ffcf00;stroke-linecap:square;stroke-width:1.5;"/>
   </g>
   <g id="line2d_26">
    <path clip-path="url(#p1e54fb1dd8)" d="M 73.832727 174.825 
L 84.305455 177.7356 
L 94.778182 180.765 
L 105.250909 178.2702 
L 115.723636 172.152 
L 126.196364 172.5084 
L 136.669091 183.9726 
L 147.141818 204.822 
L 157.614545 233.037 
L 168.087273 265.707 
L 178.56 296.1792 
L 189.032727 296.1792 
L 199.505455 296.1792 
L 209.978182 295.0506 
L 220.450909 268.38 
L 230.923636 243.729 
L 241.396364 223.1766 
L 251.869091 204.0498 
L 262.341818 184.2102 
L 272.814545 163.3608 
L 283.287273 143.64 
L 293.76 128.6118 
L 304.232727 118.2168 
L 314.705455 109.6632 
L 325.178182 100.5156 
L 335.650909 92.3184 
L 346.123636 89.0514 
L 356.596364 89.7642 
L 367.069091 88.5762 
L 377.541818 84.2994 
L 388.014545 82.2798 
L 398.487273 83.5272 
" style="fill:none;stroke:#ffec00;stroke-linecap:square;stroke-width:1.5;"/>
   </g>
   <g id="line2d_27">
    <path clip-path="url(#p1e54fb1dd8)" d="M 73.832727 183.6162 
L 84.305455 180.2304 
L 94.778182 172.0332 
L 105.250909 161.3412 
L 115.723636 152.253 
L 126.196364 148.9266 
L 136.669091 156.5298 
L 147.141818 178.9236 
L 157.614545 212.9598 
L 168.087273 247.9464 
L 178.56 274.7358 
L 189.032727 293.0904 
L 199.505455 296.1792 
L 209.978182 296.1792 
L 220.450909 292.5558 
L 230.923636 271.35 
L 241.396364 246.5208 
L 251.869091 222.048 
L 262.341818 198.7038 
L 272.814545 175.0626 
L 283.287273 153.5598 
L 293.76 137.9376 
L 304.232727 127.899 
L 314.705455 118.8108 
L 325.178182 105.7428 
L 335.650909 90.9522 
L 346.123636 80.2602 
L 356.596364 73.7262 
L 367.069091 68.1426 
L 377.541818 63.6876 
L 388.014545 63.3906 
L 398.487273 68.2614 
" style="fill:none;stroke:#eeff00;stroke-linecap:square;stroke-width:1.5;"/>
   </g>
   <g id="line2d_28">
    <path clip-path="url(#p1e54fb1dd8)" d="M 73.832727 163.4796 
L 84.305455 169.8354 
L 94.778182 173.5182 
L 105.250909 168.3504 
L 115.723636 158.193 
L 126.196364 154.035 
L 136.669091 163.0044 
L 147.141818 184.9824 
L 157.614545 214.0884 
L 168.087273 242.4816 
L 178.56 265.8852 
L 189.032727 282.8142 
L 199.505455 291.9024 
L 209.978182 290.5956 
L 220.450909 276.696 
L 230.923636 256.1436 
L 241.396364 237.3138 
L 251.869091 221.157 
L 262.341818 203.5152 
L 272.814545 181.4184 
L 283.287273 156.2328 
L 293.76 134.433 
L 304.232727 120.474 
L 314.705455 111.0888 
L 325.178182 101.1096 
L 335.650909 93.8628 
L 346.123636 93.447 
L 356.596364 93.744 
L 367.069091 87.507 
L 377.541818 79.8444 
L 388.014545 80.082 
L 398.487273 84.834 
" style="fill:none;stroke:#d1ff00;stroke-linecap:square;stroke-width:1.5;"/>
   </g>
   <g id="line2d_29">
    <path clip-path="url(#p1e54fb1dd8)" d="M 73.832727 172.449 
L 84.305455 168.4692 
L 94.778182 163.3014 
L 105.250909 160.272 
L 115.723636 162.945 
L 126.196364 173.1618 
L 136.669091 188.7246 
L 147.141818 208.0296 
L 157.614545 233.3934 
L 168.087273 264.9348 
L 178.56 293.0904 
L 189.032727 296.1792 
L 199.505455 296.1792 
L 209.978182 281.9826 
L 220.450909 260.5986 
L 230.923636 239.2146 
L 241.396364 220.1472 
L 251.869091 203.2776 
L 262.341818 184.923 
L 272.814545 162.945 
L 283.287273 137.997 
L 293.76 113.1678 
L 304.232727 95.8824 
L 314.705455 88.9326 
L 325.178182 87.0318 
L 335.650909 85.6062 
L 346.123636 81.6264 
L 356.596364 74.8548 
L 367.069091 68.9148 
L 377.541818 67.014 
L 388.014545 69.5088 
L 398.487273 72.954 
" style="fill:none;stroke:#b3ff00;stroke-linecap:square;stroke-width:1.5;"/>
   </g>
   <g id="line2d_30">
    <path clip-path="url(#p1e54fb1dd8)" d="M 73.832727 184.2102 
L 84.305455 178.6266 
L 94.778182 173.6964 
L 105.250909 172.2708 
L 115.723636 174.825 
L 126.196364 180.2898 
L 136.669091 187.9524 
L 147.141818 200.3076 
L 157.614545 219.1374 
L 168.087273 243.0756 
L 178.56 268.6176 
L 189.032727 288.1602 
L 199.505455 294.6942 
L 209.978182 287.1504 
L 220.450909 268.9146 
L 230.923636 244.3824 
L 241.396364 219.3156 
L 251.869091 196.8624 
L 262.341818 178.8642 
L 272.814545 167.697 
L 283.287273 160.272 
L 293.76 150.471 
L 304.232727 137.3436 
L 314.705455 123.0876 
L 325.178182 110.4948 
L 335.650909 101.169 
L 346.123636 93.2094 
L 356.596364 85.1904 
L 367.069091 79.6068 
L 377.541818 77.1714 
L 388.014545 74.2608 
L 398.487273 70.5186 
" style="fill:none;stroke:#96ff00;stroke-linecap:square;stroke-width:1.5;"/>
   </g>
   <g id="line2d_31">
    <path clip-path="url(#p1e54fb1dd8)" d="M 73.832727 185.814 
L 84.305455 185.7546 
L 94.778182 185.7546 
L 105.250909 183.2598 
L 115.723636 178.1514 
L 126.196364 174.7656 
L 136.669091 178.3296 
L 147.141818 192.1104 
L 157.614545 215.6328 
L 168.087273 243.9666 
L 178.56 270.2808 
L 189.032727 287.1504 
L 199.505455 289.1106 
L 209.978182 276.993 
L 220.450909 256.5 
L 230.923636 234.3438 
L 241.396364 215.3952 
L 251.869091 197.991 
L 262.341818 178.7454 
L 272.814545 159.7968 
L 283.287273 143.8182 
L 293.76 130.7502 
L 304.232727 118.9296 
L 314.705455 108.7128 
L 325.178182 103.1886 
L 335.650909 103.7826 
L 346.123636 105.2082 
L 356.596364 99.981 
L 367.069091 88.0416 
L 377.541818 78.0624 
L 388.014545 77.1714 
L 398.487273 79.5474 
" style="fill:none;stroke:#78ff00;stroke-linecap:square;stroke-width:1.5;"/>
   </g>
   <g id="line2d_32">
    <path clip-path="url(#p1e54fb1dd8)" d="M 73.832727 185.1606 
L 84.305455 175.5972 
L 94.778182 166.6278 
L 105.250909 164.6082 
L 115.723636 168.9444 
L 126.196364 177.1416 
L 136.669091 189.5562 
L 147.141818 209.871 
L 157.614545 239.5116 
L 168.087273 272.3598 
L 178.56 296.1792 
L 189.032727 296.1792 
L 199.505455 290.8926 
L 209.978182 266.3604 
L 220.450909 241.2342 
L 230.923636 216.9396 
L 241.396364 195.0804 
L 251.869091 178.4484 
L 262.341818 166.3902 
L 272.814545 155.6388 
L 283.287273 141.6798 
L 293.76 121.4244 
L 304.232727 99.4464 
L 314.705455 86.6754 
L 325.178182 85.725 
L 335.650909 89.0514 
L 346.123636 88.992 
L 356.596364 85.9626 
L 367.069091 83.943 
L 377.541818 83.7648 
L 388.014545 84.2994 
L 398.487273 82.6956 
" style="fill:none;stroke:#5bff00;stroke-linecap:square;stroke-width:1.5;"/>
   </g>
   <g id="line2d_33">
    <path clip-path="url(#p1e54fb1dd8)" d="M 73.832727 174.825 
L 84.305455 167.1624 
L 94.778182 162.8262 
L 105.250909 160.6284 
L 115.723636 157.9554 
L 126.196364 159.0246 
L 136.669091 172.0332 
L 147.141818 199.2978 
L 157.614545 237.195 
L 168.087273 279.7848 
L 178.56 296.1792 
L 189.032727 296.1792 
L 199.505455 296.1792 
L 209.978182 296.1792 
L 220.450909 287.9226 
L 230.923636 254.1834 
L 241.396364 222.7014 
L 251.869091 193.4172 
L 262.341818 169.1226 
L 272.814545 151.4214 
L 283.287273 136.0962 
L 293.76 121.2462 
L 304.232727 111.0888 
L 314.705455 106.2774 
L 325.178182 99.6246 
L 335.650909 86.1408 
L 346.123636 71.172 
L 356.596364 62.6184 
L 367.069091 62.9748 
L 377.541818 69.093 
L 388.014545 74.3202 
L 398.487273 71.7066 
" style="fill:none;stroke:#3dff00;stroke-linecap:square;stroke-width:1.5;"/>
   </g>
   <g id="line2d_34">
    <path clip-path="url(#p1e54fb1dd8)" d="M 73.832727 179.1018 
L 84.305455 177.0822 
L 94.778182 174.231 
L 105.250909 173.1024 
L 115.723636 172.2708 
L 126.196364 172.0332 
L 136.669091 178.6266 
L 147.141818 200.4264 
L 157.614545 239.7492 
L 168.087273 286.2594 
L 178.56 296.1792 
L 189.032727 296.1792 
L 199.505455 296.1792 
L 209.978182 296.1792 
L 220.450909 273.0726 
L 230.923636 246.7584 
L 241.396364 217.7118 
L 251.869091 186.111 
L 262.341818 160.1532 
L 272.814545 145.719 
L 283.287273 136.9278 
L 293.76 124.2756 
L 304.232727 106.0398 
L 314.705455 89.9424 
L 325.178182 82.9332 
L 335.650909 82.5174 
L 346.123636 80.676 
L 356.596364 74.736 
L 367.069091 70.1622 
L 377.541818 69.4494 
L 388.014545 67.7268 
L 398.487273 61.0146 
" style="fill:none;stroke:#20ff00;stroke-linecap:square;stroke-width:1.5;"/>
   </g>
   <g id="line2d_35">
    <path clip-path="url(#p1e54fb1dd8)" d="M 73.832727 165.0834 
L 84.305455 162.351 
L 94.778182 163.5984 
L 105.250909 163.0044 
L 115.723636 158.787 
L 126.196364 156.8268 
L 136.669091 163.7172 
L 147.141818 182.844 
L 157.614545 214.7418 
L 168.087273 256.3218 
L 178.56 296.1792 
L 189.032727 296.1792 
L 199.505455 296.1792 
L 209.978182 296.1792 
L 220.450909 264.2814 
L 230.923636 235.8882 
L 241.396364 217.2366 
L 251.869091 202.0302 
L 262.341818 182.4876 
L 272.814545 157.4802 
L 283.287273 131.2254 
L 293.76 108.9504 
L 304.232727 95.2884 
L 314.705455 90.3582 
L 325.178182 89.1108 
L 335.650909 88.6356 
L 346.123636 89.1702 
L 356.596364 88.8138 
L 367.069091 85.0122 
L 377.541818 79.5474 
L 388.014545 75.5676 
L 398.487273 75.033 
" style="fill:none;stroke:#04ff08;stroke-linecap:square;stroke-width:1.5;"/>
   </g>
   <g id="line2d_36">
    <path clip-path="url(#p1e54fb1dd8)" d="M 73.832727 178.8048 
L 84.305455 180.468 
L 94.778182 179.577 
L 105.250909 172.2708 
L 115.723636 160.569 
L 126.196364 154.2726 
L 136.669091 163.3014 
L 147.141818 188.9622 
L 157.614545 224.8992 
L 168.087273 265.2912 
L 178.56 296.1792 
L 189.032727 296.1792 
L 199.505455 296.1792 
L 209.978182 296.1792 
L 220.450909 272.3598 
L 230.923636 239.1552 
L 241.396364 209.2176 
L 251.869091 182.844 
L 262.341818 163.4796 
L 272.814545 151.4808 
L 283.287273 142.0956 
L 293.76 131.463 
L 304.232727 119.0484 
L 314.705455 106.1586 
L 325.178182 95.1102 
L 335.650909 87.6852 
L 346.123636 83.7054 
L 356.596364 81.864 
L 367.069091 80.676 
L 377.541818 79.0722 
L 388.014545 76.518 
L 398.487273 73.1322 
" style="fill:none;stroke:#00ff21;stroke-linecap:square;stroke-width:1.5;"/>
   </g>
   <g id="line2d_37">
    <path clip-path="url(#p1e54fb1dd8)" d="M 73.832727 164.3112 
L 84.305455 160.1532 
L 94.778182 152.3718 
L 105.250909 146.5506 
L 115.723636 149.58 
L 126.196364 163.0044 
L 136.669091 182.844 
L 147.141818 201.6144 
L 157.614545 216.2268 
L 168.087273 232.3836 
L 178.56 254.0646 
L 189.032727 272.5974 
L 199.505455 276.5178 
L 209.978182 266.9544 
L 220.450909 252.5202 
L 230.923636 234.9972 
L 241.396364 209.3364 
L 251.869091 178.2702 
L 262.341818 154.5696 
L 272.814545 143.64 
L 283.287273 140.6106 
L 293.76 139.185 
L 304.232727 136.2744 
L 314.705455 130.8096 
L 325.178182 122.3748 
L 335.650909 111.3858 
L 346.123636 100.1592 
L 356.596364 92.7342 
L 367.069091 92.0214 
L 377.541818 97.4862 
L 388.014545 105.921 
L 398.487273 114.3558 
" style="fill:none;stroke:#00ff3f;stroke-linecap:square;stroke-width:1.5;"/>
   </g>
   <g id="line2d_38">
    <path clip-path="url(#p1e54fb1dd8)" d="M 73.832727 166.806 
L 84.305455 167.1624 
L 94.778182 171.2016 
L 105.250909 175.5378 
L 115.723636 175.0032 
L 126.196364 170.964 
L 136.669091 172.0332 
L 147.141818 186.4674 
L 157.614545 217.8306 
L 168.087273 261.1332 
L 178.56 296.1792 
L 189.032727 296.1792 
L 199.505455 296.1792 
L 209.978182 296.1792 
L 220.450909 284.8338 
L 230.923636 257.5692 
L 241.396364 229.5918 
L 251.869091 199.9512 
L 262.341818 173.1618 
L 272.814545 153.144 
L 283.287273 136.0962 
L 293.76 117.9792 
L 304.232727 99.3276 
L 314.705455 85.725 
L 325.178182 81.9234 
L 335.650909 85.4874 
L 346.123636 87.9228 
L 356.596364 83.7054 
L 367.069091 75.33 
L 377.541818 69.0336 
L 388.014545 70.1622 
L 398.487273 81.0324 
" style="fill:none;stroke:#00ff5c;stroke-linecap:square;stroke-width:1.5;"/>
   </g>
   <g id="line2d_39">
    <path clip-path="url(#p1e54fb1dd8)" d="M 73.832727 172.0332 
L 84.305455 161.9352 
L 94.778182 150.9462 
L 105.250909 146.6694 
L 115.723636 154.0944 
L 126.196364 169.8354 
L 136.669091 187.7148 
L 147.141818 204.9408 
L 157.614545 221.8698 
L 168.087273 241.4124 
L 178.56 262.44 
L 189.032727 275.805 
L 199.505455 277.7058 
L 209.978182 270.8748 
L 220.450909 255.4902 
L 230.923636 232.5618 
L 241.396364 208.3266 
L 251.869091 187.8336 
L 262.341818 172.5084 
L 272.814545 161.2818 
L 283.287273 151.3026 
L 293.76 140.1354 
L 304.232727 131.2254 
L 314.705455 127.2456 
L 325.178182 122.1966 
L 335.650909 111.861 
L 346.123636 100.575 
L 356.596364 93.3282 
L 367.069091 89.1108 
L 377.541818 88.0416 
L 388.014545 91.4868 
L 398.487273 96.8328 
" style="fill:none;stroke:#00ff7a;stroke-linecap:square;stroke-width:1.5;"/>
   </g>
   <g id="line2d_40">
    <path clip-path="url(#p1e54fb1dd8)" d="M 73.832727 168.1128 
L 84.305455 167.4594 
L 94.778182 172.8054 
L 105.250909 176.4882 
L 115.723636 172.8648 
L 126.196364 168.885 
L 136.669091 176.4288 
L 147.141818 201.258 
L 157.614545 241.947 
L 168.087273 291.9618 
L 178.56 296.1792 
L 189.032727 296.1792 
L 199.505455 296.1792 
L 209.978182 282.8142 
L 220.450909 248.481 
L 230.923636 226.6812 
L 241.396364 206.7822 
L 251.869091 182.547 
L 262.341818 157.7178 
L 272.814545 137.5218 
L 283.287273 123.3846 
L 293.76 113.049 
L 304.232727 103.4856 
L 314.705455 92.7936 
L 325.178182 82.5174 
L 335.650909 77.0526 
L 346.123636 76.1616 
L 356.596364 74.7954 
L 367.069091 70.7562 
L 377.541818 68.8554 
L 388.014545 74.142 
L 398.487273 81.8046 
" style="fill:none;stroke:#00ff97;stroke-linecap:square;stroke-width:1.5;"/>
   </g>
   <g id="line2d_41">
    <path clip-path="url(#p1e54fb1dd8)" d="M 73.832727 169.3008 
L 84.305455 174.231 
L 94.778182 172.8648 
L 105.250909 166.6278 
L 115.723636 161.9946 
L 126.196364 165.321 
L 136.669091 179.4582 
L 147.141818 202.6242 
L 157.614545 230.8392 
L 168.087273 261.549 
L 178.56 292.3182 
L 189.032727 296.1792 
L 199.505455 296.1792 
L 209.978182 296.1792 
L 220.450909 296.1792 
L 230.923636 260.1828 
L 241.396364 220.6224 
L 251.869091 188.2494 
L 262.341818 165.5586 
L 272.814545 147.9762 
L 283.287273 132.4728 
L 293.76 120.8898 
L 304.232727 113.5242 
L 314.705455 106.5744 
L 325.178182 98.3178 
L 335.650909 89.7048 
L 346.123636 81.3888 
L 356.596364 73.3698 
L 367.069091 67.014 
L 377.541818 64.2222 
L 388.014545 64.1034 
L 398.487273 65.7072 
" style="fill:none;stroke:#00ffb5;stroke-linecap:square;stroke-width:1.5;"/>
   </g>
   <g id="line2d_42">
    <path clip-path="url(#p1e54fb1dd8)" d="M 73.832727 151.7184 
L 84.305455 150.8274 
L 94.778182 156.7674 
L 105.250909 161.757 
L 115.723636 160.272 
L 126.196364 158.3118 
L 136.669091 166.8654 
L 147.141818 188.9028 
L 157.614545 217.593 
L 168.087273 245.6298 
L 178.56 271.1718 
L 189.032727 293.3874 
L 199.505455 296.1792 
L 209.978182 296.1792 
L 220.450909 291.546 
L 230.923636 264.9942 
L 241.396364 236.898 
L 251.869091 214.7418 
L 262.341818 195.021 
L 272.814545 172.5678 
L 283.287273 148.8078 
L 293.76 128.493 
L 304.232727 115.6626 
L 314.705455 109.6038 
L 325.178182 106.3368 
L 335.650909 102.1788 
L 346.123636 93.8034 
L 356.596364 81.7452 
L 367.069091 72.8946 
L 377.541818 72.8946 
L 388.014545 77.5872 
L 398.487273 76.6368 
" style="fill:none;stroke:#00ffd3;stroke-linecap:square;stroke-width:1.5;"/>
   </g>
   <g id="line2d_43">
    <path clip-path="url(#p1e54fb1dd8)" d="M 73.832727 183.3192 
L 84.305455 181.4184 
L 94.778182 179.1018 
L 105.250909 174.2904 
L 115.723636 169.0038 
L 126.196364 170.667 
L 136.669091 184.4478 
L 147.141818 211.5342 
L 157.614545 252.1044 
L 168.087273 296.1792 
L 178.56 296.1792 
L 189.032727 296.1792 
L 199.505455 296.1792 
L 209.978182 275.6268 
L 220.450909 249.372 
L 230.923636 227.8692 
L 241.396364 208.1484 
L 251.869091 187.7742 
L 262.341818 165.2022 
L 272.814545 141.9174 
L 283.287273 121.4244 
L 293.76 107.4654 
L 304.232727 100.1592 
L 314.705455 94.338 
L 325.178182 85.7844 
L 335.650909 78.4782 
L 346.123636 78.597 
L 356.596364 83.8836 
L 367.069091 88.5168 
L 377.541818 88.8138 
L 388.014545 83.8836 
L 398.487273 78.1218 
" style="fill:none;stroke:#00fff6;stroke-linecap:square;stroke-width:1.5;"/>
   </g>
   <g id="line2d_44">
    <path clip-path="url(#p1e54fb1dd8)" d="M 73.832727 184.0914 
L 84.305455 184.3884 
L 94.778182 185.22 
L 105.250909 182.6064 
L 115.723636 174.3498 
L 126.196364 167.994 
L 136.669091 177.9138 
L 147.141818 206.307 
L 157.614545 244.0854 
L 168.087273 283.7052 
L 178.56 296.1792 
L 189.032727 296.1792 
L 199.505455 296.1792 
L 209.978182 294.1002 
L 220.450909 267.4296 
L 230.923636 244.5012 
L 241.396364 224.6022 
L 251.869091 203.0994 
L 262.341818 178.092 
L 272.814545 154.2132 
L 283.287273 136.5714 
L 293.76 126.2952 
L 304.232727 121.5432 
L 314.705455 118.5138 
L 325.178182 111.861 
L 335.650909 98.3772 
L 346.123636 82.3392 
L 356.596364 71.8848 
L 367.069091 69.6276 
L 377.541818 71.5878 
L 388.014545 72.8352 
L 398.487273 72.954 
" style="fill:none;stroke:#00eaff;stroke-linecap:square;stroke-width:1.5;"/>
   </g>
   <g id="line2d_45">
    <path clip-path="url(#p1e54fb1dd8)" d="M 73.832727 194.13 
L 84.305455 192.051 
L 94.778182 184.2102 
L 105.250909 173.7558 
L 115.723636 167.5782 
L 126.196364 168.8256 
L 136.669091 176.2506 
L 147.141818 190.8036 
L 157.614545 214.1478 
L 168.087273 244.2636 
L 178.56 274.32 
L 189.032727 296.1792 
L 199.505455 296.1792 
L 209.978182 296.1792 
L 220.450909 275.4486 
L 230.923636 243.6102 
L 241.396364 216.999 
L 251.869091 199.1196 
L 262.341818 186.705 
L 272.814545 176.4882 
L 283.287273 165.1428 
L 293.76 148.9266 
L 304.232727 126.8298 
L 314.705455 103.6044 
L 325.178182 88.2792 
L 335.650909 85.428 
L 346.123636 88.8138 
L 356.596364 89.2296 
L 367.069091 84.7152 
L 377.541818 77.5872 
L 388.014545 70.2216 
L 398.487273 65.7072 
" style="fill:none;stroke:#00cdff;stroke-linecap:square;stroke-width:1.5;"/>
   </g>
   <g id="line2d_46">
    <path clip-path="url(#p1e54fb1dd8)" d="M 73.832727 188.3682 
L 84.305455 187.6554 
L 94.778182 182.6658 
L 105.250909 175.0032 
L 115.723636 168.6474 
L 126.196364 166.4496 
L 136.669091 171.4392 
L 147.141818 188.3682 
L 157.614545 220.4442 
L 168.087273 261.252 
L 178.56 295.7634 
L 189.032727 296.1792 
L 199.505455 296.1792 
L 209.978182 287.7444 
L 220.450909 269.0334 
L 230.923636 251.2728 
L 241.396364 233.0964 
L 251.869091 209.5146 
L 262.341818 178.8048 
L 272.814545 148.2732 
L 283.287273 125.9982 
L 293.76 111.8016 
L 304.232727 102.2382 
L 314.705455 96.3576 
L 325.178182 92.9718 
L 335.650909 90.4176 
L 346.123636 86.0814 
L 356.596364 77.2308 
L 367.069091 65.3508 
L 377.541818 55.9062 
L 388.014545 54.54 
L 398.487273 61.7274 
" style="fill:none;stroke:#00afff;stroke-linecap:square;stroke-width:1.5;"/>
   </g>
   <g id="line2d_47">
    <path clip-path="url(#p1e54fb1dd8)" d="M 73.832727 175.7754 
L 84.305455 168.9444 
L 94.778182 167.7564 
L 105.250909 170.5482 
L 115.723636 171.855 
L 126.196364 173.5182 
L 136.669091 183.141 
L 147.141818 203.931 
L 157.614545 231.7302 
L 168.087273 261.7866 
L 178.56 290.655 
L 189.032727 296.1792 
L 199.505455 296.1792 
L 209.978182 296.1792 
L 220.450909 275.1516 
L 230.923636 254.7774 
L 241.396364 234.3438 
L 251.869091 209.2176 
L 262.341818 180.9432 
L 272.814545 152.7876 
L 283.287273 128.493 
L 293.76 113.8212 
L 304.232727 108.594 
L 314.705455 104.7924 
L 325.178182 96.0606 
L 335.650909 85.428 
L 346.123636 78.4782 
L 356.596364 75.7458 
L 367.069091 73.6074 
L 377.541818 71.2314 
L 388.014545 72.1224 
L 398.487273 76.9932 
" style="fill:none;stroke:#0092ff;stroke-linecap:square;stroke-width:1.5;"/>
   </g>
   <g id="line2d_48">
    <path clip-path="url(#p1e54fb1dd8)" d="M 73.832727 180.171 
L 84.305455 184.8636 
L 94.778182 185.9922 
L 105.250909 178.5672 
L 115.723636 164.3706 
L 126.196364 154.1538 
L 136.669091 159.0246 
L 147.141818 181.4778 
L 157.614545 217.296 
L 168.087273 260.7768 
L 178.56 296.1792 
L 189.032727 296.1792 
L 199.505455 296.1792 
L 209.978182 296.1792 
L 220.450909 295.7634 
L 230.923636 266.004 
L 241.396364 236.4822 
L 251.869091 211.7124 
L 262.341818 189.4968 
L 272.814545 165.915 
L 283.287273 142.8084 
L 293.76 125.2854 
L 304.232727 113.8212 
L 314.705455 102.8916 
L 325.178182 89.9424 
L 335.650909 78.7752 
L 346.123636 72.5382 
L 356.596364 70.0434 
L 367.069091 68.499 
L 377.541818 66.0042 
L 388.014545 63.3906 
L 398.487273 65.0538 
" style="fill:none;stroke:#0074ff;stroke-linecap:square;stroke-width:1.5;"/>
   </g>
   <g id="line2d_49">
    <path clip-path="url(#p1e54fb1dd8)" d="M 73.832727 171.855 
L 84.305455 171.2016 
L 94.778182 170.073 
L 105.250909 165.321 
L 115.723636 158.1336 
L 126.196364 155.9952 
L 136.669091 165.9744 
L 147.141818 189.1998 
L 157.614545 221.3352 
L 168.087273 258.6384 
L 178.56 296.1792 
L 189.032727 296.1792 
L 199.505455 296.1792 
L 209.978182 296.1792 
L 220.450909 279.7254 
L 230.923636 247.5306 
L 241.396364 226.0872 
L 251.869091 209.5146 
L 262.341818 189.7938 
L 272.814545 166.212 
L 283.287273 142.2738 
L 293.76 123.2064 
L 304.232727 113.94 
L 314.705455 113.049 
L 325.178182 112.158 
L 335.650909 103.7826 
L 346.123636 87.6258 
L 356.596364 71.172 
L 367.069091 61.7868 
L 377.541818 59.2326 
L 388.014545 58.401 
L 398.487273 57.6288 
" style="fill:none;stroke:#0057ff;stroke-linecap:square;stroke-width:1.5;"/>
   </g>
   <g id="line2d_50">
    <path clip-path="url(#p1e54fb1dd8)" d="M 73.832727 168.1128 
L 84.305455 171.4986 
L 94.778182 175.5972 
L 105.250909 175.122 
L 115.723636 168.9444 
L 126.196364 163.1826 
L 136.669091 167.5188 
L 147.141818 185.8734 
L 157.614545 215.6922 
L 168.087273 251.6292 
L 178.56 290.1798 
L 189.032727 296.1792 
L 199.505455 296.1792 
L 209.978182 296.1792 
L 220.450909 296.1792 
L 230.923636 261.549 
L 241.396364 226.2654 
L 251.869091 203.2776 
L 262.341818 188.3682 
L 272.814545 171.7956 
L 283.287273 149.0454 
L 293.76 123.9192 
L 304.232727 102.7728 
L 314.705455 89.883 
L 325.178182 83.5272 
L 335.650909 80.8542 
L 346.123636 80.3196 
L 356.596364 78.1218 
L 367.069091 71.0532 
L 377.541818 62.6184 
L 388.014545 59.4108 
L 398.487273 63.8064 
" style="fill:none;stroke:#0039ff;stroke-linecap:square;stroke-width:1.5;"/>
   </g>
   <g id="line2d_51">
    <path clip-path="url(#p1e54fb1dd8)" d="M 73.832727 180.1116 
L 84.305455 183.0222 
L 94.778182 180.8838 
L 105.250909 175.2408 
L 115.723636 169.7166 
L 126.196364 169.3602 
L 136.669091 179.1018 
L 147.141818 198.8226 
L 157.614545 222.4044 
L 168.087273 243.3132 
L 178.56 258.0444 
L 189.032727 265.707 
L 199.505455 266.6574 
L 209.978182 261.9054 
L 220.450909 253.3518 
L 230.923636 242.0658 
L 241.396364 225.315 
L 251.869091 202.2678 
L 262.341818 177.5574 
L 272.814545 156.0546 
L 283.287273 140.0166 
L 293.76 129.6216 
L 304.232727 119.8206 
L 314.705455 108.1782 
L 325.178182 98.5554 
L 335.650909 94.8132 
L 346.123636 96.3576 
L 356.596364 97.2486 
L 367.069091 91.8432 
L 377.541818 82.0422 
L 388.014545 75.8052 
L 398.487273 78.597 
" style="fill:none;stroke:#001cff;stroke-linecap:square;stroke-width:1.5;"/>
   </g>
   <g id="line2d_52">
    <path clip-path="url(#p1e54fb1dd8)" d="M 73.832727 166.8654 
L 84.305455 179.5176 
L 94.778182 195.021 
L 105.250909 201.7926 
L 115.723636 197.5158 
L 126.196364 191.5164 
L 136.669091 192.4668 
L 147.141818 204.1092 
L 157.614545 228.2256 
L 168.087273 262.4994 
L 178.56 296.1792 
L 189.032727 296.1792 
L 199.505455 296.1792 
L 209.978182 296.1792 
L 220.450909 296.1792 
L 230.923636 275.2704 
L 241.396364 246.4614 
L 251.869091 216.405 
L 262.341818 185.3388 
L 272.814545 159.7374 
L 283.287273 146.3724 
L 293.76 140.3136 
L 304.232727 131.7006 
L 314.705455 117.9792 
L 325.178182 103.545 
L 335.650909 92.3184 
L 346.123636 83.943 
L 356.596364 75.33 
L 367.069091 67.7862 
L 377.541818 66.717 
L 388.014545 72.7164 
L 398.487273 78.5376 
" style="fill:none;stroke:#0800ff;stroke-linecap:square;stroke-width:1.5;"/>
   </g>
   <g id="line2d_53">
    <path clip-path="url(#p1e54fb1dd8)" d="M 73.832727 174.825 
L 84.305455 176.8446 
L 94.778182 174.7062 
L 105.250909 167.7564 
L 115.723636 161.5788 
L 126.196364 163.8954 
L 136.669091 178.1514 
L 147.141818 201.0798 
L 157.614545 227.6316 
L 168.087273 256.6782 
L 178.56 286.8534 
L 189.032727 296.1792 
L 199.505455 296.1792 
L 209.978182 296.1792 
L 220.450909 272.4786 
L 230.923636 243.1944 
L 241.396364 222.1074 
L 251.869091 204.822 
L 262.341818 184.9824 
L 272.814545 162.2322 
L 283.287273 139.0068 
L 293.76 116.8506 
L 304.232727 97.605 
L 314.705455 83.052 
L 325.178182 75.3894 
L 335.650909 73.3698 
L 346.123636 72.5976 
L 356.596364 70.281 
L 367.069091 64.8162 
L 377.541818 57.6882 
L 388.014545 54.837 
L 398.487273 58.698 
" style="fill:none;stroke:#2500ff;stroke-linecap:square;stroke-width:1.5;"/>
   </g>
   <g id="line2d_54">
    <path clip-path="url(#p1e54fb1dd8)" d="M 73.832727 166.4496 
L 84.305455 165.618 
L 94.778182 169.776 
L 105.250909 174.2904 
L 115.723636 173.4588 
L 126.196364 171.6768 
L 136.669091 181.7748 
L 147.141818 209.574 
L 157.614545 250.56 
L 168.087273 293.8626 
L 178.56 296.1792 
L 189.032727 296.1792 
L 199.505455 296.1792 
L 209.978182 296.1792 
L 220.450909 276.1614 
L 230.923636 243.9666 
L 241.396364 207.9702 
L 251.869091 176.4882 
L 262.341818 158.2524 
L 272.814545 151.8372 
L 283.287273 146.7882 
L 293.76 134.7894 
L 304.232727 119.286 
L 314.705455 108.6534 
L 325.178182 104.3172 
L 335.650909 100.7532 
L 346.123636 93.5064 
L 356.596364 83.8242 
L 367.069091 76.6962 
L 377.541818 73.251 
L 388.014545 70.4592 
L 398.487273 67.608 
" style="fill:none;stroke:#4300ff;stroke-linecap:square;stroke-width:1.5;"/>
   </g>
   <g id="line2d_55">
    <path clip-path="url(#p1e54fb1dd8)" d="M 73.832727 169.7166 
L 84.305455 164.0736 
L 94.778182 157.8366 
L 105.250909 153.6192 
L 115.723636 153.5598 
L 126.196364 157.9554 
L 136.669091 170.1918 
L 147.141818 195.1992 
L 157.614545 230.1264 
L 168.087273 267.3702 
L 178.56 296.1792 
L 189.032727 296.1792 
L 199.505455 296.1792 
L 209.978182 296.1792 
L 220.450909 295.11 
L 230.923636 274.5576 
L 241.396364 250.0848 
L 251.869091 222.642 
L 262.341818 195.318 
L 272.814545 171.4986 
L 283.287273 150.8274 
L 293.76 129.6216 
L 304.232727 108.2376 
L 314.705455 91.962 
L 325.178182 83.5272 
L 335.650909 82.0422 
L 346.123636 84.24 
L 356.596364 84.1806 
L 367.069091 79.6068 
L 377.541818 72.36 
L 388.014545 64.9944 
L 398.487273 58.5792 
" style="fill:none;stroke:#6000ff;stroke-linecap:square;stroke-width:1.5;"/>
   </g>
   <g id="line2d_56">
    <path clip-path="url(#p1e54fb1dd8)" d="M 73.832727 170.1324 
L 84.305455 160.866 
L 94.778182 156.5892 
L 105.250909 156.411 
L 115.723636 158.3712 
L 126.196364 163.836 
L 136.669091 175.4784 
L 147.141818 194.2488 
L 157.614545 220.4442 
L 168.087273 255.0744 
L 178.56 296.1792 
L 189.032727 296.1792 
L 199.505455 296.1792 
L 209.978182 296.1792 
L 220.450909 296.1792 
L 230.923636 260.5392 
L 241.396364 226.4436 
L 251.869091 197.5752 
L 262.341818 173.637 
L 272.814545 154.5696 
L 283.287273 139.185 
L 293.76 125.4636 
L 304.232727 113.2272 
L 314.705455 106.0398 
L 325.178182 103.3074 
L 335.650909 98.6742 
L 346.123636 86.8536 
L 356.596364 69.9246 
L 367.069091 57.3912 
L 377.541818 55.728 
L 388.014545 61.074 
L 398.487273 66.42 
" style="fill:none;stroke:#7e00ff;stroke-linecap:square;stroke-width:1.5;"/>
   </g>
   <g id="line2d_57">
    <path clip-path="url(#p1e54fb1dd8)" d="M 73.832727 183.5568 
L 84.305455 164.9052 
L 94.778182 155.2824 
L 105.250909 160.866 
L 115.723636 172.3896 
L 126.196364 179.3394 
L 136.669091 185.1606 
L 147.141818 199.8324 
L 157.614545 226.6812 
L 168.087273 262.0836 
L 178.56 296.1792 
L 189.032727 296.1792 
L 199.505455 296.1792 
L 209.978182 296.1792 
L 220.450909 285.9624 
L 230.923636 261.9054 
L 241.396364 245.3922 
L 251.869091 228.1068 
L 262.341818 202.9806 
L 272.814545 172.746 
L 283.287273 146.0754 
L 293.76 127.1862 
L 304.232727 114.5934 
L 314.705455 105.624 
L 325.178182 97.6644 
L 335.650909 90.0612 
L 346.123636 83.8836 
L 356.596364 79.6068 
L 367.069091 76.4586 
L 377.541818 72.3006 
L 388.014545 66.9546 
L 398.487273 63.45 
" style="fill:none;stroke:#9b00ff;stroke-linecap:square;stroke-width:1.5;"/>
   </g>
   <g id="line2d_58">
    <path clip-path="url(#p1e54fb1dd8)" d="M 73.832727 160.569 
L 84.305455 161.2224 
L 94.778182 162.1728 
L 105.250909 162.7668 
L 115.723636 165.2616 
L 126.196364 171.7362 
L 136.669091 183.4974 
L 147.141818 201.7926 
L 157.614545 227.9286 
L 168.087273 260.5392 
L 178.56 292.734 
L 189.032727 296.1792 
L 199.505455 296.1792 
L 209.978182 296.1792 
L 220.450909 287.3286 
L 230.923636 256.9158 
L 241.396364 229.0572 
L 251.869091 207.9702 
L 262.341818 188.8434 
L 272.814545 168.1128 
L 283.287273 148.2732 
L 293.76 132.4134 
L 304.232727 118.989 
L 314.705455 107.109 
L 325.178182 97.0704 
L 335.650909 85.8438 
L 346.123636 72.4194 
L 356.596364 63.747 
L 367.069091 64.8162 
L 377.541818 71.5878 
L 388.014545 77.2308 
L 398.487273 79.8444 
" style="fill:none;stroke:#b900ff;stroke-linecap:square;stroke-width:1.5;"/>
   </g>
   <g id="line2d_59">
    <path clip-path="url(#p1e54fb1dd8)" d="M 73.832727 176.8446 
L 84.305455 172.0332 
L 94.778182 164.8458 
L 105.250909 154.9854 
L 115.723636 148.5702 
L 126.196364 151.8966 
L 136.669091 167.5782 
L 147.141818 194.13 
L 157.614545 228.8196 
L 168.087273 267.5484 
L 178.56 296.1792 
L 189.032727 296.1792 
L 199.505455 296.1792 
L 209.978182 296.1792 
L 220.450909 285.8436 
L 230.923636 255.7872 
L 241.396364 221.8104 
L 251.869091 192.8826 
L 262.341818 174.1122 
L 272.814545 161.0442 
L 283.287273 145.8972 
L 293.76 129.681 
L 304.232727 118.2762 
L 314.705455 112.5144 
L 325.178182 108.891 
L 335.650909 107.2872 
L 346.123636 107.3466 
L 356.596364 103.1886 
L 367.069091 90.18 
L 377.541818 72.954 
L 388.014545 59.4108 
L 398.487273 52.9362 
" style="fill:none;stroke:#d600ff;stroke-linecap:square;stroke-width:1.5;"/>
   </g>
   <g id="line2d_60">
    <path clip-path="url(#p1e54fb1dd8)" d="M 73.832727 184.5666 
L 84.305455 181.1214 
L 94.778182 178.7454 
L 105.250909 179.1018 
L 115.723636 180.765 
L 126.196364 182.547 
L 136.669091 186.1704 
L 147.141818 197.5752 
L 157.614545 221.9292 
L 168.087273 257.5692 
L 178.56 291.9024 
L 189.032727 296.1792 
L 199.505455 296.1792 
L 209.978182 288.1602 
L 220.450909 266.8356 
L 230.923636 244.8576 
L 241.396364 220.86 
L 251.869091 195.5556 
L 262.341818 171.7956 
L 272.814545 151.8966 
L 283.287273 136.215 
L 293.76 123.0876 
L 304.232727 112.5738 
L 314.705455 105.8022 
L 325.178182 100.575 
L 335.650909 93.8034 
L 346.123636 86.319 
L 356.596364 81.27 
L 367.069091 81.5076 
L 377.541818 86.4378 
L 388.014545 92.259 
L 398.487273 94.1004 
" style="fill:none;stroke:#f800fd;stroke-linecap:square;stroke-width:1.5;"/>
   </g>
   <g id="line2d_61">
    <path clip-path="url(#p1e54fb1dd8)" d="M 73.832727 192.5262 
L 84.305455 195.615 
L 94.778182 188.19 
L 105.250909 169.9542 
L 115.723636 152.7282 
L 126.196364 149.9364 
L 136.669091 165.618 
L 147.141818 195.615 
L 157.614545 234.2844 
L 168.087273 275.6862 
L 178.56 296.1792 
L 189.032727 296.1792 
L 199.505455 296.1792 
L 209.978182 288.873 
L 220.450909 270.9936 
L 230.923636 255.1932 
L 241.396364 233.3934 
L 251.869091 204.1686 
L 262.341818 173.9934 
L 272.814545 148.689 
L 283.287273 128.0772 
L 293.76 112.0986 
L 304.232727 101.8818 
L 314.705455 95.7042 
L 325.178182 91.1898 
L 335.650909 87.3882 
L 346.123636 83.2896 
L 356.596364 79.3098 
L 367.069091 75.33 
L 377.541818 71.2314 
L 388.014545 69.2712 
L 398.487273 70.4592 
" style="fill:none;stroke:#ff00e7;stroke-linecap:square;stroke-width:1.5;"/>
   </g>
   <g id="line2d_62">
    <path clip-path="url(#p1e54fb1dd8)" d="M 73.832727 165.321 
L 84.305455 154.5696 
L 94.778182 153.738 
L 105.250909 160.2126 
L 115.723636 166.9842 
L 126.196364 172.6866 
L 136.669091 180.5868 
L 147.141818 195.7338 
L 157.614545 224.9586 
L 168.087273 268.4988 
L 178.56 296.1792 
L 189.032727 296.1792 
L 199.505455 296.1792 
L 209.978182 296.1792 
L 220.450909 260.2422 
L 230.923636 230.0076 
L 241.396364 210.8808 
L 251.869091 199.9512 
L 262.341818 193.4172 
L 272.814545 182.3688 
L 283.287273 159.3216 
L 293.76 130.2156 
L 304.232727 108.5346 
L 314.705455 98.8524 
L 325.178182 93.3876 
L 335.650909 86.1408 
L 346.123636 79.9632 
L 356.596364 79.785 
L 367.069091 81.3888 
L 377.541818 77.1714 
L 388.014545 68.3802 
L 398.487273 62.6184 
" style="fill:none;stroke:#ff00c9;stroke-linecap:square;stroke-width:1.5;"/>
   </g>
   <g id="line2d_63">
    <path clip-path="url(#p1e54fb1dd8)" d="M 73.832727 164.0142 
L 84.305455 175.8942 
L 94.778182 186.0516 
L 105.250909 186.8832 
L 115.723636 181.8342 
L 126.196364 178.3296 
L 136.669091 181.7154 
L 147.141818 198.7038 
L 157.614545 232.9182 
L 168.087273 277.0524 
L 178.56 296.1792 
L 189.032727 296.1792 
L 199.505455 296.1792 
L 209.978182 296.1792 
L 220.450909 275.8644 
L 230.923636 245.1546 
L 241.396364 221.5728 
L 251.869091 204.9408 
L 262.341818 191.1006 
L 272.814545 175.419 
L 283.287273 157.8366 
L 293.76 141.858 
L 304.232727 129.1464 
L 314.705455 117.1476 
L 325.178182 101.9412 
L 335.650909 85.6656 
L 346.123636 76.3992 
L 356.596364 77.2902 
L 367.069091 82.1016 
L 377.541818 83.2896 
L 388.014545 77.9436 
L 398.487273 68.796 
" style="fill:none;stroke:#ff00ac;stroke-linecap:square;stroke-width:1.5;"/>
   </g>
   <g id="line2d_64">
    <path clip-path="url(#p1e54fb1dd8)" d="M 73.832727 164.3706 
L 84.305455 158.9058 
L 94.778182 158.7276 
L 105.250909 159.381 
L 115.723636 157.4208 
L 126.196364 156.5298 
L 136.669091 164.1924 
L 147.141818 185.8734 
L 157.614545 222.5826 
L 168.087273 267.5484 
L 178.56 296.1792 
L 189.032727 296.1792 
L 199.505455 296.1792 
L 209.978182 296.1792 
L 220.450909 289.2888 
L 230.923636 263.4498 
L 241.396364 234.4626 
L 251.869091 205.0596 
L 262.341818 180.8838 
L 272.814545 164.9052 
L 283.287273 152.3124 
L 293.76 136.9278 
L 304.232727 119.5236 
L 314.705455 103.545 
L 325.178182 92.0214 
L 335.650909 83.7648 
L 346.123636 74.142 
L 356.596364 62.4996 
L 367.069091 54.8964 
L 377.541818 54.243 
L 388.014545 56.8566 
L 398.487273 60.5988 
" style="fill:none;stroke:#ff008e;stroke-linecap:square;stroke-width:1.5;"/>
   </g>
   <g id="line2d_65">
    <path clip-path="url(#p1e54fb1dd8)" d="M 73.832727 164.8458 
L 84.305455 166.7466 
L 94.778182 167.2812 
L 105.250909 167.5782 
L 115.723636 167.103 
L 126.196364 168.7662 
L 136.669091 180.9432 
L 147.141818 209.0394 
L 157.614545 249.1344 
L 168.087273 288.7542 
L 178.56 296.1792 
L 189.032727 296.1792 
L 199.505455 296.1792 
L 209.978182 287.1504 
L 220.450909 256.203 
L 230.923636 224.3646 
L 241.396364 197.8128 
L 251.869091 176.3694 
L 262.341818 155.6388 
L 272.814545 134.5518 
L 283.287273 117.3258 
L 293.76 108 
L 304.232727 104.436 
L 314.705455 102.1788 
L 325.178182 96.9516 
L 335.650909 87.3882 
L 346.123636 77.6466 
L 356.596364 72.657 
L 367.069091 73.4292 
L 377.541818 76.815 
L 388.014545 80.4384 
L 398.487273 82.6362 
" style="fill:none;stroke:#ff0071;stroke-linecap:square;stroke-width:1.5;"/>
   </g>
   <g id="line2d_66">
    <path clip-path="url(#p1e54fb1dd8)" d="M 73.832727 166.1526 
L 84.305455 172.0332 
L 94.778182 174.4092 
L 105.250909 175.716 
L 115.723636 177.9732 
L 126.196364 181.4184 
L 136.669091 188.3682 
L 147.141818 202.446 
L 157.614545 224.7804 
L 168.087273 255.5496 
L 178.56 292.437 
L 189.032727 296.1792 
L 199.505455 296.1792 
L 209.978182 296.1792 
L 220.450909 282.8736 
L 230.923636 254.718 
L 241.396364 236.2446 
L 251.869091 218.3652 
L 262.341818 195.0804 
L 272.814545 170.667 
L 283.287273 151.7778 
L 293.76 137.7594 
L 304.232727 124.335 
L 314.705455 110.1978 
L 325.178182 97.902 
L 335.650909 89.7642 
L 346.123636 84.537 
L 356.596364 78.8346 
L 367.069091 70.9344 
L 377.541818 63.5688 
L 388.014545 59.5296 
L 398.487273 59.7672 
" style="fill:none;stroke:#ff0053;stroke-linecap:square;stroke-width:1.5;"/>
   </g>
   <g id="line2d_67">
    <path clip-path="url(#p1e54fb1dd8)" d="M 73.832727 191.6352 
L 84.305455 196.6842 
L 94.778182 200.4858 
L 105.250909 197.2188 
L 115.723636 185.9922 
L 126.196364 173.637 
L 136.669091 172.3302 
L 147.141818 188.6058 
L 157.614545 216.2268 
L 168.087273 245.5704 
L 178.56 272.1816 
L 189.032727 293.8626 
L 199.505455 296.1792 
L 209.978182 296.1792 
L 220.450909 296.1792 
L 230.923636 280.557 
L 241.396364 260.3016 
L 251.869091 234.7002 
L 262.341818 208.4454 
L 272.814545 186.8238 
L 283.287273 166.5684 
L 293.76 142.8084 
L 304.232727 118.7514 
L 314.705455 99.981 
L 325.178182 86.2002 
L 335.650909 75.2112 
L 346.123636 67.5486 
L 356.596364 64.9944 
L 367.069091 67.5486 
L 377.541818 70.2216 
L 388.014545 67.2516 
L 398.487273 58.995 
" style="fill:none;stroke:#ff0035;stroke-linecap:square;stroke-width:1.5;"/>
   </g>
   <g id="patch_3">
    <path d="M 57.6 307.584 
L 57.6 41.472 
" style="fill:none;stroke:#000000;stroke-linecap:square;stroke-linejoin:miter;stroke-width:0.8;"/>
   </g>
   <g id="patch_4">
    <path d="M 414.72 307.584 
L 414.72 41.472 
" style="fill:none;stroke:#000000;stroke-linecap:square;stroke-linejoin:miter;stroke-width:0.8;"/>
   </g>
   <g id="patch_5">
    <path d="M 57.6 307.584 
L 414.72 307.584 
" style="fill:none;stroke:#000000;stroke-linecap:square;stroke-linejoin:miter;stroke-width:0.8;"/>
   </g>
   <g id="patch_6">
    <path d="M 57.6 41.472 
L 414.72 41.472 
" style="fill:none;stroke:#000000;stroke-linecap:square;stroke-linejoin:miter;stroke-width:0.8;"/>
   </g>
   <g id="text_19">
    <!-- $V_{rms}=$ 38.309448 -->
    <defs>
     <path d="M 20.609375 0 
L 7.8125 72.90625 
L 17.484375 72.90625 
L 28.078125 10.203125 
L 63.484375 72.90625 
L 74.21875 72.90625 
L 32.078125 0 
z
" id="DejaVuSans-Oblique-56"/>
     <path d="M 44.578125 46.390625 
Q 43.21875 47.125 41.453125 47.515625 
Q 39.703125 47.90625 37.703125 47.90625 
Q 30.515625 47.90625 25.140625 42.453125 
Q 19.78125 37.015625 18.015625 27.875 
L 12.5 0 
L 3.515625 0 
L 14.203125 54.6875 
L 23.1875 54.6875 
L 21.484375 46.1875 
Q 25.046875 50.921875 30 53.453125 
Q 34.96875 56 40.578125 56 
Q 42.046875 56 43.453125 55.828125 
Q 44.875 55.671875 46.296875 55.28125 
z
" id="DejaVuSans-Oblique-72"/>
     <path d="M 89.796875 33.015625 
L 83.40625 0 
L 74.421875 0 
L 80.71875 32.71875 
Q 81.109375 34.8125 81.296875 36.328125 
Q 81.5 37.84375 81.5 38.921875 
Q 81.5 43.3125 79.046875 45.75 
Q 76.609375 48.1875 72.21875 48.1875 
Q 65.671875 48.1875 60.546875 43.28125 
Q 55.421875 38.375 53.90625 30.515625 
L 47.90625 0 
L 38.921875 0 
L 45.3125 32.71875 
Q 45.703125 34.515625 45.890625 36.046875 
Q 46.09375 37.59375 46.09375 38.8125 
Q 46.09375 43.265625 43.65625 45.71875 
Q 41.21875 48.1875 36.921875 48.1875 
Q 30.28125 48.1875 25.140625 43.28125 
Q 20.015625 38.375 18.5 30.515625 
L 12.5 0 
L 3.515625 0 
L 14.203125 54.6875 
L 23.1875 54.6875 
L 21.484375 46.1875 
Q 25.140625 50.984375 30.046875 53.484375 
Q 34.96875 56 40.578125 56 
Q 46.53125 56 50.359375 52.875 
Q 54.203125 49.75 54.984375 44.1875 
Q 59.078125 49.953125 64.46875 52.96875 
Q 69.875 56 75.875 56 
Q 82.90625 56 86.734375 51.953125 
Q 90.578125 47.90625 90.578125 40.484375 
Q 90.578125 38.875 90.375 36.9375 
Q 90.1875 35.015625 89.796875 33.015625 
z
" id="DejaVuSans-Oblique-6d"/>
     <path d="M 50 53.078125 
L 48.296875 44.578125 
Q 44.734375 46.53125 40.765625 47.5 
Q 36.8125 48.484375 32.625 48.484375 
Q 25.53125 48.484375 21.453125 46.0625 
Q 17.390625 43.65625 17.390625 39.5 
Q 17.390625 34.671875 26.859375 32.078125 
Q 27.59375 31.890625 27.9375 31.78125 
L 30.8125 30.90625 
Q 39.796875 28.421875 42.796875 25.6875 
Q 45.796875 22.953125 45.796875 18.21875 
Q 45.796875 9.515625 38.890625 4.046875 
Q 31.984375 -1.421875 20.796875 -1.421875 
Q 16.453125 -1.421875 11.671875 -0.578125 
Q 6.890625 0.25 1.125 2 
L 2.875 11.28125 
Q 7.8125 8.734375 12.59375 7.421875 
Q 17.390625 6.109375 21.78125 6.109375 
Q 28.375 6.109375 32.5 8.9375 
Q 36.625 11.765625 36.625 16.109375 
Q 36.625 20.796875 25.78125 23.6875 
L 24.859375 23.921875 
L 21.78125 24.703125 
Q 14.9375 26.515625 11.765625 29.46875 
Q 8.59375 32.421875 8.59375 37.015625 
Q 8.59375 45.75 15.15625 50.875 
Q 21.734375 56 33.015625 56 
Q 37.453125 56 41.671875 55.265625 
Q 45.90625 54.546875 50 53.078125 
z
" id="DejaVuSans-Oblique-73"/>
     <path d="M 10.59375 45.40625 
L 73.1875 45.40625 
L 73.1875 37.203125 
L 10.59375 37.203125 
z
M 10.59375 25.484375 
L 73.1875 25.484375 
L 73.1875 17.1875 
L 10.59375 17.1875 
z
" id="DejaVuSans-3d"/>
     <path d="M 10.984375 1.515625 
L 10.984375 10.5 
Q 14.703125 8.734375 18.5 7.8125 
Q 22.3125 6.890625 25.984375 6.890625 
Q 35.75 6.890625 40.890625 13.453125 
Q 46.046875 20.015625 46.78125 33.40625 
Q 43.953125 29.203125 39.59375 26.953125 
Q 35.25 24.703125 29.984375 24.703125 
Q 19.046875 24.703125 12.671875 31.3125 
Q 6.296875 37.9375 6.296875 49.421875 
Q 6.296875 60.640625 12.9375 67.421875 
Q 19.578125 74.21875 30.609375 74.21875 
Q 43.265625 74.21875 49.921875 64.515625 
Q 56.59375 54.828125 56.59375 36.375 
Q 56.59375 19.140625 48.40625 8.859375 
Q 40.234375 -1.421875 26.421875 -1.421875 
Q 22.703125 -1.421875 18.890625 -0.6875 
Q 15.09375 0.046875 10.984375 1.515625 
z
M 30.609375 32.421875 
Q 37.25 32.421875 41.125 36.953125 
Q 45.015625 41.5 45.015625 49.421875 
Q 45.015625 57.28125 41.125 61.84375 
Q 37.25 66.40625 30.609375 66.40625 
Q 23.96875 66.40625 20.09375 61.84375 
Q 16.21875 57.28125 16.21875 49.421875 
Q 16.21875 41.5 20.09375 36.953125 
Q 23.96875 32.421875 30.609375 32.421875 
z
" id="DejaVuSans-39"/>
    </defs>
    <g transform="translate(325.178182 138.486404)scale(0.1 -0.1)">
     <use transform="translate(0 0.78125)" xlink:href="#DejaVuSans-Oblique-56"/>
     <use transform="translate(68.408203 -15.625)scale(0.7)" xlink:href="#DejaVuSans-Oblique-72"/>
     <use transform="translate(97.1875 -15.625)scale(0.7)" xlink:href="#DejaVuSans-Oblique-6d"/>
     <use transform="translate(165.375977 -15.625)scale(0.7)" xlink:href="#DejaVuSans-Oblique-73"/>
     <use transform="translate(224.0625 0.78125)" xlink:href="#DejaVuSans-3d"/>
     <use transform="translate(327.333984 0.78125)" xlink:href="#DejaVuSans-20"/>
     <use transform="translate(359.121094 0.78125)" xlink:href="#DejaVuSans-33"/>
     <use transform="translate(422.744141 0.78125)" xlink:href="#DejaVuSans-38"/>
     <use transform="translate(486.367188 0.78125)" xlink:href="#DejaVuSans-2e"/>
     <use transform="translate(518.154297 0.78125)" xlink:href="#DejaVuSans-33"/>
     <use transform="translate(581.777344 0.78125)" xlink:href="#DejaVuSans-30"/>
     <use transform="translate(645.400391 0.78125)" xlink:href="#DejaVuSans-39"/>
     <use transform="translate(709.023438 0.78125)" xlink:href="#DejaVuSans-34"/>
     <use transform="translate(772.646484 0.78125)" xlink:href="#DejaVuSans-34"/>
     <use transform="translate(836.269531 0.78125)" xlink:href="#DejaVuSans-38"/>
    </g>
   </g>
   <g id="text_20">
    <!-- Channel 26 - Unit 1 -->
    <defs>
     <path d="M 64.40625 67.28125 
L 64.40625 56.890625 
Q 59.421875 61.53125 53.78125 63.8125 
Q 48.140625 66.109375 41.796875 66.109375 
Q 29.296875 66.109375 22.65625 58.46875 
Q 16.015625 50.828125 16.015625 36.375 
Q 16.015625 21.96875 22.65625 14.328125 
Q 29.296875 6.6875 41.796875 6.6875 
Q 48.140625 6.6875 53.78125 8.984375 
Q 59.421875 11.28125 64.40625 15.921875 
L 64.40625 5.609375 
Q 59.234375 2.09375 53.4375 0.328125 
Q 47.65625 -1.421875 41.21875 -1.421875 
Q 24.65625 -1.421875 15.125 8.703125 
Q 5.609375 18.84375 5.609375 36.375 
Q 5.609375 53.953125 15.125 64.078125 
Q 24.65625 74.21875 41.21875 74.21875 
Q 47.75 74.21875 53.53125 72.484375 
Q 59.328125 70.75 64.40625 67.28125 
z
" id="DejaVuSans-43"/>
     <path d="M 54.890625 33.015625 
L 54.890625 0 
L 45.90625 0 
L 45.90625 32.71875 
Q 45.90625 40.484375 42.875 44.328125 
Q 39.84375 48.1875 33.796875 48.1875 
Q 26.515625 48.1875 22.3125 43.546875 
Q 18.109375 38.921875 18.109375 30.90625 
L 18.109375 0 
L 9.078125 0 
L 9.078125 75.984375 
L 18.109375 75.984375 
L 18.109375 46.1875 
Q 21.34375 51.125 25.703125 53.5625 
Q 30.078125 56 35.796875 56 
Q 45.21875 56 50.046875 50.171875 
Q 54.890625 44.34375 54.890625 33.015625 
z
" id="DejaVuSans-68"/>
     <path d="M 54.890625 33.015625 
L 54.890625 0 
L 45.90625 0 
L 45.90625 32.71875 
Q 45.90625 40.484375 42.875 44.328125 
Q 39.84375 48.1875 33.796875 48.1875 
Q 26.515625 48.1875 22.3125 43.546875 
Q 18.109375 38.921875 18.109375 30.90625 
L 18.109375 0 
L 9.078125 0 
L 9.078125 54.6875 
L 18.109375 54.6875 
L 18.109375 46.1875 
Q 21.34375 51.125 25.703125 53.5625 
Q 30.078125 56 35.796875 56 
Q 45.21875 56 50.046875 50.171875 
Q 54.890625 44.34375 54.890625 33.015625 
z
" id="DejaVuSans-6e"/>
     <path d="M 4.890625 31.390625 
L 31.203125 31.390625 
L 31.203125 23.390625 
L 4.890625 23.390625 
z
" id="DejaVuSans-2d"/>
     <path d="M 8.6875 72.90625 
L 18.609375 72.90625 
L 18.609375 28.609375 
Q 18.609375 16.890625 22.84375 11.734375 
Q 27.09375 6.59375 36.625 6.59375 
Q 46.09375 6.59375 50.34375 11.734375 
Q 54.59375 16.890625 54.59375 28.609375 
L 54.59375 72.90625 
L 64.5 72.90625 
L 64.5 27.390625 
Q 64.5 13.140625 57.4375 5.859375 
Q 50.390625 -1.421875 36.625 -1.421875 
Q 22.796875 -1.421875 15.734375 5.859375 
Q 8.6875 13.140625 8.6875 27.390625 
z
" id="DejaVuSans-55"/>
    </defs>
    <g transform="translate(178.069687 35.472)scale(0.12 -0.12)">
     <use xlink:href="#DejaVuSans-43"/>
     <use x="69.824219" xlink:href="#DejaVuSans-68"/>
     <use x="133.203125" xlink:href="#DejaVuSans-61"/>
     <use x="194.482422" xlink:href="#DejaVuSans-6e"/>
     <use x="257.861328" xlink:href="#DejaVuSans-6e"/>
     <use x="321.240234" xlink:href="#DejaVuSans-65"/>
     <use x="382.763672" xlink:href="#DejaVuSans-6c"/>
     <use x="410.546875" xlink:href="#DejaVuSans-20"/>
     <use x="442.333984" xlink:href="#DejaVuSans-32"/>
     <use x="505.957031" xlink:href="#DejaVuSans-36"/>
     <use x="569.580078" xlink:href="#DejaVuSans-20"/>
     <use x="601.367188" xlink:href="#DejaVuSans-2d"/>
     <use x="637.451172" xlink:href="#DejaVuSans-20"/>
     <use x="669.238281" xlink:href="#DejaVuSans-55"/>
     <use x="742.431641" xlink:href="#DejaVuSans-6e"/>
     <use x="805.810547" xlink:href="#DejaVuSans-69"/>
     <use x="833.59375" xlink:href="#DejaVuSans-74"/>
     <use x="872.802734" xlink:href="#DejaVuSans-20"/>
     <use x="904.589844" xlink:href="#DejaVuSans-31"/>
    </g>
   </g>
  </g>
 </g>
 <defs>
  <clipPath id="p1e54fb1dd8">
   <rect height="266.112" width="357.12" x="57.6" y="41.472"/>
  </clipPath>
 </defs>
</svg>
