<?xml version="1.0" encoding="utf-8" standalone="no"?>
<!DOCTYPE svg PUBLIC "-//W3C//DTD SVG 1.1//EN"
  "http://www.w3.org/Graphics/SVG/1.1/DTD/svg11.dtd">
<!-- Created with matplotlib (http://matplotlib.org/) -->
<svg height="345pt" version="1.1" viewBox="0 0 460 345" width="460pt" xmlns="http://www.w3.org/2000/svg" xmlns:xlink="http://www.w3.org/1999/xlink">
 <defs>
  <style type="text/css">
*{stroke-linecap:butt;stroke-linejoin:round;}
  </style>
 </defs>
 <g id="figure_1">
  <g id="patch_1">
   <path d="M 0 345.6 
L 460.8 345.6 
L 460.8 0 
L 0 0 
z
" style="fill:#ffffff;"/>
  </g>
  <g id="axes_1">
   <g id="patch_2">
    <path d="M 57.6 307.584 
L 414.72 307.584 
L 414.72 41.472 
L 57.6 41.472 
z
" style="fill:#ffffff;"/>
   </g>
   <g id="PolyCollection_1">
    <defs>
     <path d="M 73.832727 -181.458259 
L 73.832727 -161.468302 
L 84.305455 -161.411879 
L 94.778182 -161.476774 
L 105.250909 -162.492515 
L 115.723636 -163.452384 
L 126.196364 -160.713379 
L 136.669091 -151.933366 
L 147.141818 -137.419437 
L 157.614545 -119.549106 
L 168.087273 -103.344476 
L 178.56 -96.379551 
L 189.032727 -99.409288 
L 199.505455 -107.602432 
L 209.978182 -117.016647 
L 220.450909 -126.730887 
L 230.923636 -137.433319 
L 241.396364 -148.774119 
L 251.869091 -158.980166 
L 262.341818 -167.524187 
L 272.814545 -174.131644 
L 283.287273 -179.516306 
L 293.76 -184.885672 
L 304.232727 -189.860348 
L 314.705455 -193.870284 
L 325.178182 -197.261264 
L 335.650909 -199.974589 
L 346.123636 -201.343343 
L 356.596364 -201.717907 
L 367.069091 -201.207219 
L 377.541818 -200.490735 
L 388.014545 -200.520719 
L 398.487273 -200.429784 
L 398.487273 -226.737027 
L 398.487273 -226.737027 
L 388.014545 -227.130272 
L 377.541818 -227.082897 
L 367.069091 -226.546685 
L 356.596364 -225.879209 
L 346.123636 -224.562945 
L 335.650909 -222.727553 
L 325.178182 -221.442429 
L 314.705455 -219.458399 
L 304.232727 -215.385791 
L 293.76 -209.778288 
L 283.287273 -203.336724 
L 272.814545 -196.277086 
L 262.341818 -189.290922 
L 251.869091 -181.712678 
L 241.396364 -172.713876 
L 230.923636 -163.351704 
L 220.450909 -153.925825 
L 209.978182 -144.389629 
L 199.505455 -134.732301 
L 189.032727 -125.563377 
L 178.56 -119.47107 
L 168.087273 -120.30274 
L 157.614545 -131.101627 
L 147.141818 -150.896421 
L 136.669091 -170.592058 
L 126.196364 -182.813398 
L 115.723636 -187.195486 
L 105.250909 -186.852008 
L 94.778182 -184.420478 
L 84.305455 -182.316582 
L 73.832727 -181.458259 
z
" id="mefd8415f10"/>
    </defs>
    <g clip-path="url(#pa52522a49e)">
     <use style="fill-opacity:0.5;" x="0" xlink:href="#mefd8415f10" y="345.6"/>
    </g>
   </g>
   <g id="matplotlib.axis_1">
    <g id="xtick_1">
     <g id="line2d_1">
      <defs>
       <path d="M 0 0 
L 0 3.5 
" id="mbe699aa3d3" style="stroke:#000000;stroke-width:0.8;"/>
      </defs>
      <g>
       <use style="stroke:#000000;stroke-width:0.8;" x="73.832727" xlink:href="#mbe699aa3d3" y="307.584"/>
      </g>
     </g>
     <g id="text_1">
      <!-- 0.0000 -->
      <defs>
       <path d="M 31.78125 66.40625 
Q 24.171875 66.40625 20.328125 58.90625 
Q 16.5 51.421875 16.5 36.375 
Q 16.5 21.390625 20.328125 13.890625 
Q 24.171875 6.390625 31.78125 6.390625 
Q 39.453125 6.390625 43.28125 13.890625 
Q 47.125 21.390625 47.125 36.375 
Q 47.125 51.421875 43.28125 58.90625 
Q 39.453125 66.40625 31.78125 66.40625 
z
M 31.78125 74.21875 
Q 44.046875 74.21875 50.515625 64.515625 
Q 56.984375 54.828125 56.984375 36.375 
Q 56.984375 17.96875 50.515625 8.265625 
Q 44.046875 -1.421875 31.78125 -1.421875 
Q 19.53125 -1.421875 13.0625 8.265625 
Q 6.59375 17.96875 6.59375 36.375 
Q 6.59375 54.828125 13.0625 64.515625 
Q 19.53125 74.21875 31.78125 74.21875 
z
" id="DejaVuSans-30"/>
       <path d="M 10.6875 12.40625 
L 21 12.40625 
L 21 0 
L 10.6875 0 
z
" id="DejaVuSans-2e"/>
      </defs>
      <g transform="translate(56.337415 322.182437)scale(0.1 -0.1)">
       <use xlink:href="#DejaVuSans-30"/>
       <use x="63.623047" xlink:href="#DejaVuSans-2e"/>
       <use x="95.410156" xlink:href="#DejaVuSans-30"/>
       <use x="159.033203" xlink:href="#DejaVuSans-30"/>
       <use x="222.65625" xlink:href="#DejaVuSans-30"/>
       <use x="286.279297" xlink:href="#DejaVuSans-30"/>
      </g>
     </g>
    </g>
    <g id="xtick_2">
     <g id="line2d_2">
      <g>
       <use style="stroke:#000000;stroke-width:0.8;" x="115.723636" xlink:href="#mbe699aa3d3" y="307.584"/>
      </g>
     </g>
     <g id="text_2">
      <!-- 0.0001 -->
      <defs>
       <path d="M 12.40625 8.296875 
L 28.515625 8.296875 
L 28.515625 63.921875 
L 10.984375 60.40625 
L 10.984375 69.390625 
L 28.421875 72.90625 
L 38.28125 72.90625 
L 38.28125 8.296875 
L 54.390625 8.296875 
L 54.390625 0 
L 12.40625 0 
z
" id="DejaVuSans-31"/>
      </defs>
      <g transform="translate(98.228324 322.182437)scale(0.1 -0.1)">
       <use xlink:href="#DejaVuSans-30"/>
       <use x="63.623047" xlink:href="#DejaVuSans-2e"/>
       <use x="95.410156" xlink:href="#DejaVuSans-30"/>
       <use x="159.033203" xlink:href="#DejaVuSans-30"/>
       <use x="222.65625" xlink:href="#DejaVuSans-30"/>
       <use x="286.279297" xlink:href="#DejaVuSans-31"/>
      </g>
     </g>
    </g>
    <g id="xtick_3">
     <g id="line2d_3">
      <g>
       <use style="stroke:#000000;stroke-width:0.8;" x="157.614545" xlink:href="#mbe699aa3d3" y="307.584"/>
      </g>
     </g>
     <g id="text_3">
      <!-- 0.0002 -->
      <defs>
       <path d="M 19.1875 8.296875 
L 53.609375 8.296875 
L 53.609375 0 
L 7.328125 0 
L 7.328125 8.296875 
Q 12.9375 14.109375 22.625 23.890625 
Q 32.328125 33.6875 34.8125 36.53125 
Q 39.546875 41.84375 41.421875 45.53125 
Q 43.3125 49.21875 43.3125 52.78125 
Q 43.3125 58.59375 39.234375 62.25 
Q 35.15625 65.921875 28.609375 65.921875 
Q 23.96875 65.921875 18.8125 64.3125 
Q 13.671875 62.703125 7.8125 59.421875 
L 7.8125 69.390625 
Q 13.765625 71.78125 18.9375 73 
Q 24.125 74.21875 28.421875 74.21875 
Q 39.75 74.21875 46.484375 68.546875 
Q 53.21875 62.890625 53.21875 53.421875 
Q 53.21875 48.921875 51.53125 44.890625 
Q 49.859375 40.875 45.40625 35.40625 
Q 44.1875 33.984375 37.640625 27.21875 
Q 31.109375 20.453125 19.1875 8.296875 
z
" id="DejaVuSans-32"/>
      </defs>
      <g transform="translate(140.119233 322.182437)scale(0.1 -0.1)">
       <use xlink:href="#DejaVuSans-30"/>
       <use x="63.623047" xlink:href="#DejaVuSans-2e"/>
       <use x="95.410156" xlink:href="#DejaVuSans-30"/>
       <use x="159.033203" xlink:href="#DejaVuSans-30"/>
       <use x="222.65625" xlink:href="#DejaVuSans-30"/>
       <use x="286.279297" xlink:href="#DejaVuSans-32"/>
      </g>
     </g>
    </g>
    <g id="xtick_4">
     <g id="line2d_4">
      <g>
       <use style="stroke:#000000;stroke-width:0.8;" x="199.505455" xlink:href="#mbe699aa3d3" y="307.584"/>
      </g>
     </g>
     <g id="text_4">
      <!-- 0.0003 -->
      <defs>
       <path d="M 40.578125 39.3125 
Q 47.65625 37.796875 51.625 33 
Q 55.609375 28.21875 55.609375 21.1875 
Q 55.609375 10.40625 48.1875 4.484375 
Q 40.765625 -1.421875 27.09375 -1.421875 
Q 22.515625 -1.421875 17.65625 -0.515625 
Q 12.796875 0.390625 7.625 2.203125 
L 7.625 11.71875 
Q 11.71875 9.328125 16.59375 8.109375 
Q 21.484375 6.890625 26.8125 6.890625 
Q 36.078125 6.890625 40.9375 10.546875 
Q 45.796875 14.203125 45.796875 21.1875 
Q 45.796875 27.640625 41.28125 31.265625 
Q 36.765625 34.90625 28.71875 34.90625 
L 20.21875 34.90625 
L 20.21875 43.015625 
L 29.109375 43.015625 
Q 36.375 43.015625 40.234375 45.921875 
Q 44.09375 48.828125 44.09375 54.296875 
Q 44.09375 59.90625 40.109375 62.90625 
Q 36.140625 65.921875 28.71875 65.921875 
Q 24.65625 65.921875 20.015625 65.03125 
Q 15.375 64.15625 9.8125 62.3125 
L 9.8125 71.09375 
Q 15.4375 72.65625 20.34375 73.4375 
Q 25.25 74.21875 29.59375 74.21875 
Q 40.828125 74.21875 47.359375 69.109375 
Q 53.90625 64.015625 53.90625 55.328125 
Q 53.90625 49.265625 50.4375 45.09375 
Q 46.96875 40.921875 40.578125 39.3125 
z
" id="DejaVuSans-33"/>
      </defs>
      <g transform="translate(182.010142 322.182437)scale(0.1 -0.1)">
       <use xlink:href="#DejaVuSans-30"/>
       <use x="63.623047" xlink:href="#DejaVuSans-2e"/>
       <use x="95.410156" xlink:href="#DejaVuSans-30"/>
       <use x="159.033203" xlink:href="#DejaVuSans-30"/>
       <use x="222.65625" xlink:href="#DejaVuSans-30"/>
       <use x="286.279297" xlink:href="#DejaVuSans-33"/>
      </g>
     </g>
    </g>
    <g id="xtick_5">
     <g id="line2d_5">
      <g>
       <use style="stroke:#000000;stroke-width:0.8;" x="241.396364" xlink:href="#mbe699aa3d3" y="307.584"/>
      </g>
     </g>
     <g id="text_5">
      <!-- 0.0004 -->
      <defs>
       <path d="M 37.796875 64.3125 
L 12.890625 25.390625 
L 37.796875 25.390625 
z
M 35.203125 72.90625 
L 47.609375 72.90625 
L 47.609375 25.390625 
L 58.015625 25.390625 
L 58.015625 17.1875 
L 47.609375 17.1875 
L 47.609375 0 
L 37.796875 0 
L 37.796875 17.1875 
L 4.890625 17.1875 
L 4.890625 26.703125 
z
" id="DejaVuSans-34"/>
      </defs>
      <g transform="translate(223.901051 322.182437)scale(0.1 -0.1)">
       <use xlink:href="#DejaVuSans-30"/>
       <use x="63.623047" xlink:href="#DejaVuSans-2e"/>
       <use x="95.410156" xlink:href="#DejaVuSans-30"/>
       <use x="159.033203" xlink:href="#DejaVuSans-30"/>
       <use x="222.65625" xlink:href="#DejaVuSans-30"/>
       <use x="286.279297" xlink:href="#DejaVuSans-34"/>
      </g>
     </g>
    </g>
    <g id="xtick_6">
     <g id="line2d_6">
      <g>
       <use style="stroke:#000000;stroke-width:0.8;" x="283.287273" xlink:href="#mbe699aa3d3" y="307.584"/>
      </g>
     </g>
     <g id="text_6">
      <!-- 0.0005 -->
      <defs>
       <path d="M 10.796875 72.90625 
L 49.515625 72.90625 
L 49.515625 64.59375 
L 19.828125 64.59375 
L 19.828125 46.734375 
Q 21.96875 47.46875 24.109375 47.828125 
Q 26.265625 48.1875 28.421875 48.1875 
Q 40.625 48.1875 47.75 41.5 
Q 54.890625 34.8125 54.890625 23.390625 
Q 54.890625 11.625 47.5625 5.09375 
Q 40.234375 -1.421875 26.90625 -1.421875 
Q 22.3125 -1.421875 17.546875 -0.640625 
Q 12.796875 0.140625 7.71875 1.703125 
L 7.71875 11.625 
Q 12.109375 9.234375 16.796875 8.0625 
Q 21.484375 6.890625 26.703125 6.890625 
Q 35.15625 6.890625 40.078125 11.328125 
Q 45.015625 15.765625 45.015625 23.390625 
Q 45.015625 31 40.078125 35.4375 
Q 35.15625 39.890625 26.703125 39.890625 
Q 22.75 39.890625 18.8125 39.015625 
Q 14.890625 38.140625 10.796875 36.28125 
z
" id="DejaVuSans-35"/>
      </defs>
      <g transform="translate(265.79196 322.182437)scale(0.1 -0.1)">
       <use xlink:href="#DejaVuSans-30"/>
       <use x="63.623047" xlink:href="#DejaVuSans-2e"/>
       <use x="95.410156" xlink:href="#DejaVuSans-30"/>
       <use x="159.033203" xlink:href="#DejaVuSans-30"/>
       <use x="222.65625" xlink:href="#DejaVuSans-30"/>
       <use x="286.279297" xlink:href="#DejaVuSans-35"/>
      </g>
     </g>
    </g>
    <g id="xtick_7">
     <g id="line2d_7">
      <g>
       <use style="stroke:#000000;stroke-width:0.8;" x="325.178182" xlink:href="#mbe699aa3d3" y="307.584"/>
      </g>
     </g>
     <g id="text_7">
      <!-- 0.0006 -->
      <defs>
       <path d="M 33.015625 40.375 
Q 26.375 40.375 22.484375 35.828125 
Q 18.609375 31.296875 18.609375 23.390625 
Q 18.609375 15.53125 22.484375 10.953125 
Q 26.375 6.390625 33.015625 6.390625 
Q 39.65625 6.390625 43.53125 10.953125 
Q 47.40625 15.53125 47.40625 23.390625 
Q 47.40625 31.296875 43.53125 35.828125 
Q 39.65625 40.375 33.015625 40.375 
z
M 52.59375 71.296875 
L 52.59375 62.3125 
Q 48.875 64.0625 45.09375 64.984375 
Q 41.3125 65.921875 37.59375 65.921875 
Q 27.828125 65.921875 22.671875 59.328125 
Q 17.53125 52.734375 16.796875 39.40625 
Q 19.671875 43.65625 24.015625 45.921875 
Q 28.375 48.1875 33.59375 48.1875 
Q 44.578125 48.1875 50.953125 41.515625 
Q 57.328125 34.859375 57.328125 23.390625 
Q 57.328125 12.15625 50.6875 5.359375 
Q 44.046875 -1.421875 33.015625 -1.421875 
Q 20.359375 -1.421875 13.671875 8.265625 
Q 6.984375 17.96875 6.984375 36.375 
Q 6.984375 53.65625 15.1875 63.9375 
Q 23.390625 74.21875 37.203125 74.21875 
Q 40.921875 74.21875 44.703125 73.484375 
Q 48.484375 72.75 52.59375 71.296875 
z
" id="DejaVuSans-36"/>
      </defs>
      <g transform="translate(307.682869 322.182437)scale(0.1 -0.1)">
       <use xlink:href="#DejaVuSans-30"/>
       <use x="63.623047" xlink:href="#DejaVuSans-2e"/>
       <use x="95.410156" xlink:href="#DejaVuSans-30"/>
       <use x="159.033203" xlink:href="#DejaVuSans-30"/>
       <use x="222.65625" xlink:href="#DejaVuSans-30"/>
       <use x="286.279297" xlink:href="#DejaVuSans-36"/>
      </g>
     </g>
    </g>
    <g id="xtick_8">
     <g id="line2d_8">
      <g>
       <use style="stroke:#000000;stroke-width:0.8;" x="367.069091" xlink:href="#mbe699aa3d3" y="307.584"/>
      </g>
     </g>
     <g id="text_8">
      <!-- 0.0007 -->
      <defs>
       <path d="M 8.203125 72.90625 
L 55.078125 72.90625 
L 55.078125 68.703125 
L 28.609375 0 
L 18.3125 0 
L 43.21875 64.59375 
L 8.203125 64.59375 
z
" id="DejaVuSans-37"/>
      </defs>
      <g transform="translate(349.573778 322.182437)scale(0.1 -0.1)">
       <use xlink:href="#DejaVuSans-30"/>
       <use x="63.623047" xlink:href="#DejaVuSans-2e"/>
       <use x="95.410156" xlink:href="#DejaVuSans-30"/>
       <use x="159.033203" xlink:href="#DejaVuSans-30"/>
       <use x="222.65625" xlink:href="#DejaVuSans-30"/>
       <use x="286.279297" xlink:href="#DejaVuSans-37"/>
      </g>
     </g>
    </g>
    <g id="xtick_9">
     <g id="line2d_9">
      <g>
       <use style="stroke:#000000;stroke-width:0.8;" x="408.96" xlink:href="#mbe699aa3d3" y="307.584"/>
      </g>
     </g>
     <g id="text_9">
      <!-- 0.0008 -->
      <defs>
       <path d="M 31.78125 34.625 
Q 24.75 34.625 20.71875 30.859375 
Q 16.703125 27.09375 16.703125 20.515625 
Q 16.703125 13.921875 20.71875 10.15625 
Q 24.75 6.390625 31.78125 6.390625 
Q 38.8125 6.390625 42.859375 10.171875 
Q 46.921875 13.96875 46.921875 20.515625 
Q 46.921875 27.09375 42.890625 30.859375 
Q 38.875 34.625 31.78125 34.625 
z
M 21.921875 38.8125 
Q 15.578125 40.375 12.03125 44.71875 
Q 8.5 49.078125 8.5 55.328125 
Q 8.5 64.0625 14.71875 69.140625 
Q 20.953125 74.21875 31.78125 74.21875 
Q 42.671875 74.21875 48.875 69.140625 
Q 55.078125 64.0625 55.078125 55.328125 
Q 55.078125 49.078125 51.53125 44.71875 
Q 48 40.375 41.703125 38.8125 
Q 48.828125 37.15625 52.796875 32.3125 
Q 56.78125 27.484375 56.78125 20.515625 
Q 56.78125 9.90625 50.3125 4.234375 
Q 43.84375 -1.421875 31.78125 -1.421875 
Q 19.734375 -1.421875 13.25 4.234375 
Q 6.78125 9.90625 6.78125 20.515625 
Q 6.78125 27.484375 10.78125 32.3125 
Q 14.796875 37.15625 21.921875 38.8125 
z
M 18.3125 54.390625 
Q 18.3125 48.734375 21.84375 45.5625 
Q 25.390625 42.390625 31.78125 42.390625 
Q 38.140625 42.390625 41.71875 45.5625 
Q 45.3125 48.734375 45.3125 54.390625 
Q 45.3125 60.0625 41.71875 63.234375 
Q 38.140625 66.40625 31.78125 66.40625 
Q 25.390625 66.40625 21.84375 63.234375 
Q 18.3125 60.0625 18.3125 54.390625 
z
" id="DejaVuSans-38"/>
      </defs>
      <g transform="translate(391.464687 322.182437)scale(0.1 -0.1)">
       <use xlink:href="#DejaVuSans-30"/>
       <use x="63.623047" xlink:href="#DejaVuSans-2e"/>
       <use x="95.410156" xlink:href="#DejaVuSans-30"/>
       <use x="159.033203" xlink:href="#DejaVuSans-30"/>
       <use x="222.65625" xlink:href="#DejaVuSans-30"/>
       <use x="286.279297" xlink:href="#DejaVuSans-38"/>
      </g>
     </g>
    </g>
    <g id="text_10">
     <!-- Time (s) -->
     <defs>
      <path d="M -0.296875 72.90625 
L 61.375 72.90625 
L 61.375 64.59375 
L 35.5 64.59375 
L 35.5 0 
L 25.59375 0 
L 25.59375 64.59375 
L -0.296875 64.59375 
z
" id="DejaVuSans-54"/>
      <path d="M 9.421875 54.6875 
L 18.40625 54.6875 
L 18.40625 0 
L 9.421875 0 
z
M 9.421875 75.984375 
L 18.40625 75.984375 
L 18.40625 64.59375 
L 9.421875 64.59375 
z
" id="DejaVuSans-69"/>
      <path d="M 52 44.1875 
Q 55.375 50.25 60.0625 53.125 
Q 64.75 56 71.09375 56 
Q 79.640625 56 84.28125 50.015625 
Q 88.921875 44.046875 88.921875 33.015625 
L 88.921875 0 
L 79.890625 0 
L 79.890625 32.71875 
Q 79.890625 40.578125 77.09375 44.375 
Q 74.3125 48.1875 68.609375 48.1875 
Q 61.625 48.1875 57.5625 43.546875 
Q 53.515625 38.921875 53.515625 30.90625 
L 53.515625 0 
L 44.484375 0 
L 44.484375 32.71875 
Q 44.484375 40.625 41.703125 44.40625 
Q 38.921875 48.1875 33.109375 48.1875 
Q 26.21875 48.1875 22.15625 43.53125 
Q 18.109375 38.875 18.109375 30.90625 
L 18.109375 0 
L 9.078125 0 
L 9.078125 54.6875 
L 18.109375 54.6875 
L 18.109375 46.1875 
Q 21.1875 51.21875 25.484375 53.609375 
Q 29.78125 56 35.6875 56 
Q 41.65625 56 45.828125 52.96875 
Q 50 49.953125 52 44.1875 
z
" id="DejaVuSans-6d"/>
      <path d="M 56.203125 29.59375 
L 56.203125 25.203125 
L 14.890625 25.203125 
Q 15.484375 15.921875 20.484375 11.0625 
Q 25.484375 6.203125 34.421875 6.203125 
Q 39.59375 6.203125 44.453125 7.46875 
Q 49.3125 8.734375 54.109375 11.28125 
L 54.109375 2.78125 
Q 49.265625 0.734375 44.1875 -0.34375 
Q 39.109375 -1.421875 33.890625 -1.421875 
Q 20.796875 -1.421875 13.15625 6.1875 
Q 5.515625 13.8125 5.515625 26.8125 
Q 5.515625 40.234375 12.765625 48.109375 
Q 20.015625 56 32.328125 56 
Q 43.359375 56 49.78125 48.890625 
Q 56.203125 41.796875 56.203125 29.59375 
z
M 47.21875 32.234375 
Q 47.125 39.59375 43.09375 43.984375 
Q 39.0625 48.390625 32.421875 48.390625 
Q 24.90625 48.390625 20.390625 44.140625 
Q 15.875 39.890625 15.1875 32.171875 
z
" id="DejaVuSans-65"/>
      <path id="DejaVuSans-20"/>
      <path d="M 31 75.875 
Q 24.46875 64.65625 21.28125 53.65625 
Q 18.109375 42.671875 18.109375 31.390625 
Q 18.109375 20.125 21.3125 9.0625 
Q 24.515625 -2 31 -13.1875 
L 23.1875 -13.1875 
Q 15.875 -1.703125 12.234375 9.375 
Q 8.59375 20.453125 8.59375 31.390625 
Q 8.59375 42.28125 12.203125 53.3125 
Q 15.828125 64.359375 23.1875 75.875 
z
" id="DejaVuSans-28"/>
      <path d="M 44.28125 53.078125 
L 44.28125 44.578125 
Q 40.484375 46.53125 36.375 47.5 
Q 32.28125 48.484375 27.875 48.484375 
Q 21.1875 48.484375 17.84375 46.4375 
Q 14.5 44.390625 14.5 40.28125 
Q 14.5 37.15625 16.890625 35.375 
Q 19.28125 33.59375 26.515625 31.984375 
L 29.59375 31.296875 
Q 39.15625 29.25 43.1875 25.515625 
Q 47.21875 21.78125 47.21875 15.09375 
Q 47.21875 7.46875 41.1875 3.015625 
Q 35.15625 -1.421875 24.609375 -1.421875 
Q 20.21875 -1.421875 15.453125 -0.5625 
Q 10.6875 0.296875 5.421875 2 
L 5.421875 11.28125 
Q 10.40625 8.6875 15.234375 7.390625 
Q 20.0625 6.109375 24.8125 6.109375 
Q 31.15625 6.109375 34.5625 8.28125 
Q 37.984375 10.453125 37.984375 14.40625 
Q 37.984375 18.0625 35.515625 20.015625 
Q 33.0625 21.96875 24.703125 23.78125 
L 21.578125 24.515625 
Q 13.234375 26.265625 9.515625 29.90625 
Q 5.8125 33.546875 5.8125 39.890625 
Q 5.8125 47.609375 11.28125 51.796875 
Q 16.75 56 26.8125 56 
Q 31.78125 56 36.171875 55.265625 
Q 40.578125 54.546875 44.28125 53.078125 
z
" id="DejaVuSans-73"/>
      <path d="M 8.015625 75.875 
L 15.828125 75.875 
Q 23.140625 64.359375 26.78125 53.3125 
Q 30.421875 42.28125 30.421875 31.390625 
Q 30.421875 20.453125 26.78125 9.375 
Q 23.140625 -1.703125 15.828125 -13.1875 
L 8.015625 -13.1875 
Q 14.5 -2 17.703125 9.0625 
Q 20.90625 20.125 20.90625 31.390625 
Q 20.90625 42.671875 17.703125 53.65625 
Q 14.5 64.65625 8.015625 75.875 
z
" id="DejaVuSans-29"/>
     </defs>
     <g transform="translate(215.677188 335.860562)scale(0.1 -0.1)">
      <use xlink:href="#DejaVuSans-54"/>
      <use x="61.037109" xlink:href="#DejaVuSans-69"/>
      <use x="88.820312" xlink:href="#DejaVuSans-6d"/>
      <use x="186.232422" xlink:href="#DejaVuSans-65"/>
      <use x="247.755859" xlink:href="#DejaVuSans-20"/>
      <use x="279.542969" xlink:href="#DejaVuSans-28"/>
      <use x="318.556641" xlink:href="#DejaVuSans-73"/>
      <use x="370.65625" xlink:href="#DejaVuSans-29"/>
     </g>
    </g>
   </g>
   <g id="matplotlib.axis_2">
    <g id="ytick_1">
     <g id="line2d_10">
      <defs>
       <path d="M 0 0 
L -3.5 0 
" id="me6168f2cdb" style="stroke:#000000;stroke-width:0.8;"/>
      </defs>
      <g>
       <use style="stroke:#000000;stroke-width:0.8;" x="57.6" xlink:href="#me6168f2cdb" y="288.576"/>
      </g>
     </g>
     <g id="text_11">
      <!-- −60 -->
      <defs>
       <path d="M 10.59375 35.5 
L 73.1875 35.5 
L 73.1875 27.203125 
L 10.59375 27.203125 
z
" id="DejaVuSans-2212"/>
      </defs>
      <g transform="translate(29.495313 292.375219)scale(0.1 -0.1)">
       <use xlink:href="#DejaVuSans-2212"/>
       <use x="83.789062" xlink:href="#DejaVuSans-36"/>
       <use x="147.412109" xlink:href="#DejaVuSans-30"/>
      </g>
     </g>
    </g>
    <g id="ytick_2">
     <g id="line2d_11">
      <g>
       <use style="stroke:#000000;stroke-width:0.8;" x="57.6" xlink:href="#me6168f2cdb" y="250.56"/>
      </g>
     </g>
     <g id="text_12">
      <!-- −40 -->
      <g transform="translate(29.495313 254.359219)scale(0.1 -0.1)">
       <use xlink:href="#DejaVuSans-2212"/>
       <use x="83.789062" xlink:href="#DejaVuSans-34"/>
       <use x="147.412109" xlink:href="#DejaVuSans-30"/>
      </g>
     </g>
    </g>
    <g id="ytick_3">
     <g id="line2d_12">
      <g>
       <use style="stroke:#000000;stroke-width:0.8;" x="57.6" xlink:href="#me6168f2cdb" y="212.544"/>
      </g>
     </g>
     <g id="text_13">
      <!-- −20 -->
      <g transform="translate(29.495313 216.343219)scale(0.1 -0.1)">
       <use xlink:href="#DejaVuSans-2212"/>
       <use x="83.789062" xlink:href="#DejaVuSans-32"/>
       <use x="147.412109" xlink:href="#DejaVuSans-30"/>
      </g>
     </g>
    </g>
    <g id="ytick_4">
     <g id="line2d_13">
      <g>
       <use style="stroke:#000000;stroke-width:0.8;" x="57.6" xlink:href="#me6168f2cdb" y="174.528"/>
      </g>
     </g>
     <g id="text_14">
      <!-- 0 -->
      <g transform="translate(44.2375 178.327219)scale(0.1 -0.1)">
       <use xlink:href="#DejaVuSans-30"/>
      </g>
     </g>
    </g>
    <g id="ytick_5">
     <g id="line2d_14">
      <g>
       <use style="stroke:#000000;stroke-width:0.8;" x="57.6" xlink:href="#me6168f2cdb" y="136.512"/>
      </g>
     </g>
     <g id="text_15">
      <!-- 20 -->
      <g transform="translate(37.875 140.311219)scale(0.1 -0.1)">
       <use xlink:href="#DejaVuSans-32"/>
       <use x="63.623047" xlink:href="#DejaVuSans-30"/>
      </g>
     </g>
    </g>
    <g id="ytick_6">
     <g id="line2d_15">
      <g>
       <use style="stroke:#000000;stroke-width:0.8;" x="57.6" xlink:href="#me6168f2cdb" y="98.496"/>
      </g>
     </g>
     <g id="text_16">
      <!-- 40 -->
      <g transform="translate(37.875 102.295219)scale(0.1 -0.1)">
       <use xlink:href="#DejaVuSans-34"/>
       <use x="63.623047" xlink:href="#DejaVuSans-30"/>
      </g>
     </g>
    </g>
    <g id="ytick_7">
     <g id="line2d_16">
      <g>
       <use style="stroke:#000000;stroke-width:0.8;" x="57.6" xlink:href="#me6168f2cdb" y="60.48"/>
      </g>
     </g>
     <g id="text_17">
      <!-- 60 -->
      <g transform="translate(37.875 64.279219)scale(0.1 -0.1)">
       <use xlink:href="#DejaVuSans-36"/>
       <use x="63.623047" xlink:href="#DejaVuSans-30"/>
      </g>
     </g>
    </g>
    <g id="text_18">
     <!-- Voltage ($\mu$V) -->
     <defs>
      <path d="M 28.609375 0 
L 0.78125 72.90625 
L 11.078125 72.90625 
L 34.1875 11.53125 
L 57.328125 72.90625 
L 67.578125 72.90625 
L 39.796875 0 
z
" id="DejaVuSans-56"/>
      <path d="M 30.609375 48.390625 
Q 23.390625 48.390625 19.1875 42.75 
Q 14.984375 37.109375 14.984375 27.296875 
Q 14.984375 17.484375 19.15625 11.84375 
Q 23.34375 6.203125 30.609375 6.203125 
Q 37.796875 6.203125 41.984375 11.859375 
Q 46.1875 17.53125 46.1875 27.296875 
Q 46.1875 37.015625 41.984375 42.703125 
Q 37.796875 48.390625 30.609375 48.390625 
z
M 30.609375 56 
Q 42.328125 56 49.015625 48.375 
Q 55.71875 40.765625 55.71875 27.296875 
Q 55.71875 13.875 49.015625 6.21875 
Q 42.328125 -1.421875 30.609375 -1.421875 
Q 18.84375 -1.421875 12.171875 6.21875 
Q 5.515625 13.875 5.515625 27.296875 
Q 5.515625 40.765625 12.171875 48.375 
Q 18.84375 56 30.609375 56 
z
" id="DejaVuSans-6f"/>
      <path d="M 9.421875 75.984375 
L 18.40625 75.984375 
L 18.40625 0 
L 9.421875 0 
z
" id="DejaVuSans-6c"/>
      <path d="M 18.3125 70.21875 
L 18.3125 54.6875 
L 36.8125 54.6875 
L 36.8125 47.703125 
L 18.3125 47.703125 
L 18.3125 18.015625 
Q 18.3125 11.328125 20.140625 9.421875 
Q 21.96875 7.515625 27.59375 7.515625 
L 36.8125 7.515625 
L 36.8125 0 
L 27.59375 0 
Q 17.1875 0 13.234375 3.875 
Q 9.28125 7.765625 9.28125 18.015625 
L 9.28125 47.703125 
L 2.6875 47.703125 
L 2.6875 54.6875 
L 9.28125 54.6875 
L 9.28125 70.21875 
z
" id="DejaVuSans-74"/>
      <path d="M 34.28125 27.484375 
Q 23.390625 27.484375 19.1875 25 
Q 14.984375 22.515625 14.984375 16.5 
Q 14.984375 11.71875 18.140625 8.90625 
Q 21.296875 6.109375 26.703125 6.109375 
Q 34.1875 6.109375 38.703125 11.40625 
Q 43.21875 16.703125 43.21875 25.484375 
L 43.21875 27.484375 
z
M 52.203125 31.203125 
L 52.203125 0 
L 43.21875 0 
L 43.21875 8.296875 
Q 40.140625 3.328125 35.546875 0.953125 
Q 30.953125 -1.421875 24.3125 -1.421875 
Q 15.921875 -1.421875 10.953125 3.296875 
Q 6 8.015625 6 15.921875 
Q 6 25.140625 12.171875 29.828125 
Q 18.359375 34.515625 30.609375 34.515625 
L 43.21875 34.515625 
L 43.21875 35.40625 
Q 43.21875 41.609375 39.140625 45 
Q 35.0625 48.390625 27.6875 48.390625 
Q 23 48.390625 18.546875 47.265625 
Q 14.109375 46.140625 10.015625 43.890625 
L 10.015625 52.203125 
Q 14.9375 54.109375 19.578125 55.046875 
Q 24.21875 56 28.609375 56 
Q 40.484375 56 46.34375 49.84375 
Q 52.203125 43.703125 52.203125 31.203125 
z
" id="DejaVuSans-61"/>
      <path d="M 45.40625 27.984375 
Q 45.40625 37.75 41.375 43.109375 
Q 37.359375 48.484375 30.078125 48.484375 
Q 22.859375 48.484375 18.828125 43.109375 
Q 14.796875 37.75 14.796875 27.984375 
Q 14.796875 18.265625 18.828125 12.890625 
Q 22.859375 7.515625 30.078125 7.515625 
Q 37.359375 7.515625 41.375 12.890625 
Q 45.40625 18.265625 45.40625 27.984375 
z
M 54.390625 6.78125 
Q 54.390625 -7.171875 48.1875 -13.984375 
Q 42 -20.796875 29.203125 -20.796875 
Q 24.46875 -20.796875 20.265625 -20.09375 
Q 16.0625 -19.390625 12.109375 -17.921875 
L 12.109375 -9.1875 
Q 16.0625 -11.328125 19.921875 -12.34375 
Q 23.78125 -13.375 27.78125 -13.375 
Q 36.625 -13.375 41.015625 -8.765625 
Q 45.40625 -4.15625 45.40625 5.171875 
L 45.40625 9.625 
Q 42.625 4.78125 38.28125 2.390625 
Q 33.9375 0 27.875 0 
Q 17.828125 0 11.671875 7.65625 
Q 5.515625 15.328125 5.515625 27.984375 
Q 5.515625 40.671875 11.671875 48.328125 
Q 17.828125 56 27.875 56 
Q 33.9375 56 38.28125 53.609375 
Q 42.625 51.21875 45.40625 46.390625 
L 45.40625 54.6875 
L 54.390625 54.6875 
z
" id="DejaVuSans-67"/>
      <path d="M -1.3125 -20.796875 
L 13.375 54.6875 
L 22.40625 54.6875 
L 15.765625 20.65625 
Q 15.578125 19.625 15.421875 18.359375 
Q 15.28125 17.09375 15.28125 15.828125 
Q 15.28125 11.28125 18.140625 8.828125 
Q 21 6.390625 26.3125 6.390625 
Q 33.546875 6.390625 37.984375 10.484375 
Q 42.4375 14.59375 44 22.796875 
L 50.203125 54.6875 
L 59.1875 54.6875 
L 51.03125 12.640625 
Q 50.828125 11.71875 50.75 11.03125 
Q 50.6875 10.359375 50.6875 9.8125 
Q 50.6875 8.296875 51.296875 7.59375 
Q 51.90625 6.890625 53.21875 6.890625 
Q 53.71875 6.890625 54.5625 7.125 
Q 55.421875 7.375 56.984375 8.015625 
L 55.609375 0.78125 
Q 53.46875 -0.296875 51.515625 -0.859375 
Q 49.5625 -1.421875 47.703125 -1.421875 
Q 44.484375 -1.421875 42.65625 0.625 
Q 40.828125 2.6875 40.828125 6.296875 
Q 38.09375 2.390625 34.296875 0.484375 
Q 30.515625 -1.421875 25.390625 -1.421875 
Q 20.84375 -1.421875 17.453125 0.671875 
Q 14.0625 2.78125 12.984375 6.203125 
L 7.71875 -20.796875 
z
" id="DejaVuSans-Oblique-3bc"/>
     </defs>
     <g transform="translate(23.395312 205.778)rotate(-90)scale(0.1 -0.1)">
      <use transform="translate(0 0.015625)" xlink:href="#DejaVuSans-56"/>
      <use transform="translate(68.408203 0.015625)" xlink:href="#DejaVuSans-6f"/>
      <use transform="translate(129.589844 0.015625)" xlink:href="#DejaVuSans-6c"/>
      <use transform="translate(157.373047 0.015625)" xlink:href="#DejaVuSans-74"/>
      <use transform="translate(196.582031 0.015625)" xlink:href="#DejaVuSans-61"/>
      <use transform="translate(257.861328 0.015625)" xlink:href="#DejaVuSans-67"/>
      <use transform="translate(321.337891 0.015625)" xlink:href="#DejaVuSans-65"/>
      <use transform="translate(382.861328 0.015625)" xlink:href="#DejaVuSans-20"/>
      <use transform="translate(414.648438 0.015625)" xlink:href="#DejaVuSans-28"/>
      <use transform="translate(453.662109 0.015625)" xlink:href="#DejaVuSans-Oblique-3bc"/>
      <use transform="translate(517.285156 0.015625)" xlink:href="#DejaVuSans-56"/>
      <use transform="translate(585.693359 0.015625)" xlink:href="#DejaVuSans-29"/>
     </g>
    </g>
   </g>
   <g id="line2d_17">
    <path clip-path="url(#pa52522a49e)" d="M 73.832727 174.13672 
L 84.305455 173.73577 
L 94.778182 172.651374 
L 105.250909 170.927738 
L 115.723636 170.276065 
L 126.196364 173.836612 
L 136.669091 184.337288 
L 147.141818 201.442071 
L 157.614545 220.274634 
L 168.087273 233.776392 
L 178.56 237.67469 
L 189.032727 233.113667 
L 199.505455 224.432634 
L 209.978182 214.896862 
L 220.450909 205.271644 
L 230.923636 195.207488 
L 241.396364 184.856002 
L 251.869091 175.253578 
L 262.341818 167.192445 
L 272.814545 160.395635 
L 283.287273 154.173485 
L 293.76 148.26802 
L 304.232727 142.97693 
L 314.705455 138.935658 
L 325.178182 136.248153 
L 335.650909 134.248929 
L 346.123636 132.646856 
L 356.596364 131.801442 
L 367.069091 131.723048 
L 377.541818 131.813184 
L 388.014545 131.774505 
L 398.487273 132.016594 
" style="fill:none;stroke:#000000;stroke-linecap:square;stroke-width:1.5;"/>
   </g>
   <g id="line2d_18">
    <path clip-path="url(#pa52522a49e)" d="M 73.832727 172.3896 
L 84.305455 167.4594 
L 94.778182 156.114 
L 105.250909 142.5114 
L 115.723636 138.0564 
L 126.196364 149.6394 
L 136.669091 174.0528 
L 147.141818 199.2978 
L 157.614545 215.217 
L 168.087273 219.078 
L 178.56 214.5042 
L 189.032727 206.9604 
L 199.505455 201.4362 
L 209.978182 198.9414 
L 220.450909 196.3872 
L 230.923636 192.1698 
L 241.396364 186.6456 
L 251.869091 179.1612 
L 262.341818 169.776 
L 272.814545 161.4006 
L 283.287273 155.5794 
L 293.76 151.659 
L 304.232727 149.5206 
L 314.705455 147.9762 
L 325.178182 145.125 
L 335.650909 139.3038 
L 346.123636 131.1066 
L 356.596364 124.0974 
L 367.069091 120.0582 
L 377.541818 118.395 
L 388.014545 116.8506 
L 398.487273 112.6926 
" style="fill:none;stroke:#333399;stroke-linecap:square;stroke-width:1.5;"/>
   </g>
   <g id="line2d_19">
    <path clip-path="url(#pa52522a49e)" d="M 73.832727 164.5488 
L 84.305455 174.6468 
L 94.778182 180.3492 
L 105.250909 182.0124 
L 115.723636 185.3982 
L 126.196364 192.8232 
L 136.669091 200.7234 
L 147.141818 207.8514 
L 157.614545 215.2764 
L 168.087273 222.9984 
L 178.56 228.4038 
L 189.032727 227.5722 
L 199.505455 218.6622 
L 209.978182 205.0596 
L 220.450909 193.4172 
L 230.923636 187.002 
L 241.396364 181.656 
L 251.869091 173.7558 
L 262.341818 165.321 
L 272.814545 158.6682 
L 283.287273 152.9658 
L 293.76 146.1348 
L 304.232727 139.0068 
L 314.705455 133.4232 
L 325.178182 128.9682 
L 335.650909 127.602 
L 346.123636 133.7796 
L 356.596364 145.3032 
L 367.069091 151.1838 
L 377.541818 145.2438 
L 388.014545 134.7894 
L 398.487273 129.5622 
" style="fill:none;stroke:#2c40a6;stroke-linecap:square;stroke-width:1.5;"/>
   </g>
   <g id="line2d_20">
    <path clip-path="url(#pa52522a49e)" d="M 73.832727 177.3792 
L 84.305455 190.269 
L 94.778182 198.9414 
L 105.250909 197.5752 
L 115.723636 189.0216 
L 126.196364 183.3192 
L 136.669091 189.4968 
L 147.141818 205.5942 
L 157.614545 222.642 
L 168.087273 234.4626 
L 178.56 239.571 
L 189.032727 239.7492 
L 199.505455 237.0168 
L 209.978182 230.2452 
L 220.450909 216.4644 
L 230.923636 199.0602 
L 241.396364 187.1802 
L 251.869091 183.2004 
L 262.341818 178.5672 
L 272.814545 164.7864 
L 283.287273 147.6198 
L 293.76 140.7294 
L 304.232727 146.2536 
L 314.705455 153.0252 
L 325.178182 151.1244 
L 335.650909 141.9174 
L 346.123636 134.73 
L 356.596364 135.027 
L 367.069091 140.7888 
L 377.541818 145.0656 
L 388.014545 145.1844 
L 398.487273 144.4716 
" style="fill:none;stroke:#264eb4;stroke-linecap:square;stroke-width:1.5;"/>
   </g>
   <g id="line2d_21">
    <path clip-path="url(#pa52522a49e)" d="M 73.832727 196.8624 
L 84.305455 197.5158 
L 94.778182 187.7148 
L 105.250909 173.8152 
L 115.723636 167.697 
L 126.196364 174.2904 
L 136.669091 188.4276 
L 147.141818 202.743 
L 157.614545 215.5734 
L 168.087273 227.6316 
L 178.56 234.7002 
L 189.032727 232.146 
L 199.505455 221.6322 
L 209.978182 208.8612 
L 220.450909 197.2782 
L 230.923636 188.3088 
L 241.396364 183.0222 
L 251.869091 180.4086 
L 262.341818 176.4288 
L 272.814545 166.2714 
L 283.287273 152.253 
L 293.76 143.343 
L 304.232727 141.6204 
L 314.705455 138.7692 
L 325.178182 130.3938 
L 335.650909 122.0184 
L 346.123636 120.5928 
L 356.596364 126.9486 
L 367.069091 135.324 
L 377.541818 137.1654 
L 388.014545 130.869 
L 398.487273 124.6914 
" style="fill:none;stroke:#1f5bc1;stroke-linecap:square;stroke-width:1.5;"/>
   </g>
   <g id="line2d_22">
    <path clip-path="url(#pa52522a49e)" d="M 73.832727 176.7852 
L 84.305455 175.1814 
L 94.778182 174.1716 
L 105.250909 172.746 
L 115.723636 171.6768 
L 126.196364 176.3694 
L 136.669091 191.1006 
L 147.141818 211.356 
L 157.614545 228.4038 
L 168.087273 237.9672 
L 178.56 240.6996 
L 189.032727 237.1356 
L 199.505455 227.5128 
L 209.978182 215.9298 
L 220.450909 204.7032 
L 230.923636 190.7442 
L 241.396364 174.7062 
L 251.869091 163.539 
L 262.341818 161.5788 
L 272.814545 163.4796 
L 283.287273 162.2916 
L 293.76 155.52 
L 304.232727 144.828 
L 314.705455 137.2248 
L 325.178182 137.9376 
L 335.650909 143.1054 
L 346.123636 144.2934 
L 356.596364 137.2248 
L 367.069091 125.4042 
L 377.541818 117.504 
L 388.014545 117.3258 
L 398.487273 121.6026 
" style="fill:none;stroke:#1868ce;stroke-linecap:square;stroke-width:1.5;"/>
   </g>
   <g id="line2d_23">
    <path clip-path="url(#pa52522a49e)" d="M 73.832727 151.5402 
L 84.305455 139.5414 
L 94.778182 132.2946 
L 105.250909 134.3142 
L 115.723636 143.8182 
L 126.196364 160.2126 
L 136.669091 181.656 
L 147.141818 202.743 
L 157.614545 220.3848 
L 168.087273 231.9084 
L 178.56 234.7002 
L 189.032727 229.77 
L 199.505455 219.2562 
L 209.978182 204.4062 
L 220.450909 189.972 
L 230.923636 180.9432 
L 241.396364 175.5378 
L 251.869091 171.558 
L 262.341818 171.4392 
L 272.814545 176.5476 
L 283.287273 182.3094 
L 293.76 181.953 
L 304.232727 174.231 
L 314.705455 164.7864 
L 325.178182 160.1532 
L 335.650909 159.381 
L 346.123636 158.9058 
L 356.596364 157.4208 
L 367.069091 154.2132 
L 377.541818 150.7086 
L 388.014545 149.3424 
L 398.487273 148.986 
" style="fill:none;stroke:#1276dc;stroke-linecap:square;stroke-width:1.5;"/>
   </g>
   <g id="line2d_24">
    <path clip-path="url(#pa52522a49e)" d="M 73.832727 164.727 
L 84.305455 159.4998 
L 94.778182 160.9848 
L 105.250909 168.1128 
L 115.723636 176.0724 
L 126.196364 184.2102 
L 136.669091 195.021 
L 147.141818 210.7026 
L 157.614545 228.285 
L 168.087273 239.868 
L 178.56 240.5214 
L 189.032727 232.0866 
L 199.505455 219.3156 
L 209.978182 205.2378 
L 220.450909 191.5164 
L 230.923636 181.8342 
L 241.396364 176.904 
L 251.869091 168.7662 
L 262.341818 152.0154 
L 272.814545 133.839 
L 283.287273 124.9884 
L 293.76 125.2854 
L 304.232727 127.3644 
L 314.705455 125.9388 
L 325.178182 121.2462 
L 335.650909 118.692 
L 346.123636 122.3748 
L 356.596364 126.5328 
L 367.069091 123.5034 
L 377.541818 115.9596 
L 388.014545 113.2272 
L 398.487273 118.5138 
" style="fill:none;stroke:#0b83e9;stroke-linecap:square;stroke-width:1.5;"/>
   </g>
   <g id="line2d_25">
    <path clip-path="url(#pa52522a49e)" d="M 73.832727 180.468 
L 84.305455 186.2298 
L 94.778182 193.6548 
L 105.250909 198.585 
L 115.723636 197.9316 
L 126.196364 194.4864 
L 136.669091 195.4368 
L 147.141818 203.5746 
L 157.614545 214.8012 
L 168.087273 221.6916 
L 178.56 219.375 
L 189.032727 212.4252 
L 199.505455 211.1184 
L 209.978182 216.9396 
L 220.450909 221.0976 
L 230.923636 215.6328 
L 241.396364 204.2874 
L 251.869091 195.912 
L 262.341818 189.4374 
L 272.814545 178.7454 
L 283.287273 161.4006 
L 293.76 144.4122 
L 304.232727 138.9474 
L 314.705455 144.8874 
L 325.178182 150.1146 
L 335.650909 144.5904 
L 346.123636 134.4924 
L 356.596364 135.621 
L 367.069091 149.1048 
L 377.541818 162.1134 
L 388.014545 164.9646 
L 398.487273 157.5396 
" style="fill:none;stroke:#0490f6;stroke-linecap:square;stroke-width:1.5;"/>
   </g>
   <g id="line2d_26">
    <path clip-path="url(#pa52522a49e)" d="M 73.832727 167.5188 
L 84.305455 168.588 
L 94.778182 170.1324 
L 105.250909 171.7362 
L 115.723636 175.2408 
L 126.196364 182.6064 
L 136.669091 194.6646 
L 147.141818 210.9402 
L 157.614545 226.503 
L 168.087273 237.7296 
L 178.56 243.6696 
L 189.032727 242.3628 
L 199.505455 233.631 
L 209.978182 220.4442 
L 220.450909 205.5942 
L 230.923636 191.2194 
L 241.396364 179.9928 
L 251.869091 172.152 
L 262.341818 164.727 
L 272.814545 155.6982 
L 283.287273 145.0656 
L 293.76 135.918 
L 304.232727 131.8788 
L 314.705455 132.8292 
L 325.178182 134.433 
L 335.650909 133.1856 
L 346.123636 131.2848 
L 356.596364 130.4532 
L 367.069091 127.7208 
L 377.541818 121.2462 
L 388.014545 115.3656 
L 398.487273 115.0092 
" style="fill:none;stroke:#009cf4;stroke-linecap:square;stroke-width:1.5;"/>
   </g>
   <g id="line2d_27">
    <path clip-path="url(#pa52522a49e)" d="M 73.832727 159.2622 
L 84.305455 160.569 
L 94.778182 164.2518 
L 105.250909 166.5684 
L 115.723636 169.1226 
L 126.196364 177.0822 
L 136.669091 190.566 
L 147.141818 205.713 
L 157.614545 220.6224 
L 168.087273 234.6408 
L 178.56 245.8674 
L 189.032727 251.0946 
L 199.505455 249.0156 
L 209.978182 239.3928 
L 220.450909 223.0578 
L 230.923636 203.634 
L 241.396364 186.3486 
L 251.869091 175.3002 
L 262.341818 171.3204 
L 272.814545 172.9836 
L 283.287273 174.231 
L 293.76 168.6474 
L 304.232727 158.1336 
L 314.705455 147.7386 
L 325.178182 139.0068 
L 335.650909 132.4728 
L 346.123636 129.9186 
L 356.596364 132.4728 
L 367.069091 137.9376 
L 377.541818 141.7392 
L 388.014545 141.5016 
L 398.487273 139.0662 
" style="fill:none;stroke:#00a8d0;stroke-linecap:square;stroke-width:1.5;"/>
   </g>
   <g id="line2d_28">
    <path clip-path="url(#pa52522a49e)" d="M 73.832727 179.1612 
L 84.305455 162.4104 
L 94.778182 151.1244 
L 105.250909 149.4612 
L 115.723636 151.659 
L 126.196364 157.2426 
L 136.669091 170.964 
L 147.141818 191.8134 
L 157.614545 213.0192 
L 168.087273 227.2158 
L 178.56 233.2746 
L 189.032727 235.2942 
L 199.505455 234.4032 
L 209.978182 226.0872 
L 220.450909 208.3266 
L 230.923636 187.8336 
L 241.396364 174.5874 
L 251.869091 170.3106 
L 262.341818 168.1722 
L 272.814545 164.0142 
L 283.287273 160.0938 
L 293.76 158.3712 
L 304.232727 157.7178 
L 314.705455 153.738 
L 325.178182 144.1152 
L 335.650909 132.2946 
L 346.123636 124.1568 
L 356.596364 122.85 
L 367.069091 128.0178 
L 377.541818 136.0368 
L 388.014545 141.858 
L 398.487273 141.561 
" style="fill:none;stroke:#00b2b2;stroke-linecap:square;stroke-width:1.5;"/>
   </g>
   <g id="line2d_29">
    <path clip-path="url(#pa52522a49e)" d="M 73.832727 172.3896 
L 84.305455 177.6168 
L 94.778182 185.1012 
L 105.250909 188.3088 
L 115.723636 185.4576 
L 126.196364 183.6162 
L 136.669091 190.863 
L 147.141818 206.1288 
L 157.614545 221.0382 
L 168.087273 229.5324 
L 178.56 231.3738 
L 189.032727 228.6414 
L 199.505455 224.127 
L 209.978182 218.781 
L 220.450909 209.6928 
L 230.923636 197.0406 
L 241.396364 184.0914 
L 251.869091 173.1618 
L 262.341818 165.7962 
L 272.814545 161.8758 
L 283.287273 159.2028 
L 293.76 155.6982 
L 304.232727 150.6492 
L 314.705455 145.6596 
L 325.178182 142.155 
L 335.650909 138.3534 
L 346.123636 132.1758 
L 356.596364 125.226 
L 367.069091 121.2462 
L 377.541818 123.741 
L 388.014545 130.3938 
L 398.487273 134.0766 
" style="fill:none;stroke:#00bc94;stroke-linecap:square;stroke-width:1.5;"/>
   </g>
   <g id="line2d_30">
    <path clip-path="url(#pa52522a49e)" d="M 73.832727 173.2212 
L 84.305455 172.152 
L 94.778182 170.964 
L 105.250909 172.0926 
L 115.723636 173.4588 
L 126.196364 173.1618 
L 136.669091 177.498 
L 147.141818 192.942 
L 157.614545 214.1478 
L 168.087273 230.4234 
L 178.56 236.8386 
L 189.032727 236.1258 
L 199.505455 231.6114 
L 209.978182 223.3548 
L 220.450909 211.8312 
L 230.923636 198.2286 
L 241.396364 185.2794 
L 251.869091 176.4882 
L 262.341818 170.5482 
L 272.814545 163.6578 
L 283.287273 157.8366 
L 293.76 157.302 
L 304.232727 160.4502 
L 314.705455 161.6976 
L 325.178182 157.7178 
L 335.650909 148.9266 
L 346.123636 139.1256 
L 356.596364 132.8292 
L 367.069091 133.0074 
L 377.541818 138.7098 
L 388.014545 145.719 
L 398.487273 149.9958 
" style="fill:none;stroke:#00c677;stroke-linecap:square;stroke-width:1.5;"/>
   </g>
   <g id="line2d_31">
    <path clip-path="url(#pa52522a49e)" d="M 73.832727 172.3896 
L 84.305455 170.9046 
L 94.778182 166.212 
L 105.250909 161.163 
L 115.723636 159.8562 
L 126.196364 165.7962 
L 136.669091 179.8146 
L 147.141818 200.3076 
L 157.614545 219.969 
L 168.087273 229.176 
L 178.56 226.4436 
L 189.032727 219.2562 
L 199.505455 212.9598 
L 209.978182 206.3664 
L 220.450909 197.397 
L 230.923636 187.1208 
L 241.396364 176.904 
L 251.869091 168.1128 
L 262.341818 163.0638 
L 272.814545 162.4104 
L 283.287273 161.2818 
L 293.76 155.6388 
L 304.232727 147.6198 
L 314.705455 140.5512 
L 325.178182 135.5022 
L 335.650909 132.7698 
L 346.123636 133.3044 
L 356.596364 136.0368 
L 367.069091 139.5414 
L 377.541818 142.8678 
L 388.014545 145.719 
L 398.487273 146.4912 
" style="fill:none;stroke:#09ce68;stroke-linecap:square;stroke-width:1.5;"/>
   </g>
   <g id="line2d_32">
    <path clip-path="url(#pa52522a49e)" d="M 73.832727 185.3982 
L 84.305455 188.8434 
L 94.778182 187.299 
L 105.250909 181.5372 
L 115.723636 176.2506 
L 126.196364 178.6266 
L 136.669091 190.9224 
L 147.141818 209.5146 
L 157.614545 228.4632 
L 168.087273 241.5906 
L 178.56 245.6892 
L 189.032727 239.2146 
L 199.505455 223.9488 
L 209.978182 208.3266 
L 220.450909 199.0602 
L 230.923636 191.6946 
L 241.396364 178.1514 
L 251.869091 161.4006 
L 262.341818 153.144 
L 272.814545 155.5794 
L 283.287273 157.6584 
L 293.76 150.0552 
L 304.232727 135.7992 
L 314.705455 125.1666 
L 325.178182 123.5628 
L 335.650909 127.4832 
L 346.123636 128.79 
L 356.596364 125.523 
L 367.069091 124.3944 
L 377.541818 131.1066 
L 388.014545 141.6204 
L 398.487273 146.016 
" style="fill:none;stroke:#1dd26c;stroke-linecap:square;stroke-width:1.5;"/>
   </g>
   <g id="line2d_33">
    <path clip-path="url(#pa52522a49e)" d="M 73.832727 181.7154 
L 84.305455 181.359 
L 94.778182 175.0626 
L 105.250909 165.7962 
L 115.723636 160.6878 
L 126.196364 166.2714 
L 136.669091 183.6756 
L 147.141818 208.2672 
L 157.614545 233.037 
L 168.087273 249.966 
L 178.56 254.6586 
L 189.032727 247.293 
L 199.505455 232.6806 
L 209.978182 217.9494 
L 220.450909 206.604 
L 230.923636 195.2586 
L 241.396364 180.1116 
L 251.869091 163.836 
L 262.341818 151.3026 
L 272.814545 144.0558 
L 283.287273 138.294 
L 293.76 130.9878 
L 304.232727 123.5034 
L 314.705455 119.2266 
L 325.178182 120.5928 
L 335.650909 124.632 
L 346.123636 127.3644 
L 356.596364 129.2652 
L 367.069091 130.0968 
L 377.541818 125.226 
L 388.014545 115.6626 
L 398.487273 110.1384 
" style="fill:none;stroke:#31d670;stroke-linecap:square;stroke-width:1.5;"/>
   </g>
   <g id="line2d_34">
    <path clip-path="url(#pa52522a49e)" d="M 73.832727 165.1428 
L 84.305455 151.7778 
L 94.778182 142.0956 
L 105.250909 144.0558 
L 115.723636 153.9162 
L 126.196364 165.321 
L 136.669091 178.686 
L 147.141818 198.3474 
L 157.614545 220.6224 
L 168.087273 234.3438 
L 178.56 233.8686 
L 189.032727 222.7608 
L 199.505455 209.4552 
L 209.978182 198.1098 
L 220.450909 187.4772 
L 230.923636 174.3498 
L 241.396364 159.8562 
L 251.869091 151.1244 
L 262.341818 151.659 
L 272.814545 154.8072 
L 283.287273 152.0154 
L 293.76 142.6896 
L 304.232727 133.839 
L 314.705455 130.9878 
L 325.178182 133.542 
L 335.650909 136.2744 
L 346.123636 136.1556 
L 356.596364 136.5714 
L 367.069091 141.0858 
L 377.541818 147.4416 
L 388.014545 149.877 
L 398.487273 147.9762 
" style="fill:none;stroke:#45da74;stroke-linecap:square;stroke-width:1.5;"/>
   </g>
   <g id="line2d_35">
    <path clip-path="url(#pa52522a49e)" d="M 73.832727 188.7246 
L 84.305455 184.923 
L 94.778182 178.3296 
L 105.250909 172.8648 
L 115.723636 170.7858 
L 126.196364 174.9438 
L 136.669091 188.5464 
L 147.141818 211.1778 
L 157.614545 233.2152 
L 168.087273 244.323 
L 178.56 243.9666 
L 189.032727 236.2446 
L 199.505455 224.5428 
L 209.978182 213.0192 
L 220.450909 202.0896 
L 230.923636 188.0118 
L 241.396364 173.2806 
L 251.869091 163.1826 
L 262.341818 158.0742 
L 272.814545 154.0944 
L 283.287273 147.7386 
L 293.76 138.294 
L 304.232727 128.493 
L 314.705455 123.0282 
L 325.178182 123.8004 
L 335.650909 128.0772 
L 346.123636 130.8096 
L 356.596364 130.1562 
L 367.069091 128.5524 
L 377.541818 130.1562 
L 388.014545 132.7104 
L 398.487273 131.1066 
" style="fill:none;stroke:#5ddf79;stroke-linecap:square;stroke-width:1.5;"/>
   </g>
   <g id="line2d_36">
    <path clip-path="url(#pa52522a49e)" d="M 73.832727 159.9156 
L 84.305455 157.896 
L 94.778182 160.9848 
L 105.250909 169.479 
L 115.723636 180.5274 
L 126.196364 190.269 
L 136.669091 199.8324 
L 147.141818 211.4748 
L 157.614545 223.533 
L 168.087273 233.1558 
L 178.56 238.7988 
L 189.032727 240.2838 
L 199.505455 237.2544 
L 209.978182 229.77 
L 220.450909 216.2862 
L 230.923636 196.3872 
L 241.396364 173.9934 
L 251.869091 158.2524 
L 262.341818 154.4508 
L 272.814545 157.7178 
L 283.287273 157.3614 
L 293.76 148.9266 
L 304.232727 138.1752 
L 314.705455 133.1856 
L 325.178182 134.5518 
L 335.650909 137.5812 
L 346.123636 137.7594 
L 356.596364 133.9578 
L 367.069091 129.384 
L 377.541818 127.2456 
L 388.014545 126.8892 
L 398.487273 127.1862 
" style="fill:none;stroke:#71e37d;stroke-linecap:square;stroke-width:1.5;"/>
   </g>
   <g id="line2d_37">
    <path clip-path="url(#pa52522a49e)" d="M 73.832727 166.9248 
L 84.305455 165.915 
L 94.778182 163.9548 
L 105.250909 164.43 
L 115.723636 170.6076 
L 126.196364 181.7154 
L 136.669091 192.348 
L 147.141818 201.9114 
L 157.614545 214.7418 
L 168.087273 229.6512 
L 178.56 239.2146 
L 189.032727 239.3334 
L 199.505455 232.3836 
L 209.978182 219.1968 
L 220.450909 201.258 
L 230.923636 183.7944 
L 241.396364 169.9542 
L 251.869091 158.193 
L 262.341818 147.1446 
L 272.814545 136.5714 
L 283.287273 125.9388 
L 293.76 116.6724 
L 304.232727 112.9302 
L 314.705455 113.94 
L 325.178182 114.5934 
L 335.650909 113.346 
L 346.123636 115.4844 
L 356.596364 122.0184 
L 367.069091 124.2756 
L 377.541818 119.1078 
L 388.014545 115.0686 
L 398.487273 117.207 
" style="fill:none;stroke:#85e781;stroke-linecap:square;stroke-width:1.5;"/>
   </g>
   <g id="line2d_38">
    <path clip-path="url(#pa52522a49e)" d="M 73.832727 172.3896 
L 84.305455 173.1024 
L 94.778182 173.8746 
L 105.250909 172.6866 
L 115.723636 169.2414 
L 126.196364 165.0834 
L 136.669091 168.4098 
L 147.141818 188.1306 
L 157.614545 219.969 
L 168.087273 246.5802 
L 178.56 253.2924 
L 189.032727 242.6598 
L 199.505455 229.473 
L 209.978182 222.939 
L 220.450909 219.672 
L 230.923636 211.4154 
L 241.396364 197.3376 
L 251.869091 184.923 
L 262.341818 179.9928 
L 272.814545 178.4484 
L 283.287273 173.9934 
L 293.76 165.8556 
L 304.232727 156.1734 
L 314.705455 146.5506 
L 325.178182 138.1752 
L 335.650909 133.1262 
L 346.123636 132.5916 
L 356.596364 132.4134 
L 367.069091 127.5426 
L 377.541818 118.6326 
L 388.014545 109.6632 
L 398.487273 104.1984 
" style="fill:none;stroke:#99eb85;stroke-linecap:square;stroke-width:1.5;"/>
   </g>
   <g id="line2d_39">
    <path clip-path="url(#pa52522a49e)" d="M 73.832727 156.9456 
L 84.305455 166.6872 
L 94.778182 172.746 
L 105.250909 173.2212 
L 115.723636 172.2708 
L 126.196364 173.934 
L 136.669091 184.1508 
L 147.141818 204.1686 
L 157.614545 225.5526 
L 168.087273 237.9672 
L 178.56 237.2544 
L 189.032727 228.7602 
L 199.505455 218.8998 
L 209.978182 209.3958 
L 220.450909 200.664 
L 230.923636 190.566 
L 241.396364 176.7258 
L 251.869091 164.6082 
L 262.341818 157.896 
L 272.814545 151.956 
L 283.287273 143.937 
L 293.76 136.7496 
L 304.232727 133.542 
L 314.705455 134.0172 
L 325.178182 136.7496 
L 335.650909 139.779 
L 346.123636 139.7196 
L 356.596364 135.5022 
L 367.069091 131.2254 
L 377.541818 129.2652 
L 388.014545 127.6614 
L 398.487273 126.5328 
" style="fill:none;stroke:#adef89;stroke-linecap:square;stroke-width:1.5;"/>
   </g>
   <g id="line2d_40">
    <path clip-path="url(#pa52522a49e)" d="M 73.832727 185.0418 
L 84.305455 177.8544 
L 94.778182 172.449 
L 105.250909 171.7956 
L 115.723636 173.8152 
L 126.196364 178.2108 
L 136.669091 189.4968 
L 147.141818 208.1484 
L 157.614545 228.582 
L 168.087273 242.4816 
L 178.56 244.2042 
L 189.032727 237.0762 
L 199.505455 227.988 
L 209.978182 218.8998 
L 220.450909 208.5642 
L 230.923636 197.2782 
L 241.396364 190.0314 
L 251.869091 187.596 
L 262.341818 181.4184 
L 272.814545 169.776 
L 283.287273 159.7374 
L 293.76 154.035 
L 304.232727 147.8574 
L 314.705455 138.591 
L 325.178182 130.0374 
L 335.650909 124.632 
L 346.123636 120.8898 
L 356.596364 118.1574 
L 367.069091 119.4048 
L 377.541818 126.9486 
L 388.014545 137.5812 
L 398.487273 143.4024 
" style="fill:none;stroke:#c1f38d;stroke-linecap:square;stroke-width:1.5;"/>
   </g>
   <g id="line2d_41">
    <path clip-path="url(#pa52522a49e)" d="M 73.832727 185.22 
L 84.305455 185.22 
L 94.778182 180.6462 
L 105.250909 173.1024 
L 115.723636 166.9842 
L 126.196364 168.0534 
L 136.669091 180.5274 
L 147.141818 201.7926 
L 157.614545 223.1172 
L 168.087273 235.5912 
L 178.56 234.7002 
L 189.032727 223.7112 
L 199.505455 211.059 
L 209.978182 202.3866 
L 220.450909 197.8722 
L 230.923636 193.0608 
L 241.396364 185.8734 
L 251.869091 178.6266 
L 262.341818 171.6174 
L 272.814545 163.9548 
L 283.287273 155.5794 
L 293.76 146.313 
L 304.232727 139.9572 
L 314.705455 139.4226 
L 325.178182 140.4324 
L 335.650909 137.5218 
L 346.123636 132.5322 
L 356.596364 131.9976 
L 367.069091 137.0466 
L 377.541818 140.373 
L 388.014545 135.621 
L 398.487273 127.7208 
" style="fill:none;stroke:#d5f791;stroke-linecap:square;stroke-width:1.5;"/>
   </g>
   <g id="line2d_42">
    <path clip-path="url(#pa52522a49e)" d="M 73.832727 175.3002 
L 84.305455 174.825 
L 94.778182 167.3406 
L 105.250909 160.8066 
L 115.723636 161.6382 
L 126.196364 169.9542 
L 136.669091 184.8636 
L 147.141818 206.8416 
L 157.614545 234.225 
L 168.087273 259.1136 
L 178.56 269.1522 
L 189.032727 258.9354 
L 199.505455 239.0958 
L 209.978182 223.236 
L 220.450909 214.0884 
L 230.923636 207.1386 
L 241.396364 198.5256 
L 251.869091 185.517 
L 262.341818 167.6376 
L 272.814545 148.6296 
L 283.287273 135.7992 
L 293.76 133.6608 
L 304.232727 137.8188 
L 314.705455 140.3136 
L 325.178182 137.403 
L 335.650909 131.3442 
L 346.123636 126.6516 
L 356.596364 124.6914 
L 367.069091 122.6124 
L 377.541818 118.7514 
L 388.014545 115.6032 
L 398.487273 117.3852 
" style="fill:none;stroke:#e9fb95;stroke-linecap:square;stroke-width:1.5;"/>
   </g>
   <g id="line2d_43">
    <path clip-path="url(#pa52522a49e)" d="M 73.832727 163.7172 
L 84.305455 161.2224 
L 94.778182 163.836 
L 105.250909 170.5482 
L 115.723636 177.7356 
L 126.196364 184.5072 
L 136.669091 194.3082 
L 147.141818 211.8312 
L 157.614545 234.225 
L 168.087273 249.0156 
L 178.56 245.7486 
L 189.032727 230.4234 
L 199.505455 216.4644 
L 209.978182 209.7522 
L 220.450909 207.6138 
L 230.923636 203.04 
L 241.396364 191.9322 
L 251.869091 175.8348 
L 262.341818 157.1832 
L 272.814545 139.8978 
L 283.287273 131.6412 
L 293.76 134.7894 
L 304.232727 140.076 
L 314.705455 137.3436 
L 325.178182 127.305 
L 335.650909 118.2168 
L 346.123636 115.1874 
L 356.596364 115.6032 
L 367.069091 115.6032 
L 377.541818 116.3754 
L 388.014545 121.4838 
L 398.487273 131.463 
" style="fill:none;stroke:#fefe98;stroke-linecap:square;stroke-width:1.5;"/>
   </g>
   <g id="line2d_44">
    <path clip-path="url(#pa52522a49e)" d="M 73.832727 168.4098 
L 84.305455 164.0736 
L 94.778182 163.4202 
L 105.250909 165.321 
L 115.723636 165.8556 
L 126.196364 166.2714 
L 136.669091 173.3994 
L 147.141818 191.1006 
L 157.614545 212.6034 
L 168.087273 226.503 
L 178.56 229.4136 
L 189.032727 227.6316 
L 199.505455 225.7308 
L 209.978182 220.9788 
L 220.450909 210.762 
L 230.923636 198.5256 
L 241.396364 188.3088 
L 251.869091 179.8146 
L 262.341818 171.0234 
L 272.814545 162.4698 
L 283.287273 154.1538 
L 293.76 144.7092 
L 304.232727 134.9676 
L 314.705455 127.4832 
L 325.178182 125.4042 
L 335.650909 130.275 
L 346.123636 137.0466 
L 356.596364 136.9872 
L 367.069091 127.4832 
L 377.541818 116.019 
L 388.014545 111.3264 
L 398.487273 116.6724 
" style="fill:none;stroke:#f4f193;stroke-linecap:square;stroke-width:1.5;"/>
   </g>
   <g id="line2d_45">
    <path clip-path="url(#pa52522a49e)" d="M 73.832727 195.8526 
L 84.305455 202.3866 
L 94.778182 204.822 
L 105.250909 199.0008 
L 115.723636 187.4772 
L 126.196364 181.0026 
L 136.669091 188.0118 
L 147.141818 203.6934 
L 157.614545 215.4546 
L 168.087273 218.9592 
L 178.56 220.0878 
L 189.032727 222.2262 
L 199.505455 220.4442 
L 209.978182 209.3364 
L 220.450909 192.7044 
L 230.923636 180.468 
L 241.396364 176.2506 
L 251.869091 175.0032 
L 262.341818 170.37 
L 272.814545 159.381 
L 283.287273 146.7882 
L 293.76 141.3234 
L 304.232727 146.4912 
L 314.705455 155.4012 
L 325.178182 159.381 
L 335.650909 159.2028 
L 346.123636 160.6284 
L 356.596364 164.1924 
L 367.069091 163.836 
L 377.541818 156.1734 
L 388.014545 149.1048 
L 398.487273 151.1838 
" style="fill:none;stroke:#eae48e;stroke-linecap:square;stroke-width:1.5;"/>
   </g>
   <g id="line2d_46">
    <path clip-path="url(#pa52522a49e)" d="M 73.832727 176.4288 
L 84.305455 172.6866 
L 94.778182 162.5886 
L 105.250909 152.847 
L 115.723636 153.6786 
L 126.196364 168.1722 
L 136.669091 189.6156 
L 147.141818 208.9206 
L 157.614545 221.8104 
L 168.087273 228.0474 
L 178.56 228.582 
L 189.032727 221.751 
L 199.505455 207.8514 
L 209.978182 192.2886 
L 220.450909 181.8342 
L 230.923636 180.8244 
L 241.396364 186.9426 
L 251.869091 190.7442 
L 262.341818 184.8636 
L 272.814545 173.2212 
L 283.287273 164.3706 
L 293.76 159.7968 
L 304.232727 156.9456 
L 314.705455 154.5102 
L 325.178182 151.8372 
L 335.650909 149.2236 
L 346.123636 150.8274 
L 356.596364 159.0246 
L 367.069091 167.2812 
L 377.541818 165.8556 
L 388.014545 154.1538 
L 398.487273 142.5708 
" style="fill:none;stroke:#e0d788;stroke-linecap:square;stroke-width:1.5;"/>
   </g>
   <g id="line2d_47">
    <path clip-path="url(#pa52522a49e)" d="M 73.832727 161.2224 
L 84.305455 170.3106 
L 94.778182 185.9328 
L 105.250909 197.6346 
L 115.723636 196.9218 
L 126.196364 188.5464 
L 136.669091 184.5072 
L 147.141818 193.8924 
L 157.614545 216.108 
L 168.087273 238.9176 
L 178.56 247.0554 
L 189.032727 239.2146 
L 199.505455 228.0474 
L 209.978182 222.8796 
L 220.450909 219.7314 
L 230.923636 210.2274 
L 241.396364 195.3774 
L 251.869091 183.6162 
L 262.341818 178.1514 
L 272.814545 174.231 
L 283.287273 170.1918 
L 293.76 170.37 
L 304.232727 176.0724 
L 314.705455 178.4484 
L 325.178182 166.9248 
L 335.650909 143.8776 
L 346.123636 122.9094 
L 356.596364 114.4746 
L 367.069091 116.4348 
L 377.541818 118.5732 
L 388.014545 115.6032 
L 398.487273 111.0888 
" style="fill:none;stroke:#d6cb83;stroke-linecap:square;stroke-width:1.5;"/>
   </g>
   <g id="line2d_48">
    <path clip-path="url(#pa52522a49e)" d="M 73.832727 168.4692 
L 84.305455 174.4686 
L 94.778182 182.7846 
L 105.250909 182.0718 
L 115.723636 169.2414 
L 126.196364 160.1532 
L 136.669091 170.4294 
L 147.141818 200.6046 
L 157.614545 236.304 
L 168.087273 258.4602 
L 178.56 260.2422 
L 189.032727 249.5502 
L 199.505455 236.8386 
L 209.978182 226.4436 
L 220.450909 216.2862 
L 230.923636 202.8024 
L 241.396364 187.5366 
L 251.869091 176.7852 
L 262.341818 172.0926 
L 272.814545 167.9346 
L 283.287273 159.1434 
L 293.76 145.9566 
L 304.232727 132.7104 
L 314.705455 123.5628 
L 325.178182 118.395 
L 335.650909 114.8904 
L 346.123636 112.8114 
L 356.596364 113.643 
L 367.069091 117.0288 
L 377.541818 119.4642 
L 388.014545 118.5138 
L 398.487273 116.316 
" style="fill:none;stroke:#ccbe7d;stroke-linecap:square;stroke-width:1.5;"/>
   </g>
   <g id="line2d_49">
    <path clip-path="url(#pa52522a49e)" d="M 73.832727 182.25 
L 84.305455 180.171 
L 94.778182 176.2506 
L 105.250909 171.3204 
L 115.723636 166.3308 
L 126.196364 164.5488 
L 136.669091 171.261 
L 147.141818 189.7344 
L 157.614545 214.5636 
L 168.087273 235.116 
L 178.56 244.4418 
L 189.032727 243.3726 
L 199.505455 238.9176 
L 209.978182 235.3536 
L 220.450909 231.255 
L 230.923636 224.3052 
L 241.396364 213.2568 
L 251.869091 199.8324 
L 262.341818 187.002 
L 272.814545 176.8446 
L 283.287273 169.5384 
L 293.76 163.0638 
L 304.232727 157.302 
L 314.705455 154.4508 
L 325.178182 155.1636 
L 335.650909 157.1832 
L 346.123636 156.7674 
L 356.596364 153.5598 
L 367.069091 148.8078 
L 377.541818 143.1054 
L 388.014545 137.0466 
L 398.487273 130.9284 
" style="fill:none;stroke:#c2b178;stroke-linecap:square;stroke-width:1.5;"/>
   </g>
   <g id="line2d_50">
    <path clip-path="url(#pa52522a49e)" d="M 73.832727 175.716 
L 84.305455 170.8452 
L 94.778182 167.994 
L 105.250909 169.479 
L 115.723636 171.9144 
L 126.196364 174.231 
L 136.669091 181.062 
L 147.141818 197.4564 
L 157.614545 220.9194 
L 168.087273 241.4718 
L 178.56 250.56 
L 189.032727 247.3524 
L 199.505455 237.3732 
L 209.978182 226.6812 
L 220.450909 217.0584 
L 230.923636 203.7528 
L 241.396364 184.5072 
L 251.869091 167.2218 
L 262.341818 158.2524 
L 272.814545 155.1636 
L 283.287273 152.9064 
L 293.76 148.8672 
L 304.232727 142.9866 
L 314.705455 139.6602 
L 325.178182 142.749 
L 335.650909 148.9266 
L 346.123636 151.1244 
L 356.596364 145.4814 
L 367.069091 133.9578 
L 377.541818 125.82 
L 388.014545 129.978 
L 398.487273 143.343 
" style="fill:none;stroke:#b8a473;stroke-linecap:square;stroke-width:1.5;"/>
   </g>
   <g id="line2d_51">
    <path clip-path="url(#pa52522a49e)" d="M 73.832727 169.8948 
L 84.305455 175.3596 
L 94.778182 181.8936 
L 105.250909 186.0516 
L 115.723636 186.408 
L 126.196364 186.8238 
L 136.669091 193.1202 
L 147.141818 206.1288 
L 157.614545 221.5728 
L 168.087273 235.1754 
L 178.56 247.1148 
L 189.032727 258.9354 
L 199.505455 266.895 
L 209.978182 263.9844 
L 220.450909 247.887 
L 230.923636 226.503 
L 241.396364 211.1778 
L 251.869091 203.4558 
L 262.341818 195.0804 
L 272.814545 180.765 
L 283.287273 164.7864 
L 293.76 151.7778 
L 304.232727 141.858 
L 314.705455 134.9082 
L 325.178182 131.1066 
L 335.650909 126.711 
L 346.123636 118.692 
L 356.596364 108.891 
L 367.069091 99.6246 
L 377.541818 93.2094 
L 388.014545 92.4966 
L 398.487273 94.041 
" style="fill:none;stroke:#ae976d;stroke-linecap:square;stroke-width:1.5;"/>
   </g>
   <g id="line2d_52">
    <path clip-path="url(#pa52522a49e)" d="M 73.832727 182.3688 
L 84.305455 179.28 
L 94.778182 178.5672 
L 105.250909 182.0124 
L 115.723636 187.893 
L 126.196364 195.5556 
L 136.669091 203.8716 
L 147.141818 210.9402 
L 157.614545 218.6028 
L 168.087273 228.9978 
L 178.56 239.6304 
L 189.032727 244.0854 
L 199.505455 237.789 
L 209.978182 224.3052 
L 220.450909 210.465 
L 230.923636 197.9316 
L 241.396364 186.8832 
L 251.869091 180.2304 
L 262.341818 176.607 
L 272.814545 169.2414 
L 283.287273 155.4012 
L 293.76 141.1452 
L 304.232727 133.0074 
L 314.705455 132.4134 
L 325.178182 134.9676 
L 335.650909 134.433 
L 346.123636 130.0374 
L 356.596364 126.2952 
L 367.069091 124.5726 
L 377.541818 123.0282 
L 388.014545 121.365 
L 398.487273 121.2462 
" style="fill:none;stroke:#a28867;stroke-linecap:square;stroke-width:1.5;"/>
   </g>
   <g id="line2d_53">
    <path clip-path="url(#pa52522a49e)" d="M 73.832727 187.5366 
L 84.305455 188.3088 
L 94.778182 183.9726 
L 105.250909 179.3394 
L 115.723636 178.3296 
L 126.196364 180.2304 
L 136.669091 186.0516 
L 147.141818 199.3572 
L 157.614545 217.8306 
L 168.087273 233.928 
L 178.56 242.8974 
L 189.032727 242.838 
L 199.505455 234.0468 
L 209.978182 220.86 
L 220.450909 207.792 
L 230.923636 195.3774 
L 241.396364 181.7154 
L 251.869091 167.4 
L 262.341818 155.3418 
L 272.814545 145.4814 
L 283.287273 139.7196 
L 293.76 139.9572 
L 304.232727 142.0956 
L 314.705455 141.0858 
L 325.178182 135.918 
L 335.650909 129.9186 
L 346.123636 126.8892 
L 356.596364 125.7012 
L 367.069091 120.2364 
L 377.541818 111.2076 
L 388.014545 107.8218 
L 398.487273 114.831 
" style="fill:none;stroke:#987b61;stroke-linecap:square;stroke-width:1.5;"/>
   </g>
   <g id="line2d_54">
    <path clip-path="url(#pa52522a49e)" d="M 73.832727 180.468 
L 84.305455 188.8434 
L 94.778182 193.0014 
L 105.250909 189.2592 
L 115.723636 181.0026 
L 126.196364 175.3002 
L 136.669091 179.1612 
L 147.141818 195.0804 
L 157.614545 219.0186 
L 168.087273 243.3726 
L 178.56 259.2918 
L 189.032727 261.3114 
L 199.505455 249.1344 
L 209.978182 228.3444 
L 220.450909 208.3266 
L 230.923636 195.1398 
L 241.396364 186.3486 
L 251.869091 177.795 
L 262.341818 170.6076 
L 272.814545 167.0436 
L 283.287273 164.3112 
L 293.76 158.8464 
L 304.232727 150.9462 
L 314.705455 142.5708 
L 325.178182 135.7398 
L 335.650909 132.7698 
L 346.123636 131.7006 
L 356.596364 127.8396 
L 367.069091 122.3748 
L 377.541818 120.771 
L 388.014545 124.038 
L 398.487273 129.384 
" style="fill:none;stroke:#8e6e5c;stroke-linecap:square;stroke-width:1.5;"/>
   </g>
   <g id="line2d_55">
    <path clip-path="url(#pa52522a49e)" d="M 73.832727 164.0736 
L 84.305455 172.9836 
L 94.778182 177.6762 
L 105.250909 174.0528 
L 115.723636 167.2812 
L 126.196364 165.1428 
L 136.669091 173.2212 
L 147.141818 194.3082 
L 157.614545 224.0082 
L 168.087273 250.4412 
L 178.56 261.3708 
L 189.032727 254.6586 
L 199.505455 238.5018 
L 209.978182 219.8502 
L 220.450909 202.446 
L 230.923636 188.8434 
L 241.396364 179.28 
L 251.869091 173.043 
L 262.341818 171.7362 
L 272.814545 175.2408 
L 283.287273 176.013 
L 293.76 166.509 
L 304.232727 149.2236 
L 314.705455 135.2052 
L 325.178182 131.8194 
L 335.650909 136.1556 
L 346.123636 140.7888 
L 356.596364 140.9076 
L 367.069091 136.809 
L 377.541818 131.166 
L 388.014545 126.0576 
L 398.487273 124.6914 
" style="fill:none;stroke:#846257;stroke-linecap:square;stroke-width:1.5;"/>
   </g>
   <g id="line2d_56">
    <path clip-path="url(#pa52522a49e)" d="M 73.832727 168.4098 
L 84.305455 162.8262 
L 94.778182 153.7974 
L 105.250909 144.828 
L 115.723636 143.2836 
L 126.196364 156.411 
L 136.669091 183.2004 
L 147.141818 211.653 
L 157.614545 230.3046 
L 168.087273 236.7198 
L 178.56 234.7002 
L 189.032727 229.7106 
L 199.505455 224.3052 
L 209.978182 217.5336 
L 220.450909 208.5642 
L 230.923636 197.1 
L 241.396364 181.953 
L 251.869091 165.2616 
L 262.341818 153.9162 
L 272.814545 147.5604 
L 283.287273 138.888 
L 293.76 127.0674 
L 304.232727 118.989 
L 314.705455 119.88 
L 325.178182 127.7802 
L 335.650909 135.2052 
L 346.123636 137.106 
L 356.596364 135.2646 
L 367.069091 133.4826 
L 377.541818 133.0668 
L 388.014545 133.7202 
L 398.487273 135.324 
" style="fill:none;stroke:#85635c;stroke-linecap:square;stroke-width:1.5;"/>
   </g>
   <g id="line2d_57">
    <path clip-path="url(#pa52522a49e)" d="M 73.832727 168.885 
L 84.305455 176.904 
L 94.778182 187.7148 
L 105.250909 192.348 
L 115.723636 192.2292 
L 126.196364 194.1894 
L 136.669091 200.07 
L 147.141818 207.8514 
L 157.614545 215.6328 
L 168.087273 219.9096 
L 178.56 216.8802 
L 189.032727 207.2574 
L 199.505455 195.8526 
L 209.978182 185.5764 
L 220.450909 177.6168 
L 230.923636 175.419 
L 241.396364 178.2702 
L 251.869091 179.577 
L 262.341818 172.8648 
L 272.814545 160.0938 
L 283.287273 149.6988 
L 293.76 145.1844 
L 304.232727 142.5114 
L 314.705455 138.0564 
L 325.178182 132.4134 
L 335.650909 128.2554 
L 346.123636 129.2058 
L 356.596364 137.5812 
L 367.069091 149.9958 
L 377.541818 159.2028 
L 388.014545 161.2818 
L 398.487273 157.005 
" style="fill:none;stroke:#8f7069;stroke-linecap:square;stroke-width:1.5;"/>
   </g>
   <g id="line2d_58">
    <path clip-path="url(#pa52522a49e)" d="M 73.832727 151.0056 
L 84.305455 158.2524 
L 94.778182 168.1722 
L 105.250909 170.1324 
L 115.723636 162.2916 
L 126.196364 160.0344 
L 136.669091 176.31 
L 147.141818 204.7032 
L 157.614545 227.394 
L 168.087273 234.5814 
L 178.56 229.5324 
L 189.032727 220.563 
L 199.505455 215.1576 
L 209.978182 213.7914 
L 220.450909 210.9996 
L 230.923636 203.337 
L 241.396364 193.0014 
L 251.869091 184.3884 
L 262.341818 177.795 
L 272.814545 167.103 
L 283.287273 147.9762 
L 293.76 128.196 
L 304.232727 119.1672 
L 314.705455 121.1274 
L 325.178182 125.7606 
L 335.650909 126.3546 
L 346.123636 123.8004 
L 356.596364 121.959 
L 367.069091 121.8402 
L 377.541818 123.2064 
L 388.014545 125.9388 
L 398.487273 125.523 
" style="fill:none;stroke:#997c76;stroke-linecap:square;stroke-width:1.5;"/>
   </g>
   <g id="line2d_59">
    <path clip-path="url(#pa52522a49e)" d="M 73.832727 153.7974 
L 84.305455 158.4306 
L 94.778182 160.6878 
L 105.250909 158.6088 
L 115.723636 158.4306 
L 126.196364 167.0436 
L 136.669091 184.1508 
L 147.141818 204.0498 
L 157.614545 221.9886 
L 168.087273 235.2348 
L 178.56 240.5808 
L 189.032727 238.7988 
L 199.505455 233.7498 
L 209.978182 224.3052 
L 220.450909 210.465 
L 230.923636 198.0504 
L 241.396364 190.4472 
L 251.869091 183.6756 
L 262.341818 174.7062 
L 272.814545 164.6082 
L 283.287273 153.3816 
L 293.76 140.8482 
L 304.232727 130.1562 
L 314.705455 125.4636 
L 325.178182 127.305 
L 335.650909 132.1164 
L 346.123636 137.2842 
L 356.596364 140.7888 
L 367.069091 141.7986 
L 377.541818 141.4422 
L 388.014545 140.67 
L 398.487273 138.2346 
" style="fill:none;stroke:#a38984;stroke-linecap:square;stroke-width:1.5;"/>
   </g>
   <g id="line2d_60">
    <path clip-path="url(#pa52522a49e)" d="M 73.832727 186.705 
L 84.305455 184.0914 
L 94.778182 181.5372 
L 105.250909 181.4184 
L 115.723636 185.2794 
L 126.196364 190.9224 
L 136.669091 197.5752 
L 147.141818 210.8214 
L 157.614545 232.9776 
L 168.087273 254.8962 
L 178.56 264.9348 
L 189.032727 258.4008 
L 199.505455 239.2146 
L 209.978182 214.623 
L 220.450909 190.4472 
L 230.923636 172.9836 
L 241.396364 165.7962 
L 251.869091 163.4796 
L 262.341818 157.1238 
L 272.814545 146.0754 
L 283.287273 134.7894 
L 293.76 125.9982 
L 304.232727 121.4244 
L 314.705455 122.6124 
L 325.178182 127.1862 
L 335.650909 130.869 
L 346.123636 130.3938 
L 356.596364 124.3944 
L 367.069091 114.831 
L 377.541818 109.188 
L 388.014545 117.2664 
L 398.487273 137.1654 
" style="fill:none;stroke:#af9994;stroke-linecap:square;stroke-width:1.5;"/>
   </g>
   <g id="line2d_61">
    <path clip-path="url(#pa52522a49e)" d="M 73.832727 161.2818 
L 84.305455 166.2714 
L 94.778182 170.7858 
L 105.250909 166.2714 
L 115.723636 157.302 
L 126.196364 157.7178 
L 136.669091 173.2806 
L 147.141818 195.912 
L 157.614545 216.4644 
L 168.087273 231.552 
L 178.56 239.0958 
L 189.032727 235.9476 
L 199.505455 223.2954 
L 209.978182 207.495 
L 220.450909 193.7736 
L 230.923636 184.2102 
L 241.396364 176.904 
L 251.869091 169.0038 
L 262.341818 161.3412 
L 272.814545 156.2922 
L 283.287273 153.144 
L 293.76 149.5206 
L 304.232727 145.6002 
L 314.705455 144.2934 
L 325.178182 142.9272 
L 335.650909 135.5616 
L 346.123636 124.3944 
L 356.596364 118.9296 
L 367.069091 124.335 
L 377.541818 135.5022 
L 388.014545 142.9866 
L 398.487273 143.046 
" style="fill:none;stroke:#b9a5a1;stroke-linecap:square;stroke-width:1.5;"/>
   </g>
   <g id="line2d_62">
    <path clip-path="url(#pa52522a49e)" d="M 73.832727 182.1312 
L 84.305455 176.9634 
L 94.778182 174.1122 
L 105.250909 171.1422 
L 115.723636 168.885 
L 126.196364 170.4888 
L 136.669091 178.686 
L 147.141818 193.536 
L 157.614545 213.3756 
L 168.087273 232.9776 
L 178.56 243.9666 
L 189.032727 243.0756 
L 199.505455 233.5716 
L 209.978182 221.8104 
L 220.450909 212.544 
L 230.923636 203.5746 
L 241.396364 192.1698 
L 251.869091 180.8244 
L 262.341818 173.2806 
L 272.814545 170.0136 
L 283.287273 171.6174 
L 293.76 176.607 
L 304.232727 177.0228 
L 314.705455 167.3406 
L 325.178182 153.6192 
L 335.650909 146.5506 
L 346.123636 148.5702 
L 356.596364 152.7876 
L 367.069091 154.4508 
L 377.541818 154.0944 
L 388.014545 150.768 
L 398.487273 143.8182 
" style="fill:none;stroke:#c3b2af;stroke-linecap:square;stroke-width:1.5;"/>
   </g>
   <g id="line2d_63">
    <path clip-path="url(#pa52522a49e)" d="M 73.832727 177.6168 
L 84.305455 170.3106 
L 94.778182 163.4796 
L 105.250909 165.7962 
L 115.723636 177.9138 
L 126.196364 192.2886 
L 136.669091 201.852 
L 147.141818 207.5544 
L 157.614545 215.514 
L 168.087273 227.097 
L 178.56 237.3732 
L 189.032727 240.1056 
L 199.505455 233.1558 
L 209.978182 220.0878 
L 220.450909 205.3566 
L 230.923636 191.754 
L 241.396364 181.0026 
L 251.869091 172.6866 
L 262.341818 164.9646 
L 272.814545 156.9456 
L 283.287273 148.986 
L 293.76 138.888 
L 304.232727 128.6712 
L 314.705455 125.1666 
L 325.178182 129.5622 
L 335.650909 136.9278 
L 346.123636 141.4422 
L 356.596364 139.2444 
L 367.069091 132.354 
L 377.541818 127.3644 
L 388.014545 126.2952 
L 398.487273 126.0576 
" style="fill:none;stroke:#cdbfbc;stroke-linecap:square;stroke-width:1.5;"/>
   </g>
   <g id="line2d_64">
    <path clip-path="url(#pa52522a49e)" d="M 73.832727 172.0926 
L 84.305455 175.716 
L 94.778182 176.4288 
L 105.250909 168.9444 
L 115.723636 159.3216 
L 126.196364 161.5194 
L 136.669091 182.0124 
L 147.141818 210.9996 
L 157.614545 231.9084 
L 168.087273 236.8386 
L 178.56 232.6806 
L 189.032727 231.4926 
L 199.505455 232.9182 
L 209.978182 228.2256 
L 220.450909 217.3554 
L 230.923636 205.9506 
L 241.396364 195.2586 
L 251.869091 183.3786 
L 262.341818 171.261 
L 272.814545 161.5194 
L 283.287273 155.4012 
L 293.76 153.2034 
L 304.232727 151.1838 
L 314.705455 144.5904 
L 325.178182 135.8586 
L 335.650909 130.9284 
L 346.123636 128.1366 
L 356.596364 120.771 
L 367.069091 110.7324 
L 377.541818 106.3962 
L 388.014545 109.7226 
L 398.487273 117.207 
" style="fill:none;stroke:#d7ccc9;stroke-linecap:square;stroke-width:1.5;"/>
   </g>
   <g id="line2d_65">
    <path clip-path="url(#pa52522a49e)" d="M 73.832727 190.269 
L 84.305455 187.1802 
L 94.778182 181.4778 
L 105.250909 177.0822 
L 115.723636 174.0528 
L 126.196364 174.2904 
L 136.669091 180.9432 
L 147.141818 194.6052 
L 157.614545 212.0688 
L 168.087273 226.3842 
L 178.56 234.225 
L 189.032727 237.3732 
L 199.505455 235.413 
L 209.978182 225.1368 
L 220.450909 208.5048 
L 230.923636 193.1202 
L 241.396364 183.5568 
L 251.869091 178.686 
L 262.341818 175.122 
L 272.814545 169.8948 
L 283.287273 161.46 
L 293.76 150.4116 
L 304.232727 140.0166 
L 314.705455 133.7202 
L 325.178182 130.572 
L 335.650909 129.2058 
L 346.123636 129.978 
L 356.596364 131.2254 
L 367.069091 131.3442 
L 377.541818 132.057 
L 388.014545 135.1458 
L 398.487273 139.5414 
" style="fill:none;stroke:#e1d9d7;stroke-linecap:square;stroke-width:1.5;"/>
   </g>
   <g id="line2d_66">
    <path clip-path="url(#pa52522a49e)" d="M 73.832727 172.8054 
L 84.305455 172.6866 
L 94.778182 169.479 
L 105.250909 166.6872 
L 115.723636 168.3504 
L 126.196364 176.4882 
L 136.669091 191.16 
L 147.141818 209.1582 
L 157.614545 225.4338 
L 168.087273 236.2446 
L 178.56 240.462 
L 189.032727 237.0762 
L 199.505455 225.612 
L 209.978182 210.7026 
L 220.450909 198.9414 
L 230.923636 191.5164 
L 241.396364 186.408 
L 251.869091 182.547 
L 262.341818 175.5378 
L 272.814545 160.7472 
L 283.287273 144.1746 
L 293.76 137.106 
L 304.232727 139.3632 
L 314.705455 140.0166 
L 325.178182 131.7006 
L 335.650909 118.2762 
L 346.123636 110.97 
L 356.596364 114.9498 
L 367.069091 123.3846 
L 377.541818 126.0576 
L 388.014545 122.3748 
L 398.487273 119.286 
" style="fill:none;stroke:#ebe5e4;stroke-linecap:square;stroke-width:1.5;"/>
   </g>
   <g id="line2d_67">
    <path clip-path="url(#pa52522a49e)" d="M 73.832727 165.8556 
L 84.305455 168.0534 
L 94.778182 173.1618 
L 105.250909 174.3498 
L 115.723636 170.0136 
L 126.196364 168.2316 
L 136.669091 178.8048 
L 147.141818 202.8618 
L 157.614545 229.3542 
L 168.087273 246.105 
L 178.56 250.9758 
L 189.032727 247.1742 
L 199.505455 238.6206 
L 209.978182 229.176 
L 220.450909 218.5434 
L 230.923636 205.416 
L 241.396364 191.9322 
L 251.869091 181.1214 
L 262.341818 175.4784 
L 272.814545 174.231 
L 283.287273 174.4092 
L 293.76 175.3002 
L 304.232727 175.716 
L 314.705455 172.3302 
L 325.178182 162.945 
L 335.650909 150.1146 
L 346.123636 139.185 
L 356.596364 133.1262 
L 367.069091 132.651 
L 377.541818 134.8488 
L 388.014545 133.7202 
L 398.487273 126.117 
" style="fill:none;stroke:#f5f2f2;stroke-linecap:square;stroke-width:1.5;"/>
   </g>
   <g id="patch_3">
    <path d="M 57.6 307.584 
L 57.6 41.472 
" style="fill:none;stroke:#000000;stroke-linecap:square;stroke-linejoin:miter;stroke-width:0.8;"/>
   </g>
   <g id="patch_4">
    <path d="M 414.72 307.584 
L 414.72 41.472 
" style="fill:none;stroke:#000000;stroke-linecap:square;stroke-linejoin:miter;stroke-width:0.8;"/>
   </g>
   <g id="patch_5">
    <path d="M 57.6 307.584 
L 414.72 307.584 
" style="fill:none;stroke:#000000;stroke-linecap:square;stroke-linejoin:miter;stroke-width:0.8;"/>
   </g>
   <g id="patch_6">
    <path d="M 57.6 41.472 
L 414.72 41.472 
" style="fill:none;stroke:#000000;stroke-linecap:square;stroke-linejoin:miter;stroke-width:0.8;"/>
   </g>
   <g id="text_19">
    <!-- $V_{rms}=$ 17.903251 -->
    <defs>
     <path d="M 20.609375 0 
L 7.8125 72.90625 
L 17.484375 72.90625 
L 28.078125 10.203125 
L 63.484375 72.90625 
L 74.21875 72.90625 
L 32.078125 0 
z
" id="DejaVuSans-Oblique-56"/>
     <path d="M 44.578125 46.390625 
Q 43.21875 47.125 41.453125 47.515625 
Q 39.703125 47.90625 37.703125 47.90625 
Q 30.515625 47.90625 25.140625 42.453125 
Q 19.78125 37.015625 18.015625 27.875 
L 12.5 0 
L 3.515625 0 
L 14.203125 54.6875 
L 23.1875 54.6875 
L 21.484375 46.1875 
Q 25.046875 50.921875 30 53.453125 
Q 34.96875 56 40.578125 56 
Q 42.046875 56 43.453125 55.828125 
Q 44.875 55.671875 46.296875 55.28125 
z
" id="DejaVuSans-Oblique-72"/>
     <path d="M 89.796875 33.015625 
L 83.40625 0 
L 74.421875 0 
L 80.71875 32.71875 
Q 81.109375 34.8125 81.296875 36.328125 
Q 81.5 37.84375 81.5 38.921875 
Q 81.5 43.3125 79.046875 45.75 
Q 76.609375 48.1875 72.21875 48.1875 
Q 65.671875 48.1875 60.546875 43.28125 
Q 55.421875 38.375 53.90625 30.515625 
L 47.90625 0 
L 38.921875 0 
L 45.3125 32.71875 
Q 45.703125 34.515625 45.890625 36.046875 
Q 46.09375 37.59375 46.09375 38.8125 
Q 46.09375 43.265625 43.65625 45.71875 
Q 41.21875 48.1875 36.921875 48.1875 
Q 30.28125 48.1875 25.140625 43.28125 
Q 20.015625 38.375 18.5 30.515625 
L 12.5 0 
L 3.515625 0 
L 14.203125 54.6875 
L 23.1875 54.6875 
L 21.484375 46.1875 
Q 25.140625 50.984375 30.046875 53.484375 
Q 34.96875 56 40.578125 56 
Q 46.53125 56 50.359375 52.875 
Q 54.203125 49.75 54.984375 44.1875 
Q 59.078125 49.953125 64.46875 52.96875 
Q 69.875 56 75.875 56 
Q 82.90625 56 86.734375 51.953125 
Q 90.578125 47.90625 90.578125 40.484375 
Q 90.578125 38.875 90.375 36.9375 
Q 90.1875 35.015625 89.796875 33.015625 
z
" id="DejaVuSans-Oblique-6d"/>
     <path d="M 50 53.078125 
L 48.296875 44.578125 
Q 44.734375 46.53125 40.765625 47.5 
Q 36.8125 48.484375 32.625 48.484375 
Q 25.53125 48.484375 21.453125 46.0625 
Q 17.390625 43.65625 17.390625 39.5 
Q 17.390625 34.671875 26.859375 32.078125 
Q 27.59375 31.890625 27.9375 31.78125 
L 30.8125 30.90625 
Q 39.796875 28.421875 42.796875 25.6875 
Q 45.796875 22.953125 45.796875 18.21875 
Q 45.796875 9.515625 38.890625 4.046875 
Q 31.984375 -1.421875 20.796875 -1.421875 
Q 16.453125 -1.421875 11.671875 -0.578125 
Q 6.890625 0.25 1.125 2 
L 2.875 11.28125 
Q 7.8125 8.734375 12.59375 7.421875 
Q 17.390625 6.109375 21.78125 6.109375 
Q 28.375 6.109375 32.5 8.9375 
Q 36.625 11.765625 36.625 16.109375 
Q 36.625 20.796875 25.78125 23.6875 
L 24.859375 23.921875 
L 21.78125 24.703125 
Q 14.9375 26.515625 11.765625 29.46875 
Q 8.59375 32.421875 8.59375 37.015625 
Q 8.59375 45.75 15.15625 50.875 
Q 21.734375 56 33.015625 56 
Q 37.453125 56 41.671875 55.265625 
Q 45.90625 54.546875 50 53.078125 
z
" id="DejaVuSans-Oblique-73"/>
     <path d="M 10.59375 45.40625 
L 73.1875 45.40625 
L 73.1875 37.203125 
L 10.59375 37.203125 
z
M 10.59375 25.484375 
L 73.1875 25.484375 
L 73.1875 17.1875 
L 10.59375 17.1875 
z
" id="DejaVuSans-3d"/>
     <path d="M 10.984375 1.515625 
L 10.984375 10.5 
Q 14.703125 8.734375 18.5 7.8125 
Q 22.3125 6.890625 25.984375 6.890625 
Q 35.75 6.890625 40.890625 13.453125 
Q 46.046875 20.015625 46.78125 33.40625 
Q 43.953125 29.203125 39.59375 26.953125 
Q 35.25 24.703125 29.984375 24.703125 
Q 19.046875 24.703125 12.671875 31.3125 
Q 6.296875 37.9375 6.296875 49.421875 
Q 6.296875 60.640625 12.9375 67.421875 
Q 19.578125 74.21875 30.609375 74.21875 
Q 43.265625 74.21875 49.921875 64.515625 
Q 56.59375 54.828125 56.59375 36.375 
Q 56.59375 19.140625 48.40625 8.859375 
Q 40.234375 -1.421875 26.421875 -1.421875 
Q 22.703125 -1.421875 18.890625 -0.6875 
Q 15.09375 0.046875 10.984375 1.515625 
z
M 30.609375 32.421875 
Q 37.25 32.421875 41.125 36.953125 
Q 45.015625 41.5 45.015625 49.421875 
Q 45.015625 57.28125 41.125 61.84375 
Q 37.25 66.40625 30.609375 66.40625 
Q 23.96875 66.40625 20.09375 61.84375 
Q 16.21875 57.28125 16.21875 49.421875 
Q 16.21875 41.5 20.09375 36.953125 
Q 23.96875 32.421875 30.609375 32.421875 
z
" id="DejaVuSans-39"/>
    </defs>
    <g transform="translate(325.178182 154.173485)scale(0.1 -0.1)">
     <use transform="translate(0 0.78125)" xlink:href="#DejaVuSans-Oblique-56"/>
     <use transform="translate(68.408203 -15.625)scale(0.7)" xlink:href="#DejaVuSans-Oblique-72"/>
     <use transform="translate(97.1875 -15.625)scale(0.7)" xlink:href="#DejaVuSans-Oblique-6d"/>
     <use transform="translate(165.375977 -15.625)scale(0.7)" xlink:href="#DejaVuSans-Oblique-73"/>
     <use transform="translate(224.0625 0.78125)" xlink:href="#DejaVuSans-3d"/>
     <use transform="translate(327.333984 0.78125)" xlink:href="#DejaVuSans-20"/>
     <use transform="translate(359.121094 0.78125)" xlink:href="#DejaVuSans-31"/>
     <use transform="translate(422.744141 0.78125)" xlink:href="#DejaVuSans-37"/>
     <use transform="translate(486.367188 0.78125)" xlink:href="#DejaVuSans-2e"/>
     <use transform="translate(518.154297 0.78125)" xlink:href="#DejaVuSans-39"/>
     <use transform="translate(581.777344 0.78125)" xlink:href="#DejaVuSans-30"/>
     <use transform="translate(645.400391 0.78125)" xlink:href="#DejaVuSans-33"/>
     <use transform="translate(709.023438 0.78125)" xlink:href="#DejaVuSans-32"/>
     <use transform="translate(772.646484 0.78125)" xlink:href="#DejaVuSans-35"/>
     <use transform="translate(836.269531 0.78125)" xlink:href="#DejaVuSans-31"/>
    </g>
   </g>
   <g id="text_20">
    <!-- Channel 26 - Unit 2 -->
    <defs>
     <path d="M 64.40625 67.28125 
L 64.40625 56.890625 
Q 59.421875 61.53125 53.78125 63.8125 
Q 48.140625 66.109375 41.796875 66.109375 
Q 29.296875 66.109375 22.65625 58.46875 
Q 16.015625 50.828125 16.015625 36.375 
Q 16.015625 21.96875 22.65625 14.328125 
Q 29.296875 6.6875 41.796875 6.6875 
Q 48.140625 6.6875 53.78125 8.984375 
Q 59.421875 11.28125 64.40625 15.921875 
L 64.40625 5.609375 
Q 59.234375 2.09375 53.4375 0.328125 
Q 47.65625 -1.421875 41.21875 -1.421875 
Q 24.65625 -1.421875 15.125 8.703125 
Q 5.609375 18.84375 5.609375 36.375 
Q 5.609375 53.953125 15.125 64.078125 
Q 24.65625 74.21875 41.21875 74.21875 
Q 47.75 74.21875 53.53125 72.484375 
Q 59.328125 70.75 64.40625 67.28125 
z
" id="DejaVuSans-43"/>
     <path d="M 54.890625 33.015625 
L 54.890625 0 
L 45.90625 0 
L 45.90625 32.71875 
Q 45.90625 40.484375 42.875 44.328125 
Q 39.84375 48.1875 33.796875 48.1875 
Q 26.515625 48.1875 22.3125 43.546875 
Q 18.109375 38.921875 18.109375 30.90625 
L 18.109375 0 
L 9.078125 0 
L 9.078125 75.984375 
L 18.109375 75.984375 
L 18.109375 46.1875 
Q 21.34375 51.125 25.703125 53.5625 
Q 30.078125 56 35.796875 56 
Q 45.21875 56 50.046875 50.171875 
Q 54.890625 44.34375 54.890625 33.015625 
z
" id="DejaVuSans-68"/>
     <path d="M 54.890625 33.015625 
L 54.890625 0 
L 45.90625 0 
L 45.90625 32.71875 
Q 45.90625 40.484375 42.875 44.328125 
Q 39.84375 48.1875 33.796875 48.1875 
Q 26.515625 48.1875 22.3125 43.546875 
Q 18.109375 38.921875 18.109375 30.90625 
L 18.109375 0 
L 9.078125 0 
L 9.078125 54.6875 
L 18.109375 54.6875 
L 18.109375 46.1875 
Q 21.34375 51.125 25.703125 53.5625 
Q 30.078125 56 35.796875 56 
Q 45.21875 56 50.046875 50.171875 
Q 54.890625 44.34375 54.890625 33.015625 
z
" id="DejaVuSans-6e"/>
     <path d="M 4.890625 31.390625 
L 31.203125 31.390625 
L 31.203125 23.390625 
L 4.890625 23.390625 
z
" id="DejaVuSans-2d"/>
     <path d="M 8.6875 72.90625 
L 18.609375 72.90625 
L 18.609375 28.609375 
Q 18.609375 16.890625 22.84375 11.734375 
Q 27.09375 6.59375 36.625 6.59375 
Q 46.09375 6.59375 50.34375 11.734375 
Q 54.59375 16.890625 54.59375 28.609375 
L 54.59375 72.90625 
L 64.5 72.90625 
L 64.5 27.390625 
Q 64.5 13.140625 57.4375 5.859375 
Q 50.390625 -1.421875 36.625 -1.421875 
Q 22.796875 -1.421875 15.734375 5.859375 
Q 8.6875 13.140625 8.6875 27.390625 
z
" id="DejaVuSans-55"/>
    </defs>
    <g transform="translate(178.069687 35.472)scale(0.12 -0.12)">
     <use xlink:href="#DejaVuSans-43"/>
     <use x="69.824219" xlink:href="#DejaVuSans-68"/>
     <use x="133.203125" xlink:href="#DejaVuSans-61"/>
     <use x="194.482422" xlink:href="#DejaVuSans-6e"/>
     <use x="257.861328" xlink:href="#DejaVuSans-6e"/>
     <use x="321.240234" xlink:href="#DejaVuSans-65"/>
     <use x="382.763672" xlink:href="#DejaVuSans-6c"/>
     <use x="410.546875" xlink:href="#DejaVuSans-20"/>
     <use x="442.333984" xlink:href="#DejaVuSans-32"/>
     <use x="505.957031" xlink:href="#DejaVuSans-36"/>
     <use x="569.580078" xlink:href="#DejaVuSans-20"/>
     <use x="601.367188" xlink:href="#DejaVuSans-2d"/>
     <use x="637.451172" xlink:href="#DejaVuSans-20"/>
     <use x="669.238281" xlink:href="#DejaVuSans-55"/>
     <use x="742.431641" xlink:href="#DejaVuSans-6e"/>
     <use x="805.810547" xlink:href="#DejaVuSans-69"/>
     <use x="833.59375" xlink:href="#DejaVuSans-74"/>
     <use x="872.802734" xlink:href="#DejaVuSans-20"/>
     <use x="904.589844" xlink:href="#DejaVuSans-32"/>
    </g>
   </g>
  </g>
 </g>
 <defs>
  <clipPath id="pa52522a49e">
   <rect height="266.112" width="357.12" x="57.6" y="41.472"/>
  </clipPath>
 </defs>
</svg>
