<?xml version="1.0" encoding="utf-8" standalone="no"?>
<!DOCTYPE svg PUBLIC "-//W3C//DTD SVG 1.1//EN"
  "http://www.w3.org/Graphics/SVG/1.1/DTD/svg11.dtd">
<!-- Created with matplotlib (http://matplotlib.org/) -->
<svg height="345pt" version="1.1" viewBox="0 0 460 345" width="460pt" xmlns="http://www.w3.org/2000/svg" xmlns:xlink="http://www.w3.org/1999/xlink">
 <defs>
  <style type="text/css">
*{stroke-linecap:butt;stroke-linejoin:round;}
  </style>
 </defs>
 <g id="figure_1">
  <g id="patch_1">
   <path d="M 0 345.6 
L 460.8 345.6 
L 460.8 0 
L 0 0 
z
" style="fill:#ffffff;"/>
  </g>
  <g id="axes_1">
   <g id="patch_2">
    <path d="M 57.6 307.584 
L 414.72 307.584 
L 414.72 41.472 
L 57.6 41.472 
z
" style="fill:#ffffff;"/>
   </g>
   <g id="PolyCollection_1">
    <defs>
     <path d="M 73.832727 -184.95906 
L 73.832727 -161.454407 
L 84.305455 -161.499341 
L 94.778182 -161.444674 
L 105.250909 -161.675272 
L 115.723636 -161.559568 
L 126.196364 -158.288859 
L 136.669091 -148.394676 
L 147.141818 -131.370786 
L 157.614545 -107.952826 
L 168.087273 -82.878864 
L 178.56 -66.31931 
L 189.032727 -62.133764 
L 199.505455 -65.605367 
L 209.978182 -76.997926 
L 220.450909 -95.16813 
L 230.923636 -114.601592 
L 241.396364 -132.569422 
L 251.869091 -148.968642 
L 262.341818 -164.192832 
L 272.814545 -177.355539 
L 283.287273 -187.464468 
L 293.76 -194.953925 
L 304.232727 -201.150001 
L 314.705455 -206.524254 
L 325.178182 -210.836006 
L 335.650909 -213.895293 
L 346.123636 -215.740754 
L 356.596364 -216.281804 
L 367.069091 -215.487851 
L 377.541818 -214.414649 
L 388.014545 -213.935876 
L 398.487273 -213.436225 
L 398.487273 -256.762442 
L 398.487273 -256.762442 
L 388.014545 -257.579369 
L 377.541818 -257.629084 
L 367.069091 -256.594016 
L 356.596364 -254.865307 
L 346.123636 -252.842624 
L 335.650909 -250.002085 
L 325.178182 -245.663016 
L 314.705455 -239.647969 
L 304.232727 -232.05591 
L 293.76 -223.237231 
L 283.287273 -213.773976 
L 272.814545 -204.106372 
L 262.341818 -193.852768 
L 251.869091 -182.586025 
L 241.396364 -170.269378 
L 230.923636 -157.380008 
L 220.450909 -144.516003 
L 209.978182 -131.892563 
L 199.505455 -119.594544 
L 189.032727 -108.991525 
L 178.56 -103.880023 
L 168.087273 -108.205802 
L 157.614545 -123.312641 
L 147.141818 -147.800414 
L 136.669091 -171.15679 
L 126.196364 -184.700919 
L 115.723636 -189.01581 
L 105.250909 -188.135973 
L 94.778182 -186.093726 
L 84.305455 -184.973771 
L 73.832727 -184.95906 
z
" id="mf77bbce6ca"/>
    </defs>
    <g clip-path="url(#pe21e777151)">
     <use style="fill-opacity:0.5;" x="0" xlink:href="#mf77bbce6ca" y="345.6"/>
    </g>
   </g>
   <g id="matplotlib.axis_1">
    <g id="xtick_1">
     <g id="line2d_1">
      <defs>
       <path d="M 0 0 
L 0 3.5 
" id="m3dbe843553" style="stroke:#000000;stroke-width:0.8;"/>
      </defs>
      <g>
       <use style="stroke:#000000;stroke-width:0.8;" x="73.832727" xlink:href="#m3dbe843553" y="307.584"/>
      </g>
     </g>
     <g id="text_1">
      <!-- 0.0000 -->
      <defs>
       <path d="M 31.78125 66.40625 
Q 24.171875 66.40625 20.328125 58.90625 
Q 16.5 51.421875 16.5 36.375 
Q 16.5 21.390625 20.328125 13.890625 
Q 24.171875 6.390625 31.78125 6.390625 
Q 39.453125 6.390625 43.28125 13.890625 
Q 47.125 21.390625 47.125 36.375 
Q 47.125 51.421875 43.28125 58.90625 
Q 39.453125 66.40625 31.78125 66.40625 
z
M 31.78125 74.21875 
Q 44.046875 74.21875 50.515625 64.515625 
Q 56.984375 54.828125 56.984375 36.375 
Q 56.984375 17.96875 50.515625 8.265625 
Q 44.046875 -1.421875 31.78125 -1.421875 
Q 19.53125 -1.421875 13.0625 8.265625 
Q 6.59375 17.96875 6.59375 36.375 
Q 6.59375 54.828125 13.0625 64.515625 
Q 19.53125 74.21875 31.78125 74.21875 
z
" id="DejaVuSans-30"/>
       <path d="M 10.6875 12.40625 
L 21 12.40625 
L 21 0 
L 10.6875 0 
z
" id="DejaVuSans-2e"/>
      </defs>
      <g transform="translate(56.337415 322.182437)scale(0.1 -0.1)">
       <use xlink:href="#DejaVuSans-30"/>
       <use x="63.623047" xlink:href="#DejaVuSans-2e"/>
       <use x="95.410156" xlink:href="#DejaVuSans-30"/>
       <use x="159.033203" xlink:href="#DejaVuSans-30"/>
       <use x="222.65625" xlink:href="#DejaVuSans-30"/>
       <use x="286.279297" xlink:href="#DejaVuSans-30"/>
      </g>
     </g>
    </g>
    <g id="xtick_2">
     <g id="line2d_2">
      <g>
       <use style="stroke:#000000;stroke-width:0.8;" x="115.723636" xlink:href="#m3dbe843553" y="307.584"/>
      </g>
     </g>
     <g id="text_2">
      <!-- 0.0001 -->
      <defs>
       <path d="M 12.40625 8.296875 
L 28.515625 8.296875 
L 28.515625 63.921875 
L 10.984375 60.40625 
L 10.984375 69.390625 
L 28.421875 72.90625 
L 38.28125 72.90625 
L 38.28125 8.296875 
L 54.390625 8.296875 
L 54.390625 0 
L 12.40625 0 
z
" id="DejaVuSans-31"/>
      </defs>
      <g transform="translate(98.228324 322.182437)scale(0.1 -0.1)">
       <use xlink:href="#DejaVuSans-30"/>
       <use x="63.623047" xlink:href="#DejaVuSans-2e"/>
       <use x="95.410156" xlink:href="#DejaVuSans-30"/>
       <use x="159.033203" xlink:href="#DejaVuSans-30"/>
       <use x="222.65625" xlink:href="#DejaVuSans-30"/>
       <use x="286.279297" xlink:href="#DejaVuSans-31"/>
      </g>
     </g>
    </g>
    <g id="xtick_3">
     <g id="line2d_3">
      <g>
       <use style="stroke:#000000;stroke-width:0.8;" x="157.614545" xlink:href="#m3dbe843553" y="307.584"/>
      </g>
     </g>
     <g id="text_3">
      <!-- 0.0002 -->
      <defs>
       <path d="M 19.1875 8.296875 
L 53.609375 8.296875 
L 53.609375 0 
L 7.328125 0 
L 7.328125 8.296875 
Q 12.9375 14.109375 22.625 23.890625 
Q 32.328125 33.6875 34.8125 36.53125 
Q 39.546875 41.84375 41.421875 45.53125 
Q 43.3125 49.21875 43.3125 52.78125 
Q 43.3125 58.59375 39.234375 62.25 
Q 35.15625 65.921875 28.609375 65.921875 
Q 23.96875 65.921875 18.8125 64.3125 
Q 13.671875 62.703125 7.8125 59.421875 
L 7.8125 69.390625 
Q 13.765625 71.78125 18.9375 73 
Q 24.125 74.21875 28.421875 74.21875 
Q 39.75 74.21875 46.484375 68.546875 
Q 53.21875 62.890625 53.21875 53.421875 
Q 53.21875 48.921875 51.53125 44.890625 
Q 49.859375 40.875 45.40625 35.40625 
Q 44.1875 33.984375 37.640625 27.21875 
Q 31.109375 20.453125 19.1875 8.296875 
z
" id="DejaVuSans-32"/>
      </defs>
      <g transform="translate(140.119233 322.182437)scale(0.1 -0.1)">
       <use xlink:href="#DejaVuSans-30"/>
       <use x="63.623047" xlink:href="#DejaVuSans-2e"/>
       <use x="95.410156" xlink:href="#DejaVuSans-30"/>
       <use x="159.033203" xlink:href="#DejaVuSans-30"/>
       <use x="222.65625" xlink:href="#DejaVuSans-30"/>
       <use x="286.279297" xlink:href="#DejaVuSans-32"/>
      </g>
     </g>
    </g>
    <g id="xtick_4">
     <g id="line2d_4">
      <g>
       <use style="stroke:#000000;stroke-width:0.8;" x="199.505455" xlink:href="#m3dbe843553" y="307.584"/>
      </g>
     </g>
     <g id="text_4">
      <!-- 0.0003 -->
      <defs>
       <path d="M 40.578125 39.3125 
Q 47.65625 37.796875 51.625 33 
Q 55.609375 28.21875 55.609375 21.1875 
Q 55.609375 10.40625 48.1875 4.484375 
Q 40.765625 -1.421875 27.09375 -1.421875 
Q 22.515625 -1.421875 17.65625 -0.515625 
Q 12.796875 0.390625 7.625 2.203125 
L 7.625 11.71875 
Q 11.71875 9.328125 16.59375 8.109375 
Q 21.484375 6.890625 26.8125 6.890625 
Q 36.078125 6.890625 40.9375 10.546875 
Q 45.796875 14.203125 45.796875 21.1875 
Q 45.796875 27.640625 41.28125 31.265625 
Q 36.765625 34.90625 28.71875 34.90625 
L 20.21875 34.90625 
L 20.21875 43.015625 
L 29.109375 43.015625 
Q 36.375 43.015625 40.234375 45.921875 
Q 44.09375 48.828125 44.09375 54.296875 
Q 44.09375 59.90625 40.109375 62.90625 
Q 36.140625 65.921875 28.71875 65.921875 
Q 24.65625 65.921875 20.015625 65.03125 
Q 15.375 64.15625 9.8125 62.3125 
L 9.8125 71.09375 
Q 15.4375 72.65625 20.34375 73.4375 
Q 25.25 74.21875 29.59375 74.21875 
Q 40.828125 74.21875 47.359375 69.109375 
Q 53.90625 64.015625 53.90625 55.328125 
Q 53.90625 49.265625 50.4375 45.09375 
Q 46.96875 40.921875 40.578125 39.3125 
z
" id="DejaVuSans-33"/>
      </defs>
      <g transform="translate(182.010142 322.182437)scale(0.1 -0.1)">
       <use xlink:href="#DejaVuSans-30"/>
       <use x="63.623047" xlink:href="#DejaVuSans-2e"/>
       <use x="95.410156" xlink:href="#DejaVuSans-30"/>
       <use x="159.033203" xlink:href="#DejaVuSans-30"/>
       <use x="222.65625" xlink:href="#DejaVuSans-30"/>
       <use x="286.279297" xlink:href="#DejaVuSans-33"/>
      </g>
     </g>
    </g>
    <g id="xtick_5">
     <g id="line2d_5">
      <g>
       <use style="stroke:#000000;stroke-width:0.8;" x="241.396364" xlink:href="#m3dbe843553" y="307.584"/>
      </g>
     </g>
     <g id="text_5">
      <!-- 0.0004 -->
      <defs>
       <path d="M 37.796875 64.3125 
L 12.890625 25.390625 
L 37.796875 25.390625 
z
M 35.203125 72.90625 
L 47.609375 72.90625 
L 47.609375 25.390625 
L 58.015625 25.390625 
L 58.015625 17.1875 
L 47.609375 17.1875 
L 47.609375 0 
L 37.796875 0 
L 37.796875 17.1875 
L 4.890625 17.1875 
L 4.890625 26.703125 
z
" id="DejaVuSans-34"/>
      </defs>
      <g transform="translate(223.901051 322.182437)scale(0.1 -0.1)">
       <use xlink:href="#DejaVuSans-30"/>
       <use x="63.623047" xlink:href="#DejaVuSans-2e"/>
       <use x="95.410156" xlink:href="#DejaVuSans-30"/>
       <use x="159.033203" xlink:href="#DejaVuSans-30"/>
       <use x="222.65625" xlink:href="#DejaVuSans-30"/>
       <use x="286.279297" xlink:href="#DejaVuSans-34"/>
      </g>
     </g>
    </g>
    <g id="xtick_6">
     <g id="line2d_6">
      <g>
       <use style="stroke:#000000;stroke-width:0.8;" x="283.287273" xlink:href="#m3dbe843553" y="307.584"/>
      </g>
     </g>
     <g id="text_6">
      <!-- 0.0005 -->
      <defs>
       <path d="M 10.796875 72.90625 
L 49.515625 72.90625 
L 49.515625 64.59375 
L 19.828125 64.59375 
L 19.828125 46.734375 
Q 21.96875 47.46875 24.109375 47.828125 
Q 26.265625 48.1875 28.421875 48.1875 
Q 40.625 48.1875 47.75 41.5 
Q 54.890625 34.8125 54.890625 23.390625 
Q 54.890625 11.625 47.5625 5.09375 
Q 40.234375 -1.421875 26.90625 -1.421875 
Q 22.3125 -1.421875 17.546875 -0.640625 
Q 12.796875 0.140625 7.71875 1.703125 
L 7.71875 11.625 
Q 12.109375 9.234375 16.796875 8.0625 
Q 21.484375 6.890625 26.703125 6.890625 
Q 35.15625 6.890625 40.078125 11.328125 
Q 45.015625 15.765625 45.015625 23.390625 
Q 45.015625 31 40.078125 35.4375 
Q 35.15625 39.890625 26.703125 39.890625 
Q 22.75 39.890625 18.8125 39.015625 
Q 14.890625 38.140625 10.796875 36.28125 
z
" id="DejaVuSans-35"/>
      </defs>
      <g transform="translate(265.79196 322.182437)scale(0.1 -0.1)">
       <use xlink:href="#DejaVuSans-30"/>
       <use x="63.623047" xlink:href="#DejaVuSans-2e"/>
       <use x="95.410156" xlink:href="#DejaVuSans-30"/>
       <use x="159.033203" xlink:href="#DejaVuSans-30"/>
       <use x="222.65625" xlink:href="#DejaVuSans-30"/>
       <use x="286.279297" xlink:href="#DejaVuSans-35"/>
      </g>
     </g>
    </g>
    <g id="xtick_7">
     <g id="line2d_7">
      <g>
       <use style="stroke:#000000;stroke-width:0.8;" x="325.178182" xlink:href="#m3dbe843553" y="307.584"/>
      </g>
     </g>
     <g id="text_7">
      <!-- 0.0006 -->
      <defs>
       <path d="M 33.015625 40.375 
Q 26.375 40.375 22.484375 35.828125 
Q 18.609375 31.296875 18.609375 23.390625 
Q 18.609375 15.53125 22.484375 10.953125 
Q 26.375 6.390625 33.015625 6.390625 
Q 39.65625 6.390625 43.53125 10.953125 
Q 47.40625 15.53125 47.40625 23.390625 
Q 47.40625 31.296875 43.53125 35.828125 
Q 39.65625 40.375 33.015625 40.375 
z
M 52.59375 71.296875 
L 52.59375 62.3125 
Q 48.875 64.0625 45.09375 64.984375 
Q 41.3125 65.921875 37.59375 65.921875 
Q 27.828125 65.921875 22.671875 59.328125 
Q 17.53125 52.734375 16.796875 39.40625 
Q 19.671875 43.65625 24.015625 45.921875 
Q 28.375 48.1875 33.59375 48.1875 
Q 44.578125 48.1875 50.953125 41.515625 
Q 57.328125 34.859375 57.328125 23.390625 
Q 57.328125 12.15625 50.6875 5.359375 
Q 44.046875 -1.421875 33.015625 -1.421875 
Q 20.359375 -1.421875 13.671875 8.265625 
Q 6.984375 17.96875 6.984375 36.375 
Q 6.984375 53.65625 15.1875 63.9375 
Q 23.390625 74.21875 37.203125 74.21875 
Q 40.921875 74.21875 44.703125 73.484375 
Q 48.484375 72.75 52.59375 71.296875 
z
" id="DejaVuSans-36"/>
      </defs>
      <g transform="translate(307.682869 322.182437)scale(0.1 -0.1)">
       <use xlink:href="#DejaVuSans-30"/>
       <use x="63.623047" xlink:href="#DejaVuSans-2e"/>
       <use x="95.410156" xlink:href="#DejaVuSans-30"/>
       <use x="159.033203" xlink:href="#DejaVuSans-30"/>
       <use x="222.65625" xlink:href="#DejaVuSans-30"/>
       <use x="286.279297" xlink:href="#DejaVuSans-36"/>
      </g>
     </g>
    </g>
    <g id="xtick_8">
     <g id="line2d_8">
      <g>
       <use style="stroke:#000000;stroke-width:0.8;" x="367.069091" xlink:href="#m3dbe843553" y="307.584"/>
      </g>
     </g>
     <g id="text_8">
      <!-- 0.0007 -->
      <defs>
       <path d="M 8.203125 72.90625 
L 55.078125 72.90625 
L 55.078125 68.703125 
L 28.609375 0 
L 18.3125 0 
L 43.21875 64.59375 
L 8.203125 64.59375 
z
" id="DejaVuSans-37"/>
      </defs>
      <g transform="translate(349.573778 322.182437)scale(0.1 -0.1)">
       <use xlink:href="#DejaVuSans-30"/>
       <use x="63.623047" xlink:href="#DejaVuSans-2e"/>
       <use x="95.410156" xlink:href="#DejaVuSans-30"/>
       <use x="159.033203" xlink:href="#DejaVuSans-30"/>
       <use x="222.65625" xlink:href="#DejaVuSans-30"/>
       <use x="286.279297" xlink:href="#DejaVuSans-37"/>
      </g>
     </g>
    </g>
    <g id="xtick_9">
     <g id="line2d_9">
      <g>
       <use style="stroke:#000000;stroke-width:0.8;" x="408.96" xlink:href="#m3dbe843553" y="307.584"/>
      </g>
     </g>
     <g id="text_9">
      <!-- 0.0008 -->
      <defs>
       <path d="M 31.78125 34.625 
Q 24.75 34.625 20.71875 30.859375 
Q 16.703125 27.09375 16.703125 20.515625 
Q 16.703125 13.921875 20.71875 10.15625 
Q 24.75 6.390625 31.78125 6.390625 
Q 38.8125 6.390625 42.859375 10.171875 
Q 46.921875 13.96875 46.921875 20.515625 
Q 46.921875 27.09375 42.890625 30.859375 
Q 38.875 34.625 31.78125 34.625 
z
M 21.921875 38.8125 
Q 15.578125 40.375 12.03125 44.71875 
Q 8.5 49.078125 8.5 55.328125 
Q 8.5 64.0625 14.71875 69.140625 
Q 20.953125 74.21875 31.78125 74.21875 
Q 42.671875 74.21875 48.875 69.140625 
Q 55.078125 64.0625 55.078125 55.328125 
Q 55.078125 49.078125 51.53125 44.71875 
Q 48 40.375 41.703125 38.8125 
Q 48.828125 37.15625 52.796875 32.3125 
Q 56.78125 27.484375 56.78125 20.515625 
Q 56.78125 9.90625 50.3125 4.234375 
Q 43.84375 -1.421875 31.78125 -1.421875 
Q 19.734375 -1.421875 13.25 4.234375 
Q 6.78125 9.90625 6.78125 20.515625 
Q 6.78125 27.484375 10.78125 32.3125 
Q 14.796875 37.15625 21.921875 38.8125 
z
M 18.3125 54.390625 
Q 18.3125 48.734375 21.84375 45.5625 
Q 25.390625 42.390625 31.78125 42.390625 
Q 38.140625 42.390625 41.71875 45.5625 
Q 45.3125 48.734375 45.3125 54.390625 
Q 45.3125 60.0625 41.71875 63.234375 
Q 38.140625 66.40625 31.78125 66.40625 
Q 25.390625 66.40625 21.84375 63.234375 
Q 18.3125 60.0625 18.3125 54.390625 
z
" id="DejaVuSans-38"/>
      </defs>
      <g transform="translate(391.464687 322.182437)scale(0.1 -0.1)">
       <use xlink:href="#DejaVuSans-30"/>
       <use x="63.623047" xlink:href="#DejaVuSans-2e"/>
       <use x="95.410156" xlink:href="#DejaVuSans-30"/>
       <use x="159.033203" xlink:href="#DejaVuSans-30"/>
       <use x="222.65625" xlink:href="#DejaVuSans-30"/>
       <use x="286.279297" xlink:href="#DejaVuSans-38"/>
      </g>
     </g>
    </g>
    <g id="text_10">
     <!-- Time (s) -->
     <defs>
      <path d="M -0.296875 72.90625 
L 61.375 72.90625 
L 61.375 64.59375 
L 35.5 64.59375 
L 35.5 0 
L 25.59375 0 
L 25.59375 64.59375 
L -0.296875 64.59375 
z
" id="DejaVuSans-54"/>
      <path d="M 9.421875 54.6875 
L 18.40625 54.6875 
L 18.40625 0 
L 9.421875 0 
z
M 9.421875 75.984375 
L 18.40625 75.984375 
L 18.40625 64.59375 
L 9.421875 64.59375 
z
" id="DejaVuSans-69"/>
      <path d="M 52 44.1875 
Q 55.375 50.25 60.0625 53.125 
Q 64.75 56 71.09375 56 
Q 79.640625 56 84.28125 50.015625 
Q 88.921875 44.046875 88.921875 33.015625 
L 88.921875 0 
L 79.890625 0 
L 79.890625 32.71875 
Q 79.890625 40.578125 77.09375 44.375 
Q 74.3125 48.1875 68.609375 48.1875 
Q 61.625 48.1875 57.5625 43.546875 
Q 53.515625 38.921875 53.515625 30.90625 
L 53.515625 0 
L 44.484375 0 
L 44.484375 32.71875 
Q 44.484375 40.625 41.703125 44.40625 
Q 38.921875 48.1875 33.109375 48.1875 
Q 26.21875 48.1875 22.15625 43.53125 
Q 18.109375 38.875 18.109375 30.90625 
L 18.109375 0 
L 9.078125 0 
L 9.078125 54.6875 
L 18.109375 54.6875 
L 18.109375 46.1875 
Q 21.1875 51.21875 25.484375 53.609375 
Q 29.78125 56 35.6875 56 
Q 41.65625 56 45.828125 52.96875 
Q 50 49.953125 52 44.1875 
z
" id="DejaVuSans-6d"/>
      <path d="M 56.203125 29.59375 
L 56.203125 25.203125 
L 14.890625 25.203125 
Q 15.484375 15.921875 20.484375 11.0625 
Q 25.484375 6.203125 34.421875 6.203125 
Q 39.59375 6.203125 44.453125 7.46875 
Q 49.3125 8.734375 54.109375 11.28125 
L 54.109375 2.78125 
Q 49.265625 0.734375 44.1875 -0.34375 
Q 39.109375 -1.421875 33.890625 -1.421875 
Q 20.796875 -1.421875 13.15625 6.1875 
Q 5.515625 13.8125 5.515625 26.8125 
Q 5.515625 40.234375 12.765625 48.109375 
Q 20.015625 56 32.328125 56 
Q 43.359375 56 49.78125 48.890625 
Q 56.203125 41.796875 56.203125 29.59375 
z
M 47.21875 32.234375 
Q 47.125 39.59375 43.09375 43.984375 
Q 39.0625 48.390625 32.421875 48.390625 
Q 24.90625 48.390625 20.390625 44.140625 
Q 15.875 39.890625 15.1875 32.171875 
z
" id="DejaVuSans-65"/>
      <path id="DejaVuSans-20"/>
      <path d="M 31 75.875 
Q 24.46875 64.65625 21.28125 53.65625 
Q 18.109375 42.671875 18.109375 31.390625 
Q 18.109375 20.125 21.3125 9.0625 
Q 24.515625 -2 31 -13.1875 
L 23.1875 -13.1875 
Q 15.875 -1.703125 12.234375 9.375 
Q 8.59375 20.453125 8.59375 31.390625 
Q 8.59375 42.28125 12.203125 53.3125 
Q 15.828125 64.359375 23.1875 75.875 
z
" id="DejaVuSans-28"/>
      <path d="M 44.28125 53.078125 
L 44.28125 44.578125 
Q 40.484375 46.53125 36.375 47.5 
Q 32.28125 48.484375 27.875 48.484375 
Q 21.1875 48.484375 17.84375 46.4375 
Q 14.5 44.390625 14.5 40.28125 
Q 14.5 37.15625 16.890625 35.375 
Q 19.28125 33.59375 26.515625 31.984375 
L 29.59375 31.296875 
Q 39.15625 29.25 43.1875 25.515625 
Q 47.21875 21.78125 47.21875 15.09375 
Q 47.21875 7.46875 41.1875 3.015625 
Q 35.15625 -1.421875 24.609375 -1.421875 
Q 20.21875 -1.421875 15.453125 -0.5625 
Q 10.6875 0.296875 5.421875 2 
L 5.421875 11.28125 
Q 10.40625 8.6875 15.234375 7.390625 
Q 20.0625 6.109375 24.8125 6.109375 
Q 31.15625 6.109375 34.5625 8.28125 
Q 37.984375 10.453125 37.984375 14.40625 
Q 37.984375 18.0625 35.515625 20.015625 
Q 33.0625 21.96875 24.703125 23.78125 
L 21.578125 24.515625 
Q 13.234375 26.265625 9.515625 29.90625 
Q 5.8125 33.546875 5.8125 39.890625 
Q 5.8125 47.609375 11.28125 51.796875 
Q 16.75 56 26.8125 56 
Q 31.78125 56 36.171875 55.265625 
Q 40.578125 54.546875 44.28125 53.078125 
z
" id="DejaVuSans-73"/>
      <path d="M 8.015625 75.875 
L 15.828125 75.875 
Q 23.140625 64.359375 26.78125 53.3125 
Q 30.421875 42.28125 30.421875 31.390625 
Q 30.421875 20.453125 26.78125 9.375 
Q 23.140625 -1.703125 15.828125 -13.1875 
L 8.015625 -13.1875 
Q 14.5 -2 17.703125 9.0625 
Q 20.90625 20.125 20.90625 31.390625 
Q 20.90625 42.671875 17.703125 53.65625 
Q 14.5 64.65625 8.015625 75.875 
z
" id="DejaVuSans-29"/>
     </defs>
     <g transform="translate(215.677188 335.860562)scale(0.1 -0.1)">
      <use xlink:href="#DejaVuSans-54"/>
      <use x="61.037109" xlink:href="#DejaVuSans-69"/>
      <use x="88.820312" xlink:href="#DejaVuSans-6d"/>
      <use x="186.232422" xlink:href="#DejaVuSans-65"/>
      <use x="247.755859" xlink:href="#DejaVuSans-20"/>
      <use x="279.542969" xlink:href="#DejaVuSans-28"/>
      <use x="318.556641" xlink:href="#DejaVuSans-73"/>
      <use x="370.65625" xlink:href="#DejaVuSans-29"/>
     </g>
    </g>
   </g>
   <g id="matplotlib.axis_2">
    <g id="ytick_1">
     <g id="line2d_10">
      <defs>
       <path d="M 0 0 
L -3.5 0 
" id="m7d9c6a8670" style="stroke:#000000;stroke-width:0.8;"/>
      </defs>
      <g>
       <use style="stroke:#000000;stroke-width:0.8;" x="57.6" xlink:href="#m7d9c6a8670" y="288.576"/>
      </g>
     </g>
     <g id="text_11">
      <!-- −60 -->
      <defs>
       <path d="M 10.59375 35.5 
L 73.1875 35.5 
L 73.1875 27.203125 
L 10.59375 27.203125 
z
" id="DejaVuSans-2212"/>
      </defs>
      <g transform="translate(29.495313 292.375219)scale(0.1 -0.1)">
       <use xlink:href="#DejaVuSans-2212"/>
       <use x="83.789062" xlink:href="#DejaVuSans-36"/>
       <use x="147.412109" xlink:href="#DejaVuSans-30"/>
      </g>
     </g>
    </g>
    <g id="ytick_2">
     <g id="line2d_11">
      <g>
       <use style="stroke:#000000;stroke-width:0.8;" x="57.6" xlink:href="#m7d9c6a8670" y="250.56"/>
      </g>
     </g>
     <g id="text_12">
      <!-- −40 -->
      <g transform="translate(29.495313 254.359219)scale(0.1 -0.1)">
       <use xlink:href="#DejaVuSans-2212"/>
       <use x="83.789062" xlink:href="#DejaVuSans-34"/>
       <use x="147.412109" xlink:href="#DejaVuSans-30"/>
      </g>
     </g>
    </g>
    <g id="ytick_3">
     <g id="line2d_12">
      <g>
       <use style="stroke:#000000;stroke-width:0.8;" x="57.6" xlink:href="#m7d9c6a8670" y="212.544"/>
      </g>
     </g>
     <g id="text_13">
      <!-- −20 -->
      <g transform="translate(29.495313 216.343219)scale(0.1 -0.1)">
       <use xlink:href="#DejaVuSans-2212"/>
       <use x="83.789062" xlink:href="#DejaVuSans-32"/>
       <use x="147.412109" xlink:href="#DejaVuSans-30"/>
      </g>
     </g>
    </g>
    <g id="ytick_4">
     <g id="line2d_13">
      <g>
       <use style="stroke:#000000;stroke-width:0.8;" x="57.6" xlink:href="#m7d9c6a8670" y="174.528"/>
      </g>
     </g>
     <g id="text_14">
      <!-- 0 -->
      <g transform="translate(44.2375 178.327219)scale(0.1 -0.1)">
       <use xlink:href="#DejaVuSans-30"/>
      </g>
     </g>
    </g>
    <g id="ytick_5">
     <g id="line2d_14">
      <g>
       <use style="stroke:#000000;stroke-width:0.8;" x="57.6" xlink:href="#m7d9c6a8670" y="136.512"/>
      </g>
     </g>
     <g id="text_15">
      <!-- 20 -->
      <g transform="translate(37.875 140.311219)scale(0.1 -0.1)">
       <use xlink:href="#DejaVuSans-32"/>
       <use x="63.623047" xlink:href="#DejaVuSans-30"/>
      </g>
     </g>
    </g>
    <g id="ytick_6">
     <g id="line2d_15">
      <g>
       <use style="stroke:#000000;stroke-width:0.8;" x="57.6" xlink:href="#m7d9c6a8670" y="98.496"/>
      </g>
     </g>
     <g id="text_16">
      <!-- 40 -->
      <g transform="translate(37.875 102.295219)scale(0.1 -0.1)">
       <use xlink:href="#DejaVuSans-34"/>
       <use x="63.623047" xlink:href="#DejaVuSans-30"/>
      </g>
     </g>
    </g>
    <g id="ytick_7">
     <g id="line2d_16">
      <g>
       <use style="stroke:#000000;stroke-width:0.8;" x="57.6" xlink:href="#m7d9c6a8670" y="60.48"/>
      </g>
     </g>
     <g id="text_17">
      <!-- 60 -->
      <g transform="translate(37.875 64.279219)scale(0.1 -0.1)">
       <use xlink:href="#DejaVuSans-36"/>
       <use x="63.623047" xlink:href="#DejaVuSans-30"/>
      </g>
     </g>
    </g>
    <g id="text_18">
     <!-- Voltage ($\mu$V) -->
     <defs>
      <path d="M 28.609375 0 
L 0.78125 72.90625 
L 11.078125 72.90625 
L 34.1875 11.53125 
L 57.328125 72.90625 
L 67.578125 72.90625 
L 39.796875 0 
z
" id="DejaVuSans-56"/>
      <path d="M 30.609375 48.390625 
Q 23.390625 48.390625 19.1875 42.75 
Q 14.984375 37.109375 14.984375 27.296875 
Q 14.984375 17.484375 19.15625 11.84375 
Q 23.34375 6.203125 30.609375 6.203125 
Q 37.796875 6.203125 41.984375 11.859375 
Q 46.1875 17.53125 46.1875 27.296875 
Q 46.1875 37.015625 41.984375 42.703125 
Q 37.796875 48.390625 30.609375 48.390625 
z
M 30.609375 56 
Q 42.328125 56 49.015625 48.375 
Q 55.71875 40.765625 55.71875 27.296875 
Q 55.71875 13.875 49.015625 6.21875 
Q 42.328125 -1.421875 30.609375 -1.421875 
Q 18.84375 -1.421875 12.171875 6.21875 
Q 5.515625 13.875 5.515625 27.296875 
Q 5.515625 40.765625 12.171875 48.375 
Q 18.84375 56 30.609375 56 
z
" id="DejaVuSans-6f"/>
      <path d="M 9.421875 75.984375 
L 18.40625 75.984375 
L 18.40625 0 
L 9.421875 0 
z
" id="DejaVuSans-6c"/>
      <path d="M 18.3125 70.21875 
L 18.3125 54.6875 
L 36.8125 54.6875 
L 36.8125 47.703125 
L 18.3125 47.703125 
L 18.3125 18.015625 
Q 18.3125 11.328125 20.140625 9.421875 
Q 21.96875 7.515625 27.59375 7.515625 
L 36.8125 7.515625 
L 36.8125 0 
L 27.59375 0 
Q 17.1875 0 13.234375 3.875 
Q 9.28125 7.765625 9.28125 18.015625 
L 9.28125 47.703125 
L 2.6875 47.703125 
L 2.6875 54.6875 
L 9.28125 54.6875 
L 9.28125 70.21875 
z
" id="DejaVuSans-74"/>
      <path d="M 34.28125 27.484375 
Q 23.390625 27.484375 19.1875 25 
Q 14.984375 22.515625 14.984375 16.5 
Q 14.984375 11.71875 18.140625 8.90625 
Q 21.296875 6.109375 26.703125 6.109375 
Q 34.1875 6.109375 38.703125 11.40625 
Q 43.21875 16.703125 43.21875 25.484375 
L 43.21875 27.484375 
z
M 52.203125 31.203125 
L 52.203125 0 
L 43.21875 0 
L 43.21875 8.296875 
Q 40.140625 3.328125 35.546875 0.953125 
Q 30.953125 -1.421875 24.3125 -1.421875 
Q 15.921875 -1.421875 10.953125 3.296875 
Q 6 8.015625 6 15.921875 
Q 6 25.140625 12.171875 29.828125 
Q 18.359375 34.515625 30.609375 34.515625 
L 43.21875 34.515625 
L 43.21875 35.40625 
Q 43.21875 41.609375 39.140625 45 
Q 35.0625 48.390625 27.6875 48.390625 
Q 23 48.390625 18.546875 47.265625 
Q 14.109375 46.140625 10.015625 43.890625 
L 10.015625 52.203125 
Q 14.9375 54.109375 19.578125 55.046875 
Q 24.21875 56 28.609375 56 
Q 40.484375 56 46.34375 49.84375 
Q 52.203125 43.703125 52.203125 31.203125 
z
" id="DejaVuSans-61"/>
      <path d="M 45.40625 27.984375 
Q 45.40625 37.75 41.375 43.109375 
Q 37.359375 48.484375 30.078125 48.484375 
Q 22.859375 48.484375 18.828125 43.109375 
Q 14.796875 37.75 14.796875 27.984375 
Q 14.796875 18.265625 18.828125 12.890625 
Q 22.859375 7.515625 30.078125 7.515625 
Q 37.359375 7.515625 41.375 12.890625 
Q 45.40625 18.265625 45.40625 27.984375 
z
M 54.390625 6.78125 
Q 54.390625 -7.171875 48.1875 -13.984375 
Q 42 -20.796875 29.203125 -20.796875 
Q 24.46875 -20.796875 20.265625 -20.09375 
Q 16.0625 -19.390625 12.109375 -17.921875 
L 12.109375 -9.1875 
Q 16.0625 -11.328125 19.921875 -12.34375 
Q 23.78125 -13.375 27.78125 -13.375 
Q 36.625 -13.375 41.015625 -8.765625 
Q 45.40625 -4.15625 45.40625 5.171875 
L 45.40625 9.625 
Q 42.625 4.78125 38.28125 2.390625 
Q 33.9375 0 27.875 0 
Q 17.828125 0 11.671875 7.65625 
Q 5.515625 15.328125 5.515625 27.984375 
Q 5.515625 40.671875 11.671875 48.328125 
Q 17.828125 56 27.875 56 
Q 33.9375 56 38.28125 53.609375 
Q 42.625 51.21875 45.40625 46.390625 
L 45.40625 54.6875 
L 54.390625 54.6875 
z
" id="DejaVuSans-67"/>
      <path d="M -1.3125 -20.796875 
L 13.375 54.6875 
L 22.40625 54.6875 
L 15.765625 20.65625 
Q 15.578125 19.625 15.421875 18.359375 
Q 15.28125 17.09375 15.28125 15.828125 
Q 15.28125 11.28125 18.140625 8.828125 
Q 21 6.390625 26.3125 6.390625 
Q 33.546875 6.390625 37.984375 10.484375 
Q 42.4375 14.59375 44 22.796875 
L 50.203125 54.6875 
L 59.1875 54.6875 
L 51.03125 12.640625 
Q 50.828125 11.71875 50.75 11.03125 
Q 50.6875 10.359375 50.6875 9.8125 
Q 50.6875 8.296875 51.296875 7.59375 
Q 51.90625 6.890625 53.21875 6.890625 
Q 53.71875 6.890625 54.5625 7.125 
Q 55.421875 7.375 56.984375 8.015625 
L 55.609375 0.78125 
Q 53.46875 -0.296875 51.515625 -0.859375 
Q 49.5625 -1.421875 47.703125 -1.421875 
Q 44.484375 -1.421875 42.65625 0.625 
Q 40.828125 2.6875 40.828125 6.296875 
Q 38.09375 2.390625 34.296875 0.484375 
Q 30.515625 -1.421875 25.390625 -1.421875 
Q 20.84375 -1.421875 17.453125 0.671875 
Q 14.0625 2.78125 12.984375 6.203125 
L 7.71875 -20.796875 
z
" id="DejaVuSans-Oblique-3bc"/>
     </defs>
     <g transform="translate(23.395312 205.778)rotate(-90)scale(0.1 -0.1)">
      <use transform="translate(0 0.015625)" xlink:href="#DejaVuSans-56"/>
      <use transform="translate(68.408203 0.015625)" xlink:href="#DejaVuSans-6f"/>
      <use transform="translate(129.589844 0.015625)" xlink:href="#DejaVuSans-6c"/>
      <use transform="translate(157.373047 0.015625)" xlink:href="#DejaVuSans-74"/>
      <use transform="translate(196.582031 0.015625)" xlink:href="#DejaVuSans-61"/>
      <use transform="translate(257.861328 0.015625)" xlink:href="#DejaVuSans-67"/>
      <use transform="translate(321.337891 0.015625)" xlink:href="#DejaVuSans-65"/>
      <use transform="translate(382.861328 0.015625)" xlink:href="#DejaVuSans-20"/>
      <use transform="translate(414.648438 0.015625)" xlink:href="#DejaVuSans-28"/>
      <use transform="translate(453.662109 0.015625)" xlink:href="#DejaVuSans-Oblique-3bc"/>
      <use transform="translate(517.285156 0.015625)" xlink:href="#DejaVuSans-56"/>
      <use transform="translate(585.693359 0.015625)" xlink:href="#DejaVuSans-29"/>
     </g>
    </g>
   </g>
   <g id="line2d_17">
    <path clip-path="url(#pe21e777151)" d="M 73.832727 172.393267 
L 84.305455 172.363444 
L 94.778182 171.8308 
L 105.250909 170.694378 
L 115.723636 170.312311 
L 126.196364 174.105111 
L 136.669091 185.824267 
L 147.141818 206.0144 
L 157.614545 229.967267 
L 168.087273 250.057667 
L 178.56 260.500333 
L 189.032727 260.037356 
L 199.505455 253.000044 
L 209.978182 241.154756 
L 220.450909 225.757933 
L 230.923636 209.6092 
L 241.396364 194.1806 
L 251.869091 179.822667 
L 262.341818 166.5772 
L 272.814545 154.869044 
L 283.287273 144.980778 
L 293.76 136.504422 
L 304.232727 128.997044 
L 314.705455 122.513889 
L 325.178182 117.350489 
L 335.650909 113.651311 
L 346.123636 111.308311 
L 356.596364 110.026444 
L 367.069091 109.559067 
L 377.541818 109.578133 
L 388.014545 109.842378 
L 398.487273 110.500667 
" style="fill:none;stroke:#000000;stroke-linecap:square;stroke-width:1.5;"/>
   </g>
   <g id="line2d_18">
    <path clip-path="url(#pe21e777151)" d="M 73.832727 185.4576 
L 84.305455 186.8832 
L 94.778182 187.1802 
L 105.250909 184.2102 
L 115.723636 178.8642 
L 126.196364 176.904 
L 136.669091 184.6854 
L 147.141818 206.6634 
L 157.614545 240.8778 
L 168.087273 275.9832 
L 178.56 296.1792 
L 189.032727 293.8626 
L 199.505455 268.7364 
L 209.978182 238.383 
L 220.450909 219.375 
L 230.923636 212.1282 
L 241.396364 205.1784 
L 251.869091 189.2592 
L 262.341818 166.1526 
L 272.814545 144.828 
L 283.287273 132.354 
L 293.76 128.196 
L 304.232727 123.3252 
L 314.705455 111.3264 
L 325.178182 100.6344 
L 335.650909 99.3276 
L 346.123636 99.4464 
L 356.596364 90.6552 
L 367.069091 76.3992 
L 377.541818 68.1426 
L 388.014545 72.2412 
L 398.487273 83.5272 
" style="fill:none;stroke:#ff0000;stroke-linecap:square;stroke-width:1.5;"/>
   </g>
   <g id="line2d_19">
    <path clip-path="url(#pe21e777151)" d="M 73.832727 167.5188 
L 84.305455 164.8458 
L 94.778182 166.1526 
L 105.250909 170.6076 
L 115.723636 174.7656 
L 126.196364 181.2402 
L 136.669091 193.833 
L 147.141818 208.3266 
L 157.614545 221.2164 
L 168.087273 237.4326 
L 178.56 259.2918 
L 189.032727 279.4878 
L 199.505455 287.0316 
L 209.978182 277.3494 
L 220.450909 259.8858 
L 230.923636 245.1546 
L 241.396364 231.9678 
L 251.869091 213.435 
L 262.341818 189.1998 
L 272.814545 166.3308 
L 283.287273 151.2432 
L 293.76 146.0754 
L 304.232727 145.7784 
L 314.705455 141.9174 
L 325.178182 130.9284 
L 335.650909 117.3258 
L 346.123636 108.4752 
L 356.596364 106.3962 
L 367.069091 105.8616 
L 377.541818 102.06 
L 388.014545 95.3478 
L 398.487273 91.7244 
" style="fill:none;stroke:#ff1e00;stroke-linecap:square;stroke-width:1.5;"/>
   </g>
   <g id="line2d_20">
    <path clip-path="url(#pe21e777151)" d="M 73.832727 185.2794 
L 84.305455 178.1514 
L 94.778182 176.7258 
L 105.250909 178.9236 
L 115.723636 181.4184 
L 126.196364 184.329 
L 136.669091 191.8134 
L 147.141818 208.6236 
L 157.614545 234.522 
L 168.087273 263.3904 
L 178.56 282.8142 
L 189.032727 283.3488 
L 199.505455 267.6672 
L 209.978182 244.1448 
L 220.450909 218.5434 
L 230.923636 194.7834 
L 241.396364 176.0724 
L 251.869091 162.945 
L 262.341818 154.3914 
L 272.814545 149.877 
L 283.287273 144.3528 
L 293.76 132.8886 
L 304.232727 117.0288 
L 314.705455 101.466 
L 325.178182 90.3582 
L 335.650909 84.7152 
L 346.123636 84.4182 
L 356.596364 87.21 
L 367.069091 88.992 
L 377.541818 89.4672 
L 388.014545 91.8432 
L 398.487273 98.3772 
" style="fill:none;stroke:#ff3b00;stroke-linecap:square;stroke-width:1.5;"/>
   </g>
   <g id="line2d_21">
    <path clip-path="url(#pe21e777151)" d="M 73.832727 176.904 
L 84.305455 175.8348 
L 94.778182 174.0528 
L 105.250909 175.9536 
L 115.723636 178.2702 
L 126.196364 178.9236 
L 136.669091 184.329 
L 147.141818 202.9212 
L 157.614545 232.5024 
L 168.087273 261.9054 
L 178.56 280.4382 
L 189.032727 282.7548 
L 199.505455 275.0922 
L 209.978182 268.0236 
L 220.450909 262.2618 
L 230.923636 252.1638 
L 241.396364 234.522 
L 251.869091 211.7124 
L 262.341818 188.0712 
L 272.814545 166.0338 
L 283.287273 146.8476 
L 293.76 131.1066 
L 304.232727 117.0882 
L 314.705455 104.6142 
L 325.178182 97.0704 
L 335.650909 96.714 
L 346.123636 98.496 
L 356.596364 93.6846 
L 367.069091 81.0918 
L 377.541818 70.0434 
L 388.014545 70.1622 
L 398.487273 80.379 
" style="fill:none;stroke:#ff5900;stroke-linecap:square;stroke-width:1.5;"/>
   </g>
   <g id="line2d_22">
    <path clip-path="url(#pe21e777151)" d="M 73.832727 174.2904 
L 84.305455 178.8642 
L 94.778182 176.1318 
L 105.250909 171.2016 
L 115.723636 169.3602 
L 126.196364 172.9836 
L 136.669091 184.329 
L 147.141818 203.1588 
L 157.614545 226.3842 
L 168.087273 251.5104 
L 178.56 275.1516 
L 189.032727 291.6054 
L 199.505455 296.1198 
L 209.978182 290.358 
L 220.450909 279.4284 
L 230.923636 264.6972 
L 241.396364 244.7388 
L 251.869091 220.0284 
L 262.341818 194.0112 
L 272.814545 172.152 
L 283.287273 157.7178 
L 293.76 149.6394 
L 304.232727 143.5806 
L 314.705455 130.869 
L 325.178182 108.6534 
L 335.650909 87.0912 
L 346.123636 77.8248 
L 356.596364 81.6858 
L 367.069091 87.507 
L 377.541818 85.131 
L 388.014545 78.4782 
L 398.487273 79.3098 
" style="fill:none;stroke:#ff7600;stroke-linecap:square;stroke-width:1.5;"/>
   </g>
   <g id="line2d_23">
    <path clip-path="url(#pe21e777151)" d="M 73.832727 153.8568 
L 84.305455 161.757 
L 94.778182 168.5286 
L 105.250909 169.7166 
L 115.723636 171.0828 
L 126.196364 179.9334 
L 136.669091 194.3082 
L 147.141818 208.2078 
L 157.614545 222.642 
L 168.087273 243.0756 
L 178.56 266.2416 
L 189.032727 280.9134 
L 199.505455 280.7352 
L 209.978182 268.3206 
L 220.450909 249.7284 
L 230.923636 229.8888 
L 241.396364 213.3162 
L 251.869091 201.1986 
L 262.341818 189.4374 
L 272.814545 174.7656 
L 283.287273 159.084 
L 293.76 144.2934 
L 304.232727 131.2848 
L 314.705455 123.3252 
L 325.178182 121.4838 
L 335.650909 121.6026 
L 346.123636 117.9198 
L 356.596364 109.0098 
L 367.069091 98.199 
L 377.541818 92.1402 
L 388.014545 94.2786 
L 398.487273 101.7036 
" style="fill:none;stroke:#ff9400;stroke-linecap:square;stroke-width:1.5;"/>
   </g>
   <g id="line2d_24">
    <path clip-path="url(#pe21e777151)" d="M 73.832727 174.7656 
L 84.305455 172.8054 
L 94.778182 166.212 
L 105.250909 157.599 
L 115.723636 152.7282 
L 126.196364 157.7178 
L 136.669091 174.528 
L 147.141818 199.179 
L 157.614545 225.7308 
L 168.087273 248.0058 
L 178.56 259.7076 
L 189.032727 257.4504 
L 199.505455 243.0162 
L 209.978182 223.2954 
L 220.450909 207.8514 
L 230.923636 199.5354 
L 241.396364 192.051 
L 251.869091 182.1312 
L 262.341818 174.0528 
L 272.814545 168.5286 
L 283.287273 160.9254 
L 293.76 151.956 
L 304.232727 143.343 
L 314.705455 133.0074 
L 325.178182 121.7808 
L 335.650909 116.9694 
L 346.123636 123.5628 
L 356.596364 133.839 
L 367.069091 139.4226 
L 377.541818 139.0068 
L 388.014545 135.027 
L 398.487273 131.9976 
" style="fill:none;stroke:#ffb100;stroke-linecap:square;stroke-width:1.5;"/>
   </g>
   <g id="line2d_25">
    <path clip-path="url(#pe21e777151)" d="M 73.832727 196.3278 
L 84.305455 201.4362 
L 94.778182 194.1894 
L 105.250909 182.0124 
L 115.723636 176.5476 
L 126.196364 180.6462 
L 136.669091 191.2788 
L 147.141818 205.9506 
L 157.614545 223.1172 
L 168.087273 241.1154 
L 178.56 259.767 
L 189.032727 276.4584 
L 199.505455 284.1804 
L 209.978182 277.8246 
L 220.450909 258.6978 
L 230.923636 232.2648 
L 241.396364 205.0002 
L 251.869091 181.8936 
L 262.341818 165.618 
L 272.814545 155.5794 
L 283.287273 148.4514 
L 293.76 139.9572 
L 304.232727 128.5524 
L 314.705455 116.019 
L 325.178182 105.3864 
L 335.650909 97.4268 
L 346.123636 91.4274 
L 356.596364 85.428 
L 367.069091 78.4782 
L 377.541818 74.9736 
L 388.014545 78.597 
L 398.487273 87.5664 
" style="fill:none;stroke:#ffcf00;stroke-linecap:square;stroke-width:1.5;"/>
   </g>
   <g id="line2d_26">
    <path clip-path="url(#pe21e777151)" d="M 73.832727 174.1122 
L 84.305455 181.359 
L 94.778182 183.141 
L 105.250909 171.7956 
L 115.723636 151.956 
L 126.196364 142.749 
L 136.669091 158.8464 
L 147.141818 193.5954 
L 157.614545 225.612 
L 168.087273 240.8184 
L 178.56 241.7688 
L 189.032727 239.9868 
L 199.505455 240.4026 
L 209.978182 234.3438 
L 220.450909 215.3358 
L 230.923636 190.9818 
L 241.396364 169.5384 
L 251.869091 153.2628 
L 262.341818 143.1648 
L 272.814545 140.6106 
L 283.287273 143.5212 
L 293.76 145.6596 
L 304.232727 141.1452 
L 314.705455 131.2848 
L 325.178182 122.553 
L 335.650909 117.9792 
L 346.123636 117.2664 
L 356.596364 119.9394 
L 367.069091 122.0184 
L 377.541818 121.1868 
L 388.014545 122.0778 
L 398.487273 130.5126 
" style="fill:none;stroke:#ffec00;stroke-linecap:square;stroke-width:1.5;"/>
   </g>
   <g id="line2d_27">
    <path clip-path="url(#pe21e777151)" d="M 73.832727 160.0344 
L 84.305455 159.975 
L 94.778182 161.2818 
L 105.250909 161.3412 
L 115.723636 161.9946 
L 126.196364 167.4594 
L 136.669091 179.577 
L 147.141818 197.8722 
L 157.614545 221.0382 
L 168.087273 246.996 
L 178.56 269.7462 
L 189.032727 282.1608 
L 199.505455 281.5074 
L 209.978182 269.4492 
L 220.450909 250.6194 
L 230.923636 232.9776 
L 241.396364 221.2164 
L 251.869091 211.4748 
L 262.341818 197.694 
L 272.814545 180.3492 
L 283.287273 162.8856 
L 293.76 145.719 
L 304.232727 128.4336 
L 314.705455 111.564 
L 325.178182 96.417 
L 335.650909 85.4874 
L 346.123636 83.2896 
L 356.596364 89.2296 
L 367.069091 95.3478 
L 377.541818 96.12 
L 388.014545 90.9522 
L 398.487273 84.3588 
" style="fill:none;stroke:#eeff00;stroke-linecap:square;stroke-width:1.5;"/>
   </g>
   <g id="line2d_28">
    <path clip-path="url(#pe21e777151)" d="M 73.832727 156.4704 
L 84.305455 157.7772 
L 94.778182 152.7876 
L 105.250909 141.9768 
L 115.723636 137.403 
L 126.196364 148.392 
L 136.669091 171.4392 
L 147.141818 197.5158 
L 157.614545 219.2562 
L 168.087273 232.5024 
L 178.56 234.7596 
L 189.032727 228.1068 
L 199.505455 218.8404 
L 209.978182 210.8808 
L 220.450909 200.961 
L 230.923636 185.2794 
L 241.396364 170.0136 
L 251.869091 162.4104 
L 262.341818 158.49 
L 272.814545 151.659 
L 283.287273 140.9076 
L 293.76 131.0472 
L 304.232727 127.2456 
L 314.705455 127.9584 
L 325.178182 126.8892 
L 335.650909 124.632 
L 346.123636 125.5824 
L 356.596364 130.3938 
L 367.069091 135.3834 
L 377.541818 137.403 
L 388.014545 137.9376 
L 398.487273 138.7098 
" style="fill:none;stroke:#d1ff00;stroke-linecap:square;stroke-width:1.5;"/>
   </g>
   <g id="line2d_29">
    <path clip-path="url(#pe21e777151)" d="M 73.832727 175.2408 
L 84.305455 180.3492 
L 94.778182 186.7644 
L 105.250909 196.6842 
L 115.723636 206.7822 
L 126.196364 209.9898 
L 136.669091 209.574 
L 147.141818 218.0682 
L 157.614545 239.0958 
L 168.087273 261.7272 
L 178.56 274.4388 
L 189.032727 276.2802 
L 199.505455 271.8846 
L 209.978182 262.2618 
L 220.450909 244.026 
L 230.923636 218.781 
L 241.396364 193.833 
L 251.869091 174.1716 
L 262.341818 158.6088 
L 272.814545 145.8972 
L 283.287273 135.027 
L 293.76 123.9786 
L 304.232727 112.8114 
L 314.705455 103.4262 
L 325.178182 96.8922 
L 335.650909 94.5162 
L 346.123636 96.714 
L 356.596364 101.8224 
L 367.069091 106.0398 
L 377.541818 107.7624 
L 388.014545 108.2376 
L 398.487273 105.03 
" style="fill:none;stroke:#b3ff00;stroke-linecap:square;stroke-width:1.5;"/>
   </g>
   <g id="line2d_30">
    <path clip-path="url(#pe21e777151)" d="M 73.832727 152.0154 
L 84.305455 148.9266 
L 94.778182 152.1936 
L 105.250909 160.4502 
L 115.723636 170.4294 
L 126.196364 180.0522 
L 136.669091 194.427 
L 147.141818 216.5238 
L 157.614545 238.7988 
L 168.087273 256.0248 
L 178.56 270.1026 
L 189.032727 278.3592 
L 199.505455 273.5478 
L 209.978182 257.5692 
L 220.450909 240.1056 
L 230.923636 225.612 
L 241.396364 212.0688 
L 251.869091 196.6248 
L 262.341818 179.4582 
L 272.814545 164.5488 
L 283.287273 151.362 
L 293.76 134.9676 
L 304.232727 117.9792 
L 314.705455 110.3166 
L 325.178182 113.1678 
L 335.650909 115.3656 
L 346.123636 107.6436 
L 356.596364 95.7636 
L 367.069091 91.9026 
L 377.541818 96.5358 
L 388.014545 99.1494 
L 398.487273 95.4666 
" style="fill:none;stroke:#96ff00;stroke-linecap:square;stroke-width:1.5;"/>
   </g>
   <g id="line2d_31">
    <path clip-path="url(#pe21e777151)" d="M 73.832727 168.7662 
L 84.305455 167.5188 
L 94.778182 166.806 
L 105.250909 171.7362 
L 115.723636 183.6162 
L 126.196364 196.6842 
L 136.669091 206.01 
L 147.141818 214.5042 
L 157.614545 226.3842 
L 168.087273 241.8876 
L 178.56 256.7376 
L 189.032727 262.9746 
L 199.505455 256.2624 
L 209.978182 242.7192 
L 220.450909 228.3444 
L 230.923636 211.1778 
L 241.396364 192.8826 
L 251.869091 180.765 
L 262.341818 173.043 
L 272.814545 160.8066 
L 283.287273 141.9768 
L 293.76 123.741 
L 304.232727 114.3558 
L 314.705455 114.534 
L 325.178182 116.316 
L 335.650909 110.6136 
L 346.123636 94.9914 
L 356.596364 77.1714 
L 367.069091 67.9644 
L 377.541818 71.469 
L 388.014545 83.1708 
L 398.487273 95.0508 
" style="fill:none;stroke:#78ff00;stroke-linecap:square;stroke-width:1.5;"/>
   </g>
   <g id="line2d_32">
    <path clip-path="url(#pe21e777151)" d="M 73.832727 172.6272 
L 84.305455 164.8458 
L 94.778182 163.4796 
L 105.250909 164.8458 
L 115.723636 164.9052 
L 126.196364 167.103 
L 136.669091 177.5574 
L 147.141818 198.288 
L 157.614545 223.5924 
L 168.087273 243.432 
L 178.56 251.5698 
L 189.032727 244.8576 
L 199.505455 224.4834 
L 209.978182 201.1392 
L 220.450909 187.8336 
L 230.923636 186.3486 
L 241.396364 185.9922 
L 251.869091 174.9438 
L 262.341818 154.4508 
L 272.814545 135.5022 
L 283.287273 127.4832 
L 293.76 127.9584 
L 304.232727 127.1862 
L 314.705455 119.286 
L 325.178182 108.7722 
L 335.650909 105.624 
L 346.123636 111.9798 
L 356.596364 119.286 
L 367.069091 121.0086 
L 377.541818 118.7514 
L 388.014545 116.316 
L 398.487273 116.2566 
" style="fill:none;stroke:#5bff00;stroke-linecap:square;stroke-width:1.5;"/>
   </g>
   <g id="line2d_33">
    <path clip-path="url(#pe21e777151)" d="M 73.832727 163.3608 
L 84.305455 161.3412 
L 94.778182 160.8066 
L 105.250909 161.6382 
L 115.723636 164.4894 
L 126.196364 173.043 
L 136.669091 188.3088 
L 147.141818 206.7228 
L 157.614545 224.4834 
L 168.087273 240.8778 
L 178.56 258.5196 
L 189.032727 275.9238 
L 199.505455 286.5564 
L 209.978182 283.527 
L 220.450909 264.222 
L 230.923636 235.71 
L 241.396364 212.247 
L 251.869091 201.1986 
L 262.341818 195.1398 
L 272.814545 180.9432 
L 283.287273 156.4704 
L 293.76 131.166 
L 304.232727 114.5934 
L 314.705455 107.5842 
L 325.178182 104.5548 
L 335.650909 100.872 
L 346.123636 94.4568 
L 356.596364 86.8536 
L 367.069091 82.161 
L 377.541818 81.9234 
L 388.014545 83.1114 
L 398.487273 81.6264 
" style="fill:none;stroke:#3dff00;stroke-linecap:square;stroke-width:1.5;"/>
   </g>
   <g id="line2d_34">
    <path clip-path="url(#pe21e777151)" d="M 73.832727 176.1318 
L 84.305455 170.8452 
L 94.778182 171.261 
L 105.250909 177.6762 
L 115.723636 187.299 
L 126.196364 195.1992 
L 136.669091 200.1294 
L 147.141818 207.5544 
L 157.614545 222.642 
L 168.087273 242.244 
L 178.56 260.3016 
L 189.032727 273.132 
L 199.505455 275.9238 
L 209.978182 265.7664 
L 220.450909 244.3824 
L 230.923636 214.8606 
L 241.396364 182.0124 
L 251.869091 155.4012 
L 262.341818 140.0166 
L 272.814545 132.1758 
L 283.287273 126.4734 
L 293.76 121.068 
L 304.232727 115.425 
L 314.705455 109.3068 
L 325.178182 104.8518 
L 335.650909 103.3074 
L 346.123636 102.4758 
L 356.596364 99.981 
L 367.069091 95.823 
L 377.541818 92.3184 
L 388.014545 91.5462 
L 398.487273 92.259 
" style="fill:none;stroke:#20ff00;stroke-linecap:square;stroke-width:1.5;"/>
   </g>
   <g id="line2d_35">
    <path clip-path="url(#pe21e777151)" d="M 73.832727 178.5672 
L 84.305455 185.0418 
L 94.778182 187.0614 
L 105.250909 181.0026 
L 115.723636 171.0234 
L 126.196364 169.8354 
L 136.669091 183.6756 
L 147.141818 204.4062 
L 157.614545 222.5232 
L 168.087273 238.086 
L 178.56 253.5894 
L 189.032727 264.6972 
L 199.505455 265.707 
L 209.978182 257.8662 
L 220.450909 248.8374 
L 230.923636 241.947 
L 241.396364 232.443 
L 251.869091 215.6328 
L 262.341818 191.0412 
L 272.814545 162.8856 
L 283.287273 138.2346 
L 293.76 121.6026 
L 304.232727 111.6234 
L 314.705455 103.7232 
L 325.178182 97.902 
L 335.650909 98.1396 
L 346.123636 104.733 
L 356.596364 111.6234 
L 367.069091 111.564 
L 377.541818 104.436 
L 388.014545 96.9516 
L 398.487273 92.6748 
" style="fill:none;stroke:#04ff08;stroke-linecap:square;stroke-width:1.5;"/>
   </g>
   <g id="line2d_36">
    <path clip-path="url(#pe21e777151)" d="M 73.832727 190.5066 
L 84.305455 185.8734 
L 94.778182 184.9824 
L 105.250909 188.3682 
L 115.723636 193.239 
L 126.196364 199.476 
L 136.669091 208.4454 
L 147.141818 218.5434 
L 157.614545 228.2256 
L 168.087273 235.116 
L 178.56 235.413 
L 189.032727 231.3738 
L 199.505455 228.2256 
L 209.978182 225.9684 
L 220.450909 221.6916 
L 230.923636 213.732 
L 241.396364 201.7926 
L 251.869091 186.2892 
L 262.341818 172.6866 
L 272.814545 165.2616 
L 283.287273 156.5892 
L 293.76 141.6798 
L 304.232727 128.0772 
L 314.705455 122.1372 
L 325.178182 121.365 
L 335.650909 120.1176 
L 346.123636 116.0784 
L 356.596364 112.5144 
L 367.069091 111.8016 
L 377.541818 111.5046 
L 388.014545 109.6632 
L 398.487273 109.2474 
" style="fill:none;stroke:#00ff21;stroke-linecap:square;stroke-width:1.5;"/>
   </g>
   <g id="line2d_37">
    <path clip-path="url(#pe21e777151)" d="M 73.832727 194.724 
L 84.305455 202.9806 
L 94.778182 211.5342 
L 105.250909 214.0884 
L 115.723636 207.1386 
L 126.196364 195.318 
L 136.669091 190.6848 
L 147.141818 202.3866 
L 157.614545 225.909 
L 168.087273 247.0554 
L 178.56 257.985 
L 189.032727 262.6776 
L 199.505455 264.1032 
L 209.978182 257.3316 
L 220.450909 240.1056 
L 230.923636 218.0088 
L 241.396364 198.1098 
L 251.869091 181.7154 
L 262.341818 165.2616 
L 272.814545 149.1048 
L 283.287273 136.9872 
L 293.76 128.6118 
L 304.232727 118.395 
L 314.705455 103.6044 
L 325.178182 91.7244 
L 335.650909 90.6552 
L 346.123636 95.526 
L 356.596364 93.5064 
L 367.069091 82.1016 
L 377.541818 72.1818 
L 388.014545 73.3104 
L 398.487273 82.9332 
" style="fill:none;stroke:#00ff3f;stroke-linecap:square;stroke-width:1.5;"/>
   </g>
   <g id="line2d_38">
    <path clip-path="url(#pe21e777151)" d="M 73.832727 170.6076 
L 84.305455 160.272 
L 94.778182 159.0246 
L 105.250909 164.3112 
L 115.723636 168.885 
L 126.196364 172.3896 
L 136.669091 181.2402 
L 147.141818 199.476 
L 157.614545 224.8398 
L 168.087273 251.0946 
L 178.56 271.944 
L 189.032727 283.23 
L 199.505455 286.4376 
L 209.978182 283.1112 
L 220.450909 270.5184 
L 230.923636 249.0156 
L 241.396364 223.9488 
L 251.869091 202.0896 
L 262.341818 186.9426 
L 272.814545 174.9438 
L 283.287273 158.9652 
L 293.76 137.1654 
L 304.232727 118.8108 
L 314.705455 111.6828 
L 325.178182 113.5242 
L 335.650909 118.989 
L 346.123636 121.068 
L 356.596364 116.0784 
L 367.069091 108.5346 
L 377.541818 102.8916 
L 388.014545 98.199 
L 398.487273 91.7838 
" style="fill:none;stroke:#00ff5c;stroke-linecap:square;stroke-width:1.5;"/>
   </g>
   <g id="line2d_39">
    <path clip-path="url(#pe21e777151)" d="M 73.832727 160.3314 
L 84.305455 160.6878 
L 94.778182 165.618 
L 105.250909 174.1716 
L 115.723636 177.5574 
L 126.196364 174.4092 
L 136.669091 176.4288 
L 147.141818 191.9322 
L 157.614545 219.375 
L 168.087273 253.0548 
L 178.56 285.4872 
L 189.032727 296.1792 
L 199.505455 296.1792 
L 209.978182 293.9814 
L 220.450909 266.9544 
L 230.923636 240.8778 
L 241.396364 218.8404 
L 251.869091 199.8918 
L 262.341818 184.7448 
L 272.814545 172.2708 
L 283.287273 158.193 
L 293.76 140.9076 
L 304.232727 126.2952 
L 314.705455 118.8702 
L 325.178182 114.5934 
L 335.650909 107.8812 
L 346.123636 98.199 
L 356.596364 88.695 
L 367.069091 82.755 
L 377.541818 81.864 
L 388.014545 84.1212 
L 398.487273 83.7054 
" style="fill:none;stroke:#00ff7a;stroke-linecap:square;stroke-width:1.5;"/>
   </g>
   <g id="line2d_40">
    <path clip-path="url(#pe21e777151)" d="M 73.832727 164.5488 
L 84.305455 167.7564 
L 94.778182 163.0638 
L 105.250909 152.3124 
L 115.723636 150.1146 
L 126.196364 164.9646 
L 136.669091 189.3186 
L 147.141818 211.1184 
L 157.614545 224.2458 
L 168.087273 230.1858 
L 178.56 233.037 
L 189.032727 233.9874 
L 199.505455 231.9678 
L 209.978182 228.0474 
L 220.450909 221.9886 
L 230.923636 211.7718 
L 241.396364 199.2978 
L 251.869091 189.5562 
L 262.341818 181.5966 
L 272.814545 171.261 
L 283.287273 157.8366 
L 293.76 144.8874 
L 304.232727 136.7496 
L 314.705455 132.8292 
L 325.178182 127.7208 
L 335.650909 119.5236 
L 346.123636 111.6828 
L 356.596364 107.0496 
L 367.069091 103.7232 
L 377.541818 98.4366 
L 388.014545 93.2688 
L 398.487273 93.5064 
" style="fill:none;stroke:#00ff97;stroke-linecap:square;stroke-width:1.5;"/>
   </g>
   <g id="line2d_41">
    <path clip-path="url(#pe21e777151)" d="M 73.832727 179.577 
L 84.305455 170.4888 
L 94.778182 160.6284 
L 105.250909 156.7674 
L 115.723636 162.1728 
L 126.196364 174.6468 
L 136.669091 189.3186 
L 147.141818 204.4062 
L 157.614545 220.6224 
L 168.087273 240.759 
L 178.56 265.5882 
L 189.032727 287.4474 
L 199.505455 294.516 
L 209.978182 284.3586 
L 220.450909 264.4596 
L 230.923636 241.353 
L 241.396364 216.9396 
L 251.869091 190.4472 
L 262.341818 163.7172 
L 272.814545 144.2934 
L 283.287273 136.9278 
L 293.76 133.9578 
L 304.232727 126.8892 
L 314.705455 115.6626 
L 325.178182 105.6834 
L 335.650909 102.8916 
L 346.123636 105.5052 
L 356.596364 104.733 
L 367.069091 94.1004 
L 377.541818 76.221 
L 388.014545 60.7176 
L 398.487273 55.9656 
" style="fill:none;stroke:#00ffb5;stroke-linecap:square;stroke-width:1.5;"/>
   </g>
   <g id="line2d_42">
    <path clip-path="url(#pe21e777151)" d="M 73.832727 177.0822 
L 84.305455 188.6058 
L 94.778182 195.6744 
L 105.250909 193.9518 
L 115.723636 189.1998 
L 126.196364 190.269 
L 136.669091 200.664 
L 147.141818 217.1178 
L 157.614545 232.74 
L 168.087273 241.5312 
L 178.56 240.5214 
L 189.032727 229.7106 
L 199.505455 214.8606 
L 209.978182 203.5746 
L 220.450909 197.5158 
L 230.923636 190.5066 
L 241.396364 176.7258 
L 251.869091 158.8464 
L 262.341818 143.8182 
L 272.814545 135.1458 
L 283.287273 131.3442 
L 293.76 128.7306 
L 304.232727 123.9192 
L 314.705455 116.7318 
L 325.178182 110.4948 
L 335.650909 106.812 
L 346.123636 104.4954 
L 356.596364 104.139 
L 367.069091 108.1188 
L 377.541818 113.643 
L 388.014545 115.3062 
L 398.487273 113.346 
" style="fill:none;stroke:#00ffd3;stroke-linecap:square;stroke-width:1.5;"/>
   </g>
   <g id="line2d_43">
    <path clip-path="url(#pe21e777151)" d="M 73.832727 172.0926 
L 84.305455 168.4098 
L 94.778182 163.0044 
L 105.250909 163.7766 
L 115.723636 173.3994 
L 126.196364 185.5764 
L 136.669091 193.9518 
L 147.141818 205.5942 
L 157.614545 230.0076 
L 168.087273 260.4798 
L 178.56 281.8638 
L 189.032727 287.685 
L 199.505455 280.2006 
L 209.978182 264.1032 
L 220.450909 243.8478 
L 230.923636 223.6518 
L 241.396364 207.6732 
L 251.869091 197.397 
L 262.341818 188.3088 
L 272.814545 174.8844 
L 283.287273 155.5794 
L 293.76 132.5322 
L 304.232727 113.4054 
L 314.705455 106.3962 
L 325.178182 107.703 
L 335.650909 104.9112 
L 346.123636 94.8132 
L 356.596364 82.161 
L 367.069091 70.8156 
L 377.541818 64.7568 
L 388.014545 68.1426 
L 398.487273 79.9632 
" style="fill:none;stroke:#00fff6;stroke-linecap:square;stroke-width:1.5;"/>
   </g>
   <g id="line2d_44">
    <path clip-path="url(#pe21e777151)" d="M 73.832727 182.0718 
L 84.305455 179.3988 
L 94.778182 177.2604 
L 105.250909 174.4686 
L 115.723636 170.667 
L 126.196364 173.1618 
L 136.669091 186.7644 
L 147.141818 212.7816 
L 157.614545 249.1344 
L 168.087273 286.497 
L 178.56 296.1792 
L 189.032727 296.1792 
L 199.505455 293.8032 
L 209.978182 268.9146 
L 220.450909 246.105 
L 230.923636 225.909 
L 241.396364 206.4852 
L 251.869091 185.4576 
L 262.341818 162.1728 
L 272.814545 140.076 
L 283.287273 122.256 
L 293.76 108.2376 
L 304.232727 98.1396 
L 314.705455 92.0808 
L 325.178182 87.4476 
L 335.650909 83.4678 
L 346.123636 83.2896 
L 356.596364 88.5762 
L 367.069091 96.0012 
L 377.541818 101.763 
L 388.014545 105.1488 
L 398.487273 104.6736 
" style="fill:none;stroke:#00eaff;stroke-linecap:square;stroke-width:1.5;"/>
   </g>
   <g id="line2d_45">
    <path clip-path="url(#pe21e777151)" d="M 73.832727 160.272 
L 84.305455 162.7668 
L 94.778182 165.0834 
L 105.250909 167.5188 
L 115.723636 171.3798 
L 126.196364 177.9138 
L 136.669091 188.6652 
L 147.141818 203.8716 
L 157.614545 221.751 
L 168.087273 238.4424 
L 178.56 248.3028 
L 189.032727 244.9764 
L 199.505455 231.0174 
L 209.978182 217.593 
L 220.450909 210.168 
L 230.923636 203.7528 
L 241.396364 192.7638 
L 251.869091 178.1514 
L 262.341818 165.1428 
L 272.814545 154.3914 
L 283.287273 145.0656 
L 293.76 139.8978 
L 304.232727 137.6406 
L 314.705455 131.8194 
L 325.178182 120.9492 
L 335.650909 112.0392 
L 346.123636 111.9204 
L 356.596364 118.395 
L 367.069091 122.4936 
L 377.541818 121.7214 
L 388.014545 121.1868 
L 398.487273 122.9094 
" style="fill:none;stroke:#00cdff;stroke-linecap:square;stroke-width:1.5;"/>
   </g>
   <g id="line2d_46">
    <path clip-path="url(#pe21e777151)" d="M 73.832727 181.2996 
L 84.305455 179.2206 
L 94.778182 175.419 
L 105.250909 168.7662 
L 115.723636 165.2616 
L 126.196364 172.8054 
L 136.669091 191.0412 
L 147.141818 211.95 
L 157.614545 229.4136 
L 168.087273 241.5906 
L 178.56 245.214 
L 189.032727 238.3236 
L 199.505455 225.2556 
L 209.978182 211.2966 
L 220.450909 199.2384 
L 230.923636 189.3186 
L 241.396364 181.359 
L 251.869091 175.2408 
L 262.341818 167.4 
L 272.814545 153.9756 
L 283.287273 140.076 
L 293.76 135.1458 
L 304.232727 140.1948 
L 314.705455 144.4716 
L 325.178182 137.997 
L 335.650909 126.6516 
L 346.123636 122.553 
L 356.596364 128.7306 
L 367.069091 137.3436 
L 377.541818 140.1354 
L 388.014545 138.7692 
L 398.487273 140.4918 
" style="fill:none;stroke:#00afff;stroke-linecap:square;stroke-width:1.5;"/>
   </g>
   <g id="line2d_47">
    <path clip-path="url(#pe21e777151)" d="M 73.832727 183.3192 
L 84.305455 184.1508 
L 94.778182 177.498 
L 105.250909 169.479 
L 115.723636 166.7466 
L 126.196364 171.558 
L 136.669091 184.2102 
L 147.141818 205.1784 
L 157.614545 233.4528 
L 168.087273 263.5686 
L 178.56 288.0414 
L 189.032727 296.1792 
L 199.505455 296.1792 
L 209.978182 296.1792 
L 220.450909 272.5974 
L 230.923636 239.6304 
L 241.396364 210.4056 
L 251.869091 194.0706 
L 262.341818 186.5862 
L 272.814545 177.2604 
L 283.287273 159.4404 
L 293.76 133.7796 
L 304.232727 107.406 
L 314.705455 89.586 
L 325.178182 83.7054 
L 335.650909 84.24 
L 346.123636 85.9032 
L 356.596364 87.5664 
L 367.069091 87.8634 
L 377.541818 83.5866 
L 388.014545 77.1714 
L 398.487273 76.221 
" style="fill:none;stroke:#0092ff;stroke-linecap:square;stroke-width:1.5;"/>
   </g>
   <g id="line2d_48">
    <path clip-path="url(#pe21e777151)" d="M 73.832727 170.3106 
L 84.305455 179.3394 
L 94.778182 189.378 
L 105.250909 196.9218 
L 115.723636 200.4264 
L 126.196364 201.6738 
L 136.669091 206.1882 
L 147.141818 218.7216 
L 157.614545 237.2544 
L 168.087273 252.7578 
L 178.56 256.9158 
L 189.032727 251.2134 
L 199.505455 243.0162 
L 209.978182 235.2942 
L 220.450909 225.5526 
L 230.923636 211.8312 
L 241.396364 197.5158 
L 251.869091 185.5764 
L 262.341818 175.419 
L 272.814545 163.4796 
L 283.287273 148.4514 
L 293.76 134.3736 
L 304.232727 125.9982 
L 314.705455 122.9688 
L 325.178182 119.4048 
L 335.650909 111.3264 
L 346.123636 103.545 
L 356.596364 102.4164 
L 367.069091 105.9804 
L 377.541818 108.4752 
L 388.014545 108.297 
L 398.487273 106.9308 
" style="fill:none;stroke:#0074ff;stroke-linecap:square;stroke-width:1.5;"/>
   </g>
   <g id="line2d_49">
    <path clip-path="url(#pe21e777151)" d="M 73.832727 169.776 
L 84.305455 175.1814 
L 94.778182 171.6174 
L 105.250909 161.4006 
L 115.723636 157.1832 
L 126.196364 169.0632 
L 136.669091 192.1104 
L 147.141818 213.3756 
L 157.614545 228.2256 
L 168.087273 240.2838 
L 178.56 249.966 
L 189.032727 250.9758 
L 199.505455 239.9274 
L 209.978182 221.751 
L 220.450909 204.7626 
L 230.923636 193.1202 
L 241.396364 185.3982 
L 251.869091 177.4386 
L 262.341818 167.5782 
L 272.814545 160.569 
L 283.287273 160.8066 
L 293.76 163.3014 
L 304.232727 159.678 
L 314.705455 151.2432 
L 325.178182 144.4716 
L 335.650909 142.6896 
L 346.123636 144.7092 
L 356.596364 146.3724 
L 367.069091 144.7686 
L 377.541818 139.8978 
L 388.014545 135.2052 
L 398.487273 134.136 
" style="fill:none;stroke:#0057ff;stroke-linecap:square;stroke-width:1.5;"/>
   </g>
   <g id="line2d_50">
    <path clip-path="url(#pe21e777151)" d="M 73.832727 168.7068 
L 84.305455 174.1716 
L 94.778182 187.7148 
L 105.250909 201.6144 
L 115.723636 207.495 
L 126.196364 205.0002 
L 136.669091 203.04 
L 147.141818 211.7124 
L 157.614545 232.9182 
L 168.087273 260.658 
L 178.56 287.982 
L 189.032727 296.1792 
L 199.505455 296.1792 
L 209.978182 283.4082 
L 220.450909 247.3524 
L 230.923636 217.3554 
L 241.396364 198.7038 
L 251.869091 182.1906 
L 262.341818 159.6186 
L 272.814545 132.5916 
L 283.287273 108.297 
L 293.76 93.2688 
L 304.232727 90.3582 
L 314.705455 93.3876 
L 325.178182 92.556 
L 335.650909 86.6754 
L 346.123636 82.6362 
L 356.596364 85.428 
L 367.069091 93.0312 
L 377.541818 98.0208 
L 388.014545 97.4862 
L 398.487273 97.1892 
" style="fill:none;stroke:#0039ff;stroke-linecap:square;stroke-width:1.5;"/>
   </g>
   <g id="line2d_51">
    <path clip-path="url(#pe21e777151)" d="M 73.832727 174.4686 
L 84.305455 169.7166 
L 94.778182 169.9542 
L 105.250909 174.231 
L 115.723636 176.607 
L 126.196364 175.122 
L 136.669091 180.6462 
L 147.141818 202.6836 
L 157.614545 234.1062 
L 168.087273 259.5888 
L 178.56 269.6868 
L 189.032727 261.4896 
L 199.505455 239.5116 
L 209.978182 214.1478 
L 220.450909 193.2984 
L 230.923636 178.983 
L 241.396364 167.8158 
L 251.869091 157.005 
L 262.341818 146.61 
L 272.814545 135.2052 
L 283.287273 123.147 
L 293.76 114.1182 
L 304.232727 110.673 
L 314.705455 115.0092 
L 325.178182 124.7508 
L 335.650909 131.2848 
L 346.123636 130.4532 
L 356.596364 129.1464 
L 367.069091 133.6014 
L 377.541818 137.8782 
L 388.014545 134.1954 
L 398.487273 122.7312 
" style="fill:none;stroke:#001cff;stroke-linecap:square;stroke-width:1.5;"/>
   </g>
   <g id="line2d_52">
    <path clip-path="url(#pe21e777151)" d="M 73.832727 168.7068 
L 84.305455 178.2702 
L 94.778182 181.062 
L 105.250909 178.0326 
L 115.723636 175.8942 
L 126.196364 177.3792 
L 136.669091 182.9034 
L 147.141818 196.3872 
L 157.614545 219.7908 
L 168.087273 247.3524 
L 178.56 269.7462 
L 189.032727 281.6856 
L 199.505455 284.3586 
L 209.978182 277.8246 
L 220.450909 258.282 
L 230.923636 228.7008 
L 241.396364 200.961 
L 251.869091 182.6064 
L 262.341818 172.9836 
L 272.814545 165.3804 
L 283.287273 152.3124 
L 293.76 132.4134 
L 304.232727 111.8016 
L 314.705455 99.3276 
L 325.178182 96.5952 
L 335.650909 96.0012 
L 346.123636 92.259 
L 356.596364 89.5266 
L 367.069091 91.9026 
L 377.541818 94.8726 
L 388.014545 92.1996 
L 398.487273 82.8144 
" style="fill:none;stroke:#0800ff;stroke-linecap:square;stroke-width:1.5;"/>
   </g>
   <g id="line2d_53">
    <path clip-path="url(#pe21e777151)" d="M 73.832727 167.1624 
L 84.305455 170.964 
L 94.778182 184.5072 
L 105.250909 193.3578 
L 115.723636 192.8232 
L 126.196364 188.2494 
L 136.669091 188.5464 
L 147.141818 200.07 
L 157.614545 220.8006 
L 168.087273 244.7982 
L 178.56 267.0138 
L 189.032727 280.2006 
L 199.505455 278.0028 
L 209.978182 263.3904 
L 220.450909 245.808 
L 230.923636 230.661 
L 241.396364 212.7816 
L 251.869091 187.4772 
L 262.341818 160.569 
L 272.814545 140.4918 
L 283.287273 128.3742 
L 293.76 121.7214 
L 304.232727 119.5236 
L 314.705455 116.9694 
L 325.178182 107.8218 
L 335.650909 93.2688 
L 346.123636 80.5572 
L 356.596364 74.9142 
L 367.069091 74.6172 
L 377.541818 74.9736 
L 388.014545 75.1518 
L 398.487273 77.2308 
" style="fill:none;stroke:#2500ff;stroke-linecap:square;stroke-width:1.5;"/>
   </g>
   <g id="line2d_54">
    <path clip-path="url(#pe21e777151)" d="M 73.832727 182.9034 
L 84.305455 183.6756 
L 94.778182 172.746 
L 105.250909 162.1728 
L 115.723636 162.648 
L 126.196364 175.5378 
L 136.669091 195.1398 
L 147.141818 213.9696 
L 157.614545 226.7406 
L 168.087273 230.958 
L 178.56 228.7008 
L 189.032727 225.315 
L 199.505455 224.5428 
L 209.978182 224.3646 
L 220.450909 219.1968 
L 230.923636 207.2574 
L 241.396364 191.5758 
L 251.869091 176.31 
L 262.341818 163.3014 
L 272.814545 151.8966 
L 283.287273 143.8182 
L 293.76 140.1354 
L 304.232727 137.8188 
L 314.705455 133.8984 
L 325.178182 130.0968 
L 335.650909 129.2652 
L 346.123636 132.354 
L 356.596364 134.3736 
L 367.069091 129.7998 
L 377.541818 122.3748 
L 388.014545 120.6522 
L 398.487273 123.9786 
" style="fill:none;stroke:#4300ff;stroke-linecap:square;stroke-width:1.5;"/>
   </g>
   <g id="line2d_55">
    <path clip-path="url(#pe21e777151)" d="M 73.832727 174.7656 
L 84.305455 168.4692 
L 94.778182 163.539 
L 105.250909 164.727 
L 115.723636 170.1324 
L 126.196364 173.5776 
L 136.669091 177.8544 
L 147.141818 194.5458 
L 157.614545 225.7308 
L 168.087273 257.5098 
L 178.56 277.0524 
L 189.032727 282.8736 
L 199.505455 278.1216 
L 209.978182 266.3604 
L 220.450909 250.3224 
L 230.923636 233.334 
L 241.396364 216.999 
L 251.869091 200.6046 
L 262.341818 184.1508 
L 272.814545 166.2714 
L 283.287273 146.4912 
L 293.76 128.6712 
L 304.232727 115.6626 
L 314.705455 105.4458 
L 325.178182 95.7042 
L 335.650909 87.3288 
L 346.123636 81.9828 
L 356.596364 80.082 
L 367.069091 82.2798 
L 377.541818 89.4078 
L 388.014545 96.9516 
L 398.487273 100.6344 
" style="fill:none;stroke:#6000ff;stroke-linecap:square;stroke-width:1.5;"/>
   </g>
   <g id="line2d_56">
    <path clip-path="url(#pe21e777151)" d="M 73.832727 185.814 
L 84.305455 185.2794 
L 94.778182 177.795 
L 105.250909 165.0834 
L 115.723636 159.2028 
L 126.196364 168.885 
L 136.669091 189.7938 
L 147.141818 213.435 
L 157.614545 235.2942 
L 168.087273 251.5104 
L 178.56 259.47 
L 189.032727 259.5294 
L 199.505455 251.748 
L 209.978182 234.225 
L 220.450909 208.4454 
L 230.923636 184.6854 
L 241.396364 172.5084 
L 251.869091 170.9046 
L 262.341818 171.4986 
L 272.814545 168.1128 
L 283.287273 163.9548 
L 293.76 163.7172 
L 304.232727 162.8856 
L 314.705455 156.1734 
L 325.178182 145.4814 
L 335.650909 134.3142 
L 346.123636 125.4636 
L 356.596364 122.553 
L 367.069091 126.4734 
L 377.541818 133.3044 
L 388.014545 136.512 
L 398.487273 135.324 
" style="fill:none;stroke:#7e00ff;stroke-linecap:square;stroke-width:1.5;"/>
   </g>
   <g id="line2d_57">
    <path clip-path="url(#pe21e777151)" d="M 73.832727 177.3792 
L 84.305455 175.5972 
L 94.778182 169.2414 
L 105.250909 164.5488 
L 115.723636 166.4496 
L 126.196364 174.825 
L 136.669091 189.1404 
L 147.141818 209.9304 
L 157.614545 236.0664 
L 168.087273 262.737 
L 178.56 281.9232 
L 189.032727 287.3286 
L 199.505455 277.3494 
L 209.978182 256.9752 
L 220.450909 236.6604 
L 230.923636 222.345 
L 241.396364 209.9898 
L 251.869091 193.2984 
L 262.341818 174.4686 
L 272.814545 159.6186 
L 283.287273 148.095 
L 293.76 136.3932 
L 304.232727 125.4636 
L 314.705455 117.3258 
L 325.178182 109.9008 
L 335.650909 102.06 
L 346.123636 98.6148 
L 356.596364 101.763 
L 367.069091 105.921 
L 377.541818 103.0104 
L 388.014545 93.8034 
L 398.487273 86.0814 
" style="fill:none;stroke:#9b00ff;stroke-linecap:square;stroke-width:1.5;"/>
   </g>
   <g id="line2d_58">
    <path clip-path="url(#pe21e777151)" d="M 73.832727 177.6168 
L 84.305455 172.449 
L 94.778182 164.7864 
L 105.250909 157.5396 
L 115.723636 159.2622 
L 126.196364 175.0626 
L 136.669091 198.1692 
L 147.141818 218.9592 
L 157.614545 233.1558 
L 168.087273 242.3628 
L 178.56 251.5698 
L 189.032727 261.1926 
L 199.505455 261.252 
L 209.978182 244.9764 
L 220.450909 220.9788 
L 230.923636 204.1092 
L 241.396364 199.4166 
L 251.869091 197.9316 
L 262.341818 188.487 
L 272.814545 170.2512 
L 283.287273 150.1146 
L 293.76 134.136 
L 304.232727 125.5824 
L 314.705455 123.741 
L 325.178182 122.9688 
L 335.650909 117.6228 
L 346.123636 107.2872 
L 356.596364 97.6644 
L 367.069091 93.8628 
L 377.541818 96.6546 
L 388.014545 101.466 
L 398.487273 102.8916 
" style="fill:none;stroke:#b900ff;stroke-linecap:square;stroke-width:1.5;"/>
   </g>
   <g id="line2d_59">
    <path clip-path="url(#pe21e777151)" d="M 73.832727 183.6756 
L 84.305455 184.5072 
L 94.778182 183.2598 
L 105.250909 174.528 
L 115.723636 162.4104 
L 126.196364 162.1728 
L 136.669091 181.656 
L 147.141818 210.762 
L 157.614545 234.0468 
L 168.087273 248.6592 
L 178.56 263.8656 
L 189.032727 282.2796 
L 199.505455 292.1994 
L 209.978182 283.1112 
L 220.450909 259.5888 
L 230.923636 232.3836 
L 241.396364 207.5544 
L 251.869091 187.1208 
L 262.341818 171.855 
L 272.814545 159.2028 
L 283.287273 143.8182 
L 293.76 123.3846 
L 304.232727 104.3172 
L 314.705455 94.1004 
L 325.178182 91.4868 
L 335.650909 91.7244 
L 346.123636 93.2094 
L 356.596364 94.1004 
L 367.069091 93.9816 
L 377.541818 94.3974 
L 388.014545 95.1696 
L 398.487273 93.8034 
" style="fill:none;stroke:#d600ff;stroke-linecap:square;stroke-width:1.5;"/>
   </g>
   <g id="line2d_60">
    <path clip-path="url(#pe21e777151)" d="M 73.832727 180.468 
L 84.305455 180.8244 
L 94.778182 179.8146 
L 105.250909 177.4386 
L 115.723636 177.6168 
L 126.196364 183.4974 
L 136.669091 195.4368 
L 147.141818 212.3064 
L 157.614545 233.0964 
L 168.087273 256.203 
L 178.56 275.0328 
L 189.032727 281.6856 
L 199.505455 274.4982 
L 209.978182 257.3316 
L 220.450909 235.3536 
L 230.923636 215.217 
L 241.396364 201.7926 
L 251.869091 191.9916 
L 262.341818 177.6168 
L 272.814545 155.6388 
L 283.287273 131.5224 
L 293.76 113.643 
L 304.232727 105.1488 
L 314.705455 102.4164 
L 325.178182 98.793 
L 335.650909 92.556 
L 346.123636 87.5664 
L 356.596364 87.9822 
L 367.069091 92.556 
L 377.541818 96.8328 
L 388.014545 97.4862 
L 398.487273 94.932 
" style="fill:none;stroke:#f800fd;stroke-linecap:square;stroke-width:1.5;"/>
   </g>
   <g id="line2d_61">
    <path clip-path="url(#pe21e777151)" d="M 73.832727 182.9628 
L 84.305455 183.735 
L 94.778182 180.9432 
L 105.250909 173.34 
L 115.723636 165.8556 
L 126.196364 169.8354 
L 136.669091 189.378 
L 147.141818 214.3854 
L 157.614545 235.71 
L 168.087273 255.7278 
L 178.56 276.2208 
L 189.032727 289.4076 
L 199.505455 286.9128 
L 209.978182 271.647 
L 220.450909 254.2428 
L 230.923636 237.6702 
L 241.396364 219.672 
L 251.869091 198.7038 
L 262.341818 177.0822 
L 272.814545 159.678 
L 283.287273 145.9566 
L 293.76 131.2254 
L 304.232727 115.0092 
L 314.705455 102.5352 
L 325.178182 98.7336 
L 335.650909 100.3374 
L 346.123636 98.199 
L 356.596364 90.8334 
L 367.069091 84.0618 
L 377.541818 80.7354 
L 388.014545 79.3098 
L 398.487273 80.6166 
" style="fill:none;stroke:#ff00e7;stroke-linecap:square;stroke-width:1.5;"/>
   </g>
   <g id="line2d_62">
    <path clip-path="url(#pe21e777151)" d="M 73.832727 152.9658 
L 84.305455 154.0944 
L 94.778182 160.272 
L 105.250909 164.5488 
L 115.723636 165.7962 
L 126.196364 171.4392 
L 136.669091 188.5464 
L 147.141818 213.2568 
L 157.614545 235.8882 
L 168.087273 249.5502 
L 178.56 253.1142 
L 189.032727 249.7284 
L 199.505455 241.8876 
L 209.978182 230.3046 
L 220.450909 216.405 
L 230.923636 202.2084 
L 241.396364 187.7148 
L 251.869091 174.1122 
L 262.341818 167.3406 
L 272.814545 170.073 
L 283.287273 174.9438 
L 293.76 169.8948 
L 304.232727 152.1342 
L 314.705455 133.8984 
L 325.178182 126.0576 
L 335.650909 125.2854 
L 346.123636 120.8898 
L 356.596364 110.9106 
L 367.069091 104.7924 
L 377.541818 108.1782 
L 388.014545 115.1874 
L 398.487273 121.0086 
" style="fill:none;stroke:#ff00c9;stroke-linecap:square;stroke-width:1.5;"/>
   </g>
   <g id="line2d_63">
    <path clip-path="url(#pe21e777151)" d="M 73.832727 171.3798 
L 84.305455 173.1024 
L 94.778182 171.7956 
L 105.250909 169.479 
L 115.723636 168.8256 
L 126.196364 173.9934 
L 136.669091 187.299 
L 147.141818 204.9408 
L 157.614545 219.375 
L 168.087273 226.4436 
L 178.56 228.582 
L 189.032727 229.2354 
L 199.505455 227.2752 
L 209.978182 220.0878 
L 220.450909 209.4552 
L 230.923636 198.8226 
L 241.396364 187.9524 
L 251.869091 174.4092 
L 262.341818 158.2524 
L 272.814545 144.7686 
L 283.287273 141.0264 
L 293.76 146.8476 
L 304.232727 152.7282 
L 314.705455 148.9266 
L 325.178182 136.0368 
L 335.650909 123.6222 
L 346.123636 118.2762 
L 356.596364 118.989 
L 367.069091 123.444 
L 377.541818 128.9682 
L 388.014545 132.8886 
L 398.487273 133.6608 
" style="fill:none;stroke:#ff00ac;stroke-linecap:square;stroke-width:1.5;"/>
   </g>
   <g id="line2d_64">
    <path clip-path="url(#pe21e777151)" d="M 73.832727 181.0026 
L 84.305455 169.5384 
L 94.778182 163.0044 
L 105.250909 164.3112 
L 115.723636 168.9444 
L 126.196364 173.8152 
L 136.669091 182.7846 
L 147.141818 202.149 
L 157.614545 232.2054 
L 168.087273 265.0536 
L 178.56 290.1204 
L 189.032727 296.1792 
L 199.505455 293.9814 
L 209.978182 272.835 
L 220.450909 245.9862 
L 230.923636 226.8 
L 241.396364 219.0186 
L 251.869091 213.4944 
L 262.341818 200.8422 
L 272.814545 181.4778 
L 283.287273 159.8562 
L 293.76 137.7594 
L 304.232727 115.9002 
L 314.705455 94.3974 
L 325.178182 75.8052 
L 335.650909 64.935 
L 346.123636 62.9154 
L 356.596364 65.2914 
L 367.069091 67.905 
L 377.541818 70.8156 
L 388.014545 74.6766 
L 398.487273 78.3594 
" style="fill:none;stroke:#ff008e;stroke-linecap:square;stroke-width:1.5;"/>
   </g>
   <g id="line2d_65">
    <path clip-path="url(#pe21e777151)" d="M 73.832727 174.4092 
L 84.305455 167.3406 
L 94.778182 163.7172 
L 105.250909 166.5684 
L 115.723636 172.8054 
L 126.196364 178.686 
L 136.669091 186.1704 
L 147.141818 199.8324 
L 157.614545 221.3946 
L 168.087273 249.075 
L 178.56 279.4878 
L 189.032727 296.1792 
L 199.505455 296.1792 
L 209.978182 296.1792 
L 220.450909 272.5974 
L 230.923636 245.9268 
L 241.396364 223.4142 
L 251.869091 204.9408 
L 262.341818 185.8734 
L 272.814545 167.4594 
L 283.287273 152.847 
L 293.76 141.7986 
L 304.232727 132.4134 
L 314.705455 123.5034 
L 325.178182 113.7618 
L 335.650909 104.436 
L 346.123636 100.9908 
L 356.596364 104.3172 
L 367.069091 106.1586 
L 377.541818 100.9314 
L 388.014545 93.6252 
L 398.487273 92.1402 
" style="fill:none;stroke:#ff0071;stroke-linecap:square;stroke-width:1.5;"/>
   </g>
   <g id="line2d_66">
    <path clip-path="url(#pe21e777151)" d="M 73.832727 184.5072 
L 84.305455 191.5164 
L 94.778182 193.7736 
L 105.250909 184.8042 
L 115.723636 171.6768 
L 126.196364 168.7662 
L 136.669091 183.6162 
L 147.141818 206.9604 
L 157.614545 223.5924 
L 168.087273 232.74 
L 178.56 242.7192 
L 189.032727 252.5202 
L 199.505455 252.8766 
L 209.978182 238.977 
L 220.450909 217.2366 
L 230.923636 198.9414 
L 241.396364 187.3584 
L 251.869091 176.607 
L 262.341818 164.727 
L 272.814545 155.223 
L 283.287273 151.5996 
L 293.76 152.6094 
L 304.232727 150.5304 
L 314.705455 137.9376 
L 325.178182 119.7018 
L 335.650909 109.1286 
L 346.123636 111.6828 
L 356.596364 121.0086 
L 367.069091 129.0276 
L 377.541818 132.057 
L 388.014545 129.8592 
L 398.487273 123.9192 
" style="fill:none;stroke:#ff0053;stroke-linecap:square;stroke-width:1.5;"/>
   </g>
   <g id="line2d_67">
    <path clip-path="url(#pe21e777151)" d="M 73.832727 178.2702 
L 84.305455 176.6664 
L 94.778182 173.637 
L 105.250909 173.9934 
L 115.723636 181.0026 
L 126.196364 189.972 
L 136.669091 196.7436 
L 147.141818 206.2476 
L 157.614545 221.157 
L 168.087273 234.819 
L 178.56 242.0658 
L 189.032727 243.5508 
L 199.505455 242.541 
L 209.978182 241.056 
L 220.450909 237.195 
L 230.923636 226.4436 
L 241.396364 207.6138 
L 251.869091 184.626 
L 262.341818 164.5488 
L 272.814545 151.1244 
L 283.287273 140.8482 
L 293.76 127.899 
L 304.232727 111.9798 
L 314.705455 99.9216 
L 325.178182 97.7832 
L 335.650909 103.6638 
L 346.123636 109.3068 
L 356.596364 106.0992 
L 367.069091 96.4764 
L 377.541818 94.8726 
L 388.014545 105.624 
L 398.487273 117.5634 
" style="fill:none;stroke:#ff0035;stroke-linecap:square;stroke-width:1.5;"/>
   </g>
   <g id="line2d_68">
    <path clip-path="url(#pe21e777151)" d="M 73.832727 172.393267 
L 84.305455 172.363444 
L 94.778182 171.8308 
L 105.250909 170.694378 
L 115.723636 170.312311 
L 126.196364 174.105111 
L 136.669091 185.824267 
L 147.141818 206.0144 
L 157.614545 229.967267 
L 168.087273 250.057667 
L 178.56 260.500333 
L 189.032727 260.037356 
L 199.505455 253.000044 
L 209.978182 241.154756 
L 220.450909 225.757933 
L 230.923636 209.6092 
L 241.396364 194.1806 
L 251.869091 179.822667 
L 262.341818 166.5772 
L 272.814545 154.869044 
L 283.287273 144.980778 
L 293.76 136.504422 
L 304.232727 128.997044 
L 314.705455 122.513889 
L 325.178182 117.350489 
L 335.650909 113.651311 
L 346.123636 111.308311 
L 356.596364 110.026444 
L 367.069091 109.559067 
L 377.541818 109.578133 
L 388.014545 109.842378 
L 398.487273 110.500667 
" style="fill:none;stroke:#000000;stroke-linecap:square;stroke-width:2;"/>
   </g>
   <g id="patch_3">
    <path d="M 57.6 307.584 
L 57.6 41.472 
" style="fill:none;stroke:#000000;stroke-linecap:square;stroke-linejoin:miter;stroke-width:0.8;"/>
   </g>
   <g id="patch_4">
    <path d="M 414.72 307.584 
L 414.72 41.472 
" style="fill:none;stroke:#000000;stroke-linecap:square;stroke-linejoin:miter;stroke-width:0.8;"/>
   </g>
   <g id="patch_5">
    <path d="M 57.6 307.584 
L 414.72 307.584 
" style="fill:none;stroke:#000000;stroke-linecap:square;stroke-linejoin:miter;stroke-width:0.8;"/>
   </g>
   <g id="patch_6">
    <path d="M 57.6 41.472 
L 414.72 41.472 
" style="fill:none;stroke:#000000;stroke-linecap:square;stroke-linejoin:miter;stroke-width:0.8;"/>
   </g>
   <g id="text_19">
    <!-- $V_{rms}=$ 26.126320 -->
    <defs>
     <path d="M 20.609375 0 
L 7.8125 72.90625 
L 17.484375 72.90625 
L 28.078125 10.203125 
L 63.484375 72.90625 
L 74.21875 72.90625 
L 32.078125 0 
z
" id="DejaVuSans-Oblique-56"/>
     <path d="M 44.578125 46.390625 
Q 43.21875 47.125 41.453125 47.515625 
Q 39.703125 47.90625 37.703125 47.90625 
Q 30.515625 47.90625 25.140625 42.453125 
Q 19.78125 37.015625 18.015625 27.875 
L 12.5 0 
L 3.515625 0 
L 14.203125 54.6875 
L 23.1875 54.6875 
L 21.484375 46.1875 
Q 25.046875 50.921875 30 53.453125 
Q 34.96875 56 40.578125 56 
Q 42.046875 56 43.453125 55.828125 
Q 44.875 55.671875 46.296875 55.28125 
z
" id="DejaVuSans-Oblique-72"/>
     <path d="M 89.796875 33.015625 
L 83.40625 0 
L 74.421875 0 
L 80.71875 32.71875 
Q 81.109375 34.8125 81.296875 36.328125 
Q 81.5 37.84375 81.5 38.921875 
Q 81.5 43.3125 79.046875 45.75 
Q 76.609375 48.1875 72.21875 48.1875 
Q 65.671875 48.1875 60.546875 43.28125 
Q 55.421875 38.375 53.90625 30.515625 
L 47.90625 0 
L 38.921875 0 
L 45.3125 32.71875 
Q 45.703125 34.515625 45.890625 36.046875 
Q 46.09375 37.59375 46.09375 38.8125 
Q 46.09375 43.265625 43.65625 45.71875 
Q 41.21875 48.1875 36.921875 48.1875 
Q 30.28125 48.1875 25.140625 43.28125 
Q 20.015625 38.375 18.5 30.515625 
L 12.5 0 
L 3.515625 0 
L 14.203125 54.6875 
L 23.1875 54.6875 
L 21.484375 46.1875 
Q 25.140625 50.984375 30.046875 53.484375 
Q 34.96875 56 40.578125 56 
Q 46.53125 56 50.359375 52.875 
Q 54.203125 49.75 54.984375 44.1875 
Q 59.078125 49.953125 64.46875 52.96875 
Q 69.875 56 75.875 56 
Q 82.90625 56 86.734375 51.953125 
Q 90.578125 47.90625 90.578125 40.484375 
Q 90.578125 38.875 90.375 36.9375 
Q 90.1875 35.015625 89.796875 33.015625 
z
" id="DejaVuSans-Oblique-6d"/>
     <path d="M 50 53.078125 
L 48.296875 44.578125 
Q 44.734375 46.53125 40.765625 47.5 
Q 36.8125 48.484375 32.625 48.484375 
Q 25.53125 48.484375 21.453125 46.0625 
Q 17.390625 43.65625 17.390625 39.5 
Q 17.390625 34.671875 26.859375 32.078125 
Q 27.59375 31.890625 27.9375 31.78125 
L 30.8125 30.90625 
Q 39.796875 28.421875 42.796875 25.6875 
Q 45.796875 22.953125 45.796875 18.21875 
Q 45.796875 9.515625 38.890625 4.046875 
Q 31.984375 -1.421875 20.796875 -1.421875 
Q 16.453125 -1.421875 11.671875 -0.578125 
Q 6.890625 0.25 1.125 2 
L 2.875 11.28125 
Q 7.8125 8.734375 12.59375 7.421875 
Q 17.390625 6.109375 21.78125 6.109375 
Q 28.375 6.109375 32.5 8.9375 
Q 36.625 11.765625 36.625 16.109375 
Q 36.625 20.796875 25.78125 23.6875 
L 24.859375 23.921875 
L 21.78125 24.703125 
Q 14.9375 26.515625 11.765625 29.46875 
Q 8.59375 32.421875 8.59375 37.015625 
Q 8.59375 45.75 15.15625 50.875 
Q 21.734375 56 33.015625 56 
Q 37.453125 56 41.671875 55.265625 
Q 45.90625 54.546875 50 53.078125 
z
" id="DejaVuSans-Oblique-73"/>
     <path d="M 10.59375 45.40625 
L 73.1875 45.40625 
L 73.1875 37.203125 
L 10.59375 37.203125 
z
M 10.59375 25.484375 
L 73.1875 25.484375 
L 73.1875 17.1875 
L 10.59375 17.1875 
z
" id="DejaVuSans-3d"/>
    </defs>
    <g transform="translate(325.178182 144.980778)scale(0.1 -0.1)">
     <use transform="translate(0 0.78125)" xlink:href="#DejaVuSans-Oblique-56"/>
     <use transform="translate(68.408203 -15.625)scale(0.7)" xlink:href="#DejaVuSans-Oblique-72"/>
     <use transform="translate(97.1875 -15.625)scale(0.7)" xlink:href="#DejaVuSans-Oblique-6d"/>
     <use transform="translate(165.375977 -15.625)scale(0.7)" xlink:href="#DejaVuSans-Oblique-73"/>
     <use transform="translate(224.0625 0.78125)" xlink:href="#DejaVuSans-3d"/>
     <use transform="translate(327.333984 0.78125)" xlink:href="#DejaVuSans-20"/>
     <use transform="translate(359.121094 0.78125)" xlink:href="#DejaVuSans-32"/>
     <use transform="translate(422.744141 0.78125)" xlink:href="#DejaVuSans-36"/>
     <use transform="translate(486.367188 0.78125)" xlink:href="#DejaVuSans-2e"/>
     <use transform="translate(518.154297 0.78125)" xlink:href="#DejaVuSans-31"/>
     <use transform="translate(581.777344 0.78125)" xlink:href="#DejaVuSans-32"/>
     <use transform="translate(645.400391 0.78125)" xlink:href="#DejaVuSans-36"/>
     <use transform="translate(709.023438 0.78125)" xlink:href="#DejaVuSans-33"/>
     <use transform="translate(772.646484 0.78125)" xlink:href="#DejaVuSans-32"/>
     <use transform="translate(836.269531 0.78125)" xlink:href="#DejaVuSans-30"/>
    </g>
   </g>
   <g id="text_20">
    <!-- Channel 13 - Unit 1 -->
    <defs>
     <path d="M 64.40625 67.28125 
L 64.40625 56.890625 
Q 59.421875 61.53125 53.78125 63.8125 
Q 48.140625 66.109375 41.796875 66.109375 
Q 29.296875 66.109375 22.65625 58.46875 
Q 16.015625 50.828125 16.015625 36.375 
Q 16.015625 21.96875 22.65625 14.328125 
Q 29.296875 6.6875 41.796875 6.6875 
Q 48.140625 6.6875 53.78125 8.984375 
Q 59.421875 11.28125 64.40625 15.921875 
L 64.40625 5.609375 
Q 59.234375 2.09375 53.4375 0.328125 
Q 47.65625 -1.421875 41.21875 -1.421875 
Q 24.65625 -1.421875 15.125 8.703125 
Q 5.609375 18.84375 5.609375 36.375 
Q 5.609375 53.953125 15.125 64.078125 
Q 24.65625 74.21875 41.21875 74.21875 
Q 47.75 74.21875 53.53125 72.484375 
Q 59.328125 70.75 64.40625 67.28125 
z
" id="DejaVuSans-43"/>
     <path d="M 54.890625 33.015625 
L 54.890625 0 
L 45.90625 0 
L 45.90625 32.71875 
Q 45.90625 40.484375 42.875 44.328125 
Q 39.84375 48.1875 33.796875 48.1875 
Q 26.515625 48.1875 22.3125 43.546875 
Q 18.109375 38.921875 18.109375 30.90625 
L 18.109375 0 
L 9.078125 0 
L 9.078125 75.984375 
L 18.109375 75.984375 
L 18.109375 46.1875 
Q 21.34375 51.125 25.703125 53.5625 
Q 30.078125 56 35.796875 56 
Q 45.21875 56 50.046875 50.171875 
Q 54.890625 44.34375 54.890625 33.015625 
z
" id="DejaVuSans-68"/>
     <path d="M 54.890625 33.015625 
L 54.890625 0 
L 45.90625 0 
L 45.90625 32.71875 
Q 45.90625 40.484375 42.875 44.328125 
Q 39.84375 48.1875 33.796875 48.1875 
Q 26.515625 48.1875 22.3125 43.546875 
Q 18.109375 38.921875 18.109375 30.90625 
L 18.109375 0 
L 9.078125 0 
L 9.078125 54.6875 
L 18.109375 54.6875 
L 18.109375 46.1875 
Q 21.34375 51.125 25.703125 53.5625 
Q 30.078125 56 35.796875 56 
Q 45.21875 56 50.046875 50.171875 
Q 54.890625 44.34375 54.890625 33.015625 
z
" id="DejaVuSans-6e"/>
     <path d="M 4.890625 31.390625 
L 31.203125 31.390625 
L 31.203125 23.390625 
L 4.890625 23.390625 
z
" id="DejaVuSans-2d"/>
     <path d="M 8.6875 72.90625 
L 18.609375 72.90625 
L 18.609375 28.609375 
Q 18.609375 16.890625 22.84375 11.734375 
Q 27.09375 6.59375 36.625 6.59375 
Q 46.09375 6.59375 50.34375 11.734375 
Q 54.59375 16.890625 54.59375 28.609375 
L 54.59375 72.90625 
L 64.5 72.90625 
L 64.5 27.390625 
Q 64.5 13.140625 57.4375 5.859375 
Q 50.390625 -1.421875 36.625 -1.421875 
Q 22.796875 -1.421875 15.734375 5.859375 
Q 8.6875 13.140625 8.6875 27.390625 
z
" id="DejaVuSans-55"/>
    </defs>
    <g transform="translate(178.069687 35.472)scale(0.12 -0.12)">
     <use xlink:href="#DejaVuSans-43"/>
     <use x="69.824219" xlink:href="#DejaVuSans-68"/>
     <use x="133.203125" xlink:href="#DejaVuSans-61"/>
     <use x="194.482422" xlink:href="#DejaVuSans-6e"/>
     <use x="257.861328" xlink:href="#DejaVuSans-6e"/>
     <use x="321.240234" xlink:href="#DejaVuSans-65"/>
     <use x="382.763672" xlink:href="#DejaVuSans-6c"/>
     <use x="410.546875" xlink:href="#DejaVuSans-20"/>
     <use x="442.333984" xlink:href="#DejaVuSans-31"/>
     <use x="505.957031" xlink:href="#DejaVuSans-33"/>
     <use x="569.580078" xlink:href="#DejaVuSans-20"/>
     <use x="601.367188" xlink:href="#DejaVuSans-2d"/>
     <use x="637.451172" xlink:href="#DejaVuSans-20"/>
     <use x="669.238281" xlink:href="#DejaVuSans-55"/>
     <use x="742.431641" xlink:href="#DejaVuSans-6e"/>
     <use x="805.810547" xlink:href="#DejaVuSans-69"/>
     <use x="833.59375" xlink:href="#DejaVuSans-74"/>
     <use x="872.802734" xlink:href="#DejaVuSans-20"/>
     <use x="904.589844" xlink:href="#DejaVuSans-31"/>
    </g>
   </g>
  </g>
 </g>
 <defs>
  <clipPath id="pe21e777151">
   <rect height="266.112" width="357.12" x="57.6" y="41.472"/>
  </clipPath>
 </defs>
</svg>
