<?xml version="1.0" encoding="utf-8" standalone="no"?>
<!DOCTYPE svg PUBLIC "-//W3C//DTD SVG 1.1//EN"
  "http://www.w3.org/Graphics/SVG/1.1/DTD/svg11.dtd">
<!-- Created with matplotlib (http://matplotlib.org/) -->
<svg height="345pt" version="1.1" viewBox="0 0 460 345" width="460pt" xmlns="http://www.w3.org/2000/svg" xmlns:xlink="http://www.w3.org/1999/xlink">
 <defs>
  <style type="text/css">
*{stroke-linecap:butt;stroke-linejoin:round;}
  </style>
 </defs>
 <g id="figure_1">
  <g id="patch_1">
   <path d="M 0 345.6 
L 460.8 345.6 
L 460.8 0 
L 0 0 
z
" style="fill:#ffffff;"/>
  </g>
  <g id="axes_1">
   <g id="patch_2">
    <path d="M 57.6 307.584 
L 414.72 307.584 
L 414.72 41.472 
L 57.6 41.472 
z
" style="fill:#ffffff;"/>
   </g>
   <g id="PolyCollection_1">
    <defs>
     <path d="M 73.832727 -227.081843 
L 73.832727 -154.837261 
L 84.305455 -152.652552 
L 94.778182 -147.904501 
L 105.250909 -143.217604 
L 115.723636 -138.648647 
L 126.196364 -130.760866 
L 136.669091 -115.392057 
L 147.141818 -93.798479 
L 157.614545 -72.896572 
L 168.087273 -57.841455 
L 178.56 -55.79255 
L 189.032727 -62.75998 
L 199.505455 -71.497704 
L 209.978182 -79.476289 
L 220.450909 -87.63358 
L 230.923636 -95.880509 
L 241.396364 -104.202865 
L 251.869091 -112.462521 
L 262.341818 -119.966794 
L 272.814545 -127.664577 
L 283.287273 -135.883763 
L 293.76 -143.526036 
L 304.232727 -150.348129 
L 314.705455 -157.313335 
L 325.178182 -165.403496 
L 335.650909 -173.567819 
L 346.123636 -179.587373 
L 356.596364 -183.026172 
L 367.069091 -185.655605 
L 377.541818 -188.716859 
L 388.014545 -191.731786 
L 398.487273 -193.767111 
L 398.487273 -300.848697 
L 398.487273 -300.848697 
L 388.014545 -298.042166 
L 377.541818 -292.145797 
L 367.069091 -284.654155 
L 356.596364 -277.015812 
L 346.123636 -269.711635 
L 335.650909 -262.772917 
L 325.178182 -255.813784 
L 314.705455 -248.590409 
L 304.232727 -241.785183 
L 293.76 -235.62654 
L 283.287273 -228.558349 
L 272.814545 -219.160575 
L 262.341818 -207.648182 
L 251.869091 -195.499911 
L 241.396364 -183.179087 
L 230.923636 -169.037443 
L 220.450909 -153.859604 
L 209.978182 -140.449727 
L 199.505455 -128.919192 
L 189.032727 -116.7533 
L 178.56 -102.056794 
L 168.087273 -88.926225 
L 157.614545 -88.273988 
L 147.141818 -109.982833 
L 136.669091 -143.844231 
L 126.196364 -175.762142 
L 115.723636 -197.079289 
L 105.250909 -207.937916 
L 94.778182 -213.741707 
L 84.305455 -219.213048 
L 73.832727 -227.081843 
z
" id="ma403d34ba8"/>
    </defs>
    <g clip-path="url(#padc2ed89cc)">
     <use style="fill-opacity:0.5;" x="0" xlink:href="#ma403d34ba8" y="345.6"/>
    </g>
   </g>
   <g id="matplotlib.axis_1">
    <g id="xtick_1">
     <g id="line2d_1">
      <defs>
       <path d="M 0 0 
L 0 3.5 
" id="mbb90a870fc" style="stroke:#000000;stroke-width:0.8;"/>
      </defs>
      <g>
       <use style="stroke:#000000;stroke-width:0.8;" x="73.832727" xlink:href="#mbb90a870fc" y="307.584"/>
      </g>
     </g>
     <g id="text_1">
      <!-- 0.0000 -->
      <defs>
       <path d="M 31.78125 66.40625 
Q 24.171875 66.40625 20.328125 58.90625 
Q 16.5 51.421875 16.5 36.375 
Q 16.5 21.390625 20.328125 13.890625 
Q 24.171875 6.390625 31.78125 6.390625 
Q 39.453125 6.390625 43.28125 13.890625 
Q 47.125 21.390625 47.125 36.375 
Q 47.125 51.421875 43.28125 58.90625 
Q 39.453125 66.40625 31.78125 66.40625 
z
M 31.78125 74.21875 
Q 44.046875 74.21875 50.515625 64.515625 
Q 56.984375 54.828125 56.984375 36.375 
Q 56.984375 17.96875 50.515625 8.265625 
Q 44.046875 -1.421875 31.78125 -1.421875 
Q 19.53125 -1.421875 13.0625 8.265625 
Q 6.59375 17.96875 6.59375 36.375 
Q 6.59375 54.828125 13.0625 64.515625 
Q 19.53125 74.21875 31.78125 74.21875 
z
" id="DejaVuSans-30"/>
       <path d="M 10.6875 12.40625 
L 21 12.40625 
L 21 0 
L 10.6875 0 
z
" id="DejaVuSans-2e"/>
      </defs>
      <g transform="translate(56.337415 322.182437)scale(0.1 -0.1)">
       <use xlink:href="#DejaVuSans-30"/>
       <use x="63.623047" xlink:href="#DejaVuSans-2e"/>
       <use x="95.410156" xlink:href="#DejaVuSans-30"/>
       <use x="159.033203" xlink:href="#DejaVuSans-30"/>
       <use x="222.65625" xlink:href="#DejaVuSans-30"/>
       <use x="286.279297" xlink:href="#DejaVuSans-30"/>
      </g>
     </g>
    </g>
    <g id="xtick_2">
     <g id="line2d_2">
      <g>
       <use style="stroke:#000000;stroke-width:0.8;" x="115.723636" xlink:href="#mbb90a870fc" y="307.584"/>
      </g>
     </g>
     <g id="text_2">
      <!-- 0.0001 -->
      <defs>
       <path d="M 12.40625 8.296875 
L 28.515625 8.296875 
L 28.515625 63.921875 
L 10.984375 60.40625 
L 10.984375 69.390625 
L 28.421875 72.90625 
L 38.28125 72.90625 
L 38.28125 8.296875 
L 54.390625 8.296875 
L 54.390625 0 
L 12.40625 0 
z
" id="DejaVuSans-31"/>
      </defs>
      <g transform="translate(98.228324 322.182437)scale(0.1 -0.1)">
       <use xlink:href="#DejaVuSans-30"/>
       <use x="63.623047" xlink:href="#DejaVuSans-2e"/>
       <use x="95.410156" xlink:href="#DejaVuSans-30"/>
       <use x="159.033203" xlink:href="#DejaVuSans-30"/>
       <use x="222.65625" xlink:href="#DejaVuSans-30"/>
       <use x="286.279297" xlink:href="#DejaVuSans-31"/>
      </g>
     </g>
    </g>
    <g id="xtick_3">
     <g id="line2d_3">
      <g>
       <use style="stroke:#000000;stroke-width:0.8;" x="157.614545" xlink:href="#mbb90a870fc" y="307.584"/>
      </g>
     </g>
     <g id="text_3">
      <!-- 0.0002 -->
      <defs>
       <path d="M 19.1875 8.296875 
L 53.609375 8.296875 
L 53.609375 0 
L 7.328125 0 
L 7.328125 8.296875 
Q 12.9375 14.109375 22.625 23.890625 
Q 32.328125 33.6875 34.8125 36.53125 
Q 39.546875 41.84375 41.421875 45.53125 
Q 43.3125 49.21875 43.3125 52.78125 
Q 43.3125 58.59375 39.234375 62.25 
Q 35.15625 65.921875 28.609375 65.921875 
Q 23.96875 65.921875 18.8125 64.3125 
Q 13.671875 62.703125 7.8125 59.421875 
L 7.8125 69.390625 
Q 13.765625 71.78125 18.9375 73 
Q 24.125 74.21875 28.421875 74.21875 
Q 39.75 74.21875 46.484375 68.546875 
Q 53.21875 62.890625 53.21875 53.421875 
Q 53.21875 48.921875 51.53125 44.890625 
Q 49.859375 40.875 45.40625 35.40625 
Q 44.1875 33.984375 37.640625 27.21875 
Q 31.109375 20.453125 19.1875 8.296875 
z
" id="DejaVuSans-32"/>
      </defs>
      <g transform="translate(140.119233 322.182437)scale(0.1 -0.1)">
       <use xlink:href="#DejaVuSans-30"/>
       <use x="63.623047" xlink:href="#DejaVuSans-2e"/>
       <use x="95.410156" xlink:href="#DejaVuSans-30"/>
       <use x="159.033203" xlink:href="#DejaVuSans-30"/>
       <use x="222.65625" xlink:href="#DejaVuSans-30"/>
       <use x="286.279297" xlink:href="#DejaVuSans-32"/>
      </g>
     </g>
    </g>
    <g id="xtick_4">
     <g id="line2d_4">
      <g>
       <use style="stroke:#000000;stroke-width:0.8;" x="199.505455" xlink:href="#mbb90a870fc" y="307.584"/>
      </g>
     </g>
     <g id="text_4">
      <!-- 0.0003 -->
      <defs>
       <path d="M 40.578125 39.3125 
Q 47.65625 37.796875 51.625 33 
Q 55.609375 28.21875 55.609375 21.1875 
Q 55.609375 10.40625 48.1875 4.484375 
Q 40.765625 -1.421875 27.09375 -1.421875 
Q 22.515625 -1.421875 17.65625 -0.515625 
Q 12.796875 0.390625 7.625 2.203125 
L 7.625 11.71875 
Q 11.71875 9.328125 16.59375 8.109375 
Q 21.484375 6.890625 26.8125 6.890625 
Q 36.078125 6.890625 40.9375 10.546875 
Q 45.796875 14.203125 45.796875 21.1875 
Q 45.796875 27.640625 41.28125 31.265625 
Q 36.765625 34.90625 28.71875 34.90625 
L 20.21875 34.90625 
L 20.21875 43.015625 
L 29.109375 43.015625 
Q 36.375 43.015625 40.234375 45.921875 
Q 44.09375 48.828125 44.09375 54.296875 
Q 44.09375 59.90625 40.109375 62.90625 
Q 36.140625 65.921875 28.71875 65.921875 
Q 24.65625 65.921875 20.015625 65.03125 
Q 15.375 64.15625 9.8125 62.3125 
L 9.8125 71.09375 
Q 15.4375 72.65625 20.34375 73.4375 
Q 25.25 74.21875 29.59375 74.21875 
Q 40.828125 74.21875 47.359375 69.109375 
Q 53.90625 64.015625 53.90625 55.328125 
Q 53.90625 49.265625 50.4375 45.09375 
Q 46.96875 40.921875 40.578125 39.3125 
z
" id="DejaVuSans-33"/>
      </defs>
      <g transform="translate(182.010142 322.182437)scale(0.1 -0.1)">
       <use xlink:href="#DejaVuSans-30"/>
       <use x="63.623047" xlink:href="#DejaVuSans-2e"/>
       <use x="95.410156" xlink:href="#DejaVuSans-30"/>
       <use x="159.033203" xlink:href="#DejaVuSans-30"/>
       <use x="222.65625" xlink:href="#DejaVuSans-30"/>
       <use x="286.279297" xlink:href="#DejaVuSans-33"/>
      </g>
     </g>
    </g>
    <g id="xtick_5">
     <g id="line2d_5">
      <g>
       <use style="stroke:#000000;stroke-width:0.8;" x="241.396364" xlink:href="#mbb90a870fc" y="307.584"/>
      </g>
     </g>
     <g id="text_5">
      <!-- 0.0004 -->
      <defs>
       <path d="M 37.796875 64.3125 
L 12.890625 25.390625 
L 37.796875 25.390625 
z
M 35.203125 72.90625 
L 47.609375 72.90625 
L 47.609375 25.390625 
L 58.015625 25.390625 
L 58.015625 17.1875 
L 47.609375 17.1875 
L 47.609375 0 
L 37.796875 0 
L 37.796875 17.1875 
L 4.890625 17.1875 
L 4.890625 26.703125 
z
" id="DejaVuSans-34"/>
      </defs>
      <g transform="translate(223.901051 322.182437)scale(0.1 -0.1)">
       <use xlink:href="#DejaVuSans-30"/>
       <use x="63.623047" xlink:href="#DejaVuSans-2e"/>
       <use x="95.410156" xlink:href="#DejaVuSans-30"/>
       <use x="159.033203" xlink:href="#DejaVuSans-30"/>
       <use x="222.65625" xlink:href="#DejaVuSans-30"/>
       <use x="286.279297" xlink:href="#DejaVuSans-34"/>
      </g>
     </g>
    </g>
    <g id="xtick_6">
     <g id="line2d_6">
      <g>
       <use style="stroke:#000000;stroke-width:0.8;" x="283.287273" xlink:href="#mbb90a870fc" y="307.584"/>
      </g>
     </g>
     <g id="text_6">
      <!-- 0.0005 -->
      <defs>
       <path d="M 10.796875 72.90625 
L 49.515625 72.90625 
L 49.515625 64.59375 
L 19.828125 64.59375 
L 19.828125 46.734375 
Q 21.96875 47.46875 24.109375 47.828125 
Q 26.265625 48.1875 28.421875 48.1875 
Q 40.625 48.1875 47.75 41.5 
Q 54.890625 34.8125 54.890625 23.390625 
Q 54.890625 11.625 47.5625 5.09375 
Q 40.234375 -1.421875 26.90625 -1.421875 
Q 22.3125 -1.421875 17.546875 -0.640625 
Q 12.796875 0.140625 7.71875 1.703125 
L 7.71875 11.625 
Q 12.109375 9.234375 16.796875 8.0625 
Q 21.484375 6.890625 26.703125 6.890625 
Q 35.15625 6.890625 40.078125 11.328125 
Q 45.015625 15.765625 45.015625 23.390625 
Q 45.015625 31 40.078125 35.4375 
Q 35.15625 39.890625 26.703125 39.890625 
Q 22.75 39.890625 18.8125 39.015625 
Q 14.890625 38.140625 10.796875 36.28125 
z
" id="DejaVuSans-35"/>
      </defs>
      <g transform="translate(265.79196 322.182437)scale(0.1 -0.1)">
       <use xlink:href="#DejaVuSans-30"/>
       <use x="63.623047" xlink:href="#DejaVuSans-2e"/>
       <use x="95.410156" xlink:href="#DejaVuSans-30"/>
       <use x="159.033203" xlink:href="#DejaVuSans-30"/>
       <use x="222.65625" xlink:href="#DejaVuSans-30"/>
       <use x="286.279297" xlink:href="#DejaVuSans-35"/>
      </g>
     </g>
    </g>
    <g id="xtick_7">
     <g id="line2d_7">
      <g>
       <use style="stroke:#000000;stroke-width:0.8;" x="325.178182" xlink:href="#mbb90a870fc" y="307.584"/>
      </g>
     </g>
     <g id="text_7">
      <!-- 0.0006 -->
      <defs>
       <path d="M 33.015625 40.375 
Q 26.375 40.375 22.484375 35.828125 
Q 18.609375 31.296875 18.609375 23.390625 
Q 18.609375 15.53125 22.484375 10.953125 
Q 26.375 6.390625 33.015625 6.390625 
Q 39.65625 6.390625 43.53125 10.953125 
Q 47.40625 15.53125 47.40625 23.390625 
Q 47.40625 31.296875 43.53125 35.828125 
Q 39.65625 40.375 33.015625 40.375 
z
M 52.59375 71.296875 
L 52.59375 62.3125 
Q 48.875 64.0625 45.09375 64.984375 
Q 41.3125 65.921875 37.59375 65.921875 
Q 27.828125 65.921875 22.671875 59.328125 
Q 17.53125 52.734375 16.796875 39.40625 
Q 19.671875 43.65625 24.015625 45.921875 
Q 28.375 48.1875 33.59375 48.1875 
Q 44.578125 48.1875 50.953125 41.515625 
Q 57.328125 34.859375 57.328125 23.390625 
Q 57.328125 12.15625 50.6875 5.359375 
Q 44.046875 -1.421875 33.015625 -1.421875 
Q 20.359375 -1.421875 13.671875 8.265625 
Q 6.984375 17.96875 6.984375 36.375 
Q 6.984375 53.65625 15.1875 63.9375 
Q 23.390625 74.21875 37.203125 74.21875 
Q 40.921875 74.21875 44.703125 73.484375 
Q 48.484375 72.75 52.59375 71.296875 
z
" id="DejaVuSans-36"/>
      </defs>
      <g transform="translate(307.682869 322.182437)scale(0.1 -0.1)">
       <use xlink:href="#DejaVuSans-30"/>
       <use x="63.623047" xlink:href="#DejaVuSans-2e"/>
       <use x="95.410156" xlink:href="#DejaVuSans-30"/>
       <use x="159.033203" xlink:href="#DejaVuSans-30"/>
       <use x="222.65625" xlink:href="#DejaVuSans-30"/>
       <use x="286.279297" xlink:href="#DejaVuSans-36"/>
      </g>
     </g>
    </g>
    <g id="xtick_8">
     <g id="line2d_8">
      <g>
       <use style="stroke:#000000;stroke-width:0.8;" x="367.069091" xlink:href="#mbb90a870fc" y="307.584"/>
      </g>
     </g>
     <g id="text_8">
      <!-- 0.0007 -->
      <defs>
       <path d="M 8.203125 72.90625 
L 55.078125 72.90625 
L 55.078125 68.703125 
L 28.609375 0 
L 18.3125 0 
L 43.21875 64.59375 
L 8.203125 64.59375 
z
" id="DejaVuSans-37"/>
      </defs>
      <g transform="translate(349.573778 322.182437)scale(0.1 -0.1)">
       <use xlink:href="#DejaVuSans-30"/>
       <use x="63.623047" xlink:href="#DejaVuSans-2e"/>
       <use x="95.410156" xlink:href="#DejaVuSans-30"/>
       <use x="159.033203" xlink:href="#DejaVuSans-30"/>
       <use x="222.65625" xlink:href="#DejaVuSans-30"/>
       <use x="286.279297" xlink:href="#DejaVuSans-37"/>
      </g>
     </g>
    </g>
    <g id="xtick_9">
     <g id="line2d_9">
      <g>
       <use style="stroke:#000000;stroke-width:0.8;" x="408.96" xlink:href="#mbb90a870fc" y="307.584"/>
      </g>
     </g>
     <g id="text_9">
      <!-- 0.0008 -->
      <defs>
       <path d="M 31.78125 34.625 
Q 24.75 34.625 20.71875 30.859375 
Q 16.703125 27.09375 16.703125 20.515625 
Q 16.703125 13.921875 20.71875 10.15625 
Q 24.75 6.390625 31.78125 6.390625 
Q 38.8125 6.390625 42.859375 10.171875 
Q 46.921875 13.96875 46.921875 20.515625 
Q 46.921875 27.09375 42.890625 30.859375 
Q 38.875 34.625 31.78125 34.625 
z
M 21.921875 38.8125 
Q 15.578125 40.375 12.03125 44.71875 
Q 8.5 49.078125 8.5 55.328125 
Q 8.5 64.0625 14.71875 69.140625 
Q 20.953125 74.21875 31.78125 74.21875 
Q 42.671875 74.21875 48.875 69.140625 
Q 55.078125 64.0625 55.078125 55.328125 
Q 55.078125 49.078125 51.53125 44.71875 
Q 48 40.375 41.703125 38.8125 
Q 48.828125 37.15625 52.796875 32.3125 
Q 56.78125 27.484375 56.78125 20.515625 
Q 56.78125 9.90625 50.3125 4.234375 
Q 43.84375 -1.421875 31.78125 -1.421875 
Q 19.734375 -1.421875 13.25 4.234375 
Q 6.78125 9.90625 6.78125 20.515625 
Q 6.78125 27.484375 10.78125 32.3125 
Q 14.796875 37.15625 21.921875 38.8125 
z
M 18.3125 54.390625 
Q 18.3125 48.734375 21.84375 45.5625 
Q 25.390625 42.390625 31.78125 42.390625 
Q 38.140625 42.390625 41.71875 45.5625 
Q 45.3125 48.734375 45.3125 54.390625 
Q 45.3125 60.0625 41.71875 63.234375 
Q 38.140625 66.40625 31.78125 66.40625 
Q 25.390625 66.40625 21.84375 63.234375 
Q 18.3125 60.0625 18.3125 54.390625 
z
" id="DejaVuSans-38"/>
      </defs>
      <g transform="translate(391.464687 322.182437)scale(0.1 -0.1)">
       <use xlink:href="#DejaVuSans-30"/>
       <use x="63.623047" xlink:href="#DejaVuSans-2e"/>
       <use x="95.410156" xlink:href="#DejaVuSans-30"/>
       <use x="159.033203" xlink:href="#DejaVuSans-30"/>
       <use x="222.65625" xlink:href="#DejaVuSans-30"/>
       <use x="286.279297" xlink:href="#DejaVuSans-38"/>
      </g>
     </g>
    </g>
    <g id="text_10">
     <!-- Time (s) -->
     <defs>
      <path d="M -0.296875 72.90625 
L 61.375 72.90625 
L 61.375 64.59375 
L 35.5 64.59375 
L 35.5 0 
L 25.59375 0 
L 25.59375 64.59375 
L -0.296875 64.59375 
z
" id="DejaVuSans-54"/>
      <path d="M 9.421875 54.6875 
L 18.40625 54.6875 
L 18.40625 0 
L 9.421875 0 
z
M 9.421875 75.984375 
L 18.40625 75.984375 
L 18.40625 64.59375 
L 9.421875 64.59375 
z
" id="DejaVuSans-69"/>
      <path d="M 52 44.1875 
Q 55.375 50.25 60.0625 53.125 
Q 64.75 56 71.09375 56 
Q 79.640625 56 84.28125 50.015625 
Q 88.921875 44.046875 88.921875 33.015625 
L 88.921875 0 
L 79.890625 0 
L 79.890625 32.71875 
Q 79.890625 40.578125 77.09375 44.375 
Q 74.3125 48.1875 68.609375 48.1875 
Q 61.625 48.1875 57.5625 43.546875 
Q 53.515625 38.921875 53.515625 30.90625 
L 53.515625 0 
L 44.484375 0 
L 44.484375 32.71875 
Q 44.484375 40.625 41.703125 44.40625 
Q 38.921875 48.1875 33.109375 48.1875 
Q 26.21875 48.1875 22.15625 43.53125 
Q 18.109375 38.875 18.109375 30.90625 
L 18.109375 0 
L 9.078125 0 
L 9.078125 54.6875 
L 18.109375 54.6875 
L 18.109375 46.1875 
Q 21.1875 51.21875 25.484375 53.609375 
Q 29.78125 56 35.6875 56 
Q 41.65625 56 45.828125 52.96875 
Q 50 49.953125 52 44.1875 
z
" id="DejaVuSans-6d"/>
      <path d="M 56.203125 29.59375 
L 56.203125 25.203125 
L 14.890625 25.203125 
Q 15.484375 15.921875 20.484375 11.0625 
Q 25.484375 6.203125 34.421875 6.203125 
Q 39.59375 6.203125 44.453125 7.46875 
Q 49.3125 8.734375 54.109375 11.28125 
L 54.109375 2.78125 
Q 49.265625 0.734375 44.1875 -0.34375 
Q 39.109375 -1.421875 33.890625 -1.421875 
Q 20.796875 -1.421875 13.15625 6.1875 
Q 5.515625 13.8125 5.515625 26.8125 
Q 5.515625 40.234375 12.765625 48.109375 
Q 20.015625 56 32.328125 56 
Q 43.359375 56 49.78125 48.890625 
Q 56.203125 41.796875 56.203125 29.59375 
z
M 47.21875 32.234375 
Q 47.125 39.59375 43.09375 43.984375 
Q 39.0625 48.390625 32.421875 48.390625 
Q 24.90625 48.390625 20.390625 44.140625 
Q 15.875 39.890625 15.1875 32.171875 
z
" id="DejaVuSans-65"/>
      <path id="DejaVuSans-20"/>
      <path d="M 31 75.875 
Q 24.46875 64.65625 21.28125 53.65625 
Q 18.109375 42.671875 18.109375 31.390625 
Q 18.109375 20.125 21.3125 9.0625 
Q 24.515625 -2 31 -13.1875 
L 23.1875 -13.1875 
Q 15.875 -1.703125 12.234375 9.375 
Q 8.59375 20.453125 8.59375 31.390625 
Q 8.59375 42.28125 12.203125 53.3125 
Q 15.828125 64.359375 23.1875 75.875 
z
" id="DejaVuSans-28"/>
      <path d="M 44.28125 53.078125 
L 44.28125 44.578125 
Q 40.484375 46.53125 36.375 47.5 
Q 32.28125 48.484375 27.875 48.484375 
Q 21.1875 48.484375 17.84375 46.4375 
Q 14.5 44.390625 14.5 40.28125 
Q 14.5 37.15625 16.890625 35.375 
Q 19.28125 33.59375 26.515625 31.984375 
L 29.59375 31.296875 
Q 39.15625 29.25 43.1875 25.515625 
Q 47.21875 21.78125 47.21875 15.09375 
Q 47.21875 7.46875 41.1875 3.015625 
Q 35.15625 -1.421875 24.609375 -1.421875 
Q 20.21875 -1.421875 15.453125 -0.5625 
Q 10.6875 0.296875 5.421875 2 
L 5.421875 11.28125 
Q 10.40625 8.6875 15.234375 7.390625 
Q 20.0625 6.109375 24.8125 6.109375 
Q 31.15625 6.109375 34.5625 8.28125 
Q 37.984375 10.453125 37.984375 14.40625 
Q 37.984375 18.0625 35.515625 20.015625 
Q 33.0625 21.96875 24.703125 23.78125 
L 21.578125 24.515625 
Q 13.234375 26.265625 9.515625 29.90625 
Q 5.8125 33.546875 5.8125 39.890625 
Q 5.8125 47.609375 11.28125 51.796875 
Q 16.75 56 26.8125 56 
Q 31.78125 56 36.171875 55.265625 
Q 40.578125 54.546875 44.28125 53.078125 
z
" id="DejaVuSans-73"/>
      <path d="M 8.015625 75.875 
L 15.828125 75.875 
Q 23.140625 64.359375 26.78125 53.3125 
Q 30.421875 42.28125 30.421875 31.390625 
Q 30.421875 20.453125 26.78125 9.375 
Q 23.140625 -1.703125 15.828125 -13.1875 
L 8.015625 -13.1875 
Q 14.5 -2 17.703125 9.0625 
Q 20.90625 20.125 20.90625 31.390625 
Q 20.90625 42.671875 17.703125 53.65625 
Q 14.5 64.65625 8.015625 75.875 
z
" id="DejaVuSans-29"/>
     </defs>
     <g transform="translate(215.677188 335.860562)scale(0.1 -0.1)">
      <use xlink:href="#DejaVuSans-54"/>
      <use x="61.037109" xlink:href="#DejaVuSans-69"/>
      <use x="88.820312" xlink:href="#DejaVuSans-6d"/>
      <use x="186.232422" xlink:href="#DejaVuSans-65"/>
      <use x="247.755859" xlink:href="#DejaVuSans-20"/>
      <use x="279.542969" xlink:href="#DejaVuSans-28"/>
      <use x="318.556641" xlink:href="#DejaVuSans-73"/>
      <use x="370.65625" xlink:href="#DejaVuSans-29"/>
     </g>
    </g>
   </g>
   <g id="matplotlib.axis_2">
    <g id="ytick_1">
     <g id="line2d_10">
      <defs>
       <path d="M 0 0 
L -3.5 0 
" id="m4256c0e700" style="stroke:#000000;stroke-width:0.8;"/>
      </defs>
      <g>
       <use style="stroke:#000000;stroke-width:0.8;" x="57.6" xlink:href="#m4256c0e700" y="307.584"/>
      </g>
     </g>
     <g id="text_11">
      <!-- −50 -->
      <defs>
       <path d="M 10.59375 35.5 
L 73.1875 35.5 
L 73.1875 27.203125 
L 10.59375 27.203125 
z
" id="DejaVuSans-2212"/>
      </defs>
      <g transform="translate(29.495313 311.383219)scale(0.1 -0.1)">
       <use xlink:href="#DejaVuSans-2212"/>
       <use x="83.789062" xlink:href="#DejaVuSans-35"/>
       <use x="147.412109" xlink:href="#DejaVuSans-30"/>
      </g>
     </g>
    </g>
    <g id="ytick_2">
     <g id="line2d_11">
      <g>
       <use style="stroke:#000000;stroke-width:0.8;" x="57.6" xlink:href="#m4256c0e700" y="274.32"/>
      </g>
     </g>
     <g id="text_12">
      <!-- −40 -->
      <g transform="translate(29.495313 278.119219)scale(0.1 -0.1)">
       <use xlink:href="#DejaVuSans-2212"/>
       <use x="83.789062" xlink:href="#DejaVuSans-34"/>
       <use x="147.412109" xlink:href="#DejaVuSans-30"/>
      </g>
     </g>
    </g>
    <g id="ytick_3">
     <g id="line2d_12">
      <g>
       <use style="stroke:#000000;stroke-width:0.8;" x="57.6" xlink:href="#m4256c0e700" y="241.056"/>
      </g>
     </g>
     <g id="text_13">
      <!-- −30 -->
      <g transform="translate(29.495313 244.855219)scale(0.1 -0.1)">
       <use xlink:href="#DejaVuSans-2212"/>
       <use x="83.789062" xlink:href="#DejaVuSans-33"/>
       <use x="147.412109" xlink:href="#DejaVuSans-30"/>
      </g>
     </g>
    </g>
    <g id="ytick_4">
     <g id="line2d_13">
      <g>
       <use style="stroke:#000000;stroke-width:0.8;" x="57.6" xlink:href="#m4256c0e700" y="207.792"/>
      </g>
     </g>
     <g id="text_14">
      <!-- −20 -->
      <g transform="translate(29.495313 211.591219)scale(0.1 -0.1)">
       <use xlink:href="#DejaVuSans-2212"/>
       <use x="83.789062" xlink:href="#DejaVuSans-32"/>
       <use x="147.412109" xlink:href="#DejaVuSans-30"/>
      </g>
     </g>
    </g>
    <g id="ytick_5">
     <g id="line2d_14">
      <g>
       <use style="stroke:#000000;stroke-width:0.8;" x="57.6" xlink:href="#m4256c0e700" y="174.528"/>
      </g>
     </g>
     <g id="text_15">
      <!-- −10 -->
      <g transform="translate(29.495313 178.327219)scale(0.1 -0.1)">
       <use xlink:href="#DejaVuSans-2212"/>
       <use x="83.789062" xlink:href="#DejaVuSans-31"/>
       <use x="147.412109" xlink:href="#DejaVuSans-30"/>
      </g>
     </g>
    </g>
    <g id="ytick_6">
     <g id="line2d_15">
      <g>
       <use style="stroke:#000000;stroke-width:0.8;" x="57.6" xlink:href="#m4256c0e700" y="141.264"/>
      </g>
     </g>
     <g id="text_16">
      <!-- 0 -->
      <g transform="translate(44.2375 145.063219)scale(0.1 -0.1)">
       <use xlink:href="#DejaVuSans-30"/>
      </g>
     </g>
    </g>
    <g id="ytick_7">
     <g id="line2d_16">
      <g>
       <use style="stroke:#000000;stroke-width:0.8;" x="57.6" xlink:href="#m4256c0e700" y="108"/>
      </g>
     </g>
     <g id="text_17">
      <!-- 10 -->
      <g transform="translate(37.875 111.799219)scale(0.1 -0.1)">
       <use xlink:href="#DejaVuSans-31"/>
       <use x="63.623047" xlink:href="#DejaVuSans-30"/>
      </g>
     </g>
    </g>
    <g id="ytick_8">
     <g id="line2d_17">
      <g>
       <use style="stroke:#000000;stroke-width:0.8;" x="57.6" xlink:href="#m4256c0e700" y="74.736"/>
      </g>
     </g>
     <g id="text_18">
      <!-- 20 -->
      <g transform="translate(37.875 78.535219)scale(0.1 -0.1)">
       <use xlink:href="#DejaVuSans-32"/>
       <use x="63.623047" xlink:href="#DejaVuSans-30"/>
      </g>
     </g>
    </g>
    <g id="ytick_9">
     <g id="line2d_18">
      <g>
       <use style="stroke:#000000;stroke-width:0.8;" x="57.6" xlink:href="#m4256c0e700" y="41.472"/>
      </g>
     </g>
     <g id="text_19">
      <!-- 30 -->
      <g transform="translate(37.875 45.271219)scale(0.1 -0.1)">
       <use xlink:href="#DejaVuSans-33"/>
       <use x="63.623047" xlink:href="#DejaVuSans-30"/>
      </g>
     </g>
    </g>
    <g id="text_20">
     <!-- Voltage ($\mu$V) -->
     <defs>
      <path d="M 28.609375 0 
L 0.78125 72.90625 
L 11.078125 72.90625 
L 34.1875 11.53125 
L 57.328125 72.90625 
L 67.578125 72.90625 
L 39.796875 0 
z
" id="DejaVuSans-56"/>
      <path d="M 30.609375 48.390625 
Q 23.390625 48.390625 19.1875 42.75 
Q 14.984375 37.109375 14.984375 27.296875 
Q 14.984375 17.484375 19.15625 11.84375 
Q 23.34375 6.203125 30.609375 6.203125 
Q 37.796875 6.203125 41.984375 11.859375 
Q 46.1875 17.53125 46.1875 27.296875 
Q 46.1875 37.015625 41.984375 42.703125 
Q 37.796875 48.390625 30.609375 48.390625 
z
M 30.609375 56 
Q 42.328125 56 49.015625 48.375 
Q 55.71875 40.765625 55.71875 27.296875 
Q 55.71875 13.875 49.015625 6.21875 
Q 42.328125 -1.421875 30.609375 -1.421875 
Q 18.84375 -1.421875 12.171875 6.21875 
Q 5.515625 13.875 5.515625 27.296875 
Q 5.515625 40.765625 12.171875 48.375 
Q 18.84375 56 30.609375 56 
z
" id="DejaVuSans-6f"/>
      <path d="M 9.421875 75.984375 
L 18.40625 75.984375 
L 18.40625 0 
L 9.421875 0 
z
" id="DejaVuSans-6c"/>
      <path d="M 18.3125 70.21875 
L 18.3125 54.6875 
L 36.8125 54.6875 
L 36.8125 47.703125 
L 18.3125 47.703125 
L 18.3125 18.015625 
Q 18.3125 11.328125 20.140625 9.421875 
Q 21.96875 7.515625 27.59375 7.515625 
L 36.8125 7.515625 
L 36.8125 0 
L 27.59375 0 
Q 17.1875 0 13.234375 3.875 
Q 9.28125 7.765625 9.28125 18.015625 
L 9.28125 47.703125 
L 2.6875 47.703125 
L 2.6875 54.6875 
L 9.28125 54.6875 
L 9.28125 70.21875 
z
" id="DejaVuSans-74"/>
      <path d="M 34.28125 27.484375 
Q 23.390625 27.484375 19.1875 25 
Q 14.984375 22.515625 14.984375 16.5 
Q 14.984375 11.71875 18.140625 8.90625 
Q 21.296875 6.109375 26.703125 6.109375 
Q 34.1875 6.109375 38.703125 11.40625 
Q 43.21875 16.703125 43.21875 25.484375 
L 43.21875 27.484375 
z
M 52.203125 31.203125 
L 52.203125 0 
L 43.21875 0 
L 43.21875 8.296875 
Q 40.140625 3.328125 35.546875 0.953125 
Q 30.953125 -1.421875 24.3125 -1.421875 
Q 15.921875 -1.421875 10.953125 3.296875 
Q 6 8.015625 6 15.921875 
Q 6 25.140625 12.171875 29.828125 
Q 18.359375 34.515625 30.609375 34.515625 
L 43.21875 34.515625 
L 43.21875 35.40625 
Q 43.21875 41.609375 39.140625 45 
Q 35.0625 48.390625 27.6875 48.390625 
Q 23 48.390625 18.546875 47.265625 
Q 14.109375 46.140625 10.015625 43.890625 
L 10.015625 52.203125 
Q 14.9375 54.109375 19.578125 55.046875 
Q 24.21875 56 28.609375 56 
Q 40.484375 56 46.34375 49.84375 
Q 52.203125 43.703125 52.203125 31.203125 
z
" id="DejaVuSans-61"/>
      <path d="M 45.40625 27.984375 
Q 45.40625 37.75 41.375 43.109375 
Q 37.359375 48.484375 30.078125 48.484375 
Q 22.859375 48.484375 18.828125 43.109375 
Q 14.796875 37.75 14.796875 27.984375 
Q 14.796875 18.265625 18.828125 12.890625 
Q 22.859375 7.515625 30.078125 7.515625 
Q 37.359375 7.515625 41.375 12.890625 
Q 45.40625 18.265625 45.40625 27.984375 
z
M 54.390625 6.78125 
Q 54.390625 -7.171875 48.1875 -13.984375 
Q 42 -20.796875 29.203125 -20.796875 
Q 24.46875 -20.796875 20.265625 -20.09375 
Q 16.0625 -19.390625 12.109375 -17.921875 
L 12.109375 -9.1875 
Q 16.0625 -11.328125 19.921875 -12.34375 
Q 23.78125 -13.375 27.78125 -13.375 
Q 36.625 -13.375 41.015625 -8.765625 
Q 45.40625 -4.15625 45.40625 5.171875 
L 45.40625 9.625 
Q 42.625 4.78125 38.28125 2.390625 
Q 33.9375 0 27.875 0 
Q 17.828125 0 11.671875 7.65625 
Q 5.515625 15.328125 5.515625 27.984375 
Q 5.515625 40.671875 11.671875 48.328125 
Q 17.828125 56 27.875 56 
Q 33.9375 56 38.28125 53.609375 
Q 42.625 51.21875 45.40625 46.390625 
L 45.40625 54.6875 
L 54.390625 54.6875 
z
" id="DejaVuSans-67"/>
      <path d="M -1.3125 -20.796875 
L 13.375 54.6875 
L 22.40625 54.6875 
L 15.765625 20.65625 
Q 15.578125 19.625 15.421875 18.359375 
Q 15.28125 17.09375 15.28125 15.828125 
Q 15.28125 11.28125 18.140625 8.828125 
Q 21 6.390625 26.3125 6.390625 
Q 33.546875 6.390625 37.984375 10.484375 
Q 42.4375 14.59375 44 22.796875 
L 50.203125 54.6875 
L 59.1875 54.6875 
L 51.03125 12.640625 
Q 50.828125 11.71875 50.75 11.03125 
Q 50.6875 10.359375 50.6875 9.8125 
Q 50.6875 8.296875 51.296875 7.59375 
Q 51.90625 6.890625 53.21875 6.890625 
Q 53.71875 6.890625 54.5625 7.125 
Q 55.421875 7.375 56.984375 8.015625 
L 55.609375 0.78125 
Q 53.46875 -0.296875 51.515625 -0.859375 
Q 49.5625 -1.421875 47.703125 -1.421875 
Q 44.484375 -1.421875 42.65625 0.625 
Q 40.828125 2.6875 40.828125 6.296875 
Q 38.09375 2.390625 34.296875 0.484375 
Q 30.515625 -1.421875 25.390625 -1.421875 
Q 20.84375 -1.421875 17.453125 0.671875 
Q 14.0625 2.78125 12.984375 6.203125 
L 7.71875 -20.796875 
z
" id="DejaVuSans-Oblique-3bc"/>
     </defs>
     <g transform="translate(23.395312 205.778)rotate(-90)scale(0.1 -0.1)">
      <use transform="translate(0 0.015625)" xlink:href="#DejaVuSans-56"/>
      <use transform="translate(68.408203 0.015625)" xlink:href="#DejaVuSans-6f"/>
      <use transform="translate(129.589844 0.015625)" xlink:href="#DejaVuSans-6c"/>
      <use transform="translate(157.373047 0.015625)" xlink:href="#DejaVuSans-74"/>
      <use transform="translate(196.582031 0.015625)" xlink:href="#DejaVuSans-61"/>
      <use transform="translate(257.861328 0.015625)" xlink:href="#DejaVuSans-67"/>
      <use transform="translate(321.337891 0.015625)" xlink:href="#DejaVuSans-65"/>
      <use transform="translate(382.861328 0.015625)" xlink:href="#DejaVuSans-20"/>
      <use transform="translate(414.648438 0.015625)" xlink:href="#DejaVuSans-28"/>
      <use transform="translate(453.662109 0.015625)" xlink:href="#DejaVuSans-Oblique-3bc"/>
      <use transform="translate(517.285156 0.015625)" xlink:href="#DejaVuSans-56"/>
      <use transform="translate(585.693359 0.015625)" xlink:href="#DejaVuSans-29"/>
     </g>
    </g>
   </g>
   <g id="line2d_19">
    <path clip-path="url(#padc2ed89cc)" d="M 73.832727 154.640448 
L 84.305455 159.6672 
L 94.778182 164.776896 
L 105.250909 170.02224 
L 115.723636 177.736032 
L 126.196364 192.338496 
L 136.669091 215.981856 
L 147.141818 243.709344 
L 157.614545 265.01472 
L 168.087273 272.21616 
L 178.56 266.675328 
L 189.032727 255.84336 
L 199.505455 245.391552 
L 209.978182 235.636992 
L 220.450909 224.853408 
L 230.923636 213.141024 
L 241.396364 201.909024 
L 251.869091 191.618784 
L 262.341818 181.792512 
L 272.814545 172.187424 
L 283.287273 163.378944 
L 293.76 156.023712 
L 304.232727 149.533344 
L 314.705455 142.648128 
L 325.178182 134.99136 
L 335.650909 127.429632 
L 346.123636 120.950496 
L 356.596364 115.579008 
L 367.069091 110.44512 
L 377.541818 105.168672 
L 388.014545 100.713024 
L 398.487273 98.292096 
" style="fill:none;stroke:#000000;stroke-linecap:square;stroke-width:1.5;"/>
   </g>
   <g id="line2d_20">
    <path clip-path="url(#padc2ed89cc)" d="M 73.832727 179.318016 
L 84.305455 193.555008 
L 94.778182 210.985344 
L 105.250909 223.226496 
L 115.723636 224.557056 
L 126.196364 221.230656 
L 136.669091 226.685952 
L 147.141818 243.584064 
L 157.614545 257.954112 
L 168.087273 255.292992 
L 178.56 236.798208 
L 189.032727 216.174528 
L 199.505455 203.667264 
L 209.978182 193.82112 
L 220.450909 178.918848 
L 230.923636 157.363776 
L 241.396364 128.889792 
L 251.869091 99.35136 
L 262.341818 78.328512 
L 272.814545 68.615424 
L 283.287273 64.889856 
L 293.76 63.559296 
L 304.232727 66.619584 
L 314.705455 74.07072 
L 325.178182 83.38464 
L 335.650909 91.234944 
L 346.123636 91.900224 
L 356.596364 85.513536 
L 367.069091 82.187136 
L 377.541818 91.101888 
L 388.014545 108.931392 
L 398.487273 122.236992 
" style="fill:none;stroke:#ff0000;stroke-linecap:square;stroke-width:1.5;"/>
   </g>
   <g id="line2d_21">
    <path clip-path="url(#padc2ed89cc)" d="M 73.832727 146.320128 
L 84.305455 170.935488 
L 94.778182 182.644416 
L 105.250909 176.257728 
L 115.723636 167.609088 
L 126.196364 177.18912 
L 136.669091 208.058112 
L 147.141818 243.584064 
L 157.614545 265.67136 
L 168.087273 267.268032 
L 178.56 258.35328 
L 189.032727 252.232704 
L 199.505455 246.511296 
L 209.978182 234.935424 
L 220.450909 224.557056 
L 230.923636 223.359552 
L 241.396364 224.424 
L 251.869091 218.170368 
L 262.341818 205.929216 
L 272.814545 193.688064 
L 283.287273 185.17248 
L 293.76 179.983296 
L 304.232727 175.19328 
L 314.705455 173.596608 
L 325.178182 178.120512 
L 335.650909 183.708864 
L 346.123636 182.910528 
L 356.596364 177.056064 
L 367.069091 175.725504 
L 377.541818 180.51552 
L 388.014545 185.17248 
L 398.487273 185.571648 
" style="fill:none;stroke:#ff1e00;stroke-linecap:square;stroke-width:1.5;"/>
   </g>
   <g id="line2d_22">
    <path clip-path="url(#padc2ed89cc)" d="M 73.832727 145.521792 
L 84.305455 153.90432 
L 94.778182 162.952128 
L 105.250909 171.467712 
L 115.723636 181.047744 
L 126.196364 196.349184 
L 136.669091 218.037312 
L 147.141818 242.652672 
L 157.614545 263.941632 
L 168.087273 272.723328 
L 178.56 264.074688 
L 189.032727 249.970752 
L 199.505455 247.7088 
L 209.978182 257.421888 
L 220.450909 266.33664 
L 230.923636 263.542464 
L 241.396364 246.910464 
L 251.869091 222.028992 
L 262.341818 202.336704 
L 272.814545 193.555008 
L 283.287273 189.696384 
L 293.76 184.906368 
L 304.232727 177.455232 
L 314.705455 168.939648 
L 325.178182 161.88768 
L 335.650909 153.771264 
L 346.123636 141.530112 
L 356.596364 126.228672 
L 367.069091 110.261952 
L 377.541818 99.617472 
L 388.014545 100.01664 
L 398.487273 106.935552 
" style="fill:none;stroke:#ff3b00;stroke-linecap:square;stroke-width:1.5;"/>
   </g>
   <g id="line2d_23">
    <path clip-path="url(#padc2ed89cc)" d="M 73.832727 183.84192 
L 84.305455 193.555008 
L 94.778182 219.10176 
L 105.250909 244.249344 
L 115.723636 252.099648 
L 126.196364 242.785728 
L 136.669091 234.669312 
L 147.141818 242.785728 
L 157.614545 263.67552 
L 168.087273 281.904192 
L 178.56 285.230592 
L 189.032727 272.723328 
L 199.505455 252.498816 
L 209.978182 233.870976 
L 220.450909 216.573696 
L 230.923636 195.018624 
L 241.396364 168.274368 
L 251.869091 144.856512 
L 262.341818 132.349248 
L 272.814545 129.28896 
L 283.287273 130.885632 
L 293.76 133.147584 
L 304.232727 128.889792 
L 314.705455 111.060288 
L 325.178182 84.848256 
L 335.650909 64.623744 
L 346.123636 60.365952 
L 356.596364 68.216256 
L 367.069091 77.929344 
L 377.541818 84.316032 
L 388.014545 87.110208 
L 398.487273 85.779648 
" style="fill:none;stroke:#ff5900;stroke-linecap:square;stroke-width:1.5;"/>
   </g>
   <g id="line2d_24">
    <path clip-path="url(#padc2ed89cc)" d="M 73.832727 97.621632 
L 84.305455 158.56128 
L 94.778182 195.018624 
L 105.250909 201.006144 
L 115.723636 199.010304 
L 126.196364 208.590336 
L 136.669091 230.012352 
L 147.141818 249.305472 
L 157.614545 255.69216 
L 168.087273 249.571584 
L 178.56 236.931264 
L 189.032727 223.09344 
L 199.505455 211.384512 
L 209.978182 205.929216 
L 220.450909 207.12672 
L 230.923636 207.12672 
L 241.396364 194.752512 
L 251.869091 167.476032 
L 262.341818 139.401216 
L 272.814545 129.022848 
L 283.287273 131.683968 
L 293.76 127.160064 
L 304.232727 111.3264 
L 314.705455 93.496896 
L 325.178182 81.3888 
L 335.650909 77.39712 
L 346.123636 83.118528 
L 356.596364 102.145536 
L 367.069091 129.155904 
L 377.541818 153.90432 
L 388.014545 173.19744 
L 398.487273 185.438592 
" style="fill:none;stroke:#ff7600;stroke-linecap:square;stroke-width:1.5;"/>
   </g>
   <g id="line2d_25">
    <path clip-path="url(#padc2ed89cc)" d="M 73.832727 138.735936 
L 84.305455 146.719296 
L 94.778182 157.496832 
L 105.250909 162.952128 
L 115.723636 165.87936 
L 126.196364 181.1808 
L 136.669091 214.843968 
L 147.141818 250.103808 
L 157.614545 270.32832 
L 168.087273 272.723328 
L 178.56 265.00608 
L 189.032727 254.627712 
L 199.505455 247.04352 
L 209.978182 243.584064 
L 220.450909 235.201536 
L 230.923636 212.715072 
L 241.396364 178.652736 
L 251.869091 143.25984 
L 262.341818 118.112256 
L 272.814545 106.536384 
L 283.287273 106.403328 
L 293.76 119.575872 
L 304.232727 144.856512 
L 314.705455 170.669376 
L 325.178182 183.84192 
L 335.650909 180.648576 
L 346.123636 170.270208 
L 356.596364 162.153792 
L 367.069091 158.295168 
L 377.541818 158.029056 
L 388.014545 158.295168 
L 398.487273 155.101824 
" style="fill:none;stroke:#ff9400;stroke-linecap:square;stroke-width:1.5;"/>
   </g>
   <g id="line2d_26">
    <path clip-path="url(#padc2ed89cc)" d="M 73.832727 186.103872 
L 84.305455 184.906368 
L 94.778182 182.644416 
L 105.250909 186.369984 
L 115.723636 201.1392 
L 126.196364 219.500928 
L 136.669091 234.137088 
L 147.141818 251.966592 
L 157.614545 279.243072 
L 168.087273 304.656768 
L 178.56 313.704576 
L 189.032727 308.382336 
L 199.505455 298.669248 
L 209.978182 290.419776 
L 220.450909 283.367808 
L 230.923636 273.787776 
L 241.396364 258.619392 
L 251.869091 239.326272 
L 262.341818 226.41984 
L 272.814545 224.290944 
L 283.287273 223.359552 
L 293.76 214.178688 
L 304.232727 197.280576 
L 314.705455 179.18496 
L 325.178182 168.939648 
L 335.650909 166.943808 
L 346.123636 165.746304 
L 356.596364 161.621568 
L 367.069091 151.775424 
L 377.541818 137.27232 
L 388.014545 125.29728 
L 398.487273 125.29728 
" style="fill:none;stroke:#ffb100;stroke-linecap:square;stroke-width:1.5;"/>
   </g>
   <g id="line2d_27">
    <path clip-path="url(#padc2ed89cc)" d="M 73.832727 134.078976 
L 84.305455 138.203712 
L 94.778182 140.864832 
L 105.250909 148.182912 
L 115.723636 165.480192 
L 126.196364 191.16 
L 136.669091 218.702592 
L 147.141818 241.72128 
L 157.614545 257.421888 
L 168.087273 263.409408 
L 178.56 257.288832 
L 189.032727 242.38656 
L 199.505455 226.952064 
L 209.978182 214.577856 
L 220.450909 202.868928 
L 230.923636 186.769152 
L 241.396364 164.149632 
L 251.869091 140.199552 
L 262.341818 120.374208 
L 272.814545 105.205824 
L 283.287273 88.573824 
L 293.76 65.022912 
L 304.232727 38.943936 
L 314.705455 23.50944 
L 325.178182 26.83584 
L 335.650909 42.669504 
L 346.123636 57.837888 
L 356.596364 63.692352 
L 367.069091 61.164288 
L 377.541818 57.837888 
L 388.014545 58.104 
L 398.487273 62.494848 
" style="fill:none;stroke:#ffcf00;stroke-linecap:square;stroke-width:1.5;"/>
   </g>
   <g id="line2d_28">
    <path clip-path="url(#padc2ed89cc)" d="M 73.832727 121.704768 
L 84.305455 135.808704 
L 94.778182 141.796224 
L 105.250909 143.392896 
L 115.723636 149.91264 
L 126.196364 168.54048 
L 136.669091 199.276416 
L 147.141818 233.205696 
L 157.614545 256.091328 
L 168.087273 261.546624 
L 178.56 256.224384 
L 189.032727 251.966592 
L 199.505455 252.232704 
L 209.978182 251.168256 
L 220.450909 244.249344 
L 230.923636 232.008192 
L 241.396364 218.43648 
L 251.869091 209.654784 
L 262.341818 208.856448 
L 272.814545 209.78784 
L 283.287273 203.13504 
L 293.76 189.696384 
L 304.232727 178.120512 
L 314.705455 172.665216 
L 325.178182 169.87104 
L 335.650909 162.020736 
L 346.123636 149.91264 
L 356.596364 142.727616 
L 367.069091 141.92928 
L 377.541818 138.868992 
L 388.014545 128.490624 
L 398.487273 116.249472 
" style="fill:none;stroke:#ffec00;stroke-linecap:square;stroke-width:1.5;"/>
   </g>
   <g id="line2d_29">
    <path clip-path="url(#padc2ed89cc)" d="M 73.832727 171.733824 
L 84.305455 176.390784 
L 94.778182 187.434432 
L 105.250909 201.538368 
L 115.723636 213.646464 
L 126.196364 219.234816 
L 136.669091 226.020672 
L 147.141818 245.04768 
L 157.614545 272.723328 
L 168.087273 289.887552 
L 178.56 284.432256 
L 189.032727 266.070528 
L 199.505455 253.164096 
L 209.978182 249.305472 
L 220.450909 242.120448 
L 230.923636 226.020672 
L 241.396364 207.792 
L 251.869091 192.889728 
L 262.341818 177.455232 
L 272.814545 159.22656 
L 283.287273 143.792064 
L 293.76 137.671488 
L 304.232727 139.26816 
L 314.705455 142.195392 
L 325.178182 143.392896 
L 335.650909 141.130944 
L 346.123636 135.409536 
L 356.596364 132.881472 
L 367.069091 138.469824 
L 377.541818 146.852352 
L 388.014545 147.118464 
L 398.487273 137.139264 
" style="fill:none;stroke:#eeff00;stroke-linecap:square;stroke-width:1.5;"/>
   </g>
   <g id="line2d_30">
    <path clip-path="url(#padc2ed89cc)" d="M 73.832727 108.266112 
L 84.305455 133.014528 
L 94.778182 154.436544 
L 105.250909 177.987456 
L 115.723636 202.336704 
L 126.196364 221.496768 
L 136.669091 235.866816 
L 147.141818 248.507136 
L 157.614545 259.949952 
L 168.087273 267.534144 
L 178.56 268.864704 
L 189.032727 263.276352 
L 199.505455 248.773248 
L 209.978182 221.0976 
L 220.450909 181.446912 
L 230.923636 142.860672 
L 241.396364 121.039488 
L 251.869091 117.047808 
L 262.341818 115.850304 
L 272.814545 106.66944 
L 283.287273 95.625792 
L 293.76 91.767168 
L 304.232727 92.831616 
L 314.705455 95.625792 
L 325.178182 100.282752 
L 335.650909 107.467776 
L 346.123636 117.846144 
L 356.596364 130.61952 
L 367.069091 142.328448 
L 377.541818 148.182912 
L 388.014545 148.715136 
L 398.487273 150.178752 
" style="fill:none;stroke:#d1ff00;stroke-linecap:square;stroke-width:1.5;"/>
   </g>
   <g id="line2d_31">
    <path clip-path="url(#padc2ed89cc)" d="M 73.832727 154.5696 
L 84.305455 152.57376 
L 94.778182 145.122624 
L 105.250909 135.94176 
L 115.723636 138.070656 
L 126.196364 162.952128 
L 136.669091 204.731712 
L 147.141818 246.245184 
L 157.614545 271.791936 
L 168.087273 278.045568 
L 178.56 273.388608 
L 189.032727 263.409408 
L 199.505455 249.837696 
L 209.978182 236.532096 
L 220.450909 226.020672 
L 230.923636 214.311744 
L 241.396364 192.756672 
L 251.869091 161.089344 
L 262.341818 135.010368 
L 272.814545 129.422016 
L 283.287273 138.336768 
L 293.76 140.997888 
L 304.232727 126.361728 
L 314.705455 102.544704 
L 325.178182 86.844096 
L 335.650909 84.981312 
L 346.123636 86.178816 
L 356.596364 78.860736 
L 367.069091 62.627904 
L 377.541818 44.399232 
L 388.014545 32.15808 
L 398.487273 27.634176 
" style="fill:none;stroke:#b3ff00;stroke-linecap:square;stroke-width:1.5;"/>
   </g>
   <g id="line2d_32">
    <path clip-path="url(#padc2ed89cc)" d="M 73.832727 167.342976 
L 84.305455 169.338816 
L 94.778182 168.141312 
L 105.250909 163.085184 
L 115.723636 162.020736 
L 126.196364 177.588288 
L 136.669091 209.521728 
L 147.141818 240.789888 
L 157.614545 257.821056 
L 168.087273 260.083008 
L 178.56 256.490496 
L 189.032727 256.490496 
L 199.505455 262.078848 
L 209.978182 261.280512 
L 220.450909 243.584064 
L 230.923636 214.843968 
L 241.396364 188.898048 
L 251.869091 175.991616 
L 262.341818 176.923008 
L 272.814545 182.112192 
L 283.287273 182.51136 
L 293.76 180.781632 
L 304.232727 188.49888 
L 314.705455 203.933376 
L 325.178182 209.521728 
L 335.650909 202.070592 
L 346.123636 193.555008 
L 356.596364 191.026944 
L 367.069091 190.228608 
L 377.541818 184.773312 
L 388.014545 175.060224 
L 398.487273 162.153792 
" style="fill:none;stroke:#96ff00;stroke-linecap:square;stroke-width:1.5;"/>
   </g>
   <g id="line2d_33">
    <path clip-path="url(#padc2ed89cc)" d="M 73.832727 150.844032 
L 84.305455 142.195392 
L 94.778182 133.413696 
L 105.250909 141.530112 
L 115.723636 162.819072 
L 126.196364 189.031104 
L 136.669091 218.170368 
L 147.141818 245.446848 
L 157.614545 260.216064 
L 168.087273 254.627712 
L 178.56 235.334592 
L 189.032727 222.42816 
L 199.505455 225.08928 
L 209.978182 229.347072 
L 220.450909 217.505088 
L 230.923636 193.288896 
L 241.396364 175.991616 
L 251.869091 173.463552 
L 262.341818 170.270208 
L 272.814545 152.57376 
L 283.287273 129.155904 
L 293.76 115.98336 
L 304.232727 113.189184 
L 314.705455 114.918912 
L 325.178182 116.781696 
L 335.650909 108.399168 
L 346.123636 86.178816 
L 356.596364 57.039552 
L 367.069091 25.106112 
L 375.490363 -1 
" style="fill:none;stroke:#78ff00;stroke-linecap:square;stroke-width:1.5;"/>
   </g>
   <g id="line2d_34">
    <path clip-path="url(#padc2ed89cc)" d="M 73.832727 182.378304 
L 84.305455 189.962496 
L 94.778182 191.16 
L 105.250909 188.764992 
L 115.723636 191.16 
L 126.196364 205.79616 
L 136.669091 229.480128 
L 147.141818 250.636032 
L 157.614545 255.69216 
L 168.087273 237.862656 
L 178.56 206.062272 
L 189.032727 175.725504 
L 199.505455 157.097664 
L 209.978182 149.646528 
L 220.450909 148.315968 
L 230.923636 153.105984 
L 241.396364 160.823232 
L 251.869091 159.625728 
L 262.341818 145.787904 
L 272.814545 130.486464 
L 283.287273 124.898112 
L 293.76 125.563392 
L 304.232727 120.773376 
L 314.705455 110.395008 
L 325.178182 107.600832 
L 335.650909 119.708928 
L 346.123636 132.482304 
L 356.596364 129.155904 
L 367.069091 116.382528 
L 377.541818 116.249472 
L 388.014545 136.074816 
L 398.487273 162.153792 
" style="fill:none;stroke:#5bff00;stroke-linecap:square;stroke-width:1.5;"/>
   </g>
   <g id="line2d_35">
    <path clip-path="url(#padc2ed89cc)" d="M 73.832727 158.694336 
L 84.305455 155.634048 
L 94.778182 157.629888 
L 105.250909 162.686016 
L 115.723636 169.338816 
L 126.196364 181.579968 
L 136.669091 204.4656 
L 147.141818 236.132928 
L 157.614545 260.748288 
L 168.087273 261.147456 
L 178.56 240.124608 
L 189.032727 217.372032 
L 199.505455 212.715072 
L 209.978182 231.209856 
L 220.450909 258.619392 
L 230.923636 269.396928 
L 241.396364 251.966592 
L 251.869091 221.496768 
L 262.341818 204.997824 
L 272.814545 210.852288 
L 283.287273 218.037312 
L 293.76 204.864768 
L 304.232727 178.652736 
L 314.705455 163.484352 
L 325.178182 164.016576 
L 335.650909 160.157952 
L 346.123636 139.002048 
L 356.596364 115.584192 
L 367.069091 110.395008 
L 377.541818 119.841984 
L 388.014545 125.829504 
L 398.487273 120.241152 
" style="fill:none;stroke:#3dff00;stroke-linecap:square;stroke-width:1.5;"/>
   </g>
   <g id="line2d_36">
    <path clip-path="url(#padc2ed89cc)" d="M 73.832727 161.355456 
L 84.305455 159.89184 
L 94.778182 150.444864 
L 105.250909 148.848192 
L 115.723636 161.754624 
L 126.196364 185.17248 
L 136.669091 213.247296 
L 147.141818 240.656832 
L 157.614545 259.816896 
L 168.087273 266.33664 
L 178.56 261.0144 
L 189.032727 249.571584 
L 199.505455 239.06016 
L 209.978182 231.342912 
L 220.450909 224.557056 
L 230.923636 217.238976 
L 241.396364 210.852288 
L 251.869091 205.263936 
L 262.341818 201.006144 
L 272.814545 200.340864 
L 283.287273 202.735872 
L 293.76 202.46976 
L 304.232727 199.010304 
L 314.705455 199.409472 
L 325.178182 202.336704 
L 335.650909 195.018624 
L 346.123636 171.999936 
L 356.596364 144.989568 
L 367.069091 124.632 
L 377.541818 108 
L 388.014545 90.835776 
L 398.487273 77.264064 
" style="fill:none;stroke:#20ff00;stroke-linecap:square;stroke-width:1.5;"/>
   </g>
   <g id="line2d_37">
    <path clip-path="url(#padc2ed89cc)" d="M 73.832727 85.38048 
L 84.305455 98.0208 
L 94.778182 115.451136 
L 105.250909 141.397056 
L 115.723636 172.665216 
L 126.196364 203.13504 
L 136.669091 228.681792 
L 147.141818 252.498816 
L 157.614545 276.581952 
L 168.087273 291.484224 
L 178.56 288.29088 
L 189.032727 273.787776 
L 199.505455 263.941632 
L 209.978182 262.877184 
L 220.450909 260.748288 
L 230.923636 251.70048 
L 241.396364 236.931264 
L 251.869091 222.827328 
L 262.341818 216.307584 
L 272.814545 217.638144 
L 283.287273 220.964544 
L 293.76 218.968704 
L 304.232727 207.792 
L 314.705455 191.958336 
L 325.178182 182.245248 
L 335.650909 183.84192 
L 346.123636 191.958336 
L 356.596364 195.018624 
L 367.069091 186.902208 
L 377.541818 173.729664 
L 388.014545 166.278528 
L 398.487273 170.004096 
" style="fill:none;stroke:#04ff08;stroke-linecap:square;stroke-width:1.5;"/>
   </g>
   <g id="line2d_38">
    <path clip-path="url(#padc2ed89cc)" d="M 73.832727 172.798272 
L 84.305455 179.85024 
L 94.778182 183.442752 
L 105.250909 179.85024 
L 115.723636 172.931328 
L 126.196364 178.652736 
L 136.669091 209.255616 
L 147.141818 249.305472 
L 157.614545 268.066368 
L 168.087273 257.821056 
L 178.56 241.588224 
L 189.032727 241.588224 
L 199.505455 253.563264 
L 209.978182 257.954112 
L 220.450909 248.906304 
L 230.923636 239.326272 
L 241.396364 237.330432 
L 251.869091 237.197376 
L 262.341818 228.947904 
L 272.814545 213.646464 
L 283.287273 201.80448 
L 293.76 198.47808 
L 304.232727 195.683904 
L 314.705455 187.16832 
L 325.178182 176.390784 
L 335.650909 164.947968 
L 346.123636 151.376256 
L 356.596364 138.60288 
L 367.069091 132.61536 
L 377.541818 130.486464 
L 388.014545 122.103936 
L 398.487273 108.532224 
" style="fill:none;stroke:#00ff21;stroke-linecap:square;stroke-width:1.5;"/>
   </g>
   <g id="line2d_39">
    <path clip-path="url(#padc2ed89cc)" d="M 73.832727 124.498944 
L 84.305455 117.31392 
L 94.778182 107.201664 
L 105.250909 103.34304 
L 115.723636 119.97504 
L 126.196364 160.424064 
L 136.669091 207.658944 
L 147.141818 242.918784 
L 157.614545 264.207744 
L 168.087273 278.577792 
L 178.56 289.62144 
L 189.032727 295.342848 
L 199.505455 290.28672 
L 209.978182 276.182784 
L 220.450909 264.207744 
L 230.923636 263.808576 
L 241.396364 273.65472 
L 251.869091 282.30336 
L 262.341818 282.436416 
L 272.814545 276.448896 
L 283.287273 267.800256 
L 293.76 258.619392 
L 304.232727 249.837696 
L 314.705455 239.858496 
L 325.178182 222.028992 
L 335.650909 189.031104 
L 346.123636 145.521792 
L 356.596364 109.463616 
L 367.069091 95.625792 
L 377.541818 100.814976 
L 388.014545 109.064448 
L 398.487273 108 
" style="fill:none;stroke:#00ff3f;stroke-linecap:square;stroke-width:1.5;"/>
   </g>
   <g id="line2d_40">
    <path clip-path="url(#padc2ed89cc)" d="M 73.832727 191.692224 
L 84.305455 188.365824 
L 94.778182 186.103872 
L 105.250909 182.910528 
L 115.723636 182.378304 
L 126.196364 193.555008 
L 136.669091 217.505088 
L 147.141818 241.987392 
L 157.614545 257.02272 
L 168.087273 264.473856 
L 178.56 268.598592 
L 189.032727 271.259712 
L 199.505455 270.727488 
L 209.978182 265.139136 
L 220.450909 257.02272 
L 230.923636 250.902144 
L 241.396364 246.511296 
L 251.869091 238.39488 
L 262.341818 220.964544 
L 272.814545 199.80864 
L 283.287273 189.563328 
L 293.76 192.756672 
L 304.232727 195.284736 
L 314.705455 191.293056 
L 325.178182 184.906368 
L 335.650909 178.253568 
L 346.123636 169.737984 
L 356.596364 159.093504 
L 367.069091 149.380416 
L 377.541818 143.792064 
L 388.014545 143.25984 
L 398.487273 146.985408 
" style="fill:none;stroke:#00ff5c;stroke-linecap:square;stroke-width:1.5;"/>
   </g>
   <g id="line2d_41">
    <path clip-path="url(#padc2ed89cc)" d="M 73.832727 202.203648 
L 84.305455 214.710912 
L 94.778182 222.162048 
L 105.250909 217.638144 
L 115.723636 204.332544 
L 126.196364 200.47392 
L 136.669091 217.505088 
L 147.141818 246.777408 
L 157.614545 270.195264 
L 168.087273 278.178624 
L 178.56 277.912512 
L 189.032727 279.509184 
L 199.505455 282.96864 
L 209.978182 283.234752 
L 220.450909 275.916672 
L 230.923636 262.211904 
L 241.396364 247.04352 
L 251.869091 229.879296 
L 262.341818 207.658944 
L 272.814545 185.970816 
L 283.287273 175.326336 
L 293.76 176.656896 
L 304.232727 180.51552 
L 314.705455 176.923008 
L 325.178182 165.746304 
L 335.650909 152.57376 
L 346.123636 144.324288 
L 356.596364 145.521792 
L 367.069091 151.110144 
L 377.541818 153.372096 
L 388.014545 152.972928 
L 398.487273 157.097664 
" style="fill:none;stroke:#00ff7a;stroke-linecap:square;stroke-width:1.5;"/>
   </g>
   <g id="line2d_42">
    <path clip-path="url(#padc2ed89cc)" d="M 73.832727 118.910592 
L 84.305455 129.821184 
L 94.778182 146.58624 
L 105.250909 163.21824 
L 115.723636 181.579968 
L 126.196364 206.195328 
L 136.669091 232.540416 
L 147.141818 252.36576 
L 157.614545 261.280512 
L 168.087273 256.35744 
L 178.56 239.72544 
L 189.032727 218.835648 
L 199.505455 203.667264 
L 209.978182 195.950016 
L 220.450909 185.039424 
L 230.923636 167.076864 
L 241.396364 152.307648 
L 251.869091 147.384576 
L 262.341818 141.397056 
L 272.814545 119.97504 
L 283.287273 86.71104 
L 293.76 57.837888 
L 304.232727 44.266176 
L 314.705455 43.334784 
L 325.178182 46.528128 
L 335.650909 48.1248 
L 346.123636 47.060352 
L 356.596364 44.7984 
L 367.069091 43.867008 
L 377.541818 48.79008 
L 388.014545 57.571776 
L 398.487273 64.889856 
" style="fill:none;stroke:#00ff97;stroke-linecap:square;stroke-width:1.5;"/>
   </g>
   <g id="line2d_43">
    <path clip-path="url(#padc2ed89cc)" d="M 73.832727 188.764992 
L 84.305455 191.426112 
L 94.778182 183.84192 
L 105.250909 174.794112 
L 115.723636 173.86272 
L 126.196364 183.17664 
L 136.669091 203.13504 
L 147.141818 237.330432 
L 157.614545 282.835584 
L 168.087273 318.22848 
L 178.56 321.687936 
L 189.032727 294.677568 
L 199.505455 259.01856 
L 209.978182 233.471808 
L 220.450909 221.76288 
L 230.923636 216.44064 
L 241.396364 204.731712 
L 251.869091 182.245248 
L 262.341818 154.5696 
L 272.814545 131.2848 
L 283.287273 114.918912 
L 293.76 97.222464 
L 304.232727 74.203776 
L 314.705455 56.906496 
L 325.178182 55.309824 
L 335.650909 63.559296 
L 346.123636 68.216256 
L 356.596364 63.160128 
L 367.069091 51.318144 
L 377.541818 41.472 
L 388.014545 44.399232 
L 398.487273 63.293184 
" style="fill:none;stroke:#00ffb5;stroke-linecap:square;stroke-width:1.5;"/>
   </g>
   <g id="line2d_44">
    <path clip-path="url(#padc2ed89cc)" d="M 73.832727 13.264128 
L 84.305455 102.411648 
L 94.778182 173.463552 
L 105.250909 201.006144 
L 115.723636 201.272256 
L 126.196364 205.396992 
L 136.669091 225.887616 
L 147.141818 251.301312 
L 157.614545 259.68384 
L 168.087273 247.309632 
L 178.56 228.282624 
L 189.032727 213.247296 
L 199.505455 206.062272 
L 209.978182 208.856448 
L 220.450909 218.170368 
L 230.923636 224.024832 
L 241.396364 219.633984 
L 251.869091 206.594496 
L 262.341818 187.301376 
L 272.814545 165.746304 
L 283.287273 151.642368 
L 293.76 154.5696 
L 304.232727 170.403264 
L 314.705455 182.378304 
L 325.178182 181.313856 
L 335.650909 172.399104 
L 346.123636 163.351296 
L 356.596364 159.093504 
L 367.069091 163.085184 
L 377.541818 170.935488 
L 388.014545 170.403264 
L 398.487273 156.831552 
" style="fill:none;stroke:#00ffd3;stroke-linecap:square;stroke-width:1.5;"/>
   </g>
   <g id="line2d_45">
    <path clip-path="url(#padc2ed89cc)" d="M 73.832727 223.492608 
L 84.305455 227.617344 
L 94.778182 219.633984 
L 105.250909 209.920896 
L 115.723636 208.058112 
L 126.196364 215.642304 
L 136.669091 231.609024 
L 147.141818 252.764928 
L 157.614545 268.199424 
L 168.087273 271.65888 
L 178.56 269.66304 
L 189.032727 272.590272 
L 199.505455 279.243072 
L 209.978182 277.380288 
L 220.450909 261.812736 
L 230.923636 244.249344 
L 241.396364 236.798208 
L 251.869091 233.73792 
L 262.341818 221.0976 
L 272.814545 198.877248 
L 283.287273 179.051904 
L 293.76 165.347136 
L 304.232727 153.372096 
L 314.705455 145.654848 
L 325.178182 146.985408 
L 335.650909 149.646528 
L 346.123636 140.199552 
L 356.596364 121.3056 
L 367.069091 110.128896 
L 377.541818 111.060288 
L 388.014545 111.060288 
L 398.487273 100.68192 
" style="fill:none;stroke:#00fff6;stroke-linecap:square;stroke-width:1.5;"/>
   </g>
   <g id="line2d_46">
    <path clip-path="url(#padc2ed89cc)" d="M 73.832727 159.359616 
L 84.305455 166.145472 
L 94.778182 179.18496 
L 105.250909 187.966656 
L 115.723636 194.619456 
L 126.196364 204.598656 
L 136.669091 220.43232 
L 147.141818 239.193216 
L 157.614545 256.091328 
L 168.087273 263.808576 
L 178.56 254.627712 
L 189.032727 231.74208 
L 199.505455 212.715072 
L 209.978182 209.521728 
L 220.450909 212.981184 
L 230.923636 209.654784 
L 241.396364 199.409472 
L 251.869091 189.563328 
L 262.341818 185.438592 
L 272.814545 184.108032 
L 283.287273 179.18496 
L 293.76 167.742144 
L 304.232727 153.372096 
L 314.705455 139.93344 
L 325.178182 130.885632 
L 335.650909 126.228672 
L 346.123636 120.773376 
L 356.596364 115.451136 
L 367.069091 117.580032 
L 377.541818 123.035328 
L 388.014545 120.64032 
L 398.487273 111.858624 
" style="fill:none;stroke:#00eaff;stroke-linecap:square;stroke-width:1.5;"/>
   </g>
   <g id="line2d_47">
    <path clip-path="url(#padc2ed89cc)" d="M 73.832727 46.395072 
L 84.305455 46.395072 
L 94.778182 50.652864 
L 105.250909 67.151808 
L 115.723636 106.00416 
L 126.196364 163.617408 
L 136.669091 216.44064 
L 147.141818 247.841856 
L 157.614545 262.078848 
L 168.087273 270.461376 
L 178.56 276.98112 
L 189.032727 277.779456 
L 199.505455 268.864704 
L 209.978182 254.228544 
L 220.450909 241.588224 
L 230.923636 234.004032 
L 241.396364 226.286784 
L 251.869091 213.11424 
L 262.341818 198.345024 
L 272.814545 186.636096 
L 283.287273 177.455232 
L 293.76 171.999936 
L 304.232727 169.471872 
L 314.705455 164.814912 
L 325.178182 154.303488 
L 335.650909 139.002048 
L 346.123636 125.164224 
L 356.596364 117.180864 
L 367.069091 109.862784 
L 377.541818 99.484416 
L 388.014545 90.03744 
L 398.487273 84.981312 
" style="fill:none;stroke:#00cdff;stroke-linecap:square;stroke-width:1.5;"/>
   </g>
   <g id="line2d_48">
    <path clip-path="url(#padc2ed89cc)" d="M 73.832727 146.187072 
L 84.305455 146.985408 
L 94.778182 151.90848 
L 105.250909 159.89184 
L 115.723636 167.8752 
L 126.196364 178.386624 
L 136.669091 201.272256 
L 147.141818 238.128768 
L 157.614545 275.517504 
L 168.087273 296.540352 
L 178.56 298.003968 
L 189.032727 288.95616 
L 199.505455 278.31168 
L 209.978182 267.401088 
L 220.450909 253.69632 
L 230.923636 236.798208 
L 241.396364 218.968704 
L 251.869091 204.864768 
L 262.341818 195.018624 
L 272.814545 184.5072 
L 283.287273 171.2016 
L 293.76 153.105984 
L 304.232727 132.216192 
L 314.705455 117.31392 
L 325.178182 113.189184 
L 335.650909 114.918912 
L 346.123636 117.31392 
L 356.596364 118.64448 
L 367.069091 118.910592 
L 377.541818 117.446976 
L 388.014545 111.3264 
L 398.487273 100.01664 
" style="fill:none;stroke:#00afff;stroke-linecap:square;stroke-width:1.5;"/>
   </g>
   <g id="line2d_49">
    <path clip-path="url(#padc2ed89cc)" d="M 73.832727 132.881472 
L 84.305455 140.465664 
L 94.778182 149.114304 
L 105.250909 153.372096 
L 115.723636 161.2224 
L 126.196364 183.708864 
L 136.669091 217.372032 
L 147.141818 247.309632 
L 157.614545 260.216064 
L 168.087273 255.559104 
L 178.56 248.37408 
L 189.032727 249.970752 
L 199.505455 252.498816 
L 209.978182 240.124608 
L 220.450909 219.367872 
L 230.923636 209.255616 
L 241.396364 211.78368 
L 251.869091 212.049792 
L 262.341818 200.207808 
L 272.814545 181.446912 
L 283.287273 170.53632 
L 293.76 169.604928 
L 304.232727 163.88352 
L 314.705455 138.203712 
L 325.178182 96.69024 
L 335.650909 63.160128 
L 346.123636 57.970944 
L 356.596364 71.808768 
L 367.069091 75.534336 
L 377.541818 59.035392 
L 388.014545 40.540608 
L 398.487273 38.411712 
" style="fill:none;stroke:#0092ff;stroke-linecap:square;stroke-width:1.5;"/>
   </g>
   <g id="line2d_50">
    <path clip-path="url(#padc2ed89cc)" d="M 73.832727 165.613248 
L 84.305455 153.23904 
L 94.778182 145.787904 
L 105.250909 146.58624 
L 115.723636 153.372096 
L 126.196364 163.484352 
L 136.669091 182.777472 
L 147.141818 217.372032 
L 157.614545 258.486336 
L 168.087273 286.694208 
L 178.56 293.480064 
L 189.032727 288.157824 
L 199.505455 280.839744 
L 209.978182 273.388608 
L 220.450909 265.538304 
L 230.923636 257.288832 
L 241.396364 245.71296 
L 251.869091 228.548736 
L 262.341818 212.049792 
L 272.814545 201.671424 
L 283.287273 194.220288 
L 293.76 183.84192 
L 304.232727 170.270208 
L 314.705455 156.964608 
L 325.178182 147.650688 
L 335.650909 142.727616 
L 346.123636 140.066496 
L 356.596364 135.94176 
L 367.069091 128.091456 
L 377.541818 115.185024 
L 388.014545 100.814976 
L 398.487273 91.767168 
" style="fill:none;stroke:#0074ff;stroke-linecap:square;stroke-width:1.5;"/>
   </g>
   <g id="line2d_51">
    <path clip-path="url(#padc2ed89cc)" d="M 73.832727 203.667264 
L 84.305455 214.311744 
L 94.778182 220.964544 
L 105.250909 222.694272 
L 115.723636 221.629824 
L 126.196364 222.295104 
L 136.669091 229.879296 
L 147.141818 243.983232 
L 157.614545 258.220224 
L 168.087273 264.473856 
L 178.56 257.155776 
L 189.032727 241.588224 
L 199.505455 229.08096 
L 209.978182 228.548736 
L 220.450909 238.794048 
L 230.923636 250.902144 
L 241.396364 257.954112 
L 251.869091 257.688 
L 262.341818 252.631872 
L 272.814545 248.906304 
L 283.287273 250.769088 
L 293.76 256.889664 
L 304.232727 258.619392 
L 314.705455 246.644352 
L 325.178182 226.819008 
L 335.650909 214.710912 
L 346.123636 217.238976 
L 356.596364 226.286784 
L 367.069091 232.40736 
L 377.541818 232.540416 
L 388.014545 227.484288 
L 398.487273 221.496768 
" style="fill:none;stroke:#0057ff;stroke-linecap:square;stroke-width:1.5;"/>
   </g>
   <g id="line2d_52">
    <path clip-path="url(#padc2ed89cc)" d="M 73.832727 145.787904 
L 84.305455 154.436544 
L 94.778182 172.665216 
L 105.250909 195.15168 
L 115.723636 212.182848 
L 126.196364 221.76288 
L 136.669091 230.677632 
L 147.141818 245.446848 
L 157.614545 261.812736 
L 168.087273 271.392768 
L 178.56 270.461376 
L 189.032727 256.756608 
L 199.505455 231.342912 
L 209.978182 204.066432 
L 220.450909 183.708864 
L 230.923636 168.274368 
L 241.396364 154.5696 
L 251.869091 144.723456 
L 262.341818 143.792064 
L 272.814545 149.91264 
L 283.287273 155.767104 
L 293.76 153.638208 
L 304.232727 139.93344 
L 314.705455 119.841984 
L 325.178182 101.879424 
L 335.650909 91.767168 
L 346.123636 88.174656 
L 356.596364 80.191296 
L 367.069091 63.027072 
L 377.541818 44.13312 
L 388.014545 32.025024 
L 398.487273 26.17056 
" style="fill:none;stroke:#0039ff;stroke-linecap:square;stroke-width:1.5;"/>
   </g>
   <g id="line2d_53">
    <path clip-path="url(#padc2ed89cc)" d="M 73.832727 214.4448 
L 84.305455 220.831488 
L 94.778182 219.76704 
L 105.250909 215.509248 
L 115.723636 211.650624 
L 126.196364 212.049792 
L 136.669091 220.033152 
L 147.141818 236.132928 
L 157.614545 256.35744 
L 168.087273 276.848064 
L 178.56 293.480064 
L 189.032727 300.532032 
L 199.505455 296.141184 
L 209.978182 283.766976 
L 220.450909 267.933312 
L 230.923636 248.241024 
L 241.396364 223.891776 
L 251.869091 201.272256 
L 262.341818 188.365824 
L 272.814545 182.644416 
L 283.287273 173.729664 
L 293.76 157.363776 
L 304.232727 139.401216 
L 314.705455 123.035328 
L 325.178182 107.866944 
L 335.650909 90.968832 
L 346.123636 72.474048 
L 356.596364 57.172608 
L 367.069091 49.45536 
L 377.541818 50.78592 
L 388.014545 59.833728 
L 398.487273 72.873216 
" style="fill:none;stroke:#001cff;stroke-linecap:square;stroke-width:1.5;"/>
   </g>
   <g id="line2d_54">
    <path clip-path="url(#padc2ed89cc)" d="M 73.832727 176.257728 
L 84.305455 175.85856 
L 94.778182 174.261888 
L 105.250909 179.451072 
L 115.723636 193.421952 
L 126.196364 212.582016 
L 136.669091 233.338752 
L 147.141818 253.563264 
L 157.614545 266.070528 
L 168.087273 272.32416 
L 178.56 282.436416 
L 189.032727 294.544512 
L 199.505455 296.141184 
L 209.978182 283.101696 
L 220.450909 268.199424 
L 230.923636 265.272192 
L 241.396364 276.31584 
L 251.869091 292.415616 
L 262.341818 297.205632 
L 272.814545 280.706688 
L 283.287273 251.833536 
L 293.76 224.690112 
L 304.232727 205.13088 
L 314.705455 189.563328 
L 325.178182 170.004096 
L 335.650909 147.650688 
L 346.123636 131.151744 
L 356.596364 124.498944 
L 367.069091 121.837824 
L 377.541818 113.98752 
L 388.014545 102.544704 
L 398.487273 92.831616 
" style="fill:none;stroke:#0800ff;stroke-linecap:square;stroke-width:1.5;"/>
   </g>
   <g id="line2d_55">
    <path clip-path="url(#padc2ed89cc)" d="M 73.832727 115.451136 
L 84.305455 127.559232 
L 94.778182 139.534272 
L 105.250909 145.654848 
L 115.723636 152.307648 
L 126.196364 171.334656 
L 136.669091 205.929216 
L 147.141818 244.648512 
L 157.614545 272.457216 
L 168.087273 280.9728 
L 178.56 271.392768 
L 189.032727 254.095488 
L 199.505455 236.665152 
L 209.978182 221.230656 
L 220.450909 210.053952 
L 230.923636 203.13504 
L 241.396364 194.885568 
L 251.869091 185.571648 
L 262.341818 179.983296 
L 272.814545 175.326336 
L 283.287273 164.415744 
L 293.76 150.045696 
L 304.232727 137.671488 
L 314.705455 128.224512 
L 325.178182 120.773376 
L 335.650909 114.386688 
L 346.123636 113.056128 
L 356.596364 119.043648 
L 367.069091 123.96672 
L 377.541818 118.112256 
L 388.014545 103.742208 
L 398.487273 89.771328 
" style="fill:none;stroke:#2500ff;stroke-linecap:square;stroke-width:1.5;"/>
   </g>
   <g id="line2d_56">
    <path clip-path="url(#padc2ed89cc)" d="M 73.832727 136.60704 
L 84.305455 141.663168 
L 94.778182 148.58208 
L 105.250909 159.093504 
L 115.723636 170.802432 
L 126.196364 185.970816 
L 136.669091 213.77952 
L 147.141818 252.099648 
L 157.614545 285.363648 
L 168.087273 302.394816 
L 178.56 300.665088 
L 189.032727 286.96032 
L 199.505455 274.053888 
L 209.978182 264.606912 
L 220.450909 255.958272 
L 230.923636 246.644352 
L 241.396364 233.73792 
L 251.869091 216.706752 
L 262.341818 200.207808 
L 272.814545 187.8336 
L 283.287273 177.322176 
L 293.76 165.21408 
L 304.232727 157.097664 
L 314.705455 156.299328 
L 325.178182 155.634048 
L 335.650909 152.440704 
L 346.123636 148.049856 
L 356.596364 138.336768 
L 367.069091 123.035328 
L 377.541818 111.193344 
L 388.014545 108.399168 
L 398.487273 108.66528 
" style="fill:none;stroke:#4300ff;stroke-linecap:square;stroke-width:1.5;"/>
   </g>
   <g id="line2d_57">
    <path clip-path="url(#padc2ed89cc)" d="M 73.832727 146.320128 
L 84.305455 145.521792 
L 94.778182 137.139264 
L 105.250909 129.155904 
L 115.723636 134.478144 
L 126.196364 158.694336 
L 136.669091 194.885568 
L 147.141818 233.73792 
L 157.614545 265.00608 
L 168.087273 278.710848 
L 178.56 275.384448 
L 189.032727 265.538304 
L 199.505455 259.01856 
L 209.978182 258.220224 
L 220.450909 255.159936 
L 230.923636 241.455168 
L 241.396364 218.170368 
L 251.869091 194.885568 
L 262.341818 182.112192 
L 272.814545 176.789952 
L 283.287273 169.604928 
L 293.76 157.896 
L 304.232727 138.868992 
L 314.705455 107.201664 
L 325.178182 64.224576 
L 335.650909 20.582208 
L 342.641517 -1 
" style="fill:none;stroke:#6000ff;stroke-linecap:square;stroke-width:1.5;"/>
   </g>
   <g id="line2d_58">
    <path clip-path="url(#padc2ed89cc)" d="M 73.832727 107.467776 
L 84.305455 108.399168 
L 94.778182 114.120576 
L 105.250909 124.898112 
L 115.723636 136.473984 
L 126.196364 150.710976 
L 136.669091 176.923008 
L 147.141818 215.376192 
L 157.614545 255.958272 
L 168.087273 284.565312 
L 178.56 295.475904 
L 189.032727 297.338688 
L 199.505455 297.072576 
L 209.978182 291.085056 
L 220.450909 275.916672 
L 230.923636 258.220224 
L 241.396364 247.841856 
L 251.869091 245.846016 
L 262.341818 243.184896 
L 272.814545 237.463488 
L 283.287273 230.943744 
L 293.76 218.968704 
L 304.232727 197.014464 
L 314.705455 171.068544 
L 325.178182 153.105984 
L 335.650909 146.985408 
L 346.123636 146.320128 
L 356.596364 145.122624 
L 367.069091 142.59456 
L 377.541818 140.332608 
L 388.014545 140.199552 
L 398.487273 139.667328 
" style="fill:none;stroke:#7e00ff;stroke-linecap:square;stroke-width:1.5;"/>
   </g>
   <g id="line2d_59">
    <path clip-path="url(#padc2ed89cc)" d="M 73.832727 169.338816 
L 84.305455 204.332544 
L 94.778182 220.166208 
L 105.250909 217.10592 
L 115.723636 209.654784 
L 126.196364 213.646464 
L 136.669091 231.609024 
L 147.141818 250.902144 
L 157.614545 256.889664 
L 168.087273 243.05184 
L 178.56 218.170368 
L 189.032727 199.675584 
L 199.505455 198.345024 
L 209.978182 207.259776 
L 220.450909 209.388672 
L 230.923636 197.280576 
L 241.396364 181.313856 
L 251.869091 173.995776 
L 262.341818 173.596608 
L 272.814545 172.931328 
L 283.287273 171.467712 
L 293.76 173.19744 
L 304.232727 172.798272 
L 314.705455 162.286848 
L 325.178182 146.58624 
L 335.650909 136.340928 
L 346.123636 134.212032 
L 356.596364 134.478144 
L 367.069091 130.486464 
L 377.541818 118.910592 
L 388.014545 102.810816 
L 398.487273 90.569664 
" style="fill:none;stroke:#9b00ff;stroke-linecap:square;stroke-width:1.5;"/>
   </g>
   <g id="line2d_60">
    <path clip-path="url(#padc2ed89cc)" d="M 73.832727 181.979136 
L 84.305455 180.51552 
L 94.778182 167.342976 
L 105.250909 151.642368 
L 115.723636 146.719296 
L 126.196364 165.613248 
L 136.669091 205.929216 
L 147.141818 244.515456 
L 157.614545 260.881344 
L 168.087273 252.099648 
L 178.56 228.947904 
L 189.032727 206.727552 
L 199.505455 192.224448 
L 209.978182 178.785792 
L 220.450909 155.500992 
L 230.923636 122.370048 
L 241.396364 94.295232 
L 251.869091 83.38464 
L 262.341818 83.118528 
L 272.814545 82.453248 
L 283.287273 88.440768 
L 293.76 113.32224 
L 304.232727 149.24736 
L 314.705455 173.995776 
L 325.178182 177.18912 
L 335.650909 167.476032 
L 346.123636 157.23072 
L 356.596364 144.723456 
L 367.069091 117.9792 
L 377.541818 74.07072 
L 388.014545 30.428352 
L 398.487273 10.070784 
" style="fill:none;stroke:#b900ff;stroke-linecap:square;stroke-width:1.5;"/>
   </g>
   <g id="line2d_61">
    <path clip-path="url(#padc2ed89cc)" d="M 73.832727 42.13728 
L 84.305455 73.538496 
L 94.778182 115.98336 
L 105.250909 160.024896 
L 115.723636 197.280576 
L 126.196364 221.629824 
L 136.669091 236.532096 
L 147.141818 252.099648 
L 157.614545 268.465536 
L 168.087273 275.783616 
L 178.56 272.191104 
L 189.032727 268.33248 
L 199.505455 271.259712 
L 209.978182 274.719168 
L 220.450909 268.33248 
L 230.923636 255.426048 
L 241.396364 245.979072 
L 251.869091 239.193216 
L 262.341818 231.475968 
L 272.814545 226.819008 
L 283.287273 228.41568 
L 293.76 230.41152 
L 304.232727 224.024832 
L 314.705455 207.259776 
L 325.178182 189.563328 
L 335.650909 185.17248 
L 346.123636 193.288896 
L 356.596364 198.877248 
L 367.069091 194.087232 
L 377.541818 186.50304 
L 388.014545 182.245248 
L 398.487273 178.918848 
" style="fill:none;stroke:#d600ff;stroke-linecap:square;stroke-width:1.5;"/>
   </g>
   <g id="line2d_62">
    <path clip-path="url(#padc2ed89cc)" d="M 73.832727 236.931264 
L 84.305455 234.270144 
L 94.778182 222.694272 
L 105.250909 210.719232 
L 115.723636 202.602816 
L 126.196364 205.396992 
L 136.669091 223.226496 
L 147.141818 249.571584 
L 157.614545 266.602752 
L 168.087273 262.744128 
L 178.56 245.313792 
L 189.032727 230.012352 
L 199.505455 225.222336 
L 209.978182 224.424 
L 220.450909 218.702592 
L 230.923636 209.388672 
L 241.396364 202.46976 
L 251.869091 200.47392 
L 262.341818 200.074752 
L 272.814545 195.018624 
L 283.287273 184.108032 
L 293.76 174.528 
L 304.232727 171.467712 
L 314.705455 168.141312 
L 325.178182 158.56128 
L 335.650909 145.122624 
L 346.123636 135.94176 
L 356.596364 136.473984 
L 367.069091 141.92928 
L 377.541818 141.264 
L 388.014545 130.61952 
L 398.487273 117.446976 
" style="fill:none;stroke:#f800fd;stroke-linecap:square;stroke-width:1.5;"/>
   </g>
   <g id="line2d_63">
    <path clip-path="url(#padc2ed89cc)" d="M 73.832727 154.170432 
L 84.305455 161.754624 
L 94.778182 157.762944 
L 105.250909 146.985408 
L 115.723636 143.525952 
L 126.196364 160.690176 
L 136.669091 199.276416 
L 147.141818 241.854336 
L 157.614545 267.933312 
L 168.087273 276.98112 
L 178.56 279.509184 
L 189.032727 276.848064 
L 199.505455 263.67552 
L 209.978182 241.455168 
L 220.450909 221.629824 
L 230.923636 216.706752 
L 241.396364 227.617344 
L 251.869091 243.983232 
L 262.341818 254.228544 
L 272.814545 250.636032 
L 283.287273 232.540416 
L 293.76 210.586176 
L 304.232727 195.15168 
L 314.705455 186.103872 
L 325.178182 178.918848 
L 335.650909 177.18912 
L 346.123636 182.112192 
L 356.596364 185.039424 
L 367.069091 180.116352 
L 377.541818 174.661056 
L 388.014545 174.528 
L 398.487273 174.128832 
" style="fill:none;stroke:#ff00e7;stroke-linecap:square;stroke-width:1.5;"/>
   </g>
   <g id="line2d_64">
    <path clip-path="url(#padc2ed89cc)" d="M 73.832727 197.413632 
L 84.305455 188.898048 
L 94.778182 185.970816 
L 105.250909 183.043584 
L 115.723636 176.257728 
L 126.196364 177.721344 
L 136.669091 199.276416 
L 147.141818 232.540416 
L 157.614545 259.816896 
L 168.087273 272.590272 
L 178.56 272.191104 
L 189.032727 265.937472 
L 199.505455 264.3408 
L 209.978182 267.6672 
L 220.450909 265.00608 
L 230.923636 252.498816 
L 241.396364 239.72544 
L 251.869091 234.669312 
L 262.341818 232.40736 
L 272.814545 221.895936 
L 283.287273 200.074752 
L 293.76 179.717184 
L 304.232727 172.931328 
L 314.705455 175.85856 
L 325.178182 176.923008 
L 335.650909 173.330496 
L 346.123636 170.270208 
L 356.596364 165.480192 
L 367.069091 155.767104 
L 377.541818 145.92096 
L 388.014545 141.796224 
L 398.487273 142.062336 
" style="fill:none;stroke:#ff00c9;stroke-linecap:square;stroke-width:1.5;"/>
   </g>
   <g id="line2d_65">
    <path clip-path="url(#padc2ed89cc)" d="M 73.832727 154.303488 
L 84.305455 161.488512 
L 94.778182 179.451072 
L 105.250909 196.349184 
L 115.723636 205.929216 
L 126.196364 215.509248 
L 136.669091 232.008192 
L 147.141818 250.902144 
L 157.614545 263.409408 
L 168.087273 266.203584 
L 178.56 264.3408 
L 189.032727 264.3408 
L 199.505455 263.67552 
L 209.978182 255.559104 
L 220.450909 241.189056 
L 230.923636 228.282624 
L 241.396364 222.42816 
L 251.869091 220.43232 
L 262.341818 216.041472 
L 272.814545 209.388672 
L 283.287273 203.268096 
L 293.76 197.014464 
L 304.232727 186.103872 
L 314.705455 168.274368 
L 325.178182 149.513472 
L 335.650909 136.740096 
L 346.123636 130.353408 
L 356.596364 128.091456 
L 367.069091 129.422016 
L 377.541818 133.413696 
L 388.014545 135.143424 
L 398.487273 131.550912 
" style="fill:none;stroke:#ff00ac;stroke-linecap:square;stroke-width:1.5;"/>
   </g>
   <g id="line2d_66">
    <path clip-path="url(#padc2ed89cc)" d="M 73.832727 155.767104 
L 84.305455 164.016576 
L 94.778182 177.588288 
L 105.250909 193.15584 
L 115.723636 203.13504 
L 126.196364 206.594496 
L 136.669091 215.509248 
L 147.141818 237.06432 
L 157.614545 261.413568 
L 168.087273 271.65888 
L 178.56 263.409408 
L 189.032727 248.906304 
L 199.505455 239.326272 
L 209.978182 232.939584 
L 220.450909 223.226496 
L 230.923636 209.654784 
L 241.396364 199.941696 
L 251.869091 199.80864 
L 262.341818 204.066432 
L 272.814545 202.46976 
L 283.287273 193.688064 
L 293.76 184.906368 
L 304.232727 181.047744 
L 314.705455 181.446912 
L 325.178182 181.047744 
L 335.650909 172.266048 
L 346.123636 154.702656 
L 356.596364 139.800384 
L 367.069091 136.473984 
L 377.541818 137.27232 
L 388.014545 126.361728 
L 398.487273 103.875264 
" style="fill:none;stroke:#ff008e;stroke-linecap:square;stroke-width:1.5;"/>
   </g>
   <g id="line2d_67">
    <path clip-path="url(#padc2ed89cc)" d="M 73.832727 152.972928 
L 84.305455 163.21824 
L 94.778182 177.721344 
L 105.250909 193.555008 
L 115.723636 204.199488 
L 126.196364 209.78784 
L 136.669091 221.0976 
L 147.141818 241.455168 
L 157.614545 257.554944 
L 168.087273 263.542464 
L 178.56 270.062208 
L 189.032727 281.105856 
L 199.505455 285.496704 
L 209.978182 277.912512 
L 220.450909 266.469696 
L 230.923636 261.945792 
L 241.396364 265.937472 
L 251.869091 271.924992 
L 262.341818 276.448896 
L 272.814545 280.30752 
L 283.287273 283.367808 
L 293.76 284.033088 
L 304.232727 277.380288 
L 314.705455 256.091328 
L 325.178182 222.827328 
L 335.650909 192.091392 
L 346.123636 172.931328 
L 356.596364 163.88352 
L 367.069091 162.153792 
L 377.541818 164.814912 
L 388.014545 165.081024 
L 398.487273 159.22656 
" style="fill:none;stroke:#ff0071;stroke-linecap:square;stroke-width:1.5;"/>
   </g>
   <g id="line2d_68">
    <path clip-path="url(#padc2ed89cc)" d="M 73.832727 163.21824 
L 84.305455 168.008256 
L 94.778182 179.983296 
L 105.250909 193.15584 
L 115.723636 199.941696 
L 126.196364 202.336704 
L 136.669091 211.251456 
L 147.141818 233.870976 
L 157.614545 260.083008 
L 168.087273 275.384448 
L 178.56 278.710848 
L 189.032727 275.384448 
L 199.505455 270.32832 
L 209.978182 261.812736 
L 220.450909 246.511296 
L 230.923636 230.810688 
L 241.396364 225.222336 
L 251.869091 231.209856 
L 262.341818 243.05184 
L 272.814545 251.434368 
L 283.287273 244.648512 
L 293.76 223.625664 
L 304.232727 202.070592 
L 314.705455 187.8336 
L 325.178182 177.056064 
L 335.650909 166.677696 
L 346.123636 162.286848 
L 356.596364 167.076864 
L 367.069091 173.86272 
L 377.541818 174.261888 
L 388.014545 164.5488 
L 398.487273 144.058176 
" style="fill:none;stroke:#ff0053;stroke-linecap:square;stroke-width:1.5;"/>
   </g>
   <g id="line2d_69">
    <path clip-path="url(#padc2ed89cc)" d="M 73.832727 245.846016 
L 84.305455 251.0352 
L 94.778182 250.769088 
L 105.250909 242.652672 
L 115.723636 231.875136 
L 126.196364 229.08096 
L 136.669091 237.06432 
L 147.141818 250.103808 
L 157.614545 260.748288 
L 168.087273 261.0144 
L 178.56 247.575744 
L 189.032727 225.75456 
L 199.505455 208.191168 
L 209.978182 202.868928 
L 220.450909 202.602816 
L 230.923636 195.284736 
L 241.396364 180.781632 
L 251.869091 168.939648 
L 262.341818 167.342976 
L 272.814545 171.068544 
L 283.287273 171.999936 
L 293.76 168.407424 
L 304.232727 162.286848 
L 314.705455 153.105984 
L 325.178182 142.59456 
L 335.650909 134.345088 
L 346.123636 130.353408 
L 356.596364 132.61536 
L 367.069091 135.409536 
L 377.541818 129.821184 
L 388.014545 114.6528 
L 398.487273 98.419968 
" style="fill:none;stroke:#ff0035;stroke-linecap:square;stroke-width:1.5;"/>
   </g>
   <g id="line2d_70">
    <path clip-path="url(#padc2ed89cc)" d="M 73.832727 154.640448 
L 84.305455 159.6672 
L 94.778182 164.776896 
L 105.250909 170.02224 
L 115.723636 177.736032 
L 126.196364 192.338496 
L 136.669091 215.981856 
L 147.141818 243.709344 
L 157.614545 265.01472 
L 168.087273 272.21616 
L 178.56 266.675328 
L 189.032727 255.84336 
L 199.505455 245.391552 
L 209.978182 235.636992 
L 220.450909 224.853408 
L 230.923636 213.141024 
L 241.396364 201.909024 
L 251.869091 191.618784 
L 262.341818 181.792512 
L 272.814545 172.187424 
L 283.287273 163.378944 
L 293.76 156.023712 
L 304.232727 149.533344 
L 314.705455 142.648128 
L 325.178182 134.99136 
L 335.650909 127.429632 
L 346.123636 120.950496 
L 356.596364 115.579008 
L 367.069091 110.44512 
L 377.541818 105.168672 
L 388.014545 100.713024 
L 398.487273 98.292096 
" style="fill:none;stroke:#000000;stroke-linecap:square;stroke-width:2;"/>
   </g>
   <g id="patch_3">
    <path d="M 57.6 307.584 
L 57.6 41.472 
" style="fill:none;stroke:#000000;stroke-linecap:square;stroke-linejoin:miter;stroke-width:0.8;"/>
   </g>
   <g id="patch_4">
    <path d="M 414.72 307.584 
L 414.72 41.472 
" style="fill:none;stroke:#000000;stroke-linecap:square;stroke-linejoin:miter;stroke-width:0.8;"/>
   </g>
   <g id="patch_5">
    <path d="M 57.6 307.584 
L 414.72 307.584 
" style="fill:none;stroke:#000000;stroke-linecap:square;stroke-linejoin:miter;stroke-width:0.8;"/>
   </g>
   <g id="patch_6">
    <path d="M 57.6 41.472 
L 414.72 41.472 
" style="fill:none;stroke:#000000;stroke-linecap:square;stroke-linejoin:miter;stroke-width:0.8;"/>
   </g>
   <g id="text_21">
    <!-- $V_{rms}=$ 19.291310 -->
    <defs>
     <path d="M 20.609375 0 
L 7.8125 72.90625 
L 17.484375 72.90625 
L 28.078125 10.203125 
L 63.484375 72.90625 
L 74.21875 72.90625 
L 32.078125 0 
z
" id="DejaVuSans-Oblique-56"/>
     <path d="M 44.578125 46.390625 
Q 43.21875 47.125 41.453125 47.515625 
Q 39.703125 47.90625 37.703125 47.90625 
Q 30.515625 47.90625 25.140625 42.453125 
Q 19.78125 37.015625 18.015625 27.875 
L 12.5 0 
L 3.515625 0 
L 14.203125 54.6875 
L 23.1875 54.6875 
L 21.484375 46.1875 
Q 25.046875 50.921875 30 53.453125 
Q 34.96875 56 40.578125 56 
Q 42.046875 56 43.453125 55.828125 
Q 44.875 55.671875 46.296875 55.28125 
z
" id="DejaVuSans-Oblique-72"/>
     <path d="M 89.796875 33.015625 
L 83.40625 0 
L 74.421875 0 
L 80.71875 32.71875 
Q 81.109375 34.8125 81.296875 36.328125 
Q 81.5 37.84375 81.5 38.921875 
Q 81.5 43.3125 79.046875 45.75 
Q 76.609375 48.1875 72.21875 48.1875 
Q 65.671875 48.1875 60.546875 43.28125 
Q 55.421875 38.375 53.90625 30.515625 
L 47.90625 0 
L 38.921875 0 
L 45.3125 32.71875 
Q 45.703125 34.515625 45.890625 36.046875 
Q 46.09375 37.59375 46.09375 38.8125 
Q 46.09375 43.265625 43.65625 45.71875 
Q 41.21875 48.1875 36.921875 48.1875 
Q 30.28125 48.1875 25.140625 43.28125 
Q 20.015625 38.375 18.5 30.515625 
L 12.5 0 
L 3.515625 0 
L 14.203125 54.6875 
L 23.1875 54.6875 
L 21.484375 46.1875 
Q 25.140625 50.984375 30.046875 53.484375 
Q 34.96875 56 40.578125 56 
Q 46.53125 56 50.359375 52.875 
Q 54.203125 49.75 54.984375 44.1875 
Q 59.078125 49.953125 64.46875 52.96875 
Q 69.875 56 75.875 56 
Q 82.90625 56 86.734375 51.953125 
Q 90.578125 47.90625 90.578125 40.484375 
Q 90.578125 38.875 90.375 36.9375 
Q 90.1875 35.015625 89.796875 33.015625 
z
" id="DejaVuSans-Oblique-6d"/>
     <path d="M 50 53.078125 
L 48.296875 44.578125 
Q 44.734375 46.53125 40.765625 47.5 
Q 36.8125 48.484375 32.625 48.484375 
Q 25.53125 48.484375 21.453125 46.0625 
Q 17.390625 43.65625 17.390625 39.5 
Q 17.390625 34.671875 26.859375 32.078125 
Q 27.59375 31.890625 27.9375 31.78125 
L 30.8125 30.90625 
Q 39.796875 28.421875 42.796875 25.6875 
Q 45.796875 22.953125 45.796875 18.21875 
Q 45.796875 9.515625 38.890625 4.046875 
Q 31.984375 -1.421875 20.796875 -1.421875 
Q 16.453125 -1.421875 11.671875 -0.578125 
Q 6.890625 0.25 1.125 2 
L 2.875 11.28125 
Q 7.8125 8.734375 12.59375 7.421875 
Q 17.390625 6.109375 21.78125 6.109375 
Q 28.375 6.109375 32.5 8.9375 
Q 36.625 11.765625 36.625 16.109375 
Q 36.625 20.796875 25.78125 23.6875 
L 24.859375 23.921875 
L 21.78125 24.703125 
Q 14.9375 26.515625 11.765625 29.46875 
Q 8.59375 32.421875 8.59375 37.015625 
Q 8.59375 45.75 15.15625 50.875 
Q 21.734375 56 33.015625 56 
Q 37.453125 56 41.671875 55.265625 
Q 45.90625 54.546875 50 53.078125 
z
" id="DejaVuSans-Oblique-73"/>
     <path d="M 10.59375 45.40625 
L 73.1875 45.40625 
L 73.1875 37.203125 
L 10.59375 37.203125 
z
M 10.59375 25.484375 
L 73.1875 25.484375 
L 73.1875 17.1875 
L 10.59375 17.1875 
z
" id="DejaVuSans-3d"/>
     <path d="M 10.984375 1.515625 
L 10.984375 10.5 
Q 14.703125 8.734375 18.5 7.8125 
Q 22.3125 6.890625 25.984375 6.890625 
Q 35.75 6.890625 40.890625 13.453125 
Q 46.046875 20.015625 46.78125 33.40625 
Q 43.953125 29.203125 39.59375 26.953125 
Q 35.25 24.703125 29.984375 24.703125 
Q 19.046875 24.703125 12.671875 31.3125 
Q 6.296875 37.9375 6.296875 49.421875 
Q 6.296875 60.640625 12.9375 67.421875 
Q 19.578125 74.21875 30.609375 74.21875 
Q 43.265625 74.21875 49.921875 64.515625 
Q 56.59375 54.828125 56.59375 36.375 
Q 56.59375 19.140625 48.40625 8.859375 
Q 40.234375 -1.421875 26.421875 -1.421875 
Q 22.703125 -1.421875 18.890625 -0.6875 
Q 15.09375 0.046875 10.984375 1.515625 
z
M 30.609375 32.421875 
Q 37.25 32.421875 41.125 36.953125 
Q 45.015625 41.5 45.015625 49.421875 
Q 45.015625 57.28125 41.125 61.84375 
Q 37.25 66.40625 30.609375 66.40625 
Q 23.96875 66.40625 20.09375 61.84375 
Q 16.21875 57.28125 16.21875 49.421875 
Q 16.21875 41.5 20.09375 36.953125 
Q 23.96875 32.421875 30.609375 32.421875 
z
" id="DejaVuSans-39"/>
    </defs>
    <g transform="translate(325.178182 163.378944)scale(0.1 -0.1)">
     <use transform="translate(0 0.78125)" xlink:href="#DejaVuSans-Oblique-56"/>
     <use transform="translate(68.408203 -15.625)scale(0.7)" xlink:href="#DejaVuSans-Oblique-72"/>
     <use transform="translate(97.1875 -15.625)scale(0.7)" xlink:href="#DejaVuSans-Oblique-6d"/>
     <use transform="translate(165.375977 -15.625)scale(0.7)" xlink:href="#DejaVuSans-Oblique-73"/>
     <use transform="translate(224.0625 0.78125)" xlink:href="#DejaVuSans-3d"/>
     <use transform="translate(327.333984 0.78125)" xlink:href="#DejaVuSans-20"/>
     <use transform="translate(359.121094 0.78125)" xlink:href="#DejaVuSans-31"/>
     <use transform="translate(422.744141 0.78125)" xlink:href="#DejaVuSans-39"/>
     <use transform="translate(486.367188 0.78125)" xlink:href="#DejaVuSans-2e"/>
     <use transform="translate(518.076172 0.78125)" xlink:href="#DejaVuSans-32"/>
     <use transform="translate(581.683594 0.78125)" xlink:href="#DejaVuSans-39"/>
     <use transform="translate(645.306641 0.78125)" xlink:href="#DejaVuSans-31"/>
     <use transform="translate(708.929688 0.78125)" xlink:href="#DejaVuSans-33"/>
     <use transform="translate(772.552734 0.78125)" xlink:href="#DejaVuSans-31"/>
     <use transform="translate(836.175781 0.78125)" xlink:href="#DejaVuSans-30"/>
    </g>
   </g>
   <g id="text_22">
    <!-- Channel 10 - Unit 1 -->
    <defs>
     <path d="M 64.40625 67.28125 
L 64.40625 56.890625 
Q 59.421875 61.53125 53.78125 63.8125 
Q 48.140625 66.109375 41.796875 66.109375 
Q 29.296875 66.109375 22.65625 58.46875 
Q 16.015625 50.828125 16.015625 36.375 
Q 16.015625 21.96875 22.65625 14.328125 
Q 29.296875 6.6875 41.796875 6.6875 
Q 48.140625 6.6875 53.78125 8.984375 
Q 59.421875 11.28125 64.40625 15.921875 
L 64.40625 5.609375 
Q 59.234375 2.09375 53.4375 0.328125 
Q 47.65625 -1.421875 41.21875 -1.421875 
Q 24.65625 -1.421875 15.125 8.703125 
Q 5.609375 18.84375 5.609375 36.375 
Q 5.609375 53.953125 15.125 64.078125 
Q 24.65625 74.21875 41.21875 74.21875 
Q 47.75 74.21875 53.53125 72.484375 
Q 59.328125 70.75 64.40625 67.28125 
z
" id="DejaVuSans-43"/>
     <path d="M 54.890625 33.015625 
L 54.890625 0 
L 45.90625 0 
L 45.90625 32.71875 
Q 45.90625 40.484375 42.875 44.328125 
Q 39.84375 48.1875 33.796875 48.1875 
Q 26.515625 48.1875 22.3125 43.546875 
Q 18.109375 38.921875 18.109375 30.90625 
L 18.109375 0 
L 9.078125 0 
L 9.078125 75.984375 
L 18.109375 75.984375 
L 18.109375 46.1875 
Q 21.34375 51.125 25.703125 53.5625 
Q 30.078125 56 35.796875 56 
Q 45.21875 56 50.046875 50.171875 
Q 54.890625 44.34375 54.890625 33.015625 
z
" id="DejaVuSans-68"/>
     <path d="M 54.890625 33.015625 
L 54.890625 0 
L 45.90625 0 
L 45.90625 32.71875 
Q 45.90625 40.484375 42.875 44.328125 
Q 39.84375 48.1875 33.796875 48.1875 
Q 26.515625 48.1875 22.3125 43.546875 
Q 18.109375 38.921875 18.109375 30.90625 
L 18.109375 0 
L 9.078125 0 
L 9.078125 54.6875 
L 18.109375 54.6875 
L 18.109375 46.1875 
Q 21.34375 51.125 25.703125 53.5625 
Q 30.078125 56 35.796875 56 
Q 45.21875 56 50.046875 50.171875 
Q 54.890625 44.34375 54.890625 33.015625 
z
" id="DejaVuSans-6e"/>
     <path d="M 4.890625 31.390625 
L 31.203125 31.390625 
L 31.203125 23.390625 
L 4.890625 23.390625 
z
" id="DejaVuSans-2d"/>
     <path d="M 8.6875 72.90625 
L 18.609375 72.90625 
L 18.609375 28.609375 
Q 18.609375 16.890625 22.84375 11.734375 
Q 27.09375 6.59375 36.625 6.59375 
Q 46.09375 6.59375 50.34375 11.734375 
Q 54.59375 16.890625 54.59375 28.609375 
L 54.59375 72.90625 
L 64.5 72.90625 
L 64.5 27.390625 
Q 64.5 13.140625 57.4375 5.859375 
Q 50.390625 -1.421875 36.625 -1.421875 
Q 22.796875 -1.421875 15.734375 5.859375 
Q 8.6875 13.140625 8.6875 27.390625 
z
" id="DejaVuSans-55"/>
    </defs>
    <g transform="translate(178.069687 35.472)scale(0.12 -0.12)">
     <use xlink:href="#DejaVuSans-43"/>
     <use x="69.824219" xlink:href="#DejaVuSans-68"/>
     <use x="133.203125" xlink:href="#DejaVuSans-61"/>
     <use x="194.482422" xlink:href="#DejaVuSans-6e"/>
     <use x="257.861328" xlink:href="#DejaVuSans-6e"/>
     <use x="321.240234" xlink:href="#DejaVuSans-65"/>
     <use x="382.763672" xlink:href="#DejaVuSans-6c"/>
     <use x="410.546875" xlink:href="#DejaVuSans-20"/>
     <use x="442.333984" xlink:href="#DejaVuSans-31"/>
     <use x="505.957031" xlink:href="#DejaVuSans-30"/>
     <use x="569.580078" xlink:href="#DejaVuSans-20"/>
     <use x="601.367188" xlink:href="#DejaVuSans-2d"/>
     <use x="637.451172" xlink:href="#DejaVuSans-20"/>
     <use x="669.238281" xlink:href="#DejaVuSans-55"/>
     <use x="742.431641" xlink:href="#DejaVuSans-6e"/>
     <use x="805.810547" xlink:href="#DejaVuSans-69"/>
     <use x="833.59375" xlink:href="#DejaVuSans-74"/>
     <use x="872.802734" xlink:href="#DejaVuSans-20"/>
     <use x="904.589844" xlink:href="#DejaVuSans-31"/>
    </g>
   </g>
  </g>
 </g>
 <defs>
  <clipPath id="padc2ed89cc">
   <rect height="266.112" width="357.12" x="57.6" y="41.472"/>
  </clipPath>
 </defs>
</svg>
