<?xml version="1.0" encoding="utf-8" standalone="no"?>
<!DOCTYPE svg PUBLIC "-//W3C//DTD SVG 1.1//EN"
  "http://www.w3.org/Graphics/SVG/1.1/DTD/svg11.dtd">
<!-- Created with matplotlib (http://matplotlib.org/) -->
<svg height="345pt" version="1.1" viewBox="0 0 460 345" width="460pt" xmlns="http://www.w3.org/2000/svg" xmlns:xlink="http://www.w3.org/1999/xlink">
 <defs>
  <style type="text/css">
*{stroke-linecap:butt;stroke-linejoin:round;}
  </style>
 </defs>
 <g id="figure_1">
  <g id="patch_1">
   <path d="M 0 345.6 
L 460.8 345.6 
L 460.8 0 
L 0 0 
z
" style="fill:#ffffff;"/>
  </g>
  <g id="axes_1">
   <g id="patch_2">
    <path d="M 57.6 307.584 
L 414.72 307.584 
L 414.72 41.472 
L 57.6 41.472 
z
" style="fill:#ffffff;"/>
   </g>
   <g id="PolyCollection_1">
    <defs>
     <path d="M 73.832727 -228.024375 
L 73.832727 -187.545097 
L 84.305455 -190.074725 
L 94.778182 -193.023199 
L 105.250909 -197.019735 
L 115.723636 -196.533091 
L 126.196364 -184.760962 
L 136.669091 -160.654608 
L 147.141818 -125.783937 
L 157.614545 -84.967241 
L 168.087273 -52.868321 
L 178.56 -43.38905 
L 189.032727 -54.301573 
L 199.505455 -74.369479 
L 209.978182 -96.465503 
L 220.450909 -119.959358 
L 230.923636 -145.142912 
L 241.396364 -170.176407 
L 251.869091 -192.96701 
L 262.341818 -211.542815 
L 272.814545 -225.854802 
L 283.287273 -238.083115 
L 293.76 -248.497015 
L 304.232727 -256.329578 
L 314.705455 -262.761157 
L 325.178182 -269.320919 
L 335.650909 -275.659043 
L 346.123636 -279.410506 
L 356.596364 -279.533233 
L 367.069091 -278.009542 
L 377.541818 -277.922947 
L 388.014545 -278.358304 
L 398.487273 -276.786745 
L 398.487273 -318.354584 
L 398.487273 -318.354584 
L 388.014545 -318.579167 
L 377.541818 -318.212625 
L 367.069091 -319.193816 
L 356.596364 -320.299281 
L 346.123636 -320.410694 
L 335.650909 -318.316914 
L 325.178182 -313.07911 
L 314.705455 -304.750686 
L 304.232727 -294.944851 
L 293.76 -285.227542 
L 283.287273 -275.803257 
L 272.814545 -264.649183 
L 262.341818 -250.191771 
L 251.869091 -233.100705 
L 241.396364 -212.824893 
L 230.923636 -189.607202 
L 220.450909 -165.719285 
L 209.978182 -141.321182 
L 199.505455 -116.03015 
L 189.032727 -93.298941 
L 178.56 -80.735736 
L 168.087273 -85.796736 
L 157.614545 -112.037102 
L 147.141818 -155.762163 
L 136.669091 -200.699635 
L 126.196364 -228.498981 
L 115.723636 -236.679595 
L 105.250909 -235.169008 
L 94.778182 -231.565173 
L 84.305455 -228.603347 
L 73.832727 -228.024375 
z
" id="m238ce92993"/>
    </defs>
    <g clip-path="url(#pa3dda9a685)">
     <use style="fill-opacity:0.5;" x="0" xlink:href="#m238ce92993" y="345.6"/>
    </g>
   </g>
   <g id="matplotlib.axis_1">
    <g id="xtick_1">
     <g id="line2d_1">
      <defs>
       <path d="M 0 0 
L 0 3.5 
" id="m2c6ac30b01" style="stroke:#000000;stroke-width:0.8;"/>
      </defs>
      <g>
       <use style="stroke:#000000;stroke-width:0.8;" x="73.832727" xlink:href="#m2c6ac30b01" y="307.584"/>
      </g>
     </g>
     <g id="text_1">
      <!-- 0.0000 -->
      <defs>
       <path d="M 31.78125 66.40625 
Q 24.171875 66.40625 20.328125 58.90625 
Q 16.5 51.421875 16.5 36.375 
Q 16.5 21.390625 20.328125 13.890625 
Q 24.171875 6.390625 31.78125 6.390625 
Q 39.453125 6.390625 43.28125 13.890625 
Q 47.125 21.390625 47.125 36.375 
Q 47.125 51.421875 43.28125 58.90625 
Q 39.453125 66.40625 31.78125 66.40625 
z
M 31.78125 74.21875 
Q 44.046875 74.21875 50.515625 64.515625 
Q 56.984375 54.828125 56.984375 36.375 
Q 56.984375 17.96875 50.515625 8.265625 
Q 44.046875 -1.421875 31.78125 -1.421875 
Q 19.53125 -1.421875 13.0625 8.265625 
Q 6.59375 17.96875 6.59375 36.375 
Q 6.59375 54.828125 13.0625 64.515625 
Q 19.53125 74.21875 31.78125 74.21875 
z
" id="DejaVuSans-30"/>
       <path d="M 10.6875 12.40625 
L 21 12.40625 
L 21 0 
L 10.6875 0 
z
" id="DejaVuSans-2e"/>
      </defs>
      <g transform="translate(56.337415 322.182437)scale(0.1 -0.1)">
       <use xlink:href="#DejaVuSans-30"/>
       <use x="63.623047" xlink:href="#DejaVuSans-2e"/>
       <use x="95.410156" xlink:href="#DejaVuSans-30"/>
       <use x="159.033203" xlink:href="#DejaVuSans-30"/>
       <use x="222.65625" xlink:href="#DejaVuSans-30"/>
       <use x="286.279297" xlink:href="#DejaVuSans-30"/>
      </g>
     </g>
    </g>
    <g id="xtick_2">
     <g id="line2d_2">
      <g>
       <use style="stroke:#000000;stroke-width:0.8;" x="115.723636" xlink:href="#m2c6ac30b01" y="307.584"/>
      </g>
     </g>
     <g id="text_2">
      <!-- 0.0001 -->
      <defs>
       <path d="M 12.40625 8.296875 
L 28.515625 8.296875 
L 28.515625 63.921875 
L 10.984375 60.40625 
L 10.984375 69.390625 
L 28.421875 72.90625 
L 38.28125 72.90625 
L 38.28125 8.296875 
L 54.390625 8.296875 
L 54.390625 0 
L 12.40625 0 
z
" id="DejaVuSans-31"/>
      </defs>
      <g transform="translate(98.228324 322.182437)scale(0.1 -0.1)">
       <use xlink:href="#DejaVuSans-30"/>
       <use x="63.623047" xlink:href="#DejaVuSans-2e"/>
       <use x="95.410156" xlink:href="#DejaVuSans-30"/>
       <use x="159.033203" xlink:href="#DejaVuSans-30"/>
       <use x="222.65625" xlink:href="#DejaVuSans-30"/>
       <use x="286.279297" xlink:href="#DejaVuSans-31"/>
      </g>
     </g>
    </g>
    <g id="xtick_3">
     <g id="line2d_3">
      <g>
       <use style="stroke:#000000;stroke-width:0.8;" x="157.614545" xlink:href="#m2c6ac30b01" y="307.584"/>
      </g>
     </g>
     <g id="text_3">
      <!-- 0.0002 -->
      <defs>
       <path d="M 19.1875 8.296875 
L 53.609375 8.296875 
L 53.609375 0 
L 7.328125 0 
L 7.328125 8.296875 
Q 12.9375 14.109375 22.625 23.890625 
Q 32.328125 33.6875 34.8125 36.53125 
Q 39.546875 41.84375 41.421875 45.53125 
Q 43.3125 49.21875 43.3125 52.78125 
Q 43.3125 58.59375 39.234375 62.25 
Q 35.15625 65.921875 28.609375 65.921875 
Q 23.96875 65.921875 18.8125 64.3125 
Q 13.671875 62.703125 7.8125 59.421875 
L 7.8125 69.390625 
Q 13.765625 71.78125 18.9375 73 
Q 24.125 74.21875 28.421875 74.21875 
Q 39.75 74.21875 46.484375 68.546875 
Q 53.21875 62.890625 53.21875 53.421875 
Q 53.21875 48.921875 51.53125 44.890625 
Q 49.859375 40.875 45.40625 35.40625 
Q 44.1875 33.984375 37.640625 27.21875 
Q 31.109375 20.453125 19.1875 8.296875 
z
" id="DejaVuSans-32"/>
      </defs>
      <g transform="translate(140.119233 322.182437)scale(0.1 -0.1)">
       <use xlink:href="#DejaVuSans-30"/>
       <use x="63.623047" xlink:href="#DejaVuSans-2e"/>
       <use x="95.410156" xlink:href="#DejaVuSans-30"/>
       <use x="159.033203" xlink:href="#DejaVuSans-30"/>
       <use x="222.65625" xlink:href="#DejaVuSans-30"/>
       <use x="286.279297" xlink:href="#DejaVuSans-32"/>
      </g>
     </g>
    </g>
    <g id="xtick_4">
     <g id="line2d_4">
      <g>
       <use style="stroke:#000000;stroke-width:0.8;" x="199.505455" xlink:href="#m2c6ac30b01" y="307.584"/>
      </g>
     </g>
     <g id="text_4">
      <!-- 0.0003 -->
      <defs>
       <path d="M 40.578125 39.3125 
Q 47.65625 37.796875 51.625 33 
Q 55.609375 28.21875 55.609375 21.1875 
Q 55.609375 10.40625 48.1875 4.484375 
Q 40.765625 -1.421875 27.09375 -1.421875 
Q 22.515625 -1.421875 17.65625 -0.515625 
Q 12.796875 0.390625 7.625 2.203125 
L 7.625 11.71875 
Q 11.71875 9.328125 16.59375 8.109375 
Q 21.484375 6.890625 26.8125 6.890625 
Q 36.078125 6.890625 40.9375 10.546875 
Q 45.796875 14.203125 45.796875 21.1875 
Q 45.796875 27.640625 41.28125 31.265625 
Q 36.765625 34.90625 28.71875 34.90625 
L 20.21875 34.90625 
L 20.21875 43.015625 
L 29.109375 43.015625 
Q 36.375 43.015625 40.234375 45.921875 
Q 44.09375 48.828125 44.09375 54.296875 
Q 44.09375 59.90625 40.109375 62.90625 
Q 36.140625 65.921875 28.71875 65.921875 
Q 24.65625 65.921875 20.015625 65.03125 
Q 15.375 64.15625 9.8125 62.3125 
L 9.8125 71.09375 
Q 15.4375 72.65625 20.34375 73.4375 
Q 25.25 74.21875 29.59375 74.21875 
Q 40.828125 74.21875 47.359375 69.109375 
Q 53.90625 64.015625 53.90625 55.328125 
Q 53.90625 49.265625 50.4375 45.09375 
Q 46.96875 40.921875 40.578125 39.3125 
z
" id="DejaVuSans-33"/>
      </defs>
      <g transform="translate(182.010142 322.182437)scale(0.1 -0.1)">
       <use xlink:href="#DejaVuSans-30"/>
       <use x="63.623047" xlink:href="#DejaVuSans-2e"/>
       <use x="95.410156" xlink:href="#DejaVuSans-30"/>
       <use x="159.033203" xlink:href="#DejaVuSans-30"/>
       <use x="222.65625" xlink:href="#DejaVuSans-30"/>
       <use x="286.279297" xlink:href="#DejaVuSans-33"/>
      </g>
     </g>
    </g>
    <g id="xtick_5">
     <g id="line2d_5">
      <g>
       <use style="stroke:#000000;stroke-width:0.8;" x="241.396364" xlink:href="#m2c6ac30b01" y="307.584"/>
      </g>
     </g>
     <g id="text_5">
      <!-- 0.0004 -->
      <defs>
       <path d="M 37.796875 64.3125 
L 12.890625 25.390625 
L 37.796875 25.390625 
z
M 35.203125 72.90625 
L 47.609375 72.90625 
L 47.609375 25.390625 
L 58.015625 25.390625 
L 58.015625 17.1875 
L 47.609375 17.1875 
L 47.609375 0 
L 37.796875 0 
L 37.796875 17.1875 
L 4.890625 17.1875 
L 4.890625 26.703125 
z
" id="DejaVuSans-34"/>
      </defs>
      <g transform="translate(223.901051 322.182437)scale(0.1 -0.1)">
       <use xlink:href="#DejaVuSans-30"/>
       <use x="63.623047" xlink:href="#DejaVuSans-2e"/>
       <use x="95.410156" xlink:href="#DejaVuSans-30"/>
       <use x="159.033203" xlink:href="#DejaVuSans-30"/>
       <use x="222.65625" xlink:href="#DejaVuSans-30"/>
       <use x="286.279297" xlink:href="#DejaVuSans-34"/>
      </g>
     </g>
    </g>
    <g id="xtick_6">
     <g id="line2d_6">
      <g>
       <use style="stroke:#000000;stroke-width:0.8;" x="283.287273" xlink:href="#m2c6ac30b01" y="307.584"/>
      </g>
     </g>
     <g id="text_6">
      <!-- 0.0005 -->
      <defs>
       <path d="M 10.796875 72.90625 
L 49.515625 72.90625 
L 49.515625 64.59375 
L 19.828125 64.59375 
L 19.828125 46.734375 
Q 21.96875 47.46875 24.109375 47.828125 
Q 26.265625 48.1875 28.421875 48.1875 
Q 40.625 48.1875 47.75 41.5 
Q 54.890625 34.8125 54.890625 23.390625 
Q 54.890625 11.625 47.5625 5.09375 
Q 40.234375 -1.421875 26.90625 -1.421875 
Q 22.3125 -1.421875 17.546875 -0.640625 
Q 12.796875 0.140625 7.71875 1.703125 
L 7.71875 11.625 
Q 12.109375 9.234375 16.796875 8.0625 
Q 21.484375 6.890625 26.703125 6.890625 
Q 35.15625 6.890625 40.078125 11.328125 
Q 45.015625 15.765625 45.015625 23.390625 
Q 45.015625 31 40.078125 35.4375 
Q 35.15625 39.890625 26.703125 39.890625 
Q 22.75 39.890625 18.8125 39.015625 
Q 14.890625 38.140625 10.796875 36.28125 
z
" id="DejaVuSans-35"/>
      </defs>
      <g transform="translate(265.79196 322.182437)scale(0.1 -0.1)">
       <use xlink:href="#DejaVuSans-30"/>
       <use x="63.623047" xlink:href="#DejaVuSans-2e"/>
       <use x="95.410156" xlink:href="#DejaVuSans-30"/>
       <use x="159.033203" xlink:href="#DejaVuSans-30"/>
       <use x="222.65625" xlink:href="#DejaVuSans-30"/>
       <use x="286.279297" xlink:href="#DejaVuSans-35"/>
      </g>
     </g>
    </g>
    <g id="xtick_7">
     <g id="line2d_7">
      <g>
       <use style="stroke:#000000;stroke-width:0.8;" x="325.178182" xlink:href="#m2c6ac30b01" y="307.584"/>
      </g>
     </g>
     <g id="text_7">
      <!-- 0.0006 -->
      <defs>
       <path d="M 33.015625 40.375 
Q 26.375 40.375 22.484375 35.828125 
Q 18.609375 31.296875 18.609375 23.390625 
Q 18.609375 15.53125 22.484375 10.953125 
Q 26.375 6.390625 33.015625 6.390625 
Q 39.65625 6.390625 43.53125 10.953125 
Q 47.40625 15.53125 47.40625 23.390625 
Q 47.40625 31.296875 43.53125 35.828125 
Q 39.65625 40.375 33.015625 40.375 
z
M 52.59375 71.296875 
L 52.59375 62.3125 
Q 48.875 64.0625 45.09375 64.984375 
Q 41.3125 65.921875 37.59375 65.921875 
Q 27.828125 65.921875 22.671875 59.328125 
Q 17.53125 52.734375 16.796875 39.40625 
Q 19.671875 43.65625 24.015625 45.921875 
Q 28.375 48.1875 33.59375 48.1875 
Q 44.578125 48.1875 50.953125 41.515625 
Q 57.328125 34.859375 57.328125 23.390625 
Q 57.328125 12.15625 50.6875 5.359375 
Q 44.046875 -1.421875 33.015625 -1.421875 
Q 20.359375 -1.421875 13.671875 8.265625 
Q 6.984375 17.96875 6.984375 36.375 
Q 6.984375 53.65625 15.1875 63.9375 
Q 23.390625 74.21875 37.203125 74.21875 
Q 40.921875 74.21875 44.703125 73.484375 
Q 48.484375 72.75 52.59375 71.296875 
z
" id="DejaVuSans-36"/>
      </defs>
      <g transform="translate(307.682869 322.182437)scale(0.1 -0.1)">
       <use xlink:href="#DejaVuSans-30"/>
       <use x="63.623047" xlink:href="#DejaVuSans-2e"/>
       <use x="95.410156" xlink:href="#DejaVuSans-30"/>
       <use x="159.033203" xlink:href="#DejaVuSans-30"/>
       <use x="222.65625" xlink:href="#DejaVuSans-30"/>
       <use x="286.279297" xlink:href="#DejaVuSans-36"/>
      </g>
     </g>
    </g>
    <g id="xtick_8">
     <g id="line2d_8">
      <g>
       <use style="stroke:#000000;stroke-width:0.8;" x="367.069091" xlink:href="#m2c6ac30b01" y="307.584"/>
      </g>
     </g>
     <g id="text_8">
      <!-- 0.0007 -->
      <defs>
       <path d="M 8.203125 72.90625 
L 55.078125 72.90625 
L 55.078125 68.703125 
L 28.609375 0 
L 18.3125 0 
L 43.21875 64.59375 
L 8.203125 64.59375 
z
" id="DejaVuSans-37"/>
      </defs>
      <g transform="translate(349.573778 322.182437)scale(0.1 -0.1)">
       <use xlink:href="#DejaVuSans-30"/>
       <use x="63.623047" xlink:href="#DejaVuSans-2e"/>
       <use x="95.410156" xlink:href="#DejaVuSans-30"/>
       <use x="159.033203" xlink:href="#DejaVuSans-30"/>
       <use x="222.65625" xlink:href="#DejaVuSans-30"/>
       <use x="286.279297" xlink:href="#DejaVuSans-37"/>
      </g>
     </g>
    </g>
    <g id="xtick_9">
     <g id="line2d_9">
      <g>
       <use style="stroke:#000000;stroke-width:0.8;" x="408.96" xlink:href="#m2c6ac30b01" y="307.584"/>
      </g>
     </g>
     <g id="text_9">
      <!-- 0.0008 -->
      <defs>
       <path d="M 31.78125 34.625 
Q 24.75 34.625 20.71875 30.859375 
Q 16.703125 27.09375 16.703125 20.515625 
Q 16.703125 13.921875 20.71875 10.15625 
Q 24.75 6.390625 31.78125 6.390625 
Q 38.8125 6.390625 42.859375 10.171875 
Q 46.921875 13.96875 46.921875 20.515625 
Q 46.921875 27.09375 42.890625 30.859375 
Q 38.875 34.625 31.78125 34.625 
z
M 21.921875 38.8125 
Q 15.578125 40.375 12.03125 44.71875 
Q 8.5 49.078125 8.5 55.328125 
Q 8.5 64.0625 14.71875 69.140625 
Q 20.953125 74.21875 31.78125 74.21875 
Q 42.671875 74.21875 48.875 69.140625 
Q 55.078125 64.0625 55.078125 55.328125 
Q 55.078125 49.078125 51.53125 44.71875 
Q 48 40.375 41.703125 38.8125 
Q 48.828125 37.15625 52.796875 32.3125 
Q 56.78125 27.484375 56.78125 20.515625 
Q 56.78125 9.90625 50.3125 4.234375 
Q 43.84375 -1.421875 31.78125 -1.421875 
Q 19.734375 -1.421875 13.25 4.234375 
Q 6.78125 9.90625 6.78125 20.515625 
Q 6.78125 27.484375 10.78125 32.3125 
Q 14.796875 37.15625 21.921875 38.8125 
z
M 18.3125 54.390625 
Q 18.3125 48.734375 21.84375 45.5625 
Q 25.390625 42.390625 31.78125 42.390625 
Q 38.140625 42.390625 41.71875 45.5625 
Q 45.3125 48.734375 45.3125 54.390625 
Q 45.3125 60.0625 41.71875 63.234375 
Q 38.140625 66.40625 31.78125 66.40625 
Q 25.390625 66.40625 21.84375 63.234375 
Q 18.3125 60.0625 18.3125 54.390625 
z
" id="DejaVuSans-38"/>
      </defs>
      <g transform="translate(391.464687 322.182437)scale(0.1 -0.1)">
       <use xlink:href="#DejaVuSans-30"/>
       <use x="63.623047" xlink:href="#DejaVuSans-2e"/>
       <use x="95.410156" xlink:href="#DejaVuSans-30"/>
       <use x="159.033203" xlink:href="#DejaVuSans-30"/>
       <use x="222.65625" xlink:href="#DejaVuSans-30"/>
       <use x="286.279297" xlink:href="#DejaVuSans-38"/>
      </g>
     </g>
    </g>
    <g id="text_10">
     <!-- Time (s) -->
     <defs>
      <path d="M -0.296875 72.90625 
L 61.375 72.90625 
L 61.375 64.59375 
L 35.5 64.59375 
L 35.5 0 
L 25.59375 0 
L 25.59375 64.59375 
L -0.296875 64.59375 
z
" id="DejaVuSans-54"/>
      <path d="M 9.421875 54.6875 
L 18.40625 54.6875 
L 18.40625 0 
L 9.421875 0 
z
M 9.421875 75.984375 
L 18.40625 75.984375 
L 18.40625 64.59375 
L 9.421875 64.59375 
z
" id="DejaVuSans-69"/>
      <path d="M 52 44.1875 
Q 55.375 50.25 60.0625 53.125 
Q 64.75 56 71.09375 56 
Q 79.640625 56 84.28125 50.015625 
Q 88.921875 44.046875 88.921875 33.015625 
L 88.921875 0 
L 79.890625 0 
L 79.890625 32.71875 
Q 79.890625 40.578125 77.09375 44.375 
Q 74.3125 48.1875 68.609375 48.1875 
Q 61.625 48.1875 57.5625 43.546875 
Q 53.515625 38.921875 53.515625 30.90625 
L 53.515625 0 
L 44.484375 0 
L 44.484375 32.71875 
Q 44.484375 40.625 41.703125 44.40625 
Q 38.921875 48.1875 33.109375 48.1875 
Q 26.21875 48.1875 22.15625 43.53125 
Q 18.109375 38.875 18.109375 30.90625 
L 18.109375 0 
L 9.078125 0 
L 9.078125 54.6875 
L 18.109375 54.6875 
L 18.109375 46.1875 
Q 21.1875 51.21875 25.484375 53.609375 
Q 29.78125 56 35.6875 56 
Q 41.65625 56 45.828125 52.96875 
Q 50 49.953125 52 44.1875 
z
" id="DejaVuSans-6d"/>
      <path d="M 56.203125 29.59375 
L 56.203125 25.203125 
L 14.890625 25.203125 
Q 15.484375 15.921875 20.484375 11.0625 
Q 25.484375 6.203125 34.421875 6.203125 
Q 39.59375 6.203125 44.453125 7.46875 
Q 49.3125 8.734375 54.109375 11.28125 
L 54.109375 2.78125 
Q 49.265625 0.734375 44.1875 -0.34375 
Q 39.109375 -1.421875 33.890625 -1.421875 
Q 20.796875 -1.421875 13.15625 6.1875 
Q 5.515625 13.8125 5.515625 26.8125 
Q 5.515625 40.234375 12.765625 48.109375 
Q 20.015625 56 32.328125 56 
Q 43.359375 56 49.78125 48.890625 
Q 56.203125 41.796875 56.203125 29.59375 
z
M 47.21875 32.234375 
Q 47.125 39.59375 43.09375 43.984375 
Q 39.0625 48.390625 32.421875 48.390625 
Q 24.90625 48.390625 20.390625 44.140625 
Q 15.875 39.890625 15.1875 32.171875 
z
" id="DejaVuSans-65"/>
      <path id="DejaVuSans-20"/>
      <path d="M 31 75.875 
Q 24.46875 64.65625 21.28125 53.65625 
Q 18.109375 42.671875 18.109375 31.390625 
Q 18.109375 20.125 21.3125 9.0625 
Q 24.515625 -2 31 -13.1875 
L 23.1875 -13.1875 
Q 15.875 -1.703125 12.234375 9.375 
Q 8.59375 20.453125 8.59375 31.390625 
Q 8.59375 42.28125 12.203125 53.3125 
Q 15.828125 64.359375 23.1875 75.875 
z
" id="DejaVuSans-28"/>
      <path d="M 44.28125 53.078125 
L 44.28125 44.578125 
Q 40.484375 46.53125 36.375 47.5 
Q 32.28125 48.484375 27.875 48.484375 
Q 21.1875 48.484375 17.84375 46.4375 
Q 14.5 44.390625 14.5 40.28125 
Q 14.5 37.15625 16.890625 35.375 
Q 19.28125 33.59375 26.515625 31.984375 
L 29.59375 31.296875 
Q 39.15625 29.25 43.1875 25.515625 
Q 47.21875 21.78125 47.21875 15.09375 
Q 47.21875 7.46875 41.1875 3.015625 
Q 35.15625 -1.421875 24.609375 -1.421875 
Q 20.21875 -1.421875 15.453125 -0.5625 
Q 10.6875 0.296875 5.421875 2 
L 5.421875 11.28125 
Q 10.40625 8.6875 15.234375 7.390625 
Q 20.0625 6.109375 24.8125 6.109375 
Q 31.15625 6.109375 34.5625 8.28125 
Q 37.984375 10.453125 37.984375 14.40625 
Q 37.984375 18.0625 35.515625 20.015625 
Q 33.0625 21.96875 24.703125 23.78125 
L 21.578125 24.515625 
Q 13.234375 26.265625 9.515625 29.90625 
Q 5.8125 33.546875 5.8125 39.890625 
Q 5.8125 47.609375 11.28125 51.796875 
Q 16.75 56 26.8125 56 
Q 31.78125 56 36.171875 55.265625 
Q 40.578125 54.546875 44.28125 53.078125 
z
" id="DejaVuSans-73"/>
      <path d="M 8.015625 75.875 
L 15.828125 75.875 
Q 23.140625 64.359375 26.78125 53.3125 
Q 30.421875 42.28125 30.421875 31.390625 
Q 30.421875 20.453125 26.78125 9.375 
Q 23.140625 -1.703125 15.828125 -13.1875 
L 8.015625 -13.1875 
Q 14.5 -2 17.703125 9.0625 
Q 20.90625 20.125 20.90625 31.390625 
Q 20.90625 42.671875 17.703125 53.65625 
Q 14.5 64.65625 8.015625 75.875 
z
" id="DejaVuSans-29"/>
     </defs>
     <g transform="translate(215.677188 335.860562)scale(0.1 -0.1)">
      <use xlink:href="#DejaVuSans-54"/>
      <use x="61.037109" xlink:href="#DejaVuSans-69"/>
      <use x="88.820312" xlink:href="#DejaVuSans-6d"/>
      <use x="186.232422" xlink:href="#DejaVuSans-65"/>
      <use x="247.755859" xlink:href="#DejaVuSans-20"/>
      <use x="279.542969" xlink:href="#DejaVuSans-28"/>
      <use x="318.556641" xlink:href="#DejaVuSans-73"/>
      <use x="370.65625" xlink:href="#DejaVuSans-29"/>
     </g>
    </g>
   </g>
   <g id="matplotlib.axis_2">
    <g id="ytick_1">
     <g id="line2d_10">
      <defs>
       <path d="M 0 0 
L -3.5 0 
" id="m252f6d7358" style="stroke:#000000;stroke-width:0.8;"/>
      </defs>
      <g>
       <use style="stroke:#000000;stroke-width:0.8;" x="57.6" xlink:href="#m252f6d7358" y="307.584"/>
      </g>
     </g>
     <g id="text_11">
      <!-- −50 -->
      <defs>
       <path d="M 10.59375 35.5 
L 73.1875 35.5 
L 73.1875 27.203125 
L 10.59375 27.203125 
z
" id="DejaVuSans-2212"/>
      </defs>
      <g transform="translate(29.495313 311.383219)scale(0.1 -0.1)">
       <use xlink:href="#DejaVuSans-2212"/>
       <use x="83.789062" xlink:href="#DejaVuSans-35"/>
       <use x="147.412109" xlink:href="#DejaVuSans-30"/>
      </g>
     </g>
    </g>
    <g id="ytick_2">
     <g id="line2d_11">
      <g>
       <use style="stroke:#000000;stroke-width:0.8;" x="57.6" xlink:href="#m252f6d7358" y="274.32"/>
      </g>
     </g>
     <g id="text_12">
      <!-- −40 -->
      <g transform="translate(29.495313 278.119219)scale(0.1 -0.1)">
       <use xlink:href="#DejaVuSans-2212"/>
       <use x="83.789062" xlink:href="#DejaVuSans-34"/>
       <use x="147.412109" xlink:href="#DejaVuSans-30"/>
      </g>
     </g>
    </g>
    <g id="ytick_3">
     <g id="line2d_12">
      <g>
       <use style="stroke:#000000;stroke-width:0.8;" x="57.6" xlink:href="#m252f6d7358" y="241.056"/>
      </g>
     </g>
     <g id="text_13">
      <!-- −30 -->
      <g transform="translate(29.495313 244.855219)scale(0.1 -0.1)">
       <use xlink:href="#DejaVuSans-2212"/>
       <use x="83.789062" xlink:href="#DejaVuSans-33"/>
       <use x="147.412109" xlink:href="#DejaVuSans-30"/>
      </g>
     </g>
    </g>
    <g id="ytick_4">
     <g id="line2d_13">
      <g>
       <use style="stroke:#000000;stroke-width:0.8;" x="57.6" xlink:href="#m252f6d7358" y="207.792"/>
      </g>
     </g>
     <g id="text_14">
      <!-- −20 -->
      <g transform="translate(29.495313 211.591219)scale(0.1 -0.1)">
       <use xlink:href="#DejaVuSans-2212"/>
       <use x="83.789062" xlink:href="#DejaVuSans-32"/>
       <use x="147.412109" xlink:href="#DejaVuSans-30"/>
      </g>
     </g>
    </g>
    <g id="ytick_5">
     <g id="line2d_14">
      <g>
       <use style="stroke:#000000;stroke-width:0.8;" x="57.6" xlink:href="#m252f6d7358" y="174.528"/>
      </g>
     </g>
     <g id="text_15">
      <!-- −10 -->
      <g transform="translate(29.495313 178.327219)scale(0.1 -0.1)">
       <use xlink:href="#DejaVuSans-2212"/>
       <use x="83.789062" xlink:href="#DejaVuSans-31"/>
       <use x="147.412109" xlink:href="#DejaVuSans-30"/>
      </g>
     </g>
    </g>
    <g id="ytick_6">
     <g id="line2d_15">
      <g>
       <use style="stroke:#000000;stroke-width:0.8;" x="57.6" xlink:href="#m252f6d7358" y="141.264"/>
      </g>
     </g>
     <g id="text_16">
      <!-- 0 -->
      <g transform="translate(44.2375 145.063219)scale(0.1 -0.1)">
       <use xlink:href="#DejaVuSans-30"/>
      </g>
     </g>
    </g>
    <g id="ytick_7">
     <g id="line2d_16">
      <g>
       <use style="stroke:#000000;stroke-width:0.8;" x="57.6" xlink:href="#m252f6d7358" y="108"/>
      </g>
     </g>
     <g id="text_17">
      <!-- 10 -->
      <g transform="translate(37.875 111.799219)scale(0.1 -0.1)">
       <use xlink:href="#DejaVuSans-31"/>
       <use x="63.623047" xlink:href="#DejaVuSans-30"/>
      </g>
     </g>
    </g>
    <g id="ytick_8">
     <g id="line2d_17">
      <g>
       <use style="stroke:#000000;stroke-width:0.8;" x="57.6" xlink:href="#m252f6d7358" y="74.736"/>
      </g>
     </g>
     <g id="text_18">
      <!-- 20 -->
      <g transform="translate(37.875 78.535219)scale(0.1 -0.1)">
       <use xlink:href="#DejaVuSans-32"/>
       <use x="63.623047" xlink:href="#DejaVuSans-30"/>
      </g>
     </g>
    </g>
    <g id="ytick_9">
     <g id="line2d_18">
      <g>
       <use style="stroke:#000000;stroke-width:0.8;" x="57.6" xlink:href="#m252f6d7358" y="41.472"/>
      </g>
     </g>
     <g id="text_19">
      <!-- 30 -->
      <g transform="translate(37.875 45.271219)scale(0.1 -0.1)">
       <use xlink:href="#DejaVuSans-33"/>
       <use x="63.623047" xlink:href="#DejaVuSans-30"/>
      </g>
     </g>
    </g>
    <g id="text_20">
     <!-- Voltage ($\mu$V) -->
     <defs>
      <path d="M 28.609375 0 
L 0.78125 72.90625 
L 11.078125 72.90625 
L 34.1875 11.53125 
L 57.328125 72.90625 
L 67.578125 72.90625 
L 39.796875 0 
z
" id="DejaVuSans-56"/>
      <path d="M 30.609375 48.390625 
Q 23.390625 48.390625 19.1875 42.75 
Q 14.984375 37.109375 14.984375 27.296875 
Q 14.984375 17.484375 19.15625 11.84375 
Q 23.34375 6.203125 30.609375 6.203125 
Q 37.796875 6.203125 41.984375 11.859375 
Q 46.1875 17.53125 46.1875 27.296875 
Q 46.1875 37.015625 41.984375 42.703125 
Q 37.796875 48.390625 30.609375 48.390625 
z
M 30.609375 56 
Q 42.328125 56 49.015625 48.375 
Q 55.71875 40.765625 55.71875 27.296875 
Q 55.71875 13.875 49.015625 6.21875 
Q 42.328125 -1.421875 30.609375 -1.421875 
Q 18.84375 -1.421875 12.171875 6.21875 
Q 5.515625 13.875 5.515625 27.296875 
Q 5.515625 40.765625 12.171875 48.375 
Q 18.84375 56 30.609375 56 
z
" id="DejaVuSans-6f"/>
      <path d="M 9.421875 75.984375 
L 18.40625 75.984375 
L 18.40625 0 
L 9.421875 0 
z
" id="DejaVuSans-6c"/>
      <path d="M 18.3125 70.21875 
L 18.3125 54.6875 
L 36.8125 54.6875 
L 36.8125 47.703125 
L 18.3125 47.703125 
L 18.3125 18.015625 
Q 18.3125 11.328125 20.140625 9.421875 
Q 21.96875 7.515625 27.59375 7.515625 
L 36.8125 7.515625 
L 36.8125 0 
L 27.59375 0 
Q 17.1875 0 13.234375 3.875 
Q 9.28125 7.765625 9.28125 18.015625 
L 9.28125 47.703125 
L 2.6875 47.703125 
L 2.6875 54.6875 
L 9.28125 54.6875 
L 9.28125 70.21875 
z
" id="DejaVuSans-74"/>
      <path d="M 34.28125 27.484375 
Q 23.390625 27.484375 19.1875 25 
Q 14.984375 22.515625 14.984375 16.5 
Q 14.984375 11.71875 18.140625 8.90625 
Q 21.296875 6.109375 26.703125 6.109375 
Q 34.1875 6.109375 38.703125 11.40625 
Q 43.21875 16.703125 43.21875 25.484375 
L 43.21875 27.484375 
z
M 52.203125 31.203125 
L 52.203125 0 
L 43.21875 0 
L 43.21875 8.296875 
Q 40.140625 3.328125 35.546875 0.953125 
Q 30.953125 -1.421875 24.3125 -1.421875 
Q 15.921875 -1.421875 10.953125 3.296875 
Q 6 8.015625 6 15.921875 
Q 6 25.140625 12.171875 29.828125 
Q 18.359375 34.515625 30.609375 34.515625 
L 43.21875 34.515625 
L 43.21875 35.40625 
Q 43.21875 41.609375 39.140625 45 
Q 35.0625 48.390625 27.6875 48.390625 
Q 23 48.390625 18.546875 47.265625 
Q 14.109375 46.140625 10.015625 43.890625 
L 10.015625 52.203125 
Q 14.9375 54.109375 19.578125 55.046875 
Q 24.21875 56 28.609375 56 
Q 40.484375 56 46.34375 49.84375 
Q 52.203125 43.703125 52.203125 31.203125 
z
" id="DejaVuSans-61"/>
      <path d="M 45.40625 27.984375 
Q 45.40625 37.75 41.375 43.109375 
Q 37.359375 48.484375 30.078125 48.484375 
Q 22.859375 48.484375 18.828125 43.109375 
Q 14.796875 37.75 14.796875 27.984375 
Q 14.796875 18.265625 18.828125 12.890625 
Q 22.859375 7.515625 30.078125 7.515625 
Q 37.359375 7.515625 41.375 12.890625 
Q 45.40625 18.265625 45.40625 27.984375 
z
M 54.390625 6.78125 
Q 54.390625 -7.171875 48.1875 -13.984375 
Q 42 -20.796875 29.203125 -20.796875 
Q 24.46875 -20.796875 20.265625 -20.09375 
Q 16.0625 -19.390625 12.109375 -17.921875 
L 12.109375 -9.1875 
Q 16.0625 -11.328125 19.921875 -12.34375 
Q 23.78125 -13.375 27.78125 -13.375 
Q 36.625 -13.375 41.015625 -8.765625 
Q 45.40625 -4.15625 45.40625 5.171875 
L 45.40625 9.625 
Q 42.625 4.78125 38.28125 2.390625 
Q 33.9375 0 27.875 0 
Q 17.828125 0 11.671875 7.65625 
Q 5.515625 15.328125 5.515625 27.984375 
Q 5.515625 40.671875 11.671875 48.328125 
Q 17.828125 56 27.875 56 
Q 33.9375 56 38.28125 53.609375 
Q 42.625 51.21875 45.40625 46.390625 
L 45.40625 54.6875 
L 54.390625 54.6875 
z
" id="DejaVuSans-67"/>
      <path d="M -1.3125 -20.796875 
L 13.375 54.6875 
L 22.40625 54.6875 
L 15.765625 20.65625 
Q 15.578125 19.625 15.421875 18.359375 
Q 15.28125 17.09375 15.28125 15.828125 
Q 15.28125 11.28125 18.140625 8.828125 
Q 21 6.390625 26.3125 6.390625 
Q 33.546875 6.390625 37.984375 10.484375 
Q 42.4375 14.59375 44 22.796875 
L 50.203125 54.6875 
L 59.1875 54.6875 
L 51.03125 12.640625 
Q 50.828125 11.71875 50.75 11.03125 
Q 50.6875 10.359375 50.6875 9.8125 
Q 50.6875 8.296875 51.296875 7.59375 
Q 51.90625 6.890625 53.21875 6.890625 
Q 53.71875 6.890625 54.5625 7.125 
Q 55.421875 7.375 56.984375 8.015625 
L 55.609375 0.78125 
Q 53.46875 -0.296875 51.515625 -0.859375 
Q 49.5625 -1.421875 47.703125 -1.421875 
Q 44.484375 -1.421875 42.65625 0.625 
Q 40.828125 2.6875 40.828125 6.296875 
Q 38.09375 2.390625 34.296875 0.484375 
Q 30.515625 -1.421875 25.390625 -1.421875 
Q 20.84375 -1.421875 17.453125 0.671875 
Q 14.0625 2.78125 12.984375 6.203125 
L 7.71875 -20.796875 
z
" id="DejaVuSans-Oblique-3bc"/>
     </defs>
     <g transform="translate(23.395312 205.778)rotate(-90)scale(0.1 -0.1)">
      <use transform="translate(0 0.015625)" xlink:href="#DejaVuSans-56"/>
      <use transform="translate(68.408203 0.015625)" xlink:href="#DejaVuSans-6f"/>
      <use transform="translate(129.589844 0.015625)" xlink:href="#DejaVuSans-6c"/>
      <use transform="translate(157.373047 0.015625)" xlink:href="#DejaVuSans-74"/>
      <use transform="translate(196.582031 0.015625)" xlink:href="#DejaVuSans-61"/>
      <use transform="translate(257.861328 0.015625)" xlink:href="#DejaVuSans-67"/>
      <use transform="translate(321.337891 0.015625)" xlink:href="#DejaVuSans-65"/>
      <use transform="translate(382.861328 0.015625)" xlink:href="#DejaVuSans-20"/>
      <use transform="translate(414.648438 0.015625)" xlink:href="#DejaVuSans-28"/>
      <use transform="translate(453.662109 0.015625)" xlink:href="#DejaVuSans-Oblique-3bc"/>
      <use transform="translate(517.285156 0.015625)" xlink:href="#DejaVuSans-56"/>
      <use transform="translate(585.693359 0.015625)" xlink:href="#DejaVuSans-29"/>
     </g>
    </g>
   </g>
   <g id="line2d_19">
    <path clip-path="url(#pa3dda9a685)" d="M 73.832727 137.815264 
L 84.305455 136.260964 
L 94.778182 133.305814 
L 105.250909 129.505629 
L 115.723636 128.993657 
L 126.196364 138.970029 
L 136.669091 164.922879 
L 147.141818 204.82695 
L 157.614545 247.097829 
L 168.087273 276.267471 
L 178.56 283.537607 
L 189.032727 271.799743 
L 199.505455 250.400186 
L 209.978182 226.706657 
L 220.450909 202.760679 
L 230.923636 178.224943 
L 241.396364 154.09935 
L 251.869091 132.566143 
L 262.341818 114.732707 
L 272.814545 100.348007 
L 283.287273 88.656814 
L 293.76 78.737721 
L 304.232727 69.962786 
L 314.705455 61.844079 
L 325.178182 54.399986 
L 335.650909 48.612021 
L 346.123636 45.6894 
L 356.596364 45.683743 
L 367.069091 46.998321 
L 377.541818 47.532214 
L 388.014545 47.131264 
L 398.487273 48.029336 
" style="fill:none;stroke:#000000;stroke-linecap:square;stroke-width:1.5;"/>
   </g>
   <g id="line2d_20">
    <path clip-path="url(#pa3dda9a685)" d="M 73.832727 139.91265 
L 84.305455 142.82325 
L 94.778182 147.60495 
L 105.250909 149.47605 
L 115.723636 146.98125 
L 126.196364 146.6694 
L 136.669091 159.66315 
L 147.141818 193.55085 
L 157.614545 239.28885 
L 168.087273 270.3699 
L 178.56 270.7857 
L 189.032727 251.0352 
L 199.505455 227.64645 
L 209.978182 206.3367 
L 220.450909 184.81905 
L 230.923636 165.48435 
L 241.396364 152.59455 
L 251.869091 146.14965 
L 262.341818 138.5613 
L 272.814545 123.07275 
L 283.287273 105.0894 
L 293.76 90.5364 
L 304.232727 76.29525 
L 314.705455 59.1435 
L 325.178182 47.60505 
L 335.650909 48.9564 
L 346.123636 53.946 
L 356.596364 50.93145 
L 367.069091 42.61545 
L 377.541818 44.48655 
L 388.014545 65.90025 
L 398.487273 100.7235 
" style="fill:none;stroke:#ff0000;stroke-linecap:square;stroke-width:1.5;"/>
   </g>
   <g id="line2d_21">
    <path clip-path="url(#pa3dda9a685)" d="M 73.832727 148.64445 
L 84.305455 152.80245 
L 94.778182 151.34715 
L 105.250909 139.49685 
L 115.723636 130.14135 
L 126.196364 137.20995 
L 136.669091 158.7276 
L 147.141818 191.26395 
L 157.614545 234.29925 
L 168.087273 275.3595 
L 178.56 293.96655 
L 189.032727 281.3886 
L 199.505455 251.34705 
L 209.978182 219.33045 
L 220.450909 190.64025 
L 230.923636 163.9251 
L 241.396364 139.185 
L 251.869091 121.20165 
L 262.341818 112.9896 
L 272.814545 108.93555 
L 283.287273 104.6736 
L 293.76 102.3867 
L 304.232727 101.65905 
L 314.705455 96.7734 
L 325.178182 84.5073 
L 335.650909 66.73185 
L 346.123636 47.709 
L 356.596364 33.9876 
L 367.069091 30.97305 
L 377.541818 38.66535 
L 388.014545 50.2038 
L 398.487273 57.8961 
" style="fill:none;stroke:#ff1e00;stroke-linecap:square;stroke-width:1.5;"/>
   </g>
   <g id="line2d_22">
    <path clip-path="url(#pa3dda9a685)" d="M 73.832727 181.28475 
L 84.305455 173.17665 
L 94.778182 159.5592 
L 105.250909 144.27855 
L 115.723636 129.51765 
L 126.196364 125.4636 
L 136.669091 146.77335 
L 147.141818 192.8232 
L 157.614545 243.23895 
L 168.087273 273.6963 
L 178.56 274.21605 
L 189.032727 256.4406 
L 199.505455 237.20985 
L 209.978182 220.99365 
L 220.450909 203.53005 
L 230.923636 184.40325 
L 241.396364 169.9542 
L 251.869091 160.49475 
L 262.341818 148.1247 
L 272.814545 128.06235 
L 283.287273 108.31185 
L 293.76 99.78795 
L 304.232727 101.45115 
L 314.705455 101.03535 
L 325.178182 90.5364 
L 335.650909 75.7755 
L 346.123636 66.10815 
L 356.596364 66.52395 
L 367.069091 75.04785 
L 377.541818 83.98755 
L 388.014545 89.0811 
L 398.487273 91.05615 
" style="fill:none;stroke:#ff3b00;stroke-linecap:square;stroke-width:1.5;"/>
   </g>
   <g id="line2d_23">
    <path clip-path="url(#pa3dda9a685)" d="M 73.832727 121.3056 
L 84.305455 117.9792 
L 94.778182 117.9792 
L 105.250909 126.9189 
L 115.723636 146.35755 
L 126.196364 171.2016 
L 136.669091 195.318 
L 147.141818 220.4739 
L 157.614545 253.01025 
L 168.087273 284.40315 
L 178.56 295.5258 
L 189.032727 276.399 
L 199.505455 238.45725 
L 209.978182 206.3367 
L 220.450909 187.2099 
L 230.923636 168.291 
L 241.396364 141.16005 
L 251.869091 113.71725 
L 262.341818 97.50105 
L 272.814545 95.83785 
L 283.287273 104.56965 
L 293.76 113.71725 
L 304.232727 111.43035 
L 314.705455 96.9813 
L 325.178182 84.5073 
L 335.650909 80.03745 
L 346.123636 73.59255 
L 356.596364 60.49485 
L 367.069091 47.81295 
L 377.541818 39.6009 
L 388.014545 34.8192 
L 398.487273 33.05205 
" style="fill:none;stroke:#ff5900;stroke-linecap:square;stroke-width:1.5;"/>
   </g>
   <g id="line2d_24">
    <path clip-path="url(#pa3dda9a685)" d="M 73.832727 135.13095 
L 84.305455 146.6694 
L 94.778182 146.8773 
L 105.250909 123.28065 
L 115.723636 99.99585 
L 126.196364 105.40125 
L 136.669091 142.5114 
L 147.141818 193.0311 
L 157.614545 238.3533 
L 168.087273 267.77115 
L 178.56 276.29505 
L 189.032727 270.88965 
L 199.505455 263.61315 
L 209.978182 250.72335 
L 220.450909 224.0082 
L 230.923636 190.22445 
L 241.396364 158.41575 
L 251.869091 129.6216 
L 262.341818 104.77755 
L 272.814545 90.1206 
L 283.287273 88.4574 
L 293.76 91.5759 
L 304.232727 86.1705 
L 314.705455 71.92935 
L 325.178182 58.62375 
L 335.650909 51.34725 
L 346.123636 52.59465 
L 356.596364 59.1435 
L 367.069091 61.2225 
L 377.541818 58.3119 
L 388.014545 61.11855 
L 398.487273 73.6965 
" style="fill:none;stroke:#ff7600;stroke-linecap:square;stroke-width:1.5;"/>
   </g>
   <g id="line2d_25">
    <path clip-path="url(#pa3dda9a685)" d="M 73.832727 158.1039 
L 84.305455 152.6985 
L 94.778182 141.0561 
L 105.250909 127.1268 
L 115.723636 123.07275 
L 126.196364 137.62575 
L 136.669091 166.73175 
L 147.141818 204.2577 
L 157.614545 247.5009 
L 168.087273 285.3387 
L 178.56 298.12455 
L 189.032727 276.50295 
L 199.505455 235.6506 
L 209.978182 199.78785 
L 220.450909 176.50305 
L 230.923636 159.24735 
L 241.396364 140.6403 
L 251.869091 114.4449 
L 262.341818 84.61125 
L 272.814545 66.93975 
L 283.287273 68.0832 
L 293.76 76.6071 
L 304.232727 77.2308 
L 314.705455 67.0437 
L 325.178182 53.1144 
L 335.650909 41.6799 
L 346.123636 35.13105 
L 356.596364 34.09155 
L 367.069091 38.04165 
L 377.541818 44.5905 
L 388.014545 47.60505 
L 398.487273 44.48655 
" style="fill:none;stroke:#ff9400;stroke-linecap:square;stroke-width:1.5;"/>
   </g>
   <g id="line2d_26">
    <path clip-path="url(#pa3dda9a685)" d="M 73.832727 124.4241 
L 84.305455 124.8399 
L 94.778182 135.8586 
L 105.250909 148.7484 
L 115.723636 160.8066 
L 126.196364 175.1517 
L 136.669091 193.75875 
L 147.141818 215.38035 
L 157.614545 236.37825 
L 168.087273 257.16825 
L 178.56 279.7254 
L 189.032727 297.70875 
L 199.505455 300.82725 
L 209.978182 284.2992 
L 220.450909 251.13915 
L 230.923636 209.0394 
L 241.396364 166.93965 
L 251.869091 133.05195 
L 262.341818 112.05405 
L 272.814545 103.0104 
L 283.287273 97.29315 
L 293.76 81.90855 
L 304.232727 55.1934 
L 314.705455 25.8795 
L 325.178182 3.94605 
L 330.479281 -1 
" style="fill:none;stroke:#ffb100;stroke-linecap:square;stroke-width:1.5;"/>
   </g>
   <g id="line2d_27">
    <path clip-path="url(#pa3dda9a685)" d="M 73.832727 153.42615 
L 84.305455 159.45525 
L 94.778182 163.82115 
L 105.250909 163.9251 
L 115.723636 165.3804 
L 126.196364 176.08725 
L 136.669091 197.50095 
L 147.141818 225.4635 
L 157.614545 251.55495 
L 168.087273 270.05805 
L 178.56 280.86885 
L 189.032727 282.73995 
L 199.505455 274.32 
L 209.978182 254.04975 
L 220.450909 225.98325 
L 230.923636 199.37205 
L 241.396364 177.75045 
L 251.869091 156.6486 
L 262.341818 130.14135 
L 272.814545 106.23285 
L 283.287273 96.25365 
L 293.76 94.0707 
L 304.232727 85.9626 
L 314.705455 66.6279 
L 325.178182 44.3826 
L 335.650909 35.0271 
L 346.123636 42.5115 
L 356.596364 53.3223 
L 367.069091 54.46575 
L 377.541818 43.551 
L 388.014545 25.56765 
L 398.487273 12.88575 
" style="fill:none;stroke:#ffcf00;stroke-linecap:square;stroke-width:1.5;"/>
   </g>
   <g id="line2d_28">
    <path clip-path="url(#pa3dda9a685)" d="M 73.832727 136.6902 
L 84.305455 117.66735 
L 94.778182 114.6528 
L 105.250909 135.13095 
L 115.723636 162.4698 
L 126.196364 182.2203 
L 136.669091 198.74835 
L 147.141818 221.40945 
L 157.614545 250.8273 
L 168.087273 277.95825 
L 178.56 290.43225 
L 189.032727 279.1017 
L 199.505455 246.77325 
L 209.978182 209.55915 
L 220.450909 181.1808 
L 230.923636 161.32635 
L 241.396364 141.78375 
L 251.869091 117.87525 
L 262.341818 92.92725 
L 272.814545 74.21625 
L 283.287273 61.2225 
L 293.76 47.81295 
L 304.232727 31.2849 
L 314.705455 16.3161 
L 325.178182 8.31195 
L 335.650909 5.7132 
L 346.123636 5.5053 
L 356.596364 10.80675 
L 367.069091 22.44915 
L 377.541818 32.42835 
L 388.014545 34.29945 
L 398.487273 27.9585 
" style="fill:none;stroke:#ffec00;stroke-linecap:square;stroke-width:1.5;"/>
   </g>
   <g id="line2d_29">
    <path clip-path="url(#pa3dda9a685)" d="M 73.832727 138.87315 
L 84.305455 147.60495 
L 94.778182 157.0644 
L 105.250909 163.7172 
L 115.723636 168.4989 
L 126.196364 176.29515 
L 136.669091 191.05605 
L 147.141818 212.7816 
L 157.614545 236.0664 
L 168.087273 251.13915 
L 178.56 254.67345 
L 189.032727 248.7483 
L 199.505455 234.6111 
L 209.978182 215.0685 
L 220.450909 193.6548 
L 230.923636 172.76085 
L 241.396364 153.42615 
L 251.869091 136.17045 
L 262.341818 118.08315 
L 272.814545 98.12475 
L 283.287273 77.4387 
L 293.76 58.104 
L 304.232727 43.44705 
L 314.705455 35.4429 
L 325.178182 34.09155 
L 335.650909 33.46785 
L 346.123636 26.39925 
L 356.596364 13.8213 
L 367.069091 7.06455 
L 377.541818 15.4845 
L 388.014545 34.71525 
L 398.487273 50.8275 
" style="fill:none;stroke:#eeff00;stroke-linecap:square;stroke-width:1.5;"/>
   </g>
   <g id="line2d_30">
    <path clip-path="url(#pa3dda9a685)" d="M 73.832727 112.158 
L 84.305455 108.4158 
L 94.778182 122.03325 
L 105.250909 148.64445 
L 115.723636 176.29515 
L 126.196364 197.91675 
L 136.669091 211.84605 
L 147.141818 222.9687 
L 157.614545 239.49675 
L 168.087273 259.87095 
L 178.56 269.01855 
L 189.032727 256.96035 
L 199.505455 234.819 
L 209.978182 218.29095 
L 220.450909 206.23275 
L 230.923636 184.923 
L 241.396364 152.6985 
L 251.869091 122.65695 
L 262.341818 102.69855 
L 272.814545 91.05615 
L 283.287273 83.4678 
L 293.76 74.736 
L 304.232727 60.183 
L 314.705455 44.07075 
L 325.178182 36.2745 
L 335.650909 38.24955 
L 346.123636 41.99175 
L 356.596364 42.40755 
L 367.069091 43.3431 
L 377.541818 50.2038 
L 388.014545 59.3514 
L 398.487273 62.78175 
" style="fill:none;stroke:#d1ff00;stroke-linecap:square;stroke-width:1.5;"/>
   </g>
   <g id="line2d_31">
    <path clip-path="url(#pa3dda9a685)" d="M 73.832727 136.0665 
L 84.305455 128.9979 
L 94.778182 120.57795 
L 105.250909 113.4054 
L 115.723636 111.63825 
L 126.196364 123.07275 
L 136.669091 153.738 
L 147.141818 200.0997 
L 157.614545 248.5404 
L 168.087273 284.9229 
L 178.56 301.24305 
L 189.032727 295.7337 
L 199.505455 270.68175 
L 209.978182 235.8585 
L 220.450909 206.3367 
L 230.923636 186.06645 
L 241.396364 168.4989 
L 251.869091 146.14965 
L 262.341818 120.0582 
L 272.814545 96.04575 
L 283.287273 77.54265 
L 293.76 63.3015 
L 304.232727 50.51565 
L 314.705455 40.74435 
L 325.178182 36.6903 
L 335.650909 38.5614 
L 346.123636 45.94185 
L 356.596364 55.1934 
L 367.069091 61.11855 
L 377.541818 55.4013 
L 388.014545 41.57595 
L 398.487273 36.6903 
" style="fill:none;stroke:#b3ff00;stroke-linecap:square;stroke-width:1.5;"/>
   </g>
   <g id="line2d_32">
    <path clip-path="url(#pa3dda9a685)" d="M 73.832727 123.8004 
L 84.305455 118.1871 
L 94.778182 120.16215 
L 105.250909 128.5821 
L 115.723636 139.70475 
L 126.196364 151.2432 
L 136.669091 169.7463 
L 147.141818 200.3076 
L 157.614545 237.9375 
L 168.087273 267.6672 
L 178.56 276.29505 
L 189.032727 265.69215 
L 199.505455 248.7483 
L 209.978182 235.0269 
L 220.450909 222.7608 
L 230.923636 203.2182 
L 241.396364 173.80035 
L 251.869091 142.9272 
L 262.341818 117.5634 
L 272.814545 97.605 
L 283.287273 82.11645 
L 293.76 70.47405 
L 304.232727 61.0146 
L 314.705455 51.97095 
L 325.178182 41.2641 
L 335.650909 24.32025 
L 346.123636 3.73815 
L 349.912191 -1 
M 370.725575 -1 
L 377.541818 9.35145 
L 388.014545 25.6716 
L 398.487273 31.18095 
" style="fill:none;stroke:#96ff00;stroke-linecap:square;stroke-width:1.5;"/>
   </g>
   <g id="line2d_33">
    <path clip-path="url(#pa3dda9a685)" d="M 73.832727 139.49685 
L 84.305455 145.422 
L 94.778182 141.4719 
L 105.250909 130.55715 
L 115.723636 125.4636 
L 126.196364 135.33885 
L 136.669091 161.11845 
L 147.141818 199.37205 
L 157.614545 242.40735 
L 168.087273 274.9437 
L 178.56 285.44265 
L 189.032727 271.51335 
L 199.505455 239.70465 
L 209.978182 204.15375 
L 220.450909 179.20575 
L 230.923636 171.09765 
L 241.396364 169.43445 
L 251.869091 154.1538 
L 262.341818 121.40955 
L 272.814545 93.8628 
L 283.287273 89.0811 
L 293.76 97.08525 
L 304.232727 101.763 
L 314.705455 99.0603 
L 325.178182 91.67985 
L 335.650909 81.07695 
L 346.123636 70.26615 
L 356.596364 63.61335 
L 367.069091 61.8462 
L 377.541818 59.66325 
L 388.014545 55.92105 
L 398.487273 58.7277 
" style="fill:none;stroke:#78ff00;stroke-linecap:square;stroke-width:1.5;"/>
   </g>
   <g id="line2d_34">
    <path clip-path="url(#pa3dda9a685)" d="M 73.832727 135.33885 
L 84.305455 123.07275 
L 94.778182 122.03325 
L 105.250909 132.1164 
L 115.723636 143.03115 
L 126.196364 151.97085 
L 136.669091 172.8648 
L 147.141818 216.7317 
L 157.614545 273.9042 
L 168.087273 322.03305 
L 178.56 338.9769 
L 189.032727 320.99355 
L 199.505455 286.5861 
L 209.978182 250.6194 
L 220.450909 212.46975 
L 230.923636 173.4885 
L 241.396364 141.99165 
L 251.869091 123.8004 
L 262.341818 111.01455 
L 272.814545 89.0811 
L 283.287273 63.3015 
L 293.76 49.26825 
L 304.232727 49.26825 
L 314.705455 55.1934 
L 325.178182 56.54475 
L 335.650909 52.2828 
L 346.123636 52.80255 
L 356.596364 63.61335 
L 367.069091 74.736 
L 377.541818 72.4491 
L 388.014545 56.2329 
L 398.487273 39.6009 
" style="fill:none;stroke:#5bff00;stroke-linecap:square;stroke-width:1.5;"/>
   </g>
   <g id="line2d_35">
    <path clip-path="url(#pa3dda9a685)" d="M 73.832727 124.0083 
L 84.305455 113.8212 
L 94.778182 109.8711 
L 105.250909 116.316 
L 115.723636 133.1559 
L 126.196364 158.41575 
L 136.669091 188.8731 
L 147.141818 221.7213 
L 157.614545 250.93125 
L 168.087273 266.52375 
L 178.56 265.1724 
L 189.032727 254.3616 
L 199.505455 242.40735 
L 209.978182 229.6215 
L 220.450909 207.48015 
L 230.923636 172.76085 
L 241.396364 136.6902 
L 251.869091 113.71725 
L 262.341818 106.3368 
L 272.814545 104.8815 
L 283.287273 100.20375 
L 293.76 90.3285 
L 304.232727 76.1913 
L 314.705455 63.5094 
L 325.178182 63.5094 
L 335.650909 77.4387 
L 346.123636 84.9231 
L 356.596364 66.73185 
L 367.069091 36.6903 
L 377.541818 26.919 
L 388.014545 43.86285 
L 398.487273 61.6383 
" style="fill:none;stroke:#3dff00;stroke-linecap:square;stroke-width:1.5;"/>
   </g>
   <g id="line2d_36">
    <path clip-path="url(#pa3dda9a685)" d="M 73.832727 127.7505 
L 84.305455 129.51765 
L 94.778182 136.17045 
L 105.250909 134.29935 
L 115.723636 124.0083 
L 126.196364 124.32015 
L 136.669091 154.04985 
L 147.141818 207.27225 
L 157.614545 258.83145 
L 168.087273 287.6256 
L 178.56 290.5362 
L 189.032727 278.2701 
L 199.505455 256.4406 
L 209.978182 221.7213 
L 220.450909 176.8149 
L 230.923636 134.8191 
L 241.396364 112.9896 
L 251.869091 113.8212 
L 262.341818 123.07275 
L 272.814545 124.8399 
L 283.287273 114.0291 
L 293.76 96.04575 
L 304.232727 78.79005 
L 314.705455 67.14765 
L 325.178182 64.44495 
L 335.650909 71.30565 
L 346.123636 82.11645 
L 356.596364 88.56135 
L 367.069091 86.5863 
L 377.541818 77.12685 
L 388.014545 68.0832 
L 398.487273 68.81085 
" style="fill:none;stroke:#20ff00;stroke-linecap:square;stroke-width:1.5;"/>
   </g>
   <g id="line2d_37">
    <path clip-path="url(#pa3dda9a685)" d="M 73.832727 139.8087 
L 84.305455 125.77545 
L 94.778182 111.43035 
L 105.250909 110.39085 
L 115.723636 124.11225 
L 126.196364 147.39705 
L 136.669091 177.12675 
L 147.141818 207.9999 
L 157.614545 233.46765 
L 168.087273 248.1246 
L 178.56 246.2535 
L 189.032727 230.14125 
L 199.505455 210.80655 
L 209.978182 197.08515 
L 220.450909 186.48225 
L 230.923636 171.72135 
L 241.396364 152.4906 
L 251.869091 131.38875 
L 262.341818 108.4158 
L 272.814545 86.7942 
L 283.287273 73.2807 
L 293.76 72.13725 
L 304.232727 81.3888 
L 314.705455 90.64035 
L 325.178182 86.89815 
L 335.650909 67.6674 
L 346.123636 42.3036 
L 356.596364 26.919 
L 367.069091 30.6612 
L 377.541818 46.14975 
L 388.014545 59.3514 
L 398.487273 63.5094 
" style="fill:none;stroke:#04ff08;stroke-linecap:square;stroke-width:1.5;"/>
   </g>
   <g id="line2d_38">
    <path clip-path="url(#pa3dda9a685)" d="M 73.832727 134.71515 
L 84.305455 121.5135 
L 94.778182 112.158 
L 105.250909 108.10395 
L 115.723636 110.39085 
L 126.196364 125.56755 
L 136.669091 160.70265 
L 147.141818 208.4157 
L 157.614545 244.7982 
L 168.087273 257.0643 
L 178.56 257.2722 
L 189.032727 261.0144 
L 199.505455 264.23685 
L 209.978182 253.21815 
L 220.450909 228.47805 
L 230.923636 204.6735 
L 241.396364 183.98745 
L 251.869091 156.12885 
L 262.341818 120.99375 
L 272.814545 90.1206 
L 283.287273 74.21625 
L 293.76 73.17675 
L 304.232727 76.3992 
L 314.705455 75.25575 
L 325.178182 71.8254 
L 335.650909 71.30565 
L 346.123636 72.34515 
L 356.596364 68.39505 
L 367.069091 58.20795 
L 377.541818 48.02085 
L 388.014545 44.48655 
L 398.487273 50.30775 
" style="fill:none;stroke:#00ff21;stroke-linecap:square;stroke-width:1.5;"/>
   </g>
   <g id="line2d_39">
    <path clip-path="url(#pa3dda9a685)" d="M 73.832727 135.6507 
L 84.305455 137.5218 
L 94.778182 141.16005 
L 105.250909 143.1351 
L 115.723636 147.60495 
L 126.196364 160.07895 
L 136.669091 183.6756 
L 147.141818 216.108 
L 157.614545 248.1246 
L 168.087273 268.4988 
L 178.56 271.09755 
L 189.032727 253.42605 
L 199.505455 220.36995 
L 209.978182 186.5862 
L 220.450909 165.48435 
L 230.923636 157.79205 
L 241.396364 150.72345 
L 251.869091 132.7401 
L 262.341818 106.9605 
L 272.814545 90.3285 
L 283.287273 91.1601 
L 293.76 97.91685 
L 304.232727 97.91685 
L 314.705455 88.0416 
L 325.178182 69.7464 
L 335.650909 49.9959 
L 346.123636 37.5219 
L 356.596364 36.17055 
L 367.069091 43.23915 
L 377.541818 51.867 
L 388.014545 56.4408 
L 398.487273 56.54475 
" style="fill:none;stroke:#00ff3f;stroke-linecap:square;stroke-width:1.5;"/>
   </g>
   <g id="line2d_40">
    <path clip-path="url(#pa3dda9a685)" d="M 73.832727 163.40535 
L 84.305455 148.1247 
L 94.778182 122.86485 
L 105.250909 118.08315 
L 115.723636 147.18915 
L 126.196364 187.72965 
L 136.669091 212.67765 
L 147.141818 224.6319 
L 157.614545 244.07055 
L 168.087273 274.42395 
L 178.56 295.42185 
L 189.032727 287.4177 
L 199.505455 250.4115 
L 209.978182 206.1288 
L 220.450909 173.9043 
L 230.923636 152.4906 
L 241.396364 133.67565 
L 251.869091 115.17255 
L 262.341818 101.03535 
L 272.814545 92.92725 
L 283.287273 84.7152 
L 293.76 71.4096 
L 304.232727 50.51565 
L 314.705455 26.5032 
L 325.178182 15.38055 
L 335.650909 24.6321 
L 346.123636 43.551 
L 356.596364 55.50525 
L 367.069091 50.72355 
L 377.541818 33.05205 
L 388.014545 20.8899 
L 398.487273 28.998 
" style="fill:none;stroke:#00ff5c;stroke-linecap:square;stroke-width:1.5;"/>
   </g>
   <g id="line2d_41">
    <path clip-path="url(#pa3dda9a685)" d="M 73.832727 156.4407 
L 84.305455 160.3908 
L 94.778182 158.20785 
L 105.250909 152.4906 
L 115.723636 151.34715 
L 126.196364 157.896 
L 136.669091 174.63195 
L 147.141818 201.86685 
L 157.614545 233.25975 
L 168.087273 257.0643 
L 178.56 262.6776 
L 189.032727 249.47595 
L 199.505455 229.4136 
L 209.978182 214.96455 
L 220.450909 204.56955 
L 230.923636 189.4968 
L 241.396364 168.4989 
L 251.869091 145.0062 
L 262.341818 123.69645 
L 272.814545 106.02495 
L 283.287273 87.0021 
L 293.76 66.2121 
L 304.232727 50.09985 
L 314.705455 42.40755 
L 325.178182 39.70485 
L 335.650909 37.00215 
L 346.123636 30.97305 
L 356.596364 24.52815 
L 367.069091 21.20175 
L 377.541818 22.5531 
L 388.014545 27.64665 
L 398.487273 33.67575 
" style="fill:none;stroke:#00ff7a;stroke-linecap:square;stroke-width:1.5;"/>
   </g>
   <g id="line2d_42">
    <path clip-path="url(#pa3dda9a685)" d="M 73.832727 112.88565 
L 84.305455 107.5842 
L 94.778182 107.89605 
L 105.250909 109.14345 
L 115.723636 114.13305 
L 126.196364 130.4532 
L 136.669091 161.2224 
L 147.141818 201.7629 
L 157.614545 236.0664 
L 168.087273 248.85225 
L 178.56 241.2639 
L 189.032727 224.52795 
L 199.505455 205.713 
L 209.978182 187.6257 
L 220.450909 172.6569 
L 230.923636 158.1039 
L 241.396364 142.5114 
L 251.869091 131.9085 
L 262.341818 125.2557 
L 272.814545 117.7713 
L 283.287273 110.7027 
L 293.76 98.0208 
L 304.232727 75.5676 
L 314.705455 55.4013 
L 325.178182 50.72355 
L 335.650909 59.03955 
L 346.123636 67.6674 
L 356.596364 67.35555 
L 367.069091 62.98965 
L 377.541818 63.7173 
L 388.014545 70.7859 
L 398.487273 79.3098 
" style="fill:none;stroke:#00ff97;stroke-linecap:square;stroke-width:1.5;"/>
   </g>
   <g id="line2d_43">
    <path clip-path="url(#pa3dda9a685)" d="M 73.832727 122.9688 
L 84.305455 126.81495 
L 94.778182 132.1164 
L 105.250909 133.1559 
L 115.723636 132.5322 
L 126.196364 134.71515 
L 136.669091 145.0062 
L 147.141818 176.50305 
L 157.614545 231.2847 
L 168.087273 287.6256 
L 178.56 315.2763 
L 189.032727 301.1391 
L 199.505455 259.66305 
L 209.978182 216.41985 
L 220.450909 191.9916 
L 230.923636 183.6756 
L 241.396364 173.80035 
L 251.869091 151.4511 
L 262.341818 122.553 
L 272.814545 102.3867 
L 283.287273 98.4366 
L 293.76 101.1393 
L 304.232727 98.12475 
L 314.705455 87.93765 
L 325.178182 73.80045 
L 335.650909 60.5988 
L 346.123636 58.41585 
L 356.596364 67.35555 
L 367.069091 73.17675 
L 377.541818 65.48445 
L 388.014545 51.34725 
L 398.487273 44.07075 
" style="fill:none;stroke:#00ffb5;stroke-linecap:square;stroke-width:1.5;"/>
   </g>
   <g id="line2d_44">
    <path clip-path="url(#pa3dda9a685)" d="M 73.832727 150.72345 
L 84.305455 148.02075 
L 94.778182 142.61535 
L 105.250909 133.7796 
L 115.723636 121.3056 
L 126.196364 114.34095 
L 136.669091 128.89395 
L 147.141818 175.46355 
L 157.614545 238.977 
L 168.087273 285.65055 
L 178.56 294.6942 
L 189.032727 274.83975 
L 199.505455 247.60485 
L 209.978182 226.19115 
L 220.450909 208.2078 
L 230.923636 184.19535 
L 241.396364 155.1933 
L 251.869091 127.85445 
L 262.341818 106.44075 
L 272.814545 92.92725 
L 283.287273 86.89815 
L 293.76 81.90855 
L 304.232727 72.4491 
L 314.705455 64.5489 
L 325.178182 64.7568 
L 335.650909 66.31605 
L 346.123636 57.6882 
L 356.596364 41.472 
L 367.069091 33.05205 
L 377.541818 35.6508 
L 388.014545 37.83375 
L 398.487273 36.4824 
" style="fill:none;stroke:#00ffd3;stroke-linecap:square;stroke-width:1.5;"/>
   </g>
   <g id="line2d_45">
    <path clip-path="url(#pa3dda9a685)" d="M 73.832727 145.2141 
L 84.305455 137.62575 
L 94.778182 116.7318 
L 105.250909 97.8129 
L 115.723636 95.1102 
L 126.196364 113.30145 
L 136.669091 151.2432 
L 147.141818 199.6839 
L 157.614545 241.6797 
L 168.087273 262.36575 
L 178.56 261.94995 
L 189.032727 250.30755 
L 199.505455 228.7899 
L 209.978182 196.46145 
L 220.450909 162.8856 
L 230.923636 140.4324 
L 241.396364 131.9085 
L 251.869091 130.34925 
L 262.341818 123.5925 
L 272.814545 104.77755 
L 283.287273 82.11645 
L 293.76 68.499 
L 304.232727 65.90025 
L 314.705455 66.8358 
L 325.178182 63.82125 
L 335.650909 55.29735 
L 346.123636 48.1248 
L 356.596364 46.77345 
L 367.069091 43.03125 
L 377.541818 33.25995 
L 388.014545 27.02295 
L 398.487273 32.01255 
" style="fill:none;stroke:#00fff6;stroke-linecap:square;stroke-width:1.5;"/>
   </g>
   <g id="line2d_46">
    <path clip-path="url(#pa3dda9a685)" d="M 73.832727 126.2952 
L 84.305455 126.711 
L 94.778182 127.23075 
L 105.250909 122.44905 
L 115.723636 116.1081 
L 126.196364 123.8004 
L 136.669091 162.6777 
L 147.141818 226.19115 
L 157.614545 284.0913 
L 168.087273 315.2763 
L 178.56 317.87505 
L 189.032727 298.6443 
L 199.505455 269.64225 
L 209.978182 241.15995 
L 220.450909 215.79615 
L 230.923636 190.22445 
L 241.396364 162.98955 
L 251.869091 137.7297 
L 262.341818 120.0582 
L 272.814545 112.158 
L 283.287273 104.56965 
L 293.76 90.22455 
L 304.232727 72.2412 
L 314.705455 55.4013 
L 325.178182 42.82335 
L 335.650909 39.49695 
L 346.123636 52.9065 
L 356.596364 81.70065 
L 367.069091 106.02495 
L 377.541818 102.8025 
L 388.014545 78.894 
L 398.487273 60.91065 
" style="fill:none;stroke:#00eaff;stroke-linecap:square;stroke-width:1.5;"/>
   </g>
   <g id="line2d_47">
    <path clip-path="url(#pa3dda9a685)" d="M 73.832727 137.20995 
L 84.305455 142.3035 
L 94.778182 137.5218 
L 105.250909 125.4636 
L 115.723636 119.95425 
L 126.196364 131.7006 
L 136.669091 158.7276 
L 147.141818 194.2785 
L 157.614545 232.1163 
L 168.087273 261.11835 
L 178.56 269.64225 
L 189.032727 257.79195 
L 199.505455 236.58615 
L 209.978182 213.92505 
L 220.450909 189.80865 
L 230.923636 164.44485 
L 241.396364 141.0561 
L 251.869091 124.52805 
L 262.341818 116.9397 
L 272.814545 112.67775 
L 283.287273 102.69855 
L 293.76 86.48235 
L 304.232727 70.26615 
L 314.705455 61.95015 
L 325.178182 64.1331 
L 335.650909 71.8254 
L 346.123636 77.4387 
L 356.596364 77.0229 
L 367.069091 72.76095 
L 377.541818 69.9543 
L 388.014545 70.26615 
L 398.487273 71.4096 
" style="fill:none;stroke:#00cdff;stroke-linecap:square;stroke-width:1.5;"/>
   </g>
   <g id="line2d_48">
    <path clip-path="url(#pa3dda9a685)" d="M 73.832727 130.4532 
L 84.305455 110.18295 
L 94.778182 102.90645 
L 105.250909 108.51975 
L 115.723636 120.6819 
L 126.196364 138.45735 
L 136.669091 167.77125 
L 147.141818 212.05395 
L 157.614545 263.0934 
L 168.087273 302.07465 
L 178.56 315.2763 
L 189.032727 303.52995 
L 199.505455 278.8938 
L 209.978182 254.04975 
L 220.450909 232.84395 
L 230.923636 213.4053 
L 241.396364 193.34295 
L 251.869091 169.85025 
L 262.341818 142.0956 
L 272.814545 113.4054 
L 283.287273 89.0811 
L 293.76 64.65285 
L 304.232727 36.79425 
L 314.705455 15.38055 
L 325.178182 11.1186 
L 335.650909 20.78595 
L 346.123636 32.7402 
L 356.596364 37.62585 
L 367.069091 36.0666 
L 377.541818 36.4824 
L 388.014545 42.61545 
L 398.487273 49.89195 
" style="fill:none;stroke:#00afff;stroke-linecap:square;stroke-width:1.5;"/>
   </g>
   <g id="line2d_49">
    <path clip-path="url(#pa3dda9a685)" d="M 73.832727 123.8004 
L 84.305455 128.1663 
L 94.778182 129.93345 
L 105.250909 131.18085 
L 115.723636 137.00205 
L 126.196364 150.72345 
L 136.669091 174.63195 
L 147.141818 209.55915 
L 157.614545 250.2036 
L 168.087273 283.4676 
L 178.56 300.5154 
L 189.032727 295.62975 
L 199.505455 267.2514 
L 209.978182 229.8294 
L 220.450909 201.3471 
L 230.923636 181.49265 
L 241.396364 160.07895 
L 251.869091 136.8981 
L 262.341818 117.25155 
L 272.814545 99.99585 
L 283.287273 82.2204 
L 293.76 68.18715 
L 304.232727 59.45535 
L 314.705455 51.2433 
L 325.178182 41.36805 
L 335.650909 33.67575 
L 346.123636 32.3244 
L 356.596364 35.6508 
L 367.069091 37.62585 
L 377.541818 34.6113 
L 388.014545 32.01255 
L 398.487273 37.1061 
" style="fill:none;stroke:#0092ff;stroke-linecap:square;stroke-width:1.5;"/>
   </g>
   <g id="line2d_50">
    <path clip-path="url(#pa3dda9a685)" d="M 73.832727 149.06025 
L 84.305455 140.95215 
L 94.778182 129.4137 
L 105.250909 118.08315 
L 115.723636 113.92515 
L 126.196364 129.72555 
L 136.669091 167.14755 
L 147.141818 213.8211 
L 157.614545 253.7379 
L 168.087273 275.04765 
L 178.56 274.1121 
L 189.032727 258.83145 
L 199.505455 241.78365 
L 209.978182 228.582 
L 220.450909 213.6132 
L 230.923636 190.9521 
L 241.396364 163.5093 
L 251.869091 138.5613 
L 262.341818 120.57795 
L 272.814545 108.2079 
L 283.287273 95.3181 
L 293.76 79.62165 
L 304.232727 66.73185 
L 314.705455 56.4408 
L 325.178182 46.14975 
L 335.650909 42.0957 
L 346.123636 45.63 
L 356.596364 45.94185 
L 367.069091 35.6508 
L 377.541818 22.86495 
L 388.014545 21.9294 
L 398.487273 35.75475 
" style="fill:none;stroke:#0074ff;stroke-linecap:square;stroke-width:1.5;"/>
   </g>
   <g id="line2d_51">
    <path clip-path="url(#pa3dda9a685)" d="M 73.832727 129.10185 
L 84.305455 126.19125 
L 94.778182 126.60705 
L 105.250909 135.33885 
L 115.723636 154.88145 
L 126.196364 177.0228 
L 136.669091 196.1496 
L 147.141818 218.8107 
L 157.614545 248.3325 
L 168.087273 274.63185 
L 178.56 285.85845 
L 189.032727 281.1807 
L 199.505455 266.004 
L 209.978182 240.74415 
L 220.450909 210.18285 
L 230.923636 185.44275 
L 241.396364 170.05815 
L 251.869091 159.5592 
L 262.341818 148.3326 
L 272.814545 131.9085 
L 283.287273 110.079 
L 293.76 84.19545 
L 304.232727 55.29735 
L 314.705455 30.0375 
L 325.178182 16.9398 
L 335.650909 16.62795 
L 346.123636 26.39925 
L 356.596364 40.4325 
L 367.069091 47.81295 
L 377.541818 44.7984 
L 388.014545 37.62585 
L 398.487273 32.01255 
" style="fill:none;stroke:#0057ff;stroke-linecap:square;stroke-width:1.5;"/>
   </g>
   <g id="line2d_52">
    <path clip-path="url(#pa3dda9a685)" d="M 73.832727 140.53635 
L 84.305455 146.35755 
L 94.778182 141.57585 
L 105.250909 125.35965 
L 115.723636 113.71725 
L 126.196364 123.48855 
L 136.669091 163.19745 
L 147.141818 227.1267 
L 157.614545 286.89795 
L 168.087273 309.0393 
L 178.56 287.72955 
L 189.032727 244.90215 
L 199.505455 208.93545 
L 209.978182 194.0706 
L 220.450909 185.23485 
L 230.923636 161.74215 
L 241.396364 127.02285 
L 251.869091 98.6445 
L 262.341818 84.0915 
L 272.814545 75.9834 
L 283.287273 62.6778 
L 293.76 40.4325 
L 304.232727 17.45955 
L 314.705455 5.5053 
L 325.178182 8.8317 
L 335.650909 21.3057 
L 346.123636 32.3244 
L 356.596364 35.54685 
L 367.069091 35.13105 
L 377.541818 40.12065 
L 388.014545 56.4408 
L 398.487273 78.58215 
" style="fill:none;stroke:#0039ff;stroke-linecap:square;stroke-width:1.5;"/>
   </g>
   <g id="line2d_53">
    <path clip-path="url(#pa3dda9a685)" d="M 73.832727 132.5322 
L 84.305455 134.50725 
L 94.778182 143.23905 
L 105.250909 149.9958 
L 115.723636 146.35755 
L 126.196364 143.9667 
L 136.669091 166.212 
L 147.141818 217.45935 
L 157.614545 272.76075 
L 168.087273 305.7129 
L 178.56 311.01435 
L 189.032727 299.4759 
L 199.505455 281.07675 
L 209.978182 258.83145 
L 220.450909 230.97285 
L 230.923636 195.7338 
L 241.396364 160.1829 
L 251.869091 136.37835 
L 262.341818 128.47815 
L 272.814545 126.19125 
L 283.287273 114.0291 
L 293.76 94.4865 
L 304.232727 86.06655 
L 314.705455 95.21415 
L 325.178182 105.5052 
L 335.650909 99.58005 
L 346.123636 83.6757 
L 356.596364 76.3992 
L 367.069091 80.1414 
L 377.541818 80.7651 
L 388.014545 69.1227 
L 398.487273 54.9855 
" style="fill:none;stroke:#001cff;stroke-linecap:square;stroke-width:1.5;"/>
   </g>
   <g id="line2d_54">
    <path clip-path="url(#pa3dda9a685)" d="M 73.832727 124.94385 
L 84.305455 132.22035 
L 94.778182 140.12055 
L 105.250909 141.36795 
L 115.723636 136.8981 
L 126.196364 138.24945 
L 136.669091 158.20785 
L 147.141818 198.54045 
L 157.614545 246.8772 
L 168.087273 283.4676 
L 178.56 295.9416 
L 189.032727 287.31375 
L 199.505455 267.8751 
L 209.978182 242.61525 
L 220.450909 213.09345 
L 230.923636 185.23485 
L 241.396364 167.35545 
L 251.869091 159.5592 
L 262.341818 148.22865 
L 272.814545 125.15175 
L 283.287273 98.6445 
L 293.76 79.20585 
L 304.232727 69.1227 
L 314.705455 63.19755 
L 325.178182 57.79215 
L 335.650909 54.04995 
L 346.123636 52.2828 
L 356.596364 53.5302 
L 367.069091 58.83165 
L 377.541818 62.57385 
L 388.014545 61.2225 
L 398.487273 60.8067 
" style="fill:none;stroke:#0800ff;stroke-linecap:square;stroke-width:1.5;"/>
   </g>
   <g id="line2d_55">
    <path clip-path="url(#pa3dda9a685)" d="M 73.832727 144.07065 
L 84.305455 139.3929 
L 94.778182 133.46775 
L 105.250909 129.30975 
L 115.723636 133.67565 
L 126.196364 153.1143 
L 136.669091 184.5072 
L 147.141818 216.9396 
L 157.614545 238.3533 
L 168.087273 245.11005 
L 178.56 248.64435 
L 189.032727 262.0539 
L 199.505455 279.5175 
L 209.978182 280.7649 
L 220.450909 250.6194 
L 230.923636 201.555 
L 241.396364 164.86065 
L 251.869091 156.54465 
L 262.341818 159.66315 
L 272.814545 147.9168 
L 283.287273 119.2266 
L 293.76 92.4075 
L 304.232727 81.5967 
L 314.705455 82.4283 
L 325.178182 80.5572 
L 335.650909 66.42 
L 346.123636 47.18925 
L 356.596364 38.1456 
L 367.069091 40.32855 
L 377.541818 43.7589 
L 388.014545 39.08115 
L 398.487273 24.52815 
" style="fill:none;stroke:#2500ff;stroke-linecap:square;stroke-width:1.5;"/>
   </g>
   <g id="line2d_56">
    <path clip-path="url(#pa3dda9a685)" d="M 73.832727 156.12885 
L 84.305455 146.14965 
L 94.778182 137.00205 
L 105.250909 131.18085 
L 115.723636 133.46775 
L 126.196364 148.43655 
L 136.669091 175.46355 
L 147.141818 210.18285 
L 157.614545 247.39695 
L 168.087273 281.07675 
L 178.56 302.8023 
L 189.032727 302.90625 
L 199.505455 281.28465 
L 209.978182 251.55495 
L 220.450909 225.2556 
L 230.923636 199.16415 
L 241.396364 166.73175 
L 251.869091 135.2349 
L 262.341818 119.6424 
L 272.814545 115.79625 
L 283.287273 105.7131 
L 293.76 85.85865 
L 304.232727 65.90025 
L 314.705455 49.89195 
L 325.178182 35.33895 
L 335.650909 24.73605 
L 346.123636 25.8795 
L 356.596364 34.6113 
L 367.069091 37.9377 
L 377.541818 33.46785 
L 388.014545 32.5323 
L 398.487273 41.472 
" style="fill:none;stroke:#4300ff;stroke-linecap:square;stroke-width:1.5;"/>
   </g>
   <g id="line2d_57">
    <path clip-path="url(#pa3dda9a685)" d="M 73.832727 184.40325 
L 84.305455 182.844 
L 94.778182 177.12675 
L 105.250909 161.6382 
L 115.723636 142.5114 
L 126.196364 141.0561 
L 136.669091 168.9147 
L 147.141818 216.41985 
L 157.614545 263.82105 
L 168.087273 296.1495 
L 178.56 308.4156 
L 189.032727 301.45095 
L 199.505455 275.7753 
L 209.978182 236.4822 
L 220.450909 194.2785 
L 230.923636 159.3513 
L 241.396364 135.33885 
L 251.869091 115.4844 
L 262.341818 91.47195 
L 272.814545 67.0437 
L 283.287273 50.93145 
L 293.76 44.1747 
L 304.232727 40.0167 
L 314.705455 31.7007 
L 325.178182 20.37015 
L 335.650909 11.84625 
L 346.123636 9.35145 
L 356.596364 12.88575 
L 367.069091 21.0978 
L 377.541818 32.9481 
L 388.014545 41.36805 
L 398.487273 40.2246 
" style="fill:none;stroke:#6000ff;stroke-linecap:square;stroke-width:1.5;"/>
   </g>
   <g id="line2d_58">
    <path clip-path="url(#pa3dda9a685)" d="M 73.832727 145.73385 
L 84.305455 135.54675 
L 94.778182 134.1954 
L 105.250909 140.12055 
L 115.723636 147.60495 
L 126.196364 156.0249 
L 136.669091 169.9542 
L 147.141818 199.0602 
L 157.614545 247.39695 
L 168.087273 297.91665 
L 178.56 321.9291 
L 189.032727 310.7025 
L 199.505455 279.1017 
L 209.978182 243.86265 
L 220.450909 213.6132 
L 230.923636 187.6257 
L 241.396364 160.91055 
L 251.869091 135.54675 
L 262.341818 116.1081 
L 272.814545 100.3077 
L 283.287273 82.94805 
L 293.76 66.31605 
L 304.232727 52.9065 
L 314.705455 45.73395 
L 325.178182 48.22875 
L 335.650909 57.58425 
L 346.123636 64.5489 
L 356.596364 64.5489 
L 367.069091 60.49485 
L 377.541818 54.5697 
L 388.014545 45.2142 
L 398.487273 33.25995 
" style="fill:none;stroke:#7e00ff;stroke-linecap:square;stroke-width:1.5;"/>
   </g>
   <g id="line2d_59">
    <path clip-path="url(#pa3dda9a685)" d="M 73.832727 138.5613 
L 84.305455 130.97295 
L 94.778182 127.64655 
L 105.250909 128.3742 
L 115.723636 126.81495 
L 126.196364 125.56755 
L 136.669091 139.08105 
L 147.141818 176.29515 
L 157.614545 228.06225 
L 168.087273 271.72125 
L 178.56 289.7046 
L 189.032727 281.1807 
L 199.505455 256.8564 
L 209.978182 228.1662 
L 220.450909 203.53005 
L 230.923636 184.923 
L 241.396364 168.7068 
L 251.869091 153.3222 
L 262.341818 140.0166 
L 272.814545 127.1268 
L 283.287273 113.6133 
L 293.76 104.36175 
L 304.232727 101.5551 
L 314.705455 96.9813 
L 325.178182 83.6757 
L 335.650909 68.7069 
L 346.123636 62.0541 
L 356.596364 58.62375 
L 367.069091 51.0354 
L 377.541818 43.7589 
L 388.014545 41.6799 
L 398.487273 44.48655 
" style="fill:none;stroke:#9b00ff;stroke-linecap:square;stroke-width:1.5;"/>
   </g>
   <g id="line2d_60">
    <path clip-path="url(#pa3dda9a685)" d="M 73.832727 117.7713 
L 84.305455 116.41995 
L 94.778182 114.34095 
L 105.250909 105.19335 
L 115.723636 100.9314 
L 126.196364 117.87525 
L 136.669091 162.57375 
L 147.141818 222.86475 
L 157.614545 270.47385 
L 168.087273 283.36365 
L 178.56 267.35535 
L 189.032727 243.135 
L 199.505455 219.4344 
L 209.978182 195.1101 
L 220.450909 172.55295 
L 230.923636 155.92095 
L 241.396364 142.5114 
L 251.869091 126.81495 
L 262.341818 108.72765 
L 272.814545 88.97715 
L 283.287273 66.8358 
L 293.76 46.98135 
L 304.232727 38.24955 
L 314.705455 41.6799 
L 325.178182 49.47615 
L 335.650909 61.32645 
L 346.123636 79.7256 
L 356.596364 93.447 
L 367.069091 90.01665 
L 377.541818 74.83995 
L 388.014545 62.98965 
L 398.487273 61.8462 
" style="fill:none;stroke:#b900ff;stroke-linecap:square;stroke-width:1.5;"/>
   </g>
   <g id="line2d_61">
    <path clip-path="url(#pa3dda9a685)" d="M 73.832727 116.00415 
L 84.305455 111.7422 
L 94.778182 114.4449 
L 105.250909 115.4844 
L 115.723636 113.71725 
L 126.196364 121.9293 
L 136.669091 152.0748 
L 147.141818 202.07475 
L 157.614545 256.0248 
L 168.087273 292.30335 
L 178.56 298.95615 
L 189.032727 279.7254 
L 199.505455 245.4219 
L 209.978182 206.5446 
L 220.450909 166.31595 
L 230.923636 126.2952 
L 241.396364 96.25365 
L 251.869091 85.02705 
L 262.341818 88.6653 
L 272.814545 93.2391 
L 283.287273 91.88775 
L 293.76 88.14555 
L 304.232727 82.74015 
L 314.705455 67.8753 
L 325.178182 45.63 
L 335.650909 32.63625 
L 346.123636 35.54685 
L 356.596364 40.95225 
L 367.069091 38.87325 
L 377.541818 35.13105 
L 388.014545 37.00215 
L 398.487273 43.3431 
" style="fill:none;stroke:#d600ff;stroke-linecap:square;stroke-width:1.5;"/>
   </g>
   <g id="line2d_62">
    <path clip-path="url(#pa3dda9a685)" d="M 73.832727 112.88565 
L 84.305455 131.7006 
L 94.778182 134.1954 
L 105.250909 119.74635 
L 115.723636 101.5551 
L 126.196364 98.74845 
L 136.669091 126.19125 
L 147.141818 181.49265 
L 157.614545 242.82315 
L 168.087273 282.73995 
L 178.56 290.43225 
L 189.032727 275.67135 
L 199.505455 252.9063 
L 209.978182 230.97285 
L 220.450909 212.05395 
L 230.923636 193.0311 
L 241.396364 172.449 
L 251.869091 156.2328 
L 262.341818 148.43655 
L 272.814545 142.5114 
L 283.287273 132.22035 
L 293.76 116.41995 
L 304.232727 97.3971 
L 314.705455 81.07695 
L 325.178182 73.6965 
L 335.650909 75.9834 
L 346.123636 82.53225 
L 356.596364 86.48235 
L 367.069091 85.02705 
L 377.541818 78.4782 
L 388.014545 65.5884 
L 398.487273 54.46575 
" style="fill:none;stroke:#f800fd;stroke-linecap:square;stroke-width:1.5;"/>
   </g>
   <g id="line2d_63">
    <path clip-path="url(#pa3dda9a685)" d="M 73.832727 166.8357 
L 84.305455 164.44485 
L 94.778182 157.79205 
L 105.250909 151.97085 
L 115.723636 146.8773 
L 126.196364 147.7089 
L 136.669091 162.57375 
L 147.141818 193.34295 
L 157.614545 232.1163 
L 168.087273 262.6776 
L 178.56 275.9832 
L 189.032727 278.37405 
L 199.505455 274.83975 
L 209.978182 260.07885 
L 220.450909 230.0373 
L 230.923636 188.6652 
L 241.396364 144.3825 
L 251.869091 110.59875 
L 262.341818 94.4865 
L 272.814545 86.7942 
L 283.287273 72.76095 
L 293.76 55.08945 
L 304.232727 48.5406 
L 314.705455 51.867 
L 325.178182 53.5302 
L 335.650909 50.72355 
L 346.123636 46.6695 
L 356.596364 44.1747 
L 367.069091 40.8483 
L 377.541818 31.2849 
L 388.014545 16.7319 
L 398.487273 12.88575 
" style="fill:none;stroke:#ff00e7;stroke-linecap:square;stroke-width:1.5;"/>
   </g>
   <g id="line2d_64">
    <path clip-path="url(#pa3dda9a685)" d="M 73.832727 137.00205 
L 84.305455 146.4615 
L 94.778182 144.07065 
L 105.250909 130.55715 
L 115.723636 120.2661 
L 126.196364 126.39915 
L 136.669091 156.2328 
L 147.141818 205.713 
L 157.614545 254.67345 
L 168.087273 278.2701 
L 178.56 268.81065 
L 189.032727 242.82315 
L 199.505455 222.1371 
L 209.978182 210.39075 
L 220.450909 197.70885 
L 230.923636 177.95835 
L 241.396364 155.817 
L 251.869091 132.1164 
L 262.341818 99.8919 
L 272.814545 62.57385 
L 283.287273 37.41795 
L 293.76 37.1061 
L 304.232727 55.92105 
L 314.705455 71.2017 
L 325.178182 68.7069 
L 335.650909 53.3223 
L 346.123636 36.6903 
L 356.596364 28.68615 
L 367.069091 32.22045 
L 377.541818 43.7589 
L 388.014545 57.8961 
L 398.487273 72.76095 
" style="fill:none;stroke:#ff00c9;stroke-linecap:square;stroke-width:1.5;"/>
   </g>
   <g id="line2d_65">
    <path clip-path="url(#pa3dda9a685)" d="M 73.832727 127.43865 
L 84.305455 129.51765 
L 94.778182 132.7401 
L 105.250909 127.5426 
L 115.723636 121.9293 
L 126.196364 127.7505 
L 136.669091 148.9563 
L 147.141818 186.89805 
L 157.614545 237.83355 
L 168.087273 285.44265 
L 178.56 305.81685 
L 189.032727 290.1204 
L 199.505455 255.29715 
L 209.978182 220.8897 
L 220.450909 191.16 
L 230.923636 169.1226 
L 241.396364 155.1933 
L 251.869091 141.16005 
L 262.341818 124.0083 
L 272.814545 112.05405 
L 283.287273 111.7422 
L 293.76 116.5239 
L 304.232727 112.46985 
L 314.705455 98.0208 
L 325.178182 86.27445 
L 335.650909 84.81915 
L 346.123636 88.2495 
L 356.596364 88.4574 
L 367.069091 84.2994 
L 377.541818 75.5676 
L 388.014545 62.8857 
L 398.487273 55.08945 
" style="fill:none;stroke:#ff00ac;stroke-linecap:square;stroke-width:1.5;"/>
   </g>
   <g id="line2d_66">
    <path clip-path="url(#pa3dda9a685)" d="M 73.832727 135.75465 
L 84.305455 141.16005 
L 94.778182 136.17045 
L 105.250909 135.96255 
L 115.723636 152.80245 
L 126.196364 180.66105 
L 136.669091 206.3367 
L 147.141818 226.60695 
L 157.614545 249.26805 
L 168.087273 274.32 
L 178.56 288.14535 
L 189.032727 284.2992 
L 199.505455 272.0331 
L 209.978182 259.5591 
L 220.450909 243.86265 
L 230.923636 214.6527 
L 241.396364 173.0727 
L 251.869091 135.2349 
L 262.341818 112.05405 
L 272.814545 99.2682 
L 283.287273 92.6154 
L 293.76 90.9522 
L 304.232727 85.3389 
L 314.705455 67.6674 
L 325.178182 45.4221 
L 335.650909 33.46785 
L 346.123636 35.235 
L 356.596364 38.66535 
L 367.069091 32.1165 
L 377.541818 18.1872 
L 388.014545 8.31195 
L 398.487273 8.93565 
" style="fill:none;stroke:#ff008e;stroke-linecap:square;stroke-width:1.5;"/>
   </g>
   <g id="line2d_67">
    <path clip-path="url(#pa3dda9a685)" d="M 73.832727 146.98125 
L 84.305455 159.03945 
L 94.778182 155.817 
L 105.250909 138.45735 
L 115.723636 116.83575 
L 126.196364 108.51975 
L 136.669091 129.6216 
L 147.141818 179.41365 
L 157.614545 236.4822 
L 168.087273 276.399 
L 178.56 290.3283 
L 189.032727 285.02685 
L 199.505455 271.92915 
L 209.978182 254.67345 
L 220.450909 228.68595 
L 230.923636 195.42195 
L 241.396364 161.95005 
L 251.869091 130.4532 
L 262.341818 104.77755 
L 272.814545 89.60085 
L 283.287273 80.45325 
L 293.76 69.64245 
L 304.232727 56.025 
L 314.705455 43.551 
L 325.178182 34.50735 
L 335.650909 29.72565 
L 346.123636 29.6217 
L 356.596364 30.6612 
L 367.069091 28.998 
L 377.541818 24.94395 
L 388.014545 20.99385 
L 398.487273 20.8899 
" style="fill:none;stroke:#ff0071;stroke-linecap:square;stroke-width:1.5;"/>
   </g>
   <g id="line2d_68">
    <path clip-path="url(#pa3dda9a685)" d="M 73.832727 129.51765 
L 84.305455 119.74635 
L 94.778182 114.237 
L 105.250909 121.20165 
L 115.723636 133.25985 
L 126.196364 146.98125 
L 136.669091 169.9542 
L 147.141818 207.89595 
L 157.614545 253.42605 
L 168.087273 288.2493 
L 178.56 291.47175 
L 189.032727 261.0144 
L 199.505455 221.3055 
L 209.978182 193.6548 
L 220.450909 176.50305 
L 230.923636 159.24735 
L 241.396364 141.36795 
L 251.869091 126.0873 
L 262.341818 111.84615 
L 272.814545 96.66945 
L 283.287273 83.98755 
L 293.76 79.20585 
L 304.232727 81.49275 
L 314.705455 83.6757 
L 325.178182 77.33475 
L 335.650909 63.82125 
L 346.123636 56.75265 
L 356.596364 59.7672 
L 367.069091 61.8462 
L 377.541818 55.71315 
L 388.014545 46.77345 
L 398.487273 41.78385 
" style="fill:none;stroke:#ff0053;stroke-linecap:square;stroke-width:1.5;"/>
   </g>
   <g id="line2d_69">
    <path clip-path="url(#pa3dda9a685)" d="M 73.832727 158.1039 
L 84.305455 151.55505 
L 94.778182 146.6694 
L 105.250909 143.23905 
L 115.723636 142.3035 
L 126.196364 147.0852 
L 136.669091 164.23695 
L 147.141818 195.9417 
L 157.614545 232.3242 
L 168.087273 259.767 
L 178.56 277.2306 
L 189.032727 287.2098 
L 199.505455 286.1703 
L 209.978182 273.9042 
L 220.450909 256.4406 
L 230.923636 234.92295 
L 241.396364 202.69845 
L 251.869091 158.83155 
L 262.341818 112.88565 
L 272.814545 80.973 
L 283.287273 72.4491 
L 293.76 79.5177 
L 304.232727 87.4179 
L 314.705455 85.3389 
L 325.178182 70.26615 
L 335.650909 48.3327 
L 346.123636 30.55725 
L 356.596364 23.90445 
L 367.069091 28.06245 
L 377.541818 39.6009 
L 388.014545 54.46575 
L 398.487273 63.9252 
" style="fill:none;stroke:#ff0035;stroke-linecap:square;stroke-width:1.5;"/>
   </g>
   <g id="line2d_70">
    <path clip-path="url(#pa3dda9a685)" d="M 73.832727 137.815264 
L 84.305455 136.260964 
L 94.778182 133.305814 
L 105.250909 129.505629 
L 115.723636 128.993657 
L 126.196364 138.970029 
L 136.669091 164.922879 
L 147.141818 204.82695 
L 157.614545 247.097829 
L 168.087273 276.267471 
L 178.56 283.537607 
L 189.032727 271.799743 
L 199.505455 250.400186 
L 209.978182 226.706657 
L 220.450909 202.760679 
L 230.923636 178.224943 
L 241.396364 154.09935 
L 251.869091 132.566143 
L 262.341818 114.732707 
L 272.814545 100.348007 
L 283.287273 88.656814 
L 293.76 78.737721 
L 304.232727 69.962786 
L 314.705455 61.844079 
L 325.178182 54.399986 
L 335.650909 48.612021 
L 346.123636 45.6894 
L 356.596364 45.683743 
L 367.069091 46.998321 
L 377.541818 47.532214 
L 388.014545 47.131264 
L 398.487273 48.029336 
" style="fill:none;stroke:#000000;stroke-linecap:square;stroke-width:2;"/>
   </g>
   <g id="patch_3">
    <path d="M 57.6 307.584 
L 57.6 41.472 
" style="fill:none;stroke:#000000;stroke-linecap:square;stroke-linejoin:miter;stroke-width:0.8;"/>
   </g>
   <g id="patch_4">
    <path d="M 414.72 307.584 
L 414.72 41.472 
" style="fill:none;stroke:#000000;stroke-linecap:square;stroke-linejoin:miter;stroke-width:0.8;"/>
   </g>
   <g id="patch_5">
    <path d="M 57.6 307.584 
L 414.72 307.584 
" style="fill:none;stroke:#000000;stroke-linecap:square;stroke-linejoin:miter;stroke-width:0.8;"/>
   </g>
   <g id="patch_6">
    <path d="M 57.6 41.472 
L 414.72 41.472 
" style="fill:none;stroke:#000000;stroke-linecap:square;stroke-linejoin:miter;stroke-width:0.8;"/>
   </g>
   <g id="text_21">
    <!-- $V_{rms}=$ 22.942604 -->
    <defs>
     <path d="M 20.609375 0 
L 7.8125 72.90625 
L 17.484375 72.90625 
L 28.078125 10.203125 
L 63.484375 72.90625 
L 74.21875 72.90625 
L 32.078125 0 
z
" id="DejaVuSans-Oblique-56"/>
     <path d="M 44.578125 46.390625 
Q 43.21875 47.125 41.453125 47.515625 
Q 39.703125 47.90625 37.703125 47.90625 
Q 30.515625 47.90625 25.140625 42.453125 
Q 19.78125 37.015625 18.015625 27.875 
L 12.5 0 
L 3.515625 0 
L 14.203125 54.6875 
L 23.1875 54.6875 
L 21.484375 46.1875 
Q 25.046875 50.921875 30 53.453125 
Q 34.96875 56 40.578125 56 
Q 42.046875 56 43.453125 55.828125 
Q 44.875 55.671875 46.296875 55.28125 
z
" id="DejaVuSans-Oblique-72"/>
     <path d="M 89.796875 33.015625 
L 83.40625 0 
L 74.421875 0 
L 80.71875 32.71875 
Q 81.109375 34.8125 81.296875 36.328125 
Q 81.5 37.84375 81.5 38.921875 
Q 81.5 43.3125 79.046875 45.75 
Q 76.609375 48.1875 72.21875 48.1875 
Q 65.671875 48.1875 60.546875 43.28125 
Q 55.421875 38.375 53.90625 30.515625 
L 47.90625 0 
L 38.921875 0 
L 45.3125 32.71875 
Q 45.703125 34.515625 45.890625 36.046875 
Q 46.09375 37.59375 46.09375 38.8125 
Q 46.09375 43.265625 43.65625 45.71875 
Q 41.21875 48.1875 36.921875 48.1875 
Q 30.28125 48.1875 25.140625 43.28125 
Q 20.015625 38.375 18.5 30.515625 
L 12.5 0 
L 3.515625 0 
L 14.203125 54.6875 
L 23.1875 54.6875 
L 21.484375 46.1875 
Q 25.140625 50.984375 30.046875 53.484375 
Q 34.96875 56 40.578125 56 
Q 46.53125 56 50.359375 52.875 
Q 54.203125 49.75 54.984375 44.1875 
Q 59.078125 49.953125 64.46875 52.96875 
Q 69.875 56 75.875 56 
Q 82.90625 56 86.734375 51.953125 
Q 90.578125 47.90625 90.578125 40.484375 
Q 90.578125 38.875 90.375 36.9375 
Q 90.1875 35.015625 89.796875 33.015625 
z
" id="DejaVuSans-Oblique-6d"/>
     <path d="M 50 53.078125 
L 48.296875 44.578125 
Q 44.734375 46.53125 40.765625 47.5 
Q 36.8125 48.484375 32.625 48.484375 
Q 25.53125 48.484375 21.453125 46.0625 
Q 17.390625 43.65625 17.390625 39.5 
Q 17.390625 34.671875 26.859375 32.078125 
Q 27.59375 31.890625 27.9375 31.78125 
L 30.8125 30.90625 
Q 39.796875 28.421875 42.796875 25.6875 
Q 45.796875 22.953125 45.796875 18.21875 
Q 45.796875 9.515625 38.890625 4.046875 
Q 31.984375 -1.421875 20.796875 -1.421875 
Q 16.453125 -1.421875 11.671875 -0.578125 
Q 6.890625 0.25 1.125 2 
L 2.875 11.28125 
Q 7.8125 8.734375 12.59375 7.421875 
Q 17.390625 6.109375 21.78125 6.109375 
Q 28.375 6.109375 32.5 8.9375 
Q 36.625 11.765625 36.625 16.109375 
Q 36.625 20.796875 25.78125 23.6875 
L 24.859375 23.921875 
L 21.78125 24.703125 
Q 14.9375 26.515625 11.765625 29.46875 
Q 8.59375 32.421875 8.59375 37.015625 
Q 8.59375 45.75 15.15625 50.875 
Q 21.734375 56 33.015625 56 
Q 37.453125 56 41.671875 55.265625 
Q 45.90625 54.546875 50 53.078125 
z
" id="DejaVuSans-Oblique-73"/>
     <path d="M 10.59375 45.40625 
L 73.1875 45.40625 
L 73.1875 37.203125 
L 10.59375 37.203125 
z
M 10.59375 25.484375 
L 73.1875 25.484375 
L 73.1875 17.1875 
L 10.59375 17.1875 
z
" id="DejaVuSans-3d"/>
     <path d="M 10.984375 1.515625 
L 10.984375 10.5 
Q 14.703125 8.734375 18.5 7.8125 
Q 22.3125 6.890625 25.984375 6.890625 
Q 35.75 6.890625 40.890625 13.453125 
Q 46.046875 20.015625 46.78125 33.40625 
Q 43.953125 29.203125 39.59375 26.953125 
Q 35.25 24.703125 29.984375 24.703125 
Q 19.046875 24.703125 12.671875 31.3125 
Q 6.296875 37.9375 6.296875 49.421875 
Q 6.296875 60.640625 12.9375 67.421875 
Q 19.578125 74.21875 30.609375 74.21875 
Q 43.265625 74.21875 49.921875 64.515625 
Q 56.59375 54.828125 56.59375 36.375 
Q 56.59375 19.140625 48.40625 8.859375 
Q 40.234375 -1.421875 26.421875 -1.421875 
Q 22.703125 -1.421875 18.890625 -0.6875 
Q 15.09375 0.046875 10.984375 1.515625 
z
M 30.609375 32.421875 
Q 37.25 32.421875 41.125 36.953125 
Q 45.015625 41.5 45.015625 49.421875 
Q 45.015625 57.28125 41.125 61.84375 
Q 37.25 66.40625 30.609375 66.40625 
Q 23.96875 66.40625 20.09375 61.84375 
Q 16.21875 57.28125 16.21875 49.421875 
Q 16.21875 41.5 20.09375 36.953125 
Q 23.96875 32.421875 30.609375 32.421875 
z
" id="DejaVuSans-39"/>
    </defs>
    <g transform="translate(325.178182 88.656814)scale(0.1 -0.1)">
     <use transform="translate(0 0.78125)" xlink:href="#DejaVuSans-Oblique-56"/>
     <use transform="translate(68.408203 -15.625)scale(0.7)" xlink:href="#DejaVuSans-Oblique-72"/>
     <use transform="translate(97.1875 -15.625)scale(0.7)" xlink:href="#DejaVuSans-Oblique-6d"/>
     <use transform="translate(165.375977 -15.625)scale(0.7)" xlink:href="#DejaVuSans-Oblique-73"/>
     <use transform="translate(224.0625 0.78125)" xlink:href="#DejaVuSans-3d"/>
     <use transform="translate(327.333984 0.78125)" xlink:href="#DejaVuSans-20"/>
     <use transform="translate(359.121094 0.78125)" xlink:href="#DejaVuSans-32"/>
     <use transform="translate(422.744141 0.78125)" xlink:href="#DejaVuSans-32"/>
     <use transform="translate(486.367188 0.78125)" xlink:href="#DejaVuSans-2e"/>
     <use transform="translate(518.154297 0.78125)" xlink:href="#DejaVuSans-39"/>
     <use transform="translate(581.777344 0.78125)" xlink:href="#DejaVuSans-34"/>
     <use transform="translate(645.400391 0.78125)" xlink:href="#DejaVuSans-32"/>
     <use transform="translate(709.023438 0.78125)" xlink:href="#DejaVuSans-36"/>
     <use transform="translate(772.646484 0.78125)" xlink:href="#DejaVuSans-30"/>
     <use transform="translate(836.269531 0.78125)" xlink:href="#DejaVuSans-34"/>
    </g>
   </g>
   <g id="text_22">
    <!-- Channel 29 - Unit 1 -->
    <defs>
     <path d="M 64.40625 67.28125 
L 64.40625 56.890625 
Q 59.421875 61.53125 53.78125 63.8125 
Q 48.140625 66.109375 41.796875 66.109375 
Q 29.296875 66.109375 22.65625 58.46875 
Q 16.015625 50.828125 16.015625 36.375 
Q 16.015625 21.96875 22.65625 14.328125 
Q 29.296875 6.6875 41.796875 6.6875 
Q 48.140625 6.6875 53.78125 8.984375 
Q 59.421875 11.28125 64.40625 15.921875 
L 64.40625 5.609375 
Q 59.234375 2.09375 53.4375 0.328125 
Q 47.65625 -1.421875 41.21875 -1.421875 
Q 24.65625 -1.421875 15.125 8.703125 
Q 5.609375 18.84375 5.609375 36.375 
Q 5.609375 53.953125 15.125 64.078125 
Q 24.65625 74.21875 41.21875 74.21875 
Q 47.75 74.21875 53.53125 72.484375 
Q 59.328125 70.75 64.40625 67.28125 
z
" id="DejaVuSans-43"/>
     <path d="M 54.890625 33.015625 
L 54.890625 0 
L 45.90625 0 
L 45.90625 32.71875 
Q 45.90625 40.484375 42.875 44.328125 
Q 39.84375 48.1875 33.796875 48.1875 
Q 26.515625 48.1875 22.3125 43.546875 
Q 18.109375 38.921875 18.109375 30.90625 
L 18.109375 0 
L 9.078125 0 
L 9.078125 75.984375 
L 18.109375 75.984375 
L 18.109375 46.1875 
Q 21.34375 51.125 25.703125 53.5625 
Q 30.078125 56 35.796875 56 
Q 45.21875 56 50.046875 50.171875 
Q 54.890625 44.34375 54.890625 33.015625 
z
" id="DejaVuSans-68"/>
     <path d="M 54.890625 33.015625 
L 54.890625 0 
L 45.90625 0 
L 45.90625 32.71875 
Q 45.90625 40.484375 42.875 44.328125 
Q 39.84375 48.1875 33.796875 48.1875 
Q 26.515625 48.1875 22.3125 43.546875 
Q 18.109375 38.921875 18.109375 30.90625 
L 18.109375 0 
L 9.078125 0 
L 9.078125 54.6875 
L 18.109375 54.6875 
L 18.109375 46.1875 
Q 21.34375 51.125 25.703125 53.5625 
Q 30.078125 56 35.796875 56 
Q 45.21875 56 50.046875 50.171875 
Q 54.890625 44.34375 54.890625 33.015625 
z
" id="DejaVuSans-6e"/>
     <path d="M 4.890625 31.390625 
L 31.203125 31.390625 
L 31.203125 23.390625 
L 4.890625 23.390625 
z
" id="DejaVuSans-2d"/>
     <path d="M 8.6875 72.90625 
L 18.609375 72.90625 
L 18.609375 28.609375 
Q 18.609375 16.890625 22.84375 11.734375 
Q 27.09375 6.59375 36.625 6.59375 
Q 46.09375 6.59375 50.34375 11.734375 
Q 54.59375 16.890625 54.59375 28.609375 
L 54.59375 72.90625 
L 64.5 72.90625 
L 64.5 27.390625 
Q 64.5 13.140625 57.4375 5.859375 
Q 50.390625 -1.421875 36.625 -1.421875 
Q 22.796875 -1.421875 15.734375 5.859375 
Q 8.6875 13.140625 8.6875 27.390625 
z
" id="DejaVuSans-55"/>
    </defs>
    <g transform="translate(178.069687 35.472)scale(0.12 -0.12)">
     <use xlink:href="#DejaVuSans-43"/>
     <use x="69.824219" xlink:href="#DejaVuSans-68"/>
     <use x="133.203125" xlink:href="#DejaVuSans-61"/>
     <use x="194.482422" xlink:href="#DejaVuSans-6e"/>
     <use x="257.861328" xlink:href="#DejaVuSans-6e"/>
     <use x="321.240234" xlink:href="#DejaVuSans-65"/>
     <use x="382.763672" xlink:href="#DejaVuSans-6c"/>
     <use x="410.546875" xlink:href="#DejaVuSans-20"/>
     <use x="442.333984" xlink:href="#DejaVuSans-32"/>
     <use x="505.957031" xlink:href="#DejaVuSans-39"/>
     <use x="569.580078" xlink:href="#DejaVuSans-20"/>
     <use x="601.367188" xlink:href="#DejaVuSans-2d"/>
     <use x="637.451172" xlink:href="#DejaVuSans-20"/>
     <use x="669.238281" xlink:href="#DejaVuSans-55"/>
     <use x="742.431641" xlink:href="#DejaVuSans-6e"/>
     <use x="805.810547" xlink:href="#DejaVuSans-69"/>
     <use x="833.59375" xlink:href="#DejaVuSans-74"/>
     <use x="872.802734" xlink:href="#DejaVuSans-20"/>
     <use x="904.589844" xlink:href="#DejaVuSans-31"/>
    </g>
   </g>
  </g>
 </g>
 <defs>
  <clipPath id="pa3dda9a685">
   <rect height="266.112" width="357.12" x="57.6" y="41.472"/>
  </clipPath>
 </defs>
</svg>
