<?xml version="1.0" encoding="utf-8" standalone="no"?>
<!DOCTYPE svg PUBLIC "-//W3C//DTD SVG 1.1//EN"
  "http://www.w3.org/Graphics/SVG/1.1/DTD/svg11.dtd">
<!-- Created with matplotlib (http://matplotlib.org/) -->
<svg height="345pt" version="1.1" viewBox="0 0 460 345" width="460pt" xmlns="http://www.w3.org/2000/svg" xmlns:xlink="http://www.w3.org/1999/xlink">
 <defs>
  <style type="text/css">
*{stroke-linecap:butt;stroke-linejoin:round;}
  </style>
 </defs>
 <g id="figure_1">
  <g id="patch_1">
   <path d="M 0 345.6 
L 460.8 345.6 
L 460.8 0 
L 0 0 
z
" style="fill:#ffffff;"/>
  </g>
  <g id="axes_1">
   <g id="patch_2">
    <path d="M 57.6 307.584 
L 414.72 307.584 
L 414.72 41.472 
L 57.6 41.472 
z
" style="fill:#ffffff;"/>
   </g>
   <g id="PolyCollection_1">
    <defs>
     <path d="M 73.832727 -228.679354 
L 73.832727 -184.686725 
L 84.305455 -184.255848 
L 94.778182 -184.227892 
L 105.250909 -183.615544 
L 115.723636 -179.550985 
L 126.196364 -169.980566 
L 136.669091 -154.137328 
L 147.141818 -132.453077 
L 157.614545 -103.861291 
L 168.087273 -76.9776 
L 178.56 -64.480675 
L 189.032727 -67.371663 
L 199.505455 -81.48712 
L 209.978182 -100.90282 
L 220.450909 -120.713593 
L 230.923636 -139.464162 
L 241.396364 -158.538904 
L 251.869091 -177.352799 
L 262.341818 -194.106767 
L 272.814545 -209.642988 
L 283.287273 -224.585925 
L 293.76 -237.426499 
L 304.232727 -246.679386 
L 314.705455 -252.074156 
L 325.178182 -254.821557 
L 335.650909 -256.792233 
L 346.123636 -258.53789 
L 356.596364 -259.668735 
L 367.069091 -259.123862 
L 377.541818 -256.62051 
L 388.014545 -253.296612 
L 398.487273 -249.717908 
L 398.487273 -316.210926 
L 398.487273 -316.210926 
L 388.014545 -319.559037 
L 377.541818 -321.309173 
L 367.069091 -320.241207 
L 356.596364 -317.016734 
L 346.123636 -312.668896 
L 335.650909 -308.436433 
L 325.178182 -304.464833 
L 314.705455 -299.288934 
L 304.232727 -292.266258 
L 293.76 -283.669218 
L 283.287273 -274.468409 
L 272.814545 -264.976326 
L 262.341818 -253.549271 
L 251.869091 -239.268787 
L 241.396364 -223.253459 
L 230.923636 -206.095452 
L 220.450909 -188.873745 
L 209.978182 -172.321135 
L 199.505455 -154.370593 
L 189.032727 -134.645347 
L 178.56 -118.322711 
L 168.087273 -113.460734 
L 157.614545 -124.516005 
L 147.141818 -153.134954 
L 136.669091 -188.315734 
L 126.196364 -213.463844 
L 115.723636 -225.282432 
L 105.250909 -228.867956 
L 94.778182 -229.813663 
L 84.305455 -229.689324 
L 73.832727 -228.679354 
z
" id="m1e1731d261"/>
    </defs>
    <g clip-path="url(#pfaf9cfb900)">
     <use style="fill-opacity:0.5;" x="0" xlink:href="#m1e1731d261" y="345.6"/>
    </g>
   </g>
   <g id="matplotlib.axis_1">
    <g id="xtick_1">
     <g id="line2d_1">
      <defs>
       <path d="M 0 0 
L 0 3.5 
" id="mb20f581d4e" style="stroke:#000000;stroke-width:0.8;"/>
      </defs>
      <g>
       <use style="stroke:#000000;stroke-width:0.8;" x="73.832727" xlink:href="#mb20f581d4e" y="307.584"/>
      </g>
     </g>
     <g id="text_1">
      <!-- 0.0000 -->
      <defs>
       <path d="M 31.78125 66.40625 
Q 24.171875 66.40625 20.328125 58.90625 
Q 16.5 51.421875 16.5 36.375 
Q 16.5 21.390625 20.328125 13.890625 
Q 24.171875 6.390625 31.78125 6.390625 
Q 39.453125 6.390625 43.28125 13.890625 
Q 47.125 21.390625 47.125 36.375 
Q 47.125 51.421875 43.28125 58.90625 
Q 39.453125 66.40625 31.78125 66.40625 
z
M 31.78125 74.21875 
Q 44.046875 74.21875 50.515625 64.515625 
Q 56.984375 54.828125 56.984375 36.375 
Q 56.984375 17.96875 50.515625 8.265625 
Q 44.046875 -1.421875 31.78125 -1.421875 
Q 19.53125 -1.421875 13.0625 8.265625 
Q 6.59375 17.96875 6.59375 36.375 
Q 6.59375 54.828125 13.0625 64.515625 
Q 19.53125 74.21875 31.78125 74.21875 
z
" id="DejaVuSans-30"/>
       <path d="M 10.6875 12.40625 
L 21 12.40625 
L 21 0 
L 10.6875 0 
z
" id="DejaVuSans-2e"/>
      </defs>
      <g transform="translate(56.337415 322.182437)scale(0.1 -0.1)">
       <use xlink:href="#DejaVuSans-30"/>
       <use x="63.623047" xlink:href="#DejaVuSans-2e"/>
       <use x="95.410156" xlink:href="#DejaVuSans-30"/>
       <use x="159.033203" xlink:href="#DejaVuSans-30"/>
       <use x="222.65625" xlink:href="#DejaVuSans-30"/>
       <use x="286.279297" xlink:href="#DejaVuSans-30"/>
      </g>
     </g>
    </g>
    <g id="xtick_2">
     <g id="line2d_2">
      <g>
       <use style="stroke:#000000;stroke-width:0.8;" x="115.723636" xlink:href="#mb20f581d4e" y="307.584"/>
      </g>
     </g>
     <g id="text_2">
      <!-- 0.0001 -->
      <defs>
       <path d="M 12.40625 8.296875 
L 28.515625 8.296875 
L 28.515625 63.921875 
L 10.984375 60.40625 
L 10.984375 69.390625 
L 28.421875 72.90625 
L 38.28125 72.90625 
L 38.28125 8.296875 
L 54.390625 8.296875 
L 54.390625 0 
L 12.40625 0 
z
" id="DejaVuSans-31"/>
      </defs>
      <g transform="translate(98.228324 322.182437)scale(0.1 -0.1)">
       <use xlink:href="#DejaVuSans-30"/>
       <use x="63.623047" xlink:href="#DejaVuSans-2e"/>
       <use x="95.410156" xlink:href="#DejaVuSans-30"/>
       <use x="159.033203" xlink:href="#DejaVuSans-30"/>
       <use x="222.65625" xlink:href="#DejaVuSans-30"/>
       <use x="286.279297" xlink:href="#DejaVuSans-31"/>
      </g>
     </g>
    </g>
    <g id="xtick_3">
     <g id="line2d_3">
      <g>
       <use style="stroke:#000000;stroke-width:0.8;" x="157.614545" xlink:href="#mb20f581d4e" y="307.584"/>
      </g>
     </g>
     <g id="text_3">
      <!-- 0.0002 -->
      <defs>
       <path d="M 19.1875 8.296875 
L 53.609375 8.296875 
L 53.609375 0 
L 7.328125 0 
L 7.328125 8.296875 
Q 12.9375 14.109375 22.625 23.890625 
Q 32.328125 33.6875 34.8125 36.53125 
Q 39.546875 41.84375 41.421875 45.53125 
Q 43.3125 49.21875 43.3125 52.78125 
Q 43.3125 58.59375 39.234375 62.25 
Q 35.15625 65.921875 28.609375 65.921875 
Q 23.96875 65.921875 18.8125 64.3125 
Q 13.671875 62.703125 7.8125 59.421875 
L 7.8125 69.390625 
Q 13.765625 71.78125 18.9375 73 
Q 24.125 74.21875 28.421875 74.21875 
Q 39.75 74.21875 46.484375 68.546875 
Q 53.21875 62.890625 53.21875 53.421875 
Q 53.21875 48.921875 51.53125 44.890625 
Q 49.859375 40.875 45.40625 35.40625 
Q 44.1875 33.984375 37.640625 27.21875 
Q 31.109375 20.453125 19.1875 8.296875 
z
" id="DejaVuSans-32"/>
      </defs>
      <g transform="translate(140.119233 322.182437)scale(0.1 -0.1)">
       <use xlink:href="#DejaVuSans-30"/>
       <use x="63.623047" xlink:href="#DejaVuSans-2e"/>
       <use x="95.410156" xlink:href="#DejaVuSans-30"/>
       <use x="159.033203" xlink:href="#DejaVuSans-30"/>
       <use x="222.65625" xlink:href="#DejaVuSans-30"/>
       <use x="286.279297" xlink:href="#DejaVuSans-32"/>
      </g>
     </g>
    </g>
    <g id="xtick_4">
     <g id="line2d_4">
      <g>
       <use style="stroke:#000000;stroke-width:0.8;" x="199.505455" xlink:href="#mb20f581d4e" y="307.584"/>
      </g>
     </g>
     <g id="text_4">
      <!-- 0.0003 -->
      <defs>
       <path d="M 40.578125 39.3125 
Q 47.65625 37.796875 51.625 33 
Q 55.609375 28.21875 55.609375 21.1875 
Q 55.609375 10.40625 48.1875 4.484375 
Q 40.765625 -1.421875 27.09375 -1.421875 
Q 22.515625 -1.421875 17.65625 -0.515625 
Q 12.796875 0.390625 7.625 2.203125 
L 7.625 11.71875 
Q 11.71875 9.328125 16.59375 8.109375 
Q 21.484375 6.890625 26.8125 6.890625 
Q 36.078125 6.890625 40.9375 10.546875 
Q 45.796875 14.203125 45.796875 21.1875 
Q 45.796875 27.640625 41.28125 31.265625 
Q 36.765625 34.90625 28.71875 34.90625 
L 20.21875 34.90625 
L 20.21875 43.015625 
L 29.109375 43.015625 
Q 36.375 43.015625 40.234375 45.921875 
Q 44.09375 48.828125 44.09375 54.296875 
Q 44.09375 59.90625 40.109375 62.90625 
Q 36.140625 65.921875 28.71875 65.921875 
Q 24.65625 65.921875 20.015625 65.03125 
Q 15.375 64.15625 9.8125 62.3125 
L 9.8125 71.09375 
Q 15.4375 72.65625 20.34375 73.4375 
Q 25.25 74.21875 29.59375 74.21875 
Q 40.828125 74.21875 47.359375 69.109375 
Q 53.90625 64.015625 53.90625 55.328125 
Q 53.90625 49.265625 50.4375 45.09375 
Q 46.96875 40.921875 40.578125 39.3125 
z
" id="DejaVuSans-33"/>
      </defs>
      <g transform="translate(182.010142 322.182437)scale(0.1 -0.1)">
       <use xlink:href="#DejaVuSans-30"/>
       <use x="63.623047" xlink:href="#DejaVuSans-2e"/>
       <use x="95.410156" xlink:href="#DejaVuSans-30"/>
       <use x="159.033203" xlink:href="#DejaVuSans-30"/>
       <use x="222.65625" xlink:href="#DejaVuSans-30"/>
       <use x="286.279297" xlink:href="#DejaVuSans-33"/>
      </g>
     </g>
    </g>
    <g id="xtick_5">
     <g id="line2d_5">
      <g>
       <use style="stroke:#000000;stroke-width:0.8;" x="241.396364" xlink:href="#mb20f581d4e" y="307.584"/>
      </g>
     </g>
     <g id="text_5">
      <!-- 0.0004 -->
      <defs>
       <path d="M 37.796875 64.3125 
L 12.890625 25.390625 
L 37.796875 25.390625 
z
M 35.203125 72.90625 
L 47.609375 72.90625 
L 47.609375 25.390625 
L 58.015625 25.390625 
L 58.015625 17.1875 
L 47.609375 17.1875 
L 47.609375 0 
L 37.796875 0 
L 37.796875 17.1875 
L 4.890625 17.1875 
L 4.890625 26.703125 
z
" id="DejaVuSans-34"/>
      </defs>
      <g transform="translate(223.901051 322.182437)scale(0.1 -0.1)">
       <use xlink:href="#DejaVuSans-30"/>
       <use x="63.623047" xlink:href="#DejaVuSans-2e"/>
       <use x="95.410156" xlink:href="#DejaVuSans-30"/>
       <use x="159.033203" xlink:href="#DejaVuSans-30"/>
       <use x="222.65625" xlink:href="#DejaVuSans-30"/>
       <use x="286.279297" xlink:href="#DejaVuSans-34"/>
      </g>
     </g>
    </g>
    <g id="xtick_6">
     <g id="line2d_6">
      <g>
       <use style="stroke:#000000;stroke-width:0.8;" x="283.287273" xlink:href="#mb20f581d4e" y="307.584"/>
      </g>
     </g>
     <g id="text_6">
      <!-- 0.0005 -->
      <defs>
       <path d="M 10.796875 72.90625 
L 49.515625 72.90625 
L 49.515625 64.59375 
L 19.828125 64.59375 
L 19.828125 46.734375 
Q 21.96875 47.46875 24.109375 47.828125 
Q 26.265625 48.1875 28.421875 48.1875 
Q 40.625 48.1875 47.75 41.5 
Q 54.890625 34.8125 54.890625 23.390625 
Q 54.890625 11.625 47.5625 5.09375 
Q 40.234375 -1.421875 26.90625 -1.421875 
Q 22.3125 -1.421875 17.546875 -0.640625 
Q 12.796875 0.140625 7.71875 1.703125 
L 7.71875 11.625 
Q 12.109375 9.234375 16.796875 8.0625 
Q 21.484375 6.890625 26.703125 6.890625 
Q 35.15625 6.890625 40.078125 11.328125 
Q 45.015625 15.765625 45.015625 23.390625 
Q 45.015625 31 40.078125 35.4375 
Q 35.15625 39.890625 26.703125 39.890625 
Q 22.75 39.890625 18.8125 39.015625 
Q 14.890625 38.140625 10.796875 36.28125 
z
" id="DejaVuSans-35"/>
      </defs>
      <g transform="translate(265.79196 322.182437)scale(0.1 -0.1)">
       <use xlink:href="#DejaVuSans-30"/>
       <use x="63.623047" xlink:href="#DejaVuSans-2e"/>
       <use x="95.410156" xlink:href="#DejaVuSans-30"/>
       <use x="159.033203" xlink:href="#DejaVuSans-30"/>
       <use x="222.65625" xlink:href="#DejaVuSans-30"/>
       <use x="286.279297" xlink:href="#DejaVuSans-35"/>
      </g>
     </g>
    </g>
    <g id="xtick_7">
     <g id="line2d_7">
      <g>
       <use style="stroke:#000000;stroke-width:0.8;" x="325.178182" xlink:href="#mb20f581d4e" y="307.584"/>
      </g>
     </g>
     <g id="text_7">
      <!-- 0.0006 -->
      <defs>
       <path d="M 33.015625 40.375 
Q 26.375 40.375 22.484375 35.828125 
Q 18.609375 31.296875 18.609375 23.390625 
Q 18.609375 15.53125 22.484375 10.953125 
Q 26.375 6.390625 33.015625 6.390625 
Q 39.65625 6.390625 43.53125 10.953125 
Q 47.40625 15.53125 47.40625 23.390625 
Q 47.40625 31.296875 43.53125 35.828125 
Q 39.65625 40.375 33.015625 40.375 
z
M 52.59375 71.296875 
L 52.59375 62.3125 
Q 48.875 64.0625 45.09375 64.984375 
Q 41.3125 65.921875 37.59375 65.921875 
Q 27.828125 65.921875 22.671875 59.328125 
Q 17.53125 52.734375 16.796875 39.40625 
Q 19.671875 43.65625 24.015625 45.921875 
Q 28.375 48.1875 33.59375 48.1875 
Q 44.578125 48.1875 50.953125 41.515625 
Q 57.328125 34.859375 57.328125 23.390625 
Q 57.328125 12.15625 50.6875 5.359375 
Q 44.046875 -1.421875 33.015625 -1.421875 
Q 20.359375 -1.421875 13.671875 8.265625 
Q 6.984375 17.96875 6.984375 36.375 
Q 6.984375 53.65625 15.1875 63.9375 
Q 23.390625 74.21875 37.203125 74.21875 
Q 40.921875 74.21875 44.703125 73.484375 
Q 48.484375 72.75 52.59375 71.296875 
z
" id="DejaVuSans-36"/>
      </defs>
      <g transform="translate(307.682869 322.182437)scale(0.1 -0.1)">
       <use xlink:href="#DejaVuSans-30"/>
       <use x="63.623047" xlink:href="#DejaVuSans-2e"/>
       <use x="95.410156" xlink:href="#DejaVuSans-30"/>
       <use x="159.033203" xlink:href="#DejaVuSans-30"/>
       <use x="222.65625" xlink:href="#DejaVuSans-30"/>
       <use x="286.279297" xlink:href="#DejaVuSans-36"/>
      </g>
     </g>
    </g>
    <g id="xtick_8">
     <g id="line2d_8">
      <g>
       <use style="stroke:#000000;stroke-width:0.8;" x="367.069091" xlink:href="#mb20f581d4e" y="307.584"/>
      </g>
     </g>
     <g id="text_8">
      <!-- 0.0007 -->
      <defs>
       <path d="M 8.203125 72.90625 
L 55.078125 72.90625 
L 55.078125 68.703125 
L 28.609375 0 
L 18.3125 0 
L 43.21875 64.59375 
L 8.203125 64.59375 
z
" id="DejaVuSans-37"/>
      </defs>
      <g transform="translate(349.573778 322.182437)scale(0.1 -0.1)">
       <use xlink:href="#DejaVuSans-30"/>
       <use x="63.623047" xlink:href="#DejaVuSans-2e"/>
       <use x="95.410156" xlink:href="#DejaVuSans-30"/>
       <use x="159.033203" xlink:href="#DejaVuSans-30"/>
       <use x="222.65625" xlink:href="#DejaVuSans-30"/>
       <use x="286.279297" xlink:href="#DejaVuSans-37"/>
      </g>
     </g>
    </g>
    <g id="xtick_9">
     <g id="line2d_9">
      <g>
       <use style="stroke:#000000;stroke-width:0.8;" x="408.96" xlink:href="#mb20f581d4e" y="307.584"/>
      </g>
     </g>
     <g id="text_9">
      <!-- 0.0008 -->
      <defs>
       <path d="M 31.78125 34.625 
Q 24.75 34.625 20.71875 30.859375 
Q 16.703125 27.09375 16.703125 20.515625 
Q 16.703125 13.921875 20.71875 10.15625 
Q 24.75 6.390625 31.78125 6.390625 
Q 38.8125 6.390625 42.859375 10.171875 
Q 46.921875 13.96875 46.921875 20.515625 
Q 46.921875 27.09375 42.890625 30.859375 
Q 38.875 34.625 31.78125 34.625 
z
M 21.921875 38.8125 
Q 15.578125 40.375 12.03125 44.71875 
Q 8.5 49.078125 8.5 55.328125 
Q 8.5 64.0625 14.71875 69.140625 
Q 20.953125 74.21875 31.78125 74.21875 
Q 42.671875 74.21875 48.875 69.140625 
Q 55.078125 64.0625 55.078125 55.328125 
Q 55.078125 49.078125 51.53125 44.71875 
Q 48 40.375 41.703125 38.8125 
Q 48.828125 37.15625 52.796875 32.3125 
Q 56.78125 27.484375 56.78125 20.515625 
Q 56.78125 9.90625 50.3125 4.234375 
Q 43.84375 -1.421875 31.78125 -1.421875 
Q 19.734375 -1.421875 13.25 4.234375 
Q 6.78125 9.90625 6.78125 20.515625 
Q 6.78125 27.484375 10.78125 32.3125 
Q 14.796875 37.15625 21.921875 38.8125 
z
M 18.3125 54.390625 
Q 18.3125 48.734375 21.84375 45.5625 
Q 25.390625 42.390625 31.78125 42.390625 
Q 38.140625 42.390625 41.71875 45.5625 
Q 45.3125 48.734375 45.3125 54.390625 
Q 45.3125 60.0625 41.71875 63.234375 
Q 38.140625 66.40625 31.78125 66.40625 
Q 25.390625 66.40625 21.84375 63.234375 
Q 18.3125 60.0625 18.3125 54.390625 
z
" id="DejaVuSans-38"/>
      </defs>
      <g transform="translate(391.464687 322.182437)scale(0.1 -0.1)">
       <use xlink:href="#DejaVuSans-30"/>
       <use x="63.623047" xlink:href="#DejaVuSans-2e"/>
       <use x="95.410156" xlink:href="#DejaVuSans-30"/>
       <use x="159.033203" xlink:href="#DejaVuSans-30"/>
       <use x="222.65625" xlink:href="#DejaVuSans-30"/>
       <use x="286.279297" xlink:href="#DejaVuSans-38"/>
      </g>
     </g>
    </g>
    <g id="text_10">
     <!-- Time (s) -->
     <defs>
      <path d="M -0.296875 72.90625 
L 61.375 72.90625 
L 61.375 64.59375 
L 35.5 64.59375 
L 35.5 0 
L 25.59375 0 
L 25.59375 64.59375 
L -0.296875 64.59375 
z
" id="DejaVuSans-54"/>
      <path d="M 9.421875 54.6875 
L 18.40625 54.6875 
L 18.40625 0 
L 9.421875 0 
z
M 9.421875 75.984375 
L 18.40625 75.984375 
L 18.40625 64.59375 
L 9.421875 64.59375 
z
" id="DejaVuSans-69"/>
      <path d="M 52 44.1875 
Q 55.375 50.25 60.0625 53.125 
Q 64.75 56 71.09375 56 
Q 79.640625 56 84.28125 50.015625 
Q 88.921875 44.046875 88.921875 33.015625 
L 88.921875 0 
L 79.890625 0 
L 79.890625 32.71875 
Q 79.890625 40.578125 77.09375 44.375 
Q 74.3125 48.1875 68.609375 48.1875 
Q 61.625 48.1875 57.5625 43.546875 
Q 53.515625 38.921875 53.515625 30.90625 
L 53.515625 0 
L 44.484375 0 
L 44.484375 32.71875 
Q 44.484375 40.625 41.703125 44.40625 
Q 38.921875 48.1875 33.109375 48.1875 
Q 26.21875 48.1875 22.15625 43.53125 
Q 18.109375 38.875 18.109375 30.90625 
L 18.109375 0 
L 9.078125 0 
L 9.078125 54.6875 
L 18.109375 54.6875 
L 18.109375 46.1875 
Q 21.1875 51.21875 25.484375 53.609375 
Q 29.78125 56 35.6875 56 
Q 41.65625 56 45.828125 52.96875 
Q 50 49.953125 52 44.1875 
z
" id="DejaVuSans-6d"/>
      <path d="M 56.203125 29.59375 
L 56.203125 25.203125 
L 14.890625 25.203125 
Q 15.484375 15.921875 20.484375 11.0625 
Q 25.484375 6.203125 34.421875 6.203125 
Q 39.59375 6.203125 44.453125 7.46875 
Q 49.3125 8.734375 54.109375 11.28125 
L 54.109375 2.78125 
Q 49.265625 0.734375 44.1875 -0.34375 
Q 39.109375 -1.421875 33.890625 -1.421875 
Q 20.796875 -1.421875 13.15625 6.1875 
Q 5.515625 13.8125 5.515625 26.8125 
Q 5.515625 40.234375 12.765625 48.109375 
Q 20.015625 56 32.328125 56 
Q 43.359375 56 49.78125 48.890625 
Q 56.203125 41.796875 56.203125 29.59375 
z
M 47.21875 32.234375 
Q 47.125 39.59375 43.09375 43.984375 
Q 39.0625 48.390625 32.421875 48.390625 
Q 24.90625 48.390625 20.390625 44.140625 
Q 15.875 39.890625 15.1875 32.171875 
z
" id="DejaVuSans-65"/>
      <path id="DejaVuSans-20"/>
      <path d="M 31 75.875 
Q 24.46875 64.65625 21.28125 53.65625 
Q 18.109375 42.671875 18.109375 31.390625 
Q 18.109375 20.125 21.3125 9.0625 
Q 24.515625 -2 31 -13.1875 
L 23.1875 -13.1875 
Q 15.875 -1.703125 12.234375 9.375 
Q 8.59375 20.453125 8.59375 31.390625 
Q 8.59375 42.28125 12.203125 53.3125 
Q 15.828125 64.359375 23.1875 75.875 
z
" id="DejaVuSans-28"/>
      <path d="M 44.28125 53.078125 
L 44.28125 44.578125 
Q 40.484375 46.53125 36.375 47.5 
Q 32.28125 48.484375 27.875 48.484375 
Q 21.1875 48.484375 17.84375 46.4375 
Q 14.5 44.390625 14.5 40.28125 
Q 14.5 37.15625 16.890625 35.375 
Q 19.28125 33.59375 26.515625 31.984375 
L 29.59375 31.296875 
Q 39.15625 29.25 43.1875 25.515625 
Q 47.21875 21.78125 47.21875 15.09375 
Q 47.21875 7.46875 41.1875 3.015625 
Q 35.15625 -1.421875 24.609375 -1.421875 
Q 20.21875 -1.421875 15.453125 -0.5625 
Q 10.6875 0.296875 5.421875 2 
L 5.421875 11.28125 
Q 10.40625 8.6875 15.234375 7.390625 
Q 20.0625 6.109375 24.8125 6.109375 
Q 31.15625 6.109375 34.5625 8.28125 
Q 37.984375 10.453125 37.984375 14.40625 
Q 37.984375 18.0625 35.515625 20.015625 
Q 33.0625 21.96875 24.703125 23.78125 
L 21.578125 24.515625 
Q 13.234375 26.265625 9.515625 29.90625 
Q 5.8125 33.546875 5.8125 39.890625 
Q 5.8125 47.609375 11.28125 51.796875 
Q 16.75 56 26.8125 56 
Q 31.78125 56 36.171875 55.265625 
Q 40.578125 54.546875 44.28125 53.078125 
z
" id="DejaVuSans-73"/>
      <path d="M 8.015625 75.875 
L 15.828125 75.875 
Q 23.140625 64.359375 26.78125 53.3125 
Q 30.421875 42.28125 30.421875 31.390625 
Q 30.421875 20.453125 26.78125 9.375 
Q 23.140625 -1.703125 15.828125 -13.1875 
L 8.015625 -13.1875 
Q 14.5 -2 17.703125 9.0625 
Q 20.90625 20.125 20.90625 31.390625 
Q 20.90625 42.671875 17.703125 53.65625 
Q 14.5 64.65625 8.015625 75.875 
z
" id="DejaVuSans-29"/>
     </defs>
     <g transform="translate(215.677188 335.860562)scale(0.1 -0.1)">
      <use xlink:href="#DejaVuSans-54"/>
      <use x="61.037109" xlink:href="#DejaVuSans-69"/>
      <use x="88.820312" xlink:href="#DejaVuSans-6d"/>
      <use x="186.232422" xlink:href="#DejaVuSans-65"/>
      <use x="247.755859" xlink:href="#DejaVuSans-20"/>
      <use x="279.542969" xlink:href="#DejaVuSans-28"/>
      <use x="318.556641" xlink:href="#DejaVuSans-73"/>
      <use x="370.65625" xlink:href="#DejaVuSans-29"/>
     </g>
    </g>
   </g>
   <g id="matplotlib.axis_2">
    <g id="ytick_1">
     <g id="line2d_10">
      <defs>
       <path d="M 0 0 
L -3.5 0 
" id="mffff232112" style="stroke:#000000;stroke-width:0.8;"/>
      </defs>
      <g>
       <use style="stroke:#000000;stroke-width:0.8;" x="57.6" xlink:href="#mffff232112" y="307.584"/>
      </g>
     </g>
     <g id="text_11">
      <!-- −50 -->
      <defs>
       <path d="M 10.59375 35.5 
L 73.1875 35.5 
L 73.1875 27.203125 
L 10.59375 27.203125 
z
" id="DejaVuSans-2212"/>
      </defs>
      <g transform="translate(29.495313 311.383219)scale(0.1 -0.1)">
       <use xlink:href="#DejaVuSans-2212"/>
       <use x="83.789062" xlink:href="#DejaVuSans-35"/>
       <use x="147.412109" xlink:href="#DejaVuSans-30"/>
      </g>
     </g>
    </g>
    <g id="ytick_2">
     <g id="line2d_11">
      <g>
       <use style="stroke:#000000;stroke-width:0.8;" x="57.6" xlink:href="#mffff232112" y="274.32"/>
      </g>
     </g>
     <g id="text_12">
      <!-- −40 -->
      <g transform="translate(29.495313 278.119219)scale(0.1 -0.1)">
       <use xlink:href="#DejaVuSans-2212"/>
       <use x="83.789062" xlink:href="#DejaVuSans-34"/>
       <use x="147.412109" xlink:href="#DejaVuSans-30"/>
      </g>
     </g>
    </g>
    <g id="ytick_3">
     <g id="line2d_12">
      <g>
       <use style="stroke:#000000;stroke-width:0.8;" x="57.6" xlink:href="#mffff232112" y="241.056"/>
      </g>
     </g>
     <g id="text_13">
      <!-- −30 -->
      <g transform="translate(29.495313 244.855219)scale(0.1 -0.1)">
       <use xlink:href="#DejaVuSans-2212"/>
       <use x="83.789062" xlink:href="#DejaVuSans-33"/>
       <use x="147.412109" xlink:href="#DejaVuSans-30"/>
      </g>
     </g>
    </g>
    <g id="ytick_4">
     <g id="line2d_13">
      <g>
       <use style="stroke:#000000;stroke-width:0.8;" x="57.6" xlink:href="#mffff232112" y="207.792"/>
      </g>
     </g>
     <g id="text_14">
      <!-- −20 -->
      <g transform="translate(29.495313 211.591219)scale(0.1 -0.1)">
       <use xlink:href="#DejaVuSans-2212"/>
       <use x="83.789062" xlink:href="#DejaVuSans-32"/>
       <use x="147.412109" xlink:href="#DejaVuSans-30"/>
      </g>
     </g>
    </g>
    <g id="ytick_5">
     <g id="line2d_14">
      <g>
       <use style="stroke:#000000;stroke-width:0.8;" x="57.6" xlink:href="#mffff232112" y="174.528"/>
      </g>
     </g>
     <g id="text_15">
      <!-- −10 -->
      <g transform="translate(29.495313 178.327219)scale(0.1 -0.1)">
       <use xlink:href="#DejaVuSans-2212"/>
       <use x="83.789062" xlink:href="#DejaVuSans-31"/>
       <use x="147.412109" xlink:href="#DejaVuSans-30"/>
      </g>
     </g>
    </g>
    <g id="ytick_6">
     <g id="line2d_15">
      <g>
       <use style="stroke:#000000;stroke-width:0.8;" x="57.6" xlink:href="#mffff232112" y="141.264"/>
      </g>
     </g>
     <g id="text_16">
      <!-- 0 -->
      <g transform="translate(44.2375 145.063219)scale(0.1 -0.1)">
       <use xlink:href="#DejaVuSans-30"/>
      </g>
     </g>
    </g>
    <g id="ytick_7">
     <g id="line2d_16">
      <g>
       <use style="stroke:#000000;stroke-width:0.8;" x="57.6" xlink:href="#mffff232112" y="108"/>
      </g>
     </g>
     <g id="text_17">
      <!-- 10 -->
      <g transform="translate(37.875 111.799219)scale(0.1 -0.1)">
       <use xlink:href="#DejaVuSans-31"/>
       <use x="63.623047" xlink:href="#DejaVuSans-30"/>
      </g>
     </g>
    </g>
    <g id="ytick_8">
     <g id="line2d_17">
      <g>
       <use style="stroke:#000000;stroke-width:0.8;" x="57.6" xlink:href="#mffff232112" y="74.736"/>
      </g>
     </g>
     <g id="text_18">
      <!-- 20 -->
      <g transform="translate(37.875 78.535219)scale(0.1 -0.1)">
       <use xlink:href="#DejaVuSans-32"/>
       <use x="63.623047" xlink:href="#DejaVuSans-30"/>
      </g>
     </g>
    </g>
    <g id="ytick_9">
     <g id="line2d_18">
      <g>
       <use style="stroke:#000000;stroke-width:0.8;" x="57.6" xlink:href="#mffff232112" y="41.472"/>
      </g>
     </g>
     <g id="text_19">
      <!-- 30 -->
      <g transform="translate(37.875 45.271219)scale(0.1 -0.1)">
       <use xlink:href="#DejaVuSans-33"/>
       <use x="63.623047" xlink:href="#DejaVuSans-30"/>
      </g>
     </g>
    </g>
    <g id="text_20">
     <!-- Voltage ($\mu$V) -->
     <defs>
      <path d="M 28.609375 0 
L 0.78125 72.90625 
L 11.078125 72.90625 
L 34.1875 11.53125 
L 57.328125 72.90625 
L 67.578125 72.90625 
L 39.796875 0 
z
" id="DejaVuSans-56"/>
      <path d="M 30.609375 48.390625 
Q 23.390625 48.390625 19.1875 42.75 
Q 14.984375 37.109375 14.984375 27.296875 
Q 14.984375 17.484375 19.15625 11.84375 
Q 23.34375 6.203125 30.609375 6.203125 
Q 37.796875 6.203125 41.984375 11.859375 
Q 46.1875 17.53125 46.1875 27.296875 
Q 46.1875 37.015625 41.984375 42.703125 
Q 37.796875 48.390625 30.609375 48.390625 
z
M 30.609375 56 
Q 42.328125 56 49.015625 48.375 
Q 55.71875 40.765625 55.71875 27.296875 
Q 55.71875 13.875 49.015625 6.21875 
Q 42.328125 -1.421875 30.609375 -1.421875 
Q 18.84375 -1.421875 12.171875 6.21875 
Q 5.515625 13.875 5.515625 27.296875 
Q 5.515625 40.765625 12.171875 48.375 
Q 18.84375 56 30.609375 56 
z
" id="DejaVuSans-6f"/>
      <path d="M 9.421875 75.984375 
L 18.40625 75.984375 
L 18.40625 0 
L 9.421875 0 
z
" id="DejaVuSans-6c"/>
      <path d="M 18.3125 70.21875 
L 18.3125 54.6875 
L 36.8125 54.6875 
L 36.8125 47.703125 
L 18.3125 47.703125 
L 18.3125 18.015625 
Q 18.3125 11.328125 20.140625 9.421875 
Q 21.96875 7.515625 27.59375 7.515625 
L 36.8125 7.515625 
L 36.8125 0 
L 27.59375 0 
Q 17.1875 0 13.234375 3.875 
Q 9.28125 7.765625 9.28125 18.015625 
L 9.28125 47.703125 
L 2.6875 47.703125 
L 2.6875 54.6875 
L 9.28125 54.6875 
L 9.28125 70.21875 
z
" id="DejaVuSans-74"/>
      <path d="M 34.28125 27.484375 
Q 23.390625 27.484375 19.1875 25 
Q 14.984375 22.515625 14.984375 16.5 
Q 14.984375 11.71875 18.140625 8.90625 
Q 21.296875 6.109375 26.703125 6.109375 
Q 34.1875 6.109375 38.703125 11.40625 
Q 43.21875 16.703125 43.21875 25.484375 
L 43.21875 27.484375 
z
M 52.203125 31.203125 
L 52.203125 0 
L 43.21875 0 
L 43.21875 8.296875 
Q 40.140625 3.328125 35.546875 0.953125 
Q 30.953125 -1.421875 24.3125 -1.421875 
Q 15.921875 -1.421875 10.953125 3.296875 
Q 6 8.015625 6 15.921875 
Q 6 25.140625 12.171875 29.828125 
Q 18.359375 34.515625 30.609375 34.515625 
L 43.21875 34.515625 
L 43.21875 35.40625 
Q 43.21875 41.609375 39.140625 45 
Q 35.0625 48.390625 27.6875 48.390625 
Q 23 48.390625 18.546875 47.265625 
Q 14.109375 46.140625 10.015625 43.890625 
L 10.015625 52.203125 
Q 14.9375 54.109375 19.578125 55.046875 
Q 24.21875 56 28.609375 56 
Q 40.484375 56 46.34375 49.84375 
Q 52.203125 43.703125 52.203125 31.203125 
z
" id="DejaVuSans-61"/>
      <path d="M 45.40625 27.984375 
Q 45.40625 37.75 41.375 43.109375 
Q 37.359375 48.484375 30.078125 48.484375 
Q 22.859375 48.484375 18.828125 43.109375 
Q 14.796875 37.75 14.796875 27.984375 
Q 14.796875 18.265625 18.828125 12.890625 
Q 22.859375 7.515625 30.078125 7.515625 
Q 37.359375 7.515625 41.375 12.890625 
Q 45.40625 18.265625 45.40625 27.984375 
z
M 54.390625 6.78125 
Q 54.390625 -7.171875 48.1875 -13.984375 
Q 42 -20.796875 29.203125 -20.796875 
Q 24.46875 -20.796875 20.265625 -20.09375 
Q 16.0625 -19.390625 12.109375 -17.921875 
L 12.109375 -9.1875 
Q 16.0625 -11.328125 19.921875 -12.34375 
Q 23.78125 -13.375 27.78125 -13.375 
Q 36.625 -13.375 41.015625 -8.765625 
Q 45.40625 -4.15625 45.40625 5.171875 
L 45.40625 9.625 
Q 42.625 4.78125 38.28125 2.390625 
Q 33.9375 0 27.875 0 
Q 17.828125 0 11.671875 7.65625 
Q 5.515625 15.328125 5.515625 27.984375 
Q 5.515625 40.671875 11.671875 48.328125 
Q 17.828125 56 27.875 56 
Q 33.9375 56 38.28125 53.609375 
Q 42.625 51.21875 45.40625 46.390625 
L 45.40625 54.6875 
L 54.390625 54.6875 
z
" id="DejaVuSans-67"/>
      <path d="M -1.3125 -20.796875 
L 13.375 54.6875 
L 22.40625 54.6875 
L 15.765625 20.65625 
Q 15.578125 19.625 15.421875 18.359375 
Q 15.28125 17.09375 15.28125 15.828125 
Q 15.28125 11.28125 18.140625 8.828125 
Q 21 6.390625 26.3125 6.390625 
Q 33.546875 6.390625 37.984375 10.484375 
Q 42.4375 14.59375 44 22.796875 
L 50.203125 54.6875 
L 59.1875 54.6875 
L 51.03125 12.640625 
Q 50.828125 11.71875 50.75 11.03125 
Q 50.6875 10.359375 50.6875 9.8125 
Q 50.6875 8.296875 51.296875 7.59375 
Q 51.90625 6.890625 53.21875 6.890625 
Q 53.71875 6.890625 54.5625 7.125 
Q 55.421875 7.375 56.984375 8.015625 
L 55.609375 0.78125 
Q 53.46875 -0.296875 51.515625 -0.859375 
Q 49.5625 -1.421875 47.703125 -1.421875 
Q 44.484375 -1.421875 42.65625 0.625 
Q 40.828125 2.6875 40.828125 6.296875 
Q 38.09375 2.390625 34.296875 0.484375 
Q 30.515625 -1.421875 25.390625 -1.421875 
Q 20.84375 -1.421875 17.453125 0.671875 
Q 14.0625 2.78125 12.984375 6.203125 
L 7.71875 -20.796875 
z
" id="DejaVuSans-Oblique-3bc"/>
     </defs>
     <g transform="translate(23.395312 205.778)rotate(-90)scale(0.1 -0.1)">
      <use transform="translate(0 0.015625)" xlink:href="#DejaVuSans-56"/>
      <use transform="translate(68.408203 0.015625)" xlink:href="#DejaVuSans-6f"/>
      <use transform="translate(129.589844 0.015625)" xlink:href="#DejaVuSans-6c"/>
      <use transform="translate(157.373047 0.015625)" xlink:href="#DejaVuSans-74"/>
      <use transform="translate(196.582031 0.015625)" xlink:href="#DejaVuSans-61"/>
      <use transform="translate(257.861328 0.015625)" xlink:href="#DejaVuSans-67"/>
      <use transform="translate(321.337891 0.015625)" xlink:href="#DejaVuSans-65"/>
      <use transform="translate(382.861328 0.015625)" xlink:href="#DejaVuSans-20"/>
      <use transform="translate(414.648438 0.015625)" xlink:href="#DejaVuSans-28"/>
      <use transform="translate(453.662109 0.015625)" xlink:href="#DejaVuSans-Oblique-3bc"/>
      <use transform="translate(517.285156 0.015625)" xlink:href="#DejaVuSans-56"/>
      <use transform="translate(585.693359 0.015625)" xlink:href="#DejaVuSans-29"/>
     </g>
    </g>
   </g>
   <g id="line2d_19">
    <path clip-path="url(#pfaf9cfb900)" d="M 73.832727 138.91696 
L 84.305455 138.627414 
L 94.778182 138.579222 
L 105.250909 139.35825 
L 115.723636 143.183291 
L 126.196364 153.877795 
L 136.669091 174.373469 
L 147.141818 202.805984 
L 157.614545 231.411352 
L 168.087273 250.380833 
L 178.56 254.198307 
L 189.032727 244.591495 
L 199.505455 227.671143 
L 209.978182 208.988022 
L 220.450909 190.806331 
L 230.923636 172.820193 
L 241.396364 154.703819 
L 251.869091 137.289207 
L 262.341818 121.771981 
L 272.814545 108.290343 
L 283.287273 96.072833 
L 293.76 85.052141 
L 304.232727 76.127178 
L 314.705455 69.918455 
L 325.178182 65.956805 
L 335.650909 62.985667 
L 346.123636 59.996607 
L 356.596364 57.257266 
L 367.069091 55.917466 
L 377.541818 56.635159 
L 388.014545 59.172176 
L 398.487273 62.635583 
" style="fill:none;stroke:#000000;stroke-linecap:square;stroke-width:1.5;"/>
   </g>
   <g id="line2d_20">
    <path clip-path="url(#pfaf9cfb900)" d="M 73.832727 157.58415 
L 84.305455 153.63405 
L 94.778182 152.2827 
L 105.250909 153.5301 
L 115.723636 157.6881 
L 126.196364 164.3409 
L 136.669091 175.67145 
L 147.141818 194.4864 
L 157.614545 222.24105 
L 168.087273 255.08925 
L 178.56 284.40315 
L 189.032727 300.3075 
L 199.505455 297.3969 
L 209.978182 275.7753 
L 220.450909 241.15995 
L 230.923636 202.3866 
L 241.396364 172.13715 
L 251.869091 156.4407 
L 262.341818 145.8378 
L 272.814545 127.64655 
L 283.287273 103.11435 
L 293.76 84.61125 
L 304.232727 82.94805 
L 314.705455 88.4574 
L 325.178182 83.8836 
L 335.650909 68.18715 
L 346.123636 51.6591 
L 356.596364 39.8088 
L 367.069091 30.55725 
L 377.541818 23.28075 
L 388.014545 22.5531 
L 398.487273 30.2454 
" style="fill:none;stroke:#ff0000;stroke-linecap:square;stroke-width:1.5;"/>
   </g>
   <g id="line2d_21">
    <path clip-path="url(#pfaf9cfb900)" d="M 73.832727 115.0686 
L 84.305455 112.158 
L 94.778182 114.75675 
L 105.250909 123.5925 
L 115.723636 135.8586 
L 126.196364 154.88145 
L 136.669091 183.36375 
L 147.141818 211.01445 
L 157.614545 229.4136 
L 168.087273 244.5903 
L 178.56 264.86055 
L 189.032727 287.72955 
L 199.505455 300.3075 
L 209.978182 291.7836 
L 220.450909 267.2514 
L 230.923636 241.056 
L 241.396364 224.0082 
L 251.869091 217.25145 
L 262.341818 208.10385 
L 272.814545 184.7151 
L 283.287273 148.02075 
L 293.76 111.5343 
L 304.232727 88.2495 
L 314.705455 79.20585 
L 325.178182 74.736 
L 335.650909 65.48445 
L 346.123636 56.4408 
L 356.596364 55.92105 
L 367.069091 59.66325 
L 377.541818 59.7672 
L 388.014545 56.2329 
L 398.487273 52.2828 
" style="fill:none;stroke:#ff1e00;stroke-linecap:square;stroke-width:1.5;"/>
   </g>
   <g id="line2d_22">
    <path clip-path="url(#pfaf9cfb900)" d="M 73.832727 111.63825 
L 84.305455 104.8815 
L 94.778182 104.36175 
L 105.250909 113.50935 
L 115.723636 133.9875 
L 126.196364 161.95005 
L 136.669091 190.1205 
L 147.141818 213.09345 
L 157.614545 230.14125 
L 168.087273 239.28885 
L 178.56 236.4822 
L 189.032727 219.53835 
L 199.505455 195.21405 
L 209.978182 173.9043 
L 220.450909 159.45525 
L 230.923636 149.58 
L 241.396364 140.2245 
L 251.869091 126.9189 
L 262.341818 110.079 
L 272.814545 94.79835 
L 283.287273 82.8441 
L 293.76 72.96885 
L 304.232727 67.56345 
L 314.705455 67.77135 
L 325.178182 70.7859 
L 335.650909 73.6965 
L 346.123636 78.4782 
L 356.596364 90.5364 
L 367.069091 109.0395 
L 377.541818 125.2557 
L 388.014545 134.29935 
L 398.487273 142.7193 
" style="fill:none;stroke:#ff3b00;stroke-linecap:square;stroke-width:1.5;"/>
   </g>
   <g id="line2d_23">
    <path clip-path="url(#pfaf9cfb900)" d="M 73.832727 167.56335 
L 84.305455 154.46565 
L 94.778182 138.9771 
L 105.250909 132.3243 
L 115.723636 144.27855 
L 126.196364 168.18705 
L 136.669091 190.84815 
L 147.141818 209.0394 
L 157.614545 228.3741 
L 168.087273 244.90215 
L 178.56 251.8668 
L 189.032727 251.451 
L 199.505455 244.69425 
L 209.978182 224.73585 
L 220.450909 193.8627 
L 230.923636 166.8357 
L 241.396364 150.4116 
L 251.869091 136.37835 
L 262.341818 117.3555 
L 272.814545 96.7734 
L 283.287273 78.0624 
L 293.76 60.28695 
L 304.232727 49.26825 
L 314.705455 49.5801 
L 325.178182 51.55515 
L 335.650909 39.393 
L 346.123636 16.3161 
L 356.596364 5.60925 
L 367.069091 16.9398 
L 377.541818 34.50735 
L 388.014545 37.314 
L 398.487273 23.5926 
" style="fill:none;stroke:#ff5900;stroke-linecap:square;stroke-width:1.5;"/>
   </g>
   <g id="line2d_24">
    <path clip-path="url(#pfaf9cfb900)" d="M 73.832727 125.6715 
L 84.305455 139.185 
L 94.778182 141.16005 
L 105.250909 129.6216 
L 115.723636 121.7214 
L 126.196364 133.05195 
L 136.669091 160.70265 
L 147.141818 192.8232 
L 157.614545 220.8897 
L 168.087273 244.48635 
L 178.56 267.35535 
L 189.032727 286.1703 
L 199.505455 290.5362 
L 209.978182 276.6069 
L 220.450909 251.55495 
L 230.923636 223.5924 
L 241.396364 193.55085 
L 251.869091 159.03945 
L 262.341818 125.6715 
L 272.814545 106.64865 
L 283.287273 104.6736 
L 293.76 105.7131 
L 304.232727 97.29315 
L 314.705455 80.03745 
L 325.178182 61.2225 
L 335.650909 50.4117 
L 346.123636 50.4117 
L 356.596364 51.13935 
L 367.069091 43.1352 
L 377.541818 30.4533 
L 388.014545 21.61755 
L 398.487273 20.78595 
" style="fill:none;stroke:#ff7600;stroke-linecap:square;stroke-width:1.5;"/>
   </g>
   <g id="line2d_25">
    <path clip-path="url(#pfaf9cfb900)" d="M 73.832727 167.4594 
L 84.305455 170.68185 
L 94.778182 174.3201 
L 105.250909 177.0228 
L 115.723636 177.75045 
L 126.196364 179.1018 
L 136.669091 186.69015 
L 147.141818 203.73795 
L 157.614545 223.90425 
L 168.087273 232.74 
L 178.56 221.61735 
L 189.032727 195.7338 
L 199.505455 170.68185 
L 209.978182 160.3908 
L 220.450909 163.82115 
L 230.923636 166.52385 
L 241.396364 153.63405 
L 251.869091 123.1767 
L 262.341818 87.31395 
L 272.814545 61.2225 
L 283.287273 50.51565 
L 293.76 51.867 
L 304.232727 60.5988 
L 314.705455 72.0333 
L 325.178182 80.24535 
L 335.650909 83.36385 
L 346.123636 82.32435 
L 356.596364 80.66115 
L 367.069091 79.82955 
L 377.541818 80.24535 
L 388.014545 79.9335 
L 398.487273 73.38465 
" style="fill:none;stroke:#ff9400;stroke-linecap:square;stroke-width:1.5;"/>
   </g>
   <g id="line2d_26">
    <path clip-path="url(#pfaf9cfb900)" d="M 73.832727 120.78585 
L 84.305455 125.8794 
L 94.778182 129.8295 
L 105.250909 135.54675 
L 115.723636 146.2536 
L 126.196364 160.3908 
L 136.669091 178.2702 
L 147.141818 199.476 
L 157.614545 220.99365 
L 168.087273 235.4427 
L 178.56 234.6111 
L 189.032727 218.91465 
L 199.505455 199.16415 
L 209.978182 182.94795 
L 220.450909 168.9147 
L 230.923636 157.99995 
L 241.396364 152.80245 
L 251.869091 149.68395 
L 262.341818 142.82325 
L 272.814545 129.10185 
L 283.287273 108.8316 
L 293.76 89.9127 
L 304.232727 78.6861 
L 314.705455 73.17675 
L 325.178182 70.68195 
L 335.650909 73.59255 
L 346.123636 78.79005 
L 356.596364 78.16635 
L 367.069091 71.8254 
L 377.541818 66.73185 
L 388.014545 65.7963 
L 398.487273 67.97925 
" style="fill:none;stroke:#ffb100;stroke-linecap:square;stroke-width:1.5;"/>
   </g>
   <g id="line2d_27">
    <path clip-path="url(#pfaf9cfb900)" d="M 73.832727 142.3035 
L 84.305455 141.8877 
L 94.778182 151.97085 
L 105.250909 166.8357 
L 115.723636 178.99785 
L 126.196364 185.9625 
L 136.669091 193.239 
L 147.141818 207.792 
L 157.614545 231.18075 
L 168.087273 259.9749 
L 178.56 284.81895 
L 189.032727 294.59025 
L 199.505455 282.636 
L 209.978182 253.21815 
L 220.450909 218.91465 
L 230.923636 192.6153 
L 241.396364 180.3492 
L 251.869091 175.25565 
L 262.341818 166.4199 
L 272.814545 148.64445 
L 283.287273 126.39915 
L 293.76 106.85655 
L 304.232727 87.8337 
L 314.705455 66.93975 
L 325.178182 49.3722 
L 335.650909 39.8088 
L 346.123636 35.6508 
L 356.596364 30.34935 
L 367.069091 23.5926 
L 377.541818 21.61755 
L 388.014545 24.2163 
L 398.487273 26.81505 
" style="fill:none;stroke:#ffcf00;stroke-linecap:square;stroke-width:1.5;"/>
   </g>
   <g id="line2d_28">
    <path clip-path="url(#pfaf9cfb900)" d="M 73.832727 189.081 
L 84.305455 177.4386 
L 94.778182 149.89185 
L 105.250909 131.18085 
L 115.723636 134.71515 
L 126.196364 153.5301 
L 136.669091 177.2307 
L 147.141818 205.60905 
L 157.614545 236.898 
L 168.087273 256.54455 
L 178.56 255.29715 
L 189.032727 235.4427 
L 199.505455 207.1683 
L 209.978182 184.7151 
L 220.450909 174.42405 
L 230.923636 166.6278 
L 241.396364 146.98125 
L 251.869091 116.21205 
L 262.341818 88.97715 
L 272.814545 77.0229 
L 283.287273 77.75055 
L 293.76 77.2308 
L 304.232727 67.35555 
L 314.705455 56.2329 
L 325.178182 56.025 
L 335.650909 67.77135 
L 346.123636 82.11645 
L 356.596364 92.8233 
L 367.069091 100.3077 
L 377.541818 101.5551 
L 388.014545 97.08525 
L 398.487273 92.09565 
" style="fill:none;stroke:#ffec00;stroke-linecap:square;stroke-width:1.5;"/>
   </g>
   <g id="line2d_29">
    <path clip-path="url(#pfaf9cfb900)" d="M 73.832727 151.34715 
L 84.305455 149.7879 
L 94.778182 148.02075 
L 105.250909 145.31805 
L 115.723636 146.0457 
L 126.196364 156.0249 
L 136.669091 175.9833 
L 147.141818 204.0498 
L 157.614545 238.1454 
L 168.087273 274.1121 
L 178.56 301.45095 
L 189.032727 308.2077 
L 199.505455 295.11 
L 209.978182 273.6963 
L 220.450909 252.17865 
L 230.923636 227.1267 
L 241.396364 189.80865 
L 251.869091 143.1351 
L 262.341818 107.89605 
L 272.814545 102.5946 
L 283.287273 119.74635 
L 293.76 134.1954 
L 304.232727 128.47815 
L 314.705455 108 
L 325.178182 89.18505 
L 335.650909 80.66115 
L 346.123636 76.6071 
L 356.596364 65.5884 
L 367.069091 43.03125 
L 377.541818 16.21215 
L 388.014545 1.7631 
L 398.487273 10.39095 
" style="fill:none;stroke:#eeff00;stroke-linecap:square;stroke-width:1.5;"/>
   </g>
   <g id="line2d_30">
    <path clip-path="url(#pfaf9cfb900)" d="M 73.832727 132.1164 
L 84.305455 124.2162 
L 94.778182 124.32015 
L 105.250909 134.09145 
L 115.723636 152.6985 
L 126.196364 173.59245 
L 136.669091 191.5758 
L 147.141818 209.871 
L 157.614545 228.06225 
L 168.087273 234.1953 
L 178.56 219.0186 
L 189.032727 191.67975 
L 199.505455 170.1621 
L 209.978182 164.02905 
L 220.450909 167.2515 
L 230.923636 168.291 
L 241.396364 158.83155 
L 251.869091 132.63615 
L 262.341818 99.16425 
L 272.814545 79.5177 
L 283.287273 80.66115 
L 293.76 87.6258 
L 304.232727 84.81915 
L 314.705455 73.4886 
L 325.178182 67.56345 
L 335.650909 74.736 
L 346.123636 84.2994 
L 356.596364 79.9335 
L 367.069091 64.23705 
L 377.541818 58.83165 
L 388.014545 74.21625 
L 398.487273 95.42205 
" style="fill:none;stroke:#d1ff00;stroke-linecap:square;stroke-width:1.5;"/>
   </g>
   <g id="line2d_31">
    <path clip-path="url(#pfaf9cfb900)" d="M 73.832727 139.8087 
L 84.305455 141.78375 
L 94.778182 144.90225 
L 105.250909 149.1642 
L 115.723636 156.4407 
L 126.196364 170.68185 
L 136.669091 188.8731 
L 147.141818 206.02485 
L 157.614545 223.90425 
L 168.087273 240.8481 
L 178.56 250.72335 
L 189.032727 252.4905 
L 199.505455 245.11005 
L 209.978182 226.60695 
L 220.450909 201.65895 
L 230.923636 180.24525 
L 241.396364 166.6278 
L 251.869091 156.4407 
L 262.341818 143.44695 
L 272.814545 125.4636 
L 283.287273 104.36175 
L 293.76 83.98755 
L 304.232727 66.0042 
L 314.705455 51.13935 
L 325.178182 39.28905 
L 335.650909 27.5427 
L 346.123636 14.13315 
L 356.596364 2.90655 
L 367.069091 2.49075 
L 377.541818 16.1082 
L 388.014545 34.71525 
L 398.487273 44.48655 
" style="fill:none;stroke:#b3ff00;stroke-linecap:square;stroke-width:1.5;"/>
   </g>
   <g id="line2d_32">
    <path clip-path="url(#pfaf9cfb900)" d="M 73.832727 145.0062 
L 84.305455 145.422 
L 94.778182 146.14965 
L 105.250909 154.3617 
L 115.723636 170.7858 
L 126.196364 189.4968 
L 136.669091 204.6735 
L 147.141818 217.04355 
L 157.614545 231.2847 
L 168.087273 248.9562 
L 178.56 266.8356 
L 189.032727 281.1807 
L 199.505455 286.794 
L 209.978182 279.20565 
L 220.450909 260.70255 
L 230.923636 241.2639 
L 241.396364 228.06225 
L 251.869091 214.2369 
L 262.341818 188.14545 
L 272.814545 151.13925 
L 283.287273 114.4449 
L 293.76 88.14555 
L 304.232727 76.29525 
L 314.705455 74.21625 
L 325.178182 72.96885 
L 335.650909 71.30565 
L 346.123636 68.0832 
L 356.596364 57.4803 
L 367.069091 41.2641 
L 377.541818 27.02295 
L 388.014545 17.45955 
L 398.487273 10.39095 
" style="fill:none;stroke:#96ff00;stroke-linecap:square;stroke-width:1.5;"/>
   </g>
   <g id="line2d_33">
    <path clip-path="url(#pfaf9cfb900)" d="M 73.832727 147.60495 
L 84.305455 135.96255 
L 94.778182 125.8794 
L 105.250909 122.553 
L 115.723636 123.28065 
L 126.196364 131.7006 
L 136.669091 158.9355 
L 147.141818 203.73795 
L 157.614545 247.0851 
L 168.087273 265.7961 
L 178.56 253.3221 
L 189.032727 225.35955 
L 199.505455 202.3866 
L 209.978182 190.84815 
L 220.450909 181.8045 
L 230.923636 164.3409 
L 241.396364 139.08105 
L 251.869091 115.79625 
L 262.341818 105.5052 
L 272.814545 107.1684 
L 283.287273 104.6736 
L 293.76 87.93765 
L 304.232727 66.73185 
L 314.705455 59.5593 
L 325.178182 72.55305 
L 335.650909 91.88775 
L 346.123636 101.45115 
L 356.596364 98.12475 
L 367.069091 90.01665 
L 377.541818 85.5468 
L 388.014545 87.31395 
L 398.487273 95.62995 
" style="fill:none;stroke:#78ff00;stroke-linecap:square;stroke-width:1.5;"/>
   </g>
   <g id="line2d_34">
    <path clip-path="url(#pfaf9cfb900)" d="M 73.832727 129.8295 
L 84.305455 137.20995 
L 94.778182 151.2432 
L 105.250909 156.75255 
L 115.723636 149.9958 
L 126.196364 145.94175 
L 136.669091 161.4303 
L 147.141818 196.04565 
L 157.614545 233.46765 
L 168.087273 258.7275 
L 178.56 269.01855 
L 189.032727 271.30545 
L 199.505455 272.0331 
L 209.978182 265.06845 
L 220.450909 240.6402 
L 230.923636 206.23275 
L 241.396364 179.82945 
L 251.869091 163.19745 
L 262.341818 143.343 
L 272.814545 113.8212 
L 283.287273 87.0021 
L 293.76 74.736 
L 304.232727 69.01875 
L 314.705455 56.12895 
L 325.178182 39.393 
L 335.650909 29.10195 
L 346.123636 26.5032 
L 356.596364 25.2558 
L 367.069091 19.12275 
L 377.541818 9.76725 
L 388.014545 5.81715 
L 398.487273 11.9502 
" style="fill:none;stroke:#5bff00;stroke-linecap:square;stroke-width:1.5;"/>
   </g>
   <g id="line2d_35">
    <path clip-path="url(#pfaf9cfb900)" d="M 73.832727 145.52595 
L 84.305455 146.6694 
L 94.778182 152.6985 
L 105.250909 163.5093 
L 115.723636 173.6964 
L 126.196364 178.4781 
L 136.669091 181.5966 
L 147.141818 193.34295 
L 157.614545 219.0186 
L 168.087273 255.50505 
L 178.56 290.3283 
L 189.032727 304.8813 
L 199.505455 290.952 
L 209.978182 261.846 
L 220.450909 235.33875 
L 230.923636 215.6922 
L 241.396364 194.6943 
L 251.869091 166.212 
L 262.341818 133.9875 
L 272.814545 107.68815 
L 283.287273 95.7339 
L 293.76 95.3181 
L 304.232727 93.75885 
L 314.705455 83.98755 
L 325.178182 66.8358 
L 335.650909 47.60505 
L 346.123636 33.46785 
L 356.596364 28.06245 
L 367.069091 29.30985 
L 377.541818 33.25995 
L 388.014545 37.00215 
L 398.487273 35.4429 
" style="fill:none;stroke:#3dff00;stroke-linecap:square;stroke-width:1.5;"/>
   </g>
   <g id="line2d_36">
    <path clip-path="url(#pfaf9cfb900)" d="M 73.832727 123.8004 
L 84.305455 121.20165 
L 94.778182 124.52805 
L 105.250909 132.3243 
L 115.723636 137.106 
L 126.196364 142.61535 
L 136.669091 160.5987 
L 147.141818 190.1205 
L 157.614545 220.16205 
L 168.087273 241.99155 
L 178.56 252.9063 
L 189.032727 250.6194 
L 199.505455 235.13085 
L 209.978182 215.2764 
L 220.450909 201.45105 
L 230.923636 192.1995 
L 241.396364 181.3887 
L 251.869091 167.8752 
L 262.341818 153.9459 
L 272.814545 135.027 
L 283.287273 106.02495 
L 293.76 75.87945 
L 304.232727 59.66325 
L 314.705455 58.62375 
L 325.178182 58.20795 
L 335.650909 48.9564 
L 346.123636 34.71525 
L 356.596364 25.2558 
L 367.069091 26.2953 
L 377.541818 32.1165 
L 388.014545 32.63625 
L 398.487273 27.5427 
" style="fill:none;stroke:#20ff00;stroke-linecap:square;stroke-width:1.5;"/>
   </g>
   <g id="line2d_37">
    <path clip-path="url(#pfaf9cfb900)" d="M 73.832727 180.765 
L 84.305455 188.0415 
L 94.778182 177.6465 
L 105.250909 160.70265 
L 115.723636 153.5301 
L 126.196364 161.95005 
L 136.669091 181.49265 
L 147.141818 206.02485 
L 157.614545 230.661 
L 168.087273 248.7483 
L 178.56 253.53 
L 189.032727 245.8377 
L 199.505455 233.05185 
L 209.978182 222.9687 
L 220.450909 214.6527 
L 230.923636 199.16415 
L 241.396364 174.528 
L 251.869091 152.0748 
L 262.341818 140.53635 
L 272.814545 131.80455 
L 283.287273 115.79625 
L 293.76 96.46155 
L 304.232727 81.5967 
L 314.705455 66.73185 
L 325.178182 48.02085 
L 335.650909 29.2059 
L 346.123636 12.5739 
L 356.329157 -1 
M 390.287716 -1 
L 398.487273 13.4055 
" style="fill:none;stroke:#04ff08;stroke-linecap:square;stroke-width:1.5;"/>
   </g>
   <g id="line2d_38">
    <path clip-path="url(#pfaf9cfb900)" d="M 73.832727 176.71095 
L 84.305455 178.99785 
L 94.778182 179.41365 
L 105.250909 183.77955 
L 115.723636 193.55085 
L 126.196364 200.9313 
L 136.669091 204.36165 
L 147.141818 210.80655 
L 157.614545 222.7608 
L 168.087273 237.00195 
L 178.56 249.89175 
L 189.032727 256.0248 
L 199.505455 251.13915 
L 209.978182 233.5716 
L 220.450909 207.5841 
L 230.923636 184.2993 
L 241.396364 171.8253 
L 251.869091 166.93965 
L 262.341818 163.3014 
L 272.814545 155.08935 
L 283.287273 141.0561 
L 293.76 127.7505 
L 304.232727 116.5239 
L 314.705455 97.29315 
L 325.178182 67.2516 
L 335.650909 43.03125 
L 346.123636 40.32855 
L 356.596364 58.3119 
L 367.069091 83.052 
L 377.541818 99.2682 
L 388.014545 103.0104 
L 398.487273 101.45115 
" style="fill:none;stroke:#00ff21;stroke-linecap:square;stroke-width:1.5;"/>
   </g>
   <g id="line2d_39">
    <path clip-path="url(#pfaf9cfb900)" d="M 73.832727 133.88355 
L 84.305455 138.7692 
L 94.778182 128.9979 
L 105.250909 111.1185 
L 115.723636 105.60915 
L 126.196364 122.9688 
L 136.669091 157.37625 
L 147.141818 196.1496 
L 157.614545 226.0872 
L 168.087273 241.36785 
L 178.56 243.3429 
L 189.032727 233.9874 
L 199.505455 214.029 
L 209.978182 182.94795 
L 220.450909 146.14965 
L 230.923636 118.6029 
L 241.396364 109.35135 
L 251.869091 109.6632 
L 262.341818 103.842 
L 272.814545 88.76925 
L 283.287273 74.00835 
L 293.76 66.2121 
L 304.232727 66.0042 
L 314.705455 71.4096 
L 325.178182 77.8545 
L 335.650909 77.54265 
L 346.123636 69.1227 
L 356.596364 60.91065 
L 367.069091 59.03955 
L 377.541818 62.98965 
L 388.014545 70.9938 
L 398.487273 77.75055 
" style="fill:none;stroke:#00ff3f;stroke-linecap:square;stroke-width:1.5;"/>
   </g>
   <g id="line2d_40">
    <path clip-path="url(#pfaf9cfb900)" d="M 73.832727 150.72345 
L 84.305455 157.37625 
L 94.778182 166.73175 
L 105.250909 172.34505 
L 115.723636 171.92925 
L 126.196364 172.76085 
L 136.669091 185.1309 
L 147.141818 209.4552 
L 157.614545 230.97285 
L 168.087273 237.5217 
L 178.56 228.06225 
L 189.032727 216.00405 
L 199.505455 216.62775 
L 209.978182 221.3055 
L 220.450909 214.029 
L 230.923636 195.318 
L 241.396364 174.7359 
L 251.869091 158.7276 
L 262.341818 147.39705 
L 272.814545 134.50725 
L 283.287273 114.237 
L 293.76 87.72975 
L 304.232727 61.6383 
L 314.705455 44.3826 
L 325.178182 43.551 
L 335.650909 53.7381 
L 346.123636 55.92105 
L 356.596364 40.0167 
L 367.069091 20.8899 
L 377.541818 16.00425 
L 388.014545 20.16225 
L 398.487273 18.91485 
" style="fill:none;stroke:#00ff5c;stroke-linecap:square;stroke-width:1.5;"/>
   </g>
   <g id="line2d_41">
    <path clip-path="url(#pfaf9cfb900)" d="M 73.832727 151.4511 
L 84.305455 146.98125 
L 94.778182 146.8773 
L 105.250909 149.58 
L 115.723636 156.54465 
L 126.196364 169.22655 
L 136.669091 185.44275 
L 147.141818 203.8419 
L 157.614545 222.65685 
L 168.087273 243.44685 
L 178.56 267.77115 
L 189.032727 282.73995 
L 199.505455 270.7857 
L 209.978182 235.6506 
L 220.450909 199.57995 
L 230.923636 177.4386 
L 241.396364 170.05815 
L 251.869091 167.77125 
L 262.341818 157.896 
L 272.814545 135.2349 
L 283.287273 103.2183 
L 293.76 71.6175 
L 304.232727 51.97095 
L 314.705455 45.4221 
L 325.178182 45.31815 
L 335.650909 45.4221 
L 346.123636 38.3535 
L 356.596364 18.29115 
L 364.902089 -1 
M 393.896961 -1 
L 398.487273 7.06455 
" style="fill:none;stroke:#00ff7a;stroke-linecap:square;stroke-width:1.5;"/>
   </g>
   <g id="line2d_42">
    <path clip-path="url(#pfaf9cfb900)" d="M 73.832727 148.1247 
L 84.305455 148.85235 
L 94.778182 157.4802 
L 105.250909 164.9646 
L 115.723636 163.82115 
L 126.196364 159.5592 
L 136.669091 169.64235 
L 147.141818 201.24315 
L 157.614545 239.1849 
L 168.087273 261.94995 
L 178.56 261.6381 
L 189.032727 243.44685 
L 199.505455 215.79615 
L 209.978182 187.2099 
L 220.450909 165.90015 
L 230.923636 152.59455 
L 241.396364 143.7588 
L 251.869091 139.28895 
L 262.341818 135.6507 
L 272.814545 127.64655 
L 283.287273 118.395 
L 293.76 113.09355 
L 304.232727 111.63825 
L 314.705455 107.5842 
L 325.178182 95.42205 
L 335.650909 77.95845 
L 346.123636 62.98965 
L 356.596364 53.3223 
L 367.069091 46.14975 
L 377.541818 41.78385 
L 388.014545 43.65495 
L 398.487273 48.43665 
" style="fill:none;stroke:#00ff97;stroke-linecap:square;stroke-width:1.5;"/>
   </g>
   <g id="line2d_43">
    <path clip-path="url(#pfaf9cfb900)" d="M 73.832727 133.05195 
L 84.305455 134.8191 
L 94.778182 149.68395 
L 105.250909 169.7463 
L 115.723636 185.7546 
L 126.196364 196.25355 
L 136.669091 204.8814 
L 147.141818 213.6132 
L 157.614545 224.2161 
L 168.087273 239.91255 
L 178.56 257.2722 
L 189.032727 261.94995 
L 199.505455 246.56535 
L 209.978182 220.99365 
L 220.450909 200.41155 
L 230.923636 189.081 
L 241.396364 179.62155 
L 251.869091 164.86065 
L 262.341818 148.1247 
L 272.814545 136.37835 
L 283.287273 124.0083 
L 293.76 103.842 
L 304.232727 85.7547 
L 314.705455 82.4283 
L 325.178182 90.7443 
L 335.650909 95.21415 
L 346.123636 87.8337 
L 356.596364 75.25575 
L 367.069091 68.0832 
L 377.541818 68.39505 
L 388.014545 71.09775 
L 398.487273 71.51355 
" style="fill:none;stroke:#00ffb5;stroke-linecap:square;stroke-width:1.5;"/>
   </g>
   <g id="line2d_44">
    <path clip-path="url(#pfaf9cfb900)" d="M 73.832727 193.8627 
L 84.305455 182.53215 
L 94.778182 171.8253 
L 105.250909 173.6964 
L 115.723636 183.57165 
L 126.196364 193.0311 
L 136.669091 200.61945 
L 147.141818 210.7026 
L 157.614545 226.9188 
L 168.087273 240.74415 
L 178.56 238.977 
L 189.032727 222.65685 
L 199.505455 203.73795 
L 209.978182 193.239 
L 220.450909 192.09555 
L 230.923636 189.9126 
L 241.396364 173.17665 
L 251.869091 145.0062 
L 262.341818 122.44905 
L 272.814545 113.92515 
L 283.287273 111.3264 
L 293.76 102.1788 
L 304.232727 84.7152 
L 314.705455 67.8753 
L 325.178182 61.11855 
L 335.650909 59.87115 
L 346.123636 54.3618 
L 356.596364 42.3036 
L 367.069091 28.89405 
L 377.541818 23.48865 
L 388.014545 25.8795 
L 398.487273 27.7506 
" style="fill:none;stroke:#00ffd3;stroke-linecap:square;stroke-width:1.5;"/>
   </g>
   <g id="line2d_45">
    <path clip-path="url(#pfaf9cfb900)" d="M 73.832727 141.0561 
L 84.305455 147.7089 
L 94.778182 156.75255 
L 105.250909 162.2619 
L 115.723636 163.40535 
L 126.196364 167.2515 
L 136.669091 181.8045 
L 147.141818 203.4261 
L 157.614545 222.65685 
L 168.087273 237.83355 
L 178.56 248.5404 
L 189.032727 249.47595 
L 199.505455 238.04145 
L 209.978182 216.9396 
L 220.450909 191.16 
L 230.923636 167.4594 
L 241.396364 148.3326 
L 251.869091 129.72555 
L 262.341818 111.7422 
L 272.814545 98.0208 
L 283.287273 87.93765 
L 293.76 78.37425 
L 304.232727 64.44495 
L 314.705455 45.4221 
L 325.178182 32.22045 
L 335.650909 33.67575 
L 346.123636 40.32855 
L 356.596364 39.49695 
L 367.069091 36.4824 
L 377.541818 40.4325 
L 388.014545 47.5011 
L 398.487273 46.35765 
" style="fill:none;stroke:#00fff6;stroke-linecap:square;stroke-width:1.5;"/>
   </g>
   <g id="line2d_46">
    <path clip-path="url(#pfaf9cfb900)" d="M 73.832727 143.5509 
L 84.305455 146.4615 
L 94.778182 151.659 
L 105.250909 150.2037 
L 115.723636 145.8378 
L 126.196364 152.38665 
L 136.669091 174.9438 
L 147.141818 202.07475 
L 157.614545 222.24105 
L 168.087273 234.4032 
L 178.56 241.4718 
L 189.032727 241.4718 
L 199.505455 229.93335 
L 209.978182 206.23275 
L 220.450909 173.80035 
L 230.923636 141.36795 
L 241.396364 120.57795 
L 251.869091 112.46985 
L 262.341818 104.8815 
L 272.814545 90.64035 
L 283.287273 75.1518 
L 293.76 60.183 
L 304.232727 45.11025 
L 314.705455 36.8982 
L 325.178182 40.32855 
L 335.650909 51.13935 
L 346.123636 58.00005 
L 356.596364 53.3223 
L 367.069091 44.1747 
L 377.541818 42.5115 
L 388.014545 51.2433 
L 398.487273 62.4699 
" style="fill:none;stroke:#00eaff;stroke-linecap:square;stroke-width:1.5;"/>
   </g>
   <g id="line2d_47">
    <path clip-path="url(#pfaf9cfb900)" d="M 73.832727 147.9168 
L 84.305455 137.106 
L 94.778182 141.8877 
L 105.250909 151.97085 
L 115.723636 153.9459 
L 126.196364 151.97085 
L 136.669091 162.054 
L 147.141818 191.7837 
L 157.614545 232.22025 
L 168.087273 269.01855 
L 178.56 293.13495 
L 189.032727 304.6734 
L 199.505455 306.23265 
L 209.978182 293.13495 
L 220.450909 261.53415 
L 230.923636 220.57785 
L 241.396364 181.8045 
L 251.869091 149.7879 
L 262.341818 125.4636 
L 272.814545 105.0894 
L 283.287273 78.79005 
L 293.76 46.0458 
L 304.232727 20.682 
L 314.705455 12.1581 
L 325.178182 14.0292 
L 335.650909 15.4845 
L 346.123636 11.5344 
L 356.596364 3.73815 
L 367.069091 1.7631 
L 377.541818 10.287 
L 388.014545 19.12275 
L 398.487273 20.37015 
" style="fill:none;stroke:#00cdff;stroke-linecap:square;stroke-width:1.5;"/>
   </g>
   <g id="line2d_48">
    <path clip-path="url(#pfaf9cfb900)" d="M 73.832727 122.44905 
L 84.305455 132.1164 
L 94.778182 157.99995 
L 105.250909 184.923 
L 115.723636 197.8128 
L 126.196364 197.1891 
L 136.669091 195.00615 
L 147.141818 203.634 
L 157.614545 225.6714 
L 168.087273 245.0061 
L 178.56 240.6402 
L 189.032727 212.05395 
L 199.505455 181.49265 
L 209.978182 168.18705 
L 220.450909 166.10805 
L 230.923636 156.4407 
L 241.396364 136.37835 
L 251.869091 118.49895 
L 262.341818 109.4553 
L 272.814545 101.03535 
L 283.287273 84.2994 
L 293.76 61.8462 
L 304.232727 42.9273 
L 314.705455 31.077 
L 325.178182 22.5531 
L 335.650909 15.2766 
L 346.123636 14.445 
L 356.596364 24.52815 
L 367.069091 37.5219 
L 377.541818 44.90235 
L 388.014545 49.1643 
L 398.487273 55.71315 
" style="fill:none;stroke:#00afff;stroke-linecap:square;stroke-width:1.5;"/>
   </g>
   <g id="line2d_49">
    <path clip-path="url(#pfaf9cfb900)" d="M 73.832727 135.96255 
L 84.305455 129.10185 
L 94.778182 122.86485 
L 105.250909 116.00415 
L 115.723636 114.75675 
L 126.196364 128.79 
L 136.669091 161.0145 
L 147.141818 202.5945 
L 157.614545 240.0165 
L 168.087273 265.06845 
L 178.56 278.2701 
L 189.032727 279.82935 
L 199.505455 265.7961 
L 209.978182 237.20985 
L 220.450909 207.9999 
L 230.923636 190.43235 
L 241.396364 178.686 
L 251.869091 160.07895 
L 262.341818 135.027 
L 272.814545 110.9106 
L 283.287273 92.6154 
L 293.76 80.86905 
L 304.232727 75.7755 
L 314.705455 76.08735 
L 325.178182 76.6071 
L 335.650909 73.80045 
L 346.123636 67.97925 
L 356.596364 62.15805 
L 367.069091 58.41585 
L 377.541818 54.46575 
L 388.014545 49.3722 
L 398.487273 48.85245 
" style="fill:none;stroke:#0092ff;stroke-linecap:square;stroke-width:1.5;"/>
   </g>
   <g id="line2d_50">
    <path clip-path="url(#pfaf9cfb900)" d="M 73.832727 128.89395 
L 84.305455 139.70475 
L 94.778182 140.53635 
L 105.250909 135.6507 
L 115.723636 139.185 
L 126.196364 159.975 
L 136.669091 190.43235 
L 147.141818 212.5737 
L 157.614545 219.74625 
L 168.087273 222.24105 
L 178.56 227.85435 
L 189.032727 229.2057 
L 199.505455 222.03315 
L 209.978182 212.7816 
L 220.450909 208.51965 
L 230.923636 205.0893 
L 241.396364 190.84815 
L 251.869091 162.6777 
L 262.341818 134.4033 
L 272.814545 121.9293 
L 283.287273 120.8898 
L 293.76 115.58835 
L 304.232727 101.1393 
L 314.705455 86.06655 
L 325.178182 77.75055 
L 335.650909 72.657 
L 346.123636 64.341 
L 356.596364 55.71315 
L 367.069091 54.3618 
L 377.541818 60.3909 
L 388.014545 66.10815 
L 398.487273 60.28695 
" style="fill:none;stroke:#0074ff;stroke-linecap:square;stroke-width:1.5;"/>
   </g>
   <g id="line2d_51">
    <path clip-path="url(#pfaf9cfb900)" d="M 73.832727 127.1268 
L 84.305455 127.5426 
L 94.778182 126.9189 
L 105.250909 123.48855 
L 115.723636 130.14135 
L 126.196364 153.21825 
L 136.669091 184.19535 
L 147.141818 216.21195 
L 157.614545 245.11005 
L 168.087273 267.8751 
L 178.56 279.41355 
L 189.032727 273.9042 
L 199.505455 254.9853 
L 209.978182 234.4032 
L 220.450909 215.0685 
L 230.923636 195.7338 
L 241.396364 175.1517 
L 251.869091 151.13925 
L 262.341818 125.6715 
L 272.814545 102.69855 
L 283.287273 82.11645 
L 293.76 66.0042 
L 304.232727 55.6092 
L 314.705455 45.0063 
L 325.178182 30.76515 
L 335.650909 14.6529 
L 345.825066 -1 
M 379.793396 -1 
L 388.014545 14.34105 
L 398.487273 32.01255 
" style="fill:none;stroke:#0057ff;stroke-linecap:square;stroke-width:1.5;"/>
   </g>
   <g id="line2d_52">
    <path clip-path="url(#pfaf9cfb900)" d="M 73.832727 141.8877 
L 84.305455 150.72345 
L 94.778182 155.1933 
L 105.250909 148.7484 
L 115.723636 136.2744 
L 126.196364 132.7401 
L 136.669091 150.51555 
L 147.141818 187.31385 
L 157.614545 230.4531 
L 168.087273 268.39485 
L 178.56 290.7441 
L 189.032727 293.34285 
L 199.505455 282.73995 
L 209.978182 266.2119 
L 220.450909 246.4614 
L 230.923636 224.424 
L 241.396364 197.397 
L 251.869091 162.98955 
L 262.341818 127.5426 
L 272.814545 102.49065 
L 283.287273 89.7048 
L 293.76 83.57175 
L 304.232727 78.4782 
L 314.705455 67.56345 
L 325.178182 47.2932 
L 335.650909 25.15185 
L 346.123636 12.7818 
L 356.596364 17.87535 
L 367.069091 35.75475 
L 377.541818 51.0354 
L 388.014545 53.7381 
L 398.487273 44.7984 
" style="fill:none;stroke:#0039ff;stroke-linecap:square;stroke-width:1.5;"/>
   </g>
   <g id="line2d_53">
    <path clip-path="url(#pfaf9cfb900)" d="M 73.832727 109.0395 
L 84.305455 118.29105 
L 94.778182 135.8586 
L 105.250909 156.12885 
L 115.723636 173.59245 
L 126.196364 187.4178 
L 136.669091 201.7629 
L 147.141818 217.66725 
L 157.614545 230.97285 
L 168.087273 235.33875 
L 178.56 231.59655 
L 189.032727 223.28055 
L 199.505455 205.2972 
L 209.978182 173.17665 
L 220.450909 136.8981 
L 230.923636 112.3659 
L 241.396364 103.6341 
L 251.869091 105.2973 
L 262.341818 110.079 
L 272.814545 112.3659 
L 283.287273 109.8711 
L 293.76 104.98545 
L 304.232727 96.3576 
L 314.705455 83.15595 
L 325.178182 74.63205 
L 335.650909 78.37425 
L 346.123636 89.80875 
L 356.596364 100.41165 
L 367.069091 106.1289 
L 377.541818 106.7526 
L 388.014545 103.53015 
L 398.487273 96.1497 
" style="fill:none;stroke:#001cff;stroke-linecap:square;stroke-width:1.5;"/>
   </g>
   <g id="line2d_54">
    <path clip-path="url(#pfaf9cfb900)" d="M 73.832727 167.0436 
L 84.305455 167.8752 
L 94.778182 161.6382 
L 105.250909 147.39705 
L 115.723636 138.04155 
L 126.196364 143.7588 
L 136.669091 164.44485 
L 147.141818 196.66935 
L 157.614545 228.68595 
L 168.087273 239.3928 
L 178.56 218.29095 
L 189.032727 184.0914 
L 199.505455 169.7463 
L 209.978182 191.88765 
L 220.450909 233.46765 
L 230.923636 256.4406 
L 241.396364 244.07055 
L 251.869091 208.8315 
L 262.341818 174.42405 
L 272.814545 156.0249 
L 283.287273 149.06025 
L 293.76 138.3534 
L 304.232727 116.83575 
L 314.705455 92.8233 
L 325.178182 77.33475 
L 335.650909 71.51355 
L 346.123636 70.1622 
L 356.596364 72.8649 
L 367.069091 81.70065 
L 377.541818 93.8628 
L 388.014545 101.65905 
L 398.487273 104.6736 
" style="fill:none;stroke:#0800ff;stroke-linecap:square;stroke-width:1.5;"/>
   </g>
   <g id="line2d_55">
    <path clip-path="url(#pfaf9cfb900)" d="M 73.832727 117.9792 
L 84.305455 112.9896 
L 94.778182 103.842 
L 105.250909 100.7235 
L 115.723636 109.6632 
L 126.196364 127.7505 
L 136.669091 153.84195 
L 147.141818 189.60075 
L 157.614545 220.8897 
L 168.087273 225.77535 
L 178.56 201.03525 
L 189.032727 169.43445 
L 199.505455 154.5696 
L 209.978182 159.975 
L 220.450909 168.9147 
L 230.923636 169.01865 
L 241.396364 160.8066 
L 251.869091 144.48645 
L 262.341818 120.6819 
L 272.814545 95.3181 
L 283.287273 77.33475 
L 293.76 72.8649 
L 304.232727 81.28485 
L 314.705455 96.5655 
L 325.178182 108.2079 
L 335.650909 111.01455 
L 346.123636 112.67775 
L 356.596364 117.7713 
L 367.069091 121.40955 
L 377.541818 122.1372 
L 388.014545 120.6819 
L 398.487273 117.04365 
" style="fill:none;stroke:#2500ff;stroke-linecap:square;stroke-width:1.5;"/>
   </g>
   <g id="line2d_56">
    <path clip-path="url(#pfaf9cfb900)" d="M 73.832727 127.9584 
L 84.305455 120.78585 
L 94.778182 109.55925 
L 105.250909 108.51975 
L 115.723636 119.95425 
L 126.196364 138.04155 
L 136.669091 162.6777 
L 147.141818 195.00615 
L 157.614545 230.55705 
L 168.087273 259.87095 
L 178.56 271.4094 
L 189.032727 259.45515 
L 199.505455 228.68595 
L 209.978182 188.14545 
L 220.450909 147.18915 
L 230.923636 113.50935 
L 241.396364 91.67985 
L 251.869091 79.9335 
L 262.341818 73.38465 
L 272.814545 66.8358 
L 283.287273 57.79215 
L 293.76 51.2433 
L 304.232727 55.1934 
L 314.705455 70.9938 
L 325.178182 88.2495 
L 335.650909 98.95635 
L 346.123636 105.5052 
L 356.596364 106.9605 
L 367.069091 95.526 
L 377.541818 76.3992 
L 388.014545 65.06865 
L 398.487273 66.2121 
" style="fill:none;stroke:#4300ff;stroke-linecap:square;stroke-width:1.5;"/>
   </g>
   <g id="line2d_57">
    <path clip-path="url(#pfaf9cfb900)" d="M 73.832727 169.22655 
L 84.305455 172.13715 
L 94.778182 167.14755 
L 105.250909 155.50515 
L 115.723636 145.6299 
L 126.196364 149.89185 
L 136.669091 169.64235 
L 147.141818 196.66935 
L 157.614545 228.9978 
L 168.087273 264.86055 
L 178.56 291.05595 
L 189.032727 300.0996 
L 199.505455 296.5653 
L 209.978182 284.9229 
L 220.450909 260.91045 
L 230.923636 225.15165 
L 241.396364 191.5758 
L 251.869091 167.0436 
L 262.341818 141.99165 
L 272.814545 108.6237 
L 283.287273 75.3597 
L 293.76 54.25785 
L 304.232727 47.9169 
L 314.705455 47.60505 
L 325.178182 36.6903 
L 335.650909 13.71735 
L 345.602182 -1 
M 347.973557 -1 
L 356.596364 2.5947 
L 367.069091 18.603 
L 377.541818 34.1955 
L 388.014545 47.709 
L 398.487273 60.183 
" style="fill:none;stroke:#6000ff;stroke-linecap:square;stroke-width:1.5;"/>
   </g>
   <g id="line2d_58">
    <path clip-path="url(#pfaf9cfb900)" d="M 73.832727 136.0665 
L 84.305455 133.5717 
L 94.778182 134.8191 
L 105.250909 139.185 
L 115.723636 147.60495 
L 126.196364 162.054 
L 136.669091 180.86895 
L 147.141818 200.7234 
L 157.614545 218.6028 
L 168.087273 226.39905 
L 178.56 217.9791 
L 189.032727 203.0103 
L 199.505455 197.08515 
L 209.978182 200.9313 
L 220.450909 197.50095 
L 230.923636 174.21615 
L 241.396364 141.6798 
L 251.869091 119.74635 
L 262.341818 111.9501 
L 272.814545 101.86695 
L 283.287273 81.5967 
L 293.76 66.73185 
L 304.232727 69.5385 
L 314.705455 79.20585 
L 325.178182 80.86905 
L 335.650909 71.8254 
L 346.123636 57.79215 
L 356.596364 45.8379 
L 367.069091 43.551 
L 377.541818 51.97095 
L 388.014545 64.65285 
L 398.487273 74.9439 
" style="fill:none;stroke:#7e00ff;stroke-linecap:square;stroke-width:1.5;"/>
   </g>
   <g id="line2d_59">
    <path clip-path="url(#pfaf9cfb900)" d="M 73.832727 120.99375 
L 84.305455 133.25985 
L 94.778182 130.0374 
L 105.250909 119.2266 
L 115.723636 117.45945 
L 126.196364 136.6902 
L 136.669091 174.7359 
L 147.141818 213.71715 
L 157.614545 235.13085 
L 168.087273 236.17035 
L 178.56 229.2057 
L 189.032727 226.81485 
L 199.505455 228.1662 
L 209.978182 223.1766 
L 220.450909 205.2972 
L 230.923636 176.3991 
L 241.396364 143.65485 
L 251.869091 115.0686 
L 262.341818 103.11435 
L 272.814545 111.5343 
L 283.287273 124.52805 
L 293.76 126.0873 
L 304.232727 117.1476 
L 314.705455 109.14345 
L 325.178182 107.7921 
L 335.650909 109.2474 
L 346.123636 107.7921 
L 356.596364 105.0894 
L 367.069091 106.1289 
L 377.541818 104.36175 
L 388.014545 93.96675 
L 398.487273 83.36385 
" style="fill:none;stroke:#9b00ff;stroke-linecap:square;stroke-width:1.5;"/>
   </g>
   <g id="line2d_60">
    <path clip-path="url(#pfaf9cfb900)" d="M 73.832727 147.2931 
L 84.305455 142.82325 
L 94.778182 136.37835 
L 105.250909 134.50725 
L 115.723636 143.5509 
L 126.196364 164.02905 
L 136.669091 189.39285 
L 147.141818 212.88555 
L 157.614545 236.0664 
L 168.087273 263.7171 
L 178.56 286.48215 
L 189.032727 282.53205 
L 199.505455 249.26805 
L 209.978182 210.2868 
L 220.450909 184.0914 
L 230.923636 163.82115 
L 241.396364 139.3929 
L 251.869091 115.38045 
L 262.341818 99.684 
L 272.814545 87.93765 
L 283.287273 69.01875 
L 293.76 46.2537 
L 304.232727 34.8192 
L 314.705455 38.45745 
L 325.178182 45.11025 
L 335.650909 45.4221 
L 346.123636 37.7298 
L 356.596364 24.32025 
L 367.069091 10.39095 
L 377.541818 4.6737 
L 388.014545 17.3556 
L 398.487273 42.19965 
" style="fill:none;stroke:#b900ff;stroke-linecap:square;stroke-width:1.5;"/>
   </g>
   <g id="line2d_61">
    <path clip-path="url(#pfaf9cfb900)" d="M 73.832727 126.9189 
L 84.305455 135.33885 
L 94.778182 144.27855 
L 105.250909 154.25775 
L 115.723636 165.90015 
L 126.196364 178.37415 
L 136.669091 193.6548 
L 147.141818 210.59865 
L 157.614545 223.8003 
L 168.087273 229.51755 
L 178.56 227.5425 
L 189.032727 218.3949 
L 199.505455 201.7629 
L 209.978182 178.37415 
L 220.450909 152.2827 
L 230.923636 130.97295 
L 241.396364 118.395 
L 251.869091 111.84615 
L 262.341818 103.32225 
L 272.814545 88.14555 
L 283.287273 73.2807 
L 293.76 66.0042 
L 304.232727 65.7963 
L 314.705455 67.56345 
L 325.178182 65.90025 
L 335.650909 58.00005 
L 346.123636 48.43665 
L 356.596364 44.07075 
L 367.069091 44.27865 
L 377.541818 41.2641 
L 388.014545 32.63625 
L 398.487273 24.52815 
" style="fill:none;stroke:#d600ff;stroke-linecap:square;stroke-width:1.5;"/>
   </g>
   <g id="line2d_62">
    <path clip-path="url(#pfaf9cfb900)" d="M 73.832727 135.75465 
L 84.305455 136.2744 
L 94.778182 130.14135 
L 105.250909 126.711 
L 115.723636 129.10185 
L 126.196364 139.70475 
L 136.669091 162.8856 
L 147.141818 193.75875 
L 157.614545 225.0477 
L 168.087273 255.08925 
L 178.56 284.40315 
L 189.032727 305.19315 
L 199.505455 303.8418 
L 209.978182 277.95825 
L 220.450909 241.6797 
L 230.923636 206.5446 
L 241.396364 173.4885 
L 251.869091 144.69435 
L 262.341818 122.7609 
L 272.814545 103.53015 
L 283.287273 83.6757 
L 293.76 65.7963 
L 304.232727 51.2433 
L 314.705455 37.9377 
L 325.178182 22.44915 
L 335.650909 7.89615 
L 346.123636 2.5947 
L 356.596364 6.129 
L 367.069091 6.9606 
L 377.541818 0.20385 
L 383.606076 -1 
M 388.794805 -1 
L 398.487273 9.8712 
" style="fill:none;stroke:#f800fd;stroke-linecap:square;stroke-width:1.5;"/>
   </g>
   <g id="line2d_63">
    <path clip-path="url(#pfaf9cfb900)" d="M 73.832727 89.0811 
L 84.305455 92.51145 
L 94.778182 115.0686 
L 105.250909 142.0956 
L 115.723636 160.28685 
L 126.196364 169.64235 
L 136.669091 182.0124 
L 147.141818 201.45105 
L 157.614545 221.40945 
L 168.087273 237.7296 
L 178.56 249.47595 
L 189.032727 259.24725 
L 199.505455 269.43435 
L 209.978182 275.1516 
L 220.450909 270.5778 
L 230.923636 251.34705 
L 241.396364 216.3159 
L 251.869091 176.08725 
L 262.341818 145.6299 
L 272.814545 126.19125 
L 283.287273 109.14345 
L 293.76 86.89815 
L 304.232727 63.61335 
L 314.705455 53.5302 
L 325.178182 58.20795 
L 335.650909 64.1331 
L 346.123636 61.11855 
L 356.596364 51.6591 
L 367.069091 43.44705 
L 377.541818 40.2246 
L 388.014545 41.78385 
L 398.487273 44.90235 
" style="fill:none;stroke:#ff00e7;stroke-linecap:square;stroke-width:1.5;"/>
   </g>
   <g id="line2d_64">
    <path clip-path="url(#pfaf9cfb900)" d="M 73.832727 153.21825 
L 84.305455 155.71305 
L 94.778182 153.21825 
L 105.250909 141.264 
L 115.723636 131.0769 
L 126.196364 140.53635 
L 136.669091 171.92925 
L 147.141818 209.14335 
L 157.614545 235.75455 
L 168.087273 244.7982 
L 178.56 238.45725 
L 189.032727 223.3845 
L 199.505455 205.40115 
L 209.978182 186.7941 
L 220.450909 167.8752 
L 230.923636 152.38665 
L 241.396364 142.7193 
L 251.869091 136.17045 
L 262.341818 132.42825 
L 272.814545 128.47815 
L 283.287273 114.6528 
L 293.76 88.56135 
L 304.232727 60.07905 
L 314.705455 43.86285 
L 325.178182 45.8379 
L 335.650909 55.6092 
L 346.123636 58.83165 
L 356.596364 52.80255 
L 367.069091 48.1248 
L 377.541818 56.54475 
L 388.014545 75.3597 
L 398.487273 86.3784 
" style="fill:none;stroke:#ff00c9;stroke-linecap:square;stroke-width:1.5;"/>
   </g>
   <g id="line2d_65">
    <path clip-path="url(#pfaf9cfb900)" d="M 73.832727 131.59665 
L 84.305455 124.4241 
L 94.778182 125.77545 
L 105.250909 137.00205 
L 115.723636 150.30765 
L 126.196364 164.02905 
L 136.669091 184.61115 
L 147.141818 211.43025 
L 157.614545 232.63605 
L 168.087273 237.62565 
L 178.56 227.23065 
L 189.032727 211.01445 
L 199.505455 196.46145 
L 209.978182 182.53215 
L 220.450909 166.10805 
L 230.923636 149.47605 
L 241.396364 138.3534 
L 251.869091 133.05195 
L 262.341818 130.869 
L 272.814545 129.30975 
L 283.287273 127.1268 
L 293.76 125.35965 
L 304.232727 124.11225 
L 314.705455 119.95425 
L 325.178182 108.8316 
L 335.650909 93.2391 
L 346.123636 80.86905 
L 356.596364 75.46365 
L 367.069091 76.08735 
L 377.541818 83.2599 
L 388.014545 95.83785 
L 398.487273 109.2474 
" style="fill:none;stroke:#ff00ac;stroke-linecap:square;stroke-width:1.5;"/>
   </g>
   <g id="line2d_66">
    <path clip-path="url(#pfaf9cfb900)" d="M 73.832727 139.91265 
L 84.305455 135.33885 
L 94.778182 130.14135 
L 105.250909 118.70685 
L 115.723636 106.23285 
L 126.196364 108.93555 
L 136.669091 137.62575 
L 147.141818 182.53215 
L 157.614545 224.32005 
L 168.087273 253.42605 
L 178.56 269.3304 
L 189.032727 271.4094 
L 199.505455 257.79195 
L 209.978182 231.9084 
L 220.450909 205.81695 
L 230.923636 190.01655 
L 241.396364 182.6361 
L 251.869091 172.76085 
L 262.341818 155.1933 
L 272.814545 129.8295 
L 283.287273 98.12475 
L 293.76 69.3306 
L 304.232727 58.9356 
L 314.705455 71.09775 
L 325.178182 88.97715 
L 335.650909 91.26405 
L 346.123636 75.9834 
L 356.596364 64.5489 
L 367.069091 69.9543 
L 377.541818 79.5177 
L 388.014545 79.41375 
L 398.487273 69.43455 
" style="fill:none;stroke:#ff008e;stroke-linecap:square;stroke-width:1.5;"/>
   </g>
   <g id="line2d_67">
    <path clip-path="url(#pfaf9cfb900)" d="M 73.832727 166.8357 
L 84.305455 166.0041 
L 94.778182 156.96045 
L 105.250909 152.4906 
L 115.723636 160.28685 
L 126.196364 174.00825 
L 136.669091 188.8731 
L 147.141818 207.06435 
L 157.614545 228.582 
L 168.087273 248.43645 
L 178.56 261.6381 
L 189.032727 264.86055 
L 199.505455 256.75245 
L 209.978182 237.83355 
L 220.450909 209.97495 
L 230.923636 178.37415 
L 241.396364 151.55505 
L 251.869091 137.3139 
L 262.341818 136.6902 
L 272.814545 140.8482 
L 283.287273 133.88355 
L 293.76 106.44075 
L 304.232727 70.88985 
L 314.705455 52.38675 
L 325.178182 59.5593 
L 335.650909 71.8254 
L 346.123636 65.1726 
L 356.596364 41.99175 
L 367.069091 17.87535 
L 377.541818 1.971 
L 383.410868 -1 
M 391.230813 -1 
L 398.487273 4.2579 
" style="fill:none;stroke:#ff0071;stroke-linecap:square;stroke-width:1.5;"/>
   </g>
   <g id="line2d_68">
    <path clip-path="url(#pfaf9cfb900)" d="M 73.832727 149.9958 
L 84.305455 148.1247 
L 94.778182 148.5405 
L 105.250909 151.55505 
L 115.723636 157.37625 
L 126.196364 165.1725 
L 136.669091 176.8149 
L 147.141818 197.50095 
L 157.614545 227.7504 
L 168.087273 256.75245 
L 178.56 269.85015 
L 189.032727 262.8855 
L 199.505455 241.36785 
L 209.978182 218.08305 
L 220.450909 204.36165 
L 230.923636 194.59035 
L 241.396364 172.55295 
L 251.869091 137.106 
L 262.341818 104.4657 
L 272.814545 85.7547 
L 283.287273 74.1123 
L 293.76 57.58425 
L 304.232727 37.7298 
L 314.705455 22.9689 
L 325.178182 15.0687 
L 335.650909 9.14355 
L 346.123636 3.11445 
L 354.943243 -1 
M 373.311508 -1 
L 377.541818 0.9315 
L 388.014545 14.13315 
L 398.487273 28.89405 
" style="fill:none;stroke:#ff0053;stroke-linecap:square;stroke-width:1.5;"/>
   </g>
   <g id="line2d_69">
    <path clip-path="url(#pfaf9cfb900)" d="M 73.832727 132.1164 
L 84.305455 111.1185 
L 94.778182 110.7027 
L 105.250909 132.84405 
L 115.723636 159.975 
L 126.196364 178.4781 
L 136.669091 193.34295 
L 147.141818 212.3658 
L 157.614545 230.8689 
L 168.087273 240.6402 
L 178.56 238.24935 
L 189.032727 218.187 
L 199.505455 180.3492 
L 209.978182 143.23905 
L 220.450909 124.0083 
L 230.923636 119.6424 
L 241.396364 120.8898 
L 251.869091 122.03325 
L 262.341818 120.16215 
L 272.814545 113.92515 
L 283.287273 103.11435 
L 293.76 88.0416 
L 304.232727 71.2017 
L 314.705455 59.7672 
L 325.178182 60.91065 
L 335.650909 73.17675 
L 346.123636 90.64035 
L 356.596364 104.8815 
L 367.069091 108.31185 
L 377.541818 104.56965 
L 388.014545 102.5946 
L 398.487273 105.5052 
" style="fill:none;stroke:#ff0035;stroke-linecap:square;stroke-width:1.5;"/>
   </g>
   <g id="line2d_70">
    <path clip-path="url(#pfaf9cfb900)" d="M 73.832727 138.91696 
L 84.305455 138.627414 
L 94.778182 138.579222 
L 105.250909 139.35825 
L 115.723636 143.183291 
L 126.196364 153.877795 
L 136.669091 174.373469 
L 147.141818 202.805984 
L 157.614545 231.411352 
L 168.087273 250.380833 
L 178.56 254.198307 
L 189.032727 244.591495 
L 199.505455 227.671143 
L 209.978182 208.988022 
L 220.450909 190.806331 
L 230.923636 172.820193 
L 241.396364 154.703819 
L 251.869091 137.289207 
L 262.341818 121.771981 
L 272.814545 108.290343 
L 283.287273 96.072833 
L 293.76 85.052141 
L 304.232727 76.127178 
L 314.705455 69.918455 
L 325.178182 65.956805 
L 335.650909 62.985667 
L 346.123636 59.996607 
L 356.596364 57.257266 
L 367.069091 55.917466 
L 377.541818 56.635159 
L 388.014545 59.172176 
L 398.487273 62.635583 
" style="fill:none;stroke:#000000;stroke-linecap:square;stroke-width:2;"/>
   </g>
   <g id="patch_3">
    <path d="M 57.6 307.584 
L 57.6 41.472 
" style="fill:none;stroke:#000000;stroke-linecap:square;stroke-linejoin:miter;stroke-width:0.8;"/>
   </g>
   <g id="patch_4">
    <path d="M 414.72 307.584 
L 414.72 41.472 
" style="fill:none;stroke:#000000;stroke-linecap:square;stroke-linejoin:miter;stroke-width:0.8;"/>
   </g>
   <g id="patch_5">
    <path d="M 57.6 307.584 
L 414.72 307.584 
" style="fill:none;stroke:#000000;stroke-linecap:square;stroke-linejoin:miter;stroke-width:0.8;"/>
   </g>
   <g id="patch_6">
    <path d="M 57.6 41.472 
L 414.72 41.472 
" style="fill:none;stroke:#000000;stroke-linecap:square;stroke-linejoin:miter;stroke-width:0.8;"/>
   </g>
   <g id="text_21">
    <!-- $V_{rms}=$ 19.385588 -->
    <defs>
     <path d="M 20.609375 0 
L 7.8125 72.90625 
L 17.484375 72.90625 
L 28.078125 10.203125 
L 63.484375 72.90625 
L 74.21875 72.90625 
L 32.078125 0 
z
" id="DejaVuSans-Oblique-56"/>
     <path d="M 44.578125 46.390625 
Q 43.21875 47.125 41.453125 47.515625 
Q 39.703125 47.90625 37.703125 47.90625 
Q 30.515625 47.90625 25.140625 42.453125 
Q 19.78125 37.015625 18.015625 27.875 
L 12.5 0 
L 3.515625 0 
L 14.203125 54.6875 
L 23.1875 54.6875 
L 21.484375 46.1875 
Q 25.046875 50.921875 30 53.453125 
Q 34.96875 56 40.578125 56 
Q 42.046875 56 43.453125 55.828125 
Q 44.875 55.671875 46.296875 55.28125 
z
" id="DejaVuSans-Oblique-72"/>
     <path d="M 89.796875 33.015625 
L 83.40625 0 
L 74.421875 0 
L 80.71875 32.71875 
Q 81.109375 34.8125 81.296875 36.328125 
Q 81.5 37.84375 81.5 38.921875 
Q 81.5 43.3125 79.046875 45.75 
Q 76.609375 48.1875 72.21875 48.1875 
Q 65.671875 48.1875 60.546875 43.28125 
Q 55.421875 38.375 53.90625 30.515625 
L 47.90625 0 
L 38.921875 0 
L 45.3125 32.71875 
Q 45.703125 34.515625 45.890625 36.046875 
Q 46.09375 37.59375 46.09375 38.8125 
Q 46.09375 43.265625 43.65625 45.71875 
Q 41.21875 48.1875 36.921875 48.1875 
Q 30.28125 48.1875 25.140625 43.28125 
Q 20.015625 38.375 18.5 30.515625 
L 12.5 0 
L 3.515625 0 
L 14.203125 54.6875 
L 23.1875 54.6875 
L 21.484375 46.1875 
Q 25.140625 50.984375 30.046875 53.484375 
Q 34.96875 56 40.578125 56 
Q 46.53125 56 50.359375 52.875 
Q 54.203125 49.75 54.984375 44.1875 
Q 59.078125 49.953125 64.46875 52.96875 
Q 69.875 56 75.875 56 
Q 82.90625 56 86.734375 51.953125 
Q 90.578125 47.90625 90.578125 40.484375 
Q 90.578125 38.875 90.375 36.9375 
Q 90.1875 35.015625 89.796875 33.015625 
z
" id="DejaVuSans-Oblique-6d"/>
     <path d="M 50 53.078125 
L 48.296875 44.578125 
Q 44.734375 46.53125 40.765625 47.5 
Q 36.8125 48.484375 32.625 48.484375 
Q 25.53125 48.484375 21.453125 46.0625 
Q 17.390625 43.65625 17.390625 39.5 
Q 17.390625 34.671875 26.859375 32.078125 
Q 27.59375 31.890625 27.9375 31.78125 
L 30.8125 30.90625 
Q 39.796875 28.421875 42.796875 25.6875 
Q 45.796875 22.953125 45.796875 18.21875 
Q 45.796875 9.515625 38.890625 4.046875 
Q 31.984375 -1.421875 20.796875 -1.421875 
Q 16.453125 -1.421875 11.671875 -0.578125 
Q 6.890625 0.25 1.125 2 
L 2.875 11.28125 
Q 7.8125 8.734375 12.59375 7.421875 
Q 17.390625 6.109375 21.78125 6.109375 
Q 28.375 6.109375 32.5 8.9375 
Q 36.625 11.765625 36.625 16.109375 
Q 36.625 20.796875 25.78125 23.6875 
L 24.859375 23.921875 
L 21.78125 24.703125 
Q 14.9375 26.515625 11.765625 29.46875 
Q 8.59375 32.421875 8.59375 37.015625 
Q 8.59375 45.75 15.15625 50.875 
Q 21.734375 56 33.015625 56 
Q 37.453125 56 41.671875 55.265625 
Q 45.90625 54.546875 50 53.078125 
z
" id="DejaVuSans-Oblique-73"/>
     <path d="M 10.59375 45.40625 
L 73.1875 45.40625 
L 73.1875 37.203125 
L 10.59375 37.203125 
z
M 10.59375 25.484375 
L 73.1875 25.484375 
L 73.1875 17.1875 
L 10.59375 17.1875 
z
" id="DejaVuSans-3d"/>
     <path d="M 10.984375 1.515625 
L 10.984375 10.5 
Q 14.703125 8.734375 18.5 7.8125 
Q 22.3125 6.890625 25.984375 6.890625 
Q 35.75 6.890625 40.890625 13.453125 
Q 46.046875 20.015625 46.78125 33.40625 
Q 43.953125 29.203125 39.59375 26.953125 
Q 35.25 24.703125 29.984375 24.703125 
Q 19.046875 24.703125 12.671875 31.3125 
Q 6.296875 37.9375 6.296875 49.421875 
Q 6.296875 60.640625 12.9375 67.421875 
Q 19.578125 74.21875 30.609375 74.21875 
Q 43.265625 74.21875 49.921875 64.515625 
Q 56.59375 54.828125 56.59375 36.375 
Q 56.59375 19.140625 48.40625 8.859375 
Q 40.234375 -1.421875 26.421875 -1.421875 
Q 22.703125 -1.421875 18.890625 -0.6875 
Q 15.09375 0.046875 10.984375 1.515625 
z
M 30.609375 32.421875 
Q 37.25 32.421875 41.125 36.953125 
Q 45.015625 41.5 45.015625 49.421875 
Q 45.015625 57.28125 41.125 61.84375 
Q 37.25 66.40625 30.609375 66.40625 
Q 23.96875 66.40625 20.09375 61.84375 
Q 16.21875 57.28125 16.21875 49.421875 
Q 16.21875 41.5 20.09375 36.953125 
Q 23.96875 32.421875 30.609375 32.421875 
z
" id="DejaVuSans-39"/>
    </defs>
    <g transform="translate(325.178182 96.072833)scale(0.1 -0.1)">
     <use transform="translate(0 0.78125)" xlink:href="#DejaVuSans-Oblique-56"/>
     <use transform="translate(68.408203 -15.625)scale(0.7)" xlink:href="#DejaVuSans-Oblique-72"/>
     <use transform="translate(97.1875 -15.625)scale(0.7)" xlink:href="#DejaVuSans-Oblique-6d"/>
     <use transform="translate(165.375977 -15.625)scale(0.7)" xlink:href="#DejaVuSans-Oblique-73"/>
     <use transform="translate(224.0625 0.78125)" xlink:href="#DejaVuSans-3d"/>
     <use transform="translate(327.333984 0.78125)" xlink:href="#DejaVuSans-20"/>
     <use transform="translate(359.121094 0.78125)" xlink:href="#DejaVuSans-31"/>
     <use transform="translate(422.744141 0.78125)" xlink:href="#DejaVuSans-39"/>
     <use transform="translate(486.367188 0.78125)" xlink:href="#DejaVuSans-2e"/>
     <use transform="translate(518.154297 0.78125)" xlink:href="#DejaVuSans-33"/>
     <use transform="translate(581.777344 0.78125)" xlink:href="#DejaVuSans-38"/>
     <use transform="translate(645.400391 0.78125)" xlink:href="#DejaVuSans-35"/>
     <use transform="translate(709.023438 0.78125)" xlink:href="#DejaVuSans-35"/>
     <use transform="translate(772.646484 0.78125)" xlink:href="#DejaVuSans-38"/>
     <use transform="translate(836.269531 0.78125)" xlink:href="#DejaVuSans-38"/>
    </g>
   </g>
   <g id="text_22">
    <!-- Channel 9 - Unit 1 -->
    <defs>
     <path d="M 64.40625 67.28125 
L 64.40625 56.890625 
Q 59.421875 61.53125 53.78125 63.8125 
Q 48.140625 66.109375 41.796875 66.109375 
Q 29.296875 66.109375 22.65625 58.46875 
Q 16.015625 50.828125 16.015625 36.375 
Q 16.015625 21.96875 22.65625 14.328125 
Q 29.296875 6.6875 41.796875 6.6875 
Q 48.140625 6.6875 53.78125 8.984375 
Q 59.421875 11.28125 64.40625 15.921875 
L 64.40625 5.609375 
Q 59.234375 2.09375 53.4375 0.328125 
Q 47.65625 -1.421875 41.21875 -1.421875 
Q 24.65625 -1.421875 15.125 8.703125 
Q 5.609375 18.84375 5.609375 36.375 
Q 5.609375 53.953125 15.125 64.078125 
Q 24.65625 74.21875 41.21875 74.21875 
Q 47.75 74.21875 53.53125 72.484375 
Q 59.328125 70.75 64.40625 67.28125 
z
" id="DejaVuSans-43"/>
     <path d="M 54.890625 33.015625 
L 54.890625 0 
L 45.90625 0 
L 45.90625 32.71875 
Q 45.90625 40.484375 42.875 44.328125 
Q 39.84375 48.1875 33.796875 48.1875 
Q 26.515625 48.1875 22.3125 43.546875 
Q 18.109375 38.921875 18.109375 30.90625 
L 18.109375 0 
L 9.078125 0 
L 9.078125 75.984375 
L 18.109375 75.984375 
L 18.109375 46.1875 
Q 21.34375 51.125 25.703125 53.5625 
Q 30.078125 56 35.796875 56 
Q 45.21875 56 50.046875 50.171875 
Q 54.890625 44.34375 54.890625 33.015625 
z
" id="DejaVuSans-68"/>
     <path d="M 54.890625 33.015625 
L 54.890625 0 
L 45.90625 0 
L 45.90625 32.71875 
Q 45.90625 40.484375 42.875 44.328125 
Q 39.84375 48.1875 33.796875 48.1875 
Q 26.515625 48.1875 22.3125 43.546875 
Q 18.109375 38.921875 18.109375 30.90625 
L 18.109375 0 
L 9.078125 0 
L 9.078125 54.6875 
L 18.109375 54.6875 
L 18.109375 46.1875 
Q 21.34375 51.125 25.703125 53.5625 
Q 30.078125 56 35.796875 56 
Q 45.21875 56 50.046875 50.171875 
Q 54.890625 44.34375 54.890625 33.015625 
z
" id="DejaVuSans-6e"/>
     <path d="M 4.890625 31.390625 
L 31.203125 31.390625 
L 31.203125 23.390625 
L 4.890625 23.390625 
z
" id="DejaVuSans-2d"/>
     <path d="M 8.6875 72.90625 
L 18.609375 72.90625 
L 18.609375 28.609375 
Q 18.609375 16.890625 22.84375 11.734375 
Q 27.09375 6.59375 36.625 6.59375 
Q 46.09375 6.59375 50.34375 11.734375 
Q 54.59375 16.890625 54.59375 28.609375 
L 54.59375 72.90625 
L 64.5 72.90625 
L 64.5 27.390625 
Q 64.5 13.140625 57.4375 5.859375 
Q 50.390625 -1.421875 36.625 -1.421875 
Q 22.796875 -1.421875 15.734375 5.859375 
Q 8.6875 13.140625 8.6875 27.390625 
z
" id="DejaVuSans-55"/>
    </defs>
    <g transform="translate(181.887187 35.472)scale(0.12 -0.12)">
     <use xlink:href="#DejaVuSans-43"/>
     <use x="69.824219" xlink:href="#DejaVuSans-68"/>
     <use x="133.203125" xlink:href="#DejaVuSans-61"/>
     <use x="194.482422" xlink:href="#DejaVuSans-6e"/>
     <use x="257.861328" xlink:href="#DejaVuSans-6e"/>
     <use x="321.240234" xlink:href="#DejaVuSans-65"/>
     <use x="382.763672" xlink:href="#DejaVuSans-6c"/>
     <use x="410.546875" xlink:href="#DejaVuSans-20"/>
     <use x="442.333984" xlink:href="#DejaVuSans-39"/>
     <use x="505.957031" xlink:href="#DejaVuSans-20"/>
     <use x="537.744141" xlink:href="#DejaVuSans-2d"/>
     <use x="573.828125" xlink:href="#DejaVuSans-20"/>
     <use x="605.615234" xlink:href="#DejaVuSans-55"/>
     <use x="678.808594" xlink:href="#DejaVuSans-6e"/>
     <use x="742.1875" xlink:href="#DejaVuSans-69"/>
     <use x="769.970703" xlink:href="#DejaVuSans-74"/>
     <use x="809.179688" xlink:href="#DejaVuSans-20"/>
     <use x="840.966797" xlink:href="#DejaVuSans-31"/>
    </g>
   </g>
  </g>
 </g>
 <defs>
  <clipPath id="pfaf9cfb900">
   <rect height="266.112" width="357.12" x="57.6" y="41.472"/>
  </clipPath>
 </defs>
</svg>
