<?xml version="1.0" encoding="utf-8" standalone="no"?>
<!DOCTYPE svg PUBLIC "-//W3C//DTD SVG 1.1//EN"
  "http://www.w3.org/Graphics/SVG/1.1/DTD/svg11.dtd">
<!-- Created with matplotlib (http://matplotlib.org/) -->
<svg height="345pt" version="1.1" viewBox="0 0 460 345" width="460pt" xmlns="http://www.w3.org/2000/svg" xmlns:xlink="http://www.w3.org/1999/xlink">
 <defs>
  <style type="text/css">
*{stroke-linecap:butt;stroke-linejoin:round;}
  </style>
 </defs>
 <g id="figure_1">
  <g id="patch_1">
   <path d="M 0 345.6 
L 460.8 345.6 
L 460.8 0 
L 0 0 
z
" style="fill:#ffffff;"/>
  </g>
  <g id="axes_1">
   <g id="patch_2">
    <path d="M 57.6 307.584 
L 414.72 307.584 
L 414.72 41.472 
L 57.6 41.472 
z
" style="fill:#ffffff;"/>
   </g>
   <g id="PolyCollection_1">
    <defs>
     <path d="M 73.832727 -221.55987 
L 73.832727 -158.703568 
L 84.305455 -153.391284 
L 94.778182 -147.670509 
L 105.250909 -144.114171 
L 115.723636 -143.029718 
L 126.196364 -139.917125 
L 136.669091 -128.717755 
L 147.141818 -109.954116 
L 157.614545 -87.290674 
L 168.087273 -68.974299 
L 178.56 -65.627191 
L 189.032727 -72.215115 
L 199.505455 -80.010667 
L 209.978182 -86.215209 
L 220.450909 -93.188669 
L 230.923636 -101.512771 
L 241.396364 -109.991151 
L 251.869091 -118.044491 
L 262.341818 -125.402578 
L 272.814545 -131.792592 
L 283.287273 -137.732204 
L 293.76 -144.737358 
L 304.232727 -152.300886 
L 314.705455 -158.746453 
L 325.178182 -163.880885 
L 335.650909 -167.726924 
L 346.123636 -170.605609 
L 356.596364 -174.076203 
L 367.069091 -178.82371 
L 377.541818 -183.476054 
L 388.014545 -186.846607 
L 398.487273 -188.641854 
L 398.487273 -267.226519 
L 398.487273 -267.226519 
L 388.014545 -262.100642 
L 377.541818 -257.650877 
L 367.069091 -254.332355 
L 356.596364 -250.774104 
L 346.123636 -245.143185 
L 335.650909 -237.913628 
L 325.178182 -230.662108 
L 314.705455 -223.945216 
L 304.232727 -218.10932 
L 293.76 -212.945886 
L 283.287273 -206.1897 
L 272.814545 -197.141053 
L 262.341818 -187.688677 
L 251.869091 -178.472116 
L 241.396364 -168.844739 
L 230.923636 -158.971591 
L 220.450909 -150.19771 
L 209.978182 -142.635581 
L 199.505455 -134.64045 
L 189.032727 -124.715344 
L 178.56 -112.760226 
L 168.087273 -103.185336 
L 157.614545 -104.974836 
L 147.141818 -127.297677 
L 136.669091 -158.965663 
L 126.196364 -183.625457 
L 115.723636 -197.675368 
L 105.250909 -204.906915 
L 94.778182 -210.549384 
L 84.305455 -216.410585 
L 73.832727 -221.55987 
z
" id="m5e115dae21"/>
    </defs>
    <g clip-path="url(#p0774f2752b)">
     <use style="fill-opacity:0.5;" x="0" xlink:href="#m5e115dae21" y="345.6"/>
    </g>
   </g>
   <g id="matplotlib.axis_1">
    <g id="xtick_1">
     <g id="line2d_1">
      <defs>
       <path d="M 0 0 
L 0 3.5 
" id="m39a96279df" style="stroke:#000000;stroke-width:0.8;"/>
      </defs>
      <g>
       <use style="stroke:#000000;stroke-width:0.8;" x="73.832727" xlink:href="#m39a96279df" y="307.584"/>
      </g>
     </g>
     <g id="text_1">
      <!-- 0.0000 -->
      <defs>
       <path d="M 31.78125 66.40625 
Q 24.171875 66.40625 20.328125 58.90625 
Q 16.5 51.421875 16.5 36.375 
Q 16.5 21.390625 20.328125 13.890625 
Q 24.171875 6.390625 31.78125 6.390625 
Q 39.453125 6.390625 43.28125 13.890625 
Q 47.125 21.390625 47.125 36.375 
Q 47.125 51.421875 43.28125 58.90625 
Q 39.453125 66.40625 31.78125 66.40625 
z
M 31.78125 74.21875 
Q 44.046875 74.21875 50.515625 64.515625 
Q 56.984375 54.828125 56.984375 36.375 
Q 56.984375 17.96875 50.515625 8.265625 
Q 44.046875 -1.421875 31.78125 -1.421875 
Q 19.53125 -1.421875 13.0625 8.265625 
Q 6.59375 17.96875 6.59375 36.375 
Q 6.59375 54.828125 13.0625 64.515625 
Q 19.53125 74.21875 31.78125 74.21875 
z
" id="DejaVuSans-30"/>
       <path d="M 10.6875 12.40625 
L 21 12.40625 
L 21 0 
L 10.6875 0 
z
" id="DejaVuSans-2e"/>
      </defs>
      <g transform="translate(56.337415 322.182437)scale(0.1 -0.1)">
       <use xlink:href="#DejaVuSans-30"/>
       <use x="63.623047" xlink:href="#DejaVuSans-2e"/>
       <use x="95.410156" xlink:href="#DejaVuSans-30"/>
       <use x="159.033203" xlink:href="#DejaVuSans-30"/>
       <use x="222.65625" xlink:href="#DejaVuSans-30"/>
       <use x="286.279297" xlink:href="#DejaVuSans-30"/>
      </g>
     </g>
    </g>
    <g id="xtick_2">
     <g id="line2d_2">
      <g>
       <use style="stroke:#000000;stroke-width:0.8;" x="115.723636" xlink:href="#m39a96279df" y="307.584"/>
      </g>
     </g>
     <g id="text_2">
      <!-- 0.0001 -->
      <defs>
       <path d="M 12.40625 8.296875 
L 28.515625 8.296875 
L 28.515625 63.921875 
L 10.984375 60.40625 
L 10.984375 69.390625 
L 28.421875 72.90625 
L 38.28125 72.90625 
L 38.28125 8.296875 
L 54.390625 8.296875 
L 54.390625 0 
L 12.40625 0 
z
" id="DejaVuSans-31"/>
      </defs>
      <g transform="translate(98.228324 322.182437)scale(0.1 -0.1)">
       <use xlink:href="#DejaVuSans-30"/>
       <use x="63.623047" xlink:href="#DejaVuSans-2e"/>
       <use x="95.410156" xlink:href="#DejaVuSans-30"/>
       <use x="159.033203" xlink:href="#DejaVuSans-30"/>
       <use x="222.65625" xlink:href="#DejaVuSans-30"/>
       <use x="286.279297" xlink:href="#DejaVuSans-31"/>
      </g>
     </g>
    </g>
    <g id="xtick_3">
     <g id="line2d_3">
      <g>
       <use style="stroke:#000000;stroke-width:0.8;" x="157.614545" xlink:href="#m39a96279df" y="307.584"/>
      </g>
     </g>
     <g id="text_3">
      <!-- 0.0002 -->
      <defs>
       <path d="M 19.1875 8.296875 
L 53.609375 8.296875 
L 53.609375 0 
L 7.328125 0 
L 7.328125 8.296875 
Q 12.9375 14.109375 22.625 23.890625 
Q 32.328125 33.6875 34.8125 36.53125 
Q 39.546875 41.84375 41.421875 45.53125 
Q 43.3125 49.21875 43.3125 52.78125 
Q 43.3125 58.59375 39.234375 62.25 
Q 35.15625 65.921875 28.609375 65.921875 
Q 23.96875 65.921875 18.8125 64.3125 
Q 13.671875 62.703125 7.8125 59.421875 
L 7.8125 69.390625 
Q 13.765625 71.78125 18.9375 73 
Q 24.125 74.21875 28.421875 74.21875 
Q 39.75 74.21875 46.484375 68.546875 
Q 53.21875 62.890625 53.21875 53.421875 
Q 53.21875 48.921875 51.53125 44.890625 
Q 49.859375 40.875 45.40625 35.40625 
Q 44.1875 33.984375 37.640625 27.21875 
Q 31.109375 20.453125 19.1875 8.296875 
z
" id="DejaVuSans-32"/>
      </defs>
      <g transform="translate(140.119233 322.182437)scale(0.1 -0.1)">
       <use xlink:href="#DejaVuSans-30"/>
       <use x="63.623047" xlink:href="#DejaVuSans-2e"/>
       <use x="95.410156" xlink:href="#DejaVuSans-30"/>
       <use x="159.033203" xlink:href="#DejaVuSans-30"/>
       <use x="222.65625" xlink:href="#DejaVuSans-30"/>
       <use x="286.279297" xlink:href="#DejaVuSans-32"/>
      </g>
     </g>
    </g>
    <g id="xtick_4">
     <g id="line2d_4">
      <g>
       <use style="stroke:#000000;stroke-width:0.8;" x="199.505455" xlink:href="#m39a96279df" y="307.584"/>
      </g>
     </g>
     <g id="text_4">
      <!-- 0.0003 -->
      <defs>
       <path d="M 40.578125 39.3125 
Q 47.65625 37.796875 51.625 33 
Q 55.609375 28.21875 55.609375 21.1875 
Q 55.609375 10.40625 48.1875 4.484375 
Q 40.765625 -1.421875 27.09375 -1.421875 
Q 22.515625 -1.421875 17.65625 -0.515625 
Q 12.796875 0.390625 7.625 2.203125 
L 7.625 11.71875 
Q 11.71875 9.328125 16.59375 8.109375 
Q 21.484375 6.890625 26.8125 6.890625 
Q 36.078125 6.890625 40.9375 10.546875 
Q 45.796875 14.203125 45.796875 21.1875 
Q 45.796875 27.640625 41.28125 31.265625 
Q 36.765625 34.90625 28.71875 34.90625 
L 20.21875 34.90625 
L 20.21875 43.015625 
L 29.109375 43.015625 
Q 36.375 43.015625 40.234375 45.921875 
Q 44.09375 48.828125 44.09375 54.296875 
Q 44.09375 59.90625 40.109375 62.90625 
Q 36.140625 65.921875 28.71875 65.921875 
Q 24.65625 65.921875 20.015625 65.03125 
Q 15.375 64.15625 9.8125 62.3125 
L 9.8125 71.09375 
Q 15.4375 72.65625 20.34375 73.4375 
Q 25.25 74.21875 29.59375 74.21875 
Q 40.828125 74.21875 47.359375 69.109375 
Q 53.90625 64.015625 53.90625 55.328125 
Q 53.90625 49.265625 50.4375 45.09375 
Q 46.96875 40.921875 40.578125 39.3125 
z
" id="DejaVuSans-33"/>
      </defs>
      <g transform="translate(182.010142 322.182437)scale(0.1 -0.1)">
       <use xlink:href="#DejaVuSans-30"/>
       <use x="63.623047" xlink:href="#DejaVuSans-2e"/>
       <use x="95.410156" xlink:href="#DejaVuSans-30"/>
       <use x="159.033203" xlink:href="#DejaVuSans-30"/>
       <use x="222.65625" xlink:href="#DejaVuSans-30"/>
       <use x="286.279297" xlink:href="#DejaVuSans-33"/>
      </g>
     </g>
    </g>
    <g id="xtick_5">
     <g id="line2d_5">
      <g>
       <use style="stroke:#000000;stroke-width:0.8;" x="241.396364" xlink:href="#m39a96279df" y="307.584"/>
      </g>
     </g>
     <g id="text_5">
      <!-- 0.0004 -->
      <defs>
       <path d="M 37.796875 64.3125 
L 12.890625 25.390625 
L 37.796875 25.390625 
z
M 35.203125 72.90625 
L 47.609375 72.90625 
L 47.609375 25.390625 
L 58.015625 25.390625 
L 58.015625 17.1875 
L 47.609375 17.1875 
L 47.609375 0 
L 37.796875 0 
L 37.796875 17.1875 
L 4.890625 17.1875 
L 4.890625 26.703125 
z
" id="DejaVuSans-34"/>
      </defs>
      <g transform="translate(223.901051 322.182437)scale(0.1 -0.1)">
       <use xlink:href="#DejaVuSans-30"/>
       <use x="63.623047" xlink:href="#DejaVuSans-2e"/>
       <use x="95.410156" xlink:href="#DejaVuSans-30"/>
       <use x="159.033203" xlink:href="#DejaVuSans-30"/>
       <use x="222.65625" xlink:href="#DejaVuSans-30"/>
       <use x="286.279297" xlink:href="#DejaVuSans-34"/>
      </g>
     </g>
    </g>
    <g id="xtick_6">
     <g id="line2d_6">
      <g>
       <use style="stroke:#000000;stroke-width:0.8;" x="283.287273" xlink:href="#m39a96279df" y="307.584"/>
      </g>
     </g>
     <g id="text_6">
      <!-- 0.0005 -->
      <defs>
       <path d="M 10.796875 72.90625 
L 49.515625 72.90625 
L 49.515625 64.59375 
L 19.828125 64.59375 
L 19.828125 46.734375 
Q 21.96875 47.46875 24.109375 47.828125 
Q 26.265625 48.1875 28.421875 48.1875 
Q 40.625 48.1875 47.75 41.5 
Q 54.890625 34.8125 54.890625 23.390625 
Q 54.890625 11.625 47.5625 5.09375 
Q 40.234375 -1.421875 26.90625 -1.421875 
Q 22.3125 -1.421875 17.546875 -0.640625 
Q 12.796875 0.140625 7.71875 1.703125 
L 7.71875 11.625 
Q 12.109375 9.234375 16.796875 8.0625 
Q 21.484375 6.890625 26.703125 6.890625 
Q 35.15625 6.890625 40.078125 11.328125 
Q 45.015625 15.765625 45.015625 23.390625 
Q 45.015625 31 40.078125 35.4375 
Q 35.15625 39.890625 26.703125 39.890625 
Q 22.75 39.890625 18.8125 39.015625 
Q 14.890625 38.140625 10.796875 36.28125 
z
" id="DejaVuSans-35"/>
      </defs>
      <g transform="translate(265.79196 322.182437)scale(0.1 -0.1)">
       <use xlink:href="#DejaVuSans-30"/>
       <use x="63.623047" xlink:href="#DejaVuSans-2e"/>
       <use x="95.410156" xlink:href="#DejaVuSans-30"/>
       <use x="159.033203" xlink:href="#DejaVuSans-30"/>
       <use x="222.65625" xlink:href="#DejaVuSans-30"/>
       <use x="286.279297" xlink:href="#DejaVuSans-35"/>
      </g>
     </g>
    </g>
    <g id="xtick_7">
     <g id="line2d_7">
      <g>
       <use style="stroke:#000000;stroke-width:0.8;" x="325.178182" xlink:href="#m39a96279df" y="307.584"/>
      </g>
     </g>
     <g id="text_7">
      <!-- 0.0006 -->
      <defs>
       <path d="M 33.015625 40.375 
Q 26.375 40.375 22.484375 35.828125 
Q 18.609375 31.296875 18.609375 23.390625 
Q 18.609375 15.53125 22.484375 10.953125 
Q 26.375 6.390625 33.015625 6.390625 
Q 39.65625 6.390625 43.53125 10.953125 
Q 47.40625 15.53125 47.40625 23.390625 
Q 47.40625 31.296875 43.53125 35.828125 
Q 39.65625 40.375 33.015625 40.375 
z
M 52.59375 71.296875 
L 52.59375 62.3125 
Q 48.875 64.0625 45.09375 64.984375 
Q 41.3125 65.921875 37.59375 65.921875 
Q 27.828125 65.921875 22.671875 59.328125 
Q 17.53125 52.734375 16.796875 39.40625 
Q 19.671875 43.65625 24.015625 45.921875 
Q 28.375 48.1875 33.59375 48.1875 
Q 44.578125 48.1875 50.953125 41.515625 
Q 57.328125 34.859375 57.328125 23.390625 
Q 57.328125 12.15625 50.6875 5.359375 
Q 44.046875 -1.421875 33.015625 -1.421875 
Q 20.359375 -1.421875 13.671875 8.265625 
Q 6.984375 17.96875 6.984375 36.375 
Q 6.984375 53.65625 15.1875 63.9375 
Q 23.390625 74.21875 37.203125 74.21875 
Q 40.921875 74.21875 44.703125 73.484375 
Q 48.484375 72.75 52.59375 71.296875 
z
" id="DejaVuSans-36"/>
      </defs>
      <g transform="translate(307.682869 322.182437)scale(0.1 -0.1)">
       <use xlink:href="#DejaVuSans-30"/>
       <use x="63.623047" xlink:href="#DejaVuSans-2e"/>
       <use x="95.410156" xlink:href="#DejaVuSans-30"/>
       <use x="159.033203" xlink:href="#DejaVuSans-30"/>
       <use x="222.65625" xlink:href="#DejaVuSans-30"/>
       <use x="286.279297" xlink:href="#DejaVuSans-36"/>
      </g>
     </g>
    </g>
    <g id="xtick_8">
     <g id="line2d_8">
      <g>
       <use style="stroke:#000000;stroke-width:0.8;" x="367.069091" xlink:href="#m39a96279df" y="307.584"/>
      </g>
     </g>
     <g id="text_8">
      <!-- 0.0007 -->
      <defs>
       <path d="M 8.203125 72.90625 
L 55.078125 72.90625 
L 55.078125 68.703125 
L 28.609375 0 
L 18.3125 0 
L 43.21875 64.59375 
L 8.203125 64.59375 
z
" id="DejaVuSans-37"/>
      </defs>
      <g transform="translate(349.573778 322.182437)scale(0.1 -0.1)">
       <use xlink:href="#DejaVuSans-30"/>
       <use x="63.623047" xlink:href="#DejaVuSans-2e"/>
       <use x="95.410156" xlink:href="#DejaVuSans-30"/>
       <use x="159.033203" xlink:href="#DejaVuSans-30"/>
       <use x="222.65625" xlink:href="#DejaVuSans-30"/>
       <use x="286.279297" xlink:href="#DejaVuSans-37"/>
      </g>
     </g>
    </g>
    <g id="xtick_9">
     <g id="line2d_9">
      <g>
       <use style="stroke:#000000;stroke-width:0.8;" x="408.96" xlink:href="#m39a96279df" y="307.584"/>
      </g>
     </g>
     <g id="text_9">
      <!-- 0.0008 -->
      <defs>
       <path d="M 31.78125 34.625 
Q 24.75 34.625 20.71875 30.859375 
Q 16.703125 27.09375 16.703125 20.515625 
Q 16.703125 13.921875 20.71875 10.15625 
Q 24.75 6.390625 31.78125 6.390625 
Q 38.8125 6.390625 42.859375 10.171875 
Q 46.921875 13.96875 46.921875 20.515625 
Q 46.921875 27.09375 42.890625 30.859375 
Q 38.875 34.625 31.78125 34.625 
z
M 21.921875 38.8125 
Q 15.578125 40.375 12.03125 44.71875 
Q 8.5 49.078125 8.5 55.328125 
Q 8.5 64.0625 14.71875 69.140625 
Q 20.953125 74.21875 31.78125 74.21875 
Q 42.671875 74.21875 48.875 69.140625 
Q 55.078125 64.0625 55.078125 55.328125 
Q 55.078125 49.078125 51.53125 44.71875 
Q 48 40.375 41.703125 38.8125 
Q 48.828125 37.15625 52.796875 32.3125 
Q 56.78125 27.484375 56.78125 20.515625 
Q 56.78125 9.90625 50.3125 4.234375 
Q 43.84375 -1.421875 31.78125 -1.421875 
Q 19.734375 -1.421875 13.25 4.234375 
Q 6.78125 9.90625 6.78125 20.515625 
Q 6.78125 27.484375 10.78125 32.3125 
Q 14.796875 37.15625 21.921875 38.8125 
z
M 18.3125 54.390625 
Q 18.3125 48.734375 21.84375 45.5625 
Q 25.390625 42.390625 31.78125 42.390625 
Q 38.140625 42.390625 41.71875 45.5625 
Q 45.3125 48.734375 45.3125 54.390625 
Q 45.3125 60.0625 41.71875 63.234375 
Q 38.140625 66.40625 31.78125 66.40625 
Q 25.390625 66.40625 21.84375 63.234375 
Q 18.3125 60.0625 18.3125 54.390625 
z
" id="DejaVuSans-38"/>
      </defs>
      <g transform="translate(391.464687 322.182437)scale(0.1 -0.1)">
       <use xlink:href="#DejaVuSans-30"/>
       <use x="63.623047" xlink:href="#DejaVuSans-2e"/>
       <use x="95.410156" xlink:href="#DejaVuSans-30"/>
       <use x="159.033203" xlink:href="#DejaVuSans-30"/>
       <use x="222.65625" xlink:href="#DejaVuSans-30"/>
       <use x="286.279297" xlink:href="#DejaVuSans-38"/>
      </g>
     </g>
    </g>
    <g id="text_10">
     <!-- Time (s) -->
     <defs>
      <path d="M -0.296875 72.90625 
L 61.375 72.90625 
L 61.375 64.59375 
L 35.5 64.59375 
L 35.5 0 
L 25.59375 0 
L 25.59375 64.59375 
L -0.296875 64.59375 
z
" id="DejaVuSans-54"/>
      <path d="M 9.421875 54.6875 
L 18.40625 54.6875 
L 18.40625 0 
L 9.421875 0 
z
M 9.421875 75.984375 
L 18.40625 75.984375 
L 18.40625 64.59375 
L 9.421875 64.59375 
z
" id="DejaVuSans-69"/>
      <path d="M 52 44.1875 
Q 55.375 50.25 60.0625 53.125 
Q 64.75 56 71.09375 56 
Q 79.640625 56 84.28125 50.015625 
Q 88.921875 44.046875 88.921875 33.015625 
L 88.921875 0 
L 79.890625 0 
L 79.890625 32.71875 
Q 79.890625 40.578125 77.09375 44.375 
Q 74.3125 48.1875 68.609375 48.1875 
Q 61.625 48.1875 57.5625 43.546875 
Q 53.515625 38.921875 53.515625 30.90625 
L 53.515625 0 
L 44.484375 0 
L 44.484375 32.71875 
Q 44.484375 40.625 41.703125 44.40625 
Q 38.921875 48.1875 33.109375 48.1875 
Q 26.21875 48.1875 22.15625 43.53125 
Q 18.109375 38.875 18.109375 30.90625 
L 18.109375 0 
L 9.078125 0 
L 9.078125 54.6875 
L 18.109375 54.6875 
L 18.109375 46.1875 
Q 21.1875 51.21875 25.484375 53.609375 
Q 29.78125 56 35.6875 56 
Q 41.65625 56 45.828125 52.96875 
Q 50 49.953125 52 44.1875 
z
" id="DejaVuSans-6d"/>
      <path d="M 56.203125 29.59375 
L 56.203125 25.203125 
L 14.890625 25.203125 
Q 15.484375 15.921875 20.484375 11.0625 
Q 25.484375 6.203125 34.421875 6.203125 
Q 39.59375 6.203125 44.453125 7.46875 
Q 49.3125 8.734375 54.109375 11.28125 
L 54.109375 2.78125 
Q 49.265625 0.734375 44.1875 -0.34375 
Q 39.109375 -1.421875 33.890625 -1.421875 
Q 20.796875 -1.421875 13.15625 6.1875 
Q 5.515625 13.8125 5.515625 26.8125 
Q 5.515625 40.234375 12.765625 48.109375 
Q 20.015625 56 32.328125 56 
Q 43.359375 56 49.78125 48.890625 
Q 56.203125 41.796875 56.203125 29.59375 
z
M 47.21875 32.234375 
Q 47.125 39.59375 43.09375 43.984375 
Q 39.0625 48.390625 32.421875 48.390625 
Q 24.90625 48.390625 20.390625 44.140625 
Q 15.875 39.890625 15.1875 32.171875 
z
" id="DejaVuSans-65"/>
      <path id="DejaVuSans-20"/>
      <path d="M 31 75.875 
Q 24.46875 64.65625 21.28125 53.65625 
Q 18.109375 42.671875 18.109375 31.390625 
Q 18.109375 20.125 21.3125 9.0625 
Q 24.515625 -2 31 -13.1875 
L 23.1875 -13.1875 
Q 15.875 -1.703125 12.234375 9.375 
Q 8.59375 20.453125 8.59375 31.390625 
Q 8.59375 42.28125 12.203125 53.3125 
Q 15.828125 64.359375 23.1875 75.875 
z
" id="DejaVuSans-28"/>
      <path d="M 44.28125 53.078125 
L 44.28125 44.578125 
Q 40.484375 46.53125 36.375 47.5 
Q 32.28125 48.484375 27.875 48.484375 
Q 21.1875 48.484375 17.84375 46.4375 
Q 14.5 44.390625 14.5 40.28125 
Q 14.5 37.15625 16.890625 35.375 
Q 19.28125 33.59375 26.515625 31.984375 
L 29.59375 31.296875 
Q 39.15625 29.25 43.1875 25.515625 
Q 47.21875 21.78125 47.21875 15.09375 
Q 47.21875 7.46875 41.1875 3.015625 
Q 35.15625 -1.421875 24.609375 -1.421875 
Q 20.21875 -1.421875 15.453125 -0.5625 
Q 10.6875 0.296875 5.421875 2 
L 5.421875 11.28125 
Q 10.40625 8.6875 15.234375 7.390625 
Q 20.0625 6.109375 24.8125 6.109375 
Q 31.15625 6.109375 34.5625 8.28125 
Q 37.984375 10.453125 37.984375 14.40625 
Q 37.984375 18.0625 35.515625 20.015625 
Q 33.0625 21.96875 24.703125 23.78125 
L 21.578125 24.515625 
Q 13.234375 26.265625 9.515625 29.90625 
Q 5.8125 33.546875 5.8125 39.890625 
Q 5.8125 47.609375 11.28125 51.796875 
Q 16.75 56 26.8125 56 
Q 31.78125 56 36.171875 55.265625 
Q 40.578125 54.546875 44.28125 53.078125 
z
" id="DejaVuSans-73"/>
      <path d="M 8.015625 75.875 
L 15.828125 75.875 
Q 23.140625 64.359375 26.78125 53.3125 
Q 30.421875 42.28125 30.421875 31.390625 
Q 30.421875 20.453125 26.78125 9.375 
Q 23.140625 -1.703125 15.828125 -13.1875 
L 8.015625 -13.1875 
Q 14.5 -2 17.703125 9.0625 
Q 20.90625 20.125 20.90625 31.390625 
Q 20.90625 42.671875 17.703125 53.65625 
Q 14.5 64.65625 8.015625 75.875 
z
" id="DejaVuSans-29"/>
     </defs>
     <g transform="translate(215.677188 335.860562)scale(0.1 -0.1)">
      <use xlink:href="#DejaVuSans-54"/>
      <use x="61.037109" xlink:href="#DejaVuSans-69"/>
      <use x="88.820312" xlink:href="#DejaVuSans-6d"/>
      <use x="186.232422" xlink:href="#DejaVuSans-65"/>
      <use x="247.755859" xlink:href="#DejaVuSans-20"/>
      <use x="279.542969" xlink:href="#DejaVuSans-28"/>
      <use x="318.556641" xlink:href="#DejaVuSans-73"/>
      <use x="370.65625" xlink:href="#DejaVuSans-29"/>
     </g>
    </g>
   </g>
   <g id="matplotlib.axis_2">
    <g id="ytick_1">
     <g id="line2d_10">
      <defs>
       <path d="M 0 0 
L -3.5 0 
" id="mc23783bc85" style="stroke:#000000;stroke-width:0.8;"/>
      </defs>
      <g>
       <use style="stroke:#000000;stroke-width:0.8;" x="57.6" xlink:href="#mc23783bc85" y="307.584"/>
      </g>
     </g>
     <g id="text_11">
      <!-- −50 -->
      <defs>
       <path d="M 10.59375 35.5 
L 73.1875 35.5 
L 73.1875 27.203125 
L 10.59375 27.203125 
z
" id="DejaVuSans-2212"/>
      </defs>
      <g transform="translate(29.495313 311.383219)scale(0.1 -0.1)">
       <use xlink:href="#DejaVuSans-2212"/>
       <use x="83.789062" xlink:href="#DejaVuSans-35"/>
       <use x="147.412109" xlink:href="#DejaVuSans-30"/>
      </g>
     </g>
    </g>
    <g id="ytick_2">
     <g id="line2d_11">
      <g>
       <use style="stroke:#000000;stroke-width:0.8;" x="57.6" xlink:href="#mc23783bc85" y="274.32"/>
      </g>
     </g>
     <g id="text_12">
      <!-- −40 -->
      <g transform="translate(29.495313 278.119219)scale(0.1 -0.1)">
       <use xlink:href="#DejaVuSans-2212"/>
       <use x="83.789062" xlink:href="#DejaVuSans-34"/>
       <use x="147.412109" xlink:href="#DejaVuSans-30"/>
      </g>
     </g>
    </g>
    <g id="ytick_3">
     <g id="line2d_12">
      <g>
       <use style="stroke:#000000;stroke-width:0.8;" x="57.6" xlink:href="#mc23783bc85" y="241.056"/>
      </g>
     </g>
     <g id="text_13">
      <!-- −30 -->
      <g transform="translate(29.495313 244.855219)scale(0.1 -0.1)">
       <use xlink:href="#DejaVuSans-2212"/>
       <use x="83.789062" xlink:href="#DejaVuSans-33"/>
       <use x="147.412109" xlink:href="#DejaVuSans-30"/>
      </g>
     </g>
    </g>
    <g id="ytick_4">
     <g id="line2d_13">
      <g>
       <use style="stroke:#000000;stroke-width:0.8;" x="57.6" xlink:href="#mc23783bc85" y="207.792"/>
      </g>
     </g>
     <g id="text_14">
      <!-- −20 -->
      <g transform="translate(29.495313 211.591219)scale(0.1 -0.1)">
       <use xlink:href="#DejaVuSans-2212"/>
       <use x="83.789062" xlink:href="#DejaVuSans-32"/>
       <use x="147.412109" xlink:href="#DejaVuSans-30"/>
      </g>
     </g>
    </g>
    <g id="ytick_5">
     <g id="line2d_14">
      <g>
       <use style="stroke:#000000;stroke-width:0.8;" x="57.6" xlink:href="#mc23783bc85" y="174.528"/>
      </g>
     </g>
     <g id="text_15">
      <!-- −10 -->
      <g transform="translate(29.495313 178.327219)scale(0.1 -0.1)">
       <use xlink:href="#DejaVuSans-2212"/>
       <use x="83.789062" xlink:href="#DejaVuSans-31"/>
       <use x="147.412109" xlink:href="#DejaVuSans-30"/>
      </g>
     </g>
    </g>
    <g id="ytick_6">
     <g id="line2d_15">
      <g>
       <use style="stroke:#000000;stroke-width:0.8;" x="57.6" xlink:href="#mc23783bc85" y="141.264"/>
      </g>
     </g>
     <g id="text_16">
      <!-- 0 -->
      <g transform="translate(44.2375 145.063219)scale(0.1 -0.1)">
       <use xlink:href="#DejaVuSans-30"/>
      </g>
     </g>
    </g>
    <g id="ytick_7">
     <g id="line2d_16">
      <g>
       <use style="stroke:#000000;stroke-width:0.8;" x="57.6" xlink:href="#mc23783bc85" y="108"/>
      </g>
     </g>
     <g id="text_17">
      <!-- 10 -->
      <g transform="translate(37.875 111.799219)scale(0.1 -0.1)">
       <use xlink:href="#DejaVuSans-31"/>
       <use x="63.623047" xlink:href="#DejaVuSans-30"/>
      </g>
     </g>
    </g>
    <g id="ytick_8">
     <g id="line2d_17">
      <g>
       <use style="stroke:#000000;stroke-width:0.8;" x="57.6" xlink:href="#mc23783bc85" y="74.736"/>
      </g>
     </g>
     <g id="text_18">
      <!-- 20 -->
      <g transform="translate(37.875 78.535219)scale(0.1 -0.1)">
       <use xlink:href="#DejaVuSans-32"/>
       <use x="63.623047" xlink:href="#DejaVuSans-30"/>
      </g>
     </g>
    </g>
    <g id="ytick_9">
     <g id="line2d_18">
      <g>
       <use style="stroke:#000000;stroke-width:0.8;" x="57.6" xlink:href="#mc23783bc85" y="41.472"/>
      </g>
     </g>
     <g id="text_19">
      <!-- 30 -->
      <g transform="translate(37.875 45.271219)scale(0.1 -0.1)">
       <use xlink:href="#DejaVuSans-33"/>
       <use x="63.623047" xlink:href="#DejaVuSans-30"/>
      </g>
     </g>
    </g>
    <g id="text_20">
     <!-- Voltage ($\mu$V) -->
     <defs>
      <path d="M 28.609375 0 
L 0.78125 72.90625 
L 11.078125 72.90625 
L 34.1875 11.53125 
L 57.328125 72.90625 
L 67.578125 72.90625 
L 39.796875 0 
z
" id="DejaVuSans-56"/>
      <path d="M 30.609375 48.390625 
Q 23.390625 48.390625 19.1875 42.75 
Q 14.984375 37.109375 14.984375 27.296875 
Q 14.984375 17.484375 19.15625 11.84375 
Q 23.34375 6.203125 30.609375 6.203125 
Q 37.796875 6.203125 41.984375 11.859375 
Q 46.1875 17.53125 46.1875 27.296875 
Q 46.1875 37.015625 41.984375 42.703125 
Q 37.796875 48.390625 30.609375 48.390625 
z
M 30.609375 56 
Q 42.328125 56 49.015625 48.375 
Q 55.71875 40.765625 55.71875 27.296875 
Q 55.71875 13.875 49.015625 6.21875 
Q 42.328125 -1.421875 30.609375 -1.421875 
Q 18.84375 -1.421875 12.171875 6.21875 
Q 5.515625 13.875 5.515625 27.296875 
Q 5.515625 40.765625 12.171875 48.375 
Q 18.84375 56 30.609375 56 
z
" id="DejaVuSans-6f"/>
      <path d="M 9.421875 75.984375 
L 18.40625 75.984375 
L 18.40625 0 
L 9.421875 0 
z
" id="DejaVuSans-6c"/>
      <path d="M 18.3125 70.21875 
L 18.3125 54.6875 
L 36.8125 54.6875 
L 36.8125 47.703125 
L 18.3125 47.703125 
L 18.3125 18.015625 
Q 18.3125 11.328125 20.140625 9.421875 
Q 21.96875 7.515625 27.59375 7.515625 
L 36.8125 7.515625 
L 36.8125 0 
L 27.59375 0 
Q 17.1875 0 13.234375 3.875 
Q 9.28125 7.765625 9.28125 18.015625 
L 9.28125 47.703125 
L 2.6875 47.703125 
L 2.6875 54.6875 
L 9.28125 54.6875 
L 9.28125 70.21875 
z
" id="DejaVuSans-74"/>
      <path d="M 34.28125 27.484375 
Q 23.390625 27.484375 19.1875 25 
Q 14.984375 22.515625 14.984375 16.5 
Q 14.984375 11.71875 18.140625 8.90625 
Q 21.296875 6.109375 26.703125 6.109375 
Q 34.1875 6.109375 38.703125 11.40625 
Q 43.21875 16.703125 43.21875 25.484375 
L 43.21875 27.484375 
z
M 52.203125 31.203125 
L 52.203125 0 
L 43.21875 0 
L 43.21875 8.296875 
Q 40.140625 3.328125 35.546875 0.953125 
Q 30.953125 -1.421875 24.3125 -1.421875 
Q 15.921875 -1.421875 10.953125 3.296875 
Q 6 8.015625 6 15.921875 
Q 6 25.140625 12.171875 29.828125 
Q 18.359375 34.515625 30.609375 34.515625 
L 43.21875 34.515625 
L 43.21875 35.40625 
Q 43.21875 41.609375 39.140625 45 
Q 35.0625 48.390625 27.6875 48.390625 
Q 23 48.390625 18.546875 47.265625 
Q 14.109375 46.140625 10.015625 43.890625 
L 10.015625 52.203125 
Q 14.9375 54.109375 19.578125 55.046875 
Q 24.21875 56 28.609375 56 
Q 40.484375 56 46.34375 49.84375 
Q 52.203125 43.703125 52.203125 31.203125 
z
" id="DejaVuSans-61"/>
      <path d="M 45.40625 27.984375 
Q 45.40625 37.75 41.375 43.109375 
Q 37.359375 48.484375 30.078125 48.484375 
Q 22.859375 48.484375 18.828125 43.109375 
Q 14.796875 37.75 14.796875 27.984375 
Q 14.796875 18.265625 18.828125 12.890625 
Q 22.859375 7.515625 30.078125 7.515625 
Q 37.359375 7.515625 41.375 12.890625 
Q 45.40625 18.265625 45.40625 27.984375 
z
M 54.390625 6.78125 
Q 54.390625 -7.171875 48.1875 -13.984375 
Q 42 -20.796875 29.203125 -20.796875 
Q 24.46875 -20.796875 20.265625 -20.09375 
Q 16.0625 -19.390625 12.109375 -17.921875 
L 12.109375 -9.1875 
Q 16.0625 -11.328125 19.921875 -12.34375 
Q 23.78125 -13.375 27.78125 -13.375 
Q 36.625 -13.375 41.015625 -8.765625 
Q 45.40625 -4.15625 45.40625 5.171875 
L 45.40625 9.625 
Q 42.625 4.78125 38.28125 2.390625 
Q 33.9375 0 27.875 0 
Q 17.828125 0 11.671875 7.65625 
Q 5.515625 15.328125 5.515625 27.984375 
Q 5.515625 40.671875 11.671875 48.328125 
Q 17.828125 56 27.875 56 
Q 33.9375 56 38.28125 53.609375 
Q 42.625 51.21875 45.40625 46.390625 
L 45.40625 54.6875 
L 54.390625 54.6875 
z
" id="DejaVuSans-67"/>
      <path d="M -1.3125 -20.796875 
L 13.375 54.6875 
L 22.40625 54.6875 
L 15.765625 20.65625 
Q 15.578125 19.625 15.421875 18.359375 
Q 15.28125 17.09375 15.28125 15.828125 
Q 15.28125 11.28125 18.140625 8.828125 
Q 21 6.390625 26.3125 6.390625 
Q 33.546875 6.390625 37.984375 10.484375 
Q 42.4375 14.59375 44 22.796875 
L 50.203125 54.6875 
L 59.1875 54.6875 
L 51.03125 12.640625 
Q 50.828125 11.71875 50.75 11.03125 
Q 50.6875 10.359375 50.6875 9.8125 
Q 50.6875 8.296875 51.296875 7.59375 
Q 51.90625 6.890625 53.21875 6.890625 
Q 53.71875 6.890625 54.5625 7.125 
Q 55.421875 7.375 56.984375 8.015625 
L 55.609375 0.78125 
Q 53.46875 -0.296875 51.515625 -0.859375 
Q 49.5625 -1.421875 47.703125 -1.421875 
Q 44.484375 -1.421875 42.65625 0.625 
Q 40.828125 2.6875 40.828125 6.296875 
Q 38.09375 2.390625 34.296875 0.484375 
Q 30.515625 -1.421875 25.390625 -1.421875 
Q 20.84375 -1.421875 17.453125 0.671875 
Q 14.0625 2.78125 12.984375 6.203125 
L 7.71875 -20.796875 
z
" id="DejaVuSans-Oblique-3bc"/>
     </defs>
     <g transform="translate(23.395312 205.778)rotate(-90)scale(0.1 -0.1)">
      <use transform="translate(0 0.015625)" xlink:href="#DejaVuSans-56"/>
      <use transform="translate(68.408203 0.015625)" xlink:href="#DejaVuSans-6f"/>
      <use transform="translate(129.589844 0.015625)" xlink:href="#DejaVuSans-6c"/>
      <use transform="translate(157.373047 0.015625)" xlink:href="#DejaVuSans-74"/>
      <use transform="translate(196.582031 0.015625)" xlink:href="#DejaVuSans-61"/>
      <use transform="translate(257.861328 0.015625)" xlink:href="#DejaVuSans-67"/>
      <use transform="translate(321.337891 0.015625)" xlink:href="#DejaVuSans-65"/>
      <use transform="translate(382.861328 0.015625)" xlink:href="#DejaVuSans-20"/>
      <use transform="translate(414.648438 0.015625)" xlink:href="#DejaVuSans-28"/>
      <use transform="translate(453.662109 0.015625)" xlink:href="#DejaVuSans-Oblique-3bc"/>
      <use transform="translate(517.285156 0.015625)" xlink:href="#DejaVuSans-56"/>
      <use transform="translate(585.693359 0.015625)" xlink:href="#DejaVuSans-29"/>
     </g>
    </g>
   </g>
   <g id="line2d_19">
    <path clip-path="url(#p0774f2752b)" d="M 73.832727 155.468281 
L 84.305455 160.699066 
L 94.778182 166.490053 
L 105.250909 171.089457 
L 115.723636 175.247457 
L 126.196364 183.828709 
L 136.669091 201.758291 
L 147.141818 226.974103 
L 157.614545 249.467245 
L 168.087273 259.520183 
L 178.56 256.406291 
L 189.032727 247.134771 
L 199.505455 238.274441 
L 209.978182 231.174605 
L 220.450909 223.90681 
L 230.923636 215.357819 
L 241.396364 206.182055 
L 251.869091 197.341697 
L 262.341818 189.054372 
L 272.814545 181.133178 
L 283.287273 173.639048 
L 293.76 166.758378 
L 304.232727 160.394897 
L 314.705455 154.254166 
L 325.178182 148.328503 
L 335.650909 142.779724 
L 346.123636 137.725603 
L 356.596364 133.174847 
L 367.069091 129.021967 
L 377.541818 125.036534 
L 388.014545 121.126376 
L 398.487273 117.665814 
" style="fill:none;stroke:#000000;stroke-linecap:square;stroke-width:1.5;"/>
   </g>
   <g id="line2d_20">
    <path clip-path="url(#p0774f2752b)" d="M 73.832727 168.0831 
L 84.305455 190.3284 
L 94.778182 206.9604 
L 105.250909 206.1288 
L 115.723636 195.62985 
L 126.196364 195.62985 
L 136.669091 213.71715 
L 147.141818 236.2743 
L 157.614545 244.90215 
L 168.087273 240.12045 
L 178.56 235.8585 
L 189.032727 235.8585 
L 199.505455 233.9874 
L 209.978182 226.7109 
L 220.450909 214.8606 
L 230.923636 200.82735 
L 241.396364 188.35335 
L 251.869091 182.0124 
L 262.341818 179.3097 
L 272.814545 173.38455 
L 283.287273 166.4199 
L 293.76 162.2619 
L 304.232727 157.896 
L 314.705455 152.80245 
L 325.178182 146.98125 
L 335.650909 137.7297 
L 346.123636 125.98335 
L 356.596364 117.45945 
L 367.069091 115.4844 
L 377.541818 115.17255 
L 388.014545 108.2079 
L 398.487273 94.4865 
" style="fill:none;stroke:#ff0000;stroke-linecap:square;stroke-width:1.5;"/>
   </g>
   <g id="line2d_21">
    <path clip-path="url(#p0774f2752b)" d="M 73.832727 174.1122 
L 84.305455 174.528 
L 94.778182 168.9147 
L 105.250909 160.1829 
L 115.723636 158.62365 
L 126.196364 171.92925 
L 136.669091 197.91675 
L 147.141818 224.424 
L 157.614545 239.8086 
L 168.087273 243.44685 
L 178.56 242.9271 
L 189.032727 240.95205 
L 199.505455 236.0664 
L 209.978182 230.97285 
L 220.450909 228.9978 
L 230.923636 228.06225 
L 241.396364 226.81485 
L 251.869091 226.7109 
L 262.341818 227.1267 
L 272.814545 221.40945 
L 283.287273 205.40115 
L 293.76 188.35335 
L 304.232727 180.9729 
L 314.705455 179.20575 
L 325.178182 173.38455 
L 335.650909 162.4698 
L 346.123636 148.3326 
L 356.596364 133.3638 
L 367.069091 124.52805 
L 377.541818 125.77545 
L 388.014545 133.46775 
L 398.487273 142.40745 
" style="fill:none;stroke:#ff1e00;stroke-linecap:square;stroke-width:1.5;"/>
   </g>
   <g id="line2d_22">
    <path clip-path="url(#p0774f2752b)" d="M 73.832727 115.4844 
L 84.305455 148.22865 
L 94.778182 172.96875 
L 105.250909 180.03735 
L 115.723636 171.8253 
L 126.196364 165.5883 
L 136.669091 178.99785 
L 147.141818 211.01445 
L 157.614545 243.44685 
L 168.087273 262.36575 
L 178.56 267.2514 
L 189.032727 262.2618 
L 199.505455 253.01025 
L 209.978182 244.90215 
L 220.450909 239.28885 
L 230.923636 235.54665 
L 241.396364 233.7795 
L 251.869091 232.1163 
L 262.341818 227.85435 
L 272.814545 222.5529 
L 283.287273 217.45935 
L 293.76 207.3762 
L 304.232727 192.30345 
L 314.705455 184.19535 
L 325.178182 190.84815 
L 335.650909 200.41155 
L 346.123636 197.50095 
L 356.596364 183.4677 
L 367.069091 173.2806 
L 377.541818 174.7359 
L 388.014545 178.2702 
L 398.487273 171.4095 
" style="fill:none;stroke:#ff3b00;stroke-linecap:square;stroke-width:1.5;"/>
   </g>
   <g id="line2d_23">
    <path clip-path="url(#p0774f2752b)" d="M 73.832727 213.4053 
L 84.305455 213.92505 
L 94.778182 201.45105 
L 105.250909 189.4968 
L 115.723636 188.2494 
L 126.196364 198.74835 
L 136.669091 214.6527 
L 147.141818 230.14125 
L 157.614545 240.2244 
L 168.087273 243.65475 
L 178.56 243.135 
L 189.032727 244.5903 
L 199.505455 247.7088 
L 209.978182 247.0851 
L 220.450909 245.31795 
L 230.923636 248.22855 
L 241.396364 249.1641 
L 251.869091 233.3637 
L 262.341818 200.9313 
L 272.814545 167.14755 
L 283.287273 148.9563 
L 293.76 151.4511 
L 304.232727 164.9646 
L 314.705455 172.34505 
L 325.178182 164.133 
L 335.650909 148.3326 
L 346.123636 136.79415 
L 356.596364 135.33885 
L 367.069091 144.7983 
L 377.541818 157.896 
L 388.014545 164.02905 
L 398.487273 156.12885 
" style="fill:none;stroke:#ff5900;stroke-linecap:square;stroke-width:1.5;"/>
   </g>
   <g id="line2d_24">
    <path clip-path="url(#p0774f2752b)" d="M 73.832727 144.27855 
L 84.305455 137.83365 
L 94.778182 128.27025 
L 105.250909 127.43865 
L 115.723636 140.53635 
L 126.196364 164.02905 
L 136.669091 194.6943 
L 147.141818 229.93335 
L 157.614545 261.53415 
L 168.087273 274.1121 
L 178.56 263.40525 
L 189.032727 246.35745 
L 199.505455 242.0955 
L 209.978182 252.59445 
L 220.450909 265.27635 
L 230.923636 267.35535 
L 241.396364 256.33665 
L 251.869091 236.898 
L 262.341818 214.6527 
L 272.814545 192.30345 
L 283.287273 174.9438 
L 293.76 165.69225 
L 304.232727 159.45525 
L 314.705455 151.55505 
L 325.178182 145.2141 
L 335.650909 144.7983 
L 346.123636 145.2141 
L 356.596364 137.00205 
L 367.069091 118.395 
L 377.541818 99.99585 
L 388.014545 91.5759 
L 398.487273 92.92725 
" style="fill:none;stroke:#ff7600;stroke-linecap:square;stroke-width:1.5;"/>
   </g>
   <g id="line2d_25">
    <path clip-path="url(#p0774f2752b)" d="M 73.832727 142.82325 
L 84.305455 144.27855 
L 94.778182 147.2931 
L 105.250909 148.9563 
L 115.723636 150.30765 
L 126.196364 160.1829 
L 136.669091 186.5862 
L 147.141818 222.24105 
L 157.614545 249.7878 
L 168.087273 261.11835 
L 178.56 260.5986 
L 189.032727 253.3221 
L 199.505455 243.9666 
L 209.978182 236.6901 
L 220.450909 229.30965 
L 230.923636 215.0685 
L 241.396364 192.09555 
L 251.869091 165.3804 
L 262.341818 141.4719 
L 272.814545 123.5925 
L 283.287273 115.0686 
L 293.76 120.99375 
L 304.232727 142.3035 
L 314.705455 171.30555 
L 325.178182 194.2785 
L 335.650909 199.37205 
L 346.123636 187.2099 
L 356.596364 173.17665 
L 367.069091 167.4594 
L 377.541818 164.3409 
L 388.014545 156.54465 
L 398.487273 147.501 
" style="fill:none;stroke:#ff9400;stroke-linecap:square;stroke-width:1.5;"/>
   </g>
   <g id="line2d_26">
    <path clip-path="url(#p0774f2752b)" d="M 73.832727 122.553 
L 84.305455 132.84405 
L 94.778182 145.6299 
L 105.250909 155.4012 
L 115.723636 156.33675 
L 126.196364 159.975 
L 136.669091 181.28475 
L 147.141818 216.5238 
L 157.614545 248.5404 
L 168.087273 265.48425 
L 178.56 265.1724 
L 189.032727 255.1932 
L 199.505455 244.07055 
L 209.978182 234.6111 
L 220.450909 225.77535 
L 230.923636 215.79615 
L 241.396364 205.40115 
L 251.869091 197.08515 
L 262.341818 193.6548 
L 272.814545 198.0207 
L 283.287273 206.5446 
L 293.76 206.64855 
L 304.232727 191.88765 
L 314.705455 172.34505 
L 325.178182 161.4303 
L 335.650909 163.40535 
L 346.123636 170.5779 
L 356.596364 168.9147 
L 367.069091 154.04985 
L 377.541818 137.9376 
L 388.014545 132.01245 
L 398.487273 134.8191 
" style="fill:none;stroke:#ffb100;stroke-linecap:square;stroke-width:1.5;"/>
   </g>
   <g id="line2d_27">
    <path clip-path="url(#p0774f2752b)" d="M 73.832727 156.0249 
L 84.305455 160.5987 
L 94.778182 170.68185 
L 105.250909 181.70055 
L 115.723636 192.09555 
L 126.196364 203.73795 
L 136.669091 218.08305 
L 147.141818 234.1953 
L 157.614545 246.2535 
L 168.087273 244.3824 
L 178.56 227.9583 
L 189.032727 208.2078 
L 199.505455 197.08515 
L 209.978182 195.83775 
L 220.450909 196.25355 
L 230.923636 191.9916 
L 241.396364 184.923 
L 251.869091 181.07685 
L 262.341818 178.78995 
L 272.814545 173.59245 
L 283.287273 168.18705 
L 293.76 169.64235 
L 304.232727 181.28475 
L 314.705455 196.1496 
L 325.178182 199.78785 
L 335.650909 184.19535 
L 346.123636 156.54465 
L 356.596364 133.25985 
L 367.069091 124.94385 
L 377.541818 131.59665 
L 388.014545 145.73385 
L 398.487273 159.66315 
" style="fill:none;stroke:#ffcf00;stroke-linecap:square;stroke-width:1.5;"/>
   </g>
   <g id="line2d_28">
    <path clip-path="url(#p0774f2752b)" d="M 73.832727 183.2598 
L 84.305455 190.22445 
L 94.778182 186.7941 
L 105.250909 180.45315 
L 115.723636 183.6756 
L 126.196364 195.42195 
L 136.669091 210.2868 
L 147.141818 230.0373 
L 157.614545 254.5695 
L 168.087273 273.2805 
L 178.56 276.50295 
L 189.032727 266.31585 
L 199.505455 251.8668 
L 209.978182 238.5612 
L 220.450909 226.81485 
L 230.923636 215.4843 
L 241.396364 202.07475 
L 251.869091 184.2993 
L 262.341818 163.5093 
L 272.814545 147.501 
L 283.287273 143.03115 
L 293.76 147.60495 
L 304.232727 152.38665 
L 314.705455 152.80245 
L 325.178182 151.55505 
L 335.650909 147.7089 
L 346.123636 137.41785 
L 356.596364 123.90435 
L 367.069091 114.237 
L 377.541818 110.4948 
L 388.014545 112.88565 
L 398.487273 121.40955 
" style="fill:none;stroke:#ffec00;stroke-linecap:square;stroke-width:1.5;"/>
   </g>
   <g id="line2d_29">
    <path clip-path="url(#p0774f2752b)" d="M 73.832727 80.7651 
L 84.305455 88.56135 
L 94.778182 101.45115 
L 105.250909 115.38045 
L 115.723636 136.37835 
L 126.196364 170.88975 
L 136.669091 210.18285 
L 147.141818 237.9375 
L 157.614545 251.13915 
L 168.087273 259.03935 
L 178.56 265.5882 
L 189.032727 267.0435 
L 199.505455 261.94995 
L 209.978182 251.34705 
L 220.450909 233.46765 
L 230.923636 205.81695 
L 241.396364 172.0332 
L 251.869091 143.1351 
L 262.341818 128.1663 
L 272.814545 125.0478 
L 283.287273 121.9293 
L 293.76 112.7817 
L 304.232727 104.0499 
L 314.705455 100.0998 
L 325.178182 97.1892 
L 335.650909 93.75885 
L 346.123636 94.0707 
L 356.596364 98.54055 
L 367.069091 106.5447 
L 377.541818 120.16215 
L 388.014545 139.3929 
L 398.487273 156.33675 
" style="fill:none;stroke:#eeff00;stroke-linecap:square;stroke-width:1.5;"/>
   </g>
   <g id="line2d_30">
    <path clip-path="url(#p0774f2752b)" d="M 73.832727 94.38255 
L 84.305455 122.44905 
L 94.778182 162.78165 
L 105.250909 197.70885 
L 115.723636 208.6236 
L 126.196364 199.78785 
L 136.669091 195.9417 
L 147.141818 214.2369 
L 157.614545 243.7587 
L 168.087273 260.1828 
L 178.56 258.3117 
L 189.032727 248.64435 
L 199.505455 238.7691 
L 209.978182 231.0768 
L 220.450909 227.9583 
L 230.923636 230.2452 
L 241.396364 234.29925 
L 251.869091 233.5716 
L 262.341818 222.345 
L 272.814545 203.8419 
L 283.287273 187.10595 
L 293.76 177.4386 
L 304.232727 172.8648 
L 314.705455 170.1621 
L 325.178182 170.05815 
L 335.650909 170.5779 
L 346.123636 164.86065 
L 356.596364 150.72345 
L 367.069091 138.66525 
L 377.541818 134.71515 
L 388.014545 129.51765 
L 398.487273 119.53845 
" style="fill:none;stroke:#d1ff00;stroke-linecap:square;stroke-width:1.5;"/>
   </g>
   <g id="line2d_31">
    <path clip-path="url(#p0774f2752b)" d="M 73.832727 119.95425 
L 84.305455 122.86485 
L 94.778182 128.27025 
L 105.250909 133.1559 
L 115.723636 145.31805 
L 126.196364 172.0332 
L 136.669091 206.3367 
L 147.141818 233.67555 
L 157.614545 242.40735 
L 168.087273 232.9479 
L 178.56 221.9292 
L 189.032727 222.24105 
L 199.505455 226.2951 
L 209.978182 219.33045 
L 220.450909 200.61945 
L 230.923636 183.57165 
L 241.396364 180.45315 
L 251.869091 190.7442 
L 262.341818 203.73795 
L 272.814545 210.0789 
L 283.287273 207.89595 
L 293.76 198.2286 
L 304.232727 186.27435 
L 314.705455 176.8149 
L 325.178182 168.291 
L 335.650909 157.58415 
L 346.123636 147.501 
L 356.596364 145.6299 
L 367.069091 153.01035 
L 377.541818 155.92095 
L 388.014545 143.1351 
L 398.487273 119.33055 
" style="fill:none;stroke:#b3ff00;stroke-linecap:square;stroke-width:1.5;"/>
   </g>
   <g id="line2d_32">
    <path clip-path="url(#p0774f2752b)" d="M 73.832727 147.2931 
L 84.305455 149.89185 
L 94.778182 160.8066 
L 105.250909 171.8253 
L 115.723636 178.99785 
L 126.196364 187.10595 
L 136.669091 205.19325 
L 147.141818 230.661 
L 157.614545 248.64435 
L 168.087273 248.9562 
L 178.56 236.58615 
L 189.032727 221.3055 
L 199.505455 209.0394 
L 209.978182 203.94585 
L 220.450909 206.44065 
L 230.923636 212.3658 
L 241.396364 219.2265 
L 251.869091 223.28055 
L 262.341818 217.9791 
L 272.814545 201.555 
L 283.287273 180.24525 
L 293.76 163.7172 
L 304.232727 156.96045 
L 314.705455 158.1039 
L 325.178182 161.95005 
L 335.650909 162.054 
L 346.123636 155.1933 
L 356.596364 141.4719 
L 367.069091 126.60705 
L 377.541818 117.45945 
L 388.014545 117.5634 
L 398.487273 123.3846 
" style="fill:none;stroke:#96ff00;stroke-linecap:square;stroke-width:1.5;"/>
   </g>
   <g id="line2d_33">
    <path clip-path="url(#p0774f2752b)" d="M 73.832727 154.88145 
L 84.305455 152.38665 
L 94.778182 158.9355 
L 105.250909 155.08935 
L 115.723636 148.22865 
L 126.196364 161.53425 
L 136.669091 197.70885 
L 147.141818 232.5321 
L 157.614545 245.31795 
L 168.087273 240.2244 
L 178.56 229.8294 
L 189.032727 217.25145 
L 199.505455 201.86685 
L 209.978182 187.8336 
L 220.450909 180.03735 
L 230.923636 176.29515 
L 241.396364 172.13715 
L 251.869091 171.30555 
L 262.341818 179.3097 
L 272.814545 188.2494 
L 283.287273 186.5862 
L 293.76 175.7754 
L 304.232727 162.57375 
L 314.705455 148.9563 
L 325.178182 136.2744 
L 335.650909 126.9189 
L 346.123636 125.77545 
L 356.596364 136.4823 
L 367.069091 152.2827 
L 377.541818 160.5987 
L 388.014545 155.4012 
L 398.487273 146.0457 
" style="fill:none;stroke:#78ff00;stroke-linecap:square;stroke-width:1.5;"/>
   </g>
   <g id="line2d_34">
    <path clip-path="url(#p0774f2752b)" d="M 73.832727 144.07065 
L 84.305455 151.97085 
L 94.778182 153.21825 
L 105.250909 148.02075 
L 115.723636 146.4615 
L 126.196364 157.16835 
L 136.669091 182.6361 
L 147.141818 217.04355 
L 157.614545 252.59445 
L 168.087273 282.94785 
L 178.56 301.03515 
L 189.032727 300.41145 
L 199.505455 285.02685 
L 209.978182 264.23685 
L 220.450909 244.48635 
L 230.923636 227.9583 
L 241.396364 215.79615 
L 251.869091 202.5945 
L 262.341818 178.99785 
L 272.814545 147.18915 
L 283.287273 124.8399 
L 293.76 120.99375 
L 304.232727 122.65695 
L 314.705455 111.9501 
L 325.178182 86.3784 
L 335.650909 60.5988 
L 346.123636 48.43665 
L 356.596364 50.4117 
L 367.069091 56.025 
L 377.541818 53.7381 
L 388.014545 42.82335 
L 398.487273 35.13105 
" style="fill:none;stroke:#5bff00;stroke-linecap:square;stroke-width:1.5;"/>
   </g>
   <g id="line2d_35">
    <path clip-path="url(#p0774f2752b)" d="M 73.832727 155.817 
L 84.305455 146.2536 
L 94.778182 152.4906 
L 105.250909 171.2016 
L 115.723636 188.35335 
L 126.196364 199.476 
L 136.669091 211.3263 
L 147.141818 226.81485 
L 157.614545 241.056 
L 168.087273 248.22855 
L 178.56 243.03105 
L 189.032727 224.94375 
L 199.505455 201.1392 
L 209.978182 182.94795 
L 220.450909 178.16625 
L 230.923636 183.6756 
L 241.396364 189.18495 
L 251.869091 183.8835 
L 262.341818 166.0041 
L 272.814545 145.8378 
L 283.287273 133.46775 
L 293.76 134.29935 
L 304.232727 148.85235 
L 314.705455 170.05815 
L 325.178182 187.10595 
L 335.650909 194.2785 
L 346.123636 194.17455 
L 356.596364 186.7941 
L 367.069091 168.39495 
L 377.541818 146.2536 
L 388.014545 132.63615 
L 398.487273 126.60705 
" style="fill:none;stroke:#3dff00;stroke-linecap:square;stroke-width:1.5;"/>
   </g>
   <g id="line2d_36">
    <path clip-path="url(#p0774f2752b)" d="M 73.832727 167.14755 
L 84.305455 171.6174 
L 94.778182 175.46355 
L 105.250909 178.78995 
L 115.723636 180.86895 
L 126.196364 186.3783 
L 136.669091 205.713 
L 147.141818 236.37825 
L 157.614545 261.846 
L 168.087273 271.8252 
L 178.56 270.9936 
L 189.032727 270.26595 
L 199.505455 272.0331 
L 209.978182 267.6672 
L 220.450909 251.8668 
L 230.923636 231.18075 
L 241.396364 215.6922 
L 251.869091 208.6236 
L 262.341818 208.6236 
L 272.814545 211.63815 
L 283.287273 211.43025 
L 293.76 199.16415 
L 304.232727 172.449 
L 314.705455 144.7983 
L 325.178182 129.4137 
L 335.650909 125.2557 
L 346.123636 124.73595 
L 356.596364 124.8399 
L 367.069091 126.81495 
L 377.541818 130.4532 
L 388.014545 133.7796 
L 398.487273 133.05195 
" style="fill:none;stroke:#20ff00;stroke-linecap:square;stroke-width:1.5;"/>
   </g>
   <g id="line2d_37">
    <path clip-path="url(#p0774f2752b)" d="M 73.832727 163.5093 
L 84.305455 161.2224 
L 94.778182 162.6777 
L 105.250909 164.133 
L 115.723636 158.9355 
L 126.196364 158.20785 
L 136.669091 177.33465 
L 147.141818 212.5737 
L 157.614545 243.86265 
L 168.087273 256.6485 
L 178.56 255.08925 
L 189.032727 251.8668 
L 199.505455 252.0747 
L 209.978182 250.6194 
L 220.450909 242.61525 
L 230.923636 230.14125 
L 241.396364 213.6132 
L 251.869091 197.29305 
L 262.341818 190.64025 
L 272.814545 196.87725 
L 283.287273 209.2473 
L 293.76 216.83565 
L 304.232727 214.029 
L 314.705455 204.0498 
L 325.178182 195.42195 
L 335.650909 194.6943 
L 346.123636 202.3866 
L 356.596364 210.59865 
L 367.069091 207.89595 
L 377.541818 193.8627 
L 388.014545 178.78995 
L 398.487273 161.74215 
" style="fill:none;stroke:#04ff08;stroke-linecap:square;stroke-width:1.5;"/>
   </g>
   <g id="line2d_38">
    <path clip-path="url(#p0774f2752b)" d="M 73.832727 159.24735 
L 84.305455 163.9251 
L 94.778182 167.8752 
L 105.250909 171.51345 
L 115.723636 177.4386 
L 126.196364 193.34295 
L 136.669091 218.08305 
L 147.141818 237.62565 
L 157.614545 241.15995 
L 168.087273 231.2847 
L 178.56 216.21195 
L 189.032727 197.397 
L 199.505455 176.8149 
L 209.978182 166.212 
L 220.450909 173.59245 
L 230.923636 189.7047 
L 241.396364 199.0602 
L 251.869091 193.34295 
L 262.341818 174.528 
L 272.814545 156.54465 
L 283.287273 154.3617 
L 293.76 167.97915 
L 304.232727 184.5072 
L 314.705455 190.84815 
L 325.178182 186.06645 
L 335.650909 176.3991 
L 346.123636 164.86065 
L 356.596364 156.96045 
L 367.069091 153.738 
L 377.541818 145.94175 
L 388.014545 127.7505 
L 398.487273 107.68815 
" style="fill:none;stroke:#00ff21;stroke-linecap:square;stroke-width:1.5;"/>
   </g>
   <g id="line2d_39">
    <path clip-path="url(#p0774f2752b)" d="M 73.832727 185.3388 
L 84.305455 204.6735 
L 94.778182 224.11215 
L 105.250909 232.63605 
L 115.723636 226.60695 
L 126.196364 215.2764 
L 136.669091 213.6132 
L 147.141818 225.6714 
L 157.614545 241.15995 
L 168.087273 245.214 
L 178.56 231.59655 
L 189.032727 208.51965 
L 199.505455 192.1995 
L 209.978182 190.84815 
L 220.450909 196.1496 
L 230.923636 194.79825 
L 241.396364 185.23485 
L 251.869091 172.2411 
L 262.341818 158.41575 
L 272.814545 143.5509 
L 283.287273 129.30975 
L 293.76 122.7609 
L 304.232727 128.27025 
L 314.705455 136.17045 
L 325.178182 133.7796 
L 335.650909 122.9688 
L 346.123636 116.41995 
L 356.596364 120.474 
L 367.069091 125.2557 
L 377.541818 120.37005 
L 388.014545 110.7027 
L 398.487273 108.6237 
" style="fill:none;stroke:#00ff3f;stroke-linecap:square;stroke-width:1.5;"/>
   </g>
   <g id="line2d_40">
    <path clip-path="url(#p0774f2752b)" d="M 73.832727 169.3305 
L 84.305455 168.7068 
L 94.778182 154.1538 
L 105.250909 138.66525 
L 115.723636 139.70475 
L 126.196364 161.74215 
L 136.669091 194.59035 
L 147.141818 224.6319 
L 157.614545 241.78365 
L 168.087273 243.86265 
L 178.56 238.5612 
L 189.032727 234.29925 
L 199.505455 232.3242 
L 209.978182 232.84395 
L 220.450909 237.83355 
L 230.923636 239.70465 
L 241.396364 225.77535 
L 251.869091 197.70885 
L 262.341818 175.1517 
L 272.814545 173.0727 
L 283.287273 186.3783 
L 293.76 201.3471 
L 304.232727 208.72755 
L 314.705455 204.77745 
L 325.178182 190.22445 
L 335.650909 169.22655 
L 346.123636 149.47605 
L 356.596364 138.1455 
L 367.069091 130.76505 
L 377.541818 115.38045 
L 388.014545 88.6653 
L 398.487273 62.8857 
" style="fill:none;stroke:#00ff5c;stroke-linecap:square;stroke-width:1.5;"/>
   </g>
   <g id="line2d_41">
    <path clip-path="url(#p0774f2752b)" d="M 73.832727 204.98535 
L 84.305455 209.55915 
L 94.778182 199.78785 
L 105.250909 186.69015 
L 115.723636 185.7546 
L 126.196364 197.397 
L 136.669091 212.26185 
L 147.141818 228.27015 
L 157.614545 246.8772 
L 168.087273 260.91045 
L 178.56 262.78155 
L 189.032727 249.9957 
L 199.505455 229.4136 
L 209.978182 216.7317 
L 220.450909 220.78575 
L 230.923636 237.3138 
L 241.396364 247.81275 
L 251.869091 233.05185 
L 262.341818 200.41155 
L 272.814545 178.58205 
L 283.287273 182.74005 
L 293.76 199.99575 
L 304.232727 206.02485 
L 314.705455 191.7837 
L 325.178182 168.7068 
L 335.650909 148.3326 
L 346.123636 130.4532 
L 356.596364 111.01455 
L 367.069091 92.92725 
L 377.541818 82.6362 
L 388.014545 87.10605 
L 398.487273 106.9605 
" style="fill:none;stroke:#00ff7a;stroke-linecap:square;stroke-width:1.5;"/>
   </g>
   <g id="line2d_42">
    <path clip-path="url(#p0774f2752b)" d="M 73.832727 105.7131 
L 84.305455 101.45115 
L 94.778182 116.00415 
L 105.250909 143.86275 
L 115.723636 169.01865 
L 126.196364 181.90845 
L 136.669091 192.09555 
L 147.141818 213.1974 
L 157.614545 241.2639 
L 168.087273 262.8855 
L 178.56 270.05805 
L 189.032727 256.8564 
L 199.505455 225.2556 
L 209.978182 190.64025 
L 220.450909 172.76085 
L 230.923636 175.9833 
L 241.396364 187.52175 
L 251.869091 191.47185 
L 262.341818 182.2203 
L 272.814545 166.4199 
L 283.287273 152.38665 
L 293.76 144.69435 
L 304.232727 146.14965 
L 314.705455 157.4802 
L 325.178182 173.2806 
L 335.650909 184.7151 
L 346.123636 186.1704 
L 356.596364 176.50305 
L 367.069091 157.0644 
L 377.541818 135.54675 
L 388.014545 122.1372 
L 398.487273 119.95425 
" style="fill:none;stroke:#00ff97;stroke-linecap:square;stroke-width:1.5;"/>
   </g>
   <g id="line2d_43">
    <path clip-path="url(#p0774f2752b)" d="M 73.832727 87.21 
L 84.305455 100.9314 
L 94.778182 127.3347 
L 105.250909 158.20785 
L 115.723636 181.49265 
L 126.196364 195.318 
L 136.669091 208.6236 
L 147.141818 230.76495 
L 157.614545 261.53415 
L 168.087273 286.69005 
L 178.56 293.75865 
L 189.032727 285.5466 
L 199.505455 274.63185 
L 209.978182 272.0331 
L 220.450909 272.13705 
L 230.923636 262.8855 
L 241.396364 247.39695 
L 251.869091 238.24935 
L 262.341818 241.056 
L 272.814545 247.81275 
L 283.287273 245.52585 
L 293.76 230.97285 
L 304.232727 207.9999 
L 314.705455 184.61115 
L 325.178182 171.51345 
L 335.650909 170.1621 
L 346.123636 172.76085 
L 356.596364 171.6174 
L 367.069091 166.31595 
L 377.541818 161.6382 
L 388.014545 161.2224 
L 398.487273 170.26605 
" style="fill:none;stroke:#00ffb5;stroke-linecap:square;stroke-width:1.5;"/>
   </g>
   <g id="line2d_44">
    <path clip-path="url(#p0774f2752b)" d="M 73.832727 149.89185 
L 84.305455 173.2806 
L 94.778182 188.97705 
L 105.250909 199.0602 
L 115.723636 203.32215 
L 126.196364 206.64855 
L 136.669091 218.91465 
L 147.141818 237.00195 
L 157.614545 242.19945 
L 168.087273 226.2951 
L 178.56 206.44065 
L 189.032727 205.713 
L 199.505455 223.1766 
L 209.978182 233.9874 
L 220.450909 222.03315 
L 230.923636 201.03525 
L 241.396364 189.60075 
L 251.869091 185.7546 
L 262.341818 180.24525 
L 272.814545 178.2702 
L 283.287273 183.98745 
L 293.76 186.27435 
L 304.232727 174.7359 
L 314.705455 156.0249 
L 325.178182 144.90225 
L 335.650909 149.68395 
L 346.123636 160.3908 
L 356.596364 158.3118 
L 367.069091 139.91265 
L 377.541818 120.6819 
L 388.014545 114.13305 
L 398.487273 118.6029 
" style="fill:none;stroke:#00ffd3;stroke-linecap:square;stroke-width:1.5;"/>
   </g>
   <g id="line2d_45">
    <path clip-path="url(#p0774f2752b)" d="M 73.832727 200.9313 
L 84.305455 194.59035 
L 94.778182 194.17455 
L 105.250909 193.75875 
L 115.723636 192.92715 
L 126.196364 197.6049 
L 136.669091 211.43025 
L 147.141818 231.59655 
L 157.614545 250.72335 
L 168.087273 261.846 
L 178.56 263.0934 
L 189.032727 256.54455 
L 199.505455 246.0456 
L 209.978182 233.3637 
L 220.450909 216.5238 
L 230.923636 198.0207 
L 241.396364 184.2993 
L 251.869091 175.87935 
L 262.341818 167.0436 
L 272.814545 153.3222 
L 283.287273 140.0166 
L 293.76 138.04155 
L 304.232727 151.55505 
L 314.705455 176.3991 
L 325.178182 203.634 
L 335.650909 220.266 
L 346.123636 218.70675 
L 356.596364 205.9209 
L 367.069091 194.0706 
L 377.541818 185.9625 
L 388.014545 182.844 
L 398.487273 189.18495 
" style="fill:none;stroke:#00fff6;stroke-linecap:square;stroke-width:1.5;"/>
   </g>
   <g id="line2d_46">
    <path clip-path="url(#p0774f2752b)" d="M 73.832727 132.84405 
L 84.305455 120.78585 
L 94.778182 125.8794 
L 105.250909 140.12055 
L 115.723636 155.6091 
L 126.196364 175.7754 
L 136.669091 200.7234 
L 147.141818 223.90425 
L 157.614545 240.95205 
L 168.087273 247.39695 
L 178.56 242.82315 
L 189.032727 235.6506 
L 199.505455 234.6111 
L 209.978182 235.13085 
L 220.450909 226.9188 
L 230.923636 209.76705 
L 241.396364 195.21405 
L 251.869091 191.7837 
L 262.341818 192.09555 
L 272.814545 182.94795 
L 283.287273 165.06855 
L 293.76 153.63405 
L 304.232727 159.5592 
L 314.705455 175.25565 
L 325.178182 183.6756 
L 335.650909 178.2702 
L 346.123636 169.01865 
L 356.596364 165.1725 
L 367.069091 161.4303 
L 377.541818 148.3326 
L 388.014545 129.93345 
L 398.487273 120.16215 
" style="fill:none;stroke:#00eaff;stroke-linecap:square;stroke-width:1.5;"/>
   </g>
   <g id="line2d_47">
    <path clip-path="url(#p0774f2752b)" d="M 73.832727 166.8357 
L 84.305455 175.67145 
L 94.778182 182.6361 
L 105.250909 187.93755 
L 115.723636 191.9916 
L 126.196364 199.57995 
L 136.669091 215.17245 
L 147.141818 235.2348 
L 157.614545 249.68385 
L 168.087273 253.53 
L 178.56 251.6589 
L 189.032727 246.35745 
L 199.505455 234.1953 
L 209.978182 219.8502 
L 220.450909 212.9895 
L 230.923636 214.2369 
L 241.396364 214.029 
L 251.869091 204.77745 
L 262.341818 189.9126 
L 272.814545 180.66105 
L 283.287273 183.77955 
L 293.76 195.62985 
L 304.232727 205.40115 
L 314.705455 204.6735 
L 325.178182 194.9022 
L 335.650909 184.0914 
L 346.123636 176.29515 
L 356.596364 167.4594 
L 367.069091 157.37625 
L 377.541818 151.55505 
L 388.014545 148.1247 
L 398.487273 142.40745 
" style="fill:none;stroke:#00cdff;stroke-linecap:square;stroke-width:1.5;"/>
   </g>
   <g id="line2d_48">
    <path clip-path="url(#p0774f2752b)" d="M 73.832727 163.0935 
L 84.305455 175.7754 
L 94.778182 204.98535 
L 105.250909 232.01235 
L 115.723636 236.6901 
L 126.196364 222.65685 
L 136.669091 216.9396 
L 147.141818 229.8294 
L 157.614545 240.4323 
L 168.087273 232.74 
L 178.56 215.17245 
L 189.032727 207.68805 
L 199.505455 217.87515 
L 209.978182 232.22025 
L 220.450909 230.14125 
L 230.923636 208.72755 
L 241.396364 182.11635 
L 251.869091 166.0041 
L 262.341818 167.77125 
L 272.814545 179.82945 
L 283.287273 184.923 
L 293.76 175.46355 
L 304.232727 159.66315 
L 314.705455 148.43655 
L 325.178182 143.343 
L 335.650909 138.87315 
L 346.123636 131.4927 
L 356.596364 124.94385 
L 367.069091 122.9688 
L 377.541818 121.82535 
L 388.014545 114.34095 
L 398.487273 102.3867 
" style="fill:none;stroke:#00afff;stroke-linecap:square;stroke-width:1.5;"/>
   </g>
   <g id="line2d_49">
    <path clip-path="url(#p0774f2752b)" d="M 73.832727 171.30555 
L 84.305455 178.686 
L 94.778182 179.3097 
L 105.250909 175.7754 
L 115.723636 176.71095 
L 126.196364 190.84815 
L 136.669091 215.2764 
L 147.141818 236.17035 
L 157.614545 243.86265 
L 168.087273 239.8086 
L 178.56 230.14125 
L 189.032727 222.65685 
L 199.505455 222.03315 
L 209.978182 222.24105 
L 220.450909 216.108 
L 230.923636 203.8419 
L 241.396364 189.4968 
L 251.869091 172.76085 
L 262.341818 156.8565 
L 272.814545 147.39705 
L 283.287273 145.422 
L 293.76 145.94175 
L 304.232727 141.57585 
L 314.705455 135.4428 
L 325.178182 136.4823 
L 335.650909 141.264 
L 346.123636 141.99165 
L 356.596364 135.54675 
L 367.069091 126.711 
L 377.541818 124.632 
L 388.014545 132.5322 
L 398.487273 142.82325 
" style="fill:none;stroke:#0092ff;stroke-linecap:square;stroke-width:1.5;"/>
   </g>
   <g id="line2d_50">
    <path clip-path="url(#p0774f2752b)" d="M 73.832727 198.6444 
L 84.305455 199.37205 
L 94.778182 199.78785 
L 105.250909 201.3471 
L 115.723636 201.86685 
L 126.196364 204.6735 
L 136.669091 214.8606 
L 147.141818 229.51755 
L 157.614545 243.7587 
L 168.087273 256.8564 
L 178.56 266.93955 
L 189.032727 270.9936 
L 199.505455 268.7067 
L 209.978182 260.91045 
L 220.450909 249.7878 
L 230.923636 237.62565 
L 241.396364 226.0872 
L 251.869091 217.5633 
L 262.341818 213.50925 
L 272.814545 211.84605 
L 283.287273 210.7026 
L 293.76 208.10385 
L 304.232727 201.555 
L 314.705455 191.7837 
L 325.178182 181.8045 
L 335.650909 172.449 
L 346.123636 162.36585 
L 356.596364 150.09975 
L 367.069091 137.5218 
L 377.541818 131.2848 
L 388.014545 135.96255 
L 398.487273 149.89185 
" style="fill:none;stroke:#0074ff;stroke-linecap:square;stroke-width:1.5;"/>
   </g>
   <g id="line2d_51">
    <path clip-path="url(#p0774f2752b)" d="M 73.832727 181.28475 
L 84.305455 191.05605 
L 94.778182 204.8814 
L 105.250909 210.2868 
L 115.723636 202.8024 
L 126.196364 196.46145 
L 136.669091 207.06435 
L 147.141818 236.2743 
L 157.614545 270.68175 
L 168.087273 293.34285 
L 178.56 296.5653 
L 189.032727 285.7545 
L 199.505455 272.4489 
L 209.978182 265.27635 
L 220.450909 262.8855 
L 230.923636 256.4406 
L 241.396364 240.53625 
L 251.869091 220.57785 
L 262.341818 204.15375 
L 272.814545 191.9916 
L 283.287273 183.2598 
L 293.76 181.90845 
L 304.232727 189.39285 
L 314.705455 199.37205 
L 325.178182 203.0103 
L 335.650909 197.1891 
L 346.123636 182.11635 
L 356.596364 161.0145 
L 367.069091 144.1746 
L 377.541818 143.03115 
L 388.014545 156.4407 
L 398.487273 173.59245 
" style="fill:none;stroke:#0057ff;stroke-linecap:square;stroke-width:1.5;"/>
   </g>
   <g id="line2d_52">
    <path clip-path="url(#p0774f2752b)" d="M 73.832727 122.86485 
L 84.305455 136.79415 
L 94.778182 156.12885 
L 105.250909 175.1517 
L 115.723636 186.06645 
L 126.196364 190.43235 
L 136.669091 200.3076 
L 147.141818 220.6818 
L 157.614545 240.0165 
L 168.087273 243.65475 
L 178.56 234.09135 
L 189.032727 226.9188 
L 199.505455 225.98325 
L 209.978182 217.7712 
L 220.450909 191.9916 
L 230.923636 157.896 
L 241.396364 136.58625 
L 251.869091 136.37835 
L 262.341818 143.9667 
L 272.814545 146.14965 
L 283.287273 146.0457 
L 293.76 152.59455 
L 304.232727 163.9251 
L 314.705455 168.4989 
L 325.178182 163.0935 
L 335.650909 155.71305 
L 346.123636 150.4116 
L 356.596364 141.16005 
L 367.069091 127.43865 
L 377.541818 119.33055 
L 388.014545 120.57795 
L 398.487273 124.632 
" style="fill:none;stroke:#0039ff;stroke-linecap:square;stroke-width:1.5;"/>
   </g>
   <g id="line2d_53">
    <path clip-path="url(#p0774f2752b)" d="M 73.832727 138.45735 
L 84.305455 158.41575 
L 94.778182 167.35545 
L 105.250909 162.78165 
L 115.723636 157.37625 
L 126.196364 164.44485 
L 136.669091 188.35335 
L 147.141818 222.44895 
L 157.614545 252.2826 
L 168.087273 264.9645 
L 178.56 260.07885 
L 189.032727 248.3325 
L 199.505455 241.36785 
L 209.978182 242.40735 
L 220.450909 243.23895 
L 230.923636 234.92295 
L 241.396364 221.61735 
L 251.869091 214.4448 
L 262.341818 214.96455 
L 272.814545 216.41985 
L 283.287273 211.84605 
L 293.76 199.99575 
L 304.232727 183.98745 
L 314.705455 168.291 
L 325.178182 157.37625 
L 335.650909 149.26815 
L 346.123636 141.4719 
L 356.596364 136.8981 
L 367.069091 134.6112 
L 377.541818 130.97295 
L 388.014545 125.15175 
L 398.487273 118.6029 
" style="fill:none;stroke:#001cff;stroke-linecap:square;stroke-width:1.5;"/>
   </g>
   <g id="line2d_54">
    <path clip-path="url(#p0774f2752b)" d="M 73.832727 162.4698 
L 84.305455 159.5592 
L 94.778182 156.2328 
L 105.250909 156.96045 
L 115.723636 165.06855 
L 126.196364 181.8045 
L 136.669091 206.1288 
L 147.141818 231.80445 
L 157.614545 246.98115 
L 168.087273 246.35745 
L 178.56 236.4822 
L 189.032727 227.23065 
L 199.505455 222.345 
L 209.978182 218.08305 
L 220.450909 210.80655 
L 230.923636 200.0997 
L 241.396364 188.6652 
L 251.869091 177.12675 
L 262.341818 163.40535 
L 272.814545 147.81285 
L 283.287273 136.37835 
L 293.76 136.2744 
L 304.232727 145.0062 
L 314.705455 152.59455 
L 325.178182 149.9958 
L 335.650909 138.9771 
L 346.123636 130.34925 
L 356.596364 128.1663 
L 367.069091 128.9979 
L 377.541818 131.4927 
L 388.014545 137.5218 
L 398.487273 144.27855 
" style="fill:none;stroke:#0800ff;stroke-linecap:square;stroke-width:1.5;"/>
   </g>
   <g id="line2d_55">
    <path clip-path="url(#p0774f2752b)" d="M 73.832727 149.9958 
L 84.305455 160.5987 
L 94.778182 172.8648 
L 105.250909 181.5966 
L 115.723636 189.18495 
L 126.196364 200.9313 
L 136.669091 217.45935 
L 147.141818 233.25975 
L 157.614545 240.53625 
L 168.087273 239.1849 
L 178.56 237.5217 
L 189.032727 235.6506 
L 199.505455 227.64645 
L 209.978182 210.0789 
L 220.450909 186.69015 
L 230.923636 169.22655 
L 241.396364 166.10805 
L 251.869091 175.04775 
L 262.341818 182.11635 
L 272.814545 172.449 
L 283.287273 149.58 
L 293.76 130.55715 
L 304.232727 122.44905 
L 314.705455 114.4449 
L 325.178182 96.04575 
L 335.650909 70.1622 
L 346.123636 48.9564 
L 356.596364 39.28905 
L 367.069091 36.79425 
L 377.541818 34.29945 
L 388.014545 35.0271 
L 398.487273 47.5011 
" style="fill:none;stroke:#2500ff;stroke-linecap:square;stroke-width:1.5;"/>
   </g>
   <g id="line2d_56">
    <path clip-path="url(#p0774f2752b)" d="M 73.832727 150.4116 
L 84.305455 170.47395 
L 94.778182 187.8336 
L 105.250909 197.70885 
L 115.723636 194.6943 
L 126.196364 187.52175 
L 136.669091 196.3575 
L 147.141818 225.2556 
L 157.614545 255.609 
L 168.087273 266.6277 
L 178.56 254.25765 
L 189.032727 233.05185 
L 199.505455 219.6423 
L 209.978182 218.8107 
L 220.450909 222.7608 
L 230.923636 221.20155 
L 241.396364 211.01445 
L 251.869091 199.2681 
L 262.341818 193.6548 
L 272.814545 195.7338 
L 283.287273 200.5155 
L 293.76 200.61945 
L 304.232727 193.0311 
L 314.705455 180.9729 
L 325.178182 170.1621 
L 335.650909 162.4698 
L 346.123636 154.67355 
L 356.596364 146.56545 
L 367.069091 141.6798 
L 377.541818 143.7588 
L 388.014545 152.6985 
L 398.487273 159.45525 
" style="fill:none;stroke:#4300ff;stroke-linecap:square;stroke-width:1.5;"/>
   </g>
   <g id="line2d_57">
    <path clip-path="url(#p0774f2752b)" d="M 73.832727 190.01655 
L 84.305455 171.2016 
L 94.778182 158.7276 
L 105.250909 154.25775 
L 115.723636 153.5301 
L 126.196364 159.87105 
L 136.669091 180.45315 
L 147.141818 215.9001 
L 157.614545 248.9562 
L 168.087273 257.8959 
L 178.56 243.135 
L 189.032727 220.57785 
L 199.505455 201.555 
L 209.978182 189.18495 
L 220.450909 182.844 
L 230.923636 182.4282 
L 241.396364 186.69015 
L 251.869091 188.97705 
L 262.341818 186.69015 
L 272.814545 180.9729 
L 283.287273 173.0727 
L 293.76 164.86065 
L 304.232727 157.99995 
L 314.705455 153.42615 
L 325.178182 154.1538 
L 335.650909 159.45525 
L 346.123636 163.3014 
L 356.596364 162.15795 
L 367.069091 154.88145 
L 377.541818 136.8981 
L 388.014545 110.9106 
L 398.487273 91.26405 
" style="fill:none;stroke:#6000ff;stroke-linecap:square;stroke-width:1.5;"/>
   </g>
   <g id="line2d_58">
    <path clip-path="url(#p0774f2752b)" d="M 73.832727 167.97915 
L 84.305455 183.15585 
L 94.778182 207.89595 
L 105.250909 218.29095 
L 115.723636 206.5446 
L 126.196364 195.42195 
L 136.669091 207.27225 
L 147.141818 232.84395 
L 157.614545 246.14955 
L 168.087273 238.1454 
L 178.56 219.74625 
L 189.032727 202.1787 
L 199.505455 190.84815 
L 209.978182 185.7546 
L 220.450909 183.36375 
L 230.923636 178.78995 
L 241.396364 173.38455 
L 251.869091 171.51345 
L 262.341818 170.37 
L 272.814545 166.52385 
L 283.287273 165.1725 
L 293.76 170.26605 
L 304.232727 177.4386 
L 314.705455 179.82945 
L 325.178182 177.95835 
L 335.650909 177.75045 
L 346.123636 175.3596 
L 356.596364 160.49475 
L 367.069091 137.00205 
L 377.541818 123.1767 
L 388.014545 130.97295 
L 398.487273 154.1538 
" style="fill:none;stroke:#7e00ff;stroke-linecap:square;stroke-width:1.5;"/>
   </g>
   <g id="line2d_59">
    <path clip-path="url(#p0774f2752b)" d="M 73.832727 172.6569 
L 84.305455 155.4012 
L 94.778182 149.58 
L 105.250909 158.62365 
L 115.723636 175.04775 
L 126.196364 194.17455 
L 136.669091 213.30135 
L 147.141818 230.2452 
L 157.614545 242.0955 
L 168.087273 245.31795 
L 178.56 237.62565 
L 189.032727 221.40945 
L 199.505455 204.15375 
L 209.978182 189.60075 
L 220.450909 177.8544 
L 230.923636 169.01865 
L 241.396364 162.15795 
L 251.869091 157.896 
L 262.341818 157.0644 
L 272.814545 153.5301 
L 283.287273 138.5613 
L 293.76 115.4844 
L 304.232727 101.5551 
L 314.705455 101.45115 
L 325.178182 100.20375 
L 335.650909 85.85865 
L 346.123636 64.341 
L 356.596364 54.9855 
L 367.069091 70.1622 
L 377.541818 99.16425 
L 388.014545 122.86485 
L 398.487273 132.42825 
" style="fill:none;stroke:#9b00ff;stroke-linecap:square;stroke-width:1.5;"/>
   </g>
   <g id="line2d_60">
    <path clip-path="url(#p0774f2752b)" d="M 73.832727 62.262 
L 84.305455 65.90025 
L 94.778182 78.0624 
L 105.250909 88.97715 
L 115.723636 97.70895 
L 126.196364 121.20165 
L 136.669091 171.4095 
L 147.141818 231.0768 
L 157.614545 274.00815 
L 168.087273 289.7046 
L 178.56 285.5466 
L 189.032727 273.80025 
L 199.505455 259.767 
L 209.978182 245.0061 
L 220.450909 234.1953 
L 230.923636 231.80445 
L 241.396364 236.79405 
L 251.869091 242.40735 
L 262.341818 237.9375 
L 272.814545 220.57785 
L 283.287273 199.16415 
L 293.76 183.57165 
L 304.232727 173.17665 
L 314.705455 158.5197 
L 325.178182 137.62575 
L 335.650909 118.1871 
L 346.123636 108 
L 356.596364 107.27235 
L 367.069091 109.55925 
L 377.541818 107.68815 
L 388.014545 101.45115 
L 398.487273 97.50105 
" style="fill:none;stroke:#b900ff;stroke-linecap:square;stroke-width:1.5;"/>
   </g>
   <g id="line2d_61">
    <path clip-path="url(#p0774f2752b)" d="M 73.832727 155.1933 
L 84.305455 138.87315 
L 94.778182 122.65695 
L 105.250909 117.87525 
L 115.723636 124.2162 
L 126.196364 138.45735 
L 136.669091 162.4698 
L 147.141818 199.6839 
L 157.614545 242.5113 
L 168.087273 275.04765 
L 178.56 287.6256 
L 189.032727 281.28465 
L 199.505455 265.06845 
L 209.978182 251.0352 
L 220.450909 245.214 
L 230.923636 245.94165 
L 241.396364 244.48635 
L 251.869091 233.46765 
L 262.341818 217.45935 
L 272.814545 203.53005 
L 283.287273 190.43235 
L 293.76 173.80035 
L 304.232727 154.5696 
L 314.705455 138.04155 
L 325.178182 128.27025 
L 335.650909 122.1372 
L 346.123636 113.4054 
L 356.596364 102.90645 
L 367.069091 95.21415 
L 377.541818 92.09565 
L 388.014545 92.51145 
L 398.487273 92.09565 
" style="fill:none;stroke:#d600ff;stroke-linecap:square;stroke-width:1.5;"/>
   </g>
   <g id="line2d_62">
    <path clip-path="url(#p0774f2752b)" d="M 73.832727 177.33465 
L 84.305455 185.3388 
L 94.778182 185.1309 
L 105.250909 178.8939 
L 115.723636 175.04775 
L 126.196364 180.9729 
L 136.669091 199.476 
L 147.141818 224.2161 
L 157.614545 240.4323 
L 168.087273 237.20985 
L 178.56 224.52795 
L 189.032727 220.57785 
L 199.505455 226.39905 
L 209.978182 224.2161 
L 220.450909 197.91675 
L 230.923636 156.75255 
L 241.396364 129.8295 
L 251.869091 127.7505 
L 262.341818 132.84405 
L 272.814545 127.23075 
L 283.287273 114.6528 
L 293.76 111.1185 
L 304.232727 124.2162 
L 314.705455 142.61535 
L 325.178182 149.1642 
L 335.650909 140.4324 
L 346.123636 125.8794 
L 356.596364 118.49895 
L 367.069091 122.65695 
L 377.541818 133.7796 
L 388.014545 145.0062 
L 398.487273 146.0457 
" style="fill:none;stroke:#f800fd;stroke-linecap:square;stroke-width:1.5;"/>
   </g>
   <g id="line2d_63">
    <path clip-path="url(#p0774f2752b)" d="M 73.832727 120.57795 
L 84.305455 114.8607 
L 94.778182 118.8108 
L 105.250909 128.27025 
L 115.723636 143.23905 
L 126.196364 169.5384 
L 136.669091 204.4656 
L 147.141818 231.4926 
L 157.614545 243.135 
L 168.087273 245.6298 
L 178.56 244.27845 
L 189.032727 240.4323 
L 199.505455 233.1558 
L 209.978182 226.2951 
L 220.450909 223.69635 
L 230.923636 225.2556 
L 241.396364 228.1662 
L 251.869091 226.9188 
L 262.341818 216.00405 
L 272.814545 197.29305 
L 283.287273 180.24525 
L 293.76 169.9542 
L 304.232727 161.6382 
L 314.705455 147.9168 
L 325.178182 126.60705 
L 335.650909 101.24325 
L 346.123636 82.2204 
L 356.596364 80.86905 
L 367.069091 87.8337 
L 377.541818 81.49275 
L 388.014545 61.11855 
L 398.487273 46.77345 
" style="fill:none;stroke:#ff00e7;stroke-linecap:square;stroke-width:1.5;"/>
   </g>
   <g id="line2d_64">
    <path clip-path="url(#p0774f2752b)" d="M 73.832727 214.34085 
L 84.305455 212.88555 
L 94.778182 210.18285 
L 105.250909 205.81695 
L 115.723636 203.53005 
L 126.196364 206.44065 
L 136.669091 216.83565 
L 147.141818 233.9874 
L 157.614545 246.35745 
L 168.087273 242.5113 
L 178.56 222.86475 
L 189.032727 199.6839 
L 199.505455 186.06645 
L 209.978182 187.4178 
L 220.450909 198.54045 
L 230.923636 204.4656 
L 241.396364 195.62985 
L 251.869091 181.1808 
L 262.341818 177.12675 
L 272.814545 184.923 
L 283.287273 192.4074 
L 293.76 190.7442 
L 304.232727 182.4282 
L 314.705455 176.8149 
L 325.178182 178.8939 
L 335.650909 183.57165 
L 346.123636 182.94795 
L 356.596364 177.2307 
L 367.069091 172.76085 
L 377.541818 174.1122 
L 388.014545 178.58205 
L 398.487273 178.2702 
" style="fill:none;stroke:#ff00c9;stroke-linecap:square;stroke-width:1.5;"/>
   </g>
   <g id="line2d_65">
    <path clip-path="url(#p0774f2752b)" d="M 73.832727 177.4386 
L 84.305455 175.5675 
L 94.778182 169.22655 
L 105.250909 162.054 
L 115.723636 160.49475 
L 126.196364 173.2806 
L 136.669091 202.90635 
L 147.141818 236.0664 
L 157.614545 256.4406 
L 168.087273 262.8855 
L 178.56 265.69215 
L 189.032727 270.3699 
L 199.505455 272.13705 
L 209.978182 266.93955 
L 220.450909 256.75245 
L 230.923636 245.4219 
L 241.396364 232.9479 
L 251.869091 217.04355 
L 262.341818 197.50095 
L 272.814545 175.67145 
L 283.287273 153.738 
L 293.76 136.6902 
L 304.232727 129.8295 
L 314.705455 134.50725 
L 325.178182 144.7983 
L 335.650909 149.3721 
L 346.123636 143.65485 
L 356.596364 133.3638 
L 367.069091 122.44905 
L 377.541818 111.43035 
L 388.014545 100.9314 
L 398.487273 91.9917 
" style="fill:none;stroke:#ff00ac;stroke-linecap:square;stroke-width:1.5;"/>
   </g>
   <g id="line2d_66">
    <path clip-path="url(#p0774f2752b)" d="M 73.832727 158.20785 
L 84.305455 175.5675 
L 94.778182 193.34295 
L 105.250909 199.78785 
L 115.723636 192.71925 
L 126.196364 184.7151 
L 136.669091 194.0706 
L 147.141818 223.90425 
L 157.614545 258.20775 
L 168.087273 279.82935 
L 178.56 284.19525 
L 189.032727 275.25555 
L 199.505455 258.20775 
L 209.978182 238.3533 
L 220.450909 221.0976 
L 230.923636 209.76705 
L 241.396364 201.86685 
L 251.869091 193.96665 
L 262.341818 183.15585 
L 272.814545 170.47395 
L 283.287273 159.87105 
L 293.76 151.97085 
L 304.232727 144.07065 
L 314.705455 135.13095 
L 325.178182 129.30975 
L 335.650909 128.9979 
L 346.123636 130.14135 
L 356.596364 128.3742 
L 367.069091 125.35965 
L 377.541818 127.23075 
L 388.014545 135.13095 
L 398.487273 138.24945 
" style="fill:none;stroke:#ff008e;stroke-linecap:square;stroke-width:1.5;"/>
   </g>
   <g id="line2d_67">
    <path clip-path="url(#p0774f2752b)" d="M 73.832727 149.68395 
L 84.305455 144.07065 
L 94.778182 147.7089 
L 105.250909 156.96045 
L 115.723636 165.27645 
L 126.196364 175.3596 
L 136.669091 195.21405 
L 147.141818 223.48845 
L 157.614545 247.5009 
L 168.087273 258.7275 
L 178.56 258.83145 
L 189.032727 253.7379 
L 199.505455 248.9562 
L 209.978182 244.7982 
L 220.450909 238.3533 
L 230.923636 228.582 
L 241.396364 214.8606 
L 251.869091 196.66935 
L 262.341818 179.1018 
L 272.814545 166.31595 
L 283.287273 158.1039 
L 293.76 155.817 
L 304.232727 154.9854 
L 314.705455 144.69435 
L 325.178182 127.23075 
L 335.650909 117.3555 
L 346.123636 119.53845 
L 356.596364 124.73595 
L 367.069091 123.5925 
L 377.541818 111.1185 
L 388.014545 87.8337 
L 398.487273 63.3015 
" style="fill:none;stroke:#ff0071;stroke-linecap:square;stroke-width:1.5;"/>
   </g>
   <g id="line2d_68">
    <path clip-path="url(#p0774f2752b)" d="M 73.832727 118.1871 
L 84.305455 128.47815 
L 94.778182 135.6507 
L 105.250909 139.8087 
L 115.723636 146.98125 
L 126.196364 165.69225 
L 136.669091 196.7733 
L 147.141818 232.1163 
L 157.614545 260.1828 
L 168.087273 275.1516 
L 178.56 278.58195 
L 189.032727 271.72125 
L 199.505455 255.92085 
L 209.978182 236.4822 
L 220.450909 221.3055 
L 230.923636 209.2473 
L 241.396364 193.4469 
L 251.869091 176.71095 
L 262.341818 167.77125 
L 272.814545 164.44485 
L 283.287273 156.33675 
L 293.76 140.32845 
L 304.232727 123.8004 
L 314.705455 114.54885 
L 325.178182 112.3659 
L 335.650909 111.3264 
L 346.123636 108.51975 
L 356.596364 104.4657 
L 367.069091 100.61955 
L 377.541818 99.2682 
L 388.014545 102.07485 
L 398.487273 106.1289 
" style="fill:none;stroke:#ff0053;stroke-linecap:square;stroke-width:1.5;"/>
   </g>
   <g id="line2d_69">
    <path clip-path="url(#p0774f2752b)" d="M 73.832727 118.1871 
L 84.305455 132.1164 
L 94.778182 150.8274 
L 105.250909 162.36585 
L 115.723636 163.82115 
L 126.196364 165.69225 
L 136.669091 183.2598 
L 147.141818 220.8897 
L 157.614545 263.925 
L 168.087273 290.84805 
L 178.56 296.3574 
L 189.032727 293.34285 
L 199.505455 293.8626 
L 209.978182 296.1495 
L 220.450909 288.56115 
L 230.923636 265.06845 
L 241.396364 235.33875 
L 251.869091 212.3658 
L 262.341818 196.3575 
L 272.814545 183.36375 
L 283.287273 176.71095 
L 293.76 176.8149 
L 304.232727 177.2307 
L 314.705455 175.9833 
L 325.178182 172.34505 
L 335.650909 161.74215 
L 346.123636 143.343 
L 356.596364 125.0478 
L 367.069091 116.316 
L 377.541818 114.8607 
L 388.014545 109.6632 
L 398.487273 99.4761 
" style="fill:none;stroke:#ff0035;stroke-linecap:square;stroke-width:1.5;"/>
   </g>
   <g id="line2d_70">
    <path clip-path="url(#p0774f2752b)" d="M 73.832727 155.468281 
L 84.305455 160.699066 
L 94.778182 166.490053 
L 105.250909 171.089457 
L 115.723636 175.247457 
L 126.196364 183.828709 
L 136.669091 201.758291 
L 147.141818 226.974103 
L 157.614545 249.467245 
L 168.087273 259.520183 
L 178.56 256.406291 
L 189.032727 247.134771 
L 199.505455 238.274441 
L 209.978182 231.174605 
L 220.450909 223.90681 
L 230.923636 215.357819 
L 241.396364 206.182055 
L 251.869091 197.341697 
L 262.341818 189.054372 
L 272.814545 181.133178 
L 283.287273 173.639048 
L 293.76 166.758378 
L 304.232727 160.394897 
L 314.705455 154.254166 
L 325.178182 148.328503 
L 335.650909 142.779724 
L 346.123636 137.725603 
L 356.596364 133.174847 
L 367.069091 129.021967 
L 377.541818 125.036534 
L 388.014545 121.126376 
L 398.487273 117.665814 
" style="fill:none;stroke:#000000;stroke-linecap:square;stroke-width:2;"/>
   </g>
   <g id="patch_3">
    <path d="M 57.6 307.584 
L 57.6 41.472 
" style="fill:none;stroke:#000000;stroke-linecap:square;stroke-linejoin:miter;stroke-width:0.8;"/>
   </g>
   <g id="patch_4">
    <path d="M 414.72 307.584 
L 414.72 41.472 
" style="fill:none;stroke:#000000;stroke-linecap:square;stroke-linejoin:miter;stroke-width:0.8;"/>
   </g>
   <g id="patch_5">
    <path d="M 57.6 307.584 
L 414.72 307.584 
" style="fill:none;stroke:#000000;stroke-linecap:square;stroke-linejoin:miter;stroke-width:0.8;"/>
   </g>
   <g id="patch_6">
    <path d="M 57.6 41.472 
L 414.72 41.472 
" style="fill:none;stroke:#000000;stroke-linecap:square;stroke-linejoin:miter;stroke-width:0.8;"/>
   </g>
   <g id="text_21">
    <!-- $V_{rms}=$ 17.707446 -->
    <defs>
     <path d="M 20.609375 0 
L 7.8125 72.90625 
L 17.484375 72.90625 
L 28.078125 10.203125 
L 63.484375 72.90625 
L 74.21875 72.90625 
L 32.078125 0 
z
" id="DejaVuSans-Oblique-56"/>
     <path d="M 44.578125 46.390625 
Q 43.21875 47.125 41.453125 47.515625 
Q 39.703125 47.90625 37.703125 47.90625 
Q 30.515625 47.90625 25.140625 42.453125 
Q 19.78125 37.015625 18.015625 27.875 
L 12.5 0 
L 3.515625 0 
L 14.203125 54.6875 
L 23.1875 54.6875 
L 21.484375 46.1875 
Q 25.046875 50.921875 30 53.453125 
Q 34.96875 56 40.578125 56 
Q 42.046875 56 43.453125 55.828125 
Q 44.875 55.671875 46.296875 55.28125 
z
" id="DejaVuSans-Oblique-72"/>
     <path d="M 89.796875 33.015625 
L 83.40625 0 
L 74.421875 0 
L 80.71875 32.71875 
Q 81.109375 34.8125 81.296875 36.328125 
Q 81.5 37.84375 81.5 38.921875 
Q 81.5 43.3125 79.046875 45.75 
Q 76.609375 48.1875 72.21875 48.1875 
Q 65.671875 48.1875 60.546875 43.28125 
Q 55.421875 38.375 53.90625 30.515625 
L 47.90625 0 
L 38.921875 0 
L 45.3125 32.71875 
Q 45.703125 34.515625 45.890625 36.046875 
Q 46.09375 37.59375 46.09375 38.8125 
Q 46.09375 43.265625 43.65625 45.71875 
Q 41.21875 48.1875 36.921875 48.1875 
Q 30.28125 48.1875 25.140625 43.28125 
Q 20.015625 38.375 18.5 30.515625 
L 12.5 0 
L 3.515625 0 
L 14.203125 54.6875 
L 23.1875 54.6875 
L 21.484375 46.1875 
Q 25.140625 50.984375 30.046875 53.484375 
Q 34.96875 56 40.578125 56 
Q 46.53125 56 50.359375 52.875 
Q 54.203125 49.75 54.984375 44.1875 
Q 59.078125 49.953125 64.46875 52.96875 
Q 69.875 56 75.875 56 
Q 82.90625 56 86.734375 51.953125 
Q 90.578125 47.90625 90.578125 40.484375 
Q 90.578125 38.875 90.375 36.9375 
Q 90.1875 35.015625 89.796875 33.015625 
z
" id="DejaVuSans-Oblique-6d"/>
     <path d="M 50 53.078125 
L 48.296875 44.578125 
Q 44.734375 46.53125 40.765625 47.5 
Q 36.8125 48.484375 32.625 48.484375 
Q 25.53125 48.484375 21.453125 46.0625 
Q 17.390625 43.65625 17.390625 39.5 
Q 17.390625 34.671875 26.859375 32.078125 
Q 27.59375 31.890625 27.9375 31.78125 
L 30.8125 30.90625 
Q 39.796875 28.421875 42.796875 25.6875 
Q 45.796875 22.953125 45.796875 18.21875 
Q 45.796875 9.515625 38.890625 4.046875 
Q 31.984375 -1.421875 20.796875 -1.421875 
Q 16.453125 -1.421875 11.671875 -0.578125 
Q 6.890625 0.25 1.125 2 
L 2.875 11.28125 
Q 7.8125 8.734375 12.59375 7.421875 
Q 17.390625 6.109375 21.78125 6.109375 
Q 28.375 6.109375 32.5 8.9375 
Q 36.625 11.765625 36.625 16.109375 
Q 36.625 20.796875 25.78125 23.6875 
L 24.859375 23.921875 
L 21.78125 24.703125 
Q 14.9375 26.515625 11.765625 29.46875 
Q 8.59375 32.421875 8.59375 37.015625 
Q 8.59375 45.75 15.15625 50.875 
Q 21.734375 56 33.015625 56 
Q 37.453125 56 41.671875 55.265625 
Q 45.90625 54.546875 50 53.078125 
z
" id="DejaVuSans-Oblique-73"/>
     <path d="M 10.59375 45.40625 
L 73.1875 45.40625 
L 73.1875 37.203125 
L 10.59375 37.203125 
z
M 10.59375 25.484375 
L 73.1875 25.484375 
L 73.1875 17.1875 
L 10.59375 17.1875 
z
" id="DejaVuSans-3d"/>
    </defs>
    <g transform="translate(325.178182 173.639048)scale(0.1 -0.1)">
     <use transform="translate(0 0.78125)" xlink:href="#DejaVuSans-Oblique-56"/>
     <use transform="translate(68.408203 -15.625)scale(0.7)" xlink:href="#DejaVuSans-Oblique-72"/>
     <use transform="translate(97.1875 -15.625)scale(0.7)" xlink:href="#DejaVuSans-Oblique-6d"/>
     <use transform="translate(165.375977 -15.625)scale(0.7)" xlink:href="#DejaVuSans-Oblique-73"/>
     <use transform="translate(224.0625 0.78125)" xlink:href="#DejaVuSans-3d"/>
     <use transform="translate(327.333984 0.78125)" xlink:href="#DejaVuSans-20"/>
     <use transform="translate(359.121094 0.78125)" xlink:href="#DejaVuSans-31"/>
     <use transform="translate(422.744141 0.78125)" xlink:href="#DejaVuSans-37"/>
     <use transform="translate(486.367188 0.78125)" xlink:href="#DejaVuSans-2e"/>
     <use transform="translate(518.044922 0.78125)" xlink:href="#DejaVuSans-37"/>
     <use transform="translate(581.667969 0.78125)" xlink:href="#DejaVuSans-30"/>
     <use transform="translate(645.291016 0.78125)" xlink:href="#DejaVuSans-37"/>
     <use transform="translate(708.914062 0.78125)" xlink:href="#DejaVuSans-34"/>
     <use transform="translate(772.537109 0.78125)" xlink:href="#DejaVuSans-34"/>
     <use transform="translate(836.160156 0.78125)" xlink:href="#DejaVuSans-36"/>
    </g>
   </g>
   <g id="text_22">
    <!-- Channel 29 - Unit 1 -->
    <defs>
     <path d="M 64.40625 67.28125 
L 64.40625 56.890625 
Q 59.421875 61.53125 53.78125 63.8125 
Q 48.140625 66.109375 41.796875 66.109375 
Q 29.296875 66.109375 22.65625 58.46875 
Q 16.015625 50.828125 16.015625 36.375 
Q 16.015625 21.96875 22.65625 14.328125 
Q 29.296875 6.6875 41.796875 6.6875 
Q 48.140625 6.6875 53.78125 8.984375 
Q 59.421875 11.28125 64.40625 15.921875 
L 64.40625 5.609375 
Q 59.234375 2.09375 53.4375 0.328125 
Q 47.65625 -1.421875 41.21875 -1.421875 
Q 24.65625 -1.421875 15.125 8.703125 
Q 5.609375 18.84375 5.609375 36.375 
Q 5.609375 53.953125 15.125 64.078125 
Q 24.65625 74.21875 41.21875 74.21875 
Q 47.75 74.21875 53.53125 72.484375 
Q 59.328125 70.75 64.40625 67.28125 
z
" id="DejaVuSans-43"/>
     <path d="M 54.890625 33.015625 
L 54.890625 0 
L 45.90625 0 
L 45.90625 32.71875 
Q 45.90625 40.484375 42.875 44.328125 
Q 39.84375 48.1875 33.796875 48.1875 
Q 26.515625 48.1875 22.3125 43.546875 
Q 18.109375 38.921875 18.109375 30.90625 
L 18.109375 0 
L 9.078125 0 
L 9.078125 75.984375 
L 18.109375 75.984375 
L 18.109375 46.1875 
Q 21.34375 51.125 25.703125 53.5625 
Q 30.078125 56 35.796875 56 
Q 45.21875 56 50.046875 50.171875 
Q 54.890625 44.34375 54.890625 33.015625 
z
" id="DejaVuSans-68"/>
     <path d="M 54.890625 33.015625 
L 54.890625 0 
L 45.90625 0 
L 45.90625 32.71875 
Q 45.90625 40.484375 42.875 44.328125 
Q 39.84375 48.1875 33.796875 48.1875 
Q 26.515625 48.1875 22.3125 43.546875 
Q 18.109375 38.921875 18.109375 30.90625 
L 18.109375 0 
L 9.078125 0 
L 9.078125 54.6875 
L 18.109375 54.6875 
L 18.109375 46.1875 
Q 21.34375 51.125 25.703125 53.5625 
Q 30.078125 56 35.796875 56 
Q 45.21875 56 50.046875 50.171875 
Q 54.890625 44.34375 54.890625 33.015625 
z
" id="DejaVuSans-6e"/>
     <path d="M 10.984375 1.515625 
L 10.984375 10.5 
Q 14.703125 8.734375 18.5 7.8125 
Q 22.3125 6.890625 25.984375 6.890625 
Q 35.75 6.890625 40.890625 13.453125 
Q 46.046875 20.015625 46.78125 33.40625 
Q 43.953125 29.203125 39.59375 26.953125 
Q 35.25 24.703125 29.984375 24.703125 
Q 19.046875 24.703125 12.671875 31.3125 
Q 6.296875 37.9375 6.296875 49.421875 
Q 6.296875 60.640625 12.9375 67.421875 
Q 19.578125 74.21875 30.609375 74.21875 
Q 43.265625 74.21875 49.921875 64.515625 
Q 56.59375 54.828125 56.59375 36.375 
Q 56.59375 19.140625 48.40625 8.859375 
Q 40.234375 -1.421875 26.421875 -1.421875 
Q 22.703125 -1.421875 18.890625 -0.6875 
Q 15.09375 0.046875 10.984375 1.515625 
z
M 30.609375 32.421875 
Q 37.25 32.421875 41.125 36.953125 
Q 45.015625 41.5 45.015625 49.421875 
Q 45.015625 57.28125 41.125 61.84375 
Q 37.25 66.40625 30.609375 66.40625 
Q 23.96875 66.40625 20.09375 61.84375 
Q 16.21875 57.28125 16.21875 49.421875 
Q 16.21875 41.5 20.09375 36.953125 
Q 23.96875 32.421875 30.609375 32.421875 
z
" id="DejaVuSans-39"/>
     <path d="M 4.890625 31.390625 
L 31.203125 31.390625 
L 31.203125 23.390625 
L 4.890625 23.390625 
z
" id="DejaVuSans-2d"/>
     <path d="M 8.6875 72.90625 
L 18.609375 72.90625 
L 18.609375 28.609375 
Q 18.609375 16.890625 22.84375 11.734375 
Q 27.09375 6.59375 36.625 6.59375 
Q 46.09375 6.59375 50.34375 11.734375 
Q 54.59375 16.890625 54.59375 28.609375 
L 54.59375 72.90625 
L 64.5 72.90625 
L 64.5 27.390625 
Q 64.5 13.140625 57.4375 5.859375 
Q 50.390625 -1.421875 36.625 -1.421875 
Q 22.796875 -1.421875 15.734375 5.859375 
Q 8.6875 13.140625 8.6875 27.390625 
z
" id="DejaVuSans-55"/>
    </defs>
    <g transform="translate(178.069687 35.472)scale(0.12 -0.12)">
     <use xlink:href="#DejaVuSans-43"/>
     <use x="69.824219" xlink:href="#DejaVuSans-68"/>
     <use x="133.203125" xlink:href="#DejaVuSans-61"/>
     <use x="194.482422" xlink:href="#DejaVuSans-6e"/>
     <use x="257.861328" xlink:href="#DejaVuSans-6e"/>
     <use x="321.240234" xlink:href="#DejaVuSans-65"/>
     <use x="382.763672" xlink:href="#DejaVuSans-6c"/>
     <use x="410.546875" xlink:href="#DejaVuSans-20"/>
     <use x="442.333984" xlink:href="#DejaVuSans-32"/>
     <use x="505.957031" xlink:href="#DejaVuSans-39"/>
     <use x="569.580078" xlink:href="#DejaVuSans-20"/>
     <use x="601.367188" xlink:href="#DejaVuSans-2d"/>
     <use x="637.451172" xlink:href="#DejaVuSans-20"/>
     <use x="669.238281" xlink:href="#DejaVuSans-55"/>
     <use x="742.431641" xlink:href="#DejaVuSans-6e"/>
     <use x="805.810547" xlink:href="#DejaVuSans-69"/>
     <use x="833.59375" xlink:href="#DejaVuSans-74"/>
     <use x="872.802734" xlink:href="#DejaVuSans-20"/>
     <use x="904.589844" xlink:href="#DejaVuSans-31"/>
    </g>
   </g>
  </g>
 </g>
 <defs>
  <clipPath id="p0774f2752b">
   <rect height="266.112" width="357.12" x="57.6" y="41.472"/>
  </clipPath>
 </defs>
</svg>
