<?xml version="1.0" encoding="utf-8" standalone="no"?>
<!DOCTYPE svg PUBLIC "-//W3C//DTD SVG 1.1//EN"
  "http://www.w3.org/Graphics/SVG/1.1/DTD/svg11.dtd">
<!-- Created with matplotlib (http://matplotlib.org/) -->
<svg height="345pt" version="1.1" viewBox="0 0 460 345" width="460pt" xmlns="http://www.w3.org/2000/svg" xmlns:xlink="http://www.w3.org/1999/xlink">
 <defs>
  <style type="text/css">
*{stroke-linecap:butt;stroke-linejoin:round;}
  </style>
 </defs>
 <g id="figure_1">
  <g id="patch_1">
   <path d="M 0 345.6 
L 460.8 345.6 
L 460.8 0 
L 0 0 
z
" style="fill:#ffffff;"/>
  </g>
  <g id="axes_1">
   <g id="patch_2">
    <path d="M 57.6 307.584 
L 414.72 307.584 
L 414.72 41.472 
L 57.6 41.472 
z
" style="fill:#ffffff;"/>
   </g>
   <g id="PolyCollection_1">
    <defs>
     <path d="M 73.832727 -219.953801 
L 73.832727 -166.401209 
L 84.305455 -164.986517 
L 94.778182 -163.086969 
L 105.250909 -160.954776 
L 115.723636 -158.718835 
L 126.196364 -154.741469 
L 136.669091 -145.055874 
L 147.141818 -129.096097 
L 157.614545 -110.208092 
L 168.087273 -96.746106 
L 178.56 -94.662263 
L 189.032727 -100.142708 
L 199.505455 -106.903498 
L 209.978182 -112.060742 
L 220.450909 -117.17633 
L 230.923636 -124.076665 
L 241.396364 -132.057907 
L 251.869091 -139.199723 
L 262.341818 -144.121578 
L 272.814545 -148.409131 
L 283.287273 -153.843794 
L 293.76 -160.051963 
L 304.232727 -165.925502 
L 314.705455 -170.58398 
L 325.178182 -174.083854 
L 335.650909 -176.882596 
L 346.123636 -179.053269 
L 356.596364 -180.956794 
L 367.069091 -183.102338 
L 377.541818 -184.584084 
L 388.014545 -184.747822 
L 398.487273 -185.24491 
L 398.487273 -255.850273 
L 398.487273 -255.850273 
L 388.014545 -252.876046 
L 377.541818 -249.292463 
L 367.069091 -246.173269 
L 356.596364 -242.936968 
L 346.123636 -238.633193 
L 335.650909 -233.946751 
L 325.178182 -229.575503 
L 314.705455 -225.099391 
L 304.232727 -219.958405 
L 293.76 -214.63402 
L 283.287273 -209.729781 
L 272.814545 -204.802216 
L 262.341818 -199.025053 
L 251.869091 -192.992217 
L 241.396364 -187.338965 
L 230.923636 -181.364792 
L 220.450909 -175.558136 
L 209.978182 -170.36936 
L 199.505455 -164.221145 
L 189.032727 -154.3315 
L 178.56 -140.64162 
L 168.087273 -129.222248 
L 157.614545 -128.971641 
L 147.141818 -144.886915 
L 136.669091 -169.337572 
L 126.196364 -189.061123 
L 115.723636 -199.810348 
L 105.250909 -204.785362 
L 94.778182 -209.085267 
L 84.305455 -214.39309 
L 73.832727 -219.953801 
z
" id="mf40dec2620"/>
    </defs>
    <g clip-path="url(#pf719a5c297)">
     <use style="fill-opacity:0.5;" x="0" xlink:href="#mf40dec2620" y="345.6"/>
    </g>
   </g>
   <g id="matplotlib.axis_1">
    <g id="xtick_1">
     <g id="line2d_1">
      <defs>
       <path d="M 0 0 
L 0 3.5 
" id="m3e5d37b42f" style="stroke:#000000;stroke-width:0.8;"/>
      </defs>
      <g>
       <use style="stroke:#000000;stroke-width:0.8;" x="73.832727" xlink:href="#m3e5d37b42f" y="307.584"/>
      </g>
     </g>
     <g id="text_1">
      <!-- 0.0000 -->
      <defs>
       <path d="M 31.78125 66.40625 
Q 24.171875 66.40625 20.328125 58.90625 
Q 16.5 51.421875 16.5 36.375 
Q 16.5 21.390625 20.328125 13.890625 
Q 24.171875 6.390625 31.78125 6.390625 
Q 39.453125 6.390625 43.28125 13.890625 
Q 47.125 21.390625 47.125 36.375 
Q 47.125 51.421875 43.28125 58.90625 
Q 39.453125 66.40625 31.78125 66.40625 
z
M 31.78125 74.21875 
Q 44.046875 74.21875 50.515625 64.515625 
Q 56.984375 54.828125 56.984375 36.375 
Q 56.984375 17.96875 50.515625 8.265625 
Q 44.046875 -1.421875 31.78125 -1.421875 
Q 19.53125 -1.421875 13.0625 8.265625 
Q 6.59375 17.96875 6.59375 36.375 
Q 6.59375 54.828125 13.0625 64.515625 
Q 19.53125 74.21875 31.78125 74.21875 
z
" id="DejaVuSans-30"/>
       <path d="M 10.6875 12.40625 
L 21 12.40625 
L 21 0 
L 10.6875 0 
z
" id="DejaVuSans-2e"/>
      </defs>
      <g transform="translate(56.337415 322.182437)scale(0.1 -0.1)">
       <use xlink:href="#DejaVuSans-30"/>
       <use x="63.623047" xlink:href="#DejaVuSans-2e"/>
       <use x="95.410156" xlink:href="#DejaVuSans-30"/>
       <use x="159.033203" xlink:href="#DejaVuSans-30"/>
       <use x="222.65625" xlink:href="#DejaVuSans-30"/>
       <use x="286.279297" xlink:href="#DejaVuSans-30"/>
      </g>
     </g>
    </g>
    <g id="xtick_2">
     <g id="line2d_2">
      <g>
       <use style="stroke:#000000;stroke-width:0.8;" x="115.723636" xlink:href="#m3e5d37b42f" y="307.584"/>
      </g>
     </g>
     <g id="text_2">
      <!-- 0.0001 -->
      <defs>
       <path d="M 12.40625 8.296875 
L 28.515625 8.296875 
L 28.515625 63.921875 
L 10.984375 60.40625 
L 10.984375 69.390625 
L 28.421875 72.90625 
L 38.28125 72.90625 
L 38.28125 8.296875 
L 54.390625 8.296875 
L 54.390625 0 
L 12.40625 0 
z
" id="DejaVuSans-31"/>
      </defs>
      <g transform="translate(98.228324 322.182437)scale(0.1 -0.1)">
       <use xlink:href="#DejaVuSans-30"/>
       <use x="63.623047" xlink:href="#DejaVuSans-2e"/>
       <use x="95.410156" xlink:href="#DejaVuSans-30"/>
       <use x="159.033203" xlink:href="#DejaVuSans-30"/>
       <use x="222.65625" xlink:href="#DejaVuSans-30"/>
       <use x="286.279297" xlink:href="#DejaVuSans-31"/>
      </g>
     </g>
    </g>
    <g id="xtick_3">
     <g id="line2d_3">
      <g>
       <use style="stroke:#000000;stroke-width:0.8;" x="157.614545" xlink:href="#m3e5d37b42f" y="307.584"/>
      </g>
     </g>
     <g id="text_3">
      <!-- 0.0002 -->
      <defs>
       <path d="M 19.1875 8.296875 
L 53.609375 8.296875 
L 53.609375 0 
L 7.328125 0 
L 7.328125 8.296875 
Q 12.9375 14.109375 22.625 23.890625 
Q 32.328125 33.6875 34.8125 36.53125 
Q 39.546875 41.84375 41.421875 45.53125 
Q 43.3125 49.21875 43.3125 52.78125 
Q 43.3125 58.59375 39.234375 62.25 
Q 35.15625 65.921875 28.609375 65.921875 
Q 23.96875 65.921875 18.8125 64.3125 
Q 13.671875 62.703125 7.8125 59.421875 
L 7.8125 69.390625 
Q 13.765625 71.78125 18.9375 73 
Q 24.125 74.21875 28.421875 74.21875 
Q 39.75 74.21875 46.484375 68.546875 
Q 53.21875 62.890625 53.21875 53.421875 
Q 53.21875 48.921875 51.53125 44.890625 
Q 49.859375 40.875 45.40625 35.40625 
Q 44.1875 33.984375 37.640625 27.21875 
Q 31.109375 20.453125 19.1875 8.296875 
z
" id="DejaVuSans-32"/>
      </defs>
      <g transform="translate(140.119233 322.182437)scale(0.1 -0.1)">
       <use xlink:href="#DejaVuSans-30"/>
       <use x="63.623047" xlink:href="#DejaVuSans-2e"/>
       <use x="95.410156" xlink:href="#DejaVuSans-30"/>
       <use x="159.033203" xlink:href="#DejaVuSans-30"/>
       <use x="222.65625" xlink:href="#DejaVuSans-30"/>
       <use x="286.279297" xlink:href="#DejaVuSans-32"/>
      </g>
     </g>
    </g>
    <g id="xtick_4">
     <g id="line2d_4">
      <g>
       <use style="stroke:#000000;stroke-width:0.8;" x="199.505455" xlink:href="#m3e5d37b42f" y="307.584"/>
      </g>
     </g>
     <g id="text_4">
      <!-- 0.0003 -->
      <defs>
       <path d="M 40.578125 39.3125 
Q 47.65625 37.796875 51.625 33 
Q 55.609375 28.21875 55.609375 21.1875 
Q 55.609375 10.40625 48.1875 4.484375 
Q 40.765625 -1.421875 27.09375 -1.421875 
Q 22.515625 -1.421875 17.65625 -0.515625 
Q 12.796875 0.390625 7.625 2.203125 
L 7.625 11.71875 
Q 11.71875 9.328125 16.59375 8.109375 
Q 21.484375 6.890625 26.8125 6.890625 
Q 36.078125 6.890625 40.9375 10.546875 
Q 45.796875 14.203125 45.796875 21.1875 
Q 45.796875 27.640625 41.28125 31.265625 
Q 36.765625 34.90625 28.71875 34.90625 
L 20.21875 34.90625 
L 20.21875 43.015625 
L 29.109375 43.015625 
Q 36.375 43.015625 40.234375 45.921875 
Q 44.09375 48.828125 44.09375 54.296875 
Q 44.09375 59.90625 40.109375 62.90625 
Q 36.140625 65.921875 28.71875 65.921875 
Q 24.65625 65.921875 20.015625 65.03125 
Q 15.375 64.15625 9.8125 62.3125 
L 9.8125 71.09375 
Q 15.4375 72.65625 20.34375 73.4375 
Q 25.25 74.21875 29.59375 74.21875 
Q 40.828125 74.21875 47.359375 69.109375 
Q 53.90625 64.015625 53.90625 55.328125 
Q 53.90625 49.265625 50.4375 45.09375 
Q 46.96875 40.921875 40.578125 39.3125 
z
" id="DejaVuSans-33"/>
      </defs>
      <g transform="translate(182.010142 322.182437)scale(0.1 -0.1)">
       <use xlink:href="#DejaVuSans-30"/>
       <use x="63.623047" xlink:href="#DejaVuSans-2e"/>
       <use x="95.410156" xlink:href="#DejaVuSans-30"/>
       <use x="159.033203" xlink:href="#DejaVuSans-30"/>
       <use x="222.65625" xlink:href="#DejaVuSans-30"/>
       <use x="286.279297" xlink:href="#DejaVuSans-33"/>
      </g>
     </g>
    </g>
    <g id="xtick_5">
     <g id="line2d_5">
      <g>
       <use style="stroke:#000000;stroke-width:0.8;" x="241.396364" xlink:href="#m3e5d37b42f" y="307.584"/>
      </g>
     </g>
     <g id="text_5">
      <!-- 0.0004 -->
      <defs>
       <path d="M 37.796875 64.3125 
L 12.890625 25.390625 
L 37.796875 25.390625 
z
M 35.203125 72.90625 
L 47.609375 72.90625 
L 47.609375 25.390625 
L 58.015625 25.390625 
L 58.015625 17.1875 
L 47.609375 17.1875 
L 47.609375 0 
L 37.796875 0 
L 37.796875 17.1875 
L 4.890625 17.1875 
L 4.890625 26.703125 
z
" id="DejaVuSans-34"/>
      </defs>
      <g transform="translate(223.901051 322.182437)scale(0.1 -0.1)">
       <use xlink:href="#DejaVuSans-30"/>
       <use x="63.623047" xlink:href="#DejaVuSans-2e"/>
       <use x="95.410156" xlink:href="#DejaVuSans-30"/>
       <use x="159.033203" xlink:href="#DejaVuSans-30"/>
       <use x="222.65625" xlink:href="#DejaVuSans-30"/>
       <use x="286.279297" xlink:href="#DejaVuSans-34"/>
      </g>
     </g>
    </g>
    <g id="xtick_6">
     <g id="line2d_6">
      <g>
       <use style="stroke:#000000;stroke-width:0.8;" x="283.287273" xlink:href="#m3e5d37b42f" y="307.584"/>
      </g>
     </g>
     <g id="text_6">
      <!-- 0.0005 -->
      <defs>
       <path d="M 10.796875 72.90625 
L 49.515625 72.90625 
L 49.515625 64.59375 
L 19.828125 64.59375 
L 19.828125 46.734375 
Q 21.96875 47.46875 24.109375 47.828125 
Q 26.265625 48.1875 28.421875 48.1875 
Q 40.625 48.1875 47.75 41.5 
Q 54.890625 34.8125 54.890625 23.390625 
Q 54.890625 11.625 47.5625 5.09375 
Q 40.234375 -1.421875 26.90625 -1.421875 
Q 22.3125 -1.421875 17.546875 -0.640625 
Q 12.796875 0.140625 7.71875 1.703125 
L 7.71875 11.625 
Q 12.109375 9.234375 16.796875 8.0625 
Q 21.484375 6.890625 26.703125 6.890625 
Q 35.15625 6.890625 40.078125 11.328125 
Q 45.015625 15.765625 45.015625 23.390625 
Q 45.015625 31 40.078125 35.4375 
Q 35.15625 39.890625 26.703125 39.890625 
Q 22.75 39.890625 18.8125 39.015625 
Q 14.890625 38.140625 10.796875 36.28125 
z
" id="DejaVuSans-35"/>
      </defs>
      <g transform="translate(265.79196 322.182437)scale(0.1 -0.1)">
       <use xlink:href="#DejaVuSans-30"/>
       <use x="63.623047" xlink:href="#DejaVuSans-2e"/>
       <use x="95.410156" xlink:href="#DejaVuSans-30"/>
       <use x="159.033203" xlink:href="#DejaVuSans-30"/>
       <use x="222.65625" xlink:href="#DejaVuSans-30"/>
       <use x="286.279297" xlink:href="#DejaVuSans-35"/>
      </g>
     </g>
    </g>
    <g id="xtick_7">
     <g id="line2d_7">
      <g>
       <use style="stroke:#000000;stroke-width:0.8;" x="325.178182" xlink:href="#m3e5d37b42f" y="307.584"/>
      </g>
     </g>
     <g id="text_7">
      <!-- 0.0006 -->
      <defs>
       <path d="M 33.015625 40.375 
Q 26.375 40.375 22.484375 35.828125 
Q 18.609375 31.296875 18.609375 23.390625 
Q 18.609375 15.53125 22.484375 10.953125 
Q 26.375 6.390625 33.015625 6.390625 
Q 39.65625 6.390625 43.53125 10.953125 
Q 47.40625 15.53125 47.40625 23.390625 
Q 47.40625 31.296875 43.53125 35.828125 
Q 39.65625 40.375 33.015625 40.375 
z
M 52.59375 71.296875 
L 52.59375 62.3125 
Q 48.875 64.0625 45.09375 64.984375 
Q 41.3125 65.921875 37.59375 65.921875 
Q 27.828125 65.921875 22.671875 59.328125 
Q 17.53125 52.734375 16.796875 39.40625 
Q 19.671875 43.65625 24.015625 45.921875 
Q 28.375 48.1875 33.59375 48.1875 
Q 44.578125 48.1875 50.953125 41.515625 
Q 57.328125 34.859375 57.328125 23.390625 
Q 57.328125 12.15625 50.6875 5.359375 
Q 44.046875 -1.421875 33.015625 -1.421875 
Q 20.359375 -1.421875 13.671875 8.265625 
Q 6.984375 17.96875 6.984375 36.375 
Q 6.984375 53.65625 15.1875 63.9375 
Q 23.390625 74.21875 37.203125 74.21875 
Q 40.921875 74.21875 44.703125 73.484375 
Q 48.484375 72.75 52.59375 71.296875 
z
" id="DejaVuSans-36"/>
      </defs>
      <g transform="translate(307.682869 322.182437)scale(0.1 -0.1)">
       <use xlink:href="#DejaVuSans-30"/>
       <use x="63.623047" xlink:href="#DejaVuSans-2e"/>
       <use x="95.410156" xlink:href="#DejaVuSans-30"/>
       <use x="159.033203" xlink:href="#DejaVuSans-30"/>
       <use x="222.65625" xlink:href="#DejaVuSans-30"/>
       <use x="286.279297" xlink:href="#DejaVuSans-36"/>
      </g>
     </g>
    </g>
    <g id="xtick_8">
     <g id="line2d_8">
      <g>
       <use style="stroke:#000000;stroke-width:0.8;" x="367.069091" xlink:href="#m3e5d37b42f" y="307.584"/>
      </g>
     </g>
     <g id="text_8">
      <!-- 0.0007 -->
      <defs>
       <path d="M 8.203125 72.90625 
L 55.078125 72.90625 
L 55.078125 68.703125 
L 28.609375 0 
L 18.3125 0 
L 43.21875 64.59375 
L 8.203125 64.59375 
z
" id="DejaVuSans-37"/>
      </defs>
      <g transform="translate(349.573778 322.182437)scale(0.1 -0.1)">
       <use xlink:href="#DejaVuSans-30"/>
       <use x="63.623047" xlink:href="#DejaVuSans-2e"/>
       <use x="95.410156" xlink:href="#DejaVuSans-30"/>
       <use x="159.033203" xlink:href="#DejaVuSans-30"/>
       <use x="222.65625" xlink:href="#DejaVuSans-30"/>
       <use x="286.279297" xlink:href="#DejaVuSans-37"/>
      </g>
     </g>
    </g>
    <g id="xtick_9">
     <g id="line2d_9">
      <g>
       <use style="stroke:#000000;stroke-width:0.8;" x="408.96" xlink:href="#m3e5d37b42f" y="307.584"/>
      </g>
     </g>
     <g id="text_9">
      <!-- 0.0008 -->
      <defs>
       <path d="M 31.78125 34.625 
Q 24.75 34.625 20.71875 30.859375 
Q 16.703125 27.09375 16.703125 20.515625 
Q 16.703125 13.921875 20.71875 10.15625 
Q 24.75 6.390625 31.78125 6.390625 
Q 38.8125 6.390625 42.859375 10.171875 
Q 46.921875 13.96875 46.921875 20.515625 
Q 46.921875 27.09375 42.890625 30.859375 
Q 38.875 34.625 31.78125 34.625 
z
M 21.921875 38.8125 
Q 15.578125 40.375 12.03125 44.71875 
Q 8.5 49.078125 8.5 55.328125 
Q 8.5 64.0625 14.71875 69.140625 
Q 20.953125 74.21875 31.78125 74.21875 
Q 42.671875 74.21875 48.875 69.140625 
Q 55.078125 64.0625 55.078125 55.328125 
Q 55.078125 49.078125 51.53125 44.71875 
Q 48 40.375 41.703125 38.8125 
Q 48.828125 37.15625 52.796875 32.3125 
Q 56.78125 27.484375 56.78125 20.515625 
Q 56.78125 9.90625 50.3125 4.234375 
Q 43.84375 -1.421875 31.78125 -1.421875 
Q 19.734375 -1.421875 13.25 4.234375 
Q 6.78125 9.90625 6.78125 20.515625 
Q 6.78125 27.484375 10.78125 32.3125 
Q 14.796875 37.15625 21.921875 38.8125 
z
M 18.3125 54.390625 
Q 18.3125 48.734375 21.84375 45.5625 
Q 25.390625 42.390625 31.78125 42.390625 
Q 38.140625 42.390625 41.71875 45.5625 
Q 45.3125 48.734375 45.3125 54.390625 
Q 45.3125 60.0625 41.71875 63.234375 
Q 38.140625 66.40625 31.78125 66.40625 
Q 25.390625 66.40625 21.84375 63.234375 
Q 18.3125 60.0625 18.3125 54.390625 
z
" id="DejaVuSans-38"/>
      </defs>
      <g transform="translate(391.464687 322.182437)scale(0.1 -0.1)">
       <use xlink:href="#DejaVuSans-30"/>
       <use x="63.623047" xlink:href="#DejaVuSans-2e"/>
       <use x="95.410156" xlink:href="#DejaVuSans-30"/>
       <use x="159.033203" xlink:href="#DejaVuSans-30"/>
       <use x="222.65625" xlink:href="#DejaVuSans-30"/>
       <use x="286.279297" xlink:href="#DejaVuSans-38"/>
      </g>
     </g>
    </g>
    <g id="text_10">
     <!-- Time (s) -->
     <defs>
      <path d="M -0.296875 72.90625 
L 61.375 72.90625 
L 61.375 64.59375 
L 35.5 64.59375 
L 35.5 0 
L 25.59375 0 
L 25.59375 64.59375 
L -0.296875 64.59375 
z
" id="DejaVuSans-54"/>
      <path d="M 9.421875 54.6875 
L 18.40625 54.6875 
L 18.40625 0 
L 9.421875 0 
z
M 9.421875 75.984375 
L 18.40625 75.984375 
L 18.40625 64.59375 
L 9.421875 64.59375 
z
" id="DejaVuSans-69"/>
      <path d="M 52 44.1875 
Q 55.375 50.25 60.0625 53.125 
Q 64.75 56 71.09375 56 
Q 79.640625 56 84.28125 50.015625 
Q 88.921875 44.046875 88.921875 33.015625 
L 88.921875 0 
L 79.890625 0 
L 79.890625 32.71875 
Q 79.890625 40.578125 77.09375 44.375 
Q 74.3125 48.1875 68.609375 48.1875 
Q 61.625 48.1875 57.5625 43.546875 
Q 53.515625 38.921875 53.515625 30.90625 
L 53.515625 0 
L 44.484375 0 
L 44.484375 32.71875 
Q 44.484375 40.625 41.703125 44.40625 
Q 38.921875 48.1875 33.109375 48.1875 
Q 26.21875 48.1875 22.15625 43.53125 
Q 18.109375 38.875 18.109375 30.90625 
L 18.109375 0 
L 9.078125 0 
L 9.078125 54.6875 
L 18.109375 54.6875 
L 18.109375 46.1875 
Q 21.1875 51.21875 25.484375 53.609375 
Q 29.78125 56 35.6875 56 
Q 41.65625 56 45.828125 52.96875 
Q 50 49.953125 52 44.1875 
z
" id="DejaVuSans-6d"/>
      <path d="M 56.203125 29.59375 
L 56.203125 25.203125 
L 14.890625 25.203125 
Q 15.484375 15.921875 20.484375 11.0625 
Q 25.484375 6.203125 34.421875 6.203125 
Q 39.59375 6.203125 44.453125 7.46875 
Q 49.3125 8.734375 54.109375 11.28125 
L 54.109375 2.78125 
Q 49.265625 0.734375 44.1875 -0.34375 
Q 39.109375 -1.421875 33.890625 -1.421875 
Q 20.796875 -1.421875 13.15625 6.1875 
Q 5.515625 13.8125 5.515625 26.8125 
Q 5.515625 40.234375 12.765625 48.109375 
Q 20.015625 56 32.328125 56 
Q 43.359375 56 49.78125 48.890625 
Q 56.203125 41.796875 56.203125 29.59375 
z
M 47.21875 32.234375 
Q 47.125 39.59375 43.09375 43.984375 
Q 39.0625 48.390625 32.421875 48.390625 
Q 24.90625 48.390625 20.390625 44.140625 
Q 15.875 39.890625 15.1875 32.171875 
z
" id="DejaVuSans-65"/>
      <path id="DejaVuSans-20"/>
      <path d="M 31 75.875 
Q 24.46875 64.65625 21.28125 53.65625 
Q 18.109375 42.671875 18.109375 31.390625 
Q 18.109375 20.125 21.3125 9.0625 
Q 24.515625 -2 31 -13.1875 
L 23.1875 -13.1875 
Q 15.875 -1.703125 12.234375 9.375 
Q 8.59375 20.453125 8.59375 31.390625 
Q 8.59375 42.28125 12.203125 53.3125 
Q 15.828125 64.359375 23.1875 75.875 
z
" id="DejaVuSans-28"/>
      <path d="M 44.28125 53.078125 
L 44.28125 44.578125 
Q 40.484375 46.53125 36.375 47.5 
Q 32.28125 48.484375 27.875 48.484375 
Q 21.1875 48.484375 17.84375 46.4375 
Q 14.5 44.390625 14.5 40.28125 
Q 14.5 37.15625 16.890625 35.375 
Q 19.28125 33.59375 26.515625 31.984375 
L 29.59375 31.296875 
Q 39.15625 29.25 43.1875 25.515625 
Q 47.21875 21.78125 47.21875 15.09375 
Q 47.21875 7.46875 41.1875 3.015625 
Q 35.15625 -1.421875 24.609375 -1.421875 
Q 20.21875 -1.421875 15.453125 -0.5625 
Q 10.6875 0.296875 5.421875 2 
L 5.421875 11.28125 
Q 10.40625 8.6875 15.234375 7.390625 
Q 20.0625 6.109375 24.8125 6.109375 
Q 31.15625 6.109375 34.5625 8.28125 
Q 37.984375 10.453125 37.984375 14.40625 
Q 37.984375 18.0625 35.515625 20.015625 
Q 33.0625 21.96875 24.703125 23.78125 
L 21.578125 24.515625 
Q 13.234375 26.265625 9.515625 29.90625 
Q 5.8125 33.546875 5.8125 39.890625 
Q 5.8125 47.609375 11.28125 51.796875 
Q 16.75 56 26.8125 56 
Q 31.78125 56 36.171875 55.265625 
Q 40.578125 54.546875 44.28125 53.078125 
z
" id="DejaVuSans-73"/>
      <path d="M 8.015625 75.875 
L 15.828125 75.875 
Q 23.140625 64.359375 26.78125 53.3125 
Q 30.421875 42.28125 30.421875 31.390625 
Q 30.421875 20.453125 26.78125 9.375 
Q 23.140625 -1.703125 15.828125 -13.1875 
L 8.015625 -13.1875 
Q 14.5 -2 17.703125 9.0625 
Q 20.90625 20.125 20.90625 31.390625 
Q 20.90625 42.671875 17.703125 53.65625 
Q 14.5 64.65625 8.015625 75.875 
z
" id="DejaVuSans-29"/>
     </defs>
     <g transform="translate(215.677188 335.860562)scale(0.1 -0.1)">
      <use xlink:href="#DejaVuSans-54"/>
      <use x="61.037109" xlink:href="#DejaVuSans-69"/>
      <use x="88.820312" xlink:href="#DejaVuSans-6d"/>
      <use x="186.232422" xlink:href="#DejaVuSans-65"/>
      <use x="247.755859" xlink:href="#DejaVuSans-20"/>
      <use x="279.542969" xlink:href="#DejaVuSans-28"/>
      <use x="318.556641" xlink:href="#DejaVuSans-73"/>
      <use x="370.65625" xlink:href="#DejaVuSans-29"/>
     </g>
    </g>
   </g>
   <g id="matplotlib.axis_2">
    <g id="ytick_1">
     <g id="line2d_10">
      <defs>
       <path d="M 0 0 
L -3.5 0 
" id="m80543a5ea2" style="stroke:#000000;stroke-width:0.8;"/>
      </defs>
      <g>
       <use style="stroke:#000000;stroke-width:0.8;" x="57.6" xlink:href="#m80543a5ea2" y="307.584"/>
      </g>
     </g>
     <g id="text_11">
      <!-- −50 -->
      <defs>
       <path d="M 10.59375 35.5 
L 73.1875 35.5 
L 73.1875 27.203125 
L 10.59375 27.203125 
z
" id="DejaVuSans-2212"/>
      </defs>
      <g transform="translate(29.495313 311.383219)scale(0.1 -0.1)">
       <use xlink:href="#DejaVuSans-2212"/>
       <use x="83.789062" xlink:href="#DejaVuSans-35"/>
       <use x="147.412109" xlink:href="#DejaVuSans-30"/>
      </g>
     </g>
    </g>
    <g id="ytick_2">
     <g id="line2d_11">
      <g>
       <use style="stroke:#000000;stroke-width:0.8;" x="57.6" xlink:href="#m80543a5ea2" y="274.32"/>
      </g>
     </g>
     <g id="text_12">
      <!-- −40 -->
      <g transform="translate(29.495313 278.119219)scale(0.1 -0.1)">
       <use xlink:href="#DejaVuSans-2212"/>
       <use x="83.789062" xlink:href="#DejaVuSans-34"/>
       <use x="147.412109" xlink:href="#DejaVuSans-30"/>
      </g>
     </g>
    </g>
    <g id="ytick_3">
     <g id="line2d_12">
      <g>
       <use style="stroke:#000000;stroke-width:0.8;" x="57.6" xlink:href="#m80543a5ea2" y="241.056"/>
      </g>
     </g>
     <g id="text_13">
      <!-- −30 -->
      <g transform="translate(29.495313 244.855219)scale(0.1 -0.1)">
       <use xlink:href="#DejaVuSans-2212"/>
       <use x="83.789062" xlink:href="#DejaVuSans-33"/>
       <use x="147.412109" xlink:href="#DejaVuSans-30"/>
      </g>
     </g>
    </g>
    <g id="ytick_4">
     <g id="line2d_13">
      <g>
       <use style="stroke:#000000;stroke-width:0.8;" x="57.6" xlink:href="#m80543a5ea2" y="207.792"/>
      </g>
     </g>
     <g id="text_14">
      <!-- −20 -->
      <g transform="translate(29.495313 211.591219)scale(0.1 -0.1)">
       <use xlink:href="#DejaVuSans-2212"/>
       <use x="83.789062" xlink:href="#DejaVuSans-32"/>
       <use x="147.412109" xlink:href="#DejaVuSans-30"/>
      </g>
     </g>
    </g>
    <g id="ytick_5">
     <g id="line2d_14">
      <g>
       <use style="stroke:#000000;stroke-width:0.8;" x="57.6" xlink:href="#m80543a5ea2" y="174.528"/>
      </g>
     </g>
     <g id="text_15">
      <!-- −10 -->
      <g transform="translate(29.495313 178.327219)scale(0.1 -0.1)">
       <use xlink:href="#DejaVuSans-2212"/>
       <use x="83.789062" xlink:href="#DejaVuSans-31"/>
       <use x="147.412109" xlink:href="#DejaVuSans-30"/>
      </g>
     </g>
    </g>
    <g id="ytick_6">
     <g id="line2d_15">
      <g>
       <use style="stroke:#000000;stroke-width:0.8;" x="57.6" xlink:href="#m80543a5ea2" y="141.264"/>
      </g>
     </g>
     <g id="text_16">
      <!-- 0 -->
      <g transform="translate(44.2375 145.063219)scale(0.1 -0.1)">
       <use xlink:href="#DejaVuSans-30"/>
      </g>
     </g>
    </g>
    <g id="ytick_7">
     <g id="line2d_16">
      <g>
       <use style="stroke:#000000;stroke-width:0.8;" x="57.6" xlink:href="#m80543a5ea2" y="108"/>
      </g>
     </g>
     <g id="text_17">
      <!-- 10 -->
      <g transform="translate(37.875 111.799219)scale(0.1 -0.1)">
       <use xlink:href="#DejaVuSans-31"/>
       <use x="63.623047" xlink:href="#DejaVuSans-30"/>
      </g>
     </g>
    </g>
    <g id="ytick_8">
     <g id="line2d_17">
      <g>
       <use style="stroke:#000000;stroke-width:0.8;" x="57.6" xlink:href="#m80543a5ea2" y="74.736"/>
      </g>
     </g>
     <g id="text_18">
      <!-- 20 -->
      <g transform="translate(37.875 78.535219)scale(0.1 -0.1)">
       <use xlink:href="#DejaVuSans-32"/>
       <use x="63.623047" xlink:href="#DejaVuSans-30"/>
      </g>
     </g>
    </g>
    <g id="ytick_9">
     <g id="line2d_18">
      <g>
       <use style="stroke:#000000;stroke-width:0.8;" x="57.6" xlink:href="#m80543a5ea2" y="41.472"/>
      </g>
     </g>
     <g id="text_19">
      <!-- 30 -->
      <g transform="translate(37.875 45.271219)scale(0.1 -0.1)">
       <use xlink:href="#DejaVuSans-33"/>
       <use x="63.623047" xlink:href="#DejaVuSans-30"/>
      </g>
     </g>
    </g>
    <g id="text_20">
     <!-- Voltage ($\mu$V) -->
     <defs>
      <path d="M 28.609375 0 
L 0.78125 72.90625 
L 11.078125 72.90625 
L 34.1875 11.53125 
L 57.328125 72.90625 
L 67.578125 72.90625 
L 39.796875 0 
z
" id="DejaVuSans-56"/>
      <path d="M 30.609375 48.390625 
Q 23.390625 48.390625 19.1875 42.75 
Q 14.984375 37.109375 14.984375 27.296875 
Q 14.984375 17.484375 19.15625 11.84375 
Q 23.34375 6.203125 30.609375 6.203125 
Q 37.796875 6.203125 41.984375 11.859375 
Q 46.1875 17.53125 46.1875 27.296875 
Q 46.1875 37.015625 41.984375 42.703125 
Q 37.796875 48.390625 30.609375 48.390625 
z
M 30.609375 56 
Q 42.328125 56 49.015625 48.375 
Q 55.71875 40.765625 55.71875 27.296875 
Q 55.71875 13.875 49.015625 6.21875 
Q 42.328125 -1.421875 30.609375 -1.421875 
Q 18.84375 -1.421875 12.171875 6.21875 
Q 5.515625 13.875 5.515625 27.296875 
Q 5.515625 40.765625 12.171875 48.375 
Q 18.84375 56 30.609375 56 
z
" id="DejaVuSans-6f"/>
      <path d="M 9.421875 75.984375 
L 18.40625 75.984375 
L 18.40625 0 
L 9.421875 0 
z
" id="DejaVuSans-6c"/>
      <path d="M 18.3125 70.21875 
L 18.3125 54.6875 
L 36.8125 54.6875 
L 36.8125 47.703125 
L 18.3125 47.703125 
L 18.3125 18.015625 
Q 18.3125 11.328125 20.140625 9.421875 
Q 21.96875 7.515625 27.59375 7.515625 
L 36.8125 7.515625 
L 36.8125 0 
L 27.59375 0 
Q 17.1875 0 13.234375 3.875 
Q 9.28125 7.765625 9.28125 18.015625 
L 9.28125 47.703125 
L 2.6875 47.703125 
L 2.6875 54.6875 
L 9.28125 54.6875 
L 9.28125 70.21875 
z
" id="DejaVuSans-74"/>
      <path d="M 34.28125 27.484375 
Q 23.390625 27.484375 19.1875 25 
Q 14.984375 22.515625 14.984375 16.5 
Q 14.984375 11.71875 18.140625 8.90625 
Q 21.296875 6.109375 26.703125 6.109375 
Q 34.1875 6.109375 38.703125 11.40625 
Q 43.21875 16.703125 43.21875 25.484375 
L 43.21875 27.484375 
z
M 52.203125 31.203125 
L 52.203125 0 
L 43.21875 0 
L 43.21875 8.296875 
Q 40.140625 3.328125 35.546875 0.953125 
Q 30.953125 -1.421875 24.3125 -1.421875 
Q 15.921875 -1.421875 10.953125 3.296875 
Q 6 8.015625 6 15.921875 
Q 6 25.140625 12.171875 29.828125 
Q 18.359375 34.515625 30.609375 34.515625 
L 43.21875 34.515625 
L 43.21875 35.40625 
Q 43.21875 41.609375 39.140625 45 
Q 35.0625 48.390625 27.6875 48.390625 
Q 23 48.390625 18.546875 47.265625 
Q 14.109375 46.140625 10.015625 43.890625 
L 10.015625 52.203125 
Q 14.9375 54.109375 19.578125 55.046875 
Q 24.21875 56 28.609375 56 
Q 40.484375 56 46.34375 49.84375 
Q 52.203125 43.703125 52.203125 31.203125 
z
" id="DejaVuSans-61"/>
      <path d="M 45.40625 27.984375 
Q 45.40625 37.75 41.375 43.109375 
Q 37.359375 48.484375 30.078125 48.484375 
Q 22.859375 48.484375 18.828125 43.109375 
Q 14.796875 37.75 14.796875 27.984375 
Q 14.796875 18.265625 18.828125 12.890625 
Q 22.859375 7.515625 30.078125 7.515625 
Q 37.359375 7.515625 41.375 12.890625 
Q 45.40625 18.265625 45.40625 27.984375 
z
M 54.390625 6.78125 
Q 54.390625 -7.171875 48.1875 -13.984375 
Q 42 -20.796875 29.203125 -20.796875 
Q 24.46875 -20.796875 20.265625 -20.09375 
Q 16.0625 -19.390625 12.109375 -17.921875 
L 12.109375 -9.1875 
Q 16.0625 -11.328125 19.921875 -12.34375 
Q 23.78125 -13.375 27.78125 -13.375 
Q 36.625 -13.375 41.015625 -8.765625 
Q 45.40625 -4.15625 45.40625 5.171875 
L 45.40625 9.625 
Q 42.625 4.78125 38.28125 2.390625 
Q 33.9375 0 27.875 0 
Q 17.828125 0 11.671875 7.65625 
Q 5.515625 15.328125 5.515625 27.984375 
Q 5.515625 40.671875 11.671875 48.328125 
Q 17.828125 56 27.875 56 
Q 33.9375 56 38.28125 53.609375 
Q 42.625 51.21875 45.40625 46.390625 
L 45.40625 54.6875 
L 54.390625 54.6875 
z
" id="DejaVuSans-67"/>
      <path d="M -1.3125 -20.796875 
L 13.375 54.6875 
L 22.40625 54.6875 
L 15.765625 20.65625 
Q 15.578125 19.625 15.421875 18.359375 
Q 15.28125 17.09375 15.28125 15.828125 
Q 15.28125 11.28125 18.140625 8.828125 
Q 21 6.390625 26.3125 6.390625 
Q 33.546875 6.390625 37.984375 10.484375 
Q 42.4375 14.59375 44 22.796875 
L 50.203125 54.6875 
L 59.1875 54.6875 
L 51.03125 12.640625 
Q 50.828125 11.71875 50.75 11.03125 
Q 50.6875 10.359375 50.6875 9.8125 
Q 50.6875 8.296875 51.296875 7.59375 
Q 51.90625 6.890625 53.21875 6.890625 
Q 53.71875 6.890625 54.5625 7.125 
Q 55.421875 7.375 56.984375 8.015625 
L 55.609375 0.78125 
Q 53.46875 -0.296875 51.515625 -0.859375 
Q 49.5625 -1.421875 47.703125 -1.421875 
Q 44.484375 -1.421875 42.65625 0.625 
Q 40.828125 2.6875 40.828125 6.296875 
Q 38.09375 2.390625 34.296875 0.484375 
Q 30.515625 -1.421875 25.390625 -1.421875 
Q 20.84375 -1.421875 17.453125 0.671875 
Q 14.0625 2.78125 12.984375 6.203125 
L 7.71875 -20.796875 
z
" id="DejaVuSans-Oblique-3bc"/>
     </defs>
     <g transform="translate(23.395312 205.778)rotate(-90)scale(0.1 -0.1)">
      <use transform="translate(0 0.015625)" xlink:href="#DejaVuSans-56"/>
      <use transform="translate(68.408203 0.015625)" xlink:href="#DejaVuSans-6f"/>
      <use transform="translate(129.589844 0.015625)" xlink:href="#DejaVuSans-6c"/>
      <use transform="translate(157.373047 0.015625)" xlink:href="#DejaVuSans-74"/>
      <use transform="translate(196.582031 0.015625)" xlink:href="#DejaVuSans-61"/>
      <use transform="translate(257.861328 0.015625)" xlink:href="#DejaVuSans-67"/>
      <use transform="translate(321.337891 0.015625)" xlink:href="#DejaVuSans-65"/>
      <use transform="translate(382.861328 0.015625)" xlink:href="#DejaVuSans-20"/>
      <use transform="translate(414.648438 0.015625)" xlink:href="#DejaVuSans-28"/>
      <use transform="translate(453.662109 0.015625)" xlink:href="#DejaVuSans-Oblique-3bc"/>
      <use transform="translate(517.285156 0.015625)" xlink:href="#DejaVuSans-56"/>
      <use transform="translate(585.693359 0.015625)" xlink:href="#DejaVuSans-29"/>
     </g>
    </g>
   </g>
   <g id="line2d_19">
    <path clip-path="url(#pf719a5c297)" d="M 73.832727 152.422495 
L 84.305455 155.910197 
L 94.778182 159.513882 
L 105.250909 162.729931 
L 115.723636 166.335409 
L 126.196364 173.698704 
L 136.669091 188.403277 
L 147.141818 208.608494 
L 157.614545 226.010134 
L 168.087273 232.615823 
L 178.56 227.948059 
L 189.032727 218.362896 
L 199.505455 210.037678 
L 209.978182 204.384949 
L 220.450909 199.232767 
L 230.923636 192.879272 
L 241.396364 185.901564 
L 251.869091 179.50403 
L 262.341818 174.026684 
L 272.814545 168.994327 
L 283.287273 163.813213 
L 293.76 158.257009 
L 304.232727 152.658047 
L 314.705455 147.758315 
L 325.178182 143.770322 
L 335.650909 140.185327 
L 346.123636 136.756769 
L 356.596364 133.653119 
L 367.069091 130.962197 
L 377.541818 128.661727 
L 388.014545 126.788066 
L 398.487273 125.052409 
" style="fill:none;stroke:#000000;stroke-linecap:square;stroke-width:1.5;"/>
   </g>
   <g id="line2d_20">
    <path clip-path="url(#pf719a5c297)" d="M 73.832727 129.30975 
L 84.305455 131.80455 
L 94.778182 136.79415 
L 105.250909 141.0561 
L 115.723636 147.2931 
L 126.196364 159.5592 
L 136.669091 176.91885 
L 147.141818 196.04565 
L 157.614545 213.71715 
L 168.087273 224.2161 
L 178.56 221.82525 
L 189.032727 207.9999 
L 199.505455 195.318 
L 209.978182 198.33255 
L 220.450909 216.3159 
L 230.923636 234.4032 
L 241.396364 240.4323 
L 251.869091 235.75455 
L 262.341818 222.86475 
L 272.814545 203.32215 
L 283.287273 183.77955 
L 293.76 168.0831 
L 304.232727 150.2037 
L 314.705455 125.0478 
L 325.178182 97.29315 
L 335.650909 78.0624 
L 346.123636 74.42415 
L 356.596364 79.82955 
L 367.069091 83.6757 
L 377.541818 85.5468 
L 388.014545 88.0416 
L 398.487273 88.2495 
" style="fill:none;stroke:#ff0000;stroke-linecap:square;stroke-width:1.5;"/>
   </g>
   <g id="line2d_21">
    <path clip-path="url(#pf719a5c297)" d="M 73.832727 165.90015 
L 84.305455 154.7775 
L 94.778182 157.58415 
L 105.250909 171.09765 
L 115.723636 182.6361 
L 126.196364 186.3783 
L 136.669091 190.5363 
L 147.141818 204.15375 
L 157.614545 221.7213 
L 168.087273 226.81485 
L 178.56 212.05395 
L 189.032727 186.06645 
L 199.505455 163.82115 
L 209.978182 152.9064 
L 220.450909 152.6985 
L 230.923636 159.5592 
L 241.396364 167.35545 
L 251.869091 168.60285 
L 262.341818 160.1829 
L 272.814545 146.2536 
L 283.287273 133.5717 
L 293.76 126.39915 
L 304.232727 123.07275 
L 314.705455 118.08315 
L 325.178182 112.7817 
L 335.650909 114.54885 
L 346.123636 122.9688 
L 356.596364 125.98335 
L 367.069091 117.5634 
L 377.541818 105.2973 
L 388.014545 99.78795 
L 398.487273 102.8025 
" style="fill:none;stroke:#ff1e00;stroke-linecap:square;stroke-width:1.5;"/>
   </g>
   <g id="line2d_22">
    <path clip-path="url(#pf719a5c297)" d="M 73.832727 169.3305 
L 84.305455 177.0228 
L 94.778182 189.9126 
L 105.250909 194.0706 
L 115.723636 184.923 
L 126.196364 173.4885 
L 136.669091 175.5675 
L 147.141818 194.0706 
L 157.614545 216.21195 
L 168.087273 229.4136 
L 178.56 232.9479 
L 189.032727 232.42815 
L 199.505455 226.7109 
L 209.978182 211.95 
L 220.450909 191.05605 
L 230.923636 175.3596 
L 241.396364 170.1621 
L 251.869091 166.4199 
L 262.341818 157.6881 
L 272.814545 151.4511 
L 283.287273 152.59455 
L 293.76 155.29725 
L 304.232727 153.63405 
L 314.705455 148.3326 
L 325.178182 141.264 
L 335.650909 130.6611 
L 346.123636 113.92515 
L 356.596364 93.34305 
L 367.069091 76.3992 
L 377.541818 69.1227 
L 388.014545 69.3306 
L 398.487273 75.1518 
" style="fill:none;stroke:#ff3b00;stroke-linecap:square;stroke-width:1.5;"/>
   </g>
   <g id="line2d_23">
    <path clip-path="url(#pf719a5c297)" d="M 73.832727 172.0332 
L 84.305455 176.29515 
L 94.778182 172.2411 
L 105.250909 160.8066 
L 115.723636 148.3326 
L 126.196364 148.7484 
L 136.669091 172.96875 
L 147.141818 207.792 
L 157.614545 222.86475 
L 168.087273 207.27225 
L 178.56 183.57165 
L 189.032727 178.99785 
L 199.505455 198.2286 
L 209.978182 226.503 
L 220.450909 245.94165 
L 230.923636 250.4115 
L 241.396364 244.7982 
L 251.869091 234.71505 
L 262.341818 225.77535 
L 272.814545 222.03315 
L 283.287273 219.74625 
L 293.76 211.63815 
L 304.232727 194.38245 
L 314.705455 172.6569 
L 325.178182 155.817 
L 335.650909 150.4116 
L 346.123636 154.9854 
L 356.596364 163.19745 
L 367.069091 167.8752 
L 377.541818 165.90015 
L 388.014545 155.92095 
L 398.487273 137.41785 
" style="fill:none;stroke:#ff5900;stroke-linecap:square;stroke-width:1.5;"/>
   </g>
   <g id="line2d_24">
    <path clip-path="url(#pf719a5c297)" d="M 73.832727 185.1309 
L 84.305455 181.3887 
L 94.778182 177.33465 
L 105.250909 173.17665 
L 115.723636 168.81075 
L 126.196364 169.43445 
L 136.669091 179.62155 
L 147.141818 196.66935 
L 157.614545 214.34085 
L 168.087273 226.39905 
L 178.56 225.98325 
L 189.032727 211.5342 
L 199.505455 192.71925 
L 209.978182 182.11635 
L 220.450909 179.62155 
L 230.923636 176.1912 
L 241.396364 168.4989 
L 251.869091 161.6382 
L 262.341818 164.02905 
L 272.814545 177.2307 
L 283.287273 189.9126 
L 293.76 189.60075 
L 304.232727 177.0228 
L 314.705455 163.19745 
L 325.178182 154.46565 
L 335.650909 147.81285 
L 346.123636 142.40745 
L 356.596364 139.3929 
L 367.069091 135.027 
L 377.541818 126.39915 
L 388.014545 117.25155 
L 398.487273 112.7817 
" style="fill:none;stroke:#ff7600;stroke-linecap:square;stroke-width:1.5;"/>
   </g>
   <g id="line2d_25">
    <path clip-path="url(#pf719a5c297)" d="M 73.832727 141.78375 
L 84.305455 136.79415 
L 94.778182 133.7796 
L 105.250909 132.3243 
L 115.723636 135.75465 
L 126.196364 151.659 
L 136.669091 178.78995 
L 147.141818 204.98535 
L 157.614545 217.5633 
L 168.087273 217.04355 
L 178.56 213.30135 
L 189.032727 213.30135 
L 199.505455 219.6423 
L 209.978182 226.503 
L 220.450909 224.0082 
L 230.923636 214.6527 
L 241.396364 207.3762 
L 251.869091 199.37205 
L 262.341818 184.0914 
L 272.814545 165.90015 
L 283.287273 153.84195 
L 293.76 151.34715 
L 304.232727 152.59455 
L 314.705455 150.8274 
L 325.178182 144.5904 
L 335.650909 139.70475 
L 346.123636 142.3035 
L 356.596364 148.7484 
L 367.069091 151.13925 
L 377.541818 146.6694 
L 388.014545 139.70475 
L 398.487273 136.58625 
" style="fill:none;stroke:#ff9400;stroke-linecap:square;stroke-width:1.5;"/>
   </g>
   <g id="line2d_26">
    <path clip-path="url(#pf719a5c297)" d="M 73.832727 153.9459 
L 84.305455 160.70265 
L 94.778182 160.5987 
L 105.250909 160.91055 
L 115.723636 169.9542 
L 126.196364 187.6257 
L 136.669091 204.36165 
L 147.141818 213.1974 
L 157.614545 214.75665 
L 168.087273 210.9105 
L 178.56 203.634 
L 189.032727 196.25355 
L 199.505455 196.5654 
L 209.978182 204.0498 
L 220.450909 207.1683 
L 230.923636 199.57995 
L 241.396364 188.35335 
L 251.869091 182.74005 
L 262.341818 181.90845 
L 272.814545 177.12675 
L 283.287273 165.48435 
L 293.76 153.738 
L 304.232727 148.64445 
L 314.705455 150.30765 
L 325.178182 155.29725 
L 335.650909 159.03945 
L 346.123636 158.5197 
L 356.596364 157.79205 
L 367.069091 161.32635 
L 377.541818 162.78165 
L 388.014545 154.1538 
L 398.487273 141.57585 
" style="fill:none;stroke:#ffb100;stroke-linecap:square;stroke-width:1.5;"/>
   </g>
   <g id="line2d_27">
    <path clip-path="url(#pf719a5c297)" d="M 73.832727 181.28475 
L 84.305455 190.9521 
L 94.778182 195.21405 
L 105.250909 193.96665 
L 115.723636 189.18495 
L 126.196364 188.56125 
L 136.669091 197.70885 
L 147.141818 211.3263 
L 157.614545 219.12255 
L 168.087273 216.00405 
L 178.56 206.85645 
L 189.032727 195.42195 
L 199.505455 177.2307 
L 209.978182 153.84195 
L 220.450909 136.6902 
L 230.923636 133.5717 
L 241.396364 137.20995 
L 251.869091 136.0665 
L 262.341818 129.93345 
L 272.814545 126.5031 
L 283.287273 129.30975 
L 293.76 135.8586 
L 304.232727 144.69435 
L 314.705455 156.54465 
L 325.178182 169.9542 
L 335.650909 182.844 
L 346.123636 196.9812 
L 356.596364 212.3658 
L 367.069091 223.5924 
L 377.541818 227.02275 
L 388.014545 221.82525 
L 398.487273 208.72755 
" style="fill:none;stroke:#ffcf00;stroke-linecap:square;stroke-width:1.5;"/>
   </g>
   <g id="line2d_28">
    <path clip-path="url(#pf719a5c297)" d="M 73.832727 168.39495 
L 84.305455 184.7151 
L 94.778182 191.7837 
L 105.250909 188.35335 
L 115.723636 179.20575 
L 126.196364 173.2806 
L 136.669091 180.5571 
L 147.141818 200.0997 
L 157.614545 217.9791 
L 168.087273 225.4635 
L 178.56 225.8793 
L 189.032727 223.5924 
L 199.505455 218.49885 
L 209.978182 206.9604 
L 220.450909 190.1205 
L 230.923636 175.3596 
L 241.396364 167.6673 
L 251.869091 164.9646 
L 262.341818 162.78165 
L 272.814545 157.896 
L 283.287273 148.5405 
L 293.76 132.63615 
L 304.232727 110.39085 
L 314.705455 89.289 
L 325.178182 77.54265 
L 335.650909 74.00835 
L 346.123636 71.72145 
L 356.596364 67.8753 
L 367.069091 66.73185 
L 377.541818 72.657 
L 388.014545 81.70065 
L 398.487273 87.10605 
" style="fill:none;stroke:#ffec00;stroke-linecap:square;stroke-width:1.5;"/>
   </g>
   <g id="line2d_29">
    <path clip-path="url(#pf719a5c297)" d="M 73.832727 161.6382 
L 84.305455 168.7068 
L 94.778182 167.35545 
L 105.250909 159.03945 
L 115.723636 155.50515 
L 126.196364 165.1725 
L 136.669091 186.7941 
L 147.141818 212.46975 
L 157.614545 231.38865 
L 168.087273 238.1454 
L 178.56 234.29925 
L 189.032727 227.23065 
L 199.505455 225.8793 
L 209.978182 229.6215 
L 220.450909 232.01235 
L 230.923636 229.51755 
L 241.396364 223.90425 
L 251.869091 217.7712 
L 262.341818 212.1579 
L 272.814545 207.1683 
L 283.287273 202.28265 
L 293.76 194.79825 
L 304.232727 184.19535 
L 314.705455 175.9833 
L 325.178182 173.6964 
L 335.650909 172.2411 
L 346.123636 165.90015 
L 356.596364 158.20785 
L 367.069091 153.3222 
L 377.541818 145.52595 
L 388.014545 134.50725 
L 398.487273 129.6216 
" style="fill:none;stroke:#eeff00;stroke-linecap:square;stroke-width:1.5;"/>
   </g>
   <g id="line2d_30">
    <path clip-path="url(#pf719a5c297)" d="M 73.832727 137.62575 
L 84.305455 117.87525 
L 94.778182 114.237 
L 105.250909 133.25985 
L 115.723636 161.4303 
L 126.196364 181.8045 
L 136.669091 193.6548 
L 147.141818 205.81695 
L 157.614545 218.70675 
L 168.087273 225.6714 
L 178.56 222.03315 
L 189.032727 209.14335 
L 199.505455 193.6548 
L 209.978182 184.40325 
L 220.450909 185.44275 
L 230.923636 192.51135 
L 241.396364 195.42195 
L 251.869091 187.52175 
L 262.341818 170.9937 
L 272.814545 154.88145 
L 283.287273 144.27855 
L 293.76 138.45735 
L 304.232727 137.5218 
L 314.705455 143.7588 
L 325.178182 153.3222 
L 335.650909 155.71305 
L 346.123636 150.6195 
L 356.596364 147.81285 
L 367.069091 150.30765 
L 377.541818 151.97085 
L 388.014545 149.06025 
L 398.487273 146.14965 
" style="fill:none;stroke:#d1ff00;stroke-linecap:square;stroke-width:1.5;"/>
   </g>
   <g id="line2d_31">
    <path clip-path="url(#pf719a5c297)" d="M 73.832727 155.92095 
L 84.305455 170.1621 
L 94.778182 166.52385 
L 105.250909 166.6278 
L 115.723636 173.2806 
L 126.196364 179.62155 
L 136.669091 188.56125 
L 147.141818 203.11425 
L 157.614545 216.21195 
L 168.087273 217.04355 
L 178.56 206.02485 
L 189.032727 190.5363 
L 199.505455 172.55295 
L 209.978182 153.63405 
L 220.450909 136.4823 
L 230.923636 124.632 
L 241.396364 124.4241 
L 251.869091 137.3139 
L 262.341818 156.12885 
L 272.814545 170.47395 
L 283.287273 173.2806 
L 293.76 166.8357 
L 304.232727 159.03945 
L 314.705455 153.63405 
L 325.178182 149.06025 
L 335.650909 144.1746 
L 346.123636 140.8482 
L 356.596364 139.6008 
L 367.069091 137.00205 
L 377.541818 129.30975 
L 388.014545 116.5239 
L 398.487273 102.8025 
" style="fill:none;stroke:#b3ff00;stroke-linecap:square;stroke-width:1.5;"/>
   </g>
   <g id="line2d_32">
    <path clip-path="url(#pf719a5c297)" d="M 73.832727 97.91685 
L 84.305455 112.5738 
L 94.778182 131.7006 
L 105.250909 147.2931 
L 115.723636 155.50515 
L 126.196364 160.8066 
L 136.669091 172.13715 
L 147.141818 194.38245 
L 157.614545 223.90425 
L 168.087273 253.42605 
L 178.56 276.29505 
L 189.032727 283.6755 
L 199.505455 271.72125 
L 209.978182 254.88135 
L 220.450909 252.38655 
L 230.923636 264.65265 
L 241.396364 275.1516 
L 251.869091 270.3699 
L 262.341818 251.2431 
L 272.814545 225.2556 
L 283.287273 198.33255 
L 293.76 173.0727 
L 304.232727 155.29725 
L 314.705455 151.2432 
L 325.178182 155.08935 
L 335.650909 155.6091 
L 346.123636 153.738 
L 356.596364 152.6985 
L 367.069091 144.90225 
L 377.541818 127.9584 
L 388.014545 110.39085 
L 398.487273 101.45115 
" style="fill:none;stroke:#96ff00;stroke-linecap:square;stroke-width:1.5;"/>
   </g>
   <g id="line2d_33">
    <path clip-path="url(#pf719a5c297)" d="M 73.832727 185.9625 
L 84.305455 178.686 
L 94.778182 169.7463 
L 105.250909 157.79205 
L 115.723636 148.85235 
L 126.196364 153.84195 
L 136.669091 176.29515 
L 147.141818 204.98535 
L 157.614545 223.8003 
L 168.087273 226.9188 
L 178.56 223.69635 
L 189.032727 225.15165 
L 199.505455 233.5716 
L 209.978182 242.82315 
L 220.450909 245.94165 
L 230.923636 242.40735 
L 241.396364 234.92295 
L 251.869091 225.35955 
L 262.341818 214.13295 
L 272.814545 200.5155 
L 283.287273 183.36375 
L 293.76 166.31595 
L 304.232727 157.58415 
L 314.705455 162.78165 
L 325.178182 175.46355 
L 335.650909 180.66105 
L 346.123636 169.64235 
L 356.596364 147.39705 
L 367.069091 127.5426 
L 377.541818 116.21205 
L 388.014545 111.1185 
L 398.487273 107.89605 
" style="fill:none;stroke:#78ff00;stroke-linecap:square;stroke-width:1.5;"/>
   </g>
   <g id="line2d_34">
    <path clip-path="url(#pf719a5c297)" d="M 73.832727 19.8504 
L 84.305455 32.5323 
L 94.778182 73.80045 
L 105.250909 132.42825 
L 115.723636 180.5571 
L 126.196364 202.28265 
L 136.669091 206.5446 
L 147.141818 211.84605 
L 157.614545 225.4635 
L 168.087273 237.3138 
L 178.56 238.04145 
L 189.032727 231.38865 
L 199.505455 224.424 
L 209.978182 219.95415 
L 220.450909 218.6028 
L 230.923636 218.8107 
L 241.396364 215.6922 
L 251.869091 203.53005 
L 262.341818 184.40325 
L 272.814545 165.06855 
L 283.287273 148.1247 
L 293.76 132.7401 
L 304.232727 118.395 
L 314.705455 107.89605 
L 325.178182 103.2183 
L 335.650909 98.95635 
L 346.123636 89.9127 
L 356.596364 84.2994 
L 367.069091 92.92725 
L 377.541818 114.6528 
L 388.014545 139.6008 
L 398.487273 160.07895 
" style="fill:none;stroke:#5bff00;stroke-linecap:square;stroke-width:1.5;"/>
   </g>
   <g id="line2d_35">
    <path clip-path="url(#pf719a5c297)" d="M 73.832727 130.0374 
L 84.305455 146.56545 
L 94.778182 169.7463 
L 105.250909 187.72965 
L 115.723636 193.34295 
L 126.196364 190.84815 
L 136.669091 192.30345 
L 147.141818 203.32215 
L 157.614545 215.6922 
L 168.087273 217.1475 
L 178.56 202.3866 
L 189.032727 181.70055 
L 199.505455 172.96875 
L 209.978182 178.78995 
L 220.450909 183.8835 
L 230.923636 176.8149 
L 241.396364 162.8856 
L 251.869091 153.84195 
L 262.341818 153.1143 
L 272.814545 158.7276 
L 283.287273 167.8752 
L 293.76 175.3596 
L 304.232727 174.21615 
L 314.705455 162.78165 
L 325.178182 145.6299 
L 335.650909 129.2058 
L 346.123636 114.75675 
L 356.596364 99.37215 
L 367.069091 82.8441 
L 377.541818 67.77135 
L 388.014545 56.4408 
L 398.487273 52.17885 
" style="fill:none;stroke:#3dff00;stroke-linecap:square;stroke-width:1.5;"/>
   </g>
   <g id="line2d_36">
    <path clip-path="url(#pf719a5c297)" d="M 73.832727 71.92935 
L 84.305455 96.3576 
L 94.778182 126.60705 
L 105.250909 151.76295 
L 115.723636 163.61325 
L 126.196364 166.93965 
L 136.669091 175.3596 
L 147.141818 195.83775 
L 157.614545 218.49885 
L 168.087273 226.81485 
L 178.56 221.5134 
L 189.032727 219.6423 
L 199.505455 226.39905 
L 209.978182 229.6215 
L 220.450909 219.2265 
L 230.923636 201.65895 
L 241.396364 192.4074 
L 251.869091 194.59035 
L 262.341818 196.04565 
L 272.814545 184.81905 
L 283.287273 166.73175 
L 293.76 157.6881 
L 304.232727 161.4303 
L 314.705455 166.31595 
L 325.178182 163.9251 
L 335.650909 157.6881 
L 346.123636 153.9459 
L 356.596364 153.3222 
L 367.069091 148.64445 
L 377.541818 137.106 
L 388.014545 126.9189 
L 398.487273 125.6715 
" style="fill:none;stroke:#20ff00;stroke-linecap:square;stroke-width:1.5;"/>
   </g>
   <g id="line2d_37">
    <path clip-path="url(#pf719a5c297)" d="M 73.832727 144.5904 
L 84.305455 141.57585 
L 94.778182 141.16005 
L 105.250909 144.3825 
L 115.723636 150.93135 
L 126.196364 159.975 
L 136.669091 177.2307 
L 147.141818 207.5841 
L 157.614545 242.7192 
L 168.087273 268.81065 
L 178.56 279.3096 
L 189.032727 274.1121 
L 199.505455 257.4801 
L 209.978182 242.19945 
L 220.450909 236.17035 
L 230.923636 230.8689 
L 241.396364 210.4947 
L 251.869091 172.449 
L 262.341818 133.3638 
L 272.814545 111.63825 
L 283.287273 109.55925 
L 293.76 121.61745 
L 304.232727 144.07065 
L 314.705455 169.5384 
L 325.178182 187.31385 
L 335.650909 189.80865 
L 346.123636 179.62155 
L 356.596364 166.52385 
L 367.069091 160.28685 
L 377.541818 164.65275 
L 388.014545 172.55295 
L 398.487273 168.9147 
" style="fill:none;stroke:#04ff08;stroke-linecap:square;stroke-width:1.5;"/>
   </g>
   <g id="line2d_38">
    <path clip-path="url(#pf719a5c297)" d="M 73.832727 173.4885 
L 84.305455 190.9521 
L 94.778182 194.4864 
L 105.250909 189.4968 
L 115.723636 184.2993 
L 126.196364 187.31385 
L 136.669091 199.0602 
L 147.141818 211.63815 
L 157.614545 218.8107 
L 168.087273 218.91465 
L 178.56 212.1579 
L 189.032727 201.45105 
L 199.505455 191.9916 
L 209.978182 190.5363 
L 220.450909 198.0207 
L 230.923636 206.7525 
L 241.396364 205.60905 
L 251.869091 189.081 
L 262.341818 168.0831 
L 272.814545 159.3513 
L 283.287273 166.93965 
L 293.76 178.78995 
L 304.232727 179.20575 
L 314.705455 168.0831 
L 325.178182 159.1434 
L 335.650909 162.054 
L 346.123636 170.5779 
L 356.596364 174.21615 
L 367.069091 170.68185 
L 377.541818 165.1725 
L 388.014545 162.98955 
L 398.487273 163.7172 
" style="fill:none;stroke:#00ff21;stroke-linecap:square;stroke-width:1.5;"/>
   </g>
   <g id="line2d_39">
    <path clip-path="url(#pf719a5c297)" d="M 73.832727 148.02075 
L 84.305455 156.54465 
L 94.778182 162.36585 
L 105.250909 164.7567 
L 115.723636 166.8357 
L 126.196364 173.17665 
L 136.669091 186.7941 
L 147.141818 208.4157 
L 157.614545 232.3242 
L 168.087273 251.97075 
L 178.56 264.86055 
L 189.032727 268.2909 
L 199.505455 258.7275 
L 209.978182 239.1849 
L 220.450909 219.74625 
L 230.923636 208.6236 
L 241.396364 204.98535 
L 251.869091 203.8419 
L 262.341818 203.32215 
L 272.814545 203.11425 
L 283.287273 199.99575 
L 293.76 190.5363 
L 304.232727 179.62155 
L 314.705455 173.4885 
L 325.178182 167.6673 
L 335.650909 154.67355 
L 346.123636 137.41785 
L 356.596364 126.711 
L 367.069091 127.23075 
L 377.541818 132.3243 
L 388.014545 134.50725 
L 398.487273 130.869 
" style="fill:none;stroke:#00ff3f;stroke-linecap:square;stroke-width:1.5;"/>
   </g>
   <g id="line2d_40">
    <path clip-path="url(#pf719a5c297)" d="M 73.832727 91.7838 
L 84.305455 111.43035 
L 94.778182 129.10185 
L 105.250909 141.16005 
L 115.723636 150.4116 
L 126.196364 163.9251 
L 136.669091 184.40325 
L 147.141818 206.9604 
L 157.614545 224.424 
L 168.087273 230.4531 
L 178.56 224.6319 
L 189.032727 213.30135 
L 199.505455 203.2182 
L 209.978182 195.42195 
L 220.450909 187.4178 
L 230.923636 177.8544 
L 241.396364 169.22655 
L 251.869091 162.57375 
L 262.341818 153.84195 
L 272.814545 140.32845 
L 283.287273 127.23075 
L 293.76 117.04365 
L 304.232727 107.27235 
L 314.705455 101.65905 
L 325.178182 103.11435 
L 335.650909 104.15385 
L 346.123636 98.54055 
L 356.596364 89.60085 
L 367.069091 88.6653 
L 377.541818 102.5946 
L 388.014545 122.65695 
L 398.487273 133.46775 
" style="fill:none;stroke:#00ff5c;stroke-linecap:square;stroke-width:1.5;"/>
   </g>
   <g id="line2d_41">
    <path clip-path="url(#pf719a5c297)" d="M 73.832727 182.74005 
L 84.305455 182.53215 
L 94.778182 172.13715 
L 105.250909 162.6777 
L 115.723636 164.44485 
L 126.196364 178.58205 
L 136.669091 198.2286 
L 147.141818 213.4053 
L 157.614545 218.29095 
L 168.087273 215.0685 
L 178.56 209.2473 
L 189.032727 204.98535 
L 199.505455 202.3866 
L 209.978182 203.634 
L 220.450909 207.792 
L 230.923636 207.68805 
L 241.396364 199.476 
L 251.869091 189.4968 
L 262.341818 185.02695 
L 272.814545 185.23485 
L 283.287273 180.5571 
L 293.76 164.9646 
L 304.232727 144.7983 
L 314.705455 131.80455 
L 325.178182 126.60705 
L 335.650909 120.8898 
L 346.123636 111.5343 
L 356.596364 103.11435 
L 367.069091 96.7734 
L 377.541818 91.67985 
L 388.014545 90.64035 
L 398.487273 95.1102 
" style="fill:none;stroke:#00ff7a;stroke-linecap:square;stroke-width:1.5;"/>
   </g>
   <g id="line2d_42">
    <path clip-path="url(#pf719a5c297)" d="M 73.832727 181.5966 
L 84.305455 189.7047 
L 94.778182 180.66105 
L 105.250909 161.4303 
L 115.723636 152.17875 
L 126.196364 165.3804 
L 136.669091 191.88765 
L 147.141818 212.1579 
L 157.614545 215.2764 
L 168.087273 205.0893 
L 178.56 190.84815 
L 189.032727 179.1018 
L 199.505455 174.42405 
L 209.978182 179.9334 
L 220.450909 193.0311 
L 230.923636 205.40115 
L 241.396364 211.1184 
L 251.869091 211.43025 
L 262.341818 210.2868 
L 272.814545 209.55915 
L 283.287273 208.31175 
L 293.76 209.0394 
L 304.232727 212.46975 
L 314.705455 211.5342 
L 325.178182 200.3076 
L 335.650909 183.6756 
L 346.123636 170.37 
L 356.596364 160.8066 
L 367.069091 151.0353 
L 377.541818 139.3929 
L 388.014545 126.81495 
L 398.487273 116.41995 
" style="fill:none;stroke:#00ff97;stroke-linecap:square;stroke-width:1.5;"/>
   </g>
   <g id="line2d_43">
    <path clip-path="url(#pf719a5c297)" d="M 73.832727 160.28685 
L 84.305455 162.2619 
L 94.778182 168.291 
L 105.250909 178.37415 
L 115.723636 190.3284 
L 126.196364 198.54045 
L 136.669091 202.5945 
L 147.141818 208.8315 
L 157.614545 217.9791 
L 168.087273 220.78575 
L 178.56 214.2369 
L 189.032727 204.15375 
L 199.505455 196.1496 
L 209.978182 191.47185 
L 220.450909 189.2889 
L 230.923636 187.6257 
L 241.396364 182.53215 
L 251.869091 171.72135 
L 262.341818 156.96045 
L 272.814545 144.1746 
L 283.287273 138.45735 
L 293.76 136.6902 
L 304.232727 137.7297 
L 314.705455 143.23905 
L 325.178182 148.64445 
L 335.650909 148.1247 
L 346.123636 141.264 
L 356.596364 130.0374 
L 367.069091 116.83575 
L 377.541818 108.51975 
L 388.014545 110.079 
L 398.487273 119.8503 
" style="fill:none;stroke:#00ffb5;stroke-linecap:square;stroke-width:1.5;"/>
   </g>
   <g id="line2d_44">
    <path clip-path="url(#pf719a5c297)" d="M 73.832727 172.13715 
L 84.305455 186.89805 
L 94.778182 195.1101 
L 105.250909 196.87725 
L 115.723636 192.4074 
L 126.196364 188.2494 
L 136.669091 193.34295 
L 147.141818 206.64855 
L 157.614545 216.9396 
L 168.087273 214.4448 
L 178.56 202.28265 
L 189.032727 190.01655 
L 199.505455 184.2993 
L 209.978182 183.2598 
L 220.450909 180.03735 
L 230.923636 172.0332 
L 241.396364 162.57375 
L 251.869091 156.2328 
L 262.341818 151.0353 
L 272.814545 145.6299 
L 283.287273 143.03115 
L 293.76 141.0561 
L 304.232727 137.5218 
L 314.705455 136.79415 
L 325.178182 142.3035 
L 335.650909 151.13925 
L 346.123636 158.41575 
L 356.596364 158.83155 
L 367.069091 151.13925 
L 377.541818 144.1746 
L 388.014545 144.48645 
L 398.487273 146.8773 
" style="fill:none;stroke:#00ffd3;stroke-linecap:square;stroke-width:1.5;"/>
   </g>
   <g id="line2d_45">
    <path clip-path="url(#pf719a5c297)" d="M 73.832727 147.39705 
L 84.305455 150.4116 
L 94.778182 160.07895 
L 105.250909 168.18705 
L 115.723636 171.4095 
L 126.196364 176.8149 
L 136.669091 190.84815 
L 147.141818 208.6236 
L 157.614545 215.0685 
L 168.087273 204.2577 
L 178.56 188.35335 
L 189.032727 180.9729 
L 199.505455 182.4282 
L 209.978182 184.923 
L 220.450909 182.32425 
L 230.923636 177.54255 
L 241.396364 179.5176 
L 251.869091 187.31385 
L 262.341818 190.84815 
L 272.814545 185.65065 
L 283.287273 176.1912 
L 293.76 166.4199 
L 304.232727 157.79205 
L 314.705455 152.9064 
L 325.178182 151.76295 
L 335.650909 148.9563 
L 346.123636 140.32845 
L 356.596364 131.18085 
L 367.069091 128.47815 
L 377.541818 129.2058 
L 388.014545 127.9584 
L 398.487273 125.56755 
" style="fill:none;stroke:#00fff6;stroke-linecap:square;stroke-width:1.5;"/>
   </g>
   <g id="line2d_46">
    <path clip-path="url(#pf719a5c297)" d="M 73.832727 134.6112 
L 84.305455 140.4324 
L 94.778182 153.21825 
L 105.250909 169.9542 
L 115.723636 181.28475 
L 126.196364 186.27435 
L 136.669091 192.30345 
L 147.141818 203.32215 
L 157.614545 214.54875 
L 168.087273 220.0581 
L 178.56 222.03315 
L 189.032727 224.2161 
L 199.505455 227.02275 
L 209.978182 228.7899 
L 220.450909 227.1267 
L 230.923636 222.65685 
L 241.396364 219.53835 
L 251.869091 217.25145 
L 262.341818 211.63815 
L 272.814545 202.5945 
L 283.287273 193.55085 
L 293.76 187.10595 
L 304.232727 183.15585 
L 314.705455 179.20575 
L 325.178182 173.59245 
L 335.650909 169.7463 
L 346.123636 169.3305 
L 356.596364 169.9542 
L 367.069091 170.05815 
L 377.541818 166.6278 
L 388.014545 157.2723 
L 398.487273 146.98125 
" style="fill:none;stroke:#00eaff;stroke-linecap:square;stroke-width:1.5;"/>
   </g>
   <g id="line2d_47">
    <path clip-path="url(#pf719a5c297)" d="M 73.832727 157.16835 
L 84.305455 164.65275 
L 94.778182 178.78995 
L 105.250909 192.4074 
L 115.723636 197.50095 
L 126.196364 196.66935 
L 136.669091 198.0207 
L 147.141818 204.4656 
L 157.614545 214.54875 
L 168.087273 227.43855 
L 178.56 239.6007 
L 189.032727 244.3824 
L 199.505455 239.49675 
L 209.978182 230.8689 
L 220.450909 226.7109 
L 230.923636 230.34915 
L 241.396364 236.6901 
L 251.869091 237.5217 
L 262.341818 227.9583 
L 272.814545 206.7525 
L 283.287273 177.4386 
L 293.76 153.738 
L 304.232727 148.5405 
L 314.705455 155.50515 
L 325.178182 158.20785 
L 335.650909 149.9958 
L 346.123636 136.0665 
L 356.596364 124.11225 
L 367.069091 118.8108 
L 377.541818 122.1372 
L 388.014545 132.5322 
L 398.487273 143.03115 
" style="fill:none;stroke:#00cdff;stroke-linecap:square;stroke-width:1.5;"/>
   </g>
   <g id="line2d_48">
    <path clip-path="url(#pf719a5c297)" d="M 73.832727 191.5758 
L 84.305455 176.91885 
L 94.778182 157.4802 
L 105.250909 144.7983 
L 115.723636 144.07065 
L 126.196364 155.4012 
L 136.669091 176.3991 
L 147.141818 200.41155 
L 157.614545 219.74625 
L 168.087273 230.34915 
L 178.56 234.29925 
L 189.032727 237.9375 
L 199.505455 244.7982 
L 209.978182 251.0352 
L 220.450909 249.5799 
L 230.923636 236.37825 
L 241.396364 217.1475 
L 251.869091 201.7629 
L 262.341818 194.17455 
L 272.814545 188.35335 
L 283.287273 181.3887 
L 293.76 177.4386 
L 304.232727 178.16625 
L 314.705455 178.8939 
L 325.178182 175.46355 
L 335.650909 167.6673 
L 346.123636 158.83155 
L 356.596364 151.8669 
L 367.069091 147.0852 
L 377.541818 140.53635 
L 388.014545 127.1268 
L 398.487273 110.2869 
" style="fill:none;stroke:#00afff;stroke-linecap:square;stroke-width:1.5;"/>
   </g>
   <g id="line2d_49">
    <path clip-path="url(#pf719a5c297)" d="M 73.832727 149.9958 
L 84.305455 151.2432 
L 94.778182 164.23695 
L 105.250909 178.2702 
L 115.723636 182.11635 
L 126.196364 177.75045 
L 136.669091 176.71095 
L 147.141818 189.18495 
L 157.614545 214.34085 
L 168.087273 239.1849 
L 178.56 250.8273 
L 189.032727 246.0456 
L 199.505455 231.18075 
L 209.978182 215.17245 
L 220.450909 203.11425 
L 230.923636 196.87725 
L 241.396364 196.66935 
L 251.869091 197.8128 
L 262.341818 193.75875 
L 272.814545 183.2598 
L 283.287273 171.30555 
L 293.76 161.32635 
L 304.232727 153.01035 
L 314.705455 149.3721 
L 325.178182 157.0644 
L 335.650909 176.607 
L 346.123636 199.0602 
L 356.596364 212.9895 
L 367.069091 212.5737 
L 377.541818 203.0103 
L 388.014545 197.8128 
L 398.487273 206.3367 
" style="fill:none;stroke:#0092ff;stroke-linecap:square;stroke-width:1.5;"/>
   </g>
   <g id="line2d_50">
    <path clip-path="url(#pf719a5c297)" d="M 73.832727 156.33675 
L 84.305455 146.35755 
L 94.778182 141.78375 
L 105.250909 143.5509 
L 115.723636 147.18915 
L 126.196364 153.42615 
L 136.669091 168.39495 
L 147.141818 192.6153 
L 157.614545 215.17245 
L 168.087273 222.24105 
L 178.56 212.46975 
L 189.032727 198.0207 
L 199.505455 191.05605 
L 209.978182 193.6548 
L 220.450909 198.4365 
L 230.923636 197.8128 
L 241.396364 191.67975 
L 251.869091 184.19535 
L 262.341818 175.3596 
L 272.814545 160.91055 
L 283.287273 141.6798 
L 293.76 128.89395 
L 304.232727 131.38875 
L 314.705455 145.73385 
L 325.178182 157.0644 
L 335.650909 155.1933 
L 346.123636 145.2141 
L 356.596364 141.264 
L 367.069091 147.81285 
L 377.541818 156.75255 
L 388.014545 158.9355 
L 398.487273 150.4116 
" style="fill:none;stroke:#0074ff;stroke-linecap:square;stroke-width:1.5;"/>
   </g>
   <g id="line2d_51">
    <path clip-path="url(#pf719a5c297)" d="M 73.832727 149.06025 
L 84.305455 169.5384 
L 94.778182 178.4781 
L 105.250909 179.41365 
L 115.723636 181.28475 
L 126.196364 187.6257 
L 136.669091 197.08515 
L 147.141818 207.3762 
L 157.614545 215.79615 
L 168.087273 219.4344 
L 178.56 219.6423 
L 189.032727 220.6818 
L 199.505455 223.90425 
L 209.978182 226.81485 
L 220.450909 225.4635 
L 230.923636 218.49885 
L 241.396364 208.4157 
L 251.869091 201.9708 
L 262.341818 202.49055 
L 272.814545 204.0498 
L 283.287273 197.397 
L 293.76 184.7151 
L 304.232727 178.686 
L 314.705455 183.4677 
L 325.178182 186.3783 
L 335.650909 173.59245 
L 346.123636 148.1247 
L 356.596364 125.56755 
L 367.069091 116.83575 
L 377.541818 118.91475 
L 388.014545 120.99375 
L 398.487273 115.9002 
" style="fill:none;stroke:#0057ff;stroke-linecap:square;stroke-width:1.5;"/>
   </g>
   <g id="line2d_52">
    <path clip-path="url(#pf719a5c297)" d="M 73.832727 145.52595 
L 84.305455 143.65485 
L 94.778182 148.3326 
L 105.250909 161.2224 
L 115.723636 173.0727 
L 126.196364 180.1413 
L 136.669091 190.01655 
L 147.141818 206.9604 
L 157.614545 225.6714 
L 168.087273 239.28885 
L 178.56 242.3034 
L 189.032727 232.22025 
L 199.505455 217.1475 
L 209.978182 207.5841 
L 220.450909 200.3076 
L 230.923636 187.72965 
L 241.396364 173.4885 
L 251.869091 166.0041 
L 262.341818 165.90015 
L 272.814545 168.60285 
L 283.287273 169.01865 
L 293.76 162.8856 
L 304.232727 152.0748 
L 314.705455 144.69435 
L 325.178182 144.7983 
L 335.650909 151.0353 
L 346.123636 160.49475 
L 356.596364 169.22655 
L 367.069091 173.38455 
L 377.541818 170.47395 
L 388.014545 163.7172 
L 398.487273 158.5197 
" style="fill:none;stroke:#0039ff;stroke-linecap:square;stroke-width:1.5;"/>
   </g>
   <g id="line2d_53">
    <path clip-path="url(#pf719a5c297)" d="M 73.832727 207.89595 
L 84.305455 199.57995 
L 94.778182 172.13715 
L 105.250909 141.4719 
L 115.723636 122.03325 
L 126.196364 122.86485 
L 136.669091 148.1247 
L 147.141818 187.002 
L 157.614545 214.96455 
L 168.087273 219.4344 
L 178.56 212.88555 
L 189.032727 212.05395 
L 199.505455 219.6423 
L 209.978182 225.77535 
L 220.450909 222.345 
L 230.923636 212.05395 
L 241.396364 203.32215 
L 251.869091 199.8918 
L 262.341818 197.50095 
L 272.814545 193.239 
L 283.287273 188.14545 
L 293.76 182.94795 
L 304.232727 179.82945 
L 314.705455 180.03735 
L 325.178182 181.70055 
L 335.650909 183.98745 
L 346.123636 186.1704 
L 356.596364 184.40325 
L 367.069091 176.3991 
L 377.541818 165.7962 
L 388.014545 157.6881 
L 398.487273 152.6985 
" style="fill:none;stroke:#001cff;stroke-linecap:square;stroke-width:1.5;"/>
   </g>
   <g id="line2d_54">
    <path clip-path="url(#pf719a5c297)" d="M 73.832727 182.4282 
L 84.305455 189.18495 
L 94.778182 197.8128 
L 105.250909 206.44065 
L 115.723636 209.6631 
L 126.196364 206.7525 
L 136.669091 204.6735 
L 147.141818 211.01445 
L 157.614545 224.0082 
L 168.087273 234.92295 
L 178.56 236.4822 
L 189.032727 226.19115 
L 199.505455 210.80655 
L 209.978182 198.8523 
L 220.450909 190.22445 
L 230.923636 180.24525 
L 241.396364 167.14755 
L 251.869091 156.8565 
L 262.341818 159.1434 
L 272.814545 173.9043 
L 283.287273 185.9625 
L 293.76 182.2203 
L 304.232727 166.8357 
L 314.705455 154.9854 
L 325.178182 153.5301 
L 335.650909 160.3908 
L 346.123636 171.51345 
L 356.596364 179.7255 
L 367.069091 177.4386 
L 377.541818 169.22655 
L 388.014545 166.31595 
L 398.487273 170.7858 
" style="fill:none;stroke:#0800ff;stroke-linecap:square;stroke-width:1.5;"/>
   </g>
   <g id="line2d_55">
    <path clip-path="url(#pf719a5c297)" d="M 73.832727 146.98125 
L 84.305455 149.1642 
L 94.778182 145.52595 
L 105.250909 140.4324 
L 115.723636 144.1746 
L 126.196364 160.49475 
L 136.669091 184.40325 
L 147.141818 205.60905 
L 157.614545 214.029 
L 168.087273 207.27225 
L 178.56 191.47185 
L 189.032727 177.12675 
L 199.505455 171.4095 
L 209.978182 174.00825 
L 220.450909 178.4781 
L 230.923636 179.1018 
L 241.396364 175.9833 
L 251.869091 170.68185 
L 262.341818 162.36585 
L 272.814545 150.8274 
L 283.287273 139.91265 
L 293.76 136.6902 
L 304.232727 140.2245 
L 314.705455 140.74425 
L 325.178182 131.0769 
L 335.650909 116.41995 
L 346.123636 108 
L 356.596364 111.9501 
L 367.069091 122.1372 
L 377.541818 127.43865 
L 388.014545 128.5821 
L 398.487273 136.37835 
" style="fill:none;stroke:#2500ff;stroke-linecap:square;stroke-width:1.5;"/>
   </g>
   <g id="line2d_56">
    <path clip-path="url(#pf719a5c297)" d="M 73.832727 170.68185 
L 84.305455 167.35545 
L 94.778182 162.98955 
L 105.250909 162.8856 
L 115.723636 169.64235 
L 126.196364 180.765 
L 136.669091 193.55085 
L 147.141818 206.5446 
L 157.614545 213.71715 
L 168.087273 209.6631 
L 178.56 198.12465 
L 189.032727 190.7442 
L 199.505455 192.71925 
L 209.978182 199.78785 
L 220.450909 206.7525 
L 230.923636 210.4947 
L 241.396364 212.7816 
L 251.869091 219.95415 
L 262.341818 231.0768 
L 272.814545 232.42815 
L 283.287273 216.21195 
L 293.76 192.4074 
L 304.232727 177.2307 
L 314.705455 174.3201 
L 325.178182 175.1517 
L 335.650909 175.3596 
L 346.123636 176.50305 
L 356.596364 175.25565 
L 367.069091 168.7068 
L 377.541818 161.95005 
L 388.014545 160.5987 
L 398.487273 161.8461 
" style="fill:none;stroke:#4300ff;stroke-linecap:square;stroke-width:1.5;"/>
   </g>
   <g id="line2d_57">
    <path clip-path="url(#pf719a5c297)" d="M 73.832727 171.51345 
L 84.305455 163.40535 
L 94.778182 151.97085 
L 105.250909 145.8378 
L 115.723636 149.1642 
L 126.196364 158.9355 
L 136.669091 173.6964 
L 147.141818 195.5259 
L 157.614545 217.5633 
L 168.087273 222.1371 
L 178.56 201.7629 
L 189.032727 173.59245 
L 199.505455 160.3908 
L 209.978182 167.8752 
L 220.450909 182.32425 
L 230.923636 189.80865 
L 241.396364 188.35335 
L 251.869091 184.7151 
L 262.341818 186.27435 
L 272.814545 193.34295 
L 283.287273 197.29305 
L 293.76 191.26395 
L 304.232727 180.66105 
L 314.705455 175.04775 
L 325.178182 175.9833 
L 335.650909 179.5176 
L 346.123636 182.2203 
L 356.596364 180.03735 
L 367.069091 171.09765 
L 377.541818 159.03945 
L 388.014545 150.6195 
L 398.487273 149.58 
" style="fill:none;stroke:#6000ff;stroke-linecap:square;stroke-width:1.5;"/>
   </g>
   <g id="line2d_58">
    <path clip-path="url(#pf719a5c297)" d="M 73.832727 164.7567 
L 84.305455 177.6465 
L 94.778182 191.16 
L 105.250909 200.3076 
L 115.723636 201.45105 
L 126.196364 197.29305 
L 136.669091 198.0207 
L 147.141818 208.93545 
L 157.614545 222.5529 
L 168.087273 228.7899 
L 178.56 225.35955 
L 189.032727 214.029 
L 199.505455 197.08515 
L 209.978182 182.53215 
L 220.450909 179.7255 
L 230.923636 190.1205 
L 241.396364 204.77745 
L 251.869091 210.2868 
L 262.341818 200.7234 
L 272.814545 185.85855 
L 283.287273 178.58205 
L 293.76 180.66105 
L 304.232727 181.70055 
L 314.705455 169.22655 
L 325.178182 146.4615 
L 335.650909 132.22035 
L 346.123636 133.9875 
L 356.596364 140.95215 
L 367.069091 142.5114 
L 377.541818 138.7692 
L 388.014545 132.948 
L 398.487273 126.9189 
" style="fill:none;stroke:#7e00ff;stroke-linecap:square;stroke-width:1.5;"/>
   </g>
   <g id="line2d_59">
    <path clip-path="url(#pf719a5c297)" d="M 73.832727 169.1226 
L 84.305455 178.37415 
L 94.778182 194.59035 
L 105.250909 199.16415 
L 115.723636 184.81905 
L 126.196364 170.37 
L 136.669091 177.8544 
L 147.141818 209.14335 
L 157.614545 247.18905 
L 168.087273 270.05805 
L 178.56 269.1225 
L 189.032727 255.50505 
L 199.505455 243.44685 
L 209.978182 233.67555 
L 220.450909 216.9396 
L 230.923636 185.23485 
L 241.396364 145.11015 
L 251.869091 112.67775 
L 262.341818 93.34305 
L 272.814545 83.2599 
L 283.287273 82.11645 
L 293.76 90.43245 
L 304.232727 101.24325 
L 314.705455 105.2973 
L 325.178182 103.94595 
L 335.650909 108.10395 
L 346.123636 123.8004 
L 356.596364 143.343 
L 367.069091 154.67355 
L 377.541818 156.54465 
L 388.014545 160.1829 
L 398.487273 173.17665 
" style="fill:none;stroke:#9b00ff;stroke-linecap:square;stroke-width:1.5;"/>
   </g>
   <g id="line2d_60">
    <path clip-path="url(#pf719a5c297)" d="M 73.832727 133.3638 
L 84.305455 135.54675 
L 94.778182 142.19955 
L 105.250909 161.6382 
L 115.723636 182.4282 
L 126.196364 194.2785 
L 136.669091 200.3076 
L 147.141818 209.2473 
L 157.614545 222.7608 
L 168.087273 232.84395 
L 178.56 230.8689 
L 189.032727 220.6818 
L 199.505455 210.2868 
L 209.978182 197.91675 
L 220.450909 179.82945 
L 230.923636 160.5987 
L 241.396364 148.02075 
L 251.869091 142.19955 
L 262.341818 139.28895 
L 272.814545 138.87315 
L 283.287273 138.04155 
L 293.76 132.7401 
L 304.232727 125.15175 
L 314.705455 117.87525 
L 325.178182 111.43035 
L 335.650909 106.85655 
L 346.123636 104.8815 
L 356.596364 104.15385 
L 367.069091 103.842 
L 377.541818 106.3368 
L 388.014545 109.2474 
L 398.487273 108.4158 
" style="fill:none;stroke:#b900ff;stroke-linecap:square;stroke-width:1.5;"/>
   </g>
   <g id="line2d_61">
    <path clip-path="url(#pf719a5c297)" d="M 73.832727 196.25355 
L 84.305455 175.67145 
L 94.778182 161.8461 
L 105.250909 157.6881 
L 115.723636 157.6881 
L 126.196364 158.41575 
L 136.669091 166.6278 
L 147.141818 188.0415 
L 157.614545 215.58825 
L 168.087273 234.1953 
L 178.56 235.54665 
L 189.032727 224.32005 
L 199.505455 212.9895 
L 209.978182 207.1683 
L 220.450909 201.86685 
L 230.923636 191.7837 
L 241.396364 179.41365 
L 251.869091 173.4885 
L 262.341818 180.3492 
L 272.814545 193.55085 
L 283.287273 199.16415 
L 293.76 191.26395 
L 304.232727 175.87935 
L 314.705455 160.5987 
L 325.178182 146.98125 
L 335.650909 132.3243 
L 346.123636 118.395 
L 356.596364 116.00415 
L 367.069091 130.34925 
L 377.541818 148.7484 
L 388.014545 157.2723 
L 398.487273 155.6091 
" style="fill:none;stroke:#d600ff;stroke-linecap:square;stroke-width:1.5;"/>
   </g>
   <g id="line2d_62">
    <path clip-path="url(#pf719a5c297)" d="M 73.832727 141.264 
L 84.305455 138.45735 
L 94.778182 140.4324 
L 105.250909 147.2931 
L 115.723636 155.6091 
L 126.196364 165.06855 
L 136.669091 179.3097 
L 147.141818 198.54045 
L 157.614545 213.92505 
L 168.087273 212.88555 
L 178.56 197.08515 
L 189.032727 184.40325 
L 199.505455 188.56125 
L 209.978182 205.40115 
L 220.450909 219.4344 
L 230.923636 218.29095 
L 241.396364 203.11425 
L 251.869091 184.5072 
L 262.341818 175.67145 
L 272.814545 177.2307 
L 283.287273 176.71095 
L 293.76 162.98955 
L 304.232727 138.24945 
L 314.705455 114.54885 
L 325.178182 100.5156 
L 335.650909 94.6944 
L 346.123636 93.6549 
L 356.596364 96.46155 
L 367.069091 103.94595 
L 377.541818 115.58835 
L 388.014545 124.2162 
L 398.487273 120.57795 
" style="fill:none;stroke:#f800fd;stroke-linecap:square;stroke-width:1.5;"/>
   </g>
   <g id="line2d_63">
    <path clip-path="url(#pf719a5c297)" d="M 73.832727 166.10805 
L 84.305455 171.09765 
L 94.778182 180.86895 
L 105.250909 192.30345 
L 115.723636 199.78785 
L 126.196364 201.9708 
L 136.669091 203.73795 
L 147.141818 210.80655 
L 157.614545 223.5924 
L 168.087273 233.25975 
L 178.56 228.1662 
L 189.032727 207.9999 
L 199.505455 183.0519 
L 209.978182 159.87105 
L 220.450909 140.95215 
L 230.923636 130.2453 
L 241.396364 130.4532 
L 251.869091 135.96255 
L 262.341818 133.9875 
L 272.814545 120.6819 
L 283.287273 106.7526 
L 293.76 102.3867 
L 304.232727 107.68815 
L 314.705455 117.5634 
L 325.178182 127.1268 
L 335.650909 133.25985 
L 346.123636 134.8191 
L 356.596364 133.05195 
L 367.069091 132.22035 
L 377.541818 136.37835 
L 388.014545 145.6299 
L 398.487273 156.2328 
" style="fill:none;stroke:#ff00e7;stroke-linecap:square;stroke-width:1.5;"/>
   </g>
   <g id="line2d_64">
    <path clip-path="url(#pf719a5c297)" d="M 73.832727 154.88145 
L 84.305455 150.4116 
L 94.778182 143.23905 
L 105.250909 139.185 
L 115.723636 140.8482 
L 126.196364 150.30765 
L 136.669091 170.5779 
L 147.141818 203.8419 
L 157.614545 244.1745 
L 168.087273 275.87925 
L 178.56 287.93745 
L 189.032727 282.636 
L 199.505455 268.9146 
L 209.978182 254.1537 
L 220.450909 243.3429 
L 230.923636 235.96245 
L 241.396364 225.8793 
L 251.869091 202.5945 
L 262.341818 162.054 
L 272.814545 118.70685 
L 283.287273 97.605 
L 293.76 104.56965 
L 304.232727 116.41995 
L 314.705455 111.63825 
L 325.178182 95.9418 
L 335.650909 85.85865 
L 346.123636 82.4283 
L 356.596364 76.1913 
L 367.069091 63.19755 
L 377.541818 46.98135 
L 388.014545 35.13105 
L 398.487273 30.97305 
" style="fill:none;stroke:#ff00c9;stroke-linecap:square;stroke-width:1.5;"/>
   </g>
   <g id="line2d_65">
    <path clip-path="url(#pf719a5c297)" d="M 73.832727 159.45525 
L 84.305455 157.58415 
L 94.778182 159.975 
L 105.250909 160.70265 
L 115.723636 158.7276 
L 126.196364 160.91055 
L 136.669091 176.1912 
L 147.141818 202.1787 
L 157.614545 226.60695 
L 168.087273 240.8481 
L 178.56 244.48635 
L 189.032727 243.7587 
L 199.505455 243.23895 
L 209.978182 239.3928 
L 220.450909 226.2951 
L 230.923636 207.9999 
L 241.396364 198.74835 
L 251.869091 204.15375 
L 262.341818 212.5737 
L 272.814545 206.64855 
L 283.287273 184.2993 
L 293.76 159.7671 
L 304.232727 148.22865 
L 314.705455 153.01035 
L 325.178182 164.9646 
L 335.650909 174.1122 
L 346.123636 178.4781 
L 356.596364 176.91885 
L 367.069091 169.22655 
L 377.541818 160.49475 
L 388.014545 153.21825 
L 398.487273 145.52595 
" style="fill:none;stroke:#ff00ac;stroke-linecap:square;stroke-width:1.5;"/>
   </g>
   <g id="line2d_66">
    <path clip-path="url(#pf719a5c297)" d="M 73.832727 143.1351 
L 84.305455 130.34925 
L 94.778182 129.10185 
L 105.250909 139.6008 
L 115.723636 155.6091 
L 126.196364 171.09765 
L 136.669091 188.0415 
L 147.141818 208.93545 
L 157.614545 232.1163 
L 168.087273 251.8668 
L 178.56 260.91045 
L 189.032727 254.46555 
L 199.505455 235.6506 
L 209.978182 213.92505 
L 220.450909 197.70885 
L 230.923636 189.60075 
L 241.396364 180.9729 
L 251.869091 163.3014 
L 262.341818 141.36795 
L 272.814545 124.632 
L 283.287273 115.38045 
L 293.76 110.7027 
L 304.232727 106.23285 
L 314.705455 102.28275 
L 325.178182 103.4262 
L 335.650909 115.4844 
L 346.123636 138.87315 
L 356.596364 163.7172 
L 367.069091 178.99785 
L 377.541818 183.0519 
L 388.014545 182.844 
L 398.487273 185.5467 
" style="fill:none;stroke:#ff008e;stroke-linecap:square;stroke-width:1.5;"/>
   </g>
   <g id="line2d_67">
    <path clip-path="url(#pf719a5c297)" d="M 73.832727 141.0561 
L 84.305455 152.59455 
L 94.778182 167.2515 
L 105.250909 182.94795 
L 115.723636 195.62985 
L 126.196364 201.86685 
L 136.669091 204.2577 
L 147.141818 210.80655 
L 157.614545 221.0976 
L 168.087273 219.0186 
L 178.56 195.00615 
L 189.032727 160.8066 
L 199.505455 134.8191 
L 209.978182 127.3347 
L 220.450909 138.24945 
L 230.923636 158.83155 
L 241.396364 174.83985 
L 251.869091 176.3991 
L 262.341818 170.5779 
L 272.814545 172.6569 
L 283.287273 182.11635 
L 293.76 187.002 
L 304.232727 183.57165 
L 314.705455 179.3097 
L 325.178182 181.5966 
L 335.650909 189.80865 
L 346.123636 197.6049 
L 356.596364 199.6839 
L 367.069091 194.2785 
L 377.541818 185.02695 
L 388.014545 179.3097 
L 398.487273 177.54255 
" style="fill:none;stroke:#ff0071;stroke-linecap:square;stroke-width:1.5;"/>
   </g>
   <g id="line2d_68">
    <path clip-path="url(#pf719a5c297)" d="M 73.832727 162.57375 
L 84.305455 156.8565 
L 94.778182 156.6486 
L 105.250909 161.74215 
L 115.723636 164.9646 
L 126.196364 165.1725 
L 136.669091 174.3201 
L 147.141818 197.70885 
L 157.614545 222.24105 
L 168.087273 231.0768 
L 178.56 222.5529 
L 189.032727 210.2868 
L 199.505455 205.60905 
L 209.978182 208.2078 
L 220.450909 210.4947 
L 230.923636 206.7525 
L 241.396364 196.5654 
L 251.869091 185.02695 
L 262.341818 177.12675 
L 272.814545 172.76085 
L 283.287273 169.1226 
L 293.76 163.19745 
L 304.232727 151.76295 
L 314.705455 132.5322 
L 325.178182 107.5842 
L 335.650909 85.3389 
L 346.123636 73.2807 
L 356.596364 67.14765 
L 367.069091 57.58425 
L 377.541818 44.5905 
L 388.014545 34.92315 
L 398.487273 31.80465 
" style="fill:none;stroke:#ff0053;stroke-linecap:square;stroke-width:1.5;"/>
   </g>
   <g id="line2d_69">
    <path clip-path="url(#pf719a5c297)" d="M 73.832727 165.48435 
L 84.305455 166.8357 
L 94.778182 182.2203 
L 105.250909 197.70885 
L 115.723636 205.40115 
L 126.196364 207.89595 
L 136.669091 209.14335 
L 147.141818 210.59865 
L 157.614545 214.4448 
L 168.087273 220.99365 
L 178.56 224.0082 
L 189.032727 216.3159 
L 199.505455 201.24315 
L 209.978182 188.97705 
L 220.450909 183.77955 
L 230.923636 180.3492 
L 241.396364 172.6569 
L 251.869091 164.5488 
L 262.341818 164.86065 
L 272.814545 172.449 
L 283.287273 179.20575 
L 293.76 182.4282 
L 304.232727 182.0124 
L 314.705455 175.04775 
L 325.178182 163.61325 
L 335.650909 151.34715 
L 346.123636 138.7692 
L 356.596364 125.56755 
L 367.069091 113.09355 
L 377.541818 104.6736 
L 388.014545 99.78795 
L 398.487273 92.1996 
" style="fill:none;stroke:#ff0035;stroke-linecap:square;stroke-width:1.5;"/>
   </g>
   <g id="line2d_70">
    <path clip-path="url(#pf719a5c297)" d="M 73.832727 152.422495 
L 84.305455 155.910197 
L 94.778182 159.513882 
L 105.250909 162.729931 
L 115.723636 166.335409 
L 126.196364 173.698704 
L 136.669091 188.403277 
L 147.141818 208.608494 
L 157.614545 226.010134 
L 168.087273 232.615823 
L 178.56 227.948059 
L 189.032727 218.362896 
L 199.505455 210.037678 
L 209.978182 204.384949 
L 220.450909 199.232767 
L 230.923636 192.879272 
L 241.396364 185.901564 
L 251.869091 179.50403 
L 262.341818 174.026684 
L 272.814545 168.994327 
L 283.287273 163.813213 
L 293.76 158.257009 
L 304.232727 152.658047 
L 314.705455 147.758315 
L 325.178182 143.770322 
L 335.650909 140.185327 
L 346.123636 136.756769 
L 356.596364 133.653119 
L 367.069091 130.962197 
L 377.541818 128.661727 
L 388.014545 126.788066 
L 398.487273 125.052409 
" style="fill:none;stroke:#000000;stroke-linecap:square;stroke-width:2;"/>
   </g>
   <g id="patch_3">
    <path d="M 57.6 307.584 
L 57.6 41.472 
" style="fill:none;stroke:#000000;stroke-linecap:square;stroke-linejoin:miter;stroke-width:0.8;"/>
   </g>
   <g id="patch_4">
    <path d="M 414.72 307.584 
L 414.72 41.472 
" style="fill:none;stroke:#000000;stroke-linecap:square;stroke-linejoin:miter;stroke-width:0.8;"/>
   </g>
   <g id="patch_5">
    <path d="M 57.6 307.584 
L 414.72 307.584 
" style="fill:none;stroke:#000000;stroke-linecap:square;stroke-linejoin:miter;stroke-width:0.8;"/>
   </g>
   <g id="patch_6">
    <path d="M 57.6 41.472 
L 414.72 41.472 
" style="fill:none;stroke:#000000;stroke-linecap:square;stroke-linejoin:miter;stroke-width:0.8;"/>
   </g>
   <g id="text_21">
    <!-- $V_{rms}=$ 13.059076 -->
    <defs>
     <path d="M 20.609375 0 
L 7.8125 72.90625 
L 17.484375 72.90625 
L 28.078125 10.203125 
L 63.484375 72.90625 
L 74.21875 72.90625 
L 32.078125 0 
z
" id="DejaVuSans-Oblique-56"/>
     <path d="M 44.578125 46.390625 
Q 43.21875 47.125 41.453125 47.515625 
Q 39.703125 47.90625 37.703125 47.90625 
Q 30.515625 47.90625 25.140625 42.453125 
Q 19.78125 37.015625 18.015625 27.875 
L 12.5 0 
L 3.515625 0 
L 14.203125 54.6875 
L 23.1875 54.6875 
L 21.484375 46.1875 
Q 25.046875 50.921875 30 53.453125 
Q 34.96875 56 40.578125 56 
Q 42.046875 56 43.453125 55.828125 
Q 44.875 55.671875 46.296875 55.28125 
z
" id="DejaVuSans-Oblique-72"/>
     <path d="M 89.796875 33.015625 
L 83.40625 0 
L 74.421875 0 
L 80.71875 32.71875 
Q 81.109375 34.8125 81.296875 36.328125 
Q 81.5 37.84375 81.5 38.921875 
Q 81.5 43.3125 79.046875 45.75 
Q 76.609375 48.1875 72.21875 48.1875 
Q 65.671875 48.1875 60.546875 43.28125 
Q 55.421875 38.375 53.90625 30.515625 
L 47.90625 0 
L 38.921875 0 
L 45.3125 32.71875 
Q 45.703125 34.515625 45.890625 36.046875 
Q 46.09375 37.59375 46.09375 38.8125 
Q 46.09375 43.265625 43.65625 45.71875 
Q 41.21875 48.1875 36.921875 48.1875 
Q 30.28125 48.1875 25.140625 43.28125 
Q 20.015625 38.375 18.5 30.515625 
L 12.5 0 
L 3.515625 0 
L 14.203125 54.6875 
L 23.1875 54.6875 
L 21.484375 46.1875 
Q 25.140625 50.984375 30.046875 53.484375 
Q 34.96875 56 40.578125 56 
Q 46.53125 56 50.359375 52.875 
Q 54.203125 49.75 54.984375 44.1875 
Q 59.078125 49.953125 64.46875 52.96875 
Q 69.875 56 75.875 56 
Q 82.90625 56 86.734375 51.953125 
Q 90.578125 47.90625 90.578125 40.484375 
Q 90.578125 38.875 90.375 36.9375 
Q 90.1875 35.015625 89.796875 33.015625 
z
" id="DejaVuSans-Oblique-6d"/>
     <path d="M 50 53.078125 
L 48.296875 44.578125 
Q 44.734375 46.53125 40.765625 47.5 
Q 36.8125 48.484375 32.625 48.484375 
Q 25.53125 48.484375 21.453125 46.0625 
Q 17.390625 43.65625 17.390625 39.5 
Q 17.390625 34.671875 26.859375 32.078125 
Q 27.59375 31.890625 27.9375 31.78125 
L 30.8125 30.90625 
Q 39.796875 28.421875 42.796875 25.6875 
Q 45.796875 22.953125 45.796875 18.21875 
Q 45.796875 9.515625 38.890625 4.046875 
Q 31.984375 -1.421875 20.796875 -1.421875 
Q 16.453125 -1.421875 11.671875 -0.578125 
Q 6.890625 0.25 1.125 2 
L 2.875 11.28125 
Q 7.8125 8.734375 12.59375 7.421875 
Q 17.390625 6.109375 21.78125 6.109375 
Q 28.375 6.109375 32.5 8.9375 
Q 36.625 11.765625 36.625 16.109375 
Q 36.625 20.796875 25.78125 23.6875 
L 24.859375 23.921875 
L 21.78125 24.703125 
Q 14.9375 26.515625 11.765625 29.46875 
Q 8.59375 32.421875 8.59375 37.015625 
Q 8.59375 45.75 15.15625 50.875 
Q 21.734375 56 33.015625 56 
Q 37.453125 56 41.671875 55.265625 
Q 45.90625 54.546875 50 53.078125 
z
" id="DejaVuSans-Oblique-73"/>
     <path d="M 10.59375 45.40625 
L 73.1875 45.40625 
L 73.1875 37.203125 
L 10.59375 37.203125 
z
M 10.59375 25.484375 
L 73.1875 25.484375 
L 73.1875 17.1875 
L 10.59375 17.1875 
z
" id="DejaVuSans-3d"/>
     <path d="M 10.984375 1.515625 
L 10.984375 10.5 
Q 14.703125 8.734375 18.5 7.8125 
Q 22.3125 6.890625 25.984375 6.890625 
Q 35.75 6.890625 40.890625 13.453125 
Q 46.046875 20.015625 46.78125 33.40625 
Q 43.953125 29.203125 39.59375 26.953125 
Q 35.25 24.703125 29.984375 24.703125 
Q 19.046875 24.703125 12.671875 31.3125 
Q 6.296875 37.9375 6.296875 49.421875 
Q 6.296875 60.640625 12.9375 67.421875 
Q 19.578125 74.21875 30.609375 74.21875 
Q 43.265625 74.21875 49.921875 64.515625 
Q 56.59375 54.828125 56.59375 36.375 
Q 56.59375 19.140625 48.40625 8.859375 
Q 40.234375 -1.421875 26.421875 -1.421875 
Q 22.703125 -1.421875 18.890625 -0.6875 
Q 15.09375 0.046875 10.984375 1.515625 
z
M 30.609375 32.421875 
Q 37.25 32.421875 41.125 36.953125 
Q 45.015625 41.5 45.015625 49.421875 
Q 45.015625 57.28125 41.125 61.84375 
Q 37.25 66.40625 30.609375 66.40625 
Q 23.96875 66.40625 20.09375 61.84375 
Q 16.21875 57.28125 16.21875 49.421875 
Q 16.21875 41.5 20.09375 36.953125 
Q 23.96875 32.421875 30.609375 32.421875 
z
" id="DejaVuSans-39"/>
    </defs>
    <g transform="translate(325.178182 163.813213)scale(0.1 -0.1)">
     <use transform="translate(0 0.78125)" xlink:href="#DejaVuSans-Oblique-56"/>
     <use transform="translate(68.408203 -15.625)scale(0.7)" xlink:href="#DejaVuSans-Oblique-72"/>
     <use transform="translate(97.1875 -15.625)scale(0.7)" xlink:href="#DejaVuSans-Oblique-6d"/>
     <use transform="translate(165.375977 -15.625)scale(0.7)" xlink:href="#DejaVuSans-Oblique-73"/>
     <use transform="translate(224.0625 0.78125)" xlink:href="#DejaVuSans-3d"/>
     <use transform="translate(327.333984 0.78125)" xlink:href="#DejaVuSans-20"/>
     <use transform="translate(359.121094 0.78125)" xlink:href="#DejaVuSans-31"/>
     <use transform="translate(422.744141 0.78125)" xlink:href="#DejaVuSans-33"/>
     <use transform="translate(486.367188 0.78125)" xlink:href="#DejaVuSans-2e"/>
     <use transform="translate(518.154297 0.78125)" xlink:href="#DejaVuSans-30"/>
     <use transform="translate(581.777344 0.78125)" xlink:href="#DejaVuSans-35"/>
     <use transform="translate(645.322266 0.78125)" xlink:href="#DejaVuSans-39"/>
     <use transform="translate(708.945312 0.78125)" xlink:href="#DejaVuSans-30"/>
     <use transform="translate(772.568359 0.78125)" xlink:href="#DejaVuSans-37"/>
     <use transform="translate(836.191406 0.78125)" xlink:href="#DejaVuSans-36"/>
    </g>
   </g>
   <g id="text_22">
    <!-- Channel 22 - Unit 1 -->
    <defs>
     <path d="M 64.40625 67.28125 
L 64.40625 56.890625 
Q 59.421875 61.53125 53.78125 63.8125 
Q 48.140625 66.109375 41.796875 66.109375 
Q 29.296875 66.109375 22.65625 58.46875 
Q 16.015625 50.828125 16.015625 36.375 
Q 16.015625 21.96875 22.65625 14.328125 
Q 29.296875 6.6875 41.796875 6.6875 
Q 48.140625 6.6875 53.78125 8.984375 
Q 59.421875 11.28125 64.40625 15.921875 
L 64.40625 5.609375 
Q 59.234375 2.09375 53.4375 0.328125 
Q 47.65625 -1.421875 41.21875 -1.421875 
Q 24.65625 -1.421875 15.125 8.703125 
Q 5.609375 18.84375 5.609375 36.375 
Q 5.609375 53.953125 15.125 64.078125 
Q 24.65625 74.21875 41.21875 74.21875 
Q 47.75 74.21875 53.53125 72.484375 
Q 59.328125 70.75 64.40625 67.28125 
z
" id="DejaVuSans-43"/>
     <path d="M 54.890625 33.015625 
L 54.890625 0 
L 45.90625 0 
L 45.90625 32.71875 
Q 45.90625 40.484375 42.875 44.328125 
Q 39.84375 48.1875 33.796875 48.1875 
Q 26.515625 48.1875 22.3125 43.546875 
Q 18.109375 38.921875 18.109375 30.90625 
L 18.109375 0 
L 9.078125 0 
L 9.078125 75.984375 
L 18.109375 75.984375 
L 18.109375 46.1875 
Q 21.34375 51.125 25.703125 53.5625 
Q 30.078125 56 35.796875 56 
Q 45.21875 56 50.046875 50.171875 
Q 54.890625 44.34375 54.890625 33.015625 
z
" id="DejaVuSans-68"/>
     <path d="M 54.890625 33.015625 
L 54.890625 0 
L 45.90625 0 
L 45.90625 32.71875 
Q 45.90625 40.484375 42.875 44.328125 
Q 39.84375 48.1875 33.796875 48.1875 
Q 26.515625 48.1875 22.3125 43.546875 
Q 18.109375 38.921875 18.109375 30.90625 
L 18.109375 0 
L 9.078125 0 
L 9.078125 54.6875 
L 18.109375 54.6875 
L 18.109375 46.1875 
Q 21.34375 51.125 25.703125 53.5625 
Q 30.078125 56 35.796875 56 
Q 45.21875 56 50.046875 50.171875 
Q 54.890625 44.34375 54.890625 33.015625 
z
" id="DejaVuSans-6e"/>
     <path d="M 4.890625 31.390625 
L 31.203125 31.390625 
L 31.203125 23.390625 
L 4.890625 23.390625 
z
" id="DejaVuSans-2d"/>
     <path d="M 8.6875 72.90625 
L 18.609375 72.90625 
L 18.609375 28.609375 
Q 18.609375 16.890625 22.84375 11.734375 
Q 27.09375 6.59375 36.625 6.59375 
Q 46.09375 6.59375 50.34375 11.734375 
Q 54.59375 16.890625 54.59375 28.609375 
L 54.59375 72.90625 
L 64.5 72.90625 
L 64.5 27.390625 
Q 64.5 13.140625 57.4375 5.859375 
Q 50.390625 -1.421875 36.625 -1.421875 
Q 22.796875 -1.421875 15.734375 5.859375 
Q 8.6875 13.140625 8.6875 27.390625 
z
" id="DejaVuSans-55"/>
    </defs>
    <g transform="translate(178.069687 35.472)scale(0.12 -0.12)">
     <use xlink:href="#DejaVuSans-43"/>
     <use x="69.824219" xlink:href="#DejaVuSans-68"/>
     <use x="133.203125" xlink:href="#DejaVuSans-61"/>
     <use x="194.482422" xlink:href="#DejaVuSans-6e"/>
     <use x="257.861328" xlink:href="#DejaVuSans-6e"/>
     <use x="321.240234" xlink:href="#DejaVuSans-65"/>
     <use x="382.763672" xlink:href="#DejaVuSans-6c"/>
     <use x="410.546875" xlink:href="#DejaVuSans-20"/>
     <use x="442.333984" xlink:href="#DejaVuSans-32"/>
     <use x="505.957031" xlink:href="#DejaVuSans-32"/>
     <use x="569.580078" xlink:href="#DejaVuSans-20"/>
     <use x="601.367188" xlink:href="#DejaVuSans-2d"/>
     <use x="637.451172" xlink:href="#DejaVuSans-20"/>
     <use x="669.238281" xlink:href="#DejaVuSans-55"/>
     <use x="742.431641" xlink:href="#DejaVuSans-6e"/>
     <use x="805.810547" xlink:href="#DejaVuSans-69"/>
     <use x="833.59375" xlink:href="#DejaVuSans-74"/>
     <use x="872.802734" xlink:href="#DejaVuSans-20"/>
     <use x="904.589844" xlink:href="#DejaVuSans-31"/>
    </g>
   </g>
  </g>
 </g>
 <defs>
  <clipPath id="pf719a5c297">
   <rect height="266.112" width="357.12" x="57.6" y="41.472"/>
  </clipPath>
 </defs>
</svg>
