<?xml version="1.0" encoding="utf-8" standalone="no"?>
<!DOCTYPE svg PUBLIC "-//W3C//DTD SVG 1.1//EN"
  "http://www.w3.org/Graphics/SVG/1.1/DTD/svg11.dtd">
<!-- Created with matplotlib (http://matplotlib.org/) -->
<svg height="345pt" version="1.1" viewBox="0 0 460 345" width="460pt" xmlns="http://www.w3.org/2000/svg" xmlns:xlink="http://www.w3.org/1999/xlink">
 <defs>
  <style type="text/css">
*{stroke-linecap:butt;stroke-linejoin:round;}
  </style>
 </defs>
 <g id="figure_1">
  <g id="patch_1">
   <path d="M 0 345.6 
L 460.8 345.6 
L 460.8 0 
L 0 0 
z
" style="fill:#ffffff;"/>
  </g>
  <g id="axes_1">
   <g id="patch_2">
    <path d="M 57.6 307.584 
L 414.72 307.584 
L 414.72 41.472 
L 57.6 41.472 
z
" style="fill:#ffffff;"/>
   </g>
   <g id="PolyCollection_1">
    <defs>
     <path d="M 73.832727 -219.283027 
L 73.832727 -167.978431 
L 84.305455 -165.296425 
L 94.778182 -161.559258 
L 105.250909 -158.715287 
L 115.723636 -156.948739 
L 126.196364 -152.907564 
L 136.669091 -142.884195 
L 147.141818 -128.220801 
L 157.614545 -111.056474 
L 168.087273 -97.382512 
L 178.56 -94.929831 
L 189.032727 -99.500608 
L 199.505455 -104.811837 
L 209.978182 -109.086197 
L 220.450909 -114.045844 
L 230.923636 -120.375659 
L 241.396364 -126.960527 
L 251.869091 -133.082064 
L 262.341818 -138.971343 
L 272.814545 -145.264067 
L 283.287273 -151.682344 
L 293.76 -157.646888 
L 304.232727 -162.793123 
L 314.705455 -166.938428 
L 325.178182 -170.539522 
L 335.650909 -174.073963 
L 346.123636 -177.793034 
L 356.596364 -181.246968 
L 367.069091 -183.992938 
L 377.541818 -186.383119 
L 388.014545 -188.556117 
L 398.487273 -189.816293 
L 398.487273 -252.40182 
L 398.487273 -252.40182 
L 388.014545 -249.756107 
L 377.541818 -246.280541 
L 367.069091 -241.640017 
L 356.596364 -236.877376 
L 346.123636 -232.663221 
L 335.650909 -228.241034 
L 325.178182 -223.336314 
L 314.705455 -218.855098 
L 304.232727 -214.986516 
L 293.76 -210.890938 
L 283.287273 -206.101526 
L 272.814545 -201.334782 
L 262.341818 -196.766706 
L 251.869091 -191.605705 
L 241.396364 -185.379034 
L 230.923636 -178.313557 
L 220.450909 -171.466723 
L 209.978182 -165.197664 
L 199.505455 -158.225949 
L 189.032727 -148.575748 
L 178.56 -136.325046 
L 168.087273 -125.999007 
L 157.614545 -125.273795 
L 147.141818 -141.718739 
L 136.669091 -166.563188 
L 126.196364 -185.90951 
L 115.723636 -196.998191 
L 105.250909 -202.838678 
L 94.778182 -207.617531 
L 84.305455 -213.302182 
L 73.832727 -219.283027 
z
" id="m0c7913f77e"/>
    </defs>
    <g clip-path="url(#pb94c56d0f8)">
     <use style="fill-opacity:0.5;" x="0" xlink:href="#m0c7913f77e" y="345.6"/>
    </g>
   </g>
   <g id="matplotlib.axis_1">
    <g id="xtick_1">
     <g id="line2d_1">
      <defs>
       <path d="M 0 0 
L 0 3.5 
" id="mfac0055a96" style="stroke:#000000;stroke-width:0.8;"/>
      </defs>
      <g>
       <use style="stroke:#000000;stroke-width:0.8;" x="73.832727" xlink:href="#mfac0055a96" y="307.584"/>
      </g>
     </g>
     <g id="text_1">
      <!-- 0.0000 -->
      <defs>
       <path d="M 31.78125 66.40625 
Q 24.171875 66.40625 20.328125 58.90625 
Q 16.5 51.421875 16.5 36.375 
Q 16.5 21.390625 20.328125 13.890625 
Q 24.171875 6.390625 31.78125 6.390625 
Q 39.453125 6.390625 43.28125 13.890625 
Q 47.125 21.390625 47.125 36.375 
Q 47.125 51.421875 43.28125 58.90625 
Q 39.453125 66.40625 31.78125 66.40625 
z
M 31.78125 74.21875 
Q 44.046875 74.21875 50.515625 64.515625 
Q 56.984375 54.828125 56.984375 36.375 
Q 56.984375 17.96875 50.515625 8.265625 
Q 44.046875 -1.421875 31.78125 -1.421875 
Q 19.53125 -1.421875 13.0625 8.265625 
Q 6.59375 17.96875 6.59375 36.375 
Q 6.59375 54.828125 13.0625 64.515625 
Q 19.53125 74.21875 31.78125 74.21875 
z
" id="DejaVuSans-30"/>
       <path d="M 10.6875 12.40625 
L 21 12.40625 
L 21 0 
L 10.6875 0 
z
" id="DejaVuSans-2e"/>
      </defs>
      <g transform="translate(56.337415 322.182437)scale(0.1 -0.1)">
       <use xlink:href="#DejaVuSans-30"/>
       <use x="63.623047" xlink:href="#DejaVuSans-2e"/>
       <use x="95.410156" xlink:href="#DejaVuSans-30"/>
       <use x="159.033203" xlink:href="#DejaVuSans-30"/>
       <use x="222.65625" xlink:href="#DejaVuSans-30"/>
       <use x="286.279297" xlink:href="#DejaVuSans-30"/>
      </g>
     </g>
    </g>
    <g id="xtick_2">
     <g id="line2d_2">
      <g>
       <use style="stroke:#000000;stroke-width:0.8;" x="115.723636" xlink:href="#mfac0055a96" y="307.584"/>
      </g>
     </g>
     <g id="text_2">
      <!-- 0.0001 -->
      <defs>
       <path d="M 12.40625 8.296875 
L 28.515625 8.296875 
L 28.515625 63.921875 
L 10.984375 60.40625 
L 10.984375 69.390625 
L 28.421875 72.90625 
L 38.28125 72.90625 
L 38.28125 8.296875 
L 54.390625 8.296875 
L 54.390625 0 
L 12.40625 0 
z
" id="DejaVuSans-31"/>
      </defs>
      <g transform="translate(98.228324 322.182437)scale(0.1 -0.1)">
       <use xlink:href="#DejaVuSans-30"/>
       <use x="63.623047" xlink:href="#DejaVuSans-2e"/>
       <use x="95.410156" xlink:href="#DejaVuSans-30"/>
       <use x="159.033203" xlink:href="#DejaVuSans-30"/>
       <use x="222.65625" xlink:href="#DejaVuSans-30"/>
       <use x="286.279297" xlink:href="#DejaVuSans-31"/>
      </g>
     </g>
    </g>
    <g id="xtick_3">
     <g id="line2d_3">
      <g>
       <use style="stroke:#000000;stroke-width:0.8;" x="157.614545" xlink:href="#mfac0055a96" y="307.584"/>
      </g>
     </g>
     <g id="text_3">
      <!-- 0.0002 -->
      <defs>
       <path d="M 19.1875 8.296875 
L 53.609375 8.296875 
L 53.609375 0 
L 7.328125 0 
L 7.328125 8.296875 
Q 12.9375 14.109375 22.625 23.890625 
Q 32.328125 33.6875 34.8125 36.53125 
Q 39.546875 41.84375 41.421875 45.53125 
Q 43.3125 49.21875 43.3125 52.78125 
Q 43.3125 58.59375 39.234375 62.25 
Q 35.15625 65.921875 28.609375 65.921875 
Q 23.96875 65.921875 18.8125 64.3125 
Q 13.671875 62.703125 7.8125 59.421875 
L 7.8125 69.390625 
Q 13.765625 71.78125 18.9375 73 
Q 24.125 74.21875 28.421875 74.21875 
Q 39.75 74.21875 46.484375 68.546875 
Q 53.21875 62.890625 53.21875 53.421875 
Q 53.21875 48.921875 51.53125 44.890625 
Q 49.859375 40.875 45.40625 35.40625 
Q 44.1875 33.984375 37.640625 27.21875 
Q 31.109375 20.453125 19.1875 8.296875 
z
" id="DejaVuSans-32"/>
      </defs>
      <g transform="translate(140.119233 322.182437)scale(0.1 -0.1)">
       <use xlink:href="#DejaVuSans-30"/>
       <use x="63.623047" xlink:href="#DejaVuSans-2e"/>
       <use x="95.410156" xlink:href="#DejaVuSans-30"/>
       <use x="159.033203" xlink:href="#DejaVuSans-30"/>
       <use x="222.65625" xlink:href="#DejaVuSans-30"/>
       <use x="286.279297" xlink:href="#DejaVuSans-32"/>
      </g>
     </g>
    </g>
    <g id="xtick_4">
     <g id="line2d_4">
      <g>
       <use style="stroke:#000000;stroke-width:0.8;" x="199.505455" xlink:href="#mfac0055a96" y="307.584"/>
      </g>
     </g>
     <g id="text_4">
      <!-- 0.0003 -->
      <defs>
       <path d="M 40.578125 39.3125 
Q 47.65625 37.796875 51.625 33 
Q 55.609375 28.21875 55.609375 21.1875 
Q 55.609375 10.40625 48.1875 4.484375 
Q 40.765625 -1.421875 27.09375 -1.421875 
Q 22.515625 -1.421875 17.65625 -0.515625 
Q 12.796875 0.390625 7.625 2.203125 
L 7.625 11.71875 
Q 11.71875 9.328125 16.59375 8.109375 
Q 21.484375 6.890625 26.8125 6.890625 
Q 36.078125 6.890625 40.9375 10.546875 
Q 45.796875 14.203125 45.796875 21.1875 
Q 45.796875 27.640625 41.28125 31.265625 
Q 36.765625 34.90625 28.71875 34.90625 
L 20.21875 34.90625 
L 20.21875 43.015625 
L 29.109375 43.015625 
Q 36.375 43.015625 40.234375 45.921875 
Q 44.09375 48.828125 44.09375 54.296875 
Q 44.09375 59.90625 40.109375 62.90625 
Q 36.140625 65.921875 28.71875 65.921875 
Q 24.65625 65.921875 20.015625 65.03125 
Q 15.375 64.15625 9.8125 62.3125 
L 9.8125 71.09375 
Q 15.4375 72.65625 20.34375 73.4375 
Q 25.25 74.21875 29.59375 74.21875 
Q 40.828125 74.21875 47.359375 69.109375 
Q 53.90625 64.015625 53.90625 55.328125 
Q 53.90625 49.265625 50.4375 45.09375 
Q 46.96875 40.921875 40.578125 39.3125 
z
" id="DejaVuSans-33"/>
      </defs>
      <g transform="translate(182.010142 322.182437)scale(0.1 -0.1)">
       <use xlink:href="#DejaVuSans-30"/>
       <use x="63.623047" xlink:href="#DejaVuSans-2e"/>
       <use x="95.410156" xlink:href="#DejaVuSans-30"/>
       <use x="159.033203" xlink:href="#DejaVuSans-30"/>
       <use x="222.65625" xlink:href="#DejaVuSans-30"/>
       <use x="286.279297" xlink:href="#DejaVuSans-33"/>
      </g>
     </g>
    </g>
    <g id="xtick_5">
     <g id="line2d_5">
      <g>
       <use style="stroke:#000000;stroke-width:0.8;" x="241.396364" xlink:href="#mfac0055a96" y="307.584"/>
      </g>
     </g>
     <g id="text_5">
      <!-- 0.0004 -->
      <defs>
       <path d="M 37.796875 64.3125 
L 12.890625 25.390625 
L 37.796875 25.390625 
z
M 35.203125 72.90625 
L 47.609375 72.90625 
L 47.609375 25.390625 
L 58.015625 25.390625 
L 58.015625 17.1875 
L 47.609375 17.1875 
L 47.609375 0 
L 37.796875 0 
L 37.796875 17.1875 
L 4.890625 17.1875 
L 4.890625 26.703125 
z
" id="DejaVuSans-34"/>
      </defs>
      <g transform="translate(223.901051 322.182437)scale(0.1 -0.1)">
       <use xlink:href="#DejaVuSans-30"/>
       <use x="63.623047" xlink:href="#DejaVuSans-2e"/>
       <use x="95.410156" xlink:href="#DejaVuSans-30"/>
       <use x="159.033203" xlink:href="#DejaVuSans-30"/>
       <use x="222.65625" xlink:href="#DejaVuSans-30"/>
       <use x="286.279297" xlink:href="#DejaVuSans-34"/>
      </g>
     </g>
    </g>
    <g id="xtick_6">
     <g id="line2d_6">
      <g>
       <use style="stroke:#000000;stroke-width:0.8;" x="283.287273" xlink:href="#mfac0055a96" y="307.584"/>
      </g>
     </g>
     <g id="text_6">
      <!-- 0.0005 -->
      <defs>
       <path d="M 10.796875 72.90625 
L 49.515625 72.90625 
L 49.515625 64.59375 
L 19.828125 64.59375 
L 19.828125 46.734375 
Q 21.96875 47.46875 24.109375 47.828125 
Q 26.265625 48.1875 28.421875 48.1875 
Q 40.625 48.1875 47.75 41.5 
Q 54.890625 34.8125 54.890625 23.390625 
Q 54.890625 11.625 47.5625 5.09375 
Q 40.234375 -1.421875 26.90625 -1.421875 
Q 22.3125 -1.421875 17.546875 -0.640625 
Q 12.796875 0.140625 7.71875 1.703125 
L 7.71875 11.625 
Q 12.109375 9.234375 16.796875 8.0625 
Q 21.484375 6.890625 26.703125 6.890625 
Q 35.15625 6.890625 40.078125 11.328125 
Q 45.015625 15.765625 45.015625 23.390625 
Q 45.015625 31 40.078125 35.4375 
Q 35.15625 39.890625 26.703125 39.890625 
Q 22.75 39.890625 18.8125 39.015625 
Q 14.890625 38.140625 10.796875 36.28125 
z
" id="DejaVuSans-35"/>
      </defs>
      <g transform="translate(265.79196 322.182437)scale(0.1 -0.1)">
       <use xlink:href="#DejaVuSans-30"/>
       <use x="63.623047" xlink:href="#DejaVuSans-2e"/>
       <use x="95.410156" xlink:href="#DejaVuSans-30"/>
       <use x="159.033203" xlink:href="#DejaVuSans-30"/>
       <use x="222.65625" xlink:href="#DejaVuSans-30"/>
       <use x="286.279297" xlink:href="#DejaVuSans-35"/>
      </g>
     </g>
    </g>
    <g id="xtick_7">
     <g id="line2d_7">
      <g>
       <use style="stroke:#000000;stroke-width:0.8;" x="325.178182" xlink:href="#mfac0055a96" y="307.584"/>
      </g>
     </g>
     <g id="text_7">
      <!-- 0.0006 -->
      <defs>
       <path d="M 33.015625 40.375 
Q 26.375 40.375 22.484375 35.828125 
Q 18.609375 31.296875 18.609375 23.390625 
Q 18.609375 15.53125 22.484375 10.953125 
Q 26.375 6.390625 33.015625 6.390625 
Q 39.65625 6.390625 43.53125 10.953125 
Q 47.40625 15.53125 47.40625 23.390625 
Q 47.40625 31.296875 43.53125 35.828125 
Q 39.65625 40.375 33.015625 40.375 
z
M 52.59375 71.296875 
L 52.59375 62.3125 
Q 48.875 64.0625 45.09375 64.984375 
Q 41.3125 65.921875 37.59375 65.921875 
Q 27.828125 65.921875 22.671875 59.328125 
Q 17.53125 52.734375 16.796875 39.40625 
Q 19.671875 43.65625 24.015625 45.921875 
Q 28.375 48.1875 33.59375 48.1875 
Q 44.578125 48.1875 50.953125 41.515625 
Q 57.328125 34.859375 57.328125 23.390625 
Q 57.328125 12.15625 50.6875 5.359375 
Q 44.046875 -1.421875 33.015625 -1.421875 
Q 20.359375 -1.421875 13.671875 8.265625 
Q 6.984375 17.96875 6.984375 36.375 
Q 6.984375 53.65625 15.1875 63.9375 
Q 23.390625 74.21875 37.203125 74.21875 
Q 40.921875 74.21875 44.703125 73.484375 
Q 48.484375 72.75 52.59375 71.296875 
z
" id="DejaVuSans-36"/>
      </defs>
      <g transform="translate(307.682869 322.182437)scale(0.1 -0.1)">
       <use xlink:href="#DejaVuSans-30"/>
       <use x="63.623047" xlink:href="#DejaVuSans-2e"/>
       <use x="95.410156" xlink:href="#DejaVuSans-30"/>
       <use x="159.033203" xlink:href="#DejaVuSans-30"/>
       <use x="222.65625" xlink:href="#DejaVuSans-30"/>
       <use x="286.279297" xlink:href="#DejaVuSans-36"/>
      </g>
     </g>
    </g>
    <g id="xtick_8">
     <g id="line2d_8">
      <g>
       <use style="stroke:#000000;stroke-width:0.8;" x="367.069091" xlink:href="#mfac0055a96" y="307.584"/>
      </g>
     </g>
     <g id="text_8">
      <!-- 0.0007 -->
      <defs>
       <path d="M 8.203125 72.90625 
L 55.078125 72.90625 
L 55.078125 68.703125 
L 28.609375 0 
L 18.3125 0 
L 43.21875 64.59375 
L 8.203125 64.59375 
z
" id="DejaVuSans-37"/>
      </defs>
      <g transform="translate(349.573778 322.182437)scale(0.1 -0.1)">
       <use xlink:href="#DejaVuSans-30"/>
       <use x="63.623047" xlink:href="#DejaVuSans-2e"/>
       <use x="95.410156" xlink:href="#DejaVuSans-30"/>
       <use x="159.033203" xlink:href="#DejaVuSans-30"/>
       <use x="222.65625" xlink:href="#DejaVuSans-30"/>
       <use x="286.279297" xlink:href="#DejaVuSans-37"/>
      </g>
     </g>
    </g>
    <g id="xtick_9">
     <g id="line2d_9">
      <g>
       <use style="stroke:#000000;stroke-width:0.8;" x="408.96" xlink:href="#mfac0055a96" y="307.584"/>
      </g>
     </g>
     <g id="text_9">
      <!-- 0.0008 -->
      <defs>
       <path d="M 31.78125 34.625 
Q 24.75 34.625 20.71875 30.859375 
Q 16.703125 27.09375 16.703125 20.515625 
Q 16.703125 13.921875 20.71875 10.15625 
Q 24.75 6.390625 31.78125 6.390625 
Q 38.8125 6.390625 42.859375 10.171875 
Q 46.921875 13.96875 46.921875 20.515625 
Q 46.921875 27.09375 42.890625 30.859375 
Q 38.875 34.625 31.78125 34.625 
z
M 21.921875 38.8125 
Q 15.578125 40.375 12.03125 44.71875 
Q 8.5 49.078125 8.5 55.328125 
Q 8.5 64.0625 14.71875 69.140625 
Q 20.953125 74.21875 31.78125 74.21875 
Q 42.671875 74.21875 48.875 69.140625 
Q 55.078125 64.0625 55.078125 55.328125 
Q 55.078125 49.078125 51.53125 44.71875 
Q 48 40.375 41.703125 38.8125 
Q 48.828125 37.15625 52.796875 32.3125 
Q 56.78125 27.484375 56.78125 20.515625 
Q 56.78125 9.90625 50.3125 4.234375 
Q 43.84375 -1.421875 31.78125 -1.421875 
Q 19.734375 -1.421875 13.25 4.234375 
Q 6.78125 9.90625 6.78125 20.515625 
Q 6.78125 27.484375 10.78125 32.3125 
Q 14.796875 37.15625 21.921875 38.8125 
z
M 18.3125 54.390625 
Q 18.3125 48.734375 21.84375 45.5625 
Q 25.390625 42.390625 31.78125 42.390625 
Q 38.140625 42.390625 41.71875 45.5625 
Q 45.3125 48.734375 45.3125 54.390625 
Q 45.3125 60.0625 41.71875 63.234375 
Q 38.140625 66.40625 31.78125 66.40625 
Q 25.390625 66.40625 21.84375 63.234375 
Q 18.3125 60.0625 18.3125 54.390625 
z
" id="DejaVuSans-38"/>
      </defs>
      <g transform="translate(391.464687 322.182437)scale(0.1 -0.1)">
       <use xlink:href="#DejaVuSans-30"/>
       <use x="63.623047" xlink:href="#DejaVuSans-2e"/>
       <use x="95.410156" xlink:href="#DejaVuSans-30"/>
       <use x="159.033203" xlink:href="#DejaVuSans-30"/>
       <use x="222.65625" xlink:href="#DejaVuSans-30"/>
       <use x="286.279297" xlink:href="#DejaVuSans-38"/>
      </g>
     </g>
    </g>
    <g id="text_10">
     <!-- Time (s) -->
     <defs>
      <path d="M -0.296875 72.90625 
L 61.375 72.90625 
L 61.375 64.59375 
L 35.5 64.59375 
L 35.5 0 
L 25.59375 0 
L 25.59375 64.59375 
L -0.296875 64.59375 
z
" id="DejaVuSans-54"/>
      <path d="M 9.421875 54.6875 
L 18.40625 54.6875 
L 18.40625 0 
L 9.421875 0 
z
M 9.421875 75.984375 
L 18.40625 75.984375 
L 18.40625 64.59375 
L 9.421875 64.59375 
z
" id="DejaVuSans-69"/>
      <path d="M 52 44.1875 
Q 55.375 50.25 60.0625 53.125 
Q 64.75 56 71.09375 56 
Q 79.640625 56 84.28125 50.015625 
Q 88.921875 44.046875 88.921875 33.015625 
L 88.921875 0 
L 79.890625 0 
L 79.890625 32.71875 
Q 79.890625 40.578125 77.09375 44.375 
Q 74.3125 48.1875 68.609375 48.1875 
Q 61.625 48.1875 57.5625 43.546875 
Q 53.515625 38.921875 53.515625 30.90625 
L 53.515625 0 
L 44.484375 0 
L 44.484375 32.71875 
Q 44.484375 40.625 41.703125 44.40625 
Q 38.921875 48.1875 33.109375 48.1875 
Q 26.21875 48.1875 22.15625 43.53125 
Q 18.109375 38.875 18.109375 30.90625 
L 18.109375 0 
L 9.078125 0 
L 9.078125 54.6875 
L 18.109375 54.6875 
L 18.109375 46.1875 
Q 21.1875 51.21875 25.484375 53.609375 
Q 29.78125 56 35.6875 56 
Q 41.65625 56 45.828125 52.96875 
Q 50 49.953125 52 44.1875 
z
" id="DejaVuSans-6d"/>
      <path d="M 56.203125 29.59375 
L 56.203125 25.203125 
L 14.890625 25.203125 
Q 15.484375 15.921875 20.484375 11.0625 
Q 25.484375 6.203125 34.421875 6.203125 
Q 39.59375 6.203125 44.453125 7.46875 
Q 49.3125 8.734375 54.109375 11.28125 
L 54.109375 2.78125 
Q 49.265625 0.734375 44.1875 -0.34375 
Q 39.109375 -1.421875 33.890625 -1.421875 
Q 20.796875 -1.421875 13.15625 6.1875 
Q 5.515625 13.8125 5.515625 26.8125 
Q 5.515625 40.234375 12.765625 48.109375 
Q 20.015625 56 32.328125 56 
Q 43.359375 56 49.78125 48.890625 
Q 56.203125 41.796875 56.203125 29.59375 
z
M 47.21875 32.234375 
Q 47.125 39.59375 43.09375 43.984375 
Q 39.0625 48.390625 32.421875 48.390625 
Q 24.90625 48.390625 20.390625 44.140625 
Q 15.875 39.890625 15.1875 32.171875 
z
" id="DejaVuSans-65"/>
      <path id="DejaVuSans-20"/>
      <path d="M 31 75.875 
Q 24.46875 64.65625 21.28125 53.65625 
Q 18.109375 42.671875 18.109375 31.390625 
Q 18.109375 20.125 21.3125 9.0625 
Q 24.515625 -2 31 -13.1875 
L 23.1875 -13.1875 
Q 15.875 -1.703125 12.234375 9.375 
Q 8.59375 20.453125 8.59375 31.390625 
Q 8.59375 42.28125 12.203125 53.3125 
Q 15.828125 64.359375 23.1875 75.875 
z
" id="DejaVuSans-28"/>
      <path d="M 44.28125 53.078125 
L 44.28125 44.578125 
Q 40.484375 46.53125 36.375 47.5 
Q 32.28125 48.484375 27.875 48.484375 
Q 21.1875 48.484375 17.84375 46.4375 
Q 14.5 44.390625 14.5 40.28125 
Q 14.5 37.15625 16.890625 35.375 
Q 19.28125 33.59375 26.515625 31.984375 
L 29.59375 31.296875 
Q 39.15625 29.25 43.1875 25.515625 
Q 47.21875 21.78125 47.21875 15.09375 
Q 47.21875 7.46875 41.1875 3.015625 
Q 35.15625 -1.421875 24.609375 -1.421875 
Q 20.21875 -1.421875 15.453125 -0.5625 
Q 10.6875 0.296875 5.421875 2 
L 5.421875 11.28125 
Q 10.40625 8.6875 15.234375 7.390625 
Q 20.0625 6.109375 24.8125 6.109375 
Q 31.15625 6.109375 34.5625 8.28125 
Q 37.984375 10.453125 37.984375 14.40625 
Q 37.984375 18.0625 35.515625 20.015625 
Q 33.0625 21.96875 24.703125 23.78125 
L 21.578125 24.515625 
Q 13.234375 26.265625 9.515625 29.90625 
Q 5.8125 33.546875 5.8125 39.890625 
Q 5.8125 47.609375 11.28125 51.796875 
Q 16.75 56 26.8125 56 
Q 31.78125 56 36.171875 55.265625 
Q 40.578125 54.546875 44.28125 53.078125 
z
" id="DejaVuSans-73"/>
      <path d="M 8.015625 75.875 
L 15.828125 75.875 
Q 23.140625 64.359375 26.78125 53.3125 
Q 30.421875 42.28125 30.421875 31.390625 
Q 30.421875 20.453125 26.78125 9.375 
Q 23.140625 -1.703125 15.828125 -13.1875 
L 8.015625 -13.1875 
Q 14.5 -2 17.703125 9.0625 
Q 20.90625 20.125 20.90625 31.390625 
Q 20.90625 42.671875 17.703125 53.65625 
Q 14.5 64.65625 8.015625 75.875 
z
" id="DejaVuSans-29"/>
     </defs>
     <g transform="translate(215.677188 335.860562)scale(0.1 -0.1)">
      <use xlink:href="#DejaVuSans-54"/>
      <use x="61.037109" xlink:href="#DejaVuSans-69"/>
      <use x="88.820312" xlink:href="#DejaVuSans-6d"/>
      <use x="186.232422" xlink:href="#DejaVuSans-65"/>
      <use x="247.755859" xlink:href="#DejaVuSans-20"/>
      <use x="279.542969" xlink:href="#DejaVuSans-28"/>
      <use x="318.556641" xlink:href="#DejaVuSans-73"/>
      <use x="370.65625" xlink:href="#DejaVuSans-29"/>
     </g>
    </g>
   </g>
   <g id="matplotlib.axis_2">
    <g id="ytick_1">
     <g id="line2d_10">
      <defs>
       <path d="M 0 0 
L -3.5 0 
" id="m7494ff8f49" style="stroke:#000000;stroke-width:0.8;"/>
      </defs>
      <g>
       <use style="stroke:#000000;stroke-width:0.8;" x="57.6" xlink:href="#m7494ff8f49" y="307.584"/>
      </g>
     </g>
     <g id="text_11">
      <!-- −50 -->
      <defs>
       <path d="M 10.59375 35.5 
L 73.1875 35.5 
L 73.1875 27.203125 
L 10.59375 27.203125 
z
" id="DejaVuSans-2212"/>
      </defs>
      <g transform="translate(29.495313 311.383219)scale(0.1 -0.1)">
       <use xlink:href="#DejaVuSans-2212"/>
       <use x="83.789062" xlink:href="#DejaVuSans-35"/>
       <use x="147.412109" xlink:href="#DejaVuSans-30"/>
      </g>
     </g>
    </g>
    <g id="ytick_2">
     <g id="line2d_11">
      <g>
       <use style="stroke:#000000;stroke-width:0.8;" x="57.6" xlink:href="#m7494ff8f49" y="274.32"/>
      </g>
     </g>
     <g id="text_12">
      <!-- −40 -->
      <g transform="translate(29.495313 278.119219)scale(0.1 -0.1)">
       <use xlink:href="#DejaVuSans-2212"/>
       <use x="83.789062" xlink:href="#DejaVuSans-34"/>
       <use x="147.412109" xlink:href="#DejaVuSans-30"/>
      </g>
     </g>
    </g>
    <g id="ytick_3">
     <g id="line2d_12">
      <g>
       <use style="stroke:#000000;stroke-width:0.8;" x="57.6" xlink:href="#m7494ff8f49" y="241.056"/>
      </g>
     </g>
     <g id="text_13">
      <!-- −30 -->
      <g transform="translate(29.495313 244.855219)scale(0.1 -0.1)">
       <use xlink:href="#DejaVuSans-2212"/>
       <use x="83.789062" xlink:href="#DejaVuSans-33"/>
       <use x="147.412109" xlink:href="#DejaVuSans-30"/>
      </g>
     </g>
    </g>
    <g id="ytick_4">
     <g id="line2d_13">
      <g>
       <use style="stroke:#000000;stroke-width:0.8;" x="57.6" xlink:href="#m7494ff8f49" y="207.792"/>
      </g>
     </g>
     <g id="text_14">
      <!-- −20 -->
      <g transform="translate(29.495313 211.591219)scale(0.1 -0.1)">
       <use xlink:href="#DejaVuSans-2212"/>
       <use x="83.789062" xlink:href="#DejaVuSans-32"/>
       <use x="147.412109" xlink:href="#DejaVuSans-30"/>
      </g>
     </g>
    </g>
    <g id="ytick_5">
     <g id="line2d_14">
      <g>
       <use style="stroke:#000000;stroke-width:0.8;" x="57.6" xlink:href="#m7494ff8f49" y="174.528"/>
      </g>
     </g>
     <g id="text_15">
      <!-- −10 -->
      <g transform="translate(29.495313 178.327219)scale(0.1 -0.1)">
       <use xlink:href="#DejaVuSans-2212"/>
       <use x="83.789062" xlink:href="#DejaVuSans-31"/>
       <use x="147.412109" xlink:href="#DejaVuSans-30"/>
      </g>
     </g>
    </g>
    <g id="ytick_6">
     <g id="line2d_15">
      <g>
       <use style="stroke:#000000;stroke-width:0.8;" x="57.6" xlink:href="#m7494ff8f49" y="141.264"/>
      </g>
     </g>
     <g id="text_16">
      <!-- 0 -->
      <g transform="translate(44.2375 145.063219)scale(0.1 -0.1)">
       <use xlink:href="#DejaVuSans-30"/>
      </g>
     </g>
    </g>
    <g id="ytick_7">
     <g id="line2d_16">
      <g>
       <use style="stroke:#000000;stroke-width:0.8;" x="57.6" xlink:href="#m7494ff8f49" y="108"/>
      </g>
     </g>
     <g id="text_17">
      <!-- 10 -->
      <g transform="translate(37.875 111.799219)scale(0.1 -0.1)">
       <use xlink:href="#DejaVuSans-31"/>
       <use x="63.623047" xlink:href="#DejaVuSans-30"/>
      </g>
     </g>
    </g>
    <g id="ytick_8">
     <g id="line2d_17">
      <g>
       <use style="stroke:#000000;stroke-width:0.8;" x="57.6" xlink:href="#m7494ff8f49" y="74.736"/>
      </g>
     </g>
     <g id="text_18">
      <!-- 20 -->
      <g transform="translate(37.875 78.535219)scale(0.1 -0.1)">
       <use xlink:href="#DejaVuSans-32"/>
       <use x="63.623047" xlink:href="#DejaVuSans-30"/>
      </g>
     </g>
    </g>
    <g id="ytick_9">
     <g id="line2d_18">
      <g>
       <use style="stroke:#000000;stroke-width:0.8;" x="57.6" xlink:href="#m7494ff8f49" y="41.472"/>
      </g>
     </g>
     <g id="text_19">
      <!-- 30 -->
      <g transform="translate(37.875 45.271219)scale(0.1 -0.1)">
       <use xlink:href="#DejaVuSans-33"/>
       <use x="63.623047" xlink:href="#DejaVuSans-30"/>
      </g>
     </g>
    </g>
    <g id="text_20">
     <!-- Voltage ($\mu$V) -->
     <defs>
      <path d="M 28.609375 0 
L 0.78125 72.90625 
L 11.078125 72.90625 
L 34.1875 11.53125 
L 57.328125 72.90625 
L 67.578125 72.90625 
L 39.796875 0 
z
" id="DejaVuSans-56"/>
      <path d="M 30.609375 48.390625 
Q 23.390625 48.390625 19.1875 42.75 
Q 14.984375 37.109375 14.984375 27.296875 
Q 14.984375 17.484375 19.15625 11.84375 
Q 23.34375 6.203125 30.609375 6.203125 
Q 37.796875 6.203125 41.984375 11.859375 
Q 46.1875 17.53125 46.1875 27.296875 
Q 46.1875 37.015625 41.984375 42.703125 
Q 37.796875 48.390625 30.609375 48.390625 
z
M 30.609375 56 
Q 42.328125 56 49.015625 48.375 
Q 55.71875 40.765625 55.71875 27.296875 
Q 55.71875 13.875 49.015625 6.21875 
Q 42.328125 -1.421875 30.609375 -1.421875 
Q 18.84375 -1.421875 12.171875 6.21875 
Q 5.515625 13.875 5.515625 27.296875 
Q 5.515625 40.765625 12.171875 48.375 
Q 18.84375 56 30.609375 56 
z
" id="DejaVuSans-6f"/>
      <path d="M 9.421875 75.984375 
L 18.40625 75.984375 
L 18.40625 0 
L 9.421875 0 
z
" id="DejaVuSans-6c"/>
      <path d="M 18.3125 70.21875 
L 18.3125 54.6875 
L 36.8125 54.6875 
L 36.8125 47.703125 
L 18.3125 47.703125 
L 18.3125 18.015625 
Q 18.3125 11.328125 20.140625 9.421875 
Q 21.96875 7.515625 27.59375 7.515625 
L 36.8125 7.515625 
L 36.8125 0 
L 27.59375 0 
Q 17.1875 0 13.234375 3.875 
Q 9.28125 7.765625 9.28125 18.015625 
L 9.28125 47.703125 
L 2.6875 47.703125 
L 2.6875 54.6875 
L 9.28125 54.6875 
L 9.28125 70.21875 
z
" id="DejaVuSans-74"/>
      <path d="M 34.28125 27.484375 
Q 23.390625 27.484375 19.1875 25 
Q 14.984375 22.515625 14.984375 16.5 
Q 14.984375 11.71875 18.140625 8.90625 
Q 21.296875 6.109375 26.703125 6.109375 
Q 34.1875 6.109375 38.703125 11.40625 
Q 43.21875 16.703125 43.21875 25.484375 
L 43.21875 27.484375 
z
M 52.203125 31.203125 
L 52.203125 0 
L 43.21875 0 
L 43.21875 8.296875 
Q 40.140625 3.328125 35.546875 0.953125 
Q 30.953125 -1.421875 24.3125 -1.421875 
Q 15.921875 -1.421875 10.953125 3.296875 
Q 6 8.015625 6 15.921875 
Q 6 25.140625 12.171875 29.828125 
Q 18.359375 34.515625 30.609375 34.515625 
L 43.21875 34.515625 
L 43.21875 35.40625 
Q 43.21875 41.609375 39.140625 45 
Q 35.0625 48.390625 27.6875 48.390625 
Q 23 48.390625 18.546875 47.265625 
Q 14.109375 46.140625 10.015625 43.890625 
L 10.015625 52.203125 
Q 14.9375 54.109375 19.578125 55.046875 
Q 24.21875 56 28.609375 56 
Q 40.484375 56 46.34375 49.84375 
Q 52.203125 43.703125 52.203125 31.203125 
z
" id="DejaVuSans-61"/>
      <path d="M 45.40625 27.984375 
Q 45.40625 37.75 41.375 43.109375 
Q 37.359375 48.484375 30.078125 48.484375 
Q 22.859375 48.484375 18.828125 43.109375 
Q 14.796875 37.75 14.796875 27.984375 
Q 14.796875 18.265625 18.828125 12.890625 
Q 22.859375 7.515625 30.078125 7.515625 
Q 37.359375 7.515625 41.375 12.890625 
Q 45.40625 18.265625 45.40625 27.984375 
z
M 54.390625 6.78125 
Q 54.390625 -7.171875 48.1875 -13.984375 
Q 42 -20.796875 29.203125 -20.796875 
Q 24.46875 -20.796875 20.265625 -20.09375 
Q 16.0625 -19.390625 12.109375 -17.921875 
L 12.109375 -9.1875 
Q 16.0625 -11.328125 19.921875 -12.34375 
Q 23.78125 -13.375 27.78125 -13.375 
Q 36.625 -13.375 41.015625 -8.765625 
Q 45.40625 -4.15625 45.40625 5.171875 
L 45.40625 9.625 
Q 42.625 4.78125 38.28125 2.390625 
Q 33.9375 0 27.875 0 
Q 17.828125 0 11.671875 7.65625 
Q 5.515625 15.328125 5.515625 27.984375 
Q 5.515625 40.671875 11.671875 48.328125 
Q 17.828125 56 27.875 56 
Q 33.9375 56 38.28125 53.609375 
Q 42.625 51.21875 45.40625 46.390625 
L 45.40625 54.6875 
L 54.390625 54.6875 
z
" id="DejaVuSans-67"/>
      <path d="M -1.3125 -20.796875 
L 13.375 54.6875 
L 22.40625 54.6875 
L 15.765625 20.65625 
Q 15.578125 19.625 15.421875 18.359375 
Q 15.28125 17.09375 15.28125 15.828125 
Q 15.28125 11.28125 18.140625 8.828125 
Q 21 6.390625 26.3125 6.390625 
Q 33.546875 6.390625 37.984375 10.484375 
Q 42.4375 14.59375 44 22.796875 
L 50.203125 54.6875 
L 59.1875 54.6875 
L 51.03125 12.640625 
Q 50.828125 11.71875 50.75 11.03125 
Q 50.6875 10.359375 50.6875 9.8125 
Q 50.6875 8.296875 51.296875 7.59375 
Q 51.90625 6.890625 53.21875 6.890625 
Q 53.71875 6.890625 54.5625 7.125 
Q 55.421875 7.375 56.984375 8.015625 
L 55.609375 0.78125 
Q 53.46875 -0.296875 51.515625 -0.859375 
Q 49.5625 -1.421875 47.703125 -1.421875 
Q 44.484375 -1.421875 42.65625 0.625 
Q 40.828125 2.6875 40.828125 6.296875 
Q 38.09375 2.390625 34.296875 0.484375 
Q 30.515625 -1.421875 25.390625 -1.421875 
Q 20.84375 -1.421875 17.453125 0.671875 
Q 14.0625 2.78125 12.984375 6.203125 
L 7.71875 -20.796875 
z
" id="DejaVuSans-Oblique-3bc"/>
     </defs>
     <g transform="translate(23.395312 205.778)rotate(-90)scale(0.1 -0.1)">
      <use transform="translate(0 0.015625)" xlink:href="#DejaVuSans-56"/>
      <use transform="translate(68.408203 0.015625)" xlink:href="#DejaVuSans-6f"/>
      <use transform="translate(129.589844 0.015625)" xlink:href="#DejaVuSans-6c"/>
      <use transform="translate(157.373047 0.015625)" xlink:href="#DejaVuSans-74"/>
      <use transform="translate(196.582031 0.015625)" xlink:href="#DejaVuSans-61"/>
      <use transform="translate(257.861328 0.015625)" xlink:href="#DejaVuSans-67"/>
      <use transform="translate(321.337891 0.015625)" xlink:href="#DejaVuSans-65"/>
      <use transform="translate(382.861328 0.015625)" xlink:href="#DejaVuSans-20"/>
      <use transform="translate(414.648438 0.015625)" xlink:href="#DejaVuSans-28"/>
      <use transform="translate(453.662109 0.015625)" xlink:href="#DejaVuSans-Oblique-3bc"/>
      <use transform="translate(517.285156 0.015625)" xlink:href="#DejaVuSans-56"/>
      <use transform="translate(585.693359 0.015625)" xlink:href="#DejaVuSans-29"/>
     </g>
    </g>
   </g>
   <g id="line2d_19">
    <path clip-path="url(#pb94c56d0f8)" d="M 73.832727 151.969271 
L 84.305455 156.300696 
L 94.778182 161.011605 
L 105.250909 164.823017 
L 115.723636 168.626535 
L 126.196364 176.191463 
L 136.669091 190.876309 
L 147.141818 210.63023 
L 157.614545 227.434866 
L 168.087273 233.90924 
L 178.56 229.972562 
L 189.032727 221.561822 
L 199.505455 214.081107 
L 209.978182 208.458069 
L 220.450909 202.843717 
L 230.923636 196.255392 
L 241.396364 189.430219 
L 251.869091 183.256116 
L 262.341818 177.730976 
L 272.814545 172.300575 
L 283.287273 166.708065 
L 293.76 161.331087 
L 304.232727 156.710181 
L 314.705455 152.703237 
L 325.178182 148.662082 
L 335.650909 144.442502 
L 346.123636 140.371872 
L 356.596364 136.537828 
L 367.069091 132.783522 
L 377.541818 129.26817 
L 388.014545 126.443888 
L 398.487273 124.490944 
" style="fill:none;stroke:#000000;stroke-linecap:square;stroke-width:1.5;"/>
   </g>
   <g id="line2d_20">
    <path clip-path="url(#pb94c56d0f8)" d="M 73.832727 153.1143 
L 84.305455 165.06855 
L 94.778182 185.44275 
L 105.250909 199.99575 
L 115.723636 196.3575 
L 126.196364 183.77955 
L 136.669091 184.40325 
L 147.141818 206.5446 
L 157.614545 236.58615 
L 168.087273 254.7774 
L 178.56 254.25765 
L 189.032727 242.40735 
L 199.505455 228.7899 
L 209.978182 218.29095 
L 220.450909 211.1184 
L 230.923636 206.44065 
L 241.396364 201.24315 
L 251.869091 190.5363 
L 262.341818 178.58205 
L 272.814545 173.59245 
L 283.287273 176.1912 
L 293.76 181.90845 
L 304.232727 183.15585 
L 314.705455 176.50305 
L 325.178182 166.52385 
L 335.650909 158.5197 
L 346.123636 153.63405 
L 356.596364 145.94175 
L 367.069091 129.72555 
L 377.541818 110.80665 
L 388.014545 98.54055 
L 398.487273 96.1497 
" style="fill:none;stroke:#ff0000;stroke-linecap:square;stroke-width:1.5;"/>
   </g>
   <g id="line2d_21">
    <path clip-path="url(#pb94c56d0f8)" d="M 73.832727 155.6091 
L 84.305455 170.9937 
L 94.778182 167.0436 
L 105.250909 149.7879 
L 115.723636 140.74425 
L 126.196364 155.92095 
L 136.669091 189.081 
L 147.141818 217.25145 
L 157.614545 225.4635 
L 168.087273 218.49885 
L 178.56 211.7421 
L 189.032727 212.88555 
L 199.505455 216.00405 
L 209.978182 213.09345 
L 220.450909 203.8419 
L 230.923636 194.2785 
L 241.396364 189.80865 
L 251.869091 191.88765 
L 262.341818 195.00615 
L 272.814545 191.47185 
L 283.287273 181.07685 
L 293.76 172.8648 
L 304.232727 173.59245 
L 314.705455 177.6465 
L 325.178182 174.7359 
L 335.650909 170.7858 
L 346.123636 174.42405 
L 356.596364 180.765 
L 367.069091 181.07685 
L 377.541818 176.29515 
L 388.014545 171.51345 
L 398.487273 165.90015 
" style="fill:none;stroke:#ff1e00;stroke-linecap:square;stroke-width:1.5;"/>
   </g>
   <g id="line2d_22">
    <path clip-path="url(#pb94c56d0f8)" d="M 73.832727 168.0831 
L 84.305455 171.8253 
L 94.778182 170.47395 
L 105.250909 175.9833 
L 115.723636 184.5072 
L 126.196364 188.4573 
L 136.669091 194.0706 
L 147.141818 209.6631 
L 157.614545 227.23065 
L 168.087273 227.23065 
L 178.56 200.41155 
L 189.032727 161.0145 
L 199.505455 136.4823 
L 209.978182 140.74425 
L 220.450909 163.82115 
L 230.923636 184.7151 
L 241.396364 193.55085 
L 251.869091 195.318 
L 262.341818 196.7733 
L 272.814545 197.29305 
L 283.287273 193.34295 
L 293.76 184.19535 
L 304.232727 176.1912 
L 314.705455 175.67145 
L 325.178182 179.3097 
L 335.650909 179.1018 
L 346.123636 170.88975 
L 356.596364 158.1039 
L 367.069091 149.47605 
L 377.541818 149.47605 
L 388.014545 149.9958 
L 398.487273 143.86275 
" style="fill:none;stroke:#ff3b00;stroke-linecap:square;stroke-width:1.5;"/>
   </g>
   <g id="line2d_23">
    <path clip-path="url(#pb94c56d0f8)" d="M 73.832727 127.85445 
L 84.305455 145.94175 
L 94.778182 158.1039 
L 105.250909 161.8461 
L 115.723636 164.23695 
L 126.196364 172.8648 
L 136.669091 190.64025 
L 147.141818 216.108 
L 157.614545 245.52585 
L 168.087273 272.34495 
L 178.56 284.2992 
L 189.032727 273.4884 
L 199.505455 252.59445 
L 209.978182 243.44685 
L 220.450909 251.34705 
L 230.923636 264.65265 
L 241.396364 269.85015 
L 251.869091 259.9749 
L 262.341818 237.7296 
L 272.814545 214.34085 
L 283.287273 198.54045 
L 293.76 188.97705 
L 304.232727 179.41365 
L 314.705455 167.77125 
L 325.178182 157.58415 
L 335.650909 151.8669 
L 346.123636 149.06025 
L 356.596364 142.9272 
L 367.069091 129.4137 
L 377.541818 112.9896 
L 388.014545 103.6341 
L 398.487273 101.24325 
" style="fill:none;stroke:#ff5900;stroke-linecap:square;stroke-width:1.5;"/>
   </g>
   <g id="line2d_24">
    <path clip-path="url(#pb94c56d0f8)" d="M 73.832727 161.2224 
L 84.305455 152.4906 
L 94.778182 155.817 
L 105.250909 156.33675 
L 115.723636 151.0353 
L 126.196364 155.817 
L 136.669091 179.62155 
L 147.141818 210.9105 
L 157.614545 230.76495 
L 168.087273 233.9874 
L 178.56 231.18075 
L 189.032727 233.05185 
L 199.505455 239.3928 
L 209.978182 244.1745 
L 220.450909 247.0851 
L 230.923636 251.97075 
L 241.396364 256.33665 
L 251.869091 253.3221 
L 262.341818 240.12045 
L 272.814545 219.95415 
L 283.287273 198.33255 
L 293.76 178.2702 
L 304.232727 165.69225 
L 314.705455 164.3409 
L 325.178182 166.10805 
L 335.650909 157.79205 
L 346.123636 135.54675 
L 356.596364 110.079 
L 367.069091 94.2786 
L 377.541818 89.80875 
L 388.014545 91.9917 
L 398.487273 95.7339 
" style="fill:none;stroke:#ff7600;stroke-linecap:square;stroke-width:1.5;"/>
   </g>
   <g id="line2d_25">
    <path clip-path="url(#pb94c56d0f8)" d="M 73.832727 155.08935 
L 84.305455 145.94175 
L 94.778182 141.264 
L 105.250909 143.9667 
L 115.723636 149.9958 
L 126.196364 159.45525 
L 136.669091 181.8045 
L 147.141818 219.6423 
L 157.614545 256.96035 
L 168.087273 277.12665 
L 178.56 278.16615 
L 189.032727 269.64225 
L 199.505455 261.32625 
L 209.978182 256.2327 
L 220.450909 246.14955 
L 230.923636 220.16205 
L 241.396364 180.24525 
L 251.869091 143.1351 
L 262.341818 123.48855 
L 272.814545 122.24115 
L 283.287273 131.7006 
L 293.76 145.52595 
L 304.232727 161.4303 
L 314.705455 175.25565 
L 325.178182 180.3492 
L 335.650909 176.71095 
L 346.123636 171.2016 
L 356.596364 166.93965 
L 367.069091 162.2619 
L 377.541818 154.04985 
L 388.014545 141.36795 
L 398.487273 130.0374 
" style="fill:none;stroke:#ff9400;stroke-linecap:square;stroke-width:1.5;"/>
   </g>
   <g id="line2d_26">
    <path clip-path="url(#pb94c56d0f8)" d="M 73.832727 108 
L 84.305455 114.13305 
L 94.778182 123.90435 
L 105.250909 138.3534 
L 115.723636 158.3118 
L 126.196364 181.5966 
L 136.669091 202.8024 
L 147.141818 218.49885 
L 157.614545 225.15165 
L 168.087273 219.53835 
L 178.56 205.19325 
L 189.032727 191.47185 
L 199.505455 186.1704 
L 209.978182 186.27435 
L 220.450909 184.0914 
L 230.923636 181.28475 
L 241.396364 182.844 
L 251.869091 182.11635 
L 262.341818 170.88975 
L 272.814545 149.9958 
L 283.287273 125.98335 
L 293.76 105.40125 
L 304.232727 93.6549 
L 314.705455 90.3285 
L 325.178182 88.56135 
L 335.650909 82.6362 
L 346.123636 76.815 
L 356.596364 80.973 
L 367.069091 96.66945 
L 377.541818 111.84615 
L 388.014545 116.5239 
L 398.487273 117.7713 
" style="fill:none;stroke:#ffb100;stroke-linecap:square;stroke-width:1.5;"/>
   </g>
   <g id="line2d_27">
    <path clip-path="url(#pb94c56d0f8)" d="M 73.832727 172.13715 
L 84.305455 173.80035 
L 94.778182 185.44275 
L 105.250909 195.7338 
L 115.723636 195.7338 
L 126.196364 192.4074 
L 136.669091 196.04565 
L 147.141818 207.5841 
L 157.614545 220.6818 
L 168.087273 228.582 
L 178.56 228.06225 
L 189.032727 218.70675 
L 199.505455 203.94585 
L 209.978182 192.51135 
L 220.450909 190.3284 
L 230.923636 193.8627 
L 241.396364 193.239 
L 251.869091 186.48225 
L 262.341818 179.7255 
L 272.814545 175.67145 
L 283.287273 171.09765 
L 293.76 167.6673 
L 304.232727 172.13715 
L 314.705455 181.90845 
L 325.178182 182.2203 
L 335.650909 166.0041 
L 346.123636 143.7588 
L 356.596364 129.10185 
L 367.069091 125.2557 
L 377.541818 128.79 
L 388.014545 130.76505 
L 398.487273 119.33055 
" style="fill:none;stroke:#ffcf00;stroke-linecap:square;stroke-width:1.5;"/>
   </g>
   <g id="line2d_28">
    <path clip-path="url(#pb94c56d0f8)" d="M 73.832727 155.71305 
L 84.305455 165.90015 
L 94.778182 167.35545 
L 105.250909 166.73175 
L 115.723636 172.76085 
L 126.196364 186.5862 
L 136.669091 203.73795 
L 147.141818 219.95415 
L 157.614545 228.3741 
L 168.087273 224.424 
L 178.56 213.4053 
L 189.032727 202.8024 
L 199.505455 195.318 
L 209.978182 190.1205 
L 220.450909 187.4178 
L 230.923636 184.19535 
L 241.396364 175.7754 
L 251.869091 162.36585 
L 262.341818 149.7879 
L 272.814545 146.0457 
L 283.287273 149.58 
L 293.76 148.22865 
L 304.232727 137.62575 
L 314.705455 127.9584 
L 325.178182 126.0873 
L 335.650909 126.9189 
L 346.123636 126.2952 
L 356.596364 127.7505 
L 367.069091 129.4137 
L 377.541818 126.39915 
L 388.014545 120.16215 
L 398.487273 116.5239 
" style="fill:none;stroke:#ffec00;stroke-linecap:square;stroke-width:1.5;"/>
   </g>
   <g id="line2d_29">
    <path clip-path="url(#pb94c56d0f8)" d="M 73.832727 161.95005 
L 84.305455 179.1018 
L 94.778182 192.6153 
L 105.250909 195.21405 
L 115.723636 193.75875 
L 126.196364 197.70885 
L 136.669091 206.44065 
L 147.141818 215.79615 
L 157.614545 221.40945 
L 168.087273 217.1475 
L 178.56 202.07475 
L 189.032727 183.2598 
L 199.505455 169.9542 
L 209.978182 166.6278 
L 220.450909 170.5779 
L 230.923636 179.3097 
L 241.396364 187.2099 
L 251.869091 186.48225 
L 262.341818 176.8149 
L 272.814545 165.3804 
L 283.287273 156.6486 
L 293.76 148.43655 
L 304.232727 139.3929 
L 314.705455 131.9085 
L 325.178182 126.9189 
L 335.650909 122.44905 
L 346.123636 117.3555 
L 356.596364 113.6133 
L 367.069091 112.46985 
L 377.541818 112.158 
L 388.014545 109.6632 
L 398.487273 102.49065 
" style="fill:none;stroke:#eeff00;stroke-linecap:square;stroke-width:1.5;"/>
   </g>
   <g id="line2d_30">
    <path clip-path="url(#pb94c56d0f8)" d="M 73.832727 120.99375 
L 84.305455 129.10185 
L 94.778182 152.6985 
L 105.250909 181.3887 
L 115.723636 200.7234 
L 126.196364 204.98535 
L 136.669091 202.69845 
L 147.141818 209.0394 
L 157.614545 225.15165 
L 168.087273 237.20985 
L 178.56 236.898 
L 189.032727 230.14125 
L 199.505455 224.8398 
L 209.978182 220.99365 
L 220.450909 217.66725 
L 230.923636 216.00405 
L 241.396364 214.8606 
L 251.869091 212.88555 
L 262.341818 207.3762 
L 272.814545 195.318 
L 283.287273 179.62155 
L 293.76 168.0831 
L 304.232727 164.133 
L 314.705455 162.57375 
L 325.178182 158.62365 
L 335.650909 155.08935 
L 346.123636 155.1933 
L 356.596364 158.41575 
L 367.069091 160.5987 
L 377.541818 157.16835 
L 388.014545 149.06025 
L 398.487273 138.45735 
" style="fill:none;stroke:#d1ff00;stroke-linecap:square;stroke-width:1.5;"/>
   </g>
   <g id="line2d_31">
    <path clip-path="url(#pb94c56d0f8)" d="M 73.832727 156.2328 
L 84.305455 160.49475 
L 94.778182 162.4698 
L 105.250909 163.7172 
L 115.723636 170.26605 
L 126.196364 183.77955 
L 136.669091 199.8918 
L 147.141818 213.92505 
L 157.614545 221.20155 
L 168.087273 216.62775 
L 178.56 210.0789 
L 189.032727 220.16205 
L 199.505455 248.5404 
L 209.978182 274.63185 
L 220.450909 280.66095 
L 230.923636 266.31585 
L 241.396364 245.94165 
L 251.869091 233.1558 
L 262.341818 227.1267 
L 272.814545 219.4344 
L 283.287273 207.9999 
L 293.76 195.1101 
L 304.232727 180.03735 
L 314.705455 161.32635 
L 325.178182 143.9667 
L 335.650909 134.8191 
L 346.123636 136.0665 
L 356.596364 141.57585 
L 367.069091 142.5114 
L 377.541818 135.027 
L 388.014545 128.27025 
L 398.487273 133.25985 
" style="fill:none;stroke:#b3ff00;stroke-linecap:square;stroke-width:1.5;"/>
   </g>
   <g id="line2d_32">
    <path clip-path="url(#pb94c56d0f8)" d="M 73.832727 178.16625 
L 84.305455 160.5987 
L 94.778182 136.37835 
L 105.250909 124.11225 
L 115.723636 137.41785 
L 126.196364 168.18705 
L 136.669091 197.29305 
L 147.141818 215.38035 
L 157.614545 227.23065 
L 168.087273 240.74415 
L 178.56 259.1433 
L 189.032727 274.32 
L 199.505455 275.67135 
L 209.978182 264.3408 
L 220.450909 247.39695 
L 230.923636 228.7899 
L 241.396364 211.63815 
L 251.869091 199.8918 
L 262.341818 193.239 
L 272.814545 188.8731 
L 283.287273 184.61115 
L 293.76 181.49265 
L 304.232727 183.8835 
L 314.705455 191.16 
L 325.178182 192.1995 
L 335.650909 179.82945 
L 346.123636 160.5987 
L 356.596364 143.9667 
L 367.069091 131.38875 
L 377.541818 117.7713 
L 388.014545 104.56965 
L 398.487273 101.24325 
" style="fill:none;stroke:#96ff00;stroke-linecap:square;stroke-width:1.5;"/>
   </g>
   <g id="line2d_33">
    <path clip-path="url(#pb94c56d0f8)" d="M 73.832727 101.86695 
L 84.305455 98.6445 
L 94.778182 103.53015 
L 105.250909 108.51975 
L 115.723636 113.09355 
L 126.196364 129.6216 
L 136.669091 166.0041 
L 147.141818 209.97495 
L 157.614545 241.6797 
L 168.087273 255.71295 
L 178.56 262.6776 
L 189.032727 270.88965 
L 199.505455 277.12665 
L 209.978182 273.80025 
L 220.450909 258.20775 
L 230.923636 233.5716 
L 241.396364 205.0893 
L 251.869091 177.6465 
L 262.341818 153.3222 
L 272.814545 132.1164 
L 283.287273 116.316 
L 293.76 107.89605 
L 304.232727 106.85655 
L 314.705455 112.05405 
L 325.178182 117.25155 
L 335.650909 115.79625 
L 346.123636 109.55925 
L 356.596364 108.31185 
L 367.069091 117.1476 
L 377.541818 130.0374 
L 388.014545 139.6008 
L 398.487273 143.9667 
" style="fill:none;stroke:#78ff00;stroke-linecap:square;stroke-width:1.5;"/>
   </g>
   <g id="line2d_34">
    <path clip-path="url(#pb94c56d0f8)" d="M 73.832727 153.9459 
L 84.305455 151.34715 
L 94.778182 148.22865 
L 105.250909 146.4615 
L 115.723636 150.6195 
L 126.196364 166.10805 
L 136.669091 189.80865 
L 147.141818 211.01445 
L 157.614545 220.57785 
L 168.087273 217.9791 
L 178.56 210.80655 
L 189.032727 206.1288 
L 199.505455 205.19325 
L 209.978182 205.5051 
L 220.450909 205.0893 
L 230.923636 200.20365 
L 241.396364 184.5072 
L 251.869091 160.1829 
L 262.341818 138.66525 
L 272.814545 128.89395 
L 283.287273 130.0374 
L 293.76 134.1954 
L 304.232727 136.8981 
L 314.705455 139.49685 
L 325.178182 144.07065 
L 335.650909 147.81285 
L 346.123636 145.11015 
L 356.596364 137.20995 
L 367.069091 131.38875 
L 377.541818 130.55715 
L 388.014545 129.6216 
L 398.487273 124.73595 
" style="fill:none;stroke:#5bff00;stroke-linecap:square;stroke-width:1.5;"/>
   </g>
   <g id="line2d_35">
    <path clip-path="url(#pb94c56d0f8)" d="M 73.832727 140.12055 
L 84.305455 162.6777 
L 94.778182 176.71095 
L 105.250909 179.9334 
L 115.723636 179.41365 
L 126.196364 184.19535 
L 136.669091 195.21405 
L 147.141818 208.6236 
L 157.614545 220.6818 
L 168.087273 227.5425 
L 178.56 229.4136 
L 189.032727 228.06225 
L 199.505455 224.32005 
L 209.978182 216.62775 
L 220.450909 204.0498 
L 230.923636 189.39285 
L 241.396364 175.5675 
L 251.869091 166.31595 
L 262.341818 166.93965 
L 272.814545 173.2806 
L 283.287273 173.17665 
L 293.76 164.9646 
L 304.232727 159.3513 
L 314.705455 161.2224 
L 325.178182 167.2515 
L 335.650909 171.8253 
L 346.123636 169.9542 
L 356.596364 161.0145 
L 367.069091 149.06025 
L 377.541818 141.6798 
L 388.014545 140.0166 
L 398.487273 135.4428 
" style="fill:none;stroke:#3dff00;stroke-linecap:square;stroke-width:1.5;"/>
   </g>
   <g id="line2d_36">
    <path clip-path="url(#pb94c56d0f8)" d="M 73.832727 125.56755 
L 84.305455 142.5114 
L 94.778182 164.9646 
L 105.250909 176.08725 
L 115.723636 171.72135 
L 126.196364 168.7068 
L 136.669091 182.6361 
L 147.141818 209.6631 
L 157.614545 232.42815 
L 168.087273 239.6007 
L 178.56 234.50715 
L 189.032727 224.8398 
L 199.505455 214.6527 
L 209.978182 202.90635 
L 220.450909 189.80865 
L 230.923636 182.2203 
L 241.396364 182.4282 
L 251.869091 183.15585 
L 262.341818 180.45315 
L 272.814545 177.95835 
L 283.287273 180.24525 
L 293.76 183.4677 
L 304.232727 180.3492 
L 314.705455 174.528 
L 325.178182 173.9043 
L 335.650909 173.6964 
L 346.123636 166.31595 
L 356.596364 158.1039 
L 367.069091 158.3118 
L 377.541818 164.02905 
L 388.014545 163.19745 
L 398.487273 148.7484 
" style="fill:none;stroke:#20ff00;stroke-linecap:square;stroke-width:1.5;"/>
   </g>
   <g id="line2d_37">
    <path clip-path="url(#pb94c56d0f8)" d="M 73.832727 160.07895 
L 84.305455 163.82115 
L 94.778182 166.4199 
L 105.250909 164.02905 
L 115.723636 165.90015 
L 126.196364 179.41365 
L 136.669091 198.4365 
L 147.141818 215.9001 
L 157.614545 229.30965 
L 168.087273 236.79405 
L 178.56 238.977 
L 189.032727 235.75455 
L 199.505455 228.27015 
L 209.978182 222.1371 
L 220.450909 223.48845 
L 230.923636 229.8294 
L 241.396364 231.38865 
L 251.869091 224.424 
L 262.341818 212.46975 
L 272.814545 197.397 
L 283.287273 179.82945 
L 293.76 164.86065 
L 304.232727 158.83155 
L 314.705455 162.4698 
L 325.178182 168.9147 
L 335.650909 169.9542 
L 346.123636 164.133 
L 356.596364 155.1933 
L 367.069091 146.6694 
L 377.541818 140.53635 
L 388.014545 136.2744 
L 398.487273 131.2848 
" style="fill:none;stroke:#04ff08;stroke-linecap:square;stroke-width:1.5;"/>
   </g>
   <g id="line2d_38">
    <path clip-path="url(#pb94c56d0f8)" d="M 73.832727 167.77125 
L 84.305455 175.1517 
L 94.778182 187.72965 
L 105.250909 197.8128 
L 115.723636 197.1891 
L 126.196364 188.4573 
L 136.669091 186.3783 
L 147.141818 199.2681 
L 157.614545 222.1371 
L 168.087273 243.135 
L 178.56 255.08925 
L 189.032727 260.1828 
L 199.505455 259.9749 
L 209.978182 249.06015 
L 220.450909 222.24105 
L 230.923636 184.81905 
L 241.396364 149.58 
L 251.869091 125.6715 
L 262.341818 112.3659 
L 272.814545 104.6736 
L 283.287273 102.90645 
L 293.76 107.89605 
L 304.232727 112.3659 
L 314.705455 106.85655 
L 325.178182 95.62995 
L 335.650909 94.38255 
L 346.123636 111.9501 
L 356.596364 140.2245 
L 367.069091 162.2619 
L 377.541818 170.88975 
L 388.014545 173.9043 
L 398.487273 176.8149 
" style="fill:none;stroke:#00ff21;stroke-linecap:square;stroke-width:1.5;"/>
   </g>
   <g id="line2d_39">
    <path clip-path="url(#pb94c56d0f8)" d="M 73.832727 111.01455 
L 84.305455 123.90435 
L 94.778182 140.53635 
L 105.250909 160.49475 
L 115.723636 179.62155 
L 126.196364 194.2785 
L 136.669091 205.60905 
L 147.141818 217.3554 
L 157.614545 230.2452 
L 168.087273 238.87305 
L 178.56 239.49675 
L 189.032727 233.3637 
L 199.505455 223.5924 
L 209.978182 211.3263 
L 220.450909 195.21405 
L 230.923636 176.3991 
L 241.396364 158.1039 
L 251.869091 142.40745 
L 262.341818 131.2848 
L 272.814545 127.3347 
L 283.287273 128.3742 
L 293.76 128.47815 
L 304.232727 123.69645 
L 314.705455 113.30145 
L 325.178182 103.842 
L 335.650909 105.921 
L 346.123636 118.1871 
L 356.596364 126.0873 
L 367.069091 120.78585 
L 377.541818 110.2869 
L 388.014545 107.27235 
L 398.487273 114.96465 
" style="fill:none;stroke:#00ff3f;stroke-linecap:square;stroke-width:1.5;"/>
   </g>
   <g id="line2d_40">
    <path clip-path="url(#pb94c56d0f8)" d="M 73.832727 152.0748 
L 84.305455 157.99995 
L 94.778182 169.01865 
L 105.250909 184.7151 
L 115.723636 194.0706 
L 126.196364 193.8627 
L 136.669091 195.42195 
L 147.141818 206.7525 
L 157.614545 221.61735 
L 168.087273 228.582 
L 178.56 217.66725 
L 189.032727 189.60075 
L 199.505455 157.0644 
L 209.978182 134.50725 
L 220.450909 128.1663 
L 230.923636 135.6507 
L 241.396364 150.30765 
L 251.869091 167.14755 
L 262.341818 181.90845 
L 272.814545 188.6652 
L 283.287273 185.7546 
L 293.76 179.41365 
L 304.232727 174.3201 
L 314.705455 172.0332 
L 325.178182 172.96875 
L 335.650909 175.25565 
L 346.123636 173.0727 
L 356.596364 161.8461 
L 367.069091 143.65485 
L 377.541818 128.1663 
L 388.014545 124.94385 
L 398.487273 130.97295 
" style="fill:none;stroke:#00ff5c;stroke-linecap:square;stroke-width:1.5;"/>
   </g>
   <g id="line2d_41">
    <path clip-path="url(#pb94c56d0f8)" d="M 73.832727 158.20785 
L 84.305455 165.48435 
L 94.778182 177.95835 
L 105.250909 188.35335 
L 115.723636 191.3679 
L 126.196364 189.18495 
L 136.669091 193.4469 
L 147.141818 210.4947 
L 157.614545 225.98325 
L 168.087273 226.2951 
L 178.56 220.4739 
L 189.032727 221.9292 
L 199.505455 225.56745 
L 209.978182 216.5238 
L 220.450909 191.7837 
L 230.923636 164.3409 
L 241.396364 151.34715 
L 251.869091 158.9355 
L 262.341818 175.25565 
L 272.814545 185.1309 
L 283.287273 183.15585 
L 293.76 173.9043 
L 304.232727 167.4594 
L 314.705455 167.97915 
L 325.178182 169.64235 
L 335.650909 169.3305 
L 346.123636 167.77125 
L 356.596364 167.35545 
L 367.069091 165.5883 
L 377.541818 160.28685 
L 388.014545 155.6091 
L 398.487273 156.2328 
" style="fill:none;stroke:#00ff7a;stroke-linecap:square;stroke-width:1.5;"/>
   </g>
   <g id="line2d_42">
    <path clip-path="url(#pb94c56d0f8)" d="M 73.832727 164.65275 
L 84.305455 148.02075 
L 94.778182 137.9376 
L 105.250909 141.0561 
L 115.723636 154.5696 
L 126.196364 175.1517 
L 136.669091 199.0602 
L 147.141818 218.6028 
L 157.614545 228.68595 
L 168.087273 228.89385 
L 178.56 219.12255 
L 189.032727 204.77745 
L 199.505455 195.318 
L 209.978182 190.64025 
L 220.450909 182.6361 
L 230.923636 167.2515 
L 241.396364 149.47605 
L 251.869091 137.106 
L 262.341818 131.80455 
L 272.814545 130.2453 
L 283.287273 127.85445 
L 293.76 120.99375 
L 304.232727 110.18295 
L 314.705455 99.684 
L 325.178182 95.83785 
L 335.650909 99.58005 
L 346.123636 103.2183 
L 356.596364 99.16425 
L 367.069091 92.4075 
L 377.541818 95.42205 
L 388.014545 111.22245 
L 398.487273 127.43865 
" style="fill:none;stroke:#00ff97;stroke-linecap:square;stroke-width:1.5;"/>
   </g>
   <g id="line2d_43">
    <path clip-path="url(#pb94c56d0f8)" d="M 73.832727 164.3409 
L 84.305455 160.8066 
L 94.778182 152.4906 
L 105.250909 148.9563 
L 115.723636 156.0249 
L 126.196364 169.9542 
L 136.669091 186.89805 
L 147.141818 206.02485 
L 157.614545 220.8897 
L 168.087273 224.52795 
L 178.56 220.266 
L 189.032727 215.38035 
L 199.505455 211.84605 
L 209.978182 208.10385 
L 220.450909 203.32215 
L 230.923636 193.96665 
L 241.396364 175.9833 
L 251.869091 153.5301 
L 262.341818 139.70475 
L 272.814545 143.1351 
L 283.287273 157.896 
L 293.76 171.4095 
L 304.232727 176.3991 
L 314.705455 172.34505 
L 325.178182 161.8461 
L 335.650909 149.9958 
L 346.123636 145.52595 
L 356.596364 151.34715 
L 367.069091 162.15795 
L 377.541818 169.01865 
L 388.014545 166.4199 
L 398.487273 158.1039 
" style="fill:none;stroke:#00ffb5;stroke-linecap:square;stroke-width:1.5;"/>
   </g>
   <g id="line2d_44">
    <path clip-path="url(#pb94c56d0f8)" d="M 73.832727 158.9355 
L 84.305455 180.24525 
L 94.778182 188.56125 
L 105.250909 190.1205 
L 115.723636 193.75875 
L 126.196364 198.6444 
L 136.669091 203.11425 
L 147.141818 209.6631 
L 157.614545 223.69635 
L 168.087273 245.6298 
L 178.56 264.23685 
L 189.032727 262.0539 
L 199.505455 232.63605 
L 209.978182 190.22445 
L 220.450909 156.2328 
L 230.923636 140.32845 
L 241.396364 137.5218 
L 251.869091 137.7297 
L 262.341818 135.2349 
L 272.814545 127.43865 
L 283.287273 114.237 
L 293.76 100.82745 
L 304.232727 95.7339 
L 314.705455 102.49065 
L 325.178182 114.54885 
L 335.650909 120.57795 
L 346.123636 114.96465 
L 356.596364 105.0894 
L 367.069091 104.36175 
L 377.541818 118.8108 
L 388.014545 141.78375 
L 398.487273 159.5592 
" style="fill:none;stroke:#00ffd3;stroke-linecap:square;stroke-width:1.5;"/>
   </g>
   <g id="line2d_45">
    <path clip-path="url(#pb94c56d0f8)" d="M 73.832727 159.7671 
L 84.305455 150.2037 
L 94.778182 144.48645 
L 105.250909 148.7484 
L 115.723636 159.03945 
L 126.196364 172.2411 
L 136.669091 189.7047 
L 147.141818 210.18285 
L 157.614545 226.19115 
L 168.087273 231.9084 
L 178.56 229.72545 
L 189.032727 224.2161 
L 199.505455 215.58825 
L 209.978182 200.0997 
L 220.450909 179.62155 
L 230.923636 168.81075 
L 241.396364 175.87935 
L 251.869091 188.0415 
L 262.341818 187.31385 
L 272.814545 170.47395 
L 283.287273 152.0748 
L 293.76 147.2931 
L 304.232727 155.817 
L 314.705455 165.48435 
L 325.178182 170.05815 
L 335.650909 171.2016 
L 346.123636 172.2411 
L 356.596364 176.607 
L 367.069091 180.9729 
L 377.541818 177.2307 
L 388.014545 164.133 
L 398.487273 146.6694 
" style="fill:none;stroke:#00fff6;stroke-linecap:square;stroke-width:1.5;"/>
   </g>
   <g id="line2d_46">
    <path clip-path="url(#pb94c56d0f8)" d="M 73.832727 171.4095 
L 84.305455 171.51345 
L 94.778182 169.43445 
L 105.250909 169.85025 
L 115.723636 173.59245 
L 126.196364 178.0623 
L 136.669091 184.923 
L 147.141818 201.45105 
L 157.614545 225.77535 
L 168.087273 244.48635 
L 178.56 251.451 
L 189.032727 255.8169 
L 199.505455 266.4198 
L 209.978182 278.16615 
L 220.450909 279.7254 
L 230.923636 269.22645 
L 241.396364 255.609 
L 251.869091 246.35745 
L 262.341818 238.45725 
L 272.814545 226.2951 
L 283.287273 209.35125 
L 293.76 188.6652 
L 304.232727 165.1725 
L 314.705455 145.11015 
L 325.178182 136.0665 
L 335.650909 134.71515 
L 346.123636 129.10185 
L 356.596364 117.25155 
L 367.069091 110.079 
L 377.541818 114.13305 
L 388.014545 123.5925 
L 398.487273 129.51765 
" style="fill:none;stroke:#00eaff;stroke-linecap:square;stroke-width:1.5;"/>
   </g>
   <g id="line2d_47">
    <path clip-path="url(#pb94c56d0f8)" d="M 73.832727 172.55295 
L 84.305455 183.6756 
L 94.778182 194.59035 
L 105.250909 194.6943 
L 115.723636 186.69015 
L 126.196364 184.923 
L 136.669091 197.397 
L 147.141818 215.2764 
L 157.614545 224.424 
L 168.087273 219.33045 
L 178.56 205.0893 
L 189.032727 189.4968 
L 199.505455 175.46355 
L 209.978182 161.95005 
L 220.450909 149.1642 
L 230.923636 143.44695 
L 241.396364 150.93135 
L 251.869091 166.73175 
L 262.341818 175.1517 
L 272.814545 166.6278 
L 283.287273 148.1247 
L 293.76 133.1559 
L 304.232727 129.8295 
L 314.705455 134.1954 
L 325.178182 137.83365 
L 335.650909 137.20995 
L 346.123636 137.3139 
L 356.596364 140.95215 
L 367.069091 143.86275 
L 377.541818 146.2536 
L 388.014545 153.01035 
L 398.487273 164.44485 
" style="fill:none;stroke:#00cdff;stroke-linecap:square;stroke-width:1.5;"/>
   </g>
   <g id="line2d_48">
    <path clip-path="url(#pb94c56d0f8)" d="M 73.832727 169.22655 
L 84.305455 179.62155 
L 94.778182 191.88765 
L 105.250909 201.03525 
L 115.723636 204.36165 
L 126.196364 203.2182 
L 136.669091 202.69845 
L 147.141818 209.0394 
L 157.614545 224.2161 
L 168.087273 237.83355 
L 178.56 238.5612 
L 189.032727 229.72545 
L 199.505455 221.7213 
L 209.978182 215.79615 
L 220.450909 209.35125 
L 230.923636 204.98535 
L 241.396364 207.68805 
L 251.869091 217.04355 
L 262.341818 223.5924 
L 272.814545 217.3554 
L 283.287273 198.4365 
L 293.76 176.607 
L 304.232727 161.2224 
L 314.705455 155.6091 
L 325.178182 157.4802 
L 335.650909 160.70265 
L 346.123636 162.4698 
L 356.596364 165.69225 
L 367.069091 170.37 
L 377.541818 170.05815 
L 388.014545 159.03945 
L 398.487273 144.07065 
" style="fill:none;stroke:#00afff;stroke-linecap:square;stroke-width:1.5;"/>
   </g>
   <g id="line2d_49">
    <path clip-path="url(#pb94c56d0f8)" d="M 73.832727 155.6091 
L 84.305455 164.44485 
L 94.778182 173.80035 
L 105.250909 179.7255 
L 115.723636 180.86895 
L 126.196364 183.4677 
L 136.669091 194.79825 
L 147.141818 212.1579 
L 157.614545 225.77535 
L 168.087273 227.5425 
L 178.56 214.2369 
L 189.032727 188.35335 
L 199.505455 160.3908 
L 209.978182 144.7983 
L 220.450909 144.48645 
L 230.923636 146.8773 
L 241.396364 139.70475 
L 251.869091 122.9688 
L 262.341818 107.06445 
L 272.814545 101.86695 
L 283.287273 108.72765 
L 293.76 121.3056 
L 304.232727 131.9085 
L 314.705455 138.1455 
L 325.178182 143.9667 
L 335.650909 151.0353 
L 346.123636 153.9459 
L 356.596364 148.64445 
L 367.069091 139.91265 
L 377.541818 133.46775 
L 388.014545 126.2952 
L 398.487273 115.4844 
" style="fill:none;stroke:#0092ff;stroke-linecap:square;stroke-width:1.5;"/>
   </g>
   <g id="line2d_50">
    <path clip-path="url(#pb94c56d0f8)" d="M 73.832727 127.23075 
L 84.305455 122.3451 
L 94.778182 126.19125 
L 105.250909 138.3534 
L 115.723636 152.0748 
L 126.196364 163.9251 
L 136.669091 179.5176 
L 147.141818 200.9313 
L 157.614545 223.28055 
L 168.087273 239.08095 
L 178.56 244.90215 
L 189.032727 243.135 
L 199.505455 238.1454 
L 209.978182 232.84395 
L 220.450909 230.34915 
L 230.923636 231.9084 
L 241.396364 234.50715 
L 251.869091 235.2348 
L 262.341818 229.93335 
L 272.814545 212.7816 
L 283.287273 186.27435 
L 293.76 162.36585 
L 304.232727 152.6985 
L 314.705455 155.71305 
L 325.178182 158.7276 
L 335.650909 155.92095 
L 346.123636 152.17875 
L 356.596364 154.46565 
L 367.069091 161.0145 
L 377.541818 163.7172 
L 388.014545 160.5987 
L 398.487273 160.70265 
" style="fill:none;stroke:#0074ff;stroke-linecap:square;stroke-width:1.5;"/>
   </g>
   <g id="line2d_51">
    <path clip-path="url(#pb94c56d0f8)" d="M 73.832727 137.5218 
L 84.305455 146.35755 
L 94.778182 154.46565 
L 105.250909 162.15795 
L 115.723636 171.51345 
L 126.196364 183.8835 
L 136.669091 198.95625 
L 147.141818 212.9895 
L 157.614545 221.82525 
L 168.087273 225.15165 
L 178.56 222.24105 
L 189.032727 214.75665 
L 199.505455 208.2078 
L 209.978182 203.0103 
L 220.450909 196.5654 
L 230.923636 187.93755 
L 241.396364 180.24525 
L 251.869091 175.9833 
L 262.341818 173.0727 
L 272.814545 167.6673 
L 283.287273 158.9355 
L 293.76 146.4615 
L 304.232727 133.67565 
L 314.705455 130.97295 
L 325.178182 141.0561 
L 335.650909 152.80245 
L 346.123636 154.9854 
L 356.596364 147.81285 
L 367.069091 140.6403 
L 377.541818 135.75465 
L 388.014545 126.19125 
L 398.487273 112.88565 
" style="fill:none;stroke:#0057ff;stroke-linecap:square;stroke-width:1.5;"/>
   </g>
   <g id="line2d_52">
    <path clip-path="url(#pb94c56d0f8)" d="M 73.832727 145.0062 
L 84.305455 147.39705 
L 94.778182 154.46565 
L 105.250909 165.69225 
L 115.723636 179.5176 
L 126.196364 191.26395 
L 136.669091 198.8523 
L 147.141818 208.51965 
L 157.614545 224.11215 
L 168.087273 238.7691 
L 178.56 240.4323 
L 189.032727 228.89385 
L 199.505455 216.83565 
L 209.978182 217.45935 
L 220.450909 228.47805 
L 230.923636 235.0269 
L 241.396364 229.4136 
L 251.869091 215.9001 
L 262.341818 205.713 
L 272.814545 204.15375 
L 283.287273 205.713 
L 293.76 200.5155 
L 304.232727 186.5862 
L 314.705455 173.0727 
L 325.178182 167.6673 
L 335.650909 165.90015 
L 346.123636 158.9355 
L 356.596364 146.6694 
L 367.069091 136.58625 
L 377.541818 133.88355 
L 388.014545 131.18085 
L 398.487273 119.8503 
" style="fill:none;stroke:#0039ff;stroke-linecap:square;stroke-width:1.5;"/>
   </g>
   <g id="line2d_53">
    <path clip-path="url(#pb94c56d0f8)" d="M 73.832727 148.7484 
L 84.305455 157.2723 
L 94.778182 164.3409 
L 105.250909 161.32635 
L 115.723636 155.08935 
L 126.196364 159.87105 
L 136.669091 181.70055 
L 147.141818 212.5737 
L 157.614545 237.3138 
L 168.087273 246.56535 
L 178.56 242.19945 
L 189.032727 230.55705 
L 199.505455 217.87515 
L 209.978182 203.634 
L 220.450909 183.6756 
L 230.923636 161.53425 
L 241.396364 143.86275 
L 251.869091 129.51765 
L 262.341818 112.67775 
L 272.814545 98.2287 
L 283.287273 99.2682 
L 293.76 117.5634 
L 304.232727 140.2245 
L 314.705455 149.7879 
L 325.178182 143.343 
L 335.650909 136.58625 
L 346.123636 138.66525 
L 356.596364 135.75465 
L 367.069091 112.88565 
L 377.541818 78.79005 
L 388.014545 54.5697 
L 398.487273 46.4616 
" style="fill:none;stroke:#001cff;stroke-linecap:square;stroke-width:1.5;"/>
   </g>
   <g id="line2d_54">
    <path clip-path="url(#pb94c56d0f8)" d="M 73.832727 148.1247 
L 84.305455 166.8357 
L 94.778182 180.3492 
L 105.250909 180.03735 
L 115.723636 176.71095 
L 126.196364 184.5072 
L 136.669091 201.555 
L 147.141818 215.79615 
L 157.614545 221.82525 
L 168.087273 222.5529 
L 178.56 221.20155 
L 189.032727 220.57785 
L 199.505455 223.3845 
L 209.978182 226.60695 
L 220.450909 222.86475 
L 230.923636 210.2868 
L 241.396364 196.5654 
L 251.869091 188.35335 
L 262.341818 184.40325 
L 272.814545 178.2702 
L 283.287273 169.43445 
L 293.76 165.3804 
L 304.232727 168.9147 
L 314.705455 169.85025 
L 325.178182 162.4698 
L 335.650909 154.46565 
L 346.123636 153.3222 
L 356.596364 158.62365 
L 367.069091 164.3409 
L 377.541818 163.82115 
L 388.014545 156.54465 
L 398.487273 147.60495 
" style="fill:none;stroke:#0800ff;stroke-linecap:square;stroke-width:1.5;"/>
   </g>
   <g id="line2d_55">
    <path clip-path="url(#pb94c56d0f8)" d="M 73.832727 168.4989 
L 84.305455 168.7068 
L 94.778182 176.3991 
L 105.250909 181.70055 
L 115.723636 183.15585 
L 126.196364 185.7546 
L 136.669091 194.4864 
L 147.141818 209.0394 
L 157.614545 223.5924 
L 168.087273 232.42815 
L 178.56 235.54665 
L 189.032727 234.92295 
L 199.505455 229.51755 
L 209.978182 219.95415 
L 220.450909 211.3263 
L 230.923636 206.44065 
L 241.396364 203.4261 
L 251.869091 195.7338 
L 262.341818 182.53215 
L 272.814545 172.8648 
L 283.287273 172.449 
L 293.76 176.71095 
L 304.232727 177.33465 
L 314.705455 169.5384 
L 325.178182 154.1538 
L 335.650909 136.79415 
L 346.123636 125.0478 
L 356.596364 117.87525 
L 367.069091 108.93555 
L 377.541818 96.7734 
L 388.014545 86.7942 
L 398.487273 82.74015 
" style="fill:none;stroke:#2500ff;stroke-linecap:square;stroke-width:1.5;"/>
   </g>
   <g id="line2d_56">
    <path clip-path="url(#pb94c56d0f8)" d="M 73.832727 133.5717 
L 84.305455 136.8981 
L 94.778182 152.4906 
L 105.250909 178.8939 
L 115.723636 199.2681 
L 126.196364 204.0498 
L 136.669091 203.73795 
L 147.141818 211.3263 
L 157.614545 223.90425 
L 168.087273 228.27015 
L 178.56 219.12255 
L 189.032727 205.2972 
L 199.505455 196.46145 
L 209.978182 191.47185 
L 220.450909 185.3388 
L 230.923636 179.82945 
L 241.396364 177.8544 
L 251.869091 178.99785 
L 262.341818 181.1808 
L 272.814545 181.49265 
L 283.287273 180.86895 
L 293.76 181.90845 
L 304.232727 184.2993 
L 314.705455 184.61115 
L 325.178182 178.37415 
L 335.650909 165.90015 
L 346.123636 153.1143 
L 356.596364 142.40745 
L 367.069091 132.01245 
L 377.541818 121.0977 
L 388.014545 115.2765 
L 398.487273 119.8503 
" style="fill:none;stroke:#4300ff;stroke-linecap:square;stroke-width:1.5;"/>
   </g>
   <g id="line2d_57">
    <path clip-path="url(#pb94c56d0f8)" d="M 73.832727 141.0561 
L 84.305455 134.50725 
L 94.778182 137.00205 
L 105.250909 141.0561 
L 115.723636 148.85235 
L 126.196364 167.2515 
L 136.669091 192.51135 
L 147.141818 215.0685 
L 157.614545 227.5425 
L 168.087273 228.06225 
L 178.56 219.8502 
L 189.032727 203.73795 
L 199.505455 181.90845 
L 209.978182 165.5883 
L 220.450909 162.57375 
L 230.923636 164.5488 
L 241.396364 159.975 
L 251.869091 147.501 
L 262.341818 133.3638 
L 272.814545 122.553 
L 283.287273 114.75675 
L 293.76 108.72765 
L 304.232727 102.28275 
L 314.705455 93.55095 
L 325.178182 85.85865 
L 335.650909 86.5863 
L 346.123636 98.2287 
L 356.596364 114.13305 
L 367.069091 123.48855 
L 377.541818 123.5925 
L 388.014545 122.44905 
L 398.487273 127.5426 
" style="fill:none;stroke:#6000ff;stroke-linecap:square;stroke-width:1.5;"/>
   </g>
   <g id="line2d_58">
    <path clip-path="url(#pb94c56d0f8)" d="M 73.832727 208.72755 
L 84.305455 214.4448 
L 94.778182 212.05395 
L 105.250909 203.634 
L 115.723636 193.55085 
L 126.196364 185.23485 
L 136.669091 186.06645 
L 147.141818 201.45105 
L 157.614545 221.0976 
L 168.087273 228.89385 
L 178.56 226.60695 
L 189.032727 228.1662 
L 199.505455 238.5612 
L 209.978182 247.5009 
L 220.450909 241.8876 
L 230.923636 221.82525 
L 241.396364 200.7234 
L 251.869091 189.7047 
L 262.341818 188.97705 
L 272.814545 190.64025 
L 283.287273 185.23485 
L 293.76 171.51345 
L 304.232727 157.2723 
L 314.705455 147.18915 
L 325.178182 137.106 
L 335.650909 124.2162 
L 346.123636 115.4844 
L 356.596364 118.49895 
L 367.069091 131.59665 
L 377.541818 149.06025 
L 388.014545 163.0935 
L 398.487273 166.4199 
" style="fill:none;stroke:#7e00ff;stroke-linecap:square;stroke-width:1.5;"/>
   </g>
   <g id="line2d_59">
    <path clip-path="url(#pb94c56d0f8)" d="M 73.832727 142.3035 
L 84.305455 163.40535 
L 94.778182 181.5966 
L 105.250909 189.18495 
L 115.723636 190.43235 
L 126.196364 192.6153 
L 136.669091 200.3076 
L 147.141818 212.3658 
L 157.614545 221.5134 
L 168.087273 221.20155 
L 178.56 213.50925 
L 189.032727 206.44065 
L 199.505455 201.24315 
L 209.978182 192.1995 
L 220.450909 179.82945 
L 230.923636 172.55295 
L 241.396364 174.7359 
L 251.869091 179.1018 
L 262.341818 172.2411 
L 272.814545 157.4802 
L 283.287273 153.21825 
L 293.76 165.06855 
L 304.232727 174.42405 
L 314.705455 164.9646 
L 325.178182 144.69435 
L 335.650909 131.4927 
L 346.123636 133.88355 
L 356.596364 145.52595 
L 367.069091 154.7775 
L 377.541818 156.2328 
L 388.014545 150.8274 
L 398.487273 142.82325 
" style="fill:none;stroke:#9b00ff;stroke-linecap:square;stroke-width:1.5;"/>
   </g>
   <g id="line2d_60">
    <path clip-path="url(#pb94c56d0f8)" d="M 73.832727 114.237 
L 84.305455 146.8773 
L 94.778182 174.21615 
L 105.250909 190.3284 
L 115.723636 194.0706 
L 126.196364 195.21405 
L 136.669091 203.4261 
L 147.141818 215.9001 
L 157.614545 222.7608 
L 168.087273 220.266 
L 178.56 213.30135 
L 189.032727 206.85645 
L 199.505455 200.61945 
L 209.978182 194.38245 
L 220.450909 190.5363 
L 230.923636 189.80865 
L 241.396364 190.64025 
L 251.869091 190.3284 
L 262.341818 186.06645 
L 272.814545 176.3991 
L 283.287273 164.65275 
L 293.76 156.12885 
L 304.232727 150.6195 
L 314.705455 144.5904 
L 325.178182 138.5613 
L 335.650909 136.17045 
L 346.123636 137.41785 
L 356.596364 139.70475 
L 367.069091 142.5114 
L 377.541818 143.65485 
L 388.014545 137.41785 
L 398.487273 125.0478 
" style="fill:none;stroke:#b900ff;stroke-linecap:square;stroke-width:1.5;"/>
   </g>
   <g id="line2d_61">
    <path clip-path="url(#pb94c56d0f8)" d="M 73.832727 156.2328 
L 84.305455 162.78165 
L 94.778182 165.1725 
L 105.250909 157.0644 
L 115.723636 150.72345 
L 126.196364 162.36585 
L 136.669091 191.47185 
L 147.141818 220.16205 
L 157.614545 231.9084 
L 168.087273 224.52795 
L 178.56 211.3263 
L 189.032727 206.3367 
L 199.505455 212.88555 
L 209.978182 227.02275 
L 220.450909 240.0165 
L 230.923636 246.14955 
L 241.396364 244.48635 
L 251.869091 234.6111 
L 262.341818 216.83565 
L 272.814545 194.4864 
L 283.287273 174.00825 
L 293.76 163.19745 
L 304.232727 165.3804 
L 314.705455 172.13715 
L 325.178182 172.34505 
L 335.650909 165.48435 
L 346.123636 159.7671 
L 356.596364 158.5197 
L 367.069091 156.12885 
L 377.541818 147.39705 
L 388.014545 135.96255 
L 398.487273 125.8794 
" style="fill:none;stroke:#d600ff;stroke-linecap:square;stroke-width:1.5;"/>
   </g>
   <g id="line2d_62">
    <path clip-path="url(#pb94c56d0f8)" d="M 73.832727 176.08725 
L 84.305455 177.75045 
L 94.778182 170.5779 
L 105.250909 162.36585 
L 115.723636 164.7567 
L 126.196364 180.24525 
L 136.669091 199.0602 
L 147.141818 213.30135 
L 157.614545 224.0082 
L 168.087273 230.8689 
L 178.56 227.43855 
L 189.032727 211.3263 
L 199.505455 189.80865 
L 209.978182 176.29515 
L 220.450909 179.5176 
L 230.923636 188.97705 
L 241.396364 181.5966 
L 251.869091 155.71305 
L 262.341818 138.04155 
L 272.814545 147.0852 
L 283.287273 172.449 
L 293.76 188.76915 
L 304.232727 184.7151 
L 314.705455 170.26605 
L 325.178182 158.3118 
L 335.650909 151.97085 
L 346.123636 148.7484 
L 356.596364 145.73385 
L 367.069091 142.0956 
L 377.541818 136.8981 
L 388.014545 126.2952 
L 398.487273 107.7921 
" style="fill:none;stroke:#f800fd;stroke-linecap:square;stroke-width:1.5;"/>
   </g>
   <g id="line2d_63">
    <path clip-path="url(#pb94c56d0f8)" d="M 73.832727 158.20785 
L 84.305455 164.3409 
L 94.778182 179.62155 
L 105.250909 192.09555 
L 115.723636 194.0706 
L 126.196364 194.17455 
L 136.669091 203.8419 
L 147.141818 219.0186 
L 157.614545 222.65685 
L 168.087273 210.7026 
L 178.56 196.7733 
L 189.032727 193.34295 
L 199.505455 198.8523 
L 209.978182 203.32215 
L 220.450909 202.8024 
L 230.923636 198.6444 
L 241.396364 189.80865 
L 251.869091 179.5176 
L 262.341818 174.42405 
L 272.814545 170.9937 
L 283.287273 163.19745 
L 293.76 154.7775 
L 304.232727 151.55505 
L 314.705455 153.1143 
L 325.178182 153.01035 
L 335.650909 147.39705 
L 346.123636 137.20995 
L 356.596364 122.44905 
L 367.069091 105.7131 
L 377.541818 97.3971 
L 388.014545 102.90645 
L 398.487273 110.80665 
" style="fill:none;stroke:#ff00e7;stroke-linecap:square;stroke-width:1.5;"/>
   </g>
   <g id="line2d_64">
    <path clip-path="url(#pb94c56d0f8)" d="M 73.832727 187.6257 
L 84.305455 184.0914 
L 94.778182 177.2307 
L 105.250909 174.7359 
L 115.723636 180.1413 
L 126.196364 191.05605 
L 136.669091 204.77745 
L 147.141818 219.33045 
L 157.614545 227.9583 
L 168.087273 219.53835 
L 178.56 194.4864 
L 189.032727 167.0436 
L 199.505455 147.501 
L 209.978182 137.41785 
L 220.450909 135.2349 
L 230.923636 134.29935 
L 241.396364 130.55715 
L 251.869091 130.4532 
L 262.341818 137.3139 
L 272.814545 140.6403 
L 283.287273 130.97295 
L 293.76 115.58835 
L 304.232727 111.5343 
L 314.705455 125.8794 
L 325.178182 149.1642 
L 335.650909 167.2515 
L 346.123636 176.29515 
L 356.596364 179.41365 
L 367.069091 179.3097 
L 377.541818 179.41365 
L 388.014545 181.70055 
L 398.487273 184.61115 
" style="fill:none;stroke:#ff00c9;stroke-linecap:square;stroke-width:1.5;"/>
   </g>
   <g id="line2d_65">
    <path clip-path="url(#pb94c56d0f8)" d="M 73.832727 148.02075 
L 84.305455 153.42615 
L 94.778182 157.896 
L 105.250909 162.98955 
L 115.723636 172.0332 
L 126.196364 185.9625 
L 136.669091 202.49055 
L 147.141818 217.87515 
L 157.614545 227.85435 
L 168.087273 231.18075 
L 178.56 232.5321 
L 189.032727 235.2348 
L 199.505455 237.5217 
L 209.978182 233.67555 
L 220.450909 222.7608 
L 230.923636 208.31175 
L 241.396364 193.239 
L 251.869091 182.0124 
L 262.341818 181.5966 
L 272.814545 191.47185 
L 283.287273 203.4261 
L 293.76 209.97495 
L 304.232727 209.97495 
L 314.705455 205.5051 
L 325.178182 196.5654 
L 335.650909 185.85855 
L 346.123636 175.25565 
L 356.596364 162.15795 
L 367.069091 147.7089 
L 377.541818 138.9771 
L 388.014545 137.9376 
L 398.487273 138.66525 
" style="fill:none;stroke:#ff00ac;stroke-linecap:square;stroke-width:1.5;"/>
   </g>
   <g id="line2d_66">
    <path clip-path="url(#pb94c56d0f8)" d="M 73.832727 85.131 
L 84.305455 87.21 
L 94.778182 102.28275 
L 105.250909 132.84405 
L 115.723636 167.2515 
L 126.196364 191.3679 
L 136.669091 204.8814 
L 147.141818 216.21195 
L 157.614545 229.10175 
L 168.087273 239.08095 
L 178.56 239.28885 
L 189.032727 233.25975 
L 199.505455 232.1163 
L 209.978182 237.41775 
L 220.450909 241.36785 
L 230.923636 239.3928 
L 241.396364 229.2057 
L 251.869091 211.1184 
L 262.341818 194.6943 
L 272.814545 188.35335 
L 283.287273 187.72965 
L 293.76 184.5072 
L 304.232727 178.4781 
L 314.705455 173.4885 
L 325.178182 171.09765 
L 335.650909 166.73175 
L 346.123636 156.6486 
L 356.596364 143.65485 
L 367.069091 134.6112 
L 377.541818 130.0374 
L 388.014545 127.02285 
L 398.487273 127.23075 
" style="fill:none;stroke:#ff008e;stroke-linecap:square;stroke-width:1.5;"/>
   </g>
   <g id="line2d_67">
    <path clip-path="url(#pb94c56d0f8)" d="M 73.832727 155.08935 
L 84.305455 157.58415 
L 94.778182 162.054 
L 105.250909 162.2619 
L 115.723636 160.49475 
L 126.196364 167.2515 
L 136.669091 187.4178 
L 147.141818 212.46975 
L 157.614545 227.1267 
L 168.087273 225.2556 
L 178.56 217.45935 
L 189.032727 216.00405 
L 199.505455 221.20155 
L 209.978182 224.11215 
L 220.450909 218.3949 
L 230.923636 206.9604 
L 241.396364 197.08515 
L 251.869091 193.8627 
L 262.341818 196.9812 
L 272.814545 199.0602 
L 283.287273 192.30345 
L 293.76 176.08725 
L 304.232727 156.33675 
L 314.705455 143.5509 
L 325.178182 142.5114 
L 335.650909 146.35755 
L 346.123636 147.2931 
L 356.596364 143.86275 
L 367.069091 139.8087 
L 377.541818 138.04155 
L 388.014545 138.24945 
L 398.487273 141.16005 
" style="fill:none;stroke:#ff0071;stroke-linecap:square;stroke-width:1.5;"/>
   </g>
   <g id="line2d_68">
    <path clip-path="url(#pb94c56d0f8)" d="M 73.832727 172.55295 
L 84.305455 186.89805 
L 94.778182 199.16415 
L 105.250909 204.0498 
L 115.723636 200.82735 
L 126.196364 197.70885 
L 136.669091 204.2577 
L 147.141818 217.04355 
L 157.614545 220.99365 
L 168.087273 207.5841 
L 178.56 184.2993 
L 189.032727 165.90015 
L 199.505455 159.975 
L 209.978182 162.054 
L 220.450909 160.3908 
L 230.923636 148.5405 
L 241.396364 133.5717 
L 251.869091 127.5426 
L 262.341818 133.1559 
L 272.814545 138.7692 
L 283.287273 133.25985 
L 293.76 120.99375 
L 304.232727 114.6528 
L 314.705455 120.57795 
L 325.178182 132.84405 
L 335.650909 138.7692 
L 346.123636 131.38875 
L 356.596364 115.9002 
L 367.069091 104.36175 
L 377.541818 102.90645 
L 388.014545 107.1684 
L 398.487273 106.85655 
" style="fill:none;stroke:#ff0053;stroke-linecap:square;stroke-width:1.5;"/>
   </g>
   <g id="line2d_69">
    <path clip-path="url(#pb94c56d0f8)" d="M 73.832727 190.7442 
L 84.305455 195.83775 
L 94.778182 194.38245 
L 105.250909 189.7047 
L 115.723636 185.65065 
L 126.196364 189.18495 
L 136.669091 202.69845 
L 147.141818 217.1475 
L 157.614545 220.8897 
L 168.087273 216.41985 
L 178.56 214.13295 
L 189.032727 213.71715 
L 199.505455 204.2577 
L 209.978182 184.2993 
L 220.450909 167.0436 
L 230.923636 159.5592 
L 241.396364 158.41575 
L 251.869091 159.24735 
L 262.341818 163.82115 
L 272.814545 177.95835 
L 283.287273 200.5155 
L 293.76 219.33045 
L 304.232727 223.07265 
L 314.705455 214.96455 
L 325.178182 207.68805 
L 335.650909 206.5446 
L 346.123636 205.19325 
L 356.596364 198.4365 
L 367.069091 187.6257 
L 377.541818 175.5675 
L 388.014545 167.2515 
L 398.487273 167.0436 
" style="fill:none;stroke:#ff0035;stroke-linecap:square;stroke-width:1.5;"/>
   </g>
   <g id="line2d_70">
    <path clip-path="url(#pb94c56d0f8)" d="M 73.832727 151.969271 
L 84.305455 156.300696 
L 94.778182 161.011605 
L 105.250909 164.823017 
L 115.723636 168.626535 
L 126.196364 176.191463 
L 136.669091 190.876309 
L 147.141818 210.63023 
L 157.614545 227.434866 
L 168.087273 233.90924 
L 178.56 229.972562 
L 189.032727 221.561822 
L 199.505455 214.081107 
L 209.978182 208.458069 
L 220.450909 202.843717 
L 230.923636 196.255392 
L 241.396364 189.430219 
L 251.869091 183.256116 
L 262.341818 177.730976 
L 272.814545 172.300575 
L 283.287273 166.708065 
L 293.76 161.331087 
L 304.232727 156.710181 
L 314.705455 152.703237 
L 325.178182 148.662082 
L 335.650909 144.442502 
L 346.123636 140.371872 
L 356.596364 136.537828 
L 367.069091 132.783522 
L 377.541818 129.26817 
L 388.014545 126.443888 
L 398.487273 124.490944 
" style="fill:none;stroke:#000000;stroke-linecap:square;stroke-width:2;"/>
   </g>
   <g id="patch_3">
    <path d="M 57.6 307.584 
L 57.6 41.472 
" style="fill:none;stroke:#000000;stroke-linecap:square;stroke-linejoin:miter;stroke-width:0.8;"/>
   </g>
   <g id="patch_4">
    <path d="M 414.72 307.584 
L 414.72 41.472 
" style="fill:none;stroke:#000000;stroke-linecap:square;stroke-linejoin:miter;stroke-width:0.8;"/>
   </g>
   <g id="patch_5">
    <path d="M 57.6 307.584 
L 414.72 307.584 
" style="fill:none;stroke:#000000;stroke-linecap:square;stroke-linejoin:miter;stroke-width:0.8;"/>
   </g>
   <g id="patch_6">
    <path d="M 57.6 41.472 
L 414.72 41.472 
" style="fill:none;stroke:#000000;stroke-linecap:square;stroke-linejoin:miter;stroke-width:0.8;"/>
   </g>
   <g id="text_21">
    <!-- $V_{rms}=$ 13.661831 -->
    <defs>
     <path d="M 20.609375 0 
L 7.8125 72.90625 
L 17.484375 72.90625 
L 28.078125 10.203125 
L 63.484375 72.90625 
L 74.21875 72.90625 
L 32.078125 0 
z
" id="DejaVuSans-Oblique-56"/>
     <path d="M 44.578125 46.390625 
Q 43.21875 47.125 41.453125 47.515625 
Q 39.703125 47.90625 37.703125 47.90625 
Q 30.515625 47.90625 25.140625 42.453125 
Q 19.78125 37.015625 18.015625 27.875 
L 12.5 0 
L 3.515625 0 
L 14.203125 54.6875 
L 23.1875 54.6875 
L 21.484375 46.1875 
Q 25.046875 50.921875 30 53.453125 
Q 34.96875 56 40.578125 56 
Q 42.046875 56 43.453125 55.828125 
Q 44.875 55.671875 46.296875 55.28125 
z
" id="DejaVuSans-Oblique-72"/>
     <path d="M 89.796875 33.015625 
L 83.40625 0 
L 74.421875 0 
L 80.71875 32.71875 
Q 81.109375 34.8125 81.296875 36.328125 
Q 81.5 37.84375 81.5 38.921875 
Q 81.5 43.3125 79.046875 45.75 
Q 76.609375 48.1875 72.21875 48.1875 
Q 65.671875 48.1875 60.546875 43.28125 
Q 55.421875 38.375 53.90625 30.515625 
L 47.90625 0 
L 38.921875 0 
L 45.3125 32.71875 
Q 45.703125 34.515625 45.890625 36.046875 
Q 46.09375 37.59375 46.09375 38.8125 
Q 46.09375 43.265625 43.65625 45.71875 
Q 41.21875 48.1875 36.921875 48.1875 
Q 30.28125 48.1875 25.140625 43.28125 
Q 20.015625 38.375 18.5 30.515625 
L 12.5 0 
L 3.515625 0 
L 14.203125 54.6875 
L 23.1875 54.6875 
L 21.484375 46.1875 
Q 25.140625 50.984375 30.046875 53.484375 
Q 34.96875 56 40.578125 56 
Q 46.53125 56 50.359375 52.875 
Q 54.203125 49.75 54.984375 44.1875 
Q 59.078125 49.953125 64.46875 52.96875 
Q 69.875 56 75.875 56 
Q 82.90625 56 86.734375 51.953125 
Q 90.578125 47.90625 90.578125 40.484375 
Q 90.578125 38.875 90.375 36.9375 
Q 90.1875 35.015625 89.796875 33.015625 
z
" id="DejaVuSans-Oblique-6d"/>
     <path d="M 50 53.078125 
L 48.296875 44.578125 
Q 44.734375 46.53125 40.765625 47.5 
Q 36.8125 48.484375 32.625 48.484375 
Q 25.53125 48.484375 21.453125 46.0625 
Q 17.390625 43.65625 17.390625 39.5 
Q 17.390625 34.671875 26.859375 32.078125 
Q 27.59375 31.890625 27.9375 31.78125 
L 30.8125 30.90625 
Q 39.796875 28.421875 42.796875 25.6875 
Q 45.796875 22.953125 45.796875 18.21875 
Q 45.796875 9.515625 38.890625 4.046875 
Q 31.984375 -1.421875 20.796875 -1.421875 
Q 16.453125 -1.421875 11.671875 -0.578125 
Q 6.890625 0.25 1.125 2 
L 2.875 11.28125 
Q 7.8125 8.734375 12.59375 7.421875 
Q 17.390625 6.109375 21.78125 6.109375 
Q 28.375 6.109375 32.5 8.9375 
Q 36.625 11.765625 36.625 16.109375 
Q 36.625 20.796875 25.78125 23.6875 
L 24.859375 23.921875 
L 21.78125 24.703125 
Q 14.9375 26.515625 11.765625 29.46875 
Q 8.59375 32.421875 8.59375 37.015625 
Q 8.59375 45.75 15.15625 50.875 
Q 21.734375 56 33.015625 56 
Q 37.453125 56 41.671875 55.265625 
Q 45.90625 54.546875 50 53.078125 
z
" id="DejaVuSans-Oblique-73"/>
     <path d="M 10.59375 45.40625 
L 73.1875 45.40625 
L 73.1875 37.203125 
L 10.59375 37.203125 
z
M 10.59375 25.484375 
L 73.1875 25.484375 
L 73.1875 17.1875 
L 10.59375 17.1875 
z
" id="DejaVuSans-3d"/>
    </defs>
    <g transform="translate(325.178182 166.708065)scale(0.1 -0.1)">
     <use transform="translate(0 0.78125)" xlink:href="#DejaVuSans-Oblique-56"/>
     <use transform="translate(68.408203 -15.625)scale(0.7)" xlink:href="#DejaVuSans-Oblique-72"/>
     <use transform="translate(97.1875 -15.625)scale(0.7)" xlink:href="#DejaVuSans-Oblique-6d"/>
     <use transform="translate(165.375977 -15.625)scale(0.7)" xlink:href="#DejaVuSans-Oblique-73"/>
     <use transform="translate(224.0625 0.78125)" xlink:href="#DejaVuSans-3d"/>
     <use transform="translate(327.333984 0.78125)" xlink:href="#DejaVuSans-20"/>
     <use transform="translate(359.121094 0.78125)" xlink:href="#DejaVuSans-31"/>
     <use transform="translate(422.744141 0.78125)" xlink:href="#DejaVuSans-33"/>
     <use transform="translate(486.367188 0.78125)" xlink:href="#DejaVuSans-2e"/>
     <use transform="translate(518.154297 0.78125)" xlink:href="#DejaVuSans-36"/>
     <use transform="translate(581.777344 0.78125)" xlink:href="#DejaVuSans-36"/>
     <use transform="translate(645.400391 0.78125)" xlink:href="#DejaVuSans-31"/>
     <use transform="translate(709.023438 0.78125)" xlink:href="#DejaVuSans-38"/>
     <use transform="translate(772.646484 0.78125)" xlink:href="#DejaVuSans-33"/>
     <use transform="translate(836.269531 0.78125)" xlink:href="#DejaVuSans-31"/>
    </g>
   </g>
   <g id="text_22">
    <!-- Channel 30 - Unit 1 -->
    <defs>
     <path d="M 64.40625 67.28125 
L 64.40625 56.890625 
Q 59.421875 61.53125 53.78125 63.8125 
Q 48.140625 66.109375 41.796875 66.109375 
Q 29.296875 66.109375 22.65625 58.46875 
Q 16.015625 50.828125 16.015625 36.375 
Q 16.015625 21.96875 22.65625 14.328125 
Q 29.296875 6.6875 41.796875 6.6875 
Q 48.140625 6.6875 53.78125 8.984375 
Q 59.421875 11.28125 64.40625 15.921875 
L 64.40625 5.609375 
Q 59.234375 2.09375 53.4375 0.328125 
Q 47.65625 -1.421875 41.21875 -1.421875 
Q 24.65625 -1.421875 15.125 8.703125 
Q 5.609375 18.84375 5.609375 36.375 
Q 5.609375 53.953125 15.125 64.078125 
Q 24.65625 74.21875 41.21875 74.21875 
Q 47.75 74.21875 53.53125 72.484375 
Q 59.328125 70.75 64.40625 67.28125 
z
" id="DejaVuSans-43"/>
     <path d="M 54.890625 33.015625 
L 54.890625 0 
L 45.90625 0 
L 45.90625 32.71875 
Q 45.90625 40.484375 42.875 44.328125 
Q 39.84375 48.1875 33.796875 48.1875 
Q 26.515625 48.1875 22.3125 43.546875 
Q 18.109375 38.921875 18.109375 30.90625 
L 18.109375 0 
L 9.078125 0 
L 9.078125 75.984375 
L 18.109375 75.984375 
L 18.109375 46.1875 
Q 21.34375 51.125 25.703125 53.5625 
Q 30.078125 56 35.796875 56 
Q 45.21875 56 50.046875 50.171875 
Q 54.890625 44.34375 54.890625 33.015625 
z
" id="DejaVuSans-68"/>
     <path d="M 54.890625 33.015625 
L 54.890625 0 
L 45.90625 0 
L 45.90625 32.71875 
Q 45.90625 40.484375 42.875 44.328125 
Q 39.84375 48.1875 33.796875 48.1875 
Q 26.515625 48.1875 22.3125 43.546875 
Q 18.109375 38.921875 18.109375 30.90625 
L 18.109375 0 
L 9.078125 0 
L 9.078125 54.6875 
L 18.109375 54.6875 
L 18.109375 46.1875 
Q 21.34375 51.125 25.703125 53.5625 
Q 30.078125 56 35.796875 56 
Q 45.21875 56 50.046875 50.171875 
Q 54.890625 44.34375 54.890625 33.015625 
z
" id="DejaVuSans-6e"/>
     <path d="M 4.890625 31.390625 
L 31.203125 31.390625 
L 31.203125 23.390625 
L 4.890625 23.390625 
z
" id="DejaVuSans-2d"/>
     <path d="M 8.6875 72.90625 
L 18.609375 72.90625 
L 18.609375 28.609375 
Q 18.609375 16.890625 22.84375 11.734375 
Q 27.09375 6.59375 36.625 6.59375 
Q 46.09375 6.59375 50.34375 11.734375 
Q 54.59375 16.890625 54.59375 28.609375 
L 54.59375 72.90625 
L 64.5 72.90625 
L 64.5 27.390625 
Q 64.5 13.140625 57.4375 5.859375 
Q 50.390625 -1.421875 36.625 -1.421875 
Q 22.796875 -1.421875 15.734375 5.859375 
Q 8.6875 13.140625 8.6875 27.390625 
z
" id="DejaVuSans-55"/>
    </defs>
    <g transform="translate(178.069687 35.472)scale(0.12 -0.12)">
     <use xlink:href="#DejaVuSans-43"/>
     <use x="69.824219" xlink:href="#DejaVuSans-68"/>
     <use x="133.203125" xlink:href="#DejaVuSans-61"/>
     <use x="194.482422" xlink:href="#DejaVuSans-6e"/>
     <use x="257.861328" xlink:href="#DejaVuSans-6e"/>
     <use x="321.240234" xlink:href="#DejaVuSans-65"/>
     <use x="382.763672" xlink:href="#DejaVuSans-6c"/>
     <use x="410.546875" xlink:href="#DejaVuSans-20"/>
     <use x="442.333984" xlink:href="#DejaVuSans-33"/>
     <use x="505.957031" xlink:href="#DejaVuSans-30"/>
     <use x="569.580078" xlink:href="#DejaVuSans-20"/>
     <use x="601.367188" xlink:href="#DejaVuSans-2d"/>
     <use x="637.451172" xlink:href="#DejaVuSans-20"/>
     <use x="669.238281" xlink:href="#DejaVuSans-55"/>
     <use x="742.431641" xlink:href="#DejaVuSans-6e"/>
     <use x="805.810547" xlink:href="#DejaVuSans-69"/>
     <use x="833.59375" xlink:href="#DejaVuSans-74"/>
     <use x="872.802734" xlink:href="#DejaVuSans-20"/>
     <use x="904.589844" xlink:href="#DejaVuSans-31"/>
    </g>
   </g>
  </g>
 </g>
 <defs>
  <clipPath id="pb94c56d0f8">
   <rect height="266.112" width="357.12" x="57.6" y="41.472"/>
  </clipPath>
 </defs>
</svg>
