<?xml version="1.0" encoding="utf-8" standalone="no"?>
<!DOCTYPE svg PUBLIC "-//W3C//DTD SVG 1.1//EN"
  "http://www.w3.org/Graphics/SVG/1.1/DTD/svg11.dtd">
<!-- Created with matplotlib (http://matplotlib.org/) -->
<svg height="345pt" version="1.1" viewBox="0 0 460 345" width="460pt" xmlns="http://www.w3.org/2000/svg" xmlns:xlink="http://www.w3.org/1999/xlink">
 <defs>
  <style type="text/css">
*{stroke-linecap:butt;stroke-linejoin:round;}
  </style>
 </defs>
 <g id="figure_1">
  <g id="patch_1">
   <path d="M 0 345.6 
L 460.8 345.6 
L 460.8 0 
L 0 0 
z
" style="fill:#ffffff;"/>
  </g>
  <g id="axes_1">
   <g id="patch_2">
    <path d="M 57.6 307.584 
L 414.72 307.584 
L 414.72 41.472 
L 57.6 41.472 
z
" style="fill:#ffffff;"/>
   </g>
   <g id="PolyCollection_1">
    <defs>
     <path d="M 73.832727 -224.634604 
L 73.832727 -164.706577 
L 84.305455 -161.912238 
L 94.778182 -158.42906 
L 105.250909 -155.928802 
L 115.723636 -155.260371 
L 126.196364 -151.45149 
L 136.669091 -137.59894 
L 147.141818 -116.022272 
L 157.614545 -93.767335 
L 168.087273 -74.982288 
L 178.56 -70.678599 
L 189.032727 -76.759916 
L 199.505455 -84.716888 
L 209.978182 -91.450179 
L 220.450909 -98.527033 
L 230.923636 -107.105874 
L 241.396364 -116.597081 
L 251.869091 -125.287565 
L 262.341818 -132.463422 
L 272.814545 -138.630237 
L 283.287273 -144.97812 
L 293.76 -152.526357 
L 304.232727 -159.767604 
L 314.705455 -165.141129 
L 325.178182 -169.6677 
L 335.650909 -174.237503 
L 346.123636 -178.157578 
L 356.596364 -181.054969 
L 367.069091 -183.365389 
L 377.541818 -185.855646 
L 388.014545 -189.256801 
L 398.487273 -192.575385 
L 398.487273 -281.390521 
L 398.487273 -281.390521 
L 388.014545 -277.591718 
L 377.541818 -272.210068 
L 367.069091 -266.220222 
L 356.596364 -260.951994 
L 346.123636 -255.922574 
L 335.650909 -250.641827 
L 325.178182 -245.190295 
L 314.705455 -239.17107 
L 304.232727 -232.642735 
L 293.76 -225.86875 
L 283.287273 -218.256364 
L 272.814545 -209.806203 
L 262.341818 -201.508722 
L 251.869091 -193.185772 
L 241.396364 -183.729636 
L 230.923636 -172.683649 
L 220.450909 -161.524742 
L 209.978182 -152.406462 
L 199.505455 -144.085576 
L 189.032727 -133.176316 
L 178.56 -119.070821 
L 168.087273 -107.500056 
L 157.614545 -109.431828 
L 147.141818 -134.511563 
L 136.669091 -166.399014 
L 126.196364 -190.423071 
L 115.723636 -203.89373 
L 105.250909 -210.124253 
L 94.778182 -214.391001 
L 84.305455 -219.51211 
L 73.832727 -224.634604 
z
" id="m95ba0ae049"/>
    </defs>
    <g clip-path="url(#p0456efc68c)">
     <use style="fill-opacity:0.5;" x="0" xlink:href="#m95ba0ae049" y="345.6"/>
    </g>
   </g>
   <g id="matplotlib.axis_1">
    <g id="xtick_1">
     <g id="line2d_1">
      <defs>
       <path d="M 0 0 
L 0 3.5 
" id="mea5c78d495" style="stroke:#000000;stroke-width:0.8;"/>
      </defs>
      <g>
       <use style="stroke:#000000;stroke-width:0.8;" x="73.832727" xlink:href="#mea5c78d495" y="307.584"/>
      </g>
     </g>
     <g id="text_1">
      <!-- 0.0000 -->
      <defs>
       <path d="M 31.78125 66.40625 
Q 24.171875 66.40625 20.328125 58.90625 
Q 16.5 51.421875 16.5 36.375 
Q 16.5 21.390625 20.328125 13.890625 
Q 24.171875 6.390625 31.78125 6.390625 
Q 39.453125 6.390625 43.28125 13.890625 
Q 47.125 21.390625 47.125 36.375 
Q 47.125 51.421875 43.28125 58.90625 
Q 39.453125 66.40625 31.78125 66.40625 
z
M 31.78125 74.21875 
Q 44.046875 74.21875 50.515625 64.515625 
Q 56.984375 54.828125 56.984375 36.375 
Q 56.984375 17.96875 50.515625 8.265625 
Q 44.046875 -1.421875 31.78125 -1.421875 
Q 19.53125 -1.421875 13.0625 8.265625 
Q 6.59375 17.96875 6.59375 36.375 
Q 6.59375 54.828125 13.0625 64.515625 
Q 19.53125 74.21875 31.78125 74.21875 
z
" id="DejaVuSans-30"/>
       <path d="M 10.6875 12.40625 
L 21 12.40625 
L 21 0 
L 10.6875 0 
z
" id="DejaVuSans-2e"/>
      </defs>
      <g transform="translate(56.337415 322.182437)scale(0.1 -0.1)">
       <use xlink:href="#DejaVuSans-30"/>
       <use x="63.623047" xlink:href="#DejaVuSans-2e"/>
       <use x="95.410156" xlink:href="#DejaVuSans-30"/>
       <use x="159.033203" xlink:href="#DejaVuSans-30"/>
       <use x="222.65625" xlink:href="#DejaVuSans-30"/>
       <use x="286.279297" xlink:href="#DejaVuSans-30"/>
      </g>
     </g>
    </g>
    <g id="xtick_2">
     <g id="line2d_2">
      <g>
       <use style="stroke:#000000;stroke-width:0.8;" x="115.723636" xlink:href="#mea5c78d495" y="307.584"/>
      </g>
     </g>
     <g id="text_2">
      <!-- 0.0001 -->
      <defs>
       <path d="M 12.40625 8.296875 
L 28.515625 8.296875 
L 28.515625 63.921875 
L 10.984375 60.40625 
L 10.984375 69.390625 
L 28.421875 72.90625 
L 38.28125 72.90625 
L 38.28125 8.296875 
L 54.390625 8.296875 
L 54.390625 0 
L 12.40625 0 
z
" id="DejaVuSans-31"/>
      </defs>
      <g transform="translate(98.228324 322.182437)scale(0.1 -0.1)">
       <use xlink:href="#DejaVuSans-30"/>
       <use x="63.623047" xlink:href="#DejaVuSans-2e"/>
       <use x="95.410156" xlink:href="#DejaVuSans-30"/>
       <use x="159.033203" xlink:href="#DejaVuSans-30"/>
       <use x="222.65625" xlink:href="#DejaVuSans-30"/>
       <use x="286.279297" xlink:href="#DejaVuSans-31"/>
      </g>
     </g>
    </g>
    <g id="xtick_3">
     <g id="line2d_3">
      <g>
       <use style="stroke:#000000;stroke-width:0.8;" x="157.614545" xlink:href="#mea5c78d495" y="307.584"/>
      </g>
     </g>
     <g id="text_3">
      <!-- 0.0002 -->
      <defs>
       <path d="M 19.1875 8.296875 
L 53.609375 8.296875 
L 53.609375 0 
L 7.328125 0 
L 7.328125 8.296875 
Q 12.9375 14.109375 22.625 23.890625 
Q 32.328125 33.6875 34.8125 36.53125 
Q 39.546875 41.84375 41.421875 45.53125 
Q 43.3125 49.21875 43.3125 52.78125 
Q 43.3125 58.59375 39.234375 62.25 
Q 35.15625 65.921875 28.609375 65.921875 
Q 23.96875 65.921875 18.8125 64.3125 
Q 13.671875 62.703125 7.8125 59.421875 
L 7.8125 69.390625 
Q 13.765625 71.78125 18.9375 73 
Q 24.125 74.21875 28.421875 74.21875 
Q 39.75 74.21875 46.484375 68.546875 
Q 53.21875 62.890625 53.21875 53.421875 
Q 53.21875 48.921875 51.53125 44.890625 
Q 49.859375 40.875 45.40625 35.40625 
Q 44.1875 33.984375 37.640625 27.21875 
Q 31.109375 20.453125 19.1875 8.296875 
z
" id="DejaVuSans-32"/>
      </defs>
      <g transform="translate(140.119233 322.182437)scale(0.1 -0.1)">
       <use xlink:href="#DejaVuSans-30"/>
       <use x="63.623047" xlink:href="#DejaVuSans-2e"/>
       <use x="95.410156" xlink:href="#DejaVuSans-30"/>
       <use x="159.033203" xlink:href="#DejaVuSans-30"/>
       <use x="222.65625" xlink:href="#DejaVuSans-30"/>
       <use x="286.279297" xlink:href="#DejaVuSans-32"/>
      </g>
     </g>
    </g>
    <g id="xtick_4">
     <g id="line2d_4">
      <g>
       <use style="stroke:#000000;stroke-width:0.8;" x="199.505455" xlink:href="#mea5c78d495" y="307.584"/>
      </g>
     </g>
     <g id="text_4">
      <!-- 0.0003 -->
      <defs>
       <path d="M 40.578125 39.3125 
Q 47.65625 37.796875 51.625 33 
Q 55.609375 28.21875 55.609375 21.1875 
Q 55.609375 10.40625 48.1875 4.484375 
Q 40.765625 -1.421875 27.09375 -1.421875 
Q 22.515625 -1.421875 17.65625 -0.515625 
Q 12.796875 0.390625 7.625 2.203125 
L 7.625 11.71875 
Q 11.71875 9.328125 16.59375 8.109375 
Q 21.484375 6.890625 26.8125 6.890625 
Q 36.078125 6.890625 40.9375 10.546875 
Q 45.796875 14.203125 45.796875 21.1875 
Q 45.796875 27.640625 41.28125 31.265625 
Q 36.765625 34.90625 28.71875 34.90625 
L 20.21875 34.90625 
L 20.21875 43.015625 
L 29.109375 43.015625 
Q 36.375 43.015625 40.234375 45.921875 
Q 44.09375 48.828125 44.09375 54.296875 
Q 44.09375 59.90625 40.109375 62.90625 
Q 36.140625 65.921875 28.71875 65.921875 
Q 24.65625 65.921875 20.015625 65.03125 
Q 15.375 64.15625 9.8125 62.3125 
L 9.8125 71.09375 
Q 15.4375 72.65625 20.34375 73.4375 
Q 25.25 74.21875 29.59375 74.21875 
Q 40.828125 74.21875 47.359375 69.109375 
Q 53.90625 64.015625 53.90625 55.328125 
Q 53.90625 49.265625 50.4375 45.09375 
Q 46.96875 40.921875 40.578125 39.3125 
z
" id="DejaVuSans-33"/>
      </defs>
      <g transform="translate(182.010142 322.182437)scale(0.1 -0.1)">
       <use xlink:href="#DejaVuSans-30"/>
       <use x="63.623047" xlink:href="#DejaVuSans-2e"/>
       <use x="95.410156" xlink:href="#DejaVuSans-30"/>
       <use x="159.033203" xlink:href="#DejaVuSans-30"/>
       <use x="222.65625" xlink:href="#DejaVuSans-30"/>
       <use x="286.279297" xlink:href="#DejaVuSans-33"/>
      </g>
     </g>
    </g>
    <g id="xtick_5">
     <g id="line2d_5">
      <g>
       <use style="stroke:#000000;stroke-width:0.8;" x="241.396364" xlink:href="#mea5c78d495" y="307.584"/>
      </g>
     </g>
     <g id="text_5">
      <!-- 0.0004 -->
      <defs>
       <path d="M 37.796875 64.3125 
L 12.890625 25.390625 
L 37.796875 25.390625 
z
M 35.203125 72.90625 
L 47.609375 72.90625 
L 47.609375 25.390625 
L 58.015625 25.390625 
L 58.015625 17.1875 
L 47.609375 17.1875 
L 47.609375 0 
L 37.796875 0 
L 37.796875 17.1875 
L 4.890625 17.1875 
L 4.890625 26.703125 
z
" id="DejaVuSans-34"/>
      </defs>
      <g transform="translate(223.901051 322.182437)scale(0.1 -0.1)">
       <use xlink:href="#DejaVuSans-30"/>
       <use x="63.623047" xlink:href="#DejaVuSans-2e"/>
       <use x="95.410156" xlink:href="#DejaVuSans-30"/>
       <use x="159.033203" xlink:href="#DejaVuSans-30"/>
       <use x="222.65625" xlink:href="#DejaVuSans-30"/>
       <use x="286.279297" xlink:href="#DejaVuSans-34"/>
      </g>
     </g>
    </g>
    <g id="xtick_6">
     <g id="line2d_6">
      <g>
       <use style="stroke:#000000;stroke-width:0.8;" x="283.287273" xlink:href="#mea5c78d495" y="307.584"/>
      </g>
     </g>
     <g id="text_6">
      <!-- 0.0005 -->
      <defs>
       <path d="M 10.796875 72.90625 
L 49.515625 72.90625 
L 49.515625 64.59375 
L 19.828125 64.59375 
L 19.828125 46.734375 
Q 21.96875 47.46875 24.109375 47.828125 
Q 26.265625 48.1875 28.421875 48.1875 
Q 40.625 48.1875 47.75 41.5 
Q 54.890625 34.8125 54.890625 23.390625 
Q 54.890625 11.625 47.5625 5.09375 
Q 40.234375 -1.421875 26.90625 -1.421875 
Q 22.3125 -1.421875 17.546875 -0.640625 
Q 12.796875 0.140625 7.71875 1.703125 
L 7.71875 11.625 
Q 12.109375 9.234375 16.796875 8.0625 
Q 21.484375 6.890625 26.703125 6.890625 
Q 35.15625 6.890625 40.078125 11.328125 
Q 45.015625 15.765625 45.015625 23.390625 
Q 45.015625 31 40.078125 35.4375 
Q 35.15625 39.890625 26.703125 39.890625 
Q 22.75 39.890625 18.8125 39.015625 
Q 14.890625 38.140625 10.796875 36.28125 
z
" id="DejaVuSans-35"/>
      </defs>
      <g transform="translate(265.79196 322.182437)scale(0.1 -0.1)">
       <use xlink:href="#DejaVuSans-30"/>
       <use x="63.623047" xlink:href="#DejaVuSans-2e"/>
       <use x="95.410156" xlink:href="#DejaVuSans-30"/>
       <use x="159.033203" xlink:href="#DejaVuSans-30"/>
       <use x="222.65625" xlink:href="#DejaVuSans-30"/>
       <use x="286.279297" xlink:href="#DejaVuSans-35"/>
      </g>
     </g>
    </g>
    <g id="xtick_7">
     <g id="line2d_7">
      <g>
       <use style="stroke:#000000;stroke-width:0.8;" x="325.178182" xlink:href="#mea5c78d495" y="307.584"/>
      </g>
     </g>
     <g id="text_7">
      <!-- 0.0006 -->
      <defs>
       <path d="M 33.015625 40.375 
Q 26.375 40.375 22.484375 35.828125 
Q 18.609375 31.296875 18.609375 23.390625 
Q 18.609375 15.53125 22.484375 10.953125 
Q 26.375 6.390625 33.015625 6.390625 
Q 39.65625 6.390625 43.53125 10.953125 
Q 47.40625 15.53125 47.40625 23.390625 
Q 47.40625 31.296875 43.53125 35.828125 
Q 39.65625 40.375 33.015625 40.375 
z
M 52.59375 71.296875 
L 52.59375 62.3125 
Q 48.875 64.0625 45.09375 64.984375 
Q 41.3125 65.921875 37.59375 65.921875 
Q 27.828125 65.921875 22.671875 59.328125 
Q 17.53125 52.734375 16.796875 39.40625 
Q 19.671875 43.65625 24.015625 45.921875 
Q 28.375 48.1875 33.59375 48.1875 
Q 44.578125 48.1875 50.953125 41.515625 
Q 57.328125 34.859375 57.328125 23.390625 
Q 57.328125 12.15625 50.6875 5.359375 
Q 44.046875 -1.421875 33.015625 -1.421875 
Q 20.359375 -1.421875 13.671875 8.265625 
Q 6.984375 17.96875 6.984375 36.375 
Q 6.984375 53.65625 15.1875 63.9375 
Q 23.390625 74.21875 37.203125 74.21875 
Q 40.921875 74.21875 44.703125 73.484375 
Q 48.484375 72.75 52.59375 71.296875 
z
" id="DejaVuSans-36"/>
      </defs>
      <g transform="translate(307.682869 322.182437)scale(0.1 -0.1)">
       <use xlink:href="#DejaVuSans-30"/>
       <use x="63.623047" xlink:href="#DejaVuSans-2e"/>
       <use x="95.410156" xlink:href="#DejaVuSans-30"/>
       <use x="159.033203" xlink:href="#DejaVuSans-30"/>
       <use x="222.65625" xlink:href="#DejaVuSans-30"/>
       <use x="286.279297" xlink:href="#DejaVuSans-36"/>
      </g>
     </g>
    </g>
    <g id="xtick_8">
     <g id="line2d_8">
      <g>
       <use style="stroke:#000000;stroke-width:0.8;" x="367.069091" xlink:href="#mea5c78d495" y="307.584"/>
      </g>
     </g>
     <g id="text_8">
      <!-- 0.0007 -->
      <defs>
       <path d="M 8.203125 72.90625 
L 55.078125 72.90625 
L 55.078125 68.703125 
L 28.609375 0 
L 18.3125 0 
L 43.21875 64.59375 
L 8.203125 64.59375 
z
" id="DejaVuSans-37"/>
      </defs>
      <g transform="translate(349.573778 322.182437)scale(0.1 -0.1)">
       <use xlink:href="#DejaVuSans-30"/>
       <use x="63.623047" xlink:href="#DejaVuSans-2e"/>
       <use x="95.410156" xlink:href="#DejaVuSans-30"/>
       <use x="159.033203" xlink:href="#DejaVuSans-30"/>
       <use x="222.65625" xlink:href="#DejaVuSans-30"/>
       <use x="286.279297" xlink:href="#DejaVuSans-37"/>
      </g>
     </g>
    </g>
    <g id="xtick_9">
     <g id="line2d_9">
      <g>
       <use style="stroke:#000000;stroke-width:0.8;" x="408.96" xlink:href="#mea5c78d495" y="307.584"/>
      </g>
     </g>
     <g id="text_9">
      <!-- 0.0008 -->
      <defs>
       <path d="M 31.78125 34.625 
Q 24.75 34.625 20.71875 30.859375 
Q 16.703125 27.09375 16.703125 20.515625 
Q 16.703125 13.921875 20.71875 10.15625 
Q 24.75 6.390625 31.78125 6.390625 
Q 38.8125 6.390625 42.859375 10.171875 
Q 46.921875 13.96875 46.921875 20.515625 
Q 46.921875 27.09375 42.890625 30.859375 
Q 38.875 34.625 31.78125 34.625 
z
M 21.921875 38.8125 
Q 15.578125 40.375 12.03125 44.71875 
Q 8.5 49.078125 8.5 55.328125 
Q 8.5 64.0625 14.71875 69.140625 
Q 20.953125 74.21875 31.78125 74.21875 
Q 42.671875 74.21875 48.875 69.140625 
Q 55.078125 64.0625 55.078125 55.328125 
Q 55.078125 49.078125 51.53125 44.71875 
Q 48 40.375 41.703125 38.8125 
Q 48.828125 37.15625 52.796875 32.3125 
Q 56.78125 27.484375 56.78125 20.515625 
Q 56.78125 9.90625 50.3125 4.234375 
Q 43.84375 -1.421875 31.78125 -1.421875 
Q 19.734375 -1.421875 13.25 4.234375 
Q 6.78125 9.90625 6.78125 20.515625 
Q 6.78125 27.484375 10.78125 32.3125 
Q 14.796875 37.15625 21.921875 38.8125 
z
M 18.3125 54.390625 
Q 18.3125 48.734375 21.84375 45.5625 
Q 25.390625 42.390625 31.78125 42.390625 
Q 38.140625 42.390625 41.71875 45.5625 
Q 45.3125 48.734375 45.3125 54.390625 
Q 45.3125 60.0625 41.71875 63.234375 
Q 38.140625 66.40625 31.78125 66.40625 
Q 25.390625 66.40625 21.84375 63.234375 
Q 18.3125 60.0625 18.3125 54.390625 
z
" id="DejaVuSans-38"/>
      </defs>
      <g transform="translate(391.464687 322.182437)scale(0.1 -0.1)">
       <use xlink:href="#DejaVuSans-30"/>
       <use x="63.623047" xlink:href="#DejaVuSans-2e"/>
       <use x="95.410156" xlink:href="#DejaVuSans-30"/>
       <use x="159.033203" xlink:href="#DejaVuSans-30"/>
       <use x="222.65625" xlink:href="#DejaVuSans-30"/>
       <use x="286.279297" xlink:href="#DejaVuSans-38"/>
      </g>
     </g>
    </g>
    <g id="text_10">
     <!-- Time (s) -->
     <defs>
      <path d="M -0.296875 72.90625 
L 61.375 72.90625 
L 61.375 64.59375 
L 35.5 64.59375 
L 35.5 0 
L 25.59375 0 
L 25.59375 64.59375 
L -0.296875 64.59375 
z
" id="DejaVuSans-54"/>
      <path d="M 9.421875 54.6875 
L 18.40625 54.6875 
L 18.40625 0 
L 9.421875 0 
z
M 9.421875 75.984375 
L 18.40625 75.984375 
L 18.40625 64.59375 
L 9.421875 64.59375 
z
" id="DejaVuSans-69"/>
      <path d="M 52 44.1875 
Q 55.375 50.25 60.0625 53.125 
Q 64.75 56 71.09375 56 
Q 79.640625 56 84.28125 50.015625 
Q 88.921875 44.046875 88.921875 33.015625 
L 88.921875 0 
L 79.890625 0 
L 79.890625 32.71875 
Q 79.890625 40.578125 77.09375 44.375 
Q 74.3125 48.1875 68.609375 48.1875 
Q 61.625 48.1875 57.5625 43.546875 
Q 53.515625 38.921875 53.515625 30.90625 
L 53.515625 0 
L 44.484375 0 
L 44.484375 32.71875 
Q 44.484375 40.625 41.703125 44.40625 
Q 38.921875 48.1875 33.109375 48.1875 
Q 26.21875 48.1875 22.15625 43.53125 
Q 18.109375 38.875 18.109375 30.90625 
L 18.109375 0 
L 9.078125 0 
L 9.078125 54.6875 
L 18.109375 54.6875 
L 18.109375 46.1875 
Q 21.1875 51.21875 25.484375 53.609375 
Q 29.78125 56 35.6875 56 
Q 41.65625 56 45.828125 52.96875 
Q 50 49.953125 52 44.1875 
z
" id="DejaVuSans-6d"/>
      <path d="M 56.203125 29.59375 
L 56.203125 25.203125 
L 14.890625 25.203125 
Q 15.484375 15.921875 20.484375 11.0625 
Q 25.484375 6.203125 34.421875 6.203125 
Q 39.59375 6.203125 44.453125 7.46875 
Q 49.3125 8.734375 54.109375 11.28125 
L 54.109375 2.78125 
Q 49.265625 0.734375 44.1875 -0.34375 
Q 39.109375 -1.421875 33.890625 -1.421875 
Q 20.796875 -1.421875 13.15625 6.1875 
Q 5.515625 13.8125 5.515625 26.8125 
Q 5.515625 40.234375 12.765625 48.109375 
Q 20.015625 56 32.328125 56 
Q 43.359375 56 49.78125 48.890625 
Q 56.203125 41.796875 56.203125 29.59375 
z
M 47.21875 32.234375 
Q 47.125 39.59375 43.09375 43.984375 
Q 39.0625 48.390625 32.421875 48.390625 
Q 24.90625 48.390625 20.390625 44.140625 
Q 15.875 39.890625 15.1875 32.171875 
z
" id="DejaVuSans-65"/>
      <path id="DejaVuSans-20"/>
      <path d="M 31 75.875 
Q 24.46875 64.65625 21.28125 53.65625 
Q 18.109375 42.671875 18.109375 31.390625 
Q 18.109375 20.125 21.3125 9.0625 
Q 24.515625 -2 31 -13.1875 
L 23.1875 -13.1875 
Q 15.875 -1.703125 12.234375 9.375 
Q 8.59375 20.453125 8.59375 31.390625 
Q 8.59375 42.28125 12.203125 53.3125 
Q 15.828125 64.359375 23.1875 75.875 
z
" id="DejaVuSans-28"/>
      <path d="M 44.28125 53.078125 
L 44.28125 44.578125 
Q 40.484375 46.53125 36.375 47.5 
Q 32.28125 48.484375 27.875 48.484375 
Q 21.1875 48.484375 17.84375 46.4375 
Q 14.5 44.390625 14.5 40.28125 
Q 14.5 37.15625 16.890625 35.375 
Q 19.28125 33.59375 26.515625 31.984375 
L 29.59375 31.296875 
Q 39.15625 29.25 43.1875 25.515625 
Q 47.21875 21.78125 47.21875 15.09375 
Q 47.21875 7.46875 41.1875 3.015625 
Q 35.15625 -1.421875 24.609375 -1.421875 
Q 20.21875 -1.421875 15.453125 -0.5625 
Q 10.6875 0.296875 5.421875 2 
L 5.421875 11.28125 
Q 10.40625 8.6875 15.234375 7.390625 
Q 20.0625 6.109375 24.8125 6.109375 
Q 31.15625 6.109375 34.5625 8.28125 
Q 37.984375 10.453125 37.984375 14.40625 
Q 37.984375 18.0625 35.515625 20.015625 
Q 33.0625 21.96875 24.703125 23.78125 
L 21.578125 24.515625 
Q 13.234375 26.265625 9.515625 29.90625 
Q 5.8125 33.546875 5.8125 39.890625 
Q 5.8125 47.609375 11.28125 51.796875 
Q 16.75 56 26.8125 56 
Q 31.78125 56 36.171875 55.265625 
Q 40.578125 54.546875 44.28125 53.078125 
z
" id="DejaVuSans-73"/>
      <path d="M 8.015625 75.875 
L 15.828125 75.875 
Q 23.140625 64.359375 26.78125 53.3125 
Q 30.421875 42.28125 30.421875 31.390625 
Q 30.421875 20.453125 26.78125 9.375 
Q 23.140625 -1.703125 15.828125 -13.1875 
L 8.015625 -13.1875 
Q 14.5 -2 17.703125 9.0625 
Q 20.90625 20.125 20.90625 31.390625 
Q 20.90625 42.671875 17.703125 53.65625 
Q 14.5 64.65625 8.015625 75.875 
z
" id="DejaVuSans-29"/>
     </defs>
     <g transform="translate(215.677188 335.860562)scale(0.1 -0.1)">
      <use xlink:href="#DejaVuSans-54"/>
      <use x="61.037109" xlink:href="#DejaVuSans-69"/>
      <use x="88.820312" xlink:href="#DejaVuSans-6d"/>
      <use x="186.232422" xlink:href="#DejaVuSans-65"/>
      <use x="247.755859" xlink:href="#DejaVuSans-20"/>
      <use x="279.542969" xlink:href="#DejaVuSans-28"/>
      <use x="318.556641" xlink:href="#DejaVuSans-73"/>
      <use x="370.65625" xlink:href="#DejaVuSans-29"/>
     </g>
    </g>
   </g>
   <g id="matplotlib.axis_2">
    <g id="ytick_1">
     <g id="line2d_10">
      <defs>
       <path d="M 0 0 
L -3.5 0 
" id="m5686c43339" style="stroke:#000000;stroke-width:0.8;"/>
      </defs>
      <g>
       <use style="stroke:#000000;stroke-width:0.8;" x="57.6" xlink:href="#m5686c43339" y="307.584"/>
      </g>
     </g>
     <g id="text_11">
      <!-- −50 -->
      <defs>
       <path d="M 10.59375 35.5 
L 73.1875 35.5 
L 73.1875 27.203125 
L 10.59375 27.203125 
z
" id="DejaVuSans-2212"/>
      </defs>
      <g transform="translate(29.495313 311.383219)scale(0.1 -0.1)">
       <use xlink:href="#DejaVuSans-2212"/>
       <use x="83.789062" xlink:href="#DejaVuSans-35"/>
       <use x="147.412109" xlink:href="#DejaVuSans-30"/>
      </g>
     </g>
    </g>
    <g id="ytick_2">
     <g id="line2d_11">
      <g>
       <use style="stroke:#000000;stroke-width:0.8;" x="57.6" xlink:href="#m5686c43339" y="274.32"/>
      </g>
     </g>
     <g id="text_12">
      <!-- −40 -->
      <g transform="translate(29.495313 278.119219)scale(0.1 -0.1)">
       <use xlink:href="#DejaVuSans-2212"/>
       <use x="83.789062" xlink:href="#DejaVuSans-34"/>
       <use x="147.412109" xlink:href="#DejaVuSans-30"/>
      </g>
     </g>
    </g>
    <g id="ytick_3">
     <g id="line2d_12">
      <g>
       <use style="stroke:#000000;stroke-width:0.8;" x="57.6" xlink:href="#m5686c43339" y="241.056"/>
      </g>
     </g>
     <g id="text_13">
      <!-- −30 -->
      <g transform="translate(29.495313 244.855219)scale(0.1 -0.1)">
       <use xlink:href="#DejaVuSans-2212"/>
       <use x="83.789062" xlink:href="#DejaVuSans-33"/>
       <use x="147.412109" xlink:href="#DejaVuSans-30"/>
      </g>
     </g>
    </g>
    <g id="ytick_4">
     <g id="line2d_13">
      <g>
       <use style="stroke:#000000;stroke-width:0.8;" x="57.6" xlink:href="#m5686c43339" y="207.792"/>
      </g>
     </g>
     <g id="text_14">
      <!-- −20 -->
      <g transform="translate(29.495313 211.591219)scale(0.1 -0.1)">
       <use xlink:href="#DejaVuSans-2212"/>
       <use x="83.789062" xlink:href="#DejaVuSans-32"/>
       <use x="147.412109" xlink:href="#DejaVuSans-30"/>
      </g>
     </g>
    </g>
    <g id="ytick_5">
     <g id="line2d_14">
      <g>
       <use style="stroke:#000000;stroke-width:0.8;" x="57.6" xlink:href="#m5686c43339" y="174.528"/>
      </g>
     </g>
     <g id="text_15">
      <!-- −10 -->
      <g transform="translate(29.495313 178.327219)scale(0.1 -0.1)">
       <use xlink:href="#DejaVuSans-2212"/>
       <use x="83.789062" xlink:href="#DejaVuSans-31"/>
       <use x="147.412109" xlink:href="#DejaVuSans-30"/>
      </g>
     </g>
    </g>
    <g id="ytick_6">
     <g id="line2d_15">
      <g>
       <use style="stroke:#000000;stroke-width:0.8;" x="57.6" xlink:href="#m5686c43339" y="141.264"/>
      </g>
     </g>
     <g id="text_16">
      <!-- 0 -->
      <g transform="translate(44.2375 145.063219)scale(0.1 -0.1)">
       <use xlink:href="#DejaVuSans-30"/>
      </g>
     </g>
    </g>
    <g id="ytick_7">
     <g id="line2d_16">
      <g>
       <use style="stroke:#000000;stroke-width:0.8;" x="57.6" xlink:href="#m5686c43339" y="108"/>
      </g>
     </g>
     <g id="text_17">
      <!-- 10 -->
      <g transform="translate(37.875 111.799219)scale(0.1 -0.1)">
       <use xlink:href="#DejaVuSans-31"/>
       <use x="63.623047" xlink:href="#DejaVuSans-30"/>
      </g>
     </g>
    </g>
    <g id="ytick_8">
     <g id="line2d_17">
      <g>
       <use style="stroke:#000000;stroke-width:0.8;" x="57.6" xlink:href="#m5686c43339" y="74.736"/>
      </g>
     </g>
     <g id="text_18">
      <!-- 20 -->
      <g transform="translate(37.875 78.535219)scale(0.1 -0.1)">
       <use xlink:href="#DejaVuSans-32"/>
       <use x="63.623047" xlink:href="#DejaVuSans-30"/>
      </g>
     </g>
    </g>
    <g id="ytick_9">
     <g id="line2d_18">
      <g>
       <use style="stroke:#000000;stroke-width:0.8;" x="57.6" xlink:href="#m5686c43339" y="41.472"/>
      </g>
     </g>
     <g id="text_19">
      <!-- 30 -->
      <g transform="translate(37.875 45.271219)scale(0.1 -0.1)">
       <use xlink:href="#DejaVuSans-33"/>
       <use x="63.623047" xlink:href="#DejaVuSans-30"/>
      </g>
     </g>
    </g>
    <g id="text_20">
     <!-- Voltage ($\mu$V) -->
     <defs>
      <path d="M 28.609375 0 
L 0.78125 72.90625 
L 11.078125 72.90625 
L 34.1875 11.53125 
L 57.328125 72.90625 
L 67.578125 72.90625 
L 39.796875 0 
z
" id="DejaVuSans-56"/>
      <path d="M 30.609375 48.390625 
Q 23.390625 48.390625 19.1875 42.75 
Q 14.984375 37.109375 14.984375 27.296875 
Q 14.984375 17.484375 19.15625 11.84375 
Q 23.34375 6.203125 30.609375 6.203125 
Q 37.796875 6.203125 41.984375 11.859375 
Q 46.1875 17.53125 46.1875 27.296875 
Q 46.1875 37.015625 41.984375 42.703125 
Q 37.796875 48.390625 30.609375 48.390625 
z
M 30.609375 56 
Q 42.328125 56 49.015625 48.375 
Q 55.71875 40.765625 55.71875 27.296875 
Q 55.71875 13.875 49.015625 6.21875 
Q 42.328125 -1.421875 30.609375 -1.421875 
Q 18.84375 -1.421875 12.171875 6.21875 
Q 5.515625 13.875 5.515625 27.296875 
Q 5.515625 40.765625 12.171875 48.375 
Q 18.84375 56 30.609375 56 
z
" id="DejaVuSans-6f"/>
      <path d="M 9.421875 75.984375 
L 18.40625 75.984375 
L 18.40625 0 
L 9.421875 0 
z
" id="DejaVuSans-6c"/>
      <path d="M 18.3125 70.21875 
L 18.3125 54.6875 
L 36.8125 54.6875 
L 36.8125 47.703125 
L 18.3125 47.703125 
L 18.3125 18.015625 
Q 18.3125 11.328125 20.140625 9.421875 
Q 21.96875 7.515625 27.59375 7.515625 
L 36.8125 7.515625 
L 36.8125 0 
L 27.59375 0 
Q 17.1875 0 13.234375 3.875 
Q 9.28125 7.765625 9.28125 18.015625 
L 9.28125 47.703125 
L 2.6875 47.703125 
L 2.6875 54.6875 
L 9.28125 54.6875 
L 9.28125 70.21875 
z
" id="DejaVuSans-74"/>
      <path d="M 34.28125 27.484375 
Q 23.390625 27.484375 19.1875 25 
Q 14.984375 22.515625 14.984375 16.5 
Q 14.984375 11.71875 18.140625 8.90625 
Q 21.296875 6.109375 26.703125 6.109375 
Q 34.1875 6.109375 38.703125 11.40625 
Q 43.21875 16.703125 43.21875 25.484375 
L 43.21875 27.484375 
z
M 52.203125 31.203125 
L 52.203125 0 
L 43.21875 0 
L 43.21875 8.296875 
Q 40.140625 3.328125 35.546875 0.953125 
Q 30.953125 -1.421875 24.3125 -1.421875 
Q 15.921875 -1.421875 10.953125 3.296875 
Q 6 8.015625 6 15.921875 
Q 6 25.140625 12.171875 29.828125 
Q 18.359375 34.515625 30.609375 34.515625 
L 43.21875 34.515625 
L 43.21875 35.40625 
Q 43.21875 41.609375 39.140625 45 
Q 35.0625 48.390625 27.6875 48.390625 
Q 23 48.390625 18.546875 47.265625 
Q 14.109375 46.140625 10.015625 43.890625 
L 10.015625 52.203125 
Q 14.9375 54.109375 19.578125 55.046875 
Q 24.21875 56 28.609375 56 
Q 40.484375 56 46.34375 49.84375 
Q 52.203125 43.703125 52.203125 31.203125 
z
" id="DejaVuSans-61"/>
      <path d="M 45.40625 27.984375 
Q 45.40625 37.75 41.375 43.109375 
Q 37.359375 48.484375 30.078125 48.484375 
Q 22.859375 48.484375 18.828125 43.109375 
Q 14.796875 37.75 14.796875 27.984375 
Q 14.796875 18.265625 18.828125 12.890625 
Q 22.859375 7.515625 30.078125 7.515625 
Q 37.359375 7.515625 41.375 12.890625 
Q 45.40625 18.265625 45.40625 27.984375 
z
M 54.390625 6.78125 
Q 54.390625 -7.171875 48.1875 -13.984375 
Q 42 -20.796875 29.203125 -20.796875 
Q 24.46875 -20.796875 20.265625 -20.09375 
Q 16.0625 -19.390625 12.109375 -17.921875 
L 12.109375 -9.1875 
Q 16.0625 -11.328125 19.921875 -12.34375 
Q 23.78125 -13.375 27.78125 -13.375 
Q 36.625 -13.375 41.015625 -8.765625 
Q 45.40625 -4.15625 45.40625 5.171875 
L 45.40625 9.625 
Q 42.625 4.78125 38.28125 2.390625 
Q 33.9375 0 27.875 0 
Q 17.828125 0 11.671875 7.65625 
Q 5.515625 15.328125 5.515625 27.984375 
Q 5.515625 40.671875 11.671875 48.328125 
Q 17.828125 56 27.875 56 
Q 33.9375 56 38.28125 53.609375 
Q 42.625 51.21875 45.40625 46.390625 
L 45.40625 54.6875 
L 54.390625 54.6875 
z
" id="DejaVuSans-67"/>
      <path d="M -1.3125 -20.796875 
L 13.375 54.6875 
L 22.40625 54.6875 
L 15.765625 20.65625 
Q 15.578125 19.625 15.421875 18.359375 
Q 15.28125 17.09375 15.28125 15.828125 
Q 15.28125 11.28125 18.140625 8.828125 
Q 21 6.390625 26.3125 6.390625 
Q 33.546875 6.390625 37.984375 10.484375 
Q 42.4375 14.59375 44 22.796875 
L 50.203125 54.6875 
L 59.1875 54.6875 
L 51.03125 12.640625 
Q 50.828125 11.71875 50.75 11.03125 
Q 50.6875 10.359375 50.6875 9.8125 
Q 50.6875 8.296875 51.296875 7.59375 
Q 51.90625 6.890625 53.21875 6.890625 
Q 53.71875 6.890625 54.5625 7.125 
Q 55.421875 7.375 56.984375 8.015625 
L 55.609375 0.78125 
Q 53.46875 -0.296875 51.515625 -0.859375 
Q 49.5625 -1.421875 47.703125 -1.421875 
Q 44.484375 -1.421875 42.65625 0.625 
Q 40.828125 2.6875 40.828125 6.296875 
Q 38.09375 2.390625 34.296875 0.484375 
Q 30.515625 -1.421875 25.390625 -1.421875 
Q 20.84375 -1.421875 17.453125 0.671875 
Q 14.0625 2.78125 12.984375 6.203125 
L 7.71875 -20.796875 
z
" id="DejaVuSans-Oblique-3bc"/>
     </defs>
     <g transform="translate(23.395312 205.778)rotate(-90)scale(0.1 -0.1)">
      <use transform="translate(0 0.015625)" xlink:href="#DejaVuSans-56"/>
      <use transform="translate(68.408203 0.015625)" xlink:href="#DejaVuSans-6f"/>
      <use transform="translate(129.589844 0.015625)" xlink:href="#DejaVuSans-6c"/>
      <use transform="translate(157.373047 0.015625)" xlink:href="#DejaVuSans-74"/>
      <use transform="translate(196.582031 0.015625)" xlink:href="#DejaVuSans-61"/>
      <use transform="translate(257.861328 0.015625)" xlink:href="#DejaVuSans-67"/>
      <use transform="translate(321.337891 0.015625)" xlink:href="#DejaVuSans-65"/>
      <use transform="translate(382.861328 0.015625)" xlink:href="#DejaVuSans-20"/>
      <use transform="translate(414.648438 0.015625)" xlink:href="#DejaVuSans-28"/>
      <use transform="translate(453.662109 0.015625)" xlink:href="#DejaVuSans-Oblique-3bc"/>
      <use transform="translate(517.285156 0.015625)" xlink:href="#DejaVuSans-56"/>
      <use transform="translate(585.693359 0.015625)" xlink:href="#DejaVuSans-29"/>
     </g>
    </g>
   </g>
   <g id="line2d_19">
    <path clip-path="url(#p0456efc68c)" d="M 73.832727 150.92941 
L 84.305455 154.887826 
L 94.778182 159.18997 
L 105.250909 162.573473 
L 115.723636 166.02295 
L 126.196364 174.662719 
L 136.669091 193.601023 
L 147.141818 220.333082 
L 157.614545 244.000418 
L 168.087273 254.358828 
L 178.56 250.72529 
L 189.032727 240.631884 
L 199.505455 231.198768 
L 209.978182 223.671679 
L 220.450909 215.574113 
L 230.923636 205.705238 
L 241.396364 195.436642 
L 251.869091 186.363331 
L 262.341818 178.613928 
L 272.814545 171.38178 
L 283.287273 163.982758 
L 293.76 156.402446 
L 304.232727 149.39483 
L 314.705455 143.443901 
L 325.178182 138.171002 
L 335.650909 133.160335 
L 346.123636 128.559924 
L 356.596364 124.596518 
L 367.069091 120.807194 
L 377.541818 116.567143 
L 388.014545 112.175741 
L 398.487273 108.617047 
" style="fill:none;stroke:#000000;stroke-linecap:square;stroke-width:1.5;"/>
   </g>
   <g id="line2d_20">
    <path clip-path="url(#p0456efc68c)" d="M 73.832727 183.442752 
L 84.305455 201.937536 
L 94.778182 214.4448 
L 105.250909 215.77536 
L 115.723636 210.320064 
L 126.196364 206.993664 
L 136.669091 210.852288 
L 147.141818 223.891776 
L 157.614545 240.656832 
L 168.087273 248.906304 
L 178.56 244.116288 
L 189.032727 231.875136 
L 199.505455 214.843968 
L 209.978182 196.349184 
L 220.450909 184.640256 
L 230.923636 178.253568 
L 241.396364 164.814912 
L 251.869091 137.538432 
L 262.341818 106.66944 
L 272.814545 86.71104 
L 283.287273 80.191296 
L 293.76 78.860736 
L 304.232727 78.0624 
L 314.705455 81.787968 
L 325.178182 91.101888 
L 335.650909 98.419968 
L 346.123636 96.69024 
L 356.596364 87.908544 
L 367.069091 82.852416 
L 377.541818 87.642432 
L 388.014545 96.424128 
L 398.487273 102.67776 
" style="fill:none;stroke:#ff0000;stroke-linecap:square;stroke-width:1.5;"/>
   </g>
   <g id="line2d_21">
    <path clip-path="url(#p0456efc68c)" d="M 73.832727 181.84608 
L 84.305455 184.241088 
L 94.778182 190.49472 
L 105.250909 196.615296 
L 115.723636 195.018624 
L 126.196364 189.563328 
L 136.669091 197.014464 
L 147.141818 224.690112 
L 157.614545 259.550784 
L 168.087273 278.577792 
L 178.56 272.98944 
L 189.032727 259.417728 
L 199.505455 252.897984 
L 209.978182 250.36992 
L 220.450909 239.459328 
L 230.923636 214.045632 
L 241.396364 180.51552 
L 251.869091 151.509312 
L 262.341818 135.808704 
L 272.814545 131.018688 
L 283.287273 124.632 
L 293.76 108.266112 
L 304.232727 90.170496 
L 314.705455 82.453248 
L 325.178182 81.521856 
L 335.650909 77.131008 
L 346.123636 71.010432 
L 356.596364 74.203776 
L 367.069091 94.295232 
L 377.541818 121.97088 
L 388.014545 134.078976 
L 398.487273 122.63616 
" style="fill:none;stroke:#ff1e00;stroke-linecap:square;stroke-width:1.5;"/>
   </g>
   <g id="line2d_22">
    <path clip-path="url(#p0456efc68c)" d="M 73.832727 162.819072 
L 84.305455 160.823232 
L 94.778182 160.823232 
L 105.250909 163.085184 
L 115.723636 169.604928 
L 126.196364 184.241088 
L 136.669091 206.062272 
L 147.141818 226.286784 
L 157.614545 236.132928 
L 168.087273 237.06432 
L 178.56 238.527936 
L 189.032727 242.918784 
L 199.505455 241.189056 
L 209.978182 228.947904 
L 220.450909 215.908416 
L 230.923636 212.315904 
L 241.396364 216.041472 
L 251.869091 219.367872 
L 262.341818 217.7712 
L 272.814545 210.45312 
L 283.287273 200.207808 
L 293.76 192.091392 
L 304.232727 185.83776 
L 314.705455 173.995776 
L 325.178182 157.496832 
L 335.650909 151.90848 
L 346.123636 162.419904 
L 356.596364 172.399104 
L 367.069091 166.278528 
L 377.541818 147.783744 
L 388.014545 129.422016 
L 398.487273 115.717248 
" style="fill:none;stroke:#ff3b00;stroke-linecap:square;stroke-width:1.5;"/>
   </g>
   <g id="line2d_23">
    <path clip-path="url(#p0456efc68c)" d="M 73.832727 181.579968 
L 84.305455 214.178688 
L 94.778182 227.484288 
L 105.250909 216.972864 
L 115.723636 199.276416 
L 126.196364 192.889728 
L 136.669091 203.933376 
L 147.141818 226.020672 
L 157.614545 244.3824 
L 168.087273 248.241024 
L 178.56 235.467648 
L 189.032727 212.315904 
L 199.505455 193.954176 
L 209.978182 189.696384 
L 220.450909 192.756672 
L 230.923636 194.353344 
L 241.396364 192.623616 
L 251.869091 188.49888 
L 262.341818 181.979136 
L 272.814545 176.656896 
L 283.287273 175.459392 
L 293.76 176.52384 
L 304.232727 173.729664 
L 314.705455 163.21824 
L 325.178182 147.650688 
L 335.650909 131.2848 
L 346.123636 116.515584 
L 356.596364 104.00832 
L 367.069091 98.553024 
L 377.541818 102.01248 
L 388.014545 107.866944 
L 398.487273 109.463616 
" style="fill:none;stroke:#ff5900;stroke-linecap:square;stroke-width:1.5;"/>
   </g>
   <g id="line2d_24">
    <path clip-path="url(#p0456efc68c)" d="M 73.832727 154.436544 
L 84.305455 158.827392 
L 94.778182 166.411584 
L 105.250909 170.004096 
L 115.723636 170.669376 
L 126.196364 177.322176 
L 136.669091 195.15168 
L 147.141818 218.569536 
L 157.614545 236.132928 
L 168.087273 242.253504 
L 178.56 242.120448 
L 189.032727 246.112128 
L 199.505455 253.563264 
L 209.978182 252.897984 
L 220.450909 237.7296 
L 230.923636 214.977024 
L 241.396364 197.14752 
L 251.869091 192.091392 
L 262.341818 200.207808 
L 272.814545 214.178688 
L 283.287273 223.492608 
L 293.76 218.968704 
L 304.232727 202.46976 
L 314.705455 184.906368 
L 325.178182 173.596608 
L 335.650909 169.338816 
L 346.123636 167.742144 
L 356.596364 162.153792 
L 367.069091 151.509312 
L 377.541818 142.860672 
L 388.014545 140.59872 
L 398.487273 141.796224 
" style="fill:none;stroke:#ff7600;stroke-linecap:square;stroke-width:1.5;"/>
   </g>
   <g id="line2d_25">
    <path clip-path="url(#p0456efc68c)" d="M 73.832727 100.149696 
L 84.305455 134.345088 
L 94.778182 166.54464 
L 105.250909 185.438592 
L 115.723636 184.640256 
L 126.196364 173.19744 
L 136.669091 173.330496 
L 147.141818 200.873088 
L 157.614545 241.455168 
L 168.087273 268.731648 
L 178.56 273.122496 
L 189.032727 267.134976 
L 199.505455 266.33664 
L 209.978182 272.32416 
L 220.450909 274.852224 
L 230.923636 267.800256 
L 241.396364 256.224384 
L 251.869091 244.648512 
L 262.341818 232.40736 
L 272.814545 222.42816 
L 283.287273 217.904256 
L 293.76 213.380352 
L 304.232727 204.598656 
L 314.705455 191.293056 
L 325.178182 177.322176 
L 335.650909 168.673536 
L 346.123636 167.20992 
L 356.596364 170.004096 
L 367.069091 170.802432 
L 377.541818 163.21824 
L 388.014545 151.90848 
L 398.487273 150.311808 
" style="fill:none;stroke:#ff9400;stroke-linecap:square;stroke-width:1.5;"/>
   </g>
   <g id="line2d_26">
    <path clip-path="url(#p0456efc68c)" d="M 73.832727 125.96256 
L 84.305455 135.143424 
L 94.778182 136.873152 
L 105.250909 139.93344 
L 115.723636 155.101824 
L 126.196364 177.721344 
L 136.669091 197.679744 
L 147.141818 214.843968 
L 157.614545 236.265984 
L 168.087273 258.220224 
L 178.56 263.808576 
L 189.032727 249.970752 
L 199.505455 236.931264 
L 209.978182 243.05184 
L 220.450909 260.482176 
L 230.923636 269.529984 
L 241.396364 262.34496 
L 251.869091 243.584064 
L 262.341818 221.895936 
L 272.814545 203.001984 
L 283.287273 188.365824 
L 293.76 177.987456 
L 304.232727 170.669376 
L 314.705455 166.278528 
L 325.178182 164.415744 
L 335.650909 165.21408 
L 346.123636 164.5488 
L 356.596364 156.698496 
L 367.069091 145.521792 
L 377.541818 138.336768 
L 388.014545 134.345088 
L 398.487273 129.28896 
" style="fill:none;stroke:#ffb100;stroke-linecap:square;stroke-width:1.5;"/>
   </g>
   <g id="line2d_27">
    <path clip-path="url(#p0456efc68c)" d="M 73.832727 157.363776 
L 84.305455 175.060224 
L 94.778182 199.409472 
L 105.250909 213.247296 
L 115.723636 210.053952 
L 126.196364 201.405312 
L 136.669091 204.997824 
L 147.141818 221.0976 
L 157.614545 237.463488 
L 168.087273 247.176576 
L 178.56 249.571584 
L 189.032727 246.112128 
L 199.505455 239.06016 
L 209.978182 229.214016 
L 220.450909 216.44064 
L 230.923636 203.667264 
L 241.396364 194.619456 
L 251.869091 190.760832 
L 262.341818 191.958336 
L 272.814545 191.559168 
L 283.287273 179.584128 
L 293.76 155.101824 
L 304.232727 129.422016 
L 314.705455 113.98752 
L 325.178182 108.931392 
L 335.650909 106.137216 
L 346.123636 97.754688 
L 356.596364 85.114368 
L 367.069091 77.131008 
L 377.541818 78.461568 
L 388.014545 89.904384 
L 398.487273 109.197504 
" style="fill:none;stroke:#ffcf00;stroke-linecap:square;stroke-width:1.5;"/>
   </g>
   <g id="line2d_28">
    <path clip-path="url(#p0456efc68c)" d="M 73.832727 142.993728 
L 84.305455 146.852352 
L 94.778182 143.392896 
L 105.250909 139.800384 
L 115.723636 143.392896 
L 126.196364 161.089344 
L 136.669091 189.563328 
L 147.141818 217.7712 
L 157.614545 238.660992 
L 168.087273 249.70464 
L 178.56 251.833536 
L 189.032727 247.309632 
L 199.505455 238.261824 
L 209.978182 228.149568 
L 220.450909 219.10176 
L 230.923636 207.658944 
L 241.396364 192.357504 
L 251.869091 178.386624 
L 262.341818 169.737984 
L 272.814545 160.157952 
L 283.287273 143.25984 
L 293.76 116.914752 
L 304.232727 82.05408 
L 314.705455 45.46368 
L 325.178182 19.384704 
L 335.650909 12.332736 
L 346.123636 15.925248 
L 356.596364 17.255808 
L 367.069091 15.792192 
L 377.541818 21.646656 
L 388.014545 39.343104 
L 398.487273 60.09984 
" style="fill:none;stroke:#ffec00;stroke-linecap:square;stroke-width:1.5;"/>
   </g>
   <g id="line2d_29">
    <path clip-path="url(#p0456efc68c)" d="M 73.832727 113.455296 
L 84.305455 124.498944 
L 94.778182 140.864832 
L 105.250909 152.706816 
L 115.723636 155.367936 
L 126.196364 155.23488 
L 136.669091 166.54464 
L 147.141818 197.413632 
L 157.614545 237.463488 
L 168.087273 267.534144 
L 178.56 275.916672 
L 189.032727 267.134976 
L 199.505455 257.288832 
L 209.978182 252.631872 
L 220.450909 246.511296 
L 230.923636 233.205696 
L 241.396364 216.44064 
L 251.869091 203.80032 
L 262.341818 197.413632 
L 272.814545 193.421952 
L 283.287273 192.357504 
L 293.76 193.954176 
L 304.232727 193.555008 
L 314.705455 189.297216 
L 325.178182 179.584128 
L 335.650909 162.020736 
L 346.123636 145.388736 
L 356.596364 145.388736 
L 367.069091 158.694336 
L 377.541818 165.21408 
L 388.014545 154.968768 
L 398.487273 136.873152 
" style="fill:none;stroke:#eeff00;stroke-linecap:square;stroke-width:1.5;"/>
   </g>
   <g id="line2d_30">
    <path clip-path="url(#p0456efc68c)" d="M 73.832727 133.812864 
L 84.305455 136.340928 
L 94.778182 154.170432 
L 105.250909 171.733824 
L 115.723636 179.051904 
L 126.196364 184.241088 
L 136.669091 199.276416 
L 147.141818 222.295104 
L 157.614545 243.850176 
L 168.087273 256.35744 
L 178.56 255.02688 
L 189.032727 240.124608 
L 199.505455 221.76288 
L 209.978182 213.513408 
L 220.450909 217.372032 
L 230.923636 220.033152 
L 241.396364 210.320064 
L 251.869091 192.623616 
L 262.341818 181.446912 
L 272.814545 181.047744 
L 283.287273 183.442752 
L 293.76 185.039424 
L 304.232727 189.563328 
L 314.705455 195.417792 
L 325.178182 193.421952 
L 335.650909 180.51552 
L 346.123636 160.157952 
L 356.596364 135.542592 
L 367.069091 111.858624 
L 377.541818 95.492736 
L 388.014545 93.097728 
L 398.487273 106.935552 
" style="fill:none;stroke:#d1ff00;stroke-linecap:square;stroke-width:1.5;"/>
   </g>
   <g id="line2d_31">
    <path clip-path="url(#p0456efc68c)" d="M 73.832727 175.060224 
L 84.305455 185.704704 
L 94.778182 194.220288 
L 105.250909 201.937536 
L 115.723636 205.929216 
L 126.196364 205.530048 
L 136.669091 209.388672 
L 147.141818 229.347072 
L 157.614545 261.413568 
L 168.087273 282.569472 
L 178.56 275.916672 
L 189.032727 250.36992 
L 199.505455 230.677632 
L 209.978182 228.814848 
L 220.450909 233.73792 
L 230.923636 230.943744 
L 241.396364 215.642304 
L 251.869091 191.293056 
L 262.341818 164.415744 
L 272.814545 143.126784 
L 283.287273 133.94592 
L 293.76 135.010368 
L 304.232727 137.27232 
L 314.705455 134.877312 
L 325.178182 127.160064 
L 335.650909 113.98752 
L 346.123636 100.814976 
L 356.596364 99.35136 
L 367.069091 113.189184 
L 377.541818 133.94592 
L 388.014545 148.449024 
L 398.487273 153.105984 
" style="fill:none;stroke:#b3ff00;stroke-linecap:square;stroke-width:1.5;"/>
   </g>
   <g id="line2d_32">
    <path clip-path="url(#p0456efc68c)" d="M 73.832727 97.222464 
L 84.305455 93.629952 
L 94.778182 98.553024 
L 105.250909 111.193344 
L 115.723636 126.228672 
L 126.196364 144.5904 
L 136.669091 173.19744 
L 147.141818 208.191168 
L 157.614545 236.798208 
L 168.087273 255.426048 
L 178.56 270.9936 
L 189.032727 284.698368 
L 199.505455 286.428096 
L 209.978182 269.396928 
L 220.450909 240.656832 
L 230.923636 210.586176 
L 241.396364 185.704704 
L 251.869091 168.673536 
L 262.341818 153.771264 
L 272.814545 135.010368 
L 283.287273 119.575872 
L 293.76 113.854464 
L 304.232727 111.592512 
L 314.705455 109.064448 
L 325.178182 109.596672 
L 335.650909 113.189184 
L 346.123636 115.185024 
L 356.596364 115.850304 
L 367.069091 117.31392 
L 377.541818 119.442816 
L 388.014545 126.228672 
L 398.487273 142.860672 
" style="fill:none;stroke:#96ff00;stroke-linecap:square;stroke-width:1.5;"/>
   </g>
   <g id="line2d_33">
    <path clip-path="url(#p0456efc68c)" d="M 73.832727 137.27232 
L 84.305455 156.56544 
L 94.778182 162.819072 
L 105.250909 164.415744 
L 115.723636 165.347136 
L 126.196364 170.802432 
L 136.669091 188.49888 
L 147.141818 216.041472 
L 157.614545 237.596544 
L 168.087273 235.73376 
L 178.56 216.839808 
L 189.032727 202.46976 
L 199.505455 202.46976 
L 209.978182 211.1184 
L 220.450909 216.307584 
L 230.923636 211.916736 
L 241.396364 198.47808 
L 251.869091 182.51136 
L 262.341818 173.86272 
L 272.814545 174.794112 
L 283.287273 177.987456 
L 293.76 177.455232 
L 304.232727 174.794112 
L 314.705455 174.394944 
L 325.178182 173.729664 
L 335.650909 166.943808 
L 346.123636 153.638208 
L 356.596364 139.26816 
L 367.069091 129.155904 
L 377.541818 123.96672 
L 388.014545 122.103936 
L 398.487273 126.893952 
" style="fill:none;stroke:#78ff00;stroke-linecap:square;stroke-width:1.5;"/>
   </g>
   <g id="line2d_34">
    <path clip-path="url(#p0456efc68c)" d="M 73.832727 133.546752 
L 84.305455 146.054016 
L 94.778182 159.492672 
L 105.250909 169.471872 
L 115.723636 175.592448 
L 126.196364 184.773312 
L 136.669091 202.602816 
L 147.141818 225.222336 
L 157.614545 240.656832 
L 168.087273 243.317952 
L 178.56 239.193216 
L 189.032727 236.132928 
L 199.505455 236.39904 
L 209.978182 233.07264 
L 220.450909 220.43232 
L 230.923636 201.937536 
L 241.396364 187.700544 
L 251.869091 183.17664 
L 262.341818 183.708864 
L 272.814545 183.043584 
L 283.287273 178.51968 
L 293.76 169.072704 
L 304.232727 158.295168 
L 314.705455 152.307648 
L 325.178182 154.037376 
L 335.650909 163.351296 
L 346.123636 173.995776 
L 356.596364 177.18912 
L 367.069091 170.802432 
L 377.541818 158.56128 
L 388.014545 148.182912 
L 398.487273 141.264 
" style="fill:none;stroke:#5bff00;stroke-linecap:square;stroke-width:1.5;"/>
   </g>
   <g id="line2d_35">
    <path clip-path="url(#p0456efc68c)" d="M 73.832727 194.353344 
L 84.305455 206.062272 
L 94.778182 211.650624 
L 105.250909 212.315904 
L 115.723636 204.4656 
L 126.196364 195.018624 
L 136.669091 200.606976 
L 147.141818 222.827328 
L 157.614545 242.785728 
L 168.087273 247.575744 
L 178.56 239.72544 
L 189.032727 224.690112 
L 199.505455 208.856448 
L 209.978182 197.280576 
L 220.450909 188.49888 
L 230.923636 175.85856 
L 241.396364 157.762944 
L 251.869091 145.388736 
L 262.341818 151.90848 
L 272.814545 169.604928 
L 283.287273 178.253568 
L 293.76 168.274368 
L 304.232727 149.779584 
L 314.705455 140.066496 
L 325.178182 143.25984 
L 335.650909 150.311808 
L 346.123636 156.56544 
L 356.596364 165.480192 
L 367.069091 175.991616 
L 377.541818 180.382464 
L 388.014545 178.51968 
L 398.487273 174.927168 
" style="fill:none;stroke:#3dff00;stroke-linecap:square;stroke-width:1.5;"/>
   </g>
   <g id="line2d_36">
    <path clip-path="url(#p0456efc68c)" d="M 73.832727 138.203712 
L 84.305455 145.92096 
L 94.778182 148.848192 
L 105.250909 150.977088 
L 115.723636 157.629888 
L 126.196364 170.403264 
L 136.669091 191.293056 
L 147.141818 217.505088 
L 157.614545 235.600704 
L 168.087273 233.338752 
L 178.56 214.843968 
L 189.032727 198.877248 
L 199.505455 200.207808 
L 209.978182 212.315904 
L 220.450909 219.367872 
L 230.923636 213.11424 
L 241.396364 198.078912 
L 251.869091 183.309696 
L 262.341818 169.338816 
L 272.814545 155.23488 
L 283.287273 146.320128 
L 293.76 145.122624 
L 304.232727 145.122624 
L 314.705455 139.667328 
L 325.178182 129.95424 
L 335.650909 122.63616 
L 346.123636 123.30144 
L 356.596364 134.078976 
L 367.069091 146.719296 
L 377.541818 151.2432 
L 388.014545 150.178752 
L 398.487273 148.981248 
" style="fill:none;stroke:#20ff00;stroke-linecap:square;stroke-width:1.5;"/>
   </g>
   <g id="line2d_37">
    <path clip-path="url(#p0456efc68c)" d="M 73.832727 175.326336 
L 84.305455 173.729664 
L 94.778182 177.455232 
L 105.250909 181.579968 
L 115.723636 180.382464 
L 126.196364 177.721344 
L 136.669091 185.039424 
L 147.141818 206.993664 
L 157.614545 236.265984 
L 168.087273 257.288832 
L 178.56 258.486336 
L 189.032727 248.507136 
L 199.505455 243.05184 
L 209.978182 238.128768 
L 220.450909 218.037312 
L 230.923636 184.108032 
L 241.396364 150.844032 
L 251.869091 124.632 
L 262.341818 105.072768 
L 272.814545 91.900224 
L 283.287273 84.449088 
L 293.76 83.251584 
L 304.232727 87.642432 
L 314.705455 94.960512 
L 325.178182 102.943872 
L 335.650909 111.193344 
L 346.123636 125.829504 
L 356.596364 148.715136 
L 367.069091 166.278528 
L 377.541818 170.137152 
L 388.014545 167.8752 
L 398.487273 167.742144 
" style="fill:none;stroke:#04ff08;stroke-linecap:square;stroke-width:1.5;"/>
   </g>
   <g id="line2d_38">
    <path clip-path="url(#p0456efc68c)" d="M 73.832727 168.54048 
L 84.305455 157.629888 
L 94.778182 149.91264 
L 105.250909 153.105984 
L 115.723636 161.754624 
L 126.196364 172.798272 
L 136.669091 191.026944 
L 147.141818 215.642304 
L 157.614545 237.862656 
L 168.087273 244.249344 
L 178.56 230.41152 
L 189.032727 210.053952 
L 199.505455 198.211968 
L 209.978182 194.4864 
L 220.450909 189.297216 
L 230.923636 175.725504 
L 241.396364 152.972928 
L 251.869091 128.490624 
L 262.341818 113.854464 
L 272.814545 109.197504 
L 283.287273 106.137216 
L 293.76 101.480256 
L 304.232727 96.69024 
L 314.705455 97.488576 
L 325.178182 107.068608 
L 335.650909 119.043648 
L 346.123636 124.099776 
L 356.596364 119.841984 
L 367.069091 111.592512 
L 377.541818 106.137216 
L 388.014545 103.476096 
L 398.487273 101.746368 
" style="fill:none;stroke:#00ff21;stroke-linecap:square;stroke-width:1.5;"/>
   </g>
   <g id="line2d_39">
    <path clip-path="url(#p0456efc68c)" d="M 73.832727 180.116352 
L 84.305455 183.442752 
L 94.778182 184.5072 
L 105.250909 191.958336 
L 115.723636 201.671424 
L 126.196364 205.929216 
L 136.669091 205.929216 
L 147.141818 214.710912 
L 157.614545 237.596544 
L 168.087273 255.426048 
L 178.56 243.05184 
L 189.032727 202.46976 
L 199.505455 160.823232 
L 209.978182 138.203712 
L 220.450909 131.151744 
L 230.923636 128.756736 
L 241.396364 127.9584 
L 251.869091 126.095616 
L 262.341818 116.781696 
L 272.814545 101.613312 
L 283.287273 92.964672 
L 293.76 99.750528 
L 304.232727 112.390848 
L 314.705455 117.047808 
L 325.178182 114.785856 
L 335.650909 113.455296 
L 346.123636 114.785856 
L 356.596364 118.64448 
L 367.069091 125.430336 
L 377.541818 131.683968 
L 388.014545 135.409536 
L 398.487273 142.59456 
" style="fill:none;stroke:#00ff3f;stroke-linecap:square;stroke-width:1.5;"/>
   </g>
   <g id="line2d_40">
    <path clip-path="url(#p0456efc68c)" d="M 73.832727 153.372096 
L 84.305455 150.311808 
L 94.778182 144.989568 
L 105.250909 139.800384 
L 115.723636 138.203712 
L 126.196364 146.719296 
L 136.669091 169.338816 
L 147.141818 203.268096 
L 157.614545 238.39488 
L 168.087273 264.739968 
L 178.56 278.31168 
L 189.032727 281.105856 
L 199.505455 276.98112 
L 209.978182 267.134976 
L 220.450909 249.970752 
L 230.923636 231.0768 
L 241.396364 218.702592 
L 251.869091 202.868928 
L 262.341818 168.008256 
L 272.814545 126.095616 
L 283.287273 106.935552 
L 293.76 113.056128 
L 304.232727 115.717248 
L 314.705455 101.480256 
L 325.178182 85.114368 
L 335.650909 79.792128 
L 346.123636 81.521856 
L 356.596364 77.663232 
L 367.069091 63.293184 
L 377.541818 45.995904 
L 388.014545 36.681984 
L 398.487273 40.274496 
" style="fill:none;stroke:#00ff5c;stroke-linecap:square;stroke-width:1.5;"/>
   </g>
   <g id="line2d_41">
    <path clip-path="url(#p0456efc68c)" d="M 73.832727 110.395008 
L 84.305455 113.189184 
L 94.778182 132.482304 
L 105.250909 155.500992 
L 115.723636 169.471872 
L 126.196364 177.455232 
L 136.669091 194.885568 
L 147.141818 225.355392 
L 157.614545 255.02688 
L 168.087273 267.6672 
L 178.56 253.563264 
L 189.032727 220.166208 
L 199.505455 189.297216 
L 209.978182 178.386624 
L 220.450909 187.16832 
L 230.923636 193.15584 
L 241.396364 177.987456 
L 251.869091 149.24736 
L 262.341818 125.96256 
L 272.814545 116.781696 
L 283.287273 117.31392 
L 293.76 116.116416 
L 304.232727 109.064448 
L 314.705455 105.471936 
L 325.178182 117.580032 
L 335.650909 146.187072 
L 346.123636 175.991616 
L 356.596364 191.958336 
L 367.069091 189.430272 
L 377.541818 179.717184 
L 388.014545 178.785792 
L 398.487273 185.571648 
" style="fill:none;stroke:#00ff7a;stroke-linecap:square;stroke-width:1.5;"/>
   </g>
   <g id="line2d_42">
    <path clip-path="url(#p0456efc68c)" d="M 73.832727 155.767104 
L 84.305455 162.286848 
L 94.778182 162.153792 
L 105.250909 156.432384 
L 115.723636 152.57376 
L 126.196364 160.55712 
L 136.669091 185.039424 
L 147.141818 219.900096 
L 157.614545 249.03936 
L 168.087273 260.615232 
L 178.56 258.087168 
L 189.032727 252.764928 
L 199.505455 252.498816 
L 209.978182 254.760768 
L 220.450909 251.434368 
L 230.923636 241.987392 
L 241.396364 231.875136 
L 251.869091 222.694272 
L 262.341818 210.719232 
L 272.814545 198.345024 
L 283.287273 189.297216 
L 293.76 181.713024 
L 304.232727 168.673536 
L 314.705455 147.384576 
L 325.178182 122.236992 
L 335.650909 100.948032 
L 346.123636 93.097728 
L 356.596364 105.471936 
L 367.069091 131.817024 
L 377.541818 153.771264 
L 388.014545 155.23488 
L 398.487273 136.60704 
" style="fill:none;stroke:#00ff97;stroke-linecap:square;stroke-width:1.5;"/>
   </g>
   <g id="line2d_43">
    <path clip-path="url(#p0456efc68c)" d="M 73.832727 165.87936 
L 84.305455 173.729664 
L 94.778182 184.906368 
L 105.250909 187.8336 
L 115.723636 181.579968 
L 126.196364 183.17664 
L 136.669091 204.332544 
L 147.141818 233.07264 
L 157.614545 249.305472 
L 168.087273 252.631872 
L 178.56 255.159936 
L 189.032727 259.151616 
L 199.505455 258.885504 
L 209.978182 251.434368 
L 220.450909 236.665152 
L 230.923636 215.11008 
L 241.396364 190.627776 
L 251.869091 175.85856 
L 262.341818 178.652736 
L 272.814545 189.82944 
L 283.287273 197.413632 
L 293.76 198.211968 
L 304.232727 195.284736 
L 314.705455 188.764992 
L 325.178182 182.644416 
L 335.650909 188.49888 
L 346.123636 205.13088 
L 356.596364 214.4448 
L 367.069091 205.663104 
L 377.541818 188.764992 
L 388.014545 175.19328 
L 398.487273 157.762944 
" style="fill:none;stroke:#00ffb5;stroke-linecap:square;stroke-width:1.5;"/>
   </g>
   <g id="line2d_44">
    <path clip-path="url(#p0456efc68c)" d="M 73.832727 144.191232 
L 84.305455 158.029056 
L 94.778182 155.767104 
L 105.250909 145.521792 
L 115.723636 141.92928 
L 126.196364 154.968768 
L 136.669091 185.17248 
L 147.141818 221.76288 
L 157.614545 246.37824 
L 168.087273 249.970752 
L 178.56 240.257664 
L 189.032727 228.947904 
L 199.505455 222.028992 
L 209.978182 215.376192 
L 220.450909 202.868928 
L 230.923636 185.438592 
L 241.396364 170.403264 
L 251.869091 164.282688 
L 262.341818 163.617408 
L 272.814545 158.428224 
L 283.287273 143.92512 
L 293.76 123.434496 
L 304.232727 109.729728 
L 314.705455 111.459456 
L 325.178182 119.841984 
L 335.650909 117.31392 
L 346.123636 97.488576 
L 356.596364 70.212096 
L 367.069091 43.334784 
L 377.541818 17.52192 
L 385.508184 -1 
" style="fill:none;stroke:#00ffd3;stroke-linecap:square;stroke-width:1.5;"/>
   </g>
   <g id="line2d_45">
    <path clip-path="url(#p0456efc68c)" d="M 73.832727 231.0768 
L 84.305455 226.153728 
L 94.778182 209.388672 
L 105.250909 190.760832 
L 115.723636 181.047744 
L 126.196364 188.898048 
L 136.669091 209.388672 
L 147.141818 228.548736 
L 157.614545 240.257664 
L 168.087273 244.914624 
L 178.56 239.991552 
L 189.032727 224.956224 
L 199.505455 202.602816 
L 209.978182 174.794112 
L 220.450909 149.114304 
L 230.923636 136.074816 
L 241.396364 136.740096 
L 251.869091 143.126784 
L 262.341818 148.315968 
L 272.814545 151.642368 
L 283.287273 155.23488 
L 293.76 158.428224 
L 304.232727 159.359616 
L 314.705455 155.90016 
L 325.178182 147.517632 
L 335.650909 140.199552 
L 346.123636 139.135104 
L 356.596364 137.538432 
L 367.069091 128.756736 
L 377.541818 121.837824 
L 388.014545 127.426176 
L 398.487273 136.207872 
" style="fill:none;stroke:#00fff6;stroke-linecap:square;stroke-width:1.5;"/>
   </g>
   <g id="line2d_46">
    <path clip-path="url(#p0456efc68c)" d="M 73.832727 160.024896 
L 84.305455 173.463552 
L 94.778182 183.84192 
L 105.250909 190.095552 
L 115.723636 191.559168 
L 126.196364 189.563328 
L 136.669091 193.688064 
L 147.141818 211.1184 
L 157.614545 234.935424 
L 168.087273 250.502976 
L 178.56 249.172416 
L 189.032727 233.73792 
L 199.505455 217.904256 
L 209.978182 213.912576 
L 220.450909 220.299264 
L 230.923636 228.282624 
L 241.396364 230.544576 
L 251.869091 221.629824 
L 262.341818 208.324224 
L 272.814545 201.937536 
L 283.287273 200.740032 
L 293.76 191.958336 
L 304.232727 173.19744 
L 314.705455 160.291008 
L 325.178182 163.351296 
L 335.650909 167.742144 
L 346.123636 158.428224 
L 356.596364 144.723456 
L 367.069091 141.264 
L 377.541818 142.727616 
L 388.014545 135.010368 
L 398.487273 119.176704 
" style="fill:none;stroke:#00eaff;stroke-linecap:square;stroke-width:1.5;"/>
   </g>
   <g id="line2d_47">
    <path clip-path="url(#p0456efc68c)" d="M 73.832727 131.018688 
L 84.305455 136.340928 
L 94.778182 146.719296 
L 105.250909 150.178752 
L 115.723636 152.839872 
L 126.196364 165.480192 
L 136.669091 188.49888 
L 147.141818 214.710912 
L 157.614545 235.467648 
L 168.087273 246.245184 
L 178.56 247.442688 
L 189.032727 240.523776 
L 199.505455 225.887616 
L 209.978182 202.203648 
L 220.450909 175.459392 
L 230.923636 153.771264 
L 241.396364 137.804544 
L 251.869091 123.035328 
L 262.341818 108.798336 
L 272.814545 103.476096 
L 283.287273 116.382528 
L 293.76 141.530112 
L 304.232727 160.024896 
L 314.705455 156.56544 
L 325.178182 137.538432 
L 335.650909 122.236992 
L 346.123636 116.116416 
L 356.596364 102.544704 
L 367.069091 71.808768 
L 377.541818 39.210048 
L 388.014545 26.968896 
L 398.487273 35.351424 
" style="fill:none;stroke:#00cdff;stroke-linecap:square;stroke-width:1.5;"/>
   </g>
   <g id="line2d_48">
    <path clip-path="url(#p0456efc68c)" d="M 73.832727 182.112192 
L 84.305455 174.261888 
L 94.778182 171.068544 
L 105.250909 176.656896 
L 115.723636 180.116352 
L 126.196364 181.446912 
L 136.669091 193.82112 
L 147.141818 216.972864 
L 157.614545 236.798208 
L 168.087273 244.781568 
L 178.56 241.72128 
L 189.032727 228.149568 
L 199.505455 208.058112 
L 209.978182 189.82944 
L 220.450909 182.644416 
L 230.923636 187.567488 
L 241.396364 195.15168 
L 251.869091 196.349184 
L 262.341818 190.228608 
L 272.814545 181.047744 
L 283.287273 171.733824 
L 293.76 161.089344 
L 304.232727 152.041536 
L 314.705455 146.985408 
L 325.178182 143.92512 
L 335.650909 140.59872 
L 346.123636 140.997888 
L 356.596364 146.852352 
L 367.069091 149.380416 
L 377.541818 140.465664 
L 388.014545 124.099776 
L 398.487273 110.66112 
" style="fill:none;stroke:#00afff;stroke-linecap:square;stroke-width:1.5;"/>
   </g>
   <g id="line2d_49">
    <path clip-path="url(#p0456efc68c)" d="M 73.832727 142.195392 
L 84.305455 147.118464 
L 94.778182 139.800384 
L 105.250909 128.756736 
L 115.723636 128.224512 
L 126.196364 144.457344 
L 136.669091 177.056064 
L 147.141818 217.372032 
L 157.614545 248.773248 
L 168.087273 259.284672 
L 178.56 251.833536 
L 189.032727 240.39072 
L 199.505455 230.41152 
L 209.978182 215.642304 
L 220.450909 190.893888 
L 230.923636 160.55712 
L 241.396364 130.353408 
L 251.869091 102.810816 
L 262.341818 85.912704 
L 272.814545 86.844096 
L 283.287273 98.819136 
L 293.76 108 
L 304.232727 107.201664 
L 314.705455 100.01664 
L 325.178182 94.960512 
L 335.650909 96.291072 
L 346.123636 99.35136 
L 356.596364 93.629952 
L 367.069091 78.72768 
L 377.541818 70.212096 
L 388.014545 77.530176 
L 398.487273 91.101888 
" style="fill:none;stroke:#0092ff;stroke-linecap:square;stroke-width:1.5;"/>
   </g>
   <g id="line2d_50">
    <path clip-path="url(#p0456efc68c)" d="M 73.832727 148.848192 
L 84.305455 148.315968 
L 94.778182 140.199552 
L 105.250909 134.078976 
L 115.723636 141.92928 
L 126.196364 164.282688 
L 136.669091 193.555008 
L 147.141818 220.166208 
L 157.614545 237.463488 
L 168.087273 240.257664 
L 178.56 229.879296 
L 189.032727 220.166208 
L 199.505455 223.226496 
L 209.978182 234.137088 
L 220.450909 236.532096 
L 230.923636 228.016512 
L 241.396364 219.500928 
L 251.869091 215.908416 
L 262.341818 212.44896 
L 272.814545 206.328384 
L 283.287273 200.074752 
L 293.76 198.611136 
L 304.232727 203.13504 
L 314.705455 204.997824 
L 325.178182 193.288896 
L 335.650909 169.471872 
L 346.123636 146.187072 
L 356.596364 137.006208 
L 367.069091 141.397056 
L 377.541818 140.332608 
L 388.014545 117.31392 
L 398.487273 80.856576 
" style="fill:none;stroke:#0074ff;stroke-linecap:square;stroke-width:1.5;"/>
   </g>
   <g id="line2d_51">
    <path clip-path="url(#p0456efc68c)" d="M 73.832727 128.889792 
L 84.305455 147.118464 
L 94.778182 161.754624 
L 105.250909 166.810752 
L 115.723636 166.278528 
L 126.196364 176.257728 
L 136.669091 204.332544 
L 147.141818 234.4032 
L 157.614545 249.172416 
L 168.087273 247.974912 
L 178.56 235.334592 
L 189.032727 215.77536 
L 199.505455 197.014464 
L 209.978182 182.245248 
L 220.450909 169.87104 
L 230.923636 165.347136 
L 241.396364 171.999936 
L 251.869091 180.781632 
L 262.341818 180.249408 
L 272.814545 171.467712 
L 283.287273 166.145472 
L 293.76 169.471872 
L 304.232727 174.128832 
L 314.705455 173.463552 
L 325.178182 168.407424 
L 335.650909 160.024896 
L 346.123636 148.58208 
L 356.596364 136.473984 
L 367.069091 128.889792 
L 377.541818 127.426176 
L 388.014545 128.756736 
L 398.487273 131.683968 
" style="fill:none;stroke:#0057ff;stroke-linecap:square;stroke-width:1.5;"/>
   </g>
   <g id="line2d_52">
    <path clip-path="url(#p0456efc68c)" d="M 73.832727 83.916864 
L 84.305455 92.03328 
L 94.778182 108 
L 105.250909 136.473984 
L 115.723636 165.21408 
L 126.196364 181.979136 
L 136.669091 195.417792 
L 147.141818 216.573696 
L 157.614545 237.197376 
L 168.087273 241.987392 
L 178.56 231.0768 
L 189.032727 221.363712 
L 199.505455 223.625664 
L 209.978182 230.41152 
L 220.450909 231.875136 
L 230.923636 228.016512 
L 241.396364 217.904256 
L 251.869091 203.933376 
L 262.341818 194.752512 
L 272.814545 194.353344 
L 283.287273 193.288896 
L 293.76 178.51968 
L 304.232727 156.166272 
L 314.705455 144.989568 
L 325.178182 150.710976 
L 335.650909 161.88768 
L 346.123636 164.415744 
L 356.596364 155.23488 
L 367.069091 142.727616 
L 377.541818 137.9376 
L 388.014545 140.465664 
L 398.487273 142.727616 
" style="fill:none;stroke:#0039ff;stroke-linecap:square;stroke-width:1.5;"/>
   </g>
   <g id="line2d_53">
    <path clip-path="url(#p0456efc68c)" d="M 73.832727 191.426112 
L 84.305455 193.555008 
L 94.778182 193.555008 
L 105.250909 190.095552 
L 115.723636 185.970816 
L 126.196364 185.83776 
L 136.669091 196.216128 
L 147.141818 217.372032 
L 157.614545 238.660992 
L 168.087273 248.640192 
L 178.56 248.640192 
L 189.032727 249.970752 
L 199.505455 257.02272 
L 209.978182 263.409408 
L 220.450909 263.67552 
L 230.923636 259.151616 
L 241.396364 252.36576 
L 251.869091 244.116288 
L 262.341818 233.07264 
L 272.814545 217.904256 
L 283.287273 203.933376 
L 293.76 200.47392 
L 304.232727 206.727552 
L 314.705455 210.985344 
L 325.178182 205.929216 
L 335.650909 193.555008 
L 346.123636 179.983296 
L 356.596364 166.677696 
L 367.069091 151.2432 
L 377.541818 134.478144 
L 388.014545 118.64448 
L 398.487273 102.67776 
" style="fill:none;stroke:#001cff;stroke-linecap:square;stroke-width:1.5;"/>
   </g>
   <g id="line2d_54">
    <path clip-path="url(#p0456efc68c)" d="M 73.832727 142.727616 
L 84.305455 156.299328 
L 94.778182 166.677696 
L 105.250909 165.081024 
L 115.723636 158.56128 
L 126.196364 164.016576 
L 136.669091 188.49888 
L 147.141818 221.76288 
L 157.614545 245.180736 
L 168.087273 246.37824 
L 178.56 228.814848 
L 189.032727 208.191168 
L 199.505455 195.550848 
L 209.978182 188.232768 
L 220.450909 182.777472 
L 230.923636 183.442752 
L 241.396364 191.82528 
L 251.869091 198.078912 
L 262.341818 192.091392 
L 272.814545 176.52384 
L 283.287273 162.286848 
L 293.76 162.153792 
L 304.232727 177.588288 
L 314.705455 190.893888 
L 325.178182 185.704704 
L 335.650909 167.20992 
L 346.123636 155.767104 
L 356.596364 161.089344 
L 367.069091 173.19744 
L 377.541818 177.987456 
L 388.014545 169.338816 
L 398.487273 147.9168 
" style="fill:none;stroke:#0800ff;stroke-linecap:square;stroke-width:1.5;"/>
   </g>
   <g id="line2d_55">
    <path clip-path="url(#p0456efc68c)" d="M 73.832727 143.126784 
L 84.305455 152.706816 
L 94.778182 166.145472 
L 105.250909 170.403264 
L 115.723636 168.806592 
L 126.196364 173.330496 
L 136.669091 193.954176 
L 147.141818 227.7504 
L 157.614545 254.494656 
L 168.087273 257.155776 
L 178.56 242.785728 
L 189.032727 230.943744 
L 199.505455 230.810688 
L 209.978182 235.201536 
L 220.450909 235.467648 
L 230.923636 230.677632 
L 241.396364 223.09344 
L 251.869091 213.513408 
L 262.341818 205.79616 
L 272.814545 200.740032 
L 283.287273 194.220288 
L 293.76 184.640256 
L 304.232727 174.927168 
L 314.705455 168.274368 
L 325.178182 165.87936 
L 335.650909 166.54464 
L 346.123636 169.604928 
L 356.596364 175.326336 
L 367.069091 179.584128 
L 377.541818 175.85856 
L 388.014545 165.347136 
L 398.487273 155.500992 
" style="fill:none;stroke:#2500ff;stroke-linecap:square;stroke-width:1.5;"/>
   </g>
   <g id="line2d_56">
    <path clip-path="url(#p0456efc68c)" d="M 73.832727 165.87936 
L 84.305455 161.2224 
L 94.778182 161.754624 
L 105.250909 163.750464 
L 115.723636 166.145472 
L 126.196364 171.733824 
L 136.669091 186.50304 
L 147.141818 212.182848 
L 157.614545 235.73376 
L 168.087273 239.72544 
L 178.56 222.960384 
L 189.032727 200.207808 
L 199.505455 190.361664 
L 209.978182 196.349184 
L 220.450909 202.070592 
L 230.923636 190.228608 
L 241.396364 161.621568 
L 251.869091 130.220352 
L 262.341818 108.133056 
L 272.814545 98.286912 
L 283.287273 98.153856 
L 293.76 99.35136 
L 304.232727 90.170496 
L 314.705455 70.07904 
L 325.178182 54.511488 
L 335.650909 58.237056 
L 346.123636 81.921024 
L 356.596364 109.729728 
L 367.069091 124.765056 
L 377.541818 126.095616 
L 388.014545 123.035328 
L 398.487273 119.043648 
" style="fill:none;stroke:#4300ff;stroke-linecap:square;stroke-width:1.5;"/>
   </g>
   <g id="line2d_57">
    <path clip-path="url(#p0456efc68c)" d="M 73.832727 148.315968 
L 84.305455 157.762944 
L 94.778182 160.956288 
L 105.250909 162.020736 
L 115.723636 167.609088 
L 126.196364 181.579968 
L 136.669091 201.671424 
L 147.141818 222.561216 
L 157.614545 238.660992 
L 168.087273 244.914624 
L 178.56 240.124608 
L 189.032727 231.0768 
L 199.505455 226.41984 
L 209.978182 222.42816 
L 220.450909 211.517568 
L 230.923636 194.885568 
L 241.396364 177.8544 
L 251.869091 164.016576 
L 262.341818 155.500992 
L 272.814545 151.90848 
L 283.287273 148.58208 
L 293.76 140.59872 
L 304.232727 127.9584 
L 314.705455 114.253632 
L 325.178182 100.282752 
L 335.650909 82.187136 
L 346.123636 63.027072 
L 356.596364 57.970944 
L 367.069091 75.40128 
L 377.541818 101.746368 
L 388.014545 118.910592 
L 398.487273 121.039488 
" style="fill:none;stroke:#6000ff;stroke-linecap:square;stroke-width:1.5;"/>
   </g>
   <g id="line2d_58">
    <path clip-path="url(#p0456efc68c)" d="M 73.832727 148.848192 
L 84.305455 156.964608 
L 94.778182 164.415744 
L 105.250909 162.952128 
L 115.723636 156.033216 
L 126.196364 156.698496 
L 136.669091 175.725504 
L 147.141818 211.650624 
L 157.614545 245.04768 
L 168.087273 258.752448 
L 178.56 257.288832 
L 189.032727 253.297152 
L 199.505455 250.769088 
L 209.978182 245.71296 
L 220.450909 235.201536 
L 230.923636 218.569536 
L 241.396364 198.47808 
L 251.869091 182.378304 
L 262.341818 173.86272 
L 272.814545 171.467712 
L 283.287273 172.399104 
L 293.76 173.86272 
L 304.232727 172.53216 
L 314.705455 165.746304 
L 325.178182 155.500992 
L 335.650909 148.58208 
L 346.123636 147.25152 
L 356.596364 144.989568 
L 367.069091 135.143424 
L 377.541818 120.773376 
L 388.014545 110.395008 
L 398.487273 112.124736 
" style="fill:none;stroke:#7e00ff;stroke-linecap:square;stroke-width:1.5;"/>
   </g>
   <g id="line2d_59">
    <path clip-path="url(#p0456efc68c)" d="M 73.832727 216.972864 
L 84.305455 217.638144 
L 94.778182 206.727552 
L 105.250909 194.220288 
L 115.723636 186.236928 
L 126.196364 182.245248 
L 136.669091 187.966656 
L 147.141818 211.1184 
L 157.614545 244.515456 
L 168.087273 271.791936 
L 178.56 282.702528 
L 189.032727 278.843904 
L 199.505455 272.723328 
L 209.978182 274.186944 
L 220.450909 278.178624 
L 230.923636 273.255552 
L 241.396364 256.623552 
L 251.869091 233.07264 
L 262.341818 211.517568 
L 272.814545 202.336704 
L 283.287273 209.654784 
L 293.76 225.08928 
L 304.232727 233.205696 
L 314.705455 224.290944 
L 325.178182 201.671424 
L 335.650909 179.318016 
L 346.123636 167.742144 
L 356.596364 165.480192 
L 367.069091 162.686016 
L 377.541818 153.105984 
L 388.014545 142.195392 
L 398.487273 139.800384 
" style="fill:none;stroke:#9b00ff;stroke-linecap:square;stroke-width:1.5;"/>
   </g>
   <g id="line2d_60">
    <path clip-path="url(#p0456efc68c)" d="M 73.832727 166.145472 
L 84.305455 180.914688 
L 94.778182 193.288896 
L 105.250909 192.623616 
L 115.723636 185.17248 
L 126.196364 190.095552 
L 136.669091 210.187008 
L 147.141818 232.274304 
L 157.614545 246.644352 
L 168.087273 250.502976 
L 178.56 243.05184 
L 189.032727 224.024832 
L 199.505455 193.421952 
L 209.978182 156.698496 
L 220.450909 127.9584 
L 230.923636 119.442816 
L 241.396364 128.091456 
L 251.869091 140.465664 
L 262.341818 150.57792 
L 272.814545 160.690176 
L 283.287273 169.471872 
L 293.76 170.403264 
L 304.232727 160.823232 
L 314.705455 146.054016 
L 325.178182 133.679808 
L 335.650909 129.155904 
L 346.123636 132.083136 
L 356.596364 136.340928 
L 367.069091 136.340928 
L 377.541818 130.752576 
L 388.014545 121.438656 
L 398.487273 111.193344 
" style="fill:none;stroke:#b900ff;stroke-linecap:square;stroke-width:1.5;"/>
   </g>
   <g id="line2d_61">
    <path clip-path="url(#p0456efc68c)" d="M 73.832727 143.92512 
L 84.305455 147.517632 
L 94.778182 151.642368 
L 105.250909 150.045696 
L 115.723636 146.58624 
L 126.196364 152.706816 
L 136.669091 173.064384 
L 147.141818 203.401152 
L 157.614545 235.201536 
L 168.087273 253.829376 
L 178.56 248.37408 
L 189.032727 227.7504 
L 199.505455 210.719232 
L 209.978182 204.4656 
L 220.450909 202.336704 
L 230.923636 198.211968 
L 241.396364 189.16416 
L 251.869091 173.995776 
L 262.341818 154.436544 
L 272.814545 134.877312 
L 283.287273 120.906432 
L 293.76 117.713088 
L 304.232727 122.370048 
L 314.705455 124.498944 
L 325.178182 120.64032 
L 335.650909 117.846144 
L 346.123636 122.769216 
L 356.596364 133.94592 
L 367.069091 143.126784 
L 377.541818 148.049856 
L 388.014545 153.90432 
L 398.487273 162.286848 
" style="fill:none;stroke:#d600ff;stroke-linecap:square;stroke-width:1.5;"/>
   </g>
   <g id="line2d_62">
    <path clip-path="url(#p0456efc68c)" d="M 73.832727 123.567552 
L 84.305455 128.889792 
L 94.778182 145.122624 
L 105.250909 164.814912 
L 115.723636 182.51136 
L 126.196364 198.211968 
L 136.669091 210.586176 
L 147.141818 222.960384 
L 157.614545 240.257664 
L 168.087273 253.430208 
L 178.56 247.841856 
L 189.032727 225.621504 
L 199.505455 205.663104 
L 209.978182 196.881408 
L 220.450909 188.764992 
L 230.923636 173.330496 
L 241.396364 159.492672 
L 251.869091 155.367936 
L 262.341818 149.513472 
L 272.814545 126.494784 
L 283.287273 90.968832 
L 293.76 61.4304 
L 304.232727 48.1248 
L 314.705455 47.45952 
L 325.178182 50.652864 
L 335.650909 52.648704 
L 346.123636 52.249536 
L 356.596364 50.652864 
L 367.069091 50.253696 
L 377.541818 52.515648 
L 388.014545 58.636224 
L 398.487273 68.0832 
" style="fill:none;stroke:#f800fd;stroke-linecap:square;stroke-width:1.5;"/>
   </g>
   <g id="line2d_63">
    <path clip-path="url(#p0456efc68c)" d="M 73.832727 179.451072 
L 84.305455 174.927168 
L 94.778182 179.451072 
L 105.250909 186.902208 
L 115.723636 185.438592 
L 126.196364 181.579968 
L 136.669091 195.15168 
L 147.141818 232.939584 
L 157.614545 278.444736 
L 168.087273 309.180672 
L 178.56 310.644288 
L 189.032727 281.238912 
L 199.505455 235.467648 
L 209.978182 196.349184 
L 220.450909 178.918848 
L 230.923636 179.584128 
L 241.396364 183.043584 
L 251.869091 177.721344 
L 262.341818 161.488512 
L 272.814545 139.401216 
L 283.287273 117.580032 
L 293.76 96.956352 
L 304.232727 77.663232 
L 314.705455 65.42208 
L 325.178182 61.696512 
L 335.650909 60.09984 
L 346.123636 57.970944 
L 356.596364 60.365952 
L 367.069091 69.014592 
L 377.541818 77.131008 
L 388.014545 80.989632 
L 398.487273 84.316032 
" style="fill:none;stroke:#ff00e7;stroke-linecap:square;stroke-width:1.5;"/>
   </g>
   <g id="line2d_64">
    <path clip-path="url(#p0456efc68c)" d="M 73.832727 136.207872 
L 84.305455 144.191232 
L 94.778182 146.985408 
L 105.250909 140.332608 
L 115.723636 137.139264 
L 126.196364 151.110144 
L 136.669091 177.987456 
L 147.141818 207.658944 
L 157.614545 236.665152 
L 168.087273 259.01856 
L 178.56 265.00608 
L 189.032727 250.902144 
L 199.505455 227.218176 
L 209.978182 212.182848 
L 220.450909 213.247296 
L 230.923636 218.037312 
L 241.396364 211.251456 
L 251.869091 192.889728 
L 262.341818 173.330496 
L 272.814545 162.020736 
L 283.287273 159.359616 
L 293.76 156.831552 
L 304.232727 154.303488 
L 314.705455 157.23072 
L 325.178182 163.750464 
L 335.650909 162.020736 
L 346.123636 146.58624 
L 356.596364 129.688128 
L 367.069091 126.228672 
L 377.541818 135.010368 
L 388.014545 140.997888 
L 398.487273 135.94176 
" style="fill:none;stroke:#ff00c9;stroke-linecap:square;stroke-width:1.5;"/>
   </g>
   <g id="line2d_65">
    <path clip-path="url(#p0456efc68c)" d="M 73.832727 180.648576 
L 84.305455 180.914688 
L 94.778182 198.47808 
L 105.250909 212.315904 
L 115.723636 208.989504 
L 126.196364 201.272256 
L 136.669091 208.058112 
L 147.141818 226.685952 
L 157.614545 236.39904 
L 168.087273 225.887616 
L 178.56 206.594496 
L 189.032727 191.692224 
L 199.505455 181.047744 
L 209.978182 168.141312 
L 220.450909 151.90848 
L 230.923636 139.93344 
L 241.396364 138.60288 
L 251.869091 143.92512 
L 262.341818 143.92512 
L 272.814545 134.744256 
L 283.287273 126.62784 
L 293.76 127.160064 
L 304.232727 131.817024 
L 314.705455 129.688128 
L 325.178182 113.98752 
L 335.650909 92.299392 
L 346.123636 80.457408 
L 356.596364 84.449088 
L 367.069091 96.424128 
L 377.541818 107.068608 
L 388.014545 108.399168 
L 398.487273 102.544704 
" style="fill:none;stroke:#ff00ac;stroke-linecap:square;stroke-width:1.5;"/>
   </g>
   <g id="line2d_66">
    <path clip-path="url(#p0456efc68c)" d="M 73.832727 173.995776 
L 84.305455 167.076864 
L 94.778182 144.856512 
L 105.250909 124.898112 
L 115.723636 129.821184 
L 126.196364 161.2224 
L 136.669091 198.744192 
L 147.141818 225.08928 
L 157.614545 239.326272 
L 168.087273 246.37824 
L 178.56 247.309632 
L 189.032727 243.451008 
L 199.505455 238.261824 
L 209.978182 232.806528 
L 220.450909 225.08928 
L 230.923636 212.981184 
L 241.396364 198.611136 
L 251.869091 185.83776 
L 262.341818 177.987456 
L 272.814545 172.931328 
L 283.287273 166.810752 
L 293.76 158.295168 
L 304.232727 149.91264 
L 314.705455 142.195392 
L 325.178182 132.881472 
L 335.650909 118.378368 
L 346.123636 94.428288 
L 356.596364 63.559296 
L 367.069091 39.875328 
L 377.541818 32.82336 
L 388.014545 35.750592 
L 398.487273 38.943936 
" style="fill:none;stroke:#ff008e;stroke-linecap:square;stroke-width:1.5;"/>
   </g>
   <g id="line2d_67">
    <path clip-path="url(#p0456efc68c)" d="M 73.832727 162.020736 
L 84.305455 178.253568 
L 94.778182 201.006144 
L 105.250909 207.792 
L 115.723636 192.623616 
L 126.196364 181.446912 
L 136.669091 195.284736 
L 147.141818 221.363712 
L 157.614545 235.467648 
L 168.087273 230.41152 
L 178.56 219.633984 
L 189.032727 211.78368 
L 199.505455 202.602816 
L 209.978182 188.365824 
L 220.450909 171.86688 
L 230.923636 160.690176 
L 241.396364 159.625728 
L 251.869091 166.677696 
L 262.341818 174.261888 
L 272.814545 175.85856 
L 283.287273 169.072704 
L 293.76 158.428224 
L 304.232727 152.972928 
L 314.705455 158.428224 
L 325.178182 170.403264 
L 335.650909 175.592448 
L 346.123636 170.004096 
L 356.596364 159.625728 
L 367.069091 145.388736 
L 377.541818 130.61952 
L 388.014545 122.370048 
L 398.487273 122.63616 
" style="fill:none;stroke:#ff0071;stroke-linecap:square;stroke-width:1.5;"/>
   </g>
   <g id="line2d_68">
    <path clip-path="url(#p0456efc68c)" d="M 73.832727 156.698496 
L 84.305455 148.049856 
L 94.778182 145.521792 
L 105.250909 155.23488 
L 115.723636 173.463552 
L 126.196364 191.958336 
L 136.669091 208.191168 
L 147.141818 223.891776 
L 157.614545 235.467648 
L 168.087273 238.39488 
L 178.56 236.132928 
L 189.032727 235.06848 
L 199.505455 235.999872 
L 209.978182 232.274304 
L 220.450909 217.238976 
L 230.923636 195.81696 
L 241.396364 177.056064 
L 251.869091 169.471872 
L 262.341818 173.330496 
L 272.814545 178.120512 
L 283.287273 172.931328 
L 293.76 162.153792 
L 304.232727 158.295168 
L 314.705455 158.162112 
L 325.178182 150.977088 
L 335.650909 141.130944 
L 346.123636 137.804544 
L 356.596364 141.663168 
L 367.069091 146.985408 
L 377.541818 145.787904 
L 388.014545 135.675648 
L 398.487273 129.155904 
" style="fill:none;stroke:#ff0053;stroke-linecap:square;stroke-width:1.5;"/>
   </g>
   <g id="line2d_69">
    <path clip-path="url(#p0456efc68c)" d="M 73.832727 155.634048 
L 84.305455 154.702656 
L 94.778182 149.24736 
L 105.250909 141.663168 
L 115.723636 137.405376 
L 126.196364 139.667328 
L 136.669091 153.105984 
L 147.141818 186.236928 
L 157.614545 235.201536 
L 168.087273 275.916672 
L 178.56 292.28256 
L 189.032727 291.218112 
L 199.505455 284.698368 
L 209.978182 275.517504 
L 220.450909 257.554944 
L 230.923636 229.480128 
L 241.396364 203.001984 
L 251.869091 187.035264 
L 262.341818 177.322176 
L 272.814545 167.8752 
L 283.287273 157.496832 
L 293.76 148.315968 
L 304.232727 142.461504 
L 314.705455 139.667328 
L 325.178182 137.006208 
L 335.650909 134.744256 
L 346.123636 134.478144 
L 356.596364 132.748416 
L 367.069091 123.96672 
L 377.541818 108 
L 388.014545 89.239104 
L 398.487273 72.207936 
" style="fill:none;stroke:#ff0035;stroke-linecap:square;stroke-width:1.5;"/>
   </g>
   <g id="line2d_70">
    <path clip-path="url(#p0456efc68c)" d="M 73.832727 150.92941 
L 84.305455 154.887826 
L 94.778182 159.18997 
L 105.250909 162.573473 
L 115.723636 166.02295 
L 126.196364 174.662719 
L 136.669091 193.601023 
L 147.141818 220.333082 
L 157.614545 244.000418 
L 168.087273 254.358828 
L 178.56 250.72529 
L 189.032727 240.631884 
L 199.505455 231.198768 
L 209.978182 223.671679 
L 220.450909 215.574113 
L 230.923636 205.705238 
L 241.396364 195.436642 
L 251.869091 186.363331 
L 262.341818 178.613928 
L 272.814545 171.38178 
L 283.287273 163.982758 
L 293.76 156.402446 
L 304.232727 149.39483 
L 314.705455 143.443901 
L 325.178182 138.171002 
L 335.650909 133.160335 
L 346.123636 128.559924 
L 356.596364 124.596518 
L 367.069091 120.807194 
L 377.541818 116.567143 
L 388.014545 112.175741 
L 398.487273 108.617047 
" style="fill:none;stroke:#000000;stroke-linecap:square;stroke-width:2;"/>
   </g>
   <g id="patch_3">
    <path d="M 57.6 307.584 
L 57.6 41.472 
" style="fill:none;stroke:#000000;stroke-linecap:square;stroke-linejoin:miter;stroke-width:0.8;"/>
   </g>
   <g id="patch_4">
    <path d="M 414.72 307.584 
L 414.72 41.472 
" style="fill:none;stroke:#000000;stroke-linecap:square;stroke-linejoin:miter;stroke-width:0.8;"/>
   </g>
   <g id="patch_5">
    <path d="M 57.6 307.584 
L 414.72 307.584 
" style="fill:none;stroke:#000000;stroke-linecap:square;stroke-linejoin:miter;stroke-width:0.8;"/>
   </g>
   <g id="patch_6">
    <path d="M 57.6 41.472 
L 414.72 41.472 
" style="fill:none;stroke:#000000;stroke-linecap:square;stroke-linejoin:miter;stroke-width:0.8;"/>
   </g>
   <g id="text_21">
    <!-- $V_{rms}=$ 16.212758 -->
    <defs>
     <path d="M 20.609375 0 
L 7.8125 72.90625 
L 17.484375 72.90625 
L 28.078125 10.203125 
L 63.484375 72.90625 
L 74.21875 72.90625 
L 32.078125 0 
z
" id="DejaVuSans-Oblique-56"/>
     <path d="M 44.578125 46.390625 
Q 43.21875 47.125 41.453125 47.515625 
Q 39.703125 47.90625 37.703125 47.90625 
Q 30.515625 47.90625 25.140625 42.453125 
Q 19.78125 37.015625 18.015625 27.875 
L 12.5 0 
L 3.515625 0 
L 14.203125 54.6875 
L 23.1875 54.6875 
L 21.484375 46.1875 
Q 25.046875 50.921875 30 53.453125 
Q 34.96875 56 40.578125 56 
Q 42.046875 56 43.453125 55.828125 
Q 44.875 55.671875 46.296875 55.28125 
z
" id="DejaVuSans-Oblique-72"/>
     <path d="M 89.796875 33.015625 
L 83.40625 0 
L 74.421875 0 
L 80.71875 32.71875 
Q 81.109375 34.8125 81.296875 36.328125 
Q 81.5 37.84375 81.5 38.921875 
Q 81.5 43.3125 79.046875 45.75 
Q 76.609375 48.1875 72.21875 48.1875 
Q 65.671875 48.1875 60.546875 43.28125 
Q 55.421875 38.375 53.90625 30.515625 
L 47.90625 0 
L 38.921875 0 
L 45.3125 32.71875 
Q 45.703125 34.515625 45.890625 36.046875 
Q 46.09375 37.59375 46.09375 38.8125 
Q 46.09375 43.265625 43.65625 45.71875 
Q 41.21875 48.1875 36.921875 48.1875 
Q 30.28125 48.1875 25.140625 43.28125 
Q 20.015625 38.375 18.5 30.515625 
L 12.5 0 
L 3.515625 0 
L 14.203125 54.6875 
L 23.1875 54.6875 
L 21.484375 46.1875 
Q 25.140625 50.984375 30.046875 53.484375 
Q 34.96875 56 40.578125 56 
Q 46.53125 56 50.359375 52.875 
Q 54.203125 49.75 54.984375 44.1875 
Q 59.078125 49.953125 64.46875 52.96875 
Q 69.875 56 75.875 56 
Q 82.90625 56 86.734375 51.953125 
Q 90.578125 47.90625 90.578125 40.484375 
Q 90.578125 38.875 90.375 36.9375 
Q 90.1875 35.015625 89.796875 33.015625 
z
" id="DejaVuSans-Oblique-6d"/>
     <path d="M 50 53.078125 
L 48.296875 44.578125 
Q 44.734375 46.53125 40.765625 47.5 
Q 36.8125 48.484375 32.625 48.484375 
Q 25.53125 48.484375 21.453125 46.0625 
Q 17.390625 43.65625 17.390625 39.5 
Q 17.390625 34.671875 26.859375 32.078125 
Q 27.59375 31.890625 27.9375 31.78125 
L 30.8125 30.90625 
Q 39.796875 28.421875 42.796875 25.6875 
Q 45.796875 22.953125 45.796875 18.21875 
Q 45.796875 9.515625 38.890625 4.046875 
Q 31.984375 -1.421875 20.796875 -1.421875 
Q 16.453125 -1.421875 11.671875 -0.578125 
Q 6.890625 0.25 1.125 2 
L 2.875 11.28125 
Q 7.8125 8.734375 12.59375 7.421875 
Q 17.390625 6.109375 21.78125 6.109375 
Q 28.375 6.109375 32.5 8.9375 
Q 36.625 11.765625 36.625 16.109375 
Q 36.625 20.796875 25.78125 23.6875 
L 24.859375 23.921875 
L 21.78125 24.703125 
Q 14.9375 26.515625 11.765625 29.46875 
Q 8.59375 32.421875 8.59375 37.015625 
Q 8.59375 45.75 15.15625 50.875 
Q 21.734375 56 33.015625 56 
Q 37.453125 56 41.671875 55.265625 
Q 45.90625 54.546875 50 53.078125 
z
" id="DejaVuSans-Oblique-73"/>
     <path d="M 10.59375 45.40625 
L 73.1875 45.40625 
L 73.1875 37.203125 
L 10.59375 37.203125 
z
M 10.59375 25.484375 
L 73.1875 25.484375 
L 73.1875 17.1875 
L 10.59375 17.1875 
z
" id="DejaVuSans-3d"/>
    </defs>
    <g transform="translate(325.178182 163.982758)scale(0.1 -0.1)">
     <use transform="translate(0 0.78125)" xlink:href="#DejaVuSans-Oblique-56"/>
     <use transform="translate(68.408203 -15.625)scale(0.7)" xlink:href="#DejaVuSans-Oblique-72"/>
     <use transform="translate(97.1875 -15.625)scale(0.7)" xlink:href="#DejaVuSans-Oblique-6d"/>
     <use transform="translate(165.375977 -15.625)scale(0.7)" xlink:href="#DejaVuSans-Oblique-73"/>
     <use transform="translate(224.0625 0.78125)" xlink:href="#DejaVuSans-3d"/>
     <use transform="translate(327.333984 0.78125)" xlink:href="#DejaVuSans-20"/>
     <use transform="translate(359.121094 0.78125)" xlink:href="#DejaVuSans-31"/>
     <use transform="translate(422.744141 0.78125)" xlink:href="#DejaVuSans-36"/>
     <use transform="translate(486.367188 0.78125)" xlink:href="#DejaVuSans-2e"/>
     <use transform="translate(518.076172 0.78125)" xlink:href="#DejaVuSans-32"/>
     <use transform="translate(581.699219 0.78125)" xlink:href="#DejaVuSans-31"/>
     <use transform="translate(645.322266 0.78125)" xlink:href="#DejaVuSans-32"/>
     <use transform="translate(708.945312 0.78125)" xlink:href="#DejaVuSans-37"/>
     <use transform="translate(772.568359 0.78125)" xlink:href="#DejaVuSans-35"/>
     <use transform="translate(836.191406 0.78125)" xlink:href="#DejaVuSans-38"/>
    </g>
   </g>
   <g id="text_22">
    <!-- Channel 8 - Unit 1 -->
    <defs>
     <path d="M 64.40625 67.28125 
L 64.40625 56.890625 
Q 59.421875 61.53125 53.78125 63.8125 
Q 48.140625 66.109375 41.796875 66.109375 
Q 29.296875 66.109375 22.65625 58.46875 
Q 16.015625 50.828125 16.015625 36.375 
Q 16.015625 21.96875 22.65625 14.328125 
Q 29.296875 6.6875 41.796875 6.6875 
Q 48.140625 6.6875 53.78125 8.984375 
Q 59.421875 11.28125 64.40625 15.921875 
L 64.40625 5.609375 
Q 59.234375 2.09375 53.4375 0.328125 
Q 47.65625 -1.421875 41.21875 -1.421875 
Q 24.65625 -1.421875 15.125 8.703125 
Q 5.609375 18.84375 5.609375 36.375 
Q 5.609375 53.953125 15.125 64.078125 
Q 24.65625 74.21875 41.21875 74.21875 
Q 47.75 74.21875 53.53125 72.484375 
Q 59.328125 70.75 64.40625 67.28125 
z
" id="DejaVuSans-43"/>
     <path d="M 54.890625 33.015625 
L 54.890625 0 
L 45.90625 0 
L 45.90625 32.71875 
Q 45.90625 40.484375 42.875 44.328125 
Q 39.84375 48.1875 33.796875 48.1875 
Q 26.515625 48.1875 22.3125 43.546875 
Q 18.109375 38.921875 18.109375 30.90625 
L 18.109375 0 
L 9.078125 0 
L 9.078125 75.984375 
L 18.109375 75.984375 
L 18.109375 46.1875 
Q 21.34375 51.125 25.703125 53.5625 
Q 30.078125 56 35.796875 56 
Q 45.21875 56 50.046875 50.171875 
Q 54.890625 44.34375 54.890625 33.015625 
z
" id="DejaVuSans-68"/>
     <path d="M 54.890625 33.015625 
L 54.890625 0 
L 45.90625 0 
L 45.90625 32.71875 
Q 45.90625 40.484375 42.875 44.328125 
Q 39.84375 48.1875 33.796875 48.1875 
Q 26.515625 48.1875 22.3125 43.546875 
Q 18.109375 38.921875 18.109375 30.90625 
L 18.109375 0 
L 9.078125 0 
L 9.078125 54.6875 
L 18.109375 54.6875 
L 18.109375 46.1875 
Q 21.34375 51.125 25.703125 53.5625 
Q 30.078125 56 35.796875 56 
Q 45.21875 56 50.046875 50.171875 
Q 54.890625 44.34375 54.890625 33.015625 
z
" id="DejaVuSans-6e"/>
     <path d="M 4.890625 31.390625 
L 31.203125 31.390625 
L 31.203125 23.390625 
L 4.890625 23.390625 
z
" id="DejaVuSans-2d"/>
     <path d="M 8.6875 72.90625 
L 18.609375 72.90625 
L 18.609375 28.609375 
Q 18.609375 16.890625 22.84375 11.734375 
Q 27.09375 6.59375 36.625 6.59375 
Q 46.09375 6.59375 50.34375 11.734375 
Q 54.59375 16.890625 54.59375 28.609375 
L 54.59375 72.90625 
L 64.5 72.90625 
L 64.5 27.390625 
Q 64.5 13.140625 57.4375 5.859375 
Q 50.390625 -1.421875 36.625 -1.421875 
Q 22.796875 -1.421875 15.734375 5.859375 
Q 8.6875 13.140625 8.6875 27.390625 
z
" id="DejaVuSans-55"/>
    </defs>
    <g transform="translate(181.887187 35.472)scale(0.12 -0.12)">
     <use xlink:href="#DejaVuSans-43"/>
     <use x="69.824219" xlink:href="#DejaVuSans-68"/>
     <use x="133.203125" xlink:href="#DejaVuSans-61"/>
     <use x="194.482422" xlink:href="#DejaVuSans-6e"/>
     <use x="257.861328" xlink:href="#DejaVuSans-6e"/>
     <use x="321.240234" xlink:href="#DejaVuSans-65"/>
     <use x="382.763672" xlink:href="#DejaVuSans-6c"/>
     <use x="410.546875" xlink:href="#DejaVuSans-20"/>
     <use x="442.333984" xlink:href="#DejaVuSans-38"/>
     <use x="505.957031" xlink:href="#DejaVuSans-20"/>
     <use x="537.744141" xlink:href="#DejaVuSans-2d"/>
     <use x="573.828125" xlink:href="#DejaVuSans-20"/>
     <use x="605.615234" xlink:href="#DejaVuSans-55"/>
     <use x="678.808594" xlink:href="#DejaVuSans-6e"/>
     <use x="742.1875" xlink:href="#DejaVuSans-69"/>
     <use x="769.970703" xlink:href="#DejaVuSans-74"/>
     <use x="809.179688" xlink:href="#DejaVuSans-20"/>
     <use x="840.966797" xlink:href="#DejaVuSans-31"/>
    </g>
   </g>
  </g>
 </g>
 <defs>
  <clipPath id="p0456efc68c">
   <rect height="266.112" width="357.12" x="57.6" y="41.472"/>
  </clipPath>
 </defs>
</svg>
