<?xml version="1.0" encoding="utf-8" standalone="no"?>
<!DOCTYPE svg PUBLIC "-//W3C//DTD SVG 1.1//EN"
  "http://www.w3.org/Graphics/SVG/1.1/DTD/svg11.dtd">
<!-- Created with matplotlib (http://matplotlib.org/) -->
<svg height="345pt" version="1.1" viewBox="0 0 460 345" width="460pt" xmlns="http://www.w3.org/2000/svg" xmlns:xlink="http://www.w3.org/1999/xlink">
 <defs>
  <style type="text/css">
*{stroke-linecap:butt;stroke-linejoin:round;}
  </style>
 </defs>
 <g id="figure_1">
  <g id="patch_1">
   <path d="M 0 345.6 
L 460.8 345.6 
L 460.8 0 
L 0 0 
z
" style="fill:#ffffff;"/>
  </g>
  <g id="axes_1">
   <g id="patch_2">
    <path d="M 57.6 307.584 
L 414.72 307.584 
L 414.72 41.472 
L 57.6 41.472 
z
" style="fill:#ffffff;"/>
   </g>
   <g id="PolyCollection_1">
    <defs>
     <path d="M 73.832727 -192.214838 
L 73.832727 -162.708239 
L 84.305455 -162.473082 
L 94.778182 -162.759477 
L 105.250909 -164.62987 
L 115.723636 -167.464428 
L 126.196364 -167.200237 
L 136.669091 -157.840152 
L 147.141818 -137.437341 
L 157.614545 -103.529265 
L 168.087273 -65.305434 
L 178.56 -51.073752 
L 189.032727 -50.158819 
L 199.505455 -50.112 
L 209.978182 -53.462841 
L 220.450909 -73.195034 
L 230.923636 -100.127018 
L 241.396364 -123.151757 
L 251.869091 -145.027961 
L 262.341818 -165.746606 
L 272.814545 -181.893247 
L 283.287273 -196.047138 
L 293.76 -209.189332 
L 304.232727 -220.262065 
L 314.705455 -231.11317 
L 325.178182 -240.316225 
L 335.650909 -247.221888 
L 346.123636 -251.276273 
L 356.596364 -252.764205 
L 367.069091 -252.759861 
L 377.541818 -252.037186 
L 388.014545 -250.641111 
L 398.487273 -247.980754 
L 398.487273 -282.710227 
L 398.487273 -282.710227 
L 388.014545 -283.935493 
L 377.541818 -284.027116 
L 367.069091 -283.319307 
L 356.596364 -281.58713 
L 346.123636 -278.680578 
L 335.650909 -275.198132 
L 325.178182 -270.799121 
L 314.705455 -262.96512 
L 304.232727 -253.627672 
L 293.76 -241.762871 
L 283.287273 -229.012719 
L 272.814545 -212.708253 
L 262.341818 -193.454317 
L 251.869091 -175.49053 
L 241.396364 -156.481915 
L 230.923636 -133.950622 
L 220.450909 -108.457552 
L 209.978182 -82.730911 
L 199.505455 -71.304258 
L 189.032727 -70.086492 
L 178.56 -77.061732 
L 168.087273 -99.535365 
L 157.614545 -127.905739 
L 147.141818 -155.165946 
L 136.669091 -176.100782 
L 126.196364 -185.775454 
L 115.723636 -188.525538 
L 105.250909 -188.988469 
L 94.778182 -190.258523 
L 84.305455 -191.765036 
L 73.832727 -192.214838 
z
" id="me3a0256236"/>
    </defs>
    <g clip-path="url(#pe3b4b8fa06)">
     <use style="fill-opacity:0.5;" x="0" xlink:href="#me3a0256236" y="345.6"/>
    </g>
   </g>
   <g id="matplotlib.axis_1">
    <g id="xtick_1">
     <g id="line2d_1">
      <defs>
       <path d="M 0 0 
L 0 3.5 
" id="mfc144522f0" style="stroke:#000000;stroke-width:0.8;"/>
      </defs>
      <g>
       <use style="stroke:#000000;stroke-width:0.8;" x="73.832727" xlink:href="#mfc144522f0" y="307.584"/>
      </g>
     </g>
     <g id="text_1">
      <!-- 0.0000 -->
      <defs>
       <path d="M 31.78125 66.40625 
Q 24.171875 66.40625 20.328125 58.90625 
Q 16.5 51.421875 16.5 36.375 
Q 16.5 21.390625 20.328125 13.890625 
Q 24.171875 6.390625 31.78125 6.390625 
Q 39.453125 6.390625 43.28125 13.890625 
Q 47.125 21.390625 47.125 36.375 
Q 47.125 51.421875 43.28125 58.90625 
Q 39.453125 66.40625 31.78125 66.40625 
z
M 31.78125 74.21875 
Q 44.046875 74.21875 50.515625 64.515625 
Q 56.984375 54.828125 56.984375 36.375 
Q 56.984375 17.96875 50.515625 8.265625 
Q 44.046875 -1.421875 31.78125 -1.421875 
Q 19.53125 -1.421875 13.0625 8.265625 
Q 6.59375 17.96875 6.59375 36.375 
Q 6.59375 54.828125 13.0625 64.515625 
Q 19.53125 74.21875 31.78125 74.21875 
z
" id="DejaVuSans-30"/>
       <path d="M 10.6875 12.40625 
L 21 12.40625 
L 21 0 
L 10.6875 0 
z
" id="DejaVuSans-2e"/>
      </defs>
      <g transform="translate(56.337415 322.182437)scale(0.1 -0.1)">
       <use xlink:href="#DejaVuSans-30"/>
       <use x="63.623047" xlink:href="#DejaVuSans-2e"/>
       <use x="95.410156" xlink:href="#DejaVuSans-30"/>
       <use x="159.033203" xlink:href="#DejaVuSans-30"/>
       <use x="222.65625" xlink:href="#DejaVuSans-30"/>
       <use x="286.279297" xlink:href="#DejaVuSans-30"/>
      </g>
     </g>
    </g>
    <g id="xtick_2">
     <g id="line2d_2">
      <g>
       <use style="stroke:#000000;stroke-width:0.8;" x="115.723636" xlink:href="#mfc144522f0" y="307.584"/>
      </g>
     </g>
     <g id="text_2">
      <!-- 0.0001 -->
      <defs>
       <path d="M 12.40625 8.296875 
L 28.515625 8.296875 
L 28.515625 63.921875 
L 10.984375 60.40625 
L 10.984375 69.390625 
L 28.421875 72.90625 
L 38.28125 72.90625 
L 38.28125 8.296875 
L 54.390625 8.296875 
L 54.390625 0 
L 12.40625 0 
z
" id="DejaVuSans-31"/>
      </defs>
      <g transform="translate(98.228324 322.182437)scale(0.1 -0.1)">
       <use xlink:href="#DejaVuSans-30"/>
       <use x="63.623047" xlink:href="#DejaVuSans-2e"/>
       <use x="95.410156" xlink:href="#DejaVuSans-30"/>
       <use x="159.033203" xlink:href="#DejaVuSans-30"/>
       <use x="222.65625" xlink:href="#DejaVuSans-30"/>
       <use x="286.279297" xlink:href="#DejaVuSans-31"/>
      </g>
     </g>
    </g>
    <g id="xtick_3">
     <g id="line2d_3">
      <g>
       <use style="stroke:#000000;stroke-width:0.8;" x="157.614545" xlink:href="#mfc144522f0" y="307.584"/>
      </g>
     </g>
     <g id="text_3">
      <!-- 0.0002 -->
      <defs>
       <path d="M 19.1875 8.296875 
L 53.609375 8.296875 
L 53.609375 0 
L 7.328125 0 
L 7.328125 8.296875 
Q 12.9375 14.109375 22.625 23.890625 
Q 32.328125 33.6875 34.8125 36.53125 
Q 39.546875 41.84375 41.421875 45.53125 
Q 43.3125 49.21875 43.3125 52.78125 
Q 43.3125 58.59375 39.234375 62.25 
Q 35.15625 65.921875 28.609375 65.921875 
Q 23.96875 65.921875 18.8125 64.3125 
Q 13.671875 62.703125 7.8125 59.421875 
L 7.8125 69.390625 
Q 13.765625 71.78125 18.9375 73 
Q 24.125 74.21875 28.421875 74.21875 
Q 39.75 74.21875 46.484375 68.546875 
Q 53.21875 62.890625 53.21875 53.421875 
Q 53.21875 48.921875 51.53125 44.890625 
Q 49.859375 40.875 45.40625 35.40625 
Q 44.1875 33.984375 37.640625 27.21875 
Q 31.109375 20.453125 19.1875 8.296875 
z
" id="DejaVuSans-32"/>
      </defs>
      <g transform="translate(140.119233 322.182437)scale(0.1 -0.1)">
       <use xlink:href="#DejaVuSans-30"/>
       <use x="63.623047" xlink:href="#DejaVuSans-2e"/>
       <use x="95.410156" xlink:href="#DejaVuSans-30"/>
       <use x="159.033203" xlink:href="#DejaVuSans-30"/>
       <use x="222.65625" xlink:href="#DejaVuSans-30"/>
       <use x="286.279297" xlink:href="#DejaVuSans-32"/>
      </g>
     </g>
    </g>
    <g id="xtick_4">
     <g id="line2d_4">
      <g>
       <use style="stroke:#000000;stroke-width:0.8;" x="199.505455" xlink:href="#mfc144522f0" y="307.584"/>
      </g>
     </g>
     <g id="text_4">
      <!-- 0.0003 -->
      <defs>
       <path d="M 40.578125 39.3125 
Q 47.65625 37.796875 51.625 33 
Q 55.609375 28.21875 55.609375 21.1875 
Q 55.609375 10.40625 48.1875 4.484375 
Q 40.765625 -1.421875 27.09375 -1.421875 
Q 22.515625 -1.421875 17.65625 -0.515625 
Q 12.796875 0.390625 7.625 2.203125 
L 7.625 11.71875 
Q 11.71875 9.328125 16.59375 8.109375 
Q 21.484375 6.890625 26.8125 6.890625 
Q 36.078125 6.890625 40.9375 10.546875 
Q 45.796875 14.203125 45.796875 21.1875 
Q 45.796875 27.640625 41.28125 31.265625 
Q 36.765625 34.90625 28.71875 34.90625 
L 20.21875 34.90625 
L 20.21875 43.015625 
L 29.109375 43.015625 
Q 36.375 43.015625 40.234375 45.921875 
Q 44.09375 48.828125 44.09375 54.296875 
Q 44.09375 59.90625 40.109375 62.90625 
Q 36.140625 65.921875 28.71875 65.921875 
Q 24.65625 65.921875 20.015625 65.03125 
Q 15.375 64.15625 9.8125 62.3125 
L 9.8125 71.09375 
Q 15.4375 72.65625 20.34375 73.4375 
Q 25.25 74.21875 29.59375 74.21875 
Q 40.828125 74.21875 47.359375 69.109375 
Q 53.90625 64.015625 53.90625 55.328125 
Q 53.90625 49.265625 50.4375 45.09375 
Q 46.96875 40.921875 40.578125 39.3125 
z
" id="DejaVuSans-33"/>
      </defs>
      <g transform="translate(182.010142 322.182437)scale(0.1 -0.1)">
       <use xlink:href="#DejaVuSans-30"/>
       <use x="63.623047" xlink:href="#DejaVuSans-2e"/>
       <use x="95.410156" xlink:href="#DejaVuSans-30"/>
       <use x="159.033203" xlink:href="#DejaVuSans-30"/>
       <use x="222.65625" xlink:href="#DejaVuSans-30"/>
       <use x="286.279297" xlink:href="#DejaVuSans-33"/>
      </g>
     </g>
    </g>
    <g id="xtick_5">
     <g id="line2d_5">
      <g>
       <use style="stroke:#000000;stroke-width:0.8;" x="241.396364" xlink:href="#mfc144522f0" y="307.584"/>
      </g>
     </g>
     <g id="text_5">
      <!-- 0.0004 -->
      <defs>
       <path d="M 37.796875 64.3125 
L 12.890625 25.390625 
L 37.796875 25.390625 
z
M 35.203125 72.90625 
L 47.609375 72.90625 
L 47.609375 25.390625 
L 58.015625 25.390625 
L 58.015625 17.1875 
L 47.609375 17.1875 
L 47.609375 0 
L 37.796875 0 
L 37.796875 17.1875 
L 4.890625 17.1875 
L 4.890625 26.703125 
z
" id="DejaVuSans-34"/>
      </defs>
      <g transform="translate(223.901051 322.182437)scale(0.1 -0.1)">
       <use xlink:href="#DejaVuSans-30"/>
       <use x="63.623047" xlink:href="#DejaVuSans-2e"/>
       <use x="95.410156" xlink:href="#DejaVuSans-30"/>
       <use x="159.033203" xlink:href="#DejaVuSans-30"/>
       <use x="222.65625" xlink:href="#DejaVuSans-30"/>
       <use x="286.279297" xlink:href="#DejaVuSans-34"/>
      </g>
     </g>
    </g>
    <g id="xtick_6">
     <g id="line2d_6">
      <g>
       <use style="stroke:#000000;stroke-width:0.8;" x="283.287273" xlink:href="#mfc144522f0" y="307.584"/>
      </g>
     </g>
     <g id="text_6">
      <!-- 0.0005 -->
      <defs>
       <path d="M 10.796875 72.90625 
L 49.515625 72.90625 
L 49.515625 64.59375 
L 19.828125 64.59375 
L 19.828125 46.734375 
Q 21.96875 47.46875 24.109375 47.828125 
Q 26.265625 48.1875 28.421875 48.1875 
Q 40.625 48.1875 47.75 41.5 
Q 54.890625 34.8125 54.890625 23.390625 
Q 54.890625 11.625 47.5625 5.09375 
Q 40.234375 -1.421875 26.90625 -1.421875 
Q 22.3125 -1.421875 17.546875 -0.640625 
Q 12.796875 0.140625 7.71875 1.703125 
L 7.71875 11.625 
Q 12.109375 9.234375 16.796875 8.0625 
Q 21.484375 6.890625 26.703125 6.890625 
Q 35.15625 6.890625 40.078125 11.328125 
Q 45.015625 15.765625 45.015625 23.390625 
Q 45.015625 31 40.078125 35.4375 
Q 35.15625 39.890625 26.703125 39.890625 
Q 22.75 39.890625 18.8125 39.015625 
Q 14.890625 38.140625 10.796875 36.28125 
z
" id="DejaVuSans-35"/>
      </defs>
      <g transform="translate(265.79196 322.182437)scale(0.1 -0.1)">
       <use xlink:href="#DejaVuSans-30"/>
       <use x="63.623047" xlink:href="#DejaVuSans-2e"/>
       <use x="95.410156" xlink:href="#DejaVuSans-30"/>
       <use x="159.033203" xlink:href="#DejaVuSans-30"/>
       <use x="222.65625" xlink:href="#DejaVuSans-30"/>
       <use x="286.279297" xlink:href="#DejaVuSans-35"/>
      </g>
     </g>
    </g>
    <g id="xtick_7">
     <g id="line2d_7">
      <g>
       <use style="stroke:#000000;stroke-width:0.8;" x="325.178182" xlink:href="#mfc144522f0" y="307.584"/>
      </g>
     </g>
     <g id="text_7">
      <!-- 0.0006 -->
      <defs>
       <path d="M 33.015625 40.375 
Q 26.375 40.375 22.484375 35.828125 
Q 18.609375 31.296875 18.609375 23.390625 
Q 18.609375 15.53125 22.484375 10.953125 
Q 26.375 6.390625 33.015625 6.390625 
Q 39.65625 6.390625 43.53125 10.953125 
Q 47.40625 15.53125 47.40625 23.390625 
Q 47.40625 31.296875 43.53125 35.828125 
Q 39.65625 40.375 33.015625 40.375 
z
M 52.59375 71.296875 
L 52.59375 62.3125 
Q 48.875 64.0625 45.09375 64.984375 
Q 41.3125 65.921875 37.59375 65.921875 
Q 27.828125 65.921875 22.671875 59.328125 
Q 17.53125 52.734375 16.796875 39.40625 
Q 19.671875 43.65625 24.015625 45.921875 
Q 28.375 48.1875 33.59375 48.1875 
Q 44.578125 48.1875 50.953125 41.515625 
Q 57.328125 34.859375 57.328125 23.390625 
Q 57.328125 12.15625 50.6875 5.359375 
Q 44.046875 -1.421875 33.015625 -1.421875 
Q 20.359375 -1.421875 13.671875 8.265625 
Q 6.984375 17.96875 6.984375 36.375 
Q 6.984375 53.65625 15.1875 63.9375 
Q 23.390625 74.21875 37.203125 74.21875 
Q 40.921875 74.21875 44.703125 73.484375 
Q 48.484375 72.75 52.59375 71.296875 
z
" id="DejaVuSans-36"/>
      </defs>
      <g transform="translate(307.682869 322.182437)scale(0.1 -0.1)">
       <use xlink:href="#DejaVuSans-30"/>
       <use x="63.623047" xlink:href="#DejaVuSans-2e"/>
       <use x="95.410156" xlink:href="#DejaVuSans-30"/>
       <use x="159.033203" xlink:href="#DejaVuSans-30"/>
       <use x="222.65625" xlink:href="#DejaVuSans-30"/>
       <use x="286.279297" xlink:href="#DejaVuSans-36"/>
      </g>
     </g>
    </g>
    <g id="xtick_8">
     <g id="line2d_8">
      <g>
       <use style="stroke:#000000;stroke-width:0.8;" x="367.069091" xlink:href="#mfc144522f0" y="307.584"/>
      </g>
     </g>
     <g id="text_8">
      <!-- 0.0007 -->
      <defs>
       <path d="M 8.203125 72.90625 
L 55.078125 72.90625 
L 55.078125 68.703125 
L 28.609375 0 
L 18.3125 0 
L 43.21875 64.59375 
L 8.203125 64.59375 
z
" id="DejaVuSans-37"/>
      </defs>
      <g transform="translate(349.573778 322.182437)scale(0.1 -0.1)">
       <use xlink:href="#DejaVuSans-30"/>
       <use x="63.623047" xlink:href="#DejaVuSans-2e"/>
       <use x="95.410156" xlink:href="#DejaVuSans-30"/>
       <use x="159.033203" xlink:href="#DejaVuSans-30"/>
       <use x="222.65625" xlink:href="#DejaVuSans-30"/>
       <use x="286.279297" xlink:href="#DejaVuSans-37"/>
      </g>
     </g>
    </g>
    <g id="xtick_9">
     <g id="line2d_9">
      <g>
       <use style="stroke:#000000;stroke-width:0.8;" x="408.96" xlink:href="#mfc144522f0" y="307.584"/>
      </g>
     </g>
     <g id="text_9">
      <!-- 0.0008 -->
      <defs>
       <path d="M 31.78125 34.625 
Q 24.75 34.625 20.71875 30.859375 
Q 16.703125 27.09375 16.703125 20.515625 
Q 16.703125 13.921875 20.71875 10.15625 
Q 24.75 6.390625 31.78125 6.390625 
Q 38.8125 6.390625 42.859375 10.171875 
Q 46.921875 13.96875 46.921875 20.515625 
Q 46.921875 27.09375 42.890625 30.859375 
Q 38.875 34.625 31.78125 34.625 
z
M 21.921875 38.8125 
Q 15.578125 40.375 12.03125 44.71875 
Q 8.5 49.078125 8.5 55.328125 
Q 8.5 64.0625 14.71875 69.140625 
Q 20.953125 74.21875 31.78125 74.21875 
Q 42.671875 74.21875 48.875 69.140625 
Q 55.078125 64.0625 55.078125 55.328125 
Q 55.078125 49.078125 51.53125 44.71875 
Q 48 40.375 41.703125 38.8125 
Q 48.828125 37.15625 52.796875 32.3125 
Q 56.78125 27.484375 56.78125 20.515625 
Q 56.78125 9.90625 50.3125 4.234375 
Q 43.84375 -1.421875 31.78125 -1.421875 
Q 19.734375 -1.421875 13.25 4.234375 
Q 6.78125 9.90625 6.78125 20.515625 
Q 6.78125 27.484375 10.78125 32.3125 
Q 14.796875 37.15625 21.921875 38.8125 
z
M 18.3125 54.390625 
Q 18.3125 48.734375 21.84375 45.5625 
Q 25.390625 42.390625 31.78125 42.390625 
Q 38.140625 42.390625 41.71875 45.5625 
Q 45.3125 48.734375 45.3125 54.390625 
Q 45.3125 60.0625 41.71875 63.234375 
Q 38.140625 66.40625 31.78125 66.40625 
Q 25.390625 66.40625 21.84375 63.234375 
Q 18.3125 60.0625 18.3125 54.390625 
z
" id="DejaVuSans-38"/>
      </defs>
      <g transform="translate(391.464687 322.182437)scale(0.1 -0.1)">
       <use xlink:href="#DejaVuSans-30"/>
       <use x="63.623047" xlink:href="#DejaVuSans-2e"/>
       <use x="95.410156" xlink:href="#DejaVuSans-30"/>
       <use x="159.033203" xlink:href="#DejaVuSans-30"/>
       <use x="222.65625" xlink:href="#DejaVuSans-30"/>
       <use x="286.279297" xlink:href="#DejaVuSans-38"/>
      </g>
     </g>
    </g>
    <g id="text_10">
     <!-- Time (s) -->
     <defs>
      <path d="M -0.296875 72.90625 
L 61.375 72.90625 
L 61.375 64.59375 
L 35.5 64.59375 
L 35.5 0 
L 25.59375 0 
L 25.59375 64.59375 
L -0.296875 64.59375 
z
" id="DejaVuSans-54"/>
      <path d="M 9.421875 54.6875 
L 18.40625 54.6875 
L 18.40625 0 
L 9.421875 0 
z
M 9.421875 75.984375 
L 18.40625 75.984375 
L 18.40625 64.59375 
L 9.421875 64.59375 
z
" id="DejaVuSans-69"/>
      <path d="M 52 44.1875 
Q 55.375 50.25 60.0625 53.125 
Q 64.75 56 71.09375 56 
Q 79.640625 56 84.28125 50.015625 
Q 88.921875 44.046875 88.921875 33.015625 
L 88.921875 0 
L 79.890625 0 
L 79.890625 32.71875 
Q 79.890625 40.578125 77.09375 44.375 
Q 74.3125 48.1875 68.609375 48.1875 
Q 61.625 48.1875 57.5625 43.546875 
Q 53.515625 38.921875 53.515625 30.90625 
L 53.515625 0 
L 44.484375 0 
L 44.484375 32.71875 
Q 44.484375 40.625 41.703125 44.40625 
Q 38.921875 48.1875 33.109375 48.1875 
Q 26.21875 48.1875 22.15625 43.53125 
Q 18.109375 38.875 18.109375 30.90625 
L 18.109375 0 
L 9.078125 0 
L 9.078125 54.6875 
L 18.109375 54.6875 
L 18.109375 46.1875 
Q 21.1875 51.21875 25.484375 53.609375 
Q 29.78125 56 35.6875 56 
Q 41.65625 56 45.828125 52.96875 
Q 50 49.953125 52 44.1875 
z
" id="DejaVuSans-6d"/>
      <path d="M 56.203125 29.59375 
L 56.203125 25.203125 
L 14.890625 25.203125 
Q 15.484375 15.921875 20.484375 11.0625 
Q 25.484375 6.203125 34.421875 6.203125 
Q 39.59375 6.203125 44.453125 7.46875 
Q 49.3125 8.734375 54.109375 11.28125 
L 54.109375 2.78125 
Q 49.265625 0.734375 44.1875 -0.34375 
Q 39.109375 -1.421875 33.890625 -1.421875 
Q 20.796875 -1.421875 13.15625 6.1875 
Q 5.515625 13.8125 5.515625 26.8125 
Q 5.515625 40.234375 12.765625 48.109375 
Q 20.015625 56 32.328125 56 
Q 43.359375 56 49.78125 48.890625 
Q 56.203125 41.796875 56.203125 29.59375 
z
M 47.21875 32.234375 
Q 47.125 39.59375 43.09375 43.984375 
Q 39.0625 48.390625 32.421875 48.390625 
Q 24.90625 48.390625 20.390625 44.140625 
Q 15.875 39.890625 15.1875 32.171875 
z
" id="DejaVuSans-65"/>
      <path id="DejaVuSans-20"/>
      <path d="M 31 75.875 
Q 24.46875 64.65625 21.28125 53.65625 
Q 18.109375 42.671875 18.109375 31.390625 
Q 18.109375 20.125 21.3125 9.0625 
Q 24.515625 -2 31 -13.1875 
L 23.1875 -13.1875 
Q 15.875 -1.703125 12.234375 9.375 
Q 8.59375 20.453125 8.59375 31.390625 
Q 8.59375 42.28125 12.203125 53.3125 
Q 15.828125 64.359375 23.1875 75.875 
z
" id="DejaVuSans-28"/>
      <path d="M 44.28125 53.078125 
L 44.28125 44.578125 
Q 40.484375 46.53125 36.375 47.5 
Q 32.28125 48.484375 27.875 48.484375 
Q 21.1875 48.484375 17.84375 46.4375 
Q 14.5 44.390625 14.5 40.28125 
Q 14.5 37.15625 16.890625 35.375 
Q 19.28125 33.59375 26.515625 31.984375 
L 29.59375 31.296875 
Q 39.15625 29.25 43.1875 25.515625 
Q 47.21875 21.78125 47.21875 15.09375 
Q 47.21875 7.46875 41.1875 3.015625 
Q 35.15625 -1.421875 24.609375 -1.421875 
Q 20.21875 -1.421875 15.453125 -0.5625 
Q 10.6875 0.296875 5.421875 2 
L 5.421875 11.28125 
Q 10.40625 8.6875 15.234375 7.390625 
Q 20.0625 6.109375 24.8125 6.109375 
Q 31.15625 6.109375 34.5625 8.28125 
Q 37.984375 10.453125 37.984375 14.40625 
Q 37.984375 18.0625 35.515625 20.015625 
Q 33.0625 21.96875 24.703125 23.78125 
L 21.578125 24.515625 
Q 13.234375 26.265625 9.515625 29.90625 
Q 5.8125 33.546875 5.8125 39.890625 
Q 5.8125 47.609375 11.28125 51.796875 
Q 16.75 56 26.8125 56 
Q 31.78125 56 36.171875 55.265625 
Q 40.578125 54.546875 44.28125 53.078125 
z
" id="DejaVuSans-73"/>
      <path d="M 8.015625 75.875 
L 15.828125 75.875 
Q 23.140625 64.359375 26.78125 53.3125 
Q 30.421875 42.28125 30.421875 31.390625 
Q 30.421875 20.453125 26.78125 9.375 
Q 23.140625 -1.703125 15.828125 -13.1875 
L 8.015625 -13.1875 
Q 14.5 -2 17.703125 9.0625 
Q 20.90625 20.125 20.90625 31.390625 
Q 20.90625 42.671875 17.703125 53.65625 
Q 14.5 64.65625 8.015625 75.875 
z
" id="DejaVuSans-29"/>
     </defs>
     <g transform="translate(215.677188 335.860562)scale(0.1 -0.1)">
      <use xlink:href="#DejaVuSans-54"/>
      <use x="61.037109" xlink:href="#DejaVuSans-69"/>
      <use x="88.820312" xlink:href="#DejaVuSans-6d"/>
      <use x="186.232422" xlink:href="#DejaVuSans-65"/>
      <use x="247.755859" xlink:href="#DejaVuSans-20"/>
      <use x="279.542969" xlink:href="#DejaVuSans-28"/>
      <use x="318.556641" xlink:href="#DejaVuSans-73"/>
      <use x="370.65625" xlink:href="#DejaVuSans-29"/>
     </g>
    </g>
   </g>
   <g id="matplotlib.axis_2">
    <g id="ytick_1">
     <g id="line2d_10">
      <defs>
       <path d="M 0 0 
L -3.5 0 
" id="m6a1c43f04c" style="stroke:#000000;stroke-width:0.8;"/>
      </defs>
      <g>
       <use style="stroke:#000000;stroke-width:0.8;" x="57.6" xlink:href="#m6a1c43f04c" y="282.650032"/>
      </g>
     </g>
     <g id="text_11">
      <!-- −60 -->
      <defs>
       <path d="M 10.59375 35.5 
L 73.1875 35.5 
L 73.1875 27.203125 
L 10.59375 27.203125 
z
" id="DejaVuSans-2212"/>
      </defs>
      <g transform="translate(29.495313 286.449251)scale(0.1 -0.1)">
       <use xlink:href="#DejaVuSans-2212"/>
       <use x="83.789062" xlink:href="#DejaVuSans-36"/>
       <use x="147.412109" xlink:href="#DejaVuSans-30"/>
      </g>
     </g>
    </g>
    <g id="ytick_2">
     <g id="line2d_11">
      <g>
       <use style="stroke:#000000;stroke-width:0.8;" x="57.6" xlink:href="#m6a1c43f04c" y="245.692004"/>
      </g>
     </g>
     <g id="text_12">
      <!-- −40 -->
      <g transform="translate(29.495313 249.491222)scale(0.1 -0.1)">
       <use xlink:href="#DejaVuSans-2212"/>
       <use x="83.789062" xlink:href="#DejaVuSans-34"/>
       <use x="147.412109" xlink:href="#DejaVuSans-30"/>
      </g>
     </g>
    </g>
    <g id="ytick_3">
     <g id="line2d_12">
      <g>
       <use style="stroke:#000000;stroke-width:0.8;" x="57.6" xlink:href="#m6a1c43f04c" y="208.733975"/>
      </g>
     </g>
     <g id="text_13">
      <!-- −20 -->
      <g transform="translate(29.495313 212.533193)scale(0.1 -0.1)">
       <use xlink:href="#DejaVuSans-2212"/>
       <use x="83.789062" xlink:href="#DejaVuSans-32"/>
       <use x="147.412109" xlink:href="#DejaVuSans-30"/>
      </g>
     </g>
    </g>
    <g id="ytick_4">
     <g id="line2d_13">
      <g>
       <use style="stroke:#000000;stroke-width:0.8;" x="57.6" xlink:href="#m6a1c43f04c" y="171.775946"/>
      </g>
     </g>
     <g id="text_14">
      <!-- 0 -->
      <g transform="translate(44.2375 175.575164)scale(0.1 -0.1)">
       <use xlink:href="#DejaVuSans-30"/>
      </g>
     </g>
    </g>
    <g id="ytick_5">
     <g id="line2d_14">
      <g>
       <use style="stroke:#000000;stroke-width:0.8;" x="57.6" xlink:href="#m6a1c43f04c" y="134.817917"/>
      </g>
     </g>
     <g id="text_15">
      <!-- 20 -->
      <g transform="translate(37.875 138.617135)scale(0.1 -0.1)">
       <use xlink:href="#DejaVuSans-32"/>
       <use x="63.623047" xlink:href="#DejaVuSans-30"/>
      </g>
     </g>
    </g>
    <g id="ytick_6">
     <g id="line2d_15">
      <g>
       <use style="stroke:#000000;stroke-width:0.8;" x="57.6" xlink:href="#m6a1c43f04c" y="97.859888"/>
      </g>
     </g>
     <g id="text_16">
      <!-- 40 -->
      <g transform="translate(37.875 101.659107)scale(0.1 -0.1)">
       <use xlink:href="#DejaVuSans-34"/>
       <use x="63.623047" xlink:href="#DejaVuSans-30"/>
      </g>
     </g>
    </g>
    <g id="ytick_7">
     <g id="line2d_16">
      <g>
       <use style="stroke:#000000;stroke-width:0.8;" x="57.6" xlink:href="#m6a1c43f04c" y="60.901859"/>
      </g>
     </g>
     <g id="text_17">
      <!-- 60 -->
      <g transform="translate(37.875 64.701078)scale(0.1 -0.1)">
       <use xlink:href="#DejaVuSans-36"/>
       <use x="63.623047" xlink:href="#DejaVuSans-30"/>
      </g>
     </g>
    </g>
    <g id="text_18">
     <!-- Voltage ($\mu$V) -->
     <defs>
      <path d="M 28.609375 0 
L 0.78125 72.90625 
L 11.078125 72.90625 
L 34.1875 11.53125 
L 57.328125 72.90625 
L 67.578125 72.90625 
L 39.796875 0 
z
" id="DejaVuSans-56"/>
      <path d="M 30.609375 48.390625 
Q 23.390625 48.390625 19.1875 42.75 
Q 14.984375 37.109375 14.984375 27.296875 
Q 14.984375 17.484375 19.15625 11.84375 
Q 23.34375 6.203125 30.609375 6.203125 
Q 37.796875 6.203125 41.984375 11.859375 
Q 46.1875 17.53125 46.1875 27.296875 
Q 46.1875 37.015625 41.984375 42.703125 
Q 37.796875 48.390625 30.609375 48.390625 
z
M 30.609375 56 
Q 42.328125 56 49.015625 48.375 
Q 55.71875 40.765625 55.71875 27.296875 
Q 55.71875 13.875 49.015625 6.21875 
Q 42.328125 -1.421875 30.609375 -1.421875 
Q 18.84375 -1.421875 12.171875 6.21875 
Q 5.515625 13.875 5.515625 27.296875 
Q 5.515625 40.765625 12.171875 48.375 
Q 18.84375 56 30.609375 56 
z
" id="DejaVuSans-6f"/>
      <path d="M 9.421875 75.984375 
L 18.40625 75.984375 
L 18.40625 0 
L 9.421875 0 
z
" id="DejaVuSans-6c"/>
      <path d="M 18.3125 70.21875 
L 18.3125 54.6875 
L 36.8125 54.6875 
L 36.8125 47.703125 
L 18.3125 47.703125 
L 18.3125 18.015625 
Q 18.3125 11.328125 20.140625 9.421875 
Q 21.96875 7.515625 27.59375 7.515625 
L 36.8125 7.515625 
L 36.8125 0 
L 27.59375 0 
Q 17.1875 0 13.234375 3.875 
Q 9.28125 7.765625 9.28125 18.015625 
L 9.28125 47.703125 
L 2.6875 47.703125 
L 2.6875 54.6875 
L 9.28125 54.6875 
L 9.28125 70.21875 
z
" id="DejaVuSans-74"/>
      <path d="M 34.28125 27.484375 
Q 23.390625 27.484375 19.1875 25 
Q 14.984375 22.515625 14.984375 16.5 
Q 14.984375 11.71875 18.140625 8.90625 
Q 21.296875 6.109375 26.703125 6.109375 
Q 34.1875 6.109375 38.703125 11.40625 
Q 43.21875 16.703125 43.21875 25.484375 
L 43.21875 27.484375 
z
M 52.203125 31.203125 
L 52.203125 0 
L 43.21875 0 
L 43.21875 8.296875 
Q 40.140625 3.328125 35.546875 0.953125 
Q 30.953125 -1.421875 24.3125 -1.421875 
Q 15.921875 -1.421875 10.953125 3.296875 
Q 6 8.015625 6 15.921875 
Q 6 25.140625 12.171875 29.828125 
Q 18.359375 34.515625 30.609375 34.515625 
L 43.21875 34.515625 
L 43.21875 35.40625 
Q 43.21875 41.609375 39.140625 45 
Q 35.0625 48.390625 27.6875 48.390625 
Q 23 48.390625 18.546875 47.265625 
Q 14.109375 46.140625 10.015625 43.890625 
L 10.015625 52.203125 
Q 14.9375 54.109375 19.578125 55.046875 
Q 24.21875 56 28.609375 56 
Q 40.484375 56 46.34375 49.84375 
Q 52.203125 43.703125 52.203125 31.203125 
z
" id="DejaVuSans-61"/>
      <path d="M 45.40625 27.984375 
Q 45.40625 37.75 41.375 43.109375 
Q 37.359375 48.484375 30.078125 48.484375 
Q 22.859375 48.484375 18.828125 43.109375 
Q 14.796875 37.75 14.796875 27.984375 
Q 14.796875 18.265625 18.828125 12.890625 
Q 22.859375 7.515625 30.078125 7.515625 
Q 37.359375 7.515625 41.375 12.890625 
Q 45.40625 18.265625 45.40625 27.984375 
z
M 54.390625 6.78125 
Q 54.390625 -7.171875 48.1875 -13.984375 
Q 42 -20.796875 29.203125 -20.796875 
Q 24.46875 -20.796875 20.265625 -20.09375 
Q 16.0625 -19.390625 12.109375 -17.921875 
L 12.109375 -9.1875 
Q 16.0625 -11.328125 19.921875 -12.34375 
Q 23.78125 -13.375 27.78125 -13.375 
Q 36.625 -13.375 41.015625 -8.765625 
Q 45.40625 -4.15625 45.40625 5.171875 
L 45.40625 9.625 
Q 42.625 4.78125 38.28125 2.390625 
Q 33.9375 0 27.875 0 
Q 17.828125 0 11.671875 7.65625 
Q 5.515625 15.328125 5.515625 27.984375 
Q 5.515625 40.671875 11.671875 48.328125 
Q 17.828125 56 27.875 56 
Q 33.9375 56 38.28125 53.609375 
Q 42.625 51.21875 45.40625 46.390625 
L 45.40625 54.6875 
L 54.390625 54.6875 
z
" id="DejaVuSans-67"/>
      <path d="M -1.3125 -20.796875 
L 13.375 54.6875 
L 22.40625 54.6875 
L 15.765625 20.65625 
Q 15.578125 19.625 15.421875 18.359375 
Q 15.28125 17.09375 15.28125 15.828125 
Q 15.28125 11.28125 18.140625 8.828125 
Q 21 6.390625 26.3125 6.390625 
Q 33.546875 6.390625 37.984375 10.484375 
Q 42.4375 14.59375 44 22.796875 
L 50.203125 54.6875 
L 59.1875 54.6875 
L 51.03125 12.640625 
Q 50.828125 11.71875 50.75 11.03125 
Q 50.6875 10.359375 50.6875 9.8125 
Q 50.6875 8.296875 51.296875 7.59375 
Q 51.90625 6.890625 53.21875 6.890625 
Q 53.71875 6.890625 54.5625 7.125 
Q 55.421875 7.375 56.984375 8.015625 
L 55.609375 0.78125 
Q 53.46875 -0.296875 51.515625 -0.859375 
Q 49.5625 -1.421875 47.703125 -1.421875 
Q 44.484375 -1.421875 42.65625 0.625 
Q 40.828125 2.6875 40.828125 6.296875 
Q 38.09375 2.390625 34.296875 0.484375 
Q 30.515625 -1.421875 25.390625 -1.421875 
Q 20.84375 -1.421875 17.453125 0.671875 
Q 14.0625 2.78125 12.984375 6.203125 
L 7.71875 -20.796875 
z
" id="DejaVuSans-Oblique-3bc"/>
     </defs>
     <g transform="translate(23.395312 205.778)rotate(-90)scale(0.1 -0.1)">
      <use transform="translate(0 0.015625)" xlink:href="#DejaVuSans-56"/>
      <use transform="translate(68.408203 0.015625)" xlink:href="#DejaVuSans-6f"/>
      <use transform="translate(129.589844 0.015625)" xlink:href="#DejaVuSans-6c"/>
      <use transform="translate(157.373047 0.015625)" xlink:href="#DejaVuSans-74"/>
      <use transform="translate(196.582031 0.015625)" xlink:href="#DejaVuSans-61"/>
      <use transform="translate(257.861328 0.015625)" xlink:href="#DejaVuSans-67"/>
      <use transform="translate(321.337891 0.015625)" xlink:href="#DejaVuSans-65"/>
      <use transform="translate(382.861328 0.015625)" xlink:href="#DejaVuSans-20"/>
      <use transform="translate(414.648438 0.015625)" xlink:href="#DejaVuSans-28"/>
      <use transform="translate(453.662109 0.015625)" xlink:href="#DejaVuSans-Oblique-3bc"/>
      <use transform="translate(517.285156 0.015625)" xlink:href="#DejaVuSans-56"/>
      <use transform="translate(585.693359 0.015625)" xlink:href="#DejaVuSans-29"/>
     </g>
    </g>
   </g>
   <g id="line2d_17">
    <path clip-path="url(#pe3b4b8fa06)" d="M 73.832727 168.138461 
L 84.305455 168.480941 
L 94.778182 169.091 
L 105.250909 168.79083 
L 115.723636 167.605017 
L 126.196364 169.112155 
L 136.669091 178.629533 
L 147.141818 199.298357 
L 157.614545 229.882498 
L 168.087273 263.179601 
L 178.56 281.532258 
L 189.032727 285.477345 
L 199.505455 284.891871 
L 209.978182 277.503124 
L 220.450909 254.773707 
L 230.923636 228.56118 
L 241.396364 205.783164 
L 251.869091 185.340754 
L 262.341818 165.999538 
L 272.814545 148.29925 
L 283.287273 133.070072 
L 293.76 120.123898 
L 304.232727 108.655131 
L 314.705455 98.560855 
L 325.178182 90.042327 
L 335.650909 84.38999 
L 346.123636 80.621574 
L 356.596364 78.424333 
L 367.069091 77.560416 
L 377.541818 77.567849 
L 388.014545 78.311698 
L 398.487273 80.25451 
" style="fill:none;stroke:#000000;stroke-linecap:square;stroke-width:1.5;"/>
   </g>
   <g id="line2d_18">
    <path clip-path="url(#pe3b4b8fa06)" d="M 73.832727 162.363198 
L 84.305455 166.63647 
L 94.778182 174.432304 
L 105.250909 178.185854 
L 115.723636 172.988631 
L 126.196364 164.442087 
L 136.669091 166.174494 
L 147.141818 187.887336 
L 157.614545 226.346785 
L 168.087273 268.213302 
L 178.56 290.041638 
L 189.032727 290.041638 
L 199.505455 290.041638 
L 209.978182 281.321853 
L 220.450909 253.487838 
L 230.923636 226.346785 
L 241.396364 203.825486 
L 251.869091 186.847892 
L 262.341818 171.775946 
L 272.814545 154.62511 
L 283.287273 139.668658 
L 293.76 131.064367 
L 304.232727 125.058687 
L 314.705455 115.530445 
L 325.178182 102.479641 
L 335.650909 93.066893 
L 346.123636 92.37393 
L 356.596364 95.492264 
L 367.069091 93.471122 
L 377.541818 84.520349 
L 388.014545 74.992107 
L 398.487273 72.50899 
" style="fill:none;stroke:#ff0000;stroke-linecap:square;stroke-width:1.5;"/>
   </g>
   <g id="line2d_19">
    <path clip-path="url(#pe3b4b8fa06)" d="M 73.832727 165.828013 
L 84.305455 166.116747 
L 94.778182 163.518136 
L 105.250909 164.846315 
L 115.723636 172.468909 
L 126.196364 184.595762 
L 136.669091 197.76206 
L 147.141818 211.274839 
L 157.614545 231.774996 
L 168.087273 262.900586 
L 178.56 290.041638 
L 189.032727 290.041638 
L 199.505455 290.041638 
L 209.978182 290.041638 
L 220.450909 282.476792 
L 230.923636 254.700523 
L 241.396364 225.653822 
L 251.869091 201.053634 
L 262.341818 181.650669 
L 272.814545 163.749124 
L 283.287273 147.579986 
L 293.76 136.954553 
L 304.232727 132.681281 
L 314.705455 128.869984 
L 325.178182 118.937514 
L 335.650909 104.038808 
L 346.123636 91.103498 
L 356.596364 84.231615 
L 367.069091 81.228775 
L 377.541818 79.496367 
L 388.014545 81.286522 
L 398.487273 90.064054 
" style="fill:none;stroke:#ff1e00;stroke-linecap:square;stroke-width:1.5;"/>
   </g>
   <g id="line2d_20">
    <path clip-path="url(#pe3b4b8fa06)" d="M 73.832727 191.640886 
L 84.305455 183.440824 
L 94.778182 177.608385 
L 105.250909 171.718199 
L 115.723636 162.767426 
L 126.196364 156.12653 
L 136.669091 162.247704 
L 147.141818 183.614064 
L 157.614545 213.70021 
L 168.087273 244.363824 
L 178.56 269.541482 
L 189.032727 285.248644 
L 199.505455 287.962749 
L 209.978182 276.066884 
L 220.450909 251.177961 
L 230.923636 219.532649 
L 241.396364 190.774682 
L 251.869091 170.043538 
L 262.341818 154.163135 
L 272.814545 138.109491 
L 283.287273 121.478378 
L 293.76 107.445877 
L 304.232727 98.033129 
L 314.705455 93.413375 
L 325.178182 91.392233 
L 335.650909 88.504887 
L 346.123636 83.596399 
L 356.596364 78.456923 
L 367.069091 74.992107 
L 377.541818 74.356891 
L 388.014545 77.417478 
L 398.487273 82.556954 
" style="fill:none;stroke:#ff3b00;stroke-linecap:square;stroke-width:1.5;"/>
   </g>
   <g id="line2d_21">
    <path clip-path="url(#pe3b4b8fa06)" d="M 73.832727 167.733661 
L 84.305455 167.791408 
L 94.778182 169.408322 
L 105.250909 171.429464 
L 115.723636 170.909742 
L 126.196364 167.906902 
L 136.669091 169.466069 
L 147.141818 185.461966 
L 157.614545 218.608698 
L 168.087273 258.973795 
L 178.56 290.041638 
L 189.032727 290.041638 
L 199.505455 290.041638 
L 209.978182 290.041638 
L 220.450909 271.216142 
L 230.923636 241.996201 
L 241.396364 215.605858 
L 251.869091 193.777522 
L 262.341818 174.490051 
L 272.814545 157.223722 
L 283.287273 142.267269 
L 293.76 130.429151 
L 304.232727 121.07415 
L 314.705455 111.083933 
L 325.178182 100.747234 
L 335.650909 93.355628 
L 346.123636 90.641523 
L 356.596364 90.583776 
L 367.069091 87.407695 
L 377.541818 80.535812 
L 388.014545 75.338589 
L 398.487273 74.414638 
" style="fill:none;stroke:#ff5900;stroke-linecap:square;stroke-width:1.5;"/>
   </g>
   <g id="line2d_22">
    <path clip-path="url(#pe3b4b8fa06)" d="M 73.832727 168.542118 
L 84.305455 174.432304 
L 94.778182 180.553478 
L 105.250909 180.206996 
L 115.723636 174.894279 
L 126.196364 173.623847 
L 136.669091 185.635207 
L 147.141818 212.487524 
L 157.614545 248.175121 
L 168.087273 283.978212 
L 178.56 290.041638 
L 189.032727 290.041638 
L 199.505455 290.041638 
L 209.978182 281.610588 
L 220.450909 250.311757 
L 230.923636 219.705889 
L 241.396364 192.738078 
L 251.869091 172.06468 
L 262.341818 157.165975 
L 272.814545 144.634893 
L 283.287273 132.219305 
L 293.76 120.669921 
L 304.232727 110.275476 
L 314.705455 100.169765 
L 325.178182 90.410535 
L 335.650909 81.921738 
L 346.123636 76.26254 
L 356.596364 74.356891 
L 367.069091 74.01041 
L 377.541818 72.047014 
L 388.014545 71.00757 
L 398.487273 76.551274 
" style="fill:none;stroke:#ff7600;stroke-linecap:square;stroke-width:1.5;"/>
   </g>
   <g id="line2d_23">
    <path clip-path="url(#pe3b4b8fa06)" d="M 73.832727 170.043538 
L 84.305455 170.216779 
L 94.778182 167.271686 
L 105.250909 158.782889 
L 115.723636 149.889863 
L 126.196364 150.871561 
L 136.669091 164.730821 
L 147.141818 186.905639 
L 157.614545 213.988944 
L 168.087273 246.211726 
L 178.56 282.476792 
L 189.032727 290.041638 
L 199.505455 290.041638 
L 209.978182 290.041638 
L 220.450909 274.334476 
L 230.923636 246.096232 
L 241.396364 222.650982 
L 251.869091 203.94098 
L 262.341818 186.270423 
L 272.814545 167.271686 
L 283.287273 150.69832 
L 293.76 139.553164 
L 304.232727 131.988318 
L 314.705455 126.444613 
L 325.178182 121.016403 
L 335.650909 111.603655 
L 346.123636 98.37961 
L 356.596364 87.985164 
L 367.069091 84.924578 
L 377.541818 85.964022 
L 388.014545 86.310504 
L 398.487273 85.271059 
" style="fill:none;stroke:#ff9400;stroke-linecap:square;stroke-width:1.5;"/>
   </g>
   <g id="line2d_24">
    <path clip-path="url(#pe3b4b8fa06)" d="M 73.832727 167.675914 
L 84.305455 169.06184 
L 94.778182 171.198476 
L 105.250909 172.180174 
L 115.723636 170.043538 
L 126.196364 167.791408 
L 136.669091 172.699896 
L 147.141818 191.871874 
L 157.614545 226.346785 
L 168.087273 268.213302 
L 178.56 290.041638 
L 189.032727 290.041638 
L 199.505455 290.041638 
L 209.978182 286.923305 
L 220.450909 262.323117 
L 230.923636 235.413052 
L 241.396364 206.94382 
L 251.869091 183.440824 
L 262.341818 168.946347 
L 272.814545 158.089926 
L 283.287273 143.422208 
L 293.76 125.462916 
L 304.232727 109.582513 
L 314.705455 98.033129 
L 325.178182 90.237294 
L 335.650909 86.079516 
L 346.123636 82.845689 
L 356.596364 76.609021 
L 367.069091 69.794885 
L 377.541818 69.679391 
L 388.014545 77.532972 
L 398.487273 85.155565 
" style="fill:none;stroke:#ffb100;stroke-linecap:square;stroke-width:1.5;"/>
   </g>
   <g id="line2d_25">
    <path clip-path="url(#pe3b4b8fa06)" d="M 73.832727 180.553478 
L 84.305455 179.687274 
L 94.778182 176.453446 
L 105.250909 172.295668 
L 115.723636 168.715359 
L 126.196364 169.870297 
L 136.669091 180.033755 
L 147.141818 200.302924 
L 157.614545 227.328483 
L 168.087273 254.75827 
L 178.56 278.145773 
L 189.032727 290.041638 
L 199.505455 290.041638 
L 209.978182 290.041638 
L 220.450909 272.890803 
L 230.923636 241.938454 
L 241.396364 213.469222 
L 251.869091 192.564837 
L 262.341818 177.897119 
L 272.814545 165.308291 
L 283.287273 150.69832 
L 293.76 133.201003 
L 304.232727 116.56989 
L 314.705455 107.503623 
L 325.178182 106.81066 
L 335.650909 106.05995 
L 346.123636 99.361308 
L 356.596364 90.410535 
L 367.069091 85.617541 
L 377.541818 87.349948 
L 388.014545 92.085196 
L 398.487273 94.106338 
" style="fill:none;stroke:#ffcf00;stroke-linecap:square;stroke-width:1.5;"/>
   </g>
   <g id="line2d_26">
    <path clip-path="url(#pe3b4b8fa06)" d="M 73.832727 170.159032 
L 84.305455 168.253384 
L 94.778182 161.496994 
L 105.250909 156.184277 
L 115.723636 157.858938 
L 126.196364 169.004094 
L 136.669091 188.118324 
L 147.141818 212.545271 
L 157.614545 241.476478 
L 168.087273 273.641513 
L 178.56 290.041638 
L 189.032727 290.041638 
L 199.505455 290.041638 
L 209.978182 277.510557 
L 220.450909 249.445553 
L 230.923636 224.498884 
L 241.396364 202.381813 
L 251.869091 180.784465 
L 262.341818 160.804031 
L 272.814545 145.039122 
L 283.287273 132.623534 
L 293.76 120.092452 
L 304.232727 105.366987 
L 314.705455 92.778159 
L 325.178182 87.061214 
L 335.650909 85.617541 
L 346.123636 84.635843 
L 356.596364 83.19217 
L 367.069091 81.748497 
L 377.541818 79.611861 
L 388.014545 74.472385 
L 398.487273 66.272322 
" style="fill:none;stroke:#ffec00;stroke-linecap:square;stroke-width:1.5;"/>
   </g>
   <g id="line2d_27">
    <path clip-path="url(#pe3b4b8fa06)" d="M 73.832727 165.770266 
L 84.305455 169.004094 
L 94.778182 173.739341 
L 105.250909 173.508353 
L 115.723636 169.177334 
L 126.196364 167.38718 
L 136.669091 173.854835 
L 147.141818 190.081719 
L 157.614545 213.353728 
L 168.087273 241.938454 
L 178.56 273.814754 
L 189.032727 290.041638 
L 199.505455 290.041638 
L 209.978182 287.905002 
L 220.450909 260.417468 
L 230.923636 232.756693 
L 241.396364 209.484685 
L 251.869091 191.352152 
L 262.341818 175.933724 
L 272.814545 159.649092 
L 283.287273 142.44051 
L 293.76 128.292515 
L 304.232727 120.265693 
L 314.705455 116.454396 
L 325.178182 112.354365 
L 335.650909 104.38529 
L 346.123636 94.395073 
L 356.596364 88.620381 
L 367.069091 88.389393 
L 377.541818 89.024609 
L 388.014545 86.772479 
L 398.487273 82.037232 
" style="fill:none;stroke:#eeff00;stroke-linecap:square;stroke-width:1.5;"/>
   </g>
   <g id="line2d_28">
    <path clip-path="url(#pe3b4b8fa06)" d="M 73.832727 164.037858 
L 84.305455 159.12937 
L 94.778182 157.570203 
L 105.250909 159.187117 
L 115.723636 163.344895 
L 126.196364 172.295668 
L 136.669091 187.656349 
L 147.141818 207.232555 
L 157.614545 229.465119 
L 168.087273 254.931511 
L 178.56 279.589446 
L 189.032727 290.041638 
L 199.505455 288.366978 
L 209.978182 271.216142 
L 220.450909 252.852622 
L 230.923636 238.415892 
L 241.396364 224.210149 
L 251.869091 203.998727 
L 262.341818 177.954866 
L 272.814545 153.70116 
L 283.287273 136.088349 
L 293.76 123.384027 
L 304.232727 112.758593 
L 314.705455 104.38529 
L 325.178182 98.148622 
L 335.650909 92.778159 
L 346.123636 88.389393 
L 356.596364 85.964022 
L 367.069091 84.924578 
L 377.541818 82.383713 
L 388.014545 78.110441 
L 398.487273 75.68507 
" style="fill:none;stroke:#d1ff00;stroke-linecap:square;stroke-width:1.5;"/>
   </g>
   <g id="line2d_29">
    <path clip-path="url(#pe3b4b8fa06)" d="M 73.832727 174.432304 
L 84.305455 174.547798 
L 94.778182 173.104125 
L 105.250909 171.256223 
L 115.723636 172.930884 
L 126.196364 181.246441 
L 136.669091 194.297245 
L 147.141818 208.271999 
L 157.614545 223.805921 
L 168.087273 243.613114 
L 178.56 266.018919 
L 189.032727 282.823273 
L 199.505455 285.190897 
L 209.978182 273.295031 
L 220.450909 254.411789 
L 230.923636 234.084873 
L 241.396364 214.393173 
L 251.869091 194.75922 
L 262.341818 174.547798 
L 272.814545 155.260326 
L 283.287273 137.243287 
L 293.76 120.381187 
L 304.232727 107.214889 
L 314.705455 100.054271 
L 325.178182 96.820443 
L 335.650909 92.20069 
L 346.123636 83.134423 
L 356.596364 73.490687 
L 367.069091 70.949823 
L 377.541818 76.666768 
L 388.014545 83.769639 
L 398.487273 85.790781 
" style="fill:none;stroke:#b3ff00;stroke-linecap:square;stroke-width:1.5;"/>
   </g>
   <g id="line2d_30">
    <path clip-path="url(#pe3b4b8fa06)" d="M 73.832727 174.085822 
L 84.305455 172.642149 
L 94.778182 169.235081 
L 105.250909 164.846315 
L 115.723636 163.864618 
L 126.196364 169.870297 
L 136.669091 181.708416 
L 147.141818 199.494467 
L 157.614545 224.152402 
L 168.087273 253.545585 
L 178.56 281.3796 
L 189.032727 290.041638 
L 199.505455 290.041638 
L 209.978182 285.306391 
L 220.450909 255.970955 
L 230.923636 223.921415 
L 241.396364 199.783202 
L 251.869091 184.191534 
L 262.341818 171.660452 
L 272.814545 158.840636 
L 283.287273 144.981375 
L 293.76 131.699583 
L 304.232727 121.189644 
L 314.705455 111.488161 
L 325.178182 98.841585 
L 335.650909 84.866831 
L 346.123636 75.68507 
L 356.596364 74.068157 
L 367.069091 77.244237 
L 377.541818 79.496367 
L 388.014545 78.861151 
L 398.487273 79.611861 
" style="fill:none;stroke:#96ff00;stroke-linecap:square;stroke-width:1.5;"/>
   </g>
   <g id="line2d_31">
    <path clip-path="url(#pe3b4b8fa06)" d="M 73.832727 171.371717 
L 84.305455 169.63931 
L 94.778182 169.81255 
L 105.250909 168.022396 
L 115.723636 165.308291 
L 126.196364 168.715359 
L 136.669091 181.015453 
L 147.141818 199.494467 
L 157.614545 222.073513 
L 168.087273 247.655399 
L 178.56 273.757007 
L 189.032727 290.041638 
L 199.505455 290.041638 
L 209.978182 288.309231 
L 220.450909 263.535802 
L 230.923636 236.625737 
L 241.396364 209.94666 
L 251.869091 185.461966 
L 262.341818 166.578723 
L 272.814545 154.163135 
L 283.287273 144.115171 
L 293.76 131.237608 
L 304.232727 115.934674 
L 314.705455 102.479641 
L 325.178182 91.507727 
L 335.650909 81.863991 
L 346.123636 74.76112 
L 356.596364 71.527292 
L 367.069091 72.278002 
L 377.541818 76.43578 
L 388.014545 79.265379 
L 398.487273 76.378033 
" style="fill:none;stroke:#78ff00;stroke-linecap:square;stroke-width:1.5;"/>
   </g>
   <g id="line2d_32">
    <path clip-path="url(#pe3b4b8fa06)" d="M 73.832727 177.030915 
L 84.305455 182.921101 
L 94.778182 184.133787 
L 105.250909 179.976008 
L 115.723636 177.781625 
L 126.196364 183.902799 
L 136.669091 195.798664 
L 147.141818 208.849468 
L 157.614545 225.076353 
L 168.087273 246.962436 
L 178.56 270.927408 
L 189.032727 288.597965 
L 199.505455 290.041638 
L 209.978182 278.896483 
L 220.450909 256.837159 
L 230.923636 233.969379 
L 241.396364 213.815704 
L 251.869091 197.704313 
L 262.341818 183.671811 
L 272.814545 167.733661 
L 283.287273 149.485634 
L 293.76 132.739028 
L 304.232727 118.360044 
L 314.705455 105.193747 
L 325.178182 94.279579 
L 335.650909 87.349948 
L 346.123636 85.675288 
L 356.596364 88.793621 
L 367.069091 91.44998 
L 377.541818 88.216152 
L 388.014545 81.402016 
L 398.487273 78.225935 
" style="fill:none;stroke:#5bff00;stroke-linecap:square;stroke-width:1.5;"/>
   </g>
   <g id="line2d_33">
    <path clip-path="url(#pe3b4b8fa06)" d="M 73.832727 188.118324 
L 84.305455 182.459126 
L 94.778182 173.854835 
L 105.250909 168.8886 
L 115.723636 169.350575 
L 126.196364 173.970329 
L 136.669091 182.170391 
L 147.141818 195.50993 
L 157.614545 216.472062 
L 168.087273 243.555368 
L 178.56 270.407685 
L 189.032727 287.558521 
L 199.505455 288.078243 
L 209.978182 272.428828 
L 220.450909 248.348362 
L 230.923636 225.191847 
L 241.396364 206.481845 
L 251.869091 188.984528 
L 262.341818 169.523816 
L 272.814545 152.026499 
L 283.287273 143.595449 
L 293.76 142.036282 
L 304.232727 135.222145 
L 314.705455 118.186804 
L 325.178182 100.516246 
L 335.650909 92.547171 
L 346.123636 92.547171 
L 356.596364 90.930257 
L 367.069091 84.404855 
L 377.541818 79.092139 
L 388.014545 79.727355 
L 398.487273 82.903435 
" style="fill:none;stroke:#3dff00;stroke-linecap:square;stroke-width:1.5;"/>
   </g>
   <g id="line2d_34">
    <path clip-path="url(#pe3b4b8fa06)" d="M 73.832727 174.721039 
L 84.305455 176.973168 
L 94.778182 179.340792 
L 105.250909 177.666132 
L 115.723636 173.623847 
L 126.196364 175.356255 
L 136.669091 187.194373 
L 147.141818 204.922678 
L 157.614545 225.249594 
L 168.087273 248.521603 
L 178.56 270.580926 
L 189.032727 282.592286 
L 199.505455 281.610588 
L 209.978182 270.869661 
L 220.450909 253.545585 
L 230.923636 230.677804 
L 241.396364 204.807184 
L 251.869091 179.802768 
L 262.341818 158.725142 
L 272.814545 143.19122 
L 283.287273 133.720725 
L 293.76 128.696743 
L 304.232727 123.615014 
L 314.705455 115.299458 
L 325.178182 106.002204 
L 335.650909 98.668345 
L 346.123636 92.720412 
L 356.596364 87.176708 
L 367.069091 82.961182 
L 377.541818 80.766799 
L 388.014545 78.399176 
L 398.487273 75.454083 
" style="fill:none;stroke:#20ff00;stroke-linecap:square;stroke-width:1.5;"/>
   </g>
   <g id="line2d_35">
    <path clip-path="url(#pe3b4b8fa06)" d="M 73.832727 174.490051 
L 84.305455 175.587242 
L 94.778182 178.878817 
L 105.250909 179.802768 
L 115.723636 175.298508 
L 126.196364 171.89144 
L 136.669091 180.437984 
L 147.141818 205.962122 
L 157.614545 245.980738 
L 168.087273 290.041638 
L 178.56 290.041638 
L 189.032727 290.041638 
L 199.505455 290.041638 
L 209.978182 283.285249 
L 220.450909 241.591972 
L 230.923636 208.271999 
L 241.396364 186.50141 
L 251.869091 172.699896 
L 262.341818 158.667395 
L 272.814545 140.01514 
L 283.287273 121.82486 
L 293.76 108.485321 
L 304.232727 97.513406 
L 314.705455 87.754177 
L 325.178182 80.362571 
L 335.650909 74.818867 
L 346.123636 71.296305 
L 356.596364 69.275162 
L 367.069091 65.7526 
L 377.541818 60.728618 
L 388.014545 58.303247 
L 398.487273 61.537075 
" style="fill:none;stroke:#04ff08;stroke-linecap:square;stroke-width:1.5;"/>
   </g>
   <g id="line2d_36">
    <path clip-path="url(#pe3b4b8fa06)" d="M 73.832727 160.457549 
L 84.305455 159.649092 
L 94.778182 154.567363 
L 105.250909 151.275789 
L 115.723636 157.570203 
L 126.196364 173.623847 
L 136.669091 193.026812 
L 147.141818 209.888913 
L 157.614545 222.073513 
L 168.087273 232.583453 
L 178.56 246.789195 
L 189.032727 261.399166 
L 199.505455 265.037222 
L 209.978182 252.390646 
L 220.450909 229.234131 
L 230.923636 205.095919 
L 241.396364 187.194373 
L 251.869091 176.742181 
L 262.341818 168.773106 
L 272.814545 158.436407 
L 283.287273 145.616591 
L 293.76 133.778472 
L 304.232727 123.32628 
L 314.705455 112.700846 
L 325.178182 102.652882 
L 335.650909 94.914795 
L 346.123636 89.775319 
L 356.596364 88.735874 
L 367.069091 92.893653 
L 377.541818 98.726092 
L 388.014545 100.112018 
L 398.487273 96.300721 
" style="fill:none;stroke:#00ff21;stroke-linecap:square;stroke-width:1.5;"/>
   </g>
   <g id="line2d_37">
    <path clip-path="url(#pe3b4b8fa06)" d="M 73.832727 168.253384 
L 84.305455 164.961809 
L 94.778182 163.171655 
L 105.250909 163.806871 
L 115.723636 165.13505 
L 126.196364 167.444927 
L 136.669091 179.398539 
L 147.141818 208.733975 
L 157.614545 251.582189 
L 168.087273 290.041638 
L 178.56 290.041638 
L 189.032727 290.041638 
L 199.505455 290.041638 
L 209.978182 262.554104 
L 220.450909 232.81444 
L 230.923636 207.636783 
L 241.396364 187.887336 
L 251.869091 169.63931 
L 262.341818 151.218042 
L 272.814545 135.164398 
L 283.287273 122.286835 
L 293.76 111.430414 
L 304.232727 102.768376 
L 314.705455 97.744394 
L 325.178182 95.838746 
L 335.650909 94.683807 
L 346.123636 90.583776 
L 356.596364 81.633003 
L 367.069091 72.335749 
L 377.541818 68.697693 
L 388.014545 69.563897 
L 398.487273 71.238558 
" style="fill:none;stroke:#00ff3f;stroke-linecap:square;stroke-width:1.5;"/>
   </g>
   <g id="line2d_38">
    <path clip-path="url(#pe3b4b8fa06)" d="M 73.832727 175.644989 
L 84.305455 170.39002 
L 94.778182 168.657612 
L 105.250909 167.675914 
L 115.723636 164.442087 
L 126.196364 164.442087 
L 136.669091 175.644989 
L 147.141818 200.418418 
L 157.614545 236.741231 
L 168.087273 276.066884 
L 178.56 290.041638 
L 189.032727 290.041638 
L 199.505455 289.002194 
L 209.978182 260.706203 
L 220.450909 234.662342 
L 230.923636 214.508667 
L 241.396364 198.51277 
L 251.869091 185.404219 
L 262.341818 172.411162 
L 272.814545 157.685697 
L 283.287273 141.112331 
L 293.76 122.344582 
L 304.232727 105.540228 
L 314.705455 96.993684 
L 325.178182 96.069733 
L 335.650909 95.319023 
L 346.123636 91.392233 
L 356.596364 87.523189 
L 367.069091 85.906275 
L 377.541818 85.386553 
L 388.014545 83.423158 
L 398.487273 81.286522 
" style="fill:none;stroke:#00ff5c;stroke-linecap:square;stroke-width:1.5;"/>
   </g>
   <g id="line2d_39">
    <path clip-path="url(#pe3b4b8fa06)" d="M 73.832727 165.308291 
L 84.305455 165.13505 
L 94.778182 168.542118 
L 105.250909 171.775946 
L 115.723636 170.043538 
L 126.196364 167.733661 
L 136.669091 176.973168 
L 147.141818 203.01703 
L 157.614545 239.744071 
L 168.087273 278.030279 
L 178.56 290.041638 
L 189.032727 290.041638 
L 199.505455 290.041638 
L 209.978182 279.300711 
L 220.450909 241.418731 
L 230.923636 212.891753 
L 241.396364 194.297245 
L 251.869091 177.550638 
L 262.341818 157.339216 
L 272.814545 137.76301 
L 283.287273 125.347422 
L 293.76 117.955816 
L 304.232727 107.676864 
L 314.705455 93.297881 
L 325.178182 79.900596 
L 335.650909 71.700533 
L 346.123636 68.870934 
L 356.596364 70.141366 
L 367.069091 72.913218 
L 377.541818 74.183651 
L 388.014545 74.241397 
L 398.487273 76.378033 
" style="fill:none;stroke:#00ff7a;stroke-linecap:square;stroke-width:1.5;"/>
   </g>
   <g id="line2d_40">
    <path clip-path="url(#pe3b4b8fa06)" d="M 73.832727 168.31113 
L 84.305455 167.271686 
L 94.778182 169.523816 
L 105.250909 172.873137 
L 115.723636 173.277366 
L 126.196364 172.468909 
L 136.669091 178.416842 
L 147.141818 196.664868 
L 157.614545 227.443977 
L 168.087273 267.289352 
L 178.56 290.041638 
L 189.032727 290.041638 
L 199.505455 290.041638 
L 209.978182 290.041638 
L 220.450909 258.454073 
L 230.923636 228.656662 
L 241.396364 204.633943 
L 251.869091 180.726718 
L 262.341818 157.108228 
L 272.814545 137.358781 
L 283.287273 121.940354 
L 293.76 108.716309 
L 304.232727 96.820443 
L 314.705455 86.368251 
L 325.178182 77.76396 
L 335.650909 71.527292 
L 346.123636 67.369514 
L 356.596364 66.041335 
L 367.069091 68.235718 
L 377.541818 71.238558 
L 388.014545 72.335749 
L 398.487273 73.548434 
" style="fill:none;stroke:#00ff97;stroke-linecap:square;stroke-width:1.5;"/>
   </g>
   <g id="line2d_41">
    <path clip-path="url(#pe3b4b8fa06)" d="M 73.832727 158.205419 
L 84.305455 159.937827 
L 94.778182 161.843475 
L 105.250909 159.822333 
L 115.723636 157.454709 
L 126.196364 162.536438 
L 136.669091 177.897119 
L 147.141818 199.552214 
L 157.614545 221.38055 
L 168.087273 239.339842 
L 178.56 251.524442 
L 189.032727 257.76111 
L 199.505455 259.839999 
L 209.978182 257.241388 
L 220.450909 245.922991 
L 230.923636 225.365088 
L 241.396364 204.576196 
L 251.869091 191.583139 
L 262.341818 183.094342 
L 272.814545 172.237921 
L 283.287273 158.205419 
L 293.76 146.829276 
L 304.232727 138.802454 
L 314.705455 128.581249 
L 325.178182 113.740291 
L 335.650909 100.63174 
L 346.123636 96.935937 
L 356.596364 99.938777 
L 367.069091 101.902172 
L 377.541818 101.151462 
L 388.014545 100.978221 
L 398.487273 103.807821 
" style="fill:none;stroke:#00ffb5;stroke-linecap:square;stroke-width:1.5;"/>
   </g>
   <g id="line2d_42">
    <path clip-path="url(#pe3b4b8fa06)" d="M 73.832727 171.660452 
L 84.305455 175.529495 
L 94.778182 178.936564 
L 105.250909 180.437984 
L 115.723636 178.532335 
L 126.196364 175.760483 
L 136.669091 179.283045 
L 147.141818 197.242337 
L 157.614545 231.774996 
L 168.087273 275.662655 
L 178.56 290.041638 
L 189.032727 290.041638 
L 199.505455 290.041638 
L 209.978182 290.041638 
L 220.450909 259.031542 
L 230.923636 235.990521 
L 241.396364 214.970642 
L 251.869091 188.869034 
L 262.341818 161.727982 
L 272.814545 140.996837 
L 283.287273 127.195323 
L 293.76 113.855785 
L 304.232727 96.935937 
L 314.705455 80.997787 
L 325.178182 71.585039 
L 335.650909 69.50615 
L 346.123636 73.317447 
L 356.596364 79.611861 
L 367.069091 83.480905 
L 377.541818 82.787942 
L 388.014545 80.824546 
L 398.487273 82.037232 
" style="fill:none;stroke:#00ffd3;stroke-linecap:square;stroke-width:1.5;"/>
   </g>
   <g id="line2d_43">
    <path clip-path="url(#pe3b4b8fa06)" d="M 73.832727 173.277366 
L 84.305455 182.632367 
L 94.778182 187.425361 
L 105.250909 183.152089 
L 115.723636 172.353415 
L 126.196364 167.098445 
L 136.669091 179.802768 
L 147.141818 208.964962 
L 157.614545 243.439874 
L 168.087273 277.972532 
L 178.56 290.041638 
L 189.032727 290.041638 
L 199.505455 290.041638 
L 209.978182 290.041638 
L 220.450909 273.987994 
L 230.923636 235.875027 
L 241.396364 204.576196 
L 251.869091 181.130947 
L 262.341818 162.536438 
L 272.814545 146.136313 
L 283.287273 131.179861 
L 293.76 116.858625 
L 304.232727 102.075413 
L 314.705455 88.504887 
L 325.178182 80.073836 
L 335.650909 75.858311 
L 346.123636 71.873774 
L 356.596364 67.542755 
L 367.069091 64.713156 
L 377.541818 65.348372 
L 388.014545 69.563897 
L 398.487273 75.338589 
" style="fill:none;stroke:#00fff6;stroke-linecap:square;stroke-width:1.5;"/>
   </g>
   <g id="line2d_44">
    <path clip-path="url(#pe3b4b8fa06)" d="M 73.832727 156.473012 
L 84.305455 163.864618 
L 94.778182 175.414002 
L 105.250909 182.170391 
L 115.723636 179.745021 
L 126.196364 174.605545 
L 136.669091 178.416842 
L 147.141818 197.126844 
L 157.614545 226.462279 
L 168.087273 258.396326 
L 178.56 286.865558 
L 189.032727 290.041638 
L 199.505455 290.041638 
L 209.978182 282.823273 
L 220.450909 252.794875 
L 230.923636 224.036908 
L 241.396364 199.032492 
L 251.869091 178.359095 
L 262.341818 163.749124 
L 272.814545 154.105388 
L 283.287273 144.230665 
L 293.76 128.812237 
L 304.232727 109.524766 
L 314.705455 94.568313 
L 325.178182 87.292201 
L 335.650909 82.556954 
L 346.123636 75.280842 
L 356.596364 67.542755 
L 367.069091 64.424421 
L 377.541818 65.868094 
L 388.014545 68.235718 
L 398.487273 69.159668 
" style="fill:none;stroke:#00eaff;stroke-linecap:square;stroke-width:1.5;"/>
   </g>
   <g id="line2d_45">
    <path clip-path="url(#pe3b4b8fa06)" d="M 73.832727 169.81255 
L 84.305455 167.560421 
L 94.778182 163.287148 
L 105.250909 161.208259 
L 115.723636 165.192797 
L 126.196364 173.797088 
L 136.669091 184.191534 
L 147.141818 200.245177 
L 157.614545 228.252434 
L 168.087273 267.289352 
L 178.56 290.041638 
L 189.032727 290.041638 
L 199.505455 290.041638 
L 209.978182 281.957069 
L 220.450909 251.75543 
L 230.923636 225.653822 
L 241.396364 202.035332 
L 251.869091 179.109805 
L 262.341818 158.551901 
L 272.814545 143.826436 
L 283.287273 134.644676 
L 293.76 126.098132 
L 304.232727 113.162822 
L 314.705455 96.473962 
L 325.178182 83.365411 
L 335.650909 79.496367 
L 346.123636 81.863991 
L 356.596364 83.885133 
L 367.069091 84.116121 
L 377.541818 84.578096 
L 388.014545 85.328806 
L 398.487273 83.885133 
" style="fill:none;stroke:#00cdff;stroke-linecap:square;stroke-width:1.5;"/>
   </g>
   <g id="line2d_46">
    <path clip-path="url(#pe3b4b8fa06)" d="M 73.832727 182.632367 
L 84.305455 180.726718 
L 94.778182 179.340792 
L 105.250909 176.742181 
L 115.723636 170.909742 
L 126.196364 167.329433 
L 136.669091 176.973168 
L 147.141818 204.056474 
L 157.614545 241.418731 
L 168.087273 275.20068 
L 178.56 290.041638 
L 189.032727 290.041638 
L 199.505455 285.652872 
L 209.978182 268.097809 
L 220.450909 244.190584 
L 230.923636 218.666445 
L 241.396364 196.780362 
L 251.869091 178.07036 
L 262.341818 158.725142 
L 272.814545 137.301034 
L 283.287273 117.262853 
L 293.76 103.403592 
L 304.232727 97.802141 
L 314.705455 97.571153 
L 325.178182 95.550011 
L 335.650909 89.602078 
L 346.123636 84.347108 
L 356.596364 84.231615 
L 367.069091 86.079516 
L 377.541818 84.520349 
L 388.014545 79.669608 
L 398.487273 74.992107 
" style="fill:none;stroke:#00afff;stroke-linecap:square;stroke-width:1.5;"/>
   </g>
   <g id="line2d_47">
    <path clip-path="url(#pe3b4b8fa06)" d="M 73.832727 169.119587 
L 84.305455 172.757643 
L 94.778182 174.721039 
L 105.250909 172.642149 
L 115.723636 169.581563 
L 126.196364 172.81539 
L 136.669091 186.790145 
L 147.141818 210.004407 
L 157.614545 238.531385 
L 168.087273 267.347099 
L 178.56 288.020496 
L 189.032727 290.041638 
L 199.505455 277.568304 
L 209.978182 252.679381 
L 220.450909 224.672125 
L 230.923636 196.664868 
L 241.396364 172.237921 
L 251.869091 154.509617 
L 262.341818 142.267269 
L 272.814545 133.374244 
L 283.287273 125.75165 
L 293.76 117.262853 
L 304.232727 108.774056 
L 314.705455 102.248654 
L 325.178182 95.607758 
L 335.650909 86.252757 
L 346.123636 77.532972 
L 356.596364 75.627324 
L 367.069091 80.94004 
L 377.541818 86.830226 
L 388.014545 89.371091 
L 398.487273 90.468282 
" style="fill:none;stroke:#0092ff;stroke-linecap:square;stroke-width:1.5;"/>
   </g>
   <g id="line2d_48">
    <path clip-path="url(#pe3b4b8fa06)" d="M 73.832727 173.797088 
L 84.305455 170.851995 
L 94.778182 168.080143 
L 105.250909 161.554741 
L 115.723636 156.299771 
L 126.196364 161.208259 
L 136.669091 178.590082 
L 147.141818 202.959283 
L 157.614545 232.005983 
L 168.087273 265.383703 
L 178.56 290.041638 
L 189.032727 290.041638 
L 199.505455 290.041638 
L 209.978182 288.078243 
L 220.450909 263.76679 
L 230.923636 241.014503 
L 241.396364 219.186167 
L 251.869091 196.145146 
L 262.341818 174.085822 
L 272.814545 156.068783 
L 283.287273 139.148936 
L 293.76 119.110754 
L 304.232727 99.419055 
L 314.705455 86.252757 
L 325.178182 80.016089 
L 335.650909 78.052694 
L 346.123636 78.861151 
L 356.596364 79.323126 
L 367.069091 77.244237 
L 377.541818 73.721675 
L 388.014545 70.661088 
L 398.487273 69.968125 
" style="fill:none;stroke:#0074ff;stroke-linecap:square;stroke-width:1.5;"/>
   </g>
   <g id="line2d_49">
    <path clip-path="url(#pe3b4b8fa06)" d="M 73.832727 166.001254 
L 84.305455 166.694217 
L 94.778182 168.657612 
L 105.250909 170.216779 
L 115.723636 169.06184 
L 126.196364 167.560421 
L 136.669091 172.988631 
L 147.141818 189.100022 
L 157.614545 213.295981 
L 168.087273 243.901849 
L 178.56 279.185217 
L 189.032727 290.041638 
L 199.505455 290.041638 
L 209.978182 290.041638 
L 220.450909 273.930248 
L 230.923636 242.284935 
L 241.396364 224.152402 
L 251.869091 213.70021 
L 262.341818 197.415578 
L 272.814545 171.198476 
L 283.287273 143.595449 
L 293.76 125.405169 
L 304.232727 115.81918 
L 314.705455 106.348685 
L 325.178182 94.337326 
L 335.650909 84.404855 
L 346.123636 82.383713 
L 356.596364 88.273899 
L 367.069091 95.896493 
L 377.541818 97.397912 
L 388.014545 90.988004 
L 398.487273 83.538652 
" style="fill:none;stroke:#0057ff;stroke-linecap:square;stroke-width:1.5;"/>
   </g>
   <g id="line2d_50">
    <path clip-path="url(#pe3b4b8fa06)" d="M 73.832727 174.778786 
L 84.305455 173.277366 
L 94.778182 172.757643 
L 105.250909 172.757643 
L 115.723636 169.81255 
L 126.196364 166.63647 
L 136.669091 170.56326 
L 147.141818 186.559157 
L 157.614545 215.779099 
L 168.087273 256.894906 
L 178.56 290.041638 
L 189.032727 290.041638 
L 199.505455 290.041638 
L 209.978182 290.041638 
L 220.450909 260.821697 
L 230.923636 230.735551 
L 241.396364 204.69169 
L 251.869091 180.611224 
L 262.341818 157.339216 
L 272.814545 136.954553 
L 283.287273 120.150199 
L 293.76 106.752914 
L 304.232727 97.686647 
L 314.705455 92.085196 
L 325.178182 86.714732 
L 335.650909 79.669608 
L 346.123636 73.201953 
L 356.596364 72.220255 
L 367.069091 76.666768 
L 377.541818 80.882293 
L 388.014545 80.247077 
L 398.487273 76.031552 
" style="fill:none;stroke:#0039ff;stroke-linecap:square;stroke-width:1.5;"/>
   </g>
   <g id="line2d_51">
    <path clip-path="url(#pe3b4b8fa06)" d="M 73.832727 179.687274 
L 84.305455 183.440824 
L 94.778182 184.711256 
L 105.250909 180.380237 
L 115.723636 171.14073 
L 126.196364 166.578723 
L 136.669091 177.31965 
L 147.141818 203.883233 
L 157.614545 237.722929 
L 168.087273 271.216142 
L 178.56 290.041638 
L 189.032727 290.041638 
L 199.505455 290.041638 
L 209.978182 278.319013 
L 220.450909 250.484998 
L 230.923636 225.1341 
L 241.396364 202.208573 
L 251.869091 179.687274 
L 262.341818 157.454709 
L 272.814545 139.148936 
L 283.287273 128.408009 
L 293.76 123.095292 
L 304.232727 116.338902 
L 314.705455 103.576833 
L 325.178182 86.94572 
L 335.650909 73.144206 
L 346.123636 65.521612 
L 356.596364 61.82581 
L 367.069091 59.169451 
L 377.541818 56.628587 
L 388.014545 56.455346 
L 398.487273 59.977908 
" style="fill:none;stroke:#001cff;stroke-linecap:square;stroke-width:1.5;"/>
   </g>
   <g id="line2d_52">
    <path clip-path="url(#pe3b4b8fa06)" d="M 73.832727 159.302611 
L 84.305455 156.12653 
L 94.778182 160.861778 
L 105.250909 168.080143 
L 115.723636 170.159032 
L 126.196364 168.773106 
L 136.669091 173.970329 
L 147.141818 191.814127 
L 157.614545 220.976322 
L 168.087273 257.587869 
L 178.56 290.041638 
L 189.032727 290.041638 
L 199.505455 290.041638 
L 209.978182 290.041638 
L 220.450909 271.966852 
L 230.923636 238.646879 
L 241.396364 211.043851 
L 251.869091 190.832429 
L 262.341818 173.104125 
L 272.814545 154.798351 
L 283.287273 137.76301 
L 293.76 122.74881 
L 304.232727 107.965599 
L 314.705455 94.106338 
L 325.178182 84.520349 
L 335.650909 80.420318 
L 346.123636 78.976645 
L 356.596364 77.244237 
L 367.069091 74.472385 
L 377.541818 71.642786 
L 388.014545 70.776582 
L 398.487273 74.645626 
" style="fill:none;stroke:#0800ff;stroke-linecap:square;stroke-width:1.5;"/>
   </g>
   <g id="line2d_53">
    <path clip-path="url(#pe3b4b8fa06)" d="M 73.832727 168.8886 
L 84.305455 171.256223 
L 94.778182 172.411162 
L 105.250909 169.697057 
L 115.723636 164.846315 
L 126.196364 165.019556 
L 136.669091 175.760483 
L 147.141818 195.914158 
L 157.614545 217.627 
L 168.087273 235.355305 
L 178.56 249.965276 
L 189.032727 261.861141 
L 199.505455 265.787932 
L 209.978182 257.876604 
L 220.450909 240.783515 
L 230.923636 221.091816 
L 241.396364 203.594499 
L 251.869091 187.540855 
L 262.341818 171.371717 
L 272.814545 156.473012 
L 283.287273 144.057424 
L 293.76 132.739028 
L 304.232727 121.420631 
L 314.705455 111.603655 
L 325.178182 105.597975 
L 335.650909 104.674024 
L 346.123636 106.406432 
L 356.596364 104.443037 
L 367.069091 96.185227 
L 377.541818 87.292201 
L 388.014545 86.483745 
L 398.487273 94.221832 
" style="fill:none;stroke:#2500ff;stroke-linecap:square;stroke-width:1.5;"/>
   </g>
   <g id="line2d_54">
    <path clip-path="url(#pe3b4b8fa06)" d="M 73.832727 162.536438 
L 84.305455 167.733661 
L 94.778182 174.952026 
L 105.250909 179.745021 
L 115.723636 181.188694 
L 126.196364 184.364774 
L 136.669091 192.853572 
L 147.141818 207.521289 
L 157.614545 231.024286 
L 168.087273 265.26821 
L 178.56 290.041638 
L 189.032727 290.041638 
L 199.505455 290.041638 
L 209.978182 290.041638 
L 220.450909 279.762686 
L 230.923636 245.865244 
L 241.396364 215.721352 
L 251.869091 192.969065 
L 262.341818 175.183014 
L 272.814545 158.263166 
L 283.287273 141.747547 
L 293.76 127.657299 
L 304.232727 116.281155 
L 314.705455 105.944457 
L 325.178182 93.297881 
L 335.650909 77.532972 
L 346.123636 65.232878 
L 356.596364 63.211736 
L 367.069091 69.448403 
L 377.541818 75.68507 
L 388.014545 77.821706 
L 398.487273 78.225935 
" style="fill:none;stroke:#4300ff;stroke-linecap:square;stroke-width:1.5;"/>
   </g>
   <g id="line2d_55">
    <path clip-path="url(#pe3b4b8fa06)" d="M 73.832727 163.749124 
L 84.305455 154.62511 
L 94.778182 150.525079 
L 105.250909 152.488474 
L 115.723636 158.782889 
L 126.196364 168.022396 
L 136.669091 182.459126 
L 147.141818 206.250857 
L 157.614545 239.801818 
L 168.087273 274.854198 
L 178.56 290.041638 
L 189.032727 290.041638 
L 199.505455 280.282409 
L 209.978182 253.25685 
L 220.450909 228.367927 
L 230.923636 210.466382 
L 241.396364 195.336689 
L 251.869091 177.030915 
L 262.341818 155.491314 
L 272.814545 136.146096 
L 283.287273 122.864304 
L 293.76 112.412112 
L 304.232727 102.479641 
L 314.705455 95.088036 
L 325.178182 91.161245 
L 335.650909 88.735874 
L 346.123636 86.656985 
L 356.596364 83.307664 
L 367.069091 78.399176 
L 377.541818 75.049854 
L 388.014545 75.68507 
L 398.487273 78.399176 
" style="fill:none;stroke:#6000ff;stroke-linecap:square;stroke-width:1.5;"/>
   </g>
   <g id="line2d_56">
    <path clip-path="url(#pe3b4b8fa06)" d="M 73.832727 175.529495 
L 84.305455 173.739341 
L 94.778182 167.618167 
L 105.250909 164.153352 
L 115.723636 165.308291 
L 126.196364 167.791408 
L 136.669091 173.623847 
L 147.141818 189.273263 
L 157.614545 218.146723 
L 168.087273 258.396326 
L 178.56 290.041638 
L 189.032727 290.041638 
L 199.505455 290.041638 
L 209.978182 290.041638 
L 220.450909 267.751327 
L 230.923636 240.148299 
L 241.396364 219.474902 
L 251.869091 198.281782 
L 262.341818 174.143569 
L 272.814545 150.871561 
L 283.287273 133.662978 
L 293.76 124.307977 
L 304.232727 118.706526 
L 314.705455 111.141679 
L 325.178182 99.938777 
L 335.650909 88.44714 
L 346.123636 78.341429 
L 356.596364 69.332909 
L 367.069091 63.384976 
L 377.541818 62.403279 
L 388.014545 64.539915 
L 398.487273 65.7526 
" style="fill:none;stroke:#7e00ff;stroke-linecap:square;stroke-width:1.5;"/>
   </g>
   <g id="line2d_57">
    <path clip-path="url(#pe3b4b8fa06)" d="M 73.832727 172.757643 
L 84.305455 169.63931 
L 94.778182 169.004094 
L 105.250909 168.657612 
L 115.723636 167.675914 
L 126.196364 170.39002 
L 136.669091 181.304188 
L 147.141818 203.01703 
L 157.614545 237.838422 
L 168.087273 280.859878 
L 178.56 290.041638 
L 189.032727 290.041638 
L 199.505455 290.041638 
L 209.978182 280.340156 
L 220.450909 253.430091 
L 230.923636 231.13978 
L 241.396364 210.466382 
L 251.869091 188.926781 
L 262.341818 167.791408 
L 272.814545 148.734925 
L 283.287273 132.912268 
L 293.76 120.612174 
L 304.232727 110.390969 
L 314.705455 101.555691 
L 325.178182 94.164085 
L 335.650909 87.927418 
L 346.123636 80.478065 
L 356.596364 70.025872 
L 367.069091 61.306087 
L 377.541818 59.400439 
L 388.014545 62.403279 
L 398.487273 66.387816 
" style="fill:none;stroke:#9b00ff;stroke-linecap:square;stroke-width:1.5;"/>
   </g>
   <g id="line2d_58">
    <path clip-path="url(#pe3b4b8fa06)" d="M 73.832727 164.730821 
L 84.305455 166.751964 
L 94.778182 169.754803 
L 105.250909 167.271686 
L 115.723636 161.3815 
L 126.196364 160.919525 
L 136.669091 171.429464 
L 147.141818 190.601442 
L 157.614545 215.37487 
L 168.087273 247.366664 
L 178.56 284.786669 
L 189.032727 290.041638 
L 199.505455 290.041638 
L 209.978182 290.041638 
L 220.450909 259.609011 
L 230.923636 226.693267 
L 241.396364 203.074776 
L 251.869091 183.267583 
L 262.341818 161.901222 
L 272.814545 138.802454 
L 283.287273 117.089612 
L 293.76 99.88103 
L 304.232727 89.024609 
L 314.705455 85.271059 
L 325.178182 87.580936 
L 335.650909 92.258437 
L 346.123636 93.413375 
L 356.596364 89.486584 
L 367.069091 85.328806 
L 377.541818 83.654145 
L 388.014545 81.171028 
L 398.487273 73.894916 
" style="fill:none;stroke:#b900ff;stroke-linecap:square;stroke-width:1.5;"/>
   </g>
   <g id="line2d_59">
    <path clip-path="url(#pe3b4b8fa06)" d="M 73.832727 180.842212 
L 84.305455 174.836532 
L 94.778182 172.411162 
L 105.250909 173.912582 
L 115.723636 175.933724 
L 126.196364 177.204156 
L 136.669091 184.595762 
L 147.141818 206.424098 
L 157.614545 242.862404 
L 168.087273 283.342996 
L 178.56 290.041638 
L 189.032727 290.041638 
L 199.505455 290.041638 
L 209.978182 285.941607 
L 220.450909 259.955493 
L 230.923636 231.082033 
L 241.396364 203.594499 
L 251.869091 180.668971 
L 262.341818 162.536438 
L 272.814545 147.060264 
L 283.287273 132.161558 
L 293.76 117.724828 
L 304.232727 104.096555 
L 314.705455 91.276739 
L 325.178182 78.51467 
L 335.650909 67.485008 
L 346.123636 60.728618 
L 356.596364 58.303247 
L 367.069091 59.169451 
L 377.541818 61.24834 
L 388.014545 62.74976 
L 398.487273 65.810347 
" style="fill:none;stroke:#d600ff;stroke-linecap:square;stroke-width:1.5;"/>
   </g>
   <g id="line2d_60">
    <path clip-path="url(#pe3b4b8fa06)" d="M 73.832727 173.912582 
L 84.305455 179.976008 
L 94.778182 184.82675 
L 105.250909 183.556317 
L 115.723636 176.684434 
L 126.196364 172.468909 
L 136.669091 179.976008 
L 147.141818 201.400116 
L 157.614545 232.525706 
L 168.087273 267.000617 
L 178.56 290.041638 
L 189.032727 290.041638 
L 199.505455 290.041638 
L 209.978182 289.059941 
L 220.450909 260.186481 
L 230.923636 230.793298 
L 241.396364 204.345209 
L 251.869091 182.112644 
L 262.341818 163.691377 
L 272.814545 147.060264 
L 283.287273 130.660138 
L 293.76 118.475538 
L 304.232727 112.585352 
L 314.705455 106.05995 
L 325.178182 93.586616 
L 335.650909 80.651306 
L 346.123636 75.280842 
L 356.596364 77.879453 
L 367.069091 82.787942 
L 377.541818 86.137263 
L 388.014545 87.176708 
L 398.487273 87.234454 
" style="fill:none;stroke:#f800fd;stroke-linecap:square;stroke-width:1.5;"/>
   </g>
   <g id="line2d_61">
    <path clip-path="url(#pe3b4b8fa06)" d="M 73.832727 155.260326 
L 84.305455 155.318073 
L 94.778182 155.780049 
L 105.250909 156.588506 
L 115.723636 161.958969 
L 126.196364 174.31681 
L 136.669091 190.543695 
L 147.141818 209.080456 
L 157.614545 236.625737 
L 168.087273 275.431667 
L 178.56 290.041638 
L 189.032727 290.041638 
L 199.505455 290.041638 
L 209.978182 270.465432 
L 220.450909 241.707466 
L 230.923636 221.553791 
L 241.396364 207.405795 
L 251.869091 193.084559 
L 262.341818 175.06752 
L 272.814545 154.394123 
L 283.287273 133.662978 
L 293.76 115.876927 
L 304.232727 103.923314 
L 314.705455 97.455659 
L 325.178182 93.990844 
L 335.650909 90.757017 
L 346.123636 86.714732 
L 356.596364 82.325966 
L 367.069091 79.958343 
L 377.541818 80.478065 
L 388.014545 80.073836 
L 398.487273 78.283682 
" style="fill:none;stroke:#ff00e7;stroke-linecap:square;stroke-width:1.5;"/>
   </g>
   <g id="line2d_62">
    <path clip-path="url(#pe3b4b8fa06)" d="M 73.832727 174.836532 
L 84.305455 181.939404 
L 94.778182 184.595762 
L 105.250909 181.650669 
L 115.723636 176.511193 
L 126.196364 176.857675 
L 136.669091 187.887336 
L 147.141818 206.019869 
L 157.614545 226.520026 
L 168.087273 248.868084 
L 178.56 270.638673 
L 189.032727 285.017656 
L 199.505455 285.595125 
L 209.978182 273.179538 
L 220.450909 254.065307 
L 230.923636 233.103175 
L 241.396364 211.910055 
L 251.869091 188.811287 
L 262.341818 163.171655 
L 272.814545 139.148936 
L 283.287273 121.016403 
L 293.76 110.275476 
L 304.232727 105.771216 
L 314.705455 102.999364 
L 325.178182 98.610598 
L 335.650909 94.972542 
L 346.123636 95.434517 
L 356.596364 96.589456 
L 367.069091 93.355628 
L 377.541818 84.520349 
L 388.014545 75.68507 
L 398.487273 75.68507 
" style="fill:none;stroke:#ff00c9;stroke-linecap:square;stroke-width:1.5;"/>
   </g>
   <g id="line2d_63">
    <path clip-path="url(#pe3b4b8fa06)" d="M 73.832727 173.335113 
L 84.305455 170.101285 
L 94.778182 164.904062 
L 105.250909 158.840636 
L 115.723636 154.163135 
L 126.196364 157.62795 
L 136.669091 176.106965 
L 147.141818 210.235395 
L 157.614545 253.718825 
L 168.087273 290.041638 
L 178.56 290.041638 
L 189.032727 290.041638 
L 199.505455 290.041638 
L 209.978182 264.979475 
L 220.450909 240.610275 
L 230.923636 218.666445 
L 241.396364 194.990208 
L 251.869091 168.484371 
L 262.341818 143.422208 
L 272.814545 125.231928 
L 283.287273 113.971279 
L 293.76 104.558531 
L 304.232727 93.586616 
L 314.705455 82.961182 
L 325.178182 76.43578 
L 335.650909 74.472385 
L 346.123636 74.414638 
L 356.596364 74.992107 
L 367.069091 75.800564 
L 377.541818 75.396336 
L 388.014545 74.645626 
L 398.487273 75.396336 
" style="fill:none;stroke:#ff00ac;stroke-linecap:square;stroke-width:1.5;"/>
   </g>
   <g id="line2d_64">
    <path clip-path="url(#pe3b4b8fa06)" d="M 73.832727 163.864618 
L 84.305455 167.213939 
L 94.778182 169.119587 
L 105.250909 168.13789 
L 115.723636 165.192797 
L 126.196364 163.113908 
L 136.669091 169.754803 
L 147.141818 200.18743 
L 157.614545 254.296295 
L 168.087273 290.041638 
L 178.56 290.041638 
L 189.032727 290.041638 
L 199.505455 263.76679 
L 209.978182 245.518763 
L 220.450909 236.510243 
L 230.923636 228.021446 
L 241.396364 218.955179 
L 251.869091 212.487524 
L 262.341818 207.290302 
L 272.814545 200.93814 
L 283.287273 193.662028 
L 293.76 186.32817 
L 304.232727 172.353415 
L 314.705455 131.00662 
L 325.178182 54.549698 
L 335.650909 53.568 
L 346.123636 53.568 
L 356.596364 53.568 
L 367.069091 53.568 
L 377.541818 53.568 
L 388.014545 53.568 
L 398.487273 55.589142 
" style="fill:none;stroke:#ff008e;stroke-linecap:square;stroke-width:1.5;"/>
   </g>
   <g id="line2d_65">
    <path clip-path="url(#pe3b4b8fa06)" d="M 73.832727 175.414002 
L 84.305455 175.471749 
L 94.778182 173.335113 
L 105.250909 170.909742 
L 115.723636 172.180174 
L 126.196364 178.878817 
L 136.669091 191.063417 
L 147.141818 211.159345 
L 157.614545 243.32438 
L 168.087273 284.497934 
L 178.56 290.041638 
L 189.032727 290.041638 
L 199.505455 290.041638 
L 209.978182 290.041638 
L 220.450909 255.970955 
L 230.923636 221.265056 
L 241.396364 194.412738 
L 251.869091 177.608385 
L 262.341818 164.904062 
L 272.814545 148.734925 
L 283.287273 128.927731 
L 293.76 112.527606 
L 304.232727 105.020506 
L 314.705455 104.327543 
L 325.178182 104.443037 
L 335.650909 100.400752 
L 346.123636 91.045751 
L 356.596364 81.344269 
L 367.069091 75.396336 
L 377.541818 73.952663 
L 388.014545 76.840009 
L 398.487273 81.344269 
" style="fill:none;stroke:#ff0071;stroke-linecap:square;stroke-width:1.5;"/>
   </g>
   <g id="line2d_66">
    <path clip-path="url(#pe3b4b8fa06)" d="M 73.832727 172.526656 
L 84.305455 175.702736 
L 94.778182 184.07604 
L 105.250909 189.966226 
L 115.723636 187.656349 
L 126.196364 180.264743 
L 136.669091 178.532335 
L 147.141818 191.236658 
L 157.614545 217.742494 
L 168.087273 252.621634 
L 178.56 290.041638 
L 189.032727 290.041638 
L 199.505455 290.041638 
L 209.978182 290.041638 
L 220.450909 284.959909 
L 230.923636 246.673701 
L 241.396364 221.784779 
L 251.869091 203.074776 
L 262.341818 182.459126 
L 272.814545 161.843475 
L 283.287273 144.69264 
L 293.76 130.948873 
L 304.232727 118.82202 
L 314.705455 107.734611 
L 325.178182 97.802141 
L 335.650909 88.216152 
L 346.123636 79.958343 
L 356.596364 75.107601 
L 367.069091 74.530132 
L 377.541818 76.609021 
L 388.014545 76.551274 
L 398.487273 72.855471 
" style="fill:none;stroke:#ff0053;stroke-linecap:square;stroke-width:1.5;"/>
   </g>
   <g id="line2d_67">
    <path clip-path="url(#pe3b4b8fa06)" d="M 73.832727 192.622584 
L 84.305455 191.178911 
L 94.778182 188.00283 
L 105.250909 184.711256 
L 115.723636 183.49857 
L 126.196364 186.385916 
L 136.669091 194.354991 
L 147.141818 207.69453 
L 157.614545 226.751014 
L 168.087273 250.138516 
L 178.56 273.179538 
L 189.032727 290.041638 
L 199.505455 290.041638 
L 209.978182 290.041638 
L 220.450909 284.555681 
L 230.923636 263.247067 
L 241.396364 237.145459 
L 251.869091 212.718512 
L 262.341818 193.431041 
L 272.814545 178.012613 
L 283.287273 164.673074 
L 293.76 155.087086 
L 304.232727 148.388443 
L 314.705455 138.975695 
L 325.178182 124.596712 
L 335.650909 108.947296 
L 346.123636 98.090875 
L 356.596364 95.434517 
L 367.069091 97.686647 
L 377.541818 99.765536 
L 388.014545 98.437357 
L 398.487273 93.87535 
" style="fill:none;stroke:#ff0035;stroke-linecap:square;stroke-width:1.5;"/>
   </g>
   <g id="patch_3">
    <path d="M 57.6 307.584 
L 57.6 41.472 
" style="fill:none;stroke:#000000;stroke-linecap:square;stroke-linejoin:miter;stroke-width:0.8;"/>
   </g>
   <g id="patch_4">
    <path d="M 414.72 307.584 
L 414.72 41.472 
" style="fill:none;stroke:#000000;stroke-linecap:square;stroke-linejoin:miter;stroke-width:0.8;"/>
   </g>
   <g id="patch_5">
    <path d="M 57.6 307.584 
L 414.72 307.584 
" style="fill:none;stroke:#000000;stroke-linecap:square;stroke-linejoin:miter;stroke-width:0.8;"/>
   </g>
   <g id="patch_6">
    <path d="M 57.6 41.472 
L 414.72 41.472 
" style="fill:none;stroke:#000000;stroke-linecap:square;stroke-linejoin:miter;stroke-width:0.8;"/>
   </g>
   <g id="text_19">
    <!-- $V_{rms}=$ 37.455747 -->
    <defs>
     <path d="M 20.609375 0 
L 7.8125 72.90625 
L 17.484375 72.90625 
L 28.078125 10.203125 
L 63.484375 72.90625 
L 74.21875 72.90625 
L 32.078125 0 
z
" id="DejaVuSans-Oblique-56"/>
     <path d="M 44.578125 46.390625 
Q 43.21875 47.125 41.453125 47.515625 
Q 39.703125 47.90625 37.703125 47.90625 
Q 30.515625 47.90625 25.140625 42.453125 
Q 19.78125 37.015625 18.015625 27.875 
L 12.5 0 
L 3.515625 0 
L 14.203125 54.6875 
L 23.1875 54.6875 
L 21.484375 46.1875 
Q 25.046875 50.921875 30 53.453125 
Q 34.96875 56 40.578125 56 
Q 42.046875 56 43.453125 55.828125 
Q 44.875 55.671875 46.296875 55.28125 
z
" id="DejaVuSans-Oblique-72"/>
     <path d="M 89.796875 33.015625 
L 83.40625 0 
L 74.421875 0 
L 80.71875 32.71875 
Q 81.109375 34.8125 81.296875 36.328125 
Q 81.5 37.84375 81.5 38.921875 
Q 81.5 43.3125 79.046875 45.75 
Q 76.609375 48.1875 72.21875 48.1875 
Q 65.671875 48.1875 60.546875 43.28125 
Q 55.421875 38.375 53.90625 30.515625 
L 47.90625 0 
L 38.921875 0 
L 45.3125 32.71875 
Q 45.703125 34.515625 45.890625 36.046875 
Q 46.09375 37.59375 46.09375 38.8125 
Q 46.09375 43.265625 43.65625 45.71875 
Q 41.21875 48.1875 36.921875 48.1875 
Q 30.28125 48.1875 25.140625 43.28125 
Q 20.015625 38.375 18.5 30.515625 
L 12.5 0 
L 3.515625 0 
L 14.203125 54.6875 
L 23.1875 54.6875 
L 21.484375 46.1875 
Q 25.140625 50.984375 30.046875 53.484375 
Q 34.96875 56 40.578125 56 
Q 46.53125 56 50.359375 52.875 
Q 54.203125 49.75 54.984375 44.1875 
Q 59.078125 49.953125 64.46875 52.96875 
Q 69.875 56 75.875 56 
Q 82.90625 56 86.734375 51.953125 
Q 90.578125 47.90625 90.578125 40.484375 
Q 90.578125 38.875 90.375 36.9375 
Q 90.1875 35.015625 89.796875 33.015625 
z
" id="DejaVuSans-Oblique-6d"/>
     <path d="M 50 53.078125 
L 48.296875 44.578125 
Q 44.734375 46.53125 40.765625 47.5 
Q 36.8125 48.484375 32.625 48.484375 
Q 25.53125 48.484375 21.453125 46.0625 
Q 17.390625 43.65625 17.390625 39.5 
Q 17.390625 34.671875 26.859375 32.078125 
Q 27.59375 31.890625 27.9375 31.78125 
L 30.8125 30.90625 
Q 39.796875 28.421875 42.796875 25.6875 
Q 45.796875 22.953125 45.796875 18.21875 
Q 45.796875 9.515625 38.890625 4.046875 
Q 31.984375 -1.421875 20.796875 -1.421875 
Q 16.453125 -1.421875 11.671875 -0.578125 
Q 6.890625 0.25 1.125 2 
L 2.875 11.28125 
Q 7.8125 8.734375 12.59375 7.421875 
Q 17.390625 6.109375 21.78125 6.109375 
Q 28.375 6.109375 32.5 8.9375 
Q 36.625 11.765625 36.625 16.109375 
Q 36.625 20.796875 25.78125 23.6875 
L 24.859375 23.921875 
L 21.78125 24.703125 
Q 14.9375 26.515625 11.765625 29.46875 
Q 8.59375 32.421875 8.59375 37.015625 
Q 8.59375 45.75 15.15625 50.875 
Q 21.734375 56 33.015625 56 
Q 37.453125 56 41.671875 55.265625 
Q 45.90625 54.546875 50 53.078125 
z
" id="DejaVuSans-Oblique-73"/>
     <path d="M 10.59375 45.40625 
L 73.1875 45.40625 
L 73.1875 37.203125 
L 10.59375 37.203125 
z
M 10.59375 25.484375 
L 73.1875 25.484375 
L 73.1875 17.1875 
L 10.59375 17.1875 
z
" id="DejaVuSans-3d"/>
    </defs>
    <g transform="translate(325.178182 133.070072)scale(0.1 -0.1)">
     <use transform="translate(0 0.78125)" xlink:href="#DejaVuSans-Oblique-56"/>
     <use transform="translate(68.408203 -15.625)scale(0.7)" xlink:href="#DejaVuSans-Oblique-72"/>
     <use transform="translate(97.1875 -15.625)scale(0.7)" xlink:href="#DejaVuSans-Oblique-6d"/>
     <use transform="translate(165.375977 -15.625)scale(0.7)" xlink:href="#DejaVuSans-Oblique-73"/>
     <use transform="translate(224.0625 0.78125)" xlink:href="#DejaVuSans-3d"/>
     <use transform="translate(327.333984 0.78125)" xlink:href="#DejaVuSans-20"/>
     <use transform="translate(359.121094 0.78125)" xlink:href="#DejaVuSans-33"/>
     <use transform="translate(422.744141 0.78125)" xlink:href="#DejaVuSans-37"/>
     <use transform="translate(486.367188 0.78125)" xlink:href="#DejaVuSans-2e"/>
     <use transform="translate(518.154297 0.78125)" xlink:href="#DejaVuSans-34"/>
     <use transform="translate(581.777344 0.78125)" xlink:href="#DejaVuSans-35"/>
     <use transform="translate(645.400391 0.78125)" xlink:href="#DejaVuSans-35"/>
     <use transform="translate(708.914062 0.78125)" xlink:href="#DejaVuSans-37"/>
     <use transform="translate(772.537109 0.78125)" xlink:href="#DejaVuSans-34"/>
     <use transform="translate(836.160156 0.78125)" xlink:href="#DejaVuSans-37"/>
    </g>
   </g>
   <g id="text_20">
    <!-- Channel 32 - Unit 2 -->
    <defs>
     <path d="M 64.40625 67.28125 
L 64.40625 56.890625 
Q 59.421875 61.53125 53.78125 63.8125 
Q 48.140625 66.109375 41.796875 66.109375 
Q 29.296875 66.109375 22.65625 58.46875 
Q 16.015625 50.828125 16.015625 36.375 
Q 16.015625 21.96875 22.65625 14.328125 
Q 29.296875 6.6875 41.796875 6.6875 
Q 48.140625 6.6875 53.78125 8.984375 
Q 59.421875 11.28125 64.40625 15.921875 
L 64.40625 5.609375 
Q 59.234375 2.09375 53.4375 0.328125 
Q 47.65625 -1.421875 41.21875 -1.421875 
Q 24.65625 -1.421875 15.125 8.703125 
Q 5.609375 18.84375 5.609375 36.375 
Q 5.609375 53.953125 15.125 64.078125 
Q 24.65625 74.21875 41.21875 74.21875 
Q 47.75 74.21875 53.53125 72.484375 
Q 59.328125 70.75 64.40625 67.28125 
z
" id="DejaVuSans-43"/>
     <path d="M 54.890625 33.015625 
L 54.890625 0 
L 45.90625 0 
L 45.90625 32.71875 
Q 45.90625 40.484375 42.875 44.328125 
Q 39.84375 48.1875 33.796875 48.1875 
Q 26.515625 48.1875 22.3125 43.546875 
Q 18.109375 38.921875 18.109375 30.90625 
L 18.109375 0 
L 9.078125 0 
L 9.078125 75.984375 
L 18.109375 75.984375 
L 18.109375 46.1875 
Q 21.34375 51.125 25.703125 53.5625 
Q 30.078125 56 35.796875 56 
Q 45.21875 56 50.046875 50.171875 
Q 54.890625 44.34375 54.890625 33.015625 
z
" id="DejaVuSans-68"/>
     <path d="M 54.890625 33.015625 
L 54.890625 0 
L 45.90625 0 
L 45.90625 32.71875 
Q 45.90625 40.484375 42.875 44.328125 
Q 39.84375 48.1875 33.796875 48.1875 
Q 26.515625 48.1875 22.3125 43.546875 
Q 18.109375 38.921875 18.109375 30.90625 
L 18.109375 0 
L 9.078125 0 
L 9.078125 54.6875 
L 18.109375 54.6875 
L 18.109375 46.1875 
Q 21.34375 51.125 25.703125 53.5625 
Q 30.078125 56 35.796875 56 
Q 45.21875 56 50.046875 50.171875 
Q 54.890625 44.34375 54.890625 33.015625 
z
" id="DejaVuSans-6e"/>
     <path d="M 4.890625 31.390625 
L 31.203125 31.390625 
L 31.203125 23.390625 
L 4.890625 23.390625 
z
" id="DejaVuSans-2d"/>
     <path d="M 8.6875 72.90625 
L 18.609375 72.90625 
L 18.609375 28.609375 
Q 18.609375 16.890625 22.84375 11.734375 
Q 27.09375 6.59375 36.625 6.59375 
Q 46.09375 6.59375 50.34375 11.734375 
Q 54.59375 16.890625 54.59375 28.609375 
L 54.59375 72.90625 
L 64.5 72.90625 
L 64.5 27.390625 
Q 64.5 13.140625 57.4375 5.859375 
Q 50.390625 -1.421875 36.625 -1.421875 
Q 22.796875 -1.421875 15.734375 5.859375 
Q 8.6875 13.140625 8.6875 27.390625 
z
" id="DejaVuSans-55"/>
    </defs>
    <g transform="translate(178.069687 35.472)scale(0.12 -0.12)">
     <use xlink:href="#DejaVuSans-43"/>
     <use x="69.824219" xlink:href="#DejaVuSans-68"/>
     <use x="133.203125" xlink:href="#DejaVuSans-61"/>
     <use x="194.482422" xlink:href="#DejaVuSans-6e"/>
     <use x="257.861328" xlink:href="#DejaVuSans-6e"/>
     <use x="321.240234" xlink:href="#DejaVuSans-65"/>
     <use x="382.763672" xlink:href="#DejaVuSans-6c"/>
     <use x="410.546875" xlink:href="#DejaVuSans-20"/>
     <use x="442.333984" xlink:href="#DejaVuSans-33"/>
     <use x="505.957031" xlink:href="#DejaVuSans-32"/>
     <use x="569.580078" xlink:href="#DejaVuSans-20"/>
     <use x="601.367188" xlink:href="#DejaVuSans-2d"/>
     <use x="637.451172" xlink:href="#DejaVuSans-20"/>
     <use x="669.238281" xlink:href="#DejaVuSans-55"/>
     <use x="742.431641" xlink:href="#DejaVuSans-6e"/>
     <use x="805.810547" xlink:href="#DejaVuSans-69"/>
     <use x="833.59375" xlink:href="#DejaVuSans-74"/>
     <use x="872.802734" xlink:href="#DejaVuSans-20"/>
     <use x="904.589844" xlink:href="#DejaVuSans-32"/>
    </g>
   </g>
  </g>
 </g>
 <defs>
  <clipPath id="pe3b4b8fa06">
   <rect height="266.112" width="357.12" x="57.6" y="41.472"/>
  </clipPath>
 </defs>
</svg>
