<?xml version="1.0" encoding="utf-8" standalone="no"?>
<!DOCTYPE svg PUBLIC "-//W3C//DTD SVG 1.1//EN"
  "http://www.w3.org/Graphics/SVG/1.1/DTD/svg11.dtd">
<!-- Created with matplotlib (http://matplotlib.org/) -->
<svg height="345pt" version="1.1" viewBox="0 0 460 345" width="460pt" xmlns="http://www.w3.org/2000/svg" xmlns:xlink="http://www.w3.org/1999/xlink">
 <defs>
  <style type="text/css">
*{stroke-linecap:butt;stroke-linejoin:round;}
  </style>
 </defs>
 <g id="figure_1">
  <g id="patch_1">
   <path d="M 0 345.6 
L 460.8 345.6 
L 460.8 0 
L 0 0 
z
" style="fill:#ffffff;"/>
  </g>
  <g id="axes_1">
   <g id="patch_2">
    <path d="M 57.6 307.584 
L 414.72 307.584 
L 414.72 41.472 
L 57.6 41.472 
z
" style="fill:#ffffff;"/>
   </g>
   <g id="PolyCollection_1">
    <defs>
     <path d="M 73.832727 -219.114463 
L 73.832727 -158.237826 
L 84.305455 -155.98286 
L 94.778182 -152.024774 
L 105.250909 -147.333088 
L 115.723636 -143.112887 
L 126.196364 -136.951323 
L 136.669091 -124.884426 
L 147.141818 -108.531262 
L 157.614545 -91.171556 
L 168.087273 -73.613904 
L 178.56 -69.289178 
L 189.032727 -74.986432 
L 199.505455 -82.591511 
L 209.978182 -89.089062 
L 220.450909 -96.073697 
L 230.923636 -104.379392 
L 241.396364 -112.952029 
L 251.869091 -120.651732 
L 262.341818 -127.753075 
L 272.814545 -134.948667 
L 283.287273 -142.182835 
L 293.76 -149.172379 
L 304.232727 -156.290737 
L 314.705455 -162.422906 
L 325.178182 -166.76143 
L 335.650909 -170.718978 
L 346.123636 -175.03955 
L 356.596364 -179.203435 
L 367.069091 -182.848008 
L 377.541818 -185.872728 
L 388.014545 -188.698183 
L 398.487273 -191.623798 
L 398.487273 -271.719538 
L 398.487273 -271.719538 
L 388.014545 -267.927649 
L 377.541818 -261.920536 
L 367.069091 -254.246892 
L 356.596364 -247.02869 
L 346.123636 -241.178371 
L 335.650909 -235.474133 
L 325.178182 -228.405556 
L 314.705455 -220.690123 
L 304.232727 -214.033259 
L 293.76 -207.505528 
L 283.287273 -199.62704 
L 272.814545 -190.680011 
L 262.341818 -181.184203 
L 251.869091 -171.668397 
L 241.396364 -162.004207 
L 230.923636 -152.08223 
L 220.450909 -143.101463 
L 209.978182 -136.759284 
L 199.505455 -132.195707 
L 189.032727 -125.855575 
L 178.56 -115.522254 
L 168.087273 -105.1557 
L 157.614545 -105.016037 
L 147.141818 -127.423571 
L 136.669091 -156.332145 
L 126.196364 -178.561323 
L 115.723636 -192.958523 
L 105.250909 -202.142569 
L 94.778182 -208.537469 
L 84.305455 -213.848965 
L 73.832727 -219.114463 
z
" id="m2f84f6360c"/>
    </defs>
    <g clip-path="url(#pe2f3ca8fb6)">
     <use style="fill-opacity:0.5;" x="0" xlink:href="#m2f84f6360c" y="345.6"/>
    </g>
   </g>
   <g id="matplotlib.axis_1">
    <g id="xtick_1">
     <g id="line2d_1">
      <defs>
       <path d="M 0 0 
L 0 3.5 
" id="mac8445f255" style="stroke:#000000;stroke-width:0.8;"/>
      </defs>
      <g>
       <use style="stroke:#000000;stroke-width:0.8;" x="73.832727" xlink:href="#mac8445f255" y="307.584"/>
      </g>
     </g>
     <g id="text_1">
      <!-- 0.0000 -->
      <defs>
       <path d="M 31.78125 66.40625 
Q 24.171875 66.40625 20.328125 58.90625 
Q 16.5 51.421875 16.5 36.375 
Q 16.5 21.390625 20.328125 13.890625 
Q 24.171875 6.390625 31.78125 6.390625 
Q 39.453125 6.390625 43.28125 13.890625 
Q 47.125 21.390625 47.125 36.375 
Q 47.125 51.421875 43.28125 58.90625 
Q 39.453125 66.40625 31.78125 66.40625 
z
M 31.78125 74.21875 
Q 44.046875 74.21875 50.515625 64.515625 
Q 56.984375 54.828125 56.984375 36.375 
Q 56.984375 17.96875 50.515625 8.265625 
Q 44.046875 -1.421875 31.78125 -1.421875 
Q 19.53125 -1.421875 13.0625 8.265625 
Q 6.59375 17.96875 6.59375 36.375 
Q 6.59375 54.828125 13.0625 64.515625 
Q 19.53125 74.21875 31.78125 74.21875 
z
" id="DejaVuSans-30"/>
       <path d="M 10.6875 12.40625 
L 21 12.40625 
L 21 0 
L 10.6875 0 
z
" id="DejaVuSans-2e"/>
      </defs>
      <g transform="translate(56.337415 322.182437)scale(0.1 -0.1)">
       <use xlink:href="#DejaVuSans-30"/>
       <use x="63.623047" xlink:href="#DejaVuSans-2e"/>
       <use x="95.410156" xlink:href="#DejaVuSans-30"/>
       <use x="159.033203" xlink:href="#DejaVuSans-30"/>
       <use x="222.65625" xlink:href="#DejaVuSans-30"/>
       <use x="286.279297" xlink:href="#DejaVuSans-30"/>
      </g>
     </g>
    </g>
    <g id="xtick_2">
     <g id="line2d_2">
      <g>
       <use style="stroke:#000000;stroke-width:0.8;" x="115.723636" xlink:href="#mac8445f255" y="307.584"/>
      </g>
     </g>
     <g id="text_2">
      <!-- 0.0001 -->
      <defs>
       <path d="M 12.40625 8.296875 
L 28.515625 8.296875 
L 28.515625 63.921875 
L 10.984375 60.40625 
L 10.984375 69.390625 
L 28.421875 72.90625 
L 38.28125 72.90625 
L 38.28125 8.296875 
L 54.390625 8.296875 
L 54.390625 0 
L 12.40625 0 
z
" id="DejaVuSans-31"/>
      </defs>
      <g transform="translate(98.228324 322.182437)scale(0.1 -0.1)">
       <use xlink:href="#DejaVuSans-30"/>
       <use x="63.623047" xlink:href="#DejaVuSans-2e"/>
       <use x="95.410156" xlink:href="#DejaVuSans-30"/>
       <use x="159.033203" xlink:href="#DejaVuSans-30"/>
       <use x="222.65625" xlink:href="#DejaVuSans-30"/>
       <use x="286.279297" xlink:href="#DejaVuSans-31"/>
      </g>
     </g>
    </g>
    <g id="xtick_3">
     <g id="line2d_3">
      <g>
       <use style="stroke:#000000;stroke-width:0.8;" x="157.614545" xlink:href="#mac8445f255" y="307.584"/>
      </g>
     </g>
     <g id="text_3">
      <!-- 0.0002 -->
      <defs>
       <path d="M 19.1875 8.296875 
L 53.609375 8.296875 
L 53.609375 0 
L 7.328125 0 
L 7.328125 8.296875 
Q 12.9375 14.109375 22.625 23.890625 
Q 32.328125 33.6875 34.8125 36.53125 
Q 39.546875 41.84375 41.421875 45.53125 
Q 43.3125 49.21875 43.3125 52.78125 
Q 43.3125 58.59375 39.234375 62.25 
Q 35.15625 65.921875 28.609375 65.921875 
Q 23.96875 65.921875 18.8125 64.3125 
Q 13.671875 62.703125 7.8125 59.421875 
L 7.8125 69.390625 
Q 13.765625 71.78125 18.9375 73 
Q 24.125 74.21875 28.421875 74.21875 
Q 39.75 74.21875 46.484375 68.546875 
Q 53.21875 62.890625 53.21875 53.421875 
Q 53.21875 48.921875 51.53125 44.890625 
Q 49.859375 40.875 45.40625 35.40625 
Q 44.1875 33.984375 37.640625 27.21875 
Q 31.109375 20.453125 19.1875 8.296875 
z
" id="DejaVuSans-32"/>
      </defs>
      <g transform="translate(140.119233 322.182437)scale(0.1 -0.1)">
       <use xlink:href="#DejaVuSans-30"/>
       <use x="63.623047" xlink:href="#DejaVuSans-2e"/>
       <use x="95.410156" xlink:href="#DejaVuSans-30"/>
       <use x="159.033203" xlink:href="#DejaVuSans-30"/>
       <use x="222.65625" xlink:href="#DejaVuSans-30"/>
       <use x="286.279297" xlink:href="#DejaVuSans-32"/>
      </g>
     </g>
    </g>
    <g id="xtick_4">
     <g id="line2d_4">
      <g>
       <use style="stroke:#000000;stroke-width:0.8;" x="199.505455" xlink:href="#mac8445f255" y="307.584"/>
      </g>
     </g>
     <g id="text_4">
      <!-- 0.0003 -->
      <defs>
       <path d="M 40.578125 39.3125 
Q 47.65625 37.796875 51.625 33 
Q 55.609375 28.21875 55.609375 21.1875 
Q 55.609375 10.40625 48.1875 4.484375 
Q 40.765625 -1.421875 27.09375 -1.421875 
Q 22.515625 -1.421875 17.65625 -0.515625 
Q 12.796875 0.390625 7.625 2.203125 
L 7.625 11.71875 
Q 11.71875 9.328125 16.59375 8.109375 
Q 21.484375 6.890625 26.8125 6.890625 
Q 36.078125 6.890625 40.9375 10.546875 
Q 45.796875 14.203125 45.796875 21.1875 
Q 45.796875 27.640625 41.28125 31.265625 
Q 36.765625 34.90625 28.71875 34.90625 
L 20.21875 34.90625 
L 20.21875 43.015625 
L 29.109375 43.015625 
Q 36.375 43.015625 40.234375 45.921875 
Q 44.09375 48.828125 44.09375 54.296875 
Q 44.09375 59.90625 40.109375 62.90625 
Q 36.140625 65.921875 28.71875 65.921875 
Q 24.65625 65.921875 20.015625 65.03125 
Q 15.375 64.15625 9.8125 62.3125 
L 9.8125 71.09375 
Q 15.4375 72.65625 20.34375 73.4375 
Q 25.25 74.21875 29.59375 74.21875 
Q 40.828125 74.21875 47.359375 69.109375 
Q 53.90625 64.015625 53.90625 55.328125 
Q 53.90625 49.265625 50.4375 45.09375 
Q 46.96875 40.921875 40.578125 39.3125 
z
" id="DejaVuSans-33"/>
      </defs>
      <g transform="translate(182.010142 322.182437)scale(0.1 -0.1)">
       <use xlink:href="#DejaVuSans-30"/>
       <use x="63.623047" xlink:href="#DejaVuSans-2e"/>
       <use x="95.410156" xlink:href="#DejaVuSans-30"/>
       <use x="159.033203" xlink:href="#DejaVuSans-30"/>
       <use x="222.65625" xlink:href="#DejaVuSans-30"/>
       <use x="286.279297" xlink:href="#DejaVuSans-33"/>
      </g>
     </g>
    </g>
    <g id="xtick_5">
     <g id="line2d_5">
      <g>
       <use style="stroke:#000000;stroke-width:0.8;" x="241.396364" xlink:href="#mac8445f255" y="307.584"/>
      </g>
     </g>
     <g id="text_5">
      <!-- 0.0004 -->
      <defs>
       <path d="M 37.796875 64.3125 
L 12.890625 25.390625 
L 37.796875 25.390625 
z
M 35.203125 72.90625 
L 47.609375 72.90625 
L 47.609375 25.390625 
L 58.015625 25.390625 
L 58.015625 17.1875 
L 47.609375 17.1875 
L 47.609375 0 
L 37.796875 0 
L 37.796875 17.1875 
L 4.890625 17.1875 
L 4.890625 26.703125 
z
" id="DejaVuSans-34"/>
      </defs>
      <g transform="translate(223.901051 322.182437)scale(0.1 -0.1)">
       <use xlink:href="#DejaVuSans-30"/>
       <use x="63.623047" xlink:href="#DejaVuSans-2e"/>
       <use x="95.410156" xlink:href="#DejaVuSans-30"/>
       <use x="159.033203" xlink:href="#DejaVuSans-30"/>
       <use x="222.65625" xlink:href="#DejaVuSans-30"/>
       <use x="286.279297" xlink:href="#DejaVuSans-34"/>
      </g>
     </g>
    </g>
    <g id="xtick_6">
     <g id="line2d_6">
      <g>
       <use style="stroke:#000000;stroke-width:0.8;" x="283.287273" xlink:href="#mac8445f255" y="307.584"/>
      </g>
     </g>
     <g id="text_6">
      <!-- 0.0005 -->
      <defs>
       <path d="M 10.796875 72.90625 
L 49.515625 72.90625 
L 49.515625 64.59375 
L 19.828125 64.59375 
L 19.828125 46.734375 
Q 21.96875 47.46875 24.109375 47.828125 
Q 26.265625 48.1875 28.421875 48.1875 
Q 40.625 48.1875 47.75 41.5 
Q 54.890625 34.8125 54.890625 23.390625 
Q 54.890625 11.625 47.5625 5.09375 
Q 40.234375 -1.421875 26.90625 -1.421875 
Q 22.3125 -1.421875 17.546875 -0.640625 
Q 12.796875 0.140625 7.71875 1.703125 
L 7.71875 11.625 
Q 12.109375 9.234375 16.796875 8.0625 
Q 21.484375 6.890625 26.703125 6.890625 
Q 35.15625 6.890625 40.078125 11.328125 
Q 45.015625 15.765625 45.015625 23.390625 
Q 45.015625 31 40.078125 35.4375 
Q 35.15625 39.890625 26.703125 39.890625 
Q 22.75 39.890625 18.8125 39.015625 
Q 14.890625 38.140625 10.796875 36.28125 
z
" id="DejaVuSans-35"/>
      </defs>
      <g transform="translate(265.79196 322.182437)scale(0.1 -0.1)">
       <use xlink:href="#DejaVuSans-30"/>
       <use x="63.623047" xlink:href="#DejaVuSans-2e"/>
       <use x="95.410156" xlink:href="#DejaVuSans-30"/>
       <use x="159.033203" xlink:href="#DejaVuSans-30"/>
       <use x="222.65625" xlink:href="#DejaVuSans-30"/>
       <use x="286.279297" xlink:href="#DejaVuSans-35"/>
      </g>
     </g>
    </g>
    <g id="xtick_7">
     <g id="line2d_7">
      <g>
       <use style="stroke:#000000;stroke-width:0.8;" x="325.178182" xlink:href="#mac8445f255" y="307.584"/>
      </g>
     </g>
     <g id="text_7">
      <!-- 0.0006 -->
      <defs>
       <path d="M 33.015625 40.375 
Q 26.375 40.375 22.484375 35.828125 
Q 18.609375 31.296875 18.609375 23.390625 
Q 18.609375 15.53125 22.484375 10.953125 
Q 26.375 6.390625 33.015625 6.390625 
Q 39.65625 6.390625 43.53125 10.953125 
Q 47.40625 15.53125 47.40625 23.390625 
Q 47.40625 31.296875 43.53125 35.828125 
Q 39.65625 40.375 33.015625 40.375 
z
M 52.59375 71.296875 
L 52.59375 62.3125 
Q 48.875 64.0625 45.09375 64.984375 
Q 41.3125 65.921875 37.59375 65.921875 
Q 27.828125 65.921875 22.671875 59.328125 
Q 17.53125 52.734375 16.796875 39.40625 
Q 19.671875 43.65625 24.015625 45.921875 
Q 28.375 48.1875 33.59375 48.1875 
Q 44.578125 48.1875 50.953125 41.515625 
Q 57.328125 34.859375 57.328125 23.390625 
Q 57.328125 12.15625 50.6875 5.359375 
Q 44.046875 -1.421875 33.015625 -1.421875 
Q 20.359375 -1.421875 13.671875 8.265625 
Q 6.984375 17.96875 6.984375 36.375 
Q 6.984375 53.65625 15.1875 63.9375 
Q 23.390625 74.21875 37.203125 74.21875 
Q 40.921875 74.21875 44.703125 73.484375 
Q 48.484375 72.75 52.59375 71.296875 
z
" id="DejaVuSans-36"/>
      </defs>
      <g transform="translate(307.682869 322.182437)scale(0.1 -0.1)">
       <use xlink:href="#DejaVuSans-30"/>
       <use x="63.623047" xlink:href="#DejaVuSans-2e"/>
       <use x="95.410156" xlink:href="#DejaVuSans-30"/>
       <use x="159.033203" xlink:href="#DejaVuSans-30"/>
       <use x="222.65625" xlink:href="#DejaVuSans-30"/>
       <use x="286.279297" xlink:href="#DejaVuSans-36"/>
      </g>
     </g>
    </g>
    <g id="xtick_8">
     <g id="line2d_8">
      <g>
       <use style="stroke:#000000;stroke-width:0.8;" x="367.069091" xlink:href="#mac8445f255" y="307.584"/>
      </g>
     </g>
     <g id="text_8">
      <!-- 0.0007 -->
      <defs>
       <path d="M 8.203125 72.90625 
L 55.078125 72.90625 
L 55.078125 68.703125 
L 28.609375 0 
L 18.3125 0 
L 43.21875 64.59375 
L 8.203125 64.59375 
z
" id="DejaVuSans-37"/>
      </defs>
      <g transform="translate(349.573778 322.182437)scale(0.1 -0.1)">
       <use xlink:href="#DejaVuSans-30"/>
       <use x="63.623047" xlink:href="#DejaVuSans-2e"/>
       <use x="95.410156" xlink:href="#DejaVuSans-30"/>
       <use x="159.033203" xlink:href="#DejaVuSans-30"/>
       <use x="222.65625" xlink:href="#DejaVuSans-30"/>
       <use x="286.279297" xlink:href="#DejaVuSans-37"/>
      </g>
     </g>
    </g>
    <g id="xtick_9">
     <g id="line2d_9">
      <g>
       <use style="stroke:#000000;stroke-width:0.8;" x="408.96" xlink:href="#mac8445f255" y="307.584"/>
      </g>
     </g>
     <g id="text_9">
      <!-- 0.0008 -->
      <defs>
       <path d="M 31.78125 34.625 
Q 24.75 34.625 20.71875 30.859375 
Q 16.703125 27.09375 16.703125 20.515625 
Q 16.703125 13.921875 20.71875 10.15625 
Q 24.75 6.390625 31.78125 6.390625 
Q 38.8125 6.390625 42.859375 10.171875 
Q 46.921875 13.96875 46.921875 20.515625 
Q 46.921875 27.09375 42.890625 30.859375 
Q 38.875 34.625 31.78125 34.625 
z
M 21.921875 38.8125 
Q 15.578125 40.375 12.03125 44.71875 
Q 8.5 49.078125 8.5 55.328125 
Q 8.5 64.0625 14.71875 69.140625 
Q 20.953125 74.21875 31.78125 74.21875 
Q 42.671875 74.21875 48.875 69.140625 
Q 55.078125 64.0625 55.078125 55.328125 
Q 55.078125 49.078125 51.53125 44.71875 
Q 48 40.375 41.703125 38.8125 
Q 48.828125 37.15625 52.796875 32.3125 
Q 56.78125 27.484375 56.78125 20.515625 
Q 56.78125 9.90625 50.3125 4.234375 
Q 43.84375 -1.421875 31.78125 -1.421875 
Q 19.734375 -1.421875 13.25 4.234375 
Q 6.78125 9.90625 6.78125 20.515625 
Q 6.78125 27.484375 10.78125 32.3125 
Q 14.796875 37.15625 21.921875 38.8125 
z
M 18.3125 54.390625 
Q 18.3125 48.734375 21.84375 45.5625 
Q 25.390625 42.390625 31.78125 42.390625 
Q 38.140625 42.390625 41.71875 45.5625 
Q 45.3125 48.734375 45.3125 54.390625 
Q 45.3125 60.0625 41.71875 63.234375 
Q 38.140625 66.40625 31.78125 66.40625 
Q 25.390625 66.40625 21.84375 63.234375 
Q 18.3125 60.0625 18.3125 54.390625 
z
" id="DejaVuSans-38"/>
      </defs>
      <g transform="translate(391.464687 322.182437)scale(0.1 -0.1)">
       <use xlink:href="#DejaVuSans-30"/>
       <use x="63.623047" xlink:href="#DejaVuSans-2e"/>
       <use x="95.410156" xlink:href="#DejaVuSans-30"/>
       <use x="159.033203" xlink:href="#DejaVuSans-30"/>
       <use x="222.65625" xlink:href="#DejaVuSans-30"/>
       <use x="286.279297" xlink:href="#DejaVuSans-38"/>
      </g>
     </g>
    </g>
    <g id="text_10">
     <!-- Time (s) -->
     <defs>
      <path d="M -0.296875 72.90625 
L 61.375 72.90625 
L 61.375 64.59375 
L 35.5 64.59375 
L 35.5 0 
L 25.59375 0 
L 25.59375 64.59375 
L -0.296875 64.59375 
z
" id="DejaVuSans-54"/>
      <path d="M 9.421875 54.6875 
L 18.40625 54.6875 
L 18.40625 0 
L 9.421875 0 
z
M 9.421875 75.984375 
L 18.40625 75.984375 
L 18.40625 64.59375 
L 9.421875 64.59375 
z
" id="DejaVuSans-69"/>
      <path d="M 52 44.1875 
Q 55.375 50.25 60.0625 53.125 
Q 64.75 56 71.09375 56 
Q 79.640625 56 84.28125 50.015625 
Q 88.921875 44.046875 88.921875 33.015625 
L 88.921875 0 
L 79.890625 0 
L 79.890625 32.71875 
Q 79.890625 40.578125 77.09375 44.375 
Q 74.3125 48.1875 68.609375 48.1875 
Q 61.625 48.1875 57.5625 43.546875 
Q 53.515625 38.921875 53.515625 30.90625 
L 53.515625 0 
L 44.484375 0 
L 44.484375 32.71875 
Q 44.484375 40.625 41.703125 44.40625 
Q 38.921875 48.1875 33.109375 48.1875 
Q 26.21875 48.1875 22.15625 43.53125 
Q 18.109375 38.875 18.109375 30.90625 
L 18.109375 0 
L 9.078125 0 
L 9.078125 54.6875 
L 18.109375 54.6875 
L 18.109375 46.1875 
Q 21.1875 51.21875 25.484375 53.609375 
Q 29.78125 56 35.6875 56 
Q 41.65625 56 45.828125 52.96875 
Q 50 49.953125 52 44.1875 
z
" id="DejaVuSans-6d"/>
      <path d="M 56.203125 29.59375 
L 56.203125 25.203125 
L 14.890625 25.203125 
Q 15.484375 15.921875 20.484375 11.0625 
Q 25.484375 6.203125 34.421875 6.203125 
Q 39.59375 6.203125 44.453125 7.46875 
Q 49.3125 8.734375 54.109375 11.28125 
L 54.109375 2.78125 
Q 49.265625 0.734375 44.1875 -0.34375 
Q 39.109375 -1.421875 33.890625 -1.421875 
Q 20.796875 -1.421875 13.15625 6.1875 
Q 5.515625 13.8125 5.515625 26.8125 
Q 5.515625 40.234375 12.765625 48.109375 
Q 20.015625 56 32.328125 56 
Q 43.359375 56 49.78125 48.890625 
Q 56.203125 41.796875 56.203125 29.59375 
z
M 47.21875 32.234375 
Q 47.125 39.59375 43.09375 43.984375 
Q 39.0625 48.390625 32.421875 48.390625 
Q 24.90625 48.390625 20.390625 44.140625 
Q 15.875 39.890625 15.1875 32.171875 
z
" id="DejaVuSans-65"/>
      <path id="DejaVuSans-20"/>
      <path d="M 31 75.875 
Q 24.46875 64.65625 21.28125 53.65625 
Q 18.109375 42.671875 18.109375 31.390625 
Q 18.109375 20.125 21.3125 9.0625 
Q 24.515625 -2 31 -13.1875 
L 23.1875 -13.1875 
Q 15.875 -1.703125 12.234375 9.375 
Q 8.59375 20.453125 8.59375 31.390625 
Q 8.59375 42.28125 12.203125 53.3125 
Q 15.828125 64.359375 23.1875 75.875 
z
" id="DejaVuSans-28"/>
      <path d="M 44.28125 53.078125 
L 44.28125 44.578125 
Q 40.484375 46.53125 36.375 47.5 
Q 32.28125 48.484375 27.875 48.484375 
Q 21.1875 48.484375 17.84375 46.4375 
Q 14.5 44.390625 14.5 40.28125 
Q 14.5 37.15625 16.890625 35.375 
Q 19.28125 33.59375 26.515625 31.984375 
L 29.59375 31.296875 
Q 39.15625 29.25 43.1875 25.515625 
Q 47.21875 21.78125 47.21875 15.09375 
Q 47.21875 7.46875 41.1875 3.015625 
Q 35.15625 -1.421875 24.609375 -1.421875 
Q 20.21875 -1.421875 15.453125 -0.5625 
Q 10.6875 0.296875 5.421875 2 
L 5.421875 11.28125 
Q 10.40625 8.6875 15.234375 7.390625 
Q 20.0625 6.109375 24.8125 6.109375 
Q 31.15625 6.109375 34.5625 8.28125 
Q 37.984375 10.453125 37.984375 14.40625 
Q 37.984375 18.0625 35.515625 20.015625 
Q 33.0625 21.96875 24.703125 23.78125 
L 21.578125 24.515625 
Q 13.234375 26.265625 9.515625 29.90625 
Q 5.8125 33.546875 5.8125 39.890625 
Q 5.8125 47.609375 11.28125 51.796875 
Q 16.75 56 26.8125 56 
Q 31.78125 56 36.171875 55.265625 
Q 40.578125 54.546875 44.28125 53.078125 
z
" id="DejaVuSans-73"/>
      <path d="M 8.015625 75.875 
L 15.828125 75.875 
Q 23.140625 64.359375 26.78125 53.3125 
Q 30.421875 42.28125 30.421875 31.390625 
Q 30.421875 20.453125 26.78125 9.375 
Q 23.140625 -1.703125 15.828125 -13.1875 
L 8.015625 -13.1875 
Q 14.5 -2 17.703125 9.0625 
Q 20.90625 20.125 20.90625 31.390625 
Q 20.90625 42.671875 17.703125 53.65625 
Q 14.5 64.65625 8.015625 75.875 
z
" id="DejaVuSans-29"/>
     </defs>
     <g transform="translate(215.677188 335.860562)scale(0.1 -0.1)">
      <use xlink:href="#DejaVuSans-54"/>
      <use x="61.037109" xlink:href="#DejaVuSans-69"/>
      <use x="88.820312" xlink:href="#DejaVuSans-6d"/>
      <use x="186.232422" xlink:href="#DejaVuSans-65"/>
      <use x="247.755859" xlink:href="#DejaVuSans-20"/>
      <use x="279.542969" xlink:href="#DejaVuSans-28"/>
      <use x="318.556641" xlink:href="#DejaVuSans-73"/>
      <use x="370.65625" xlink:href="#DejaVuSans-29"/>
     </g>
    </g>
   </g>
   <g id="matplotlib.axis_2">
    <g id="ytick_1">
     <g id="line2d_10">
      <defs>
       <path d="M 0 0 
L -3.5 0 
" id="mcd84c2cf15" style="stroke:#000000;stroke-width:0.8;"/>
      </defs>
      <g>
       <use style="stroke:#000000;stroke-width:0.8;" x="57.6" xlink:href="#mcd84c2cf15" y="307.584"/>
      </g>
     </g>
     <g id="text_11">
      <!-- −50 -->
      <defs>
       <path d="M 10.59375 35.5 
L 73.1875 35.5 
L 73.1875 27.203125 
L 10.59375 27.203125 
z
" id="DejaVuSans-2212"/>
      </defs>
      <g transform="translate(29.495313 311.383219)scale(0.1 -0.1)">
       <use xlink:href="#DejaVuSans-2212"/>
       <use x="83.789062" xlink:href="#DejaVuSans-35"/>
       <use x="147.412109" xlink:href="#DejaVuSans-30"/>
      </g>
     </g>
    </g>
    <g id="ytick_2">
     <g id="line2d_11">
      <g>
       <use style="stroke:#000000;stroke-width:0.8;" x="57.6" xlink:href="#mcd84c2cf15" y="274.32"/>
      </g>
     </g>
     <g id="text_12">
      <!-- −40 -->
      <g transform="translate(29.495313 278.119219)scale(0.1 -0.1)">
       <use xlink:href="#DejaVuSans-2212"/>
       <use x="83.789062" xlink:href="#DejaVuSans-34"/>
       <use x="147.412109" xlink:href="#DejaVuSans-30"/>
      </g>
     </g>
    </g>
    <g id="ytick_3">
     <g id="line2d_12">
      <g>
       <use style="stroke:#000000;stroke-width:0.8;" x="57.6" xlink:href="#mcd84c2cf15" y="241.056"/>
      </g>
     </g>
     <g id="text_13">
      <!-- −30 -->
      <g transform="translate(29.495313 244.855219)scale(0.1 -0.1)">
       <use xlink:href="#DejaVuSans-2212"/>
       <use x="83.789062" xlink:href="#DejaVuSans-33"/>
       <use x="147.412109" xlink:href="#DejaVuSans-30"/>
      </g>
     </g>
    </g>
    <g id="ytick_4">
     <g id="line2d_13">
      <g>
       <use style="stroke:#000000;stroke-width:0.8;" x="57.6" xlink:href="#mcd84c2cf15" y="207.792"/>
      </g>
     </g>
     <g id="text_14">
      <!-- −20 -->
      <g transform="translate(29.495313 211.591219)scale(0.1 -0.1)">
       <use xlink:href="#DejaVuSans-2212"/>
       <use x="83.789062" xlink:href="#DejaVuSans-32"/>
       <use x="147.412109" xlink:href="#DejaVuSans-30"/>
      </g>
     </g>
    </g>
    <g id="ytick_5">
     <g id="line2d_14">
      <g>
       <use style="stroke:#000000;stroke-width:0.8;" x="57.6" xlink:href="#mcd84c2cf15" y="174.528"/>
      </g>
     </g>
     <g id="text_15">
      <!-- −10 -->
      <g transform="translate(29.495313 178.327219)scale(0.1 -0.1)">
       <use xlink:href="#DejaVuSans-2212"/>
       <use x="83.789062" xlink:href="#DejaVuSans-31"/>
       <use x="147.412109" xlink:href="#DejaVuSans-30"/>
      </g>
     </g>
    </g>
    <g id="ytick_6">
     <g id="line2d_15">
      <g>
       <use style="stroke:#000000;stroke-width:0.8;" x="57.6" xlink:href="#mcd84c2cf15" y="141.264"/>
      </g>
     </g>
     <g id="text_16">
      <!-- 0 -->
      <g transform="translate(44.2375 145.063219)scale(0.1 -0.1)">
       <use xlink:href="#DejaVuSans-30"/>
      </g>
     </g>
    </g>
    <g id="ytick_7">
     <g id="line2d_16">
      <g>
       <use style="stroke:#000000;stroke-width:0.8;" x="57.6" xlink:href="#mcd84c2cf15" y="108"/>
      </g>
     </g>
     <g id="text_17">
      <!-- 10 -->
      <g transform="translate(37.875 111.799219)scale(0.1 -0.1)">
       <use xlink:href="#DejaVuSans-31"/>
       <use x="63.623047" xlink:href="#DejaVuSans-30"/>
      </g>
     </g>
    </g>
    <g id="ytick_8">
     <g id="line2d_17">
      <g>
       <use style="stroke:#000000;stroke-width:0.8;" x="57.6" xlink:href="#mcd84c2cf15" y="74.736"/>
      </g>
     </g>
     <g id="text_18">
      <!-- 20 -->
      <g transform="translate(37.875 78.535219)scale(0.1 -0.1)">
       <use xlink:href="#DejaVuSans-32"/>
       <use x="63.623047" xlink:href="#DejaVuSans-30"/>
      </g>
     </g>
    </g>
    <g id="ytick_9">
     <g id="line2d_18">
      <g>
       <use style="stroke:#000000;stroke-width:0.8;" x="57.6" xlink:href="#mcd84c2cf15" y="41.472"/>
      </g>
     </g>
     <g id="text_19">
      <!-- 30 -->
      <g transform="translate(37.875 45.271219)scale(0.1 -0.1)">
       <use xlink:href="#DejaVuSans-33"/>
       <use x="63.623047" xlink:href="#DejaVuSans-30"/>
      </g>
     </g>
    </g>
    <g id="text_20">
     <!-- Voltage ($\mu$V) -->
     <defs>
      <path d="M 28.609375 0 
L 0.78125 72.90625 
L 11.078125 72.90625 
L 34.1875 11.53125 
L 57.328125 72.90625 
L 67.578125 72.90625 
L 39.796875 0 
z
" id="DejaVuSans-56"/>
      <path d="M 30.609375 48.390625 
Q 23.390625 48.390625 19.1875 42.75 
Q 14.984375 37.109375 14.984375 27.296875 
Q 14.984375 17.484375 19.15625 11.84375 
Q 23.34375 6.203125 30.609375 6.203125 
Q 37.796875 6.203125 41.984375 11.859375 
Q 46.1875 17.53125 46.1875 27.296875 
Q 46.1875 37.015625 41.984375 42.703125 
Q 37.796875 48.390625 30.609375 48.390625 
z
M 30.609375 56 
Q 42.328125 56 49.015625 48.375 
Q 55.71875 40.765625 55.71875 27.296875 
Q 55.71875 13.875 49.015625 6.21875 
Q 42.328125 -1.421875 30.609375 -1.421875 
Q 18.84375 -1.421875 12.171875 6.21875 
Q 5.515625 13.875 5.515625 27.296875 
Q 5.515625 40.765625 12.171875 48.375 
Q 18.84375 56 30.609375 56 
z
" id="DejaVuSans-6f"/>
      <path d="M 9.421875 75.984375 
L 18.40625 75.984375 
L 18.40625 0 
L 9.421875 0 
z
" id="DejaVuSans-6c"/>
      <path d="M 18.3125 70.21875 
L 18.3125 54.6875 
L 36.8125 54.6875 
L 36.8125 47.703125 
L 18.3125 47.703125 
L 18.3125 18.015625 
Q 18.3125 11.328125 20.140625 9.421875 
Q 21.96875 7.515625 27.59375 7.515625 
L 36.8125 7.515625 
L 36.8125 0 
L 27.59375 0 
Q 17.1875 0 13.234375 3.875 
Q 9.28125 7.765625 9.28125 18.015625 
L 9.28125 47.703125 
L 2.6875 47.703125 
L 2.6875 54.6875 
L 9.28125 54.6875 
L 9.28125 70.21875 
z
" id="DejaVuSans-74"/>
      <path d="M 34.28125 27.484375 
Q 23.390625 27.484375 19.1875 25 
Q 14.984375 22.515625 14.984375 16.5 
Q 14.984375 11.71875 18.140625 8.90625 
Q 21.296875 6.109375 26.703125 6.109375 
Q 34.1875 6.109375 38.703125 11.40625 
Q 43.21875 16.703125 43.21875 25.484375 
L 43.21875 27.484375 
z
M 52.203125 31.203125 
L 52.203125 0 
L 43.21875 0 
L 43.21875 8.296875 
Q 40.140625 3.328125 35.546875 0.953125 
Q 30.953125 -1.421875 24.3125 -1.421875 
Q 15.921875 -1.421875 10.953125 3.296875 
Q 6 8.015625 6 15.921875 
Q 6 25.140625 12.171875 29.828125 
Q 18.359375 34.515625 30.609375 34.515625 
L 43.21875 34.515625 
L 43.21875 35.40625 
Q 43.21875 41.609375 39.140625 45 
Q 35.0625 48.390625 27.6875 48.390625 
Q 23 48.390625 18.546875 47.265625 
Q 14.109375 46.140625 10.015625 43.890625 
L 10.015625 52.203125 
Q 14.9375 54.109375 19.578125 55.046875 
Q 24.21875 56 28.609375 56 
Q 40.484375 56 46.34375 49.84375 
Q 52.203125 43.703125 52.203125 31.203125 
z
" id="DejaVuSans-61"/>
      <path d="M 45.40625 27.984375 
Q 45.40625 37.75 41.375 43.109375 
Q 37.359375 48.484375 30.078125 48.484375 
Q 22.859375 48.484375 18.828125 43.109375 
Q 14.796875 37.75 14.796875 27.984375 
Q 14.796875 18.265625 18.828125 12.890625 
Q 22.859375 7.515625 30.078125 7.515625 
Q 37.359375 7.515625 41.375 12.890625 
Q 45.40625 18.265625 45.40625 27.984375 
z
M 54.390625 6.78125 
Q 54.390625 -7.171875 48.1875 -13.984375 
Q 42 -20.796875 29.203125 -20.796875 
Q 24.46875 -20.796875 20.265625 -20.09375 
Q 16.0625 -19.390625 12.109375 -17.921875 
L 12.109375 -9.1875 
Q 16.0625 -11.328125 19.921875 -12.34375 
Q 23.78125 -13.375 27.78125 -13.375 
Q 36.625 -13.375 41.015625 -8.765625 
Q 45.40625 -4.15625 45.40625 5.171875 
L 45.40625 9.625 
Q 42.625 4.78125 38.28125 2.390625 
Q 33.9375 0 27.875 0 
Q 17.828125 0 11.671875 7.65625 
Q 5.515625 15.328125 5.515625 27.984375 
Q 5.515625 40.671875 11.671875 48.328125 
Q 17.828125 56 27.875 56 
Q 33.9375 56 38.28125 53.609375 
Q 42.625 51.21875 45.40625 46.390625 
L 45.40625 54.6875 
L 54.390625 54.6875 
z
" id="DejaVuSans-67"/>
      <path d="M -1.3125 -20.796875 
L 13.375 54.6875 
L 22.40625 54.6875 
L 15.765625 20.65625 
Q 15.578125 19.625 15.421875 18.359375 
Q 15.28125 17.09375 15.28125 15.828125 
Q 15.28125 11.28125 18.140625 8.828125 
Q 21 6.390625 26.3125 6.390625 
Q 33.546875 6.390625 37.984375 10.484375 
Q 42.4375 14.59375 44 22.796875 
L 50.203125 54.6875 
L 59.1875 54.6875 
L 51.03125 12.640625 
Q 50.828125 11.71875 50.75 11.03125 
Q 50.6875 10.359375 50.6875 9.8125 
Q 50.6875 8.296875 51.296875 7.59375 
Q 51.90625 6.890625 53.21875 6.890625 
Q 53.71875 6.890625 54.5625 7.125 
Q 55.421875 7.375 56.984375 8.015625 
L 55.609375 0.78125 
Q 53.46875 -0.296875 51.515625 -0.859375 
Q 49.5625 -1.421875 47.703125 -1.421875 
Q 44.484375 -1.421875 42.65625 0.625 
Q 40.828125 2.6875 40.828125 6.296875 
Q 38.09375 2.390625 34.296875 0.484375 
Q 30.515625 -1.421875 25.390625 -1.421875 
Q 20.84375 -1.421875 17.453125 0.671875 
Q 14.0625 2.78125 12.984375 6.203125 
L 7.71875 -20.796875 
z
" id="DejaVuSans-Oblique-3bc"/>
     </defs>
     <g transform="translate(23.395312 205.778)rotate(-90)scale(0.1 -0.1)">
      <use transform="translate(0 0.015625)" xlink:href="#DejaVuSans-56"/>
      <use transform="translate(68.408203 0.015625)" xlink:href="#DejaVuSans-6f"/>
      <use transform="translate(129.589844 0.015625)" xlink:href="#DejaVuSans-6c"/>
      <use transform="translate(157.373047 0.015625)" xlink:href="#DejaVuSans-74"/>
      <use transform="translate(196.582031 0.015625)" xlink:href="#DejaVuSans-61"/>
      <use transform="translate(257.861328 0.015625)" xlink:href="#DejaVuSans-67"/>
      <use transform="translate(321.337891 0.015625)" xlink:href="#DejaVuSans-65"/>
      <use transform="translate(382.861328 0.015625)" xlink:href="#DejaVuSans-20"/>
      <use transform="translate(414.648438 0.015625)" xlink:href="#DejaVuSans-28"/>
      <use transform="translate(453.662109 0.015625)" xlink:href="#DejaVuSans-Oblique-3bc"/>
      <use transform="translate(517.285156 0.015625)" xlink:href="#DejaVuSans-56"/>
      <use transform="translate(585.693359 0.015625)" xlink:href="#DejaVuSans-29"/>
     </g>
    </g>
   </g>
   <g id="line2d_19">
    <path clip-path="url(#pe2f3ca8fb6)" d="M 73.832727 156.923855 
L 84.305455 160.684087 
L 94.778182 165.318879 
L 105.250909 170.862171 
L 115.723636 177.564295 
L 126.196364 187.843677 
L 136.669091 204.991714 
L 147.141818 227.622584 
L 157.614545 247.506204 
L 168.087273 256.215198 
L 178.56 253.194284 
L 189.032727 245.178996 
L 199.505455 238.206391 
L 209.978182 232.675827 
L 220.450909 226.01242 
L 230.923636 217.369189 
L 241.396364 208.121882 
L 251.869091 199.439936 
L 262.341818 191.131361 
L 272.814545 182.785661 
L 283.287273 174.695062 
L 293.76 167.261046 
L 304.232727 160.438002 
L 314.705455 154.043486 
L 325.178182 148.016507 
L 335.650909 142.503445 
L 346.123636 137.491039 
L 356.596364 132.483937 
L 367.069091 127.05255 
L 377.541818 121.703368 
L 388.014545 117.287084 
L 398.487273 113.928332 
" style="fill:none;stroke:#000000;stroke-linecap:square;stroke-width:1.5;"/>
   </g>
   <g id="line2d_20">
    <path clip-path="url(#pe2f3ca8fb6)" d="M 73.832727 183.2598 
L 84.305455 204.4656 
L 94.778182 217.1475 
L 105.250909 215.58825 
L 115.723636 204.56955 
L 126.196364 197.91675 
L 136.669091 205.2972 
L 147.141818 224.424 
L 157.614545 245.11005 
L 168.087273 258.5196 
L 178.56 261.94995 
L 189.032727 255.29715 
L 199.505455 242.3034 
L 209.978182 229.10175 
L 220.450909 220.78575 
L 230.923636 217.1475 
L 241.396364 210.39075 
L 251.869091 195.83775 
L 262.341818 179.20575 
L 272.814545 170.37 
L 283.287273 171.2016 
L 293.76 174.21615 
L 304.232727 170.9937 
L 314.705455 160.1829 
L 325.178182 145.8378 
L 335.650909 131.9085 
L 346.123636 119.74635 
L 356.596364 109.0395 
L 367.069091 102.1788 
L 377.541818 100.61955 
L 388.014545 101.763 
L 398.487273 104.36175 
" style="fill:none;stroke:#ff0000;stroke-linecap:square;stroke-width:1.5;"/>
   </g>
   <g id="line2d_21">
    <path clip-path="url(#pe2f3ca8fb6)" d="M 73.832727 108.31185 
L 84.305455 146.8773 
L 94.778182 180.9729 
L 105.250909 196.04565 
L 115.723636 188.8731 
L 126.196364 178.686 
L 136.669091 186.27435 
L 147.141818 213.09345 
L 157.614545 243.7587 
L 168.087273 264.65265 
L 178.56 270.9936 
L 189.032727 267.35535 
L 199.505455 262.4697 
L 209.978182 257.58405 
L 220.450909 249.1641 
L 230.923636 239.6007 
L 241.396364 233.7795 
L 251.869091 232.9479 
L 262.341818 235.13085 
L 272.814545 236.37825 
L 283.287273 229.10175 
L 293.76 211.84605 
L 304.232727 195.9417 
L 314.705455 193.6548 
L 325.178182 202.1787 
L 335.650909 207.1683 
L 346.123636 201.45105 
L 356.596364 187.002 
L 367.069091 168.4989 
L 377.541818 155.4012 
L 388.014545 156.4407 
L 398.487273 170.1621 
" style="fill:none;stroke:#ff1e00;stroke-linecap:square;stroke-width:1.5;"/>
   </g>
   <g id="line2d_22">
    <path clip-path="url(#pe2f3ca8fb6)" d="M 73.832727 214.13295 
L 84.305455 215.6922 
L 94.778182 203.4261 
L 105.250909 194.38245 
L 115.723636 193.34295 
L 126.196364 198.8523 
L 136.669091 213.09345 
L 147.141818 231.80445 
L 157.614545 241.78365 
L 168.087273 237.9375 
L 178.56 232.01235 
L 189.032727 234.1953 
L 199.505455 238.45725 
L 209.978182 235.54665 
L 220.450909 228.9978 
L 230.923636 227.3346 
L 241.396364 227.64645 
L 251.869091 215.4843 
L 262.341818 182.4282 
L 272.814545 143.23905 
L 283.287273 122.9688 
L 293.76 130.97295 
L 304.232727 153.9459 
L 314.705455 172.13715 
L 325.178182 178.58205 
L 335.650909 177.95835 
L 346.123636 173.6964 
L 356.596364 167.2515 
L 367.069091 161.53425 
L 377.541818 158.1039 
L 388.014545 154.88145 
L 398.487273 142.82325 
" style="fill:none;stroke:#ff3b00;stroke-linecap:square;stroke-width:1.5;"/>
   </g>
   <g id="line2d_23">
    <path clip-path="url(#pe2f3ca8fb6)" d="M 73.832727 109.76715 
L 84.305455 124.4241 
L 94.778182 140.53635 
L 105.250909 151.659 
L 115.723636 159.1434 
L 126.196364 169.64235 
L 136.669091 187.93755 
L 147.141818 215.79615 
L 157.614545 252.2826 
L 168.087273 286.48215 
L 178.56 296.25345 
L 189.032727 276.29505 
L 199.505455 249.89175 
L 209.978182 240.8481 
L 220.450909 247.5009 
L 230.923636 254.04975 
L 241.396364 252.4905 
L 251.869091 244.5903 
L 262.341818 232.22025 
L 272.814545 213.71715 
L 283.287273 187.002 
L 293.76 159.45525 
L 304.232727 143.343 
L 314.705455 138.9771 
L 325.178182 139.6008 
L 335.650909 144.48645 
L 346.123636 150.30765 
L 356.596364 148.22865 
L 367.069091 135.75465 
L 377.541818 121.61745 
L 388.014545 115.0686 
L 398.487273 112.9896 
" style="fill:none;stroke:#ff5900;stroke-linecap:square;stroke-width:1.5;"/>
   </g>
   <g id="line2d_24">
    <path clip-path="url(#pe2f3ca8fb6)" d="M 73.832727 139.70475 
L 84.305455 147.60495 
L 94.778182 158.5197 
L 105.250909 167.56335 
L 115.723636 170.88975 
L 126.196364 170.26605 
L 136.669091 177.8544 
L 147.141818 205.713 
L 157.614545 245.8377 
L 168.087273 275.1516 
L 178.56 281.90835 
L 189.032727 272.0331 
L 199.505455 259.03935 
L 209.978182 250.93125 
L 220.450909 242.82315 
L 230.923636 228.582 
L 241.396364 206.85645 
L 251.869091 178.16625 
L 262.341818 148.64445 
L 272.814545 126.81495 
L 283.287273 113.71725 
L 293.76 109.14345 
L 304.232727 119.12265 
L 314.705455 143.1351 
L 325.178182 167.35545 
L 335.650909 179.1018 
L 346.123636 176.3991 
L 356.596364 169.01865 
L 367.069091 165.27645 
L 377.541818 162.4698 
L 388.014545 153.3222 
L 398.487273 137.7297 
" style="fill:none;stroke:#ff7600;stroke-linecap:square;stroke-width:1.5;"/>
   </g>
   <g id="line2d_25">
    <path clip-path="url(#pe2f3ca8fb6)" d="M 73.832727 133.3638 
L 84.305455 129.4137 
L 94.778182 126.2952 
L 105.250909 132.22035 
L 115.723636 149.3721 
L 126.196364 173.4885 
L 136.669091 199.37205 
L 147.141818 224.8398 
L 157.614545 247.5009 
L 168.087273 261.0144 
L 178.56 259.1433 
L 189.032727 244.5903 
L 199.505455 230.55705 
L 209.978182 225.8793 
L 220.450909 225.98325 
L 230.923636 221.40945 
L 241.396364 211.3263 
L 251.869091 204.0498 
L 262.341818 203.8419 
L 272.814545 206.64855 
L 283.287273 205.5051 
L 293.76 198.74835 
L 304.232727 185.65065 
L 314.705455 166.93965 
L 325.178182 153.3222 
L 335.650909 155.4012 
L 346.123636 166.52385 
L 356.596364 171.6174 
L 367.069091 163.9251 
L 377.541818 146.6694 
L 388.014545 127.9584 
L 398.487273 118.29105 
" style="fill:none;stroke:#ff9400;stroke-linecap:square;stroke-width:1.5;"/>
   </g>
   <g id="line2d_26">
    <path clip-path="url(#pe2f3ca8fb6)" d="M 73.832727 212.1579 
L 84.305455 226.81485 
L 94.778182 227.3346 
L 105.250909 219.2265 
L 115.723636 209.2473 
L 126.196364 207.89595 
L 136.669091 220.266 
L 147.141818 235.96245 
L 157.614545 240.53625 
L 168.087273 230.97285 
L 178.56 219.53835 
L 189.032727 219.53835 
L 199.505455 227.43855 
L 209.978182 226.9188 
L 220.450909 210.59865 
L 230.923636 189.081 
L 241.396364 177.75045 
L 251.869091 176.29515 
L 262.341818 173.59245 
L 272.814545 165.06855 
L 283.287273 156.8565 
L 293.76 157.896 
L 304.232727 163.9251 
L 314.705455 162.6777 
L 325.178182 151.4511 
L 335.650909 137.41785 
L 346.123636 124.52805 
L 356.596364 107.7921 
L 367.069091 81.90855 
L 377.541818 51.867 
L 388.014545 32.3244 
L 398.487273 35.33895 
" style="fill:none;stroke:#ffb100;stroke-linecap:square;stroke-width:1.5;"/>
   </g>
   <g id="line2d_27">
    <path clip-path="url(#pe2f3ca8fb6)" d="M 73.832727 183.6756 
L 84.305455 193.55085 
L 94.778182 196.1496 
L 105.250909 196.87725 
L 115.723636 200.3076 
L 126.196364 203.11425 
L 136.669091 207.06435 
L 147.141818 221.9292 
L 157.614545 248.02065 
L 168.087273 265.90005 
L 178.56 259.9749 
L 189.032727 238.45725 
L 199.505455 218.8107 
L 209.978182 209.2473 
L 220.450909 207.1683 
L 230.923636 205.713 
L 241.396364 199.78785 
L 251.869091 189.18495 
L 262.341818 177.75045 
L 272.814545 171.09765 
L 283.287273 169.64235 
L 293.76 167.77125 
L 304.232727 162.98955 
L 314.705455 157.0644 
L 325.178182 149.7879 
L 335.650909 144.27855 
L 346.123636 145.52595 
L 356.596364 152.4906 
L 367.069091 158.1039 
L 377.541818 151.659 
L 388.014545 134.4033 
L 398.487273 123.07275 
" style="fill:none;stroke:#ffcf00;stroke-linecap:square;stroke-width:1.5;"/>
   </g>
   <g id="line2d_28">
    <path clip-path="url(#pe2f3ca8fb6)" d="M 73.832727 135.8586 
L 84.305455 130.0374 
L 94.778182 146.8773 
L 105.250909 171.72135 
L 115.723636 188.8731 
L 126.196364 200.61945 
L 136.669091 214.96455 
L 147.141818 230.14125 
L 157.614545 240.32835 
L 168.087273 245.73375 
L 178.56 246.77325 
L 189.032727 240.12045 
L 199.505455 227.43855 
L 209.978182 215.58825 
L 220.450909 207.89595 
L 230.923636 201.7629 
L 241.396364 193.239 
L 251.869091 186.06645 
L 262.341818 186.1704 
L 272.814545 190.7442 
L 283.287273 193.6548 
L 293.76 191.9916 
L 304.232727 186.5862 
L 314.705455 180.1413 
L 325.178182 173.9043 
L 335.650909 163.19745 
L 346.123636 143.1351 
L 356.596364 115.79625 
L 367.069091 92.09565 
L 377.541818 85.3389 
L 388.014545 96.9813 
L 398.487273 113.1975 
" style="fill:none;stroke:#ffec00;stroke-linecap:square;stroke-width:1.5;"/>
   </g>
   <g id="line2d_29">
    <path clip-path="url(#pe2f3ca8fb6)" d="M 73.832727 136.37835 
L 84.305455 145.52595 
L 94.778182 161.6382 
L 105.250909 177.33465 
L 115.723636 187.002 
L 126.196364 198.12465 
L 136.669091 217.45935 
L 147.141818 239.1849 
L 157.614545 253.7379 
L 168.087273 255.1932 
L 178.56 241.6797 
L 189.032727 222.03315 
L 199.505455 209.4552 
L 209.978182 206.85645 
L 220.450909 205.5051 
L 230.923636 198.74835 
L 241.396364 188.76915 
L 251.869091 180.765 
L 262.341818 173.6964 
L 272.814545 162.98955 
L 283.287273 150.4116 
L 293.76 143.65485 
L 304.232727 146.35755 
L 314.705455 153.63405 
L 325.178182 160.3908 
L 335.650909 165.1725 
L 346.123636 167.0436 
L 356.596364 164.9646 
L 367.069091 158.20785 
L 377.541818 150.6195 
L 388.014545 148.7484 
L 398.487273 152.0748 
" style="fill:none;stroke:#eeff00;stroke-linecap:square;stroke-width:1.5;"/>
   </g>
   <g id="line2d_30">
    <path clip-path="url(#pe2f3ca8fb6)" d="M 73.832727 171.6174 
L 84.305455 163.82115 
L 94.778182 167.4594 
L 105.250909 175.25565 
L 115.723636 178.8939 
L 126.196364 181.07685 
L 136.669091 191.88765 
L 147.141818 215.58825 
L 157.614545 243.86265 
L 168.087273 261.2223 
L 178.56 256.4406 
L 189.032727 236.37825 
L 199.505455 217.9791 
L 209.978182 208.93545 
L 220.450909 203.4261 
L 230.923636 196.87725 
L 241.396364 191.47185 
L 251.869091 191.67975 
L 262.341818 197.1891 
L 272.814545 198.33255 
L 283.287273 187.93755 
L 293.76 171.09765 
L 304.232727 156.2328 
L 314.705455 147.7089 
L 325.178182 146.0457 
L 335.650909 153.9459 
L 346.123636 167.77125 
L 356.596364 174.21615 
L 367.069091 166.31595 
L 377.541818 155.4012 
L 388.014545 156.96045 
L 398.487273 167.97915 
" style="fill:none;stroke:#d1ff00;stroke-linecap:square;stroke-width:1.5;"/>
   </g>
   <g id="line2d_31">
    <path clip-path="url(#pe2f3ca8fb6)" d="M 73.832727 173.6964 
L 84.305455 177.8544 
L 94.778182 176.8149 
L 105.250909 171.2016 
L 115.723636 168.18705 
L 126.196364 178.16625 
L 136.669091 204.36165 
L 147.141818 238.1454 
L 157.614545 262.78155 
L 168.087273 265.48425 
L 178.56 251.8668 
L 189.032727 240.4323 
L 199.505455 237.1059 
L 209.978182 228.47805 
L 220.450909 204.98535 
L 230.923636 176.1912 
L 241.396364 154.46565 
L 251.869091 137.9376 
L 262.341818 121.82535 
L 272.814545 107.7921 
L 283.287273 96.87735 
L 293.76 88.35345 
L 304.232727 85.3389 
L 314.705455 88.76925 
L 325.178182 99.78795 
L 335.650909 120.16215 
L 346.123636 145.94175 
L 356.596364 164.02905 
L 367.069091 166.6278 
L 377.541818 160.3908 
L 388.014545 158.3118 
L 398.487273 164.65275 
" style="fill:none;stroke:#b3ff00;stroke-linecap:square;stroke-width:1.5;"/>
   </g>
   <g id="line2d_32">
    <path clip-path="url(#pe2f3ca8fb6)" d="M 73.832727 79.3098 
L 84.305455 101.03535 
L 94.778182 134.6112 
L 105.250909 170.05815 
L 115.723636 196.5654 
L 126.196364 211.5342 
L 136.669091 222.03315 
L 147.141818 235.75455 
L 157.614545 248.1246 
L 168.087273 248.02065 
L 178.56 234.92295 
L 189.032727 219.6423 
L 199.505455 209.871 
L 209.978182 206.3367 
L 220.450909 200.82735 
L 230.923636 186.3783 
L 241.396364 167.56335 
L 251.869091 154.9854 
L 262.341818 150.6195 
L 272.814545 146.2536 
L 283.287273 135.8586 
L 293.76 125.4636 
L 304.232727 123.1767 
L 314.705455 124.4241 
L 325.178182 121.5135 
L 335.650909 116.9397 
L 346.123636 116.7318 
L 356.596364 117.5634 
L 367.069091 112.88565 
L 377.541818 104.98545 
L 388.014545 103.11435 
L 398.487273 114.0291 
" style="fill:none;stroke:#96ff00;stroke-linecap:square;stroke-width:1.5;"/>
   </g>
   <g id="line2d_33">
    <path clip-path="url(#pe2f3ca8fb6)" d="M 73.832727 138.7692 
L 84.305455 134.4033 
L 94.778182 136.2744 
L 105.250909 141.78375 
L 115.723636 143.86275 
L 126.196364 147.0852 
L 136.669091 166.10805 
L 147.141818 202.3866 
L 157.614545 240.0165 
L 168.087273 262.78155 
L 178.56 267.6672 
L 189.032727 261.846 
L 199.505455 253.1142 
L 209.978182 243.86265 
L 220.450909 238.45725 
L 230.923636 238.45725 
L 241.396364 235.2348 
L 251.869091 216.7317 
L 262.341818 182.11635 
L 272.814545 146.8773 
L 283.287273 128.3742 
L 293.76 125.0478 
L 304.232727 120.8898 
L 314.705455 107.89605 
L 325.178182 91.05615 
L 335.650909 76.08735 
L 346.123636 65.06865 
L 356.596364 60.70275 
L 367.069091 59.7672 
L 377.541818 53.21835 
L 388.014545 40.2246 
L 398.487273 29.51775 
" style="fill:none;stroke:#78ff00;stroke-linecap:square;stroke-width:1.5;"/>
   </g>
   <g id="line2d_34">
    <path clip-path="url(#pe2f3ca8fb6)" d="M 73.832727 163.9251 
L 84.305455 164.7567 
L 94.778182 165.06855 
L 105.250909 163.61325 
L 115.723636 166.31595 
L 126.196364 179.5176 
L 136.669091 204.15375 
L 147.141818 233.67555 
L 157.614545 257.16825 
L 168.087273 265.7961 
L 178.56 262.2618 
L 189.032727 261.0144 
L 199.505455 269.85015 
L 209.978182 278.99775 
L 220.450909 275.25555 
L 230.923636 259.03935 
L 241.396364 237.7296 
L 251.869091 216.5238 
L 262.341818 201.03525 
L 272.814545 193.0311 
L 283.287273 183.6756 
L 293.76 164.9646 
L 304.232727 141.4719 
L 314.705455 124.94385 
L 325.178182 117.45945 
L 335.650909 111.7422 
L 346.123636 105.2973 
L 356.596364 102.1788 
L 367.069091 104.6736 
L 377.541818 111.84615 
L 388.014545 120.16215 
L 398.487273 121.9293 
" style="fill:none;stroke:#5bff00;stroke-linecap:square;stroke-width:1.5;"/>
   </g>
   <g id="line2d_35">
    <path clip-path="url(#pe2f3ca8fb6)" d="M 73.832727 165.3804 
L 84.305455 170.05815 
L 94.778182 172.96875 
L 105.250909 169.1226 
L 115.723636 162.98955 
L 126.196364 170.05815 
L 136.669091 199.2681 
L 147.141818 235.4427 
L 157.614545 254.3616 
L 168.087273 249.89175 
L 178.56 237.20985 
L 189.032727 233.25975 
L 199.505455 241.2639 
L 209.978182 250.4115 
L 220.450909 248.1246 
L 230.923636 236.4822 
L 241.396364 223.8003 
L 251.869091 211.84605 
L 262.341818 198.95625 
L 272.814545 191.05605 
L 283.287273 193.96665 
L 293.76 203.53005 
L 304.232727 210.9105 
L 314.705455 209.2473 
L 325.178182 199.476 
L 335.650909 192.1995 
L 346.123636 194.79825 
L 356.596364 202.5945 
L 367.069091 205.9209 
L 377.541818 200.9313 
L 388.014545 187.4178 
L 398.487273 162.98955 
" style="fill:none;stroke:#3dff00;stroke-linecap:square;stroke-width:1.5;"/>
   </g>
   <g id="line2d_36">
    <path clip-path="url(#pe2f3ca8fb6)" d="M 73.832727 184.2993 
L 84.305455 190.1205 
L 94.778182 192.6153 
L 105.250909 186.06645 
L 115.723636 176.1912 
L 126.196364 181.70055 
L 136.669091 208.6236 
L 147.141818 236.58615 
L 157.614545 247.39695 
L 168.087273 243.3429 
L 178.56 233.5716 
L 189.032727 220.36995 
L 199.505455 206.85645 
L 209.978182 204.2577 
L 220.450909 217.45935 
L 230.923636 232.22025 
L 241.396364 230.661 
L 251.869091 210.4947 
L 262.341818 185.85855 
L 272.814545 171.51345 
L 283.287273 167.97915 
L 293.76 167.77125 
L 304.232727 168.60285 
L 314.705455 173.2806 
L 325.178182 180.24525 
L 335.650909 183.36375 
L 346.123636 178.8939 
L 356.596364 169.5384 
L 367.069091 160.5987 
L 377.541818 157.2723 
L 388.014545 158.9355 
L 398.487273 155.817 
" style="fill:none;stroke:#20ff00;stroke-linecap:square;stroke-width:1.5;"/>
   </g>
   <g id="line2d_37">
    <path clip-path="url(#pe2f3ca8fb6)" d="M 73.832727 145.0062 
L 84.305455 140.12055 
L 94.778182 136.0665 
L 105.250909 141.4719 
L 115.723636 160.49475 
L 126.196364 188.14545 
L 136.669091 216.3159 
L 147.141818 237.5217 
L 157.614545 244.90215 
L 168.087273 239.70465 
L 178.56 230.2452 
L 189.032727 225.35955 
L 199.505455 225.4635 
L 209.978182 223.8003 
L 220.450909 217.1475 
L 230.923636 207.9999 
L 241.396364 200.7234 
L 251.869091 199.0602 
L 262.341818 201.7629 
L 272.814545 202.90635 
L 283.287273 198.4365 
L 293.76 188.8731 
L 304.232727 176.08725 
L 314.705455 163.40535 
L 325.178182 154.9854 
L 335.650909 154.7775 
L 346.123636 160.70265 
L 356.596364 160.28685 
L 367.069091 143.65485 
L 377.541818 116.7318 
L 388.014545 93.34305 
L 398.487273 83.36385 
" style="fill:none;stroke:#04ff08;stroke-linecap:square;stroke-width:1.5;"/>
   </g>
   <g id="line2d_38">
    <path clip-path="url(#pe2f3ca8fb6)" d="M 73.832727 190.01655 
L 84.305455 208.4157 
L 94.778182 222.9687 
L 105.250909 228.06225 
L 115.723636 226.503 
L 126.196364 223.5924 
L 136.669091 224.2161 
L 147.141818 231.2847 
L 157.614545 241.4718 
L 168.087273 247.81275 
L 178.56 247.5009 
L 189.032727 244.3824 
L 199.505455 241.2639 
L 209.978182 233.88345 
L 220.450909 220.266 
L 230.923636 207.792 
L 241.396364 204.4656 
L 251.869091 210.18285 
L 262.341818 212.46975 
L 272.814545 201.7629 
L 283.287273 185.7546 
L 293.76 176.3991 
L 304.232727 173.38455 
L 314.705455 171.09765 
L 325.178182 166.73175 
L 335.650909 161.8461 
L 346.123636 156.12885 
L 356.596364 144.7983 
L 367.069091 123.28065 
L 377.541818 96.7734 
L 388.014545 81.8046 
L 398.487273 88.4574 
" style="fill:none;stroke:#00ff21;stroke-linecap:square;stroke-width:1.5;"/>
   </g>
   <g id="line2d_39">
    <path clip-path="url(#pe2f3ca8fb6)" d="M 73.832727 151.8669 
L 84.305455 166.73175 
L 94.778182 188.56125 
L 105.250909 199.78785 
L 115.723636 194.2785 
L 126.196364 190.3284 
L 136.669091 205.19325 
L 147.141818 230.2452 
L 157.614545 242.0955 
L 168.087273 230.4531 
L 178.56 207.5841 
L 189.032727 189.9126 
L 199.505455 182.844 
L 209.978182 181.8045 
L 220.450909 181.8045 
L 230.923636 181.3887 
L 241.396364 179.82945 
L 251.869091 176.71095 
L 262.341818 172.76085 
L 272.814545 165.69225 
L 283.287273 156.54465 
L 293.76 153.9459 
L 304.232727 159.87105 
L 314.705455 163.82115 
L 325.178182 157.0644 
L 335.650909 141.57585 
L 346.123636 126.39915 
L 356.596364 116.21205 
L 367.069091 107.06445 
L 377.541818 96.87735 
L 388.014545 89.7048 
L 398.487273 85.131 
" style="fill:none;stroke:#00ff3f;stroke-linecap:square;stroke-width:1.5;"/>
   </g>
   <g id="line2d_40">
    <path clip-path="url(#pe2f3ca8fb6)" d="M 73.832727 96.9813 
L 84.305455 100.9314 
L 94.778182 117.04365 
L 105.250909 144.7983 
L 115.723636 170.7858 
L 126.196364 190.1205 
L 136.669091 208.8315 
L 147.141818 228.9978 
L 157.614545 242.9271 
L 168.087273 241.6797 
L 178.56 231.18075 
L 189.032727 226.7109 
L 199.505455 232.84395 
L 209.978182 240.12045 
L 220.450909 241.056 
L 230.923636 233.67555 
L 241.396364 219.53835 
L 251.869091 207.792 
L 262.341818 206.23275 
L 272.814545 208.93545 
L 283.287273 202.3866 
L 293.76 185.9625 
L 304.232727 172.76085 
L 314.705455 173.0727 
L 325.178182 181.07685 
L 335.650909 179.7255 
L 346.123636 159.87105 
L 356.596364 130.0374 
L 367.069091 109.6632 
L 377.541818 110.7027 
L 388.014545 129.10185 
L 398.487273 149.68395 
" style="fill:none;stroke:#00ff5c;stroke-linecap:square;stroke-width:1.5;"/>
   </g>
   <g id="line2d_41">
    <path clip-path="url(#pe2f3ca8fb6)" d="M 73.832727 157.0644 
L 84.305455 160.07895 
L 94.778182 160.70265 
L 105.250909 167.56335 
L 115.723636 182.32425 
L 126.196364 200.3076 
L 136.669091 219.95415 
L 147.141818 239.1849 
L 157.614545 252.0747 
L 168.087273 252.59445 
L 178.56 243.9666 
L 189.032727 234.4032 
L 199.505455 228.06225 
L 209.978182 222.24105 
L 220.450909 215.58825 
L 230.923636 211.84605 
L 241.396364 213.4053 
L 251.869091 216.3159 
L 262.341818 214.4448 
L 272.814545 204.36165 
L 283.287273 186.89805 
L 293.76 165.90015 
L 304.232727 145.422 
L 314.705455 129.2058 
L 325.178182 121.40955 
L 335.650909 122.24115 
L 346.123636 126.9189 
L 356.596364 131.80455 
L 367.069091 136.17045 
L 377.541818 140.4324 
L 388.014545 143.7588 
L 398.487273 143.44695 
" style="fill:none;stroke:#00ff7a;stroke-linecap:square;stroke-width:1.5;"/>
   </g>
   <g id="line2d_42">
    <path clip-path="url(#pe2f3ca8fb6)" d="M 73.832727 173.4885 
L 84.305455 182.32425 
L 94.778182 191.7837 
L 105.250909 194.79825 
L 115.723636 189.9126 
L 126.196364 186.48225 
L 136.669091 199.476 
L 147.141818 230.0373 
L 157.614545 256.33665 
L 168.087273 262.4697 
L 178.56 257.16825 
L 189.032727 256.4406 
L 199.505455 263.0934 
L 209.978182 267.2514 
L 220.450909 259.66305 
L 230.923636 242.40735 
L 241.396364 227.7504 
L 251.869091 220.78575 
L 262.341818 213.71715 
L 272.814545 201.45105 
L 283.287273 190.5363 
L 293.76 185.3388 
L 304.232727 185.23485 
L 314.705455 184.923 
L 325.178182 177.54255 
L 335.650909 161.8461 
L 346.123636 143.7588 
L 356.596364 130.97295 
L 367.069091 125.4636 
L 377.541818 119.53845 
L 388.014545 107.3763 
L 398.487273 93.0312 
" style="fill:none;stroke:#00ff97;stroke-linecap:square;stroke-width:1.5;"/>
   </g>
   <g id="line2d_43">
    <path clip-path="url(#pe2f3ca8fb6)" d="M 73.832727 68.2911 
L 84.305455 98.33265 
L 94.778182 132.63615 
L 105.250909 160.5987 
L 115.723636 176.50305 
L 126.196364 190.22445 
L 136.669091 210.7026 
L 147.141818 230.76495 
L 157.614545 242.19945 
L 168.087273 248.1246 
L 178.56 253.3221 
L 189.032727 255.50505 
L 199.505455 249.47595 
L 209.978182 232.84395 
L 220.450909 211.95 
L 230.923636 195.318 
L 241.396364 183.98745 
L 251.869091 175.87935 
L 262.341818 172.96875 
L 272.814545 177.54255 
L 283.287273 185.7546 
L 293.76 189.18495 
L 304.232727 182.32425 
L 314.705455 168.291 
L 325.178182 152.4906 
L 335.650909 136.6902 
L 346.123636 121.61745 
L 356.596364 115.58835 
L 367.069091 124.8399 
L 377.541818 139.28895 
L 388.014545 141.0561 
L 398.487273 129.93345 
" style="fill:none;stroke:#00ffb5;stroke-linecap:square;stroke-width:1.5;"/>
   </g>
   <g id="line2d_44">
    <path clip-path="url(#pe2f3ca8fb6)" d="M 73.832727 166.4199 
L 84.305455 162.2619 
L 94.778182 157.6881 
L 105.250909 161.74215 
L 115.723636 175.5675 
L 126.196364 195.5259 
L 136.669091 216.9396 
L 147.141818 233.05185 
L 157.614545 240.8481 
L 168.087273 244.5903 
L 178.56 249.68385 
L 189.032727 254.7774 
L 199.505455 252.38655 
L 209.978182 236.4822 
L 220.450909 215.58825 
L 230.923636 207.06435 
L 241.396364 213.71715 
L 251.869091 221.40945 
L 262.341818 218.8107 
L 272.814545 208.31175 
L 283.287273 200.0997 
L 293.76 199.6839 
L 304.232727 199.57995 
L 314.705455 187.93755 
L 325.178182 167.4594 
L 335.650909 154.04985 
L 346.123636 153.1143 
L 356.596364 155.1933 
L 367.069091 150.6195 
L 377.541818 139.70475 
L 388.014545 130.869 
L 398.487273 129.10185 
" style="fill:none;stroke:#00ffd3;stroke-linecap:square;stroke-width:1.5;"/>
   </g>
   <g id="line2d_45">
    <path clip-path="url(#pe2f3ca8fb6)" d="M 73.832727 201.3471 
L 84.305455 189.4968 
L 94.778182 186.1704 
L 105.250909 190.1205 
L 115.723636 196.7733 
L 126.196364 205.19325 
L 136.669091 218.49885 
L 147.141818 234.6111 
L 157.614545 244.69425 
L 168.087273 242.5113 
L 178.56 235.75455 
L 189.032727 231.9084 
L 199.505455 229.8294 
L 209.978182 227.3346 
L 220.450909 226.9188 
L 230.923636 228.9978 
L 241.396364 228.7899 
L 251.869091 220.8897 
L 262.341818 206.85645 
L 272.814545 193.239 
L 283.287273 185.3388 
L 293.76 181.90845 
L 304.232727 177.12675 
L 314.705455 171.92925 
L 325.178182 169.01865 
L 335.650909 166.73175 
L 346.123636 163.82115 
L 356.596364 161.4303 
L 367.069091 160.28685 
L 377.541818 156.0249 
L 388.014545 142.5114 
L 398.487273 123.5925 
" style="fill:none;stroke:#00fff6;stroke-linecap:square;stroke-width:1.5;"/>
   </g>
   <g id="line2d_46">
    <path clip-path="url(#pe2f3ca8fb6)" d="M 73.832727 192.09555 
L 84.305455 204.0498 
L 94.778182 209.97495 
L 105.250909 205.0893 
L 115.723636 197.08515 
L 126.196364 193.34295 
L 136.669091 196.3575 
L 147.141818 212.9895 
L 157.614545 244.27845 
L 168.087273 273.80025 
L 178.56 283.77945 
L 189.032727 275.7753 
L 199.505455 264.65265 
L 209.978182 261.32625 
L 220.450909 262.78155 
L 230.923636 261.2223 
L 241.396364 256.33665 
L 251.869091 251.0352 
L 262.341818 241.99155 
L 272.814545 224.8398 
L 283.287273 201.24315 
L 293.76 182.94795 
L 304.232727 182.11635 
L 314.705455 196.7733 
L 325.178182 211.43025 
L 335.650909 209.55915 
L 346.123636 194.38245 
L 356.596364 180.24525 
L 367.069091 173.59245 
L 377.541818 169.9542 
L 388.014545 161.2224 
L 398.487273 147.7089 
" style="fill:none;stroke:#00eaff;stroke-linecap:square;stroke-width:1.5;"/>
   </g>
   <g id="line2d_47">
    <path clip-path="url(#pe2f3ca8fb6)" d="M 73.832727 208.10385 
L 84.305455 209.871 
L 94.778182 205.60905 
L 105.250909 198.8523 
L 115.723636 194.0706 
L 126.196364 195.21405 
L 136.669091 209.0394 
L 147.141818 235.54665 
L 157.614545 263.82105 
L 168.087273 281.5965 
L 178.56 287.31375 
L 189.032727 287.52165 
L 199.505455 283.8834 
L 209.978182 269.5383 
L 220.450909 246.8772 
L 230.923636 228.68595 
L 241.396364 220.0581 
L 251.869091 213.8211 
L 262.341818 203.73795 
L 272.814545 193.8627 
L 283.287273 192.8232 
L 293.76 197.6049 
L 304.232727 196.3575 
L 314.705455 185.23485 
L 325.178182 173.17665 
L 335.650909 167.56335 
L 346.123636 164.9646 
L 356.596364 160.70265 
L 367.069091 155.71305 
L 377.541818 151.97085 
L 388.014545 150.72345 
L 398.487273 154.25775 
" style="fill:none;stroke:#00cdff;stroke-linecap:square;stroke-width:1.5;"/>
   </g>
   <g id="line2d_48">
    <path clip-path="url(#pe2f3ca8fb6)" d="M 73.832727 126.711 
L 84.305455 123.5925 
L 94.778182 121.7214 
L 105.250909 129.4137 
L 115.723636 150.6195 
L 126.196364 180.765 
L 136.669091 209.2473 
L 147.141818 228.68595 
L 157.614545 241.056 
L 168.087273 250.51545 
L 178.56 253.9458 
L 189.032727 243.86265 
L 199.505455 223.5924 
L 209.978182 205.81695 
L 220.450909 195.42195 
L 230.923636 190.01655 
L 241.396364 187.72965 
L 251.869091 186.7941 
L 262.341818 182.4282 
L 272.814545 170.9937 
L 283.287273 157.99995 
L 293.76 151.55505 
L 304.232727 151.34715 
L 314.705455 149.26815 
L 325.178182 140.53635 
L 335.650909 129.8295 
L 346.123636 120.99375 
L 356.596364 113.50935 
L 367.069091 107.3763 
L 377.541818 101.86695 
L 388.014545 96.25365 
L 398.487273 92.51145 
" style="fill:none;stroke:#00afff;stroke-linecap:square;stroke-width:1.5;"/>
   </g>
   <g id="line2d_49">
    <path clip-path="url(#pe2f3ca8fb6)" d="M 73.832727 147.7089 
L 84.305455 141.57585 
L 94.778182 146.0457 
L 105.250909 155.1933 
L 115.723636 163.82115 
L 126.196364 175.25565 
L 136.669091 198.2286 
L 147.141818 234.92295 
L 157.614545 275.5674 
L 168.087273 306.64845 
L 178.56 318.29085 
L 189.032727 304.4655 
L 199.505455 268.4988 
L 209.978182 227.23065 
L 220.450909 199.78785 
L 230.923636 189.60075 
L 241.396364 181.70055 
L 251.869091 162.6777 
L 262.341818 135.4428 
L 272.814545 114.8607 
L 283.287273 107.48025 
L 293.76 103.73805 
L 304.232727 93.96675 
L 314.705455 80.973 
L 325.178182 70.9938 
L 335.650909 67.8753 
L 346.123636 70.1622 
L 356.596364 71.30565 
L 367.069091 66.0042 
L 377.541818 58.104 
L 388.014545 60.49485 
L 398.487273 75.9834 
" style="fill:none;stroke:#0092ff;stroke-linecap:square;stroke-width:1.5;"/>
   </g>
   <g id="line2d_50">
    <path clip-path="url(#pe2f3ca8fb6)" d="M 73.832727 158.20785 
L 84.305455 144.5904 
L 94.778182 131.18085 
L 105.250909 141.264 
L 115.723636 173.17665 
L 126.196364 204.77745 
L 136.669091 223.48845 
L 147.141818 236.6901 
L 157.614545 251.451 
L 168.087273 261.2223 
L 178.56 256.4406 
L 189.032727 241.6797 
L 199.505455 230.14125 
L 209.978182 229.2057 
L 220.450909 233.1558 
L 230.923636 231.2847 
L 241.396364 220.266 
L 251.869091 204.0498 
L 262.341818 190.7442 
L 272.814545 187.4178 
L 283.287273 193.96665 
L 293.76 199.8918 
L 304.232727 192.51135 
L 314.705455 173.80035 
L 325.178182 157.99995 
L 335.650909 153.1143 
L 346.123636 149.58 
L 356.596364 138.3534 
L 367.069091 127.9584 
L 377.541818 129.8295 
L 388.014545 137.41785 
L 398.487273 137.00205 
" style="fill:none;stroke:#0074ff;stroke-linecap:square;stroke-width:1.5;"/>
   </g>
   <g id="line2d_51">
    <path clip-path="url(#pe2f3ca8fb6)" d="M 73.832727 186.48225 
L 84.305455 176.1912 
L 94.778182 168.291 
L 105.250909 169.9542 
L 115.723636 178.686 
L 126.196364 192.09555 
L 136.669091 210.59865 
L 147.141818 228.9978 
L 157.614545 240.12045 
L 168.087273 243.9666 
L 178.56 246.98115 
L 189.032727 249.372 
L 199.505455 243.86265 
L 209.978182 230.0373 
L 220.450909 219.95415 
L 230.923636 220.16205 
L 241.396364 220.78575 
L 251.869091 210.80655 
L 262.341818 193.13505 
L 272.814545 178.37415 
L 283.287273 170.37 
L 293.76 165.06855 
L 304.232727 162.15795 
L 314.705455 160.70265 
L 325.178182 156.2328 
L 335.650909 147.0852 
L 346.123636 137.3139 
L 356.596364 131.0769 
L 367.069091 128.47815 
L 377.541818 127.3347 
L 388.014545 127.23075 
L 398.487273 125.56755 
" style="fill:none;stroke:#0057ff;stroke-linecap:square;stroke-width:1.5;"/>
   </g>
   <g id="line2d_52">
    <path clip-path="url(#pe2f3ca8fb6)" d="M 73.832727 146.0457 
L 84.305455 146.14965 
L 94.778182 156.8565 
L 105.250909 175.04775 
L 115.723636 195.5259 
L 126.196364 211.84605 
L 136.669091 223.1766 
L 147.141818 233.5716 
L 157.614545 242.61525 
L 168.087273 243.3429 
L 178.56 236.2743 
L 189.032727 230.34915 
L 199.505455 226.7109 
L 209.978182 216.62775 
L 220.450909 199.57995 
L 230.923636 184.2993 
L 241.396364 173.59245 
L 251.869091 163.0935 
L 262.341818 152.9064 
L 272.814545 148.1247 
L 283.287273 147.60495 
L 293.76 142.82325 
L 304.232727 128.47815 
L 314.705455 104.36175 
L 325.178182 76.815 
L 335.650909 56.54475 
L 346.123636 47.709 
L 356.596364 47.709 
L 367.069091 50.30775 
L 377.541818 50.51565 
L 388.014545 48.43665 
L 398.487273 49.788 
" style="fill:none;stroke:#0039ff;stroke-linecap:square;stroke-width:1.5;"/>
   </g>
   <g id="line2d_53">
    <path clip-path="url(#pe2f3ca8fb6)" d="M 73.832727 102.1788 
L 84.305455 156.4407 
L 94.778182 188.97705 
L 105.250909 194.17455 
L 115.723636 187.8336 
L 126.196364 189.60075 
L 136.669091 206.7525 
L 147.141818 228.68595 
L 157.614545 240.12045 
L 168.087273 238.87305 
L 178.56 234.09135 
L 189.032727 233.88345 
L 199.505455 239.8086 
L 209.978182 246.4614 
L 220.450909 246.6693 
L 230.923636 237.62565 
L 241.396364 224.2161 
L 251.869091 212.9895 
L 262.341818 206.7525 
L 272.814545 202.3866 
L 283.287273 193.34295 
L 293.76 178.4781 
L 304.232727 163.40535 
L 314.705455 152.80245 
L 325.178182 147.60495 
L 335.650909 145.0062 
L 346.123636 140.74425 
L 356.596364 133.9875 
L 367.069091 126.81495 
L 377.541818 119.95425 
L 388.014545 110.9106 
L 398.487273 101.86695 
" style="fill:none;stroke:#001cff;stroke-linecap:square;stroke-width:1.5;"/>
   </g>
   <g id="line2d_54">
    <path clip-path="url(#pe2f3ca8fb6)" d="M 73.832727 155.817 
L 84.305455 165.27645 
L 94.778182 185.7546 
L 105.250909 210.2868 
L 115.723636 220.57785 
L 126.196364 214.75665 
L 136.669091 213.1974 
L 147.141818 225.77535 
L 157.614545 240.0165 
L 168.087273 242.61525 
L 178.56 234.50715 
L 189.032727 224.73585 
L 199.505455 217.3554 
L 209.978182 211.5342 
L 220.450909 206.5446 
L 230.923636 201.9708 
L 241.396364 197.1891 
L 251.869091 193.13505 
L 262.341818 190.9521 
L 272.814545 190.3284 
L 283.287273 188.2494 
L 293.76 181.3887 
L 304.232727 171.2016 
L 314.705455 162.8856 
L 325.178182 159.03945 
L 335.650909 158.5197 
L 346.123636 157.79205 
L 356.596364 155.1933 
L 367.069091 154.04985 
L 377.541818 156.6486 
L 388.014545 160.07895 
L 398.487273 159.45525 
" style="fill:none;stroke:#0800ff;stroke-linecap:square;stroke-width:1.5;"/>
   </g>
   <g id="line2d_55">
    <path clip-path="url(#pe2f3ca8fb6)" d="M 73.832727 190.5363 
L 84.305455 202.8024 
L 94.778182 204.98535 
L 105.250909 191.16 
L 115.723636 172.2411 
L 126.196364 170.47395 
L 136.669091 194.38245 
L 147.141818 229.30965 
L 157.614545 244.7982 
L 168.087273 225.4635 
L 178.56 198.8523 
L 189.032727 201.555 
L 199.505455 230.34915 
L 209.978182 252.38655 
L 220.450909 250.2036 
L 230.923636 233.88345 
L 241.396364 217.7712 
L 251.869091 206.85645 
L 262.341818 198.2286 
L 272.814545 189.18495 
L 283.287273 179.9334 
L 293.76 171.72135 
L 304.232727 164.65275 
L 314.705455 160.5987 
L 325.178182 160.8066 
L 335.650909 159.5592 
L 346.123636 153.84195 
L 356.596364 149.9958 
L 367.069091 153.21825 
L 377.541818 161.2224 
L 388.014545 168.0831 
L 398.487273 168.81075 
" style="fill:none;stroke:#2500ff;stroke-linecap:square;stroke-width:1.5;"/>
   </g>
   <g id="line2d_56">
    <path clip-path="url(#pe2f3ca8fb6)" d="M 73.832727 165.7962 
L 84.305455 162.98955 
L 94.778182 163.82115 
L 105.250909 168.18705 
L 115.723636 172.34505 
L 126.196364 178.58205 
L 136.669091 195.5259 
L 147.141818 224.8398 
L 157.614545 255.92085 
L 168.087273 273.80025 
L 178.56 270.5778 
L 189.032727 253.01025 
L 199.505455 237.62565 
L 209.978182 232.74 
L 220.450909 229.51755 
L 230.923636 216.9396 
L 241.396364 198.6444 
L 251.869091 185.44275 
L 262.341818 182.844 
L 272.814545 189.2889 
L 283.287273 197.08515 
L 293.76 194.9022 
L 304.232727 180.765 
L 314.705455 163.0935 
L 325.178182 148.43655 
L 335.650909 138.3534 
L 346.123636 135.8586 
L 356.596364 139.28895 
L 367.069091 140.8482 
L 377.541818 136.4823 
L 388.014545 126.39915 
L 398.487273 113.30145 
" style="fill:none;stroke:#4300ff;stroke-linecap:square;stroke-width:1.5;"/>
   </g>
   <g id="line2d_57">
    <path clip-path="url(#pe2f3ca8fb6)" d="M 73.832727 155.29725 
L 84.305455 148.02075 
L 94.778182 137.9376 
L 105.250909 133.5717 
L 115.723636 141.6798 
L 126.196364 161.95005 
L 136.669091 194.59035 
L 147.141818 237.62565 
L 157.614545 278.0622 
L 168.087273 300.5154 
L 178.56 300.7233 
L 189.032727 287.4177 
L 199.505455 271.30545 
L 209.978182 257.2722 
L 220.450909 245.31795 
L 230.923636 232.42815 
L 241.396364 211.1184 
L 251.869091 182.32425 
L 262.341818 159.45525 
L 272.814545 153.21825 
L 283.287273 158.83155 
L 293.76 162.36585 
L 304.232727 155.29725 
L 314.705455 140.6403 
L 325.178182 126.0873 
L 335.650909 116.1081 
L 346.123636 108.31185 
L 356.596364 98.8524 
L 367.069091 89.80875 
L 377.541818 84.9231 
L 388.014545 83.052 
L 398.487273 82.4283 
" style="fill:none;stroke:#6000ff;stroke-linecap:square;stroke-width:1.5;"/>
   </g>
   <g id="line2d_58">
    <path clip-path="url(#pe2f3ca8fb6)" d="M 73.832727 190.01655 
L 84.305455 216.108 
L 94.778182 235.75455 
L 105.250909 235.54665 
L 115.723636 220.0581 
L 126.196364 210.39075 
L 136.669091 218.70675 
L 147.141818 236.79405 
L 157.614545 251.6589 
L 168.087273 258.5196 
L 178.56 258.7275 
L 189.032727 253.7379 
L 199.505455 245.73375 
L 209.978182 238.45725 
L 220.450909 231.7005 
L 230.923636 220.4739 
L 241.396364 203.0103 
L 251.869091 186.3783 
L 262.341818 176.50305 
L 272.814545 169.22655 
L 283.287273 157.99995 
L 293.76 148.02075 
L 304.232727 147.501 
L 314.705455 153.3222 
L 325.178182 155.92095 
L 335.650909 151.13925 
L 346.123636 144.3825 
L 356.596364 140.8482 
L 367.069091 140.0166 
L 377.541818 142.0956 
L 388.014545 146.4615 
L 398.487273 145.8378 
" style="fill:none;stroke:#7e00ff;stroke-linecap:square;stroke-width:1.5;"/>
   </g>
   <g id="line2d_59">
    <path clip-path="url(#pe2f3ca8fb6)" d="M 73.832727 149.7879 
L 84.305455 151.8669 
L 94.778182 152.2827 
L 105.250909 145.31805 
L 115.723636 138.87315 
L 126.196364 146.6694 
L 136.669091 175.04775 
L 147.141818 214.8606 
L 157.614545 246.8772 
L 168.087273 257.99985 
L 178.56 252.59445 
L 189.032727 245.52585 
L 199.505455 245.214 
L 209.978182 246.2535 
L 220.450909 238.1454 
L 230.923636 220.78575 
L 241.396364 207.1683 
L 251.869091 202.3866 
L 262.341818 198.33255 
L 272.814545 188.56125 
L 283.287273 176.8149 
L 293.76 171.2016 
L 304.232727 173.4885 
L 314.705455 175.25565 
L 325.178182 167.97915 
L 335.650909 147.81285 
L 346.123636 118.6029 
L 356.596364 91.1601 
L 367.069091 78.6861 
L 377.541818 82.94805 
L 388.014545 90.43245 
L 398.487273 90.1206 
" style="fill:none;stroke:#9b00ff;stroke-linecap:square;stroke-width:1.5;"/>
   </g>
   <g id="line2d_60">
    <path clip-path="url(#pe2f3ca8fb6)" d="M 73.832727 137.3139 
L 84.305455 122.86485 
L 94.778182 112.88565 
L 105.250909 109.0395 
L 115.723636 121.82535 
L 126.196364 157.58415 
L 136.669091 204.36165 
L 147.141818 236.898 
L 157.614545 240.12045 
L 168.087273 225.56745 
L 178.56 215.9001 
L 189.032727 219.12255 
L 199.505455 222.24105 
L 209.978182 214.34085 
L 220.450909 199.78785 
L 230.923636 189.18495 
L 241.396364 186.06645 
L 251.869091 184.2993 
L 262.341818 177.54255 
L 272.814545 168.39495 
L 283.287273 162.98955 
L 293.76 158.9355 
L 304.232727 151.8669 
L 314.705455 142.19955 
L 325.178182 135.2349 
L 335.650909 135.8586 
L 346.123636 139.8087 
L 356.596364 135.6507 
L 367.069091 119.2266 
L 377.541818 100.20375 
L 388.014545 91.5759 
L 398.487273 95.7339 
" style="fill:none;stroke:#b900ff;stroke-linecap:square;stroke-width:1.5;"/>
   </g>
   <g id="line2d_61">
    <path clip-path="url(#pe2f3ca8fb6)" d="M 73.832727 182.53215 
L 84.305455 179.82945 
L 94.778182 165.48435 
L 105.250909 150.4116 
L 115.723636 147.39705 
L 126.196364 158.62365 
L 136.669091 180.765 
L 147.141818 211.5342 
L 157.614545 245.4219 
L 168.087273 270.5778 
L 178.56 280.557 
L 189.032727 281.70045 
L 199.505455 280.66095 
L 209.978182 276.1911 
L 220.450909 264.7566 
L 230.923636 247.39695 
L 241.396364 230.661 
L 251.869091 218.29095 
L 262.341818 208.4157 
L 272.814545 200.41155 
L 283.287273 193.6548 
L 293.76 185.44275 
L 304.232727 173.2806 
L 314.705455 157.58415 
L 325.178182 141.6798 
L 335.650909 128.79 
L 346.123636 123.3846 
L 356.596364 126.9189 
L 367.069091 134.6112 
L 377.541818 137.3139 
L 388.014545 126.81495 
L 398.487273 103.94595 
" style="fill:none;stroke:#d600ff;stroke-linecap:square;stroke-width:1.5;"/>
   </g>
   <g id="line2d_62">
    <path clip-path="url(#pe2f3ca8fb6)" d="M 73.832727 143.65485 
L 84.305455 138.45735 
L 94.778182 136.58625 
L 105.250909 148.85235 
L 115.723636 173.6964 
L 126.196364 199.37205 
L 136.669091 218.8107 
L 147.141818 233.1558 
L 157.614545 243.9666 
L 168.087273 251.76285 
L 178.56 258.3117 
L 189.032727 261.0144 
L 199.505455 252.9063 
L 209.978182 232.3242 
L 220.450909 206.85645 
L 230.923636 186.69015 
L 241.396364 175.5675 
L 251.869091 168.7068 
L 262.341818 162.054 
L 272.814545 158.3118 
L 283.287273 159.7671 
L 293.76 158.9355 
L 304.232727 147.9168 
L 314.705455 130.34925 
L 325.178182 114.0291 
L 335.650909 102.69855 
L 346.123636 93.8628 
L 356.596364 83.4678 
L 367.069091 70.88985 
L 377.541818 60.3909 
L 388.014545 58.104 
L 398.487273 65.1726 
" style="fill:none;stroke:#f800fd;stroke-linecap:square;stroke-width:1.5;"/>
   </g>
   <g id="line2d_63">
    <path clip-path="url(#pe2f3ca8fb6)" d="M 73.832727 116.41995 
L 84.305455 115.17255 
L 94.778182 113.6133 
L 105.250909 118.395 
L 115.723636 130.34925 
L 126.196364 150.09975 
L 136.669091 180.5571 
L 147.141818 218.187 
L 157.614545 252.38655 
L 168.087273 274.32 
L 178.56 280.45305 
L 189.032727 274.63185 
L 199.505455 265.5882 
L 209.978182 256.4406 
L 220.450909 244.27845 
L 230.923636 228.7899 
L 241.396364 212.67765 
L 251.869091 197.8128 
L 262.341818 185.7546 
L 272.814545 179.62155 
L 283.287273 177.2307 
L 293.76 169.9542 
L 304.232727 153.84195 
L 314.705455 134.50725 
L 325.178182 121.3056 
L 335.650909 119.2266 
L 346.123636 124.11225 
L 356.596364 128.06235 
L 367.069091 126.5031 
L 377.541818 117.87525 
L 388.014545 104.4657 
L 398.487273 93.447 
" style="fill:none;stroke:#ff00e7;stroke-linecap:square;stroke-width:1.5;"/>
   </g>
   <g id="line2d_64">
    <path clip-path="url(#pe2f3ca8fb6)" d="M 73.832727 104.4657 
L 84.305455 118.6029 
L 94.778182 136.79415 
L 105.250909 153.3222 
L 115.723636 159.24735 
L 126.196364 157.0644 
L 136.669091 165.7962 
L 147.141818 198.4365 
L 157.614545 243.3429 
L 168.087273 277.4385 
L 178.56 293.031 
L 189.032727 296.25345 
L 199.505455 292.92705 
L 209.978182 286.48215 
L 220.450909 279.7254 
L 230.923636 272.8647 
L 241.396364 260.49465 
L 251.869091 239.28885 
L 262.341818 215.6922 
L 272.814545 201.86685 
L 283.287273 203.8419 
L 293.76 211.84605 
L 304.232727 210.39075 
L 314.705455 194.9022 
L 325.178182 172.34505 
L 335.650909 149.3721 
L 346.123636 129.4137 
L 356.596364 115.6923 
L 367.069091 108.51975 
L 377.541818 102.3867 
L 388.014545 93.8628 
L 398.487273 88.6653 
" style="fill:none;stroke:#ff00c9;stroke-linecap:square;stroke-width:1.5;"/>
   </g>
   <g id="line2d_65">
    <path clip-path="url(#pe2f3ca8fb6)" d="M 73.832727 189.9126 
L 84.305455 164.5488 
L 94.778182 141.78375 
L 105.250909 140.8482 
L 115.723636 159.87105 
L 126.196364 185.5467 
L 136.669091 210.39075 
L 147.141818 231.0768 
L 157.614545 242.19945 
L 168.087273 242.0955 
L 178.56 236.2743 
L 189.032727 232.42815 
L 199.505455 232.3242 
L 209.978182 228.47805 
L 220.450909 217.04355 
L 230.923636 209.2473 
L 241.396364 215.6922 
L 251.869091 228.7899 
L 262.341818 232.22025 
L 272.814545 221.5134 
L 283.287273 209.0394 
L 293.76 204.15375 
L 304.232727 198.0207 
L 314.705455 176.29515 
L 325.178182 140.74425 
L 335.650909 113.71725 
L 346.123636 111.9501 
L 356.596364 126.0873 
L 367.069091 135.027 
L 377.541818 128.06235 
L 388.014545 109.2474 
L 398.487273 92.30355 
" style="fill:none;stroke:#ff00ac;stroke-linecap:square;stroke-width:1.5;"/>
   </g>
   <g id="line2d_66">
    <path clip-path="url(#pe2f3ca8fb6)" d="M 73.832727 142.5114 
L 84.305455 156.12885 
L 94.778182 169.43445 
L 105.250909 173.17665 
L 115.723636 171.30555 
L 126.196364 174.7359 
L 136.669091 189.4968 
L 147.141818 214.029 
L 157.614545 240.53625 
L 168.087273 257.37615 
L 178.56 264.7566 
L 189.032727 269.22645 
L 199.505455 267.6672 
L 209.978182 249.9957 
L 220.450909 220.4739 
L 230.923636 199.99575 
L 241.396364 201.24315 
L 251.869091 216.108 
L 262.341818 224.52795 
L 272.814545 212.26185 
L 283.287273 190.7442 
L 293.76 179.5176 
L 304.232727 180.66105 
L 314.705455 182.2203 
L 325.178182 177.4386 
L 335.650909 172.13715 
L 346.123636 174.21615 
L 356.596364 183.98745 
L 367.069091 191.67975 
L 377.541818 186.1704 
L 388.014545 169.85025 
L 398.487273 159.24735 
" style="fill:none;stroke:#ff008e;stroke-linecap:square;stroke-width:1.5;"/>
   </g>
   <g id="line2d_67">
    <path clip-path="url(#pe2f3ca8fb6)" d="M 73.832727 174.7359 
L 84.305455 152.17875 
L 94.778182 136.79415 
L 105.250909 129.51765 
L 115.723636 133.46775 
L 126.196364 155.1933 
L 136.669091 191.3679 
L 147.141818 225.8793 
L 157.614545 243.65475 
L 168.087273 242.82315 
L 178.56 234.09135 
L 189.032727 229.30965 
L 199.505455 232.22025 
L 209.978182 235.13085 
L 220.450909 226.7109 
L 230.923636 207.06435 
L 241.396364 189.2889 
L 251.869091 185.02695 
L 262.341818 191.16 
L 272.814545 193.75875 
L 283.287273 186.48225 
L 293.76 178.37415 
L 304.232727 181.1808 
L 314.705455 192.71925 
L 325.178182 198.95625 
L 335.650909 192.8232 
L 346.123636 178.2702 
L 356.596364 159.45525 
L 367.069091 140.2245 
L 377.541818 129.30975 
L 388.014545 129.8295 
L 398.487273 133.3638 
" style="fill:none;stroke:#ff0071;stroke-linecap:square;stroke-width:1.5;"/>
   </g>
   <g id="line2d_68">
    <path clip-path="url(#pe2f3ca8fb6)" d="M 73.832727 173.2806 
L 84.305455 172.6569 
L 94.778182 159.87105 
L 105.250909 151.4511 
L 115.723636 159.03945 
L 126.196364 180.1413 
L 136.669091 207.9999 
L 147.141818 233.88345 
L 157.614545 247.81275 
L 168.087273 249.26805 
L 178.56 243.7587 
L 189.032727 236.6901 
L 199.505455 229.8294 
L 209.978182 221.3055 
L 220.450909 212.88555 
L 230.923636 207.48015 
L 241.396364 201.555 
L 251.869091 188.56125 
L 262.341818 169.9542 
L 272.814545 155.817 
L 283.287273 151.659 
L 293.76 152.38665 
L 304.232727 146.8773 
L 314.705455 131.4927 
L 325.178182 114.34095 
L 335.650909 106.23285 
L 346.123636 109.55925 
L 356.596364 115.6923 
L 367.069091 116.5239 
L 377.541818 111.01455 
L 388.014545 102.49065 
L 398.487273 89.9127 
" style="fill:none;stroke:#ff0053;stroke-linecap:square;stroke-width:1.5;"/>
   </g>
   <g id="line2d_69">
    <path clip-path="url(#pe2f3ca8fb6)" d="M 73.832727 206.64855 
L 84.305455 222.03315 
L 94.778182 229.4136 
L 105.250909 224.73585 
L 115.723636 212.67765 
L 126.196364 205.19325 
L 136.669091 212.67765 
L 147.141818 232.22025 
L 157.614545 246.8772 
L 168.087273 243.65475 
L 178.56 224.8398 
L 189.032727 204.6735 
L 199.505455 196.46145 
L 209.978182 198.12465 
L 220.450909 197.08515 
L 230.923636 189.18495 
L 241.396364 180.9729 
L 251.869091 176.1912 
L 262.341818 170.7858 
L 272.814545 163.82115 
L 283.287273 161.8461 
L 293.76 168.60285 
L 304.232727 177.75045 
L 314.705455 178.2702 
L 325.178182 165.7962 
L 335.650909 148.22865 
L 346.123636 136.2744 
L 356.596364 129.93345 
L 367.069091 124.32015 
L 377.541818 118.8108 
L 388.014545 114.6528 
L 398.487273 111.01455 
" style="fill:none;stroke:#ff0035;stroke-linecap:square;stroke-width:1.5;"/>
   </g>
   <g id="line2d_70">
    <path clip-path="url(#pe2f3ca8fb6)" d="M 73.832727 156.923855 
L 84.305455 160.684087 
L 94.778182 165.318879 
L 105.250909 170.862171 
L 115.723636 177.564295 
L 126.196364 187.843677 
L 136.669091 204.991714 
L 147.141818 227.622584 
L 157.614545 247.506204 
L 168.087273 256.215198 
L 178.56 253.194284 
L 189.032727 245.178996 
L 199.505455 238.206391 
L 209.978182 232.675827 
L 220.450909 226.01242 
L 230.923636 217.369189 
L 241.396364 208.121882 
L 251.869091 199.439936 
L 262.341818 191.131361 
L 272.814545 182.785661 
L 283.287273 174.695062 
L 293.76 167.261046 
L 304.232727 160.438002 
L 314.705455 154.043486 
L 325.178182 148.016507 
L 335.650909 142.503445 
L 346.123636 137.491039 
L 356.596364 132.483937 
L 367.069091 127.05255 
L 377.541818 121.703368 
L 388.014545 117.287084 
L 398.487273 113.928332 
" style="fill:none;stroke:#000000;stroke-linecap:square;stroke-width:2;"/>
   </g>
   <g id="patch_3">
    <path d="M 57.6 307.584 
L 57.6 41.472 
" style="fill:none;stroke:#000000;stroke-linecap:square;stroke-linejoin:miter;stroke-width:0.8;"/>
   </g>
   <g id="patch_4">
    <path d="M 414.72 307.584 
L 414.72 41.472 
" style="fill:none;stroke:#000000;stroke-linecap:square;stroke-linejoin:miter;stroke-width:0.8;"/>
   </g>
   <g id="patch_5">
    <path d="M 57.6 307.584 
L 414.72 307.584 
" style="fill:none;stroke:#000000;stroke-linecap:square;stroke-linejoin:miter;stroke-width:0.8;"/>
   </g>
   <g id="patch_6">
    <path d="M 57.6 41.472 
L 414.72 41.472 
" style="fill:none;stroke:#000000;stroke-linecap:square;stroke-linejoin:miter;stroke-width:0.8;"/>
   </g>
   <g id="text_21">
    <!-- $V_{rms}=$ 17.791142 -->
    <defs>
     <path d="M 20.609375 0 
L 7.8125 72.90625 
L 17.484375 72.90625 
L 28.078125 10.203125 
L 63.484375 72.90625 
L 74.21875 72.90625 
L 32.078125 0 
z
" id="DejaVuSans-Oblique-56"/>
     <path d="M 44.578125 46.390625 
Q 43.21875 47.125 41.453125 47.515625 
Q 39.703125 47.90625 37.703125 47.90625 
Q 30.515625 47.90625 25.140625 42.453125 
Q 19.78125 37.015625 18.015625 27.875 
L 12.5 0 
L 3.515625 0 
L 14.203125 54.6875 
L 23.1875 54.6875 
L 21.484375 46.1875 
Q 25.046875 50.921875 30 53.453125 
Q 34.96875 56 40.578125 56 
Q 42.046875 56 43.453125 55.828125 
Q 44.875 55.671875 46.296875 55.28125 
z
" id="DejaVuSans-Oblique-72"/>
     <path d="M 89.796875 33.015625 
L 83.40625 0 
L 74.421875 0 
L 80.71875 32.71875 
Q 81.109375 34.8125 81.296875 36.328125 
Q 81.5 37.84375 81.5 38.921875 
Q 81.5 43.3125 79.046875 45.75 
Q 76.609375 48.1875 72.21875 48.1875 
Q 65.671875 48.1875 60.546875 43.28125 
Q 55.421875 38.375 53.90625 30.515625 
L 47.90625 0 
L 38.921875 0 
L 45.3125 32.71875 
Q 45.703125 34.515625 45.890625 36.046875 
Q 46.09375 37.59375 46.09375 38.8125 
Q 46.09375 43.265625 43.65625 45.71875 
Q 41.21875 48.1875 36.921875 48.1875 
Q 30.28125 48.1875 25.140625 43.28125 
Q 20.015625 38.375 18.5 30.515625 
L 12.5 0 
L 3.515625 0 
L 14.203125 54.6875 
L 23.1875 54.6875 
L 21.484375 46.1875 
Q 25.140625 50.984375 30.046875 53.484375 
Q 34.96875 56 40.578125 56 
Q 46.53125 56 50.359375 52.875 
Q 54.203125 49.75 54.984375 44.1875 
Q 59.078125 49.953125 64.46875 52.96875 
Q 69.875 56 75.875 56 
Q 82.90625 56 86.734375 51.953125 
Q 90.578125 47.90625 90.578125 40.484375 
Q 90.578125 38.875 90.375 36.9375 
Q 90.1875 35.015625 89.796875 33.015625 
z
" id="DejaVuSans-Oblique-6d"/>
     <path d="M 50 53.078125 
L 48.296875 44.578125 
Q 44.734375 46.53125 40.765625 47.5 
Q 36.8125 48.484375 32.625 48.484375 
Q 25.53125 48.484375 21.453125 46.0625 
Q 17.390625 43.65625 17.390625 39.5 
Q 17.390625 34.671875 26.859375 32.078125 
Q 27.59375 31.890625 27.9375 31.78125 
L 30.8125 30.90625 
Q 39.796875 28.421875 42.796875 25.6875 
Q 45.796875 22.953125 45.796875 18.21875 
Q 45.796875 9.515625 38.890625 4.046875 
Q 31.984375 -1.421875 20.796875 -1.421875 
Q 16.453125 -1.421875 11.671875 -0.578125 
Q 6.890625 0.25 1.125 2 
L 2.875 11.28125 
Q 7.8125 8.734375 12.59375 7.421875 
Q 17.390625 6.109375 21.78125 6.109375 
Q 28.375 6.109375 32.5 8.9375 
Q 36.625 11.765625 36.625 16.109375 
Q 36.625 20.796875 25.78125 23.6875 
L 24.859375 23.921875 
L 21.78125 24.703125 
Q 14.9375 26.515625 11.765625 29.46875 
Q 8.59375 32.421875 8.59375 37.015625 
Q 8.59375 45.75 15.15625 50.875 
Q 21.734375 56 33.015625 56 
Q 37.453125 56 41.671875 55.265625 
Q 45.90625 54.546875 50 53.078125 
z
" id="DejaVuSans-Oblique-73"/>
     <path d="M 10.59375 45.40625 
L 73.1875 45.40625 
L 73.1875 37.203125 
L 10.59375 37.203125 
z
M 10.59375 25.484375 
L 73.1875 25.484375 
L 73.1875 17.1875 
L 10.59375 17.1875 
z
" id="DejaVuSans-3d"/>
     <path d="M 10.984375 1.515625 
L 10.984375 10.5 
Q 14.703125 8.734375 18.5 7.8125 
Q 22.3125 6.890625 25.984375 6.890625 
Q 35.75 6.890625 40.890625 13.453125 
Q 46.046875 20.015625 46.78125 33.40625 
Q 43.953125 29.203125 39.59375 26.953125 
Q 35.25 24.703125 29.984375 24.703125 
Q 19.046875 24.703125 12.671875 31.3125 
Q 6.296875 37.9375 6.296875 49.421875 
Q 6.296875 60.640625 12.9375 67.421875 
Q 19.578125 74.21875 30.609375 74.21875 
Q 43.265625 74.21875 49.921875 64.515625 
Q 56.59375 54.828125 56.59375 36.375 
Q 56.59375 19.140625 48.40625 8.859375 
Q 40.234375 -1.421875 26.421875 -1.421875 
Q 22.703125 -1.421875 18.890625 -0.6875 
Q 15.09375 0.046875 10.984375 1.515625 
z
M 30.609375 32.421875 
Q 37.25 32.421875 41.125 36.953125 
Q 45.015625 41.5 45.015625 49.421875 
Q 45.015625 57.28125 41.125 61.84375 
Q 37.25 66.40625 30.609375 66.40625 
Q 23.96875 66.40625 20.09375 61.84375 
Q 16.21875 57.28125 16.21875 49.421875 
Q 16.21875 41.5 20.09375 36.953125 
Q 23.96875 32.421875 30.609375 32.421875 
z
" id="DejaVuSans-39"/>
    </defs>
    <g transform="translate(325.178182 174.695062)scale(0.1 -0.1)">
     <use transform="translate(0 0.78125)" xlink:href="#DejaVuSans-Oblique-56"/>
     <use transform="translate(68.408203 -15.625)scale(0.7)" xlink:href="#DejaVuSans-Oblique-72"/>
     <use transform="translate(97.1875 -15.625)scale(0.7)" xlink:href="#DejaVuSans-Oblique-6d"/>
     <use transform="translate(165.375977 -15.625)scale(0.7)" xlink:href="#DejaVuSans-Oblique-73"/>
     <use transform="translate(224.0625 0.78125)" xlink:href="#DejaVuSans-3d"/>
     <use transform="translate(327.333984 0.78125)" xlink:href="#DejaVuSans-20"/>
     <use transform="translate(359.121094 0.78125)" xlink:href="#DejaVuSans-31"/>
     <use transform="translate(422.744141 0.78125)" xlink:href="#DejaVuSans-37"/>
     <use transform="translate(486.367188 0.78125)" xlink:href="#DejaVuSans-2e"/>
     <use transform="translate(518.044922 0.78125)" xlink:href="#DejaVuSans-37"/>
     <use transform="translate(581.667969 0.78125)" xlink:href="#DejaVuSans-39"/>
     <use transform="translate(645.291016 0.78125)" xlink:href="#DejaVuSans-31"/>
     <use transform="translate(708.914062 0.78125)" xlink:href="#DejaVuSans-31"/>
     <use transform="translate(772.537109 0.78125)" xlink:href="#DejaVuSans-34"/>
     <use transform="translate(836.160156 0.78125)" xlink:href="#DejaVuSans-32"/>
    </g>
   </g>
   <g id="text_22">
    <!-- Channel 21 - Unit 1 -->
    <defs>
     <path d="M 64.40625 67.28125 
L 64.40625 56.890625 
Q 59.421875 61.53125 53.78125 63.8125 
Q 48.140625 66.109375 41.796875 66.109375 
Q 29.296875 66.109375 22.65625 58.46875 
Q 16.015625 50.828125 16.015625 36.375 
Q 16.015625 21.96875 22.65625 14.328125 
Q 29.296875 6.6875 41.796875 6.6875 
Q 48.140625 6.6875 53.78125 8.984375 
Q 59.421875 11.28125 64.40625 15.921875 
L 64.40625 5.609375 
Q 59.234375 2.09375 53.4375 0.328125 
Q 47.65625 -1.421875 41.21875 -1.421875 
Q 24.65625 -1.421875 15.125 8.703125 
Q 5.609375 18.84375 5.609375 36.375 
Q 5.609375 53.953125 15.125 64.078125 
Q 24.65625 74.21875 41.21875 74.21875 
Q 47.75 74.21875 53.53125 72.484375 
Q 59.328125 70.75 64.40625 67.28125 
z
" id="DejaVuSans-43"/>
     <path d="M 54.890625 33.015625 
L 54.890625 0 
L 45.90625 0 
L 45.90625 32.71875 
Q 45.90625 40.484375 42.875 44.328125 
Q 39.84375 48.1875 33.796875 48.1875 
Q 26.515625 48.1875 22.3125 43.546875 
Q 18.109375 38.921875 18.109375 30.90625 
L 18.109375 0 
L 9.078125 0 
L 9.078125 75.984375 
L 18.109375 75.984375 
L 18.109375 46.1875 
Q 21.34375 51.125 25.703125 53.5625 
Q 30.078125 56 35.796875 56 
Q 45.21875 56 50.046875 50.171875 
Q 54.890625 44.34375 54.890625 33.015625 
z
" id="DejaVuSans-68"/>
     <path d="M 54.890625 33.015625 
L 54.890625 0 
L 45.90625 0 
L 45.90625 32.71875 
Q 45.90625 40.484375 42.875 44.328125 
Q 39.84375 48.1875 33.796875 48.1875 
Q 26.515625 48.1875 22.3125 43.546875 
Q 18.109375 38.921875 18.109375 30.90625 
L 18.109375 0 
L 9.078125 0 
L 9.078125 54.6875 
L 18.109375 54.6875 
L 18.109375 46.1875 
Q 21.34375 51.125 25.703125 53.5625 
Q 30.078125 56 35.796875 56 
Q 45.21875 56 50.046875 50.171875 
Q 54.890625 44.34375 54.890625 33.015625 
z
" id="DejaVuSans-6e"/>
     <path d="M 4.890625 31.390625 
L 31.203125 31.390625 
L 31.203125 23.390625 
L 4.890625 23.390625 
z
" id="DejaVuSans-2d"/>
     <path d="M 8.6875 72.90625 
L 18.609375 72.90625 
L 18.609375 28.609375 
Q 18.609375 16.890625 22.84375 11.734375 
Q 27.09375 6.59375 36.625 6.59375 
Q 46.09375 6.59375 50.34375 11.734375 
Q 54.59375 16.890625 54.59375 28.609375 
L 54.59375 72.90625 
L 64.5 72.90625 
L 64.5 27.390625 
Q 64.5 13.140625 57.4375 5.859375 
Q 50.390625 -1.421875 36.625 -1.421875 
Q 22.796875 -1.421875 15.734375 5.859375 
Q 8.6875 13.140625 8.6875 27.390625 
z
" id="DejaVuSans-55"/>
    </defs>
    <g transform="translate(178.069687 35.472)scale(0.12 -0.12)">
     <use xlink:href="#DejaVuSans-43"/>
     <use x="69.824219" xlink:href="#DejaVuSans-68"/>
     <use x="133.203125" xlink:href="#DejaVuSans-61"/>
     <use x="194.482422" xlink:href="#DejaVuSans-6e"/>
     <use x="257.861328" xlink:href="#DejaVuSans-6e"/>
     <use x="321.240234" xlink:href="#DejaVuSans-65"/>
     <use x="382.763672" xlink:href="#DejaVuSans-6c"/>
     <use x="410.546875" xlink:href="#DejaVuSans-20"/>
     <use x="442.333984" xlink:href="#DejaVuSans-32"/>
     <use x="505.957031" xlink:href="#DejaVuSans-31"/>
     <use x="569.580078" xlink:href="#DejaVuSans-20"/>
     <use x="601.367188" xlink:href="#DejaVuSans-2d"/>
     <use x="637.451172" xlink:href="#DejaVuSans-20"/>
     <use x="669.238281" xlink:href="#DejaVuSans-55"/>
     <use x="742.431641" xlink:href="#DejaVuSans-6e"/>
     <use x="805.810547" xlink:href="#DejaVuSans-69"/>
     <use x="833.59375" xlink:href="#DejaVuSans-74"/>
     <use x="872.802734" xlink:href="#DejaVuSans-20"/>
     <use x="904.589844" xlink:href="#DejaVuSans-31"/>
    </g>
   </g>
  </g>
 </g>
 <defs>
  <clipPath id="pe2f3ca8fb6">
   <rect height="266.112" width="357.12" x="57.6" y="41.472"/>
  </clipPath>
 </defs>
</svg>
