<?xml version="1.0" encoding="utf-8" standalone="no"?>
<!DOCTYPE svg PUBLIC "-//W3C//DTD SVG 1.1//EN"
  "http://www.w3.org/Graphics/SVG/1.1/DTD/svg11.dtd">
<!-- Created with matplotlib (http://matplotlib.org/) -->
<svg height="345pt" version="1.1" viewBox="0 0 460 345" width="460pt" xmlns="http://www.w3.org/2000/svg" xmlns:xlink="http://www.w3.org/1999/xlink">
 <defs>
  <style type="text/css">
*{stroke-linecap:butt;stroke-linejoin:round;}
  </style>
 </defs>
 <g id="figure_1">
  <g id="patch_1">
   <path d="M 0 345.6 
L 460.8 345.6 
L 460.8 0 
L 0 0 
z
" style="fill:#ffffff;"/>
  </g>
  <g id="axes_1">
   <g id="patch_2">
    <path d="M 57.6 307.584 
L 414.72 307.584 
L 414.72 41.472 
L 57.6 41.472 
z
" style="fill:#ffffff;"/>
   </g>
   <g id="PolyCollection_1">
    <defs>
     <path d="M 73.832727 -228.56111 
L 73.832727 -160.278893 
L 84.305455 -158.102741 
L 94.778182 -153.105683 
L 105.250909 -146.017158 
L 115.723636 -137.198336 
L 126.196364 -124.406536 
L 136.669091 -106.782843 
L 147.141818 -88.961858 
L 157.614545 -71.307697 
L 168.087273 -57.066618 
L 178.56 -56.684916 
L 189.032727 -63.9049 
L 199.505455 -71.921533 
L 209.978182 -79.409588 
L 220.450909 -87.584988 
L 230.923636 -97.547276 
L 241.396364 -108.603203 
L 251.869091 -119.350027 
L 262.341818 -129.731675 
L 272.814545 -139.985808 
L 283.287273 -150.264569 
L 293.76 -159.582907 
L 304.232727 -166.422316 
L 314.705455 -171.606005 
L 325.178182 -176.844983 
L 335.650909 -181.947924 
L 346.123636 -186.103571 
L 356.596364 -189.717068 
L 367.069091 -193.80046 
L 377.541818 -198.158759 
L 388.014545 -201.444062 
L 398.487273 -202.691094 
L 398.487273 -282.441536 
L 398.487273 -282.441536 
L 388.014545 -279.146924 
L 377.541818 -274.925651 
L 367.069091 -269.014244 
L 356.596364 -261.843316 
L 346.123636 -254.672624 
L 335.650909 -247.922115 
L 325.178182 -240.724028 
L 314.705455 -232.511045 
L 304.232727 -224.0321 
L 293.76 -216.849624 
L 283.287273 -210.87761 
L 272.814545 -203.082931 
L 262.341818 -192.2743 
L 251.869091 -180.473294 
L 241.396364 -169.148346 
L 230.923636 -158.921966 
L 220.450909 -149.901598 
L 209.978182 -141.6091 
L 199.505455 -132.11921 
L 189.032727 -119.104124 
L 178.56 -103.469522 
L 168.087273 -90.119296 
L 157.614545 -87.263375 
L 147.141818 -108.534747 
L 136.669091 -143.84524 
L 126.196364 -173.97091 
L 115.723636 -192.966189 
L 105.250909 -203.500362 
L 94.778182 -211.402813 
L 84.305455 -219.961943 
L 73.832727 -228.56111 
z
" id="m55d77e8165"/>
    </defs>
    <g clip-path="url(#p55bfe9fba0)">
     <use style="fill-opacity:0.5;" x="0" xlink:href="#m55d77e8165" y="345.6"/>
    </g>
   </g>
   <g id="matplotlib.axis_1">
    <g id="xtick_1">
     <g id="line2d_1">
      <defs>
       <path d="M 0 0 
L 0 3.5 
" id="m52a5c3c9a5" style="stroke:#000000;stroke-width:0.8;"/>
      </defs>
      <g>
       <use style="stroke:#000000;stroke-width:0.8;" x="73.832727" xlink:href="#m52a5c3c9a5" y="307.584"/>
      </g>
     </g>
     <g id="text_1">
      <!-- 0.0000 -->
      <defs>
       <path d="M 31.78125 66.40625 
Q 24.171875 66.40625 20.328125 58.90625 
Q 16.5 51.421875 16.5 36.375 
Q 16.5 21.390625 20.328125 13.890625 
Q 24.171875 6.390625 31.78125 6.390625 
Q 39.453125 6.390625 43.28125 13.890625 
Q 47.125 21.390625 47.125 36.375 
Q 47.125 51.421875 43.28125 58.90625 
Q 39.453125 66.40625 31.78125 66.40625 
z
M 31.78125 74.21875 
Q 44.046875 74.21875 50.515625 64.515625 
Q 56.984375 54.828125 56.984375 36.375 
Q 56.984375 17.96875 50.515625 8.265625 
Q 44.046875 -1.421875 31.78125 -1.421875 
Q 19.53125 -1.421875 13.0625 8.265625 
Q 6.59375 17.96875 6.59375 36.375 
Q 6.59375 54.828125 13.0625 64.515625 
Q 19.53125 74.21875 31.78125 74.21875 
z
" id="DejaVuSans-30"/>
       <path d="M 10.6875 12.40625 
L 21 12.40625 
L 21 0 
L 10.6875 0 
z
" id="DejaVuSans-2e"/>
      </defs>
      <g transform="translate(56.337415 322.182437)scale(0.1 -0.1)">
       <use xlink:href="#DejaVuSans-30"/>
       <use x="63.623047" xlink:href="#DejaVuSans-2e"/>
       <use x="95.410156" xlink:href="#DejaVuSans-30"/>
       <use x="159.033203" xlink:href="#DejaVuSans-30"/>
       <use x="222.65625" xlink:href="#DejaVuSans-30"/>
       <use x="286.279297" xlink:href="#DejaVuSans-30"/>
      </g>
     </g>
    </g>
    <g id="xtick_2">
     <g id="line2d_2">
      <g>
       <use style="stroke:#000000;stroke-width:0.8;" x="115.723636" xlink:href="#m52a5c3c9a5" y="307.584"/>
      </g>
     </g>
     <g id="text_2">
      <!-- 0.0001 -->
      <defs>
       <path d="M 12.40625 8.296875 
L 28.515625 8.296875 
L 28.515625 63.921875 
L 10.984375 60.40625 
L 10.984375 69.390625 
L 28.421875 72.90625 
L 38.28125 72.90625 
L 38.28125 8.296875 
L 54.390625 8.296875 
L 54.390625 0 
L 12.40625 0 
z
" id="DejaVuSans-31"/>
      </defs>
      <g transform="translate(98.228324 322.182437)scale(0.1 -0.1)">
       <use xlink:href="#DejaVuSans-30"/>
       <use x="63.623047" xlink:href="#DejaVuSans-2e"/>
       <use x="95.410156" xlink:href="#DejaVuSans-30"/>
       <use x="159.033203" xlink:href="#DejaVuSans-30"/>
       <use x="222.65625" xlink:href="#DejaVuSans-30"/>
       <use x="286.279297" xlink:href="#DejaVuSans-31"/>
      </g>
     </g>
    </g>
    <g id="xtick_3">
     <g id="line2d_3">
      <g>
       <use style="stroke:#000000;stroke-width:0.8;" x="157.614545" xlink:href="#m52a5c3c9a5" y="307.584"/>
      </g>
     </g>
     <g id="text_3">
      <!-- 0.0002 -->
      <defs>
       <path d="M 19.1875 8.296875 
L 53.609375 8.296875 
L 53.609375 0 
L 7.328125 0 
L 7.328125 8.296875 
Q 12.9375 14.109375 22.625 23.890625 
Q 32.328125 33.6875 34.8125 36.53125 
Q 39.546875 41.84375 41.421875 45.53125 
Q 43.3125 49.21875 43.3125 52.78125 
Q 43.3125 58.59375 39.234375 62.25 
Q 35.15625 65.921875 28.609375 65.921875 
Q 23.96875 65.921875 18.8125 64.3125 
Q 13.671875 62.703125 7.8125 59.421875 
L 7.8125 69.390625 
Q 13.765625 71.78125 18.9375 73 
Q 24.125 74.21875 28.421875 74.21875 
Q 39.75 74.21875 46.484375 68.546875 
Q 53.21875 62.890625 53.21875 53.421875 
Q 53.21875 48.921875 51.53125 44.890625 
Q 49.859375 40.875 45.40625 35.40625 
Q 44.1875 33.984375 37.640625 27.21875 
Q 31.109375 20.453125 19.1875 8.296875 
z
" id="DejaVuSans-32"/>
      </defs>
      <g transform="translate(140.119233 322.182437)scale(0.1 -0.1)">
       <use xlink:href="#DejaVuSans-30"/>
       <use x="63.623047" xlink:href="#DejaVuSans-2e"/>
       <use x="95.410156" xlink:href="#DejaVuSans-30"/>
       <use x="159.033203" xlink:href="#DejaVuSans-30"/>
       <use x="222.65625" xlink:href="#DejaVuSans-30"/>
       <use x="286.279297" xlink:href="#DejaVuSans-32"/>
      </g>
     </g>
    </g>
    <g id="xtick_4">
     <g id="line2d_4">
      <g>
       <use style="stroke:#000000;stroke-width:0.8;" x="199.505455" xlink:href="#m52a5c3c9a5" y="307.584"/>
      </g>
     </g>
     <g id="text_4">
      <!-- 0.0003 -->
      <defs>
       <path d="M 40.578125 39.3125 
Q 47.65625 37.796875 51.625 33 
Q 55.609375 28.21875 55.609375 21.1875 
Q 55.609375 10.40625 48.1875 4.484375 
Q 40.765625 -1.421875 27.09375 -1.421875 
Q 22.515625 -1.421875 17.65625 -0.515625 
Q 12.796875 0.390625 7.625 2.203125 
L 7.625 11.71875 
Q 11.71875 9.328125 16.59375 8.109375 
Q 21.484375 6.890625 26.8125 6.890625 
Q 36.078125 6.890625 40.9375 10.546875 
Q 45.796875 14.203125 45.796875 21.1875 
Q 45.796875 27.640625 41.28125 31.265625 
Q 36.765625 34.90625 28.71875 34.90625 
L 20.21875 34.90625 
L 20.21875 43.015625 
L 29.109375 43.015625 
Q 36.375 43.015625 40.234375 45.921875 
Q 44.09375 48.828125 44.09375 54.296875 
Q 44.09375 59.90625 40.109375 62.90625 
Q 36.140625 65.921875 28.71875 65.921875 
Q 24.65625 65.921875 20.015625 65.03125 
Q 15.375 64.15625 9.8125 62.3125 
L 9.8125 71.09375 
Q 15.4375 72.65625 20.34375 73.4375 
Q 25.25 74.21875 29.59375 74.21875 
Q 40.828125 74.21875 47.359375 69.109375 
Q 53.90625 64.015625 53.90625 55.328125 
Q 53.90625 49.265625 50.4375 45.09375 
Q 46.96875 40.921875 40.578125 39.3125 
z
" id="DejaVuSans-33"/>
      </defs>
      <g transform="translate(182.010142 322.182437)scale(0.1 -0.1)">
       <use xlink:href="#DejaVuSans-30"/>
       <use x="63.623047" xlink:href="#DejaVuSans-2e"/>
       <use x="95.410156" xlink:href="#DejaVuSans-30"/>
       <use x="159.033203" xlink:href="#DejaVuSans-30"/>
       <use x="222.65625" xlink:href="#DejaVuSans-30"/>
       <use x="286.279297" xlink:href="#DejaVuSans-33"/>
      </g>
     </g>
    </g>
    <g id="xtick_5">
     <g id="line2d_5">
      <g>
       <use style="stroke:#000000;stroke-width:0.8;" x="241.396364" xlink:href="#m52a5c3c9a5" y="307.584"/>
      </g>
     </g>
     <g id="text_5">
      <!-- 0.0004 -->
      <defs>
       <path d="M 37.796875 64.3125 
L 12.890625 25.390625 
L 37.796875 25.390625 
z
M 35.203125 72.90625 
L 47.609375 72.90625 
L 47.609375 25.390625 
L 58.015625 25.390625 
L 58.015625 17.1875 
L 47.609375 17.1875 
L 47.609375 0 
L 37.796875 0 
L 37.796875 17.1875 
L 4.890625 17.1875 
L 4.890625 26.703125 
z
" id="DejaVuSans-34"/>
      </defs>
      <g transform="translate(223.901051 322.182437)scale(0.1 -0.1)">
       <use xlink:href="#DejaVuSans-30"/>
       <use x="63.623047" xlink:href="#DejaVuSans-2e"/>
       <use x="95.410156" xlink:href="#DejaVuSans-30"/>
       <use x="159.033203" xlink:href="#DejaVuSans-30"/>
       <use x="222.65625" xlink:href="#DejaVuSans-30"/>
       <use x="286.279297" xlink:href="#DejaVuSans-34"/>
      </g>
     </g>
    </g>
    <g id="xtick_6">
     <g id="line2d_6">
      <g>
       <use style="stroke:#000000;stroke-width:0.8;" x="283.287273" xlink:href="#m52a5c3c9a5" y="307.584"/>
      </g>
     </g>
     <g id="text_6">
      <!-- 0.0005 -->
      <defs>
       <path d="M 10.796875 72.90625 
L 49.515625 72.90625 
L 49.515625 64.59375 
L 19.828125 64.59375 
L 19.828125 46.734375 
Q 21.96875 47.46875 24.109375 47.828125 
Q 26.265625 48.1875 28.421875 48.1875 
Q 40.625 48.1875 47.75 41.5 
Q 54.890625 34.8125 54.890625 23.390625 
Q 54.890625 11.625 47.5625 5.09375 
Q 40.234375 -1.421875 26.90625 -1.421875 
Q 22.3125 -1.421875 17.546875 -0.640625 
Q 12.796875 0.140625 7.71875 1.703125 
L 7.71875 11.625 
Q 12.109375 9.234375 16.796875 8.0625 
Q 21.484375 6.890625 26.703125 6.890625 
Q 35.15625 6.890625 40.078125 11.328125 
Q 45.015625 15.765625 45.015625 23.390625 
Q 45.015625 31 40.078125 35.4375 
Q 35.15625 39.890625 26.703125 39.890625 
Q 22.75 39.890625 18.8125 39.015625 
Q 14.890625 38.140625 10.796875 36.28125 
z
" id="DejaVuSans-35"/>
      </defs>
      <g transform="translate(265.79196 322.182437)scale(0.1 -0.1)">
       <use xlink:href="#DejaVuSans-30"/>
       <use x="63.623047" xlink:href="#DejaVuSans-2e"/>
       <use x="95.410156" xlink:href="#DejaVuSans-30"/>
       <use x="159.033203" xlink:href="#DejaVuSans-30"/>
       <use x="222.65625" xlink:href="#DejaVuSans-30"/>
       <use x="286.279297" xlink:href="#DejaVuSans-35"/>
      </g>
     </g>
    </g>
    <g id="xtick_7">
     <g id="line2d_7">
      <g>
       <use style="stroke:#000000;stroke-width:0.8;" x="325.178182" xlink:href="#m52a5c3c9a5" y="307.584"/>
      </g>
     </g>
     <g id="text_7">
      <!-- 0.0006 -->
      <defs>
       <path d="M 33.015625 40.375 
Q 26.375 40.375 22.484375 35.828125 
Q 18.609375 31.296875 18.609375 23.390625 
Q 18.609375 15.53125 22.484375 10.953125 
Q 26.375 6.390625 33.015625 6.390625 
Q 39.65625 6.390625 43.53125 10.953125 
Q 47.40625 15.53125 47.40625 23.390625 
Q 47.40625 31.296875 43.53125 35.828125 
Q 39.65625 40.375 33.015625 40.375 
z
M 52.59375 71.296875 
L 52.59375 62.3125 
Q 48.875 64.0625 45.09375 64.984375 
Q 41.3125 65.921875 37.59375 65.921875 
Q 27.828125 65.921875 22.671875 59.328125 
Q 17.53125 52.734375 16.796875 39.40625 
Q 19.671875 43.65625 24.015625 45.921875 
Q 28.375 48.1875 33.59375 48.1875 
Q 44.578125 48.1875 50.953125 41.515625 
Q 57.328125 34.859375 57.328125 23.390625 
Q 57.328125 12.15625 50.6875 5.359375 
Q 44.046875 -1.421875 33.015625 -1.421875 
Q 20.359375 -1.421875 13.671875 8.265625 
Q 6.984375 17.96875 6.984375 36.375 
Q 6.984375 53.65625 15.1875 63.9375 
Q 23.390625 74.21875 37.203125 74.21875 
Q 40.921875 74.21875 44.703125 73.484375 
Q 48.484375 72.75 52.59375 71.296875 
z
" id="DejaVuSans-36"/>
      </defs>
      <g transform="translate(307.682869 322.182437)scale(0.1 -0.1)">
       <use xlink:href="#DejaVuSans-30"/>
       <use x="63.623047" xlink:href="#DejaVuSans-2e"/>
       <use x="95.410156" xlink:href="#DejaVuSans-30"/>
       <use x="159.033203" xlink:href="#DejaVuSans-30"/>
       <use x="222.65625" xlink:href="#DejaVuSans-30"/>
       <use x="286.279297" xlink:href="#DejaVuSans-36"/>
      </g>
     </g>
    </g>
    <g id="xtick_8">
     <g id="line2d_8">
      <g>
       <use style="stroke:#000000;stroke-width:0.8;" x="367.069091" xlink:href="#m52a5c3c9a5" y="307.584"/>
      </g>
     </g>
     <g id="text_8">
      <!-- 0.0007 -->
      <defs>
       <path d="M 8.203125 72.90625 
L 55.078125 72.90625 
L 55.078125 68.703125 
L 28.609375 0 
L 18.3125 0 
L 43.21875 64.59375 
L 8.203125 64.59375 
z
" id="DejaVuSans-37"/>
      </defs>
      <g transform="translate(349.573778 322.182437)scale(0.1 -0.1)">
       <use xlink:href="#DejaVuSans-30"/>
       <use x="63.623047" xlink:href="#DejaVuSans-2e"/>
       <use x="95.410156" xlink:href="#DejaVuSans-30"/>
       <use x="159.033203" xlink:href="#DejaVuSans-30"/>
       <use x="222.65625" xlink:href="#DejaVuSans-30"/>
       <use x="286.279297" xlink:href="#DejaVuSans-37"/>
      </g>
     </g>
    </g>
    <g id="xtick_9">
     <g id="line2d_9">
      <g>
       <use style="stroke:#000000;stroke-width:0.8;" x="408.96" xlink:href="#m52a5c3c9a5" y="307.584"/>
      </g>
     </g>
     <g id="text_9">
      <!-- 0.0008 -->
      <defs>
       <path d="M 31.78125 34.625 
Q 24.75 34.625 20.71875 30.859375 
Q 16.703125 27.09375 16.703125 20.515625 
Q 16.703125 13.921875 20.71875 10.15625 
Q 24.75 6.390625 31.78125 6.390625 
Q 38.8125 6.390625 42.859375 10.171875 
Q 46.921875 13.96875 46.921875 20.515625 
Q 46.921875 27.09375 42.890625 30.859375 
Q 38.875 34.625 31.78125 34.625 
z
M 21.921875 38.8125 
Q 15.578125 40.375 12.03125 44.71875 
Q 8.5 49.078125 8.5 55.328125 
Q 8.5 64.0625 14.71875 69.140625 
Q 20.953125 74.21875 31.78125 74.21875 
Q 42.671875 74.21875 48.875 69.140625 
Q 55.078125 64.0625 55.078125 55.328125 
Q 55.078125 49.078125 51.53125 44.71875 
Q 48 40.375 41.703125 38.8125 
Q 48.828125 37.15625 52.796875 32.3125 
Q 56.78125 27.484375 56.78125 20.515625 
Q 56.78125 9.90625 50.3125 4.234375 
Q 43.84375 -1.421875 31.78125 -1.421875 
Q 19.734375 -1.421875 13.25 4.234375 
Q 6.78125 9.90625 6.78125 20.515625 
Q 6.78125 27.484375 10.78125 32.3125 
Q 14.796875 37.15625 21.921875 38.8125 
z
M 18.3125 54.390625 
Q 18.3125 48.734375 21.84375 45.5625 
Q 25.390625 42.390625 31.78125 42.390625 
Q 38.140625 42.390625 41.71875 45.5625 
Q 45.3125 48.734375 45.3125 54.390625 
Q 45.3125 60.0625 41.71875 63.234375 
Q 38.140625 66.40625 31.78125 66.40625 
Q 25.390625 66.40625 21.84375 63.234375 
Q 18.3125 60.0625 18.3125 54.390625 
z
" id="DejaVuSans-38"/>
      </defs>
      <g transform="translate(391.464687 322.182437)scale(0.1 -0.1)">
       <use xlink:href="#DejaVuSans-30"/>
       <use x="63.623047" xlink:href="#DejaVuSans-2e"/>
       <use x="95.410156" xlink:href="#DejaVuSans-30"/>
       <use x="159.033203" xlink:href="#DejaVuSans-30"/>
       <use x="222.65625" xlink:href="#DejaVuSans-30"/>
       <use x="286.279297" xlink:href="#DejaVuSans-38"/>
      </g>
     </g>
    </g>
    <g id="text_10">
     <!-- Time (s) -->
     <defs>
      <path d="M -0.296875 72.90625 
L 61.375 72.90625 
L 61.375 64.59375 
L 35.5 64.59375 
L 35.5 0 
L 25.59375 0 
L 25.59375 64.59375 
L -0.296875 64.59375 
z
" id="DejaVuSans-54"/>
      <path d="M 9.421875 54.6875 
L 18.40625 54.6875 
L 18.40625 0 
L 9.421875 0 
z
M 9.421875 75.984375 
L 18.40625 75.984375 
L 18.40625 64.59375 
L 9.421875 64.59375 
z
" id="DejaVuSans-69"/>
      <path d="M 52 44.1875 
Q 55.375 50.25 60.0625 53.125 
Q 64.75 56 71.09375 56 
Q 79.640625 56 84.28125 50.015625 
Q 88.921875 44.046875 88.921875 33.015625 
L 88.921875 0 
L 79.890625 0 
L 79.890625 32.71875 
Q 79.890625 40.578125 77.09375 44.375 
Q 74.3125 48.1875 68.609375 48.1875 
Q 61.625 48.1875 57.5625 43.546875 
Q 53.515625 38.921875 53.515625 30.90625 
L 53.515625 0 
L 44.484375 0 
L 44.484375 32.71875 
Q 44.484375 40.625 41.703125 44.40625 
Q 38.921875 48.1875 33.109375 48.1875 
Q 26.21875 48.1875 22.15625 43.53125 
Q 18.109375 38.875 18.109375 30.90625 
L 18.109375 0 
L 9.078125 0 
L 9.078125 54.6875 
L 18.109375 54.6875 
L 18.109375 46.1875 
Q 21.1875 51.21875 25.484375 53.609375 
Q 29.78125 56 35.6875 56 
Q 41.65625 56 45.828125 52.96875 
Q 50 49.953125 52 44.1875 
z
" id="DejaVuSans-6d"/>
      <path d="M 56.203125 29.59375 
L 56.203125 25.203125 
L 14.890625 25.203125 
Q 15.484375 15.921875 20.484375 11.0625 
Q 25.484375 6.203125 34.421875 6.203125 
Q 39.59375 6.203125 44.453125 7.46875 
Q 49.3125 8.734375 54.109375 11.28125 
L 54.109375 2.78125 
Q 49.265625 0.734375 44.1875 -0.34375 
Q 39.109375 -1.421875 33.890625 -1.421875 
Q 20.796875 -1.421875 13.15625 6.1875 
Q 5.515625 13.8125 5.515625 26.8125 
Q 5.515625 40.234375 12.765625 48.109375 
Q 20.015625 56 32.328125 56 
Q 43.359375 56 49.78125 48.890625 
Q 56.203125 41.796875 56.203125 29.59375 
z
M 47.21875 32.234375 
Q 47.125 39.59375 43.09375 43.984375 
Q 39.0625 48.390625 32.421875 48.390625 
Q 24.90625 48.390625 20.390625 44.140625 
Q 15.875 39.890625 15.1875 32.171875 
z
" id="DejaVuSans-65"/>
      <path id="DejaVuSans-20"/>
      <path d="M 31 75.875 
Q 24.46875 64.65625 21.28125 53.65625 
Q 18.109375 42.671875 18.109375 31.390625 
Q 18.109375 20.125 21.3125 9.0625 
Q 24.515625 -2 31 -13.1875 
L 23.1875 -13.1875 
Q 15.875 -1.703125 12.234375 9.375 
Q 8.59375 20.453125 8.59375 31.390625 
Q 8.59375 42.28125 12.203125 53.3125 
Q 15.828125 64.359375 23.1875 75.875 
z
" id="DejaVuSans-28"/>
      <path d="M 44.28125 53.078125 
L 44.28125 44.578125 
Q 40.484375 46.53125 36.375 47.5 
Q 32.28125 48.484375 27.875 48.484375 
Q 21.1875 48.484375 17.84375 46.4375 
Q 14.5 44.390625 14.5 40.28125 
Q 14.5 37.15625 16.890625 35.375 
Q 19.28125 33.59375 26.515625 31.984375 
L 29.59375 31.296875 
Q 39.15625 29.25 43.1875 25.515625 
Q 47.21875 21.78125 47.21875 15.09375 
Q 47.21875 7.46875 41.1875 3.015625 
Q 35.15625 -1.421875 24.609375 -1.421875 
Q 20.21875 -1.421875 15.453125 -0.5625 
Q 10.6875 0.296875 5.421875 2 
L 5.421875 11.28125 
Q 10.40625 8.6875 15.234375 7.390625 
Q 20.0625 6.109375 24.8125 6.109375 
Q 31.15625 6.109375 34.5625 8.28125 
Q 37.984375 10.453125 37.984375 14.40625 
Q 37.984375 18.0625 35.515625 20.015625 
Q 33.0625 21.96875 24.703125 23.78125 
L 21.578125 24.515625 
Q 13.234375 26.265625 9.515625 29.90625 
Q 5.8125 33.546875 5.8125 39.890625 
Q 5.8125 47.609375 11.28125 51.796875 
Q 16.75 56 26.8125 56 
Q 31.78125 56 36.171875 55.265625 
Q 40.578125 54.546875 44.28125 53.078125 
z
" id="DejaVuSans-73"/>
      <path d="M 8.015625 75.875 
L 15.828125 75.875 
Q 23.140625 64.359375 26.78125 53.3125 
Q 30.421875 42.28125 30.421875 31.390625 
Q 30.421875 20.453125 26.78125 9.375 
Q 23.140625 -1.703125 15.828125 -13.1875 
L 8.015625 -13.1875 
Q 14.5 -2 17.703125 9.0625 
Q 20.90625 20.125 20.90625 31.390625 
Q 20.90625 42.671875 17.703125 53.65625 
Q 14.5 64.65625 8.015625 75.875 
z
" id="DejaVuSans-29"/>
     </defs>
     <g transform="translate(215.677188 335.860562)scale(0.1 -0.1)">
      <use xlink:href="#DejaVuSans-54"/>
      <use x="61.037109" xlink:href="#DejaVuSans-69"/>
      <use x="88.820312" xlink:href="#DejaVuSans-6d"/>
      <use x="186.232422" xlink:href="#DejaVuSans-65"/>
      <use x="247.755859" xlink:href="#DejaVuSans-20"/>
      <use x="279.542969" xlink:href="#DejaVuSans-28"/>
      <use x="318.556641" xlink:href="#DejaVuSans-73"/>
      <use x="370.65625" xlink:href="#DejaVuSans-29"/>
     </g>
    </g>
   </g>
   <g id="matplotlib.axis_2">
    <g id="ytick_1">
     <g id="line2d_10">
      <defs>
       <path d="M 0 0 
L -3.5 0 
" id="m92a6d8a7ca" style="stroke:#000000;stroke-width:0.8;"/>
      </defs>
      <g>
       <use style="stroke:#000000;stroke-width:0.8;" x="57.6" xlink:href="#m92a6d8a7ca" y="307.584"/>
      </g>
     </g>
     <g id="text_11">
      <!-- −50 -->
      <defs>
       <path d="M 10.59375 35.5 
L 73.1875 35.5 
L 73.1875 27.203125 
L 10.59375 27.203125 
z
" id="DejaVuSans-2212"/>
      </defs>
      <g transform="translate(29.495313 311.383219)scale(0.1 -0.1)">
       <use xlink:href="#DejaVuSans-2212"/>
       <use x="83.789062" xlink:href="#DejaVuSans-35"/>
       <use x="147.412109" xlink:href="#DejaVuSans-30"/>
      </g>
     </g>
    </g>
    <g id="ytick_2">
     <g id="line2d_11">
      <g>
       <use style="stroke:#000000;stroke-width:0.8;" x="57.6" xlink:href="#m92a6d8a7ca" y="274.32"/>
      </g>
     </g>
     <g id="text_12">
      <!-- −40 -->
      <g transform="translate(29.495313 278.119219)scale(0.1 -0.1)">
       <use xlink:href="#DejaVuSans-2212"/>
       <use x="83.789062" xlink:href="#DejaVuSans-34"/>
       <use x="147.412109" xlink:href="#DejaVuSans-30"/>
      </g>
     </g>
    </g>
    <g id="ytick_3">
     <g id="line2d_12">
      <g>
       <use style="stroke:#000000;stroke-width:0.8;" x="57.6" xlink:href="#m92a6d8a7ca" y="241.056"/>
      </g>
     </g>
     <g id="text_13">
      <!-- −30 -->
      <g transform="translate(29.495313 244.855219)scale(0.1 -0.1)">
       <use xlink:href="#DejaVuSans-2212"/>
       <use x="83.789062" xlink:href="#DejaVuSans-33"/>
       <use x="147.412109" xlink:href="#DejaVuSans-30"/>
      </g>
     </g>
    </g>
    <g id="ytick_4">
     <g id="line2d_13">
      <g>
       <use style="stroke:#000000;stroke-width:0.8;" x="57.6" xlink:href="#m92a6d8a7ca" y="207.792"/>
      </g>
     </g>
     <g id="text_14">
      <!-- −20 -->
      <g transform="translate(29.495313 211.591219)scale(0.1 -0.1)">
       <use xlink:href="#DejaVuSans-2212"/>
       <use x="83.789062" xlink:href="#DejaVuSans-32"/>
       <use x="147.412109" xlink:href="#DejaVuSans-30"/>
      </g>
     </g>
    </g>
    <g id="ytick_5">
     <g id="line2d_14">
      <g>
       <use style="stroke:#000000;stroke-width:0.8;" x="57.6" xlink:href="#m92a6d8a7ca" y="174.528"/>
      </g>
     </g>
     <g id="text_15">
      <!-- −10 -->
      <g transform="translate(29.495313 178.327219)scale(0.1 -0.1)">
       <use xlink:href="#DejaVuSans-2212"/>
       <use x="83.789062" xlink:href="#DejaVuSans-31"/>
       <use x="147.412109" xlink:href="#DejaVuSans-30"/>
      </g>
     </g>
    </g>
    <g id="ytick_6">
     <g id="line2d_15">
      <g>
       <use style="stroke:#000000;stroke-width:0.8;" x="57.6" xlink:href="#m92a6d8a7ca" y="141.264"/>
      </g>
     </g>
     <g id="text_16">
      <!-- 0 -->
      <g transform="translate(44.2375 145.063219)scale(0.1 -0.1)">
       <use xlink:href="#DejaVuSans-30"/>
      </g>
     </g>
    </g>
    <g id="ytick_7">
     <g id="line2d_16">
      <g>
       <use style="stroke:#000000;stroke-width:0.8;" x="57.6" xlink:href="#m92a6d8a7ca" y="108"/>
      </g>
     </g>
     <g id="text_17">
      <!-- 10 -->
      <g transform="translate(37.875 111.799219)scale(0.1 -0.1)">
       <use xlink:href="#DejaVuSans-31"/>
       <use x="63.623047" xlink:href="#DejaVuSans-30"/>
      </g>
     </g>
    </g>
    <g id="ytick_8">
     <g id="line2d_17">
      <g>
       <use style="stroke:#000000;stroke-width:0.8;" x="57.6" xlink:href="#m92a6d8a7ca" y="74.736"/>
      </g>
     </g>
     <g id="text_18">
      <!-- 20 -->
      <g transform="translate(37.875 78.535219)scale(0.1 -0.1)">
       <use xlink:href="#DejaVuSans-32"/>
       <use x="63.623047" xlink:href="#DejaVuSans-30"/>
      </g>
     </g>
    </g>
    <g id="ytick_9">
     <g id="line2d_18">
      <g>
       <use style="stroke:#000000;stroke-width:0.8;" x="57.6" xlink:href="#m92a6d8a7ca" y="41.472"/>
      </g>
     </g>
     <g id="text_19">
      <!-- 30 -->
      <g transform="translate(37.875 45.271219)scale(0.1 -0.1)">
       <use xlink:href="#DejaVuSans-33"/>
       <use x="63.623047" xlink:href="#DejaVuSans-30"/>
      </g>
     </g>
    </g>
    <g id="text_20">
     <!-- Voltage ($\mu$V) -->
     <defs>
      <path d="M 28.609375 0 
L 0.78125 72.90625 
L 11.078125 72.90625 
L 34.1875 11.53125 
L 57.328125 72.90625 
L 67.578125 72.90625 
L 39.796875 0 
z
" id="DejaVuSans-56"/>
      <path d="M 30.609375 48.390625 
Q 23.390625 48.390625 19.1875 42.75 
Q 14.984375 37.109375 14.984375 27.296875 
Q 14.984375 17.484375 19.15625 11.84375 
Q 23.34375 6.203125 30.609375 6.203125 
Q 37.796875 6.203125 41.984375 11.859375 
Q 46.1875 17.53125 46.1875 27.296875 
Q 46.1875 37.015625 41.984375 42.703125 
Q 37.796875 48.390625 30.609375 48.390625 
z
M 30.609375 56 
Q 42.328125 56 49.015625 48.375 
Q 55.71875 40.765625 55.71875 27.296875 
Q 55.71875 13.875 49.015625 6.21875 
Q 42.328125 -1.421875 30.609375 -1.421875 
Q 18.84375 -1.421875 12.171875 6.21875 
Q 5.515625 13.875 5.515625 27.296875 
Q 5.515625 40.765625 12.171875 48.375 
Q 18.84375 56 30.609375 56 
z
" id="DejaVuSans-6f"/>
      <path d="M 9.421875 75.984375 
L 18.40625 75.984375 
L 18.40625 0 
L 9.421875 0 
z
" id="DejaVuSans-6c"/>
      <path d="M 18.3125 70.21875 
L 18.3125 54.6875 
L 36.8125 54.6875 
L 36.8125 47.703125 
L 18.3125 47.703125 
L 18.3125 18.015625 
Q 18.3125 11.328125 20.140625 9.421875 
Q 21.96875 7.515625 27.59375 7.515625 
L 36.8125 7.515625 
L 36.8125 0 
L 27.59375 0 
Q 17.1875 0 13.234375 3.875 
Q 9.28125 7.765625 9.28125 18.015625 
L 9.28125 47.703125 
L 2.6875 47.703125 
L 2.6875 54.6875 
L 9.28125 54.6875 
L 9.28125 70.21875 
z
" id="DejaVuSans-74"/>
      <path d="M 34.28125 27.484375 
Q 23.390625 27.484375 19.1875 25 
Q 14.984375 22.515625 14.984375 16.5 
Q 14.984375 11.71875 18.140625 8.90625 
Q 21.296875 6.109375 26.703125 6.109375 
Q 34.1875 6.109375 38.703125 11.40625 
Q 43.21875 16.703125 43.21875 25.484375 
L 43.21875 27.484375 
z
M 52.203125 31.203125 
L 52.203125 0 
L 43.21875 0 
L 43.21875 8.296875 
Q 40.140625 3.328125 35.546875 0.953125 
Q 30.953125 -1.421875 24.3125 -1.421875 
Q 15.921875 -1.421875 10.953125 3.296875 
Q 6 8.015625 6 15.921875 
Q 6 25.140625 12.171875 29.828125 
Q 18.359375 34.515625 30.609375 34.515625 
L 43.21875 34.515625 
L 43.21875 35.40625 
Q 43.21875 41.609375 39.140625 45 
Q 35.0625 48.390625 27.6875 48.390625 
Q 23 48.390625 18.546875 47.265625 
Q 14.109375 46.140625 10.015625 43.890625 
L 10.015625 52.203125 
Q 14.9375 54.109375 19.578125 55.046875 
Q 24.21875 56 28.609375 56 
Q 40.484375 56 46.34375 49.84375 
Q 52.203125 43.703125 52.203125 31.203125 
z
" id="DejaVuSans-61"/>
      <path d="M 45.40625 27.984375 
Q 45.40625 37.75 41.375 43.109375 
Q 37.359375 48.484375 30.078125 48.484375 
Q 22.859375 48.484375 18.828125 43.109375 
Q 14.796875 37.75 14.796875 27.984375 
Q 14.796875 18.265625 18.828125 12.890625 
Q 22.859375 7.515625 30.078125 7.515625 
Q 37.359375 7.515625 41.375 12.890625 
Q 45.40625 18.265625 45.40625 27.984375 
z
M 54.390625 6.78125 
Q 54.390625 -7.171875 48.1875 -13.984375 
Q 42 -20.796875 29.203125 -20.796875 
Q 24.46875 -20.796875 20.265625 -20.09375 
Q 16.0625 -19.390625 12.109375 -17.921875 
L 12.109375 -9.1875 
Q 16.0625 -11.328125 19.921875 -12.34375 
Q 23.78125 -13.375 27.78125 -13.375 
Q 36.625 -13.375 41.015625 -8.765625 
Q 45.40625 -4.15625 45.40625 5.171875 
L 45.40625 9.625 
Q 42.625 4.78125 38.28125 2.390625 
Q 33.9375 0 27.875 0 
Q 17.828125 0 11.671875 7.65625 
Q 5.515625 15.328125 5.515625 27.984375 
Q 5.515625 40.671875 11.671875 48.328125 
Q 17.828125 56 27.875 56 
Q 33.9375 56 38.28125 53.609375 
Q 42.625 51.21875 45.40625 46.390625 
L 45.40625 54.6875 
L 54.390625 54.6875 
z
" id="DejaVuSans-67"/>
      <path d="M -1.3125 -20.796875 
L 13.375 54.6875 
L 22.40625 54.6875 
L 15.765625 20.65625 
Q 15.578125 19.625 15.421875 18.359375 
Q 15.28125 17.09375 15.28125 15.828125 
Q 15.28125 11.28125 18.140625 8.828125 
Q 21 6.390625 26.3125 6.390625 
Q 33.546875 6.390625 37.984375 10.484375 
Q 42.4375 14.59375 44 22.796875 
L 50.203125 54.6875 
L 59.1875 54.6875 
L 51.03125 12.640625 
Q 50.828125 11.71875 50.75 11.03125 
Q 50.6875 10.359375 50.6875 9.8125 
Q 50.6875 8.296875 51.296875 7.59375 
Q 51.90625 6.890625 53.21875 6.890625 
Q 53.71875 6.890625 54.5625 7.125 
Q 55.421875 7.375 56.984375 8.015625 
L 55.609375 0.78125 
Q 53.46875 -0.296875 51.515625 -0.859375 
Q 49.5625 -1.421875 47.703125 -1.421875 
Q 44.484375 -1.421875 42.65625 0.625 
Q 40.828125 2.6875 40.828125 6.296875 
Q 38.09375 2.390625 34.296875 0.484375 
Q 30.515625 -1.421875 25.390625 -1.421875 
Q 20.84375 -1.421875 17.453125 0.671875 
Q 14.0625 2.78125 12.984375 6.203125 
L 7.71875 -20.796875 
z
" id="DejaVuSans-Oblique-3bc"/>
     </defs>
     <g transform="translate(23.395312 205.778)rotate(-90)scale(0.1 -0.1)">
      <use transform="translate(0 0.015625)" xlink:href="#DejaVuSans-56"/>
      <use transform="translate(68.408203 0.015625)" xlink:href="#DejaVuSans-6f"/>
      <use transform="translate(129.589844 0.015625)" xlink:href="#DejaVuSans-6c"/>
      <use transform="translate(157.373047 0.015625)" xlink:href="#DejaVuSans-74"/>
      <use transform="translate(196.582031 0.015625)" xlink:href="#DejaVuSans-61"/>
      <use transform="translate(257.861328 0.015625)" xlink:href="#DejaVuSans-67"/>
      <use transform="translate(321.337891 0.015625)" xlink:href="#DejaVuSans-65"/>
      <use transform="translate(382.861328 0.015625)" xlink:href="#DejaVuSans-20"/>
      <use transform="translate(414.648438 0.015625)" xlink:href="#DejaVuSans-28"/>
      <use transform="translate(453.662109 0.015625)" xlink:href="#DejaVuSans-Oblique-3bc"/>
      <use transform="translate(517.285156 0.015625)" xlink:href="#DejaVuSans-56"/>
      <use transform="translate(585.693359 0.015625)" xlink:href="#DejaVuSans-29"/>
     </g>
    </g>
   </g>
   <g id="line2d_19">
    <path clip-path="url(#p55bfe9fba0)" d="M 73.832727 151.179998 
L 84.305455 156.567658 
L 94.778182 163.345752 
L 105.250909 170.84124 
L 115.723636 180.517738 
L 126.196364 196.411277 
L 136.669091 220.285958 
L 147.141818 246.851698 
L 157.614545 266.314464 
L 168.087273 272.007043 
L 178.56 265.522781 
L 189.032727 254.095488 
L 199.505455 243.579629 
L 209.978182 235.090656 
L 220.450909 226.856707 
L 230.923636 217.365379 
L 241.396364 206.724226 
L 251.869091 195.688339 
L 262.341818 184.597013 
L 272.814545 174.06563 
L 283.287273 165.02891 
L 293.76 157.383734 
L 304.232727 150.372792 
L 314.705455 143.541475 
L 325.178182 136.815494 
L 335.650909 130.664981 
L 346.123636 125.211902 
L 356.596364 119.819808 
L 367.069091 114.192648 
L 377.541818 109.057795 
L 388.014545 105.304507 
L 398.487273 103.033685 
" style="fill:none;stroke:#000000;stroke-linecap:square;stroke-width:1.5;"/>
   </g>
   <g id="line2d_20">
    <path clip-path="url(#p55bfe9fba0)" d="M 73.832727 138.203712 
L 84.305455 148.848192 
L 94.778182 169.604928 
L 105.250909 192.091392 
L 115.723636 208.856448 
L 126.196364 223.09344 
L 136.669091 239.991552 
L 147.141818 255.958272 
L 157.614545 263.143296 
L 168.087273 258.087168 
L 178.56 244.3824 
L 189.032727 228.149568 
L 199.505455 217.638144 
L 209.978182 216.041472 
L 220.450909 215.77536 
L 230.923636 209.388672 
L 241.396364 201.538368 
L 251.869091 199.542528 
L 262.341818 199.80864 
L 272.814545 192.889728 
L 283.287273 174.128832 
L 293.76 147.9168 
L 304.232727 125.031168 
L 314.705455 113.98752 
L 325.178182 115.051968 
L 335.650909 122.63616 
L 346.123636 127.29312 
L 356.596364 122.902272 
L 367.069091 114.785856 
L 377.541818 111.459456 
L 388.014545 112.390848 
L 398.487273 111.99168 
" style="fill:none;stroke:#ff0000;stroke-linecap:square;stroke-width:1.5;"/>
   </g>
   <g id="line2d_21">
    <path clip-path="url(#p55bfe9fba0)" d="M 73.832727 196.48224 
L 84.305455 194.619456 
L 94.778182 191.026944 
L 105.250909 187.035264 
L 115.723636 184.906368 
L 126.196364 192.889728 
L 136.669091 214.311744 
L 147.141818 242.918784 
L 157.614545 267.268032 
L 168.087273 277.247232 
L 178.56 273.521664 
L 189.032727 263.808576 
L 199.505455 251.0352 
L 209.978182 234.004032 
L 220.450909 208.45728 
L 230.923636 173.995776 
L 241.396364 142.59456 
L 251.869091 127.29312 
L 262.341818 125.164224 
L 272.814545 122.902272 
L 283.287273 113.588352 
L 293.76 101.214144 
L 304.232727 91.767168 
L 314.705455 87.110208 
L 325.178182 85.247424 
L 335.650909 87.110208 
L 346.123636 93.097728 
L 356.596364 103.476096 
L 367.069091 115.051968 
L 377.541818 120.906432 
L 388.014545 118.777536 
L 398.487273 114.253632 
" style="fill:none;stroke:#ff1e00;stroke-linecap:square;stroke-width:1.5;"/>
   </g>
   <g id="line2d_22">
    <path clip-path="url(#p55bfe9fba0)" d="M 73.832727 156.698496 
L 84.305455 152.440704 
L 94.778182 159.625728 
L 105.250909 171.467712 
L 115.723636 177.721344 
L 126.196364 183.442752 
L 136.669091 199.941696 
L 147.141818 228.016512 
L 157.614545 258.220224 
L 168.087273 277.114176 
L 178.56 277.513344 
L 189.032727 265.804416 
L 199.505455 254.893824 
L 209.978182 251.70048 
L 220.450909 247.442688 
L 230.923636 226.819008 
L 241.396364 189.16416 
L 251.869091 149.779584 
L 262.341818 121.837824 
L 272.814545 107.068608 
L 283.287273 104.6736 
L 293.76 117.31392 
L 304.232727 144.191232 
L 314.705455 174.261888 
L 325.178182 191.82528 
L 335.650909 192.889728 
L 346.123636 184.241088 
L 356.596364 172.53216 
L 367.069091 162.286848 
L 377.541818 156.033216 
L 388.014545 153.638208 
L 398.487273 156.432384 
" style="fill:none;stroke:#ff3b00;stroke-linecap:square;stroke-width:1.5;"/>
   </g>
   <g id="line2d_23">
    <path clip-path="url(#p55bfe9fba0)" d="M 73.832727 195.950016 
L 84.305455 205.79616 
L 94.778182 217.7712 
L 105.250909 219.633984 
L 115.723636 208.590336 
L 126.196364 203.534208 
L 136.669091 222.295104 
L 147.141818 255.958272 
L 157.614545 281.63808 
L 168.087273 290.952 
L 178.56 292.149504 
L 189.032727 290.419776 
L 199.505455 282.037248 
L 209.978182 269.396928 
L 220.450909 261.0144 
L 230.923636 257.954112 
L 241.396364 251.70048 
L 251.869091 236.798208 
L 262.341818 220.964544 
L 272.814545 215.642304 
L 283.287273 215.77536 
L 293.76 208.989504 
L 304.232727 196.48224 
L 314.705455 189.297216 
L 325.178182 188.099712 
L 335.650909 183.442752 
L 346.123636 172.266048 
L 356.596364 159.89184 
L 367.069091 148.449024 
L 377.541818 138.735936 
L 388.014545 132.349248 
L 398.487273 129.688128 
" style="fill:none;stroke:#ff5900;stroke-linecap:square;stroke-width:1.5;"/>
   </g>
   <g id="line2d_24">
    <path clip-path="url(#p55bfe9fba0)" d="M 73.832727 133.546752 
L 84.305455 130.61952 
L 94.778182 124.498944 
L 105.250909 131.817024 
L 115.723636 162.020736 
L 126.196364 203.667264 
L 136.669091 237.596544 
L 147.141818 256.623552 
L 157.614545 264.473856 
L 168.087273 265.139136 
L 178.56 257.821056 
L 189.032727 244.249344 
L 199.505455 230.943744 
L 209.978182 223.891776 
L 220.450909 220.565376 
L 230.923636 214.843968 
L 241.396364 208.590336 
L 251.869091 205.79616 
L 262.341818 204.199488 
L 272.814545 201.006144 
L 283.287273 196.615296 
L 293.76 188.898048 
L 304.232727 175.991616 
L 314.705455 161.754624 
L 325.178182 153.505152 
L 335.650909 154.303488 
L 346.123636 158.827392 
L 356.596364 158.827392 
L 367.069091 152.174592 
L 377.541818 143.659008 
L 388.014545 135.409536 
L 398.487273 126.228672 
" style="fill:none;stroke:#ff7600;stroke-linecap:square;stroke-width:1.5;"/>
   </g>
   <g id="line2d_25">
    <path clip-path="url(#p55bfe9fba0)" d="M 73.832727 174.128832 
L 84.305455 181.713024 
L 94.778182 187.8336 
L 105.250909 189.82944 
L 115.723636 193.688064 
L 126.196364 206.195328 
L 136.669091 226.952064 
L 147.141818 249.571584 
L 157.614545 267.933312 
L 168.087273 277.247232 
L 178.56 272.590272 
L 189.032727 255.559104 
L 199.505455 236.265984 
L 209.978182 225.488448 
L 220.450909 225.355392 
L 230.923636 229.347072 
L 241.396364 227.617344 
L 251.869091 215.509248 
L 262.341818 194.220288 
L 272.814545 170.270208 
L 283.287273 150.57792 
L 293.76 138.469824 
L 304.232727 134.744256 
L 314.705455 137.405376 
L 325.178182 139.401216 
L 335.650909 136.340928 
L 346.123636 132.482304 
L 356.596364 134.478144 
L 367.069091 139.667328 
L 377.541818 141.663168 
L 388.014545 140.465664 
L 398.487273 140.465664 
" style="fill:none;stroke:#ff9400;stroke-linecap:square;stroke-width:1.5;"/>
   </g>
   <g id="line2d_26">
    <path clip-path="url(#p55bfe9fba0)" d="M 73.832727 155.90016 
L 84.305455 182.777472 
L 94.778182 206.195328 
L 105.250909 220.033152 
L 115.723636 226.685952 
L 126.196364 233.205696 
L 136.669091 244.515456 
L 147.141818 255.69216 
L 157.614545 257.954112 
L 168.087273 249.837696 
L 178.56 232.806528 
L 189.032727 207.925056 
L 199.505455 180.249408 
L 209.978182 159.758784 
L 220.450909 156.166272 
L 230.923636 168.407424 
L 241.396364 183.043584 
L 251.869091 187.035264 
L 262.341818 183.043584 
L 272.814545 180.914688 
L 283.287273 181.579968 
L 293.76 177.987456 
L 304.232727 167.742144 
L 314.705455 158.694336 
L 325.178182 154.5696 
L 335.650909 148.981248 
L 346.123636 139.93344 
L 356.596364 132.881472 
L 367.069091 131.151744 
L 377.541818 134.744256 
L 388.014545 138.336768 
L 398.487273 135.409536 
" style="fill:none;stroke:#ffb100;stroke-linecap:square;stroke-width:1.5;"/>
   </g>
   <g id="line2d_27">
    <path clip-path="url(#p55bfe9fba0)" d="M 73.832727 165.480192 
L 84.305455 178.785792 
L 94.778182 188.764992 
L 105.250909 195.550848 
L 115.723636 206.46144 
L 126.196364 224.424 
L 136.669091 243.317952 
L 147.141818 255.958272 
L 157.614545 260.34912 
L 168.087273 256.623552 
L 178.56 242.785728 
L 189.032727 221.230656 
L 199.505455 201.405312 
L 209.978182 193.15584 
L 220.450909 191.958336 
L 230.923636 184.5072 
L 241.396364 172.132992 
L 251.869091 167.076864 
L 262.341818 170.802432 
L 272.814545 172.53216 
L 283.287273 169.338816 
L 293.76 166.810752 
L 304.232727 170.403264 
L 314.705455 176.52384 
L 325.178182 177.987456 
L 335.650909 175.725504 
L 346.123636 171.733824 
L 356.596364 166.411584 
L 367.069091 159.22656 
L 377.541818 148.449024 
L 388.014545 140.066496 
L 398.487273 143.392896 
" style="fill:none;stroke:#ffcf00;stroke-linecap:square;stroke-width:1.5;"/>
   </g>
   <g id="line2d_28">
    <path clip-path="url(#p55bfe9fba0)" d="M 73.832727 158.56128 
L 84.305455 158.56128 
L 94.778182 152.706816 
L 105.250909 151.642368 
L 115.723636 167.476032 
L 126.196364 196.48224 
L 136.669091 225.75456 
L 147.141818 248.640192 
L 157.614545 261.67968 
L 168.087273 263.409408 
L 178.56 253.03104 
L 189.032727 233.73792 
L 199.505455 214.977024 
L 209.978182 204.598656 
L 220.450909 202.46976 
L 230.923636 204.4656 
L 241.396364 204.598656 
L 251.869091 198.211968 
L 262.341818 185.305536 
L 272.814545 172.399104 
L 283.287273 164.415744 
L 293.76 160.291008 
L 304.232727 156.432384 
L 314.705455 151.509312 
L 325.178182 148.848192 
L 335.650909 152.174592 
L 346.123636 158.56128 
L 356.596364 161.88768 
L 367.069091 156.964608 
L 377.541818 143.25984 
L 388.014545 125.696448 
L 398.487273 111.858624 
" style="fill:none;stroke:#ffec00;stroke-linecap:square;stroke-width:1.5;"/>
   </g>
   <g id="line2d_29">
    <path clip-path="url(#p55bfe9fba0)" d="M 73.832727 154.968768 
L 84.305455 155.767104 
L 94.778182 169.737984 
L 105.250909 187.035264 
L 115.723636 195.550848 
L 126.196364 200.47392 
L 136.669091 214.577856 
L 147.141818 239.193216 
L 157.614545 261.67968 
L 168.087273 262.877184 
L 178.56 234.004032 
L 189.032727 188.631936 
L 199.505455 148.049856 
L 209.978182 124.365888 
L 220.450909 118.112256 
L 230.923636 124.099776 
L 241.396364 133.679808 
L 251.869091 135.010368 
L 262.341818 121.3056 
L 272.814545 102.67776 
L 283.287273 94.162176 
L 293.76 97.754688 
L 304.232727 104.806656 
L 314.705455 112.257792 
L 325.178182 121.571712 
L 335.650909 132.61536 
L 346.123636 141.796224 
L 356.596364 146.719296 
L 367.069091 147.783744 
L 377.541818 148.049856 
L 388.014545 151.376256 
L 398.487273 156.033216 
" style="fill:none;stroke:#eeff00;stroke-linecap:square;stroke-width:1.5;"/>
   </g>
   <g id="line2d_30">
    <path clip-path="url(#p55bfe9fba0)" d="M 73.832727 137.538432 
L 84.305455 135.675648 
L 94.778182 134.478144 
L 105.250909 138.070656 
L 115.723636 152.57376 
L 126.196364 179.85024 
L 136.669091 215.908416 
L 147.141818 250.902144 
L 157.614545 272.723328 
L 168.087273 275.916672 
L 178.56 268.465536 
L 189.032727 264.606912 
L 199.505455 268.33248 
L 209.978182 272.191104 
L 220.450909 269.396928 
L 230.923636 255.958272 
L 241.396364 228.947904 
L 251.869091 190.49472 
L 262.341818 151.2432 
L 272.814545 126.228672 
L 283.287273 118.777536 
L 293.76 114.6528 
L 304.232727 98.68608 
L 314.705455 75.667392 
L 325.178182 63.825408 
L 335.650909 70.74432 
L 346.123636 82.453248 
L 356.596364 78.993792 
L 367.069091 57.305664 
L 377.541818 33.754752 
L 388.014545 24.041664 
L 398.487273 24.573888 
" style="fill:none;stroke:#d1ff00;stroke-linecap:square;stroke-width:1.5;"/>
   </g>
   <g id="line2d_31">
    <path clip-path="url(#p55bfe9fba0)" d="M 73.832727 177.056064 
L 84.305455 177.8544 
L 94.778182 183.708864 
L 105.250909 203.13504 
L 115.723636 228.149568 
L 126.196364 244.116288 
L 136.669091 249.438528 
L 147.141818 251.966592 
L 157.614545 260.34912 
L 168.087273 275.118336 
L 178.56 285.363648 
L 189.032727 282.037248 
L 199.505455 268.99776 
L 209.978182 256.091328 
L 220.450909 242.918784 
L 230.923636 221.0976 
L 241.396364 192.224448 
L 251.869091 167.20992 
L 262.341818 150.045696 
L 272.814545 137.27232 
L 283.287273 126.62784 
L 293.76 117.047808 
L 304.232727 108.798336 
L 314.705455 103.875264 
L 325.178182 106.270272 
L 335.650909 115.98336 
L 346.123636 125.164224 
L 356.596364 127.692288 
L 367.069091 125.164224 
L 377.541818 119.043648 
L 388.014545 109.729728 
L 398.487273 104.141376 
" style="fill:none;stroke:#b3ff00;stroke-linecap:square;stroke-width:1.5;"/>
   </g>
   <g id="line2d_32">
    <path clip-path="url(#p55bfe9fba0)" d="M 73.832727 169.072704 
L 84.305455 163.88352 
L 94.778182 156.831552 
L 105.250909 159.359616 
L 115.723636 177.987456 
L 126.196364 206.860608 
L 136.669091 236.265984 
L 147.141818 257.155776 
L 157.614545 264.074688 
L 168.087273 256.623552 
L 178.56 241.588224 
L 189.032727 231.342912 
L 199.505455 232.540416 
L 209.978182 238.660992 
L 220.450909 235.467648 
L 230.923636 216.839808 
L 241.396364 195.683904 
L 251.869091 186.902208 
L 262.341818 190.49472 
L 272.814545 193.82112 
L 283.287273 188.631936 
L 293.76 176.390784 
L 304.232727 162.286848 
L 314.705455 151.509312 
L 325.178182 146.054016 
L 335.650909 143.659008 
L 346.123636 139.135104 
L 356.596364 129.555072 
L 367.069091 117.31392 
L 377.541818 107.600832 
L 388.014545 106.536384 
L 398.487273 111.3264 
" style="fill:none;stroke:#96ff00;stroke-linecap:square;stroke-width:1.5;"/>
   </g>
   <g id="line2d_33">
    <path clip-path="url(#p55bfe9fba0)" d="M 73.832727 184.108032 
L 84.305455 198.47808 
L 94.778182 201.671424 
L 105.250909 194.353344 
L 115.723636 188.631936 
L 126.196364 196.615296 
L 136.669091 217.372032 
L 147.141818 241.455168 
L 157.614545 259.68384 
L 168.087273 266.203584 
L 178.56 263.808576 
L 189.032727 262.611072 
L 199.505455 264.606912 
L 209.978182 261.280512 
L 220.450909 248.241024 
L 230.923636 231.342912 
L 241.396364 216.972864 
L 251.869091 206.993664 
L 262.341818 201.1392 
L 272.814545 196.48224 
L 283.287273 192.889728 
L 293.76 190.893888 
L 304.232727 187.035264 
L 314.705455 179.18496 
L 325.178182 168.274368 
L 335.650909 157.097664 
L 346.123636 147.650688 
L 356.596364 140.199552 
L 367.069091 131.550912 
L 377.541818 122.769216 
L 388.014545 115.717248 
L 398.487273 107.733888 
" style="fill:none;stroke:#78ff00;stroke-linecap:square;stroke-width:1.5;"/>
   </g>
   <g id="line2d_34">
    <path clip-path="url(#p55bfe9fba0)" d="M 73.832727 213.380352 
L 84.305455 202.868928 
L 94.778182 191.958336 
L 105.250909 185.83776 
L 115.723636 187.8336 
L 126.196364 202.203648 
L 136.669091 228.282624 
L 147.141818 252.897984 
L 157.614545 263.01024 
L 168.087273 262.478016 
L 178.56 265.804416 
L 189.032727 277.513344 
L 199.505455 290.685888 
L 209.978182 295.875072 
L 220.450909 288.29088 
L 230.923636 270.195264 
L 241.396364 246.245184 
L 251.869091 220.964544 
L 262.341818 199.409472 
L 272.814545 187.966656 
L 283.287273 189.031104 
L 293.76 198.345024 
L 304.232727 204.598656 
L 314.705455 199.409472 
L 325.178182 186.636096 
L 335.650909 177.056064 
L 346.123636 174.927168 
L 356.596364 173.86272 
L 367.069091 168.008256 
L 377.541818 158.56128 
L 388.014545 151.376256 
L 398.487273 150.844032 
" style="fill:none;stroke:#5bff00;stroke-linecap:square;stroke-width:1.5;"/>
   </g>
   <g id="line2d_35">
    <path clip-path="url(#p55bfe9fba0)" d="M 73.832727 195.550848 
L 84.305455 203.933376 
L 94.778182 203.933376 
L 105.250909 194.220288 
L 115.723636 185.83776 
L 126.196364 191.692224 
L 136.669091 212.981184 
L 147.141818 241.322112 
L 157.614545 264.473856 
L 168.087273 275.517504 
L 178.56 276.848064 
L 189.032727 274.186944 
L 199.505455 271.259712 
L 209.978182 265.804416 
L 220.450909 256.756608 
L 230.923636 246.910464 
L 241.396364 238.128768 
L 251.869091 231.342912 
L 262.341818 225.488448 
L 272.814545 216.307584 
L 283.287273 204.864768 
L 293.76 197.8128 
L 304.232727 195.550848 
L 314.705455 191.958336 
L 325.178182 183.309696 
L 335.650909 173.995776 
L 346.123636 169.20576 
L 356.596364 167.20992 
L 367.069091 164.415744 
L 377.541818 162.419904 
L 388.014545 163.484352 
L 398.487273 166.810752 
" style="fill:none;stroke:#3dff00;stroke-linecap:square;stroke-width:1.5;"/>
   </g>
   <g id="line2d_36">
    <path clip-path="url(#p55bfe9fba0)" d="M 73.832727 139.93344 
L 84.305455 126.494784 
L 94.778182 124.765056 
L 105.250909 136.340928 
L 115.723636 159.22656 
L 126.196364 193.421952 
L 136.669091 230.41152 
L 147.141818 255.825216 
L 157.614545 261.67968 
L 168.087273 248.773248 
L 178.56 224.557056 
L 189.032727 200.606976 
L 199.505455 186.369984 
L 209.978182 185.17248 
L 220.450909 190.49472 
L 230.923636 193.688064 
L 241.396364 192.889728 
L 251.869091 189.430272 
L 262.341818 178.51968 
L 272.814545 159.492672 
L 283.287273 147.118464 
L 293.76 150.710976 
L 304.232727 160.291008 
L 314.705455 163.351296 
L 325.178182 160.157952 
L 335.650909 154.702656 
L 346.123636 144.324288 
L 356.596364 126.62784 
L 367.069091 106.137216 
L 377.541818 92.432448 
L 388.014545 92.166336 
L 398.487273 100.01664 
" style="fill:none;stroke:#20ff00;stroke-linecap:square;stroke-width:1.5;"/>
   </g>
   <g id="line2d_37">
    <path clip-path="url(#p55bfe9fba0)" d="M 73.832727 142.062336 
L 84.305455 146.187072 
L 94.778182 152.706816 
L 105.250909 161.621568 
L 115.723636 173.86272 
L 126.196364 193.288896 
L 136.669091 220.565376 
L 147.141818 249.970752 
L 157.614545 272.058048 
L 168.087273 278.444736 
L 178.56 268.598592 
L 189.032727 248.107968 
L 199.505455 222.694272 
L 209.978182 196.615296 
L 220.450909 173.19744 
L 230.923636 157.896 
L 241.396364 152.307648 
L 251.869091 150.57792 
L 262.341818 150.844032 
L 272.814545 153.771264 
L 283.287273 156.698496 
L 293.76 158.827392 
L 304.232727 159.625728 
L 314.705455 153.90432 
L 325.178182 139.93344 
L 335.650909 126.228672 
L 346.123636 122.769216 
L 356.596364 130.885632 
L 367.069091 142.59456 
L 377.541818 146.719296 
L 388.014545 139.800384 
L 398.487273 128.62368 
" style="fill:none;stroke:#04ff08;stroke-linecap:square;stroke-width:1.5;"/>
   </g>
   <g id="line2d_38">
    <path clip-path="url(#p55bfe9fba0)" d="M 73.832727 172.798272 
L 84.305455 177.987456 
L 94.778182 177.056064 
L 105.250909 170.935488 
L 115.723636 166.943808 
L 126.196364 175.060224 
L 136.669091 202.336704 
L 147.141818 245.446848 
L 157.614545 287.758656 
L 168.087273 309.57984 
L 178.56 306.120384 
L 189.032727 284.432256 
L 199.505455 253.430208 
L 209.978182 222.561216 
L 220.450909 201.1392 
L 230.923636 191.692224 
L 241.396364 184.640256 
L 251.869091 167.8752 
L 262.341818 141.663168 
L 272.814545 119.575872 
L 283.287273 109.463616 
L 293.76 100.948032 
L 304.232727 83.783808 
L 314.705455 63.692352 
L 325.178182 52.11648 
L 335.650909 50.652864 
L 346.123636 52.914816 
L 356.596364 55.44288 
L 367.069091 58.370112 
L 377.541818 65.555136 
L 388.014545 80.989632 
L 398.487273 100.415808 
" style="fill:none;stroke:#00ff21;stroke-linecap:square;stroke-width:1.5;"/>
   </g>
   <g id="line2d_39">
    <path clip-path="url(#p55bfe9fba0)" d="M 73.832727 38.544768 
L 84.305455 125.563392 
L 94.778182 194.885568 
L 105.250909 219.900096 
L 115.723636 216.44064 
L 126.196364 218.303424 
L 136.669091 236.798208 
L 147.141818 256.224384 
L 157.614545 261.413568 
L 168.087273 251.434368 
L 178.56 233.07264 
L 189.032727 212.981184 
L 199.505455 197.8128 
L 209.978182 193.421952 
L 220.450909 200.074752 
L 230.923636 211.517568 
L 241.396364 220.43232 
L 251.869091 223.75872 
L 262.341818 218.170368 
L 272.814545 198.345024 
L 283.287273 172.53216 
L 293.76 162.286848 
L 304.232727 172.399104 
L 314.705455 181.313856 
L 325.178182 170.935488 
L 335.650909 152.839872 
L 346.123636 146.187072 
L 356.596364 150.977088 
L 367.069091 153.372096 
L 377.541818 148.449024 
L 388.014545 144.191232 
L 398.487273 150.311808 
" style="fill:none;stroke:#00ff3f;stroke-linecap:square;stroke-width:1.5;"/>
   </g>
   <g id="line2d_40">
    <path clip-path="url(#p55bfe9fba0)" d="M 73.832727 206.062272 
L 84.305455 205.929216 
L 94.778182 206.46144 
L 105.250909 209.388672 
L 115.723636 213.912576 
L 126.196364 223.625664 
L 136.669091 238.660992 
L 147.141818 253.563264 
L 157.614545 265.937472 
L 168.087273 275.517504 
L 178.56 279.908352 
L 189.032727 277.912512 
L 199.505455 269.929152 
L 209.978182 260.34912 
L 220.450909 254.760768 
L 230.923636 252.631872 
L 241.396364 248.507136 
L 251.869091 238.660992 
L 262.341818 224.424 
L 272.814545 208.590336 
L 283.287273 194.619456 
L 293.76 188.49888 
L 304.232727 190.627776 
L 314.705455 190.228608 
L 325.178182 179.18496 
L 335.650909 161.089344 
L 346.123636 144.457344 
L 356.596364 133.812864 
L 367.069091 128.224512 
L 377.541818 124.632 
L 388.014545 118.378368 
L 398.487273 105.871104 
" style="fill:none;stroke:#00ff5c;stroke-linecap:square;stroke-width:1.5;"/>
   </g>
   <g id="line2d_41">
    <path clip-path="url(#p55bfe9fba0)" d="M 73.832727 153.771264 
L 84.305455 168.806592 
L 94.778182 186.236928 
L 105.250909 199.276416 
L 115.723636 212.582016 
L 126.196364 229.347072 
L 136.669091 244.515456 
L 147.141818 254.095488 
L 157.614545 258.885504 
L 168.087273 256.756608 
L 178.56 242.918784 
L 189.032727 218.43648 
L 199.505455 197.546688 
L 209.978182 193.421952 
L 220.450909 200.074752 
L 230.923636 200.606976 
L 241.396364 187.8336 
L 251.869091 171.2016 
L 262.341818 160.424064 
L 272.814545 154.968768 
L 283.287273 152.174592 
L 293.76 150.844032 
L 304.232727 150.045696 
L 314.705455 148.315968 
L 325.178182 146.187072 
L 335.650909 146.187072 
L 346.123636 146.852352 
L 356.596364 146.453184 
L 367.069091 147.384576 
L 377.541818 148.315968 
L 388.014545 144.5904 
L 398.487273 136.207872 
" style="fill:none;stroke:#00ff7a;stroke-linecap:square;stroke-width:1.5;"/>
   </g>
   <g id="line2d_42">
    <path clip-path="url(#p55bfe9fba0)" d="M 73.832727 176.52384 
L 84.305455 181.713024 
L 94.778182 178.51968 
L 105.250909 175.326336 
L 115.723636 181.1808 
L 126.196364 198.877248 
L 136.669091 226.685952 
L 147.141818 253.03104 
L 157.614545 262.478016 
L 168.087273 252.631872 
L 178.56 237.7296 
L 189.032727 228.41568 
L 199.505455 221.363712 
L 209.978182 216.174528 
L 220.450909 216.972864 
L 230.923636 218.170368 
L 241.396364 209.920896 
L 251.869091 192.357504 
L 262.341818 173.86272 
L 272.814545 158.694336 
L 283.287273 146.719296 
L 293.76 140.066496 
L 304.232727 138.868992 
L 314.705455 136.207872 
L 325.178182 127.9584 
L 335.650909 122.103936 
L 346.123636 126.760896 
L 356.596364 137.27232 
L 367.069091 139.800384 
L 377.541818 129.28896 
L 388.014545 115.31808 
L 398.487273 106.935552 
" style="fill:none;stroke:#00ff97;stroke-linecap:square;stroke-width:1.5;"/>
   </g>
   <g id="line2d_43">
    <path clip-path="url(#p55bfe9fba0)" d="M 73.832727 60.09984 
L 84.305455 62.76096 
L 94.778182 73.937664 
L 105.250909 91.501056 
L 115.723636 122.63616 
L 126.196364 170.403264 
L 136.669091 221.0976 
L 147.141818 257.554944 
L 157.614545 276.31584 
L 168.087273 282.037248 
L 178.56 277.513344 
L 189.032727 266.602752 
L 199.505455 255.825216 
L 209.978182 247.442688 
L 220.450909 238.39488 
L 230.923636 228.282624 
L 241.396364 221.496768 
L 251.869091 218.43648 
L 262.341818 212.182848 
L 272.814545 198.47808 
L 283.287273 180.781632 
L 293.76 163.88352 
L 304.232727 149.114304 
L 314.705455 134.345088 
L 325.178182 121.97088 
L 335.650909 118.245312 
L 346.123636 120.374208 
L 356.596364 114.918912 
L 367.069091 98.419968 
L 377.541818 83.251584 
L 388.014545 78.993792 
L 398.487273 81.921024 
" style="fill:none;stroke:#00ffb5;stroke-linecap:square;stroke-width:1.5;"/>
   </g>
   <g id="line2d_44">
    <path clip-path="url(#p55bfe9fba0)" d="M 73.832727 151.90848 
L 84.305455 142.860672 
L 94.778182 135.27648 
L 105.250909 133.679808 
L 115.723636 141.92928 
L 126.196364 165.21408 
L 136.669091 204.864768 
L 147.141818 247.841856 
L 157.614545 275.783616 
L 168.087273 284.831424 
L 178.56 281.505024 
L 189.032727 269.929152 
L 199.505455 257.02272 
L 209.978182 251.833536 
L 220.450909 252.631872 
L 230.923636 248.507136 
L 241.396364 230.943744 
L 251.869091 206.062272 
L 262.341818 185.970816 
L 272.814545 172.266048 
L 283.287273 162.55296 
L 293.76 154.968768 
L 304.232727 147.25152 
L 314.705455 137.9376 
L 325.178182 127.9584 
L 335.650909 120.773376 
L 346.123636 119.708928 
L 356.596364 122.503104 
L 367.069091 119.708928 
L 377.541818 105.471936 
L 388.014545 86.844096 
L 398.487273 75.135168 
" style="fill:none;stroke:#00ffd3;stroke-linecap:square;stroke-width:1.5;"/>
   </g>
   <g id="line2d_45">
    <path clip-path="url(#p55bfe9fba0)" d="M 73.832727 150.311808 
L 84.305455 148.315968 
L 94.778182 148.315968 
L 105.250909 149.513472 
L 115.723636 155.101824 
L 126.196364 174.927168 
L 136.669091 210.852288 
L 147.141818 247.176576 
L 157.614545 268.598592 
L 168.087273 277.380288 
L 178.56 283.63392 
L 189.032727 288.556992 
L 199.505455 289.089216 
L 209.978182 282.30336 
L 220.450909 266.868864 
L 230.923636 244.116288 
L 241.396364 220.565376 
L 251.869091 203.667264 
L 262.341818 191.16 
L 272.814545 174.128832 
L 283.287273 155.767104 
L 293.76 147.118464 
L 304.232727 150.977088 
L 314.705455 154.835712 
L 325.178182 145.521792 
L 335.650909 127.29312 
L 346.123636 115.185024 
L 356.596364 113.588352 
L 367.069091 112.523904 
L 377.541818 108.266112 
L 388.014545 103.476096 
L 398.487273 96.291072 
" style="fill:none;stroke:#00fff6;stroke-linecap:square;stroke-width:1.5;"/>
   </g>
   <g id="line2d_46">
    <path clip-path="url(#p55bfe9fba0)" d="M 73.832727 180.781632 
L 84.305455 198.211968 
L 94.778182 210.719232 
L 105.250909 213.513408 
L 115.723636 215.908416 
L 126.196364 226.819008 
L 136.669091 243.05184 
L 147.141818 256.224384 
L 157.614545 258.35328 
L 168.087273 247.442688 
L 178.56 230.544576 
L 189.032727 218.702592 
L 199.505455 214.710912 
L 209.978182 211.1184 
L 220.450909 198.744192 
L 230.923636 181.313856 
L 241.396364 171.467712 
L 251.869091 172.266048 
L 262.341818 172.266048 
L 272.814545 162.286848 
L 283.287273 150.178752 
L 293.76 145.25568 
L 304.232727 144.856512 
L 314.705455 140.997888 
L 325.178182 133.014528 
L 335.650909 124.898112 
L 346.123636 117.446976 
L 356.596364 109.33056 
L 367.069091 101.746368 
L 377.541818 95.226624 
L 388.014545 86.311872 
L 398.487273 76.332672 
" style="fill:none;stroke:#00eaff;stroke-linecap:square;stroke-width:1.5;"/>
   </g>
   <g id="line2d_47">
    <path clip-path="url(#p55bfe9fba0)" d="M 73.832727 147.9168 
L 84.305455 170.004096 
L 94.778182 172.665216 
L 105.250909 158.162112 
L 115.723636 146.320128 
L 126.196364 160.690176 
L 136.669091 200.47392 
L 147.141818 242.38656 
L 157.614545 268.199424 
L 168.087273 279.908352 
L 178.56 286.428096 
L 189.032727 292.681728 
L 199.505455 297.205632 
L 209.978182 293.347008 
L 220.450909 278.710848 
L 230.923636 258.885504 
L 241.396364 239.592384 
L 251.869091 223.359552 
L 262.341818 211.650624 
L 272.814545 204.199488 
L 283.287273 195.550848 
L 293.76 181.446912 
L 304.232727 166.810752 
L 314.705455 156.166272 
L 325.178182 147.384576 
L 335.650909 138.336768 
L 346.123636 127.426176 
L 356.596364 116.382528 
L 367.069091 110.128896 
L 377.541818 107.866944 
L 388.014545 105.33888 
L 398.487273 101.879424 
" style="fill:none;stroke:#00cdff;stroke-linecap:square;stroke-width:1.5;"/>
   </g>
   <g id="line2d_48">
    <path clip-path="url(#p55bfe9fba0)" d="M 73.832727 144.723456 
L 84.305455 146.58624 
L 94.778182 140.066496 
L 105.250909 129.555072 
L 115.723636 125.563392 
L 126.196364 145.92096 
L 136.669091 194.752512 
L 147.141818 247.841856 
L 157.614545 277.912512 
L 168.087273 280.9728 
L 178.56 273.388608 
L 189.032727 269.130816 
L 199.505455 266.33664 
L 209.978182 255.958272 
L 220.450909 235.467648 
L 230.923636 213.77952 
L 241.396364 205.396992 
L 251.869091 210.586176 
L 262.341818 214.577856 
L 272.814545 206.46144 
L 283.287273 189.962496 
L 293.76 175.725504 
L 304.232727 162.686016 
L 314.705455 134.212032 
L 325.178182 81.787968 
L 335.650909 25.638336 
L 343.971073 -1 
" style="fill:none;stroke:#00afff;stroke-linecap:square;stroke-width:1.5;"/>
   </g>
   <g id="line2d_49">
    <path clip-path="url(#p55bfe9fba0)" d="M 73.832727 106.270272 
L 84.305455 115.31808 
L 94.778182 127.160064 
L 105.250909 140.864832 
L 115.723636 158.694336 
L 126.196364 184.5072 
L 136.669091 214.843968 
L 147.141818 242.785728 
L 157.614545 264.739968 
L 168.087273 279.509184 
L 178.56 288.95616 
L 189.032727 293.480064 
L 199.505455 291.750336 
L 209.978182 284.2992 
L 220.450909 272.32416 
L 230.923636 256.756608 
L 241.396364 239.459328 
L 251.869091 226.286784 
L 262.341818 222.827328 
L 272.814545 225.621504 
L 283.287273 222.960384 
L 293.76 208.324224 
L 304.232727 186.50304 
L 314.705455 167.742144 
L 325.178182 160.291008 
L 335.650909 163.617408 
L 346.123636 168.673536 
L 356.596364 166.810752 
L 367.069091 156.964608 
L 377.541818 145.25568 
L 388.014545 137.804544 
L 398.487273 139.26816 
" style="fill:none;stroke:#0092ff;stroke-linecap:square;stroke-width:1.5;"/>
   </g>
   <g id="line2d_50">
    <path clip-path="url(#p55bfe9fba0)" d="M 73.832727 147.25152 
L 84.305455 152.041536 
L 94.778182 154.037376 
L 105.250909 160.956288 
L 115.723636 176.52384 
L 126.196364 200.740032 
L 136.669091 230.145408 
L 147.141818 255.292992 
L 157.614545 265.538304 
L 168.087273 261.413568 
L 178.56 251.567424 
L 189.032727 241.455168 
L 199.505455 233.870976 
L 209.978182 232.540416 
L 220.450909 237.463488 
L 230.923636 244.648512 
L 241.396364 250.769088 
L 251.869091 252.897984 
L 262.341818 246.245184 
L 272.814545 231.609024 
L 283.287273 215.77536 
L 293.76 204.731712 
L 304.232727 199.675584 
L 314.705455 192.756672 
L 325.178182 181.713024 
L 335.650909 174.261888 
L 346.123636 172.665216 
L 356.596364 169.072704 
L 367.069091 158.295168 
L 377.541818 145.787904 
L 388.014545 142.59456 
L 398.487273 148.981248 
" style="fill:none;stroke:#0074ff;stroke-linecap:square;stroke-width:1.5;"/>
   </g>
   <g id="line2d_51">
    <path clip-path="url(#p55bfe9fba0)" d="M 73.832727 176.52384 
L 84.305455 168.274368 
L 94.778182 169.471872 
L 105.250909 177.8544 
L 115.723636 192.49056 
L 126.196364 210.586176 
L 136.669091 228.548736 
L 147.141818 247.176576 
L 157.614545 265.538304 
L 168.087273 278.178624 
L 178.56 280.30752 
L 189.032727 272.856384 
L 199.505455 263.941632 
L 209.978182 260.34912 
L 220.450909 259.550784 
L 230.923636 255.159936 
L 241.396364 245.579904 
L 251.869091 229.214016 
L 262.341818 206.594496 
L 272.814545 186.236928 
L 283.287273 177.588288 
L 293.76 179.85024 
L 304.232727 180.648576 
L 314.705455 174.661056 
L 325.178182 167.342976 
L 335.650909 159.758784 
L 346.123636 152.041536 
L 356.596364 144.5904 
L 367.069091 138.469824 
L 377.541818 135.94176 
L 388.014545 136.473984 
L 398.487273 133.812864 
" style="fill:none;stroke:#0057ff;stroke-linecap:square;stroke-width:1.5;"/>
   </g>
   <g id="line2d_52">
    <path clip-path="url(#p55bfe9fba0)" d="M 73.832727 165.613248 
L 84.305455 172.665216 
L 94.778182 180.648576 
L 105.250909 192.756672 
L 115.723636 209.654784 
L 126.196364 226.552896 
L 136.669091 240.124608 
L 147.141818 251.168256 
L 157.614545 258.752448 
L 168.087273 259.816896 
L 178.56 256.35744 
L 189.032727 255.69216 
L 199.505455 257.421888 
L 209.978182 252.099648 
L 220.450909 238.927104 
L 230.923636 228.814848 
L 241.396364 227.883456 
L 251.869091 227.08512 
L 262.341818 217.10592 
L 272.814545 201.272256 
L 283.287273 189.563328 
L 293.76 185.039424 
L 304.232727 180.914688 
L 314.705455 171.467712 
L 325.178182 157.363776 
L 335.650909 144.324288 
L 346.123636 136.60704 
L 356.596364 134.6112 
L 367.069091 136.207872 
L 377.541818 137.006208 
L 388.014545 131.817024 
L 398.487273 122.63616 
" style="fill:none;stroke:#0039ff;stroke-linecap:square;stroke-width:1.5;"/>
   </g>
   <g id="line2d_53">
    <path clip-path="url(#p55bfe9fba0)" d="M 73.832727 138.336768 
L 84.305455 148.981248 
L 94.778182 167.8752 
L 105.250909 185.571648 
L 115.723636 191.026944 
L 126.196364 189.031104 
L 136.669091 199.675584 
L 147.141818 229.480128 
L 157.614545 263.01024 
L 168.087273 278.577792 
L 178.56 267.401088 
L 189.032727 245.71296 
L 199.505455 236.39904 
L 209.978182 239.72544 
L 220.450909 242.785728 
L 230.923636 238.527936 
L 241.396364 228.282624 
L 251.869091 218.170368 
L 262.341818 211.251456 
L 272.814545 204.199488 
L 283.287273 194.4864 
L 293.76 185.039424 
L 304.232727 181.713024 
L 314.705455 184.906368 
L 325.178182 184.241088 
L 335.650909 169.338816 
L 346.123636 143.525952 
L 356.596364 123.434496 
L 367.069091 122.370048 
L 377.541818 136.340928 
L 388.014545 145.122624 
L 398.487273 135.143424 
" style="fill:none;stroke:#001cff;stroke-linecap:square;stroke-width:1.5;"/>
   </g>
   <g id="line2d_54">
    <path clip-path="url(#p55bfe9fba0)" d="M 73.832727 191.958336 
L 84.305455 201.1392 
L 94.778182 206.993664 
L 105.250909 209.78784 
L 115.723636 210.187008 
L 126.196364 213.646464 
L 136.669091 226.952064 
L 147.141818 248.507136 
L 157.614545 262.611072 
L 168.087273 254.760768 
L 178.56 232.141248 
L 189.032727 216.573696 
L 199.505455 219.76704 
L 209.978182 237.197376 
L 220.450909 252.764928 
L 230.923636 249.305472 
L 241.396364 224.024832 
L 251.869091 189.16416 
L 262.341818 160.291008 
L 272.814545 144.5904 
L 283.287273 138.070656 
L 293.76 133.546752 
L 304.232727 127.825344 
L 314.705455 121.704768 
L 325.178182 121.039488 
L 335.650909 127.692288 
L 346.123636 131.550912 
L 356.596364 124.365888 
L 367.069091 114.918912 
L 377.541818 119.708928 
L 388.014545 140.59872 
L 398.487273 163.750464 
" style="fill:none;stroke:#0800ff;stroke-linecap:square;stroke-width:1.5;"/>
   </g>
   <g id="line2d_55">
    <path clip-path="url(#p55bfe9fba0)" d="M 73.832727 114.519744 
L 84.305455 148.715136 
L 94.778182 179.318016 
L 105.250909 197.280576 
L 115.723636 210.852288 
L 126.196364 227.617344 
L 136.669091 245.579904 
L 147.141818 257.554944 
L 157.614545 258.752448 
L 168.087273 253.430208 
L 178.56 248.773248 
L 189.032727 248.37408 
L 199.505455 247.309632 
L 209.978182 239.326272 
L 220.450909 225.355392 
L 230.923636 211.517568 
L 241.396364 201.671424 
L 251.869091 195.15168 
L 262.341818 192.091392 
L 272.814545 191.958336 
L 283.287273 192.889728 
L 293.76 191.026944 
L 304.232727 185.17248 
L 314.705455 179.983296 
L 325.178182 178.386624 
L 335.650909 177.18912 
L 346.123636 168.939648 
L 356.596364 150.311808 
L 367.069091 128.091456 
L 377.541818 118.245312 
L 388.014545 129.28896 
L 398.487273 149.24736 
" style="fill:none;stroke:#2500ff;stroke-linecap:square;stroke-width:1.5;"/>
   </g>
   <g id="line2d_56">
    <path clip-path="url(#p55bfe9fba0)" d="M 73.832727 180.648576 
L 84.305455 177.588288 
L 94.778182 173.463552 
L 105.250909 178.918848 
L 115.723636 197.546688 
L 126.196364 222.028992 
L 136.669091 242.785728 
L 147.141818 255.69216 
L 157.614545 260.615232 
L 168.087273 257.554944 
L 178.56 251.70048 
L 189.032727 249.837696 
L 199.505455 248.773248 
L 209.978182 239.193216 
L 220.450909 220.166208 
L 230.923636 200.340864 
L 241.396364 188.49888 
L 251.869091 187.434432 
L 262.341818 190.760832 
L 272.814545 189.696384 
L 283.287273 183.575808 
L 293.76 179.18496 
L 304.232727 175.592448 
L 314.705455 166.411584 
L 325.178182 153.505152 
L 335.650909 145.521792 
L 346.123636 143.92512 
L 356.596364 140.066496 
L 367.069091 129.422016 
L 377.541818 121.438656 
L 388.014545 122.902272 
L 398.487273 127.559232 
" style="fill:none;stroke:#4300ff;stroke-linecap:square;stroke-width:1.5;"/>
   </g>
   <g id="line2d_57">
    <path clip-path="url(#p55bfe9fba0)" d="M 73.832727 144.856512 
L 84.305455 145.654848 
L 94.778182 157.896 
L 105.250909 173.463552 
L 115.723636 184.108032 
L 126.196364 193.954176 
L 136.669091 212.715072 
L 147.141818 239.193216 
L 157.614545 261.812736 
L 168.087273 269.796096 
L 178.56 262.744128 
L 189.032727 252.232704 
L 199.505455 248.507136 
L 209.978182 250.902144 
L 220.450909 249.837696 
L 230.923636 236.39904 
L 241.396364 213.513408 
L 251.869091 193.688064 
L 262.341818 183.84192 
L 272.814545 182.777472 
L 283.287273 186.369984 
L 293.76 188.49888 
L 304.232727 183.17664 
L 314.705455 169.338816 
L 325.178182 151.90848 
L 335.650909 138.469824 
L 346.123636 130.486464 
L 356.596364 121.571712 
L 367.069091 106.00416 
L 377.541818 83.783808 
L 388.014545 59.301504 
L 398.487273 43.733952 
" style="fill:none;stroke:#6000ff;stroke-linecap:square;stroke-width:1.5;"/>
   </g>
   <g id="line2d_58">
    <path clip-path="url(#p55bfe9fba0)" d="M 73.832727 23.376384 
L 84.305455 39.609216 
L 94.778182 60.232896 
L 105.250909 89.106048 
L 115.723636 126.893952 
L 126.196364 173.19744 
L 136.669091 221.895936 
L 147.141818 256.35744 
L 157.614545 266.602752 
L 168.087273 260.881344 
L 178.56 251.434368 
L 189.032727 241.056 
L 199.505455 233.870976 
L 209.978182 237.330432 
L 220.450909 248.241024 
L 230.923636 255.559104 
L 241.396364 249.03936 
L 251.869091 225.488448 
L 262.341818 189.696384 
L 272.814545 158.56128 
L 283.287273 147.384576 
L 293.76 155.367936 
L 304.232727 167.076864 
L 314.705455 166.278528 
L 325.178182 147.783744 
L 335.650909 116.382528 
L 346.123636 83.38464 
L 356.596364 60.365952 
L 367.069091 50.253696 
L 377.541818 49.987584 
L 388.014545 54.245376 
L 398.487273 56.640384 
" style="fill:none;stroke:#7e00ff;stroke-linecap:square;stroke-width:1.5;"/>
   </g>
   <g id="line2d_59">
    <path clip-path="url(#p55bfe9fba0)" d="M 73.832727 129.821184 
L 84.305455 127.9584 
L 94.778182 130.220352 
L 105.250909 133.147584 
L 115.723636 137.139264 
L 126.196364 148.981248 
L 136.669091 176.656896 
L 147.141818 221.629824 
L 157.614545 270.32832 
L 168.087273 300.532032 
L 178.56 303.459264 
L 189.032727 284.96448 
L 199.505455 252.099648 
L 209.978182 210.586176 
L 220.450909 176.390784 
L 230.923636 166.810752 
L 241.396364 180.648576 
L 251.869091 203.667264 
L 262.341818 222.561216 
L 272.814545 230.41152 
L 283.287273 220.166208 
L 293.76 184.906368 
L 304.232727 129.95424 
L 314.705455 75.002112 
L 325.178182 44.399232 
L 335.650909 47.991744 
L 346.123636 75.40128 
L 356.596364 107.733888 
L 367.069091 128.224512 
L 377.541818 125.696448 
L 388.014545 107.600832 
L 398.487273 96.291072 
" style="fill:none;stroke:#9b00ff;stroke-linecap:square;stroke-width:1.5;"/>
   </g>
   <g id="line2d_60">
    <path clip-path="url(#p55bfe9fba0)" d="M 73.832727 72.07488 
L 84.305455 109.596672 
L 94.778182 155.634048 
L 105.250909 197.8128 
L 115.723636 225.355392 
L 126.196364 239.991552 
L 136.669091 250.103808 
L 147.141818 257.288832 
L 157.614545 259.816896 
L 168.087273 258.220224 
L 178.56 253.563264 
L 189.032727 248.37408 
L 199.505455 245.446848 
L 209.978182 247.575744 
L 220.450909 249.970752 
L 230.923636 246.511296 
L 241.396364 238.660992 
L 251.869091 231.209856 
L 262.341818 224.823168 
L 272.814545 217.10592 
L 283.287273 204.731712 
L 293.76 188.365824 
L 304.232727 175.326336 
L 314.705455 170.137152 
L 325.178182 169.87104 
L 335.650909 170.935488 
L 346.123636 174.261888 
L 356.596364 177.987456 
L 367.069091 176.923008 
L 377.541818 170.004096 
L 388.014545 158.428224 
L 398.487273 146.719296 
" style="fill:none;stroke:#b900ff;stroke-linecap:square;stroke-width:1.5;"/>
   </g>
   <g id="line2d_61">
    <path clip-path="url(#p55bfe9fba0)" d="M 73.832727 161.621568 
L 84.305455 166.54464 
L 94.778182 171.999936 
L 105.250909 177.721344 
L 115.723636 187.567488 
L 126.196364 204.066432 
L 136.669091 226.819008 
L 147.141818 249.172416 
L 157.614545 261.546624 
L 168.087273 263.542464 
L 178.56 262.611072 
L 189.032727 262.078848 
L 199.505455 257.554944 
L 209.978182 246.37824 
L 220.450909 232.540416 
L 230.923636 219.76704 
L 241.396364 204.066432 
L 251.869091 182.777472 
L 262.341818 160.956288 
L 272.814545 146.852352 
L 283.287273 142.062336 
L 293.76 137.405376 
L 304.232727 128.091456 
L 314.705455 122.63616 
L 325.178182 125.031168 
L 335.650909 124.632 
L 346.123636 114.253632 
L 356.596364 101.214144 
L 367.069091 95.093568 
L 377.541818 95.625792 
L 388.014545 95.758848 
L 398.487273 92.03328 
" style="fill:none;stroke:#d600ff;stroke-linecap:square;stroke-width:1.5;"/>
   </g>
   <g id="line2d_62">
    <path clip-path="url(#p55bfe9fba0)" d="M 73.832727 110.395008 
L 84.305455 128.091456 
L 94.778182 151.2432 
L 105.250909 171.334656 
L 115.723636 190.361664 
L 126.196364 212.981184 
L 136.669091 236.39904 
L 147.141818 254.494656 
L 157.614545 261.67968 
L 168.087273 257.821056 
L 178.56 247.974912 
L 189.032727 239.459328 
L 199.505455 235.06848 
L 209.978182 230.810688 
L 220.450909 221.76288 
L 230.923636 208.723392 
L 241.396364 189.962496 
L 251.869091 162.419904 
L 262.341818 132.349248 
L 272.814545 116.249472 
L 283.287273 119.708928 
L 293.76 130.220352 
L 304.232727 132.61536 
L 314.705455 125.164224 
L 325.178182 117.713088 
L 335.650909 116.382528 
L 346.123636 119.043648 
L 356.596364 122.769216 
L 367.069091 126.228672 
L 377.541818 129.28896 
L 388.014545 135.010368 
L 398.487273 150.311808 
" style="fill:none;stroke:#f800fd;stroke-linecap:square;stroke-width:1.5;"/>
   </g>
   <g id="line2d_63">
    <path clip-path="url(#p55bfe9fba0)" d="M 73.832727 168.673536 
L 84.305455 173.729664 
L 94.778182 172.266048 
L 105.250909 169.604928 
L 115.723636 177.455232 
L 126.196364 201.1392 
L 136.669091 232.008192 
L 147.141818 255.292992 
L 157.614545 262.34496 
L 168.087273 256.756608 
L 178.56 245.579904 
L 189.032727 229.480128 
L 199.505455 208.723392 
L 209.978182 189.696384 
L 220.450909 181.1808 
L 230.923636 182.910528 
L 241.396364 184.773312 
L 251.869091 181.1808 
L 262.341818 176.257728 
L 272.814545 172.132992 
L 283.287273 165.480192 
L 293.76 158.029056 
L 304.232727 160.690176 
L 314.705455 177.8544 
L 325.178182 199.675584 
L 335.650909 213.247296 
L 346.123636 214.710912 
L 356.596364 210.187008 
L 367.069091 205.530048 
L 377.541818 201.937536 
L 388.014545 198.211968 
L 398.487273 192.224448 
" style="fill:none;stroke:#ff00e7;stroke-linecap:square;stroke-width:1.5;"/>
   </g>
   <g id="line2d_64">
    <path clip-path="url(#p55bfe9fba0)" d="M 73.832727 184.108032 
L 84.305455 178.51968 
L 94.778182 183.575808 
L 105.250909 198.611136 
L 115.723636 215.11008 
L 126.196364 227.883456 
L 136.669091 240.523776 
L 147.141818 254.494656 
L 157.614545 261.413568 
L 168.087273 256.756608 
L 178.56 246.245184 
L 189.032727 236.265984 
L 199.505455 228.149568 
L 209.978182 221.76288 
L 220.450909 216.706752 
L 230.923636 212.582016 
L 241.396364 207.658944 
L 251.869091 201.1392 
L 262.341818 193.022784 
L 272.814545 185.571648 
L 283.287273 181.313856 
L 293.76 180.648576 
L 304.232727 184.5072 
L 314.705455 189.031104 
L 325.178182 185.17248 
L 335.650909 171.467712 
L 346.123636 152.174592 
L 356.596364 133.147584 
L 367.069091 121.3056 
L 377.541818 116.515584 
L 388.014545 113.721408 
L 398.487273 106.66944 
" style="fill:none;stroke:#ff00c9;stroke-linecap:square;stroke-width:1.5;"/>
   </g>
   <g id="line2d_65">
    <path clip-path="url(#p55bfe9fba0)" d="M 73.832727 165.746304 
L 84.305455 177.8544 
L 94.778182 190.760832 
L 105.250909 194.4864 
L 115.723636 192.091392 
L 126.196364 197.14752 
L 136.669091 219.500928 
L 147.141818 253.829376 
L 157.614545 279.775296 
L 168.087273 278.31168 
L 178.56 248.507136 
L 189.032727 209.388672 
L 199.505455 183.575808 
L 209.978182 178.386624 
L 220.450909 187.035264 
L 230.923636 199.010304 
L 241.396364 206.860608 
L 251.869091 205.79616 
L 262.341818 197.014464 
L 272.814545 189.031104 
L 283.287273 185.305536 
L 293.76 181.979136 
L 304.232727 176.390784 
L 314.705455 175.326336 
L 325.178182 183.17664 
L 335.650909 194.353344 
L 346.123636 202.602816 
L 356.596364 203.001984 
L 367.069091 194.619456 
L 377.541818 188.365824 
L 388.014545 197.413632 
L 398.487273 215.376192 
" style="fill:none;stroke:#ff00ac;stroke-linecap:square;stroke-width:1.5;"/>
   </g>
   <g id="line2d_66">
    <path clip-path="url(#p55bfe9fba0)" d="M 73.832727 157.097664 
L 84.305455 171.334656 
L 94.778182 173.19744 
L 105.250909 165.21408 
L 115.723636 164.814912 
L 126.196364 184.108032 
L 136.669091 217.372032 
L 147.141818 247.841856 
L 157.614545 261.812736 
L 168.087273 258.752448 
L 178.56 251.168256 
L 189.032727 249.03936 
L 199.505455 249.172416 
L 209.978182 246.644352 
L 220.450909 243.184896 
L 230.923636 240.124608 
L 241.396364 236.931264 
L 251.869091 235.06848 
L 262.341818 235.201536 
L 272.814545 232.673472 
L 283.287273 223.492608 
L 293.76 209.255616 
L 304.232727 193.288896 
L 314.705455 177.18912 
L 325.178182 160.956288 
L 335.650909 143.659008 
L 346.123636 126.361728 
L 356.596364 113.588352 
L 367.069091 111.193344 
L 377.541818 115.451136 
L 388.014545 113.854464 
L 398.487273 108.66528 
" style="fill:none;stroke:#ff008e;stroke-linecap:square;stroke-width:1.5;"/>
   </g>
   <g id="line2d_67">
    <path clip-path="url(#p55bfe9fba0)" d="M 73.832727 145.92096 
L 84.305455 156.432384 
L 94.778182 178.51968 
L 105.250909 200.873088 
L 115.723636 216.839808 
L 126.196364 227.484288 
L 136.669091 235.866816 
L 147.141818 247.176576 
L 157.614545 262.478016 
L 168.087273 268.731648 
L 178.56 254.228544 
L 189.032727 227.883456 
L 199.505455 213.646464 
L 209.978182 221.895936 
L 220.450909 239.72544 
L 230.923636 248.906304 
L 241.396364 243.850176 
L 251.869091 234.935424 
L 262.341818 232.141248 
L 272.814545 226.153728 
L 283.287273 200.47392 
L 293.76 157.762944 
L 304.232727 119.043648 
L 314.705455 101.081088 
L 325.178182 102.544704 
L 335.650909 107.600832 
L 346.123636 101.214144 
L 356.596364 83.118528 
L 367.069091 67.018752 
L 377.541818 68.482368 
L 388.014545 92.831616 
L 398.487273 130.353408 
" style="fill:none;stroke:#ff0071;stroke-linecap:square;stroke-width:1.5;"/>
   </g>
   <g id="line2d_68">
    <path clip-path="url(#p55bfe9fba0)" d="M 73.832727 174.794112 
L 84.305455 166.145472 
L 94.778182 171.467712 
L 105.250909 187.035264 
L 115.723636 202.46976 
L 126.196364 215.509248 
L 136.669091 230.012352 
L 147.141818 246.910464 
L 157.614545 262.744128 
L 168.087273 272.590272 
L 178.56 275.251392 
L 189.032727 272.457216 
L 199.505455 264.074688 
L 209.978182 252.498816 
L 220.450909 243.451008 
L 230.923636 236.798208 
L 241.396364 229.214016 
L 251.869091 219.76704 
L 262.341818 206.328384 
L 272.814545 189.563328 
L 283.287273 177.322176 
L 293.76 174.394944 
L 304.232727 177.588288 
L 314.705455 174.794112 
L 325.178182 152.706816 
L 335.650909 117.846144 
L 346.123636 90.03744 
L 356.596364 76.332672 
L 367.069091 69.014592 
L 377.541818 59.966784 
L 388.014545 53.313984 
L 398.487273 57.039552 
" style="fill:none;stroke:#ff0053;stroke-linecap:square;stroke-width:1.5;"/>
   </g>
   <g id="line2d_69">
    <path clip-path="url(#p55bfe9fba0)" d="M 73.832727 125.164224 
L 84.305455 133.28064 
L 94.778182 133.94592 
L 105.250909 129.95424 
L 115.723636 132.881472 
L 126.196364 154.968768 
L 136.669091 193.555008 
L 147.141818 232.673472 
L 157.614545 259.151616 
L 168.087273 269.66304 
L 178.56 268.33248 
L 189.032727 263.143296 
L 199.505455 256.756608 
L 209.978182 246.910464 
L 220.450909 235.866816 
L 230.923636 230.012352 
L 241.396364 230.544576 
L 251.869091 229.879296 
L 262.341818 223.625664 
L 272.814545 212.182848 
L 283.287273 195.683904 
L 293.76 177.8544 
L 304.232727 167.476032 
L 314.705455 168.407424 
L 325.178182 173.86272 
L 335.650909 167.742144 
L 346.123636 138.203712 
L 356.596364 92.565504 
L 367.069091 55.975104 
L 377.541818 44.931456 
L 388.014545 52.382592 
L 398.487273 60.499008 
" style="fill:none;stroke:#ff0035;stroke-linecap:square;stroke-width:1.5;"/>
   </g>
   <g id="line2d_70">
    <path clip-path="url(#p55bfe9fba0)" d="M 73.832727 151.179998 
L 84.305455 156.567658 
L 94.778182 163.345752 
L 105.250909 170.84124 
L 115.723636 180.517738 
L 126.196364 196.411277 
L 136.669091 220.285958 
L 147.141818 246.851698 
L 157.614545 266.314464 
L 168.087273 272.007043 
L 178.56 265.522781 
L 189.032727 254.095488 
L 199.505455 243.579629 
L 209.978182 235.090656 
L 220.450909 226.856707 
L 230.923636 217.365379 
L 241.396364 206.724226 
L 251.869091 195.688339 
L 262.341818 184.597013 
L 272.814545 174.06563 
L 283.287273 165.02891 
L 293.76 157.383734 
L 304.232727 150.372792 
L 314.705455 143.541475 
L 325.178182 136.815494 
L 335.650909 130.664981 
L 346.123636 125.211902 
L 356.596364 119.819808 
L 367.069091 114.192648 
L 377.541818 109.057795 
L 388.014545 105.304507 
L 398.487273 103.033685 
" style="fill:none;stroke:#000000;stroke-linecap:square;stroke-width:2;"/>
   </g>
   <g id="patch_3">
    <path d="M 57.6 307.584 
L 57.6 41.472 
" style="fill:none;stroke:#000000;stroke-linecap:square;stroke-linejoin:miter;stroke-width:0.8;"/>
   </g>
   <g id="patch_4">
    <path d="M 414.72 307.584 
L 414.72 41.472 
" style="fill:none;stroke:#000000;stroke-linecap:square;stroke-linejoin:miter;stroke-width:0.8;"/>
   </g>
   <g id="patch_5">
    <path d="M 57.6 307.584 
L 414.72 307.584 
" style="fill:none;stroke:#000000;stroke-linecap:square;stroke-linejoin:miter;stroke-width:0.8;"/>
   </g>
   <g id="patch_6">
    <path d="M 57.6 41.472 
L 414.72 41.472 
" style="fill:none;stroke:#000000;stroke-linecap:square;stroke-linejoin:miter;stroke-width:0.8;"/>
   </g>
   <g id="text_21">
    <!-- $V_{rms}=$ 19.413781 -->
    <defs>
     <path d="M 20.609375 0 
L 7.8125 72.90625 
L 17.484375 72.90625 
L 28.078125 10.203125 
L 63.484375 72.90625 
L 74.21875 72.90625 
L 32.078125 0 
z
" id="DejaVuSans-Oblique-56"/>
     <path d="M 44.578125 46.390625 
Q 43.21875 47.125 41.453125 47.515625 
Q 39.703125 47.90625 37.703125 47.90625 
Q 30.515625 47.90625 25.140625 42.453125 
Q 19.78125 37.015625 18.015625 27.875 
L 12.5 0 
L 3.515625 0 
L 14.203125 54.6875 
L 23.1875 54.6875 
L 21.484375 46.1875 
Q 25.046875 50.921875 30 53.453125 
Q 34.96875 56 40.578125 56 
Q 42.046875 56 43.453125 55.828125 
Q 44.875 55.671875 46.296875 55.28125 
z
" id="DejaVuSans-Oblique-72"/>
     <path d="M 89.796875 33.015625 
L 83.40625 0 
L 74.421875 0 
L 80.71875 32.71875 
Q 81.109375 34.8125 81.296875 36.328125 
Q 81.5 37.84375 81.5 38.921875 
Q 81.5 43.3125 79.046875 45.75 
Q 76.609375 48.1875 72.21875 48.1875 
Q 65.671875 48.1875 60.546875 43.28125 
Q 55.421875 38.375 53.90625 30.515625 
L 47.90625 0 
L 38.921875 0 
L 45.3125 32.71875 
Q 45.703125 34.515625 45.890625 36.046875 
Q 46.09375 37.59375 46.09375 38.8125 
Q 46.09375 43.265625 43.65625 45.71875 
Q 41.21875 48.1875 36.921875 48.1875 
Q 30.28125 48.1875 25.140625 43.28125 
Q 20.015625 38.375 18.5 30.515625 
L 12.5 0 
L 3.515625 0 
L 14.203125 54.6875 
L 23.1875 54.6875 
L 21.484375 46.1875 
Q 25.140625 50.984375 30.046875 53.484375 
Q 34.96875 56 40.578125 56 
Q 46.53125 56 50.359375 52.875 
Q 54.203125 49.75 54.984375 44.1875 
Q 59.078125 49.953125 64.46875 52.96875 
Q 69.875 56 75.875 56 
Q 82.90625 56 86.734375 51.953125 
Q 90.578125 47.90625 90.578125 40.484375 
Q 90.578125 38.875 90.375 36.9375 
Q 90.1875 35.015625 89.796875 33.015625 
z
" id="DejaVuSans-Oblique-6d"/>
     <path d="M 50 53.078125 
L 48.296875 44.578125 
Q 44.734375 46.53125 40.765625 47.5 
Q 36.8125 48.484375 32.625 48.484375 
Q 25.53125 48.484375 21.453125 46.0625 
Q 17.390625 43.65625 17.390625 39.5 
Q 17.390625 34.671875 26.859375 32.078125 
Q 27.59375 31.890625 27.9375 31.78125 
L 30.8125 30.90625 
Q 39.796875 28.421875 42.796875 25.6875 
Q 45.796875 22.953125 45.796875 18.21875 
Q 45.796875 9.515625 38.890625 4.046875 
Q 31.984375 -1.421875 20.796875 -1.421875 
Q 16.453125 -1.421875 11.671875 -0.578125 
Q 6.890625 0.25 1.125 2 
L 2.875 11.28125 
Q 7.8125 8.734375 12.59375 7.421875 
Q 17.390625 6.109375 21.78125 6.109375 
Q 28.375 6.109375 32.5 8.9375 
Q 36.625 11.765625 36.625 16.109375 
Q 36.625 20.796875 25.78125 23.6875 
L 24.859375 23.921875 
L 21.78125 24.703125 
Q 14.9375 26.515625 11.765625 29.46875 
Q 8.59375 32.421875 8.59375 37.015625 
Q 8.59375 45.75 15.15625 50.875 
Q 21.734375 56 33.015625 56 
Q 37.453125 56 41.671875 55.265625 
Q 45.90625 54.546875 50 53.078125 
z
" id="DejaVuSans-Oblique-73"/>
     <path d="M 10.59375 45.40625 
L 73.1875 45.40625 
L 73.1875 37.203125 
L 10.59375 37.203125 
z
M 10.59375 25.484375 
L 73.1875 25.484375 
L 73.1875 17.1875 
L 10.59375 17.1875 
z
" id="DejaVuSans-3d"/>
     <path d="M 10.984375 1.515625 
L 10.984375 10.5 
Q 14.703125 8.734375 18.5 7.8125 
Q 22.3125 6.890625 25.984375 6.890625 
Q 35.75 6.890625 40.890625 13.453125 
Q 46.046875 20.015625 46.78125 33.40625 
Q 43.953125 29.203125 39.59375 26.953125 
Q 35.25 24.703125 29.984375 24.703125 
Q 19.046875 24.703125 12.671875 31.3125 
Q 6.296875 37.9375 6.296875 49.421875 
Q 6.296875 60.640625 12.9375 67.421875 
Q 19.578125 74.21875 30.609375 74.21875 
Q 43.265625 74.21875 49.921875 64.515625 
Q 56.59375 54.828125 56.59375 36.375 
Q 56.59375 19.140625 48.40625 8.859375 
Q 40.234375 -1.421875 26.421875 -1.421875 
Q 22.703125 -1.421875 18.890625 -0.6875 
Q 15.09375 0.046875 10.984375 1.515625 
z
M 30.609375 32.421875 
Q 37.25 32.421875 41.125 36.953125 
Q 45.015625 41.5 45.015625 49.421875 
Q 45.015625 57.28125 41.125 61.84375 
Q 37.25 66.40625 30.609375 66.40625 
Q 23.96875 66.40625 20.09375 61.84375 
Q 16.21875 57.28125 16.21875 49.421875 
Q 16.21875 41.5 20.09375 36.953125 
Q 23.96875 32.421875 30.609375 32.421875 
z
" id="DejaVuSans-39"/>
    </defs>
    <g transform="translate(325.178182 165.02891)scale(0.1 -0.1)">
     <use transform="translate(0 0.78125)" xlink:href="#DejaVuSans-Oblique-56"/>
     <use transform="translate(68.408203 -15.625)scale(0.7)" xlink:href="#DejaVuSans-Oblique-72"/>
     <use transform="translate(97.1875 -15.625)scale(0.7)" xlink:href="#DejaVuSans-Oblique-6d"/>
     <use transform="translate(165.375977 -15.625)scale(0.7)" xlink:href="#DejaVuSans-Oblique-73"/>
     <use transform="translate(224.0625 0.78125)" xlink:href="#DejaVuSans-3d"/>
     <use transform="translate(327.333984 0.78125)" xlink:href="#DejaVuSans-20"/>
     <use transform="translate(359.121094 0.78125)" xlink:href="#DejaVuSans-31"/>
     <use transform="translate(422.744141 0.78125)" xlink:href="#DejaVuSans-39"/>
     <use transform="translate(486.367188 0.78125)" xlink:href="#DejaVuSans-2e"/>
     <use transform="translate(518.154297 0.78125)" xlink:href="#DejaVuSans-34"/>
     <use transform="translate(581.777344 0.78125)" xlink:href="#DejaVuSans-31"/>
     <use transform="translate(645.400391 0.78125)" xlink:href="#DejaVuSans-33"/>
     <use transform="translate(709.023438 0.78125)" xlink:href="#DejaVuSans-37"/>
     <use transform="translate(772.646484 0.78125)" xlink:href="#DejaVuSans-38"/>
     <use transform="translate(836.269531 0.78125)" xlink:href="#DejaVuSans-31"/>
    </g>
   </g>
   <g id="text_22">
    <!-- Channel 1 - Unit 1 -->
    <defs>
     <path d="M 64.40625 67.28125 
L 64.40625 56.890625 
Q 59.421875 61.53125 53.78125 63.8125 
Q 48.140625 66.109375 41.796875 66.109375 
Q 29.296875 66.109375 22.65625 58.46875 
Q 16.015625 50.828125 16.015625 36.375 
Q 16.015625 21.96875 22.65625 14.328125 
Q 29.296875 6.6875 41.796875 6.6875 
Q 48.140625 6.6875 53.78125 8.984375 
Q 59.421875 11.28125 64.40625 15.921875 
L 64.40625 5.609375 
Q 59.234375 2.09375 53.4375 0.328125 
Q 47.65625 -1.421875 41.21875 -1.421875 
Q 24.65625 -1.421875 15.125 8.703125 
Q 5.609375 18.84375 5.609375 36.375 
Q 5.609375 53.953125 15.125 64.078125 
Q 24.65625 74.21875 41.21875 74.21875 
Q 47.75 74.21875 53.53125 72.484375 
Q 59.328125 70.75 64.40625 67.28125 
z
" id="DejaVuSans-43"/>
     <path d="M 54.890625 33.015625 
L 54.890625 0 
L 45.90625 0 
L 45.90625 32.71875 
Q 45.90625 40.484375 42.875 44.328125 
Q 39.84375 48.1875 33.796875 48.1875 
Q 26.515625 48.1875 22.3125 43.546875 
Q 18.109375 38.921875 18.109375 30.90625 
L 18.109375 0 
L 9.078125 0 
L 9.078125 75.984375 
L 18.109375 75.984375 
L 18.109375 46.1875 
Q 21.34375 51.125 25.703125 53.5625 
Q 30.078125 56 35.796875 56 
Q 45.21875 56 50.046875 50.171875 
Q 54.890625 44.34375 54.890625 33.015625 
z
" id="DejaVuSans-68"/>
     <path d="M 54.890625 33.015625 
L 54.890625 0 
L 45.90625 0 
L 45.90625 32.71875 
Q 45.90625 40.484375 42.875 44.328125 
Q 39.84375 48.1875 33.796875 48.1875 
Q 26.515625 48.1875 22.3125 43.546875 
Q 18.109375 38.921875 18.109375 30.90625 
L 18.109375 0 
L 9.078125 0 
L 9.078125 54.6875 
L 18.109375 54.6875 
L 18.109375 46.1875 
Q 21.34375 51.125 25.703125 53.5625 
Q 30.078125 56 35.796875 56 
Q 45.21875 56 50.046875 50.171875 
Q 54.890625 44.34375 54.890625 33.015625 
z
" id="DejaVuSans-6e"/>
     <path d="M 4.890625 31.390625 
L 31.203125 31.390625 
L 31.203125 23.390625 
L 4.890625 23.390625 
z
" id="DejaVuSans-2d"/>
     <path d="M 8.6875 72.90625 
L 18.609375 72.90625 
L 18.609375 28.609375 
Q 18.609375 16.890625 22.84375 11.734375 
Q 27.09375 6.59375 36.625 6.59375 
Q 46.09375 6.59375 50.34375 11.734375 
Q 54.59375 16.890625 54.59375 28.609375 
L 54.59375 72.90625 
L 64.5 72.90625 
L 64.5 27.390625 
Q 64.5 13.140625 57.4375 5.859375 
Q 50.390625 -1.421875 36.625 -1.421875 
Q 22.796875 -1.421875 15.734375 5.859375 
Q 8.6875 13.140625 8.6875 27.390625 
z
" id="DejaVuSans-55"/>
    </defs>
    <g transform="translate(181.887187 35.472)scale(0.12 -0.12)">
     <use xlink:href="#DejaVuSans-43"/>
     <use x="69.824219" xlink:href="#DejaVuSans-68"/>
     <use x="133.203125" xlink:href="#DejaVuSans-61"/>
     <use x="194.482422" xlink:href="#DejaVuSans-6e"/>
     <use x="257.861328" xlink:href="#DejaVuSans-6e"/>
     <use x="321.240234" xlink:href="#DejaVuSans-65"/>
     <use x="382.763672" xlink:href="#DejaVuSans-6c"/>
     <use x="410.546875" xlink:href="#DejaVuSans-20"/>
     <use x="442.333984" xlink:href="#DejaVuSans-31"/>
     <use x="505.957031" xlink:href="#DejaVuSans-20"/>
     <use x="537.744141" xlink:href="#DejaVuSans-2d"/>
     <use x="573.828125" xlink:href="#DejaVuSans-20"/>
     <use x="605.615234" xlink:href="#DejaVuSans-55"/>
     <use x="678.808594" xlink:href="#DejaVuSans-6e"/>
     <use x="742.1875" xlink:href="#DejaVuSans-69"/>
     <use x="769.970703" xlink:href="#DejaVuSans-74"/>
     <use x="809.179688" xlink:href="#DejaVuSans-20"/>
     <use x="840.966797" xlink:href="#DejaVuSans-31"/>
    </g>
   </g>
  </g>
 </g>
 <defs>
  <clipPath id="p55bfe9fba0">
   <rect height="266.112" width="357.12" x="57.6" y="41.472"/>
  </clipPath>
 </defs>
</svg>
