<?xml version="1.0" encoding="utf-8" standalone="no"?>
<!DOCTYPE svg PUBLIC "-//W3C//DTD SVG 1.1//EN"
  "http://www.w3.org/Graphics/SVG/1.1/DTD/svg11.dtd">
<!-- Created with matplotlib (http://matplotlib.org/) -->
<svg height="345pt" version="1.1" viewBox="0 0 460 345" width="460pt" xmlns="http://www.w3.org/2000/svg" xmlns:xlink="http://www.w3.org/1999/xlink">
 <defs>
  <style type="text/css">
*{stroke-linecap:butt;stroke-linejoin:round;}
  </style>
 </defs>
 <g id="figure_1">
  <g id="patch_1">
   <path d="M 0 345.6 
L 460.8 345.6 
L 460.8 0 
L 0 0 
z
" style="fill:#ffffff;"/>
  </g>
  <g id="axes_1">
   <g id="patch_2">
    <path d="M 57.6 307.584 
L 414.72 307.584 
L 414.72 41.472 
L 57.6 41.472 
z
" style="fill:#ffffff;"/>
   </g>
   <g id="PolyCollection_1">
    <defs>
     <path d="M 73.832727 -219.188296 
L 73.832727 -144.603606 
L 84.305455 -139.855262 
L 94.778182 -131.544754 
L 105.250909 -124.324425 
L 115.723636 -120.306577 
L 126.196364 -113.775589 
L 136.669091 -98.401728 
L 147.141818 -77.660198 
L 157.614545 -58.290842 
L 168.087273 -46.491466 
L 178.56 -48.992664 
L 189.032727 -58.935649 
L 199.505455 -69.758141 
L 209.978182 -80.4118 
L 220.450909 -91.371389 
L 230.923636 -102.713801 
L 241.396364 -114.03789 
L 251.869091 -124.547695 
L 262.341818 -134.27732 
L 272.814545 -143.850955 
L 283.287273 -153.233835 
L 293.76 -162.283905 
L 304.232727 -170.422139 
L 314.705455 -176.678694 
L 325.178182 -181.64847 
L 335.650909 -186.223446 
L 346.123636 -190.210605 
L 356.596364 -193.670456 
L 367.069091 -197.50434 
L 377.541818 -201.611332 
L 388.014545 -204.992887 
L 398.487273 -207.607573 
L 398.487273 -310.458119 
L 398.487273 -310.458119 
L 388.014545 -305.875404 
L 377.541818 -298.417537 
L 367.069091 -291.050769 
L 356.596364 -284.391795 
L 346.123636 -277.027696 
L 335.650909 -268.618986 
L 325.178182 -259.483006 
L 314.705455 -251.007937 
L 304.232727 -243.869156 
L 293.76 -236.223236 
L 283.287273 -226.53407 
L 272.814545 -215.95855 
L 262.341818 -204.648581 
L 251.869091 -191.424499 
L 241.396364 -176.904305 
L 230.923636 -162.947753 
L 220.450909 -150.75782 
L 209.978182 -140.140676 
L 199.505455 -128.42855 
L 189.032727 -112.711011 
L 178.56 -94.158352 
L 168.087273 -79.838797 
L 157.614545 -80.689023 
L 147.141818 -106.459689 
L 136.669091 -144.559854 
L 126.196364 -177.488416 
L 115.723636 -199.459261 
L 105.250909 -211.429793 
L 94.778182 -216.466088 
L 84.305455 -217.803687 
L 73.832727 -219.188296 
z
" id="ma950320fba"/>
    </defs>
    <g clip-path="url(#p5cef4d2b02)">
     <use style="fill-opacity:0.5;" x="0" xlink:href="#ma950320fba" y="345.6"/>
    </g>
   </g>
   <g id="matplotlib.axis_1">
    <g id="xtick_1">
     <g id="line2d_1">
      <defs>
       <path d="M 0 0 
L 0 3.5 
" id="m92ed366db6" style="stroke:#000000;stroke-width:0.8;"/>
      </defs>
      <g>
       <use style="stroke:#000000;stroke-width:0.8;" x="73.832727" xlink:href="#m92ed366db6" y="307.584"/>
      </g>
     </g>
     <g id="text_1">
      <!-- 0.0000 -->
      <defs>
       <path d="M 31.78125 66.40625 
Q 24.171875 66.40625 20.328125 58.90625 
Q 16.5 51.421875 16.5 36.375 
Q 16.5 21.390625 20.328125 13.890625 
Q 24.171875 6.390625 31.78125 6.390625 
Q 39.453125 6.390625 43.28125 13.890625 
Q 47.125 21.390625 47.125 36.375 
Q 47.125 51.421875 43.28125 58.90625 
Q 39.453125 66.40625 31.78125 66.40625 
z
M 31.78125 74.21875 
Q 44.046875 74.21875 50.515625 64.515625 
Q 56.984375 54.828125 56.984375 36.375 
Q 56.984375 17.96875 50.515625 8.265625 
Q 44.046875 -1.421875 31.78125 -1.421875 
Q 19.53125 -1.421875 13.0625 8.265625 
Q 6.59375 17.96875 6.59375 36.375 
Q 6.59375 54.828125 13.0625 64.515625 
Q 19.53125 74.21875 31.78125 74.21875 
z
" id="DejaVuSans-30"/>
       <path d="M 10.6875 12.40625 
L 21 12.40625 
L 21 0 
L 10.6875 0 
z
" id="DejaVuSans-2e"/>
      </defs>
      <g transform="translate(56.337415 322.182437)scale(0.1 -0.1)">
       <use xlink:href="#DejaVuSans-30"/>
       <use x="63.623047" xlink:href="#DejaVuSans-2e"/>
       <use x="95.410156" xlink:href="#DejaVuSans-30"/>
       <use x="159.033203" xlink:href="#DejaVuSans-30"/>
       <use x="222.65625" xlink:href="#DejaVuSans-30"/>
       <use x="286.279297" xlink:href="#DejaVuSans-30"/>
      </g>
     </g>
    </g>
    <g id="xtick_2">
     <g id="line2d_2">
      <g>
       <use style="stroke:#000000;stroke-width:0.8;" x="115.723636" xlink:href="#m92ed366db6" y="307.584"/>
      </g>
     </g>
     <g id="text_2">
      <!-- 0.0001 -->
      <defs>
       <path d="M 12.40625 8.296875 
L 28.515625 8.296875 
L 28.515625 63.921875 
L 10.984375 60.40625 
L 10.984375 69.390625 
L 28.421875 72.90625 
L 38.28125 72.90625 
L 38.28125 8.296875 
L 54.390625 8.296875 
L 54.390625 0 
L 12.40625 0 
z
" id="DejaVuSans-31"/>
      </defs>
      <g transform="translate(98.228324 322.182437)scale(0.1 -0.1)">
       <use xlink:href="#DejaVuSans-30"/>
       <use x="63.623047" xlink:href="#DejaVuSans-2e"/>
       <use x="95.410156" xlink:href="#DejaVuSans-30"/>
       <use x="159.033203" xlink:href="#DejaVuSans-30"/>
       <use x="222.65625" xlink:href="#DejaVuSans-30"/>
       <use x="286.279297" xlink:href="#DejaVuSans-31"/>
      </g>
     </g>
    </g>
    <g id="xtick_3">
     <g id="line2d_3">
      <g>
       <use style="stroke:#000000;stroke-width:0.8;" x="157.614545" xlink:href="#m92ed366db6" y="307.584"/>
      </g>
     </g>
     <g id="text_3">
      <!-- 0.0002 -->
      <defs>
       <path d="M 19.1875 8.296875 
L 53.609375 8.296875 
L 53.609375 0 
L 7.328125 0 
L 7.328125 8.296875 
Q 12.9375 14.109375 22.625 23.890625 
Q 32.328125 33.6875 34.8125 36.53125 
Q 39.546875 41.84375 41.421875 45.53125 
Q 43.3125 49.21875 43.3125 52.78125 
Q 43.3125 58.59375 39.234375 62.25 
Q 35.15625 65.921875 28.609375 65.921875 
Q 23.96875 65.921875 18.8125 64.3125 
Q 13.671875 62.703125 7.8125 59.421875 
L 7.8125 69.390625 
Q 13.765625 71.78125 18.9375 73 
Q 24.125 74.21875 28.421875 74.21875 
Q 39.75 74.21875 46.484375 68.546875 
Q 53.21875 62.890625 53.21875 53.421875 
Q 53.21875 48.921875 51.53125 44.890625 
Q 49.859375 40.875 45.40625 35.40625 
Q 44.1875 33.984375 37.640625 27.21875 
Q 31.109375 20.453125 19.1875 8.296875 
z
" id="DejaVuSans-32"/>
      </defs>
      <g transform="translate(140.119233 322.182437)scale(0.1 -0.1)">
       <use xlink:href="#DejaVuSans-30"/>
       <use x="63.623047" xlink:href="#DejaVuSans-2e"/>
       <use x="95.410156" xlink:href="#DejaVuSans-30"/>
       <use x="159.033203" xlink:href="#DejaVuSans-30"/>
       <use x="222.65625" xlink:href="#DejaVuSans-30"/>
       <use x="286.279297" xlink:href="#DejaVuSans-32"/>
      </g>
     </g>
    </g>
    <g id="xtick_4">
     <g id="line2d_4">
      <g>
       <use style="stroke:#000000;stroke-width:0.8;" x="199.505455" xlink:href="#m92ed366db6" y="307.584"/>
      </g>
     </g>
     <g id="text_4">
      <!-- 0.0003 -->
      <defs>
       <path d="M 40.578125 39.3125 
Q 47.65625 37.796875 51.625 33 
Q 55.609375 28.21875 55.609375 21.1875 
Q 55.609375 10.40625 48.1875 4.484375 
Q 40.765625 -1.421875 27.09375 -1.421875 
Q 22.515625 -1.421875 17.65625 -0.515625 
Q 12.796875 0.390625 7.625 2.203125 
L 7.625 11.71875 
Q 11.71875 9.328125 16.59375 8.109375 
Q 21.484375 6.890625 26.8125 6.890625 
Q 36.078125 6.890625 40.9375 10.546875 
Q 45.796875 14.203125 45.796875 21.1875 
Q 45.796875 27.640625 41.28125 31.265625 
Q 36.765625 34.90625 28.71875 34.90625 
L 20.21875 34.90625 
L 20.21875 43.015625 
L 29.109375 43.015625 
Q 36.375 43.015625 40.234375 45.921875 
Q 44.09375 48.828125 44.09375 54.296875 
Q 44.09375 59.90625 40.109375 62.90625 
Q 36.140625 65.921875 28.71875 65.921875 
Q 24.65625 65.921875 20.015625 65.03125 
Q 15.375 64.15625 9.8125 62.3125 
L 9.8125 71.09375 
Q 15.4375 72.65625 20.34375 73.4375 
Q 25.25 74.21875 29.59375 74.21875 
Q 40.828125 74.21875 47.359375 69.109375 
Q 53.90625 64.015625 53.90625 55.328125 
Q 53.90625 49.265625 50.4375 45.09375 
Q 46.96875 40.921875 40.578125 39.3125 
z
" id="DejaVuSans-33"/>
      </defs>
      <g transform="translate(182.010142 322.182437)scale(0.1 -0.1)">
       <use xlink:href="#DejaVuSans-30"/>
       <use x="63.623047" xlink:href="#DejaVuSans-2e"/>
       <use x="95.410156" xlink:href="#DejaVuSans-30"/>
       <use x="159.033203" xlink:href="#DejaVuSans-30"/>
       <use x="222.65625" xlink:href="#DejaVuSans-30"/>
       <use x="286.279297" xlink:href="#DejaVuSans-33"/>
      </g>
     </g>
    </g>
    <g id="xtick_5">
     <g id="line2d_5">
      <g>
       <use style="stroke:#000000;stroke-width:0.8;" x="241.396364" xlink:href="#m92ed366db6" y="307.584"/>
      </g>
     </g>
     <g id="text_5">
      <!-- 0.0004 -->
      <defs>
       <path d="M 37.796875 64.3125 
L 12.890625 25.390625 
L 37.796875 25.390625 
z
M 35.203125 72.90625 
L 47.609375 72.90625 
L 47.609375 25.390625 
L 58.015625 25.390625 
L 58.015625 17.1875 
L 47.609375 17.1875 
L 47.609375 0 
L 37.796875 0 
L 37.796875 17.1875 
L 4.890625 17.1875 
L 4.890625 26.703125 
z
" id="DejaVuSans-34"/>
      </defs>
      <g transform="translate(223.901051 322.182437)scale(0.1 -0.1)">
       <use xlink:href="#DejaVuSans-30"/>
       <use x="63.623047" xlink:href="#DejaVuSans-2e"/>
       <use x="95.410156" xlink:href="#DejaVuSans-30"/>
       <use x="159.033203" xlink:href="#DejaVuSans-30"/>
       <use x="222.65625" xlink:href="#DejaVuSans-30"/>
       <use x="286.279297" xlink:href="#DejaVuSans-34"/>
      </g>
     </g>
    </g>
    <g id="xtick_6">
     <g id="line2d_6">
      <g>
       <use style="stroke:#000000;stroke-width:0.8;" x="283.287273" xlink:href="#m92ed366db6" y="307.584"/>
      </g>
     </g>
     <g id="text_6">
      <!-- 0.0005 -->
      <defs>
       <path d="M 10.796875 72.90625 
L 49.515625 72.90625 
L 49.515625 64.59375 
L 19.828125 64.59375 
L 19.828125 46.734375 
Q 21.96875 47.46875 24.109375 47.828125 
Q 26.265625 48.1875 28.421875 48.1875 
Q 40.625 48.1875 47.75 41.5 
Q 54.890625 34.8125 54.890625 23.390625 
Q 54.890625 11.625 47.5625 5.09375 
Q 40.234375 -1.421875 26.90625 -1.421875 
Q 22.3125 -1.421875 17.546875 -0.640625 
Q 12.796875 0.140625 7.71875 1.703125 
L 7.71875 11.625 
Q 12.109375 9.234375 16.796875 8.0625 
Q 21.484375 6.890625 26.703125 6.890625 
Q 35.15625 6.890625 40.078125 11.328125 
Q 45.015625 15.765625 45.015625 23.390625 
Q 45.015625 31 40.078125 35.4375 
Q 35.15625 39.890625 26.703125 39.890625 
Q 22.75 39.890625 18.8125 39.015625 
Q 14.890625 38.140625 10.796875 36.28125 
z
" id="DejaVuSans-35"/>
      </defs>
      <g transform="translate(265.79196 322.182437)scale(0.1 -0.1)">
       <use xlink:href="#DejaVuSans-30"/>
       <use x="63.623047" xlink:href="#DejaVuSans-2e"/>
       <use x="95.410156" xlink:href="#DejaVuSans-30"/>
       <use x="159.033203" xlink:href="#DejaVuSans-30"/>
       <use x="222.65625" xlink:href="#DejaVuSans-30"/>
       <use x="286.279297" xlink:href="#DejaVuSans-35"/>
      </g>
     </g>
    </g>
    <g id="xtick_7">
     <g id="line2d_7">
      <g>
       <use style="stroke:#000000;stroke-width:0.8;" x="325.178182" xlink:href="#m92ed366db6" y="307.584"/>
      </g>
     </g>
     <g id="text_7">
      <!-- 0.0006 -->
      <defs>
       <path d="M 33.015625 40.375 
Q 26.375 40.375 22.484375 35.828125 
Q 18.609375 31.296875 18.609375 23.390625 
Q 18.609375 15.53125 22.484375 10.953125 
Q 26.375 6.390625 33.015625 6.390625 
Q 39.65625 6.390625 43.53125 10.953125 
Q 47.40625 15.53125 47.40625 23.390625 
Q 47.40625 31.296875 43.53125 35.828125 
Q 39.65625 40.375 33.015625 40.375 
z
M 52.59375 71.296875 
L 52.59375 62.3125 
Q 48.875 64.0625 45.09375 64.984375 
Q 41.3125 65.921875 37.59375 65.921875 
Q 27.828125 65.921875 22.671875 59.328125 
Q 17.53125 52.734375 16.796875 39.40625 
Q 19.671875 43.65625 24.015625 45.921875 
Q 28.375 48.1875 33.59375 48.1875 
Q 44.578125 48.1875 50.953125 41.515625 
Q 57.328125 34.859375 57.328125 23.390625 
Q 57.328125 12.15625 50.6875 5.359375 
Q 44.046875 -1.421875 33.015625 -1.421875 
Q 20.359375 -1.421875 13.671875 8.265625 
Q 6.984375 17.96875 6.984375 36.375 
Q 6.984375 53.65625 15.1875 63.9375 
Q 23.390625 74.21875 37.203125 74.21875 
Q 40.921875 74.21875 44.703125 73.484375 
Q 48.484375 72.75 52.59375 71.296875 
z
" id="DejaVuSans-36"/>
      </defs>
      <g transform="translate(307.682869 322.182437)scale(0.1 -0.1)">
       <use xlink:href="#DejaVuSans-30"/>
       <use x="63.623047" xlink:href="#DejaVuSans-2e"/>
       <use x="95.410156" xlink:href="#DejaVuSans-30"/>
       <use x="159.033203" xlink:href="#DejaVuSans-30"/>
       <use x="222.65625" xlink:href="#DejaVuSans-30"/>
       <use x="286.279297" xlink:href="#DejaVuSans-36"/>
      </g>
     </g>
    </g>
    <g id="xtick_8">
     <g id="line2d_8">
      <g>
       <use style="stroke:#000000;stroke-width:0.8;" x="367.069091" xlink:href="#m92ed366db6" y="307.584"/>
      </g>
     </g>
     <g id="text_8">
      <!-- 0.0007 -->
      <defs>
       <path d="M 8.203125 72.90625 
L 55.078125 72.90625 
L 55.078125 68.703125 
L 28.609375 0 
L 18.3125 0 
L 43.21875 64.59375 
L 8.203125 64.59375 
z
" id="DejaVuSans-37"/>
      </defs>
      <g transform="translate(349.573778 322.182437)scale(0.1 -0.1)">
       <use xlink:href="#DejaVuSans-30"/>
       <use x="63.623047" xlink:href="#DejaVuSans-2e"/>
       <use x="95.410156" xlink:href="#DejaVuSans-30"/>
       <use x="159.033203" xlink:href="#DejaVuSans-30"/>
       <use x="222.65625" xlink:href="#DejaVuSans-30"/>
       <use x="286.279297" xlink:href="#DejaVuSans-37"/>
      </g>
     </g>
    </g>
    <g id="xtick_9">
     <g id="line2d_9">
      <g>
       <use style="stroke:#000000;stroke-width:0.8;" x="408.96" xlink:href="#m92ed366db6" y="307.584"/>
      </g>
     </g>
     <g id="text_9">
      <!-- 0.0008 -->
      <defs>
       <path d="M 31.78125 34.625 
Q 24.75 34.625 20.71875 30.859375 
Q 16.703125 27.09375 16.703125 20.515625 
Q 16.703125 13.921875 20.71875 10.15625 
Q 24.75 6.390625 31.78125 6.390625 
Q 38.8125 6.390625 42.859375 10.171875 
Q 46.921875 13.96875 46.921875 20.515625 
Q 46.921875 27.09375 42.890625 30.859375 
Q 38.875 34.625 31.78125 34.625 
z
M 21.921875 38.8125 
Q 15.578125 40.375 12.03125 44.71875 
Q 8.5 49.078125 8.5 55.328125 
Q 8.5 64.0625 14.71875 69.140625 
Q 20.953125 74.21875 31.78125 74.21875 
Q 42.671875 74.21875 48.875 69.140625 
Q 55.078125 64.0625 55.078125 55.328125 
Q 55.078125 49.078125 51.53125 44.71875 
Q 48 40.375 41.703125 38.8125 
Q 48.828125 37.15625 52.796875 32.3125 
Q 56.78125 27.484375 56.78125 20.515625 
Q 56.78125 9.90625 50.3125 4.234375 
Q 43.84375 -1.421875 31.78125 -1.421875 
Q 19.734375 -1.421875 13.25 4.234375 
Q 6.78125 9.90625 6.78125 20.515625 
Q 6.78125 27.484375 10.78125 32.3125 
Q 14.796875 37.15625 21.921875 38.8125 
z
M 18.3125 54.390625 
Q 18.3125 48.734375 21.84375 45.5625 
Q 25.390625 42.390625 31.78125 42.390625 
Q 38.140625 42.390625 41.71875 45.5625 
Q 45.3125 48.734375 45.3125 54.390625 
Q 45.3125 60.0625 41.71875 63.234375 
Q 38.140625 66.40625 31.78125 66.40625 
Q 25.390625 66.40625 21.84375 63.234375 
Q 18.3125 60.0625 18.3125 54.390625 
z
" id="DejaVuSans-38"/>
      </defs>
      <g transform="translate(391.464687 322.182437)scale(0.1 -0.1)">
       <use xlink:href="#DejaVuSans-30"/>
       <use x="63.623047" xlink:href="#DejaVuSans-2e"/>
       <use x="95.410156" xlink:href="#DejaVuSans-30"/>
       <use x="159.033203" xlink:href="#DejaVuSans-30"/>
       <use x="222.65625" xlink:href="#DejaVuSans-30"/>
       <use x="286.279297" xlink:href="#DejaVuSans-38"/>
      </g>
     </g>
    </g>
    <g id="text_10">
     <!-- Time (s) -->
     <defs>
      <path d="M -0.296875 72.90625 
L 61.375 72.90625 
L 61.375 64.59375 
L 35.5 64.59375 
L 35.5 0 
L 25.59375 0 
L 25.59375 64.59375 
L -0.296875 64.59375 
z
" id="DejaVuSans-54"/>
      <path d="M 9.421875 54.6875 
L 18.40625 54.6875 
L 18.40625 0 
L 9.421875 0 
z
M 9.421875 75.984375 
L 18.40625 75.984375 
L 18.40625 64.59375 
L 9.421875 64.59375 
z
" id="DejaVuSans-69"/>
      <path d="M 52 44.1875 
Q 55.375 50.25 60.0625 53.125 
Q 64.75 56 71.09375 56 
Q 79.640625 56 84.28125 50.015625 
Q 88.921875 44.046875 88.921875 33.015625 
L 88.921875 0 
L 79.890625 0 
L 79.890625 32.71875 
Q 79.890625 40.578125 77.09375 44.375 
Q 74.3125 48.1875 68.609375 48.1875 
Q 61.625 48.1875 57.5625 43.546875 
Q 53.515625 38.921875 53.515625 30.90625 
L 53.515625 0 
L 44.484375 0 
L 44.484375 32.71875 
Q 44.484375 40.625 41.703125 44.40625 
Q 38.921875 48.1875 33.109375 48.1875 
Q 26.21875 48.1875 22.15625 43.53125 
Q 18.109375 38.875 18.109375 30.90625 
L 18.109375 0 
L 9.078125 0 
L 9.078125 54.6875 
L 18.109375 54.6875 
L 18.109375 46.1875 
Q 21.1875 51.21875 25.484375 53.609375 
Q 29.78125 56 35.6875 56 
Q 41.65625 56 45.828125 52.96875 
Q 50 49.953125 52 44.1875 
z
" id="DejaVuSans-6d"/>
      <path d="M 56.203125 29.59375 
L 56.203125 25.203125 
L 14.890625 25.203125 
Q 15.484375 15.921875 20.484375 11.0625 
Q 25.484375 6.203125 34.421875 6.203125 
Q 39.59375 6.203125 44.453125 7.46875 
Q 49.3125 8.734375 54.109375 11.28125 
L 54.109375 2.78125 
Q 49.265625 0.734375 44.1875 -0.34375 
Q 39.109375 -1.421875 33.890625 -1.421875 
Q 20.796875 -1.421875 13.15625 6.1875 
Q 5.515625 13.8125 5.515625 26.8125 
Q 5.515625 40.234375 12.765625 48.109375 
Q 20.015625 56 32.328125 56 
Q 43.359375 56 49.78125 48.890625 
Q 56.203125 41.796875 56.203125 29.59375 
z
M 47.21875 32.234375 
Q 47.125 39.59375 43.09375 43.984375 
Q 39.0625 48.390625 32.421875 48.390625 
Q 24.90625 48.390625 20.390625 44.140625 
Q 15.875 39.890625 15.1875 32.171875 
z
" id="DejaVuSans-65"/>
      <path id="DejaVuSans-20"/>
      <path d="M 31 75.875 
Q 24.46875 64.65625 21.28125 53.65625 
Q 18.109375 42.671875 18.109375 31.390625 
Q 18.109375 20.125 21.3125 9.0625 
Q 24.515625 -2 31 -13.1875 
L 23.1875 -13.1875 
Q 15.875 -1.703125 12.234375 9.375 
Q 8.59375 20.453125 8.59375 31.390625 
Q 8.59375 42.28125 12.203125 53.3125 
Q 15.828125 64.359375 23.1875 75.875 
z
" id="DejaVuSans-28"/>
      <path d="M 44.28125 53.078125 
L 44.28125 44.578125 
Q 40.484375 46.53125 36.375 47.5 
Q 32.28125 48.484375 27.875 48.484375 
Q 21.1875 48.484375 17.84375 46.4375 
Q 14.5 44.390625 14.5 40.28125 
Q 14.5 37.15625 16.890625 35.375 
Q 19.28125 33.59375 26.515625 31.984375 
L 29.59375 31.296875 
Q 39.15625 29.25 43.1875 25.515625 
Q 47.21875 21.78125 47.21875 15.09375 
Q 47.21875 7.46875 41.1875 3.015625 
Q 35.15625 -1.421875 24.609375 -1.421875 
Q 20.21875 -1.421875 15.453125 -0.5625 
Q 10.6875 0.296875 5.421875 2 
L 5.421875 11.28125 
Q 10.40625 8.6875 15.234375 7.390625 
Q 20.0625 6.109375 24.8125 6.109375 
Q 31.15625 6.109375 34.5625 8.28125 
Q 37.984375 10.453125 37.984375 14.40625 
Q 37.984375 18.0625 35.515625 20.015625 
Q 33.0625 21.96875 24.703125 23.78125 
L 21.578125 24.515625 
Q 13.234375 26.265625 9.515625 29.90625 
Q 5.8125 33.546875 5.8125 39.890625 
Q 5.8125 47.609375 11.28125 51.796875 
Q 16.75 56 26.8125 56 
Q 31.78125 56 36.171875 55.265625 
Q 40.578125 54.546875 44.28125 53.078125 
z
" id="DejaVuSans-73"/>
      <path d="M 8.015625 75.875 
L 15.828125 75.875 
Q 23.140625 64.359375 26.78125 53.3125 
Q 30.421875 42.28125 30.421875 31.390625 
Q 30.421875 20.453125 26.78125 9.375 
Q 23.140625 -1.703125 15.828125 -13.1875 
L 8.015625 -13.1875 
Q 14.5 -2 17.703125 9.0625 
Q 20.90625 20.125 20.90625 31.390625 
Q 20.90625 42.671875 17.703125 53.65625 
Q 14.5 64.65625 8.015625 75.875 
z
" id="DejaVuSans-29"/>
     </defs>
     <g transform="translate(215.677188 335.860562)scale(0.1 -0.1)">
      <use xlink:href="#DejaVuSans-54"/>
      <use x="61.037109" xlink:href="#DejaVuSans-69"/>
      <use x="88.820312" xlink:href="#DejaVuSans-6d"/>
      <use x="186.232422" xlink:href="#DejaVuSans-65"/>
      <use x="247.755859" xlink:href="#DejaVuSans-20"/>
      <use x="279.542969" xlink:href="#DejaVuSans-28"/>
      <use x="318.556641" xlink:href="#DejaVuSans-73"/>
      <use x="370.65625" xlink:href="#DejaVuSans-29"/>
     </g>
    </g>
   </g>
   <g id="matplotlib.axis_2">
    <g id="ytick_1">
     <g id="line2d_10">
      <defs>
       <path d="M 0 0 
L -3.5 0 
" id="ma734e0652d" style="stroke:#000000;stroke-width:0.8;"/>
      </defs>
      <g>
       <use style="stroke:#000000;stroke-width:0.8;" x="57.6" xlink:href="#ma734e0652d" y="307.584"/>
      </g>
     </g>
     <g id="text_11">
      <!-- −50 -->
      <defs>
       <path d="M 10.59375 35.5 
L 73.1875 35.5 
L 73.1875 27.203125 
L 10.59375 27.203125 
z
" id="DejaVuSans-2212"/>
      </defs>
      <g transform="translate(29.495313 311.383219)scale(0.1 -0.1)">
       <use xlink:href="#DejaVuSans-2212"/>
       <use x="83.789062" xlink:href="#DejaVuSans-35"/>
       <use x="147.412109" xlink:href="#DejaVuSans-30"/>
      </g>
     </g>
    </g>
    <g id="ytick_2">
     <g id="line2d_11">
      <g>
       <use style="stroke:#000000;stroke-width:0.8;" x="57.6" xlink:href="#ma734e0652d" y="274.32"/>
      </g>
     </g>
     <g id="text_12">
      <!-- −40 -->
      <g transform="translate(29.495313 278.119219)scale(0.1 -0.1)">
       <use xlink:href="#DejaVuSans-2212"/>
       <use x="83.789062" xlink:href="#DejaVuSans-34"/>
       <use x="147.412109" xlink:href="#DejaVuSans-30"/>
      </g>
     </g>
    </g>
    <g id="ytick_3">
     <g id="line2d_12">
      <g>
       <use style="stroke:#000000;stroke-width:0.8;" x="57.6" xlink:href="#ma734e0652d" y="241.056"/>
      </g>
     </g>
     <g id="text_13">
      <!-- −30 -->
      <g transform="translate(29.495313 244.855219)scale(0.1 -0.1)">
       <use xlink:href="#DejaVuSans-2212"/>
       <use x="83.789062" xlink:href="#DejaVuSans-33"/>
       <use x="147.412109" xlink:href="#DejaVuSans-30"/>
      </g>
     </g>
    </g>
    <g id="ytick_4">
     <g id="line2d_13">
      <g>
       <use style="stroke:#000000;stroke-width:0.8;" x="57.6" xlink:href="#ma734e0652d" y="207.792"/>
      </g>
     </g>
     <g id="text_14">
      <!-- −20 -->
      <g transform="translate(29.495313 211.591219)scale(0.1 -0.1)">
       <use xlink:href="#DejaVuSans-2212"/>
       <use x="83.789062" xlink:href="#DejaVuSans-32"/>
       <use x="147.412109" xlink:href="#DejaVuSans-30"/>
      </g>
     </g>
    </g>
    <g id="ytick_5">
     <g id="line2d_14">
      <g>
       <use style="stroke:#000000;stroke-width:0.8;" x="57.6" xlink:href="#ma734e0652d" y="174.528"/>
      </g>
     </g>
     <g id="text_15">
      <!-- −10 -->
      <g transform="translate(29.495313 178.327219)scale(0.1 -0.1)">
       <use xlink:href="#DejaVuSans-2212"/>
       <use x="83.789062" xlink:href="#DejaVuSans-31"/>
       <use x="147.412109" xlink:href="#DejaVuSans-30"/>
      </g>
     </g>
    </g>
    <g id="ytick_6">
     <g id="line2d_15">
      <g>
       <use style="stroke:#000000;stroke-width:0.8;" x="57.6" xlink:href="#ma734e0652d" y="141.264"/>
      </g>
     </g>
     <g id="text_16">
      <!-- 0 -->
      <g transform="translate(44.2375 145.063219)scale(0.1 -0.1)">
       <use xlink:href="#DejaVuSans-30"/>
      </g>
     </g>
    </g>
    <g id="ytick_7">
     <g id="line2d_16">
      <g>
       <use style="stroke:#000000;stroke-width:0.8;" x="57.6" xlink:href="#ma734e0652d" y="108"/>
      </g>
     </g>
     <g id="text_17">
      <!-- 10 -->
      <g transform="translate(37.875 111.799219)scale(0.1 -0.1)">
       <use xlink:href="#DejaVuSans-31"/>
       <use x="63.623047" xlink:href="#DejaVuSans-30"/>
      </g>
     </g>
    </g>
    <g id="ytick_8">
     <g id="line2d_17">
      <g>
       <use style="stroke:#000000;stroke-width:0.8;" x="57.6" xlink:href="#ma734e0652d" y="74.736"/>
      </g>
     </g>
     <g id="text_18">
      <!-- 20 -->
      <g transform="translate(37.875 78.535219)scale(0.1 -0.1)">
       <use xlink:href="#DejaVuSans-32"/>
       <use x="63.623047" xlink:href="#DejaVuSans-30"/>
      </g>
     </g>
    </g>
    <g id="ytick_9">
     <g id="line2d_18">
      <g>
       <use style="stroke:#000000;stroke-width:0.8;" x="57.6" xlink:href="#ma734e0652d" y="41.472"/>
      </g>
     </g>
     <g id="text_19">
      <!-- 30 -->
      <g transform="translate(37.875 45.271219)scale(0.1 -0.1)">
       <use xlink:href="#DejaVuSans-33"/>
       <use x="63.623047" xlink:href="#DejaVuSans-30"/>
      </g>
     </g>
    </g>
    <g id="text_20">
     <!-- Voltage ($\mu$V) -->
     <defs>
      <path d="M 28.609375 0 
L 0.78125 72.90625 
L 11.078125 72.90625 
L 34.1875 11.53125 
L 57.328125 72.90625 
L 67.578125 72.90625 
L 39.796875 0 
z
" id="DejaVuSans-56"/>
      <path d="M 30.609375 48.390625 
Q 23.390625 48.390625 19.1875 42.75 
Q 14.984375 37.109375 14.984375 27.296875 
Q 14.984375 17.484375 19.15625 11.84375 
Q 23.34375 6.203125 30.609375 6.203125 
Q 37.796875 6.203125 41.984375 11.859375 
Q 46.1875 17.53125 46.1875 27.296875 
Q 46.1875 37.015625 41.984375 42.703125 
Q 37.796875 48.390625 30.609375 48.390625 
z
M 30.609375 56 
Q 42.328125 56 49.015625 48.375 
Q 55.71875 40.765625 55.71875 27.296875 
Q 55.71875 13.875 49.015625 6.21875 
Q 42.328125 -1.421875 30.609375 -1.421875 
Q 18.84375 -1.421875 12.171875 6.21875 
Q 5.515625 13.875 5.515625 27.296875 
Q 5.515625 40.765625 12.171875 48.375 
Q 18.84375 56 30.609375 56 
z
" id="DejaVuSans-6f"/>
      <path d="M 9.421875 75.984375 
L 18.40625 75.984375 
L 18.40625 0 
L 9.421875 0 
z
" id="DejaVuSans-6c"/>
      <path d="M 18.3125 70.21875 
L 18.3125 54.6875 
L 36.8125 54.6875 
L 36.8125 47.703125 
L 18.3125 47.703125 
L 18.3125 18.015625 
Q 18.3125 11.328125 20.140625 9.421875 
Q 21.96875 7.515625 27.59375 7.515625 
L 36.8125 7.515625 
L 36.8125 0 
L 27.59375 0 
Q 17.1875 0 13.234375 3.875 
Q 9.28125 7.765625 9.28125 18.015625 
L 9.28125 47.703125 
L 2.6875 47.703125 
L 2.6875 54.6875 
L 9.28125 54.6875 
L 9.28125 70.21875 
z
" id="DejaVuSans-74"/>
      <path d="M 34.28125 27.484375 
Q 23.390625 27.484375 19.1875 25 
Q 14.984375 22.515625 14.984375 16.5 
Q 14.984375 11.71875 18.140625 8.90625 
Q 21.296875 6.109375 26.703125 6.109375 
Q 34.1875 6.109375 38.703125 11.40625 
Q 43.21875 16.703125 43.21875 25.484375 
L 43.21875 27.484375 
z
M 52.203125 31.203125 
L 52.203125 0 
L 43.21875 0 
L 43.21875 8.296875 
Q 40.140625 3.328125 35.546875 0.953125 
Q 30.953125 -1.421875 24.3125 -1.421875 
Q 15.921875 -1.421875 10.953125 3.296875 
Q 6 8.015625 6 15.921875 
Q 6 25.140625 12.171875 29.828125 
Q 18.359375 34.515625 30.609375 34.515625 
L 43.21875 34.515625 
L 43.21875 35.40625 
Q 43.21875 41.609375 39.140625 45 
Q 35.0625 48.390625 27.6875 48.390625 
Q 23 48.390625 18.546875 47.265625 
Q 14.109375 46.140625 10.015625 43.890625 
L 10.015625 52.203125 
Q 14.9375 54.109375 19.578125 55.046875 
Q 24.21875 56 28.609375 56 
Q 40.484375 56 46.34375 49.84375 
Q 52.203125 43.703125 52.203125 31.203125 
z
" id="DejaVuSans-61"/>
      <path d="M 45.40625 27.984375 
Q 45.40625 37.75 41.375 43.109375 
Q 37.359375 48.484375 30.078125 48.484375 
Q 22.859375 48.484375 18.828125 43.109375 
Q 14.796875 37.75 14.796875 27.984375 
Q 14.796875 18.265625 18.828125 12.890625 
Q 22.859375 7.515625 30.078125 7.515625 
Q 37.359375 7.515625 41.375 12.890625 
Q 45.40625 18.265625 45.40625 27.984375 
z
M 54.390625 6.78125 
Q 54.390625 -7.171875 48.1875 -13.984375 
Q 42 -20.796875 29.203125 -20.796875 
Q 24.46875 -20.796875 20.265625 -20.09375 
Q 16.0625 -19.390625 12.109375 -17.921875 
L 12.109375 -9.1875 
Q 16.0625 -11.328125 19.921875 -12.34375 
Q 23.78125 -13.375 27.78125 -13.375 
Q 36.625 -13.375 41.015625 -8.765625 
Q 45.40625 -4.15625 45.40625 5.171875 
L 45.40625 9.625 
Q 42.625 4.78125 38.28125 2.390625 
Q 33.9375 0 27.875 0 
Q 17.828125 0 11.671875 7.65625 
Q 5.515625 15.328125 5.515625 27.984375 
Q 5.515625 40.671875 11.671875 48.328125 
Q 17.828125 56 27.875 56 
Q 33.9375 56 38.28125 53.609375 
Q 42.625 51.21875 45.40625 46.390625 
L 45.40625 54.6875 
L 54.390625 54.6875 
z
" id="DejaVuSans-67"/>
      <path d="M -1.3125 -20.796875 
L 13.375 54.6875 
L 22.40625 54.6875 
L 15.765625 20.65625 
Q 15.578125 19.625 15.421875 18.359375 
Q 15.28125 17.09375 15.28125 15.828125 
Q 15.28125 11.28125 18.140625 8.828125 
Q 21 6.390625 26.3125 6.390625 
Q 33.546875 6.390625 37.984375 10.484375 
Q 42.4375 14.59375 44 22.796875 
L 50.203125 54.6875 
L 59.1875 54.6875 
L 51.03125 12.640625 
Q 50.828125 11.71875 50.75 11.03125 
Q 50.6875 10.359375 50.6875 9.8125 
Q 50.6875 8.296875 51.296875 7.59375 
Q 51.90625 6.890625 53.21875 6.890625 
Q 53.71875 6.890625 54.5625 7.125 
Q 55.421875 7.375 56.984375 8.015625 
L 55.609375 0.78125 
Q 53.46875 -0.296875 51.515625 -0.859375 
Q 49.5625 -1.421875 47.703125 -1.421875 
Q 44.484375 -1.421875 42.65625 0.625 
Q 40.828125 2.6875 40.828125 6.296875 
Q 38.09375 2.390625 34.296875 0.484375 
Q 30.515625 -1.421875 25.390625 -1.421875 
Q 20.84375 -1.421875 17.453125 0.671875 
Q 14.0625 2.78125 12.984375 6.203125 
L 7.71875 -20.796875 
z
" id="DejaVuSans-Oblique-3bc"/>
     </defs>
     <g transform="translate(23.395312 205.778)rotate(-90)scale(0.1 -0.1)">
      <use transform="translate(0 0.015625)" xlink:href="#DejaVuSans-56"/>
      <use transform="translate(68.408203 0.015625)" xlink:href="#DejaVuSans-6f"/>
      <use transform="translate(129.589844 0.015625)" xlink:href="#DejaVuSans-6c"/>
      <use transform="translate(157.373047 0.015625)" xlink:href="#DejaVuSans-74"/>
      <use transform="translate(196.582031 0.015625)" xlink:href="#DejaVuSans-61"/>
      <use transform="translate(257.861328 0.015625)" xlink:href="#DejaVuSans-67"/>
      <use transform="translate(321.337891 0.015625)" xlink:href="#DejaVuSans-65"/>
      <use transform="translate(382.861328 0.015625)" xlink:href="#DejaVuSans-20"/>
      <use transform="translate(414.648438 0.015625)" xlink:href="#DejaVuSans-28"/>
      <use transform="translate(453.662109 0.015625)" xlink:href="#DejaVuSans-Oblique-3bc"/>
      <use transform="translate(517.285156 0.015625)" xlink:href="#DejaVuSans-56"/>
      <use transform="translate(585.693359 0.015625)" xlink:href="#DejaVuSans-29"/>
     </g>
    </g>
   </g>
   <g id="line2d_19">
    <path clip-path="url(#p5cef4d2b02)" d="M 73.832727 163.704049 
L 84.305455 166.770526 
L 94.778182 171.594579 
L 105.250909 177.722891 
L 115.723636 185.717081 
L 126.196364 199.967998 
L 136.669091 224.119209 
L 147.141818 253.540057 
L 157.614545 276.110067 
L 168.087273 282.434869 
L 178.56 274.024492 
L 189.032727 259.77667 
L 199.505455 246.506655 
L 209.978182 235.323762 
L 220.450909 224.535396 
L 230.923636 212.769223 
L 241.396364 200.128903 
L 251.869091 187.613903 
L 262.341818 176.137049 
L 272.814545 165.695248 
L 283.287273 155.716048 
L 293.76 146.34643 
L 304.232727 138.454352 
L 314.705455 131.756685 
L 325.178182 125.034262 
L 335.650909 118.178784 
L 346.123636 111.98085 
L 356.596364 106.568874 
L 367.069091 101.322445 
L 377.541818 95.585566 
L 388.014545 90.165855 
L 398.487273 86.567154 
" style="fill:none;stroke:#000000;stroke-linecap:square;stroke-width:1.5;"/>
   </g>
   <g id="line2d_20">
    <path clip-path="url(#p5cef4d2b02)" d="M 73.832727 198.744192 
L 84.305455 214.577856 
L 94.778182 228.548736 
L 105.250909 233.07264 
L 115.723636 228.814848 
L 126.196364 227.218176 
L 136.669091 241.455168 
L 147.141818 270.195264 
L 157.614545 292.814784 
L 168.087273 291.750336 
L 178.56 271.259712 
L 189.032727 241.854336 
L 199.505455 207.392832 
L 209.978182 173.463552 
L 220.450909 147.9168 
L 230.923636 133.679808 
L 241.396364 128.357568 
L 251.869091 124.632 
L 262.341818 117.846144 
L 272.814545 109.862784 
L 283.287273 102.01248 
L 293.76 92.166336 
L 304.232727 78.461568 
L 314.705455 63.825408 
L 325.178182 53.313984 
L 335.650909 49.45536 
L 346.123636 53.713152 
L 356.596364 67.950144 
L 367.069091 86.71104 
L 377.541818 97.35552 
L 388.014545 91.501056 
L 398.487273 80.191296 
" style="fill:none;stroke:#ff0000;stroke-linecap:square;stroke-width:1.5;"/>
   </g>
   <g id="line2d_21">
    <path clip-path="url(#p5cef4d2b02)" d="M 73.832727 210.187008 
L 84.305455 207.792 
L 94.778182 200.606976 
L 105.250909 189.297216 
L 115.723636 182.378304 
L 126.196364 191.426112 
L 136.669091 218.835648 
L 147.141818 255.426048 
L 157.614545 286.028928 
L 168.087273 302.128704 
L 178.56 304.656768 
L 189.032727 297.205632 
L 199.505455 287.6256 
L 209.978182 283.766976 
L 220.450909 281.105856 
L 230.923636 269.66304 
L 241.396364 247.841856 
L 251.869091 222.42816 
L 262.341818 202.203648 
L 272.814545 193.82112 
L 283.287273 195.15168 
L 293.76 197.413632 
L 304.232727 195.284736 
L 314.705455 187.966656 
L 325.178182 175.592448 
L 335.650909 161.2224 
L 346.123636 153.505152 
L 356.596364 152.706816 
L 367.069091 146.320128 
L 377.541818 128.490624 
L 388.014545 110.794176 
L 398.487273 105.871104 
" style="fill:none;stroke:#ff1e00;stroke-linecap:square;stroke-width:1.5;"/>
   </g>
   <g id="line2d_22">
    <path clip-path="url(#p5cef4d2b02)" d="M 73.832727 148.182912 
L 84.305455 135.675648 
L 94.778182 132.216192 
L 105.250909 140.465664 
L 115.723636 155.634048 
L 126.196364 181.1808 
L 136.669091 222.561216 
L 147.141818 264.739968 
L 157.614545 283.500864 
L 168.087273 277.380288 
L 178.56 267.800256 
L 189.032727 267.268032 
L 199.505455 266.735808 
L 209.978182 255.559104 
L 220.450909 237.463488 
L 230.923636 218.303424 
L 241.396364 193.022784 
L 251.869091 156.831552 
L 262.341818 122.370048 
L 272.814545 111.592512 
L 283.287273 122.370048 
L 293.76 127.9584 
L 304.232727 113.721408 
L 314.705455 86.844096 
L 325.178182 61.563456 
L 335.650909 48.923136 
L 346.123636 50.386752 
L 356.596364 55.708992 
L 367.069091 53.713152 
L 377.541818 44.931456 
L 388.014545 38.677824 
L 398.487273 40.274496 
" style="fill:none;stroke:#ff3b00;stroke-linecap:square;stroke-width:1.5;"/>
   </g>
   <g id="line2d_23">
    <path clip-path="url(#p5cef4d2b02)" d="M 73.832727 224.823168 
L 84.305455 230.012352 
L 94.778182 239.72544 
L 105.250909 247.04352 
L 115.723636 249.438528 
L 126.196364 253.430208 
L 136.669091 266.203584 
L 147.141818 280.839744 
L 157.614545 285.496704 
L 168.087273 278.178624 
L 178.56 266.469696 
L 189.032727 257.155776 
L 199.505455 250.502976 
L 209.978182 241.189056 
L 220.450909 224.557056 
L 230.923636 204.066432 
L 241.396364 186.236928 
L 251.869091 174.794112 
L 262.341818 170.004096 
L 272.814545 171.467712 
L 283.287273 174.794112 
L 293.76 171.2016 
L 304.232727 160.956288 
L 314.705455 148.315968 
L 325.178182 134.6112 
L 335.650909 117.047808 
L 346.123636 95.492736 
L 356.596364 79.126848 
L 367.069091 71.675712 
L 377.541818 70.478208 
L 388.014545 72.07488 
L 398.487273 74.469888 
" style="fill:none;stroke:#ff5900;stroke-linecap:square;stroke-width:1.5;"/>
   </g>
   <g id="line2d_24">
    <path clip-path="url(#p5cef4d2b02)" d="M 73.832727 86.577984 
L 84.305455 77.264064 
L 94.778182 78.195456 
L 105.250909 88.174656 
L 115.723636 117.446976 
L 126.196364 173.330496 
L 136.669091 236.931264 
L 147.141818 279.376128 
L 157.614545 290.020608 
L 168.087273 283.500864 
L 178.56 276.581952 
L 189.032727 268.598592 
L 199.505455 255.426048 
L 209.978182 243.184896 
L 220.450909 238.39488 
L 230.923636 237.596544 
L 241.396364 233.338752 
L 251.869091 220.964544 
L 262.341818 203.534208 
L 272.814545 187.966656 
L 283.287273 176.656896 
L 293.76 166.012416 
L 304.232727 151.775424 
L 314.705455 134.478144 
L 325.178182 119.97504 
L 335.650909 113.98752 
L 346.123636 117.31392 
L 356.596364 123.168384 
L 367.069091 122.370048 
L 377.541818 111.725568 
L 388.014545 96.956352 
L 398.487273 84.981312 
" style="fill:none;stroke:#ff7600;stroke-linecap:square;stroke-width:1.5;"/>
   </g>
   <g id="line2d_25">
    <path clip-path="url(#p5cef4d2b02)" d="M 73.832727 142.59456 
L 84.305455 145.92096 
L 94.778182 148.848192 
L 105.250909 144.058176 
L 115.723636 139.135104 
L 126.196364 155.500992 
L 136.669091 197.8128 
L 147.141818 246.910464 
L 157.614545 284.033088 
L 168.087273 299.733696 
L 178.56 292.548672 
L 189.032727 274.719168 
L 199.505455 260.482176 
L 209.978182 251.833536 
L 220.450909 242.120448 
L 230.923636 221.895936 
L 241.396364 189.962496 
L 251.869091 158.827392 
L 262.341818 143.25984 
L 272.814545 144.989568 
L 283.287273 151.2432 
L 293.76 149.24736 
L 304.232727 139.002048 
L 314.705455 127.29312 
L 325.178182 119.708928 
L 335.650909 115.98336 
L 346.123636 111.592512 
L 356.596364 107.467776 
L 367.069091 106.66944 
L 377.541818 105.205824 
L 388.014545 98.553024 
L 398.487273 88.70688 
" style="fill:none;stroke:#ff9400;stroke-linecap:square;stroke-width:1.5;"/>
   </g>
   <g id="line2d_26">
    <path clip-path="url(#p5cef4d2b02)" d="M 73.832727 168.54048 
L 84.305455 161.089344 
L 94.778182 155.500992 
L 105.250909 153.638208 
L 115.723636 164.5488 
L 126.196364 194.619456 
L 136.669091 235.467648 
L 147.141818 268.99776 
L 157.614545 287.6256 
L 168.087273 296.540352 
L 178.56 299.201472 
L 189.032727 293.480064 
L 199.505455 280.839744 
L 209.978182 263.941632 
L 220.450909 241.987392 
L 230.923636 218.43648 
L 241.396364 199.14336 
L 251.869091 182.910528 
L 262.341818 166.943808 
L 272.814545 152.839872 
L 283.287273 139.401216 
L 293.76 125.96256 
L 304.232727 119.575872 
L 314.705455 122.236992 
L 325.178182 126.361728 
L 335.650909 127.29312 
L 346.123636 125.96256 
L 356.596364 121.172544 
L 367.069091 110.128896 
L 377.541818 95.625792 
L 388.014545 85.247424 
L 398.487273 82.187136 
" style="fill:none;stroke:#ffb100;stroke-linecap:square;stroke-width:1.5;"/>
   </g>
   <g id="line2d_27">
    <path clip-path="url(#p5cef4d2b02)" d="M 73.832727 118.511424 
L 84.305455 131.018688 
L 94.778182 138.336768 
L 105.250909 140.465664 
L 115.723636 149.513472 
L 126.196364 176.52384 
L 136.669091 220.964544 
L 147.141818 267.268032 
L 157.614545 297.205632 
L 168.087273 306.91872 
L 178.56 305.987328 
L 189.032727 302.527872 
L 199.505455 296.93952 
L 209.978182 286.161984 
L 220.450909 268.598592 
L 230.923636 245.313792 
L 241.396364 218.968704 
L 251.869091 196.615296 
L 262.341818 188.365824 
L 272.814545 194.220288 
L 283.287273 196.48224 
L 293.76 183.309696 
L 304.232727 165.87936 
L 314.705455 158.295168 
L 325.178182 156.432384 
L 335.650909 145.122624 
L 346.123636 121.172544 
L 356.596364 101.081088 
L 367.069091 96.291072 
L 377.541818 97.222464 
L 388.014545 93.230784 
L 398.487273 90.303552 
" style="fill:none;stroke:#ffcf00;stroke-linecap:square;stroke-width:1.5;"/>
   </g>
   <g id="line2d_28">
    <path clip-path="url(#p5cef4d2b02)" d="M 73.832727 157.496832 
L 84.305455 156.166272 
L 94.778182 147.384576 
L 105.250909 139.135104 
L 115.723636 140.59872 
L 126.196364 164.016576 
L 136.669091 210.719232 
L 147.141818 262.34496 
L 157.614545 292.814784 
L 168.087273 292.814784 
L 178.56 275.384448 
L 189.032727 257.554944 
L 199.505455 244.515456 
L 209.978182 231.609024 
L 220.450909 217.904256 
L 230.923636 209.388672 
L 241.396364 206.993664 
L 251.869091 204.4656 
L 262.341818 195.284736 
L 272.814545 184.108032 
L 283.287273 177.322176 
L 293.76 170.137152 
L 304.232727 150.311808 
L 314.705455 108.931392 
L 325.178182 54.378432 
L 335.650909 9.272448 
L 340.800819 -1 
" style="fill:none;stroke:#ffec00;stroke-linecap:square;stroke-width:1.5;"/>
   </g>
   <g id="line2d_29">
    <path clip-path="url(#p5cef4d2b02)" d="M 73.832727 148.049856 
L 84.305455 156.432384 
L 94.778182 175.85856 
L 105.250909 209.654784 
L 115.723636 242.519616 
L 126.196364 261.280512 
L 136.669091 270.461376 
L 147.141818 279.110016 
L 157.614545 286.96032 
L 168.087273 287.758656 
L 178.56 280.839744 
L 189.032727 270.594432 
L 199.505455 259.417728 
L 209.978182 248.507136 
L 220.450909 241.854336 
L 230.923636 241.854336 
L 241.396364 241.854336 
L 251.869091 234.536256 
L 262.341818 222.028992 
L 272.814545 206.860608 
L 283.287273 188.365824 
L 293.76 168.54048 
L 304.232727 154.968768 
L 314.705455 151.90848 
L 325.178182 150.178752 
L 335.650909 140.731776 
L 346.123636 131.95008 
L 356.596364 135.010368 
L 367.069091 144.5904 
L 377.541818 145.92096 
L 388.014545 133.812864 
L 398.487273 116.914752 
" style="fill:none;stroke:#eeff00;stroke-linecap:square;stroke-width:1.5;"/>
   </g>
   <g id="line2d_30">
    <path clip-path="url(#p5cef4d2b02)" d="M 73.832727 222.561216 
L 84.305455 247.7088 
L 94.778182 268.465536 
L 105.250909 278.045568 
L 115.723636 276.581952 
L 126.196364 271.65888 
L 136.669091 272.590272 
L 147.141818 280.839744 
L 157.614545 287.093376 
L 168.087273 280.9728 
L 178.56 262.877184 
L 189.032727 242.785728 
L 199.505455 230.810688 
L 209.978182 229.74624 
L 220.450909 232.540416 
L 230.923636 228.282624 
L 241.396364 211.916736 
L 251.869091 189.962496 
L 262.341818 177.8544 
L 272.814545 185.305536 
L 283.287273 202.602816 
L 293.76 210.320064 
L 304.232727 203.80032 
L 314.705455 192.623616 
L 325.178182 183.974976 
L 335.650909 176.257728 
L 346.123636 167.076864 
L 356.596364 157.629888 
L 367.069091 147.9168 
L 377.541818 138.735936 
L 388.014545 135.675648 
L 398.487273 139.800384 
" style="fill:none;stroke:#d1ff00;stroke-linecap:square;stroke-width:1.5;"/>
   </g>
   <g id="line2d_31">
    <path clip-path="url(#p5cef4d2b02)" d="M 73.832727 187.567488 
L 84.305455 192.889728 
L 94.778182 204.199488 
L 105.250909 214.843968 
L 115.723636 218.569536 
L 126.196364 221.363712 
L 136.669091 237.7296 
L 147.141818 267.534144 
L 157.614545 289.887552 
L 168.087273 287.093376 
L 178.56 262.877184 
L 189.032727 235.334592 
L 199.505455 214.045632 
L 209.978182 196.48224 
L 220.450909 183.442752 
L 230.923636 181.047744 
L 241.396364 185.17248 
L 251.869091 186.50304 
L 262.341818 183.17664 
L 272.814545 178.652736 
L 283.287273 173.064384 
L 293.76 165.480192 
L 304.232727 158.162112 
L 314.705455 158.428224 
L 325.178182 172.399104 
L 335.650909 194.885568 
L 346.123636 212.981184 
L 356.596364 214.045632 
L 367.069091 194.619456 
L 377.541818 172.266048 
L 388.014545 172.132992 
L 398.487273 192.224448 
" style="fill:none;stroke:#b3ff00;stroke-linecap:square;stroke-width:1.5;"/>
   </g>
   <g id="line2d_32">
    <path clip-path="url(#p5cef4d2b02)" d="M 73.832727 164.282688 
L 84.305455 167.20992 
L 94.778182 163.484352 
L 105.250909 158.162112 
L 115.723636 161.88768 
L 126.196364 183.84192 
L 136.669091 222.028992 
L 147.141818 261.945792 
L 157.614545 286.028928 
L 168.087273 286.028928 
L 178.56 268.731648 
L 189.032727 247.575744 
L 199.505455 235.866816 
L 209.978182 241.455168 
L 220.450909 258.885504 
L 230.923636 272.058048 
L 241.396364 268.199424 
L 251.869091 251.966592 
L 262.341818 235.73376 
L 272.814545 223.226496 
L 283.287273 212.848128 
L 293.76 204.199488 
L 304.232727 195.417792 
L 314.705455 184.241088 
L 325.178182 168.673536 
L 335.650909 150.311808 
L 346.123636 134.478144 
L 356.596364 119.176704 
L 367.069091 100.814976 
L 377.541818 83.916864 
L 388.014545 78.328512 
L 398.487273 87.37632 
" style="fill:none;stroke:#96ff00;stroke-linecap:square;stroke-width:1.5;"/>
   </g>
   <g id="line2d_33">
    <path clip-path="url(#p5cef4d2b02)" d="M 73.832727 183.708864 
L 84.305455 211.1184 
L 94.778182 233.07264 
L 105.250909 236.39904 
L 115.723636 226.153728 
L 126.196364 226.286784 
L 136.669091 246.644352 
L 147.141818 271.392768 
L 157.614545 285.230592 
L 168.087273 289.089216 
L 178.56 287.226432 
L 189.032727 282.835584 
L 199.505455 281.904192 
L 209.978182 284.033088 
L 220.450909 281.371968 
L 230.923636 269.130816 
L 241.396364 249.438528 
L 251.869091 227.617344 
L 262.341818 212.315904 
L 272.814545 207.658944 
L 283.287273 205.663104 
L 293.76 194.353344 
L 304.232727 172.798272 
L 314.705455 152.041536 
L 325.178182 139.002048 
L 335.650909 125.031168 
L 346.123636 101.879424 
L 356.596364 75.800448 
L 367.069091 53.846208 
L 377.541818 32.424192 
L 388.014545 9.937728 
L 397.271529 -1 
" style="fill:none;stroke:#78ff00;stroke-linecap:square;stroke-width:1.5;"/>
   </g>
   <g id="line2d_34">
    <path clip-path="url(#p5cef4d2b02)" d="M 73.832727 185.17248 
L 84.305455 175.991616 
L 94.778182 155.500992 
L 105.250909 136.340928 
L 115.723636 141.663168 
L 126.196364 177.322176 
L 136.669091 224.690112 
L 147.141818 263.409408 
L 157.614545 285.097536 
L 168.087273 291.351168 
L 178.56 284.831424 
L 189.032727 267.6672 
L 199.505455 247.442688 
L 209.978182 234.4032 
L 220.450909 234.4032 
L 230.923636 244.249344 
L 241.396364 251.70048 
L 251.869091 245.180736 
L 262.341818 224.157888 
L 272.814545 199.14336 
L 283.287273 179.051904 
L 293.76 163.617408 
L 304.232727 149.114304 
L 314.705455 135.675648 
L 325.178182 127.29312 
L 335.650909 125.696448 
L 346.123636 126.760896 
L 356.596364 119.176704 
L 367.069091 101.3472 
L 377.541818 83.38464 
L 388.014545 72.474048 
L 398.487273 68.482368 
" style="fill:none;stroke:#5bff00;stroke-linecap:square;stroke-width:1.5;"/>
   </g>
   <g id="line2d_35">
    <path clip-path="url(#p5cef4d2b02)" d="M 73.832727 169.072704 
L 84.305455 185.571648 
L 94.778182 193.421952 
L 105.250909 186.103872 
L 115.723636 181.713024 
L 126.196364 201.405312 
L 136.669091 241.455168 
L 147.141818 279.775296 
L 157.614545 298.802304 
L 168.087273 292.681728 
L 178.56 274.053888 
L 189.032727 261.413568 
L 199.505455 259.01856 
L 209.978182 255.292992 
L 220.450909 240.922944 
L 230.923636 220.831488 
L 241.396364 209.78784 
L 251.869091 213.77952 
L 262.341818 220.964544 
L 272.814545 215.642304 
L 283.287273 200.740032 
L 293.76 192.357504 
L 304.232727 196.748352 
L 314.705455 200.740032 
L 325.178182 194.4864 
L 335.650909 187.301376 
L 346.123636 185.83776 
L 356.596364 183.575808 
L 367.069091 177.18912 
L 377.541818 172.399104 
L 388.014545 172.53216 
L 398.487273 170.669376 
" style="fill:none;stroke:#3dff00;stroke-linecap:square;stroke-width:1.5;"/>
   </g>
   <g id="line2d_36">
    <path clip-path="url(#p5cef4d2b02)" d="M 73.832727 150.844032 
L 84.305455 173.064384 
L 94.778182 203.401152 
L 105.250909 225.621504 
L 115.723636 228.548736 
L 126.196364 224.424 
L 136.669091 236.931264 
L 147.141818 266.070528 
L 157.614545 291.351168 
L 168.087273 301.463424 
L 178.56 300.398976 
L 189.032727 295.60896 
L 199.505455 287.359488 
L 209.978182 274.053888 
L 220.450909 259.68384 
L 230.923636 246.245184 
L 241.396364 231.209856 
L 251.869091 215.11008 
L 262.341818 204.731712 
L 272.814545 201.272256 
L 283.287273 197.546688 
L 293.76 187.301376 
L 304.232727 171.86688 
L 314.705455 155.90016 
L 325.178182 142.727616 
L 335.650909 135.542592 
L 346.123636 137.804544 
L 356.596364 144.856512 
L 367.069091 145.388736 
L 377.541818 134.6112 
L 388.014545 119.442816 
L 398.487273 112.390848 
" style="fill:none;stroke:#20ff00;stroke-linecap:square;stroke-width:1.5;"/>
   </g>
   <g id="line2d_37">
    <path clip-path="url(#p5cef4d2b02)" d="M 73.832727 247.442688 
L 84.305455 246.511296 
L 94.778182 254.3616 
L 105.250909 258.486336 
L 115.723636 251.0352 
L 126.196364 243.184896 
L 136.669091 248.640192 
L 147.141818 267.134976 
L 157.614545 284.166144 
L 168.087273 288.556992 
L 178.56 280.839744 
L 189.032727 266.868864 
L 199.505455 248.773248 
L 209.978182 226.552896 
L 220.450909 201.1392 
L 230.923636 173.596608 
L 241.396364 150.178752 
L 251.869091 145.122624 
L 262.341818 161.488512 
L 272.814545 182.644416 
L 283.287273 195.15168 
L 293.76 199.276416 
L 304.232727 199.80864 
L 314.705455 198.47808 
L 325.178182 190.49472 
L 335.650909 171.86688 
L 346.123636 150.57792 
L 356.596364 142.461504 
L 367.069091 146.453184 
L 377.541818 143.659008 
L 388.014545 125.29728 
L 398.487273 100.149696 
" style="fill:none;stroke:#04ff08;stroke-linecap:square;stroke-width:1.5;"/>
   </g>
   <g id="line2d_38">
    <path clip-path="url(#p5cef4d2b02)" d="M 73.832727 155.101824 
L 84.305455 184.374144 
L 94.778182 216.972864 
L 105.250909 230.544576 
L 115.723636 223.492608 
L 126.196364 217.904256 
L 136.669091 232.806528 
L 147.141818 264.473856 
L 157.614545 292.94784 
L 168.087273 303.858432 
L 178.56 301.197312 
L 189.032727 299.467584 
L 199.505455 305.987328 
L 209.978182 311.309568 
L 220.450909 302.394816 
L 230.923636 276.182784 
L 241.396364 246.910464 
L 251.869091 229.214016 
L 262.341818 220.698432 
L 272.814545 209.654784 
L 283.287273 192.756672 
L 293.76 175.326336 
L 304.232727 159.093504 
L 314.705455 140.465664 
L 325.178182 122.902272 
L 335.650909 118.112256 
L 346.123636 130.220352 
L 356.596364 142.461504 
L 367.069091 134.345088 
L 377.541818 108.66528 
L 388.014545 88.307712 
L 398.487273 84.582144 
" style="fill:none;stroke:#00ff21;stroke-linecap:square;stroke-width:1.5;"/>
   </g>
   <g id="line2d_39">
    <path clip-path="url(#p5cef4d2b02)" d="M 73.832727 139.667328 
L 84.305455 155.101824 
L 94.778182 186.236928 
L 105.250909 213.646464 
L 115.723636 224.424 
L 126.196364 232.540416 
L 136.669091 254.627712 
L 147.141818 280.839744 
L 157.614545 289.754496 
L 168.087273 274.32 
L 178.56 245.313792 
L 189.032727 218.702592 
L 199.505455 204.199488 
L 209.978182 199.276416 
L 220.450909 195.950016 
L 230.923636 186.50304 
L 241.396364 173.463552 
L 251.869091 162.55296 
L 262.341818 154.702656 
L 272.814545 150.178752 
L 283.287273 147.783744 
L 293.76 142.993728 
L 304.232727 132.216192 
L 314.705455 119.30976 
L 325.178182 111.193344 
L 335.650909 112.257792 
L 346.123636 119.841984 
L 356.596364 124.365888 
L 367.069091 113.854464 
L 377.541818 87.110208 
L 388.014545 62.361792 
L 398.487273 55.176768 
" style="fill:none;stroke:#00ff3f;stroke-linecap:square;stroke-width:1.5;"/>
   </g>
   <g id="line2d_40">
    <path clip-path="url(#p5cef4d2b02)" d="M 73.832727 136.473984 
L 84.305455 133.28064 
L 94.778182 133.28064 
L 105.250909 148.182912 
L 115.723636 182.245248 
L 126.196364 225.355392 
L 136.669091 261.147456 
L 147.141818 280.9728 
L 157.614545 284.831424 
L 168.087273 275.118336 
L 178.56 254.760768 
L 189.032727 232.008192 
L 199.505455 214.843968 
L 209.978182 204.997824 
L 220.450909 196.748352 
L 230.923636 185.704704 
L 241.396364 172.266048 
L 251.869091 159.22656 
L 262.341818 148.848192 
L 272.814545 140.066496 
L 283.287273 130.353408 
L 293.76 120.64032 
L 304.232727 111.99168 
L 314.705455 102.810816 
L 325.178182 92.565504 
L 335.650909 82.71936 
L 346.123636 75.40128 
L 356.596364 74.203776 
L 367.069091 77.929344 
L 377.541818 77.796288 
L 388.014545 72.873216 
L 398.487273 71.143488 
" style="fill:none;stroke:#00ff5c;stroke-linecap:square;stroke-width:1.5;"/>
   </g>
   <g id="line2d_41">
    <path clip-path="url(#p5cef4d2b02)" d="M 73.832727 144.723456 
L 84.305455 152.041536 
L 94.778182 168.274368 
L 105.250909 187.966656 
L 115.723636 208.989504 
L 126.196364 231.209856 
L 136.669091 252.897984 
L 147.141818 274.186944 
L 157.614545 295.342848 
L 168.087273 310.644288 
L 178.56 312.640128 
L 189.032727 303.060096 
L 199.505455 289.62144 
L 209.978182 274.586112 
L 220.450909 255.958272 
L 230.923636 234.802368 
L 241.396364 214.843968 
L 251.869091 196.48224 
L 262.341818 182.245248 
L 272.814545 177.322176 
L 283.287273 174.261888 
L 293.76 158.162112 
L 304.232727 131.683968 
L 314.705455 109.99584 
L 325.178182 101.081088 
L 335.650909 101.214144 
L 346.123636 98.952192 
L 356.596364 89.904384 
L 367.069091 80.457408 
L 377.541818 75.40128 
L 388.014545 71.276544 
L 398.487273 63.160128 
" style="fill:none;stroke:#00ff7a;stroke-linecap:square;stroke-width:1.5;"/>
   </g>
   <g id="line2d_42">
    <path clip-path="url(#p5cef4d2b02)" d="M 73.832727 134.478144 
L 84.305455 126.361728 
L 94.778182 127.9584 
L 105.250909 129.555072 
L 115.723636 127.9584 
L 126.196364 132.748416 
L 136.669091 161.488512 
L 147.141818 215.77536 
L 157.614545 271.65888 
L 168.087273 301.59648 
L 178.56 299.334528 
L 189.032727 281.771136 
L 199.505455 265.804416 
L 209.978182 253.430208 
L 220.450909 239.193216 
L 230.923636 223.492608 
L 241.396364 212.981184 
L 251.869091 206.594496 
L 262.341818 198.877248 
L 272.814545 188.764992 
L 283.287273 177.588288 
L 293.76 164.681856 
L 304.232727 150.57792 
L 314.705455 137.139264 
L 325.178182 123.30144 
L 335.650909 112.923072 
L 346.123636 111.459456 
L 356.596364 113.854464 
L 367.069091 112.124736 
L 377.541818 104.6736 
L 388.014545 92.964672 
L 398.487273 79.526016 
" style="fill:none;stroke:#00ff97;stroke-linecap:square;stroke-width:1.5;"/>
   </g>
   <g id="line2d_43">
    <path clip-path="url(#p5cef4d2b02)" d="M 73.832727 156.56544 
L 84.305455 174.261888 
L 94.778182 191.293056 
L 105.250909 204.4656 
L 115.723636 211.916736 
L 126.196364 215.908416 
L 136.669091 227.218176 
L 147.141818 255.02688 
L 157.614545 288.823104 
L 168.087273 303.060096 
L 178.56 290.419776 
L 189.032727 267.268032 
L 199.505455 250.103808 
L 209.978182 243.71712 
L 220.450909 240.922944 
L 230.923636 231.875136 
L 241.396364 216.706752 
L 251.869091 201.671424 
L 262.341818 190.627776 
L 272.814545 184.773312 
L 283.287273 183.309696 
L 293.76 181.84608 
L 304.232727 175.326336 
L 314.705455 162.686016 
L 325.178182 150.444864 
L 335.650909 147.118464 
L 346.123636 149.380416 
L 356.596364 146.852352 
L 367.069091 139.93344 
L 377.541818 137.9376 
L 388.014545 142.993728 
L 398.487273 146.852352 
" style="fill:none;stroke:#00ffb5;stroke-linecap:square;stroke-width:1.5;"/>
   </g>
   <g id="line2d_44">
    <path clip-path="url(#p5cef4d2b02)" d="M 73.832727 169.072704 
L 84.305455 172.266048 
L 94.778182 183.575808 
L 105.250909 202.070592 
L 115.723636 225.355392 
L 126.196364 247.176576 
L 136.669091 258.885504 
L 147.141818 261.546624 
L 157.614545 262.478016 
L 168.087273 260.216064 
L 178.56 249.172416 
L 189.032727 230.41152 
L 199.505455 209.521728 
L 209.978182 192.889728 
L 220.450909 185.970816 
L 230.923636 184.773312 
L 241.396364 177.987456 
L 251.869091 156.698496 
L 262.341818 123.168384 
L 272.814545 90.835776 
L 283.287273 72.207936 
L 293.76 71.4096 
L 304.232727 79.126848 
L 314.705455 82.05408 
L 325.178182 75.135168 
L 335.650909 60.232896 
L 346.123636 45.995904 
L 356.596364 41.338944 
L 367.069091 45.064512 
L 377.541818 47.991744 
L 388.014545 44.532288 
L 398.487273 34.8192 
" style="fill:none;stroke:#00ffd3;stroke-linecap:square;stroke-width:1.5;"/>
   </g>
   <g id="line2d_45">
    <path clip-path="url(#p5cef4d2b02)" d="M 73.832727 201.405312 
L 84.305455 185.305536 
L 94.778182 176.52384 
L 105.250909 178.918848 
L 115.723636 187.966656 
L 126.196364 198.611136 
L 136.669091 213.513408 
L 147.141818 237.862656 
L 157.614545 265.937472 
L 168.087273 283.900032 
L 178.56 286.29504 
L 189.032727 283.63392 
L 199.505455 289.089216 
L 209.978182 300.798144 
L 220.450909 304.124544 
L 230.923636 291.61728 
L 241.396364 271.259712 
L 251.869091 253.829376 
L 262.341818 239.858496 
L 272.814545 220.033152 
L 283.287273 195.417792 
L 293.76 178.51968 
L 304.232727 175.991616 
L 314.705455 180.382464 
L 325.178182 178.918848 
L 335.650909 165.87936 
L 346.123636 146.187072 
L 356.596364 130.486464 
L 367.069091 126.228672 
L 377.541818 126.893952 
L 388.014545 120.773376 
L 398.487273 106.536384 
" style="fill:none;stroke:#00fff6;stroke-linecap:square;stroke-width:1.5;"/>
   </g>
   <g id="line2d_46">
    <path clip-path="url(#p5cef4d2b02)" d="M 73.832727 167.076864 
L 84.305455 191.958336 
L 94.778182 213.380352 
L 105.250909 226.020672 
L 115.723636 229.08096 
L 126.196364 232.141248 
L 136.669091 244.914624 
L 147.141818 260.34912 
L 157.614545 264.074688 
L 168.087273 259.284672 
L 178.56 259.816896 
L 189.032727 269.929152 
L 199.505455 277.6464 
L 209.978182 273.122496 
L 220.450909 263.276352 
L 230.923636 256.091328 
L 241.396364 246.777408 
L 251.869091 230.41152 
L 262.341818 210.45312 
L 272.814545 194.4864 
L 283.287273 186.103872 
L 293.76 179.85024 
L 304.232727 167.476032 
L 314.705455 147.9168 
L 325.178182 130.353408 
L 335.650909 123.833664 
L 346.123636 128.62368 
L 356.596364 136.340928 
L 367.069091 137.405376 
L 377.541818 128.62368 
L 388.014545 113.056128 
L 398.487273 99.085248 
" style="fill:none;stroke:#00eaff;stroke-linecap:square;stroke-width:1.5;"/>
   </g>
   <g id="line2d_47">
    <path clip-path="url(#p5cef4d2b02)" d="M 73.832727 188.365824 
L 84.305455 199.542528 
L 94.778182 203.001984 
L 105.250909 196.881408 
L 115.723636 189.16416 
L 126.196364 196.083072 
L 136.669091 221.895936 
L 147.141818 250.103808 
L 157.614545 262.478016 
L 168.087273 258.35328 
L 178.56 249.571584 
L 189.032727 248.640192 
L 199.505455 256.756608 
L 209.978182 261.147456 
L 220.450909 249.970752 
L 230.923636 230.145408 
L 241.396364 217.7712 
L 251.869091 219.10176 
L 262.341818 224.690112 
L 272.814545 223.226496 
L 283.287273 213.11424 
L 293.76 199.14336 
L 304.232727 184.773312 
L 314.705455 170.669376 
L 325.178182 153.23904 
L 335.650909 130.885632 
L 346.123636 108 
L 356.596364 92.831616 
L 367.069091 90.835776 
L 377.541818 92.166336 
L 388.014545 82.187136 
L 398.487273 60.499008 
" style="fill:none;stroke:#00cdff;stroke-linecap:square;stroke-width:1.5;"/>
   </g>
   <g id="line2d_48">
    <path clip-path="url(#p5cef4d2b02)" d="M 73.832727 166.677696 
L 84.305455 161.88768 
L 94.778182 165.480192 
L 105.250909 175.592448 
L 115.723636 189.031104 
L 126.196364 210.45312 
L 136.669091 238.128768 
L 147.141818 257.821056 
L 157.614545 262.478016 
L 168.087273 259.151616 
L 178.56 255.426048 
L 189.032727 250.236864 
L 199.505455 240.257664 
L 209.978182 224.690112 
L 220.450909 210.586176 
L 230.923636 209.654784 
L 241.396364 220.565376 
L 251.869091 225.488448 
L 262.341818 214.577856 
L 272.814545 200.074752 
L 283.287273 198.345024 
L 293.76 206.46144 
L 304.232727 209.388672 
L 314.705455 200.740032 
L 325.178182 182.777472 
L 335.650909 157.896 
L 346.123636 131.550912 
L 356.596364 114.785856 
L 367.069091 110.66112 
L 377.541818 108.798336 
L 388.014545 100.282752 
L 398.487273 86.04576 
" style="fill:none;stroke:#00afff;stroke-linecap:square;stroke-width:1.5;"/>
   </g>
   <g id="line2d_49">
    <path clip-path="url(#p5cef4d2b02)" d="M 73.832727 158.960448 
L 84.305455 160.024896 
L 94.778182 160.690176 
L 105.250909 165.081024 
L 115.723636 173.463552 
L 126.196364 185.305536 
L 136.669091 205.396992 
L 147.141818 236.39904 
L 157.614545 271.525824 
L 168.087273 297.072576 
L 178.56 298.802304 
L 189.032727 273.65472 
L 199.505455 235.73376 
L 209.978182 205.396992 
L 220.450909 191.293056 
L 230.923636 184.108032 
L 241.396364 171.86688 
L 251.869091 152.174592 
L 262.341818 128.224512 
L 272.814545 100.814976 
L 283.287273 75.135168 
L 293.76 62.627904 
L 304.232727 70.07904 
L 314.705455 90.835776 
L 325.178182 110.395008 
L 335.650909 122.103936 
L 346.123636 130.486464 
L 356.596364 140.864832 
L 367.069091 151.642368 
L 377.541818 157.496832 
L 388.014545 157.097664 
L 398.487273 154.702656 
" style="fill:none;stroke:#0092ff;stroke-linecap:square;stroke-width:1.5;"/>
   </g>
   <g id="line2d_50">
    <path clip-path="url(#p5cef4d2b02)" d="M 73.832727 196.615296 
L 84.305455 208.45728 
L 94.778182 228.41568 
L 105.250909 244.116288 
L 115.723636 246.37824 
L 126.196364 244.3824 
L 136.669091 249.837696 
L 147.141818 261.147456 
L 157.614545 270.727488 
L 168.087273 273.521664 
L 178.56 269.396928 
L 189.032727 259.01856 
L 199.505455 244.648512 
L 209.978182 229.613184 
L 220.450909 218.702592 
L 230.923636 213.513408 
L 241.396364 207.925056 
L 251.869091 197.014464 
L 262.341818 182.910528 
L 272.814545 170.403264 
L 283.287273 160.291008 
L 293.76 149.513472 
L 304.232727 137.006208 
L 314.705455 129.688128 
L 325.178182 127.027008 
L 335.650909 116.64864 
L 346.123636 93.230784 
L 356.596364 69.147648 
L 367.069091 52.11648 
L 377.541818 38.943936 
L 388.014545 28.432512 
L 398.487273 18.719424 
" style="fill:none;stroke:#0074ff;stroke-linecap:square;stroke-width:1.5;"/>
   </g>
   <g id="line2d_51">
    <path clip-path="url(#p5cef4d2b02)" d="M 73.832727 159.625728 
L 84.305455 175.85856 
L 94.778182 190.361664 
L 105.250909 204.864768 
L 115.723636 213.11424 
L 126.196364 216.307584 
L 136.669091 229.08096 
L 147.141818 254.494656 
L 157.614545 274.453056 
L 168.087273 270.9936 
L 178.56 248.773248 
L 189.032727 225.887616 
L 199.505455 210.45312 
L 209.978182 203.13504 
L 220.450909 200.207808 
L 230.923636 191.82528 
L 241.396364 173.330496 
L 251.869091 149.646528 
L 262.341818 126.760896 
L 272.814545 109.064448 
L 283.287273 99.484416 
L 293.76 99.617472 
L 304.232727 103.209984 
L 314.705455 101.3472 
L 325.178182 92.964672 
L 335.650909 83.251584 
L 346.123636 79.659072 
L 356.596364 82.586304 
L 367.069091 82.586304 
L 377.541818 73.40544 
L 388.014545 59.43456 
L 398.487273 48.390912 
" style="fill:none;stroke:#0057ff;stroke-linecap:square;stroke-width:1.5;"/>
   </g>
   <g id="line2d_52">
    <path clip-path="url(#p5cef4d2b02)" d="M 73.832727 128.091456 
L 84.305455 122.503104 
L 94.778182 124.365888 
L 105.250909 137.139264 
L 115.723636 160.157952 
L 126.196364 189.031104 
L 136.669091 222.42816 
L 147.141818 261.413568 
L 157.614545 300.398976 
L 168.087273 327.276288 
L 178.56 331.401024 
L 189.032727 315.56736 
L 199.505455 291.61728 
L 209.978182 265.538304 
L 220.450909 242.38656 
L 230.923636 225.355392 
L 241.396364 212.848128 
L 251.869091 205.663104 
L 262.341818 205.263936 
L 272.814545 204.199488 
L 283.287273 189.563328 
L 293.76 160.157952 
L 304.232727 128.756736 
L 314.705455 107.866944 
L 325.178182 102.01248 
L 335.650909 106.403328 
L 346.123636 108.66528 
L 356.596364 98.0208 
L 367.069091 77.131008 
L 377.541818 58.76928 
L 388.014545 50.78592 
L 398.487273 50.519808 
" style="fill:none;stroke:#0039ff;stroke-linecap:square;stroke-width:1.5;"/>
   </g>
   <g id="line2d_53">
    <path clip-path="url(#p5cef4d2b02)" d="M 73.832727 156.432384 
L 84.305455 116.64864 
L 94.778182 86.977152 
L 105.250909 91.234944 
L 115.723636 120.241152 
L 126.196364 155.634048 
L 136.669091 194.619456 
L 147.141818 239.991552 
L 157.614545 277.6464 
L 168.087273 289.222272 
L 178.56 277.247232 
L 189.032727 262.478016 
L 199.505455 260.748288 
L 209.978182 268.731648 
L 220.450909 276.848064 
L 230.923636 278.97696 
L 241.396364 276.31584 
L 251.869091 270.727488 
L 262.341818 256.889664 
L 272.814545 229.74624 
L 283.287273 195.417792 
L 293.76 175.459392 
L 304.232727 185.17248 
L 314.705455 209.654784 
L 325.178182 218.569536 
L 335.650909 196.216128 
L 346.123636 153.771264 
L 356.596364 109.862784 
L 367.069091 77.131008 
L 377.541818 56.10816 
L 388.014545 43.068672 
L 398.487273 39.875328 
" style="fill:none;stroke:#001cff;stroke-linecap:square;stroke-width:1.5;"/>
   </g>
   <g id="line2d_54">
    <path clip-path="url(#p5cef4d2b02)" d="M 73.832727 87.37632 
L 84.305455 82.453248 
L 94.778182 94.162176 
L 105.250909 113.98752 
L 115.723636 134.212032 
L 126.196364 157.496832 
L 136.669091 190.627776 
L 147.141818 232.673472 
L 157.614545 268.731648 
L 168.087273 284.432256 
L 178.56 279.908352 
L 189.032727 264.207744 
L 199.505455 245.446848 
L 209.978182 226.952064 
L 220.450909 213.247296 
L 230.923636 209.388672 
L 241.396364 206.993664 
L 251.869091 195.81696 
L 262.341818 175.592448 
L 272.814545 153.638208 
L 283.287273 140.731776 
L 293.76 135.409536 
L 304.232727 123.96672 
L 314.705455 102.411648 
L 325.178182 84.7152 
L 335.650909 81.3888 
L 346.123636 84.848256 
L 356.596364 79.659072 
L 367.069091 62.894016 
L 377.541818 44.13312 
L 388.014545 28.299456 
L 398.487273 20.582208 
" style="fill:none;stroke:#0800ff;stroke-linecap:square;stroke-width:1.5;"/>
   </g>
   <g id="line2d_55">
    <path clip-path="url(#p5cef4d2b02)" d="M 73.832727 143.525952 
L 84.305455 148.449024 
L 94.778182 141.796224 
L 105.250909 131.2848 
L 115.723636 132.482304 
L 126.196364 146.58624 
L 136.669091 170.137152 
L 147.141818 209.78784 
L 157.614545 263.143296 
L 168.087273 308.116224 
L 178.56 324.482112 
L 189.032727 314.2368 
L 199.505455 294.012288 
L 209.978182 276.98112 
L 220.450909 264.473856 
L 230.923636 252.897984 
L 241.396364 239.459328 
L 251.869091 220.565376 
L 262.341818 194.619456 
L 272.814545 170.137152 
L 283.287273 157.23072 
L 293.76 160.291008 
L 304.232727 173.596608 
L 314.705455 183.442752 
L 325.178182 183.309696 
L 335.650909 175.459392 
L 346.123636 160.690176 
L 356.596364 141.130944 
L 367.069091 123.96672 
L 377.541818 113.98752 
L 388.014545 107.068608 
L 398.487273 97.089408 
" style="fill:none;stroke:#2500ff;stroke-linecap:square;stroke-width:1.5;"/>
   </g>
   <g id="line2d_56">
    <path clip-path="url(#p5cef4d2b02)" d="M 73.832727 126.760896 
L 84.305455 123.168384 
L 94.778182 127.027008 
L 105.250909 142.195392 
L 115.723636 168.141312 
L 126.196364 199.675584 
L 136.669091 228.41568 
L 147.141818 249.970752 
L 157.614545 266.469696 
L 168.087273 278.045568 
L 178.56 283.234752 
L 189.032727 282.170304 
L 199.505455 271.259712 
L 209.978182 254.3616 
L 220.450909 240.789888 
L 230.923636 235.73376 
L 241.396364 236.132928 
L 251.869091 233.07264 
L 262.341818 220.033152 
L 272.814545 199.80864 
L 283.287273 177.322176 
L 293.76 155.367936 
L 304.232727 135.542592 
L 314.705455 118.64448 
L 325.178182 105.738048 
L 335.650909 98.419968 
L 346.123636 93.763008 
L 356.596364 88.573824 
L 367.069091 83.916864 
L 377.541818 81.255744 
L 388.014545 81.521856 
L 398.487273 82.985472 
" style="fill:none;stroke:#4300ff;stroke-linecap:square;stroke-width:1.5;"/>
   </g>
   <g id="line2d_57">
    <path clip-path="url(#p5cef4d2b02)" d="M 73.832727 122.236992 
L 84.305455 113.588352 
L 94.778182 117.31392 
L 105.250909 138.469824 
L 115.723636 166.278528 
L 126.196364 187.567488 
L 136.669091 207.12672 
L 147.141818 235.866816 
L 157.614545 265.538304 
L 168.087273 275.65056 
L 178.56 259.417728 
L 189.032727 232.939584 
L 199.505455 213.77952 
L 209.978182 203.001984 
L 220.450909 193.688064 
L 230.923636 182.378304 
L 241.396364 168.806592 
L 251.869091 152.041536 
L 262.341818 133.94592 
L 272.814545 119.442816 
L 283.287273 110.927232 
L 293.76 106.270272 
L 304.232727 105.738048 
L 314.705455 114.6528 
L 325.178182 135.542592 
L 335.650909 161.754624 
L 346.123636 179.717184 
L 356.596364 181.1808 
L 367.069091 168.274368 
L 377.541818 151.90848 
L 388.014545 141.530112 
L 398.487273 134.078976 
" style="fill:none;stroke:#6000ff;stroke-linecap:square;stroke-width:1.5;"/>
   </g>
   <g id="line2d_58">
    <path clip-path="url(#p5cef4d2b02)" d="M 73.832727 228.947904 
L 84.305455 235.334592 
L 94.778182 235.201536 
L 105.250909 231.342912 
L 115.723636 225.355392 
L 126.196364 218.835648 
L 136.669091 220.166208 
L 147.141818 238.128768 
L 157.614545 265.67136 
L 168.087273 279.243072 
L 178.56 266.33664 
L 189.032727 239.193216 
L 199.505455 217.638144 
L 209.978182 210.719232 
L 220.450909 211.517568 
L 230.923636 208.324224 
L 241.396364 199.276416 
L 251.869091 192.756672 
L 262.341818 195.417792 
L 272.814545 201.006144 
L 283.287273 197.413632 
L 293.76 184.374144 
L 304.232727 171.733824 
L 314.705455 164.5488 
L 325.178182 160.157952 
L 335.650909 152.972928 
L 346.123636 144.058176 
L 356.596364 140.864832 
L 367.069091 146.852352 
L 377.541818 155.367936 
L 388.014545 155.634048 
L 398.487273 144.457344 
" style="fill:none;stroke:#7e00ff;stroke-linecap:square;stroke-width:1.5;"/>
   </g>
   <g id="line2d_59">
    <path clip-path="url(#p5cef4d2b02)" d="M 73.832727 183.708864 
L 84.305455 168.008256 
L 94.778182 162.55296 
L 105.250909 168.939648 
L 115.723636 184.5072 
L 126.196364 207.925056 
L 136.669091 236.532096 
L 147.141818 260.748288 
L 157.614545 268.066368 
L 168.087273 255.159936 
L 178.56 228.681792 
L 189.032727 200.340864 
L 199.505455 184.241088 
L 209.978182 192.224448 
L 220.450909 219.234816 
L 230.923636 240.523776 
L 241.396364 238.39488 
L 251.869091 218.968704 
L 262.341818 197.280576 
L 272.814545 176.257728 
L 283.287273 149.24736 
L 293.76 121.039488 
L 304.232727 103.609152 
L 314.705455 100.415808 
L 325.178182 107.600832 
L 335.650909 120.773376 
L 346.123636 133.413696 
L 356.596364 139.002048 
L 367.069091 138.336768 
L 377.541818 138.469824 
L 388.014545 140.864832 
L 398.487273 137.139264 
" style="fill:none;stroke:#9b00ff;stroke-linecap:square;stroke-width:1.5;"/>
   </g>
   <g id="line2d_60">
    <path clip-path="url(#p5cef4d2b02)" d="M 73.832727 199.941696 
L 84.305455 198.611136 
L 94.778182 211.251456 
L 105.250909 227.218176 
L 115.723636 228.41568 
L 126.196364 218.835648 
L 136.669091 221.895936 
L 147.141818 249.172416 
L 157.614545 281.771136 
L 168.087273 294.544512 
L 178.56 277.779456 
L 189.032727 242.38656 
L 199.505455 214.045632 
L 209.978182 204.199488 
L 220.450909 201.937536 
L 230.923636 198.611136 
L 241.396364 194.752512 
L 251.869091 189.297216 
L 262.341818 175.326336 
L 272.814545 151.2432 
L 283.287273 124.765056 
L 293.76 108.133056 
L 304.232727 108.66528 
L 314.705455 115.584192 
L 325.178182 109.463616 
L 335.650909 89.771328 
L 346.123636 74.869056 
L 356.596364 74.469888 
L 367.069091 76.997952 
L 377.541818 67.950144 
L 388.014545 49.721472 
L 398.487273 37.214208 
" style="fill:none;stroke:#b900ff;stroke-linecap:square;stroke-width:1.5;"/>
   </g>
   <g id="line2d_61">
    <path clip-path="url(#p5cef4d2b02)" d="M 73.832727 171.2016 
L 84.305455 176.656896 
L 94.778182 181.446912 
L 105.250909 184.640256 
L 115.723636 182.51136 
L 126.196364 184.108032 
L 136.669091 203.13504 
L 147.141818 236.665152 
L 157.614545 262.877184 
L 168.087273 269.66304 
L 178.56 264.739968 
L 189.032727 258.220224 
L 199.505455 253.164096 
L 209.978182 250.103808 
L 220.450909 245.71296 
L 230.923636 235.334592 
L 241.396364 222.960384 
L 251.869091 219.500928 
L 262.341818 227.484288 
L 272.814545 234.536256 
L 283.287273 229.480128 
L 293.76 213.77952 
L 304.232727 195.15168 
L 314.705455 180.51552 
L 325.178182 171.86688 
L 335.650909 167.742144 
L 346.123636 165.613248 
L 356.596364 160.291008 
L 367.069091 149.646528 
L 377.541818 140.59872 
L 388.014545 139.002048 
L 398.487273 142.59456 
" style="fill:none;stroke:#d600ff;stroke-linecap:square;stroke-width:1.5;"/>
   </g>
   <g id="line2d_62">
    <path clip-path="url(#p5cef4d2b02)" d="M 73.832727 181.313856 
L 84.305455 201.006144 
L 94.778182 219.10176 
L 105.250909 228.548736 
L 115.723636 225.222336 
L 126.196364 217.10592 
L 136.669091 221.0976 
L 147.141818 244.648512 
L 157.614545 271.259712 
L 168.087273 272.058048 
L 178.56 239.06016 
L 189.032727 197.014464 
L 199.505455 174.927168 
L 209.978182 179.85024 
L 220.450909 198.877248 
L 230.923636 218.968704 
L 241.396364 231.342912 
L 251.869091 237.06432 
L 262.341818 240.39072 
L 272.814545 232.540416 
L 283.287273 206.062272 
L 293.76 171.600768 
L 304.232727 147.783744 
L 314.705455 145.654848 
L 325.178182 162.952128 
L 335.650909 184.5072 
L 346.123636 191.559168 
L 356.596364 177.322176 
L 367.069091 158.029056 
L 377.541818 154.303488 
L 388.014545 163.484352 
L 398.487273 165.480192 
" style="fill:none;stroke:#f800fd;stroke-linecap:square;stroke-width:1.5;"/>
   </g>
   <g id="line2d_63">
    <path clip-path="url(#p5cef4d2b02)" d="M 73.832727 153.105984 
L 84.305455 151.2432 
L 94.778182 153.23904 
L 105.250909 160.291008 
L 115.723636 173.995776 
L 126.196364 197.8128 
L 136.669091 229.214016 
L 147.141818 258.619392 
L 157.614545 277.380288 
L 168.087273 281.238912 
L 178.56 276.581952 
L 189.032727 274.719168 
L 199.505455 278.577792 
L 209.978182 276.448896 
L 220.450909 259.550784 
L 230.923636 236.132928 
L 241.396364 219.500928 
L 251.869091 213.513408 
L 262.341818 210.852288 
L 272.814545 201.1392 
L 283.287273 183.575808 
L 293.76 165.746304 
L 304.232727 152.972928 
L 314.705455 142.993728 
L 325.178182 131.2848 
L 335.650909 120.906432 
L 346.123636 115.98336 
L 356.596364 116.382528 
L 367.069091 114.6528 
L 377.541818 105.604992 
L 388.014545 97.754688 
L 398.487273 97.222464 
" style="fill:none;stroke:#ff00e7;stroke-linecap:square;stroke-width:1.5;"/>
   </g>
   <g id="line2d_64">
    <path clip-path="url(#p5cef4d2b02)" d="M 73.832727 227.218176 
L 84.305455 242.918784 
L 94.778182 252.897984 
L 105.250909 246.910464 
L 115.723636 232.008192 
L 126.196364 228.016512 
L 136.669091 243.451008 
L 147.141818 262.078848 
L 157.614545 266.469696 
L 168.087273 257.421888 
L 178.56 245.979072 
L 189.032727 236.931264 
L 199.505455 225.75456 
L 209.978182 210.320064 
L 220.450909 191.426112 
L 230.923636 173.064384 
L 241.396364 161.089344 
L 251.869091 158.56128 
L 262.341818 163.88352 
L 272.814545 173.596608 
L 283.287273 186.236928 
L 293.76 202.336704 
L 304.232727 214.710912 
L 314.705455 214.045632 
L 325.178182 202.46976 
L 335.650909 189.696384 
L 346.123636 179.051904 
L 356.596364 169.338816 
L 367.069091 163.617408 
L 377.541818 163.351296 
L 388.014545 163.484352 
L 398.487273 156.964608 
" style="fill:none;stroke:#ff00c9;stroke-linecap:square;stroke-width:1.5;"/>
   </g>
   <g id="line2d_65">
    <path clip-path="url(#p5cef4d2b02)" d="M 73.832727 118.910592 
L 84.305455 119.575872 
L 94.778182 146.320128 
L 105.250909 178.652736 
L 115.723636 200.074752 
L 126.196364 214.4448 
L 136.669091 230.677632 
L 147.141818 250.769088 
L 157.614545 264.473856 
L 168.087273 257.421888 
L 178.56 235.201536 
L 189.032727 216.972864 
L 199.505455 205.79616 
L 209.978182 196.216128 
L 220.450909 189.82944 
L 230.923636 183.84192 
L 241.396364 174.661056 
L 251.869091 164.282688 
L 262.341818 154.968768 
L 272.814545 145.92096 
L 283.287273 135.542592 
L 293.76 124.232832 
L 304.232727 111.99168 
L 314.705455 98.419968 
L 325.178182 80.989632 
L 335.650909 55.708992 
L 346.123636 23.908608 
L 355.242408 -1 
" style="fill:none;stroke:#ff00ac;stroke-linecap:square;stroke-width:1.5;"/>
   </g>
   <g id="line2d_66">
    <path clip-path="url(#p5cef4d2b02)" d="M 73.832727 152.972928 
L 84.305455 160.690176 
L 94.778182 172.665216 
L 105.250909 187.16832 
L 115.723636 197.14752 
L 126.196364 205.263936 
L 136.669091 222.42816 
L 147.141818 249.970752 
L 157.614545 274.32 
L 168.087273 279.908352 
L 178.56 264.074688 
L 189.032727 242.918784 
L 199.505455 232.806528 
L 209.978182 232.008192 
L 220.450909 228.814848 
L 230.923636 218.303424 
L 241.396364 203.80032 
L 251.869091 189.962496 
L 262.341818 178.51968 
L 272.814545 169.338816 
L 283.287273 158.694336 
L 293.76 139.26816 
L 304.232727 117.446976 
L 314.705455 106.536384 
L 325.178182 107.201664 
L 335.650909 110.128896 
L 346.123636 110.395008 
L 356.596364 109.862784 
L 367.069091 106.403328 
L 377.541818 92.299392 
L 388.014545 71.143488 
L 398.487273 57.837888 
" style="fill:none;stroke:#ff008e;stroke-linecap:square;stroke-width:1.5;"/>
   </g>
   <g id="line2d_67">
    <path clip-path="url(#p5cef4d2b02)" d="M 73.832727 184.773312 
L 84.305455 209.255616 
L 94.778182 229.08096 
L 105.250909 241.455168 
L 115.723636 247.575744 
L 126.196364 250.902144 
L 136.669091 253.03104 
L 147.141818 258.752448 
L 157.614545 267.268032 
L 168.087273 271.65888 
L 178.56 268.066368 
L 189.032727 261.280512 
L 199.505455 256.091328 
L 209.978182 250.769088 
L 220.450909 239.326272 
L 230.923636 226.286784 
L 241.396364 220.698432 
L 251.869091 220.565376 
L 262.341818 216.972864 
L 272.814545 204.066432 
L 283.287273 183.309696 
L 293.76 161.621568 
L 304.232727 145.654848 
L 314.705455 137.671488 
L 325.178182 137.139264 
L 335.650909 140.332608 
L 346.123636 141.92928 
L 356.596364 139.93344 
L 367.069091 137.006208 
L 377.541818 134.478144 
L 388.014545 132.083136 
L 398.487273 130.486464 
" style="fill:none;stroke:#ff0071;stroke-linecap:square;stroke-width:1.5;"/>
   </g>
   <g id="line2d_68">
    <path clip-path="url(#p5cef4d2b02)" d="M 73.832727 216.307584 
L 84.305455 207.259776 
L 94.778182 205.263936 
L 105.250909 212.182848 
L 115.723636 223.09344 
L 126.196364 233.73792 
L 136.669091 244.116288 
L 147.141818 253.69632 
L 157.614545 263.808576 
L 168.087273 278.710848 
L 178.56 294.677568 
L 189.032727 298.802304 
L 199.505455 285.762816 
L 209.978182 259.284672 
L 220.450909 226.819008 
L 230.923636 194.4864 
L 241.396364 164.814912 
L 251.869091 140.59872 
L 262.341818 124.232832 
L 272.814545 114.6528 
L 283.287273 108.798336 
L 293.76 104.939712 
L 304.232727 99.484416 
L 314.705455 90.170496 
L 325.178182 79.925184 
L 335.650909 67.284864 
L 346.123636 47.326464 
L 356.596364 22.444992 
L 367.069091 3.151872 
L 372.25624 -1 
" style="fill:none;stroke:#ff0053;stroke-linecap:square;stroke-width:1.5;"/>
   </g>
   <g id="line2d_69">
    <path clip-path="url(#p5cef4d2b02)" d="M 73.832727 214.4448 
L 84.305455 214.178688 
L 94.778182 219.500928 
L 105.250909 231.875136 
L 115.723636 245.979072 
L 126.196364 253.03104 
L 136.669091 254.3616 
L 147.141818 258.087168 
L 157.614545 264.606912 
L 168.087273 263.542464 
L 178.56 248.37408 
L 189.032727 228.016512 
L 199.505455 216.573696 
L 209.978182 213.646464 
L 220.450909 211.650624 
L 230.923636 210.45312 
L 241.396364 214.311744 
L 251.869091 219.900096 
L 262.341818 219.10176 
L 272.814545 208.723392 
L 283.287273 198.345024 
L 293.76 197.945856 
L 304.232727 203.534208 
L 314.705455 202.070592 
L 325.178182 192.357504 
L 335.650909 184.241088 
L 346.123636 182.245248 
L 356.596364 182.245248 
L 367.069091 181.713024 
L 377.541818 183.442752 
L 388.014545 187.16832 
L 398.487273 185.970816 
" style="fill:none;stroke:#ff0035;stroke-linecap:square;stroke-width:1.5;"/>
   </g>
   <g id="line2d_70">
    <path clip-path="url(#p5cef4d2b02)" d="M 73.832727 163.704049 
L 84.305455 166.770526 
L 94.778182 171.594579 
L 105.250909 177.722891 
L 115.723636 185.717081 
L 126.196364 199.967998 
L 136.669091 224.119209 
L 147.141818 253.540057 
L 157.614545 276.110067 
L 168.087273 282.434869 
L 178.56 274.024492 
L 189.032727 259.77667 
L 199.505455 246.506655 
L 209.978182 235.323762 
L 220.450909 224.535396 
L 230.923636 212.769223 
L 241.396364 200.128903 
L 251.869091 187.613903 
L 262.341818 176.137049 
L 272.814545 165.695248 
L 283.287273 155.716048 
L 293.76 146.34643 
L 304.232727 138.454352 
L 314.705455 131.756685 
L 325.178182 125.034262 
L 335.650909 118.178784 
L 346.123636 111.98085 
L 356.596364 106.568874 
L 367.069091 101.322445 
L 377.541818 95.585566 
L 388.014545 90.165855 
L 398.487273 86.567154 
" style="fill:none;stroke:#000000;stroke-linecap:square;stroke-width:2;"/>
   </g>
   <g id="patch_3">
    <path d="M 57.6 307.584 
L 57.6 41.472 
" style="fill:none;stroke:#000000;stroke-linecap:square;stroke-linejoin:miter;stroke-width:0.8;"/>
   </g>
   <g id="patch_4">
    <path d="M 414.72 307.584 
L 414.72 41.472 
" style="fill:none;stroke:#000000;stroke-linecap:square;stroke-linejoin:miter;stroke-width:0.8;"/>
   </g>
   <g id="patch_5">
    <path d="M 57.6 307.584 
L 414.72 307.584 
" style="fill:none;stroke:#000000;stroke-linecap:square;stroke-linejoin:miter;stroke-width:0.8;"/>
   </g>
   <g id="patch_6">
    <path d="M 57.6 41.472 
L 414.72 41.472 
" style="fill:none;stroke:#000000;stroke-linecap:square;stroke-linejoin:miter;stroke-width:0.8;"/>
   </g>
   <g id="text_21">
    <!-- $V_{rms}=$ 20.579093 -->
    <defs>
     <path d="M 20.609375 0 
L 7.8125 72.90625 
L 17.484375 72.90625 
L 28.078125 10.203125 
L 63.484375 72.90625 
L 74.21875 72.90625 
L 32.078125 0 
z
" id="DejaVuSans-Oblique-56"/>
     <path d="M 44.578125 46.390625 
Q 43.21875 47.125 41.453125 47.515625 
Q 39.703125 47.90625 37.703125 47.90625 
Q 30.515625 47.90625 25.140625 42.453125 
Q 19.78125 37.015625 18.015625 27.875 
L 12.5 0 
L 3.515625 0 
L 14.203125 54.6875 
L 23.1875 54.6875 
L 21.484375 46.1875 
Q 25.046875 50.921875 30 53.453125 
Q 34.96875 56 40.578125 56 
Q 42.046875 56 43.453125 55.828125 
Q 44.875 55.671875 46.296875 55.28125 
z
" id="DejaVuSans-Oblique-72"/>
     <path d="M 89.796875 33.015625 
L 83.40625 0 
L 74.421875 0 
L 80.71875 32.71875 
Q 81.109375 34.8125 81.296875 36.328125 
Q 81.5 37.84375 81.5 38.921875 
Q 81.5 43.3125 79.046875 45.75 
Q 76.609375 48.1875 72.21875 48.1875 
Q 65.671875 48.1875 60.546875 43.28125 
Q 55.421875 38.375 53.90625 30.515625 
L 47.90625 0 
L 38.921875 0 
L 45.3125 32.71875 
Q 45.703125 34.515625 45.890625 36.046875 
Q 46.09375 37.59375 46.09375 38.8125 
Q 46.09375 43.265625 43.65625 45.71875 
Q 41.21875 48.1875 36.921875 48.1875 
Q 30.28125 48.1875 25.140625 43.28125 
Q 20.015625 38.375 18.5 30.515625 
L 12.5 0 
L 3.515625 0 
L 14.203125 54.6875 
L 23.1875 54.6875 
L 21.484375 46.1875 
Q 25.140625 50.984375 30.046875 53.484375 
Q 34.96875 56 40.578125 56 
Q 46.53125 56 50.359375 52.875 
Q 54.203125 49.75 54.984375 44.1875 
Q 59.078125 49.953125 64.46875 52.96875 
Q 69.875 56 75.875 56 
Q 82.90625 56 86.734375 51.953125 
Q 90.578125 47.90625 90.578125 40.484375 
Q 90.578125 38.875 90.375 36.9375 
Q 90.1875 35.015625 89.796875 33.015625 
z
" id="DejaVuSans-Oblique-6d"/>
     <path d="M 50 53.078125 
L 48.296875 44.578125 
Q 44.734375 46.53125 40.765625 47.5 
Q 36.8125 48.484375 32.625 48.484375 
Q 25.53125 48.484375 21.453125 46.0625 
Q 17.390625 43.65625 17.390625 39.5 
Q 17.390625 34.671875 26.859375 32.078125 
Q 27.59375 31.890625 27.9375 31.78125 
L 30.8125 30.90625 
Q 39.796875 28.421875 42.796875 25.6875 
Q 45.796875 22.953125 45.796875 18.21875 
Q 45.796875 9.515625 38.890625 4.046875 
Q 31.984375 -1.421875 20.796875 -1.421875 
Q 16.453125 -1.421875 11.671875 -0.578125 
Q 6.890625 0.25 1.125 2 
L 2.875 11.28125 
Q 7.8125 8.734375 12.59375 7.421875 
Q 17.390625 6.109375 21.78125 6.109375 
Q 28.375 6.109375 32.5 8.9375 
Q 36.625 11.765625 36.625 16.109375 
Q 36.625 20.796875 25.78125 23.6875 
L 24.859375 23.921875 
L 21.78125 24.703125 
Q 14.9375 26.515625 11.765625 29.46875 
Q 8.59375 32.421875 8.59375 37.015625 
Q 8.59375 45.75 15.15625 50.875 
Q 21.734375 56 33.015625 56 
Q 37.453125 56 41.671875 55.265625 
Q 45.90625 54.546875 50 53.078125 
z
" id="DejaVuSans-Oblique-73"/>
     <path d="M 10.59375 45.40625 
L 73.1875 45.40625 
L 73.1875 37.203125 
L 10.59375 37.203125 
z
M 10.59375 25.484375 
L 73.1875 25.484375 
L 73.1875 17.1875 
L 10.59375 17.1875 
z
" id="DejaVuSans-3d"/>
     <path d="M 10.984375 1.515625 
L 10.984375 10.5 
Q 14.703125 8.734375 18.5 7.8125 
Q 22.3125 6.890625 25.984375 6.890625 
Q 35.75 6.890625 40.890625 13.453125 
Q 46.046875 20.015625 46.78125 33.40625 
Q 43.953125 29.203125 39.59375 26.953125 
Q 35.25 24.703125 29.984375 24.703125 
Q 19.046875 24.703125 12.671875 31.3125 
Q 6.296875 37.9375 6.296875 49.421875 
Q 6.296875 60.640625 12.9375 67.421875 
Q 19.578125 74.21875 30.609375 74.21875 
Q 43.265625 74.21875 49.921875 64.515625 
Q 56.59375 54.828125 56.59375 36.375 
Q 56.59375 19.140625 48.40625 8.859375 
Q 40.234375 -1.421875 26.421875 -1.421875 
Q 22.703125 -1.421875 18.890625 -0.6875 
Q 15.09375 0.046875 10.984375 1.515625 
z
M 30.609375 32.421875 
Q 37.25 32.421875 41.125 36.953125 
Q 45.015625 41.5 45.015625 49.421875 
Q 45.015625 57.28125 41.125 61.84375 
Q 37.25 66.40625 30.609375 66.40625 
Q 23.96875 66.40625 20.09375 61.84375 
Q 16.21875 57.28125 16.21875 49.421875 
Q 16.21875 41.5 20.09375 36.953125 
Q 23.96875 32.421875 30.609375 32.421875 
z
" id="DejaVuSans-39"/>
    </defs>
    <g transform="translate(325.178182 155.716048)scale(0.1 -0.1)">
     <use transform="translate(0 0.78125)" xlink:href="#DejaVuSans-Oblique-56"/>
     <use transform="translate(68.408203 -15.625)scale(0.7)" xlink:href="#DejaVuSans-Oblique-72"/>
     <use transform="translate(97.1875 -15.625)scale(0.7)" xlink:href="#DejaVuSans-Oblique-6d"/>
     <use transform="translate(165.375977 -15.625)scale(0.7)" xlink:href="#DejaVuSans-Oblique-73"/>
     <use transform="translate(224.0625 0.78125)" xlink:href="#DejaVuSans-3d"/>
     <use transform="translate(327.333984 0.78125)" xlink:href="#DejaVuSans-20"/>
     <use transform="translate(359.121094 0.78125)" xlink:href="#DejaVuSans-32"/>
     <use transform="translate(422.744141 0.78125)" xlink:href="#DejaVuSans-30"/>
     <use transform="translate(486.367188 0.78125)" xlink:href="#DejaVuSans-2e"/>
     <use transform="translate(518.154297 0.78125)" xlink:href="#DejaVuSans-35"/>
     <use transform="translate(581.667969 0.78125)" xlink:href="#DejaVuSans-37"/>
     <use transform="translate(645.291016 0.78125)" xlink:href="#DejaVuSans-39"/>
     <use transform="translate(708.914062 0.78125)" xlink:href="#DejaVuSans-30"/>
     <use transform="translate(772.537109 0.78125)" xlink:href="#DejaVuSans-39"/>
     <use transform="translate(836.160156 0.78125)" xlink:href="#DejaVuSans-33"/>
    </g>
   </g>
   <g id="text_22">
    <!-- Channel 4 - Unit 1 -->
    <defs>
     <path d="M 64.40625 67.28125 
L 64.40625 56.890625 
Q 59.421875 61.53125 53.78125 63.8125 
Q 48.140625 66.109375 41.796875 66.109375 
Q 29.296875 66.109375 22.65625 58.46875 
Q 16.015625 50.828125 16.015625 36.375 
Q 16.015625 21.96875 22.65625 14.328125 
Q 29.296875 6.6875 41.796875 6.6875 
Q 48.140625 6.6875 53.78125 8.984375 
Q 59.421875 11.28125 64.40625 15.921875 
L 64.40625 5.609375 
Q 59.234375 2.09375 53.4375 0.328125 
Q 47.65625 -1.421875 41.21875 -1.421875 
Q 24.65625 -1.421875 15.125 8.703125 
Q 5.609375 18.84375 5.609375 36.375 
Q 5.609375 53.953125 15.125 64.078125 
Q 24.65625 74.21875 41.21875 74.21875 
Q 47.75 74.21875 53.53125 72.484375 
Q 59.328125 70.75 64.40625 67.28125 
z
" id="DejaVuSans-43"/>
     <path d="M 54.890625 33.015625 
L 54.890625 0 
L 45.90625 0 
L 45.90625 32.71875 
Q 45.90625 40.484375 42.875 44.328125 
Q 39.84375 48.1875 33.796875 48.1875 
Q 26.515625 48.1875 22.3125 43.546875 
Q 18.109375 38.921875 18.109375 30.90625 
L 18.109375 0 
L 9.078125 0 
L 9.078125 75.984375 
L 18.109375 75.984375 
L 18.109375 46.1875 
Q 21.34375 51.125 25.703125 53.5625 
Q 30.078125 56 35.796875 56 
Q 45.21875 56 50.046875 50.171875 
Q 54.890625 44.34375 54.890625 33.015625 
z
" id="DejaVuSans-68"/>
     <path d="M 54.890625 33.015625 
L 54.890625 0 
L 45.90625 0 
L 45.90625 32.71875 
Q 45.90625 40.484375 42.875 44.328125 
Q 39.84375 48.1875 33.796875 48.1875 
Q 26.515625 48.1875 22.3125 43.546875 
Q 18.109375 38.921875 18.109375 30.90625 
L 18.109375 0 
L 9.078125 0 
L 9.078125 54.6875 
L 18.109375 54.6875 
L 18.109375 46.1875 
Q 21.34375 51.125 25.703125 53.5625 
Q 30.078125 56 35.796875 56 
Q 45.21875 56 50.046875 50.171875 
Q 54.890625 44.34375 54.890625 33.015625 
z
" id="DejaVuSans-6e"/>
     <path d="M 4.890625 31.390625 
L 31.203125 31.390625 
L 31.203125 23.390625 
L 4.890625 23.390625 
z
" id="DejaVuSans-2d"/>
     <path d="M 8.6875 72.90625 
L 18.609375 72.90625 
L 18.609375 28.609375 
Q 18.609375 16.890625 22.84375 11.734375 
Q 27.09375 6.59375 36.625 6.59375 
Q 46.09375 6.59375 50.34375 11.734375 
Q 54.59375 16.890625 54.59375 28.609375 
L 54.59375 72.90625 
L 64.5 72.90625 
L 64.5 27.390625 
Q 64.5 13.140625 57.4375 5.859375 
Q 50.390625 -1.421875 36.625 -1.421875 
Q 22.796875 -1.421875 15.734375 5.859375 
Q 8.6875 13.140625 8.6875 27.390625 
z
" id="DejaVuSans-55"/>
    </defs>
    <g transform="translate(181.887187 35.472)scale(0.12 -0.12)">
     <use xlink:href="#DejaVuSans-43"/>
     <use x="69.824219" xlink:href="#DejaVuSans-68"/>
     <use x="133.203125" xlink:href="#DejaVuSans-61"/>
     <use x="194.482422" xlink:href="#DejaVuSans-6e"/>
     <use x="257.861328" xlink:href="#DejaVuSans-6e"/>
     <use x="321.240234" xlink:href="#DejaVuSans-65"/>
     <use x="382.763672" xlink:href="#DejaVuSans-6c"/>
     <use x="410.546875" xlink:href="#DejaVuSans-20"/>
     <use x="442.333984" xlink:href="#DejaVuSans-34"/>
     <use x="505.957031" xlink:href="#DejaVuSans-20"/>
     <use x="537.744141" xlink:href="#DejaVuSans-2d"/>
     <use x="573.828125" xlink:href="#DejaVuSans-20"/>
     <use x="605.615234" xlink:href="#DejaVuSans-55"/>
     <use x="678.808594" xlink:href="#DejaVuSans-6e"/>
     <use x="742.1875" xlink:href="#DejaVuSans-69"/>
     <use x="769.970703" xlink:href="#DejaVuSans-74"/>
     <use x="809.179688" xlink:href="#DejaVuSans-20"/>
     <use x="840.966797" xlink:href="#DejaVuSans-31"/>
    </g>
   </g>
  </g>
 </g>
 <defs>
  <clipPath id="p5cef4d2b02">
   <rect height="266.112" width="357.12" x="57.6" y="41.472"/>
  </clipPath>
 </defs>
</svg>
