<?xml version="1.0" encoding="utf-8" standalone="no"?>
<!DOCTYPE svg PUBLIC "-//W3C//DTD SVG 1.1//EN"
  "http://www.w3.org/Graphics/SVG/1.1/DTD/svg11.dtd">
<!-- Created with matplotlib (http://matplotlib.org/) -->
<svg height="345pt" version="1.1" viewBox="0 0 460 345" width="460pt" xmlns="http://www.w3.org/2000/svg" xmlns:xlink="http://www.w3.org/1999/xlink">
 <defs>
  <style type="text/css">
*{stroke-linecap:butt;stroke-linejoin:round;}
  </style>
 </defs>
 <g id="figure_1">
  <g id="patch_1">
   <path d="M 0 345.6 
L 460.8 345.6 
L 460.8 0 
L 0 0 
z
" style="fill:#ffffff;"/>
  </g>
  <g id="axes_1">
   <g id="patch_2">
    <path d="M 57.6 307.584 
L 414.72 307.584 
L 414.72 41.472 
L 57.6 41.472 
z
" style="fill:#ffffff;"/>
   </g>
   <g id="PolyCollection_1">
    <defs>
     <path d="M 73.832727 -224.840312 
L 73.832727 -166.315378 
L 84.305455 -162.654115 
L 94.778182 -157.726016 
L 105.250909 -153.276316 
L 115.723636 -149.638422 
L 126.196364 -142.228928 
L 136.669091 -125.7922 
L 147.141818 -103.435068 
L 157.614545 -81.355724 
L 168.087273 -62.45599 
L 178.56 -57.938659 
L 189.032727 -63.788561 
L 199.505455 -72.577504 
L 209.978182 -80.971796 
L 220.450909 -88.590973 
L 230.923636 -96.185193 
L 241.396364 -105.47417 
L 251.869091 -116.355237 
L 262.341818 -126.584479 
L 272.814545 -135.393763 
L 283.287273 -143.437183 
L 293.76 -151.275806 
L 304.232727 -159.132753 
L 314.705455 -166.60554 
L 325.178182 -173.094253 
L 335.650909 -178.853719 
L 346.123636 -184.17335 
L 356.596364 -188.29293 
L 367.069091 -190.825141 
L 377.541818 -192.921626 
L 388.014545 -195.960697 
L 398.487273 -199.716424 
L 398.487273 -281.096492 
L 398.487273 -281.096492 
L 388.014545 -276.033677 
L 377.541818 -268.585888 
L 367.069091 -260.606963 
L 356.596364 -253.215243 
L 346.123636 -245.988217 
L 335.650909 -238.778067 
L 325.178182 -231.708888 
L 314.705455 -224.53582 
L 304.232727 -217.15137 
L 293.76 -209.76624 
L 283.287273 -202.327987 
L 272.814545 -194.150858 
L 262.341818 -184.790833 
L 251.869091 -175.284799 
L 241.396364 -166.074411 
L 230.923636 -156.039563 
L 220.450909 -145.933241 
L 209.978182 -138.089263 
L 199.505455 -131.605847 
L 189.032727 -122.591897 
L 178.56 -109.341099 
L 168.087273 -96.907959 
L 157.614545 -97.473294 
L 147.141818 -123.996237 
L 136.669091 -160.150992 
L 126.196364 -188.525479 
L 115.723636 -204.19813 
L 105.250909 -210.649975 
L 94.778182 -214.511157 
L 84.305455 -219.390309 
L 73.832727 -224.840312 
z
" id="mec90508411"/>
    </defs>
    <g clip-path="url(#p8775e0bfa0)">
     <use style="fill-opacity:0.5;" x="0" xlink:href="#mec90508411" y="345.6"/>
    </g>
   </g>
   <g id="matplotlib.axis_1">
    <g id="xtick_1">
     <g id="line2d_1">
      <defs>
       <path d="M 0 0 
L 0 3.5 
" id="me5dbaac19a" style="stroke:#000000;stroke-width:0.8;"/>
      </defs>
      <g>
       <use style="stroke:#000000;stroke-width:0.8;" x="73.832727" xlink:href="#me5dbaac19a" y="307.584"/>
      </g>
     </g>
     <g id="text_1">
      <!-- 0.0000 -->
      <defs>
       <path d="M 31.78125 66.40625 
Q 24.171875 66.40625 20.328125 58.90625 
Q 16.5 51.421875 16.5 36.375 
Q 16.5 21.390625 20.328125 13.890625 
Q 24.171875 6.390625 31.78125 6.390625 
Q 39.453125 6.390625 43.28125 13.890625 
Q 47.125 21.390625 47.125 36.375 
Q 47.125 51.421875 43.28125 58.90625 
Q 39.453125 66.40625 31.78125 66.40625 
z
M 31.78125 74.21875 
Q 44.046875 74.21875 50.515625 64.515625 
Q 56.984375 54.828125 56.984375 36.375 
Q 56.984375 17.96875 50.515625 8.265625 
Q 44.046875 -1.421875 31.78125 -1.421875 
Q 19.53125 -1.421875 13.0625 8.265625 
Q 6.59375 17.96875 6.59375 36.375 
Q 6.59375 54.828125 13.0625 64.515625 
Q 19.53125 74.21875 31.78125 74.21875 
z
" id="DejaVuSans-30"/>
       <path d="M 10.6875 12.40625 
L 21 12.40625 
L 21 0 
L 10.6875 0 
z
" id="DejaVuSans-2e"/>
      </defs>
      <g transform="translate(56.337415 322.182437)scale(0.1 -0.1)">
       <use xlink:href="#DejaVuSans-30"/>
       <use x="63.623047" xlink:href="#DejaVuSans-2e"/>
       <use x="95.410156" xlink:href="#DejaVuSans-30"/>
       <use x="159.033203" xlink:href="#DejaVuSans-30"/>
       <use x="222.65625" xlink:href="#DejaVuSans-30"/>
       <use x="286.279297" xlink:href="#DejaVuSans-30"/>
      </g>
     </g>
    </g>
    <g id="xtick_2">
     <g id="line2d_2">
      <g>
       <use style="stroke:#000000;stroke-width:0.8;" x="115.723636" xlink:href="#me5dbaac19a" y="307.584"/>
      </g>
     </g>
     <g id="text_2">
      <!-- 0.0001 -->
      <defs>
       <path d="M 12.40625 8.296875 
L 28.515625 8.296875 
L 28.515625 63.921875 
L 10.984375 60.40625 
L 10.984375 69.390625 
L 28.421875 72.90625 
L 38.28125 72.90625 
L 38.28125 8.296875 
L 54.390625 8.296875 
L 54.390625 0 
L 12.40625 0 
z
" id="DejaVuSans-31"/>
      </defs>
      <g transform="translate(98.228324 322.182437)scale(0.1 -0.1)">
       <use xlink:href="#DejaVuSans-30"/>
       <use x="63.623047" xlink:href="#DejaVuSans-2e"/>
       <use x="95.410156" xlink:href="#DejaVuSans-30"/>
       <use x="159.033203" xlink:href="#DejaVuSans-30"/>
       <use x="222.65625" xlink:href="#DejaVuSans-30"/>
       <use x="286.279297" xlink:href="#DejaVuSans-31"/>
      </g>
     </g>
    </g>
    <g id="xtick_3">
     <g id="line2d_3">
      <g>
       <use style="stroke:#000000;stroke-width:0.8;" x="157.614545" xlink:href="#me5dbaac19a" y="307.584"/>
      </g>
     </g>
     <g id="text_3">
      <!-- 0.0002 -->
      <defs>
       <path d="M 19.1875 8.296875 
L 53.609375 8.296875 
L 53.609375 0 
L 7.328125 0 
L 7.328125 8.296875 
Q 12.9375 14.109375 22.625 23.890625 
Q 32.328125 33.6875 34.8125 36.53125 
Q 39.546875 41.84375 41.421875 45.53125 
Q 43.3125 49.21875 43.3125 52.78125 
Q 43.3125 58.59375 39.234375 62.25 
Q 35.15625 65.921875 28.609375 65.921875 
Q 23.96875 65.921875 18.8125 64.3125 
Q 13.671875 62.703125 7.8125 59.421875 
L 7.8125 69.390625 
Q 13.765625 71.78125 18.9375 73 
Q 24.125 74.21875 28.421875 74.21875 
Q 39.75 74.21875 46.484375 68.546875 
Q 53.21875 62.890625 53.21875 53.421875 
Q 53.21875 48.921875 51.53125 44.890625 
Q 49.859375 40.875 45.40625 35.40625 
Q 44.1875 33.984375 37.640625 27.21875 
Q 31.109375 20.453125 19.1875 8.296875 
z
" id="DejaVuSans-32"/>
      </defs>
      <g transform="translate(140.119233 322.182437)scale(0.1 -0.1)">
       <use xlink:href="#DejaVuSans-30"/>
       <use x="63.623047" xlink:href="#DejaVuSans-2e"/>
       <use x="95.410156" xlink:href="#DejaVuSans-30"/>
       <use x="159.033203" xlink:href="#DejaVuSans-30"/>
       <use x="222.65625" xlink:href="#DejaVuSans-30"/>
       <use x="286.279297" xlink:href="#DejaVuSans-32"/>
      </g>
     </g>
    </g>
    <g id="xtick_4">
     <g id="line2d_4">
      <g>
       <use style="stroke:#000000;stroke-width:0.8;" x="199.505455" xlink:href="#me5dbaac19a" y="307.584"/>
      </g>
     </g>
     <g id="text_4">
      <!-- 0.0003 -->
      <defs>
       <path d="M 40.578125 39.3125 
Q 47.65625 37.796875 51.625 33 
Q 55.609375 28.21875 55.609375 21.1875 
Q 55.609375 10.40625 48.1875 4.484375 
Q 40.765625 -1.421875 27.09375 -1.421875 
Q 22.515625 -1.421875 17.65625 -0.515625 
Q 12.796875 0.390625 7.625 2.203125 
L 7.625 11.71875 
Q 11.71875 9.328125 16.59375 8.109375 
Q 21.484375 6.890625 26.8125 6.890625 
Q 36.078125 6.890625 40.9375 10.546875 
Q 45.796875 14.203125 45.796875 21.1875 
Q 45.796875 27.640625 41.28125 31.265625 
Q 36.765625 34.90625 28.71875 34.90625 
L 20.21875 34.90625 
L 20.21875 43.015625 
L 29.109375 43.015625 
Q 36.375 43.015625 40.234375 45.921875 
Q 44.09375 48.828125 44.09375 54.296875 
Q 44.09375 59.90625 40.109375 62.90625 
Q 36.140625 65.921875 28.71875 65.921875 
Q 24.65625 65.921875 20.015625 65.03125 
Q 15.375 64.15625 9.8125 62.3125 
L 9.8125 71.09375 
Q 15.4375 72.65625 20.34375 73.4375 
Q 25.25 74.21875 29.59375 74.21875 
Q 40.828125 74.21875 47.359375 69.109375 
Q 53.90625 64.015625 53.90625 55.328125 
Q 53.90625 49.265625 50.4375 45.09375 
Q 46.96875 40.921875 40.578125 39.3125 
z
" id="DejaVuSans-33"/>
      </defs>
      <g transform="translate(182.010142 322.182437)scale(0.1 -0.1)">
       <use xlink:href="#DejaVuSans-30"/>
       <use x="63.623047" xlink:href="#DejaVuSans-2e"/>
       <use x="95.410156" xlink:href="#DejaVuSans-30"/>
       <use x="159.033203" xlink:href="#DejaVuSans-30"/>
       <use x="222.65625" xlink:href="#DejaVuSans-30"/>
       <use x="286.279297" xlink:href="#DejaVuSans-33"/>
      </g>
     </g>
    </g>
    <g id="xtick_5">
     <g id="line2d_5">
      <g>
       <use style="stroke:#000000;stroke-width:0.8;" x="241.396364" xlink:href="#me5dbaac19a" y="307.584"/>
      </g>
     </g>
     <g id="text_5">
      <!-- 0.0004 -->
      <defs>
       <path d="M 37.796875 64.3125 
L 12.890625 25.390625 
L 37.796875 25.390625 
z
M 35.203125 72.90625 
L 47.609375 72.90625 
L 47.609375 25.390625 
L 58.015625 25.390625 
L 58.015625 17.1875 
L 47.609375 17.1875 
L 47.609375 0 
L 37.796875 0 
L 37.796875 17.1875 
L 4.890625 17.1875 
L 4.890625 26.703125 
z
" id="DejaVuSans-34"/>
      </defs>
      <g transform="translate(223.901051 322.182437)scale(0.1 -0.1)">
       <use xlink:href="#DejaVuSans-30"/>
       <use x="63.623047" xlink:href="#DejaVuSans-2e"/>
       <use x="95.410156" xlink:href="#DejaVuSans-30"/>
       <use x="159.033203" xlink:href="#DejaVuSans-30"/>
       <use x="222.65625" xlink:href="#DejaVuSans-30"/>
       <use x="286.279297" xlink:href="#DejaVuSans-34"/>
      </g>
     </g>
    </g>
    <g id="xtick_6">
     <g id="line2d_6">
      <g>
       <use style="stroke:#000000;stroke-width:0.8;" x="283.287273" xlink:href="#me5dbaac19a" y="307.584"/>
      </g>
     </g>
     <g id="text_6">
      <!-- 0.0005 -->
      <defs>
       <path d="M 10.796875 72.90625 
L 49.515625 72.90625 
L 49.515625 64.59375 
L 19.828125 64.59375 
L 19.828125 46.734375 
Q 21.96875 47.46875 24.109375 47.828125 
Q 26.265625 48.1875 28.421875 48.1875 
Q 40.625 48.1875 47.75 41.5 
Q 54.890625 34.8125 54.890625 23.390625 
Q 54.890625 11.625 47.5625 5.09375 
Q 40.234375 -1.421875 26.90625 -1.421875 
Q 22.3125 -1.421875 17.546875 -0.640625 
Q 12.796875 0.140625 7.71875 1.703125 
L 7.71875 11.625 
Q 12.109375 9.234375 16.796875 8.0625 
Q 21.484375 6.890625 26.703125 6.890625 
Q 35.15625 6.890625 40.078125 11.328125 
Q 45.015625 15.765625 45.015625 23.390625 
Q 45.015625 31 40.078125 35.4375 
Q 35.15625 39.890625 26.703125 39.890625 
Q 22.75 39.890625 18.8125 39.015625 
Q 14.890625 38.140625 10.796875 36.28125 
z
" id="DejaVuSans-35"/>
      </defs>
      <g transform="translate(265.79196 322.182437)scale(0.1 -0.1)">
       <use xlink:href="#DejaVuSans-30"/>
       <use x="63.623047" xlink:href="#DejaVuSans-2e"/>
       <use x="95.410156" xlink:href="#DejaVuSans-30"/>
       <use x="159.033203" xlink:href="#DejaVuSans-30"/>
       <use x="222.65625" xlink:href="#DejaVuSans-30"/>
       <use x="286.279297" xlink:href="#DejaVuSans-35"/>
      </g>
     </g>
    </g>
    <g id="xtick_7">
     <g id="line2d_7">
      <g>
       <use style="stroke:#000000;stroke-width:0.8;" x="325.178182" xlink:href="#me5dbaac19a" y="307.584"/>
      </g>
     </g>
     <g id="text_7">
      <!-- 0.0006 -->
      <defs>
       <path d="M 33.015625 40.375 
Q 26.375 40.375 22.484375 35.828125 
Q 18.609375 31.296875 18.609375 23.390625 
Q 18.609375 15.53125 22.484375 10.953125 
Q 26.375 6.390625 33.015625 6.390625 
Q 39.65625 6.390625 43.53125 10.953125 
Q 47.40625 15.53125 47.40625 23.390625 
Q 47.40625 31.296875 43.53125 35.828125 
Q 39.65625 40.375 33.015625 40.375 
z
M 52.59375 71.296875 
L 52.59375 62.3125 
Q 48.875 64.0625 45.09375 64.984375 
Q 41.3125 65.921875 37.59375 65.921875 
Q 27.828125 65.921875 22.671875 59.328125 
Q 17.53125 52.734375 16.796875 39.40625 
Q 19.671875 43.65625 24.015625 45.921875 
Q 28.375 48.1875 33.59375 48.1875 
Q 44.578125 48.1875 50.953125 41.515625 
Q 57.328125 34.859375 57.328125 23.390625 
Q 57.328125 12.15625 50.6875 5.359375 
Q 44.046875 -1.421875 33.015625 -1.421875 
Q 20.359375 -1.421875 13.671875 8.265625 
Q 6.984375 17.96875 6.984375 36.375 
Q 6.984375 53.65625 15.1875 63.9375 
Q 23.390625 74.21875 37.203125 74.21875 
Q 40.921875 74.21875 44.703125 73.484375 
Q 48.484375 72.75 52.59375 71.296875 
z
" id="DejaVuSans-36"/>
      </defs>
      <g transform="translate(307.682869 322.182437)scale(0.1 -0.1)">
       <use xlink:href="#DejaVuSans-30"/>
       <use x="63.623047" xlink:href="#DejaVuSans-2e"/>
       <use x="95.410156" xlink:href="#DejaVuSans-30"/>
       <use x="159.033203" xlink:href="#DejaVuSans-30"/>
       <use x="222.65625" xlink:href="#DejaVuSans-30"/>
       <use x="286.279297" xlink:href="#DejaVuSans-36"/>
      </g>
     </g>
    </g>
    <g id="xtick_8">
     <g id="line2d_8">
      <g>
       <use style="stroke:#000000;stroke-width:0.8;" x="367.069091" xlink:href="#me5dbaac19a" y="307.584"/>
      </g>
     </g>
     <g id="text_8">
      <!-- 0.0007 -->
      <defs>
       <path d="M 8.203125 72.90625 
L 55.078125 72.90625 
L 55.078125 68.703125 
L 28.609375 0 
L 18.3125 0 
L 43.21875 64.59375 
L 8.203125 64.59375 
z
" id="DejaVuSans-37"/>
      </defs>
      <g transform="translate(349.573778 322.182437)scale(0.1 -0.1)">
       <use xlink:href="#DejaVuSans-30"/>
       <use x="63.623047" xlink:href="#DejaVuSans-2e"/>
       <use x="95.410156" xlink:href="#DejaVuSans-30"/>
       <use x="159.033203" xlink:href="#DejaVuSans-30"/>
       <use x="222.65625" xlink:href="#DejaVuSans-30"/>
       <use x="286.279297" xlink:href="#DejaVuSans-37"/>
      </g>
     </g>
    </g>
    <g id="xtick_9">
     <g id="line2d_9">
      <g>
       <use style="stroke:#000000;stroke-width:0.8;" x="408.96" xlink:href="#me5dbaac19a" y="307.584"/>
      </g>
     </g>
     <g id="text_9">
      <!-- 0.0008 -->
      <defs>
       <path d="M 31.78125 34.625 
Q 24.75 34.625 20.71875 30.859375 
Q 16.703125 27.09375 16.703125 20.515625 
Q 16.703125 13.921875 20.71875 10.15625 
Q 24.75 6.390625 31.78125 6.390625 
Q 38.8125 6.390625 42.859375 10.171875 
Q 46.921875 13.96875 46.921875 20.515625 
Q 46.921875 27.09375 42.890625 30.859375 
Q 38.875 34.625 31.78125 34.625 
z
M 21.921875 38.8125 
Q 15.578125 40.375 12.03125 44.71875 
Q 8.5 49.078125 8.5 55.328125 
Q 8.5 64.0625 14.71875 69.140625 
Q 20.953125 74.21875 31.78125 74.21875 
Q 42.671875 74.21875 48.875 69.140625 
Q 55.078125 64.0625 55.078125 55.328125 
Q 55.078125 49.078125 51.53125 44.71875 
Q 48 40.375 41.703125 38.8125 
Q 48.828125 37.15625 52.796875 32.3125 
Q 56.78125 27.484375 56.78125 20.515625 
Q 56.78125 9.90625 50.3125 4.234375 
Q 43.84375 -1.421875 31.78125 -1.421875 
Q 19.734375 -1.421875 13.25 4.234375 
Q 6.78125 9.90625 6.78125 20.515625 
Q 6.78125 27.484375 10.78125 32.3125 
Q 14.796875 37.15625 21.921875 38.8125 
z
M 18.3125 54.390625 
Q 18.3125 48.734375 21.84375 45.5625 
Q 25.390625 42.390625 31.78125 42.390625 
Q 38.140625 42.390625 41.71875 45.5625 
Q 45.3125 48.734375 45.3125 54.390625 
Q 45.3125 60.0625 41.71875 63.234375 
Q 38.140625 66.40625 31.78125 66.40625 
Q 25.390625 66.40625 21.84375 63.234375 
Q 18.3125 60.0625 18.3125 54.390625 
z
" id="DejaVuSans-38"/>
      </defs>
      <g transform="translate(391.464687 322.182437)scale(0.1 -0.1)">
       <use xlink:href="#DejaVuSans-30"/>
       <use x="63.623047" xlink:href="#DejaVuSans-2e"/>
       <use x="95.410156" xlink:href="#DejaVuSans-30"/>
       <use x="159.033203" xlink:href="#DejaVuSans-30"/>
       <use x="222.65625" xlink:href="#DejaVuSans-30"/>
       <use x="286.279297" xlink:href="#DejaVuSans-38"/>
      </g>
     </g>
    </g>
    <g id="text_10">
     <!-- Time (s) -->
     <defs>
      <path d="M -0.296875 72.90625 
L 61.375 72.90625 
L 61.375 64.59375 
L 35.5 64.59375 
L 35.5 0 
L 25.59375 0 
L 25.59375 64.59375 
L -0.296875 64.59375 
z
" id="DejaVuSans-54"/>
      <path d="M 9.421875 54.6875 
L 18.40625 54.6875 
L 18.40625 0 
L 9.421875 0 
z
M 9.421875 75.984375 
L 18.40625 75.984375 
L 18.40625 64.59375 
L 9.421875 64.59375 
z
" id="DejaVuSans-69"/>
      <path d="M 52 44.1875 
Q 55.375 50.25 60.0625 53.125 
Q 64.75 56 71.09375 56 
Q 79.640625 56 84.28125 50.015625 
Q 88.921875 44.046875 88.921875 33.015625 
L 88.921875 0 
L 79.890625 0 
L 79.890625 32.71875 
Q 79.890625 40.578125 77.09375 44.375 
Q 74.3125 48.1875 68.609375 48.1875 
Q 61.625 48.1875 57.5625 43.546875 
Q 53.515625 38.921875 53.515625 30.90625 
L 53.515625 0 
L 44.484375 0 
L 44.484375 32.71875 
Q 44.484375 40.625 41.703125 44.40625 
Q 38.921875 48.1875 33.109375 48.1875 
Q 26.21875 48.1875 22.15625 43.53125 
Q 18.109375 38.875 18.109375 30.90625 
L 18.109375 0 
L 9.078125 0 
L 9.078125 54.6875 
L 18.109375 54.6875 
L 18.109375 46.1875 
Q 21.1875 51.21875 25.484375 53.609375 
Q 29.78125 56 35.6875 56 
Q 41.65625 56 45.828125 52.96875 
Q 50 49.953125 52 44.1875 
z
" id="DejaVuSans-6d"/>
      <path d="M 56.203125 29.59375 
L 56.203125 25.203125 
L 14.890625 25.203125 
Q 15.484375 15.921875 20.484375 11.0625 
Q 25.484375 6.203125 34.421875 6.203125 
Q 39.59375 6.203125 44.453125 7.46875 
Q 49.3125 8.734375 54.109375 11.28125 
L 54.109375 2.78125 
Q 49.265625 0.734375 44.1875 -0.34375 
Q 39.109375 -1.421875 33.890625 -1.421875 
Q 20.796875 -1.421875 13.15625 6.1875 
Q 5.515625 13.8125 5.515625 26.8125 
Q 5.515625 40.234375 12.765625 48.109375 
Q 20.015625 56 32.328125 56 
Q 43.359375 56 49.78125 48.890625 
Q 56.203125 41.796875 56.203125 29.59375 
z
M 47.21875 32.234375 
Q 47.125 39.59375 43.09375 43.984375 
Q 39.0625 48.390625 32.421875 48.390625 
Q 24.90625 48.390625 20.390625 44.140625 
Q 15.875 39.890625 15.1875 32.171875 
z
" id="DejaVuSans-65"/>
      <path id="DejaVuSans-20"/>
      <path d="M 31 75.875 
Q 24.46875 64.65625 21.28125 53.65625 
Q 18.109375 42.671875 18.109375 31.390625 
Q 18.109375 20.125 21.3125 9.0625 
Q 24.515625 -2 31 -13.1875 
L 23.1875 -13.1875 
Q 15.875 -1.703125 12.234375 9.375 
Q 8.59375 20.453125 8.59375 31.390625 
Q 8.59375 42.28125 12.203125 53.3125 
Q 15.828125 64.359375 23.1875 75.875 
z
" id="DejaVuSans-28"/>
      <path d="M 44.28125 53.078125 
L 44.28125 44.578125 
Q 40.484375 46.53125 36.375 47.5 
Q 32.28125 48.484375 27.875 48.484375 
Q 21.1875 48.484375 17.84375 46.4375 
Q 14.5 44.390625 14.5 40.28125 
Q 14.5 37.15625 16.890625 35.375 
Q 19.28125 33.59375 26.515625 31.984375 
L 29.59375 31.296875 
Q 39.15625 29.25 43.1875 25.515625 
Q 47.21875 21.78125 47.21875 15.09375 
Q 47.21875 7.46875 41.1875 3.015625 
Q 35.15625 -1.421875 24.609375 -1.421875 
Q 20.21875 -1.421875 15.453125 -0.5625 
Q 10.6875 0.296875 5.421875 2 
L 5.421875 11.28125 
Q 10.40625 8.6875 15.234375 7.390625 
Q 20.0625 6.109375 24.8125 6.109375 
Q 31.15625 6.109375 34.5625 8.28125 
Q 37.984375 10.453125 37.984375 14.40625 
Q 37.984375 18.0625 35.515625 20.015625 
Q 33.0625 21.96875 24.703125 23.78125 
L 21.578125 24.515625 
Q 13.234375 26.265625 9.515625 29.90625 
Q 5.8125 33.546875 5.8125 39.890625 
Q 5.8125 47.609375 11.28125 51.796875 
Q 16.75 56 26.8125 56 
Q 31.78125 56 36.171875 55.265625 
Q 40.578125 54.546875 44.28125 53.078125 
z
" id="DejaVuSans-73"/>
      <path d="M 8.015625 75.875 
L 15.828125 75.875 
Q 23.140625 64.359375 26.78125 53.3125 
Q 30.421875 42.28125 30.421875 31.390625 
Q 30.421875 20.453125 26.78125 9.375 
Q 23.140625 -1.703125 15.828125 -13.1875 
L 8.015625 -13.1875 
Q 14.5 -2 17.703125 9.0625 
Q 20.90625 20.125 20.90625 31.390625 
Q 20.90625 42.671875 17.703125 53.65625 
Q 14.5 64.65625 8.015625 75.875 
z
" id="DejaVuSans-29"/>
     </defs>
     <g transform="translate(215.677188 335.860562)scale(0.1 -0.1)">
      <use xlink:href="#DejaVuSans-54"/>
      <use x="61.037109" xlink:href="#DejaVuSans-69"/>
      <use x="88.820312" xlink:href="#DejaVuSans-6d"/>
      <use x="186.232422" xlink:href="#DejaVuSans-65"/>
      <use x="247.755859" xlink:href="#DejaVuSans-20"/>
      <use x="279.542969" xlink:href="#DejaVuSans-28"/>
      <use x="318.556641" xlink:href="#DejaVuSans-73"/>
      <use x="370.65625" xlink:href="#DejaVuSans-29"/>
     </g>
    </g>
   </g>
   <g id="matplotlib.axis_2">
    <g id="ytick_1">
     <g id="line2d_10">
      <defs>
       <path d="M 0 0 
L -3.5 0 
" id="mdc206c823d" style="stroke:#000000;stroke-width:0.8;"/>
      </defs>
      <g>
       <use style="stroke:#000000;stroke-width:0.8;" x="57.6" xlink:href="#mdc206c823d" y="307.584"/>
      </g>
     </g>
     <g id="text_11">
      <!-- −50 -->
      <defs>
       <path d="M 10.59375 35.5 
L 73.1875 35.5 
L 73.1875 27.203125 
L 10.59375 27.203125 
z
" id="DejaVuSans-2212"/>
      </defs>
      <g transform="translate(29.495313 311.383219)scale(0.1 -0.1)">
       <use xlink:href="#DejaVuSans-2212"/>
       <use x="83.789062" xlink:href="#DejaVuSans-35"/>
       <use x="147.412109" xlink:href="#DejaVuSans-30"/>
      </g>
     </g>
    </g>
    <g id="ytick_2">
     <g id="line2d_11">
      <g>
       <use style="stroke:#000000;stroke-width:0.8;" x="57.6" xlink:href="#mdc206c823d" y="274.32"/>
      </g>
     </g>
     <g id="text_12">
      <!-- −40 -->
      <g transform="translate(29.495313 278.119219)scale(0.1 -0.1)">
       <use xlink:href="#DejaVuSans-2212"/>
       <use x="83.789062" xlink:href="#DejaVuSans-34"/>
       <use x="147.412109" xlink:href="#DejaVuSans-30"/>
      </g>
     </g>
    </g>
    <g id="ytick_3">
     <g id="line2d_12">
      <g>
       <use style="stroke:#000000;stroke-width:0.8;" x="57.6" xlink:href="#mdc206c823d" y="241.056"/>
      </g>
     </g>
     <g id="text_13">
      <!-- −30 -->
      <g transform="translate(29.495313 244.855219)scale(0.1 -0.1)">
       <use xlink:href="#DejaVuSans-2212"/>
       <use x="83.789062" xlink:href="#DejaVuSans-33"/>
       <use x="147.412109" xlink:href="#DejaVuSans-30"/>
      </g>
     </g>
    </g>
    <g id="ytick_4">
     <g id="line2d_13">
      <g>
       <use style="stroke:#000000;stroke-width:0.8;" x="57.6" xlink:href="#mdc206c823d" y="207.792"/>
      </g>
     </g>
     <g id="text_14">
      <!-- −20 -->
      <g transform="translate(29.495313 211.591219)scale(0.1 -0.1)">
       <use xlink:href="#DejaVuSans-2212"/>
       <use x="83.789062" xlink:href="#DejaVuSans-32"/>
       <use x="147.412109" xlink:href="#DejaVuSans-30"/>
      </g>
     </g>
    </g>
    <g id="ytick_5">
     <g id="line2d_14">
      <g>
       <use style="stroke:#000000;stroke-width:0.8;" x="57.6" xlink:href="#mdc206c823d" y="174.528"/>
      </g>
     </g>
     <g id="text_15">
      <!-- −10 -->
      <g transform="translate(29.495313 178.327219)scale(0.1 -0.1)">
       <use xlink:href="#DejaVuSans-2212"/>
       <use x="83.789062" xlink:href="#DejaVuSans-31"/>
       <use x="147.412109" xlink:href="#DejaVuSans-30"/>
      </g>
     </g>
    </g>
    <g id="ytick_6">
     <g id="line2d_15">
      <g>
       <use style="stroke:#000000;stroke-width:0.8;" x="57.6" xlink:href="#mdc206c823d" y="141.264"/>
      </g>
     </g>
     <g id="text_16">
      <!-- 0 -->
      <g transform="translate(44.2375 145.063219)scale(0.1 -0.1)">
       <use xlink:href="#DejaVuSans-30"/>
      </g>
     </g>
    </g>
    <g id="ytick_7">
     <g id="line2d_16">
      <g>
       <use style="stroke:#000000;stroke-width:0.8;" x="57.6" xlink:href="#mdc206c823d" y="108"/>
      </g>
     </g>
     <g id="text_17">
      <!-- 10 -->
      <g transform="translate(37.875 111.799219)scale(0.1 -0.1)">
       <use xlink:href="#DejaVuSans-31"/>
       <use x="63.623047" xlink:href="#DejaVuSans-30"/>
      </g>
     </g>
    </g>
    <g id="ytick_8">
     <g id="line2d_17">
      <g>
       <use style="stroke:#000000;stroke-width:0.8;" x="57.6" xlink:href="#mdc206c823d" y="74.736"/>
      </g>
     </g>
     <g id="text_18">
      <!-- 20 -->
      <g transform="translate(37.875 78.535219)scale(0.1 -0.1)">
       <use xlink:href="#DejaVuSans-32"/>
       <use x="63.623047" xlink:href="#DejaVuSans-30"/>
      </g>
     </g>
    </g>
    <g id="ytick_9">
     <g id="line2d_18">
      <g>
       <use style="stroke:#000000;stroke-width:0.8;" x="57.6" xlink:href="#mdc206c823d" y="41.472"/>
      </g>
     </g>
     <g id="text_19">
      <!-- 30 -->
      <g transform="translate(37.875 45.271219)scale(0.1 -0.1)">
       <use xlink:href="#DejaVuSans-33"/>
       <use x="63.623047" xlink:href="#DejaVuSans-30"/>
      </g>
     </g>
    </g>
    <g id="text_20">
     <!-- Voltage ($\mu$V) -->
     <defs>
      <path d="M 28.609375 0 
L 0.78125 72.90625 
L 11.078125 72.90625 
L 34.1875 11.53125 
L 57.328125 72.90625 
L 67.578125 72.90625 
L 39.796875 0 
z
" id="DejaVuSans-56"/>
      <path d="M 30.609375 48.390625 
Q 23.390625 48.390625 19.1875 42.75 
Q 14.984375 37.109375 14.984375 27.296875 
Q 14.984375 17.484375 19.15625 11.84375 
Q 23.34375 6.203125 30.609375 6.203125 
Q 37.796875 6.203125 41.984375 11.859375 
Q 46.1875 17.53125 46.1875 27.296875 
Q 46.1875 37.015625 41.984375 42.703125 
Q 37.796875 48.390625 30.609375 48.390625 
z
M 30.609375 56 
Q 42.328125 56 49.015625 48.375 
Q 55.71875 40.765625 55.71875 27.296875 
Q 55.71875 13.875 49.015625 6.21875 
Q 42.328125 -1.421875 30.609375 -1.421875 
Q 18.84375 -1.421875 12.171875 6.21875 
Q 5.515625 13.875 5.515625 27.296875 
Q 5.515625 40.765625 12.171875 48.375 
Q 18.84375 56 30.609375 56 
z
" id="DejaVuSans-6f"/>
      <path d="M 9.421875 75.984375 
L 18.40625 75.984375 
L 18.40625 0 
L 9.421875 0 
z
" id="DejaVuSans-6c"/>
      <path d="M 18.3125 70.21875 
L 18.3125 54.6875 
L 36.8125 54.6875 
L 36.8125 47.703125 
L 18.3125 47.703125 
L 18.3125 18.015625 
Q 18.3125 11.328125 20.140625 9.421875 
Q 21.96875 7.515625 27.59375 7.515625 
L 36.8125 7.515625 
L 36.8125 0 
L 27.59375 0 
Q 17.1875 0 13.234375 3.875 
Q 9.28125 7.765625 9.28125 18.015625 
L 9.28125 47.703125 
L 2.6875 47.703125 
L 2.6875 54.6875 
L 9.28125 54.6875 
L 9.28125 70.21875 
z
" id="DejaVuSans-74"/>
      <path d="M 34.28125 27.484375 
Q 23.390625 27.484375 19.1875 25 
Q 14.984375 22.515625 14.984375 16.5 
Q 14.984375 11.71875 18.140625 8.90625 
Q 21.296875 6.109375 26.703125 6.109375 
Q 34.1875 6.109375 38.703125 11.40625 
Q 43.21875 16.703125 43.21875 25.484375 
L 43.21875 27.484375 
z
M 52.203125 31.203125 
L 52.203125 0 
L 43.21875 0 
L 43.21875 8.296875 
Q 40.140625 3.328125 35.546875 0.953125 
Q 30.953125 -1.421875 24.3125 -1.421875 
Q 15.921875 -1.421875 10.953125 3.296875 
Q 6 8.015625 6 15.921875 
Q 6 25.140625 12.171875 29.828125 
Q 18.359375 34.515625 30.609375 34.515625 
L 43.21875 34.515625 
L 43.21875 35.40625 
Q 43.21875 41.609375 39.140625 45 
Q 35.0625 48.390625 27.6875 48.390625 
Q 23 48.390625 18.546875 47.265625 
Q 14.109375 46.140625 10.015625 43.890625 
L 10.015625 52.203125 
Q 14.9375 54.109375 19.578125 55.046875 
Q 24.21875 56 28.609375 56 
Q 40.484375 56 46.34375 49.84375 
Q 52.203125 43.703125 52.203125 31.203125 
z
" id="DejaVuSans-61"/>
      <path d="M 45.40625 27.984375 
Q 45.40625 37.75 41.375 43.109375 
Q 37.359375 48.484375 30.078125 48.484375 
Q 22.859375 48.484375 18.828125 43.109375 
Q 14.796875 37.75 14.796875 27.984375 
Q 14.796875 18.265625 18.828125 12.890625 
Q 22.859375 7.515625 30.078125 7.515625 
Q 37.359375 7.515625 41.375 12.890625 
Q 45.40625 18.265625 45.40625 27.984375 
z
M 54.390625 6.78125 
Q 54.390625 -7.171875 48.1875 -13.984375 
Q 42 -20.796875 29.203125 -20.796875 
Q 24.46875 -20.796875 20.265625 -20.09375 
Q 16.0625 -19.390625 12.109375 -17.921875 
L 12.109375 -9.1875 
Q 16.0625 -11.328125 19.921875 -12.34375 
Q 23.78125 -13.375 27.78125 -13.375 
Q 36.625 -13.375 41.015625 -8.765625 
Q 45.40625 -4.15625 45.40625 5.171875 
L 45.40625 9.625 
Q 42.625 4.78125 38.28125 2.390625 
Q 33.9375 0 27.875 0 
Q 17.828125 0 11.671875 7.65625 
Q 5.515625 15.328125 5.515625 27.984375 
Q 5.515625 40.671875 11.671875 48.328125 
Q 17.828125 56 27.875 56 
Q 33.9375 56 38.28125 53.609375 
Q 42.625 51.21875 45.40625 46.390625 
L 45.40625 54.6875 
L 54.390625 54.6875 
z
" id="DejaVuSans-67"/>
      <path d="M -1.3125 -20.796875 
L 13.375 54.6875 
L 22.40625 54.6875 
L 15.765625 20.65625 
Q 15.578125 19.625 15.421875 18.359375 
Q 15.28125 17.09375 15.28125 15.828125 
Q 15.28125 11.28125 18.140625 8.828125 
Q 21 6.390625 26.3125 6.390625 
Q 33.546875 6.390625 37.984375 10.484375 
Q 42.4375 14.59375 44 22.796875 
L 50.203125 54.6875 
L 59.1875 54.6875 
L 51.03125 12.640625 
Q 50.828125 11.71875 50.75 11.03125 
Q 50.6875 10.359375 50.6875 9.8125 
Q 50.6875 8.296875 51.296875 7.59375 
Q 51.90625 6.890625 53.21875 6.890625 
Q 53.71875 6.890625 54.5625 7.125 
Q 55.421875 7.375 56.984375 8.015625 
L 55.609375 0.78125 
Q 53.46875 -0.296875 51.515625 -0.859375 
Q 49.5625 -1.421875 47.703125 -1.421875 
Q 44.484375 -1.421875 42.65625 0.625 
Q 40.828125 2.6875 40.828125 6.296875 
Q 38.09375 2.390625 34.296875 0.484375 
Q 30.515625 -1.421875 25.390625 -1.421875 
Q 20.84375 -1.421875 17.453125 0.671875 
Q 14.0625 2.78125 12.984375 6.203125 
L 7.71875 -20.796875 
z
" id="DejaVuSans-Oblique-3bc"/>
     </defs>
     <g transform="translate(23.395312 205.778)rotate(-90)scale(0.1 -0.1)">
      <use transform="translate(0 0.015625)" xlink:href="#DejaVuSans-56"/>
      <use transform="translate(68.408203 0.015625)" xlink:href="#DejaVuSans-6f"/>
      <use transform="translate(129.589844 0.015625)" xlink:href="#DejaVuSans-6c"/>
      <use transform="translate(157.373047 0.015625)" xlink:href="#DejaVuSans-74"/>
      <use transform="translate(196.582031 0.015625)" xlink:href="#DejaVuSans-61"/>
      <use transform="translate(257.861328 0.015625)" xlink:href="#DejaVuSans-67"/>
      <use transform="translate(321.337891 0.015625)" xlink:href="#DejaVuSans-65"/>
      <use transform="translate(382.861328 0.015625)" xlink:href="#DejaVuSans-20"/>
      <use transform="translate(414.648438 0.015625)" xlink:href="#DejaVuSans-28"/>
      <use transform="translate(453.662109 0.015625)" xlink:href="#DejaVuSans-Oblique-3bc"/>
      <use transform="translate(517.285156 0.015625)" xlink:href="#DejaVuSans-56"/>
      <use transform="translate(585.693359 0.015625)" xlink:href="#DejaVuSans-29"/>
     </g>
    </g>
   </g>
   <g id="line2d_19">
    <path clip-path="url(#p8775e0bfa0)" d="M 73.832727 150.022155 
L 84.305455 154.577788 
L 94.778182 159.481413 
L 105.250909 163.636855 
L 115.723636 168.681724 
L 126.196364 180.222797 
L 136.669091 202.628404 
L 147.141818 231.884348 
L 157.614545 256.185491 
L 168.087273 265.918025 
L 178.56 261.960121 
L 189.032727 252.409771 
L 199.505455 243.508324 
L 209.978182 236.069471 
L 220.450909 228.337893 
L 230.923636 219.487622 
L 241.396364 209.82571 
L 251.869091 199.779982 
L 262.341818 189.912344 
L 272.814545 180.82769 
L 283.287273 172.717415 
L 293.76 165.078977 
L 304.232727 157.457939 
L 314.705455 150.02932 
L 325.178182 143.19843 
L 335.650909 136.784107 
L 346.123636 130.519216 
L 356.596364 124.845913 
L 367.069091 119.883948 
L 377.541818 114.846243 
L 388.014545 109.602813 
L 398.487273 105.193542 
" style="fill:none;stroke:#000000;stroke-linecap:square;stroke-width:1.5;"/>
   </g>
   <g id="line2d_20">
    <path clip-path="url(#p8775e0bfa0)" d="M 73.832727 142.328448 
L 84.305455 144.723456 
L 94.778182 150.178752 
L 105.250909 159.625728 
L 115.723636 170.669376 
L 126.196364 184.108032 
L 136.669091 206.46144 
L 147.141818 236.265984 
L 157.614545 258.486336 
L 168.087273 259.816896 
L 178.56 247.04352 
L 189.032727 238.261824 
L 199.505455 239.858496 
L 209.978182 243.451008 
L 220.450909 241.189056 
L 230.923636 231.0768 
L 241.396364 215.77536 
L 251.869091 200.47392 
L 262.341818 189.82944 
L 272.814545 185.704704 
L 283.287273 187.700544 
L 293.76 187.567488 
L 304.232727 177.18912 
L 314.705455 159.093504 
L 325.178182 142.062336 
L 335.650909 131.417856 
L 346.123636 125.696448 
L 356.596364 123.700608 
L 367.069091 124.365888 
L 377.541818 121.97088 
L 388.014545 111.592512 
L 398.487273 97.089408 
" style="fill:none;stroke:#ff0000;stroke-linecap:square;stroke-width:1.5;"/>
   </g>
   <g id="line2d_21">
    <path clip-path="url(#p8775e0bfa0)" d="M 73.832727 166.677696 
L 84.305455 175.85856 
L 94.778182 185.305536 
L 105.250909 190.361664 
L 115.723636 190.627776 
L 126.196364 194.752512 
L 136.669091 209.920896 
L 147.141818 232.141248 
L 157.614545 250.36992 
L 168.087273 257.288832 
L 178.56 254.627712 
L 189.032727 247.176576 
L 199.505455 236.665152 
L 209.978182 225.488448 
L 220.450909 216.972864 
L 230.923636 212.44896 
L 241.396364 207.525888 
L 251.869091 194.353344 
L 262.341818 176.390784 
L 272.814545 167.742144 
L 283.287273 172.399104 
L 293.76 176.52384 
L 304.232727 169.471872 
L 314.705455 157.496832 
L 325.178182 152.440704 
L 335.650909 152.839872 
L 346.123636 146.187072 
L 356.596364 125.031168 
L 367.069091 99.484416 
L 377.541818 87.908544 
L 388.014545 93.629952 
L 398.487273 104.00832 
" style="fill:none;stroke:#ff1e00;stroke-linecap:square;stroke-width:1.5;"/>
   </g>
   <g id="line2d_22">
    <path clip-path="url(#p8775e0bfa0)" d="M 73.832727 130.752576 
L 84.305455 142.195392 
L 94.778182 155.767104 
L 105.250909 171.467712 
L 115.723636 186.236928 
L 126.196364 199.80864 
L 136.669091 217.904256 
L 147.141818 242.785728 
L 157.614545 266.33664 
L 168.087273 274.186944 
L 178.56 263.276352 
L 189.032727 248.107968 
L 199.505455 244.3824 
L 209.978182 254.3616 
L 220.450909 267.534144 
L 230.923636 267.00192 
L 241.396364 247.176576 
L 251.869091 220.299264 
L 262.341818 197.945856 
L 272.814545 183.84192 
L 283.287273 178.386624 
L 293.76 178.652736 
L 304.232727 175.592448 
L 314.705455 165.081024 
L 325.178182 157.762944 
L 335.650909 156.299328 
L 346.123636 149.114304 
L 356.596364 133.014528 
L 367.069091 118.112256 
L 377.541818 113.189184 
L 388.014545 115.98336 
L 398.487273 115.051968 
" style="fill:none;stroke:#ff3b00;stroke-linecap:square;stroke-width:1.5;"/>
   </g>
   <g id="line2d_23">
    <path clip-path="url(#p8775e0bfa0)" d="M 73.832727 188.631936 
L 84.305455 188.631936 
L 94.778182 195.683904 
L 105.250909 206.594496 
L 115.723636 211.251456 
L 126.196364 209.255616 
L 136.669091 213.11424 
L 147.141818 234.270144 
L 157.614545 268.199424 
L 168.087273 293.61312 
L 178.56 299.467584 
L 189.032727 295.209792 
L 199.505455 289.355328 
L 209.978182 278.710848 
L 220.450909 263.01024 
L 230.923636 252.498816 
L 241.396364 248.37408 
L 251.869091 240.656832 
L 262.341818 225.887616 
L 272.814545 212.848128 
L 283.287273 207.792 
L 293.76 204.332544 
L 304.232727 196.48224 
L 314.705455 186.50304 
L 325.178182 181.446912 
L 335.650909 183.043584 
L 346.123636 184.241088 
L 356.596364 178.253568 
L 367.069091 166.411584 
L 377.541818 151.775424 
L 388.014545 137.405376 
L 398.487273 126.760896 
" style="fill:none;stroke:#ff5900;stroke-linecap:square;stroke-width:1.5;"/>
   </g>
   <g id="line2d_24">
    <path clip-path="url(#p8775e0bfa0)" d="M 73.832727 136.873152 
L 84.305455 135.409536 
L 94.778182 127.426176 
L 105.250909 120.374208 
L 115.723636 122.769216 
L 126.196364 140.332608 
L 136.669091 173.86272 
L 147.141818 213.77952 
L 157.614545 247.7088 
L 168.087273 269.929152 
L 178.56 279.509184 
L 189.032727 276.448896 
L 199.505455 263.941632 
L 209.978182 248.507136 
L 220.450909 234.137088 
L 230.923636 221.895936 
L 241.396364 212.582016 
L 251.869091 207.12672 
L 262.341818 208.324224 
L 272.814545 215.243136 
L 283.287273 219.367872 
L 293.76 210.852288 
L 304.232727 189.031104 
L 314.705455 163.21824 
L 325.178182 145.388736 
L 335.650909 138.336768 
L 346.123636 136.473984 
L 356.596364 134.478144 
L 367.069091 130.885632 
L 377.541818 128.091456 
L 388.014545 128.889792 
L 398.487273 133.28064 
" style="fill:none;stroke:#ff7600;stroke-linecap:square;stroke-width:1.5;"/>
   </g>
   <g id="line2d_25">
    <path clip-path="url(#p8775e0bfa0)" d="M 73.832727 159.625728 
L 84.305455 188.764992 
L 94.778182 207.792 
L 105.250909 213.11424 
L 115.723636 207.658944 
L 126.196364 203.13504 
L 136.669091 211.650624 
L 147.141818 232.540416 
L 157.614545 251.434368 
L 168.087273 255.559104 
L 178.56 246.37824 
L 189.032727 236.798208 
L 199.505455 237.596544 
L 209.978182 241.056 
L 220.450909 233.73792 
L 230.923636 219.234816 
L 241.396364 208.590336 
L 251.869091 200.873088 
L 262.341818 186.636096 
L 272.814545 166.012416 
L 283.287273 146.58624 
L 293.76 136.740096 
L 304.232727 137.405376 
L 314.705455 140.465664 
L 325.178182 136.873152 
L 335.650909 127.160064 
L 346.123636 118.64448 
L 356.596364 115.717248 
L 367.069091 118.378368 
L 377.541818 117.31392 
L 388.014545 97.35552 
L 398.487273 61.829568 
" style="fill:none;stroke:#ff9400;stroke-linecap:square;stroke-width:1.5;"/>
   </g>
   <g id="line2d_26">
    <path clip-path="url(#p8775e0bfa0)" d="M 73.832727 171.733824 
L 84.305455 188.631936 
L 94.778182 192.623616 
L 105.250909 185.83776 
L 115.723636 181.84608 
L 126.196364 190.893888 
L 136.669091 211.1184 
L 147.141818 236.532096 
L 157.614545 263.808576 
L 168.087273 283.900032 
L 178.56 286.428096 
L 189.032727 272.856384 
L 199.505455 254.893824 
L 209.978182 241.588224 
L 220.450909 234.004032 
L 230.923636 227.484288 
L 241.396364 214.178688 
L 251.869091 191.559168 
L 262.341818 167.20992 
L 272.814545 151.376256 
L 283.287273 147.9168 
L 293.76 155.367936 
L 304.232727 164.149632 
L 314.705455 160.424064 
L 325.178182 144.191232 
L 335.650909 131.2848 
L 346.123636 133.94592 
L 356.596364 145.92096 
L 367.069091 150.444864 
L 377.541818 140.199552 
L 388.014545 123.168384 
L 398.487273 114.785856 
" style="fill:none;stroke:#ffb100;stroke-linecap:square;stroke-width:1.5;"/>
   </g>
   <g id="line2d_27">
    <path clip-path="url(#p8775e0bfa0)" d="M 73.832727 180.249408 
L 84.305455 206.46144 
L 94.778182 219.633984 
L 105.250909 222.028992 
L 115.723636 218.702592 
L 126.196364 216.44064 
L 136.669091 222.295104 
L 147.141818 237.330432 
L 157.614545 248.107968 
L 168.087273 241.322112 
L 178.56 222.162048 
L 189.032727 209.388672 
L 199.505455 211.251456 
L 209.978182 219.234816 
L 220.450909 219.500928 
L 230.923636 207.658944 
L 241.396364 193.954176 
L 251.869091 187.301376 
L 262.341818 186.902208 
L 272.814545 186.902208 
L 283.287273 185.571648 
L 293.76 187.16832 
L 304.232727 188.631936 
L 314.705455 177.987456 
L 325.178182 154.303488 
L 335.650909 132.083136 
L 346.123636 119.575872 
L 356.596364 112.65696 
L 367.069091 109.729728 
L 377.541818 111.99168 
L 388.014545 120.108096 
L 398.487273 130.752576 
" style="fill:none;stroke:#ffcf00;stroke-linecap:square;stroke-width:1.5;"/>
   </g>
   <g id="line2d_28">
    <path clip-path="url(#p8775e0bfa0)" d="M 73.832727 163.617408 
L 84.305455 184.906368 
L 94.778182 200.47392 
L 105.250909 201.937536 
L 115.723636 193.421952 
L 126.196364 186.769152 
L 136.669091 193.82112 
L 147.141818 218.303424 
L 157.614545 247.176576 
L 168.087273 260.482176 
L 178.56 250.103808 
L 189.032727 226.685952 
L 199.505455 206.328384 
L 209.978182 195.550848 
L 220.450909 186.769152 
L 230.923636 170.137152 
L 241.396364 148.58208 
L 251.869091 134.877312 
L 262.341818 135.808704 
L 272.814545 147.118464 
L 283.287273 162.153792 
L 293.76 170.802432 
L 304.232727 165.081024 
L 314.705455 152.041536 
L 325.178182 145.654848 
L 335.650909 150.444864 
L 346.123636 159.625728 
L 356.596364 168.939648 
L 367.069091 177.8544 
L 377.541818 183.575808 
L 388.014545 184.108032 
L 398.487273 181.713024 
" style="fill:none;stroke:#ffec00;stroke-linecap:square;stroke-width:1.5;"/>
   </g>
   <g id="line2d_29">
    <path clip-path="url(#p8775e0bfa0)" d="M 73.832727 165.746304 
L 84.305455 180.51552 
L 94.778182 178.120512 
L 105.250909 170.270208 
L 115.723636 171.600768 
L 126.196364 189.430272 
L 136.669091 218.303424 
L 147.141818 242.652672 
L 157.614545 249.03936 
L 168.087273 241.322112 
L 178.56 233.338752 
L 189.032727 229.613184 
L 199.505455 225.488448 
L 209.978182 217.10592 
L 220.450909 208.058112 
L 230.923636 204.731712 
L 241.396364 204.199488 
L 251.869091 197.280576 
L 262.341818 184.108032 
L 272.814545 172.399104 
L 283.287273 165.613248 
L 293.76 161.089344 
L 304.232727 157.629888 
L 314.705455 155.367936 
L 325.178182 154.436544 
L 335.650909 150.977088 
L 346.123636 144.191232 
L 356.596364 139.135104 
L 367.069091 138.469824 
L 377.541818 138.070656 
L 388.014545 133.679808 
L 398.487273 130.087296 
" style="fill:none;stroke:#eeff00;stroke-linecap:square;stroke-width:1.5;"/>
   </g>
   <g id="line2d_30">
    <path clip-path="url(#p8775e0bfa0)" d="M 73.832727 140.731776 
L 84.305455 141.264 
L 94.778182 142.860672 
L 105.250909 141.130944 
L 115.723636 139.800384 
L 126.196364 154.436544 
L 136.669091 192.224448 
L 147.141818 240.789888 
L 157.614545 276.848064 
L 168.087273 284.432256 
L 178.56 268.066368 
L 189.032727 247.974912 
L 199.505455 237.463488 
L 209.978182 232.939584 
L 220.450909 229.347072 
L 230.923636 223.09344 
L 241.396364 208.856448 
L 251.869091 182.910528 
L 262.341818 152.839872 
L 272.814545 137.405376 
L 283.287273 140.997888 
L 293.76 140.465664 
L 304.232727 115.98336 
L 314.705455 81.122688 
L 325.178182 63.160128 
L 335.650909 67.284864 
L 346.123636 76.332672 
L 356.596364 74.469888 
L 367.069091 59.035392 
L 377.541818 36.948096 
L 388.014545 20.18304 
L 398.487273 18.320256 
" style="fill:none;stroke:#d1ff00;stroke-linecap:square;stroke-width:1.5;"/>
   </g>
   <g id="line2d_31">
    <path clip-path="url(#p8775e0bfa0)" d="M 73.832727 183.974976 
L 84.305455 186.636096 
L 94.778182 185.17248 
L 105.250909 182.378304 
L 115.723636 182.644416 
L 126.196364 192.623616 
L 136.669091 215.509248 
L 147.141818 243.584064 
L 157.614545 263.808576 
L 168.087273 270.9936 
L 178.56 272.191104 
L 189.032727 276.848064 
L 199.505455 283.63392 
L 209.978182 280.9728 
L 220.450909 262.877184 
L 230.923636 238.794048 
L 241.396364 225.08928 
L 251.869091 221.230656 
L 262.341818 208.723392 
L 272.814545 179.983296 
L 283.287273 147.9168 
L 293.76 127.027008 
L 304.232727 120.507264 
L 314.705455 121.571712 
L 325.178182 122.503104 
L 335.650909 117.047808 
L 346.123636 105.871104 
L 356.596364 100.01664 
L 367.069091 108.66528 
L 377.541818 126.760896 
L 388.014545 141.530112 
L 398.487273 141.796224 
" style="fill:none;stroke:#b3ff00;stroke-linecap:square;stroke-width:1.5;"/>
   </g>
   <g id="line2d_32">
    <path clip-path="url(#p8775e0bfa0)" d="M 73.832727 123.567552 
L 84.305455 137.006208 
L 94.778182 151.775424 
L 105.250909 166.411584 
L 115.723636 180.914688 
L 126.196364 197.8128 
L 136.669091 218.43648 
L 147.141818 239.592384 
L 157.614545 254.095488 
L 168.087273 254.893824 
L 178.56 241.987392 
L 189.032727 225.488448 
L 199.505455 216.573696 
L 209.978182 216.307584 
L 220.450909 216.706752 
L 230.923636 210.852288 
L 241.396364 203.667264 
L 251.869091 202.070592 
L 262.341818 201.671424 
L 272.814545 193.688064 
L 283.287273 181.313856 
L 293.76 175.060224 
L 304.232727 180.51552 
L 314.705455 190.49472 
L 325.178182 189.430272 
L 335.650909 173.86272 
L 346.123636 160.157952 
L 356.596364 161.355456 
L 367.069091 167.20992 
L 377.541818 158.694336 
L 388.014545 137.671488 
L 398.487273 121.704768 
" style="fill:none;stroke:#96ff00;stroke-linecap:square;stroke-width:1.5;"/>
   </g>
   <g id="line2d_33">
    <path clip-path="url(#p8775e0bfa0)" d="M 73.832727 214.045632 
L 84.305455 200.47392 
L 94.778182 186.769152 
L 105.250909 179.85024 
L 115.723636 181.84608 
L 126.196364 194.087232 
L 136.669091 216.041472 
L 147.141818 238.261824 
L 157.614545 247.442688 
L 168.087273 243.584064 
L 178.56 240.124608 
L 189.032727 243.317952 
L 199.505455 246.644352 
L 209.978182 243.317952 
L 220.450909 230.012352 
L 230.923636 209.521728 
L 241.396364 188.631936 
L 251.869091 169.604928 
L 262.341818 152.174592 
L 272.814545 138.070656 
L 283.287273 131.018688 
L 293.76 136.207872 
L 304.232727 157.762944 
L 314.705455 188.898048 
L 325.178182 213.77952 
L 335.650909 220.299264 
L 346.123636 210.852288 
L 356.596364 197.280576 
L 367.069091 189.031104 
L 377.541818 187.16832 
L 388.014545 187.16832 
L 398.487273 185.039424 
" style="fill:none;stroke:#78ff00;stroke-linecap:square;stroke-width:1.5;"/>
   </g>
   <g id="line2d_34">
    <path clip-path="url(#p8775e0bfa0)" d="M 73.832727 174.528 
L 84.305455 179.451072 
L 94.778182 179.717184 
L 105.250909 180.914688 
L 115.723636 186.769152 
L 126.196364 197.546688 
L 136.669091 212.44896 
L 147.141818 230.677632 
L 157.614545 250.902144 
L 168.087273 268.199424 
L 178.56 277.6464 
L 189.032727 275.65056 
L 199.505455 263.143296 
L 209.978182 249.172416 
L 220.450909 240.39072 
L 230.923636 232.274304 
L 241.396364 220.43232 
L 251.869091 212.049792 
L 262.341818 212.182848 
L 272.814545 214.045632 
L 283.287273 210.053952 
L 293.76 198.744192 
L 304.232727 183.974976 
L 314.705455 171.86688 
L 325.178182 166.145472 
L 335.650909 163.88352 
L 346.123636 157.896 
L 356.596364 144.457344 
L 367.069091 127.692288 
L 377.541818 116.116416 
L 388.014545 112.923072 
L 398.487273 114.120576 
" style="fill:none;stroke:#5bff00;stroke-linecap:square;stroke-width:1.5;"/>
   </g>
   <g id="line2d_35">
    <path clip-path="url(#p8775e0bfa0)" d="M 73.832727 142.328448 
L 84.305455 145.25568 
L 94.778182 138.469824 
L 105.250909 132.482304 
L 115.723636 138.868992 
L 126.196364 165.87936 
L 136.669091 207.259776 
L 147.141818 246.777408 
L 157.614545 273.521664 
L 168.087273 287.891712 
L 178.56 297.737856 
L 189.032727 304.789824 
L 199.505455 303.060096 
L 209.978182 291.750336 
L 220.450909 277.912512 
L 230.923636 269.796096 
L 241.396364 270.32832 
L 251.869091 271.259712 
L 262.341818 269.66304 
L 272.814545 270.461376 
L 283.287273 275.118336 
L 293.76 273.255552 
L 304.232727 253.297152 
L 314.705455 221.76288 
L 325.178182 191.958336 
L 335.650909 163.750464 
L 346.123636 135.010368 
L 356.596364 111.459456 
L 367.069091 98.553024 
L 377.541818 93.629952 
L 388.014545 89.638272 
L 398.487273 84.182976 
" style="fill:none;stroke:#3dff00;stroke-linecap:square;stroke-width:1.5;"/>
   </g>
   <g id="line2d_36">
    <path clip-path="url(#p8775e0bfa0)" d="M 73.832727 219.900096 
L 84.305455 218.43648 
L 94.778182 203.13504 
L 105.250909 179.717184 
L 115.723636 164.681856 
L 126.196364 174.661056 
L 136.669091 208.45728 
L 147.141818 246.511296 
L 157.614545 270.461376 
L 168.087273 278.444736 
L 178.56 279.775296 
L 189.032727 280.573632 
L 199.505455 277.380288 
L 209.978182 267.6672 
L 220.450909 256.756608 
L 230.923636 251.567424 
L 241.396364 250.636032 
L 251.869091 243.71712 
L 262.341818 225.222336 
L 272.814545 204.4656 
L 283.287273 195.417792 
L 293.76 199.010304 
L 304.232727 200.873088 
L 314.705455 192.357504 
L 325.178182 179.983296 
L 335.650909 171.86688 
L 346.123636 169.471872 
L 356.596364 167.609088 
L 367.069091 160.424064 
L 377.541818 149.779584 
L 388.014545 141.663168 
L 398.487273 138.336768 
" style="fill:none;stroke:#20ff00;stroke-linecap:square;stroke-width:1.5;"/>
   </g>
   <g id="line2d_37">
    <path clip-path="url(#p8775e0bfa0)" d="M 73.832727 175.060224 
L 84.305455 186.636096 
L 94.778182 213.247296 
L 105.250909 233.604864 
L 115.723636 229.879296 
L 126.196364 212.315904 
L 136.669091 206.727552 
L 147.141818 226.819008 
L 157.614545 261.147456 
L 168.087273 284.831424 
L 178.56 286.827264 
L 189.032727 277.114176 
L 199.505455 268.99776 
L 209.978182 266.469696 
L 220.450909 264.473856 
L 230.923636 256.35744 
L 241.396364 240.656832 
L 251.869091 224.290944 
L 262.341818 212.44896 
L 272.814545 203.667264 
L 283.287273 197.14752 
L 293.76 195.683904 
L 304.232727 197.945856 
L 314.705455 196.881408 
L 325.178182 187.966656 
L 335.650909 178.918848 
L 346.123636 174.794112 
L 356.596364 168.141312 
L 367.069091 154.5696 
L 377.541818 142.328448 
L 388.014545 143.525952 
L 398.487273 159.22656 
" style="fill:none;stroke:#04ff08;stroke-linecap:square;stroke-width:1.5;"/>
   </g>
   <g id="line2d_38">
    <path clip-path="url(#p8775e0bfa0)" d="M 73.832727 162.819072 
L 84.305455 157.097664 
L 94.778182 150.710976 
L 105.250909 143.126784 
L 115.723636 140.864832 
L 126.196364 156.964608 
L 136.669091 191.16 
L 147.141818 226.286784 
L 157.614545 247.575744 
L 168.087273 253.69632 
L 178.56 252.36576 
L 189.032727 244.914624 
L 199.505455 229.214016 
L 209.978182 209.920896 
L 220.450909 197.014464 
L 230.923636 191.82528 
L 241.396364 189.031104 
L 251.869091 187.035264 
L 262.341818 184.640256 
L 272.814545 174.927168 
L 283.287273 155.367936 
L 293.76 135.94176 
L 304.232727 126.893952 
L 314.705455 126.62784 
L 325.178182 131.018688 
L 335.650909 139.534272 
L 346.123636 145.122624 
L 356.596364 136.873152 
L 367.069091 113.98752 
L 377.541818 89.106048 
L 388.014545 75.268224 
L 398.487273 74.07072 
" style="fill:none;stroke:#00ff21;stroke-linecap:square;stroke-width:1.5;"/>
   </g>
   <g id="line2d_39">
    <path clip-path="url(#p8775e0bfa0)" d="M 73.832727 157.097664 
L 84.305455 169.338816 
L 94.778182 176.390784 
L 105.250909 172.266048 
L 115.723636 168.407424 
L 126.196364 180.116352 
L 136.669091 208.058112 
L 147.141818 238.261824 
L 157.614545 252.897984 
L 168.087273 243.05184 
L 178.56 217.238976 
L 189.032727 198.078912 
L 199.505455 196.748352 
L 209.978182 205.13088 
L 220.450909 209.920896 
L 230.923636 205.530048 
L 241.396364 195.81696 
L 251.869091 187.301376 
L 262.341818 179.451072 
L 272.814545 170.935488 
L 283.287273 162.286848 
L 293.76 152.706816 
L 304.232727 146.58624 
L 314.705455 148.715136 
L 325.178182 149.513472 
L 335.650909 140.731776 
L 346.123636 127.559232 
L 356.596364 119.043648 
L 367.069091 113.32224 
L 377.541818 98.153856 
L 388.014545 68.349312 
L 398.487273 38.1456 
" style="fill:none;stroke:#00ff3f;stroke-linecap:square;stroke-width:1.5;"/>
   </g>
   <g id="line2d_40">
    <path clip-path="url(#p8775e0bfa0)" d="M 73.832727 166.810752 
L 84.305455 162.55296 
L 94.778182 159.492672 
L 105.250909 157.629888 
L 115.723636 153.771264 
L 126.196364 153.505152 
L 136.669091 174.794112 
L 147.141818 224.024832 
L 157.614545 278.843904 
L 168.087273 307.184832 
L 178.56 299.733696 
L 189.032727 271.259712 
L 199.505455 240.39072 
L 209.978182 217.238976 
L 220.450909 202.602816 
L 230.923636 195.683904 
L 241.396364 189.696384 
L 251.869091 173.596608 
L 262.341818 149.380416 
L 272.814545 131.151744 
L 283.287273 123.833664 
L 293.76 115.185024 
L 304.232727 97.887744 
L 314.705455 81.787968 
L 325.178182 74.602944 
L 335.650909 70.345152 
L 346.123636 64.224576 
L 356.596364 61.031232 
L 367.069091 64.7568 
L 377.541818 73.006272 
L 388.014545 84.04992 
L 398.487273 98.286912 
" style="fill:none;stroke:#00ff5c;stroke-linecap:square;stroke-width:1.5;"/>
   </g>
   <g id="line2d_41">
    <path clip-path="url(#p8775e0bfa0)" d="M 73.832727 151.376256 
L 84.305455 173.19744 
L 94.778182 195.15168 
L 105.250909 206.46144 
L 115.723636 205.396992 
L 126.196364 205.396992 
L 136.669091 219.900096 
L 147.141818 242.120448 
L 157.614545 252.498816 
L 168.087273 240.39072 
L 178.56 216.307584 
L 189.032727 204.332544 
L 199.505455 214.311744 
L 209.978182 234.669312 
L 220.450909 251.833536 
L 230.923636 261.812736 
L 241.396364 268.465536 
L 251.869091 270.727488 
L 262.341818 263.143296 
L 272.814545 246.511296 
L 283.287273 225.08928 
L 293.76 199.542528 
L 304.232727 169.604928 
L 314.705455 139.800384 
L 325.178182 113.854464 
L 335.650909 93.097728 
L 346.123636 83.783808 
L 356.596364 92.299392 
L 367.069091 113.056128 
L 377.541818 128.756736 
L 388.014545 126.095616 
L 398.487273 109.197504 
" style="fill:none;stroke:#00ff7a;stroke-linecap:square;stroke-width:1.5;"/>
   </g>
   <g id="line2d_42">
    <path clip-path="url(#p8775e0bfa0)" d="M 73.832727 189.82944 
L 84.305455 208.590336 
L 94.778182 220.166208 
L 105.250909 213.77952 
L 115.723636 195.81696 
L 126.196364 190.361664 
L 136.669091 213.247296 
L 147.141818 245.846016 
L 157.614545 256.623552 
L 168.087273 240.257664 
L 178.56 219.633984 
L 189.032727 212.715072 
L 199.505455 212.848128 
L 209.978182 204.864768 
L 220.450909 188.631936 
L 230.923636 176.789952 
L 241.396364 178.386624 
L 251.869091 186.103872 
L 262.341818 187.16832 
L 272.814545 182.112192 
L 283.287273 180.116352 
L 293.76 182.644416 
L 304.232727 181.446912 
L 314.705455 173.330496 
L 325.178182 160.157952 
L 335.650909 144.058176 
L 346.123636 133.94592 
L 356.596364 138.469824 
L 367.069091 151.110144 
L 377.541818 153.771264 
L 388.014545 138.735936 
L 398.487273 117.580032 
" style="fill:none;stroke:#00ff97;stroke-linecap:square;stroke-width:1.5;"/>
   </g>
   <g id="line2d_43">
    <path clip-path="url(#p8775e0bfa0)" d="M 73.832727 144.457344 
L 84.305455 150.710976 
L 94.778182 161.754624 
L 105.250909 173.596608 
L 115.723636 183.17664 
L 126.196364 193.15584 
L 136.669091 208.723392 
L 147.141818 230.41152 
L 157.614545 247.575744 
L 168.087273 251.168256 
L 178.56 244.648512 
L 189.032727 235.06848 
L 199.505455 225.355392 
L 209.978182 213.77952 
L 220.450909 202.46976 
L 230.923636 197.8128 
L 241.396364 197.280576 
L 251.869091 192.49056 
L 262.341818 184.241088 
L 272.814545 178.51968 
L 283.287273 175.991616 
L 293.76 173.19744 
L 304.232727 166.411584 
L 314.705455 156.033216 
L 325.178182 143.92512 
L 335.650909 135.808704 
L 346.123636 138.336768 
L 356.596364 151.90848 
L 367.069091 164.415744 
L 377.541818 160.55712 
L 388.014545 142.727616 
L 398.487273 127.559232 
" style="fill:none;stroke:#00ffb5;stroke-linecap:square;stroke-width:1.5;"/>
   </g>
   <g id="line2d_44">
    <path clip-path="url(#p8775e0bfa0)" d="M 73.832727 74.869056 
L 84.305455 80.856576 
L 94.778182 79.526016 
L 105.250909 73.538496 
L 115.723636 77.39712 
L 126.196364 107.600832 
L 136.669091 164.149632 
L 147.141818 226.020672 
L 157.614545 266.735808 
L 168.087273 276.715008 
L 178.56 270.727488 
L 189.032727 265.67136 
L 199.505455 264.739968 
L 209.978182 263.941632 
L 220.450909 257.288832 
L 230.923636 246.245184 
L 241.396364 239.326272 
L 251.869091 236.39904 
L 262.341818 228.016512 
L 272.814545 210.053952 
L 283.287273 187.8336 
L 293.76 167.076864 
L 304.232727 151.775424 
L 314.705455 143.92512 
L 325.178182 140.066496 
L 335.650909 132.083136 
L 346.123636 116.382528 
L 356.596364 100.948032 
L 367.069091 91.767168 
L 377.541818 82.985472 
L 388.014545 70.877376 
L 398.487273 65.155968 
" style="fill:none;stroke:#00ffd3;stroke-linecap:square;stroke-width:1.5;"/>
   </g>
   <g id="line2d_45">
    <path clip-path="url(#p8775e0bfa0)" d="M 73.832727 147.783744 
L 84.305455 143.792064 
L 94.778182 141.397056 
L 105.250909 141.264 
L 115.723636 143.659008 
L 126.196364 153.771264 
L 136.669091 181.1808 
L 147.141818 222.960384 
L 157.614545 261.945792 
L 168.087273 285.363648 
L 178.56 291.750336 
L 189.032727 282.96864 
L 199.505455 264.606912 
L 209.978182 245.446848 
L 220.450909 234.802368 
L 230.923636 232.806528 
L 241.396364 224.690112 
L 251.869091 203.667264 
L 262.341818 179.18496 
L 272.814545 159.625728 
L 283.287273 146.719296 
L 293.76 142.993728 
L 304.232727 146.320128 
L 314.705455 146.054016 
L 325.178182 134.744256 
L 335.650909 117.047808 
L 346.123636 104.407488 
L 356.596364 101.879424 
L 367.069091 104.141376 
L 377.541818 106.00416 
L 388.014545 106.00416 
L 398.487273 102.278592 
" style="fill:none;stroke:#00fff6;stroke-linecap:square;stroke-width:1.5;"/>
   </g>
   <g id="line2d_46">
    <path clip-path="url(#p8775e0bfa0)" d="M 73.832727 114.785856 
L 84.305455 151.2432 
L 94.778182 174.927168 
L 105.250909 181.446912 
L 115.723636 185.83776 
L 126.196364 198.345024 
L 136.669091 217.10592 
L 147.141818 237.06432 
L 157.614545 251.301312 
L 168.087273 253.962432 
L 178.56 246.112128 
L 189.032727 238.39488 
L 199.505455 237.862656 
L 209.978182 235.467648 
L 220.450909 222.028992 
L 230.923636 201.538368 
L 241.396364 183.17664 
L 251.869091 171.600768 
L 262.341818 168.939648 
L 272.814545 174.794112 
L 283.287273 181.713024 
L 293.76 181.579968 
L 304.232727 174.261888 
L 314.705455 160.690176 
L 325.178182 146.054016 
L 335.650909 141.264 
L 346.123636 147.384576 
L 356.596364 153.505152 
L 367.069091 149.91264 
L 377.541818 138.070656 
L 388.014545 125.96256 
L 398.487273 119.708928 
" style="fill:none;stroke:#00eaff;stroke-linecap:square;stroke-width:1.5;"/>
   </g>
   <g id="line2d_47">
    <path clip-path="url(#p8775e0bfa0)" d="M 73.832727 148.049856 
L 84.305455 146.852352 
L 94.778182 143.659008 
L 105.250909 138.868992 
L 115.723636 145.388736 
L 126.196364 174.927168 
L 136.669091 216.972864 
L 147.141818 246.644352 
L 157.614545 253.297152 
L 168.087273 247.7088 
L 178.56 244.3824 
L 189.032727 243.71712 
L 199.505455 238.39488 
L 209.978182 225.355392 
L 220.450909 209.521728 
L 230.923636 199.941696 
L 241.396364 200.074752 
L 251.869091 202.868928 
L 262.341818 198.47808 
L 272.814545 185.970816 
L 283.287273 174.528 
L 293.76 171.467712 
L 304.232727 171.334656 
L 314.705455 160.291008 
L 325.178182 132.083136 
L 335.650909 98.0208 
L 346.123636 74.736 
L 356.596364 69.546816 
L 367.069091 73.804608 
L 377.541818 73.671552 
L 388.014545 67.151808 
L 398.487273 62.361792 
" style="fill:none;stroke:#00cdff;stroke-linecap:square;stroke-width:1.5;"/>
   </g>
   <g id="line2d_48">
    <path clip-path="url(#p8775e0bfa0)" d="M 73.832727 156.166272 
L 84.305455 147.25152 
L 94.778182 147.9168 
L 105.250909 152.307648 
L 115.723636 153.90432 
L 126.196364 163.617408 
L 136.669091 194.087232 
L 147.141818 235.06848 
L 157.614545 266.203584 
L 168.087273 281.63808 
L 178.56 288.024768 
L 189.032727 289.222272 
L 199.505455 285.097536 
L 209.978182 275.517504 
L 220.450909 261.147456 
L 230.923636 240.922944 
L 241.396364 221.629824 
L 251.869091 212.315904 
L 262.341818 209.654784 
L 272.814545 200.47392 
L 283.287273 179.584128 
L 293.76 155.23488 
L 304.232727 139.002048 
L 314.705455 133.812864 
L 325.178182 134.478144 
L 335.650909 136.873152 
L 346.123636 139.26816 
L 356.596364 137.27232 
L 367.069091 125.29728 
L 377.541818 109.729728 
L 388.014545 100.149696 
L 398.487273 94.428288 
" style="fill:none;stroke:#00afff;stroke-linecap:square;stroke-width:1.5;"/>
   </g>
   <g id="line2d_49">
    <path clip-path="url(#p8775e0bfa0)" d="M 73.832727 117.047808 
L 84.305455 116.914752 
L 94.778182 120.507264 
L 105.250909 126.760896 
L 115.723636 138.60288 
L 126.196364 162.686016 
L 136.669091 199.14336 
L 147.141818 235.999872 
L 157.614545 259.01856 
L 168.087273 263.276352 
L 178.56 255.159936 
L 189.032727 241.588224 
L 199.505455 228.681792 
L 209.978182 223.359552 
L 220.450909 228.149568 
L 230.923636 234.004032 
L 241.396364 229.214016 
L 251.869091 214.178688 
L 262.341818 201.671424 
L 272.814545 196.083072 
L 283.287273 187.567488 
L 293.76 171.334656 
L 304.232727 153.90432 
L 314.705455 140.066496 
L 325.178182 128.756736 
L 335.650909 119.043648 
L 346.123636 113.189184 
L 356.596364 111.99168 
L 367.069091 112.124736 
L 377.541818 111.725568 
L 388.014545 110.66112 
L 398.487273 105.072768 
" style="fill:none;stroke:#0092ff;stroke-linecap:square;stroke-width:1.5;"/>
   </g>
   <g id="line2d_50">
    <path clip-path="url(#p8775e0bfa0)" d="M 73.832727 121.97088 
L 84.305455 142.062336 
L 94.778182 162.819072 
L 105.250909 169.20576 
L 115.723636 161.355456 
L 126.196364 156.698496 
L 136.669091 172.931328 
L 147.141818 211.251456 
L 157.614545 254.494656 
L 168.087273 284.831424 
L 178.56 300.532032 
L 189.032727 310.777344 
L 199.505455 319.425984 
L 209.978182 317.696256 
L 220.450909 296.008128 
L 230.923636 262.611072 
L 241.396364 235.866816 
L 251.869091 221.230656 
L 262.341818 209.78784 
L 272.814545 196.349184 
L 283.287273 186.236928 
L 293.76 180.781632 
L 304.232727 176.124672 
L 314.705455 171.733824 
L 325.178182 166.411584 
L 335.650909 156.033216 
L 346.123636 139.002048 
L 356.596364 125.430336 
L 367.069091 123.700608 
L 377.541818 124.898112 
L 388.014545 114.785856 
L 398.487273 98.419968 
" style="fill:none;stroke:#0074ff;stroke-linecap:square;stroke-width:1.5;"/>
   </g>
   <g id="line2d_51">
    <path clip-path="url(#p8775e0bfa0)" d="M 73.832727 195.550848 
L 84.305455 195.550848 
L 94.778182 202.070592 
L 105.250909 208.989504 
L 115.723636 211.916736 
L 126.196364 213.646464 
L 136.669091 221.629824 
L 147.141818 236.265984 
L 157.614545 248.241024 
L 168.087273 254.3616 
L 178.56 259.949952 
L 189.032727 264.739968 
L 199.505455 261.546624 
L 209.978182 251.833536 
L 220.450909 245.180736 
L 230.923636 245.979072 
L 241.396364 251.434368 
L 251.869091 255.559104 
L 262.341818 253.430208 
L 272.814545 244.914624 
L 283.287273 236.265984 
L 293.76 231.475968 
L 304.232727 227.484288 
L 314.705455 221.230656 
L 325.178182 213.912576 
L 335.650909 210.053952 
L 346.123636 211.650624 
L 356.596364 209.78784 
L 367.069091 196.881408 
L 377.541818 182.112192 
L 388.014545 174.394944 
L 398.487273 168.407424 
" style="fill:none;stroke:#0057ff;stroke-linecap:square;stroke-width:1.5;"/>
   </g>
   <g id="line2d_52">
    <path clip-path="url(#p8775e0bfa0)" d="M 73.832727 115.185024 
L 84.305455 115.98336 
L 94.778182 121.438656 
L 105.250909 131.817024 
L 115.723636 146.852352 
L 126.196364 171.2016 
L 136.669091 206.993664 
L 147.141818 243.451008 
L 157.614545 271.65888 
L 168.087273 291.085056 
L 178.56 305.055936 
L 189.032727 317.030976 
L 199.505455 322.88544 
L 209.978182 316.498752 
L 220.450909 300.398976 
L 230.923636 279.908352 
L 241.396364 258.619392 
L 251.869091 240.39072 
L 262.341818 227.218176 
L 272.814545 219.10176 
L 283.287273 214.311744 
L 293.76 208.723392 
L 304.232727 200.207808 
L 314.705455 189.430272 
L 325.178182 176.923008 
L 335.650909 164.814912 
L 346.123636 157.629888 
L 356.596364 154.835712 
L 367.069091 148.715136 
L 377.541818 137.538432 
L 388.014545 130.220352 
L 398.487273 133.413696 
" style="fill:none;stroke:#0039ff;stroke-linecap:square;stroke-width:1.5;"/>
   </g>
   <g id="line2d_53">
    <path clip-path="url(#p8775e0bfa0)" d="M 73.832727 197.8128 
L 84.305455 178.120512 
L 94.778182 156.964608 
L 105.250909 147.384576 
L 115.723636 157.363776 
L 126.196364 181.313856 
L 136.669091 209.388672 
L 147.141818 234.4032 
L 157.614545 250.502976 
L 168.087273 255.159936 
L 178.56 251.0352 
L 189.032727 243.451008 
L 199.505455 238.128768 
L 209.978182 236.665152 
L 220.450909 235.467648 
L 230.923636 232.40736 
L 241.396364 228.016512 
L 251.869091 224.557056 
L 262.341818 223.625664 
L 272.814545 222.960384 
L 283.287273 216.839808 
L 293.76 202.46976 
L 304.232727 184.5072 
L 314.705455 166.278528 
L 325.178182 145.92096 
L 335.650909 121.039488 
L 346.123636 95.35968 
L 356.596364 81.255744 
L 367.069091 87.775488 
L 377.541818 105.738048 
L 388.014545 115.31808 
L 398.487273 109.33056 
" style="fill:none;stroke:#001cff;stroke-linecap:square;stroke-width:1.5;"/>
   </g>
   <g id="line2d_54">
    <path clip-path="url(#p8775e0bfa0)" d="M 73.832727 140.59872 
L 84.305455 153.23904 
L 94.778182 166.677696 
L 105.250909 174.528 
L 115.723636 180.249408 
L 126.196364 193.421952 
L 136.669091 216.839808 
L 147.141818 239.72544 
L 157.614545 248.507136 
L 168.087273 243.317952 
L 178.56 236.532096 
L 189.032727 235.201536 
L 199.505455 233.338752 
L 209.978182 222.42816 
L 220.450909 205.929216 
L 230.923636 197.413632 
L 241.396364 203.401152 
L 251.869091 214.577856 
L 262.341818 218.43648 
L 272.814545 210.586176 
L 283.287273 196.48224 
L 293.76 182.51136 
L 304.232727 172.266048 
L 314.705455 165.347136 
L 325.178182 159.89184 
L 335.650909 158.029056 
L 346.123636 164.415744 
L 356.596364 176.124672 
L 367.069091 183.708864 
L 377.541818 182.51136 
L 388.014545 176.257728 
L 398.487273 170.403264 
" style="fill:none;stroke:#0800ff;stroke-linecap:square;stroke-width:1.5;"/>
   </g>
   <g id="line2d_55">
    <path clip-path="url(#p8775e0bfa0)" d="M 73.832727 169.072704 
L 84.305455 174.528 
L 94.778182 173.463552 
L 105.250909 171.733824 
L 115.723636 175.19328 
L 126.196364 187.966656 
L 136.669091 212.44896 
L 147.141818 243.184896 
L 157.614545 263.808576 
L 168.087273 263.409408 
L 178.56 249.970752 
L 189.032727 239.193216 
L 199.505455 232.40736 
L 209.978182 218.835648 
L 220.450909 197.679744 
L 230.923636 178.253568 
L 241.396364 166.677696 
L 251.869091 162.55296 
L 262.341818 161.089344 
L 272.814545 158.295168 
L 283.287273 156.831552 
L 293.76 156.56544 
L 304.232727 150.710976 
L 314.705455 136.340928 
L 325.178182 118.777536 
L 335.650909 106.802496 
L 346.123636 106.270272 
L 356.596364 113.854464 
L 367.069091 120.108096 
L 377.541818 117.713088 
L 388.014545 105.471936 
L 398.487273 84.316032 
" style="fill:none;stroke:#2500ff;stroke-linecap:square;stroke-width:1.5;"/>
   </g>
   <g id="line2d_56">
    <path clip-path="url(#p8775e0bfa0)" d="M 73.832727 204.864768 
L 84.305455 235.06848 
L 94.778182 242.785728 
L 105.250909 227.484288 
L 115.723636 209.388672 
L 126.196364 205.396992 
L 136.669091 216.307584 
L 147.141818 235.334592 
L 157.614545 255.825216 
L 168.087273 269.66304 
L 178.56 271.791936 
L 189.032727 265.804416 
L 199.505455 257.421888 
L 209.978182 248.640192 
L 220.450909 239.592384 
L 230.923636 231.609024 
L 241.396364 225.355392 
L 251.869091 218.702592 
L 262.341818 210.985344 
L 272.814545 202.336704 
L 283.287273 194.087232 
L 293.76 187.966656 
L 304.232727 179.318016 
L 314.705455 167.342976 
L 325.178182 160.823232 
L 335.650909 161.88768 
L 346.123636 161.355456 
L 356.596364 155.23488 
L 367.069091 145.787904 
L 377.541818 135.808704 
L 388.014545 129.28896 
L 398.487273 129.422016 
" style="fill:none;stroke:#4300ff;stroke-linecap:square;stroke-width:1.5;"/>
   </g>
   <g id="line2d_57">
    <path clip-path="url(#p8775e0bfa0)" d="M 73.832727 160.956288 
L 84.305455 160.291008 
L 94.778182 154.5696 
L 105.250909 154.303488 
L 115.723636 164.5488 
L 126.196364 182.910528 
L 136.669091 207.792 
L 147.141818 236.39904 
L 157.614545 260.881344 
L 168.087273 273.920832 
L 178.56 277.912512 
L 189.032727 278.444736 
L 199.505455 273.787776 
L 209.978182 261.812736 
L 220.450909 246.910464 
L 230.923636 237.7296 
L 241.396364 236.532096 
L 251.869091 239.326272 
L 262.341818 240.523776 
L 272.814545 239.858496 
L 283.287273 235.600704 
L 293.76 222.694272 
L 304.232727 203.001984 
L 314.705455 186.769152 
L 325.178182 178.253568 
L 335.650909 174.927168 
L 346.123636 176.390784 
L 356.596364 182.378304 
L 367.069091 187.035264 
L 377.541818 184.374144 
L 388.014545 176.124672 
L 398.487273 169.072704 
" style="fill:none;stroke:#6000ff;stroke-linecap:square;stroke-width:1.5;"/>
   </g>
   <g id="line2d_58">
    <path clip-path="url(#p8775e0bfa0)" d="M 73.832727 147.25152 
L 84.305455 150.977088 
L 94.778182 155.90016 
L 105.250909 165.081024 
L 115.723636 178.120512 
L 126.196364 190.893888 
L 136.669091 206.195328 
L 147.141818 230.41152 
L 157.614545 257.554944 
L 168.087273 272.457216 
L 178.56 273.388608 
L 189.032727 267.401088 
L 199.505455 254.893824 
L 209.978182 239.193216 
L 220.450909 231.74208 
L 230.923636 236.798208 
L 241.396364 244.249344 
L 251.869091 241.322112 
L 262.341818 229.74624 
L 272.814545 221.363712 
L 283.287273 219.633984 
L 293.76 215.11008 
L 304.232727 199.675584 
L 314.705455 177.056064 
L 325.178182 160.291008 
L 335.650909 158.295168 
L 346.123636 164.681856 
L 356.596364 167.076864 
L 367.069091 161.88768 
L 377.541818 156.56544 
L 388.014545 157.23072 
L 398.487273 163.085184 
" style="fill:none;stroke:#7e00ff;stroke-linecap:square;stroke-width:1.5;"/>
   </g>
   <g id="line2d_59">
    <path clip-path="url(#p8775e0bfa0)" d="M 73.832727 150.444864 
L 84.305455 150.444864 
L 94.778182 147.384576 
L 105.250909 149.114304 
L 115.723636 160.024896 
L 126.196364 180.116352 
L 136.669091 205.79616 
L 147.141818 232.939584 
L 157.614545 254.627712 
L 168.087273 263.01024 
L 178.56 256.490496 
L 189.032727 241.588224 
L 199.505455 228.282624 
L 209.978182 220.565376 
L 220.450909 213.646464 
L 230.923636 201.272256 
L 241.396364 187.16832 
L 251.869091 180.648576 
L 262.341818 183.84192 
L 272.814545 188.764992 
L 283.287273 188.365824 
L 293.76 181.313856 
L 304.232727 171.600768 
L 314.705455 164.282688 
L 325.178182 159.625728 
L 335.650909 155.767104 
L 346.123636 151.775424 
L 356.596364 148.049856 
L 367.069091 145.122624 
L 377.541818 140.864832 
L 388.014545 133.014528 
L 398.487273 122.769216 
" style="fill:none;stroke:#9b00ff;stroke-linecap:square;stroke-width:1.5;"/>
   </g>
   <g id="line2d_60">
    <path clip-path="url(#p8775e0bfa0)" d="M 73.832727 147.118464 
L 84.305455 150.844032 
L 94.778182 170.53632 
L 105.250909 192.889728 
L 115.723636 205.13088 
L 126.196364 208.723392 
L 136.669091 216.174528 
L 147.141818 235.999872 
L 157.614545 257.688 
L 168.087273 266.33664 
L 178.56 260.482176 
L 189.032727 249.70464 
L 199.505455 241.854336 
L 209.978182 238.794048 
L 220.450909 239.991552 
L 230.923636 240.523776 
L 241.396364 232.673472 
L 251.869091 218.037312 
L 262.341818 207.792 
L 272.814545 206.062272 
L 283.287273 204.4656 
L 293.76 193.288896 
L 304.232727 174.394944 
L 314.705455 161.2224 
L 325.178182 159.758784 
L 335.650909 158.295168 
L 346.123636 146.453184 
L 356.596364 131.683968 
L 367.069091 126.62784 
L 377.541818 129.155904 
L 388.014545 125.96256 
L 398.487273 114.386688 
" style="fill:none;stroke:#b900ff;stroke-linecap:square;stroke-width:1.5;"/>
   </g>
   <g id="line2d_61">
    <path clip-path="url(#p8775e0bfa0)" d="M 73.832727 113.98752 
L 84.305455 125.031168 
L 94.778182 142.062336 
L 105.250909 153.372096 
L 115.723636 156.033216 
L 126.196364 161.488512 
L 136.669091 182.910528 
L 147.141818 217.638144 
L 157.614545 247.309632 
L 168.087273 254.627712 
L 178.56 236.532096 
L 189.032727 209.78784 
L 199.505455 200.740032 
L 209.978182 218.835648 
L 220.450909 242.785728 
L 230.923636 249.70464 
L 241.396364 240.789888 
L 251.869091 226.41984 
L 262.341818 208.723392 
L 272.814545 188.232768 
L 283.287273 171.467712 
L 293.76 165.613248 
L 304.232727 167.20992 
L 314.705455 168.008256 
L 325.178182 164.5488 
L 335.650909 158.428224 
L 346.123636 152.307648 
L 356.596364 148.049856 
L 367.069091 140.997888 
L 377.541818 125.829504 
L 388.014545 106.802496 
L 398.487273 90.835776 
" style="fill:none;stroke:#d600ff;stroke-linecap:square;stroke-width:1.5;"/>
   </g>
   <g id="line2d_62">
    <path clip-path="url(#p8775e0bfa0)" d="M 73.832727 184.241088 
L 84.305455 193.82112 
L 94.778182 202.735872 
L 105.250909 207.792 
L 115.723636 209.388672 
L 126.196364 212.582016 
L 136.669091 221.895936 
L 147.141818 236.665152 
L 157.614545 249.438528 
L 168.087273 253.03104 
L 178.56 249.837696 
L 189.032727 249.03936 
L 199.505455 252.099648 
L 209.978182 253.297152 
L 220.450909 252.764928 
L 230.923636 252.232704 
L 241.396364 246.777408 
L 251.869091 234.802368 
L 262.341818 222.827328 
L 272.814545 214.843968 
L 283.287273 205.79616 
L 293.76 190.627776 
L 304.232727 173.86272 
L 314.705455 165.21408 
L 325.178182 165.21408 
L 335.650909 166.145472 
L 346.123636 161.754624 
L 356.596364 150.844032 
L 367.069091 138.203712 
L 377.541818 131.95008 
L 388.014545 132.61536 
L 398.487273 133.546752 
" style="fill:none;stroke:#f800fd;stroke-linecap:square;stroke-width:1.5;"/>
   </g>
   <g id="line2d_63">
    <path clip-path="url(#p8775e0bfa0)" d="M 73.832727 161.88768 
L 84.305455 166.012416 
L 94.778182 179.18496 
L 105.250909 203.401152 
L 115.723636 222.960384 
L 126.196364 226.685952 
L 136.669091 226.153728 
L 147.141818 235.999872 
L 157.614545 249.172416 
L 168.087273 250.103808 
L 178.56 237.862656 
L 189.032727 223.492608 
L 199.505455 214.178688 
L 209.978182 210.586176 
L 220.450909 208.989504 
L 230.923636 205.13088 
L 241.396364 201.006144 
L 251.869091 201.538368 
L 262.341818 203.534208 
L 272.814545 203.268096 
L 283.287273 203.401152 
L 293.76 204.598656 
L 304.232727 202.602816 
L 314.705455 196.216128 
L 325.178182 187.434432 
L 335.650909 179.451072 
L 346.123636 174.394944 
L 356.596364 174.661056 
L 367.069091 177.8544 
L 377.541818 176.52384 
L 388.014545 168.407424 
L 398.487273 157.629888 
" style="fill:none;stroke:#ff00e7;stroke-linecap:square;stroke-width:1.5;"/>
   </g>
   <g id="line2d_64">
    <path clip-path="url(#p8775e0bfa0)" d="M 73.832727 149.24736 
L 84.305455 145.654848 
L 94.778182 142.062336 
L 105.250909 150.844032 
L 115.723636 171.600768 
L 126.196364 197.014464 
L 136.669091 221.76288 
L 147.141818 240.523776 
L 157.614545 249.03936 
L 168.087273 247.442688 
L 178.56 240.124608 
L 189.032727 233.205696 
L 199.505455 232.008192 
L 209.978182 237.596544 
L 220.450909 241.455168 
L 230.923636 233.07264 
L 241.396364 211.916736 
L 251.869091 190.627776 
L 262.341818 183.442752 
L 272.814545 189.031104 
L 283.287273 191.82528 
L 293.76 187.700544 
L 304.232727 184.906368 
L 314.705455 184.906368 
L 325.178182 183.309696 
L 335.650909 177.056064 
L 346.123636 166.943808 
L 356.596364 157.363776 
L 367.069091 151.90848 
L 377.541818 148.315968 
L 388.014545 144.723456 
L 398.487273 139.534272 
" style="fill:none;stroke:#ff00c9;stroke-linecap:square;stroke-width:1.5;"/>
   </g>
   <g id="line2d_65">
    <path clip-path="url(#p8775e0bfa0)" d="M 73.832727 136.473984 
L 84.305455 141.663168 
L 94.778182 151.509312 
L 105.250909 157.896 
L 115.723636 158.428224 
L 126.196364 158.162112 
L 136.669091 171.467712 
L 147.141818 206.594496 
L 157.614545 249.172416 
L 168.087273 274.719168 
L 178.56 276.581952 
L 189.032727 268.864704 
L 199.505455 264.873024 
L 209.978182 266.602752 
L 220.450909 265.139136 
L 230.923636 251.70048 
L 241.396364 229.08096 
L 251.869091 207.525888 
L 262.341818 192.756672 
L 272.814545 181.579968 
L 283.287273 171.733824 
L 293.76 164.814912 
L 304.232727 160.424064 
L 314.705455 157.896 
L 325.178182 158.960448 
L 335.650909 159.22656 
L 346.123636 152.440704 
L 356.596364 138.868992 
L 367.069091 123.700608 
L 377.541818 107.733888 
L 388.014545 90.70272 
L 398.487273 77.663232 
" style="fill:none;stroke:#ff00ac;stroke-linecap:square;stroke-width:1.5;"/>
   </g>
   <g id="line2d_66">
    <path clip-path="url(#p8775e0bfa0)" d="M 73.832727 169.471872 
L 84.305455 170.669376 
L 94.778182 166.677696 
L 105.250909 160.157952 
L 115.723636 161.754624 
L 126.196364 181.313856 
L 136.669091 214.577856 
L 147.141818 245.04768 
L 157.614545 260.615232 
L 168.087273 260.482176 
L 178.56 249.837696 
L 189.032727 235.06848 
L 199.505455 221.629824 
L 209.978182 211.251456 
L 220.450909 203.933376 
L 230.923636 198.611136 
L 241.396364 191.958336 
L 251.869091 185.305536 
L 262.341818 180.382464 
L 272.814545 175.459392 
L 283.287273 168.806592 
L 293.76 162.686016 
L 304.232727 158.029056 
L 314.705455 154.436544 
L 325.178182 149.24736 
L 335.650909 139.401216 
L 346.123636 128.756736 
L 356.596364 125.031168 
L 367.069091 127.426176 
L 377.541818 127.692288 
L 388.014545 120.241152 
L 398.487273 109.99584 
" style="fill:none;stroke:#ff008e;stroke-linecap:square;stroke-width:1.5;"/>
   </g>
   <g id="line2d_67">
    <path clip-path="url(#p8775e0bfa0)" d="M 73.832727 79.39296 
L 84.305455 92.964672 
L 94.778182 103.476096 
L 105.250909 108 
L 115.723636 106.00416 
L 126.196364 114.519744 
L 136.669091 152.839872 
L 147.141818 210.586176 
L 157.614545 256.224384 
L 168.087273 274.719168 
L 178.56 273.65472 
L 189.032727 265.405248 
L 199.505455 257.155776 
L 209.978182 249.837696 
L 220.450909 242.38656 
L 230.923636 235.201536 
L 241.396364 226.552896 
L 251.869091 214.045632 
L 262.341818 197.280576 
L 272.814545 178.652736 
L 283.287273 162.153792 
L 293.76 150.977088 
L 304.232727 145.787904 
L 314.705455 140.731776 
L 325.178182 131.683968 
L 335.650909 123.035328 
L 346.123636 118.777536 
L 356.596364 116.249472 
L 367.069091 107.733888 
L 377.541818 91.634112 
L 388.014545 76.199616 
L 398.487273 68.881536 
" style="fill:none;stroke:#ff0071;stroke-linecap:square;stroke-width:1.5;"/>
   </g>
   <g id="line2d_68">
    <path clip-path="url(#p8775e0bfa0)" d="M 73.832727 144.989568 
L 84.305455 143.392896 
L 94.778182 157.363776 
L 105.250909 174.661056 
L 115.723636 182.245248 
L 126.196364 186.369984 
L 136.669091 203.268096 
L 147.141818 231.0768 
L 157.614545 249.70464 
L 168.087273 247.309632 
L 178.56 232.40736 
L 189.032727 217.505088 
L 199.505455 206.46144 
L 209.978182 195.683904 
L 220.450909 181.979136 
L 230.923636 170.270208 
L 241.396364 164.149632 
L 251.869091 156.299328 
L 262.341818 141.130944 
L 272.814545 128.224512 
L 283.287273 125.164224 
L 293.76 123.833664 
L 304.232727 115.850304 
L 314.705455 109.33056 
L 325.178182 114.918912 
L 335.650909 126.228672 
L 346.123636 129.95424 
L 356.596364 120.507264 
L 367.069091 105.33888 
L 377.541818 94.6944 
L 388.014545 92.69856 
L 398.487273 98.419968 
" style="fill:none;stroke:#ff0053;stroke-linecap:square;stroke-width:1.5;"/>
   </g>
   <g id="line2d_69">
    <path clip-path="url(#p8775e0bfa0)" d="M 73.832727 126.361728 
L 84.305455 142.993728 
L 94.778182 162.55296 
L 105.250909 173.729664 
L 115.723636 177.455232 
L 126.196364 185.83776 
L 136.669091 204.731712 
L 147.141818 227.7504 
L 157.614545 246.910464 
L 168.087273 255.292992 
L 178.56 249.438528 
L 189.032727 233.73792 
L 199.505455 221.76288 
L 209.978182 224.823168 
L 220.450909 234.004032 
L 230.923636 230.810688 
L 241.396364 210.320064 
L 251.869091 181.713024 
L 262.341818 157.097664 
L 272.814545 140.465664 
L 283.287273 129.688128 
L 293.76 121.3056 
L 304.232727 115.451136 
L 314.705455 113.32224 
L 325.178182 112.124736 
L 335.650909 106.66944 
L 346.123636 97.488576 
L 356.596364 92.964672 
L 367.069091 98.153856 
L 377.541818 105.471936 
L 388.014545 104.407488 
L 398.487273 101.480256 
" style="fill:none;stroke:#ff0035;stroke-linecap:square;stroke-width:1.5;"/>
   </g>
   <g id="line2d_70">
    <path clip-path="url(#p8775e0bfa0)" d="M 73.832727 150.022155 
L 84.305455 154.577788 
L 94.778182 159.481413 
L 105.250909 163.636855 
L 115.723636 168.681724 
L 126.196364 180.222797 
L 136.669091 202.628404 
L 147.141818 231.884348 
L 157.614545 256.185491 
L 168.087273 265.918025 
L 178.56 261.960121 
L 189.032727 252.409771 
L 199.505455 243.508324 
L 209.978182 236.069471 
L 220.450909 228.337893 
L 230.923636 219.487622 
L 241.396364 209.82571 
L 251.869091 199.779982 
L 262.341818 189.912344 
L 272.814545 180.82769 
L 283.287273 172.717415 
L 293.76 165.078977 
L 304.232727 157.457939 
L 314.705455 150.02932 
L 325.178182 143.19843 
L 335.650909 136.784107 
L 346.123636 130.519216 
L 356.596364 124.845913 
L 367.069091 119.883948 
L 377.541818 114.846243 
L 388.014545 109.602813 
L 398.487273 105.193542 
" style="fill:none;stroke:#000000;stroke-linecap:square;stroke-width:2;"/>
   </g>
   <g id="patch_3">
    <path d="M 57.6 307.584 
L 57.6 41.472 
" style="fill:none;stroke:#000000;stroke-linecap:square;stroke-linejoin:miter;stroke-width:0.8;"/>
   </g>
   <g id="patch_4">
    <path d="M 414.72 307.584 
L 414.72 41.472 
" style="fill:none;stroke:#000000;stroke-linecap:square;stroke-linejoin:miter;stroke-width:0.8;"/>
   </g>
   <g id="patch_5">
    <path d="M 57.6 307.584 
L 414.72 307.584 
" style="fill:none;stroke:#000000;stroke-linecap:square;stroke-linejoin:miter;stroke-width:0.8;"/>
   </g>
   <g id="patch_6">
    <path d="M 57.6 41.472 
L 414.72 41.472 
" style="fill:none;stroke:#000000;stroke-linecap:square;stroke-linejoin:miter;stroke-width:0.8;"/>
   </g>
   <g id="text_21">
    <!-- $V_{rms}=$ 18.559388 -->
    <defs>
     <path d="M 20.609375 0 
L 7.8125 72.90625 
L 17.484375 72.90625 
L 28.078125 10.203125 
L 63.484375 72.90625 
L 74.21875 72.90625 
L 32.078125 0 
z
" id="DejaVuSans-Oblique-56"/>
     <path d="M 44.578125 46.390625 
Q 43.21875 47.125 41.453125 47.515625 
Q 39.703125 47.90625 37.703125 47.90625 
Q 30.515625 47.90625 25.140625 42.453125 
Q 19.78125 37.015625 18.015625 27.875 
L 12.5 0 
L 3.515625 0 
L 14.203125 54.6875 
L 23.1875 54.6875 
L 21.484375 46.1875 
Q 25.046875 50.921875 30 53.453125 
Q 34.96875 56 40.578125 56 
Q 42.046875 56 43.453125 55.828125 
Q 44.875 55.671875 46.296875 55.28125 
z
" id="DejaVuSans-Oblique-72"/>
     <path d="M 89.796875 33.015625 
L 83.40625 0 
L 74.421875 0 
L 80.71875 32.71875 
Q 81.109375 34.8125 81.296875 36.328125 
Q 81.5 37.84375 81.5 38.921875 
Q 81.5 43.3125 79.046875 45.75 
Q 76.609375 48.1875 72.21875 48.1875 
Q 65.671875 48.1875 60.546875 43.28125 
Q 55.421875 38.375 53.90625 30.515625 
L 47.90625 0 
L 38.921875 0 
L 45.3125 32.71875 
Q 45.703125 34.515625 45.890625 36.046875 
Q 46.09375 37.59375 46.09375 38.8125 
Q 46.09375 43.265625 43.65625 45.71875 
Q 41.21875 48.1875 36.921875 48.1875 
Q 30.28125 48.1875 25.140625 43.28125 
Q 20.015625 38.375 18.5 30.515625 
L 12.5 0 
L 3.515625 0 
L 14.203125 54.6875 
L 23.1875 54.6875 
L 21.484375 46.1875 
Q 25.140625 50.984375 30.046875 53.484375 
Q 34.96875 56 40.578125 56 
Q 46.53125 56 50.359375 52.875 
Q 54.203125 49.75 54.984375 44.1875 
Q 59.078125 49.953125 64.46875 52.96875 
Q 69.875 56 75.875 56 
Q 82.90625 56 86.734375 51.953125 
Q 90.578125 47.90625 90.578125 40.484375 
Q 90.578125 38.875 90.375 36.9375 
Q 90.1875 35.015625 89.796875 33.015625 
z
" id="DejaVuSans-Oblique-6d"/>
     <path d="M 50 53.078125 
L 48.296875 44.578125 
Q 44.734375 46.53125 40.765625 47.5 
Q 36.8125 48.484375 32.625 48.484375 
Q 25.53125 48.484375 21.453125 46.0625 
Q 17.390625 43.65625 17.390625 39.5 
Q 17.390625 34.671875 26.859375 32.078125 
Q 27.59375 31.890625 27.9375 31.78125 
L 30.8125 30.90625 
Q 39.796875 28.421875 42.796875 25.6875 
Q 45.796875 22.953125 45.796875 18.21875 
Q 45.796875 9.515625 38.890625 4.046875 
Q 31.984375 -1.421875 20.796875 -1.421875 
Q 16.453125 -1.421875 11.671875 -0.578125 
Q 6.890625 0.25 1.125 2 
L 2.875 11.28125 
Q 7.8125 8.734375 12.59375 7.421875 
Q 17.390625 6.109375 21.78125 6.109375 
Q 28.375 6.109375 32.5 8.9375 
Q 36.625 11.765625 36.625 16.109375 
Q 36.625 20.796875 25.78125 23.6875 
L 24.859375 23.921875 
L 21.78125 24.703125 
Q 14.9375 26.515625 11.765625 29.46875 
Q 8.59375 32.421875 8.59375 37.015625 
Q 8.59375 45.75 15.15625 50.875 
Q 21.734375 56 33.015625 56 
Q 37.453125 56 41.671875 55.265625 
Q 45.90625 54.546875 50 53.078125 
z
" id="DejaVuSans-Oblique-73"/>
     <path d="M 10.59375 45.40625 
L 73.1875 45.40625 
L 73.1875 37.203125 
L 10.59375 37.203125 
z
M 10.59375 25.484375 
L 73.1875 25.484375 
L 73.1875 17.1875 
L 10.59375 17.1875 
z
" id="DejaVuSans-3d"/>
     <path d="M 10.984375 1.515625 
L 10.984375 10.5 
Q 14.703125 8.734375 18.5 7.8125 
Q 22.3125 6.890625 25.984375 6.890625 
Q 35.75 6.890625 40.890625 13.453125 
Q 46.046875 20.015625 46.78125 33.40625 
Q 43.953125 29.203125 39.59375 26.953125 
Q 35.25 24.703125 29.984375 24.703125 
Q 19.046875 24.703125 12.671875 31.3125 
Q 6.296875 37.9375 6.296875 49.421875 
Q 6.296875 60.640625 12.9375 67.421875 
Q 19.578125 74.21875 30.609375 74.21875 
Q 43.265625 74.21875 49.921875 64.515625 
Q 56.59375 54.828125 56.59375 36.375 
Q 56.59375 19.140625 48.40625 8.859375 
Q 40.234375 -1.421875 26.421875 -1.421875 
Q 22.703125 -1.421875 18.890625 -0.6875 
Q 15.09375 0.046875 10.984375 1.515625 
z
M 30.609375 32.421875 
Q 37.25 32.421875 41.125 36.953125 
Q 45.015625 41.5 45.015625 49.421875 
Q 45.015625 57.28125 41.125 61.84375 
Q 37.25 66.40625 30.609375 66.40625 
Q 23.96875 66.40625 20.09375 61.84375 
Q 16.21875 57.28125 16.21875 49.421875 
Q 16.21875 41.5 20.09375 36.953125 
Q 23.96875 32.421875 30.609375 32.421875 
z
" id="DejaVuSans-39"/>
    </defs>
    <g transform="translate(325.178182 172.717415)scale(0.1 -0.1)">
     <use transform="translate(0 0.78125)" xlink:href="#DejaVuSans-Oblique-56"/>
     <use transform="translate(68.408203 -15.625)scale(0.7)" xlink:href="#DejaVuSans-Oblique-72"/>
     <use transform="translate(97.1875 -15.625)scale(0.7)" xlink:href="#DejaVuSans-Oblique-6d"/>
     <use transform="translate(165.375977 -15.625)scale(0.7)" xlink:href="#DejaVuSans-Oblique-73"/>
     <use transform="translate(224.0625 0.78125)" xlink:href="#DejaVuSans-3d"/>
     <use transform="translate(327.333984 0.78125)" xlink:href="#DejaVuSans-20"/>
     <use transform="translate(359.121094 0.78125)" xlink:href="#DejaVuSans-31"/>
     <use transform="translate(422.744141 0.78125)" xlink:href="#DejaVuSans-38"/>
     <use transform="translate(486.367188 0.78125)" xlink:href="#DejaVuSans-2e"/>
     <use transform="translate(518.154297 0.78125)" xlink:href="#DejaVuSans-35"/>
     <use transform="translate(581.777344 0.78125)" xlink:href="#DejaVuSans-35"/>
     <use transform="translate(645.322266 0.78125)" xlink:href="#DejaVuSans-39"/>
     <use transform="translate(708.945312 0.78125)" xlink:href="#DejaVuSans-33"/>
     <use transform="translate(772.568359 0.78125)" xlink:href="#DejaVuSans-38"/>
     <use transform="translate(836.191406 0.78125)" xlink:href="#DejaVuSans-38"/>
    </g>
   </g>
   <g id="text_22">
    <!-- Channel 17 - Unit 1 -->
    <defs>
     <path d="M 64.40625 67.28125 
L 64.40625 56.890625 
Q 59.421875 61.53125 53.78125 63.8125 
Q 48.140625 66.109375 41.796875 66.109375 
Q 29.296875 66.109375 22.65625 58.46875 
Q 16.015625 50.828125 16.015625 36.375 
Q 16.015625 21.96875 22.65625 14.328125 
Q 29.296875 6.6875 41.796875 6.6875 
Q 48.140625 6.6875 53.78125 8.984375 
Q 59.421875 11.28125 64.40625 15.921875 
L 64.40625 5.609375 
Q 59.234375 2.09375 53.4375 0.328125 
Q 47.65625 -1.421875 41.21875 -1.421875 
Q 24.65625 -1.421875 15.125 8.703125 
Q 5.609375 18.84375 5.609375 36.375 
Q 5.609375 53.953125 15.125 64.078125 
Q 24.65625 74.21875 41.21875 74.21875 
Q 47.75 74.21875 53.53125 72.484375 
Q 59.328125 70.75 64.40625 67.28125 
z
" id="DejaVuSans-43"/>
     <path d="M 54.890625 33.015625 
L 54.890625 0 
L 45.90625 0 
L 45.90625 32.71875 
Q 45.90625 40.484375 42.875 44.328125 
Q 39.84375 48.1875 33.796875 48.1875 
Q 26.515625 48.1875 22.3125 43.546875 
Q 18.109375 38.921875 18.109375 30.90625 
L 18.109375 0 
L 9.078125 0 
L 9.078125 75.984375 
L 18.109375 75.984375 
L 18.109375 46.1875 
Q 21.34375 51.125 25.703125 53.5625 
Q 30.078125 56 35.796875 56 
Q 45.21875 56 50.046875 50.171875 
Q 54.890625 44.34375 54.890625 33.015625 
z
" id="DejaVuSans-68"/>
     <path d="M 54.890625 33.015625 
L 54.890625 0 
L 45.90625 0 
L 45.90625 32.71875 
Q 45.90625 40.484375 42.875 44.328125 
Q 39.84375 48.1875 33.796875 48.1875 
Q 26.515625 48.1875 22.3125 43.546875 
Q 18.109375 38.921875 18.109375 30.90625 
L 18.109375 0 
L 9.078125 0 
L 9.078125 54.6875 
L 18.109375 54.6875 
L 18.109375 46.1875 
Q 21.34375 51.125 25.703125 53.5625 
Q 30.078125 56 35.796875 56 
Q 45.21875 56 50.046875 50.171875 
Q 54.890625 44.34375 54.890625 33.015625 
z
" id="DejaVuSans-6e"/>
     <path d="M 4.890625 31.390625 
L 31.203125 31.390625 
L 31.203125 23.390625 
L 4.890625 23.390625 
z
" id="DejaVuSans-2d"/>
     <path d="M 8.6875 72.90625 
L 18.609375 72.90625 
L 18.609375 28.609375 
Q 18.609375 16.890625 22.84375 11.734375 
Q 27.09375 6.59375 36.625 6.59375 
Q 46.09375 6.59375 50.34375 11.734375 
Q 54.59375 16.890625 54.59375 28.609375 
L 54.59375 72.90625 
L 64.5 72.90625 
L 64.5 27.390625 
Q 64.5 13.140625 57.4375 5.859375 
Q 50.390625 -1.421875 36.625 -1.421875 
Q 22.796875 -1.421875 15.734375 5.859375 
Q 8.6875 13.140625 8.6875 27.390625 
z
" id="DejaVuSans-55"/>
    </defs>
    <g transform="translate(178.069687 35.472)scale(0.12 -0.12)">
     <use xlink:href="#DejaVuSans-43"/>
     <use x="69.824219" xlink:href="#DejaVuSans-68"/>
     <use x="133.203125" xlink:href="#DejaVuSans-61"/>
     <use x="194.482422" xlink:href="#DejaVuSans-6e"/>
     <use x="257.861328" xlink:href="#DejaVuSans-6e"/>
     <use x="321.240234" xlink:href="#DejaVuSans-65"/>
     <use x="382.763672" xlink:href="#DejaVuSans-6c"/>
     <use x="410.546875" xlink:href="#DejaVuSans-20"/>
     <use x="442.333984" xlink:href="#DejaVuSans-31"/>
     <use x="505.957031" xlink:href="#DejaVuSans-37"/>
     <use x="569.580078" xlink:href="#DejaVuSans-20"/>
     <use x="601.367188" xlink:href="#DejaVuSans-2d"/>
     <use x="637.451172" xlink:href="#DejaVuSans-20"/>
     <use x="669.238281" xlink:href="#DejaVuSans-55"/>
     <use x="742.431641" xlink:href="#DejaVuSans-6e"/>
     <use x="805.810547" xlink:href="#DejaVuSans-69"/>
     <use x="833.59375" xlink:href="#DejaVuSans-74"/>
     <use x="872.802734" xlink:href="#DejaVuSans-20"/>
     <use x="904.589844" xlink:href="#DejaVuSans-31"/>
    </g>
   </g>
  </g>
 </g>
 <defs>
  <clipPath id="p8775e0bfa0">
   <rect height="266.112" width="357.12" x="57.6" y="41.472"/>
  </clipPath>
 </defs>
</svg>
