<?xml version="1.0" encoding="utf-8" standalone="no"?>
<!DOCTYPE svg PUBLIC "-//W3C//DTD SVG 1.1//EN"
  "http://www.w3.org/Graphics/SVG/1.1/DTD/svg11.dtd">
<!-- Created with matplotlib (http://matplotlib.org/) -->
<svg height="797pt" version="1.1" viewBox="0 0 1329 797" width="1329pt" xmlns="http://www.w3.org/2000/svg" xmlns:xlink="http://www.w3.org/1999/xlink">
 <defs>
  <style type="text/css">
*{stroke-linecap:butt;stroke-linejoin:round;}
  </style>
 </defs>
 <g id="figure_1">
  <g id="patch_1">
   <path d="
M0 797.4
L1329.3 797.4
L1329.3 0
L0 0
z
" style="fill:#ffffff;"/>
  </g>
  <g id="axes_1">
   <g id="patch_2">
    <path d="
M166.162 369.704
L1196.37 369.704
L1196.37 79.74
L166.162 79.74
z
" style="fill:#ffffff;"/>
   </g>
   <g id="line2d_1">
    <path clip-path="url(#p015a23261b)" d="
M166.162 357.304
L166.967 284.351
L167.772 359.535
L168.577 318.915
L169.382 234.06
L170.187 251.703
L170.992 345.783
L171.796 343.371
L172.601 369.242
L173.406 331.213
L174.211 356.432
L175.016 359.436
L175.821 336.427
L176.626 318.723
L177.43 363.788
L178.235 348.086
L179.04 365.241
L179.845 364.634
L180.65 367.603
L181.455 369.132
L182.259 314.786
L183.064 163.115
L183.869 347.368
L184.674 165.725
L185.479 348.789
L186.284 342.754
L187.089 344.527
L187.893 363.032
L188.698 363.448
L189.503 364.772
L190.308 337.553
L191.113 346.875
L191.918 352.599
L192.723 369.619
L193.527 365.715
L194.332 350.858
L195.137 274.641
L195.942 269.981
L196.747 328.117
L197.552 341.116
L198.356 266.583
L199.161 362.807
L199.966 355.493
L200.771 362.964
L201.576 284.357
L202.381 264.835
L203.186 298.419
L203.99 217.839
L204.795 340.525
L205.6 352.313
L206.405 369.599
L207.21 368.35
L208.015 369.704
L208.82 364.262
L209.624 334.89
L210.429 339.373
L211.234 365.801
L212.039 339.508
L212.844 369.475
L213.649 369.659
L214.453 343.866
L215.258 331.771
L216.063 355.528
L216.868 345.879
L217.673 360.783
L218.478 344.58
L219.283 369.302
L220.087 368.928
L220.892 316.96
L221.697 362.985
L222.502 325.645
L223.307 327.18
L224.112 353.14
L224.917 347.531
L225.721 330.463
L226.526 365.457
L227.331 311.999
L228.136 350.858
L228.941 366.599
L229.746 360.315
L230.55 365.832
L231.355 321.148
L232.16 287.983
L232.965 363.762
L233.77 356.634
L234.575 292.117
L235.38 356.859
L236.184 365.727
L236.989 364.257
L237.794 369.619
L238.599 369.452
L239.404 319.731
L240.209 332.429
L241.014 369.396
L241.818 252.28
L242.623 317.096
L243.428 361.636
L244.233 368.087
L245.038 361.735
L245.843 368.526
L246.647 369.349
L247.452 358.892
L248.257 369.659
L249.062 369.703
L249.867 342.476
L251.477 368.895
L252.281 358.491
L253.086 367.789
L253.891 343.812
L254.696 359.292
L255.501 369.473
L256.306 360.266
L257.111 261.742
L257.915 311.628
L258.72 343.557
L259.525 342.436
L260.33 300.757
L261.135 366.681
L261.94 368.252
L262.744 369.113
L263.549 287.193
L264.354 369.602
L265.159 366.639
L265.964 317.158
L266.769 325.364
L267.574 346.861
L268.378 359.957
L269.183 369.442
L269.988 294.677
L270.793 347.254
L271.598 363.346
L272.403 358.615
L273.207 351.634
L274.817 342.382
L275.622 365.402
L276.427 367.567
L277.232 354.425
L278.037 367.952
L278.841 367.387
L279.646 356.929
L280.451 350.861
L281.256 367.926
L282.061 367.841
L282.866 356.029
L284.475 369.121
L285.28 356.727
L286.085 342.217
L286.89 355.914
L287.695 362.552
L288.5 329.887
L289.304 292.231
L290.109 337.53
L290.914 369.233
L291.719 348.736
L293.329 157.44
L294.134 176.269
L294.938 362.14
L295.743 369.563
L296.548 367.708
L297.353 362.069
L298.158 290.347
L298.963 369.587
L299.768 343.857
L300.572 272.506
L301.377 352.575
L302.182 322.741
L302.987 356.451
L303.792 369.226
L304.597 363.515
L306.206 268.554
L307.011 251.429
L307.816 368.321
L309.426 358.208
L310.231 367.453
L311.035 347.467
L311.84 319.389
L312.645 369.233
L313.45 369.693
L314.255 357.861
L315.06 329.878
L315.865 362.413
L316.669 368.783
L317.474 369.537
L318.279 305.812
L319.084 267.92
L319.889 245.035
L320.694 367.678
L321.498 355.974
L322.303 369.606
L323.108 369.32
L323.913 343.726
L324.718 356.891
L325.523 356.263
L326.328 368.625
L327.132 369.261
L327.937 362.746
L328.742 369.345
L329.547 365.853
L330.352 340.578
L331.157 369.158
L331.962 367.24
L332.766 362.886
L333.571 239.62
L334.376 324.799
L335.181 348.493
L335.986 349.999
L336.791 289.827
L337.595 368.122
L338.4 306.389
L339.205 305.268
L340.01 365.984
L340.815 316.874
L341.62 308.443
L342.425 272.133
L343.229 355.832
L344.034 361.6
L344.839 323.144
L345.644 244.657
L346.449 336.245
L347.254 369.054
L348.059 365.62
L349.668 292.062
L350.473 363.143
L351.278 350.852
L352.083 322.655
L352.888 348.938
L353.692 357.535
L354.497 341.852
L355.302 333.824
L356.107 352.73
L356.912 368.654
L357.717 321.062
L358.522 306.015
L359.326 369.651
L360.131 335.83
L360.936 369.651
L361.741 364.813
L362.546 280.111
L363.351 349.739
L364.156 367.373
L364.96 361.157
L365.765 271.256
L366.57 368.492
L367.375 298.127
L368.18 329.49
L368.985 202.439
L369.789 353.496
L370.594 369.702
L371.399 366.686
L372.204 355.383
L373.009 365.124
L373.814 368.877
L374.619 364.974
L375.423 333.381
L376.228 334.869
L377.033 315.954
L377.838 349.934
L378.643 355.182
L379.448 364.096
L380.252 362.498
L381.057 359.092
L381.862 337.734
L382.667 369.692
L383.472 352.751
L384.277 343.074
L385.082 367.051
L385.886 365.677
L386.691 369.019
L387.496 355.51
L388.301 367.836
L389.106 337.142
L389.911 360.442
L390.716 363.9
L391.52 369.704
L392.325 353.214
L393.13 361.214
L393.935 365.268
L394.74 356.992
L395.545 368.473
L396.349 369.644
L397.959 342.671
L398.764 369.623
L399.569 336.487
L400.374 342.095
L401.179 358.965
L401.983 318.598
L402.788 325.822
L403.593 357.555
L404.398 360.466
L405.203 357.543
L406.008 347.004
L406.813 358.945
L407.617 368.749
L408.422 360.454
L409.227 368.25
L410.032 369.644
L410.837 341.698
L411.642 369.538
L412.446 366.462
L413.251 359.975
L414.056 348.519
L414.861 327.306
L415.666 368.515
L416.471 368.144
L417.276 348.716
L418.08 364.185
L418.885 358.122
L419.69 366.029
L420.495 367.531
L421.3 247.39
L422.105 366.86
L422.91 358.705
L423.714 363.146
L424.519 369.618
L426.129 361.966
L426.934 369.637
L427.739 322.114
L428.543 367.141
L429.348 369.667
L430.153 327.65
L430.958 363.802
L431.763 366.937
L432.568 368.006
L433.373 327.639
L434.177 211.209
L434.982 361.943
L435.787 360.147
L436.592 369.67
L437.397 368.089
L438.202 354.969
L439.007 369.069
L439.811 363.584
L440.616 258.287
L441.421 369.563
L442.226 369.189
L443.031 367.974
L443.836 369.466
L444.64 351.002
L445.445 368.256
L446.25 330.256
L447.055 299.77
L447.86 356.164
L448.665 368.422
L449.47 353.979
L450.274 369.463
L451.079 368.293
L451.884 327.343
L452.689 360.094
L453.494 255.794
L454.299 367.877
L455.104 368.89
L455.908 369.678
L456.713 365.113
L457.518 357.6
L458.323 341.294
L459.128 349.46
L459.933 318.801
L460.737 347.257
L461.542 341.462
L462.347 362.134
L463.152 365.175
L463.957 367.516
L464.762 360.919
L465.567 350.537
L466.371 318.615
L467.176 369.487
L467.981 365.267
L468.786 320.201
L469.591 364.261
L470.396 362.696
L471.201 369.518
L472.005 361.484
L472.81 338.984
L473.615 367.262
L474.42 369.349
L475.225 369.404
L476.03 367.053
L476.834 369.526
L477.639 369.446
L478.444 362.288
L479.249 364.216
L480.054 362.167
L480.859 364.637
L481.664 351.947
L482.468 367.583
L483.273 365.989
L484.078 369.306
L484.883 368.521
L485.688 366.068
L486.493 368.817
L487.297 365.6
L488.102 361.261
L488.907 368.437
L489.712 368.363
L490.517 369.703
L491.322 315.363
L492.127 366.595
L492.931 315.853
L493.736 311.669
L494.541 365.463
L495.346 366.662
L496.151 365.246
L496.956 369.696
L497.761 344.972
L498.565 365.023
L499.37 342.87
L500.175 316.509
L500.98 360.829
L501.785 346.759
L502.59 343.819
L503.394 362.715
L504.199 251.235
L505.004 368.133
L505.809 341.348
L506.614 331.823
L507.419 369.687
L508.224 369.499
L509.028 369.696
L509.833 356.002
L510.638 331.347
L511.443 363.928
L512.248 328.024
L513.053 299.927
L513.858 357.296
L514.662 358.867
L515.467 338.456
L516.272 369.703
L517.077 291.585
L517.882 351.593
L518.687 313.107
L519.491 325.55
L520.296 369.324
L521.101 350.318
L521.906 313.411
L522.711 354.345
L523.516 351.01
L524.321 362.556
L525.125 282.228
L525.93 287.644
L526.735 366.938
L527.54 368.858
L528.345 369.199
L529.15 357.051
L529.955 268.293
L530.759 357.392
L531.564 263.392
L532.369 251.083
L533.174 369.426
L533.979 351.629
L534.784 318.132
L535.588 364.895
L536.393 230.063
L537.198 337.783
L538.003 325.431
L538.808 322.61
L539.613 348.329
L540.418 367.175
L541.222 369.46
L542.832 352.876
L543.637 269.891
L544.442 314.189
L545.247 337.57
L546.052 367.945
L546.856 365.323
L547.661 342.366
L548.466 351.687
L549.271 300.313
L550.076 366.039
L550.881 351.775
L551.685 356.445
L552.49 357.645
L553.295 369.019
L554.1 359.062
L554.905 368.292
L555.71 334.767
L556.515 369.467
L557.319 343.781
L558.124 333.523
L558.929 353.38
L559.734 368.483
L560.539 303.71
L561.344 369.699
L562.149 313.582
L562.953 367.644
L563.758 340.018
L565.368 367.182
L566.173 356.946
L566.978 355.096
L567.782 369.598
L568.587 224.356
L569.392 369.694
L570.197 316.912
L571.002 298.048
L571.807 363.752
L572.612 368.486
L573.416 308.374
L574.221 369.476
L575.026 306.058
L575.831 369.669
L576.636 311.602
L577.441 344.021
L578.245 345.111
L579.05 369.7
L579.855 359.866
L580.66 347.603
L581.465 355.226
L582.27 365.168
L583.075 346.286
L583.879 349.461
L584.684 360.037
L585.489 364.857
L586.294 336.499
L587.099 366.187
L587.904 365.536
L588.709 363.406
L589.513 363.662
L590.318 359.154
L591.123 367.846
L591.928 369.69
L592.733 366.142
L593.538 361.097
L594.342 369.078
L595.147 342.886
L595.952 365.712
L596.757 369.652
L597.562 347.372
L598.367 368.252
L599.172 346.191
L599.976 345.746
L600.781 346.582
L601.586 360.223
L602.391 343.381
L603.196 369.305
L604.001 360.294
L604.806 349.445
L605.61 363.054
L606.415 362.428
L607.22 354.395
L608.025 288.435
L608.83 368.716
L609.635 360.63
L610.439 368.472
L611.244 369.358
L612.049 367.889
L612.854 369.702
L613.659 311.419
L614.464 369.519
L615.269 352.492
L616.073 369.588
L616.878 348.948
L617.683 369.15
L618.488 366.727
L619.293 363.481
L620.098 320.141
L620.903 368.777
L621.707 366.531
L622.512 369.697
L624.122 369.35
L624.927 369.379
L625.732 364.95
L626.536 348.768
L627.341 366.432
L628.951 351.217
L629.756 369.403
L630.561 351.777
L631.366 339.965
L632.17 356.441
L632.975 309.846
L633.78 358.888
L634.585 352.798
L635.39 360.084
L636.195 369.567
L637 362.721
L637.804 367.481
L638.609 353.865
L639.414 329.762
L640.219 350.469
L641.024 350.557
L641.829 348.59
L642.633 365.811
L643.438 364.911
L644.243 357.553
L645.048 283.793
L645.853 257.238
L646.658 369.331
L647.463 346.671
L648.267 298.016
L649.072 345.474
L649.877 367.689
L650.682 361.901
L651.487 353.88
L652.292 355.255
L653.097 360.324
L653.901 357.661
L654.706 328.902
L655.511 345.618
L656.316 332.756
L657.121 369.517
L657.926 327.488
L658.73 240.025
L659.535 318.898
L660.34 368.925
L661.145 361.642
L661.95 361.977
L662.755 355.348
L663.56 362.894
L664.364 361.879
L665.169 356.827
L665.974 289.179
L666.779 367.136
L667.584 369.418
L668.389 369.499
L669.194 345.248
L669.998 297.259
L670.803 354.068
L671.608 354.551
L672.413 284.604
L673.218 366.345
L674.023 366.045
L674.827 369.339
L675.632 369.512
L676.437 366.422
L677.242 368.128
L678.047 367.09
L678.852 361.689
L679.657 366.727
L680.461 349.356
L681.266 340.6
L682.071 355.049
L682.876 336.067
L683.681 362.734
L684.486 369.376
L685.29 337.012
L686.095 361.85
L686.9 368.58
L687.705 367.006
L688.51 369.501
L689.315 348.326
L690.12 352.977
L690.924 367.93
L691.729 294.908
L692.534 360.74
L693.339 368.49
L694.144 367.487
L694.949 367.691
L695.754 359.858
L696.558 364.221
L697.363 338.418
L698.168 347.66
L698.973 362.174
L699.778 357.08
L700.583 369.272
L701.387 325.718
L702.192 350.463
L702.997 290.33
L703.802 326.17
L704.607 369.206
L705.412 352.365
L706.217 348.54
L707.021 328.23
L707.826 369.068
L708.631 369.676
L710.241 358.2
L711.046 329.995
L711.851 364.81
L712.655 367.866
L713.46 369.647
L714.265 355.884
L715.07 366.364
L715.875 364.401
L716.68 273.09
L717.484 355.138
L718.289 356.832
L719.094 369.429
L719.899 357.333
L720.704 366.879
L721.509 369.596
L722.314 348.974
L723.118 352.521
L723.923 344.119
L724.728 297.369
L725.533 358.397
L726.338 367.817
L727.143 369.391
L727.948 369.545
L728.752 364.441
L729.557 366.567
L730.362 364.504
L731.167 361.397
L731.972 353.529
L732.777 361.782
L733.581 365.898
L734.386 368.795
L735.191 368.037
L735.996 334.521
L736.801 356.883
L737.606 351.72
L738.411 334.884
L739.215 339.572
L740.02 362.243
L740.825 362.272
L741.63 365.775
L742.435 358.13
L743.24 309.282
L744.045 362.4
L744.849 367.069
L745.654 356.877
L746.459 369.264
L747.264 369.515
L748.069 366.469
L748.874 367.513
L749.678 301.58
L750.483 322.838
L751.288 311.543
L752.093 362.964
L752.898 368.502
L753.703 367.658
L754.508 369.418
L755.312 368.124
L756.117 293.802
L756.922 353.114
L757.727 367.744
L758.532 368.686
L759.337 356.251
L760.142 346.309
L760.946 366.011
L761.751 351.699
L762.556 360.941
L763.361 364.267
L764.166 280.104
L764.971 281.445
L765.775 362.094
L766.58 367.819
L767.385 367.029
L768.19 350.996
L768.995 312.779
L769.8 342.773
L770.605 348.889
L771.409 360.569
L772.214 345.887
L773.019 350.494
L773.824 351.843
L774.629 349.399
L775.434 316.885
L776.239 347.794
L777.043 293.263
L777.848 364.293
L778.653 346.754
L779.458 363.013
L780.263 351.944
L781.068 299.688
L781.872 361.883
L782.677 368.321
L783.482 363.285
L784.287 366.169
L785.092 369.704
L785.897 342.103
L786.702 364.763
L787.506 342.074
L789.116 369.686
L789.921 364.664
L790.726 366.155
L791.531 364.731
L792.335 368.666
L793.14 361.108
L793.945 369.569
L794.75 324.027
L795.555 367.114
L796.36 368.607
L797.165 354.954
L797.969 366.729
L798.774 321.321
L799.579 348.813
L800.384 367.098
L801.189 325.381
L801.994 332.404
L802.799 363.164
L803.603 369.67
L804.408 347.975
L805.213 337.896
L806.018 313.08
L806.823 355.243
L807.628 369.463
L808.432 369.005
L809.237 348.608
L810.042 366.515
L810.847 368.572
L811.652 369.147
L812.457 364.666
L813.262 356.69
L814.066 355.123
L814.871 350.716
L815.676 268.842
L816.481 357.63
L817.286 337.892
L818.091 347.619
L818.896 348.286
L819.7 352.815
L820.505 369.592
L821.31 337.406
L822.115 312.747
L822.92 368.149
L823.725 350.604
L824.529 327.859
L825.334 337.719
L826.139 366.358
L826.944 354.992
L827.749 362.519
L828.554 282.069
L829.359 346.022
L830.163 365.384
L830.968 368.119
L831.773 361.56
L832.578 356.744
L833.383 366.911
L834.188 362.529
L834.993 243.838
L835.797 369.259
L836.602 358.634
L837.407 349.816
L838.212 346.593
L839.017 341.736
L839.822 369.304
L840.626 322.45
L841.431 352.233
L842.236 361.6
L843.041 329.418
L843.846 366.712
L844.651 366.733
L845.456 333.065
L846.26 369.687
L847.065 323.009
L847.87 334.928
L848.675 342.526
L849.48 360.794
L850.285 369.693
L851.09 340.234
L851.894 208.904
L852.699 368.933
L853.504 322.66
L854.309 285.186
L855.114 368.013
L855.919 365.206
L856.723 294.932
L857.528 325.564
L859.138 369.703
L859.943 368.59
L860.748 106.646
L861.553 360.925
L862.357 355.6
L863.162 369.207
L863.967 369.374
L864.772 364.361
L865.577 368.428
L866.382 366.034
L867.187 361.423
L867.991 369.692
L868.796 369.55
L869.601 328.119
L870.406 368.213
L871.211 350.609
L872.016 364.595
L872.82 332.257
L874.43 364.785
L875.235 342.341
L876.04 360.847
L876.845 315.315
L877.65 320.296
L878.454 369.543
L879.259 353.865
L880.064 334.635
L880.869 365.621
L881.674 352.178
L882.479 336.205
L883.284 334.872
L884.088 368.927
L884.893 333.233
L885.698 369.612
L886.503 368.396
L887.308 359.225
L888.113 365.205
L888.917 348.379
L889.722 353.266
L890.527 287.203
L891.332 368.877
L892.137 360.823
L892.942 325.01
L893.747 369.385
L894.551 367.894
L895.356 349.173
L896.161 363.276
L896.966 369.408
L897.771 368.662
L898.576 369.284
L899.38 367.735
L900.185 343.705
L900.99 369.495
L901.795 368.884
L902.6 367.688
L903.405 283.879
L904.21 368.277
L905.014 363.35
L905.819 286.132
L906.624 352.739
L907.429 362.922
L908.234 364.504
L909.039 369.686
L909.844 308.755
L910.648 365.066
L911.453 297.394
L912.258 303.436
L913.063 349.633
L913.868 366.149
L914.673 369.549
L915.477 367.133
L916.282 297.7
L917.087 368.038
L917.892 270.521
L918.697 262.607
L919.502 359.838
L920.307 336.845
L921.111 356.461
L921.916 354.821
L922.721 331.213
L923.526 369.289
L924.331 363.984
L925.136 314.608
L925.941 363.232
L926.745 362.092
L927.55 368.23
L928.355 361.904
L929.16 339.685
L929.965 369.21
L930.77 369.219
L931.574 298.077
L932.379 340.227
L933.184 368.806
L933.989 363.106
L934.794 355.858
L935.599 327.413
L936.404 369.593
L937.208 357.636
L938.013 334.595
L938.818 367.155
L939.623 369.436
L940.428 362.601
L941.233 306.008
L942.842 352.128
L943.647 329.807
L944.452 323.535
L945.257 348.686
L946.062 363.349
L946.867 362.535
L947.671 365.591
L948.476 326.349
L949.281 369.618
L950.086 297.401
L950.891 249.233
L951.696 366.861
L952.501 356.934
L953.305 359.302
L954.11 351.577
L954.915 345.72
L955.72 368.774
L956.525 365.379
L957.33 357.776
L958.135 365.768
L958.939 368.753
L959.744 369.359
L960.549 347.917
L961.354 276.639
L962.159 352.931
L962.964 354.807
L963.768 299.013
L964.573 369.642
L965.378 332.009
L966.183 362.391
L966.988 350.006
L967.793 326.259
L968.598 369.696
L969.402 364.874
L970.207 368.014
L971.817 366.455
L972.622 360.223
L973.427 365.975
L974.232 341.893
L975.036 369.233
L975.841 338.559
L976.646 240.801
L977.451 352.94
L978.256 362.937
L979.061 359.9
L979.865 359.997
L981.475 337.08
L982.28 362.175
L983.085 236.233
L983.89 349.069
L984.695 341.379
L985.499 299.014
L986.304 357.844
L987.109 326.181
L987.914 366.698
L988.719 367.469
L989.524 366.982
L990.329 362.816
L991.938 326.356
L992.743 294.45
L993.548 335.503
L994.353 353.058
L995.158 361.519
L995.962 364.161
L996.767 369.159
L998.377 355.19
L999.182 354.48
L999.987 369.636
L1000.79 355.887
L1001.6 369.445
L1002.4 306.77
L1003.21 368.483
L1004.01 369.703
L1004.82 368.23
L1005.62 369.677
L1006.43 368.145
L1007.23 369.6
L1008.04 350.627
L1008.84 368.9
L1009.64 359.131
L1010.45 367.826
L1011.25 365.847
L1012.06 367.11
L1012.86 297.896
L1013.67 368.231
L1014.47 349.746
L1015.28 357.787
L1016.08 368.807
L1016.89 358.865
L1017.69 334.771
L1018.5 357.713
L1019.3 354.494
L1020.11 365.461
L1020.91 369.451
L1021.72 360.691
L1022.52 354.852
L1023.33 351.571
L1024.13 368.228
L1024.94 367.315
L1025.74 362.06
L1026.55 369.264
L1027.35 369.072
L1028.16 358.538
L1028.96 366.276
L1029.77 363.679
L1030.57 365.01
L1031.38 364.244
L1032.18 362.014
L1032.99 365.238
L1033.79 367.508
L1034.6 306.075
L1035.4 344.879
L1036.2 368.112
L1037.01 369.528
L1037.81 366.903
L1038.62 362.71
L1039.42 366.861
L1040.23 367.867
L1041.03 339.016
L1041.84 331.867
L1042.64 365.948
L1043.45 360.414
L1044.25 361.304
L1045.06 365.962
L1045.86 368.936
L1046.67 362.997
L1047.47 328.715
L1048.28 339.767
L1049.08 369.703
L1049.89 364.744
L1050.69 363.616
L1051.5 356.653
L1052.3 359.88
L1053.11 368.211
L1053.91 365.021
L1054.72 363.027
L1055.52 364.493
L1056.33 367.158
L1057.13 359.356
L1057.94 366.217
L1058.74 367.56
L1059.55 364.963
L1060.35 306.981
L1061.16 368.259
L1061.96 368.682
L1062.76 369.614
L1063.57 348.343
L1064.37 363.259
L1065.18 335.623
L1065.98 365.355
L1066.79 369.49
L1067.59 369.042
L1068.4 366.032
L1069.2 369.701
L1070.01 368.789
L1070.81 364.866
L1071.62 339.938
L1072.42 369.021
L1073.23 368.815
L1074.03 365.567
L1074.84 355.902
L1075.64 369.043
L1076.45 355.233
L1077.25 368.88
L1078.06 369.672
L1078.86 369.474
L1079.67 368.793
L1080.47 360.999
L1081.28 361.961
L1082.08 348.334
L1082.89 369.631
L1083.69 146.264
L1084.5 364.473
L1085.3 347.679
L1086.11 364.738
L1086.91 365.306
L1087.72 369.268
L1088.52 358.105
L1089.33 338.199
L1090.13 347.495
L1090.93 362.249
L1091.74 359.163
L1092.54 339.391
L1093.35 369.704
L1094.15 369.246
L1094.96 367.642
L1095.76 365.127
L1096.57 369.704
L1097.37 369.62
L1098.18 361.547
L1098.98 369.566
L1099.79 350.288
L1100.59 363.727
L1101.4 369.642
L1102.2 362.526
L1103.01 368.738
L1103.81 340.851
L1104.62 348.399
L1105.42 367.02
L1106.23 359.212
L1107.03 366.969
L1107.84 366.729
L1108.64 366.618
L1109.45 326.522
L1110.25 367.704
L1111.06 364.968
L1111.86 317.911
L1112.67 369.091
L1113.47 368.947
L1114.28 369.682
L1115.08 367.171
L1115.89 356.975
L1116.69 354.747
L1117.49 349.988
L1118.3 337.46
L1119.1 369.405
L1119.91 364.369
L1120.71 363.674
L1121.52 369.524
L1122.32 297.448
L1123.13 366.088
L1123.93 369.348
L1124.74 313.912
L1125.54 366.004
L1126.35 369.593
L1127.15 365.161
L1127.96 364.204
L1128.76 355.81
L1129.57 367.416
L1130.37 368.002
L1131.18 334.511
L1131.98 369.703
L1132.79 367.835
L1133.59 369.625
L1134.4 365.783
L1135.2 298.44
L1136.01 365.38
L1136.81 363.229
L1137.62 352.134
L1138.42 368.387
L1139.23 367.018
L1140.03 369.533
L1140.84 369.648
L1141.64 265.027
L1142.45 362.115
L1143.25 350.787
L1144.05 281.8
L1144.86 367.903
L1145.66 364.223
L1146.47 366.944
L1147.27 368.01
L1148.08 308.748
L1148.88 351.847
L1149.69 364.061
L1150.49 255.436
L1151.3 368.565
L1152.1 369.654
L1152.91 364.069
L1153.71 363.035
L1154.52 268.027
L1155.32 369.503
L1156.13 364.094
L1156.93 355.832
L1157.74 367.654
L1158.54 368.367
L1159.35 369.681
L1160.15 367.752
L1160.96 335.854
L1161.76 347.766
L1162.57 367.986
L1163.37 340.167
L1164.18 359.659
L1164.98 369.701
L1165.79 336.505
L1166.59 364.601
L1167.4 335.151
L1168.2 369.587
L1169.01 368.526
L1169.81 338.283
L1170.61 363.753
L1171.42 367.78
L1172.22 316.148
L1173.03 368.682
L1173.83 292.502
L1174.64 367.272
L1175.44 361.126
L1176.25 338.819
L1177.05 366.231
L1177.86 367.602
L1178.66 350.469
L1179.47 357.866
L1180.27 319.379
L1181.08 369.699
L1181.88 364.34
L1182.69 369.509
L1183.49 351.646
L1184.3 329.626
L1185.1 327.738
L1185.91 324.684
L1187.52 369.702
L1188.32 369.391
L1189.13 360.969
L1190.74 368.155
L1191.54 369.049
L1192.35 364.164
L1193.15 277.291
L1193.96 334.465
L1194.76 327.321
L1195.57 310.592
L1195.57 310.592" style="fill:none;stroke:#0000ff;stroke-linecap:square;"/>
   </g>
   <g id="line2d_2">
    <path clip-path="url(#p015a23261b)" d="
M223.307 327.18
L1109.45 326.522
L948.476 326.349
L967.793 326.259
L987.109 326.181
L703.802 326.17
L402.788 325.822
L701.387 325.718
L222.502 325.645
L857.528 325.564
L519.491 325.55
L538.003 325.431
L801.189 325.381
L266.769 325.364
L892.942 325.01
L334.376 324.799
L1185.91 324.684
L794.75 324.027
L944.452 323.535
L344.839 323.144
L847.065 323.009
L750.483 322.838
L302.182 322.741
L853.504 322.66
L538.808 322.61
L840.626 322.45
L427.739 322.114
L798.774 321.321
L231.355 321.148
L357.717 321.062
L877.65 320.296
L468.786 320.201
L620.098 320.141
L239.404 319.731
L311.84 319.389
L1180.27 319.379
L168.577 318.915
L659.535 318.898
L459.933 318.801
L176.626 318.723
L305.401 318.667
L466.371 318.615
L401.983 318.598
L534.784 318.132
L1111.86 317.911
L242.623 317.096
L220.892 316.96
L775.434 316.885
L340.815 316.874
L500.175 316.509
L1172.22 316.148
L377.033 315.954
L492.931 315.853
L491.322 315.363
L876.845 315.315
L182.259 314.786
L925.136 314.608
L544.442 314.189
L1124.74 313.912
L562.149 313.582
L521.906 313.411
L518.687 313.107
L806.018 313.08
L768.995 312.779
L822.115 312.747
L227.331 311.999
L493.736 311.669
L257.915 311.628
L257.915 311.628
L257.915 311.628
L751.288 311.543
L613.659 311.419
L1195.57 310.592
L632.975 309.846
L743.24 309.282
L909.844 308.755
L1148.08 308.748
L341.62 308.443
L573.416 308.374
L1060.35 306.981
L1002.4 306.77
L338.4 306.389
L1034.6 306.075
L358.522 306.015
L941.233 306.008
L318.279 305.812
L339.205 305.268
L560.539 303.71
L912.258 303.436
L749.678 301.58
L260.33 300.757
L549.271 300.313
L513.053 299.927
L447.055 299.77
L781.068 299.688
L1135.2 298.44
L203.186 298.419
L367.375 298.127
L931.574 298.077
L648.267 298.016
L1012.86 297.896
L916.282 297.7
L1122.32 297.448
L669.998 297.259
L856.723 294.932
L691.729 294.908
L269.988 294.677
L992.743 294.45
L756.117 293.802
L777.043 293.263
L1173.83 292.502
L234.575 292.117
L349.668 292.062
L517.077 291.585
L298.158 290.347
L702.997 290.33
L336.791 289.827
L665.974 289.179
L608.025 288.435
L232.16 287.983
L890.527 287.203
L263.549 287.193
L905.819 286.132
L854.309 285.186
L672.413 284.604
L166.967 284.351
L903.405 283.879
L645.048 283.793
L525.125 282.228
L1144.05 281.8
L764.971 281.445
L362.546 280.111
L764.166 280.104
L1193.15 277.291
L961.354 276.639
L195.137 274.641
L716.68 273.09
L300.572 272.506
L342.425 272.133
L365.765 271.256
L917.892 270.521
L195.942 269.981
L543.637 269.891
L815.676 268.842
L306.206 268.554
L529.955 268.293
L1154.52 268.027
L319.084 267.92
L198.356 266.583
L1141.64 265.027
L202.381 264.835
L531.564 263.392
L918.697 262.607
L257.111 261.742
L440.616 258.287
L292.524 257.691
L645.853 257.238
L453.494 255.794
L1150.49 255.436
L241.818 252.28
L170.187 251.703
L307.011 251.429
L504.199 251.235
L532.369 251.083
L950.891 249.233
L421.3 247.39
L319.889 245.035
L345.644 244.657
L834.993 243.838
L976.646 240.801
L658.73 240.025
L333.571 239.62
L983.085 236.233
L169.382 234.06
L536.393 230.063
L568.587 224.356
L203.99 217.839
L434.177 211.209
L851.894 208.904
L368.985 202.439
L294.134 176.269
L184.674 165.725
L183.064 163.115
L293.329 157.44
L1083.69 146.264
L860.748 106.646
L860.748 106.646" style="fill:none;"/>
    <defs>
     <path d="
M1.83697e-16 -3
L-0.673542 -0.927051
L-2.85317 -0.927051
L-1.08981 0.354102
L-1.76336 2.42705
L-2.10498e-16 1.1459
L1.76336 2.42705
L1.08981 0.354102
L2.85317 -0.927051
L0.673542 -0.927051
z
" id="m022dab9c71" style="stroke:#000000;stroke-linejoin:bevel;stroke-width:0.5;"/>
    </defs>
    <g clip-path="url(#p015a23261b)">
     <use style="fill:#bf00bf;stroke:#000000;stroke-linejoin:bevel;stroke-width:0.5;" x="223.306822266" xlink:href="#m022dab9c71" y="327.180243731"/>
     <use style="fill:#bf00bf;stroke:#000000;stroke-linejoin:bevel;stroke-width:0.5;" x="1109.44624219" xlink:href="#m022dab9c71" y="326.522095644"/>
     <use style="fill:#bf00bf;stroke:#000000;stroke-linejoin:bevel;stroke-width:0.5;" x="991.938199219" xlink:href="#m022dab9c71" y="326.355609983"/>
     <use style="fill:#bf00bf;stroke:#000000;stroke-linejoin:bevel;stroke-width:0.5;" x="948.476320313" xlink:href="#m022dab9c71" y="326.348670826"/>
     <use style="fill:#bf00bf;stroke:#000000;stroke-linejoin:bevel;stroke-width:0.5;" x="967.792710938" xlink:href="#m022dab9c71" y="326.259128062"/>
     <use style="fill:#bf00bf;stroke:#000000;stroke-linejoin:bevel;stroke-width:0.5;" x="987.109101563" xlink:href="#m022dab9c71" y="326.180710738"/>
     <use style="fill:#bf00bf;stroke:#000000;stroke-linejoin:bevel;stroke-width:0.5;" x="703.802039063" xlink:href="#m022dab9c71" y="326.169786579"/>
     <use style="fill:#bf00bf;stroke:#000000;stroke-linejoin:bevel;stroke-width:0.5;" x="402.788285156" xlink:href="#m022dab9c71" y="325.821595755"/>
     <use style="fill:#bf00bf;stroke:#000000;stroke-linejoin:bevel;stroke-width:0.5;" x="701.387490234" xlink:href="#m022dab9c71" y="325.718279419"/>
     <use style="fill:#bf00bf;stroke:#000000;stroke-linejoin:bevel;stroke-width:0.5;" x="222.501972656" xlink:href="#m022dab9c71" y="325.64479128"/>
     <use style="fill:#bf00bf;stroke:#000000;stroke-linejoin:bevel;stroke-width:0.5;" x="857.528314453" xlink:href="#m022dab9c71" y="325.564336194"/>
     <use style="fill:#bf00bf;stroke:#000000;stroke-linejoin:bevel;stroke-width:0.5;" x="519.491478516" xlink:href="#m022dab9c71" y="325.549840289"/>
     <use style="fill:#bf00bf;stroke:#000000;stroke-linejoin:bevel;stroke-width:0.5;" x="538.003019531" xlink:href="#m022dab9c71" y="325.431089366"/>
     <use style="fill:#bf00bf;stroke:#000000;stroke-linejoin:bevel;stroke-width:0.5;" x="801.188841797" xlink:href="#m022dab9c71" y="325.381479684"/>
     <use style="fill:#bf00bf;stroke:#000000;stroke-linejoin:bevel;stroke-width:0.5;" x="266.768701172" xlink:href="#m022dab9c71" y="325.364141682"/>
     <use style="fill:#bf00bf;stroke:#000000;stroke-linejoin:bevel;stroke-width:0.5;" x="892.941697266" xlink:href="#m022dab9c71" y="325.009537487"/>
     <use style="fill:#bf00bf;stroke:#000000;stroke-linejoin:bevel;stroke-width:0.5;" x="334.376068359" xlink:href="#m022dab9c71" y="324.798951556"/>
     <use style="fill:#bf00bf;stroke:#000000;stroke-linejoin:bevel;stroke-width:0.5;" x="1185.90695508" xlink:href="#m022dab9c71" y="324.684348813"/>
     <use style="fill:#bf00bf;stroke:#000000;stroke-linejoin:bevel;stroke-width:0.5;" x="794.750044922" xlink:href="#m022dab9c71" y="324.026717947"/>
     <use style="fill:#bf00bf;stroke:#000000;stroke-linejoin:bevel;stroke-width:0.5;" x="944.452072266" xlink:href="#m022dab9c71" y="323.534987247"/>
     <use style="fill:#bf00bf;stroke:#000000;stroke-linejoin:bevel;stroke-width:0.5;" x="344.839113281" xlink:href="#m022dab9c71" y="323.143836412"/>
     <use style="fill:#bf00bf;stroke:#000000;stroke-linejoin:bevel;stroke-width:0.5;" x="847.065269531" xlink:href="#m022dab9c71" y="323.008527861"/>
     <use style="fill:#bf00bf;stroke:#000000;stroke-linejoin:bevel;stroke-width:0.5;" x="750.483316406" xlink:href="#m022dab9c71" y="322.837897524"/>
     <use style="fill:#bf00bf;stroke:#000000;stroke-linejoin:bevel;stroke-width:0.5;" x="302.182083984" xlink:href="#m022dab9c71" y="322.741023714"/>
     <use style="fill:#bf00bf;stroke:#000000;stroke-linejoin:bevel;stroke-width:0.5;" x="853.504066406" xlink:href="#m022dab9c71" y="322.659612139"/>
     <use style="fill:#bf00bf;stroke:#000000;stroke-linejoin:bevel;stroke-width:0.5;" x="352.082759766" xlink:href="#m022dab9c71" y="322.654911446"/>
     <use style="fill:#bf00bf;stroke:#000000;stroke-linejoin:bevel;stroke-width:0.5;" x="538.807869141" xlink:href="#m022dab9c71" y="322.610381939"/>
     <use style="fill:#bf00bf;stroke:#000000;stroke-linejoin:bevel;stroke-width:0.5;" x="840.626472656" xlink:href="#m022dab9c71" y="322.450300885"/>
     <use style="fill:#bf00bf;stroke:#000000;stroke-linejoin:bevel;stroke-width:0.5;" x="427.738623047" xlink:href="#m022dab9c71" y="322.114202811"/>
     <use style="fill:#bf00bf;stroke:#000000;stroke-linejoin:bevel;stroke-width:0.5;" x="798.774292969" xlink:href="#m022dab9c71" y="321.320685978"/>
     <use style="fill:#bf00bf;stroke:#000000;stroke-linejoin:bevel;stroke-width:0.5;" x="231.355318359" xlink:href="#m022dab9c71" y="321.147521685"/>
     <use style="fill:#bf00bf;stroke:#000000;stroke-linejoin:bevel;stroke-width:0.5;" x="357.716707031" xlink:href="#m022dab9c71" y="321.061623576"/>
     <use style="fill:#bf00bf;stroke:#000000;stroke-linejoin:bevel;stroke-width:0.5;" x="877.649554688" xlink:href="#m022dab9c71" y="320.296030244"/>
     <use style="fill:#bf00bf;stroke:#000000;stroke-linejoin:bevel;stroke-width:0.5;" x="468.785953125" xlink:href="#m022dab9c71" y="320.201191411"/>
     <use style="fill:#bf00bf;stroke:#000000;stroke-linejoin:bevel;stroke-width:0.5;" x="620.097679687" xlink:href="#m022dab9c71" y="320.14101564"/>
     <use style="fill:#bf00bf;stroke:#000000;stroke-linejoin:bevel;stroke-width:0.5;" x="239.403814453" xlink:href="#m022dab9c71" y="319.731474534"/>
     <use style="fill:#bf00bf;stroke:#000000;stroke-linejoin:bevel;stroke-width:0.5;" x="311.840279297" xlink:href="#m022dab9c71" y="319.38942417"/>
     <use style="fill:#bf00bf;stroke:#000000;stroke-linejoin:bevel;stroke-width:0.5;" x="1180.27300781" xlink:href="#m022dab9c71" y="319.3785263"/>
     <use style="fill:#bf00bf;stroke:#000000;stroke-linejoin:bevel;stroke-width:0.5;" x="168.577048828" xlink:href="#m022dab9c71" y="318.914869527"/>
     <use style="fill:#bf00bf;stroke:#000000;stroke-linejoin:bevel;stroke-width:0.5;" x="659.535310547" xlink:href="#m022dab9c71" y="318.89809438"/>
     <use style="fill:#bf00bf;stroke:#000000;stroke-linejoin:bevel;stroke-width:0.5;" x="459.932607422" xlink:href="#m022dab9c71" y="318.800776105"/>
     <use style="fill:#bf00bf;stroke:#000000;stroke-linejoin:bevel;stroke-width:0.5;" x="176.625544922" xlink:href="#m022dab9c71" y="318.722770616"/>
     <use style="fill:#bf00bf;stroke:#000000;stroke-linejoin:bevel;stroke-width:0.5;" x="305.401482422" xlink:href="#m022dab9c71" y="318.666611395"/>
     <use style="fill:#bf00bf;stroke:#000000;stroke-linejoin:bevel;stroke-width:0.5;" x="466.371404297" xlink:href="#m022dab9c71" y="318.615017799"/>
     <use style="fill:#bf00bf;stroke:#000000;stroke-linejoin:bevel;stroke-width:0.5;" x="401.983435547" xlink:href="#m022dab9c71" y="318.597807111"/>
     <use style="fill:#bf00bf;stroke:#000000;stroke-linejoin:bevel;stroke-width:0.5;" x="534.783621094" xlink:href="#m022dab9c71" y="318.132102923"/>
     <use style="fill:#bf00bf;stroke:#000000;stroke-linejoin:bevel;stroke-width:0.5;" x="1111.86079102" xlink:href="#m022dab9c71" y="317.911342417"/>
     <use style="fill:#bf00bf;stroke:#000000;stroke-linejoin:bevel;stroke-width:0.5;" x="265.963851562" xlink:href="#m022dab9c71" y="317.158367394"/>
     <use style="fill:#bf00bf;stroke:#000000;stroke-linejoin:bevel;stroke-width:0.5;" x="242.623212891" xlink:href="#m022dab9c71" y="317.09559626"/>
     <use style="fill:#bf00bf;stroke:#000000;stroke-linejoin:bevel;stroke-width:0.5;" x="220.892273437" xlink:href="#m022dab9c71" y="316.959699719"/>
     <use style="fill:#bf00bf;stroke:#000000;stroke-linejoin:bevel;stroke-width:0.5;" x="570.197003906" xlink:href="#m022dab9c71" y="316.912022591"/>
     <use style="fill:#bf00bf;stroke:#000000;stroke-linejoin:bevel;stroke-width:0.5;" x="775.433654297" xlink:href="#m022dab9c71" y="316.884596789"/>
     <use style="fill:#bf00bf;stroke:#000000;stroke-linejoin:bevel;stroke-width:0.5;" x="340.814865234" xlink:href="#m022dab9c71" y="316.873687934"/>
     <use style="fill:#bf00bf;stroke:#000000;stroke-linejoin:bevel;stroke-width:0.5;" x="500.175087891" xlink:href="#m022dab9c71" y="316.508575914"/>
     <use style="fill:#bf00bf;stroke:#000000;stroke-linejoin:bevel;stroke-width:0.5;" x="1172.22451172" xlink:href="#m022dab9c71" y="316.148276069"/>
     <use style="fill:#bf00bf;stroke:#000000;stroke-linejoin:bevel;stroke-width:0.5;" x="377.033097656" xlink:href="#m022dab9c71" y="315.954032685"/>
     <use style="fill:#bf00bf;stroke:#000000;stroke-linejoin:bevel;stroke-width:0.5;" x="492.931441406" xlink:href="#m022dab9c71" y="315.853415564"/>
     <use style="fill:#bf00bf;stroke:#000000;stroke-linejoin:bevel;stroke-width:0.5;" x="491.321742188" xlink:href="#m022dab9c71" y="315.36347131"/>
     <use style="fill:#bf00bf;stroke:#000000;stroke-linejoin:bevel;stroke-width:0.5;" x="876.844705078" xlink:href="#m022dab9c71" y="315.315006242"/>
     <use style="fill:#bf00bf;stroke:#000000;stroke-linejoin:bevel;stroke-width:0.5;" x="182.259492188" xlink:href="#m022dab9c71" y="314.785712502"/>
     <use style="fill:#bf00bf;stroke:#000000;stroke-linejoin:bevel;stroke-width:0.5;" x="925.135681641" xlink:href="#m022dab9c71" y="314.60842078"/>
     <use style="fill:#bf00bf;stroke:#000000;stroke-linejoin:bevel;stroke-width:0.5;" x="544.441816406" xlink:href="#m022dab9c71" y="314.188868935"/>
     <use style="fill:#bf00bf;stroke:#000000;stroke-linejoin:bevel;stroke-width:0.5;" x="1124.73838477" xlink:href="#m022dab9c71" y="313.9118131"/>
     <use style="fill:#bf00bf;stroke:#000000;stroke-linejoin:bevel;stroke-width:0.5;" x="562.148507813" xlink:href="#m022dab9c71" y="313.581620567"/>
     <use style="fill:#bf00bf;stroke:#000000;stroke-linejoin:bevel;stroke-width:0.5;" x="521.906027344" xlink:href="#m022dab9c71" y="313.410597819"/>
     <use style="fill:#bf00bf;stroke:#000000;stroke-linejoin:bevel;stroke-width:0.5;" x="518.686628906" xlink:href="#m022dab9c71" y="313.107162963"/>
     <use style="fill:#bf00bf;stroke:#000000;stroke-linejoin:bevel;stroke-width:0.5;" x="806.017939453" xlink:href="#m022dab9c71" y="313.079519019"/>
     <use style="fill:#bf00bf;stroke:#000000;stroke-linejoin:bevel;stroke-width:0.5;" x="768.994857422" xlink:href="#m022dab9c71" y="312.778884205"/>
     <use style="fill:#bf00bf;stroke:#000000;stroke-linejoin:bevel;stroke-width:0.5;" x="822.114931641" xlink:href="#m022dab9c71" y="312.746574357"/>
     <use style="fill:#bf00bf;stroke:#000000;stroke-linejoin:bevel;stroke-width:0.5;" x="227.331070313" xlink:href="#m022dab9c71" y="311.999315237"/>
     <use style="fill:#bf00bf;stroke:#000000;stroke-linejoin:bevel;stroke-width:0.5;" x="493.736291016" xlink:href="#m022dab9c71" y="311.668907846"/>
     <use style="fill:#bf00bf;stroke:#000000;stroke-linejoin:bevel;stroke-width:0.5;" x="257.915355469" xlink:href="#m022dab9c71" y="311.627598985"/>
     <use style="fill:#bf00bf;stroke:#000000;stroke-linejoin:bevel;stroke-width:0.5;" x="576.635800781" xlink:href="#m022dab9c71" y="311.602047787"/>
     <use style="fill:#bf00bf;stroke:#000000;stroke-linejoin:bevel;stroke-width:0.5;" x="751.288166016" xlink:href="#m022dab9c71" y="311.542584576"/>
     <use style="fill:#bf00bf;stroke:#000000;stroke-linejoin:bevel;stroke-width:0.5;" x="613.658882812" xlink:href="#m022dab9c71" y="311.419310387"/>
     <use style="fill:#bf00bf;stroke:#000000;stroke-linejoin:bevel;stroke-width:0.5;" x="1195.56515039" xlink:href="#m022dab9c71" y="310.592422656"/>
     <use style="fill:#bf00bf;stroke:#000000;stroke-linejoin:bevel;stroke-width:0.5;" x="632.975273438" xlink:href="#m022dab9c71" y="309.846037943"/>
     <use style="fill:#bf00bf;stroke:#000000;stroke-linejoin:bevel;stroke-width:0.5;" x="743.239669922" xlink:href="#m022dab9c71" y="309.281530785"/>
     <use style="fill:#bf00bf;stroke:#000000;stroke-linejoin:bevel;stroke-width:0.5;" x="909.843539063" xlink:href="#m022dab9c71" y="308.755006862"/>
     <use style="fill:#bf00bf;stroke:#000000;stroke-linejoin:bevel;stroke-width:0.5;" x="1148.07902344" xlink:href="#m022dab9c71" y="308.748211735"/>
     <use style="fill:#bf00bf;stroke:#000000;stroke-linejoin:bevel;stroke-width:0.5;" x="341.619714844" xlink:href="#m022dab9c71" y="308.443147751"/>
     <use style="fill:#bf00bf;stroke:#000000;stroke-linejoin:bevel;stroke-width:0.5;" x="573.416402344" xlink:href="#m022dab9c71" y="308.373518027"/>
     <use style="fill:#bf00bf;stroke:#000000;stroke-linejoin:bevel;stroke-width:0.5;" x="1060.35041602" xlink:href="#m022dab9c71" y="306.981015872"/>
     <use style="fill:#bf00bf;stroke:#000000;stroke-linejoin:bevel;stroke-width:0.5;" x="1002.40124414" xlink:href="#m022dab9c71" y="306.770439387"/>
     <use style="fill:#bf00bf;stroke:#000000;stroke-linejoin:bevel;stroke-width:0.5;" x="338.400316406" xlink:href="#m022dab9c71" y="306.38851046"/>
     <use style="fill:#bf00bf;stroke:#000000;stroke-linejoin:bevel;stroke-width:0.5;" x="1034.59522852" xlink:href="#m022dab9c71" y="306.075016666"/>
     <use style="fill:#bf00bf;stroke:#000000;stroke-linejoin:bevel;stroke-width:0.5;" x="575.026101563" xlink:href="#m022dab9c71" y="306.057874528"/>
     <use style="fill:#bf00bf;stroke:#000000;stroke-linejoin:bevel;stroke-width:0.5;" x="358.521556641" xlink:href="#m022dab9c71" y="306.015301135"/>
     <use style="fill:#bf00bf;stroke:#000000;stroke-linejoin:bevel;stroke-width:0.5;" x="941.232673828" xlink:href="#m022dab9c71" y="306.007999707"/>
     <use style="fill:#bf00bf;stroke:#000000;stroke-linejoin:bevel;stroke-width:0.5;" x="318.279076172" xlink:href="#m022dab9c71" y="305.811670043"/>
     <use style="fill:#bf00bf;stroke:#000000;stroke-linejoin:bevel;stroke-width:0.5;" x="339.205166016" xlink:href="#m022dab9c71" y="305.267743244"/>
     <use style="fill:#bf00bf;stroke:#000000;stroke-linejoin:bevel;stroke-width:0.5;" x="560.538808594" xlink:href="#m022dab9c71" y="303.710458846"/>
     <use style="fill:#bf00bf;stroke:#000000;stroke-linejoin:bevel;stroke-width:0.5;" x="912.258087891" xlink:href="#m022dab9c71" y="303.436294528"/>
     <use style="fill:#bf00bf;stroke:#000000;stroke-linejoin:bevel;stroke-width:0.5;" x="749.678466797" xlink:href="#m022dab9c71" y="301.579914169"/>
     <use style="fill:#bf00bf;stroke:#000000;stroke-linejoin:bevel;stroke-width:0.5;" x="260.329904297" xlink:href="#m022dab9c71" y="300.757204714"/>
     <use style="fill:#bf00bf;stroke:#000000;stroke-linejoin:bevel;stroke-width:0.5;" x="549.270914062" xlink:href="#m022dab9c71" y="300.312605615"/>
     <use style="fill:#bf00bf;stroke:#000000;stroke-linejoin:bevel;stroke-width:0.5;" x="513.052681641" xlink:href="#m022dab9c71" y="299.926778767"/>
     <use style="fill:#bf00bf;stroke:#000000;stroke-linejoin:bevel;stroke-width:0.5;" x="447.055013672" xlink:href="#m022dab9c71" y="299.769649973"/>
     <use style="fill:#bf00bf;stroke:#000000;stroke-linejoin:bevel;stroke-width:0.5;" x="781.067601563" xlink:href="#m022dab9c71" y="299.688155782"/>
     <use style="fill:#bf00bf;stroke:#000000;stroke-linejoin:bevel;stroke-width:0.5;" x="985.499402344" xlink:href="#m022dab9c71" y="299.014047324"/>
     <use style="fill:#bf00bf;stroke:#000000;stroke-linejoin:bevel;stroke-width:0.5;" x="963.768462891" xlink:href="#m022dab9c71" y="299.013485328"/>
     <use style="fill:#bf00bf;stroke:#000000;stroke-linejoin:bevel;stroke-width:0.5;" x="1135.20142969" xlink:href="#m022dab9c71" y="298.440332544"/>
     <use style="fill:#bf00bf;stroke:#000000;stroke-linejoin:bevel;stroke-width:0.5;" x="203.185582031" xlink:href="#m022dab9c71" y="298.418712122"/>
     <use style="fill:#bf00bf;stroke:#000000;stroke-linejoin:bevel;stroke-width:0.5;" x="367.374902344" xlink:href="#m022dab9c71" y="298.126681354"/>
     <use style="fill:#bf00bf;stroke:#000000;stroke-linejoin:bevel;stroke-width:0.5;" x="931.574478516" xlink:href="#m022dab9c71" y="298.076702086"/>
     <use style="fill:#bf00bf;stroke:#000000;stroke-linejoin:bevel;stroke-width:0.5;" x="571.001853516" xlink:href="#m022dab9c71" y="298.04794166"/>
     <use style="fill:#bf00bf;stroke:#000000;stroke-linejoin:bevel;stroke-width:0.5;" x="648.267416016" xlink:href="#m022dab9c71" y="298.015699961"/>
     <use style="fill:#bf00bf;stroke:#000000;stroke-linejoin:bevel;stroke-width:0.5;" x="1012.86428906" xlink:href="#m022dab9c71" y="297.895882429"/>
     <use style="fill:#bf00bf;stroke:#000000;stroke-linejoin:bevel;stroke-width:0.5;" x="916.282335938" xlink:href="#m022dab9c71" y="297.700358165"/>
     <use style="fill:#bf00bf;stroke:#000000;stroke-linejoin:bevel;stroke-width:0.5;" x="1122.32383594" xlink:href="#m022dab9c71" y="297.447712547"/>
     <use style="fill:#bf00bf;stroke:#000000;stroke-linejoin:bevel;stroke-width:0.5;" x="950.086019531" xlink:href="#m022dab9c71" y="297.400889506"/>
     <use style="fill:#bf00bf;stroke:#000000;stroke-linejoin:bevel;stroke-width:0.5;" x="911.453238281" xlink:href="#m022dab9c71" y="297.394016149"/>
     <use style="fill:#bf00bf;stroke:#000000;stroke-linejoin:bevel;stroke-width:0.5;" x="724.728128906" xlink:href="#m022dab9c71" y="297.368557458"/>
     <use style="fill:#bf00bf;stroke:#000000;stroke-linejoin:bevel;stroke-width:0.5;" x="669.998355469" xlink:href="#m022dab9c71" y="297.25921834"/>
     <use style="fill:#bf00bf;stroke:#000000;stroke-linejoin:bevel;stroke-width:0.5;" x="856.723464844" xlink:href="#m022dab9c71" y="294.932183331"/>
     <use style="fill:#bf00bf;stroke:#000000;stroke-linejoin:bevel;stroke-width:0.5;" x="691.729294922" xlink:href="#m022dab9c71" y="294.907946608"/>
     <use style="fill:#bf00bf;stroke:#000000;stroke-linejoin:bevel;stroke-width:0.5;" x="269.988099609" xlink:href="#m022dab9c71" y="294.676733417"/>
     <use style="fill:#bf00bf;stroke:#000000;stroke-linejoin:bevel;stroke-width:0.5;" x="992.743048828" xlink:href="#m022dab9c71" y="294.450347763"/>
     <use style="fill:#bf00bf;stroke:#000000;stroke-linejoin:bevel;stroke-width:0.5;" x="756.117263672" xlink:href="#m022dab9c71" y="293.802049549"/>
     <use style="fill:#bf00bf;stroke:#000000;stroke-linejoin:bevel;stroke-width:0.5;" x="777.043353516" xlink:href="#m022dab9c71" y="293.263048873"/>
     <use style="fill:#bf00bf;stroke:#000000;stroke-linejoin:bevel;stroke-width:0.5;" x="1173.83421094" xlink:href="#m022dab9c71" y="292.502427929"/>
     <use style="fill:#bf00bf;stroke:#000000;stroke-linejoin:bevel;stroke-width:0.5;" x="289.304490234" xlink:href="#m022dab9c71" y="292.230976838"/>
     <use style="fill:#bf00bf;stroke:#000000;stroke-linejoin:bevel;stroke-width:0.5;" x="234.574716797" xlink:href="#m022dab9c71" y="292.117474238"/>
     <use style="fill:#bf00bf;stroke:#000000;stroke-linejoin:bevel;stroke-width:0.5;" x="349.668210938" xlink:href="#m022dab9c71" y="292.062467911"/>
     <use style="fill:#bf00bf;stroke:#000000;stroke-linejoin:bevel;stroke-width:0.5;" x="517.076929688" xlink:href="#m022dab9c71" y="291.585340496"/>
     <use style="fill:#bf00bf;stroke:#000000;stroke-linejoin:bevel;stroke-width:0.5;" x="298.157835938" xlink:href="#m022dab9c71" y="290.347374071"/>
     <use style="fill:#bf00bf;stroke:#000000;stroke-linejoin:bevel;stroke-width:0.5;" x="702.997189453" xlink:href="#m022dab9c71" y="290.330214827"/>
     <use style="fill:#bf00bf;stroke:#000000;stroke-linejoin:bevel;stroke-width:0.5;" x="336.790617188" xlink:href="#m022dab9c71" y="289.826867387"/>
     <use style="fill:#bf00bf;stroke:#000000;stroke-linejoin:bevel;stroke-width:0.5;" x="665.974107422" xlink:href="#m022dab9c71" y="289.179141587"/>
     <use style="fill:#bf00bf;stroke:#000000;stroke-linejoin:bevel;stroke-width:0.5;" x="608.024935547" xlink:href="#m022dab9c71" y="288.435116337"/>
     <use style="fill:#bf00bf;stroke:#000000;stroke-linejoin:bevel;stroke-width:0.5;" x="232.160167969" xlink:href="#m022dab9c71" y="287.982915903"/>
     <use style="fill:#bf00bf;stroke:#000000;stroke-linejoin:bevel;stroke-width:0.5;" x="525.930275391" xlink:href="#m022dab9c71" y="287.643830378"/>
     <use style="fill:#bf00bf;stroke:#000000;stroke-linejoin:bevel;stroke-width:0.5;" x="890.527148438" xlink:href="#m022dab9c71" y="287.203195947"/>
     <use style="fill:#bf00bf;stroke:#000000;stroke-linejoin:bevel;stroke-width:0.5;" x="263.549302734" xlink:href="#m022dab9c71" y="287.192812872"/>
     <use style="fill:#bf00bf;stroke:#000000;stroke-linejoin:bevel;stroke-width:0.5;" x="905.819291016" xlink:href="#m022dab9c71" y="286.131890109"/>
     <use style="fill:#bf00bf;stroke:#000000;stroke-linejoin:bevel;stroke-width:0.5;" x="854.308916016" xlink:href="#m022dab9c71" y="285.185638102"/>
     <use style="fill:#bf00bf;stroke:#000000;stroke-linejoin:bevel;stroke-width:0.5;" x="672.412904297" xlink:href="#m022dab9c71" y="284.603656275"/>
     <use style="fill:#bf00bf;stroke:#000000;stroke-linejoin:bevel;stroke-width:0.5;" x="201.575882812" xlink:href="#m022dab9c71" y="284.356647729"/>
     <use style="fill:#bf00bf;stroke:#000000;stroke-linejoin:bevel;stroke-width:0.5;" x="166.967349609" xlink:href="#m022dab9c71" y="284.351010628"/>
     <use style="fill:#bf00bf;stroke:#000000;stroke-linejoin:bevel;stroke-width:0.5;" x="903.404742188" xlink:href="#m022dab9c71" y="283.8793522"/>
     <use style="fill:#bf00bf;stroke:#000000;stroke-linejoin:bevel;stroke-width:0.5;" x="645.048017578" xlink:href="#m022dab9c71" y="283.793217652"/>
     <use style="fill:#bf00bf;stroke:#000000;stroke-linejoin:bevel;stroke-width:0.5;" x="525.125425781" xlink:href="#m022dab9c71" y="282.22770057"/>
     <use style="fill:#bf00bf;stroke:#000000;stroke-linejoin:bevel;stroke-width:0.5;" x="828.553728516" xlink:href="#m022dab9c71" y="282.068618382"/>
     <use style="fill:#bf00bf;stroke:#000000;stroke-linejoin:bevel;stroke-width:0.5;" x="1144.05477539" xlink:href="#m022dab9c71" y="281.799938384"/>
     <use style="fill:#bf00bf;stroke:#000000;stroke-linejoin:bevel;stroke-width:0.5;" x="764.970609375" xlink:href="#m022dab9c71" y="281.445417955"/>
     <use style="fill:#bf00bf;stroke:#000000;stroke-linejoin:bevel;stroke-width:0.5;" x="362.545804687" xlink:href="#m022dab9c71" y="280.110940096"/>
     <use style="fill:#bf00bf;stroke:#000000;stroke-linejoin:bevel;stroke-width:0.5;" x="764.165759766" xlink:href="#m022dab9c71" y="280.104050587"/>
     <use style="fill:#bf00bf;stroke:#000000;stroke-linejoin:bevel;stroke-width:0.5;" x="1193.15060156" xlink:href="#m022dab9c71" y="277.291180206"/>
     <use style="fill:#bf00bf;stroke:#000000;stroke-linejoin:bevel;stroke-width:0.5;" x="961.353914063" xlink:href="#m022dab9c71" y="276.63882865"/>
     <use style="fill:#bf00bf;stroke:#000000;stroke-linejoin:bevel;stroke-width:0.5;" x="195.137085937" xlink:href="#m022dab9c71" y="274.641207048"/>
     <use style="fill:#bf00bf;stroke:#000000;stroke-linejoin:bevel;stroke-width:0.5;" x="716.679632813" xlink:href="#m022dab9c71" y="273.089632427"/>
     <use style="fill:#bf00bf;stroke:#000000;stroke-linejoin:bevel;stroke-width:0.5;" x="300.572384766" xlink:href="#m022dab9c71" y="272.505623637"/>
     <use style="fill:#bf00bf;stroke:#000000;stroke-linejoin:bevel;stroke-width:0.5;" x="342.424564453" xlink:href="#m022dab9c71" y="272.132637469"/>
     <use style="fill:#bf00bf;stroke:#000000;stroke-linejoin:bevel;stroke-width:0.5;" x="365.765203125" xlink:href="#m022dab9c71" y="271.255922608"/>
     <use style="fill:#bf00bf;stroke:#000000;stroke-linejoin:bevel;stroke-width:0.5;" x="917.892035156" xlink:href="#m022dab9c71" y="270.520818178"/>
     <use style="fill:#bf00bf;stroke:#000000;stroke-linejoin:bevel;stroke-width:0.5;" x="195.941935547" xlink:href="#m022dab9c71" y="269.980870726"/>
     <use style="fill:#bf00bf;stroke:#000000;stroke-linejoin:bevel;stroke-width:0.5;" x="543.636966797" xlink:href="#m022dab9c71" y="269.890974634"/>
     <use style="fill:#bf00bf;stroke:#000000;stroke-linejoin:bevel;stroke-width:0.5;" x="815.676134766" xlink:href="#m022dab9c71" y="268.842272554"/>
     <use style="fill:#bf00bf;stroke:#000000;stroke-linejoin:bevel;stroke-width:0.5;" x="306.206332031" xlink:href="#m022dab9c71" y="268.553511901"/>
     <use style="fill:#bf00bf;stroke:#000000;stroke-linejoin:bevel;stroke-width:0.5;" x="529.954523438" xlink:href="#m022dab9c71" y="268.292968448"/>
     <use style="fill:#bf00bf;stroke:#000000;stroke-linejoin:bevel;stroke-width:0.5;" x="1154.51782031" xlink:href="#m022dab9c71" y="268.026712492"/>
     <use style="fill:#bf00bf;stroke:#000000;stroke-linejoin:bevel;stroke-width:0.5;" x="319.083925781" xlink:href="#m022dab9c71" y="267.920380089"/>
     <use style="fill:#bf00bf;stroke:#000000;stroke-linejoin:bevel;stroke-width:0.5;" x="198.356484375" xlink:href="#m022dab9c71" y="266.582953395"/>
     <use style="fill:#bf00bf;stroke:#000000;stroke-linejoin:bevel;stroke-width:0.5;" x="1141.64022656" xlink:href="#m022dab9c71" y="265.027199406"/>
     <use style="fill:#bf00bf;stroke:#000000;stroke-linejoin:bevel;stroke-width:0.5;" x="202.380732422" xlink:href="#m022dab9c71" y="264.835367573"/>
     <use style="fill:#bf00bf;stroke:#000000;stroke-linejoin:bevel;stroke-width:0.5;" x="531.564222656" xlink:href="#m022dab9c71" y="263.392006065"/>
     <use style="fill:#bf00bf;stroke:#000000;stroke-linejoin:bevel;stroke-width:0.5;" x="918.696884766" xlink:href="#m022dab9c71" y="262.607088744"/>
     <use style="fill:#bf00bf;stroke:#000000;stroke-linejoin:bevel;stroke-width:0.5;" x="257.110505859" xlink:href="#m022dab9c71" y="261.742070345"/>
     <use style="fill:#bf00bf;stroke:#000000;stroke-linejoin:bevel;stroke-width:0.5;" x="440.616216797" xlink:href="#m022dab9c71" y="258.28658386"/>
     <use style="fill:#bf00bf;stroke:#000000;stroke-linejoin:bevel;stroke-width:0.5;" x="292.523888672" xlink:href="#m022dab9c71" y="257.691305998"/>
     <use style="fill:#bf00bf;stroke:#000000;stroke-linejoin:bevel;stroke-width:0.5;" x="645.852867188" xlink:href="#m022dab9c71" y="257.238299959"/>
     <use style="fill:#bf00bf;stroke:#000000;stroke-linejoin:bevel;stroke-width:0.5;" x="453.493810547" xlink:href="#m022dab9c71" y="255.793883138"/>
     <use style="fill:#bf00bf;stroke:#000000;stroke-linejoin:bevel;stroke-width:0.5;" x="1150.49357227" xlink:href="#m022dab9c71" y="255.435877156"/>
     <use style="fill:#bf00bf;stroke:#000000;stroke-linejoin:bevel;stroke-width:0.5;" x="241.818363281" xlink:href="#m022dab9c71" y="252.280175237"/>
     <use style="fill:#bf00bf;stroke:#000000;stroke-linejoin:bevel;stroke-width:0.5;" x="170.186748047" xlink:href="#m022dab9c71" y="251.703350395"/>
     <use style="fill:#bf00bf;stroke:#000000;stroke-linejoin:bevel;stroke-width:0.5;" x="307.011181641" xlink:href="#m022dab9c71" y="251.429395259"/>
     <use style="fill:#bf00bf;stroke:#000000;stroke-linejoin:bevel;stroke-width:0.5;" x="504.199335937" xlink:href="#m022dab9c71" y="251.234918886"/>
     <use style="fill:#bf00bf;stroke:#000000;stroke-linejoin:bevel;stroke-width:0.5;" x="532.369072266" xlink:href="#m022dab9c71" y="251.082533458"/>
     <use style="fill:#bf00bf;stroke:#000000;stroke-linejoin:bevel;stroke-width:0.5;" x="950.890869141" xlink:href="#m022dab9c71" y="249.233253217"/>
     <use style="fill:#bf00bf;stroke:#000000;stroke-linejoin:bevel;stroke-width:0.5;" x="421.299826172" xlink:href="#m022dab9c71" y="247.389666807"/>
     <use style="fill:#bf00bf;stroke:#000000;stroke-linejoin:bevel;stroke-width:0.5;" x="319.888775391" xlink:href="#m022dab9c71" y="245.034537913"/>
     <use style="fill:#bf00bf;stroke:#000000;stroke-linejoin:bevel;stroke-width:0.5;" x="345.643962891" xlink:href="#m022dab9c71" y="244.657238613"/>
     <use style="fill:#bf00bf;stroke:#000000;stroke-linejoin:bevel;stroke-width:0.5;" x="834.992525391" xlink:href="#m022dab9c71" y="243.837516973"/>
     <use style="fill:#bf00bf;stroke:#000000;stroke-linejoin:bevel;stroke-width:0.5;" x="976.646056641" xlink:href="#m022dab9c71" y="240.800945148"/>
     <use style="fill:#bf00bf;stroke:#000000;stroke-linejoin:bevel;stroke-width:0.5;" x="658.730460937" xlink:href="#m022dab9c71" y="240.02531451"/>
     <use style="fill:#bf00bf;stroke:#000000;stroke-linejoin:bevel;stroke-width:0.5;" x="333.57121875" xlink:href="#m022dab9c71" y="239.619971695"/>
     <use style="fill:#bf00bf;stroke:#000000;stroke-linejoin:bevel;stroke-width:0.5;" x="983.084853516" xlink:href="#m022dab9c71" y="236.232693181"/>
     <use style="fill:#bf00bf;stroke:#000000;stroke-linejoin:bevel;stroke-width:0.5;" x="169.381898437" xlink:href="#m022dab9c71" y="234.059806004"/>
     <use style="fill:#bf00bf;stroke:#000000;stroke-linejoin:bevel;stroke-width:0.5;" x="536.393320313" xlink:href="#m022dab9c71" y="230.063289338"/>
     <use style="fill:#bf00bf;stroke:#000000;stroke-linejoin:bevel;stroke-width:0.5;" x="568.587304688" xlink:href="#m022dab9c71" y="224.355593687"/>
     <use style="fill:#bf00bf;stroke:#000000;stroke-linejoin:bevel;stroke-width:0.5;" x="203.990431641" xlink:href="#m022dab9c71" y="217.838902163"/>
     <use style="fill:#bf00bf;stroke:#000000;stroke-linejoin:bevel;stroke-width:0.5;" x="434.177419922" xlink:href="#m022dab9c71" y="211.209261115"/>
     <use style="fill:#bf00bf;stroke:#000000;stroke-linejoin:bevel;stroke-width:0.5;" x="851.894367188" xlink:href="#m022dab9c71" y="208.904312258"/>
     <use style="fill:#bf00bf;stroke:#000000;stroke-linejoin:bevel;stroke-width:0.5;" x="368.984601563" xlink:href="#m022dab9c71" y="202.439403004"/>
     <use style="fill:#bf00bf;stroke:#000000;stroke-linejoin:bevel;stroke-width:0.5;" x="294.133587891" xlink:href="#m022dab9c71" y="176.268661243"/>
     <use style="fill:#bf00bf;stroke:#000000;stroke-linejoin:bevel;stroke-width:0.5;" x="184.674041016" xlink:href="#m022dab9c71" y="165.724623858"/>
     <use style="fill:#bf00bf;stroke:#000000;stroke-linejoin:bevel;stroke-width:0.5;" x="183.064341797" xlink:href="#m022dab9c71" y="163.115015831"/>
     <use style="fill:#bf00bf;stroke:#000000;stroke-linejoin:bevel;stroke-width:0.5;" x="293.328738281" xlink:href="#m022dab9c71" y="157.440306975"/>
     <use style="fill:#bf00bf;stroke:#000000;stroke-linejoin:bevel;stroke-width:0.5;" x="1083.69105469" xlink:href="#m022dab9c71" y="146.263832448"/>
     <use style="fill:#bf00bf;stroke:#000000;stroke-linejoin:bevel;stroke-width:0.5;" x="860.747712891" xlink:href="#m022dab9c71" y="106.646401846"/>
    </g>
   </g>
   <g id="patch_3">
    <path d="
M166.162 79.74
L1196.37 79.74" style="fill:none;stroke:#000000;stroke-linecap:square;stroke-linejoin:miter;"/>
   </g>
   <g id="patch_4">
    <path d="
M1196.37 369.704
L1196.37 79.74" style="fill:none;stroke:#000000;stroke-linecap:square;stroke-linejoin:miter;"/>
   </g>
   <g id="patch_5">
    <path d="
M166.162 369.704
L1196.37 369.704" style="fill:none;stroke:#000000;stroke-linecap:square;stroke-linejoin:miter;"/>
   </g>
   <g id="patch_6">
    <path d="
M166.162 369.704
L166.162 79.74" style="fill:none;stroke:#000000;stroke-linecap:square;stroke-linejoin:miter;"/>
   </g>
   <g id="matplotlib.axis_1">
    <g id="xtick_1">
     <g id="line2d_3">
      <defs>
       <path d="
M0 0
L0 -4" id="m93b0483c22" style="stroke:#000000;stroke-width:0.5;"/>
      </defs>
      <g>
       <use style="stroke:#000000;stroke-width:0.5;" x="166.1625" xlink:href="#m93b0483c22" y="369.703636364"/>
      </g>
     </g>
     <g id="line2d_4">
      <defs>
       <path d="
M0 0
L0 4" id="m741efc42ff" style="stroke:#000000;stroke-width:0.5;"/>
      </defs>
      <g>
       <use style="stroke:#000000;stroke-width:0.5;" x="166.1625" xlink:href="#m741efc42ff" y="79.74"/>
      </g>
     </g>
     <g id="text_1">
      <!-- 0 -->
      <defs>
       <path d="
M31.7812 66.4062
Q24.1719 66.4062 20.3281 58.9062
Q16.5 51.4219 16.5 36.375
Q16.5 21.3906 20.3281 13.8906
Q24.1719 6.39062 31.7812 6.39062
Q39.4531 6.39062 43.2812 13.8906
Q47.125 21.3906 47.125 36.375
Q47.125 51.4219 43.2812 58.9062
Q39.4531 66.4062 31.7812 66.4062
M31.7812 74.2188
Q44.0469 74.2188 50.5156 64.5156
Q56.9844 54.8281 56.9844 36.375
Q56.9844 17.9688 50.5156 8.26562
Q44.0469 -1.42188 31.7812 -1.42188
Q19.5312 -1.42188 13.0625 8.26562
Q6.59375 17.9688 6.59375 36.375
Q6.59375 54.8281 13.0625 64.5156
Q19.5312 74.2188 31.7812 74.2188" id="BitstreamVeraSans-Roman-30"/>
      </defs>
      <g transform="translate(163.1390625 382.821761364)scale(0.12 -0.12)">
       <use xlink:href="#BitstreamVeraSans-Roman-30"/>
      </g>
     </g>
    </g>
    <g id="xtick_2">
     <g id="line2d_5">
      <g>
       <use style="stroke:#000000;stroke-width:0.5;" x="327.132421875" xlink:href="#m93b0483c22" y="369.703636364"/>
      </g>
     </g>
     <g id="line2d_6">
      <g>
       <use style="stroke:#000000;stroke-width:0.5;" x="327.132421875" xlink:href="#m741efc42ff" y="79.74"/>
      </g>
     </g>
     <g id="text_2">
      <!-- 200 -->
      <defs>
       <path d="
M19.1875 8.29688
L53.6094 8.29688
L53.6094 0
L7.32812 0
L7.32812 8.29688
Q12.9375 14.1094 22.625 23.8906
Q32.3281 33.6875 34.8125 36.5312
Q39.5469 41.8438 41.4219 45.5312
Q43.3125 49.2188 43.3125 52.7812
Q43.3125 58.5938 39.2344 62.25
Q35.1562 65.9219 28.6094 65.9219
Q23.9688 65.9219 18.8125 64.3125
Q13.6719 62.7031 7.8125 59.4219
L7.8125 69.3906
Q13.7656 71.7812 18.9375 73
Q24.125 74.2188 28.4219 74.2188
Q39.75 74.2188 46.4844 68.5469
Q53.2188 62.8906 53.2188 53.4219
Q53.2188 48.9219 51.5312 44.8906
Q49.8594 40.875 45.4062 35.4062
Q44.1875 33.9844 37.6406 27.2188
Q31.1094 20.4531 19.1875 8.29688" id="BitstreamVeraSans-Roman-32"/>
      </defs>
      <g transform="translate(316.518046875 382.821761364)scale(0.12 -0.12)">
       <use xlink:href="#BitstreamVeraSans-Roman-32"/>
       <use x="63.623046875" xlink:href="#BitstreamVeraSans-Roman-30"/>
       <use x="127.24609375" xlink:href="#BitstreamVeraSans-Roman-30"/>
      </g>
     </g>
    </g>
    <g id="xtick_3">
     <g id="line2d_7">
      <g>
       <use style="stroke:#000000;stroke-width:0.5;" x="488.10234375" xlink:href="#m93b0483c22" y="369.703636364"/>
      </g>
     </g>
     <g id="line2d_8">
      <g>
       <use style="stroke:#000000;stroke-width:0.5;" x="488.10234375" xlink:href="#m741efc42ff" y="79.74"/>
      </g>
     </g>
     <g id="text_3">
      <!-- 400 -->
      <defs>
       <path d="
M37.7969 64.3125
L12.8906 25.3906
L37.7969 25.3906
z

M35.2031 72.9062
L47.6094 72.9062
L47.6094 25.3906
L58.0156 25.3906
L58.0156 17.1875
L47.6094 17.1875
L47.6094 0
L37.7969 0
L37.7969 17.1875
L4.89062 17.1875
L4.89062 26.7031
z
" id="BitstreamVeraSans-Roman-34"/>
      </defs>
      <g transform="translate(477.34171875 382.821761364)scale(0.12 -0.12)">
       <use xlink:href="#BitstreamVeraSans-Roman-34"/>
       <use x="63.623046875" xlink:href="#BitstreamVeraSans-Roman-30"/>
       <use x="127.24609375" xlink:href="#BitstreamVeraSans-Roman-30"/>
      </g>
     </g>
    </g>
    <g id="xtick_4">
     <g id="line2d_9">
      <g>
       <use style="stroke:#000000;stroke-width:0.5;" x="649.072265625" xlink:href="#m93b0483c22" y="369.703636364"/>
      </g>
     </g>
     <g id="line2d_10">
      <g>
       <use style="stroke:#000000;stroke-width:0.5;" x="649.072265625" xlink:href="#m741efc42ff" y="79.74"/>
      </g>
     </g>
     <g id="text_4">
      <!-- 600 -->
      <defs>
       <path d="
M33.0156 40.375
Q26.375 40.375 22.4844 35.8281
Q18.6094 31.2969 18.6094 23.3906
Q18.6094 15.5312 22.4844 10.9531
Q26.375 6.39062 33.0156 6.39062
Q39.6562 6.39062 43.5312 10.9531
Q47.4062 15.5312 47.4062 23.3906
Q47.4062 31.2969 43.5312 35.8281
Q39.6562 40.375 33.0156 40.375
M52.5938 71.2969
L52.5938 62.3125
Q48.875 64.0625 45.0938 64.9844
Q41.3125 65.9219 37.5938 65.9219
Q27.8281 65.9219 22.6719 59.3281
Q17.5312 52.7344 16.7969 39.4062
Q19.6719 43.6562 24.0156 45.9219
Q28.375 48.1875 33.5938 48.1875
Q44.5781 48.1875 50.9531 41.5156
Q57.3281 34.8594 57.3281 23.3906
Q57.3281 12.1562 50.6875 5.35938
Q44.0469 -1.42188 33.0156 -1.42188
Q20.3594 -1.42188 13.6719 8.26562
Q6.98438 17.9688 6.98438 36.375
Q6.98438 53.6562 15.1875 63.9375
Q23.3906 74.2188 37.2031 74.2188
Q40.9219 74.2188 44.7031 73.4844
Q48.4844 72.75 52.5938 71.2969" id="BitstreamVeraSans-Roman-36"/>
      </defs>
      <g transform="translate(638.437265625 382.821761364)scale(0.12 -0.12)">
       <use xlink:href="#BitstreamVeraSans-Roman-36"/>
       <use x="63.623046875" xlink:href="#BitstreamVeraSans-Roman-30"/>
       <use x="127.24609375" xlink:href="#BitstreamVeraSans-Roman-30"/>
      </g>
     </g>
    </g>
    <g id="xtick_5">
     <g id="line2d_11">
      <g>
       <use style="stroke:#000000;stroke-width:0.5;" x="810.0421875" xlink:href="#m93b0483c22" y="369.703636364"/>
      </g>
     </g>
     <g id="line2d_12">
      <g>
       <use style="stroke:#000000;stroke-width:0.5;" x="810.0421875" xlink:href="#m741efc42ff" y="79.74"/>
      </g>
     </g>
     <g id="text_5">
      <!-- 800 -->
      <defs>
       <path d="
M31.7812 34.625
Q24.75 34.625 20.7188 30.8594
Q16.7031 27.0938 16.7031 20.5156
Q16.7031 13.9219 20.7188 10.1562
Q24.75 6.39062 31.7812 6.39062
Q38.8125 6.39062 42.8594 10.1719
Q46.9219 13.9688 46.9219 20.5156
Q46.9219 27.0938 42.8906 30.8594
Q38.875 34.625 31.7812 34.625
M21.9219 38.8125
Q15.5781 40.375 12.0312 44.7188
Q8.5 49.0781 8.5 55.3281
Q8.5 64.0625 14.7188 69.1406
Q20.9531 74.2188 31.7812 74.2188
Q42.6719 74.2188 48.875 69.1406
Q55.0781 64.0625 55.0781 55.3281
Q55.0781 49.0781 51.5312 44.7188
Q48 40.375 41.7031 38.8125
Q48.8281 37.1562 52.7969 32.3125
Q56.7812 27.4844 56.7812 20.5156
Q56.7812 9.90625 50.3125 4.23438
Q43.8438 -1.42188 31.7812 -1.42188
Q19.7344 -1.42188 13.25 4.23438
Q6.78125 9.90625 6.78125 20.5156
Q6.78125 27.4844 10.7812 32.3125
Q14.7969 37.1562 21.9219 38.8125
M18.3125 54.3906
Q18.3125 48.7344 21.8438 45.5625
Q25.3906 42.3906 31.7812 42.3906
Q38.1406 42.3906 41.7188 45.5625
Q45.3125 48.7344 45.3125 54.3906
Q45.3125 60.0625 41.7188 63.2344
Q38.1406 66.4062 31.7812 66.4062
Q25.3906 66.4062 21.8438 63.2344
Q18.3125 60.0625 18.3125 54.3906" id="BitstreamVeraSans-Roman-38"/>
      </defs>
      <g transform="translate(799.395 382.821761364)scale(0.12 -0.12)">
       <use xlink:href="#BitstreamVeraSans-Roman-38"/>
       <use x="63.623046875" xlink:href="#BitstreamVeraSans-Roman-30"/>
       <use x="127.24609375" xlink:href="#BitstreamVeraSans-Roman-30"/>
      </g>
     </g>
    </g>
    <g id="xtick_6">
     <g id="line2d_13">
      <g>
       <use style="stroke:#000000;stroke-width:0.5;" x="971.012109375" xlink:href="#m93b0483c22" y="369.703636364"/>
      </g>
     </g>
     <g id="line2d_14">
      <g>
       <use style="stroke:#000000;stroke-width:0.5;" x="971.012109375" xlink:href="#m741efc42ff" y="79.74"/>
      </g>
     </g>
     <g id="text_6">
      <!-- 1000 -->
      <defs>
       <path d="
M12.4062 8.29688
L28.5156 8.29688
L28.5156 63.9219
L10.9844 60.4062
L10.9844 69.3906
L28.4219 72.9062
L38.2812 72.9062
L38.2812 8.29688
L54.3906 8.29688
L54.3906 0
L12.4062 0
z
" id="BitstreamVeraSans-Roman-31"/>
      </defs>
      <g transform="translate(956.799609375 382.821761364)scale(0.12 -0.12)">
       <use xlink:href="#BitstreamVeraSans-Roman-31"/>
       <use x="63.623046875" xlink:href="#BitstreamVeraSans-Roman-30"/>
       <use x="127.24609375" xlink:href="#BitstreamVeraSans-Roman-30"/>
       <use x="190.869140625" xlink:href="#BitstreamVeraSans-Roman-30"/>
      </g>
     </g>
    </g>
    <g id="xtick_7">
     <g id="line2d_15">
      <g>
       <use style="stroke:#000000;stroke-width:0.5;" x="1131.98203125" xlink:href="#m93b0483c22" y="369.703636364"/>
      </g>
     </g>
     <g id="line2d_16">
      <g>
       <use style="stroke:#000000;stroke-width:0.5;" x="1131.98203125" xlink:href="#m741efc42ff" y="79.74"/>
      </g>
     </g>
     <g id="text_7">
      <!-- 1200 -->
      <g transform="translate(1117.76953125 382.821761364)scale(0.12 -0.12)">
       <use xlink:href="#BitstreamVeraSans-Roman-31"/>
       <use x="63.623046875" xlink:href="#BitstreamVeraSans-Roman-32"/>
       <use x="127.24609375" xlink:href="#BitstreamVeraSans-Roman-30"/>
       <use x="190.869140625" xlink:href="#BitstreamVeraSans-Roman-30"/>
      </g>
     </g>
    </g>
    <g id="text_8">
     <!-- Feature Number -->
     <defs>
      <path id="BitstreamVeraSans-Roman-20"/>
      <path d="
M9.8125 72.9062
L23.0938 72.9062
L55.4219 11.9219
L55.4219 72.9062
L64.9844 72.9062
L64.9844 0
L51.7031 0
L19.3906 60.9844
L19.3906 0
L9.8125 0
z
" id="BitstreamVeraSans-Roman-4e"/>
      <path d="
M41.1094 46.2969
Q39.5938 47.1719 37.8125 47.5781
Q36.0312 48 33.8906 48
Q26.2656 48 22.1875 43.0469
Q18.1094 38.0938 18.1094 28.8125
L18.1094 0
L9.07812 0
L9.07812 54.6875
L18.1094 54.6875
L18.1094 46.1875
Q20.9531 51.1719 25.4844 53.5781
Q30.0312 56 36.5312 56
Q37.4531 56 38.5781 55.875
Q39.7031 55.7656 41.0625 55.5156
z
" id="BitstreamVeraSans-Roman-72"/>
      <path d="
M9.8125 72.9062
L51.7031 72.9062
L51.7031 64.5938
L19.6719 64.5938
L19.6719 43.1094
L48.5781 43.1094
L48.5781 34.8125
L19.6719 34.8125
L19.6719 0
L9.8125 0
z
" id="BitstreamVeraSans-Roman-46"/>
      <path d="
M52 44.1875
Q55.375 50.25 60.0625 53.125
Q64.75 56 71.0938 56
Q79.6406 56 84.2812 50.0156
Q88.9219 44.0469 88.9219 33.0156
L88.9219 0
L79.8906 0
L79.8906 32.7188
Q79.8906 40.5781 77.0938 44.375
Q74.3125 48.1875 68.6094 48.1875
Q61.625 48.1875 57.5625 43.5469
Q53.5156 38.9219 53.5156 30.9062
L53.5156 0
L44.4844 0
L44.4844 32.7188
Q44.4844 40.625 41.7031 44.4062
Q38.9219 48.1875 33.1094 48.1875
Q26.2188 48.1875 22.1562 43.5312
Q18.1094 38.875 18.1094 30.9062
L18.1094 0
L9.07812 0
L9.07812 54.6875
L18.1094 54.6875
L18.1094 46.1875
Q21.1875 51.2188 25.4844 53.6094
Q29.7812 56 35.6875 56
Q41.6562 56 45.8281 52.9688
Q50 49.9531 52 44.1875" id="BitstreamVeraSans-Roman-6d"/>
      <path d="
M56.2031 29.5938
L56.2031 25.2031
L14.8906 25.2031
Q15.4844 15.9219 20.4844 11.0625
Q25.4844 6.20312 34.4219 6.20312
Q39.5938 6.20312 44.4531 7.46875
Q49.3125 8.73438 54.1094 11.2812
L54.1094 2.78125
Q49.2656 0.734375 44.1875 -0.34375
Q39.1094 -1.42188 33.8906 -1.42188
Q20.7969 -1.42188 13.1562 6.1875
Q5.51562 13.8125 5.51562 26.8125
Q5.51562 40.2344 12.7656 48.1094
Q20.0156 56 32.3281 56
Q43.3594 56 49.7812 48.8906
Q56.2031 41.7969 56.2031 29.5938
M47.2188 32.2344
Q47.125 39.5938 43.0938 43.9844
Q39.0625 48.3906 32.4219 48.3906
Q24.9062 48.3906 20.3906 44.1406
Q15.875 39.8906 15.1875 32.1719
z
" id="BitstreamVeraSans-Roman-65"/>
      <path d="
M18.3125 70.2188
L18.3125 54.6875
L36.8125 54.6875
L36.8125 47.7031
L18.3125 47.7031
L18.3125 18.0156
Q18.3125 11.3281 20.1406 9.42188
Q21.9688 7.51562 27.5938 7.51562
L36.8125 7.51562
L36.8125 0
L27.5938 0
Q17.1875 0 13.2344 3.875
Q9.28125 7.76562 9.28125 18.0156
L9.28125 47.7031
L2.6875 47.7031
L2.6875 54.6875
L9.28125 54.6875
L9.28125 70.2188
z
" id="BitstreamVeraSans-Roman-74"/>
      <path d="
M8.5 21.5781
L8.5 54.6875
L17.4844 54.6875
L17.4844 21.9219
Q17.4844 14.1562 20.5 10.2656
Q23.5312 6.39062 29.5938 6.39062
Q36.8594 6.39062 41.0781 11.0312
Q45.3125 15.6719 45.3125 23.6875
L45.3125 54.6875
L54.2969 54.6875
L54.2969 0
L45.3125 0
L45.3125 8.40625
Q42.0469 3.42188 37.7188 1
Q33.4062 -1.42188 27.6875 -1.42188
Q18.2656 -1.42188 13.375 4.4375
Q8.5 10.2969 8.5 21.5781" id="BitstreamVeraSans-Roman-75"/>
      <path d="
M34.2812 27.4844
Q23.3906 27.4844 19.1875 25
Q14.9844 22.5156 14.9844 16.5
Q14.9844 11.7188 18.1406 8.90625
Q21.2969 6.10938 26.7031 6.10938
Q34.1875 6.10938 38.7031 11.4062
Q43.2188 16.7031 43.2188 25.4844
L43.2188 27.4844
z

M52.2031 31.2031
L52.2031 0
L43.2188 0
L43.2188 8.29688
Q40.1406 3.32812 35.5469 0.953125
Q30.9531 -1.42188 24.3125 -1.42188
Q15.9219 -1.42188 10.9531 3.29688
Q6 8.01562 6 15.9219
Q6 25.1406 12.1719 29.8281
Q18.3594 34.5156 30.6094 34.5156
L43.2188 34.5156
L43.2188 35.4062
Q43.2188 41.6094 39.1406 45
Q35.0625 48.3906 27.6875 48.3906
Q23 48.3906 18.5469 47.2656
Q14.1094 46.1406 10.0156 43.8906
L10.0156 52.2031
Q14.9375 54.1094 19.5781 55.0469
Q24.2188 56 28.6094 56
Q40.4844 56 46.3438 49.8438
Q52.2031 43.7031 52.2031 31.2031" id="BitstreamVeraSans-Roman-61"/>
      <path d="
M48.6875 27.2969
Q48.6875 37.2031 44.6094 42.8438
Q40.5312 48.4844 33.4062 48.4844
Q26.2656 48.4844 22.1875 42.8438
Q18.1094 37.2031 18.1094 27.2969
Q18.1094 17.3906 22.1875 11.75
Q26.2656 6.10938 33.4062 6.10938
Q40.5312 6.10938 44.6094 11.75
Q48.6875 17.3906 48.6875 27.2969
M18.1094 46.3906
Q20.9531 51.2656 25.2656 53.625
Q29.5938 56 35.5938 56
Q45.5625 56 51.7812 48.0938
Q58.0156 40.1875 58.0156 27.2969
Q58.0156 14.4062 51.7812 6.48438
Q45.5625 -1.42188 35.5938 -1.42188
Q29.5938 -1.42188 25.2656 0.953125
Q20.9531 3.32812 18.1094 8.20312
L18.1094 0
L9.07812 0
L9.07812 75.9844
L18.1094 75.9844
z
" id="BitstreamVeraSans-Roman-62"/>
     </defs>
     <g transform="translate(632.5884375 399.435511364)scale(0.12 -0.12)">
      <use xlink:href="#BitstreamVeraSans-Roman-46"/>
      <use x="52.01953125" xlink:href="#BitstreamVeraSans-Roman-65"/>
      <use x="113.54296875" xlink:href="#BitstreamVeraSans-Roman-61"/>
      <use x="174.822265625" xlink:href="#BitstreamVeraSans-Roman-74"/>
      <use x="214.03125" xlink:href="#BitstreamVeraSans-Roman-75"/>
      <use x="277.41015625" xlink:href="#BitstreamVeraSans-Roman-72"/>
      <use x="316.2734375" xlink:href="#BitstreamVeraSans-Roman-65"/>
      <use x="377.796875" xlink:href="#BitstreamVeraSans-Roman-20"/>
      <use x="409.583984375" xlink:href="#BitstreamVeraSans-Roman-4e"/>
      <use x="484.388671875" xlink:href="#BitstreamVeraSans-Roman-75"/>
      <use x="547.767578125" xlink:href="#BitstreamVeraSans-Roman-6d"/>
      <use x="645.1796875" xlink:href="#BitstreamVeraSans-Roman-62"/>
      <use x="708.65625" xlink:href="#BitstreamVeraSans-Roman-65"/>
      <use x="770.1796875" xlink:href="#BitstreamVeraSans-Roman-72"/>
     </g>
    </g>
   </g>
   <g id="matplotlib.axis_2">
    <g id="ytick_1">
     <g id="line2d_17">
      <defs>
       <path d="
M0 0
L4 0" id="m728421d6d4" style="stroke:#000000;stroke-width:0.5;"/>
      </defs>
      <g>
       <use style="stroke:#000000;stroke-width:0.5;" x="166.1625" xlink:href="#m728421d6d4" y="369.703636364"/>
      </g>
     </g>
     <g id="line2d_18">
      <defs>
       <path d="
M0 0
L-4 0" id="mcb0005524f" style="stroke:#000000;stroke-width:0.5;"/>
      </defs>
      <g>
       <use style="stroke:#000000;stroke-width:0.5;" x="1196.37" xlink:href="#mcb0005524f" y="369.703636364"/>
      </g>
     </g>
     <g id="text_9">
      <!-- 0.00 -->
      <defs>
       <path d="
M10.6875 12.4062
L21 12.4062
L21 0
L10.6875 0
z
" id="BitstreamVeraSans-Roman-2e"/>
      </defs>
      <g transform="translate(137.031875 373.014886364)scale(0.12 -0.12)">
       <use xlink:href="#BitstreamVeraSans-Roman-30"/>
       <use x="63.623046875" xlink:href="#BitstreamVeraSans-Roman-2e"/>
       <use x="95.41015625" xlink:href="#BitstreamVeraSans-Roman-30"/>
       <use x="159.033203125" xlink:href="#BitstreamVeraSans-Roman-30"/>
      </g>
     </g>
    </g>
    <g id="ytick_2">
     <g id="line2d_19">
      <g>
       <use style="stroke:#000000;stroke-width:0.5;" x="166.1625" xlink:href="#m728421d6d4" y="311.710909091"/>
      </g>
     </g>
     <g id="line2d_20">
      <g>
       <use style="stroke:#000000;stroke-width:0.5;" x="1196.37" xlink:href="#mcb0005524f" y="311.710909091"/>
      </g>
     </g>
     <g id="text_10">
      <!-- 0.02 -->
      <g transform="translate(137.436875 315.022159091)scale(0.12 -0.12)">
       <use xlink:href="#BitstreamVeraSans-Roman-30"/>
       <use x="63.623046875" xlink:href="#BitstreamVeraSans-Roman-2e"/>
       <use x="95.41015625" xlink:href="#BitstreamVeraSans-Roman-30"/>
       <use x="159.033203125" xlink:href="#BitstreamVeraSans-Roman-32"/>
      </g>
     </g>
    </g>
    <g id="ytick_3">
     <g id="line2d_21">
      <g>
       <use style="stroke:#000000;stroke-width:0.5;" x="166.1625" xlink:href="#m728421d6d4" y="253.718181818"/>
      </g>
     </g>
     <g id="line2d_22">
      <g>
       <use style="stroke:#000000;stroke-width:0.5;" x="1196.37" xlink:href="#mcb0005524f" y="253.718181818"/>
      </g>
     </g>
     <g id="text_11">
      <!-- 0.04 -->
      <g transform="translate(136.908125 257.029431818)scale(0.12 -0.12)">
       <use xlink:href="#BitstreamVeraSans-Roman-30"/>
       <use x="63.623046875" xlink:href="#BitstreamVeraSans-Roman-2e"/>
       <use x="95.41015625" xlink:href="#BitstreamVeraSans-Roman-30"/>
       <use x="159.033203125" xlink:href="#BitstreamVeraSans-Roman-34"/>
      </g>
     </g>
    </g>
    <g id="ytick_4">
     <g id="line2d_23">
      <g>
       <use style="stroke:#000000;stroke-width:0.5;" x="166.1625" xlink:href="#m728421d6d4" y="195.725454545"/>
      </g>
     </g>
     <g id="line2d_24">
      <g>
       <use style="stroke:#000000;stroke-width:0.5;" x="1196.37" xlink:href="#mcb0005524f" y="195.725454545"/>
      </g>
     </g>
     <g id="text_12">
      <!-- 0.06 -->
      <g transform="translate(136.990625 199.036704545)scale(0.12 -0.12)">
       <use xlink:href="#BitstreamVeraSans-Roman-30"/>
       <use x="63.623046875" xlink:href="#BitstreamVeraSans-Roman-2e"/>
       <use x="95.41015625" xlink:href="#BitstreamVeraSans-Roman-30"/>
       <use x="159.033203125" xlink:href="#BitstreamVeraSans-Roman-36"/>
      </g>
     </g>
    </g>
    <g id="ytick_5">
     <g id="line2d_25">
      <g>
       <use style="stroke:#000000;stroke-width:0.5;" x="166.1625" xlink:href="#m728421d6d4" y="137.732727273"/>
      </g>
     </g>
     <g id="line2d_26">
      <g>
       <use style="stroke:#000000;stroke-width:0.5;" x="1196.37" xlink:href="#mcb0005524f" y="137.732727273"/>
      </g>
     </g>
     <g id="text_13">
      <!-- 0.08 -->
      <g transform="translate(137.05625 141.043977273)scale(0.12 -0.12)">
       <use xlink:href="#BitstreamVeraSans-Roman-30"/>
       <use x="63.623046875" xlink:href="#BitstreamVeraSans-Roman-2e"/>
       <use x="95.41015625" xlink:href="#BitstreamVeraSans-Roman-30"/>
       <use x="159.033203125" xlink:href="#BitstreamVeraSans-Roman-38"/>
      </g>
     </g>
    </g>
    <g id="ytick_6">
     <g id="line2d_27">
      <g>
       <use style="stroke:#000000;stroke-width:0.5;" x="166.1625" xlink:href="#m728421d6d4" y="79.74"/>
      </g>
     </g>
     <g id="line2d_28">
      <g>
       <use style="stroke:#000000;stroke-width:0.5;" x="1196.37" xlink:href="#mcb0005524f" y="79.74"/>
      </g>
     </g>
     <g id="text_14">
      <!-- 0.10 -->
      <g transform="translate(137.031875 83.05125)scale(0.12 -0.12)">
       <use xlink:href="#BitstreamVeraSans-Roman-30"/>
       <use x="63.623046875" xlink:href="#BitstreamVeraSans-Roman-2e"/>
       <use x="95.41015625" xlink:href="#BitstreamVeraSans-Roman-31"/>
       <use x="159.033203125" xlink:href="#BitstreamVeraSans-Roman-30"/>
      </g>
     </g>
    </g>
    <g id="text_15">
     <!-- F-score -->
     <defs>
      <path d="
M30.6094 48.3906
Q23.3906 48.3906 19.1875 42.75
Q14.9844 37.1094 14.9844 27.2969
Q14.9844 17.4844 19.1562 11.8438
Q23.3438 6.20312 30.6094 6.20312
Q37.7969 6.20312 41.9844 11.8594
Q46.1875 17.5312 46.1875 27.2969
Q46.1875 37.0156 41.9844 42.7031
Q37.7969 48.3906 30.6094 48.3906
M30.6094 56
Q42.3281 56 49.0156 48.375
Q55.7188 40.7656 55.7188 27.2969
Q55.7188 13.875 49.0156 6.21875
Q42.3281 -1.42188 30.6094 -1.42188
Q18.8438 -1.42188 12.1719 6.21875
Q5.51562 13.875 5.51562 27.2969
Q5.51562 40.7656 12.1719 48.375
Q18.8438 56 30.6094 56" id="BitstreamVeraSans-Roman-6f"/>
      <path d="
M4.89062 31.3906
L31.2031 31.3906
L31.2031 23.3906
L4.89062 23.3906
z
" id="BitstreamVeraSans-Roman-2d"/>
      <path d="
M48.7812 52.5938
L48.7812 44.1875
Q44.9688 46.2969 41.1406 47.3438
Q37.3125 48.3906 33.4062 48.3906
Q24.6562 48.3906 19.8125 42.8438
Q14.9844 37.3125 14.9844 27.2969
Q14.9844 17.2812 19.8125 11.7344
Q24.6562 6.20312 33.4062 6.20312
Q37.3125 6.20312 41.1406 7.25
Q44.9688 8.29688 48.7812 10.4062
L48.7812 2.09375
Q45.0156 0.34375 40.9844 -0.53125
Q36.9688 -1.42188 32.4219 -1.42188
Q20.0625 -1.42188 12.7812 6.34375
Q5.51562 14.1094 5.51562 27.2969
Q5.51562 40.6719 12.8594 48.3281
Q20.2188 56 33.0156 56
Q37.1562 56 41.1094 55.1406
Q45.0625 54.2969 48.7812 52.5938" id="BitstreamVeraSans-Roman-63"/>
      <path d="
M44.2812 53.0781
L44.2812 44.5781
Q40.4844 46.5312 36.375 47.5
Q32.2812 48.4844 27.875 48.4844
Q21.1875 48.4844 17.8438 46.4375
Q14.5 44.3906 14.5 40.2812
Q14.5 37.1562 16.8906 35.375
Q19.2812 33.5938 26.5156 31.9844
L29.5938 31.2969
Q39.1562 29.25 43.1875 25.5156
Q47.2188 21.7812 47.2188 15.0938
Q47.2188 7.46875 41.1875 3.01562
Q35.1562 -1.42188 24.6094 -1.42188
Q20.2188 -1.42188 15.4531 -0.5625
Q10.6875 0.296875 5.42188 2
L5.42188 11.2812
Q10.4062 8.6875 15.2344 7.39062
Q20.0625 6.10938 24.8125 6.10938
Q31.1562 6.10938 34.5625 8.28125
Q37.9844 10.4531 37.9844 14.4062
Q37.9844 18.0625 35.5156 20.0156
Q33.0625 21.9688 24.7031 23.7812
L21.5781 24.5156
Q13.2344 26.2656 9.51562 29.9062
Q5.8125 33.5469 5.8125 39.8906
Q5.8125 47.6094 11.2812 51.7969
Q16.75 56 26.8125 56
Q31.7812 56 36.1719 55.2656
Q40.5781 54.5469 44.2812 53.0781" id="BitstreamVeraSans-Roman-73"/>
     </defs>
     <g transform="translate(129.4125 245.548380682)rotate(-90.0)scale(0.12 -0.12)">
      <use xlink:href="#BitstreamVeraSans-Roman-46"/>
      <use x="57.51953125" xlink:href="#BitstreamVeraSans-Roman-2d"/>
      <use x="93.603515625" xlink:href="#BitstreamVeraSans-Roman-73"/>
      <use x="145.703125" xlink:href="#BitstreamVeraSans-Roman-63"/>
      <use x="200.68359375" xlink:href="#BitstreamVeraSans-Roman-6f"/>
      <use x="261.865234375" xlink:href="#BitstreamVeraSans-Roman-72"/>
      <use x="300.728515625" xlink:href="#BitstreamVeraSans-Roman-65"/>
     </g>
    </g>
   </g>
  </g>
  <g id="axes_2">
   <g id="patch_7">
    <path d="
M166.162 717.66
L1196.37 717.66
L1196.37 427.696
L166.162 427.696
z
" style="fill:#ffffff;"/>
   </g>
   <g id="line2d_29">
    <path clip-path="url(#p1ac5e52a36)" d="
M166.163 438.052
L207.701 631.914
L249.239 669.195
L290.777 687.007
L332.316 694.463
L373.854 703.162
L415.392 705.233
L456.931 708.961
L498.469 711.861
L540.007 711.032
L581.546 714.346
L623.084 713.518
L664.622 715.589
L706.161 716.832
L747.699 717.246
L789.237 716.417
L830.776 717.66
L872.314 717.66
L913.852 717.246
L955.391 716.832
L996.929 717.246
L1038.47 717.246
L1080.01 717.66
L1121.54 717.66
L1163.08 717.246" style="fill:none;stroke:#0000ff;stroke-linecap:square;"/>
   </g>
   <g id="patch_8">
    <path d="
M166.162 427.696
L1196.37 427.696" style="fill:none;stroke:#000000;stroke-linecap:square;stroke-linejoin:miter;"/>
   </g>
   <g id="patch_9">
    <path d="
M1196.37 717.66
L1196.37 427.696" style="fill:none;stroke:#000000;stroke-linecap:square;stroke-linejoin:miter;"/>
   </g>
   <g id="patch_10">
    <path d="
M166.162 717.66
L1196.37 717.66" style="fill:none;stroke:#000000;stroke-linecap:square;stroke-linejoin:miter;"/>
   </g>
   <g id="patch_11">
    <path d="
M166.162 717.66
L166.162 427.696" style="fill:none;stroke:#000000;stroke-linecap:square;stroke-linejoin:miter;"/>
   </g>
   <g id="matplotlib.axis_3">
    <g id="xtick_8">
     <g id="line2d_30">
      <g>
       <use style="stroke:#000000;stroke-width:0.5;" x="166.1625" xlink:href="#m93b0483c22" y="717.66"/>
      </g>
     </g>
     <g id="line2d_31">
      <g>
       <use style="stroke:#000000;stroke-width:0.5;" x="166.1625" xlink:href="#m741efc42ff" y="427.696363636"/>
      </g>
     </g>
     <g id="text_16">
      <!-- 0.00 -->
      <g transform="translate(153.5971875 730.778125)scale(0.12 -0.12)">
       <use xlink:href="#BitstreamVeraSans-Roman-30"/>
       <use x="63.623046875" xlink:href="#BitstreamVeraSans-Roman-2e"/>
       <use x="95.41015625" xlink:href="#BitstreamVeraSans-Roman-30"/>
       <use x="159.033203125" xlink:href="#BitstreamVeraSans-Roman-30"/>
      </g>
     </g>
    </g>
    <g id="xtick_9">
     <g id="line2d_32">
      <g>
       <use style="stroke:#000000;stroke-width:0.5;" x="280.63" xlink:href="#m93b0483c22" y="717.66"/>
      </g>
     </g>
     <g id="line2d_33">
      <g>
       <use style="stroke:#000000;stroke-width:0.5;" x="280.63" xlink:href="#m741efc42ff" y="427.696363636"/>
      </g>
     </g>
     <g id="text_17">
      <!-- 0.01 -->
      <g transform="translate(268.2203125 730.778125)scale(0.12 -0.12)">
       <use xlink:href="#BitstreamVeraSans-Roman-30"/>
       <use x="63.623046875" xlink:href="#BitstreamVeraSans-Roman-2e"/>
       <use x="95.41015625" xlink:href="#BitstreamVeraSans-Roman-30"/>
       <use x="159.033203125" xlink:href="#BitstreamVeraSans-Roman-31"/>
      </g>
     </g>
    </g>
    <g id="xtick_10">
     <g id="line2d_34">
      <g>
       <use style="stroke:#000000;stroke-width:0.5;" x="395.0975" xlink:href="#m93b0483c22" y="717.66"/>
      </g>
     </g>
     <g id="line2d_35">
      <g>
       <use style="stroke:#000000;stroke-width:0.5;" x="395.0975" xlink:href="#m741efc42ff" y="427.696363636"/>
      </g>
     </g>
     <g id="text_18">
      <!-- 0.02 -->
      <g transform="translate(382.7346875 730.778125)scale(0.12 -0.12)">
       <use xlink:href="#BitstreamVeraSans-Roman-30"/>
       <use x="63.623046875" xlink:href="#BitstreamVeraSans-Roman-2e"/>
       <use x="95.41015625" xlink:href="#BitstreamVeraSans-Roman-30"/>
       <use x="159.033203125" xlink:href="#BitstreamVeraSans-Roman-32"/>
      </g>
     </g>
    </g>
    <g id="xtick_11">
     <g id="line2d_36">
      <g>
       <use style="stroke:#000000;stroke-width:0.5;" x="509.565" xlink:href="#m93b0483c22" y="717.66"/>
      </g>
     </g>
     <g id="line2d_37">
      <g>
       <use style="stroke:#000000;stroke-width:0.5;" x="509.565" xlink:href="#m741efc42ff" y="427.696363636"/>
      </g>
     </g>
     <g id="text_19">
      <!-- 0.03 -->
      <defs>
       <path d="
M40.5781 39.3125
Q47.6562 37.7969 51.625 33
Q55.6094 28.2188 55.6094 21.1875
Q55.6094 10.4062 48.1875 4.48438
Q40.7656 -1.42188 27.0938 -1.42188
Q22.5156 -1.42188 17.6562 -0.515625
Q12.7969 0.390625 7.625 2.20312
L7.625 11.7188
Q11.7188 9.32812 16.5938 8.10938
Q21.4844 6.89062 26.8125 6.89062
Q36.0781 6.89062 40.9375 10.5469
Q45.7969 14.2031 45.7969 21.1875
Q45.7969 27.6406 41.2812 31.2656
Q36.7656 34.9062 28.7188 34.9062
L20.2188 34.9062
L20.2188 43.0156
L29.1094 43.0156
Q36.375 43.0156 40.2344 45.9219
Q44.0938 48.8281 44.0938 54.2969
Q44.0938 59.9062 40.1094 62.9062
Q36.1406 65.9219 28.7188 65.9219
Q24.6562 65.9219 20.0156 65.0312
Q15.375 64.1562 9.8125 62.3125
L9.8125 71.0938
Q15.4375 72.6562 20.3438 73.4375
Q25.25 74.2188 29.5938 74.2188
Q40.8281 74.2188 47.3594 69.1094
Q53.9062 64.0156 53.9062 55.3281
Q53.9062 49.2656 50.4375 45.0938
Q46.9688 40.9219 40.5781 39.3125" id="BitstreamVeraSans-Roman-33"/>
      </defs>
      <g transform="translate(497.0821875 730.778125)scale(0.12 -0.12)">
       <use xlink:href="#BitstreamVeraSans-Roman-30"/>
       <use x="63.623046875" xlink:href="#BitstreamVeraSans-Roman-2e"/>
       <use x="95.41015625" xlink:href="#BitstreamVeraSans-Roman-30"/>
       <use x="159.033203125" xlink:href="#BitstreamVeraSans-Roman-33"/>
      </g>
     </g>
    </g>
    <g id="xtick_12">
     <g id="line2d_38">
      <g>
       <use style="stroke:#000000;stroke-width:0.5;" x="624.0325" xlink:href="#m93b0483c22" y="717.66"/>
      </g>
     </g>
     <g id="line2d_39">
      <g>
       <use style="stroke:#000000;stroke-width:0.5;" x="624.0325" xlink:href="#m741efc42ff" y="427.696363636"/>
      </g>
     </g>
     <g id="text_20">
      <!-- 0.04 -->
      <g transform="translate(611.4053125 730.778125)scale(0.12 -0.12)">
       <use xlink:href="#BitstreamVeraSans-Roman-30"/>
       <use x="63.623046875" xlink:href="#BitstreamVeraSans-Roman-2e"/>
       <use x="95.41015625" xlink:href="#BitstreamVeraSans-Roman-30"/>
       <use x="159.033203125" xlink:href="#BitstreamVeraSans-Roman-34"/>
      </g>
     </g>
    </g>
    <g id="xtick_13">
     <g id="line2d_40">
      <g>
       <use style="stroke:#000000;stroke-width:0.5;" x="738.5" xlink:href="#m93b0483c22" y="717.66"/>
      </g>
     </g>
     <g id="line2d_41">
      <g>
       <use style="stroke:#000000;stroke-width:0.5;" x="738.5" xlink:href="#m741efc42ff" y="427.696363636"/>
      </g>
     </g>
     <g id="text_21">
      <!-- 0.05 -->
      <defs>
       <path d="
M10.7969 72.9062
L49.5156 72.9062
L49.5156 64.5938
L19.8281 64.5938
L19.8281 46.7344
Q21.9688 47.4688 24.1094 47.8281
Q26.2656 48.1875 28.4219 48.1875
Q40.625 48.1875 47.75 41.5
Q54.8906 34.8125 54.8906 23.3906
Q54.8906 11.625 47.5625 5.09375
Q40.2344 -1.42188 26.9062 -1.42188
Q22.3125 -1.42188 17.5469 -0.640625
Q12.7969 0.140625 7.71875 1.70312
L7.71875 11.625
Q12.1094 9.23438 16.7969 8.0625
Q21.4844 6.89062 26.7031 6.89062
Q35.1562 6.89062 40.0781 11.3281
Q45.0156 15.7656 45.0156 23.3906
Q45.0156 31 40.0781 35.4375
Q35.1562 39.8906 26.7031 39.8906
Q22.75 39.8906 18.8125 39.0156
Q14.8906 38.1406 10.7969 36.2812
z
" id="BitstreamVeraSans-Roman-35"/>
      </defs>
      <g transform="translate(726.0603125 730.778125)scale(0.12 -0.12)">
       <use xlink:href="#BitstreamVeraSans-Roman-30"/>
       <use x="63.623046875" xlink:href="#BitstreamVeraSans-Roman-2e"/>
       <use x="95.41015625" xlink:href="#BitstreamVeraSans-Roman-30"/>
       <use x="159.033203125" xlink:href="#BitstreamVeraSans-Roman-35"/>
      </g>
     </g>
    </g>
    <g id="xtick_14">
     <g id="line2d_42">
      <g>
       <use style="stroke:#000000;stroke-width:0.5;" x="852.9675" xlink:href="#m93b0483c22" y="717.66"/>
      </g>
     </g>
     <g id="line2d_43">
      <g>
       <use style="stroke:#000000;stroke-width:0.5;" x="852.9675" xlink:href="#m741efc42ff" y="427.696363636"/>
      </g>
     </g>
     <g id="text_22">
      <!-- 0.06 -->
      <g transform="translate(840.3815625 730.778125)scale(0.12 -0.12)">
       <use xlink:href="#BitstreamVeraSans-Roman-30"/>
       <use x="63.623046875" xlink:href="#BitstreamVeraSans-Roman-2e"/>
       <use x="95.41015625" xlink:href="#BitstreamVeraSans-Roman-30"/>
       <use x="159.033203125" xlink:href="#BitstreamVeraSans-Roman-36"/>
      </g>
     </g>
    </g>
    <g id="xtick_15">
     <g id="line2d_44">
      <g>
       <use style="stroke:#000000;stroke-width:0.5;" x="967.435" xlink:href="#m93b0483c22" y="717.66"/>
      </g>
     </g>
     <g id="line2d_45">
      <g>
       <use style="stroke:#000000;stroke-width:0.5;" x="967.435" xlink:href="#m741efc42ff" y="427.696363636"/>
      </g>
     </g>
     <g id="text_23">
      <!-- 0.07 -->
      <defs>
       <path d="
M8.20312 72.9062
L55.0781 72.9062
L55.0781 68.7031
L28.6094 0
L18.3125 0
L43.2188 64.5938
L8.20312 64.5938
z
" id="BitstreamVeraSans-Roman-37"/>
      </defs>
      <g transform="translate(954.9840625 730.778125)scale(0.12 -0.12)">
       <use xlink:href="#BitstreamVeraSans-Roman-30"/>
       <use x="63.623046875" xlink:href="#BitstreamVeraSans-Roman-2e"/>
       <use x="95.41015625" xlink:href="#BitstreamVeraSans-Roman-30"/>
       <use x="159.033203125" xlink:href="#BitstreamVeraSans-Roman-37"/>
      </g>
     </g>
    </g>
    <g id="xtick_16">
     <g id="line2d_46">
      <g>
       <use style="stroke:#000000;stroke-width:0.5;" x="1081.9025" xlink:href="#m93b0483c22" y="717.66"/>
      </g>
     </g>
     <g id="line2d_47">
      <g>
       <use style="stroke:#000000;stroke-width:0.5;" x="1081.9025" xlink:href="#m741efc42ff" y="427.696363636"/>
      </g>
     </g>
     <g id="text_24">
      <!-- 0.08 -->
      <g transform="translate(1069.349375 730.778125)scale(0.12 -0.12)">
       <use xlink:href="#BitstreamVeraSans-Roman-30"/>
       <use x="63.623046875" xlink:href="#BitstreamVeraSans-Roman-2e"/>
       <use x="95.41015625" xlink:href="#BitstreamVeraSans-Roman-30"/>
       <use x="159.033203125" xlink:href="#BitstreamVeraSans-Roman-38"/>
      </g>
     </g>
    </g>
    <g id="xtick_17">
     <g id="line2d_48">
      <g>
       <use style="stroke:#000000;stroke-width:0.5;" x="1196.37" xlink:href="#m93b0483c22" y="717.66"/>
      </g>
     </g>
     <g id="line2d_49">
      <g>
       <use style="stroke:#000000;stroke-width:0.5;" x="1196.37" xlink:href="#m741efc42ff" y="427.696363636"/>
      </g>
     </g>
     <g id="text_25">
      <!-- 0.09 -->
      <defs>
       <path d="
M10.9844 1.51562
L10.9844 10.5
Q14.7031 8.73438 18.5 7.8125
Q22.3125 6.89062 25.9844 6.89062
Q35.75 6.89062 40.8906 13.4531
Q46.0469 20.0156 46.7812 33.4062
Q43.9531 29.2031 39.5938 26.9531
Q35.25 24.7031 29.9844 24.7031
Q19.0469 24.7031 12.6719 31.3125
Q6.29688 37.9375 6.29688 49.4219
Q6.29688 60.6406 12.9375 67.4219
Q19.5781 74.2188 30.6094 74.2188
Q43.2656 74.2188 49.9219 64.5156
Q56.5938 54.8281 56.5938 36.375
Q56.5938 19.1406 48.4062 8.85938
Q40.2344 -1.42188 26.4219 -1.42188
Q22.7031 -1.42188 18.8906 -0.6875
Q15.0938 0.046875 10.9844 1.51562
M30.6094 32.4219
Q37.25 32.4219 41.125 36.9531
Q45.0156 41.5 45.0156 49.4219
Q45.0156 57.2812 41.125 61.8438
Q37.25 66.4062 30.6094 66.4062
Q23.9688 66.4062 20.0938 61.8438
Q16.2188 57.2812 16.2188 49.4219
Q16.2188 41.5 20.0938 36.9531
Q23.9688 32.4219 30.6094 32.4219" id="BitstreamVeraSans-Roman-39"/>
      </defs>
      <g transform="translate(1183.828125 730.778125)scale(0.12 -0.12)">
       <use xlink:href="#BitstreamVeraSans-Roman-30"/>
       <use x="63.623046875" xlink:href="#BitstreamVeraSans-Roman-2e"/>
       <use x="95.41015625" xlink:href="#BitstreamVeraSans-Roman-30"/>
       <use x="159.033203125" xlink:href="#BitstreamVeraSans-Roman-39"/>
      </g>
     </g>
    </g>
    <g id="text_26">
     <!-- F-score -->
     <g transform="translate(660.4396875 747.391875)scale(0.12 -0.12)">
      <use xlink:href="#BitstreamVeraSans-Roman-46"/>
      <use x="57.51953125" xlink:href="#BitstreamVeraSans-Roman-2d"/>
      <use x="93.603515625" xlink:href="#BitstreamVeraSans-Roman-73"/>
      <use x="145.703125" xlink:href="#BitstreamVeraSans-Roman-63"/>
      <use x="200.68359375" xlink:href="#BitstreamVeraSans-Roman-6f"/>
      <use x="261.865234375" xlink:href="#BitstreamVeraSans-Roman-72"/>
      <use x="300.728515625" xlink:href="#BitstreamVeraSans-Roman-65"/>
     </g>
    </g>
   </g>
   <g id="matplotlib.axis_4">
    <g id="ytick_7">
     <g id="line2d_50">
      <g>
       <use style="stroke:#000000;stroke-width:0.5;" x="166.1625" xlink:href="#m728421d6d4" y="717.66"/>
      </g>
     </g>
     <g id="line2d_51">
      <g>
       <use style="stroke:#000000;stroke-width:0.5;" x="1196.37" xlink:href="#mcb0005524f" y="717.66"/>
      </g>
     </g>
     <g id="text_27">
      <!-- 0 -->
      <g transform="translate(156.115625 720.97125)scale(0.12 -0.12)">
       <use xlink:href="#BitstreamVeraSans-Roman-30"/>
      </g>
     </g>
    </g>
    <g id="ytick_8">
     <g id="line2d_52">
      <g>
       <use style="stroke:#000000;stroke-width:0.5;" x="166.1625" xlink:href="#m728421d6d4" y="676.236623377"/>
      </g>
     </g>
     <g id="line2d_53">
      <g>
       <use style="stroke:#000000;stroke-width:0.5;" x="1196.37" xlink:href="#mcb0005524f" y="676.236623377"/>
      </g>
     </g>
     <g id="text_28">
      <!-- 100 -->
      <g transform="translate(141.3725 679.547873377)scale(0.12 -0.12)">
       <use xlink:href="#BitstreamVeraSans-Roman-31"/>
       <use x="63.623046875" xlink:href="#BitstreamVeraSans-Roman-30"/>
       <use x="127.24609375" xlink:href="#BitstreamVeraSans-Roman-30"/>
      </g>
     </g>
    </g>
    <g id="ytick_9">
     <g id="line2d_54">
      <g>
       <use style="stroke:#000000;stroke-width:0.5;" x="166.1625" xlink:href="#m728421d6d4" y="634.813246753"/>
      </g>
     </g>
     <g id="line2d_55">
      <g>
       <use style="stroke:#000000;stroke-width:0.5;" x="1196.37" xlink:href="#mcb0005524f" y="634.813246753"/>
      </g>
     </g>
     <g id="text_29">
      <!-- 200 -->
      <g transform="translate(140.93375 638.124496753)scale(0.12 -0.12)">
       <use xlink:href="#BitstreamVeraSans-Roman-32"/>
       <use x="63.623046875" xlink:href="#BitstreamVeraSans-Roman-30"/>
       <use x="127.24609375" xlink:href="#BitstreamVeraSans-Roman-30"/>
      </g>
     </g>
    </g>
    <g id="ytick_10">
     <g id="line2d_56">
      <g>
       <use style="stroke:#000000;stroke-width:0.5;" x="166.1625" xlink:href="#m728421d6d4" y="593.38987013"/>
      </g>
     </g>
     <g id="line2d_57">
      <g>
       <use style="stroke:#000000;stroke-width:0.5;" x="1196.37" xlink:href="#mcb0005524f" y="593.38987013"/>
      </g>
     </g>
     <g id="text_30">
      <!-- 300 -->
      <g transform="translate(140.969375 596.70112013)scale(0.12 -0.12)">
       <use xlink:href="#BitstreamVeraSans-Roman-33"/>
       <use x="63.623046875" xlink:href="#BitstreamVeraSans-Roman-30"/>
       <use x="127.24609375" xlink:href="#BitstreamVeraSans-Roman-30"/>
      </g>
     </g>
    </g>
    <g id="ytick_11">
     <g id="line2d_58">
      <g>
       <use style="stroke:#000000;stroke-width:0.5;" x="166.1625" xlink:href="#m728421d6d4" y="551.966493506"/>
      </g>
     </g>
     <g id="line2d_59">
      <g>
       <use style="stroke:#000000;stroke-width:0.5;" x="1196.37" xlink:href="#mcb0005524f" y="551.966493506"/>
      </g>
     </g>
     <g id="text_31">
      <!-- 400 -->
      <g transform="translate(140.64125 555.277743506)scale(0.12 -0.12)">
       <use xlink:href="#BitstreamVeraSans-Roman-34"/>
       <use x="63.623046875" xlink:href="#BitstreamVeraSans-Roman-30"/>
       <use x="127.24609375" xlink:href="#BitstreamVeraSans-Roman-30"/>
      </g>
     </g>
    </g>
    <g id="ytick_12">
     <g id="line2d_60">
      <g>
       <use style="stroke:#000000;stroke-width:0.5;" x="166.1625" xlink:href="#m728421d6d4" y="510.543116883"/>
      </g>
     </g>
     <g id="line2d_61">
      <g>
       <use style="stroke:#000000;stroke-width:0.5;" x="1196.37" xlink:href="#mcb0005524f" y="510.543116883"/>
      </g>
     </g>
     <g id="text_32">
      <!-- 500 -->
      <g transform="translate(140.980625 513.854366883)scale(0.12 -0.12)">
       <use xlink:href="#BitstreamVeraSans-Roman-35"/>
       <use x="63.623046875" xlink:href="#BitstreamVeraSans-Roman-30"/>
       <use x="127.24609375" xlink:href="#BitstreamVeraSans-Roman-30"/>
      </g>
     </g>
    </g>
    <g id="ytick_13">
     <g id="line2d_62">
      <g>
       <use style="stroke:#000000;stroke-width:0.5;" x="166.1625" xlink:href="#m728421d6d4" y="469.11974026"/>
      </g>
     </g>
     <g id="line2d_63">
      <g>
       <use style="stroke:#000000;stroke-width:0.5;" x="1196.37" xlink:href="#mcb0005524f" y="469.11974026"/>
      </g>
     </g>
     <g id="text_33">
      <!-- 600 -->
      <g transform="translate(140.8925 472.43099026)scale(0.12 -0.12)">
       <use xlink:href="#BitstreamVeraSans-Roman-36"/>
       <use x="63.623046875" xlink:href="#BitstreamVeraSans-Roman-30"/>
       <use x="127.24609375" xlink:href="#BitstreamVeraSans-Roman-30"/>
      </g>
     </g>
    </g>
    <g id="ytick_14">
     <g id="line2d_64">
      <g>
       <use style="stroke:#000000;stroke-width:0.5;" x="166.1625" xlink:href="#m728421d6d4" y="427.696363636"/>
      </g>
     </g>
     <g id="line2d_65">
      <g>
       <use style="stroke:#000000;stroke-width:0.5;" x="1196.37" xlink:href="#mcb0005524f" y="427.696363636"/>
      </g>
     </g>
     <g id="text_34">
      <!-- 700 -->
      <g transform="translate(141.03875 431.007613636)scale(0.12 -0.12)">
       <use xlink:href="#BitstreamVeraSans-Roman-37"/>
       <use x="63.623046875" xlink:href="#BitstreamVeraSans-Roman-30"/>
       <use x="127.24609375" xlink:href="#BitstreamVeraSans-Roman-30"/>
      </g>
     </g>
    </g>
    <g id="text_35">
     <!-- Frequency -->
     <defs>
      <path d="
M54.8906 33.0156
L54.8906 0
L45.9062 0
L45.9062 32.7188
Q45.9062 40.4844 42.875 44.3281
Q39.8438 48.1875 33.7969 48.1875
Q26.5156 48.1875 22.3125 43.5469
Q18.1094 38.9219 18.1094 30.9062
L18.1094 0
L9.07812 0
L9.07812 54.6875
L18.1094 54.6875
L18.1094 46.1875
Q21.3438 51.125 25.7031 53.5625
Q30.0781 56 35.7969 56
Q45.2188 56 50.0469 50.1719
Q54.8906 44.3438 54.8906 33.0156" id="BitstreamVeraSans-Roman-6e"/>
      <path d="
M32.1719 -5.07812
Q28.375 -14.8438 24.75 -17.8125
Q21.1406 -20.7969 15.0938 -20.7969
L7.90625 -20.7969
L7.90625 -13.2812
L13.1875 -13.2812
Q16.8906 -13.2812 18.9375 -11.5156
Q21 -9.76562 23.4844 -3.21875
L25.0938 0.875
L2.98438 54.6875
L12.5 54.6875
L29.5938 11.9219
L46.6875 54.6875
L56.2031 54.6875
z
" id="BitstreamVeraSans-Roman-79"/>
      <path d="
M14.7969 27.2969
Q14.7969 17.3906 18.875 11.75
Q22.9531 6.10938 30.0781 6.10938
Q37.2031 6.10938 41.2969 11.75
Q45.4062 17.3906 45.4062 27.2969
Q45.4062 37.2031 41.2969 42.8438
Q37.2031 48.4844 30.0781 48.4844
Q22.9531 48.4844 18.875 42.8438
Q14.7969 37.2031 14.7969 27.2969
M45.4062 8.20312
Q42.5781 3.32812 38.25 0.953125
Q33.9375 -1.42188 27.875 -1.42188
Q17.9688 -1.42188 11.7344 6.48438
Q5.51562 14.4062 5.51562 27.2969
Q5.51562 40.1875 11.7344 48.0938
Q17.9688 56 27.875 56
Q33.9375 56 38.25 53.625
Q42.5781 51.2656 45.4062 46.3906
L45.4062 54.6875
L54.3906 54.6875
L54.3906 -20.7969
L45.4062 -20.7969
z
" id="BitstreamVeraSans-Roman-71"/>
     </defs>
     <g transform="translate(133.145625 602.905994318)rotate(-90.0)scale(0.12 -0.12)">
      <use xlink:href="#BitstreamVeraSans-Roman-46"/>
      <use x="50.26953125" xlink:href="#BitstreamVeraSans-Roman-72"/>
      <use x="89.1328125" xlink:href="#BitstreamVeraSans-Roman-65"/>
      <use x="150.65625" xlink:href="#BitstreamVeraSans-Roman-71"/>
      <use x="214.1328125" xlink:href="#BitstreamVeraSans-Roman-75"/>
      <use x="277.51171875" xlink:href="#BitstreamVeraSans-Roman-65"/>
      <use x="339.03515625" xlink:href="#BitstreamVeraSans-Roman-6e"/>
      <use x="402.4140625" xlink:href="#BitstreamVeraSans-Roman-63"/>
      <use x="457.39453125" xlink:href="#BitstreamVeraSans-Roman-79"/>
     </g>
    </g>
   </g>
  </g>
 </g>
 <defs>
  <clipPath id="p015a23261b">
   <rect height="289.963636364" width="1030.2075" x="166.1625" y="79.74"/>
  </clipPath>
  <clipPath id="p1ac5e52a36">
   <rect height="289.963636364" width="1030.2075" x="166.1625" y="427.696363636"/>
  </clipPath>
 </defs>
</svg>
