<?xml version="1.0" encoding="utf-8" standalone="no"?>
<!DOCTYPE svg PUBLIC "-//W3C//DTD SVG 1.1//EN"
  "http://www.w3.org/Graphics/SVG/1.1/DTD/svg11.dtd">
<!-- Created with matplotlib (http://matplotlib.org/) -->
<svg height="432pt" version="1.1" viewBox="0 0 576 432" width="576pt" xmlns="http://www.w3.org/2000/svg" xmlns:xlink="http://www.w3.org/1999/xlink">
 <defs>
  <style type="text/css">
*{stroke-linecap:butt;stroke-linejoin:round;}
  </style>
 </defs>
 <g id="figure_1">
  <g id="patch_1">
   <path d="
M0 432
L576 432
L576 0
L0 0
z
" style="fill:#ffffff;"/>
  </g>
  <g id="axes_1">
   <g id="patch_2">
    <path d="
M49.9584 249.504
L552.655 249.504
L552.655 164.096
L49.9584 164.096
z
" style="fill:#ffffff;"/>
   </g>
   <g id="line2d_1">
    <path clip-path="url(#p7142299d52)" d="
M54.9854 183.718
L60.0124 244.489
L65.0393 198.796
L70.0663 211.886
L75.0933 194.395
L80.1202 189.091
L85.1472 194.729
L90.1742 176.291
L95.2011 214.061
L100.228 182.29
L105.255 202.415
L110.282 171.969
L115.309 244.974
L120.336 208.439
L125.363 183.774
L130.39 198.495
L135.417 180.278
L140.444 179.252
L145.471 186.74
L150.498 204.171
L155.525 174.333
L160.552 204.516
L165.579 189.499
L170.606 211.317
L175.633 193.743
L180.66 181.448
L185.686 225.906
L190.713 228.381
L195.74 193.214
L200.767 238.927
L205.794 219.462
L210.821 216.029
L215.848 185.494
L220.875 186.327
L225.902 213.952
L230.929 191.994
L235.956 228.115
L240.983 181.3
L246.01 177.364
L251.037 229.424
L256.064 231.979
L261.091 206.065
L266.118 238.253
L271.145 225.729
L276.172 170.704
L281.199 172.568
L286.226 179.738
L291.253 197.842
L296.28 193.501
L301.307 189.379
L306.334 179.529
L311.361 215.983
L316.388 181.258
L321.414 191.419
L326.441 207.825
L331.468 173.118
L336.495 187.941
L341.522 191.344
L346.549 185.7
L351.576 186.952
L356.603 221.731
L361.63 191.041
L366.657 212.233
L371.684 177.776
L376.711 183.127
L381.738 202.627
L386.765 225.024
L391.792 237.751
L396.819 227.012
L401.846 194.987
L406.873 194.351
L411.9 237.177
L416.927 181.222
L421.954 210.304
L426.981 174.682
L432.008 208.412
L437.035 183.665
L442.062 216.555
L447.089 206.508
L452.116 176.17
L457.143 243.423
L462.169 264.713
L467.196 197.289
L472.223 175.443
L477.25 216.03
L482.277 176.005
L487.304 184.711
L492.331 221.837
L497.358 202.059
L502.385 191.469
L507.412 219.246
L512.439 190.848" style="fill:none;stroke:#ff0000;stroke-linecap:square;"/>
   </g>
   <g id="line2d_2">
    <path clip-path="url(#p7142299d52)" d="
M54.9854 198.657
L60.0124 198.704
L65.0393 198.751
L70.0663 198.798
L75.0933 198.845
L80.1202 198.892
L85.1472 198.939
L90.1742 198.986
L95.2011 199.033
L100.228 199.08
L105.255 199.127
L110.282 199.174
L115.309 199.222
L120.336 199.269
L125.363 199.316
L130.39 199.363
L135.417 199.41
L140.444 199.457
L145.471 199.504
L150.498 199.551
L155.525 199.598
L160.552 199.645
L165.579 199.692
L170.606 199.739
L175.633 199.786
L180.66 199.833
L185.686 199.88
L190.713 199.927
L195.74 199.974
L200.767 200.021
L205.794 200.068
L210.821 200.115
L215.848 200.162
L220.875 200.209
L225.902 200.256
L230.929 200.303
L235.956 200.35
L240.983 200.397
L246.01 200.444
L251.037 200.491
L256.064 200.538
L261.091 200.585
L266.118 200.632
L271.145 200.679
L276.172 200.726
L281.199 200.773
L286.226 200.82
L291.253 200.867
L296.28 200.914
L301.307 200.961
L306.334 201.008
L311.361 201.055
L316.388 201.102
L321.414 201.149
L326.441 201.196
L331.468 201.243
L336.495 201.29
L341.522 201.337
L346.549 201.384
L351.576 201.431
L356.603 201.478
L361.63 201.525
L366.657 201.572
L371.684 201.619
L376.711 201.666
L381.738 201.713
L386.765 201.76
L391.792 201.807
L396.819 201.854
L401.846 201.901
L406.873 201.948
L411.9 201.995
L416.927 202.042
L421.954 202.089
L426.981 202.136
L432.008 202.183
L437.035 202.23
L442.062 202.277
L447.089 202.324
L452.116 202.371
L457.143 202.418
L462.169 202.465
L467.196 202.512
L472.223 202.559
L477.25 202.606
L482.277 202.653
L487.304 202.7
L492.331 202.747
L497.358 202.794
L502.385 202.841
L507.412 202.888
L512.439 202.935" style="fill:none;stroke:#ff0000;stroke-dasharray:6.000000,6.000000;stroke-dashoffset:0.0;"/>
   </g>
   <g id="patch_3">
    <path d="
M49.9584 164.096
L552.655 164.096" style="fill:none;stroke:#000000;stroke-linecap:square;stroke-linejoin:miter;"/>
   </g>
   <g id="patch_4">
    <path d="
M552.655 249.504
L552.655 164.096" style="fill:none;stroke:#000000;stroke-linecap:square;stroke-linejoin:miter;"/>
   </g>
   <g id="patch_5">
    <path d="
M49.9584 249.504
L552.655 249.504" style="fill:none;stroke:#000000;stroke-linecap:square;stroke-linejoin:miter;"/>
   </g>
   <g id="patch_6">
    <path d="
M49.9584 249.504
L49.9584 164.096" style="fill:none;stroke:#000000;stroke-linecap:square;stroke-linejoin:miter;"/>
   </g>
   <g id="matplotlib.axis_1">
    <g id="xtick_1">
     <g id="line2d_3">
      <defs>
       <path d="
M0 0
L0 -4" id="m93b0483c22" style="stroke:#000000;stroke-width:0.5;"/>
      </defs>
      <g>
       <use style="stroke:#000000;stroke-width:0.5;" x="49.9584375" xlink:href="#m93b0483c22" y="249.504041054"/>
      </g>
     </g>
     <g id="line2d_4">
      <defs>
       <path d="
M0 0
L0 4" id="m741efc42ff" style="stroke:#000000;stroke-width:0.5;"/>
      </defs>
      <g>
       <use style="stroke:#000000;stroke-width:0.5;" x="49.9584375" xlink:href="#m741efc42ff" y="164.095958946"/>
      </g>
     </g>
     <g id="text_1">
      <!-- 0 -->
      <defs>
       <path d="
M31.7812 66.4062
Q24.1719 66.4062 20.3281 58.9062
Q16.5 51.4219 16.5 36.375
Q16.5 21.3906 20.3281 13.8906
Q24.1719 6.39062 31.7812 6.39062
Q39.4531 6.39062 43.2812 13.8906
Q47.125 21.3906 47.125 36.375
Q47.125 51.4219 43.2812 58.9062
Q39.4531 66.4062 31.7812 66.4062
M31.7812 74.2188
Q44.0469 74.2188 50.5156 64.5156
Q56.9844 54.8281 56.9844 36.375
Q56.9844 17.9688 50.5156 8.26562
Q44.0469 -1.42188 31.7812 -1.42188
Q19.5312 -1.42188 13.0625 8.26562
Q6.59375 17.9688 6.59375 36.375
Q6.59375 54.8281 13.0625 64.5156
Q19.5312 74.2188 31.7812 74.2188" id="BitstreamVeraSans-Roman-30"/>
      </defs>
      <g transform="translate(46.935 262.622166054)scale(0.12 -0.12)">
       <use xlink:href="#BitstreamVeraSans-Roman-30"/>
      </g>
     </g>
    </g>
    <g id="xtick_2">
     <g id="line2d_5">
      <g>
       <use style="stroke:#000000;stroke-width:0.5;" x="150.49771875" xlink:href="#m93b0483c22" y="249.504041054"/>
      </g>
     </g>
     <g id="line2d_6">
      <g>
       <use style="stroke:#000000;stroke-width:0.5;" x="150.49771875" xlink:href="#m741efc42ff" y="164.095958946"/>
      </g>
     </g>
     <g id="text_2">
      <!-- 20 -->
      <defs>
       <path d="
M19.1875 8.29688
L53.6094 8.29688
L53.6094 0
L7.32812 0
L7.32812 8.29688
Q12.9375 14.1094 22.625 23.8906
Q32.3281 33.6875 34.8125 36.5312
Q39.5469 41.8438 41.4219 45.5312
Q43.3125 49.2188 43.3125 52.7812
Q43.3125 58.5938 39.2344 62.25
Q35.1562 65.9219 28.6094 65.9219
Q23.9688 65.9219 18.8125 64.3125
Q13.6719 62.7031 7.8125 59.4219
L7.8125 69.3906
Q13.7656 71.7812 18.9375 73
Q24.125 74.2188 28.4219 74.2188
Q39.75 74.2188 46.4844 68.5469
Q53.2188 62.8906 53.2188 53.4219
Q53.2188 48.9219 51.5312 44.8906
Q49.8594 40.875 45.4062 35.4062
Q44.1875 33.9844 37.6406 27.2188
Q31.1094 20.4531 19.1875 8.29688" id="BitstreamVeraSans-Roman-32"/>
      </defs>
      <g transform="translate(143.70084375 262.622166054)scale(0.12 -0.12)">
       <use xlink:href="#BitstreamVeraSans-Roman-32"/>
       <use x="63.623046875" xlink:href="#BitstreamVeraSans-Roman-30"/>
      </g>
     </g>
    </g>
    <g id="xtick_3">
     <g id="line2d_7">
      <g>
       <use style="stroke:#000000;stroke-width:0.5;" x="251.037" xlink:href="#m93b0483c22" y="249.504041054"/>
      </g>
     </g>
     <g id="line2d_8">
      <g>
       <use style="stroke:#000000;stroke-width:0.5;" x="251.037" xlink:href="#m741efc42ff" y="164.095958946"/>
      </g>
     </g>
     <g id="text_3">
      <!-- 40 -->
      <defs>
       <path d="
M37.7969 64.3125
L12.8906 25.3906
L37.7969 25.3906
z

M35.2031 72.9062
L47.6094 72.9062
L47.6094 25.3906
L58.0156 25.3906
L58.0156 17.1875
L47.6094 17.1875
L47.6094 0
L37.7969 0
L37.7969 17.1875
L4.89062 17.1875
L4.89062 26.7031
z
" id="BitstreamVeraSans-Roman-34"/>
      </defs>
      <g transform="translate(244.093875 262.622166054)scale(0.12 -0.12)">
       <use xlink:href="#BitstreamVeraSans-Roman-34"/>
       <use x="63.623046875" xlink:href="#BitstreamVeraSans-Roman-30"/>
      </g>
     </g>
    </g>
    <g id="xtick_4">
     <g id="line2d_9">
      <g>
       <use style="stroke:#000000;stroke-width:0.5;" x="351.57628125" xlink:href="#m93b0483c22" y="249.504041054"/>
      </g>
     </g>
     <g id="line2d_10">
      <g>
       <use style="stroke:#000000;stroke-width:0.5;" x="351.57628125" xlink:href="#m741efc42ff" y="164.095958946"/>
      </g>
     </g>
     <g id="text_4">
      <!-- 60 -->
      <defs>
       <path d="
M33.0156 40.375
Q26.375 40.375 22.4844 35.8281
Q18.6094 31.2969 18.6094 23.3906
Q18.6094 15.5312 22.4844 10.9531
Q26.375 6.39062 33.0156 6.39062
Q39.6562 6.39062 43.5312 10.9531
Q47.4062 15.5312 47.4062 23.3906
Q47.4062 31.2969 43.5312 35.8281
Q39.6562 40.375 33.0156 40.375
M52.5938 71.2969
L52.5938 62.3125
Q48.875 64.0625 45.0938 64.9844
Q41.3125 65.9219 37.5938 65.9219
Q27.8281 65.9219 22.6719 59.3281
Q17.5312 52.7344 16.7969 39.4062
Q19.6719 43.6562 24.0156 45.9219
Q28.375 48.1875 33.5938 48.1875
Q44.5781 48.1875 50.9531 41.5156
Q57.3281 34.8594 57.3281 23.3906
Q57.3281 12.1562 50.6875 5.35938
Q44.0469 -1.42188 33.0156 -1.42188
Q20.3594 -1.42188 13.6719 8.26562
Q6.98438 17.9688 6.98438 36.375
Q6.98438 53.6562 15.1875 63.9375
Q23.3906 74.2188 37.2031 74.2188
Q40.9219 74.2188 44.7031 73.4844
Q48.4844 72.75 52.5938 71.2969" id="BitstreamVeraSans-Roman-36"/>
      </defs>
      <g transform="translate(344.75878125 262.622166054)scale(0.12 -0.12)">
       <use xlink:href="#BitstreamVeraSans-Roman-36"/>
       <use x="63.623046875" xlink:href="#BitstreamVeraSans-Roman-30"/>
      </g>
     </g>
    </g>
    <g id="xtick_5">
     <g id="line2d_11">
      <g>
       <use style="stroke:#000000;stroke-width:0.5;" x="452.1155625" xlink:href="#m93b0483c22" y="249.504041054"/>
      </g>
     </g>
     <g id="line2d_12">
      <g>
       <use style="stroke:#000000;stroke-width:0.5;" x="452.1155625" xlink:href="#m741efc42ff" y="164.095958946"/>
      </g>
     </g>
     <g id="text_5">
      <!-- 80 -->
      <defs>
       <path d="
M31.7812 34.625
Q24.75 34.625 20.7188 30.8594
Q16.7031 27.0938 16.7031 20.5156
Q16.7031 13.9219 20.7188 10.1562
Q24.75 6.39062 31.7812 6.39062
Q38.8125 6.39062 42.8594 10.1719
Q46.9219 13.9688 46.9219 20.5156
Q46.9219 27.0938 42.8906 30.8594
Q38.875 34.625 31.7812 34.625
M21.9219 38.8125
Q15.5781 40.375 12.0312 44.7188
Q8.5 49.0781 8.5 55.3281
Q8.5 64.0625 14.7188 69.1406
Q20.9531 74.2188 31.7812 74.2188
Q42.6719 74.2188 48.875 69.1406
Q55.0781 64.0625 55.0781 55.3281
Q55.0781 49.0781 51.5312 44.7188
Q48 40.375 41.7031 38.8125
Q48.8281 37.1562 52.7969 32.3125
Q56.7812 27.4844 56.7812 20.5156
Q56.7812 9.90625 50.3125 4.23438
Q43.8438 -1.42188 31.7812 -1.42188
Q19.7344 -1.42188 13.25 4.23438
Q6.78125 9.90625 6.78125 20.5156
Q6.78125 27.4844 10.7812 32.3125
Q14.7969 37.1562 21.9219 38.8125
M18.3125 54.3906
Q18.3125 48.7344 21.8438 45.5625
Q25.3906 42.3906 31.7812 42.3906
Q38.1406 42.3906 41.7188 45.5625
Q45.3125 48.7344 45.3125 54.3906
Q45.3125 60.0625 41.7188 63.2344
Q38.1406 66.4062 31.7812 66.4062
Q25.3906 66.4062 21.8438 63.2344
Q18.3125 60.0625 18.3125 54.3906" id="BitstreamVeraSans-Roman-38"/>
      </defs>
      <g transform="translate(445.285875 262.622166054)scale(0.12 -0.12)">
       <use xlink:href="#BitstreamVeraSans-Roman-38"/>
       <use x="63.623046875" xlink:href="#BitstreamVeraSans-Roman-30"/>
      </g>
     </g>
    </g>
    <g id="xtick_6">
     <g id="line2d_13">
      <g>
       <use style="stroke:#000000;stroke-width:0.5;" x="552.65484375" xlink:href="#m93b0483c22" y="249.504041054"/>
      </g>
     </g>
     <g id="line2d_14">
      <g>
       <use style="stroke:#000000;stroke-width:0.5;" x="552.65484375" xlink:href="#m741efc42ff" y="164.095958946"/>
      </g>
     </g>
     <g id="text_6">
      <!-- 100 -->
      <defs>
       <path d="
M12.4062 8.29688
L28.5156 8.29688
L28.5156 63.9219
L10.9844 60.4062
L10.9844 69.3906
L28.4219 72.9062
L38.2812 72.9062
L38.2812 8.29688
L54.3906 8.29688
L54.3906 0
L12.4062 0
z
" id="BitstreamVeraSans-Roman-31"/>
      </defs>
      <g transform="translate(542.25984375 262.622166054)scale(0.12 -0.12)">
       <use xlink:href="#BitstreamVeraSans-Roman-31"/>
       <use x="63.623046875" xlink:href="#BitstreamVeraSans-Roman-30"/>
       <use x="127.24609375" xlink:href="#BitstreamVeraSans-Roman-30"/>
      </g>
     </g>
    </g>
   </g>
   <g id="matplotlib.axis_2">
    <g id="ytick_1">
     <g id="line2d_15">
      <defs>
       <path d="
M0 0
L4 0" id="m728421d6d4" style="stroke:#000000;stroke-width:0.5;"/>
      </defs>
      <g>
       <use style="stroke:#000000;stroke-width:0.5;" x="49.9584375" xlink:href="#m728421d6d4" y="249.504041054"/>
      </g>
     </g>
     <g id="line2d_16">
      <defs>
       <path d="
M0 0
L-4 0" id="mcb0005524f" style="stroke:#000000;stroke-width:0.5;"/>
      </defs>
      <g>
       <use style="stroke:#000000;stroke-width:0.5;" x="552.65484375" xlink:href="#mcb0005524f" y="249.504041054"/>
      </g>
     </g>
     <g id="text_7">
      <!-- −3 -->
      <defs>
       <path d="
M10.5938 35.5
L73.1875 35.5
L73.1875 27.2031
L10.5938 27.2031
z
" id="BitstreamVeraSans-Roman-2212"/>
       <path d="
M40.5781 39.3125
Q47.6562 37.7969 51.625 33
Q55.6094 28.2188 55.6094 21.1875
Q55.6094 10.4062 48.1875 4.48438
Q40.7656 -1.42188 27.0938 -1.42188
Q22.5156 -1.42188 17.6562 -0.515625
Q12.7969 0.390625 7.625 2.20312
L7.625 11.7188
Q11.7188 9.32812 16.5938 8.10938
Q21.4844 6.89062 26.8125 6.89062
Q36.0781 6.89062 40.9375 10.5469
Q45.7969 14.2031 45.7969 21.1875
Q45.7969 27.6406 41.2812 31.2656
Q36.7656 34.9062 28.7188 34.9062
L20.2188 34.9062
L20.2188 43.0156
L29.1094 43.0156
Q36.375 43.0156 40.2344 45.9219
Q44.0938 48.8281 44.0938 54.2969
Q44.0938 59.9062 40.1094 62.9062
Q36.1406 65.9219 28.7188 65.9219
Q24.6562 65.9219 20.0156 65.0312
Q15.375 64.1562 9.8125 62.3125
L9.8125 71.0938
Q15.4375 72.6562 20.3438 73.4375
Q25.25 74.2188 29.5938 74.2188
Q40.8281 74.2188 47.3594 69.1094
Q53.9062 64.0156 53.9062 55.3281
Q53.9062 49.2656 50.4375 45.0938
Q46.9688 40.9219 40.5781 39.3125" id="BitstreamVeraSans-Roman-33"/>
      </defs>
      <g transform="translate(30.5009375 252.815291054)scale(0.12 -0.12)">
       <use xlink:href="#BitstreamVeraSans-Roman-2212"/>
       <use x="83.7890625" xlink:href="#BitstreamVeraSans-Roman-33"/>
      </g>
     </g>
    </g>
    <g id="ytick_2">
     <g id="line2d_17">
      <g>
       <use style="stroke:#000000;stroke-width:0.5;" x="49.9584375" xlink:href="#m728421d6d4" y="235.269360703"/>
      </g>
     </g>
     <g id="line2d_18">
      <g>
       <use style="stroke:#000000;stroke-width:0.5;" x="552.65484375" xlink:href="#mcb0005524f" y="235.269360703"/>
      </g>
     </g>
     <g id="text_8">
      <!-- −2 -->
      <g transform="translate(30.7409375 238.580610703)scale(0.12 -0.12)">
       <use xlink:href="#BitstreamVeraSans-Roman-2212"/>
       <use x="83.7890625" xlink:href="#BitstreamVeraSans-Roman-32"/>
      </g>
     </g>
    </g>
    <g id="ytick_3">
     <g id="line2d_19">
      <g>
       <use style="stroke:#000000;stroke-width:0.5;" x="49.9584375" xlink:href="#m728421d6d4" y="221.034680351"/>
      </g>
     </g>
     <g id="line2d_20">
      <g>
       <use style="stroke:#000000;stroke-width:0.5;" x="552.65484375" xlink:href="#mcb0005524f" y="221.034680351"/>
      </g>
     </g>
     <g id="text_9">
      <!-- −1 -->
      <g transform="translate(30.6471875 224.345930351)scale(0.12 -0.12)">
       <use xlink:href="#BitstreamVeraSans-Roman-2212"/>
       <use x="83.7890625" xlink:href="#BitstreamVeraSans-Roman-31"/>
      </g>
     </g>
    </g>
    <g id="ytick_4">
     <g id="line2d_21">
      <g>
       <use style="stroke:#000000;stroke-width:0.5;" x="49.9584375" xlink:href="#m728421d6d4" y="206.8"/>
      </g>
     </g>
     <g id="line2d_22">
      <g>
       <use style="stroke:#000000;stroke-width:0.5;" x="552.65484375" xlink:href="#mcb0005524f" y="206.8"/>
      </g>
     </g>
     <g id="text_10">
      <!-- 0 -->
      <g transform="translate(39.9115625 210.11125)scale(0.12 -0.12)">
       <use xlink:href="#BitstreamVeraSans-Roman-30"/>
      </g>
     </g>
    </g>
    <g id="ytick_5">
     <g id="line2d_23">
      <g>
       <use style="stroke:#000000;stroke-width:0.5;" x="49.9584375" xlink:href="#m728421d6d4" y="192.565319649"/>
      </g>
     </g>
     <g id="line2d_24">
      <g>
       <use style="stroke:#000000;stroke-width:0.5;" x="552.65484375" xlink:href="#mcb0005524f" y="192.565319649"/>
      </g>
     </g>
     <g id="text_11">
      <!-- 1 -->
      <g transform="translate(40.7496875 195.876569649)scale(0.12 -0.12)">
       <use xlink:href="#BitstreamVeraSans-Roman-31"/>
      </g>
     </g>
    </g>
    <g id="ytick_6">
     <g id="line2d_25">
      <g>
       <use style="stroke:#000000;stroke-width:0.5;" x="49.9584375" xlink:href="#m728421d6d4" y="178.330639297"/>
      </g>
     </g>
     <g id="line2d_26">
      <g>
       <use style="stroke:#000000;stroke-width:0.5;" x="552.65484375" xlink:href="#mcb0005524f" y="178.330639297"/>
      </g>
     </g>
     <g id="text_12">
      <!-- 2 -->
      <g transform="translate(40.4046875 181.641889297)scale(0.12 -0.12)">
       <use xlink:href="#BitstreamVeraSans-Roman-32"/>
      </g>
     </g>
    </g>
    <g id="ytick_7">
     <g id="line2d_27">
      <g>
       <use style="stroke:#000000;stroke-width:0.5;" x="49.9584375" xlink:href="#m728421d6d4" y="164.095958946"/>
      </g>
     </g>
     <g id="line2d_28">
      <g>
       <use style="stroke:#000000;stroke-width:0.5;" x="552.65484375" xlink:href="#mcb0005524f" y="164.095958946"/>
      </g>
     </g>
     <g id="text_13">
      <!-- 3 -->
      <g transform="translate(40.2003125 167.407208946)scale(0.12 -0.12)">
       <use xlink:href="#BitstreamVeraSans-Roman-33"/>
      </g>
     </g>
    </g>
   </g>
   <g id="text_14">
    <!-- Pulse v. Pupil:r=-0.069979  -->
    <defs>
     <path id="BitstreamVeraSans-Roman-20"/>
     <path d="
M8.20312 72.9062
L55.0781 72.9062
L55.0781 68.7031
L28.6094 0
L18.3125 0
L43.2188 64.5938
L8.20312 64.5938
z
" id="BitstreamVeraSans-Roman-37"/>
     <path d="
M10.9844 1.51562
L10.9844 10.5
Q14.7031 8.73438 18.5 7.8125
Q22.3125 6.89062 25.9844 6.89062
Q35.75 6.89062 40.8906 13.4531
Q46.0469 20.0156 46.7812 33.4062
Q43.9531 29.2031 39.5938 26.9531
Q35.25 24.7031 29.9844 24.7031
Q19.0469 24.7031 12.6719 31.3125
Q6.29688 37.9375 6.29688 49.4219
Q6.29688 60.6406 12.9375 67.4219
Q19.5781 74.2188 30.6094 74.2188
Q43.2656 74.2188 49.9219 64.5156
Q56.5938 54.8281 56.5938 36.375
Q56.5938 19.1406 48.4062 8.85938
Q40.2344 -1.42188 26.4219 -1.42188
Q22.7031 -1.42188 18.8906 -0.6875
Q15.0938 0.046875 10.9844 1.51562
M30.6094 32.4219
Q37.25 32.4219 41.125 36.9531
Q45.0156 41.5 45.0156 49.4219
Q45.0156 57.2812 41.125 61.8438
Q37.25 66.4062 30.6094 66.4062
Q23.9688 66.4062 20.0938 61.8438
Q16.2188 57.2812 16.2188 49.4219
Q16.2188 41.5 20.0938 36.9531
Q23.9688 32.4219 30.6094 32.4219" id="BitstreamVeraSans-Roman-39"/>
     <path d="
M9.42188 75.9844
L18.4062 75.9844
L18.4062 0
L9.42188 0
z
" id="BitstreamVeraSans-Roman-6c"/>
     <path d="
M19.6719 64.7969
L19.6719 37.4062
L32.0781 37.4062
Q38.9688 37.4062 42.7188 40.9688
Q46.4844 44.5312 46.4844 51.125
Q46.4844 57.6719 42.7188 61.2344
Q38.9688 64.7969 32.0781 64.7969
z

M9.8125 72.9062
L32.0781 72.9062
Q44.3438 72.9062 50.6094 67.3594
Q56.8906 61.8125 56.8906 51.125
Q56.8906 40.3281 50.6094 34.8125
Q44.3438 29.2969 32.0781 29.2969
L19.6719 29.2969
L19.6719 0
L9.8125 0
z
" id="BitstreamVeraSans-Roman-50"/>
     <path d="
M2.98438 54.6875
L12.5 54.6875
L29.5938 8.79688
L46.6875 54.6875
L56.2031 54.6875
L35.6875 0
L23.4844 0
z
" id="BitstreamVeraSans-Roman-76"/>
     <path d="
M11.7188 12.4062
L22.0156 12.4062
L22.0156 0
L11.7188 0
z

M11.7188 51.7031
L22.0156 51.7031
L22.0156 39.3125
L11.7188 39.3125
z
" id="BitstreamVeraSans-Roman-3a"/>
     <path d="
M10.6875 12.4062
L21 12.4062
L21 0
L10.6875 0
z
" id="BitstreamVeraSans-Roman-2e"/>
     <path d="
M4.89062 31.3906
L31.2031 31.3906
L31.2031 23.3906
L4.89062 23.3906
z
" id="BitstreamVeraSans-Roman-2d"/>
     <path d="
M10.5938 45.4062
L73.1875 45.4062
L73.1875 37.2031
L10.5938 37.2031
z

M10.5938 25.4844
L73.1875 25.4844
L73.1875 17.1875
L10.5938 17.1875
z
" id="BitstreamVeraSans-Roman-3d"/>
     <path d="
M56.2031 29.5938
L56.2031 25.2031
L14.8906 25.2031
Q15.4844 15.9219 20.4844 11.0625
Q25.4844 6.20312 34.4219 6.20312
Q39.5938 6.20312 44.4531 7.46875
Q49.3125 8.73438 54.1094 11.2812
L54.1094 2.78125
Q49.2656 0.734375 44.1875 -0.34375
Q39.1094 -1.42188 33.8906 -1.42188
Q20.7969 -1.42188 13.1562 6.1875
Q5.51562 13.8125 5.51562 26.8125
Q5.51562 40.2344 12.7656 48.1094
Q20.0156 56 32.3281 56
Q43.3594 56 49.7812 48.8906
Q56.2031 41.7969 56.2031 29.5938
M47.2188 32.2344
Q47.125 39.5938 43.0938 43.9844
Q39.0625 48.3906 32.4219 48.3906
Q24.9062 48.3906 20.3906 44.1406
Q15.875 39.8906 15.1875 32.1719
z
" id="BitstreamVeraSans-Roman-65"/>
     <path d="
M9.42188 54.6875
L18.4062 54.6875
L18.4062 0
L9.42188 0
z

M9.42188 75.9844
L18.4062 75.9844
L18.4062 64.5938
L9.42188 64.5938
z
" id="BitstreamVeraSans-Roman-69"/>
     <path d="
M8.5 21.5781
L8.5 54.6875
L17.4844 54.6875
L17.4844 21.9219
Q17.4844 14.1562 20.5 10.2656
Q23.5312 6.39062 29.5938 6.39062
Q36.8594 6.39062 41.0781 11.0312
Q45.3125 15.6719 45.3125 23.6875
L45.3125 54.6875
L54.2969 54.6875
L54.2969 0
L45.3125 0
L45.3125 8.40625
Q42.0469 3.42188 37.7188 1
Q33.4062 -1.42188 27.6875 -1.42188
Q18.2656 -1.42188 13.375 4.4375
Q8.5 10.2969 8.5 21.5781" id="BitstreamVeraSans-Roman-75"/>
     <path d="
M41.1094 46.2969
Q39.5938 47.1719 37.8125 47.5781
Q36.0312 48 33.8906 48
Q26.2656 48 22.1875 43.0469
Q18.1094 38.0938 18.1094 28.8125
L18.1094 0
L9.07812 0
L9.07812 54.6875
L18.1094 54.6875
L18.1094 46.1875
Q20.9531 51.1719 25.4844 53.5781
Q30.0312 56 36.5312 56
Q37.4531 56 38.5781 55.875
Q39.7031 55.7656 41.0625 55.5156
z
" id="BitstreamVeraSans-Roman-72"/>
     <path d="
M44.2812 53.0781
L44.2812 44.5781
Q40.4844 46.5312 36.375 47.5
Q32.2812 48.4844 27.875 48.4844
Q21.1875 48.4844 17.8438 46.4375
Q14.5 44.3906 14.5 40.2812
Q14.5 37.1562 16.8906 35.375
Q19.2812 33.5938 26.5156 31.9844
L29.5938 31.2969
Q39.1562 29.25 43.1875 25.5156
Q47.2188 21.7812 47.2188 15.0938
Q47.2188 7.46875 41.1875 3.01562
Q35.1562 -1.42188 24.6094 -1.42188
Q20.2188 -1.42188 15.4531 -0.5625
Q10.6875 0.296875 5.42188 2
L5.42188 11.2812
Q10.4062 8.6875 15.2344 7.39062
Q20.0625 6.10938 24.8125 6.10938
Q31.1562 6.10938 34.5625 8.28125
Q37.9844 10.4531 37.9844 14.4062
Q37.9844 18.0625 35.5156 20.0156
Q33.0625 21.9688 24.7031 23.7812
L21.5781 24.5156
Q13.2344 26.2656 9.51562 29.9062
Q5.8125 33.5469 5.8125 39.8906
Q5.8125 47.6094 11.2812 51.7969
Q16.75 56 26.8125 56
Q31.7812 56 36.1719 55.2656
Q40.5781 54.5469 44.2812 53.0781" id="BitstreamVeraSans-Roman-73"/>
     <path d="
M18.1094 8.20312
L18.1094 -20.7969
L9.07812 -20.7969
L9.07812 54.6875
L18.1094 54.6875
L18.1094 46.3906
Q20.9531 51.2656 25.2656 53.625
Q29.5938 56 35.5938 56
Q45.5625 56 51.7812 48.0938
Q58.0156 40.1875 58.0156 27.2969
Q58.0156 14.4062 51.7812 6.48438
Q45.5625 -1.42188 35.5938 -1.42188
Q29.5938 -1.42188 25.2656 0.953125
Q20.9531 3.32812 18.1094 8.20312
M48.6875 27.2969
Q48.6875 37.2031 44.6094 42.8438
Q40.5312 48.4844 33.4062 48.4844
Q26.2656 48.4844 22.1875 42.8438
Q18.1094 37.2031 18.1094 27.2969
Q18.1094 17.3906 22.1875 11.75
Q26.2656 6.10938 33.4062 6.10938
Q40.5312 6.10938 44.6094 11.75
Q48.6875 17.3906 48.6875 27.2969" id="BitstreamVeraSans-Roman-70"/>
    </defs>
    <g transform="translate(54.9854015625 157.267035548)scale(0.12 -0.12)">
     <use xlink:href="#BitstreamVeraSans-Roman-50"/>
     <use x="58.552734375" xlink:href="#BitstreamVeraSans-Roman-75"/>
     <use x="121.931640625" xlink:href="#BitstreamVeraSans-Roman-6c"/>
     <use x="149.71484375" xlink:href="#BitstreamVeraSans-Roman-73"/>
     <use x="201.814453125" xlink:href="#BitstreamVeraSans-Roman-65"/>
     <use x="263.337890625" xlink:href="#BitstreamVeraSans-Roman-20"/>
     <use x="295.125" xlink:href="#BitstreamVeraSans-Roman-76"/>
     <use x="346.5546875" xlink:href="#BitstreamVeraSans-Roman-2e"/>
     <use x="378.341796875" xlink:href="#BitstreamVeraSans-Roman-20"/>
     <use x="410.12890625" xlink:href="#BitstreamVeraSans-Roman-50"/>
     <use x="468.681640625" xlink:href="#BitstreamVeraSans-Roman-75"/>
     <use x="532.060546875" xlink:href="#BitstreamVeraSans-Roman-70"/>
     <use x="595.537109375" xlink:href="#BitstreamVeraSans-Roman-69"/>
     <use x="623.3203125" xlink:href="#BitstreamVeraSans-Roman-6c"/>
     <use x="651.103515625" xlink:href="#BitstreamVeraSans-Roman-3a"/>
     <use x="684.794921875" xlink:href="#BitstreamVeraSans-Roman-72"/>
     <use x="725.908203125" xlink:href="#BitstreamVeraSans-Roman-3d"/>
     <use x="809.697265625" xlink:href="#BitstreamVeraSans-Roman-2d"/>
     <use x="845.78125" xlink:href="#BitstreamVeraSans-Roman-30"/>
     <use x="909.404296875" xlink:href="#BitstreamVeraSans-Roman-2e"/>
     <use x="941.19140625" xlink:href="#BitstreamVeraSans-Roman-30"/>
     <use x="1004.81445312" xlink:href="#BitstreamVeraSans-Roman-36"/>
     <use x="1068.4375" xlink:href="#BitstreamVeraSans-Roman-39"/>
     <use x="1132.06054688" xlink:href="#BitstreamVeraSans-Roman-39"/>
     <use x="1195.68359375" xlink:href="#BitstreamVeraSans-Roman-37"/>
     <use x="1259.30664062" xlink:href="#BitstreamVeraSans-Roman-39"/>
     <use x="1322.9296875" xlink:href="#BitstreamVeraSans-Roman-20"/>
    </g>
    <!--  p=0.507429 -->
    <defs>
     <path d="
M10.7969 72.9062
L49.5156 72.9062
L49.5156 64.5938
L19.8281 64.5938
L19.8281 46.7344
Q21.9688 47.4688 24.1094 47.8281
Q26.2656 48.1875 28.4219 48.1875
Q40.625 48.1875 47.75 41.5
Q54.8906 34.8125 54.8906 23.3906
Q54.8906 11.625 47.5625 5.09375
Q40.2344 -1.42188 26.9062 -1.42188
Q22.3125 -1.42188 17.5469 -0.640625
Q12.7969 0.140625 7.71875 1.70312
L7.71875 11.625
Q12.1094 9.23438 16.7969 8.0625
Q21.4844 6.89062 26.7031 6.89062
Q35.1562 6.89062 40.0781 11.3281
Q45.0156 15.7656 45.0156 23.3906
Q45.0156 31 40.0781 35.4375
Q35.1562 39.8906 26.7031 39.8906
Q22.75 39.8906 18.8125 39.0156
Q14.8906 38.1406 10.7969 36.2812
z
" id="BitstreamVeraSans-Roman-35"/>
    </defs>
    <g transform="translate(54.9854015625 170.704410548)scale(0.12 -0.12)">
     <use xlink:href="#BitstreamVeraSans-Roman-20"/>
     <use x="31.787109375" xlink:href="#BitstreamVeraSans-Roman-70"/>
     <use x="95.263671875" xlink:href="#BitstreamVeraSans-Roman-3d"/>
     <use x="179.052734375" xlink:href="#BitstreamVeraSans-Roman-30"/>
     <use x="242.67578125" xlink:href="#BitstreamVeraSans-Roman-2e"/>
     <use x="274.462890625" xlink:href="#BitstreamVeraSans-Roman-35"/>
     <use x="338.0859375" xlink:href="#BitstreamVeraSans-Roman-30"/>
     <use x="401.708984375" xlink:href="#BitstreamVeraSans-Roman-37"/>
     <use x="465.33203125" xlink:href="#BitstreamVeraSans-Roman-34"/>
     <use x="528.955078125" xlink:href="#BitstreamVeraSans-Roman-32"/>
     <use x="592.578125" xlink:href="#BitstreamVeraSans-Roman-39"/>
    </g>
   </g>
   <g id="text_15">
    <!-- Pupil Diameter in Stress Trials -->
    <defs>
     <path d="
M54.8906 33.0156
L54.8906 0
L45.9062 0
L45.9062 32.7188
Q45.9062 40.4844 42.875 44.3281
Q39.8438 48.1875 33.7969 48.1875
Q26.5156 48.1875 22.3125 43.5469
Q18.1094 38.9219 18.1094 30.9062
L18.1094 0
L9.07812 0
L9.07812 54.6875
L18.1094 54.6875
L18.1094 46.1875
Q21.3438 51.125 25.7031 53.5625
Q30.0781 56 35.7969 56
Q45.2188 56 50.0469 50.1719
Q54.8906 44.3438 54.8906 33.0156" id="BitstreamVeraSans-Roman-6e"/>
     <path d="
M52 44.1875
Q55.375 50.25 60.0625 53.125
Q64.75 56 71.0938 56
Q79.6406 56 84.2812 50.0156
Q88.9219 44.0469 88.9219 33.0156
L88.9219 0
L79.8906 0
L79.8906 32.7188
Q79.8906 40.5781 77.0938 44.375
Q74.3125 48.1875 68.6094 48.1875
Q61.625 48.1875 57.5625 43.5469
Q53.5156 38.9219 53.5156 30.9062
L53.5156 0
L44.4844 0
L44.4844 32.7188
Q44.4844 40.625 41.7031 44.4062
Q38.9219 48.1875 33.1094 48.1875
Q26.2188 48.1875 22.1562 43.5312
Q18.1094 38.875 18.1094 30.9062
L18.1094 0
L9.07812 0
L9.07812 54.6875
L18.1094 54.6875
L18.1094 46.1875
Q21.1875 51.2188 25.4844 53.6094
Q29.7812 56 35.6875 56
Q41.6562 56 45.8281 52.9688
Q50 49.9531 52 44.1875" id="BitstreamVeraSans-Roman-6d"/>
     <path d="
M19.6719 64.7969
L19.6719 8.10938
L31.5938 8.10938
Q46.6875 8.10938 53.6875 14.9375
Q60.6875 21.7812 60.6875 36.5312
Q60.6875 51.1719 53.6875 57.9844
Q46.6875 64.7969 31.5938 64.7969
z

M9.8125 72.9062
L30.0781 72.9062
Q51.2656 72.9062 61.1719 64.0938
Q71.0938 55.2812 71.0938 36.5312
Q71.0938 17.6719 61.125 8.82812
Q51.1719 0 30.0781 0
L9.8125 0
z
" id="BitstreamVeraSans-Roman-44"/>
     <path d="
M-0.296875 72.9062
L61.375 72.9062
L61.375 64.5938
L35.5 64.5938
L35.5 0
L25.5938 0
L25.5938 64.5938
L-0.296875 64.5938
z
" id="BitstreamVeraSans-Roman-54"/>
     <path d="
M18.3125 70.2188
L18.3125 54.6875
L36.8125 54.6875
L36.8125 47.7031
L18.3125 47.7031
L18.3125 18.0156
Q18.3125 11.3281 20.1406 9.42188
Q21.9688 7.51562 27.5938 7.51562
L36.8125 7.51562
L36.8125 0
L27.5938 0
Q17.1875 0 13.2344 3.875
Q9.28125 7.76562 9.28125 18.0156
L9.28125 47.7031
L2.6875 47.7031
L2.6875 54.6875
L9.28125 54.6875
L9.28125 70.2188
z
" id="BitstreamVeraSans-Roman-74"/>
     <path d="
M34.2812 27.4844
Q23.3906 27.4844 19.1875 25
Q14.9844 22.5156 14.9844 16.5
Q14.9844 11.7188 18.1406 8.90625
Q21.2969 6.10938 26.7031 6.10938
Q34.1875 6.10938 38.7031 11.4062
Q43.2188 16.7031 43.2188 25.4844
L43.2188 27.4844
z

M52.2031 31.2031
L52.2031 0
L43.2188 0
L43.2188 8.29688
Q40.1406 3.32812 35.5469 0.953125
Q30.9531 -1.42188 24.3125 -1.42188
Q15.9219 -1.42188 10.9531 3.29688
Q6 8.01562 6 15.9219
Q6 25.1406 12.1719 29.8281
Q18.3594 34.5156 30.6094 34.5156
L43.2188 34.5156
L43.2188 35.4062
Q43.2188 41.6094 39.1406 45
Q35.0625 48.3906 27.6875 48.3906
Q23 48.3906 18.5469 47.2656
Q14.1094 46.1406 10.0156 43.8906
L10.0156 52.2031
Q14.9375 54.1094 19.5781 55.0469
Q24.2188 56 28.6094 56
Q40.4844 56 46.3438 49.8438
Q52.2031 43.7031 52.2031 31.2031" id="BitstreamVeraSans-Roman-61"/>
     <path d="
M53.5156 70.5156
L53.5156 60.8906
Q47.9062 63.5781 42.9219 64.8906
Q37.9375 66.2188 33.2969 66.2188
Q25.25 66.2188 20.875 63.0938
Q16.5 59.9688 16.5 54.2031
Q16.5 49.3594 19.4062 46.8906
Q22.3125 44.4375 30.4219 42.9219
L36.375 41.7031
Q47.4062 39.5938 52.6562 34.2969
Q57.9062 29 57.9062 20.125
Q57.9062 9.51562 50.7969 4.04688
Q43.7031 -1.42188 29.9844 -1.42188
Q24.8125 -1.42188 18.9688 -0.25
Q13.1406 0.921875 6.89062 3.21875
L6.89062 13.375
Q12.8906 10.0156 18.6562 8.29688
Q24.4219 6.59375 29.9844 6.59375
Q38.4219 6.59375 43.0156 9.90625
Q47.6094 13.2344 47.6094 19.3906
Q47.6094 24.75 44.3125 27.7812
Q41.0156 30.8125 33.5 32.3281
L27.4844 33.5
Q16.4531 35.6875 11.5156 40.375
Q6.59375 45.0625 6.59375 53.4219
Q6.59375 63.0938 13.4062 68.6562
Q20.2188 74.2188 32.1719 74.2188
Q37.3125 74.2188 42.625 73.2812
Q47.9531 72.3594 53.5156 70.5156" id="BitstreamVeraSans-Roman-53"/>
    </defs>
    <g transform="translate(194.396765625 159.095958946)scale(0.144 -0.144)">
     <use xlink:href="#BitstreamVeraSans-Roman-50"/>
     <use x="58.552734375" xlink:href="#BitstreamVeraSans-Roman-75"/>
     <use x="121.931640625" xlink:href="#BitstreamVeraSans-Roman-70"/>
     <use x="185.408203125" xlink:href="#BitstreamVeraSans-Roman-69"/>
     <use x="213.19140625" xlink:href="#BitstreamVeraSans-Roman-6c"/>
     <use x="240.974609375" xlink:href="#BitstreamVeraSans-Roman-20"/>
     <use x="272.76171875" xlink:href="#BitstreamVeraSans-Roman-44"/>
     <use x="349.763671875" xlink:href="#BitstreamVeraSans-Roman-69"/>
     <use x="377.546875" xlink:href="#BitstreamVeraSans-Roman-61"/>
     <use x="438.826171875" xlink:href="#BitstreamVeraSans-Roman-6d"/>
     <use x="536.23828125" xlink:href="#BitstreamVeraSans-Roman-65"/>
     <use x="597.76171875" xlink:href="#BitstreamVeraSans-Roman-74"/>
     <use x="636.970703125" xlink:href="#BitstreamVeraSans-Roman-65"/>
     <use x="698.494140625" xlink:href="#BitstreamVeraSans-Roman-72"/>
     <use x="739.607421875" xlink:href="#BitstreamVeraSans-Roman-20"/>
     <use x="771.39453125" xlink:href="#BitstreamVeraSans-Roman-69"/>
     <use x="799.177734375" xlink:href="#BitstreamVeraSans-Roman-6e"/>
     <use x="862.556640625" xlink:href="#BitstreamVeraSans-Roman-20"/>
     <use x="894.34375" xlink:href="#BitstreamVeraSans-Roman-53"/>
     <use x="957.8203125" xlink:href="#BitstreamVeraSans-Roman-74"/>
     <use x="997.029296875" xlink:href="#BitstreamVeraSans-Roman-72"/>
     <use x="1035.89257812" xlink:href="#BitstreamVeraSans-Roman-65"/>
     <use x="1097.41601562" xlink:href="#BitstreamVeraSans-Roman-73"/>
     <use x="1149.515625" xlink:href="#BitstreamVeraSans-Roman-73"/>
     <use x="1201.61523438" xlink:href="#BitstreamVeraSans-Roman-20"/>
     <use x="1233.40234375" xlink:href="#BitstreamVeraSans-Roman-54"/>
     <use x="1279.73632812" xlink:href="#BitstreamVeraSans-Roman-72"/>
     <use x="1320.84960938" xlink:href="#BitstreamVeraSans-Roman-69"/>
     <use x="1348.6328125" xlink:href="#BitstreamVeraSans-Roman-61"/>
     <use x="1409.91210938" xlink:href="#BitstreamVeraSans-Roman-6c"/>
     <use x="1437.6953125" xlink:href="#BitstreamVeraSans-Roman-73"/>
    </g>
   </g>
  </g>
  <g id="axes_2">
   <g id="patch_7">
    <path d="
M49.9584 114.168
L552.655 114.168
L552.655 28.76
L49.9584 28.76
z
" style="fill:#ffffff;"/>
   </g>
   <g id="line2d_29">
    <path clip-path="url(#p4f6caeed50)" d="
M54.1476 54.362
L58.3367 54.8369
L62.5258 68.2111
L66.715 75.821
L70.9041 49.1261
L75.0933 67.4293
L79.2824 74.6268
L83.4715 52.7476
L87.6607 55.7454
L91.8498 67.1097
L96.0389 72.6243
L100.228 74.5774
L104.417 63.1752
L108.606 44.6081
L112.795 44.4143
L116.985 88.8106
L121.174 59.8913
L125.363 69.7287
L129.552 71.921
L133.741 69.4776
L137.93 57.6442
L142.119 75.1719
L146.309 72.327
L150.498 66.4278
L154.687 76.6961
L158.876 45.8535
L163.065 58.7217
L167.254 111.369
L171.443 69.9937
L175.633 71.8858
L179.822 69.5869
L184.011 44.7568
L188.2 85.3088
L192.389 63.109
L196.578 48.0054
L200.767 68.2139
L204.956 88.4018
L209.146 96.416
L213.335 49.7083
L217.524 101.2
L221.713 76.173
L225.902 88.7384
L230.091 65.5586
L234.28 61.6083
L238.47 87.604
L242.659 120.383
L246.848 51.4482
L251.037 69.7398
L255.226 106.947
L259.415 59.693
L263.604 74.0338
L267.794 93.7777
L271.983 100.281
L276.172 88.0369
L280.361 66.834
L284.55 62.0719
L288.739 80.0629
L292.928 56.3008
L297.118 77.1315
L301.307 75.211
L305.496 84.9198
L309.685 51.7927
L313.874 60.3291
L318.063 68.3012
L322.252 98.3678
L326.441 83.7138
L330.631 70.5278
L334.82 69.7663
L339.009 66.0295
L343.198 62.195
L347.387 60.5384
L351.576 61.717
L355.765 60.1962
L359.955 66.2312
L364.144 95.9619
L368.333 78.6762
L372.522 68.7518
L376.711 58.1162
L380.9 64.4148
L385.089 76.9043
L389.279 88.0039
L393.468 102.248
L397.657 94.6968
L401.846 77.6429
L406.035 96.9281
L410.224 91.0657
L414.413 55.9498
L418.602 53.5432
L422.792 38.9551
L426.981 67.0901
L431.17 62.2241
L435.359 88.103
L439.548 74.2753
L443.737 79.5709
L447.926 60.4541
L452.116 84.6923
L456.305 65.0516
L460.494 100.878
L464.683 69.8507
L468.872 83.8246
L473.061 68.565" style="fill:none;stroke:#0000ff;stroke-linecap:square;"/>
   </g>
   <g id="line2d_30">
    <path clip-path="url(#p4f6caeed50)" d="
M54.1476 66.3165
L58.3367 66.4303
L62.5258 66.5441
L66.715 66.6579
L70.9041 66.7718
L75.0933 66.8856
L79.2824 66.9994
L83.4715 67.1132
L87.6607 67.227
L91.8498 67.3408
L96.0389 67.4547
L100.228 67.5685
L104.417 67.6823
L108.606 67.7961
L112.795 67.9099
L116.985 68.0237
L121.174 68.1376
L125.363 68.2514
L129.552 68.3652
L133.741 68.479
L137.93 68.5928
L142.119 68.7066
L146.309 68.8205
L150.498 68.9343
L154.687 69.0481
L158.876 69.1619
L163.065 69.2757
L167.254 69.3895
L171.443 69.5034
L175.633 69.6172
L179.822 69.731
L184.011 69.8448
L188.2 69.9586
L192.389 70.0724
L196.578 70.1863
L200.767 70.3001
L204.956 70.4139
L209.146 70.5277
L213.335 70.6415
L217.524 70.7553
L221.713 70.8692
L225.902 70.983
L230.091 71.0968
L234.28 71.2106
L238.47 71.3244
L242.659 71.4382
L246.848 71.5521
L251.037 71.6659
L255.226 71.7797
L259.415 71.8935
L263.604 72.0073
L267.794 72.1211
L271.983 72.235
L276.172 72.3488
L280.361 72.4626
L284.55 72.5764
L288.739 72.6902
L292.928 72.804
L297.118 72.9179
L301.307 73.0317
L305.496 73.1455
L309.685 73.2593
L313.874 73.3731
L318.063 73.4869
L322.252 73.6008
L326.441 73.7146
L330.631 73.8284
L334.82 73.9422
L339.009 74.056
L343.198 74.1698
L347.387 74.2837
L351.576 74.3975
L355.765 74.5113
L359.955 74.6251
L364.144 74.7389
L368.333 74.8527
L372.522 74.9666
L376.711 75.0804
L380.9 75.1942
L385.089 75.308
L389.279 75.4218
L393.468 75.5356
L397.657 75.6495
L401.846 75.7633
L406.035 75.8771
L410.224 75.9909
L414.413 76.1047
L418.602 76.2185
L422.792 76.3324
L426.981 76.4462
L431.17 76.56
L435.359 76.6738
L439.548 76.7876
L443.737 76.9014
L447.926 77.0153
L452.116 77.1291
L456.305 77.2429
L460.494 77.3567
L464.683 77.4705
L468.872 77.5843
L473.061 77.6982" style="fill:none;stroke:#0000ff;stroke-dasharray:6.000000,6.000000;stroke-dashoffset:0.0;"/>
   </g>
   <g id="patch_8">
    <path d="
M49.9584 28.76
L552.655 28.76" style="fill:none;stroke:#000000;stroke-linecap:square;stroke-linejoin:miter;"/>
   </g>
   <g id="patch_9">
    <path d="
M552.655 114.168
L552.655 28.76" style="fill:none;stroke:#000000;stroke-linecap:square;stroke-linejoin:miter;"/>
   </g>
   <g id="patch_10">
    <path d="
M49.9584 114.168
L552.655 114.168" style="fill:none;stroke:#000000;stroke-linecap:square;stroke-linejoin:miter;"/>
   </g>
   <g id="patch_11">
    <path d="
M49.9584 114.168
L49.9584 28.76" style="fill:none;stroke:#000000;stroke-linecap:square;stroke-linejoin:miter;"/>
   </g>
   <g id="matplotlib.axis_3">
    <g id="xtick_7">
     <g id="line2d_31">
      <g>
       <use style="stroke:#000000;stroke-width:0.5;" x="49.9584375" xlink:href="#m93b0483c22" y="114.168082108"/>
      </g>
     </g>
     <g id="line2d_32">
      <g>
       <use style="stroke:#000000;stroke-width:0.5;" x="49.9584375" xlink:href="#m741efc42ff" y="28.76"/>
      </g>
     </g>
     <g id="text_16">
      <!-- 0 -->
      <g transform="translate(46.935 127.286207108)scale(0.12 -0.12)">
       <use xlink:href="#BitstreamVeraSans-Roman-30"/>
      </g>
     </g>
    </g>
    <g id="xtick_8">
     <g id="line2d_33">
      <g>
       <use style="stroke:#000000;stroke-width:0.5;" x="133.741171875" xlink:href="#m93b0483c22" y="114.168082108"/>
      </g>
     </g>
     <g id="line2d_34">
      <g>
       <use style="stroke:#000000;stroke-width:0.5;" x="133.741171875" xlink:href="#m741efc42ff" y="28.76"/>
      </g>
     </g>
     <g id="text_17">
      <!-- 20 -->
      <g transform="translate(126.944296875 127.286207108)scale(0.12 -0.12)">
       <use xlink:href="#BitstreamVeraSans-Roman-32"/>
       <use x="63.623046875" xlink:href="#BitstreamVeraSans-Roman-30"/>
      </g>
     </g>
    </g>
    <g id="xtick_9">
     <g id="line2d_35">
      <g>
       <use style="stroke:#000000;stroke-width:0.5;" x="217.52390625" xlink:href="#m93b0483c22" y="114.168082108"/>
      </g>
     </g>
     <g id="line2d_36">
      <g>
       <use style="stroke:#000000;stroke-width:0.5;" x="217.52390625" xlink:href="#m741efc42ff" y="28.76"/>
      </g>
     </g>
     <g id="text_18">
      <!-- 40 -->
      <g transform="translate(210.58078125 127.286207108)scale(0.12 -0.12)">
       <use xlink:href="#BitstreamVeraSans-Roman-34"/>
       <use x="63.623046875" xlink:href="#BitstreamVeraSans-Roman-30"/>
      </g>
     </g>
    </g>
    <g id="xtick_10">
     <g id="line2d_37">
      <g>
       <use style="stroke:#000000;stroke-width:0.5;" x="301.306640625" xlink:href="#m93b0483c22" y="114.168082108"/>
      </g>
     </g>
     <g id="line2d_38">
      <g>
       <use style="stroke:#000000;stroke-width:0.5;" x="301.306640625" xlink:href="#m741efc42ff" y="28.76"/>
      </g>
     </g>
     <g id="text_19">
      <!-- 60 -->
      <g transform="translate(294.489140625 127.286207108)scale(0.12 -0.12)">
       <use xlink:href="#BitstreamVeraSans-Roman-36"/>
       <use x="63.623046875" xlink:href="#BitstreamVeraSans-Roman-30"/>
      </g>
     </g>
    </g>
    <g id="xtick_11">
     <g id="line2d_39">
      <g>
       <use style="stroke:#000000;stroke-width:0.5;" x="385.089375" xlink:href="#m93b0483c22" y="114.168082108"/>
      </g>
     </g>
     <g id="line2d_40">
      <g>
       <use style="stroke:#000000;stroke-width:0.5;" x="385.089375" xlink:href="#m741efc42ff" y="28.76"/>
      </g>
     </g>
     <g id="text_20">
      <!-- 80 -->
      <g transform="translate(378.2596875 127.286207108)scale(0.12 -0.12)">
       <use xlink:href="#BitstreamVeraSans-Roman-38"/>
       <use x="63.623046875" xlink:href="#BitstreamVeraSans-Roman-30"/>
      </g>
     </g>
    </g>
    <g id="xtick_12">
     <g id="line2d_41">
      <g>
       <use style="stroke:#000000;stroke-width:0.5;" x="468.872109375" xlink:href="#m93b0483c22" y="114.168082108"/>
      </g>
     </g>
     <g id="line2d_42">
      <g>
       <use style="stroke:#000000;stroke-width:0.5;" x="468.872109375" xlink:href="#m741efc42ff" y="28.76"/>
      </g>
     </g>
     <g id="text_21">
      <!-- 100 -->
      <g transform="translate(458.477109375 127.286207108)scale(0.12 -0.12)">
       <use xlink:href="#BitstreamVeraSans-Roman-31"/>
       <use x="63.623046875" xlink:href="#BitstreamVeraSans-Roman-30"/>
       <use x="127.24609375" xlink:href="#BitstreamVeraSans-Roman-30"/>
      </g>
     </g>
    </g>
    <g id="xtick_13">
     <g id="line2d_43">
      <g>
       <use style="stroke:#000000;stroke-width:0.5;" x="552.65484375" xlink:href="#m93b0483c22" y="114.168082108"/>
      </g>
     </g>
     <g id="line2d_44">
      <g>
       <use style="stroke:#000000;stroke-width:0.5;" x="552.65484375" xlink:href="#m741efc42ff" y="28.76"/>
      </g>
     </g>
     <g id="text_22">
      <!-- 120 -->
      <g transform="translate(542.25984375 127.286207108)scale(0.12 -0.12)">
       <use xlink:href="#BitstreamVeraSans-Roman-31"/>
       <use x="63.623046875" xlink:href="#BitstreamVeraSans-Roman-32"/>
       <use x="127.24609375" xlink:href="#BitstreamVeraSans-Roman-30"/>
      </g>
     </g>
    </g>
   </g>
   <g id="matplotlib.axis_4">
    <g id="ytick_8">
     <g id="line2d_45">
      <g>
       <use style="stroke:#000000;stroke-width:0.5;" x="49.9584375" xlink:href="#m728421d6d4" y="114.168082108"/>
      </g>
     </g>
     <g id="line2d_46">
      <g>
       <use style="stroke:#000000;stroke-width:0.5;" x="552.65484375" xlink:href="#mcb0005524f" y="114.168082108"/>
      </g>
     </g>
     <g id="text_23">
      <!-- −3 -->
      <g transform="translate(30.5009375 117.479332108)scale(0.12 -0.12)">
       <use xlink:href="#BitstreamVeraSans-Roman-2212"/>
       <use x="83.7890625" xlink:href="#BitstreamVeraSans-Roman-33"/>
      </g>
     </g>
    </g>
    <g id="ytick_9">
     <g id="line2d_47">
      <g>
       <use style="stroke:#000000;stroke-width:0.5;" x="49.9584375" xlink:href="#m728421d6d4" y="99.9334017565"/>
      </g>
     </g>
     <g id="line2d_48">
      <g>
       <use style="stroke:#000000;stroke-width:0.5;" x="552.65484375" xlink:href="#mcb0005524f" y="99.9334017565"/>
      </g>
     </g>
     <g id="text_24">
      <!-- −2 -->
      <g transform="translate(30.7409375 103.244651757)scale(0.12 -0.12)">
       <use xlink:href="#BitstreamVeraSans-Roman-2212"/>
       <use x="83.7890625" xlink:href="#BitstreamVeraSans-Roman-32"/>
      </g>
     </g>
    </g>
    <g id="ytick_10">
     <g id="line2d_49">
      <g>
       <use style="stroke:#000000;stroke-width:0.5;" x="49.9584375" xlink:href="#m728421d6d4" y="85.6987214052"/>
      </g>
     </g>
     <g id="line2d_50">
      <g>
       <use style="stroke:#000000;stroke-width:0.5;" x="552.65484375" xlink:href="#mcb0005524f" y="85.6987214052"/>
      </g>
     </g>
     <g id="text_25">
      <!-- −1 -->
      <g transform="translate(30.6471875 89.0099714052)scale(0.12 -0.12)">
       <use xlink:href="#BitstreamVeraSans-Roman-2212"/>
       <use x="83.7890625" xlink:href="#BitstreamVeraSans-Roman-31"/>
      </g>
     </g>
    </g>
    <g id="ytick_11">
     <g id="line2d_51">
      <g>
       <use style="stroke:#000000;stroke-width:0.5;" x="49.9584375" xlink:href="#m728421d6d4" y="71.4640410539"/>
      </g>
     </g>
     <g id="line2d_52">
      <g>
       <use style="stroke:#000000;stroke-width:0.5;" x="552.65484375" xlink:href="#mcb0005524f" y="71.4640410539"/>
      </g>
     </g>
     <g id="text_26">
      <!-- 0 -->
      <g transform="translate(39.9115625 74.7752910539)scale(0.12 -0.12)">
       <use xlink:href="#BitstreamVeraSans-Roman-30"/>
      </g>
     </g>
    </g>
    <g id="ytick_12">
     <g id="line2d_53">
      <g>
       <use style="stroke:#000000;stroke-width:0.5;" x="49.9584375" xlink:href="#m728421d6d4" y="57.2293607026"/>
      </g>
     </g>
     <g id="line2d_54">
      <g>
       <use style="stroke:#000000;stroke-width:0.5;" x="552.65484375" xlink:href="#mcb0005524f" y="57.2293607026"/>
      </g>
     </g>
     <g id="text_27">
      <!-- 1 -->
      <g transform="translate(40.7496875 60.5406107026)scale(0.12 -0.12)">
       <use xlink:href="#BitstreamVeraSans-Roman-31"/>
      </g>
     </g>
    </g>
    <g id="ytick_13">
     <g id="line2d_55">
      <g>
       <use style="stroke:#000000;stroke-width:0.5;" x="49.9584375" xlink:href="#m728421d6d4" y="42.9946803513"/>
      </g>
     </g>
     <g id="line2d_56">
      <g>
       <use style="stroke:#000000;stroke-width:0.5;" x="552.65484375" xlink:href="#mcb0005524f" y="42.9946803513"/>
      </g>
     </g>
     <g id="text_28">
      <!-- 2 -->
      <g transform="translate(40.4046875 46.3059303513)scale(0.12 -0.12)">
       <use xlink:href="#BitstreamVeraSans-Roman-32"/>
      </g>
     </g>
    </g>
    <g id="ytick_14">
     <g id="line2d_57">
      <g>
       <use style="stroke:#000000;stroke-width:0.5;" x="49.9584375" xlink:href="#m728421d6d4" y="28.76"/>
      </g>
     </g>
     <g id="line2d_58">
      <g>
       <use style="stroke:#000000;stroke-width:0.5;" x="552.65484375" xlink:href="#mcb0005524f" y="28.76"/>
      </g>
     </g>
     <g id="text_29">
      <!-- 3 -->
      <g transform="translate(40.2003125 32.07125)scale(0.12 -0.12)">
       <use xlink:href="#BitstreamVeraSans-Roman-33"/>
      </g>
     </g>
    </g>
   </g>
   <g id="text_30">
    <!-- Pulse v. Pupil:r=-0.070905  -->
    <g transform="translate(54.1475742188 25.5177218843)scale(0.12 -0.12)">
     <use xlink:href="#BitstreamVeraSans-Roman-50"/>
     <use x="58.552734375" xlink:href="#BitstreamVeraSans-Roman-75"/>
     <use x="121.931640625" xlink:href="#BitstreamVeraSans-Roman-6c"/>
     <use x="149.71484375" xlink:href="#BitstreamVeraSans-Roman-73"/>
     <use x="201.814453125" xlink:href="#BitstreamVeraSans-Roman-65"/>
     <use x="263.337890625" xlink:href="#BitstreamVeraSans-Roman-20"/>
     <use x="295.125" xlink:href="#BitstreamVeraSans-Roman-76"/>
     <use x="346.5546875" xlink:href="#BitstreamVeraSans-Roman-2e"/>
     <use x="378.341796875" xlink:href="#BitstreamVeraSans-Roman-20"/>
     <use x="410.12890625" xlink:href="#BitstreamVeraSans-Roman-50"/>
     <use x="468.681640625" xlink:href="#BitstreamVeraSans-Roman-75"/>
     <use x="532.060546875" xlink:href="#BitstreamVeraSans-Roman-70"/>
     <use x="595.537109375" xlink:href="#BitstreamVeraSans-Roman-69"/>
     <use x="623.3203125" xlink:href="#BitstreamVeraSans-Roman-6c"/>
     <use x="651.103515625" xlink:href="#BitstreamVeraSans-Roman-3a"/>
     <use x="684.794921875" xlink:href="#BitstreamVeraSans-Roman-72"/>
     <use x="725.908203125" xlink:href="#BitstreamVeraSans-Roman-3d"/>
     <use x="809.697265625" xlink:href="#BitstreamVeraSans-Roman-2d"/>
     <use x="845.78125" xlink:href="#BitstreamVeraSans-Roman-30"/>
     <use x="909.404296875" xlink:href="#BitstreamVeraSans-Roman-2e"/>
     <use x="941.19140625" xlink:href="#BitstreamVeraSans-Roman-30"/>
     <use x="1004.81445312" xlink:href="#BitstreamVeraSans-Roman-37"/>
     <use x="1068.4375" xlink:href="#BitstreamVeraSans-Roman-30"/>
     <use x="1132.06054688" xlink:href="#BitstreamVeraSans-Roman-39"/>
     <use x="1195.68359375" xlink:href="#BitstreamVeraSans-Roman-30"/>
     <use x="1259.30664062" xlink:href="#BitstreamVeraSans-Roman-35"/>
     <use x="1322.9296875" xlink:href="#BitstreamVeraSans-Roman-20"/>
    </g>
    <!--  p=0.481058 -->
    <g transform="translate(54.1475742188 38.9550968843)scale(0.12 -0.12)">
     <use xlink:href="#BitstreamVeraSans-Roman-20"/>
     <use x="31.787109375" xlink:href="#BitstreamVeraSans-Roman-70"/>
     <use x="95.263671875" xlink:href="#BitstreamVeraSans-Roman-3d"/>
     <use x="179.052734375" xlink:href="#BitstreamVeraSans-Roman-30"/>
     <use x="242.67578125" xlink:href="#BitstreamVeraSans-Roman-2e"/>
     <use x="274.462890625" xlink:href="#BitstreamVeraSans-Roman-34"/>
     <use x="338.0859375" xlink:href="#BitstreamVeraSans-Roman-38"/>
     <use x="401.708984375" xlink:href="#BitstreamVeraSans-Roman-31"/>
     <use x="465.33203125" xlink:href="#BitstreamVeraSans-Roman-30"/>
     <use x="528.955078125" xlink:href="#BitstreamVeraSans-Roman-35"/>
     <use x="592.578125" xlink:href="#BitstreamVeraSans-Roman-38"/>
    </g>
   </g>
   <g id="text_31">
    <!-- Pupil Diameter in Regular Trials before Stress -->
    <defs>
     <path d="
M44.3906 34.1875
Q47.5625 33.1094 50.5625 29.5938
Q53.5625 26.0781 56.5938 19.9219
L66.6094 0
L56 0
L46.6875 18.7031
Q43.0625 26.0312 39.6719 28.4219
Q36.2812 30.8125 30.4219 30.8125
L19.6719 30.8125
L19.6719 0
L9.8125 0
L9.8125 72.9062
L32.0781 72.9062
Q44.5781 72.9062 50.7344 67.6719
Q56.8906 62.4531 56.8906 51.9062
Q56.8906 45.0156 53.6875 40.4688
Q50.4844 35.9375 44.3906 34.1875
M19.6719 64.7969
L19.6719 38.9219
L32.0781 38.9219
Q39.2031 38.9219 42.8438 42.2188
Q46.4844 45.5156 46.4844 51.9062
Q46.4844 58.2969 42.8438 61.5469
Q39.2031 64.7969 32.0781 64.7969
z
" id="BitstreamVeraSans-Roman-52"/>
     <path d="
M37.1094 75.9844
L37.1094 68.5
L28.5156 68.5
Q23.6875 68.5 21.7969 66.5469
Q19.9219 64.5938 19.9219 59.5156
L19.9219 54.6875
L34.7188 54.6875
L34.7188 47.7031
L19.9219 47.7031
L19.9219 0
L10.8906 0
L10.8906 47.7031
L2.29688 47.7031
L2.29688 54.6875
L10.8906 54.6875
L10.8906 58.5
Q10.8906 67.625 15.1406 71.7969
Q19.3906 75.9844 28.6094 75.9844
z
" id="BitstreamVeraSans-Roman-66"/>
     <path d="
M45.4062 27.9844
Q45.4062 37.75 41.375 43.1094
Q37.3594 48.4844 30.0781 48.4844
Q22.8594 48.4844 18.8281 43.1094
Q14.7969 37.75 14.7969 27.9844
Q14.7969 18.2656 18.8281 12.8906
Q22.8594 7.51562 30.0781 7.51562
Q37.3594 7.51562 41.375 12.8906
Q45.4062 18.2656 45.4062 27.9844
M54.3906 6.78125
Q54.3906 -7.17188 48.1875 -13.9844
Q42 -20.7969 29.2031 -20.7969
Q24.4688 -20.7969 20.2656 -20.0938
Q16.0625 -19.3906 12.1094 -17.9219
L12.1094 -9.1875
Q16.0625 -11.3281 19.9219 -12.3438
Q23.7812 -13.375 27.7812 -13.375
Q36.625 -13.375 41.0156 -8.76562
Q45.4062 -4.15625 45.4062 5.17188
L45.4062 9.625
Q42.625 4.78125 38.2812 2.39062
Q33.9375 0 27.875 0
Q17.8281 0 11.6719 7.65625
Q5.51562 15.3281 5.51562 27.9844
Q5.51562 40.6719 11.6719 48.3281
Q17.8281 56 27.875 56
Q33.9375 56 38.2812 53.6094
Q42.625 51.2188 45.4062 46.3906
L45.4062 54.6875
L54.3906 54.6875
z
" id="BitstreamVeraSans-Roman-67"/>
     <path d="
M30.6094 48.3906
Q23.3906 48.3906 19.1875 42.75
Q14.9844 37.1094 14.9844 27.2969
Q14.9844 17.4844 19.1562 11.8438
Q23.3438 6.20312 30.6094 6.20312
Q37.7969 6.20312 41.9844 11.8594
Q46.1875 17.5312 46.1875 27.2969
Q46.1875 37.0156 41.9844 42.7031
Q37.7969 48.3906 30.6094 48.3906
M30.6094 56
Q42.3281 56 49.0156 48.375
Q55.7188 40.7656 55.7188 27.2969
Q55.7188 13.875 49.0156 6.21875
Q42.3281 -1.42188 30.6094 -1.42188
Q18.8438 -1.42188 12.1719 6.21875
Q5.51562 13.875 5.51562 27.2969
Q5.51562 40.7656 12.1719 48.375
Q18.8438 56 30.6094 56" id="BitstreamVeraSans-Roman-6f"/>
     <path d="
M48.6875 27.2969
Q48.6875 37.2031 44.6094 42.8438
Q40.5312 48.4844 33.4062 48.4844
Q26.2656 48.4844 22.1875 42.8438
Q18.1094 37.2031 18.1094 27.2969
Q18.1094 17.3906 22.1875 11.75
Q26.2656 6.10938 33.4062 6.10938
Q40.5312 6.10938 44.6094 11.75
Q48.6875 17.3906 48.6875 27.2969
M18.1094 46.3906
Q20.9531 51.2656 25.2656 53.625
Q29.5938 56 35.5938 56
Q45.5625 56 51.7812 48.0938
Q58.0156 40.1875 58.0156 27.2969
Q58.0156 14.4062 51.7812 6.48438
Q45.5625 -1.42188 35.5938 -1.42188
Q29.5938 -1.42188 25.2656 0.953125
Q20.9531 3.32812 18.1094 8.20312
L18.1094 0
L9.07812 0
L9.07812 75.9844
L18.1094 75.9844
z
" id="BitstreamVeraSans-Roman-62"/>
    </defs>
    <g transform="translate(139.035515625 23.76)scale(0.144 -0.144)">
     <use xlink:href="#BitstreamVeraSans-Roman-50"/>
     <use x="58.552734375" xlink:href="#BitstreamVeraSans-Roman-75"/>
     <use x="121.931640625" xlink:href="#BitstreamVeraSans-Roman-70"/>
     <use x="185.408203125" xlink:href="#BitstreamVeraSans-Roman-69"/>
     <use x="213.19140625" xlink:href="#BitstreamVeraSans-Roman-6c"/>
     <use x="240.974609375" xlink:href="#BitstreamVeraSans-Roman-20"/>
     <use x="272.76171875" xlink:href="#BitstreamVeraSans-Roman-44"/>
     <use x="349.763671875" xlink:href="#BitstreamVeraSans-Roman-69"/>
     <use x="377.546875" xlink:href="#BitstreamVeraSans-Roman-61"/>
     <use x="438.826171875" xlink:href="#BitstreamVeraSans-Roman-6d"/>
     <use x="536.23828125" xlink:href="#BitstreamVeraSans-Roman-65"/>
     <use x="597.76171875" xlink:href="#BitstreamVeraSans-Roman-74"/>
     <use x="636.970703125" xlink:href="#BitstreamVeraSans-Roman-65"/>
     <use x="698.494140625" xlink:href="#BitstreamVeraSans-Roman-72"/>
     <use x="739.607421875" xlink:href="#BitstreamVeraSans-Roman-20"/>
     <use x="771.39453125" xlink:href="#BitstreamVeraSans-Roman-69"/>
     <use x="799.177734375" xlink:href="#BitstreamVeraSans-Roman-6e"/>
     <use x="862.556640625" xlink:href="#BitstreamVeraSans-Roman-20"/>
     <use x="894.34375" xlink:href="#BitstreamVeraSans-Roman-52"/>
     <use x="959.326171875" xlink:href="#BitstreamVeraSans-Roman-65"/>
     <use x="1020.84960938" xlink:href="#BitstreamVeraSans-Roman-67"/>
     <use x="1084.32617188" xlink:href="#BitstreamVeraSans-Roman-75"/>
     <use x="1147.70507812" xlink:href="#BitstreamVeraSans-Roman-6c"/>
     <use x="1175.48828125" xlink:href="#BitstreamVeraSans-Roman-61"/>
     <use x="1236.76757812" xlink:href="#BitstreamVeraSans-Roman-72"/>
     <use x="1277.88085938" xlink:href="#BitstreamVeraSans-Roman-20"/>
     <use x="1309.66796875" xlink:href="#BitstreamVeraSans-Roman-54"/>
     <use x="1356.00195312" xlink:href="#BitstreamVeraSans-Roman-72"/>
     <use x="1397.11523438" xlink:href="#BitstreamVeraSans-Roman-69"/>
     <use x="1424.8984375" xlink:href="#BitstreamVeraSans-Roman-61"/>
     <use x="1486.17773438" xlink:href="#BitstreamVeraSans-Roman-6c"/>
     <use x="1513.9609375" xlink:href="#BitstreamVeraSans-Roman-73"/>
     <use x="1566.06054688" xlink:href="#BitstreamVeraSans-Roman-20"/>
     <use x="1597.84765625" xlink:href="#BitstreamVeraSans-Roman-62"/>
     <use x="1661.32421875" xlink:href="#BitstreamVeraSans-Roman-65"/>
     <use x="1722.84765625" xlink:href="#BitstreamVeraSans-Roman-66"/>
     <use x="1758.05273438" xlink:href="#BitstreamVeraSans-Roman-6f"/>
     <use x="1819.234375" xlink:href="#BitstreamVeraSans-Roman-72"/>
     <use x="1858.09765625" xlink:href="#BitstreamVeraSans-Roman-65"/>
     <use x="1919.62109375" xlink:href="#BitstreamVeraSans-Roman-20"/>
     <use x="1951.40820312" xlink:href="#BitstreamVeraSans-Roman-53"/>
     <use x="2014.88476562" xlink:href="#BitstreamVeraSans-Roman-74"/>
     <use x="2054.09375" xlink:href="#BitstreamVeraSans-Roman-72"/>
     <use x="2092.95703125" xlink:href="#BitstreamVeraSans-Roman-65"/>
     <use x="2154.48046875" xlink:href="#BitstreamVeraSans-Roman-73"/>
     <use x="2206.58007812" xlink:href="#BitstreamVeraSans-Roman-73"/>
    </g>
   </g>
  </g>
  <g id="axes_3">
   <g id="patch_12">
    <path d="
M49.9584 384.84
L552.655 384.84
L552.655 299.432
L49.9584 299.432
z
" style="fill:#ffffff;"/>
   </g>
   <g id="line2d_59">
    <path clip-path="url(#p36ade1517a)" d="
M54.1476 318.707
L58.3367 331.772
L62.5258 327.08
L66.715 322.766
L70.9041 358.363
L75.0933 326.017
L79.2824 320.779
L83.4715 376.341
L87.6607 324.313
L91.8498 317.023
L96.0389 340.254
L100.228 363.57
L104.417 330.296
L108.606 343.785
L112.795 366.506
L116.985 356.005
L121.174 355.853
L125.363 332.313
L129.552 317.219
L133.741 354.173
L137.93 360.432
L142.119 339.129
L146.309 387.886
L150.498 320.388
L154.687 351.56
L158.876 374.767
L163.065 361.569
L167.254 365.004
L171.443 345.904
L175.633 328.207
L179.822 343.776
L184.011 357.739
L188.2 330.926
L192.389 333.66
L196.578 362.946
L200.767 310.337
L204.956 360.17
L209.146 357.865
L213.335 356.35
L217.524 346.811
L221.713 325.617
L225.902 318.283
L230.091 344.506
L234.28 335.93
L238.47 348.888
L242.659 331.737
L246.848 316.071
L251.037 317.517
L255.226 339.371
L259.415 348.491
L263.604 338.103
L267.794 328.154
L271.983 339.059
L276.172 341.785
L280.361 314.808
L284.55 342.522
L288.739 333.532
L292.928 340.04
L297.118 346.376
L301.307 364.827
L305.496 318.529
L309.685 334.122
L313.874 345.872
L318.063 324.86
L322.252 335.513
L326.441 363.56
L330.631 325.886
L334.82 346.551
L339.009 353.692
L343.198 346.366
L347.387 360.491
L351.576 345.056
L355.765 343.42
L359.955 323.846
L364.144 375.126
L368.333 331.683
L372.522 322.171
L376.711 343.563
L380.9 318.053
L385.089 353.86
L389.279 328.901
L393.468 326.407
L397.657 340.668
L401.846 355.277
L406.035 338.374
L410.224 345.267
L414.413 327.582
L418.602 342.636
L422.792 371.655
L426.981 334.015
L431.17 359.478
L435.359 351.581
L439.548 340.163
L443.737 333.155
L447.926 322.236
L452.116 335.479
L456.305 312.984
L460.494 390.93
L464.683 351.79
L468.872 311.989
L473.061 351.547
L477.25 331.448
L481.44 329.525
L485.629 346.987
L489.818 386.479
L494.007 363.758
L498.196 312.565
L502.385 351.745
L506.574 333.119
L510.763 317.847" style="fill:none;stroke:#000000;stroke-linecap:square;"/>
   </g>
   <g id="line2d_60">
    <path clip-path="url(#p36ade1517a)" d="
M54.1476 341.695
L58.3367 341.689
L62.5258 341.683
L66.715 341.678
L70.9041 341.672
L75.0933 341.666
L79.2824 341.66
L83.4715 341.655
L87.6607 341.649
L91.8498 341.643
L96.0389 341.637
L100.228 341.632
L104.417 341.626
L108.606 341.62
L112.795 341.614
L116.985 341.609
L121.174 341.603
L125.363 341.597
L129.552 341.591
L133.741 341.586
L137.93 341.58
L142.119 341.574
L146.309 341.568
L150.498 341.563
L154.687 341.557
L158.876 341.551
L163.065 341.545
L167.254 341.54
L171.443 341.534
L175.633 341.528
L179.822 341.522
L184.011 341.517
L188.2 341.511
L192.389 341.505
L196.578 341.499
L200.767 341.494
L204.956 341.488
L209.146 341.482
L213.335 341.477
L217.524 341.471
L221.713 341.465
L225.902 341.459
L230.091 341.454
L234.28 341.448
L238.47 341.442
L242.659 341.436
L246.848 341.431
L251.037 341.425
L255.226 341.419
L259.415 341.413
L263.604 341.408
L267.794 341.402
L271.983 341.396
L276.172 341.39
L280.361 341.385
L284.55 341.379
L288.739 341.373
L292.928 341.367
L297.118 341.362
L301.307 341.356
L305.496 341.35
L309.685 341.344
L313.874 341.339
L318.063 341.333
L322.252 341.327
L326.441 341.321
L330.631 341.316
L334.82 341.31
L339.009 341.304
L343.198 341.298
L347.387 341.293
L351.576 341.287
L355.765 341.281
L359.955 341.275
L364.144 341.27
L368.333 341.264
L372.522 341.258
L376.711 341.252
L380.9 341.247
L385.089 341.241
L389.279 341.235
L393.468 341.229
L397.657 341.224
L401.846 341.218
L406.035 341.212
L410.224 341.206
L414.413 341.201
L418.602 341.195
L422.792 341.189
L426.981 341.183
L431.17 341.178
L435.359 341.172
L439.548 341.166
L443.737 341.16
L447.926 341.155
L452.116 341.149
L456.305 341.143
L460.494 341.137
L464.683 341.132
L468.872 341.126
L473.061 341.12
L477.25 341.114
L481.44 341.109
L485.629 341.103
L489.818 341.097
L494.007 341.091
L498.196 341.086
L502.385 341.08
L506.574 341.074
L510.763 341.069" style="fill:none;stroke:#000000;stroke-dasharray:6.000000,6.000000;stroke-dashoffset:0.0;"/>
   </g>
   <g id="patch_13">
    <path d="
M49.9584 299.432
L552.655 299.432" style="fill:none;stroke:#000000;stroke-linecap:square;stroke-linejoin:miter;"/>
   </g>
   <g id="patch_14">
    <path d="
M552.655 384.84
L552.655 299.432" style="fill:none;stroke:#000000;stroke-linecap:square;stroke-linejoin:miter;"/>
   </g>
   <g id="patch_15">
    <path d="
M49.9584 384.84
L552.655 384.84" style="fill:none;stroke:#000000;stroke-linecap:square;stroke-linejoin:miter;"/>
   </g>
   <g id="patch_16">
    <path d="
M49.9584 384.84
L49.9584 299.432" style="fill:none;stroke:#000000;stroke-linecap:square;stroke-linejoin:miter;"/>
   </g>
   <g id="matplotlib.axis_5">
    <g id="xtick_14">
     <g id="line2d_61">
      <g>
       <use style="stroke:#000000;stroke-width:0.5;" x="49.9584375" xlink:href="#m93b0483c22" y="384.84"/>
      </g>
     </g>
     <g id="line2d_62">
      <g>
       <use style="stroke:#000000;stroke-width:0.5;" x="49.9584375" xlink:href="#m741efc42ff" y="299.431917892"/>
      </g>
     </g>
     <g id="text_32">
      <!-- 0 -->
      <g transform="translate(46.935 397.958125)scale(0.12 -0.12)">
       <use xlink:href="#BitstreamVeraSans-Roman-30"/>
      </g>
     </g>
    </g>
    <g id="xtick_15">
     <g id="line2d_63">
      <g>
       <use style="stroke:#000000;stroke-width:0.5;" x="133.741171875" xlink:href="#m93b0483c22" y="384.84"/>
      </g>
     </g>
     <g id="line2d_64">
      <g>
       <use style="stroke:#000000;stroke-width:0.5;" x="133.741171875" xlink:href="#m741efc42ff" y="299.431917892"/>
      </g>
     </g>
     <g id="text_33">
      <!-- 20 -->
      <g transform="translate(126.944296875 397.958125)scale(0.12 -0.12)">
       <use xlink:href="#BitstreamVeraSans-Roman-32"/>
       <use x="63.623046875" xlink:href="#BitstreamVeraSans-Roman-30"/>
      </g>
     </g>
    </g>
    <g id="xtick_16">
     <g id="line2d_65">
      <g>
       <use style="stroke:#000000;stroke-width:0.5;" x="217.52390625" xlink:href="#m93b0483c22" y="384.84"/>
      </g>
     </g>
     <g id="line2d_66">
      <g>
       <use style="stroke:#000000;stroke-width:0.5;" x="217.52390625" xlink:href="#m741efc42ff" y="299.431917892"/>
      </g>
     </g>
     <g id="text_34">
      <!-- 40 -->
      <g transform="translate(210.58078125 397.958125)scale(0.12 -0.12)">
       <use xlink:href="#BitstreamVeraSans-Roman-34"/>
       <use x="63.623046875" xlink:href="#BitstreamVeraSans-Roman-30"/>
      </g>
     </g>
    </g>
    <g id="xtick_17">
     <g id="line2d_67">
      <g>
       <use style="stroke:#000000;stroke-width:0.5;" x="301.306640625" xlink:href="#m93b0483c22" y="384.84"/>
      </g>
     </g>
     <g id="line2d_68">
      <g>
       <use style="stroke:#000000;stroke-width:0.5;" x="301.306640625" xlink:href="#m741efc42ff" y="299.431917892"/>
      </g>
     </g>
     <g id="text_35">
      <!-- 60 -->
      <g transform="translate(294.489140625 397.958125)scale(0.12 -0.12)">
       <use xlink:href="#BitstreamVeraSans-Roman-36"/>
       <use x="63.623046875" xlink:href="#BitstreamVeraSans-Roman-30"/>
      </g>
     </g>
    </g>
    <g id="xtick_18">
     <g id="line2d_69">
      <g>
       <use style="stroke:#000000;stroke-width:0.5;" x="385.089375" xlink:href="#m93b0483c22" y="384.84"/>
      </g>
     </g>
     <g id="line2d_70">
      <g>
       <use style="stroke:#000000;stroke-width:0.5;" x="385.089375" xlink:href="#m741efc42ff" y="299.431917892"/>
      </g>
     </g>
     <g id="text_36">
      <!-- 80 -->
      <g transform="translate(378.2596875 397.958125)scale(0.12 -0.12)">
       <use xlink:href="#BitstreamVeraSans-Roman-38"/>
       <use x="63.623046875" xlink:href="#BitstreamVeraSans-Roman-30"/>
      </g>
     </g>
    </g>
    <g id="xtick_19">
     <g id="line2d_71">
      <g>
       <use style="stroke:#000000;stroke-width:0.5;" x="468.872109375" xlink:href="#m93b0483c22" y="384.84"/>
      </g>
     </g>
     <g id="line2d_72">
      <g>
       <use style="stroke:#000000;stroke-width:0.5;" x="468.872109375" xlink:href="#m741efc42ff" y="299.431917892"/>
      </g>
     </g>
     <g id="text_37">
      <!-- 100 -->
      <g transform="translate(458.477109375 397.958125)scale(0.12 -0.12)">
       <use xlink:href="#BitstreamVeraSans-Roman-31"/>
       <use x="63.623046875" xlink:href="#BitstreamVeraSans-Roman-30"/>
       <use x="127.24609375" xlink:href="#BitstreamVeraSans-Roman-30"/>
      </g>
     </g>
    </g>
    <g id="xtick_20">
     <g id="line2d_73">
      <g>
       <use style="stroke:#000000;stroke-width:0.5;" x="552.65484375" xlink:href="#m93b0483c22" y="384.84"/>
      </g>
     </g>
     <g id="line2d_74">
      <g>
       <use style="stroke:#000000;stroke-width:0.5;" x="552.65484375" xlink:href="#m741efc42ff" y="299.431917892"/>
      </g>
     </g>
     <g id="text_38">
      <!-- 120 -->
      <g transform="translate(542.25984375 397.958125)scale(0.12 -0.12)">
       <use xlink:href="#BitstreamVeraSans-Roman-31"/>
       <use x="63.623046875" xlink:href="#BitstreamVeraSans-Roman-32"/>
       <use x="127.24609375" xlink:href="#BitstreamVeraSans-Roman-30"/>
      </g>
     </g>
    </g>
    <g id="text_39">
     <!-- Trial -->
     <g transform="translate(289.594453125 414.571875)scale(0.12 -0.12)">
      <use xlink:href="#BitstreamVeraSans-Roman-54"/>
      <use x="46.333984375" xlink:href="#BitstreamVeraSans-Roman-72"/>
      <use x="87.447265625" xlink:href="#BitstreamVeraSans-Roman-69"/>
      <use x="115.23046875" xlink:href="#BitstreamVeraSans-Roman-61"/>
      <use x="176.509765625" xlink:href="#BitstreamVeraSans-Roman-6c"/>
     </g>
    </g>
   </g>
   <g id="matplotlib.axis_6">
    <g id="ytick_15">
     <g id="line2d_75">
      <g>
       <use style="stroke:#000000;stroke-width:0.5;" x="49.9584375" xlink:href="#m728421d6d4" y="384.84"/>
      </g>
     </g>
     <g id="line2d_76">
      <g>
       <use style="stroke:#000000;stroke-width:0.5;" x="552.65484375" xlink:href="#mcb0005524f" y="384.84"/>
      </g>
     </g>
     <g id="text_40">
      <!-- −3 -->
      <g transform="translate(30.5009375 388.15125)scale(0.12 -0.12)">
       <use xlink:href="#BitstreamVeraSans-Roman-2212"/>
       <use x="83.7890625" xlink:href="#BitstreamVeraSans-Roman-33"/>
      </g>
     </g>
    </g>
    <g id="ytick_16">
     <g id="line2d_77">
      <g>
       <use style="stroke:#000000;stroke-width:0.5;" x="49.9584375" xlink:href="#m728421d6d4" y="370.605319649"/>
      </g>
     </g>
     <g id="line2d_78">
      <g>
       <use style="stroke:#000000;stroke-width:0.5;" x="552.65484375" xlink:href="#mcb0005524f" y="370.605319649"/>
      </g>
     </g>
     <g id="text_41">
      <!-- −2 -->
      <g transform="translate(30.7409375 373.916569649)scale(0.12 -0.12)">
       <use xlink:href="#BitstreamVeraSans-Roman-2212"/>
       <use x="83.7890625" xlink:href="#BitstreamVeraSans-Roman-32"/>
      </g>
     </g>
    </g>
    <g id="ytick_17">
     <g id="line2d_79">
      <g>
       <use style="stroke:#000000;stroke-width:0.5;" x="49.9584375" xlink:href="#m728421d6d4" y="356.370639297"/>
      </g>
     </g>
     <g id="line2d_80">
      <g>
       <use style="stroke:#000000;stroke-width:0.5;" x="552.65484375" xlink:href="#mcb0005524f" y="356.370639297"/>
      </g>
     </g>
     <g id="text_42">
      <!-- −1 -->
      <g transform="translate(30.6471875 359.681889297)scale(0.12 -0.12)">
       <use xlink:href="#BitstreamVeraSans-Roman-2212"/>
       <use x="83.7890625" xlink:href="#BitstreamVeraSans-Roman-31"/>
      </g>
     </g>
    </g>
    <g id="ytick_18">
     <g id="line2d_81">
      <g>
       <use style="stroke:#000000;stroke-width:0.5;" x="49.9584375" xlink:href="#m728421d6d4" y="342.135958946"/>
      </g>
     </g>
     <g id="line2d_82">
      <g>
       <use style="stroke:#000000;stroke-width:0.5;" x="552.65484375" xlink:href="#mcb0005524f" y="342.135958946"/>
      </g>
     </g>
     <g id="text_43">
      <!-- 0 -->
      <g transform="translate(39.9115625 345.447208946)scale(0.12 -0.12)">
       <use xlink:href="#BitstreamVeraSans-Roman-30"/>
      </g>
     </g>
    </g>
    <g id="ytick_19">
     <g id="line2d_83">
      <g>
       <use style="stroke:#000000;stroke-width:0.5;" x="49.9584375" xlink:href="#m728421d6d4" y="327.901278595"/>
      </g>
     </g>
     <g id="line2d_84">
      <g>
       <use style="stroke:#000000;stroke-width:0.5;" x="552.65484375" xlink:href="#mcb0005524f" y="327.901278595"/>
      </g>
     </g>
     <g id="text_44">
      <!-- 1 -->
      <g transform="translate(40.7496875 331.212528595)scale(0.12 -0.12)">
       <use xlink:href="#BitstreamVeraSans-Roman-31"/>
      </g>
     </g>
    </g>
    <g id="ytick_20">
     <g id="line2d_85">
      <g>
       <use style="stroke:#000000;stroke-width:0.5;" x="49.9584375" xlink:href="#m728421d6d4" y="313.666598243"/>
      </g>
     </g>
     <g id="line2d_86">
      <g>
       <use style="stroke:#000000;stroke-width:0.5;" x="552.65484375" xlink:href="#mcb0005524f" y="313.666598243"/>
      </g>
     </g>
     <g id="text_45">
      <!-- 2 -->
      <g transform="translate(40.4046875 316.977848243)scale(0.12 -0.12)">
       <use xlink:href="#BitstreamVeraSans-Roman-32"/>
      </g>
     </g>
    </g>
    <g id="ytick_21">
     <g id="line2d_87">
      <g>
       <use style="stroke:#000000;stroke-width:0.5;" x="49.9584375" xlink:href="#m728421d6d4" y="299.431917892"/>
      </g>
     </g>
     <g id="line2d_88">
      <g>
       <use style="stroke:#000000;stroke-width:0.5;" x="552.65484375" xlink:href="#mcb0005524f" y="299.431917892"/>
      </g>
     </g>
     <g id="text_46">
      <!-- 3 -->
      <g transform="translate(40.2003125 302.743167892)scale(0.12 -0.12)">
       <use xlink:href="#BitstreamVeraSans-Roman-33"/>
      </g>
     </g>
    </g>
    <g id="text_47">
     <!-- Average Pupil Diameter -->
     <defs>
      <path d="
M34.1875 63.1875
L20.7969 26.9062
L47.6094 26.9062
z

M28.6094 72.9062
L39.7969 72.9062
L67.5781 0
L57.3281 0
L50.6875 18.7031
L17.8281 18.7031
L11.1875 0
L0.78125 0
z
" id="BitstreamVeraSans-Roman-41"/>
     </defs>
     <g transform="translate(23.0053125 413.057833946)rotate(-90.0)scale(0.12 -0.12)">
      <use xlink:href="#BitstreamVeraSans-Roman-41"/>
      <use x="62.533203125" xlink:href="#BitstreamVeraSans-Roman-76"/>
      <use x="121.712890625" xlink:href="#BitstreamVeraSans-Roman-65"/>
      <use x="183.236328125" xlink:href="#BitstreamVeraSans-Roman-72"/>
      <use x="224.349609375" xlink:href="#BitstreamVeraSans-Roman-61"/>
      <use x="285.62890625" xlink:href="#BitstreamVeraSans-Roman-67"/>
      <use x="349.10546875" xlink:href="#BitstreamVeraSans-Roman-65"/>
      <use x="410.62890625" xlink:href="#BitstreamVeraSans-Roman-20"/>
      <use x="442.416015625" xlink:href="#BitstreamVeraSans-Roman-50"/>
      <use x="500.96875" xlink:href="#BitstreamVeraSans-Roman-75"/>
      <use x="564.34765625" xlink:href="#BitstreamVeraSans-Roman-70"/>
      <use x="627.82421875" xlink:href="#BitstreamVeraSans-Roman-69"/>
      <use x="655.607421875" xlink:href="#BitstreamVeraSans-Roman-6c"/>
      <use x="683.390625" xlink:href="#BitstreamVeraSans-Roman-20"/>
      <use x="715.177734375" xlink:href="#BitstreamVeraSans-Roman-44"/>
      <use x="792.1796875" xlink:href="#BitstreamVeraSans-Roman-69"/>
      <use x="819.962890625" xlink:href="#BitstreamVeraSans-Roman-61"/>
      <use x="881.2421875" xlink:href="#BitstreamVeraSans-Roman-6d"/>
      <use x="978.654296875" xlink:href="#BitstreamVeraSans-Roman-65"/>
      <use x="1040.17773438" xlink:href="#BitstreamVeraSans-Roman-74"/>
      <use x="1079.38671875" xlink:href="#BitstreamVeraSans-Roman-65"/>
      <use x="1140.91015625" xlink:href="#BitstreamVeraSans-Roman-72"/>
     </g>
    </g>
   </g>
   <g id="text_48">
    <!-- Pulse v. Pupil:r=0.124541  -->
    <g transform="translate(54.1475742188 296.899696572)scale(0.12 -0.12)">
     <use xlink:href="#BitstreamVeraSans-Roman-50"/>
     <use x="58.552734375" xlink:href="#BitstreamVeraSans-Roman-75"/>
     <use x="121.931640625" xlink:href="#BitstreamVeraSans-Roman-6c"/>
     <use x="149.71484375" xlink:href="#BitstreamVeraSans-Roman-73"/>
     <use x="201.814453125" xlink:href="#BitstreamVeraSans-Roman-65"/>
     <use x="263.337890625" xlink:href="#BitstreamVeraSans-Roman-20"/>
     <use x="295.125" xlink:href="#BitstreamVeraSans-Roman-76"/>
     <use x="346.5546875" xlink:href="#BitstreamVeraSans-Roman-2e"/>
     <use x="378.341796875" xlink:href="#BitstreamVeraSans-Roman-20"/>
     <use x="410.12890625" xlink:href="#BitstreamVeraSans-Roman-50"/>
     <use x="468.681640625" xlink:href="#BitstreamVeraSans-Roman-75"/>
     <use x="532.060546875" xlink:href="#BitstreamVeraSans-Roman-70"/>
     <use x="595.537109375" xlink:href="#BitstreamVeraSans-Roman-69"/>
     <use x="623.3203125" xlink:href="#BitstreamVeraSans-Roman-6c"/>
     <use x="651.103515625" xlink:href="#BitstreamVeraSans-Roman-3a"/>
     <use x="684.794921875" xlink:href="#BitstreamVeraSans-Roman-72"/>
     <use x="725.908203125" xlink:href="#BitstreamVeraSans-Roman-3d"/>
     <use x="809.697265625" xlink:href="#BitstreamVeraSans-Roman-30"/>
     <use x="873.3203125" xlink:href="#BitstreamVeraSans-Roman-2e"/>
     <use x="905.107421875" xlink:href="#BitstreamVeraSans-Roman-31"/>
     <use x="968.73046875" xlink:href="#BitstreamVeraSans-Roman-32"/>
     <use x="1032.35351562" xlink:href="#BitstreamVeraSans-Roman-34"/>
     <use x="1095.9765625" xlink:href="#BitstreamVeraSans-Roman-35"/>
     <use x="1159.59960938" xlink:href="#BitstreamVeraSans-Roman-34"/>
     <use x="1223.22265625" xlink:href="#BitstreamVeraSans-Roman-31"/>
     <use x="1286.84570312" xlink:href="#BitstreamVeraSans-Roman-20"/>
    </g>
    <!--  p=0.194862 -->
    <g transform="translate(54.1475742188 310.337071572)scale(0.12 -0.12)">
     <use xlink:href="#BitstreamVeraSans-Roman-20"/>
     <use x="31.787109375" xlink:href="#BitstreamVeraSans-Roman-70"/>
     <use x="95.263671875" xlink:href="#BitstreamVeraSans-Roman-3d"/>
     <use x="179.052734375" xlink:href="#BitstreamVeraSans-Roman-30"/>
     <use x="242.67578125" xlink:href="#BitstreamVeraSans-Roman-2e"/>
     <use x="274.462890625" xlink:href="#BitstreamVeraSans-Roman-31"/>
     <use x="338.0859375" xlink:href="#BitstreamVeraSans-Roman-39"/>
     <use x="401.708984375" xlink:href="#BitstreamVeraSans-Roman-34"/>
     <use x="465.33203125" xlink:href="#BitstreamVeraSans-Roman-38"/>
     <use x="528.955078125" xlink:href="#BitstreamVeraSans-Roman-36"/>
     <use x="592.578125" xlink:href="#BitstreamVeraSans-Roman-32"/>
    </g>
   </g>
   <g id="text_49">
    <!-- Pupil Diameter in Regular Trials after Stress -->
    <g transform="translate(145.171265625 294.431917892)scale(0.144 -0.144)">
     <use xlink:href="#BitstreamVeraSans-Roman-50"/>
     <use x="58.552734375" xlink:href="#BitstreamVeraSans-Roman-75"/>
     <use x="121.931640625" xlink:href="#BitstreamVeraSans-Roman-70"/>
     <use x="185.408203125" xlink:href="#BitstreamVeraSans-Roman-69"/>
     <use x="213.19140625" xlink:href="#BitstreamVeraSans-Roman-6c"/>
     <use x="240.974609375" xlink:href="#BitstreamVeraSans-Roman-20"/>
     <use x="272.76171875" xlink:href="#BitstreamVeraSans-Roman-44"/>
     <use x="349.763671875" xlink:href="#BitstreamVeraSans-Roman-69"/>
     <use x="377.546875" xlink:href="#BitstreamVeraSans-Roman-61"/>
     <use x="438.826171875" xlink:href="#BitstreamVeraSans-Roman-6d"/>
     <use x="536.23828125" xlink:href="#BitstreamVeraSans-Roman-65"/>
     <use x="597.76171875" xlink:href="#BitstreamVeraSans-Roman-74"/>
     <use x="636.970703125" xlink:href="#BitstreamVeraSans-Roman-65"/>
     <use x="698.494140625" xlink:href="#BitstreamVeraSans-Roman-72"/>
     <use x="739.607421875" xlink:href="#BitstreamVeraSans-Roman-20"/>
     <use x="771.39453125" xlink:href="#BitstreamVeraSans-Roman-69"/>
     <use x="799.177734375" xlink:href="#BitstreamVeraSans-Roman-6e"/>
     <use x="862.556640625" xlink:href="#BitstreamVeraSans-Roman-20"/>
     <use x="894.34375" xlink:href="#BitstreamVeraSans-Roman-52"/>
     <use x="959.326171875" xlink:href="#BitstreamVeraSans-Roman-65"/>
     <use x="1020.84960938" xlink:href="#BitstreamVeraSans-Roman-67"/>
     <use x="1084.32617188" xlink:href="#BitstreamVeraSans-Roman-75"/>
     <use x="1147.70507812" xlink:href="#BitstreamVeraSans-Roman-6c"/>
     <use x="1175.48828125" xlink:href="#BitstreamVeraSans-Roman-61"/>
     <use x="1236.76757812" xlink:href="#BitstreamVeraSans-Roman-72"/>
     <use x="1277.88085938" xlink:href="#BitstreamVeraSans-Roman-20"/>
     <use x="1309.66796875" xlink:href="#BitstreamVeraSans-Roman-54"/>
     <use x="1356.00195312" xlink:href="#BitstreamVeraSans-Roman-72"/>
     <use x="1397.11523438" xlink:href="#BitstreamVeraSans-Roman-69"/>
     <use x="1424.8984375" xlink:href="#BitstreamVeraSans-Roman-61"/>
     <use x="1486.17773438" xlink:href="#BitstreamVeraSans-Roman-6c"/>
     <use x="1513.9609375" xlink:href="#BitstreamVeraSans-Roman-73"/>
     <use x="1566.06054688" xlink:href="#BitstreamVeraSans-Roman-20"/>
     <use x="1597.84765625" xlink:href="#BitstreamVeraSans-Roman-61"/>
     <use x="1659.12695312" xlink:href="#BitstreamVeraSans-Roman-66"/>
     <use x="1692.58203125" xlink:href="#BitstreamVeraSans-Roman-74"/>
     <use x="1731.79101562" xlink:href="#BitstreamVeraSans-Roman-65"/>
     <use x="1793.31445312" xlink:href="#BitstreamVeraSans-Roman-72"/>
     <use x="1834.42773438" xlink:href="#BitstreamVeraSans-Roman-20"/>
     <use x="1866.21484375" xlink:href="#BitstreamVeraSans-Roman-53"/>
     <use x="1929.69140625" xlink:href="#BitstreamVeraSans-Roman-74"/>
     <use x="1968.90039062" xlink:href="#BitstreamVeraSans-Roman-72"/>
     <use x="2007.76367188" xlink:href="#BitstreamVeraSans-Roman-65"/>
     <use x="2069.28710938" xlink:href="#BitstreamVeraSans-Roman-73"/>
     <use x="2121.38671875" xlink:href="#BitstreamVeraSans-Roman-73"/>
    </g>
   </g>
  </g>
 </g>
 <defs>
  <clipPath id="p36ade1517a">
   <rect height="85.4080821078" width="502.69640625" x="49.9584375" y="299.431917892"/>
  </clipPath>
  <clipPath id="p4f6caeed50">
   <rect height="85.4080821078" width="502.69640625" x="49.9584375" y="28.76"/>
  </clipPath>
  <clipPath id="p7142299d52">
   <rect height="85.4080821078" width="502.69640625" x="49.9584375" y="164.095958946"/>
  </clipPath>
 </defs>
</svg>
