<?xml version="1.0" encoding="utf-8" standalone="no"?>
<!DOCTYPE svg PUBLIC "-//W3C//DTD SVG 1.1//EN"
  "http://www.w3.org/Graphics/SVG/1.1/DTD/svg11.dtd">
<!-- Created with matplotlib (http://matplotlib.org/) -->
<svg height="345pt" version="1.1" viewBox="0 0 460 345" width="460pt" xmlns="http://www.w3.org/2000/svg" xmlns:xlink="http://www.w3.org/1999/xlink">
 <defs>
  <style type="text/css">
*{stroke-linecap:butt;stroke-linejoin:round;}
  </style>
 </defs>
 <g id="figure_1">
  <g id="patch_1">
   <path d="M 0 345.6 
L 460.8 345.6 
L 460.8 0 
L 0 0 
z
" style="fill:#ffffff;"/>
  </g>
  <g id="axes_1">
   <g id="patch_2">
    <path d="M 57.6 307.584 
L 219.927273 307.584 
L 219.927273 41.472 
L 57.6 41.472 
z
" style="fill:#ffffff;"/>
   </g>
   <g id="matplotlib.axis_1">
    <g id="xtick_1">
     <g id="line2d_1">
      <defs>
       <path d="M 0 0 
L 0 3.5 
" id="mb3a7abc878" style="stroke:#000000;stroke-width:0.8;"/>
      </defs>
      <g>
       <use style="stroke:#000000;stroke-width:0.8;" x="64.978512" xlink:href="#mb3a7abc878" y="307.584"/>
      </g>
     </g>
     <g id="text_1">
      <!-- 0.0 -->
      <defs>
       <path d="M 31.78125 66.40625 
Q 24.171875 66.40625 20.328125 58.90625 
Q 16.5 51.421875 16.5 36.375 
Q 16.5 21.390625 20.328125 13.890625 
Q 24.171875 6.390625 31.78125 6.390625 
Q 39.453125 6.390625 43.28125 13.890625 
Q 47.125 21.390625 47.125 36.375 
Q 47.125 51.421875 43.28125 58.90625 
Q 39.453125 66.40625 31.78125 66.40625 
z
M 31.78125 74.21875 
Q 44.046875 74.21875 50.515625 64.515625 
Q 56.984375 54.828125 56.984375 36.375 
Q 56.984375 17.96875 50.515625 8.265625 
Q 44.046875 -1.421875 31.78125 -1.421875 
Q 19.53125 -1.421875 13.0625 8.265625 
Q 6.59375 17.96875 6.59375 36.375 
Q 6.59375 54.828125 13.0625 64.515625 
Q 19.53125 74.21875 31.78125 74.21875 
z
" id="DejaVuSans-30"/>
       <path d="M 10.6875 12.40625 
L 21 12.40625 
L 21 0 
L 10.6875 0 
z
" id="DejaVuSans-2e"/>
      </defs>
      <g transform="translate(57.02695 322.182437)scale(0.1 -0.1)">
       <use xlink:href="#DejaVuSans-30"/>
       <use x="63.623047" xlink:href="#DejaVuSans-2e"/>
       <use x="95.410156" xlink:href="#DejaVuSans-30"/>
      </g>
     </g>
    </g>
    <g id="xtick_2">
     <g id="line2d_2">
      <g>
       <use style="stroke:#000000;stroke-width:0.8;" x="83.159652" xlink:href="#mb3a7abc878" y="307.584"/>
      </g>
     </g>
     <g id="text_2">
      <!-- 5.0 -->
      <defs>
       <path d="M 10.796875 72.90625 
L 49.515625 72.90625 
L 49.515625 64.59375 
L 19.828125 64.59375 
L 19.828125 46.734375 
Q 21.96875 47.46875 24.109375 47.828125 
Q 26.265625 48.1875 28.421875 48.1875 
Q 40.625 48.1875 47.75 41.5 
Q 54.890625 34.8125 54.890625 23.390625 
Q 54.890625 11.625 47.5625 5.09375 
Q 40.234375 -1.421875 26.90625 -1.421875 
Q 22.3125 -1.421875 17.546875 -0.640625 
Q 12.796875 0.140625 7.71875 1.703125 
L 7.71875 11.625 
Q 12.109375 9.234375 16.796875 8.0625 
Q 21.484375 6.890625 26.703125 6.890625 
Q 35.15625 6.890625 40.078125 11.328125 
Q 45.015625 15.765625 45.015625 23.390625 
Q 45.015625 31 40.078125 35.4375 
Q 35.15625 39.890625 26.703125 39.890625 
Q 22.75 39.890625 18.8125 39.015625 
Q 14.890625 38.140625 10.796875 36.28125 
z
" id="DejaVuSans-35"/>
      </defs>
      <g transform="translate(75.208089 322.182437)scale(0.1 -0.1)">
       <use xlink:href="#DejaVuSans-35"/>
       <use x="63.623047" xlink:href="#DejaVuSans-2e"/>
       <use x="95.410156" xlink:href="#DejaVuSans-30"/>
      </g>
     </g>
    </g>
    <g id="xtick_3">
     <g id="line2d_3">
      <g>
       <use style="stroke:#000000;stroke-width:0.8;" x="101.340791" xlink:href="#mb3a7abc878" y="307.584"/>
      </g>
     </g>
     <g id="text_3">
      <!-- 10.0 -->
      <defs>
       <path d="M 12.40625 8.296875 
L 28.515625 8.296875 
L 28.515625 63.921875 
L 10.984375 60.40625 
L 10.984375 69.390625 
L 28.421875 72.90625 
L 38.28125 72.90625 
L 38.28125 8.296875 
L 54.390625 8.296875 
L 54.390625 0 
L 12.40625 0 
z
" id="DejaVuSans-31"/>
      </defs>
      <g transform="translate(90.207979 322.182437)scale(0.1 -0.1)">
       <use xlink:href="#DejaVuSans-31"/>
       <use x="63.623047" xlink:href="#DejaVuSans-30"/>
       <use x="127.246094" xlink:href="#DejaVuSans-2e"/>
       <use x="159.033203" xlink:href="#DejaVuSans-30"/>
      </g>
     </g>
    </g>
    <g id="xtick_4">
     <g id="line2d_4">
      <g>
       <use style="stroke:#000000;stroke-width:0.8;" x="119.521931" xlink:href="#mb3a7abc878" y="307.584"/>
      </g>
     </g>
     <g id="text_4">
      <!-- 15.0 -->
      <g transform="translate(108.389118 322.182437)scale(0.1 -0.1)">
       <use xlink:href="#DejaVuSans-31"/>
       <use x="63.623047" xlink:href="#DejaVuSans-35"/>
       <use x="127.246094" xlink:href="#DejaVuSans-2e"/>
       <use x="159.033203" xlink:href="#DejaVuSans-30"/>
      </g>
     </g>
    </g>
    <g id="xtick_5">
     <g id="line2d_5">
      <g>
       <use style="stroke:#000000;stroke-width:0.8;" x="137.70307" xlink:href="#mb3a7abc878" y="307.584"/>
      </g>
     </g>
     <g id="text_5">
      <!-- 20.0 -->
      <defs>
       <path d="M 19.1875 8.296875 
L 53.609375 8.296875 
L 53.609375 0 
L 7.328125 0 
L 7.328125 8.296875 
Q 12.9375 14.109375 22.625 23.890625 
Q 32.328125 33.6875 34.8125 36.53125 
Q 39.546875 41.84375 41.421875 45.53125 
Q 43.3125 49.21875 43.3125 52.78125 
Q 43.3125 58.59375 39.234375 62.25 
Q 35.15625 65.921875 28.609375 65.921875 
Q 23.96875 65.921875 18.8125 64.3125 
Q 13.671875 62.703125 7.8125 59.421875 
L 7.8125 69.390625 
Q 13.765625 71.78125 18.9375 73 
Q 24.125 74.21875 28.421875 74.21875 
Q 39.75 74.21875 46.484375 68.546875 
Q 53.21875 62.890625 53.21875 53.421875 
Q 53.21875 48.921875 51.53125 44.890625 
Q 49.859375 40.875 45.40625 35.40625 
Q 44.1875 33.984375 37.640625 27.21875 
Q 31.109375 20.453125 19.1875 8.296875 
z
" id="DejaVuSans-32"/>
      </defs>
      <g transform="translate(126.570257 322.182437)scale(0.1 -0.1)">
       <use xlink:href="#DejaVuSans-32"/>
       <use x="63.623047" xlink:href="#DejaVuSans-30"/>
       <use x="127.246094" xlink:href="#DejaVuSans-2e"/>
       <use x="159.033203" xlink:href="#DejaVuSans-30"/>
      </g>
     </g>
    </g>
    <g id="xtick_6">
     <g id="line2d_6">
      <g>
       <use style="stroke:#000000;stroke-width:0.8;" x="155.884209" xlink:href="#mb3a7abc878" y="307.584"/>
      </g>
     </g>
     <g id="text_6">
      <!-- 25.0 -->
      <g transform="translate(144.751397 322.182437)scale(0.1 -0.1)">
       <use xlink:href="#DejaVuSans-32"/>
       <use x="63.623047" xlink:href="#DejaVuSans-35"/>
       <use x="127.246094" xlink:href="#DejaVuSans-2e"/>
       <use x="159.033203" xlink:href="#DejaVuSans-30"/>
      </g>
     </g>
    </g>
    <g id="xtick_7">
     <g id="line2d_7">
      <g>
       <use style="stroke:#000000;stroke-width:0.8;" x="174.065349" xlink:href="#mb3a7abc878" y="307.584"/>
      </g>
     </g>
     <g id="text_7">
      <!-- 30.0 -->
      <defs>
       <path d="M 40.578125 39.3125 
Q 47.65625 37.796875 51.625 33 
Q 55.609375 28.21875 55.609375 21.1875 
Q 55.609375 10.40625 48.1875 4.484375 
Q 40.765625 -1.421875 27.09375 -1.421875 
Q 22.515625 -1.421875 17.65625 -0.515625 
Q 12.796875 0.390625 7.625 2.203125 
L 7.625 11.71875 
Q 11.71875 9.328125 16.59375 8.109375 
Q 21.484375 6.890625 26.8125 6.890625 
Q 36.078125 6.890625 40.9375 10.546875 
Q 45.796875 14.203125 45.796875 21.1875 
Q 45.796875 27.640625 41.28125 31.265625 
Q 36.765625 34.90625 28.71875 34.90625 
L 20.21875 34.90625 
L 20.21875 43.015625 
L 29.109375 43.015625 
Q 36.375 43.015625 40.234375 45.921875 
Q 44.09375 48.828125 44.09375 54.296875 
Q 44.09375 59.90625 40.109375 62.90625 
Q 36.140625 65.921875 28.71875 65.921875 
Q 24.65625 65.921875 20.015625 65.03125 
Q 15.375 64.15625 9.8125 62.3125 
L 9.8125 71.09375 
Q 15.4375 72.65625 20.34375 73.4375 
Q 25.25 74.21875 29.59375 74.21875 
Q 40.828125 74.21875 47.359375 69.109375 
Q 53.90625 64.015625 53.90625 55.328125 
Q 53.90625 49.265625 50.4375 45.09375 
Q 46.96875 40.921875 40.578125 39.3125 
z
" id="DejaVuSans-33"/>
      </defs>
      <g transform="translate(162.932536 322.182437)scale(0.1 -0.1)">
       <use xlink:href="#DejaVuSans-33"/>
       <use x="63.623047" xlink:href="#DejaVuSans-30"/>
       <use x="127.246094" xlink:href="#DejaVuSans-2e"/>
       <use x="159.033203" xlink:href="#DejaVuSans-30"/>
      </g>
     </g>
    </g>
    <g id="xtick_8">
     <g id="line2d_8">
      <g>
       <use style="stroke:#000000;stroke-width:0.8;" x="192.246488" xlink:href="#mb3a7abc878" y="307.584"/>
      </g>
     </g>
     <g id="text_8">
      <!-- 35.0 -->
      <g transform="translate(181.113676 322.182437)scale(0.1 -0.1)">
       <use xlink:href="#DejaVuSans-33"/>
       <use x="63.623047" xlink:href="#DejaVuSans-35"/>
       <use x="127.246094" xlink:href="#DejaVuSans-2e"/>
       <use x="159.033203" xlink:href="#DejaVuSans-30"/>
      </g>
     </g>
    </g>
    <g id="xtick_9">
     <g id="line2d_9">
      <g>
       <use style="stroke:#000000;stroke-width:0.8;" x="210.427627" xlink:href="#mb3a7abc878" y="307.584"/>
      </g>
     </g>
     <g id="text_9">
      <!-- 40.0 -->
      <defs>
       <path d="M 37.796875 64.3125 
L 12.890625 25.390625 
L 37.796875 25.390625 
z
M 35.203125 72.90625 
L 47.609375 72.90625 
L 47.609375 25.390625 
L 58.015625 25.390625 
L 58.015625 17.1875 
L 47.609375 17.1875 
L 47.609375 0 
L 37.796875 0 
L 37.796875 17.1875 
L 4.890625 17.1875 
L 4.890625 26.703125 
z
" id="DejaVuSans-34"/>
      </defs>
      <g transform="translate(199.294815 322.182437)scale(0.1 -0.1)">
       <use xlink:href="#DejaVuSans-34"/>
       <use x="63.623047" xlink:href="#DejaVuSans-30"/>
       <use x="127.246094" xlink:href="#DejaVuSans-2e"/>
       <use x="159.033203" xlink:href="#DejaVuSans-30"/>
      </g>
     </g>
    </g>
    <g id="text_10">
     <!-- Minutes -->
     <defs>
      <path d="M 9.8125 72.90625 
L 24.515625 72.90625 
L 43.109375 23.296875 
L 61.8125 72.90625 
L 76.515625 72.90625 
L 76.515625 0 
L 66.890625 0 
L 66.890625 64.015625 
L 48.09375 14.015625 
L 38.1875 14.015625 
L 19.390625 64.015625 
L 19.390625 0 
L 9.8125 0 
z
" id="DejaVuSans-4d"/>
      <path d="M 9.421875 54.6875 
L 18.40625 54.6875 
L 18.40625 0 
L 9.421875 0 
z
M 9.421875 75.984375 
L 18.40625 75.984375 
L 18.40625 64.59375 
L 9.421875 64.59375 
z
" id="DejaVuSans-69"/>
      <path d="M 54.890625 33.015625 
L 54.890625 0 
L 45.90625 0 
L 45.90625 32.71875 
Q 45.90625 40.484375 42.875 44.328125 
Q 39.84375 48.1875 33.796875 48.1875 
Q 26.515625 48.1875 22.3125 43.546875 
Q 18.109375 38.921875 18.109375 30.90625 
L 18.109375 0 
L 9.078125 0 
L 9.078125 54.6875 
L 18.109375 54.6875 
L 18.109375 46.1875 
Q 21.34375 51.125 25.703125 53.5625 
Q 30.078125 56 35.796875 56 
Q 45.21875 56 50.046875 50.171875 
Q 54.890625 44.34375 54.890625 33.015625 
z
" id="DejaVuSans-6e"/>
      <path d="M 8.5 21.578125 
L 8.5 54.6875 
L 17.484375 54.6875 
L 17.484375 21.921875 
Q 17.484375 14.15625 20.5 10.265625 
Q 23.53125 6.390625 29.59375 6.390625 
Q 36.859375 6.390625 41.078125 11.03125 
Q 45.3125 15.671875 45.3125 23.6875 
L 45.3125 54.6875 
L 54.296875 54.6875 
L 54.296875 0 
L 45.3125 0 
L 45.3125 8.40625 
Q 42.046875 3.421875 37.71875 1 
Q 33.40625 -1.421875 27.6875 -1.421875 
Q 18.265625 -1.421875 13.375 4.4375 
Q 8.5 10.296875 8.5 21.578125 
z
M 31.109375 56 
z
" id="DejaVuSans-75"/>
      <path d="M 18.3125 70.21875 
L 18.3125 54.6875 
L 36.8125 54.6875 
L 36.8125 47.703125 
L 18.3125 47.703125 
L 18.3125 18.015625 
Q 18.3125 11.328125 20.140625 9.421875 
Q 21.96875 7.515625 27.59375 7.515625 
L 36.8125 7.515625 
L 36.8125 0 
L 27.59375 0 
Q 17.1875 0 13.234375 3.875 
Q 9.28125 7.765625 9.28125 18.015625 
L 9.28125 47.703125 
L 2.6875 47.703125 
L 2.6875 54.6875 
L 9.28125 54.6875 
L 9.28125 70.21875 
z
" id="DejaVuSans-74"/>
      <path d="M 56.203125 29.59375 
L 56.203125 25.203125 
L 14.890625 25.203125 
Q 15.484375 15.921875 20.484375 11.0625 
Q 25.484375 6.203125 34.421875 6.203125 
Q 39.59375 6.203125 44.453125 7.46875 
Q 49.3125 8.734375 54.109375 11.28125 
L 54.109375 2.78125 
Q 49.265625 0.734375 44.1875 -0.34375 
Q 39.109375 -1.421875 33.890625 -1.421875 
Q 20.796875 -1.421875 13.15625 6.1875 
Q 5.515625 13.8125 5.515625 26.8125 
Q 5.515625 40.234375 12.765625 48.109375 
Q 20.015625 56 32.328125 56 
Q 43.359375 56 49.78125 48.890625 
Q 56.203125 41.796875 56.203125 29.59375 
z
M 47.21875 32.234375 
Q 47.125 39.59375 43.09375 43.984375 
Q 39.0625 48.390625 32.421875 48.390625 
Q 24.90625 48.390625 20.390625 44.140625 
Q 15.875 39.890625 15.1875 32.171875 
z
" id="DejaVuSans-65"/>
      <path d="M 44.28125 53.078125 
L 44.28125 44.578125 
Q 40.484375 46.53125 36.375 47.5 
Q 32.28125 48.484375 27.875 48.484375 
Q 21.1875 48.484375 17.84375 46.4375 
Q 14.5 44.390625 14.5 40.28125 
Q 14.5 37.15625 16.890625 35.375 
Q 19.28125 33.59375 26.515625 31.984375 
L 29.59375 31.296875 
Q 39.15625 29.25 43.1875 25.515625 
Q 47.21875 21.78125 47.21875 15.09375 
Q 47.21875 7.46875 41.1875 3.015625 
Q 35.15625 -1.421875 24.609375 -1.421875 
Q 20.21875 -1.421875 15.453125 -0.5625 
Q 10.6875 0.296875 5.421875 2 
L 5.421875 11.28125 
Q 10.40625 8.6875 15.234375 7.390625 
Q 20.0625 6.109375 24.8125 6.109375 
Q 31.15625 6.109375 34.5625 8.28125 
Q 37.984375 10.453125 37.984375 14.40625 
Q 37.984375 18.0625 35.515625 20.015625 
Q 33.0625 21.96875 24.703125 23.78125 
L 21.578125 24.515625 
Q 13.234375 26.265625 9.515625 29.90625 
Q 5.8125 33.546875 5.8125 39.890625 
Q 5.8125 47.609375 11.28125 51.796875 
Q 16.75 56 26.8125 56 
Q 31.78125 56 36.171875 55.265625 
Q 40.578125 54.546875 44.28125 53.078125 
z
" id="DejaVuSans-73"/>
     </defs>
     <g transform="translate(119.081605 335.860562)scale(0.1 -0.1)">
      <use xlink:href="#DejaVuSans-4d"/>
      <use x="86.279297" xlink:href="#DejaVuSans-69"/>
      <use x="114.0625" xlink:href="#DejaVuSans-6e"/>
      <use x="177.441406" xlink:href="#DejaVuSans-75"/>
      <use x="240.820312" xlink:href="#DejaVuSans-74"/>
      <use x="280.029297" xlink:href="#DejaVuSans-65"/>
      <use x="341.552734" xlink:href="#DejaVuSans-73"/>
     </g>
    </g>
   </g>
   <g id="matplotlib.axis_2">
    <g id="ytick_1">
     <g id="line2d_10">
      <defs>
       <path d="M 0 0 
L -3.5 0 
" id="m34feeacc39" style="stroke:#000000;stroke-width:0.8;"/>
      </defs>
      <g>
       <use style="stroke:#000000;stroke-width:0.8;" x="57.6" xlink:href="#m34feeacc39" y="298.154478"/>
      </g>
     </g>
     <g id="text_11">
      <!-- 0.28 -->
      <defs>
       <path d="M 31.78125 34.625 
Q 24.75 34.625 20.71875 30.859375 
Q 16.703125 27.09375 16.703125 20.515625 
Q 16.703125 13.921875 20.71875 10.15625 
Q 24.75 6.390625 31.78125 6.390625 
Q 38.8125 6.390625 42.859375 10.171875 
Q 46.921875 13.96875 46.921875 20.515625 
Q 46.921875 27.09375 42.890625 30.859375 
Q 38.875 34.625 31.78125 34.625 
z
M 21.921875 38.8125 
Q 15.578125 40.375 12.03125 44.71875 
Q 8.5 49.078125 8.5 55.328125 
Q 8.5 64.0625 14.71875 69.140625 
Q 20.953125 74.21875 31.78125 74.21875 
Q 42.671875 74.21875 48.875 69.140625 
Q 55.078125 64.0625 55.078125 55.328125 
Q 55.078125 49.078125 51.53125 44.71875 
Q 48 40.375 41.703125 38.8125 
Q 48.828125 37.15625 52.796875 32.3125 
Q 56.78125 27.484375 56.78125 20.515625 
Q 56.78125 9.90625 50.3125 4.234375 
Q 43.84375 -1.421875 31.78125 -1.421875 
Q 19.734375 -1.421875 13.25 4.234375 
Q 6.78125 9.90625 6.78125 20.515625 
Q 6.78125 27.484375 10.78125 32.3125 
Q 14.796875 37.15625 21.921875 38.8125 
z
M 18.3125 54.390625 
Q 18.3125 48.734375 21.84375 45.5625 
Q 25.390625 42.390625 31.78125 42.390625 
Q 38.140625 42.390625 41.71875 45.5625 
Q 45.3125 48.734375 45.3125 54.390625 
Q 45.3125 60.0625 41.71875 63.234375 
Q 38.140625 66.40625 31.78125 66.40625 
Q 25.390625 66.40625 21.84375 63.234375 
Q 18.3125 60.0625 18.3125 54.390625 
z
" id="DejaVuSans-38"/>
      </defs>
      <g transform="translate(28.334375 301.953696)scale(0.1 -0.1)">
       <use xlink:href="#DejaVuSans-30"/>
       <use x="63.623047" xlink:href="#DejaVuSans-2e"/>
       <use x="95.410156" xlink:href="#DejaVuSans-32"/>
       <use x="159.033203" xlink:href="#DejaVuSans-38"/>
      </g>
     </g>
    </g>
    <g id="ytick_2">
     <g id="line2d_11">
      <g>
       <use style="stroke:#000000;stroke-width:0.8;" x="57.6" xlink:href="#m34feeacc39" y="257.246359"/>
      </g>
     </g>
     <g id="text_12">
      <!-- 0.30 -->
      <g transform="translate(28.334375 261.045578)scale(0.1 -0.1)">
       <use xlink:href="#DejaVuSans-30"/>
       <use x="63.623047" xlink:href="#DejaVuSans-2e"/>
       <use x="95.410156" xlink:href="#DejaVuSans-33"/>
       <use x="159.033203" xlink:href="#DejaVuSans-30"/>
      </g>
     </g>
    </g>
    <g id="ytick_3">
     <g id="line2d_12">
      <g>
       <use style="stroke:#000000;stroke-width:0.8;" x="57.6" xlink:href="#m34feeacc39" y="216.33824"/>
      </g>
     </g>
     <g id="text_13">
      <!-- 0.32 -->
      <g transform="translate(28.334375 220.137459)scale(0.1 -0.1)">
       <use xlink:href="#DejaVuSans-30"/>
       <use x="63.623047" xlink:href="#DejaVuSans-2e"/>
       <use x="95.410156" xlink:href="#DejaVuSans-33"/>
       <use x="159.033203" xlink:href="#DejaVuSans-32"/>
      </g>
     </g>
    </g>
    <g id="ytick_4">
     <g id="line2d_13">
      <g>
       <use style="stroke:#000000;stroke-width:0.8;" x="57.6" xlink:href="#m34feeacc39" y="175.430122"/>
      </g>
     </g>
     <g id="text_14">
      <!-- 0.34 -->
      <g transform="translate(28.334375 179.229341)scale(0.1 -0.1)">
       <use xlink:href="#DejaVuSans-30"/>
       <use x="63.623047" xlink:href="#DejaVuSans-2e"/>
       <use x="95.410156" xlink:href="#DejaVuSans-33"/>
       <use x="159.033203" xlink:href="#DejaVuSans-34"/>
      </g>
     </g>
    </g>
    <g id="ytick_5">
     <g id="line2d_14">
      <g>
       <use style="stroke:#000000;stroke-width:0.8;" x="57.6" xlink:href="#m34feeacc39" y="134.522003"/>
      </g>
     </g>
     <g id="text_15">
      <!-- 0.36 -->
      <defs>
       <path d="M 33.015625 40.375 
Q 26.375 40.375 22.484375 35.828125 
Q 18.609375 31.296875 18.609375 23.390625 
Q 18.609375 15.53125 22.484375 10.953125 
Q 26.375 6.390625 33.015625 6.390625 
Q 39.65625 6.390625 43.53125 10.953125 
Q 47.40625 15.53125 47.40625 23.390625 
Q 47.40625 31.296875 43.53125 35.828125 
Q 39.65625 40.375 33.015625 40.375 
z
M 52.59375 71.296875 
L 52.59375 62.3125 
Q 48.875 64.0625 45.09375 64.984375 
Q 41.3125 65.921875 37.59375 65.921875 
Q 27.828125 65.921875 22.671875 59.328125 
Q 17.53125 52.734375 16.796875 39.40625 
Q 19.671875 43.65625 24.015625 45.921875 
Q 28.375 48.1875 33.59375 48.1875 
Q 44.578125 48.1875 50.953125 41.515625 
Q 57.328125 34.859375 57.328125 23.390625 
Q 57.328125 12.15625 50.6875 5.359375 
Q 44.046875 -1.421875 33.015625 -1.421875 
Q 20.359375 -1.421875 13.671875 8.265625 
Q 6.984375 17.96875 6.984375 36.375 
Q 6.984375 53.65625 15.1875 63.9375 
Q 23.390625 74.21875 37.203125 74.21875 
Q 40.921875 74.21875 44.703125 73.484375 
Q 48.484375 72.75 52.59375 71.296875 
z
" id="DejaVuSans-36"/>
      </defs>
      <g transform="translate(28.334375 138.321222)scale(0.1 -0.1)">
       <use xlink:href="#DejaVuSans-30"/>
       <use x="63.623047" xlink:href="#DejaVuSans-2e"/>
       <use x="95.410156" xlink:href="#DejaVuSans-33"/>
       <use x="159.033203" xlink:href="#DejaVuSans-36"/>
      </g>
     </g>
    </g>
    <g id="ytick_6">
     <g id="line2d_15">
      <g>
       <use style="stroke:#000000;stroke-width:0.8;" x="57.6" xlink:href="#m34feeacc39" y="93.613884"/>
      </g>
     </g>
     <g id="text_16">
      <!-- 0.38 -->
      <g transform="translate(28.334375 97.413103)scale(0.1 -0.1)">
       <use xlink:href="#DejaVuSans-30"/>
       <use x="63.623047" xlink:href="#DejaVuSans-2e"/>
       <use x="95.410156" xlink:href="#DejaVuSans-33"/>
       <use x="159.033203" xlink:href="#DejaVuSans-38"/>
      </g>
     </g>
    </g>
    <g id="ytick_7">
     <g id="line2d_16">
      <g>
       <use style="stroke:#000000;stroke-width:0.8;" x="57.6" xlink:href="#m34feeacc39" y="52.705766"/>
      </g>
     </g>
     <g id="text_17">
      <!-- 0.40 -->
      <g transform="translate(28.334375 56.504985)scale(0.1 -0.1)">
       <use xlink:href="#DejaVuSans-30"/>
       <use x="63.623047" xlink:href="#DejaVuSans-2e"/>
       <use x="95.410156" xlink:href="#DejaVuSans-34"/>
       <use x="159.033203" xlink:href="#DejaVuSans-30"/>
      </g>
     </g>
    </g>
   </g>
   <g id="line2d_17">
    <path clip-path="url(#p98661125d2)" d="M 64.978512 214.615169 
L 65.281531 130.048241 
L 65.58455 128.44998 
L 65.887569 85.180921 
L 66.190588 153.86749 
L 66.493607 206.438258 
L 66.796626 179.756377 
L 67.099645 53.568 
L 67.402664 232.354151 
L 67.705683 264.721091 
L 68.008702 237.984155 
L 68.311721 278.416628 
L 68.61474 169.60705 
L 68.917759 220.691999 
L 69.220778 157.877874 
L 69.523797 283.541982 
L 69.826816 246.247639 
L 70.129835 191.67705 
L 70.432854 239.548045 
L 70.735873 257.683585 
L 71.038892 241.469396 
L 71.341911 194.693124 
L 71.64493 173.915727 
L 71.947949 210.280959 
L 72.250968 267.402045 
L 72.553987 240.799157 
L 72.857006 233.337167 
L 73.160025 261.160448 
L 73.463044 253.997273 
L 73.766063 200.438026 
L 74.069082 168.793189 
L 74.372101 174.490217 
L 74.67512 177.985033 
L 74.978139 200.674206 
L 75.281158 260.40643 
L 75.584177 248.976068 
L 75.887196 189.139718 
L 76.190215 79.874866 
L 76.493234 65.855708 
L 76.796253 54.126532 
L 77.099272 155.484165 
L 77.402291 260.615879 
L 77.70531 224.936843 
L 78.008329 230.700896 
L 78.311348 171.234772 
L 78.614367 205.857384 
L 78.917386 167.069718 
L 79.220405 154.743956 
L 79.523424 159.122603 
L 79.826443 181.479848 
L 80.129462 217.296123 
L 80.432481 239.503363 
L 80.7355 85.516041 
L 81.038519 158.117245 
L 81.341538 125.04723 
L 81.644557 59.153322 
L 81.947576 61.387451 
L 82.250595 235.169153 
L 82.553614 222.61335 
L 82.856633 220.736681 
L 83.159652 123.191184 
L 83.462671 284.054518 
L 83.76569 262.542815 
L 84.068709 261.537457 
L 84.371728 213.498104 
L 84.674747 169.080434 
L 84.977766 174.155098 
L 85.280785 257.055236 
L 85.583804 64.738644 
L 85.886823 185.884273 
L 86.189842 287.011453 
L 86.492861 167.692082 
L 86.79588 104.579174 
L 87.098899 259.694301 
L 87.401918 249.975841 
L 87.704937 185.453406 
L 88.007956 126.078366 
L 88.310975 221.22819 
L 88.613994 244.597176 
L 88.917013 282.201505 
L 89.220032 231.505182 
L 89.523051 199.959284 
L 89.82607 185.692777 
L 90.129089 172.096508 
L 90.432108 174.87321 
L 90.735127 168.936811 
L 91.038146 172.862495 
L 91.341164 242.720508 
L 91.644183 266.857476 
L 91.947202 281.812175 
L 92.250221 234.498914 
L 92.55324 57.198459 
L 92.856259 271.339697 
L 93.159278 244.775906 
L 93.462297 214.034295 
L 93.765316 212.336357 
L 94.068335 178.846768 
L 94.371354 142.112536 
L 94.674373 160.750325 
L 94.977392 175.639197 
L 95.280411 154.073718 
L 95.58343 149.433604 
L 95.886449 152.180846 
L 96.189468 174.346594 
L 96.492487 277.194428 
L 96.795506 293.161878 
L 97.098525 265.433219 
L 97.401544 254.081053 
L 97.704563 280.821602 
L 98.007582 273.476083 
L 98.310601 236.420265 
L 98.61362 210.415007 
L 98.916639 205.053098 
L 99.219658 197.804946 
L 99.522677 189.347173 
L 99.825696 191.246182 
L 100.128715 186.219393 
L 100.431734 192.203666 
L 100.734753 183.969306 
L 101.037772 179.804252 
L 101.340791 213.498104 
L 101.64381 246.205749 
" style="fill:none;stroke:#0000ff;stroke-linecap:square;stroke-width:1.5;"/>
   </g>
   <g id="line2d_18">
    <path clip-path="url(#p98661125d2)" d="M 101.946829 213.989613 
L 102.249848 240.039554 
L 102.552867 261.663127 
L 102.855886 243.315345 
L 103.158905 202.735987 
L 103.461924 197.27833 
L 104.067962 271.088357 
L 104.370981 269.78977 
L 104.674 226.768829 
L 104.977019 253.955383 
L 105.280038 229.137005 
L 105.583057 219.887713 
L 105.886076 234.007406 
L 106.189095 265.558889 
L 106.492114 167.979328 
L 106.795133 267.695274 
L 107.098152 244.463128 
L 107.401171 251.735217 
L 107.70419 269.95733 
L 108.007209 230.477483 
L 108.310228 220.334538 
L 108.613247 231.862642 
L 108.916266 213.989613 
L 109.522304 191.820673 
L 109.825323 241.111935 
L 110.128342 227.528433 
L 110.73438 166.878221 
L 111.037399 152.132972 
L 111.340418 175.304078 
L 111.643437 173.484859 
L 112.249475 244.153143 
L 112.552494 255.21208 
L 112.855513 285.316143 
L 113.461551 248.635364 
L 113.76457 241.220849 
L 114.067589 241.782174 
L 114.370608 240.424941 
L 114.673627 249.012373 
L 114.976646 244.105668 
L 115.279665 242.226207 
L 115.582684 231.415817 
L 115.885703 231.103039 
L 116.188722 242.005587 
L 116.491741 224.713431 
L 116.79476 235.615979 
L 117.097779 211.040563 
L 117.400798 231.907325 
L 117.703817 241.290666 
L 118.006836 239.503363 
L 118.309855 250.059621 
L 118.612874 222.077159 
L 118.915893 220.915412 
L 119.218912 224.981526 
L 119.521931 240.131711 
L 119.82495 238.386298 
L 120.127969 229.941292 
L 120.430987 228.779545 
L 120.734006 218.547235 
L 121.037025 245.367951 
L 121.340044 240.977888 
L 121.643063 234.811692 
L 121.946082 245.242281 
L 122.249101 225.517717 
L 122.55212 219.708982 
L 122.855139 238.296933 
L 123.158158 230.656213 
L 123.461177 234.309013 
L 123.764196 255.798539 
L 124.067215 241.558761 
L 124.370234 237.660206 
L 124.673253 242.005587 
L 124.976272 233.56058 
L 125.279291 234.990423 
L 125.58231 246.498978 
L 125.885329 250.47852 
L 126.491367 232.884756 
L 126.794386 234.454232 
L 127.097405 233.649945 
L 127.400424 245.200391 
L 127.703443 242.809873 
L 128.006462 235.884074 
L 128.309481 237.450757 
L 128.6125 247.127327 
L 128.915519 242.943921 
L 129.218538 236.777726 
L 129.521557 257.809255 
L 129.824576 265.475109 
L 130.127595 255.966099 
L 130.430614 205.812702 
L 130.733633 223.551684 
L 131.036652 225.830495 
L 131.339671 227.170972 
L 131.64269 219.619617 
L 132.248728 261.746907 
L 132.551747 247.797566 
L 132.854766 243.650464 
L 133.157785 219.262156 
L 133.460804 215.732233 
L 133.763823 231.371134 
L 134.066842 224.847478 
L 134.369861 235.884074 
L 134.67288 230.968991 
L 134.975899 219.128109 
L 135.278918 220.468586 
L 135.581937 243.61416 
L 135.884956 252.196006 
L 136.490994 231.81796 
L 136.794013 247.378666 
L 137.097032 256.510668 
L 137.400051 260.867219 
L 137.70307 262.417145 
L 138.006089 248.886703 
L 138.309108 270.627568 
L 138.612127 267.862834 
L 138.915146 217.340806 
L 139.218165 213.453422 
L 139.521184 232.507747 
L 139.824203 199.199681 
L 140.127222 196.895336 
L 140.73326 224.266605 
L 141.339298 254.122942 
L 141.642317 251.316318 
L 141.945336 227.260337 
L 142.551374 244.446372 
L 142.854393 219.485569 
L 143.157412 235.258518 
L 143.460431 221.853746 
L 143.76345 214.481121 
L 144.066469 225.204939 
L 144.369488 227.66248 
L 144.672507 211.174611 
L 144.975526 228.69018 
L 145.278545 219.262156 
L 145.581564 217.474854 
L 145.884583 199.423093 
L 146.187602 197.326204 
L 146.490621 224.087875 
L 146.79364 222.389937 
L 147.096659 208.851117 
L 147.399678 254.458062 
L 147.702697 253.117585 
L 148.005716 217.296123 
L 148.308735 194.836746 
L 148.611754 215.642868 
L 148.914773 228.511449 
L 149.217792 224.17724 
L 149.52081 217.787632 
L 149.823829 193.783514 
L 150.126848 192.873905 
L 150.429867 204.516907 
L 150.732886 191.772798 
L 151.035905 172.431627 
L 151.338924 175.256204 
L 151.641943 214.972629 
L 151.944962 186.506638 
L 152.247981 126.078366 
L 152.551 170.277288 
L 152.854019 190.049328 
L 153.157038 232.220103 
L 153.460057 224.490018 
L 153.763076 233.783993 
L 154.066095 203.087065 
L 154.369114 213.632152 
L 154.672133 195.842104 
L 154.975152 143.195229 
L 155.278171 144.690377 
L 155.58119 194.061185 
L 155.884209 182.724577 
L 156.187228 233.426533 
L 156.793266 118.3964 
L 157.399304 204.606272 
L 157.702323 194.788872 
L 158.005342 132.98698 
L 158.308361 156.445331 
L 158.61138 197.144282 
L 158.914399 126.490821 
L 159.217418 192.873905 
L 159.520437 228.109306 
L 159.823456 200.138015 
L 160.126475 153.609706 
L 160.429494 187.416247 
L 160.732513 180.857484 
L 161.035532 131.285605 
L 161.338551 193.592017 
L 161.64157 206.840401 
L 161.944589 140.565832 
L 162.247608 173.341236 
L 162.550627 242.561326 
L 162.853646 206.527623 
L 163.156665 214.168343 
L 163.459684 201.012516 
L 163.762703 113.807844 
L 164.065722 130.821593 
L 164.368741 199.863536 
L 164.67176 179.612755 
L 164.974779 102.495419 
L 165.277798 177.697787 
L 165.580817 221.719698 
L 166.186855 111.075333 
L 166.489874 173.532733 
L 166.792893 208.627704 
L 167.095912 152.887911 
L 167.398931 147.967917 
L 167.70195 186.65026 
L 168.004969 181.192603 
L 168.307988 162.481775 
L 168.611007 156.489523 
L 169.217045 192.778156 
L 169.520064 159.744967 
L 169.823083 162.713167 
L 170.126102 156.824642 
L 170.429121 145.861453 
L 171.035159 172.096508 
L 171.338178 177.219046 
L 171.641197 161.516312 
L 171.944216 188.900347 
L 172.550254 146.914685 
L 172.853273 157.940479 
L 173.459311 169.894295 
L 173.76233 156.585271 
L 174.065349 177.745662 
L 174.368368 153.425575 
L 174.671387 138.245775 
L 175.277425 182.150087 
L 175.883463 139.276911 
L 176.186482 174.681714 
L 176.79252 152.372343 
L 177.095539 161.133319 
L 177.398558 165.158433 
L 178.004596 160.319458 
L 178.307615 127.264173 
L 178.610633 170.947527 
L 179.216671 146.133968 
L 179.51969 159.590297 
L 179.822709 111.642458 
L 180.428747 235.169153 
L 180.731766 237.269234 
L 181.034785 240.215491 
L 181.640823 249.305602 
L 181.943842 277.825241 
L 182.246861 295.488 
L 182.54988 274.198067 
L 182.852899 234.186136 
L 183.155918 219.083426 
L 183.458937 220.647316 
L 183.761956 215.910963 
L 184.367994 183.682061 
L 184.671013 181.575597 
L 184.974032 160.208979 
L 185.277051 147.422888 
L 185.58007 154.000065 
L 185.883089 198.84222 
L 186.186108 98.306428 
L 186.792146 183.107571 
L 187.095165 97.30107 
L 187.398184 114.168742 
L 187.701203 194.166508 
L 188.004222 219.396204 
L 188.307241 206.170162 
L 188.913279 55.857982 
L 189.216298 178.368026 
L 189.519317 192.969653 
L 189.822336 179.612755 
L 190.125355 187.320499 
L 190.428374 110.765992 
L 190.731393 86.912371 
L 191.034412 207.108496 
L 191.337431 238.079106 
L 191.64045 186.602386 
L 191.943469 204.650955 
L 192.246488 166.399479 
L 192.549507 92.669549 
L 192.852526 175.495575 
L 193.458564 203.980716 
L 193.761583 92.463322 
L 194.064602 115.00654 
L 194.367621 107.105458 
L 194.67064 123.552082 
L 194.973659 154.176831 
L 195.276678 159.026855 
L 195.579697 141.390741 
L 195.882716 163.287657 
L 196.185735 226.679464 
L 196.488754 242.184317 
L 196.791773 216.089694 
L 197.094792 226.545416 
L 197.397811 201.880635 
L 197.70083 226.813512 
L 198.003849 276.827276 
L 199.215925 209.61072 
L 199.518944 225.338987 
L 199.821963 223.775096 
L 200.428001 211.263976 
L 200.73102 233.694628 
L 201.034039 241.648126 
L 201.337058 263.841402 
L 201.640077 242.40773 
L 201.943096 195.356979 
L 202.246115 196.177224 
L 202.549134 218.815331 
L 202.852153 207.912783 
L 203.155172 192.273882 
L 203.458191 217.296123 
L 203.76121 217.519536 
L 204.064229 221.58565 
L 204.367248 244.507811 
L 204.670267 228.779545 
L 204.973286 223.953827 
L 205.276305 241.692809 
L 205.579324 234.677645 
L 205.882343 230.656213 
L 206.185362 241.807308 
L 206.488381 238.028838 
L 206.7914 245.200391 
L 207.094419 185.357657 
L 207.397438 192.873905 
L 207.700456 225.562399 
L 208.003475 193.113276 
L 208.306494 192.634534 
L 208.609513 228.824227 
L 208.912532 221.675015 
L 209.215551 226.411368 
L 209.51857 239.084464 
L 209.821589 186.841757 
L 210.730646 273.015293 
L 211.033665 199.110315 
L 211.336684 248.384024 
L 211.639703 259.065952 
L 211.942722 249.766391 
L 212.245741 210.057546 
L 212.54876 223.417636 
L 212.54876 223.417636 
" style="fill:none;stroke:#ff0000;stroke-linecap:square;stroke-width:1.5;"/>
   </g>
   <g id="patch_3">
    <path d="M 57.6 307.584 
L 57.6 41.472 
" style="fill:none;stroke:#000000;stroke-linecap:square;stroke-linejoin:miter;stroke-width:0.8;"/>
   </g>
   <g id="patch_4">
    <path d="M 219.927273 307.584 
L 219.927273 41.472 
" style="fill:none;stroke:#000000;stroke-linecap:square;stroke-linejoin:miter;stroke-width:0.8;"/>
   </g>
   <g id="patch_5">
    <path d="M 57.6 307.584 
L 219.927273 307.584 
" style="fill:none;stroke:#000000;stroke-linecap:square;stroke-linejoin:miter;stroke-width:0.8;"/>
   </g>
   <g id="patch_6">
    <path d="M 57.6 41.472 
L 219.927273 41.472 
" style="fill:none;stroke:#000000;stroke-linecap:square;stroke-linejoin:miter;stroke-width:0.8;"/>
   </g>
   <g id="text_18">
    <!-- IBI - Reg vs Stress -->
    <defs>
     <path d="M 9.8125 72.90625 
L 19.671875 72.90625 
L 19.671875 0 
L 9.8125 0 
z
" id="DejaVuSans-49"/>
     <path d="M 19.671875 34.8125 
L 19.671875 8.109375 
L 35.5 8.109375 
Q 43.453125 8.109375 47.28125 11.40625 
Q 51.125 14.703125 51.125 21.484375 
Q 51.125 28.328125 47.28125 31.5625 
Q 43.453125 34.8125 35.5 34.8125 
z
M 19.671875 64.796875 
L 19.671875 42.828125 
L 34.28125 42.828125 
Q 41.5 42.828125 45.03125 45.53125 
Q 48.578125 48.25 48.578125 53.8125 
Q 48.578125 59.328125 45.03125 62.0625 
Q 41.5 64.796875 34.28125 64.796875 
z
M 9.8125 72.90625 
L 35.015625 72.90625 
Q 46.296875 72.90625 52.390625 68.21875 
Q 58.5 63.53125 58.5 54.890625 
Q 58.5 48.1875 55.375 44.234375 
Q 52.25 40.28125 46.1875 39.3125 
Q 53.46875 37.75 57.5 32.78125 
Q 61.53125 27.828125 61.53125 20.40625 
Q 61.53125 10.640625 54.890625 5.3125 
Q 48.25 0 35.984375 0 
L 9.8125 0 
z
" id="DejaVuSans-42"/>
     <path id="DejaVuSans-20"/>
     <path d="M 4.890625 31.390625 
L 31.203125 31.390625 
L 31.203125 23.390625 
L 4.890625 23.390625 
z
" id="DejaVuSans-2d"/>
     <path d="M 44.390625 34.1875 
Q 47.5625 33.109375 50.5625 29.59375 
Q 53.5625 26.078125 56.59375 19.921875 
L 66.609375 0 
L 56 0 
L 46.6875 18.703125 
Q 43.0625 26.03125 39.671875 28.421875 
Q 36.28125 30.8125 30.421875 30.8125 
L 19.671875 30.8125 
L 19.671875 0 
L 9.8125 0 
L 9.8125 72.90625 
L 32.078125 72.90625 
Q 44.578125 72.90625 50.734375 67.671875 
Q 56.890625 62.453125 56.890625 51.90625 
Q 56.890625 45.015625 53.6875 40.46875 
Q 50.484375 35.9375 44.390625 34.1875 
z
M 19.671875 64.796875 
L 19.671875 38.921875 
L 32.078125 38.921875 
Q 39.203125 38.921875 42.84375 42.21875 
Q 46.484375 45.515625 46.484375 51.90625 
Q 46.484375 58.296875 42.84375 61.546875 
Q 39.203125 64.796875 32.078125 64.796875 
z
" id="DejaVuSans-52"/>
     <path d="M 45.40625 27.984375 
Q 45.40625 37.75 41.375 43.109375 
Q 37.359375 48.484375 30.078125 48.484375 
Q 22.859375 48.484375 18.828125 43.109375 
Q 14.796875 37.75 14.796875 27.984375 
Q 14.796875 18.265625 18.828125 12.890625 
Q 22.859375 7.515625 30.078125 7.515625 
Q 37.359375 7.515625 41.375 12.890625 
Q 45.40625 18.265625 45.40625 27.984375 
z
M 54.390625 6.78125 
Q 54.390625 -7.171875 48.1875 -13.984375 
Q 42 -20.796875 29.203125 -20.796875 
Q 24.46875 -20.796875 20.265625 -20.09375 
Q 16.0625 -19.390625 12.109375 -17.921875 
L 12.109375 -9.1875 
Q 16.0625 -11.328125 19.921875 -12.34375 
Q 23.78125 -13.375 27.78125 -13.375 
Q 36.625 -13.375 41.015625 -8.765625 
Q 45.40625 -4.15625 45.40625 5.171875 
L 45.40625 9.625 
Q 42.625 4.78125 38.28125 2.390625 
Q 33.9375 0 27.875 0 
Q 17.828125 0 11.671875 7.65625 
Q 5.515625 15.328125 5.515625 27.984375 
Q 5.515625 40.671875 11.671875 48.328125 
Q 17.828125 56 27.875 56 
Q 33.9375 56 38.28125 53.609375 
Q 42.625 51.21875 45.40625 46.390625 
L 45.40625 54.6875 
L 54.390625 54.6875 
z
" id="DejaVuSans-67"/>
     <path d="M 2.984375 54.6875 
L 12.5 54.6875 
L 29.59375 8.796875 
L 46.6875 54.6875 
L 56.203125 54.6875 
L 35.6875 0 
L 23.484375 0 
z
" id="DejaVuSans-76"/>
     <path d="M 53.515625 70.515625 
L 53.515625 60.890625 
Q 47.90625 63.578125 42.921875 64.890625 
Q 37.9375 66.21875 33.296875 66.21875 
Q 25.25 66.21875 20.875 63.09375 
Q 16.5 59.96875 16.5 54.203125 
Q 16.5 49.359375 19.40625 46.890625 
Q 22.3125 44.4375 30.421875 42.921875 
L 36.375 41.703125 
Q 47.40625 39.59375 52.65625 34.296875 
Q 57.90625 29 57.90625 20.125 
Q 57.90625 9.515625 50.796875 4.046875 
Q 43.703125 -1.421875 29.984375 -1.421875 
Q 24.8125 -1.421875 18.96875 -0.25 
Q 13.140625 0.921875 6.890625 3.21875 
L 6.890625 13.375 
Q 12.890625 10.015625 18.65625 8.296875 
Q 24.421875 6.59375 29.984375 6.59375 
Q 38.421875 6.59375 43.015625 9.90625 
Q 47.609375 13.234375 47.609375 19.390625 
Q 47.609375 24.75 44.3125 27.78125 
Q 41.015625 30.8125 33.5 32.328125 
L 27.484375 33.5 
Q 16.453125 35.6875 11.515625 40.375 
Q 6.59375 45.0625 6.59375 53.421875 
Q 6.59375 63.09375 13.40625 68.65625 
Q 20.21875 74.21875 32.171875 74.21875 
Q 37.3125 74.21875 42.625 73.28125 
Q 47.953125 72.359375 53.515625 70.515625 
z
" id="DejaVuSans-53"/>
     <path d="M 41.109375 46.296875 
Q 39.59375 47.171875 37.8125 47.578125 
Q 36.03125 48 33.890625 48 
Q 26.265625 48 22.1875 43.046875 
Q 18.109375 38.09375 18.109375 28.8125 
L 18.109375 0 
L 9.078125 0 
L 9.078125 54.6875 
L 18.109375 54.6875 
L 18.109375 46.1875 
Q 20.953125 51.171875 25.484375 53.578125 
Q 30.03125 56 36.53125 56 
Q 37.453125 56 38.578125 55.875 
Q 39.703125 55.765625 41.0625 55.515625 
z
" id="DejaVuSans-72"/>
    </defs>
    <g transform="translate(84.402699 35.472)scale(0.12 -0.12)">
     <use xlink:href="#DejaVuSans-49"/>
     <use x="29.492188" xlink:href="#DejaVuSans-42"/>
     <use x="98.095703" xlink:href="#DejaVuSans-49"/>
     <use x="127.587891" xlink:href="#DejaVuSans-20"/>
     <use x="159.375" xlink:href="#DejaVuSans-2d"/>
     <use x="195.458984" xlink:href="#DejaVuSans-20"/>
     <use x="227.246094" xlink:href="#DejaVuSans-52"/>
     <use x="296.666016" xlink:href="#DejaVuSans-65"/>
     <use x="358.189453" xlink:href="#DejaVuSans-67"/>
     <use x="421.666016" xlink:href="#DejaVuSans-20"/>
     <use x="453.453125" xlink:href="#DejaVuSans-76"/>
     <use x="512.632812" xlink:href="#DejaVuSans-73"/>
     <use x="564.732422" xlink:href="#DejaVuSans-20"/>
     <use x="596.519531" xlink:href="#DejaVuSans-53"/>
     <use x="659.996094" xlink:href="#DejaVuSans-74"/>
     <use x="699.205078" xlink:href="#DejaVuSans-72"/>
     <use x="740.287109" xlink:href="#DejaVuSans-65"/>
     <use x="801.810547" xlink:href="#DejaVuSans-73"/>
     <use x="853.910156" xlink:href="#DejaVuSans-73"/>
    </g>
   </g>
   <g id="legend_1">
    <g id="patch_7">
     <path d="M 107.289418 78.82825 
L 170.237855 78.82825 
Q 172.237855 78.82825 172.237855 76.82825 
L 172.237855 48.472 
Q 172.237855 46.472 170.237855 46.472 
L 107.289418 46.472 
Q 105.289418 46.472 105.289418 48.472 
L 105.289418 76.82825 
Q 105.289418 78.82825 107.289418 78.82825 
z
" style="fill:#ffffff;opacity:0.8;stroke:#cccccc;stroke-linejoin:miter;"/>
    </g>
    <g id="line2d_19">
     <path d="M 109.289418 54.570437 
L 129.289418 54.570437 
" style="fill:none;stroke:#0000ff;stroke-linecap:square;stroke-width:1.5;"/>
    </g>
    <g id="line2d_20"/>
    <g id="text_19">
     <!-- Reg -->
     <g transform="translate(137.289418 58.070437)scale(0.1 -0.1)">
      <use xlink:href="#DejaVuSans-52"/>
      <use x="69.419922" xlink:href="#DejaVuSans-65"/>
      <use x="130.943359" xlink:href="#DejaVuSans-67"/>
     </g>
    </g>
    <g id="line2d_21">
     <path d="M 109.289418 69.248562 
L 129.289418 69.248562 
" style="fill:none;stroke:#ff0000;stroke-linecap:square;stroke-width:1.5;"/>
    </g>
    <g id="line2d_22"/>
    <g id="text_20">
     <!-- Stress -->
     <g transform="translate(137.289418 72.748562)scale(0.1 -0.1)">
      <use xlink:href="#DejaVuSans-53"/>
      <use x="63.476562" xlink:href="#DejaVuSans-74"/>
      <use x="102.685547" xlink:href="#DejaVuSans-72"/>
      <use x="143.767578" xlink:href="#DejaVuSans-65"/>
      <use x="205.291016" xlink:href="#DejaVuSans-73"/>
      <use x="257.390625" xlink:href="#DejaVuSans-73"/>
     </g>
    </g>
   </g>
  </g>
  <g id="axes_2">
   <g id="patch_8">
    <path d="M 252.392727 307.584 
L 414.72 307.584 
L 414.72 41.472 
L 252.392727 41.472 
z
" style="fill:#ffffff;"/>
   </g>
   <g id="matplotlib.axis_3">
    <g id="xtick_10">
     <g id="line2d_23">
      <g>
       <use style="stroke:#000000;stroke-width:0.8;" x="259.77124" xlink:href="#mb3a7abc878" y="307.584"/>
      </g>
     </g>
     <g id="text_21">
      <!-- 0.0 -->
      <g transform="translate(251.819677 322.182437)scale(0.1 -0.1)">
       <use xlink:href="#DejaVuSans-30"/>
       <use x="63.623047" xlink:href="#DejaVuSans-2e"/>
       <use x="95.410156" xlink:href="#DejaVuSans-30"/>
      </g>
     </g>
    </g>
    <g id="xtick_11">
     <g id="line2d_24">
      <g>
       <use style="stroke:#000000;stroke-width:0.8;" x="277.952379" xlink:href="#mb3a7abc878" y="307.584"/>
      </g>
     </g>
     <g id="text_22">
      <!-- 5.0 -->
      <g transform="translate(270.000817 322.182437)scale(0.1 -0.1)">
       <use xlink:href="#DejaVuSans-35"/>
       <use x="63.623047" xlink:href="#DejaVuSans-2e"/>
       <use x="95.410156" xlink:href="#DejaVuSans-30"/>
      </g>
     </g>
    </g>
    <g id="xtick_12">
     <g id="line2d_25">
      <g>
       <use style="stroke:#000000;stroke-width:0.8;" x="296.133518" xlink:href="#mb3a7abc878" y="307.584"/>
      </g>
     </g>
     <g id="text_23">
      <!-- 10.0 -->
      <g transform="translate(285.000706 322.182437)scale(0.1 -0.1)">
       <use xlink:href="#DejaVuSans-31"/>
       <use x="63.623047" xlink:href="#DejaVuSans-30"/>
       <use x="127.246094" xlink:href="#DejaVuSans-2e"/>
       <use x="159.033203" xlink:href="#DejaVuSans-30"/>
      </g>
     </g>
    </g>
    <g id="xtick_13">
     <g id="line2d_26">
      <g>
       <use style="stroke:#000000;stroke-width:0.8;" x="314.314658" xlink:href="#mb3a7abc878" y="307.584"/>
      </g>
     </g>
     <g id="text_24">
      <!-- 15.0 -->
      <g transform="translate(303.181845 322.182437)scale(0.1 -0.1)">
       <use xlink:href="#DejaVuSans-31"/>
       <use x="63.623047" xlink:href="#DejaVuSans-35"/>
       <use x="127.246094" xlink:href="#DejaVuSans-2e"/>
       <use x="159.033203" xlink:href="#DejaVuSans-30"/>
      </g>
     </g>
    </g>
    <g id="xtick_14">
     <g id="line2d_27">
      <g>
       <use style="stroke:#000000;stroke-width:0.8;" x="332.495797" xlink:href="#mb3a7abc878" y="307.584"/>
      </g>
     </g>
     <g id="text_25">
      <!-- 20.0 -->
      <g transform="translate(321.362985 322.182437)scale(0.1 -0.1)">
       <use xlink:href="#DejaVuSans-32"/>
       <use x="63.623047" xlink:href="#DejaVuSans-30"/>
       <use x="127.246094" xlink:href="#DejaVuSans-2e"/>
       <use x="159.033203" xlink:href="#DejaVuSans-30"/>
      </g>
     </g>
    </g>
    <g id="xtick_15">
     <g id="line2d_28">
      <g>
       <use style="stroke:#000000;stroke-width:0.8;" x="350.676937" xlink:href="#mb3a7abc878" y="307.584"/>
      </g>
     </g>
     <g id="text_26">
      <!-- 25.0 -->
      <g transform="translate(339.544124 322.182437)scale(0.1 -0.1)">
       <use xlink:href="#DejaVuSans-32"/>
       <use x="63.623047" xlink:href="#DejaVuSans-35"/>
       <use x="127.246094" xlink:href="#DejaVuSans-2e"/>
       <use x="159.033203" xlink:href="#DejaVuSans-30"/>
      </g>
     </g>
    </g>
    <g id="xtick_16">
     <g id="line2d_29">
      <g>
       <use style="stroke:#000000;stroke-width:0.8;" x="368.858076" xlink:href="#mb3a7abc878" y="307.584"/>
      </g>
     </g>
     <g id="text_27">
      <!-- 30.0 -->
      <g transform="translate(357.725263 322.182437)scale(0.1 -0.1)">
       <use xlink:href="#DejaVuSans-33"/>
       <use x="63.623047" xlink:href="#DejaVuSans-30"/>
       <use x="127.246094" xlink:href="#DejaVuSans-2e"/>
       <use x="159.033203" xlink:href="#DejaVuSans-30"/>
      </g>
     </g>
    </g>
    <g id="xtick_17">
     <g id="line2d_30">
      <g>
       <use style="stroke:#000000;stroke-width:0.8;" x="387.039215" xlink:href="#mb3a7abc878" y="307.584"/>
      </g>
     </g>
     <g id="text_28">
      <!-- 35.0 -->
      <g transform="translate(375.906403 322.182437)scale(0.1 -0.1)">
       <use xlink:href="#DejaVuSans-33"/>
       <use x="63.623047" xlink:href="#DejaVuSans-35"/>
       <use x="127.246094" xlink:href="#DejaVuSans-2e"/>
       <use x="159.033203" xlink:href="#DejaVuSans-30"/>
      </g>
     </g>
    </g>
    <g id="xtick_18">
     <g id="line2d_31">
      <g>
       <use style="stroke:#000000;stroke-width:0.8;" x="405.220355" xlink:href="#mb3a7abc878" y="307.584"/>
      </g>
     </g>
     <g id="text_29">
      <!-- 40.0 -->
      <g transform="translate(394.087542 322.182437)scale(0.1 -0.1)">
       <use xlink:href="#DejaVuSans-34"/>
       <use x="63.623047" xlink:href="#DejaVuSans-30"/>
       <use x="127.246094" xlink:href="#DejaVuSans-2e"/>
       <use x="159.033203" xlink:href="#DejaVuSans-30"/>
      </g>
     </g>
    </g>
    <g id="text_30">
     <!-- Minutes -->
     <g transform="translate(313.874332 335.860562)scale(0.1 -0.1)">
      <use xlink:href="#DejaVuSans-4d"/>
      <use x="86.279297" xlink:href="#DejaVuSans-69"/>
      <use x="114.0625" xlink:href="#DejaVuSans-6e"/>
      <use x="177.441406" xlink:href="#DejaVuSans-75"/>
      <use x="240.820312" xlink:href="#DejaVuSans-74"/>
      <use x="280.029297" xlink:href="#DejaVuSans-65"/>
      <use x="341.552734" xlink:href="#DejaVuSans-73"/>
     </g>
    </g>
   </g>
   <g id="matplotlib.axis_4">
    <g id="ytick_8">
     <g id="line2d_32">
      <g>
       <use style="stroke:#000000;stroke-width:0.8;" x="252.392727" xlink:href="#m34feeacc39" y="307.584"/>
      </g>
     </g>
     <g id="text_31">
      <!-- 1.00 -->
      <g transform="translate(223.127102 311.383219)scale(0.1 -0.1)">
       <use xlink:href="#DejaVuSans-31"/>
       <use x="63.623047" xlink:href="#DejaVuSans-2e"/>
       <use x="95.410156" xlink:href="#DejaVuSans-30"/>
       <use x="159.033203" xlink:href="#DejaVuSans-30"/>
      </g>
     </g>
    </g>
    <g id="ytick_9">
     <g id="line2d_33">
      <g>
       <use style="stroke:#000000;stroke-width:0.8;" x="252.392727" xlink:href="#m34feeacc39" y="274.32"/>
      </g>
     </g>
     <g id="text_32">
      <!-- 1.25 -->
      <g transform="translate(223.127102 278.119219)scale(0.1 -0.1)">
       <use xlink:href="#DejaVuSans-31"/>
       <use x="63.623047" xlink:href="#DejaVuSans-2e"/>
       <use x="95.410156" xlink:href="#DejaVuSans-32"/>
       <use x="159.033203" xlink:href="#DejaVuSans-35"/>
      </g>
     </g>
    </g>
    <g id="ytick_10">
     <g id="line2d_34">
      <g>
       <use style="stroke:#000000;stroke-width:0.8;" x="252.392727" xlink:href="#m34feeacc39" y="241.056"/>
      </g>
     </g>
     <g id="text_33">
      <!-- 1.50 -->
      <g transform="translate(223.127102 244.855219)scale(0.1 -0.1)">
       <use xlink:href="#DejaVuSans-31"/>
       <use x="63.623047" xlink:href="#DejaVuSans-2e"/>
       <use x="95.410156" xlink:href="#DejaVuSans-35"/>
       <use x="159.033203" xlink:href="#DejaVuSans-30"/>
      </g>
     </g>
    </g>
    <g id="ytick_11">
     <g id="line2d_35">
      <g>
       <use style="stroke:#000000;stroke-width:0.8;" x="252.392727" xlink:href="#m34feeacc39" y="207.792"/>
      </g>
     </g>
     <g id="text_34">
      <!-- 1.75 -->
      <defs>
       <path d="M 8.203125 72.90625 
L 55.078125 72.90625 
L 55.078125 68.703125 
L 28.609375 0 
L 18.3125 0 
L 43.21875 64.59375 
L 8.203125 64.59375 
z
" id="DejaVuSans-37"/>
      </defs>
      <g transform="translate(223.127102 211.591219)scale(0.1 -0.1)">
       <use xlink:href="#DejaVuSans-31"/>
       <use x="63.623047" xlink:href="#DejaVuSans-2e"/>
       <use x="95.410156" xlink:href="#DejaVuSans-37"/>
       <use x="159.033203" xlink:href="#DejaVuSans-35"/>
      </g>
     </g>
    </g>
    <g id="ytick_12">
     <g id="line2d_36">
      <g>
       <use style="stroke:#000000;stroke-width:0.8;" x="252.392727" xlink:href="#m34feeacc39" y="174.528"/>
      </g>
     </g>
     <g id="text_35">
      <!-- 2.00 -->
      <g transform="translate(223.127102 178.327219)scale(0.1 -0.1)">
       <use xlink:href="#DejaVuSans-32"/>
       <use x="63.623047" xlink:href="#DejaVuSans-2e"/>
       <use x="95.410156" xlink:href="#DejaVuSans-30"/>
       <use x="159.033203" xlink:href="#DejaVuSans-30"/>
      </g>
     </g>
    </g>
    <g id="ytick_13">
     <g id="line2d_37">
      <g>
       <use style="stroke:#000000;stroke-width:0.8;" x="252.392727" xlink:href="#m34feeacc39" y="141.264"/>
      </g>
     </g>
     <g id="text_36">
      <!-- 2.25 -->
      <g transform="translate(223.127102 145.063219)scale(0.1 -0.1)">
       <use xlink:href="#DejaVuSans-32"/>
       <use x="63.623047" xlink:href="#DejaVuSans-2e"/>
       <use x="95.410156" xlink:href="#DejaVuSans-32"/>
       <use x="159.033203" xlink:href="#DejaVuSans-35"/>
      </g>
     </g>
    </g>
    <g id="ytick_14">
     <g id="line2d_38">
      <g>
       <use style="stroke:#000000;stroke-width:0.8;" x="252.392727" xlink:href="#m34feeacc39" y="108"/>
      </g>
     </g>
     <g id="text_37">
      <!-- 2.50 -->
      <g transform="translate(223.127102 111.799219)scale(0.1 -0.1)">
       <use xlink:href="#DejaVuSans-32"/>
       <use x="63.623047" xlink:href="#DejaVuSans-2e"/>
       <use x="95.410156" xlink:href="#DejaVuSans-35"/>
       <use x="159.033203" xlink:href="#DejaVuSans-30"/>
      </g>
     </g>
    </g>
    <g id="ytick_15">
     <g id="line2d_39">
      <g>
       <use style="stroke:#000000;stroke-width:0.8;" x="252.392727" xlink:href="#m34feeacc39" y="74.736"/>
      </g>
     </g>
     <g id="text_38">
      <!-- 2.75 -->
      <g transform="translate(223.127102 78.535219)scale(0.1 -0.1)">
       <use xlink:href="#DejaVuSans-32"/>
       <use x="63.623047" xlink:href="#DejaVuSans-2e"/>
       <use x="95.410156" xlink:href="#DejaVuSans-37"/>
       <use x="159.033203" xlink:href="#DejaVuSans-35"/>
      </g>
     </g>
    </g>
    <g id="ytick_16">
     <g id="line2d_40">
      <g>
       <use style="stroke:#000000;stroke-width:0.8;" x="252.392727" xlink:href="#m34feeacc39" y="41.472"/>
      </g>
     </g>
     <g id="text_39">
      <!-- 3.00 -->
      <g transform="translate(223.127102 45.271219)scale(0.1 -0.1)">
       <use xlink:href="#DejaVuSans-33"/>
       <use x="63.623047" xlink:href="#DejaVuSans-2e"/>
       <use x="95.410156" xlink:href="#DejaVuSans-30"/>
       <use x="159.033203" xlink:href="#DejaVuSans-30"/>
      </g>
     </g>
    </g>
   </g>
   <g id="line2d_41">
    <path clip-path="url(#p0b565c0fde)" d="M 259.77124 200.379241 
L 260.074259 198.987717 
L 260.377278 199.343586 
L 260.680297 177.715724 
L 260.983316 199.817013 
L 261.286335 189.800491 
L 261.589354 179.923895 
L 261.892373 205.952792 
L 262.195392 222.882736 
L 262.498411 229.030897 
L 262.777623 346.6 
M 262.826476 346.6 
L 263.104449 235.346009 
L 263.407468 206.483335 
L 263.710487 172.71958 
L 264.013506 186.022794 
L 264.316525 204.85097 
L 264.619544 251.181718 
L 264.922562 259.867693 
L 265.225581 223.667965 
L 265.5286 194.116184 
L 265.831619 231.585486 
L 266.134638 225.088245 
L 266.188799 346.6 
M 266.76755 346.6 
L 267.043695 191.861815 
L 267.346714 192.475699 
L 267.649733 201.279499 
L 267.952752 213.437626 
L 268.255771 206.287626 
L 268.55879 215.163451 
L 268.616542 346.6 
M 269.783848 346.6 
L 270.073885 171.57702 
L 270.376904 269.0018 
L 270.679923 183.991824 
L 270.982942 269.798744 
L 271.285961 188.353583 
L 271.58898 216.384163 
L 271.849273 346.6 
M 271.935122 346.6 
L 272.195018 217.777152 
L 272.498037 253.852001 
L 272.801056 259.762783 
L 273.104075 272.568877 
L 273.407094 198.005183 
L 273.710113 256.054448 
L 273.752408 346.6 
M 274.616337 346.6 
L 274.61917 341.330159 
L 274.922189 217.428739 
L 275.225208 169.167414 
L 275.528227 245.684053 
L 275.831246 185.87062 
L 276.134265 202.540151 
L 276.437284 202.80176 
L 276.740303 226.476573 
L 277.043322 243.323974 
L 277.346341 187.231656 
L 277.64936 196.425274 
L 277.952379 249.805504 
L 278.255398 213.367598 
L 278.558417 319.376777 
L 278.861436 248.556168 
L 279.164455 232.386691 
L 279.215911 346.6 
M 280.26712 346.6 
L 280.376531 327.027763 
L 280.67955 192.245377 
L 280.982569 184.868118 
L 281.285588 243.315053 
L 281.588607 225.281557 
L 281.891626 202.109859 
L 282.194645 187.265074 
L 282.497664 189.747901 
L 282.800683 220.665244 
L 283.103702 211.604361 
L 283.406721 189.976627 
L 283.70974 208.379573 
L 284.012759 211.550575 
L 284.263523 346.6 
M 285.82542 346.6 
L 285.830873 336.369428 
L 286.133892 238.659999 
L 286.436911 180.586507 
L 286.73993 256.082406 
L 287.042949 189.044153 
L 287.345968 200.966365 
L 287.648987 198.312458 
L 287.952006 231.560856 
L 288.255025 312.234101 
L 288.558044 216.095528 
L 288.861063 243.083 
L 289.08321 346.6 
M 291.006207 346.6 
L 291.285215 207.117189 
L 291.588234 258.137076 
L 291.891253 241.860957 
L 292.194272 246.451841 
L 292.497291 236.283811 
L 292.80031 231.167043 
L 293.103329 261.409793 
L 293.406348 257.696399 
L 293.709367 240.483145 
L 294.012385 232.72685 
L 294.315404 265.638018 
L 294.618423 246.350393 
L 294.921442 270.683424 
L 295.224461 261.007326 
L 295.52748 239.891628 
L 295.830499 259.495848 
L 296.133518 240.105442 
L 296.436537 240.91184 
" style="fill:none;stroke:#0000ff;stroke-linecap:square;stroke-width:1.5;"/>
   </g>
   <g id="line2d_42">
    <path clip-path="url(#p0b565c0fde)" d="M 296.739556 195.768121 
L 297.042575 227.997904 
L 297.648613 205.903 
L 297.951632 238.581849 
L 298.254651 246.668452 
L 298.55767 210.191802 
L 298.860689 202.346573 
L 299.163708 203.726248 
L 299.466727 210.297378 
L 299.769746 203.62866 
L 300.072765 199.775876 
L 300.375784 279.376189 
L 300.678803 224.469701 
L 300.981822 197.02398 
L 301.284841 219.685239 
L 301.58786 250.894546 
L 301.890879 203.108636 
L 302.193898 191.852761 
L 302.496917 193.078267 
L 302.799936 205.508389 
L 303.102955 205.875175 
L 303.708993 266.073102 
L 304.012012 212.144889 
L 304.256693 346.6 
M 304.375869 346.6 
L 304.61805 218.986682 
L 304.921069 225.290876 
L 305.224088 222.642294 
L 305.527107 237.816324 
L 305.830126 285.01258 
L 305.989963 346.6 
M 306.687272 346.6 
L 307.042202 193.971601 
L 307.345221 190.616207 
L 307.64824 209.731822 
L 307.951259 210.176093 
L 308.254278 207.175635 
L 308.557297 205.986742 
L 308.860316 234.661829 
L 309.163335 221.63047 
L 309.466354 297.40942 
L 309.769373 206.392804 
L 310.072392 196.200941 
L 310.375411 217.420884 
L 310.67843 208.895735 
L 310.981449 204.34812 
L 311.587487 244.451891 
L 311.890506 237.455795 
L 312.193525 254.771828 
L 312.496544 210.354891 
L 312.799563 195.171144 
L 313.102582 195.792085 
L 313.405601 211.076615 
L 313.70862 207.450825 
L 314.011639 231.475117 
L 314.314658 229.796154 
L 314.617677 202.20758 
L 314.920696 230.614135 
L 315.223715 209.166398 
L 315.526734 206.17859 
L 315.829753 279.275539 
L 316.435791 211.428224 
L 316.73881 256.158827 
L 317.041829 211.273388 
L 317.344848 226.292981 
L 317.647867 215.334131 
L 317.950886 229.540004 
L 318.253905 260.754769 
L 318.556924 209.711851 
L 318.859943 269.945858 
L 319.162962 247.858542 
L 319.465981 203.535999 
L 319.769 198.609482 
L 320.072019 198.345875 
L 320.375038 196.434193 
L 320.678057 202.484101 
L 320.981076 205.188067 
L 321.284095 199.684279 
L 321.587114 196.591026 
L 321.890133 221.324926 
L 322.193152 199.963462 
L 322.496171 198.081336 
L 322.79919 196.9658 
L 323.102208 264.225059 
L 323.405227 232.073558 
L 323.708246 249.314503 
L 324.011265 182.461707 
L 324.314284 190.263799 
L 324.617303 258.60664 
L 324.920322 214.820364 
L 325.223341 242.581082 
L 325.52636 197.791635 
L 325.829379 269.343823 
L 326.132398 191.675294 
L 326.435417 190.222528 
L 326.738436 204.707717 
L 327.041455 283.093844 
L 327.344474 203.127542 
L 327.647493 189.914054 
L 327.950512 262.507088 
L 328.253531 219.993047 
L 328.55655 197.731192 
L 329.162588 218.353625 
L 329.465607 187.660616 
L 329.768626 212.591956 
L 330.071645 199.279548 
L 330.374664 200.637789 
L 330.677683 188.250537 
L 330.980702 189.009404 
L 331.283721 243.73576 
L 331.58674 214.508031 
L 331.889759 210.256772 
L 332.192778 201.255536 
L 332.495797 253.127082 
L 332.798816 248.955705 
L 333.101835 199.022598 
L 333.404854 216.4494 
L 333.707873 201.059693 
L 334.010892 202.62296 
L 334.313911 186.655585 
L 334.61693 259.065156 
L 334.919949 279.827782 
L 335.222968 266.212227 
L 335.525987 232.791154 
L 335.829006 218.129693 
L 336.132025 230.204346 
L 336.435044 187.711741 
L 336.738063 251.620797 
L 337.041082 260.357762 
L 337.344101 196.614857 
L 337.64712 246.586839 
L 337.926027 346.6 
M 337.975688 346.6 
L 338.253158 252.699454 
L 338.556177 211.84001 
L 338.859196 260.529506 
L 339.465234 201.615264 
L 339.768253 250.837431 
L 340.071272 219.909172 
L 340.374291 242.746835 
L 340.67731 235.698284 
L 340.980329 208.538935 
L 341.586367 243.257673 
L 341.889386 207.49183 
L 342.192405 240.601769 
L 342.495424 205.136944 
L 342.798443 220.090635 
L 343.101462 199.347979 
L 343.404481 211.922021 
L 343.7075 212.267105 
L 344.010519 223.911867 
L 344.313538 240.48461 
L 344.616557 247.380722 
L 344.919576 206.801926 
L 345.222595 206.734426 
L 345.525614 240.952445 
L 345.828633 216.589059 
L 346.131652 321.411742 
L 346.434671 188.262785 
L 346.73769 207.67955 
L 347.057382 346.6 
M 347.61573 346.6 
L 347.646747 282.92343 
L 347.949766 206.110558 
L 348.252785 233.572921 
L 348.555804 201.024279 
L 349.161842 247.647523 
L 349.464861 246.132984 
L 349.76788 271.834774 
L 349.942371 346.6 
M 350.485927 346.6 
L 350.676937 311.580144 
L 350.979956 188.980248 
L 351.282975 228.620842 
L 351.595941 346.6 
M 352.179328 346.6 
L 352.192031 322.179131 
L 352.49505 267.459167 
L 353.101088 300.998064 
L 353.123969 346.6 
M 357.004465 346.6 
L 357.040335 271.632942 
L 357.343354 264.782095 
L 357.646373 230.479536 
L 357.949392 219.819173 
L 358.252411 279.322934 
L 358.55543 299.297269 
L 358.579096 346.6 
M 359.152182 346.6 
L 359.161468 328.946501 
L 359.464487 307.744533 
L 359.484202 346.6 
M 374.894876 346.6 
L 374.918456 299.544101 
L 375.221475 202.321943 
L 375.524494 197.524434 
L 375.827513 197.353489 
L 376.130532 192.516305 
L 376.433551 207.192677 
L 376.73657 240.089067 
L 377.039589 235.594039 
L 377.342608 213.214093 
L 377.645627 223.216105 
L 377.948646 221.965703 
L 378.251665 234.279733 
L 378.554684 238.892186 
L 378.857703 209.97426 
L 379.160722 254.904697 
L 379.463741 217.110813 
L 379.76676 231.796105 
L 380.069779 221.697836 
L 380.325466 346.6 
M 380.416086 346.6 
L 380.675817 207.871664 
L 380.934176 346.6 
M 382.493288 346.6 
L 382.49393 345.415398 
L 382.796949 232.568685 
L 383.099968 192.870709 
L 383.402987 199.96506 
L 383.596154 346.6 
M 384.064997 346.6 
L 384.312044 236.022866 
L 384.615063 218.389439 
L 384.918082 215.095686 
L 385.378096 346.6 
M 385.979935 346.6 
L 386.130158 207.447896 
L 386.433177 200.865449 
L 386.736196 210.634075 
L 387.039215 259.255007 
L 387.215285 346.6 
M 388.060737 346.6 
L 388.251291 206.386946 
L 388.539824 346.6 
M 388.657515 346.6 
L 388.857329 332.970764 
L 388.864556 346.6 
M 390.73076 346.6 
L 390.978462 233.899767 
L 391.281481 225.580178 
L 391.5845 178.905014 
L 391.887519 247.276078 
L 392.190538 199.952678 
L 392.493557 213.667816 
L 392.796576 216.070632 
L 393.099595 212.893105 
L 393.402614 225.240152 
L 393.705633 215.751907 
L 394.008652 221.301229 
L 394.311671 204.638887 
L 394.61469 317.437537 
L 394.917709 221.287249 
L 395.220728 209.541705 
L 395.523747 274.501994 
L 395.826766 181.614173 
L 396.129785 215.173437 
L 396.432804 274.043612 
L 396.735823 207.923985 
L 397.038842 240.2009 
L 397.341861 203.221801 
L 397.64488 184.966237 
L 397.947899 199.4236 
L 398.250918 220.464077 
L 398.553937 267.081331 
L 398.856956 188.939108 
L 399.159975 258.728992 
L 399.462994 242.504796 
L 399.766013 198.055508 
L 400.069032 190.970346 
L 400.372051 211.248093 
L 400.67507 177.133393 
L 400.978089 233.157274 
L 401.281108 216.550316 
L 401.584127 189.936155 
L 401.887146 189.888892 
L 402.190165 191.578904 
L 402.493184 316.443686 
L 402.796203 193.177984 
L 403.099222 184.470976 
L 403.402241 216.767059 
L 403.70526 192.730918 
L 404.008279 232.157299 
L 404.311298 197.805482 
L 404.614317 229.358675 
L 404.917336 169.387884 
L 405.220355 182.825032 
L 405.523374 210.950005 
L 405.826393 177.460105 
L 406.129412 194.569109 
L 406.432431 203.522951 
L 407.038469 230.140577 
L 407.341488 298.237117 
L 407.341488 298.237117 
" style="fill:none;stroke:#ff0000;stroke-linecap:square;stroke-width:1.5;"/>
   </g>
   <g id="patch_9">
    <path d="M 252.392727 307.584 
L 252.392727 41.472 
" style="fill:none;stroke:#000000;stroke-linecap:square;stroke-linejoin:miter;stroke-width:0.8;"/>
   </g>
   <g id="patch_10">
    <path d="M 414.72 307.584 
L 414.72 41.472 
" style="fill:none;stroke:#000000;stroke-linecap:square;stroke-linejoin:miter;stroke-width:0.8;"/>
   </g>
   <g id="patch_11">
    <path d="M 252.392727 307.584 
L 414.72 307.584 
" style="fill:none;stroke:#000000;stroke-linecap:square;stroke-linejoin:miter;stroke-width:0.8;"/>
   </g>
   <g id="patch_12">
    <path d="M 252.392727 41.472 
L 414.72 41.472 
" style="fill:none;stroke:#000000;stroke-linecap:square;stroke-linejoin:miter;stroke-width:0.8;"/>
   </g>
   <g id="text_40">
    <!-- Pupil - Reg vs Stress -->
    <defs>
     <path d="M 19.671875 64.796875 
L 19.671875 37.40625 
L 32.078125 37.40625 
Q 38.96875 37.40625 42.71875 40.96875 
Q 46.484375 44.53125 46.484375 51.125 
Q 46.484375 57.671875 42.71875 61.234375 
Q 38.96875 64.796875 32.078125 64.796875 
z
M 9.8125 72.90625 
L 32.078125 72.90625 
Q 44.34375 72.90625 50.609375 67.359375 
Q 56.890625 61.8125 56.890625 51.125 
Q 56.890625 40.328125 50.609375 34.8125 
Q 44.34375 29.296875 32.078125 29.296875 
L 19.671875 29.296875 
L 19.671875 0 
L 9.8125 0 
z
" id="DejaVuSans-50"/>
     <path d="M 18.109375 8.203125 
L 18.109375 -20.796875 
L 9.078125 -20.796875 
L 9.078125 54.6875 
L 18.109375 54.6875 
L 18.109375 46.390625 
Q 20.953125 51.265625 25.265625 53.625 
Q 29.59375 56 35.59375 56 
Q 45.5625 56 51.78125 48.09375 
Q 58.015625 40.1875 58.015625 27.296875 
Q 58.015625 14.40625 51.78125 6.484375 
Q 45.5625 -1.421875 35.59375 -1.421875 
Q 29.59375 -1.421875 25.265625 0.953125 
Q 20.953125 3.328125 18.109375 8.203125 
z
M 48.6875 27.296875 
Q 48.6875 37.203125 44.609375 42.84375 
Q 40.53125 48.484375 33.40625 48.484375 
Q 26.265625 48.484375 22.1875 42.84375 
Q 18.109375 37.203125 18.109375 27.296875 
Q 18.109375 17.390625 22.1875 11.75 
Q 26.265625 6.109375 33.40625 6.109375 
Q 40.53125 6.109375 44.609375 11.75 
Q 48.6875 17.390625 48.6875 27.296875 
z
" id="DejaVuSans-70"/>
     <path d="M 9.421875 75.984375 
L 18.40625 75.984375 
L 18.40625 0 
L 9.421875 0 
z
" id="DejaVuSans-6c"/>
    </defs>
    <g transform="translate(272.289801 35.472)scale(0.12 -0.12)">
     <use xlink:href="#DejaVuSans-50"/>
     <use x="60.287109" xlink:href="#DejaVuSans-75"/>
     <use x="123.666016" xlink:href="#DejaVuSans-70"/>
     <use x="187.142578" xlink:href="#DejaVuSans-69"/>
     <use x="214.925781" xlink:href="#DejaVuSans-6c"/>
     <use x="242.708984" xlink:href="#DejaVuSans-20"/>
     <use x="274.496094" xlink:href="#DejaVuSans-2d"/>
     <use x="310.580078" xlink:href="#DejaVuSans-20"/>
     <use x="342.367188" xlink:href="#DejaVuSans-52"/>
     <use x="411.787109" xlink:href="#DejaVuSans-65"/>
     <use x="473.310547" xlink:href="#DejaVuSans-67"/>
     <use x="536.787109" xlink:href="#DejaVuSans-20"/>
     <use x="568.574219" xlink:href="#DejaVuSans-76"/>
     <use x="627.753906" xlink:href="#DejaVuSans-73"/>
     <use x="679.853516" xlink:href="#DejaVuSans-20"/>
     <use x="711.640625" xlink:href="#DejaVuSans-53"/>
     <use x="775.117188" xlink:href="#DejaVuSans-74"/>
     <use x="814.326172" xlink:href="#DejaVuSans-72"/>
     <use x="855.408203" xlink:href="#DejaVuSans-65"/>
     <use x="916.931641" xlink:href="#DejaVuSans-73"/>
     <use x="969.03125" xlink:href="#DejaVuSans-73"/>
    </g>
   </g>
   <g id="legend_2">
    <g id="patch_13">
     <path d="M 344.771562 78.82825 
L 407.72 78.82825 
Q 409.72 78.82825 409.72 76.82825 
L 409.72 48.472 
Q 409.72 46.472 407.72 46.472 
L 344.771562 46.472 
Q 342.771562 46.472 342.771562 48.472 
L 342.771562 76.82825 
Q 342.771562 78.82825 344.771562 78.82825 
z
" style="fill:#ffffff;opacity:0.8;stroke:#cccccc;stroke-linejoin:miter;"/>
    </g>
    <g id="line2d_43">
     <path d="M 346.771562 54.570437 
L 366.771562 54.570437 
" style="fill:none;stroke:#0000ff;stroke-linecap:square;stroke-width:1.5;"/>
    </g>
    <g id="line2d_44"/>
    <g id="text_41">
     <!-- Reg -->
     <g transform="translate(374.771562 58.070437)scale(0.1 -0.1)">
      <use xlink:href="#DejaVuSans-52"/>
      <use x="69.419922" xlink:href="#DejaVuSans-65"/>
      <use x="130.943359" xlink:href="#DejaVuSans-67"/>
     </g>
    </g>
    <g id="line2d_45">
     <path d="M 346.771562 69.248562 
L 366.771562 69.248562 
" style="fill:none;stroke:#ff0000;stroke-linecap:square;stroke-width:1.5;"/>
    </g>
    <g id="line2d_46"/>
    <g id="text_42">
     <!-- Stress -->
     <g transform="translate(374.771562 72.748562)scale(0.1 -0.1)">
      <use xlink:href="#DejaVuSans-53"/>
      <use x="63.476562" xlink:href="#DejaVuSans-74"/>
      <use x="102.685547" xlink:href="#DejaVuSans-72"/>
      <use x="143.767578" xlink:href="#DejaVuSans-65"/>
      <use x="205.291016" xlink:href="#DejaVuSans-73"/>
      <use x="257.390625" xlink:href="#DejaVuSans-73"/>
     </g>
    </g>
   </g>
  </g>
 </g>
 <defs>
  <clipPath id="p98661125d2">
   <rect height="266.112" width="162.327273" x="57.6" y="41.472"/>
  </clipPath>
  <clipPath id="p0b565c0fde">
   <rect height="266.112" width="162.327273" x="252.392727" y="41.472"/>
  </clipPath>
 </defs>
</svg>
