<?xml version="1.0" encoding="utf-8" standalone="no"?>
<!DOCTYPE svg PUBLIC "-//W3C//DTD SVG 1.1//EN"
  "http://www.w3.org/Graphics/SVG/1.1/DTD/svg11.dtd">
<!-- Created with matplotlib (http://matplotlib.org/) -->
<svg height="432pt" version="1.1" viewBox="0 0 576 432" width="576pt" xmlns="http://www.w3.org/2000/svg" xmlns:xlink="http://www.w3.org/1999/xlink">
 <defs>
  <style type="text/css">
*{stroke-linecap:butt;stroke-linejoin:round;}
  </style>
 </defs>
 <g id="figure_1">
  <g id="patch_1">
   <path d="
M0 432
L576 432
L576 0
L0 0
z
" style="fill:#ffffff;"/>
  </g>
  <g id="axes_1">
   <g id="patch_2">
    <path d="
M59.5491 251.027
L552.655 251.027
L552.655 162.573
L59.5491 162.573
z
" style="fill:#ffffff;"/>
   </g>
   <g id="line2d_1">
    <path clip-path="url(#p3d47a1ac95)" d="
M64.4801 243.067
L69.4112 240.61
L74.3422 241.898
L79.2733 245.11
L84.2044 235.69
L89.1354 246.48
L94.0665 236.319
L98.9975 228.592
L103.929 221.11
L108.86 232.94
L113.791 231.11
L118.722 233.847
L123.653 213.517
L128.584 209.441
L133.515 234.03
L138.446 219.011
L143.377 232.927
L148.308 220.482
L153.239 228.153
L158.17 213.758
L163.101 226.279
L168.032 224.709
L172.963 215.498
L177.894 209.873
L182.826 236.709
L187.757 221.448
L192.688 217.408
L197.619 225.516
L202.55 226.748
L207.481 223.403
L212.412 233.279
L217.343 230.788
L222.274 239.234
L227.205 232.91
L232.136 231.247
L237.067 229.501
L241.998 231.499
L246.929 234.008
L251.86 218.701
L256.791 209.372
L261.722 232.603
L266.653 238.883
L271.585 243.567
L276.516 228.958
L281.447 215.608
L286.378 235.124
L291.309 211.251
L296.24 235.611
L301.171 216.205
L306.102 240.376
L311.033 244.834
L315.964 234.211
L320.895 236.687
L325.826 236.682
L330.757 235.458
L335.688 230.753
L340.619 228.45
L345.55 230.759
L350.481 218.945
L355.413 213.675
L360.344 223.507
L365.275 221.994
L370.206 226.078
L375.137 236.056
L380.068 215.256
L384.999 237.077
L389.93 241.43
L394.861 218.701
L399.792 224.987
L404.723 233.964
L409.654 232.603
L414.585 236.665
L419.516 234.376
L424.447 236.309
L429.378 245.057
L434.309 233.456
L439.241 234.378
L444.172 247.403
L449.103 238.124
L454.034 226.817
L458.965 221.234
L463.896 233.806
L468.827 223.952
L473.758 232.597
L478.689 244.056
L483.62 234.535
L488.551 228.211
L493.482 231.695
L498.413 228.2
L503.344 245.221
L508.275 216.611
L513.206 239.877" style="fill:none;stroke:#ff0000;stroke-linecap:square;"/>
   </g>
   <g id="line2d_2">
    <path clip-path="url(#p3d47a1ac95)" d="
M64.4801 228.225
L69.4112 228.264
L74.3422 228.303
L79.2733 228.342
L84.2044 228.381
L89.1354 228.419
L94.0665 228.458
L98.9975 228.497
L103.929 228.536
L108.86 228.574
L113.791 228.613
L118.722 228.652
L123.653 228.691
L128.584 228.73
L133.515 228.768
L138.446 228.807
L143.377 228.846
L148.308 228.885
L153.239 228.924
L158.17 228.962
L163.101 229.001
L168.032 229.04
L172.963 229.079
L177.894 229.117
L182.826 229.156
L187.757 229.195
L192.688 229.234
L197.619 229.273
L202.55 229.311
L207.481 229.35
L212.412 229.389
L217.343 229.428
L222.274 229.467
L227.205 229.505
L232.136 229.544
L237.067 229.583
L241.998 229.622
L246.929 229.661
L251.86 229.699
L256.791 229.738
L261.722 229.777
L266.653 229.816
L271.585 229.854
L276.516 229.893
L281.447 229.932
L286.378 229.971
L291.309 230.01
L296.24 230.048
L301.171 230.087
L306.102 230.126
L311.033 230.165
L315.964 230.204
L320.895 230.242
L325.826 230.281
L330.757 230.32
L335.688 230.359
L340.619 230.397
L345.55 230.436
L350.481 230.475
L355.413 230.514
L360.344 230.553
L365.275 230.591
L370.206 230.63
L375.137 230.669
L380.068 230.708
L384.999 230.747
L389.93 230.785
L394.861 230.824
L399.792 230.863
L404.723 230.902
L409.654 230.941
L414.585 230.979
L419.516 231.018
L424.447 231.057
L429.378 231.096
L434.309 231.134
L439.241 231.173
L444.172 231.212
L449.103 231.251
L454.034 231.29
L458.965 231.328
L463.896 231.367
L468.827 231.406
L473.758 231.445
L478.689 231.484
L483.62 231.522
L488.551 231.561
L493.482 231.6
L498.413 231.639
L503.344 231.677
L508.275 231.716
L513.206 231.755" style="fill:none;stroke:#ff0000;stroke-dasharray:6.000000,6.000000;stroke-dashoffset:0.0;"/>
   </g>
   <g id="patch_3">
    <path d="
M59.5491 162.573
L552.655 162.573" style="fill:none;stroke:#000000;stroke-linecap:square;stroke-linejoin:miter;"/>
   </g>
   <g id="patch_4">
    <path d="
M552.655 251.027
L552.655 162.573" style="fill:none;stroke:#000000;stroke-linecap:square;stroke-linejoin:miter;"/>
   </g>
   <g id="patch_5">
    <path d="
M59.5491 251.027
L552.655 251.027" style="fill:none;stroke:#000000;stroke-linecap:square;stroke-linejoin:miter;"/>
   </g>
   <g id="patch_6">
    <path d="
M59.5491 251.027
L59.5491 162.573" style="fill:none;stroke:#000000;stroke-linecap:square;stroke-linejoin:miter;"/>
   </g>
   <g id="matplotlib.axis_1">
    <g id="xtick_1">
     <g id="line2d_3">
      <defs>
       <path d="
M0 0
L0 -4" id="m93b0483c22" style="stroke:#000000;stroke-width:0.5;"/>
      </defs>
      <g>
       <use style="stroke:#000000;stroke-width:0.5;" x="59.5490625" xlink:href="#m93b0483c22" y="251.026666667"/>
      </g>
     </g>
     <g id="line2d_4">
      <defs>
       <path d="
M0 0
L0 4" id="m741efc42ff" style="stroke:#000000;stroke-width:0.5;"/>
      </defs>
      <g>
       <use style="stroke:#000000;stroke-width:0.5;" x="59.5490625" xlink:href="#m741efc42ff" y="162.573333333"/>
      </g>
     </g>
     <g id="text_1">
      <!-- 0 -->
      <defs>
       <path d="
M31.7812 66.4062
Q24.1719 66.4062 20.3281 58.9062
Q16.5 51.4219 16.5 36.375
Q16.5 21.3906 20.3281 13.8906
Q24.1719 6.39062 31.7812 6.39062
Q39.4531 6.39062 43.2812 13.8906
Q47.125 21.3906 47.125 36.375
Q47.125 51.4219 43.2812 58.9062
Q39.4531 66.4062 31.7812 66.4062
M31.7812 74.2188
Q44.0469 74.2188 50.5156 64.5156
Q56.9844 54.8281 56.9844 36.375
Q56.9844 17.9688 50.5156 8.26562
Q44.0469 -1.42188 31.7812 -1.42188
Q19.5312 -1.42188 13.0625 8.26562
Q6.59375 17.9688 6.59375 36.375
Q6.59375 54.8281 13.0625 64.5156
Q19.5312 74.2188 31.7812 74.2188" id="BitstreamVeraSans-Roman-30"/>
      </defs>
      <g transform="translate(56.525625 264.144791667)scale(0.12 -0.12)">
       <use xlink:href="#BitstreamVeraSans-Roman-30"/>
      </g>
     </g>
    </g>
    <g id="xtick_2">
     <g id="line2d_5">
      <g>
       <use style="stroke:#000000;stroke-width:0.5;" x="158.17021875" xlink:href="#m93b0483c22" y="251.026666667"/>
      </g>
     </g>
     <g id="line2d_6">
      <g>
       <use style="stroke:#000000;stroke-width:0.5;" x="158.17021875" xlink:href="#m741efc42ff" y="162.573333333"/>
      </g>
     </g>
     <g id="text_2">
      <!-- 20 -->
      <defs>
       <path d="
M19.1875 8.29688
L53.6094 8.29688
L53.6094 0
L7.32812 0
L7.32812 8.29688
Q12.9375 14.1094 22.625 23.8906
Q32.3281 33.6875 34.8125 36.5312
Q39.5469 41.8438 41.4219 45.5312
Q43.3125 49.2188 43.3125 52.7812
Q43.3125 58.5938 39.2344 62.25
Q35.1562 65.9219 28.6094 65.9219
Q23.9688 65.9219 18.8125 64.3125
Q13.6719 62.7031 7.8125 59.4219
L7.8125 69.3906
Q13.7656 71.7812 18.9375 73
Q24.125 74.2188 28.4219 74.2188
Q39.75 74.2188 46.4844 68.5469
Q53.2188 62.8906 53.2188 53.4219
Q53.2188 48.9219 51.5312 44.8906
Q49.8594 40.875 45.4062 35.4062
Q44.1875 33.9844 37.6406 27.2188
Q31.1094 20.4531 19.1875 8.29688" id="BitstreamVeraSans-Roman-32"/>
      </defs>
      <g transform="translate(151.37334375 264.144791667)scale(0.12 -0.12)">
       <use xlink:href="#BitstreamVeraSans-Roman-32"/>
       <use x="63.623046875" xlink:href="#BitstreamVeraSans-Roman-30"/>
      </g>
     </g>
    </g>
    <g id="xtick_3">
     <g id="line2d_7">
      <g>
       <use style="stroke:#000000;stroke-width:0.5;" x="256.791375" xlink:href="#m93b0483c22" y="251.026666667"/>
      </g>
     </g>
     <g id="line2d_8">
      <g>
       <use style="stroke:#000000;stroke-width:0.5;" x="256.791375" xlink:href="#m741efc42ff" y="162.573333333"/>
      </g>
     </g>
     <g id="text_3">
      <!-- 40 -->
      <defs>
       <path d="
M37.7969 64.3125
L12.8906 25.3906
L37.7969 25.3906
z

M35.2031 72.9062
L47.6094 72.9062
L47.6094 25.3906
L58.0156 25.3906
L58.0156 17.1875
L47.6094 17.1875
L47.6094 0
L37.7969 0
L37.7969 17.1875
L4.89062 17.1875
L4.89062 26.7031
z
" id="BitstreamVeraSans-Roman-34"/>
      </defs>
      <g transform="translate(249.84825 264.144791667)scale(0.12 -0.12)">
       <use xlink:href="#BitstreamVeraSans-Roman-34"/>
       <use x="63.623046875" xlink:href="#BitstreamVeraSans-Roman-30"/>
      </g>
     </g>
    </g>
    <g id="xtick_4">
     <g id="line2d_9">
      <g>
       <use style="stroke:#000000;stroke-width:0.5;" x="355.41253125" xlink:href="#m93b0483c22" y="251.026666667"/>
      </g>
     </g>
     <g id="line2d_10">
      <g>
       <use style="stroke:#000000;stroke-width:0.5;" x="355.41253125" xlink:href="#m741efc42ff" y="162.573333333"/>
      </g>
     </g>
     <g id="text_4">
      <!-- 60 -->
      <defs>
       <path d="
M33.0156 40.375
Q26.375 40.375 22.4844 35.8281
Q18.6094 31.2969 18.6094 23.3906
Q18.6094 15.5312 22.4844 10.9531
Q26.375 6.39062 33.0156 6.39062
Q39.6562 6.39062 43.5312 10.9531
Q47.4062 15.5312 47.4062 23.3906
Q47.4062 31.2969 43.5312 35.8281
Q39.6562 40.375 33.0156 40.375
M52.5938 71.2969
L52.5938 62.3125
Q48.875 64.0625 45.0938 64.9844
Q41.3125 65.9219 37.5938 65.9219
Q27.8281 65.9219 22.6719 59.3281
Q17.5312 52.7344 16.7969 39.4062
Q19.6719 43.6562 24.0156 45.9219
Q28.375 48.1875 33.5938 48.1875
Q44.5781 48.1875 50.9531 41.5156
Q57.3281 34.8594 57.3281 23.3906
Q57.3281 12.1562 50.6875 5.35938
Q44.0469 -1.42188 33.0156 -1.42188
Q20.3594 -1.42188 13.6719 8.26562
Q6.98438 17.9688 6.98438 36.375
Q6.98438 53.6562 15.1875 63.9375
Q23.3906 74.2188 37.2031 74.2188
Q40.9219 74.2188 44.7031 73.4844
Q48.4844 72.75 52.5938 71.2969" id="BitstreamVeraSans-Roman-36"/>
      </defs>
      <g transform="translate(348.59503125 264.144791667)scale(0.12 -0.12)">
       <use xlink:href="#BitstreamVeraSans-Roman-36"/>
       <use x="63.623046875" xlink:href="#BitstreamVeraSans-Roman-30"/>
      </g>
     </g>
    </g>
    <g id="xtick_5">
     <g id="line2d_11">
      <g>
       <use style="stroke:#000000;stroke-width:0.5;" x="454.0336875" xlink:href="#m93b0483c22" y="251.026666667"/>
      </g>
     </g>
     <g id="line2d_12">
      <g>
       <use style="stroke:#000000;stroke-width:0.5;" x="454.0336875" xlink:href="#m741efc42ff" y="162.573333333"/>
      </g>
     </g>
     <g id="text_5">
      <!-- 80 -->
      <defs>
       <path d="
M31.7812 34.625
Q24.75 34.625 20.7188 30.8594
Q16.7031 27.0938 16.7031 20.5156
Q16.7031 13.9219 20.7188 10.1562
Q24.75 6.39062 31.7812 6.39062
Q38.8125 6.39062 42.8594 10.1719
Q46.9219 13.9688 46.9219 20.5156
Q46.9219 27.0938 42.8906 30.8594
Q38.875 34.625 31.7812 34.625
M21.9219 38.8125
Q15.5781 40.375 12.0312 44.7188
Q8.5 49.0781 8.5 55.3281
Q8.5 64.0625 14.7188 69.1406
Q20.9531 74.2188 31.7812 74.2188
Q42.6719 74.2188 48.875 69.1406
Q55.0781 64.0625 55.0781 55.3281
Q55.0781 49.0781 51.5312 44.7188
Q48 40.375 41.7031 38.8125
Q48.8281 37.1562 52.7969 32.3125
Q56.7812 27.4844 56.7812 20.5156
Q56.7812 9.90625 50.3125 4.23438
Q43.8438 -1.42188 31.7812 -1.42188
Q19.7344 -1.42188 13.25 4.23438
Q6.78125 9.90625 6.78125 20.5156
Q6.78125 27.4844 10.7812 32.3125
Q14.7969 37.1562 21.9219 38.8125
M18.3125 54.3906
Q18.3125 48.7344 21.8438 45.5625
Q25.3906 42.3906 31.7812 42.3906
Q38.1406 42.3906 41.7188 45.5625
Q45.3125 48.7344 45.3125 54.3906
Q45.3125 60.0625 41.7188 63.2344
Q38.1406 66.4062 31.7812 66.4062
Q25.3906 66.4062 21.8438 63.2344
Q18.3125 60.0625 18.3125 54.3906" id="BitstreamVeraSans-Roman-38"/>
      </defs>
      <g transform="translate(447.204 264.144791667)scale(0.12 -0.12)">
       <use xlink:href="#BitstreamVeraSans-Roman-38"/>
       <use x="63.623046875" xlink:href="#BitstreamVeraSans-Roman-30"/>
      </g>
     </g>
    </g>
    <g id="xtick_6">
     <g id="line2d_13">
      <g>
       <use style="stroke:#000000;stroke-width:0.5;" x="552.65484375" xlink:href="#m93b0483c22" y="251.026666667"/>
      </g>
     </g>
     <g id="line2d_14">
      <g>
       <use style="stroke:#000000;stroke-width:0.5;" x="552.65484375" xlink:href="#m741efc42ff" y="162.573333333"/>
      </g>
     </g>
     <g id="text_6">
      <!-- 100 -->
      <defs>
       <path d="
M12.4062 8.29688
L28.5156 8.29688
L28.5156 63.9219
L10.9844 60.4062
L10.9844 69.3906
L28.4219 72.9062
L38.2812 72.9062
L38.2812 8.29688
L54.3906 8.29688
L54.3906 0
L12.4062 0
z
" id="BitstreamVeraSans-Roman-31"/>
      </defs>
      <g transform="translate(542.25984375 264.144791667)scale(0.12 -0.12)">
       <use xlink:href="#BitstreamVeraSans-Roman-31"/>
       <use x="63.623046875" xlink:href="#BitstreamVeraSans-Roman-30"/>
       <use x="127.24609375" xlink:href="#BitstreamVeraSans-Roman-30"/>
      </g>
     </g>
    </g>
   </g>
   <g id="matplotlib.axis_2">
    <g id="ytick_1">
     <g id="line2d_15">
      <defs>
       <path d="
M0 0
L4 0" id="m728421d6d4" style="stroke:#000000;stroke-width:0.5;"/>
      </defs>
      <g>
       <use style="stroke:#000000;stroke-width:0.5;" x="59.5490625" xlink:href="#m728421d6d4" y="242.985454545"/>
      </g>
     </g>
     <g id="line2d_16">
      <defs>
       <path d="
M0 0
L-4 0" id="mcb0005524f" style="stroke:#000000;stroke-width:0.5;"/>
      </defs>
      <g>
       <use style="stroke:#000000;stroke-width:0.5;" x="552.65484375" xlink:href="#mcb0005524f" y="242.985454545"/>
      </g>
     </g>
     <g id="text_7">
      <!-- 0.30 -->
      <defs>
       <path d="
M40.5781 39.3125
Q47.6562 37.7969 51.625 33
Q55.6094 28.2188 55.6094 21.1875
Q55.6094 10.4062 48.1875 4.48438
Q40.7656 -1.42188 27.0938 -1.42188
Q22.5156 -1.42188 17.6562 -0.515625
Q12.7969 0.390625 7.625 2.20312
L7.625 11.7188
Q11.7188 9.32812 16.5938 8.10938
Q21.4844 6.89062 26.8125 6.89062
Q36.0781 6.89062 40.9375 10.5469
Q45.7969 14.2031 45.7969 21.1875
Q45.7969 27.6406 41.2812 31.2656
Q36.7656 34.9062 28.7188 34.9062
L20.2188 34.9062
L20.2188 43.0156
L29.1094 43.0156
Q36.375 43.0156 40.2344 45.9219
Q44.0938 48.8281 44.0938 54.2969
Q44.0938 59.9062 40.1094 62.9062
Q36.1406 65.9219 28.7188 65.9219
Q24.6562 65.9219 20.0156 65.0312
Q15.375 64.1562 9.8125 62.3125
L9.8125 71.0938
Q15.4375 72.6562 20.3438 73.4375
Q25.25 74.2188 29.5938 74.2188
Q40.8281 74.2188 47.3594 69.1094
Q53.9062 64.0156 53.9062 55.3281
Q53.9062 49.2656 50.4375 45.0938
Q46.9688 40.9219 40.5781 39.3125" id="BitstreamVeraSans-Roman-33"/>
       <path d="
M10.6875 12.4062
L21 12.4062
L21 0
L10.6875 0
z
" id="BitstreamVeraSans-Roman-2e"/>
      </defs>
      <g transform="translate(30.4184375 246.296704545)scale(0.12 -0.12)">
       <use xlink:href="#BitstreamVeraSans-Roman-30"/>
       <use x="63.623046875" xlink:href="#BitstreamVeraSans-Roman-2e"/>
       <use x="95.41015625" xlink:href="#BitstreamVeraSans-Roman-33"/>
       <use x="159.033203125" xlink:href="#BitstreamVeraSans-Roman-30"/>
      </g>
     </g>
    </g>
    <g id="ytick_2">
     <g id="line2d_17">
      <g>
       <use style="stroke:#000000;stroke-width:0.5;" x="59.5490625" xlink:href="#m728421d6d4" y="222.882424242"/>
      </g>
     </g>
     <g id="line2d_18">
      <g>
       <use style="stroke:#000000;stroke-width:0.5;" x="552.65484375" xlink:href="#mcb0005524f" y="222.882424242"/>
      </g>
     </g>
     <g id="text_8">
      <!-- 0.35 -->
      <defs>
       <path d="
M10.7969 72.9062
L49.5156 72.9062
L49.5156 64.5938
L19.8281 64.5938
L19.8281 46.7344
Q21.9688 47.4688 24.1094 47.8281
Q26.2656 48.1875 28.4219 48.1875
Q40.625 48.1875 47.75 41.5
Q54.8906 34.8125 54.8906 23.3906
Q54.8906 11.625 47.5625 5.09375
Q40.2344 -1.42188 26.9062 -1.42188
Q22.3125 -1.42188 17.5469 -0.640625
Q12.7969 0.140625 7.71875 1.70312
L7.71875 11.625
Q12.1094 9.23438 16.7969 8.0625
Q21.4844 6.89062 26.7031 6.89062
Q35.1562 6.89062 40.0781 11.3281
Q45.0156 15.7656 45.0156 23.3906
Q45.0156 31 40.0781 35.4375
Q35.1562 39.8906 26.7031 39.8906
Q22.75 39.8906 18.8125 39.0156
Q14.8906 38.1406 10.7969 36.2812
z
" id="BitstreamVeraSans-Roman-35"/>
      </defs>
      <g transform="translate(30.6696875 226.193674242)scale(0.12 -0.12)">
       <use xlink:href="#BitstreamVeraSans-Roman-30"/>
       <use x="63.623046875" xlink:href="#BitstreamVeraSans-Roman-2e"/>
       <use x="95.41015625" xlink:href="#BitstreamVeraSans-Roman-33"/>
       <use x="159.033203125" xlink:href="#BitstreamVeraSans-Roman-35"/>
      </g>
     </g>
    </g>
    <g id="ytick_3">
     <g id="line2d_19">
      <g>
       <use style="stroke:#000000;stroke-width:0.5;" x="59.5490625" xlink:href="#m728421d6d4" y="202.779393939"/>
      </g>
     </g>
     <g id="line2d_20">
      <g>
       <use style="stroke:#000000;stroke-width:0.5;" x="552.65484375" xlink:href="#mcb0005524f" y="202.779393939"/>
      </g>
     </g>
     <g id="text_9">
      <!-- 0.40 -->
      <g transform="translate(30.4184375 206.090643939)scale(0.12 -0.12)">
       <use xlink:href="#BitstreamVeraSans-Roman-30"/>
       <use x="63.623046875" xlink:href="#BitstreamVeraSans-Roman-2e"/>
       <use x="95.41015625" xlink:href="#BitstreamVeraSans-Roman-34"/>
       <use x="159.033203125" xlink:href="#BitstreamVeraSans-Roman-30"/>
      </g>
     </g>
    </g>
    <g id="ytick_4">
     <g id="line2d_21">
      <g>
       <use style="stroke:#000000;stroke-width:0.5;" x="59.5490625" xlink:href="#m728421d6d4" y="182.676363636"/>
      </g>
     </g>
     <g id="line2d_22">
      <g>
       <use style="stroke:#000000;stroke-width:0.5;" x="552.65484375" xlink:href="#mcb0005524f" y="182.676363636"/>
      </g>
     </g>
     <g id="text_10">
      <!-- 0.45 -->
      <g transform="translate(30.6696875 185.987613636)scale(0.12 -0.12)">
       <use xlink:href="#BitstreamVeraSans-Roman-30"/>
       <use x="63.623046875" xlink:href="#BitstreamVeraSans-Roman-2e"/>
       <use x="95.41015625" xlink:href="#BitstreamVeraSans-Roman-34"/>
       <use x="159.033203125" xlink:href="#BitstreamVeraSans-Roman-35"/>
      </g>
     </g>
    </g>
    <g id="ytick_5">
     <g id="line2d_23">
      <g>
       <use style="stroke:#000000;stroke-width:0.5;" x="59.5490625" xlink:href="#m728421d6d4" y="162.573333333"/>
      </g>
     </g>
     <g id="line2d_24">
      <g>
       <use style="stroke:#000000;stroke-width:0.5;" x="552.65484375" xlink:href="#mcb0005524f" y="162.573333333"/>
      </g>
     </g>
     <g id="text_11">
      <!-- 0.50 -->
      <g transform="translate(30.4184375 165.884583333)scale(0.12 -0.12)">
       <use xlink:href="#BitstreamVeraSans-Roman-30"/>
       <use x="63.623046875" xlink:href="#BitstreamVeraSans-Roman-2e"/>
       <use x="95.41015625" xlink:href="#BitstreamVeraSans-Roman-35"/>
       <use x="159.033203125" xlink:href="#BitstreamVeraSans-Roman-30"/>
      </g>
     </g>
    </g>
   </g>
   <g id="text_12">
    <!-- Pulse in Stress Trials -->
    <defs>
     <path id="BitstreamVeraSans-Roman-20"/>
     <path d="
M54.8906 33.0156
L54.8906 0
L45.9062 0
L45.9062 32.7188
Q45.9062 40.4844 42.875 44.3281
Q39.8438 48.1875 33.7969 48.1875
Q26.5156 48.1875 22.3125 43.5469
Q18.1094 38.9219 18.1094 30.9062
L18.1094 0
L9.07812 0
L9.07812 54.6875
L18.1094 54.6875
L18.1094 46.1875
Q21.3438 51.125 25.7031 53.5625
Q30.0781 56 35.7969 56
Q45.2188 56 50.0469 50.1719
Q54.8906 44.3438 54.8906 33.0156" id="BitstreamVeraSans-Roman-6e"/>
     <path d="
M34.2812 27.4844
Q23.3906 27.4844 19.1875 25
Q14.9844 22.5156 14.9844 16.5
Q14.9844 11.7188 18.1406 8.90625
Q21.2969 6.10938 26.7031 6.10938
Q34.1875 6.10938 38.7031 11.4062
Q43.2188 16.7031 43.2188 25.4844
L43.2188 27.4844
z

M52.2031 31.2031
L52.2031 0
L43.2188 0
L43.2188 8.29688
Q40.1406 3.32812 35.5469 0.953125
Q30.9531 -1.42188 24.3125 -1.42188
Q15.9219 -1.42188 10.9531 3.29688
Q6 8.01562 6 15.9219
Q6 25.1406 12.1719 29.8281
Q18.3594 34.5156 30.6094 34.5156
L43.2188 34.5156
L43.2188 35.4062
Q43.2188 41.6094 39.1406 45
Q35.0625 48.3906 27.6875 48.3906
Q23 48.3906 18.5469 47.2656
Q14.1094 46.1406 10.0156 43.8906
L10.0156 52.2031
Q14.9375 54.1094 19.5781 55.0469
Q24.2188 56 28.6094 56
Q40.4844 56 46.3438 49.8438
Q52.2031 43.7031 52.2031 31.2031" id="BitstreamVeraSans-Roman-61"/>
     <path d="
M9.42188 75.9844
L18.4062 75.9844
L18.4062 0
L9.42188 0
z
" id="BitstreamVeraSans-Roman-6c"/>
     <path d="
M19.6719 64.7969
L19.6719 37.4062
L32.0781 37.4062
Q38.9688 37.4062 42.7188 40.9688
Q46.4844 44.5312 46.4844 51.125
Q46.4844 57.6719 42.7188 61.2344
Q38.9688 64.7969 32.0781 64.7969
z

M9.8125 72.9062
L32.0781 72.9062
Q44.3438 72.9062 50.6094 67.3594
Q56.8906 61.8125 56.8906 51.125
Q56.8906 40.3281 50.6094 34.8125
Q44.3438 29.2969 32.0781 29.2969
L19.6719 29.2969
L19.6719 0
L9.8125 0
z
" id="BitstreamVeraSans-Roman-50"/>
     <path d="
M53.5156 70.5156
L53.5156 60.8906
Q47.9062 63.5781 42.9219 64.8906
Q37.9375 66.2188 33.2969 66.2188
Q25.25 66.2188 20.875 63.0938
Q16.5 59.9688 16.5 54.2031
Q16.5 49.3594 19.4062 46.8906
Q22.3125 44.4375 30.4219 42.9219
L36.375 41.7031
Q47.4062 39.5938 52.6562 34.2969
Q57.9062 29 57.9062 20.125
Q57.9062 9.51562 50.7969 4.04688
Q43.7031 -1.42188 29.9844 -1.42188
Q24.8125 -1.42188 18.9688 -0.25
Q13.1406 0.921875 6.89062 3.21875
L6.89062 13.375
Q12.8906 10.0156 18.6562 8.29688
Q24.4219 6.59375 29.9844 6.59375
Q38.4219 6.59375 43.0156 9.90625
Q47.6094 13.2344 47.6094 19.3906
Q47.6094 24.75 44.3125 27.7812
Q41.0156 30.8125 33.5 32.3281
L27.4844 33.5
Q16.4531 35.6875 11.5156 40.375
Q6.59375 45.0625 6.59375 53.4219
Q6.59375 63.0938 13.4062 68.6562
Q20.2188 74.2188 32.1719 74.2188
Q37.3125 74.2188 42.625 73.2812
Q47.9531 72.3594 53.5156 70.5156" id="BitstreamVeraSans-Roman-53"/>
     <path d="
M9.42188 54.6875
L18.4062 54.6875
L18.4062 0
L9.42188 0
z

M9.42188 75.9844
L18.4062 75.9844
L18.4062 64.5938
L9.42188 64.5938
z
" id="BitstreamVeraSans-Roman-69"/>
     <path d="
M56.2031 29.5938
L56.2031 25.2031
L14.8906 25.2031
Q15.4844 15.9219 20.4844 11.0625
Q25.4844 6.20312 34.4219 6.20312
Q39.5938 6.20312 44.4531 7.46875
Q49.3125 8.73438 54.1094 11.2812
L54.1094 2.78125
Q49.2656 0.734375 44.1875 -0.34375
Q39.1094 -1.42188 33.8906 -1.42188
Q20.7969 -1.42188 13.1562 6.1875
Q5.51562 13.8125 5.51562 26.8125
Q5.51562 40.2344 12.7656 48.1094
Q20.0156 56 32.3281 56
Q43.3594 56 49.7812 48.8906
Q56.2031 41.7969 56.2031 29.5938
M47.2188 32.2344
Q47.125 39.5938 43.0938 43.9844
Q39.0625 48.3906 32.4219 48.3906
Q24.9062 48.3906 20.3906 44.1406
Q15.875 39.8906 15.1875 32.1719
z
" id="BitstreamVeraSans-Roman-65"/>
     <path d="
M-0.296875 72.9062
L61.375 72.9062
L61.375 64.5938
L35.5 64.5938
L35.5 0
L25.5938 0
L25.5938 64.5938
L-0.296875 64.5938
z
" id="BitstreamVeraSans-Roman-54"/>
     <path d="
M18.3125 70.2188
L18.3125 54.6875
L36.8125 54.6875
L36.8125 47.7031
L18.3125 47.7031
L18.3125 18.0156
Q18.3125 11.3281 20.1406 9.42188
Q21.9688 7.51562 27.5938 7.51562
L36.8125 7.51562
L36.8125 0
L27.5938 0
Q17.1875 0 13.2344 3.875
Q9.28125 7.76562 9.28125 18.0156
L9.28125 47.7031
L2.6875 47.7031
L2.6875 54.6875
L9.28125 54.6875
L9.28125 70.2188
z
" id="BitstreamVeraSans-Roman-74"/>
     <path d="
M8.5 21.5781
L8.5 54.6875
L17.4844 54.6875
L17.4844 21.9219
Q17.4844 14.1562 20.5 10.2656
Q23.5312 6.39062 29.5938 6.39062
Q36.8594 6.39062 41.0781 11.0312
Q45.3125 15.6719 45.3125 23.6875
L45.3125 54.6875
L54.2969 54.6875
L54.2969 0
L45.3125 0
L45.3125 8.40625
Q42.0469 3.42188 37.7188 1
Q33.4062 -1.42188 27.6875 -1.42188
Q18.2656 -1.42188 13.375 4.4375
Q8.5 10.2969 8.5 21.5781" id="BitstreamVeraSans-Roman-75"/>
     <path d="
M41.1094 46.2969
Q39.5938 47.1719 37.8125 47.5781
Q36.0312 48 33.8906 48
Q26.2656 48 22.1875 43.0469
Q18.1094 38.0938 18.1094 28.8125
L18.1094 0
L9.07812 0
L9.07812 54.6875
L18.1094 54.6875
L18.1094 46.1875
Q20.9531 51.1719 25.4844 53.5781
Q30.0312 56 36.5312 56
Q37.4531 56 38.5781 55.875
Q39.7031 55.7656 41.0625 55.5156
z
" id="BitstreamVeraSans-Roman-72"/>
     <path d="
M44.2812 53.0781
L44.2812 44.5781
Q40.4844 46.5312 36.375 47.5
Q32.2812 48.4844 27.875 48.4844
Q21.1875 48.4844 17.8438 46.4375
Q14.5 44.3906 14.5 40.2812
Q14.5 37.1562 16.8906 35.375
Q19.2812 33.5938 26.5156 31.9844
L29.5938 31.2969
Q39.1562 29.25 43.1875 25.5156
Q47.2188 21.7812 47.2188 15.0938
Q47.2188 7.46875 41.1875 3.01562
Q35.1562 -1.42188 24.6094 -1.42188
Q20.2188 -1.42188 15.4531 -0.5625
Q10.6875 0.296875 5.42188 2
L5.42188 11.2812
Q10.4062 8.6875 15.2344 7.39062
Q20.0625 6.10938 24.8125 6.10938
Q31.1562 6.10938 34.5625 8.28125
Q37.9844 10.4531 37.9844 14.4062
Q37.9844 18.0625 35.5156 20.0156
Q33.0625 21.9688 24.7031 23.7812
L21.5781 24.5156
Q13.2344 26.2656 9.51562 29.9062
Q5.8125 33.5469 5.8125 39.8906
Q5.8125 47.6094 11.2812 51.7969
Q16.75 56 26.8125 56
Q31.7812 56 36.1719 55.2656
Q40.5781 54.5469 44.2812 53.0781" id="BitstreamVeraSans-Roman-73"/>
    </defs>
    <g transform="translate(233.483203125 157.573333333)scale(0.144 -0.144)">
     <use xlink:href="#BitstreamVeraSans-Roman-50"/>
     <use x="58.552734375" xlink:href="#BitstreamVeraSans-Roman-75"/>
     <use x="121.931640625" xlink:href="#BitstreamVeraSans-Roman-6c"/>
     <use x="149.71484375" xlink:href="#BitstreamVeraSans-Roman-73"/>
     <use x="201.814453125" xlink:href="#BitstreamVeraSans-Roman-65"/>
     <use x="263.337890625" xlink:href="#BitstreamVeraSans-Roman-20"/>
     <use x="295.125" xlink:href="#BitstreamVeraSans-Roman-69"/>
     <use x="322.908203125" xlink:href="#BitstreamVeraSans-Roman-6e"/>
     <use x="386.287109375" xlink:href="#BitstreamVeraSans-Roman-20"/>
     <use x="418.07421875" xlink:href="#BitstreamVeraSans-Roman-53"/>
     <use x="481.55078125" xlink:href="#BitstreamVeraSans-Roman-74"/>
     <use x="520.759765625" xlink:href="#BitstreamVeraSans-Roman-72"/>
     <use x="559.623046875" xlink:href="#BitstreamVeraSans-Roman-65"/>
     <use x="621.146484375" xlink:href="#BitstreamVeraSans-Roman-73"/>
     <use x="673.24609375" xlink:href="#BitstreamVeraSans-Roman-73"/>
     <use x="725.345703125" xlink:href="#BitstreamVeraSans-Roman-20"/>
     <use x="757.1328125" xlink:href="#BitstreamVeraSans-Roman-54"/>
     <use x="803.466796875" xlink:href="#BitstreamVeraSans-Roman-72"/>
     <use x="844.580078125" xlink:href="#BitstreamVeraSans-Roman-69"/>
     <use x="872.36328125" xlink:href="#BitstreamVeraSans-Roman-61"/>
     <use x="933.642578125" xlink:href="#BitstreamVeraSans-Roman-6c"/>
     <use x="961.42578125" xlink:href="#BitstreamVeraSans-Roman-73"/>
    </g>
   </g>
  </g>
  <g id="axes_2">
   <g id="patch_7">
    <path d="
M59.5491 117.213
L552.655 117.213
L552.655 28.76
L59.5491 28.76
z
" style="fill:#ffffff;"/>
   </g>
   <g id="line2d_25">
    <path clip-path="url(#pc73c664cc7)" d="
M63.6583 80.3725
L67.7675 107.7
L71.8767 104.802
L75.9859 90.3194
L80.0951 100.535
L84.2044 99.1849
L88.3136 99.9315
L92.4228 99.5509
L96.532 78.7289
L100.641 81.2301
L104.75 99.3518
L108.86 85.4109
L112.969 82.6287
L117.078 99.1263
L121.187 95.6881
L125.297 83.9725
L129.406 90.0888
L133.515 88.5719
L137.624 102.951
L141.733 80.5701
L145.843 86.0047
L149.952 91.004
L154.061 105.21
L158.17 86.2352
L162.279 71.496
L166.389 94.9251
L170.498 109.166
L174.607 91.3719
L178.716 90.4603
L182.826 84.6872
L186.935 80.9159
L191.044 106.541
L195.153 106.37
L199.262 93.5344
L203.372 75.1191
L207.481 101.805
L211.59 100.112
L215.699 88.689
L219.808 96.1401
L223.918 78.0834
L228.027 91.9534
L232.136 98.7457
L236.245 96.9759
L240.355 87.2963
L244.464 91.1758
L248.573 83.1703
L252.682 94.947
L256.791 100.53
L260.901 84.9762
L265.01 73.2558
L269.119 86.334
L273.228 70.1456
L277.337 101.284
L281.447 91.0868
L285.556 82.6451
L289.665 82.8098
L293.774 93.1553
L297.884 97.4338
L301.993 103.84
L306.102 93.8272
L310.211 84.0047
L314.32 88.9361
L318.43 76.2521
L322.539 100.561
L326.648 86.3761
L330.757 91.0341
L334.866 82.9053
L338.976 91.7719
L343.085 93.4319
L347.194 87.2233
L351.303 90.7677
L355.413 84.5225
L359.522 78.6268
L363.631 95.496
L367.74 92.7864
L371.849 101.82
L375.959 98.3798
L380.068 84.7366
L384.177 83.9132
L388.286 96.9159
L392.395 93.2508
L396.505 100.777
L400.614 81.8217
L404.723 85.9223
L408.832 98.4877
L412.942 96.7975
L417.051 102.865
L421.16 73.604
L425.269 88.6561
L429.378 93.9443
L433.488 91.6899
L437.597 86.487
L441.706 86.5646
L445.815 74.9873
L449.924 87.9809
L454.034 103.996
L458.143 90.3622
L462.252 73.604
L466.361 94.2036
L470.471 101.788
L474.58 104.815" style="fill:none;stroke:#0000ff;stroke-linecap:square;"/>
   </g>
   <g id="line2d_26">
    <path clip-path="url(#pc73c664cc7)" d="
M63.6583 92.2765
L67.7675 92.2522
L71.8767 92.2279
L75.9859 92.2036
L80.0951 92.1793
L84.2044 92.155
L88.3136 92.1307
L92.4228 92.1064
L96.532 92.0821
L100.641 92.0578
L104.75 92.0335
L108.86 92.0092
L112.969 91.9849
L117.078 91.9607
L121.187 91.9364
L125.297 91.9121
L129.406 91.8878
L133.515 91.8635
L137.624 91.8392
L141.733 91.8149
L145.843 91.7906
L149.952 91.7663
L154.061 91.742
L158.17 91.7177
L162.279 91.6934
L166.389 91.6691
L170.498 91.6448
L174.607 91.6205
L178.716 91.5962
L182.826 91.5719
L186.935 91.5477
L191.044 91.5234
L195.153 91.4991
L199.262 91.4748
L203.372 91.4505
L207.481 91.4262
L211.59 91.4019
L215.699 91.3776
L219.808 91.3533
L223.918 91.329
L228.027 91.3047
L232.136 91.2804
L236.245 91.2561
L240.355 91.2318
L244.464 91.2075
L248.573 91.1832
L252.682 91.1589
L256.791 91.1347
L260.901 91.1104
L265.01 91.0861
L269.119 91.0618
L273.228 91.0375
L277.337 91.0132
L281.447 90.9889
L285.556 90.9646
L289.665 90.9403
L293.774 90.916
L297.884 90.8917
L301.993 90.8674
L306.102 90.8431
L310.211 90.8188
L314.32 90.7945
L318.43 90.7702
L322.539 90.7459
L326.648 90.7217
L330.757 90.6974
L334.866 90.6731
L338.976 90.6488
L343.085 90.6245
L347.194 90.6002
L351.303 90.5759
L355.413 90.5516
L359.522 90.5273
L363.631 90.503
L367.74 90.4787
L371.849 90.4544
L375.959 90.4301
L380.068 90.4058
L384.177 90.3815
L388.286 90.3572
L392.395 90.3329
L396.505 90.3087
L400.614 90.2844
L404.723 90.2601
L408.832 90.2358
L412.942 90.2115
L417.051 90.1872
L421.16 90.1629
L425.269 90.1386
L429.378 90.1143
L433.488 90.09
L437.597 90.0657
L441.706 90.0414
L445.815 90.0171
L449.924 89.9928
L454.034 89.9685
L458.143 89.9442
L462.252 89.9199
L466.361 89.8957
L470.471 89.8714
L474.58 89.8471" style="fill:none;stroke:#0000ff;stroke-dasharray:6.000000,6.000000;stroke-dashoffset:0.0;"/>
   </g>
   <g id="patch_8">
    <path d="
M59.5491 28.76
L552.655 28.76" style="fill:none;stroke:#000000;stroke-linecap:square;stroke-linejoin:miter;"/>
   </g>
   <g id="patch_9">
    <path d="
M552.655 117.213
L552.655 28.76" style="fill:none;stroke:#000000;stroke-linecap:square;stroke-linejoin:miter;"/>
   </g>
   <g id="patch_10">
    <path d="
M59.5491 117.213
L552.655 117.213" style="fill:none;stroke:#000000;stroke-linecap:square;stroke-linejoin:miter;"/>
   </g>
   <g id="patch_11">
    <path d="
M59.5491 117.213
L59.5491 28.76" style="fill:none;stroke:#000000;stroke-linecap:square;stroke-linejoin:miter;"/>
   </g>
   <g id="matplotlib.axis_3">
    <g id="xtick_7">
     <g id="line2d_27">
      <g>
       <use style="stroke:#000000;stroke-width:0.5;" x="59.5490625" xlink:href="#m93b0483c22" y="117.213333333"/>
      </g>
     </g>
     <g id="line2d_28">
      <g>
       <use style="stroke:#000000;stroke-width:0.5;" x="59.5490625" xlink:href="#m741efc42ff" y="28.76"/>
      </g>
     </g>
     <g id="text_13">
      <!-- 0 -->
      <g transform="translate(56.525625 130.331458333)scale(0.12 -0.12)">
       <use xlink:href="#BitstreamVeraSans-Roman-30"/>
      </g>
     </g>
    </g>
    <g id="xtick_8">
     <g id="line2d_29">
      <g>
       <use style="stroke:#000000;stroke-width:0.5;" x="141.733359375" xlink:href="#m93b0483c22" y="117.213333333"/>
      </g>
     </g>
     <g id="line2d_30">
      <g>
       <use style="stroke:#000000;stroke-width:0.5;" x="141.733359375" xlink:href="#m741efc42ff" y="28.76"/>
      </g>
     </g>
     <g id="text_14">
      <!-- 20 -->
      <g transform="translate(134.936484375 130.331458333)scale(0.12 -0.12)">
       <use xlink:href="#BitstreamVeraSans-Roman-32"/>
       <use x="63.623046875" xlink:href="#BitstreamVeraSans-Roman-30"/>
      </g>
     </g>
    </g>
    <g id="xtick_9">
     <g id="line2d_31">
      <g>
       <use style="stroke:#000000;stroke-width:0.5;" x="223.91765625" xlink:href="#m93b0483c22" y="117.213333333"/>
      </g>
     </g>
     <g id="line2d_32">
      <g>
       <use style="stroke:#000000;stroke-width:0.5;" x="223.91765625" xlink:href="#m741efc42ff" y="28.76"/>
      </g>
     </g>
     <g id="text_15">
      <!-- 40 -->
      <g transform="translate(216.97453125 130.331458333)scale(0.12 -0.12)">
       <use xlink:href="#BitstreamVeraSans-Roman-34"/>
       <use x="63.623046875" xlink:href="#BitstreamVeraSans-Roman-30"/>
      </g>
     </g>
    </g>
    <g id="xtick_10">
     <g id="line2d_33">
      <g>
       <use style="stroke:#000000;stroke-width:0.5;" x="306.101953125" xlink:href="#m93b0483c22" y="117.213333333"/>
      </g>
     </g>
     <g id="line2d_34">
      <g>
       <use style="stroke:#000000;stroke-width:0.5;" x="306.101953125" xlink:href="#m741efc42ff" y="28.76"/>
      </g>
     </g>
     <g id="text_16">
      <!-- 60 -->
      <g transform="translate(299.284453125 130.331458333)scale(0.12 -0.12)">
       <use xlink:href="#BitstreamVeraSans-Roman-36"/>
       <use x="63.623046875" xlink:href="#BitstreamVeraSans-Roman-30"/>
      </g>
     </g>
    </g>
    <g id="xtick_11">
     <g id="line2d_35">
      <g>
       <use style="stroke:#000000;stroke-width:0.5;" x="388.28625" xlink:href="#m93b0483c22" y="117.213333333"/>
      </g>
     </g>
     <g id="line2d_36">
      <g>
       <use style="stroke:#000000;stroke-width:0.5;" x="388.28625" xlink:href="#m741efc42ff" y="28.76"/>
      </g>
     </g>
     <g id="text_17">
      <!-- 80 -->
      <g transform="translate(381.4565625 130.331458333)scale(0.12 -0.12)">
       <use xlink:href="#BitstreamVeraSans-Roman-38"/>
       <use x="63.623046875" xlink:href="#BitstreamVeraSans-Roman-30"/>
      </g>
     </g>
    </g>
    <g id="xtick_12">
     <g id="line2d_37">
      <g>
       <use style="stroke:#000000;stroke-width:0.5;" x="470.470546875" xlink:href="#m93b0483c22" y="117.213333333"/>
      </g>
     </g>
     <g id="line2d_38">
      <g>
       <use style="stroke:#000000;stroke-width:0.5;" x="470.470546875" xlink:href="#m741efc42ff" y="28.76"/>
      </g>
     </g>
     <g id="text_18">
      <!-- 100 -->
      <g transform="translate(460.075546875 130.331458333)scale(0.12 -0.12)">
       <use xlink:href="#BitstreamVeraSans-Roman-31"/>
       <use x="63.623046875" xlink:href="#BitstreamVeraSans-Roman-30"/>
       <use x="127.24609375" xlink:href="#BitstreamVeraSans-Roman-30"/>
      </g>
     </g>
    </g>
    <g id="xtick_13">
     <g id="line2d_39">
      <g>
       <use style="stroke:#000000;stroke-width:0.5;" x="552.65484375" xlink:href="#m93b0483c22" y="117.213333333"/>
      </g>
     </g>
     <g id="line2d_40">
      <g>
       <use style="stroke:#000000;stroke-width:0.5;" x="552.65484375" xlink:href="#m741efc42ff" y="28.76"/>
      </g>
     </g>
     <g id="text_19">
      <!-- 120 -->
      <g transform="translate(542.25984375 130.331458333)scale(0.12 -0.12)">
       <use xlink:href="#BitstreamVeraSans-Roman-31"/>
       <use x="63.623046875" xlink:href="#BitstreamVeraSans-Roman-32"/>
       <use x="127.24609375" xlink:href="#BitstreamVeraSans-Roman-30"/>
      </g>
     </g>
    </g>
   </g>
   <g id="matplotlib.axis_4">
    <g id="ytick_6">
     <g id="line2d_41">
      <g>
       <use style="stroke:#000000;stroke-width:0.5;" x="59.5490625" xlink:href="#m728421d6d4" y="109.172121212"/>
      </g>
     </g>
     <g id="line2d_42">
      <g>
       <use style="stroke:#000000;stroke-width:0.5;" x="552.65484375" xlink:href="#mcb0005524f" y="109.172121212"/>
      </g>
     </g>
     <g id="text_20">
      <!-- 0.30 -->
      <g transform="translate(30.4184375 112.483371212)scale(0.12 -0.12)">
       <use xlink:href="#BitstreamVeraSans-Roman-30"/>
       <use x="63.623046875" xlink:href="#BitstreamVeraSans-Roman-2e"/>
       <use x="95.41015625" xlink:href="#BitstreamVeraSans-Roman-33"/>
       <use x="159.033203125" xlink:href="#BitstreamVeraSans-Roman-30"/>
      </g>
     </g>
    </g>
    <g id="ytick_7">
     <g id="line2d_43">
      <g>
       <use style="stroke:#000000;stroke-width:0.5;" x="59.5490625" xlink:href="#m728421d6d4" y="89.0690909091"/>
      </g>
     </g>
     <g id="line2d_44">
      <g>
       <use style="stroke:#000000;stroke-width:0.5;" x="552.65484375" xlink:href="#mcb0005524f" y="89.0690909091"/>
      </g>
     </g>
     <g id="text_21">
      <!-- 0.35 -->
      <g transform="translate(30.6696875 92.3803409091)scale(0.12 -0.12)">
       <use xlink:href="#BitstreamVeraSans-Roman-30"/>
       <use x="63.623046875" xlink:href="#BitstreamVeraSans-Roman-2e"/>
       <use x="95.41015625" xlink:href="#BitstreamVeraSans-Roman-33"/>
       <use x="159.033203125" xlink:href="#BitstreamVeraSans-Roman-35"/>
      </g>
     </g>
    </g>
    <g id="ytick_8">
     <g id="line2d_45">
      <g>
       <use style="stroke:#000000;stroke-width:0.5;" x="59.5490625" xlink:href="#m728421d6d4" y="68.9660606061"/>
      </g>
     </g>
     <g id="line2d_46">
      <g>
       <use style="stroke:#000000;stroke-width:0.5;" x="552.65484375" xlink:href="#mcb0005524f" y="68.9660606061"/>
      </g>
     </g>
     <g id="text_22">
      <!-- 0.40 -->
      <g transform="translate(30.4184375 72.2773106061)scale(0.12 -0.12)">
       <use xlink:href="#BitstreamVeraSans-Roman-30"/>
       <use x="63.623046875" xlink:href="#BitstreamVeraSans-Roman-2e"/>
       <use x="95.41015625" xlink:href="#BitstreamVeraSans-Roman-34"/>
       <use x="159.033203125" xlink:href="#BitstreamVeraSans-Roman-30"/>
      </g>
     </g>
    </g>
    <g id="ytick_9">
     <g id="line2d_47">
      <g>
       <use style="stroke:#000000;stroke-width:0.5;" x="59.5490625" xlink:href="#m728421d6d4" y="48.863030303"/>
      </g>
     </g>
     <g id="line2d_48">
      <g>
       <use style="stroke:#000000;stroke-width:0.5;" x="552.65484375" xlink:href="#mcb0005524f" y="48.863030303"/>
      </g>
     </g>
     <g id="text_23">
      <!-- 0.45 -->
      <g transform="translate(30.6696875 52.174280303)scale(0.12 -0.12)">
       <use xlink:href="#BitstreamVeraSans-Roman-30"/>
       <use x="63.623046875" xlink:href="#BitstreamVeraSans-Roman-2e"/>
       <use x="95.41015625" xlink:href="#BitstreamVeraSans-Roman-34"/>
       <use x="159.033203125" xlink:href="#BitstreamVeraSans-Roman-35"/>
      </g>
     </g>
    </g>
    <g id="ytick_10">
     <g id="line2d_49">
      <g>
       <use style="stroke:#000000;stroke-width:0.5;" x="59.5490625" xlink:href="#m728421d6d4" y="28.76"/>
      </g>
     </g>
     <g id="line2d_50">
      <g>
       <use style="stroke:#000000;stroke-width:0.5;" x="552.65484375" xlink:href="#mcb0005524f" y="28.76"/>
      </g>
     </g>
     <g id="text_24">
      <!-- 0.50 -->
      <g transform="translate(30.4184375 32.07125)scale(0.12 -0.12)">
       <use xlink:href="#BitstreamVeraSans-Roman-30"/>
       <use x="63.623046875" xlink:href="#BitstreamVeraSans-Roman-2e"/>
       <use x="95.41015625" xlink:href="#BitstreamVeraSans-Roman-35"/>
       <use x="159.033203125" xlink:href="#BitstreamVeraSans-Roman-30"/>
      </g>
     </g>
    </g>
   </g>
   <g id="text_25">
    <!-- Pulse in Regular Trials before Stress -->
    <defs>
     <path d="
M44.3906 34.1875
Q47.5625 33.1094 50.5625 29.5938
Q53.5625 26.0781 56.5938 19.9219
L66.6094 0
L56 0
L46.6875 18.7031
Q43.0625 26.0312 39.6719 28.4219
Q36.2812 30.8125 30.4219 30.8125
L19.6719 30.8125
L19.6719 0
L9.8125 0
L9.8125 72.9062
L32.0781 72.9062
Q44.5781 72.9062 50.7344 67.6719
Q56.8906 62.4531 56.8906 51.9062
Q56.8906 45.0156 53.6875 40.4688
Q50.4844 35.9375 44.3906 34.1875
M19.6719 64.7969
L19.6719 38.9219
L32.0781 38.9219
Q39.2031 38.9219 42.8438 42.2188
Q46.4844 45.5156 46.4844 51.9062
Q46.4844 58.2969 42.8438 61.5469
Q39.2031 64.7969 32.0781 64.7969
z
" id="BitstreamVeraSans-Roman-52"/>
     <path d="
M37.1094 75.9844
L37.1094 68.5
L28.5156 68.5
Q23.6875 68.5 21.7969 66.5469
Q19.9219 64.5938 19.9219 59.5156
L19.9219 54.6875
L34.7188 54.6875
L34.7188 47.7031
L19.9219 47.7031
L19.9219 0
L10.8906 0
L10.8906 47.7031
L2.29688 47.7031
L2.29688 54.6875
L10.8906 54.6875
L10.8906 58.5
Q10.8906 67.625 15.1406 71.7969
Q19.3906 75.9844 28.6094 75.9844
z
" id="BitstreamVeraSans-Roman-66"/>
     <path d="
M45.4062 27.9844
Q45.4062 37.75 41.375 43.1094
Q37.3594 48.4844 30.0781 48.4844
Q22.8594 48.4844 18.8281 43.1094
Q14.7969 37.75 14.7969 27.9844
Q14.7969 18.2656 18.8281 12.8906
Q22.8594 7.51562 30.0781 7.51562
Q37.3594 7.51562 41.375 12.8906
Q45.4062 18.2656 45.4062 27.9844
M54.3906 6.78125
Q54.3906 -7.17188 48.1875 -13.9844
Q42 -20.7969 29.2031 -20.7969
Q24.4688 -20.7969 20.2656 -20.0938
Q16.0625 -19.3906 12.1094 -17.9219
L12.1094 -9.1875
Q16.0625 -11.3281 19.9219 -12.3438
Q23.7812 -13.375 27.7812 -13.375
Q36.625 -13.375 41.0156 -8.76562
Q45.4062 -4.15625 45.4062 5.17188
L45.4062 9.625
Q42.625 4.78125 38.2812 2.39062
Q33.9375 0 27.875 0
Q17.8281 0 11.6719 7.65625
Q5.51562 15.3281 5.51562 27.9844
Q5.51562 40.6719 11.6719 48.3281
Q17.8281 56 27.875 56
Q33.9375 56 38.2812 53.6094
Q42.625 51.2188 45.4062 46.3906
L45.4062 54.6875
L54.3906 54.6875
z
" id="BitstreamVeraSans-Roman-67"/>
     <path d="
M30.6094 48.3906
Q23.3906 48.3906 19.1875 42.75
Q14.9844 37.1094 14.9844 27.2969
Q14.9844 17.4844 19.1562 11.8438
Q23.3438 6.20312 30.6094 6.20312
Q37.7969 6.20312 41.9844 11.8594
Q46.1875 17.5312 46.1875 27.2969
Q46.1875 37.0156 41.9844 42.7031
Q37.7969 48.3906 30.6094 48.3906
M30.6094 56
Q42.3281 56 49.0156 48.375
Q55.7188 40.7656 55.7188 27.2969
Q55.7188 13.875 49.0156 6.21875
Q42.3281 -1.42188 30.6094 -1.42188
Q18.8438 -1.42188 12.1719 6.21875
Q5.51562 13.875 5.51562 27.2969
Q5.51562 40.7656 12.1719 48.375
Q18.8438 56 30.6094 56" id="BitstreamVeraSans-Roman-6f"/>
     <path d="
M48.6875 27.2969
Q48.6875 37.2031 44.6094 42.8438
Q40.5312 48.4844 33.4062 48.4844
Q26.2656 48.4844 22.1875 42.8438
Q18.1094 37.2031 18.1094 27.2969
Q18.1094 17.3906 22.1875 11.75
Q26.2656 6.10938 33.4062 6.10938
Q40.5312 6.10938 44.6094 11.75
Q48.6875 17.3906 48.6875 27.2969
M18.1094 46.3906
Q20.9531 51.2656 25.2656 53.625
Q29.5938 56 35.5938 56
Q45.5625 56 51.7812 48.0938
Q58.0156 40.1875 58.0156 27.2969
Q58.0156 14.4062 51.7812 6.48438
Q45.5625 -1.42188 35.5938 -1.42188
Q29.5938 -1.42188 25.2656 0.953125
Q20.9531 3.32812 18.1094 8.20312
L18.1094 0
L9.07812 0
L9.07812 75.9844
L18.1094 75.9844
z
" id="BitstreamVeraSans-Roman-62"/>
    </defs>
    <g transform="translate(178.121953125 23.76)scale(0.144 -0.144)">
     <use xlink:href="#BitstreamVeraSans-Roman-50"/>
     <use x="58.552734375" xlink:href="#BitstreamVeraSans-Roman-75"/>
     <use x="121.931640625" xlink:href="#BitstreamVeraSans-Roman-6c"/>
     <use x="149.71484375" xlink:href="#BitstreamVeraSans-Roman-73"/>
     <use x="201.814453125" xlink:href="#BitstreamVeraSans-Roman-65"/>
     <use x="263.337890625" xlink:href="#BitstreamVeraSans-Roman-20"/>
     <use x="295.125" xlink:href="#BitstreamVeraSans-Roman-69"/>
     <use x="322.908203125" xlink:href="#BitstreamVeraSans-Roman-6e"/>
     <use x="386.287109375" xlink:href="#BitstreamVeraSans-Roman-20"/>
     <use x="418.07421875" xlink:href="#BitstreamVeraSans-Roman-52"/>
     <use x="483.056640625" xlink:href="#BitstreamVeraSans-Roman-65"/>
     <use x="544.580078125" xlink:href="#BitstreamVeraSans-Roman-67"/>
     <use x="608.056640625" xlink:href="#BitstreamVeraSans-Roman-75"/>
     <use x="671.435546875" xlink:href="#BitstreamVeraSans-Roman-6c"/>
     <use x="699.21875" xlink:href="#BitstreamVeraSans-Roman-61"/>
     <use x="760.498046875" xlink:href="#BitstreamVeraSans-Roman-72"/>
     <use x="801.611328125" xlink:href="#BitstreamVeraSans-Roman-20"/>
     <use x="833.3984375" xlink:href="#BitstreamVeraSans-Roman-54"/>
     <use x="879.732421875" xlink:href="#BitstreamVeraSans-Roman-72"/>
     <use x="920.845703125" xlink:href="#BitstreamVeraSans-Roman-69"/>
     <use x="948.62890625" xlink:href="#BitstreamVeraSans-Roman-61"/>
     <use x="1009.90820312" xlink:href="#BitstreamVeraSans-Roman-6c"/>
     <use x="1037.69140625" xlink:href="#BitstreamVeraSans-Roman-73"/>
     <use x="1089.79101562" xlink:href="#BitstreamVeraSans-Roman-20"/>
     <use x="1121.578125" xlink:href="#BitstreamVeraSans-Roman-62"/>
     <use x="1185.0546875" xlink:href="#BitstreamVeraSans-Roman-65"/>
     <use x="1246.578125" xlink:href="#BitstreamVeraSans-Roman-66"/>
     <use x="1281.78320312" xlink:href="#BitstreamVeraSans-Roman-6f"/>
     <use x="1342.96484375" xlink:href="#BitstreamVeraSans-Roman-72"/>
     <use x="1381.828125" xlink:href="#BitstreamVeraSans-Roman-65"/>
     <use x="1443.3515625" xlink:href="#BitstreamVeraSans-Roman-20"/>
     <use x="1475.13867188" xlink:href="#BitstreamVeraSans-Roman-53"/>
     <use x="1538.61523438" xlink:href="#BitstreamVeraSans-Roman-74"/>
     <use x="1577.82421875" xlink:href="#BitstreamVeraSans-Roman-72"/>
     <use x="1616.6875" xlink:href="#BitstreamVeraSans-Roman-65"/>
     <use x="1678.2109375" xlink:href="#BitstreamVeraSans-Roman-73"/>
     <use x="1730.31054688" xlink:href="#BitstreamVeraSans-Roman-73"/>
    </g>
   </g>
  </g>
  <g id="axes_3">
   <g id="patch_12">
    <path d="
M59.5491 384.84
L552.655 384.84
L552.655 296.387
L59.5491 296.387
z
" style="fill:#ffffff;"/>
   </g>
   <g id="line2d_51">
    <path clip-path="url(#p8486c3cf8b)" d="
M63.6583 369.344
L67.7675 363.65
L71.8767 374.574
L75.9859 363.371
L80.0951 355.953
L84.2044 365.696
L88.3136 358.539
L92.4228 368.554
L96.532 368.715
L100.641 367.721
L104.75 354.584
L108.86 360.15
L112.969 361.734
L117.078 360.301
L121.187 363.397
L125.297 366.738
L129.406 359.181
L133.515 359.181
L137.624 342.332
L141.733 353.565
L145.843 379.144
L149.952 372.702
L154.061 364.643
L158.17 371.053
L162.279 373.033
L166.389 370.296
L170.498 372.85
L174.607 369.578
L178.716 365.456
L182.826 366.737
L186.935 368.002
L191.044 346.682
L195.153 364.221
L199.262 377.501
L203.372 377.066
L207.481 369.21
L211.59 373.624
L215.699 360.235
L219.808 360.362
L223.918 361.483
L228.027 382.646
L232.136 382.006
L236.245 371.787
L240.355 355.015
L244.464 360.038
L248.573 372.565
L252.682 377.958
L256.791 367.975
L260.901 369.037
L265.01 362.991
L269.119 360.383
L273.228 362.802
L277.337 369.375
L281.447 369.337
L285.556 356.711
L289.665 369.276
L293.774 369.798
L297.884 371.408
L301.993 370.53
L306.102 367.075
L310.211 372.726
L314.32 366.473
L318.43 360.297
L322.539 374.76
L326.648 352.561
L330.757 365.222
L334.866 375.886
L338.976 368.206
L343.085 349.465
L347.194 347.596
L351.303 373.428
L355.413 377.896
L359.522 357.949
L363.631 353.888
L367.74 365.384
L371.849 364.484
L375.959 365.845
L380.068 366.812
L384.177 356.184
L388.286 369.178
L392.395 351.836
L396.505 364.64
L400.614 366.768
L404.723 367.24
L408.832 369.271
L412.942 362.918
L417.051 370.821
L421.16 374.771
L425.269 376.444
L429.378 370.149
L433.488 370.691
L437.597 376.567
L441.706 363.858
L445.815 363.167
L449.924 351.688
L454.034 367.533
L458.143 362.018
L462.252 376.921
L466.361 368.463
L470.471 365.554
L474.58 358.216
L478.689 356.24
L482.798 350.102
L486.907 367.339
L491.017 370.9
L495.126 370.94
L499.235 360.556
L503.344 363.386
L507.453 359.384
L511.563 363.565" style="fill:none;stroke:#000000;stroke-linecap:square;"/>
   </g>
   <g id="line2d_52">
    <path clip-path="url(#p8486c3cf8b)" d="
M63.6583 365.752
L67.7675 365.749
L71.8767 365.746
L75.9859 365.743
L80.0951 365.741
L84.2044 365.738
L88.3136 365.735
L92.4228 365.732
L96.532 365.73
L100.641 365.727
L104.75 365.724
L108.86 365.721
L112.969 365.719
L117.078 365.716
L121.187 365.713
L125.297 365.71
L129.406 365.707
L133.515 365.705
L137.624 365.702
L141.733 365.699
L145.843 365.696
L149.952 365.694
L154.061 365.691
L158.17 365.688
L162.279 365.685
L166.389 365.682
L170.498 365.68
L174.607 365.677
L178.716 365.674
L182.826 365.671
L186.935 365.669
L191.044 365.666
L195.153 365.663
L199.262 365.66
L203.372 365.657
L207.481 365.655
L211.59 365.652
L215.699 365.649
L219.808 365.646
L223.918 365.644
L228.027 365.641
L232.136 365.638
L236.245 365.635
L240.355 365.632
L244.464 365.63
L248.573 365.627
L252.682 365.624
L256.791 365.621
L260.901 365.619
L265.01 365.616
L269.119 365.613
L273.228 365.61
L277.337 365.607
L281.447 365.605
L285.556 365.602
L289.665 365.599
L293.774 365.596
L297.884 365.594
L301.993 365.591
L306.102 365.588
L310.211 365.585
L314.32 365.582
L318.43 365.58
L322.539 365.577
L326.648 365.574
L330.757 365.571
L334.866 365.569
L338.976 365.566
L343.085 365.563
L347.194 365.56
L351.303 365.557
L355.413 365.555
L359.522 365.552
L363.631 365.549
L367.74 365.546
L371.849 365.544
L375.959 365.541
L380.068 365.538
L384.177 365.535
L388.286 365.532
L392.395 365.53
L396.505 365.527
L400.614 365.524
L404.723 365.521
L408.832 365.519
L412.942 365.516
L417.051 365.513
L421.16 365.51
L425.269 365.507
L429.378 365.505
L433.488 365.502
L437.597 365.499
L441.706 365.496
L445.815 365.494
L449.924 365.491
L454.034 365.488
L458.143 365.485
L462.252 365.482
L466.361 365.48
L470.471 365.477
L474.58 365.474
L478.689 365.471
L482.798 365.469
L486.907 365.466
L491.017 365.463
L495.126 365.46
L499.235 365.457
L503.344 365.455
L507.453 365.452
L511.563 365.449" style="fill:none;stroke:#000000;stroke-dasharray:6.000000,6.000000;stroke-dashoffset:0.0;"/>
   </g>
   <g id="patch_13">
    <path d="
M59.5491 296.387
L552.655 296.387" style="fill:none;stroke:#000000;stroke-linecap:square;stroke-linejoin:miter;"/>
   </g>
   <g id="patch_14">
    <path d="
M552.655 384.84
L552.655 296.387" style="fill:none;stroke:#000000;stroke-linecap:square;stroke-linejoin:miter;"/>
   </g>
   <g id="patch_15">
    <path d="
M59.5491 384.84
L552.655 384.84" style="fill:none;stroke:#000000;stroke-linecap:square;stroke-linejoin:miter;"/>
   </g>
   <g id="patch_16">
    <path d="
M59.5491 384.84
L59.5491 296.387" style="fill:none;stroke:#000000;stroke-linecap:square;stroke-linejoin:miter;"/>
   </g>
   <g id="matplotlib.axis_5">
    <g id="xtick_14">
     <g id="line2d_53">
      <g>
       <use style="stroke:#000000;stroke-width:0.5;" x="59.5490625" xlink:href="#m93b0483c22" y="384.84"/>
      </g>
     </g>
     <g id="line2d_54">
      <g>
       <use style="stroke:#000000;stroke-width:0.5;" x="59.5490625" xlink:href="#m741efc42ff" y="296.386666667"/>
      </g>
     </g>
     <g id="text_26">
      <!-- 0 -->
      <g transform="translate(56.525625 397.958125)scale(0.12 -0.12)">
       <use xlink:href="#BitstreamVeraSans-Roman-30"/>
      </g>
     </g>
    </g>
    <g id="xtick_15">
     <g id="line2d_55">
      <g>
       <use style="stroke:#000000;stroke-width:0.5;" x="141.733359375" xlink:href="#m93b0483c22" y="384.84"/>
      </g>
     </g>
     <g id="line2d_56">
      <g>
       <use style="stroke:#000000;stroke-width:0.5;" x="141.733359375" xlink:href="#m741efc42ff" y="296.386666667"/>
      </g>
     </g>
     <g id="text_27">
      <!-- 20 -->
      <g transform="translate(134.936484375 397.958125)scale(0.12 -0.12)">
       <use xlink:href="#BitstreamVeraSans-Roman-32"/>
       <use x="63.623046875" xlink:href="#BitstreamVeraSans-Roman-30"/>
      </g>
     </g>
    </g>
    <g id="xtick_16">
     <g id="line2d_57">
      <g>
       <use style="stroke:#000000;stroke-width:0.5;" x="223.91765625" xlink:href="#m93b0483c22" y="384.84"/>
      </g>
     </g>
     <g id="line2d_58">
      <g>
       <use style="stroke:#000000;stroke-width:0.5;" x="223.91765625" xlink:href="#m741efc42ff" y="296.386666667"/>
      </g>
     </g>
     <g id="text_28">
      <!-- 40 -->
      <g transform="translate(216.97453125 397.958125)scale(0.12 -0.12)">
       <use xlink:href="#BitstreamVeraSans-Roman-34"/>
       <use x="63.623046875" xlink:href="#BitstreamVeraSans-Roman-30"/>
      </g>
     </g>
    </g>
    <g id="xtick_17">
     <g id="line2d_59">
      <g>
       <use style="stroke:#000000;stroke-width:0.5;" x="306.101953125" xlink:href="#m93b0483c22" y="384.84"/>
      </g>
     </g>
     <g id="line2d_60">
      <g>
       <use style="stroke:#000000;stroke-width:0.5;" x="306.101953125" xlink:href="#m741efc42ff" y="296.386666667"/>
      </g>
     </g>
     <g id="text_29">
      <!-- 60 -->
      <g transform="translate(299.284453125 397.958125)scale(0.12 -0.12)">
       <use xlink:href="#BitstreamVeraSans-Roman-36"/>
       <use x="63.623046875" xlink:href="#BitstreamVeraSans-Roman-30"/>
      </g>
     </g>
    </g>
    <g id="xtick_18">
     <g id="line2d_61">
      <g>
       <use style="stroke:#000000;stroke-width:0.5;" x="388.28625" xlink:href="#m93b0483c22" y="384.84"/>
      </g>
     </g>
     <g id="line2d_62">
      <g>
       <use style="stroke:#000000;stroke-width:0.5;" x="388.28625" xlink:href="#m741efc42ff" y="296.386666667"/>
      </g>
     </g>
     <g id="text_30">
      <!-- 80 -->
      <g transform="translate(381.4565625 397.958125)scale(0.12 -0.12)">
       <use xlink:href="#BitstreamVeraSans-Roman-38"/>
       <use x="63.623046875" xlink:href="#BitstreamVeraSans-Roman-30"/>
      </g>
     </g>
    </g>
    <g id="xtick_19">
     <g id="line2d_63">
      <g>
       <use style="stroke:#000000;stroke-width:0.5;" x="470.470546875" xlink:href="#m93b0483c22" y="384.84"/>
      </g>
     </g>
     <g id="line2d_64">
      <g>
       <use style="stroke:#000000;stroke-width:0.5;" x="470.470546875" xlink:href="#m741efc42ff" y="296.386666667"/>
      </g>
     </g>
     <g id="text_31">
      <!-- 100 -->
      <g transform="translate(460.075546875 397.958125)scale(0.12 -0.12)">
       <use xlink:href="#BitstreamVeraSans-Roman-31"/>
       <use x="63.623046875" xlink:href="#BitstreamVeraSans-Roman-30"/>
       <use x="127.24609375" xlink:href="#BitstreamVeraSans-Roman-30"/>
      </g>
     </g>
    </g>
    <g id="xtick_20">
     <g id="line2d_65">
      <g>
       <use style="stroke:#000000;stroke-width:0.5;" x="552.65484375" xlink:href="#m93b0483c22" y="384.84"/>
      </g>
     </g>
     <g id="line2d_66">
      <g>
       <use style="stroke:#000000;stroke-width:0.5;" x="552.65484375" xlink:href="#m741efc42ff" y="296.386666667"/>
      </g>
     </g>
     <g id="text_32">
      <!-- 120 -->
      <g transform="translate(542.25984375 397.958125)scale(0.12 -0.12)">
       <use xlink:href="#BitstreamVeraSans-Roman-31"/>
       <use x="63.623046875" xlink:href="#BitstreamVeraSans-Roman-32"/>
       <use x="127.24609375" xlink:href="#BitstreamVeraSans-Roman-30"/>
      </g>
     </g>
    </g>
    <g id="text_33">
     <!-- Trial -->
     <g transform="translate(294.389765625 414.571875)scale(0.12 -0.12)">
      <use xlink:href="#BitstreamVeraSans-Roman-54"/>
      <use x="46.333984375" xlink:href="#BitstreamVeraSans-Roman-72"/>
      <use x="87.447265625" xlink:href="#BitstreamVeraSans-Roman-69"/>
      <use x="115.23046875" xlink:href="#BitstreamVeraSans-Roman-61"/>
      <use x="176.509765625" xlink:href="#BitstreamVeraSans-Roman-6c"/>
     </g>
    </g>
   </g>
   <g id="matplotlib.axis_6">
    <g id="ytick_11">
     <g id="line2d_67">
      <g>
       <use style="stroke:#000000;stroke-width:0.5;" x="59.5490625" xlink:href="#m728421d6d4" y="376.798787879"/>
      </g>
     </g>
     <g id="line2d_68">
      <g>
       <use style="stroke:#000000;stroke-width:0.5;" x="552.65484375" xlink:href="#mcb0005524f" y="376.798787879"/>
      </g>
     </g>
     <g id="text_34">
      <!-- 0.30 -->
      <g transform="translate(30.4184375 380.110037879)scale(0.12 -0.12)">
       <use xlink:href="#BitstreamVeraSans-Roman-30"/>
       <use x="63.623046875" xlink:href="#BitstreamVeraSans-Roman-2e"/>
       <use x="95.41015625" xlink:href="#BitstreamVeraSans-Roman-33"/>
       <use x="159.033203125" xlink:href="#BitstreamVeraSans-Roman-30"/>
      </g>
     </g>
    </g>
    <g id="ytick_12">
     <g id="line2d_69">
      <g>
       <use style="stroke:#000000;stroke-width:0.5;" x="59.5490625" xlink:href="#m728421d6d4" y="356.695757576"/>
      </g>
     </g>
     <g id="line2d_70">
      <g>
       <use style="stroke:#000000;stroke-width:0.5;" x="552.65484375" xlink:href="#mcb0005524f" y="356.695757576"/>
      </g>
     </g>
     <g id="text_35">
      <!-- 0.35 -->
      <g transform="translate(30.6696875 360.007007576)scale(0.12 -0.12)">
       <use xlink:href="#BitstreamVeraSans-Roman-30"/>
       <use x="63.623046875" xlink:href="#BitstreamVeraSans-Roman-2e"/>
       <use x="95.41015625" xlink:href="#BitstreamVeraSans-Roman-33"/>
       <use x="159.033203125" xlink:href="#BitstreamVeraSans-Roman-35"/>
      </g>
     </g>
    </g>
    <g id="ytick_13">
     <g id="line2d_71">
      <g>
       <use style="stroke:#000000;stroke-width:0.5;" x="59.5490625" xlink:href="#m728421d6d4" y="336.592727273"/>
      </g>
     </g>
     <g id="line2d_72">
      <g>
       <use style="stroke:#000000;stroke-width:0.5;" x="552.65484375" xlink:href="#mcb0005524f" y="336.592727273"/>
      </g>
     </g>
     <g id="text_36">
      <!-- 0.40 -->
      <g transform="translate(30.4184375 339.903977273)scale(0.12 -0.12)">
       <use xlink:href="#BitstreamVeraSans-Roman-30"/>
       <use x="63.623046875" xlink:href="#BitstreamVeraSans-Roman-2e"/>
       <use x="95.41015625" xlink:href="#BitstreamVeraSans-Roman-34"/>
       <use x="159.033203125" xlink:href="#BitstreamVeraSans-Roman-30"/>
      </g>
     </g>
    </g>
    <g id="ytick_14">
     <g id="line2d_73">
      <g>
       <use style="stroke:#000000;stroke-width:0.5;" x="59.5490625" xlink:href="#m728421d6d4" y="316.48969697"/>
      </g>
     </g>
     <g id="line2d_74">
      <g>
       <use style="stroke:#000000;stroke-width:0.5;" x="552.65484375" xlink:href="#mcb0005524f" y="316.48969697"/>
      </g>
     </g>
     <g id="text_37">
      <!-- 0.45 -->
      <g transform="translate(30.6696875 319.80094697)scale(0.12 -0.12)">
       <use xlink:href="#BitstreamVeraSans-Roman-30"/>
       <use x="63.623046875" xlink:href="#BitstreamVeraSans-Roman-2e"/>
       <use x="95.41015625" xlink:href="#BitstreamVeraSans-Roman-34"/>
       <use x="159.033203125" xlink:href="#BitstreamVeraSans-Roman-35"/>
      </g>
     </g>
    </g>
    <g id="ytick_15">
     <g id="line2d_75">
      <g>
       <use style="stroke:#000000;stroke-width:0.5;" x="59.5490625" xlink:href="#m728421d6d4" y="296.386666667"/>
      </g>
     </g>
     <g id="line2d_76">
      <g>
       <use style="stroke:#000000;stroke-width:0.5;" x="552.65484375" xlink:href="#mcb0005524f" y="296.386666667"/>
      </g>
     </g>
     <g id="text_38">
      <!-- 0.50 -->
      <g transform="translate(30.4184375 299.697916667)scale(0.12 -0.12)">
       <use xlink:href="#BitstreamVeraSans-Roman-30"/>
       <use x="63.623046875" xlink:href="#BitstreamVeraSans-Roman-2e"/>
       <use x="95.41015625" xlink:href="#BitstreamVeraSans-Roman-35"/>
       <use x="159.033203125" xlink:href="#BitstreamVeraSans-Roman-30"/>
      </g>
     </g>
    </g>
    <g id="text_39">
     <!-- Average IBI -->
     <defs>
      <path d="
M2.98438 54.6875
L12.5 54.6875
L29.5938 8.79688
L46.6875 54.6875
L56.2031 54.6875
L35.6875 0
L23.4844 0
z
" id="BitstreamVeraSans-Roman-76"/>
      <path d="
M9.8125 72.9062
L19.6719 72.9062
L19.6719 0
L9.8125 0
z
" id="BitstreamVeraSans-Roman-49"/>
      <path d="
M34.1875 63.1875
L20.7969 26.9062
L47.6094 26.9062
z

M28.6094 72.9062
L39.7969 72.9062
L67.5781 0
L57.3281 0
L50.6875 18.7031
L17.8281 18.7031
L11.1875 0
L0.78125 0
z
" id="BitstreamVeraSans-Roman-41"/>
      <path d="
M19.6719 34.8125
L19.6719 8.10938
L35.5 8.10938
Q43.4531 8.10938 47.2812 11.4062
Q51.125 14.7031 51.125 21.4844
Q51.125 28.3281 47.2812 31.5625
Q43.4531 34.8125 35.5 34.8125
z

M19.6719 64.7969
L19.6719 42.8281
L34.2812 42.8281
Q41.5 42.8281 45.0312 45.5312
Q48.5781 48.25 48.5781 53.8125
Q48.5781 59.3281 45.0312 62.0625
Q41.5 64.7969 34.2812 64.7969
z

M9.8125 72.9062
L35.0156 72.9062
Q46.2969 72.9062 52.3906 68.2188
Q58.5 63.5312 58.5 54.8906
Q58.5 48.1875 55.375 44.2344
Q52.25 40.2812 46.1875 39.3125
Q53.4688 37.75 57.5 32.7812
Q61.5312 27.8281 61.5312 20.4062
Q61.5312 10.6406 54.8906 5.3125
Q48.25 0 35.9844 0
L9.8125 0
z
" id="BitstreamVeraSans-Roman-42"/>
     </defs>
     <g transform="translate(22.9228125 374.226458333)rotate(-90.0)scale(0.12 -0.12)">
      <use xlink:href="#BitstreamVeraSans-Roman-41"/>
      <use x="62.533203125" xlink:href="#BitstreamVeraSans-Roman-76"/>
      <use x="121.712890625" xlink:href="#BitstreamVeraSans-Roman-65"/>
      <use x="183.236328125" xlink:href="#BitstreamVeraSans-Roman-72"/>
      <use x="224.349609375" xlink:href="#BitstreamVeraSans-Roman-61"/>
      <use x="285.62890625" xlink:href="#BitstreamVeraSans-Roman-67"/>
      <use x="349.10546875" xlink:href="#BitstreamVeraSans-Roman-65"/>
      <use x="410.62890625" xlink:href="#BitstreamVeraSans-Roman-20"/>
      <use x="442.416015625" xlink:href="#BitstreamVeraSans-Roman-49"/>
      <use x="471.908203125" xlink:href="#BitstreamVeraSans-Roman-42"/>
      <use x="540.51171875" xlink:href="#BitstreamVeraSans-Roman-49"/>
     </g>
    </g>
   </g>
   <g id="text_40">
    <!-- Pulse in Regular Trials after Stress -->
    <g transform="translate(184.257703125 291.386666667)scale(0.144 -0.144)">
     <use xlink:href="#BitstreamVeraSans-Roman-50"/>
     <use x="58.552734375" xlink:href="#BitstreamVeraSans-Roman-75"/>
     <use x="121.931640625" xlink:href="#BitstreamVeraSans-Roman-6c"/>
     <use x="149.71484375" xlink:href="#BitstreamVeraSans-Roman-73"/>
     <use x="201.814453125" xlink:href="#BitstreamVeraSans-Roman-65"/>
     <use x="263.337890625" xlink:href="#BitstreamVeraSans-Roman-20"/>
     <use x="295.125" xlink:href="#BitstreamVeraSans-Roman-69"/>
     <use x="322.908203125" xlink:href="#BitstreamVeraSans-Roman-6e"/>
     <use x="386.287109375" xlink:href="#BitstreamVeraSans-Roman-20"/>
     <use x="418.07421875" xlink:href="#BitstreamVeraSans-Roman-52"/>
     <use x="483.056640625" xlink:href="#BitstreamVeraSans-Roman-65"/>
     <use x="544.580078125" xlink:href="#BitstreamVeraSans-Roman-67"/>
     <use x="608.056640625" xlink:href="#BitstreamVeraSans-Roman-75"/>
     <use x="671.435546875" xlink:href="#BitstreamVeraSans-Roman-6c"/>
     <use x="699.21875" xlink:href="#BitstreamVeraSans-Roman-61"/>
     <use x="760.498046875" xlink:href="#BitstreamVeraSans-Roman-72"/>
     <use x="801.611328125" xlink:href="#BitstreamVeraSans-Roman-20"/>
     <use x="833.3984375" xlink:href="#BitstreamVeraSans-Roman-54"/>
     <use x="879.732421875" xlink:href="#BitstreamVeraSans-Roman-72"/>
     <use x="920.845703125" xlink:href="#BitstreamVeraSans-Roman-69"/>
     <use x="948.62890625" xlink:href="#BitstreamVeraSans-Roman-61"/>
     <use x="1009.90820312" xlink:href="#BitstreamVeraSans-Roman-6c"/>
     <use x="1037.69140625" xlink:href="#BitstreamVeraSans-Roman-73"/>
     <use x="1089.79101562" xlink:href="#BitstreamVeraSans-Roman-20"/>
     <use x="1121.578125" xlink:href="#BitstreamVeraSans-Roman-61"/>
     <use x="1182.85742188" xlink:href="#BitstreamVeraSans-Roman-66"/>
     <use x="1216.3125" xlink:href="#BitstreamVeraSans-Roman-74"/>
     <use x="1255.52148438" xlink:href="#BitstreamVeraSans-Roman-65"/>
     <use x="1317.04492188" xlink:href="#BitstreamVeraSans-Roman-72"/>
     <use x="1358.15820312" xlink:href="#BitstreamVeraSans-Roman-20"/>
     <use x="1389.9453125" xlink:href="#BitstreamVeraSans-Roman-53"/>
     <use x="1453.421875" xlink:href="#BitstreamVeraSans-Roman-74"/>
     <use x="1492.63085938" xlink:href="#BitstreamVeraSans-Roman-72"/>
     <use x="1531.49414062" xlink:href="#BitstreamVeraSans-Roman-65"/>
     <use x="1593.01757812" xlink:href="#BitstreamVeraSans-Roman-73"/>
     <use x="1645.1171875" xlink:href="#BitstreamVeraSans-Roman-73"/>
    </g>
   </g>
  </g>
 </g>
 <defs>
  <clipPath id="pc73c664cc7">
   <rect height="88.4533333333" width="493.10578125" x="59.5490625" y="28.76"/>
  </clipPath>
  <clipPath id="p8486c3cf8b">
   <rect height="88.4533333333" width="493.10578125" x="59.5490625" y="296.386666667"/>
  </clipPath>
  <clipPath id="p3d47a1ac95">
   <rect height="88.4533333333" width="493.10578125" x="59.5490625" y="162.573333333"/>
  </clipPath>
 </defs>
</svg>
