<?xml version="1.0" encoding="utf-8" standalone="no"?>
<!DOCTYPE svg PUBLIC "-//W3C//DTD SVG 1.1//EN"
  "http://www.w3.org/Graphics/SVG/1.1/DTD/svg11.dtd">
<!-- Created with matplotlib (http://matplotlib.org/) -->
<svg height="345pt" version="1.1" viewBox="0 0 460 345" width="460pt" xmlns="http://www.w3.org/2000/svg" xmlns:xlink="http://www.w3.org/1999/xlink">
 <defs>
  <style type="text/css">
*{stroke-linecap:butt;stroke-linejoin:round;}
  </style>
 </defs>
 <g id="figure_1">
  <g id="patch_1">
   <path d="M 0 345.6 
L 460.8 345.6 
L 460.8 0 
L 0 0 
z
" style="fill:#ffffff;"/>
  </g>
  <g id="axes_1">
   <g id="patch_2">
    <path d="M 57.6 307.584 
L 219.927273 307.584 
L 219.927273 41.472 
L 57.6 41.472 
z
" style="fill:#ffffff;"/>
   </g>
   <g id="matplotlib.axis_1">
    <g id="xtick_1">
     <g id="line2d_1">
      <defs>
       <path d="M 0 0 
L 0 3.5 
" id="m9309fa2799" style="stroke:#000000;stroke-width:0.8;"/>
      </defs>
      <g>
       <use style="stroke:#000000;stroke-width:0.8;" x="64.978512" xlink:href="#m9309fa2799" y="307.584"/>
      </g>
     </g>
     <g id="text_1">
      <!-- 0.0 -->
      <defs>
       <path d="M 31.78125 66.40625 
Q 24.171875 66.40625 20.328125 58.90625 
Q 16.5 51.421875 16.5 36.375 
Q 16.5 21.390625 20.328125 13.890625 
Q 24.171875 6.390625 31.78125 6.390625 
Q 39.453125 6.390625 43.28125 13.890625 
Q 47.125 21.390625 47.125 36.375 
Q 47.125 51.421875 43.28125 58.90625 
Q 39.453125 66.40625 31.78125 66.40625 
z
M 31.78125 74.21875 
Q 44.046875 74.21875 50.515625 64.515625 
Q 56.984375 54.828125 56.984375 36.375 
Q 56.984375 17.96875 50.515625 8.265625 
Q 44.046875 -1.421875 31.78125 -1.421875 
Q 19.53125 -1.421875 13.0625 8.265625 
Q 6.59375 17.96875 6.59375 36.375 
Q 6.59375 54.828125 13.0625 64.515625 
Q 19.53125 74.21875 31.78125 74.21875 
z
" id="DejaVuSans-30"/>
       <path d="M 10.6875 12.40625 
L 21 12.40625 
L 21 0 
L 10.6875 0 
z
" id="DejaVuSans-2e"/>
      </defs>
      <g transform="translate(57.02695 322.182437)scale(0.1 -0.1)">
       <use xlink:href="#DejaVuSans-30"/>
       <use x="63.623047" xlink:href="#DejaVuSans-2e"/>
       <use x="95.410156" xlink:href="#DejaVuSans-30"/>
      </g>
     </g>
    </g>
    <g id="xtick_2">
     <g id="line2d_2">
      <g>
       <use style="stroke:#000000;stroke-width:0.8;" x="83.122395" xlink:href="#m9309fa2799" y="307.584"/>
      </g>
     </g>
     <g id="text_2">
      <!-- 5.0 -->
      <defs>
       <path d="M 10.796875 72.90625 
L 49.515625 72.90625 
L 49.515625 64.59375 
L 19.828125 64.59375 
L 19.828125 46.734375 
Q 21.96875 47.46875 24.109375 47.828125 
Q 26.265625 48.1875 28.421875 48.1875 
Q 40.625 48.1875 47.75 41.5 
Q 54.890625 34.8125 54.890625 23.390625 
Q 54.890625 11.625 47.5625 5.09375 
Q 40.234375 -1.421875 26.90625 -1.421875 
Q 22.3125 -1.421875 17.546875 -0.640625 
Q 12.796875 0.140625 7.71875 1.703125 
L 7.71875 11.625 
Q 12.109375 9.234375 16.796875 8.0625 
Q 21.484375 6.890625 26.703125 6.890625 
Q 35.15625 6.890625 40.078125 11.328125 
Q 45.015625 15.765625 45.015625 23.390625 
Q 45.015625 31 40.078125 35.4375 
Q 35.15625 39.890625 26.703125 39.890625 
Q 22.75 39.890625 18.8125 39.015625 
Q 14.890625 38.140625 10.796875 36.28125 
z
" id="DejaVuSans-35"/>
      </defs>
      <g transform="translate(75.170833 322.182437)scale(0.1 -0.1)">
       <use xlink:href="#DejaVuSans-35"/>
       <use x="63.623047" xlink:href="#DejaVuSans-2e"/>
       <use x="95.410156" xlink:href="#DejaVuSans-30"/>
      </g>
     </g>
    </g>
    <g id="xtick_3">
     <g id="line2d_3">
      <g>
       <use style="stroke:#000000;stroke-width:0.8;" x="101.266278" xlink:href="#m9309fa2799" y="307.584"/>
      </g>
     </g>
     <g id="text_3">
      <!-- 10.0 -->
      <defs>
       <path d="M 12.40625 8.296875 
L 28.515625 8.296875 
L 28.515625 63.921875 
L 10.984375 60.40625 
L 10.984375 69.390625 
L 28.421875 72.90625 
L 38.28125 72.90625 
L 38.28125 8.296875 
L 54.390625 8.296875 
L 54.390625 0 
L 12.40625 0 
z
" id="DejaVuSans-31"/>
      </defs>
      <g transform="translate(90.133466 322.182437)scale(0.1 -0.1)">
       <use xlink:href="#DejaVuSans-31"/>
       <use x="63.623047" xlink:href="#DejaVuSans-30"/>
       <use x="127.246094" xlink:href="#DejaVuSans-2e"/>
       <use x="159.033203" xlink:href="#DejaVuSans-30"/>
      </g>
     </g>
    </g>
    <g id="xtick_4">
     <g id="line2d_4">
      <g>
       <use style="stroke:#000000;stroke-width:0.8;" x="119.410161" xlink:href="#m9309fa2799" y="307.584"/>
      </g>
     </g>
     <g id="text_4">
      <!-- 15.0 -->
      <g transform="translate(108.277349 322.182437)scale(0.1 -0.1)">
       <use xlink:href="#DejaVuSans-31"/>
       <use x="63.623047" xlink:href="#DejaVuSans-35"/>
       <use x="127.246094" xlink:href="#DejaVuSans-2e"/>
       <use x="159.033203" xlink:href="#DejaVuSans-30"/>
      </g>
     </g>
    </g>
    <g id="xtick_5">
     <g id="line2d_5">
      <g>
       <use style="stroke:#000000;stroke-width:0.8;" x="137.554044" xlink:href="#m9309fa2799" y="307.584"/>
      </g>
     </g>
     <g id="text_5">
      <!-- 20.0 -->
      <defs>
       <path d="M 19.1875 8.296875 
L 53.609375 8.296875 
L 53.609375 0 
L 7.328125 0 
L 7.328125 8.296875 
Q 12.9375 14.109375 22.625 23.890625 
Q 32.328125 33.6875 34.8125 36.53125 
Q 39.546875 41.84375 41.421875 45.53125 
Q 43.3125 49.21875 43.3125 52.78125 
Q 43.3125 58.59375 39.234375 62.25 
Q 35.15625 65.921875 28.609375 65.921875 
Q 23.96875 65.921875 18.8125 64.3125 
Q 13.671875 62.703125 7.8125 59.421875 
L 7.8125 69.390625 
Q 13.765625 71.78125 18.9375 73 
Q 24.125 74.21875 28.421875 74.21875 
Q 39.75 74.21875 46.484375 68.546875 
Q 53.21875 62.890625 53.21875 53.421875 
Q 53.21875 48.921875 51.53125 44.890625 
Q 49.859375 40.875 45.40625 35.40625 
Q 44.1875 33.984375 37.640625 27.21875 
Q 31.109375 20.453125 19.1875 8.296875 
z
" id="DejaVuSans-32"/>
      </defs>
      <g transform="translate(126.421232 322.182437)scale(0.1 -0.1)">
       <use xlink:href="#DejaVuSans-32"/>
       <use x="63.623047" xlink:href="#DejaVuSans-30"/>
       <use x="127.246094" xlink:href="#DejaVuSans-2e"/>
       <use x="159.033203" xlink:href="#DejaVuSans-30"/>
      </g>
     </g>
    </g>
    <g id="xtick_6">
     <g id="line2d_6">
      <g>
       <use style="stroke:#000000;stroke-width:0.8;" x="155.697927" xlink:href="#m9309fa2799" y="307.584"/>
      </g>
     </g>
     <g id="text_6">
      <!-- 25.0 -->
      <g transform="translate(144.565115 322.182437)scale(0.1 -0.1)">
       <use xlink:href="#DejaVuSans-32"/>
       <use x="63.623047" xlink:href="#DejaVuSans-35"/>
       <use x="127.246094" xlink:href="#DejaVuSans-2e"/>
       <use x="159.033203" xlink:href="#DejaVuSans-30"/>
      </g>
     </g>
    </g>
    <g id="xtick_7">
     <g id="line2d_7">
      <g>
       <use style="stroke:#000000;stroke-width:0.8;" x="173.84181" xlink:href="#m9309fa2799" y="307.584"/>
      </g>
     </g>
     <g id="text_7">
      <!-- 30.0 -->
      <defs>
       <path d="M 40.578125 39.3125 
Q 47.65625 37.796875 51.625 33 
Q 55.609375 28.21875 55.609375 21.1875 
Q 55.609375 10.40625 48.1875 4.484375 
Q 40.765625 -1.421875 27.09375 -1.421875 
Q 22.515625 -1.421875 17.65625 -0.515625 
Q 12.796875 0.390625 7.625 2.203125 
L 7.625 11.71875 
Q 11.71875 9.328125 16.59375 8.109375 
Q 21.484375 6.890625 26.8125 6.890625 
Q 36.078125 6.890625 40.9375 10.546875 
Q 45.796875 14.203125 45.796875 21.1875 
Q 45.796875 27.640625 41.28125 31.265625 
Q 36.765625 34.90625 28.71875 34.90625 
L 20.21875 34.90625 
L 20.21875 43.015625 
L 29.109375 43.015625 
Q 36.375 43.015625 40.234375 45.921875 
Q 44.09375 48.828125 44.09375 54.296875 
Q 44.09375 59.90625 40.109375 62.90625 
Q 36.140625 65.921875 28.71875 65.921875 
Q 24.65625 65.921875 20.015625 65.03125 
Q 15.375 64.15625 9.8125 62.3125 
L 9.8125 71.09375 
Q 15.4375 72.65625 20.34375 73.4375 
Q 25.25 74.21875 29.59375 74.21875 
Q 40.828125 74.21875 47.359375 69.109375 
Q 53.90625 64.015625 53.90625 55.328125 
Q 53.90625 49.265625 50.4375 45.09375 
Q 46.96875 40.921875 40.578125 39.3125 
z
" id="DejaVuSans-33"/>
      </defs>
      <g transform="translate(162.708998 322.182437)scale(0.1 -0.1)">
       <use xlink:href="#DejaVuSans-33"/>
       <use x="63.623047" xlink:href="#DejaVuSans-30"/>
       <use x="127.246094" xlink:href="#DejaVuSans-2e"/>
       <use x="159.033203" xlink:href="#DejaVuSans-30"/>
      </g>
     </g>
    </g>
    <g id="xtick_8">
     <g id="line2d_8">
      <g>
       <use style="stroke:#000000;stroke-width:0.8;" x="191.985693" xlink:href="#m9309fa2799" y="307.584"/>
      </g>
     </g>
     <g id="text_8">
      <!-- 35.0 -->
      <g transform="translate(180.85288 322.182437)scale(0.1 -0.1)">
       <use xlink:href="#DejaVuSans-33"/>
       <use x="63.623047" xlink:href="#DejaVuSans-35"/>
       <use x="127.246094" xlink:href="#DejaVuSans-2e"/>
       <use x="159.033203" xlink:href="#DejaVuSans-30"/>
      </g>
     </g>
    </g>
    <g id="xtick_9">
     <g id="line2d_9">
      <g>
       <use style="stroke:#000000;stroke-width:0.8;" x="210.129576" xlink:href="#m9309fa2799" y="307.584"/>
      </g>
     </g>
     <g id="text_9">
      <!-- 40.0 -->
      <defs>
       <path d="M 37.796875 64.3125 
L 12.890625 25.390625 
L 37.796875 25.390625 
z
M 35.203125 72.90625 
L 47.609375 72.90625 
L 47.609375 25.390625 
L 58.015625 25.390625 
L 58.015625 17.1875 
L 47.609375 17.1875 
L 47.609375 0 
L 37.796875 0 
L 37.796875 17.1875 
L 4.890625 17.1875 
L 4.890625 26.703125 
z
" id="DejaVuSans-34"/>
      </defs>
      <g transform="translate(198.996763 322.182437)scale(0.1 -0.1)">
       <use xlink:href="#DejaVuSans-34"/>
       <use x="63.623047" xlink:href="#DejaVuSans-30"/>
       <use x="127.246094" xlink:href="#DejaVuSans-2e"/>
       <use x="159.033203" xlink:href="#DejaVuSans-30"/>
      </g>
     </g>
    </g>
    <g id="text_10">
     <!-- Minutes -->
     <defs>
      <path d="M 9.8125 72.90625 
L 24.515625 72.90625 
L 43.109375 23.296875 
L 61.8125 72.90625 
L 76.515625 72.90625 
L 76.515625 0 
L 66.890625 0 
L 66.890625 64.015625 
L 48.09375 14.015625 
L 38.1875 14.015625 
L 19.390625 64.015625 
L 19.390625 0 
L 9.8125 0 
z
" id="DejaVuSans-4d"/>
      <path d="M 9.421875 54.6875 
L 18.40625 54.6875 
L 18.40625 0 
L 9.421875 0 
z
M 9.421875 75.984375 
L 18.40625 75.984375 
L 18.40625 64.59375 
L 9.421875 64.59375 
z
" id="DejaVuSans-69"/>
      <path d="M 54.890625 33.015625 
L 54.890625 0 
L 45.90625 0 
L 45.90625 32.71875 
Q 45.90625 40.484375 42.875 44.328125 
Q 39.84375 48.1875 33.796875 48.1875 
Q 26.515625 48.1875 22.3125 43.546875 
Q 18.109375 38.921875 18.109375 30.90625 
L 18.109375 0 
L 9.078125 0 
L 9.078125 54.6875 
L 18.109375 54.6875 
L 18.109375 46.1875 
Q 21.34375 51.125 25.703125 53.5625 
Q 30.078125 56 35.796875 56 
Q 45.21875 56 50.046875 50.171875 
Q 54.890625 44.34375 54.890625 33.015625 
z
" id="DejaVuSans-6e"/>
      <path d="M 8.5 21.578125 
L 8.5 54.6875 
L 17.484375 54.6875 
L 17.484375 21.921875 
Q 17.484375 14.15625 20.5 10.265625 
Q 23.53125 6.390625 29.59375 6.390625 
Q 36.859375 6.390625 41.078125 11.03125 
Q 45.3125 15.671875 45.3125 23.6875 
L 45.3125 54.6875 
L 54.296875 54.6875 
L 54.296875 0 
L 45.3125 0 
L 45.3125 8.40625 
Q 42.046875 3.421875 37.71875 1 
Q 33.40625 -1.421875 27.6875 -1.421875 
Q 18.265625 -1.421875 13.375 4.4375 
Q 8.5 10.296875 8.5 21.578125 
z
M 31.109375 56 
z
" id="DejaVuSans-75"/>
      <path d="M 18.3125 70.21875 
L 18.3125 54.6875 
L 36.8125 54.6875 
L 36.8125 47.703125 
L 18.3125 47.703125 
L 18.3125 18.015625 
Q 18.3125 11.328125 20.140625 9.421875 
Q 21.96875 7.515625 27.59375 7.515625 
L 36.8125 7.515625 
L 36.8125 0 
L 27.59375 0 
Q 17.1875 0 13.234375 3.875 
Q 9.28125 7.765625 9.28125 18.015625 
L 9.28125 47.703125 
L 2.6875 47.703125 
L 2.6875 54.6875 
L 9.28125 54.6875 
L 9.28125 70.21875 
z
" id="DejaVuSans-74"/>
      <path d="M 56.203125 29.59375 
L 56.203125 25.203125 
L 14.890625 25.203125 
Q 15.484375 15.921875 20.484375 11.0625 
Q 25.484375 6.203125 34.421875 6.203125 
Q 39.59375 6.203125 44.453125 7.46875 
Q 49.3125 8.734375 54.109375 11.28125 
L 54.109375 2.78125 
Q 49.265625 0.734375 44.1875 -0.34375 
Q 39.109375 -1.421875 33.890625 -1.421875 
Q 20.796875 -1.421875 13.15625 6.1875 
Q 5.515625 13.8125 5.515625 26.8125 
Q 5.515625 40.234375 12.765625 48.109375 
Q 20.015625 56 32.328125 56 
Q 43.359375 56 49.78125 48.890625 
Q 56.203125 41.796875 56.203125 29.59375 
z
M 47.21875 32.234375 
Q 47.125 39.59375 43.09375 43.984375 
Q 39.0625 48.390625 32.421875 48.390625 
Q 24.90625 48.390625 20.390625 44.140625 
Q 15.875 39.890625 15.1875 32.171875 
z
" id="DejaVuSans-65"/>
      <path d="M 44.28125 53.078125 
L 44.28125 44.578125 
Q 40.484375 46.53125 36.375 47.5 
Q 32.28125 48.484375 27.875 48.484375 
Q 21.1875 48.484375 17.84375 46.4375 
Q 14.5 44.390625 14.5 40.28125 
Q 14.5 37.15625 16.890625 35.375 
Q 19.28125 33.59375 26.515625 31.984375 
L 29.59375 31.296875 
Q 39.15625 29.25 43.1875 25.515625 
Q 47.21875 21.78125 47.21875 15.09375 
Q 47.21875 7.46875 41.1875 3.015625 
Q 35.15625 -1.421875 24.609375 -1.421875 
Q 20.21875 -1.421875 15.453125 -0.5625 
Q 10.6875 0.296875 5.421875 2 
L 5.421875 11.28125 
Q 10.40625 8.6875 15.234375 7.390625 
Q 20.0625 6.109375 24.8125 6.109375 
Q 31.15625 6.109375 34.5625 8.28125 
Q 37.984375 10.453125 37.984375 14.40625 
Q 37.984375 18.0625 35.515625 20.015625 
Q 33.0625 21.96875 24.703125 23.78125 
L 21.578125 24.515625 
Q 13.234375 26.265625 9.515625 29.90625 
Q 5.8125 33.546875 5.8125 39.890625 
Q 5.8125 47.609375 11.28125 51.796875 
Q 16.75 56 26.8125 56 
Q 31.78125 56 36.171875 55.265625 
Q 40.578125 54.546875 44.28125 53.078125 
z
" id="DejaVuSans-73"/>
     </defs>
     <g transform="translate(119.081605 335.860562)scale(0.1 -0.1)">
      <use xlink:href="#DejaVuSans-4d"/>
      <use x="86.279297" xlink:href="#DejaVuSans-69"/>
      <use x="114.0625" xlink:href="#DejaVuSans-6e"/>
      <use x="177.441406" xlink:href="#DejaVuSans-75"/>
      <use x="240.820312" xlink:href="#DejaVuSans-74"/>
      <use x="280.029297" xlink:href="#DejaVuSans-65"/>
      <use x="341.552734" xlink:href="#DejaVuSans-73"/>
     </g>
    </g>
   </g>
   <g id="matplotlib.axis_2">
    <g id="ytick_1">
     <g id="line2d_10">
      <defs>
       <path d="M 0 0 
L -3.5 0 
" id="m4490a1f2e2" style="stroke:#000000;stroke-width:0.8;"/>
      </defs>
      <g>
       <use style="stroke:#000000;stroke-width:0.8;" x="57.6" xlink:href="#m4490a1f2e2" y="303.759359"/>
      </g>
     </g>
     <g id="text_11">
      <!-- 0.29 -->
      <defs>
       <path d="M 10.984375 1.515625 
L 10.984375 10.5 
Q 14.703125 8.734375 18.5 7.8125 
Q 22.3125 6.890625 25.984375 6.890625 
Q 35.75 6.890625 40.890625 13.453125 
Q 46.046875 20.015625 46.78125 33.40625 
Q 43.953125 29.203125 39.59375 26.953125 
Q 35.25 24.703125 29.984375 24.703125 
Q 19.046875 24.703125 12.671875 31.3125 
Q 6.296875 37.9375 6.296875 49.421875 
Q 6.296875 60.640625 12.9375 67.421875 
Q 19.578125 74.21875 30.609375 74.21875 
Q 43.265625 74.21875 49.921875 64.515625 
Q 56.59375 54.828125 56.59375 36.375 
Q 56.59375 19.140625 48.40625 8.859375 
Q 40.234375 -1.421875 26.421875 -1.421875 
Q 22.703125 -1.421875 18.890625 -0.6875 
Q 15.09375 0.046875 10.984375 1.515625 
z
M 30.609375 32.421875 
Q 37.25 32.421875 41.125 36.953125 
Q 45.015625 41.5 45.015625 49.421875 
Q 45.015625 57.28125 41.125 61.84375 
Q 37.25 66.40625 30.609375 66.40625 
Q 23.96875 66.40625 20.09375 61.84375 
Q 16.21875 57.28125 16.21875 49.421875 
Q 16.21875 41.5 20.09375 36.953125 
Q 23.96875 32.421875 30.609375 32.421875 
z
" id="DejaVuSans-39"/>
      </defs>
      <g transform="translate(28.334375 307.558577)scale(0.1 -0.1)">
       <use xlink:href="#DejaVuSans-30"/>
       <use x="63.623047" xlink:href="#DejaVuSans-2e"/>
       <use x="95.410156" xlink:href="#DejaVuSans-32"/>
       <use x="159.033203" xlink:href="#DejaVuSans-39"/>
      </g>
     </g>
    </g>
    <g id="ytick_2">
     <g id="line2d_11">
      <g>
       <use style="stroke:#000000;stroke-width:0.8;" x="57.6" xlink:href="#m4490a1f2e2" y="268.283108"/>
      </g>
     </g>
     <g id="text_12">
      <!-- 0.30 -->
      <g transform="translate(28.334375 272.082326)scale(0.1 -0.1)">
       <use xlink:href="#DejaVuSans-30"/>
       <use x="63.623047" xlink:href="#DejaVuSans-2e"/>
       <use x="95.410156" xlink:href="#DejaVuSans-33"/>
       <use x="159.033203" xlink:href="#DejaVuSans-30"/>
      </g>
     </g>
    </g>
    <g id="ytick_3">
     <g id="line2d_12">
      <g>
       <use style="stroke:#000000;stroke-width:0.8;" x="57.6" xlink:href="#m4490a1f2e2" y="232.806857"/>
      </g>
     </g>
     <g id="text_13">
      <!-- 0.31 -->
      <g transform="translate(28.334375 236.606075)scale(0.1 -0.1)">
       <use xlink:href="#DejaVuSans-30"/>
       <use x="63.623047" xlink:href="#DejaVuSans-2e"/>
       <use x="95.410156" xlink:href="#DejaVuSans-33"/>
       <use x="159.033203" xlink:href="#DejaVuSans-31"/>
      </g>
     </g>
    </g>
    <g id="ytick_4">
     <g id="line2d_13">
      <g>
       <use style="stroke:#000000;stroke-width:0.8;" x="57.6" xlink:href="#m4490a1f2e2" y="197.330606"/>
      </g>
     </g>
     <g id="text_14">
      <!-- 0.32 -->
      <g transform="translate(28.334375 201.129824)scale(0.1 -0.1)">
       <use xlink:href="#DejaVuSans-30"/>
       <use x="63.623047" xlink:href="#DejaVuSans-2e"/>
       <use x="95.410156" xlink:href="#DejaVuSans-33"/>
       <use x="159.033203" xlink:href="#DejaVuSans-32"/>
      </g>
     </g>
    </g>
    <g id="ytick_5">
     <g id="line2d_14">
      <g>
       <use style="stroke:#000000;stroke-width:0.8;" x="57.6" xlink:href="#m4490a1f2e2" y="161.854355"/>
      </g>
     </g>
     <g id="text_15">
      <!-- 0.33 -->
      <g transform="translate(28.334375 165.653573)scale(0.1 -0.1)">
       <use xlink:href="#DejaVuSans-30"/>
       <use x="63.623047" xlink:href="#DejaVuSans-2e"/>
       <use x="95.410156" xlink:href="#DejaVuSans-33"/>
       <use x="159.033203" xlink:href="#DejaVuSans-33"/>
      </g>
     </g>
    </g>
    <g id="ytick_6">
     <g id="line2d_15">
      <g>
       <use style="stroke:#000000;stroke-width:0.8;" x="57.6" xlink:href="#m4490a1f2e2" y="126.378104"/>
      </g>
     </g>
     <g id="text_16">
      <!-- 0.34 -->
      <g transform="translate(28.334375 130.177323)scale(0.1 -0.1)">
       <use xlink:href="#DejaVuSans-30"/>
       <use x="63.623047" xlink:href="#DejaVuSans-2e"/>
       <use x="95.410156" xlink:href="#DejaVuSans-33"/>
       <use x="159.033203" xlink:href="#DejaVuSans-34"/>
      </g>
     </g>
    </g>
    <g id="ytick_7">
     <g id="line2d_16">
      <g>
       <use style="stroke:#000000;stroke-width:0.8;" x="57.6" xlink:href="#m4490a1f2e2" y="90.901853"/>
      </g>
     </g>
     <g id="text_17">
      <!-- 0.35 -->
      <g transform="translate(28.334375 94.701072)scale(0.1 -0.1)">
       <use xlink:href="#DejaVuSans-30"/>
       <use x="63.623047" xlink:href="#DejaVuSans-2e"/>
       <use x="95.410156" xlink:href="#DejaVuSans-33"/>
       <use x="159.033203" xlink:href="#DejaVuSans-35"/>
      </g>
     </g>
    </g>
    <g id="ytick_8">
     <g id="line2d_17">
      <g>
       <use style="stroke:#000000;stroke-width:0.8;" x="57.6" xlink:href="#m4490a1f2e2" y="55.425602"/>
      </g>
     </g>
     <g id="text_18">
      <!-- 0.36 -->
      <defs>
       <path d="M 33.015625 40.375 
Q 26.375 40.375 22.484375 35.828125 
Q 18.609375 31.296875 18.609375 23.390625 
Q 18.609375 15.53125 22.484375 10.953125 
Q 26.375 6.390625 33.015625 6.390625 
Q 39.65625 6.390625 43.53125 10.953125 
Q 47.40625 15.53125 47.40625 23.390625 
Q 47.40625 31.296875 43.53125 35.828125 
Q 39.65625 40.375 33.015625 40.375 
z
M 52.59375 71.296875 
L 52.59375 62.3125 
Q 48.875 64.0625 45.09375 64.984375 
Q 41.3125 65.921875 37.59375 65.921875 
Q 27.828125 65.921875 22.671875 59.328125 
Q 17.53125 52.734375 16.796875 39.40625 
Q 19.671875 43.65625 24.015625 45.921875 
Q 28.375 48.1875 33.59375 48.1875 
Q 44.578125 48.1875 50.953125 41.515625 
Q 57.328125 34.859375 57.328125 23.390625 
Q 57.328125 12.15625 50.6875 5.359375 
Q 44.046875 -1.421875 33.015625 -1.421875 
Q 20.359375 -1.421875 13.671875 8.265625 
Q 6.984375 17.96875 6.984375 36.375 
Q 6.984375 53.65625 15.1875 63.9375 
Q 23.390625 74.21875 37.203125 74.21875 
Q 40.921875 74.21875 44.703125 73.484375 
Q 48.484375 72.75 52.59375 71.296875 
z
" id="DejaVuSans-36"/>
      </defs>
      <g transform="translate(28.334375 59.224821)scale(0.1 -0.1)">
       <use xlink:href="#DejaVuSans-30"/>
       <use x="63.623047" xlink:href="#DejaVuSans-2e"/>
       <use x="95.410156" xlink:href="#DejaVuSans-33"/>
       <use x="159.033203" xlink:href="#DejaVuSans-36"/>
      </g>
     </g>
    </g>
   </g>
   <g id="line2d_18">
    <path clip-path="url(#p8b969cd126)" d="M 64.978512 196.357024 
L 65.28091 169.420568 
L 65.583308 153.56094 
L 65.885707 158.769983 
L 66.188105 170.16788 
L 66.490503 134.213855 
L 66.792901 143.098568 
L 67.095299 144.593192 
L 67.397697 59.738117 
L 67.700095 132.553161 
L 68.002493 142.268221 
L 68.304891 129.896051 
L 68.607289 160.951028 
L 68.909687 139.112902 
L 69.212085 152.979697 
L 69.514483 146.918164 
L 69.816881 136.123653 
L 70.119279 132.387092 
L 70.421677 127.072871 
L 70.724075 137.286139 
L 71.026473 122.007754 
L 71.328871 132.553161 
L 71.631269 141.0227 
L 71.933668 120.180991 
L 72.236066 143.181603 
L 72.538464 127.072871 
L 72.840862 149.243136 
L 73.14326 129.896051 
L 73.445658 134.961167 
L 73.748056 124.166656 
L 74.050454 140.441457 
L 74.352852 130.394259 
L 74.65525 132.71923 
L 74.957648 122.838101 
L 75.260046 120.762234 
L 75.562444 105.15171 
L 75.864842 97.563616 
L 76.16724 108.556133 
L 76.469638 115.863186 
L 76.772036 115.780152 
L 77.074434 110.382896 
L 77.376832 137.286139 
L 77.67923 132.470126 
L 77.981629 113.704284 
L 78.284027 132.304057 
L 78.586425 107.227578 
L 78.888823 108.888272 
L 79.191221 109.469515 
L 79.493619 126.740732 
L 79.796017 138.282555 
L 80.098415 129.646947 
L 80.400813 123.004171 
L 80.703211 126.408593 
L 81.005609 114.202492 
L 81.308007 117.025672 
L 81.610405 132.968335 
L 81.912803 121.924719 
L 82.215201 138.946833 
L 82.517599 129.646947 
L 82.819997 144.427123 
L 83.122395 175.43228 
L 83.424793 144.510158 
L 83.727191 147.831546 
L 84.029589 122.339893 
L 84.331988 111.213243 
L 84.634386 132.137988 
L 84.936784 115.697117 
L 85.239182 88.627805 
L 85.54158 130.809432 
L 85.843978 83.792631 
L 86.146376 126.325559 
L 86.448774 140.358423 
L 86.751172 102.743704 
L 87.05357 125.412177 
L 87.355968 101.747288 
L 87.658366 102.660669 
L 87.960764 70.379333 
L 88.263162 122.588997 
L 88.56556 105.522173 
L 88.867958 103.324947 
L 89.170356 94.702113 
L 89.472754 86.385868 
L 89.775152 77.58419 
L 90.07755 110.964139 
L 90.379949 113.372145 
L 90.682347 103.324947 
L 90.984745 101.319339 
L 91.287143 94.938442 
L 91.589541 105.483849 
L 91.891939 100.169628 
L 92.194337 94.108095 
L 92.496735 80.484017 
L 92.799133 104.570467 
L 93.101531 88.627805 
L 93.403929 104.091421 
L 93.706327 109.303445 
L 94.008725 102.4946 
L 94.311123 102.909773 
L 94.613521 101.166045 
L 94.915919 71.362975 
L 95.218317 104.072259 
L 95.520715 99.920524 
L 95.823113 126.159489 
L 96.125511 91.450985 
L 96.427909 82.361879 
L 96.730308 99.090177 
L 97.032706 83.645723 
L 97.335104 130.145155 
L 97.637502 101.664253 
L 97.9399 93.003095 
L 98.242298 83.894827 
L 98.544696 81.735925 
L 98.847094 140.192353 
L 99.149492 84.955116 
L 99.45189 60.632337 
L 99.754288 115.863186 
L 100.056686 103.823155 
L 100.359084 128.318391 
L 100.661482 81.914769 
L 100.96388 105.815988 
L 101.266278 102.4946 
L 101.568676 126.159489 
" style="fill:none;stroke:#0000ff;stroke-linecap:square;stroke-width:1.5;"/>
   </g>
   <g id="line2d_19">
    <path clip-path="url(#p8b969cd126)" d="M 101.871074 250.732297 
L 102.173472 233.556569 
L 102.47587 218.986747 
L 102.778269 217.824262 
L 103.080667 204.571924 
L 103.383065 170.084845 
L 103.685463 177.369756 
L 103.987861 194.729544 
L 104.290259 176.749764 
L 104.592657 183.647179 
L 104.895055 163.857243 
L 105.197453 185.042162 
L 105.499851 158.459987 
L 105.802249 193.799555 
L 106.709443 131.141571 
L 107.011841 148.661893 
L 107.314239 148.578858 
L 107.616637 170.627339 
L 107.919035 161.034063 
L 108.221433 145.921748 
L 108.523831 156.467154 
L 108.82623 145.589609 
L 109.128628 123.585413 
L 109.431026 143.181603 
L 109.733424 134.795098 
L 110.035822 140.192353 
L 110.33822 139.528076 
L 110.640618 146.835129 
L 110.943016 135.044202 
L 111.245414 109.635584 
L 111.547812 153.477905 
L 112.152608 134.878133 
L 112.455006 144.510158 
L 112.757404 74.671588 
L 113.059802 132.470126 
L 113.3622 164.52152 
L 113.664598 111.877521 
L 113.966996 131.971918 
L 114.269394 131.722814 
L 114.571792 135.70848 
L 114.87419 132.71923 
L 115.176589 112.375729 
L 115.478987 141.520909 
L 115.781385 121.924719 
L 116.083783 147.499407 
L 116.386181 127.654114 
L 116.688579 98.924108 
L 116.990977 135.293306 
L 117.293375 116.942638 
L 117.595773 112.790903 
L 117.898171 129.813016 
L 118.200569 123.502379 
L 118.502967 109.967723 
L 118.805365 119.765817 
L 119.107763 121.426511 
L 119.410161 108.971306 
L 119.712559 116.776568 
L 120.014957 92.696505 
L 120.317355 91.783124 
L 120.619753 103.657086 
L 120.922151 121.75865 
L 121.22455 132.553161 
L 121.526948 147.748511 
L 121.829346 136.870965 
L 122.131744 115.863186 
L 122.434142 86.718007 
L 122.73654 122.505962 
L 123.038938 105.400814 
L 123.341336 121.343477 
L 123.643734 89.707256 
L 123.946132 88.531996 
L 124.24853 136.787931 
L 124.550928 102.4946 
L 124.853326 105.234745 
L 125.155724 77.175404 
L 125.458122 105.15171 
L 125.76052 110.964139 
L 126.062918 100.086594 
L 126.667714 124.830934 
L 126.970112 104.001999 
L 127.27251 121.675615 
L 127.574909 83.166677 
L 127.877307 113.206076 
L 128.179705 95.934859 
L 128.482103 144.510158 
L 128.784501 129.480877 
L 129.086899 132.802265 
L 129.994093 103.733733 
L 130.296491 111.047174 
L 130.598889 103.158877 
L 130.901287 87.714423 
L 131.203685 66.355344 
L 131.808481 119.931887 
L 132.110879 101.581218 
L 132.413277 119.848852 
L 132.715675 92.281332 
L 133.018073 126.823767 
L 133.62287 87.548354 
L 133.925268 107.847144 
L 134.227666 89.292083 
L 134.530064 87.465319 
L 134.832462 110.35096 
L 135.13486 103.075843 
L 135.437258 72.436039 
L 135.739656 112.707868 
L 136.344452 53.568 
L 136.64685 118.354227 
L 136.949248 75.744652 
L 137.251646 89.694482 
L 137.554044 83.396619 
L 137.856442 61.079447 
L 138.15884 118.93547 
L 138.461238 112.541798 
L 138.763636 122.090789 
L 139.066034 83.894827 
L 139.368432 88.174308 
L 139.670831 81.81896 
L 139.973229 96.758818 
L 140.578025 60.095805 
L 140.880423 97.927691 
L 141.182821 93.526852 
L 141.485219 131.888883 
L 141.787617 110.964139 
L 142.090015 97.927691 
L 142.392413 89.790291 
L 142.694811 122.090789 
L 142.997209 124.166656 
L 143.299607 113.040007 
L 143.602005 69.932223 
L 143.904403 93.277748 
L 144.206801 91.393499 
L 144.509199 113.372145 
L 144.811597 114.617666 
L 145.113995 148.08065 
L 145.416393 97.595553 
L 145.718791 196.977016 
L 146.02119 175.316031 
L 146.625986 155.968946 
L 146.928384 166.597388 
L 147.53318 122.921136 
L 147.835578 134.878133 
L 148.137976 136.040618 
L 148.742772 110.715035 
L 149.04517 149.32617 
L 149.347568 144.593192 
L 149.649966 153.062732 
L 149.952364 140.939666 
L 150.254762 168.922359 
L 150.55716 142.683394 
L 150.859558 155.968946 
L 151.161956 132.636196 
L 151.464354 164.770624 
L 151.766752 182.872189 
L 152.069151 162.196549 
L 152.371549 132.470126 
L 152.673947 133.217439 
L 152.976345 147.416372 
L 153.278743 147.499407 
L 153.581141 144.261054 
L 153.883539 172.243747 
L 154.185937 131.556745 
L 154.488335 262.357155 
L 154.790733 295.488 
L 155.093131 214.104307 
L 155.697927 179.617229 
L 156.000325 140.773596 
L 156.605121 170.007346 
L 156.907519 173.655337 
L 157.209917 179.074735 
L 157.512315 106.397231 
L 158.117112 211.934334 
L 158.41951 199.611984 
L 158.721908 174.967285 
L 159.024306 160.164966 
L 159.326704 161.615306 
L 159.629102 137.950416 
L 159.9315 136.954 
L 160.536296 174.424792 
L 160.838694 157.878744 
L 161.141092 190.622094 
L 161.44349 167.604875 
L 161.745888 171.745539 
L 162.048286 160.120681 
L 162.350684 163.807422 
L 162.653082 139.362006 
L 162.95548 163.419927 
L 163.560276 92.77954 
L 164.165072 166.016145 
L 164.467471 178.067248 
L 164.769869 155.636807 
L 165.072267 142.932498 
L 165.374665 141.936082 
L 165.677063 168.673255 
L 166.281859 149.077066 
L 166.584257 158.376953 
L 166.886655 121.841685 
L 167.189053 126.325559 
L 167.491451 108.888272 
L 167.793849 148.412789 
L 168.096247 144.344088 
L 168.398645 134.795098 
L 168.701043 130.477294 
L 169.003441 134.047786 
L 169.305839 130.560328 
L 169.608237 147.084233 
L 169.910635 121.260442 
L 170.213033 151.402038 
L 170.515432 147.416372 
L 170.81783 128.8166 
L 171.120228 134.712063 
L 171.422626 150.986864 
L 171.725024 177.524754 
L 172.027422 146.336921 
L 172.32982 150.986864 
L 172.632218 164.023312 
L 173.237014 102.826739 
L 173.539412 136.870965 
L 173.84181 149.243136 
L 174.144208 105.566884 
L 174.446606 142.351256 
L 174.749004 160.784959 
L 175.051402 145.506574 
L 175.3538 147.250303 
L 175.656198 145.921748 
L 175.958596 151.485072 
L 176.260994 126.491628 
L 176.563392 131.639779 
L 176.865791 142.185186 
L 177.168189 138.697729 
L 177.772985 203.564436 
L 178.075383 161.532271 
L 178.377781 166.907384 
L 178.680179 202.40195 
L 178.982577 190.699593 
L 179.284975 164.853659 
L 179.587373 114.783735 
L 179.889771 125.412177 
L 180.494567 118.105123 
L 180.796965 141.853047 
L 181.099363 139.61111 
L 181.401761 158.210883 
L 181.704159 154.723426 
L 182.006557 107.97489 
L 182.308955 143.928915 
L 182.611353 122.755066 
L 182.913752 127.155906 
L 183.21615 135.625445 
L 183.518548 115.780152 
L 183.820946 136.455792 
L 184.123344 136.621861 
L 184.425742 123.585413 
L 184.72814 136.538827 
L 185.030538 136.372757 
L 185.332936 115.946221 
L 185.635334 144.842297 
L 185.937732 143.264637 
L 186.24013 128.65053 
L 186.542528 148.329754 
L 187.147324 112.126625 
L 187.449722 108.971306 
L 187.75212 137.950416 
L 188.054518 118.769401 
L 188.356916 143.264637 
L 188.659314 142.683394 
L 188.961713 138.282555 
L 189.264111 142.683394 
L 189.566509 131.971918 
L 189.868907 171.4134 
L 190.171305 159.124265 
L 190.473703 128.152322 
L 191.078499 106.480265 
L 191.380897 111.296278 
L 191.683295 123.834518 
L 191.985693 120.51313 
L 192.288091 132.636196 
L 192.590489 115.198909 
L 192.892887 145.423539 
L 193.195285 137.618278 
L 193.497683 145.008366 
L 193.800081 138.614694 
L 194.102479 146.087817 
L 194.404877 141.271804 
L 194.707275 130.145155 
L 195.009673 154.225218 
L 195.312072 120.264026 
L 195.61447 134.712063 
L 195.916868 141.936082 
L 196.219266 114.119458 
L 196.521664 109.884688 
L 197.12646 165.357403 
L 197.428858 134.545994 
L 197.731256 136.455792 
L 198.033654 124.664865 
L 198.336052 95.270581 
L 198.63845 96.931275 
L 198.940848 107.042346 
L 199.545644 117.856019 
L 199.848042 111.462347 
L 200.15044 95.685754 
L 200.452838 118.852436 
L 200.755236 103.823155 
L 201.057634 119.10154 
L 201.360033 81.378237 
L 201.662431 126.823767 
L 201.964829 130.892467 
L 202.267227 112.04359 
L 202.872023 142.019117 
L 203.174421 132.553161 
L 203.476819 79.947485 
L 203.779217 135.874549 
L 204.081615 131.805849 
L 204.384013 137.369174 
L 204.686411 128.401426 
L 204.988809 113.45518 
L 205.291207 122.505962 
L 205.593605 120.762234 
L 205.896003 112.292694 
L 206.198401 86.385868 
L 206.500799 144.593192 
L 206.803197 121.343477 
L 207.105595 129.896051 
L 207.407993 143.762845 
L 207.710392 141.437874 
L 208.01279 148.08065 
L 208.315188 181.089711 
L 208.919984 140.939666 
L 209.222382 184.732166 
L 209.52478 178.886523 
L 209.827178 145.838713 
L 210.129576 136.787931 
L 210.431974 148.329754 
L 210.734372 127.321975 
L 211.03677 150.73776 
L 211.339168 185.778403 
L 211.943964 150.571691 
L 212.246362 171.32483 
L 212.54876 168.922359 
L 212.54876 168.922359 
" style="fill:none;stroke:#ff0000;stroke-linecap:square;stroke-width:1.5;"/>
   </g>
   <g id="patch_3">
    <path d="M 57.6 307.584 
L 57.6 41.472 
" style="fill:none;stroke:#000000;stroke-linecap:square;stroke-linejoin:miter;stroke-width:0.8;"/>
   </g>
   <g id="patch_4">
    <path d="M 219.927273 307.584 
L 219.927273 41.472 
" style="fill:none;stroke:#000000;stroke-linecap:square;stroke-linejoin:miter;stroke-width:0.8;"/>
   </g>
   <g id="patch_5">
    <path d="M 57.6 307.584 
L 219.927273 307.584 
" style="fill:none;stroke:#000000;stroke-linecap:square;stroke-linejoin:miter;stroke-width:0.8;"/>
   </g>
   <g id="patch_6">
    <path d="M 57.6 41.472 
L 219.927273 41.472 
" style="fill:none;stroke:#000000;stroke-linecap:square;stroke-linejoin:miter;stroke-width:0.8;"/>
   </g>
   <g id="text_19">
    <!-- IBI - Reg vs Stress -->
    <defs>
     <path d="M 9.8125 72.90625 
L 19.671875 72.90625 
L 19.671875 0 
L 9.8125 0 
z
" id="DejaVuSans-49"/>
     <path d="M 19.671875 34.8125 
L 19.671875 8.109375 
L 35.5 8.109375 
Q 43.453125 8.109375 47.28125 11.40625 
Q 51.125 14.703125 51.125 21.484375 
Q 51.125 28.328125 47.28125 31.5625 
Q 43.453125 34.8125 35.5 34.8125 
z
M 19.671875 64.796875 
L 19.671875 42.828125 
L 34.28125 42.828125 
Q 41.5 42.828125 45.03125 45.53125 
Q 48.578125 48.25 48.578125 53.8125 
Q 48.578125 59.328125 45.03125 62.0625 
Q 41.5 64.796875 34.28125 64.796875 
z
M 9.8125 72.90625 
L 35.015625 72.90625 
Q 46.296875 72.90625 52.390625 68.21875 
Q 58.5 63.53125 58.5 54.890625 
Q 58.5 48.1875 55.375 44.234375 
Q 52.25 40.28125 46.1875 39.3125 
Q 53.46875 37.75 57.5 32.78125 
Q 61.53125 27.828125 61.53125 20.40625 
Q 61.53125 10.640625 54.890625 5.3125 
Q 48.25 0 35.984375 0 
L 9.8125 0 
z
" id="DejaVuSans-42"/>
     <path id="DejaVuSans-20"/>
     <path d="M 4.890625 31.390625 
L 31.203125 31.390625 
L 31.203125 23.390625 
L 4.890625 23.390625 
z
" id="DejaVuSans-2d"/>
     <path d="M 44.390625 34.1875 
Q 47.5625 33.109375 50.5625 29.59375 
Q 53.5625 26.078125 56.59375 19.921875 
L 66.609375 0 
L 56 0 
L 46.6875 18.703125 
Q 43.0625 26.03125 39.671875 28.421875 
Q 36.28125 30.8125 30.421875 30.8125 
L 19.671875 30.8125 
L 19.671875 0 
L 9.8125 0 
L 9.8125 72.90625 
L 32.078125 72.90625 
Q 44.578125 72.90625 50.734375 67.671875 
Q 56.890625 62.453125 56.890625 51.90625 
Q 56.890625 45.015625 53.6875 40.46875 
Q 50.484375 35.9375 44.390625 34.1875 
z
M 19.671875 64.796875 
L 19.671875 38.921875 
L 32.078125 38.921875 
Q 39.203125 38.921875 42.84375 42.21875 
Q 46.484375 45.515625 46.484375 51.90625 
Q 46.484375 58.296875 42.84375 61.546875 
Q 39.203125 64.796875 32.078125 64.796875 
z
" id="DejaVuSans-52"/>
     <path d="M 45.40625 27.984375 
Q 45.40625 37.75 41.375 43.109375 
Q 37.359375 48.484375 30.078125 48.484375 
Q 22.859375 48.484375 18.828125 43.109375 
Q 14.796875 37.75 14.796875 27.984375 
Q 14.796875 18.265625 18.828125 12.890625 
Q 22.859375 7.515625 30.078125 7.515625 
Q 37.359375 7.515625 41.375 12.890625 
Q 45.40625 18.265625 45.40625 27.984375 
z
M 54.390625 6.78125 
Q 54.390625 -7.171875 48.1875 -13.984375 
Q 42 -20.796875 29.203125 -20.796875 
Q 24.46875 -20.796875 20.265625 -20.09375 
Q 16.0625 -19.390625 12.109375 -17.921875 
L 12.109375 -9.1875 
Q 16.0625 -11.328125 19.921875 -12.34375 
Q 23.78125 -13.375 27.78125 -13.375 
Q 36.625 -13.375 41.015625 -8.765625 
Q 45.40625 -4.15625 45.40625 5.171875 
L 45.40625 9.625 
Q 42.625 4.78125 38.28125 2.390625 
Q 33.9375 0 27.875 0 
Q 17.828125 0 11.671875 7.65625 
Q 5.515625 15.328125 5.515625 27.984375 
Q 5.515625 40.671875 11.671875 48.328125 
Q 17.828125 56 27.875 56 
Q 33.9375 56 38.28125 53.609375 
Q 42.625 51.21875 45.40625 46.390625 
L 45.40625 54.6875 
L 54.390625 54.6875 
z
" id="DejaVuSans-67"/>
     <path d="M 2.984375 54.6875 
L 12.5 54.6875 
L 29.59375 8.796875 
L 46.6875 54.6875 
L 56.203125 54.6875 
L 35.6875 0 
L 23.484375 0 
z
" id="DejaVuSans-76"/>
     <path d="M 53.515625 70.515625 
L 53.515625 60.890625 
Q 47.90625 63.578125 42.921875 64.890625 
Q 37.9375 66.21875 33.296875 66.21875 
Q 25.25 66.21875 20.875 63.09375 
Q 16.5 59.96875 16.5 54.203125 
Q 16.5 49.359375 19.40625 46.890625 
Q 22.3125 44.4375 30.421875 42.921875 
L 36.375 41.703125 
Q 47.40625 39.59375 52.65625 34.296875 
Q 57.90625 29 57.90625 20.125 
Q 57.90625 9.515625 50.796875 4.046875 
Q 43.703125 -1.421875 29.984375 -1.421875 
Q 24.8125 -1.421875 18.96875 -0.25 
Q 13.140625 0.921875 6.890625 3.21875 
L 6.890625 13.375 
Q 12.890625 10.015625 18.65625 8.296875 
Q 24.421875 6.59375 29.984375 6.59375 
Q 38.421875 6.59375 43.015625 9.90625 
Q 47.609375 13.234375 47.609375 19.390625 
Q 47.609375 24.75 44.3125 27.78125 
Q 41.015625 30.8125 33.5 32.328125 
L 27.484375 33.5 
Q 16.453125 35.6875 11.515625 40.375 
Q 6.59375 45.0625 6.59375 53.421875 
Q 6.59375 63.09375 13.40625 68.65625 
Q 20.21875 74.21875 32.171875 74.21875 
Q 37.3125 74.21875 42.625 73.28125 
Q 47.953125 72.359375 53.515625 70.515625 
z
" id="DejaVuSans-53"/>
     <path d="M 41.109375 46.296875 
Q 39.59375 47.171875 37.8125 47.578125 
Q 36.03125 48 33.890625 48 
Q 26.265625 48 22.1875 43.046875 
Q 18.109375 38.09375 18.109375 28.8125 
L 18.109375 0 
L 9.078125 0 
L 9.078125 54.6875 
L 18.109375 54.6875 
L 18.109375 46.1875 
Q 20.953125 51.171875 25.484375 53.578125 
Q 30.03125 56 36.53125 56 
Q 37.453125 56 38.578125 55.875 
Q 39.703125 55.765625 41.0625 55.515625 
z
" id="DejaVuSans-72"/>
    </defs>
    <g transform="translate(84.402699 35.472)scale(0.12 -0.12)">
     <use xlink:href="#DejaVuSans-49"/>
     <use x="29.492188" xlink:href="#DejaVuSans-42"/>
     <use x="98.095703" xlink:href="#DejaVuSans-49"/>
     <use x="127.587891" xlink:href="#DejaVuSans-20"/>
     <use x="159.375" xlink:href="#DejaVuSans-2d"/>
     <use x="195.458984" xlink:href="#DejaVuSans-20"/>
     <use x="227.246094" xlink:href="#DejaVuSans-52"/>
     <use x="296.666016" xlink:href="#DejaVuSans-65"/>
     <use x="358.189453" xlink:href="#DejaVuSans-67"/>
     <use x="421.666016" xlink:href="#DejaVuSans-20"/>
     <use x="453.453125" xlink:href="#DejaVuSans-76"/>
     <use x="512.632812" xlink:href="#DejaVuSans-73"/>
     <use x="564.732422" xlink:href="#DejaVuSans-20"/>
     <use x="596.519531" xlink:href="#DejaVuSans-53"/>
     <use x="659.996094" xlink:href="#DejaVuSans-74"/>
     <use x="699.205078" xlink:href="#DejaVuSans-72"/>
     <use x="740.287109" xlink:href="#DejaVuSans-65"/>
     <use x="801.810547" xlink:href="#DejaVuSans-73"/>
     <use x="853.910156" xlink:href="#DejaVuSans-73"/>
    </g>
   </g>
   <g id="legend_1">
    <g id="patch_7">
     <path d="M 149.978835 78.82825 
L 212.927273 78.82825 
Q 214.927273 78.82825 214.927273 76.82825 
L 214.927273 48.472 
Q 214.927273 46.472 212.927273 46.472 
L 149.978835 46.472 
Q 147.978835 46.472 147.978835 48.472 
L 147.978835 76.82825 
Q 147.978835 78.82825 149.978835 78.82825 
z
" style="fill:#ffffff;opacity:0.8;stroke:#cccccc;stroke-linejoin:miter;"/>
    </g>
    <g id="line2d_20">
     <path d="M 151.978835 54.570437 
L 171.978835 54.570437 
" style="fill:none;stroke:#0000ff;stroke-linecap:square;stroke-width:1.5;"/>
    </g>
    <g id="line2d_21"/>
    <g id="text_20">
     <!-- Reg -->
     <g transform="translate(179.978835 58.070437)scale(0.1 -0.1)">
      <use xlink:href="#DejaVuSans-52"/>
      <use x="69.419922" xlink:href="#DejaVuSans-65"/>
      <use x="130.943359" xlink:href="#DejaVuSans-67"/>
     </g>
    </g>
    <g id="line2d_22">
     <path d="M 151.978835 69.248562 
L 171.978835 69.248562 
" style="fill:none;stroke:#ff0000;stroke-linecap:square;stroke-width:1.5;"/>
    </g>
    <g id="line2d_23"/>
    <g id="text_21">
     <!-- Stress -->
     <g transform="translate(179.978835 72.748562)scale(0.1 -0.1)">
      <use xlink:href="#DejaVuSans-53"/>
      <use x="63.476562" xlink:href="#DejaVuSans-74"/>
      <use x="102.685547" xlink:href="#DejaVuSans-72"/>
      <use x="143.767578" xlink:href="#DejaVuSans-65"/>
      <use x="205.291016" xlink:href="#DejaVuSans-73"/>
      <use x="257.390625" xlink:href="#DejaVuSans-73"/>
     </g>
    </g>
   </g>
  </g>
  <g id="axes_2">
   <g id="patch_8">
    <path d="M 252.392727 307.584 
L 414.72 307.584 
L 414.72 41.472 
L 252.392727 41.472 
z
" style="fill:#ffffff;"/>
   </g>
   <g id="matplotlib.axis_3">
    <g id="xtick_10">
     <g id="line2d_24">
      <g>
       <use style="stroke:#000000;stroke-width:0.8;" x="259.77124" xlink:href="#m9309fa2799" y="307.584"/>
      </g>
     </g>
     <g id="text_22">
      <!-- 0.0 -->
      <g transform="translate(251.819677 322.182437)scale(0.1 -0.1)">
       <use xlink:href="#DejaVuSans-30"/>
       <use x="63.623047" xlink:href="#DejaVuSans-2e"/>
       <use x="95.410156" xlink:href="#DejaVuSans-30"/>
      </g>
     </g>
    </g>
    <g id="xtick_11">
     <g id="line2d_25">
      <g>
       <use style="stroke:#000000;stroke-width:0.8;" x="277.915123" xlink:href="#m9309fa2799" y="307.584"/>
      </g>
     </g>
     <g id="text_23">
      <!-- 5.0 -->
      <g transform="translate(269.96356 322.182437)scale(0.1 -0.1)">
       <use xlink:href="#DejaVuSans-35"/>
       <use x="63.623047" xlink:href="#DejaVuSans-2e"/>
       <use x="95.410156" xlink:href="#DejaVuSans-30"/>
      </g>
     </g>
    </g>
    <g id="xtick_12">
     <g id="line2d_26">
      <g>
       <use style="stroke:#000000;stroke-width:0.8;" x="296.059006" xlink:href="#m9309fa2799" y="307.584"/>
      </g>
     </g>
     <g id="text_24">
      <!-- 10.0 -->
      <g transform="translate(284.926193 322.182437)scale(0.1 -0.1)">
       <use xlink:href="#DejaVuSans-31"/>
       <use x="63.623047" xlink:href="#DejaVuSans-30"/>
       <use x="127.246094" xlink:href="#DejaVuSans-2e"/>
       <use x="159.033203" xlink:href="#DejaVuSans-30"/>
      </g>
     </g>
    </g>
    <g id="xtick_13">
     <g id="line2d_27">
      <g>
       <use style="stroke:#000000;stroke-width:0.8;" x="314.202888" xlink:href="#m9309fa2799" y="307.584"/>
      </g>
     </g>
     <g id="text_25">
      <!-- 15.0 -->
      <g transform="translate(303.070076 322.182437)scale(0.1 -0.1)">
       <use xlink:href="#DejaVuSans-31"/>
       <use x="63.623047" xlink:href="#DejaVuSans-35"/>
       <use x="127.246094" xlink:href="#DejaVuSans-2e"/>
       <use x="159.033203" xlink:href="#DejaVuSans-30"/>
      </g>
     </g>
    </g>
    <g id="xtick_14">
     <g id="line2d_28">
      <g>
       <use style="stroke:#000000;stroke-width:0.8;" x="332.346771" xlink:href="#m9309fa2799" y="307.584"/>
      </g>
     </g>
     <g id="text_26">
      <!-- 20.0 -->
      <g transform="translate(321.213959 322.182437)scale(0.1 -0.1)">
       <use xlink:href="#DejaVuSans-32"/>
       <use x="63.623047" xlink:href="#DejaVuSans-30"/>
       <use x="127.246094" xlink:href="#DejaVuSans-2e"/>
       <use x="159.033203" xlink:href="#DejaVuSans-30"/>
      </g>
     </g>
    </g>
    <g id="xtick_15">
     <g id="line2d_29">
      <g>
       <use style="stroke:#000000;stroke-width:0.8;" x="350.490654" xlink:href="#m9309fa2799" y="307.584"/>
      </g>
     </g>
     <g id="text_27">
      <!-- 25.0 -->
      <g transform="translate(339.357842 322.182437)scale(0.1 -0.1)">
       <use xlink:href="#DejaVuSans-32"/>
       <use x="63.623047" xlink:href="#DejaVuSans-35"/>
       <use x="127.246094" xlink:href="#DejaVuSans-2e"/>
       <use x="159.033203" xlink:href="#DejaVuSans-30"/>
      </g>
     </g>
    </g>
    <g id="xtick_16">
     <g id="line2d_30">
      <g>
       <use style="stroke:#000000;stroke-width:0.8;" x="368.634537" xlink:href="#m9309fa2799" y="307.584"/>
      </g>
     </g>
     <g id="text_28">
      <!-- 30.0 -->
      <g transform="translate(357.501725 322.182437)scale(0.1 -0.1)">
       <use xlink:href="#DejaVuSans-33"/>
       <use x="63.623047" xlink:href="#DejaVuSans-30"/>
       <use x="127.246094" xlink:href="#DejaVuSans-2e"/>
       <use x="159.033203" xlink:href="#DejaVuSans-30"/>
      </g>
     </g>
    </g>
    <g id="xtick_17">
     <g id="line2d_31">
      <g>
       <use style="stroke:#000000;stroke-width:0.8;" x="386.77842" xlink:href="#m9309fa2799" y="307.584"/>
      </g>
     </g>
     <g id="text_29">
      <!-- 35.0 -->
      <g transform="translate(375.645608 322.182437)scale(0.1 -0.1)">
       <use xlink:href="#DejaVuSans-33"/>
       <use x="63.623047" xlink:href="#DejaVuSans-35"/>
       <use x="127.246094" xlink:href="#DejaVuSans-2e"/>
       <use x="159.033203" xlink:href="#DejaVuSans-30"/>
      </g>
     </g>
    </g>
    <g id="xtick_18">
     <g id="line2d_32">
      <g>
       <use style="stroke:#000000;stroke-width:0.8;" x="404.922303" xlink:href="#m9309fa2799" y="307.584"/>
      </g>
     </g>
     <g id="text_30">
      <!-- 40.0 -->
      <g transform="translate(393.789491 322.182437)scale(0.1 -0.1)">
       <use xlink:href="#DejaVuSans-34"/>
       <use x="63.623047" xlink:href="#DejaVuSans-30"/>
       <use x="127.246094" xlink:href="#DejaVuSans-2e"/>
       <use x="159.033203" xlink:href="#DejaVuSans-30"/>
      </g>
     </g>
    </g>
    <g id="text_31">
     <!-- Minutes -->
     <g transform="translate(313.874332 335.860562)scale(0.1 -0.1)">
      <use xlink:href="#DejaVuSans-4d"/>
      <use x="86.279297" xlink:href="#DejaVuSans-69"/>
      <use x="114.0625" xlink:href="#DejaVuSans-6e"/>
      <use x="177.441406" xlink:href="#DejaVuSans-75"/>
      <use x="240.820312" xlink:href="#DejaVuSans-74"/>
      <use x="280.029297" xlink:href="#DejaVuSans-65"/>
      <use x="341.552734" xlink:href="#DejaVuSans-73"/>
     </g>
    </g>
   </g>
   <g id="matplotlib.axis_4">
    <g id="ytick_9">
     <g id="line2d_33">
      <g>
       <use style="stroke:#000000;stroke-width:0.8;" x="252.392727" xlink:href="#m4490a1f2e2" y="307.584"/>
      </g>
     </g>
     <g id="text_32">
      <!-- 1.00 -->
      <g transform="translate(223.127102 311.383219)scale(0.1 -0.1)">
       <use xlink:href="#DejaVuSans-31"/>
       <use x="63.623047" xlink:href="#DejaVuSans-2e"/>
       <use x="95.410156" xlink:href="#DejaVuSans-30"/>
       <use x="159.033203" xlink:href="#DejaVuSans-30"/>
      </g>
     </g>
    </g>
    <g id="ytick_10">
     <g id="line2d_34">
      <g>
       <use style="stroke:#000000;stroke-width:0.8;" x="252.392727" xlink:href="#m4490a1f2e2" y="274.32"/>
      </g>
     </g>
     <g id="text_33">
      <!-- 1.25 -->
      <g transform="translate(223.127102 278.119219)scale(0.1 -0.1)">
       <use xlink:href="#DejaVuSans-31"/>
       <use x="63.623047" xlink:href="#DejaVuSans-2e"/>
       <use x="95.410156" xlink:href="#DejaVuSans-32"/>
       <use x="159.033203" xlink:href="#DejaVuSans-35"/>
      </g>
     </g>
    </g>
    <g id="ytick_11">
     <g id="line2d_35">
      <g>
       <use style="stroke:#000000;stroke-width:0.8;" x="252.392727" xlink:href="#m4490a1f2e2" y="241.056"/>
      </g>
     </g>
     <g id="text_34">
      <!-- 1.50 -->
      <g transform="translate(223.127102 244.855219)scale(0.1 -0.1)">
       <use xlink:href="#DejaVuSans-31"/>
       <use x="63.623047" xlink:href="#DejaVuSans-2e"/>
       <use x="95.410156" xlink:href="#DejaVuSans-35"/>
       <use x="159.033203" xlink:href="#DejaVuSans-30"/>
      </g>
     </g>
    </g>
    <g id="ytick_12">
     <g id="line2d_36">
      <g>
       <use style="stroke:#000000;stroke-width:0.8;" x="252.392727" xlink:href="#m4490a1f2e2" y="207.792"/>
      </g>
     </g>
     <g id="text_35">
      <!-- 1.75 -->
      <defs>
       <path d="M 8.203125 72.90625 
L 55.078125 72.90625 
L 55.078125 68.703125 
L 28.609375 0 
L 18.3125 0 
L 43.21875 64.59375 
L 8.203125 64.59375 
z
" id="DejaVuSans-37"/>
      </defs>
      <g transform="translate(223.127102 211.591219)scale(0.1 -0.1)">
       <use xlink:href="#DejaVuSans-31"/>
       <use x="63.623047" xlink:href="#DejaVuSans-2e"/>
       <use x="95.410156" xlink:href="#DejaVuSans-37"/>
       <use x="159.033203" xlink:href="#DejaVuSans-35"/>
      </g>
     </g>
    </g>
    <g id="ytick_13">
     <g id="line2d_37">
      <g>
       <use style="stroke:#000000;stroke-width:0.8;" x="252.392727" xlink:href="#m4490a1f2e2" y="174.528"/>
      </g>
     </g>
     <g id="text_36">
      <!-- 2.00 -->
      <g transform="translate(223.127102 178.327219)scale(0.1 -0.1)">
       <use xlink:href="#DejaVuSans-32"/>
       <use x="63.623047" xlink:href="#DejaVuSans-2e"/>
       <use x="95.410156" xlink:href="#DejaVuSans-30"/>
       <use x="159.033203" xlink:href="#DejaVuSans-30"/>
      </g>
     </g>
    </g>
    <g id="ytick_14">
     <g id="line2d_38">
      <g>
       <use style="stroke:#000000;stroke-width:0.8;" x="252.392727" xlink:href="#m4490a1f2e2" y="141.264"/>
      </g>
     </g>
     <g id="text_37">
      <!-- 2.25 -->
      <g transform="translate(223.127102 145.063219)scale(0.1 -0.1)">
       <use xlink:href="#DejaVuSans-32"/>
       <use x="63.623047" xlink:href="#DejaVuSans-2e"/>
       <use x="95.410156" xlink:href="#DejaVuSans-32"/>
       <use x="159.033203" xlink:href="#DejaVuSans-35"/>
      </g>
     </g>
    </g>
    <g id="ytick_15">
     <g id="line2d_39">
      <g>
       <use style="stroke:#000000;stroke-width:0.8;" x="252.392727" xlink:href="#m4490a1f2e2" y="108"/>
      </g>
     </g>
     <g id="text_38">
      <!-- 2.50 -->
      <g transform="translate(223.127102 111.799219)scale(0.1 -0.1)">
       <use xlink:href="#DejaVuSans-32"/>
       <use x="63.623047" xlink:href="#DejaVuSans-2e"/>
       <use x="95.410156" xlink:href="#DejaVuSans-35"/>
       <use x="159.033203" xlink:href="#DejaVuSans-30"/>
      </g>
     </g>
    </g>
    <g id="ytick_16">
     <g id="line2d_40">
      <g>
       <use style="stroke:#000000;stroke-width:0.8;" x="252.392727" xlink:href="#m4490a1f2e2" y="74.736"/>
      </g>
     </g>
     <g id="text_39">
      <!-- 2.75 -->
      <g transform="translate(223.127102 78.535219)scale(0.1 -0.1)">
       <use xlink:href="#DejaVuSans-32"/>
       <use x="63.623047" xlink:href="#DejaVuSans-2e"/>
       <use x="95.410156" xlink:href="#DejaVuSans-37"/>
       <use x="159.033203" xlink:href="#DejaVuSans-35"/>
      </g>
     </g>
    </g>
    <g id="ytick_17">
     <g id="line2d_41">
      <g>
       <use style="stroke:#000000;stroke-width:0.8;" x="252.392727" xlink:href="#m4490a1f2e2" y="41.472"/>
      </g>
     </g>
     <g id="text_40">
      <!-- 3.00 -->
      <g transform="translate(223.127102 45.271219)scale(0.1 -0.1)">
       <use xlink:href="#DejaVuSans-33"/>
       <use x="63.623047" xlink:href="#DejaVuSans-2e"/>
       <use x="95.410156" xlink:href="#DejaVuSans-30"/>
       <use x="159.033203" xlink:href="#DejaVuSans-30"/>
      </g>
     </g>
    </g>
   </g>
   <g id="line2d_42">
    <path clip-path="url(#pffe51b510a)" d="M 259.77124 144.473984 
L 260.073638 267.795998 
L 260.376036 205.081292 
L 260.678434 219.219933 
L 260.980832 262.773092 
L 261.28323 231.711831 
L 261.585628 225.732617 
L 261.888026 204.583103 
L 262.190424 193.105293 
L 262.492822 194.453415 
L 262.79522 185.322638 
L 263.097618 242.399753 
L 263.400016 208.99319 
L 263.702414 232.105909 
L 264.004812 211.784893 
L 264.30721 196.578378 
L 264.609608 224.231923 
L 264.912007 224.439613 
L 265.214405 246.287686 
L 265.516803 232.334502 
L 265.819201 212.790325 
L 266.121599 193.823821 
L 266.423997 187.8273 
L 266.726395 205.684793 
L 267.028793 253.402271 
L 267.331191 309.721982 
L 267.633589 227.867832 
L 267.935987 215.735798 
L 268.238385 213.789901 
L 268.540783 226.120438 
L 268.843181 229.574219 
L 269.145579 233.167393 
L 269.447977 220.295528 
L 269.750375 247.518382 
L 270.052773 237.190191 
L 270.355171 244.594345 
L 270.657569 229.784573 
L 270.959967 282.553583 
L 271.262366 216.466176 
L 271.564764 207.864208 
L 271.867162 213.94021 
L 272.16956 211.152768 
L 272.471958 258.007135 
L 272.774356 231.998602 
L 273.076754 214.905837 
L 273.379152 216.018976 
L 273.68155 199.497223 
L 273.983948 226.220023 
L 274.286346 209.700136 
L 274.588744 210.208444 
L 274.891142 218.200921 
L 275.19354 229.006666 
L 275.495938 220.670303 
L 275.798336 226.788909 
L 276.100734 220.360765 
L 276.403132 227.642834 
L 276.70553 216.030825 
L 277.007928 201.747201 
L 277.310327 332.691713 
L 277.612725 236.488438 
L 277.915123 204.69041 
L 278.217521 199.94176 
L 278.519919 189.805549 
L 278.822317 233.994957 
L 279.124715 218.917185 
L 279.427113 217.245146 
L 279.729511 217.437127 
L 280.031909 247.698381 
L 280.334307 213.421517 
L 280.636705 208.597913 
L 280.939103 216.627801 
L 281.241501 236.084773 
L 281.543899 219.654885 
L 281.846297 253.063045 
L 282.148695 210.892624 
L 282.451093 232.975412 
L 282.753491 220.076122 
L 283.055889 234.23207 
L 283.358287 225.719171 
L 283.660686 227.128934 
L 283.963084 227.971145 
L 284.265482 233.876602 
L 284.56788 216.47443 
L 284.870278 211.993647 
L 285.172676 231.789315 
L 285.475074 221.645513 
L 285.777472 238.212533 
L 286.07987 238.814567 
L 286.382268 233.866883 
L 286.684666 241.684286 
L 286.987064 248.794479 
L 287.289462 201.482662 
L 287.59186 206.881008 
L 287.894258 207.486239 
L 288.196656 222.158482 
L 288.499054 215.697189 
L 288.801452 220.566991 
L 289.10385 248.394676 
L 289.406248 238.548964 
L 289.708647 207.570512 
L 290.011045 185.41823 
L 290.313443 203.054051 
L 290.615841 210.940419 
L 290.918239 210.500675 
L 291.220637 218.551863 
L 291.523035 212.953682 
L 291.825433 212.013617 
L 292.127831 252.640209 
L 292.430229 224.505382 
L 292.732627 198.888665 
L 293.035025 228.719229 
L 293.337423 217.311448 
L 293.639821 212.673034 
L 293.942219 218.293316 
L 294.244617 216.992191 
L 294.547015 216.508512 
L 294.849413 220.294997 
L 295.151811 243.420364 
L 295.454209 203.611885 
L 295.756608 220.303516 
L 296.059006 232.937602 
L 296.361404 234.056866 
" style="fill:none;stroke:#0000ff;stroke-linecap:square;stroke-width:1.5;"/>
   </g>
   <g id="line2d_43">
    <path clip-path="url(#pffe51b510a)" d="M 296.663802 209.253468 
L 296.9662 221.101926 
L 297.268598 251.726771 
L 297.570996 226.431175 
L 297.873394 260.396771 
L 298.175792 226.092081 
L 298.780588 219.258276 
L 299.082986 226.760417 
L 299.385384 263.498676 
L 299.687782 250.23167 
L 299.99018 217.357911 
L 300.292578 210.274346 
L 300.594976 217.460292 
L 300.897374 237.395352 
L 301.199772 223.814679 
L 301.50217 304.54677 
L 301.804568 237.030829 
L 302.106967 221.57229 
L 302.409365 232.632058 
L 302.711763 225.152017 
L 303.014161 235.483137 
L 303.316559 252.707708 
L 303.618957 223.951143 
L 303.921355 245.299293 
L 304.223753 230.553292 
L 304.526151 241.898101 
L 304.828549 235.340551 
L 305.130947 246.668584 
L 305.433345 226.996199 
L 305.735743 235.216868 
L 306.038141 230.705732 
L 306.340539 222.994569 
L 306.642937 300.305365 
L 306.945335 228.225032 
L 307.247733 236.639945 
L 307.550131 241.206599 
L 307.852529 239.774069 
L 308.154928 228.042637 
L 308.457326 220.700658 
L 308.759724 238.13132 
L 309.062122 238.684629 
L 309.36452 245.984405 
L 309.666918 230.0788 
L 309.969316 264.348076 
L 310.574112 243.043193 
L 310.87651 222.842528 
L 311.178908 247.680142 
L 311.481306 236.051756 
L 311.783704 249.787931 
L 312.086102 244.887507 
L 312.3885 250.017322 
L 312.690898 229.996922 
L 312.993296 236.741395 
L 313.295694 228.304115 
L 313.598092 267.539581 
L 314.202888 222.531393 
L 314.505287 254.222115 
L 314.807685 226.7491 
L 315.110083 237.807536 
L 315.412481 255.925574 
L 315.714879 231.379792 
L 316.319675 220.295662 
L 316.924471 263.814872 
L 317.226869 264.43195 
L 317.529267 239.808019 
L 317.831665 254.049173 
L 318.134063 240.290366 
L 318.436461 239.543479 
L 318.738859 234.476905 
L 319.041257 222.122936 
L 319.343655 231.877051 
L 319.646053 253.329314 
L 319.948451 301.012177 
L 320.250849 222.570002 
L 320.553248 233.895772 
L 320.855646 229.885089 
L 321.158044 260.08377 
L 321.460442 234.921043 
L 321.76284 235.382887 
L 322.065238 241.276229 
L 322.367636 243.946511 
L 322.670034 237.148388 
L 322.972432 266.106653 
L 323.27483 263.468854 
L 323.577228 255.623891 
L 323.879626 216.975682 
L 324.182024 257.010622 
L 324.484422 237.684654 
L 324.78682 242.897011 
L 325.089218 232.787559 
L 325.391616 266.714412 
L 325.694014 223.348308 
L 325.996412 238.288686 
L 326.29881 238.652676 
L 326.601209 229.953788 
L 326.903607 239.558125 
L 327.206005 233.007764 
L 327.508403 236.854425 
L 327.810801 252.863476 
L 328.113199 219.97747 
L 328.415597 254.644152 
L 328.717995 239.633745 
L 329.322791 233.628571 
L 329.625189 239.787649 
L 329.927587 238.416495 
L 330.229985 254.447113 
L 330.532383 220.484847 
L 330.834781 247.584551 
L 331.137179 246.56607 
L 331.439577 234.571031 
L 332.044373 270.797521 
L 332.346771 252.19647 
L 332.649169 254.024677 
L 332.951568 248.732438 
L 333.253966 233.01655 
L 333.556364 247.526372 
L 333.858762 236.754706 
L 334.16116 238.958086 
L 334.463558 243.17899 
L 334.765956 226.998329 
L 335.068354 239.00708 
L 335.370752 245.054193 
L 335.67315 245.09573 
L 335.975548 233.515007 
L 336.277946 237.769461 
L 336.580344 229.554383 
L 336.882742 227.171804 
L 337.18514 263.216031 
L 337.487538 236.821142 
L 337.789936 235.663936 
L 338.092334 227.736561 
L 338.394732 237.345293 
L 338.69713 257.566327 
L 338.999529 239.74092 
L 339.301927 178.585226 
L 339.604325 212.839584 
L 340.511519 235.868829 
L 340.813917 233.691677 
L 341.116315 225.533448 
L 341.418713 225.793326 
L 341.721111 234.810141 
L 342.023509 237.91258 
L 342.325907 226.058399 
L 342.628305 295.56071 
L 342.930703 211.789552 
L 343.233101 223.435112 
L 343.535499 230.513352 
L 343.837897 226.633273 
L 344.140295 231.66976 
L 344.745091 247.137617 
L 345.04749 223.341385 
L 345.349888 221.197917 
L 345.652286 223.16831 
L 345.954684 258.503462 
L 346.257082 231.67016 
L 346.861878 273.422272 
L 347.164276 253.011921 
L 347.466674 283.977724 
L 347.769072 236.083576 
L 348.07147 240.038474 
L 348.373868 246.920209 
L 348.676266 237.626872 
L 348.978664 277.972019 
L 349.281062 247.596399 
L 349.58346 245.967896 
L 349.885858 248.300149 
L 350.188256 240.311002 
L 350.490654 244.826266 
L 350.793052 224.760068 
L 351.09545 238.79127 
L 351.397849 240.763793 
L 351.700247 239.115319 
L 352.002645 225.970929 
L 352.305043 236.234017 
L 352.607441 232.965428 
L 352.909839 244.367616 
L 353.212237 228.0232 
L 353.514635 240.077217 
L 354.119431 212.366957 
L 354.421829 230.364774 
L 354.724227 224.941797 
L 355.026625 215.713964 
L 355.329023 230.536517 
L 355.631421 222.542177 
L 355.933819 231.4642 
L 356.236217 271.492751 
L 356.538615 243.36458 
L 356.841013 244.360428 
L 357.143411 237.483487 
L 357.44581 240.968554 
L 357.748208 251.759655 
L 358.353004 202.736925 
L 358.9578 221.912849 
L 359.260198 267.176922 
L 359.562596 236.000632 
L 359.864994 219.76512 
L 360.167392 263.600924 
L 360.46979 324.163902 
L 360.772188 253.787297 
L 361.074586 271.362145 
L 361.376984 240.977075 
L 361.98178 225.559409 
L 362.284178 231.827125 
L 362.586576 217.35525 
L 362.888974 250.867653 
L 363.191372 243.229449 
L 363.49377 222.415832 
L 363.796169 234.356418 
L 364.098567 232.811124 
L 364.400965 248.280579 
L 364.703363 228.635221 
L 365.005761 243.512892 
L 365.308159 235.956432 
L 365.610557 252.900486 
L 365.912955 248.614081 
L 366.215353 218.106528 
L 366.820149 248.44926 
L 367.122547 211.865173 
L 367.424945 235.827424 
L 367.727343 243.458839 
L 368.029741 233.564266 
L 368.332139 219.278114 
L 368.634537 225.040583 
L 368.936935 234.083226 
L 369.239333 214.313652 
L 369.541731 241.33787 
L 369.84413 240.639179 
L 370.146528 228.960468 
L 370.751324 237.575882 
L 371.053722 208.97069 
L 371.35612 225.678166 
L 371.658518 216.537004 
L 371.960916 219.022628 
L 372.263314 231.052015 
L 372.86811 225.165064 
L 373.170508 225.146159 
L 373.472906 217.873009 
L 373.775304 271.268153 
L 374.077702 218.938886 
L 374.3801 236.559931 
L 374.682498 233.591827 
L 374.984896 281.228892 
L 375.287294 225.283154 
L 375.589692 230.171994 
L 375.892091 213.459195 
L 376.194489 248.859716 
L 376.496887 224.792819 
L 376.799285 243.467227 
L 377.101683 254.074468 
L 377.404081 227.234511 
L 377.706479 251.784951 
L 378.008877 214.017161 
L 378.311275 307.744798 
L 378.613673 266.047274 
L 378.916071 308.908263 
L 379.218469 272.916626 
L 379.520867 252.293792 
L 379.823265 222.182712 
L 380.125663 226.759618 
L 380.428061 235.230448 
L 380.730459 228.577706 
L 381.032857 250.444017 
L 381.335255 261.262412 
L 381.940051 220.794252 
L 382.24245 236.40656 
L 382.544848 230.492184 
L 382.847246 238.366836 
L 383.149644 238.145033 
L 383.452042 229.050467 
L 383.75444 231.385784 
L 384.056838 223.048355 
L 384.359236 218.951934 
L 384.661634 223.375334 
L 384.964032 222.923742 
L 385.26643 227.307335 
L 385.568828 236.148145 
L 385.871226 226.333054 
L 386.173624 226.120039 
L 386.476022 214.270517 
L 386.77842 296.006045 
L 387.080818 223.814945 
L 387.383216 229.707887 
L 387.685614 238.350594 
L 387.988012 273.564593 
L 388.290411 259.634441 
L 388.592809 220.554742 
L 388.895207 261.952849 
L 389.197605 254.255798 
L 389.500003 213.07164 
L 389.802401 212.481719 
L 390.104799 231.880779 
L 390.407197 241.541965 
L 391.011993 222.51688 
L 391.314391 231.109662 
L 391.616789 220.477524 
L 391.919187 205.62182 
L 392.221585 231.146275 
L 392.523983 227.698751 
L 392.826381 236.062939 
L 393.128779 239.321944 
L 393.431177 238.059294 
L 393.733575 217.718839 
L 394.035973 224.219009 
L 394.338371 250.773527 
L 394.64077 253.759072 
L 394.943168 246.606942 
L 395.245566 250.123297 
L 395.547964 220.702921 
L 395.850362 231.850024 
L 396.15276 250.454935 
L 396.455158 228.665574 
L 396.757556 217.533649 
L 397.059954 224.977743 
L 397.362352 236.769219 
L 397.66475 225.75099 
L 397.967148 241.686416 
L 398.269546 223.913731 
L 398.571944 270.832403 
L 398.874342 211.560294 
L 399.17674 215.026855 
L 399.479138 222.965811 
L 399.781536 285.619942 
L 400.083934 310.934173 
L 400.386332 249.788729 
L 400.688731 226.894351 
L 400.991129 235.902778 
L 401.293527 222.988311 
L 401.595925 237.860258 
L 401.898323 213.169095 
L 402.200721 291.869152 
L 402.503119 244.13543 
L 403.107915 215.69173 
L 403.410313 238.010567 
L 403.712711 229.937144 
L 404.015109 242.182344 
L 404.317507 217.304525 
L 404.619905 229.636261 
L 404.922303 220.999545 
L 405.224701 248.810855 
L 405.527099 217.405707 
L 405.829497 224.80853 
L 406.131895 237.02577 
L 406.434293 235.772174 
L 406.736692 229.451735 
L 407.03909 218.991608 
L 407.341488 233.559873 
L 407.341488 233.559873 
" style="fill:none;stroke:#ff0000;stroke-linecap:square;stroke-width:1.5;"/>
   </g>
   <g id="patch_9">
    <path d="M 252.392727 307.584 
L 252.392727 41.472 
" style="fill:none;stroke:#000000;stroke-linecap:square;stroke-linejoin:miter;stroke-width:0.8;"/>
   </g>
   <g id="patch_10">
    <path d="M 414.72 307.584 
L 414.72 41.472 
" style="fill:none;stroke:#000000;stroke-linecap:square;stroke-linejoin:miter;stroke-width:0.8;"/>
   </g>
   <g id="patch_11">
    <path d="M 252.392727 307.584 
L 414.72 307.584 
" style="fill:none;stroke:#000000;stroke-linecap:square;stroke-linejoin:miter;stroke-width:0.8;"/>
   </g>
   <g id="patch_12">
    <path d="M 252.392727 41.472 
L 414.72 41.472 
" style="fill:none;stroke:#000000;stroke-linecap:square;stroke-linejoin:miter;stroke-width:0.8;"/>
   </g>
   <g id="text_41">
    <!-- Pupil - Reg vs Stress -->
    <defs>
     <path d="M 19.671875 64.796875 
L 19.671875 37.40625 
L 32.078125 37.40625 
Q 38.96875 37.40625 42.71875 40.96875 
Q 46.484375 44.53125 46.484375 51.125 
Q 46.484375 57.671875 42.71875 61.234375 
Q 38.96875 64.796875 32.078125 64.796875 
z
M 9.8125 72.90625 
L 32.078125 72.90625 
Q 44.34375 72.90625 50.609375 67.359375 
Q 56.890625 61.8125 56.890625 51.125 
Q 56.890625 40.328125 50.609375 34.8125 
Q 44.34375 29.296875 32.078125 29.296875 
L 19.671875 29.296875 
L 19.671875 0 
L 9.8125 0 
z
" id="DejaVuSans-50"/>
     <path d="M 18.109375 8.203125 
L 18.109375 -20.796875 
L 9.078125 -20.796875 
L 9.078125 54.6875 
L 18.109375 54.6875 
L 18.109375 46.390625 
Q 20.953125 51.265625 25.265625 53.625 
Q 29.59375 56 35.59375 56 
Q 45.5625 56 51.78125 48.09375 
Q 58.015625 40.1875 58.015625 27.296875 
Q 58.015625 14.40625 51.78125 6.484375 
Q 45.5625 -1.421875 35.59375 -1.421875 
Q 29.59375 -1.421875 25.265625 0.953125 
Q 20.953125 3.328125 18.109375 8.203125 
z
M 48.6875 27.296875 
Q 48.6875 37.203125 44.609375 42.84375 
Q 40.53125 48.484375 33.40625 48.484375 
Q 26.265625 48.484375 22.1875 42.84375 
Q 18.109375 37.203125 18.109375 27.296875 
Q 18.109375 17.390625 22.1875 11.75 
Q 26.265625 6.109375 33.40625 6.109375 
Q 40.53125 6.109375 44.609375 11.75 
Q 48.6875 17.390625 48.6875 27.296875 
z
" id="DejaVuSans-70"/>
     <path d="M 9.421875 75.984375 
L 18.40625 75.984375 
L 18.40625 0 
L 9.421875 0 
z
" id="DejaVuSans-6c"/>
    </defs>
    <g transform="translate(272.289801 35.472)scale(0.12 -0.12)">
     <use xlink:href="#DejaVuSans-50"/>
     <use x="60.287109" xlink:href="#DejaVuSans-75"/>
     <use x="123.666016" xlink:href="#DejaVuSans-70"/>
     <use x="187.142578" xlink:href="#DejaVuSans-69"/>
     <use x="214.925781" xlink:href="#DejaVuSans-6c"/>
     <use x="242.708984" xlink:href="#DejaVuSans-20"/>
     <use x="274.496094" xlink:href="#DejaVuSans-2d"/>
     <use x="310.580078" xlink:href="#DejaVuSans-20"/>
     <use x="342.367188" xlink:href="#DejaVuSans-52"/>
     <use x="411.787109" xlink:href="#DejaVuSans-65"/>
     <use x="473.310547" xlink:href="#DejaVuSans-67"/>
     <use x="536.787109" xlink:href="#DejaVuSans-20"/>
     <use x="568.574219" xlink:href="#DejaVuSans-76"/>
     <use x="627.753906" xlink:href="#DejaVuSans-73"/>
     <use x="679.853516" xlink:href="#DejaVuSans-20"/>
     <use x="711.640625" xlink:href="#DejaVuSans-53"/>
     <use x="775.117188" xlink:href="#DejaVuSans-74"/>
     <use x="814.326172" xlink:href="#DejaVuSans-72"/>
     <use x="855.408203" xlink:href="#DejaVuSans-65"/>
     <use x="916.931641" xlink:href="#DejaVuSans-73"/>
     <use x="969.03125" xlink:href="#DejaVuSans-73"/>
    </g>
   </g>
   <g id="legend_2">
    <g id="patch_13">
     <path d="M 344.771562 78.82825 
L 407.72 78.82825 
Q 409.72 78.82825 409.72 76.82825 
L 409.72 48.472 
Q 409.72 46.472 407.72 46.472 
L 344.771562 46.472 
Q 342.771562 46.472 342.771562 48.472 
L 342.771562 76.82825 
Q 342.771562 78.82825 344.771562 78.82825 
z
" style="fill:#ffffff;opacity:0.8;stroke:#cccccc;stroke-linejoin:miter;"/>
    </g>
    <g id="line2d_44">
     <path d="M 346.771562 54.570437 
L 366.771562 54.570437 
" style="fill:none;stroke:#0000ff;stroke-linecap:square;stroke-width:1.5;"/>
    </g>
    <g id="line2d_45"/>
    <g id="text_42">
     <!-- Reg -->
     <g transform="translate(374.771562 58.070437)scale(0.1 -0.1)">
      <use xlink:href="#DejaVuSans-52"/>
      <use x="69.419922" xlink:href="#DejaVuSans-65"/>
      <use x="130.943359" xlink:href="#DejaVuSans-67"/>
     </g>
    </g>
    <g id="line2d_46">
     <path d="M 346.771562 69.248562 
L 366.771562 69.248562 
" style="fill:none;stroke:#ff0000;stroke-linecap:square;stroke-width:1.5;"/>
    </g>
    <g id="line2d_47"/>
    <g id="text_43">
     <!-- Stress -->
     <g transform="translate(374.771562 72.748562)scale(0.1 -0.1)">
      <use xlink:href="#DejaVuSans-53"/>
      <use x="63.476562" xlink:href="#DejaVuSans-74"/>
      <use x="102.685547" xlink:href="#DejaVuSans-72"/>
      <use x="143.767578" xlink:href="#DejaVuSans-65"/>
      <use x="205.291016" xlink:href="#DejaVuSans-73"/>
      <use x="257.390625" xlink:href="#DejaVuSans-73"/>
     </g>
    </g>
   </g>
  </g>
 </g>
 <defs>
  <clipPath id="p8b969cd126">
   <rect height="266.112" width="162.327273" x="57.6" y="41.472"/>
  </clipPath>
  <clipPath id="pffe51b510a">
   <rect height="266.112" width="162.327273" x="252.392727" y="41.472"/>
  </clipPath>
 </defs>
</svg>
