<?xml version="1.0" encoding="utf-8" standalone="no"?>
<!DOCTYPE svg PUBLIC "-//W3C//DTD SVG 1.1//EN"
  "http://www.w3.org/Graphics/SVG/1.1/DTD/svg11.dtd">
<!-- Created with matplotlib (http://matplotlib.org/) -->
<svg height="432pt" version="1.1" viewBox="0 0 576 432" width="576pt" xmlns="http://www.w3.org/2000/svg" xmlns:xlink="http://www.w3.org/1999/xlink">
 <defs>
  <style type="text/css">
*{stroke-linecap:butt;stroke-linejoin:round;}
  </style>
 </defs>
 <g id="figure_1">
  <g id="patch_1">
   <path d="
M0 432
L576 432
L576 0
L0 0
z
" style="fill:#ffffff;"/>
  </g>
  <g id="axes_1">
   <g id="patch_2">
    <path d="
M51.9975 249.504
L552.655 249.504
L552.655 164.096
L51.9975 164.096
z
" style="fill:#ffffff;"/>
   </g>
   <g id="line2d_1">
    <path clip-path="url(#p2f25e4152e)" d="
M58.2557 224.396
L64.5139 216.934
L70.7722 218.991
L77.0304 225.948
L83.2886 226.326
L89.5468 220.78
L95.805 228.212
L102.063 222.264
L108.321 228.179
L114.58 218.522
L120.838 225.175
L127.096 224.087
L133.354 221.055
L139.613 229.417
L145.871 229.146
L152.129 210.705
L158.387 230.018
L164.645 225.842
L170.904 227.929
L177.162 222.723
L183.42 224.961
L189.678 228.741
L195.936 225.85
L202.195 228.877
L208.453 227.838
L214.711 229.789
L220.969 229.777
L227.228 222.544
L233.486 229.707
L239.744 224.975
L246.002 226.331
L252.26 225.035
L258.519 228.138
L264.777 231.15
L271.035 233.031
L277.293 219.137
L283.552 228.016
L289.81 230.313
L296.068 228.548
L302.326 226.01
L308.584 222.677
L314.843 221.492
L321.101 219.454
L327.359 237.984
L333.617 229.572
L339.875 222.335
L346.134 230.668
L352.392 226.321
L358.65 225.504
L364.908 237.551
L371.167 223.986
L377.425 229.339
L383.683 230.251
L389.941 229.581
L396.199 234.425
L402.458 224.543
L408.716 227.74
L414.974 231.03
L421.232 233.997
L427.491 232.144
L433.749 233.005
L440.007 233.257
L446.265 226.541
L452.523 227.767
L458.782 241.893
L465.04 232.055
L471.298 226.214
L477.556 234.422
L483.814 234.763
L490.073 233.997
L496.331 230.535" style="fill:none;stroke:#ff0000;stroke-linecap:square;"/>
   </g>
   <g id="line2d_2">
    <path clip-path="url(#p2f25e4152e)" d="
M58.2557 222.64
L64.5139 222.778
L70.7722 222.916
L77.0304 223.054
L83.2886 223.192
L89.5468 223.33
L95.805 223.468
L102.063 223.606
L108.321 223.744
L114.58 223.882
L120.838 224.02
L127.096 224.158
L133.354 224.296
L139.613 224.434
L145.871 224.573
L152.129 224.711
L158.387 224.849
L164.645 224.987
L170.904 225.125
L177.162 225.263
L183.42 225.401
L189.678 225.539
L195.936 225.677
L202.195 225.815
L208.453 225.953
L214.711 226.091
L220.969 226.229
L227.228 226.367
L233.486 226.505
L239.744 226.643
L246.002 226.781
L252.26 226.919
L258.519 227.057
L264.777 227.195
L271.035 227.333
L277.293 227.471
L283.552 227.609
L289.81 227.747
L296.068 227.885
L302.326 228.023
L308.584 228.162
L314.843 228.3
L321.101 228.438
L327.359 228.576
L333.617 228.714
L339.875 228.852
L346.134 228.99
L352.392 229.128
L358.65 229.266
L364.908 229.404
L371.167 229.542
L377.425 229.68
L383.683 229.818
L389.941 229.956
L396.199 230.094
L402.458 230.232
L408.716 230.37
L414.974 230.508
L421.232 230.646
L427.491 230.784
L433.749 230.922
L440.007 231.06
L446.265 231.198
L452.523 231.336
L458.782 231.474
L465.04 231.613
L471.298 231.751
L477.556 231.889
L483.814 232.027
L490.073 232.165
L496.331 232.303" style="fill:none;stroke:#ff0000;stroke-dasharray:6.000000,6.000000;stroke-dashoffset:0.0;"/>
   </g>
   <g id="patch_3">
    <path d="
M51.9975 164.096
L552.655 164.096" style="fill:none;stroke:#000000;stroke-linecap:square;stroke-linejoin:miter;"/>
   </g>
   <g id="patch_4">
    <path d="
M552.655 249.504
L552.655 164.096" style="fill:none;stroke:#000000;stroke-linecap:square;stroke-linejoin:miter;"/>
   </g>
   <g id="patch_5">
    <path d="
M51.9975 249.504
L552.655 249.504" style="fill:none;stroke:#000000;stroke-linecap:square;stroke-linejoin:miter;"/>
   </g>
   <g id="patch_6">
    <path d="
M51.9975 249.504
L51.9975 164.096" style="fill:none;stroke:#000000;stroke-linecap:square;stroke-linejoin:miter;"/>
   </g>
   <g id="matplotlib.axis_1">
    <g id="xtick_1">
     <g id="line2d_3">
      <defs>
       <path d="
M0 0
L0 -4" id="m93b0483c22" style="stroke:#000000;stroke-width:0.5;"/>
      </defs>
      <g>
       <use style="stroke:#000000;stroke-width:0.5;" x="51.9975" xlink:href="#m93b0483c22" y="249.504041054"/>
      </g>
     </g>
     <g id="line2d_4">
      <defs>
       <path d="
M0 0
L0 4" id="m741efc42ff" style="stroke:#000000;stroke-width:0.5;"/>
      </defs>
      <g>
       <use style="stroke:#000000;stroke-width:0.5;" x="51.9975" xlink:href="#m741efc42ff" y="164.095958946"/>
      </g>
     </g>
     <g id="text_1">
      <!-- 0 -->
      <defs>
       <path d="
M31.7812 66.4062
Q24.1719 66.4062 20.3281 58.9062
Q16.5 51.4219 16.5 36.375
Q16.5 21.3906 20.3281 13.8906
Q24.1719 6.39062 31.7812 6.39062
Q39.4531 6.39062 43.2812 13.8906
Q47.125 21.3906 47.125 36.375
Q47.125 51.4219 43.2812 58.9062
Q39.4531 66.4062 31.7812 66.4062
M31.7812 74.2188
Q44.0469 74.2188 50.5156 64.5156
Q56.9844 54.8281 56.9844 36.375
Q56.9844 17.9688 50.5156 8.26562
Q44.0469 -1.42188 31.7812 -1.42188
Q19.5312 -1.42188 13.0625 8.26562
Q6.59375 17.9688 6.59375 36.375
Q6.59375 54.8281 13.0625 64.5156
Q19.5312 74.2188 31.7812 74.2188" id="BitstreamVeraSans-Roman-30"/>
      </defs>
      <g transform="translate(48.9740625 262.622166054)scale(0.12 -0.12)">
       <use xlink:href="#BitstreamVeraSans-Roman-30"/>
      </g>
     </g>
    </g>
    <g id="xtick_2">
     <g id="line2d_5">
      <g>
       <use style="stroke:#000000;stroke-width:0.5;" x="114.579667969" xlink:href="#m93b0483c22" y="249.504041054"/>
      </g>
     </g>
     <g id="line2d_6">
      <g>
       <use style="stroke:#000000;stroke-width:0.5;" x="114.579667969" xlink:href="#m741efc42ff" y="164.095958946"/>
      </g>
     </g>
     <g id="text_2">
      <!-- 10 -->
      <defs>
       <path d="
M12.4062 8.29688
L28.5156 8.29688
L28.5156 63.9219
L10.9844 60.4062
L10.9844 69.3906
L28.4219 72.9062
L38.2812 72.9062
L38.2812 8.29688
L54.3906 8.29688
L54.3906 0
L12.4062 0
z
" id="BitstreamVeraSans-Roman-31"/>
      </defs>
      <g transform="translate(108.002167969 262.622166054)scale(0.12 -0.12)">
       <use xlink:href="#BitstreamVeraSans-Roman-31"/>
       <use x="63.623046875" xlink:href="#BitstreamVeraSans-Roman-30"/>
      </g>
     </g>
    </g>
    <g id="xtick_3">
     <g id="line2d_7">
      <g>
       <use style="stroke:#000000;stroke-width:0.5;" x="177.161835938" xlink:href="#m93b0483c22" y="249.504041054"/>
      </g>
     </g>
     <g id="line2d_8">
      <g>
       <use style="stroke:#000000;stroke-width:0.5;" x="177.161835938" xlink:href="#m741efc42ff" y="164.095958946"/>
      </g>
     </g>
     <g id="text_3">
      <!-- 20 -->
      <defs>
       <path d="
M19.1875 8.29688
L53.6094 8.29688
L53.6094 0
L7.32812 0
L7.32812 8.29688
Q12.9375 14.1094 22.625 23.8906
Q32.3281 33.6875 34.8125 36.5312
Q39.5469 41.8438 41.4219 45.5312
Q43.3125 49.2188 43.3125 52.7812
Q43.3125 58.5938 39.2344 62.25
Q35.1562 65.9219 28.6094 65.9219
Q23.9688 65.9219 18.8125 64.3125
Q13.6719 62.7031 7.8125 59.4219
L7.8125 69.3906
Q13.7656 71.7812 18.9375 73
Q24.125 74.2188 28.4219 74.2188
Q39.75 74.2188 46.4844 68.5469
Q53.2188 62.8906 53.2188 53.4219
Q53.2188 48.9219 51.5312 44.8906
Q49.8594 40.875 45.4062 35.4062
Q44.1875 33.9844 37.6406 27.2188
Q31.1094 20.4531 19.1875 8.29688" id="BitstreamVeraSans-Roman-32"/>
      </defs>
      <g transform="translate(170.364960938 262.622166054)scale(0.12 -0.12)">
       <use xlink:href="#BitstreamVeraSans-Roman-32"/>
       <use x="63.623046875" xlink:href="#BitstreamVeraSans-Roman-30"/>
      </g>
     </g>
    </g>
    <g id="xtick_4">
     <g id="line2d_9">
      <g>
       <use style="stroke:#000000;stroke-width:0.5;" x="239.744003906" xlink:href="#m93b0483c22" y="249.504041054"/>
      </g>
     </g>
     <g id="line2d_10">
      <g>
       <use style="stroke:#000000;stroke-width:0.5;" x="239.744003906" xlink:href="#m741efc42ff" y="164.095958946"/>
      </g>
     </g>
     <g id="text_4">
      <!-- 30 -->
      <defs>
       <path d="
M40.5781 39.3125
Q47.6562 37.7969 51.625 33
Q55.6094 28.2188 55.6094 21.1875
Q55.6094 10.4062 48.1875 4.48438
Q40.7656 -1.42188 27.0938 -1.42188
Q22.5156 -1.42188 17.6562 -0.515625
Q12.7969 0.390625 7.625 2.20312
L7.625 11.7188
Q11.7188 9.32812 16.5938 8.10938
Q21.4844 6.89062 26.8125 6.89062
Q36.0781 6.89062 40.9375 10.5469
Q45.7969 14.2031 45.7969 21.1875
Q45.7969 27.6406 41.2812 31.2656
Q36.7656 34.9062 28.7188 34.9062
L20.2188 34.9062
L20.2188 43.0156
L29.1094 43.0156
Q36.375 43.0156 40.2344 45.9219
Q44.0938 48.8281 44.0938 54.2969
Q44.0938 59.9062 40.1094 62.9062
Q36.1406 65.9219 28.7188 65.9219
Q24.6562 65.9219 20.0156 65.0312
Q15.375 64.1562 9.8125 62.3125
L9.8125 71.0938
Q15.4375 72.6562 20.3438 73.4375
Q25.25 74.2188 29.5938 74.2188
Q40.8281 74.2188 47.3594 69.1094
Q53.9062 64.0156 53.9062 55.3281
Q53.9062 49.2656 50.4375 45.0938
Q46.9688 40.9219 40.5781 39.3125" id="BitstreamVeraSans-Roman-33"/>
      </defs>
      <g transform="translate(232.964941406 262.622166054)scale(0.12 -0.12)">
       <use xlink:href="#BitstreamVeraSans-Roman-33"/>
       <use x="63.623046875" xlink:href="#BitstreamVeraSans-Roman-30"/>
      </g>
     </g>
    </g>
    <g id="xtick_5">
     <g id="line2d_11">
      <g>
       <use style="stroke:#000000;stroke-width:0.5;" x="302.326171875" xlink:href="#m93b0483c22" y="249.504041054"/>
      </g>
     </g>
     <g id="line2d_12">
      <g>
       <use style="stroke:#000000;stroke-width:0.5;" x="302.326171875" xlink:href="#m741efc42ff" y="164.095958946"/>
      </g>
     </g>
     <g id="text_5">
      <!-- 40 -->
      <defs>
       <path d="
M37.7969 64.3125
L12.8906 25.3906
L37.7969 25.3906
z

M35.2031 72.9062
L47.6094 72.9062
L47.6094 25.3906
L58.0156 25.3906
L58.0156 17.1875
L47.6094 17.1875
L47.6094 0
L37.7969 0
L37.7969 17.1875
L4.89062 17.1875
L4.89062 26.7031
z
" id="BitstreamVeraSans-Roman-34"/>
      </defs>
      <g transform="translate(295.383046875 262.622166054)scale(0.12 -0.12)">
       <use xlink:href="#BitstreamVeraSans-Roman-34"/>
       <use x="63.623046875" xlink:href="#BitstreamVeraSans-Roman-30"/>
      </g>
     </g>
    </g>
    <g id="xtick_6">
     <g id="line2d_13">
      <g>
       <use style="stroke:#000000;stroke-width:0.5;" x="364.908339844" xlink:href="#m93b0483c22" y="249.504041054"/>
      </g>
     </g>
     <g id="line2d_14">
      <g>
       <use style="stroke:#000000;stroke-width:0.5;" x="364.908339844" xlink:href="#m741efc42ff" y="164.095958946"/>
      </g>
     </g>
     <g id="text_6">
      <!-- 50 -->
      <defs>
       <path d="
M10.7969 72.9062
L49.5156 72.9062
L49.5156 64.5938
L19.8281 64.5938
L19.8281 46.7344
Q21.9688 47.4688 24.1094 47.8281
Q26.2656 48.1875 28.4219 48.1875
Q40.625 48.1875 47.75 41.5
Q54.8906 34.8125 54.8906 23.3906
Q54.8906 11.625 47.5625 5.09375
Q40.2344 -1.42188 26.9062 -1.42188
Q22.3125 -1.42188 17.5469 -0.640625
Q12.7969 0.140625 7.71875 1.70312
L7.71875 11.625
Q12.1094 9.23438 16.7969 8.0625
Q21.4844 6.89062 26.7031 6.89062
Q35.1562 6.89062 40.0781 11.3281
Q45.0156 15.7656 45.0156 23.3906
Q45.0156 31 40.0781 35.4375
Q35.1562 39.8906 26.7031 39.8906
Q22.75 39.8906 18.8125 39.0156
Q14.8906 38.1406 10.7969 36.2812
z
" id="BitstreamVeraSans-Roman-35"/>
      </defs>
      <g transform="translate(358.134902344 262.622166054)scale(0.12 -0.12)">
       <use xlink:href="#BitstreamVeraSans-Roman-35"/>
       <use x="63.623046875" xlink:href="#BitstreamVeraSans-Roman-30"/>
      </g>
     </g>
    </g>
    <g id="xtick_7">
     <g id="line2d_15">
      <g>
       <use style="stroke:#000000;stroke-width:0.5;" x="427.490507813" xlink:href="#m93b0483c22" y="249.504041054"/>
      </g>
     </g>
     <g id="line2d_16">
      <g>
       <use style="stroke:#000000;stroke-width:0.5;" x="427.490507813" xlink:href="#m741efc42ff" y="164.095958946"/>
      </g>
     </g>
     <g id="text_7">
      <!-- 60 -->
      <defs>
       <path d="
M33.0156 40.375
Q26.375 40.375 22.4844 35.8281
Q18.6094 31.2969 18.6094 23.3906
Q18.6094 15.5312 22.4844 10.9531
Q26.375 6.39062 33.0156 6.39062
Q39.6562 6.39062 43.5312 10.9531
Q47.4062 15.5312 47.4062 23.3906
Q47.4062 31.2969 43.5312 35.8281
Q39.6562 40.375 33.0156 40.375
M52.5938 71.2969
L52.5938 62.3125
Q48.875 64.0625 45.0938 64.9844
Q41.3125 65.9219 37.5938 65.9219
Q27.8281 65.9219 22.6719 59.3281
Q17.5312 52.7344 16.7969 39.4062
Q19.6719 43.6562 24.0156 45.9219
Q28.375 48.1875 33.5938 48.1875
Q44.5781 48.1875 50.9531 41.5156
Q57.3281 34.8594 57.3281 23.3906
Q57.3281 12.1562 50.6875 5.35938
Q44.0469 -1.42188 33.0156 -1.42188
Q20.3594 -1.42188 13.6719 8.26562
Q6.98438 17.9688 6.98438 36.375
Q6.98438 53.6562 15.1875 63.9375
Q23.3906 74.2188 37.2031 74.2188
Q40.9219 74.2188 44.7031 73.4844
Q48.4844 72.75 52.5938 71.2969" id="BitstreamVeraSans-Roman-36"/>
      </defs>
      <g transform="translate(420.673007813 262.622166054)scale(0.12 -0.12)">
       <use xlink:href="#BitstreamVeraSans-Roman-36"/>
       <use x="63.623046875" xlink:href="#BitstreamVeraSans-Roman-30"/>
      </g>
     </g>
    </g>
    <g id="xtick_8">
     <g id="line2d_17">
      <g>
       <use style="stroke:#000000;stroke-width:0.5;" x="490.072675781" xlink:href="#m93b0483c22" y="249.504041054"/>
      </g>
     </g>
     <g id="line2d_18">
      <g>
       <use style="stroke:#000000;stroke-width:0.5;" x="490.072675781" xlink:href="#m741efc42ff" y="164.095958946"/>
      </g>
     </g>
     <g id="text_8">
      <!-- 70 -->
      <defs>
       <path d="
M8.20312 72.9062
L55.0781 72.9062
L55.0781 68.7031
L28.6094 0
L18.3125 0
L43.2188 64.5938
L8.20312 64.5938
z
" id="BitstreamVeraSans-Roman-37"/>
      </defs>
      <g transform="translate(483.328300781 262.622166054)scale(0.12 -0.12)">
       <use xlink:href="#BitstreamVeraSans-Roman-37"/>
       <use x="63.623046875" xlink:href="#BitstreamVeraSans-Roman-30"/>
      </g>
     </g>
    </g>
    <g id="xtick_9">
     <g id="line2d_19">
      <g>
       <use style="stroke:#000000;stroke-width:0.5;" x="552.65484375" xlink:href="#m93b0483c22" y="249.504041054"/>
      </g>
     </g>
     <g id="line2d_20">
      <g>
       <use style="stroke:#000000;stroke-width:0.5;" x="552.65484375" xlink:href="#m741efc42ff" y="164.095958946"/>
      </g>
     </g>
     <g id="text_9">
      <!-- 80 -->
      <defs>
       <path d="
M31.7812 34.625
Q24.75 34.625 20.7188 30.8594
Q16.7031 27.0938 16.7031 20.5156
Q16.7031 13.9219 20.7188 10.1562
Q24.75 6.39062 31.7812 6.39062
Q38.8125 6.39062 42.8594 10.1719
Q46.9219 13.9688 46.9219 20.5156
Q46.9219 27.0938 42.8906 30.8594
Q38.875 34.625 31.7812 34.625
M21.9219 38.8125
Q15.5781 40.375 12.0312 44.7188
Q8.5 49.0781 8.5 55.3281
Q8.5 64.0625 14.7188 69.1406
Q20.9531 74.2188 31.7812 74.2188
Q42.6719 74.2188 48.875 69.1406
Q55.0781 64.0625 55.0781 55.3281
Q55.0781 49.0781 51.5312 44.7188
Q48 40.375 41.7031 38.8125
Q48.8281 37.1562 52.7969 32.3125
Q56.7812 27.4844 56.7812 20.5156
Q56.7812 9.90625 50.3125 4.23438
Q43.8438 -1.42188 31.7812 -1.42188
Q19.7344 -1.42188 13.25 4.23438
Q6.78125 9.90625 6.78125 20.5156
Q6.78125 27.4844 10.7812 32.3125
Q14.7969 37.1562 21.9219 38.8125
M18.3125 54.3906
Q18.3125 48.7344 21.8438 45.5625
Q25.3906 42.3906 31.7812 42.3906
Q38.1406 42.3906 41.7188 45.5625
Q45.3125 48.7344 45.3125 54.3906
Q45.3125 60.0625 41.7188 63.2344
Q38.1406 66.4062 31.7812 66.4062
Q25.3906 66.4062 21.8438 63.2344
Q18.3125 60.0625 18.3125 54.3906" id="BitstreamVeraSans-Roman-38"/>
      </defs>
      <g transform="translate(545.82515625 262.622166054)scale(0.12 -0.12)">
       <use xlink:href="#BitstreamVeraSans-Roman-38"/>
       <use x="63.623046875" xlink:href="#BitstreamVeraSans-Roman-30"/>
      </g>
     </g>
    </g>
   </g>
   <g id="matplotlib.axis_2">
    <g id="ytick_1">
     <g id="line2d_21">
      <defs>
       <path d="
M0 0
L4 0" id="m728421d6d4" style="stroke:#000000;stroke-width:0.5;"/>
      </defs>
      <g>
       <use style="stroke:#000000;stroke-width:0.5;" x="51.9975" xlink:href="#m728421d6d4" y="249.504041054"/>
      </g>
     </g>
     <g id="line2d_22">
      <defs>
       <path d="
M0 0
L-4 0" id="mcb0005524f" style="stroke:#000000;stroke-width:0.5;"/>
      </defs>
      <g>
       <use style="stroke:#000000;stroke-width:0.5;" x="552.65484375" xlink:href="#mcb0005524f" y="249.504041054"/>
      </g>
     </g>
     <g id="text_10">
      <!-- 0.5 -->
      <defs>
       <path d="
M10.6875 12.4062
L21 12.4062
L21 0
L10.6875 0
z
" id="BitstreamVeraSans-Roman-2e"/>
      </defs>
      <g transform="translate(30.753125 252.815291054)scale(0.12 -0.12)">
       <use xlink:href="#BitstreamVeraSans-Roman-30"/>
       <use x="63.623046875" xlink:href="#BitstreamVeraSans-Roman-2e"/>
       <use x="95.41015625" xlink:href="#BitstreamVeraSans-Roman-35"/>
      </g>
     </g>
    </g>
    <g id="ytick_2">
     <g id="line2d_23">
      <g>
       <use style="stroke:#000000;stroke-width:0.5;" x="51.9975" xlink:href="#m728421d6d4" y="238.116296773"/>
      </g>
     </g>
     <g id="line2d_24">
      <g>
       <use style="stroke:#000000;stroke-width:0.5;" x="552.65484375" xlink:href="#mcb0005524f" y="238.116296773"/>
      </g>
     </g>
     <g id="text_11">
      <!-- 0.6 -->
      <g transform="translate(30.460625 241.427546773)scale(0.12 -0.12)">
       <use xlink:href="#BitstreamVeraSans-Roman-30"/>
       <use x="63.623046875" xlink:href="#BitstreamVeraSans-Roman-2e"/>
       <use x="95.41015625" xlink:href="#BitstreamVeraSans-Roman-36"/>
      </g>
     </g>
    </g>
    <g id="ytick_3">
     <g id="line2d_25">
      <g>
       <use style="stroke:#000000;stroke-width:0.5;" x="51.9975" xlink:href="#m728421d6d4" y="226.728552492"/>
      </g>
     </g>
     <g id="line2d_26">
      <g>
       <use style="stroke:#000000;stroke-width:0.5;" x="552.65484375" xlink:href="#mcb0005524f" y="226.728552492"/>
      </g>
     </g>
     <g id="text_12">
      <!-- 0.7 -->
      <g transform="translate(30.730625 230.039802492)scale(0.12 -0.12)">
       <use xlink:href="#BitstreamVeraSans-Roman-30"/>
       <use x="63.623046875" xlink:href="#BitstreamVeraSans-Roman-2e"/>
       <use x="95.41015625" xlink:href="#BitstreamVeraSans-Roman-37"/>
      </g>
     </g>
    </g>
    <g id="ytick_4">
     <g id="line2d_27">
      <g>
       <use style="stroke:#000000;stroke-width:0.5;" x="51.9975" xlink:href="#m728421d6d4" y="215.340808211"/>
      </g>
     </g>
     <g id="line2d_28">
      <g>
       <use style="stroke:#000000;stroke-width:0.5;" x="552.65484375" xlink:href="#mcb0005524f" y="215.340808211"/>
      </g>
     </g>
     <g id="text_13">
      <!-- 0.8 -->
      <g transform="translate(30.52625 218.652058211)scale(0.12 -0.12)">
       <use xlink:href="#BitstreamVeraSans-Roman-30"/>
       <use x="63.623046875" xlink:href="#BitstreamVeraSans-Roman-2e"/>
       <use x="95.41015625" xlink:href="#BitstreamVeraSans-Roman-38"/>
      </g>
     </g>
    </g>
    <g id="ytick_5">
     <g id="line2d_29">
      <g>
       <use style="stroke:#000000;stroke-width:0.5;" x="51.9975" xlink:href="#m728421d6d4" y="203.95306393"/>
      </g>
     </g>
     <g id="line2d_30">
      <g>
       <use style="stroke:#000000;stroke-width:0.5;" x="552.65484375" xlink:href="#mcb0005524f" y="203.95306393"/>
      </g>
     </g>
     <g id="text_14">
      <!-- 0.9 -->
      <defs>
       <path d="
M10.9844 1.51562
L10.9844 10.5
Q14.7031 8.73438 18.5 7.8125
Q22.3125 6.89062 25.9844 6.89062
Q35.75 6.89062 40.8906 13.4531
Q46.0469 20.0156 46.7812 33.4062
Q43.9531 29.2031 39.5938 26.9531
Q35.25 24.7031 29.9844 24.7031
Q19.0469 24.7031 12.6719 31.3125
Q6.29688 37.9375 6.29688 49.4219
Q6.29688 60.6406 12.9375 67.4219
Q19.5781 74.2188 30.6094 74.2188
Q43.2656 74.2188 49.9219 64.5156
Q56.5938 54.8281 56.5938 36.375
Q56.5938 19.1406 48.4062 8.85938
Q40.2344 -1.42188 26.4219 -1.42188
Q22.7031 -1.42188 18.8906 -0.6875
Q15.0938 0.046875 10.9844 1.51562
M30.6094 32.4219
Q37.25 32.4219 41.125 36.9531
Q45.0156 41.5 45.0156 49.4219
Q45.0156 57.2812 41.125 61.8438
Q37.25 66.4062 30.6094 66.4062
Q23.9688 66.4062 20.0938 61.8438
Q16.2188 57.2812 16.2188 49.4219
Q16.2188 41.5 20.0938 36.9531
Q23.9688 32.4219 30.6094 32.4219" id="BitstreamVeraSans-Roman-39"/>
      </defs>
      <g transform="translate(30.54875 207.26431393)scale(0.12 -0.12)">
       <use xlink:href="#BitstreamVeraSans-Roman-30"/>
       <use x="63.623046875" xlink:href="#BitstreamVeraSans-Roman-2e"/>
       <use x="95.41015625" xlink:href="#BitstreamVeraSans-Roman-39"/>
      </g>
     </g>
    </g>
    <g id="ytick_6">
     <g id="line2d_31">
      <g>
       <use style="stroke:#000000;stroke-width:0.5;" x="51.9975" xlink:href="#m728421d6d4" y="192.565319649"/>
      </g>
     </g>
     <g id="line2d_32">
      <g>
       <use style="stroke:#000000;stroke-width:0.5;" x="552.65484375" xlink:href="#mcb0005524f" y="192.565319649"/>
      </g>
     </g>
     <g id="text_15">
      <!-- 1.0 -->
      <g transform="translate(31.02875 195.876569649)scale(0.12 -0.12)">
       <use xlink:href="#BitstreamVeraSans-Roman-31"/>
       <use x="63.623046875" xlink:href="#BitstreamVeraSans-Roman-2e"/>
       <use x="95.41015625" xlink:href="#BitstreamVeraSans-Roman-30"/>
      </g>
     </g>
    </g>
    <g id="ytick_7">
     <g id="line2d_33">
      <g>
       <use style="stroke:#000000;stroke-width:0.5;" x="51.9975" xlink:href="#m728421d6d4" y="181.177575368"/>
      </g>
     </g>
     <g id="line2d_34">
      <g>
       <use style="stroke:#000000;stroke-width:0.5;" x="552.65484375" xlink:href="#mcb0005524f" y="181.177575368"/>
      </g>
     </g>
     <g id="text_16">
      <!-- 1.1 -->
      <g transform="translate(31.34 184.488825368)scale(0.12 -0.12)">
       <use xlink:href="#BitstreamVeraSans-Roman-31"/>
       <use x="63.623046875" xlink:href="#BitstreamVeraSans-Roman-2e"/>
       <use x="95.41015625" xlink:href="#BitstreamVeraSans-Roman-31"/>
      </g>
     </g>
    </g>
    <g id="ytick_8">
     <g id="line2d_35">
      <g>
       <use style="stroke:#000000;stroke-width:0.5;" x="51.9975" xlink:href="#m728421d6d4" y="169.789831087"/>
      </g>
     </g>
     <g id="line2d_36">
      <g>
       <use style="stroke:#000000;stroke-width:0.5;" x="552.65484375" xlink:href="#mcb0005524f" y="169.789831087"/>
      </g>
     </g>
     <g id="text_17">
      <!-- 1.2 -->
      <g transform="translate(31.43375 173.101081087)scale(0.12 -0.12)">
       <use xlink:href="#BitstreamVeraSans-Roman-31"/>
       <use x="63.623046875" xlink:href="#BitstreamVeraSans-Roman-2e"/>
       <use x="95.41015625" xlink:href="#BitstreamVeraSans-Roman-32"/>
      </g>
     </g>
    </g>
   </g>
   <g id="text_18">
    <!-- Pupil Diameter in Stress Trials -->
    <defs>
     <path id="BitstreamVeraSans-Roman-20"/>
     <path d="
M53.5156 70.5156
L53.5156 60.8906
Q47.9062 63.5781 42.9219 64.8906
Q37.9375 66.2188 33.2969 66.2188
Q25.25 66.2188 20.875 63.0938
Q16.5 59.9688 16.5 54.2031
Q16.5 49.3594 19.4062 46.8906
Q22.3125 44.4375 30.4219 42.9219
L36.375 41.7031
Q47.4062 39.5938 52.6562 34.2969
Q57.9062 29 57.9062 20.125
Q57.9062 9.51562 50.7969 4.04688
Q43.7031 -1.42188 29.9844 -1.42188
Q24.8125 -1.42188 18.9688 -0.25
Q13.1406 0.921875 6.89062 3.21875
L6.89062 13.375
Q12.8906 10.0156 18.6562 8.29688
Q24.4219 6.59375 29.9844 6.59375
Q38.4219 6.59375 43.0156 9.90625
Q47.6094 13.2344 47.6094 19.3906
Q47.6094 24.75 44.3125 27.7812
Q41.0156 30.8125 33.5 32.3281
L27.4844 33.5
Q16.4531 35.6875 11.5156 40.375
Q6.59375 45.0625 6.59375 53.4219
Q6.59375 63.0938 13.4062 68.6562
Q20.2188 74.2188 32.1719 74.2188
Q37.3125 74.2188 42.625 73.2812
Q47.9531 72.3594 53.5156 70.5156" id="BitstreamVeraSans-Roman-53"/>
     <path d="
M41.1094 46.2969
Q39.5938 47.1719 37.8125 47.5781
Q36.0312 48 33.8906 48
Q26.2656 48 22.1875 43.0469
Q18.1094 38.0938 18.1094 28.8125
L18.1094 0
L9.07812 0
L9.07812 54.6875
L18.1094 54.6875
L18.1094 46.1875
Q20.9531 51.1719 25.4844 53.5781
Q30.0312 56 36.5312 56
Q37.4531 56 38.5781 55.875
Q39.7031 55.7656 41.0625 55.5156
z
" id="BitstreamVeraSans-Roman-72"/>
     <path d="
M52 44.1875
Q55.375 50.25 60.0625 53.125
Q64.75 56 71.0938 56
Q79.6406 56 84.2812 50.0156
Q88.9219 44.0469 88.9219 33.0156
L88.9219 0
L79.8906 0
L79.8906 32.7188
Q79.8906 40.5781 77.0938 44.375
Q74.3125 48.1875 68.6094 48.1875
Q61.625 48.1875 57.5625 43.5469
Q53.5156 38.9219 53.5156 30.9062
L53.5156 0
L44.4844 0
L44.4844 32.7188
Q44.4844 40.625 41.7031 44.4062
Q38.9219 48.1875 33.1094 48.1875
Q26.2188 48.1875 22.1562 43.5312
Q18.1094 38.875 18.1094 30.9062
L18.1094 0
L9.07812 0
L9.07812 54.6875
L18.1094 54.6875
L18.1094 46.1875
Q21.1875 51.2188 25.4844 53.6094
Q29.7812 56 35.6875 56
Q41.6562 56 45.8281 52.9688
Q50 49.9531 52 44.1875" id="BitstreamVeraSans-Roman-6d"/>
     <path d="
M9.42188 75.9844
L18.4062 75.9844
L18.4062 0
L9.42188 0
z
" id="BitstreamVeraSans-Roman-6c"/>
     <path d="
M19.6719 64.7969
L19.6719 37.4062
L32.0781 37.4062
Q38.9688 37.4062 42.7188 40.9688
Q46.4844 44.5312 46.4844 51.125
Q46.4844 57.6719 42.7188 61.2344
Q38.9688 64.7969 32.0781 64.7969
z

M9.8125 72.9062
L32.0781 72.9062
Q44.3438 72.9062 50.6094 67.3594
Q56.8906 61.8125 56.8906 51.125
Q56.8906 40.3281 50.6094 34.8125
Q44.3438 29.2969 32.0781 29.2969
L19.6719 29.2969
L19.6719 0
L9.8125 0
z
" id="BitstreamVeraSans-Roman-50"/>
     <path d="
M54.8906 33.0156
L54.8906 0
L45.9062 0
L45.9062 32.7188
Q45.9062 40.4844 42.875 44.3281
Q39.8438 48.1875 33.7969 48.1875
Q26.5156 48.1875 22.3125 43.5469
Q18.1094 38.9219 18.1094 30.9062
L18.1094 0
L9.07812 0
L9.07812 54.6875
L18.1094 54.6875
L18.1094 46.1875
Q21.3438 51.125 25.7031 53.5625
Q30.0781 56 35.7969 56
Q45.2188 56 50.0469 50.1719
Q54.8906 44.3438 54.8906 33.0156" id="BitstreamVeraSans-Roman-6e"/>
     <path d="
M19.6719 64.7969
L19.6719 8.10938
L31.5938 8.10938
Q46.6875 8.10938 53.6875 14.9375
Q60.6875 21.7812 60.6875 36.5312
Q60.6875 51.1719 53.6875 57.9844
Q46.6875 64.7969 31.5938 64.7969
z

M9.8125 72.9062
L30.0781 72.9062
Q51.2656 72.9062 61.1719 64.0938
Q71.0938 55.2812 71.0938 36.5312
Q71.0938 17.6719 61.125 8.82812
Q51.1719 0 30.0781 0
L9.8125 0
z
" id="BitstreamVeraSans-Roman-44"/>
     <path d="
M9.42188 54.6875
L18.4062 54.6875
L18.4062 0
L9.42188 0
z

M9.42188 75.9844
L18.4062 75.9844
L18.4062 64.5938
L9.42188 64.5938
z
" id="BitstreamVeraSans-Roman-69"/>
     <path d="
M56.2031 29.5938
L56.2031 25.2031
L14.8906 25.2031
Q15.4844 15.9219 20.4844 11.0625
Q25.4844 6.20312 34.4219 6.20312
Q39.5938 6.20312 44.4531 7.46875
Q49.3125 8.73438 54.1094 11.2812
L54.1094 2.78125
Q49.2656 0.734375 44.1875 -0.34375
Q39.1094 -1.42188 33.8906 -1.42188
Q20.7969 -1.42188 13.1562 6.1875
Q5.51562 13.8125 5.51562 26.8125
Q5.51562 40.2344 12.7656 48.1094
Q20.0156 56 32.3281 56
Q43.3594 56 49.7812 48.8906
Q56.2031 41.7969 56.2031 29.5938
M47.2188 32.2344
Q47.125 39.5938 43.0938 43.9844
Q39.0625 48.3906 32.4219 48.3906
Q24.9062 48.3906 20.3906 44.1406
Q15.875 39.8906 15.1875 32.1719
z
" id="BitstreamVeraSans-Roman-65"/>
     <path d="
M-0.296875 72.9062
L61.375 72.9062
L61.375 64.5938
L35.5 64.5938
L35.5 0
L25.5938 0
L25.5938 64.5938
L-0.296875 64.5938
z
" id="BitstreamVeraSans-Roman-54"/>
     <path d="
M18.3125 70.2188
L18.3125 54.6875
L36.8125 54.6875
L36.8125 47.7031
L18.3125 47.7031
L18.3125 18.0156
Q18.3125 11.3281 20.1406 9.42188
Q21.9688 7.51562 27.5938 7.51562
L36.8125 7.51562
L36.8125 0
L27.5938 0
Q17.1875 0 13.2344 3.875
Q9.28125 7.76562 9.28125 18.0156
L9.28125 47.7031
L2.6875 47.7031
L2.6875 54.6875
L9.28125 54.6875
L9.28125 70.2188
z
" id="BitstreamVeraSans-Roman-74"/>
     <path d="
M8.5 21.5781
L8.5 54.6875
L17.4844 54.6875
L17.4844 21.9219
Q17.4844 14.1562 20.5 10.2656
Q23.5312 6.39062 29.5938 6.39062
Q36.8594 6.39062 41.0781 11.0312
Q45.3125 15.6719 45.3125 23.6875
L45.3125 54.6875
L54.2969 54.6875
L54.2969 0
L45.3125 0
L45.3125 8.40625
Q42.0469 3.42188 37.7188 1
Q33.4062 -1.42188 27.6875 -1.42188
Q18.2656 -1.42188 13.375 4.4375
Q8.5 10.2969 8.5 21.5781" id="BitstreamVeraSans-Roman-75"/>
     <path d="
M34.2812 27.4844
Q23.3906 27.4844 19.1875 25
Q14.9844 22.5156 14.9844 16.5
Q14.9844 11.7188 18.1406 8.90625
Q21.2969 6.10938 26.7031 6.10938
Q34.1875 6.10938 38.7031 11.4062
Q43.2188 16.7031 43.2188 25.4844
L43.2188 27.4844
z

M52.2031 31.2031
L52.2031 0
L43.2188 0
L43.2188 8.29688
Q40.1406 3.32812 35.5469 0.953125
Q30.9531 -1.42188 24.3125 -1.42188
Q15.9219 -1.42188 10.9531 3.29688
Q6 8.01562 6 15.9219
Q6 25.1406 12.1719 29.8281
Q18.3594 34.5156 30.6094 34.5156
L43.2188 34.5156
L43.2188 35.4062
Q43.2188 41.6094 39.1406 45
Q35.0625 48.3906 27.6875 48.3906
Q23 48.3906 18.5469 47.2656
Q14.1094 46.1406 10.0156 43.8906
L10.0156 52.2031
Q14.9375 54.1094 19.5781 55.0469
Q24.2188 56 28.6094 56
Q40.4844 56 46.3438 49.8438
Q52.2031 43.7031 52.2031 31.2031" id="BitstreamVeraSans-Roman-61"/>
     <path d="
M44.2812 53.0781
L44.2812 44.5781
Q40.4844 46.5312 36.375 47.5
Q32.2812 48.4844 27.875 48.4844
Q21.1875 48.4844 17.8438 46.4375
Q14.5 44.3906 14.5 40.2812
Q14.5 37.1562 16.8906 35.375
Q19.2812 33.5938 26.5156 31.9844
L29.5938 31.2969
Q39.1562 29.25 43.1875 25.5156
Q47.2188 21.7812 47.2188 15.0938
Q47.2188 7.46875 41.1875 3.01562
Q35.1562 -1.42188 24.6094 -1.42188
Q20.2188 -1.42188 15.4531 -0.5625
Q10.6875 0.296875 5.42188 2
L5.42188 11.2812
Q10.4062 8.6875 15.2344 7.39062
Q20.0625 6.10938 24.8125 6.10938
Q31.1562 6.10938 34.5625 8.28125
Q37.9844 10.4531 37.9844 14.4062
Q37.9844 18.0625 35.5156 20.0156
Q33.0625 21.9688 24.7031 23.7812
L21.5781 24.5156
Q13.2344 26.2656 9.51562 29.9062
Q5.8125 33.5469 5.8125 39.8906
Q5.8125 47.6094 11.2812 51.7969
Q16.75 56 26.8125 56
Q31.7812 56 36.1719 55.2656
Q40.5781 54.5469 44.2812 53.0781" id="BitstreamVeraSans-Roman-73"/>
     <path d="
M18.1094 8.20312
L18.1094 -20.7969
L9.07812 -20.7969
L9.07812 54.6875
L18.1094 54.6875
L18.1094 46.3906
Q20.9531 51.2656 25.2656 53.625
Q29.5938 56 35.5938 56
Q45.5625 56 51.7812 48.0938
Q58.0156 40.1875 58.0156 27.2969
Q58.0156 14.4062 51.7812 6.48438
Q45.5625 -1.42188 35.5938 -1.42188
Q29.5938 -1.42188 25.2656 0.953125
Q20.9531 3.32812 18.1094 8.20312
M48.6875 27.2969
Q48.6875 37.2031 44.6094 42.8438
Q40.5312 48.4844 33.4062 48.4844
Q26.2656 48.4844 22.1875 42.8438
Q18.1094 37.2031 18.1094 27.2969
Q18.1094 17.3906 22.1875 11.75
Q26.2656 6.10938 33.4062 6.10938
Q40.5312 6.10938 44.6094 11.75
Q48.6875 17.3906 48.6875 27.2969" id="BitstreamVeraSans-Roman-70"/>
    </defs>
    <g transform="translate(195.416296875 159.095958946)scale(0.144 -0.144)">
     <use xlink:href="#BitstreamVeraSans-Roman-50"/>
     <use x="58.552734375" xlink:href="#BitstreamVeraSans-Roman-75"/>
     <use x="121.931640625" xlink:href="#BitstreamVeraSans-Roman-70"/>
     <use x="185.408203125" xlink:href="#BitstreamVeraSans-Roman-69"/>
     <use x="213.19140625" xlink:href="#BitstreamVeraSans-Roman-6c"/>
     <use x="240.974609375" xlink:href="#BitstreamVeraSans-Roman-20"/>
     <use x="272.76171875" xlink:href="#BitstreamVeraSans-Roman-44"/>
     <use x="349.763671875" xlink:href="#BitstreamVeraSans-Roman-69"/>
     <use x="377.546875" xlink:href="#BitstreamVeraSans-Roman-61"/>
     <use x="438.826171875" xlink:href="#BitstreamVeraSans-Roman-6d"/>
     <use x="536.23828125" xlink:href="#BitstreamVeraSans-Roman-65"/>
     <use x="597.76171875" xlink:href="#BitstreamVeraSans-Roman-74"/>
     <use x="636.970703125" xlink:href="#BitstreamVeraSans-Roman-65"/>
     <use x="698.494140625" xlink:href="#BitstreamVeraSans-Roman-72"/>
     <use x="739.607421875" xlink:href="#BitstreamVeraSans-Roman-20"/>
     <use x="771.39453125" xlink:href="#BitstreamVeraSans-Roman-69"/>
     <use x="799.177734375" xlink:href="#BitstreamVeraSans-Roman-6e"/>
     <use x="862.556640625" xlink:href="#BitstreamVeraSans-Roman-20"/>
     <use x="894.34375" xlink:href="#BitstreamVeraSans-Roman-53"/>
     <use x="957.8203125" xlink:href="#BitstreamVeraSans-Roman-74"/>
     <use x="997.029296875" xlink:href="#BitstreamVeraSans-Roman-72"/>
     <use x="1035.89257812" xlink:href="#BitstreamVeraSans-Roman-65"/>
     <use x="1097.41601562" xlink:href="#BitstreamVeraSans-Roman-73"/>
     <use x="1149.515625" xlink:href="#BitstreamVeraSans-Roman-73"/>
     <use x="1201.61523438" xlink:href="#BitstreamVeraSans-Roman-20"/>
     <use x="1233.40234375" xlink:href="#BitstreamVeraSans-Roman-54"/>
     <use x="1279.73632812" xlink:href="#BitstreamVeraSans-Roman-72"/>
     <use x="1320.84960938" xlink:href="#BitstreamVeraSans-Roman-69"/>
     <use x="1348.6328125" xlink:href="#BitstreamVeraSans-Roman-61"/>
     <use x="1409.91210938" xlink:href="#BitstreamVeraSans-Roman-6c"/>
     <use x="1437.6953125" xlink:href="#BitstreamVeraSans-Roman-73"/>
    </g>
   </g>
  </g>
  <g id="axes_2">
   <g id="patch_7">
    <path d="
M51.9975 114.168
L552.655 114.168
L552.655 28.76
L51.9975 28.76
z
" style="fill:#ffffff;"/>
   </g>
   <g id="line2d_37">
    <path clip-path="url(#p70c5e6692d)" d="
M56.1696 75.7037
L60.3418 78.6498
L64.5139 80.3559
L68.6861 77.1267
L72.8582 76.7193
L77.0304 83.2791
L81.2025 86.1365
L85.3747 82.5133
L89.5468 70.2564
L93.7189 79.3905
L97.8911 77.3166
L102.063 81.4004
L106.235 70.6364
L110.408 70.7495
L114.58 82.2155
L118.752 74.2717
L122.924 74.4336
L127.096 75.8989
L131.268 82.3645
L135.44 75.2483
L139.613 79.2045
L143.785 83.879
L147.957 64.8187
L152.129 74.1814
L156.301 78.305
L160.473 87.2363
L164.645 79.5625
L168.818 75.9347
L172.99 75.4256
L177.162 82.0744
L181.334 88.0171
L185.506 81.9129
L189.678 79.0437
L193.85 76.56
L198.023 84.5354
L202.195 83.7208
L206.367 75.9962
L210.539 84.1146
L214.711 81.3273
L218.883 80.5903
L223.055 81.2564
L227.228 80.0787
L231.4 83.2157
L235.572 73.8328
L239.744 77.4475
L243.916 78.4611
L248.088 76.6088
L252.26 77.9627
L256.433 81.1066
L260.605 79.5353
L264.777 83.9153
L268.949 76.4074
L273.121 73.1557
L277.293 84.5588
L281.465 76.577
L285.638 85.9298
L289.81 78.6951
L293.982 82.6749
L298.154 89.0626
L302.326 75.8728
L306.498 77.7541
L310.67 85.4768
L314.843 84.9502
L319.015 80.1539
L323.187 78.3809
L327.359 79.1476
L331.531 80.2905
L335.703 83.7571
L339.875 76.5302
L344.048 79.1468
L348.22 74.7238
L352.392 84.2775
L356.564 78.59
L360.736 77.4813
L364.908 74.3724
L369.08 92.7937
L373.253 82.8608
L377.425 79.0533
L381.597 85.1141
L385.769 87.4342
L389.941 83.5367
L394.113 84.372
L398.285 74.8533
L402.458 73.7773
L406.63 78.6736
L410.802 80.9851
L414.974 79.3454
L419.146 86.5526
L423.318 87.0236
L427.491 88.438
L431.663 71.3233
L435.835 82.2131
L440.007 85.2473
L444.179 80.4341
L448.351 85.7639
L452.523 79.6291
L456.696 77.4963
L460.868 85.7747
L465.04 85.3318
L469.212 85.3125
L473.384 81.0151" style="fill:none;stroke:#0000ff;stroke-linecap:square;"/>
   </g>
   <g id="line2d_38">
    <path clip-path="url(#p70c5e6692d)" d="
M56.1696 77.5993
L60.3418 77.6486
L64.5139 77.698
L68.6861 77.7474
L72.8582 77.7967
L77.0304 77.8461
L81.2025 77.8955
L85.3747 77.9449
L89.5468 77.9942
L93.7189 78.0436
L97.8911 78.093
L102.063 78.1423
L106.235 78.1917
L110.408 78.2411
L114.58 78.2905
L118.752 78.3398
L122.924 78.3892
L127.096 78.4386
L131.268 78.4879
L135.44 78.5373
L139.613 78.5867
L143.785 78.6361
L147.957 78.6854
L152.129 78.7348
L156.301 78.7842
L160.473 78.8335
L164.645 78.8829
L168.818 78.9323
L172.99 78.9817
L177.162 79.031
L181.334 79.0804
L185.506 79.1298
L189.678 79.1791
L193.85 79.2285
L198.023 79.2779
L202.195 79.3273
L206.367 79.3766
L210.539 79.426
L214.711 79.4754
L218.883 79.5247
L223.055 79.5741
L227.228 79.6235
L231.4 79.6729
L235.572 79.7222
L239.744 79.7716
L243.916 79.821
L248.088 79.8703
L252.26 79.9197
L256.433 79.9691
L260.605 80.0185
L264.777 80.0678
L268.949 80.1172
L273.121 80.1666
L277.293 80.2159
L281.465 80.2653
L285.638 80.3147
L289.81 80.3641
L293.982 80.4134
L298.154 80.4628
L302.326 80.5122
L306.498 80.5615
L310.67 80.6109
L314.843 80.6603
L319.015 80.7096
L323.187 80.759
L327.359 80.8084
L331.531 80.8578
L335.703 80.9071
L339.875 80.9565
L344.048 81.0059
L348.22 81.0552
L352.392 81.1046
L356.564 81.154
L360.736 81.2034
L364.908 81.2527
L369.08 81.3021
L373.253 81.3515
L377.425 81.4008
L381.597 81.4502
L385.769 81.4996
L389.941 81.549
L394.113 81.5983
L398.285 81.6477
L402.458 81.6971
L406.63 81.7464
L410.802 81.7958
L414.974 81.8452
L419.146 81.8946
L423.318 81.9439
L427.491 81.9933
L431.663 82.0427
L435.835 82.092
L440.007 82.1414
L444.179 82.1908
L448.351 82.2402
L452.523 82.2895
L456.696 82.3389
L460.868 82.3883
L465.04 82.4376
L469.212 82.487
L473.384 82.5364" style="fill:none;stroke:#0000ff;stroke-dasharray:6.000000,6.000000;stroke-dashoffset:0.0;"/>
   </g>
   <g id="patch_8">
    <path d="
M51.9975 28.76
L552.655 28.76" style="fill:none;stroke:#000000;stroke-linecap:square;stroke-linejoin:miter;"/>
   </g>
   <g id="patch_9">
    <path d="
M552.655 114.168
L552.655 28.76" style="fill:none;stroke:#000000;stroke-linecap:square;stroke-linejoin:miter;"/>
   </g>
   <g id="patch_10">
    <path d="
M51.9975 114.168
L552.655 114.168" style="fill:none;stroke:#000000;stroke-linecap:square;stroke-linejoin:miter;"/>
   </g>
   <g id="patch_11">
    <path d="
M51.9975 114.168
L51.9975 28.76" style="fill:none;stroke:#000000;stroke-linecap:square;stroke-linejoin:miter;"/>
   </g>
   <g id="matplotlib.axis_3">
    <g id="xtick_10">
     <g id="line2d_39">
      <g>
       <use style="stroke:#000000;stroke-width:0.5;" x="51.9975" xlink:href="#m93b0483c22" y="114.168082108"/>
      </g>
     </g>
     <g id="line2d_40">
      <g>
       <use style="stroke:#000000;stroke-width:0.5;" x="51.9975" xlink:href="#m741efc42ff" y="28.76"/>
      </g>
     </g>
     <g id="text_19">
      <!-- 0 -->
      <g transform="translate(48.9740625 127.286207108)scale(0.12 -0.12)">
       <use xlink:href="#BitstreamVeraSans-Roman-30"/>
      </g>
     </g>
    </g>
    <g id="xtick_11">
     <g id="line2d_41">
      <g>
       <use style="stroke:#000000;stroke-width:0.5;" x="135.440390625" xlink:href="#m93b0483c22" y="114.168082108"/>
      </g>
     </g>
     <g id="line2d_42">
      <g>
       <use style="stroke:#000000;stroke-width:0.5;" x="135.440390625" xlink:href="#m741efc42ff" y="28.76"/>
      </g>
     </g>
     <g id="text_20">
      <!-- 20 -->
      <g transform="translate(128.643515625 127.286207108)scale(0.12 -0.12)">
       <use xlink:href="#BitstreamVeraSans-Roman-32"/>
       <use x="63.623046875" xlink:href="#BitstreamVeraSans-Roman-30"/>
      </g>
     </g>
    </g>
    <g id="xtick_12">
     <g id="line2d_43">
      <g>
       <use style="stroke:#000000;stroke-width:0.5;" x="218.88328125" xlink:href="#m93b0483c22" y="114.168082108"/>
      </g>
     </g>
     <g id="line2d_44">
      <g>
       <use style="stroke:#000000;stroke-width:0.5;" x="218.88328125" xlink:href="#m741efc42ff" y="28.76"/>
      </g>
     </g>
     <g id="text_21">
      <!-- 40 -->
      <g transform="translate(211.94015625 127.286207108)scale(0.12 -0.12)">
       <use xlink:href="#BitstreamVeraSans-Roman-34"/>
       <use x="63.623046875" xlink:href="#BitstreamVeraSans-Roman-30"/>
      </g>
     </g>
    </g>
    <g id="xtick_13">
     <g id="line2d_45">
      <g>
       <use style="stroke:#000000;stroke-width:0.5;" x="302.326171875" xlink:href="#m93b0483c22" y="114.168082108"/>
      </g>
     </g>
     <g id="line2d_46">
      <g>
       <use style="stroke:#000000;stroke-width:0.5;" x="302.326171875" xlink:href="#m741efc42ff" y="28.76"/>
      </g>
     </g>
     <g id="text_22">
      <!-- 60 -->
      <g transform="translate(295.508671875 127.286207108)scale(0.12 -0.12)">
       <use xlink:href="#BitstreamVeraSans-Roman-36"/>
       <use x="63.623046875" xlink:href="#BitstreamVeraSans-Roman-30"/>
      </g>
     </g>
    </g>
    <g id="xtick_14">
     <g id="line2d_47">
      <g>
       <use style="stroke:#000000;stroke-width:0.5;" x="385.7690625" xlink:href="#m93b0483c22" y="114.168082108"/>
      </g>
     </g>
     <g id="line2d_48">
      <g>
       <use style="stroke:#000000;stroke-width:0.5;" x="385.7690625" xlink:href="#m741efc42ff" y="28.76"/>
      </g>
     </g>
     <g id="text_23">
      <!-- 80 -->
      <g transform="translate(378.939375 127.286207108)scale(0.12 -0.12)">
       <use xlink:href="#BitstreamVeraSans-Roman-38"/>
       <use x="63.623046875" xlink:href="#BitstreamVeraSans-Roman-30"/>
      </g>
     </g>
    </g>
    <g id="xtick_15">
     <g id="line2d_49">
      <g>
       <use style="stroke:#000000;stroke-width:0.5;" x="469.211953125" xlink:href="#m93b0483c22" y="114.168082108"/>
      </g>
     </g>
     <g id="line2d_50">
      <g>
       <use style="stroke:#000000;stroke-width:0.5;" x="469.211953125" xlink:href="#m741efc42ff" y="28.76"/>
      </g>
     </g>
     <g id="text_24">
      <!-- 100 -->
      <g transform="translate(458.816953125 127.286207108)scale(0.12 -0.12)">
       <use xlink:href="#BitstreamVeraSans-Roman-31"/>
       <use x="63.623046875" xlink:href="#BitstreamVeraSans-Roman-30"/>
       <use x="127.24609375" xlink:href="#BitstreamVeraSans-Roman-30"/>
      </g>
     </g>
    </g>
    <g id="xtick_16">
     <g id="line2d_51">
      <g>
       <use style="stroke:#000000;stroke-width:0.5;" x="552.65484375" xlink:href="#m93b0483c22" y="114.168082108"/>
      </g>
     </g>
     <g id="line2d_52">
      <g>
       <use style="stroke:#000000;stroke-width:0.5;" x="552.65484375" xlink:href="#m741efc42ff" y="28.76"/>
      </g>
     </g>
     <g id="text_25">
      <!-- 120 -->
      <g transform="translate(542.25984375 127.286207108)scale(0.12 -0.12)">
       <use xlink:href="#BitstreamVeraSans-Roman-31"/>
       <use x="63.623046875" xlink:href="#BitstreamVeraSans-Roman-32"/>
       <use x="127.24609375" xlink:href="#BitstreamVeraSans-Roman-30"/>
      </g>
     </g>
    </g>
   </g>
   <g id="matplotlib.axis_4">
    <g id="ytick_9">
     <g id="line2d_53">
      <g>
       <use style="stroke:#000000;stroke-width:0.5;" x="51.9975" xlink:href="#m728421d6d4" y="114.168082108"/>
      </g>
     </g>
     <g id="line2d_54">
      <g>
       <use style="stroke:#000000;stroke-width:0.5;" x="552.65484375" xlink:href="#mcb0005524f" y="114.168082108"/>
      </g>
     </g>
     <g id="text_26">
      <!-- 0.5 -->
      <g transform="translate(30.753125 117.479332108)scale(0.12 -0.12)">
       <use xlink:href="#BitstreamVeraSans-Roman-30"/>
       <use x="63.623046875" xlink:href="#BitstreamVeraSans-Roman-2e"/>
       <use x="95.41015625" xlink:href="#BitstreamVeraSans-Roman-35"/>
      </g>
     </g>
    </g>
    <g id="ytick_10">
     <g id="line2d_55">
      <g>
       <use style="stroke:#000000;stroke-width:0.5;" x="51.9975" xlink:href="#m728421d6d4" y="102.780337827"/>
      </g>
     </g>
     <g id="line2d_56">
      <g>
       <use style="stroke:#000000;stroke-width:0.5;" x="552.65484375" xlink:href="#mcb0005524f" y="102.780337827"/>
      </g>
     </g>
     <g id="text_27">
      <!-- 0.6 -->
      <g transform="translate(30.460625 106.091587827)scale(0.12 -0.12)">
       <use xlink:href="#BitstreamVeraSans-Roman-30"/>
       <use x="63.623046875" xlink:href="#BitstreamVeraSans-Roman-2e"/>
       <use x="95.41015625" xlink:href="#BitstreamVeraSans-Roman-36"/>
      </g>
     </g>
    </g>
    <g id="ytick_11">
     <g id="line2d_57">
      <g>
       <use style="stroke:#000000;stroke-width:0.5;" x="51.9975" xlink:href="#m728421d6d4" y="91.3925935458"/>
      </g>
     </g>
     <g id="line2d_58">
      <g>
       <use style="stroke:#000000;stroke-width:0.5;" x="552.65484375" xlink:href="#mcb0005524f" y="91.3925935458"/>
      </g>
     </g>
     <g id="text_28">
      <!-- 0.7 -->
      <g transform="translate(30.730625 94.7038435458)scale(0.12 -0.12)">
       <use xlink:href="#BitstreamVeraSans-Roman-30"/>
       <use x="63.623046875" xlink:href="#BitstreamVeraSans-Roman-2e"/>
       <use x="95.41015625" xlink:href="#BitstreamVeraSans-Roman-37"/>
      </g>
     </g>
    </g>
    <g id="ytick_12">
     <g id="line2d_59">
      <g>
       <use style="stroke:#000000;stroke-width:0.5;" x="51.9975" xlink:href="#m728421d6d4" y="80.0048492647"/>
      </g>
     </g>
     <g id="line2d_60">
      <g>
       <use style="stroke:#000000;stroke-width:0.5;" x="552.65484375" xlink:href="#mcb0005524f" y="80.0048492647"/>
      </g>
     </g>
     <g id="text_29">
      <!-- 0.8 -->
      <g transform="translate(30.52625 83.3160992647)scale(0.12 -0.12)">
       <use xlink:href="#BitstreamVeraSans-Roman-30"/>
       <use x="63.623046875" xlink:href="#BitstreamVeraSans-Roman-2e"/>
       <use x="95.41015625" xlink:href="#BitstreamVeraSans-Roman-38"/>
      </g>
     </g>
    </g>
    <g id="ytick_13">
     <g id="line2d_61">
      <g>
       <use style="stroke:#000000;stroke-width:0.5;" x="51.9975" xlink:href="#m728421d6d4" y="68.6171049837"/>
      </g>
     </g>
     <g id="line2d_62">
      <g>
       <use style="stroke:#000000;stroke-width:0.5;" x="552.65484375" xlink:href="#mcb0005524f" y="68.6171049837"/>
      </g>
     </g>
     <g id="text_30">
      <!-- 0.9 -->
      <g transform="translate(30.54875 71.9283549837)scale(0.12 -0.12)">
       <use xlink:href="#BitstreamVeraSans-Roman-30"/>
       <use x="63.623046875" xlink:href="#BitstreamVeraSans-Roman-2e"/>
       <use x="95.41015625" xlink:href="#BitstreamVeraSans-Roman-39"/>
      </g>
     </g>
    </g>
    <g id="ytick_14">
     <g id="line2d_63">
      <g>
       <use style="stroke:#000000;stroke-width:0.5;" x="51.9975" xlink:href="#m728421d6d4" y="57.2293607026"/>
      </g>
     </g>
     <g id="line2d_64">
      <g>
       <use style="stroke:#000000;stroke-width:0.5;" x="552.65484375" xlink:href="#mcb0005524f" y="57.2293607026"/>
      </g>
     </g>
     <g id="text_31">
      <!-- 1.0 -->
      <g transform="translate(31.02875 60.5406107026)scale(0.12 -0.12)">
       <use xlink:href="#BitstreamVeraSans-Roman-31"/>
       <use x="63.623046875" xlink:href="#BitstreamVeraSans-Roman-2e"/>
       <use x="95.41015625" xlink:href="#BitstreamVeraSans-Roman-30"/>
      </g>
     </g>
    </g>
    <g id="ytick_15">
     <g id="line2d_65">
      <g>
       <use style="stroke:#000000;stroke-width:0.5;" x="51.9975" xlink:href="#m728421d6d4" y="45.8416164216"/>
      </g>
     </g>
     <g id="line2d_66">
      <g>
       <use style="stroke:#000000;stroke-width:0.5;" x="552.65484375" xlink:href="#mcb0005524f" y="45.8416164216"/>
      </g>
     </g>
     <g id="text_32">
      <!-- 1.1 -->
      <g transform="translate(31.34 49.1528664216)scale(0.12 -0.12)">
       <use xlink:href="#BitstreamVeraSans-Roman-31"/>
       <use x="63.623046875" xlink:href="#BitstreamVeraSans-Roman-2e"/>
       <use x="95.41015625" xlink:href="#BitstreamVeraSans-Roman-31"/>
      </g>
     </g>
    </g>
    <g id="ytick_16">
     <g id="line2d_67">
      <g>
       <use style="stroke:#000000;stroke-width:0.5;" x="51.9975" xlink:href="#m728421d6d4" y="34.4538721405"/>
      </g>
     </g>
     <g id="line2d_68">
      <g>
       <use style="stroke:#000000;stroke-width:0.5;" x="552.65484375" xlink:href="#mcb0005524f" y="34.4538721405"/>
      </g>
     </g>
     <g id="text_33">
      <!-- 1.2 -->
      <g transform="translate(31.43375 37.7651221405)scale(0.12 -0.12)">
       <use xlink:href="#BitstreamVeraSans-Roman-31"/>
       <use x="63.623046875" xlink:href="#BitstreamVeraSans-Roman-2e"/>
       <use x="95.41015625" xlink:href="#BitstreamVeraSans-Roman-32"/>
      </g>
     </g>
    </g>
   </g>
   <g id="text_34">
    <!-- Pupil Diameter in Regular Trials before Stress -->
    <defs>
     <path d="
M44.3906 34.1875
Q47.5625 33.1094 50.5625 29.5938
Q53.5625 26.0781 56.5938 19.9219
L66.6094 0
L56 0
L46.6875 18.7031
Q43.0625 26.0312 39.6719 28.4219
Q36.2812 30.8125 30.4219 30.8125
L19.6719 30.8125
L19.6719 0
L9.8125 0
L9.8125 72.9062
L32.0781 72.9062
Q44.5781 72.9062 50.7344 67.6719
Q56.8906 62.4531 56.8906 51.9062
Q56.8906 45.0156 53.6875 40.4688
Q50.4844 35.9375 44.3906 34.1875
M19.6719 64.7969
L19.6719 38.9219
L32.0781 38.9219
Q39.2031 38.9219 42.8438 42.2188
Q46.4844 45.5156 46.4844 51.9062
Q46.4844 58.2969 42.8438 61.5469
Q39.2031 64.7969 32.0781 64.7969
z
" id="BitstreamVeraSans-Roman-52"/>
     <path d="
M37.1094 75.9844
L37.1094 68.5
L28.5156 68.5
Q23.6875 68.5 21.7969 66.5469
Q19.9219 64.5938 19.9219 59.5156
L19.9219 54.6875
L34.7188 54.6875
L34.7188 47.7031
L19.9219 47.7031
L19.9219 0
L10.8906 0
L10.8906 47.7031
L2.29688 47.7031
L2.29688 54.6875
L10.8906 54.6875
L10.8906 58.5
Q10.8906 67.625 15.1406 71.7969
Q19.3906 75.9844 28.6094 75.9844
z
" id="BitstreamVeraSans-Roman-66"/>
     <path d="
M45.4062 27.9844
Q45.4062 37.75 41.375 43.1094
Q37.3594 48.4844 30.0781 48.4844
Q22.8594 48.4844 18.8281 43.1094
Q14.7969 37.75 14.7969 27.9844
Q14.7969 18.2656 18.8281 12.8906
Q22.8594 7.51562 30.0781 7.51562
Q37.3594 7.51562 41.375 12.8906
Q45.4062 18.2656 45.4062 27.9844
M54.3906 6.78125
Q54.3906 -7.17188 48.1875 -13.9844
Q42 -20.7969 29.2031 -20.7969
Q24.4688 -20.7969 20.2656 -20.0938
Q16.0625 -19.3906 12.1094 -17.9219
L12.1094 -9.1875
Q16.0625 -11.3281 19.9219 -12.3438
Q23.7812 -13.375 27.7812 -13.375
Q36.625 -13.375 41.0156 -8.76562
Q45.4062 -4.15625 45.4062 5.17188
L45.4062 9.625
Q42.625 4.78125 38.2812 2.39062
Q33.9375 0 27.875 0
Q17.8281 0 11.6719 7.65625
Q5.51562 15.3281 5.51562 27.9844
Q5.51562 40.6719 11.6719 48.3281
Q17.8281 56 27.875 56
Q33.9375 56 38.2812 53.6094
Q42.625 51.2188 45.4062 46.3906
L45.4062 54.6875
L54.3906 54.6875
z
" id="BitstreamVeraSans-Roman-67"/>
     <path d="
M30.6094 48.3906
Q23.3906 48.3906 19.1875 42.75
Q14.9844 37.1094 14.9844 27.2969
Q14.9844 17.4844 19.1562 11.8438
Q23.3438 6.20312 30.6094 6.20312
Q37.7969 6.20312 41.9844 11.8594
Q46.1875 17.5312 46.1875 27.2969
Q46.1875 37.0156 41.9844 42.7031
Q37.7969 48.3906 30.6094 48.3906
M30.6094 56
Q42.3281 56 49.0156 48.375
Q55.7188 40.7656 55.7188 27.2969
Q55.7188 13.875 49.0156 6.21875
Q42.3281 -1.42188 30.6094 -1.42188
Q18.8438 -1.42188 12.1719 6.21875
Q5.51562 13.875 5.51562 27.2969
Q5.51562 40.7656 12.1719 48.375
Q18.8438 56 30.6094 56" id="BitstreamVeraSans-Roman-6f"/>
     <path d="
M48.6875 27.2969
Q48.6875 37.2031 44.6094 42.8438
Q40.5312 48.4844 33.4062 48.4844
Q26.2656 48.4844 22.1875 42.8438
Q18.1094 37.2031 18.1094 27.2969
Q18.1094 17.3906 22.1875 11.75
Q26.2656 6.10938 33.4062 6.10938
Q40.5312 6.10938 44.6094 11.75
Q48.6875 17.3906 48.6875 27.2969
M18.1094 46.3906
Q20.9531 51.2656 25.2656 53.625
Q29.5938 56 35.5938 56
Q45.5625 56 51.7812 48.0938
Q58.0156 40.1875 58.0156 27.2969
Q58.0156 14.4062 51.7812 6.48438
Q45.5625 -1.42188 35.5938 -1.42188
Q29.5938 -1.42188 25.2656 0.953125
Q20.9531 3.32812 18.1094 8.20312
L18.1094 0
L9.07812 0
L9.07812 75.9844
L18.1094 75.9844
z
" id="BitstreamVeraSans-Roman-62"/>
    </defs>
    <g transform="translate(140.055046875 23.76)scale(0.144 -0.144)">
     <use xlink:href="#BitstreamVeraSans-Roman-50"/>
     <use x="58.552734375" xlink:href="#BitstreamVeraSans-Roman-75"/>
     <use x="121.931640625" xlink:href="#BitstreamVeraSans-Roman-70"/>
     <use x="185.408203125" xlink:href="#BitstreamVeraSans-Roman-69"/>
     <use x="213.19140625" xlink:href="#BitstreamVeraSans-Roman-6c"/>
     <use x="240.974609375" xlink:href="#BitstreamVeraSans-Roman-20"/>
     <use x="272.76171875" xlink:href="#BitstreamVeraSans-Roman-44"/>
     <use x="349.763671875" xlink:href="#BitstreamVeraSans-Roman-69"/>
     <use x="377.546875" xlink:href="#BitstreamVeraSans-Roman-61"/>
     <use x="438.826171875" xlink:href="#BitstreamVeraSans-Roman-6d"/>
     <use x="536.23828125" xlink:href="#BitstreamVeraSans-Roman-65"/>
     <use x="597.76171875" xlink:href="#BitstreamVeraSans-Roman-74"/>
     <use x="636.970703125" xlink:href="#BitstreamVeraSans-Roman-65"/>
     <use x="698.494140625" xlink:href="#BitstreamVeraSans-Roman-72"/>
     <use x="739.607421875" xlink:href="#BitstreamVeraSans-Roman-20"/>
     <use x="771.39453125" xlink:href="#BitstreamVeraSans-Roman-69"/>
     <use x="799.177734375" xlink:href="#BitstreamVeraSans-Roman-6e"/>
     <use x="862.556640625" xlink:href="#BitstreamVeraSans-Roman-20"/>
     <use x="894.34375" xlink:href="#BitstreamVeraSans-Roman-52"/>
     <use x="959.326171875" xlink:href="#BitstreamVeraSans-Roman-65"/>
     <use x="1020.84960938" xlink:href="#BitstreamVeraSans-Roman-67"/>
     <use x="1084.32617188" xlink:href="#BitstreamVeraSans-Roman-75"/>
     <use x="1147.70507812" xlink:href="#BitstreamVeraSans-Roman-6c"/>
     <use x="1175.48828125" xlink:href="#BitstreamVeraSans-Roman-61"/>
     <use x="1236.76757812" xlink:href="#BitstreamVeraSans-Roman-72"/>
     <use x="1277.88085938" xlink:href="#BitstreamVeraSans-Roman-20"/>
     <use x="1309.66796875" xlink:href="#BitstreamVeraSans-Roman-54"/>
     <use x="1356.00195312" xlink:href="#BitstreamVeraSans-Roman-72"/>
     <use x="1397.11523438" xlink:href="#BitstreamVeraSans-Roman-69"/>
     <use x="1424.8984375" xlink:href="#BitstreamVeraSans-Roman-61"/>
     <use x="1486.17773438" xlink:href="#BitstreamVeraSans-Roman-6c"/>
     <use x="1513.9609375" xlink:href="#BitstreamVeraSans-Roman-73"/>
     <use x="1566.06054688" xlink:href="#BitstreamVeraSans-Roman-20"/>
     <use x="1597.84765625" xlink:href="#BitstreamVeraSans-Roman-62"/>
     <use x="1661.32421875" xlink:href="#BitstreamVeraSans-Roman-65"/>
     <use x="1722.84765625" xlink:href="#BitstreamVeraSans-Roman-66"/>
     <use x="1758.05273438" xlink:href="#BitstreamVeraSans-Roman-6f"/>
     <use x="1819.234375" xlink:href="#BitstreamVeraSans-Roman-72"/>
     <use x="1858.09765625" xlink:href="#BitstreamVeraSans-Roman-65"/>
     <use x="1919.62109375" xlink:href="#BitstreamVeraSans-Roman-20"/>
     <use x="1951.40820312" xlink:href="#BitstreamVeraSans-Roman-53"/>
     <use x="2014.88476562" xlink:href="#BitstreamVeraSans-Roman-74"/>
     <use x="2054.09375" xlink:href="#BitstreamVeraSans-Roman-72"/>
     <use x="2092.95703125" xlink:href="#BitstreamVeraSans-Roman-65"/>
     <use x="2154.48046875" xlink:href="#BitstreamVeraSans-Roman-73"/>
     <use x="2206.58007812" xlink:href="#BitstreamVeraSans-Roman-73"/>
    </g>
   </g>
  </g>
  <g id="axes_3">
   <g id="patch_12">
    <path d="
M51.9975 384.84
L552.655 384.84
L552.655 299.432
L51.9975 299.432
z
" style="fill:#ffffff;"/>
   </g>
   <g id="line2d_69">
    <path clip-path="url(#p849d3bb859)" d="
M59.1497 359.25
L66.302 355.896
L73.4542 362.159
L80.6065 354.895
L87.7587 357.294
L94.911 365.031
L102.063 356.563
L109.215 357.091
L116.368 364.587
L123.52 365.695
L130.672 357.278
L137.824 356.237
L144.977 363.628
L152.129 359.457
L159.281 366.561
L166.433 368.828
L173.586 360.793
L180.738 360.867
L187.89 355.818
L195.042 359.98
L202.195 365.48
L209.347 365.033
L216.499 364.159
L223.651 356.487
L230.804 351.76
L237.956 358.133
L245.108 363.726
L252.26 354.052
L259.413 351.14
L266.565 350.668
L273.717 360.288
L280.869 360.314
L288.022 358.039
L295.174 357.644
L302.326 360.996
L309.478 364.846
L316.631 361.306
L323.783 353.436
L330.935 353.958
L338.087 354.5
L345.24 357.402
L352.392 362
L359.544 364.829
L366.696 358.146
L373.849 360.383
L381.001 362.533
L388.153 361.615
L395.305 363.821
L402.458 359.83
L409.61 353.979
L416.762 366.839
L423.914 366.559
L431.067 361.294
L438.219 364.063
L445.371 364.349
L452.523 364.327
L459.676 358.401
L466.828 369.185
L473.98 362.897
L481.132 355.218
L488.285 369.945
L495.437 362.962
L502.589 365.728
L509.741 366.407
L516.894 372.053
L524.046 364.45
L531.198 369.409
L538.35 367.855
L545.503 369.194
L552.655 369.674" style="fill:none;stroke:#000000;stroke-linecap:square;"/>
   </g>
   <g id="line2d_70">
    <path clip-path="url(#p849d3bb859)" d="
M59.1497 357.745
L66.302 357.847
L73.4542 357.949
L80.6065 358.052
L87.7587 358.154
L94.911 358.256
L102.063 358.359
L109.215 358.461
L116.368 358.563
L123.52 358.666
L130.672 358.768
L137.824 358.87
L144.977 358.973
L152.129 359.075
L159.281 359.177
L166.433 359.279
L173.586 359.382
L180.738 359.484
L187.89 359.586
L195.042 359.689
L202.195 359.791
L209.347 359.893
L216.499 359.996
L223.651 360.098
L230.804 360.2
L237.956 360.303
L245.108 360.405
L252.26 360.507
L259.413 360.61
L266.565 360.712
L273.717 360.814
L280.869 360.916
L288.022 361.019
L295.174 361.121
L302.326 361.223
L309.478 361.326
L316.631 361.428
L323.783 361.53
L330.935 361.633
L338.087 361.735
L345.24 361.837
L352.392 361.94
L359.544 362.042
L366.696 362.144
L373.849 362.247
L381.001 362.349
L388.153 362.451
L395.305 362.553
L402.458 362.656
L409.61 362.758
L416.762 362.86
L423.914 362.963
L431.067 363.065
L438.219 363.167
L445.371 363.27
L452.523 363.372
L459.676 363.474
L466.828 363.577
L473.98 363.679
L481.132 363.781
L488.285 363.884
L495.437 363.986
L502.589 364.088
L509.741 364.19
L516.894 364.293
L524.046 364.395
L531.198 364.497
L538.35 364.6
L545.503 364.702
L552.655 364.804" style="fill:none;stroke:#000000;stroke-dasharray:6.000000,6.000000;stroke-dashoffset:0.0;"/>
   </g>
   <g id="patch_13">
    <path d="
M51.9975 299.432
L552.655 299.432" style="fill:none;stroke:#000000;stroke-linecap:square;stroke-linejoin:miter;"/>
   </g>
   <g id="patch_14">
    <path d="
M552.655 384.84
L552.655 299.432" style="fill:none;stroke:#000000;stroke-linecap:square;stroke-linejoin:miter;"/>
   </g>
   <g id="patch_15">
    <path d="
M51.9975 384.84
L552.655 384.84" style="fill:none;stroke:#000000;stroke-linecap:square;stroke-linejoin:miter;"/>
   </g>
   <g id="patch_16">
    <path d="
M51.9975 384.84
L51.9975 299.432" style="fill:none;stroke:#000000;stroke-linecap:square;stroke-linejoin:miter;"/>
   </g>
   <g id="matplotlib.axis_5">
    <g id="xtick_17">
     <g id="line2d_71">
      <g>
       <use style="stroke:#000000;stroke-width:0.5;" x="51.9975" xlink:href="#m93b0483c22" y="384.84"/>
      </g>
     </g>
     <g id="line2d_72">
      <g>
       <use style="stroke:#000000;stroke-width:0.5;" x="51.9975" xlink:href="#m741efc42ff" y="299.431917892"/>
      </g>
     </g>
     <g id="text_35">
      <!-- 0 -->
      <g transform="translate(48.9740625 397.958125)scale(0.12 -0.12)">
       <use xlink:href="#BitstreamVeraSans-Roman-30"/>
      </g>
     </g>
    </g>
    <g id="xtick_18">
     <g id="line2d_73">
      <g>
       <use style="stroke:#000000;stroke-width:0.5;" x="123.519977679" xlink:href="#m93b0483c22" y="384.84"/>
      </g>
     </g>
     <g id="line2d_74">
      <g>
       <use style="stroke:#000000;stroke-width:0.5;" x="123.519977679" xlink:href="#m741efc42ff" y="299.431917892"/>
      </g>
     </g>
     <g id="text_36">
      <!-- 10 -->
      <g transform="translate(116.942477679 397.958125)scale(0.12 -0.12)">
       <use xlink:href="#BitstreamVeraSans-Roman-31"/>
       <use x="63.623046875" xlink:href="#BitstreamVeraSans-Roman-30"/>
      </g>
     </g>
    </g>
    <g id="xtick_19">
     <g id="line2d_75">
      <g>
       <use style="stroke:#000000;stroke-width:0.5;" x="195.042455357" xlink:href="#m93b0483c22" y="384.84"/>
      </g>
     </g>
     <g id="line2d_76">
      <g>
       <use style="stroke:#000000;stroke-width:0.5;" x="195.042455357" xlink:href="#m741efc42ff" y="299.431917892"/>
      </g>
     </g>
     <g id="text_37">
      <!-- 20 -->
      <g transform="translate(188.245580357 397.958125)scale(0.12 -0.12)">
       <use xlink:href="#BitstreamVeraSans-Roman-32"/>
       <use x="63.623046875" xlink:href="#BitstreamVeraSans-Roman-30"/>
      </g>
     </g>
    </g>
    <g id="xtick_20">
     <g id="line2d_77">
      <g>
       <use style="stroke:#000000;stroke-width:0.5;" x="266.564933036" xlink:href="#m93b0483c22" y="384.84"/>
      </g>
     </g>
     <g id="line2d_78">
      <g>
       <use style="stroke:#000000;stroke-width:0.5;" x="266.564933036" xlink:href="#m741efc42ff" y="299.431917892"/>
      </g>
     </g>
     <g id="text_38">
      <!-- 30 -->
      <g transform="translate(259.785870536 397.958125)scale(0.12 -0.12)">
       <use xlink:href="#BitstreamVeraSans-Roman-33"/>
       <use x="63.623046875" xlink:href="#BitstreamVeraSans-Roman-30"/>
      </g>
     </g>
    </g>
    <g id="xtick_21">
     <g id="line2d_79">
      <g>
       <use style="stroke:#000000;stroke-width:0.5;" x="338.087410714" xlink:href="#m93b0483c22" y="384.84"/>
      </g>
     </g>
     <g id="line2d_80">
      <g>
       <use style="stroke:#000000;stroke-width:0.5;" x="338.087410714" xlink:href="#m741efc42ff" y="299.431917892"/>
      </g>
     </g>
     <g id="text_39">
      <!-- 40 -->
      <g transform="translate(331.144285714 397.958125)scale(0.12 -0.12)">
       <use xlink:href="#BitstreamVeraSans-Roman-34"/>
       <use x="63.623046875" xlink:href="#BitstreamVeraSans-Roman-30"/>
      </g>
     </g>
    </g>
    <g id="xtick_22">
     <g id="line2d_81">
      <g>
       <use style="stroke:#000000;stroke-width:0.5;" x="409.609888393" xlink:href="#m93b0483c22" y="384.84"/>
      </g>
     </g>
     <g id="line2d_82">
      <g>
       <use style="stroke:#000000;stroke-width:0.5;" x="409.609888393" xlink:href="#m741efc42ff" y="299.431917892"/>
      </g>
     </g>
     <g id="text_40">
      <!-- 50 -->
      <g transform="translate(402.836450893 397.958125)scale(0.12 -0.12)">
       <use xlink:href="#BitstreamVeraSans-Roman-35"/>
       <use x="63.623046875" xlink:href="#BitstreamVeraSans-Roman-30"/>
      </g>
     </g>
    </g>
    <g id="xtick_23">
     <g id="line2d_83">
      <g>
       <use style="stroke:#000000;stroke-width:0.5;" x="481.132366071" xlink:href="#m93b0483c22" y="384.84"/>
      </g>
     </g>
     <g id="line2d_84">
      <g>
       <use style="stroke:#000000;stroke-width:0.5;" x="481.132366071" xlink:href="#m741efc42ff" y="299.431917892"/>
      </g>
     </g>
     <g id="text_41">
      <!-- 60 -->
      <g transform="translate(474.314866071 397.958125)scale(0.12 -0.12)">
       <use xlink:href="#BitstreamVeraSans-Roman-36"/>
       <use x="63.623046875" xlink:href="#BitstreamVeraSans-Roman-30"/>
      </g>
     </g>
    </g>
    <g id="xtick_24">
     <g id="line2d_85">
      <g>
       <use style="stroke:#000000;stroke-width:0.5;" x="552.65484375" xlink:href="#m93b0483c22" y="384.84"/>
      </g>
     </g>
     <g id="line2d_86">
      <g>
       <use style="stroke:#000000;stroke-width:0.5;" x="552.65484375" xlink:href="#m741efc42ff" y="299.431917892"/>
      </g>
     </g>
     <g id="text_42">
      <!-- 70 -->
      <g transform="translate(545.91046875 397.958125)scale(0.12 -0.12)">
       <use xlink:href="#BitstreamVeraSans-Roman-37"/>
       <use x="63.623046875" xlink:href="#BitstreamVeraSans-Roman-30"/>
      </g>
     </g>
    </g>
    <g id="text_43">
     <!-- Trial -->
     <g transform="translate(290.613984375 414.571875)scale(0.12 -0.12)">
      <use xlink:href="#BitstreamVeraSans-Roman-54"/>
      <use x="46.333984375" xlink:href="#BitstreamVeraSans-Roman-72"/>
      <use x="87.447265625" xlink:href="#BitstreamVeraSans-Roman-69"/>
      <use x="115.23046875" xlink:href="#BitstreamVeraSans-Roman-61"/>
      <use x="176.509765625" xlink:href="#BitstreamVeraSans-Roman-6c"/>
     </g>
    </g>
   </g>
   <g id="matplotlib.axis_6">
    <g id="ytick_17">
     <g id="line2d_87">
      <g>
       <use style="stroke:#000000;stroke-width:0.5;" x="51.9975" xlink:href="#m728421d6d4" y="384.84"/>
      </g>
     </g>
     <g id="line2d_88">
      <g>
       <use style="stroke:#000000;stroke-width:0.5;" x="552.65484375" xlink:href="#mcb0005524f" y="384.84"/>
      </g>
     </g>
     <g id="text_44">
      <!-- 0.5 -->
      <g transform="translate(30.753125 388.15125)scale(0.12 -0.12)">
       <use xlink:href="#BitstreamVeraSans-Roman-30"/>
       <use x="63.623046875" xlink:href="#BitstreamVeraSans-Roman-2e"/>
       <use x="95.41015625" xlink:href="#BitstreamVeraSans-Roman-35"/>
      </g>
     </g>
    </g>
    <g id="ytick_18">
     <g id="line2d_89">
      <g>
       <use style="stroke:#000000;stroke-width:0.5;" x="51.9975" xlink:href="#m728421d6d4" y="373.452255719"/>
      </g>
     </g>
     <g id="line2d_90">
      <g>
       <use style="stroke:#000000;stroke-width:0.5;" x="552.65484375" xlink:href="#mcb0005524f" y="373.452255719"/>
      </g>
     </g>
     <g id="text_45">
      <!-- 0.6 -->
      <g transform="translate(30.460625 376.763505719)scale(0.12 -0.12)">
       <use xlink:href="#BitstreamVeraSans-Roman-30"/>
       <use x="63.623046875" xlink:href="#BitstreamVeraSans-Roman-2e"/>
       <use x="95.41015625" xlink:href="#BitstreamVeraSans-Roman-36"/>
      </g>
     </g>
    </g>
    <g id="ytick_19">
     <g id="line2d_91">
      <g>
       <use style="stroke:#000000;stroke-width:0.5;" x="51.9975" xlink:href="#m728421d6d4" y="362.064511438"/>
      </g>
     </g>
     <g id="line2d_92">
      <g>
       <use style="stroke:#000000;stroke-width:0.5;" x="552.65484375" xlink:href="#mcb0005524f" y="362.064511438"/>
      </g>
     </g>
     <g id="text_46">
      <!-- 0.7 -->
      <g transform="translate(30.730625 365.375761438)scale(0.12 -0.12)">
       <use xlink:href="#BitstreamVeraSans-Roman-30"/>
       <use x="63.623046875" xlink:href="#BitstreamVeraSans-Roman-2e"/>
       <use x="95.41015625" xlink:href="#BitstreamVeraSans-Roman-37"/>
      </g>
     </g>
    </g>
    <g id="ytick_20">
     <g id="line2d_93">
      <g>
       <use style="stroke:#000000;stroke-width:0.5;" x="51.9975" xlink:href="#m728421d6d4" y="350.676767157"/>
      </g>
     </g>
     <g id="line2d_94">
      <g>
       <use style="stroke:#000000;stroke-width:0.5;" x="552.65484375" xlink:href="#mcb0005524f" y="350.676767157"/>
      </g>
     </g>
     <g id="text_47">
      <!-- 0.8 -->
      <g transform="translate(30.52625 353.988017157)scale(0.12 -0.12)">
       <use xlink:href="#BitstreamVeraSans-Roman-30"/>
       <use x="63.623046875" xlink:href="#BitstreamVeraSans-Roman-2e"/>
       <use x="95.41015625" xlink:href="#BitstreamVeraSans-Roman-38"/>
      </g>
     </g>
    </g>
    <g id="ytick_21">
     <g id="line2d_95">
      <g>
       <use style="stroke:#000000;stroke-width:0.5;" x="51.9975" xlink:href="#m728421d6d4" y="339.289022876"/>
      </g>
     </g>
     <g id="line2d_96">
      <g>
       <use style="stroke:#000000;stroke-width:0.5;" x="552.65484375" xlink:href="#mcb0005524f" y="339.289022876"/>
      </g>
     </g>
     <g id="text_48">
      <!-- 0.9 -->
      <g transform="translate(30.54875 342.600272876)scale(0.12 -0.12)">
       <use xlink:href="#BitstreamVeraSans-Roman-30"/>
       <use x="63.623046875" xlink:href="#BitstreamVeraSans-Roman-2e"/>
       <use x="95.41015625" xlink:href="#BitstreamVeraSans-Roman-39"/>
      </g>
     </g>
    </g>
    <g id="ytick_22">
     <g id="line2d_97">
      <g>
       <use style="stroke:#000000;stroke-width:0.5;" x="51.9975" xlink:href="#m728421d6d4" y="327.901278595"/>
      </g>
     </g>
     <g id="line2d_98">
      <g>
       <use style="stroke:#000000;stroke-width:0.5;" x="552.65484375" xlink:href="#mcb0005524f" y="327.901278595"/>
      </g>
     </g>
     <g id="text_49">
      <!-- 1.0 -->
      <g transform="translate(31.02875 331.212528595)scale(0.12 -0.12)">
       <use xlink:href="#BitstreamVeraSans-Roman-31"/>
       <use x="63.623046875" xlink:href="#BitstreamVeraSans-Roman-2e"/>
       <use x="95.41015625" xlink:href="#BitstreamVeraSans-Roman-30"/>
      </g>
     </g>
    </g>
    <g id="ytick_23">
     <g id="line2d_99">
      <g>
       <use style="stroke:#000000;stroke-width:0.5;" x="51.9975" xlink:href="#m728421d6d4" y="316.513534314"/>
      </g>
     </g>
     <g id="line2d_100">
      <g>
       <use style="stroke:#000000;stroke-width:0.5;" x="552.65484375" xlink:href="#mcb0005524f" y="316.513534314"/>
      </g>
     </g>
     <g id="text_50">
      <!-- 1.1 -->
      <g transform="translate(31.34 319.824784314)scale(0.12 -0.12)">
       <use xlink:href="#BitstreamVeraSans-Roman-31"/>
       <use x="63.623046875" xlink:href="#BitstreamVeraSans-Roman-2e"/>
       <use x="95.41015625" xlink:href="#BitstreamVeraSans-Roman-31"/>
      </g>
     </g>
    </g>
    <g id="ytick_24">
     <g id="line2d_101">
      <g>
       <use style="stroke:#000000;stroke-width:0.5;" x="51.9975" xlink:href="#m728421d6d4" y="305.125790033"/>
      </g>
     </g>
     <g id="line2d_102">
      <g>
       <use style="stroke:#000000;stroke-width:0.5;" x="552.65484375" xlink:href="#mcb0005524f" y="305.125790033"/>
      </g>
     </g>
     <g id="text_51">
      <!-- 1.2 -->
      <g transform="translate(31.43375 308.437040033)scale(0.12 -0.12)">
       <use xlink:href="#BitstreamVeraSans-Roman-31"/>
       <use x="63.623046875" xlink:href="#BitstreamVeraSans-Roman-2e"/>
       <use x="95.41015625" xlink:href="#BitstreamVeraSans-Roman-32"/>
      </g>
     </g>
    </g>
    <g id="text_52">
     <!-- Average Pupil Diameter -->
     <defs>
      <path d="
M2.98438 54.6875
L12.5 54.6875
L29.5938 8.79688
L46.6875 54.6875
L56.2031 54.6875
L35.6875 0
L23.4844 0
z
" id="BitstreamVeraSans-Roman-76"/>
      <path d="
M34.1875 63.1875
L20.7969 26.9062
L47.6094 26.9062
z

M28.6094 72.9062
L39.7969 72.9062
L67.5781 0
L57.3281 0
L50.6875 18.7031
L17.8281 18.7031
L11.1875 0
L0.78125 0
z
" id="BitstreamVeraSans-Roman-41"/>
     </defs>
     <g transform="translate(22.965 413.057833946)rotate(-90.0)scale(0.12 -0.12)">
      <use xlink:href="#BitstreamVeraSans-Roman-41"/>
      <use x="62.533203125" xlink:href="#BitstreamVeraSans-Roman-76"/>
      <use x="121.712890625" xlink:href="#BitstreamVeraSans-Roman-65"/>
      <use x="183.236328125" xlink:href="#BitstreamVeraSans-Roman-72"/>
      <use x="224.349609375" xlink:href="#BitstreamVeraSans-Roman-61"/>
      <use x="285.62890625" xlink:href="#BitstreamVeraSans-Roman-67"/>
      <use x="349.10546875" xlink:href="#BitstreamVeraSans-Roman-65"/>
      <use x="410.62890625" xlink:href="#BitstreamVeraSans-Roman-20"/>
      <use x="442.416015625" xlink:href="#BitstreamVeraSans-Roman-50"/>
      <use x="500.96875" xlink:href="#BitstreamVeraSans-Roman-75"/>
      <use x="564.34765625" xlink:href="#BitstreamVeraSans-Roman-70"/>
      <use x="627.82421875" xlink:href="#BitstreamVeraSans-Roman-69"/>
      <use x="655.607421875" xlink:href="#BitstreamVeraSans-Roman-6c"/>
      <use x="683.390625" xlink:href="#BitstreamVeraSans-Roman-20"/>
      <use x="715.177734375" xlink:href="#BitstreamVeraSans-Roman-44"/>
      <use x="792.1796875" xlink:href="#BitstreamVeraSans-Roman-69"/>
      <use x="819.962890625" xlink:href="#BitstreamVeraSans-Roman-61"/>
      <use x="881.2421875" xlink:href="#BitstreamVeraSans-Roman-6d"/>
      <use x="978.654296875" xlink:href="#BitstreamVeraSans-Roman-65"/>
      <use x="1040.17773438" xlink:href="#BitstreamVeraSans-Roman-74"/>
      <use x="1079.38671875" xlink:href="#BitstreamVeraSans-Roman-65"/>
      <use x="1140.91015625" xlink:href="#BitstreamVeraSans-Roman-72"/>
     </g>
    </g>
   </g>
   <g id="text_53">
    <!-- Pupil Diameter in Regular Trials after Stress -->
    <g transform="translate(146.190796875 294.431917892)scale(0.144 -0.144)">
     <use xlink:href="#BitstreamVeraSans-Roman-50"/>
     <use x="58.552734375" xlink:href="#BitstreamVeraSans-Roman-75"/>
     <use x="121.931640625" xlink:href="#BitstreamVeraSans-Roman-70"/>
     <use x="185.408203125" xlink:href="#BitstreamVeraSans-Roman-69"/>
     <use x="213.19140625" xlink:href="#BitstreamVeraSans-Roman-6c"/>
     <use x="240.974609375" xlink:href="#BitstreamVeraSans-Roman-20"/>
     <use x="272.76171875" xlink:href="#BitstreamVeraSans-Roman-44"/>
     <use x="349.763671875" xlink:href="#BitstreamVeraSans-Roman-69"/>
     <use x="377.546875" xlink:href="#BitstreamVeraSans-Roman-61"/>
     <use x="438.826171875" xlink:href="#BitstreamVeraSans-Roman-6d"/>
     <use x="536.23828125" xlink:href="#BitstreamVeraSans-Roman-65"/>
     <use x="597.76171875" xlink:href="#BitstreamVeraSans-Roman-74"/>
     <use x="636.970703125" xlink:href="#BitstreamVeraSans-Roman-65"/>
     <use x="698.494140625" xlink:href="#BitstreamVeraSans-Roman-72"/>
     <use x="739.607421875" xlink:href="#BitstreamVeraSans-Roman-20"/>
     <use x="771.39453125" xlink:href="#BitstreamVeraSans-Roman-69"/>
     <use x="799.177734375" xlink:href="#BitstreamVeraSans-Roman-6e"/>
     <use x="862.556640625" xlink:href="#BitstreamVeraSans-Roman-20"/>
     <use x="894.34375" xlink:href="#BitstreamVeraSans-Roman-52"/>
     <use x="959.326171875" xlink:href="#BitstreamVeraSans-Roman-65"/>
     <use x="1020.84960938" xlink:href="#BitstreamVeraSans-Roman-67"/>
     <use x="1084.32617188" xlink:href="#BitstreamVeraSans-Roman-75"/>
     <use x="1147.70507812" xlink:href="#BitstreamVeraSans-Roman-6c"/>
     <use x="1175.48828125" xlink:href="#BitstreamVeraSans-Roman-61"/>
     <use x="1236.76757812" xlink:href="#BitstreamVeraSans-Roman-72"/>
     <use x="1277.88085938" xlink:href="#BitstreamVeraSans-Roman-20"/>
     <use x="1309.66796875" xlink:href="#BitstreamVeraSans-Roman-54"/>
     <use x="1356.00195312" xlink:href="#BitstreamVeraSans-Roman-72"/>
     <use x="1397.11523438" xlink:href="#BitstreamVeraSans-Roman-69"/>
     <use x="1424.8984375" xlink:href="#BitstreamVeraSans-Roman-61"/>
     <use x="1486.17773438" xlink:href="#BitstreamVeraSans-Roman-6c"/>
     <use x="1513.9609375" xlink:href="#BitstreamVeraSans-Roman-73"/>
     <use x="1566.06054688" xlink:href="#BitstreamVeraSans-Roman-20"/>
     <use x="1597.84765625" xlink:href="#BitstreamVeraSans-Roman-61"/>
     <use x="1659.12695312" xlink:href="#BitstreamVeraSans-Roman-66"/>
     <use x="1692.58203125" xlink:href="#BitstreamVeraSans-Roman-74"/>
     <use x="1731.79101562" xlink:href="#BitstreamVeraSans-Roman-65"/>
     <use x="1793.31445312" xlink:href="#BitstreamVeraSans-Roman-72"/>
     <use x="1834.42773438" xlink:href="#BitstreamVeraSans-Roman-20"/>
     <use x="1866.21484375" xlink:href="#BitstreamVeraSans-Roman-53"/>
     <use x="1929.69140625" xlink:href="#BitstreamVeraSans-Roman-74"/>
     <use x="1968.90039062" xlink:href="#BitstreamVeraSans-Roman-72"/>
     <use x="2007.76367188" xlink:href="#BitstreamVeraSans-Roman-65"/>
     <use x="2069.28710938" xlink:href="#BitstreamVeraSans-Roman-73"/>
     <use x="2121.38671875" xlink:href="#BitstreamVeraSans-Roman-73"/>
    </g>
   </g>
  </g>
 </g>
 <defs>
  <clipPath id="p849d3bb859">
   <rect height="85.4080821078" width="500.65734375" x="51.9975" y="299.431917892"/>
  </clipPath>
  <clipPath id="p70c5e6692d">
   <rect height="85.4080821078" width="500.65734375" x="51.9975" y="28.76"/>
  </clipPath>
  <clipPath id="p2f25e4152e">
   <rect height="85.4080821078" width="500.65734375" x="51.9975" y="164.095958946"/>
  </clipPath>
 </defs>
</svg>
