<?xml version="1.0" encoding="utf-8" standalone="no"?>
<!DOCTYPE svg PUBLIC "-//W3C//DTD SVG 1.1//EN"
  "http://www.w3.org/Graphics/SVG/1.1/DTD/svg11.dtd">
<!-- Created with matplotlib (http://matplotlib.org/) -->
<svg height="432pt" version="1.1" viewBox="0 0 576 432" width="576pt" xmlns="http://www.w3.org/2000/svg" xmlns:xlink="http://www.w3.org/1999/xlink">
 <defs>
  <style type="text/css">
*{stroke-linecap:butt;stroke-linejoin:round;}
  </style>
 </defs>
 <g id="figure_1">
  <g id="patch_1">
   <path d="
M0 432
L576 432
L576 0
L0 0
z
" style="fill:#ffffff;"/>
  </g>
  <g id="axes_1">
   <g id="patch_2">
    <path d="
M52.0256 175.32
L563.04 175.32
L563.04 28.76
L52.0256 28.76
z
" style="fill:#ffffff;"/>
   </g>
   <g id="line2d_1">
    <path clip-path="url(#pbf832bf3cd)" d="
M52.0256 42.0836
L56.1137 42.0836
L60.2019 42.0836
L64.29 75.3927
L68.3781 95.3782
L72.4662 108.702
L76.5543 118.219
L80.6424 108.702
L84.7305 101.3
L88.8187 108.702
L92.9068 114.758
L96.9949 119.805
L101.083 124.075
L105.171 127.736
L109.259 130.908
L113.347 133.684
L117.435 136.133
L121.524 138.31
L125.612 140.258
L129.7 142.011
L133.788 143.597
L137.876 145.039
L141.964 146.356
L146.052 147.562
L150.14 148.673
L154.228 144.573
L158.317 145.712
L162.405 146.769
L166.493 147.754
L170.581 148.673
L174.669 149.532
L178.757 150.338
L182.845 151.095
L186.933 151.808
L191.022 152.479
L195.11 153.114
L199.198 153.714
L203.286 150.776
L207.374 151.406
L211.462 152.004
L215.55 152.572
L219.638 153.114
L223.726 150.532
L227.815 148.067
L231.903 148.673
L235.991 149.252
L240.079 146.972
L244.167 147.562
L248.255 145.41
L252.343 146.008
L256.431 146.583
L260.519 146.583
L264.608 149.195
L268.696 151.808
L272.784 151.808
L276.872 151.808
L280.96 151.808
L285.048 151.808
L289.136 154.42
L293.224 157.033
L297.313 157.033
L301.401 154.42
L305.489 154.42
L309.577 154.42
L313.665 151.808
L317.753 151.808
L321.841 149.195
L325.929 149.195
L330.017 149.195
L334.106 149.195
L338.194 149.195
L342.282 149.195
L346.37 149.195
L350.458 146.583
L354.546 143.97
L358.634 143.97
L362.722 146.583
L366.81 146.583
L370.899 146.583
L374.987 146.583
L379.075 143.97
L383.163 143.97
L387.251 143.97
L391.339 143.97
L395.427 141.358
L399.515 141.358
L403.604 141.358
L407.692 141.358
L411.78 143.97
L415.868 143.97
L419.956 141.358
L424.044 138.745
L428.132 136.133
L432.22 136.133
L436.308 138.745
L440.397 138.745
L444.485 138.745
L448.573 141.358
L452.661 141.358
L456.749 143.97
L460.837 141.358
L464.925 138.745
L469.013 141.358
L473.101 138.745
L477.19 138.745
L481.278 136.133
L485.366 136.133
L489.454 133.52
L493.542 133.52
L497.63 130.908
L501.718 130.908
L505.806 130.908
L509.895 133.52
L513.983 133.52
L518.071 133.52
L522.159 136.133
L526.247 136.133
L530.335 138.745
L534.423 138.745
L538.511 138.745
L542.599 138.745
L546.688 138.745
L550.776 138.745
L554.864 138.745
L558.952 141.358" style="fill:none;stroke:#ff0000;stroke-linecap:square;"/>
   </g>
   <g id="line2d_2">
    <path clip-path="url(#pbf832bf3cd)" d="
M52.0256 42.0836
L56.1137 42.0836
L60.2019 86.4958
L64.29 86.4958
L68.3781 86.4958
L72.4662 86.4958
L76.5543 86.4958
L80.6424 75.3927
L84.7305 68.7309
L88.8187 68.7309
L92.9068 68.7309
L96.9949 68.7309
L101.083 68.7309
L105.171 68.7309
L109.259 68.7309
L113.347 68.7309
L117.435 68.7309
L121.524 68.7309
L125.612 68.7309
L129.7 68.7309
L133.788 68.7309
L137.876 68.7309
L141.964 68.7309
L146.052 68.7309
L150.14 68.7309
L154.228 86.4958
L158.317 86.4958
L162.405 86.4958
L166.493 86.4958
L170.581 86.4958
L174.669 86.4958
L178.757 86.4958
L182.845 86.4958
L186.933 86.4958
L191.022 86.4958
L195.11 86.4958
L199.198 86.4958
L203.286 99.1849
L207.374 99.1849
L211.462 99.1849
L215.55 99.1849
L219.638 99.1849
L223.726 108.702
L227.815 101.3
L231.903 101.3
L235.991 101.3
L240.079 95.3782
L244.167 95.3782
L248.255 102.646
L252.343 102.646
L256.431 102.646
L260.519 114.758
L264.608 122.025
L268.696 116.104
L272.784 116.104
L276.872 116.104
L280.96 116.104
L285.048 116.104
L289.136 125.356
L293.224 137.252
L297.313 137.252
L301.401 142.011
L305.489 142.011
L309.577 142.011
L313.665 145.712
L317.753 145.712
L321.841 148.673
L325.929 148.673
L330.017 148.673
L334.106 148.673
L338.194 148.673
L342.282 148.673
L346.37 148.673
L350.458 138.983
L354.546 142.011
L358.634 142.011
L362.722 138.983
L366.81 138.983
L370.899 138.983
L374.987 138.983
L379.075 142.011
L383.163 142.011
L387.251 142.011
L391.339 142.011
L395.427 144.573
L399.515 144.573
L403.604 144.573
L407.692 144.573
L411.78 142.011
L415.868 142.011
L419.956 144.573
L424.044 146.769
L428.132 139.79
L432.22 130.908
L436.308 137.252
L440.397 137.252
L444.485 137.252
L448.573 144.573
L452.661 144.573
L456.749 142.011
L460.837 144.573
L464.925 137.252
L469.013 134.324
L473.101 127.736
L477.19 127.736
L481.278 130.908
L485.366 130.908
L489.454 133.684
L493.542 133.684
L497.63 136.133
L501.718 136.133
L505.806 136.133
L509.895 133.684
L513.983 133.684
L518.071 133.684
L522.159 130.908
L526.247 130.908
L530.335 127.736
L534.423 127.736
L538.511 127.736
L542.599 127.736
L546.688 127.736
L550.776 127.736
L554.864 127.736
L558.952 134.324" style="fill:none;stroke:#ff0000;stroke-dasharray:6.000000,6.000000;stroke-dashoffset:0.0;"/>
   </g>
   <g id="line2d_3">
    <path clip-path="url(#pbf832bf3cd)" d="
M52.0256 175.32
L56.1137 175.32
L60.2019 175.32
L64.29 142.011
L68.3781 122.025
L72.4662 108.702
L76.5543 99.1849
L80.6424 108.702
L84.7305 116.104
L88.8187 108.702
L92.9068 102.646
L96.9949 97.5988
L101.083 93.3284
L105.171 89.6681
L109.259 86.4958
L113.347 83.72
L117.435 81.2708
L121.524 79.0937
L125.612 77.1458
L129.7 75.3927
L133.788 73.8066
L137.876 72.3646
L141.964 71.0481
L146.052 69.8412
L150.14 68.7309
L154.228 72.8305
L158.317 71.6917
L162.405 70.6343
L166.493 69.6498
L170.581 68.7309
L174.669 67.8713
L178.757 67.0655
L182.845 66.3084
L186.933 65.5959
L191.022 64.9242
L195.11 64.2897
L199.198 63.6895
L203.286 66.6272
L207.374 65.9979
L211.462 65.4
L215.55 64.8313
L219.638 64.2897
L223.726 66.8718
L227.815 69.3365
L231.903 68.7309
L235.991 68.1516
L240.079 70.4318
L244.167 69.8412
L248.255 71.9938
L252.343 71.3956
L256.431 70.8209
L260.519 70.8209
L264.608 68.2084
L268.696 65.5959
L272.784 65.5959
L276.872 65.5959
L280.96 65.5959
L285.048 65.5959
L289.136 62.9835
L293.224 60.371
L297.313 60.371
L301.401 62.9835
L305.489 62.9835
L309.577 62.9835
L313.665 65.5959
L317.753 65.5959
L321.841 68.2084
L325.929 68.2084
L330.017 68.2084
L334.106 68.2084
L338.194 68.2084
L342.282 68.2084
L346.37 68.2084
L350.458 70.8209
L354.546 73.4334
L358.634 73.4334
L362.722 70.8209
L366.81 70.8209
L370.899 70.8209
L374.987 70.8209
L379.075 73.4334
L383.163 73.4334
L387.251 73.4334
L391.339 73.4334
L395.427 76.0458
L399.515 76.0458
L403.604 76.0458
L407.692 76.0458
L411.78 73.4334
L415.868 73.4334
L419.956 76.0458
L424.044 78.6583
L428.132 81.2708
L432.22 81.2708
L436.308 78.6583
L440.397 78.6583
L444.485 78.6583
L448.573 76.0458
L452.661 76.0458
L456.749 73.4334
L460.837 76.0458
L464.925 78.6583
L469.013 76.0458
L473.101 78.6583
L477.19 78.6583
L481.278 81.2708
L485.366 81.2708
L489.454 83.8833
L493.542 83.8833
L497.63 86.4958
L501.718 86.4958
L505.806 86.4958
L509.895 83.8833
L513.983 83.8833
L518.071 83.8833
L522.159 81.2708
L526.247 81.2708
L530.335 78.6583
L534.423 78.6583
L538.511 78.6583
L542.599 78.6583
L546.688 78.6583
L550.776 78.6583
L554.864 78.6583
L558.952 76.0458" style="fill:none;stroke:#0000ff;stroke-linecap:square;"/>
   </g>
   <g id="line2d_4">
    <path clip-path="url(#pbf832bf3cd)" d="
M52.0256 175.32
L56.1137 175.32
L60.2019 175.32
L64.29 42.0836
L68.3781 42.0836
L72.4662 42.0836
L76.5543 75.3927
L80.6424 75.3927
L84.7305 75.3927
L88.8187 68.7309
L92.9068 64.2897
L96.9949 61.1174
L101.083 58.7382
L105.171 56.8877
L109.259 68.7309
L113.347 66.3084
L117.435 64.2897
L121.524 62.5815
L125.612 61.1174
L129.7 59.8485
L133.788 58.7382
L137.876 57.7585
L141.964 56.8877
L146.052 56.1085
L150.14 62.0691
L154.228 62.0691
L158.317 67.462
L162.405 66.3084
L166.493 65.2552
L170.581 64.2897
L174.669 63.4015
L178.757 62.5815
L182.845 61.8224
L186.933 61.1174
L191.022 60.4611
L195.11 59.8485
L199.198 63.5734
L203.286 63.5734
L207.374 62.9018
L211.462 62.271
L215.55 61.6772
L219.638 61.1174
L223.726 61.1174
L227.815 61.1174
L231.903 64.2897
L235.991 63.6895
L240.079 63.6895
L244.167 63.121
L248.255 63.121
L252.343 62.5815
L256.431 62.0691
L260.519 62.0691
L264.608 61.5816
L268.696 61.1174
L272.784 61.1174
L276.872 64.2897
L280.96 67.462
L285.048 64.2897
L289.136 63.7733
L293.224 63.2803
L297.313 63.2803
L301.401 63.7733
L305.489 66.8718
L309.577 66.8718
L313.665 67.462
L317.753 64.2897
L321.841 64.8313
L325.929 64.8313
L330.017 68.081
L334.106 68.081
L338.194 68.081
L342.282 68.081
L346.37 71.3306
L350.458 72.0618
L354.546 72.8305
L358.634 69.4142
L362.722 68.7309
L366.81 65.4
L370.899 65.4
L374.987 65.4
L379.075 65.9979
L383.163 65.9979
L387.251 65.9979
L391.339 65.9979
L395.427 66.6272
L399.515 66.6272
L403.604 66.6272
L407.692 63.121
L411.78 62.5815
L415.868 62.5815
L419.956 63.121
L424.044 63.6895
L428.132 64.2897
L432.22 64.2897
L436.308 63.6895
L440.397 60.0886
L444.485 60.0886
L448.573 63.121
L452.661 66.6272
L456.749 65.9979
L460.837 66.6272
L464.925 67.2905
L469.013 66.6272
L473.101 67.2905
L477.19 70.8915
L481.278 71.6917
L485.366 67.9907
L489.454 64.9242
L493.542 64.9242
L497.63 65.5959
L501.718 65.5959
L505.806 65.5959
L509.895 64.9242
L513.983 61.1174
L518.071 61.1174
L522.159 60.5887
L526.247 60.5887
L530.335 60.0886
L534.423 60.0886
L538.511 56.4876
L542.599 56.4876
L546.688 56.4876
L550.776 56.4876
L554.864 52.8866
L558.952 52.6023" style="fill:none;stroke:#0000ff;stroke-dasharray:6.000000,6.000000;stroke-dashoffset:0.0;"/>
   </g>
   <g id="patch_3">
    <path d="
M52.0256 28.76
L563.04 28.76" style="fill:none;stroke:#000000;stroke-linecap:square;stroke-linejoin:miter;"/>
   </g>
   <g id="patch_4">
    <path d="
M563.04 175.32
L563.04 28.76" style="fill:none;stroke:#000000;stroke-linecap:square;stroke-linejoin:miter;"/>
   </g>
   <g id="patch_5">
    <path d="
M52.0256 175.32
L563.04 175.32" style="fill:none;stroke:#000000;stroke-linecap:square;stroke-linejoin:miter;"/>
   </g>
   <g id="patch_6">
    <path d="
M52.0256 175.32
L52.0256 28.76" style="fill:none;stroke:#000000;stroke-linecap:square;stroke-linejoin:miter;"/>
   </g>
   <g id="matplotlib.axis_1">
    <g id="xtick_1">
     <g id="line2d_5">
      <defs>
       <path d="
M0 0
L0 -4" id="m93b0483c22" style="stroke:#000000;stroke-width:0.5;"/>
      </defs>
      <g>
       <use style="stroke:#000000;stroke-width:0.5;" x="52.025625" xlink:href="#m93b0483c22" y="175.32"/>
      </g>
     </g>
     <g id="line2d_6">
      <defs>
       <path d="
M0 0
L0 4" id="m741efc42ff" style="stroke:#000000;stroke-width:0.5;"/>
      </defs>
      <g>
       <use style="stroke:#000000;stroke-width:0.5;" x="52.025625" xlink:href="#m741efc42ff" y="28.76"/>
      </g>
     </g>
     <g id="text_1">
      <!-- 0 -->
      <defs>
       <path d="
M31.7812 66.4062
Q24.1719 66.4062 20.3281 58.9062
Q16.5 51.4219 16.5 36.375
Q16.5 21.3906 20.3281 13.8906
Q24.1719 6.39062 31.7812 6.39062
Q39.4531 6.39062 43.2812 13.8906
Q47.125 21.3906 47.125 36.375
Q47.125 51.4219 43.2812 58.9062
Q39.4531 66.4062 31.7812 66.4062
M31.7812 74.2188
Q44.0469 74.2188 50.5156 64.5156
Q56.9844 54.8281 56.9844 36.375
Q56.9844 17.9688 50.5156 8.26562
Q44.0469 -1.42188 31.7812 -1.42188
Q19.5312 -1.42188 13.0625 8.26562
Q6.59375 17.9688 6.59375 36.375
Q6.59375 54.8281 13.0625 64.5156
Q19.5312 74.2188 31.7812 74.2188" id="BitstreamVeraSans-Roman-30"/>
      </defs>
      <g transform="translate(49.0021875 188.438125)scale(0.12 -0.12)">
       <use xlink:href="#BitstreamVeraSans-Roman-30"/>
      </g>
     </g>
    </g>
    <g id="xtick_2">
     <g id="line2d_7">
      <g>
       <use style="stroke:#000000;stroke-width:0.5;" x="133.787925" xlink:href="#m93b0483c22" y="175.32"/>
      </g>
     </g>
     <g id="line2d_8">
      <g>
       <use style="stroke:#000000;stroke-width:0.5;" x="133.787925" xlink:href="#m741efc42ff" y="28.76"/>
      </g>
     </g>
     <g id="text_2">
      <!-- 20 -->
      <defs>
       <path d="
M19.1875 8.29688
L53.6094 8.29688
L53.6094 0
L7.32812 0
L7.32812 8.29688
Q12.9375 14.1094 22.625 23.8906
Q32.3281 33.6875 34.8125 36.5312
Q39.5469 41.8438 41.4219 45.5312
Q43.3125 49.2188 43.3125 52.7812
Q43.3125 58.5938 39.2344 62.25
Q35.1562 65.9219 28.6094 65.9219
Q23.9688 65.9219 18.8125 64.3125
Q13.6719 62.7031 7.8125 59.4219
L7.8125 69.3906
Q13.7656 71.7812 18.9375 73
Q24.125 74.2188 28.4219 74.2188
Q39.75 74.2188 46.4844 68.5469
Q53.2188 62.8906 53.2188 53.4219
Q53.2188 48.9219 51.5312 44.8906
Q49.8594 40.875 45.4062 35.4062
Q44.1875 33.9844 37.6406 27.2188
Q31.1094 20.4531 19.1875 8.29688" id="BitstreamVeraSans-Roman-32"/>
      </defs>
      <g transform="translate(126.99105 188.438125)scale(0.12 -0.12)">
       <use xlink:href="#BitstreamVeraSans-Roman-32"/>
       <use x="63.623046875" xlink:href="#BitstreamVeraSans-Roman-30"/>
      </g>
     </g>
    </g>
    <g id="xtick_3">
     <g id="line2d_9">
      <g>
       <use style="stroke:#000000;stroke-width:0.5;" x="215.550225" xlink:href="#m93b0483c22" y="175.32"/>
      </g>
     </g>
     <g id="line2d_10">
      <g>
       <use style="stroke:#000000;stroke-width:0.5;" x="215.550225" xlink:href="#m741efc42ff" y="28.76"/>
      </g>
     </g>
     <g id="text_3">
      <!-- 40 -->
      <defs>
       <path d="
M37.7969 64.3125
L12.8906 25.3906
L37.7969 25.3906
z

M35.2031 72.9062
L47.6094 72.9062
L47.6094 25.3906
L58.0156 25.3906
L58.0156 17.1875
L47.6094 17.1875
L47.6094 0
L37.7969 0
L37.7969 17.1875
L4.89062 17.1875
L4.89062 26.7031
z
" id="BitstreamVeraSans-Roman-34"/>
      </defs>
      <g transform="translate(208.6071 188.438125)scale(0.12 -0.12)">
       <use xlink:href="#BitstreamVeraSans-Roman-34"/>
       <use x="63.623046875" xlink:href="#BitstreamVeraSans-Roman-30"/>
      </g>
     </g>
    </g>
    <g id="xtick_4">
     <g id="line2d_11">
      <g>
       <use style="stroke:#000000;stroke-width:0.5;" x="297.312525" xlink:href="#m93b0483c22" y="175.32"/>
      </g>
     </g>
     <g id="line2d_12">
      <g>
       <use style="stroke:#000000;stroke-width:0.5;" x="297.312525" xlink:href="#m741efc42ff" y="28.76"/>
      </g>
     </g>
     <g id="text_4">
      <!-- 60 -->
      <defs>
       <path d="
M33.0156 40.375
Q26.375 40.375 22.4844 35.8281
Q18.6094 31.2969 18.6094 23.3906
Q18.6094 15.5312 22.4844 10.9531
Q26.375 6.39062 33.0156 6.39062
Q39.6562 6.39062 43.5312 10.9531
Q47.4062 15.5312 47.4062 23.3906
Q47.4062 31.2969 43.5312 35.8281
Q39.6562 40.375 33.0156 40.375
M52.5938 71.2969
L52.5938 62.3125
Q48.875 64.0625 45.0938 64.9844
Q41.3125 65.9219 37.5938 65.9219
Q27.8281 65.9219 22.6719 59.3281
Q17.5312 52.7344 16.7969 39.4062
Q19.6719 43.6562 24.0156 45.9219
Q28.375 48.1875 33.5938 48.1875
Q44.5781 48.1875 50.9531 41.5156
Q57.3281 34.8594 57.3281 23.3906
Q57.3281 12.1562 50.6875 5.35938
Q44.0469 -1.42188 33.0156 -1.42188
Q20.3594 -1.42188 13.6719 8.26562
Q6.98438 17.9688 6.98438 36.375
Q6.98438 53.6562 15.1875 63.9375
Q23.3906 74.2188 37.2031 74.2188
Q40.9219 74.2188 44.7031 73.4844
Q48.4844 72.75 52.5938 71.2969" id="BitstreamVeraSans-Roman-36"/>
      </defs>
      <g transform="translate(290.495025 188.438125)scale(0.12 -0.12)">
       <use xlink:href="#BitstreamVeraSans-Roman-36"/>
       <use x="63.623046875" xlink:href="#BitstreamVeraSans-Roman-30"/>
      </g>
     </g>
    </g>
    <g id="xtick_5">
     <g id="line2d_13">
      <g>
       <use style="stroke:#000000;stroke-width:0.5;" x="379.074825" xlink:href="#m93b0483c22" y="175.32"/>
      </g>
     </g>
     <g id="line2d_14">
      <g>
       <use style="stroke:#000000;stroke-width:0.5;" x="379.074825" xlink:href="#m741efc42ff" y="28.76"/>
      </g>
     </g>
     <g id="text_5">
      <!-- 80 -->
      <defs>
       <path d="
M31.7812 34.625
Q24.75 34.625 20.7188 30.8594
Q16.7031 27.0938 16.7031 20.5156
Q16.7031 13.9219 20.7188 10.1562
Q24.75 6.39062 31.7812 6.39062
Q38.8125 6.39062 42.8594 10.1719
Q46.9219 13.9688 46.9219 20.5156
Q46.9219 27.0938 42.8906 30.8594
Q38.875 34.625 31.7812 34.625
M21.9219 38.8125
Q15.5781 40.375 12.0312 44.7188
Q8.5 49.0781 8.5 55.3281
Q8.5 64.0625 14.7188 69.1406
Q20.9531 74.2188 31.7812 74.2188
Q42.6719 74.2188 48.875 69.1406
Q55.0781 64.0625 55.0781 55.3281
Q55.0781 49.0781 51.5312 44.7188
Q48 40.375 41.7031 38.8125
Q48.8281 37.1562 52.7969 32.3125
Q56.7812 27.4844 56.7812 20.5156
Q56.7812 9.90625 50.3125 4.23438
Q43.8438 -1.42188 31.7812 -1.42188
Q19.7344 -1.42188 13.25 4.23438
Q6.78125 9.90625 6.78125 20.5156
Q6.78125 27.4844 10.7812 32.3125
Q14.7969 37.1562 21.9219 38.8125
M18.3125 54.3906
Q18.3125 48.7344 21.8438 45.5625
Q25.3906 42.3906 31.7812 42.3906
Q38.1406 42.3906 41.7188 45.5625
Q45.3125 48.7344 45.3125 54.3906
Q45.3125 60.0625 41.7188 63.2344
Q38.1406 66.4062 31.7812 66.4062
Q25.3906 66.4062 21.8438 63.2344
Q18.3125 60.0625 18.3125 54.3906" id="BitstreamVeraSans-Roman-38"/>
      </defs>
      <g transform="translate(372.2451375 188.438125)scale(0.12 -0.12)">
       <use xlink:href="#BitstreamVeraSans-Roman-38"/>
       <use x="63.623046875" xlink:href="#BitstreamVeraSans-Roman-30"/>
      </g>
     </g>
    </g>
    <g id="xtick_6">
     <g id="line2d_15">
      <g>
       <use style="stroke:#000000;stroke-width:0.5;" x="460.837125" xlink:href="#m93b0483c22" y="175.32"/>
      </g>
     </g>
     <g id="line2d_16">
      <g>
       <use style="stroke:#000000;stroke-width:0.5;" x="460.837125" xlink:href="#m741efc42ff" y="28.76"/>
      </g>
     </g>
     <g id="text_6">
      <!-- 100 -->
      <defs>
       <path d="
M12.4062 8.29688
L28.5156 8.29688
L28.5156 63.9219
L10.9844 60.4062
L10.9844 69.3906
L28.4219 72.9062
L38.2812 72.9062
L38.2812 8.29688
L54.3906 8.29688
L54.3906 0
L12.4062 0
z
" id="BitstreamVeraSans-Roman-31"/>
      </defs>
      <g transform="translate(450.442125 188.438125)scale(0.12 -0.12)">
       <use xlink:href="#BitstreamVeraSans-Roman-31"/>
       <use x="63.623046875" xlink:href="#BitstreamVeraSans-Roman-30"/>
       <use x="127.24609375" xlink:href="#BitstreamVeraSans-Roman-30"/>
      </g>
     </g>
    </g>
    <g id="xtick_7">
     <g id="line2d_17">
      <g>
       <use style="stroke:#000000;stroke-width:0.5;" x="542.599425" xlink:href="#m93b0483c22" y="175.32"/>
      </g>
     </g>
     <g id="line2d_18">
      <g>
       <use style="stroke:#000000;stroke-width:0.5;" x="542.599425" xlink:href="#m741efc42ff" y="28.76"/>
      </g>
     </g>
     <g id="text_7">
      <!-- 120 -->
      <g transform="translate(532.204425 188.438125)scale(0.12 -0.12)">
       <use xlink:href="#BitstreamVeraSans-Roman-31"/>
       <use x="63.623046875" xlink:href="#BitstreamVeraSans-Roman-32"/>
       <use x="127.24609375" xlink:href="#BitstreamVeraSans-Roman-30"/>
      </g>
     </g>
    </g>
    <g id="text_8">
     <!-- Trial Number -->
     <defs>
      <path id="BitstreamVeraSans-Roman-20"/>
      <path d="
M9.8125 72.9062
L23.0938 72.9062
L55.4219 11.9219
L55.4219 72.9062
L64.9844 72.9062
L64.9844 0
L51.7031 0
L19.3906 60.9844
L19.3906 0
L9.8125 0
z
" id="BitstreamVeraSans-Roman-4e"/>
      <path d="
M34.2812 27.4844
Q23.3906 27.4844 19.1875 25
Q14.9844 22.5156 14.9844 16.5
Q14.9844 11.7188 18.1406 8.90625
Q21.2969 6.10938 26.7031 6.10938
Q34.1875 6.10938 38.7031 11.4062
Q43.2188 16.7031 43.2188 25.4844
L43.2188 27.4844
z

M52.2031 31.2031
L52.2031 0
L43.2188 0
L43.2188 8.29688
Q40.1406 3.32812 35.5469 0.953125
Q30.9531 -1.42188 24.3125 -1.42188
Q15.9219 -1.42188 10.9531 3.29688
Q6 8.01562 6 15.9219
Q6 25.1406 12.1719 29.8281
Q18.3594 34.5156 30.6094 34.5156
L43.2188 34.5156
L43.2188 35.4062
Q43.2188 41.6094 39.1406 45
Q35.0625 48.3906 27.6875 48.3906
Q23 48.3906 18.5469 47.2656
Q14.1094 46.1406 10.0156 43.8906
L10.0156 52.2031
Q14.9375 54.1094 19.5781 55.0469
Q24.2188 56 28.6094 56
Q40.4844 56 46.3438 49.8438
Q52.2031 43.7031 52.2031 31.2031" id="BitstreamVeraSans-Roman-61"/>
      <path d="
M9.42188 75.9844
L18.4062 75.9844
L18.4062 0
L9.42188 0
z
" id="BitstreamVeraSans-Roman-6c"/>
      <path d="
M9.42188 54.6875
L18.4062 54.6875
L18.4062 0
L9.42188 0
z

M9.42188 75.9844
L18.4062 75.9844
L18.4062 64.5938
L9.42188 64.5938
z
" id="BitstreamVeraSans-Roman-69"/>
      <path d="
M52 44.1875
Q55.375 50.25 60.0625 53.125
Q64.75 56 71.0938 56
Q79.6406 56 84.2812 50.0156
Q88.9219 44.0469 88.9219 33.0156
L88.9219 0
L79.8906 0
L79.8906 32.7188
Q79.8906 40.5781 77.0938 44.375
Q74.3125 48.1875 68.6094 48.1875
Q61.625 48.1875 57.5625 43.5469
Q53.5156 38.9219 53.5156 30.9062
L53.5156 0
L44.4844 0
L44.4844 32.7188
Q44.4844 40.625 41.7031 44.4062
Q38.9219 48.1875 33.1094 48.1875
Q26.2188 48.1875 22.1562 43.5312
Q18.1094 38.875 18.1094 30.9062
L18.1094 0
L9.07812 0
L9.07812 54.6875
L18.1094 54.6875
L18.1094 46.1875
Q21.1875 51.2188 25.4844 53.6094
Q29.7812 56 35.6875 56
Q41.6562 56 45.8281 52.9688
Q50 49.9531 52 44.1875" id="BitstreamVeraSans-Roman-6d"/>
      <path d="
M56.2031 29.5938
L56.2031 25.2031
L14.8906 25.2031
Q15.4844 15.9219 20.4844 11.0625
Q25.4844 6.20312 34.4219 6.20312
Q39.5938 6.20312 44.4531 7.46875
Q49.3125 8.73438 54.1094 11.2812
L54.1094 2.78125
Q49.2656 0.734375 44.1875 -0.34375
Q39.1094 -1.42188 33.8906 -1.42188
Q20.7969 -1.42188 13.1562 6.1875
Q5.51562 13.8125 5.51562 26.8125
Q5.51562 40.2344 12.7656 48.1094
Q20.0156 56 32.3281 56
Q43.3594 56 49.7812 48.8906
Q56.2031 41.7969 56.2031 29.5938
M47.2188 32.2344
Q47.125 39.5938 43.0938 43.9844
Q39.0625 48.3906 32.4219 48.3906
Q24.9062 48.3906 20.3906 44.1406
Q15.875 39.8906 15.1875 32.1719
z
" id="BitstreamVeraSans-Roman-65"/>
      <path d="
M-0.296875 72.9062
L61.375 72.9062
L61.375 64.5938
L35.5 64.5938
L35.5 0
L25.5938 0
L25.5938 64.5938
L-0.296875 64.5938
z
" id="BitstreamVeraSans-Roman-54"/>
      <path d="
M8.5 21.5781
L8.5 54.6875
L17.4844 54.6875
L17.4844 21.9219
Q17.4844 14.1562 20.5 10.2656
Q23.5312 6.39062 29.5938 6.39062
Q36.8594 6.39062 41.0781 11.0312
Q45.3125 15.6719 45.3125 23.6875
L45.3125 54.6875
L54.2969 54.6875
L54.2969 0
L45.3125 0
L45.3125 8.40625
Q42.0469 3.42188 37.7188 1
Q33.4062 -1.42188 27.6875 -1.42188
Q18.2656 -1.42188 13.375 4.4375
Q8.5 10.2969 8.5 21.5781" id="BitstreamVeraSans-Roman-75"/>
      <path d="
M41.1094 46.2969
Q39.5938 47.1719 37.8125 47.5781
Q36.0312 48 33.8906 48
Q26.2656 48 22.1875 43.0469
Q18.1094 38.0938 18.1094 28.8125
L18.1094 0
L9.07812 0
L9.07812 54.6875
L18.1094 54.6875
L18.1094 46.1875
Q20.9531 51.1719 25.4844 53.5781
Q30.0312 56 36.5312 56
Q37.4531 56 38.5781 55.875
Q39.7031 55.7656 41.0625 55.5156
z
" id="BitstreamVeraSans-Roman-72"/>
      <path d="
M48.6875 27.2969
Q48.6875 37.2031 44.6094 42.8438
Q40.5312 48.4844 33.4062 48.4844
Q26.2656 48.4844 22.1875 42.8438
Q18.1094 37.2031 18.1094 27.2969
Q18.1094 17.3906 22.1875 11.75
Q26.2656 6.10938 33.4062 6.10938
Q40.5312 6.10938 44.6094 11.75
Q48.6875 17.3906 48.6875 27.2969
M18.1094 46.3906
Q20.9531 51.2656 25.2656 53.625
Q29.5938 56 35.5938 56
Q45.5625 56 51.7812 48.0938
Q58.0156 40.1875 58.0156 27.2969
Q58.0156 14.4062 51.7812 6.48438
Q45.5625 -1.42188 35.5938 -1.42188
Q29.5938 -1.42188 25.2656 0.953125
Q20.9531 3.32812 18.1094 8.20312
L18.1094 0
L9.07812 0
L9.07812 75.9844
L18.1094 75.9844
z
" id="BitstreamVeraSans-Roman-62"/>
     </defs>
     <g transform="translate(269.248125 205.051875)scale(0.12 -0.12)">
      <use xlink:href="#BitstreamVeraSans-Roman-54"/>
      <use x="46.333984375" xlink:href="#BitstreamVeraSans-Roman-72"/>
      <use x="87.447265625" xlink:href="#BitstreamVeraSans-Roman-69"/>
      <use x="115.23046875" xlink:href="#BitstreamVeraSans-Roman-61"/>
      <use x="176.509765625" xlink:href="#BitstreamVeraSans-Roman-6c"/>
      <use x="204.29296875" xlink:href="#BitstreamVeraSans-Roman-20"/>
      <use x="236.080078125" xlink:href="#BitstreamVeraSans-Roman-4e"/>
      <use x="310.884765625" xlink:href="#BitstreamVeraSans-Roman-75"/>
      <use x="374.263671875" xlink:href="#BitstreamVeraSans-Roman-6d"/>
      <use x="471.67578125" xlink:href="#BitstreamVeraSans-Roman-62"/>
      <use x="535.15234375" xlink:href="#BitstreamVeraSans-Roman-65"/>
      <use x="596.67578125" xlink:href="#BitstreamVeraSans-Roman-72"/>
     </g>
    </g>
   </g>
   <g id="matplotlib.axis_2">
    <g id="ytick_1">
     <g id="line2d_19">
      <defs>
       <path d="
M0 0
L4 0" id="m728421d6d4" style="stroke:#000000;stroke-width:0.5;"/>
      </defs>
      <g>
       <use style="stroke:#000000;stroke-width:0.5;" x="52.025625" xlink:href="#m728421d6d4" y="175.32"/>
      </g>
     </g>
     <g id="line2d_20">
      <defs>
       <path d="
M0 0
L-4 0" id="mcb0005524f" style="stroke:#000000;stroke-width:0.5;"/>
      </defs>
      <g>
       <use style="stroke:#000000;stroke-width:0.5;" x="563.04" xlink:href="#mcb0005524f" y="175.32"/>
      </g>
     </g>
     <g id="text_9">
      <!-- 0.0 -->
      <defs>
       <path d="
M10.6875 12.4062
L21 12.4062
L21 0
L10.6875 0
z
" id="BitstreamVeraSans-Roman-2e"/>
      </defs>
      <g transform="translate(30.53 178.63125)scale(0.12 -0.12)">
       <use xlink:href="#BitstreamVeraSans-Roman-30"/>
       <use x="63.623046875" xlink:href="#BitstreamVeraSans-Roman-2e"/>
       <use x="95.41015625" xlink:href="#BitstreamVeraSans-Roman-30"/>
      </g>
     </g>
    </g>
    <g id="ytick_2">
     <g id="line2d_21">
      <g>
       <use style="stroke:#000000;stroke-width:0.5;" x="52.025625" xlink:href="#m728421d6d4" y="148.672727273"/>
      </g>
     </g>
     <g id="line2d_22">
      <g>
       <use style="stroke:#000000;stroke-width:0.5;" x="563.04" xlink:href="#mcb0005524f" y="148.672727273"/>
      </g>
     </g>
     <g id="text_10">
      <!-- 0.2 -->
      <g transform="translate(30.935 151.983977273)scale(0.12 -0.12)">
       <use xlink:href="#BitstreamVeraSans-Roman-30"/>
       <use x="63.623046875" xlink:href="#BitstreamVeraSans-Roman-2e"/>
       <use x="95.41015625" xlink:href="#BitstreamVeraSans-Roman-32"/>
      </g>
     </g>
    </g>
    <g id="ytick_3">
     <g id="line2d_23">
      <g>
       <use style="stroke:#000000;stroke-width:0.5;" x="52.025625" xlink:href="#m728421d6d4" y="122.025454545"/>
      </g>
     </g>
     <g id="line2d_24">
      <g>
       <use style="stroke:#000000;stroke-width:0.5;" x="563.04" xlink:href="#mcb0005524f" y="122.025454545"/>
      </g>
     </g>
     <g id="text_11">
      <!-- 0.4 -->
      <g transform="translate(30.40625 125.336704545)scale(0.12 -0.12)">
       <use xlink:href="#BitstreamVeraSans-Roman-30"/>
       <use x="63.623046875" xlink:href="#BitstreamVeraSans-Roman-2e"/>
       <use x="95.41015625" xlink:href="#BitstreamVeraSans-Roman-34"/>
      </g>
     </g>
    </g>
    <g id="ytick_4">
     <g id="line2d_25">
      <g>
       <use style="stroke:#000000;stroke-width:0.5;" x="52.025625" xlink:href="#m728421d6d4" y="95.3781818182"/>
      </g>
     </g>
     <g id="line2d_26">
      <g>
       <use style="stroke:#000000;stroke-width:0.5;" x="563.04" xlink:href="#mcb0005524f" y="95.3781818182"/>
      </g>
     </g>
     <g id="text_12">
      <!-- 0.6 -->
      <g transform="translate(30.48875 98.6894318182)scale(0.12 -0.12)">
       <use xlink:href="#BitstreamVeraSans-Roman-30"/>
       <use x="63.623046875" xlink:href="#BitstreamVeraSans-Roman-2e"/>
       <use x="95.41015625" xlink:href="#BitstreamVeraSans-Roman-36"/>
      </g>
     </g>
    </g>
    <g id="ytick_5">
     <g id="line2d_27">
      <g>
       <use style="stroke:#000000;stroke-width:0.5;" x="52.025625" xlink:href="#m728421d6d4" y="68.7309090909"/>
      </g>
     </g>
     <g id="line2d_28">
      <g>
       <use style="stroke:#000000;stroke-width:0.5;" x="563.04" xlink:href="#mcb0005524f" y="68.7309090909"/>
      </g>
     </g>
     <g id="text_13">
      <!-- 0.8 -->
      <g transform="translate(30.554375 72.0421590909)scale(0.12 -0.12)">
       <use xlink:href="#BitstreamVeraSans-Roman-30"/>
       <use x="63.623046875" xlink:href="#BitstreamVeraSans-Roman-2e"/>
       <use x="95.41015625" xlink:href="#BitstreamVeraSans-Roman-38"/>
      </g>
     </g>
    </g>
    <g id="ytick_6">
     <g id="line2d_29">
      <g>
       <use style="stroke:#000000;stroke-width:0.5;" x="52.025625" xlink:href="#m728421d6d4" y="42.0836363636"/>
      </g>
     </g>
     <g id="line2d_30">
      <g>
       <use style="stroke:#000000;stroke-width:0.5;" x="563.04" xlink:href="#mcb0005524f" y="42.0836363636"/>
      </g>
     </g>
     <g id="text_14">
      <!-- 1.0 -->
      <g transform="translate(31.056875 45.3948863636)scale(0.12 -0.12)">
       <use xlink:href="#BitstreamVeraSans-Roman-31"/>
       <use x="63.623046875" xlink:href="#BitstreamVeraSans-Roman-2e"/>
       <use x="95.41015625" xlink:href="#BitstreamVeraSans-Roman-30"/>
      </g>
     </g>
    </g>
    <g id="text_15">
     <!-- Probability -->
     <defs>
      <path d="
M19.6719 64.7969
L19.6719 37.4062
L32.0781 37.4062
Q38.9688 37.4062 42.7188 40.9688
Q46.4844 44.5312 46.4844 51.125
Q46.4844 57.6719 42.7188 61.2344
Q38.9688 64.7969 32.0781 64.7969
z

M9.8125 72.9062
L32.0781 72.9062
Q44.3438 72.9062 50.6094 67.3594
Q56.8906 61.8125 56.8906 51.125
Q56.8906 40.3281 50.6094 34.8125
Q44.3438 29.2969 32.0781 29.2969
L19.6719 29.2969
L19.6719 0
L9.8125 0
z
" id="BitstreamVeraSans-Roman-50"/>
      <path d="
M18.3125 70.2188
L18.3125 54.6875
L36.8125 54.6875
L36.8125 47.7031
L18.3125 47.7031
L18.3125 18.0156
Q18.3125 11.3281 20.1406 9.42188
Q21.9688 7.51562 27.5938 7.51562
L36.8125 7.51562
L36.8125 0
L27.5938 0
Q17.1875 0 13.2344 3.875
Q9.28125 7.76562 9.28125 18.0156
L9.28125 47.7031
L2.6875 47.7031
L2.6875 54.6875
L9.28125 54.6875
L9.28125 70.2188
z
" id="BitstreamVeraSans-Roman-74"/>
      <path d="
M30.6094 48.3906
Q23.3906 48.3906 19.1875 42.75
Q14.9844 37.1094 14.9844 27.2969
Q14.9844 17.4844 19.1562 11.8438
Q23.3438 6.20312 30.6094 6.20312
Q37.7969 6.20312 41.9844 11.8594
Q46.1875 17.5312 46.1875 27.2969
Q46.1875 37.0156 41.9844 42.7031
Q37.7969 48.3906 30.6094 48.3906
M30.6094 56
Q42.3281 56 49.0156 48.375
Q55.7188 40.7656 55.7188 27.2969
Q55.7188 13.875 49.0156 6.21875
Q42.3281 -1.42188 30.6094 -1.42188
Q18.8438 -1.42188 12.1719 6.21875
Q5.51562 13.875 5.51562 27.2969
Q5.51562 40.7656 12.1719 48.375
Q18.8438 56 30.6094 56" id="BitstreamVeraSans-Roman-6f"/>
      <path d="
M32.1719 -5.07812
Q28.375 -14.8438 24.75 -17.8125
Q21.1406 -20.7969 15.0938 -20.7969
L7.90625 -20.7969
L7.90625 -13.2812
L13.1875 -13.2812
Q16.8906 -13.2812 18.9375 -11.5156
Q21 -9.76562 23.4844 -3.21875
L25.0938 0.875
L2.98438 54.6875
L12.5 54.6875
L29.5938 11.9219
L46.6875 54.6875
L56.2031 54.6875
z
" id="BitstreamVeraSans-Roman-79"/>
     </defs>
     <g transform="translate(22.910625 132.986875)rotate(-90.0)scale(0.12 -0.12)">
      <use xlink:href="#BitstreamVeraSans-Roman-50"/>
      <use x="58.552734375" xlink:href="#BitstreamVeraSans-Roman-72"/>
      <use x="97.416015625" xlink:href="#BitstreamVeraSans-Roman-6f"/>
      <use x="158.59765625" xlink:href="#BitstreamVeraSans-Roman-62"/>
      <use x="222.07421875" xlink:href="#BitstreamVeraSans-Roman-61"/>
      <use x="283.353515625" xlink:href="#BitstreamVeraSans-Roman-62"/>
      <use x="346.830078125" xlink:href="#BitstreamVeraSans-Roman-69"/>
      <use x="374.61328125" xlink:href="#BitstreamVeraSans-Roman-6c"/>
      <use x="402.396484375" xlink:href="#BitstreamVeraSans-Roman-69"/>
      <use x="430.1796875" xlink:href="#BitstreamVeraSans-Roman-74"/>
      <use x="469.388671875" xlink:href="#BitstreamVeraSans-Roman-79"/>
     </g>
    </g>
   </g>
   <g id="text_16">
    <!-- Stress Trial Performance: Trial Completion Rate 0.429975 -->
    <defs>
     <path d="
M8.20312 72.9062
L55.0781 72.9062
L55.0781 68.7031
L28.6094 0
L18.3125 0
L43.2188 64.5938
L8.20312 64.5938
z
" id="BitstreamVeraSans-Roman-37"/>
     <path d="
M10.7969 72.9062
L49.5156 72.9062
L49.5156 64.5938
L19.8281 64.5938
L19.8281 46.7344
Q21.9688 47.4688 24.1094 47.8281
Q26.2656 48.1875 28.4219 48.1875
Q40.625 48.1875 47.75 41.5
Q54.8906 34.8125 54.8906 23.3906
Q54.8906 11.625 47.5625 5.09375
Q40.2344 -1.42188 26.9062 -1.42188
Q22.3125 -1.42188 17.5469 -0.640625
Q12.7969 0.140625 7.71875 1.70312
L7.71875 11.625
Q12.1094 9.23438 16.7969 8.0625
Q21.4844 6.89062 26.7031 6.89062
Q35.1562 6.89062 40.0781 11.3281
Q45.0156 15.7656 45.0156 23.3906
Q45.0156 31 40.0781 35.4375
Q35.1562 39.8906 26.7031 39.8906
Q22.75 39.8906 18.8125 39.0156
Q14.8906 38.1406 10.7969 36.2812
z
" id="BitstreamVeraSans-Roman-35"/>
     <path d="
M54.8906 33.0156
L54.8906 0
L45.9062 0
L45.9062 32.7188
Q45.9062 40.4844 42.875 44.3281
Q39.8438 48.1875 33.7969 48.1875
Q26.5156 48.1875 22.3125 43.5469
Q18.1094 38.9219 18.1094 30.9062
L18.1094 0
L9.07812 0
L9.07812 54.6875
L18.1094 54.6875
L18.1094 46.1875
Q21.3438 51.125 25.7031 53.5625
Q30.0781 56 35.7969 56
Q45.2188 56 50.0469 50.1719
Q54.8906 44.3438 54.8906 33.0156" id="BitstreamVeraSans-Roman-6e"/>
     <path d="
M10.9844 1.51562
L10.9844 10.5
Q14.7031 8.73438 18.5 7.8125
Q22.3125 6.89062 25.9844 6.89062
Q35.75 6.89062 40.8906 13.4531
Q46.0469 20.0156 46.7812 33.4062
Q43.9531 29.2031 39.5938 26.9531
Q35.25 24.7031 29.9844 24.7031
Q19.0469 24.7031 12.6719 31.3125
Q6.29688 37.9375 6.29688 49.4219
Q6.29688 60.6406 12.9375 67.4219
Q19.5781 74.2188 30.6094 74.2188
Q43.2656 74.2188 49.9219 64.5156
Q56.5938 54.8281 56.5938 36.375
Q56.5938 19.1406 48.4062 8.85938
Q40.2344 -1.42188 26.4219 -1.42188
Q22.7031 -1.42188 18.8906 -0.6875
Q15.0938 0.046875 10.9844 1.51562
M30.6094 32.4219
Q37.25 32.4219 41.125 36.9531
Q45.0156 41.5 45.0156 49.4219
Q45.0156 57.2812 41.125 61.8438
Q37.25 66.4062 30.6094 66.4062
Q23.9688 66.4062 20.0938 61.8438
Q16.2188 57.2812 16.2188 49.4219
Q16.2188 41.5 20.0938 36.9531
Q23.9688 32.4219 30.6094 32.4219" id="BitstreamVeraSans-Roman-39"/>
     <path d="
M11.7188 12.4062
L22.0156 12.4062
L22.0156 0
L11.7188 0
z

M11.7188 51.7031
L22.0156 51.7031
L22.0156 39.3125
L11.7188 39.3125
z
" id="BitstreamVeraSans-Roman-3a"/>
     <path d="
M44.3906 34.1875
Q47.5625 33.1094 50.5625 29.5938
Q53.5625 26.0781 56.5938 19.9219
L66.6094 0
L56 0
L46.6875 18.7031
Q43.0625 26.0312 39.6719 28.4219
Q36.2812 30.8125 30.4219 30.8125
L19.6719 30.8125
L19.6719 0
L9.8125 0
L9.8125 72.9062
L32.0781 72.9062
Q44.5781 72.9062 50.7344 67.6719
Q56.8906 62.4531 56.8906 51.9062
Q56.8906 45.0156 53.6875 40.4688
Q50.4844 35.9375 44.3906 34.1875
M19.6719 64.7969
L19.6719 38.9219
L32.0781 38.9219
Q39.2031 38.9219 42.8438 42.2188
Q46.4844 45.5156 46.4844 51.9062
Q46.4844 58.2969 42.8438 61.5469
Q39.2031 64.7969 32.0781 64.7969
z
" id="BitstreamVeraSans-Roman-52"/>
     <path d="
M53.5156 70.5156
L53.5156 60.8906
Q47.9062 63.5781 42.9219 64.8906
Q37.9375 66.2188 33.2969 66.2188
Q25.25 66.2188 20.875 63.0938
Q16.5 59.9688 16.5 54.2031
Q16.5 49.3594 19.4062 46.8906
Q22.3125 44.4375 30.4219 42.9219
L36.375 41.7031
Q47.4062 39.5938 52.6562 34.2969
Q57.9062 29 57.9062 20.125
Q57.9062 9.51562 50.7969 4.04688
Q43.7031 -1.42188 29.9844 -1.42188
Q24.8125 -1.42188 18.9688 -0.25
Q13.1406 0.921875 6.89062 3.21875
L6.89062 13.375
Q12.8906 10.0156 18.6562 8.29688
Q24.4219 6.59375 29.9844 6.59375
Q38.4219 6.59375 43.0156 9.90625
Q47.6094 13.2344 47.6094 19.3906
Q47.6094 24.75 44.3125 27.7812
Q41.0156 30.8125 33.5 32.3281
L27.4844 33.5
Q16.4531 35.6875 11.5156 40.375
Q6.59375 45.0625 6.59375 53.4219
Q6.59375 63.0938 13.4062 68.6562
Q20.2188 74.2188 32.1719 74.2188
Q37.3125 74.2188 42.625 73.2812
Q47.9531 72.3594 53.5156 70.5156" id="BitstreamVeraSans-Roman-53"/>
     <path d="
M64.4062 67.2812
L64.4062 56.8906
Q59.4219 61.5312 53.7812 63.8125
Q48.1406 66.1094 41.7969 66.1094
Q29.2969 66.1094 22.6562 58.4688
Q16.0156 50.8281 16.0156 36.375
Q16.0156 21.9688 22.6562 14.3281
Q29.2969 6.6875 41.7969 6.6875
Q48.1406 6.6875 53.7812 8.98438
Q59.4219 11.2812 64.4062 15.9219
L64.4062 5.60938
Q59.2344 2.09375 53.4375 0.328125
Q47.6562 -1.42188 41.2188 -1.42188
Q24.6562 -1.42188 15.125 8.70312
Q5.60938 18.8438 5.60938 36.375
Q5.60938 53.9531 15.125 64.0781
Q24.6562 74.2188 41.2188 74.2188
Q47.75 74.2188 53.5312 72.4844
Q59.3281 70.75 64.4062 67.2812" id="BitstreamVeraSans-Roman-43"/>
     <path d="
M18.1094 8.20312
L18.1094 -20.7969
L9.07812 -20.7969
L9.07812 54.6875
L18.1094 54.6875
L18.1094 46.3906
Q20.9531 51.2656 25.2656 53.625
Q29.5938 56 35.5938 56
Q45.5625 56 51.7812 48.0938
Q58.0156 40.1875 58.0156 27.2969
Q58.0156 14.4062 51.7812 6.48438
Q45.5625 -1.42188 35.5938 -1.42188
Q29.5938 -1.42188 25.2656 0.953125
Q20.9531 3.32812 18.1094 8.20312
M48.6875 27.2969
Q48.6875 37.2031 44.6094 42.8438
Q40.5312 48.4844 33.4062 48.4844
Q26.2656 48.4844 22.1875 42.8438
Q18.1094 37.2031 18.1094 27.2969
Q18.1094 17.3906 22.1875 11.75
Q26.2656 6.10938 33.4062 6.10938
Q40.5312 6.10938 44.6094 11.75
Q48.6875 17.3906 48.6875 27.2969" id="BitstreamVeraSans-Roman-70"/>
     <path d="
M37.1094 75.9844
L37.1094 68.5
L28.5156 68.5
Q23.6875 68.5 21.7969 66.5469
Q19.9219 64.5938 19.9219 59.5156
L19.9219 54.6875
L34.7188 54.6875
L34.7188 47.7031
L19.9219 47.7031
L19.9219 0
L10.8906 0
L10.8906 47.7031
L2.29688 47.7031
L2.29688 54.6875
L10.8906 54.6875
L10.8906 58.5
Q10.8906 67.625 15.1406 71.7969
Q19.3906 75.9844 28.6094 75.9844
z
" id="BitstreamVeraSans-Roman-66"/>
     <path d="
M44.2812 53.0781
L44.2812 44.5781
Q40.4844 46.5312 36.375 47.5
Q32.2812 48.4844 27.875 48.4844
Q21.1875 48.4844 17.8438 46.4375
Q14.5 44.3906 14.5 40.2812
Q14.5 37.1562 16.8906 35.375
Q19.2812 33.5938 26.5156 31.9844
L29.5938 31.2969
Q39.1562 29.25 43.1875 25.5156
Q47.2188 21.7812 47.2188 15.0938
Q47.2188 7.46875 41.1875 3.01562
Q35.1562 -1.42188 24.6094 -1.42188
Q20.2188 -1.42188 15.4531 -0.5625
Q10.6875 0.296875 5.42188 2
L5.42188 11.2812
Q10.4062 8.6875 15.2344 7.39062
Q20.0625 6.10938 24.8125 6.10938
Q31.1562 6.10938 34.5625 8.28125
Q37.9844 10.4531 37.9844 14.4062
Q37.9844 18.0625 35.5156 20.0156
Q33.0625 21.9688 24.7031 23.7812
L21.5781 24.5156
Q13.2344 26.2656 9.51562 29.9062
Q5.8125 33.5469 5.8125 39.8906
Q5.8125 47.6094 11.2812 51.7969
Q16.75 56 26.8125 56
Q31.7812 56 36.1719 55.2656
Q40.5781 54.5469 44.2812 53.0781" id="BitstreamVeraSans-Roman-73"/>
     <path d="
M48.7812 52.5938
L48.7812 44.1875
Q44.9688 46.2969 41.1406 47.3438
Q37.3125 48.3906 33.4062 48.3906
Q24.6562 48.3906 19.8125 42.8438
Q14.9844 37.3125 14.9844 27.2969
Q14.9844 17.2812 19.8125 11.7344
Q24.6562 6.20312 33.4062 6.20312
Q37.3125 6.20312 41.1406 7.25
Q44.9688 8.29688 48.7812 10.4062
L48.7812 2.09375
Q45.0156 0.34375 40.9844 -0.53125
Q36.9688 -1.42188 32.4219 -1.42188
Q20.0625 -1.42188 12.7812 6.34375
Q5.51562 14.1094 5.51562 27.2969
Q5.51562 40.6719 12.8594 48.3281
Q20.2188 56 33.0156 56
Q37.1562 56 41.1094 55.1406
Q45.0625 54.2969 48.7812 52.5938" id="BitstreamVeraSans-Roman-63"/>
    </defs>
    <g transform="translate(102.7445625 23.76)scale(0.144 -0.144)">
     <use xlink:href="#BitstreamVeraSans-Roman-53"/>
     <use x="63.4765625" xlink:href="#BitstreamVeraSans-Roman-74"/>
     <use x="102.685546875" xlink:href="#BitstreamVeraSans-Roman-72"/>
     <use x="141.548828125" xlink:href="#BitstreamVeraSans-Roman-65"/>
     <use x="203.072265625" xlink:href="#BitstreamVeraSans-Roman-73"/>
     <use x="255.171875" xlink:href="#BitstreamVeraSans-Roman-73"/>
     <use x="307.271484375" xlink:href="#BitstreamVeraSans-Roman-20"/>
     <use x="339.05859375" xlink:href="#BitstreamVeraSans-Roman-54"/>
     <use x="385.392578125" xlink:href="#BitstreamVeraSans-Roman-72"/>
     <use x="426.505859375" xlink:href="#BitstreamVeraSans-Roman-69"/>
     <use x="454.2890625" xlink:href="#BitstreamVeraSans-Roman-61"/>
     <use x="515.568359375" xlink:href="#BitstreamVeraSans-Roman-6c"/>
     <use x="543.3515625" xlink:href="#BitstreamVeraSans-Roman-20"/>
     <use x="575.138671875" xlink:href="#BitstreamVeraSans-Roman-50"/>
     <use x="631.81640625" xlink:href="#BitstreamVeraSans-Roman-65"/>
     <use x="693.33984375" xlink:href="#BitstreamVeraSans-Roman-72"/>
     <use x="734.453125" xlink:href="#BitstreamVeraSans-Roman-66"/>
     <use x="769.658203125" xlink:href="#BitstreamVeraSans-Roman-6f"/>
     <use x="830.83984375" xlink:href="#BitstreamVeraSans-Roman-72"/>
     <use x="870.203125" xlink:href="#BitstreamVeraSans-Roman-6d"/>
     <use x="967.615234375" xlink:href="#BitstreamVeraSans-Roman-61"/>
     <use x="1028.89453125" xlink:href="#BitstreamVeraSans-Roman-6e"/>
     <use x="1092.2734375" xlink:href="#BitstreamVeraSans-Roman-63"/>
     <use x="1147.25390625" xlink:href="#BitstreamVeraSans-Roman-65"/>
     <use x="1208.77734375" xlink:href="#BitstreamVeraSans-Roman-3a"/>
     <use x="1242.46875" xlink:href="#BitstreamVeraSans-Roman-20"/>
     <use x="1274.25585938" xlink:href="#BitstreamVeraSans-Roman-54"/>
     <use x="1320.58984375" xlink:href="#BitstreamVeraSans-Roman-72"/>
     <use x="1361.703125" xlink:href="#BitstreamVeraSans-Roman-69"/>
     <use x="1389.48632812" xlink:href="#BitstreamVeraSans-Roman-61"/>
     <use x="1450.765625" xlink:href="#BitstreamVeraSans-Roman-6c"/>
     <use x="1478.54882812" xlink:href="#BitstreamVeraSans-Roman-20"/>
     <use x="1510.3359375" xlink:href="#BitstreamVeraSans-Roman-43"/>
     <use x="1580.16015625" xlink:href="#BitstreamVeraSans-Roman-6f"/>
     <use x="1641.34179688" xlink:href="#BitstreamVeraSans-Roman-6d"/>
     <use x="1738.75390625" xlink:href="#BitstreamVeraSans-Roman-70"/>
     <use x="1802.23046875" xlink:href="#BitstreamVeraSans-Roman-6c"/>
     <use x="1830.01367188" xlink:href="#BitstreamVeraSans-Roman-65"/>
     <use x="1891.53710938" xlink:href="#BitstreamVeraSans-Roman-74"/>
     <use x="1930.74609375" xlink:href="#BitstreamVeraSans-Roman-69"/>
     <use x="1958.52929688" xlink:href="#BitstreamVeraSans-Roman-6f"/>
     <use x="2019.7109375" xlink:href="#BitstreamVeraSans-Roman-6e"/>
     <use x="2083.08984375" xlink:href="#BitstreamVeraSans-Roman-20"/>
     <use x="2114.87695312" xlink:href="#BitstreamVeraSans-Roman-52"/>
     <use x="2182.109375" xlink:href="#BitstreamVeraSans-Roman-61"/>
     <use x="2243.38867188" xlink:href="#BitstreamVeraSans-Roman-74"/>
     <use x="2282.59765625" xlink:href="#BitstreamVeraSans-Roman-65"/>
     <use x="2344.12109375" xlink:href="#BitstreamVeraSans-Roman-20"/>
     <use x="2375.90820312" xlink:href="#BitstreamVeraSans-Roman-30"/>
     <use x="2439.53125" xlink:href="#BitstreamVeraSans-Roman-2e"/>
     <use x="2471.31835938" xlink:href="#BitstreamVeraSans-Roman-34"/>
     <use x="2534.94140625" xlink:href="#BitstreamVeraSans-Roman-32"/>
     <use x="2598.56445312" xlink:href="#BitstreamVeraSans-Roman-39"/>
     <use x="2662.1875" xlink:href="#BitstreamVeraSans-Roman-39"/>
     <use x="2725.81054688" xlink:href="#BitstreamVeraSans-Roman-37"/>
     <use x="2789.43359375" xlink:href="#BitstreamVeraSans-Roman-35"/>
    </g>
   </g>
  </g>
  <g id="axes_2">
   <g id="patch_7">
    <path d="
M52.0256 384.84
L563.04 384.84
L563.04 238.28
L52.0256 238.28
z
" style="fill:#ffffff;"/>
   </g>
   <g id="line2d_31">
    <path clip-path="url(#peed5fb745c)" d="
M52.0256 384.84
L54.6462 384.84
L57.2668 340.428
L59.8874 351.531
L62.508 331.545
L65.1286 318.222
L67.7491 308.705
L70.3697 301.567
L72.9903 296.016
L75.6109 291.575
L78.2315 300.053
L80.8521 307.119
L83.4727 302.848
L86.0932 308.705
L88.7138 313.781
L91.3344 318.222
L93.955 322.141
L96.5756 318.222
L99.1962 314.716
L101.817 318.222
L104.437 321.394
L107.058 324.278
L109.679 326.911
L112.299 323.773
L114.92 326.216
L117.54 328.471
L120.161 330.559
L122.781 332.497
L125.402 329.708
L128.023 327.104
L130.643 328.967
L133.264 326.549
L138.505 329.978
L143.746 333.026
L146.367 334.426
L148.987 332.247
L151.608 333.595
L156.849 329.596
L162.09 325.968
L164.711 327.306
L167.331 325.624
L172.573 328.144
L177.814 330.458
L183.055 332.59
L185.676 332.59
L188.296 329.978
L190.917 332.59
L193.537 329.978
L196.158 329.978
L198.778 332.59
L201.399 332.59
L209.261 340.428
L211.881 337.815
L214.502 337.815
L217.123 340.428
L230.226 340.428
L232.846 343.04
L235.467 343.04
L238.087 340.428
L243.328 340.428
L245.949 343.04
L248.57 343.04
L251.19 340.428
L253.811 340.428
L256.431 337.815
L259.052 337.815
L261.673 340.428
L264.293 340.428
L266.914 343.04
L285.258 343.04
L287.878 345.653
L293.12 345.653
L295.74 348.265
L298.361 348.265
L300.981 350.878
L308.843 343.04
L316.705 343.04
L319.325 340.428
L321.946 343.04
L324.567 343.04
L329.808 348.265
L332.428 345.653
L335.049 348.265
L337.67 348.265
L342.911 343.04
L345.531 345.653
L350.772 340.428
L361.255 340.428
L363.875 343.04
L366.496 340.428
L369.117 340.428
L371.737 343.04
L379.599 343.04
L382.22 340.428
L384.84 340.428
L387.461 337.815
L390.081 340.428
L413.667 340.428
L416.287 343.04
L421.528 343.04
L424.149 345.653
L434.631 345.653
L442.493 353.49
L458.217 353.49
L460.837 350.878
L471.319 350.878
L476.561 356.103
L487.043 356.103
L489.664 353.49
L497.525 353.49
L500.146 356.103
L515.869 356.103
L521.111 361.328
L523.731 361.328
L526.352 363.94
L531.593 363.94
L534.214 361.328
L557.799 361.328
L560.419 363.94
L560.419 363.94" style="fill:none;stroke:#ff0000;stroke-linecap:square;"/>
   </g>
   <g id="line2d_32">
    <path clip-path="url(#peed5fb745c)" d="
M52.0256 384.84
L59.8874 384.84
L62.508 318.222
L65.1286 340.428
L67.7491 351.531
L70.3697 358.193
L72.9903 340.428
L75.6109 327.739
L80.8521 327.739
L83.4727 318.222
L93.955 318.222
L96.5756 310.82
L99.1962 318.222
L109.679 318.222
L112.299 324.278
L122.781 324.278
L125.402 329.325
L128.023 323.346
L130.643 323.346
L133.264 327.739
L146.367 327.739
L148.987 331.545
L151.608 331.545
L154.228 326.549
L156.849 322.141
L159.47 325.624
L162.09 328.74
L164.711 328.74
L167.331 324.884
L185.676 324.884
L188.296 327.739
L190.917 324.884
L193.537 327.739
L196.158 334.083
L198.778 331.545
L201.399 331.545
L204.02 328.74
L206.64 333.026
L209.261 337.815
L211.881 340.428
L214.502 340.428
L217.123 345.653
L230.226 345.653
L232.846 343.204
L235.467 343.204
L238.087 345.653
L243.328 345.653
L245.949 343.204
L248.57 343.204
L251.19 345.653
L253.811 345.653
L256.431 340.428
L259.052 333.026
L261.673 337.815
L264.293 337.815
L266.914 334.876
L280.017 334.876
L282.637 326.549
L285.258 326.549
L287.878 331.545
L293.12 331.545
L295.74 327.739
L298.361 327.739
L300.981 333.595
L303.602 327.739
L306.223 331.545
L308.843 326.549
L316.705 326.549
L319.325 329.978
L321.946 326.549
L324.567 326.549
L327.187 322.663
L329.808 318.222
L332.428 322.663
L335.049 318.222
L337.67 318.222
L340.29 322.663
L345.531 313.781
L348.152 318.222
L350.772 322.141
L361.255 322.141
L363.875 326.549
L366.496 329.978
L369.117 329.978
L371.737 326.549
L379.599 326.549
L382.22 322.141
L384.84 322.141
L387.461 325.624
L390.081 329.978
L392.702 337.815
L413.667 337.815
L416.287 343.204
L421.528 343.204
L424.149 349.31
L434.631 349.31
L437.252 356.289
L439.872 354.093
L442.493 362.634
L458.217 362.634
L460.837 364.342
L471.319 364.342
L473.94 362.634
L476.561 372.728
L487.043 372.728
L489.664 362.634
L497.525 362.634
L500.146 360.615
L515.869 360.615
L518.49 358.193
L521.111 355.232
L523.731 355.232
L526.352 351.531
L531.593 351.531
L534.214 340.428
L557.799 340.428
L560.419 334.876
L560.419 334.876" style="fill:none;stroke:#ff0000;stroke-dasharray:6.000000,6.000000;stroke-dashoffset:0.0;"/>
   </g>
   <g id="line2d_33">
    <path clip-path="url(#peed5fb745c)" d="
M52.0256 251.604
L54.6462 251.604
L57.2668 296.016
L59.8874 284.913
L62.508 304.898
L65.1286 318.222
L67.7491 327.739
L70.3697 334.876
L72.9903 340.428
L75.6109 344.869
L78.2315 336.39
L80.8521 329.325
L83.4727 333.595
L86.0932 327.739
L88.7138 322.663
L91.3344 318.222
L93.955 314.303
L96.5756 318.222
L99.1962 321.728
L101.817 318.222
L104.437 315.05
L107.058 312.166
L109.679 309.532
L112.299 312.67
L114.92 310.228
L117.54 307.973
L120.161 305.885
L122.781 303.946
L125.402 306.736
L128.023 309.339
L130.643 307.477
L133.264 309.895
L138.505 306.466
L143.746 303.418
L146.367 302.017
L148.987 304.197
L151.608 302.848
L156.849 306.848
L162.09 310.476
L164.711 309.138
L167.331 310.82
L172.573 308.3
L177.814 305.986
L183.055 303.853
L185.676 303.853
L188.296 306.466
L190.917 303.853
L193.537 306.466
L196.158 306.466
L198.778 303.853
L201.399 303.853
L209.261 296.016
L211.881 298.628
L214.502 298.628
L217.123 296.016
L230.226 296.016
L232.846 293.403
L235.467 293.403
L238.087 296.016
L243.328 296.016
L245.949 293.403
L248.57 293.403
L251.19 296.016
L253.811 296.016
L256.431 298.628
L259.052 298.628
L261.673 296.016
L264.293 296.016
L266.914 293.403
L285.258 293.403
L287.878 290.791
L293.12 290.791
L295.74 288.178
L298.361 288.178
L300.981 285.566
L308.843 293.403
L316.705 293.403
L319.325 296.016
L321.946 293.403
L324.567 293.403
L329.808 288.178
L332.428 290.791
L335.049 288.178
L337.67 288.178
L342.911 293.403
L345.531 290.791
L350.772 296.016
L361.255 296.016
L363.875 293.403
L366.496 296.016
L369.117 296.016
L371.737 293.403
L379.599 293.403
L382.22 296.016
L384.84 296.016
L387.461 298.628
L390.081 296.016
L413.667 296.016
L416.287 293.403
L421.528 293.403
L424.149 290.791
L434.631 290.791
L442.493 282.953
L458.217 282.953
L460.837 285.566
L471.319 285.566
L476.561 280.341
L487.043 280.341
L489.664 282.953
L497.525 282.953
L500.146 280.341
L515.869 280.341
L521.111 275.116
L523.731 275.116
L526.352 272.503
L531.593 272.503
L534.214 275.116
L557.799 275.116
L560.419 272.503
L560.419 272.503" style="fill:none;stroke:#0000ff;stroke-linecap:square;"/>
   </g>
   <g id="line2d_34">
    <path clip-path="url(#peed5fb745c)" d="
M52.0256 251.604
L99.1962 251.604
L101.817 264.927
L104.437 263.716
L107.058 273.81
L109.679 272.102
L112.299 272.102
L114.92 270.637
L117.54 269.368
L120.161 268.258
L122.781 267.279
L128.023 267.279
L130.643 273.81
L133.264 273.81
L135.884 272.641
L138.505 278.251
L141.126 283.327
L146.367 280.568
L148.987 280.568
L151.608 279.361
L162.09 279.361
L164.711 278.251
L167.331 278.251
L169.952 277.226
L172.573 281.212
L175.193 280.154
L177.814 283.764
L183.055 281.689
L185.676 281.689
L188.296 282.692
L190.917 281.689
L193.537 282.692
L196.158 282.692
L198.778 281.689
L201.399 281.689
L206.64 279.866
L209.261 279.035
L211.881 279.866
L214.502 279.866
L217.123 282.953
L230.226 282.953
L232.846 282.058
L235.467 278.251
L238.087 279.035
L240.708 275.116
L243.328 275.116
L245.949 274.444
L248.57 278.251
L251.19 279.035
L253.811 279.035
L256.431 279.866
L259.052 279.866
L261.673 279.035
L264.293 275.116
L266.914 274.444
L269.534 274.444
L274.775 266.831
L280.017 274.444
L285.258 274.444
L287.878 273.81
L293.12 273.81
L295.74 273.21
L298.361 273.21
L300.981 276.147
L303.602 276.811
L306.223 273.81
L308.843 274.444
L311.464 270.637
L316.705 270.637
L319.325 271.197
L321.946 270.637
L324.567 274.444
L329.808 273.21
L332.428 273.81
L335.049 273.21
L337.67 273.21
L342.911 274.444
L345.531 273.81
L348.152 274.444
L350.772 271.197
L361.255 271.197
L363.875 270.637
L366.496 271.197
L369.117 275.116
L371.737 278.251
L379.599 278.251
L382.22 275.116
L384.84 275.116
L387.461 275.828
L390.081 275.116
L405.805 275.116
L408.425 279.035
L413.667 271.197
L416.287 270.637
L421.528 270.637
L424.149 270.109
L429.39 270.109
L432.011 273.81
L434.631 270.109
L439.872 276.147
L442.493 275.518
L455.596 275.518
L458.217 272.102
L460.837 272.641
L466.078 272.641
L471.319 279.653
L476.561 278.251
L487.043 278.251
L489.664 278.934
L492.284 278.934
L494.905 282.35
L497.525 282.35
L500.146 281.582
L505.387 274.92
L508.008 278.251
L510.628 278.251
L513.249 281.582
L515.869 281.582
L521.111 280.154
L523.731 283.327
L526.352 282.589
L531.593 282.589
L534.214 283.327
L539.455 283.327
L542.075 280.154
L557.799 280.154
L560.419 282.589
L560.419 282.589" style="fill:none;stroke:#0000ff;stroke-dasharray:6.000000,6.000000;stroke-dashoffset:0.0;"/>
   </g>
   <g id="patch_8">
    <path d="
M52.0256 238.28
L563.04 238.28" style="fill:none;stroke:#000000;stroke-linecap:square;stroke-linejoin:miter;"/>
   </g>
   <g id="patch_9">
    <path d="
M563.04 384.84
L563.04 238.28" style="fill:none;stroke:#000000;stroke-linecap:square;stroke-linejoin:miter;"/>
   </g>
   <g id="patch_10">
    <path d="
M52.0256 384.84
L563.04 384.84" style="fill:none;stroke:#000000;stroke-linecap:square;stroke-linejoin:miter;"/>
   </g>
   <g id="patch_11">
    <path d="
M52.0256 384.84
L52.0256 238.28" style="fill:none;stroke:#000000;stroke-linecap:square;stroke-linejoin:miter;"/>
   </g>
   <g id="matplotlib.axis_3">
    <g id="xtick_8">
     <g id="line2d_35">
      <g>
       <use style="stroke:#000000;stroke-width:0.5;" x="52.025625" xlink:href="#m93b0483c22" y="384.84"/>
      </g>
     </g>
     <g id="line2d_36">
      <g>
       <use style="stroke:#000000;stroke-width:0.5;" x="52.025625" xlink:href="#m741efc42ff" y="238.28"/>
      </g>
     </g>
     <g id="text_17">
      <!-- 0 -->
      <g transform="translate(49.0021875 397.958125)scale(0.12 -0.12)">
       <use xlink:href="#BitstreamVeraSans-Roman-30"/>
      </g>
     </g>
    </g>
    <g id="xtick_9">
     <g id="line2d_37">
      <g>
       <use style="stroke:#000000;stroke-width:0.5;" x="183.054951923" xlink:href="#m93b0483c22" y="384.84"/>
      </g>
     </g>
     <g id="line2d_38">
      <g>
       <use style="stroke:#000000;stroke-width:0.5;" x="183.054951923" xlink:href="#m741efc42ff" y="238.28"/>
      </g>
     </g>
     <g id="text_18">
      <!-- 50 -->
      <g transform="translate(176.281514423 397.958125)scale(0.12 -0.12)">
       <use xlink:href="#BitstreamVeraSans-Roman-35"/>
       <use x="63.623046875" xlink:href="#BitstreamVeraSans-Roman-30"/>
      </g>
     </g>
    </g>
    <g id="xtick_10">
     <g id="line2d_39">
      <g>
       <use style="stroke:#000000;stroke-width:0.5;" x="314.084278846" xlink:href="#m93b0483c22" y="384.84"/>
      </g>
     </g>
     <g id="line2d_40">
      <g>
       <use style="stroke:#000000;stroke-width:0.5;" x="314.084278846" xlink:href="#m741efc42ff" y="238.28"/>
      </g>
     </g>
     <g id="text_19">
      <!-- 100 -->
      <g transform="translate(303.689278846 397.958125)scale(0.12 -0.12)">
       <use xlink:href="#BitstreamVeraSans-Roman-31"/>
       <use x="63.623046875" xlink:href="#BitstreamVeraSans-Roman-30"/>
       <use x="127.24609375" xlink:href="#BitstreamVeraSans-Roman-30"/>
      </g>
     </g>
    </g>
    <g id="xtick_11">
     <g id="line2d_41">
      <g>
       <use style="stroke:#000000;stroke-width:0.5;" x="445.113605769" xlink:href="#m93b0483c22" y="384.84"/>
      </g>
     </g>
     <g id="line2d_42">
      <g>
       <use style="stroke:#000000;stroke-width:0.5;" x="445.113605769" xlink:href="#m741efc42ff" y="238.28"/>
      </g>
     </g>
     <g id="text_20">
      <!-- 150 -->
      <g transform="translate(434.718605769 397.958125)scale(0.12 -0.12)">
       <use xlink:href="#BitstreamVeraSans-Roman-31"/>
       <use x="63.623046875" xlink:href="#BitstreamVeraSans-Roman-35"/>
       <use x="127.24609375" xlink:href="#BitstreamVeraSans-Roman-30"/>
      </g>
     </g>
    </g>
    <g id="text_21">
     <!-- Trial Number -->
     <g transform="translate(269.248125 414.571875)scale(0.12 -0.12)">
      <use xlink:href="#BitstreamVeraSans-Roman-54"/>
      <use x="46.333984375" xlink:href="#BitstreamVeraSans-Roman-72"/>
      <use x="87.447265625" xlink:href="#BitstreamVeraSans-Roman-69"/>
      <use x="115.23046875" xlink:href="#BitstreamVeraSans-Roman-61"/>
      <use x="176.509765625" xlink:href="#BitstreamVeraSans-Roman-6c"/>
      <use x="204.29296875" xlink:href="#BitstreamVeraSans-Roman-20"/>
      <use x="236.080078125" xlink:href="#BitstreamVeraSans-Roman-4e"/>
      <use x="310.884765625" xlink:href="#BitstreamVeraSans-Roman-75"/>
      <use x="374.263671875" xlink:href="#BitstreamVeraSans-Roman-6d"/>
      <use x="471.67578125" xlink:href="#BitstreamVeraSans-Roman-62"/>
      <use x="535.15234375" xlink:href="#BitstreamVeraSans-Roman-65"/>
      <use x="596.67578125" xlink:href="#BitstreamVeraSans-Roman-72"/>
     </g>
    </g>
   </g>
   <g id="matplotlib.axis_4">
    <g id="ytick_7">
     <g id="line2d_43">
      <g>
       <use style="stroke:#000000;stroke-width:0.5;" x="52.025625" xlink:href="#m728421d6d4" y="384.84"/>
      </g>
     </g>
     <g id="line2d_44">
      <g>
       <use style="stroke:#000000;stroke-width:0.5;" x="563.04" xlink:href="#mcb0005524f" y="384.84"/>
      </g>
     </g>
     <g id="text_22">
      <!-- 0.0 -->
      <g transform="translate(30.53 388.15125)scale(0.12 -0.12)">
       <use xlink:href="#BitstreamVeraSans-Roman-30"/>
       <use x="63.623046875" xlink:href="#BitstreamVeraSans-Roman-2e"/>
       <use x="95.41015625" xlink:href="#BitstreamVeraSans-Roman-30"/>
      </g>
     </g>
    </g>
    <g id="ytick_8">
     <g id="line2d_45">
      <g>
       <use style="stroke:#000000;stroke-width:0.5;" x="52.025625" xlink:href="#m728421d6d4" y="358.192727273"/>
      </g>
     </g>
     <g id="line2d_46">
      <g>
       <use style="stroke:#000000;stroke-width:0.5;" x="563.04" xlink:href="#mcb0005524f" y="358.192727273"/>
      </g>
     </g>
     <g id="text_23">
      <!-- 0.2 -->
      <g transform="translate(30.935 361.503977273)scale(0.12 -0.12)">
       <use xlink:href="#BitstreamVeraSans-Roman-30"/>
       <use x="63.623046875" xlink:href="#BitstreamVeraSans-Roman-2e"/>
       <use x="95.41015625" xlink:href="#BitstreamVeraSans-Roman-32"/>
      </g>
     </g>
    </g>
    <g id="ytick_9">
     <g id="line2d_47">
      <g>
       <use style="stroke:#000000;stroke-width:0.5;" x="52.025625" xlink:href="#m728421d6d4" y="331.545454545"/>
      </g>
     </g>
     <g id="line2d_48">
      <g>
       <use style="stroke:#000000;stroke-width:0.5;" x="563.04" xlink:href="#mcb0005524f" y="331.545454545"/>
      </g>
     </g>
     <g id="text_24">
      <!-- 0.4 -->
      <g transform="translate(30.40625 334.856704545)scale(0.12 -0.12)">
       <use xlink:href="#BitstreamVeraSans-Roman-30"/>
       <use x="63.623046875" xlink:href="#BitstreamVeraSans-Roman-2e"/>
       <use x="95.41015625" xlink:href="#BitstreamVeraSans-Roman-34"/>
      </g>
     </g>
    </g>
    <g id="ytick_10">
     <g id="line2d_49">
      <g>
       <use style="stroke:#000000;stroke-width:0.5;" x="52.025625" xlink:href="#m728421d6d4" y="304.898181818"/>
      </g>
     </g>
     <g id="line2d_50">
      <g>
       <use style="stroke:#000000;stroke-width:0.5;" x="563.04" xlink:href="#mcb0005524f" y="304.898181818"/>
      </g>
     </g>
     <g id="text_25">
      <!-- 0.6 -->
      <g transform="translate(30.48875 308.209431818)scale(0.12 -0.12)">
       <use xlink:href="#BitstreamVeraSans-Roman-30"/>
       <use x="63.623046875" xlink:href="#BitstreamVeraSans-Roman-2e"/>
       <use x="95.41015625" xlink:href="#BitstreamVeraSans-Roman-36"/>
      </g>
     </g>
    </g>
    <g id="ytick_11">
     <g id="line2d_51">
      <g>
       <use style="stroke:#000000;stroke-width:0.5;" x="52.025625" xlink:href="#m728421d6d4" y="278.250909091"/>
      </g>
     </g>
     <g id="line2d_52">
      <g>
       <use style="stroke:#000000;stroke-width:0.5;" x="563.04" xlink:href="#mcb0005524f" y="278.250909091"/>
      </g>
     </g>
     <g id="text_26">
      <!-- 0.8 -->
      <g transform="translate(30.554375 281.562159091)scale(0.12 -0.12)">
       <use xlink:href="#BitstreamVeraSans-Roman-30"/>
       <use x="63.623046875" xlink:href="#BitstreamVeraSans-Roman-2e"/>
       <use x="95.41015625" xlink:href="#BitstreamVeraSans-Roman-38"/>
      </g>
     </g>
    </g>
    <g id="ytick_12">
     <g id="line2d_53">
      <g>
       <use style="stroke:#000000;stroke-width:0.5;" x="52.025625" xlink:href="#m728421d6d4" y="251.603636364"/>
      </g>
     </g>
     <g id="line2d_54">
      <g>
       <use style="stroke:#000000;stroke-width:0.5;" x="563.04" xlink:href="#mcb0005524f" y="251.603636364"/>
      </g>
     </g>
     <g id="text_27">
      <!-- 1.0 -->
      <g transform="translate(31.056875 254.914886364)scale(0.12 -0.12)">
       <use xlink:href="#BitstreamVeraSans-Roman-31"/>
       <use x="63.623046875" xlink:href="#BitstreamVeraSans-Roman-2e"/>
       <use x="95.41015625" xlink:href="#BitstreamVeraSans-Roman-30"/>
      </g>
     </g>
    </g>
    <g id="text_28">
     <!-- Probability -->
     <g transform="translate(22.910625 342.506875)rotate(-90.0)scale(0.12 -0.12)">
      <use xlink:href="#BitstreamVeraSans-Roman-50"/>
      <use x="58.552734375" xlink:href="#BitstreamVeraSans-Roman-72"/>
      <use x="97.416015625" xlink:href="#BitstreamVeraSans-Roman-6f"/>
      <use x="158.59765625" xlink:href="#BitstreamVeraSans-Roman-62"/>
      <use x="222.07421875" xlink:href="#BitstreamVeraSans-Roman-61"/>
      <use x="283.353515625" xlink:href="#BitstreamVeraSans-Roman-62"/>
      <use x="346.830078125" xlink:href="#BitstreamVeraSans-Roman-69"/>
      <use x="374.61328125" xlink:href="#BitstreamVeraSans-Roman-6c"/>
      <use x="402.396484375" xlink:href="#BitstreamVeraSans-Roman-69"/>
      <use x="430.1796875" xlink:href="#BitstreamVeraSans-Roman-74"/>
      <use x="469.388671875" xlink:href="#BitstreamVeraSans-Roman-79"/>
     </g>
    </g>
   </g>
   <g id="text_29">
    <!-- Regular Trial Performance: Trial Completion Rate 0.843373 -->
    <defs>
     <path d="
M40.5781 39.3125
Q47.6562 37.7969 51.625 33
Q55.6094 28.2188 55.6094 21.1875
Q55.6094 10.4062 48.1875 4.48438
Q40.7656 -1.42188 27.0938 -1.42188
Q22.5156 -1.42188 17.6562 -0.515625
Q12.7969 0.390625 7.625 2.20312
L7.625 11.7188
Q11.7188 9.32812 16.5938 8.10938
Q21.4844 6.89062 26.8125 6.89062
Q36.0781 6.89062 40.9375 10.5469
Q45.7969 14.2031 45.7969 21.1875
Q45.7969 27.6406 41.2812 31.2656
Q36.7656 34.9062 28.7188 34.9062
L20.2188 34.9062
L20.2188 43.0156
L29.1094 43.0156
Q36.375 43.0156 40.2344 45.9219
Q44.0938 48.8281 44.0938 54.2969
Q44.0938 59.9062 40.1094 62.9062
Q36.1406 65.9219 28.7188 65.9219
Q24.6562 65.9219 20.0156 65.0312
Q15.375 64.1562 9.8125 62.3125
L9.8125 71.0938
Q15.4375 72.6562 20.3438 73.4375
Q25.25 74.2188 29.5938 74.2188
Q40.8281 74.2188 47.3594 69.1094
Q53.9062 64.0156 53.9062 55.3281
Q53.9062 49.2656 50.4375 45.0938
Q46.9688 40.9219 40.5781 39.3125" id="BitstreamVeraSans-Roman-33"/>
     <path d="
M45.4062 27.9844
Q45.4062 37.75 41.375 43.1094
Q37.3594 48.4844 30.0781 48.4844
Q22.8594 48.4844 18.8281 43.1094
Q14.7969 37.75 14.7969 27.9844
Q14.7969 18.2656 18.8281 12.8906
Q22.8594 7.51562 30.0781 7.51562
Q37.3594 7.51562 41.375 12.8906
Q45.4062 18.2656 45.4062 27.9844
M54.3906 6.78125
Q54.3906 -7.17188 48.1875 -13.9844
Q42 -20.7969 29.2031 -20.7969
Q24.4688 -20.7969 20.2656 -20.0938
Q16.0625 -19.3906 12.1094 -17.9219
L12.1094 -9.1875
Q16.0625 -11.3281 19.9219 -12.3438
Q23.7812 -13.375 27.7812 -13.375
Q36.625 -13.375 41.0156 -8.76562
Q45.4062 -4.15625 45.4062 5.17188
L45.4062 9.625
Q42.625 4.78125 38.2812 2.39062
Q33.9375 0 27.875 0
Q17.8281 0 11.6719 7.65625
Q5.51562 15.3281 5.51562 27.9844
Q5.51562 40.6719 11.6719 48.3281
Q17.8281 56 27.875 56
Q33.9375 56 38.2812 53.6094
Q42.625 51.2188 45.4062 46.3906
L45.4062 54.6875
L54.3906 54.6875
z
" id="BitstreamVeraSans-Roman-67"/>
    </defs>
    <g transform="translate(97.2005625 233.28)scale(0.144 -0.144)">
     <use xlink:href="#BitstreamVeraSans-Roman-52"/>
     <use x="64.982421875" xlink:href="#BitstreamVeraSans-Roman-65"/>
     <use x="126.505859375" xlink:href="#BitstreamVeraSans-Roman-67"/>
     <use x="189.982421875" xlink:href="#BitstreamVeraSans-Roman-75"/>
     <use x="253.361328125" xlink:href="#BitstreamVeraSans-Roman-6c"/>
     <use x="281.14453125" xlink:href="#BitstreamVeraSans-Roman-61"/>
     <use x="342.423828125" xlink:href="#BitstreamVeraSans-Roman-72"/>
     <use x="383.537109375" xlink:href="#BitstreamVeraSans-Roman-20"/>
     <use x="415.32421875" xlink:href="#BitstreamVeraSans-Roman-54"/>
     <use x="461.658203125" xlink:href="#BitstreamVeraSans-Roman-72"/>
     <use x="502.771484375" xlink:href="#BitstreamVeraSans-Roman-69"/>
     <use x="530.5546875" xlink:href="#BitstreamVeraSans-Roman-61"/>
     <use x="591.833984375" xlink:href="#BitstreamVeraSans-Roman-6c"/>
     <use x="619.6171875" xlink:href="#BitstreamVeraSans-Roman-20"/>
     <use x="651.404296875" xlink:href="#BitstreamVeraSans-Roman-50"/>
     <use x="708.08203125" xlink:href="#BitstreamVeraSans-Roman-65"/>
     <use x="769.60546875" xlink:href="#BitstreamVeraSans-Roman-72"/>
     <use x="810.71875" xlink:href="#BitstreamVeraSans-Roman-66"/>
     <use x="845.923828125" xlink:href="#BitstreamVeraSans-Roman-6f"/>
     <use x="907.10546875" xlink:href="#BitstreamVeraSans-Roman-72"/>
     <use x="946.46875" xlink:href="#BitstreamVeraSans-Roman-6d"/>
     <use x="1043.88085938" xlink:href="#BitstreamVeraSans-Roman-61"/>
     <use x="1105.16015625" xlink:href="#BitstreamVeraSans-Roman-6e"/>
     <use x="1168.5390625" xlink:href="#BitstreamVeraSans-Roman-63"/>
     <use x="1223.51953125" xlink:href="#BitstreamVeraSans-Roman-65"/>
     <use x="1285.04296875" xlink:href="#BitstreamVeraSans-Roman-3a"/>
     <use x="1318.734375" xlink:href="#BitstreamVeraSans-Roman-20"/>
     <use x="1350.52148438" xlink:href="#BitstreamVeraSans-Roman-54"/>
     <use x="1396.85546875" xlink:href="#BitstreamVeraSans-Roman-72"/>
     <use x="1437.96875" xlink:href="#BitstreamVeraSans-Roman-69"/>
     <use x="1465.75195312" xlink:href="#BitstreamVeraSans-Roman-61"/>
     <use x="1527.03125" xlink:href="#BitstreamVeraSans-Roman-6c"/>
     <use x="1554.81445312" xlink:href="#BitstreamVeraSans-Roman-20"/>
     <use x="1586.6015625" xlink:href="#BitstreamVeraSans-Roman-43"/>
     <use x="1656.42578125" xlink:href="#BitstreamVeraSans-Roman-6f"/>
     <use x="1717.60742188" xlink:href="#BitstreamVeraSans-Roman-6d"/>
     <use x="1815.01953125" xlink:href="#BitstreamVeraSans-Roman-70"/>
     <use x="1878.49609375" xlink:href="#BitstreamVeraSans-Roman-6c"/>
     <use x="1906.27929688" xlink:href="#BitstreamVeraSans-Roman-65"/>
     <use x="1967.80273438" xlink:href="#BitstreamVeraSans-Roman-74"/>
     <use x="2007.01171875" xlink:href="#BitstreamVeraSans-Roman-69"/>
     <use x="2034.79492188" xlink:href="#BitstreamVeraSans-Roman-6f"/>
     <use x="2095.9765625" xlink:href="#BitstreamVeraSans-Roman-6e"/>
     <use x="2159.35546875" xlink:href="#BitstreamVeraSans-Roman-20"/>
     <use x="2191.14257812" xlink:href="#BitstreamVeraSans-Roman-52"/>
     <use x="2258.375" xlink:href="#BitstreamVeraSans-Roman-61"/>
     <use x="2319.65429688" xlink:href="#BitstreamVeraSans-Roman-74"/>
     <use x="2358.86328125" xlink:href="#BitstreamVeraSans-Roman-65"/>
     <use x="2420.38671875" xlink:href="#BitstreamVeraSans-Roman-20"/>
     <use x="2452.17382812" xlink:href="#BitstreamVeraSans-Roman-30"/>
     <use x="2515.796875" xlink:href="#BitstreamVeraSans-Roman-2e"/>
     <use x="2547.58398438" xlink:href="#BitstreamVeraSans-Roman-38"/>
     <use x="2611.20703125" xlink:href="#BitstreamVeraSans-Roman-34"/>
     <use x="2674.83007812" xlink:href="#BitstreamVeraSans-Roman-33"/>
     <use x="2738.453125" xlink:href="#BitstreamVeraSans-Roman-33"/>
     <use x="2802.07617188" xlink:href="#BitstreamVeraSans-Roman-37"/>
     <use x="2865.69921875" xlink:href="#BitstreamVeraSans-Roman-33"/>
    </g>
   </g>
   <g id="legend_1">
    <g id="patch_12">
     <path d="
M404.147 334.346
L555.84 334.346
L555.84 245.48
L404.147 245.48
z
" style="fill:#ffffff;stroke:#000000;stroke-linejoin:miter;"/>
    </g>
    <g id="line2d_55">
     <path d="
M414.227 257.142
L434.387 257.142" style="fill:none;stroke:#ff0000;stroke-linecap:square;"/>
    </g>
    <g id="line2d_56"/>
    <g id="text_30">
     <!-- Target - Low -->
     <defs>
      <path d="
M4.20312 54.6875
L13.1875 54.6875
L24.4219 12.0156
L35.5938 54.6875
L46.1875 54.6875
L57.4219 12.0156
L68.6094 54.6875
L77.5938 54.6875
L63.2812 0
L52.6875 0
L40.9219 44.8281
L29.1094 0
L18.5 0
z
" id="BitstreamVeraSans-Roman-77"/>
      <path d="
M9.8125 72.9062
L19.6719 72.9062
L19.6719 8.29688
L55.1719 8.29688
L55.1719 0
L9.8125 0
z
" id="BitstreamVeraSans-Roman-4c"/>
      <path d="
M4.89062 31.3906
L31.2031 31.3906
L31.2031 23.3906
L4.89062 23.3906
z
" id="BitstreamVeraSans-Roman-2d"/>
     </defs>
     <g transform="translate(450.22725 262.18175)scale(0.144 -0.144)">
      <use xlink:href="#BitstreamVeraSans-Roman-54"/>
      <use x="44.583984375" xlink:href="#BitstreamVeraSans-Roman-61"/>
      <use x="105.86328125" xlink:href="#BitstreamVeraSans-Roman-72"/>
      <use x="145.2265625" xlink:href="#BitstreamVeraSans-Roman-67"/>
      <use x="208.703125" xlink:href="#BitstreamVeraSans-Roman-65"/>
      <use x="270.2265625" xlink:href="#BitstreamVeraSans-Roman-74"/>
      <use x="309.435546875" xlink:href="#BitstreamVeraSans-Roman-20"/>
      <use x="341.22265625" xlink:href="#BitstreamVeraSans-Roman-2d"/>
      <use x="377.306640625" xlink:href="#BitstreamVeraSans-Roman-20"/>
      <use x="409.09375" xlink:href="#BitstreamVeraSans-Roman-4c"/>
      <use x="463.056640625" xlink:href="#BitstreamVeraSans-Roman-6f"/>
      <use x="524.23828125" xlink:href="#BitstreamVeraSans-Roman-77"/>
     </g>
    </g>
    <g id="line2d_57">
     <path d="
M414.227 278.278
L434.387 278.278" style="fill:none;stroke:#ff0000;stroke-dasharray:6.000000,6.000000;stroke-dashoffset:0.0;"/>
    </g>
    <g id="line2d_58"/>
    <g id="text_31">
     <!-- Reward - Low -->
     <defs>
      <path d="
M45.4062 46.3906
L45.4062 75.9844
L54.3906 75.9844
L54.3906 0
L45.4062 0
L45.4062 8.20312
Q42.5781 3.32812 38.25 0.953125
Q33.9375 -1.42188 27.875 -1.42188
Q17.9688 -1.42188 11.7344 6.48438
Q5.51562 14.4062 5.51562 27.2969
Q5.51562 40.1875 11.7344 48.0938
Q17.9688 56 27.875 56
Q33.9375 56 38.25 53.625
Q42.5781 51.2656 45.4062 46.3906
M14.7969 27.2969
Q14.7969 17.3906 18.875 11.75
Q22.9531 6.10938 30.0781 6.10938
Q37.2031 6.10938 41.2969 11.75
Q45.4062 17.3906 45.4062 27.2969
Q45.4062 37.2031 41.2969 42.8438
Q37.2031 48.4844 30.0781 48.4844
Q22.9531 48.4844 18.875 42.8438
Q14.7969 37.2031 14.7969 27.2969" id="BitstreamVeraSans-Roman-64"/>
     </defs>
     <g transform="translate(450.22725 283.31825)scale(0.144 -0.144)">
      <use xlink:href="#BitstreamVeraSans-Roman-52"/>
      <use x="64.982421875" xlink:href="#BitstreamVeraSans-Roman-65"/>
      <use x="126.505859375" xlink:href="#BitstreamVeraSans-Roman-77"/>
      <use x="208.29296875" xlink:href="#BitstreamVeraSans-Roman-61"/>
      <use x="269.572265625" xlink:href="#BitstreamVeraSans-Roman-72"/>
      <use x="308.935546875" xlink:href="#BitstreamVeraSans-Roman-64"/>
      <use x="372.412109375" xlink:href="#BitstreamVeraSans-Roman-20"/>
      <use x="404.19921875" xlink:href="#BitstreamVeraSans-Roman-2d"/>
      <use x="440.283203125" xlink:href="#BitstreamVeraSans-Roman-20"/>
      <use x="472.0703125" xlink:href="#BitstreamVeraSans-Roman-4c"/>
      <use x="526.033203125" xlink:href="#BitstreamVeraSans-Roman-6f"/>
      <use x="587.21484375" xlink:href="#BitstreamVeraSans-Roman-77"/>
     </g>
    </g>
    <g id="line2d_59">
     <path d="
M414.227 299.415
L434.387 299.415" style="fill:none;stroke:#0000ff;stroke-linecap:square;"/>
    </g>
    <g id="line2d_60"/>
    <g id="text_32">
     <!-- Target - High -->
     <defs>
      <path d="
M54.8906 33.0156
L54.8906 0
L45.9062 0
L45.9062 32.7188
Q45.9062 40.4844 42.875 44.3281
Q39.8438 48.1875 33.7969 48.1875
Q26.5156 48.1875 22.3125 43.5469
Q18.1094 38.9219 18.1094 30.9062
L18.1094 0
L9.07812 0
L9.07812 75.9844
L18.1094 75.9844
L18.1094 46.1875
Q21.3438 51.125 25.7031 53.5625
Q30.0781 56 35.7969 56
Q45.2188 56 50.0469 50.1719
Q54.8906 44.3438 54.8906 33.0156" id="BitstreamVeraSans-Roman-68"/>
      <path d="
M9.8125 72.9062
L19.6719 72.9062
L19.6719 43.0156
L55.5156 43.0156
L55.5156 72.9062
L65.375 72.9062
L65.375 0
L55.5156 0
L55.5156 34.7188
L19.6719 34.7188
L19.6719 0
L9.8125 0
z
" id="BitstreamVeraSans-Roman-48"/>
     </defs>
     <g transform="translate(450.22725 304.45475)scale(0.144 -0.144)">
      <use xlink:href="#BitstreamVeraSans-Roman-54"/>
      <use x="44.583984375" xlink:href="#BitstreamVeraSans-Roman-61"/>
      <use x="105.86328125" xlink:href="#BitstreamVeraSans-Roman-72"/>
      <use x="145.2265625" xlink:href="#BitstreamVeraSans-Roman-67"/>
      <use x="208.703125" xlink:href="#BitstreamVeraSans-Roman-65"/>
      <use x="270.2265625" xlink:href="#BitstreamVeraSans-Roman-74"/>
      <use x="309.435546875" xlink:href="#BitstreamVeraSans-Roman-20"/>
      <use x="341.22265625" xlink:href="#BitstreamVeraSans-Roman-2d"/>
      <use x="377.306640625" xlink:href="#BitstreamVeraSans-Roman-20"/>
      <use x="409.09375" xlink:href="#BitstreamVeraSans-Roman-48"/>
      <use x="484.2890625" xlink:href="#BitstreamVeraSans-Roman-69"/>
      <use x="512.072265625" xlink:href="#BitstreamVeraSans-Roman-67"/>
      <use x="575.548828125" xlink:href="#BitstreamVeraSans-Roman-68"/>
     </g>
    </g>
    <g id="line2d_61">
     <path d="
M414.227 320.551
L434.387 320.551" style="fill:none;stroke:#0000ff;stroke-dasharray:6.000000,6.000000;stroke-dashoffset:0.0;"/>
    </g>
    <g id="line2d_62"/>
    <g id="text_33">
     <!-- Reward - High -->
     <g transform="translate(450.22725 325.59125)scale(0.144 -0.144)">
      <use xlink:href="#BitstreamVeraSans-Roman-52"/>
      <use x="64.982421875" xlink:href="#BitstreamVeraSans-Roman-65"/>
      <use x="126.505859375" xlink:href="#BitstreamVeraSans-Roman-77"/>
      <use x="208.29296875" xlink:href="#BitstreamVeraSans-Roman-61"/>
      <use x="269.572265625" xlink:href="#BitstreamVeraSans-Roman-72"/>
      <use x="308.935546875" xlink:href="#BitstreamVeraSans-Roman-64"/>
      <use x="372.412109375" xlink:href="#BitstreamVeraSans-Roman-20"/>
      <use x="404.19921875" xlink:href="#BitstreamVeraSans-Roman-2d"/>
      <use x="440.283203125" xlink:href="#BitstreamVeraSans-Roman-20"/>
      <use x="472.0703125" xlink:href="#BitstreamVeraSans-Roman-48"/>
      <use x="547.265625" xlink:href="#BitstreamVeraSans-Roman-69"/>
      <use x="575.048828125" xlink:href="#BitstreamVeraSans-Roman-67"/>
      <use x="638.525390625" xlink:href="#BitstreamVeraSans-Roman-68"/>
     </g>
    </g>
   </g>
  </g>
 </g>
 <defs>
  <clipPath id="peed5fb745c">
   <rect height="146.56" width="511.014375" x="52.025625" y="238.28"/>
  </clipPath>
  <clipPath id="pbf832bf3cd">
   <rect height="146.56" width="511.014375" x="52.025625" y="28.76"/>
  </clipPath>
 </defs>
</svg>
