<?xml version="1.0" encoding="utf-8" standalone="no"?>
<!DOCTYPE svg PUBLIC "-//W3C//DTD SVG 1.1//EN"
  "http://www.w3.org/Graphics/SVG/1.1/DTD/svg11.dtd">
<!-- Created with matplotlib (http://matplotlib.org/) -->
<svg height="432pt" version="1.1" viewBox="0 0 576 432" width="576pt" xmlns="http://www.w3.org/2000/svg" xmlns:xlink="http://www.w3.org/1999/xlink">
 <defs>
  <style type="text/css">
*{stroke-linecap:butt;stroke-linejoin:round;}
  </style>
 </defs>
 <g id="figure_1">
  <g id="patch_1">
   <path d="
M0 432
L576 432
L576 0
L0 0
z
" style="fill:#ffffff;"/>
  </g>
  <g id="axes_1">
   <g id="patch_2">
    <path d="
M52.0256 175.32
L563.04 175.32
L563.04 28.76
L52.0256 28.76
z
" style="fill:#ffffff;"/>
   </g>
   <g id="line2d_1">
    <path clip-path="url(#pbf832bf3cd)" d="
M52.0256 175.32
L64.8813 175.32
L68.0953 153.114
L71.3092 137.252
L74.5231 125.356
L77.737 116.104
L80.951 108.702
L84.1649 114.758
L87.3788 108.702
L90.5927 113.826
L93.8067 118.219
L97.0206 122.025
L100.235 117.029
L103.448 112.621
L106.662 108.702
L109.876 105.196
L113.09 108.702
L116.304 105.53
L119.518 102.646
L122.732 105.805
L125.946 108.702
L129.16 111.367
L132.374 108.702
L135.588 106.234
L138.802 108.702
L142.016 106.405
L145.23 108.702
L148.443 106.553
L151.657 104.538
L158.085 108.702
L161.299 106.798
L167.727 110.502
L174.155 106.994
L177.369 105.371
L180.583 107.077
L187.011 104.054
L190.224 102.646
L193.438 104.261
L196.652 102.909
L203.08 105.926
L209.508 103.372
L212.722 104.783
L219.15 99.5581
L235.219 99.5581
L241.647 104.783
L248.075 104.783
L251.289 107.396
L254.503 104.783
L257.717 104.783
L260.931 102.171
L267.359 107.396
L273.787 107.396
L277.001 104.783
L283.428 104.783
L286.642 102.171
L293.07 102.171
L299.498 107.396
L302.712 104.783
L315.568 104.783
L318.782 102.171
L321.995 102.171
L325.209 104.783
L331.637 104.783
L338.065 110.008
L344.493 110.008
L347.707 112.621
L354.135 112.621
L357.349 110.008
L360.563 110.008
L366.99 104.783
L373.418 104.783
L376.632 102.171
L389.488 102.171
L392.702 99.5581
L395.916 99.5581
L399.13 102.171
L405.558 102.171
L408.772 104.783
L411.985 104.783
L415.199 102.171
L418.413 104.783
L421.627 102.171
L424.841 104.783
L428.055 104.783
L431.269 102.171
L434.483 104.783
L437.697 104.783
L450.553 115.233
L453.766 112.621
L466.622 112.621
L469.836 115.233
L476.264 115.233
L479.478 117.845
L482.692 117.845
L485.906 115.233
L501.975 115.233
L505.189 117.845
L514.831 117.845
L518.045 120.458
L521.259 120.458
L527.687 125.683
L540.543 125.683
L543.756 128.295
L546.97 128.295
L553.398 123.07
L559.826 123.07
L559.826 123.07" style="fill:none;stroke:#ff0000;stroke-linecap:square;"/>
   </g>
   <g id="line2d_2">
    <path clip-path="url(#pbf832bf3cd)" d="
M52.0256 175.32
L64.8813 175.32
L68.0953 42.0836
L71.3092 108.702
L74.5231 130.908
L77.737 108.702
L80.951 122.025
L84.1649 122.025
L87.3788 130.908
L97.0206 130.908
L100.235 137.252
L103.448 125.356
L106.662 130.908
L109.876 135.349
L113.09 135.349
L116.304 138.983
L119.518 142.011
L129.16 142.011
L132.374 144.573
L135.588 146.769
L138.802 146.769
L142.016 148.673
L145.23 148.673
L148.443 142.011
L151.657 143.97
L158.085 143.97
L161.299 145.712
L167.727 145.712
L170.941 140.258
L174.155 135.349
L177.369 130.908
L180.583 130.908
L183.797 126.87
L187.011 128.977
L190.224 130.908
L193.438 130.908
L196.652 127.355
L203.08 127.355
L206.294 129.2
L209.508 125.973
L212.722 125.973
L215.936 122.977
L219.15 124.782
L228.792 124.782
L232.006 129.376
L235.219 124.782
L238.433 122.977
L241.647 125.973
L244.861 121.039
L248.075 121.039
L251.289 118.951
L254.503 121.039
L257.717 121.039
L260.931 122.977
L264.145 121.039
L267.359 124.075
L270.573 118.951
L273.787 118.951
L277.001 116.104
L283.428 116.104
L286.642 118.219
L293.07 118.219
L296.284 116.104
L299.498 113.826
L302.712 111.169
L305.926 106.234
L309.14 106.234
L312.354 111.169
L315.568 111.169
L318.782 108.702
L321.995 108.702
L325.209 106.234
L331.637 106.234
L334.851 108.702
L338.065 111.367
L344.493 111.367
L347.707 114.253
L350.921 108.702
L354.135 108.702
L357.349 106.037
L360.563 111.367
L363.777 108.702
L366.99 111.169
L370.204 106.234
L373.418 106.234
L376.632 103.943
L379.846 108.702
L389.488 108.702
L392.702 110.999
L395.916 110.999
L399.13 113.46
L405.558 113.46
L408.772 116.104
L411.985 116.104
L415.199 113.46
L418.413 111.169
L424.841 106.234
L428.055 106.234
L434.483 111.169
L437.697 106.234
L440.911 108.702
L444.125 106.037
L447.339 103.15
L450.553 100.012
L453.766 97.5988
L463.408 97.5988
L466.622 103.15
L469.836 105.805
L476.264 105.805
L479.478 102.646
L482.692 102.646
L485.906 105.805
L501.975 105.805
L505.189 108.702
L514.831 108.702
L518.045 105.53
L521.259 111.874
L524.473 108.702
L527.687 112.208
L530.901 105.196
L540.543 126.233
L543.756 123.506
L546.97 123.506
L550.184 126.233
L553.398 128.687
L559.826 128.687
L559.826 128.687" style="fill:none;stroke:#ff0000;stroke-dasharray:6.000000,6.000000;stroke-dashoffset:0.0;"/>
   </g>
   <g id="line2d_3">
    <path clip-path="url(#pbf832bf3cd)" d="
M52.0256 42.0836
L64.8813 42.0836
L68.0953 64.2897
L71.3092 80.1512
L74.5231 92.0473
L77.737 101.3
L80.951 108.702
L84.1649 102.646
L87.3788 108.702
L90.5927 103.577
L93.8067 99.1849
L97.0206 95.3782
L100.235 100.375
L103.448 104.783
L106.662 108.702
L109.876 112.208
L113.09 108.702
L116.304 111.874
L119.518 114.758
L122.732 111.598
L125.946 108.702
L129.16 106.037
L132.374 108.702
L135.588 111.169
L138.802 108.702
L142.016 110.999
L145.23 108.702
L148.443 110.851
L151.657 112.865
L158.085 108.702
L161.299 110.605
L167.727 106.901
L174.155 110.41
L177.369 112.033
L180.583 110.327
L187.011 113.35
L190.224 114.758
L193.438 113.143
L196.652 114.495
L203.08 111.478
L209.508 114.031
L212.722 112.621
L219.15 117.845
L235.219 117.845
L241.647 112.621
L248.075 112.621
L251.289 110.008
L254.503 112.621
L257.717 112.621
L260.931 115.233
L267.359 110.008
L273.787 110.008
L277.001 112.621
L283.428 112.621
L286.642 115.233
L293.07 115.233
L299.498 110.008
L302.712 112.621
L315.568 112.621
L318.782 115.233
L321.995 115.233
L325.209 112.621
L331.637 112.621
L338.065 107.396
L344.493 107.396
L347.707 104.783
L354.135 104.783
L357.349 107.396
L360.563 107.396
L366.99 112.621
L373.418 112.621
L376.632 115.233
L389.488 115.233
L392.702 117.845
L395.916 117.845
L399.13 115.233
L405.558 115.233
L408.772 112.621
L411.985 112.621
L415.199 115.233
L418.413 112.621
L421.627 115.233
L424.841 112.621
L428.055 112.621
L431.269 115.233
L434.483 112.621
L437.697 112.621
L450.553 102.171
L453.766 104.783
L466.622 104.783
L469.836 102.171
L476.264 102.171
L479.478 99.5581
L482.692 99.5581
L485.906 102.171
L501.975 102.171
L505.189 99.5581
L514.831 99.5581
L518.045 96.9457
L521.259 96.9457
L527.687 91.7207
L540.543 91.7207
L543.756 89.1082
L546.97 89.1082
L553.398 94.3332
L559.826 94.3332
L559.826 94.3332" style="fill:none;stroke:#0000ff;stroke-linecap:square;"/>
   </g>
   <g id="line2d_4">
    <path clip-path="url(#pbf832bf3cd)" d="
M52.0256 42.0836
L109.876 42.0836
L113.09 55.4073
L119.518 55.4073
L122.732 54.196
L125.946 53.1867
L129.16 52.3326
L135.588 52.3326
L138.802 51.6005
L142.016 51.6005
L145.23 59.8485
L151.657 59.8485
L154.871 67.0655
L158.085 65.5959
L161.299 65.5959
L164.513 64.2897
L167.727 63.121
L177.369 63.121
L180.583 62.0691
L190.224 62.0691
L193.438 61.1174
L196.652 61.1174
L203.08 59.4623
L209.508 59.4623
L212.722 58.7382
L219.15 60.2522
L222.364 60.2522
L225.578 66.3084
L235.219 66.3084
L241.647 64.2897
L248.075 64.2897
L251.289 63.4015
L254.503 64.2897
L257.717 64.2897
L260.931 65.2552
L267.359 63.4015
L273.787 63.4015
L277.001 58.7382
L283.428 58.7382
L286.642 59.4623
L293.07 59.4623
L296.284 58.7382
L299.498 63.4015
L302.712 64.2897
L305.926 64.2897
L309.14 58.7382
L315.568 58.7382
L318.782 53.6694
L321.995 59.4623
L325.209 58.7382
L328.423 64.2897
L331.637 64.2897
L338.065 62.5815
L344.493 62.5815
L347.707 66.757
L354.135 66.757
L357.349 67.706
L360.563 67.706
L366.99 69.8412
L373.418 69.8412
L376.632 71.0481
L386.274 71.0481
L389.488 65.2552
L392.702 66.3084
L395.916 66.3084
L399.13 71.0481
L405.558 71.0481
L408.772 69.8412
L411.985 75.3927
L415.199 76.8409
L418.413 75.3927
L421.627 76.8409
L424.841 75.3927
L428.055 75.3927
L431.269 76.8409
L434.483 75.3927
L437.697 75.3927
L444.125 72.8305
L447.339 71.6917
L450.553 75.3927
L453.766 76.6264
L456.98 81.5611
L460.194 81.5611
L463.408 76.6264
L466.622 76.6264
L469.836 75.3927
L476.264 75.3927
L479.478 74.2441
L482.692 74.2441
L485.906 70.6343
L489.12 70.6343
L492.334 65.8758
L501.975 65.8758
L505.189 69.6498
L514.831 69.6498
L518.045 68.7309
L521.259 68.7309
L527.687 67.0655
L540.543 67.0655
L543.756 66.3084
L546.97 66.3084
L553.398 67.8713
L559.826 67.8713
L559.826 67.8713" style="fill:none;stroke:#0000ff;stroke-dasharray:6.000000,6.000000;stroke-dashoffset:0.0;"/>
   </g>
   <g id="patch_3">
    <path d="
M52.0256 28.76
L563.04 28.76" style="fill:none;stroke:#000000;stroke-linecap:square;stroke-linejoin:miter;"/>
   </g>
   <g id="patch_4">
    <path d="
M563.04 175.32
L563.04 28.76" style="fill:none;stroke:#000000;stroke-linecap:square;stroke-linejoin:miter;"/>
   </g>
   <g id="patch_5">
    <path d="
M52.0256 175.32
L563.04 175.32" style="fill:none;stroke:#000000;stroke-linecap:square;stroke-linejoin:miter;"/>
   </g>
   <g id="patch_6">
    <path d="
M52.0256 175.32
L52.0256 28.76" style="fill:none;stroke:#000000;stroke-linecap:square;stroke-linejoin:miter;"/>
   </g>
   <g id="matplotlib.axis_1">
    <g id="xtick_1">
     <g id="line2d_5">
      <defs>
       <path d="
M0 0
L0 -4" id="m93b0483c22" style="stroke:#000000;stroke-width:0.5;"/>
      </defs>
      <g>
       <use style="stroke:#000000;stroke-width:0.5;" x="52.025625" xlink:href="#m93b0483c22" y="175.32"/>
      </g>
     </g>
     <g id="line2d_6">
      <defs>
       <path d="
M0 0
L0 4" id="m741efc42ff" style="stroke:#000000;stroke-width:0.5;"/>
      </defs>
      <g>
       <use style="stroke:#000000;stroke-width:0.5;" x="52.025625" xlink:href="#m741efc42ff" y="28.76"/>
      </g>
     </g>
     <g id="text_1">
      <!-- 0 -->
      <defs>
       <path d="
M31.7812 66.4062
Q24.1719 66.4062 20.3281 58.9062
Q16.5 51.4219 16.5 36.375
Q16.5 21.3906 20.3281 13.8906
Q24.1719 6.39062 31.7812 6.39062
Q39.4531 6.39062 43.2812 13.8906
Q47.125 21.3906 47.125 36.375
Q47.125 51.4219 43.2812 58.9062
Q39.4531 66.4062 31.7812 66.4062
M31.7812 74.2188
Q44.0469 74.2188 50.5156 64.5156
Q56.9844 54.8281 56.9844 36.375
Q56.9844 17.9688 50.5156 8.26562
Q44.0469 -1.42188 31.7812 -1.42188
Q19.5312 -1.42188 13.0625 8.26562
Q6.59375 17.9688 6.59375 36.375
Q6.59375 54.8281 13.0625 64.5156
Q19.5312 74.2188 31.7812 74.2188" id="BitstreamVeraSans-Roman-30"/>
      </defs>
      <g transform="translate(49.0021875 188.438125)scale(0.12 -0.12)">
       <use xlink:href="#BitstreamVeraSans-Roman-30"/>
      </g>
     </g>
    </g>
    <g id="xtick_2">
     <g id="line2d_7">
      <g>
       <use style="stroke:#000000;stroke-width:0.5;" x="116.304162736" xlink:href="#m93b0483c22" y="175.32"/>
      </g>
     </g>
     <g id="line2d_8">
      <g>
       <use style="stroke:#000000;stroke-width:0.5;" x="116.304162736" xlink:href="#m741efc42ff" y="28.76"/>
      </g>
     </g>
     <g id="text_2">
      <!-- 20 -->
      <defs>
       <path d="
M19.1875 8.29688
L53.6094 8.29688
L53.6094 0
L7.32812 0
L7.32812 8.29688
Q12.9375 14.1094 22.625 23.8906
Q32.3281 33.6875 34.8125 36.5312
Q39.5469 41.8438 41.4219 45.5312
Q43.3125 49.2188 43.3125 52.7812
Q43.3125 58.5938 39.2344 62.25
Q35.1562 65.9219 28.6094 65.9219
Q23.9688 65.9219 18.8125 64.3125
Q13.6719 62.7031 7.8125 59.4219
L7.8125 69.3906
Q13.7656 71.7812 18.9375 73
Q24.125 74.2188 28.4219 74.2188
Q39.75 74.2188 46.4844 68.5469
Q53.2188 62.8906 53.2188 53.4219
Q53.2188 48.9219 51.5312 44.8906
Q49.8594 40.875 45.4062 35.4062
Q44.1875 33.9844 37.6406 27.2188
Q31.1094 20.4531 19.1875 8.29688" id="BitstreamVeraSans-Roman-32"/>
      </defs>
      <g transform="translate(109.507287736 188.438125)scale(0.12 -0.12)">
       <use xlink:href="#BitstreamVeraSans-Roman-32"/>
       <use x="63.623046875" xlink:href="#BitstreamVeraSans-Roman-30"/>
      </g>
     </g>
    </g>
    <g id="xtick_3">
     <g id="line2d_9">
      <g>
       <use style="stroke:#000000;stroke-width:0.5;" x="180.582700472" xlink:href="#m93b0483c22" y="175.32"/>
      </g>
     </g>
     <g id="line2d_10">
      <g>
       <use style="stroke:#000000;stroke-width:0.5;" x="180.582700472" xlink:href="#m741efc42ff" y="28.76"/>
      </g>
     </g>
     <g id="text_3">
      <!-- 40 -->
      <defs>
       <path d="
M37.7969 64.3125
L12.8906 25.3906
L37.7969 25.3906
z

M35.2031 72.9062
L47.6094 72.9062
L47.6094 25.3906
L58.0156 25.3906
L58.0156 17.1875
L47.6094 17.1875
L47.6094 0
L37.7969 0
L37.7969 17.1875
L4.89062 17.1875
L4.89062 26.7031
z
" id="BitstreamVeraSans-Roman-34"/>
      </defs>
      <g transform="translate(173.639575472 188.438125)scale(0.12 -0.12)">
       <use xlink:href="#BitstreamVeraSans-Roman-34"/>
       <use x="63.623046875" xlink:href="#BitstreamVeraSans-Roman-30"/>
      </g>
     </g>
    </g>
    <g id="xtick_4">
     <g id="line2d_11">
      <g>
       <use style="stroke:#000000;stroke-width:0.5;" x="244.861238208" xlink:href="#m93b0483c22" y="175.32"/>
      </g>
     </g>
     <g id="line2d_12">
      <g>
       <use style="stroke:#000000;stroke-width:0.5;" x="244.861238208" xlink:href="#m741efc42ff" y="28.76"/>
      </g>
     </g>
     <g id="text_4">
      <!-- 60 -->
      <defs>
       <path d="
M33.0156 40.375
Q26.375 40.375 22.4844 35.8281
Q18.6094 31.2969 18.6094 23.3906
Q18.6094 15.5312 22.4844 10.9531
Q26.375 6.39062 33.0156 6.39062
Q39.6562 6.39062 43.5312 10.9531
Q47.4062 15.5312 47.4062 23.3906
Q47.4062 31.2969 43.5312 35.8281
Q39.6562 40.375 33.0156 40.375
M52.5938 71.2969
L52.5938 62.3125
Q48.875 64.0625 45.0938 64.9844
Q41.3125 65.9219 37.5938 65.9219
Q27.8281 65.9219 22.6719 59.3281
Q17.5312 52.7344 16.7969 39.4062
Q19.6719 43.6562 24.0156 45.9219
Q28.375 48.1875 33.5938 48.1875
Q44.5781 48.1875 50.9531 41.5156
Q57.3281 34.8594 57.3281 23.3906
Q57.3281 12.1562 50.6875 5.35938
Q44.0469 -1.42188 33.0156 -1.42188
Q20.3594 -1.42188 13.6719 8.26562
Q6.98438 17.9688 6.98438 36.375
Q6.98438 53.6562 15.1875 63.9375
Q23.3906 74.2188 37.2031 74.2188
Q40.9219 74.2188 44.7031 73.4844
Q48.4844 72.75 52.5938 71.2969" id="BitstreamVeraSans-Roman-36"/>
      </defs>
      <g transform="translate(238.043738208 188.438125)scale(0.12 -0.12)">
       <use xlink:href="#BitstreamVeraSans-Roman-36"/>
       <use x="63.623046875" xlink:href="#BitstreamVeraSans-Roman-30"/>
      </g>
     </g>
    </g>
    <g id="xtick_5">
     <g id="line2d_13">
      <g>
       <use style="stroke:#000000;stroke-width:0.5;" x="309.139775943" xlink:href="#m93b0483c22" y="175.32"/>
      </g>
     </g>
     <g id="line2d_14">
      <g>
       <use style="stroke:#000000;stroke-width:0.5;" x="309.139775943" xlink:href="#m741efc42ff" y="28.76"/>
      </g>
     </g>
     <g id="text_5">
      <!-- 80 -->
      <defs>
       <path d="
M31.7812 34.625
Q24.75 34.625 20.7188 30.8594
Q16.7031 27.0938 16.7031 20.5156
Q16.7031 13.9219 20.7188 10.1562
Q24.75 6.39062 31.7812 6.39062
Q38.8125 6.39062 42.8594 10.1719
Q46.9219 13.9688 46.9219 20.5156
Q46.9219 27.0938 42.8906 30.8594
Q38.875 34.625 31.7812 34.625
M21.9219 38.8125
Q15.5781 40.375 12.0312 44.7188
Q8.5 49.0781 8.5 55.3281
Q8.5 64.0625 14.7188 69.1406
Q20.9531 74.2188 31.7812 74.2188
Q42.6719 74.2188 48.875 69.1406
Q55.0781 64.0625 55.0781 55.3281
Q55.0781 49.0781 51.5312 44.7188
Q48 40.375 41.7031 38.8125
Q48.8281 37.1562 52.7969 32.3125
Q56.7812 27.4844 56.7812 20.5156
Q56.7812 9.90625 50.3125 4.23438
Q43.8438 -1.42188 31.7812 -1.42188
Q19.7344 -1.42188 13.25 4.23438
Q6.78125 9.90625 6.78125 20.5156
Q6.78125 27.4844 10.7812 32.3125
Q14.7969 37.1562 21.9219 38.8125
M18.3125 54.3906
Q18.3125 48.7344 21.8438 45.5625
Q25.3906 42.3906 31.7812 42.3906
Q38.1406 42.3906 41.7188 45.5625
Q45.3125 48.7344 45.3125 54.3906
Q45.3125 60.0625 41.7188 63.2344
Q38.1406 66.4062 31.7812 66.4062
Q25.3906 66.4062 21.8438 63.2344
Q18.3125 60.0625 18.3125 54.3906" id="BitstreamVeraSans-Roman-38"/>
      </defs>
      <g transform="translate(302.310088443 188.438125)scale(0.12 -0.12)">
       <use xlink:href="#BitstreamVeraSans-Roman-38"/>
       <use x="63.623046875" xlink:href="#BitstreamVeraSans-Roman-30"/>
      </g>
     </g>
    </g>
    <g id="xtick_6">
     <g id="line2d_15">
      <g>
       <use style="stroke:#000000;stroke-width:0.5;" x="373.418313679" xlink:href="#m93b0483c22" y="175.32"/>
      </g>
     </g>
     <g id="line2d_16">
      <g>
       <use style="stroke:#000000;stroke-width:0.5;" x="373.418313679" xlink:href="#m741efc42ff" y="28.76"/>
      </g>
     </g>
     <g id="text_6">
      <!-- 100 -->
      <defs>
       <path d="
M12.4062 8.29688
L28.5156 8.29688
L28.5156 63.9219
L10.9844 60.4062
L10.9844 69.3906
L28.4219 72.9062
L38.2812 72.9062
L38.2812 8.29688
L54.3906 8.29688
L54.3906 0
L12.4062 0
z
" id="BitstreamVeraSans-Roman-31"/>
      </defs>
      <g transform="translate(363.023313679 188.438125)scale(0.12 -0.12)">
       <use xlink:href="#BitstreamVeraSans-Roman-31"/>
       <use x="63.623046875" xlink:href="#BitstreamVeraSans-Roman-30"/>
       <use x="127.24609375" xlink:href="#BitstreamVeraSans-Roman-30"/>
      </g>
     </g>
    </g>
    <g id="xtick_7">
     <g id="line2d_17">
      <g>
       <use style="stroke:#000000;stroke-width:0.5;" x="437.696851415" xlink:href="#m93b0483c22" y="175.32"/>
      </g>
     </g>
     <g id="line2d_18">
      <g>
       <use style="stroke:#000000;stroke-width:0.5;" x="437.696851415" xlink:href="#m741efc42ff" y="28.76"/>
      </g>
     </g>
     <g id="text_7">
      <!-- 120 -->
      <g transform="translate(427.301851415 188.438125)scale(0.12 -0.12)">
       <use xlink:href="#BitstreamVeraSans-Roman-31"/>
       <use x="63.623046875" xlink:href="#BitstreamVeraSans-Roman-32"/>
       <use x="127.24609375" xlink:href="#BitstreamVeraSans-Roman-30"/>
      </g>
     </g>
    </g>
    <g id="xtick_8">
     <g id="line2d_19">
      <g>
       <use style="stroke:#000000;stroke-width:0.5;" x="501.975389151" xlink:href="#m93b0483c22" y="175.32"/>
      </g>
     </g>
     <g id="line2d_20">
      <g>
       <use style="stroke:#000000;stroke-width:0.5;" x="501.975389151" xlink:href="#m741efc42ff" y="28.76"/>
      </g>
     </g>
     <g id="text_8">
      <!-- 140 -->
      <g transform="translate(491.580389151 188.438125)scale(0.12 -0.12)">
       <use xlink:href="#BitstreamVeraSans-Roman-31"/>
       <use x="63.623046875" xlink:href="#BitstreamVeraSans-Roman-34"/>
       <use x="127.24609375" xlink:href="#BitstreamVeraSans-Roman-30"/>
      </g>
     </g>
    </g>
    <g id="text_9">
     <!-- Trial Number -->
     <defs>
      <path id="BitstreamVeraSans-Roman-20"/>
      <path d="
M9.8125 72.9062
L23.0938 72.9062
L55.4219 11.9219
L55.4219 72.9062
L64.9844 72.9062
L64.9844 0
L51.7031 0
L19.3906 60.9844
L19.3906 0
L9.8125 0
z
" id="BitstreamVeraSans-Roman-4e"/>
      <path d="
M34.2812 27.4844
Q23.3906 27.4844 19.1875 25
Q14.9844 22.5156 14.9844 16.5
Q14.9844 11.7188 18.1406 8.90625
Q21.2969 6.10938 26.7031 6.10938
Q34.1875 6.10938 38.7031 11.4062
Q43.2188 16.7031 43.2188 25.4844
L43.2188 27.4844
z

M52.2031 31.2031
L52.2031 0
L43.2188 0
L43.2188 8.29688
Q40.1406 3.32812 35.5469 0.953125
Q30.9531 -1.42188 24.3125 -1.42188
Q15.9219 -1.42188 10.9531 3.29688
Q6 8.01562 6 15.9219
Q6 25.1406 12.1719 29.8281
Q18.3594 34.5156 30.6094 34.5156
L43.2188 34.5156
L43.2188 35.4062
Q43.2188 41.6094 39.1406 45
Q35.0625 48.3906 27.6875 48.3906
Q23 48.3906 18.5469 47.2656
Q14.1094 46.1406 10.0156 43.8906
L10.0156 52.2031
Q14.9375 54.1094 19.5781 55.0469
Q24.2188 56 28.6094 56
Q40.4844 56 46.3438 49.8438
Q52.2031 43.7031 52.2031 31.2031" id="BitstreamVeraSans-Roman-61"/>
      <path d="
M9.42188 75.9844
L18.4062 75.9844
L18.4062 0
L9.42188 0
z
" id="BitstreamVeraSans-Roman-6c"/>
      <path d="
M9.42188 54.6875
L18.4062 54.6875
L18.4062 0
L9.42188 0
z

M9.42188 75.9844
L18.4062 75.9844
L18.4062 64.5938
L9.42188 64.5938
z
" id="BitstreamVeraSans-Roman-69"/>
      <path d="
M52 44.1875
Q55.375 50.25 60.0625 53.125
Q64.75 56 71.0938 56
Q79.6406 56 84.2812 50.0156
Q88.9219 44.0469 88.9219 33.0156
L88.9219 0
L79.8906 0
L79.8906 32.7188
Q79.8906 40.5781 77.0938 44.375
Q74.3125 48.1875 68.6094 48.1875
Q61.625 48.1875 57.5625 43.5469
Q53.5156 38.9219 53.5156 30.9062
L53.5156 0
L44.4844 0
L44.4844 32.7188
Q44.4844 40.625 41.7031 44.4062
Q38.9219 48.1875 33.1094 48.1875
Q26.2188 48.1875 22.1562 43.5312
Q18.1094 38.875 18.1094 30.9062
L18.1094 0
L9.07812 0
L9.07812 54.6875
L18.1094 54.6875
L18.1094 46.1875
Q21.1875 51.2188 25.4844 53.6094
Q29.7812 56 35.6875 56
Q41.6562 56 45.8281 52.9688
Q50 49.9531 52 44.1875" id="BitstreamVeraSans-Roman-6d"/>
      <path d="
M56.2031 29.5938
L56.2031 25.2031
L14.8906 25.2031
Q15.4844 15.9219 20.4844 11.0625
Q25.4844 6.20312 34.4219 6.20312
Q39.5938 6.20312 44.4531 7.46875
Q49.3125 8.73438 54.1094 11.2812
L54.1094 2.78125
Q49.2656 0.734375 44.1875 -0.34375
Q39.1094 -1.42188 33.8906 -1.42188
Q20.7969 -1.42188 13.1562 6.1875
Q5.51562 13.8125 5.51562 26.8125
Q5.51562 40.2344 12.7656 48.1094
Q20.0156 56 32.3281 56
Q43.3594 56 49.7812 48.8906
Q56.2031 41.7969 56.2031 29.5938
M47.2188 32.2344
Q47.125 39.5938 43.0938 43.9844
Q39.0625 48.3906 32.4219 48.3906
Q24.9062 48.3906 20.3906 44.1406
Q15.875 39.8906 15.1875 32.1719
z
" id="BitstreamVeraSans-Roman-65"/>
      <path d="
M-0.296875 72.9062
L61.375 72.9062
L61.375 64.5938
L35.5 64.5938
L35.5 0
L25.5938 0
L25.5938 64.5938
L-0.296875 64.5938
z
" id="BitstreamVeraSans-Roman-54"/>
      <path d="
M8.5 21.5781
L8.5 54.6875
L17.4844 54.6875
L17.4844 21.9219
Q17.4844 14.1562 20.5 10.2656
Q23.5312 6.39062 29.5938 6.39062
Q36.8594 6.39062 41.0781 11.0312
Q45.3125 15.6719 45.3125 23.6875
L45.3125 54.6875
L54.2969 54.6875
L54.2969 0
L45.3125 0
L45.3125 8.40625
Q42.0469 3.42188 37.7188 1
Q33.4062 -1.42188 27.6875 -1.42188
Q18.2656 -1.42188 13.375 4.4375
Q8.5 10.2969 8.5 21.5781" id="BitstreamVeraSans-Roman-75"/>
      <path d="
M41.1094 46.2969
Q39.5938 47.1719 37.8125 47.5781
Q36.0312 48 33.8906 48
Q26.2656 48 22.1875 43.0469
Q18.1094 38.0938 18.1094 28.8125
L18.1094 0
L9.07812 0
L9.07812 54.6875
L18.1094 54.6875
L18.1094 46.1875
Q20.9531 51.1719 25.4844 53.5781
Q30.0312 56 36.5312 56
Q37.4531 56 38.5781 55.875
Q39.7031 55.7656 41.0625 55.5156
z
" id="BitstreamVeraSans-Roman-72"/>
      <path d="
M48.6875 27.2969
Q48.6875 37.2031 44.6094 42.8438
Q40.5312 48.4844 33.4062 48.4844
Q26.2656 48.4844 22.1875 42.8438
Q18.1094 37.2031 18.1094 27.2969
Q18.1094 17.3906 22.1875 11.75
Q26.2656 6.10938 33.4062 6.10938
Q40.5312 6.10938 44.6094 11.75
Q48.6875 17.3906 48.6875 27.2969
M18.1094 46.3906
Q20.9531 51.2656 25.2656 53.625
Q29.5938 56 35.5938 56
Q45.5625 56 51.7812 48.0938
Q58.0156 40.1875 58.0156 27.2969
Q58.0156 14.4062 51.7812 6.48438
Q45.5625 -1.42188 35.5938 -1.42188
Q29.5938 -1.42188 25.2656 0.953125
Q20.9531 3.32812 18.1094 8.20312
L18.1094 0
L9.07812 0
L9.07812 75.9844
L18.1094 75.9844
z
" id="BitstreamVeraSans-Roman-62"/>
     </defs>
     <g transform="translate(269.248125 205.051875)scale(0.12 -0.12)">
      <use xlink:href="#BitstreamVeraSans-Roman-54"/>
      <use x="46.333984375" xlink:href="#BitstreamVeraSans-Roman-72"/>
      <use x="87.447265625" xlink:href="#BitstreamVeraSans-Roman-69"/>
      <use x="115.23046875" xlink:href="#BitstreamVeraSans-Roman-61"/>
      <use x="176.509765625" xlink:href="#BitstreamVeraSans-Roman-6c"/>
      <use x="204.29296875" xlink:href="#BitstreamVeraSans-Roman-20"/>
      <use x="236.080078125" xlink:href="#BitstreamVeraSans-Roman-4e"/>
      <use x="310.884765625" xlink:href="#BitstreamVeraSans-Roman-75"/>
      <use x="374.263671875" xlink:href="#BitstreamVeraSans-Roman-6d"/>
      <use x="471.67578125" xlink:href="#BitstreamVeraSans-Roman-62"/>
      <use x="535.15234375" xlink:href="#BitstreamVeraSans-Roman-65"/>
      <use x="596.67578125" xlink:href="#BitstreamVeraSans-Roman-72"/>
     </g>
    </g>
   </g>
   <g id="matplotlib.axis_2">
    <g id="ytick_1">
     <g id="line2d_21">
      <defs>
       <path d="
M0 0
L4 0" id="m728421d6d4" style="stroke:#000000;stroke-width:0.5;"/>
      </defs>
      <g>
       <use style="stroke:#000000;stroke-width:0.5;" x="52.025625" xlink:href="#m728421d6d4" y="175.32"/>
      </g>
     </g>
     <g id="line2d_22">
      <defs>
       <path d="
M0 0
L-4 0" id="mcb0005524f" style="stroke:#000000;stroke-width:0.5;"/>
      </defs>
      <g>
       <use style="stroke:#000000;stroke-width:0.5;" x="563.04" xlink:href="#mcb0005524f" y="175.32"/>
      </g>
     </g>
     <g id="text_10">
      <!-- 0.0 -->
      <defs>
       <path d="
M10.6875 12.4062
L21 12.4062
L21 0
L10.6875 0
z
" id="BitstreamVeraSans-Roman-2e"/>
      </defs>
      <g transform="translate(30.53 178.63125)scale(0.12 -0.12)">
       <use xlink:href="#BitstreamVeraSans-Roman-30"/>
       <use x="63.623046875" xlink:href="#BitstreamVeraSans-Roman-2e"/>
       <use x="95.41015625" xlink:href="#BitstreamVeraSans-Roman-30"/>
      </g>
     </g>
    </g>
    <g id="ytick_2">
     <g id="line2d_23">
      <g>
       <use style="stroke:#000000;stroke-width:0.5;" x="52.025625" xlink:href="#m728421d6d4" y="148.672727273"/>
      </g>
     </g>
     <g id="line2d_24">
      <g>
       <use style="stroke:#000000;stroke-width:0.5;" x="563.04" xlink:href="#mcb0005524f" y="148.672727273"/>
      </g>
     </g>
     <g id="text_11">
      <!-- 0.2 -->
      <g transform="translate(30.935 151.983977273)scale(0.12 -0.12)">
       <use xlink:href="#BitstreamVeraSans-Roman-30"/>
       <use x="63.623046875" xlink:href="#BitstreamVeraSans-Roman-2e"/>
       <use x="95.41015625" xlink:href="#BitstreamVeraSans-Roman-32"/>
      </g>
     </g>
    </g>
    <g id="ytick_3">
     <g id="line2d_25">
      <g>
       <use style="stroke:#000000;stroke-width:0.5;" x="52.025625" xlink:href="#m728421d6d4" y="122.025454545"/>
      </g>
     </g>
     <g id="line2d_26">
      <g>
       <use style="stroke:#000000;stroke-width:0.5;" x="563.04" xlink:href="#mcb0005524f" y="122.025454545"/>
      </g>
     </g>
     <g id="text_12">
      <!-- 0.4 -->
      <g transform="translate(30.40625 125.336704545)scale(0.12 -0.12)">
       <use xlink:href="#BitstreamVeraSans-Roman-30"/>
       <use x="63.623046875" xlink:href="#BitstreamVeraSans-Roman-2e"/>
       <use x="95.41015625" xlink:href="#BitstreamVeraSans-Roman-34"/>
      </g>
     </g>
    </g>
    <g id="ytick_4">
     <g id="line2d_27">
      <g>
       <use style="stroke:#000000;stroke-width:0.5;" x="52.025625" xlink:href="#m728421d6d4" y="95.3781818182"/>
      </g>
     </g>
     <g id="line2d_28">
      <g>
       <use style="stroke:#000000;stroke-width:0.5;" x="563.04" xlink:href="#mcb0005524f" y="95.3781818182"/>
      </g>
     </g>
     <g id="text_13">
      <!-- 0.6 -->
      <g transform="translate(30.48875 98.6894318182)scale(0.12 -0.12)">
       <use xlink:href="#BitstreamVeraSans-Roman-30"/>
       <use x="63.623046875" xlink:href="#BitstreamVeraSans-Roman-2e"/>
       <use x="95.41015625" xlink:href="#BitstreamVeraSans-Roman-36"/>
      </g>
     </g>
    </g>
    <g id="ytick_5">
     <g id="line2d_29">
      <g>
       <use style="stroke:#000000;stroke-width:0.5;" x="52.025625" xlink:href="#m728421d6d4" y="68.7309090909"/>
      </g>
     </g>
     <g id="line2d_30">
      <g>
       <use style="stroke:#000000;stroke-width:0.5;" x="563.04" xlink:href="#mcb0005524f" y="68.7309090909"/>
      </g>
     </g>
     <g id="text_14">
      <!-- 0.8 -->
      <g transform="translate(30.554375 72.0421590909)scale(0.12 -0.12)">
       <use xlink:href="#BitstreamVeraSans-Roman-30"/>
       <use x="63.623046875" xlink:href="#BitstreamVeraSans-Roman-2e"/>
       <use x="95.41015625" xlink:href="#BitstreamVeraSans-Roman-38"/>
      </g>
     </g>
    </g>
    <g id="ytick_6">
     <g id="line2d_31">
      <g>
       <use style="stroke:#000000;stroke-width:0.5;" x="52.025625" xlink:href="#m728421d6d4" y="42.0836363636"/>
      </g>
     </g>
     <g id="line2d_32">
      <g>
       <use style="stroke:#000000;stroke-width:0.5;" x="563.04" xlink:href="#mcb0005524f" y="42.0836363636"/>
      </g>
     </g>
     <g id="text_15">
      <!-- 1.0 -->
      <g transform="translate(31.056875 45.3948863636)scale(0.12 -0.12)">
       <use xlink:href="#BitstreamVeraSans-Roman-31"/>
       <use x="63.623046875" xlink:href="#BitstreamVeraSans-Roman-2e"/>
       <use x="95.41015625" xlink:href="#BitstreamVeraSans-Roman-30"/>
      </g>
     </g>
    </g>
    <g id="text_16">
     <!-- Probability -->
     <defs>
      <path d="
M19.6719 64.7969
L19.6719 37.4062
L32.0781 37.4062
Q38.9688 37.4062 42.7188 40.9688
Q46.4844 44.5312 46.4844 51.125
Q46.4844 57.6719 42.7188 61.2344
Q38.9688 64.7969 32.0781 64.7969
z

M9.8125 72.9062
L32.0781 72.9062
Q44.3438 72.9062 50.6094 67.3594
Q56.8906 61.8125 56.8906 51.125
Q56.8906 40.3281 50.6094 34.8125
Q44.3438 29.2969 32.0781 29.2969
L19.6719 29.2969
L19.6719 0
L9.8125 0
z
" id="BitstreamVeraSans-Roman-50"/>
      <path d="
M18.3125 70.2188
L18.3125 54.6875
L36.8125 54.6875
L36.8125 47.7031
L18.3125 47.7031
L18.3125 18.0156
Q18.3125 11.3281 20.1406 9.42188
Q21.9688 7.51562 27.5938 7.51562
L36.8125 7.51562
L36.8125 0
L27.5938 0
Q17.1875 0 13.2344 3.875
Q9.28125 7.76562 9.28125 18.0156
L9.28125 47.7031
L2.6875 47.7031
L2.6875 54.6875
L9.28125 54.6875
L9.28125 70.2188
z
" id="BitstreamVeraSans-Roman-74"/>
      <path d="
M30.6094 48.3906
Q23.3906 48.3906 19.1875 42.75
Q14.9844 37.1094 14.9844 27.2969
Q14.9844 17.4844 19.1562 11.8438
Q23.3438 6.20312 30.6094 6.20312
Q37.7969 6.20312 41.9844 11.8594
Q46.1875 17.5312 46.1875 27.2969
Q46.1875 37.0156 41.9844 42.7031
Q37.7969 48.3906 30.6094 48.3906
M30.6094 56
Q42.3281 56 49.0156 48.375
Q55.7188 40.7656 55.7188 27.2969
Q55.7188 13.875 49.0156 6.21875
Q42.3281 -1.42188 30.6094 -1.42188
Q18.8438 -1.42188 12.1719 6.21875
Q5.51562 13.875 5.51562 27.2969
Q5.51562 40.7656 12.1719 48.375
Q18.8438 56 30.6094 56" id="BitstreamVeraSans-Roman-6f"/>
      <path d="
M32.1719 -5.07812
Q28.375 -14.8438 24.75 -17.8125
Q21.1406 -20.7969 15.0938 -20.7969
L7.90625 -20.7969
L7.90625 -13.2812
L13.1875 -13.2812
Q16.8906 -13.2812 18.9375 -11.5156
Q21 -9.76562 23.4844 -3.21875
L25.0938 0.875
L2.98438 54.6875
L12.5 54.6875
L29.5938 11.9219
L46.6875 54.6875
L56.2031 54.6875
z
" id="BitstreamVeraSans-Roman-79"/>
     </defs>
     <g transform="translate(22.910625 132.986875)rotate(-90.0)scale(0.12 -0.12)">
      <use xlink:href="#BitstreamVeraSans-Roman-50"/>
      <use x="58.552734375" xlink:href="#BitstreamVeraSans-Roman-72"/>
      <use x="97.416015625" xlink:href="#BitstreamVeraSans-Roman-6f"/>
      <use x="158.59765625" xlink:href="#BitstreamVeraSans-Roman-62"/>
      <use x="222.07421875" xlink:href="#BitstreamVeraSans-Roman-61"/>
      <use x="283.353515625" xlink:href="#BitstreamVeraSans-Roman-62"/>
      <use x="346.830078125" xlink:href="#BitstreamVeraSans-Roman-69"/>
      <use x="374.61328125" xlink:href="#BitstreamVeraSans-Roman-6c"/>
      <use x="402.396484375" xlink:href="#BitstreamVeraSans-Roman-69"/>
      <use x="430.1796875" xlink:href="#BitstreamVeraSans-Roman-74"/>
      <use x="469.388671875" xlink:href="#BitstreamVeraSans-Roman-79"/>
     </g>
    </g>
   </g>
   <g id="text_17">
    <!-- Stress Trial Performance: Trial Completion Rate 0.404594 -->
    <defs>
     <path d="
M10.7969 72.9062
L49.5156 72.9062
L49.5156 64.5938
L19.8281 64.5938
L19.8281 46.7344
Q21.9688 47.4688 24.1094 47.8281
Q26.2656 48.1875 28.4219 48.1875
Q40.625 48.1875 47.75 41.5
Q54.8906 34.8125 54.8906 23.3906
Q54.8906 11.625 47.5625 5.09375
Q40.2344 -1.42188 26.9062 -1.42188
Q22.3125 -1.42188 17.5469 -0.640625
Q12.7969 0.140625 7.71875 1.70312
L7.71875 11.625
Q12.1094 9.23438 16.7969 8.0625
Q21.4844 6.89062 26.7031 6.89062
Q35.1562 6.89062 40.0781 11.3281
Q45.0156 15.7656 45.0156 23.3906
Q45.0156 31 40.0781 35.4375
Q35.1562 39.8906 26.7031 39.8906
Q22.75 39.8906 18.8125 39.0156
Q14.8906 38.1406 10.7969 36.2812
z
" id="BitstreamVeraSans-Roman-35"/>
     <path d="
M54.8906 33.0156
L54.8906 0
L45.9062 0
L45.9062 32.7188
Q45.9062 40.4844 42.875 44.3281
Q39.8438 48.1875 33.7969 48.1875
Q26.5156 48.1875 22.3125 43.5469
Q18.1094 38.9219 18.1094 30.9062
L18.1094 0
L9.07812 0
L9.07812 54.6875
L18.1094 54.6875
L18.1094 46.1875
Q21.3438 51.125 25.7031 53.5625
Q30.0781 56 35.7969 56
Q45.2188 56 50.0469 50.1719
Q54.8906 44.3438 54.8906 33.0156" id="BitstreamVeraSans-Roman-6e"/>
     <path d="
M10.9844 1.51562
L10.9844 10.5
Q14.7031 8.73438 18.5 7.8125
Q22.3125 6.89062 25.9844 6.89062
Q35.75 6.89062 40.8906 13.4531
Q46.0469 20.0156 46.7812 33.4062
Q43.9531 29.2031 39.5938 26.9531
Q35.25 24.7031 29.9844 24.7031
Q19.0469 24.7031 12.6719 31.3125
Q6.29688 37.9375 6.29688 49.4219
Q6.29688 60.6406 12.9375 67.4219
Q19.5781 74.2188 30.6094 74.2188
Q43.2656 74.2188 49.9219 64.5156
Q56.5938 54.8281 56.5938 36.375
Q56.5938 19.1406 48.4062 8.85938
Q40.2344 -1.42188 26.4219 -1.42188
Q22.7031 -1.42188 18.8906 -0.6875
Q15.0938 0.046875 10.9844 1.51562
M30.6094 32.4219
Q37.25 32.4219 41.125 36.9531
Q45.0156 41.5 45.0156 49.4219
Q45.0156 57.2812 41.125 61.8438
Q37.25 66.4062 30.6094 66.4062
Q23.9688 66.4062 20.0938 61.8438
Q16.2188 57.2812 16.2188 49.4219
Q16.2188 41.5 20.0938 36.9531
Q23.9688 32.4219 30.6094 32.4219" id="BitstreamVeraSans-Roman-39"/>
     <path d="
M11.7188 12.4062
L22.0156 12.4062
L22.0156 0
L11.7188 0
z

M11.7188 51.7031
L22.0156 51.7031
L22.0156 39.3125
L11.7188 39.3125
z
" id="BitstreamVeraSans-Roman-3a"/>
     <path d="
M44.3906 34.1875
Q47.5625 33.1094 50.5625 29.5938
Q53.5625 26.0781 56.5938 19.9219
L66.6094 0
L56 0
L46.6875 18.7031
Q43.0625 26.0312 39.6719 28.4219
Q36.2812 30.8125 30.4219 30.8125
L19.6719 30.8125
L19.6719 0
L9.8125 0
L9.8125 72.9062
L32.0781 72.9062
Q44.5781 72.9062 50.7344 67.6719
Q56.8906 62.4531 56.8906 51.9062
Q56.8906 45.0156 53.6875 40.4688
Q50.4844 35.9375 44.3906 34.1875
M19.6719 64.7969
L19.6719 38.9219
L32.0781 38.9219
Q39.2031 38.9219 42.8438 42.2188
Q46.4844 45.5156 46.4844 51.9062
Q46.4844 58.2969 42.8438 61.5469
Q39.2031 64.7969 32.0781 64.7969
z
" id="BitstreamVeraSans-Roman-52"/>
     <path d="
M53.5156 70.5156
L53.5156 60.8906
Q47.9062 63.5781 42.9219 64.8906
Q37.9375 66.2188 33.2969 66.2188
Q25.25 66.2188 20.875 63.0938
Q16.5 59.9688 16.5 54.2031
Q16.5 49.3594 19.4062 46.8906
Q22.3125 44.4375 30.4219 42.9219
L36.375 41.7031
Q47.4062 39.5938 52.6562 34.2969
Q57.9062 29 57.9062 20.125
Q57.9062 9.51562 50.7969 4.04688
Q43.7031 -1.42188 29.9844 -1.42188
Q24.8125 -1.42188 18.9688 -0.25
Q13.1406 0.921875 6.89062 3.21875
L6.89062 13.375
Q12.8906 10.0156 18.6562 8.29688
Q24.4219 6.59375 29.9844 6.59375
Q38.4219 6.59375 43.0156 9.90625
Q47.6094 13.2344 47.6094 19.3906
Q47.6094 24.75 44.3125 27.7812
Q41.0156 30.8125 33.5 32.3281
L27.4844 33.5
Q16.4531 35.6875 11.5156 40.375
Q6.59375 45.0625 6.59375 53.4219
Q6.59375 63.0938 13.4062 68.6562
Q20.2188 74.2188 32.1719 74.2188
Q37.3125 74.2188 42.625 73.2812
Q47.9531 72.3594 53.5156 70.5156" id="BitstreamVeraSans-Roman-53"/>
     <path d="
M64.4062 67.2812
L64.4062 56.8906
Q59.4219 61.5312 53.7812 63.8125
Q48.1406 66.1094 41.7969 66.1094
Q29.2969 66.1094 22.6562 58.4688
Q16.0156 50.8281 16.0156 36.375
Q16.0156 21.9688 22.6562 14.3281
Q29.2969 6.6875 41.7969 6.6875
Q48.1406 6.6875 53.7812 8.98438
Q59.4219 11.2812 64.4062 15.9219
L64.4062 5.60938
Q59.2344 2.09375 53.4375 0.328125
Q47.6562 -1.42188 41.2188 -1.42188
Q24.6562 -1.42188 15.125 8.70312
Q5.60938 18.8438 5.60938 36.375
Q5.60938 53.9531 15.125 64.0781
Q24.6562 74.2188 41.2188 74.2188
Q47.75 74.2188 53.5312 72.4844
Q59.3281 70.75 64.4062 67.2812" id="BitstreamVeraSans-Roman-43"/>
     <path d="
M18.1094 8.20312
L18.1094 -20.7969
L9.07812 -20.7969
L9.07812 54.6875
L18.1094 54.6875
L18.1094 46.3906
Q20.9531 51.2656 25.2656 53.625
Q29.5938 56 35.5938 56
Q45.5625 56 51.7812 48.0938
Q58.0156 40.1875 58.0156 27.2969
Q58.0156 14.4062 51.7812 6.48438
Q45.5625 -1.42188 35.5938 -1.42188
Q29.5938 -1.42188 25.2656 0.953125
Q20.9531 3.32812 18.1094 8.20312
M48.6875 27.2969
Q48.6875 37.2031 44.6094 42.8438
Q40.5312 48.4844 33.4062 48.4844
Q26.2656 48.4844 22.1875 42.8438
Q18.1094 37.2031 18.1094 27.2969
Q18.1094 17.3906 22.1875 11.75
Q26.2656 6.10938 33.4062 6.10938
Q40.5312 6.10938 44.6094 11.75
Q48.6875 17.3906 48.6875 27.2969" id="BitstreamVeraSans-Roman-70"/>
     <path d="
M37.1094 75.9844
L37.1094 68.5
L28.5156 68.5
Q23.6875 68.5 21.7969 66.5469
Q19.9219 64.5938 19.9219 59.5156
L19.9219 54.6875
L34.7188 54.6875
L34.7188 47.7031
L19.9219 47.7031
L19.9219 0
L10.8906 0
L10.8906 47.7031
L2.29688 47.7031
L2.29688 54.6875
L10.8906 54.6875
L10.8906 58.5
Q10.8906 67.625 15.1406 71.7969
Q19.3906 75.9844 28.6094 75.9844
z
" id="BitstreamVeraSans-Roman-66"/>
     <path d="
M44.2812 53.0781
L44.2812 44.5781
Q40.4844 46.5312 36.375 47.5
Q32.2812 48.4844 27.875 48.4844
Q21.1875 48.4844 17.8438 46.4375
Q14.5 44.3906 14.5 40.2812
Q14.5 37.1562 16.8906 35.375
Q19.2812 33.5938 26.5156 31.9844
L29.5938 31.2969
Q39.1562 29.25 43.1875 25.5156
Q47.2188 21.7812 47.2188 15.0938
Q47.2188 7.46875 41.1875 3.01562
Q35.1562 -1.42188 24.6094 -1.42188
Q20.2188 -1.42188 15.4531 -0.5625
Q10.6875 0.296875 5.42188 2
L5.42188 11.2812
Q10.4062 8.6875 15.2344 7.39062
Q20.0625 6.10938 24.8125 6.10938
Q31.1562 6.10938 34.5625 8.28125
Q37.9844 10.4531 37.9844 14.4062
Q37.9844 18.0625 35.5156 20.0156
Q33.0625 21.9688 24.7031 23.7812
L21.5781 24.5156
Q13.2344 26.2656 9.51562 29.9062
Q5.8125 33.5469 5.8125 39.8906
Q5.8125 47.6094 11.2812 51.7969
Q16.75 56 26.8125 56
Q31.7812 56 36.1719 55.2656
Q40.5781 54.5469 44.2812 53.0781" id="BitstreamVeraSans-Roman-73"/>
     <path d="
M48.7812 52.5938
L48.7812 44.1875
Q44.9688 46.2969 41.1406 47.3438
Q37.3125 48.3906 33.4062 48.3906
Q24.6562 48.3906 19.8125 42.8438
Q14.9844 37.3125 14.9844 27.2969
Q14.9844 17.2812 19.8125 11.7344
Q24.6562 6.20312 33.4062 6.20312
Q37.3125 6.20312 41.1406 7.25
Q44.9688 8.29688 48.7812 10.4062
L48.7812 2.09375
Q45.0156 0.34375 40.9844 -0.53125
Q36.9688 -1.42188 32.4219 -1.42188
Q20.0625 -1.42188 12.7812 6.34375
Q5.51562 14.1094 5.51562 27.2969
Q5.51562 40.6719 12.8594 48.3281
Q20.2188 56 33.0156 56
Q37.1562 56 41.1094 55.1406
Q45.0625 54.2969 48.7812 52.5938" id="BitstreamVeraSans-Roman-63"/>
    </defs>
    <g transform="translate(102.5195625 23.76)scale(0.144 -0.144)">
     <use xlink:href="#BitstreamVeraSans-Roman-53"/>
     <use x="63.4765625" xlink:href="#BitstreamVeraSans-Roman-74"/>
     <use x="102.685546875" xlink:href="#BitstreamVeraSans-Roman-72"/>
     <use x="141.548828125" xlink:href="#BitstreamVeraSans-Roman-65"/>
     <use x="203.072265625" xlink:href="#BitstreamVeraSans-Roman-73"/>
     <use x="255.171875" xlink:href="#BitstreamVeraSans-Roman-73"/>
     <use x="307.271484375" xlink:href="#BitstreamVeraSans-Roman-20"/>
     <use x="339.05859375" xlink:href="#BitstreamVeraSans-Roman-54"/>
     <use x="385.392578125" xlink:href="#BitstreamVeraSans-Roman-72"/>
     <use x="426.505859375" xlink:href="#BitstreamVeraSans-Roman-69"/>
     <use x="454.2890625" xlink:href="#BitstreamVeraSans-Roman-61"/>
     <use x="515.568359375" xlink:href="#BitstreamVeraSans-Roman-6c"/>
     <use x="543.3515625" xlink:href="#BitstreamVeraSans-Roman-20"/>
     <use x="575.138671875" xlink:href="#BitstreamVeraSans-Roman-50"/>
     <use x="631.81640625" xlink:href="#BitstreamVeraSans-Roman-65"/>
     <use x="693.33984375" xlink:href="#BitstreamVeraSans-Roman-72"/>
     <use x="734.453125" xlink:href="#BitstreamVeraSans-Roman-66"/>
     <use x="769.658203125" xlink:href="#BitstreamVeraSans-Roman-6f"/>
     <use x="830.83984375" xlink:href="#BitstreamVeraSans-Roman-72"/>
     <use x="870.203125" xlink:href="#BitstreamVeraSans-Roman-6d"/>
     <use x="967.615234375" xlink:href="#BitstreamVeraSans-Roman-61"/>
     <use x="1028.89453125" xlink:href="#BitstreamVeraSans-Roman-6e"/>
     <use x="1092.2734375" xlink:href="#BitstreamVeraSans-Roman-63"/>
     <use x="1147.25390625" xlink:href="#BitstreamVeraSans-Roman-65"/>
     <use x="1208.77734375" xlink:href="#BitstreamVeraSans-Roman-3a"/>
     <use x="1242.46875" xlink:href="#BitstreamVeraSans-Roman-20"/>
     <use x="1274.25585938" xlink:href="#BitstreamVeraSans-Roman-54"/>
     <use x="1320.58984375" xlink:href="#BitstreamVeraSans-Roman-72"/>
     <use x="1361.703125" xlink:href="#BitstreamVeraSans-Roman-69"/>
     <use x="1389.48632812" xlink:href="#BitstreamVeraSans-Roman-61"/>
     <use x="1450.765625" xlink:href="#BitstreamVeraSans-Roman-6c"/>
     <use x="1478.54882812" xlink:href="#BitstreamVeraSans-Roman-20"/>
     <use x="1510.3359375" xlink:href="#BitstreamVeraSans-Roman-43"/>
     <use x="1580.16015625" xlink:href="#BitstreamVeraSans-Roman-6f"/>
     <use x="1641.34179688" xlink:href="#BitstreamVeraSans-Roman-6d"/>
     <use x="1738.75390625" xlink:href="#BitstreamVeraSans-Roman-70"/>
     <use x="1802.23046875" xlink:href="#BitstreamVeraSans-Roman-6c"/>
     <use x="1830.01367188" xlink:href="#BitstreamVeraSans-Roman-65"/>
     <use x="1891.53710938" xlink:href="#BitstreamVeraSans-Roman-74"/>
     <use x="1930.74609375" xlink:href="#BitstreamVeraSans-Roman-69"/>
     <use x="1958.52929688" xlink:href="#BitstreamVeraSans-Roman-6f"/>
     <use x="2019.7109375" xlink:href="#BitstreamVeraSans-Roman-6e"/>
     <use x="2083.08984375" xlink:href="#BitstreamVeraSans-Roman-20"/>
     <use x="2114.87695312" xlink:href="#BitstreamVeraSans-Roman-52"/>
     <use x="2182.109375" xlink:href="#BitstreamVeraSans-Roman-61"/>
     <use x="2243.38867188" xlink:href="#BitstreamVeraSans-Roman-74"/>
     <use x="2282.59765625" xlink:href="#BitstreamVeraSans-Roman-65"/>
     <use x="2344.12109375" xlink:href="#BitstreamVeraSans-Roman-20"/>
     <use x="2375.90820312" xlink:href="#BitstreamVeraSans-Roman-30"/>
     <use x="2439.53125" xlink:href="#BitstreamVeraSans-Roman-2e"/>
     <use x="2471.31835938" xlink:href="#BitstreamVeraSans-Roman-34"/>
     <use x="2534.94140625" xlink:href="#BitstreamVeraSans-Roman-30"/>
     <use x="2598.56445312" xlink:href="#BitstreamVeraSans-Roman-34"/>
     <use x="2662.1875" xlink:href="#BitstreamVeraSans-Roman-35"/>
     <use x="2725.81054688" xlink:href="#BitstreamVeraSans-Roman-39"/>
     <use x="2789.43359375" xlink:href="#BitstreamVeraSans-Roman-34"/>
    </g>
   </g>
  </g>
  <g id="axes_2">
   <g id="patch_7">
    <path d="
M52.0256 384.84
L563.04 384.84
L563.04 238.28
L52.0256 238.28
z
" style="fill:#ffffff;"/>
   </g>
   <g id="line2d_33">
    <path clip-path="url(#peed5fb745c)" d="
M52.0256 384.84
L54.2002 318.222
L56.3747 296.016
L58.5492 318.222
L60.7237 304.898
L62.8983 296.016
L65.0728 289.671
L67.2473 301.567
L69.4219 310.82
L71.5964 318.222
L73.7709 312.166
L75.9454 307.119
L78.12 302.848
L80.2945 299.188
L82.469 304.898
L84.6436 309.895
L86.8181 306.466
L88.9926 303.418
L91.1672 300.691
L93.3417 298.236
L95.5162 302.36
L97.6907 306.109
L99.8653 303.74
L102.04 307.119
L104.214 304.898
L108.563 300.95
L112.912 297.547
L115.087 296.016
L119.436 301.567
L121.611 300.053
L123.785 302.547
L125.96 301.091
L128.134 303.418
L130.309 302.017
L132.483 304.197
L134.658 302.848
L139.007 306.848
L141.181 305.533
L143.356 307.377
L145.53 306.109
L149.879 309.532
L154.228 307.119
L158.578 304.898
L160.752 303.853
L162.927 303.853
L165.101 306.466
L173.799 306.466
L175.974 309.078
L178.148 309.078
L182.497 303.853
L191.195 303.853
L195.545 298.628
L199.894 298.628
L204.243 303.853
L208.592 298.628
L225.988 298.628
L228.162 296.016
L236.861 296.016
L239.035 293.403
L245.559 293.403
L249.908 288.178
L252.082 288.178
L254.257 285.566
L256.431 285.566
L258.606 282.953
L260.78 282.953
L262.955 285.566
L269.479 285.566
L271.653 288.178
L273.828 288.178
L276.002 285.566
L278.177 285.566
L280.351 282.953
L286.875 282.953
L289.049 280.341
L291.224 280.341
L295.573 285.566
L310.795 285.566
L315.144 280.341
L323.842 280.341
L326.016 282.953
L328.191 282.953
L339.063 296.016
L343.413 296.016
L345.587 293.403
L347.762 296.016
L349.936 296.016
L352.111 298.628
L354.285 296.016
L360.809 296.016
L362.983 298.628
L367.332 298.628
L369.507 301.241
L376.03 301.241
L378.205 303.853
L380.38 303.853
L384.729 298.628
L391.252 306.466
L397.776 306.466
L399.95 309.078
L404.299 309.078
L406.474 306.466
L412.997 306.466
L415.172 309.078
L421.696 309.078
L423.87 311.691
L426.045 311.691
L428.219 314.303
L439.092 314.303
L441.266 311.691
L445.615 311.691
L447.79 309.078
L452.139 309.078
L454.314 311.691
L463.012 311.691
L465.186 314.303
L467.361 314.303
L469.535 316.916
L471.71 316.916
L473.884 314.303
L476.059 314.303
L478.233 316.916
L480.408 314.303
L489.106 314.303
L495.63 322.141
L497.804 322.141
L499.979 319.528
L502.153 319.528
L506.502 324.753
L508.677 324.753
L510.851 322.141
L513.026 324.753
L515.2 322.141
L517.375 324.753
L523.898 324.753
L526.073 322.141
L528.248 324.753
L532.597 324.753
L534.771 322.141
L536.946 324.753
L541.295 324.753
L543.469 327.365
L549.993 327.365
L552.167 329.978
L556.516 324.753
L560.865 324.753
L560.865 324.753" style="fill:none;stroke:#ff0000;stroke-linecap:square;"/>
   </g>
   <g id="line2d_34">
    <path clip-path="url(#peed5fb745c)" d="
M52.0256 384.84
L54.2002 384.84
L56.3747 318.222
L58.5492 318.222
L60.7237 340.428
L62.8983 318.222
L65.0728 304.898
L71.5964 304.898
L73.7709 296.016
L75.9454 308.705
L78.12 318.222
L80.2945 325.624
L84.6436 325.624
L86.8181 318.222
L88.9926 312.166
L91.1672 318.222
L93.3417 313.097
L97.6907 313.097
L99.8653 308.705
L102.04 308.705
L104.214 313.781
L106.389 318.222
L108.563 322.141
L110.738 318.222
L112.912 314.716
L115.087 318.222
L119.436 318.222
L121.611 321.394
L123.785 321.394
L125.96 318.222
L128.134 318.222
L130.309 315.325
L132.483 315.325
L134.658 312.67
L139.007 312.67
L141.181 310.228
L143.356 310.228
L145.53 313.097
L149.879 313.097
L152.054 310.82
L154.228 313.463
L158.578 318.222
L160.752 316.073
L162.927 316.073
L165.101 313.781
L173.799 313.781
L175.974 315.925
L178.148 315.925
L182.497 311.775
L184.672 316.073
L191.195 316.073
L193.37 314.058
L195.545 316.203
L199.894 324.278
L202.068 322.385
L204.243 324.669
L208.592 328.315
L215.115 328.315
L219.464 320.241
L221.639 320.241
L223.813 324.278
L225.988 324.278
L228.162 326.059
L234.686 326.059
L236.861 329.978
L239.035 331.545
L245.559 331.545
L247.733 333.026
L249.908 330.825
L252.082 334.426
L254.257 335.753
L256.431 335.753
L258.606 333.595
L260.78 333.595
L262.955 335.753
L265.129 335.753
L267.304 332.247
L269.479 332.247
L271.653 334.426
L273.828 334.426
L276.002 332.247
L278.177 332.247
L280.351 333.595
L286.875 333.595
L289.049 334.876
L291.224 338.207
L293.398 340.428
L295.573 339.259
L302.096 339.259
L304.271 342.765
L308.62 342.765
L310.795 339.259
L315.144 341.538
L319.493 334.876
L321.667 338.207
L323.842 338.207
L326.016 337.012
L328.191 337.012
L332.54 341.628
L336.889 339.159
L339.063 337.815
L343.413 337.815
L345.587 335.352
L347.762 333.897
L349.936 333.897
L352.111 336.39
L354.285 337.815
L356.46 341.734
L360.809 341.734
L362.983 340.428
L367.332 340.428
L369.507 343.204
L376.03 343.204
L378.205 346.158
L380.38 346.158
L382.554 347.367
L384.729 344.465
L386.903 347.367
L389.078 350.456
L391.252 349.31
L397.776 349.31
L399.95 348.085
L404.299 348.085
L406.474 349.31
L410.823 340.428
L412.997 340.428
L415.172 338.896
L421.696 338.896
L423.87 337.256
L426.045 332.497
L428.219 335.493
L430.394 340.428
L436.917 340.428
L439.092 345.363
L441.266 342.014
L445.615 342.014
L447.79 338.896
L452.139 338.896
L454.314 337.256
L456.488 342.014
L463.012 342.014
L465.186 340.428
L467.361 340.428
L469.535 338.72
L471.71 338.72
L473.884 335.493
L476.059 335.493
L478.233 333.595
L480.408 330.559
L489.106 330.559
L491.281 328.471
L493.455 326.216
L495.63 329.325
L497.804 329.325
L499.979 331.545
L502.153 331.545
L504.328 329.325
L506.502 332.704
L508.677 332.704
L510.851 334.876
L513.026 332.704
L515.2 334.876
L517.375 332.704
L519.549 338.497
L523.898 338.497
L526.073 334.876
L528.248 332.704
L530.422 332.704
L532.597 338.497
L534.771 334.876
L536.946 338.497
L541.295 338.497
L543.469 336.39
L547.818 336.39
L549.993 330.334
L552.167 334.083
L554.342 336.39
L556.516 338.497
L558.691 344.29
L560.865 344.29
L560.865 344.29" style="fill:none;stroke:#ff0000;stroke-dasharray:6.000000,6.000000;stroke-dashoffset:0.0;"/>
   </g>
   <g id="line2d_35">
    <path clip-path="url(#peed5fb745c)" d="
M52.0256 251.604
L54.2002 318.222
L56.3747 340.428
L58.5492 318.222
L60.7237 331.545
L62.8983 340.428
L65.0728 346.772
L67.2473 334.876
L69.4219 325.624
L71.5964 318.222
L73.7709 324.278
L75.9454 329.325
L78.12 333.595
L80.2945 337.256
L82.469 331.545
L84.6436 326.549
L86.8181 329.978
L88.9926 333.026
L91.1672 335.753
L93.3417 338.207
L95.5162 334.083
L97.6907 330.334
L99.8653 332.704
L102.04 329.325
L104.214 331.545
L108.563 335.493
L112.912 338.896
L115.087 340.428
L119.436 334.876
L121.611 336.39
L123.785 333.897
L125.96 335.352
L128.134 333.026
L130.309 334.426
L132.483 332.247
L134.658 333.595
L139.007 329.596
L141.181 330.911
L143.356 329.067
L145.53 330.334
L149.879 326.911
L154.228 329.325
L158.578 331.545
L160.752 332.59
L162.927 332.59
L165.101 329.978
L173.799 329.978
L175.974 327.365
L178.148 327.365
L182.497 332.59
L191.195 332.59
L195.545 337.815
L199.894 337.815
L204.243 332.59
L208.592 337.815
L225.988 337.815
L228.162 340.428
L236.861 340.428
L239.035 343.04
L245.559 343.04
L249.908 348.265
L252.082 348.265
L254.257 350.878
L256.431 350.878
L258.606 353.49
L260.78 353.49
L262.955 350.878
L269.479 350.878
L271.653 348.265
L273.828 348.265
L276.002 350.878
L278.177 350.878
L280.351 353.49
L286.875 353.49
L289.049 356.103
L291.224 356.103
L295.573 350.878
L310.795 350.878
L315.144 356.103
L323.842 356.103
L326.016 353.49
L328.191 353.49
L339.063 340.428
L343.413 340.428
L345.587 343.04
L347.762 340.428
L349.936 340.428
L352.111 337.815
L354.285 340.428
L360.809 340.428
L362.983 337.815
L367.332 337.815
L369.507 335.203
L376.03 335.203
L378.205 332.59
L380.38 332.59
L384.729 337.815
L391.252 329.978
L397.776 329.978
L399.95 327.365
L404.299 327.365
L406.474 329.978
L412.997 329.978
L415.172 327.365
L421.696 327.365
L423.87 324.753
L426.045 324.753
L428.219 322.141
L439.092 322.141
L441.266 324.753
L445.615 324.753
L447.79 327.365
L452.139 327.365
L454.314 324.753
L463.012 324.753
L465.186 322.141
L467.361 322.141
L469.535 319.528
L471.71 319.528
L473.884 322.141
L476.059 322.141
L478.233 319.528
L480.408 322.141
L489.106 322.141
L495.63 314.303
L497.804 314.303
L499.979 316.916
L502.153 316.916
L506.502 311.691
L508.677 311.691
L510.851 314.303
L513.026 311.691
L515.2 314.303
L517.375 311.691
L523.898 311.691
L526.073 314.303
L528.248 311.691
L532.597 311.691
L534.771 314.303
L536.946 311.691
L541.295 311.691
L543.469 309.078
L549.993 309.078
L552.167 306.466
L556.516 311.691
L560.865 311.691
L560.865 311.691" style="fill:none;stroke:#0000ff;stroke-linecap:square;"/>
   </g>
   <g id="line2d_36">
    <path clip-path="url(#peed5fb745c)" d="
M52.0256 251.604
L69.4219 251.604
L71.5964 278.251
L80.2945 278.251
L82.469 273.81
L84.6436 270.637
L93.3417 270.637
L95.5162 284.913
L97.6907 281.212
L99.8653 281.212
L102.04 278.251
L115.087 278.251
L117.262 275.828
L119.436 273.81
L121.611 273.81
L123.785 272.102
L125.96 272.102
L128.134 270.637
L130.309 270.637
L132.483 269.368
L134.658 269.368
L136.832 268.258
L139.007 267.279
L141.181 267.279
L143.356 266.408
L145.53 266.408
L147.705 272.641
L149.879 271.589
L160.752 271.589
L162.927 278.251
L165.101 276.982
L173.799 276.982
L175.974 281.885
L178.148 281.885
L180.323 283.327
L182.497 278.251
L191.195 278.251
L193.37 279.653
L195.545 281.212
L199.894 281.212
L202.068 286.666
L204.243 284.913
L206.417 279.653
L208.592 281.212
L225.988 281.212
L228.162 282.953
L236.861 282.953
L239.035 284.913
L245.559 284.913
L247.733 287.133
L249.908 289.671
L252.082 289.671
L254.257 292.599
L256.431 292.599
L258.606 284.913
L260.78 284.913
L262.955 282.35
L269.479 282.35
L271.653 280.154
L273.828 270.637
L276.002 272.102
L278.177 272.102
L280.351 273.81
L284.7 273.81
L286.875 262.707
L289.049 263.716
L291.224 263.716
L293.398 262.707
L295.573 261.853
L310.795 261.853
L312.969 251.604
L321.667 251.604
L323.842 263.716
L326.016 262.707
L328.191 262.707
L330.365 261.853
L334.714 260.486
L336.889 259.931
L339.063 267.279
L341.238 275.116
L343.413 275.116
L345.587 276.585
L347.762 275.116
L349.936 275.116
L352.111 273.81
L354.285 275.116
L360.809 275.116
L362.983 273.81
L367.332 273.81
L369.507 279.653
L376.03 279.653
L378.205 278.251
L380.38 278.251
L382.554 279.653
L384.729 281.212
L386.903 279.653
L389.078 278.251
L391.252 276.982
L397.776 276.982
L399.95 275.828
L404.299 275.828
L406.474 276.982
L412.997 276.982
L415.172 275.828
L421.696 275.828
L423.87 280.568
L426.045 280.568
L428.219 279.361
L439.092 279.361
L441.266 280.568
L445.615 280.568
L447.79 281.885
L452.139 281.885
L454.314 280.568
L463.012 280.568
L465.186 279.361
L467.361 279.361
L469.535 278.251
L471.71 278.251
L473.884 279.361
L476.059 279.361
L478.233 278.251
L480.408 273.81
L489.106 273.81
L493.455 272.102
L495.63 271.342
L497.804 271.342
L499.979 272.102
L502.153 272.102
L504.328 276.277
L506.502 275.396
L508.677 275.396
L510.851 276.277
L513.026 275.396
L515.2 276.277
L517.375 280.154
L523.898 280.154
L526.073 281.212
L528.248 280.154
L532.597 280.154
L534.771 276.277
L536.946 275.396
L539.12 280.154
L541.295 280.154
L543.469 279.17
L549.993 279.17
L552.167 278.251
L556.516 280.154
L558.691 280.154
L560.865 275.396
L560.865 275.396" style="fill:none;stroke:#0000ff;stroke-dasharray:6.000000,6.000000;stroke-dashoffset:0.0;"/>
   </g>
   <g id="patch_8">
    <path d="
M52.0256 238.28
L563.04 238.28" style="fill:none;stroke:#000000;stroke-linecap:square;stroke-linejoin:miter;"/>
   </g>
   <g id="patch_9">
    <path d="
M563.04 384.84
L563.04 238.28" style="fill:none;stroke:#000000;stroke-linecap:square;stroke-linejoin:miter;"/>
   </g>
   <g id="patch_10">
    <path d="
M52.0256 384.84
L563.04 384.84" style="fill:none;stroke:#000000;stroke-linecap:square;stroke-linejoin:miter;"/>
   </g>
   <g id="patch_11">
    <path d="
M52.0256 384.84
L52.0256 238.28" style="fill:none;stroke:#000000;stroke-linecap:square;stroke-linejoin:miter;"/>
   </g>
   <g id="matplotlib.axis_3">
    <g id="xtick_9">
     <g id="line2d_37">
      <g>
       <use style="stroke:#000000;stroke-width:0.5;" x="52.025625" xlink:href="#m93b0483c22" y="384.84"/>
      </g>
     </g>
     <g id="line2d_38">
      <g>
       <use style="stroke:#000000;stroke-width:0.5;" x="52.025625" xlink:href="#m741efc42ff" y="238.28"/>
      </g>
     </g>
     <g id="text_18">
      <!-- 0 -->
      <g transform="translate(49.0021875 397.958125)scale(0.12 -0.12)">
       <use xlink:href="#BitstreamVeraSans-Roman-30"/>
      </g>
     </g>
    </g>
    <g id="xtick_10">
     <g id="line2d_39">
      <g>
       <use style="stroke:#000000;stroke-width:0.5;" x="160.752087766" xlink:href="#m93b0483c22" y="384.84"/>
      </g>
     </g>
     <g id="line2d_40">
      <g>
       <use style="stroke:#000000;stroke-width:0.5;" x="160.752087766" xlink:href="#m741efc42ff" y="238.28"/>
      </g>
     </g>
     <g id="text_19">
      <!-- 50 -->
      <g transform="translate(153.978650266 397.958125)scale(0.12 -0.12)">
       <use xlink:href="#BitstreamVeraSans-Roman-35"/>
       <use x="63.623046875" xlink:href="#BitstreamVeraSans-Roman-30"/>
      </g>
     </g>
    </g>
    <g id="xtick_11">
     <g id="line2d_41">
      <g>
       <use style="stroke:#000000;stroke-width:0.5;" x="269.478550532" xlink:href="#m93b0483c22" y="384.84"/>
      </g>
     </g>
     <g id="line2d_42">
      <g>
       <use style="stroke:#000000;stroke-width:0.5;" x="269.478550532" xlink:href="#m741efc42ff" y="238.28"/>
      </g>
     </g>
     <g id="text_20">
      <!-- 100 -->
      <g transform="translate(259.083550532 397.958125)scale(0.12 -0.12)">
       <use xlink:href="#BitstreamVeraSans-Roman-31"/>
       <use x="63.623046875" xlink:href="#BitstreamVeraSans-Roman-30"/>
       <use x="127.24609375" xlink:href="#BitstreamVeraSans-Roman-30"/>
      </g>
     </g>
    </g>
    <g id="xtick_12">
     <g id="line2d_43">
      <g>
       <use style="stroke:#000000;stroke-width:0.5;" x="378.205013298" xlink:href="#m93b0483c22" y="384.84"/>
      </g>
     </g>
     <g id="line2d_44">
      <g>
       <use style="stroke:#000000;stroke-width:0.5;" x="378.205013298" xlink:href="#m741efc42ff" y="238.28"/>
      </g>
     </g>
     <g id="text_21">
      <!-- 150 -->
      <g transform="translate(367.810013298 397.958125)scale(0.12 -0.12)">
       <use xlink:href="#BitstreamVeraSans-Roman-31"/>
       <use x="63.623046875" xlink:href="#BitstreamVeraSans-Roman-35"/>
       <use x="127.24609375" xlink:href="#BitstreamVeraSans-Roman-30"/>
      </g>
     </g>
    </g>
    <g id="xtick_13">
     <g id="line2d_45">
      <g>
       <use style="stroke:#000000;stroke-width:0.5;" x="486.931476064" xlink:href="#m93b0483c22" y="384.84"/>
      </g>
     </g>
     <g id="line2d_46">
      <g>
       <use style="stroke:#000000;stroke-width:0.5;" x="486.931476064" xlink:href="#m741efc42ff" y="238.28"/>
      </g>
     </g>
     <g id="text_22">
      <!-- 200 -->
      <g transform="translate(476.317101064 397.958125)scale(0.12 -0.12)">
       <use xlink:href="#BitstreamVeraSans-Roman-32"/>
       <use x="63.623046875" xlink:href="#BitstreamVeraSans-Roman-30"/>
       <use x="127.24609375" xlink:href="#BitstreamVeraSans-Roman-30"/>
      </g>
     </g>
    </g>
    <g id="text_23">
     <!-- Trial Number -->
     <g transform="translate(269.248125 414.571875)scale(0.12 -0.12)">
      <use xlink:href="#BitstreamVeraSans-Roman-54"/>
      <use x="46.333984375" xlink:href="#BitstreamVeraSans-Roman-72"/>
      <use x="87.447265625" xlink:href="#BitstreamVeraSans-Roman-69"/>
      <use x="115.23046875" xlink:href="#BitstreamVeraSans-Roman-61"/>
      <use x="176.509765625" xlink:href="#BitstreamVeraSans-Roman-6c"/>
      <use x="204.29296875" xlink:href="#BitstreamVeraSans-Roman-20"/>
      <use x="236.080078125" xlink:href="#BitstreamVeraSans-Roman-4e"/>
      <use x="310.884765625" xlink:href="#BitstreamVeraSans-Roman-75"/>
      <use x="374.263671875" xlink:href="#BitstreamVeraSans-Roman-6d"/>
      <use x="471.67578125" xlink:href="#BitstreamVeraSans-Roman-62"/>
      <use x="535.15234375" xlink:href="#BitstreamVeraSans-Roman-65"/>
      <use x="596.67578125" xlink:href="#BitstreamVeraSans-Roman-72"/>
     </g>
    </g>
   </g>
   <g id="matplotlib.axis_4">
    <g id="ytick_7">
     <g id="line2d_47">
      <g>
       <use style="stroke:#000000;stroke-width:0.5;" x="52.025625" xlink:href="#m728421d6d4" y="384.84"/>
      </g>
     </g>
     <g id="line2d_48">
      <g>
       <use style="stroke:#000000;stroke-width:0.5;" x="563.04" xlink:href="#mcb0005524f" y="384.84"/>
      </g>
     </g>
     <g id="text_24">
      <!-- 0.0 -->
      <g transform="translate(30.53 388.15125)scale(0.12 -0.12)">
       <use xlink:href="#BitstreamVeraSans-Roman-30"/>
       <use x="63.623046875" xlink:href="#BitstreamVeraSans-Roman-2e"/>
       <use x="95.41015625" xlink:href="#BitstreamVeraSans-Roman-30"/>
      </g>
     </g>
    </g>
    <g id="ytick_8">
     <g id="line2d_49">
      <g>
       <use style="stroke:#000000;stroke-width:0.5;" x="52.025625" xlink:href="#m728421d6d4" y="358.192727273"/>
      </g>
     </g>
     <g id="line2d_50">
      <g>
       <use style="stroke:#000000;stroke-width:0.5;" x="563.04" xlink:href="#mcb0005524f" y="358.192727273"/>
      </g>
     </g>
     <g id="text_25">
      <!-- 0.2 -->
      <g transform="translate(30.935 361.503977273)scale(0.12 -0.12)">
       <use xlink:href="#BitstreamVeraSans-Roman-30"/>
       <use x="63.623046875" xlink:href="#BitstreamVeraSans-Roman-2e"/>
       <use x="95.41015625" xlink:href="#BitstreamVeraSans-Roman-32"/>
      </g>
     </g>
    </g>
    <g id="ytick_9">
     <g id="line2d_51">
      <g>
       <use style="stroke:#000000;stroke-width:0.5;" x="52.025625" xlink:href="#m728421d6d4" y="331.545454545"/>
      </g>
     </g>
     <g id="line2d_52">
      <g>
       <use style="stroke:#000000;stroke-width:0.5;" x="563.04" xlink:href="#mcb0005524f" y="331.545454545"/>
      </g>
     </g>
     <g id="text_26">
      <!-- 0.4 -->
      <g transform="translate(30.40625 334.856704545)scale(0.12 -0.12)">
       <use xlink:href="#BitstreamVeraSans-Roman-30"/>
       <use x="63.623046875" xlink:href="#BitstreamVeraSans-Roman-2e"/>
       <use x="95.41015625" xlink:href="#BitstreamVeraSans-Roman-34"/>
      </g>
     </g>
    </g>
    <g id="ytick_10">
     <g id="line2d_53">
      <g>
       <use style="stroke:#000000;stroke-width:0.5;" x="52.025625" xlink:href="#m728421d6d4" y="304.898181818"/>
      </g>
     </g>
     <g id="line2d_54">
      <g>
       <use style="stroke:#000000;stroke-width:0.5;" x="563.04" xlink:href="#mcb0005524f" y="304.898181818"/>
      </g>
     </g>
     <g id="text_27">
      <!-- 0.6 -->
      <g transform="translate(30.48875 308.209431818)scale(0.12 -0.12)">
       <use xlink:href="#BitstreamVeraSans-Roman-30"/>
       <use x="63.623046875" xlink:href="#BitstreamVeraSans-Roman-2e"/>
       <use x="95.41015625" xlink:href="#BitstreamVeraSans-Roman-36"/>
      </g>
     </g>
    </g>
    <g id="ytick_11">
     <g id="line2d_55">
      <g>
       <use style="stroke:#000000;stroke-width:0.5;" x="52.025625" xlink:href="#m728421d6d4" y="278.250909091"/>
      </g>
     </g>
     <g id="line2d_56">
      <g>
       <use style="stroke:#000000;stroke-width:0.5;" x="563.04" xlink:href="#mcb0005524f" y="278.250909091"/>
      </g>
     </g>
     <g id="text_28">
      <!-- 0.8 -->
      <g transform="translate(30.554375 281.562159091)scale(0.12 -0.12)">
       <use xlink:href="#BitstreamVeraSans-Roman-30"/>
       <use x="63.623046875" xlink:href="#BitstreamVeraSans-Roman-2e"/>
       <use x="95.41015625" xlink:href="#BitstreamVeraSans-Roman-38"/>
      </g>
     </g>
    </g>
    <g id="ytick_12">
     <g id="line2d_57">
      <g>
       <use style="stroke:#000000;stroke-width:0.5;" x="52.025625" xlink:href="#m728421d6d4" y="251.603636364"/>
      </g>
     </g>
     <g id="line2d_58">
      <g>
       <use style="stroke:#000000;stroke-width:0.5;" x="563.04" xlink:href="#mcb0005524f" y="251.603636364"/>
      </g>
     </g>
     <g id="text_29">
      <!-- 1.0 -->
      <g transform="translate(31.056875 254.914886364)scale(0.12 -0.12)">
       <use xlink:href="#BitstreamVeraSans-Roman-31"/>
       <use x="63.623046875" xlink:href="#BitstreamVeraSans-Roman-2e"/>
       <use x="95.41015625" xlink:href="#BitstreamVeraSans-Roman-30"/>
      </g>
     </g>
    </g>
    <g id="text_30">
     <!-- Probability -->
     <g transform="translate(22.910625 342.506875)rotate(-90.0)scale(0.12 -0.12)">
      <use xlink:href="#BitstreamVeraSans-Roman-50"/>
      <use x="58.552734375" xlink:href="#BitstreamVeraSans-Roman-72"/>
      <use x="97.416015625" xlink:href="#BitstreamVeraSans-Roman-6f"/>
      <use x="158.59765625" xlink:href="#BitstreamVeraSans-Roman-62"/>
      <use x="222.07421875" xlink:href="#BitstreamVeraSans-Roman-61"/>
      <use x="283.353515625" xlink:href="#BitstreamVeraSans-Roman-62"/>
      <use x="346.830078125" xlink:href="#BitstreamVeraSans-Roman-69"/>
      <use x="374.61328125" xlink:href="#BitstreamVeraSans-Roman-6c"/>
      <use x="402.396484375" xlink:href="#BitstreamVeraSans-Roman-69"/>
      <use x="430.1796875" xlink:href="#BitstreamVeraSans-Roman-74"/>
      <use x="469.388671875" xlink:href="#BitstreamVeraSans-Roman-79"/>
     </g>
    </g>
   </g>
   <g id="text_31">
    <!-- Regular Trial Performance: Trial Completion Rate 0.911846 -->
    <defs>
     <path d="
M45.4062 27.9844
Q45.4062 37.75 41.375 43.1094
Q37.3594 48.4844 30.0781 48.4844
Q22.8594 48.4844 18.8281 43.1094
Q14.7969 37.75 14.7969 27.9844
Q14.7969 18.2656 18.8281 12.8906
Q22.8594 7.51562 30.0781 7.51562
Q37.3594 7.51562 41.375 12.8906
Q45.4062 18.2656 45.4062 27.9844
M54.3906 6.78125
Q54.3906 -7.17188 48.1875 -13.9844
Q42 -20.7969 29.2031 -20.7969
Q24.4688 -20.7969 20.2656 -20.0938
Q16.0625 -19.3906 12.1094 -17.9219
L12.1094 -9.1875
Q16.0625 -11.3281 19.9219 -12.3438
Q23.7812 -13.375 27.7812 -13.375
Q36.625 -13.375 41.0156 -8.76562
Q45.4062 -4.15625 45.4062 5.17188
L45.4062 9.625
Q42.625 4.78125 38.2812 2.39062
Q33.9375 0 27.875 0
Q17.8281 0 11.6719 7.65625
Q5.51562 15.3281 5.51562 27.9844
Q5.51562 40.6719 11.6719 48.3281
Q17.8281 56 27.875 56
Q33.9375 56 38.2812 53.6094
Q42.625 51.2188 45.4062 46.3906
L45.4062 54.6875
L54.3906 54.6875
z
" id="BitstreamVeraSans-Roman-67"/>
    </defs>
    <g transform="translate(97.0768125 233.28)scale(0.144 -0.144)">
     <use xlink:href="#BitstreamVeraSans-Roman-52"/>
     <use x="64.982421875" xlink:href="#BitstreamVeraSans-Roman-65"/>
     <use x="126.505859375" xlink:href="#BitstreamVeraSans-Roman-67"/>
     <use x="189.982421875" xlink:href="#BitstreamVeraSans-Roman-75"/>
     <use x="253.361328125" xlink:href="#BitstreamVeraSans-Roman-6c"/>
     <use x="281.14453125" xlink:href="#BitstreamVeraSans-Roman-61"/>
     <use x="342.423828125" xlink:href="#BitstreamVeraSans-Roman-72"/>
     <use x="383.537109375" xlink:href="#BitstreamVeraSans-Roman-20"/>
     <use x="415.32421875" xlink:href="#BitstreamVeraSans-Roman-54"/>
     <use x="461.658203125" xlink:href="#BitstreamVeraSans-Roman-72"/>
     <use x="502.771484375" xlink:href="#BitstreamVeraSans-Roman-69"/>
     <use x="530.5546875" xlink:href="#BitstreamVeraSans-Roman-61"/>
     <use x="591.833984375" xlink:href="#BitstreamVeraSans-Roman-6c"/>
     <use x="619.6171875" xlink:href="#BitstreamVeraSans-Roman-20"/>
     <use x="651.404296875" xlink:href="#BitstreamVeraSans-Roman-50"/>
     <use x="708.08203125" xlink:href="#BitstreamVeraSans-Roman-65"/>
     <use x="769.60546875" xlink:href="#BitstreamVeraSans-Roman-72"/>
     <use x="810.71875" xlink:href="#BitstreamVeraSans-Roman-66"/>
     <use x="845.923828125" xlink:href="#BitstreamVeraSans-Roman-6f"/>
     <use x="907.10546875" xlink:href="#BitstreamVeraSans-Roman-72"/>
     <use x="946.46875" xlink:href="#BitstreamVeraSans-Roman-6d"/>
     <use x="1043.88085938" xlink:href="#BitstreamVeraSans-Roman-61"/>
     <use x="1105.16015625" xlink:href="#BitstreamVeraSans-Roman-6e"/>
     <use x="1168.5390625" xlink:href="#BitstreamVeraSans-Roman-63"/>
     <use x="1223.51953125" xlink:href="#BitstreamVeraSans-Roman-65"/>
     <use x="1285.04296875" xlink:href="#BitstreamVeraSans-Roman-3a"/>
     <use x="1318.734375" xlink:href="#BitstreamVeraSans-Roman-20"/>
     <use x="1350.52148438" xlink:href="#BitstreamVeraSans-Roman-54"/>
     <use x="1396.85546875" xlink:href="#BitstreamVeraSans-Roman-72"/>
     <use x="1437.96875" xlink:href="#BitstreamVeraSans-Roman-69"/>
     <use x="1465.75195312" xlink:href="#BitstreamVeraSans-Roman-61"/>
     <use x="1527.03125" xlink:href="#BitstreamVeraSans-Roman-6c"/>
     <use x="1554.81445312" xlink:href="#BitstreamVeraSans-Roman-20"/>
     <use x="1586.6015625" xlink:href="#BitstreamVeraSans-Roman-43"/>
     <use x="1656.42578125" xlink:href="#BitstreamVeraSans-Roman-6f"/>
     <use x="1717.60742188" xlink:href="#BitstreamVeraSans-Roman-6d"/>
     <use x="1815.01953125" xlink:href="#BitstreamVeraSans-Roman-70"/>
     <use x="1878.49609375" xlink:href="#BitstreamVeraSans-Roman-6c"/>
     <use x="1906.27929688" xlink:href="#BitstreamVeraSans-Roman-65"/>
     <use x="1967.80273438" xlink:href="#BitstreamVeraSans-Roman-74"/>
     <use x="2007.01171875" xlink:href="#BitstreamVeraSans-Roman-69"/>
     <use x="2034.79492188" xlink:href="#BitstreamVeraSans-Roman-6f"/>
     <use x="2095.9765625" xlink:href="#BitstreamVeraSans-Roman-6e"/>
     <use x="2159.35546875" xlink:href="#BitstreamVeraSans-Roman-20"/>
     <use x="2191.14257812" xlink:href="#BitstreamVeraSans-Roman-52"/>
     <use x="2258.375" xlink:href="#BitstreamVeraSans-Roman-61"/>
     <use x="2319.65429688" xlink:href="#BitstreamVeraSans-Roman-74"/>
     <use x="2358.86328125" xlink:href="#BitstreamVeraSans-Roman-65"/>
     <use x="2420.38671875" xlink:href="#BitstreamVeraSans-Roman-20"/>
     <use x="2452.17382812" xlink:href="#BitstreamVeraSans-Roman-30"/>
     <use x="2515.796875" xlink:href="#BitstreamVeraSans-Roman-2e"/>
     <use x="2547.58398438" xlink:href="#BitstreamVeraSans-Roman-39"/>
     <use x="2611.20703125" xlink:href="#BitstreamVeraSans-Roman-31"/>
     <use x="2674.83007812" xlink:href="#BitstreamVeraSans-Roman-31"/>
     <use x="2738.453125" xlink:href="#BitstreamVeraSans-Roman-38"/>
     <use x="2802.07617188" xlink:href="#BitstreamVeraSans-Roman-34"/>
     <use x="2865.69921875" xlink:href="#BitstreamVeraSans-Roman-36"/>
    </g>
   </g>
   <g id="legend_1">
    <g id="patch_12">
     <path d="
M404.147 334.346
L555.84 334.346
L555.84 245.48
L404.147 245.48
z
" style="fill:#ffffff;stroke:#000000;stroke-linejoin:miter;"/>
    </g>
    <g id="line2d_59">
     <path d="
M414.227 257.142
L434.387 257.142" style="fill:none;stroke:#ff0000;stroke-linecap:square;"/>
    </g>
    <g id="line2d_60"/>
    <g id="text_32">
     <!-- Target - Low -->
     <defs>
      <path d="
M4.20312 54.6875
L13.1875 54.6875
L24.4219 12.0156
L35.5938 54.6875
L46.1875 54.6875
L57.4219 12.0156
L68.6094 54.6875
L77.5938 54.6875
L63.2812 0
L52.6875 0
L40.9219 44.8281
L29.1094 0
L18.5 0
z
" id="BitstreamVeraSans-Roman-77"/>
      <path d="
M9.8125 72.9062
L19.6719 72.9062
L19.6719 8.29688
L55.1719 8.29688
L55.1719 0
L9.8125 0
z
" id="BitstreamVeraSans-Roman-4c"/>
      <path d="
M4.89062 31.3906
L31.2031 31.3906
L31.2031 23.3906
L4.89062 23.3906
z
" id="BitstreamVeraSans-Roman-2d"/>
     </defs>
     <g transform="translate(450.22725 262.18175)scale(0.144 -0.144)">
      <use xlink:href="#BitstreamVeraSans-Roman-54"/>
      <use x="44.583984375" xlink:href="#BitstreamVeraSans-Roman-61"/>
      <use x="105.86328125" xlink:href="#BitstreamVeraSans-Roman-72"/>
      <use x="145.2265625" xlink:href="#BitstreamVeraSans-Roman-67"/>
      <use x="208.703125" xlink:href="#BitstreamVeraSans-Roman-65"/>
      <use x="270.2265625" xlink:href="#BitstreamVeraSans-Roman-74"/>
      <use x="309.435546875" xlink:href="#BitstreamVeraSans-Roman-20"/>
      <use x="341.22265625" xlink:href="#BitstreamVeraSans-Roman-2d"/>
      <use x="377.306640625" xlink:href="#BitstreamVeraSans-Roman-20"/>
      <use x="409.09375" xlink:href="#BitstreamVeraSans-Roman-4c"/>
      <use x="463.056640625" xlink:href="#BitstreamVeraSans-Roman-6f"/>
      <use x="524.23828125" xlink:href="#BitstreamVeraSans-Roman-77"/>
     </g>
    </g>
    <g id="line2d_61">
     <path d="
M414.227 278.278
L434.387 278.278" style="fill:none;stroke:#ff0000;stroke-dasharray:6.000000,6.000000;stroke-dashoffset:0.0;"/>
    </g>
    <g id="line2d_62"/>
    <g id="text_33">
     <!-- Reward - Low -->
     <defs>
      <path d="
M45.4062 46.3906
L45.4062 75.9844
L54.3906 75.9844
L54.3906 0
L45.4062 0
L45.4062 8.20312
Q42.5781 3.32812 38.25 0.953125
Q33.9375 -1.42188 27.875 -1.42188
Q17.9688 -1.42188 11.7344 6.48438
Q5.51562 14.4062 5.51562 27.2969
Q5.51562 40.1875 11.7344 48.0938
Q17.9688 56 27.875 56
Q33.9375 56 38.25 53.625
Q42.5781 51.2656 45.4062 46.3906
M14.7969 27.2969
Q14.7969 17.3906 18.875 11.75
Q22.9531 6.10938 30.0781 6.10938
Q37.2031 6.10938 41.2969 11.75
Q45.4062 17.3906 45.4062 27.2969
Q45.4062 37.2031 41.2969 42.8438
Q37.2031 48.4844 30.0781 48.4844
Q22.9531 48.4844 18.875 42.8438
Q14.7969 37.2031 14.7969 27.2969" id="BitstreamVeraSans-Roman-64"/>
     </defs>
     <g transform="translate(450.22725 283.31825)scale(0.144 -0.144)">
      <use xlink:href="#BitstreamVeraSans-Roman-52"/>
      <use x="64.982421875" xlink:href="#BitstreamVeraSans-Roman-65"/>
      <use x="126.505859375" xlink:href="#BitstreamVeraSans-Roman-77"/>
      <use x="208.29296875" xlink:href="#BitstreamVeraSans-Roman-61"/>
      <use x="269.572265625" xlink:href="#BitstreamVeraSans-Roman-72"/>
      <use x="308.935546875" xlink:href="#BitstreamVeraSans-Roman-64"/>
      <use x="372.412109375" xlink:href="#BitstreamVeraSans-Roman-20"/>
      <use x="404.19921875" xlink:href="#BitstreamVeraSans-Roman-2d"/>
      <use x="440.283203125" xlink:href="#BitstreamVeraSans-Roman-20"/>
      <use x="472.0703125" xlink:href="#BitstreamVeraSans-Roman-4c"/>
      <use x="526.033203125" xlink:href="#BitstreamVeraSans-Roman-6f"/>
      <use x="587.21484375" xlink:href="#BitstreamVeraSans-Roman-77"/>
     </g>
    </g>
    <g id="line2d_63">
     <path d="
M414.227 299.415
L434.387 299.415" style="fill:none;stroke:#0000ff;stroke-linecap:square;"/>
    </g>
    <g id="line2d_64"/>
    <g id="text_34">
     <!-- Target - High -->
     <defs>
      <path d="
M54.8906 33.0156
L54.8906 0
L45.9062 0
L45.9062 32.7188
Q45.9062 40.4844 42.875 44.3281
Q39.8438 48.1875 33.7969 48.1875
Q26.5156 48.1875 22.3125 43.5469
Q18.1094 38.9219 18.1094 30.9062
L18.1094 0
L9.07812 0
L9.07812 75.9844
L18.1094 75.9844
L18.1094 46.1875
Q21.3438 51.125 25.7031 53.5625
Q30.0781 56 35.7969 56
Q45.2188 56 50.0469 50.1719
Q54.8906 44.3438 54.8906 33.0156" id="BitstreamVeraSans-Roman-68"/>
      <path d="
M9.8125 72.9062
L19.6719 72.9062
L19.6719 43.0156
L55.5156 43.0156
L55.5156 72.9062
L65.375 72.9062
L65.375 0
L55.5156 0
L55.5156 34.7188
L19.6719 34.7188
L19.6719 0
L9.8125 0
z
" id="BitstreamVeraSans-Roman-48"/>
     </defs>
     <g transform="translate(450.22725 304.45475)scale(0.144 -0.144)">
      <use xlink:href="#BitstreamVeraSans-Roman-54"/>
      <use x="44.583984375" xlink:href="#BitstreamVeraSans-Roman-61"/>
      <use x="105.86328125" xlink:href="#BitstreamVeraSans-Roman-72"/>
      <use x="145.2265625" xlink:href="#BitstreamVeraSans-Roman-67"/>
      <use x="208.703125" xlink:href="#BitstreamVeraSans-Roman-65"/>
      <use x="270.2265625" xlink:href="#BitstreamVeraSans-Roman-74"/>
      <use x="309.435546875" xlink:href="#BitstreamVeraSans-Roman-20"/>
      <use x="341.22265625" xlink:href="#BitstreamVeraSans-Roman-2d"/>
      <use x="377.306640625" xlink:href="#BitstreamVeraSans-Roman-20"/>
      <use x="409.09375" xlink:href="#BitstreamVeraSans-Roman-48"/>
      <use x="484.2890625" xlink:href="#BitstreamVeraSans-Roman-69"/>
      <use x="512.072265625" xlink:href="#BitstreamVeraSans-Roman-67"/>
      <use x="575.548828125" xlink:href="#BitstreamVeraSans-Roman-68"/>
     </g>
    </g>
    <g id="line2d_65">
     <path d="
M414.227 320.551
L434.387 320.551" style="fill:none;stroke:#0000ff;stroke-dasharray:6.000000,6.000000;stroke-dashoffset:0.0;"/>
    </g>
    <g id="line2d_66"/>
    <g id="text_35">
     <!-- Reward - High -->
     <g transform="translate(450.22725 325.59125)scale(0.144 -0.144)">
      <use xlink:href="#BitstreamVeraSans-Roman-52"/>
      <use x="64.982421875" xlink:href="#BitstreamVeraSans-Roman-65"/>
      <use x="126.505859375" xlink:href="#BitstreamVeraSans-Roman-77"/>
      <use x="208.29296875" xlink:href="#BitstreamVeraSans-Roman-61"/>
      <use x="269.572265625" xlink:href="#BitstreamVeraSans-Roman-72"/>
      <use x="308.935546875" xlink:href="#BitstreamVeraSans-Roman-64"/>
      <use x="372.412109375" xlink:href="#BitstreamVeraSans-Roman-20"/>
      <use x="404.19921875" xlink:href="#BitstreamVeraSans-Roman-2d"/>
      <use x="440.283203125" xlink:href="#BitstreamVeraSans-Roman-20"/>
      <use x="472.0703125" xlink:href="#BitstreamVeraSans-Roman-48"/>
      <use x="547.265625" xlink:href="#BitstreamVeraSans-Roman-69"/>
      <use x="575.048828125" xlink:href="#BitstreamVeraSans-Roman-67"/>
      <use x="638.525390625" xlink:href="#BitstreamVeraSans-Roman-68"/>
     </g>
    </g>
   </g>
  </g>
 </g>
 <defs>
  <clipPath id="peed5fb745c">
   <rect height="146.56" width="511.014375" x="52.025625" y="238.28"/>
  </clipPath>
  <clipPath id="pbf832bf3cd">
   <rect height="146.56" width="511.014375" x="52.025625" y="28.76"/>
  </clipPath>
 </defs>
</svg>
