<?xml version="1.0" encoding="utf-8"?>
<!-- Generator: Adobe Illustrator 19.1.0, SVG Export Plug-In . SVG Version: 6.00 Build 0)  -->
<svg version="1.1" id="Layer_1" xmlns="http://www.w3.org/2000/svg" xmlns:xlink="http://www.w3.org/1999/xlink" x="0px" y="0px"
	 viewBox="-107 91 576 432" style="enable-background:new -107 91 576 432;" xml:space="preserve">
<style type="text/css">
	.st0{fill:#FFFFFF;}
	.st1{clip-path:url(#SVGID_2_);}
	.st2{fill:#0000FF;fill-opacity:0.5;stroke:#000000;stroke-width:0.1;stroke-linejoin:round;stroke-opacity:0.5;}
	.st3{clip-path:url(#SVGID_4_);}
	.st4{fill:#FF0000;fill-opacity:0.5;stroke:#000000;stroke-width:0.1;stroke-linejoin:round;stroke-opacity:0.5;}
	.st5{clip-path:url(#SVGID_6_);}
	.st6{fill:#808080;fill-opacity:0.5;stroke:#000000;stroke-width:0.1;stroke-linejoin:round;stroke-opacity:0.5;}
	.st7{clip-path:url(#SVGID_8_);fill:none;stroke:#0000FF;stroke-linecap:square;stroke-linejoin:round;}
	.st8{clip-path:url(#SVGID_10_);fill:none;stroke:#0000FF;stroke-linejoin:round;stroke-dasharray:6,6;}
	.st9{clip-path:url(#SVGID_12_);fill:none;stroke:#FF0000;stroke-linecap:square;stroke-linejoin:round;}
	.st10{clip-path:url(#SVGID_14_);fill:none;stroke:#FF0000;stroke-linejoin:round;stroke-dasharray:6,6;}
	.st11{clip-path:url(#SVGID_16_);fill:none;stroke:#000000;stroke-linecap:square;stroke-linejoin:round;}
	.st12{clip-path:url(#SVGID_18_);fill:none;stroke:#000000;stroke-linejoin:round;stroke-dasharray:6,6;}
	.st13{fill:none;stroke:#000000;stroke-linecap:square;}
	.st14{stroke:#000000;stroke-width:0.5;stroke-linejoin:round;}
	.st15{fill:#FFFFFF;stroke:#000000;}
	.st16{fill:none;stroke:#0000FF;stroke-linecap:square;stroke-linejoin:round;}
	.st17{fill:none;stroke:#FF0000;stroke-linecap:square;stroke-linejoin:round;}
	.st18{fill:none;stroke:#000000;stroke-linecap:square;stroke-linejoin:round;}
</style>
<g id="patch_1">
	<path class="st0" d="M-107,523h576V91h-576V523z"/>
</g>
<g id="patch_2">
	<path class="st0" d="M-35,479.8h446.4V134.2H-35V479.8z"/>
</g>
<g id="PolyCollection_1">
	<g>
		<defs>
			<rect id="SVGID_1_" x="-35" y="134.2" width="446.4" height="345.6"/>
		</defs>
		<clipPath id="SVGID_2_">
			<use xlink:href="#SVGID_1_"  style="overflow:visible;"/>
		</clipPath>
		<g class="st1">
			<g>
				<path id="ma09830b6a8" class="st2" d="M177.3,479.8v-77.2l8.5-78.1l8.5-95.5l8.5-8.5l8.5,34.4v224.9l0,0h-8.5h-8.5h-8.5H177.3z"
					/>
			</g>
		</g>
	</g>
</g>
<g id="PolyCollection_2">
	<g>
		<defs>
			<rect id="SVGID_3_" x="-35" y="134.2" width="446.4" height="345.6"/>
		</defs>
		<clipPath id="SVGID_4_">
			<use xlink:href="#SVGID_3_"  style="overflow:visible;"/>
		</clipPath>
		<g class="st3">
			<g>
				<path id="m2f35e88b5c" class="st4" d="M178,479.8v-75.1l9.5-79.7l9.5-98.7l9.5-38l9.5,92.8v198.7l0,0h-9.5H197h-9.5H178z"/>
			</g>
		</g>
	</g>
</g>
<g id="PolyCollection_3">
	<g>
		<defs>
			<rect id="SVGID_5_" x="-35" y="134.2" width="446.4" height="345.6"/>
		</defs>
		<clipPath id="SVGID_6_">
			<use xlink:href="#SVGID_5_"  style="overflow:visible;"/>
		</clipPath>
		<g class="st5">
			<g>
				<path id="mac97740a8a" class="st6" d="M180.7,479.8v-77.7l9-84l9-101.5l9-15.9l9,88.2v190.9l0,0h-9h-9h-9H180.7z"/>
			</g>
		</g>
	</g>
</g>
<g id="line2d_1">
	<g>
		<defs>
			<rect id="SVGID_7_" x="-35" y="134.2" width="446.4" height="345.6"/>
		</defs>
		<clipPath id="SVGID_8_">
			<use xlink:href="#SVGID_7_"  style="overflow:visible;"/>
		</clipPath>
		<path class="st7" d="M32.9,479.8h8.5h8.5l8.5-3.5l8.5,3l8.5,0.2l8.5,0.1l8.5,0l8.5,0l8.5,0l8.5,0l8.5,0l8.5,0l8.5,0l8.5-0.6
			l8.5-15.9l8.5-15.8l8.5-44.7l8.5-78.1l8.5-95.5l8.5-8.5l8.5,34.4l8.5,127l8.5,76.3l8.5,16.2l8.5,2.9l8.5,1.5l8.5,0.8l8.5,0.1h8.5
			h8.5h8.5h8.5h8.5h8.5h8.5h8.5h8.5h8.5"/>
	</g>
</g>
<g id="line2d_2">
	<g>
		<defs>
			<rect id="SVGID_9_" x="-35" y="134.2" width="446.4" height="345.6"/>
		</defs>
		<clipPath id="SVGID_10_">
			<use xlink:href="#SVGID_9_"  style="overflow:visible;"/>
		</clipPath>
		<path class="st8" d="M194.3,479.8V229"/>
	</g>
</g>
<g id="line2d_3">
	<g>
		<defs>
			<rect id="SVGID_11_" x="-35" y="134.2" width="446.4" height="345.6"/>
		</defs>
		<clipPath id="SVGID_12_">
			<use xlink:href="#SVGID_11_"  style="overflow:visible;"/>
		</clipPath>
		<path class="st9" d="M16.2,479.8h9.5h9.5h9.5l9.5-3.8l9.5,2.8l9.5,0.4l9.5,0.1l9.5,0.1l9.5,0l9.5,0l9.5,0h9.5l9.5,0l9.5,0
			l9.5-13.7l9.5-18.6l9.5-42.6l9.5-79.7l9.5-98.7l9.5-38l9.5,92.8l9.5,125.1l9.5,38.3l9.5,21.9l9.5,11.6l9.5,1.7l9.5,0h9.5h9.5h9.5
			h9.5h9.5h9.5h9.5h9.5h9.5h9.5h9.5"/>
	</g>
</g>
<g id="line2d_4">
	<g>
		<defs>
			<rect id="SVGID_13_" x="-35" y="134.2" width="446.4" height="345.6"/>
		</defs>
		<clipPath id="SVGID_14_">
			<use xlink:href="#SVGID_13_"  style="overflow:visible;"/>
		</clipPath>
		<path class="st10" d="M197,479.8V226.3"/>
	</g>
</g>
<g id="line2d_5">
	<g>
		<defs>
			<rect id="SVGID_15_" x="-35" y="134.2" width="446.4" height="345.6"/>
		</defs>
		<clipPath id="SVGID_16_">
			<use xlink:href="#SVGID_15_"  style="overflow:visible;"/>
		</clipPath>
		<path class="st11" d="M27.3,479.8h9h9l9-2.7l9,2l9,0.3l9,0.1l9,0l9,0l9,0l9,0l9,0l9,0l9,0l9-3.7l9-9.4l9-15.1l9-49.3l9-84l9-101.5
			l9-15.9l9,88.2l9,108.9l9,56.2l9,15.2l9,5l9,2.6l9,2.2l9,0.7l9,0.1l9,0h9h9h9h9h9h9h9h9"/>
	</g>
</g>
<g id="line2d_6">
	<g>
		<defs>
			<rect id="SVGID_17_" x="-35" y="134.2" width="446.4" height="345.6"/>
		</defs>
		<clipPath id="SVGID_18_">
			<use xlink:href="#SVGID_17_"  style="overflow:visible;"/>
		</clipPath>
		<path class="st12" d="M198.7,479.8V216.6"/>
	</g>
</g>
<g id="patch_3">
	<path class="st13" d="M-35,134.2h446.4"/>
</g>
<g id="patch_4">
	<path class="st13" d="M411.4,479.8V134.2"/>
</g>
<g id="patch_5">
	<path class="st13" d="M-35,479.8h446.4"/>
</g>
<g id="patch_6">
	<path class="st13" d="M-35,479.8V134.2"/>
</g>
<g id="matplotlib.axis_1">
	<g id="xtick_1">
		<g id="line2d_7">
			<g>
				<g>
					<path id="m93b0483c22" class="st14" d="M-35,479.8v-4"/>
				</g>
			</g>
		</g>
		<g id="line2d_8">
			<g>
				<g>
					<path id="m741efc42ff" class="st14" d="M-35,134.2v4"/>
				</g>
			</g>
		</g>
		<g id="text_1">
			<g transform="translate(58.59 401.918125)scale(0.12 -0.12)">
				<g>
					<path id="BitstreamVeraSans-Roman-2212" d="M-881.1-722.8h62.6v-8.3h-62.6V-722.8z"/>
				</g>
				<g>
					<path id="BitstreamVeraSans-Roman-30" d="M-776.1-691.9c-5.1,0-8.9-2.5-11.5-7.5c-2.6-5-3.8-12.5-3.8-22.5
						c0-10,1.3-17.5,3.8-22.5c2.6-5,6.4-7.5,11.5-7.5c5.1,0,8.9,2.5,11.5,7.5c2.6,5,3.8,12.5,3.8,22.5c0,10-1.3,17.5-3.8,22.5
						C-767.1-694.4-771-691.9-776.1-691.9 M-776.1-684.1c8.2,0,14.4-3.2,18.7-9.7c4.3-6.5,6.5-15.8,6.5-28.1
						c0-12.3-2.2-21.6-6.5-28.1c-4.3-6.5-10.6-9.7-18.7-9.7c-8.2,0-14.4,3.2-18.7,9.7c-4.3,6.5-6.5,15.8-6.5,28.1
						c0,12.3,2.2,21.7,6.5,28.1C-790.5-687.3-784.3-684.1-776.1-684.1"/>
				</g>
				<g>
					<path id="BitstreamVeraSans-Roman-2e" d="M-733.6-745.9h10.3v-12.4h-10.3V-745.9z"/>
				</g>
				<g>
					<path id="BitstreamVeraSans-Roman-35" d="M-701.7-685.4h38.7v-8.3h-29.7v-17.9c1.4,0.5,2.9,0.9,4.3,1.1
						c1.4,0.2,2.9,0.4,4.3,0.4c8.1,0,14.6-2.2,19.3-6.7c4.8-4.5,7.1-10.5,7.1-18.1c0-7.8-2.4-13.9-7.3-18.3
						c-4.9-4.3-11.8-6.5-20.7-6.5c-3.1,0-6.2,0.3-9.4,0.8c-3.2,0.5-6.4,1.3-9.8,2.3v9.9c2.9-1.6,6-2.8,9.1-3.6s6.4-1.2,9.9-1.2
						c5.6,0,10.1,1.5,13.4,4.4c3.3,3,4.9,7,4.9,12.1c0,5.1-1.6,9.1-4.9,12c-3.3,3-7.7,4.5-13.4,4.5c-2.6,0-5.3-0.3-7.9-0.9
						c-2.6-0.6-5.3-1.5-8-2.7V-685.4z"/>
				</g>
			</g>
		</g>
	</g>
	<g id="xtick_2">
		<g id="line2d_9">
			<g>
				<g>
					<path id="m93b0483c22_1_" class="st14" d="M54.3,479.8v-4"/>
				</g>
			</g>
		</g>
		<g id="line2d_10">
			<g>
				<g>
					<path id="m741efc42ff_1_" class="st14" d="M54.3,134.2v4"/>
				</g>
			</g>
		</g>
		<g id="text_2">
			<g transform="translate(152.5321875 401.918125)scale(0.12 -0.12)">
				<g>
					<path id="BitstreamVeraSans-Roman-30_1_" d="M-859.9-691.9c-5.1,0-8.9-2.5-11.5-7.5c-2.6-5-3.8-12.5-3.8-22.5
						c0-10,1.3-17.5,3.8-22.5c2.6-5,6.4-7.5,11.5-7.5c5.1,0,8.9,2.5,11.5,7.5c2.6,5,3.8,12.5,3.8,22.5c0,10-1.3,17.5-3.8,22.5
						C-850.9-694.4-854.8-691.9-859.9-691.9 M-859.9-684.1c8.2,0,14.4-3.2,18.7-9.7c4.3-6.5,6.5-15.8,6.5-28.1
						c0-12.3-2.2-21.6-6.5-28.1c-4.3-6.5-10.6-9.7-18.7-9.7c-8.2,0-14.4,3.2-18.7,9.7c-4.3,6.5-6.5,15.8-6.5,28.1
						c0,12.3,2.2,21.7,6.5,28.1C-874.3-687.3-868.1-684.1-859.9-684.1"/>
				</g>
				<g>
					<path id="BitstreamVeraSans-Roman-2e_1_" d="M-817.4-745.9h10.3v-12.4h-10.3V-745.9z"/>
				</g>
				<g>
					<path id="BitstreamVeraSans-Roman-30_2_" d="M-764.5-691.9c-5.1,0-8.9-2.5-11.5-7.5c-2.6-5-3.8-12.5-3.8-22.5
						c0-10,1.3-17.5,3.8-22.5c2.6-5,6.4-7.5,11.5-7.5c5.1,0,8.9,2.5,11.5,7.5c2.6,5,3.8,12.5,3.8,22.5c0,10-1.3,17.5-3.8,22.5
						C-755.5-694.4-759.4-691.9-764.5-691.9 M-764.5-684.1c8.2,0,14.4-3.2,18.7-9.7c4.3-6.5,6.5-15.8,6.5-28.1
						c0-12.3-2.2-21.6-6.5-28.1c-4.3-6.5-10.6-9.7-18.7-9.7c-8.2,0-14.4,3.2-18.7,9.7c-4.3,6.5-6.5,15.8-6.5,28.1
						c0,12.3,2.2,21.7,6.5,28.1C-778.9-687.3-772.6-684.1-764.5-684.1"/>
				</g>
			</g>
		</g>
	</g>
	<g id="xtick_3">
		<g id="line2d_11">
			<g>
				<g>
					<path id="m93b0483c22_2_" class="st14" d="M143.6,479.8v-4"/>
				</g>
			</g>
		</g>
		<g id="line2d_12">
			<g>
				<g>
					<path id="m741efc42ff_2_" class="st14" d="M143.6,134.2v4"/>
				</g>
			</g>
		</g>
		<g id="text_3">
			<g transform="translate(241.9378125 401.918125)scale(0.12 -0.12)">
				<g>
					<path id="BitstreamVeraSans-Roman-30_3_" d="M-859.9-691.9c-5.1,0-8.9-2.5-11.5-7.5c-2.6-5-3.8-12.5-3.8-22.5
						c0-10,1.3-17.5,3.8-22.5c2.6-5,6.4-7.5,11.5-7.5c5.1,0,8.9,2.5,11.5,7.5c2.6,5,3.8,12.5,3.8,22.5c0,10-1.3,17.5-3.8,22.5
						C-850.9-694.4-854.8-691.9-859.9-691.9 M-859.9-684.1c8.2,0,14.4-3.2,18.7-9.7c4.3-6.5,6.5-15.8,6.5-28.1
						c0-12.3-2.2-21.6-6.5-28.1c-4.3-6.5-10.6-9.7-18.7-9.7c-8.2,0-14.4,3.2-18.7,9.7c-4.3,6.5-6.5,15.8-6.5,28.1
						c0,12.3,2.2,21.7,6.5,28.1C-874.3-687.3-868.1-684.1-859.9-684.1"/>
				</g>
				<g>
					<path id="BitstreamVeraSans-Roman-2e_2_" d="M-817.4-745.9h10.3v-12.4h-10.3V-745.9z"/>
				</g>
				<g>
					<path id="BitstreamVeraSans-Roman-35_1_" d="M-785.5-685.4h38.7v-8.3h-29.7v-17.9c1.4,0.5,2.9,0.9,4.3,1.1
						c1.4,0.2,2.9,0.4,4.3,0.4c8.1,0,14.6-2.2,19.3-6.7c4.8-4.5,7.1-10.5,7.1-18.1c0-7.8-2.4-13.9-7.3-18.3
						c-4.9-4.3-11.8-6.5-20.7-6.5c-3.1,0-6.2,0.3-9.4,0.8c-3.2,0.5-6.4,1.3-9.8,2.3v9.9c2.9-1.6,6-2.8,9.1-3.6s6.4-1.2,9.9-1.2
						c5.6,0,10.1,1.5,13.4,4.4c3.3,3,4.9,7,4.9,12.1c0,5.1-1.6,9.1-4.9,12c-3.3,3-7.7,4.5-13.4,4.5c-2.6,0-5.3-0.3-7.9-0.9
						c-2.6-0.6-5.3-1.5-8-2.7V-685.4z"/>
				</g>
			</g>
		</g>
	</g>
	<g id="xtick_4">
		<g id="line2d_13">
			<g>
				<g>
					<path id="m93b0483c22_3_" class="st14" d="M232.8,479.8v-4"/>
				</g>
			</g>
		</g>
		<g id="line2d_14">
			<g>
				<g>
					<path id="m741efc42ff_3_" class="st14" d="M232.8,134.2v4"/>
				</g>
			</g>
		</g>
		<g id="text_4">
			<g transform="translate(331.355625 401.918125)scale(0.12 -0.12)">
				<g>
					<path id="BitstreamVeraSans-Roman-31" d="M-879.3-750h16.1v55.6l-17.5-3.5v9l17.4,3.5h9.9V-750h16.1v-8.3h-42V-750z"/>
				</g>
				<g>
					<path id="BitstreamVeraSans-Roman-2e_3_" d="M-817.4-745.9h10.3v-12.4h-10.3V-745.9z"/>
				</g>
				<g>
					<path id="BitstreamVeraSans-Roman-30_4_" d="M-764.5-691.9c-5.1,0-8.9-2.5-11.5-7.5c-2.6-5-3.8-12.5-3.8-22.5
						c0-10,1.3-17.5,3.8-22.5c2.6-5,6.4-7.5,11.5-7.5c5.1,0,8.9,2.5,11.5,7.5c2.6,5,3.8,12.5,3.8,22.5c0,10-1.3,17.5-3.8,22.5
						C-755.5-694.4-759.4-691.9-764.5-691.9 M-764.5-684.1c8.2,0,14.4-3.2,18.7-9.7c4.3-6.5,6.5-15.8,6.5-28.1
						c0-12.3-2.2-21.6-6.5-28.1c-4.3-6.5-10.6-9.7-18.7-9.7c-8.2,0-14.4,3.2-18.7,9.7c-4.3,6.5-6.5,15.8-6.5,28.1
						c0,12.3,2.2,21.7,6.5,28.1C-778.9-687.3-772.6-684.1-764.5-684.1"/>
				</g>
			</g>
		</g>
	</g>
	<g id="xtick_5">
		<g id="line2d_15">
			<g>
				<g>
					<path id="m93b0483c22_4_" class="st14" d="M322.1,479.8v-4"/>
				</g>
			</g>
		</g>
		<g id="line2d_16">
			<g>
				<g>
					<path id="m741efc42ff_4_" class="st14" d="M322.1,134.2v4"/>
				</g>
			</g>
		</g>
		<g id="text_5">
			<g transform="translate(420.76125 401.918125)scale(0.12 -0.12)">
				<g>
					<path id="BitstreamVeraSans-Roman-31_1_" d="M-879.3-750h16.1v55.6l-17.5-3.5v9l17.4,3.5h9.9V-750h16.1v-8.3h-42V-750z"/>
				</g>
				<g>
					<path id="BitstreamVeraSans-Roman-2e_4_" d="M-817.4-745.9h10.3v-12.4h-10.3V-745.9z"/>
				</g>
				<g>
					<path id="BitstreamVeraSans-Roman-35_2_" d="M-785.5-685.4h38.7v-8.3h-29.7v-17.9c1.4,0.5,2.9,0.9,4.3,1.1
						c1.4,0.2,2.9,0.4,4.3,0.4c8.1,0,14.6-2.2,19.3-6.7c4.8-4.5,7.1-10.5,7.1-18.1c0-7.8-2.4-13.9-7.3-18.3
						c-4.9-4.3-11.8-6.5-20.7-6.5c-3.1,0-6.2,0.3-9.4,0.8c-3.2,0.5-6.4,1.3-9.8,2.3v9.9c2.9-1.6,6-2.8,9.1-3.6s6.4-1.2,9.9-1.2
						c5.6,0,10.1,1.5,13.4,4.4c3.3,3,4.9,7,4.9,12.1c0,5.1-1.6,9.1-4.9,12c-3.3,3-7.7,4.5-13.4,4.5c-2.6,0-5.3-0.3-7.9-0.9
						c-2.6-0.6-5.3-1.5-8-2.7V-685.4z"/>
				</g>
			</g>
		</g>
	</g>
	<g id="xtick_6">
		<g id="line2d_17">
			<g>
				<g>
					<path id="m93b0483c22_5_" class="st14" d="M411.4,479.8v-4"/>
				</g>
			</g>
		</g>
		<g id="line2d_18">
			<g>
				<g>
					<path id="m741efc42ff_5_" class="st14" d="M411.4,134.2v4"/>
				</g>
			</g>
		</g>
		<g id="text_6">
			<g transform="translate(509.69625 401.918125)scale(0.12 -0.12)">
				<g>
					<path id="BitstreamVeraSans-Roman-32" d="M-872.5-750h34.4v-8.3h-46.3v8.3c3.7,3.9,8.8,9.1,15.3,15.6
						c6.5,6.5,10.5,10.7,12.2,12.6c3.2,3.5,5.4,6.5,6.6,9c1.3,2.5,1.9,4.9,1.9,7.3c0,3.9-1.4,7-4.1,9.5c-2.7,2.4-6.3,3.7-10.6,3.7
						c-3.1,0-6.4-0.5-9.8-1.6c-3.4-1.1-7.1-2.7-11-4.9v10c4,1.6,7.7,2.8,11.1,3.6c3.5,0.8,6.6,1.2,9.5,1.2c7.6,0,13.6-1.9,18.1-5.7
						c4.5-3.8,6.7-8.8,6.7-15.1c0-3-0.6-5.8-1.7-8.5c-1.1-2.7-3.2-5.8-6.1-9.5c-0.8-0.9-3.4-3.7-7.8-8.2
						C-858.4-735.6-864.5-741.9-872.5-750"/>
				</g>
				<g>
					<path id="BitstreamVeraSans-Roman-2e_5_" d="M-817.4-745.9h10.3v-12.4h-10.3V-745.9z"/>
				</g>
				<g>
					<path id="BitstreamVeraSans-Roman-30_5_" d="M-764.5-691.9c-5.1,0-8.9-2.5-11.5-7.5c-2.6-5-3.8-12.5-3.8-22.5
						c0-10,1.3-17.5,3.8-22.5c2.6-5,6.4-7.5,11.5-7.5c5.1,0,8.9,2.5,11.5,7.5c2.6,5,3.8,12.5,3.8,22.5c0,10-1.3,17.5-3.8,22.5
						C-755.5-694.4-759.4-691.9-764.5-691.9 M-764.5-684.1c8.2,0,14.4-3.2,18.7-9.7c4.3-6.5,6.5-15.8,6.5-28.1
						c0-12.3-2.2-21.6-6.5-28.1c-4.3-6.5-10.6-9.7-18.7-9.7c-8.2,0-14.4,3.2-18.7,9.7c-4.3,6.5-6.5,15.8-6.5,28.1
						c0,12.3,2.2,21.7,6.5,28.1C-778.9-687.3-772.6-684.1-764.5-684.1"/>
				</g>
			</g>
		</g>
	</g>
	<g id="text_7">
		<g transform="translate(252.620625 418.531875)scale(0.12 -0.12)">
			<g>
				<path id="BitstreamVeraSans-Roman-44" d="M-872-693.5v-56.7h11.9c10.1,0,17.4,2.3,22.1,6.8c4.7,4.6,7,11.8,7,21.6
					c0,9.8-2.3,16.9-7,21.5c-4.7,4.5-12,6.8-22.1,6.8H-872z M-881.9-685.4h20.3c14.1,0,24.5-2.9,31.1-8.8c6.6-5.9,9.9-15.1,9.9-27.6
					c0-12.6-3.3-21.8-10-27.7c-6.6-5.9-17-8.8-31-8.8h-20.3V-685.4z"/>
			</g>
			<g>
				<path id="BitstreamVeraSans-Roman-69" d="M-805.2-703.6h9v-54.7h-9V-703.6z M-805.2-682.3h9v-11.4h-9V-682.3z"/>
			</g>
			<g>
				<path id="BitstreamVeraSans-Roman-61" d="M-752.6-730.8c-7.3,0-12.3-0.8-15.1-2.5c-2.8-1.7-4.2-4.5-4.2-8.5
					c0-3.2,1.1-5.7,3.2-7.6c2.1-1.9,5-2.8,8.6-2.8c5,0,9,1.8,12,5.3s4.5,8.2,4.5,14.1v2H-752.6z M-734.7-727.1v-31.2h-9v8.3
					c-2.1-3.3-4.6-5.8-7.7-7.3c-3.1-1.6-6.8-2.4-11.2-2.4c-5.6,0-10,1.6-13.4,4.7c-3.3,3.1-5,7.4-5,12.6c0,6.1,2.1,10.8,6.2,13.9
					c4.1,3.1,10.3,4.7,18.4,4.7h12.6v0.9c0,4.1-1.4,7.3-4.1,9.6c-2.7,2.3-6.5,3.4-11.5,3.4c-3.1,0-6.2-0.4-9.1-1.1
					c-3-0.8-5.8-1.9-8.5-3.4v8.3c3.3,1.3,6.5,2.2,9.6,2.8c3.1,0.6,6.1,1,9,1c7.9,0,13.8-2.1,17.7-6.2
					C-736.6-712.6-734.7-718.8-734.7-727.1"/>
			</g>
			<g>
				<path id="BitstreamVeraSans-Roman-6d" d="M-673.6-714.1c2.3,4,4.9,7,8.1,8.9c3.1,1.9,6.8,2.9,11,2.9c5.7,0,10.1-2,13.2-6
					c3.1-4,4.6-9.6,4.6-17v-33h-9v32.7c0,5.2-0.9,9.1-2.8,11.7c-1.9,2.5-4.7,3.8-8.5,3.8c-4.7,0-8.3-1.5-11-4.6
					c-2.7-3.1-4-7.3-4-12.6v-30.9h-9v32.7c0,5.3-0.9,9.2-2.8,11.7c-1.9,2.5-4.7,3.8-8.6,3.8c-4.6,0-8.2-1.6-11-4.7
					c-2.7-3.1-4-7.3-4-12.6v-30.9h-9v54.7h9v-8.5c2.1,3.4,4.5,5.8,7.4,7.4c2.9,1.6,6.3,2.4,10.2,2.4c4,0,7.4-1,10.1-3
					C-677-707.4-674.9-710.3-673.6-714.1"/>
			</g>
			<g>
				<path id="BitstreamVeraSans-Roman-65" d="M-572-728.7v-4.4h-41.3c0.4-6.2,2.3-10.9,5.6-14.1c3.3-3.2,8-4.9,13.9-4.9
					c3.4,0,6.8,0.4,10,1.3s6.5,2.1,9.7,3.8v-8.5c-3.2-1.4-6.5-2.4-9.9-3.1s-6.8-1.1-10.3-1.1c-8.7,0-15.6,2.5-20.7,7.6
					c-5.1,5.1-7.6,12-7.6,20.6c0,8.9,2.4,16,7.3,21.3c4.8,5.3,11.4,7.9,19.6,7.9c7.4,0,13.2-2.4,17.5-7.1
					C-574.1-714.2-572-720.6-572-728.7 M-581-726.1c-0.1,4.9-1.4,8.8-4.1,11.8c-2.7,2.9-6.2,4.4-10.7,4.4c-5,0-9-1.4-12-4.3
					c-3-2.8-4.7-6.8-5.2-12L-581-726.1z"/>
			</g>
			<g>
				<path id="BitstreamVeraSans-Roman-74" d="M-548.4-688.1v-15.5h18.5v-7h-18.5v-29.7c0-4.5,0.6-7.3,1.8-8.6
					c1.2-1.3,3.7-1.9,7.5-1.9h9.2v-7.5h-9.2c-6.9,0-11.7,1.3-14.4,3.9c-2.6,2.6-4,7.3-4,14.1v29.7h-6.6v7h6.6v15.5H-548.4z"/>
			</g>
			<g>
				<path id="BitstreamVeraSans-Roman-65_1_" d="M-471.3-728.7v-4.4h-41.3c0.4-6.2,2.3-10.9,5.6-14.1c3.3-3.2,8-4.9,13.9-4.9
					c3.4,0,6.8,0.4,10,1.3c3.2,0.8,6.5,2.1,9.7,3.8v-8.5c-3.2-1.4-6.5-2.4-9.9-3.1c-3.4-0.7-6.8-1.1-10.3-1.1
					c-8.7,0-15.6,2.5-20.7,7.6c-5.1,5.1-7.6,12-7.6,20.6c0,8.9,2.4,16,7.3,21.3c4.8,5.3,11.4,7.9,19.6,7.9c7.4,0,13.2-2.4,17.5-7.1
					C-473.4-714.2-471.3-720.6-471.3-728.7 M-480.2-726.1c-0.1,4.9-1.4,8.8-4.1,11.8c-2.7,2.9-6.2,4.4-10.7,4.4c-5,0-9-1.4-12-4.3
					c-3-2.8-4.7-6.8-5.2-12L-480.2-726.1z"/>
			</g>
			<g>
				<path id="BitstreamVeraSans-Roman-72" d="M-424.8-712c-1,0.6-2.1,1-3.3,1.3c-1.2,0.3-2.5,0.4-3.9,0.4c-5.1,0-9-1.7-11.7-5
					c-2.7-3.3-4.1-8-4.1-14.2v-28.8h-9v54.7h9v-8.5c1.9,3.3,4.4,5.8,7.4,7.4c3,1.6,6.7,2.4,11,2.4c0.6,0,1.3,0,2-0.1
					c0.8-0.1,1.6-0.2,2.5-0.4L-424.8-712z"/>
			</g>
			<g>
				<path id="BitstreamVeraSans-Roman-20" d="M-424.8-758.3"/>
			</g>
			<g>
				<path id="BitstreamVeraSans-Roman-28" d="M-362-682.5c-4.4-7.5-7.6-14.9-9.7-22.2c-2.1-7.3-3.2-14.7-3.2-22.3
					c0-7.5,1.1-15,3.2-22.3s5.4-14.8,9.7-22.3h-7.8c-4.9,7.7-8.5,15.2-11,22.6c-2.4,7.4-3.6,14.7-3.6,22c0,7.3,1.2,14.6,3.6,21.9
					c2.4,7.4,6.1,14.9,11,22.6H-362z"/>
			</g>
			<g>
				<path id="BitstreamVeraSans-Roman-41" d="M-319.8-695.1l-13.4-36.3h26.8L-319.8-695.1z M-325.4-685.4h11.2l27.8-72.9h-10.3
					l-6.6,18.7h-32.9l-6.6-18.7h-10.4L-325.4-685.4z"/>
			</g>
			<g>
				<path id="BitstreamVeraSans-Roman-55" d="M-276.9-685.4h9.9v-44.3c0-7.8,1.4-13.4,4.2-16.9c2.8-3.4,7.4-5.1,13.8-5.1
					c6.3,0,10.9,1.7,13.7,5.1c2.8,3.4,4.3,9.1,4.3,16.9v44.3h9.9v-45.5c0-9.5-2.4-16.7-7.1-21.5c-4.7-4.9-11.6-7.3-20.8-7.3
					c-9.2,0-16.2,2.4-20.9,7.3c-4.7,4.9-7,12-7,21.5V-685.4z"/>
			</g>
			<g>
				<path id="BitstreamVeraSans-Roman-29" d="M-204.4-682.5h7.8c4.9-7.7,8.5-15.2,11-22.6c2.4-7.4,3.6-14.7,3.6-21.9
					c0-7.3-1.2-14.6-3.6-22c-2.4-7.4-6.1-14.9-11-22.6h-7.8c4.3,7.5,7.6,14.9,9.7,22.3c2.1,7.4,3.2,14.8,3.2,22.3
					c0,7.5-1.1,14.9-3.2,22.3C-196.9-697.3-200.1-689.9-204.4-682.5"/>
			</g>
		</g>
	</g>
</g>
<g id="matplotlib.axis_2">
	<g id="ytick_1">
		<g id="line2d_19">
			<g>
				<g>
					<path id="m728421d6d4" class="st14" d="M-35,479.8h4"/>
				</g>
			</g>
		</g>
		<g id="line2d_20">
			<g>
				<g>
					<path id="mcb0005524f" class="st14" d="M411.4,479.8h-4"/>
				</g>
			</g>
		</g>
		<g id="text_8">
			<g transform="translate(42.869375 392.11125)scale(0.12 -0.12)">
				<g>
					<path id="BitstreamVeraSans-Roman-30_6_" d="M-859.9-691.9c-5.1,0-8.9-2.5-11.5-7.5c-2.6-5-3.8-12.5-3.8-22.5
						c0-10,1.3-17.5,3.8-22.5c2.6-5,6.4-7.5,11.5-7.5c5.1,0,8.9,2.5,11.5,7.5c2.6,5,3.8,12.5,3.8,22.5c0,10-1.3,17.5-3.8,22.5
						C-850.9-694.4-854.8-691.9-859.9-691.9 M-859.9-684.1c8.2,0,14.4-3.2,18.7-9.7c4.3-6.5,6.5-15.8,6.5-28.1
						c0-12.3-2.2-21.6-6.5-28.1c-4.3-6.5-10.6-9.7-18.7-9.7c-8.2,0-14.4,3.2-18.7,9.7c-4.3,6.5-6.5,15.8-6.5,28.1
						c0,12.3,2.2,21.7,6.5,28.1C-874.3-687.3-868.1-684.1-859.9-684.1"/>
				</g>
				<g>
					<path id="BitstreamVeraSans-Roman-2e_6_" d="M-817.4-745.9h10.3v-12.4h-10.3V-745.9z"/>
				</g>
				<g>
					<path id="BitstreamVeraSans-Roman-30_7_" d="M-764.5-691.9c-5.1,0-8.9-2.5-11.5-7.5c-2.6-5-3.8-12.5-3.8-22.5
						c0-10,1.3-17.5,3.8-22.5c2.6-5,6.4-7.5,11.5-7.5c5.1,0,8.9,2.5,11.5,7.5c2.6,5,3.8,12.5,3.8,22.5c0,10-1.3,17.5-3.8,22.5
						C-755.5-694.4-759.4-691.9-764.5-691.9 M-764.5-684.1c8.2,0,14.4-3.2,18.7-9.7c4.3-6.5,6.5-15.8,6.5-28.1
						c0-12.3-2.2-21.6-6.5-28.1c-4.3-6.5-10.6-9.7-18.7-9.7c-8.2,0-14.4,3.2-18.7,9.7c-4.3,6.5-6.5,15.8-6.5,28.1
						c0,12.3,2.2,21.7,6.5,28.1C-778.9-687.3-772.6-684.1-764.5-684.1"/>
				</g>
				<g>
					<path id="BitstreamVeraSans-Roman-30_8_" d="M-700.9-691.9c-5.1,0-8.9-2.5-11.5-7.5c-2.6-5-3.8-12.5-3.8-22.5
						c0-10,1.3-17.5,3.8-22.5c2.6-5,6.4-7.5,11.5-7.5c5.1,0,8.9,2.5,11.5,7.5c2.6,5,3.8,12.5,3.8,22.5c0,10-1.3,17.5-3.8,22.5
						C-691.9-694.4-695.7-691.9-700.9-691.9 M-700.9-684.1c8.2,0,14.4-3.2,18.7-9.7c4.3-6.5,6.5-15.8,6.5-28.1
						c0-12.3-2.2-21.6-6.5-28.1c-4.3-6.5-10.6-9.7-18.7-9.7c-8.2,0-14.4,3.2-18.7,9.7c-4.3,6.5-6.5,15.8-6.5,28.1
						c0,12.3,2.2,21.7,6.5,28.1C-715.3-687.3-709-684.1-700.9-684.1"/>
				</g>
			</g>
		</g>
	</g>
	<g id="ytick_2">
		<g id="line2d_21">
			<g>
				<g>
					<path id="m728421d6d4_1_" class="st14" d="M-35,422.2h4"/>
				</g>
			</g>
		</g>
		<g id="line2d_22">
			<g>
				<g>
					<path id="mcb0005524f_1_" class="st14" d="M411.4,422.2h-4"/>
				</g>
			</g>
		</g>
		<g id="text_9">
			<g transform="translate(43.120625 334.51125)scale(0.12 -0.12)">
				<g>
					<path id="BitstreamVeraSans-Roman-30_9_" d="M-859.9-691.9c-5.1,0-8.9-2.5-11.5-7.5c-2.6-5-3.8-12.5-3.8-22.5
						c0-10,1.3-17.5,3.8-22.5c2.6-5,6.4-7.5,11.5-7.5c5.1,0,8.9,2.5,11.5,7.5c2.6,5,3.8,12.5,3.8,22.5c0,10-1.3,17.5-3.8,22.5
						C-850.9-694.4-854.8-691.9-859.9-691.9 M-859.9-684.1c8.2,0,14.4-3.2,18.7-9.7c4.3-6.5,6.5-15.8,6.5-28.1
						c0-12.3-2.2-21.6-6.5-28.1c-4.3-6.5-10.6-9.7-18.7-9.7c-8.2,0-14.4,3.2-18.7,9.7c-4.3,6.5-6.5,15.8-6.5,28.1
						c0,12.3,2.2,21.7,6.5,28.1C-874.3-687.3-868.1-684.1-859.9-684.1"/>
				</g>
				<g>
					<path id="BitstreamVeraSans-Roman-2e_7_" d="M-817.4-745.9h10.3v-12.4h-10.3V-745.9z"/>
				</g>
				<g>
					<path id="BitstreamVeraSans-Roman-30_10_" d="M-764.5-691.9c-5.1,0-8.9-2.5-11.5-7.5c-2.6-5-3.8-12.5-3.8-22.5
						c0-10,1.3-17.5,3.8-22.5c2.6-5,6.4-7.5,11.5-7.5c5.1,0,8.9,2.5,11.5,7.5c2.6,5,3.8,12.5,3.8,22.5c0,10-1.3,17.5-3.8,22.5
						C-755.5-694.4-759.4-691.9-764.5-691.9 M-764.5-684.1c8.2,0,14.4-3.2,18.7-9.7c4.3-6.5,6.5-15.8,6.5-28.1
						c0-12.3-2.2-21.6-6.5-28.1c-4.3-6.5-10.6-9.7-18.7-9.7c-8.2,0-14.4,3.2-18.7,9.7c-4.3,6.5-6.5,15.8-6.5,28.1
						c0,12.3,2.2,21.7,6.5,28.1C-778.9-687.3-772.6-684.1-764.5-684.1"/>
				</g>
				<g>
					<path id="BitstreamVeraSans-Roman-35_3_" d="M-721.8-685.4h38.7v-8.3h-29.7v-17.9c1.4,0.5,2.9,0.9,4.3,1.1
						c1.4,0.2,2.9,0.4,4.3,0.4c8.1,0,14.6-2.2,19.3-6.7c4.8-4.5,7.1-10.5,7.1-18.1c0-7.8-2.4-13.9-7.3-18.3
						c-4.9-4.3-11.8-6.5-20.7-6.5c-3.1,0-6.2,0.3-9.4,0.8c-3.2,0.5-6.4,1.3-9.8,2.3v9.9c2.9-1.6,6-2.8,9.1-3.6s6.4-1.2,9.9-1.2
						c5.6,0,10.1,1.5,13.4,4.4c3.3,3,4.9,7,4.9,12.1c0,5.1-1.6,9.1-4.9,12c-3.3,3-7.7,4.5-13.4,4.5c-2.6,0-5.3-0.3-7.9-0.9
						c-2.6-0.6-5.3-1.5-8-2.7V-685.4z"/>
				</g>
			</g>
		</g>
	</g>
	<g id="ytick_3">
		<g id="line2d_23">
			<g>
				<g>
					<path id="m728421d6d4_2_" class="st14" d="M-35,364.6h4"/>
				</g>
			</g>
		</g>
		<g id="line2d_24">
			<g>
				<g>
					<path id="mcb0005524f_2_" class="st14" d="M411.4,364.6h-4"/>
				</g>
			</g>
		</g>
		<g id="text_10">
			<g transform="translate(42.869375 276.91125)scale(0.12 -0.12)">
				<g>
					<path id="BitstreamVeraSans-Roman-30_11_" d="M-859.9-691.9c-5.1,0-8.9-2.5-11.5-7.5c-2.6-5-3.8-12.5-3.8-22.5
						c0-10,1.3-17.5,3.8-22.5c2.6-5,6.4-7.5,11.5-7.5c5.1,0,8.9,2.5,11.5,7.5c2.6,5,3.8,12.5,3.8,22.5c0,10-1.3,17.5-3.8,22.5
						C-850.9-694.4-854.8-691.9-859.9-691.9 M-859.9-684.1c8.2,0,14.4-3.2,18.7-9.7c4.3-6.5,6.5-15.8,6.5-28.1
						c0-12.3-2.2-21.6-6.5-28.1c-4.3-6.5-10.6-9.7-18.7-9.7c-8.2,0-14.4,3.2-18.7,9.7c-4.3,6.5-6.5,15.8-6.5,28.1
						c0,12.3,2.2,21.7,6.5,28.1C-874.3-687.3-868.1-684.1-859.9-684.1"/>
				</g>
				<g>
					<path id="BitstreamVeraSans-Roman-2e_8_" d="M-817.4-745.9h10.3v-12.4h-10.3V-745.9z"/>
				</g>
				<g>
					<path id="BitstreamVeraSans-Roman-31_2_" d="M-783.9-750h16.1v55.6l-17.5-3.5v9l17.4,3.5h9.9V-750h16.1v-8.3h-42V-750z"/>
				</g>
				<g>
					<path id="BitstreamVeraSans-Roman-30_12_" d="M-700.9-691.9c-5.1,0-8.9-2.5-11.5-7.5c-2.6-5-3.8-12.5-3.8-22.5
						c0-10,1.3-17.5,3.8-22.5c2.6-5,6.4-7.5,11.5-7.5c5.1,0,8.9,2.5,11.5,7.5c2.6,5,3.8,12.5,3.8,22.5c0,10-1.3,17.5-3.8,22.5
						C-691.9-694.4-695.7-691.9-700.9-691.9 M-700.9-684.1c8.2,0,14.4-3.2,18.7-9.7c4.3-6.5,6.5-15.8,6.5-28.1
						c0-12.3-2.2-21.6-6.5-28.1c-4.3-6.5-10.6-9.7-18.7-9.7c-8.2,0-14.4,3.2-18.7,9.7c-4.3,6.5-6.5,15.8-6.5,28.1
						c0,12.3,2.2,21.7,6.5,28.1C-715.3-687.3-709-684.1-700.9-684.1"/>
				</g>
			</g>
		</g>
	</g>
	<g id="ytick_4">
		<g id="line2d_25">
			<g>
				<g>
					<path id="m728421d6d4_3_" class="st14" d="M-35,307h4"/>
				</g>
			</g>
		</g>
		<g id="line2d_26">
			<g>
				<g>
					<path id="mcb0005524f_3_" class="st14" d="M411.4,307h-4"/>
				</g>
			</g>
		</g>
		<g id="text_11">
			<g transform="translate(43.120625 219.31125)scale(0.12 -0.12)">
				<g>
					<path id="BitstreamVeraSans-Roman-30_13_" d="M-859.9-691.9c-5.1,0-8.9-2.5-11.5-7.5c-2.6-5-3.8-12.5-3.8-22.5
						c0-10,1.3-17.5,3.8-22.5c2.6-5,6.4-7.5,11.5-7.5c5.1,0,8.9,2.5,11.5,7.5c2.6,5,3.8,12.5,3.8,22.5c0,10-1.3,17.5-3.8,22.5
						C-850.9-694.4-854.8-691.9-859.9-691.9 M-859.9-684.1c8.2,0,14.4-3.2,18.7-9.7c4.3-6.5,6.5-15.8,6.5-28.1
						c0-12.3-2.2-21.6-6.5-28.1c-4.3-6.5-10.6-9.7-18.7-9.7c-8.2,0-14.4,3.2-18.7,9.7c-4.3,6.5-6.5,15.8-6.5,28.1
						c0,12.3,2.2,21.7,6.5,28.1C-874.3-687.3-868.1-684.1-859.9-684.1"/>
				</g>
				<g>
					<path id="BitstreamVeraSans-Roman-2e_9_" d="M-817.4-745.9h10.3v-12.4h-10.3V-745.9z"/>
				</g>
				<g>
					<path id="BitstreamVeraSans-Roman-31_3_" d="M-783.9-750h16.1v55.6l-17.5-3.5v9l17.4,3.5h9.9V-750h16.1v-8.3h-42V-750z"/>
				</g>
				<g>
					<path id="BitstreamVeraSans-Roman-35_4_" d="M-721.8-685.4h38.7v-8.3h-29.7v-17.9c1.4,0.5,2.9,0.9,4.3,1.1
						c1.4,0.2,2.9,0.4,4.3,0.4c8.1,0,14.6-2.2,19.3-6.7c4.8-4.5,7.1-10.5,7.1-18.1c0-7.8-2.4-13.9-7.3-18.3
						c-4.9-4.3-11.8-6.5-20.7-6.5c-3.1,0-6.2,0.3-9.4,0.8c-3.2,0.5-6.4,1.3-9.8,2.3v9.9c2.9-1.6,6-2.8,9.1-3.6s6.4-1.2,9.9-1.2
						c5.6,0,10.1,1.5,13.4,4.4c3.3,3,4.9,7,4.9,12.1c0,5.1-1.6,9.1-4.9,12c-3.3,3-7.7,4.5-13.4,4.5c-2.6,0-5.3-0.3-7.9-0.9
						c-2.6-0.6-5.3-1.5-8-2.7V-685.4z"/>
				</g>
			</g>
		</g>
	</g>
	<g id="ytick_5">
		<g id="line2d_27">
			<g>
				<g>
					<path id="m728421d6d4_4_" class="st14" d="M-35,249.4h4"/>
				</g>
			</g>
		</g>
		<g id="line2d_28">
			<g>
				<g>
					<path id="mcb0005524f_4_" class="st14" d="M411.4,249.4h-4"/>
				</g>
			</g>
		</g>
		<g id="text_12">
			<g transform="translate(42.869375 161.71125)scale(0.12 -0.12)">
				<g>
					<path id="BitstreamVeraSans-Roman-30_14_" d="M-859.9-691.9c-5.1,0-8.9-2.5-11.5-7.5c-2.6-5-3.8-12.5-3.8-22.5
						c0-10,1.3-17.5,3.8-22.5c2.6-5,6.4-7.5,11.5-7.5c5.1,0,8.9,2.5,11.5,7.5c2.6,5,3.8,12.5,3.8,22.5c0,10-1.3,17.5-3.8,22.5
						C-850.9-694.4-854.8-691.9-859.9-691.9 M-859.9-684.1c8.2,0,14.4-3.2,18.7-9.7c4.3-6.5,6.5-15.8,6.5-28.1
						c0-12.3-2.2-21.6-6.5-28.1c-4.3-6.5-10.6-9.7-18.7-9.7c-8.2,0-14.4,3.2-18.7,9.7c-4.3,6.5-6.5,15.8-6.5,28.1
						c0,12.3,2.2,21.7,6.5,28.1C-874.3-687.3-868.1-684.1-859.9-684.1"/>
				</g>
				<g>
					<path id="BitstreamVeraSans-Roman-2e_10_" d="M-817.4-745.9h10.3v-12.4h-10.3V-745.9z"/>
				</g>
				<g>
					<path id="BitstreamVeraSans-Roman-32_1_" d="M-777.1-750h34.4v-8.3h-46.3v8.3c3.7,3.9,8.8,9.1,15.3,15.6
						c6.5,6.5,10.5,10.7,12.2,12.6c3.2,3.5,5.4,6.5,6.6,9c1.3,2.5,1.9,4.9,1.9,7.3c0,3.9-1.4,7-4.1,9.5c-2.7,2.4-6.3,3.7-10.6,3.7
						c-3.1,0-6.4-0.5-9.8-1.6c-3.4-1.1-7.1-2.7-11-4.9v10c4,1.6,7.7,2.8,11.1,3.6c3.5,0.8,6.6,1.2,9.5,1.2c7.6,0,13.6-1.9,18.1-5.7
						c4.5-3.8,6.7-8.8,6.7-15.1c0-3-0.6-5.8-1.7-8.5c-1.1-2.7-3.2-5.8-6.1-9.5c-0.8-0.9-3.4-3.7-7.8-8.2
						C-763-735.6-769.1-741.9-777.1-750"/>
				</g>
				<g>
					<path id="BitstreamVeraSans-Roman-30_15_" d="M-700.9-691.9c-5.1,0-8.9-2.5-11.5-7.5c-2.6-5-3.8-12.5-3.8-22.5
						c0-10,1.3-17.5,3.8-22.5c2.6-5,6.4-7.5,11.5-7.5c5.1,0,8.9,2.5,11.5,7.5c2.6,5,3.8,12.5,3.8,22.5c0,10-1.3,17.5-3.8,22.5
						C-691.9-694.4-695.7-691.9-700.9-691.9 M-700.9-684.1c8.2,0,14.4-3.2,18.7-9.7c4.3-6.5,6.5-15.8,6.5-28.1
						c0-12.3-2.2-21.6-6.5-28.1c-4.3-6.5-10.6-9.7-18.7-9.7c-8.2,0-14.4,3.2-18.7,9.7c-4.3,6.5-6.5,15.8-6.5,28.1
						c0,12.3,2.2,21.7,6.5,28.1C-715.3-687.3-709-684.1-700.9-684.1"/>
				</g>
			</g>
		</g>
	</g>
	<g id="ytick_6">
		<g id="line2d_29">
			<g>
				<g>
					<path id="m728421d6d4_5_" class="st14" d="M-35,191.8h4"/>
				</g>
			</g>
		</g>
		<g id="line2d_30">
			<g>
				<g>
					<path id="mcb0005524f_5_" class="st14" d="M411.4,191.8h-4"/>
				</g>
			</g>
		</g>
		<g id="text_13">
			<g transform="translate(43.120625 104.11125)scale(0.12 -0.12)">
				<g>
					<path id="BitstreamVeraSans-Roman-30_16_" d="M-859.9-691.9c-5.1,0-8.9-2.5-11.5-7.5c-2.6-5-3.8-12.5-3.8-22.5
						c0-10,1.3-17.5,3.8-22.5c2.6-5,6.4-7.5,11.5-7.5c5.1,0,8.9,2.5,11.5,7.5c2.6,5,3.8,12.5,3.8,22.5c0,10-1.3,17.5-3.8,22.5
						C-850.9-694.4-854.8-691.9-859.9-691.9 M-859.9-684.1c8.2,0,14.4-3.2,18.7-9.7c4.3-6.5,6.5-15.8,6.5-28.1
						c0-12.3-2.2-21.6-6.5-28.1c-4.3-6.5-10.6-9.7-18.7-9.7c-8.2,0-14.4,3.2-18.7,9.7c-4.3,6.5-6.5,15.8-6.5,28.1
						c0,12.3,2.2,21.7,6.5,28.1C-874.3-687.3-868.1-684.1-859.9-684.1"/>
				</g>
				<g>
					<path id="BitstreamVeraSans-Roman-2e_11_" d="M-817.4-745.9h10.3v-12.4h-10.3V-745.9z"/>
				</g>
				<g>
					<path id="BitstreamVeraSans-Roman-32_2_" d="M-777.1-750h34.4v-8.3h-46.3v8.3c3.7,3.9,8.8,9.1,15.3,15.6
						c6.5,6.5,10.5,10.7,12.2,12.6c3.2,3.5,5.4,6.5,6.6,9c1.3,2.5,1.9,4.9,1.9,7.3c0,3.9-1.4,7-4.1,9.5c-2.7,2.4-6.3,3.7-10.6,3.7
						c-3.1,0-6.4-0.5-9.8-1.6c-3.4-1.1-7.1-2.7-11-4.9v10c4,1.6,7.7,2.8,11.1,3.6c3.5,0.8,6.6,1.2,9.5,1.2c7.6,0,13.6-1.9,18.1-5.7
						c4.5-3.8,6.7-8.8,6.7-15.1c0-3-0.6-5.8-1.7-8.5c-1.1-2.7-3.2-5.8-6.1-9.5c-0.8-0.9-3.4-3.7-7.8-8.2
						C-763-735.6-769.1-741.9-777.1-750"/>
				</g>
				<g>
					<path id="BitstreamVeraSans-Roman-35_5_" d="M-721.8-685.4h38.7v-8.3h-29.7v-17.9c1.4,0.5,2.9,0.9,4.3,1.1
						c1.4,0.2,2.9,0.4,4.3,0.4c8.1,0,14.6-2.2,19.3-6.7c4.8-4.5,7.1-10.5,7.1-18.1c0-7.8-2.4-13.9-7.3-18.3
						c-4.9-4.3-11.8-6.5-20.7-6.5c-3.1,0-6.2,0.3-9.4,0.8c-3.2,0.5-6.4,1.3-9.8,2.3v9.9c2.9-1.6,6-2.8,9.1-3.6s6.4-1.2,9.9-1.2
						c5.6,0,10.1,1.5,13.4,4.4c3.3,3,4.9,7,4.9,12.1c0,5.1-1.6,9.1-4.9,12c-3.3,3-7.7,4.5-13.4,4.5c-2.6,0-5.3-0.3-7.9-0.9
						c-2.6-0.6-5.3-1.5-8-2.7V-685.4z"/>
				</g>
			</g>
		</g>
	</g>
	<g id="ytick_7">
		<g id="line2d_31">
			<g>
				<g>
					<path id="m728421d6d4_6_" class="st14" d="M-35,134.2h4"/>
				</g>
			</g>
		</g>
		<g id="line2d_32">
			<g>
				<g>
					<path id="mcb0005524f_6_" class="st14" d="M411.4,134.2h-4"/>
				</g>
			</g>
		</g>
		<g id="text_14">
			<g transform="translate(42.869375 46.51125)scale(0.12 -0.12)">
				<g>
					<path id="BitstreamVeraSans-Roman-30_17_" d="M-859.9-691.9c-5.1,0-8.9-2.5-11.5-7.5c-2.6-5-3.8-12.5-3.8-22.5
						c0-10,1.3-17.5,3.8-22.5c2.6-5,6.4-7.5,11.5-7.5c5.1,0,8.9,2.5,11.5,7.5c2.6,5,3.8,12.5,3.8,22.5c0,10-1.3,17.5-3.8,22.5
						C-850.9-694.4-854.8-691.9-859.9-691.9 M-859.9-684.1c8.2,0,14.4-3.2,18.7-9.7c4.3-6.5,6.5-15.8,6.5-28.1
						c0-12.3-2.2-21.6-6.5-28.1c-4.3-6.5-10.6-9.7-18.7-9.7c-8.2,0-14.4,3.2-18.7,9.7c-4.3,6.5-6.5,15.8-6.5,28.1
						c0,12.3,2.2,21.7,6.5,28.1C-874.3-687.3-868.1-684.1-859.9-684.1"/>
				</g>
				<g>
					<path id="BitstreamVeraSans-Roman-2e_12_" d="M-817.4-745.9h10.3v-12.4h-10.3V-745.9z"/>
				</g>
				<g>
					<path id="BitstreamVeraSans-Roman-33" d="M-755.7-719c4.7-1,8.4-3.1,11-6.3c2.7-3.2,4-7.1,4-11.8c0-7.2-2.5-12.8-7.4-16.7
						c-4.9-3.9-12-5.9-21.1-5.9c-3.1,0-6.2,0.3-9.4,0.9c-3.2,0.6-6.6,1.5-10,2.7v9.5c2.7-1.6,5.7-2.8,9-3.6
						c3.3-0.8,6.7-1.2,10.2-1.2c6.2,0,10.9,1.2,14.1,3.7c3.2,2.4,4.9,6,4.9,10.6c0,4.3-1.5,7.7-4.5,10.1c-3,2.4-7.2,3.6-12.6,3.6
						h-8.5v8.1h8.9c4.8,0,8.6,1,11.1,2.9s3.9,4.7,3.9,8.4c0,3.7-1.3,6.6-4,8.6c-2.6,2-6.4,3-11.4,3c-2.7,0-5.6-0.3-8.7-0.9
						c-3.1-0.6-6.5-1.5-10.2-2.7v8.8c3.8,1,7.3,1.8,10.5,2.3c3.3,0.5,6.4,0.8,9.3,0.8c7.5,0,13.4-1.7,17.8-5.1
						c4.4-3.4,6.5-8,6.5-13.8c0-4-1.2-7.5-3.5-10.2C-748.1-716-751.4-717.9-755.7-719"/>
				</g>
				<g>
					<path id="BitstreamVeraSans-Roman-30_18_" d="M-700.9-691.9c-5.1,0-8.9-2.5-11.5-7.5c-2.6-5-3.8-12.5-3.8-22.5
						c0-10,1.3-17.5,3.8-22.5c2.6-5,6.4-7.5,11.5-7.5c5.1,0,8.9,2.5,11.5,7.5c2.6,5,3.8,12.5,3.8,22.5c0,10-1.3,17.5-3.8,22.5
						C-691.9-694.4-695.7-691.9-700.9-691.9 M-700.9-684.1c8.2,0,14.4-3.2,18.7-9.7c4.3-6.5,6.5-15.8,6.5-28.1
						c0-12.3-2.2-21.6-6.5-28.1c-4.3-6.5-10.6-9.7-18.7-9.7c-8.2,0-14.4,3.2-18.7,9.7c-4.3,6.5-6.5,15.8-6.5,28.1
						c0,12.3,2.2,21.7,6.5,28.1C-715.3-687.3-709-684.1-700.9-684.1"/>
				</g>
			</g>
		</g>
	</g>
	<g id="text_15">
		<g transform="translate(35.37375 246.2278125)rotate(-90.0)scale(0.12 -0.12)">
			<g>
				<path id="BitstreamVeraSans-Roman-46" d="M-748.5,964.6h41.9v-8.3h-32v-21.5h28.9v-8.3h-28.9v-34.8h-9.9V964.6z"/>
			</g>
			<g>
				<path id="BitstreamVeraSans-Roman-72_1_" d="M-667,938c-1,0.6-2.1,1-3.3,1.3c-1.2,0.3-2.5,0.4-3.9,0.4c-5.1,0-9-1.7-11.7-5
					c-2.7-3.3-4.1-8-4.1-14.2v-28.8h-9v54.7h9v-8.5c1.9,3.3,4.4,5.8,7.4,7.4c3,1.6,6.7,2.4,11,2.4c0.6,0,1.3,0,2-0.1
					c0.8-0.1,1.6-0.2,2.5-0.4L-667,938z"/>
			</g>
			<g>
				<path id="BitstreamVeraSans-Roman-65_2_" d="M-613,921.3v-4.4h-41.3c0.4-6.2,2.3-10.9,5.6-14.1c3.3-3.2,8-4.9,13.9-4.9
					c3.4,0,6.8,0.4,10,1.3c3.2,0.8,6.5,2.1,9.7,3.8v-8.5c-3.2-1.4-6.5-2.4-9.9-3.1c-3.4-0.7-6.8-1.1-10.3-1.1
					c-8.7,0-15.6,2.5-20.7,7.6c-5.1,5.1-7.6,12-7.6,20.6c0,8.9,2.4,16,7.2,21.3c4.8,5.3,11.4,7.9,19.6,7.9c7.4,0,13.2-2.4,17.5-7.1
					C-615.1,935.8-613,929.4-613,921.3 M-622,923.9c-0.1,4.9-1.4,8.8-4.1,11.8c-2.7,2.9-6.2,4.4-10.7,4.4c-5,0-9-1.4-12-4.3
					c-3-2.8-4.7-6.8-5.2-12L-622,923.9z"/>
			</g>
			<g>
				<path id="BitstreamVeraSans-Roman-71" d="M-592.9,919c0-6.6,1.4-11.8,4.1-15.5c2.7-3.8,6.5-5.6,11.2-5.6s8.5,1.9,11.2,5.6
					c2.7,3.8,4.1,8.9,4.1,15.5c0,6.6-1.4,11.8-4.1,15.5c-2.7,3.8-6.5,5.6-11.2,5.6s-8.5-1.9-11.2-5.6
					C-591.5,930.8-592.9,925.6-592.9,919 M-562.3,899.9c-1.9-3.3-4.3-5.7-7.2-7.3c-2.9-1.6-6.3-2.4-10.4-2.4c-6.6,0-12,2.6-16.1,7.9
					c-4.1,5.3-6.2,12.2-6.2,20.8c0,8.6,2.1,15.5,6.2,20.8c4.2,5.3,9.5,7.9,16.1,7.9c4,0,7.5-0.8,10.4-2.4c2.9-1.6,5.3-4,7.2-7.2v8.3
					h9v-75.5h-9V899.9z"/>
			</g>
			<g>
				<path id="BitstreamVeraSans-Roman-75" d="M-535.7,913.2v33.1h9v-32.8c0-5.2,1-9.1,3-11.7c2-2.6,5.1-3.9,9.1-3.9
					c4.8,0,8.7,1.5,11.5,4.6c2.8,3.1,4.2,7.3,4.2,12.7v31h9v-54.7h-9v8.4c-2.2-3.3-4.7-5.8-7.6-7.4c-2.9-1.6-6.2-2.4-10-2.4
					c-6.3,0-11.1,2-14.3,5.9C-534.1,900-535.7,905.7-535.7,913.2"/>
			</g>
			<g>
				<path id="BitstreamVeraSans-Roman-65_3_" d="M-424.6,921.3v-4.4h-41.3c0.4-6.2,2.3-10.9,5.6-14.1c3.3-3.2,8-4.9,13.9-4.9
					c3.4,0,6.8,0.4,10,1.3c3.2,0.8,6.5,2.1,9.7,3.8v-8.5c-3.2-1.4-6.5-2.4-9.9-3.1s-6.8-1.1-10.3-1.1c-8.7,0-15.6,2.5-20.7,7.6
					c-5.1,5.1-7.6,12-7.6,20.6c0,8.9,2.4,16,7.2,21.3c4.8,5.3,11.4,7.9,19.6,7.9c7.4,0,13.2-2.4,17.5-7.1
					C-426.8,935.8-424.6,929.4-424.6,921.3 M-433.6,923.9c-0.1,4.9-1.4,8.8-4.1,11.8c-2.7,2.9-6.2,4.4-10.7,4.4c-5,0-9-1.4-12-4.3
					c-3-2.8-4.7-6.8-5.2-12L-433.6,923.9z"/>
			</g>
			<g>
				<path id="BitstreamVeraSans-Roman-6e" d="M-364.4,924.7v-33h-9v32.7c0,5.2-1,9-3,11.6c-2,2.6-5,3.9-9.1,3.9
					c-4.9,0-8.7-1.5-11.5-4.6c-2.8-3.1-4.2-7.3-4.2-12.6v-30.9h-9v54.7h9v-8.5c2.2,3.3,4.7,5.8,7.6,7.4c2.9,1.6,6.3,2.4,10.1,2.4
					c6.3,0,11-1.9,14.3-5.8C-366,938-364.4,932.2-364.4,924.7"/>
			</g>
			<g>
				<path id="BitstreamVeraSans-Roman-63" d="M-307.1,944.3v-8.4c-2.5,1.4-5.1,2.5-7.6,3.2c-2.6,0.7-5.1,1-7.7,1
					c-5.8,0-10.4-1.8-13.6-5.5c-3.2-3.7-4.8-8.9-4.8-15.5c0-6.7,1.6-11.9,4.8-15.6c3.2-3.7,7.8-5.5,13.6-5.5c2.6,0,5.2,0.3,7.7,1
					c2.6,0.7,5.1,1.7,7.6,3.2v-8.3c-2.5-1.2-5.1-2-7.8-2.6c-2.7-0.6-5.5-0.9-8.6-0.9c-8.2,0-14.8,2.6-19.6,7.8
					c-4.8,5.2-7.3,12.2-7.3,21c0,8.9,2.4,15.9,7.3,21c4.9,5.1,11.6,7.7,20.2,7.7c2.8,0,5.5-0.3,8.1-0.9
					C-312.2,946.2-309.6,945.4-307.1,944.3"/>
			</g>
			<g>
				<path id="BitstreamVeraSans-Roman-79" d="M-268.8,886.6c-2.5-6.5-5-10.8-7.4-12.7c-2.4-2-5.6-3-9.7-3h-7.2v7.5h5.3
					c2.5,0,4.4,0.6,5.8,1.8c1.4,1.2,2.9,3.9,4.5,8.3l1.6,4.1l-22.1,53.8h9.5l17.1-42.8l17.1,42.8h9.5L-268.8,886.6z"/>
			</g>
		</g>
	</g>
</g>
<g id="text_16">
	<g transform="translate(143.282362542 140.382063623)scale(0.12 -0.12)">
		<g>
			<path id="BitstreamVeraSans-Roman-42" d="M-1286.3-166.4v-26.7h15.8c5.3,0,9.2,1.1,11.8,3.3c2.6,2.2,3.8,5.6,3.8,10.1
				c0,4.6-1.3,7.9-3.8,10.1c-2.6,2.2-6.5,3.3-11.8,3.3H-1286.3z M-1286.3-136.4v-22h14.6c4.8,0,8.4,0.9,10.8,2.7
				c2.4,1.8,3.5,4.6,3.5,8.3c0,3.7-1.2,6.4-3.5,8.3c-2.4,1.8-5.9,2.7-10.8,2.7H-1286.3z M-1296.2-128.3h25.2
				c7.5,0,13.3-1.6,17.4-4.7c4.1-3.1,6.1-7.6,6.1-13.3c0-4.5-1-8-3.1-10.7c-2.1-2.6-5.1-4.3-9.2-4.9c4.9-1,8.6-3.2,11.3-6.5
				c2.7-3.3,4-7.4,4-12.4c0-6.5-2.2-11.5-6.6-15.1c-4.4-3.5-10.7-5.3-18.9-5.3h-26.2V-128.3z"/>
		</g>
		<g>
			<path id="BitstreamVeraSans-Roman-65_4_" d="M-1181.2-171.6v-4.4h-41.3c0.4-6.2,2.3-10.9,5.6-14.1c3.3-3.2,8-4.9,13.9-4.9
				c3.4,0,6.8,0.4,10,1.3c3.2,0.8,6.5,2.1,9.7,3.8v-8.5c-3.2-1.4-6.5-2.4-9.9-3.1c-3.4-0.7-6.8-1.1-10.3-1.1
				c-8.7,0-15.6,2.5-20.7,7.6c-5.1,5.1-7.6,12-7.6,20.6c0,8.9,2.4,16,7.3,21.3c4.8,5.3,11.4,7.9,19.6,7.9c7.4,0,13.2-2.4,17.5-7.1
				C-1183.3-157-1181.2-163.4-1181.2-171.6 M-1190.2-168.9c-0.1,4.9-1.4,8.8-4.1,11.8c-2.7,2.9-6.2,4.4-10.7,4.4c-5,0-9-1.4-12-4.3
				s-4.7-6.8-5.2-12L-1190.2-168.9z"/>
		</g>
		<g>
			<path id="BitstreamVeraSans-Roman-66" d="M-1138.8-125.2v-7.5h-8.6c-3.2,0-5.5-0.7-6.7-2c-1.3-1.3-1.9-3.6-1.9-7v-4.8h14.8v-7
				h-14.8v-47.7h-9v47.7h-8.6v7h8.6v3.8c0,6.1,1.4,10.5,4.3,13.3c2.8,2.8,7.3,4.2,13.5,4.2H-1138.8z"/>
		</g>
		<g>
			<path id="BitstreamVeraSans-Roman-6f" d="M-1110.1-152.8c-4.8,0-8.6-1.9-11.4-5.6c-2.8-3.8-4.2-8.9-4.2-15.5
				c0-6.5,1.4-11.7,4.2-15.5c2.8-3.8,6.6-5.6,11.5-5.6c4.8,0,8.6,1.9,11.4,5.7c2.8,3.8,4.2,8.9,4.2,15.4c0,6.5-1.4,11.6-4.2,15.4
				C-1101.5-154.7-1105.3-152.8-1110.1-152.8 M-1110.1-145.2c7.8,0,13.9-2.5,18.4-7.6c4.5-5.1,6.7-12.1,6.7-21.1
				c0-8.9-2.2-16-6.7-21.1c-4.5-5.1-10.6-7.6-18.4-7.6c-7.8,0-14,2.5-18.4,7.6c-4.4,5.1-6.7,12.1-6.7,21.1c0,9,2.2,16,6.7,21.1
				C-1124.1-147.7-1117.9-145.2-1110.1-145.2"/>
		</g>
		<g>
			<path id="BitstreamVeraSans-Roman-72_2_" d="M-1038.4-154.9c-1,0.6-2.1,1-3.3,1.3c-1.2,0.3-2.5,0.4-3.9,0.4c-5.1,0-9-1.7-11.7-5
				c-2.7-3.3-4.1-8-4.1-14.2v-28.8h-9v54.7h9v-8.5c1.9,3.3,4.4,5.8,7.4,7.4c3,1.6,6.7,2.4,11,2.4c0.6,0,1.3,0,2-0.1
				c0.8-0.1,1.6-0.2,2.5-0.4L-1038.4-154.9z"/>
		</g>
		<g>
			<path id="BitstreamVeraSans-Roman-65_5_" d="M-984.4-171.6v-4.4h-41.3c0.4-6.2,2.3-10.9,5.6-14.1c3.3-3.2,8-4.9,13.9-4.9
				c3.4,0,6.8,0.4,10,1.3c3.2,0.8,6.5,2.1,9.7,3.8v-8.5c-3.2-1.4-6.5-2.4-9.9-3.1c-3.4-0.7-6.8-1.1-10.3-1.1
				c-8.7,0-15.6,2.5-20.7,7.6c-5.1,5.1-7.6,12-7.6,20.6c0,8.9,2.4,16,7.3,21.3c4.8,5.3,11.4,7.9,19.6,7.9c7.4,0,13.2-2.4,17.5-7.1
				C-986.6-157-984.4-163.4-984.4-171.6 M-993.4-168.9c-0.1,4.9-1.4,8.8-4.1,11.8c-2.7,2.9-6.2,4.4-10.7,4.4c-5,0-9-1.4-12-4.3
				c-3-2.8-4.7-6.8-5.2-12L-993.4-168.9z"/>
		</g>
		<g>
			<path id="BitstreamVeraSans-Roman-20_1_" d="M-979.1-201.2"/>
		</g>
		<g>
			<path id="BitstreamVeraSans-Roman-76" d="M-944.3-146.5h9.5l17.1-45.9l17.1,45.9h9.5l-20.5-54.7h-12.2L-944.3-146.5z"/>
		</g>
		<g>
			<path id="BitstreamVeraSans-Roman-2e_13_" d="M-885.2-188.8h10.3v-12.4h-10.3V-188.8z"/>
		</g>
		<g>
			<path id="BitstreamVeraSans-Roman-20_2_" d="M-864.1-201.2"/>
		</g>
		<g>
			<path id="BitstreamVeraSans-Roman-53" d="M-778.8-130.7v-9.6c-3.7,1.8-7.3,3.1-10.6,4c-3.3,0.9-6.5,1.3-9.6,1.3
				c-5.4,0-9.5-1-12.4-3.1c-2.9-2.1-4.4-5-4.4-8.9c0-3.2,1-5.7,2.9-7.3c1.9-1.6,5.6-3,11-4l6-1.2c7.4-1.4,12.8-3.9,16.3-7.4
				s5.3-8.3,5.3-14.2c0-7.1-2.4-12.4-7.1-16.1c-4.7-3.6-11.7-5.5-20.8-5.5c-3.4,0-7.1,0.4-11,1.2c-3.9,0.8-7.9,1.9-12.1,3.5v10.2
				c4-2.2,7.9-3.9,11.8-5.1c3.8-1.1,7.6-1.7,11.3-1.7c5.6,0,10,1.1,13,3.3c3.1,2.2,4.6,5.4,4.6,9.5c0,3.6-1.1,6.4-3.3,8.4
				c-2.2,2-5.8,3.5-10.8,4.5l-6,1.2c-7.4,1.5-12.7,3.8-16,6.9c-3.3,3.1-4.9,7.5-4.9,13c0,6.4,2.3,11.5,6.8,15.2
				c4.5,3.7,10.8,5.6,18.8,5.6c3.4,0,6.9-0.3,10.5-0.9C-786.1-128.5-782.5-129.4-778.8-130.7"/>
		</g>
		<g>
			<path id="BitstreamVeraSans-Roman-74_1_" d="M-750.5-131v-15.5h18.5v-7h-18.5v-29.7c0-4.5,0.6-7.3,1.8-8.6
				c1.2-1.3,3.7-1.9,7.5-1.9h9.2v-7.5h-9.2c-6.9,0-11.7,1.3-14.4,3.9c-2.6,2.6-4,7.3-4,14.1v29.7h-6.6v7h6.6v15.5H-750.5z"/>
		</g>
		<g>
			<path id="BitstreamVeraSans-Roman-72_3_" d="M-688.5-154.9c-1,0.6-2.1,1-3.3,1.3c-1.2,0.3-2.5,0.4-3.9,0.4c-5.1,0-9-1.7-11.7-5
				c-2.7-3.3-4.1-8-4.1-14.2v-28.8h-9v54.7h9v-8.5c1.9,3.3,4.4,5.8,7.4,7.4c3,1.6,6.7,2.4,11,2.4c0.6,0,1.3,0,2-0.1
				c0.8-0.1,1.6-0.2,2.5-0.4L-688.5-154.9z"/>
		</g>
		<g>
			<path id="BitstreamVeraSans-Roman-65_6_" d="M-634.6-171.6v-4.4h-41.3c0.4-6.2,2.3-10.9,5.6-14.1s8-4.9,13.9-4.9
				c3.4,0,6.8,0.4,10,1.3c3.2,0.8,6.5,2.1,9.7,3.8v-8.5c-3.2-1.4-6.5-2.4-9.9-3.1c-3.4-0.7-6.8-1.1-10.3-1.1
				c-8.7,0-15.6,2.5-20.7,7.6c-5.1,5.1-7.6,12-7.6,20.6c0,8.9,2.4,16,7.2,21.3c4.8,5.3,11.4,7.9,19.6,7.9c7.4,0,13.2-2.4,17.5-7.1
				C-636.7-157-634.6-163.4-634.6-171.6 M-643.5-168.9c-0.1,4.9-1.4,8.8-4.1,11.8c-2.7,2.9-6.2,4.4-10.7,4.4c-5,0-9-1.4-12-4.3
				c-3-2.8-4.7-6.8-5.2-12L-643.5-168.9z"/>
		</g>
		<g>
			<path id="BitstreamVeraSans-Roman-73" d="M-585-148.1v-8.5c-2.5,1.3-5.2,2.3-7.9,2.9c-2.7,0.7-5.6,1-8.5,1c-4.5,0-7.8-0.7-10-2
				c-2.2-1.4-3.3-3.4-3.3-6.2c0-2.1,0.8-3.7,2.4-4.9c1.6-1.2,4.8-2.3,9.6-3.4l3.1-0.7c6.4-1.4,10.9-3.3,13.6-5.8c2.7-2.5,4-6,4-10.4
				c0-5.1-2-9.1-6-12.1c-4-3-9.5-4.4-16.6-4.4c-2.9,0-6,0.3-9.2,0.9c-3.2,0.6-6.5,1.4-10,2.6v9.3c3.3-1.7,6.6-3,9.8-3.9
				c3.2-0.9,6.4-1.3,9.6-1.3c4.2,0,7.5,0.7,9.8,2.2c2.3,1.4,3.4,3.5,3.4,6.1c0,2.4-0.8,4.3-2.5,5.6c-1.6,1.3-5.2,2.6-10.8,3.8
				l-3.1,0.7c-5.6,1.2-9.6,3-12.1,5.4c-2.5,2.4-3.7,5.8-3.7,10c0,5.1,1.8,9.1,5.5,11.9c3.6,2.8,8.8,4.2,15.5,4.2
				c3.3,0,6.4-0.2,9.4-0.7C-590.1-146.4-587.4-147.1-585-148.1"/>
		</g>
		<g>
			<path id="BitstreamVeraSans-Roman-73_1_" d="M-532.9-148.1v-8.5c-2.5,1.3-5.2,2.3-7.9,2.9c-2.7,0.7-5.6,1-8.5,1
				c-4.5,0-7.8-0.7-10-2c-2.2-1.4-3.3-3.4-3.3-6.2c0-2.1,0.8-3.7,2.4-4.9c1.6-1.2,4.8-2.3,9.6-3.4l3.1-0.7
				c6.4-1.4,10.9-3.3,13.6-5.8c2.7-2.5,4-6,4-10.4c0-5.1-2-9.1-6-12.1c-4-3-9.5-4.4-16.6-4.4c-2.9,0-6,0.3-9.2,0.9
				c-3.2,0.6-6.5,1.4-10,2.6v9.3c3.3-1.7,6.6-3,9.8-3.9c3.2-0.9,6.4-1.3,9.6-1.3c4.2,0,7.5,0.7,9.8,2.2c2.3,1.4,3.4,3.5,3.4,6.1
				c0,2.4-0.8,4.3-2.5,5.6c-1.6,1.3-5.2,2.6-10.8,3.8l-3.1,0.7c-5.6,1.2-9.6,3-12.1,5.4c-2.5,2.4-3.7,5.8-3.7,10
				c0,5.1,1.8,9.1,5.5,11.9c3.6,2.8,8.8,4.2,15.5,4.2c3.3,0,6.4-0.2,9.4-0.7C-538-146.4-535.3-147.1-532.9-148.1"/>
		</g>
		<g>
			<path id="BitstreamVeraSans-Roman-3a" d="M-513.3-188.8h10.3v-12.4h-10.3V-188.8z M-513.3-149.5h10.3v-12.4h-10.3V-149.5z"/>
		</g>
		<g>
			<path id="BitstreamVeraSans-Roman-70" d="M-473.2-193v-29h-9v75.5h9v-8.3c1.9,3.3,4.3,5.7,7.2,7.2c2.9,1.6,6.3,2.4,10.3,2.4
				c6.6,0,12-2.6,16.2-7.9c4.2-5.3,6.2-12.2,6.2-20.8c0-8.6-2.1-15.5-6.2-20.8c-4.1-5.3-9.5-7.9-16.2-7.9c-4,0-7.4,0.8-10.3,2.4
				C-469-198.6-471.3-196.2-473.2-193 M-442.7-173.9c0,6.6-1.4,11.8-4.1,15.5c-2.7,3.8-6.5,5.6-11.2,5.6c-4.8,0-8.5-1.9-11.2-5.6
				c-2.7-3.8-4.1-8.9-4.1-15.5c0-6.6,1.4-11.8,4.1-15.5c2.7-3.8,6.5-5.6,11.2-5.6c4.8,0,8.5,1.9,11.2,5.6
				C-444-185.7-442.7-180.5-442.7-173.9"/>
		</g>
		<g>
			<path id="BitstreamVeraSans-Roman-3d" d="M-417.3-155.8h62.6v-8.2h-62.6V-155.8z M-417.3-175.7h62.6v-8.3h-62.6V-175.7z"/>
		</g>
		<g>
			<path id="BitstreamVeraSans-Roman-30_19_" d="M-312.3-134.8c-5.1,0-8.9-2.5-11.5-7.5c-2.6-5-3.8-12.5-3.8-22.5
				c0-10,1.3-17.5,3.8-22.5c2.6-5,6.4-7.5,11.5-7.5c5.1,0,8.9,2.5,11.5,7.5c2.6,5,3.8,12.5,3.8,22.5c0,10-1.3,17.5-3.8,22.5
				C-303.4-137.3-307.2-134.8-312.3-134.8 M-312.3-127c8.2,0,14.4-3.2,18.7-9.7c4.3-6.5,6.5-15.8,6.5-28.1c0-12.3-2.2-21.6-6.5-28.1
				c-4.3-6.5-10.6-9.7-18.7-9.7c-8.2,0-14.4,3.2-18.7,9.7c-4.3,6.5-6.5,15.8-6.5,28.1c0,12.3,2.2,21.7,6.5,28.1
				C-326.7-130.2-320.5-127-312.3-127"/>
		</g>
		<g>
			<path id="BitstreamVeraSans-Roman-2e_14_" d="M-269.8-188.8h10.3v-12.4h-10.3V-188.8z"/>
		</g>
		<g>
			<path id="BitstreamVeraSans-Roman-30_20_" d="M-216.9-134.8c-5.1,0-8.9-2.5-11.5-7.5c-2.6-5-3.8-12.5-3.8-22.5
				c0-10,1.3-17.5,3.8-22.5c2.6-5,6.4-7.5,11.5-7.5c5.1,0,8.9,2.5,11.5,7.5c2.6,5,3.8,12.5,3.8,22.5c0,10-1.3,17.5-3.8,22.5
				C-207.9-137.3-211.8-134.8-216.9-134.8 M-216.9-127c8.2,0,14.4-3.2,18.7-9.7c4.3-6.5,6.5-15.8,6.5-28.1c0-12.3-2.2-21.6-6.5-28.1
				c-4.3-6.5-10.6-9.7-18.7-9.7c-8.2,0-14.4,3.2-18.7,9.7c-4.3,6.5-6.5,15.8-6.5,28.1c0,12.3,2.2,21.7,6.5,28.1
				C-231.3-130.2-225.1-127-216.9-127"/>
		</g>
		<g>
			<path id="BitstreamVeraSans-Roman-30_21_" d="M-153.3-134.8c-5.1,0-8.9-2.5-11.5-7.5c-2.6-5-3.8-12.5-3.8-22.5
				c0-10,1.3-17.5,3.8-22.5c2.6-5,6.4-7.5,11.5-7.5c5.1,0,8.9,2.5,11.5,7.5c2.6,5,3.8,12.5,3.8,22.5c0,10-1.3,17.5-3.8,22.5
				C-144.3-137.3-148.2-134.8-153.3-134.8 M-153.3-127c8.2,0,14.4-3.2,18.7-9.7c4.3-6.5,6.5-15.8,6.5-28.1c0-12.3-2.2-21.6-6.5-28.1
				c-4.3-6.5-10.6-9.7-18.7-9.7c-8.2,0-14.4,3.2-18.7,9.7c-4.3,6.5-6.5,15.8-6.5,28.1c0,12.3,2.2,21.7,6.5,28.1
				C-167.7-130.2-161.4-127-153.3-127"/>
		</g>
		<g>
			<path id="BitstreamVeraSans-Roman-30_22_" d="M-89.6-134.8c-5.1,0-8.9-2.5-11.5-7.5c-2.6-5-3.8-12.5-3.8-22.5
				c0-10,1.3-17.5,3.8-22.5c2.6-5,6.4-7.5,11.5-7.5c5.1,0,8.9,2.5,11.5,7.5c2.6,5,3.8,12.5,3.8,22.5c0,10-1.3,17.5-3.8,22.5
				C-80.7-137.3-84.5-134.8-89.6-134.8 M-89.6-127c8.2,0,14.4-3.2,18.7-9.7c4.3-6.5,6.5-15.8,6.5-28.1c0-12.3-2.2-21.6-6.5-28.1
				c-4.3-6.5-10.6-9.7-18.7-9.7c-8.2,0-14.4,3.2-18.7,9.7c-4.3,6.5-6.5,15.8-6.5,28.1c0,12.3,2.2,21.7,6.5,28.1
				C-104.1-130.2-97.8-127-89.6-127"/>
		</g>
		<g>
			<path id="BitstreamVeraSans-Roman-30_23_" d="M-26-134.8c-5.1,0-8.9-2.5-11.5-7.5c-2.6-5-3.8-12.5-3.8-22.5
				c0-10,1.3-17.5,3.8-22.5c2.6-5,6.4-7.5,11.5-7.5c5.1,0,8.9,2.5,11.5,7.5c2.6,5,3.8,12.5,3.8,22.5c0,10-1.3,17.5-3.8,22.5
				C-17.1-137.3-20.9-134.8-26-134.8 M-26-127c8.2,0,14.4-3.2,18.7-9.7c4.3-6.5,6.5-15.8,6.5-28.1c0-12.3-2.2-21.6-6.5-28.1
				c-4.3-6.5-10.6-9.7-18.7-9.7c-8.2,0-14.4,3.2-18.7,9.7c-4.3,6.5-6.5,15.8-6.5,28.1c0,12.3,2.2,21.7,6.5,28.1
				C-40.4-130.2-34.2-127-26-127"/>
		</g>
		<g>
			<path id="BitstreamVeraSans-Roman-30_24_" d="M37.6-134.8c-5.1,0-8.9-2.5-11.5-7.5c-2.6-5-3.8-12.5-3.8-22.5
				c0-10,1.3-17.5,3.8-22.5c2.6-5,6.4-7.5,11.5-7.5c5.1,0,8.9,2.5,11.5,7.5c2.6,5,3.8,12.5,3.8,22.5c0,10-1.3,17.5-3.8,22.5
				C46.5-137.3,42.7-134.8,37.6-134.8 M37.6-127c8.2,0,14.4-3.2,18.7-9.7c4.3-6.5,6.5-15.8,6.5-28.1c0-12.3-2.2-21.6-6.5-28.1
				c-4.3-6.5-10.6-9.7-18.7-9.7c-8.2,0-14.4,3.2-18.7,9.7c-4.3,6.5-6.5,15.8-6.5,28.1c0,12.3,2.2,21.7,6.5,28.1
				C23.2-130.2,29.4-127,37.6-127"/>
		</g>
		<g>
			<path id="BitstreamVeraSans-Roman-30_25_" d="M101.2-134.8c-5.1,0-8.9-2.5-11.5-7.5c-2.6-5-3.8-12.5-3.8-22.5
				c0-10,1.3-17.5,3.8-22.5c2.6-5,6.4-7.5,11.5-7.5c5.1,0,8.9,2.5,11.5,7.5c2.6,5,3.8,12.5,3.8,22.5c0,10-1.3,17.5-3.8,22.5
				C110.2-137.3,106.3-134.8,101.2-134.8 M101.2-127c8.2,0,14.4-3.2,18.7-9.7c4.3-6.5,6.5-15.8,6.5-28.1c0-12.3-2.2-21.6-6.5-28.1
				c-4.3-6.5-10.6-9.7-18.7-9.7c-8.2,0-14.4,3.2-18.7,9.7c-4.3,6.5-6.5,15.8-6.5,28.1c0,12.3,2.2,21.7,6.5,28.1
				C86.8-130.2,93.1-127,101.2-127"/>
		</g>
		<g>
			<path id="BitstreamVeraSans-Roman-20_3_" d="M133.1-201.2"/>
		</g>
	</g>
	<g transform="translate(143.282362542 153.819438623)scale(0.12 -0.12)">
		<g>
			<path id="BitstreamVeraSans-Roman-20_4_" d="M-1306-201.2"/>
		</g>
		<g>
			<path id="BitstreamVeraSans-Roman-42_1_" d="M-1254.5-166.4v-26.7h15.8c5.3,0,9.2,1.1,11.8,3.3c2.6,2.2,3.8,5.6,3.8,10.1
				c0,4.6-1.3,7.9-3.8,10.1c-2.6,2.2-6.5,3.3-11.8,3.3H-1254.5z M-1254.5-136.4v-22h14.6c4.8,0,8.4,0.9,10.8,2.7
				c2.4,1.8,3.5,4.6,3.5,8.3c0,3.7-1.2,6.4-3.5,8.3c-2.4,1.8-5.9,2.7-10.8,2.7H-1254.5z M-1264.4-128.3h25.2
				c7.5,0,13.3-1.6,17.4-4.7c4.1-3.1,6.1-7.6,6.1-13.3c0-4.5-1-8-3.1-10.7c-2.1-2.6-5.1-4.3-9.2-4.9c4.9-1,8.6-3.2,11.3-6.5
				c2.7-3.3,4-7.4,4-12.4c0-6.5-2.2-11.5-6.6-15.1c-4.4-3.5-10.7-5.3-18.9-5.3h-26.2V-128.3z"/>
		</g>
		<g>
			<path id="BitstreamVeraSans-Roman-65_7_" d="M-1149.4-171.6v-4.4h-41.3c0.4-6.2,2.3-10.9,5.6-14.1c3.3-3.2,8-4.9,13.9-4.9
				c3.4,0,6.8,0.4,10,1.3c3.2,0.8,6.5,2.1,9.7,3.8v-8.5c-3.2-1.4-6.5-2.4-9.9-3.1c-3.4-0.7-6.8-1.1-10.3-1.1
				c-8.7,0-15.6,2.5-20.7,7.6c-5.1,5.1-7.6,12-7.6,20.6c0,8.9,2.4,16,7.3,21.3c4.8,5.3,11.4,7.9,19.6,7.9c7.4,0,13.2-2.4,17.5-7.1
				C-1151.6-157-1149.4-163.4-1149.4-171.6 M-1158.4-168.9c-0.1,4.9-1.4,8.8-4.1,11.8c-2.7,2.9-6.2,4.4-10.7,4.4c-5,0-9-1.4-12-4.3
				s-4.7-6.8-5.2-12L-1158.4-168.9z"/>
		</g>
		<g>
			<path id="BitstreamVeraSans-Roman-66_1_" d="M-1107-125.2v-7.5h-8.6c-3.2,0-5.5-0.7-6.7-2c-1.3-1.3-1.9-3.6-1.9-7v-4.8h14.8v-7
				h-14.8v-47.7h-9v47.7h-8.6v7h8.6v3.8c0,6.1,1.4,10.5,4.3,13.3c2.8,2.8,7.3,4.2,13.5,4.2H-1107z"/>
		</g>
		<g>
			<path id="BitstreamVeraSans-Roman-6f_1_" d="M-1078.3-152.8c-4.8,0-8.6-1.9-11.4-5.6c-2.8-3.8-4.2-8.9-4.2-15.5
				c0-6.5,1.4-11.7,4.2-15.5c2.8-3.8,6.6-5.6,11.5-5.6c4.8,0,8.6,1.9,11.4,5.7c2.8,3.8,4.2,8.9,4.2,15.4c0,6.5-1.4,11.6-4.2,15.4
				C-1069.7-154.7-1073.5-152.8-1078.3-152.8 M-1078.3-145.2c7.8,0,13.9-2.5,18.4-7.6c4.5-5.1,6.7-12.1,6.7-21.1
				c0-8.9-2.2-16-6.7-21.1c-4.5-5.1-10.6-7.6-18.4-7.6c-7.8,0-14,2.5-18.4,7.6c-4.4,5.1-6.7,12.1-6.7,21.1c0,9,2.2,16,6.7,21.1
				C-1092.3-147.7-1086.1-145.2-1078.3-145.2"/>
		</g>
		<g>
			<path id="BitstreamVeraSans-Roman-72_4_" d="M-1006.6-154.9c-1,0.6-2.1,1-3.3,1.3c-1.2,0.3-2.5,0.4-3.9,0.4c-5.1,0-9-1.7-11.7-5
				c-2.7-3.3-4.1-8-4.1-14.2v-28.8h-9v54.7h9v-8.5c1.9,3.3,4.4,5.8,7.4,7.4c3,1.6,6.7,2.4,11,2.4c0.6,0,1.3,0,2-0.1
				c0.8-0.1,1.6-0.2,2.5-0.4L-1006.6-154.9z"/>
		</g>
		<g>
			<path id="BitstreamVeraSans-Roman-65_8_" d="M-952.6-171.6v-4.4H-994c0.4-6.2,2.3-10.9,5.6-14.1c3.3-3.2,8-4.9,13.9-4.9
				c3.4,0,6.8,0.4,10,1.3c3.2,0.8,6.5,2.1,9.7,3.8v-8.5c-3.2-1.4-6.5-2.4-9.9-3.1c-3.4-0.7-6.8-1.1-10.3-1.1
				c-8.7,0-15.6,2.5-20.7,7.6c-5.1,5.1-7.6,12-7.6,20.6c0,8.9,2.4,16,7.2,21.3c4.8,5.3,11.4,7.9,19.6,7.9c7.4,0,13.2-2.4,17.5-7.1
				C-954.8-157-952.6-163.4-952.6-171.6 M-961.6-168.9c-0.1,4.9-1.4,8.8-4.1,11.8c-2.7,2.9-6.2,4.4-10.7,4.4c-5,0-9-1.4-12-4.3
				c-3-2.8-4.7-6.8-5.2-12L-961.6-168.9z"/>
		</g>
		<g>
			<path id="BitstreamVeraSans-Roman-20_5_" d="M-947.3-201.2"/>
		</g>
		<g>
			<path id="BitstreamVeraSans-Roman-76_1_" d="M-912.5-146.5h9.5l17.1-45.9l17.1,45.9h9.5l-20.5-54.7H-892L-912.5-146.5z"/>
		</g>
		<g>
			<path id="BitstreamVeraSans-Roman-2e_15_" d="M-853.4-188.8h10.3v-12.4h-10.3V-188.8z"/>
		</g>
		<g>
			<path id="BitstreamVeraSans-Roman-20_6_" d="M-832.3-201.2"/>
		</g>
		<g>
			<path id="BitstreamVeraSans-Roman-41_1_" d="M-766.3-138l-13.4-36.3h26.8L-766.3-138z M-771.9-128.3h11.2l27.8-72.9h-10.3
				l-6.6,18.7h-32.9l-6.6-18.7h-10.4L-771.9-128.3z"/>
		</g>
		<g>
			<path id="BitstreamVeraSans-Roman-66_2_" d="M-698.6-125.2v-7.5h-8.6c-3.2,0-5.5-0.7-6.7-2c-1.3-1.3-1.9-3.6-1.9-7v-4.8h14.8v-7
				h-14.8v-47.7h-9v47.7h-8.6v7h8.6v3.8c0,6.1,1.4,10.5,4.3,13.3c2.8,2.8,7.3,4.2,13.5,4.2H-698.6z"/>
		</g>
		<g>
			<path id="BitstreamVeraSans-Roman-74_2_" d="M-684-131v-15.5h18.5v-7H-684v-29.7c0-4.5,0.6-7.3,1.8-8.6c1.2-1.3,3.7-1.9,7.5-1.9
				h9.2v-7.5h-9.2c-6.9,0-11.7,1.3-14.4,3.9c-2.6,2.6-4,7.3-4,14.1v29.7h-6.6v7h6.6v15.5H-684z"/>
		</g>
		<g>
			<path id="BitstreamVeraSans-Roman-65_9_" d="M-606.9-171.6v-4.4h-41.3c0.4-6.2,2.3-10.9,5.6-14.1s8-4.9,13.9-4.9
				c3.4,0,6.8,0.4,10,1.3c3.2,0.8,6.5,2.1,9.7,3.8v-8.5c-3.2-1.4-6.5-2.4-9.9-3.1c-3.4-0.7-6.8-1.1-10.3-1.1
				c-8.7,0-15.6,2.5-20.7,7.6c-5.1,5.1-7.6,12-7.6,20.6c0,8.9,2.4,16,7.2,21.3c4.8,5.3,11.4,7.9,19.6,7.9c7.4,0,13.2-2.4,17.5-7.1
				C-609-157-606.9-163.4-606.9-171.6 M-615.9-168.9c-0.1,4.9-1.4,8.8-4.1,11.8c-2.7,2.9-6.2,4.4-10.7,4.4c-5,0-9-1.4-12-4.3
				c-3-2.8-4.7-6.8-5.2-12L-615.9-168.9z"/>
		</g>
		<g>
			<path id="BitstreamVeraSans-Roman-72_5_" d="M-560.4-154.9c-1,0.6-2.1,1-3.3,1.3c-1.2,0.3-2.5,0.4-3.9,0.4c-5.1,0-9-1.7-11.7-5
				c-2.7-3.3-4.1-8-4.1-14.2v-28.8h-9v54.7h9v-8.5c1.9,3.3,4.4,5.8,7.4,7.4c3,1.6,6.7,2.4,11,2.4c0.6,0,1.3,0,2-0.1
				c0.8-0.1,1.6-0.2,2.5-0.4L-560.4-154.9z"/>
		</g>
		<g>
			<path id="BitstreamVeraSans-Roman-3a_1_" d="M-550.5-188.8h10.3v-12.4h-10.3V-188.8z M-550.5-149.5h10.3v-12.4h-10.3V-149.5z"/>
		</g>
		<g>
			<path id="BitstreamVeraSans-Roman-20_7_" d="M-528.5-201.2"/>
		</g>
		<g>
			<path id="BitstreamVeraSans-Roman-70_1_" d="M-478.6-193v-29h-9v75.5h9v-8.3c1.9,3.3,4.3,5.7,7.2,7.2c2.9,1.6,6.3,2.4,10.3,2.4
				c6.6,0,12-2.6,16.2-7.9c4.2-5.3,6.2-12.2,6.2-20.8c0-8.6-2.1-15.5-6.2-20.8c-4.1-5.3-9.5-7.9-16.2-7.9c-4,0-7.4,0.8-10.3,2.4
				C-474.3-198.6-476.7-196.2-478.6-193 M-448-173.9c0,6.6-1.4,11.8-4.1,15.5c-2.7,3.8-6.5,5.6-11.2,5.6c-4.8,0-8.5-1.9-11.2-5.6
				c-2.7-3.8-4.1-8.9-4.1-15.5c0-6.6,1.4-11.8,4.1-15.5c2.7-3.8,6.5-5.6,11.2-5.6c4.8,0,8.5,1.9,11.2,5.6
				C-449.4-185.7-448-180.5-448-173.9"/>
		</g>
		<g>
			<path id="BitstreamVeraSans-Roman-3d_1_" d="M-422.6-155.8h62.6v-8.2h-62.6V-155.8z M-422.6-175.7h62.6v-8.3h-62.6V-175.7z"/>
		</g>
		<g>
			<path id="BitstreamVeraSans-Roman-30_26_" d="M-317.7-134.8c-5.1,0-8.9-2.5-11.5-7.5c-2.6-5-3.8-12.5-3.8-22.5
				c0-10,1.3-17.5,3.8-22.5c2.6-5,6.4-7.5,11.5-7.5c5.1,0,8.9,2.5,11.5,7.5c2.6,5,3.8,12.5,3.8,22.5c0,10-1.3,17.5-3.8,22.5
				C-308.7-137.3-312.6-134.8-317.7-134.8 M-317.7-127c8.2,0,14.4-3.2,18.7-9.7c4.3-6.5,6.5-15.8,6.5-28.1c0-12.3-2.2-21.6-6.5-28.1
				c-4.3-6.5-10.6-9.7-18.7-9.7c-8.2,0-14.4,3.2-18.7,9.7c-4.3,6.5-6.5,15.8-6.5,28.1c0,12.3,2.2,21.7,6.5,28.1
				C-332.1-130.2-325.8-127-317.7-127"/>
		</g>
		<g>
			<path id="BitstreamVeraSans-Roman-2e_16_" d="M-275.1-188.8h10.3v-12.4h-10.3V-188.8z"/>
		</g>
		<g>
			<path id="BitstreamVeraSans-Roman-30_27_" d="M-222.3-134.8c-5.1,0-8.9-2.5-11.5-7.5c-2.6-5-3.8-12.5-3.8-22.5
				c0-10,1.3-17.5,3.8-22.5c2.6-5,6.4-7.5,11.5-7.5c5.1,0,8.9,2.5,11.5,7.5c2.6,5,3.8,12.5,3.8,22.5c0,10-1.3,17.5-3.8,22.5
				C-213.3-137.3-217.1-134.8-222.3-134.8 M-222.3-127c8.2,0,14.4-3.2,18.7-9.7c4.3-6.5,6.5-15.8,6.5-28.1c0-12.3-2.2-21.6-6.5-28.1
				c-4.3-6.5-10.6-9.7-18.7-9.7c-8.2,0-14.4,3.2-18.7,9.7c-4.3,6.5-6.5,15.8-6.5,28.1c0,12.3,2.2,21.7,6.5,28.1
				C-236.7-130.2-230.4-127-222.3-127"/>
		</g>
		<g>
			<path id="BitstreamVeraSans-Roman-30_28_" d="M-158.6-134.8c-5.1,0-8.9-2.5-11.5-7.5c-2.6-5-3.8-12.5-3.8-22.5
				c0-10,1.3-17.5,3.8-22.5c2.6-5,6.4-7.5,11.5-7.5c5.1,0,8.9,2.5,11.5,7.5c2.6,5,3.8,12.5,3.8,22.5c0,10-1.3,17.5-3.8,22.5
				C-149.7-137.3-153.5-134.8-158.6-134.8 M-158.6-127c8.2,0,14.4-3.2,18.7-9.7c4.3-6.5,6.5-15.8,6.5-28.1c0-12.3-2.2-21.6-6.5-28.1
				c-4.3-6.5-10.6-9.7-18.7-9.7c-8.2,0-14.4,3.2-18.7,9.7c-4.3,6.5-6.5,15.8-6.5,28.1c0,12.3,2.2,21.7,6.5,28.1
				C-173-130.2-166.8-127-158.6-127"/>
		</g>
		<g>
			<path id="BitstreamVeraSans-Roman-30_29_" d="M-95-134.8c-5.1,0-8.9-2.5-11.5-7.5c-2.6-5-3.8-12.5-3.8-22.5
				c0-10,1.3-17.5,3.8-22.5c2.6-5,6.4-7.5,11.5-7.5c5.1,0,8.9,2.5,11.5,7.5c2.6,5,3.8,12.5,3.8,22.5c0,10-1.3,17.5-3.8,22.5
				C-86.1-137.3-89.9-134.8-95-134.8 M-95-127c8.2,0,14.4-3.2,18.7-9.7c4.3-6.5,6.5-15.8,6.5-28.1c0-12.3-2.2-21.6-6.5-28.1
				c-4.3-6.5-10.6-9.7-18.7-9.7c-8.2,0-14.4,3.2-18.7,9.7c-4.3,6.5-6.5,15.8-6.5,28.1c0,12.3,2.2,21.7,6.5,28.1
				C-109.4-130.2-103.2-127-95-127"/>
		</g>
		<g>
			<path id="BitstreamVeraSans-Roman-30_30_" d="M-31.4-134.8c-5.1,0-8.9-2.5-11.5-7.5c-2.6-5-3.8-12.5-3.8-22.5
				c0-10,1.3-17.5,3.8-22.5c2.6-5,6.4-7.5,11.5-7.5c5.1,0,8.9,2.5,11.5,7.5c2.6,5,3.8,12.5,3.8,22.5c0,10-1.3,17.5-3.8,22.5
				C-22.4-137.3-26.3-134.8-31.4-134.8 M-31.4-127c8.2,0,14.4-3.2,18.7-9.7c4.3-6.5,6.5-15.8,6.5-28.1c0-12.3-2.2-21.6-6.5-28.1
				c-4.3-6.5-10.6-9.7-18.7-9.7c-8.2,0-14.4,3.2-18.7,9.7c-4.3,6.5-6.5,15.8-6.5,28.1c0,12.3,2.2,21.7,6.5,28.1
				C-45.8-130.2-39.6-127-31.4-127"/>
		</g>
		<g>
			<path id="BitstreamVeraSans-Roman-30_31_" d="M32.2-134.8c-5.1,0-8.9-2.5-11.5-7.5c-2.6-5-3.8-12.5-3.8-22.5
				c0-10,1.3-17.5,3.8-22.5c2.6-5,6.4-7.5,11.5-7.5c5.1,0,8.9,2.5,11.5,7.5c2.6,5,3.8,12.5,3.8,22.5c0,10-1.3,17.5-3.8,22.5
				C41.2-137.3,37.3-134.8,32.2-134.8 M32.2-127c8.2,0,14.4-3.2,18.7-9.7c4.3-6.5,6.5-15.8,6.5-28.1c0-12.3-2.2-21.6-6.5-28.1
				c-4.3-6.5-10.6-9.7-18.7-9.7c-8.2,0-14.4,3.2-18.7,9.7C9.2-186.4,7-177.1,7-164.8c0,12.3,2.2,21.7,6.5,28.1
				C17.8-130.2,24.1-127,32.2-127"/>
		</g>
		<g>
			<path id="BitstreamVeraSans-Roman-30_32_" d="M95.9-134.8c-5.1,0-8.9-2.5-11.5-7.5c-2.6-5-3.8-12.5-3.8-22.5
				c0-10,1.3-17.5,3.8-22.5c2.6-5,6.4-7.5,11.5-7.5c5.1,0,8.9,2.5,11.5,7.5c2.6,5,3.8,12.5,3.8,22.5c0,10-1.3,17.5-3.8,22.5
				C104.8-137.3,101-134.8,95.9-134.8 M95.9-127c8.2,0,14.4-3.2,18.7-9.7c4.3-6.5,6.5-15.8,6.5-28.1c0-12.3-2.2-21.6-6.5-28.1
				c-4.3-6.5-10.6-9.7-18.7-9.7c-8.2,0-14.4,3.2-18.7,9.7c-4.3,6.5-6.5,15.8-6.5,28.1c0,12.3,2.2,21.7,6.5,28.1
				C81.5-130.2,87.7-127,95.9-127"/>
		</g>
		<g>
			<path id="BitstreamVeraSans-Roman-20_8_" d="M127.7-201.2"/>
		</g>
	</g>
	<g transform="translate(143.282362542 167.256813623)scale(0.12 -0.12)">
		<g>
			<path id="BitstreamVeraSans-Roman-20_9_" d="M-1306-201.2"/>
		</g>
		<g>
			<path id="BitstreamVeraSans-Roman-53_1_" d="M-1220.7-130.7v-9.6c-3.7,1.8-7.3,3.1-10.6,4c-3.3,0.9-6.5,1.3-9.6,1.3
				c-5.4,0-9.5-1-12.4-3.1c-2.9-2.1-4.4-5-4.4-8.9c0-3.2,1-5.7,2.9-7.3c1.9-1.6,5.6-3,11-4l6-1.2c7.4-1.4,12.8-3.9,16.3-7.4
				c3.5-3.5,5.3-8.3,5.3-14.2c0-7.1-2.4-12.4-7.1-16.1c-4.7-3.6-11.7-5.5-20.8-5.5c-3.4,0-7.1,0.4-11,1.2c-3.9,0.8-7.9,1.9-12.1,3.5
				v10.2c4-2.2,7.9-3.9,11.8-5.1c3.8-1.1,7.6-1.7,11.3-1.7c5.6,0,10,1.1,13,3.3c3.1,2.2,4.6,5.4,4.6,9.5c0,3.6-1.1,6.4-3.3,8.4
				c-2.2,2-5.8,3.5-10.8,4.5l-6,1.2c-7.4,1.5-12.7,3.8-16,6.9c-3.3,3.1-4.9,7.5-4.9,13c0,6.4,2.3,11.5,6.8,15.2
				c4.5,3.7,10.8,5.6,18.8,5.6c3.4,0,6.9-0.3,10.5-0.9C-1228-128.5-1224.4-129.4-1220.7-130.7"/>
		</g>
		<g>
			<path id="BitstreamVeraSans-Roman-74_3_" d="M-1192.4-131v-15.5h18.5v-7h-18.5v-29.7c0-4.5,0.6-7.3,1.8-8.6
				c1.2-1.3,3.7-1.9,7.5-1.9h9.2v-7.5h-9.2c-6.9,0-11.7,1.3-14.4,3.9c-2.6,2.6-4,7.3-4,14.1v29.7h-6.6v7h6.6v15.5H-1192.4z"/>
		</g>
		<g>
			<path id="BitstreamVeraSans-Roman-72_6_" d="M-1130.4-154.9c-1,0.6-2.1,1-3.3,1.3c-1.2,0.3-2.5,0.4-3.9,0.4c-5.1,0-9-1.7-11.7-5
				c-2.7-3.3-4.1-8-4.1-14.2v-28.8h-9v54.7h9v-8.5c1.9,3.3,4.4,5.8,7.4,7.4c3,1.6,6.7,2.4,11,2.4c0.6,0,1.3,0,2-0.1
				c0.8-0.1,1.6-0.2,2.5-0.4L-1130.4-154.9z"/>
		</g>
		<g>
			<path id="BitstreamVeraSans-Roman-65_10_" d="M-1076.5-171.6v-4.4h-41.3c0.4-6.2,2.3-10.9,5.6-14.1c3.3-3.2,8-4.9,13.9-4.9
				c3.4,0,6.8,0.4,10,1.3c3.2,0.8,6.5,2.1,9.7,3.8v-8.5c-3.2-1.4-6.5-2.4-9.9-3.1c-3.4-0.7-6.8-1.1-10.3-1.1
				c-8.7,0-15.6,2.5-20.7,7.6c-5.1,5.1-7.6,12-7.6,20.6c0,8.9,2.4,16,7.3,21.3c4.8,5.3,11.4,7.9,19.6,7.9c7.4,0,13.2-2.4,17.5-7.1
				C-1078.6-157-1076.5-163.4-1076.5-171.6 M-1085.5-168.9c-0.1,4.9-1.4,8.8-4.1,11.8c-2.7,2.9-6.2,4.4-10.7,4.4c-5,0-9-1.4-12-4.3
				c-3-2.8-4.7-6.8-5.2-12L-1085.5-168.9z"/>
		</g>
		<g>
			<path id="BitstreamVeraSans-Roman-73_2_" d="M-1026.9-148.1v-8.5c-2.5,1.3-5.2,2.3-7.9,2.9c-2.7,0.7-5.6,1-8.5,1
				c-4.5,0-7.8-0.7-10-2c-2.2-1.4-3.3-3.4-3.3-6.2c0-2.1,0.8-3.7,2.4-4.9s4.8-2.3,9.6-3.4l3.1-0.7c6.4-1.4,10.9-3.3,13.6-5.8
				c2.7-2.5,4-6,4-10.4c0-5.1-2-9.1-6-12.1c-4-3-9.5-4.4-16.6-4.4c-2.9,0-6,0.3-9.2,0.9c-3.2,0.6-6.5,1.4-10,2.6v9.3
				c3.3-1.7,6.6-3,9.8-3.9c3.2-0.9,6.4-1.3,9.6-1.3c4.2,0,7.5,0.7,9.8,2.2c2.3,1.4,3.4,3.5,3.4,6.1c0,2.4-0.8,4.3-2.5,5.6
				c-1.6,1.3-5.2,2.6-10.8,3.8l-3.1,0.7c-5.6,1.2-9.6,3-12.1,5.4c-2.5,2.4-3.7,5.8-3.7,10c0,5.1,1.8,9.1,5.5,11.9
				c3.6,2.8,8.8,4.2,15.5,4.2c3.3,0,6.4-0.2,9.4-0.7C-1032-146.4-1029.3-147.1-1026.9-148.1"/>
		</g>
		<g>
			<path id="BitstreamVeraSans-Roman-73_3_" d="M-974.8-148.1v-8.5c-2.5,1.3-5.2,2.3-7.9,2.9c-2.7,0.7-5.6,1-8.5,1
				c-4.5,0-7.8-0.7-10-2c-2.2-1.4-3.3-3.4-3.3-6.2c0-2.1,0.8-3.7,2.4-4.9c1.6-1.2,4.8-2.3,9.6-3.4l3.1-0.7
				c6.4-1.4,10.9-3.3,13.6-5.8c2.7-2.5,4-6,4-10.4c0-5.1-2-9.1-6-12.1c-4-3-9.5-4.4-16.6-4.4c-2.9,0-6,0.3-9.2,0.9
				c-3.2,0.6-6.5,1.4-10,2.6v9.3c3.3-1.7,6.6-3,9.8-3.9c3.2-0.9,6.4-1.3,9.6-1.3c4.2,0,7.5,0.7,9.8,2.2c2.3,1.4,3.4,3.5,3.4,6.1
				c0,2.4-0.8,4.3-2.5,5.6c-1.6,1.3-5.2,2.6-10.8,3.8l-3.1,0.7c-5.6,1.2-9.6,3-12.1,5.4c-2.5,2.4-3.7,5.8-3.7,10
				c0,5.1,1.8,9.1,5.5,11.9c3.6,2.8,8.8,4.2,15.5,4.2c3.3,0,6.4-0.2,9.4-0.7C-979.9-146.4-977.2-147.1-974.8-148.1"/>
		</g>
		<g>
			<path id="BitstreamVeraSans-Roman-20_10_" d="M-966.9-201.2"/>
		</g>
		<g>
			<path id="BitstreamVeraSans-Roman-76_2_" d="M-932.2-146.5h9.5l17.1-45.9l17.1,45.9h9.5l-20.5-54.7h-12.2L-932.2-146.5z"/>
		</g>
		<g>
			<path id="BitstreamVeraSans-Roman-2e_17_" d="M-873-188.8h10.3v-12.4H-873V-188.8z"/>
		</g>
		<g>
			<path id="BitstreamVeraSans-Roman-20_11_" d="M-851.9-201.2"/>
		</g>
		<g>
			<path id="BitstreamVeraSans-Roman-41_2_" d="M-786-138l-13.4-36.3h26.8L-786-138z M-791.5-128.3h11.2l27.8-72.9h-10.3l-6.6,18.7
				h-32.9l-6.6-18.7h-10.4L-791.5-128.3z"/>
		</g>
		<g>
			<path id="BitstreamVeraSans-Roman-66_3_" d="M-718.3-125.2v-7.5h-8.6c-3.2,0-5.5-0.7-6.7-2c-1.3-1.3-1.9-3.6-1.9-7v-4.8h14.8v-7
				h-14.8v-47.7h-9v47.7h-8.6v7h8.6v3.8c0,6.1,1.4,10.5,4.3,13.3c2.8,2.8,7.3,4.2,13.5,4.2H-718.3z"/>
		</g>
		<g>
			<path id="BitstreamVeraSans-Roman-74_4_" d="M-703.6-131v-15.5h18.5v-7h-18.5v-29.7c0-4.5,0.6-7.3,1.8-8.6
				c1.2-1.3,3.7-1.9,7.5-1.9h9.2v-7.5h-9.2c-6.9,0-11.7,1.3-14.4,3.9c-2.6,2.6-4,7.3-4,14.1v29.7h-6.6v7h6.6v15.5H-703.6z"/>
		</g>
		<g>
			<path id="BitstreamVeraSans-Roman-65_11_" d="M-626.5-171.6v-4.4h-41.3c0.4-6.2,2.3-10.9,5.6-14.1s8-4.9,13.9-4.9
				c3.4,0,6.8,0.4,10,1.3c3.2,0.8,6.5,2.1,9.7,3.8v-8.5c-3.2-1.4-6.5-2.4-9.9-3.1c-3.4-0.7-6.8-1.1-10.3-1.1
				c-8.7,0-15.6,2.5-20.7,7.6c-5.1,5.1-7.6,12-7.6,20.6c0,8.9,2.4,16,7.2,21.3c4.8,5.3,11.4,7.9,19.6,7.9c7.4,0,13.2-2.4,17.5-7.1
				C-628.6-157-626.5-163.4-626.5-171.6 M-635.5-168.9c-0.1,4.9-1.4,8.8-4.1,11.8c-2.7,2.9-6.2,4.4-10.7,4.4c-5,0-9-1.4-12-4.3
				c-3-2.8-4.7-6.8-5.2-12L-635.5-168.9z"/>
		</g>
		<g>
			<path id="BitstreamVeraSans-Roman-72_7_" d="M-580.1-154.9c-1,0.6-2.1,1-3.3,1.3c-1.2,0.3-2.5,0.4-3.9,0.4c-5.1,0-9-1.7-11.7-5
				c-2.7-3.3-4.1-8-4.1-14.2v-28.8h-9v54.7h9v-8.5c1.9,3.3,4.4,5.8,7.4,7.4c3,1.6,6.7,2.4,11,2.4c0.6,0,1.3,0,2-0.1
				c0.8-0.1,1.6-0.2,2.5-0.4L-580.1-154.9z"/>
		</g>
		<g>
			<path id="BitstreamVeraSans-Roman-3a_2_" d="M-570.1-188.8h10.3v-12.4h-10.3V-188.8z M-570.1-149.5h10.3v-12.4h-10.3V-149.5z"/>
		</g>
		<g>
			<path id="BitstreamVeraSans-Roman-20_12_" d="M-548.1-201.2"/>
		</g>
		<g>
			<path id="BitstreamVeraSans-Roman-70_2_" d="M-498.2-193v-29h-9v75.5h9v-8.3c1.9,3.3,4.3,5.7,7.2,7.2c2.9,1.6,6.3,2.4,10.3,2.4
				c6.6,0,12-2.6,16.2-7.9c4.2-5.3,6.2-12.2,6.2-20.8c0-8.6-2.1-15.5-6.2-20.8c-4.1-5.3-9.5-7.9-16.2-7.9c-4,0-7.4,0.8-10.3,2.4
				C-494-198.6-496.3-196.2-498.2-193 M-467.7-173.9c0,6.6-1.4,11.8-4.1,15.5c-2.7,3.8-6.5,5.6-11.2,5.6c-4.8,0-8.5-1.9-11.2-5.6
				c-2.7-3.8-4.1-8.9-4.1-15.5c0-6.6,1.4-11.8,4.1-15.5c2.7-3.8,6.5-5.6,11.2-5.6c4.8,0,8.5,1.9,11.2,5.6
				C-469-185.7-467.7-180.5-467.7-173.9"/>
		</g>
		<g>
			<path id="BitstreamVeraSans-Roman-3d_2_" d="M-442.3-155.8h62.6v-8.2h-62.6V-155.8z M-442.3-175.7h62.6v-8.3h-62.6V-175.7z"/>
		</g>
		<g>
			<path id="BitstreamVeraSans-Roman-30_33_" d="M-337.3-134.8c-5.1,0-8.9-2.5-11.5-7.5c-2.6-5-3.8-12.5-3.8-22.5
				c0-10,1.3-17.5,3.8-22.5c2.6-5,6.4-7.5,11.5-7.5c5.1,0,8.9,2.5,11.5,7.5c2.6,5,3.8,12.5,3.8,22.5c0,10-1.3,17.5-3.8,22.5
				C-328.3-137.3-332.2-134.8-337.3-134.8 M-337.3-127c8.2,0,14.4-3.2,18.7-9.7c4.3-6.5,6.5-15.8,6.5-28.1c0-12.3-2.2-21.6-6.5-28.1
				c-4.3-6.5-10.6-9.7-18.7-9.7c-8.2,0-14.4,3.2-18.7,9.7c-4.3,6.5-6.5,15.8-6.5,28.1c0,12.3,2.2,21.7,6.5,28.1
				C-351.7-130.2-345.5-127-337.3-127"/>
		</g>
		<g>
			<path id="BitstreamVeraSans-Roman-2e_18_" d="M-294.8-188.8h10.3v-12.4h-10.3V-188.8z"/>
		</g>
		<g>
			<path id="BitstreamVeraSans-Roman-30_34_" d="M-241.9-134.8c-5.1,0-8.9-2.5-11.5-7.5c-2.6-5-3.8-12.5-3.8-22.5
				c0-10,1.3-17.5,3.8-22.5c2.6-5,6.4-7.5,11.5-7.5c5.1,0,8.9,2.5,11.5,7.5c2.6,5,3.8,12.5,3.8,22.5c0,10-1.3,17.5-3.8,22.5
				C-232.9-137.3-236.8-134.8-241.9-134.8 M-241.9-127c8.2,0,14.4-3.2,18.7-9.7c4.3-6.5,6.5-15.8,6.5-28.1c0-12.3-2.2-21.6-6.5-28.1
				c-4.3-6.5-10.6-9.7-18.7-9.7c-8.2,0-14.4,3.2-18.7,9.7c-4.3,6.5-6.5,15.8-6.5,28.1c0,12.3,2.2,21.7,6.5,28.1
				C-256.3-130.2-250.1-127-241.9-127"/>
		</g>
		<g>
			<path id="BitstreamVeraSans-Roman-30_35_" d="M-178.3-134.8c-5.1,0-8.9-2.5-11.5-7.5c-2.6-5-3.8-12.5-3.8-22.5
				c0-10,1.3-17.5,3.8-22.5c2.6-5,6.4-7.5,11.5-7.5c5.1,0,8.9,2.5,11.5,7.5c2.6,5,3.8,12.5,3.8,22.5c0,10-1.3,17.5-3.8,22.5
				C-169.3-137.3-173.1-134.8-178.3-134.8 M-178.3-127c8.2,0,14.4-3.2,18.7-9.7c4.3-6.5,6.5-15.8,6.5-28.1c0-12.3-2.2-21.6-6.5-28.1
				c-4.3-6.5-10.6-9.7-18.7-9.7c-8.2,0-14.4,3.2-18.7,9.7c-4.3,6.5-6.5,15.8-6.5,28.1c0,12.3,2.2,21.7,6.5,28.1
				C-192.7-130.2-186.4-127-178.3-127"/>
		</g>
		<g>
			<path id="BitstreamVeraSans-Roman-30_36_" d="M-114.6-134.8c-5.1,0-8.9-2.5-11.5-7.5c-2.6-5-3.8-12.5-3.8-22.5
				c0-10,1.3-17.5,3.8-22.5c2.6-5,6.4-7.5,11.5-7.5c5.1,0,8.9,2.5,11.5,7.5c2.6,5,3.8,12.5,3.8,22.5c0,10-1.3,17.5-3.8,22.5
				C-105.7-137.3-109.5-134.8-114.6-134.8 M-114.6-127c8.2,0,14.4-3.2,18.7-9.7c4.3-6.5,6.5-15.8,6.5-28.1c0-12.3-2.2-21.6-6.5-28.1
				c-4.3-6.5-10.6-9.7-18.7-9.7c-8.2,0-14.4,3.2-18.7,9.7c-4.3,6.5-6.5,15.8-6.5,28.1c0,12.3,2.2,21.7,6.5,28.1
				C-129-130.2-122.8-127-114.6-127"/>
		</g>
		<g>
			<path id="BitstreamVeraSans-Roman-30_37_" d="M-51-134.8c-5.1,0-8.9-2.5-11.5-7.5c-2.6-5-3.8-12.5-3.8-22.5
				c0-10,1.3-17.5,3.8-22.5c2.6-5,6.4-7.5,11.5-7.5c5.1,0,8.9,2.5,11.5,7.5c2.6,5,3.8,12.5,3.8,22.5c0,10-1.3,17.5-3.8,22.5
				C-42.1-137.3-45.9-134.8-51-134.8 M-51-127c8.2,0,14.4-3.2,18.7-9.7c4.3-6.5,6.5-15.8,6.5-28.1c0-12.3-2.2-21.6-6.5-28.1
				c-4.3-6.5-10.6-9.7-18.7-9.7c-8.2,0-14.4,3.2-18.7,9.7c-4.3,6.5-6.5,15.8-6.5,28.1c0,12.3,2.2,21.7,6.5,28.1
				C-65.4-130.2-59.2-127-51-127"/>
		</g>
		<g>
			<path id="BitstreamVeraSans-Roman-30_38_" d="M12.6-134.8c-5.1,0-8.9-2.5-11.5-7.5c-2.6-5-3.8-12.5-3.8-22.5
				c0-10,1.3-17.5,3.8-22.5c2.6-5,6.4-7.5,11.5-7.5c5.1,0,8.9,2.5,11.5,7.5c2.6,5,3.8,12.5,3.8,22.5c0,10-1.3,17.5-3.8,22.5
				C21.6-137.3,17.7-134.8,12.6-134.8 M12.6-127c8.2,0,14.4-3.2,18.7-9.7c4.3-6.5,6.5-15.8,6.5-28.1c0-12.3-2.2-21.6-6.5-28.1
				c-4.3-6.5-10.6-9.7-18.7-9.7c-8.2,0-14.4,3.2-18.7,9.7c-4.3,6.5-6.5,15.8-6.5,28.1c0,12.3,2.2,21.7,6.5,28.1
				C-1.8-130.2,4.4-127,12.6-127"/>
		</g>
		<g>
			<path id="BitstreamVeraSans-Roman-30_39_" d="M76.2-134.8c-5.1,0-8.9-2.5-11.5-7.5c-2.6-5-3.8-12.5-3.8-22.5
				c0-10,1.3-17.5,3.8-22.5c2.6-5,6.4-7.5,11.5-7.5c5.1,0,8.9,2.5,11.5,7.5c2.6,5,3.8,12.5,3.8,22.5c0,10-1.3,17.5-3.8,22.5
				C85.2-137.3,81.3-134.8,76.2-134.8 M76.2-127c8.2,0,14.4-3.2,18.7-9.7c4.3-6.5,6.5-15.8,6.5-28.1c0-12.3-2.2-21.6-6.5-28.1
				c-4.3-6.5-10.6-9.7-18.7-9.7c-8.2,0-14.4,3.2-18.7,9.7c-4.3,6.5-6.5,15.8-6.5,28.1c0,12.3,2.2,21.7,6.5,28.1
				C61.8-130.2,68.1-127,76.2-127"/>
		</g>
	</g>
</g>
<g id="text_17">
	<g transform="translate(185.029875 38.2)scale(0.144 -0.144)">
		<g>
			<path id="BitstreamVeraSans-Roman-44_1_" d="M-723.4-567.1v-56.7h11.9c10.1,0,17.4,2.3,22.1,6.8c4.7,4.6,7,11.8,7,21.6
				c0,9.8-2.3,16.9-7,21.5c-4.7,4.5-12,6.8-22.1,6.8H-723.4z M-733.2-559h20.3c14.1,0,24.5-2.9,31.1-8.8c6.6-5.9,9.9-15.1,9.9-27.6
				c0-12.6-3.3-21.8-10-27.7c-6.6-5.9-17-8.8-31-8.8h-20.3V-559z"/>
		</g>
		<g>
			<path id="BitstreamVeraSans-Roman-69_1_" d="M-656.6-577.3h9v-54.7h-9V-577.3z M-656.6-556h9v-11.4h-9V-556z"/>
		</g>
		<g>
			<path id="BitstreamVeraSans-Roman-73_4_" d="M-594-578.9v-8.5c-2.5,1.3-5.2,2.3-7.9,2.9c-2.7,0.7-5.6,1-8.5,1
				c-4.5,0-7.8-0.7-10-2c-2.2-1.4-3.3-3.4-3.3-6.2c0-2.1,0.8-3.7,2.4-4.9c1.6-1.2,4.8-2.3,9.6-3.4l3.1-0.7
				c6.4-1.4,10.9-3.3,13.6-5.8c2.7-2.5,4-6,4-10.4c0-5.1-2-9.1-6-12.1c-4-3-9.5-4.4-16.6-4.4c-2.9,0-6,0.3-9.2,0.9
				c-3.2,0.6-6.5,1.4-10,2.6v9.3c3.3-1.7,6.6-3,9.8-3.9c3.2-0.9,6.4-1.3,9.6-1.3c4.2,0,7.5,0.7,9.8,2.2c2.3,1.4,3.4,3.5,3.4,6.1
				c0,2.4-0.8,4.3-2.5,5.6c-1.6,1.3-5.2,2.6-10.8,3.8l-3.1,0.7c-5.6,1.2-9.6,3-12.1,5.4c-2.5,2.4-3.7,5.8-3.7,10
				c0,5.1,1.8,9.1,5.5,11.9c3.6,2.8,8.8,4.2,15.5,4.2c3.3,0,6.4-0.2,9.4-0.7C-599.2-577.2-596.5-577.9-594-578.9"/>
		</g>
		<g>
			<path id="BitstreamVeraSans-Roman-74_5_" d="M-567.9-561.7v-15.5h18.5v-7h-18.5v-29.7c0-4.5,0.6-7.3,1.8-8.6
				c1.2-1.3,3.7-1.9,7.5-1.9h9.2v-7.5h-9.2c-6.9,0-11.7,1.3-14.4,3.9c-2.6,2.6-4,7.3-4,14.1v29.7h-6.6v7h6.6v15.5H-567.9z"/>
		</g>
		<g>
			<path id="BitstreamVeraSans-Roman-72_8_" d="M-505.9-585.6c-1,0.6-2.1,1-3.3,1.3c-1.2,0.3-2.5,0.4-3.9,0.4c-5.1,0-9-1.7-11.7-5
				c-2.7-3.3-4.1-8-4.1-14.2v-28.8h-9v54.7h9v-8.5c1.9,3.3,4.4,5.8,7.4,7.4c3,1.6,6.7,2.4,11,2.4c0.6,0,1.3,0,2-0.1
				c0.8-0.1,1.6-0.2,2.5-0.4L-505.9-585.6z"/>
		</g>
		<g>
			<path id="BitstreamVeraSans-Roman-69_2_" d="M-496.4-577.3h9v-54.7h-9V-577.3z M-496.4-556h9v-11.4h-9V-556z"/>
		</g>
		<g>
			<path id="BitstreamVeraSans-Roman-62" d="M-429.4-604.6c0,6.6-1.4,11.8-4.1,15.5c-2.7,3.8-6.5,5.6-11.2,5.6
				c-4.8,0-8.5-1.9-11.2-5.6c-2.7-3.8-4.1-8.9-4.1-15.5c0-6.6,1.4-11.8,4.1-15.5c2.7-3.8,6.5-5.6,11.2-5.6c4.8,0,8.5,1.9,11.2,5.6
				C-430.7-616.4-429.4-611.3-429.4-604.6 M-460-585.6c1.9,3.3,4.3,5.7,7.2,7.2c2.9,1.6,6.3,2.4,10.3,2.4c6.6,0,12-2.6,16.2-7.9
				c4.2-5.3,6.2-12.2,6.2-20.8c0-8.6-2.1-15.5-6.2-20.8c-4.1-5.3-9.5-7.9-16.2-7.9c-4,0-7.4,0.8-10.3,2.4c-2.9,1.6-5.3,4-7.2,7.3
				v-8.2h-9v76h9V-585.6z"/>
		</g>
		<g>
			<path id="BitstreamVeraSans-Roman-75_1_" d="M-406.1-610.4v33.1h9V-610c0-5.2,1-9.1,3-11.7c2-2.6,5.1-3.9,9.1-3.9
				c4.8,0,8.7,1.5,11.5,4.6c2.8,3.1,4.2,7.3,4.2,12.7v31h9v-54.7h-9v8.4c-2.2-3.3-4.7-5.8-7.6-7.4c-2.9-1.6-6.2-2.4-10-2.4
				c-6.3,0-11.1,2-14.3,5.9C-404.5-623.6-406.1-617.9-406.1-610.4"/>
		</g>
		<g>
			<path id="BitstreamVeraSans-Roman-74_6_" d="M-332.9-561.7v-15.5h18.5v-7h-18.5v-29.7c0-4.5,0.6-7.3,1.8-8.6
				c1.2-1.3,3.7-1.9,7.5-1.9h9.2v-7.5h-9.2c-6.9,0-11.7,1.3-14.4,3.9c-2.6,2.6-4,7.3-4,14.1v29.7h-6.6v7h6.6v15.5H-332.9z"/>
		</g>
		<g>
			<path id="BitstreamVeraSans-Roman-69_3_" d="M-302.6-577.3h9v-54.7h-9V-577.3z M-302.6-556h9v-11.4h-9V-556z"/>
		</g>
		<g>
			<path id="BitstreamVeraSans-Roman-6f_2_" d="M-253.6-583.6c-4.8,0-8.6-1.9-11.4-5.6c-2.8-3.8-4.2-8.9-4.2-15.5
				c0-6.5,1.4-11.7,4.2-15.5c2.8-3.8,6.6-5.6,11.5-5.6c4.8,0,8.6,1.9,11.4,5.7c2.8,3.8,4.2,8.9,4.2,15.4c0,6.5-1.4,11.6-4.2,15.4
				C-245-585.4-248.8-583.6-253.6-583.6 M-253.6-575.9c7.8,0,13.9-2.5,18.4-7.6c4.5-5.1,6.7-12.1,6.7-21.1c0-8.9-2.2-16-6.7-21.1
				c-4.5-5.1-10.6-7.6-18.4-7.6c-7.8,0-14,2.5-18.4,7.6c-4.4,5.1-6.7,12.1-6.7,21.1c0,9,2.2,16,6.7,21.1
				C-267.6-578.5-261.5-575.9-253.6-575.9"/>
		</g>
		<g>
			<path id="BitstreamVeraSans-Roman-6e_1_" d="M-168.1-598.9v-33h-9v32.7c0,5.2-1,9-3,11.6c-2,2.6-5,3.9-9.1,3.9
				c-4.9,0-8.7-1.5-11.5-4.6c-2.8-3.1-4.2-7.3-4.2-12.6v-30.9h-9v54.7h9v-8.5c2.2,3.3,4.7,5.8,7.6,7.4c2.9,1.6,6.3,2.4,10.1,2.4
				c6.3,0,11-1.9,14.3-5.8C-169.8-585.7-168.1-591.4-168.1-598.9"/>
		</g>
		<g>
			<path id="BitstreamVeraSans-Roman-20_13_" d="M-159.7-631.9"/>
		</g>
		<g>
			<path id="BitstreamVeraSans-Roman-6f_3_" d="M-97.3-583.6c-4.8,0-8.6-1.9-11.4-5.6c-2.8-3.8-4.2-8.9-4.2-15.5
				c0-6.5,1.4-11.7,4.2-15.5c2.8-3.8,6.6-5.6,11.5-5.6c4.8,0,8.6,1.9,11.4,5.7c2.8,3.8,4.2,8.9,4.2,15.4c0,6.5-1.4,11.6-4.2,15.4
				C-88.7-585.4-92.5-583.6-97.3-583.6 M-97.3-575.9c7.8,0,13.9-2.5,18.4-7.6c4.5-5.1,6.7-12.1,6.7-21.1c0-8.9-2.2-16-6.7-21.1
				c-4.5-5.1-10.6-7.6-18.4-7.6c-7.8,0-14,2.5-18.4,7.6c-4.4,5.1-6.7,12.1-6.7,21.1c0,9,2.2,16,6.7,21.1
				C-111.3-578.5-105.1-575.9-97.3-575.9"/>
		</g>
		<g>
			<path id="BitstreamVeraSans-Roman-66_4_" d="M-29.6-556v-7.5h-8.6c-3.2,0-5.5-0.7-6.7-2c-1.3-1.3-1.9-3.6-1.9-7v-4.8H-32v-7
				h-14.8v-47.7h-9v47.7h-8.6v7h8.6v3.8c0,6.1,1.4,10.5,4.3,13.3c2.8,2.8,7.3,4.2,13.5,4.2H-29.6z"/>
		</g>
		<g>
			<path id="BitstreamVeraSans-Roman-20_14_" d="M-31.5-631.9"/>
		</g>
		<g>
			<path id="BitstreamVeraSans-Roman-50" d="M20-567.1v-27.4h12.4c4.6,0,8.1,1.2,10.6,3.6c2.5,2.4,3.8,5.8,3.8,10.2
				c0,4.4-1.3,7.7-3.8,10.1c-2.5,2.4-6,3.6-10.6,3.6H20z M10.1-559h22.3c8.2,0,14.4-1.8,18.5-5.5c4.2-3.7,6.3-9.1,6.3-16.2
				c0-7.2-2.1-12.6-6.3-16.3c-4.2-3.7-10.4-5.5-18.5-5.5H20v-29.3h-9.9V-559z"/>
		</g>
		<g>
			<path id="BitstreamVeraSans-Roman-75_2_" d="M67.4-610.4v33.1h9V-610c0-5.2,1-9.1,3-11.7c2-2.6,5.1-3.9,9.1-3.9
				c4.8,0,8.7,1.5,11.5,4.6c2.8,3.1,4.2,7.3,4.2,12.7v31h9v-54.7h-9v8.4c-2.2-3.3-4.7-5.8-7.6-7.4c-2.9-1.6-6.2-2.4-10-2.4
				c-6.3,0-11.1,2-14.3,5.9C69-623.6,67.4-617.9,67.4-610.4"/>
		</g>
		<g>
			<path id="BitstreamVeraSans-Roman-70_3_" d="M140.3-623.7v-29h-9v75.5h9v-8.3c1.9,3.3,4.3,5.7,7.2,7.2c2.9,1.6,6.3,2.4,10.3,2.4
				c6.6,0,12-2.6,16.2-7.9c4.2-5.3,6.2-12.2,6.2-20.8c0-8.6-2.1-15.5-6.2-20.8c-4.1-5.3-9.5-7.9-16.2-7.9c-4,0-7.4,0.8-10.3,2.4
				C144.6-629.4,142.2-627,140.3-623.7 M170.9-604.6c0,6.6-1.4,11.8-4.1,15.5c-2.7,3.8-6.5,5.6-11.2,5.6c-4.8,0-8.5-1.9-11.2-5.6
				c-2.7-3.8-4.1-8.9-4.1-15.5c0-6.6,1.4-11.8,4.1-15.5c2.7-3.8,6.5-5.6,11.2-5.6c4.8,0,8.5,1.9,11.2,5.6
				C169.6-616.4,170.9-611.3,170.9-604.6"/>
		</g>
		<g>
			<path id="BitstreamVeraSans-Roman-69_4_" d="M195.1-577.3h9v-54.7h-9V-577.3z M195.1-556h9v-11.4h-9V-556z"/>
		</g>
		<g>
			<path id="BitstreamVeraSans-Roman-6c" d="M222.9-556h9v-76h-9V-556z"/>
		</g>
		<g>
			<path id="BitstreamVeraSans-Roman-20_15_" d="M241.3-631.9"/>
		</g>
		<g>
			<path id="BitstreamVeraSans-Roman-44_2_" d="M292.7-567.1v-56.7h11.9c10.1,0,17.4,2.3,22.1,6.8c4.7,4.6,7,11.8,7,21.6
				c0,9.8-2.3,16.9-7,21.5c-4.7,4.5-12,6.8-22.1,6.8H292.7z M282.9-559h20.3c14.1,0,24.5-2.9,31.1-8.8c6.6-5.9,9.9-15.1,9.9-27.6
				c0-12.6-3.3-21.8-10-27.7c-6.6-5.9-17-8.8-31-8.8h-20.3V-559z"/>
		</g>
		<g>
			<path id="BitstreamVeraSans-Roman-69_5_" d="M359.5-577.3h9v-54.7h-9V-577.3z M359.5-556h9v-11.4h-9V-556z"/>
		</g>
		<g>
			<path id="BitstreamVeraSans-Roman-61_1_" d="M412.1-604.5c-7.3,0-12.3-0.8-15.1-2.5s-4.2-4.5-4.2-8.5c0-3.2,1.1-5.7,3.2-7.6
				c2.1-1.9,5-2.8,8.6-2.8c5,0,9,1.8,12,5.3c3,3.5,4.5,8.2,4.5,14.1v2H412.1z M430.1-600.7v-31.2h-9v8.3c-2.1-3.3-4.6-5.8-7.7-7.3
				c-3.1-1.6-6.8-2.4-11.2-2.4c-5.6,0-10,1.6-13.4,4.7c-3.3,3.1-5,7.4-5,12.6c0,6.1,2.1,10.8,6.2,13.9c4.1,3.1,10.3,4.7,18.4,4.7
				h12.6v0.9c0,4.1-1.4,7.3-4.1,9.6c-2.7,2.3-6.5,3.4-11.5,3.4c-3.1,0-6.2-0.4-9.1-1.1c-3-0.8-5.8-1.9-8.5-3.4v8.3
				c3.3,1.3,6.5,2.2,9.6,2.8c3.1,0.6,6.1,1,9,1c7.9,0,13.8-2.1,17.7-6.2C428.1-586.2,430.1-592.4,430.1-600.7"/>
		</g>
		<g>
			<path id="BitstreamVeraSans-Roman-6d_1_" d="M491.1-587.8c2.3,4,4.9,7,8.1,8.9c3.1,1.9,6.8,2.9,11,2.9c5.7,0,10.1-2,13.2-6
				c3.1-4,4.6-9.6,4.6-17v-33h-9v32.7c0,5.2-0.9,9.1-2.8,11.7c-1.9,2.5-4.7,3.8-8.5,3.8c-4.7,0-8.3-1.5-11-4.6
				c-2.7-3.1-4-7.3-4-12.6v-30.9h-9v32.7c0,5.3-0.9,9.2-2.8,11.7c-1.9,2.5-4.7,3.8-8.6,3.8c-4.6,0-8.2-1.6-11-4.7
				c-2.7-3.1-4-7.3-4-12.6v-30.9h-9v54.7h9v-8.5c2.1,3.4,4.5,5.8,7.4,7.4c2.9,1.6,6.3,2.4,10.2,2.4c4,0,7.4-1,10.1-3
				C487.7-581,489.8-583.9,491.1-587.8"/>
		</g>
		<g>
			<path id="BitstreamVeraSans-Roman-65_12_" d="M592.7-602.4v-4.4h-41.3c0.4-6.2,2.3-10.9,5.6-14.1c3.3-3.2,8-4.9,13.9-4.9
				c3.4,0,6.8,0.4,10,1.3c3.2,0.8,6.5,2.1,9.7,3.8v-8.5c-3.2-1.4-6.5-2.4-9.9-3.1c-3.4-0.7-6.8-1.1-10.3-1.1
				c-8.7,0-15.6,2.5-20.7,7.6c-5.1,5.1-7.6,12-7.6,20.6c0,8.9,2.4,16,7.2,21.3c4.8,5.3,11.4,7.9,19.6,7.9c7.4,0,13.2-2.4,17.5-7.1
				C590.6-587.8,592.7-594.2,592.7-602.4 M583.8-599.7c-0.1,4.9-1.4,8.8-4.1,11.8c-2.7,2.9-6.2,4.4-10.7,4.4c-5,0-9-1.4-12-4.3
				c-3-2.8-4.7-6.8-5.2-12L583.8-599.7z"/>
		</g>
		<g>
			<path id="BitstreamVeraSans-Roman-74_7_" d="M616.4-561.7v-15.5h18.5v-7h-18.5v-29.7c0-4.5,0.6-7.3,1.8-8.6
				c1.2-1.3,3.7-1.9,7.5-1.9h9.2v-7.5h-9.2c-6.9,0-11.7,1.3-14.4,3.9c-2.6,2.6-4,7.3-4,14.1v29.7h-6.6v7h6.6v15.5H616.4z"/>
		</g>
		<g>
			<path id="BitstreamVeraSans-Roman-65_13_" d="M693.5-602.4v-4.4h-41.3c0.4-6.2,2.3-10.9,5.6-14.1c3.3-3.2,8-4.9,13.9-4.9
				c3.4,0,6.8,0.4,10,1.3c3.2,0.8,6.5,2.1,9.7,3.8v-8.5c-3.2-1.4-6.5-2.4-9.9-3.1c-3.4-0.7-6.8-1.1-10.3-1.1
				c-8.7,0-15.6,2.5-20.7,7.6c-5.1,5.1-7.6,12-7.6,20.6c0,8.9,2.4,16,7.2,21.3c4.8,5.3,11.4,7.9,19.6,7.9c7.4,0,13.2-2.4,17.5-7.1
				C691.3-587.8,693.5-594.2,693.5-602.4 M684.5-599.7c-0.1,4.9-1.4,8.8-4.1,11.8c-2.7,2.9-6.2,4.4-10.7,4.4c-5,0-9-1.4-12-4.3
				c-3-2.8-4.7-6.8-5.2-12L684.5-599.7z"/>
		</g>
		<g>
			<path id="BitstreamVeraSans-Roman-72_9_" d="M739.9-585.6c-1,0.6-2.1,1-3.3,1.3c-1.2,0.3-2.5,0.4-3.9,0.4c-5.1,0-9-1.7-11.7-5
				c-2.7-3.3-4.1-8-4.1-14.2v-28.8h-9v54.7h9v-8.5c1.9,3.3,4.4,5.8,7.4,7.4c3,1.6,6.7,2.4,11,2.4c0.6,0,1.3,0,2-0.1
				c0.8-0.1,1.6-0.2,2.5-0.4L739.9-585.6z"/>
		</g>
		<g>
			<path id="BitstreamVeraSans-Roman-73_5_" d="M784.2-578.9v-8.5c-2.5,1.3-5.2,2.3-7.9,2.9c-2.7,0.7-5.6,1-8.5,1
				c-4.5,0-7.8-0.7-10-2c-2.2-1.4-3.3-3.4-3.3-6.2c0-2.1,0.8-3.7,2.4-4.9c1.6-1.2,4.8-2.3,9.6-3.4l3.1-0.7
				c6.4-1.4,10.9-3.3,13.6-5.8c2.7-2.5,4-6,4-10.4c0-5.1-2-9.1-6-12.1c-4-3-9.5-4.4-16.6-4.4c-2.9,0-6,0.3-9.2,0.9
				c-3.2,0.6-6.5,1.4-10,2.6v9.3c3.3-1.7,6.6-3,9.8-3.9c3.2-0.9,6.4-1.3,9.6-1.3c4.2,0,7.5,0.7,9.8,2.2c2.3,1.4,3.4,3.5,3.4,6.1
				c0,2.4-0.8,4.3-2.5,5.6c-1.6,1.3-5.2,2.6-10.8,3.8l-3.1,0.7c-5.6,1.2-9.6,3-12.1,5.4c-2.5,2.4-3.7,5.8-3.7,10
				c0,5.1,1.8,9.1,5.5,11.9c3.6,2.8,8.8,4.2,15.5,4.2c3.3,0,6.4-0.2,9.4-0.7C779-577.2,781.7-577.9,784.2-578.9"/>
		</g>
	</g>
</g>
<g id="legend_1">
	<g id="patch_7">
		<path class="st15" d="M246.2,209.1h158v-67.7h-158V209.1z"/>
	</g>
	<g id="line2d_33">
		<path class="st16" d="M256.3,153.1h20.2"/>
	</g>
	<g id="line2d_34">
	</g>
	<g id="text_18">
		<g transform="translate(399.32325 67.10175)scale(0.144 -0.144)">
			<g>
				<path id="BitstreamVeraSans-Roman-52" d="M-698.7-597.8c2.1-0.7,4.2-2.2,6.2-4.6c2-2.3,4-5.6,6-9.7l10-19.9h-10.6l-9.3,18.7
					c-2.4,4.9-4.8,8.1-7,9.7c-2.3,1.6-5.3,2.4-9.3,2.4h-10.8v-30.8h-9.9v72.9h22.3c8.3,0,14.6-1.7,18.7-5.2
					c4.1-3.5,6.2-8.7,6.2-15.8c0-4.6-1.1-8.4-3.2-11.4C-691.5-594.5-694.6-596.6-698.7-597.8 M-723.4-567.1V-593h12.4
					c4.8,0,8.3,1.1,10.8,3.3c2.4,2.2,3.6,5.4,3.6,9.7c0,4.3-1.2,7.5-3.6,9.6c-2.4,2.2-6,3.3-10.8,3.3H-723.4z"/>
			</g>
			<g>
				<path id="BitstreamVeraSans-Roman-65_14_" d="M-621.9-602.4v-4.4h-41.3c0.4-6.2,2.3-10.9,5.6-14.1c3.3-3.2,8-4.9,13.9-4.9
					c3.4,0,6.8,0.4,10,1.3c3.2,0.8,6.5,2.1,9.7,3.8v-8.5c-3.2-1.4-6.5-2.4-9.9-3.1c-3.4-0.7-6.8-1.1-10.3-1.1
					c-8.7,0-15.6,2.5-20.7,7.6c-5.1,5.1-7.6,12-7.6,20.6c0,8.9,2.4,16,7.2,21.3c4.8,5.3,11.4,7.9,19.6,7.9c7.4,0,13.2-2.4,17.5-7.1
					C-624-587.8-621.9-594.2-621.9-602.4 M-630.9-599.7c-0.1,4.9-1.4,8.8-4.1,11.8c-2.7,2.9-6.2,4.4-10.7,4.4c-5,0-9-1.4-12-4.3
					c-3-2.8-4.7-6.8-5.2-12L-630.9-599.7z"/>
			</g>
			<g>
				<path id="BitstreamVeraSans-Roman-67" d="M-571.1-604c0,6.5-1.3,11.6-4,15.1c-2.7,3.6-6.4,5.4-11.3,5.4c-4.8,0-8.6-1.8-11.3-5.4
					c-2.7-3.6-4-8.6-4-15.1c0-6.5,1.3-11.5,4-15.1c2.7-3.6,6.4-5.4,11.3-5.4c4.9,0,8.6,1.8,11.3,5.4
					C-572.5-615.5-571.1-610.4-571.1-604 M-562.2-625.2c0-9.3-2.1-16.2-6.2-20.8c-4.1-4.5-10.5-6.8-19-6.8c-3.2,0-6.1,0.2-8.9,0.7
					c-2.8,0.5-5.5,1.2-8.2,2.2v8.7c2.6-1.4,5.2-2.5,7.8-3.2c2.6-0.7,5.2-1,7.9-1c5.9,0,10.3,1.5,13.2,4.6c2.9,3.1,4.4,7.7,4.4,13.9
					v4.5c-1.9-3.2-4.2-5.6-7.1-7.2c-2.9-1.6-6.4-2.4-10.4-2.4c-6.7,0-12.1,2.6-16.2,7.7c-4.1,5.1-6.2,11.9-6.2,20.3
					c0,8.5,2.1,15.2,6.2,20.3c4.1,5.1,9.5,7.7,16.2,7.7c4,0,7.5-0.8,10.4-2.4c2.9-1.6,5.3-4,7.1-7.2v8.3h9V-625.2z"/>
			</g>
			<g>
				<path id="BitstreamVeraSans-Roman-75_3_" d="M-544.6-610.4v33.1h9V-610c0-5.2,1-9.1,3-11.7c2-2.6,5.1-3.9,9.1-3.9
					c4.8,0,8.7,1.5,11.5,4.6c2.8,3.1,4.2,7.3,4.2,12.7v31h9v-54.7h-9v8.4c-2.2-3.3-4.7-5.8-7.6-7.4c-2.9-1.6-6.2-2.4-10-2.4
					c-6.3,0-11.1,2-14.3,5.9C-542.9-623.6-544.6-617.9-544.6-610.4"/>
			</g>
			<g>
				<path id="BitstreamVeraSans-Roman-6c_1_" d="M-480.3-556h9v-76h-9V-556z"/>
			</g>
			<g>
				<path id="BitstreamVeraSans-Roman-61_2_" d="M-427.6-604.5c-7.3,0-12.3-0.8-15.1-2.5s-4.2-4.5-4.2-8.5c0-3.2,1.1-5.7,3.2-7.6
					c2.1-1.9,5-2.8,8.6-2.8c5,0,9,1.8,12,5.3c3,3.5,4.5,8.2,4.5,14.1v2H-427.6z M-409.7-600.7v-31.2h-9v8.3
					c-2.1-3.3-4.6-5.8-7.7-7.3c-3.1-1.6-6.8-2.4-11.2-2.4c-5.6,0-10,1.6-13.4,4.7c-3.3,3.1-5,7.4-5,12.6c0,6.1,2.1,10.8,6.2,13.9
					c4.1,3.1,10.3,4.7,18.4,4.7h12.6v0.9c0,4.1-1.4,7.3-4.1,9.6c-2.7,2.3-6.5,3.4-11.5,3.4c-3.1,0-6.2-0.4-9.1-1.1
					c-3-0.8-5.8-1.9-8.5-3.4v8.3c3.3,1.3,6.5,2.2,9.6,2.8c3.1,0.6,6.1,1,9,1c7.9,0,13.8-2.1,17.7-6.2
					C-411.7-586.2-409.7-592.4-409.7-600.7"/>
			</g>
			<g>
				<path id="BitstreamVeraSans-Roman-72_10_" d="M-359.5-585.6c-1,0.6-2.1,1-3.3,1.3c-1.2,0.3-2.5,0.4-3.9,0.4c-5.1,0-9-1.7-11.7-5
					c-2.7-3.3-4.1-8-4.1-14.2v-28.8h-9v54.7h9v-8.5c1.9,3.3,4.4,5.8,7.4,7.4c3,1.6,6.7,2.4,11,2.4c0.6,0,1.3,0,2-0.1
					c0.8-0.1,1.6-0.2,2.5-0.4L-359.5-585.6z"/>
			</g>
			<g>
				<path id="BitstreamVeraSans-Roman-20_16_" d="M-359.5-631.9"/>
			</g>
			<g>
				<path id="BitstreamVeraSans-Roman-42_2_" d="M-308.1-597.1v-26.7h15.8c5.3,0,9.2,1.1,11.8,3.3c2.6,2.2,3.8,5.6,3.8,10.1
					c0,4.6-1.3,7.9-3.8,10.1c-2.6,2.2-6.5,3.3-11.8,3.3H-308.1z M-308.1-567.1v-22h14.6c4.8,0,8.4,0.9,10.8,2.7
					c2.4,1.8,3.5,4.6,3.5,8.3c0,3.7-1.2,6.4-3.5,8.3c-2.4,1.8-5.9,2.7-10.8,2.7H-308.1z M-317.9-559h25.2c7.5,0,13.3-1.6,17.4-4.7
					c4.1-3.1,6.1-7.6,6.1-13.3c0-4.5-1-8-3.1-10.7c-2.1-2.6-5.1-4.3-9.2-4.9c4.9-1,8.6-3.2,11.3-6.5c2.7-3.3,4-7.4,4-12.4
					c0-6.5-2.2-11.5-6.6-15.1c-4.4-3.5-10.7-5.3-18.9-5.3h-26.2V-559z"/>
			</g>
			<g>
				<path id="BitstreamVeraSans-Roman-65_15_" d="M-202.9-602.4v-4.4h-41.3c0.4-6.2,2.3-10.9,5.6-14.1c3.3-3.2,8-4.9,13.9-4.9
					c3.4,0,6.8,0.4,10,1.3c3.2,0.8,6.5,2.1,9.7,3.8v-8.5c-3.2-1.4-6.5-2.4-9.9-3.1c-3.4-0.7-6.8-1.1-10.3-1.1
					c-8.7,0-15.6,2.5-20.7,7.6c-5.1,5.1-7.6,12-7.6,20.6c0,8.9,2.4,16,7.2,21.3c4.8,5.3,11.4,7.9,19.6,7.9c7.4,0,13.2-2.4,17.5-7.1
					C-205.1-587.8-202.9-594.2-202.9-602.4 M-211.9-599.7c-0.1,4.9-1.4,8.8-4.1,11.8c-2.7,2.9-6.2,4.4-10.7,4.4c-5,0-9-1.4-12-4.3
					c-3-2.8-4.7-6.8-5.2-12L-211.9-599.7z"/>
			</g>
			<g>
				<path id="BitstreamVeraSans-Roman-66_5_" d="M-160.5-556v-7.5h-8.6c-3.2,0-5.5-0.7-6.7-2c-1.3-1.3-1.9-3.6-1.9-7v-4.8h14.8v-7
					h-14.8v-47.7h-9v47.7h-8.6v7h8.6v3.8c0,6.1,1.4,10.5,4.3,13.3c2.8,2.8,7.3,4.2,13.5,4.2H-160.5z"/>
			</g>
			<g>
				<path id="BitstreamVeraSans-Roman-6f_4_" d="M-131.8-583.6c-4.8,0-8.6-1.9-11.4-5.6c-2.8-3.8-4.2-8.9-4.2-15.5
					c0-6.5,1.4-11.7,4.2-15.5c2.8-3.8,6.6-5.6,11.5-5.6c4.8,0,8.6,1.9,11.4,5.7c2.8,3.8,4.2,8.9,4.2,15.4c0,6.5-1.4,11.6-4.2,15.4
					C-123.2-585.4-127-583.6-131.8-583.6 M-131.8-575.9c7.8,0,13.9-2.5,18.4-7.6c4.5-5.1,6.7-12.1,6.7-21.1c0-8.9-2.2-16-6.7-21.1
					c-4.5-5.1-10.6-7.6-18.4-7.6c-7.8,0-14,2.5-18.4,7.6c-4.4,5.1-6.7,12.1-6.7,21.1c0,9,2.2,16,6.7,21.1
					C-145.8-578.5-139.6-575.9-131.8-575.9"/>
			</g>
			<g>
				<path id="BitstreamVeraSans-Roman-72_11_" d="M-60.1-585.6c-1,0.6-2.1,1-3.3,1.3c-1.2,0.3-2.5,0.4-3.9,0.4c-5.1,0-9-1.7-11.7-5
					c-2.7-3.3-4.1-8-4.1-14.2v-28.8h-9v54.7h9v-8.5c1.9,3.3,4.4,5.8,7.4,7.4c3,1.6,6.7,2.4,11,2.4c0.6,0,1.3,0,2-0.1
					c0.8-0.1,1.6-0.2,2.5-0.4L-60.1-585.6z"/>
			</g>
			<g>
				<path id="BitstreamVeraSans-Roman-65_16_" d="M-6.2-602.4v-4.4h-41.3c0.4-6.2,2.3-10.9,5.6-14.1c3.3-3.2,8-4.9,13.9-4.9
					c3.4,0,6.8,0.4,10,1.3c3.2,0.8,6.5,2.1,9.7,3.8v-8.5c-3.2-1.4-6.5-2.4-9.9-3.1c-3.4-0.7-6.8-1.1-10.3-1.1
					c-8.7,0-15.6,2.5-20.7,7.6c-5.1,5.1-7.6,12-7.6,20.6c0,8.9,2.4,16,7.2,21.3c4.8,5.3,11.4,7.9,19.6,7.9c7.4,0,13.2-2.4,17.5-7.1
					C-8.3-587.8-6.2-594.2-6.2-602.4 M-15.1-599.7c-0.1,4.9-1.4,8.8-4.1,11.8c-2.7,2.9-6.2,4.4-10.7,4.4c-5,0-9-1.4-12-4.3
					c-3-2.8-4.7-6.8-5.2-12L-15.1-599.7z"/>
			</g>
		</g>
	</g>
	<g id="line2d_35">
		<path class="st17" d="M256.3,174.2h20.2"/>
	</g>
	<g id="line2d_36">
	</g>
	<g id="text_19">
		<g transform="translate(399.32325 88.23825)scale(0.144 -0.144)">
			<g>
				<path id="BitstreamVeraSans-Roman-53_2_" d="M-689.5-561.4v-9.6c-3.7,1.8-7.3,3.1-10.6,4c-3.3,0.9-6.5,1.3-9.6,1.3
					c-5.4,0-9.5-1-12.4-3.1c-2.9-2.1-4.4-5-4.4-8.9c0-3.2,1-5.7,2.9-7.3c1.9-1.6,5.6-3,11-4l6-1.2c7.4-1.4,12.8-3.9,16.3-7.4
					c3.5-3.5,5.3-8.3,5.3-14.2c0-7.1-2.4-12.4-7.1-16.1c-4.7-3.6-11.7-5.5-20.8-5.5c-3.4,0-7.1,0.4-11,1.2
					c-3.9,0.8-7.9,1.9-12.1,3.5v10.2c4-2.2,7.9-3.9,11.8-5.1c3.8-1.1,7.6-1.7,11.3-1.7c5.6,0,10,1.1,13,3.3c3.1,2.2,4.6,5.4,4.6,9.5
					c0,3.6-1.1,6.4-3.3,8.4c-2.2,2-5.8,3.5-10.8,4.5l-6,1.2c-7.4,1.5-12.7,3.8-16,6.9c-3.3,3.1-4.9,7.5-4.9,13
					c0,6.4,2.3,11.5,6.8,15.2c4.5,3.7,10.8,5.6,18.8,5.6c3.4,0,6.9-0.3,10.5-0.9C-696.9-559.3-693.2-560.2-689.5-561.4"/>
			</g>
			<g>
				<path id="BitstreamVeraSans-Roman-74_8_" d="M-661.3-561.7v-15.5h18.5v-7h-18.5v-29.7c0-4.5,0.6-7.3,1.8-8.6
					c1.2-1.3,3.7-1.9,7.5-1.9h9.2v-7.5h-9.2c-6.9,0-11.7,1.3-14.4,3.9c-2.6,2.6-4,7.3-4,14.1v29.7h-6.6v7h6.6v15.5H-661.3z"/>
			</g>
			<g>
				<path id="BitstreamVeraSans-Roman-72_12_" d="M-599.3-585.6c-1,0.6-2.1,1-3.3,1.3c-1.2,0.3-2.5,0.4-3.9,0.4c-5.1,0-9-1.7-11.7-5
					c-2.7-3.3-4.1-8-4.1-14.2v-28.8h-9v54.7h9v-8.5c1.9,3.3,4.4,5.8,7.4,7.4c3,1.6,6.7,2.4,11,2.4c0.6,0,1.3,0,2-0.1
					c0.8-0.1,1.6-0.2,2.5-0.4L-599.3-585.6z"/>
			</g>
			<g>
				<path id="BitstreamVeraSans-Roman-65_17_" d="M-545.3-602.4v-4.4h-41.3c0.4-6.2,2.3-10.9,5.6-14.1c3.3-3.2,8-4.9,13.9-4.9
					c3.4,0,6.8,0.4,10,1.3c3.2,0.8,6.5,2.1,9.7,3.8v-8.5c-3.2-1.4-6.5-2.4-9.9-3.1c-3.4-0.7-6.8-1.1-10.3-1.1
					c-8.7,0-15.6,2.5-20.7,7.6c-5.1,5.1-7.6,12-7.6,20.6c0,8.9,2.4,16,7.2,21.3c4.8,5.3,11.4,7.9,19.6,7.9c7.4,0,13.2-2.4,17.5-7.1
					C-547.4-587.8-545.3-594.2-545.3-602.4 M-554.3-599.7c-0.1,4.9-1.4,8.8-4.1,11.8c-2.7,2.9-6.2,4.4-10.7,4.4c-5,0-9-1.4-12-4.3
					c-3-2.8-4.7-6.8-5.2-12L-554.3-599.7z"/>
			</g>
			<g>
				<path id="BitstreamVeraSans-Roman-73_6_" d="M-495.7-578.9v-8.5c-2.5,1.3-5.2,2.3-7.9,2.9c-2.7,0.7-5.6,1-8.5,1
					c-4.5,0-7.8-0.7-10-2c-2.2-1.4-3.3-3.4-3.3-6.2c0-2.1,0.8-3.7,2.4-4.9c1.6-1.2,4.8-2.3,9.6-3.4l3.1-0.7
					c6.4-1.4,10.9-3.3,13.6-5.8c2.7-2.5,4-6,4-10.4c0-5.1-2-9.1-6-12.1c-4-3-9.5-4.4-16.6-4.4c-2.9,0-6,0.3-9.2,0.9
					c-3.2,0.6-6.5,1.4-10,2.6v9.3c3.3-1.7,6.6-3,9.8-3.9c3.2-0.9,6.4-1.3,9.6-1.3c4.2,0,7.5,0.7,9.7,2.2c2.3,1.4,3.4,3.5,3.4,6.1
					c0,2.4-0.8,4.3-2.5,5.6c-1.6,1.3-5.2,2.6-10.8,3.8l-3.1,0.7c-5.6,1.2-9.6,3-12.1,5.4c-2.5,2.4-3.7,5.8-3.7,10
					c0,5.1,1.8,9.1,5.5,11.9c3.6,2.8,8.8,4.2,15.5,4.2c3.3,0,6.4-0.2,9.4-0.7C-500.9-577.2-498.2-577.9-495.7-578.9"/>
			</g>
			<g>
				<path id="BitstreamVeraSans-Roman-73_7_" d="M-443.6-578.9v-8.5c-2.5,1.3-5.2,2.3-7.9,2.9c-2.7,0.7-5.6,1-8.5,1
					c-4.5,0-7.8-0.7-10-2c-2.2-1.4-3.3-3.4-3.3-6.2c0-2.1,0.8-3.7,2.4-4.9c1.6-1.2,4.8-2.3,9.6-3.4l3.1-0.7
					c6.4-1.4,10.9-3.3,13.6-5.8c2.7-2.5,4-6,4-10.4c0-5.1-2-9.1-6-12.1c-4-3-9.5-4.4-16.6-4.4c-2.9,0-6,0.3-9.2,0.9
					c-3.2,0.6-6.5,1.4-10,2.6v9.3c3.3-1.7,6.6-3,9.8-3.9c3.2-0.9,6.4-1.3,9.6-1.3c4.2,0,7.5,0.7,9.8,2.2c2.3,1.4,3.4,3.5,3.4,6.1
					c0,2.4-0.8,4.3-2.5,5.6c-1.6,1.3-5.2,2.6-10.8,3.8l-3.1,0.7c-5.6,1.2-9.6,3-12.1,5.4c-2.5,2.4-3.7,5.8-3.7,10
					c0,5.1,1.8,9.1,5.5,11.9c3.6,2.8,8.8,4.2,15.5,4.2c3.3,0,6.4-0.2,9.4-0.7C-448.8-577.2-446.1-577.9-443.6-578.9"/>
			</g>
		</g>
	</g>
	<g id="line2d_37">
		<path class="st18" d="M256.3,195.3h20.2"/>
	</g>
	<g id="line2d_38">
	</g>
	<g id="text_20">
		<g transform="translate(399.32325 109.37475)scale(0.144 -0.144)">
			<g>
				<path id="BitstreamVeraSans-Roman-52_1_" d="M-698.7-597.8c2.1-0.7,4.2-2.2,6.2-4.6c2-2.3,4-5.6,6-9.7l10-19.9h-10.6l-9.3,18.7
					c-2.4,4.9-4.8,8.1-7,9.7c-2.3,1.6-5.3,2.4-9.3,2.4h-10.8v-30.8h-9.9v72.9h22.3c8.3,0,14.6-1.7,18.7-5.2
					c4.1-3.5,6.2-8.7,6.2-15.8c0-4.6-1.1-8.4-3.2-11.4C-691.5-594.5-694.6-596.6-698.7-597.8 M-723.4-567.1V-593h12.4
					c4.8,0,8.3,1.1,10.8,3.3c2.4,2.2,3.6,5.4,3.6,9.7c0,4.3-1.2,7.5-3.6,9.6c-2.4,2.2-6,3.3-10.8,3.3H-723.4z"/>
			</g>
			<g>
				<path id="BitstreamVeraSans-Roman-65_18_" d="M-621.9-602.4v-4.4h-41.3c0.4-6.2,2.3-10.9,5.6-14.1c3.3-3.2,8-4.9,13.9-4.9
					c3.4,0,6.8,0.4,10,1.3c3.2,0.8,6.5,2.1,9.7,3.8v-8.5c-3.2-1.4-6.5-2.4-9.9-3.1c-3.4-0.7-6.8-1.1-10.3-1.1
					c-8.7,0-15.6,2.5-20.7,7.6c-5.1,5.1-7.6,12-7.6,20.6c0,8.9,2.4,16,7.2,21.3c4.8,5.3,11.4,7.9,19.6,7.9c7.4,0,13.2-2.4,17.5-7.1
					C-624-587.8-621.9-594.2-621.9-602.4 M-630.9-599.7c-0.1,4.9-1.4,8.8-4.1,11.8c-2.7,2.9-6.2,4.4-10.7,4.4c-5,0-9-1.4-12-4.3
					c-3-2.8-4.7-6.8-5.2-12L-630.9-599.7z"/>
			</g>
			<g>
				<path id="BitstreamVeraSans-Roman-67_1_" d="M-571.1-604c0,6.5-1.3,11.6-4,15.1c-2.7,3.6-6.4,5.4-11.3,5.4
					c-4.8,0-8.6-1.8-11.3-5.4c-2.7-3.6-4-8.6-4-15.1c0-6.5,1.3-11.5,4-15.1c2.7-3.6,6.4-5.4,11.3-5.4c4.9,0,8.6,1.8,11.3,5.4
					C-572.5-615.5-571.1-610.4-571.1-604 M-562.2-625.2c0-9.3-2.1-16.2-6.2-20.8c-4.1-4.5-10.5-6.8-19-6.8c-3.2,0-6.1,0.2-8.9,0.7
					c-2.8,0.5-5.5,1.2-8.2,2.2v8.7c2.6-1.4,5.2-2.5,7.8-3.2c2.6-0.7,5.2-1,7.9-1c5.9,0,10.3,1.5,13.2,4.6c2.9,3.1,4.4,7.7,4.4,13.9
					v4.5c-1.9-3.2-4.2-5.6-7.1-7.2c-2.9-1.6-6.4-2.4-10.4-2.4c-6.7,0-12.1,2.6-16.2,7.7c-4.1,5.1-6.2,11.9-6.2,20.3
					c0,8.5,2.1,15.2,6.2,20.3c4.1,5.1,9.5,7.7,16.2,7.7c4,0,7.5-0.8,10.4-2.4c2.9-1.6,5.3-4,7.1-7.2v8.3h9V-625.2z"/>
			</g>
			<g>
				<path id="BitstreamVeraSans-Roman-75_4_" d="M-544.6-610.4v33.1h9V-610c0-5.2,1-9.1,3-11.7c2-2.6,5.1-3.9,9.1-3.9
					c4.8,0,8.7,1.5,11.5,4.6c2.8,3.1,4.2,7.3,4.2,12.7v31h9v-54.7h-9v8.4c-2.2-3.3-4.7-5.8-7.6-7.4c-2.9-1.6-6.2-2.4-10-2.4
					c-6.3,0-11.1,2-14.3,5.9C-542.9-623.6-544.6-617.9-544.6-610.4"/>
			</g>
			<g>
				<path id="BitstreamVeraSans-Roman-6c_2_" d="M-480.3-556h9v-76h-9V-556z"/>
			</g>
			<g>
				<path id="BitstreamVeraSans-Roman-61_3_" d="M-427.6-604.5c-7.3,0-12.3-0.8-15.1-2.5s-4.2-4.5-4.2-8.5c0-3.2,1.1-5.7,3.2-7.6
					c2.1-1.9,5-2.8,8.6-2.8c5,0,9,1.8,12,5.3c3,3.5,4.5,8.2,4.5,14.1v2H-427.6z M-409.7-600.7v-31.2h-9v8.3
					c-2.1-3.3-4.6-5.8-7.7-7.3c-3.1-1.6-6.8-2.4-11.2-2.4c-5.6,0-10,1.6-13.4,4.7c-3.3,3.1-5,7.4-5,12.6c0,6.1,2.1,10.8,6.2,13.9
					c4.1,3.1,10.3,4.7,18.4,4.7h12.6v0.9c0,4.1-1.4,7.3-4.1,9.6c-2.7,2.3-6.5,3.4-11.5,3.4c-3.1,0-6.2-0.4-9.1-1.1
					c-3-0.8-5.8-1.9-8.5-3.4v8.3c3.3,1.3,6.5,2.2,9.6,2.8c3.1,0.6,6.1,1,9,1c7.9,0,13.8-2.1,17.7-6.2
					C-411.7-586.2-409.7-592.4-409.7-600.7"/>
			</g>
			<g>
				<path id="BitstreamVeraSans-Roman-72_13_" d="M-359.5-585.6c-1,0.6-2.1,1-3.3,1.3c-1.2,0.3-2.5,0.4-3.9,0.4c-5.1,0-9-1.7-11.7-5
					c-2.7-3.3-4.1-8-4.1-14.2v-28.8h-9v54.7h9v-8.5c1.9,3.3,4.4,5.8,7.4,7.4c3,1.6,6.7,2.4,11,2.4c0.6,0,1.3,0,2-0.1
					c0.8-0.1,1.6-0.2,2.5-0.4L-359.5-585.6z"/>
			</g>
			<g>
				<path id="BitstreamVeraSans-Roman-20_17_" d="M-359.5-631.9"/>
			</g>
			<g>
				<path id="BitstreamVeraSans-Roman-41_3_" d="M-293.5-568.8l-13.4-36.3h26.8L-293.5-568.8z M-299.1-559h11.2l27.8-72.9h-10.3
					l-6.6,18.7h-32.9l-6.6-18.7H-327L-299.1-559z"/>
			</g>
			<g>
				<path id="BitstreamVeraSans-Roman-66_6_" d="M-225.8-556v-7.5h-8.6c-3.2,0-5.5-0.7-6.7-2c-1.3-1.3-1.9-3.6-1.9-7v-4.8h14.8v-7
					H-243v-47.7h-9v47.7h-8.6v7h8.6v3.8c0,6.1,1.4,10.5,4.3,13.3c2.8,2.8,7.3,4.2,13.5,4.2H-225.8z"/>
			</g>
			<g>
				<path id="BitstreamVeraSans-Roman-74_9_" d="M-211.2-561.7v-15.5h18.5v-7h-18.5v-29.7c0-4.5,0.6-7.3,1.8-8.6
					c1.2-1.3,3.7-1.9,7.5-1.9h9.2v-7.5h-9.2c-6.9,0-11.7,1.3-14.4,3.9c-2.6,2.6-4,7.3-4,14.1v29.7h-6.6v7h6.6v15.5H-211.2z"/>
			</g>
			<g>
				<path id="BitstreamVeraSans-Roman-65_19_" d="M-134.1-602.4v-4.4h-41.3c0.4-6.2,2.3-10.9,5.6-14.1c3.3-3.2,8-4.9,13.9-4.9
					c3.4,0,6.8,0.4,10,1.3c3.2,0.8,6.5,2.1,9.7,3.8v-8.5c-3.2-1.4-6.5-2.4-9.9-3.1c-3.4-0.7-6.8-1.1-10.3-1.1
					c-8.7,0-15.6,2.5-20.7,7.6c-5.1,5.1-7.6,12-7.6,20.6c0,8.9,2.4,16,7.2,21.3c4.8,5.3,11.4,7.9,19.6,7.9c7.4,0,13.2-2.4,17.5-7.1
					C-136.2-587.8-134.1-594.2-134.1-602.4 M-143.1-599.7c-0.1,4.9-1.4,8.8-4.1,11.8c-2.7,2.9-6.2,4.4-10.7,4.4c-5,0-9-1.4-12-4.3
					c-3-2.8-4.7-6.8-5.2-12L-143.1-599.7z"/>
			</g>
			<g>
				<path id="BitstreamVeraSans-Roman-72_14_" d="M-87.7-585.6c-1,0.6-2.1,1-3.3,1.3c-1.2,0.3-2.5,0.4-3.9,0.4c-5.1,0-9-1.7-11.7-5
					c-2.7-3.3-4.1-8-4.1-14.2v-28.8h-9v54.7h9v-8.5c1.9,3.3,4.4,5.8,7.4,7.4c3,1.6,6.7,2.4,11,2.4c0.6,0,1.3,0,2-0.1
					c0.8-0.1,1.6-0.2,2.5-0.4L-87.7-585.6z"/>
			</g>
		</g>
	</g>
</g>
</svg>
