<?xml version="1.0" encoding="utf-8" standalone="no"?>
<!DOCTYPE svg PUBLIC "-//W3C//DTD SVG 1.1//EN"
  "http://www.w3.org/Graphics/SVG/1.1/DTD/svg11.dtd">
<!-- Created with matplotlib (http://matplotlib.org/) -->
<svg height="432pt" version="1.1" viewBox="0 0 576 432" width="576pt" xmlns="http://www.w3.org/2000/svg" xmlns:xlink="http://www.w3.org/1999/xlink">
 <defs>
  <style type="text/css">
*{stroke-linecap:butt;stroke-linejoin:round;}
  </style>
 </defs>
 <g id="figure_1">
  <g id="patch_1">
   <path d="
M0 432
L576 432
L576 0
L0 0
z
" style="fill:#ffffff;"/>
  </g>
  <g id="axes_1">
   <g id="patch_2">
    <path d="
M41.9491 402.44
L254.774 402.44
L254.774 238.28
L41.9491 238.28
z
" style="fill:#ffffff;"/>
   </g>
   <g id="line2d_1">
    <path clip-path="url(#p12b1442ff1)" d="
M42.8004 301.008
L43.6517 313.364
L44.503 308.058
L45.3543 316.33
L46.2056 288.375
L47.0569 306.468
L47.9082 305.393
L48.7595 308.852
L49.6108 302.393
L50.4621 302.752
L51.3133 306.86
L52.1646 275.611
L53.0159 276.088
L54.7185 300.539
L55.5698 291.7
L57.2724 320.956
L58.1237 315.943
L58.975 289.23
L59.8263 288.558
L60.6776 295.099
L61.5289 304.431
L62.3802 297.813
L63.2315 306.273
L64.0828 297.055
L64.9341 313.865
L65.7854 314.852
L66.6367 300.6
L67.488 272.482
L68.3393 304.879
L69.1906 297.617
L70.0419 312.861
L70.8932 273.134
L71.7445 288.13
L72.5958 288.008
L73.4471 292.959
L74.2984 306.419
L75.1497 312.63
L76.001 312.483
L76.8523 286.321
L77.7036 281.577
L78.5549 302.515
L79.4062 302.393
L80.2575 303.534
L81.1088 278.676
L81.9601 305.674
L82.8114 293.754
L83.6627 273.02
L84.514 275.721
L85.3653 278.961
L86.2166 301.945
L87.9192 319.623
L88.7705 304.561
L89.6218 277.372
L90.4731 264.718
L91.3244 300.551
L92.1757 313.355
L93.027 307.263
L93.8783 284.316
L94.7296 305.93
L95.5809 298.351
L96.4322 271.096
L97.2835 282.303
L98.1348 310.772
L99.8374 256.833
L100.689 254.143
L101.54 301.456
L102.391 286.614
L103.243 296.24
L104.094 270.464
L104.945 279.572
L105.796 304.146
L106.648 309.464
L107.499 282.934
L108.35 276.822
L109.202 312.434
L110.053 293.46
L110.904 288.68
L111.756 296.737
L112.607 310.054
L113.458 280.958
L114.309 305.307
L116.012 272.543
L116.863 310.014
L117.715 300.076
L118.566 303.779
L119.417 273.582
L120.269 295.78
L121.12 308.791
L121.971 270.831
L122.822 284.768
L123.674 272.482
L124.525 292.165
L125.376 269.205
L126.228 294.691
L127.079 297.666
L127.93 303.453
L128.782 313.217
L129.633 292.226
L130.484 277.665
L131.335 294.487
L132.187 295.771
L133.038 315.613
L133.889 286.419
L134.741 301.7
L135.592 308.913
L136.443 291.125
L137.295 310.772
L138.146 307.397
L138.997 307.789
L139.848 327.333
L140.7 325.149
L141.551 324.929
L142.402 300.405
L143.254 299.182
L144.105 318.351
L144.956 308.852
L145.808 294.487
L146.659 293.204
L147.51 288.925
L148.361 300.274
L149.213 277.005
L150.064 283.648
L150.915 276.638
L151.767 305.327
L152.618 274.438
L153.469 279.878
L154.321 270.477
L155.172 296.321
L156.023 279.45
L156.874 306.322
L157.726 297.36
L158.577 279.246
L159.428 317.862
L160.28 305.246
L161.131 296.077
L161.982 298.644
L162.833 309.728
L163.685 282.079
L164.536 316.86
L165.387 308.18
L166.239 276.761
L167.09 311.481
L167.941 294.634
L168.793 288.717
L169.644 290.086
L170.495 303.473
L171.346 298.889
L172.198 315.637
L173.049 325.703
L173.9 312.764
L174.752 292.654
L175.603 290.331
L176.454 290.331
L177.306 310.931
L178.157 288.334
L179.008 310.014
L179.859 306.509
L180.711 319.819
L181.562 290.372
L182.413 304.207
L183.265 286.358
L184.116 294.39
L184.967 309.5
L185.819 310.075
L186.67 278.008
L187.521 276.883
L188.372 287.111
L189.224 305.882
L190.075 291.268
L190.926 312.744
L191.778 285.604
L192.629 283.668
L193.48 303.412
L194.332 291.187
L195.183 285.746
L196.034 272.971
L196.885 283.289
L197.737 303.241
L198.588 261.316
L199.439 285.074
L200.291 283.191
L201.142 288.089
L201.993 313.559
L202.845 284.022
L203.696 305.857
L205.398 318.449
L206.25 296.871
L207.101 292.837
L207.952 286.052
L208.804 281.773
L209.655 274.438
L210.506 311.97
L211.358 295.465
L212.209 317.043
L213.06 312.948
L213.911 325.051
L214.763 321.057
L214.763 321.057" style="fill:none;stroke:#ff0000;stroke-linecap:square;"/>
   </g>
   <g id="line2d_2">
    <path clip-path="url(#p12b1442ff1)" d="
M42.8004 296.1
L214.763 296.643
L214.763 296.643" style="fill:none;stroke:#ff0000;stroke-dasharray:6.000000,6.000000;stroke-dashoffset:0.0;"/>
   </g>
   <g id="patch_3">
    <path d="
M41.9491 238.28
L254.774 238.28" style="fill:none;stroke:#000000;stroke-linecap:square;stroke-linejoin:miter;"/>
   </g>
   <g id="patch_4">
    <path d="
M254.774 402.44
L254.774 238.28" style="fill:none;stroke:#000000;stroke-linecap:square;stroke-linejoin:miter;"/>
   </g>
   <g id="patch_5">
    <path d="
M41.9491 402.44
L254.774 402.44" style="fill:none;stroke:#000000;stroke-linecap:square;stroke-linejoin:miter;"/>
   </g>
   <g id="patch_6">
    <path d="
M41.9491 402.44
L41.9491 238.28" style="fill:none;stroke:#000000;stroke-linecap:square;stroke-linejoin:miter;"/>
   </g>
   <g id="matplotlib.axis_1">
    <g id="xtick_1">
     <g id="line2d_3">
      <defs>
       <path d="
M0 0
L0 -4" id="m93b0483c22" style="stroke:#000000;stroke-width:0.5;"/>
      </defs>
      <g>
       <use style="stroke:#000000;stroke-width:0.5;" x="41.9490625" xlink:href="#m93b0483c22" y="402.44"/>
      </g>
     </g>
     <g id="line2d_4">
      <defs>
       <path d="
M0 0
L0 4" id="m741efc42ff" style="stroke:#000000;stroke-width:0.5;"/>
      </defs>
      <g>
       <use style="stroke:#000000;stroke-width:0.5;" x="41.9490625" xlink:href="#m741efc42ff" y="238.28"/>
      </g>
     </g>
     <g id="text_1">
      <!-- 0 -->
      <defs>
       <path d="
M31.7812 66.4062
Q24.1719 66.4062 20.3281 58.9062
Q16.5 51.4219 16.5 36.375
Q16.5 21.3906 20.3281 13.8906
Q24.1719 6.39062 31.7812 6.39062
Q39.4531 6.39062 43.2812 13.8906
Q47.125 21.3906 47.125 36.375
Q47.125 51.4219 43.2812 58.9062
Q39.4531 66.4062 31.7812 66.4062
M31.7812 74.2188
Q44.0469 74.2188 50.5156 64.5156
Q56.9844 54.8281 56.9844 36.375
Q56.9844 17.9688 50.5156 8.26562
Q44.0469 -1.42188 31.7812 -1.42188
Q19.5312 -1.42188 13.0625 8.26562
Q6.59375 17.9688 6.59375 36.375
Q6.59375 54.8281 13.0625 64.5156
Q19.5312 74.2188 31.7812 74.2188" id="BitstreamVeraSans-Roman-30"/>
      </defs>
      <g transform="translate(38.925625 415.558125)scale(0.12 -0.12)">
       <use xlink:href="#BitstreamVeraSans-Roman-30"/>
      </g>
     </g>
    </g>
    <g id="xtick_2">
     <g id="line2d_5">
      <g>
       <use style="stroke:#000000;stroke-width:0.5;" x="84.5140028409" xlink:href="#m93b0483c22" y="402.44"/>
      </g>
     </g>
     <g id="line2d_6">
      <g>
       <use style="stroke:#000000;stroke-width:0.5;" x="84.5140028409" xlink:href="#m741efc42ff" y="238.28"/>
      </g>
     </g>
     <g id="text_2">
      <!-- 50 -->
      <defs>
       <path d="
M10.7969 72.9062
L49.5156 72.9062
L49.5156 64.5938
L19.8281 64.5938
L19.8281 46.7344
Q21.9688 47.4688 24.1094 47.8281
Q26.2656 48.1875 28.4219 48.1875
Q40.625 48.1875 47.75 41.5
Q54.8906 34.8125 54.8906 23.3906
Q54.8906 11.625 47.5625 5.09375
Q40.2344 -1.42188 26.9062 -1.42188
Q22.3125 -1.42188 17.5469 -0.640625
Q12.7969 0.140625 7.71875 1.70312
L7.71875 11.625
Q12.1094 9.23438 16.7969 8.0625
Q21.4844 6.89062 26.7031 6.89062
Q35.1562 6.89062 40.0781 11.3281
Q45.0156 15.7656 45.0156 23.3906
Q45.0156 31 40.0781 35.4375
Q35.1562 39.8906 26.7031 39.8906
Q22.75 39.8906 18.8125 39.0156
Q14.8906 38.1406 10.7969 36.2812
z
" id="BitstreamVeraSans-Roman-35"/>
      </defs>
      <g transform="translate(77.7405653409 415.558125)scale(0.12 -0.12)">
       <use xlink:href="#BitstreamVeraSans-Roman-35"/>
       <use x="63.623046875" xlink:href="#BitstreamVeraSans-Roman-30"/>
      </g>
     </g>
    </g>
    <g id="xtick_3">
     <g id="line2d_7">
      <g>
       <use style="stroke:#000000;stroke-width:0.5;" x="127.078943182" xlink:href="#m93b0483c22" y="402.44"/>
      </g>
     </g>
     <g id="line2d_8">
      <g>
       <use style="stroke:#000000;stroke-width:0.5;" x="127.078943182" xlink:href="#m741efc42ff" y="238.28"/>
      </g>
     </g>
     <g id="text_3">
      <!-- 100 -->
      <defs>
       <path d="
M12.4062 8.29688
L28.5156 8.29688
L28.5156 63.9219
L10.9844 60.4062
L10.9844 69.3906
L28.4219 72.9062
L38.2812 72.9062
L38.2812 8.29688
L54.3906 8.29688
L54.3906 0
L12.4062 0
z
" id="BitstreamVeraSans-Roman-31"/>
      </defs>
      <g transform="translate(116.683943182 415.558125)scale(0.12 -0.12)">
       <use xlink:href="#BitstreamVeraSans-Roman-31"/>
       <use x="63.623046875" xlink:href="#BitstreamVeraSans-Roman-30"/>
       <use x="127.24609375" xlink:href="#BitstreamVeraSans-Roman-30"/>
      </g>
     </g>
    </g>
    <g id="xtick_4">
     <g id="line2d_9">
      <g>
       <use style="stroke:#000000;stroke-width:0.5;" x="169.643883523" xlink:href="#m93b0483c22" y="402.44"/>
      </g>
     </g>
     <g id="line2d_10">
      <g>
       <use style="stroke:#000000;stroke-width:0.5;" x="169.643883523" xlink:href="#m741efc42ff" y="238.28"/>
      </g>
     </g>
     <g id="text_4">
      <!-- 150 -->
      <g transform="translate(159.248883523 415.558125)scale(0.12 -0.12)">
       <use xlink:href="#BitstreamVeraSans-Roman-31"/>
       <use x="63.623046875" xlink:href="#BitstreamVeraSans-Roman-35"/>
       <use x="127.24609375" xlink:href="#BitstreamVeraSans-Roman-30"/>
      </g>
     </g>
    </g>
    <g id="xtick_5">
     <g id="line2d_11">
      <g>
       <use style="stroke:#000000;stroke-width:0.5;" x="212.208823864" xlink:href="#m93b0483c22" y="402.44"/>
      </g>
     </g>
     <g id="line2d_12">
      <g>
       <use style="stroke:#000000;stroke-width:0.5;" x="212.208823864" xlink:href="#m741efc42ff" y="238.28"/>
      </g>
     </g>
     <g id="text_5">
      <!-- 200 -->
      <defs>
       <path d="
M19.1875 8.29688
L53.6094 8.29688
L53.6094 0
L7.32812 0
L7.32812 8.29688
Q12.9375 14.1094 22.625 23.8906
Q32.3281 33.6875 34.8125 36.5312
Q39.5469 41.8438 41.4219 45.5312
Q43.3125 49.2188 43.3125 52.7812
Q43.3125 58.5938 39.2344 62.25
Q35.1562 65.9219 28.6094 65.9219
Q23.9688 65.9219 18.8125 64.3125
Q13.6719 62.7031 7.8125 59.4219
L7.8125 69.3906
Q13.7656 71.7812 18.9375 73
Q24.125 74.2188 28.4219 74.2188
Q39.75 74.2188 46.4844 68.5469
Q53.2188 62.8906 53.2188 53.4219
Q53.2188 48.9219 51.5312 44.8906
Q49.8594 40.875 45.4062 35.4062
Q44.1875 33.9844 37.6406 27.2188
Q31.1094 20.4531 19.1875 8.29688" id="BitstreamVeraSans-Roman-32"/>
      </defs>
      <g transform="translate(201.594448864 415.558125)scale(0.12 -0.12)">
       <use xlink:href="#BitstreamVeraSans-Roman-32"/>
       <use x="63.623046875" xlink:href="#BitstreamVeraSans-Roman-30"/>
       <use x="127.24609375" xlink:href="#BitstreamVeraSans-Roman-30"/>
      </g>
     </g>
    </g>
    <g id="xtick_6">
     <g id="line2d_13">
      <g>
       <use style="stroke:#000000;stroke-width:0.5;" x="254.773764205" xlink:href="#m93b0483c22" y="402.44"/>
      </g>
     </g>
     <g id="line2d_14">
      <g>
       <use style="stroke:#000000;stroke-width:0.5;" x="254.773764205" xlink:href="#m741efc42ff" y="238.28"/>
      </g>
     </g>
     <g id="text_6">
      <!-- 250 -->
      <g transform="translate(244.159389205 415.558125)scale(0.12 -0.12)">
       <use xlink:href="#BitstreamVeraSans-Roman-32"/>
       <use x="63.623046875" xlink:href="#BitstreamVeraSans-Roman-35"/>
       <use x="127.24609375" xlink:href="#BitstreamVeraSans-Roman-30"/>
      </g>
     </g>
    </g>
   </g>
   <g id="matplotlib.axis_2">
    <g id="ytick_1">
     <g id="line2d_15">
      <defs>
       <path d="
M0 0
L4 0" id="m728421d6d4" style="stroke:#000000;stroke-width:0.5;"/>
      </defs>
      <g>
       <use style="stroke:#000000;stroke-width:0.5;" x="41.9490625" xlink:href="#m728421d6d4" y="387.516363636"/>
      </g>
     </g>
     <g id="line2d_16">
      <defs>
       <path d="
M0 0
L-4 0" id="mcb0005524f" style="stroke:#000000;stroke-width:0.5;"/>
      </defs>
      <g>
       <use style="stroke:#000000;stroke-width:0.5;" x="254.773764205" xlink:href="#mcb0005524f" y="387.516363636"/>
      </g>
     </g>
     <g id="text_7">
      <!-- 0.30 -->
      <defs>
       <path d="
M40.5781 39.3125
Q47.6562 37.7969 51.625 33
Q55.6094 28.2188 55.6094 21.1875
Q55.6094 10.4062 48.1875 4.48438
Q40.7656 -1.42188 27.0938 -1.42188
Q22.5156 -1.42188 17.6562 -0.515625
Q12.7969 0.390625 7.625 2.20312
L7.625 11.7188
Q11.7188 9.32812 16.5938 8.10938
Q21.4844 6.89062 26.8125 6.89062
Q36.0781 6.89062 40.9375 10.5469
Q45.7969 14.2031 45.7969 21.1875
Q45.7969 27.6406 41.2812 31.2656
Q36.7656 34.9062 28.7188 34.9062
L20.2188 34.9062
L20.2188 43.0156
L29.1094 43.0156
Q36.375 43.0156 40.2344 45.9219
Q44.0938 48.8281 44.0938 54.2969
Q44.0938 59.9062 40.1094 62.9062
Q36.1406 65.9219 28.7188 65.9219
Q24.6562 65.9219 20.0156 65.0312
Q15.375 64.1562 9.8125 62.3125
L9.8125 71.0938
Q15.4375 72.6562 20.3438 73.4375
Q25.25 74.2188 29.5938 74.2188
Q40.8281 74.2188 47.3594 69.1094
Q53.9062 64.0156 53.9062 55.3281
Q53.9062 49.2656 50.4375 45.0938
Q46.9688 40.9219 40.5781 39.3125" id="BitstreamVeraSans-Roman-33"/>
       <path d="
M10.6875 12.4062
L21 12.4062
L21 0
L10.6875 0
z
" id="BitstreamVeraSans-Roman-2e"/>
      </defs>
      <g transform="translate(12.8184375 390.827613636)scale(0.12 -0.12)">
       <use xlink:href="#BitstreamVeraSans-Roman-30"/>
       <use x="63.623046875" xlink:href="#BitstreamVeraSans-Roman-2e"/>
       <use x="95.41015625" xlink:href="#BitstreamVeraSans-Roman-33"/>
       <use x="159.033203125" xlink:href="#BitstreamVeraSans-Roman-30"/>
      </g>
     </g>
    </g>
    <g id="ytick_2">
     <g id="line2d_17">
      <g>
       <use style="stroke:#000000;stroke-width:0.5;" x="41.9490625" xlink:href="#m728421d6d4" y="350.207272727"/>
      </g>
     </g>
     <g id="line2d_18">
      <g>
       <use style="stroke:#000000;stroke-width:0.5;" x="254.773764205" xlink:href="#mcb0005524f" y="350.207272727"/>
      </g>
     </g>
     <g id="text_8">
      <!-- 0.35 -->
      <g transform="translate(13.0696875 353.518522727)scale(0.12 -0.12)">
       <use xlink:href="#BitstreamVeraSans-Roman-30"/>
       <use x="63.623046875" xlink:href="#BitstreamVeraSans-Roman-2e"/>
       <use x="95.41015625" xlink:href="#BitstreamVeraSans-Roman-33"/>
       <use x="159.033203125" xlink:href="#BitstreamVeraSans-Roman-35"/>
      </g>
     </g>
    </g>
    <g id="ytick_3">
     <g id="line2d_19">
      <g>
       <use style="stroke:#000000;stroke-width:0.5;" x="41.9490625" xlink:href="#m728421d6d4" y="312.898181818"/>
      </g>
     </g>
     <g id="line2d_20">
      <g>
       <use style="stroke:#000000;stroke-width:0.5;" x="254.773764205" xlink:href="#mcb0005524f" y="312.898181818"/>
      </g>
     </g>
     <g id="text_9">
      <!-- 0.40 -->
      <defs>
       <path d="
M37.7969 64.3125
L12.8906 25.3906
L37.7969 25.3906
z

M35.2031 72.9062
L47.6094 72.9062
L47.6094 25.3906
L58.0156 25.3906
L58.0156 17.1875
L47.6094 17.1875
L47.6094 0
L37.7969 0
L37.7969 17.1875
L4.89062 17.1875
L4.89062 26.7031
z
" id="BitstreamVeraSans-Roman-34"/>
      </defs>
      <g transform="translate(12.8184375 316.209431818)scale(0.12 -0.12)">
       <use xlink:href="#BitstreamVeraSans-Roman-30"/>
       <use x="63.623046875" xlink:href="#BitstreamVeraSans-Roman-2e"/>
       <use x="95.41015625" xlink:href="#BitstreamVeraSans-Roman-34"/>
       <use x="159.033203125" xlink:href="#BitstreamVeraSans-Roman-30"/>
      </g>
     </g>
    </g>
    <g id="ytick_4">
     <g id="line2d_21">
      <g>
       <use style="stroke:#000000;stroke-width:0.5;" x="41.9490625" xlink:href="#m728421d6d4" y="275.589090909"/>
      </g>
     </g>
     <g id="line2d_22">
      <g>
       <use style="stroke:#000000;stroke-width:0.5;" x="254.773764205" xlink:href="#mcb0005524f" y="275.589090909"/>
      </g>
     </g>
     <g id="text_10">
      <!-- 0.45 -->
      <g transform="translate(13.0696875 278.900340909)scale(0.12 -0.12)">
       <use xlink:href="#BitstreamVeraSans-Roman-30"/>
       <use x="63.623046875" xlink:href="#BitstreamVeraSans-Roman-2e"/>
       <use x="95.41015625" xlink:href="#BitstreamVeraSans-Roman-34"/>
       <use x="159.033203125" xlink:href="#BitstreamVeraSans-Roman-35"/>
      </g>
     </g>
    </g>
    <g id="ytick_5">
     <g id="line2d_23">
      <g>
       <use style="stroke:#000000;stroke-width:0.5;" x="41.9490625" xlink:href="#m728421d6d4" y="238.28"/>
      </g>
     </g>
     <g id="line2d_24">
      <g>
       <use style="stroke:#000000;stroke-width:0.5;" x="254.773764205" xlink:href="#mcb0005524f" y="238.28"/>
      </g>
     </g>
     <g id="text_11">
      <!-- 0.50 -->
      <g transform="translate(12.8184375 241.59125)scale(0.12 -0.12)">
       <use xlink:href="#BitstreamVeraSans-Roman-30"/>
       <use x="63.623046875" xlink:href="#BitstreamVeraSans-Roman-2e"/>
       <use x="95.41015625" xlink:href="#BitstreamVeraSans-Roman-35"/>
       <use x="159.033203125" xlink:href="#BitstreamVeraSans-Roman-30"/>
      </g>
     </g>
    </g>
   </g>
   <g id="text_12">
    <!-- Pulse in Stress Trials -->
    <defs>
     <path id="BitstreamVeraSans-Roman-20"/>
     <path d="
M54.8906 33.0156
L54.8906 0
L45.9062 0
L45.9062 32.7188
Q45.9062 40.4844 42.875 44.3281
Q39.8438 48.1875 33.7969 48.1875
Q26.5156 48.1875 22.3125 43.5469
Q18.1094 38.9219 18.1094 30.9062
L18.1094 0
L9.07812 0
L9.07812 54.6875
L18.1094 54.6875
L18.1094 46.1875
Q21.3438 51.125 25.7031 53.5625
Q30.0781 56 35.7969 56
Q45.2188 56 50.0469 50.1719
Q54.8906 44.3438 54.8906 33.0156" id="BitstreamVeraSans-Roman-6e"/>
     <path d="
M34.2812 27.4844
Q23.3906 27.4844 19.1875 25
Q14.9844 22.5156 14.9844 16.5
Q14.9844 11.7188 18.1406 8.90625
Q21.2969 6.10938 26.7031 6.10938
Q34.1875 6.10938 38.7031 11.4062
Q43.2188 16.7031 43.2188 25.4844
L43.2188 27.4844
z

M52.2031 31.2031
L52.2031 0
L43.2188 0
L43.2188 8.29688
Q40.1406 3.32812 35.5469 0.953125
Q30.9531 -1.42188 24.3125 -1.42188
Q15.9219 -1.42188 10.9531 3.29688
Q6 8.01562 6 15.9219
Q6 25.1406 12.1719 29.8281
Q18.3594 34.5156 30.6094 34.5156
L43.2188 34.5156
L43.2188 35.4062
Q43.2188 41.6094 39.1406 45
Q35.0625 48.3906 27.6875 48.3906
Q23 48.3906 18.5469 47.2656
Q14.1094 46.1406 10.0156 43.8906
L10.0156 52.2031
Q14.9375 54.1094 19.5781 55.0469
Q24.2188 56 28.6094 56
Q40.4844 56 46.3438 49.8438
Q52.2031 43.7031 52.2031 31.2031" id="BitstreamVeraSans-Roman-61"/>
     <path d="
M9.42188 75.9844
L18.4062 75.9844
L18.4062 0
L9.42188 0
z
" id="BitstreamVeraSans-Roman-6c"/>
     <path d="
M19.6719 64.7969
L19.6719 37.4062
L32.0781 37.4062
Q38.9688 37.4062 42.7188 40.9688
Q46.4844 44.5312 46.4844 51.125
Q46.4844 57.6719 42.7188 61.2344
Q38.9688 64.7969 32.0781 64.7969
z

M9.8125 72.9062
L32.0781 72.9062
Q44.3438 72.9062 50.6094 67.3594
Q56.8906 61.8125 56.8906 51.125
Q56.8906 40.3281 50.6094 34.8125
Q44.3438 29.2969 32.0781 29.2969
L19.6719 29.2969
L19.6719 0
L9.8125 0
z
" id="BitstreamVeraSans-Roman-50"/>
     <path d="
M53.5156 70.5156
L53.5156 60.8906
Q47.9062 63.5781 42.9219 64.8906
Q37.9375 66.2188 33.2969 66.2188
Q25.25 66.2188 20.875 63.0938
Q16.5 59.9688 16.5 54.2031
Q16.5 49.3594 19.4062 46.8906
Q22.3125 44.4375 30.4219 42.9219
L36.375 41.7031
Q47.4062 39.5938 52.6562 34.2969
Q57.9062 29 57.9062 20.125
Q57.9062 9.51562 50.7969 4.04688
Q43.7031 -1.42188 29.9844 -1.42188
Q24.8125 -1.42188 18.9688 -0.25
Q13.1406 0.921875 6.89062 3.21875
L6.89062 13.375
Q12.8906 10.0156 18.6562 8.29688
Q24.4219 6.59375 29.9844 6.59375
Q38.4219 6.59375 43.0156 9.90625
Q47.6094 13.2344 47.6094 19.3906
Q47.6094 24.75 44.3125 27.7812
Q41.0156 30.8125 33.5 32.3281
L27.4844 33.5
Q16.4531 35.6875 11.5156 40.375
Q6.59375 45.0625 6.59375 53.4219
Q6.59375 63.0938 13.4062 68.6562
Q20.2188 74.2188 32.1719 74.2188
Q37.3125 74.2188 42.625 73.2812
Q47.9531 72.3594 53.5156 70.5156" id="BitstreamVeraSans-Roman-53"/>
     <path d="
M9.42188 54.6875
L18.4062 54.6875
L18.4062 0
L9.42188 0
z

M9.42188 75.9844
L18.4062 75.9844
L18.4062 64.5938
L9.42188 64.5938
z
" id="BitstreamVeraSans-Roman-69"/>
     <path d="
M56.2031 29.5938
L56.2031 25.2031
L14.8906 25.2031
Q15.4844 15.9219 20.4844 11.0625
Q25.4844 6.20312 34.4219 6.20312
Q39.5938 6.20312 44.4531 7.46875
Q49.3125 8.73438 54.1094 11.2812
L54.1094 2.78125
Q49.2656 0.734375 44.1875 -0.34375
Q39.1094 -1.42188 33.8906 -1.42188
Q20.7969 -1.42188 13.1562 6.1875
Q5.51562 13.8125 5.51562 26.8125
Q5.51562 40.2344 12.7656 48.1094
Q20.0156 56 32.3281 56
Q43.3594 56 49.7812 48.8906
Q56.2031 41.7969 56.2031 29.5938
M47.2188 32.2344
Q47.125 39.5938 43.0938 43.9844
Q39.0625 48.3906 32.4219 48.3906
Q24.9062 48.3906 20.3906 44.1406
Q15.875 39.8906 15.1875 32.1719
z
" id="BitstreamVeraSans-Roman-65"/>
     <path d="
M-0.296875 72.9062
L61.375 72.9062
L61.375 64.5938
L35.5 64.5938
L35.5 0
L25.5938 0
L25.5938 64.5938
L-0.296875 64.5938
z
" id="BitstreamVeraSans-Roman-54"/>
     <path d="
M18.3125 70.2188
L18.3125 54.6875
L36.8125 54.6875
L36.8125 47.7031
L18.3125 47.7031
L18.3125 18.0156
Q18.3125 11.3281 20.1406 9.42188
Q21.9688 7.51562 27.5938 7.51562
L36.8125 7.51562
L36.8125 0
L27.5938 0
Q17.1875 0 13.2344 3.875
Q9.28125 7.76562 9.28125 18.0156
L9.28125 47.7031
L2.6875 47.7031
L2.6875 54.6875
L9.28125 54.6875
L9.28125 70.2188
z
" id="BitstreamVeraSans-Roman-74"/>
     <path d="
M8.5 21.5781
L8.5 54.6875
L17.4844 54.6875
L17.4844 21.9219
Q17.4844 14.1562 20.5 10.2656
Q23.5312 6.39062 29.5938 6.39062
Q36.8594 6.39062 41.0781 11.0312
Q45.3125 15.6719 45.3125 23.6875
L45.3125 54.6875
L54.2969 54.6875
L54.2969 0
L45.3125 0
L45.3125 8.40625
Q42.0469 3.42188 37.7188 1
Q33.4062 -1.42188 27.6875 -1.42188
Q18.2656 -1.42188 13.375 4.4375
Q8.5 10.2969 8.5 21.5781" id="BitstreamVeraSans-Roman-75"/>
     <path d="
M41.1094 46.2969
Q39.5938 47.1719 37.8125 47.5781
Q36.0312 48 33.8906 48
Q26.2656 48 22.1875 43.0469
Q18.1094 38.0938 18.1094 28.8125
L18.1094 0
L9.07812 0
L9.07812 54.6875
L18.1094 54.6875
L18.1094 46.1875
Q20.9531 51.1719 25.4844 53.5781
Q30.0312 56 36.5312 56
Q37.4531 56 38.5781 55.875
Q39.7031 55.7656 41.0625 55.5156
z
" id="BitstreamVeraSans-Roman-72"/>
     <path d="
M44.2812 53.0781
L44.2812 44.5781
Q40.4844 46.5312 36.375 47.5
Q32.2812 48.4844 27.875 48.4844
Q21.1875 48.4844 17.8438 46.4375
Q14.5 44.3906 14.5 40.2812
Q14.5 37.1562 16.8906 35.375
Q19.2812 33.5938 26.5156 31.9844
L29.5938 31.2969
Q39.1562 29.25 43.1875 25.5156
Q47.2188 21.7812 47.2188 15.0938
Q47.2188 7.46875 41.1875 3.01562
Q35.1562 -1.42188 24.6094 -1.42188
Q20.2188 -1.42188 15.4531 -0.5625
Q10.6875 0.296875 5.42188 2
L5.42188 11.2812
Q10.4062 8.6875 15.2344 7.39062
Q20.0625 6.10938 24.8125 6.10938
Q31.1562 6.10938 34.5625 8.28125
Q37.9844 10.4531 37.9844 14.4062
Q37.9844 18.0625 35.5156 20.0156
Q33.0625 21.9688 24.7031 23.7812
L21.5781 24.5156
Q13.2344 26.2656 9.51562 29.9062
Q5.8125 33.5469 5.8125 39.8906
Q5.8125 47.6094 11.2812 51.7969
Q16.75 56 26.8125 56
Q31.7812 56 36.1719 55.2656
Q40.5781 54.5469 44.2812 53.0781" id="BitstreamVeraSans-Roman-73"/>
    </defs>
    <g transform="translate(75.7426633523 233.28)scale(0.144 -0.144)">
     <use xlink:href="#BitstreamVeraSans-Roman-50"/>
     <use x="58.552734375" xlink:href="#BitstreamVeraSans-Roman-75"/>
     <use x="121.931640625" xlink:href="#BitstreamVeraSans-Roman-6c"/>
     <use x="149.71484375" xlink:href="#BitstreamVeraSans-Roman-73"/>
     <use x="201.814453125" xlink:href="#BitstreamVeraSans-Roman-65"/>
     <use x="263.337890625" xlink:href="#BitstreamVeraSans-Roman-20"/>
     <use x="295.125" xlink:href="#BitstreamVeraSans-Roman-69"/>
     <use x="322.908203125" xlink:href="#BitstreamVeraSans-Roman-6e"/>
     <use x="386.287109375" xlink:href="#BitstreamVeraSans-Roman-20"/>
     <use x="418.07421875" xlink:href="#BitstreamVeraSans-Roman-53"/>
     <use x="481.55078125" xlink:href="#BitstreamVeraSans-Roman-74"/>
     <use x="520.759765625" xlink:href="#BitstreamVeraSans-Roman-72"/>
     <use x="559.623046875" xlink:href="#BitstreamVeraSans-Roman-65"/>
     <use x="621.146484375" xlink:href="#BitstreamVeraSans-Roman-73"/>
     <use x="673.24609375" xlink:href="#BitstreamVeraSans-Roman-73"/>
     <use x="725.345703125" xlink:href="#BitstreamVeraSans-Roman-20"/>
     <use x="757.1328125" xlink:href="#BitstreamVeraSans-Roman-54"/>
     <use x="803.466796875" xlink:href="#BitstreamVeraSans-Roman-72"/>
     <use x="844.580078125" xlink:href="#BitstreamVeraSans-Roman-69"/>
     <use x="872.36328125" xlink:href="#BitstreamVeraSans-Roman-61"/>
     <use x="933.642578125" xlink:href="#BitstreamVeraSans-Roman-6c"/>
     <use x="961.42578125" xlink:href="#BitstreamVeraSans-Roman-73"/>
    </g>
   </g>
  </g>
  <g id="axes_2">
   <g id="patch_7">
    <path d="
M41.9491 192.92
L254.774 192.92
L254.774 28.76
L41.9491 28.76
z
" style="fill:#ffffff;"/>
   </g>
   <g id="line2d_25">
    <path clip-path="url(#p217c292275)" d="
M148.361 49.2691" style="fill:none;stroke:#0000ff;stroke-linecap:square;"/>
   </g>
   <g id="line2d_26">
    <path clip-path="url(#p217c292275)" d="
M148.361 49.2691" style="fill:none;stroke:#0000ff;stroke-dasharray:6.000000,6.000000;stroke-dashoffset:0.0;"/>
   </g>
   <g id="patch_8">
    <path d="
M41.9491 28.76
L254.774 28.76" style="fill:none;stroke:#000000;stroke-linecap:square;stroke-linejoin:miter;"/>
   </g>
   <g id="patch_9">
    <path d="
M254.774 192.92
L254.774 28.76" style="fill:none;stroke:#000000;stroke-linecap:square;stroke-linejoin:miter;"/>
   </g>
   <g id="patch_10">
    <path d="
M41.9491 192.92
L254.774 192.92" style="fill:none;stroke:#000000;stroke-linecap:square;stroke-linejoin:miter;"/>
   </g>
   <g id="patch_11">
    <path d="
M41.9491 192.92
L41.9491 28.76" style="fill:none;stroke:#000000;stroke-linecap:square;stroke-linejoin:miter;"/>
   </g>
   <g id="matplotlib.axis_3">
    <g id="xtick_7">
     <g id="line2d_27">
      <g>
       <use style="stroke:#000000;stroke-width:0.5;" x="41.9490625" xlink:href="#m93b0483c22" y="192.92"/>
      </g>
     </g>
     <g id="line2d_28">
      <g>
       <use style="stroke:#000000;stroke-width:0.5;" x="41.9490625" xlink:href="#m741efc42ff" y="28.76"/>
      </g>
     </g>
     <g id="text_13">
      <!-- 0.94 -->
      <defs>
       <path d="
M10.9844 1.51562
L10.9844 10.5
Q14.7031 8.73438 18.5 7.8125
Q22.3125 6.89062 25.9844 6.89062
Q35.75 6.89062 40.8906 13.4531
Q46.0469 20.0156 46.7812 33.4062
Q43.9531 29.2031 39.5938 26.9531
Q35.25 24.7031 29.9844 24.7031
Q19.0469 24.7031 12.6719 31.3125
Q6.29688 37.9375 6.29688 49.4219
Q6.29688 60.6406 12.9375 67.4219
Q19.5781 74.2188 30.6094 74.2188
Q43.2656 74.2188 49.9219 64.5156
Q56.5938 54.8281 56.5938 36.375
Q56.5938 19.1406 48.4062 8.85938
Q40.2344 -1.42188 26.4219 -1.42188
Q22.7031 -1.42188 18.8906 -0.6875
Q15.0938 0.046875 10.9844 1.51562
M30.6094 32.4219
Q37.25 32.4219 41.125 36.9531
Q45.0156 41.5 45.0156 49.4219
Q45.0156 57.2812 41.125 61.8438
Q37.25 66.4062 30.6094 66.4062
Q23.9688 66.4062 20.0938 61.8438
Q16.2188 57.2812 16.2188 49.4219
Q16.2188 41.5 20.0938 36.9531
Q23.9688 32.4219 30.6094 32.4219" id="BitstreamVeraSans-Roman-39"/>
      </defs>
      <g transform="translate(29.321875 206.038125)scale(0.12 -0.12)">
       <use xlink:href="#BitstreamVeraSans-Roman-30"/>
       <use x="63.623046875" xlink:href="#BitstreamVeraSans-Roman-2e"/>
       <use x="95.41015625" xlink:href="#BitstreamVeraSans-Roman-39"/>
       <use x="159.033203125" xlink:href="#BitstreamVeraSans-Roman-34"/>
      </g>
     </g>
    </g>
    <g id="xtick_8">
     <g id="line2d_29">
      <g>
       <use style="stroke:#000000;stroke-width:0.5;" x="77.4198461174" xlink:href="#m93b0483c22" y="192.92"/>
      </g>
     </g>
     <g id="line2d_30">
      <g>
       <use style="stroke:#000000;stroke-width:0.5;" x="77.4198461174" xlink:href="#m741efc42ff" y="28.76"/>
      </g>
     </g>
     <g id="text_14">
      <!-- 0.96 -->
      <defs>
       <path d="
M33.0156 40.375
Q26.375 40.375 22.4844 35.8281
Q18.6094 31.2969 18.6094 23.3906
Q18.6094 15.5312 22.4844 10.9531
Q26.375 6.39062 33.0156 6.39062
Q39.6562 6.39062 43.5312 10.9531
Q47.4062 15.5312 47.4062 23.3906
Q47.4062 31.2969 43.5312 35.8281
Q39.6562 40.375 33.0156 40.375
M52.5938 71.2969
L52.5938 62.3125
Q48.875 64.0625 45.0938 64.9844
Q41.3125 65.9219 37.5938 65.9219
Q27.8281 65.9219 22.6719 59.3281
Q17.5312 52.7344 16.7969 39.4062
Q19.6719 43.6562 24.0156 45.9219
Q28.375 48.1875 33.5938 48.1875
Q44.5781 48.1875 50.9531 41.5156
Q57.3281 34.8594 57.3281 23.3906
Q57.3281 12.1562 50.6875 5.35938
Q44.0469 -1.42188 33.0156 -1.42188
Q20.3594 -1.42188 13.6719 8.26562
Q6.98438 17.9688 6.98438 36.375
Q6.98438 53.6562 15.1875 63.9375
Q23.3906 74.2188 37.2031 74.2188
Q40.9219 74.2188 44.7031 73.4844
Q48.4844 72.75 52.5938 71.2969" id="BitstreamVeraSans-Roman-36"/>
      </defs>
      <g transform="translate(64.8339086174 206.038125)scale(0.12 -0.12)">
       <use xlink:href="#BitstreamVeraSans-Roman-30"/>
       <use x="63.623046875" xlink:href="#BitstreamVeraSans-Roman-2e"/>
       <use x="95.41015625" xlink:href="#BitstreamVeraSans-Roman-39"/>
       <use x="159.033203125" xlink:href="#BitstreamVeraSans-Roman-36"/>
      </g>
     </g>
    </g>
    <g id="xtick_9">
     <g id="line2d_31">
      <g>
       <use style="stroke:#000000;stroke-width:0.5;" x="112.890629735" xlink:href="#m93b0483c22" y="192.92"/>
      </g>
     </g>
     <g id="line2d_32">
      <g>
       <use style="stroke:#000000;stroke-width:0.5;" x="112.890629735" xlink:href="#m741efc42ff" y="28.76"/>
      </g>
     </g>
     <g id="text_15">
      <!-- 0.98 -->
      <defs>
       <path d="
M31.7812 34.625
Q24.75 34.625 20.7188 30.8594
Q16.7031 27.0938 16.7031 20.5156
Q16.7031 13.9219 20.7188 10.1562
Q24.75 6.39062 31.7812 6.39062
Q38.8125 6.39062 42.8594 10.1719
Q46.9219 13.9688 46.9219 20.5156
Q46.9219 27.0938 42.8906 30.8594
Q38.875 34.625 31.7812 34.625
M21.9219 38.8125
Q15.5781 40.375 12.0312 44.7188
Q8.5 49.0781 8.5 55.3281
Q8.5 64.0625 14.7188 69.1406
Q20.9531 74.2188 31.7812 74.2188
Q42.6719 74.2188 48.875 69.1406
Q55.0781 64.0625 55.0781 55.3281
Q55.0781 49.0781 51.5312 44.7188
Q48 40.375 41.7031 38.8125
Q48.8281 37.1562 52.7969 32.3125
Q56.7812 27.4844 56.7812 20.5156
Q56.7812 9.90625 50.3125 4.23438
Q43.8438 -1.42188 31.7812 -1.42188
Q19.7344 -1.42188 13.25 4.23438
Q6.78125 9.90625 6.78125 20.5156
Q6.78125 27.4844 10.7812 32.3125
Q14.7969 37.1562 21.9219 38.8125
M18.3125 54.3906
Q18.3125 48.7344 21.8438 45.5625
Q25.3906 42.3906 31.7812 42.3906
Q38.1406 42.3906 41.7188 45.5625
Q45.3125 48.7344 45.3125 54.3906
Q45.3125 60.0625 41.7188 63.2344
Q38.1406 66.4062 31.7812 66.4062
Q25.3906 66.4062 21.8438 63.2344
Q18.3125 60.0625 18.3125 54.3906" id="BitstreamVeraSans-Roman-38"/>
      </defs>
      <g transform="translate(100.337504735 206.038125)scale(0.12 -0.12)">
       <use xlink:href="#BitstreamVeraSans-Roman-30"/>
       <use x="63.623046875" xlink:href="#BitstreamVeraSans-Roman-2e"/>
       <use x="95.41015625" xlink:href="#BitstreamVeraSans-Roman-39"/>
       <use x="159.033203125" xlink:href="#BitstreamVeraSans-Roman-38"/>
      </g>
     </g>
    </g>
    <g id="xtick_10">
     <g id="line2d_33">
      <g>
       <use style="stroke:#000000;stroke-width:0.5;" x="148.361413352" xlink:href="#m93b0483c22" y="192.92"/>
      </g>
     </g>
     <g id="line2d_34">
      <g>
       <use style="stroke:#000000;stroke-width:0.5;" x="148.361413352" xlink:href="#m741efc42ff" y="28.76"/>
      </g>
     </g>
     <g id="text_16">
      <!-- 1.00 -->
      <g transform="translate(136.059538352 206.038125)scale(0.12 -0.12)">
       <use xlink:href="#BitstreamVeraSans-Roman-31"/>
       <use x="63.623046875" xlink:href="#BitstreamVeraSans-Roman-2e"/>
       <use x="95.41015625" xlink:href="#BitstreamVeraSans-Roman-30"/>
       <use x="159.033203125" xlink:href="#BitstreamVeraSans-Roman-30"/>
      </g>
     </g>
    </g>
    <g id="xtick_11">
     <g id="line2d_35">
      <g>
       <use style="stroke:#000000;stroke-width:0.5;" x="183.83219697" xlink:href="#m93b0483c22" y="192.92"/>
      </g>
     </g>
     <g id="line2d_36">
      <g>
       <use style="stroke:#000000;stroke-width:0.5;" x="183.83219697" xlink:href="#m741efc42ff" y="28.76"/>
      </g>
     </g>
     <g id="text_17">
      <!-- 1.02 -->
      <g transform="translate(171.73282197 206.038125)scale(0.12 -0.12)">
       <use xlink:href="#BitstreamVeraSans-Roman-31"/>
       <use x="63.623046875" xlink:href="#BitstreamVeraSans-Roman-2e"/>
       <use x="95.41015625" xlink:href="#BitstreamVeraSans-Roman-30"/>
       <use x="159.033203125" xlink:href="#BitstreamVeraSans-Roman-32"/>
      </g>
     </g>
    </g>
    <g id="xtick_12">
     <g id="line2d_37">
      <g>
       <use style="stroke:#000000;stroke-width:0.5;" x="219.302980587" xlink:href="#m93b0483c22" y="192.92"/>
      </g>
     </g>
     <g id="line2d_38">
      <g>
       <use style="stroke:#000000;stroke-width:0.5;" x="219.302980587" xlink:href="#m741efc42ff" y="28.76"/>
      </g>
     </g>
     <g id="text_18">
      <!-- 1.04 -->
      <g transform="translate(206.939230587 206.038125)scale(0.12 -0.12)">
       <use xlink:href="#BitstreamVeraSans-Roman-31"/>
       <use x="63.623046875" xlink:href="#BitstreamVeraSans-Roman-2e"/>
       <use x="95.41015625" xlink:href="#BitstreamVeraSans-Roman-30"/>
       <use x="159.033203125" xlink:href="#BitstreamVeraSans-Roman-34"/>
      </g>
     </g>
    </g>
    <g id="xtick_13">
     <g id="line2d_39">
      <g>
       <use style="stroke:#000000;stroke-width:0.5;" x="254.773764205" xlink:href="#m93b0483c22" y="192.92"/>
      </g>
     </g>
     <g id="line2d_40">
      <g>
       <use style="stroke:#000000;stroke-width:0.5;" x="254.773764205" xlink:href="#m741efc42ff" y="28.76"/>
      </g>
     </g>
     <g id="text_19">
      <!-- 1.06 -->
      <g transform="translate(242.451264205 206.038125)scale(0.12 -0.12)">
       <use xlink:href="#BitstreamVeraSans-Roman-31"/>
       <use x="63.623046875" xlink:href="#BitstreamVeraSans-Roman-2e"/>
       <use x="95.41015625" xlink:href="#BitstreamVeraSans-Roman-30"/>
       <use x="159.033203125" xlink:href="#BitstreamVeraSans-Roman-36"/>
      </g>
     </g>
    </g>
   </g>
   <g id="matplotlib.axis_4">
    <g id="ytick_6">
     <g id="line2d_41">
      <g>
       <use style="stroke:#000000;stroke-width:0.5;" x="41.9490625" xlink:href="#m728421d6d4" y="177.996363636"/>
      </g>
     </g>
     <g id="line2d_42">
      <g>
       <use style="stroke:#000000;stroke-width:0.5;" x="254.773764205" xlink:href="#mcb0005524f" y="177.996363636"/>
      </g>
     </g>
     <g id="text_20">
      <!-- 0.30 -->
      <g transform="translate(12.8184375 181.307613636)scale(0.12 -0.12)">
       <use xlink:href="#BitstreamVeraSans-Roman-30"/>
       <use x="63.623046875" xlink:href="#BitstreamVeraSans-Roman-2e"/>
       <use x="95.41015625" xlink:href="#BitstreamVeraSans-Roman-33"/>
       <use x="159.033203125" xlink:href="#BitstreamVeraSans-Roman-30"/>
      </g>
     </g>
    </g>
    <g id="ytick_7">
     <g id="line2d_43">
      <g>
       <use style="stroke:#000000;stroke-width:0.5;" x="41.9490625" xlink:href="#m728421d6d4" y="140.687272727"/>
      </g>
     </g>
     <g id="line2d_44">
      <g>
       <use style="stroke:#000000;stroke-width:0.5;" x="254.773764205" xlink:href="#mcb0005524f" y="140.687272727"/>
      </g>
     </g>
     <g id="text_21">
      <!-- 0.35 -->
      <g transform="translate(13.0696875 143.998522727)scale(0.12 -0.12)">
       <use xlink:href="#BitstreamVeraSans-Roman-30"/>
       <use x="63.623046875" xlink:href="#BitstreamVeraSans-Roman-2e"/>
       <use x="95.41015625" xlink:href="#BitstreamVeraSans-Roman-33"/>
       <use x="159.033203125" xlink:href="#BitstreamVeraSans-Roman-35"/>
      </g>
     </g>
    </g>
    <g id="ytick_8">
     <g id="line2d_45">
      <g>
       <use style="stroke:#000000;stroke-width:0.5;" x="41.9490625" xlink:href="#m728421d6d4" y="103.378181818"/>
      </g>
     </g>
     <g id="line2d_46">
      <g>
       <use style="stroke:#000000;stroke-width:0.5;" x="254.773764205" xlink:href="#mcb0005524f" y="103.378181818"/>
      </g>
     </g>
     <g id="text_22">
      <!-- 0.40 -->
      <g transform="translate(12.8184375 106.689431818)scale(0.12 -0.12)">
       <use xlink:href="#BitstreamVeraSans-Roman-30"/>
       <use x="63.623046875" xlink:href="#BitstreamVeraSans-Roman-2e"/>
       <use x="95.41015625" xlink:href="#BitstreamVeraSans-Roman-34"/>
       <use x="159.033203125" xlink:href="#BitstreamVeraSans-Roman-30"/>
      </g>
     </g>
    </g>
    <g id="ytick_9">
     <g id="line2d_47">
      <g>
       <use style="stroke:#000000;stroke-width:0.5;" x="41.9490625" xlink:href="#m728421d6d4" y="66.0690909091"/>
      </g>
     </g>
     <g id="line2d_48">
      <g>
       <use style="stroke:#000000;stroke-width:0.5;" x="254.773764205" xlink:href="#mcb0005524f" y="66.0690909091"/>
      </g>
     </g>
     <g id="text_23">
      <!-- 0.45 -->
      <g transform="translate(13.0696875 69.3803409091)scale(0.12 -0.12)">
       <use xlink:href="#BitstreamVeraSans-Roman-30"/>
       <use x="63.623046875" xlink:href="#BitstreamVeraSans-Roman-2e"/>
       <use x="95.41015625" xlink:href="#BitstreamVeraSans-Roman-34"/>
       <use x="159.033203125" xlink:href="#BitstreamVeraSans-Roman-35"/>
      </g>
     </g>
    </g>
    <g id="ytick_10">
     <g id="line2d_49">
      <g>
       <use style="stroke:#000000;stroke-width:0.5;" x="41.9490625" xlink:href="#m728421d6d4" y="28.76"/>
      </g>
     </g>
     <g id="line2d_50">
      <g>
       <use style="stroke:#000000;stroke-width:0.5;" x="254.773764205" xlink:href="#mcb0005524f" y="28.76"/>
      </g>
     </g>
     <g id="text_24">
      <!-- 0.50 -->
      <g transform="translate(12.8184375 32.07125)scale(0.12 -0.12)">
       <use xlink:href="#BitstreamVeraSans-Roman-30"/>
       <use x="63.623046875" xlink:href="#BitstreamVeraSans-Roman-2e"/>
       <use x="95.41015625" xlink:href="#BitstreamVeraSans-Roman-35"/>
       <use x="159.033203125" xlink:href="#BitstreamVeraSans-Roman-30"/>
      </g>
     </g>
    </g>
   </g>
   <g id="text_25">
    <!-- Pulse in Regular Trials before Stress -->
    <defs>
     <path d="
M44.3906 34.1875
Q47.5625 33.1094 50.5625 29.5938
Q53.5625 26.0781 56.5938 19.9219
L66.6094 0
L56 0
L46.6875 18.7031
Q43.0625 26.0312 39.6719 28.4219
Q36.2812 30.8125 30.4219 30.8125
L19.6719 30.8125
L19.6719 0
L9.8125 0
L9.8125 72.9062
L32.0781 72.9062
Q44.5781 72.9062 50.7344 67.6719
Q56.8906 62.4531 56.8906 51.9062
Q56.8906 45.0156 53.6875 40.4688
Q50.4844 35.9375 44.3906 34.1875
M19.6719 64.7969
L19.6719 38.9219
L32.0781 38.9219
Q39.2031 38.9219 42.8438 42.2188
Q46.4844 45.5156 46.4844 51.9062
Q46.4844 58.2969 42.8438 61.5469
Q39.2031 64.7969 32.0781 64.7969
z
" id="BitstreamVeraSans-Roman-52"/>
     <path d="
M37.1094 75.9844
L37.1094 68.5
L28.5156 68.5
Q23.6875 68.5 21.7969 66.5469
Q19.9219 64.5938 19.9219 59.5156
L19.9219 54.6875
L34.7188 54.6875
L34.7188 47.7031
L19.9219 47.7031
L19.9219 0
L10.8906 0
L10.8906 47.7031
L2.29688 47.7031
L2.29688 54.6875
L10.8906 54.6875
L10.8906 58.5
Q10.8906 67.625 15.1406 71.7969
Q19.3906 75.9844 28.6094 75.9844
z
" id="BitstreamVeraSans-Roman-66"/>
     <path d="
M45.4062 27.9844
Q45.4062 37.75 41.375 43.1094
Q37.3594 48.4844 30.0781 48.4844
Q22.8594 48.4844 18.8281 43.1094
Q14.7969 37.75 14.7969 27.9844
Q14.7969 18.2656 18.8281 12.8906
Q22.8594 7.51562 30.0781 7.51562
Q37.3594 7.51562 41.375 12.8906
Q45.4062 18.2656 45.4062 27.9844
M54.3906 6.78125
Q54.3906 -7.17188 48.1875 -13.9844
Q42 -20.7969 29.2031 -20.7969
Q24.4688 -20.7969 20.2656 -20.0938
Q16.0625 -19.3906 12.1094 -17.9219
L12.1094 -9.1875
Q16.0625 -11.3281 19.9219 -12.3438
Q23.7812 -13.375 27.7812 -13.375
Q36.625 -13.375 41.0156 -8.76562
Q45.4062 -4.15625 45.4062 5.17188
L45.4062 9.625
Q42.625 4.78125 38.2812 2.39062
Q33.9375 0 27.875 0
Q17.8281 0 11.6719 7.65625
Q5.51562 15.3281 5.51562 27.9844
Q5.51562 40.6719 11.6719 48.3281
Q17.8281 56 27.875 56
Q33.9375 56 38.2812 53.6094
Q42.625 51.2188 45.4062 46.3906
L45.4062 54.6875
L54.3906 54.6875
z
" id="BitstreamVeraSans-Roman-67"/>
     <path d="
M30.6094 48.3906
Q23.3906 48.3906 19.1875 42.75
Q14.9844 37.1094 14.9844 27.2969
Q14.9844 17.4844 19.1562 11.8438
Q23.3438 6.20312 30.6094 6.20312
Q37.7969 6.20312 41.9844 11.8594
Q46.1875 17.5312 46.1875 27.2969
Q46.1875 37.0156 41.9844 42.7031
Q37.7969 48.3906 30.6094 48.3906
M30.6094 56
Q42.3281 56 49.0156 48.375
Q55.7188 40.7656 55.7188 27.2969
Q55.7188 13.875 49.0156 6.21875
Q42.3281 -1.42188 30.6094 -1.42188
Q18.8438 -1.42188 12.1719 6.21875
Q5.51562 13.875 5.51562 27.2969
Q5.51562 40.7656 12.1719 48.375
Q18.8438 56 30.6094 56" id="BitstreamVeraSans-Roman-6f"/>
     <path d="
M48.6875 27.2969
Q48.6875 37.2031 44.6094 42.8438
Q40.5312 48.4844 33.4062 48.4844
Q26.2656 48.4844 22.1875 42.8438
Q18.1094 37.2031 18.1094 27.2969
Q18.1094 17.3906 22.1875 11.75
Q26.2656 6.10938 33.4062 6.10938
Q40.5312 6.10938 44.6094 11.75
Q48.6875 17.3906 48.6875 27.2969
M18.1094 46.3906
Q20.9531 51.2656 25.2656 53.625
Q29.5938 56 35.5938 56
Q45.5625 56 51.7812 48.0938
Q58.0156 40.1875 58.0156 27.2969
Q58.0156 14.4062 51.7812 6.48438
Q45.5625 -1.42188 35.5938 -1.42188
Q29.5938 -1.42188 25.2656 0.953125
Q20.9531 3.32812 18.1094 8.20312
L18.1094 0
L9.07812 0
L9.07812 75.9844
L18.1094 75.9844
z
" id="BitstreamVeraSans-Roman-62"/>
    </defs>
    <g transform="translate(20.3814133523 23.76)scale(0.144 -0.144)">
     <use xlink:href="#BitstreamVeraSans-Roman-50"/>
     <use x="58.552734375" xlink:href="#BitstreamVeraSans-Roman-75"/>
     <use x="121.931640625" xlink:href="#BitstreamVeraSans-Roman-6c"/>
     <use x="149.71484375" xlink:href="#BitstreamVeraSans-Roman-73"/>
     <use x="201.814453125" xlink:href="#BitstreamVeraSans-Roman-65"/>
     <use x="263.337890625" xlink:href="#BitstreamVeraSans-Roman-20"/>
     <use x="295.125" xlink:href="#BitstreamVeraSans-Roman-69"/>
     <use x="322.908203125" xlink:href="#BitstreamVeraSans-Roman-6e"/>
     <use x="386.287109375" xlink:href="#BitstreamVeraSans-Roman-20"/>
     <use x="418.07421875" xlink:href="#BitstreamVeraSans-Roman-52"/>
     <use x="483.056640625" xlink:href="#BitstreamVeraSans-Roman-65"/>
     <use x="544.580078125" xlink:href="#BitstreamVeraSans-Roman-67"/>
     <use x="608.056640625" xlink:href="#BitstreamVeraSans-Roman-75"/>
     <use x="671.435546875" xlink:href="#BitstreamVeraSans-Roman-6c"/>
     <use x="699.21875" xlink:href="#BitstreamVeraSans-Roman-61"/>
     <use x="760.498046875" xlink:href="#BitstreamVeraSans-Roman-72"/>
     <use x="801.611328125" xlink:href="#BitstreamVeraSans-Roman-20"/>
     <use x="833.3984375" xlink:href="#BitstreamVeraSans-Roman-54"/>
     <use x="879.732421875" xlink:href="#BitstreamVeraSans-Roman-72"/>
     <use x="920.845703125" xlink:href="#BitstreamVeraSans-Roman-69"/>
     <use x="948.62890625" xlink:href="#BitstreamVeraSans-Roman-61"/>
     <use x="1009.90820312" xlink:href="#BitstreamVeraSans-Roman-6c"/>
     <use x="1037.69140625" xlink:href="#BitstreamVeraSans-Roman-73"/>
     <use x="1089.79101562" xlink:href="#BitstreamVeraSans-Roman-20"/>
     <use x="1121.578125" xlink:href="#BitstreamVeraSans-Roman-62"/>
     <use x="1185.0546875" xlink:href="#BitstreamVeraSans-Roman-65"/>
     <use x="1246.578125" xlink:href="#BitstreamVeraSans-Roman-66"/>
     <use x="1281.78320312" xlink:href="#BitstreamVeraSans-Roman-6f"/>
     <use x="1342.96484375" xlink:href="#BitstreamVeraSans-Roman-72"/>
     <use x="1381.828125" xlink:href="#BitstreamVeraSans-Roman-65"/>
     <use x="1443.3515625" xlink:href="#BitstreamVeraSans-Roman-20"/>
     <use x="1475.13867188" xlink:href="#BitstreamVeraSans-Roman-53"/>
     <use x="1538.61523438" xlink:href="#BitstreamVeraSans-Roman-74"/>
     <use x="1577.82421875" xlink:href="#BitstreamVeraSans-Roman-72"/>
     <use x="1616.6875" xlink:href="#BitstreamVeraSans-Roman-65"/>
     <use x="1678.2109375" xlink:href="#BitstreamVeraSans-Roman-73"/>
     <use x="1730.31054688" xlink:href="#BitstreamVeraSans-Roman-73"/>
    </g>
   </g>
  </g>
  <g id="axes_3">
   <g id="patch_12">
    <path d="
M323.469 402.44
L536.294 402.44
L536.294 238.28
L323.469 238.28
z
" style="fill:#ffffff;"/>
   </g>
   <g id="line2d_51">
    <path clip-path="url(#p13eebda5b1)" d="
M325.293 301.008
L325.901 313.364
M327.117 308.058
L327.726 316.33
L328.334 288.375
L328.942 287.152
L329.55 306.468
L330.158 333.976
L330.766 305.393
L331.374 315.564
L331.982 317.422
L332.59 308.852
L333.198 319.232
L333.806 302.393
L334.414 261.968
L335.022 292.151
L335.63 302.752
L336.239 294.976
M337.455 306.86
L338.063 275.611
L338.671 276.088
L339.279 288.235
L339.887 291.309
L340.495 300.539
L341.103 297.959
L341.711 284.055
L342.319 263.924
L342.927 291.7
L344.143 306.224
M345.36 308.987
L345.968 306.811
L346.576 311.041
L347.184 320.956
L347.792 315.943
L348.4 289.23
L349.008 288.558
L349.616 295.099
L350.224 308.4
L350.832 304.431
L351.44 297.813
L352.048 320.552
M353.265 306.273
L353.873 297.055
L354.481 289.108
L355.089 304.048
L355.697 313.865
L356.305 313.07
L356.913 314.852
M358.129 300.6
L358.737 272.482
L359.345 304.879
L359.953 297.617
L360.561 312.861
L361.169 273.134
L361.778 306.346
M362.994 288.13
L363.602 301.065
L364.21 290.602
M367.858 306.419
L368.466 300.654
L369.074 312.63
L369.682 312.483
L370.29 286.321
L370.899 281.577
L371.507 285.794
L372.115 302.515
L372.723 277.535
L373.331 302.393
L373.939 303.534
L374.547 278.676
L375.155 305.674
L375.763 293.754
L376.371 273.02
L376.979 275.721
L377.587 278.961
M380.628 375.664
L381.236 372.486
M383.06 259.278
L383.668 301.945
L384.276 310.649
L384.884 311.053
L385.492 319.623
L386.1 304.561
L386.708 277.372
L387.316 264.718
L387.925 278.893
L388.533 300.551
L389.141 306.053
L389.749 313.355
L390.357 299.35
L390.965 307.263
L391.573 284.316
L392.181 305.93
L392.789 298.351
L393.397 271.096
L394.005 282.303
M395.221 310.772
L396.438 256.833
L397.046 254.143
L397.654 286.935
L398.262 290.874
L398.87 301.456
L399.478 286.614
L400.086 296.24
L400.694 270.464
L401.302 279.572
L402.518 304.146
M403.734 309.464
L404.342 282.934
L404.951 276.822
L405.559 307.153
L406.167 312.434
L406.775 293.46
L407.383 288.68
L407.991 278.717
L408.599 296.737
M409.815 310.054
L410.423 280.958
L411.031 304.39
L411.639 305.307
L412.855 272.543
L413.464 301.945
L414.072 310.014
L414.68 300.076
L415.288 303.779
L415.896 273.582
L416.504 295.78
L417.112 308.791
L417.72 270.831
L418.328 284.768
L418.936 272.482
L419.544 292.165
L420.152 269.205
L420.76 294.691
L421.368 297.666
L421.976 303.453
L422.585 313.217
L423.193 292.226
L423.801 277.665
L424.409 294.487
L425.017 288.266
L425.625 295.771
L426.233 315.613
L427.449 254.388
L428.057 301.7
L428.665 305.784
L429.273 308.913
L429.881 291.125
L430.489 298.889
L431.098 309.036
M432.314 300.356
L432.922 309.182
L433.53 310.772
L434.138 307.397
L434.746 392.046
L435.354 307.789
L435.962 307.006
M437.178 313.804
L437.786 327.333
L438.394 314.121
L439.611 325.149
L440.219 317.422
L440.827 324.929
L441.435 300.405
L442.043 299.182
L442.651 318.351
L443.259 302.018
L443.867 308.852
L444.475 294.487
L445.083 293.204
L445.691 288.925
L446.299 300.274
L446.907 277.005
L447.515 283.648
L448.124 276.638
L448.732 305.327
L449.34 274.438
L449.948 279.878
L450.556 270.477
L451.164 296.321
L451.772 279.45
L452.38 294.841
L452.988 306.322
L453.596 297.36
L454.204 279.246
L454.812 297.639
L455.42 256.1
L456.028 252.34
L456.637 261.316
L457.245 244.424
L457.853 262.158
L458.461 284.924
L459.069 319.094
L459.677 317.862
L460.285 395.47
L460.893 305.246
L461.501 296.077
M463.933 309.728
L464.541 282.079
L465.15 316.86
L465.758 294.267
L466.366 308.18
L466.974 276.761
L467.582 266.613
L468.19 311.481
L468.798 294.634
L469.406 317.96
L470.014 288.717
L470.622 290.086
L471.23 303.473
L471.838 288.619
L472.446 298.889
L473.662 315.637
L474.271 307.593
L474.879 313.315
L475.487 325.703
M476.703 312.764
L477.311 292.654
L477.919 290.331
L478.527 275.416
L479.135 290.331
L479.743 310.931
L480.351 288.334
L480.959 310.014
L481.567 303.632
L482.175 306.509
L482.784 319.819
L483.392 290.372
L484 301.334
L484.608 304.207
L485.216 286.358
L485.824 308.644
L486.432 294.39
L487.04 309.5
L487.648 310.075
L488.256 278.008
L488.864 276.883
L489.472 287.111
L490.08 305.882
L490.688 291.268
L491.297 312.744
L491.905 285.604
M493.121 283.668
L493.729 303.412
L494.337 291.187
L494.945 285.746
L495.553 272.971
L496.161 283.289
L496.769 303.241
L497.377 261.316
L497.985 285.074
L498.593 283.191
L499.201 396.937
L499.81 288.089
L500.418 313.559
L501.026 284.022
M502.242 291.526
L502.85 305.857
L503.458 299.867
L504.066 312.022
L504.674 318.449
L505.282 296.871
L505.89 292.837
L506.498 286.052
L507.106 281.773
L507.714 274.438
L508.323 374.197
L508.931 311.97
L509.539 295.465
L510.147 317.043
L510.755 300.625
L511.363 312.948
L511.971 309.06
M513.187 325.051
L513.795 274.927
L514.403 321.057
L514.403 321.057" style="fill:none;stroke:#ff0000;stroke-linecap:square;"/>
   </g>
   <g id="line2d_52">
    <path clip-path="url(#p13eebda5b1)" d="
M324.077 297.807
L498.593 298.64
L498.593 298.64" style="fill:none;stroke:#ff0000;stroke-dasharray:6.000000,6.000000;stroke-dashoffset:0.0;"/>
   </g>
   <g id="patch_13">
    <path d="
M323.469 238.28
L536.294 238.28" style="fill:none;stroke:#000000;stroke-linecap:square;stroke-linejoin:miter;"/>
   </g>
   <g id="patch_14">
    <path d="
M536.294 402.44
L536.294 238.28" style="fill:none;stroke:#000000;stroke-linecap:square;stroke-linejoin:miter;"/>
   </g>
   <g id="patch_15">
    <path d="
M323.469 402.44
L536.294 402.44" style="fill:none;stroke:#000000;stroke-linecap:square;stroke-linejoin:miter;"/>
   </g>
   <g id="patch_16">
    <path d="
M323.469 402.44
L323.469 238.28" style="fill:none;stroke:#000000;stroke-linecap:square;stroke-linejoin:miter;"/>
   </g>
   <g id="matplotlib.axis_5">
    <g id="xtick_14">
     <g id="line2d_53">
      <g>
       <use style="stroke:#000000;stroke-width:0.5;" x="323.4690625" xlink:href="#m93b0483c22" y="402.44"/>
      </g>
     </g>
     <g id="line2d_54">
      <g>
       <use style="stroke:#000000;stroke-width:0.5;" x="323.4690625" xlink:href="#m741efc42ff" y="238.28"/>
      </g>
     </g>
     <g id="text_26">
      <!-- 0 -->
      <g transform="translate(320.445625 415.558125)scale(0.12 -0.12)">
       <use xlink:href="#BitstreamVeraSans-Roman-30"/>
      </g>
     </g>
    </g>
    <g id="xtick_15">
     <g id="line2d_55">
      <g>
       <use style="stroke:#000000;stroke-width:0.5;" x="353.872591315" xlink:href="#m93b0483c22" y="402.44"/>
      </g>
     </g>
     <g id="line2d_56">
      <g>
       <use style="stroke:#000000;stroke-width:0.5;" x="353.872591315" xlink:href="#m741efc42ff" y="238.28"/>
      </g>
     </g>
     <g id="text_27">
      <!-- 50 -->
      <g transform="translate(347.099153815 415.558125)scale(0.12 -0.12)">
       <use xlink:href="#BitstreamVeraSans-Roman-35"/>
       <use x="63.623046875" xlink:href="#BitstreamVeraSans-Roman-30"/>
      </g>
     </g>
    </g>
    <g id="xtick_16">
     <g id="line2d_57">
      <g>
       <use style="stroke:#000000;stroke-width:0.5;" x="384.27612013" xlink:href="#m93b0483c22" y="402.44"/>
      </g>
     </g>
     <g id="line2d_58">
      <g>
       <use style="stroke:#000000;stroke-width:0.5;" x="384.27612013" xlink:href="#m741efc42ff" y="238.28"/>
      </g>
     </g>
     <g id="text_28">
      <!-- 100 -->
      <g transform="translate(373.88112013 415.558125)scale(0.12 -0.12)">
       <use xlink:href="#BitstreamVeraSans-Roman-31"/>
       <use x="63.623046875" xlink:href="#BitstreamVeraSans-Roman-30"/>
       <use x="127.24609375" xlink:href="#BitstreamVeraSans-Roman-30"/>
      </g>
     </g>
    </g>
    <g id="xtick_17">
     <g id="line2d_59">
      <g>
       <use style="stroke:#000000;stroke-width:0.5;" x="414.679648945" xlink:href="#m93b0483c22" y="402.44"/>
      </g>
     </g>
     <g id="line2d_60">
      <g>
       <use style="stroke:#000000;stroke-width:0.5;" x="414.679648945" xlink:href="#m741efc42ff" y="238.28"/>
      </g>
     </g>
     <g id="text_29">
      <!-- 150 -->
      <g transform="translate(404.284648945 415.558125)scale(0.12 -0.12)">
       <use xlink:href="#BitstreamVeraSans-Roman-31"/>
       <use x="63.623046875" xlink:href="#BitstreamVeraSans-Roman-35"/>
       <use x="127.24609375" xlink:href="#BitstreamVeraSans-Roman-30"/>
      </g>
     </g>
    </g>
    <g id="xtick_18">
     <g id="line2d_61">
      <g>
       <use style="stroke:#000000;stroke-width:0.5;" x="445.08317776" xlink:href="#m93b0483c22" y="402.44"/>
      </g>
     </g>
     <g id="line2d_62">
      <g>
       <use style="stroke:#000000;stroke-width:0.5;" x="445.08317776" xlink:href="#m741efc42ff" y="238.28"/>
      </g>
     </g>
     <g id="text_30">
      <!-- 200 -->
      <g transform="translate(434.46880276 415.558125)scale(0.12 -0.12)">
       <use xlink:href="#BitstreamVeraSans-Roman-32"/>
       <use x="63.623046875" xlink:href="#BitstreamVeraSans-Roman-30"/>
       <use x="127.24609375" xlink:href="#BitstreamVeraSans-Roman-30"/>
      </g>
     </g>
    </g>
    <g id="xtick_19">
     <g id="line2d_63">
      <g>
       <use style="stroke:#000000;stroke-width:0.5;" x="475.486706575" xlink:href="#m93b0483c22" y="402.44"/>
      </g>
     </g>
     <g id="line2d_64">
      <g>
       <use style="stroke:#000000;stroke-width:0.5;" x="475.486706575" xlink:href="#m741efc42ff" y="238.28"/>
      </g>
     </g>
     <g id="text_31">
      <!-- 250 -->
      <g transform="translate(464.872331575 415.558125)scale(0.12 -0.12)">
       <use xlink:href="#BitstreamVeraSans-Roman-32"/>
       <use x="63.623046875" xlink:href="#BitstreamVeraSans-Roman-35"/>
       <use x="127.24609375" xlink:href="#BitstreamVeraSans-Roman-30"/>
      </g>
     </g>
    </g>
    <g id="xtick_20">
     <g id="line2d_65">
      <g>
       <use style="stroke:#000000;stroke-width:0.5;" x="505.89023539" xlink:href="#m93b0483c22" y="402.44"/>
      </g>
     </g>
     <g id="line2d_66">
      <g>
       <use style="stroke:#000000;stroke-width:0.5;" x="505.89023539" xlink:href="#m741efc42ff" y="238.28"/>
      </g>
     </g>
     <g id="text_32">
      <!-- 300 -->
      <g transform="translate(495.29367289 415.558125)scale(0.12 -0.12)">
       <use xlink:href="#BitstreamVeraSans-Roman-33"/>
       <use x="63.623046875" xlink:href="#BitstreamVeraSans-Roman-30"/>
       <use x="127.24609375" xlink:href="#BitstreamVeraSans-Roman-30"/>
      </g>
     </g>
    </g>
    <g id="xtick_21">
     <g id="line2d_67">
      <g>
       <use style="stroke:#000000;stroke-width:0.5;" x="536.293764205" xlink:href="#m93b0483c22" y="402.44"/>
      </g>
     </g>
     <g id="line2d_68">
      <g>
       <use style="stroke:#000000;stroke-width:0.5;" x="536.293764205" xlink:href="#m741efc42ff" y="238.28"/>
      </g>
     </g>
     <g id="text_33">
      <!-- 350 -->
      <g transform="translate(525.697201705 415.558125)scale(0.12 -0.12)">
       <use xlink:href="#BitstreamVeraSans-Roman-33"/>
       <use x="63.623046875" xlink:href="#BitstreamVeraSans-Roman-35"/>
       <use x="127.24609375" xlink:href="#BitstreamVeraSans-Roman-30"/>
      </g>
     </g>
    </g>
   </g>
   <g id="matplotlib.axis_6">
    <g id="ytick_11">
     <g id="line2d_69">
      <g>
       <use style="stroke:#000000;stroke-width:0.5;" x="323.4690625" xlink:href="#m728421d6d4" y="387.516363636"/>
      </g>
     </g>
     <g id="line2d_70">
      <g>
       <use style="stroke:#000000;stroke-width:0.5;" x="536.293764205" xlink:href="#mcb0005524f" y="387.516363636"/>
      </g>
     </g>
     <g id="text_34">
      <!-- 0.30 -->
      <g transform="translate(294.3384375 390.827613636)scale(0.12 -0.12)">
       <use xlink:href="#BitstreamVeraSans-Roman-30"/>
       <use x="63.623046875" xlink:href="#BitstreamVeraSans-Roman-2e"/>
       <use x="95.41015625" xlink:href="#BitstreamVeraSans-Roman-33"/>
       <use x="159.033203125" xlink:href="#BitstreamVeraSans-Roman-30"/>
      </g>
     </g>
    </g>
    <g id="ytick_12">
     <g id="line2d_71">
      <g>
       <use style="stroke:#000000;stroke-width:0.5;" x="323.4690625" xlink:href="#m728421d6d4" y="350.207272727"/>
      </g>
     </g>
     <g id="line2d_72">
      <g>
       <use style="stroke:#000000;stroke-width:0.5;" x="536.293764205" xlink:href="#mcb0005524f" y="350.207272727"/>
      </g>
     </g>
     <g id="text_35">
      <!-- 0.35 -->
      <g transform="translate(294.5896875 353.518522727)scale(0.12 -0.12)">
       <use xlink:href="#BitstreamVeraSans-Roman-30"/>
       <use x="63.623046875" xlink:href="#BitstreamVeraSans-Roman-2e"/>
       <use x="95.41015625" xlink:href="#BitstreamVeraSans-Roman-33"/>
       <use x="159.033203125" xlink:href="#BitstreamVeraSans-Roman-35"/>
      </g>
     </g>
    </g>
    <g id="ytick_13">
     <g id="line2d_73">
      <g>
       <use style="stroke:#000000;stroke-width:0.5;" x="323.4690625" xlink:href="#m728421d6d4" y="312.898181818"/>
      </g>
     </g>
     <g id="line2d_74">
      <g>
       <use style="stroke:#000000;stroke-width:0.5;" x="536.293764205" xlink:href="#mcb0005524f" y="312.898181818"/>
      </g>
     </g>
     <g id="text_36">
      <!-- 0.40 -->
      <g transform="translate(294.3384375 316.209431818)scale(0.12 -0.12)">
       <use xlink:href="#BitstreamVeraSans-Roman-30"/>
       <use x="63.623046875" xlink:href="#BitstreamVeraSans-Roman-2e"/>
       <use x="95.41015625" xlink:href="#BitstreamVeraSans-Roman-34"/>
       <use x="159.033203125" xlink:href="#BitstreamVeraSans-Roman-30"/>
      </g>
     </g>
    </g>
    <g id="ytick_14">
     <g id="line2d_75">
      <g>
       <use style="stroke:#000000;stroke-width:0.5;" x="323.4690625" xlink:href="#m728421d6d4" y="275.589090909"/>
      </g>
     </g>
     <g id="line2d_76">
      <g>
       <use style="stroke:#000000;stroke-width:0.5;" x="536.293764205" xlink:href="#mcb0005524f" y="275.589090909"/>
      </g>
     </g>
     <g id="text_37">
      <!-- 0.45 -->
      <g transform="translate(294.5896875 278.900340909)scale(0.12 -0.12)">
       <use xlink:href="#BitstreamVeraSans-Roman-30"/>
       <use x="63.623046875" xlink:href="#BitstreamVeraSans-Roman-2e"/>
       <use x="95.41015625" xlink:href="#BitstreamVeraSans-Roman-34"/>
       <use x="159.033203125" xlink:href="#BitstreamVeraSans-Roman-35"/>
      </g>
     </g>
    </g>
    <g id="ytick_15">
     <g id="line2d_77">
      <g>
       <use style="stroke:#000000;stroke-width:0.5;" x="323.4690625" xlink:href="#m728421d6d4" y="238.28"/>
      </g>
     </g>
     <g id="line2d_78">
      <g>
       <use style="stroke:#000000;stroke-width:0.5;" x="536.293764205" xlink:href="#mcb0005524f" y="238.28"/>
      </g>
     </g>
     <g id="text_38">
      <!-- 0.50 -->
      <g transform="translate(294.3384375 241.59125)scale(0.12 -0.12)">
       <use xlink:href="#BitstreamVeraSans-Roman-30"/>
       <use x="63.623046875" xlink:href="#BitstreamVeraSans-Roman-2e"/>
       <use x="95.41015625" xlink:href="#BitstreamVeraSans-Roman-35"/>
       <use x="159.033203125" xlink:href="#BitstreamVeraSans-Roman-30"/>
      </g>
     </g>
    </g>
   </g>
   <g id="text_39">
    <!-- Pulse in Stress Trials -->
    <g transform="translate(357.262663352 233.28)scale(0.144 -0.144)">
     <use xlink:href="#BitstreamVeraSans-Roman-50"/>
     <use x="58.552734375" xlink:href="#BitstreamVeraSans-Roman-75"/>
     <use x="121.931640625" xlink:href="#BitstreamVeraSans-Roman-6c"/>
     <use x="149.71484375" xlink:href="#BitstreamVeraSans-Roman-73"/>
     <use x="201.814453125" xlink:href="#BitstreamVeraSans-Roman-65"/>
     <use x="263.337890625" xlink:href="#BitstreamVeraSans-Roman-20"/>
     <use x="295.125" xlink:href="#BitstreamVeraSans-Roman-69"/>
     <use x="322.908203125" xlink:href="#BitstreamVeraSans-Roman-6e"/>
     <use x="386.287109375" xlink:href="#BitstreamVeraSans-Roman-20"/>
     <use x="418.07421875" xlink:href="#BitstreamVeraSans-Roman-53"/>
     <use x="481.55078125" xlink:href="#BitstreamVeraSans-Roman-74"/>
     <use x="520.759765625" xlink:href="#BitstreamVeraSans-Roman-72"/>
     <use x="559.623046875" xlink:href="#BitstreamVeraSans-Roman-65"/>
     <use x="621.146484375" xlink:href="#BitstreamVeraSans-Roman-73"/>
     <use x="673.24609375" xlink:href="#BitstreamVeraSans-Roman-73"/>
     <use x="725.345703125" xlink:href="#BitstreamVeraSans-Roman-20"/>
     <use x="757.1328125" xlink:href="#BitstreamVeraSans-Roman-54"/>
     <use x="803.466796875" xlink:href="#BitstreamVeraSans-Roman-72"/>
     <use x="844.580078125" xlink:href="#BitstreamVeraSans-Roman-69"/>
     <use x="872.36328125" xlink:href="#BitstreamVeraSans-Roman-61"/>
     <use x="933.642578125" xlink:href="#BitstreamVeraSans-Roman-6c"/>
     <use x="961.42578125" xlink:href="#BitstreamVeraSans-Roman-73"/>
    </g>
   </g>
  </g>
  <g id="axes_4">
   <g id="patch_17">
    <path d="
M323.469 192.92
L536.294 192.92
L536.294 28.76
L323.469 28.76
z
" style="fill:#ffffff;"/>
   </g>
   <g id="line2d_79">
    <path clip-path="url(#pe160646a53)" d="
M429.881 49.2691" style="fill:none;stroke:#0000ff;stroke-linecap:square;"/>
   </g>
   <g id="line2d_80">
    <path clip-path="url(#pe160646a53)" d="
M429.881 49.2691" style="fill:none;stroke:#0000ff;stroke-dasharray:6.000000,6.000000;stroke-dashoffset:0.0;"/>
   </g>
   <g id="patch_18">
    <path d="
M323.469 28.76
L536.294 28.76" style="fill:none;stroke:#000000;stroke-linecap:square;stroke-linejoin:miter;"/>
   </g>
   <g id="patch_19">
    <path d="
M536.294 192.92
L536.294 28.76" style="fill:none;stroke:#000000;stroke-linecap:square;stroke-linejoin:miter;"/>
   </g>
   <g id="patch_20">
    <path d="
M323.469 192.92
L536.294 192.92" style="fill:none;stroke:#000000;stroke-linecap:square;stroke-linejoin:miter;"/>
   </g>
   <g id="patch_21">
    <path d="
M323.469 192.92
L323.469 28.76" style="fill:none;stroke:#000000;stroke-linecap:square;stroke-linejoin:miter;"/>
   </g>
   <g id="matplotlib.axis_7">
    <g id="xtick_22">
     <g id="line2d_81">
      <g>
       <use style="stroke:#000000;stroke-width:0.5;" x="323.4690625" xlink:href="#m93b0483c22" y="192.92"/>
      </g>
     </g>
     <g id="line2d_82">
      <g>
       <use style="stroke:#000000;stroke-width:0.5;" x="323.4690625" xlink:href="#m741efc42ff" y="28.76"/>
      </g>
     </g>
     <g id="text_40">
      <!-- 0.94 -->
      <g transform="translate(310.841875 206.038125)scale(0.12 -0.12)">
       <use xlink:href="#BitstreamVeraSans-Roman-30"/>
       <use x="63.623046875" xlink:href="#BitstreamVeraSans-Roman-2e"/>
       <use x="95.41015625" xlink:href="#BitstreamVeraSans-Roman-39"/>
       <use x="159.033203125" xlink:href="#BitstreamVeraSans-Roman-34"/>
      </g>
     </g>
    </g>
    <g id="xtick_23">
     <g id="line2d_83">
      <g>
       <use style="stroke:#000000;stroke-width:0.5;" x="358.939846117" xlink:href="#m93b0483c22" y="192.92"/>
      </g>
     </g>
     <g id="line2d_84">
      <g>
       <use style="stroke:#000000;stroke-width:0.5;" x="358.939846117" xlink:href="#m741efc42ff" y="28.76"/>
      </g>
     </g>
     <g id="text_41">
      <!-- 0.96 -->
      <g transform="translate(346.353908617 206.038125)scale(0.12 -0.12)">
       <use xlink:href="#BitstreamVeraSans-Roman-30"/>
       <use x="63.623046875" xlink:href="#BitstreamVeraSans-Roman-2e"/>
       <use x="95.41015625" xlink:href="#BitstreamVeraSans-Roman-39"/>
       <use x="159.033203125" xlink:href="#BitstreamVeraSans-Roman-36"/>
      </g>
     </g>
    </g>
    <g id="xtick_24">
     <g id="line2d_85">
      <g>
       <use style="stroke:#000000;stroke-width:0.5;" x="394.410629735" xlink:href="#m93b0483c22" y="192.92"/>
      </g>
     </g>
     <g id="line2d_86">
      <g>
       <use style="stroke:#000000;stroke-width:0.5;" x="394.410629735" xlink:href="#m741efc42ff" y="28.76"/>
      </g>
     </g>
     <g id="text_42">
      <!-- 0.98 -->
      <g transform="translate(381.857504735 206.038125)scale(0.12 -0.12)">
       <use xlink:href="#BitstreamVeraSans-Roman-30"/>
       <use x="63.623046875" xlink:href="#BitstreamVeraSans-Roman-2e"/>
       <use x="95.41015625" xlink:href="#BitstreamVeraSans-Roman-39"/>
       <use x="159.033203125" xlink:href="#BitstreamVeraSans-Roman-38"/>
      </g>
     </g>
    </g>
    <g id="xtick_25">
     <g id="line2d_87">
      <g>
       <use style="stroke:#000000;stroke-width:0.5;" x="429.881413352" xlink:href="#m93b0483c22" y="192.92"/>
      </g>
     </g>
     <g id="line2d_88">
      <g>
       <use style="stroke:#000000;stroke-width:0.5;" x="429.881413352" xlink:href="#m741efc42ff" y="28.76"/>
      </g>
     </g>
     <g id="text_43">
      <!-- 1.00 -->
      <g transform="translate(417.579538352 206.038125)scale(0.12 -0.12)">
       <use xlink:href="#BitstreamVeraSans-Roman-31"/>
       <use x="63.623046875" xlink:href="#BitstreamVeraSans-Roman-2e"/>
       <use x="95.41015625" xlink:href="#BitstreamVeraSans-Roman-30"/>
       <use x="159.033203125" xlink:href="#BitstreamVeraSans-Roman-30"/>
      </g>
     </g>
    </g>
    <g id="xtick_26">
     <g id="line2d_89">
      <g>
       <use style="stroke:#000000;stroke-width:0.5;" x="465.35219697" xlink:href="#m93b0483c22" y="192.92"/>
      </g>
     </g>
     <g id="line2d_90">
      <g>
       <use style="stroke:#000000;stroke-width:0.5;" x="465.35219697" xlink:href="#m741efc42ff" y="28.76"/>
      </g>
     </g>
     <g id="text_44">
      <!-- 1.02 -->
      <g transform="translate(453.25282197 206.038125)scale(0.12 -0.12)">
       <use xlink:href="#BitstreamVeraSans-Roman-31"/>
       <use x="63.623046875" xlink:href="#BitstreamVeraSans-Roman-2e"/>
       <use x="95.41015625" xlink:href="#BitstreamVeraSans-Roman-30"/>
       <use x="159.033203125" xlink:href="#BitstreamVeraSans-Roman-32"/>
      </g>
     </g>
    </g>
    <g id="xtick_27">
     <g id="line2d_91">
      <g>
       <use style="stroke:#000000;stroke-width:0.5;" x="500.822980587" xlink:href="#m93b0483c22" y="192.92"/>
      </g>
     </g>
     <g id="line2d_92">
      <g>
       <use style="stroke:#000000;stroke-width:0.5;" x="500.822980587" xlink:href="#m741efc42ff" y="28.76"/>
      </g>
     </g>
     <g id="text_45">
      <!-- 1.04 -->
      <g transform="translate(488.459230587 206.038125)scale(0.12 -0.12)">
       <use xlink:href="#BitstreamVeraSans-Roman-31"/>
       <use x="63.623046875" xlink:href="#BitstreamVeraSans-Roman-2e"/>
       <use x="95.41015625" xlink:href="#BitstreamVeraSans-Roman-30"/>
       <use x="159.033203125" xlink:href="#BitstreamVeraSans-Roman-34"/>
      </g>
     </g>
    </g>
    <g id="xtick_28">
     <g id="line2d_93">
      <g>
       <use style="stroke:#000000;stroke-width:0.5;" x="536.293764205" xlink:href="#m93b0483c22" y="192.92"/>
      </g>
     </g>
     <g id="line2d_94">
      <g>
       <use style="stroke:#000000;stroke-width:0.5;" x="536.293764205" xlink:href="#m741efc42ff" y="28.76"/>
      </g>
     </g>
     <g id="text_46">
      <!-- 1.06 -->
      <g transform="translate(523.971264205 206.038125)scale(0.12 -0.12)">
       <use xlink:href="#BitstreamVeraSans-Roman-31"/>
       <use x="63.623046875" xlink:href="#BitstreamVeraSans-Roman-2e"/>
       <use x="95.41015625" xlink:href="#BitstreamVeraSans-Roman-30"/>
       <use x="159.033203125" xlink:href="#BitstreamVeraSans-Roman-36"/>
      </g>
     </g>
    </g>
   </g>
   <g id="matplotlib.axis_8">
    <g id="ytick_16">
     <g id="line2d_95">
      <g>
       <use style="stroke:#000000;stroke-width:0.5;" x="323.4690625" xlink:href="#m728421d6d4" y="177.996363636"/>
      </g>
     </g>
     <g id="line2d_96">
      <g>
       <use style="stroke:#000000;stroke-width:0.5;" x="536.293764205" xlink:href="#mcb0005524f" y="177.996363636"/>
      </g>
     </g>
     <g id="text_47">
      <!-- 0.30 -->
      <g transform="translate(294.3384375 181.307613636)scale(0.12 -0.12)">
       <use xlink:href="#BitstreamVeraSans-Roman-30"/>
       <use x="63.623046875" xlink:href="#BitstreamVeraSans-Roman-2e"/>
       <use x="95.41015625" xlink:href="#BitstreamVeraSans-Roman-33"/>
       <use x="159.033203125" xlink:href="#BitstreamVeraSans-Roman-30"/>
      </g>
     </g>
    </g>
    <g id="ytick_17">
     <g id="line2d_97">
      <g>
       <use style="stroke:#000000;stroke-width:0.5;" x="323.4690625" xlink:href="#m728421d6d4" y="140.687272727"/>
      </g>
     </g>
     <g id="line2d_98">
      <g>
       <use style="stroke:#000000;stroke-width:0.5;" x="536.293764205" xlink:href="#mcb0005524f" y="140.687272727"/>
      </g>
     </g>
     <g id="text_48">
      <!-- 0.35 -->
      <g transform="translate(294.5896875 143.998522727)scale(0.12 -0.12)">
       <use xlink:href="#BitstreamVeraSans-Roman-30"/>
       <use x="63.623046875" xlink:href="#BitstreamVeraSans-Roman-2e"/>
       <use x="95.41015625" xlink:href="#BitstreamVeraSans-Roman-33"/>
       <use x="159.033203125" xlink:href="#BitstreamVeraSans-Roman-35"/>
      </g>
     </g>
    </g>
    <g id="ytick_18">
     <g id="line2d_99">
      <g>
       <use style="stroke:#000000;stroke-width:0.5;" x="323.4690625" xlink:href="#m728421d6d4" y="103.378181818"/>
      </g>
     </g>
     <g id="line2d_100">
      <g>
       <use style="stroke:#000000;stroke-width:0.5;" x="536.293764205" xlink:href="#mcb0005524f" y="103.378181818"/>
      </g>
     </g>
     <g id="text_49">
      <!-- 0.40 -->
      <g transform="translate(294.3384375 106.689431818)scale(0.12 -0.12)">
       <use xlink:href="#BitstreamVeraSans-Roman-30"/>
       <use x="63.623046875" xlink:href="#BitstreamVeraSans-Roman-2e"/>
       <use x="95.41015625" xlink:href="#BitstreamVeraSans-Roman-34"/>
       <use x="159.033203125" xlink:href="#BitstreamVeraSans-Roman-30"/>
      </g>
     </g>
    </g>
    <g id="ytick_19">
     <g id="line2d_101">
      <g>
       <use style="stroke:#000000;stroke-width:0.5;" x="323.4690625" xlink:href="#m728421d6d4" y="66.0690909091"/>
      </g>
     </g>
     <g id="line2d_102">
      <g>
       <use style="stroke:#000000;stroke-width:0.5;" x="536.293764205" xlink:href="#mcb0005524f" y="66.0690909091"/>
      </g>
     </g>
     <g id="text_50">
      <!-- 0.45 -->
      <g transform="translate(294.5896875 69.3803409091)scale(0.12 -0.12)">
       <use xlink:href="#BitstreamVeraSans-Roman-30"/>
       <use x="63.623046875" xlink:href="#BitstreamVeraSans-Roman-2e"/>
       <use x="95.41015625" xlink:href="#BitstreamVeraSans-Roman-34"/>
       <use x="159.033203125" xlink:href="#BitstreamVeraSans-Roman-35"/>
      </g>
     </g>
    </g>
    <g id="ytick_20">
     <g id="line2d_103">
      <g>
       <use style="stroke:#000000;stroke-width:0.5;" x="323.4690625" xlink:href="#m728421d6d4" y="28.76"/>
      </g>
     </g>
     <g id="line2d_104">
      <g>
       <use style="stroke:#000000;stroke-width:0.5;" x="536.293764205" xlink:href="#mcb0005524f" y="28.76"/>
      </g>
     </g>
     <g id="text_51">
      <!-- 0.50 -->
      <g transform="translate(294.3384375 32.07125)scale(0.12 -0.12)">
       <use xlink:href="#BitstreamVeraSans-Roman-30"/>
       <use x="63.623046875" xlink:href="#BitstreamVeraSans-Roman-2e"/>
       <use x="95.41015625" xlink:href="#BitstreamVeraSans-Roman-35"/>
       <use x="159.033203125" xlink:href="#BitstreamVeraSans-Roman-30"/>
      </g>
     </g>
    </g>
   </g>
   <g id="text_52">
    <!-- Pulse in Regular Trials before Stress -->
    <g transform="translate(301.901413352 23.76)scale(0.144 -0.144)">
     <use xlink:href="#BitstreamVeraSans-Roman-50"/>
     <use x="58.552734375" xlink:href="#BitstreamVeraSans-Roman-75"/>
     <use x="121.931640625" xlink:href="#BitstreamVeraSans-Roman-6c"/>
     <use x="149.71484375" xlink:href="#BitstreamVeraSans-Roman-73"/>
     <use x="201.814453125" xlink:href="#BitstreamVeraSans-Roman-65"/>
     <use x="263.337890625" xlink:href="#BitstreamVeraSans-Roman-20"/>
     <use x="295.125" xlink:href="#BitstreamVeraSans-Roman-69"/>
     <use x="322.908203125" xlink:href="#BitstreamVeraSans-Roman-6e"/>
     <use x="386.287109375" xlink:href="#BitstreamVeraSans-Roman-20"/>
     <use x="418.07421875" xlink:href="#BitstreamVeraSans-Roman-52"/>
     <use x="483.056640625" xlink:href="#BitstreamVeraSans-Roman-65"/>
     <use x="544.580078125" xlink:href="#BitstreamVeraSans-Roman-67"/>
     <use x="608.056640625" xlink:href="#BitstreamVeraSans-Roman-75"/>
     <use x="671.435546875" xlink:href="#BitstreamVeraSans-Roman-6c"/>
     <use x="699.21875" xlink:href="#BitstreamVeraSans-Roman-61"/>
     <use x="760.498046875" xlink:href="#BitstreamVeraSans-Roman-72"/>
     <use x="801.611328125" xlink:href="#BitstreamVeraSans-Roman-20"/>
     <use x="833.3984375" xlink:href="#BitstreamVeraSans-Roman-54"/>
     <use x="879.732421875" xlink:href="#BitstreamVeraSans-Roman-72"/>
     <use x="920.845703125" xlink:href="#BitstreamVeraSans-Roman-69"/>
     <use x="948.62890625" xlink:href="#BitstreamVeraSans-Roman-61"/>
     <use x="1009.90820312" xlink:href="#BitstreamVeraSans-Roman-6c"/>
     <use x="1037.69140625" xlink:href="#BitstreamVeraSans-Roman-73"/>
     <use x="1089.79101562" xlink:href="#BitstreamVeraSans-Roman-20"/>
     <use x="1121.578125" xlink:href="#BitstreamVeraSans-Roman-62"/>
     <use x="1185.0546875" xlink:href="#BitstreamVeraSans-Roman-65"/>
     <use x="1246.578125" xlink:href="#BitstreamVeraSans-Roman-66"/>
     <use x="1281.78320312" xlink:href="#BitstreamVeraSans-Roman-6f"/>
     <use x="1342.96484375" xlink:href="#BitstreamVeraSans-Roman-72"/>
     <use x="1381.828125" xlink:href="#BitstreamVeraSans-Roman-65"/>
     <use x="1443.3515625" xlink:href="#BitstreamVeraSans-Roman-20"/>
     <use x="1475.13867188" xlink:href="#BitstreamVeraSans-Roman-53"/>
     <use x="1538.61523438" xlink:href="#BitstreamVeraSans-Roman-74"/>
     <use x="1577.82421875" xlink:href="#BitstreamVeraSans-Roman-72"/>
     <use x="1616.6875" xlink:href="#BitstreamVeraSans-Roman-65"/>
     <use x="1678.2109375" xlink:href="#BitstreamVeraSans-Roman-73"/>
     <use x="1730.31054688" xlink:href="#BitstreamVeraSans-Roman-73"/>
    </g>
   </g>
  </g>
 </g>
 <defs>
  <clipPath id="p12b1442ff1">
   <rect height="164.16" width="212.824701705" x="41.9490625" y="238.28"/>
  </clipPath>
  <clipPath id="p13eebda5b1">
   <rect height="164.16" width="212.824701705" x="323.4690625" y="238.28"/>
  </clipPath>
  <clipPath id="p217c292275">
   <rect height="164.16" width="212.824701705" x="41.9490625" y="28.76"/>
  </clipPath>
  <clipPath id="pe160646a53">
   <rect height="164.16" width="212.824701705" x="323.4690625" y="28.76"/>
  </clipPath>
 </defs>
</svg>
