<?xml version="1.0" encoding="utf-8" standalone="no"?>
<!DOCTYPE svg PUBLIC "-//W3C//DTD SVG 1.1//EN"
  "http://www.w3.org/Graphics/SVG/1.1/DTD/svg11.dtd">
<!-- Created with matplotlib (http://matplotlib.org/) -->
<svg height="345pt" version="1.1" viewBox="0 0 460 345" width="460pt" xmlns="http://www.w3.org/2000/svg" xmlns:xlink="http://www.w3.org/1999/xlink">
 <defs>
  <style type="text/css">
*{stroke-linecap:butt;stroke-linejoin:round;}
  </style>
 </defs>
 <g id="figure_1">
  <g id="patch_1">
   <path d="M 0 345.6 
L 460.8 345.6 
L 460.8 0 
L 0 0 
z
" style="fill:#ffffff;"/>
  </g>
  <g id="axes_1">
   <g id="patch_2">
    <path d="M 57.6 307.584 
L 219.927273 307.584 
L 219.927273 41.472 
L 57.6 41.472 
z
" style="fill:#ffffff;"/>
   </g>
   <g id="matplotlib.axis_1">
    <g id="xtick_1">
     <g id="line2d_1">
      <defs>
       <path d="M 0 0 
L 0 3.5 
" id="mb2090cdb1a" style="stroke:#000000;stroke-width:0.8;"/>
      </defs>
      <g>
       <use style="stroke:#000000;stroke-width:0.8;" x="64.978512" xlink:href="#mb2090cdb1a" y="307.584"/>
      </g>
     </g>
     <g id="text_1">
      <!-- 0.0 -->
      <defs>
       <path d="M 31.78125 66.40625 
Q 24.171875 66.40625 20.328125 58.90625 
Q 16.5 51.421875 16.5 36.375 
Q 16.5 21.390625 20.328125 13.890625 
Q 24.171875 6.390625 31.78125 6.390625 
Q 39.453125 6.390625 43.28125 13.890625 
Q 47.125 21.390625 47.125 36.375 
Q 47.125 51.421875 43.28125 58.90625 
Q 39.453125 66.40625 31.78125 66.40625 
z
M 31.78125 74.21875 
Q 44.046875 74.21875 50.515625 64.515625 
Q 56.984375 54.828125 56.984375 36.375 
Q 56.984375 17.96875 50.515625 8.265625 
Q 44.046875 -1.421875 31.78125 -1.421875 
Q 19.53125 -1.421875 13.0625 8.265625 
Q 6.59375 17.96875 6.59375 36.375 
Q 6.59375 54.828125 13.0625 64.515625 
Q 19.53125 74.21875 31.78125 74.21875 
z
" id="DejaVuSans-30"/>
       <path d="M 10.6875 12.40625 
L 21 12.40625 
L 21 0 
L 10.6875 0 
z
" id="DejaVuSans-2e"/>
      </defs>
      <g transform="translate(57.02695 322.182437)scale(0.1 -0.1)">
       <use xlink:href="#DejaVuSans-30"/>
       <use x="63.623047" xlink:href="#DejaVuSans-2e"/>
       <use x="95.410156" xlink:href="#DejaVuSans-30"/>
      </g>
     </g>
    </g>
    <g id="xtick_2">
     <g id="line2d_2">
      <g>
       <use style="stroke:#000000;stroke-width:0.8;" x="82.686942" xlink:href="#mb2090cdb1a" y="307.584"/>
      </g>
     </g>
     <g id="text_2">
      <!-- 5.0 -->
      <defs>
       <path d="M 10.796875 72.90625 
L 49.515625 72.90625 
L 49.515625 64.59375 
L 19.828125 64.59375 
L 19.828125 46.734375 
Q 21.96875 47.46875 24.109375 47.828125 
Q 26.265625 48.1875 28.421875 48.1875 
Q 40.625 48.1875 47.75 41.5 
Q 54.890625 34.8125 54.890625 23.390625 
Q 54.890625 11.625 47.5625 5.09375 
Q 40.234375 -1.421875 26.90625 -1.421875 
Q 22.3125 -1.421875 17.546875 -0.640625 
Q 12.796875 0.140625 7.71875 1.703125 
L 7.71875 11.625 
Q 12.109375 9.234375 16.796875 8.0625 
Q 21.484375 6.890625 26.703125 6.890625 
Q 35.15625 6.890625 40.078125 11.328125 
Q 45.015625 15.765625 45.015625 23.390625 
Q 45.015625 31 40.078125 35.4375 
Q 35.15625 39.890625 26.703125 39.890625 
Q 22.75 39.890625 18.8125 39.015625 
Q 14.890625 38.140625 10.796875 36.28125 
z
" id="DejaVuSans-35"/>
      </defs>
      <g transform="translate(74.73538 322.182437)scale(0.1 -0.1)">
       <use xlink:href="#DejaVuSans-35"/>
       <use x="63.623047" xlink:href="#DejaVuSans-2e"/>
       <use x="95.410156" xlink:href="#DejaVuSans-30"/>
      </g>
     </g>
    </g>
    <g id="xtick_3">
     <g id="line2d_3">
      <g>
       <use style="stroke:#000000;stroke-width:0.8;" x="100.395372" xlink:href="#mb2090cdb1a" y="307.584"/>
      </g>
     </g>
     <g id="text_3">
      <!-- 10.0 -->
      <defs>
       <path d="M 12.40625 8.296875 
L 28.515625 8.296875 
L 28.515625 63.921875 
L 10.984375 60.40625 
L 10.984375 69.390625 
L 28.421875 72.90625 
L 38.28125 72.90625 
L 38.28125 8.296875 
L 54.390625 8.296875 
L 54.390625 0 
L 12.40625 0 
z
" id="DejaVuSans-31"/>
      </defs>
      <g transform="translate(89.262559 322.182437)scale(0.1 -0.1)">
       <use xlink:href="#DejaVuSans-31"/>
       <use x="63.623047" xlink:href="#DejaVuSans-30"/>
       <use x="127.246094" xlink:href="#DejaVuSans-2e"/>
       <use x="159.033203" xlink:href="#DejaVuSans-30"/>
      </g>
     </g>
    </g>
    <g id="xtick_4">
     <g id="line2d_4">
      <g>
       <use style="stroke:#000000;stroke-width:0.8;" x="118.103802" xlink:href="#mb2090cdb1a" y="307.584"/>
      </g>
     </g>
     <g id="text_4">
      <!-- 15.0 -->
      <g transform="translate(106.970989 322.182437)scale(0.1 -0.1)">
       <use xlink:href="#DejaVuSans-31"/>
       <use x="63.623047" xlink:href="#DejaVuSans-35"/>
       <use x="127.246094" xlink:href="#DejaVuSans-2e"/>
       <use x="159.033203" xlink:href="#DejaVuSans-30"/>
      </g>
     </g>
    </g>
    <g id="xtick_5">
     <g id="line2d_5">
      <g>
       <use style="stroke:#000000;stroke-width:0.8;" x="135.812231" xlink:href="#mb2090cdb1a" y="307.584"/>
      </g>
     </g>
     <g id="text_5">
      <!-- 20.0 -->
      <defs>
       <path d="M 19.1875 8.296875 
L 53.609375 8.296875 
L 53.609375 0 
L 7.328125 0 
L 7.328125 8.296875 
Q 12.9375 14.109375 22.625 23.890625 
Q 32.328125 33.6875 34.8125 36.53125 
Q 39.546875 41.84375 41.421875 45.53125 
Q 43.3125 49.21875 43.3125 52.78125 
Q 43.3125 58.59375 39.234375 62.25 
Q 35.15625 65.921875 28.609375 65.921875 
Q 23.96875 65.921875 18.8125 64.3125 
Q 13.671875 62.703125 7.8125 59.421875 
L 7.8125 69.390625 
Q 13.765625 71.78125 18.9375 73 
Q 24.125 74.21875 28.421875 74.21875 
Q 39.75 74.21875 46.484375 68.546875 
Q 53.21875 62.890625 53.21875 53.421875 
Q 53.21875 48.921875 51.53125 44.890625 
Q 49.859375 40.875 45.40625 35.40625 
Q 44.1875 33.984375 37.640625 27.21875 
Q 31.109375 20.453125 19.1875 8.296875 
z
" id="DejaVuSans-32"/>
      </defs>
      <g transform="translate(124.679419 322.182437)scale(0.1 -0.1)">
       <use xlink:href="#DejaVuSans-32"/>
       <use x="63.623047" xlink:href="#DejaVuSans-30"/>
       <use x="127.246094" xlink:href="#DejaVuSans-2e"/>
       <use x="159.033203" xlink:href="#DejaVuSans-30"/>
      </g>
     </g>
    </g>
    <g id="xtick_6">
     <g id="line2d_6">
      <g>
       <use style="stroke:#000000;stroke-width:0.8;" x="153.520661" xlink:href="#mb2090cdb1a" y="307.584"/>
      </g>
     </g>
     <g id="text_6">
      <!-- 25.0 -->
      <g transform="translate(142.387849 322.182437)scale(0.1 -0.1)">
       <use xlink:href="#DejaVuSans-32"/>
       <use x="63.623047" xlink:href="#DejaVuSans-35"/>
       <use x="127.246094" xlink:href="#DejaVuSans-2e"/>
       <use x="159.033203" xlink:href="#DejaVuSans-30"/>
      </g>
     </g>
    </g>
    <g id="xtick_7">
     <g id="line2d_7">
      <g>
       <use style="stroke:#000000;stroke-width:0.8;" x="171.229091" xlink:href="#mb2090cdb1a" y="307.584"/>
      </g>
     </g>
     <g id="text_7">
      <!-- 30.0 -->
      <defs>
       <path d="M 40.578125 39.3125 
Q 47.65625 37.796875 51.625 33 
Q 55.609375 28.21875 55.609375 21.1875 
Q 55.609375 10.40625 48.1875 4.484375 
Q 40.765625 -1.421875 27.09375 -1.421875 
Q 22.515625 -1.421875 17.65625 -0.515625 
Q 12.796875 0.390625 7.625 2.203125 
L 7.625 11.71875 
Q 11.71875 9.328125 16.59375 8.109375 
Q 21.484375 6.890625 26.8125 6.890625 
Q 36.078125 6.890625 40.9375 10.546875 
Q 45.796875 14.203125 45.796875 21.1875 
Q 45.796875 27.640625 41.28125 31.265625 
Q 36.765625 34.90625 28.71875 34.90625 
L 20.21875 34.90625 
L 20.21875 43.015625 
L 29.109375 43.015625 
Q 36.375 43.015625 40.234375 45.921875 
Q 44.09375 48.828125 44.09375 54.296875 
Q 44.09375 59.90625 40.109375 62.90625 
Q 36.140625 65.921875 28.71875 65.921875 
Q 24.65625 65.921875 20.015625 65.03125 
Q 15.375 64.15625 9.8125 62.3125 
L 9.8125 71.09375 
Q 15.4375 72.65625 20.34375 73.4375 
Q 25.25 74.21875 29.59375 74.21875 
Q 40.828125 74.21875 47.359375 69.109375 
Q 53.90625 64.015625 53.90625 55.328125 
Q 53.90625 49.265625 50.4375 45.09375 
Q 46.96875 40.921875 40.578125 39.3125 
z
" id="DejaVuSans-33"/>
      </defs>
      <g transform="translate(160.096278 322.182437)scale(0.1 -0.1)">
       <use xlink:href="#DejaVuSans-33"/>
       <use x="63.623047" xlink:href="#DejaVuSans-30"/>
       <use x="127.246094" xlink:href="#DejaVuSans-2e"/>
       <use x="159.033203" xlink:href="#DejaVuSans-30"/>
      </g>
     </g>
    </g>
    <g id="xtick_8">
     <g id="line2d_8">
      <g>
       <use style="stroke:#000000;stroke-width:0.8;" x="188.937521" xlink:href="#mb2090cdb1a" y="307.584"/>
      </g>
     </g>
     <g id="text_8">
      <!-- 35.0 -->
      <g transform="translate(177.804708 322.182437)scale(0.1 -0.1)">
       <use xlink:href="#DejaVuSans-33"/>
       <use x="63.623047" xlink:href="#DejaVuSans-35"/>
       <use x="127.246094" xlink:href="#DejaVuSans-2e"/>
       <use x="159.033203" xlink:href="#DejaVuSans-30"/>
      </g>
     </g>
    </g>
    <g id="xtick_9">
     <g id="line2d_9">
      <g>
       <use style="stroke:#000000;stroke-width:0.8;" x="206.64595" xlink:href="#mb2090cdb1a" y="307.584"/>
      </g>
     </g>
     <g id="text_9">
      <!-- 40.0 -->
      <defs>
       <path d="M 37.796875 64.3125 
L 12.890625 25.390625 
L 37.796875 25.390625 
z
M 35.203125 72.90625 
L 47.609375 72.90625 
L 47.609375 25.390625 
L 58.015625 25.390625 
L 58.015625 17.1875 
L 47.609375 17.1875 
L 47.609375 0 
L 37.796875 0 
L 37.796875 17.1875 
L 4.890625 17.1875 
L 4.890625 26.703125 
z
" id="DejaVuSans-34"/>
      </defs>
      <g transform="translate(195.513138 322.182437)scale(0.1 -0.1)">
       <use xlink:href="#DejaVuSans-34"/>
       <use x="63.623047" xlink:href="#DejaVuSans-30"/>
       <use x="127.246094" xlink:href="#DejaVuSans-2e"/>
       <use x="159.033203" xlink:href="#DejaVuSans-30"/>
      </g>
     </g>
    </g>
    <g id="text_10">
     <!-- Minutes -->
     <defs>
      <path d="M 9.8125 72.90625 
L 24.515625 72.90625 
L 43.109375 23.296875 
L 61.8125 72.90625 
L 76.515625 72.90625 
L 76.515625 0 
L 66.890625 0 
L 66.890625 64.015625 
L 48.09375 14.015625 
L 38.1875 14.015625 
L 19.390625 64.015625 
L 19.390625 0 
L 9.8125 0 
z
" id="DejaVuSans-4d"/>
      <path d="M 9.421875 54.6875 
L 18.40625 54.6875 
L 18.40625 0 
L 9.421875 0 
z
M 9.421875 75.984375 
L 18.40625 75.984375 
L 18.40625 64.59375 
L 9.421875 64.59375 
z
" id="DejaVuSans-69"/>
      <path d="M 54.890625 33.015625 
L 54.890625 0 
L 45.90625 0 
L 45.90625 32.71875 
Q 45.90625 40.484375 42.875 44.328125 
Q 39.84375 48.1875 33.796875 48.1875 
Q 26.515625 48.1875 22.3125 43.546875 
Q 18.109375 38.921875 18.109375 30.90625 
L 18.109375 0 
L 9.078125 0 
L 9.078125 54.6875 
L 18.109375 54.6875 
L 18.109375 46.1875 
Q 21.34375 51.125 25.703125 53.5625 
Q 30.078125 56 35.796875 56 
Q 45.21875 56 50.046875 50.171875 
Q 54.890625 44.34375 54.890625 33.015625 
z
" id="DejaVuSans-6e"/>
      <path d="M 8.5 21.578125 
L 8.5 54.6875 
L 17.484375 54.6875 
L 17.484375 21.921875 
Q 17.484375 14.15625 20.5 10.265625 
Q 23.53125 6.390625 29.59375 6.390625 
Q 36.859375 6.390625 41.078125 11.03125 
Q 45.3125 15.671875 45.3125 23.6875 
L 45.3125 54.6875 
L 54.296875 54.6875 
L 54.296875 0 
L 45.3125 0 
L 45.3125 8.40625 
Q 42.046875 3.421875 37.71875 1 
Q 33.40625 -1.421875 27.6875 -1.421875 
Q 18.265625 -1.421875 13.375 4.4375 
Q 8.5 10.296875 8.5 21.578125 
z
M 31.109375 56 
z
" id="DejaVuSans-75"/>
      <path d="M 18.3125 70.21875 
L 18.3125 54.6875 
L 36.8125 54.6875 
L 36.8125 47.703125 
L 18.3125 47.703125 
L 18.3125 18.015625 
Q 18.3125 11.328125 20.140625 9.421875 
Q 21.96875 7.515625 27.59375 7.515625 
L 36.8125 7.515625 
L 36.8125 0 
L 27.59375 0 
Q 17.1875 0 13.234375 3.875 
Q 9.28125 7.765625 9.28125 18.015625 
L 9.28125 47.703125 
L 2.6875 47.703125 
L 2.6875 54.6875 
L 9.28125 54.6875 
L 9.28125 70.21875 
z
" id="DejaVuSans-74"/>
      <path d="M 56.203125 29.59375 
L 56.203125 25.203125 
L 14.890625 25.203125 
Q 15.484375 15.921875 20.484375 11.0625 
Q 25.484375 6.203125 34.421875 6.203125 
Q 39.59375 6.203125 44.453125 7.46875 
Q 49.3125 8.734375 54.109375 11.28125 
L 54.109375 2.78125 
Q 49.265625 0.734375 44.1875 -0.34375 
Q 39.109375 -1.421875 33.890625 -1.421875 
Q 20.796875 -1.421875 13.15625 6.1875 
Q 5.515625 13.8125 5.515625 26.8125 
Q 5.515625 40.234375 12.765625 48.109375 
Q 20.015625 56 32.328125 56 
Q 43.359375 56 49.78125 48.890625 
Q 56.203125 41.796875 56.203125 29.59375 
z
M 47.21875 32.234375 
Q 47.125 39.59375 43.09375 43.984375 
Q 39.0625 48.390625 32.421875 48.390625 
Q 24.90625 48.390625 20.390625 44.140625 
Q 15.875 39.890625 15.1875 32.171875 
z
" id="DejaVuSans-65"/>
      <path d="M 44.28125 53.078125 
L 44.28125 44.578125 
Q 40.484375 46.53125 36.375 47.5 
Q 32.28125 48.484375 27.875 48.484375 
Q 21.1875 48.484375 17.84375 46.4375 
Q 14.5 44.390625 14.5 40.28125 
Q 14.5 37.15625 16.890625 35.375 
Q 19.28125 33.59375 26.515625 31.984375 
L 29.59375 31.296875 
Q 39.15625 29.25 43.1875 25.515625 
Q 47.21875 21.78125 47.21875 15.09375 
Q 47.21875 7.46875 41.1875 3.015625 
Q 35.15625 -1.421875 24.609375 -1.421875 
Q 20.21875 -1.421875 15.453125 -0.5625 
Q 10.6875 0.296875 5.421875 2 
L 5.421875 11.28125 
Q 10.40625 8.6875 15.234375 7.390625 
Q 20.0625 6.109375 24.8125 6.109375 
Q 31.15625 6.109375 34.5625 8.28125 
Q 37.984375 10.453125 37.984375 14.40625 
Q 37.984375 18.0625 35.515625 20.015625 
Q 33.0625 21.96875 24.703125 23.78125 
L 21.578125 24.515625 
Q 13.234375 26.265625 9.515625 29.90625 
Q 5.8125 33.546875 5.8125 39.890625 
Q 5.8125 47.609375 11.28125 51.796875 
Q 16.75 56 26.8125 56 
Q 31.78125 56 36.171875 55.265625 
Q 40.578125 54.546875 44.28125 53.078125 
z
" id="DejaVuSans-73"/>
     </defs>
     <g transform="translate(119.081605 335.860562)scale(0.1 -0.1)">
      <use xlink:href="#DejaVuSans-4d"/>
      <use x="86.279297" xlink:href="#DejaVuSans-69"/>
      <use x="114.0625" xlink:href="#DejaVuSans-6e"/>
      <use x="177.441406" xlink:href="#DejaVuSans-75"/>
      <use x="240.820312" xlink:href="#DejaVuSans-74"/>
      <use x="280.029297" xlink:href="#DejaVuSans-65"/>
      <use x="341.552734" xlink:href="#DejaVuSans-73"/>
     </g>
    </g>
   </g>
   <g id="matplotlib.axis_2">
    <g id="ytick_1">
     <g id="line2d_10">
      <defs>
       <path d="M 0 0 
L -3.5 0 
" id="m196865d4db" style="stroke:#000000;stroke-width:0.8;"/>
      </defs>
      <g>
       <use style="stroke:#000000;stroke-width:0.8;" x="57.6" xlink:href="#m196865d4db" y="288.189681"/>
      </g>
     </g>
     <g id="text_11">
      <!-- 0.32 -->
      <g transform="translate(28.334375 291.988899)scale(0.1 -0.1)">
       <use xlink:href="#DejaVuSans-30"/>
       <use x="63.623047" xlink:href="#DejaVuSans-2e"/>
       <use x="95.410156" xlink:href="#DejaVuSans-33"/>
       <use x="159.033203" xlink:href="#DejaVuSans-32"/>
      </g>
     </g>
    </g>
    <g id="ytick_2">
     <g id="line2d_11">
      <g>
       <use style="stroke:#000000;stroke-width:0.8;" x="57.6" xlink:href="#m196865d4db" y="253.103047"/>
      </g>
     </g>
     <g id="text_12">
      <!-- 0.34 -->
      <g transform="translate(28.334375 256.902266)scale(0.1 -0.1)">
       <use xlink:href="#DejaVuSans-30"/>
       <use x="63.623047" xlink:href="#DejaVuSans-2e"/>
       <use x="95.410156" xlink:href="#DejaVuSans-33"/>
       <use x="159.033203" xlink:href="#DejaVuSans-34"/>
      </g>
     </g>
    </g>
    <g id="ytick_3">
     <g id="line2d_12">
      <g>
       <use style="stroke:#000000;stroke-width:0.8;" x="57.6" xlink:href="#m196865d4db" y="218.016413"/>
      </g>
     </g>
     <g id="text_13">
      <!-- 0.36 -->
      <defs>
       <path d="M 33.015625 40.375 
Q 26.375 40.375 22.484375 35.828125 
Q 18.609375 31.296875 18.609375 23.390625 
Q 18.609375 15.53125 22.484375 10.953125 
Q 26.375 6.390625 33.015625 6.390625 
Q 39.65625 6.390625 43.53125 10.953125 
Q 47.40625 15.53125 47.40625 23.390625 
Q 47.40625 31.296875 43.53125 35.828125 
Q 39.65625 40.375 33.015625 40.375 
z
M 52.59375 71.296875 
L 52.59375 62.3125 
Q 48.875 64.0625 45.09375 64.984375 
Q 41.3125 65.921875 37.59375 65.921875 
Q 27.828125 65.921875 22.671875 59.328125 
Q 17.53125 52.734375 16.796875 39.40625 
Q 19.671875 43.65625 24.015625 45.921875 
Q 28.375 48.1875 33.59375 48.1875 
Q 44.578125 48.1875 50.953125 41.515625 
Q 57.328125 34.859375 57.328125 23.390625 
Q 57.328125 12.15625 50.6875 5.359375 
Q 44.046875 -1.421875 33.015625 -1.421875 
Q 20.359375 -1.421875 13.671875 8.265625 
Q 6.984375 17.96875 6.984375 36.375 
Q 6.984375 53.65625 15.1875 63.9375 
Q 23.390625 74.21875 37.203125 74.21875 
Q 40.921875 74.21875 44.703125 73.484375 
Q 48.484375 72.75 52.59375 71.296875 
z
" id="DejaVuSans-36"/>
      </defs>
      <g transform="translate(28.334375 221.815632)scale(0.1 -0.1)">
       <use xlink:href="#DejaVuSans-30"/>
       <use x="63.623047" xlink:href="#DejaVuSans-2e"/>
       <use x="95.410156" xlink:href="#DejaVuSans-33"/>
       <use x="159.033203" xlink:href="#DejaVuSans-36"/>
      </g>
     </g>
    </g>
    <g id="ytick_4">
     <g id="line2d_13">
      <g>
       <use style="stroke:#000000;stroke-width:0.8;" x="57.6" xlink:href="#m196865d4db" y="182.92978"/>
      </g>
     </g>
     <g id="text_14">
      <!-- 0.38 -->
      <defs>
       <path d="M 31.78125 34.625 
Q 24.75 34.625 20.71875 30.859375 
Q 16.703125 27.09375 16.703125 20.515625 
Q 16.703125 13.921875 20.71875 10.15625 
Q 24.75 6.390625 31.78125 6.390625 
Q 38.8125 6.390625 42.859375 10.171875 
Q 46.921875 13.96875 46.921875 20.515625 
Q 46.921875 27.09375 42.890625 30.859375 
Q 38.875 34.625 31.78125 34.625 
z
M 21.921875 38.8125 
Q 15.578125 40.375 12.03125 44.71875 
Q 8.5 49.078125 8.5 55.328125 
Q 8.5 64.0625 14.71875 69.140625 
Q 20.953125 74.21875 31.78125 74.21875 
Q 42.671875 74.21875 48.875 69.140625 
Q 55.078125 64.0625 55.078125 55.328125 
Q 55.078125 49.078125 51.53125 44.71875 
Q 48 40.375 41.703125 38.8125 
Q 48.828125 37.15625 52.796875 32.3125 
Q 56.78125 27.484375 56.78125 20.515625 
Q 56.78125 9.90625 50.3125 4.234375 
Q 43.84375 -1.421875 31.78125 -1.421875 
Q 19.734375 -1.421875 13.25 4.234375 
Q 6.78125 9.90625 6.78125 20.515625 
Q 6.78125 27.484375 10.78125 32.3125 
Q 14.796875 37.15625 21.921875 38.8125 
z
M 18.3125 54.390625 
Q 18.3125 48.734375 21.84375 45.5625 
Q 25.390625 42.390625 31.78125 42.390625 
Q 38.140625 42.390625 41.71875 45.5625 
Q 45.3125 48.734375 45.3125 54.390625 
Q 45.3125 60.0625 41.71875 63.234375 
Q 38.140625 66.40625 31.78125 66.40625 
Q 25.390625 66.40625 21.84375 63.234375 
Q 18.3125 60.0625 18.3125 54.390625 
z
" id="DejaVuSans-38"/>
      </defs>
      <g transform="translate(28.334375 186.728998)scale(0.1 -0.1)">
       <use xlink:href="#DejaVuSans-30"/>
       <use x="63.623047" xlink:href="#DejaVuSans-2e"/>
       <use x="95.410156" xlink:href="#DejaVuSans-33"/>
       <use x="159.033203" xlink:href="#DejaVuSans-38"/>
      </g>
     </g>
    </g>
    <g id="ytick_5">
     <g id="line2d_14">
      <g>
       <use style="stroke:#000000;stroke-width:0.8;" x="57.6" xlink:href="#m196865d4db" y="147.843146"/>
      </g>
     </g>
     <g id="text_15">
      <!-- 0.40 -->
      <g transform="translate(28.334375 151.642365)scale(0.1 -0.1)">
       <use xlink:href="#DejaVuSans-30"/>
       <use x="63.623047" xlink:href="#DejaVuSans-2e"/>
       <use x="95.410156" xlink:href="#DejaVuSans-34"/>
       <use x="159.033203" xlink:href="#DejaVuSans-30"/>
      </g>
     </g>
    </g>
    <g id="ytick_6">
     <g id="line2d_15">
      <g>
       <use style="stroke:#000000;stroke-width:0.8;" x="57.6" xlink:href="#m196865d4db" y="112.756512"/>
      </g>
     </g>
     <g id="text_16">
      <!-- 0.42 -->
      <g transform="translate(28.334375 116.555731)scale(0.1 -0.1)">
       <use xlink:href="#DejaVuSans-30"/>
       <use x="63.623047" xlink:href="#DejaVuSans-2e"/>
       <use x="95.410156" xlink:href="#DejaVuSans-34"/>
       <use x="159.033203" xlink:href="#DejaVuSans-32"/>
      </g>
     </g>
    </g>
    <g id="ytick_7">
     <g id="line2d_16">
      <g>
       <use style="stroke:#000000;stroke-width:0.8;" x="57.6" xlink:href="#m196865d4db" y="77.669879"/>
      </g>
     </g>
     <g id="text_17">
      <!-- 0.44 -->
      <g transform="translate(28.334375 81.469097)scale(0.1 -0.1)">
       <use xlink:href="#DejaVuSans-30"/>
       <use x="63.623047" xlink:href="#DejaVuSans-2e"/>
       <use x="95.410156" xlink:href="#DejaVuSans-34"/>
       <use x="159.033203" xlink:href="#DejaVuSans-34"/>
      </g>
     </g>
    </g>
    <g id="ytick_8">
     <g id="line2d_17">
      <g>
       <use style="stroke:#000000;stroke-width:0.8;" x="57.6" xlink:href="#m196865d4db" y="42.583245"/>
      </g>
     </g>
     <g id="text_18">
      <!-- 0.46 -->
      <g transform="translate(28.334375 46.382464)scale(0.1 -0.1)">
       <use xlink:href="#DejaVuSans-30"/>
       <use x="63.623047" xlink:href="#DejaVuSans-2e"/>
       <use x="95.410156" xlink:href="#DejaVuSans-34"/>
       <use x="159.033203" xlink:href="#DejaVuSans-36"/>
      </g>
     </g>
    </g>
   </g>
   <g id="line2d_18">
    <path clip-path="url(#p92bbf6a4ec)" d="M 64.978512 116.786857 
L 65.273653 97.607456 
L 65.568793 157.157665 
L 65.863934 156.534901 
L 66.159074 129.067944 
L 66.454215 161.085871 
L 66.749355 145.947907 
L 67.044496 164.630837 
L 67.339636 156.82233 
L 67.634777 181.78081 
L 67.929917 194.899396 
L 68.225058 194.368756 
L 68.520198 213.825536 
L 68.815339 220.37009 
L 69.110479 216.080754 
L 69.40562 204.406686 
L 69.70076 187.779983 
L 69.995901 194.475621 
L 70.291041 177.948413 
L 70.586182 160.942156 
L 70.881322 190.52162 
L 71.176463 197.154614 
L 71.471603 192.271994 
L 71.766744 199.409831 
L 72.061884 136.079487 
L 72.357025 150.834211 
L 72.652165 156.72652 
L 72.947306 166.834465 
L 73.242446 137.847615 
L 73.537587 152.798314 
L 73.832727 140.094793 
L 74.127868 140.678362 
L 74.423008 166.642845 
L 74.718149 160.367297 
L 75.013289 153.995938 
L 75.30843 147.567965 
L 75.60357 150.977926 
L 75.898711 154.522893 
L 76.193851 191.803999 
L 76.488992 170.187811 
L 76.784132 178.316913 
L 77.079273 186.906639 
L 77.374413 192.080374 
L 77.669554 180.218371 
L 77.964694 186.23597 
L 78.259835 189.902541 
L 78.554975 192.415709 
L 78.850116 183.092668 
L 79.145256 165.541031 
L 79.440397 175.026211 
L 79.735537 186.586045 
L 80.030678 177.804699 
L 80.325818 191.22914 
L 80.620959 185.325776 
L 80.916099 188.133743 
L 81.21124 182.691004 
L 81.50638 225.013185 
L 81.801521 200.47111 
L 82.096661 199.807811 
L 82.391802 192.776838 
L 82.686942 193.440137 
L 82.982083 204.008707 
L 83.277223 233.857176 
L 83.572364 214.665716 
L 83.867504 240.101665 
L 84.162645 247.574837 
L 84.457785 254.144659 
L 84.752926 248.026512 
L 85.048066 238.582394 
L 85.343207 248.478188 
L 85.638347 259.852192 
L 85.933488 254.678457 
L 86.228628 288.857955 
L 86.523769 295.488 
L 86.818909 245.439645 
L 87.11405 217.761112 
L 87.40919 237.792752 
L 87.704331 248.84774 
L 87.999471 230.319579 
L 88.294612 239.36256 
L 88.589752 265.72397 
L 88.884893 268.023408 
L 89.180033 250.61338 
L 89.475174 237.802227 
L 89.770314 204.185586 
L 90.065455 182.930528 
L 90.360595 213.206457 
L 90.655736 208.298042 
L 90.950876 204.318246 
L 91.246017 238.048596 
L 91.541157 243.50976 
L 91.836298 232.792738 
L 92.131438 209.138221 
L 92.426579 194.236097 
L 92.721719 182.930528 
L 93.01686 192.555738 
L 93.312 205.821725 
L 93.60714 207.634743 
L 93.902281 209.226661 
L 94.197421 192.821058 
L 94.492562 188.535408 
L 94.787702 185.613206 
L 95.082843 172.966299 
L 95.377983 172.0082 
L 95.673124 173.205823 
L 95.968264 167.121895 
L 96.263405 182.429369 
L 96.558545 191.17018 
L 96.853686 193.395918 
L 97.148826 193.086378 
L 97.443967 185.900635 
L 97.739107 181.39757 
L 98.034248 168.511138 
L 98.329388 168.606948 
L 98.624529 176.032215 
L 98.919669 186.61921 
L 99.21481 182.547289 
L 99.50995 186.630264 
L 99.805091 167.217705 
L 100.100231 195.518475 
L 100.395372 199.697261 
L 100.690512 184.271867 
" style="fill:none;stroke:#0000ff;stroke-linecap:square;stroke-width:1.5;"/>
   </g>
   <g id="line2d_19">
    <path clip-path="url(#p92bbf6a4ec)" d="M 100.985653 133.35326 
L 101.280793 123.11031 
L 101.575934 123.52839 
L 101.871074 116.159737 
L 102.166215 100.638533 
L 102.461355 131.576421 
L 102.756496 124.782628 
L 103.051636 138.570544 
L 103.346777 149.971922 
L 103.641917 144.510758 
L 103.937058 149.828208 
L 104.232198 143.169419 
L 104.527339 118.824995 
L 104.822479 157.58881 
L 105.11762 201.974589 
L 105.41276 205.158425 
L 105.707901 180.870615 
L 106.003041 181.828714 
L 106.298182 185.613206 
L 106.593322 185.082566 
L 106.888463 189.876746 
L 107.183603 188.152168 
L 107.478744 214.046636 
L 107.773884 234.147764 
L 108.069025 240.676524 
L 108.364165 267.777039 
L 108.659306 242.647471 
L 108.954446 218.999271 
L 109.249587 223.686586 
L 109.544727 224.950013 
L 109.839868 216.832493 
L 110.135008 204.229806 
L 110.430149 203.242227 
L 110.725289 218.999271 
L 111.02043 225.455384 
L 111.31557 225.44275 
L 111.610711 227.710602 
L 111.905851 199.321391 
L 112.200992 184.176057 
L 112.496132 200.78065 
L 112.791273 214.886815 
L 113.086413 223.067507 
L 113.381554 225.720704 
L 113.676694 215.329015 
L 113.971835 195.872235 
L 114.266975 231.248198 
L 114.562116 237.217892 
L 114.857256 216.920933 
L 115.152397 203.345407 
L 115.447537 203.876047 
L 115.742678 201.886149 
L 116.037818 186.906639 
L 116.332959 183.649103 
L 116.628099 179.337657 
L 116.92324 197.817913 
L 117.21838 184.176057 
L 117.513521 170.858481 
L 117.808661 176.8466 
L 118.103802 170.092002 
L 118.398942 174.355542 
L 118.694083 183.217958 
L 118.989223 201.709269 
L 119.284364 202.328348 
L 119.579504 178.810703 
L 119.874645 182.164049 
L 120.169785 185.038346 
L 120.464926 176.798695 
L 120.760066 188.797042 
L 121.055207 188.295883 
L 121.350347 194.501416 
L 121.645488 199.321391 
L 121.940628 188.870742 
L 122.235769 187.116684 
L 122.530909 172.151914 
L 122.82605 171.672865 
L 123.12119 180.870615 
L 123.416331 177.229839 
L 123.711471 184.798821 
L 124.006612 184.286607 
L 124.301752 192.990568 
L 124.596893 196.800854 
L 124.892033 195.076276 
L 125.187174 217.142033 
L 125.482314 217.451573 
L 125.777455 196.535534 
L 126.072595 200.60377 
L 126.367736 172.678869 
L 126.662876 183.844407 
L 126.958017 183.265863 
L 127.253157 165.588936 
L 127.548298 174.451352 
L 127.843438 151.456976 
L 128.138579 139.863978 
L 128.433719 144.462853 
L 128.72886 148.007819 
L 129.024 198.083233 
L 129.31914 184.367677 
L 129.614281 166.97818 
L 129.909421 197.773693 
L 130.204562 188.929702 
L 130.499702 176.65498 
L 130.794843 183.217958 
L 131.089983 214.356176 
L 131.385124 203.433847 
L 131.680264 179.529277 
L 131.975405 195.208936 
L 132.270545 173.541158 
L 132.565686 156.82233 
L 132.860826 153.181554 
L 133.155967 155.816326 
L 133.451107 162.618829 
L 133.746248 157.684619 
L 134.041388 159.217578 
L 134.336529 149.540778 
L 134.631669 129.172464 
L 134.92681 124.917633 
L 135.22195 135.025578 
" style="fill:none;stroke:#ff0000;stroke-linecap:square;stroke-width:1.5;"/>
   </g>
   <g id="line2d_20">
    <path clip-path="url(#p92bbf6a4ec)" d="M 135.517091 155.337277 
L 135.812231 156.343281 
L 136.402512 176.607075 
L 136.697653 177.948413 
L 136.992793 156.582806 
L 137.287934 169.996192 
L 137.583074 160.990061 
L 138.173355 177.804699 
L 138.468496 164.487122 
L 138.763636 162.091875 
L 139.058777 177.517269 
L 139.353917 186.055405 
L 139.649058 178.523273 
L 139.944198 175.122021 
L 140.239339 184.176057 
L 140.534479 179.953051 
L 140.82962 166.163796 
L 141.12476 197.419933 
L 141.419901 186.851364 
L 141.715041 188.200073 
L 142.010182 183.446428 
L 142.305322 190.69113 
L 142.600463 186.61921 
L 142.895603 178.051593 
L 143.190744 180.535281 
L 143.485884 174.738782 
L 143.781025 179.241847 
L 144.076165 161.94816 
L 144.371306 159.121768 
L 144.961587 182.691004 
L 145.256727 174.690877 
L 145.847008 178.666988 
L 146.142149 160.415202 
L 146.73243 171.768675 
L 147.02757 181.637095 
L 147.322711 176.017475 
L 147.617851 163.433213 
L 147.912992 178.523273 
L 148.208132 172.151914 
L 148.503273 183.888627 
L 148.798413 189.195022 
L 149.093554 186.453385 
L 149.388694 181.253855 
L 149.683835 158.546909 
L 149.978975 156.295376 
L 150.274116 137.516635 
L 150.569256 153.995938 
L 150.864397 158.067859 
L 151.159537 171.24172 
L 151.454678 167.26561 
L 151.749818 159.169673 
L 152.044959 155.624707 
L 152.340099 159.552912 
L 152.63524 184.596147 
L 152.93038 180.391566 
L 153.225521 154.283368 
L 153.520661 171.193815 
L 153.815802 177.852604 
L 154.110942 160.654726 
L 154.406083 179.816707 
L 154.701223 178.762798 
L 154.996364 160.319392 
L 155.291504 167.457229 
L 155.586645 166.59494 
L 155.881785 175.696881 
L 156.176926 168.223709 
L 156.472066 184.242387 
L 156.767207 181.253855 
L 157.357488 163.193689 
L 157.652628 122.639971 
L 158.242909 111.195042 
L 158.53805 99.175255 
L 158.83319 102.728931 
L 159.423471 105.341928 
L 159.718612 98.182316 
L 160.013752 81.218737 
L 160.308893 105.080629 
L 160.604033 86.998687 
L 160.899174 118.250135 
L 161.194314 98.339096 
L 161.489455 121.228952 
L 161.784595 114.226119 
L 162.079736 97.816496 
L 162.374876 104.24447 
L 162.670017 97.868756 
L 162.965157 120.601833 
L 163.260298 81.511393 
L 163.850579 130.282988 
L 164.145719 121.803811 
L 164.44086 128.27098 
L 164.736 112.135721 
L 165.03114 136.031582 
L 165.326281 136.488856 
L 165.621421 118.981774 
L 165.916562 90.395584 
L 166.506843 114.278379 
L 166.801983 89.507165 
L 167.097124 130.809942 
L 167.392264 125.462008 
L 167.687405 88.827786 
L 167.982545 106.491647 
L 168.277686 74.090481 
L 168.572826 90.865923 
L 168.867967 80.100375 
L 169.163107 105.394188 
L 169.458248 86.110268 
L 169.753388 79.630035 
L 170.048529 107.275546 
L 170.343669 88.671006 
L 170.63881 93.635701 
L 170.93395 57.477044 
L 171.229091 65.582562 
L 171.524231 95.726098 
L 171.819372 114.121599 
L 172.114512 63.455582 
L 172.409653 77.069298 
L 172.704793 107.380066 
L 172.999934 59.259108 
L 173.295074 53.568 
L 173.590215 78.846136 
L 173.885355 117.048156 
L 174.180496 112.135721 
L 174.770777 200.64799 
L 175.065917 182.355669 
L 175.361058 197.950573 
L 175.656198 187.470444 
L 175.951339 155.864231 
L 176.246479 158.690623 
L 176.54162 158.067859 
L 176.83676 172.247724 
L 177.131901 165.541031 
L 177.427041 154.187558 
L 177.722182 159.457103 
L 178.017322 161.085871 
L 178.312463 156.439091 
L 178.607603 162.858354 
L 178.902744 151.073736 
L 179.197884 161.66073 
L 179.493025 161.517015 
L 179.788165 174.738782 
L 180.083306 167.457229 
L 180.378446 155.960041 
L 180.673587 157.684619 
L 180.968727 154.139653 
L 181.263868 168.942283 
L 181.559008 164.391312 
L 181.854149 171.193815 
L 182.149289 163.816453 
L 182.44443 164.678742 
L 182.73957 167.26561 
L 183.034711 155.241467 
L 183.329851 157.493 
L 183.624992 152.319265 
L 183.920132 158.834338 
L 184.215273 155.720516 
L 184.510413 155.864231 
L 184.805554 164.439217 
L 185.100694 146.570671 
L 185.395835 160.127772 
L 185.690975 165.014077 
L 185.986116 164.391312 
L 186.281256 155.528897 
L 186.576397 154.427083 
L 186.871537 159.600817 
L 187.166678 144.319138 
L 187.461818 137.325015 
L 187.756959 127.604665 
L 188.052099 148.965918 
L 188.34724 155.576802 
L 188.64238 149.061728 
L 188.937521 146.043716 
L 189.232661 149.061728 
L 189.822942 120.392793 
L 190.118083 122.274151 
L 190.413223 119.086294 
L 190.708364 119.086294 
L 191.003504 116.159737 
L 191.298645 100.534013 
L 191.593785 121.228952 
L 192.184066 80.298962 
L 192.774347 107.641366 
L 193.069488 95.830618 
L 193.364628 111.665382 
L 193.659769 76.274947 
L 193.954909 113.80804 
L 194.25005 105.498708 
L 194.54519 111.299562 
L 194.840331 102.781191 
L 195.135471 126.507207 
L 195.430612 132.342901 
L 195.725752 122.012851 
L 196.020893 97.659716 
L 196.316033 94.10604 
L 196.611174 118.563695 
L 197.201455 200.29423 
L 197.496595 186.939804 
L 197.791736 156.439091 
L 198.086876 165.301507 
L 198.382017 165.876366 
L 198.677157 164.966172 
L 198.972298 176.032215 
L 199.267438 170.331526 
L 199.562579 176.319645 
L 199.857719 175.074116 
L 200.15286 180.678996 
L 200.448 166.020081 
L 200.74314 166.59494 
L 201.038281 163.912263 
L 201.333421 178.666988 
L 201.628562 171.81658 
L 201.923702 168.127899 
L 202.218843 186.14016 
L 202.513983 164.343408 
L 202.809124 173.110013 
L 203.104264 159.121768 
L 203.399405 155.528897 
L 203.694545 164.439217 
L 203.989686 167.888374 
L 204.284826 164.774552 
L 204.875107 153.564794 
L 205.170248 153.085744 
L 205.465388 170.235716 
L 205.760529 156.199566 
L 206.055669 152.510885 
L 206.35081 142.88199 
L 206.64595 143.600564 
L 206.941091 137.586315 
L 207.236231 106.021308 
L 207.531372 97.502937 
L 207.826512 117.100416 
L 208.416793 69.721549 
L 209.007074 107.954926 
L 209.302215 66.73228 
L 209.597355 90.238804 
L 209.892496 100.847573 
L 210.187636 122.90127 
L 210.482777 90.604624 
L 210.777917 100.586273 
L 211.073058 130.008623 
L 211.368198 102.519891 
L 211.663339 103.303791 
L 211.958479 101.213393 
L 212.54876 144.798188 
L 212.54876 144.798188 
" style="fill:none;stroke:#000000;stroke-linecap:square;stroke-width:1.5;"/>
   </g>
   <g id="patch_3">
    <path d="M 57.6 307.584 
L 57.6 41.472 
" style="fill:none;stroke:#000000;stroke-linecap:square;stroke-linejoin:miter;stroke-width:0.8;"/>
   </g>
   <g id="patch_4">
    <path d="M 219.927273 307.584 
L 219.927273 41.472 
" style="fill:none;stroke:#000000;stroke-linecap:square;stroke-linejoin:miter;stroke-width:0.8;"/>
   </g>
   <g id="patch_5">
    <path d="M 57.6 307.584 
L 219.927273 307.584 
" style="fill:none;stroke:#000000;stroke-linecap:square;stroke-linejoin:miter;stroke-width:0.8;"/>
   </g>
   <g id="patch_6">
    <path d="M 57.6 41.472 
L 219.927273 41.472 
" style="fill:none;stroke:#000000;stroke-linecap:square;stroke-linejoin:miter;stroke-width:0.8;"/>
   </g>
   <g id="text_19">
    <!-- IBI - Reg vs Stress -->
    <defs>
     <path d="M 9.8125 72.90625 
L 19.671875 72.90625 
L 19.671875 0 
L 9.8125 0 
z
" id="DejaVuSans-49"/>
     <path d="M 19.671875 34.8125 
L 19.671875 8.109375 
L 35.5 8.109375 
Q 43.453125 8.109375 47.28125 11.40625 
Q 51.125 14.703125 51.125 21.484375 
Q 51.125 28.328125 47.28125 31.5625 
Q 43.453125 34.8125 35.5 34.8125 
z
M 19.671875 64.796875 
L 19.671875 42.828125 
L 34.28125 42.828125 
Q 41.5 42.828125 45.03125 45.53125 
Q 48.578125 48.25 48.578125 53.8125 
Q 48.578125 59.328125 45.03125 62.0625 
Q 41.5 64.796875 34.28125 64.796875 
z
M 9.8125 72.90625 
L 35.015625 72.90625 
Q 46.296875 72.90625 52.390625 68.21875 
Q 58.5 63.53125 58.5 54.890625 
Q 58.5 48.1875 55.375 44.234375 
Q 52.25 40.28125 46.1875 39.3125 
Q 53.46875 37.75 57.5 32.78125 
Q 61.53125 27.828125 61.53125 20.40625 
Q 61.53125 10.640625 54.890625 5.3125 
Q 48.25 0 35.984375 0 
L 9.8125 0 
z
" id="DejaVuSans-42"/>
     <path id="DejaVuSans-20"/>
     <path d="M 4.890625 31.390625 
L 31.203125 31.390625 
L 31.203125 23.390625 
L 4.890625 23.390625 
z
" id="DejaVuSans-2d"/>
     <path d="M 44.390625 34.1875 
Q 47.5625 33.109375 50.5625 29.59375 
Q 53.5625 26.078125 56.59375 19.921875 
L 66.609375 0 
L 56 0 
L 46.6875 18.703125 
Q 43.0625 26.03125 39.671875 28.421875 
Q 36.28125 30.8125 30.421875 30.8125 
L 19.671875 30.8125 
L 19.671875 0 
L 9.8125 0 
L 9.8125 72.90625 
L 32.078125 72.90625 
Q 44.578125 72.90625 50.734375 67.671875 
Q 56.890625 62.453125 56.890625 51.90625 
Q 56.890625 45.015625 53.6875 40.46875 
Q 50.484375 35.9375 44.390625 34.1875 
z
M 19.671875 64.796875 
L 19.671875 38.921875 
L 32.078125 38.921875 
Q 39.203125 38.921875 42.84375 42.21875 
Q 46.484375 45.515625 46.484375 51.90625 
Q 46.484375 58.296875 42.84375 61.546875 
Q 39.203125 64.796875 32.078125 64.796875 
z
" id="DejaVuSans-52"/>
     <path d="M 45.40625 27.984375 
Q 45.40625 37.75 41.375 43.109375 
Q 37.359375 48.484375 30.078125 48.484375 
Q 22.859375 48.484375 18.828125 43.109375 
Q 14.796875 37.75 14.796875 27.984375 
Q 14.796875 18.265625 18.828125 12.890625 
Q 22.859375 7.515625 30.078125 7.515625 
Q 37.359375 7.515625 41.375 12.890625 
Q 45.40625 18.265625 45.40625 27.984375 
z
M 54.390625 6.78125 
Q 54.390625 -7.171875 48.1875 -13.984375 
Q 42 -20.796875 29.203125 -20.796875 
Q 24.46875 -20.796875 20.265625 -20.09375 
Q 16.0625 -19.390625 12.109375 -17.921875 
L 12.109375 -9.1875 
Q 16.0625 -11.328125 19.921875 -12.34375 
Q 23.78125 -13.375 27.78125 -13.375 
Q 36.625 -13.375 41.015625 -8.765625 
Q 45.40625 -4.15625 45.40625 5.171875 
L 45.40625 9.625 
Q 42.625 4.78125 38.28125 2.390625 
Q 33.9375 0 27.875 0 
Q 17.828125 0 11.671875 7.65625 
Q 5.515625 15.328125 5.515625 27.984375 
Q 5.515625 40.671875 11.671875 48.328125 
Q 17.828125 56 27.875 56 
Q 33.9375 56 38.28125 53.609375 
Q 42.625 51.21875 45.40625 46.390625 
L 45.40625 54.6875 
L 54.390625 54.6875 
z
" id="DejaVuSans-67"/>
     <path d="M 2.984375 54.6875 
L 12.5 54.6875 
L 29.59375 8.796875 
L 46.6875 54.6875 
L 56.203125 54.6875 
L 35.6875 0 
L 23.484375 0 
z
" id="DejaVuSans-76"/>
     <path d="M 53.515625 70.515625 
L 53.515625 60.890625 
Q 47.90625 63.578125 42.921875 64.890625 
Q 37.9375 66.21875 33.296875 66.21875 
Q 25.25 66.21875 20.875 63.09375 
Q 16.5 59.96875 16.5 54.203125 
Q 16.5 49.359375 19.40625 46.890625 
Q 22.3125 44.4375 30.421875 42.921875 
L 36.375 41.703125 
Q 47.40625 39.59375 52.65625 34.296875 
Q 57.90625 29 57.90625 20.125 
Q 57.90625 9.515625 50.796875 4.046875 
Q 43.703125 -1.421875 29.984375 -1.421875 
Q 24.8125 -1.421875 18.96875 -0.25 
Q 13.140625 0.921875 6.890625 3.21875 
L 6.890625 13.375 
Q 12.890625 10.015625 18.65625 8.296875 
Q 24.421875 6.59375 29.984375 6.59375 
Q 38.421875 6.59375 43.015625 9.90625 
Q 47.609375 13.234375 47.609375 19.390625 
Q 47.609375 24.75 44.3125 27.78125 
Q 41.015625 30.8125 33.5 32.328125 
L 27.484375 33.5 
Q 16.453125 35.6875 11.515625 40.375 
Q 6.59375 45.0625 6.59375 53.421875 
Q 6.59375 63.09375 13.40625 68.65625 
Q 20.21875 74.21875 32.171875 74.21875 
Q 37.3125 74.21875 42.625 73.28125 
Q 47.953125 72.359375 53.515625 70.515625 
z
" id="DejaVuSans-53"/>
     <path d="M 41.109375 46.296875 
Q 39.59375 47.171875 37.8125 47.578125 
Q 36.03125 48 33.890625 48 
Q 26.265625 48 22.1875 43.046875 
Q 18.109375 38.09375 18.109375 28.8125 
L 18.109375 0 
L 9.078125 0 
L 9.078125 54.6875 
L 18.109375 54.6875 
L 18.109375 46.1875 
Q 20.953125 51.171875 25.484375 53.578125 
Q 30.03125 56 36.53125 56 
Q 37.453125 56 38.578125 55.875 
Q 39.703125 55.765625 41.0625 55.515625 
z
" id="DejaVuSans-72"/>
    </defs>
    <g transform="translate(84.402699 35.472)scale(0.12 -0.12)">
     <use xlink:href="#DejaVuSans-49"/>
     <use x="29.492188" xlink:href="#DejaVuSans-42"/>
     <use x="98.095703" xlink:href="#DejaVuSans-49"/>
     <use x="127.587891" xlink:href="#DejaVuSans-20"/>
     <use x="159.375" xlink:href="#DejaVuSans-2d"/>
     <use x="195.458984" xlink:href="#DejaVuSans-20"/>
     <use x="227.246094" xlink:href="#DejaVuSans-52"/>
     <use x="296.666016" xlink:href="#DejaVuSans-65"/>
     <use x="358.189453" xlink:href="#DejaVuSans-67"/>
     <use x="421.666016" xlink:href="#DejaVuSans-20"/>
     <use x="453.453125" xlink:href="#DejaVuSans-76"/>
     <use x="512.632812" xlink:href="#DejaVuSans-73"/>
     <use x="564.732422" xlink:href="#DejaVuSans-20"/>
     <use x="596.519531" xlink:href="#DejaVuSans-53"/>
     <use x="659.996094" xlink:href="#DejaVuSans-74"/>
     <use x="699.205078" xlink:href="#DejaVuSans-72"/>
     <use x="740.287109" xlink:href="#DejaVuSans-65"/>
     <use x="801.810547" xlink:href="#DejaVuSans-73"/>
     <use x="853.910156" xlink:href="#DejaVuSans-73"/>
    </g>
   </g>
   <g id="legend_1">
    <g id="patch_7">
     <path d="M 64.6 93.506375 
L 133.807813 93.506375 
Q 135.807813 93.506375 135.807813 91.506375 
L 135.807813 48.472 
Q 135.807813 46.472 133.807813 46.472 
L 64.6 46.472 
Q 62.6 46.472 62.6 48.472 
L 62.6 91.506375 
Q 62.6 93.506375 64.6 93.506375 
z
" style="fill:#ffffff;opacity:0.8;stroke:#cccccc;stroke-linejoin:miter;"/>
    </g>
    <g id="line2d_21">
     <path d="M 66.6 54.570438 
L 86.6 54.570438 
" style="fill:none;stroke:#0000ff;stroke-linecap:square;stroke-width:1.5;"/>
    </g>
    <g id="line2d_22"/>
    <g id="text_20">
     <!-- Reg -->
     <g transform="translate(94.6 58.070438)scale(0.1 -0.1)">
      <use xlink:href="#DejaVuSans-52"/>
      <use x="69.419922" xlink:href="#DejaVuSans-65"/>
      <use x="130.943359" xlink:href="#DejaVuSans-67"/>
     </g>
    </g>
    <g id="line2d_23">
     <path d="M 66.6 69.248563 
L 86.6 69.248563 
" style="fill:none;stroke:#ff0000;stroke-linecap:square;stroke-width:1.5;"/>
    </g>
    <g id="line2d_24"/>
    <g id="text_21">
     <!-- Stress -->
     <g transform="translate(94.6 72.748563)scale(0.1 -0.1)">
      <use xlink:href="#DejaVuSans-53"/>
      <use x="63.476562" xlink:href="#DejaVuSans-74"/>
      <use x="102.685547" xlink:href="#DejaVuSans-72"/>
      <use x="143.767578" xlink:href="#DejaVuSans-65"/>
      <use x="205.291016" xlink:href="#DejaVuSans-73"/>
      <use x="257.390625" xlink:href="#DejaVuSans-73"/>
     </g>
    </g>
    <g id="line2d_25">
     <path d="M 66.6 83.926688 
L 86.6 83.926688 
" style="fill:none;stroke:#000000;stroke-linecap:square;stroke-width:1.5;"/>
    </g>
    <g id="line2d_26"/>
    <g id="text_22">
     <!-- Block C -->
     <defs>
      <path d="M 9.421875 75.984375 
L 18.40625 75.984375 
L 18.40625 0 
L 9.421875 0 
z
" id="DejaVuSans-6c"/>
      <path d="M 30.609375 48.390625 
Q 23.390625 48.390625 19.1875 42.75 
Q 14.984375 37.109375 14.984375 27.296875 
Q 14.984375 17.484375 19.15625 11.84375 
Q 23.34375 6.203125 30.609375 6.203125 
Q 37.796875 6.203125 41.984375 11.859375 
Q 46.1875 17.53125 46.1875 27.296875 
Q 46.1875 37.015625 41.984375 42.703125 
Q 37.796875 48.390625 30.609375 48.390625 
z
M 30.609375 56 
Q 42.328125 56 49.015625 48.375 
Q 55.71875 40.765625 55.71875 27.296875 
Q 55.71875 13.875 49.015625 6.21875 
Q 42.328125 -1.421875 30.609375 -1.421875 
Q 18.84375 -1.421875 12.171875 6.21875 
Q 5.515625 13.875 5.515625 27.296875 
Q 5.515625 40.765625 12.171875 48.375 
Q 18.84375 56 30.609375 56 
z
" id="DejaVuSans-6f"/>
      <path d="M 48.78125 52.59375 
L 48.78125 44.1875 
Q 44.96875 46.296875 41.140625 47.34375 
Q 37.3125 48.390625 33.40625 48.390625 
Q 24.65625 48.390625 19.8125 42.84375 
Q 14.984375 37.3125 14.984375 27.296875 
Q 14.984375 17.28125 19.8125 11.734375 
Q 24.65625 6.203125 33.40625 6.203125 
Q 37.3125 6.203125 41.140625 7.25 
Q 44.96875 8.296875 48.78125 10.40625 
L 48.78125 2.09375 
Q 45.015625 0.34375 40.984375 -0.53125 
Q 36.96875 -1.421875 32.421875 -1.421875 
Q 20.0625 -1.421875 12.78125 6.34375 
Q 5.515625 14.109375 5.515625 27.296875 
Q 5.515625 40.671875 12.859375 48.328125 
Q 20.21875 56 33.015625 56 
Q 37.15625 56 41.109375 55.140625 
Q 45.0625 54.296875 48.78125 52.59375 
z
" id="DejaVuSans-63"/>
      <path d="M 9.078125 75.984375 
L 18.109375 75.984375 
L 18.109375 31.109375 
L 44.921875 54.6875 
L 56.390625 54.6875 
L 27.390625 29.109375 
L 57.625 0 
L 45.90625 0 
L 18.109375 26.703125 
L 18.109375 0 
L 9.078125 0 
z
" id="DejaVuSans-6b"/>
      <path d="M 64.40625 67.28125 
L 64.40625 56.890625 
Q 59.421875 61.53125 53.78125 63.8125 
Q 48.140625 66.109375 41.796875 66.109375 
Q 29.296875 66.109375 22.65625 58.46875 
Q 16.015625 50.828125 16.015625 36.375 
Q 16.015625 21.96875 22.65625 14.328125 
Q 29.296875 6.6875 41.796875 6.6875 
Q 48.140625 6.6875 53.78125 8.984375 
Q 59.421875 11.28125 64.40625 15.921875 
L 64.40625 5.609375 
Q 59.234375 2.09375 53.4375 0.328125 
Q 47.65625 -1.421875 41.21875 -1.421875 
Q 24.65625 -1.421875 15.125 8.703125 
Q 5.609375 18.84375 5.609375 36.375 
Q 5.609375 53.953125 15.125 64.078125 
Q 24.65625 74.21875 41.21875 74.21875 
Q 47.75 74.21875 53.53125 72.484375 
Q 59.328125 70.75 64.40625 67.28125 
z
" id="DejaVuSans-43"/>
     </defs>
     <g transform="translate(94.6 87.426688)scale(0.1 -0.1)">
      <use xlink:href="#DejaVuSans-42"/>
      <use x="68.603516" xlink:href="#DejaVuSans-6c"/>
      <use x="96.386719" xlink:href="#DejaVuSans-6f"/>
      <use x="157.568359" xlink:href="#DejaVuSans-63"/>
      <use x="212.548828" xlink:href="#DejaVuSans-6b"/>
      <use x="270.458984" xlink:href="#DejaVuSans-20"/>
      <use x="302.246094" xlink:href="#DejaVuSans-43"/>
     </g>
    </g>
   </g>
  </g>
  <g id="axes_2">
   <g id="patch_8">
    <path d="M 252.392727 307.584 
L 414.72 307.584 
L 414.72 41.472 
L 252.392727 41.472 
z
" style="fill:#ffffff;"/>
   </g>
   <g id="matplotlib.axis_3">
    <g id="xtick_10">
     <g id="line2d_27">
      <g>
       <use style="stroke:#000000;stroke-width:0.8;" x="259.77124" xlink:href="#mb2090cdb1a" y="307.584"/>
      </g>
     </g>
     <g id="text_23">
      <!-- 0.0 -->
      <g transform="translate(251.819677 322.182437)scale(0.1 -0.1)">
       <use xlink:href="#DejaVuSans-30"/>
       <use x="63.623047" xlink:href="#DejaVuSans-2e"/>
       <use x="95.410156" xlink:href="#DejaVuSans-30"/>
      </g>
     </g>
    </g>
    <g id="xtick_11">
     <g id="line2d_28">
      <g>
       <use style="stroke:#000000;stroke-width:0.8;" x="277.479669" xlink:href="#mb2090cdb1a" y="307.584"/>
      </g>
     </g>
     <g id="text_24">
      <!-- 5.0 -->
      <g transform="translate(269.528107 322.182437)scale(0.1 -0.1)">
       <use xlink:href="#DejaVuSans-35"/>
       <use x="63.623047" xlink:href="#DejaVuSans-2e"/>
       <use x="95.410156" xlink:href="#DejaVuSans-30"/>
      </g>
     </g>
    </g>
    <g id="xtick_12">
     <g id="line2d_29">
      <g>
       <use style="stroke:#000000;stroke-width:0.8;" x="295.188099" xlink:href="#mb2090cdb1a" y="307.584"/>
      </g>
     </g>
     <g id="text_25">
      <!-- 10.0 -->
      <g transform="translate(284.055287 322.182437)scale(0.1 -0.1)">
       <use xlink:href="#DejaVuSans-31"/>
       <use x="63.623047" xlink:href="#DejaVuSans-30"/>
       <use x="127.246094" xlink:href="#DejaVuSans-2e"/>
       <use x="159.033203" xlink:href="#DejaVuSans-30"/>
      </g>
     </g>
    </g>
    <g id="xtick_13">
     <g id="line2d_30">
      <g>
       <use style="stroke:#000000;stroke-width:0.8;" x="312.896529" xlink:href="#mb2090cdb1a" y="307.584"/>
      </g>
     </g>
     <g id="text_26">
      <!-- 15.0 -->
      <g transform="translate(301.763716 322.182437)scale(0.1 -0.1)">
       <use xlink:href="#DejaVuSans-31"/>
       <use x="63.623047" xlink:href="#DejaVuSans-35"/>
       <use x="127.246094" xlink:href="#DejaVuSans-2e"/>
       <use x="159.033203" xlink:href="#DejaVuSans-30"/>
      </g>
     </g>
    </g>
    <g id="xtick_14">
     <g id="line2d_31">
      <g>
       <use style="stroke:#000000;stroke-width:0.8;" x="330.604959" xlink:href="#mb2090cdb1a" y="307.584"/>
      </g>
     </g>
     <g id="text_27">
      <!-- 20.0 -->
      <g transform="translate(319.472146 322.182437)scale(0.1 -0.1)">
       <use xlink:href="#DejaVuSans-32"/>
       <use x="63.623047" xlink:href="#DejaVuSans-30"/>
       <use x="127.246094" xlink:href="#DejaVuSans-2e"/>
       <use x="159.033203" xlink:href="#DejaVuSans-30"/>
      </g>
     </g>
    </g>
    <g id="xtick_15">
     <g id="line2d_32">
      <g>
       <use style="stroke:#000000;stroke-width:0.8;" x="348.313388" xlink:href="#mb2090cdb1a" y="307.584"/>
      </g>
     </g>
     <g id="text_28">
      <!-- 25.0 -->
      <g transform="translate(337.180576 322.182437)scale(0.1 -0.1)">
       <use xlink:href="#DejaVuSans-32"/>
       <use x="63.623047" xlink:href="#DejaVuSans-35"/>
       <use x="127.246094" xlink:href="#DejaVuSans-2e"/>
       <use x="159.033203" xlink:href="#DejaVuSans-30"/>
      </g>
     </g>
    </g>
    <g id="xtick_16">
     <g id="line2d_33">
      <g>
       <use style="stroke:#000000;stroke-width:0.8;" x="366.021818" xlink:href="#mb2090cdb1a" y="307.584"/>
      </g>
     </g>
     <g id="text_29">
      <!-- 30.0 -->
      <g transform="translate(354.889006 322.182437)scale(0.1 -0.1)">
       <use xlink:href="#DejaVuSans-33"/>
       <use x="63.623047" xlink:href="#DejaVuSans-30"/>
       <use x="127.246094" xlink:href="#DejaVuSans-2e"/>
       <use x="159.033203" xlink:href="#DejaVuSans-30"/>
      </g>
     </g>
    </g>
    <g id="xtick_17">
     <g id="line2d_34">
      <g>
       <use style="stroke:#000000;stroke-width:0.8;" x="383.730248" xlink:href="#mb2090cdb1a" y="307.584"/>
      </g>
     </g>
     <g id="text_30">
      <!-- 35.0 -->
      <g transform="translate(372.597435 322.182437)scale(0.1 -0.1)">
       <use xlink:href="#DejaVuSans-33"/>
       <use x="63.623047" xlink:href="#DejaVuSans-35"/>
       <use x="127.246094" xlink:href="#DejaVuSans-2e"/>
       <use x="159.033203" xlink:href="#DejaVuSans-30"/>
      </g>
     </g>
    </g>
    <g id="xtick_18">
     <g id="line2d_35">
      <g>
       <use style="stroke:#000000;stroke-width:0.8;" x="401.438678" xlink:href="#mb2090cdb1a" y="307.584"/>
      </g>
     </g>
     <g id="text_31">
      <!-- 40.0 -->
      <g transform="translate(390.305865 322.182437)scale(0.1 -0.1)">
       <use xlink:href="#DejaVuSans-34"/>
       <use x="63.623047" xlink:href="#DejaVuSans-30"/>
       <use x="127.246094" xlink:href="#DejaVuSans-2e"/>
       <use x="159.033203" xlink:href="#DejaVuSans-30"/>
      </g>
     </g>
    </g>
    <g id="text_32">
     <!-- Minutes -->
     <g transform="translate(313.874332 335.860562)scale(0.1 -0.1)">
      <use xlink:href="#DejaVuSans-4d"/>
      <use x="86.279297" xlink:href="#DejaVuSans-69"/>
      <use x="114.0625" xlink:href="#DejaVuSans-6e"/>
      <use x="177.441406" xlink:href="#DejaVuSans-75"/>
      <use x="240.820312" xlink:href="#DejaVuSans-74"/>
      <use x="280.029297" xlink:href="#DejaVuSans-65"/>
      <use x="341.552734" xlink:href="#DejaVuSans-73"/>
     </g>
    </g>
   </g>
   <g id="matplotlib.axis_4">
    <g id="ytick_9">
     <g id="line2d_36">
      <g>
       <use style="stroke:#000000;stroke-width:0.8;" x="252.392727" xlink:href="#m196865d4db" y="307.584"/>
      </g>
     </g>
     <g id="text_33">
      <!-- 1.00 -->
      <g transform="translate(223.127102 311.383219)scale(0.1 -0.1)">
       <use xlink:href="#DejaVuSans-31"/>
       <use x="63.623047" xlink:href="#DejaVuSans-2e"/>
       <use x="95.410156" xlink:href="#DejaVuSans-30"/>
       <use x="159.033203" xlink:href="#DejaVuSans-30"/>
      </g>
     </g>
    </g>
    <g id="ytick_10">
     <g id="line2d_37">
      <g>
       <use style="stroke:#000000;stroke-width:0.8;" x="252.392727" xlink:href="#m196865d4db" y="274.32"/>
      </g>
     </g>
     <g id="text_34">
      <!-- 1.25 -->
      <g transform="translate(223.127102 278.119219)scale(0.1 -0.1)">
       <use xlink:href="#DejaVuSans-31"/>
       <use x="63.623047" xlink:href="#DejaVuSans-2e"/>
       <use x="95.410156" xlink:href="#DejaVuSans-32"/>
       <use x="159.033203" xlink:href="#DejaVuSans-35"/>
      </g>
     </g>
    </g>
    <g id="ytick_11">
     <g id="line2d_38">
      <g>
       <use style="stroke:#000000;stroke-width:0.8;" x="252.392727" xlink:href="#m196865d4db" y="241.056"/>
      </g>
     </g>
     <g id="text_35">
      <!-- 1.50 -->
      <g transform="translate(223.127102 244.855219)scale(0.1 -0.1)">
       <use xlink:href="#DejaVuSans-31"/>
       <use x="63.623047" xlink:href="#DejaVuSans-2e"/>
       <use x="95.410156" xlink:href="#DejaVuSans-35"/>
       <use x="159.033203" xlink:href="#DejaVuSans-30"/>
      </g>
     </g>
    </g>
    <g id="ytick_12">
     <g id="line2d_39">
      <g>
       <use style="stroke:#000000;stroke-width:0.8;" x="252.392727" xlink:href="#m196865d4db" y="207.792"/>
      </g>
     </g>
     <g id="text_36">
      <!-- 1.75 -->
      <defs>
       <path d="M 8.203125 72.90625 
L 55.078125 72.90625 
L 55.078125 68.703125 
L 28.609375 0 
L 18.3125 0 
L 43.21875 64.59375 
L 8.203125 64.59375 
z
" id="DejaVuSans-37"/>
      </defs>
      <g transform="translate(223.127102 211.591219)scale(0.1 -0.1)">
       <use xlink:href="#DejaVuSans-31"/>
       <use x="63.623047" xlink:href="#DejaVuSans-2e"/>
       <use x="95.410156" xlink:href="#DejaVuSans-37"/>
       <use x="159.033203" xlink:href="#DejaVuSans-35"/>
      </g>
     </g>
    </g>
    <g id="ytick_13">
     <g id="line2d_40">
      <g>
       <use style="stroke:#000000;stroke-width:0.8;" x="252.392727" xlink:href="#m196865d4db" y="174.528"/>
      </g>
     </g>
     <g id="text_37">
      <!-- 2.00 -->
      <g transform="translate(223.127102 178.327219)scale(0.1 -0.1)">
       <use xlink:href="#DejaVuSans-32"/>
       <use x="63.623047" xlink:href="#DejaVuSans-2e"/>
       <use x="95.410156" xlink:href="#DejaVuSans-30"/>
       <use x="159.033203" xlink:href="#DejaVuSans-30"/>
      </g>
     </g>
    </g>
    <g id="ytick_14">
     <g id="line2d_41">
      <g>
       <use style="stroke:#000000;stroke-width:0.8;" x="252.392727" xlink:href="#m196865d4db" y="141.264"/>
      </g>
     </g>
     <g id="text_38">
      <!-- 2.25 -->
      <g transform="translate(223.127102 145.063219)scale(0.1 -0.1)">
       <use xlink:href="#DejaVuSans-32"/>
       <use x="63.623047" xlink:href="#DejaVuSans-2e"/>
       <use x="95.410156" xlink:href="#DejaVuSans-32"/>
       <use x="159.033203" xlink:href="#DejaVuSans-35"/>
      </g>
     </g>
    </g>
    <g id="ytick_15">
     <g id="line2d_42">
      <g>
       <use style="stroke:#000000;stroke-width:0.8;" x="252.392727" xlink:href="#m196865d4db" y="108"/>
      </g>
     </g>
     <g id="text_39">
      <!-- 2.50 -->
      <g transform="translate(223.127102 111.799219)scale(0.1 -0.1)">
       <use xlink:href="#DejaVuSans-32"/>
       <use x="63.623047" xlink:href="#DejaVuSans-2e"/>
       <use x="95.410156" xlink:href="#DejaVuSans-35"/>
       <use x="159.033203" xlink:href="#DejaVuSans-30"/>
      </g>
     </g>
    </g>
    <g id="ytick_16">
     <g id="line2d_43">
      <g>
       <use style="stroke:#000000;stroke-width:0.8;" x="252.392727" xlink:href="#m196865d4db" y="74.736"/>
      </g>
     </g>
     <g id="text_40">
      <!-- 2.75 -->
      <g transform="translate(223.127102 78.535219)scale(0.1 -0.1)">
       <use xlink:href="#DejaVuSans-32"/>
       <use x="63.623047" xlink:href="#DejaVuSans-2e"/>
       <use x="95.410156" xlink:href="#DejaVuSans-37"/>
       <use x="159.033203" xlink:href="#DejaVuSans-35"/>
      </g>
     </g>
    </g>
    <g id="ytick_17">
     <g id="line2d_44">
      <g>
       <use style="stroke:#000000;stroke-width:0.8;" x="252.392727" xlink:href="#m196865d4db" y="41.472"/>
      </g>
     </g>
     <g id="text_41">
      <!-- 3.00 -->
      <g transform="translate(223.127102 45.271219)scale(0.1 -0.1)">
       <use xlink:href="#DejaVuSans-33"/>
       <use x="63.623047" xlink:href="#DejaVuSans-2e"/>
       <use x="95.410156" xlink:href="#DejaVuSans-30"/>
       <use x="159.033203" xlink:href="#DejaVuSans-30"/>
      </g>
     </g>
    </g>
   </g>
   <g id="line2d_45">
    <path clip-path="url(#p6e37a2b6e5)" d="M 259.77124 194.025924 
L 260.06638 250.313012 
L 260.361521 168.179154 
L 260.656661 256.298218 
L 260.951802 176.860998 
L 261.246942 163.808874 
L 261.542083 170.168453 
L 261.837223 219.881347 
L 262.132364 231.649124 
L 262.427504 178.15906 
L 262.722645 179.932814 
L 263.017785 141.158931 
L 263.312926 183.345853 
L 263.608066 198.128066 
L 263.903207 139.843828 
L 264.198347 178.253851 
L 264.493488 178.767753 
L 264.788628 204.109809 
L 265.083769 161.284508 
L 265.378909 171.893875 
L 265.67405 180.775423 
L 265.96919 226.407877 
L 266.264331 176.209439 
L 266.559471 224.55797 
L 266.854612 208.111039 
L 267.149752 192.365995 
L 267.444893 121.046402 
L 267.740033 172.532259 
L 268.035174 182.191044 
L 268.330314 163.549527 
L 268.625455 183.048965 
L 268.920595 231.849891 
L 269.215736 242.681199 
L 269.510876 188.502427 
L 269.806017 167.719971 
L 270.101157 203.442006 
L 270.396298 165.200399 
L 270.691438 186.992945 
L 270.986579 192.11304 
L 271.281719 207.788189 
L 271.57686 177.944182 
L 271.872 174.934273 
L 272.16714 176.141806 
L 272.462281 191.456552 
L 272.757421 178.10421 
L 273.052562 181.465327 
L 273.347702 214.140578 
L 273.642843 169.534599 
L 273.937983 193.32137 
L 274.233124 179.459387 
L 274.528264 254.04944 
L 274.823405 181.156586 
L 275.118545 173.555133 
L 275.413686 171.698835 
L 275.708826 157.120185 
L 276.003967 168.32081 
L 276.299107 152.412006 
L 276.594248 214.364111 
L 276.889388 198.717054 
L 277.184529 175.680362 
L 277.479669 178.24733 
L 277.77481 242.047744 
L 278.06995 136.883177 
L 278.365091 180.931723 
L 278.660231 186.8003 
L 278.955372 149.490234 
L 279.250512 158.049199 
L 279.545653 169.102045 
L 279.840793 194.845364 
L 280.135934 142.650039 
L 280.431074 128.817211 
L 280.726215 152.601859 
L 281.021355 150.805203 
L 281.316496 140.462503 
L 281.611636 138.565467 
L 281.906777 218.351098 
L 282.201917 274.600647 
L 282.497058 184.038156 
L 282.792198 164.164744 
L 283.087339 248.784228 
L 283.382479 153.572144 
L 283.67762 158.452598 
L 283.97276 179.122822 
L 284.267901 170.845044 
L 284.563041 182.297019 
L 284.858182 155.301431 
L 285.153322 179.132142 
L 285.448463 142.390029 
L 285.743603 163.604781 
L 286.038744 155.466384 
L 286.333884 195.196173 
L 286.629025 170.27749 
L 286.924165 156.612542 
L 287.219306 184.86612 
L 287.514446 228.053555 
L 287.809587 171.502995 
L 288.104727 175.837594 
L 288.399868 211.626329 
L 288.695008 177.982658 
L 288.990149 220.41535 
L 289.285289 164.725109 
L 289.58043 235.58898 
L 289.87557 163.471379 
L 290.170711 205.832439 
L 290.465851 180.999622 
L 290.760992 172.647554 
L 291.056132 182.597504 
L 291.351273 214.344674 
L 291.646413 188.270107 
L 291.941554 184.310414 
L 292.236694 194.73606 
L 292.531835 225.832601 
L 292.826975 224.244438 
L 293.122116 219.828227 
L 293.417256 200.452866 
L 293.712397 192.788965 
L 294.007537 183.053357 
L 294.302678 197.346298 
L 294.597818 197.83903 
L 294.892959 199.89503 
L 295.188099 175.881393 
L 295.48324 171.738243 
" style="fill:none;stroke:#0000ff;stroke-linecap:square;stroke-width:1.5;"/>
   </g>
   <g id="line2d_46">
    <path clip-path="url(#p6e37a2b6e5)" d="M 295.77838 172.739686 
L 296.073521 262.945236 
L 296.368661 205.292178 
L 296.663802 152.745244 
L 296.958942 176.861664 
L 297.254083 136.698118 
L 297.549223 216.69317 
L 297.844364 158.885951 
L 298.139504 123.133289 
L 298.434645 176.332986 
L 298.729785 184.175816 
L 299.024926 205.343568 
L 299.320066 156.013703 
L 299.615207 126.646449 
L 299.910347 115.785585 
L 300.205488 151.766971 
L 300.500628 146.953884 
L 300.795769 165.199599 
L 301.090909 170.312904 
L 301.38605 169.587053 
L 301.68119 157.71024 
L 301.976331 186.914263 
L 302.271471 145.721721 
L 302.566612 148.373498 
L 302.861752 215.77667 
L 303.156893 158.970226 
L 303.452033 148.48959 
L 303.747174 140.972542 
L 304.042314 201.604613 
L 304.337455 132.362721 
L 304.632595 157.270228 
L 304.927736 148.543112 
L 305.222876 157.484175 
L 305.518017 198.269721 
L 305.813157 175.563202 
L 306.108298 193.704132 
L 306.403438 144.025856 
L 306.698579 176.581416 
L 306.993719 197.847285 
L 307.28886 156.116881 
L 307.584 174.097789 
L 307.87914 150.229263 
L 308.174281 169.282442 
L 308.469421 152.462599 
L 308.764562 168.722745 
L 309.059702 229.999187 
L 309.354843 145.551177 
L 309.649983 184.92949 
L 309.945124 158.211623 
L 310.240264 178.999539 
L 310.535405 145.897991 
L 310.830545 169.361524 
L 311.125686 192.948194 
L 311.420826 171.887221 
L 311.715967 166.239915 
L 312.011107 162.500293 
L 312.306248 159.583843 
L 312.601388 145.810125 
L 312.896529 160.790045 
L 313.191669 173.377795 
L 313.48681 158.368724 
L 313.78195 169.408388 
L 314.077091 155.035827 
L 314.372231 153.151973 
L 314.667372 168.070917 
L 314.962512 169.967554 
L 315.257653 131.857078 
L 315.552793 156.457176 
L 315.847934 144.362284 
L 316.143074 157.574308 
L 316.438215 208.275194 
L 316.733355 159.081526 
L 317.028496 173.129235 
L 317.323636 135.788944 
L 317.618777 182.980665 
L 317.913917 153.038938 
L 318.209058 151.652607 
L 318.504198 193.552759 
L 318.799339 167.534912 
L 319.094479 163.453274 
L 319.38962 235.670192 
L 319.68476 148.226518 
L 319.979901 170.297728 
L 320.275041 144.646127 
L 320.570182 154.218114 
L 320.865322 173.28114 
L 321.160463 167.34693 
L 321.455603 175.569726 
L 321.750744 155.575422 
L 322.045884 150.228065 
L 322.341025 167.657267 
L 322.636165 177.489128 
L 322.931306 153.417309 
L 323.226446 164.520348 
L 323.521587 140.768049 
L 323.816727 114.562342 
L 324.111868 164.443129 
L 324.407008 119.499243 
L 324.702149 151.903167 
L 324.997289 133.478659 
L 325.29243 147.871183 
L 325.58757 145.662609 
L 325.882711 156.009308 
L 326.177851 149.32661 
L 326.472992 128.047426 
L 326.768132 167.969464 
L 327.063273 163.760812 
L 327.358413 136.445033 
L 327.653554 154.787132 
L 327.948694 145.986793 
L 328.243835 146.386596 
L 328.538975 140.332828 
L 328.834116 163.194854 
L 329.129256 149.561993 
L 329.424397 131.791439 
L 329.719537 134.973893 
L 330.014678 186.313425 
" style="fill:none;stroke:#ff0000;stroke-linecap:square;stroke-width:1.5;"/>
   </g>
   <g id="line2d_47">
    <path clip-path="url(#p6e37a2b6e5)" d="M 330.309818 113.33431 
L 330.604959 172.21353 
L 330.900099 148.507302 
L 331.19524 186.020531 
L 331.49038 125.605999 
L 331.785521 155.342703 
L 332.080661 163.405477 
L 332.375802 150.091202 
L 332.670942 165.067796 
L 332.966083 161.768184 
L 333.261223 166.332044 
L 333.556364 152.740318 
L 333.851504 174.388156 
L 334.146645 146.101422 
L 334.441785 177.140847 
L 334.736926 144.909067 
L 335.327207 178.341987 
L 335.622347 172.946309 
L 335.917488 153.659082 
L 336.212628 166.43762 
L 336.507769 162.634628 
L 336.802909 142.448075 
L 337.09805 147.562709 
L 337.39319 139.199587 
L 337.688331 154.360568 
L 337.983471 143.201083 
L 338.278612 174.8721 
L 338.573752 165.013878 
L 338.868893 167.732222 
L 339.164033 162.863619 
L 339.459174 125.958542 
L 339.754314 194.570041 
L 340.049455 162.439319 
L 340.639736 178.802902 
L 341.230017 157.221767 
L 341.525157 206.163412 
L 341.820298 161.035145 
L 342.115438 192.96923 
L 342.410579 147.570297 
L 342.705719 157.622368 
L 343.00086 193.160809 
L 343.296 150.267209 
L 343.59114 186.351236 
L 344.181421 149.868468 
L 344.476562 153.143582 
L 344.771702 171.856202 
L 345.066843 150.797483 
L 345.361983 153.093392 
L 345.657124 134.75249 
L 345.952264 144.245126 
L 346.247405 170.889242 
L 346.542545 154.330878 
L 346.837686 157.614383 
L 347.427967 165.504081 
L 347.723107 142.831103 
L 348.018248 188.265979 
L 348.313388 143.811639 
L 348.608529 162.151216 
L 348.903669 146.961603 
L 349.19881 163.448079 
L 349.49395 205.201646 
L 349.789091 143.878339 
L 350.084231 142.850806 
L 350.379372 163.377385 
L 350.674512 167.114209 
L 350.969653 156.857111 
L 351.264793 163.559248 
L 351.559934 175.653069 
L 351.855074 157.914734 
L 352.150215 170.577978 
L 352.445355 188.500562 
L 352.740496 163.407872 
L 353.035636 147.884763 
L 353.330777 139.138344 
L 353.625917 183.164125 
L 353.921058 110.027908 
L 354.216198 117.489042 
L 354.511339 192.366531 
L 354.806479 195.528478 
L 355.10162 77.617991 
L 355.39676 129.282518 
L 355.691901 78.069716 
L 355.987041 135.408308 
L 356.282182 156.770573 
L 356.577322 128.957401 
L 356.872463 264.827227 
L 356.910164 346.6 
M 357.393068 346.6 
L 357.462744 174.044934 
L 357.757884 99.640605 
L 358.053025 130.534912 
L 358.348165 88.790387 
L 358.643306 107.615641 
L 358.938446 108.767521 
L 359.233587 133.20573 
L 359.528727 134.36986 
L 359.823868 162.020742 
L 360.119008 113.498865 
L 360.709289 205.918444 
L 361.00443 113.205833 
L 361.29957 137.095394 
L 361.380176 346.6 
M 362.151808 346.6 
L 362.184992 275.944773 
L 362.480132 113.362799 
L 362.775273 117.923063 
L 363.070413 171.544263 
L 363.365554 146.336405 
L 363.443565 346.6 
M 363.895435 346.6 
L 363.955835 203.180529 
L 364.250975 129.001468 
L 364.333839 346.6 
M 364.794667 346.6 
L 364.841256 242.111249 
L 365.136397 98.366903 
L 365.431537 144.985221 
L 365.509839 346.6 
M 366.255306 346.6 
L 366.316959 199.194079 
L 366.612099 132.712467 
L 366.90724 196.980179 
L 367.20238 311.002338 
L 367.497521 128.168044 
L 367.580595 346.6 
M 368.043875 346.6 
L 368.087802 249.099225 
L 368.382942 105.515707 
L 368.678083 158.24251 
L 368.973223 112.296124 
L 369.268364 105.192856 
L 369.563504 167.15961 
L 369.858645 123.826121 
L 370.153785 177.200225 
L 370.448926 202.218364 
L 370.744066 181.128364 
L 371.039207 126.368198 
L 371.334347 169.466701 
L 371.629488 138.513944 
L 371.924628 148.693556 
L 372.219769 203.280647 
L 372.514909 153.675723 
L 372.81005 140.205951 
L 373.10519 154.556808 
L 373.695471 137.781038 
L 373.990612 158.523159 
L 374.285752 218.403019 
L 374.580893 137.646437 
L 374.876033 149.22929 
L 375.171174 154.397846 
L 375.466314 156.946845 
L 375.761455 152.605853 
L 376.056595 165.739728 
L 376.351736 151.993433 
L 376.646876 132.428489 
L 376.942017 159.336347 
L 377.237157 135.608812 
L 377.532298 138.205605 
L 378.122579 243.299878 
L 378.417719 132.043596 
L 378.71286 146.984504 
L 379.008 152.189538 
L 379.30314 165.407557 
L 379.598281 130.692147 
L 379.893421 149.250989 
L 380.188562 223.995342 
L 380.483702 200.187393 
L 380.778843 144.887767 
L 381.073983 163.583478 
L 381.369124 126.696639 
L 381.664264 141.76496 
L 381.959405 148.167408 
L 382.254545 149.16166 
L 382.549686 142.584935 
L 382.844826 103.842736 
L 383.139967 130.462487 
L 383.435107 103.996507 
L 384.025388 185.213069 
L 384.320529 119.902909 
L 384.615669 159.62445 
L 384.91081 157.368216 
L 385.20595 161.033547 
L 385.501091 161.2893 
L 385.796231 107.301711 
L 386.091372 174.639378 
L 386.386512 122.220383 
L 386.681653 114.02581 
L 386.768451 346.6 
M 387.227998 346.6 
L 387.271934 248.962762 
L 387.862215 164.314522 
L 388.157355 217.202809 
L 388.452496 176.205444 
L 388.747636 162.585898 
L 389.042777 204.901962 
L 389.337917 193.31032 
L 389.633058 106.03866 
L 389.928198 126.317606 
L 390.223339 171.863923 
L 390.518479 197.33192 
L 390.81362 123.08323 
L 391.10876 241.097162 
L 391.403901 116.512765 
L 391.699041 171.01519 
L 391.994182 136.080107 
L 392.289322 121.709147 
L 392.584463 130.771228 
L 392.879603 143.746271 
L 393.174744 132.045329 
L 393.469884 168.399094 
L 393.765025 223.258176 
L 394.060165 158.020576 
L 394.355306 159.864091 
L 394.945587 133.064874 
L 395.240727 138.361371 
L 395.535868 147.770665 
L 395.831008 228.366954 
L 396.126149 142.12935 
L 396.421289 163.05693 
L 396.71643 151.129654 
L 397.01157 134.652638 
L 397.306711 164.373366 
L 397.601851 152.417068 
L 397.896992 155.396357 
L 398.192132 139.784317 
L 398.487273 141.9829 
L 398.782413 134.993598 
L 399.077554 157.355568 
L 399.372694 164.38202 
L 399.667835 183.106212 
L 399.962975 146.240413 
L 400.258116 154.932915 
L 400.553256 152.630882 
L 401.143537 166.433625 
L 401.438678 145.318457 
L 401.733818 237.466978 
L 402.028959 167.958951 
L 402.324099 143.665058 
L 402.61924 135.35985 
L 402.91438 148.5294 
L 403.209521 131.701175 
L 403.504661 126.99433 
L 403.799802 137.083811 
L 404.094942 194.231879 
L 404.390083 125.520661 
L 404.685223 204.129512 
L 404.980364 159.766504 
L 405.275504 150.577013 
L 405.570645 120.431718 
L 405.865785 112.352706 
L 406.160926 112.395708 
L 406.456066 153.838945 
L 406.751207 97.598452 
L 407.046347 69.895779 
L 407.341488 158.584401 
L 407.341488 158.584401 
" style="fill:none;stroke:#000000;stroke-linecap:square;stroke-width:1.5;"/>
   </g>
   <g id="patch_9">
    <path d="M 252.392727 307.584 
L 252.392727 41.472 
" style="fill:none;stroke:#000000;stroke-linecap:square;stroke-linejoin:miter;stroke-width:0.8;"/>
   </g>
   <g id="patch_10">
    <path d="M 414.72 307.584 
L 414.72 41.472 
" style="fill:none;stroke:#000000;stroke-linecap:square;stroke-linejoin:miter;stroke-width:0.8;"/>
   </g>
   <g id="patch_11">
    <path d="M 252.392727 307.584 
L 414.72 307.584 
" style="fill:none;stroke:#000000;stroke-linecap:square;stroke-linejoin:miter;stroke-width:0.8;"/>
   </g>
   <g id="patch_12">
    <path d="M 252.392727 41.472 
L 414.72 41.472 
" style="fill:none;stroke:#000000;stroke-linecap:square;stroke-linejoin:miter;stroke-width:0.8;"/>
   </g>
   <g id="text_42">
    <!-- Pupil - Reg vs Stress -->
    <defs>
     <path d="M 19.671875 64.796875 
L 19.671875 37.40625 
L 32.078125 37.40625 
Q 38.96875 37.40625 42.71875 40.96875 
Q 46.484375 44.53125 46.484375 51.125 
Q 46.484375 57.671875 42.71875 61.234375 
Q 38.96875 64.796875 32.078125 64.796875 
z
M 9.8125 72.90625 
L 32.078125 72.90625 
Q 44.34375 72.90625 50.609375 67.359375 
Q 56.890625 61.8125 56.890625 51.125 
Q 56.890625 40.328125 50.609375 34.8125 
Q 44.34375 29.296875 32.078125 29.296875 
L 19.671875 29.296875 
L 19.671875 0 
L 9.8125 0 
z
" id="DejaVuSans-50"/>
     <path d="M 18.109375 8.203125 
L 18.109375 -20.796875 
L 9.078125 -20.796875 
L 9.078125 54.6875 
L 18.109375 54.6875 
L 18.109375 46.390625 
Q 20.953125 51.265625 25.265625 53.625 
Q 29.59375 56 35.59375 56 
Q 45.5625 56 51.78125 48.09375 
Q 58.015625 40.1875 58.015625 27.296875 
Q 58.015625 14.40625 51.78125 6.484375 
Q 45.5625 -1.421875 35.59375 -1.421875 
Q 29.59375 -1.421875 25.265625 0.953125 
Q 20.953125 3.328125 18.109375 8.203125 
z
M 48.6875 27.296875 
Q 48.6875 37.203125 44.609375 42.84375 
Q 40.53125 48.484375 33.40625 48.484375 
Q 26.265625 48.484375 22.1875 42.84375 
Q 18.109375 37.203125 18.109375 27.296875 
Q 18.109375 17.390625 22.1875 11.75 
Q 26.265625 6.109375 33.40625 6.109375 
Q 40.53125 6.109375 44.609375 11.75 
Q 48.6875 17.390625 48.6875 27.296875 
z
" id="DejaVuSans-70"/>
    </defs>
    <g transform="translate(272.289801 35.472)scale(0.12 -0.12)">
     <use xlink:href="#DejaVuSans-50"/>
     <use x="60.287109" xlink:href="#DejaVuSans-75"/>
     <use x="123.666016" xlink:href="#DejaVuSans-70"/>
     <use x="187.142578" xlink:href="#DejaVuSans-69"/>
     <use x="214.925781" xlink:href="#DejaVuSans-6c"/>
     <use x="242.708984" xlink:href="#DejaVuSans-20"/>
     <use x="274.496094" xlink:href="#DejaVuSans-2d"/>
     <use x="310.580078" xlink:href="#DejaVuSans-20"/>
     <use x="342.367188" xlink:href="#DejaVuSans-52"/>
     <use x="411.787109" xlink:href="#DejaVuSans-65"/>
     <use x="473.310547" xlink:href="#DejaVuSans-67"/>
     <use x="536.787109" xlink:href="#DejaVuSans-20"/>
     <use x="568.574219" xlink:href="#DejaVuSans-76"/>
     <use x="627.753906" xlink:href="#DejaVuSans-73"/>
     <use x="679.853516" xlink:href="#DejaVuSans-20"/>
     <use x="711.640625" xlink:href="#DejaVuSans-53"/>
     <use x="775.117188" xlink:href="#DejaVuSans-74"/>
     <use x="814.326172" xlink:href="#DejaVuSans-72"/>
     <use x="855.408203" xlink:href="#DejaVuSans-65"/>
     <use x="916.931641" xlink:href="#DejaVuSans-73"/>
     <use x="969.03125" xlink:href="#DejaVuSans-73"/>
    </g>
   </g>
   <g id="legend_2">
    <g id="patch_13">
     <path d="M 259.392727 93.506375 
L 328.60054 93.506375 
Q 330.60054 93.506375 330.60054 91.506375 
L 330.60054 48.472 
Q 330.60054 46.472 328.60054 46.472 
L 259.392727 46.472 
Q 257.392727 46.472 257.392727 48.472 
L 257.392727 91.506375 
Q 257.392727 93.506375 259.392727 93.506375 
z
" style="fill:#ffffff;opacity:0.8;stroke:#cccccc;stroke-linejoin:miter;"/>
    </g>
    <g id="line2d_48">
     <path d="M 261.392727 54.570438 
L 281.392727 54.570438 
" style="fill:none;stroke:#0000ff;stroke-linecap:square;stroke-width:1.5;"/>
    </g>
    <g id="line2d_49"/>
    <g id="text_43">
     <!-- Reg -->
     <g transform="translate(289.392727 58.070438)scale(0.1 -0.1)">
      <use xlink:href="#DejaVuSans-52"/>
      <use x="69.419922" xlink:href="#DejaVuSans-65"/>
      <use x="130.943359" xlink:href="#DejaVuSans-67"/>
     </g>
    </g>
    <g id="line2d_50">
     <path d="M 261.392727 69.248563 
L 281.392727 69.248563 
" style="fill:none;stroke:#ff0000;stroke-linecap:square;stroke-width:1.5;"/>
    </g>
    <g id="line2d_51"/>
    <g id="text_44">
     <!-- Stress -->
     <g transform="translate(289.392727 72.748563)scale(0.1 -0.1)">
      <use xlink:href="#DejaVuSans-53"/>
      <use x="63.476562" xlink:href="#DejaVuSans-74"/>
      <use x="102.685547" xlink:href="#DejaVuSans-72"/>
      <use x="143.767578" xlink:href="#DejaVuSans-65"/>
      <use x="205.291016" xlink:href="#DejaVuSans-73"/>
      <use x="257.390625" xlink:href="#DejaVuSans-73"/>
     </g>
    </g>
    <g id="line2d_52">
     <path d="M 261.392727 83.926688 
L 281.392727 83.926688 
" style="fill:none;stroke:#000000;stroke-linecap:square;stroke-width:1.5;"/>
    </g>
    <g id="line2d_53"/>
    <g id="text_45">
     <!-- Block C -->
     <g transform="translate(289.392727 87.426688)scale(0.1 -0.1)">
      <use xlink:href="#DejaVuSans-42"/>
      <use x="68.603516" xlink:href="#DejaVuSans-6c"/>
      <use x="96.386719" xlink:href="#DejaVuSans-6f"/>
      <use x="157.568359" xlink:href="#DejaVuSans-63"/>
      <use x="212.548828" xlink:href="#DejaVuSans-6b"/>
      <use x="270.458984" xlink:href="#DejaVuSans-20"/>
      <use x="302.246094" xlink:href="#DejaVuSans-43"/>
     </g>
    </g>
   </g>
  </g>
 </g>
 <defs>
  <clipPath id="p92bbf6a4ec">
   <rect height="266.112" width="162.327273" x="57.6" y="41.472"/>
  </clipPath>
  <clipPath id="p6e37a2b6e5">
   <rect height="266.112" width="162.327273" x="252.392727" y="41.472"/>
  </clipPath>
 </defs>
</svg>
