<?xml version="1.0" encoding="utf-8" standalone="no"?>
<!DOCTYPE svg PUBLIC "-//W3C//DTD SVG 1.1//EN"
  "http://www.w3.org/Graphics/SVG/1.1/DTD/svg11.dtd">
<!-- Created with matplotlib (http://matplotlib.org/) -->
<svg height="345pt" version="1.1" viewBox="0 0 460 345" width="460pt" xmlns="http://www.w3.org/2000/svg" xmlns:xlink="http://www.w3.org/1999/xlink">
 <defs>
  <style type="text/css">
*{stroke-linecap:butt;stroke-linejoin:round;}
  </style>
 </defs>
 <g id="figure_1">
  <g id="patch_1">
   <path d="M 0 345.6 
L 460.8 345.6 
L 460.8 0 
L 0 0 
z
" style="fill:#ffffff;"/>
  </g>
  <g id="axes_1">
   <g id="patch_2">
    <path d="M 57.6 307.584 
L 219.927273 307.584 
L 219.927273 41.472 
L 57.6 41.472 
z
" style="fill:#ffffff;"/>
   </g>
   <g id="matplotlib.axis_1">
    <g id="xtick_1">
     <g id="line2d_1">
      <defs>
       <path d="M 0 0 
L 0 3.5 
" id="m032157db9c" style="stroke:#000000;stroke-width:0.8;"/>
      </defs>
      <g>
       <use style="stroke:#000000;stroke-width:0.8;" x="64.978512" xlink:href="#m032157db9c" y="307.584"/>
      </g>
     </g>
     <g id="text_1">
      <!-- 0.0 -->
      <defs>
       <path d="M 31.78125 66.40625 
Q 24.171875 66.40625 20.328125 58.90625 
Q 16.5 51.421875 16.5 36.375 
Q 16.5 21.390625 20.328125 13.890625 
Q 24.171875 6.390625 31.78125 6.390625 
Q 39.453125 6.390625 43.28125 13.890625 
Q 47.125 21.390625 47.125 36.375 
Q 47.125 51.421875 43.28125 58.90625 
Q 39.453125 66.40625 31.78125 66.40625 
z
M 31.78125 74.21875 
Q 44.046875 74.21875 50.515625 64.515625 
Q 56.984375 54.828125 56.984375 36.375 
Q 56.984375 17.96875 50.515625 8.265625 
Q 44.046875 -1.421875 31.78125 -1.421875 
Q 19.53125 -1.421875 13.0625 8.265625 
Q 6.59375 17.96875 6.59375 36.375 
Q 6.59375 54.828125 13.0625 64.515625 
Q 19.53125 74.21875 31.78125 74.21875 
z
" id="DejaVuSans-30"/>
       <path d="M 10.6875 12.40625 
L 21 12.40625 
L 21 0 
L 10.6875 0 
z
" id="DejaVuSans-2e"/>
      </defs>
      <g transform="translate(57.02695 322.182437)scale(0.1 -0.1)">
       <use xlink:href="#DejaVuSans-30"/>
       <use x="63.623047" xlink:href="#DejaVuSans-2e"/>
       <use x="95.410156" xlink:href="#DejaVuSans-30"/>
      </g>
     </g>
    </g>
    <g id="xtick_2">
     <g id="line2d_2">
      <g>
       <use style="stroke:#000000;stroke-width:0.8;" x="86.009902" xlink:href="#m032157db9c" y="307.584"/>
      </g>
     </g>
     <g id="text_2">
      <!-- 5.0 -->
      <defs>
       <path d="M 10.796875 72.90625 
L 49.515625 72.90625 
L 49.515625 64.59375 
L 19.828125 64.59375 
L 19.828125 46.734375 
Q 21.96875 47.46875 24.109375 47.828125 
Q 26.265625 48.1875 28.421875 48.1875 
Q 40.625 48.1875 47.75 41.5 
Q 54.890625 34.8125 54.890625 23.390625 
Q 54.890625 11.625 47.5625 5.09375 
Q 40.234375 -1.421875 26.90625 -1.421875 
Q 22.3125 -1.421875 17.546875 -0.640625 
Q 12.796875 0.140625 7.71875 1.703125 
L 7.71875 11.625 
Q 12.109375 9.234375 16.796875 8.0625 
Q 21.484375 6.890625 26.703125 6.890625 
Q 35.15625 6.890625 40.078125 11.328125 
Q 45.015625 15.765625 45.015625 23.390625 
Q 45.015625 31 40.078125 35.4375 
Q 35.15625 39.890625 26.703125 39.890625 
Q 22.75 39.890625 18.8125 39.015625 
Q 14.890625 38.140625 10.796875 36.28125 
z
" id="DejaVuSans-35"/>
      </defs>
      <g transform="translate(78.058339 322.182437)scale(0.1 -0.1)">
       <use xlink:href="#DejaVuSans-35"/>
       <use x="63.623047" xlink:href="#DejaVuSans-2e"/>
       <use x="95.410156" xlink:href="#DejaVuSans-30"/>
      </g>
     </g>
    </g>
    <g id="xtick_3">
     <g id="line2d_3">
      <g>
       <use style="stroke:#000000;stroke-width:0.8;" x="107.041291" xlink:href="#m032157db9c" y="307.584"/>
      </g>
     </g>
     <g id="text_3">
      <!-- 10.0 -->
      <defs>
       <path d="M 12.40625 8.296875 
L 28.515625 8.296875 
L 28.515625 63.921875 
L 10.984375 60.40625 
L 10.984375 69.390625 
L 28.421875 72.90625 
L 38.28125 72.90625 
L 38.28125 8.296875 
L 54.390625 8.296875 
L 54.390625 0 
L 12.40625 0 
z
" id="DejaVuSans-31"/>
      </defs>
      <g transform="translate(95.908478 322.182437)scale(0.1 -0.1)">
       <use xlink:href="#DejaVuSans-31"/>
       <use x="63.623047" xlink:href="#DejaVuSans-30"/>
       <use x="127.246094" xlink:href="#DejaVuSans-2e"/>
       <use x="159.033203" xlink:href="#DejaVuSans-30"/>
      </g>
     </g>
    </g>
    <g id="xtick_4">
     <g id="line2d_4">
      <g>
       <use style="stroke:#000000;stroke-width:0.8;" x="128.07268" xlink:href="#m032157db9c" y="307.584"/>
      </g>
     </g>
     <g id="text_4">
      <!-- 15.0 -->
      <g transform="translate(116.939868 322.182437)scale(0.1 -0.1)">
       <use xlink:href="#DejaVuSans-31"/>
       <use x="63.623047" xlink:href="#DejaVuSans-35"/>
       <use x="127.246094" xlink:href="#DejaVuSans-2e"/>
       <use x="159.033203" xlink:href="#DejaVuSans-30"/>
      </g>
     </g>
    </g>
    <g id="xtick_5">
     <g id="line2d_5">
      <g>
       <use style="stroke:#000000;stroke-width:0.8;" x="149.104069" xlink:href="#m032157db9c" y="307.584"/>
      </g>
     </g>
     <g id="text_5">
      <!-- 20.0 -->
      <defs>
       <path d="M 19.1875 8.296875 
L 53.609375 8.296875 
L 53.609375 0 
L 7.328125 0 
L 7.328125 8.296875 
Q 12.9375 14.109375 22.625 23.890625 
Q 32.328125 33.6875 34.8125 36.53125 
Q 39.546875 41.84375 41.421875 45.53125 
Q 43.3125 49.21875 43.3125 52.78125 
Q 43.3125 58.59375 39.234375 62.25 
Q 35.15625 65.921875 28.609375 65.921875 
Q 23.96875 65.921875 18.8125 64.3125 
Q 13.671875 62.703125 7.8125 59.421875 
L 7.8125 69.390625 
Q 13.765625 71.78125 18.9375 73 
Q 24.125 74.21875 28.421875 74.21875 
Q 39.75 74.21875 46.484375 68.546875 
Q 53.21875 62.890625 53.21875 53.421875 
Q 53.21875 48.921875 51.53125 44.890625 
Q 49.859375 40.875 45.40625 35.40625 
Q 44.1875 33.984375 37.640625 27.21875 
Q 31.109375 20.453125 19.1875 8.296875 
z
" id="DejaVuSans-32"/>
      </defs>
      <g transform="translate(137.971257 322.182437)scale(0.1 -0.1)">
       <use xlink:href="#DejaVuSans-32"/>
       <use x="63.623047" xlink:href="#DejaVuSans-30"/>
       <use x="127.246094" xlink:href="#DejaVuSans-2e"/>
       <use x="159.033203" xlink:href="#DejaVuSans-30"/>
      </g>
     </g>
    </g>
    <g id="xtick_6">
     <g id="line2d_6">
      <g>
       <use style="stroke:#000000;stroke-width:0.8;" x="170.135459" xlink:href="#m032157db9c" y="307.584"/>
      </g>
     </g>
     <g id="text_6">
      <!-- 25.0 -->
      <g transform="translate(159.002646 322.182437)scale(0.1 -0.1)">
       <use xlink:href="#DejaVuSans-32"/>
       <use x="63.623047" xlink:href="#DejaVuSans-35"/>
       <use x="127.246094" xlink:href="#DejaVuSans-2e"/>
       <use x="159.033203" xlink:href="#DejaVuSans-30"/>
      </g>
     </g>
    </g>
    <g id="xtick_7">
     <g id="line2d_7">
      <g>
       <use style="stroke:#000000;stroke-width:0.8;" x="191.166848" xlink:href="#m032157db9c" y="307.584"/>
      </g>
     </g>
     <g id="text_7">
      <!-- 30.0 -->
      <defs>
       <path d="M 40.578125 39.3125 
Q 47.65625 37.796875 51.625 33 
Q 55.609375 28.21875 55.609375 21.1875 
Q 55.609375 10.40625 48.1875 4.484375 
Q 40.765625 -1.421875 27.09375 -1.421875 
Q 22.515625 -1.421875 17.65625 -0.515625 
Q 12.796875 0.390625 7.625 2.203125 
L 7.625 11.71875 
Q 11.71875 9.328125 16.59375 8.109375 
Q 21.484375 6.890625 26.8125 6.890625 
Q 36.078125 6.890625 40.9375 10.546875 
Q 45.796875 14.203125 45.796875 21.1875 
Q 45.796875 27.640625 41.28125 31.265625 
Q 36.765625 34.90625 28.71875 34.90625 
L 20.21875 34.90625 
L 20.21875 43.015625 
L 29.109375 43.015625 
Q 36.375 43.015625 40.234375 45.921875 
Q 44.09375 48.828125 44.09375 54.296875 
Q 44.09375 59.90625 40.109375 62.90625 
Q 36.140625 65.921875 28.71875 65.921875 
Q 24.65625 65.921875 20.015625 65.03125 
Q 15.375 64.15625 9.8125 62.3125 
L 9.8125 71.09375 
Q 15.4375 72.65625 20.34375 73.4375 
Q 25.25 74.21875 29.59375 74.21875 
Q 40.828125 74.21875 47.359375 69.109375 
Q 53.90625 64.015625 53.90625 55.328125 
Q 53.90625 49.265625 50.4375 45.09375 
Q 46.96875 40.921875 40.578125 39.3125 
z
" id="DejaVuSans-33"/>
      </defs>
      <g transform="translate(180.034035 322.182437)scale(0.1 -0.1)">
       <use xlink:href="#DejaVuSans-33"/>
       <use x="63.623047" xlink:href="#DejaVuSans-30"/>
       <use x="127.246094" xlink:href="#DejaVuSans-2e"/>
       <use x="159.033203" xlink:href="#DejaVuSans-30"/>
      </g>
     </g>
    </g>
    <g id="xtick_8">
     <g id="line2d_8">
      <g>
       <use style="stroke:#000000;stroke-width:0.8;" x="212.198237" xlink:href="#m032157db9c" y="307.584"/>
      </g>
     </g>
     <g id="text_8">
      <!-- 35.0 -->
      <g transform="translate(201.065425 322.182437)scale(0.1 -0.1)">
       <use xlink:href="#DejaVuSans-33"/>
       <use x="63.623047" xlink:href="#DejaVuSans-35"/>
       <use x="127.246094" xlink:href="#DejaVuSans-2e"/>
       <use x="159.033203" xlink:href="#DejaVuSans-30"/>
      </g>
     </g>
    </g>
    <g id="text_9">
     <!-- Minutes -->
     <defs>
      <path d="M 9.8125 72.90625 
L 24.515625 72.90625 
L 43.109375 23.296875 
L 61.8125 72.90625 
L 76.515625 72.90625 
L 76.515625 0 
L 66.890625 0 
L 66.890625 64.015625 
L 48.09375 14.015625 
L 38.1875 14.015625 
L 19.390625 64.015625 
L 19.390625 0 
L 9.8125 0 
z
" id="DejaVuSans-4d"/>
      <path d="M 9.421875 54.6875 
L 18.40625 54.6875 
L 18.40625 0 
L 9.421875 0 
z
M 9.421875 75.984375 
L 18.40625 75.984375 
L 18.40625 64.59375 
L 9.421875 64.59375 
z
" id="DejaVuSans-69"/>
      <path d="M 54.890625 33.015625 
L 54.890625 0 
L 45.90625 0 
L 45.90625 32.71875 
Q 45.90625 40.484375 42.875 44.328125 
Q 39.84375 48.1875 33.796875 48.1875 
Q 26.515625 48.1875 22.3125 43.546875 
Q 18.109375 38.921875 18.109375 30.90625 
L 18.109375 0 
L 9.078125 0 
L 9.078125 54.6875 
L 18.109375 54.6875 
L 18.109375 46.1875 
Q 21.34375 51.125 25.703125 53.5625 
Q 30.078125 56 35.796875 56 
Q 45.21875 56 50.046875 50.171875 
Q 54.890625 44.34375 54.890625 33.015625 
z
" id="DejaVuSans-6e"/>
      <path d="M 8.5 21.578125 
L 8.5 54.6875 
L 17.484375 54.6875 
L 17.484375 21.921875 
Q 17.484375 14.15625 20.5 10.265625 
Q 23.53125 6.390625 29.59375 6.390625 
Q 36.859375 6.390625 41.078125 11.03125 
Q 45.3125 15.671875 45.3125 23.6875 
L 45.3125 54.6875 
L 54.296875 54.6875 
L 54.296875 0 
L 45.3125 0 
L 45.3125 8.40625 
Q 42.046875 3.421875 37.71875 1 
Q 33.40625 -1.421875 27.6875 -1.421875 
Q 18.265625 -1.421875 13.375 4.4375 
Q 8.5 10.296875 8.5 21.578125 
z
M 31.109375 56 
z
" id="DejaVuSans-75"/>
      <path d="M 18.3125 70.21875 
L 18.3125 54.6875 
L 36.8125 54.6875 
L 36.8125 47.703125 
L 18.3125 47.703125 
L 18.3125 18.015625 
Q 18.3125 11.328125 20.140625 9.421875 
Q 21.96875 7.515625 27.59375 7.515625 
L 36.8125 7.515625 
L 36.8125 0 
L 27.59375 0 
Q 17.1875 0 13.234375 3.875 
Q 9.28125 7.765625 9.28125 18.015625 
L 9.28125 47.703125 
L 2.6875 47.703125 
L 2.6875 54.6875 
L 9.28125 54.6875 
L 9.28125 70.21875 
z
" id="DejaVuSans-74"/>
      <path d="M 56.203125 29.59375 
L 56.203125 25.203125 
L 14.890625 25.203125 
Q 15.484375 15.921875 20.484375 11.0625 
Q 25.484375 6.203125 34.421875 6.203125 
Q 39.59375 6.203125 44.453125 7.46875 
Q 49.3125 8.734375 54.109375 11.28125 
L 54.109375 2.78125 
Q 49.265625 0.734375 44.1875 -0.34375 
Q 39.109375 -1.421875 33.890625 -1.421875 
Q 20.796875 -1.421875 13.15625 6.1875 
Q 5.515625 13.8125 5.515625 26.8125 
Q 5.515625 40.234375 12.765625 48.109375 
Q 20.015625 56 32.328125 56 
Q 43.359375 56 49.78125 48.890625 
Q 56.203125 41.796875 56.203125 29.59375 
z
M 47.21875 32.234375 
Q 47.125 39.59375 43.09375 43.984375 
Q 39.0625 48.390625 32.421875 48.390625 
Q 24.90625 48.390625 20.390625 44.140625 
Q 15.875 39.890625 15.1875 32.171875 
z
" id="DejaVuSans-65"/>
      <path d="M 44.28125 53.078125 
L 44.28125 44.578125 
Q 40.484375 46.53125 36.375 47.5 
Q 32.28125 48.484375 27.875 48.484375 
Q 21.1875 48.484375 17.84375 46.4375 
Q 14.5 44.390625 14.5 40.28125 
Q 14.5 37.15625 16.890625 35.375 
Q 19.28125 33.59375 26.515625 31.984375 
L 29.59375 31.296875 
Q 39.15625 29.25 43.1875 25.515625 
Q 47.21875 21.78125 47.21875 15.09375 
Q 47.21875 7.46875 41.1875 3.015625 
Q 35.15625 -1.421875 24.609375 -1.421875 
Q 20.21875 -1.421875 15.453125 -0.5625 
Q 10.6875 0.296875 5.421875 2 
L 5.421875 11.28125 
Q 10.40625 8.6875 15.234375 7.390625 
Q 20.0625 6.109375 24.8125 6.109375 
Q 31.15625 6.109375 34.5625 8.28125 
Q 37.984375 10.453125 37.984375 14.40625 
Q 37.984375 18.0625 35.515625 20.015625 
Q 33.0625 21.96875 24.703125 23.78125 
L 21.578125 24.515625 
Q 13.234375 26.265625 9.515625 29.90625 
Q 5.8125 33.546875 5.8125 39.890625 
Q 5.8125 47.609375 11.28125 51.796875 
Q 16.75 56 26.8125 56 
Q 31.78125 56 36.171875 55.265625 
Q 40.578125 54.546875 44.28125 53.078125 
z
" id="DejaVuSans-73"/>
     </defs>
     <g transform="translate(119.081605 335.860562)scale(0.1 -0.1)">
      <use xlink:href="#DejaVuSans-4d"/>
      <use x="86.279297" xlink:href="#DejaVuSans-69"/>
      <use x="114.0625" xlink:href="#DejaVuSans-6e"/>
      <use x="177.441406" xlink:href="#DejaVuSans-75"/>
      <use x="240.820312" xlink:href="#DejaVuSans-74"/>
      <use x="280.029297" xlink:href="#DejaVuSans-65"/>
      <use x="341.552734" xlink:href="#DejaVuSans-73"/>
     </g>
    </g>
   </g>
   <g id="matplotlib.axis_2">
    <g id="ytick_1">
     <g id="line2d_9">
      <defs>
       <path d="M 0 0 
L -3.5 0 
" id="me1b921d66b" style="stroke:#000000;stroke-width:0.8;"/>
      </defs>
      <g>
       <use style="stroke:#000000;stroke-width:0.8;" x="57.6" xlink:href="#me1b921d66b" y="298.812765"/>
      </g>
     </g>
     <g id="text_10">
      <!-- 0.36 -->
      <defs>
       <path d="M 33.015625 40.375 
Q 26.375 40.375 22.484375 35.828125 
Q 18.609375 31.296875 18.609375 23.390625 
Q 18.609375 15.53125 22.484375 10.953125 
Q 26.375 6.390625 33.015625 6.390625 
Q 39.65625 6.390625 43.53125 10.953125 
Q 47.40625 15.53125 47.40625 23.390625 
Q 47.40625 31.296875 43.53125 35.828125 
Q 39.65625 40.375 33.015625 40.375 
z
M 52.59375 71.296875 
L 52.59375 62.3125 
Q 48.875 64.0625 45.09375 64.984375 
Q 41.3125 65.921875 37.59375 65.921875 
Q 27.828125 65.921875 22.671875 59.328125 
Q 17.53125 52.734375 16.796875 39.40625 
Q 19.671875 43.65625 24.015625 45.921875 
Q 28.375 48.1875 33.59375 48.1875 
Q 44.578125 48.1875 50.953125 41.515625 
Q 57.328125 34.859375 57.328125 23.390625 
Q 57.328125 12.15625 50.6875 5.359375 
Q 44.046875 -1.421875 33.015625 -1.421875 
Q 20.359375 -1.421875 13.671875 8.265625 
Q 6.984375 17.96875 6.984375 36.375 
Q 6.984375 53.65625 15.1875 63.9375 
Q 23.390625 74.21875 37.203125 74.21875 
Q 40.921875 74.21875 44.703125 73.484375 
Q 48.484375 72.75 52.59375 71.296875 
z
" id="DejaVuSans-36"/>
      </defs>
      <g transform="translate(28.334375 302.611984)scale(0.1 -0.1)">
       <use xlink:href="#DejaVuSans-30"/>
       <use x="63.623047" xlink:href="#DejaVuSans-2e"/>
       <use x="95.410156" xlink:href="#DejaVuSans-33"/>
       <use x="159.033203" xlink:href="#DejaVuSans-36"/>
      </g>
     </g>
    </g>
    <g id="ytick_2">
     <g id="line2d_10">
      <g>
       <use style="stroke:#000000;stroke-width:0.8;" x="57.6" xlink:href="#me1b921d66b" y="264.793877"/>
      </g>
     </g>
     <g id="text_11">
      <!-- 0.37 -->
      <defs>
       <path d="M 8.203125 72.90625 
L 55.078125 72.90625 
L 55.078125 68.703125 
L 28.609375 0 
L 18.3125 0 
L 43.21875 64.59375 
L 8.203125 64.59375 
z
" id="DejaVuSans-37"/>
      </defs>
      <g transform="translate(28.334375 268.593095)scale(0.1 -0.1)">
       <use xlink:href="#DejaVuSans-30"/>
       <use x="63.623047" xlink:href="#DejaVuSans-2e"/>
       <use x="95.410156" xlink:href="#DejaVuSans-33"/>
       <use x="159.033203" xlink:href="#DejaVuSans-37"/>
      </g>
     </g>
    </g>
    <g id="ytick_3">
     <g id="line2d_11">
      <g>
       <use style="stroke:#000000;stroke-width:0.8;" x="57.6" xlink:href="#me1b921d66b" y="230.774988"/>
      </g>
     </g>
     <g id="text_12">
      <!-- 0.38 -->
      <defs>
       <path d="M 31.78125 34.625 
Q 24.75 34.625 20.71875 30.859375 
Q 16.703125 27.09375 16.703125 20.515625 
Q 16.703125 13.921875 20.71875 10.15625 
Q 24.75 6.390625 31.78125 6.390625 
Q 38.8125 6.390625 42.859375 10.171875 
Q 46.921875 13.96875 46.921875 20.515625 
Q 46.921875 27.09375 42.890625 30.859375 
Q 38.875 34.625 31.78125 34.625 
z
M 21.921875 38.8125 
Q 15.578125 40.375 12.03125 44.71875 
Q 8.5 49.078125 8.5 55.328125 
Q 8.5 64.0625 14.71875 69.140625 
Q 20.953125 74.21875 31.78125 74.21875 
Q 42.671875 74.21875 48.875 69.140625 
Q 55.078125 64.0625 55.078125 55.328125 
Q 55.078125 49.078125 51.53125 44.71875 
Q 48 40.375 41.703125 38.8125 
Q 48.828125 37.15625 52.796875 32.3125 
Q 56.78125 27.484375 56.78125 20.515625 
Q 56.78125 9.90625 50.3125 4.234375 
Q 43.84375 -1.421875 31.78125 -1.421875 
Q 19.734375 -1.421875 13.25 4.234375 
Q 6.78125 9.90625 6.78125 20.515625 
Q 6.78125 27.484375 10.78125 32.3125 
Q 14.796875 37.15625 21.921875 38.8125 
z
M 18.3125 54.390625 
Q 18.3125 48.734375 21.84375 45.5625 
Q 25.390625 42.390625 31.78125 42.390625 
Q 38.140625 42.390625 41.71875 45.5625 
Q 45.3125 48.734375 45.3125 54.390625 
Q 45.3125 60.0625 41.71875 63.234375 
Q 38.140625 66.40625 31.78125 66.40625 
Q 25.390625 66.40625 21.84375 63.234375 
Q 18.3125 60.0625 18.3125 54.390625 
z
" id="DejaVuSans-38"/>
      </defs>
      <g transform="translate(28.334375 234.574207)scale(0.1 -0.1)">
       <use xlink:href="#DejaVuSans-30"/>
       <use x="63.623047" xlink:href="#DejaVuSans-2e"/>
       <use x="95.410156" xlink:href="#DejaVuSans-33"/>
       <use x="159.033203" xlink:href="#DejaVuSans-38"/>
      </g>
     </g>
    </g>
    <g id="ytick_4">
     <g id="line2d_12">
      <g>
       <use style="stroke:#000000;stroke-width:0.8;" x="57.6" xlink:href="#me1b921d66b" y="196.7561"/>
      </g>
     </g>
     <g id="text_13">
      <!-- 0.39 -->
      <defs>
       <path d="M 10.984375 1.515625 
L 10.984375 10.5 
Q 14.703125 8.734375 18.5 7.8125 
Q 22.3125 6.890625 25.984375 6.890625 
Q 35.75 6.890625 40.890625 13.453125 
Q 46.046875 20.015625 46.78125 33.40625 
Q 43.953125 29.203125 39.59375 26.953125 
Q 35.25 24.703125 29.984375 24.703125 
Q 19.046875 24.703125 12.671875 31.3125 
Q 6.296875 37.9375 6.296875 49.421875 
Q 6.296875 60.640625 12.9375 67.421875 
Q 19.578125 74.21875 30.609375 74.21875 
Q 43.265625 74.21875 49.921875 64.515625 
Q 56.59375 54.828125 56.59375 36.375 
Q 56.59375 19.140625 48.40625 8.859375 
Q 40.234375 -1.421875 26.421875 -1.421875 
Q 22.703125 -1.421875 18.890625 -0.6875 
Q 15.09375 0.046875 10.984375 1.515625 
z
M 30.609375 32.421875 
Q 37.25 32.421875 41.125 36.953125 
Q 45.015625 41.5 45.015625 49.421875 
Q 45.015625 57.28125 41.125 61.84375 
Q 37.25 66.40625 30.609375 66.40625 
Q 23.96875 66.40625 20.09375 61.84375 
Q 16.21875 57.28125 16.21875 49.421875 
Q 16.21875 41.5 20.09375 36.953125 
Q 23.96875 32.421875 30.609375 32.421875 
z
" id="DejaVuSans-39"/>
      </defs>
      <g transform="translate(28.334375 200.555318)scale(0.1 -0.1)">
       <use xlink:href="#DejaVuSans-30"/>
       <use x="63.623047" xlink:href="#DejaVuSans-2e"/>
       <use x="95.410156" xlink:href="#DejaVuSans-33"/>
       <use x="159.033203" xlink:href="#DejaVuSans-39"/>
      </g>
     </g>
    </g>
    <g id="ytick_5">
     <g id="line2d_13">
      <g>
       <use style="stroke:#000000;stroke-width:0.8;" x="57.6" xlink:href="#me1b921d66b" y="162.737211"/>
      </g>
     </g>
     <g id="text_14">
      <!-- 0.40 -->
      <defs>
       <path d="M 37.796875 64.3125 
L 12.890625 25.390625 
L 37.796875 25.390625 
z
M 35.203125 72.90625 
L 47.609375 72.90625 
L 47.609375 25.390625 
L 58.015625 25.390625 
L 58.015625 17.1875 
L 47.609375 17.1875 
L 47.609375 0 
L 37.796875 0 
L 37.796875 17.1875 
L 4.890625 17.1875 
L 4.890625 26.703125 
z
" id="DejaVuSans-34"/>
      </defs>
      <g transform="translate(28.334375 166.53643)scale(0.1 -0.1)">
       <use xlink:href="#DejaVuSans-30"/>
       <use x="63.623047" xlink:href="#DejaVuSans-2e"/>
       <use x="95.410156" xlink:href="#DejaVuSans-34"/>
       <use x="159.033203" xlink:href="#DejaVuSans-30"/>
      </g>
     </g>
    </g>
    <g id="ytick_6">
     <g id="line2d_14">
      <g>
       <use style="stroke:#000000;stroke-width:0.8;" x="57.6" xlink:href="#me1b921d66b" y="128.718322"/>
      </g>
     </g>
     <g id="text_15">
      <!-- 0.41 -->
      <g transform="translate(28.334375 132.517541)scale(0.1 -0.1)">
       <use xlink:href="#DejaVuSans-30"/>
       <use x="63.623047" xlink:href="#DejaVuSans-2e"/>
       <use x="95.410156" xlink:href="#DejaVuSans-34"/>
       <use x="159.033203" xlink:href="#DejaVuSans-31"/>
      </g>
     </g>
    </g>
    <g id="ytick_7">
     <g id="line2d_15">
      <g>
       <use style="stroke:#000000;stroke-width:0.8;" x="57.6" xlink:href="#me1b921d66b" y="94.699434"/>
      </g>
     </g>
     <g id="text_16">
      <!-- 0.42 -->
      <g transform="translate(28.334375 98.498653)scale(0.1 -0.1)">
       <use xlink:href="#DejaVuSans-30"/>
       <use x="63.623047" xlink:href="#DejaVuSans-2e"/>
       <use x="95.410156" xlink:href="#DejaVuSans-34"/>
       <use x="159.033203" xlink:href="#DejaVuSans-32"/>
      </g>
     </g>
    </g>
    <g id="ytick_8">
     <g id="line2d_16">
      <g>
       <use style="stroke:#000000;stroke-width:0.8;" x="57.6" xlink:href="#me1b921d66b" y="60.680545"/>
      </g>
     </g>
     <g id="text_17">
      <!-- 0.43 -->
      <g transform="translate(28.334375 64.479764)scale(0.1 -0.1)">
       <use xlink:href="#DejaVuSans-30"/>
       <use x="63.623047" xlink:href="#DejaVuSans-2e"/>
       <use x="95.410156" xlink:href="#DejaVuSans-34"/>
       <use x="159.033203" xlink:href="#DejaVuSans-33"/>
      </g>
     </g>
    </g>
   </g>
   <g id="line2d_17">
    <path clip-path="url(#p8f04cc41b0)" d="M 64.978512 138.346666 
L 65.329036 222.230169 
L 65.679559 194.826367 
L 66.030082 198.17056 
L 66.380605 157.846013 
L 66.731128 155.346313 
L 67.081651 159.805237 
L 67.432174 169.652027 
L 67.782698 200.58581 
L 68.133221 198.17056 
L 68.483744 183.307481 
L 68.834267 163.521006 
L 69.18479 207.36709 
L 69.535313 168.444401 
L 69.885837 165.193103 
L 70.23636 176.804883 
L 70.586883 163.892583 
L 70.937406 139.554291 
L 71.287929 169.28045 
L 71.638452 163.149429 
L 71.988975 163.149429 
L 72.339499 166.493622 
L 72.690022 144.477686 
L 73.040545 160.641285 
L 73.391068 139.08982 
L 73.741591 158.758065 
L 74.092114 153.860005 
L 74.442638 171.974383 
L 74.793161 166.865199 
L 75.143684 127.140242 
L 75.494207 139.7063 
L 75.84473 135.188262 
L 76.195253 151.723437 
L 76.545776 146.597364 
L 76.8963 111.534009 
L 77.246823 159.340765 
L 77.597346 146.090668 
L 77.947869 146.056888 
L 78.298392 187.766404 
L 78.648915 118.121055 
L 78.999439 173.089114 
L 79.349962 171.509911 
L 79.700485 219.443342 
L 80.051008 150.701601 
L 80.401531 203.837109 
L 80.752054 132.30854 
L 81.102577 153.952899 
L 81.453101 150.794495 
L 81.803624 128.66033 
L 82.154147 138.904031 
L 82.50467 150.887389 
L 82.855193 136.868803 
L 83.205716 162.220487 
L 83.55624 160.919968 
L 83.906763 119.489134 
L 84.257286 136.868803 
L 84.607809 111.939366 
L 84.958332 140.669022 
L 85.308855 195.476627 
L 85.659378 122.833327 
L 86.009902 139.098265 
L 86.360425 96.941167 
L 86.710948 223.623583 
L 87.061471 186.837462 
L 87.411994 123.492032 
L 87.762517 145.592417 
L 88.113041 189.624289 
L 88.463564 151.630543 
L 88.814087 160.362602 
L 89.16461 163.892583 
L 89.515133 210.989966 
L 89.865656 222.044381 
L 90.21618 188.695347 
L 90.566703 197.706089 
L 90.917226 170.395181 
L 91.267749 200.864493 
L 91.618272 109.709904 
L 91.968795 149.232183 
L 92.319318 120.139394 
L 92.669842 150.237129 
L 93.020365 126.12685 
L 93.370888 125.721494 
L 93.721411 142.80559 
L 94.071934 141.733083 
L 94.422457 119.438465 
L 94.772981 131.100915 
L 95.123504 115.688915 
L 95.474027 133.516165 
L 95.82455 152.171019 
L 96.175073 149.215293 
L 96.525596 210.804177 
L 96.876119 190.73902 
L 97.226643 135.838521 
L 97.577166 122.073283 
L 97.927689 126.82778 
L 98.278212 110.824635 
L 98.628735 151.360305 
L 98.979258 165.100209 
L 99.329782 215.077312 
L 99.680305 186.558779 
L 100.030828 143.362955 
L 100.381351 126.633546 
L 100.731874 135.551394 
L 101.082397 141.319282 
L 101.43292 137.231935 
L 101.783444 147.509417 
L 102.133967 149.122398 
L 102.48449 124.404084 
L 102.835013 152.095014 
L 103.185536 132.916575 
L 103.536059 141.040599 
L 103.886583 152.65238 
L 104.237106 138.996926 
L 104.587629 111.027313 
L 104.938152 147.914773 
L 105.288675 120.958552 
L 105.639198 154.974736 
L 105.989721 177.82672 
L 106.340245 180.056182 
L 106.690768 118.627751 
L 107.041291 118.627751 
" style="fill:none;stroke:#0000ff;stroke-linecap:square;stroke-width:1.5;"/>
   </g>
   <g id="line2d_18">
    <path clip-path="url(#p8f04cc41b0)" d="M 107.391814 109.811243 
L 107.742337 202.443695 
L 108.09286 174.203845 
L 108.443384 237.371931 
L 108.793907 181.54249 
L 109.14443 195.197944 
L 109.494953 194.083213 
L 109.845476 200.214233 
L 110.195999 231.984065 
L 110.546522 204.394474 
L 110.897046 191.760857 
L 111.247569 230.490611 
L 111.598092 186.930356 
L 111.948615 215.820466 
L 112.299138 218.700188 
L 112.649661 260.759844 
L 113.000185 244.982114 
L 113.350708 213.869687 
L 114.051754 171.04544 
L 114.402277 211.08286 
L 114.7528 226.596199 
L 115.453847 168.081269 
L 115.80437 185.536942 
L 116.154893 161.19865 
L 116.505416 185.908519 
L 116.855939 191.667963 
L 117.206462 183.493269 
L 117.907509 197.798983 
L 118.258032 194.733473 
L 118.608555 177.455143 
L 118.959078 199.563973 
L 119.309601 240.180196 
L 120.010648 211.918908 
L 120.711694 229.011449 
L 121.062217 200.214233 
L 121.41274 193.247165 
L 121.763263 192.782694 
L 122.113787 222.880429 
L 122.46431 187.952193 
L 122.814833 191.853751 
L 123.165356 186.465885 
L 123.515879 194.547684 
L 123.866402 209.503658 
L 124.216925 213.683899 
L 124.567449 203.186849 
L 124.917972 203.372637 
L 125.268495 211.361543 
L 125.619018 222.508852 
L 125.969541 242.666903 
L 126.320064 233.005902 
L 126.670588 177.17646 
L 127.021111 216.656515 
L 127.371634 214.984418 
L 127.722157 216.192043 
L 128.07268 205.230522 
L 128.423203 213.49811 
L 128.773726 199.749762 
L 129.12425 217.21388 
L 129.474773 215.820466 
L 129.825296 200.864493 
L 130.175819 220.92965 
L 130.526342 216.842303 
L 130.876865 196.126886 
L 131.227389 230.919354 
L 131.928435 207.181302 
L 132.278958 215.263101 
L 132.629481 252.142116 
L 132.980004 233.406061 
L 133.330527 201.607647 
L 133.681051 216.470726 
L 134.031574 207.645773 
L 134.382097 216.842303 
L 134.73262 189.717183 
L 135.083143 254.071458 
L 135.433666 219.62913 
L 135.78419 218.142822 
L 136.134713 194.733473 
L 136.485236 224.831208 
L 136.835759 222.137275 
L 137.186282 210.339706 
L 137.536805 234.949535 
L 137.887328 225.574362 
L 138.237852 233.470373 
L 138.588375 182.471432 
L 138.938898 200.028445 
L 139.289421 210.804177 
L 139.639944 178.012509 
L 139.990467 186.837462 
L 140.340991 183.771952 
L 140.691514 238.765345 
L 141.042037 236.721671 
L 141.743083 274.565358 
L 142.093606 258.61613 
L 142.444129 228.361189 
L 142.794653 212.383379 
L 143.145176 205.973676 
L 143.495699 225.853045 
L 144.547268 184.515106 
L 145.248315 217.86414 
L 145.949361 229.118635 
L 146.299884 210.339706 
L 146.650407 222.230169 
L 147.00093 175.875941 
L 147.351454 200.864493 
L 147.701977 198.913714 
L 148.0525 218.885976 
L 148.403023 295.488 
L 148.753546 219.343302 
L 149.104069 207.088407 
L 149.454593 205.787888 
L 149.805116 189.995866 
L 150.155639 217.028092 
L 150.506162 202.536589 
L 150.856685 248.926546 
L 151.207208 204.766051 
L 151.557731 243.410057 
L 151.908255 214.705735 
L 152.258778 203.558426 
L 152.609301 241.466424 
L 152.959824 239.229816 
L 153.310347 273.450627 
L 153.66087 239.665704 
L 154.011394 219.536236 
L 154.361917 232.119833 
L 154.71244 239.787182 
L 155.062963 231.333805 
L 155.413486 213.683899 
L 155.764009 202.629484 
L 156.114532 220.000707 
L 156.465056 193.432953 
L 156.815579 218.142822 
L 157.166102 232.169853 
L 157.516625 231.798276 
L 157.867148 246.35409 
L 158.568195 205.602099 
L 159.269241 231.333805 
L 159.970287 185.536942 
L 160.32081 202.072118 
L 160.671334 181.821173 
L 161.021857 245.546625 
L 161.37238 232.54143 
L 161.722903 244.03888 
L 162.073426 245.496605 
L 162.423949 204.022897 
L 162.774472 213.49811 
L 163.124996 185.351154 
L 163.475519 216.099149 
L 163.826042 191.296386 
L 164.877611 215.263101 
L 165.228135 204.580263 
L 165.578658 218.700188 
L 165.929181 220.372284 
L 166.279704 182.564327 
L 166.630227 222.001506 
L 166.98075 203.279743 
L 167.331273 232.89157 
L 167.681797 242.666903 
L 168.03232 220.92965 
L 168.382843 184.886683 
L 168.733366 178.105403 
L 169.083889 221.858592 
L 169.434412 190.460337 
L 169.784936 200.307127 
L 170.135459 196.498463 
L 170.485982 198.913714 
L 170.836505 205.137628 
L 171.187028 186.094308 
L 171.537551 201.328964 
L 171.888074 184.143529 
L 172.238598 186.558779 
L 172.589121 179.498817 
L 172.939644 186.744568 
L 173.290167 181.821173 
L 173.991213 168.908873 
L 174.341737 164.171266 
L 174.69226 175.318575 
L 175.042783 249.541077 
L 175.393306 218.328611 
L 175.743829 153.395534 
L 176.094352 145.8711 
L 176.444875 116.499629 
L 176.795399 115.992933 
L 177.145922 162.220487 
L 177.496445 178.291191 
L 177.846968 122.377301 
L 178.548014 173.182008 
L 179.249061 107.784459 
L 179.599584 158.876294 
L 180.30063 124.404084 
L 180.651153 93.698314 
L 181.001676 95.319741 
L 181.3522 132.680117 
L 181.702723 123.086675 
L 182.053246 120.147839 
L 182.403769 102.109465 
L 182.754292 109.000529 
L 183.104815 125.214798 
L 183.455339 119.235786 
L 183.805862 106.973746 
L 184.156385 122.090173 
L 184.506908 166.772305 
L 184.857431 131.193809 
L 185.207954 152.00212 
L 185.909001 98.765273 
L 186.259524 126.084626 
L 186.610047 191.017703 
L 187.311093 80.220203 
L 187.661616 132.207201 
L 188.01214 148.472139 
L 188.362663 131.295148 
L 188.713186 53.568 
L 189.414232 162.592064 
L 189.764755 160.362602 
L 190.115278 123.897388 
L 190.465802 134.233984 
L 191.166848 249.726866 
L 192.218417 121.667927 
L 192.919464 230.869334 
L 193.269987 114.101268 
L 193.62051 119.134447 
L 193.971033 97.549203 
L 194.321556 105.149641 
L 194.672079 157.947352 
L 195.022603 165.100209 
L 195.373126 107.075085 
L 195.723649 142.434013 
L 196.074172 150.650931 
L 196.775218 127.385145 
L 197.125742 139.604961 
L 197.476265 170.673863 
L 198.177311 83.463057 
L 198.878357 160.362602 
L 199.22888 147.712095 
L 199.579404 130.636444 
L 199.929927 75.153245 
L 200.28045 145.406629 
L 200.630973 168.908873 
L 200.981496 140.297445 
L 201.332019 150.422918 
L 202.033066 112.429172 
L 202.383589 109.405886 
L 202.734112 77.585385 
L 203.084635 118.83043 
L 203.435158 136.953252 
L 203.785681 174.018056 
L 204.486728 118.838875 
L 205.187774 132.401434 
L 205.538297 148.565033 
L 205.88882 117.817038 
L 206.239344 101.197413 
L 206.589867 144.67192 
L 206.94039 113.358114 
L 207.290913 124.302745 
L 207.641436 78.497437 
L 207.991959 133.701954 
L 208.342482 212.104697 
L 208.693006 162.49917 
L 209.043529 159.898131 
L 209.394052 176.804883 
L 209.744575 179.034345 
L 210.095098 138.532454 
L 210.445621 197.241617 
L 210.796145 153.589767 
L 211.146668 152.745274 
L 211.497191 134.335324 
L 211.847714 139.503622 
L 212.198237 138.532454 
L 212.54876 113.91548 
L 212.54876 113.91548 
" style="fill:none;stroke:#ff0000;stroke-linecap:square;stroke-width:1.5;"/>
   </g>
   <g id="patch_3">
    <path d="M 57.6 307.584 
L 57.6 41.472 
" style="fill:none;stroke:#000000;stroke-linecap:square;stroke-linejoin:miter;stroke-width:0.8;"/>
   </g>
   <g id="patch_4">
    <path d="M 219.927273 307.584 
L 219.927273 41.472 
" style="fill:none;stroke:#000000;stroke-linecap:square;stroke-linejoin:miter;stroke-width:0.8;"/>
   </g>
   <g id="patch_5">
    <path d="M 57.6 307.584 
L 219.927273 307.584 
" style="fill:none;stroke:#000000;stroke-linecap:square;stroke-linejoin:miter;stroke-width:0.8;"/>
   </g>
   <g id="patch_6">
    <path d="M 57.6 41.472 
L 219.927273 41.472 
" style="fill:none;stroke:#000000;stroke-linecap:square;stroke-linejoin:miter;stroke-width:0.8;"/>
   </g>
   <g id="text_18">
    <!-- IBI - Reg vs Stress -->
    <defs>
     <path d="M 9.8125 72.90625 
L 19.671875 72.90625 
L 19.671875 0 
L 9.8125 0 
z
" id="DejaVuSans-49"/>
     <path d="M 19.671875 34.8125 
L 19.671875 8.109375 
L 35.5 8.109375 
Q 43.453125 8.109375 47.28125 11.40625 
Q 51.125 14.703125 51.125 21.484375 
Q 51.125 28.328125 47.28125 31.5625 
Q 43.453125 34.8125 35.5 34.8125 
z
M 19.671875 64.796875 
L 19.671875 42.828125 
L 34.28125 42.828125 
Q 41.5 42.828125 45.03125 45.53125 
Q 48.578125 48.25 48.578125 53.8125 
Q 48.578125 59.328125 45.03125 62.0625 
Q 41.5 64.796875 34.28125 64.796875 
z
M 9.8125 72.90625 
L 35.015625 72.90625 
Q 46.296875 72.90625 52.390625 68.21875 
Q 58.5 63.53125 58.5 54.890625 
Q 58.5 48.1875 55.375 44.234375 
Q 52.25 40.28125 46.1875 39.3125 
Q 53.46875 37.75 57.5 32.78125 
Q 61.53125 27.828125 61.53125 20.40625 
Q 61.53125 10.640625 54.890625 5.3125 
Q 48.25 0 35.984375 0 
L 9.8125 0 
z
" id="DejaVuSans-42"/>
     <path id="DejaVuSans-20"/>
     <path d="M 4.890625 31.390625 
L 31.203125 31.390625 
L 31.203125 23.390625 
L 4.890625 23.390625 
z
" id="DejaVuSans-2d"/>
     <path d="M 44.390625 34.1875 
Q 47.5625 33.109375 50.5625 29.59375 
Q 53.5625 26.078125 56.59375 19.921875 
L 66.609375 0 
L 56 0 
L 46.6875 18.703125 
Q 43.0625 26.03125 39.671875 28.421875 
Q 36.28125 30.8125 30.421875 30.8125 
L 19.671875 30.8125 
L 19.671875 0 
L 9.8125 0 
L 9.8125 72.90625 
L 32.078125 72.90625 
Q 44.578125 72.90625 50.734375 67.671875 
Q 56.890625 62.453125 56.890625 51.90625 
Q 56.890625 45.015625 53.6875 40.46875 
Q 50.484375 35.9375 44.390625 34.1875 
z
M 19.671875 64.796875 
L 19.671875 38.921875 
L 32.078125 38.921875 
Q 39.203125 38.921875 42.84375 42.21875 
Q 46.484375 45.515625 46.484375 51.90625 
Q 46.484375 58.296875 42.84375 61.546875 
Q 39.203125 64.796875 32.078125 64.796875 
z
" id="DejaVuSans-52"/>
     <path d="M 45.40625 27.984375 
Q 45.40625 37.75 41.375 43.109375 
Q 37.359375 48.484375 30.078125 48.484375 
Q 22.859375 48.484375 18.828125 43.109375 
Q 14.796875 37.75 14.796875 27.984375 
Q 14.796875 18.265625 18.828125 12.890625 
Q 22.859375 7.515625 30.078125 7.515625 
Q 37.359375 7.515625 41.375 12.890625 
Q 45.40625 18.265625 45.40625 27.984375 
z
M 54.390625 6.78125 
Q 54.390625 -7.171875 48.1875 -13.984375 
Q 42 -20.796875 29.203125 -20.796875 
Q 24.46875 -20.796875 20.265625 -20.09375 
Q 16.0625 -19.390625 12.109375 -17.921875 
L 12.109375 -9.1875 
Q 16.0625 -11.328125 19.921875 -12.34375 
Q 23.78125 -13.375 27.78125 -13.375 
Q 36.625 -13.375 41.015625 -8.765625 
Q 45.40625 -4.15625 45.40625 5.171875 
L 45.40625 9.625 
Q 42.625 4.78125 38.28125 2.390625 
Q 33.9375 0 27.875 0 
Q 17.828125 0 11.671875 7.65625 
Q 5.515625 15.328125 5.515625 27.984375 
Q 5.515625 40.671875 11.671875 48.328125 
Q 17.828125 56 27.875 56 
Q 33.9375 56 38.28125 53.609375 
Q 42.625 51.21875 45.40625 46.390625 
L 45.40625 54.6875 
L 54.390625 54.6875 
z
" id="DejaVuSans-67"/>
     <path d="M 2.984375 54.6875 
L 12.5 54.6875 
L 29.59375 8.796875 
L 46.6875 54.6875 
L 56.203125 54.6875 
L 35.6875 0 
L 23.484375 0 
z
" id="DejaVuSans-76"/>
     <path d="M 53.515625 70.515625 
L 53.515625 60.890625 
Q 47.90625 63.578125 42.921875 64.890625 
Q 37.9375 66.21875 33.296875 66.21875 
Q 25.25 66.21875 20.875 63.09375 
Q 16.5 59.96875 16.5 54.203125 
Q 16.5 49.359375 19.40625 46.890625 
Q 22.3125 44.4375 30.421875 42.921875 
L 36.375 41.703125 
Q 47.40625 39.59375 52.65625 34.296875 
Q 57.90625 29 57.90625 20.125 
Q 57.90625 9.515625 50.796875 4.046875 
Q 43.703125 -1.421875 29.984375 -1.421875 
Q 24.8125 -1.421875 18.96875 -0.25 
Q 13.140625 0.921875 6.890625 3.21875 
L 6.890625 13.375 
Q 12.890625 10.015625 18.65625 8.296875 
Q 24.421875 6.59375 29.984375 6.59375 
Q 38.421875 6.59375 43.015625 9.90625 
Q 47.609375 13.234375 47.609375 19.390625 
Q 47.609375 24.75 44.3125 27.78125 
Q 41.015625 30.8125 33.5 32.328125 
L 27.484375 33.5 
Q 16.453125 35.6875 11.515625 40.375 
Q 6.59375 45.0625 6.59375 53.421875 
Q 6.59375 63.09375 13.40625 68.65625 
Q 20.21875 74.21875 32.171875 74.21875 
Q 37.3125 74.21875 42.625 73.28125 
Q 47.953125 72.359375 53.515625 70.515625 
z
" id="DejaVuSans-53"/>
     <path d="M 41.109375 46.296875 
Q 39.59375 47.171875 37.8125 47.578125 
Q 36.03125 48 33.890625 48 
Q 26.265625 48 22.1875 43.046875 
Q 18.109375 38.09375 18.109375 28.8125 
L 18.109375 0 
L 9.078125 0 
L 9.078125 54.6875 
L 18.109375 54.6875 
L 18.109375 46.1875 
Q 20.953125 51.171875 25.484375 53.578125 
Q 30.03125 56 36.53125 56 
Q 37.453125 56 38.578125 55.875 
Q 39.703125 55.765625 41.0625 55.515625 
z
" id="DejaVuSans-72"/>
    </defs>
    <g transform="translate(84.402699 35.472)scale(0.12 -0.12)">
     <use xlink:href="#DejaVuSans-49"/>
     <use x="29.492188" xlink:href="#DejaVuSans-42"/>
     <use x="98.095703" xlink:href="#DejaVuSans-49"/>
     <use x="127.587891" xlink:href="#DejaVuSans-20"/>
     <use x="159.375" xlink:href="#DejaVuSans-2d"/>
     <use x="195.458984" xlink:href="#DejaVuSans-20"/>
     <use x="227.246094" xlink:href="#DejaVuSans-52"/>
     <use x="296.666016" xlink:href="#DejaVuSans-65"/>
     <use x="358.189453" xlink:href="#DejaVuSans-67"/>
     <use x="421.666016" xlink:href="#DejaVuSans-20"/>
     <use x="453.453125" xlink:href="#DejaVuSans-76"/>
     <use x="512.632812" xlink:href="#DejaVuSans-73"/>
     <use x="564.732422" xlink:href="#DejaVuSans-20"/>
     <use x="596.519531" xlink:href="#DejaVuSans-53"/>
     <use x="659.996094" xlink:href="#DejaVuSans-74"/>
     <use x="699.205078" xlink:href="#DejaVuSans-72"/>
     <use x="740.287109" xlink:href="#DejaVuSans-65"/>
     <use x="801.810547" xlink:href="#DejaVuSans-73"/>
     <use x="853.910156" xlink:href="#DejaVuSans-73"/>
    </g>
   </g>
   <g id="legend_1">
    <g id="patch_7">
     <path d="M 64.6 78.82825 
L 127.548437 78.82825 
Q 129.548437 78.82825 129.548437 76.82825 
L 129.548437 48.472 
Q 129.548437 46.472 127.548437 46.472 
L 64.6 46.472 
Q 62.6 46.472 62.6 48.472 
L 62.6 76.82825 
Q 62.6 78.82825 64.6 78.82825 
z
" style="fill:#ffffff;opacity:0.8;stroke:#cccccc;stroke-linejoin:miter;"/>
    </g>
    <g id="line2d_19">
     <path d="M 66.6 54.570437 
L 86.6 54.570437 
" style="fill:none;stroke:#0000ff;stroke-linecap:square;stroke-width:1.5;"/>
    </g>
    <g id="line2d_20"/>
    <g id="text_19">
     <!-- Reg -->
     <g transform="translate(94.6 58.070437)scale(0.1 -0.1)">
      <use xlink:href="#DejaVuSans-52"/>
      <use x="69.419922" xlink:href="#DejaVuSans-65"/>
      <use x="130.943359" xlink:href="#DejaVuSans-67"/>
     </g>
    </g>
    <g id="line2d_21">
     <path d="M 66.6 69.248562 
L 86.6 69.248562 
" style="fill:none;stroke:#ff0000;stroke-linecap:square;stroke-width:1.5;"/>
    </g>
    <g id="line2d_22"/>
    <g id="text_20">
     <!-- Stress -->
     <g transform="translate(94.6 72.748562)scale(0.1 -0.1)">
      <use xlink:href="#DejaVuSans-53"/>
      <use x="63.476562" xlink:href="#DejaVuSans-74"/>
      <use x="102.685547" xlink:href="#DejaVuSans-72"/>
      <use x="143.767578" xlink:href="#DejaVuSans-65"/>
      <use x="205.291016" xlink:href="#DejaVuSans-73"/>
      <use x="257.390625" xlink:href="#DejaVuSans-73"/>
     </g>
    </g>
   </g>
  </g>
  <g id="axes_2">
   <g id="patch_8">
    <path d="M 252.392727 307.584 
L 414.72 307.584 
L 414.72 41.472 
L 252.392727 41.472 
z
" style="fill:#ffffff;"/>
   </g>
   <g id="matplotlib.axis_3">
    <g id="xtick_9">
     <g id="line2d_23">
      <g>
       <use style="stroke:#000000;stroke-width:0.8;" x="259.77124" xlink:href="#m032157db9c" y="307.584"/>
      </g>
     </g>
     <g id="text_21">
      <!-- 0.0 -->
      <g transform="translate(251.819677 322.182437)scale(0.1 -0.1)">
       <use xlink:href="#DejaVuSans-30"/>
       <use x="63.623047" xlink:href="#DejaVuSans-2e"/>
       <use x="95.410156" xlink:href="#DejaVuSans-30"/>
      </g>
     </g>
    </g>
    <g id="xtick_10">
     <g id="line2d_24">
      <g>
       <use style="stroke:#000000;stroke-width:0.8;" x="280.802629" xlink:href="#m032157db9c" y="307.584"/>
      </g>
     </g>
     <g id="text_22">
      <!-- 5.0 -->
      <g transform="translate(272.851066 322.182437)scale(0.1 -0.1)">
       <use xlink:href="#DejaVuSans-35"/>
       <use x="63.623047" xlink:href="#DejaVuSans-2e"/>
       <use x="95.410156" xlink:href="#DejaVuSans-30"/>
      </g>
     </g>
    </g>
    <g id="xtick_11">
     <g id="line2d_25">
      <g>
       <use style="stroke:#000000;stroke-width:0.8;" x="301.834018" xlink:href="#m032157db9c" y="307.584"/>
      </g>
     </g>
     <g id="text_23">
      <!-- 10.0 -->
      <g transform="translate(290.701206 322.182437)scale(0.1 -0.1)">
       <use xlink:href="#DejaVuSans-31"/>
       <use x="63.623047" xlink:href="#DejaVuSans-30"/>
       <use x="127.246094" xlink:href="#DejaVuSans-2e"/>
       <use x="159.033203" xlink:href="#DejaVuSans-30"/>
      </g>
     </g>
    </g>
    <g id="xtick_12">
     <g id="line2d_26">
      <g>
       <use style="stroke:#000000;stroke-width:0.8;" x="322.865407" xlink:href="#m032157db9c" y="307.584"/>
      </g>
     </g>
     <g id="text_24">
      <!-- 15.0 -->
      <g transform="translate(311.732595 322.182437)scale(0.1 -0.1)">
       <use xlink:href="#DejaVuSans-31"/>
       <use x="63.623047" xlink:href="#DejaVuSans-35"/>
       <use x="127.246094" xlink:href="#DejaVuSans-2e"/>
       <use x="159.033203" xlink:href="#DejaVuSans-30"/>
      </g>
     </g>
    </g>
    <g id="xtick_13">
     <g id="line2d_27">
      <g>
       <use style="stroke:#000000;stroke-width:0.8;" x="343.896797" xlink:href="#m032157db9c" y="307.584"/>
      </g>
     </g>
     <g id="text_25">
      <!-- 20.0 -->
      <g transform="translate(332.763984 322.182437)scale(0.1 -0.1)">
       <use xlink:href="#DejaVuSans-32"/>
       <use x="63.623047" xlink:href="#DejaVuSans-30"/>
       <use x="127.246094" xlink:href="#DejaVuSans-2e"/>
       <use x="159.033203" xlink:href="#DejaVuSans-30"/>
      </g>
     </g>
    </g>
    <g id="xtick_14">
     <g id="line2d_28">
      <g>
       <use style="stroke:#000000;stroke-width:0.8;" x="364.928186" xlink:href="#m032157db9c" y="307.584"/>
      </g>
     </g>
     <g id="text_26">
      <!-- 25.0 -->
      <g transform="translate(353.795373 322.182437)scale(0.1 -0.1)">
       <use xlink:href="#DejaVuSans-32"/>
       <use x="63.623047" xlink:href="#DejaVuSans-35"/>
       <use x="127.246094" xlink:href="#DejaVuSans-2e"/>
       <use x="159.033203" xlink:href="#DejaVuSans-30"/>
      </g>
     </g>
    </g>
    <g id="xtick_15">
     <g id="line2d_29">
      <g>
       <use style="stroke:#000000;stroke-width:0.8;" x="385.959575" xlink:href="#m032157db9c" y="307.584"/>
      </g>
     </g>
     <g id="text_27">
      <!-- 30.0 -->
      <g transform="translate(374.826763 322.182437)scale(0.1 -0.1)">
       <use xlink:href="#DejaVuSans-33"/>
       <use x="63.623047" xlink:href="#DejaVuSans-30"/>
       <use x="127.246094" xlink:href="#DejaVuSans-2e"/>
       <use x="159.033203" xlink:href="#DejaVuSans-30"/>
      </g>
     </g>
    </g>
    <g id="xtick_16">
     <g id="line2d_30">
      <g>
       <use style="stroke:#000000;stroke-width:0.8;" x="406.990964" xlink:href="#m032157db9c" y="307.584"/>
      </g>
     </g>
     <g id="text_28">
      <!-- 35.0 -->
      <g transform="translate(395.858152 322.182437)scale(0.1 -0.1)">
       <use xlink:href="#DejaVuSans-33"/>
       <use x="63.623047" xlink:href="#DejaVuSans-35"/>
       <use x="127.246094" xlink:href="#DejaVuSans-2e"/>
       <use x="159.033203" xlink:href="#DejaVuSans-30"/>
      </g>
     </g>
    </g>
    <g id="text_29">
     <!-- Minutes -->
     <g transform="translate(313.874332 335.860562)scale(0.1 -0.1)">
      <use xlink:href="#DejaVuSans-4d"/>
      <use x="86.279297" xlink:href="#DejaVuSans-69"/>
      <use x="114.0625" xlink:href="#DejaVuSans-6e"/>
      <use x="177.441406" xlink:href="#DejaVuSans-75"/>
      <use x="240.820312" xlink:href="#DejaVuSans-74"/>
      <use x="280.029297" xlink:href="#DejaVuSans-65"/>
      <use x="341.552734" xlink:href="#DejaVuSans-73"/>
     </g>
    </g>
   </g>
   <g id="matplotlib.axis_4">
    <g id="ytick_9">
     <g id="line2d_31">
      <g>
       <use style="stroke:#000000;stroke-width:0.8;" x="252.392727" xlink:href="#me1b921d66b" y="307.584"/>
      </g>
     </g>
     <g id="text_30">
      <!-- 1.00 -->
      <g transform="translate(223.127102 311.383219)scale(0.1 -0.1)">
       <use xlink:href="#DejaVuSans-31"/>
       <use x="63.623047" xlink:href="#DejaVuSans-2e"/>
       <use x="95.410156" xlink:href="#DejaVuSans-30"/>
       <use x="159.033203" xlink:href="#DejaVuSans-30"/>
      </g>
     </g>
    </g>
    <g id="ytick_10">
     <g id="line2d_32">
      <g>
       <use style="stroke:#000000;stroke-width:0.8;" x="252.392727" xlink:href="#me1b921d66b" y="274.32"/>
      </g>
     </g>
     <g id="text_31">
      <!-- 1.25 -->
      <g transform="translate(223.127102 278.119219)scale(0.1 -0.1)">
       <use xlink:href="#DejaVuSans-31"/>
       <use x="63.623047" xlink:href="#DejaVuSans-2e"/>
       <use x="95.410156" xlink:href="#DejaVuSans-32"/>
       <use x="159.033203" xlink:href="#DejaVuSans-35"/>
      </g>
     </g>
    </g>
    <g id="ytick_11">
     <g id="line2d_33">
      <g>
       <use style="stroke:#000000;stroke-width:0.8;" x="252.392727" xlink:href="#me1b921d66b" y="241.056"/>
      </g>
     </g>
     <g id="text_32">
      <!-- 1.50 -->
      <g transform="translate(223.127102 244.855219)scale(0.1 -0.1)">
       <use xlink:href="#DejaVuSans-31"/>
       <use x="63.623047" xlink:href="#DejaVuSans-2e"/>
       <use x="95.410156" xlink:href="#DejaVuSans-35"/>
       <use x="159.033203" xlink:href="#DejaVuSans-30"/>
      </g>
     </g>
    </g>
    <g id="ytick_12">
     <g id="line2d_34">
      <g>
       <use style="stroke:#000000;stroke-width:0.8;" x="252.392727" xlink:href="#me1b921d66b" y="207.792"/>
      </g>
     </g>
     <g id="text_33">
      <!-- 1.75 -->
      <g transform="translate(223.127102 211.591219)scale(0.1 -0.1)">
       <use xlink:href="#DejaVuSans-31"/>
       <use x="63.623047" xlink:href="#DejaVuSans-2e"/>
       <use x="95.410156" xlink:href="#DejaVuSans-37"/>
       <use x="159.033203" xlink:href="#DejaVuSans-35"/>
      </g>
     </g>
    </g>
    <g id="ytick_13">
     <g id="line2d_35">
      <g>
       <use style="stroke:#000000;stroke-width:0.8;" x="252.392727" xlink:href="#me1b921d66b" y="174.528"/>
      </g>
     </g>
     <g id="text_34">
      <!-- 2.00 -->
      <g transform="translate(223.127102 178.327219)scale(0.1 -0.1)">
       <use xlink:href="#DejaVuSans-32"/>
       <use x="63.623047" xlink:href="#DejaVuSans-2e"/>
       <use x="95.410156" xlink:href="#DejaVuSans-30"/>
       <use x="159.033203" xlink:href="#DejaVuSans-30"/>
      </g>
     </g>
    </g>
    <g id="ytick_14">
     <g id="line2d_36">
      <g>
       <use style="stroke:#000000;stroke-width:0.8;" x="252.392727" xlink:href="#me1b921d66b" y="141.264"/>
      </g>
     </g>
     <g id="text_35">
      <!-- 2.25 -->
      <g transform="translate(223.127102 145.063219)scale(0.1 -0.1)">
       <use xlink:href="#DejaVuSans-32"/>
       <use x="63.623047" xlink:href="#DejaVuSans-2e"/>
       <use x="95.410156" xlink:href="#DejaVuSans-32"/>
       <use x="159.033203" xlink:href="#DejaVuSans-35"/>
      </g>
     </g>
    </g>
    <g id="ytick_15">
     <g id="line2d_37">
      <g>
       <use style="stroke:#000000;stroke-width:0.8;" x="252.392727" xlink:href="#me1b921d66b" y="108"/>
      </g>
     </g>
     <g id="text_36">
      <!-- 2.50 -->
      <g transform="translate(223.127102 111.799219)scale(0.1 -0.1)">
       <use xlink:href="#DejaVuSans-32"/>
       <use x="63.623047" xlink:href="#DejaVuSans-2e"/>
       <use x="95.410156" xlink:href="#DejaVuSans-35"/>
       <use x="159.033203" xlink:href="#DejaVuSans-30"/>
      </g>
     </g>
    </g>
    <g id="ytick_16">
     <g id="line2d_38">
      <g>
       <use style="stroke:#000000;stroke-width:0.8;" x="252.392727" xlink:href="#me1b921d66b" y="74.736"/>
      </g>
     </g>
     <g id="text_37">
      <!-- 2.75 -->
      <g transform="translate(223.127102 78.535219)scale(0.1 -0.1)">
       <use xlink:href="#DejaVuSans-32"/>
       <use x="63.623047" xlink:href="#DejaVuSans-2e"/>
       <use x="95.410156" xlink:href="#DejaVuSans-37"/>
       <use x="159.033203" xlink:href="#DejaVuSans-35"/>
      </g>
     </g>
    </g>
    <g id="ytick_17">
     <g id="line2d_39">
      <g>
       <use style="stroke:#000000;stroke-width:0.8;" x="252.392727" xlink:href="#me1b921d66b" y="41.472"/>
      </g>
     </g>
     <g id="text_38">
      <!-- 3.00 -->
      <g transform="translate(223.127102 45.271219)scale(0.1 -0.1)">
       <use xlink:href="#DejaVuSans-33"/>
       <use x="63.623047" xlink:href="#DejaVuSans-2e"/>
       <use x="95.410156" xlink:href="#DejaVuSans-30"/>
       <use x="159.033203" xlink:href="#DejaVuSans-30"/>
      </g>
     </g>
    </g>
   </g>
   <g id="line2d_40">
    <path clip-path="url(#p2ccd94a350)" d="M 259.77124 162.302855 
L 260.121763 201.547231 
L 260.472286 168.618767 
L 260.822809 211.406922 
L 261.173332 181.997068 
L 261.523855 245.768993 
L 261.874379 220.200205 
L 262.224902 224.892671 
L 262.575425 196.886053 
L 262.925948 284.574301 
L 263.276471 206.638303 
L 263.626994 201.964344 
L 263.977518 216.666144 
L 264.328041 226.087954 
L 264.678564 215.821936 
L 265.029087 206.938922 
L 265.37961 285.305477 
L 265.730133 239.443629 
L 266.080656 254.709256 
L 266.43118 213.033163 
L 266.781703 192.952721 
L 267.132226 207.045961 
L 267.482749 200.194317 
L 267.833272 191.213448 
L 268.183795 196.305586 
L 268.534319 286.44298 
L 268.884842 212.765696 
L 269.235365 245.964567 
L 269.585888 207.604462 
L 269.936411 205.126558 
L 270.286934 206.413572 
L 270.637457 218.45654 
L 270.987981 258.103259 
L 271.338504 191.460014 
L 271.689027 236.414681 
L 272.03955 216.172747 
L 272.390073 232.190583 
L 272.740596 204.688013 
L 273.09112 215.584291 
L 273.441643 211.641772 
L 273.792166 202.097344 
L 274.142689 248.94825 
L 274.493212 181.693253 
L 274.843735 208.87896 
L 275.194258 226.859469 
L 275.544782 224.687376 
L 275.895305 212.472667 
L 276.245828 186.298382 
L 276.596351 203.582862 
L 276.946874 186.726542 
L 277.297397 192.795355 
L 277.647921 197.963511 
L 277.998444 198.505768 
L 278.348967 193.862696 
L 278.69949 262.065746 
L 279.050013 201.091511 
L 279.400536 221.57562 
L 279.751059 189.998061 
L 280.101583 222.152093 
L 280.452106 223.511798 
L 280.802629 238.795263 
L 281.153152 196.700197 
L 281.503675 172.159747 
L 281.854198 182.010115 
L 282.204722 187.872166 
L 282.555245 189.985681 
L 282.905768 204.396715 
L 283.256291 208.230461 
L 283.606814 251.481004 
L 283.957337 202.180421 
L 284.30786 195.762927 
L 284.658384 230.518678 
L 285.008907 200.955714 
L 285.35943 191.0678 
L 285.709953 187.995049 
L 286.060476 186.92731 
L 286.410999 236.940697 
L 286.761523 214.038996 
L 287.112046 215.11113 
L 287.462569 218.232606 
L 287.813092 194.454746 
L 288.163615 206.673584 
L 288.514138 206.922678 
L 288.864661 277.993985 
L 289.215185 235.560755 
L 289.565708 225.769896 
L 289.916231 199.480183 
L 290.266754 187.929282 
L 290.617277 212.631362 
L 290.9678 234.133818 
L 291.318324 197.494477 
L 291.668847 219.182389 
L 292.01937 208.996253 
L 292.369893 206.303336 
L 292.720416 188.869878 
L 293.070939 199.261841 
L 293.421462 183.208324 
L 293.771986 240.74156 
L 294.122509 186.494621 
L 294.473032 239.731999 
L 294.823555 202.807618 
L 295.174078 178.746716 
L 295.524601 236.08677 
L 295.875125 205.691449 
L 296.225648 211.381228 
L 296.576171 203.158827 
L 296.926694 182.556499 
L 297.277217 215.113926 
L 297.62774 216.662015 
L 297.978263 210.396164 
L 298.328787 225.611864 
L 298.67931 187.627865 
L 299.029833 246.416028 
L 299.380356 198.435075 
L 299.730879 195.826033 
L 300.081402 200.140664 
L 300.431926 172.932594 
L 300.782449 226.364209 
L 301.132972 203.878155 
L 301.483495 199.316294 
L 301.834018 193.89771 
" style="fill:none;stroke:#0000ff;stroke-linecap:square;stroke-width:1.5;"/>
   </g>
   <g id="line2d_41">
    <path clip-path="url(#p2ccd94a350)" d="M 302.184541 150.347622 
L 302.535064 211.154031 
L 303.236111 239.026637 
L 303.586634 216.830735 
L 303.937157 232.49921 
L 304.28768 235.328678 
L 304.638203 206.254719 
L 304.988727 230.47211 
L 305.33925 208.531199 
L 305.689773 195.829919 
L 306.040296 237.121491 
L 306.390819 189.424432 
L 307.091865 285.872574 
L 307.442389 186.417978 
L 307.792912 181.16844 
L 308.143435 228.497105 
L 308.844481 210.447565 
L 309.195004 205.990246 
L 309.896051 224.136759 
L 310.246574 200.52806 
L 310.597097 192.216099 
L 310.94762 192.895583 
L 311.298143 206.440037 
L 311.99919 255.383012 
L 312.349713 216.723743 
L 312.700236 194.522097 
L 313.050759 215.355026 
L 313.401282 209.524311 
L 313.751805 188.513732 
L 314.102329 202.318466 
L 314.452852 202.08004 
L 314.803375 235.786032 
L 315.153898 206.298653 
L 315.504421 287.245701 
L 315.854944 229.104593 
L 316.205468 232.77007 
L 316.555991 199.879029 
L 316.906514 221.521539 
L 317.257037 266.459256 
L 317.60756 204.986313 
L 317.958083 268.240629 
L 318.308606 228.933888 
L 319.009653 195.915823 
L 319.360176 207.755409 
L 319.710699 191.078327 
L 320.061222 206.808378 
L 320.411745 185.195654 
L 320.762269 217.619483 
L 321.112792 223.125882 
L 321.813838 226.016728 
L 322.164361 192.392415 
L 322.514884 208.761478 
L 322.865407 200.628772 
L 323.215931 211.125045 
L 323.566454 190.620307 
L 323.916977 197.041279 
L 324.2675 198.510444 
L 324.618023 217.074143 
L 324.968546 203.693463 
L 325.31907 221.186006 
L 325.669593 201.13766 
L 326.020116 197.950373 
L 326.370639 285.716561 
L 326.721162 203.765593 
L 327.071685 197.770585 
L 327.422208 258.780832 
L 327.772732 211.9743 
L 328.123255 186.440818 
L 328.473778 195.817994 
L 328.824301 211.998477 
L 329.174824 198.641348 
L 329.525347 273.129476 
L 329.875871 196.892879 
L 330.226394 219.81742 
L 330.576917 222.787008 
L 330.92744 220.233365 
L 331.277963 187.892035 
L 331.628486 179.107283 
L 331.979009 175.67607 
L 332.329533 203.476731 
L 332.680056 180.460906 
L 333.030579 201.695083 
L 333.381102 198.57122 
L 333.731625 198.515118 
L 334.082148 238.13329 
L 334.432672 200.339587 
L 334.783195 220.760044 
L 335.133718 227.496908 
L 335.484241 213.839776 
L 335.834764 214.70132 
L 336.185287 189.011158 
L 336.53581 188.072276 
L 336.886334 279.597063 
L 337.236857 197.793159 
L 337.58738 188.87478 
L 337.937903 227.391841 
L 338.288426 171.908788 
L 338.638949 215.022829 
L 338.989473 221.67221 
L 339.339996 189.462365 
L 339.690519 218.583343 
L 340.041042 209.518835 
L 340.391565 243.569311 
L 340.742088 194.860871 
L 341.092611 218.36228 
L 341.443135 197.468711 
L 341.793658 211.112015 
L 342.144181 183.983884 
L 342.494704 197.912706 
L 342.845227 186.607116 
L 343.546274 209.107844 
L 343.896797 255.926117 
L 344.24732 199.452532 
L 344.597843 199.490232 
L 344.948366 223.957905 
L 345.298889 213.238968 
L 345.649412 214.64375 
L 345.999936 187.215541 
L 346.350459 241.469815 
L 346.700982 202.155108 
L 347.051505 190.614296 
L 347.752551 207.186255 
L 348.103075 182.998116 
L 348.453598 215.981348 
L 348.804121 227.692329 
L 349.154644 208.784452 
L 349.505167 201.504742 
L 349.85569 190.190604 
L 350.556737 229.467777 
L 350.90726 203.419507 
L 351.257783 160.733539 
L 351.608306 205.417486 
L 351.958829 196.582055 
L 352.309352 206.649426 
L 352.659876 187.240252 
L 353.010399 205.00074 
L 353.360922 204.345699 
L 353.711445 239.761955 
L 354.061968 202.071599 
L 354.412491 192.351809 
L 354.763014 195.002158 
L 355.113538 186.47114 
L 355.464061 186.192908 
L 356.51563 209.209346 
L 356.866153 224.394093 
L 357.216677 201.084122 
L 357.5672 209.348262 
L 357.917723 188.149474 
L 358.268246 201.098815 
L 358.618769 199.415265 
L 358.969292 199.094023 
L 359.319815 183.232404 
L 359.670339 252.169729 
L 360.020862 241.201601 
L 360.371385 222.517458 
L 360.721908 218.716611 
L 361.072431 220.920062 
L 361.422954 230.174243 
L 361.773478 177.103695 
L 362.124001 197.552193 
L 362.474524 238.145859 
L 362.825047 152.188788 
L 363.17557 183.75975 
L 363.526093 163.523699 
L 363.876616 230.764768 
L 364.22714 187.35499 
L 364.577663 199.484188 
L 364.928186 165.717697 
L 365.278709 210.417378 
L 365.629232 180.76799 
L 365.979755 182.65951 
L 366.330279 178.016715 
L 366.680802 165.982169 
L 367.031325 261.730251 
L 367.732371 168.31515 
L 368.082894 188.363196 
L 368.433417 155.948859 
L 368.783941 189.050294 
L 369.134464 165.529358 
L 369.484987 152.889912 
L 369.83551 155.844408 
L 370.186033 139.808268 
L 370.536556 233.553631 
L 370.88708 213.585321 
L 371.237603 170.593232 
L 371.588126 256.770697 
L 371.938649 170.990208 
L 372.289172 135.069452 
L 372.990218 138.197294 
L 373.340742 163.793985 
L 373.691265 174.379613 
L 374.041788 129.94233 
L 374.392311 214.958415 
L 374.742834 198.455011 
L 375.093357 117.496898 
L 375.443881 138.238329 
L 375.539151 346.6 
M 376.046545 346.6 
L 376.144927 128.778043 
L 376.49545 124.270767 
L 376.845973 191.865131 
L 377.196496 147.796519 
L 377.547019 150.12963 
L 377.897543 201.861918 
L 378.248066 151.725558 
L 378.598589 178.490578 
L 378.949112 152.294713 
L 379.299635 169.554035 
L 379.650158 152.674769 
L 380.000682 155.545202 
L 380.351205 154.149101 
L 380.701728 141.896481 
L 381.052251 236.43279 
L 381.402774 250.618474 
L 381.753297 170.523507 
L 382.10382 206.771913 
L 382.454344 211.483233 
L 382.804867 171.246267 
L 383.15539 183.021226 
L 383.505913 161.724703 
L 383.593217 346.6 
M 384.157253 346.6 
L 384.206959 254.497544 
L 384.557483 118.137513 
L 384.908006 157.018776 
L 385.258529 177.73033 
L 385.609052 155.177344 
L 385.959575 207.69076 
L 386.310098 198.745786 
L 386.660622 223.178242 
L 387.011145 198.985964 
L 387.361668 289.078788 
L 388.062714 151.621369 
L 388.413237 137.820246 
L 388.76376 160.770033 
L 389.114284 147.310745 
L 389.464807 254.862077 
L 389.81533 201.539605 
L 390.165853 125.456629 
L 390.516376 161.42761 
L 390.866899 148.18161 
L 391.217423 162.601582 
L 391.918469 142.940165 
L 392.268992 170.268248 
L 392.619515 179.22496 
L 392.970038 144.436156 
L 393.320561 186.128794 
L 393.671085 292.951122 
L 394.021608 146.919746 
L 394.372131 132.489927 
L 394.722654 180.687445 
L 395.073177 188.810131 
L 395.4237 250.45047 
L 395.774224 182.825523 
L 396.124747 145.090737 
L 396.47527 126.883449 
L 396.825793 151.73023 
L 397.176316 185.605857 
L 397.526839 142.371733 
L 397.877362 140.108882 
L 397.972089 346.6 
M 398.539055 346.6 
L 398.578409 276.081087 
L 399.279455 82.909192 
L 399.629978 135.253513 
L 399.980501 145.843288 
L 400.331025 117.056646 
L 400.681548 133.651177 
L 401.032071 159.831284 
L 401.382594 224.411922 
L 401.733117 207.777582 
L 402.08364 143.007809 
L 402.434163 186.444422 
L 402.784687 294.79202 
L 403.13521 125.219668 
L 403.485733 168.674595 
L 403.836256 155.214342 
L 404.186779 250.362683 
L 404.537302 228.603829 
L 404.887826 167.671465 
L 405.238349 136.69192 
L 405.588872 267.408709 
L 405.939395 149.512525 
L 406.289918 149.867854 
L 406.640441 136.511636 
L 406.990964 137.190452 
L 407.341488 196.230225 
L 407.341488 196.230225 
" style="fill:none;stroke:#ff0000;stroke-linecap:square;stroke-width:1.5;"/>
   </g>
   <g id="patch_9">
    <path d="M 252.392727 307.584 
L 252.392727 41.472 
" style="fill:none;stroke:#000000;stroke-linecap:square;stroke-linejoin:miter;stroke-width:0.8;"/>
   </g>
   <g id="patch_10">
    <path d="M 414.72 307.584 
L 414.72 41.472 
" style="fill:none;stroke:#000000;stroke-linecap:square;stroke-linejoin:miter;stroke-width:0.8;"/>
   </g>
   <g id="patch_11">
    <path d="M 252.392727 307.584 
L 414.72 307.584 
" style="fill:none;stroke:#000000;stroke-linecap:square;stroke-linejoin:miter;stroke-width:0.8;"/>
   </g>
   <g id="patch_12">
    <path d="M 252.392727 41.472 
L 414.72 41.472 
" style="fill:none;stroke:#000000;stroke-linecap:square;stroke-linejoin:miter;stroke-width:0.8;"/>
   </g>
   <g id="text_39">
    <!-- Pupil - Reg vs Stress -->
    <defs>
     <path d="M 19.671875 64.796875 
L 19.671875 37.40625 
L 32.078125 37.40625 
Q 38.96875 37.40625 42.71875 40.96875 
Q 46.484375 44.53125 46.484375 51.125 
Q 46.484375 57.671875 42.71875 61.234375 
Q 38.96875 64.796875 32.078125 64.796875 
z
M 9.8125 72.90625 
L 32.078125 72.90625 
Q 44.34375 72.90625 50.609375 67.359375 
Q 56.890625 61.8125 56.890625 51.125 
Q 56.890625 40.328125 50.609375 34.8125 
Q 44.34375 29.296875 32.078125 29.296875 
L 19.671875 29.296875 
L 19.671875 0 
L 9.8125 0 
z
" id="DejaVuSans-50"/>
     <path d="M 18.109375 8.203125 
L 18.109375 -20.796875 
L 9.078125 -20.796875 
L 9.078125 54.6875 
L 18.109375 54.6875 
L 18.109375 46.390625 
Q 20.953125 51.265625 25.265625 53.625 
Q 29.59375 56 35.59375 56 
Q 45.5625 56 51.78125 48.09375 
Q 58.015625 40.1875 58.015625 27.296875 
Q 58.015625 14.40625 51.78125 6.484375 
Q 45.5625 -1.421875 35.59375 -1.421875 
Q 29.59375 -1.421875 25.265625 0.953125 
Q 20.953125 3.328125 18.109375 8.203125 
z
M 48.6875 27.296875 
Q 48.6875 37.203125 44.609375 42.84375 
Q 40.53125 48.484375 33.40625 48.484375 
Q 26.265625 48.484375 22.1875 42.84375 
Q 18.109375 37.203125 18.109375 27.296875 
Q 18.109375 17.390625 22.1875 11.75 
Q 26.265625 6.109375 33.40625 6.109375 
Q 40.53125 6.109375 44.609375 11.75 
Q 48.6875 17.390625 48.6875 27.296875 
z
" id="DejaVuSans-70"/>
     <path d="M 9.421875 75.984375 
L 18.40625 75.984375 
L 18.40625 0 
L 9.421875 0 
z
" id="DejaVuSans-6c"/>
    </defs>
    <g transform="translate(272.289801 35.472)scale(0.12 -0.12)">
     <use xlink:href="#DejaVuSans-50"/>
     <use x="60.287109" xlink:href="#DejaVuSans-75"/>
     <use x="123.666016" xlink:href="#DejaVuSans-70"/>
     <use x="187.142578" xlink:href="#DejaVuSans-69"/>
     <use x="214.925781" xlink:href="#DejaVuSans-6c"/>
     <use x="242.708984" xlink:href="#DejaVuSans-20"/>
     <use x="274.496094" xlink:href="#DejaVuSans-2d"/>
     <use x="310.580078" xlink:href="#DejaVuSans-20"/>
     <use x="342.367188" xlink:href="#DejaVuSans-52"/>
     <use x="411.787109" xlink:href="#DejaVuSans-65"/>
     <use x="473.310547" xlink:href="#DejaVuSans-67"/>
     <use x="536.787109" xlink:href="#DejaVuSans-20"/>
     <use x="568.574219" xlink:href="#DejaVuSans-76"/>
     <use x="627.753906" xlink:href="#DejaVuSans-73"/>
     <use x="679.853516" xlink:href="#DejaVuSans-20"/>
     <use x="711.640625" xlink:href="#DejaVuSans-53"/>
     <use x="775.117188" xlink:href="#DejaVuSans-74"/>
     <use x="814.326172" xlink:href="#DejaVuSans-72"/>
     <use x="855.408203" xlink:href="#DejaVuSans-65"/>
     <use x="916.931641" xlink:href="#DejaVuSans-73"/>
     <use x="969.03125" xlink:href="#DejaVuSans-73"/>
    </g>
   </g>
   <g id="legend_2">
    <g id="patch_13">
     <path d="M 344.771562 78.82825 
L 407.72 78.82825 
Q 409.72 78.82825 409.72 76.82825 
L 409.72 48.472 
Q 409.72 46.472 407.72 46.472 
L 344.771562 46.472 
Q 342.771562 46.472 342.771562 48.472 
L 342.771562 76.82825 
Q 342.771562 78.82825 344.771562 78.82825 
z
" style="fill:#ffffff;opacity:0.8;stroke:#cccccc;stroke-linejoin:miter;"/>
    </g>
    <g id="line2d_42">
     <path d="M 346.771562 54.570437 
L 366.771562 54.570437 
" style="fill:none;stroke:#0000ff;stroke-linecap:square;stroke-width:1.5;"/>
    </g>
    <g id="line2d_43"/>
    <g id="text_40">
     <!-- Reg -->
     <g transform="translate(374.771562 58.070437)scale(0.1 -0.1)">
      <use xlink:href="#DejaVuSans-52"/>
      <use x="69.419922" xlink:href="#DejaVuSans-65"/>
      <use x="130.943359" xlink:href="#DejaVuSans-67"/>
     </g>
    </g>
    <g id="line2d_44">
     <path d="M 346.771562 69.248562 
L 366.771562 69.248562 
" style="fill:none;stroke:#ff0000;stroke-linecap:square;stroke-width:1.5;"/>
    </g>
    <g id="line2d_45"/>
    <g id="text_41">
     <!-- Stress -->
     <g transform="translate(374.771562 72.748562)scale(0.1 -0.1)">
      <use xlink:href="#DejaVuSans-53"/>
      <use x="63.476562" xlink:href="#DejaVuSans-74"/>
      <use x="102.685547" xlink:href="#DejaVuSans-72"/>
      <use x="143.767578" xlink:href="#DejaVuSans-65"/>
      <use x="205.291016" xlink:href="#DejaVuSans-73"/>
      <use x="257.390625" xlink:href="#DejaVuSans-73"/>
     </g>
    </g>
   </g>
  </g>
 </g>
 <defs>
  <clipPath id="p8f04cc41b0">
   <rect height="266.112" width="162.327273" x="57.6" y="41.472"/>
  </clipPath>
  <clipPath id="p2ccd94a350">
   <rect height="266.112" width="162.327273" x="252.392727" y="41.472"/>
  </clipPath>
 </defs>
</svg>
