<?xml version="1.0" encoding="utf-8" standalone="no"?>
<!DOCTYPE svg PUBLIC "-//W3C//DTD SVG 1.1//EN"
  "http://www.w3.org/Graphics/SVG/1.1/DTD/svg11.dtd">
<!-- Created with matplotlib (http://matplotlib.org/) -->
<svg height="432pt" version="1.1" viewBox="0 0 576 432" width="576pt" xmlns="http://www.w3.org/2000/svg" xmlns:xlink="http://www.w3.org/1999/xlink">
 <defs>
  <style type="text/css">
*{stroke-linecap:butt;stroke-linejoin:round;}
  </style>
 </defs>
 <g id="figure_1">
  <g id="patch_1">
   <path d="
M0 432
L576 432
L576 0
L0 0
z
" style="fill:#ffffff;"/>
  </g>
  <g id="axes_1">
   <g id="patch_2">
    <path d="
M72 388.8
L518.4 388.8
L518.4 43.2
L72 43.2
z
" style="fill:#ffffff;"/>
   </g>
   <g id="PolyCollection_1">
    <defs>
     <path d="
M72 -78.6897
L72 -60.8439
L125.215 -149.54
L178.43 -147.908
L231.645 -225.982
L284.86 -207.926
L338.075 -108.765
L391.29 -77.3993
L444.505 -68.0891
L497.72 -58.575
L550.935 -55.0914
L604.15 -59.6458
L657.365 -51.7309
L710.58 -47.8716
L763.795 -46.9123
L817.01 -46.2752
L870.225 -45.9245
L923.44 -45.4468
L976.655 -45.2222
L1029.87 -44.9084
L1083.09 -44.7478
L1136.3 -44.606
L1189.52 -44.5066
L1242.73 -44.4153
L1295.95 -44.2636
L1349.16 -44.1316
L1402.38 -44.0661
L1455.59 -44.0072
L1508.81 -43.943
L1562.02 -43.8711
L1615.24 -44.1194
L1615.24 -44.748
L1615.24 -44.748
L1562.02 -44.4329
L1508.81 -44.5544
L1455.59 -44.6407
L1402.38 -44.8026
L1349.16 -44.9329
L1295.95 -44.9701
L1242.73 -45.1702
L1189.52 -45.3605
L1136.3 -45.5157
L1083.09 -45.7096
L1029.87 -46.0664
L976.655 -46.4813
L923.44 -46.9118
L870.225 -47.5175
L817.01 -48.3979
L763.795 -49.3354
L710.58 -50.6064
L657.365 -56.5426
L604.15 -68.8089
L550.935 -61.6165
L497.72 -68.3913
L444.505 -84.9465
L391.29 -98.2435
L338.075 -142.192
L284.86 -270.669
L231.645 -293.451
L178.43 -194.905
L125.215 -220.997
L72 -78.6897
z
" id="m89fdac9692" style="stroke:#000000;stroke-opacity:0.5;stroke-width:0.1;"/>
    </defs>
    <g clip-path="url(#p7ff5b81e1d)">
     <use style="fill:#ff0000;fill-opacity:0.5;stroke:#000000;stroke-opacity:0.5;stroke-width:0.1;" x="0.0" xlink:href="#m89fdac9692" y="432.0"/>
    </g>
   </g>
   <g id="PolyCollection_2">
    <defs>
     <path d="
M72 -81.2353
L72 -64.08
L125.215 -165.655
L178.43 -153.831
L231.645 -229.681
L284.86 -195.214
L338.075 -104.456
L391.29 -78.299
L444.505 -68.9936
L497.72 -58.4178
L550.935 -55.3105
L604.15 -60.0459
L657.365 -52.1677
L710.58 -47.9726
L763.795 -47.0427
L817.01 -46.4926
L870.225 -46.0149
L923.44 -45.5929
L976.655 -45.1988
L1029.87 -44.9901
L1083.09 -44.7418
L1136.3 -44.7001
L1189.52 -44.5271
L1242.73 -44.4216
L1295.95 -44.3498
L1349.16 -44.2058
L1402.38 -44.149
L1455.59 -44.0924
L1508.81 -43.9856
L1562.02 -43.9262
L1615.24 -44.1997
L1615.24 -44.8054
L1615.24 -44.8054
L1562.02 -44.4477
L1508.81 -44.5274
L1455.59 -44.6781
L1402.38 -44.7778
L1349.16 -44.9375
L1295.95 -45.0652
L1242.73 -45.1859
L1189.52 -45.3794
L1136.3 -45.6569
L1083.09 -45.9584
L1029.87 -46.1296
L976.655 -46.4579
L923.44 -47.0385
L870.225 -47.6693
L817.01 -48.49
L763.795 -49.529
L710.58 -50.7388
L657.365 -56.5108
L604.15 -68.4125
L550.935 -61.809
L497.72 -67.4334
L444.505 -82.5607
L391.29 -96.5464
L338.075 -136.213
L284.86 -254.21
L231.645 -290.851
L178.43 -202.726
L125.215 -224.931
L72 -81.2353
z
" id="mb9a5a124b6" style="stroke:#000000;stroke-opacity:0.5;stroke-width:0.1;"/>
    </defs>
    <g clip-path="url(#p7ff5b81e1d)">
     <use style="fill:#0000ff;fill-opacity:0.5;stroke:#000000;stroke-opacity:0.5;stroke-width:0.1;" x="0.0" xlink:href="#mb9a5a124b6" y="432.0"/>
    </g>
   </g>
   <g id="PolyCollection_3">
    <defs>
     <path d="
M72 -99.0595
L72 -74.4762
L125.215 -284.545
L178.43 -146.802
L231.645 -163.85
L284.86 -156.885
L338.075 -98.7305
L391.29 -71.0485
L444.505 -60.4716
L497.72 -54.7839
L550.935 -53.2983
L604.15 -54.6934
L657.365 -50.4223
L710.58 -48.0818
L763.795 -47.1604
L817.01 -46.362
L870.225 -45.8819
L923.44 -45.5248
L976.655 -45.1993
L1029.87 -44.9766
L1083.09 -44.729
L1136.3 -44.5432
L1189.52 -44.4647
L1242.73 -44.316
L1295.95 -44.2122
L1349.16 -44.0543
L1402.38 -43.9962
L1455.59 -43.9216
L1508.81 -43.8619
L1562.02 -43.8105
L1615.24 -43.8432
L1615.24 -44.3246
L1615.24 -44.3246
L1562.02 -44.2088
L1508.81 -44.3152
L1455.59 -44.4284
L1402.38 -44.4958
L1349.16 -44.6798
L1295.95 -44.8154
L1242.73 -44.9959
L1189.52 -45.1964
L1136.3 -45.4564
L1083.09 -45.7331
L1029.87 -46.1636
L976.655 -46.6232
L923.44 -47.2578
L870.225 -47.9175
L817.01 -48.8209
L763.795 -50.1531
L710.58 -51.5303
L657.365 -54.9049
L604.15 -60.8364
L550.935 -58.9288
L497.72 -61.6534
L444.505 -70.1804
L391.29 -88.7678
L338.075 -128.5
L284.86 -218.833
L231.645 -225.428
L178.43 -193.795
L125.215 -376.504
L72 -99.0595
z
" id="mff8742d6b4" style="stroke:#000000;stroke-opacity:0.5;stroke-width:0.1;"/>
    </defs>
    <g clip-path="url(#p7ff5b81e1d)">
     <use style="fill:#ff0000;fill-opacity:0.5;stroke:#000000;stroke-opacity:0.5;stroke-width:0.1;" x="0.0" xlink:href="#mff8742d6b4" y="432.0"/>
    </g>
   </g>
   <g id="PolyCollection_4">
    <defs>
     <path d="
M72 -104.045
L72 -77.541
L125.215 -297.588
L178.43 -157.163
L231.645 -161.406
L284.86 -149.868
L338.075 -97.8756
L391.29 -72.9765
L444.505 -61.2769
L497.72 -55.968
L550.935 -53.618
L604.15 -54.7657
L657.365 -50.7955
L710.58 -48.3708
L763.795 -47.3472
L817.01 -46.5015
L870.225 -45.9287
L923.44 -45.6138
L976.655 -45.3966
L1029.87 -45.0896
L1083.09 -44.8245
L1136.3 -44.6707
L1189.52 -44.5021
L1242.73 -44.2831
L1295.95 -44.1648
L1349.16 -44.0656
L1402.38 -44.0303
L1455.59 -43.9623
L1508.81 -43.8757
L1562.02 -43.8266
L1615.24 -43.9033
L1615.24 -44.3396
L1615.24 -44.3396
L1562.02 -44.2888
L1508.81 -44.3868
L1455.59 -44.4485
L1402.38 -44.5264
L1349.16 -44.6652
L1295.95 -44.8463
L1242.73 -45.0844
L1189.52 -45.2021
L1136.3 -45.4573
L1083.09 -45.6934
L1029.87 -46.0575
L976.655 -46.5628
L923.44 -47.3767
L870.225 -48.0962
L817.01 -49.1607
L763.795 -50.5096
L710.58 -52.0623
L657.365 -55.7762
L604.15 -61.9156
L550.935 -60.4517
L497.72 -63.3599
L444.505 -72.2927
L391.29 -87.9184
L338.075 -128.067
L284.86 -197.104
L231.645 -209.272
L178.43 -193.875
L125.215 -380.134
L72 -104.045
z
" id="mf95468e9bf" style="stroke:#000000;stroke-opacity:0.5;stroke-width:0.1;"/>
    </defs>
    <g clip-path="url(#p7ff5b81e1d)">
     <use style="fill:#0000ff;fill-opacity:0.5;stroke:#000000;stroke-opacity:0.5;stroke-width:0.1;" x="0.0" xlink:href="#mf95468e9bf" y="432.0"/>
    </g>
   </g>
   <g id="PolyCollection_5">
    <defs>
     <path d="
M72 -85.5306
L72 -62.8538
L125.215 -172.196
L178.43 -134.556
L231.645 -155.336
L284.86 -142.377
L338.075 -102.374
L391.29 -91.3526
L444.505 -78.2913
L497.72 -67.1892
L550.935 -63.5515
L604.15 -62.7
L657.365 -59.6209
L710.58 -57.938
L763.795 -56.7621
L817.01 -55.9964
L870.225 -54.3345
L923.44 -53.6109
L976.655 -52.6588
L1029.87 -51.4351
L1083.09 -50.9544
L1136.3 -50.6148
L1189.52 -49.6203
L1242.73 -48.9444
L1295.95 -48.8531
L1349.16 -48.4627
L1402.38 -48.0939
L1455.59 -47.7311
L1508.81 -47.4909
L1562.02 -47.1889
L1615.24 -46.9751
L1615.24 -49.7113
L1615.24 -49.7113
L1562.02 -50.294
L1508.81 -51.2691
L1455.59 -51.5771
L1402.38 -51.7535
L1349.16 -52.4595
L1295.95 -53.4261
L1242.73 -54.372
L1189.52 -54.8321
L1136.3 -55.6709
L1083.09 -56.675
L1029.87 -57.9999
L976.655 -58.8873
L923.44 -59.9473
L870.225 -61.7693
L817.01 -63.5354
L763.795 -65.5244
L710.58 -67.0491
L657.365 -70.1438
L604.15 -76.8495
L550.935 -76.8206
L497.72 -81.6326
L444.505 -99.2611
L391.29 -118.978
L338.075 -134.792
L284.86 -191.035
L231.645 -224.96
L178.43 -178.268
L125.215 -249.089
L72 -85.5306
z
" id="m2c2645dd81" style="stroke:#000000;stroke-opacity:0.5;stroke-width:0.1;"/>
    </defs>
    <g clip-path="url(#p7ff5b81e1d)">
     <use style="fill:#ff0000;fill-opacity:0.5;stroke:#000000;stroke-opacity:0.5;stroke-width:0.1;" x="0.0" xlink:href="#m2c2645dd81" y="432.0"/>
    </g>
   </g>
   <g id="PolyCollection_6">
    <defs>
     <path d="
M72 -83.2248
L72 -63.8864
L125.215 -168.583
L178.43 -140.833
L231.645 -161.566
L284.86 -136.894
L338.075 -104.074
L391.29 -94.3732
L444.505 -80.0408
L497.72 -70.007
L550.935 -64.163
L604.15 -63.2912
L657.365 -60.0694
L710.58 -57.9491
L763.795 -56.87
L817.01 -55.5039
L870.225 -54.4079
L923.44 -53.6628
L976.655 -52.2821
L1029.87 -51.5596
L1083.09 -50.9123
L1136.3 -50.1414
L1189.52 -50.0174
L1242.73 -49.694
L1295.95 -49.0433
L1349.16 -48.7038
L1402.38 -48.3432
L1455.59 -47.9357
L1508.81 -47.417
L1562.02 -47.0455
L1615.24 -47.0167
L1615.24 -49.493
L1615.24 -49.493
L1562.02 -50.0723
L1508.81 -50.6144
L1455.59 -50.9014
L1402.38 -51.7355
L1349.16 -52.6364
L1295.95 -53.2256
L1242.73 -53.807
L1189.52 -54.3458
L1136.3 -55.2812
L1083.09 -56.2941
L1029.87 -57.2488
L976.655 -58.5003
L923.44 -59.7816
L870.225 -61.7355
L817.01 -62.8715
L763.795 -64.735
L710.58 -66.5855
L657.365 -70.4792
L604.15 -76.674
L550.935 -75.8444
L497.72 -82.7821
L444.505 -102.382
L391.29 -123.243
L338.075 -138.747
L284.86 -183.259
L231.645 -214.462
L178.43 -185.69
L125.215 -237.937
L72 -83.2248
z
" id="m937d7405f3" style="stroke:#000000;stroke-opacity:0.5;stroke-width:0.1;"/>
    </defs>
    <g clip-path="url(#p7ff5b81e1d)">
     <use style="fill:#0000ff;fill-opacity:0.5;stroke:#000000;stroke-opacity:0.5;stroke-width:0.1;" x="0.0" xlink:href="#m937d7405f3" y="432.0"/>
    </g>
   </g>
   <g id="PolyCollection_7">
    <defs>
     <path d="
M72 -91.8933
L72 -67.6021
L125.215 -211.95
L178.43 -144.987
L231.645 -193.566
L284.86 -186.474
L338.075 -103.965
L391.29 -72.7417
L444.505 -61.7422
L497.72 -56.7203
L550.935 -54.6305
L604.15 -57.0664
L657.365 -51.9704
L710.58 -49.19
L763.795 -48.0922
L817.01 -47.6334
L870.225 -46.9455
L923.44 -46.2014
L976.655 -45.9729
L1029.87 -45.709
L1083.09 -45.2924
L1136.3 -45.0108
L1189.52 -44.9198
L1242.73 -44.7448
L1295.95 -44.6576
L1349.16 -44.5493
L1402.38 -44.4157
L1455.59 -44.3662
L1508.81 -44.2845
L1562.02 -44.1694
L1615.24 -44.2346
L1615.24 -44.9867
L1615.24 -44.9867
L1562.02 -44.8322
L1508.81 -44.9914
L1455.59 -45.153
L1402.38 -45.2444
L1349.16 -45.4224
L1295.95 -45.5507
L1242.73 -45.7578
L1189.52 -46.1932
L1136.3 -46.4408
L1083.09 -46.8708
L1029.87 -47.2681
L976.655 -47.8238
L923.44 -48.4938
L870.225 -49.2634
L817.01 -50.2954
L763.795 -51.3636
L710.58 -53.1122
L657.365 -56.9616
L604.15 -64.7146
L550.935 -61.0446
L497.72 -63.0033
L444.505 -71.2215
L391.29 -89.549
L338.075 -135.879
L284.86 -246.605
L231.645 -263.503
L178.43 -194.297
L125.215 -292.423
L72 -91.8933
z
" id="m6c3f9d1340" style="stroke:#000000;stroke-opacity:0.5;stroke-width:0.1;"/>
    </defs>
    <g clip-path="url(#p7ff5b81e1d)">
     <use style="fill:#ff0000;fill-opacity:0.5;stroke:#000000;stroke-opacity:0.5;stroke-width:0.1;" x="0.0" xlink:href="#m6c3f9d1340" y="432.0"/>
    </g>
   </g>
   <g id="PolyCollection_8">
    <defs>
     <path d="
M72 -93.28
L72 -70.0464
L125.215 -229.569
L178.43 -157.048
L231.645 -188.849
L284.86 -167.287
L338.075 -101.629
L391.29 -75.2741
L444.505 -63.4677
L497.72 -57.117
L550.935 -55.455
L604.15 -58.917
L657.365 -53.1213
L710.58 -49.6803
L763.795 -48.5217
L817.01 -47.6699
L870.225 -46.9544
L923.44 -46.56
L976.655 -46.0987
L1029.87 -45.7674
L1083.09 -45.5583
L1136.3 -45.4158
L1189.52 -45.1082
L1242.73 -44.9187
L1295.95 -44.7516
L1349.16 -44.6174
L1402.38 -44.5164
L1455.59 -44.4412
L1508.81 -44.3847
L1562.02 -44.2574
L1615.24 -44.328
L1615.24 -45.0782
L1615.24 -45.0782
L1562.02 -44.9134
L1508.81 -45.0351
L1455.59 -45.1771
L1402.38 -45.2461
L1349.16 -45.4294
L1295.95 -45.6314
L1242.73 -45.8928
L1189.52 -46.2814
L1136.3 -46.5632
L1083.09 -46.8329
L1029.87 -47.2758
L976.655 -47.988
L923.44 -48.3909
L870.225 -49.3439
L817.01 -50.6755
L763.795 -51.9655
L710.58 -53.5043
L657.365 -58.3646
L604.15 -67.6347
L550.935 -62.6493
L497.72 -64.7832
L444.505 -73.4965
L391.29 -91.2979
L338.075 -133.635
L284.86 -222.149
L231.645 -246.864
L178.43 -200.778
L125.215 -298.978
L72 -93.28
z
" id="m475a6b1441" style="stroke:#000000;stroke-opacity:0.5;stroke-width:0.1;"/>
    </defs>
    <g clip-path="url(#p7ff5b81e1d)">
     <use style="fill:#0000ff;fill-opacity:0.5;stroke:#000000;stroke-opacity:0.5;stroke-width:0.1;" x="0.0" xlink:href="#m475a6b1441" y="432.0"/>
    </g>
   </g>
   <g id="PolyCollection_9">
    <defs>
     <path d="
M72 -87.4431
L72 -66.2531
L125.215 -207.147
L178.43 -142.156
L231.645 -218.344
L284.86 -205.983
L338.075 -97.0633
L391.29 -63.3856
L444.505 -56.6879
L497.72 -53.0837
L550.935 -51.0722
L604.15 -53.5623
L657.365 -49.4616
L710.58 -47.2887
L763.795 -46.477
L817.01 -45.9055
L870.225 -45.3822
L923.44 -45.1201
L976.655 -45.0017
L1029.87 -44.7461
L1083.09 -44.4791
L1136.3 -44.3394
L1189.52 -44.2765
L1242.73 -44.1849
L1295.95 -44.1211
L1349.16 -44.0489
L1402.38 -44.0052
L1455.59 -43.9352
L1508.81 -43.8425
L1562.02 -43.8089
L1615.24 -43.9221
L1615.24 -44.5083
L1615.24 -44.5083
L1562.02 -44.3871
L1508.81 -44.4271
L1455.59 -44.4763
L1402.38 -44.5565
L1349.16 -44.7329
L1295.95 -44.8627
L1242.73 -45.0476
L1189.52 -45.2056
L1136.3 -45.4155
L1083.09 -45.7152
L1029.87 -46.0085
L976.655 -46.3596
L923.44 -46.8173
L870.225 -47.0668
L817.01 -47.6719
L763.795 -48.738
L710.58 -49.8431
L657.365 -53.7308
L604.15 -61.1909
L550.935 -56.8438
L497.72 -59.0573
L444.505 -64.5482
L391.29 -76.1167
L338.075 -124.947
L284.86 -270.365
L231.645 -309.063
L178.43 -187.367
L125.215 -301.136
L72 -87.4431
z
" id="ma83686b15b" style="stroke:#000000;stroke-opacity:0.5;stroke-width:0.1;"/>
    </defs>
    <g clip-path="url(#p7ff5b81e1d)">
     <use style="fill:#ff0000;fill-opacity:0.5;stroke:#000000;stroke-opacity:0.5;stroke-width:0.1;" x="0.0" xlink:href="#ma83686b15b" y="432.0"/>
    </g>
   </g>
   <g id="PolyCollection_10">
    <defs>
     <path d="
M72 -89.8171
L72 -67.9364
L125.215 -212.503
L178.43 -148.234
L231.645 -223.974
L284.86 -190.61
L338.075 -91.104
L391.29 -63.4584
L444.505 -56.8024
L497.72 -52.9244
L550.935 -51.7015
L604.15 -54.4787
L657.365 -49.8318
L710.58 -47.0355
L763.795 -46.4439
L817.01 -45.9794
L870.225 -45.5332
L923.44 -45.2004
L976.655 -44.9002
L1029.87 -44.7337
L1083.09 -44.5487
L1136.3 -44.4532
L1189.52 -44.3619
L1242.73 -44.1744
L1295.95 -44.0397
L1349.16 -44.0238
L1402.38 -44.0141
L1455.59 -43.9575
L1508.81 -43.8779
L1562.02 -43.8017
L1615.24 -43.9437
L1615.24 -44.5491
L1615.24 -44.5491
L1562.02 -44.3931
L1508.81 -44.3758
L1455.59 -44.485
L1402.38 -44.5484
L1349.16 -44.6214
L1295.95 -44.8065
L1242.73 -45.0201
L1189.52 -45.2729
L1136.3 -45.4543
L1083.09 -45.588
L1029.87 -45.7514
L976.655 -46.0492
L923.44 -46.5564
L870.225 -47.14
L817.01 -47.9053
L763.795 -48.7962
L710.58 -50.2851
L657.365 -53.969
L604.15 -60.9816
L550.935 -57.4056
L497.72 -59.2267
L444.505 -66.3077
L391.29 -79.0077
L338.075 -123.174
L284.86 -251.766
L231.645 -304.551
L178.43 -196.243
L125.215 -309.642
L72 -89.8171
z
" id="mcec1bd5d18" style="stroke:#000000;stroke-opacity:0.5;stroke-width:0.1;"/>
    </defs>
    <g clip-path="url(#p7ff5b81e1d)">
     <use style="fill:#0000ff;fill-opacity:0.5;stroke:#000000;stroke-opacity:0.5;stroke-width:0.1;" x="0.0" xlink:href="#mcec1bd5d18" y="432.0"/>
    </g>
   </g>
   <g id="PolyCollection_11">
    <defs>
     <path d="
M72 -84.8771
L72 -64.983
L125.215 -178.317
L178.43 -139.803
L231.645 -175.69
L284.86 -160.356
L338.075 -106.159
L391.29 -85.5062
L444.505 -72.3918
L497.72 -63.8346
L550.935 -60.3166
L604.15 -61.1317
L657.365 -56.3997
L710.58 -53.7062
L763.795 -52.2233
L817.01 -50.8113
L870.225 -49.3871
L923.44 -49.0368
L976.655 -48.3255
L1029.87 -47.3368
L1083.09 -46.8479
L1136.3 -46.4307
L1189.52 -46.1367
L1242.73 -45.899
L1295.95 -45.7845
L1349.16 -45.516
L1402.38 -45.2772
L1455.59 -45.1762
L1508.81 -45.0686
L1562.02 -44.9027
L1615.24 -44.9768
L1615.24 -46.1013
L1615.24 -46.1013
L1562.02 -46.0871
L1508.81 -46.2378
L1455.59 -46.5716
L1402.38 -46.7433
L1349.16 -47.0175
L1295.95 -47.4948
L1242.73 -47.6171
L1189.52 -47.9543
L1136.3 -48.636
L1083.09 -49.3456
L1029.87 -50.424
L976.655 -51.2611
L923.44 -52.5345
L870.225 -53.7994
L817.01 -55.2853
L763.795 -57.6756
L710.58 -59.7505
L657.365 -64.5103
L604.15 -72.6259
L550.935 -70.4867
L497.72 -75.9445
L444.505 -89.3124
L391.29 -110.479
L338.075 -136.305
L284.86 -221.663
L231.645 -249.498
L178.43 -184.144
L125.215 -263.262
L72 -84.8771
z
" id="m5f67365e03" style="stroke:#000000;stroke-opacity:0.5;stroke-width:0.1;"/>
    </defs>
    <g clip-path="url(#p7ff5b81e1d)">
     <use style="fill:#ff0000;fill-opacity:0.5;stroke:#000000;stroke-opacity:0.5;stroke-width:0.1;" x="0.0" xlink:href="#m5f67365e03" y="432.0"/>
    </g>
   </g>
   <g id="PolyCollection_12">
    <defs>
     <path d="
M72 -86.9229
L72 -68.4172
L125.215 -194.776
L178.43 -146.215
L231.645 -175.501
L284.86 -153.685
L338.075 -104.999
L391.29 -87.2487
L444.505 -73.7028
L497.72 -63.9153
L550.935 -60.7904
L604.15 -62.7539
L657.365 -57.0437
L710.58 -53.9962
L763.795 -52.4366
L817.01 -51.2525
L870.225 -49.9251
L923.44 -49.0667
L976.655 -48.2752
L1029.87 -47.3747
L1083.09 -46.9806
L1136.3 -46.6917
L1189.52 -46.4155
L1242.73 -46.2233
L1295.95 -46.0412
L1349.16 -45.6718
L1402.38 -45.5875
L1455.59 -45.3549
L1508.81 -45.1589
L1562.02 -44.989
L1615.24 -45.0971
L1615.24 -46.4638
L1615.24 -46.4638
L1562.02 -46.3674
L1508.81 -46.5737
L1455.59 -46.7948
L1402.38 -47.0696
L1349.16 -47.3786
L1295.95 -47.5873
L1242.73 -47.9946
L1189.52 -48.3881
L1136.3 -48.8673
L1083.09 -49.7323
L1029.87 -50.3769
L976.655 -51.7147
L923.44 -53.5886
L870.225 -54.6475
L817.01 -55.9424
L763.795 -58.2287
L710.58 -60.4607
L657.365 -65.2708
L604.15 -74.2295
L550.935 -70.7588
L497.72 -77.6902
L444.505 -91.7261
L391.29 -111.275
L338.075 -135.901
L284.86 -198.519
L231.645 -233.593
L178.43 -190.825
L125.215 -256.701
L72 -86.9229
z
" id="m63226e0f14" style="stroke:#000000;stroke-opacity:0.5;stroke-width:0.1;"/>
    </defs>
    <g clip-path="url(#p7ff5b81e1d)">
     <use style="fill:#0000ff;fill-opacity:0.5;stroke:#000000;stroke-opacity:0.5;stroke-width:0.1;" x="0.0" xlink:href="#m63226e0f14" y="432.0"/>
    </g>
   </g>
   <g id="line2d_1">
    <path clip-path="url(#p7ff5b81e1d)" d="
M72 362.233
L125.215 246.732
L178.43 260.594
L231.645 172.284
L284.86 192.702
L338.075 306.522
L391.29 344.179
L444.505 355.482
L497.72 368.517
L550.935 373.646
L577 370.769" style="fill:none;stroke:#ff0000;stroke-linecap:square;"/>
   </g>
   <g id="line2d_2">
    <path clip-path="url(#p7ff5b81e1d)" d="
M72 359.342
L125.215 236.707
L178.43 253.722
L231.645 171.734
L284.86 207.288
L338.075 311.665
L391.29 344.577
L444.505 356.223
L497.72 369.074
L550.935 373.44
L577 370.663" style="fill:none;stroke:#0000ff;stroke-linecap:square;"/>
   </g>
   <g id="line2d_3">
    <path clip-path="url(#p7ff5b81e1d)" d="
M72 345.232
L125.215 101.475
L178.43 261.702
L231.645 237.361
L284.86 244.141
L338.075 318.385
L391.29 352.092
L444.505 366.674
L497.72 373.781
L550.935 375.886
L577 375.078" style="fill:none;stroke:#ff0000;stroke-linecap:square;"/>
   </g>
   <g id="line2d_4">
    <path clip-path="url(#p7ff5b81e1d)" d="
M72 341.207
L125.215 93.1388
L178.43 256.481
L231.645 246.661
L284.86 258.514
L338.075 319.029
L391.29 351.553
L444.505 365.215
L497.72 372.336
L550.935 374.965
L577 374.326" style="fill:none;stroke:#0000ff;stroke-linecap:square;"/>
   </g>
   <g id="line2d_5">
    <path clip-path="url(#p7ff5b81e1d)" d="
M72 357.808
L125.215 221.357
L178.43 275.588
L231.645 241.852
L284.86 265.294
L338.075 313.417
L391.29 326.835
L444.505 343.224
L497.72 357.589
L550.935 361.814
L577 362.015" style="fill:none;stroke:#ff0000;stroke-linecap:square;"/>
   </g>
   <g id="line2d_6">
    <path clip-path="url(#p7ff5b81e1d)" d="
M72 358.444
L125.215 228.74
L178.43 268.738
L231.645 243.986
L284.86 271.923
L338.075 310.589
L391.29 323.192
L444.505 340.788
L497.72 355.605
L550.935 361.996
L577 362.007" style="fill:none;stroke:#0000ff;stroke-linecap:square;"/>
   </g>
   <g id="line2d_7">
    <path clip-path="url(#p7ff5b81e1d)" d="
M72 352.252
L125.215 179.813
L178.43 262.358
L231.645 203.466
L284.86 215.461
L338.075 312.078
L391.29 350.855
L444.505 365.518
L497.72 372.138
L550.935 374.162
L577 372.667" style="fill:none;stroke:#ff0000;stroke-linecap:square;"/>
   </g>
   <g id="line2d_8">
    <path clip-path="url(#p7ff5b81e1d)" d="
M72 350.337
L125.215 167.727
L178.43 253.087
L231.645 214.144
L284.86 237.282
L338.075 314.368
L391.29 348.714
L444.505 363.518
L497.72 371.05
L550.935 372.948
L577 370.879" style="fill:none;stroke:#0000ff;stroke-linecap:square;"/>
   </g>
   <g id="line2d_9">
    <path clip-path="url(#p7ff5b81e1d)" d="
M72 355.152
L125.215 177.858
L178.43 267.239
L231.645 168.297
L284.86 193.826
L338.075 320.995
L391.29 362.249
L444.505 371.382
L497.72 375.929
L550.935 378.042
L577 376.368" style="fill:none;stroke:#ff0000;stroke-linecap:square;"/>
   </g>
   <g id="line2d_10">
    <path clip-path="url(#p7ff5b81e1d)" d="
M72 353.123
L125.215 170.927
L178.43 259.762
L231.645 167.737
L284.86 210.812
L338.075 324.861
L391.29 360.767
L444.505 370.445
L497.72 375.924
L550.935 377.446
L577 375.891" style="fill:none;stroke:#0000ff;stroke-linecap:square;"/>
   </g>
   <g id="line2d_11">
    <path clip-path="url(#p7ff5b81e1d)" d="
M72 357.07
L125.215 211.21
L178.43 270.027
L231.645 219.406
L284.86 240.99
L338.075 310.768
L391.29 334.007
L444.505 351.148
L497.72 362.11
L550.935 366.598
L577 365.875" style="fill:none;stroke:#ff0000;stroke-linecap:square;"/>
   </g>
   <g id="line2d_12">
    <path clip-path="url(#p7ff5b81e1d)" d="
M72 354.33
L125.215 206.262
L178.43 263.48
L231.645 227.453
L284.86 255.898
L338.075 311.55
L391.29 332.738
L444.505 349.286
L497.72 361.197
L550.935 366.225
L577 364.895" style="fill:none;stroke:#0000ff;stroke-linecap:square;"/>
   </g>
   <g id="patch_3">
    <path d="
M72 43.2
L518.4 43.2" style="fill:none;stroke:#000000;stroke-linecap:square;stroke-linejoin:miter;"/>
   </g>
   <g id="patch_4">
    <path d="
M518.4 388.8
L518.4 43.2" style="fill:none;stroke:#000000;stroke-linecap:square;stroke-linejoin:miter;"/>
   </g>
   <g id="patch_5">
    <path d="
M72 388.8
L518.4 388.8" style="fill:none;stroke:#000000;stroke-linecap:square;stroke-linejoin:miter;"/>
   </g>
   <g id="patch_6">
    <path d="
M72 388.8
L72 43.2" style="fill:none;stroke:#000000;stroke-linecap:square;stroke-linejoin:miter;"/>
   </g>
   <g id="matplotlib.axis_1">
    <g id="xtick_1">
     <g id="line2d_13">
      <defs>
       <path d="
M0 0
L0 -4" id="m93b0483c22" style="stroke:#000000;stroke-width:0.5;"/>
      </defs>
      <g>
       <use style="stroke:#000000;stroke-width:0.5;" x="72.0" xlink:href="#m93b0483c22" y="388.8"/>
      </g>
     </g>
     <g id="line2d_14">
      <defs>
       <path d="
M0 0
L0 4" id="m741efc42ff" style="stroke:#000000;stroke-width:0.5;"/>
      </defs>
      <g>
       <use style="stroke:#000000;stroke-width:0.5;" x="72.0" xlink:href="#m741efc42ff" y="43.2"/>
      </g>
     </g>
     <g id="text_1">
      <!-- 0 -->
      <defs>
       <path d="
M31.7812 66.4062
Q24.1719 66.4062 20.3281 58.9062
Q16.5 51.4219 16.5 36.375
Q16.5 21.3906 20.3281 13.8906
Q24.1719 6.39062 31.7812 6.39062
Q39.4531 6.39062 43.2812 13.8906
Q47.125 21.3906 47.125 36.375
Q47.125 51.4219 43.2812 58.9062
Q39.4531 66.4062 31.7812 66.4062
M31.7812 74.2188
Q44.0469 74.2188 50.5156 64.5156
Q56.9844 54.8281 56.9844 36.375
Q56.9844 17.9688 50.5156 8.26562
Q44.0469 -1.42188 31.7812 -1.42188
Q19.5312 -1.42188 13.0625 8.26562
Q6.59375 17.9688 6.59375 36.375
Q6.59375 54.8281 13.0625 64.5156
Q19.5312 74.2188 31.7812 74.2188" id="BitstreamVeraSans-Roman-30"/>
      </defs>
      <g transform="translate(68.9765625 401.918125)scale(0.12 -0.12)">
       <use xlink:href="#BitstreamVeraSans-Roman-30"/>
      </g>
     </g>
    </g>
    <g id="xtick_2">
     <g id="line2d_15">
      <g>
       <use style="stroke:#000000;stroke-width:0.5;" x="161.28" xlink:href="#m93b0483c22" y="388.8"/>
      </g>
     </g>
     <g id="line2d_16">
      <g>
       <use style="stroke:#000000;stroke-width:0.5;" x="161.28" xlink:href="#m741efc42ff" y="43.2"/>
      </g>
     </g>
     <g id="text_2">
      <!-- 10 -->
      <defs>
       <path d="
M12.4062 8.29688
L28.5156 8.29688
L28.5156 63.9219
L10.9844 60.4062
L10.9844 69.3906
L28.4219 72.9062
L38.2812 72.9062
L38.2812 8.29688
L54.3906 8.29688
L54.3906 0
L12.4062 0
z
" id="BitstreamVeraSans-Roman-31"/>
      </defs>
      <g transform="translate(154.7025 401.918125)scale(0.12 -0.12)">
       <use xlink:href="#BitstreamVeraSans-Roman-31"/>
       <use x="63.623046875" xlink:href="#BitstreamVeraSans-Roman-30"/>
      </g>
     </g>
    </g>
    <g id="xtick_3">
     <g id="line2d_17">
      <g>
       <use style="stroke:#000000;stroke-width:0.5;" x="250.56" xlink:href="#m93b0483c22" y="388.8"/>
      </g>
     </g>
     <g id="line2d_18">
      <g>
       <use style="stroke:#000000;stroke-width:0.5;" x="250.56" xlink:href="#m741efc42ff" y="43.2"/>
      </g>
     </g>
     <g id="text_3">
      <!-- 20 -->
      <defs>
       <path d="
M19.1875 8.29688
L53.6094 8.29688
L53.6094 0
L7.32812 0
L7.32812 8.29688
Q12.9375 14.1094 22.625 23.8906
Q32.3281 33.6875 34.8125 36.5312
Q39.5469 41.8438 41.4219 45.5312
Q43.3125 49.2188 43.3125 52.7812
Q43.3125 58.5938 39.2344 62.25
Q35.1562 65.9219 28.6094 65.9219
Q23.9688 65.9219 18.8125 64.3125
Q13.6719 62.7031 7.8125 59.4219
L7.8125 69.3906
Q13.7656 71.7812 18.9375 73
Q24.125 74.2188 28.4219 74.2188
Q39.75 74.2188 46.4844 68.5469
Q53.2188 62.8906 53.2188 53.4219
Q53.2188 48.9219 51.5312 44.8906
Q49.8594 40.875 45.4062 35.4062
Q44.1875 33.9844 37.6406 27.2188
Q31.1094 20.4531 19.1875 8.29688" id="BitstreamVeraSans-Roman-32"/>
      </defs>
      <g transform="translate(243.763125 401.918125)scale(0.12 -0.12)">
       <use xlink:href="#BitstreamVeraSans-Roman-32"/>
       <use x="63.623046875" xlink:href="#BitstreamVeraSans-Roman-30"/>
      </g>
     </g>
    </g>
    <g id="xtick_4">
     <g id="line2d_19">
      <g>
       <use style="stroke:#000000;stroke-width:0.5;" x="339.84" xlink:href="#m93b0483c22" y="388.8"/>
      </g>
     </g>
     <g id="line2d_20">
      <g>
       <use style="stroke:#000000;stroke-width:0.5;" x="339.84" xlink:href="#m741efc42ff" y="43.2"/>
      </g>
     </g>
     <g id="text_4">
      <!-- 30 -->
      <defs>
       <path d="
M40.5781 39.3125
Q47.6562 37.7969 51.625 33
Q55.6094 28.2188 55.6094 21.1875
Q55.6094 10.4062 48.1875 4.48438
Q40.7656 -1.42188 27.0938 -1.42188
Q22.5156 -1.42188 17.6562 -0.515625
Q12.7969 0.390625 7.625 2.20312
L7.625 11.7188
Q11.7188 9.32812 16.5938 8.10938
Q21.4844 6.89062 26.8125 6.89062
Q36.0781 6.89062 40.9375 10.5469
Q45.7969 14.2031 45.7969 21.1875
Q45.7969 27.6406 41.2812 31.2656
Q36.7656 34.9062 28.7188 34.9062
L20.2188 34.9062
L20.2188 43.0156
L29.1094 43.0156
Q36.375 43.0156 40.2344 45.9219
Q44.0938 48.8281 44.0938 54.2969
Q44.0938 59.9062 40.1094 62.9062
Q36.1406 65.9219 28.7188 65.9219
Q24.6562 65.9219 20.0156 65.0312
Q15.375 64.1562 9.8125 62.3125
L9.8125 71.0938
Q15.4375 72.6562 20.3438 73.4375
Q25.25 74.2188 29.5938 74.2188
Q40.8281 74.2188 47.3594 69.1094
Q53.9062 64.0156 53.9062 55.3281
Q53.9062 49.2656 50.4375 45.0938
Q46.9688 40.9219 40.5781 39.3125" id="BitstreamVeraSans-Roman-33"/>
      </defs>
      <g transform="translate(333.0609375 401.918125)scale(0.12 -0.12)">
       <use xlink:href="#BitstreamVeraSans-Roman-33"/>
       <use x="63.623046875" xlink:href="#BitstreamVeraSans-Roman-30"/>
      </g>
     </g>
    </g>
    <g id="xtick_5">
     <g id="line2d_21">
      <g>
       <use style="stroke:#000000;stroke-width:0.5;" x="429.12" xlink:href="#m93b0483c22" y="388.8"/>
      </g>
     </g>
     <g id="line2d_22">
      <g>
       <use style="stroke:#000000;stroke-width:0.5;" x="429.12" xlink:href="#m741efc42ff" y="43.2"/>
      </g>
     </g>
     <g id="text_5">
      <!-- 40 -->
      <defs>
       <path d="
M37.7969 64.3125
L12.8906 25.3906
L37.7969 25.3906
z

M35.2031 72.9062
L47.6094 72.9062
L47.6094 25.3906
L58.0156 25.3906
L58.0156 17.1875
L47.6094 17.1875
L47.6094 0
L37.7969 0
L37.7969 17.1875
L4.89062 17.1875
L4.89062 26.7031
z
" id="BitstreamVeraSans-Roman-34"/>
      </defs>
      <g transform="translate(422.176875 401.918125)scale(0.12 -0.12)">
       <use xlink:href="#BitstreamVeraSans-Roman-34"/>
       <use x="63.623046875" xlink:href="#BitstreamVeraSans-Roman-30"/>
      </g>
     </g>
    </g>
    <g id="xtick_6">
     <g id="line2d_23">
      <g>
       <use style="stroke:#000000;stroke-width:0.5;" x="518.4" xlink:href="#m93b0483c22" y="388.8"/>
      </g>
     </g>
     <g id="line2d_24">
      <g>
       <use style="stroke:#000000;stroke-width:0.5;" x="518.4" xlink:href="#m741efc42ff" y="43.2"/>
      </g>
     </g>
     <g id="text_6">
      <!-- 50 -->
      <defs>
       <path d="
M10.7969 72.9062
L49.5156 72.9062
L49.5156 64.5938
L19.8281 64.5938
L19.8281 46.7344
Q21.9688 47.4688 24.1094 47.8281
Q26.2656 48.1875 28.4219 48.1875
Q40.625 48.1875 47.75 41.5
Q54.8906 34.8125 54.8906 23.3906
Q54.8906 11.625 47.5625 5.09375
Q40.2344 -1.42188 26.9062 -1.42188
Q22.3125 -1.42188 17.5469 -0.640625
Q12.7969 0.140625 7.71875 1.70312
L7.71875 11.625
Q12.1094 9.23438 16.7969 8.0625
Q21.4844 6.89062 26.7031 6.89062
Q35.1562 6.89062 40.0781 11.3281
Q45.0156 15.7656 45.0156 23.3906
Q45.0156 31 40.0781 35.4375
Q35.1562 39.8906 26.7031 39.8906
Q22.75 39.8906 18.8125 39.0156
Q14.8906 38.1406 10.7969 36.2812
z
" id="BitstreamVeraSans-Roman-35"/>
      </defs>
      <g transform="translate(511.6265625 401.918125)scale(0.12 -0.12)">
       <use xlink:href="#BitstreamVeraSans-Roman-35"/>
       <use x="63.623046875" xlink:href="#BitstreamVeraSans-Roman-30"/>
      </g>
     </g>
    </g>
    <g id="text_7">
     <!-- Freq (Hz) -->
     <defs>
      <path id="BitstreamVeraSans-Roman-20"/>
      <path d="
M8.01562 75.875
L15.8281 75.875
Q23.1406 64.3594 26.7812 53.3125
Q30.4219 42.2812 30.4219 31.3906
Q30.4219 20.4531 26.7812 9.375
Q23.1406 -1.70312 15.8281 -13.1875
L8.01562 -13.1875
Q14.5 -2 17.7031 9.0625
Q20.9062 20.125 20.9062 31.3906
Q20.9062 42.6719 17.7031 53.6562
Q14.5 64.6562 8.01562 75.875" id="BitstreamVeraSans-Roman-29"/>
      <path d="
M31 75.875
Q24.4688 64.6562 21.2812 53.6562
Q18.1094 42.6719 18.1094 31.3906
Q18.1094 20.125 21.3125 9.0625
Q24.5156 -2 31 -13.1875
L23.1875 -13.1875
Q15.875 -1.70312 12.2344 9.375
Q8.59375 20.4531 8.59375 31.3906
Q8.59375 42.2812 12.2031 53.3125
Q15.8281 64.3594 23.1875 75.875
z
" id="BitstreamVeraSans-Roman-28"/>
      <path d="
M5.51562 54.6875
L48.1875 54.6875
L48.1875 46.4844
L14.4062 7.17188
L48.1875 7.17188
L48.1875 0
L4.29688 0
L4.29688 8.20312
L38.0938 47.5156
L5.51562 47.5156
z
" id="BitstreamVeraSans-Roman-7a"/>
      <path d="
M9.8125 72.9062
L51.7031 72.9062
L51.7031 64.5938
L19.6719 64.5938
L19.6719 43.1094
L48.5781 43.1094
L48.5781 34.8125
L19.6719 34.8125
L19.6719 0
L9.8125 0
z
" id="BitstreamVeraSans-Roman-46"/>
      <path d="
M56.2031 29.5938
L56.2031 25.2031
L14.8906 25.2031
Q15.4844 15.9219 20.4844 11.0625
Q25.4844 6.20312 34.4219 6.20312
Q39.5938 6.20312 44.4531 7.46875
Q49.3125 8.73438 54.1094 11.2812
L54.1094 2.78125
Q49.2656 0.734375 44.1875 -0.34375
Q39.1094 -1.42188 33.8906 -1.42188
Q20.7969 -1.42188 13.1562 6.1875
Q5.51562 13.8125 5.51562 26.8125
Q5.51562 40.2344 12.7656 48.1094
Q20.0156 56 32.3281 56
Q43.3594 56 49.7812 48.8906
Q56.2031 41.7969 56.2031 29.5938
M47.2188 32.2344
Q47.125 39.5938 43.0938 43.9844
Q39.0625 48.3906 32.4219 48.3906
Q24.9062 48.3906 20.3906 44.1406
Q15.875 39.8906 15.1875 32.1719
z
" id="BitstreamVeraSans-Roman-65"/>
      <path d="
M9.8125 72.9062
L19.6719 72.9062
L19.6719 43.0156
L55.5156 43.0156
L55.5156 72.9062
L65.375 72.9062
L65.375 0
L55.5156 0
L55.5156 34.7188
L19.6719 34.7188
L19.6719 0
L9.8125 0
z
" id="BitstreamVeraSans-Roman-48"/>
      <path d="
M41.1094 46.2969
Q39.5938 47.1719 37.8125 47.5781
Q36.0312 48 33.8906 48
Q26.2656 48 22.1875 43.0469
Q18.1094 38.0938 18.1094 28.8125
L18.1094 0
L9.07812 0
L9.07812 54.6875
L18.1094 54.6875
L18.1094 46.1875
Q20.9531 51.1719 25.4844 53.5781
Q30.0312 56 36.5312 56
Q37.4531 56 38.5781 55.875
Q39.7031 55.7656 41.0625 55.5156
z
" id="BitstreamVeraSans-Roman-72"/>
      <path d="
M14.7969 27.2969
Q14.7969 17.3906 18.875 11.75
Q22.9531 6.10938 30.0781 6.10938
Q37.2031 6.10938 41.2969 11.75
Q45.4062 17.3906 45.4062 27.2969
Q45.4062 37.2031 41.2969 42.8438
Q37.2031 48.4844 30.0781 48.4844
Q22.9531 48.4844 18.875 42.8438
Q14.7969 37.2031 14.7969 27.2969
M45.4062 8.20312
Q42.5781 3.32812 38.25 0.953125
Q33.9375 -1.42188 27.875 -1.42188
Q17.9688 -1.42188 11.7344 6.48438
Q5.51562 14.4062 5.51562 27.2969
Q5.51562 40.1875 11.7344 48.0938
Q17.9688 56 27.875 56
Q33.9375 56 38.25 53.625
Q42.5781 51.2656 45.4062 46.3906
L45.4062 54.6875
L54.3906 54.6875
L54.3906 -20.7969
L45.4062 -20.7969
z
" id="BitstreamVeraSans-Roman-71"/>
     </defs>
     <g transform="translate(268.6171875 418.531875)scale(0.12 -0.12)">
      <use xlink:href="#BitstreamVeraSans-Roman-46"/>
      <use x="50.26953125" xlink:href="#BitstreamVeraSans-Roman-72"/>
      <use x="89.1328125" xlink:href="#BitstreamVeraSans-Roman-65"/>
      <use x="150.65625" xlink:href="#BitstreamVeraSans-Roman-71"/>
      <use x="214.1328125" xlink:href="#BitstreamVeraSans-Roman-20"/>
      <use x="245.919921875" xlink:href="#BitstreamVeraSans-Roman-28"/>
      <use x="284.93359375" xlink:href="#BitstreamVeraSans-Roman-48"/>
      <use x="360.12890625" xlink:href="#BitstreamVeraSans-Roman-7a"/>
      <use x="412.619140625" xlink:href="#BitstreamVeraSans-Roman-29"/>
     </g>
    </g>
   </g>
   <g id="matplotlib.axis_2">
    <g id="ytick_1">
     <g id="line2d_25">
      <defs>
       <path d="
M0 0
L4 0" id="m728421d6d4" style="stroke:#000000;stroke-width:0.5;"/>
      </defs>
      <g>
       <use style="stroke:#000000;stroke-width:0.5;" x="72.0" xlink:href="#m728421d6d4" y="388.8"/>
      </g>
     </g>
     <g id="line2d_26">
      <defs>
       <path d="
M0 0
L-4 0" id="mcb0005524f" style="stroke:#000000;stroke-width:0.5;"/>
      </defs>
      <g>
       <use style="stroke:#000000;stroke-width:0.5;" x="518.4" xlink:href="#mcb0005524f" y="388.8"/>
      </g>
     </g>
     <g id="text_8">
      <!-- 0.00 -->
      <defs>
       <path d="
M10.6875 12.4062
L21 12.4062
L21 0
L10.6875 0
z
" id="BitstreamVeraSans-Roman-2e"/>
      </defs>
      <g transform="translate(42.869375 392.11125)scale(0.12 -0.12)">
       <use xlink:href="#BitstreamVeraSans-Roman-30"/>
       <use x="63.623046875" xlink:href="#BitstreamVeraSans-Roman-2e"/>
       <use x="95.41015625" xlink:href="#BitstreamVeraSans-Roman-30"/>
       <use x="159.033203125" xlink:href="#BitstreamVeraSans-Roman-30"/>
      </g>
     </g>
    </g>
    <g id="ytick_2">
     <g id="line2d_27">
      <g>
       <use style="stroke:#000000;stroke-width:0.5;" x="72.0" xlink:href="#m728421d6d4" y="350.4"/>
      </g>
     </g>
     <g id="line2d_28">
      <g>
       <use style="stroke:#000000;stroke-width:0.5;" x="518.4" xlink:href="#mcb0005524f" y="350.4"/>
      </g>
     </g>
     <g id="text_9">
      <!-- 0.02 -->
      <g transform="translate(43.274375 353.71125)scale(0.12 -0.12)">
       <use xlink:href="#BitstreamVeraSans-Roman-30"/>
       <use x="63.623046875" xlink:href="#BitstreamVeraSans-Roman-2e"/>
       <use x="95.41015625" xlink:href="#BitstreamVeraSans-Roman-30"/>
       <use x="159.033203125" xlink:href="#BitstreamVeraSans-Roman-32"/>
      </g>
     </g>
    </g>
    <g id="ytick_3">
     <g id="line2d_29">
      <g>
       <use style="stroke:#000000;stroke-width:0.5;" x="72.0" xlink:href="#m728421d6d4" y="312.0"/>
      </g>
     </g>
     <g id="line2d_30">
      <g>
       <use style="stroke:#000000;stroke-width:0.5;" x="518.4" xlink:href="#mcb0005524f" y="312.0"/>
      </g>
     </g>
     <g id="text_10">
      <!-- 0.04 -->
      <g transform="translate(42.745625 315.31125)scale(0.12 -0.12)">
       <use xlink:href="#BitstreamVeraSans-Roman-30"/>
       <use x="63.623046875" xlink:href="#BitstreamVeraSans-Roman-2e"/>
       <use x="95.41015625" xlink:href="#BitstreamVeraSans-Roman-30"/>
       <use x="159.033203125" xlink:href="#BitstreamVeraSans-Roman-34"/>
      </g>
     </g>
    </g>
    <g id="ytick_4">
     <g id="line2d_31">
      <g>
       <use style="stroke:#000000;stroke-width:0.5;" x="72.0" xlink:href="#m728421d6d4" y="273.6"/>
      </g>
     </g>
     <g id="line2d_32">
      <g>
       <use style="stroke:#000000;stroke-width:0.5;" x="518.4" xlink:href="#mcb0005524f" y="273.6"/>
      </g>
     </g>
     <g id="text_11">
      <!-- 0.06 -->
      <defs>
       <path d="
M33.0156 40.375
Q26.375 40.375 22.4844 35.8281
Q18.6094 31.2969 18.6094 23.3906
Q18.6094 15.5312 22.4844 10.9531
Q26.375 6.39062 33.0156 6.39062
Q39.6562 6.39062 43.5312 10.9531
Q47.4062 15.5312 47.4062 23.3906
Q47.4062 31.2969 43.5312 35.8281
Q39.6562 40.375 33.0156 40.375
M52.5938 71.2969
L52.5938 62.3125
Q48.875 64.0625 45.0938 64.9844
Q41.3125 65.9219 37.5938 65.9219
Q27.8281 65.9219 22.6719 59.3281
Q17.5312 52.7344 16.7969 39.4062
Q19.6719 43.6562 24.0156 45.9219
Q28.375 48.1875 33.5938 48.1875
Q44.5781 48.1875 50.9531 41.5156
Q57.3281 34.8594 57.3281 23.3906
Q57.3281 12.1562 50.6875 5.35938
Q44.0469 -1.42188 33.0156 -1.42188
Q20.3594 -1.42188 13.6719 8.26562
Q6.98438 17.9688 6.98438 36.375
Q6.98438 53.6562 15.1875 63.9375
Q23.3906 74.2188 37.2031 74.2188
Q40.9219 74.2188 44.7031 73.4844
Q48.4844 72.75 52.5938 71.2969" id="BitstreamVeraSans-Roman-36"/>
      </defs>
      <g transform="translate(42.828125 276.91125)scale(0.12 -0.12)">
       <use xlink:href="#BitstreamVeraSans-Roman-30"/>
       <use x="63.623046875" xlink:href="#BitstreamVeraSans-Roman-2e"/>
       <use x="95.41015625" xlink:href="#BitstreamVeraSans-Roman-30"/>
       <use x="159.033203125" xlink:href="#BitstreamVeraSans-Roman-36"/>
      </g>
     </g>
    </g>
    <g id="ytick_5">
     <g id="line2d_33">
      <g>
       <use style="stroke:#000000;stroke-width:0.5;" x="72.0" xlink:href="#m728421d6d4" y="235.2"/>
      </g>
     </g>
     <g id="line2d_34">
      <g>
       <use style="stroke:#000000;stroke-width:0.5;" x="518.4" xlink:href="#mcb0005524f" y="235.2"/>
      </g>
     </g>
     <g id="text_12">
      <!-- 0.08 -->
      <defs>
       <path d="
M31.7812 34.625
Q24.75 34.625 20.7188 30.8594
Q16.7031 27.0938 16.7031 20.5156
Q16.7031 13.9219 20.7188 10.1562
Q24.75 6.39062 31.7812 6.39062
Q38.8125 6.39062 42.8594 10.1719
Q46.9219 13.9688 46.9219 20.5156
Q46.9219 27.0938 42.8906 30.8594
Q38.875 34.625 31.7812 34.625
M21.9219 38.8125
Q15.5781 40.375 12.0312 44.7188
Q8.5 49.0781 8.5 55.3281
Q8.5 64.0625 14.7188 69.1406
Q20.9531 74.2188 31.7812 74.2188
Q42.6719 74.2188 48.875 69.1406
Q55.0781 64.0625 55.0781 55.3281
Q55.0781 49.0781 51.5312 44.7188
Q48 40.375 41.7031 38.8125
Q48.8281 37.1562 52.7969 32.3125
Q56.7812 27.4844 56.7812 20.5156
Q56.7812 9.90625 50.3125 4.23438
Q43.8438 -1.42188 31.7812 -1.42188
Q19.7344 -1.42188 13.25 4.23438
Q6.78125 9.90625 6.78125 20.5156
Q6.78125 27.4844 10.7812 32.3125
Q14.7969 37.1562 21.9219 38.8125
M18.3125 54.3906
Q18.3125 48.7344 21.8438 45.5625
Q25.3906 42.3906 31.7812 42.3906
Q38.1406 42.3906 41.7188 45.5625
Q45.3125 48.7344 45.3125 54.3906
Q45.3125 60.0625 41.7188 63.2344
Q38.1406 66.4062 31.7812 66.4062
Q25.3906 66.4062 21.8438 63.2344
Q18.3125 60.0625 18.3125 54.3906" id="BitstreamVeraSans-Roman-38"/>
      </defs>
      <g transform="translate(42.89375 238.51125)scale(0.12 -0.12)">
       <use xlink:href="#BitstreamVeraSans-Roman-30"/>
       <use x="63.623046875" xlink:href="#BitstreamVeraSans-Roman-2e"/>
       <use x="95.41015625" xlink:href="#BitstreamVeraSans-Roman-30"/>
       <use x="159.033203125" xlink:href="#BitstreamVeraSans-Roman-38"/>
      </g>
     </g>
    </g>
    <g id="ytick_6">
     <g id="line2d_35">
      <g>
       <use style="stroke:#000000;stroke-width:0.5;" x="72.0" xlink:href="#m728421d6d4" y="196.8"/>
      </g>
     </g>
     <g id="line2d_36">
      <g>
       <use style="stroke:#000000;stroke-width:0.5;" x="518.4" xlink:href="#mcb0005524f" y="196.8"/>
      </g>
     </g>
     <g id="text_13">
      <!-- 0.10 -->
      <g transform="translate(42.869375 200.11125)scale(0.12 -0.12)">
       <use xlink:href="#BitstreamVeraSans-Roman-30"/>
       <use x="63.623046875" xlink:href="#BitstreamVeraSans-Roman-2e"/>
       <use x="95.41015625" xlink:href="#BitstreamVeraSans-Roman-31"/>
       <use x="159.033203125" xlink:href="#BitstreamVeraSans-Roman-30"/>
      </g>
     </g>
    </g>
    <g id="ytick_7">
     <g id="line2d_37">
      <g>
       <use style="stroke:#000000;stroke-width:0.5;" x="72.0" xlink:href="#m728421d6d4" y="158.4"/>
      </g>
     </g>
     <g id="line2d_38">
      <g>
       <use style="stroke:#000000;stroke-width:0.5;" x="518.4" xlink:href="#mcb0005524f" y="158.4"/>
      </g>
     </g>
     <g id="text_14">
      <!-- 0.12 -->
      <g transform="translate(43.274375 161.71125)scale(0.12 -0.12)">
       <use xlink:href="#BitstreamVeraSans-Roman-30"/>
       <use x="63.623046875" xlink:href="#BitstreamVeraSans-Roman-2e"/>
       <use x="95.41015625" xlink:href="#BitstreamVeraSans-Roman-31"/>
       <use x="159.033203125" xlink:href="#BitstreamVeraSans-Roman-32"/>
      </g>
     </g>
    </g>
    <g id="ytick_8">
     <g id="line2d_39">
      <g>
       <use style="stroke:#000000;stroke-width:0.5;" x="72.0" xlink:href="#m728421d6d4" y="120.0"/>
      </g>
     </g>
     <g id="line2d_40">
      <g>
       <use style="stroke:#000000;stroke-width:0.5;" x="518.4" xlink:href="#mcb0005524f" y="120.0"/>
      </g>
     </g>
     <g id="text_15">
      <!-- 0.14 -->
      <g transform="translate(42.745625 123.31125)scale(0.12 -0.12)">
       <use xlink:href="#BitstreamVeraSans-Roman-30"/>
       <use x="63.623046875" xlink:href="#BitstreamVeraSans-Roman-2e"/>
       <use x="95.41015625" xlink:href="#BitstreamVeraSans-Roman-31"/>
       <use x="159.033203125" xlink:href="#BitstreamVeraSans-Roman-34"/>
      </g>
     </g>
    </g>
    <g id="ytick_9">
     <g id="line2d_41">
      <g>
       <use style="stroke:#000000;stroke-width:0.5;" x="72.0" xlink:href="#m728421d6d4" y="81.6"/>
      </g>
     </g>
     <g id="line2d_42">
      <g>
       <use style="stroke:#000000;stroke-width:0.5;" x="518.4" xlink:href="#mcb0005524f" y="81.6"/>
      </g>
     </g>
     <g id="text_16">
      <!-- 0.16 -->
      <g transform="translate(42.828125 84.91125)scale(0.12 -0.12)">
       <use xlink:href="#BitstreamVeraSans-Roman-30"/>
       <use x="63.623046875" xlink:href="#BitstreamVeraSans-Roman-2e"/>
       <use x="95.41015625" xlink:href="#BitstreamVeraSans-Roman-31"/>
       <use x="159.033203125" xlink:href="#BitstreamVeraSans-Roman-36"/>
      </g>
     </g>
    </g>
    <g id="ytick_10">
     <g id="line2d_43">
      <g>
       <use style="stroke:#000000;stroke-width:0.5;" x="72.0" xlink:href="#m728421d6d4" y="43.2"/>
      </g>
     </g>
     <g id="line2d_44">
      <g>
       <use style="stroke:#000000;stroke-width:0.5;" x="518.4" xlink:href="#mcb0005524f" y="43.2"/>
      </g>
     </g>
     <g id="text_17">
      <!-- 0.18 -->
      <g transform="translate(42.89375 46.51125)scale(0.12 -0.12)">
       <use xlink:href="#BitstreamVeraSans-Roman-30"/>
       <use x="63.623046875" xlink:href="#BitstreamVeraSans-Roman-2e"/>
       <use x="95.41015625" xlink:href="#BitstreamVeraSans-Roman-31"/>
       <use x="159.033203125" xlink:href="#BitstreamVeraSans-Roman-38"/>
      </g>
     </g>
    </g>
    <g id="text_18">
     <!-- Normalized PSD -->
     <defs>
      <path d="
M9.8125 72.9062
L23.0938 72.9062
L55.4219 11.9219
L55.4219 72.9062
L64.9844 72.9062
L64.9844 0
L51.7031 0
L19.3906 60.9844
L19.3906 0
L9.8125 0
z
" id="BitstreamVeraSans-Roman-4e"/>
      <path d="
M52 44.1875
Q55.375 50.25 60.0625 53.125
Q64.75 56 71.0938 56
Q79.6406 56 84.2812 50.0156
Q88.9219 44.0469 88.9219 33.0156
L88.9219 0
L79.8906 0
L79.8906 32.7188
Q79.8906 40.5781 77.0938 44.375
Q74.3125 48.1875 68.6094 48.1875
Q61.625 48.1875 57.5625 43.5469
Q53.5156 38.9219 53.5156 30.9062
L53.5156 0
L44.4844 0
L44.4844 32.7188
Q44.4844 40.625 41.7031 44.4062
Q38.9219 48.1875 33.1094 48.1875
Q26.2188 48.1875 22.1562 43.5312
Q18.1094 38.875 18.1094 30.9062
L18.1094 0
L9.07812 0
L9.07812 54.6875
L18.1094 54.6875
L18.1094 46.1875
Q21.1875 51.2188 25.4844 53.6094
Q29.7812 56 35.6875 56
Q41.6562 56 45.8281 52.9688
Q50 49.9531 52 44.1875" id="BitstreamVeraSans-Roman-6d"/>
      <path d="
M30.6094 48.3906
Q23.3906 48.3906 19.1875 42.75
Q14.9844 37.1094 14.9844 27.2969
Q14.9844 17.4844 19.1562 11.8438
Q23.3438 6.20312 30.6094 6.20312
Q37.7969 6.20312 41.9844 11.8594
Q46.1875 17.5312 46.1875 27.2969
Q46.1875 37.0156 41.9844 42.7031
Q37.7969 48.3906 30.6094 48.3906
M30.6094 56
Q42.3281 56 49.0156 48.375
Q55.7188 40.7656 55.7188 27.2969
Q55.7188 13.875 49.0156 6.21875
Q42.3281 -1.42188 30.6094 -1.42188
Q18.8438 -1.42188 12.1719 6.21875
Q5.51562 13.875 5.51562 27.2969
Q5.51562 40.7656 12.1719 48.375
Q18.8438 56 30.6094 56" id="BitstreamVeraSans-Roman-6f"/>
      <path d="
M9.42188 75.9844
L18.4062 75.9844
L18.4062 0
L9.42188 0
z
" id="BitstreamVeraSans-Roman-6c"/>
      <path d="
M19.6719 64.7969
L19.6719 37.4062
L32.0781 37.4062
Q38.9688 37.4062 42.7188 40.9688
Q46.4844 44.5312 46.4844 51.125
Q46.4844 57.6719 42.7188 61.2344
Q38.9688 64.7969 32.0781 64.7969
z

M9.8125 72.9062
L32.0781 72.9062
Q44.3438 72.9062 50.6094 67.3594
Q56.8906 61.8125 56.8906 51.125
Q56.8906 40.3281 50.6094 34.8125
Q44.3438 29.2969 32.0781 29.2969
L19.6719 29.2969
L19.6719 0
L9.8125 0
z
" id="BitstreamVeraSans-Roman-50"/>
      <path d="
M19.6719 64.7969
L19.6719 8.10938
L31.5938 8.10938
Q46.6875 8.10938 53.6875 14.9375
Q60.6875 21.7812 60.6875 36.5312
Q60.6875 51.1719 53.6875 57.9844
Q46.6875 64.7969 31.5938 64.7969
z

M9.8125 72.9062
L30.0781 72.9062
Q51.2656 72.9062 61.1719 64.0938
Q71.0938 55.2812 71.0938 36.5312
Q71.0938 17.6719 61.125 8.82812
Q51.1719 0 30.0781 0
L9.8125 0
z
" id="BitstreamVeraSans-Roman-44"/>
      <path d="
M53.5156 70.5156
L53.5156 60.8906
Q47.9062 63.5781 42.9219 64.8906
Q37.9375 66.2188 33.2969 66.2188
Q25.25 66.2188 20.875 63.0938
Q16.5 59.9688 16.5 54.2031
Q16.5 49.3594 19.4062 46.8906
Q22.3125 44.4375 30.4219 42.9219
L36.375 41.7031
Q47.4062 39.5938 52.6562 34.2969
Q57.9062 29 57.9062 20.125
Q57.9062 9.51562 50.7969 4.04688
Q43.7031 -1.42188 29.9844 -1.42188
Q24.8125 -1.42188 18.9688 -0.25
Q13.1406 0.921875 6.89062 3.21875
L6.89062 13.375
Q12.8906 10.0156 18.6562 8.29688
Q24.4219 6.59375 29.9844 6.59375
Q38.4219 6.59375 43.0156 9.90625
Q47.6094 13.2344 47.6094 19.3906
Q47.6094 24.75 44.3125 27.7812
Q41.0156 30.8125 33.5 32.3281
L27.4844 33.5
Q16.4531 35.6875 11.5156 40.375
Q6.59375 45.0625 6.59375 53.4219
Q6.59375 63.0938 13.4062 68.6562
Q20.2188 74.2188 32.1719 74.2188
Q37.3125 74.2188 42.625 73.2812
Q47.9531 72.3594 53.5156 70.5156" id="BitstreamVeraSans-Roman-53"/>
      <path d="
M9.42188 54.6875
L18.4062 54.6875
L18.4062 0
L9.42188 0
z

M9.42188 75.9844
L18.4062 75.9844
L18.4062 64.5938
L9.42188 64.5938
z
" id="BitstreamVeraSans-Roman-69"/>
      <path d="
M45.4062 46.3906
L45.4062 75.9844
L54.3906 75.9844
L54.3906 0
L45.4062 0
L45.4062 8.20312
Q42.5781 3.32812 38.25 0.953125
Q33.9375 -1.42188 27.875 -1.42188
Q17.9688 -1.42188 11.7344 6.48438
Q5.51562 14.4062 5.51562 27.2969
Q5.51562 40.1875 11.7344 48.0938
Q17.9688 56 27.875 56
Q33.9375 56 38.25 53.625
Q42.5781 51.2656 45.4062 46.3906
M14.7969 27.2969
Q14.7969 17.3906 18.875 11.75
Q22.9531 6.10938 30.0781 6.10938
Q37.2031 6.10938 41.2969 11.75
Q45.4062 17.3906 45.4062 27.2969
Q45.4062 37.2031 41.2969 42.8438
Q37.2031 48.4844 30.0781 48.4844
Q22.9531 48.4844 18.875 42.8438
Q14.7969 37.2031 14.7969 27.2969" id="BitstreamVeraSans-Roman-64"/>
      <path d="
M34.2812 27.4844
Q23.3906 27.4844 19.1875 25
Q14.9844 22.5156 14.9844 16.5
Q14.9844 11.7188 18.1406 8.90625
Q21.2969 6.10938 26.7031 6.10938
Q34.1875 6.10938 38.7031 11.4062
Q43.2188 16.7031 43.2188 25.4844
L43.2188 27.4844
z

M52.2031 31.2031
L52.2031 0
L43.2188 0
L43.2188 8.29688
Q40.1406 3.32812 35.5469 0.953125
Q30.9531 -1.42188 24.3125 -1.42188
Q15.9219 -1.42188 10.9531 3.29688
Q6 8.01562 6 15.9219
Q6 25.1406 12.1719 29.8281
Q18.3594 34.5156 30.6094 34.5156
L43.2188 34.5156
L43.2188 35.4062
Q43.2188 41.6094 39.1406 45
Q35.0625 48.3906 27.6875 48.3906
Q23 48.3906 18.5469 47.2656
Q14.1094 46.1406 10.0156 43.8906
L10.0156 52.2031
Q14.9375 54.1094 19.5781 55.0469
Q24.2188 56 28.6094 56
Q40.4844 56 46.3438 49.8438
Q52.2031 43.7031 52.2031 31.2031" id="BitstreamVeraSans-Roman-61"/>
     </defs>
     <g transform="translate(35.25 263.6259375)rotate(-90.0)scale(0.12 -0.12)">
      <use xlink:href="#BitstreamVeraSans-Roman-4e"/>
      <use x="74.8046875" xlink:href="#BitstreamVeraSans-Roman-6f"/>
      <use x="135.986328125" xlink:href="#BitstreamVeraSans-Roman-72"/>
      <use x="175.349609375" xlink:href="#BitstreamVeraSans-Roman-6d"/>
      <use x="272.76171875" xlink:href="#BitstreamVeraSans-Roman-61"/>
      <use x="334.041015625" xlink:href="#BitstreamVeraSans-Roman-6c"/>
      <use x="361.82421875" xlink:href="#BitstreamVeraSans-Roman-69"/>
      <use x="389.607421875" xlink:href="#BitstreamVeraSans-Roman-7a"/>
      <use x="442.09765625" xlink:href="#BitstreamVeraSans-Roman-65"/>
      <use x="503.62109375" xlink:href="#BitstreamVeraSans-Roman-64"/>
      <use x="567.09765625" xlink:href="#BitstreamVeraSans-Roman-20"/>
      <use x="598.884765625" xlink:href="#BitstreamVeraSans-Roman-50"/>
      <use x="659.1875" xlink:href="#BitstreamVeraSans-Roman-53"/>
      <use x="722.6640625" xlink:href="#BitstreamVeraSans-Roman-44"/>
     </g>
    </g>
   </g>
   <g id="text_19">
    <!-- Channel 76- Successful Trial-Averaged PSD -->
    <defs>
     <path d="
M37.1094 75.9844
L37.1094 68.5
L28.5156 68.5
Q23.6875 68.5 21.7969 66.5469
Q19.9219 64.5938 19.9219 59.5156
L19.9219 54.6875
L34.7188 54.6875
L34.7188 47.7031
L19.9219 47.7031
L19.9219 0
L10.8906 0
L10.8906 47.7031
L2.29688 47.7031
L2.29688 54.6875
L10.8906 54.6875
L10.8906 58.5
Q10.8906 67.625 15.1406 71.7969
Q19.3906 75.9844 28.6094 75.9844
z
" id="BitstreamVeraSans-Roman-66"/>
     <path d="
M8.20312 72.9062
L55.0781 72.9062
L55.0781 68.7031
L28.6094 0
L18.3125 0
L43.2188 64.5938
L8.20312 64.5938
z
" id="BitstreamVeraSans-Roman-37"/>
     <path d="
M54.8906 33.0156
L54.8906 0
L45.9062 0
L45.9062 32.7188
Q45.9062 40.4844 42.875 44.3281
Q39.8438 48.1875 33.7969 48.1875
Q26.5156 48.1875 22.3125 43.5469
Q18.1094 38.9219 18.1094 30.9062
L18.1094 0
L9.07812 0
L9.07812 54.6875
L18.1094 54.6875
L18.1094 46.1875
Q21.3438 51.125 25.7031 53.5625
Q30.0781 56 35.7969 56
Q45.2188 56 50.0469 50.1719
Q54.8906 44.3438 54.8906 33.0156" id="BitstreamVeraSans-Roman-6e"/>
     <path d="
M64.4062 67.2812
L64.4062 56.8906
Q59.4219 61.5312 53.7812 63.8125
Q48.1406 66.1094 41.7969 66.1094
Q29.2969 66.1094 22.6562 58.4688
Q16.0156 50.8281 16.0156 36.375
Q16.0156 21.9688 22.6562 14.3281
Q29.2969 6.6875 41.7969 6.6875
Q48.1406 6.6875 53.7812 8.98438
Q59.4219 11.2812 64.4062 15.9219
L64.4062 5.60938
Q59.2344 2.09375 53.4375 0.328125
Q47.6562 -1.42188 41.2188 -1.42188
Q24.6562 -1.42188 15.125 8.70312
Q5.60938 18.8438 5.60938 36.375
Q5.60938 53.9531 15.125 64.0781
Q24.6562 74.2188 41.2188 74.2188
Q47.75 74.2188 53.5312 72.4844
Q59.3281 70.75 64.4062 67.2812" id="BitstreamVeraSans-Roman-43"/>
     <path d="
M4.89062 31.3906
L31.2031 31.3906
L31.2031 23.3906
L4.89062 23.3906
z
" id="BitstreamVeraSans-Roman-2d"/>
     <path d="
M34.1875 63.1875
L20.7969 26.9062
L47.6094 26.9062
z

M28.6094 72.9062
L39.7969 72.9062
L67.5781 0
L57.3281 0
L50.6875 18.7031
L17.8281 18.7031
L11.1875 0
L0.78125 0
z
" id="BitstreamVeraSans-Roman-41"/>
     <path d="
M2.98438 54.6875
L12.5 54.6875
L29.5938 8.79688
L46.6875 54.6875
L56.2031 54.6875
L35.6875 0
L23.4844 0
z
" id="BitstreamVeraSans-Roman-76"/>
     <path d="
M-0.296875 72.9062
L61.375 72.9062
L61.375 64.5938
L35.5 64.5938
L35.5 0
L25.5938 0
L25.5938 64.5938
L-0.296875 64.5938
z
" id="BitstreamVeraSans-Roman-54"/>
     <path d="
M45.4062 27.9844
Q45.4062 37.75 41.375 43.1094
Q37.3594 48.4844 30.0781 48.4844
Q22.8594 48.4844 18.8281 43.1094
Q14.7969 37.75 14.7969 27.9844
Q14.7969 18.2656 18.8281 12.8906
Q22.8594 7.51562 30.0781 7.51562
Q37.3594 7.51562 41.375 12.8906
Q45.4062 18.2656 45.4062 27.9844
M54.3906 6.78125
Q54.3906 -7.17188 48.1875 -13.9844
Q42 -20.7969 29.2031 -20.7969
Q24.4688 -20.7969 20.2656 -20.0938
Q16.0625 -19.3906 12.1094 -17.9219
L12.1094 -9.1875
Q16.0625 -11.3281 19.9219 -12.3438
Q23.7812 -13.375 27.7812 -13.375
Q36.625 -13.375 41.0156 -8.76562
Q45.4062 -4.15625 45.4062 5.17188
L45.4062 9.625
Q42.625 4.78125 38.2812 2.39062
Q33.9375 0 27.875 0
Q17.8281 0 11.6719 7.65625
Q5.51562 15.3281 5.51562 27.9844
Q5.51562 40.6719 11.6719 48.3281
Q17.8281 56 27.875 56
Q33.9375 56 38.2812 53.6094
Q42.625 51.2188 45.4062 46.3906
L45.4062 54.6875
L54.3906 54.6875
z
" id="BitstreamVeraSans-Roman-67"/>
     <path d="
M8.5 21.5781
L8.5 54.6875
L17.4844 54.6875
L17.4844 21.9219
Q17.4844 14.1562 20.5 10.2656
Q23.5312 6.39062 29.5938 6.39062
Q36.8594 6.39062 41.0781 11.0312
Q45.3125 15.6719 45.3125 23.6875
L45.3125 54.6875
L54.2969 54.6875
L54.2969 0
L45.3125 0
L45.3125 8.40625
Q42.0469 3.42188 37.7188 1
Q33.4062 -1.42188 27.6875 -1.42188
Q18.2656 -1.42188 13.375 4.4375
Q8.5 10.2969 8.5 21.5781" id="BitstreamVeraSans-Roman-75"/>
     <path d="
M44.2812 53.0781
L44.2812 44.5781
Q40.4844 46.5312 36.375 47.5
Q32.2812 48.4844 27.875 48.4844
Q21.1875 48.4844 17.8438 46.4375
Q14.5 44.3906 14.5 40.2812
Q14.5 37.1562 16.8906 35.375
Q19.2812 33.5938 26.5156 31.9844
L29.5938 31.2969
Q39.1562 29.25 43.1875 25.5156
Q47.2188 21.7812 47.2188 15.0938
Q47.2188 7.46875 41.1875 3.01562
Q35.1562 -1.42188 24.6094 -1.42188
Q20.2188 -1.42188 15.4531 -0.5625
Q10.6875 0.296875 5.42188 2
L5.42188 11.2812
Q10.4062 8.6875 15.2344 7.39062
Q20.0625 6.10938 24.8125 6.10938
Q31.1562 6.10938 34.5625 8.28125
Q37.9844 10.4531 37.9844 14.4062
Q37.9844 18.0625 35.5156 20.0156
Q33.0625 21.9688 24.7031 23.7812
L21.5781 24.5156
Q13.2344 26.2656 9.51562 29.9062
Q5.8125 33.5469 5.8125 39.8906
Q5.8125 47.6094 11.2812 51.7969
Q16.75 56 26.8125 56
Q31.7812 56 36.1719 55.2656
Q40.5781 54.5469 44.2812 53.0781" id="BitstreamVeraSans-Roman-73"/>
     <path d="
M48.7812 52.5938
L48.7812 44.1875
Q44.9688 46.2969 41.1406 47.3438
Q37.3125 48.3906 33.4062 48.3906
Q24.6562 48.3906 19.8125 42.8438
Q14.9844 37.3125 14.9844 27.2969
Q14.9844 17.2812 19.8125 11.7344
Q24.6562 6.20312 33.4062 6.20312
Q37.3125 6.20312 41.1406 7.25
Q44.9688 8.29688 48.7812 10.4062
L48.7812 2.09375
Q45.0156 0.34375 40.9844 -0.53125
Q36.9688 -1.42188 32.4219 -1.42188
Q20.0625 -1.42188 12.7812 6.34375
Q5.51562 14.1094 5.51562 27.2969
Q5.51562 40.6719 12.8594 48.3281
Q20.2188 56 33.0156 56
Q37.1562 56 41.1094 55.1406
Q45.0625 54.2969 48.7812 52.5938" id="BitstreamVeraSans-Roman-63"/>
     <path d="
M54.8906 33.0156
L54.8906 0
L45.9062 0
L45.9062 32.7188
Q45.9062 40.4844 42.875 44.3281
Q39.8438 48.1875 33.7969 48.1875
Q26.5156 48.1875 22.3125 43.5469
Q18.1094 38.9219 18.1094 30.9062
L18.1094 0
L9.07812 0
L9.07812 75.9844
L18.1094 75.9844
L18.1094 46.1875
Q21.3438 51.125 25.7031 53.5625
Q30.0781 56 35.7969 56
Q45.2188 56 50.0469 50.1719
Q54.8906 44.3438 54.8906 33.0156" id="BitstreamVeraSans-Roman-68"/>
    </defs>
    <g transform="translate(141.33375 38.2)scale(0.144 -0.144)">
     <use xlink:href="#BitstreamVeraSans-Roman-43"/>
     <use x="69.82421875" xlink:href="#BitstreamVeraSans-Roman-68"/>
     <use x="133.203125" xlink:href="#BitstreamVeraSans-Roman-61"/>
     <use x="194.482421875" xlink:href="#BitstreamVeraSans-Roman-6e"/>
     <use x="257.861328125" xlink:href="#BitstreamVeraSans-Roman-6e"/>
     <use x="321.240234375" xlink:href="#BitstreamVeraSans-Roman-65"/>
     <use x="382.763671875" xlink:href="#BitstreamVeraSans-Roman-6c"/>
     <use x="410.546875" xlink:href="#BitstreamVeraSans-Roman-20"/>
     <use x="442.333984375" xlink:href="#BitstreamVeraSans-Roman-37"/>
     <use x="505.95703125" xlink:href="#BitstreamVeraSans-Roman-36"/>
     <use x="569.580078125" xlink:href="#BitstreamVeraSans-Roman-2d"/>
     <use x="605.6640625" xlink:href="#BitstreamVeraSans-Roman-20"/>
     <use x="637.451171875" xlink:href="#BitstreamVeraSans-Roman-53"/>
     <use x="700.927734375" xlink:href="#BitstreamVeraSans-Roman-75"/>
     <use x="764.306640625" xlink:href="#BitstreamVeraSans-Roman-63"/>
     <use x="819.287109375" xlink:href="#BitstreamVeraSans-Roman-63"/>
     <use x="874.267578125" xlink:href="#BitstreamVeraSans-Roman-65"/>
     <use x="935.791015625" xlink:href="#BitstreamVeraSans-Roman-73"/>
     <use x="987.890625" xlink:href="#BitstreamVeraSans-Roman-73"/>
     <use x="1039.99023438" xlink:href="#BitstreamVeraSans-Roman-66"/>
     <use x="1075.1953125" xlink:href="#BitstreamVeraSans-Roman-75"/>
     <use x="1138.57421875" xlink:href="#BitstreamVeraSans-Roman-6c"/>
     <use x="1166.35742188" xlink:href="#BitstreamVeraSans-Roman-20"/>
     <use x="1198.14453125" xlink:href="#BitstreamVeraSans-Roman-54"/>
     <use x="1244.47851562" xlink:href="#BitstreamVeraSans-Roman-72"/>
     <use x="1285.59179688" xlink:href="#BitstreamVeraSans-Roman-69"/>
     <use x="1313.375" xlink:href="#BitstreamVeraSans-Roman-61"/>
     <use x="1374.65429688" xlink:href="#BitstreamVeraSans-Roman-6c"/>
     <use x="1402.4375" xlink:href="#BitstreamVeraSans-Roman-2d"/>
     <use x="1436.27148438" xlink:href="#BitstreamVeraSans-Roman-41"/>
     <use x="1498.8046875" xlink:href="#BitstreamVeraSans-Roman-76"/>
     <use x="1557.984375" xlink:href="#BitstreamVeraSans-Roman-65"/>
     <use x="1619.5078125" xlink:href="#BitstreamVeraSans-Roman-72"/>
     <use x="1660.62109375" xlink:href="#BitstreamVeraSans-Roman-61"/>
     <use x="1721.90039062" xlink:href="#BitstreamVeraSans-Roman-67"/>
     <use x="1785.37695312" xlink:href="#BitstreamVeraSans-Roman-65"/>
     <use x="1846.90039062" xlink:href="#BitstreamVeraSans-Roman-64"/>
     <use x="1910.37695312" xlink:href="#BitstreamVeraSans-Roman-20"/>
     <use x="1942.1640625" xlink:href="#BitstreamVeraSans-Roman-50"/>
     <use x="2002.46679688" xlink:href="#BitstreamVeraSans-Roman-53"/>
     <use x="2065.94335938" xlink:href="#BitstreamVeraSans-Roman-44"/>
    </g>
   </g>
   <g id="legend_1">
    <g id="patch_7">
     <path d="
M363.337 308.358
L511.2 308.358
L511.2 50.4
L363.337 50.4
z
" style="fill:#ffffff;stroke:#000000;stroke-linejoin:miter;"/>
    </g>
    <g id="line2d_45">
     <path d="
M373.417 62.0617
L393.577 62.0617" style="fill:none;stroke:#ff0000;stroke-linecap:square;"/>
    </g>
    <g id="line2d_46"/>
    <g id="text_20">
     <!-- Stress Trials -->
     <defs>
      <path d="
M18.3125 70.2188
L18.3125 54.6875
L36.8125 54.6875
L36.8125 47.7031
L18.3125 47.7031
L18.3125 18.0156
Q18.3125 11.3281 20.1406 9.42188
Q21.9688 7.51562 27.5938 7.51562
L36.8125 7.51562
L36.8125 0
L27.5938 0
Q17.1875 0 13.2344 3.875
Q9.28125 7.76562 9.28125 18.0156
L9.28125 47.7031
L2.6875 47.7031
L2.6875 54.6875
L9.28125 54.6875
L9.28125 70.2188
z
" id="BitstreamVeraSans-Roman-74"/>
     </defs>
     <g transform="translate(409.41675 67.10175)scale(0.144 -0.144)">
      <use xlink:href="#BitstreamVeraSans-Roman-53"/>
      <use x="63.4765625" xlink:href="#BitstreamVeraSans-Roman-74"/>
      <use x="102.685546875" xlink:href="#BitstreamVeraSans-Roman-72"/>
      <use x="141.548828125" xlink:href="#BitstreamVeraSans-Roman-65"/>
      <use x="203.072265625" xlink:href="#BitstreamVeraSans-Roman-73"/>
      <use x="255.171875" xlink:href="#BitstreamVeraSans-Roman-73"/>
      <use x="307.271484375" xlink:href="#BitstreamVeraSans-Roman-20"/>
      <use x="339.05859375" xlink:href="#BitstreamVeraSans-Roman-54"/>
      <use x="385.392578125" xlink:href="#BitstreamVeraSans-Roman-72"/>
      <use x="426.505859375" xlink:href="#BitstreamVeraSans-Roman-69"/>
      <use x="454.2890625" xlink:href="#BitstreamVeraSans-Roman-61"/>
      <use x="515.568359375" xlink:href="#BitstreamVeraSans-Roman-6c"/>
      <use x="543.3515625" xlink:href="#BitstreamVeraSans-Roman-73"/>
     </g>
    </g>
    <g id="line2d_47">
     <path d="
M373.417 83.1983
L393.577 83.1983" style="fill:none;stroke:#0000ff;stroke-linecap:square;"/>
    </g>
    <g id="line2d_48"/>
    <g id="text_21">
     <!-- Regular Trials -->
     <defs>
      <path d="
M44.3906 34.1875
Q47.5625 33.1094 50.5625 29.5938
Q53.5625 26.0781 56.5938 19.9219
L66.6094 0
L56 0
L46.6875 18.7031
Q43.0625 26.0312 39.6719 28.4219
Q36.2812 30.8125 30.4219 30.8125
L19.6719 30.8125
L19.6719 0
L9.8125 0
L9.8125 72.9062
L32.0781 72.9062
Q44.5781 72.9062 50.7344 67.6719
Q56.8906 62.4531 56.8906 51.9062
Q56.8906 45.0156 53.6875 40.4688
Q50.4844 35.9375 44.3906 34.1875
M19.6719 64.7969
L19.6719 38.9219
L32.0781 38.9219
Q39.2031 38.9219 42.8438 42.2188
Q46.4844 45.5156 46.4844 51.9062
Q46.4844 58.2969 42.8438 61.5469
Q39.2031 64.7969 32.0781 64.7969
z
" id="BitstreamVeraSans-Roman-52"/>
     </defs>
     <g transform="translate(409.41675 88.23825)scale(0.144 -0.144)">
      <use xlink:href="#BitstreamVeraSans-Roman-52"/>
      <use x="64.982421875" xlink:href="#BitstreamVeraSans-Roman-65"/>
      <use x="126.505859375" xlink:href="#BitstreamVeraSans-Roman-67"/>
      <use x="189.982421875" xlink:href="#BitstreamVeraSans-Roman-75"/>
      <use x="253.361328125" xlink:href="#BitstreamVeraSans-Roman-6c"/>
      <use x="281.14453125" xlink:href="#BitstreamVeraSans-Roman-61"/>
      <use x="342.423828125" xlink:href="#BitstreamVeraSans-Roman-72"/>
      <use x="383.537109375" xlink:href="#BitstreamVeraSans-Roman-20"/>
      <use x="415.32421875" xlink:href="#BitstreamVeraSans-Roman-54"/>
      <use x="461.658203125" xlink:href="#BitstreamVeraSans-Roman-72"/>
      <use x="502.771484375" xlink:href="#BitstreamVeraSans-Roman-69"/>
      <use x="530.5546875" xlink:href="#BitstreamVeraSans-Roman-61"/>
      <use x="591.833984375" xlink:href="#BitstreamVeraSans-Roman-6c"/>
      <use x="619.6171875" xlink:href="#BitstreamVeraSans-Roman-73"/>
     </g>
    </g>
    <g id="line2d_49">
     <path d="
M373.417 104.335
L393.577 104.335" style="fill:none;stroke:#ff0000;stroke-linecap:square;"/>
    </g>
    <g id="line2d_50"/>
    <g id="text_22">
     <!-- Stress Trials -->
     <g transform="translate(409.41675 109.37475)scale(0.144 -0.144)">
      <use xlink:href="#BitstreamVeraSans-Roman-53"/>
      <use x="63.4765625" xlink:href="#BitstreamVeraSans-Roman-74"/>
      <use x="102.685546875" xlink:href="#BitstreamVeraSans-Roman-72"/>
      <use x="141.548828125" xlink:href="#BitstreamVeraSans-Roman-65"/>
      <use x="203.072265625" xlink:href="#BitstreamVeraSans-Roman-73"/>
      <use x="255.171875" xlink:href="#BitstreamVeraSans-Roman-73"/>
      <use x="307.271484375" xlink:href="#BitstreamVeraSans-Roman-20"/>
      <use x="339.05859375" xlink:href="#BitstreamVeraSans-Roman-54"/>
      <use x="385.392578125" xlink:href="#BitstreamVeraSans-Roman-72"/>
      <use x="426.505859375" xlink:href="#BitstreamVeraSans-Roman-69"/>
      <use x="454.2890625" xlink:href="#BitstreamVeraSans-Roman-61"/>
      <use x="515.568359375" xlink:href="#BitstreamVeraSans-Roman-6c"/>
      <use x="543.3515625" xlink:href="#BitstreamVeraSans-Roman-73"/>
     </g>
    </g>
    <g id="line2d_51">
     <path d="
M373.417 125.471
L393.577 125.471" style="fill:none;stroke:#0000ff;stroke-linecap:square;"/>
    </g>
    <g id="line2d_52"/>
    <g id="text_23">
     <!-- Regular Trials -->
     <g transform="translate(409.41675 130.51125)scale(0.144 -0.144)">
      <use xlink:href="#BitstreamVeraSans-Roman-52"/>
      <use x="64.982421875" xlink:href="#BitstreamVeraSans-Roman-65"/>
      <use x="126.505859375" xlink:href="#BitstreamVeraSans-Roman-67"/>
      <use x="189.982421875" xlink:href="#BitstreamVeraSans-Roman-75"/>
      <use x="253.361328125" xlink:href="#BitstreamVeraSans-Roman-6c"/>
      <use x="281.14453125" xlink:href="#BitstreamVeraSans-Roman-61"/>
      <use x="342.423828125" xlink:href="#BitstreamVeraSans-Roman-72"/>
      <use x="383.537109375" xlink:href="#BitstreamVeraSans-Roman-20"/>
      <use x="415.32421875" xlink:href="#BitstreamVeraSans-Roman-54"/>
      <use x="461.658203125" xlink:href="#BitstreamVeraSans-Roman-72"/>
      <use x="502.771484375" xlink:href="#BitstreamVeraSans-Roman-69"/>
      <use x="530.5546875" xlink:href="#BitstreamVeraSans-Roman-61"/>
      <use x="591.833984375" xlink:href="#BitstreamVeraSans-Roman-6c"/>
      <use x="619.6171875" xlink:href="#BitstreamVeraSans-Roman-73"/>
     </g>
    </g>
    <g id="line2d_53">
     <path d="
M373.417 146.608
L393.577 146.608" style="fill:none;stroke:#ff0000;stroke-linecap:square;"/>
    </g>
    <g id="line2d_54"/>
    <g id="text_24">
     <!-- Stress Trials -->
     <g transform="translate(409.41675 151.64775)scale(0.144 -0.144)">
      <use xlink:href="#BitstreamVeraSans-Roman-53"/>
      <use x="63.4765625" xlink:href="#BitstreamVeraSans-Roman-74"/>
      <use x="102.685546875" xlink:href="#BitstreamVeraSans-Roman-72"/>
      <use x="141.548828125" xlink:href="#BitstreamVeraSans-Roman-65"/>
      <use x="203.072265625" xlink:href="#BitstreamVeraSans-Roman-73"/>
      <use x="255.171875" xlink:href="#BitstreamVeraSans-Roman-73"/>
      <use x="307.271484375" xlink:href="#BitstreamVeraSans-Roman-20"/>
      <use x="339.05859375" xlink:href="#BitstreamVeraSans-Roman-54"/>
      <use x="385.392578125" xlink:href="#BitstreamVeraSans-Roman-72"/>
      <use x="426.505859375" xlink:href="#BitstreamVeraSans-Roman-69"/>
      <use x="454.2890625" xlink:href="#BitstreamVeraSans-Roman-61"/>
      <use x="515.568359375" xlink:href="#BitstreamVeraSans-Roman-6c"/>
      <use x="543.3515625" xlink:href="#BitstreamVeraSans-Roman-73"/>
     </g>
    </g>
    <g id="line2d_55">
     <path d="
M373.417 167.744
L393.577 167.744" style="fill:none;stroke:#0000ff;stroke-linecap:square;"/>
    </g>
    <g id="line2d_56"/>
    <g id="text_25">
     <!-- Regular Trials -->
     <g transform="translate(409.41675 172.78425)scale(0.144 -0.144)">
      <use xlink:href="#BitstreamVeraSans-Roman-52"/>
      <use x="64.982421875" xlink:href="#BitstreamVeraSans-Roman-65"/>
      <use x="126.505859375" xlink:href="#BitstreamVeraSans-Roman-67"/>
      <use x="189.982421875" xlink:href="#BitstreamVeraSans-Roman-75"/>
      <use x="253.361328125" xlink:href="#BitstreamVeraSans-Roman-6c"/>
      <use x="281.14453125" xlink:href="#BitstreamVeraSans-Roman-61"/>
      <use x="342.423828125" xlink:href="#BitstreamVeraSans-Roman-72"/>
      <use x="383.537109375" xlink:href="#BitstreamVeraSans-Roman-20"/>
      <use x="415.32421875" xlink:href="#BitstreamVeraSans-Roman-54"/>
      <use x="461.658203125" xlink:href="#BitstreamVeraSans-Roman-72"/>
      <use x="502.771484375" xlink:href="#BitstreamVeraSans-Roman-69"/>
      <use x="530.5546875" xlink:href="#BitstreamVeraSans-Roman-61"/>
      <use x="591.833984375" xlink:href="#BitstreamVeraSans-Roman-6c"/>
      <use x="619.6171875" xlink:href="#BitstreamVeraSans-Roman-73"/>
     </g>
    </g>
    <g id="line2d_57">
     <path d="
M373.417 188.881
L393.577 188.881" style="fill:none;stroke:#ff0000;stroke-linecap:square;"/>
    </g>
    <g id="line2d_58"/>
    <g id="text_26">
     <!-- Stress Trials -->
     <g transform="translate(409.41675 193.92075)scale(0.144 -0.144)">
      <use xlink:href="#BitstreamVeraSans-Roman-53"/>
      <use x="63.4765625" xlink:href="#BitstreamVeraSans-Roman-74"/>
      <use x="102.685546875" xlink:href="#BitstreamVeraSans-Roman-72"/>
      <use x="141.548828125" xlink:href="#BitstreamVeraSans-Roman-65"/>
      <use x="203.072265625" xlink:href="#BitstreamVeraSans-Roman-73"/>
      <use x="255.171875" xlink:href="#BitstreamVeraSans-Roman-73"/>
      <use x="307.271484375" xlink:href="#BitstreamVeraSans-Roman-20"/>
      <use x="339.05859375" xlink:href="#BitstreamVeraSans-Roman-54"/>
      <use x="385.392578125" xlink:href="#BitstreamVeraSans-Roman-72"/>
      <use x="426.505859375" xlink:href="#BitstreamVeraSans-Roman-69"/>
      <use x="454.2890625" xlink:href="#BitstreamVeraSans-Roman-61"/>
      <use x="515.568359375" xlink:href="#BitstreamVeraSans-Roman-6c"/>
      <use x="543.3515625" xlink:href="#BitstreamVeraSans-Roman-73"/>
     </g>
    </g>
    <g id="line2d_59">
     <path d="
M373.417 210.017
L393.577 210.017" style="fill:none;stroke:#0000ff;stroke-linecap:square;"/>
    </g>
    <g id="line2d_60"/>
    <g id="text_27">
     <!-- Regular Trials -->
     <g transform="translate(409.41675 215.05725)scale(0.144 -0.144)">
      <use xlink:href="#BitstreamVeraSans-Roman-52"/>
      <use x="64.982421875" xlink:href="#BitstreamVeraSans-Roman-65"/>
      <use x="126.505859375" xlink:href="#BitstreamVeraSans-Roman-67"/>
      <use x="189.982421875" xlink:href="#BitstreamVeraSans-Roman-75"/>
      <use x="253.361328125" xlink:href="#BitstreamVeraSans-Roman-6c"/>
      <use x="281.14453125" xlink:href="#BitstreamVeraSans-Roman-61"/>
      <use x="342.423828125" xlink:href="#BitstreamVeraSans-Roman-72"/>
      <use x="383.537109375" xlink:href="#BitstreamVeraSans-Roman-20"/>
      <use x="415.32421875" xlink:href="#BitstreamVeraSans-Roman-54"/>
      <use x="461.658203125" xlink:href="#BitstreamVeraSans-Roman-72"/>
      <use x="502.771484375" xlink:href="#BitstreamVeraSans-Roman-69"/>
      <use x="530.5546875" xlink:href="#BitstreamVeraSans-Roman-61"/>
      <use x="591.833984375" xlink:href="#BitstreamVeraSans-Roman-6c"/>
      <use x="619.6171875" xlink:href="#BitstreamVeraSans-Roman-73"/>
     </g>
    </g>
    <g id="line2d_61">
     <path d="
M373.417 231.154
L393.577 231.154" style="fill:none;stroke:#ff0000;stroke-linecap:square;"/>
    </g>
    <g id="line2d_62"/>
    <g id="text_28">
     <!-- Stress Trials -->
     <g transform="translate(409.41675 236.19375)scale(0.144 -0.144)">
      <use xlink:href="#BitstreamVeraSans-Roman-53"/>
      <use x="63.4765625" xlink:href="#BitstreamVeraSans-Roman-74"/>
      <use x="102.685546875" xlink:href="#BitstreamVeraSans-Roman-72"/>
      <use x="141.548828125" xlink:href="#BitstreamVeraSans-Roman-65"/>
      <use x="203.072265625" xlink:href="#BitstreamVeraSans-Roman-73"/>
      <use x="255.171875" xlink:href="#BitstreamVeraSans-Roman-73"/>
      <use x="307.271484375" xlink:href="#BitstreamVeraSans-Roman-20"/>
      <use x="339.05859375" xlink:href="#BitstreamVeraSans-Roman-54"/>
      <use x="385.392578125" xlink:href="#BitstreamVeraSans-Roman-72"/>
      <use x="426.505859375" xlink:href="#BitstreamVeraSans-Roman-69"/>
      <use x="454.2890625" xlink:href="#BitstreamVeraSans-Roman-61"/>
      <use x="515.568359375" xlink:href="#BitstreamVeraSans-Roman-6c"/>
      <use x="543.3515625" xlink:href="#BitstreamVeraSans-Roman-73"/>
     </g>
    </g>
    <g id="line2d_63">
     <path d="
M373.417 252.29
L393.577 252.29" style="fill:none;stroke:#0000ff;stroke-linecap:square;"/>
    </g>
    <g id="line2d_64"/>
    <g id="text_29">
     <!-- Regular Trials -->
     <g transform="translate(409.41675 257.33025)scale(0.144 -0.144)">
      <use xlink:href="#BitstreamVeraSans-Roman-52"/>
      <use x="64.982421875" xlink:href="#BitstreamVeraSans-Roman-65"/>
      <use x="126.505859375" xlink:href="#BitstreamVeraSans-Roman-67"/>
      <use x="189.982421875" xlink:href="#BitstreamVeraSans-Roman-75"/>
      <use x="253.361328125" xlink:href="#BitstreamVeraSans-Roman-6c"/>
      <use x="281.14453125" xlink:href="#BitstreamVeraSans-Roman-61"/>
      <use x="342.423828125" xlink:href="#BitstreamVeraSans-Roman-72"/>
      <use x="383.537109375" xlink:href="#BitstreamVeraSans-Roman-20"/>
      <use x="415.32421875" xlink:href="#BitstreamVeraSans-Roman-54"/>
      <use x="461.658203125" xlink:href="#BitstreamVeraSans-Roman-72"/>
      <use x="502.771484375" xlink:href="#BitstreamVeraSans-Roman-69"/>
      <use x="530.5546875" xlink:href="#BitstreamVeraSans-Roman-61"/>
      <use x="591.833984375" xlink:href="#BitstreamVeraSans-Roman-6c"/>
      <use x="619.6171875" xlink:href="#BitstreamVeraSans-Roman-73"/>
     </g>
    </g>
    <g id="line2d_65">
     <path d="
M373.417 273.427
L393.577 273.427" style="fill:none;stroke:#ff0000;stroke-linecap:square;"/>
    </g>
    <g id="line2d_66"/>
    <g id="text_30">
     <!-- Stress Trials -->
     <g transform="translate(409.41675 278.46675)scale(0.144 -0.144)">
      <use xlink:href="#BitstreamVeraSans-Roman-53"/>
      <use x="63.4765625" xlink:href="#BitstreamVeraSans-Roman-74"/>
      <use x="102.685546875" xlink:href="#BitstreamVeraSans-Roman-72"/>
      <use x="141.548828125" xlink:href="#BitstreamVeraSans-Roman-65"/>
      <use x="203.072265625" xlink:href="#BitstreamVeraSans-Roman-73"/>
      <use x="255.171875" xlink:href="#BitstreamVeraSans-Roman-73"/>
      <use x="307.271484375" xlink:href="#BitstreamVeraSans-Roman-20"/>
      <use x="339.05859375" xlink:href="#BitstreamVeraSans-Roman-54"/>
      <use x="385.392578125" xlink:href="#BitstreamVeraSans-Roman-72"/>
      <use x="426.505859375" xlink:href="#BitstreamVeraSans-Roman-69"/>
      <use x="454.2890625" xlink:href="#BitstreamVeraSans-Roman-61"/>
      <use x="515.568359375" xlink:href="#BitstreamVeraSans-Roman-6c"/>
      <use x="543.3515625" xlink:href="#BitstreamVeraSans-Roman-73"/>
     </g>
    </g>
    <g id="line2d_67">
     <path d="
M373.417 294.563
L393.577 294.563" style="fill:none;stroke:#0000ff;stroke-linecap:square;"/>
    </g>
    <g id="line2d_68"/>
    <g id="text_31">
     <!-- Regular Trials -->
     <g transform="translate(409.41675 299.60325)scale(0.144 -0.144)">
      <use xlink:href="#BitstreamVeraSans-Roman-52"/>
      <use x="64.982421875" xlink:href="#BitstreamVeraSans-Roman-65"/>
      <use x="126.505859375" xlink:href="#BitstreamVeraSans-Roman-67"/>
      <use x="189.982421875" xlink:href="#BitstreamVeraSans-Roman-75"/>
      <use x="253.361328125" xlink:href="#BitstreamVeraSans-Roman-6c"/>
      <use x="281.14453125" xlink:href="#BitstreamVeraSans-Roman-61"/>
      <use x="342.423828125" xlink:href="#BitstreamVeraSans-Roman-72"/>
      <use x="383.537109375" xlink:href="#BitstreamVeraSans-Roman-20"/>
      <use x="415.32421875" xlink:href="#BitstreamVeraSans-Roman-54"/>
      <use x="461.658203125" xlink:href="#BitstreamVeraSans-Roman-72"/>
      <use x="502.771484375" xlink:href="#BitstreamVeraSans-Roman-69"/>
      <use x="530.5546875" xlink:href="#BitstreamVeraSans-Roman-61"/>
      <use x="591.833984375" xlink:href="#BitstreamVeraSans-Roman-6c"/>
      <use x="619.6171875" xlink:href="#BitstreamVeraSans-Roman-73"/>
     </g>
    </g>
   </g>
  </g>
 </g>
 <defs>
  <clipPath id="p7ff5b81e1d">
   <rect height="345.6" width="446.4" x="72.0" y="43.2"/>
  </clipPath>
 </defs>
</svg>
