<?xml version="1.0" encoding="utf-8" standalone="no"?>
<!DOCTYPE svg PUBLIC "-//W3C//DTD SVG 1.1//EN"
  "http://www.w3.org/Graphics/SVG/1.1/DTD/svg11.dtd">
<!-- Created with matplotlib (http://matplotlib.org/) -->
<svg height="345pt" version="1.1" viewBox="0 0 460 345" width="460pt" xmlns="http://www.w3.org/2000/svg" xmlns:xlink="http://www.w3.org/1999/xlink">
 <defs>
  <style type="text/css">
*{stroke-linecap:butt;stroke-linejoin:round;}
  </style>
 </defs>
 <g id="figure_1">
  <g id="patch_1">
   <path d="M 0 345.6 
L 460.8 345.6 
L 460.8 0 
L 0 0 
z
" style="fill:#ffffff;"/>
  </g>
  <g id="axes_1">
   <g id="patch_2">
    <path d="M 57.6 307.584 
L 219.927273 307.584 
L 219.927273 41.472 
L 57.6 41.472 
z
" style="fill:#ffffff;"/>
   </g>
   <g id="matplotlib.axis_1">
    <g id="xtick_1">
     <g id="line2d_1">
      <defs>
       <path d="M 0 0 
L 0 3.5 
" id="m68b1ba85d1" style="stroke:#000000;stroke-width:0.8;"/>
      </defs>
      <g>
       <use style="stroke:#000000;stroke-width:0.8;" x="64.978512" xlink:href="#m68b1ba85d1" y="307.584"/>
      </g>
     </g>
     <g id="text_1">
      <!-- 0.0 -->
      <defs>
       <path d="M 31.78125 66.40625 
Q 24.171875 66.40625 20.328125 58.90625 
Q 16.5 51.421875 16.5 36.375 
Q 16.5 21.390625 20.328125 13.890625 
Q 24.171875 6.390625 31.78125 6.390625 
Q 39.453125 6.390625 43.28125 13.890625 
Q 47.125 21.390625 47.125 36.375 
Q 47.125 51.421875 43.28125 58.90625 
Q 39.453125 66.40625 31.78125 66.40625 
z
M 31.78125 74.21875 
Q 44.046875 74.21875 50.515625 64.515625 
Q 56.984375 54.828125 56.984375 36.375 
Q 56.984375 17.96875 50.515625 8.265625 
Q 44.046875 -1.421875 31.78125 -1.421875 
Q 19.53125 -1.421875 13.0625 8.265625 
Q 6.59375 17.96875 6.59375 36.375 
Q 6.59375 54.828125 13.0625 64.515625 
Q 19.53125 74.21875 31.78125 74.21875 
z
" id="DejaVuSans-30"/>
       <path d="M 10.6875 12.40625 
L 21 12.40625 
L 21 0 
L 10.6875 0 
z
" id="DejaVuSans-2e"/>
      </defs>
      <g transform="translate(57.02695 322.182437)scale(0.1 -0.1)">
       <use xlink:href="#DejaVuSans-30"/>
       <use x="63.623047" xlink:href="#DejaVuSans-2e"/>
       <use x="95.410156" xlink:href="#DejaVuSans-30"/>
      </g>
     </g>
    </g>
    <g id="xtick_2">
     <g id="line2d_2">
      <g>
       <use style="stroke:#000000;stroke-width:0.8;" x="86.62696" xlink:href="#m68b1ba85d1" y="307.584"/>
      </g>
     </g>
     <g id="text_2">
      <!-- 5.0 -->
      <defs>
       <path d="M 10.796875 72.90625 
L 49.515625 72.90625 
L 49.515625 64.59375 
L 19.828125 64.59375 
L 19.828125 46.734375 
Q 21.96875 47.46875 24.109375 47.828125 
Q 26.265625 48.1875 28.421875 48.1875 
Q 40.625 48.1875 47.75 41.5 
Q 54.890625 34.8125 54.890625 23.390625 
Q 54.890625 11.625 47.5625 5.09375 
Q 40.234375 -1.421875 26.90625 -1.421875 
Q 22.3125 -1.421875 17.546875 -0.640625 
Q 12.796875 0.140625 7.71875 1.703125 
L 7.71875 11.625 
Q 12.109375 9.234375 16.796875 8.0625 
Q 21.484375 6.890625 26.703125 6.890625 
Q 35.15625 6.890625 40.078125 11.328125 
Q 45.015625 15.765625 45.015625 23.390625 
Q 45.015625 31 40.078125 35.4375 
Q 35.15625 39.890625 26.703125 39.890625 
Q 22.75 39.890625 18.8125 39.015625 
Q 14.890625 38.140625 10.796875 36.28125 
z
" id="DejaVuSans-35"/>
      </defs>
      <g transform="translate(78.675397 322.182437)scale(0.1 -0.1)">
       <use xlink:href="#DejaVuSans-35"/>
       <use x="63.623047" xlink:href="#DejaVuSans-2e"/>
       <use x="95.410156" xlink:href="#DejaVuSans-30"/>
      </g>
     </g>
    </g>
    <g id="xtick_3">
     <g id="line2d_3">
      <g>
       <use style="stroke:#000000;stroke-width:0.8;" x="108.275407" xlink:href="#m68b1ba85d1" y="307.584"/>
      </g>
     </g>
     <g id="text_3">
      <!-- 10.0 -->
      <defs>
       <path d="M 12.40625 8.296875 
L 28.515625 8.296875 
L 28.515625 63.921875 
L 10.984375 60.40625 
L 10.984375 69.390625 
L 28.421875 72.90625 
L 38.28125 72.90625 
L 38.28125 8.296875 
L 54.390625 8.296875 
L 54.390625 0 
L 12.40625 0 
z
" id="DejaVuSans-31"/>
      </defs>
      <g transform="translate(97.142594 322.182437)scale(0.1 -0.1)">
       <use xlink:href="#DejaVuSans-31"/>
       <use x="63.623047" xlink:href="#DejaVuSans-30"/>
       <use x="127.246094" xlink:href="#DejaVuSans-2e"/>
       <use x="159.033203" xlink:href="#DejaVuSans-30"/>
      </g>
     </g>
    </g>
    <g id="xtick_4">
     <g id="line2d_4">
      <g>
       <use style="stroke:#000000;stroke-width:0.8;" x="129.923854" xlink:href="#m68b1ba85d1" y="307.584"/>
      </g>
     </g>
     <g id="text_4">
      <!-- 15.0 -->
      <g transform="translate(118.791041 322.182437)scale(0.1 -0.1)">
       <use xlink:href="#DejaVuSans-31"/>
       <use x="63.623047" xlink:href="#DejaVuSans-35"/>
       <use x="127.246094" xlink:href="#DejaVuSans-2e"/>
       <use x="159.033203" xlink:href="#DejaVuSans-30"/>
      </g>
     </g>
    </g>
    <g id="xtick_5">
     <g id="line2d_5">
      <g>
       <use style="stroke:#000000;stroke-width:0.8;" x="151.572301" xlink:href="#m68b1ba85d1" y="307.584"/>
      </g>
     </g>
     <g id="text_5">
      <!-- 20.0 -->
      <defs>
       <path d="M 19.1875 8.296875 
L 53.609375 8.296875 
L 53.609375 0 
L 7.328125 0 
L 7.328125 8.296875 
Q 12.9375 14.109375 22.625 23.890625 
Q 32.328125 33.6875 34.8125 36.53125 
Q 39.546875 41.84375 41.421875 45.53125 
Q 43.3125 49.21875 43.3125 52.78125 
Q 43.3125 58.59375 39.234375 62.25 
Q 35.15625 65.921875 28.609375 65.921875 
Q 23.96875 65.921875 18.8125 64.3125 
Q 13.671875 62.703125 7.8125 59.421875 
L 7.8125 69.390625 
Q 13.765625 71.78125 18.9375 73 
Q 24.125 74.21875 28.421875 74.21875 
Q 39.75 74.21875 46.484375 68.546875 
Q 53.21875 62.890625 53.21875 53.421875 
Q 53.21875 48.921875 51.53125 44.890625 
Q 49.859375 40.875 45.40625 35.40625 
Q 44.1875 33.984375 37.640625 27.21875 
Q 31.109375 20.453125 19.1875 8.296875 
z
" id="DejaVuSans-32"/>
      </defs>
      <g transform="translate(140.439488 322.182437)scale(0.1 -0.1)">
       <use xlink:href="#DejaVuSans-32"/>
       <use x="63.623047" xlink:href="#DejaVuSans-30"/>
       <use x="127.246094" xlink:href="#DejaVuSans-2e"/>
       <use x="159.033203" xlink:href="#DejaVuSans-30"/>
      </g>
     </g>
    </g>
    <g id="xtick_6">
     <g id="line2d_6">
      <g>
       <use style="stroke:#000000;stroke-width:0.8;" x="173.220748" xlink:href="#m68b1ba85d1" y="307.584"/>
      </g>
     </g>
     <g id="text_6">
      <!-- 25.0 -->
      <g transform="translate(162.087936 322.182437)scale(0.1 -0.1)">
       <use xlink:href="#DejaVuSans-32"/>
       <use x="63.623047" xlink:href="#DejaVuSans-35"/>
       <use x="127.246094" xlink:href="#DejaVuSans-2e"/>
       <use x="159.033203" xlink:href="#DejaVuSans-30"/>
      </g>
     </g>
    </g>
    <g id="xtick_7">
     <g id="line2d_7">
      <g>
       <use style="stroke:#000000;stroke-width:0.8;" x="194.869195" xlink:href="#m68b1ba85d1" y="307.584"/>
      </g>
     </g>
     <g id="text_7">
      <!-- 30.0 -->
      <defs>
       <path d="M 40.578125 39.3125 
Q 47.65625 37.796875 51.625 33 
Q 55.609375 28.21875 55.609375 21.1875 
Q 55.609375 10.40625 48.1875 4.484375 
Q 40.765625 -1.421875 27.09375 -1.421875 
Q 22.515625 -1.421875 17.65625 -0.515625 
Q 12.796875 0.390625 7.625 2.203125 
L 7.625 11.71875 
Q 11.71875 9.328125 16.59375 8.109375 
Q 21.484375 6.890625 26.8125 6.890625 
Q 36.078125 6.890625 40.9375 10.546875 
Q 45.796875 14.203125 45.796875 21.1875 
Q 45.796875 27.640625 41.28125 31.265625 
Q 36.765625 34.90625 28.71875 34.90625 
L 20.21875 34.90625 
L 20.21875 43.015625 
L 29.109375 43.015625 
Q 36.375 43.015625 40.234375 45.921875 
Q 44.09375 48.828125 44.09375 54.296875 
Q 44.09375 59.90625 40.109375 62.90625 
Q 36.140625 65.921875 28.71875 65.921875 
Q 24.65625 65.921875 20.015625 65.03125 
Q 15.375 64.15625 9.8125 62.3125 
L 9.8125 71.09375 
Q 15.4375 72.65625 20.34375 73.4375 
Q 25.25 74.21875 29.59375 74.21875 
Q 40.828125 74.21875 47.359375 69.109375 
Q 53.90625 64.015625 53.90625 55.328125 
Q 53.90625 49.265625 50.4375 45.09375 
Q 46.96875 40.921875 40.578125 39.3125 
z
" id="DejaVuSans-33"/>
      </defs>
      <g transform="translate(183.736383 322.182437)scale(0.1 -0.1)">
       <use xlink:href="#DejaVuSans-33"/>
       <use x="63.623047" xlink:href="#DejaVuSans-30"/>
       <use x="127.246094" xlink:href="#DejaVuSans-2e"/>
       <use x="159.033203" xlink:href="#DejaVuSans-30"/>
      </g>
     </g>
    </g>
    <g id="text_8">
     <!-- Minutes -->
     <defs>
      <path d="M 9.8125 72.90625 
L 24.515625 72.90625 
L 43.109375 23.296875 
L 61.8125 72.90625 
L 76.515625 72.90625 
L 76.515625 0 
L 66.890625 0 
L 66.890625 64.015625 
L 48.09375 14.015625 
L 38.1875 14.015625 
L 19.390625 64.015625 
L 19.390625 0 
L 9.8125 0 
z
" id="DejaVuSans-4d"/>
      <path d="M 9.421875 54.6875 
L 18.40625 54.6875 
L 18.40625 0 
L 9.421875 0 
z
M 9.421875 75.984375 
L 18.40625 75.984375 
L 18.40625 64.59375 
L 9.421875 64.59375 
z
" id="DejaVuSans-69"/>
      <path d="M 54.890625 33.015625 
L 54.890625 0 
L 45.90625 0 
L 45.90625 32.71875 
Q 45.90625 40.484375 42.875 44.328125 
Q 39.84375 48.1875 33.796875 48.1875 
Q 26.515625 48.1875 22.3125 43.546875 
Q 18.109375 38.921875 18.109375 30.90625 
L 18.109375 0 
L 9.078125 0 
L 9.078125 54.6875 
L 18.109375 54.6875 
L 18.109375 46.1875 
Q 21.34375 51.125 25.703125 53.5625 
Q 30.078125 56 35.796875 56 
Q 45.21875 56 50.046875 50.171875 
Q 54.890625 44.34375 54.890625 33.015625 
z
" id="DejaVuSans-6e"/>
      <path d="M 8.5 21.578125 
L 8.5 54.6875 
L 17.484375 54.6875 
L 17.484375 21.921875 
Q 17.484375 14.15625 20.5 10.265625 
Q 23.53125 6.390625 29.59375 6.390625 
Q 36.859375 6.390625 41.078125 11.03125 
Q 45.3125 15.671875 45.3125 23.6875 
L 45.3125 54.6875 
L 54.296875 54.6875 
L 54.296875 0 
L 45.3125 0 
L 45.3125 8.40625 
Q 42.046875 3.421875 37.71875 1 
Q 33.40625 -1.421875 27.6875 -1.421875 
Q 18.265625 -1.421875 13.375 4.4375 
Q 8.5 10.296875 8.5 21.578125 
z
M 31.109375 56 
z
" id="DejaVuSans-75"/>
      <path d="M 18.3125 70.21875 
L 18.3125 54.6875 
L 36.8125 54.6875 
L 36.8125 47.703125 
L 18.3125 47.703125 
L 18.3125 18.015625 
Q 18.3125 11.328125 20.140625 9.421875 
Q 21.96875 7.515625 27.59375 7.515625 
L 36.8125 7.515625 
L 36.8125 0 
L 27.59375 0 
Q 17.1875 0 13.234375 3.875 
Q 9.28125 7.765625 9.28125 18.015625 
L 9.28125 47.703125 
L 2.6875 47.703125 
L 2.6875 54.6875 
L 9.28125 54.6875 
L 9.28125 70.21875 
z
" id="DejaVuSans-74"/>
      <path d="M 56.203125 29.59375 
L 56.203125 25.203125 
L 14.890625 25.203125 
Q 15.484375 15.921875 20.484375 11.0625 
Q 25.484375 6.203125 34.421875 6.203125 
Q 39.59375 6.203125 44.453125 7.46875 
Q 49.3125 8.734375 54.109375 11.28125 
L 54.109375 2.78125 
Q 49.265625 0.734375 44.1875 -0.34375 
Q 39.109375 -1.421875 33.890625 -1.421875 
Q 20.796875 -1.421875 13.15625 6.1875 
Q 5.515625 13.8125 5.515625 26.8125 
Q 5.515625 40.234375 12.765625 48.109375 
Q 20.015625 56 32.328125 56 
Q 43.359375 56 49.78125 48.890625 
Q 56.203125 41.796875 56.203125 29.59375 
z
M 47.21875 32.234375 
Q 47.125 39.59375 43.09375 43.984375 
Q 39.0625 48.390625 32.421875 48.390625 
Q 24.90625 48.390625 20.390625 44.140625 
Q 15.875 39.890625 15.1875 32.171875 
z
" id="DejaVuSans-65"/>
      <path d="M 44.28125 53.078125 
L 44.28125 44.578125 
Q 40.484375 46.53125 36.375 47.5 
Q 32.28125 48.484375 27.875 48.484375 
Q 21.1875 48.484375 17.84375 46.4375 
Q 14.5 44.390625 14.5 40.28125 
Q 14.5 37.15625 16.890625 35.375 
Q 19.28125 33.59375 26.515625 31.984375 
L 29.59375 31.296875 
Q 39.15625 29.25 43.1875 25.515625 
Q 47.21875 21.78125 47.21875 15.09375 
Q 47.21875 7.46875 41.1875 3.015625 
Q 35.15625 -1.421875 24.609375 -1.421875 
Q 20.21875 -1.421875 15.453125 -0.5625 
Q 10.6875 0.296875 5.421875 2 
L 5.421875 11.28125 
Q 10.40625 8.6875 15.234375 7.390625 
Q 20.0625 6.109375 24.8125 6.109375 
Q 31.15625 6.109375 34.5625 8.28125 
Q 37.984375 10.453125 37.984375 14.40625 
Q 37.984375 18.0625 35.515625 20.015625 
Q 33.0625 21.96875 24.703125 23.78125 
L 21.578125 24.515625 
Q 13.234375 26.265625 9.515625 29.90625 
Q 5.8125 33.546875 5.8125 39.890625 
Q 5.8125 47.609375 11.28125 51.796875 
Q 16.75 56 26.8125 56 
Q 31.78125 56 36.171875 55.265625 
Q 40.578125 54.546875 44.28125 53.078125 
z
" id="DejaVuSans-73"/>
     </defs>
     <g transform="translate(119.081605 335.860562)scale(0.1 -0.1)">
      <use xlink:href="#DejaVuSans-4d"/>
      <use x="86.279297" xlink:href="#DejaVuSans-69"/>
      <use x="114.0625" xlink:href="#DejaVuSans-6e"/>
      <use x="177.441406" xlink:href="#DejaVuSans-75"/>
      <use x="240.820312" xlink:href="#DejaVuSans-74"/>
      <use x="280.029297" xlink:href="#DejaVuSans-65"/>
      <use x="341.552734" xlink:href="#DejaVuSans-73"/>
     </g>
    </g>
   </g>
   <g id="matplotlib.axis_2">
    <g id="ytick_1">
     <g id="line2d_8">
      <defs>
       <path d="M 0 0 
L -3.5 0 
" id="m7b2ec0ccaf" style="stroke:#000000;stroke-width:0.8;"/>
      </defs>
      <g>
       <use style="stroke:#000000;stroke-width:0.8;" x="57.6" xlink:href="#m7b2ec0ccaf" y="291.062572"/>
      </g>
     </g>
     <g id="text_9">
      <!-- 0.40 -->
      <defs>
       <path d="M 37.796875 64.3125 
L 12.890625 25.390625 
L 37.796875 25.390625 
z
M 35.203125 72.90625 
L 47.609375 72.90625 
L 47.609375 25.390625 
L 58.015625 25.390625 
L 58.015625 17.1875 
L 47.609375 17.1875 
L 47.609375 0 
L 37.796875 0 
L 37.796875 17.1875 
L 4.890625 17.1875 
L 4.890625 26.703125 
z
" id="DejaVuSans-34"/>
      </defs>
      <g transform="translate(28.334375 294.86179)scale(0.1 -0.1)">
       <use xlink:href="#DejaVuSans-30"/>
       <use x="63.623047" xlink:href="#DejaVuSans-2e"/>
       <use x="95.410156" xlink:href="#DejaVuSans-34"/>
       <use x="159.033203" xlink:href="#DejaVuSans-30"/>
      </g>
     </g>
    </g>
    <g id="ytick_2">
     <g id="line2d_9">
      <g>
       <use style="stroke:#000000;stroke-width:0.8;" x="57.6" xlink:href="#m7b2ec0ccaf" y="241.071741"/>
      </g>
     </g>
     <g id="text_10">
      <!-- 0.42 -->
      <g transform="translate(28.334375 244.87096)scale(0.1 -0.1)">
       <use xlink:href="#DejaVuSans-30"/>
       <use x="63.623047" xlink:href="#DejaVuSans-2e"/>
       <use x="95.410156" xlink:href="#DejaVuSans-34"/>
       <use x="159.033203" xlink:href="#DejaVuSans-32"/>
      </g>
     </g>
    </g>
    <g id="ytick_3">
     <g id="line2d_10">
      <g>
       <use style="stroke:#000000;stroke-width:0.8;" x="57.6" xlink:href="#m7b2ec0ccaf" y="191.08091"/>
      </g>
     </g>
     <g id="text_11">
      <!-- 0.44 -->
      <g transform="translate(28.334375 194.880129)scale(0.1 -0.1)">
       <use xlink:href="#DejaVuSans-30"/>
       <use x="63.623047" xlink:href="#DejaVuSans-2e"/>
       <use x="95.410156" xlink:href="#DejaVuSans-34"/>
       <use x="159.033203" xlink:href="#DejaVuSans-34"/>
      </g>
     </g>
    </g>
    <g id="ytick_4">
     <g id="line2d_11">
      <g>
       <use style="stroke:#000000;stroke-width:0.8;" x="57.6" xlink:href="#m7b2ec0ccaf" y="141.09008"/>
      </g>
     </g>
     <g id="text_12">
      <!-- 0.46 -->
      <defs>
       <path d="M 33.015625 40.375 
Q 26.375 40.375 22.484375 35.828125 
Q 18.609375 31.296875 18.609375 23.390625 
Q 18.609375 15.53125 22.484375 10.953125 
Q 26.375 6.390625 33.015625 6.390625 
Q 39.65625 6.390625 43.53125 10.953125 
Q 47.40625 15.53125 47.40625 23.390625 
Q 47.40625 31.296875 43.53125 35.828125 
Q 39.65625 40.375 33.015625 40.375 
z
M 52.59375 71.296875 
L 52.59375 62.3125 
Q 48.875 64.0625 45.09375 64.984375 
Q 41.3125 65.921875 37.59375 65.921875 
Q 27.828125 65.921875 22.671875 59.328125 
Q 17.53125 52.734375 16.796875 39.40625 
Q 19.671875 43.65625 24.015625 45.921875 
Q 28.375 48.1875 33.59375 48.1875 
Q 44.578125 48.1875 50.953125 41.515625 
Q 57.328125 34.859375 57.328125 23.390625 
Q 57.328125 12.15625 50.6875 5.359375 
Q 44.046875 -1.421875 33.015625 -1.421875 
Q 20.359375 -1.421875 13.671875 8.265625 
Q 6.984375 17.96875 6.984375 36.375 
Q 6.984375 53.65625 15.1875 63.9375 
Q 23.390625 74.21875 37.203125 74.21875 
Q 40.921875 74.21875 44.703125 73.484375 
Q 48.484375 72.75 52.59375 71.296875 
z
" id="DejaVuSans-36"/>
      </defs>
      <g transform="translate(28.334375 144.889298)scale(0.1 -0.1)">
       <use xlink:href="#DejaVuSans-30"/>
       <use x="63.623047" xlink:href="#DejaVuSans-2e"/>
       <use x="95.410156" xlink:href="#DejaVuSans-34"/>
       <use x="159.033203" xlink:href="#DejaVuSans-36"/>
      </g>
     </g>
    </g>
    <g id="ytick_5">
     <g id="line2d_12">
      <g>
       <use style="stroke:#000000;stroke-width:0.8;" x="57.6" xlink:href="#m7b2ec0ccaf" y="91.099249"/>
      </g>
     </g>
     <g id="text_13">
      <!-- 0.48 -->
      <defs>
       <path d="M 31.78125 34.625 
Q 24.75 34.625 20.71875 30.859375 
Q 16.703125 27.09375 16.703125 20.515625 
Q 16.703125 13.921875 20.71875 10.15625 
Q 24.75 6.390625 31.78125 6.390625 
Q 38.8125 6.390625 42.859375 10.171875 
Q 46.921875 13.96875 46.921875 20.515625 
Q 46.921875 27.09375 42.890625 30.859375 
Q 38.875 34.625 31.78125 34.625 
z
M 21.921875 38.8125 
Q 15.578125 40.375 12.03125 44.71875 
Q 8.5 49.078125 8.5 55.328125 
Q 8.5 64.0625 14.71875 69.140625 
Q 20.953125 74.21875 31.78125 74.21875 
Q 42.671875 74.21875 48.875 69.140625 
Q 55.078125 64.0625 55.078125 55.328125 
Q 55.078125 49.078125 51.53125 44.71875 
Q 48 40.375 41.703125 38.8125 
Q 48.828125 37.15625 52.796875 32.3125 
Q 56.78125 27.484375 56.78125 20.515625 
Q 56.78125 9.90625 50.3125 4.234375 
Q 43.84375 -1.421875 31.78125 -1.421875 
Q 19.734375 -1.421875 13.25 4.234375 
Q 6.78125 9.90625 6.78125 20.515625 
Q 6.78125 27.484375 10.78125 32.3125 
Q 14.796875 37.15625 21.921875 38.8125 
z
M 18.3125 54.390625 
Q 18.3125 48.734375 21.84375 45.5625 
Q 25.390625 42.390625 31.78125 42.390625 
Q 38.140625 42.390625 41.71875 45.5625 
Q 45.3125 48.734375 45.3125 54.390625 
Q 45.3125 60.0625 41.71875 63.234375 
Q 38.140625 66.40625 31.78125 66.40625 
Q 25.390625 66.40625 21.84375 63.234375 
Q 18.3125 60.0625 18.3125 54.390625 
z
" id="DejaVuSans-38"/>
      </defs>
      <g transform="translate(28.334375 94.898468)scale(0.1 -0.1)">
       <use xlink:href="#DejaVuSans-30"/>
       <use x="63.623047" xlink:href="#DejaVuSans-2e"/>
       <use x="95.410156" xlink:href="#DejaVuSans-34"/>
       <use x="159.033203" xlink:href="#DejaVuSans-38"/>
      </g>
     </g>
    </g>
    <g id="ytick_6">
     <g id="line2d_13">
      <g>
       <use style="stroke:#000000;stroke-width:0.8;" x="57.6" xlink:href="#m7b2ec0ccaf" y="41.108418"/>
      </g>
     </g>
     <g id="text_14">
      <!-- 0.50 -->
      <g transform="translate(28.334375 44.907637)scale(0.1 -0.1)">
       <use xlink:href="#DejaVuSans-30"/>
       <use x="63.623047" xlink:href="#DejaVuSans-2e"/>
       <use x="95.410156" xlink:href="#DejaVuSans-35"/>
       <use x="159.033203" xlink:href="#DejaVuSans-30"/>
      </g>
     </g>
    </g>
   </g>
   <g id="line2d_14">
    <path clip-path="url(#p149c192ae5)" d="M 64.978512 160.017168 
L 65.33932 180.411508 
L 65.700127 170.91053 
L 66.060935 149.779046 
L 66.421742 147.321897 
L 66.78255 167.470521 
L 67.143357 118.982775 
L 67.504165 136.100915 
L 67.864972 168.185328 
L 68.225779 165.996232 
L 68.586587 131.350426 
L 68.947394 137.902825 
L 69.308202 133.807576 
L 69.669009 173.20387 
L 70.029817 124.306598 
L 70.390624 100.14463 
L 70.751432 178.609598 
L 71.112239 205.861618 
L 71.473047 210.403621 
L 71.833854 210.552539 
L 72.194661 206.531749 
L 72.555469 194.417259 
L 72.916276 143.963793 
L 73.277084 128.483752 
L 73.637891 127.009463 
L 73.998699 166.241947 
L 74.359506 108.580843 
L 74.720314 98.706743 
L 75.081121 103.175114 
L 75.441929 131.432331 
L 75.802736 128.893277 
L 76.163543 89.415078 
L 76.524351 158.460974 
L 76.885158 176.807689 
L 77.245966 134.053291 
L 77.606773 100.79987 
L 77.967581 169.026716 
L 78.328388 115.706576 
L 78.689196 108.498938 
L 79.050003 160.426693 
L 79.41081 120.04754 
L 79.771618 128.565657 
L 80.132425 186.576718 
L 80.493233 212.637393 
L 80.85404 192.756821 
L 81.214848 177.939466 
L 81.575655 169.272431 
L 81.936463 97.851291 
L 82.29727 138.476159 
L 82.658078 173.397463 
L 83.018885 136.100915 
L 83.379692 83.599825 
L 83.7405 92.363657 
L 84.101307 148.140947 
L 84.462115 92.691277 
L 84.822922 110.792277 
L 85.18373 123.978978 
L 85.544537 122.914214 
L 85.905345 111.775137 
L 86.266152 132.906621 
L 86.62696 89.060157 
L 86.987767 93.510327 
L 87.348574 127.255178 
L 87.709382 103.748449 
L 88.070189 221.274645 
L 88.430997 251.951782 
L 88.791804 282.703378 
L 89.152612 244.356957 
L 89.513419 199.979351 
L 89.874227 190.076295 
L 90.235034 196.703152 
L 90.595842 145.847607 
L 90.956649 153.382865 
L 91.317456 167.798141 
L 91.678264 134.135196 
L 92.039071 122.668499 
L 92.399879 205.064906 
L 92.760686 196.03302 
L 93.121494 252.1007 
L 93.482301 162.824275 
L 93.843109 191.639935 
L 94.203916 178.200073 
L 94.564723 140.687594 
L 94.925531 135.445675 
L 95.286338 186.390571 
L 95.647146 206.084995 
L 96.007953 243.686825 
L 96.368761 178.609598 
L 96.729568 207.797553 
L 97.090376 174.812185 
L 97.451183 163.375272 
L 97.811991 128.729467 
L 98.172798 97.196051 
L 98.533605 168.617191 
L 98.894413 97.851291 
L 99.25522 152.236195 
L 99.616028 109.645607 
L 99.976835 138.803779 
L 100.337643 160.918123 
L 100.69845 124.879933 
L 101.059258 151.580956 
L 101.420065 167.388616 
L 101.780873 122.586594 
L 102.14168 137.247585 
L 102.502487 135.8552 
L 102.863295 156.740969 
L 103.224102 126.436128 
L 103.58491 108.990368 
L 103.945717 98.015101 
L 104.306525 114.478001 
L 104.667332 136.34663 
L 105.02814 87.240046 
L 105.388947 87.285549 
L 105.749754 138.230444 
L 106.110562 140.523784 
L 106.471369 154.693345 
L 106.832177 139.540924 
L 107.192984 170.4191 
L 107.553792 243.984661 
L 107.914599 295.488 
" style="fill:none;stroke:#0000ff;stroke-linecap:square;stroke-width:1.5;"/>
   </g>
   <g id="line2d_15">
    <path clip-path="url(#p149c192ae5)" d="M 108.275407 167.142901 
L 108.636214 158.654567 
L 108.997022 201.617451 
L 109.357829 184.588661 
L 109.718636 145.929512 
L 110.079444 174.737726 
L 110.440251 213.754279 
L 110.801059 200.05381 
L 111.161866 158.133354 
L 111.522674 167.470521 
L 111.883481 117.508485 
L 112.244289 141.342834 
L 112.605096 152.80953 
L 112.965904 143.308553 
L 113.326711 114.396096 
L 113.687518 106.806235 
L 114.048326 128.975182 
L 114.409133 104.321784 
L 114.769941 124.634218 
L 115.130748 110.055132 
L 115.491556 171.156245 
L 115.852363 88.596028 
L 116.213171 123.569454 
L 116.573978 142.899028 
L 116.934786 142.653313 
L 117.295593 132.333286 
L 117.6564 194.543839 
L 118.017208 208.542144 
L 118.378015 204.000141 
L 118.738823 223.136122 
L 119.09963 225.742189 
L 119.460438 216.658183 
L 119.821245 199.085842 
L 120.182053 191.304869 
L 120.54286 217.328314 
L 120.903667 168.699096 
L 121.264475 156.003824 
L 121.625282 142.653313 
L 121.98609 148.878091 
L 122.346897 126.763748 
L 122.707705 165.579261 
L 123.068512 183.687707 
L 123.42932 190.895345 
L 123.790127 218.519659 
L 124.150935 172.630535 
L 124.511742 149.942856 
L 124.872549 149.451426 
L 125.233357 120.21135 
L 125.594164 167.21736 
L 125.954972 172.22101 
L 126.315779 99.407485 
L 126.676587 140.278069 
L 127.037394 91.462703 
L 127.398202 159.853358 
L 127.759009 131.596141 
L 128.119817 152.400005 
L 128.480624 131.759951 
L 128.841431 147.731422 
L 129.202239 223.582876 
L 129.563046 191.468679 
L 129.923854 161.982888 
L 130.284661 154.93906 
L 130.645469 133.316146 
L 131.006276 136.67425 
L 131.367084 95.885571 
L 131.727891 105.386549 
L 132.088698 133.152336 
L 132.449506 86.957929 
L 132.810313 124.879933 
L 133.171121 108.444334 
L 133.531928 73.771228 
L 133.892736 116.607531 
L 134.253543 85.965969 
L 134.614351 87.449359 
L 134.975158 166.405756 
L 135.335966 185.534292 
L 135.696773 208.616603 
L 136.05758 186.226761 
L 136.418388 168.125761 
L 136.779195 158.542879 
L 137.140003 132.579001 
L 137.50081 134.87234 
L 137.861618 131.186616 
L 138.222425 184.640783 
L 138.583233 147.977137 
L 138.94404 85.401734 
L 139.304848 130.940901 
L 139.665655 67.036818 
L 140.026462 86.056974 
L 140.38727 165.750517 
L 140.748077 175.035563 
L 141.108885 200.05381 
L 141.469692 190.820885 
L 141.8305 190.076295 
L 142.191307 192.08669 
L 142.552115 170.25529 
L 142.912922 164.112417 
L 143.27373 139.377114 
L 143.634537 146.912372 
L 143.995344 149.369521 
L 144.356152 145.028557 
L 144.716959 148.304757 
L 145.077767 156.331444 
L 145.438574 150.516191 
L 145.799382 123.651359 
L 146.160189 165.422897 
L 146.520997 161.491458 
L 146.881804 188.140359 
L 147.242611 203.181091 
L 147.603419 152.072386 
L 147.964226 200.150607 
L 148.325034 188.88495 
L 148.685841 188.959409 
L 149.046649 159.525738 
L 149.407456 89.660793 
L 149.768264 142.735218 
L 150.129071 116.93515 
L 150.489879 214.49887 
" style="fill:none;stroke:#ff0000;stroke-linecap:square;stroke-width:1.5;"/>
   </g>
   <g id="line2d_16">
    <path clip-path="url(#p149c192ae5)" d="M 150.850686 93.701439 
L 151.211493 96.049381 
L 151.572301 175.110022 
L 151.933108 182.377227 
L 152.293916 140.359974 
L 152.654723 163.293367 
L 153.015531 163.047652 
L 153.376338 189.17534 
L 153.737146 174.588808 
L 154.097953 198.266792 
L 154.458761 187.470227 
L 154.819568 212.637393 
L 155.180375 208.542144 
L 155.541183 189.83058 
L 155.90199 158.624784 
L 156.262798 161.900983 
L 156.623605 136.756155 
L 156.984413 132.415191 
L 157.34522 147.239992 
L 157.706028 126.927558 
L 158.066835 156.822874 
L 158.427643 85.729354 
L 158.78845 119.22849 
L 159.149257 82.68977 
L 159.510065 104.895119 
L 159.870872 143.636173 
L 160.23168 166.770606 
L 160.592487 162.474318 
L 160.953295 161.163838 
L 161.314102 143.472363 
L 161.67491 164.112417 
L 162.396524 114.969431 
L 162.757332 154.44763 
L 163.118139 121.112304 
L 163.839754 75.573137 
L 164.200562 192.310067 
L 164.561369 202.659878 
L 164.922177 183.002683 
L 165.282984 203.25555 
L 165.643792 167.21736 
L 166.004599 220.157759 
L 166.365406 184.268487 
L 167.087021 192.310067 
L 167.447829 200.649483 
L 167.808636 167.306711 
L 168.169444 122.422784 
L 168.530251 141.670453 
L 168.891059 154.12001 
L 169.251866 113.413236 
L 169.612674 160.754313 
L 169.973481 123.978978 
L 170.334288 125.617078 
L 170.695096 187.544686 
L 171.055903 191.788853 
L 171.416711 193.129117 
L 171.777518 190.969804 
L 172.499133 108.335128 
L 172.859941 162.228603 
L 173.220748 151.253336 
L 173.581555 132.169476 
L 173.942363 144.946653 
L 174.30317 212.935229 
L 174.663978 145.356177 
L 175.024785 145.356177 
L 175.385593 211.29713 
L 175.7464 139.868544 
L 176.107208 154.93906 
L 176.468015 147.813327 
L 177.18963 170.568018 
L 177.550437 193.873707 
L 177.911245 180.694452 
L 178.272052 212.116179 
L 178.63286 211.222671 
L 178.993667 143.062838 
L 179.354475 216.434806 
L 179.715282 160.754313 
L 180.436897 173.367679 
L 180.797705 145.110462 
L 181.158512 137.902825 
L 181.519319 128.319942 
L 181.880127 207.574176 
L 182.240934 149.451426 
L 182.601742 157.641924 
L 182.962549 162.965747 
L 183.323357 159.935263 
L 184.044972 115.133241 
L 184.405779 157.641924 
L 184.766587 103.011304 
L 185.127394 153.46477 
L 185.849009 101.537015 
L 186.209816 125.944698 
L 186.570624 97.114146 
L 186.931431 141.998073 
L 187.292239 124.142788 
L 187.653046 181.215665 
L 188.013854 265.577792 
L 188.374661 205.191486 
L 188.735468 199.577272 
L 189.096276 196.256398 
L 189.457083 202.659878 
L 189.817891 195.154403 
L 190.178698 147.895232 
L 190.539506 120.21135 
L 190.900313 115.788481 
L 191.261121 150.598096 
L 191.621928 101.209395 
L 191.982736 146.666657 
L 192.343543 115.788481 
L 192.70435 159.473617 
L 193.065158 138.394254 
L 193.425965 125.207553 
L 193.786773 131.350426 
L 194.14758 108.908463 
L 194.508388 139.868544 
L 194.869195 79.422671 
L 195.230003 108.826558 
L 195.59081 151.990481 
L 195.951618 82.453155 
L 196.312425 124.961838 
L 196.673232 88.878146 
L 197.03404 81.38839 
L 197.394847 116.198006 
L 198.116462 64.92549 
L 198.47727 115.870386 
L 199.198885 72.296938 
L 199.559692 157.314304 
L 199.9205 116.034196 
L 200.281307 89.151162 
L 200.642114 86.302689 
L 201.002922 143.308553 
L 201.363729 59.847382 
L 201.724537 93.674137 
L 202.085344 180.992288 
L 202.446152 229.316225 
L 202.806959 160.180978 
L 203.167767 137.575205 
L 203.528574 217.775069 
L 203.889381 166.323851 
L 204.250189 179.920078 
L 204.610996 139.540924 
L 204.971804 152.3181 
L 205.332611 120.620874 
L 205.693419 169.600051 
L 206.054226 193.270589 
L 206.415034 171.163691 
L 206.775841 201.69191 
L 207.136649 184.86416 
L 207.497456 224.029631 
L 207.858263 178.937218 
L 208.219071 154.201915 
L 208.579878 164.767657 
L 209.662301 53.568 
L 210.383916 117.180865 
L 210.744723 80.050609 
L 211.105531 79.013146 
L 211.466338 140.933309 
L 211.827145 87.203644 
L 212.187953 164.112417 
L 212.54876 184.65009 
L 212.54876 184.65009 
" style="fill:none;stroke:#000000;stroke-linecap:square;stroke-width:1.5;"/>
   </g>
   <g id="patch_3">
    <path d="M 57.6 307.584 
L 57.6 41.472 
" style="fill:none;stroke:#000000;stroke-linecap:square;stroke-linejoin:miter;stroke-width:0.8;"/>
   </g>
   <g id="patch_4">
    <path d="M 219.927273 307.584 
L 219.927273 41.472 
" style="fill:none;stroke:#000000;stroke-linecap:square;stroke-linejoin:miter;stroke-width:0.8;"/>
   </g>
   <g id="patch_5">
    <path d="M 57.6 307.584 
L 219.927273 307.584 
" style="fill:none;stroke:#000000;stroke-linecap:square;stroke-linejoin:miter;stroke-width:0.8;"/>
   </g>
   <g id="patch_6">
    <path d="M 57.6 41.472 
L 219.927273 41.472 
" style="fill:none;stroke:#000000;stroke-linecap:square;stroke-linejoin:miter;stroke-width:0.8;"/>
   </g>
   <g id="text_15">
    <!-- IBI - Reg vs Stress -->
    <defs>
     <path d="M 9.8125 72.90625 
L 19.671875 72.90625 
L 19.671875 0 
L 9.8125 0 
z
" id="DejaVuSans-49"/>
     <path d="M 19.671875 34.8125 
L 19.671875 8.109375 
L 35.5 8.109375 
Q 43.453125 8.109375 47.28125 11.40625 
Q 51.125 14.703125 51.125 21.484375 
Q 51.125 28.328125 47.28125 31.5625 
Q 43.453125 34.8125 35.5 34.8125 
z
M 19.671875 64.796875 
L 19.671875 42.828125 
L 34.28125 42.828125 
Q 41.5 42.828125 45.03125 45.53125 
Q 48.578125 48.25 48.578125 53.8125 
Q 48.578125 59.328125 45.03125 62.0625 
Q 41.5 64.796875 34.28125 64.796875 
z
M 9.8125 72.90625 
L 35.015625 72.90625 
Q 46.296875 72.90625 52.390625 68.21875 
Q 58.5 63.53125 58.5 54.890625 
Q 58.5 48.1875 55.375 44.234375 
Q 52.25 40.28125 46.1875 39.3125 
Q 53.46875 37.75 57.5 32.78125 
Q 61.53125 27.828125 61.53125 20.40625 
Q 61.53125 10.640625 54.890625 5.3125 
Q 48.25 0 35.984375 0 
L 9.8125 0 
z
" id="DejaVuSans-42"/>
     <path id="DejaVuSans-20"/>
     <path d="M 4.890625 31.390625 
L 31.203125 31.390625 
L 31.203125 23.390625 
L 4.890625 23.390625 
z
" id="DejaVuSans-2d"/>
     <path d="M 44.390625 34.1875 
Q 47.5625 33.109375 50.5625 29.59375 
Q 53.5625 26.078125 56.59375 19.921875 
L 66.609375 0 
L 56 0 
L 46.6875 18.703125 
Q 43.0625 26.03125 39.671875 28.421875 
Q 36.28125 30.8125 30.421875 30.8125 
L 19.671875 30.8125 
L 19.671875 0 
L 9.8125 0 
L 9.8125 72.90625 
L 32.078125 72.90625 
Q 44.578125 72.90625 50.734375 67.671875 
Q 56.890625 62.453125 56.890625 51.90625 
Q 56.890625 45.015625 53.6875 40.46875 
Q 50.484375 35.9375 44.390625 34.1875 
z
M 19.671875 64.796875 
L 19.671875 38.921875 
L 32.078125 38.921875 
Q 39.203125 38.921875 42.84375 42.21875 
Q 46.484375 45.515625 46.484375 51.90625 
Q 46.484375 58.296875 42.84375 61.546875 
Q 39.203125 64.796875 32.078125 64.796875 
z
" id="DejaVuSans-52"/>
     <path d="M 45.40625 27.984375 
Q 45.40625 37.75 41.375 43.109375 
Q 37.359375 48.484375 30.078125 48.484375 
Q 22.859375 48.484375 18.828125 43.109375 
Q 14.796875 37.75 14.796875 27.984375 
Q 14.796875 18.265625 18.828125 12.890625 
Q 22.859375 7.515625 30.078125 7.515625 
Q 37.359375 7.515625 41.375 12.890625 
Q 45.40625 18.265625 45.40625 27.984375 
z
M 54.390625 6.78125 
Q 54.390625 -7.171875 48.1875 -13.984375 
Q 42 -20.796875 29.203125 -20.796875 
Q 24.46875 -20.796875 20.265625 -20.09375 
Q 16.0625 -19.390625 12.109375 -17.921875 
L 12.109375 -9.1875 
Q 16.0625 -11.328125 19.921875 -12.34375 
Q 23.78125 -13.375 27.78125 -13.375 
Q 36.625 -13.375 41.015625 -8.765625 
Q 45.40625 -4.15625 45.40625 5.171875 
L 45.40625 9.625 
Q 42.625 4.78125 38.28125 2.390625 
Q 33.9375 0 27.875 0 
Q 17.828125 0 11.671875 7.65625 
Q 5.515625 15.328125 5.515625 27.984375 
Q 5.515625 40.671875 11.671875 48.328125 
Q 17.828125 56 27.875 56 
Q 33.9375 56 38.28125 53.609375 
Q 42.625 51.21875 45.40625 46.390625 
L 45.40625 54.6875 
L 54.390625 54.6875 
z
" id="DejaVuSans-67"/>
     <path d="M 2.984375 54.6875 
L 12.5 54.6875 
L 29.59375 8.796875 
L 46.6875 54.6875 
L 56.203125 54.6875 
L 35.6875 0 
L 23.484375 0 
z
" id="DejaVuSans-76"/>
     <path d="M 53.515625 70.515625 
L 53.515625 60.890625 
Q 47.90625 63.578125 42.921875 64.890625 
Q 37.9375 66.21875 33.296875 66.21875 
Q 25.25 66.21875 20.875 63.09375 
Q 16.5 59.96875 16.5 54.203125 
Q 16.5 49.359375 19.40625 46.890625 
Q 22.3125 44.4375 30.421875 42.921875 
L 36.375 41.703125 
Q 47.40625 39.59375 52.65625 34.296875 
Q 57.90625 29 57.90625 20.125 
Q 57.90625 9.515625 50.796875 4.046875 
Q 43.703125 -1.421875 29.984375 -1.421875 
Q 24.8125 -1.421875 18.96875 -0.25 
Q 13.140625 0.921875 6.890625 3.21875 
L 6.890625 13.375 
Q 12.890625 10.015625 18.65625 8.296875 
Q 24.421875 6.59375 29.984375 6.59375 
Q 38.421875 6.59375 43.015625 9.90625 
Q 47.609375 13.234375 47.609375 19.390625 
Q 47.609375 24.75 44.3125 27.78125 
Q 41.015625 30.8125 33.5 32.328125 
L 27.484375 33.5 
Q 16.453125 35.6875 11.515625 40.375 
Q 6.59375 45.0625 6.59375 53.421875 
Q 6.59375 63.09375 13.40625 68.65625 
Q 20.21875 74.21875 32.171875 74.21875 
Q 37.3125 74.21875 42.625 73.28125 
Q 47.953125 72.359375 53.515625 70.515625 
z
" id="DejaVuSans-53"/>
     <path d="M 41.109375 46.296875 
Q 39.59375 47.171875 37.8125 47.578125 
Q 36.03125 48 33.890625 48 
Q 26.265625 48 22.1875 43.046875 
Q 18.109375 38.09375 18.109375 28.8125 
L 18.109375 0 
L 9.078125 0 
L 9.078125 54.6875 
L 18.109375 54.6875 
L 18.109375 46.1875 
Q 20.953125 51.171875 25.484375 53.578125 
Q 30.03125 56 36.53125 56 
Q 37.453125 56 38.578125 55.875 
Q 39.703125 55.765625 41.0625 55.515625 
z
" id="DejaVuSans-72"/>
    </defs>
    <g transform="translate(84.402699 35.472)scale(0.12 -0.12)">
     <use xlink:href="#DejaVuSans-49"/>
     <use x="29.492188" xlink:href="#DejaVuSans-42"/>
     <use x="98.095703" xlink:href="#DejaVuSans-49"/>
     <use x="127.587891" xlink:href="#DejaVuSans-20"/>
     <use x="159.375" xlink:href="#DejaVuSans-2d"/>
     <use x="195.458984" xlink:href="#DejaVuSans-20"/>
     <use x="227.246094" xlink:href="#DejaVuSans-52"/>
     <use x="296.666016" xlink:href="#DejaVuSans-65"/>
     <use x="358.189453" xlink:href="#DejaVuSans-67"/>
     <use x="421.666016" xlink:href="#DejaVuSans-20"/>
     <use x="453.453125" xlink:href="#DejaVuSans-76"/>
     <use x="512.632812" xlink:href="#DejaVuSans-73"/>
     <use x="564.732422" xlink:href="#DejaVuSans-20"/>
     <use x="596.519531" xlink:href="#DejaVuSans-53"/>
     <use x="659.996094" xlink:href="#DejaVuSans-74"/>
     <use x="699.205078" xlink:href="#DejaVuSans-72"/>
     <use x="740.287109" xlink:href="#DejaVuSans-65"/>
     <use x="801.810547" xlink:href="#DejaVuSans-73"/>
     <use x="853.910156" xlink:href="#DejaVuSans-73"/>
    </g>
   </g>
   <g id="legend_1">
    <g id="patch_7">
     <path d="M 143.71946 302.584 
L 212.927273 302.584 
Q 214.927273 302.584 214.927273 300.584 
L 214.927273 257.549625 
Q 214.927273 255.549625 212.927273 255.549625 
L 143.71946 255.549625 
Q 141.71946 255.549625 141.71946 257.549625 
L 141.71946 300.584 
Q 141.71946 302.584 143.71946 302.584 
z
" style="fill:#ffffff;opacity:0.8;stroke:#cccccc;stroke-linejoin:miter;"/>
    </g>
    <g id="line2d_17">
     <path d="M 145.71946 263.648062 
L 165.71946 263.648062 
" style="fill:none;stroke:#0000ff;stroke-linecap:square;stroke-width:1.5;"/>
    </g>
    <g id="line2d_18"/>
    <g id="text_16">
     <!-- Reg -->
     <g transform="translate(173.71946 267.148062)scale(0.1 -0.1)">
      <use xlink:href="#DejaVuSans-52"/>
      <use x="69.419922" xlink:href="#DejaVuSans-65"/>
      <use x="130.943359" xlink:href="#DejaVuSans-67"/>
     </g>
    </g>
    <g id="line2d_19">
     <path d="M 145.71946 278.326188 
L 165.71946 278.326188 
" style="fill:none;stroke:#ff0000;stroke-linecap:square;stroke-width:1.5;"/>
    </g>
    <g id="line2d_20"/>
    <g id="text_17">
     <!-- Stress -->
     <g transform="translate(173.71946 281.826188)scale(0.1 -0.1)">
      <use xlink:href="#DejaVuSans-53"/>
      <use x="63.476562" xlink:href="#DejaVuSans-74"/>
      <use x="102.685547" xlink:href="#DejaVuSans-72"/>
      <use x="143.767578" xlink:href="#DejaVuSans-65"/>
      <use x="205.291016" xlink:href="#DejaVuSans-73"/>
      <use x="257.390625" xlink:href="#DejaVuSans-73"/>
     </g>
    </g>
    <g id="line2d_21">
     <path d="M 145.71946 293.004312 
L 165.71946 293.004312 
" style="fill:none;stroke:#000000;stroke-linecap:square;stroke-width:1.5;"/>
    </g>
    <g id="line2d_22"/>
    <g id="text_18">
     <!-- Block C -->
     <defs>
      <path d="M 9.421875 75.984375 
L 18.40625 75.984375 
L 18.40625 0 
L 9.421875 0 
z
" id="DejaVuSans-6c"/>
      <path d="M 30.609375 48.390625 
Q 23.390625 48.390625 19.1875 42.75 
Q 14.984375 37.109375 14.984375 27.296875 
Q 14.984375 17.484375 19.15625 11.84375 
Q 23.34375 6.203125 30.609375 6.203125 
Q 37.796875 6.203125 41.984375 11.859375 
Q 46.1875 17.53125 46.1875 27.296875 
Q 46.1875 37.015625 41.984375 42.703125 
Q 37.796875 48.390625 30.609375 48.390625 
z
M 30.609375 56 
Q 42.328125 56 49.015625 48.375 
Q 55.71875 40.765625 55.71875 27.296875 
Q 55.71875 13.875 49.015625 6.21875 
Q 42.328125 -1.421875 30.609375 -1.421875 
Q 18.84375 -1.421875 12.171875 6.21875 
Q 5.515625 13.875 5.515625 27.296875 
Q 5.515625 40.765625 12.171875 48.375 
Q 18.84375 56 30.609375 56 
z
" id="DejaVuSans-6f"/>
      <path d="M 48.78125 52.59375 
L 48.78125 44.1875 
Q 44.96875 46.296875 41.140625 47.34375 
Q 37.3125 48.390625 33.40625 48.390625 
Q 24.65625 48.390625 19.8125 42.84375 
Q 14.984375 37.3125 14.984375 27.296875 
Q 14.984375 17.28125 19.8125 11.734375 
Q 24.65625 6.203125 33.40625 6.203125 
Q 37.3125 6.203125 41.140625 7.25 
Q 44.96875 8.296875 48.78125 10.40625 
L 48.78125 2.09375 
Q 45.015625 0.34375 40.984375 -0.53125 
Q 36.96875 -1.421875 32.421875 -1.421875 
Q 20.0625 -1.421875 12.78125 6.34375 
Q 5.515625 14.109375 5.515625 27.296875 
Q 5.515625 40.671875 12.859375 48.328125 
Q 20.21875 56 33.015625 56 
Q 37.15625 56 41.109375 55.140625 
Q 45.0625 54.296875 48.78125 52.59375 
z
" id="DejaVuSans-63"/>
      <path d="M 9.078125 75.984375 
L 18.109375 75.984375 
L 18.109375 31.109375 
L 44.921875 54.6875 
L 56.390625 54.6875 
L 27.390625 29.109375 
L 57.625 0 
L 45.90625 0 
L 18.109375 26.703125 
L 18.109375 0 
L 9.078125 0 
z
" id="DejaVuSans-6b"/>
      <path d="M 64.40625 67.28125 
L 64.40625 56.890625 
Q 59.421875 61.53125 53.78125 63.8125 
Q 48.140625 66.109375 41.796875 66.109375 
Q 29.296875 66.109375 22.65625 58.46875 
Q 16.015625 50.828125 16.015625 36.375 
Q 16.015625 21.96875 22.65625 14.328125 
Q 29.296875 6.6875 41.796875 6.6875 
Q 48.140625 6.6875 53.78125 8.984375 
Q 59.421875 11.28125 64.40625 15.921875 
L 64.40625 5.609375 
Q 59.234375 2.09375 53.4375 0.328125 
Q 47.65625 -1.421875 41.21875 -1.421875 
Q 24.65625 -1.421875 15.125 8.703125 
Q 5.609375 18.84375 5.609375 36.375 
Q 5.609375 53.953125 15.125 64.078125 
Q 24.65625 74.21875 41.21875 74.21875 
Q 47.75 74.21875 53.53125 72.484375 
Q 59.328125 70.75 64.40625 67.28125 
z
" id="DejaVuSans-43"/>
     </defs>
     <g transform="translate(173.71946 296.504312)scale(0.1 -0.1)">
      <use xlink:href="#DejaVuSans-42"/>
      <use x="68.603516" xlink:href="#DejaVuSans-6c"/>
      <use x="96.386719" xlink:href="#DejaVuSans-6f"/>
      <use x="157.568359" xlink:href="#DejaVuSans-63"/>
      <use x="212.548828" xlink:href="#DejaVuSans-6b"/>
      <use x="270.458984" xlink:href="#DejaVuSans-20"/>
      <use x="302.246094" xlink:href="#DejaVuSans-43"/>
     </g>
    </g>
   </g>
  </g>
  <g id="axes_2">
   <g id="patch_8">
    <path d="M 252.392727 307.584 
L 414.72 307.584 
L 414.72 41.472 
L 252.392727 41.472 
z
" style="fill:#ffffff;"/>
   </g>
   <g id="matplotlib.axis_3">
    <g id="xtick_8">
     <g id="line2d_23">
      <g>
       <use style="stroke:#000000;stroke-width:0.8;" x="259.77124" xlink:href="#m68b1ba85d1" y="307.584"/>
      </g>
     </g>
     <g id="text_19">
      <!-- 0.0 -->
      <g transform="translate(251.819677 322.182437)scale(0.1 -0.1)">
       <use xlink:href="#DejaVuSans-30"/>
       <use x="63.623047" xlink:href="#DejaVuSans-2e"/>
       <use x="95.410156" xlink:href="#DejaVuSans-30"/>
      </g>
     </g>
    </g>
    <g id="xtick_9">
     <g id="line2d_24">
      <g>
       <use style="stroke:#000000;stroke-width:0.8;" x="281.419687" xlink:href="#m68b1ba85d1" y="307.584"/>
      </g>
     </g>
     <g id="text_20">
      <!-- 5.0 -->
      <g transform="translate(273.468124 322.182437)scale(0.1 -0.1)">
       <use xlink:href="#DejaVuSans-35"/>
       <use x="63.623047" xlink:href="#DejaVuSans-2e"/>
       <use x="95.410156" xlink:href="#DejaVuSans-30"/>
      </g>
     </g>
    </g>
    <g id="xtick_10">
     <g id="line2d_25">
      <g>
       <use style="stroke:#000000;stroke-width:0.8;" x="303.068134" xlink:href="#m68b1ba85d1" y="307.584"/>
      </g>
     </g>
     <g id="text_21">
      <!-- 10.0 -->
      <g transform="translate(291.935321 322.182437)scale(0.1 -0.1)">
       <use xlink:href="#DejaVuSans-31"/>
       <use x="63.623047" xlink:href="#DejaVuSans-30"/>
       <use x="127.246094" xlink:href="#DejaVuSans-2e"/>
       <use x="159.033203" xlink:href="#DejaVuSans-30"/>
      </g>
     </g>
    </g>
    <g id="xtick_11">
     <g id="line2d_26">
      <g>
       <use style="stroke:#000000;stroke-width:0.8;" x="324.716581" xlink:href="#m68b1ba85d1" y="307.584"/>
      </g>
     </g>
     <g id="text_22">
      <!-- 15.0 -->
      <g transform="translate(313.583769 322.182437)scale(0.1 -0.1)">
       <use xlink:href="#DejaVuSans-31"/>
       <use x="63.623047" xlink:href="#DejaVuSans-35"/>
       <use x="127.246094" xlink:href="#DejaVuSans-2e"/>
       <use x="159.033203" xlink:href="#DejaVuSans-30"/>
      </g>
     </g>
    </g>
    <g id="xtick_12">
     <g id="line2d_27">
      <g>
       <use style="stroke:#000000;stroke-width:0.8;" x="346.365028" xlink:href="#m68b1ba85d1" y="307.584"/>
      </g>
     </g>
     <g id="text_23">
      <!-- 20.0 -->
      <g transform="translate(335.232216 322.182437)scale(0.1 -0.1)">
       <use xlink:href="#DejaVuSans-32"/>
       <use x="63.623047" xlink:href="#DejaVuSans-30"/>
       <use x="127.246094" xlink:href="#DejaVuSans-2e"/>
       <use x="159.033203" xlink:href="#DejaVuSans-30"/>
      </g>
     </g>
    </g>
    <g id="xtick_13">
     <g id="line2d_28">
      <g>
       <use style="stroke:#000000;stroke-width:0.8;" x="368.013475" xlink:href="#m68b1ba85d1" y="307.584"/>
      </g>
     </g>
     <g id="text_24">
      <!-- 25.0 -->
      <g transform="translate(356.880663 322.182437)scale(0.1 -0.1)">
       <use xlink:href="#DejaVuSans-32"/>
       <use x="63.623047" xlink:href="#DejaVuSans-35"/>
       <use x="127.246094" xlink:href="#DejaVuSans-2e"/>
       <use x="159.033203" xlink:href="#DejaVuSans-30"/>
      </g>
     </g>
    </g>
    <g id="xtick_14">
     <g id="line2d_29">
      <g>
       <use style="stroke:#000000;stroke-width:0.8;" x="389.661922" xlink:href="#m68b1ba85d1" y="307.584"/>
      </g>
     </g>
     <g id="text_25">
      <!-- 30.0 -->
      <g transform="translate(378.52911 322.182437)scale(0.1 -0.1)">
       <use xlink:href="#DejaVuSans-33"/>
       <use x="63.623047" xlink:href="#DejaVuSans-30"/>
       <use x="127.246094" xlink:href="#DejaVuSans-2e"/>
       <use x="159.033203" xlink:href="#DejaVuSans-30"/>
      </g>
     </g>
    </g>
    <g id="text_26">
     <!-- Minutes -->
     <g transform="translate(313.874332 335.860562)scale(0.1 -0.1)">
      <use xlink:href="#DejaVuSans-4d"/>
      <use x="86.279297" xlink:href="#DejaVuSans-69"/>
      <use x="114.0625" xlink:href="#DejaVuSans-6e"/>
      <use x="177.441406" xlink:href="#DejaVuSans-75"/>
      <use x="240.820312" xlink:href="#DejaVuSans-74"/>
      <use x="280.029297" xlink:href="#DejaVuSans-65"/>
      <use x="341.552734" xlink:href="#DejaVuSans-73"/>
     </g>
    </g>
   </g>
   <g id="matplotlib.axis_4">
    <g id="ytick_7">
     <g id="line2d_30">
      <g>
       <use style="stroke:#000000;stroke-width:0.8;" x="252.392727" xlink:href="#m7b2ec0ccaf" y="307.584"/>
      </g>
     </g>
     <g id="text_27">
      <!-- 1.00 -->
      <g transform="translate(223.127102 311.383219)scale(0.1 -0.1)">
       <use xlink:href="#DejaVuSans-31"/>
       <use x="63.623047" xlink:href="#DejaVuSans-2e"/>
       <use x="95.410156" xlink:href="#DejaVuSans-30"/>
       <use x="159.033203" xlink:href="#DejaVuSans-30"/>
      </g>
     </g>
    </g>
    <g id="ytick_8">
     <g id="line2d_31">
      <g>
       <use style="stroke:#000000;stroke-width:0.8;" x="252.392727" xlink:href="#m7b2ec0ccaf" y="274.32"/>
      </g>
     </g>
     <g id="text_28">
      <!-- 1.25 -->
      <g transform="translate(223.127102 278.119219)scale(0.1 -0.1)">
       <use xlink:href="#DejaVuSans-31"/>
       <use x="63.623047" xlink:href="#DejaVuSans-2e"/>
       <use x="95.410156" xlink:href="#DejaVuSans-32"/>
       <use x="159.033203" xlink:href="#DejaVuSans-35"/>
      </g>
     </g>
    </g>
    <g id="ytick_9">
     <g id="line2d_32">
      <g>
       <use style="stroke:#000000;stroke-width:0.8;" x="252.392727" xlink:href="#m7b2ec0ccaf" y="241.056"/>
      </g>
     </g>
     <g id="text_29">
      <!-- 1.50 -->
      <g transform="translate(223.127102 244.855219)scale(0.1 -0.1)">
       <use xlink:href="#DejaVuSans-31"/>
       <use x="63.623047" xlink:href="#DejaVuSans-2e"/>
       <use x="95.410156" xlink:href="#DejaVuSans-35"/>
       <use x="159.033203" xlink:href="#DejaVuSans-30"/>
      </g>
     </g>
    </g>
    <g id="ytick_10">
     <g id="line2d_33">
      <g>
       <use style="stroke:#000000;stroke-width:0.8;" x="252.392727" xlink:href="#m7b2ec0ccaf" y="207.792"/>
      </g>
     </g>
     <g id="text_30">
      <!-- 1.75 -->
      <defs>
       <path d="M 8.203125 72.90625 
L 55.078125 72.90625 
L 55.078125 68.703125 
L 28.609375 0 
L 18.3125 0 
L 43.21875 64.59375 
L 8.203125 64.59375 
z
" id="DejaVuSans-37"/>
      </defs>
      <g transform="translate(223.127102 211.591219)scale(0.1 -0.1)">
       <use xlink:href="#DejaVuSans-31"/>
       <use x="63.623047" xlink:href="#DejaVuSans-2e"/>
       <use x="95.410156" xlink:href="#DejaVuSans-37"/>
       <use x="159.033203" xlink:href="#DejaVuSans-35"/>
      </g>
     </g>
    </g>
    <g id="ytick_11">
     <g id="line2d_34">
      <g>
       <use style="stroke:#000000;stroke-width:0.8;" x="252.392727" xlink:href="#m7b2ec0ccaf" y="174.528"/>
      </g>
     </g>
     <g id="text_31">
      <!-- 2.00 -->
      <g transform="translate(223.127102 178.327219)scale(0.1 -0.1)">
       <use xlink:href="#DejaVuSans-32"/>
       <use x="63.623047" xlink:href="#DejaVuSans-2e"/>
       <use x="95.410156" xlink:href="#DejaVuSans-30"/>
       <use x="159.033203" xlink:href="#DejaVuSans-30"/>
      </g>
     </g>
    </g>
    <g id="ytick_12">
     <g id="line2d_35">
      <g>
       <use style="stroke:#000000;stroke-width:0.8;" x="252.392727" xlink:href="#m7b2ec0ccaf" y="141.264"/>
      </g>
     </g>
     <g id="text_32">
      <!-- 2.25 -->
      <g transform="translate(223.127102 145.063219)scale(0.1 -0.1)">
       <use xlink:href="#DejaVuSans-32"/>
       <use x="63.623047" xlink:href="#DejaVuSans-2e"/>
       <use x="95.410156" xlink:href="#DejaVuSans-32"/>
       <use x="159.033203" xlink:href="#DejaVuSans-35"/>
      </g>
     </g>
    </g>
    <g id="ytick_13">
     <g id="line2d_36">
      <g>
       <use style="stroke:#000000;stroke-width:0.8;" x="252.392727" xlink:href="#m7b2ec0ccaf" y="108"/>
      </g>
     </g>
     <g id="text_33">
      <!-- 2.50 -->
      <g transform="translate(223.127102 111.799219)scale(0.1 -0.1)">
       <use xlink:href="#DejaVuSans-32"/>
       <use x="63.623047" xlink:href="#DejaVuSans-2e"/>
       <use x="95.410156" xlink:href="#DejaVuSans-35"/>
       <use x="159.033203" xlink:href="#DejaVuSans-30"/>
      </g>
     </g>
    </g>
    <g id="ytick_14">
     <g id="line2d_37">
      <g>
       <use style="stroke:#000000;stroke-width:0.8;" x="252.392727" xlink:href="#m7b2ec0ccaf" y="74.736"/>
      </g>
     </g>
     <g id="text_34">
      <!-- 2.75 -->
      <g transform="translate(223.127102 78.535219)scale(0.1 -0.1)">
       <use xlink:href="#DejaVuSans-32"/>
       <use x="63.623047" xlink:href="#DejaVuSans-2e"/>
       <use x="95.410156" xlink:href="#DejaVuSans-37"/>
       <use x="159.033203" xlink:href="#DejaVuSans-35"/>
      </g>
     </g>
    </g>
    <g id="ytick_15">
     <g id="line2d_38">
      <g>
       <use style="stroke:#000000;stroke-width:0.8;" x="252.392727" xlink:href="#m7b2ec0ccaf" y="41.472"/>
      </g>
     </g>
     <g id="text_35">
      <!-- 3.00 -->
      <g transform="translate(223.127102 45.271219)scale(0.1 -0.1)">
       <use xlink:href="#DejaVuSans-33"/>
       <use x="63.623047" xlink:href="#DejaVuSans-2e"/>
       <use x="95.410156" xlink:href="#DejaVuSans-30"/>
       <use x="159.033203" xlink:href="#DejaVuSans-30"/>
      </g>
     </g>
    </g>
   </g>
   <g id="line2d_39">
    <path clip-path="url(#p5d41b774f3)" d="M 259.77124 130.07227 
L 260.132047 139.487024 
L 260.492855 210.784651 
L 260.853662 200.33251 
L 261.214469 199.493895 
L 261.575277 187.845274 
L 261.936084 206.108561 
L 262.296892 223.697122 
L 262.657699 248.499187 
L 263.018507 222.913223 
L 263.379314 196.300658 
L 263.740122 204.229897 
L 264.100929 213.075899 
L 264.461737 190.764387 
L 264.822544 174.892869 
L 265.183351 211.043199 
L 265.544159 207.820806 
L 265.904966 175.36736 
L 266.265774 166.68339 
L 266.626581 177.764049 
L 266.987389 200.61995 
L 267.348196 190.351934 
L 267.709004 167.643555 
L 268.069811 208.908916 
L 268.430619 184.231465 
L 268.791426 221.027771 
L 269.152233 180.11654 
L 269.513041 164.3506 
L 269.873848 177.841134 
L 270.234656 189.337447 
L 270.595463 185.996032 
L 270.956271 191.993351 
L 271.317078 244.018671 
L 271.677886 195.938 
L 272.038693 217.573856 
L 272.3995 203.494194 
L 272.760308 209.490448 
L 273.121115 246.197021 
L 273.481923 204.701858 
L 273.84273 186.230882 
L 274.203538 244.184024 
L 274.564345 197.253504 
L 274.925153 188.412694 
L 275.28596 171.285721 
L 275.646768 187.017841 
L 276.007575 232.906848 
L 276.368382 194.049218 
L 276.72919 195.295624 
L 277.089997 184.184605 
L 277.450805 206.55789 
L 277.811612 203.992917 
L 278.17242 200.680924 
L 278.533227 189.214032 
L 278.894035 167.091312 
L 279.254842 185.93093 
L 279.61565 192.882958 
L 279.976457 198.29808 
L 280.337264 187.524553 
L 280.698072 194.688264 
L 281.058879 194.537157 
L 281.419687 196.166726 
L 281.780494 191.848503 
L 282.141302 207.56572 
L 282.502109 240.611622 
L 282.862917 171.898405 
L 283.223724 168.986883 
L 283.584532 194.743647 
L 283.945339 189.519707 
L 284.306146 177.502308 
L 284.666954 228.025331 
L 285.027761 191.390252 
L 285.388569 205.652973 
L 285.749376 193.019555 
L 286.110184 223.542418 
L 286.470991 191.577039 
L 286.831799 208.019709 
L 287.192606 185.311987 
L 287.553413 179.196579 
L 287.914221 187.3801 
L 288.275028 262.998489 
L 288.635836 197.572361 
L 288.996643 164.657344 
L 289.357451 220.441977 
L 289.718258 198.230846 
L 290.079066 179.96916 
L 290.439873 209.199948 
L 290.800681 188.344795 
L 291.161488 175.669045 
L 291.522295 200.694504 
L 291.883103 185.326233 
L 292.24391 187.508842 
L 292.604718 203.157232 
L 292.965525 224.88921 
L 293.326333 211.271259 
L 293.68714 190.111359 
L 294.047948 185.004046 
L 294.408755 190.814842 
L 294.769563 182.672061 
L 295.13037 213.444682 
L 295.491177 193.349594 
L 295.851985 165.852892 
L 296.212792 208.563166 
L 296.5736 196.870075 
L 296.934407 188.291941 
L 297.295215 199.283942 
L 297.656022 202.706702 
L 298.01683 264.058641 
L 298.377637 210.479241 
L 298.738445 215.783328 
L 299.099252 200.619682 
L 299.460059 217.743071 
L 299.820867 198.588979 
L 300.181674 182.775105 
L 300.542482 195.035214 
L 300.903289 139.045819 
L 301.264097 297.394908 
L 301.624904 207.24766 
L 301.985712 190.502375 
L 302.346519 176.331388 
L 302.707326 179.807269 
" style="fill:none;stroke:#0000ff;stroke-linecap:square;stroke-width:1.5;"/>
   </g>
   <g id="line2d_40">
    <path clip-path="url(#p5d41b774f3)" d="M 303.068134 171.527091 
L 303.428941 184.858263 
L 303.789749 167.323766 
L 304.150556 207.32062 
L 304.511364 196.610862 
L 304.872171 197.659698 
L 305.232979 201.445118 
L 305.593786 185.614335 
L 305.954594 194.158922 
L 306.315401 215.386853 
L 306.676208 237.581474 
L 307.037016 203.772579 
L 307.397823 177.441732 
L 307.758631 174.752943 
L 308.119438 201.17432 
L 308.480246 213.053002 
L 308.841053 192.046205 
L 309.201861 198.365179 
L 309.562668 198.989847 
L 309.923476 205.292046 
L 310.284283 233.802977 
L 310.64509 200.303487 
L 311.005898 242.959984 
L 311.366705 185.314915 
L 311.727513 162.792258 
L 312.08832 211.863974 
L 312.449128 198.906238 
L 312.809935 204.663383 
L 313.170743 165.423932 
L 313.53155 206.016964 
L 313.892357 171.446679 
L 314.253165 183.870003 
L 314.613972 191.061408 
L 314.97478 219.539325 
L 315.335587 182.592312 
L 315.696395 187.8506 
L 316.057202 200.258621 
L 316.41801 213.097201 
L 316.778817 229.54746 
L 317.139625 204.215385 
L 317.500432 265.025331 
L 317.861239 195.371779 
L 318.222047 183.353975 
L 318.582854 210.713024 
L 318.943662 208.41219 
L 319.304469 200.475231 
L 319.665277 184.90699 
L 320.026084 197.516045 
L 320.386892 212.709912 
L 320.747699 223.044761 
L 321.108507 202.099874 
L 321.469314 222.843994 
L 321.830121 301.054248 
L 322.190929 204.173314 
L 322.551736 196.670774 
L 322.912544 212.452296 
L 323.273351 195.80593 
L 323.634159 202.07125 
L 323.994966 176.129824 
L 324.355774 187.893334 
L 324.716581 181.149797 
L 325.077389 203.539726 
L 325.438196 189.845223 
L 325.799003 206.299742 
L 326.159811 212.467873 
L 326.520618 209.687089 
L 326.881426 195.853593 
L 327.242233 181.444159 
L 327.603041 191.422602 
L 327.963848 199.454487 
L 328.324656 244.30491 
L 328.685463 208.288508 
L 329.04627 186.825062 
L 329.407078 192.302624 
L 329.767885 213.315009 
L 330.128693 170.313568 
L 330.4895 185.761449 
L 330.850308 152.692255 
L 331.211115 186.728007 
L 331.571923 234.83424 
L 331.93273 203.555036 
L 332.293538 187.197973 
L 332.654345 188.328286 
L 333.015152 198.972406 
L 333.37596 265.818416 
L 333.736767 193.698673 
L 334.097575 207.587687 
L 334.458382 195.137063 
L 334.81919 247.728069 
L 335.179997 194.537423 
L 335.540805 183.386592 
L 335.901612 197.536416 
L 336.26242 211.795676 
L 336.623227 186.563985 
L 336.984034 262.297801 
L 337.344842 209.368897 
L 337.705649 206.771438 
L 338.066457 194.944149 
L 338.427264 176.217692 
L 338.788072 199.498022 
L 339.148879 162.677098 
L 339.509687 166.709748 
L 339.870494 161.322583 
L 340.231302 253.700094 
L 340.592109 192.418849 
L 340.952916 274.76214 
L 341.313724 168.332926 
L 341.674531 186.217568 
L 342.035339 170.908947 
L 342.396146 183.579638 
L 342.756954 178.572444 
L 343.117761 204.591358 
L 343.478569 195.979139 
L 343.839376 177.141778 
L 344.200183 190.292955 
L 344.560991 270.464818 
L 344.921798 204.881458 
L 345.282606 156.284765 
" style="fill:none;stroke:#ff0000;stroke-linecap:square;stroke-width:1.5;"/>
   </g>
   <g id="line2d_41">
    <path clip-path="url(#p5d41b774f3)" d="M 345.643413 199.787324 
L 346.004221 118.139672 
L 346.725836 178.188749 
L 347.086643 150.475029 
L 347.447451 159.062222 
L 347.808258 201.286687 
L 348.169065 206.239432 
L 348.529873 203.863376 
L 348.89068 169.286436 
L 349.251488 192.157373 
L 349.612295 194.990612 
L 349.973103 173.611049 
L 350.33391 226.628215 
L 350.694718 168.53822 
L 351.055525 177.232578 
L 351.416333 195.129739 
L 351.77714 247.832715 
L 352.137947 197.209836 
L 352.859562 179.09726 
L 353.22037 209.65274 
L 353.581177 193.220188 
L 353.941985 230.645555 
L 354.6636 178.161455 
L 355.024407 206.015367 
L 355.385214 196.66385 
L 355.746022 172.615069 
L 356.106829 181.205049 
L 356.467637 237.380307 
L 356.828444 175.290277 
L 357.189252 168.569107 
L 357.910867 198.38435 
L 358.271674 180.054631 
L 358.632482 219.539857 
L 358.993289 167.552624 
L 359.354096 268.109797 
L 359.714904 199.765356 
L 360.075711 177.49352 
L 360.436519 186.303308 
L 360.797326 204.844313 
L 361.158134 175.890579 
L 361.518941 182.056045 
L 361.879749 174.187656 
L 362.240556 196.384534 
L 362.601364 184.988069 
L 362.962171 191.023731 
L 363.322978 265.655459 
L 363.683786 205.666421 
L 364.044593 196.737741 
L 364.405401 247.607982 
L 364.766208 215.97877 
L 365.127016 162.635692 
L 365.487823 242.298437 
L 365.848631 181.347503 
L 366.209438 199.082509 
L 366.570246 189.145999 
L 366.931053 189.55885 
L 367.29186 190.940922 
L 367.652668 284.728871 
L 368.013475 218.899612 
L 368.374283 195.044932 
L 368.73509 241.038185 
L 369.095898 164.106165 
L 369.456705 182.38289 
L 369.817513 189.712621 
L 370.17832 209.309518 
L 370.539127 181.057268 
L 370.899935 266.037024 
L 371.260742 206.97327 
L 371.62155 166.944731 
L 371.982357 247.556992 
L 372.343165 168.961854 
L 372.703972 173.994076 
L 373.06478 227.188845 
L 373.425587 192.987601 
L 373.786395 212.772486 
L 374.147202 182.118351 
L 374.508009 176.175088 
L 374.868817 237.547924 
L 375.229624 203.509106 
L 375.590432 190.546976 
L 375.951239 236.778671 
L 376.312047 201.405043 
L 376.672854 208.686182 
L 377.033662 199.090364 
L 377.394469 172.224451 
L 377.755277 176.549597 
L 378.116084 203.273856 
L 378.476891 206.942384 
L 378.837699 259.531794 
L 379.198506 203.085205 
L 379.559314 211.873161 
L 379.920121 211.977406 
L 380.280929 198.971076 
L 381.002544 162.50868 
L 381.363351 196.18736 
L 381.724158 194.941886 
L 382.084966 189.766008 
L 382.445773 212.7633 
L 382.806581 170.457623 
L 383.167388 180.734951 
L 383.528196 154.867943 
L 384.249811 243.538322 
L 384.610618 202.394768 
L 384.971426 211.176733 
L 385.332233 191.638416 
L 386.053848 236.689472 
L 386.414655 194.703708 
L 386.775463 201.331022 
L 387.13627 187.842744 
L 387.497078 225.691878 
L 387.857885 234.336183 
L 388.218693 216.770256 
L 388.5795 238.807112 
L 388.940308 201.371494 
L 389.301115 216.557106 
L 389.661922 248.055583 
L 390.02273 240.188652 
L 390.383537 258.955986 
L 390.744345 228.327813 
L 391.105152 214.576594 
L 391.46596 193.500571 
L 391.826767 253.431695 
L 392.187575 206.519148 
L 392.548382 227.058772 
L 392.90919 225.33987 
L 393.269997 222.324901 
L 393.630804 254.310251 
L 393.991612 245.001471 
L 394.352419 243.679577 
L 394.713227 275.247416 
L 395.074034 215.409086 
L 395.434842 251.166141 
L 395.795649 244.77461 
L 396.156457 221.49068 
L 396.517264 235.473818 
L 396.878071 175.220114 
L 397.238879 256.26813 
L 397.599686 194.991013 
L 397.960494 213.892015 
L 398.321301 217.279629 
L 398.682109 206.871821 
L 399.042916 224.254956 
L 399.403724 197.336447 
L 399.764531 238.828014 
L 400.125339 228.662779 
L 400.486146 231.818473 
L 400.846953 180.483193 
L 401.207761 195.107771 
L 401.568568 180.380812 
L 401.929376 180.121997 
L 402.290183 216.973685 
L 402.650991 192.058987 
L 403.372606 258.305224 
L 403.733413 265.338065 
L 404.094221 221.869181 
L 404.455028 242.075436 
L 404.815835 235.224057 
L 405.176643 199.886776 
L 405.53745 239.953934 
L 405.898258 245.287445 
L 406.259065 205.330388 
L 406.619873 247.301374 
L 406.98068 190.717788 
L 407.341488 234.526432 
L 407.341488 234.526432 
" style="fill:none;stroke:#000000;stroke-linecap:square;stroke-width:1.5;"/>
   </g>
   <g id="patch_9">
    <path d="M 252.392727 307.584 
L 252.392727 41.472 
" style="fill:none;stroke:#000000;stroke-linecap:square;stroke-linejoin:miter;stroke-width:0.8;"/>
   </g>
   <g id="patch_10">
    <path d="M 414.72 307.584 
L 414.72 41.472 
" style="fill:none;stroke:#000000;stroke-linecap:square;stroke-linejoin:miter;stroke-width:0.8;"/>
   </g>
   <g id="patch_11">
    <path d="M 252.392727 307.584 
L 414.72 307.584 
" style="fill:none;stroke:#000000;stroke-linecap:square;stroke-linejoin:miter;stroke-width:0.8;"/>
   </g>
   <g id="patch_12">
    <path d="M 252.392727 41.472 
L 414.72 41.472 
" style="fill:none;stroke:#000000;stroke-linecap:square;stroke-linejoin:miter;stroke-width:0.8;"/>
   </g>
   <g id="text_36">
    <!-- Pupil - Reg vs Stress -->
    <defs>
     <path d="M 19.671875 64.796875 
L 19.671875 37.40625 
L 32.078125 37.40625 
Q 38.96875 37.40625 42.71875 40.96875 
Q 46.484375 44.53125 46.484375 51.125 
Q 46.484375 57.671875 42.71875 61.234375 
Q 38.96875 64.796875 32.078125 64.796875 
z
M 9.8125 72.90625 
L 32.078125 72.90625 
Q 44.34375 72.90625 50.609375 67.359375 
Q 56.890625 61.8125 56.890625 51.125 
Q 56.890625 40.328125 50.609375 34.8125 
Q 44.34375 29.296875 32.078125 29.296875 
L 19.671875 29.296875 
L 19.671875 0 
L 9.8125 0 
z
" id="DejaVuSans-50"/>
     <path d="M 18.109375 8.203125 
L 18.109375 -20.796875 
L 9.078125 -20.796875 
L 9.078125 54.6875 
L 18.109375 54.6875 
L 18.109375 46.390625 
Q 20.953125 51.265625 25.265625 53.625 
Q 29.59375 56 35.59375 56 
Q 45.5625 56 51.78125 48.09375 
Q 58.015625 40.1875 58.015625 27.296875 
Q 58.015625 14.40625 51.78125 6.484375 
Q 45.5625 -1.421875 35.59375 -1.421875 
Q 29.59375 -1.421875 25.265625 0.953125 
Q 20.953125 3.328125 18.109375 8.203125 
z
M 48.6875 27.296875 
Q 48.6875 37.203125 44.609375 42.84375 
Q 40.53125 48.484375 33.40625 48.484375 
Q 26.265625 48.484375 22.1875 42.84375 
Q 18.109375 37.203125 18.109375 27.296875 
Q 18.109375 17.390625 22.1875 11.75 
Q 26.265625 6.109375 33.40625 6.109375 
Q 40.53125 6.109375 44.609375 11.75 
Q 48.6875 17.390625 48.6875 27.296875 
z
" id="DejaVuSans-70"/>
    </defs>
    <g transform="translate(272.289801 35.472)scale(0.12 -0.12)">
     <use xlink:href="#DejaVuSans-50"/>
     <use x="60.287109" xlink:href="#DejaVuSans-75"/>
     <use x="123.666016" xlink:href="#DejaVuSans-70"/>
     <use x="187.142578" xlink:href="#DejaVuSans-69"/>
     <use x="214.925781" xlink:href="#DejaVuSans-6c"/>
     <use x="242.708984" xlink:href="#DejaVuSans-20"/>
     <use x="274.496094" xlink:href="#DejaVuSans-2d"/>
     <use x="310.580078" xlink:href="#DejaVuSans-20"/>
     <use x="342.367188" xlink:href="#DejaVuSans-52"/>
     <use x="411.787109" xlink:href="#DejaVuSans-65"/>
     <use x="473.310547" xlink:href="#DejaVuSans-67"/>
     <use x="536.787109" xlink:href="#DejaVuSans-20"/>
     <use x="568.574219" xlink:href="#DejaVuSans-76"/>
     <use x="627.753906" xlink:href="#DejaVuSans-73"/>
     <use x="679.853516" xlink:href="#DejaVuSans-20"/>
     <use x="711.640625" xlink:href="#DejaVuSans-53"/>
     <use x="775.117188" xlink:href="#DejaVuSans-74"/>
     <use x="814.326172" xlink:href="#DejaVuSans-72"/>
     <use x="855.408203" xlink:href="#DejaVuSans-65"/>
     <use x="916.931641" xlink:href="#DejaVuSans-73"/>
     <use x="969.03125" xlink:href="#DejaVuSans-73"/>
    </g>
   </g>
   <g id="legend_2">
    <g id="patch_13">
     <path d="M 338.512187 93.506375 
L 407.72 93.506375 
Q 409.72 93.506375 409.72 91.506375 
L 409.72 48.472 
Q 409.72 46.472 407.72 46.472 
L 338.512187 46.472 
Q 336.512187 46.472 336.512187 48.472 
L 336.512187 91.506375 
Q 336.512187 93.506375 338.512187 93.506375 
z
" style="fill:#ffffff;opacity:0.8;stroke:#cccccc;stroke-linejoin:miter;"/>
    </g>
    <g id="line2d_42">
     <path d="M 340.512187 54.570438 
L 360.512187 54.570438 
" style="fill:none;stroke:#0000ff;stroke-linecap:square;stroke-width:1.5;"/>
    </g>
    <g id="line2d_43"/>
    <g id="text_37">
     <!-- Reg -->
     <g transform="translate(368.512187 58.070438)scale(0.1 -0.1)">
      <use xlink:href="#DejaVuSans-52"/>
      <use x="69.419922" xlink:href="#DejaVuSans-65"/>
      <use x="130.943359" xlink:href="#DejaVuSans-67"/>
     </g>
    </g>
    <g id="line2d_44">
     <path d="M 340.512187 69.248563 
L 360.512187 69.248563 
" style="fill:none;stroke:#ff0000;stroke-linecap:square;stroke-width:1.5;"/>
    </g>
    <g id="line2d_45"/>
    <g id="text_38">
     <!-- Stress -->
     <g transform="translate(368.512187 72.748563)scale(0.1 -0.1)">
      <use xlink:href="#DejaVuSans-53"/>
      <use x="63.476562" xlink:href="#DejaVuSans-74"/>
      <use x="102.685547" xlink:href="#DejaVuSans-72"/>
      <use x="143.767578" xlink:href="#DejaVuSans-65"/>
      <use x="205.291016" xlink:href="#DejaVuSans-73"/>
      <use x="257.390625" xlink:href="#DejaVuSans-73"/>
     </g>
    </g>
    <g id="line2d_46">
     <path d="M 340.512187 83.926688 
L 360.512187 83.926688 
" style="fill:none;stroke:#000000;stroke-linecap:square;stroke-width:1.5;"/>
    </g>
    <g id="line2d_47"/>
    <g id="text_39">
     <!-- Block C -->
     <g transform="translate(368.512187 87.426688)scale(0.1 -0.1)">
      <use xlink:href="#DejaVuSans-42"/>
      <use x="68.603516" xlink:href="#DejaVuSans-6c"/>
      <use x="96.386719" xlink:href="#DejaVuSans-6f"/>
      <use x="157.568359" xlink:href="#DejaVuSans-63"/>
      <use x="212.548828" xlink:href="#DejaVuSans-6b"/>
      <use x="270.458984" xlink:href="#DejaVuSans-20"/>
      <use x="302.246094" xlink:href="#DejaVuSans-43"/>
     </g>
    </g>
   </g>
  </g>
 </g>
 <defs>
  <clipPath id="p149c192ae5">
   <rect height="266.112" width="162.327273" x="57.6" y="41.472"/>
  </clipPath>
  <clipPath id="p5d41b774f3">
   <rect height="266.112" width="162.327273" x="252.392727" y="41.472"/>
  </clipPath>
 </defs>
</svg>
