<?xml version="1.0" encoding="utf-8" standalone="no"?>
<!DOCTYPE svg PUBLIC "-//W3C//DTD SVG 1.1//EN"
  "http://www.w3.org/Graphics/SVG/1.1/DTD/svg11.dtd">
<!-- Created with matplotlib (http://matplotlib.org/) -->
<svg height="345pt" version="1.1" viewBox="0 0 460 345" width="460pt" xmlns="http://www.w3.org/2000/svg" xmlns:xlink="http://www.w3.org/1999/xlink">
 <defs>
  <style type="text/css">
*{stroke-linecap:butt;stroke-linejoin:round;}
  </style>
 </defs>
 <g id="figure_1">
  <g id="patch_1">
   <path d="M 0 345.6 
L 460.8 345.6 
L 460.8 0 
L 0 0 
z
" style="fill:#ffffff;"/>
  </g>
  <g id="axes_1">
   <g id="patch_2">
    <path d="M 57.6 307.584 
L 219.927273 307.584 
L 219.927273 41.472 
L 57.6 41.472 
z
" style="fill:#ffffff;"/>
   </g>
   <g id="matplotlib.axis_1">
    <g id="xtick_1">
     <g id="line2d_1">
      <defs>
       <path d="M 0 0 
L 0 3.5 
" id="m850b192761" style="stroke:#000000;stroke-width:0.8;"/>
      </defs>
      <g>
       <use style="stroke:#000000;stroke-width:0.8;" x="64.978512" xlink:href="#m850b192761" y="307.584"/>
      </g>
     </g>
     <g id="text_1">
      <!-- 0.0 -->
      <defs>
       <path d="M 31.78125 66.40625 
Q 24.171875 66.40625 20.328125 58.90625 
Q 16.5 51.421875 16.5 36.375 
Q 16.5 21.390625 20.328125 13.890625 
Q 24.171875 6.390625 31.78125 6.390625 
Q 39.453125 6.390625 43.28125 13.890625 
Q 47.125 21.390625 47.125 36.375 
Q 47.125 51.421875 43.28125 58.90625 
Q 39.453125 66.40625 31.78125 66.40625 
z
M 31.78125 74.21875 
Q 44.046875 74.21875 50.515625 64.515625 
Q 56.984375 54.828125 56.984375 36.375 
Q 56.984375 17.96875 50.515625 8.265625 
Q 44.046875 -1.421875 31.78125 -1.421875 
Q 19.53125 -1.421875 13.0625 8.265625 
Q 6.59375 17.96875 6.59375 36.375 
Q 6.59375 54.828125 13.0625 64.515625 
Q 19.53125 74.21875 31.78125 74.21875 
z
" id="DejaVuSans-30"/>
       <path d="M 10.6875 12.40625 
L 21 12.40625 
L 21 0 
L 10.6875 0 
z
" id="DejaVuSans-2e"/>
      </defs>
      <g transform="translate(57.02695 322.182437)scale(0.1 -0.1)">
       <use xlink:href="#DejaVuSans-30"/>
       <use x="63.623047" xlink:href="#DejaVuSans-2e"/>
       <use x="95.410156" xlink:href="#DejaVuSans-30"/>
      </g>
     </g>
    </g>
    <g id="xtick_2">
     <g id="line2d_2">
      <g>
       <use style="stroke:#000000;stroke-width:0.8;" x="78.333286" xlink:href="#m850b192761" y="307.584"/>
      </g>
     </g>
     <g id="text_2">
      <!-- 5.0 -->
      <defs>
       <path d="M 10.796875 72.90625 
L 49.515625 72.90625 
L 49.515625 64.59375 
L 19.828125 64.59375 
L 19.828125 46.734375 
Q 21.96875 47.46875 24.109375 47.828125 
Q 26.265625 48.1875 28.421875 48.1875 
Q 40.625 48.1875 47.75 41.5 
Q 54.890625 34.8125 54.890625 23.390625 
Q 54.890625 11.625 47.5625 5.09375 
Q 40.234375 -1.421875 26.90625 -1.421875 
Q 22.3125 -1.421875 17.546875 -0.640625 
Q 12.796875 0.140625 7.71875 1.703125 
L 7.71875 11.625 
Q 12.109375 9.234375 16.796875 8.0625 
Q 21.484375 6.890625 26.703125 6.890625 
Q 35.15625 6.890625 40.078125 11.328125 
Q 45.015625 15.765625 45.015625 23.390625 
Q 45.015625 31 40.078125 35.4375 
Q 35.15625 39.890625 26.703125 39.890625 
Q 22.75 39.890625 18.8125 39.015625 
Q 14.890625 38.140625 10.796875 36.28125 
z
" id="DejaVuSans-35"/>
      </defs>
      <g transform="translate(70.381723 322.182437)scale(0.1 -0.1)">
       <use xlink:href="#DejaVuSans-35"/>
       <use x="63.623047" xlink:href="#DejaVuSans-2e"/>
       <use x="95.410156" xlink:href="#DejaVuSans-30"/>
      </g>
     </g>
    </g>
    <g id="xtick_3">
     <g id="line2d_3">
      <g>
       <use style="stroke:#000000;stroke-width:0.8;" x="91.68806" xlink:href="#m850b192761" y="307.584"/>
      </g>
     </g>
     <g id="text_3">
      <!-- 10.0 -->
      <defs>
       <path d="M 12.40625 8.296875 
L 28.515625 8.296875 
L 28.515625 63.921875 
L 10.984375 60.40625 
L 10.984375 69.390625 
L 28.421875 72.90625 
L 38.28125 72.90625 
L 38.28125 8.296875 
L 54.390625 8.296875 
L 54.390625 0 
L 12.40625 0 
z
" id="DejaVuSans-31"/>
      </defs>
      <g transform="translate(80.555247 322.182437)scale(0.1 -0.1)">
       <use xlink:href="#DejaVuSans-31"/>
       <use x="63.623047" xlink:href="#DejaVuSans-30"/>
       <use x="127.246094" xlink:href="#DejaVuSans-2e"/>
       <use x="159.033203" xlink:href="#DejaVuSans-30"/>
      </g>
     </g>
    </g>
    <g id="xtick_4">
     <g id="line2d_4">
      <g>
       <use style="stroke:#000000;stroke-width:0.8;" x="105.042833" xlink:href="#m850b192761" y="307.584"/>
      </g>
     </g>
     <g id="text_4">
      <!-- 15.0 -->
      <g transform="translate(93.910021 322.182437)scale(0.1 -0.1)">
       <use xlink:href="#DejaVuSans-31"/>
       <use x="63.623047" xlink:href="#DejaVuSans-35"/>
       <use x="127.246094" xlink:href="#DejaVuSans-2e"/>
       <use x="159.033203" xlink:href="#DejaVuSans-30"/>
      </g>
     </g>
    </g>
    <g id="xtick_5">
     <g id="line2d_5">
      <g>
       <use style="stroke:#000000;stroke-width:0.8;" x="118.397607" xlink:href="#m850b192761" y="307.584"/>
      </g>
     </g>
     <g id="text_5">
      <!-- 20.0 -->
      <defs>
       <path d="M 19.1875 8.296875 
L 53.609375 8.296875 
L 53.609375 0 
L 7.328125 0 
L 7.328125 8.296875 
Q 12.9375 14.109375 22.625 23.890625 
Q 32.328125 33.6875 34.8125 36.53125 
Q 39.546875 41.84375 41.421875 45.53125 
Q 43.3125 49.21875 43.3125 52.78125 
Q 43.3125 58.59375 39.234375 62.25 
Q 35.15625 65.921875 28.609375 65.921875 
Q 23.96875 65.921875 18.8125 64.3125 
Q 13.671875 62.703125 7.8125 59.421875 
L 7.8125 69.390625 
Q 13.765625 71.78125 18.9375 73 
Q 24.125 74.21875 28.421875 74.21875 
Q 39.75 74.21875 46.484375 68.546875 
Q 53.21875 62.890625 53.21875 53.421875 
Q 53.21875 48.921875 51.53125 44.890625 
Q 49.859375 40.875 45.40625 35.40625 
Q 44.1875 33.984375 37.640625 27.21875 
Q 31.109375 20.453125 19.1875 8.296875 
z
" id="DejaVuSans-32"/>
      </defs>
      <g transform="translate(107.264794 322.182437)scale(0.1 -0.1)">
       <use xlink:href="#DejaVuSans-32"/>
       <use x="63.623047" xlink:href="#DejaVuSans-30"/>
       <use x="127.246094" xlink:href="#DejaVuSans-2e"/>
       <use x="159.033203" xlink:href="#DejaVuSans-30"/>
      </g>
     </g>
    </g>
    <g id="xtick_6">
     <g id="line2d_6">
      <g>
       <use style="stroke:#000000;stroke-width:0.8;" x="131.75238" xlink:href="#m850b192761" y="307.584"/>
      </g>
     </g>
     <g id="text_6">
      <!-- 25.0 -->
      <g transform="translate(120.619568 322.182437)scale(0.1 -0.1)">
       <use xlink:href="#DejaVuSans-32"/>
       <use x="63.623047" xlink:href="#DejaVuSans-35"/>
       <use x="127.246094" xlink:href="#DejaVuSans-2e"/>
       <use x="159.033203" xlink:href="#DejaVuSans-30"/>
      </g>
     </g>
    </g>
    <g id="xtick_7">
     <g id="line2d_7">
      <g>
       <use style="stroke:#000000;stroke-width:0.8;" x="145.107154" xlink:href="#m850b192761" y="307.584"/>
      </g>
     </g>
     <g id="text_7">
      <!-- 30.0 -->
      <defs>
       <path d="M 40.578125 39.3125 
Q 47.65625 37.796875 51.625 33 
Q 55.609375 28.21875 55.609375 21.1875 
Q 55.609375 10.40625 48.1875 4.484375 
Q 40.765625 -1.421875 27.09375 -1.421875 
Q 22.515625 -1.421875 17.65625 -0.515625 
Q 12.796875 0.390625 7.625 2.203125 
L 7.625 11.71875 
Q 11.71875 9.328125 16.59375 8.109375 
Q 21.484375 6.890625 26.8125 6.890625 
Q 36.078125 6.890625 40.9375 10.546875 
Q 45.796875 14.203125 45.796875 21.1875 
Q 45.796875 27.640625 41.28125 31.265625 
Q 36.765625 34.90625 28.71875 34.90625 
L 20.21875 34.90625 
L 20.21875 43.015625 
L 29.109375 43.015625 
Q 36.375 43.015625 40.234375 45.921875 
Q 44.09375 48.828125 44.09375 54.296875 
Q 44.09375 59.90625 40.109375 62.90625 
Q 36.140625 65.921875 28.71875 65.921875 
Q 24.65625 65.921875 20.015625 65.03125 
Q 15.375 64.15625 9.8125 62.3125 
L 9.8125 71.09375 
Q 15.4375 72.65625 20.34375 73.4375 
Q 25.25 74.21875 29.59375 74.21875 
Q 40.828125 74.21875 47.359375 69.109375 
Q 53.90625 64.015625 53.90625 55.328125 
Q 53.90625 49.265625 50.4375 45.09375 
Q 46.96875 40.921875 40.578125 39.3125 
z
" id="DejaVuSans-33"/>
      </defs>
      <g transform="translate(133.974341 322.182437)scale(0.1 -0.1)">
       <use xlink:href="#DejaVuSans-33"/>
       <use x="63.623047" xlink:href="#DejaVuSans-30"/>
       <use x="127.246094" xlink:href="#DejaVuSans-2e"/>
       <use x="159.033203" xlink:href="#DejaVuSans-30"/>
      </g>
     </g>
    </g>
    <g id="xtick_8">
     <g id="line2d_8">
      <g>
       <use style="stroke:#000000;stroke-width:0.8;" x="158.461927" xlink:href="#m850b192761" y="307.584"/>
      </g>
     </g>
     <g id="text_8">
      <!-- 35.0 -->
      <g transform="translate(147.329115 322.182437)scale(0.1 -0.1)">
       <use xlink:href="#DejaVuSans-33"/>
       <use x="63.623047" xlink:href="#DejaVuSans-35"/>
       <use x="127.246094" xlink:href="#DejaVuSans-2e"/>
       <use x="159.033203" xlink:href="#DejaVuSans-30"/>
      </g>
     </g>
    </g>
    <g id="xtick_9">
     <g id="line2d_9">
      <g>
       <use style="stroke:#000000;stroke-width:0.8;" x="171.816701" xlink:href="#m850b192761" y="307.584"/>
      </g>
     </g>
     <g id="text_9">
      <!-- 40.0 -->
      <defs>
       <path d="M 37.796875 64.3125 
L 12.890625 25.390625 
L 37.796875 25.390625 
z
M 35.203125 72.90625 
L 47.609375 72.90625 
L 47.609375 25.390625 
L 58.015625 25.390625 
L 58.015625 17.1875 
L 47.609375 17.1875 
L 47.609375 0 
L 37.796875 0 
L 37.796875 17.1875 
L 4.890625 17.1875 
L 4.890625 26.703125 
z
" id="DejaVuSans-34"/>
      </defs>
      <g transform="translate(160.683888 322.182437)scale(0.1 -0.1)">
       <use xlink:href="#DejaVuSans-34"/>
       <use x="63.623047" xlink:href="#DejaVuSans-30"/>
       <use x="127.246094" xlink:href="#DejaVuSans-2e"/>
       <use x="159.033203" xlink:href="#DejaVuSans-30"/>
      </g>
     </g>
    </g>
    <g id="xtick_10">
     <g id="line2d_10">
      <g>
       <use style="stroke:#000000;stroke-width:0.8;" x="185.171475" xlink:href="#m850b192761" y="307.584"/>
      </g>
     </g>
     <g id="text_10">
      <!-- 45.0 -->
      <g transform="translate(174.038662 322.182437)scale(0.1 -0.1)">
       <use xlink:href="#DejaVuSans-34"/>
       <use x="63.623047" xlink:href="#DejaVuSans-35"/>
       <use x="127.246094" xlink:href="#DejaVuSans-2e"/>
       <use x="159.033203" xlink:href="#DejaVuSans-30"/>
      </g>
     </g>
    </g>
    <g id="xtick_11">
     <g id="line2d_11">
      <g>
       <use style="stroke:#000000;stroke-width:0.8;" x="198.526248" xlink:href="#m850b192761" y="307.584"/>
      </g>
     </g>
     <g id="text_11">
      <!-- 50.0 -->
      <g transform="translate(187.393436 322.182437)scale(0.1 -0.1)">
       <use xlink:href="#DejaVuSans-35"/>
       <use x="63.623047" xlink:href="#DejaVuSans-30"/>
       <use x="127.246094" xlink:href="#DejaVuSans-2e"/>
       <use x="159.033203" xlink:href="#DejaVuSans-30"/>
      </g>
     </g>
    </g>
    <g id="xtick_12">
     <g id="line2d_12">
      <g>
       <use style="stroke:#000000;stroke-width:0.8;" x="211.881022" xlink:href="#m850b192761" y="307.584"/>
      </g>
     </g>
     <g id="text_12">
      <!-- 55.0 -->
      <g transform="translate(200.748209 322.182437)scale(0.1 -0.1)">
       <use xlink:href="#DejaVuSans-35"/>
       <use x="63.623047" xlink:href="#DejaVuSans-35"/>
       <use x="127.246094" xlink:href="#DejaVuSans-2e"/>
       <use x="159.033203" xlink:href="#DejaVuSans-30"/>
      </g>
     </g>
    </g>
    <g id="text_13">
     <!-- Minutes -->
     <defs>
      <path d="M 9.8125 72.90625 
L 24.515625 72.90625 
L 43.109375 23.296875 
L 61.8125 72.90625 
L 76.515625 72.90625 
L 76.515625 0 
L 66.890625 0 
L 66.890625 64.015625 
L 48.09375 14.015625 
L 38.1875 14.015625 
L 19.390625 64.015625 
L 19.390625 0 
L 9.8125 0 
z
" id="DejaVuSans-4d"/>
      <path d="M 9.421875 54.6875 
L 18.40625 54.6875 
L 18.40625 0 
L 9.421875 0 
z
M 9.421875 75.984375 
L 18.40625 75.984375 
L 18.40625 64.59375 
L 9.421875 64.59375 
z
" id="DejaVuSans-69"/>
      <path d="M 54.890625 33.015625 
L 54.890625 0 
L 45.90625 0 
L 45.90625 32.71875 
Q 45.90625 40.484375 42.875 44.328125 
Q 39.84375 48.1875 33.796875 48.1875 
Q 26.515625 48.1875 22.3125 43.546875 
Q 18.109375 38.921875 18.109375 30.90625 
L 18.109375 0 
L 9.078125 0 
L 9.078125 54.6875 
L 18.109375 54.6875 
L 18.109375 46.1875 
Q 21.34375 51.125 25.703125 53.5625 
Q 30.078125 56 35.796875 56 
Q 45.21875 56 50.046875 50.171875 
Q 54.890625 44.34375 54.890625 33.015625 
z
" id="DejaVuSans-6e"/>
      <path d="M 8.5 21.578125 
L 8.5 54.6875 
L 17.484375 54.6875 
L 17.484375 21.921875 
Q 17.484375 14.15625 20.5 10.265625 
Q 23.53125 6.390625 29.59375 6.390625 
Q 36.859375 6.390625 41.078125 11.03125 
Q 45.3125 15.671875 45.3125 23.6875 
L 45.3125 54.6875 
L 54.296875 54.6875 
L 54.296875 0 
L 45.3125 0 
L 45.3125 8.40625 
Q 42.046875 3.421875 37.71875 1 
Q 33.40625 -1.421875 27.6875 -1.421875 
Q 18.265625 -1.421875 13.375 4.4375 
Q 8.5 10.296875 8.5 21.578125 
z
M 31.109375 56 
z
" id="DejaVuSans-75"/>
      <path d="M 18.3125 70.21875 
L 18.3125 54.6875 
L 36.8125 54.6875 
L 36.8125 47.703125 
L 18.3125 47.703125 
L 18.3125 18.015625 
Q 18.3125 11.328125 20.140625 9.421875 
Q 21.96875 7.515625 27.59375 7.515625 
L 36.8125 7.515625 
L 36.8125 0 
L 27.59375 0 
Q 17.1875 0 13.234375 3.875 
Q 9.28125 7.765625 9.28125 18.015625 
L 9.28125 47.703125 
L 2.6875 47.703125 
L 2.6875 54.6875 
L 9.28125 54.6875 
L 9.28125 70.21875 
z
" id="DejaVuSans-74"/>
      <path d="M 56.203125 29.59375 
L 56.203125 25.203125 
L 14.890625 25.203125 
Q 15.484375 15.921875 20.484375 11.0625 
Q 25.484375 6.203125 34.421875 6.203125 
Q 39.59375 6.203125 44.453125 7.46875 
Q 49.3125 8.734375 54.109375 11.28125 
L 54.109375 2.78125 
Q 49.265625 0.734375 44.1875 -0.34375 
Q 39.109375 -1.421875 33.890625 -1.421875 
Q 20.796875 -1.421875 13.15625 6.1875 
Q 5.515625 13.8125 5.515625 26.8125 
Q 5.515625 40.234375 12.765625 48.109375 
Q 20.015625 56 32.328125 56 
Q 43.359375 56 49.78125 48.890625 
Q 56.203125 41.796875 56.203125 29.59375 
z
M 47.21875 32.234375 
Q 47.125 39.59375 43.09375 43.984375 
Q 39.0625 48.390625 32.421875 48.390625 
Q 24.90625 48.390625 20.390625 44.140625 
Q 15.875 39.890625 15.1875 32.171875 
z
" id="DejaVuSans-65"/>
      <path d="M 44.28125 53.078125 
L 44.28125 44.578125 
Q 40.484375 46.53125 36.375 47.5 
Q 32.28125 48.484375 27.875 48.484375 
Q 21.1875 48.484375 17.84375 46.4375 
Q 14.5 44.390625 14.5 40.28125 
Q 14.5 37.15625 16.890625 35.375 
Q 19.28125 33.59375 26.515625 31.984375 
L 29.59375 31.296875 
Q 39.15625 29.25 43.1875 25.515625 
Q 47.21875 21.78125 47.21875 15.09375 
Q 47.21875 7.46875 41.1875 3.015625 
Q 35.15625 -1.421875 24.609375 -1.421875 
Q 20.21875 -1.421875 15.453125 -0.5625 
Q 10.6875 0.296875 5.421875 2 
L 5.421875 11.28125 
Q 10.40625 8.6875 15.234375 7.390625 
Q 20.0625 6.109375 24.8125 6.109375 
Q 31.15625 6.109375 34.5625 8.28125 
Q 37.984375 10.453125 37.984375 14.40625 
Q 37.984375 18.0625 35.515625 20.015625 
Q 33.0625 21.96875 24.703125 23.78125 
L 21.578125 24.515625 
Q 13.234375 26.265625 9.515625 29.90625 
Q 5.8125 33.546875 5.8125 39.890625 
Q 5.8125 47.609375 11.28125 51.796875 
Q 16.75 56 26.8125 56 
Q 31.78125 56 36.171875 55.265625 
Q 40.578125 54.546875 44.28125 53.078125 
z
" id="DejaVuSans-73"/>
     </defs>
     <g transform="translate(119.081605 335.860562)scale(0.1 -0.1)">
      <use xlink:href="#DejaVuSans-4d"/>
      <use x="86.279297" xlink:href="#DejaVuSans-69"/>
      <use x="114.0625" xlink:href="#DejaVuSans-6e"/>
      <use x="177.441406" xlink:href="#DejaVuSans-75"/>
      <use x="240.820312" xlink:href="#DejaVuSans-74"/>
      <use x="280.029297" xlink:href="#DejaVuSans-65"/>
      <use x="341.552734" xlink:href="#DejaVuSans-73"/>
     </g>
    </g>
   </g>
   <g id="matplotlib.axis_2">
    <g id="ytick_1">
     <g id="line2d_13">
      <defs>
       <path d="M 0 0 
L -3.5 0 
" id="md05733f87c" style="stroke:#000000;stroke-width:0.8;"/>
      </defs>
      <g>
       <use style="stroke:#000000;stroke-width:0.8;" x="57.6" xlink:href="#md05733f87c" y="270.392146"/>
      </g>
     </g>
     <g id="text_14">
      <!-- 0.38 -->
      <defs>
       <path d="M 31.78125 34.625 
Q 24.75 34.625 20.71875 30.859375 
Q 16.703125 27.09375 16.703125 20.515625 
Q 16.703125 13.921875 20.71875 10.15625 
Q 24.75 6.390625 31.78125 6.390625 
Q 38.8125 6.390625 42.859375 10.171875 
Q 46.921875 13.96875 46.921875 20.515625 
Q 46.921875 27.09375 42.890625 30.859375 
Q 38.875 34.625 31.78125 34.625 
z
M 21.921875 38.8125 
Q 15.578125 40.375 12.03125 44.71875 
Q 8.5 49.078125 8.5 55.328125 
Q 8.5 64.0625 14.71875 69.140625 
Q 20.953125 74.21875 31.78125 74.21875 
Q 42.671875 74.21875 48.875 69.140625 
Q 55.078125 64.0625 55.078125 55.328125 
Q 55.078125 49.078125 51.53125 44.71875 
Q 48 40.375 41.703125 38.8125 
Q 48.828125 37.15625 52.796875 32.3125 
Q 56.78125 27.484375 56.78125 20.515625 
Q 56.78125 9.90625 50.3125 4.234375 
Q 43.84375 -1.421875 31.78125 -1.421875 
Q 19.734375 -1.421875 13.25 4.234375 
Q 6.78125 9.90625 6.78125 20.515625 
Q 6.78125 27.484375 10.78125 32.3125 
Q 14.796875 37.15625 21.921875 38.8125 
z
M 18.3125 54.390625 
Q 18.3125 48.734375 21.84375 45.5625 
Q 25.390625 42.390625 31.78125 42.390625 
Q 38.140625 42.390625 41.71875 45.5625 
Q 45.3125 48.734375 45.3125 54.390625 
Q 45.3125 60.0625 41.71875 63.234375 
Q 38.140625 66.40625 31.78125 66.40625 
Q 25.390625 66.40625 21.84375 63.234375 
Q 18.3125 60.0625 18.3125 54.390625 
z
" id="DejaVuSans-38"/>
      </defs>
      <g transform="translate(28.334375 274.191365)scale(0.1 -0.1)">
       <use xlink:href="#DejaVuSans-30"/>
       <use x="63.623047" xlink:href="#DejaVuSans-2e"/>
       <use x="95.410156" xlink:href="#DejaVuSans-33"/>
       <use x="159.033203" xlink:href="#DejaVuSans-38"/>
      </g>
     </g>
    </g>
    <g id="ytick_2">
     <g id="line2d_14">
      <g>
       <use style="stroke:#000000;stroke-width:0.8;" x="57.6" xlink:href="#md05733f87c" y="229.811044"/>
      </g>
     </g>
     <g id="text_15">
      <!-- 0.40 -->
      <g transform="translate(28.334375 233.610262)scale(0.1 -0.1)">
       <use xlink:href="#DejaVuSans-30"/>
       <use x="63.623047" xlink:href="#DejaVuSans-2e"/>
       <use x="95.410156" xlink:href="#DejaVuSans-34"/>
       <use x="159.033203" xlink:href="#DejaVuSans-30"/>
      </g>
     </g>
    </g>
    <g id="ytick_3">
     <g id="line2d_15">
      <g>
       <use style="stroke:#000000;stroke-width:0.8;" x="57.6" xlink:href="#md05733f87c" y="189.229941"/>
      </g>
     </g>
     <g id="text_16">
      <!-- 0.42 -->
      <g transform="translate(28.334375 193.02916)scale(0.1 -0.1)">
       <use xlink:href="#DejaVuSans-30"/>
       <use x="63.623047" xlink:href="#DejaVuSans-2e"/>
       <use x="95.410156" xlink:href="#DejaVuSans-34"/>
       <use x="159.033203" xlink:href="#DejaVuSans-32"/>
      </g>
     </g>
    </g>
    <g id="ytick_4">
     <g id="line2d_16">
      <g>
       <use style="stroke:#000000;stroke-width:0.8;" x="57.6" xlink:href="#md05733f87c" y="148.648838"/>
      </g>
     </g>
     <g id="text_17">
      <!-- 0.44 -->
      <g transform="translate(28.334375 152.448057)scale(0.1 -0.1)">
       <use xlink:href="#DejaVuSans-30"/>
       <use x="63.623047" xlink:href="#DejaVuSans-2e"/>
       <use x="95.410156" xlink:href="#DejaVuSans-34"/>
       <use x="159.033203" xlink:href="#DejaVuSans-34"/>
      </g>
     </g>
    </g>
    <g id="ytick_5">
     <g id="line2d_17">
      <g>
       <use style="stroke:#000000;stroke-width:0.8;" x="57.6" xlink:href="#md05733f87c" y="108.067735"/>
      </g>
     </g>
     <g id="text_18">
      <!-- 0.46 -->
      <defs>
       <path d="M 33.015625 40.375 
Q 26.375 40.375 22.484375 35.828125 
Q 18.609375 31.296875 18.609375 23.390625 
Q 18.609375 15.53125 22.484375 10.953125 
Q 26.375 6.390625 33.015625 6.390625 
Q 39.65625 6.390625 43.53125 10.953125 
Q 47.40625 15.53125 47.40625 23.390625 
Q 47.40625 31.296875 43.53125 35.828125 
Q 39.65625 40.375 33.015625 40.375 
z
M 52.59375 71.296875 
L 52.59375 62.3125 
Q 48.875 64.0625 45.09375 64.984375 
Q 41.3125 65.921875 37.59375 65.921875 
Q 27.828125 65.921875 22.671875 59.328125 
Q 17.53125 52.734375 16.796875 39.40625 
Q 19.671875 43.65625 24.015625 45.921875 
Q 28.375 48.1875 33.59375 48.1875 
Q 44.578125 48.1875 50.953125 41.515625 
Q 57.328125 34.859375 57.328125 23.390625 
Q 57.328125 12.15625 50.6875 5.359375 
Q 44.046875 -1.421875 33.015625 -1.421875 
Q 20.359375 -1.421875 13.671875 8.265625 
Q 6.984375 17.96875 6.984375 36.375 
Q 6.984375 53.65625 15.1875 63.9375 
Q 23.390625 74.21875 37.203125 74.21875 
Q 40.921875 74.21875 44.703125 73.484375 
Q 48.484375 72.75 52.59375 71.296875 
z
" id="DejaVuSans-36"/>
      </defs>
      <g transform="translate(28.334375 111.866954)scale(0.1 -0.1)">
       <use xlink:href="#DejaVuSans-30"/>
       <use x="63.623047" xlink:href="#DejaVuSans-2e"/>
       <use x="95.410156" xlink:href="#DejaVuSans-34"/>
       <use x="159.033203" xlink:href="#DejaVuSans-36"/>
      </g>
     </g>
    </g>
    <g id="ytick_6">
     <g id="line2d_18">
      <g>
       <use style="stroke:#000000;stroke-width:0.8;" x="57.6" xlink:href="#md05733f87c" y="67.486633"/>
      </g>
     </g>
     <g id="text_19">
      <!-- 0.48 -->
      <g transform="translate(28.334375 71.285851)scale(0.1 -0.1)">
       <use xlink:href="#DejaVuSans-30"/>
       <use x="63.623047" xlink:href="#DejaVuSans-2e"/>
       <use x="95.410156" xlink:href="#DejaVuSans-34"/>
       <use x="159.033203" xlink:href="#DejaVuSans-38"/>
      </g>
     </g>
    </g>
   </g>
   <g id="line2d_19">
    <path clip-path="url(#p5a8218ed7b)" d="M 64.978512 191.775896 
L 65.201092 219.338227 
L 65.423672 197.457605 
L 65.646251 212.492977 
L 65.868831 230.610979 
L 66.09141 240.030123 
L 66.31399 219.277783 
L 66.536569 217.36877 
L 66.759149 234.711077 
L 66.981728 219.751259 
L 67.204308 219.363412 
L 67.426888 241.526105 
L 67.649467 243.29912 
L 67.872047 220.607545 
L 68.094626 219.418819 
L 68.317206 237.592227 
L 68.539785 209.244128 
L 68.762365 215.046724 
L 68.984944 219.030972 
L 69.207524 220.970207 
L 69.430104 221.025614 
L 69.652683 233.325908 
L 69.875263 226.732507 
L 70.097842 223.020256 
L 70.320422 214.442287 
L 70.543001 202.519765 
L 70.765581 232.10696 
L 70.988161 217.202549 
L 71.21074 234.98811 
L 71.43332 211.717283 
L 71.655899 211.117883 
L 71.878479 208.760578 
L 72.101058 203.29546 
L 72.323638 229.835284 
L 72.546217 219.363412 
L 72.768797 212.215943 
L 72.991377 216.920479 
L 73.213956 206.84149 
L 73.436536 234.932704 
L 73.659115 229.724471 
L 73.881695 172.917459 
L 74.104274 206.101055 
L 74.326854 184.703982 
L 74.549433 190.808797 
L 74.772013 202.655764 
L 74.994593 210.453002 
L 75.217172 194.374976 
L 75.439752 203.572493 
L 75.662331 220.305326 
L 75.884911 199.935797 
L 76.10749 195.221188 
L 76.33007 184.462208 
L 76.552649 189.358148 
L 76.775229 207.49126 
L 76.997809 175.093433 
L 77.220388 220.24992 
L 77.442968 228.560929 
L 77.665547 219.030972 
L 77.888127 203.738713 
L 78.110706 176.725413 
L 78.333286 207.838812 
L 78.555866 200.298459 
L 78.778445 190.567022 
L 79.001025 177.511181 
L 79.223604 165.585638 
L 79.446184 168.6864 
L 79.668763 187.60528 
L 79.891343 186.759068 
L 80.113922 194.495863 
L 80.336502 213.601112 
L 80.559082 209.969452 
L 80.781661 165.845545 
L 81.004241 147.101952 
L 81.22682 183.253333 
L 81.4494 172.615241 
L 81.671979 176.967188 
L 81.894559 213.596075 
L 82.117138 176.18142 
L 82.339718 173.038347 
L 82.562298 169.895274 
L 82.784877 191.594565 
L 83.007457 172.675684 
L 83.230036 188.149274 
L 83.452616 168.625956 
L 83.675195 155.147009 
L 83.897775 171.769029 
L 84.120355 191.050572 
L 84.342934 172.917459 
L 84.565514 196.974055 
L 84.788093 166.812645 
L 85.010673 209.334793 
L 85.233252 219.197192 
L 85.455832 213.656518 
L 85.678411 161.433155 
L 85.900991 146.570047 
L 86.123571 162.762916 
L 86.34615 169.049062 
L 86.56873 191.534121 
L 86.791309 160.224281 
L 87.013889 181.319135 
L 87.236468 167.235751 
L 87.459048 212.931194 
L 87.681627 165.785102 
L 87.904207 169.83483 
L 88.126787 202.957982 
L 88.349366 158.652744 
L 88.571946 149.163082 
L 88.794525 173.461453 
L 89.017105 162.327722 
L 89.239684 167.7193 
L 89.462264 175.093433 
L 89.684843 179.747598 
L 89.907423 175.456095 
L 90.130003 143.910524 
L 90.352582 183.555552 
L 90.575162 163.669572 
L 90.797741 212.991638 
L 91.020321 186.094188 
L 91.2429 170.137049 
L 91.46548 160.133615 
L 91.68806 170.983261 
" style="fill:none;stroke:#0000ff;stroke-linecap:square;stroke-width:1.5;"/>
   </g>
   <g id="line2d_20">
    <path clip-path="url(#p5a8218ed7b)" d="M 91.910639 145.476016 
L 92.133219 175.21432 
L 92.355798 173.461453 
L 92.578378 195.462962 
L 92.800957 181.016916 
L 93.023537 176.362751 
L 93.246116 188.995486 
L 93.468696 172.736128 
L 93.691276 188.693267 
L 93.913855 218.03365 
L 94.136435 222.133749 
L 94.359014 194.374976 
L 94.581594 181.379578 
L 94.804173 180.472923 
L 95.026753 170.016161 
L 95.249332 211.299214 
L 95.471912 166.510426 
L 95.694492 167.235751 
L 95.917071 214.930873 
L 96.36223 156.718546 
L 96.58481 216.195154 
L 96.807389 171.587698 
L 97.029969 153.551295 
L 97.475128 171.46681 
L 97.697708 197.820267 
L 98.142867 147.234928 
L 98.365446 170.378824 
L 98.588026 180.956472 
L 98.810605 198.666479 
L 99.033185 178.47828 
L 99.255765 175.395651 
L 99.478344 184.039102 
L 99.700924 156.537214 
L 99.923503 209.365015 
L 100.146083 171.648141 
L 100.368662 157.685645 
L 100.591242 197.094942 
L 101.036401 156.942187 
L 101.258981 146.322228 
L 101.48156 192.803439 
L 101.926719 150.359868 
L 102.149299 177.269406 
L 102.371878 152.366599 
L 102.594458 183.555552 
L 102.817038 151.889093 
L 103.039617 140.82185 
L 103.262197 182.890671 
L 103.484776 160.04295 
L 103.707356 201.930439 
L 103.929935 152.427042 
L 104.152515 208.392879 
L 104.597674 154.615105 
L 104.820254 145.173797 
L 105.042833 250.224962 
L 105.487992 199.150029 
L 105.710572 155.147009 
L 105.933151 186.698625 
L 106.155731 145.838678 
L 106.37831 145.355128 
L 106.60089 168.565512 
L 106.82347 158.531857 
L 107.046049 186.9404 
L 107.268629 186.335962 
L 107.491208 156.942187 
L 107.713788 185.489751 
L 107.936367 190.506578 
L 108.158947 136.264395 
L 108.381526 134.414817 
L 108.604106 142.580762 
L 108.826686 85.533991 
L 109.049265 74.031553 
L 109.271845 110.732973 
L 109.494424 93.977977 
L 109.939583 157.020764 
L 110.162163 156.174552 
L 110.384743 142.514274 
L 110.607322 150.91595 
L 111.052481 152.54793 
L 111.275061 111.53083 
L 111.49764 131.743205 
L 111.72022 80.414409 
L 111.942799 122.434874 
L 112.387959 90.05518 
L 112.610538 98.565654 
L 112.833118 101.158689 
L 113.055697 93.579048 
L 113.278277 133.937312 
L 113.500856 66.252448 
L 113.723436 120.706184 
L 114.168595 68.24709 
L 114.391175 108.206426 
L 114.613754 84.137741 
L 114.836334 100.959225 
L 115.058913 99.961904 
L 115.281493 88.127026 
L 115.504072 115.65309 
L 115.726652 60.733937 
L 115.949232 87.329169 
L 116.171811 129.283147 
L 116.394391 104.749046 
L 116.61697 114.722257 
L 116.83955 96.703988 
L 117.284709 134.354374 
L 117.507288 190.506578 
L 117.729868 156.355883 
L 117.952448 172.010804 
L 118.397607 90.454109 
L 118.842766 178.96183 
L 119.065345 167.235751 
L 119.733084 113.9244 
L 119.955664 151.339056 
L 120.178243 240.695004 
L 120.400823 268.675404 
L 120.623402 253.549366 
L 120.845982 164.818002 
L 121.068561 163.971791 
L 121.291141 135.684135 
L 121.513721 138.343658 
L 121.7363 171.225035 
L 121.95888 132.722394 
L 122.181459 166.208208 
L 122.404039 95.706667 
L 122.626618 161.735373 
L 122.849198 146.080453 
L 123.071777 149.646632 
L 123.294357 135.200586 
L 123.516937 133.272431 
L 123.739516 85.334527 
L 123.962096 99.76244 
L 124.184675 104.882022 
L 124.407255 75.427803 
L 124.629834 113.857912 
L 125.074993 56.818528 
L 125.297573 53.568 
L 125.520153 104.150653 
L 125.965312 69.377388 
L 126.187891 75.760243 
L 126.410471 127.705566 
L 126.63305 114.123865 
L 127.078209 101.690594 
L 127.300789 101.358153 
L 127.523369 143.179155 
L 127.745948 140.91856 
L 127.968528 94.509881 
L 128.413687 107.541545 
L 128.636266 124.695469 
L 128.858846 101.358153 
L 129.081426 117.714221 
L 129.304005 81.943634 
L 129.526585 114.256841 
L 129.749164 191.655009 
L 130.194323 86.93024 
L 130.416903 100.360832 
L 130.639482 144.56936 
L 130.862062 150.371956 
L 131.084642 176.906744 
L 131.307221 131.211301 
L 131.529801 116.317971 
L 131.75238 147.410215 
L 131.97496 144.56936 
L 132.197539 122.700827 
L 132.642698 105.812855 
L 132.865278 114.98821 
L 133.087858 84.137741 
L 133.310437 133.205943 
L 133.755596 64.132217 
L 133.978176 86.531312 
L 134.200755 96.30506 
L 134.423335 93.778513 
L 134.645915 56.375274 
L 134.868494 102.488451 
L 135.091074 97.169405 
L 135.313653 104.682557 
L 135.536233 146.443115 
L 135.758812 141.849393 
L 135.981392 149.404857 
L 136.203971 144.448473 
L 136.426551 168.20285 
L 136.649131 163.246466 
L 136.87171 121.171601 
L 137.09429 106.943152 
L 137.539449 144.37594 
L 137.762028 94.310417 
L 137.984608 85.401015 
L 138.207187 100.892737 
L 138.429767 72.502327 
L 138.652347 123.166243 
L 139.097506 58.074414 
L 139.320085 62.795068 
L 139.542665 109.536187 
L 139.765244 131.211301 
L 139.987824 101.557618 
L 140.210404 96.105595 
L 140.432983 74.696434 
L 141.100722 181.258691 
L 141.545881 131.513519 
L 141.76846 144.146254 
L 141.99104 114.921722 
L 142.21362 127.487968 
L 142.658779 97.302381 
L 142.881358 105.679879 
L 143.103938 105.081486 
L 143.326517 102.754403 
L 143.771676 241.692325 
L 143.994256 229.669064 
L 144.216836 231.44208 
L 144.439415 226.843321 
L 144.884574 202.776651 
L 145.107154 157.44387 
L 145.329733 189.660366 
L 145.552313 195.886068 
L 145.774892 155.932777 
L 145.997472 171.889916 
L 146.220052 199.754466 
L 146.442631 154.844791 
L 146.665211 207.914366 
L 147.11037 211.601432 
L 147.332949 182.467565 
L 147.555529 192.380333 
L 147.778109 169.230393 
L 148.000688 157.92742 
L 148.445847 90.587085 
L 148.668427 139.854751 
L 148.891006 93.579048 
L 149.113586 91.983334 
L 149.336165 106.544224 
L 149.558745 91.584406 
L 149.781325 105.945831 
L 150.003904 108.605354 
L 150.449063 80.089356 
L 150.671643 73.832089 
L 151.116802 115.453626 
L 151.339381 82.475539 
L 151.561961 109.802139 
L 151.784541 56.678165 
L 152.00712 104.94851 
L 152.2297 90.454109 
L 152.452279 122.301898 
L 152.674859 86.863752 
L 152.897438 115.65309 
L 153.120018 114.389817 
L 153.342598 124.163564 
L 153.565177 120.440232 
L 153.787757 155.213497 
L 154.010336 140.519632 
L 154.232916 167.537969 
L 154.455495 139.18987 
L 154.900654 295.488 
L 155.345814 210.055081 
L 155.568393 207.128598 
L 155.790973 175.818757 
L 156.236132 197.518048 
L 156.458711 174.186777 
L 156.681291 197.457605 
L 156.90387 182.588453 
L 157.12645 190.687909 
L 157.34903 173.461453 
L 157.571609 181.379578 
L 157.794189 210.029896 
L 158.016768 171.587698 
L 158.239348 186.335962 
L 158.461927 161.130936 
L 158.684507 248.673573 
L 158.684507 248.673573 
" style="fill:none;stroke:#ff0000;stroke-linecap:square;stroke-width:1.5;"/>
   </g>
   <g id="line2d_21">
    <path clip-path="url(#p5a8218ed7b)" d="M 158.907086 188.209717 
L 159.574825 266.736168 
L 159.797405 262.580663 
L 160.019984 237.53682 
L 160.242564 231.6083 
L 160.465143 218.920158 
L 160.687723 240.695004 
L 160.910303 219.036008 
L 161.355462 242.523426 
L 161.578041 288.430035 
L 161.800621 197.034499 
L 162.0232 186.759068 
L 162.24578 183.978658 
L 162.468359 214.155179 
L 162.690939 217.590396 
L 162.913519 200.419346 
L 163.136098 192.682552 
L 163.358678 199.391803 
L 163.581257 174.428552 
L 163.803837 193.95187 
L 164.026416 183.313777 
L 164.248996 182.890671 
L 164.471575 191.715452 
L 164.694155 193.045214 
L 164.916735 184.220433 
L 165.139314 206.564457 
L 165.361894 213.268671 
L 165.584473 223.906764 
L 165.807053 216.557816 
L 166.029632 184.401764 
L 166.252212 179.44538 
L 166.474792 186.819512 
L 166.697371 204.106413 
L 166.919951 198.787366 
L 167.14253 198.666479 
L 167.36511 180.896029 
L 167.587689 186.396406 
L 167.810269 214.155179 
L 168.032848 219.030972 
L 168.255428 219.363412 
L 168.478008 217.756617 
L 168.700587 224.128391 
L 168.923167 219.585039 
L 169.145746 218.421497 
L 169.368326 218.920158 
L 169.590905 234.267823 
L 169.813485 213.601112 
L 170.036064 208.941909 
L 170.258644 180.775141 
L 170.481224 180.775141 
L 170.926383 191.231903 
L 171.148962 207.617185 
L 171.371542 213.898293 
L 171.594121 191.655009 
L 171.816701 184.159989 
L 172.039281 198.485148 
L 172.26186 196.550949 
L 172.48444 181.198247 
L 172.707019 190.264804 
L 172.929599 188.391049 
L 173.152178 191.534121 
L 173.374758 189.660366 
L 173.597337 192.682552 
L 173.819917 223.962171 
L 174.265076 173.038347 
L 174.487656 199.633578 
L 174.932815 179.203605 
L 175.155394 166.18403 
L 175.377974 169.774387 
L 175.600553 191.594565 
L 175.823133 169.351281 
L 176.045713 209.3902 
L 176.268292 208.941909 
L 176.490872 191.83634 
L 176.936031 180.533367 
L 177.15861 205.013068 
L 177.38119 212.084982 
L 177.603769 187.484393 
L 177.826349 191.715452 
L 178.048929 171.164592 
L 178.271508 198.303817 
L 178.494088 192.078115 
L 178.716667 176.000088 
L 178.939247 211.057439 
L 179.161826 192.138558 
L 179.384406 183.011559 
L 179.606986 186.759068 
L 179.829565 178.115618 
L 180.052145 184.82487 
L 180.274724 215.484941 
L 180.719883 196.188287 
L 180.942463 194.61675 
L 181.165042 189.297704 
L 181.387622 162.279367 
L 181.610202 173.340565 
L 181.832781 207.914366 
L 182.055361 172.192135 
L 182.27794 176.604526 
L 182.50052 199.029141 
L 182.723099 170.257936 
L 182.945679 168.20285 
L 183.168258 203.260201 
L 183.390838 179.022274 
L 183.613418 185.610638 
L 183.835997 182.830227 
L 184.058577 202.776651 
L 184.281156 179.747598 
L 184.503736 175.335208 
L 184.726315 185.127088 
L 184.948895 215.374127 
L 185.394054 212.049723 
L 185.616634 230.888012 
L 185.839213 216.703889 
L 186.061793 215.872788 
L 186.284372 210.936552 
L 186.729531 157.806532 
L 187.174691 213.711925 
L 187.39727 216.61826 
L 187.842429 145.905166 
L 188.065009 185.731525 
L 188.287588 173.219678 
L 188.510168 179.082718 
L 188.732747 197.578492 
L 188.955327 178.176062 
L 189.177907 172.071247 
L 189.400486 172.494353 
L 189.623066 221.579681 
L 189.845645 189.418592 
L 190.068225 210.876108 
L 190.290804 165.664214 
L 190.735964 199.089585 
L 190.958543 190.990128 
L 191.181123 239.91931 
L 191.403702 229.311439 
L 191.626282 199.33136 
L 191.848861 194.737638 
L 192.071441 182.830227 
L 192.29402 193.770539 
L 192.5166 169.169949 
L 192.73918 206.453643 
L 193.184339 184.039102 
L 193.406918 178.115618 
L 193.629498 217.978244 
L 193.852077 209.002353 
L 194.074657 212.145426 
L 194.297236 178.055174 
L 194.519816 184.703982 
L 194.742396 181.984016 
L 194.964975 208.946946 
L 195.187555 213.822739 
L 195.410134 206.101055 
L 195.632714 187.423949 
L 195.855293 188.391049 
L 196.077873 185.127088 
L 196.300452 187.967943 
L 196.523032 212.10513 
L 196.745612 209.909009 
L 197.190771 174.005446 
L 197.41335 183.011559 
L 197.63593 179.264049 
L 197.858509 214.764653 
L 198.081089 206.040611 
L 198.303669 161.614486 
L 198.526248 200.91297 
L 198.748828 202.716207 
L 199.193987 155.944866 
L 199.416566 166.026877 
L 199.639146 149.761475 
L 199.861725 191.957227 
L 200.084305 184.703982 
L 200.306885 157.685645 
L 200.529464 207.838812 
L 200.752044 192.078115 
L 200.974623 163.730016 
L 201.197203 178.055174 
L 201.419782 174.488996 
L 201.642362 186.094188 
L 201.864941 146.322228 
L 202.087521 177.450737 
L 202.310101 181.984016 
L 202.53268 217.922837 
L 202.75526 169.593055 
L 202.977839 197.638936 
L 203.200419 158.713188 
L 203.422998 212.160537 
L 203.868158 142.64725 
L 204.313317 187.786611 
L 204.535896 172.131691 
L 204.758476 173.09879 
L 204.981055 209.833454 
L 205.426214 165.543327 
L 205.648794 201.205115 
L 205.871374 166.631314 
L 206.316533 161.916704 
L 206.539112 168.081963 
L 206.761692 189.841698 
L 206.984271 166.993976 
L 207.206851 206.645048 
L 207.42943 197.578492 
L 207.65201 172.494353 
L 207.87459 168.384181 
L 208.097169 206.453643 
L 208.319749 205.85928 
L 208.542328 187.121731 
L 208.764908 189.358148 
L 209.210067 165.984566 
L 209.877806 183.19289 
L 210.100385 243.188307 
L 210.322965 217.706247 
L 210.545544 205.919724 
L 210.768124 209.3902 
L 210.990703 227.064948 
L 211.213283 221.081021 
L 211.658442 229.669064 
L 211.881022 206.524161 
L 212.103601 206.040611 
L 212.326181 213.711925 
L 212.54876 233.270502 
L 212.54876 233.270502 
" style="fill:none;stroke:#000000;stroke-linecap:square;stroke-width:1.5;"/>
   </g>
   <g id="patch_3">
    <path d="M 57.6 307.584 
L 57.6 41.472 
" style="fill:none;stroke:#000000;stroke-linecap:square;stroke-linejoin:miter;stroke-width:0.8;"/>
   </g>
   <g id="patch_4">
    <path d="M 219.927273 307.584 
L 219.927273 41.472 
" style="fill:none;stroke:#000000;stroke-linecap:square;stroke-linejoin:miter;stroke-width:0.8;"/>
   </g>
   <g id="patch_5">
    <path d="M 57.6 307.584 
L 219.927273 307.584 
" style="fill:none;stroke:#000000;stroke-linecap:square;stroke-linejoin:miter;stroke-width:0.8;"/>
   </g>
   <g id="patch_6">
    <path d="M 57.6 41.472 
L 219.927273 41.472 
" style="fill:none;stroke:#000000;stroke-linecap:square;stroke-linejoin:miter;stroke-width:0.8;"/>
   </g>
   <g id="text_20">
    <!-- IBI - Reg vs Stress -->
    <defs>
     <path d="M 9.8125 72.90625 
L 19.671875 72.90625 
L 19.671875 0 
L 9.8125 0 
z
" id="DejaVuSans-49"/>
     <path d="M 19.671875 34.8125 
L 19.671875 8.109375 
L 35.5 8.109375 
Q 43.453125 8.109375 47.28125 11.40625 
Q 51.125 14.703125 51.125 21.484375 
Q 51.125 28.328125 47.28125 31.5625 
Q 43.453125 34.8125 35.5 34.8125 
z
M 19.671875 64.796875 
L 19.671875 42.828125 
L 34.28125 42.828125 
Q 41.5 42.828125 45.03125 45.53125 
Q 48.578125 48.25 48.578125 53.8125 
Q 48.578125 59.328125 45.03125 62.0625 
Q 41.5 64.796875 34.28125 64.796875 
z
M 9.8125 72.90625 
L 35.015625 72.90625 
Q 46.296875 72.90625 52.390625 68.21875 
Q 58.5 63.53125 58.5 54.890625 
Q 58.5 48.1875 55.375 44.234375 
Q 52.25 40.28125 46.1875 39.3125 
Q 53.46875 37.75 57.5 32.78125 
Q 61.53125 27.828125 61.53125 20.40625 
Q 61.53125 10.640625 54.890625 5.3125 
Q 48.25 0 35.984375 0 
L 9.8125 0 
z
" id="DejaVuSans-42"/>
     <path id="DejaVuSans-20"/>
     <path d="M 4.890625 31.390625 
L 31.203125 31.390625 
L 31.203125 23.390625 
L 4.890625 23.390625 
z
" id="DejaVuSans-2d"/>
     <path d="M 44.390625 34.1875 
Q 47.5625 33.109375 50.5625 29.59375 
Q 53.5625 26.078125 56.59375 19.921875 
L 66.609375 0 
L 56 0 
L 46.6875 18.703125 
Q 43.0625 26.03125 39.671875 28.421875 
Q 36.28125 30.8125 30.421875 30.8125 
L 19.671875 30.8125 
L 19.671875 0 
L 9.8125 0 
L 9.8125 72.90625 
L 32.078125 72.90625 
Q 44.578125 72.90625 50.734375 67.671875 
Q 56.890625 62.453125 56.890625 51.90625 
Q 56.890625 45.015625 53.6875 40.46875 
Q 50.484375 35.9375 44.390625 34.1875 
z
M 19.671875 64.796875 
L 19.671875 38.921875 
L 32.078125 38.921875 
Q 39.203125 38.921875 42.84375 42.21875 
Q 46.484375 45.515625 46.484375 51.90625 
Q 46.484375 58.296875 42.84375 61.546875 
Q 39.203125 64.796875 32.078125 64.796875 
z
" id="DejaVuSans-52"/>
     <path d="M 45.40625 27.984375 
Q 45.40625 37.75 41.375 43.109375 
Q 37.359375 48.484375 30.078125 48.484375 
Q 22.859375 48.484375 18.828125 43.109375 
Q 14.796875 37.75 14.796875 27.984375 
Q 14.796875 18.265625 18.828125 12.890625 
Q 22.859375 7.515625 30.078125 7.515625 
Q 37.359375 7.515625 41.375 12.890625 
Q 45.40625 18.265625 45.40625 27.984375 
z
M 54.390625 6.78125 
Q 54.390625 -7.171875 48.1875 -13.984375 
Q 42 -20.796875 29.203125 -20.796875 
Q 24.46875 -20.796875 20.265625 -20.09375 
Q 16.0625 -19.390625 12.109375 -17.921875 
L 12.109375 -9.1875 
Q 16.0625 -11.328125 19.921875 -12.34375 
Q 23.78125 -13.375 27.78125 -13.375 
Q 36.625 -13.375 41.015625 -8.765625 
Q 45.40625 -4.15625 45.40625 5.171875 
L 45.40625 9.625 
Q 42.625 4.78125 38.28125 2.390625 
Q 33.9375 0 27.875 0 
Q 17.828125 0 11.671875 7.65625 
Q 5.515625 15.328125 5.515625 27.984375 
Q 5.515625 40.671875 11.671875 48.328125 
Q 17.828125 56 27.875 56 
Q 33.9375 56 38.28125 53.609375 
Q 42.625 51.21875 45.40625 46.390625 
L 45.40625 54.6875 
L 54.390625 54.6875 
z
" id="DejaVuSans-67"/>
     <path d="M 2.984375 54.6875 
L 12.5 54.6875 
L 29.59375 8.796875 
L 46.6875 54.6875 
L 56.203125 54.6875 
L 35.6875 0 
L 23.484375 0 
z
" id="DejaVuSans-76"/>
     <path d="M 53.515625 70.515625 
L 53.515625 60.890625 
Q 47.90625 63.578125 42.921875 64.890625 
Q 37.9375 66.21875 33.296875 66.21875 
Q 25.25 66.21875 20.875 63.09375 
Q 16.5 59.96875 16.5 54.203125 
Q 16.5 49.359375 19.40625 46.890625 
Q 22.3125 44.4375 30.421875 42.921875 
L 36.375 41.703125 
Q 47.40625 39.59375 52.65625 34.296875 
Q 57.90625 29 57.90625 20.125 
Q 57.90625 9.515625 50.796875 4.046875 
Q 43.703125 -1.421875 29.984375 -1.421875 
Q 24.8125 -1.421875 18.96875 -0.25 
Q 13.140625 0.921875 6.890625 3.21875 
L 6.890625 13.375 
Q 12.890625 10.015625 18.65625 8.296875 
Q 24.421875 6.59375 29.984375 6.59375 
Q 38.421875 6.59375 43.015625 9.90625 
Q 47.609375 13.234375 47.609375 19.390625 
Q 47.609375 24.75 44.3125 27.78125 
Q 41.015625 30.8125 33.5 32.328125 
L 27.484375 33.5 
Q 16.453125 35.6875 11.515625 40.375 
Q 6.59375 45.0625 6.59375 53.421875 
Q 6.59375 63.09375 13.40625 68.65625 
Q 20.21875 74.21875 32.171875 74.21875 
Q 37.3125 74.21875 42.625 73.28125 
Q 47.953125 72.359375 53.515625 70.515625 
z
" id="DejaVuSans-53"/>
     <path d="M 41.109375 46.296875 
Q 39.59375 47.171875 37.8125 47.578125 
Q 36.03125 48 33.890625 48 
Q 26.265625 48 22.1875 43.046875 
Q 18.109375 38.09375 18.109375 28.8125 
L 18.109375 0 
L 9.078125 0 
L 9.078125 54.6875 
L 18.109375 54.6875 
L 18.109375 46.1875 
Q 20.953125 51.171875 25.484375 53.578125 
Q 30.03125 56 36.53125 56 
Q 37.453125 56 38.578125 55.875 
Q 39.703125 55.765625 41.0625 55.515625 
z
" id="DejaVuSans-72"/>
    </defs>
    <g transform="translate(84.402699 35.472)scale(0.12 -0.12)">
     <use xlink:href="#DejaVuSans-49"/>
     <use x="29.492188" xlink:href="#DejaVuSans-42"/>
     <use x="98.095703" xlink:href="#DejaVuSans-49"/>
     <use x="127.587891" xlink:href="#DejaVuSans-20"/>
     <use x="159.375" xlink:href="#DejaVuSans-2d"/>
     <use x="195.458984" xlink:href="#DejaVuSans-20"/>
     <use x="227.246094" xlink:href="#DejaVuSans-52"/>
     <use x="296.666016" xlink:href="#DejaVuSans-65"/>
     <use x="358.189453" xlink:href="#DejaVuSans-67"/>
     <use x="421.666016" xlink:href="#DejaVuSans-20"/>
     <use x="453.453125" xlink:href="#DejaVuSans-76"/>
     <use x="512.632812" xlink:href="#DejaVuSans-73"/>
     <use x="564.732422" xlink:href="#DejaVuSans-20"/>
     <use x="596.519531" xlink:href="#DejaVuSans-53"/>
     <use x="659.996094" xlink:href="#DejaVuSans-74"/>
     <use x="699.205078" xlink:href="#DejaVuSans-72"/>
     <use x="740.287109" xlink:href="#DejaVuSans-65"/>
     <use x="801.810547" xlink:href="#DejaVuSans-73"/>
     <use x="853.910156" xlink:href="#DejaVuSans-73"/>
    </g>
   </g>
   <g id="legend_1">
    <g id="patch_7">
     <path d="M 64.6 302.584 
L 133.807813 302.584 
Q 135.807813 302.584 135.807813 300.584 
L 135.807813 257.549625 
Q 135.807813 255.549625 133.807813 255.549625 
L 64.6 255.549625 
Q 62.6 255.549625 62.6 257.549625 
L 62.6 300.584 
Q 62.6 302.584 64.6 302.584 
z
" style="fill:#ffffff;opacity:0.8;stroke:#cccccc;stroke-linejoin:miter;"/>
    </g>
    <g id="line2d_22">
     <path d="M 66.6 263.648062 
L 86.6 263.648062 
" style="fill:none;stroke:#0000ff;stroke-linecap:square;stroke-width:1.5;"/>
    </g>
    <g id="line2d_23"/>
    <g id="text_21">
     <!-- Reg -->
     <g transform="translate(94.6 267.148062)scale(0.1 -0.1)">
      <use xlink:href="#DejaVuSans-52"/>
      <use x="69.419922" xlink:href="#DejaVuSans-65"/>
      <use x="130.943359" xlink:href="#DejaVuSans-67"/>
     </g>
    </g>
    <g id="line2d_24">
     <path d="M 66.6 278.326188 
L 86.6 278.326188 
" style="fill:none;stroke:#ff0000;stroke-linecap:square;stroke-width:1.5;"/>
    </g>
    <g id="line2d_25"/>
    <g id="text_22">
     <!-- Stress -->
     <g transform="translate(94.6 281.826188)scale(0.1 -0.1)">
      <use xlink:href="#DejaVuSans-53"/>
      <use x="63.476562" xlink:href="#DejaVuSans-74"/>
      <use x="102.685547" xlink:href="#DejaVuSans-72"/>
      <use x="143.767578" xlink:href="#DejaVuSans-65"/>
      <use x="205.291016" xlink:href="#DejaVuSans-73"/>
      <use x="257.390625" xlink:href="#DejaVuSans-73"/>
     </g>
    </g>
    <g id="line2d_26">
     <path d="M 66.6 293.004312 
L 86.6 293.004312 
" style="fill:none;stroke:#000000;stroke-linecap:square;stroke-width:1.5;"/>
    </g>
    <g id="line2d_27"/>
    <g id="text_23">
     <!-- Block C -->
     <defs>
      <path d="M 9.421875 75.984375 
L 18.40625 75.984375 
L 18.40625 0 
L 9.421875 0 
z
" id="DejaVuSans-6c"/>
      <path d="M 30.609375 48.390625 
Q 23.390625 48.390625 19.1875 42.75 
Q 14.984375 37.109375 14.984375 27.296875 
Q 14.984375 17.484375 19.15625 11.84375 
Q 23.34375 6.203125 30.609375 6.203125 
Q 37.796875 6.203125 41.984375 11.859375 
Q 46.1875 17.53125 46.1875 27.296875 
Q 46.1875 37.015625 41.984375 42.703125 
Q 37.796875 48.390625 30.609375 48.390625 
z
M 30.609375 56 
Q 42.328125 56 49.015625 48.375 
Q 55.71875 40.765625 55.71875 27.296875 
Q 55.71875 13.875 49.015625 6.21875 
Q 42.328125 -1.421875 30.609375 -1.421875 
Q 18.84375 -1.421875 12.171875 6.21875 
Q 5.515625 13.875 5.515625 27.296875 
Q 5.515625 40.765625 12.171875 48.375 
Q 18.84375 56 30.609375 56 
z
" id="DejaVuSans-6f"/>
      <path d="M 48.78125 52.59375 
L 48.78125 44.1875 
Q 44.96875 46.296875 41.140625 47.34375 
Q 37.3125 48.390625 33.40625 48.390625 
Q 24.65625 48.390625 19.8125 42.84375 
Q 14.984375 37.3125 14.984375 27.296875 
Q 14.984375 17.28125 19.8125 11.734375 
Q 24.65625 6.203125 33.40625 6.203125 
Q 37.3125 6.203125 41.140625 7.25 
Q 44.96875 8.296875 48.78125 10.40625 
L 48.78125 2.09375 
Q 45.015625 0.34375 40.984375 -0.53125 
Q 36.96875 -1.421875 32.421875 -1.421875 
Q 20.0625 -1.421875 12.78125 6.34375 
Q 5.515625 14.109375 5.515625 27.296875 
Q 5.515625 40.671875 12.859375 48.328125 
Q 20.21875 56 33.015625 56 
Q 37.15625 56 41.109375 55.140625 
Q 45.0625 54.296875 48.78125 52.59375 
z
" id="DejaVuSans-63"/>
      <path d="M 9.078125 75.984375 
L 18.109375 75.984375 
L 18.109375 31.109375 
L 44.921875 54.6875 
L 56.390625 54.6875 
L 27.390625 29.109375 
L 57.625 0 
L 45.90625 0 
L 18.109375 26.703125 
L 18.109375 0 
L 9.078125 0 
z
" id="DejaVuSans-6b"/>
      <path d="M 64.40625 67.28125 
L 64.40625 56.890625 
Q 59.421875 61.53125 53.78125 63.8125 
Q 48.140625 66.109375 41.796875 66.109375 
Q 29.296875 66.109375 22.65625 58.46875 
Q 16.015625 50.828125 16.015625 36.375 
Q 16.015625 21.96875 22.65625 14.328125 
Q 29.296875 6.6875 41.796875 6.6875 
Q 48.140625 6.6875 53.78125 8.984375 
Q 59.421875 11.28125 64.40625 15.921875 
L 64.40625 5.609375 
Q 59.234375 2.09375 53.4375 0.328125 
Q 47.65625 -1.421875 41.21875 -1.421875 
Q 24.65625 -1.421875 15.125 8.703125 
Q 5.609375 18.84375 5.609375 36.375 
Q 5.609375 53.953125 15.125 64.078125 
Q 24.65625 74.21875 41.21875 74.21875 
Q 47.75 74.21875 53.53125 72.484375 
Q 59.328125 70.75 64.40625 67.28125 
z
" id="DejaVuSans-43"/>
     </defs>
     <g transform="translate(94.6 296.504312)scale(0.1 -0.1)">
      <use xlink:href="#DejaVuSans-42"/>
      <use x="68.603516" xlink:href="#DejaVuSans-6c"/>
      <use x="96.386719" xlink:href="#DejaVuSans-6f"/>
      <use x="157.568359" xlink:href="#DejaVuSans-63"/>
      <use x="212.548828" xlink:href="#DejaVuSans-6b"/>
      <use x="270.458984" xlink:href="#DejaVuSans-20"/>
      <use x="302.246094" xlink:href="#DejaVuSans-43"/>
     </g>
    </g>
   </g>
  </g>
  <g id="axes_2">
   <g id="patch_8">
    <path d="M 252.392727 307.584 
L 414.72 307.584 
L 414.72 41.472 
L 252.392727 41.472 
z
" style="fill:#ffffff;"/>
   </g>
   <g id="matplotlib.axis_3">
    <g id="xtick_13">
     <g id="line2d_28">
      <g>
       <use style="stroke:#000000;stroke-width:0.8;" x="259.77124" xlink:href="#m850b192761" y="307.584"/>
      </g>
     </g>
     <g id="text_24">
      <!-- 0.0 -->
      <g transform="translate(251.819677 322.182437)scale(0.1 -0.1)">
       <use xlink:href="#DejaVuSans-30"/>
       <use x="63.623047" xlink:href="#DejaVuSans-2e"/>
       <use x="95.410156" xlink:href="#DejaVuSans-30"/>
      </g>
     </g>
    </g>
    <g id="xtick_14">
     <g id="line2d_29">
      <g>
       <use style="stroke:#000000;stroke-width:0.8;" x="273.126013" xlink:href="#m850b192761" y="307.584"/>
      </g>
     </g>
     <g id="text_25">
      <!-- 5.0 -->
      <g transform="translate(265.174451 322.182437)scale(0.1 -0.1)">
       <use xlink:href="#DejaVuSans-35"/>
       <use x="63.623047" xlink:href="#DejaVuSans-2e"/>
       <use x="95.410156" xlink:href="#DejaVuSans-30"/>
      </g>
     </g>
    </g>
    <g id="xtick_15">
     <g id="line2d_30">
      <g>
       <use style="stroke:#000000;stroke-width:0.8;" x="286.480787" xlink:href="#m850b192761" y="307.584"/>
      </g>
     </g>
     <g id="text_26">
      <!-- 10.0 -->
      <g transform="translate(275.347974 322.182437)scale(0.1 -0.1)">
       <use xlink:href="#DejaVuSans-31"/>
       <use x="63.623047" xlink:href="#DejaVuSans-30"/>
       <use x="127.246094" xlink:href="#DejaVuSans-2e"/>
       <use x="159.033203" xlink:href="#DejaVuSans-30"/>
      </g>
     </g>
    </g>
    <g id="xtick_16">
     <g id="line2d_31">
      <g>
       <use style="stroke:#000000;stroke-width:0.8;" x="299.83556" xlink:href="#m850b192761" y="307.584"/>
      </g>
     </g>
     <g id="text_27">
      <!-- 15.0 -->
      <g transform="translate(288.702748 322.182437)scale(0.1 -0.1)">
       <use xlink:href="#DejaVuSans-31"/>
       <use x="63.623047" xlink:href="#DejaVuSans-35"/>
       <use x="127.246094" xlink:href="#DejaVuSans-2e"/>
       <use x="159.033203" xlink:href="#DejaVuSans-30"/>
      </g>
     </g>
    </g>
    <g id="xtick_17">
     <g id="line2d_32">
      <g>
       <use style="stroke:#000000;stroke-width:0.8;" x="313.190334" xlink:href="#m850b192761" y="307.584"/>
      </g>
     </g>
     <g id="text_28">
      <!-- 20.0 -->
      <g transform="translate(302.057521 322.182437)scale(0.1 -0.1)">
       <use xlink:href="#DejaVuSans-32"/>
       <use x="63.623047" xlink:href="#DejaVuSans-30"/>
       <use x="127.246094" xlink:href="#DejaVuSans-2e"/>
       <use x="159.033203" xlink:href="#DejaVuSans-30"/>
      </g>
     </g>
    </g>
    <g id="xtick_18">
     <g id="line2d_33">
      <g>
       <use style="stroke:#000000;stroke-width:0.8;" x="326.545108" xlink:href="#m850b192761" y="307.584"/>
      </g>
     </g>
     <g id="text_29">
      <!-- 25.0 -->
      <g transform="translate(315.412295 322.182437)scale(0.1 -0.1)">
       <use xlink:href="#DejaVuSans-32"/>
       <use x="63.623047" xlink:href="#DejaVuSans-35"/>
       <use x="127.246094" xlink:href="#DejaVuSans-2e"/>
       <use x="159.033203" xlink:href="#DejaVuSans-30"/>
      </g>
     </g>
    </g>
    <g id="xtick_19">
     <g id="line2d_34">
      <g>
       <use style="stroke:#000000;stroke-width:0.8;" x="339.899881" xlink:href="#m850b192761" y="307.584"/>
      </g>
     </g>
     <g id="text_30">
      <!-- 30.0 -->
      <g transform="translate(328.767069 322.182437)scale(0.1 -0.1)">
       <use xlink:href="#DejaVuSans-33"/>
       <use x="63.623047" xlink:href="#DejaVuSans-30"/>
       <use x="127.246094" xlink:href="#DejaVuSans-2e"/>
       <use x="159.033203" xlink:href="#DejaVuSans-30"/>
      </g>
     </g>
    </g>
    <g id="xtick_20">
     <g id="line2d_35">
      <g>
       <use style="stroke:#000000;stroke-width:0.8;" x="353.254655" xlink:href="#m850b192761" y="307.584"/>
      </g>
     </g>
     <g id="text_31">
      <!-- 35.0 -->
      <g transform="translate(342.121842 322.182437)scale(0.1 -0.1)">
       <use xlink:href="#DejaVuSans-33"/>
       <use x="63.623047" xlink:href="#DejaVuSans-35"/>
       <use x="127.246094" xlink:href="#DejaVuSans-2e"/>
       <use x="159.033203" xlink:href="#DejaVuSans-30"/>
      </g>
     </g>
    </g>
    <g id="xtick_21">
     <g id="line2d_36">
      <g>
       <use style="stroke:#000000;stroke-width:0.8;" x="366.609428" xlink:href="#m850b192761" y="307.584"/>
      </g>
     </g>
     <g id="text_32">
      <!-- 40.0 -->
      <g transform="translate(355.476616 322.182437)scale(0.1 -0.1)">
       <use xlink:href="#DejaVuSans-34"/>
       <use x="63.623047" xlink:href="#DejaVuSans-30"/>
       <use x="127.246094" xlink:href="#DejaVuSans-2e"/>
       <use x="159.033203" xlink:href="#DejaVuSans-30"/>
      </g>
     </g>
    </g>
    <g id="xtick_22">
     <g id="line2d_37">
      <g>
       <use style="stroke:#000000;stroke-width:0.8;" x="379.964202" xlink:href="#m850b192761" y="307.584"/>
      </g>
     </g>
     <g id="text_33">
      <!-- 45.0 -->
      <g transform="translate(368.831389 322.182437)scale(0.1 -0.1)">
       <use xlink:href="#DejaVuSans-34"/>
       <use x="63.623047" xlink:href="#DejaVuSans-35"/>
       <use x="127.246094" xlink:href="#DejaVuSans-2e"/>
       <use x="159.033203" xlink:href="#DejaVuSans-30"/>
      </g>
     </g>
    </g>
    <g id="xtick_23">
     <g id="line2d_38">
      <g>
       <use style="stroke:#000000;stroke-width:0.8;" x="393.318975" xlink:href="#m850b192761" y="307.584"/>
      </g>
     </g>
     <g id="text_34">
      <!-- 50.0 -->
      <g transform="translate(382.186163 322.182437)scale(0.1 -0.1)">
       <use xlink:href="#DejaVuSans-35"/>
       <use x="63.623047" xlink:href="#DejaVuSans-30"/>
       <use x="127.246094" xlink:href="#DejaVuSans-2e"/>
       <use x="159.033203" xlink:href="#DejaVuSans-30"/>
      </g>
     </g>
    </g>
    <g id="xtick_24">
     <g id="line2d_39">
      <g>
       <use style="stroke:#000000;stroke-width:0.8;" x="406.673749" xlink:href="#m850b192761" y="307.584"/>
      </g>
     </g>
     <g id="text_35">
      <!-- 55.0 -->
      <g transform="translate(395.540936 322.182437)scale(0.1 -0.1)">
       <use xlink:href="#DejaVuSans-35"/>
       <use x="63.623047" xlink:href="#DejaVuSans-35"/>
       <use x="127.246094" xlink:href="#DejaVuSans-2e"/>
       <use x="159.033203" xlink:href="#DejaVuSans-30"/>
      </g>
     </g>
    </g>
    <g id="text_36">
     <!-- Minutes -->
     <g transform="translate(313.874332 335.860562)scale(0.1 -0.1)">
      <use xlink:href="#DejaVuSans-4d"/>
      <use x="86.279297" xlink:href="#DejaVuSans-69"/>
      <use x="114.0625" xlink:href="#DejaVuSans-6e"/>
      <use x="177.441406" xlink:href="#DejaVuSans-75"/>
      <use x="240.820312" xlink:href="#DejaVuSans-74"/>
      <use x="280.029297" xlink:href="#DejaVuSans-65"/>
      <use x="341.552734" xlink:href="#DejaVuSans-73"/>
     </g>
    </g>
   </g>
   <g id="matplotlib.axis_4">
    <g id="ytick_7">
     <g id="line2d_40">
      <g>
       <use style="stroke:#000000;stroke-width:0.8;" x="252.392727" xlink:href="#md05733f87c" y="307.584"/>
      </g>
     </g>
     <g id="text_37">
      <!-- 1.00 -->
      <g transform="translate(223.127102 311.383219)scale(0.1 -0.1)">
       <use xlink:href="#DejaVuSans-31"/>
       <use x="63.623047" xlink:href="#DejaVuSans-2e"/>
       <use x="95.410156" xlink:href="#DejaVuSans-30"/>
       <use x="159.033203" xlink:href="#DejaVuSans-30"/>
      </g>
     </g>
    </g>
    <g id="ytick_8">
     <g id="line2d_41">
      <g>
       <use style="stroke:#000000;stroke-width:0.8;" x="252.392727" xlink:href="#md05733f87c" y="274.32"/>
      </g>
     </g>
     <g id="text_38">
      <!-- 1.25 -->
      <g transform="translate(223.127102 278.119219)scale(0.1 -0.1)">
       <use xlink:href="#DejaVuSans-31"/>
       <use x="63.623047" xlink:href="#DejaVuSans-2e"/>
       <use x="95.410156" xlink:href="#DejaVuSans-32"/>
       <use x="159.033203" xlink:href="#DejaVuSans-35"/>
      </g>
     </g>
    </g>
    <g id="ytick_9">
     <g id="line2d_42">
      <g>
       <use style="stroke:#000000;stroke-width:0.8;" x="252.392727" xlink:href="#md05733f87c" y="241.056"/>
      </g>
     </g>
     <g id="text_39">
      <!-- 1.50 -->
      <g transform="translate(223.127102 244.855219)scale(0.1 -0.1)">
       <use xlink:href="#DejaVuSans-31"/>
       <use x="63.623047" xlink:href="#DejaVuSans-2e"/>
       <use x="95.410156" xlink:href="#DejaVuSans-35"/>
       <use x="159.033203" xlink:href="#DejaVuSans-30"/>
      </g>
     </g>
    </g>
    <g id="ytick_10">
     <g id="line2d_43">
      <g>
       <use style="stroke:#000000;stroke-width:0.8;" x="252.392727" xlink:href="#md05733f87c" y="207.792"/>
      </g>
     </g>
     <g id="text_40">
      <!-- 1.75 -->
      <defs>
       <path d="M 8.203125 72.90625 
L 55.078125 72.90625 
L 55.078125 68.703125 
L 28.609375 0 
L 18.3125 0 
L 43.21875 64.59375 
L 8.203125 64.59375 
z
" id="DejaVuSans-37"/>
      </defs>
      <g transform="translate(223.127102 211.591219)scale(0.1 -0.1)">
       <use xlink:href="#DejaVuSans-31"/>
       <use x="63.623047" xlink:href="#DejaVuSans-2e"/>
       <use x="95.410156" xlink:href="#DejaVuSans-37"/>
       <use x="159.033203" xlink:href="#DejaVuSans-35"/>
      </g>
     </g>
    </g>
    <g id="ytick_11">
     <g id="line2d_44">
      <g>
       <use style="stroke:#000000;stroke-width:0.8;" x="252.392727" xlink:href="#md05733f87c" y="174.528"/>
      </g>
     </g>
     <g id="text_41">
      <!-- 2.00 -->
      <g transform="translate(223.127102 178.327219)scale(0.1 -0.1)">
       <use xlink:href="#DejaVuSans-32"/>
       <use x="63.623047" xlink:href="#DejaVuSans-2e"/>
       <use x="95.410156" xlink:href="#DejaVuSans-30"/>
       <use x="159.033203" xlink:href="#DejaVuSans-30"/>
      </g>
     </g>
    </g>
    <g id="ytick_12">
     <g id="line2d_45">
      <g>
       <use style="stroke:#000000;stroke-width:0.8;" x="252.392727" xlink:href="#md05733f87c" y="141.264"/>
      </g>
     </g>
     <g id="text_42">
      <!-- 2.25 -->
      <g transform="translate(223.127102 145.063219)scale(0.1 -0.1)">
       <use xlink:href="#DejaVuSans-32"/>
       <use x="63.623047" xlink:href="#DejaVuSans-2e"/>
       <use x="95.410156" xlink:href="#DejaVuSans-32"/>
       <use x="159.033203" xlink:href="#DejaVuSans-35"/>
      </g>
     </g>
    </g>
    <g id="ytick_13">
     <g id="line2d_46">
      <g>
       <use style="stroke:#000000;stroke-width:0.8;" x="252.392727" xlink:href="#md05733f87c" y="108"/>
      </g>
     </g>
     <g id="text_43">
      <!-- 2.50 -->
      <g transform="translate(223.127102 111.799219)scale(0.1 -0.1)">
       <use xlink:href="#DejaVuSans-32"/>
       <use x="63.623047" xlink:href="#DejaVuSans-2e"/>
       <use x="95.410156" xlink:href="#DejaVuSans-35"/>
       <use x="159.033203" xlink:href="#DejaVuSans-30"/>
      </g>
     </g>
    </g>
    <g id="ytick_14">
     <g id="line2d_47">
      <g>
       <use style="stroke:#000000;stroke-width:0.8;" x="252.392727" xlink:href="#md05733f87c" y="74.736"/>
      </g>
     </g>
     <g id="text_44">
      <!-- 2.75 -->
      <g transform="translate(223.127102 78.535219)scale(0.1 -0.1)">
       <use xlink:href="#DejaVuSans-32"/>
       <use x="63.623047" xlink:href="#DejaVuSans-2e"/>
       <use x="95.410156" xlink:href="#DejaVuSans-37"/>
       <use x="159.033203" xlink:href="#DejaVuSans-35"/>
      </g>
     </g>
    </g>
    <g id="ytick_15">
     <g id="line2d_48">
      <g>
       <use style="stroke:#000000;stroke-width:0.8;" x="252.392727" xlink:href="#md05733f87c" y="41.472"/>
      </g>
     </g>
     <g id="text_45">
      <!-- 3.00 -->
      <g transform="translate(223.127102 45.271219)scale(0.1 -0.1)">
       <use xlink:href="#DejaVuSans-33"/>
       <use x="63.623047" xlink:href="#DejaVuSans-2e"/>
       <use x="95.410156" xlink:href="#DejaVuSans-30"/>
       <use x="159.033203" xlink:href="#DejaVuSans-30"/>
      </g>
     </g>
    </g>
   </g>
   <g id="line2d_49">
    <path clip-path="url(#pd5e6aabb06)" d="M 259.77124 140.809587 
L 259.993819 138.924931 
L 260.216399 205.84522 
L 260.438978 208.65343 
L 260.661558 239.812146 
L 260.884137 196.670641 
L 261.106717 160.176161 
L 261.329297 229.400745 
L 261.551876 204.09543 
L 261.774456 194.537691 
L 261.997035 176.450278 
L 262.219615 190.59131 
L 262.442194 171.372524 
L 262.664774 190.686901 
L 262.887354 199.946154 
L 263.109933 176.454673 
L 263.332513 278.60068 
L 263.555092 186.665435 
L 263.777672 165.514331 
L 264.000251 201.235696 
L 264.222831 171.273604 
L 264.44541 213.107851 
L 264.66799 178.992617 
L 264.89057 186.364018 
L 265.113149 174.968756 
L 265.335729 194.897819 
L 265.558308 246.218855 
L 265.780888 184.734982 
L 266.003467 192.161768 
L 266.226047 167.710653 
L 266.448626 193.603084 
L 266.671206 173.316822 
L 266.893786 187.686579 
L 267.116365 179.670274 
L 267.338945 205.76108 
L 267.561524 182.105706 
L 267.784104 171.992931 
L 268.006683 195.897394 
L 268.229263 183.147616 
L 268.451842 194.667629 
L 268.674422 192.829172 
L 268.897002 183.689209 
L 269.119581 192.509249 
L 269.342161 177.086663 
L 269.56474 187.105045 
L 269.78732 199.941361 
L 270.009899 202.077773 
L 270.232479 215.614379 
L 270.455059 232.328378 
L 270.677638 200.583869 
L 270.900218 176.046215 
L 271.122797 169.397071 
L 271.345377 166.324057 
L 271.567956 201.972731 
L 271.790536 229.339104 
L 272.013115 193.701737 
L 272.235695 159.801786 
L 272.458275 261.545989 
L 272.680854 167.747401 
L 272.903434 140.235111 
L 273.126013 180.339407 
L 273.348593 172.443993 
L 273.571172 200.50958 
L 273.793752 186.450156 
L 274.016331 246.802251 
L 274.238911 212.947691 
L 274.461491 167.458631 
L 274.68407 189.252907 
L 274.90665 175.48532 
L 275.129229 263.486561 
L 275.351809 201.864226 
L 275.574388 208.284248 
L 275.796968 185.401188 
L 276.019548 182.376367 
L 276.242127 179.940137 
L 276.464707 181.293184 
L 276.687286 218.588609 
L 276.909866 223.276548 
L 277.132445 212.214917 
L 277.355025 176.095343 
L 277.577604 247.69918 
L 277.800184 221.594391 
L 278.022764 178.706778 
L 278.245343 202.331928 
L 278.467923 188.294737 
L 278.690502 193.494978 
L 278.913082 198.843665 
L 279.135661 216.798879 
L 279.358241 213.994929 
L 279.58082 183.463546 
L 279.8034 209.463022 
L 280.02598 189.311354 
L 280.248559 180.975658 
L 280.471139 277.608028 
L 280.693718 197.014794 
L 280.916298 206.22665 
L 281.138877 197.53149 
L 281.361457 193.540909 
L 281.584036 213.517773 
L 281.806616 184.523697 
L 282.029196 172.897049 
L 282.251775 220.966129 
L 282.474355 184.5659 
L 282.696934 273.495762 
L 282.919514 164.619267 
L 283.142093 179.254626 
L 283.364673 195.433287 
L 283.587253 180.202279 
L 283.809832 192.501394 
L 284.032412 185.887928 
L 284.254991 176.142871 
L 284.477571 215.141219 
L 284.70015 220.046967 
L 284.92273 174.285911 
L 285.145309 166.6292 
L 285.367889 210.565644 
L 285.590469 179.88715 
L 285.813048 250.117839 
L 286.035628 198.321644 
L 286.258207 202.862736 
L 286.480787 176.624552 
" style="fill:none;stroke:#0000ff;stroke-linecap:square;stroke-width:1.5;"/>
   </g>
   <g id="line2d_50">
    <path clip-path="url(#pd5e6aabb06)" d="M 286.703366 170.291093 
L 286.925946 181.313902 
L 287.148525 247.145451 
L 287.371105 194.765735 
L 287.816264 210.984301 
L 288.038844 226.034559 
L 288.484003 213.821636 
L 288.706582 209.595639 
L 289.151742 236.688182 
L 289.374321 216.309802 
L 289.596901 265.219696 
L 290.04206 196.395989 
L 290.264639 213.633747 
L 290.487219 207.589911 
L 290.709798 205.812327 
L 290.932378 241.269189 
L 291.154958 204.105802 
L 291.377537 211.223623 
L 291.600117 191.228998 
L 291.822696 203.139537 
L 292.045276 245.405131 
L 292.267855 193.731482 
L 292.490435 199.006133 
L 292.713014 232.312414 
L 292.935594 203.893422 
L 293.158174 198.330922 
L 293.380753 188.858219 
L 293.603333 255.329582 
L 293.825912 194.778451 
L 294.048492 200.079256 
L 294.271071 282.138282 
L 294.493651 217.577362 
L 294.716231 240.875818 
L 295.16139 189.920921 
L 295.383969 198.326915 
L 295.606549 200.909009 
L 295.829128 209.263978 
L 296.051708 210.941115 
L 296.274287 221.835373 
L 296.496867 212.082227 
L 296.719447 219.723118 
L 296.942026 189.748613 
L 297.164606 275.767802 
L 297.387185 218.640912 
L 297.609765 193.221901 
L 297.832344 280.080061 
L 298.054924 206.326796 
L 298.277503 183.820659 
L 298.500083 205.76157 
L 298.722663 267.439495 
L 298.945242 215.407385 
L 299.167822 194.452774 
L 299.390401 223.306471 
L 299.612981 198.822603 
L 300.05814 215.642072 
L 300.280719 242.758525 
L 300.503299 202.532474 
L 300.725879 236.785957 
L 301.171038 194.06902 
L 301.393617 232.820318 
L 301.616197 207.836755 
L 301.838776 217.077044 
L 302.061356 175.680746 
L 302.506515 219.126716 
L 302.951674 193.460998 
L 303.174254 207.724019 
L 303.396833 244.307166 
L 303.619413 153.959293 
L 303.841992 195.535247 
L 304.064572 180.650484 
L 304.287152 180.019985 
L 304.732311 128.247995 
L 305.17747 156.769396 
L 305.400049 108.136263 
L 305.622629 159.594993 
L 305.845208 154.028352 
L 306.067788 133.167376 
L 306.290368 169.918692 
L 306.512947 174.930121 
L 306.735527 247.939273 
L 306.958106 133.934753 
L 307.180686 217.270457 
L 307.403265 202.56531 
L 307.848425 98.324146 
L 308.071004 140.929282 
L 308.293584 126.38856 
L 308.516163 200.763415 
L 308.738743 97.157923 
L 308.961322 121.819103 
L 309.183902 209.570928 
L 309.406481 127.978213 
L 309.629061 137.063289 
L 309.851641 179.5263 
L 310.07422 113.364727 
L 310.2968 142.093102 
L 310.519379 151.275287 
L 310.577062 346.6 
M 310.910939 346.6 
L 310.964538 169.489977 
L 311.187118 113.621023 
L 311.409697 197.211317 
L 311.632277 139.838797 
L 311.854857 112.731962 
L 312.077436 153.145568 
L 312.300016 151.684553 
L 312.522595 135.832626 
L 312.745175 132.775608 
L 312.967754 160.165884 
L 313.190334 159.580836 
L 313.246182 346.6 
M 313.596319 346.6 
L 313.635493 227.345473 
L 313.858073 221.923861 
L 314.080652 64.534937 
L 314.303232 203.778798 
L 314.525811 172.037821 
L 314.748391 105.41512 
L 314.97097 96.610493 
L 315.19355 185.803145 
L 315.638709 123.974638 
L 315.861289 181.431045 
L 316.083868 155.441953 
L 316.306448 149.299879 
L 316.529027 186.47782 
L 316.751607 147.765857 
L 316.974186 216.387008 
L 317.196766 218.813623 
L 317.419346 165.167647 
L 317.641925 148.358593 
L 317.864505 149.829363 
L 318.087084 155.126053 
L 318.309664 252.513202 
L 318.532243 146.06603 
L 318.754823 111.618365 
L 318.977402 182.737385 
L 319.199982 217.899397 
L 319.422562 157.8229 
L 319.645141 182.80858 
L 319.867721 193.617944 
L 319.915643 346.6 
M 320.264161 346.6 
L 320.31288 190.360377 
L 320.535459 134.547049 
L 320.758039 137.086132 
L 320.980619 116.550093 
L 321.203198 158.951174 
L 321.425778 137.441593 
L 321.648357 156.003759 
L 321.870937 143.560129 
L 322.316096 196.851338 
L 322.538675 154.759129 
L 322.761255 176.738633 
L 322.983835 147.676972 
L 323.206414 185.126465 
L 323.428994 179.797987 
L 323.651573 233.687738 
L 324.096732 165.902429 
L 324.151155 346.6 
M 324.502392 346.6 
L 324.541891 226.141418 
L 324.764471 100.132853 
L 324.987051 156.54446 
L 325.20963 152.703315 
L 325.43221 144.219846 
L 325.654789 118.542374 
L 326.099948 211.26089 
L 326.322528 129.588535 
L 326.545108 127.870419 
L 326.990267 206.186197 
L 327.212846 188.962939 
L 327.435426 152.827534 
L 327.880585 125.378218 
L 328.103164 167.4488 
L 328.325744 156.066539 
L 328.548324 156.72238 
L 328.770903 133.733707 
L 328.993483 132.189091 
L 329.216062 92.455766 
L 329.438642 126.540128 
L 329.661221 246.997452 
L 329.883801 106.160991 
L 330.10638 106.329156 
L 330.32896 151.2459 
L 330.55154 143.262466 
L 330.996699 111.662177 
L 331.219278 179.571141 
L 331.441858 204.789027 
L 331.887017 135.291583 
L 332.109596 130.057135 
L 332.554756 166.446603 
L 332.777335 137.343928 
L 332.999915 193.490919 
L 333.222494 146.083853 
L 333.445074 228.180805 
L 333.667653 89.31948 
L 334.112813 140.882266 
L 334.172818 346.6 
M 334.513627 346.6 
L 334.557972 207.930656 
L 334.780551 133.01526 
L 335.003131 120.153526 
L 335.22571 151.125818 
L 335.44829 166.354871 
L 335.670869 192.543621 
L 336.116029 156.87305 
L 336.338608 216.38674 
L 336.561188 195.075961 
L 336.783767 119.310682 
L 337.006347 138.450709 
L 337.228926 229.750478 
L 337.451506 96.668648 
L 337.896665 190.278896 
L 338.119245 131.775949 
L 338.341824 152.511368 
L 338.564404 99.680043 
L 338.786983 201.809956 
L 339.009563 173.324506 
L 339.454722 225.072301 
L 339.677302 206.209802 
L 339.899881 233.77376 
L 340.122461 223.707456 
L 340.34504 198.612761 
L 340.56762 207.497746 
L 340.790199 225.348939 
L 341.012779 230.053894 
L 341.235358 225.5736 
L 341.457938 247.679741 
L 341.680518 192.217302 
L 341.903097 211.587074 
L 342.125677 203.509935 
L 342.348256 203.804997 
L 342.793415 252.511198 
L 343.238574 183.109631 
L 343.461154 192.159065 
L 343.683734 151.092826 
L 344.351472 193.724669 
L 344.574052 176.633785 
L 344.796631 149.543651 
L 345.019211 141.71394 
L 345.46437 184.763015 
L 345.68695 159.974219 
L 345.909529 214.878037 
L 346.132109 147.892559 
L 346.354688 204.912046 
L 346.577268 183.908952 
L 346.799847 140.922593 
L 347.022427 136.077523 
L 347.245007 164.835184 
L 347.467586 152.078009 
L 347.912745 222.139981 
L 348.135325 149.137321 
L 348.357904 176.096958 
L 349.025643 130.271788 
L 349.470802 203.195239 
L 349.693382 149.842854 
L 349.915961 186.831319 
L 350.138541 193.481835 
L 350.36112 169.911881 
L 350.5837 240.397494 
L 350.806279 218.536726 
L 351.028859 231.695683 
L 351.474018 214.816728 
L 351.696598 221.020303 
L 351.919177 200.4948 
L 352.141757 230.310087 
L 352.364336 213.876642 
L 352.586916 212.235168 
L 353.032075 226.041505 
L 353.254655 212.444476 
L 353.477234 248.114615 
L 353.477234 248.114615 
" style="fill:none;stroke:#ff0000;stroke-linecap:square;stroke-width:1.5;"/>
   </g>
   <g id="line2d_51">
    <path clip-path="url(#pd5e6aabb06)" d="M 353.699814 123.075376 
L 353.922393 250.029969 
L 354.144973 276.868331 
L 354.367552 211.541122 
L 354.590132 219.339754 
L 354.812712 189.246783 
L 355.035291 175.144096 
L 355.257871 184.304291 
L 355.48045 220.56699 
L 355.70303 193.767105 
L 355.925609 228.716566 
L 356.148189 223.447892 
L 356.370768 180.647748 
L 356.593348 270.679962 
L 356.815928 154.714308 
L 357.038507 259.959423 
L 357.261087 242.111117 
L 357.706246 154.211459 
L 357.928825 246.041253 
L 358.373985 157.353572 
L 358.596564 187.636785 
L 358.819144 178.595211 
L 359.041723 161.634252 
L 359.264303 234.238062 
L 359.486882 171.266681 
L 359.709462 246.061224 
L 359.932041 162.465413 
L 360.154621 173.218036 
L 360.377201 192.83503 
L 360.59978 180.158345 
L 360.82236 239.574235 
L 361.044939 154.58557 
L 361.267519 175.000842 
L 361.490098 149.940495 
L 361.712678 141.827001 
L 361.935257 151.690553 
L 362.157837 176.650914 
L 362.380417 229.711748 
L 362.602996 204.839254 
L 362.825576 194.786785 
L 363.048155 174.056518 
L 363.493314 188.336274 
L 363.715894 141.18556 
L 363.938474 144.859278 
L 364.383633 170.291869 
L 364.606212 257.038313 
L 364.828792 187.438681 
L 365.051371 175.612729 
L 365.273951 175.453765 
L 365.49653 191.810824 
L 365.71911 165.108537 
L 365.94169 179.576147 
L 366.164269 175.422346 
L 366.609428 173.043629 
L 367.054587 199.667103 
L 367.277167 200.322659 
L 367.722326 146.420149 
L 367.944906 151.362641 
L 368.167485 166.999582 
L 368.390065 201.844256 
L 368.612644 166.491805 
L 368.835224 163.01912 
L 369.057803 218.048748 
L 369.280383 99.547276 
L 369.502962 127.617265 
L 369.948122 153.845206 
L 370.164314 346.6 
M 370.175717 346.6 
L 370.393281 99.563654 
L 370.61586 175.426204 
L 370.83844 134.661425 
L 371.061019 201.121733 
L 371.506179 166.128217 
L 371.951338 202.992277 
L 372.173917 205.629275 
L 372.396497 183.946959 
L 372.619076 178.203395 
L 372.841656 152.080505 
L 373.064235 142.0291 
L 373.286815 158.263814 
L 373.509395 185.738685 
L 373.731974 157.67802 
L 373.954554 162.430128 
L 374.177133 144.910934 
L 374.399713 156.822365 
L 374.622292 114.589503 
L 374.844872 177.365845 
L 374.896645 346.6 
M 375.251281 346.6 
L 375.290031 228.908946 
L 375.512611 154.352581 
L 375.569621 346.6 
M 375.906506 346.6 
L 375.95777 179.529151 
L 376.180349 161.995314 
L 376.402929 184.594392 
L 376.625508 105.155578 
L 376.848088 126.838029 
L 377.070668 213.056463 
L 377.293247 188.150953 
L 377.515827 232.432222 
L 377.738406 126.45167 
L 377.80137 346.6 
M 378.136963 346.6 
L 378.183565 198.80692 
L 378.183565 198.80692 
L 378.183565 198.80692 
L 378.230208 346.6 
M 378.819 346.6 
L 378.851304 251.946178 
L 378.851304 251.946178 
L 378.851304 251.946178 
L 378.883568 346.6 
M 379.235581 346.6 
L 379.296463 136.377665 
L 379.519043 125.073995 
L 379.741622 182.309935 
L 379.964202 115.654179 
L 380.029383 346.6 
M 380.346049 346.6 
L 380.409361 124.910237 
L 380.63194 137.443141 
L 380.85452 173.93004 
L 380.907096 346.6 
M 384.376434 346.6 
L 384.415793 226.650848 
L 384.638373 195.514499 
L 384.860952 118.899605 
L 384.925476 346.6 
M 385.270618 346.6 
L 385.306111 240.782165 
L 385.528691 189.156918 
L 385.75127 225.247208 
L 385.97385 193.349463 
L 386.196429 131.256904 
L 386.419009 188.352918 
L 386.641589 146.236689 
L 386.864168 180.513281 
L 387.086748 176.01799 
L 387.309327 183.693604 
L 387.531907 171.242982 
L 387.754486 139.165904 
L 387.977066 141.215248 
L 388.422225 207.479449 
L 388.644805 142.994195 
L 388.867384 195.895132 
L 389.312543 125.379537 
L 389.535123 145.859651 
L 389.757702 191.510207 
L 389.980282 118.200249 
L 390.202862 141.884514 
L 390.425441 236.1343 
L 390.648021 183.108344 
L 390.8706 190.708205 
L 391.09318 132.452986 
L 391.315759 247.540748 
L 391.760918 179.139465 
L 391.983498 208.673135 
L 392.206078 113.714277 
L 392.651237 181.054076 
L 392.873816 170.381601 
L 393.096396 289.29366 
L 393.318975 140.921287 
L 393.541555 219.142449 
L 393.764134 196.309581 
L 393.811341 346.6 
M 394.628986 346.6 
L 394.654453 274.458193 
L 394.877032 163.758551 
L 394.931935 346.6 
M 395.265842 346.6 
L 395.322191 157.306974 
L 395.544771 229.467446 
L 395.583371 346.6 
M 395.942363 346.6 
L 395.98993 194.860409 
L 396.21251 190.882876 
L 396.261049 346.6 
M 397.30028 346.6 
L 397.325407 275.546968 
L 397.547987 236.124315 
L 397.584753 346.6 
M 398.200902 346.6 
L 398.215726 306.755209 
L 398.438305 306.25533 
L 398.660885 293.159892 
L 398.883464 250.552523 
L 399.106044 179.831632 
L 399.328623 212.02986 
L 399.551203 187.501523 
L 399.773783 180.961413 
L 399.996362 241.154145 
L 400.218942 230.211403 
L 400.441521 204.048436 
L 400.664101 130.567264 
L 401.10926 166.439349 
L 401.331839 164.581056 
L 401.554419 179.895536 
L 401.776999 216.379903 
L 402.444737 179.135871 
L 402.667317 198.100375 
L 402.889896 241.749922 
L 403.112476 164.254211 
L 403.557635 262.014091 
L 403.780215 192.194652 
L 404.002794 235.956831 
L 404.225374 218.594998 
L 404.447953 189.922175 
L 404.670533 183.388191 
L 404.893112 148.99311 
L 405.115692 187.393415 
L 405.338272 133.395979 
L 405.560851 168.217231 
L 405.783431 157.337062 
L 406.00601 194.751503 
L 406.22859 162.203404 
L 406.451169 181.01733 
L 406.673749 182.065898 
L 406.896328 215.930574 
L 407.118908 180.255935 
L 407.341488 256.783228 
L 407.341488 256.783228 
" style="fill:none;stroke:#000000;stroke-linecap:square;stroke-width:1.5;"/>
   </g>
   <g id="patch_9">
    <path d="M 252.392727 307.584 
L 252.392727 41.472 
" style="fill:none;stroke:#000000;stroke-linecap:square;stroke-linejoin:miter;stroke-width:0.8;"/>
   </g>
   <g id="patch_10">
    <path d="M 414.72 307.584 
L 414.72 41.472 
" style="fill:none;stroke:#000000;stroke-linecap:square;stroke-linejoin:miter;stroke-width:0.8;"/>
   </g>
   <g id="patch_11">
    <path d="M 252.392727 307.584 
L 414.72 307.584 
" style="fill:none;stroke:#000000;stroke-linecap:square;stroke-linejoin:miter;stroke-width:0.8;"/>
   </g>
   <g id="patch_12">
    <path d="M 252.392727 41.472 
L 414.72 41.472 
" style="fill:none;stroke:#000000;stroke-linecap:square;stroke-linejoin:miter;stroke-width:0.8;"/>
   </g>
   <g id="text_46">
    <!-- Pupil - Reg vs Stress -->
    <defs>
     <path d="M 19.671875 64.796875 
L 19.671875 37.40625 
L 32.078125 37.40625 
Q 38.96875 37.40625 42.71875 40.96875 
Q 46.484375 44.53125 46.484375 51.125 
Q 46.484375 57.671875 42.71875 61.234375 
Q 38.96875 64.796875 32.078125 64.796875 
z
M 9.8125 72.90625 
L 32.078125 72.90625 
Q 44.34375 72.90625 50.609375 67.359375 
Q 56.890625 61.8125 56.890625 51.125 
Q 56.890625 40.328125 50.609375 34.8125 
Q 44.34375 29.296875 32.078125 29.296875 
L 19.671875 29.296875 
L 19.671875 0 
L 9.8125 0 
z
" id="DejaVuSans-50"/>
     <path d="M 18.109375 8.203125 
L 18.109375 -20.796875 
L 9.078125 -20.796875 
L 9.078125 54.6875 
L 18.109375 54.6875 
L 18.109375 46.390625 
Q 20.953125 51.265625 25.265625 53.625 
Q 29.59375 56 35.59375 56 
Q 45.5625 56 51.78125 48.09375 
Q 58.015625 40.1875 58.015625 27.296875 
Q 58.015625 14.40625 51.78125 6.484375 
Q 45.5625 -1.421875 35.59375 -1.421875 
Q 29.59375 -1.421875 25.265625 0.953125 
Q 20.953125 3.328125 18.109375 8.203125 
z
M 48.6875 27.296875 
Q 48.6875 37.203125 44.609375 42.84375 
Q 40.53125 48.484375 33.40625 48.484375 
Q 26.265625 48.484375 22.1875 42.84375 
Q 18.109375 37.203125 18.109375 27.296875 
Q 18.109375 17.390625 22.1875 11.75 
Q 26.265625 6.109375 33.40625 6.109375 
Q 40.53125 6.109375 44.609375 11.75 
Q 48.6875 17.390625 48.6875 27.296875 
z
" id="DejaVuSans-70"/>
    </defs>
    <g transform="translate(272.289801 35.472)scale(0.12 -0.12)">
     <use xlink:href="#DejaVuSans-50"/>
     <use x="60.287109" xlink:href="#DejaVuSans-75"/>
     <use x="123.666016" xlink:href="#DejaVuSans-70"/>
     <use x="187.142578" xlink:href="#DejaVuSans-69"/>
     <use x="214.925781" xlink:href="#DejaVuSans-6c"/>
     <use x="242.708984" xlink:href="#DejaVuSans-20"/>
     <use x="274.496094" xlink:href="#DejaVuSans-2d"/>
     <use x="310.580078" xlink:href="#DejaVuSans-20"/>
     <use x="342.367188" xlink:href="#DejaVuSans-52"/>
     <use x="411.787109" xlink:href="#DejaVuSans-65"/>
     <use x="473.310547" xlink:href="#DejaVuSans-67"/>
     <use x="536.787109" xlink:href="#DejaVuSans-20"/>
     <use x="568.574219" xlink:href="#DejaVuSans-76"/>
     <use x="627.753906" xlink:href="#DejaVuSans-73"/>
     <use x="679.853516" xlink:href="#DejaVuSans-20"/>
     <use x="711.640625" xlink:href="#DejaVuSans-53"/>
     <use x="775.117188" xlink:href="#DejaVuSans-74"/>
     <use x="814.326172" xlink:href="#DejaVuSans-72"/>
     <use x="855.408203" xlink:href="#DejaVuSans-65"/>
     <use x="916.931641" xlink:href="#DejaVuSans-73"/>
     <use x="969.03125" xlink:href="#DejaVuSans-73"/>
    </g>
   </g>
   <g id="legend_2">
    <g id="patch_13">
     <path d="M 338.512187 93.506375 
L 407.72 93.506375 
Q 409.72 93.506375 409.72 91.506375 
L 409.72 48.472 
Q 409.72 46.472 407.72 46.472 
L 338.512187 46.472 
Q 336.512187 46.472 336.512187 48.472 
L 336.512187 91.506375 
Q 336.512187 93.506375 338.512187 93.506375 
z
" style="fill:#ffffff;opacity:0.8;stroke:#cccccc;stroke-linejoin:miter;"/>
    </g>
    <g id="line2d_52">
     <path d="M 340.512187 54.570438 
L 360.512187 54.570438 
" style="fill:none;stroke:#0000ff;stroke-linecap:square;stroke-width:1.5;"/>
    </g>
    <g id="line2d_53"/>
    <g id="text_47">
     <!-- Reg -->
     <g transform="translate(368.512187 58.070438)scale(0.1 -0.1)">
      <use xlink:href="#DejaVuSans-52"/>
      <use x="69.419922" xlink:href="#DejaVuSans-65"/>
      <use x="130.943359" xlink:href="#DejaVuSans-67"/>
     </g>
    </g>
    <g id="line2d_54">
     <path d="M 340.512187 69.248563 
L 360.512187 69.248563 
" style="fill:none;stroke:#ff0000;stroke-linecap:square;stroke-width:1.5;"/>
    </g>
    <g id="line2d_55"/>
    <g id="text_48">
     <!-- Stress -->
     <g transform="translate(368.512187 72.748563)scale(0.1 -0.1)">
      <use xlink:href="#DejaVuSans-53"/>
      <use x="63.476562" xlink:href="#DejaVuSans-74"/>
      <use x="102.685547" xlink:href="#DejaVuSans-72"/>
      <use x="143.767578" xlink:href="#DejaVuSans-65"/>
      <use x="205.291016" xlink:href="#DejaVuSans-73"/>
      <use x="257.390625" xlink:href="#DejaVuSans-73"/>
     </g>
    </g>
    <g id="line2d_56">
     <path d="M 340.512187 83.926688 
L 360.512187 83.926688 
" style="fill:none;stroke:#000000;stroke-linecap:square;stroke-width:1.5;"/>
    </g>
    <g id="line2d_57"/>
    <g id="text_49">
     <!-- Block C -->
     <g transform="translate(368.512187 87.426688)scale(0.1 -0.1)">
      <use xlink:href="#DejaVuSans-42"/>
      <use x="68.603516" xlink:href="#DejaVuSans-6c"/>
      <use x="96.386719" xlink:href="#DejaVuSans-6f"/>
      <use x="157.568359" xlink:href="#DejaVuSans-63"/>
      <use x="212.548828" xlink:href="#DejaVuSans-6b"/>
      <use x="270.458984" xlink:href="#DejaVuSans-20"/>
      <use x="302.246094" xlink:href="#DejaVuSans-43"/>
     </g>
    </g>
   </g>
  </g>
 </g>
 <defs>
  <clipPath id="p5a8218ed7b">
   <rect height="266.112" width="162.327273" x="57.6" y="41.472"/>
  </clipPath>
  <clipPath id="pd5e6aabb06">
   <rect height="266.112" width="162.327273" x="252.392727" y="41.472"/>
  </clipPath>
 </defs>
</svg>
