<?xml version="1.0" encoding="utf-8" standalone="no"?>
<!DOCTYPE svg PUBLIC "-//W3C//DTD SVG 1.1//EN"
  "http://www.w3.org/Graphics/SVG/1.1/DTD/svg11.dtd">
<!-- Created with matplotlib (http://matplotlib.org/) -->
<svg height="432pt" version="1.1" viewBox="0 0 576 432" width="576pt" xmlns="http://www.w3.org/2000/svg" xmlns:xlink="http://www.w3.org/1999/xlink">
 <defs>
  <style type="text/css">
*{stroke-linecap:butt;stroke-linejoin:round;}
  </style>
 </defs>
 <g id="figure_1">
  <g id="patch_1">
   <path d="
M0 432
L576 432
L576 0
L0 0
z
" style="fill:#ffffff;"/>
  </g>
  <g id="axes_1">
   <g id="patch_2">
    <path d="
M74.1875 402.44
L220.293 402.44
L220.293 238.28
L74.1875 238.28
z
" style="fill:#ffffff;"/>
   </g>
   <g id="line2d_1">
    <path clip-path="url(#p03a1b07124)" d="
M75.405 308.738
L76.6226 306.119
L77.8401 296.994
L79.0577 301.1
L80.2752 292.624
L81.4927 280.787
L82.7103 320.332
L83.9278 305.407
L85.1454 291.287
L86.3629 304.471
L87.5804 287.201
L88.798 280.549
L90.0155 367.309
L91.2331 274.326
L92.4506 303.41
L93.6682 298.621
L94.8857 278.118
L96.1032 342.55
L97.3208 280.976
L98.5383 286.831
L99.7559 262.748
L100.973 262.606
L102.191 268.861
L103.408 314.13
L104.626 263.065
L105.844 287.139
L107.061 290.414
L108.279 282.547
L109.496 286.011
L110.714 303.186
L111.931 282.052
L113.149 290.071
L114.366 375.093
L115.584 291.391
L116.801 254.567
L118.019 343.873
L119.237 360.71
L120.454 286.966
L121.672 282.741
L122.889 301.668
L124.107 290.914
L125.324 258.68
L126.542 310.491
L127.759 283.916
L128.977 290.126
L130.194 281.034
L131.412 284.354
L132.629 313.757
L133.847 300.666
L135.065 294.826
L136.282 378.951
L137.5 289.799
L138.717 347.969
L139.935 283.182
L141.152 354.68
L142.37 283.766
L143.587 288.453
L144.805 294.278
L146.022 278.404
L147.24 271.585
L148.458 279.183
L149.675 288.695
L150.893 335.407
L152.11 307.591
L153.328 287.335
L154.545 323.267
L155.763 294.914
L156.98 329.722
L158.198 288.306
L159.415 274.627
L160.633 281.945
L161.851 324.116
L163.068 259.116
L164.286 296.692
L165.503 277.781
L166.721 338.225
L167.938 291.562
L169.156 273.851
L170.373 292.911
L171.591 281.431
L172.808 272.719
L174.026 260.159
L175.243 314.59
L176.461 320.084
L177.679 272.463
L178.896 286.727
L180.114 302.073
L181.331 304.062
L182.549 321.98
L183.766 274.288
L184.984 306.462
L186.201 300.296
L187.419 275.278
L188.636 286.166
L189.854 297.292
L191.072 286.624
L192.289 259.766
L193.507 258.077
L194.724 316.671
L195.942 306.724
L197.159 351.101" style="fill:none;stroke:#ff0000;stroke-linecap:square;"/>
   </g>
   <g id="line2d_2">
    <path clip-path="url(#p03a1b07124)" d="
M75.405 298.458
L76.6226 298.425
L77.8401 298.392
L79.0577 298.359
L80.2752 298.326
L81.4927 298.293
L82.7103 298.26
L83.9278 298.227
L85.1454 298.194
L86.3629 298.161
L87.5804 298.128
L88.798 298.095
L90.0155 298.062
L91.2331 298.029
L92.4506 297.996
L93.6682 297.963
L94.8857 297.93
L96.1032 297.897
L97.3208 297.864
L98.5383 297.831
L99.7559 297.798
L100.973 297.765
L102.191 297.732
L103.408 297.699
L104.626 297.666
L105.844 297.633
L107.061 297.6
L108.279 297.568
L109.496 297.535
L110.714 297.502
L111.931 297.469
L113.149 297.436
L114.366 297.403
L115.584 297.37
L116.801 297.337
L118.019 297.304
L119.237 297.271
L120.454 297.238
L121.672 297.205
L122.889 297.172
L124.107 297.139
L125.324 297.106
L126.542 297.073
L127.759 297.04
L128.977 297.007
L130.194 296.974
L131.412 296.941
L132.629 296.908
L133.847 296.875
L135.065 296.842
L136.282 296.809
L137.5 296.776
L138.717 296.743
L139.935 296.71
L141.152 296.677
L142.37 296.644
L143.587 296.611
L144.805 296.578
L146.022 296.545
L147.24 296.512
L148.458 296.479
L149.675 296.446
L150.893 296.413
L152.11 296.38
L153.328 296.347
L154.545 296.314
L155.763 296.281
L156.98 296.248
L158.198 296.215
L159.415 296.182
L160.633 296.149
L161.851 296.116
L163.068 296.083
L164.286 296.05
L165.503 296.017
L166.721 295.984
L167.938 295.951
L169.156 295.918
L170.373 295.885
L171.591 295.852
L172.808 295.819
L174.026 295.786
L175.243 295.753
L176.461 295.721
L177.679 295.688
L178.896 295.655
L180.114 295.622
L181.331 295.589
L182.549 295.556
L183.766 295.523
L184.984 295.49
L186.201 295.457
L187.419 295.424
L188.636 295.391
L189.854 295.358
L191.072 295.325
L192.289 295.292
L193.507 295.259
L194.724 295.226
L195.942 295.193
L197.159 295.16" style="fill:none;stroke:#ff0000;stroke-dasharray:6.000000,6.000000;stroke-dashoffset:0.0;"/>
   </g>
   <g id="patch_3">
    <path d="
M74.1875 238.28
L220.293 238.28" style="fill:none;stroke:#000000;stroke-linecap:square;stroke-linejoin:miter;"/>
   </g>
   <g id="patch_4">
    <path d="
M220.293 402.44
L220.293 238.28" style="fill:none;stroke:#000000;stroke-linecap:square;stroke-linejoin:miter;"/>
   </g>
   <g id="patch_5">
    <path d="
M74.1875 402.44
L220.293 402.44" style="fill:none;stroke:#000000;stroke-linecap:square;stroke-linejoin:miter;"/>
   </g>
   <g id="patch_6">
    <path d="
M74.1875 402.44
L74.1875 238.28" style="fill:none;stroke:#000000;stroke-linecap:square;stroke-linejoin:miter;"/>
   </g>
   <g id="matplotlib.axis_1">
    <g id="xtick_1">
     <g id="line2d_3">
      <defs>
       <path d="
M0 0
L0 -4" id="m93b0483c22" style="stroke:#000000;stroke-width:0.5;"/>
      </defs>
      <g>
       <use style="stroke:#000000;stroke-width:0.5;" x="74.1874857955" xlink:href="#m93b0483c22" y="402.44"/>
      </g>
     </g>
     <g id="line2d_4">
      <defs>
       <path d="
M0 0
L0 4" id="m741efc42ff" style="stroke:#000000;stroke-width:0.5;"/>
      </defs>
      <g>
       <use style="stroke:#000000;stroke-width:0.5;" x="74.1874857955" xlink:href="#m741efc42ff" y="238.28"/>
      </g>
     </g>
     <g id="text_1">
      <!-- 0 -->
      <defs>
       <path d="
M31.7812 66.4062
Q24.1719 66.4062 20.3281 58.9062
Q16.5 51.4219 16.5 36.375
Q16.5 21.3906 20.3281 13.8906
Q24.1719 6.39062 31.7812 6.39062
Q39.4531 6.39062 43.2812 13.8906
Q47.125 21.3906 47.125 36.375
Q47.125 51.4219 43.2812 58.9062
Q39.4531 66.4062 31.7812 66.4062
M31.7812 74.2188
Q44.0469 74.2188 50.5156 64.5156
Q56.9844 54.8281 56.9844 36.375
Q56.9844 17.9688 50.5156 8.26562
Q44.0469 -1.42188 31.7812 -1.42188
Q19.5312 -1.42188 13.0625 8.26562
Q6.59375 17.9688 6.59375 36.375
Q6.59375 54.8281 13.0625 64.5156
Q19.5312 74.2188 31.7812 74.2188" id="BitstreamVeraSans-Roman-30"/>
      </defs>
      <g transform="translate(71.1640482955 415.558125)scale(0.12 -0.12)">
       <use xlink:href="#BitstreamVeraSans-Roman-30"/>
      </g>
     </g>
    </g>
    <g id="xtick_2">
     <g id="line2d_5">
      <g>
       <use style="stroke:#000000;stroke-width:0.5;" x="98.5383238636" xlink:href="#m93b0483c22" y="402.44"/>
      </g>
     </g>
     <g id="line2d_6">
      <g>
       <use style="stroke:#000000;stroke-width:0.5;" x="98.5383238636" xlink:href="#m741efc42ff" y="238.28"/>
      </g>
     </g>
     <g id="text_2">
      <!-- 20 -->
      <defs>
       <path d="
M19.1875 8.29688
L53.6094 8.29688
L53.6094 0
L7.32812 0
L7.32812 8.29688
Q12.9375 14.1094 22.625 23.8906
Q32.3281 33.6875 34.8125 36.5312
Q39.5469 41.8438 41.4219 45.5312
Q43.3125 49.2188 43.3125 52.7812
Q43.3125 58.5938 39.2344 62.25
Q35.1562 65.9219 28.6094 65.9219
Q23.9688 65.9219 18.8125 64.3125
Q13.6719 62.7031 7.8125 59.4219
L7.8125 69.3906
Q13.7656 71.7812 18.9375 73
Q24.125 74.2188 28.4219 74.2188
Q39.75 74.2188 46.4844 68.5469
Q53.2188 62.8906 53.2188 53.4219
Q53.2188 48.9219 51.5312 44.8906
Q49.8594 40.875 45.4062 35.4062
Q44.1875 33.9844 37.6406 27.2188
Q31.1094 20.4531 19.1875 8.29688" id="BitstreamVeraSans-Roman-32"/>
      </defs>
      <g transform="translate(91.7414488636 415.558125)scale(0.12 -0.12)">
       <use xlink:href="#BitstreamVeraSans-Roman-32"/>
       <use x="63.623046875" xlink:href="#BitstreamVeraSans-Roman-30"/>
      </g>
     </g>
    </g>
    <g id="xtick_3">
     <g id="line2d_7">
      <g>
       <use style="stroke:#000000;stroke-width:0.5;" x="122.889161932" xlink:href="#m93b0483c22" y="402.44"/>
      </g>
     </g>
     <g id="line2d_8">
      <g>
       <use style="stroke:#000000;stroke-width:0.5;" x="122.889161932" xlink:href="#m741efc42ff" y="238.28"/>
      </g>
     </g>
     <g id="text_3">
      <!-- 40 -->
      <defs>
       <path d="
M37.7969 64.3125
L12.8906 25.3906
L37.7969 25.3906
z

M35.2031 72.9062
L47.6094 72.9062
L47.6094 25.3906
L58.0156 25.3906
L58.0156 17.1875
L47.6094 17.1875
L47.6094 0
L37.7969 0
L37.7969 17.1875
L4.89062 17.1875
L4.89062 26.7031
z
" id="BitstreamVeraSans-Roman-34"/>
      </defs>
      <g transform="translate(115.946036932 415.558125)scale(0.12 -0.12)">
       <use xlink:href="#BitstreamVeraSans-Roman-34"/>
       <use x="63.623046875" xlink:href="#BitstreamVeraSans-Roman-30"/>
      </g>
     </g>
    </g>
    <g id="xtick_4">
     <g id="line2d_9">
      <g>
       <use style="stroke:#000000;stroke-width:0.5;" x="147.24" xlink:href="#m93b0483c22" y="402.44"/>
      </g>
     </g>
     <g id="line2d_10">
      <g>
       <use style="stroke:#000000;stroke-width:0.5;" x="147.24" xlink:href="#m741efc42ff" y="238.28"/>
      </g>
     </g>
     <g id="text_4">
      <!-- 60 -->
      <defs>
       <path d="
M33.0156 40.375
Q26.375 40.375 22.4844 35.8281
Q18.6094 31.2969 18.6094 23.3906
Q18.6094 15.5312 22.4844 10.9531
Q26.375 6.39062 33.0156 6.39062
Q39.6562 6.39062 43.5312 10.9531
Q47.4062 15.5312 47.4062 23.3906
Q47.4062 31.2969 43.5312 35.8281
Q39.6562 40.375 33.0156 40.375
M52.5938 71.2969
L52.5938 62.3125
Q48.875 64.0625 45.0938 64.9844
Q41.3125 65.9219 37.5938 65.9219
Q27.8281 65.9219 22.6719 59.3281
Q17.5312 52.7344 16.7969 39.4062
Q19.6719 43.6562 24.0156 45.9219
Q28.375 48.1875 33.5938 48.1875
Q44.5781 48.1875 50.9531 41.5156
Q57.3281 34.8594 57.3281 23.3906
Q57.3281 12.1562 50.6875 5.35938
Q44.0469 -1.42188 33.0156 -1.42188
Q20.3594 -1.42188 13.6719 8.26562
Q6.98438 17.9688 6.98438 36.375
Q6.98438 53.6562 15.1875 63.9375
Q23.3906 74.2188 37.2031 74.2188
Q40.9219 74.2188 44.7031 73.4844
Q48.4844 72.75 52.5938 71.2969" id="BitstreamVeraSans-Roman-36"/>
      </defs>
      <g transform="translate(140.4225 415.558125)scale(0.12 -0.12)">
       <use xlink:href="#BitstreamVeraSans-Roman-36"/>
       <use x="63.623046875" xlink:href="#BitstreamVeraSans-Roman-30"/>
      </g>
     </g>
    </g>
    <g id="xtick_5">
     <g id="line2d_11">
      <g>
       <use style="stroke:#000000;stroke-width:0.5;" x="171.590838068" xlink:href="#m93b0483c22" y="402.44"/>
      </g>
     </g>
     <g id="line2d_12">
      <g>
       <use style="stroke:#000000;stroke-width:0.5;" x="171.590838068" xlink:href="#m741efc42ff" y="238.28"/>
      </g>
     </g>
     <g id="text_5">
      <!-- 80 -->
      <defs>
       <path d="
M31.7812 34.625
Q24.75 34.625 20.7188 30.8594
Q16.7031 27.0938 16.7031 20.5156
Q16.7031 13.9219 20.7188 10.1562
Q24.75 6.39062 31.7812 6.39062
Q38.8125 6.39062 42.8594 10.1719
Q46.9219 13.9688 46.9219 20.5156
Q46.9219 27.0938 42.8906 30.8594
Q38.875 34.625 31.7812 34.625
M21.9219 38.8125
Q15.5781 40.375 12.0312 44.7188
Q8.5 49.0781 8.5 55.3281
Q8.5 64.0625 14.7188 69.1406
Q20.9531 74.2188 31.7812 74.2188
Q42.6719 74.2188 48.875 69.1406
Q55.0781 64.0625 55.0781 55.3281
Q55.0781 49.0781 51.5312 44.7188
Q48 40.375 41.7031 38.8125
Q48.8281 37.1562 52.7969 32.3125
Q56.7812 27.4844 56.7812 20.5156
Q56.7812 9.90625 50.3125 4.23438
Q43.8438 -1.42188 31.7812 -1.42188
Q19.7344 -1.42188 13.25 4.23438
Q6.78125 9.90625 6.78125 20.5156
Q6.78125 27.4844 10.7812 32.3125
Q14.7969 37.1562 21.9219 38.8125
M18.3125 54.3906
Q18.3125 48.7344 21.8438 45.5625
Q25.3906 42.3906 31.7812 42.3906
Q38.1406 42.3906 41.7188 45.5625
Q45.3125 48.7344 45.3125 54.3906
Q45.3125 60.0625 41.7188 63.2344
Q38.1406 66.4062 31.7812 66.4062
Q25.3906 66.4062 21.8438 63.2344
Q18.3125 60.0625 18.3125 54.3906" id="BitstreamVeraSans-Roman-38"/>
      </defs>
      <g transform="translate(164.761150568 415.558125)scale(0.12 -0.12)">
       <use xlink:href="#BitstreamVeraSans-Roman-38"/>
       <use x="63.623046875" xlink:href="#BitstreamVeraSans-Roman-30"/>
      </g>
     </g>
    </g>
    <g id="xtick_6">
     <g id="line2d_13">
      <g>
       <use style="stroke:#000000;stroke-width:0.5;" x="195.941676136" xlink:href="#m93b0483c22" y="402.44"/>
      </g>
     </g>
     <g id="line2d_14">
      <g>
       <use style="stroke:#000000;stroke-width:0.5;" x="195.941676136" xlink:href="#m741efc42ff" y="238.28"/>
      </g>
     </g>
     <g id="text_6">
      <!-- 100 -->
      <defs>
       <path d="
M12.4062 8.29688
L28.5156 8.29688
L28.5156 63.9219
L10.9844 60.4062
L10.9844 69.3906
L28.4219 72.9062
L38.2812 72.9062
L38.2812 8.29688
L54.3906 8.29688
L54.3906 0
L12.4062 0
z
" id="BitstreamVeraSans-Roman-31"/>
      </defs>
      <g transform="translate(185.546676136 415.558125)scale(0.12 -0.12)">
       <use xlink:href="#BitstreamVeraSans-Roman-31"/>
       <use x="63.623046875" xlink:href="#BitstreamVeraSans-Roman-30"/>
       <use x="127.24609375" xlink:href="#BitstreamVeraSans-Roman-30"/>
      </g>
     </g>
    </g>
    <g id="xtick_7">
     <g id="line2d_15">
      <g>
       <use style="stroke:#000000;stroke-width:0.5;" x="220.292514205" xlink:href="#m93b0483c22" y="402.44"/>
      </g>
     </g>
     <g id="line2d_16">
      <g>
       <use style="stroke:#000000;stroke-width:0.5;" x="220.292514205" xlink:href="#m741efc42ff" y="238.28"/>
      </g>
     </g>
     <g id="text_7">
      <!-- 120 -->
      <g transform="translate(209.897514205 415.558125)scale(0.12 -0.12)">
       <use xlink:href="#BitstreamVeraSans-Roman-31"/>
       <use x="63.623046875" xlink:href="#BitstreamVeraSans-Roman-32"/>
       <use x="127.24609375" xlink:href="#BitstreamVeraSans-Roman-30"/>
      </g>
     </g>
    </g>
   </g>
   <g id="matplotlib.axis_2">
    <g id="ytick_1">
     <g id="line2d_17">
      <defs>
       <path d="
M0 0
L4 0" id="m728421d6d4" style="stroke:#000000;stroke-width:0.5;"/>
      </defs>
      <g>
       <use style="stroke:#000000;stroke-width:0.5;" x="74.1874857955" xlink:href="#m728421d6d4" y="402.44"/>
      </g>
     </g>
     <g id="line2d_18">
      <defs>
       <path d="
M0 0
L-4 0" id="mcb0005524f" style="stroke:#000000;stroke-width:0.5;"/>
      </defs>
      <g>
       <use style="stroke:#000000;stroke-width:0.5;" x="220.292514205" xlink:href="#mcb0005524f" y="402.44"/>
      </g>
     </g>
     <g id="text_8">
      <!-- −3 -->
      <defs>
       <path d="
M10.5938 35.5
L73.1875 35.5
L73.1875 27.2031
L10.5938 27.2031
z
" id="BitstreamVeraSans-Roman-2212"/>
       <path d="
M40.5781 39.3125
Q47.6562 37.7969 51.625 33
Q55.6094 28.2188 55.6094 21.1875
Q55.6094 10.4062 48.1875 4.48438
Q40.7656 -1.42188 27.0938 -1.42188
Q22.5156 -1.42188 17.6562 -0.515625
Q12.7969 0.390625 7.625 2.20312
L7.625 11.7188
Q11.7188 9.32812 16.5938 8.10938
Q21.4844 6.89062 26.8125 6.89062
Q36.0781 6.89062 40.9375 10.5469
Q45.7969 14.2031 45.7969 21.1875
Q45.7969 27.6406 41.2812 31.2656
Q36.7656 34.9062 28.7188 34.9062
L20.2188 34.9062
L20.2188 43.0156
L29.1094 43.0156
Q36.375 43.0156 40.2344 45.9219
Q44.0938 48.8281 44.0938 54.2969
Q44.0938 59.9062 40.1094 62.9062
Q36.1406 65.9219 28.7188 65.9219
Q24.6562 65.9219 20.0156 65.0312
Q15.375 64.1562 9.8125 62.3125
L9.8125 71.0938
Q15.4375 72.6562 20.3438 73.4375
Q25.25 74.2188 29.5938 74.2188
Q40.8281 74.2188 47.3594 69.1094
Q53.9062 64.0156 53.9062 55.3281
Q53.9062 49.2656 50.4375 45.0938
Q46.9688 40.9219 40.5781 39.3125" id="BitstreamVeraSans-Roman-33"/>
      </defs>
      <g transform="translate(54.7299857955 405.75125)scale(0.12 -0.12)">
       <use xlink:href="#BitstreamVeraSans-Roman-2212"/>
       <use x="83.7890625" xlink:href="#BitstreamVeraSans-Roman-33"/>
      </g>
     </g>
    </g>
    <g id="ytick_2">
     <g id="line2d_19">
      <g>
       <use style="stroke:#000000;stroke-width:0.5;" x="74.1874857955" xlink:href="#m728421d6d4" y="375.08"/>
      </g>
     </g>
     <g id="line2d_20">
      <g>
       <use style="stroke:#000000;stroke-width:0.5;" x="220.292514205" xlink:href="#mcb0005524f" y="375.08"/>
      </g>
     </g>
     <g id="text_9">
      <!-- −2 -->
      <g transform="translate(54.9699857955 378.39125)scale(0.12 -0.12)">
       <use xlink:href="#BitstreamVeraSans-Roman-2212"/>
       <use x="83.7890625" xlink:href="#BitstreamVeraSans-Roman-32"/>
      </g>
     </g>
    </g>
    <g id="ytick_3">
     <g id="line2d_21">
      <g>
       <use style="stroke:#000000;stroke-width:0.5;" x="74.1874857955" xlink:href="#m728421d6d4" y="347.72"/>
      </g>
     </g>
     <g id="line2d_22">
      <g>
       <use style="stroke:#000000;stroke-width:0.5;" x="220.292514205" xlink:href="#mcb0005524f" y="347.72"/>
      </g>
     </g>
     <g id="text_10">
      <!-- −1 -->
      <g transform="translate(54.8762357955 351.03125)scale(0.12 -0.12)">
       <use xlink:href="#BitstreamVeraSans-Roman-2212"/>
       <use x="83.7890625" xlink:href="#BitstreamVeraSans-Roman-31"/>
      </g>
     </g>
    </g>
    <g id="ytick_4">
     <g id="line2d_23">
      <g>
       <use style="stroke:#000000;stroke-width:0.5;" x="74.1874857955" xlink:href="#m728421d6d4" y="320.36"/>
      </g>
     </g>
     <g id="line2d_24">
      <g>
       <use style="stroke:#000000;stroke-width:0.5;" x="220.292514205" xlink:href="#mcb0005524f" y="320.36"/>
      </g>
     </g>
     <g id="text_11">
      <!-- 0 -->
      <g transform="translate(64.1406107955 323.67125)scale(0.12 -0.12)">
       <use xlink:href="#BitstreamVeraSans-Roman-30"/>
      </g>
     </g>
    </g>
    <g id="ytick_5">
     <g id="line2d_25">
      <g>
       <use style="stroke:#000000;stroke-width:0.5;" x="74.1874857955" xlink:href="#m728421d6d4" y="293.0"/>
      </g>
     </g>
     <g id="line2d_26">
      <g>
       <use style="stroke:#000000;stroke-width:0.5;" x="220.292514205" xlink:href="#mcb0005524f" y="293.0"/>
      </g>
     </g>
     <g id="text_12">
      <!-- 1 -->
      <g transform="translate(64.9787357955 296.31125)scale(0.12 -0.12)">
       <use xlink:href="#BitstreamVeraSans-Roman-31"/>
      </g>
     </g>
    </g>
    <g id="ytick_6">
     <g id="line2d_27">
      <g>
       <use style="stroke:#000000;stroke-width:0.5;" x="74.1874857955" xlink:href="#m728421d6d4" y="265.64"/>
      </g>
     </g>
     <g id="line2d_28">
      <g>
       <use style="stroke:#000000;stroke-width:0.5;" x="220.292514205" xlink:href="#mcb0005524f" y="265.64"/>
      </g>
     </g>
     <g id="text_13">
      <!-- 2 -->
      <g transform="translate(64.6337357955 268.95125)scale(0.12 -0.12)">
       <use xlink:href="#BitstreamVeraSans-Roman-32"/>
      </g>
     </g>
    </g>
    <g id="ytick_7">
     <g id="line2d_29">
      <g>
       <use style="stroke:#000000;stroke-width:0.5;" x="74.1874857955" xlink:href="#m728421d6d4" y="238.28"/>
      </g>
     </g>
     <g id="line2d_30">
      <g>
       <use style="stroke:#000000;stroke-width:0.5;" x="220.292514205" xlink:href="#mcb0005524f" y="238.28"/>
      </g>
     </g>
     <g id="text_14">
      <!-- 3 -->
      <g transform="translate(64.4293607955 241.59125)scale(0.12 -0.12)">
       <use xlink:href="#BitstreamVeraSans-Roman-33"/>
      </g>
     </g>
    </g>
   </g>
   <g id="text_15">
    <!-- Pulse v. Pupil:r=0.086219  -->
    <defs>
     <path id="BitstreamVeraSans-Roman-20"/>
     <path d="
M10.9844 1.51562
L10.9844 10.5
Q14.7031 8.73438 18.5 7.8125
Q22.3125 6.89062 25.9844 6.89062
Q35.75 6.89062 40.8906 13.4531
Q46.0469 20.0156 46.7812 33.4062
Q43.9531 29.2031 39.5938 26.9531
Q35.25 24.7031 29.9844 24.7031
Q19.0469 24.7031 12.6719 31.3125
Q6.29688 37.9375 6.29688 49.4219
Q6.29688 60.6406 12.9375 67.4219
Q19.5781 74.2188 30.6094 74.2188
Q43.2656 74.2188 49.9219 64.5156
Q56.5938 54.8281 56.5938 36.375
Q56.5938 19.1406 48.4062 8.85938
Q40.2344 -1.42188 26.4219 -1.42188
Q22.7031 -1.42188 18.8906 -0.6875
Q15.0938 0.046875 10.9844 1.51562
M30.6094 32.4219
Q37.25 32.4219 41.125 36.9531
Q45.0156 41.5 45.0156 49.4219
Q45.0156 57.2812 41.125 61.8438
Q37.25 66.4062 30.6094 66.4062
Q23.9688 66.4062 20.0938 61.8438
Q16.2188 57.2812 16.2188 49.4219
Q16.2188 41.5 20.0938 36.9531
Q23.9688 32.4219 30.6094 32.4219" id="BitstreamVeraSans-Roman-39"/>
     <path d="
M9.42188 75.9844
L18.4062 75.9844
L18.4062 0
L9.42188 0
z
" id="BitstreamVeraSans-Roman-6c"/>
     <path d="
M19.6719 64.7969
L19.6719 37.4062
L32.0781 37.4062
Q38.9688 37.4062 42.7188 40.9688
Q46.4844 44.5312 46.4844 51.125
Q46.4844 57.6719 42.7188 61.2344
Q38.9688 64.7969 32.0781 64.7969
z

M9.8125 72.9062
L32.0781 72.9062
Q44.3438 72.9062 50.6094 67.3594
Q56.8906 61.8125 56.8906 51.125
Q56.8906 40.3281 50.6094 34.8125
Q44.3438 29.2969 32.0781 29.2969
L19.6719 29.2969
L19.6719 0
L9.8125 0
z
" id="BitstreamVeraSans-Roman-50"/>
     <path d="
M2.98438 54.6875
L12.5 54.6875
L29.5938 8.79688
L46.6875 54.6875
L56.2031 54.6875
L35.6875 0
L23.4844 0
z
" id="BitstreamVeraSans-Roman-76"/>
     <path d="
M11.7188 12.4062
L22.0156 12.4062
L22.0156 0
L11.7188 0
z

M11.7188 51.7031
L22.0156 51.7031
L22.0156 39.3125
L11.7188 39.3125
z
" id="BitstreamVeraSans-Roman-3a"/>
     <path d="
M10.6875 12.4062
L21 12.4062
L21 0
L10.6875 0
z
" id="BitstreamVeraSans-Roman-2e"/>
     <path d="
M10.5938 45.4062
L73.1875 45.4062
L73.1875 37.2031
L10.5938 37.2031
z

M10.5938 25.4844
L73.1875 25.4844
L73.1875 17.1875
L10.5938 17.1875
z
" id="BitstreamVeraSans-Roman-3d"/>
     <path d="
M56.2031 29.5938
L56.2031 25.2031
L14.8906 25.2031
Q15.4844 15.9219 20.4844 11.0625
Q25.4844 6.20312 34.4219 6.20312
Q39.5938 6.20312 44.4531 7.46875
Q49.3125 8.73438 54.1094 11.2812
L54.1094 2.78125
Q49.2656 0.734375 44.1875 -0.34375
Q39.1094 -1.42188 33.8906 -1.42188
Q20.7969 -1.42188 13.1562 6.1875
Q5.51562 13.8125 5.51562 26.8125
Q5.51562 40.2344 12.7656 48.1094
Q20.0156 56 32.3281 56
Q43.3594 56 49.7812 48.8906
Q56.2031 41.7969 56.2031 29.5938
M47.2188 32.2344
Q47.125 39.5938 43.0938 43.9844
Q39.0625 48.3906 32.4219 48.3906
Q24.9062 48.3906 20.3906 44.1406
Q15.875 39.8906 15.1875 32.1719
z
" id="BitstreamVeraSans-Roman-65"/>
     <path d="
M9.42188 54.6875
L18.4062 54.6875
L18.4062 0
L9.42188 0
z

M9.42188 75.9844
L18.4062 75.9844
L18.4062 64.5938
L9.42188 64.5938
z
" id="BitstreamVeraSans-Roman-69"/>
     <path d="
M8.5 21.5781
L8.5 54.6875
L17.4844 54.6875
L17.4844 21.9219
Q17.4844 14.1562 20.5 10.2656
Q23.5312 6.39062 29.5938 6.39062
Q36.8594 6.39062 41.0781 11.0312
Q45.3125 15.6719 45.3125 23.6875
L45.3125 54.6875
L54.2969 54.6875
L54.2969 0
L45.3125 0
L45.3125 8.40625
Q42.0469 3.42188 37.7188 1
Q33.4062 -1.42188 27.6875 -1.42188
Q18.2656 -1.42188 13.375 4.4375
Q8.5 10.2969 8.5 21.5781" id="BitstreamVeraSans-Roman-75"/>
     <path d="
M41.1094 46.2969
Q39.5938 47.1719 37.8125 47.5781
Q36.0312 48 33.8906 48
Q26.2656 48 22.1875 43.0469
Q18.1094 38.0938 18.1094 28.8125
L18.1094 0
L9.07812 0
L9.07812 54.6875
L18.1094 54.6875
L18.1094 46.1875
Q20.9531 51.1719 25.4844 53.5781
Q30.0312 56 36.5312 56
Q37.4531 56 38.5781 55.875
Q39.7031 55.7656 41.0625 55.5156
z
" id="BitstreamVeraSans-Roman-72"/>
     <path d="
M44.2812 53.0781
L44.2812 44.5781
Q40.4844 46.5312 36.375 47.5
Q32.2812 48.4844 27.875 48.4844
Q21.1875 48.4844 17.8438 46.4375
Q14.5 44.3906 14.5 40.2812
Q14.5 37.1562 16.8906 35.375
Q19.2812 33.5938 26.5156 31.9844
L29.5938 31.2969
Q39.1562 29.25 43.1875 25.5156
Q47.2188 21.7812 47.2188 15.0938
Q47.2188 7.46875 41.1875 3.01562
Q35.1562 -1.42188 24.6094 -1.42188
Q20.2188 -1.42188 15.4531 -0.5625
Q10.6875 0.296875 5.42188 2
L5.42188 11.2812
Q10.4062 8.6875 15.2344 7.39062
Q20.0625 6.10938 24.8125 6.10938
Q31.1562 6.10938 34.5625 8.28125
Q37.9844 10.4531 37.9844 14.4062
Q37.9844 18.0625 35.5156 20.0156
Q33.0625 21.9688 24.7031 23.7812
L21.5781 24.5156
Q13.2344 26.2656 9.51562 29.9062
Q5.8125 33.5469 5.8125 39.8906
Q5.8125 47.6094 11.2812 51.7969
Q16.75 56 26.8125 56
Q31.7812 56 36.1719 55.2656
Q40.5781 54.5469 44.2812 53.0781" id="BitstreamVeraSans-Roman-73"/>
     <path d="
M18.1094 8.20312
L18.1094 -20.7969
L9.07812 -20.7969
L9.07812 54.6875
L18.1094 54.6875
L18.1094 46.3906
Q20.9531 51.2656 25.2656 53.625
Q29.5938 56 35.5938 56
Q45.5625 56 51.7812 48.0938
Q58.0156 40.1875 58.0156 27.2969
Q58.0156 14.4062 51.7812 6.48438
Q45.5625 -1.42188 35.5938 -1.42188
Q29.5938 -1.42188 25.2656 0.953125
Q20.9531 3.32812 18.1094 8.20312
M48.6875 27.2969
Q48.6875 37.2031 44.6094 42.8438
Q40.5312 48.4844 33.4062 48.4844
Q26.2656 48.4844 22.1875 42.8438
Q18.1094 37.2031 18.1094 27.2969
Q18.1094 17.3906 22.1875 11.75
Q26.2656 6.10938 33.4062 6.10938
Q40.5312 6.10938 44.6094 11.75
Q48.6875 17.3906 48.6875 27.2969" id="BitstreamVeraSans-Roman-70"/>
    </defs>
    <g transform="translate(75.4050276989 241.129249107)scale(0.12 -0.12)">
     <use xlink:href="#BitstreamVeraSans-Roman-50"/>
     <use x="58.552734375" xlink:href="#BitstreamVeraSans-Roman-75"/>
     <use x="121.931640625" xlink:href="#BitstreamVeraSans-Roman-6c"/>
     <use x="149.71484375" xlink:href="#BitstreamVeraSans-Roman-73"/>
     <use x="201.814453125" xlink:href="#BitstreamVeraSans-Roman-65"/>
     <use x="263.337890625" xlink:href="#BitstreamVeraSans-Roman-20"/>
     <use x="295.125" xlink:href="#BitstreamVeraSans-Roman-76"/>
     <use x="346.5546875" xlink:href="#BitstreamVeraSans-Roman-2e"/>
     <use x="378.341796875" xlink:href="#BitstreamVeraSans-Roman-20"/>
     <use x="410.12890625" xlink:href="#BitstreamVeraSans-Roman-50"/>
     <use x="468.681640625" xlink:href="#BitstreamVeraSans-Roman-75"/>
     <use x="532.060546875" xlink:href="#BitstreamVeraSans-Roman-70"/>
     <use x="595.537109375" xlink:href="#BitstreamVeraSans-Roman-69"/>
     <use x="623.3203125" xlink:href="#BitstreamVeraSans-Roman-6c"/>
     <use x="651.103515625" xlink:href="#BitstreamVeraSans-Roman-3a"/>
     <use x="684.794921875" xlink:href="#BitstreamVeraSans-Roman-72"/>
     <use x="725.908203125" xlink:href="#BitstreamVeraSans-Roman-3d"/>
     <use x="809.697265625" xlink:href="#BitstreamVeraSans-Roman-30"/>
     <use x="873.3203125" xlink:href="#BitstreamVeraSans-Roman-2e"/>
     <use x="905.107421875" xlink:href="#BitstreamVeraSans-Roman-30"/>
     <use x="968.73046875" xlink:href="#BitstreamVeraSans-Roman-38"/>
     <use x="1032.35351562" xlink:href="#BitstreamVeraSans-Roman-36"/>
     <use x="1095.9765625" xlink:href="#BitstreamVeraSans-Roman-32"/>
     <use x="1159.59960938" xlink:href="#BitstreamVeraSans-Roman-31"/>
     <use x="1223.22265625" xlink:href="#BitstreamVeraSans-Roman-39"/>
     <use x="1286.84570312" xlink:href="#BitstreamVeraSans-Roman-20"/>
    </g>
    <!--  p=0.391280 -->
    <g transform="translate(75.4050276989 254.566624107)scale(0.12 -0.12)">
     <use xlink:href="#BitstreamVeraSans-Roman-20"/>
     <use x="31.787109375" xlink:href="#BitstreamVeraSans-Roman-70"/>
     <use x="95.263671875" xlink:href="#BitstreamVeraSans-Roman-3d"/>
     <use x="179.052734375" xlink:href="#BitstreamVeraSans-Roman-30"/>
     <use x="242.67578125" xlink:href="#BitstreamVeraSans-Roman-2e"/>
     <use x="274.462890625" xlink:href="#BitstreamVeraSans-Roman-33"/>
     <use x="338.0859375" xlink:href="#BitstreamVeraSans-Roman-39"/>
     <use x="401.708984375" xlink:href="#BitstreamVeraSans-Roman-31"/>
     <use x="465.33203125" xlink:href="#BitstreamVeraSans-Roman-32"/>
     <use x="528.955078125" xlink:href="#BitstreamVeraSans-Roman-38"/>
     <use x="592.578125" xlink:href="#BitstreamVeraSans-Roman-30"/>
    </g>
   </g>
   <g id="text_16">
    <!-- Pupil Diameter in Stress Trials -->
    <defs>
     <path d="
M54.8906 33.0156
L54.8906 0
L45.9062 0
L45.9062 32.7188
Q45.9062 40.4844 42.875 44.3281
Q39.8438 48.1875 33.7969 48.1875
Q26.5156 48.1875 22.3125 43.5469
Q18.1094 38.9219 18.1094 30.9062
L18.1094 0
L9.07812 0
L9.07812 54.6875
L18.1094 54.6875
L18.1094 46.1875
Q21.3438 51.125 25.7031 53.5625
Q30.0781 56 35.7969 56
Q45.2188 56 50.0469 50.1719
Q54.8906 44.3438 54.8906 33.0156" id="BitstreamVeraSans-Roman-6e"/>
     <path d="
M52 44.1875
Q55.375 50.25 60.0625 53.125
Q64.75 56 71.0938 56
Q79.6406 56 84.2812 50.0156
Q88.9219 44.0469 88.9219 33.0156
L88.9219 0
L79.8906 0
L79.8906 32.7188
Q79.8906 40.5781 77.0938 44.375
Q74.3125 48.1875 68.6094 48.1875
Q61.625 48.1875 57.5625 43.5469
Q53.5156 38.9219 53.5156 30.9062
L53.5156 0
L44.4844 0
L44.4844 32.7188
Q44.4844 40.625 41.7031 44.4062
Q38.9219 48.1875 33.1094 48.1875
Q26.2188 48.1875 22.1562 43.5312
Q18.1094 38.875 18.1094 30.9062
L18.1094 0
L9.07812 0
L9.07812 54.6875
L18.1094 54.6875
L18.1094 46.1875
Q21.1875 51.2188 25.4844 53.6094
Q29.7812 56 35.6875 56
Q41.6562 56 45.8281 52.9688
Q50 49.9531 52 44.1875" id="BitstreamVeraSans-Roman-6d"/>
     <path d="
M19.6719 64.7969
L19.6719 8.10938
L31.5938 8.10938
Q46.6875 8.10938 53.6875 14.9375
Q60.6875 21.7812 60.6875 36.5312
Q60.6875 51.1719 53.6875 57.9844
Q46.6875 64.7969 31.5938 64.7969
z

M9.8125 72.9062
L30.0781 72.9062
Q51.2656 72.9062 61.1719 64.0938
Q71.0938 55.2812 71.0938 36.5312
Q71.0938 17.6719 61.125 8.82812
Q51.1719 0 30.0781 0
L9.8125 0
z
" id="BitstreamVeraSans-Roman-44"/>
     <path d="
M-0.296875 72.9062
L61.375 72.9062
L61.375 64.5938
L35.5 64.5938
L35.5 0
L25.5938 0
L25.5938 64.5938
L-0.296875 64.5938
z
" id="BitstreamVeraSans-Roman-54"/>
     <path d="
M18.3125 70.2188
L18.3125 54.6875
L36.8125 54.6875
L36.8125 47.7031
L18.3125 47.7031
L18.3125 18.0156
Q18.3125 11.3281 20.1406 9.42188
Q21.9688 7.51562 27.5938 7.51562
L36.8125 7.51562
L36.8125 0
L27.5938 0
Q17.1875 0 13.2344 3.875
Q9.28125 7.76562 9.28125 18.0156
L9.28125 47.7031
L2.6875 47.7031
L2.6875 54.6875
L9.28125 54.6875
L9.28125 70.2188
z
" id="BitstreamVeraSans-Roman-74"/>
     <path d="
M34.2812 27.4844
Q23.3906 27.4844 19.1875 25
Q14.9844 22.5156 14.9844 16.5
Q14.9844 11.7188 18.1406 8.90625
Q21.2969 6.10938 26.7031 6.10938
Q34.1875 6.10938 38.7031 11.4062
Q43.2188 16.7031 43.2188 25.4844
L43.2188 27.4844
z

M52.2031 31.2031
L52.2031 0
L43.2188 0
L43.2188 8.29688
Q40.1406 3.32812 35.5469 0.953125
Q30.9531 -1.42188 24.3125 -1.42188
Q15.9219 -1.42188 10.9531 3.29688
Q6 8.01562 6 15.9219
Q6 25.1406 12.1719 29.8281
Q18.3594 34.5156 30.6094 34.5156
L43.2188 34.5156
L43.2188 35.4062
Q43.2188 41.6094 39.1406 45
Q35.0625 48.3906 27.6875 48.3906
Q23 48.3906 18.5469 47.2656
Q14.1094 46.1406 10.0156 43.8906
L10.0156 52.2031
Q14.9375 54.1094 19.5781 55.0469
Q24.2188 56 28.6094 56
Q40.4844 56 46.3438 49.8438
Q52.2031 43.7031 52.2031 31.2031" id="BitstreamVeraSans-Roman-61"/>
     <path d="
M53.5156 70.5156
L53.5156 60.8906
Q47.9062 63.5781 42.9219 64.8906
Q37.9375 66.2188 33.2969 66.2188
Q25.25 66.2188 20.875 63.0938
Q16.5 59.9688 16.5 54.2031
Q16.5 49.3594 19.4062 46.8906
Q22.3125 44.4375 30.4219 42.9219
L36.375 41.7031
Q47.4062 39.5938 52.6562 34.2969
Q57.9062 29 57.9062 20.125
Q57.9062 9.51562 50.7969 4.04688
Q43.7031 -1.42188 29.9844 -1.42188
Q24.8125 -1.42188 18.9688 -0.25
Q13.1406 0.921875 6.89062 3.21875
L6.89062 13.375
Q12.8906 10.0156 18.6562 8.29688
Q24.4219 6.59375 29.9844 6.59375
Q38.4219 6.59375 43.0156 9.90625
Q47.6094 13.2344 47.6094 19.3906
Q47.6094 24.75 44.3125 27.7812
Q41.0156 30.8125 33.5 32.3281
L27.4844 33.5
Q16.4531 35.6875 11.5156 40.375
Q6.59375 45.0625 6.59375 53.4219
Q6.59375 63.0938 13.4062 68.6562
Q20.2188 74.2188 32.1719 74.2188
Q37.3125 74.2188 42.625 73.2812
Q47.9531 72.3594 53.5156 70.5156" id="BitstreamVeraSans-Roman-53"/>
    </defs>
    <g transform="translate(40.330125 233.28)scale(0.144 -0.144)">
     <use xlink:href="#BitstreamVeraSans-Roman-50"/>
     <use x="58.552734375" xlink:href="#BitstreamVeraSans-Roman-75"/>
     <use x="121.931640625" xlink:href="#BitstreamVeraSans-Roman-70"/>
     <use x="185.408203125" xlink:href="#BitstreamVeraSans-Roman-69"/>
     <use x="213.19140625" xlink:href="#BitstreamVeraSans-Roman-6c"/>
     <use x="240.974609375" xlink:href="#BitstreamVeraSans-Roman-20"/>
     <use x="272.76171875" xlink:href="#BitstreamVeraSans-Roman-44"/>
     <use x="349.763671875" xlink:href="#BitstreamVeraSans-Roman-69"/>
     <use x="377.546875" xlink:href="#BitstreamVeraSans-Roman-61"/>
     <use x="438.826171875" xlink:href="#BitstreamVeraSans-Roman-6d"/>
     <use x="536.23828125" xlink:href="#BitstreamVeraSans-Roman-65"/>
     <use x="597.76171875" xlink:href="#BitstreamVeraSans-Roman-74"/>
     <use x="636.970703125" xlink:href="#BitstreamVeraSans-Roman-65"/>
     <use x="698.494140625" xlink:href="#BitstreamVeraSans-Roman-72"/>
     <use x="739.607421875" xlink:href="#BitstreamVeraSans-Roman-20"/>
     <use x="771.39453125" xlink:href="#BitstreamVeraSans-Roman-69"/>
     <use x="799.177734375" xlink:href="#BitstreamVeraSans-Roman-6e"/>
     <use x="862.556640625" xlink:href="#BitstreamVeraSans-Roman-20"/>
     <use x="894.34375" xlink:href="#BitstreamVeraSans-Roman-53"/>
     <use x="957.8203125" xlink:href="#BitstreamVeraSans-Roman-74"/>
     <use x="997.029296875" xlink:href="#BitstreamVeraSans-Roman-72"/>
     <use x="1035.89257812" xlink:href="#BitstreamVeraSans-Roman-65"/>
     <use x="1097.41601562" xlink:href="#BitstreamVeraSans-Roman-73"/>
     <use x="1149.515625" xlink:href="#BitstreamVeraSans-Roman-73"/>
     <use x="1201.61523438" xlink:href="#BitstreamVeraSans-Roman-20"/>
     <use x="1233.40234375" xlink:href="#BitstreamVeraSans-Roman-54"/>
     <use x="1279.73632812" xlink:href="#BitstreamVeraSans-Roman-72"/>
     <use x="1320.84960938" xlink:href="#BitstreamVeraSans-Roman-69"/>
     <use x="1348.6328125" xlink:href="#BitstreamVeraSans-Roman-61"/>
     <use x="1409.91210938" xlink:href="#BitstreamVeraSans-Roman-6c"/>
     <use x="1437.6953125" xlink:href="#BitstreamVeraSans-Roman-73"/>
    </g>
   </g>
  </g>
  <g id="axes_2">
   <g id="patch_7">
    <path d="
M74.1875 192.92
L220.293 192.92
L220.293 28.76
L74.1875 28.76
z
" style="fill:#ffffff;"/>
   </g>
   <g id="line2d_31">
    <path clip-path="url(#p528d018644)" d="
M75.6485 138.293
L77.1096 89.8138
L78.5706 86.7033
L80.0317 117.275
L81.4927 154.158
L82.9538 90.1405
L84.4148 104.918
L85.8759 178.546
L87.3369 112.279
L88.798 132.305
L90.259 68.4261
L91.7201 110.46
L93.1811 84.2036
L94.6422 98.5287
L96.1032 113.674
L97.5643 88.9233
L99.0253 108.509
L100.486 112.378
L101.947 98.7628
L103.408 116.088
L104.87 166.568
L106.331 58.6966
L107.792 95.7202
L109.253 96.0375
L110.714 91.0697
L112.175 74.2351
L113.636 121.117
L115.097 110.778
L116.558 127.084
L118.019 105.981
L119.48 152.789
L120.941 103.654
L122.402 87.477
L123.863 107.306
L125.324 104.985
L126.785 121.82
L128.246 109.002
L129.707 137.125
L131.168 131.474
L132.629 101.867
L134.091 175.303
L135.552 134.938
L137.013 97.1309
L138.474 174.235
L139.935 156.718
L141.396 120.581
L142.857 112.504
L144.318 120.178
L145.779 134.573
L147.24 80.2347
L148.701 128.89
L150.162 101.419
L151.623 80.2655
L153.084 93.7998
L154.545 126.288
L156.006 106.974
L157.467 65.9136
L158.928 171.358
L160.389 112.406
L161.851 120.701
L163.312 109.813
L164.773 147.277
L166.234 77.1263
L167.695 82.0441
L169.156 90.5261
L170.617 112.106
L172.078 88.0329
L173.539 102.606
L175 94.9842
L176.461 100.296
L177.922 95.9117
L179.383 97.6994
L180.844 87.5359
L182.305 66.8007
L183.766 91.1159
L185.227 65.3229
L186.688 84.3208
L188.149 66.3349
L189.61 133.254
L191.072 119.784
L192.533 96.8126
L193.994 96.4228
L195.455 133.687
L196.916 192.275
L198.377 130.233
L199.838 102.793
L201.299 93.0783
L202.76 101.14
L204.221 119.52
L205.682 97.0692
L207.143 116.394
L208.604 112.325
L210.065 110.756
L211.526 96.9754
L212.987 112.28
L214.448 66.4158
L215.909 64.177
L217.37 125.593
L218.831 178.772
L220.293 100.54" style="fill:none;stroke:#0000ff;stroke-linecap:square;"/>
   </g>
   <g id="line2d_32">
    <path clip-path="url(#p528d018644)" d="
M75.6485 113.544
L77.1096 113.469
L78.5706 113.394
L80.0317 113.32
L81.4927 113.245
L82.9538 113.17
L84.4148 113.095
L85.8759 113.02
L87.3369 112.945
L88.798 112.87
L90.259 112.795
L91.7201 112.72
L93.1811 112.646
L94.6422 112.571
L96.1032 112.496
L97.5643 112.421
L99.0253 112.346
L100.486 112.271
L101.947 112.196
L103.408 112.121
L104.87 112.046
L106.331 111.972
L107.792 111.897
L109.253 111.822
L110.714 111.747
L112.175 111.672
L113.636 111.597
L115.097 111.522
L116.558 111.447
L118.019 111.372
L119.48 111.298
L120.941 111.223
L122.402 111.148
L123.863 111.073
L125.324 110.998
L126.785 110.923
L128.246 110.848
L129.707 110.773
L131.168 110.699
L132.629 110.624
L134.091 110.549
L135.552 110.474
L137.013 110.399
L138.474 110.324
L139.935 110.249
L141.396 110.174
L142.857 110.099
L144.318 110.025
L145.779 109.95
L147.24 109.875
L148.701 109.8
L150.162 109.725
L151.623 109.65
L153.084 109.575
L154.545 109.5
L156.006 109.425
L157.467 109.351
L158.928 109.276
L160.389 109.201
L161.851 109.126
L163.312 109.051
L164.773 108.976
L166.234 108.901
L167.695 108.826
L169.156 108.751
L170.617 108.677
L172.078 108.602
L173.539 108.527
L175 108.452
L176.461 108.377
L177.922 108.302
L179.383 108.227
L180.844 108.152
L182.305 108.078
L183.766 108.003
L185.227 107.928
L186.688 107.853
L188.149 107.778
L189.61 107.703
L191.072 107.628
L192.533 107.553
L193.994 107.478
L195.455 107.404
L196.916 107.329
L198.377 107.254
L199.838 107.179
L201.299 107.104
L202.76 107.029
L204.221 106.954
L205.682 106.879
L207.143 106.804
L208.604 106.73
L210.065 106.655
L211.526 106.58
L212.987 106.505
L214.448 106.43
L215.909 106.355
L217.37 106.28
L218.831 106.205
L220.293 106.131" style="fill:none;stroke:#0000ff;stroke-dasharray:6.000000,6.000000;stroke-dashoffset:0.0;"/>
   </g>
   <g id="patch_8">
    <path d="
M74.1875 28.76
L220.293 28.76" style="fill:none;stroke:#000000;stroke-linecap:square;stroke-linejoin:miter;"/>
   </g>
   <g id="patch_9">
    <path d="
M220.293 192.92
L220.293 28.76" style="fill:none;stroke:#000000;stroke-linecap:square;stroke-linejoin:miter;"/>
   </g>
   <g id="patch_10">
    <path d="
M74.1875 192.92
L220.293 192.92" style="fill:none;stroke:#000000;stroke-linecap:square;stroke-linejoin:miter;"/>
   </g>
   <g id="patch_11">
    <path d="
M74.1875 192.92
L74.1875 28.76" style="fill:none;stroke:#000000;stroke-linecap:square;stroke-linejoin:miter;"/>
   </g>
   <g id="matplotlib.axis_3">
    <g id="xtick_8">
     <g id="line2d_33">
      <g>
       <use style="stroke:#000000;stroke-width:0.5;" x="74.1874857955" xlink:href="#m93b0483c22" y="192.92"/>
      </g>
     </g>
     <g id="line2d_34">
      <g>
       <use style="stroke:#000000;stroke-width:0.5;" x="74.1874857955" xlink:href="#m741efc42ff" y="28.76"/>
      </g>
     </g>
     <g id="text_17">
      <!-- 0 -->
      <g transform="translate(71.1640482955 206.038125)scale(0.12 -0.12)">
       <use xlink:href="#BitstreamVeraSans-Roman-30"/>
      </g>
     </g>
    </g>
    <g id="xtick_9">
     <g id="line2d_35">
      <g>
       <use style="stroke:#000000;stroke-width:0.5;" x="103.408491477" xlink:href="#m93b0483c22" y="192.92"/>
      </g>
     </g>
     <g id="line2d_36">
      <g>
       <use style="stroke:#000000;stroke-width:0.5;" x="103.408491477" xlink:href="#m741efc42ff" y="28.76"/>
      </g>
     </g>
     <g id="text_18">
      <!-- 20 -->
      <g transform="translate(96.6116164773 206.038125)scale(0.12 -0.12)">
       <use xlink:href="#BitstreamVeraSans-Roman-32"/>
       <use x="63.623046875" xlink:href="#BitstreamVeraSans-Roman-30"/>
      </g>
     </g>
    </g>
    <g id="xtick_10">
     <g id="line2d_37">
      <g>
       <use style="stroke:#000000;stroke-width:0.5;" x="132.629497159" xlink:href="#m93b0483c22" y="192.92"/>
      </g>
     </g>
     <g id="line2d_38">
      <g>
       <use style="stroke:#000000;stroke-width:0.5;" x="132.629497159" xlink:href="#m741efc42ff" y="28.76"/>
      </g>
     </g>
     <g id="text_19">
      <!-- 40 -->
      <g transform="translate(125.686372159 206.038125)scale(0.12 -0.12)">
       <use xlink:href="#BitstreamVeraSans-Roman-34"/>
       <use x="63.623046875" xlink:href="#BitstreamVeraSans-Roman-30"/>
      </g>
     </g>
    </g>
    <g id="xtick_11">
     <g id="line2d_39">
      <g>
       <use style="stroke:#000000;stroke-width:0.5;" x="161.850502841" xlink:href="#m93b0483c22" y="192.92"/>
      </g>
     </g>
     <g id="line2d_40">
      <g>
       <use style="stroke:#000000;stroke-width:0.5;" x="161.850502841" xlink:href="#m741efc42ff" y="28.76"/>
      </g>
     </g>
     <g id="text_20">
      <!-- 60 -->
      <g transform="translate(155.033002841 206.038125)scale(0.12 -0.12)">
       <use xlink:href="#BitstreamVeraSans-Roman-36"/>
       <use x="63.623046875" xlink:href="#BitstreamVeraSans-Roman-30"/>
      </g>
     </g>
    </g>
    <g id="xtick_12">
     <g id="line2d_41">
      <g>
       <use style="stroke:#000000;stroke-width:0.5;" x="191.071508523" xlink:href="#m93b0483c22" y="192.92"/>
      </g>
     </g>
     <g id="line2d_42">
      <g>
       <use style="stroke:#000000;stroke-width:0.5;" x="191.071508523" xlink:href="#m741efc42ff" y="28.76"/>
      </g>
     </g>
     <g id="text_21">
      <!-- 80 -->
      <g transform="translate(184.241821023 206.038125)scale(0.12 -0.12)">
       <use xlink:href="#BitstreamVeraSans-Roman-38"/>
       <use x="63.623046875" xlink:href="#BitstreamVeraSans-Roman-30"/>
      </g>
     </g>
    </g>
    <g id="xtick_13">
     <g id="line2d_43">
      <g>
       <use style="stroke:#000000;stroke-width:0.5;" x="220.292514205" xlink:href="#m93b0483c22" y="192.92"/>
      </g>
     </g>
     <g id="line2d_44">
      <g>
       <use style="stroke:#000000;stroke-width:0.5;" x="220.292514205" xlink:href="#m741efc42ff" y="28.76"/>
      </g>
     </g>
     <g id="text_22">
      <!-- 100 -->
      <g transform="translate(209.897514205 206.038125)scale(0.12 -0.12)">
       <use xlink:href="#BitstreamVeraSans-Roman-31"/>
       <use x="63.623046875" xlink:href="#BitstreamVeraSans-Roman-30"/>
       <use x="127.24609375" xlink:href="#BitstreamVeraSans-Roman-30"/>
      </g>
     </g>
    </g>
   </g>
   <g id="matplotlib.axis_4">
    <g id="ytick_8">
     <g id="line2d_45">
      <g>
       <use style="stroke:#000000;stroke-width:0.5;" x="74.1874857955" xlink:href="#m728421d6d4" y="192.92"/>
      </g>
     </g>
     <g id="line2d_46">
      <g>
       <use style="stroke:#000000;stroke-width:0.5;" x="220.292514205" xlink:href="#mcb0005524f" y="192.92"/>
      </g>
     </g>
     <g id="text_23">
      <!-- −3 -->
      <g transform="translate(54.7299857955 196.23125)scale(0.12 -0.12)">
       <use xlink:href="#BitstreamVeraSans-Roman-2212"/>
       <use x="83.7890625" xlink:href="#BitstreamVeraSans-Roman-33"/>
      </g>
     </g>
    </g>
    <g id="ytick_9">
     <g id="line2d_47">
      <g>
       <use style="stroke:#000000;stroke-width:0.5;" x="74.1874857955" xlink:href="#m728421d6d4" y="165.56"/>
      </g>
     </g>
     <g id="line2d_48">
      <g>
       <use style="stroke:#000000;stroke-width:0.5;" x="220.292514205" xlink:href="#mcb0005524f" y="165.56"/>
      </g>
     </g>
     <g id="text_24">
      <!-- −2 -->
      <g transform="translate(54.9699857955 168.87125)scale(0.12 -0.12)">
       <use xlink:href="#BitstreamVeraSans-Roman-2212"/>
       <use x="83.7890625" xlink:href="#BitstreamVeraSans-Roman-32"/>
      </g>
     </g>
    </g>
    <g id="ytick_10">
     <g id="line2d_49">
      <g>
       <use style="stroke:#000000;stroke-width:0.5;" x="74.1874857955" xlink:href="#m728421d6d4" y="138.2"/>
      </g>
     </g>
     <g id="line2d_50">
      <g>
       <use style="stroke:#000000;stroke-width:0.5;" x="220.292514205" xlink:href="#mcb0005524f" y="138.2"/>
      </g>
     </g>
     <g id="text_25">
      <!-- −1 -->
      <g transform="translate(54.8762357955 141.51125)scale(0.12 -0.12)">
       <use xlink:href="#BitstreamVeraSans-Roman-2212"/>
       <use x="83.7890625" xlink:href="#BitstreamVeraSans-Roman-31"/>
      </g>
     </g>
    </g>
    <g id="ytick_11">
     <g id="line2d_51">
      <g>
       <use style="stroke:#000000;stroke-width:0.5;" x="74.1874857955" xlink:href="#m728421d6d4" y="110.84"/>
      </g>
     </g>
     <g id="line2d_52">
      <g>
       <use style="stroke:#000000;stroke-width:0.5;" x="220.292514205" xlink:href="#mcb0005524f" y="110.84"/>
      </g>
     </g>
     <g id="text_26">
      <!-- 0 -->
      <g transform="translate(64.1406107955 114.15125)scale(0.12 -0.12)">
       <use xlink:href="#BitstreamVeraSans-Roman-30"/>
      </g>
     </g>
    </g>
    <g id="ytick_12">
     <g id="line2d_53">
      <g>
       <use style="stroke:#000000;stroke-width:0.5;" x="74.1874857955" xlink:href="#m728421d6d4" y="83.48"/>
      </g>
     </g>
     <g id="line2d_54">
      <g>
       <use style="stroke:#000000;stroke-width:0.5;" x="220.292514205" xlink:href="#mcb0005524f" y="83.48"/>
      </g>
     </g>
     <g id="text_27">
      <!-- 1 -->
      <g transform="translate(64.9787357955 86.79125)scale(0.12 -0.12)">
       <use xlink:href="#BitstreamVeraSans-Roman-31"/>
      </g>
     </g>
    </g>
    <g id="ytick_13">
     <g id="line2d_55">
      <g>
       <use style="stroke:#000000;stroke-width:0.5;" x="74.1874857955" xlink:href="#m728421d6d4" y="56.12"/>
      </g>
     </g>
     <g id="line2d_56">
      <g>
       <use style="stroke:#000000;stroke-width:0.5;" x="220.292514205" xlink:href="#mcb0005524f" y="56.12"/>
      </g>
     </g>
     <g id="text_28">
      <!-- 2 -->
      <g transform="translate(64.6337357955 59.43125)scale(0.12 -0.12)">
       <use xlink:href="#BitstreamVeraSans-Roman-32"/>
      </g>
     </g>
    </g>
    <g id="ytick_14">
     <g id="line2d_57">
      <g>
       <use style="stroke:#000000;stroke-width:0.5;" x="74.1874857955" xlink:href="#m728421d6d4" y="28.76"/>
      </g>
     </g>
     <g id="line2d_58">
      <g>
       <use style="stroke:#000000;stroke-width:0.5;" x="220.292514205" xlink:href="#mcb0005524f" y="28.76"/>
      </g>
     </g>
     <g id="text_29">
      <!-- 3 -->
      <g transform="translate(64.4293607955 32.07125)scale(0.12 -0.12)">
       <use xlink:href="#BitstreamVeraSans-Roman-33"/>
      </g>
     </g>
    </g>
   </g>
   <g id="text_30">
    <!-- Pulse v. Pupil:r=0.134480  -->
    <g transform="translate(75.6485360795 45.2591774673)scale(0.12 -0.12)">
     <use xlink:href="#BitstreamVeraSans-Roman-50"/>
     <use x="58.552734375" xlink:href="#BitstreamVeraSans-Roman-75"/>
     <use x="121.931640625" xlink:href="#BitstreamVeraSans-Roman-6c"/>
     <use x="149.71484375" xlink:href="#BitstreamVeraSans-Roman-73"/>
     <use x="201.814453125" xlink:href="#BitstreamVeraSans-Roman-65"/>
     <use x="263.337890625" xlink:href="#BitstreamVeraSans-Roman-20"/>
     <use x="295.125" xlink:href="#BitstreamVeraSans-Roman-76"/>
     <use x="346.5546875" xlink:href="#BitstreamVeraSans-Roman-2e"/>
     <use x="378.341796875" xlink:href="#BitstreamVeraSans-Roman-20"/>
     <use x="410.12890625" xlink:href="#BitstreamVeraSans-Roman-50"/>
     <use x="468.681640625" xlink:href="#BitstreamVeraSans-Roman-75"/>
     <use x="532.060546875" xlink:href="#BitstreamVeraSans-Roman-70"/>
     <use x="595.537109375" xlink:href="#BitstreamVeraSans-Roman-69"/>
     <use x="623.3203125" xlink:href="#BitstreamVeraSans-Roman-6c"/>
     <use x="651.103515625" xlink:href="#BitstreamVeraSans-Roman-3a"/>
     <use x="684.794921875" xlink:href="#BitstreamVeraSans-Roman-72"/>
     <use x="725.908203125" xlink:href="#BitstreamVeraSans-Roman-3d"/>
     <use x="809.697265625" xlink:href="#BitstreamVeraSans-Roman-30"/>
     <use x="873.3203125" xlink:href="#BitstreamVeraSans-Roman-2e"/>
     <use x="905.107421875" xlink:href="#BitstreamVeraSans-Roman-31"/>
     <use x="968.73046875" xlink:href="#BitstreamVeraSans-Roman-33"/>
     <use x="1032.35351562" xlink:href="#BitstreamVeraSans-Roman-34"/>
     <use x="1095.9765625" xlink:href="#BitstreamVeraSans-Roman-34"/>
     <use x="1159.59960938" xlink:href="#BitstreamVeraSans-Roman-38"/>
     <use x="1223.22265625" xlink:href="#BitstreamVeraSans-Roman-30"/>
     <use x="1286.84570312" xlink:href="#BitstreamVeraSans-Roman-20"/>
    </g>
    <!--  p=0.182218 -->
    <g transform="translate(75.6485360795 58.6965524673)scale(0.12 -0.12)">
     <use xlink:href="#BitstreamVeraSans-Roman-20"/>
     <use x="31.787109375" xlink:href="#BitstreamVeraSans-Roman-70"/>
     <use x="95.263671875" xlink:href="#BitstreamVeraSans-Roman-3d"/>
     <use x="179.052734375" xlink:href="#BitstreamVeraSans-Roman-30"/>
     <use x="242.67578125" xlink:href="#BitstreamVeraSans-Roman-2e"/>
     <use x="274.462890625" xlink:href="#BitstreamVeraSans-Roman-31"/>
     <use x="338.0859375" xlink:href="#BitstreamVeraSans-Roman-38"/>
     <use x="401.708984375" xlink:href="#BitstreamVeraSans-Roman-32"/>
     <use x="465.33203125" xlink:href="#BitstreamVeraSans-Roman-32"/>
     <use x="528.955078125" xlink:href="#BitstreamVeraSans-Roman-31"/>
     <use x="592.578125" xlink:href="#BitstreamVeraSans-Roman-38"/>
    </g>
   </g>
   <g id="text_31">
    <!-- Pupil Diameter in Regular Trials before Stress -->
    <defs>
     <path d="
M44.3906 34.1875
Q47.5625 33.1094 50.5625 29.5938
Q53.5625 26.0781 56.5938 19.9219
L66.6094 0
L56 0
L46.6875 18.7031
Q43.0625 26.0312 39.6719 28.4219
Q36.2812 30.8125 30.4219 30.8125
L19.6719 30.8125
L19.6719 0
L9.8125 0
L9.8125 72.9062
L32.0781 72.9062
Q44.5781 72.9062 50.7344 67.6719
Q56.8906 62.4531 56.8906 51.9062
Q56.8906 45.0156 53.6875 40.4688
Q50.4844 35.9375 44.3906 34.1875
M19.6719 64.7969
L19.6719 38.9219
L32.0781 38.9219
Q39.2031 38.9219 42.8438 42.2188
Q46.4844 45.5156 46.4844 51.9062
Q46.4844 58.2969 42.8438 61.5469
Q39.2031 64.7969 32.0781 64.7969
z
" id="BitstreamVeraSans-Roman-52"/>
     <path d="
M37.1094 75.9844
L37.1094 68.5
L28.5156 68.5
Q23.6875 68.5 21.7969 66.5469
Q19.9219 64.5938 19.9219 59.5156
L19.9219 54.6875
L34.7188 54.6875
L34.7188 47.7031
L19.9219 47.7031
L19.9219 0
L10.8906 0
L10.8906 47.7031
L2.29688 47.7031
L2.29688 54.6875
L10.8906 54.6875
L10.8906 58.5
Q10.8906 67.625 15.1406 71.7969
Q19.3906 75.9844 28.6094 75.9844
z
" id="BitstreamVeraSans-Roman-66"/>
     <path d="
M45.4062 27.9844
Q45.4062 37.75 41.375 43.1094
Q37.3594 48.4844 30.0781 48.4844
Q22.8594 48.4844 18.8281 43.1094
Q14.7969 37.75 14.7969 27.9844
Q14.7969 18.2656 18.8281 12.8906
Q22.8594 7.51562 30.0781 7.51562
Q37.3594 7.51562 41.375 12.8906
Q45.4062 18.2656 45.4062 27.9844
M54.3906 6.78125
Q54.3906 -7.17188 48.1875 -13.9844
Q42 -20.7969 29.2031 -20.7969
Q24.4688 -20.7969 20.2656 -20.0938
Q16.0625 -19.3906 12.1094 -17.9219
L12.1094 -9.1875
Q16.0625 -11.3281 19.9219 -12.3438
Q23.7812 -13.375 27.7812 -13.375
Q36.625 -13.375 41.0156 -8.76562
Q45.4062 -4.15625 45.4062 5.17188
L45.4062 9.625
Q42.625 4.78125 38.2812 2.39062
Q33.9375 0 27.875 0
Q17.8281 0 11.6719 7.65625
Q5.51562 15.3281 5.51562 27.9844
Q5.51562 40.6719 11.6719 48.3281
Q17.8281 56 27.875 56
Q33.9375 56 38.2812 53.6094
Q42.625 51.2188 45.4062 46.3906
L45.4062 54.6875
L54.3906 54.6875
z
" id="BitstreamVeraSans-Roman-67"/>
     <path d="
M30.6094 48.3906
Q23.3906 48.3906 19.1875 42.75
Q14.9844 37.1094 14.9844 27.2969
Q14.9844 17.4844 19.1562 11.8438
Q23.3438 6.20312 30.6094 6.20312
Q37.7969 6.20312 41.9844 11.8594
Q46.1875 17.5312 46.1875 27.2969
Q46.1875 37.0156 41.9844 42.7031
Q37.7969 48.3906 30.6094 48.3906
M30.6094 56
Q42.3281 56 49.0156 48.375
Q55.7188 40.7656 55.7188 27.2969
Q55.7188 13.875 49.0156 6.21875
Q42.3281 -1.42188 30.6094 -1.42188
Q18.8438 -1.42188 12.1719 6.21875
Q5.51562 13.875 5.51562 27.2969
Q5.51562 40.7656 12.1719 48.375
Q18.8438 56 30.6094 56" id="BitstreamVeraSans-Roman-6f"/>
     <path d="
M48.6875 27.2969
Q48.6875 37.2031 44.6094 42.8438
Q40.5312 48.4844 33.4062 48.4844
Q26.2656 48.4844 22.1875 42.8438
Q18.1094 37.2031 18.1094 27.2969
Q18.1094 17.3906 22.1875 11.75
Q26.2656 6.10938 33.4062 6.10938
Q40.5312 6.10938 44.6094 11.75
Q48.6875 17.3906 48.6875 27.2969
M18.1094 46.3906
Q20.9531 51.2656 25.2656 53.625
Q29.5938 56 35.5938 56
Q45.5625 56 51.7812 48.0938
Q58.0156 40.1875 58.0156 27.2969
Q58.0156 14.4062 51.7812 6.48438
Q45.5625 -1.42188 35.5938 -1.42188
Q29.5938 -1.42188 25.2656 0.953125
Q20.9531 3.32812 18.1094 8.20312
L18.1094 0
L9.07812 0
L9.07812 75.9844
L18.1094 75.9844
z
" id="BitstreamVeraSans-Roman-62"/>
    </defs>
    <g transform="translate(-15.031125 23.76)scale(0.144 -0.144)">
     <use xlink:href="#BitstreamVeraSans-Roman-50"/>
     <use x="58.552734375" xlink:href="#BitstreamVeraSans-Roman-75"/>
     <use x="121.931640625" xlink:href="#BitstreamVeraSans-Roman-70"/>
     <use x="185.408203125" xlink:href="#BitstreamVeraSans-Roman-69"/>
     <use x="213.19140625" xlink:href="#BitstreamVeraSans-Roman-6c"/>
     <use x="240.974609375" xlink:href="#BitstreamVeraSans-Roman-20"/>
     <use x="272.76171875" xlink:href="#BitstreamVeraSans-Roman-44"/>
     <use x="349.763671875" xlink:href="#BitstreamVeraSans-Roman-69"/>
     <use x="377.546875" xlink:href="#BitstreamVeraSans-Roman-61"/>
     <use x="438.826171875" xlink:href="#BitstreamVeraSans-Roman-6d"/>
     <use x="536.23828125" xlink:href="#BitstreamVeraSans-Roman-65"/>
     <use x="597.76171875" xlink:href="#BitstreamVeraSans-Roman-74"/>
     <use x="636.970703125" xlink:href="#BitstreamVeraSans-Roman-65"/>
     <use x="698.494140625" xlink:href="#BitstreamVeraSans-Roman-72"/>
     <use x="739.607421875" xlink:href="#BitstreamVeraSans-Roman-20"/>
     <use x="771.39453125" xlink:href="#BitstreamVeraSans-Roman-69"/>
     <use x="799.177734375" xlink:href="#BitstreamVeraSans-Roman-6e"/>
     <use x="862.556640625" xlink:href="#BitstreamVeraSans-Roman-20"/>
     <use x="894.34375" xlink:href="#BitstreamVeraSans-Roman-52"/>
     <use x="959.326171875" xlink:href="#BitstreamVeraSans-Roman-65"/>
     <use x="1020.84960938" xlink:href="#BitstreamVeraSans-Roman-67"/>
     <use x="1084.32617188" xlink:href="#BitstreamVeraSans-Roman-75"/>
     <use x="1147.70507812" xlink:href="#BitstreamVeraSans-Roman-6c"/>
     <use x="1175.48828125" xlink:href="#BitstreamVeraSans-Roman-61"/>
     <use x="1236.76757812" xlink:href="#BitstreamVeraSans-Roman-72"/>
     <use x="1277.88085938" xlink:href="#BitstreamVeraSans-Roman-20"/>
     <use x="1309.66796875" xlink:href="#BitstreamVeraSans-Roman-54"/>
     <use x="1356.00195312" xlink:href="#BitstreamVeraSans-Roman-72"/>
     <use x="1397.11523438" xlink:href="#BitstreamVeraSans-Roman-69"/>
     <use x="1424.8984375" xlink:href="#BitstreamVeraSans-Roman-61"/>
     <use x="1486.17773438" xlink:href="#BitstreamVeraSans-Roman-6c"/>
     <use x="1513.9609375" xlink:href="#BitstreamVeraSans-Roman-73"/>
     <use x="1566.06054688" xlink:href="#BitstreamVeraSans-Roman-20"/>
     <use x="1597.84765625" xlink:href="#BitstreamVeraSans-Roman-62"/>
     <use x="1661.32421875" xlink:href="#BitstreamVeraSans-Roman-65"/>
     <use x="1722.84765625" xlink:href="#BitstreamVeraSans-Roman-66"/>
     <use x="1758.05273438" xlink:href="#BitstreamVeraSans-Roman-6f"/>
     <use x="1819.234375" xlink:href="#BitstreamVeraSans-Roman-72"/>
     <use x="1858.09765625" xlink:href="#BitstreamVeraSans-Roman-65"/>
     <use x="1919.62109375" xlink:href="#BitstreamVeraSans-Roman-20"/>
     <use x="1951.40820312" xlink:href="#BitstreamVeraSans-Roman-53"/>
     <use x="2014.88476562" xlink:href="#BitstreamVeraSans-Roman-74"/>
     <use x="2054.09375" xlink:href="#BitstreamVeraSans-Roman-72"/>
     <use x="2092.95703125" xlink:href="#BitstreamVeraSans-Roman-65"/>
     <use x="2154.48046875" xlink:href="#BitstreamVeraSans-Roman-73"/>
     <use x="2206.58007812" xlink:href="#BitstreamVeraSans-Roman-73"/>
    </g>
   </g>
  </g>
  <g id="axes_3">
   <g id="patch_12">
    <path d="
M355.707 402.44
L501.813 402.44
L501.813 238.28
L355.707 238.28
z
" style="fill:#ffffff;"/>
   </g>
   <g id="line2d_59">
    <path clip-path="url(#p1cbca1c66b)" d="
M356.751 308.738
L357.795 306.119
L358.838 296.994
L359.882 301.1
L360.926 292.624
L361.969 280.787
L363.013 320.332
L364.056 305.407
L365.1 291.287
L366.144 304.471
L367.187 287.201
L368.231 280.549
L369.274 367.309
L370.318 274.326
L371.362 303.41
L372.405 298.621
L373.449 360.656
L374.492 278.118
L375.536 342.55
L376.58 348.788
L377.623 280.976
L378.667 286.831
L379.71 262.748
L380.754 364.604
L381.798 262.606
L382.841 281.932
L383.885 268.861
L384.928 314.13
L385.972 341.662
L387.016 263.065
L388.059 287.139
L389.103 290.414
L390.147 282.547
L391.19 286.011
L392.234 303.186
L393.277 282.052
L394.321 290.071
L395.365 375.093
L396.408 291.391
L397.452 333.256
L398.495 254.567
L399.539 343.873
L400.583 360.71
L401.626 286.966
L402.67 282.741
L403.713 301.668
L404.757 290.914
L405.801 357.45
L406.844 258.68
L407.888 310.491
L408.931 291.747
L409.975 305.084
L411.019 283.916
L412.062 290.126
L413.106 342.421
L414.149 281.034
L415.193 284.354
L416.237 313.757
L417.28 300.666
L418.324 294.826
L419.368 378.951
L420.411 318.398
L421.455 317.68
L422.498 289.799
L423.542 347.969
L424.586 283.182
L425.629 354.68
L426.673 283.766
L427.716 288.453
L428.76 294.278
L429.804 278.404
L430.847 307.291
L431.891 271.585
L432.934 318.816
L433.978 279.183
L435.022 288.695
L436.065 335.407
L437.109 307.591
L438.152 287.335
L439.196 323.267
L440.24 294.914
L441.283 329.722
L442.327 288.306
L443.371 274.627
L444.414 342.36
L445.458 281.945
L446.501 324.116
L447.545 307.219
L448.589 259.116
L449.632 296.692
L450.676 332.753
L451.719 277.781
L452.763 338.225
L453.807 291.562
L454.85 273.851
L455.894 292.911
L456.937 281.431
L457.981 272.719
L459.025 360.319
L460.068 260.159
L461.112 314.59
L462.155 320.084
L463.199 272.463
L464.243 286.727
L465.286 302.073
L466.33 304.062
L467.373 321.98
L468.417 274.288
L469.461 306.462
L470.504 300.296
L471.548 275.278
L472.592 286.166
L473.635 297.292
L474.679 286.624
L475.722 360.582
L476.766 259.766
L477.81 264.454
L478.853 258.077
L479.897 316.671
L480.94 306.724
L481.984 351.101
L483.028 344.308" style="fill:none;stroke:#ff0000;stroke-linecap:square;"/>
   </g>
   <g id="line2d_60">
    <path clip-path="url(#p1cbca1c66b)" d="
M356.751 303.986
L357.795 303.958
L358.838 303.93
L359.882 303.902
L360.926 303.874
L361.969 303.846
L363.013 303.818
L364.056 303.79
L365.1 303.762
L366.144 303.734
L367.187 303.706
L368.231 303.678
L369.274 303.65
L370.318 303.622
L371.362 303.594
L372.405 303.566
L373.449 303.538
L374.492 303.509
L375.536 303.481
L376.58 303.453
L377.623 303.425
L378.667 303.397
L379.71 303.369
L380.754 303.341
L381.798 303.313
L382.841 303.285
L383.885 303.257
L384.928 303.229
L385.972 303.201
L387.016 303.173
L388.059 303.145
L389.103 303.117
L390.147 303.089
L391.19 303.061
L392.234 303.033
L393.277 303.005
L394.321 302.977
L395.365 302.949
L396.408 302.921
L397.452 302.893
L398.495 302.865
L399.539 302.837
L400.583 302.809
L401.626 302.781
L402.67 302.753
L403.713 302.725
L404.757 302.697
L405.801 302.669
L406.844 302.641
L407.888 302.613
L408.931 302.585
L409.975 302.557
L411.019 302.529
L412.062 302.501
L413.106 302.473
L414.149 302.445
L415.193 302.417
L416.237 302.389
L417.28 302.361
L418.324 302.333
L419.368 302.305
L420.411 302.277
L421.455 302.249
L422.498 302.221
L423.542 302.193
L424.586 302.165
L425.629 302.137
L426.673 302.109
L427.716 302.081
L428.76 302.053
L429.804 302.025
L430.847 301.997
L431.891 301.969
L432.934 301.941
L433.978 301.913
L435.022 301.885
L436.065 301.857
L437.109 301.829
L438.152 301.801
L439.196 301.773
L440.24 301.745
L441.283 301.716
L442.327 301.688
L443.371 301.66
L444.414 301.632
L445.458 301.604
L446.501 301.576
L447.545 301.548
L448.589 301.52
L449.632 301.492
L450.676 301.464
L451.719 301.436
L452.763 301.408
L453.807 301.38
L454.85 301.352
L455.894 301.324
L456.937 301.296
L457.981 301.268
L459.025 301.24
L460.068 301.212
L461.112 301.184
L462.155 301.156
L463.199 301.128
L464.243 301.1
L465.286 301.072
L466.33 301.044
L467.373 301.016
L468.417 300.988
L469.461 300.96
L470.504 300.932
L471.548 300.904
L472.592 300.876
L473.635 300.848
L474.679 300.82
L475.722 300.792
L476.766 300.764
L477.81 300.736
L478.853 300.708
L479.897 300.68
L480.94 300.652
L481.984 300.624
L483.028 300.596" style="fill:none;stroke:#ff0000;stroke-dasharray:6.000000,6.000000;stroke-dashoffset:0.0;"/>
   </g>
   <g id="patch_13">
    <path d="
M355.707 238.28
L501.813 238.28" style="fill:none;stroke:#000000;stroke-linecap:square;stroke-linejoin:miter;"/>
   </g>
   <g id="patch_14">
    <path d="
M501.813 402.44
L501.813 238.28" style="fill:none;stroke:#000000;stroke-linecap:square;stroke-linejoin:miter;"/>
   </g>
   <g id="patch_15">
    <path d="
M355.707 402.44
L501.813 402.44" style="fill:none;stroke:#000000;stroke-linecap:square;stroke-linejoin:miter;"/>
   </g>
   <g id="patch_16">
    <path d="
M355.707 402.44
L355.707 238.28" style="fill:none;stroke:#000000;stroke-linecap:square;stroke-linejoin:miter;"/>
   </g>
   <g id="matplotlib.axis_5">
    <g id="xtick_14">
     <g id="line2d_61">
      <g>
       <use style="stroke:#000000;stroke-width:0.5;" x="355.707485795" xlink:href="#m93b0483c22" y="402.44"/>
      </g>
     </g>
     <g id="line2d_62">
      <g>
       <use style="stroke:#000000;stroke-width:0.5;" x="355.707485795" xlink:href="#m741efc42ff" y="238.28"/>
      </g>
     </g>
     <g id="text_32">
      <!-- 0 -->
      <g transform="translate(352.684048295 415.558125)scale(0.12 -0.12)">
       <use xlink:href="#BitstreamVeraSans-Roman-30"/>
      </g>
     </g>
    </g>
    <g id="xtick_15">
     <g id="line2d_63">
      <g>
       <use style="stroke:#000000;stroke-width:0.5;" x="376.579632711" xlink:href="#m93b0483c22" y="402.44"/>
      </g>
     </g>
     <g id="line2d_64">
      <g>
       <use style="stroke:#000000;stroke-width:0.5;" x="376.579632711" xlink:href="#m741efc42ff" y="238.28"/>
      </g>
     </g>
     <g id="text_33">
      <!-- 20 -->
      <g transform="translate(369.782757711 415.558125)scale(0.12 -0.12)">
       <use xlink:href="#BitstreamVeraSans-Roman-32"/>
       <use x="63.623046875" xlink:href="#BitstreamVeraSans-Roman-30"/>
      </g>
     </g>
    </g>
    <g id="xtick_16">
     <g id="line2d_65">
      <g>
       <use style="stroke:#000000;stroke-width:0.5;" x="397.451779627" xlink:href="#m93b0483c22" y="402.44"/>
      </g>
     </g>
     <g id="line2d_66">
      <g>
       <use style="stroke:#000000;stroke-width:0.5;" x="397.451779627" xlink:href="#m741efc42ff" y="238.28"/>
      </g>
     </g>
     <g id="text_34">
      <!-- 40 -->
      <g transform="translate(390.508654627 415.558125)scale(0.12 -0.12)">
       <use xlink:href="#BitstreamVeraSans-Roman-34"/>
       <use x="63.623046875" xlink:href="#BitstreamVeraSans-Roman-30"/>
      </g>
     </g>
    </g>
    <g id="xtick_17">
     <g id="line2d_67">
      <g>
       <use style="stroke:#000000;stroke-width:0.5;" x="418.323926542" xlink:href="#m93b0483c22" y="402.44"/>
      </g>
     </g>
     <g id="line2d_68">
      <g>
       <use style="stroke:#000000;stroke-width:0.5;" x="418.323926542" xlink:href="#m741efc42ff" y="238.28"/>
      </g>
     </g>
     <g id="text_35">
      <!-- 60 -->
      <g transform="translate(411.506426542 415.558125)scale(0.12 -0.12)">
       <use xlink:href="#BitstreamVeraSans-Roman-36"/>
       <use x="63.623046875" xlink:href="#BitstreamVeraSans-Roman-30"/>
      </g>
     </g>
    </g>
    <g id="xtick_18">
     <g id="line2d_69">
      <g>
       <use style="stroke:#000000;stroke-width:0.5;" x="439.196073458" xlink:href="#m93b0483c22" y="402.44"/>
      </g>
     </g>
     <g id="line2d_70">
      <g>
       <use style="stroke:#000000;stroke-width:0.5;" x="439.196073458" xlink:href="#m741efc42ff" y="238.28"/>
      </g>
     </g>
     <g id="text_36">
      <!-- 80 -->
      <g transform="translate(432.366385958 415.558125)scale(0.12 -0.12)">
       <use xlink:href="#BitstreamVeraSans-Roman-38"/>
       <use x="63.623046875" xlink:href="#BitstreamVeraSans-Roman-30"/>
      </g>
     </g>
    </g>
    <g id="xtick_19">
     <g id="line2d_71">
      <g>
       <use style="stroke:#000000;stroke-width:0.5;" x="460.068220373" xlink:href="#m93b0483c22" y="402.44"/>
      </g>
     </g>
     <g id="line2d_72">
      <g>
       <use style="stroke:#000000;stroke-width:0.5;" x="460.068220373" xlink:href="#m741efc42ff" y="238.28"/>
      </g>
     </g>
     <g id="text_37">
      <!-- 100 -->
      <g transform="translate(449.673220373 415.558125)scale(0.12 -0.12)">
       <use xlink:href="#BitstreamVeraSans-Roman-31"/>
       <use x="63.623046875" xlink:href="#BitstreamVeraSans-Roman-30"/>
       <use x="127.24609375" xlink:href="#BitstreamVeraSans-Roman-30"/>
      </g>
     </g>
    </g>
    <g id="xtick_20">
     <g id="line2d_73">
      <g>
       <use style="stroke:#000000;stroke-width:0.5;" x="480.940367289" xlink:href="#m93b0483c22" y="402.44"/>
      </g>
     </g>
     <g id="line2d_74">
      <g>
       <use style="stroke:#000000;stroke-width:0.5;" x="480.940367289" xlink:href="#m741efc42ff" y="238.28"/>
      </g>
     </g>
     <g id="text_38">
      <!-- 120 -->
      <g transform="translate(470.545367289 415.558125)scale(0.12 -0.12)">
       <use xlink:href="#BitstreamVeraSans-Roman-31"/>
       <use x="63.623046875" xlink:href="#BitstreamVeraSans-Roman-32"/>
       <use x="127.24609375" xlink:href="#BitstreamVeraSans-Roman-30"/>
      </g>
     </g>
    </g>
    <g id="xtick_21">
     <g id="line2d_75">
      <g>
       <use style="stroke:#000000;stroke-width:0.5;" x="501.812514205" xlink:href="#m93b0483c22" y="402.44"/>
      </g>
     </g>
     <g id="line2d_76">
      <g>
       <use style="stroke:#000000;stroke-width:0.5;" x="501.812514205" xlink:href="#m741efc42ff" y="238.28"/>
      </g>
     </g>
     <g id="text_39">
      <!-- 140 -->
      <g transform="translate(491.417514205 415.558125)scale(0.12 -0.12)">
       <use xlink:href="#BitstreamVeraSans-Roman-31"/>
       <use x="63.623046875" xlink:href="#BitstreamVeraSans-Roman-34"/>
       <use x="127.24609375" xlink:href="#BitstreamVeraSans-Roman-30"/>
      </g>
     </g>
    </g>
   </g>
   <g id="matplotlib.axis_6">
    <g id="ytick_15">
     <g id="line2d_77">
      <g>
       <use style="stroke:#000000;stroke-width:0.5;" x="355.707485795" xlink:href="#m728421d6d4" y="402.44"/>
      </g>
     </g>
     <g id="line2d_78">
      <g>
       <use style="stroke:#000000;stroke-width:0.5;" x="501.812514205" xlink:href="#mcb0005524f" y="402.44"/>
      </g>
     </g>
     <g id="text_40">
      <!-- −3 -->
      <g transform="translate(336.249985795 405.75125)scale(0.12 -0.12)">
       <use xlink:href="#BitstreamVeraSans-Roman-2212"/>
       <use x="83.7890625" xlink:href="#BitstreamVeraSans-Roman-33"/>
      </g>
     </g>
    </g>
    <g id="ytick_16">
     <g id="line2d_79">
      <g>
       <use style="stroke:#000000;stroke-width:0.5;" x="355.707485795" xlink:href="#m728421d6d4" y="375.08"/>
      </g>
     </g>
     <g id="line2d_80">
      <g>
       <use style="stroke:#000000;stroke-width:0.5;" x="501.812514205" xlink:href="#mcb0005524f" y="375.08"/>
      </g>
     </g>
     <g id="text_41">
      <!-- −2 -->
      <g transform="translate(336.489985795 378.39125)scale(0.12 -0.12)">
       <use xlink:href="#BitstreamVeraSans-Roman-2212"/>
       <use x="83.7890625" xlink:href="#BitstreamVeraSans-Roman-32"/>
      </g>
     </g>
    </g>
    <g id="ytick_17">
     <g id="line2d_81">
      <g>
       <use style="stroke:#000000;stroke-width:0.5;" x="355.707485795" xlink:href="#m728421d6d4" y="347.72"/>
      </g>
     </g>
     <g id="line2d_82">
      <g>
       <use style="stroke:#000000;stroke-width:0.5;" x="501.812514205" xlink:href="#mcb0005524f" y="347.72"/>
      </g>
     </g>
     <g id="text_42">
      <!-- −1 -->
      <g transform="translate(336.396235795 351.03125)scale(0.12 -0.12)">
       <use xlink:href="#BitstreamVeraSans-Roman-2212"/>
       <use x="83.7890625" xlink:href="#BitstreamVeraSans-Roman-31"/>
      </g>
     </g>
    </g>
    <g id="ytick_18">
     <g id="line2d_83">
      <g>
       <use style="stroke:#000000;stroke-width:0.5;" x="355.707485795" xlink:href="#m728421d6d4" y="320.36"/>
      </g>
     </g>
     <g id="line2d_84">
      <g>
       <use style="stroke:#000000;stroke-width:0.5;" x="501.812514205" xlink:href="#mcb0005524f" y="320.36"/>
      </g>
     </g>
     <g id="text_43">
      <!-- 0 -->
      <g transform="translate(345.660610795 323.67125)scale(0.12 -0.12)">
       <use xlink:href="#BitstreamVeraSans-Roman-30"/>
      </g>
     </g>
    </g>
    <g id="ytick_19">
     <g id="line2d_85">
      <g>
       <use style="stroke:#000000;stroke-width:0.5;" x="355.707485795" xlink:href="#m728421d6d4" y="293.0"/>
      </g>
     </g>
     <g id="line2d_86">
      <g>
       <use style="stroke:#000000;stroke-width:0.5;" x="501.812514205" xlink:href="#mcb0005524f" y="293.0"/>
      </g>
     </g>
     <g id="text_44">
      <!-- 1 -->
      <g transform="translate(346.498735795 296.31125)scale(0.12 -0.12)">
       <use xlink:href="#BitstreamVeraSans-Roman-31"/>
      </g>
     </g>
    </g>
    <g id="ytick_20">
     <g id="line2d_87">
      <g>
       <use style="stroke:#000000;stroke-width:0.5;" x="355.707485795" xlink:href="#m728421d6d4" y="265.64"/>
      </g>
     </g>
     <g id="line2d_88">
      <g>
       <use style="stroke:#000000;stroke-width:0.5;" x="501.812514205" xlink:href="#mcb0005524f" y="265.64"/>
      </g>
     </g>
     <g id="text_45">
      <!-- 2 -->
      <g transform="translate(346.153735795 268.95125)scale(0.12 -0.12)">
       <use xlink:href="#BitstreamVeraSans-Roman-32"/>
      </g>
     </g>
    </g>
    <g id="ytick_21">
     <g id="line2d_89">
      <g>
       <use style="stroke:#000000;stroke-width:0.5;" x="355.707485795" xlink:href="#m728421d6d4" y="238.28"/>
      </g>
     </g>
     <g id="line2d_90">
      <g>
       <use style="stroke:#000000;stroke-width:0.5;" x="501.812514205" xlink:href="#mcb0005524f" y="238.28"/>
      </g>
     </g>
     <g id="text_46">
      <!-- 3 -->
      <g transform="translate(345.949360795 241.59125)scale(0.12 -0.12)">
       <use xlink:href="#BitstreamVeraSans-Roman-33"/>
      </g>
     </g>
    </g>
   </g>
   <g id="text_47">
    <!-- Pupil Diameter in Stress Trials -->
    <g transform="translate(321.850125 233.28)scale(0.144 -0.144)">
     <use xlink:href="#BitstreamVeraSans-Roman-50"/>
     <use x="58.552734375" xlink:href="#BitstreamVeraSans-Roman-75"/>
     <use x="121.931640625" xlink:href="#BitstreamVeraSans-Roman-70"/>
     <use x="185.408203125" xlink:href="#BitstreamVeraSans-Roman-69"/>
     <use x="213.19140625" xlink:href="#BitstreamVeraSans-Roman-6c"/>
     <use x="240.974609375" xlink:href="#BitstreamVeraSans-Roman-20"/>
     <use x="272.76171875" xlink:href="#BitstreamVeraSans-Roman-44"/>
     <use x="349.763671875" xlink:href="#BitstreamVeraSans-Roman-69"/>
     <use x="377.546875" xlink:href="#BitstreamVeraSans-Roman-61"/>
     <use x="438.826171875" xlink:href="#BitstreamVeraSans-Roman-6d"/>
     <use x="536.23828125" xlink:href="#BitstreamVeraSans-Roman-65"/>
     <use x="597.76171875" xlink:href="#BitstreamVeraSans-Roman-74"/>
     <use x="636.970703125" xlink:href="#BitstreamVeraSans-Roman-65"/>
     <use x="698.494140625" xlink:href="#BitstreamVeraSans-Roman-72"/>
     <use x="739.607421875" xlink:href="#BitstreamVeraSans-Roman-20"/>
     <use x="771.39453125" xlink:href="#BitstreamVeraSans-Roman-69"/>
     <use x="799.177734375" xlink:href="#BitstreamVeraSans-Roman-6e"/>
     <use x="862.556640625" xlink:href="#BitstreamVeraSans-Roman-20"/>
     <use x="894.34375" xlink:href="#BitstreamVeraSans-Roman-53"/>
     <use x="957.8203125" xlink:href="#BitstreamVeraSans-Roman-74"/>
     <use x="997.029296875" xlink:href="#BitstreamVeraSans-Roman-72"/>
     <use x="1035.89257812" xlink:href="#BitstreamVeraSans-Roman-65"/>
     <use x="1097.41601562" xlink:href="#BitstreamVeraSans-Roman-73"/>
     <use x="1149.515625" xlink:href="#BitstreamVeraSans-Roman-73"/>
     <use x="1201.61523438" xlink:href="#BitstreamVeraSans-Roman-20"/>
     <use x="1233.40234375" xlink:href="#BitstreamVeraSans-Roman-54"/>
     <use x="1279.73632812" xlink:href="#BitstreamVeraSans-Roman-72"/>
     <use x="1320.84960938" xlink:href="#BitstreamVeraSans-Roman-69"/>
     <use x="1348.6328125" xlink:href="#BitstreamVeraSans-Roman-61"/>
     <use x="1409.91210938" xlink:href="#BitstreamVeraSans-Roman-6c"/>
     <use x="1437.6953125" xlink:href="#BitstreamVeraSans-Roman-73"/>
    </g>
   </g>
  </g>
  <g id="axes_4">
   <g id="patch_17">
    <path d="
M355.707 192.92
L501.813 192.92
L501.813 28.76
L355.707 28.76
z
" style="fill:#ffffff;"/>
   </g>
   <g id="line2d_91">
    <path clip-path="url(#pf8eeff694e)" d="
M357.169 138.293
L358.63 89.8138
L360.091 86.7033
L361.552 117.275
L363.013 154.158
L364.474 90.1405
L365.935 104.918
L367.396 178.546
L368.857 112.279
L370.318 132.305
L371.779 68.4261
L373.24 110.46
L374.701 84.2036
L376.162 98.5287
L377.623 113.674
L379.084 88.9233
L380.545 108.509
L382.006 112.378
L383.467 98.7628
L384.928 116.088
L386.39 166.568
L387.851 58.6966
L389.312 95.7202
L390.773 96.0375
L392.234 91.0697
L393.695 74.2351
L395.156 121.117
L396.617 110.778
L398.078 127.084
L399.539 105.981
L401 152.789
L402.461 103.654
L403.922 87.477
L405.383 107.306
L406.844 104.985
L408.305 121.82
L409.766 109.002
L411.227 137.125
L412.688 131.474
L414.149 101.867
L415.611 175.303
L417.072 134.938
L418.533 97.1309
L419.994 174.235
L421.455 156.718
L422.916 120.581
L424.377 112.504
L425.838 120.178
L427.299 134.573
L428.76 80.2347
L430.221 128.89
L431.682 101.419
L433.143 80.2655
L434.604 93.7998
L436.065 126.288
L437.526 106.974
L438.987 65.9136
L440.448 171.358
L441.909 112.406
L443.371 120.701
L444.832 109.813
L446.293 147.277
L447.754 77.1263
L449.215 82.0441
L450.676 90.5261
L452.137 112.106
L453.598 88.0329
L455.059 102.606
L456.52 94.9842
L457.981 100.296
L459.442 95.9117
L460.903 97.6994
L462.364 87.5359
L463.825 66.8007
L465.286 91.1159
L466.747 65.3229
L468.208 84.3208
L469.669 66.3349
L471.13 133.254
L472.592 119.784
L474.053 96.8126
L475.514 96.4228
L476.975 133.687
L478.436 192.275
L479.897 130.233
L481.358 102.793
L482.819 93.0783
L484.28 101.14
L485.741 119.52
L487.202 97.0692
L488.663 116.394
L490.124 112.325
L491.585 110.756
L493.046 96.9754
L494.507 112.28
L495.968 66.4158
L497.429 64.177
L498.89 125.593
L500.351 178.772
L501.813 100.54" style="fill:none;stroke:#0000ff;stroke-linecap:square;"/>
   </g>
   <g id="line2d_92">
    <path clip-path="url(#pf8eeff694e)" d="
M357.169 113.544
L358.63 113.469
L360.091 113.394
L361.552 113.32
L363.013 113.245
L364.474 113.17
L365.935 113.095
L367.396 113.02
L368.857 112.945
L370.318 112.87
L371.779 112.795
L373.24 112.72
L374.701 112.646
L376.162 112.571
L377.623 112.496
L379.084 112.421
L380.545 112.346
L382.006 112.271
L383.467 112.196
L384.928 112.121
L386.39 112.046
L387.851 111.972
L389.312 111.897
L390.773 111.822
L392.234 111.747
L393.695 111.672
L395.156 111.597
L396.617 111.522
L398.078 111.447
L399.539 111.372
L401 111.298
L402.461 111.223
L403.922 111.148
L405.383 111.073
L406.844 110.998
L408.305 110.923
L409.766 110.848
L411.227 110.773
L412.688 110.699
L414.149 110.624
L415.611 110.549
L417.072 110.474
L418.533 110.399
L419.994 110.324
L421.455 110.249
L422.916 110.174
L424.377 110.099
L425.838 110.025
L427.299 109.95
L428.76 109.875
L430.221 109.8
L431.682 109.725
L433.143 109.65
L434.604 109.575
L436.065 109.5
L437.526 109.425
L438.987 109.351
L440.448 109.276
L441.909 109.201
L443.371 109.126
L444.832 109.051
L446.293 108.976
L447.754 108.901
L449.215 108.826
L450.676 108.751
L452.137 108.677
L453.598 108.602
L455.059 108.527
L456.52 108.452
L457.981 108.377
L459.442 108.302
L460.903 108.227
L462.364 108.152
L463.825 108.078
L465.286 108.003
L466.747 107.928
L468.208 107.853
L469.669 107.778
L471.13 107.703
L472.592 107.628
L474.053 107.553
L475.514 107.478
L476.975 107.404
L478.436 107.329
L479.897 107.254
L481.358 107.179
L482.819 107.104
L484.28 107.029
L485.741 106.954
L487.202 106.879
L488.663 106.804
L490.124 106.73
L491.585 106.655
L493.046 106.58
L494.507 106.505
L495.968 106.43
L497.429 106.355
L498.89 106.28
L500.351 106.205
L501.813 106.131" style="fill:none;stroke:#0000ff;stroke-dasharray:6.000000,6.000000;stroke-dashoffset:0.0;"/>
   </g>
   <g id="patch_18">
    <path d="
M355.707 28.76
L501.813 28.76" style="fill:none;stroke:#000000;stroke-linecap:square;stroke-linejoin:miter;"/>
   </g>
   <g id="patch_19">
    <path d="
M501.813 192.92
L501.813 28.76" style="fill:none;stroke:#000000;stroke-linecap:square;stroke-linejoin:miter;"/>
   </g>
   <g id="patch_20">
    <path d="
M355.707 192.92
L501.813 192.92" style="fill:none;stroke:#000000;stroke-linecap:square;stroke-linejoin:miter;"/>
   </g>
   <g id="patch_21">
    <path d="
M355.707 192.92
L355.707 28.76" style="fill:none;stroke:#000000;stroke-linecap:square;stroke-linejoin:miter;"/>
   </g>
   <g id="matplotlib.axis_7">
    <g id="xtick_22">
     <g id="line2d_93">
      <g>
       <use style="stroke:#000000;stroke-width:0.5;" x="355.707485795" xlink:href="#m93b0483c22" y="192.92"/>
      </g>
     </g>
     <g id="line2d_94">
      <g>
       <use style="stroke:#000000;stroke-width:0.5;" x="355.707485795" xlink:href="#m741efc42ff" y="28.76"/>
      </g>
     </g>
     <g id="text_48">
      <!-- 0 -->
      <g transform="translate(352.684048295 206.038125)scale(0.12 -0.12)">
       <use xlink:href="#BitstreamVeraSans-Roman-30"/>
      </g>
     </g>
    </g>
    <g id="xtick_23">
     <g id="line2d_95">
      <g>
       <use style="stroke:#000000;stroke-width:0.5;" x="384.928491477" xlink:href="#m93b0483c22" y="192.92"/>
      </g>
     </g>
     <g id="line2d_96">
      <g>
       <use style="stroke:#000000;stroke-width:0.5;" x="384.928491477" xlink:href="#m741efc42ff" y="28.76"/>
      </g>
     </g>
     <g id="text_49">
      <!-- 20 -->
      <g transform="translate(378.131616477 206.038125)scale(0.12 -0.12)">
       <use xlink:href="#BitstreamVeraSans-Roman-32"/>
       <use x="63.623046875" xlink:href="#BitstreamVeraSans-Roman-30"/>
      </g>
     </g>
    </g>
    <g id="xtick_24">
     <g id="line2d_97">
      <g>
       <use style="stroke:#000000;stroke-width:0.5;" x="414.149497159" xlink:href="#m93b0483c22" y="192.92"/>
      </g>
     </g>
     <g id="line2d_98">
      <g>
       <use style="stroke:#000000;stroke-width:0.5;" x="414.149497159" xlink:href="#m741efc42ff" y="28.76"/>
      </g>
     </g>
     <g id="text_50">
      <!-- 40 -->
      <g transform="translate(407.206372159 206.038125)scale(0.12 -0.12)">
       <use xlink:href="#BitstreamVeraSans-Roman-34"/>
       <use x="63.623046875" xlink:href="#BitstreamVeraSans-Roman-30"/>
      </g>
     </g>
    </g>
    <g id="xtick_25">
     <g id="line2d_99">
      <g>
       <use style="stroke:#000000;stroke-width:0.5;" x="443.370502841" xlink:href="#m93b0483c22" y="192.92"/>
      </g>
     </g>
     <g id="line2d_100">
      <g>
       <use style="stroke:#000000;stroke-width:0.5;" x="443.370502841" xlink:href="#m741efc42ff" y="28.76"/>
      </g>
     </g>
     <g id="text_51">
      <!-- 60 -->
      <g transform="translate(436.553002841 206.038125)scale(0.12 -0.12)">
       <use xlink:href="#BitstreamVeraSans-Roman-36"/>
       <use x="63.623046875" xlink:href="#BitstreamVeraSans-Roman-30"/>
      </g>
     </g>
    </g>
    <g id="xtick_26">
     <g id="line2d_101">
      <g>
       <use style="stroke:#000000;stroke-width:0.5;" x="472.591508523" xlink:href="#m93b0483c22" y="192.92"/>
      </g>
     </g>
     <g id="line2d_102">
      <g>
       <use style="stroke:#000000;stroke-width:0.5;" x="472.591508523" xlink:href="#m741efc42ff" y="28.76"/>
      </g>
     </g>
     <g id="text_52">
      <!-- 80 -->
      <g transform="translate(465.761821023 206.038125)scale(0.12 -0.12)">
       <use xlink:href="#BitstreamVeraSans-Roman-38"/>
       <use x="63.623046875" xlink:href="#BitstreamVeraSans-Roman-30"/>
      </g>
     </g>
    </g>
    <g id="xtick_27">
     <g id="line2d_103">
      <g>
       <use style="stroke:#000000;stroke-width:0.5;" x="501.812514205" xlink:href="#m93b0483c22" y="192.92"/>
      </g>
     </g>
     <g id="line2d_104">
      <g>
       <use style="stroke:#000000;stroke-width:0.5;" x="501.812514205" xlink:href="#m741efc42ff" y="28.76"/>
      </g>
     </g>
     <g id="text_53">
      <!-- 100 -->
      <g transform="translate(491.417514205 206.038125)scale(0.12 -0.12)">
       <use xlink:href="#BitstreamVeraSans-Roman-31"/>
       <use x="63.623046875" xlink:href="#BitstreamVeraSans-Roman-30"/>
       <use x="127.24609375" xlink:href="#BitstreamVeraSans-Roman-30"/>
      </g>
     </g>
    </g>
   </g>
   <g id="matplotlib.axis_8">
    <g id="ytick_22">
     <g id="line2d_105">
      <g>
       <use style="stroke:#000000;stroke-width:0.5;" x="355.707485795" xlink:href="#m728421d6d4" y="192.92"/>
      </g>
     </g>
     <g id="line2d_106">
      <g>
       <use style="stroke:#000000;stroke-width:0.5;" x="501.812514205" xlink:href="#mcb0005524f" y="192.92"/>
      </g>
     </g>
     <g id="text_54">
      <!-- −3 -->
      <g transform="translate(336.249985795 196.23125)scale(0.12 -0.12)">
       <use xlink:href="#BitstreamVeraSans-Roman-2212"/>
       <use x="83.7890625" xlink:href="#BitstreamVeraSans-Roman-33"/>
      </g>
     </g>
    </g>
    <g id="ytick_23">
     <g id="line2d_107">
      <g>
       <use style="stroke:#000000;stroke-width:0.5;" x="355.707485795" xlink:href="#m728421d6d4" y="165.56"/>
      </g>
     </g>
     <g id="line2d_108">
      <g>
       <use style="stroke:#000000;stroke-width:0.5;" x="501.812514205" xlink:href="#mcb0005524f" y="165.56"/>
      </g>
     </g>
     <g id="text_55">
      <!-- −2 -->
      <g transform="translate(336.489985795 168.87125)scale(0.12 -0.12)">
       <use xlink:href="#BitstreamVeraSans-Roman-2212"/>
       <use x="83.7890625" xlink:href="#BitstreamVeraSans-Roman-32"/>
      </g>
     </g>
    </g>
    <g id="ytick_24">
     <g id="line2d_109">
      <g>
       <use style="stroke:#000000;stroke-width:0.5;" x="355.707485795" xlink:href="#m728421d6d4" y="138.2"/>
      </g>
     </g>
     <g id="line2d_110">
      <g>
       <use style="stroke:#000000;stroke-width:0.5;" x="501.812514205" xlink:href="#mcb0005524f" y="138.2"/>
      </g>
     </g>
     <g id="text_56">
      <!-- −1 -->
      <g transform="translate(336.396235795 141.51125)scale(0.12 -0.12)">
       <use xlink:href="#BitstreamVeraSans-Roman-2212"/>
       <use x="83.7890625" xlink:href="#BitstreamVeraSans-Roman-31"/>
      </g>
     </g>
    </g>
    <g id="ytick_25">
     <g id="line2d_111">
      <g>
       <use style="stroke:#000000;stroke-width:0.5;" x="355.707485795" xlink:href="#m728421d6d4" y="110.84"/>
      </g>
     </g>
     <g id="line2d_112">
      <g>
       <use style="stroke:#000000;stroke-width:0.5;" x="501.812514205" xlink:href="#mcb0005524f" y="110.84"/>
      </g>
     </g>
     <g id="text_57">
      <!-- 0 -->
      <g transform="translate(345.660610795 114.15125)scale(0.12 -0.12)">
       <use xlink:href="#BitstreamVeraSans-Roman-30"/>
      </g>
     </g>
    </g>
    <g id="ytick_26">
     <g id="line2d_113">
      <g>
       <use style="stroke:#000000;stroke-width:0.5;" x="355.707485795" xlink:href="#m728421d6d4" y="83.48"/>
      </g>
     </g>
     <g id="line2d_114">
      <g>
       <use style="stroke:#000000;stroke-width:0.5;" x="501.812514205" xlink:href="#mcb0005524f" y="83.48"/>
      </g>
     </g>
     <g id="text_58">
      <!-- 1 -->
      <g transform="translate(346.498735795 86.79125)scale(0.12 -0.12)">
       <use xlink:href="#BitstreamVeraSans-Roman-31"/>
      </g>
     </g>
    </g>
    <g id="ytick_27">
     <g id="line2d_115">
      <g>
       <use style="stroke:#000000;stroke-width:0.5;" x="355.707485795" xlink:href="#m728421d6d4" y="56.12"/>
      </g>
     </g>
     <g id="line2d_116">
      <g>
       <use style="stroke:#000000;stroke-width:0.5;" x="501.812514205" xlink:href="#mcb0005524f" y="56.12"/>
      </g>
     </g>
     <g id="text_59">
      <!-- 2 -->
      <g transform="translate(346.153735795 59.43125)scale(0.12 -0.12)">
       <use xlink:href="#BitstreamVeraSans-Roman-32"/>
      </g>
     </g>
    </g>
    <g id="ytick_28">
     <g id="line2d_117">
      <g>
       <use style="stroke:#000000;stroke-width:0.5;" x="355.707485795" xlink:href="#m728421d6d4" y="28.76"/>
      </g>
     </g>
     <g id="line2d_118">
      <g>
       <use style="stroke:#000000;stroke-width:0.5;" x="501.812514205" xlink:href="#mcb0005524f" y="28.76"/>
      </g>
     </g>
     <g id="text_60">
      <!-- 3 -->
      <g transform="translate(345.949360795 32.07125)scale(0.12 -0.12)">
       <use xlink:href="#BitstreamVeraSans-Roman-33"/>
      </g>
     </g>
    </g>
   </g>
   <g id="text_61">
    <!-- Pupil Diameter in Regular Trials before Stress -->
    <g transform="translate(266.488875 23.76)scale(0.144 -0.144)">
     <use xlink:href="#BitstreamVeraSans-Roman-50"/>
     <use x="58.552734375" xlink:href="#BitstreamVeraSans-Roman-75"/>
     <use x="121.931640625" xlink:href="#BitstreamVeraSans-Roman-70"/>
     <use x="185.408203125" xlink:href="#BitstreamVeraSans-Roman-69"/>
     <use x="213.19140625" xlink:href="#BitstreamVeraSans-Roman-6c"/>
     <use x="240.974609375" xlink:href="#BitstreamVeraSans-Roman-20"/>
     <use x="272.76171875" xlink:href="#BitstreamVeraSans-Roman-44"/>
     <use x="349.763671875" xlink:href="#BitstreamVeraSans-Roman-69"/>
     <use x="377.546875" xlink:href="#BitstreamVeraSans-Roman-61"/>
     <use x="438.826171875" xlink:href="#BitstreamVeraSans-Roman-6d"/>
     <use x="536.23828125" xlink:href="#BitstreamVeraSans-Roman-65"/>
     <use x="597.76171875" xlink:href="#BitstreamVeraSans-Roman-74"/>
     <use x="636.970703125" xlink:href="#BitstreamVeraSans-Roman-65"/>
     <use x="698.494140625" xlink:href="#BitstreamVeraSans-Roman-72"/>
     <use x="739.607421875" xlink:href="#BitstreamVeraSans-Roman-20"/>
     <use x="771.39453125" xlink:href="#BitstreamVeraSans-Roman-69"/>
     <use x="799.177734375" xlink:href="#BitstreamVeraSans-Roman-6e"/>
     <use x="862.556640625" xlink:href="#BitstreamVeraSans-Roman-20"/>
     <use x="894.34375" xlink:href="#BitstreamVeraSans-Roman-52"/>
     <use x="959.326171875" xlink:href="#BitstreamVeraSans-Roman-65"/>
     <use x="1020.84960938" xlink:href="#BitstreamVeraSans-Roman-67"/>
     <use x="1084.32617188" xlink:href="#BitstreamVeraSans-Roman-75"/>
     <use x="1147.70507812" xlink:href="#BitstreamVeraSans-Roman-6c"/>
     <use x="1175.48828125" xlink:href="#BitstreamVeraSans-Roman-61"/>
     <use x="1236.76757812" xlink:href="#BitstreamVeraSans-Roman-72"/>
     <use x="1277.88085938" xlink:href="#BitstreamVeraSans-Roman-20"/>
     <use x="1309.66796875" xlink:href="#BitstreamVeraSans-Roman-54"/>
     <use x="1356.00195312" xlink:href="#BitstreamVeraSans-Roman-72"/>
     <use x="1397.11523438" xlink:href="#BitstreamVeraSans-Roman-69"/>
     <use x="1424.8984375" xlink:href="#BitstreamVeraSans-Roman-61"/>
     <use x="1486.17773438" xlink:href="#BitstreamVeraSans-Roman-6c"/>
     <use x="1513.9609375" xlink:href="#BitstreamVeraSans-Roman-73"/>
     <use x="1566.06054688" xlink:href="#BitstreamVeraSans-Roman-20"/>
     <use x="1597.84765625" xlink:href="#BitstreamVeraSans-Roman-62"/>
     <use x="1661.32421875" xlink:href="#BitstreamVeraSans-Roman-65"/>
     <use x="1722.84765625" xlink:href="#BitstreamVeraSans-Roman-66"/>
     <use x="1758.05273438" xlink:href="#BitstreamVeraSans-Roman-6f"/>
     <use x="1819.234375" xlink:href="#BitstreamVeraSans-Roman-72"/>
     <use x="1858.09765625" xlink:href="#BitstreamVeraSans-Roman-65"/>
     <use x="1919.62109375" xlink:href="#BitstreamVeraSans-Roman-20"/>
     <use x="1951.40820312" xlink:href="#BitstreamVeraSans-Roman-53"/>
     <use x="2014.88476562" xlink:href="#BitstreamVeraSans-Roman-74"/>
     <use x="2054.09375" xlink:href="#BitstreamVeraSans-Roman-72"/>
     <use x="2092.95703125" xlink:href="#BitstreamVeraSans-Roman-65"/>
     <use x="2154.48046875" xlink:href="#BitstreamVeraSans-Roman-73"/>
     <use x="2206.58007812" xlink:href="#BitstreamVeraSans-Roman-73"/>
    </g>
   </g>
  </g>
 </g>
 <defs>
  <clipPath id="p1cbca1c66b">
   <rect height="164.16" width="146.105028409" x="355.707485795" y="238.28"/>
  </clipPath>
  <clipPath id="p03a1b07124">
   <rect height="164.16" width="146.105028409" x="74.1874857955" y="238.28"/>
  </clipPath>
  <clipPath id="pf8eeff694e">
   <rect height="164.16" width="146.105028409" x="355.707485795" y="28.76"/>
  </clipPath>
  <clipPath id="p528d018644">
   <rect height="164.16" width="146.105028409" x="74.1874857955" y="28.76"/>
  </clipPath>
 </defs>
</svg>
