<?xml version="1.0" encoding="utf-8" standalone="no"?>
<!DOCTYPE svg PUBLIC "-//W3C//DTD SVG 1.1//EN"
  "http://www.w3.org/Graphics/SVG/1.1/DTD/svg11.dtd">
<!-- Created with matplotlib (http://matplotlib.org/) -->
<svg height="345pt" version="1.1" viewBox="0 0 460 345" width="460pt" xmlns="http://www.w3.org/2000/svg" xmlns:xlink="http://www.w3.org/1999/xlink">
 <defs>
  <style type="text/css">
*{stroke-linecap:butt;stroke-linejoin:round;}
  </style>
 </defs>
 <g id="figure_1">
  <g id="patch_1">
   <path d="M 0 345.6 
L 460.8 345.6 
L 460.8 0 
L 0 0 
z
" style="fill:#ffffff;"/>
  </g>
  <g id="axes_1">
   <g id="patch_2">
    <path d="M 57.6 307.584 
L 219.927273 307.584 
L 219.927273 41.472 
L 57.6 41.472 
z
" style="fill:#ffffff;"/>
   </g>
   <g id="matplotlib.axis_1">
    <g id="xtick_1">
     <g id="line2d_1">
      <defs>
       <path d="M 0 0 
L 0 3.5 
" id="m3aff7a8ff6" style="stroke:#000000;stroke-width:0.8;"/>
      </defs>
      <g>
       <use style="stroke:#000000;stroke-width:0.8;" x="64.978512" xlink:href="#m3aff7a8ff6" y="307.584"/>
      </g>
     </g>
     <g id="text_1">
      <!-- 0.0 -->
      <defs>
       <path d="M 31.78125 66.40625 
Q 24.171875 66.40625 20.328125 58.90625 
Q 16.5 51.421875 16.5 36.375 
Q 16.5 21.390625 20.328125 13.890625 
Q 24.171875 6.390625 31.78125 6.390625 
Q 39.453125 6.390625 43.28125 13.890625 
Q 47.125 21.390625 47.125 36.375 
Q 47.125 51.421875 43.28125 58.90625 
Q 39.453125 66.40625 31.78125 66.40625 
z
M 31.78125 74.21875 
Q 44.046875 74.21875 50.515625 64.515625 
Q 56.984375 54.828125 56.984375 36.375 
Q 56.984375 17.96875 50.515625 8.265625 
Q 44.046875 -1.421875 31.78125 -1.421875 
Q 19.53125 -1.421875 13.0625 8.265625 
Q 6.59375 17.96875 6.59375 36.375 
Q 6.59375 54.828125 13.0625 64.515625 
Q 19.53125 74.21875 31.78125 74.21875 
z
" id="DejaVuSans-30"/>
       <path d="M 10.6875 12.40625 
L 21 12.40625 
L 21 0 
L 10.6875 0 
z
" id="DejaVuSans-2e"/>
      </defs>
      <g transform="translate(57.02695 322.182437)scale(0.1 -0.1)">
       <use xlink:href="#DejaVuSans-30"/>
       <use x="63.623047" xlink:href="#DejaVuSans-2e"/>
       <use x="95.410156" xlink:href="#DejaVuSans-30"/>
      </g>
     </g>
    </g>
    <g id="xtick_2">
     <g id="line2d_2">
      <g>
       <use style="stroke:#000000;stroke-width:0.8;" x="86.160845" xlink:href="#m3aff7a8ff6" y="307.584"/>
      </g>
     </g>
     <g id="text_2">
      <!-- 5.0 -->
      <defs>
       <path d="M 10.796875 72.90625 
L 49.515625 72.90625 
L 49.515625 64.59375 
L 19.828125 64.59375 
L 19.828125 46.734375 
Q 21.96875 47.46875 24.109375 47.828125 
Q 26.265625 48.1875 28.421875 48.1875 
Q 40.625 48.1875 47.75 41.5 
Q 54.890625 34.8125 54.890625 23.390625 
Q 54.890625 11.625 47.5625 5.09375 
Q 40.234375 -1.421875 26.90625 -1.421875 
Q 22.3125 -1.421875 17.546875 -0.640625 
Q 12.796875 0.140625 7.71875 1.703125 
L 7.71875 11.625 
Q 12.109375 9.234375 16.796875 8.0625 
Q 21.484375 6.890625 26.703125 6.890625 
Q 35.15625 6.890625 40.078125 11.328125 
Q 45.015625 15.765625 45.015625 23.390625 
Q 45.015625 31 40.078125 35.4375 
Q 35.15625 39.890625 26.703125 39.890625 
Q 22.75 39.890625 18.8125 39.015625 
Q 14.890625 38.140625 10.796875 36.28125 
z
" id="DejaVuSans-35"/>
      </defs>
      <g transform="translate(78.209282 322.182437)scale(0.1 -0.1)">
       <use xlink:href="#DejaVuSans-35"/>
       <use x="63.623047" xlink:href="#DejaVuSans-2e"/>
       <use x="95.410156" xlink:href="#DejaVuSans-30"/>
      </g>
     </g>
    </g>
    <g id="xtick_3">
     <g id="line2d_3">
      <g>
       <use style="stroke:#000000;stroke-width:0.8;" x="107.343177" xlink:href="#m3aff7a8ff6" y="307.584"/>
      </g>
     </g>
     <g id="text_3">
      <!-- 10.0 -->
      <defs>
       <path d="M 12.40625 8.296875 
L 28.515625 8.296875 
L 28.515625 63.921875 
L 10.984375 60.40625 
L 10.984375 69.390625 
L 28.421875 72.90625 
L 38.28125 72.90625 
L 38.28125 8.296875 
L 54.390625 8.296875 
L 54.390625 0 
L 12.40625 0 
z
" id="DejaVuSans-31"/>
      </defs>
      <g transform="translate(96.210364 322.182437)scale(0.1 -0.1)">
       <use xlink:href="#DejaVuSans-31"/>
       <use x="63.623047" xlink:href="#DejaVuSans-30"/>
       <use x="127.246094" xlink:href="#DejaVuSans-2e"/>
       <use x="159.033203" xlink:href="#DejaVuSans-30"/>
      </g>
     </g>
    </g>
    <g id="xtick_4">
     <g id="line2d_4">
      <g>
       <use style="stroke:#000000;stroke-width:0.8;" x="128.525509" xlink:href="#m3aff7a8ff6" y="307.584"/>
      </g>
     </g>
     <g id="text_4">
      <!-- 15.0 -->
      <g transform="translate(117.392697 322.182437)scale(0.1 -0.1)">
       <use xlink:href="#DejaVuSans-31"/>
       <use x="63.623047" xlink:href="#DejaVuSans-35"/>
       <use x="127.246094" xlink:href="#DejaVuSans-2e"/>
       <use x="159.033203" xlink:href="#DejaVuSans-30"/>
      </g>
     </g>
    </g>
    <g id="xtick_5">
     <g id="line2d_5">
      <g>
       <use style="stroke:#000000;stroke-width:0.8;" x="149.707841" xlink:href="#m3aff7a8ff6" y="307.584"/>
      </g>
     </g>
     <g id="text_5">
      <!-- 20.0 -->
      <defs>
       <path d="M 19.1875 8.296875 
L 53.609375 8.296875 
L 53.609375 0 
L 7.328125 0 
L 7.328125 8.296875 
Q 12.9375 14.109375 22.625 23.890625 
Q 32.328125 33.6875 34.8125 36.53125 
Q 39.546875 41.84375 41.421875 45.53125 
Q 43.3125 49.21875 43.3125 52.78125 
Q 43.3125 58.59375 39.234375 62.25 
Q 35.15625 65.921875 28.609375 65.921875 
Q 23.96875 65.921875 18.8125 64.3125 
Q 13.671875 62.703125 7.8125 59.421875 
L 7.8125 69.390625 
Q 13.765625 71.78125 18.9375 73 
Q 24.125 74.21875 28.421875 74.21875 
Q 39.75 74.21875 46.484375 68.546875 
Q 53.21875 62.890625 53.21875 53.421875 
Q 53.21875 48.921875 51.53125 44.890625 
Q 49.859375 40.875 45.40625 35.40625 
Q 44.1875 33.984375 37.640625 27.21875 
Q 31.109375 20.453125 19.1875 8.296875 
z
" id="DejaVuSans-32"/>
      </defs>
      <g transform="translate(138.575029 322.182437)scale(0.1 -0.1)">
       <use xlink:href="#DejaVuSans-32"/>
       <use x="63.623047" xlink:href="#DejaVuSans-30"/>
       <use x="127.246094" xlink:href="#DejaVuSans-2e"/>
       <use x="159.033203" xlink:href="#DejaVuSans-30"/>
      </g>
     </g>
    </g>
    <g id="xtick_6">
     <g id="line2d_6">
      <g>
       <use style="stroke:#000000;stroke-width:0.8;" x="170.890174" xlink:href="#m3aff7a8ff6" y="307.584"/>
      </g>
     </g>
     <g id="text_6">
      <!-- 25.0 -->
      <g transform="translate(159.757361 322.182437)scale(0.1 -0.1)">
       <use xlink:href="#DejaVuSans-32"/>
       <use x="63.623047" xlink:href="#DejaVuSans-35"/>
       <use x="127.246094" xlink:href="#DejaVuSans-2e"/>
       <use x="159.033203" xlink:href="#DejaVuSans-30"/>
      </g>
     </g>
    </g>
    <g id="xtick_7">
     <g id="line2d_7">
      <g>
       <use style="stroke:#000000;stroke-width:0.8;" x="192.072506" xlink:href="#m3aff7a8ff6" y="307.584"/>
      </g>
     </g>
     <g id="text_7">
      <!-- 30.0 -->
      <defs>
       <path d="M 40.578125 39.3125 
Q 47.65625 37.796875 51.625 33 
Q 55.609375 28.21875 55.609375 21.1875 
Q 55.609375 10.40625 48.1875 4.484375 
Q 40.765625 -1.421875 27.09375 -1.421875 
Q 22.515625 -1.421875 17.65625 -0.515625 
Q 12.796875 0.390625 7.625 2.203125 
L 7.625 11.71875 
Q 11.71875 9.328125 16.59375 8.109375 
Q 21.484375 6.890625 26.8125 6.890625 
Q 36.078125 6.890625 40.9375 10.546875 
Q 45.796875 14.203125 45.796875 21.1875 
Q 45.796875 27.640625 41.28125 31.265625 
Q 36.765625 34.90625 28.71875 34.90625 
L 20.21875 34.90625 
L 20.21875 43.015625 
L 29.109375 43.015625 
Q 36.375 43.015625 40.234375 45.921875 
Q 44.09375 48.828125 44.09375 54.296875 
Q 44.09375 59.90625 40.109375 62.90625 
Q 36.140625 65.921875 28.71875 65.921875 
Q 24.65625 65.921875 20.015625 65.03125 
Q 15.375 64.15625 9.8125 62.3125 
L 9.8125 71.09375 
Q 15.4375 72.65625 20.34375 73.4375 
Q 25.25 74.21875 29.59375 74.21875 
Q 40.828125 74.21875 47.359375 69.109375 
Q 53.90625 64.015625 53.90625 55.328125 
Q 53.90625 49.265625 50.4375 45.09375 
Q 46.96875 40.921875 40.578125 39.3125 
z
" id="DejaVuSans-33"/>
      </defs>
      <g transform="translate(180.939693 322.182437)scale(0.1 -0.1)">
       <use xlink:href="#DejaVuSans-33"/>
       <use x="63.623047" xlink:href="#DejaVuSans-30"/>
       <use x="127.246094" xlink:href="#DejaVuSans-2e"/>
       <use x="159.033203" xlink:href="#DejaVuSans-30"/>
      </g>
     </g>
    </g>
    <g id="text_8">
     <!-- Minutes -->
     <defs>
      <path d="M 9.8125 72.90625 
L 24.515625 72.90625 
L 43.109375 23.296875 
L 61.8125 72.90625 
L 76.515625 72.90625 
L 76.515625 0 
L 66.890625 0 
L 66.890625 64.015625 
L 48.09375 14.015625 
L 38.1875 14.015625 
L 19.390625 64.015625 
L 19.390625 0 
L 9.8125 0 
z
" id="DejaVuSans-4d"/>
      <path d="M 9.421875 54.6875 
L 18.40625 54.6875 
L 18.40625 0 
L 9.421875 0 
z
M 9.421875 75.984375 
L 18.40625 75.984375 
L 18.40625 64.59375 
L 9.421875 64.59375 
z
" id="DejaVuSans-69"/>
      <path d="M 54.890625 33.015625 
L 54.890625 0 
L 45.90625 0 
L 45.90625 32.71875 
Q 45.90625 40.484375 42.875 44.328125 
Q 39.84375 48.1875 33.796875 48.1875 
Q 26.515625 48.1875 22.3125 43.546875 
Q 18.109375 38.921875 18.109375 30.90625 
L 18.109375 0 
L 9.078125 0 
L 9.078125 54.6875 
L 18.109375 54.6875 
L 18.109375 46.1875 
Q 21.34375 51.125 25.703125 53.5625 
Q 30.078125 56 35.796875 56 
Q 45.21875 56 50.046875 50.171875 
Q 54.890625 44.34375 54.890625 33.015625 
z
" id="DejaVuSans-6e"/>
      <path d="M 8.5 21.578125 
L 8.5 54.6875 
L 17.484375 54.6875 
L 17.484375 21.921875 
Q 17.484375 14.15625 20.5 10.265625 
Q 23.53125 6.390625 29.59375 6.390625 
Q 36.859375 6.390625 41.078125 11.03125 
Q 45.3125 15.671875 45.3125 23.6875 
L 45.3125 54.6875 
L 54.296875 54.6875 
L 54.296875 0 
L 45.3125 0 
L 45.3125 8.40625 
Q 42.046875 3.421875 37.71875 1 
Q 33.40625 -1.421875 27.6875 -1.421875 
Q 18.265625 -1.421875 13.375 4.4375 
Q 8.5 10.296875 8.5 21.578125 
z
M 31.109375 56 
z
" id="DejaVuSans-75"/>
      <path d="M 18.3125 70.21875 
L 18.3125 54.6875 
L 36.8125 54.6875 
L 36.8125 47.703125 
L 18.3125 47.703125 
L 18.3125 18.015625 
Q 18.3125 11.328125 20.140625 9.421875 
Q 21.96875 7.515625 27.59375 7.515625 
L 36.8125 7.515625 
L 36.8125 0 
L 27.59375 0 
Q 17.1875 0 13.234375 3.875 
Q 9.28125 7.765625 9.28125 18.015625 
L 9.28125 47.703125 
L 2.6875 47.703125 
L 2.6875 54.6875 
L 9.28125 54.6875 
L 9.28125 70.21875 
z
" id="DejaVuSans-74"/>
      <path d="M 56.203125 29.59375 
L 56.203125 25.203125 
L 14.890625 25.203125 
Q 15.484375 15.921875 20.484375 11.0625 
Q 25.484375 6.203125 34.421875 6.203125 
Q 39.59375 6.203125 44.453125 7.46875 
Q 49.3125 8.734375 54.109375 11.28125 
L 54.109375 2.78125 
Q 49.265625 0.734375 44.1875 -0.34375 
Q 39.109375 -1.421875 33.890625 -1.421875 
Q 20.796875 -1.421875 13.15625 6.1875 
Q 5.515625 13.8125 5.515625 26.8125 
Q 5.515625 40.234375 12.765625 48.109375 
Q 20.015625 56 32.328125 56 
Q 43.359375 56 49.78125 48.890625 
Q 56.203125 41.796875 56.203125 29.59375 
z
M 47.21875 32.234375 
Q 47.125 39.59375 43.09375 43.984375 
Q 39.0625 48.390625 32.421875 48.390625 
Q 24.90625 48.390625 20.390625 44.140625 
Q 15.875 39.890625 15.1875 32.171875 
z
" id="DejaVuSans-65"/>
      <path d="M 44.28125 53.078125 
L 44.28125 44.578125 
Q 40.484375 46.53125 36.375 47.5 
Q 32.28125 48.484375 27.875 48.484375 
Q 21.1875 48.484375 17.84375 46.4375 
Q 14.5 44.390625 14.5 40.28125 
Q 14.5 37.15625 16.890625 35.375 
Q 19.28125 33.59375 26.515625 31.984375 
L 29.59375 31.296875 
Q 39.15625 29.25 43.1875 25.515625 
Q 47.21875 21.78125 47.21875 15.09375 
Q 47.21875 7.46875 41.1875 3.015625 
Q 35.15625 -1.421875 24.609375 -1.421875 
Q 20.21875 -1.421875 15.453125 -0.5625 
Q 10.6875 0.296875 5.421875 2 
L 5.421875 11.28125 
Q 10.40625 8.6875 15.234375 7.390625 
Q 20.0625 6.109375 24.8125 6.109375 
Q 31.15625 6.109375 34.5625 8.28125 
Q 37.984375 10.453125 37.984375 14.40625 
Q 37.984375 18.0625 35.515625 20.015625 
Q 33.0625 21.96875 24.703125 23.78125 
L 21.578125 24.515625 
Q 13.234375 26.265625 9.515625 29.90625 
Q 5.8125 33.546875 5.8125 39.890625 
Q 5.8125 47.609375 11.28125 51.796875 
Q 16.75 56 26.8125 56 
Q 31.78125 56 36.171875 55.265625 
Q 40.578125 54.546875 44.28125 53.078125 
z
" id="DejaVuSans-73"/>
     </defs>
     <g transform="translate(119.081605 335.860562)scale(0.1 -0.1)">
      <use xlink:href="#DejaVuSans-4d"/>
      <use x="86.279297" xlink:href="#DejaVuSans-69"/>
      <use x="114.0625" xlink:href="#DejaVuSans-6e"/>
      <use x="177.441406" xlink:href="#DejaVuSans-75"/>
      <use x="240.820312" xlink:href="#DejaVuSans-74"/>
      <use x="280.029297" xlink:href="#DejaVuSans-65"/>
      <use x="341.552734" xlink:href="#DejaVuSans-73"/>
     </g>
    </g>
   </g>
   <g id="matplotlib.axis_2">
    <g id="ytick_1">
     <g id="line2d_8">
      <defs>
       <path d="M 0 0 
L -3.5 0 
" id="mb55da06954" style="stroke:#000000;stroke-width:0.8;"/>
      </defs>
      <g>
       <use style="stroke:#000000;stroke-width:0.8;" x="57.6" xlink:href="#mb55da06954" y="259.41428"/>
      </g>
     </g>
     <g id="text_9">
      <!-- 0.34 -->
      <defs>
       <path d="M 37.796875 64.3125 
L 12.890625 25.390625 
L 37.796875 25.390625 
z
M 35.203125 72.90625 
L 47.609375 72.90625 
L 47.609375 25.390625 
L 58.015625 25.390625 
L 58.015625 17.1875 
L 47.609375 17.1875 
L 47.609375 0 
L 37.796875 0 
L 37.796875 17.1875 
L 4.890625 17.1875 
L 4.890625 26.703125 
z
" id="DejaVuSans-34"/>
      </defs>
      <g transform="translate(28.334375 263.213498)scale(0.1 -0.1)">
       <use xlink:href="#DejaVuSans-30"/>
       <use x="63.623047" xlink:href="#DejaVuSans-2e"/>
       <use x="95.410156" xlink:href="#DejaVuSans-33"/>
       <use x="159.033203" xlink:href="#DejaVuSans-34"/>
      </g>
     </g>
    </g>
    <g id="ytick_2">
     <g id="line2d_9">
      <g>
       <use style="stroke:#000000;stroke-width:0.8;" x="57.6" xlink:href="#mb55da06954" y="204.275021"/>
      </g>
     </g>
     <g id="text_10">
      <!-- 0.36 -->
      <defs>
       <path d="M 33.015625 40.375 
Q 26.375 40.375 22.484375 35.828125 
Q 18.609375 31.296875 18.609375 23.390625 
Q 18.609375 15.53125 22.484375 10.953125 
Q 26.375 6.390625 33.015625 6.390625 
Q 39.65625 6.390625 43.53125 10.953125 
Q 47.40625 15.53125 47.40625 23.390625 
Q 47.40625 31.296875 43.53125 35.828125 
Q 39.65625 40.375 33.015625 40.375 
z
M 52.59375 71.296875 
L 52.59375 62.3125 
Q 48.875 64.0625 45.09375 64.984375 
Q 41.3125 65.921875 37.59375 65.921875 
Q 27.828125 65.921875 22.671875 59.328125 
Q 17.53125 52.734375 16.796875 39.40625 
Q 19.671875 43.65625 24.015625 45.921875 
Q 28.375 48.1875 33.59375 48.1875 
Q 44.578125 48.1875 50.953125 41.515625 
Q 57.328125 34.859375 57.328125 23.390625 
Q 57.328125 12.15625 50.6875 5.359375 
Q 44.046875 -1.421875 33.015625 -1.421875 
Q 20.359375 -1.421875 13.671875 8.265625 
Q 6.984375 17.96875 6.984375 36.375 
Q 6.984375 53.65625 15.1875 63.9375 
Q 23.390625 74.21875 37.203125 74.21875 
Q 40.921875 74.21875 44.703125 73.484375 
Q 48.484375 72.75 52.59375 71.296875 
z
" id="DejaVuSans-36"/>
      </defs>
      <g transform="translate(28.334375 208.07424)scale(0.1 -0.1)">
       <use xlink:href="#DejaVuSans-30"/>
       <use x="63.623047" xlink:href="#DejaVuSans-2e"/>
       <use x="95.410156" xlink:href="#DejaVuSans-33"/>
       <use x="159.033203" xlink:href="#DejaVuSans-36"/>
      </g>
     </g>
    </g>
    <g id="ytick_3">
     <g id="line2d_10">
      <g>
       <use style="stroke:#000000;stroke-width:0.8;" x="57.6" xlink:href="#mb55da06954" y="149.135763"/>
      </g>
     </g>
     <g id="text_11">
      <!-- 0.38 -->
      <defs>
       <path d="M 31.78125 34.625 
Q 24.75 34.625 20.71875 30.859375 
Q 16.703125 27.09375 16.703125 20.515625 
Q 16.703125 13.921875 20.71875 10.15625 
Q 24.75 6.390625 31.78125 6.390625 
Q 38.8125 6.390625 42.859375 10.171875 
Q 46.921875 13.96875 46.921875 20.515625 
Q 46.921875 27.09375 42.890625 30.859375 
Q 38.875 34.625 31.78125 34.625 
z
M 21.921875 38.8125 
Q 15.578125 40.375 12.03125 44.71875 
Q 8.5 49.078125 8.5 55.328125 
Q 8.5 64.0625 14.71875 69.140625 
Q 20.953125 74.21875 31.78125 74.21875 
Q 42.671875 74.21875 48.875 69.140625 
Q 55.078125 64.0625 55.078125 55.328125 
Q 55.078125 49.078125 51.53125 44.71875 
Q 48 40.375 41.703125 38.8125 
Q 48.828125 37.15625 52.796875 32.3125 
Q 56.78125 27.484375 56.78125 20.515625 
Q 56.78125 9.90625 50.3125 4.234375 
Q 43.84375 -1.421875 31.78125 -1.421875 
Q 19.734375 -1.421875 13.25 4.234375 
Q 6.78125 9.90625 6.78125 20.515625 
Q 6.78125 27.484375 10.78125 32.3125 
Q 14.796875 37.15625 21.921875 38.8125 
z
M 18.3125 54.390625 
Q 18.3125 48.734375 21.84375 45.5625 
Q 25.390625 42.390625 31.78125 42.390625 
Q 38.140625 42.390625 41.71875 45.5625 
Q 45.3125 48.734375 45.3125 54.390625 
Q 45.3125 60.0625 41.71875 63.234375 
Q 38.140625 66.40625 31.78125 66.40625 
Q 25.390625 66.40625 21.84375 63.234375 
Q 18.3125 60.0625 18.3125 54.390625 
z
" id="DejaVuSans-38"/>
      </defs>
      <g transform="translate(28.334375 152.934982)scale(0.1 -0.1)">
       <use xlink:href="#DejaVuSans-30"/>
       <use x="63.623047" xlink:href="#DejaVuSans-2e"/>
       <use x="95.410156" xlink:href="#DejaVuSans-33"/>
       <use x="159.033203" xlink:href="#DejaVuSans-38"/>
      </g>
     </g>
    </g>
    <g id="ytick_4">
     <g id="line2d_11">
      <g>
       <use style="stroke:#000000;stroke-width:0.8;" x="57.6" xlink:href="#mb55da06954" y="93.996505"/>
      </g>
     </g>
     <g id="text_12">
      <!-- 0.40 -->
      <g transform="translate(28.334375 97.795724)scale(0.1 -0.1)">
       <use xlink:href="#DejaVuSans-30"/>
       <use x="63.623047" xlink:href="#DejaVuSans-2e"/>
       <use x="95.410156" xlink:href="#DejaVuSans-34"/>
       <use x="159.033203" xlink:href="#DejaVuSans-30"/>
      </g>
     </g>
    </g>
   </g>
   <g id="line2d_12">
    <path clip-path="url(#pabac8ce094)" d="M 64.978512 165.861451 
L 65.331551 201.580561 
L 65.68459 220.482502 
L 66.037629 205.680615 
L 66.390668 181.983696 
L 66.743707 187.890552 
L 67.096746 192.199083 
L 67.449784 212.768843 
L 67.802823 196.507614 
L 68.155862 187.890552 
L 68.508901 215.687525 
L 68.86194 222.150321 
L 69.214979 213.950214 
L 69.568018 188.446492 
L 69.921057 197.202538 
L 70.274095 208.321327 
L 70.627134 219.301131 
L 70.980173 213.25529 
L 71.333212 201.372084 
L 71.686251 174.339528 
L 72.03929 160.65531 
L 72.392329 194.283856 
L 72.745368 196.368629 
L 73.098406 175.109736 
L 73.451445 160.163072 
L 73.804484 179.065013 
L 74.157523 174.825975 
L 74.510562 184.624408 
L 74.863601 188.932939 
L 75.21664 191.295681 
L 75.569679 203.526349 
L 75.922717 180.663339 
L 76.275756 184.902378 
L 76.628795 184.346438 
L 76.981834 195.604212 
L 77.334873 189.488878 
L 77.687912 162.010413 
L 78.040951 173.505619 
L 78.393989 161.274951 
L 78.747028 182.331158 
L 79.100067 186.153241 
L 79.453106 187.751567 
L 79.806145 164.720617 
L 80.159184 181.775218 
L 80.512223 185.736287 
L 80.865262 166.764853 
L 81.2183 177.327703 
L 81.571339 162.317337 
L 81.924378 163.359724 
L 82.277417 159.450775 
L 82.630456 178.648059 
L 82.983495 199.495788 
L 83.336534 182.261665 
L 83.689573 159.81561 
L 84.042611 195.951674 
L 84.39565 185.736287 
L 84.748689 181.497249 
L 85.101728 186.500704 
L 85.454767 185.110855 
L 85.807806 185.799988 
L 86.160845 196.299136 
L 86.513884 183.721006 
L 86.866922 162.178353 
L 87.219961 165.513989 
L 87.573 179.55146 
L 87.926039 187.751567 
L 88.279078 161.552921 
L 88.632117 158.396806 
L 88.985156 158.564746 
L 89.338194 164.68008 
L 89.691233 167.957806 
L 90.044272 187.056643 
L 90.397311 185.041363 
L 90.75035 165.930944 
L 91.103389 173.152366 
L 91.456428 164.610588 
L 91.809467 189.349893 
L 92.162505 211.378994 
L 92.515544 179.203998 
L 92.868583 161.107011 
L 93.221622 165.444497 
L 93.574661 175.173437 
L 93.9277 159.954595 
L 94.280739 158.773223 
L 94.633778 170.239475 
L 94.986816 158.356269 
L 95.339855 161.182294 
L 95.692894 154.534185 
L 96.045933 165.172318 
L 96.398972 174.409021 
L 96.752011 187.960045 
L 97.10505 216.660419 
L 97.458088 295.488 
L 97.811127 273.118055 
L 98.164166 201.580561 
L 98.517205 174.68699 
L 98.870244 181.219279 
L 99.223283 175.381915 
L 99.576322 146.200884 
L 99.929361 146.334078 
L 100.282399 174.96496 
L 100.635438 204.638228 
L 100.988477 183.929484 
L 101.341516 179.134506 
L 101.694555 173.992066 
L 102.047594 197.897462 
L 102.400633 185.805779 
L 102.753672 157.643971 
L 103.10671 127.530585 
L 103.459749 136.263467 
L 103.812788 174.200543 
L 104.165827 220.204533 
L 104.518866 195.326242 
L 104.871905 170.37846 
L 105.224944 152.82583 
L 105.577983 154.557349 
L 105.931021 165.097035 
L 106.28406 148.557836 
L 106.637099 149.739207 
L 106.990138 187.553018 
" style="fill:none;stroke:#0000ff;stroke-linecap:square;stroke-width:1.5;"/>
   </g>
   <g id="line2d_13">
    <path clip-path="url(#pabac8ce094)" d="M 107.343177 167.668255 
L 107.696216 214.506153 
L 108.049255 228.682609 
L 108.402293 249.436028 
L 108.755332 216.590926 
L 109.46141 199.704266 
L 110.167488 179.898923 
L 110.520527 202.97041 
L 110.873566 183.998976 
L 111.226604 194.909288 
L 111.579643 219.370624 
L 111.932682 219.926563 
L 112.285721 198.036447 
L 112.63876 183.304052 
L 112.991799 183.998976 
L 113.344838 183.234559 
L 114.050915 187.404105 
L 114.403954 199.704266 
L 114.756993 207.695895 
L 115.110032 197.688985 
L 115.81611 131.370041 
L 116.169149 158.547373 
L 116.522188 176.007346 
L 116.875226 171.768308 
L 117.228265 215.687525 
L 117.581304 221.624164 
L 117.934343 188.724461 
L 118.287382 192.9635 
L 118.640421 207.348433 
L 118.99346 205.54163 
L 119.346498 166.486883 
L 119.699537 180.663339 
L 120.052576 177.119225 
L 120.405615 218.467222 
L 120.758654 228.270619 
L 121.111693 179.481968 
L 121.464732 163.666649 
L 121.817771 142.662562 
L 122.170809 133.779112 
L 122.876887 216.451941 
L 123.229926 203.039902 
L 123.582965 210.475592 
L 124.289043 174.68699 
L 124.642082 178.497492 
L 124.99512 172.741202 
L 125.348159 162.010413 
L 125.701198 163.776679 
L 126.054237 149.58864 
L 126.407276 160.232565 
L 126.760315 159.676625 
L 127.113354 129.713805 
L 127.466393 153.126963 
L 127.819431 150.225654 
L 128.17247 138.747821 
L 128.525509 155.987735 
L 128.878548 155.020632 
L 129.231587 181.010802 
L 129.584626 156.410481 
L 129.937665 140.629908 
L 130.290703 137.091585 
L 130.643742 139.80179 
L 130.996781 133.252128 
L 131.34982 140.855758 
L 131.702859 157.643971 
L 132.408937 132.499293 
L 132.761976 154.534185 
L 133.115014 146.125601 
L 133.468053 152.518905 
L 134.174131 192.129591 
L 134.52717 162.989098 
L 134.880209 181.636233 
L 135.233248 157.192271 
L 135.586287 171.212369 
L 135.939325 153.213829 
L 136.292364 168.108373 
L 136.645403 201.441576 
L 136.998442 163.846171 
L 137.351481 156.896928 
L 137.70452 147.706554 
L 138.057559 152.976397 
L 138.763636 200.260205 
L 139.116675 199.009341 
L 139.469714 191.365174 
L 139.822753 206.514524 
L 140.175792 181.566741 
L 140.88187 152.449412 
L 141.234908 178.856536 
L 141.587947 192.338068 
L 141.940986 189.697355 
L 142.294025 199.565281 
L 142.647064 184.6939 
L 143.000103 185.944764 
L 143.353142 193.102485 
L 143.706181 178.300597 
L 144.059219 158.396806 
L 144.412258 157.869822 
L 144.765297 179.134506 
L 145.118336 163.290232 
L 145.471375 175.63672 
L 145.824414 148.766313 
L 146.177453 150.943743 
L 146.530492 168.224194 
L 146.88353 142.813128 
L 147.236569 162.734292 
L 147.589608 169.475058 
L 147.942647 187.54309 
L 148.295686 196.716091 
L 148.648725 199.634773 
L 149.001764 188.863446 
L 149.354802 193.102485 
L 149.707841 219.718086 
L 150.06088 171.281861 
L 150.766958 225.83342 
L 151.119997 227.23816 
L 151.473036 194.353348 
L 151.826075 182.95659 
L 152.179113 198.383909 
L 152.532152 118.872986 
L 152.885191 141.400116 
L 153.23823 152.82583 
L 153.944308 119.701104 
L 154.297347 151.696578 
L 154.650386 118.120151 
L 155.003424 159.468148 
L 155.356463 170.030997 
L 155.709502 172.810695 
L 156.062541 162.6648 
L 156.41558 191.156696 
L 156.768619 179.412476 
L 157.121658 191.504159 
L 157.474697 126.928317 
L 157.827735 125.121514 
L 158.180774 144.318798 
L 159.239891 117.367317 
L 159.59293 148.007688 
L 159.945969 150.190908 
L 160.299007 144.66626 
L 160.652046 144.394081 
L 161.005085 141.156892 
L 161.358124 127.831718 
L 161.711163 131.520608 
L 162.064202 125.799065 
L 162.417241 98.471166 
L 162.77028 101.783639 
L 163.123318 148.308822 
L 163.476357 133.779112 
L 163.829396 108.709718 
L 164.182435 129.337388 
L 164.888513 262.664408 
L 165.594591 240.272954 
L 166.300668 134.607231 
L 166.653707 111.419923 
L 167.006746 124.067545 
L 167.359785 107.204048 
L 167.712824 106.827631 
L 168.065863 99.374568 
L 168.418901 112.699742 
L 168.77194 87.47978 
L 169.124979 120.453939 
L 169.478018 109.462552 
L 169.831057 109.83897 
L 170.184096 98.7723 
L 170.537135 120.830356 
L 170.890174 134.15553 
L 171.243212 125.347364 
L 171.94929 98.697017 
L 172.302329 95.459828 
L 172.655368 151.059564 
L 173.008407 127.756435 
L 173.361446 128.810404 
L 173.714485 118.346002 
L 174.773601 151.847145 
L 175.12664 134.004963 
L 175.479679 104.945544 
L 175.832718 101.407221 
L 176.185757 143.264829 
L 176.538796 121.658474 
L 176.891834 115.184096 
L 177.244873 90.415835 
L 177.597912 124.368679 
L 177.950951 117.4426 
L 178.30399 107.731033 
L 178.657029 87.028079 
L 179.010068 77.090662 
L 179.363106 124.82038 
L 179.716145 78.972748 
L 180.069184 87.931481 
L 180.422223 76.399422 
L 180.775262 94.932843 
L 181.128301 99.374568 
L 181.48134 117.517883 
L 181.834379 165.930944 
L 182.187417 250.081314 
L 182.540456 244.531847 
L 182.893495 114.506545 
L 183.246534 109.311986 
L 183.599573 115.71108 
L 183.952612 103.364592 
L 184.305651 121.13149 
L 184.65869 80.403134 
L 185.011728 76.714244 
L 185.364767 68.761572 
L 185.717806 80.478418 
L 186.070845 116.990899 
L 186.423884 90.867536 
L 186.776923 80.779551 
L 187.129962 60.548831 
L 187.483001 73.100638 
L 187.836039 105.472529 
L 188.189078 100.127403 
L 188.542117 74.45574 
L 188.895156 91.093386 
L 189.248195 114.506545 
L 189.601234 117.141466 
L 189.954273 95.610394 
L 190.307311 62.355634 
L 191.013389 113.52786 
L 191.366428 86.090458 
L 191.719467 99.374568 
L 192.072506 94.255292 
L 192.425545 72.121953 
L 192.778584 58.167135 
L 193.131622 93.954158 
L 193.484661 93.276607 
L 193.8377 66.325126 
L 194.190739 53.568 
L 194.543778 73.9356 
L 194.896817 104.117426 
L 195.602895 59.234792 
L 195.955933 88.082048 
L 196.308972 97.643048 
L 196.662011 64.573074 
L 197.01505 95.685678 
L 197.368089 104.644411 
L 197.721128 95.384544 
L 198.427206 93.577741 
L 198.780244 103.590442 
L 199.133283 77.843496 
L 199.486322 74.428364 
L 199.839361 121.206773 
L 200.1924 130.918341 
L 200.545439 86.576378 
L 200.898478 99.148717 
L 201.251516 94.706993 
L 201.604555 86.802229 
L 201.957594 110.968222 
L 202.310633 111.344639 
L 202.663672 154.933767 
L 203.016711 166.97333 
L 203.36975 230.593651 
L 203.722789 239.801398 
L 204.075827 197.063553 
L 204.428866 233.884614 
L 204.781905 226.180882 
L 205.134944 201.024622 
L 205.487983 188.585477 
L 205.841022 199.634773 
L 206.194061 168.710641 
L 206.5471 217.772298 
L 206.900138 250.403958 
L 207.253177 244.015618 
L 207.606216 240.208425 
L 207.959255 211.795949 
L 208.312294 244.854491 
L 209.018372 236.401233 
L 209.724449 203.526349 
L 210.077488 193.380454 
L 210.783566 275.118445 
L 211.136605 294.283465 
L 211.489644 230.464594 
L 212.54876 163.290232 
L 212.54876 163.290232 
" style="fill:none;stroke:#ff0000;stroke-linecap:square;stroke-width:1.5;"/>
   </g>
   <g id="patch_3">
    <path d="M 57.6 307.584 
L 57.6 41.472 
" style="fill:none;stroke:#000000;stroke-linecap:square;stroke-linejoin:miter;stroke-width:0.8;"/>
   </g>
   <g id="patch_4">
    <path d="M 219.927273 307.584 
L 219.927273 41.472 
" style="fill:none;stroke:#000000;stroke-linecap:square;stroke-linejoin:miter;stroke-width:0.8;"/>
   </g>
   <g id="patch_5">
    <path d="M 57.6 307.584 
L 219.927273 307.584 
" style="fill:none;stroke:#000000;stroke-linecap:square;stroke-linejoin:miter;stroke-width:0.8;"/>
   </g>
   <g id="patch_6">
    <path d="M 57.6 41.472 
L 219.927273 41.472 
" style="fill:none;stroke:#000000;stroke-linecap:square;stroke-linejoin:miter;stroke-width:0.8;"/>
   </g>
   <g id="text_13">
    <!-- IBI - Reg vs Stress -->
    <defs>
     <path d="M 9.8125 72.90625 
L 19.671875 72.90625 
L 19.671875 0 
L 9.8125 0 
z
" id="DejaVuSans-49"/>
     <path d="M 19.671875 34.8125 
L 19.671875 8.109375 
L 35.5 8.109375 
Q 43.453125 8.109375 47.28125 11.40625 
Q 51.125 14.703125 51.125 21.484375 
Q 51.125 28.328125 47.28125 31.5625 
Q 43.453125 34.8125 35.5 34.8125 
z
M 19.671875 64.796875 
L 19.671875 42.828125 
L 34.28125 42.828125 
Q 41.5 42.828125 45.03125 45.53125 
Q 48.578125 48.25 48.578125 53.8125 
Q 48.578125 59.328125 45.03125 62.0625 
Q 41.5 64.796875 34.28125 64.796875 
z
M 9.8125 72.90625 
L 35.015625 72.90625 
Q 46.296875 72.90625 52.390625 68.21875 
Q 58.5 63.53125 58.5 54.890625 
Q 58.5 48.1875 55.375 44.234375 
Q 52.25 40.28125 46.1875 39.3125 
Q 53.46875 37.75 57.5 32.78125 
Q 61.53125 27.828125 61.53125 20.40625 
Q 61.53125 10.640625 54.890625 5.3125 
Q 48.25 0 35.984375 0 
L 9.8125 0 
z
" id="DejaVuSans-42"/>
     <path id="DejaVuSans-20"/>
     <path d="M 4.890625 31.390625 
L 31.203125 31.390625 
L 31.203125 23.390625 
L 4.890625 23.390625 
z
" id="DejaVuSans-2d"/>
     <path d="M 44.390625 34.1875 
Q 47.5625 33.109375 50.5625 29.59375 
Q 53.5625 26.078125 56.59375 19.921875 
L 66.609375 0 
L 56 0 
L 46.6875 18.703125 
Q 43.0625 26.03125 39.671875 28.421875 
Q 36.28125 30.8125 30.421875 30.8125 
L 19.671875 30.8125 
L 19.671875 0 
L 9.8125 0 
L 9.8125 72.90625 
L 32.078125 72.90625 
Q 44.578125 72.90625 50.734375 67.671875 
Q 56.890625 62.453125 56.890625 51.90625 
Q 56.890625 45.015625 53.6875 40.46875 
Q 50.484375 35.9375 44.390625 34.1875 
z
M 19.671875 64.796875 
L 19.671875 38.921875 
L 32.078125 38.921875 
Q 39.203125 38.921875 42.84375 42.21875 
Q 46.484375 45.515625 46.484375 51.90625 
Q 46.484375 58.296875 42.84375 61.546875 
Q 39.203125 64.796875 32.078125 64.796875 
z
" id="DejaVuSans-52"/>
     <path d="M 45.40625 27.984375 
Q 45.40625 37.75 41.375 43.109375 
Q 37.359375 48.484375 30.078125 48.484375 
Q 22.859375 48.484375 18.828125 43.109375 
Q 14.796875 37.75 14.796875 27.984375 
Q 14.796875 18.265625 18.828125 12.890625 
Q 22.859375 7.515625 30.078125 7.515625 
Q 37.359375 7.515625 41.375 12.890625 
Q 45.40625 18.265625 45.40625 27.984375 
z
M 54.390625 6.78125 
Q 54.390625 -7.171875 48.1875 -13.984375 
Q 42 -20.796875 29.203125 -20.796875 
Q 24.46875 -20.796875 20.265625 -20.09375 
Q 16.0625 -19.390625 12.109375 -17.921875 
L 12.109375 -9.1875 
Q 16.0625 -11.328125 19.921875 -12.34375 
Q 23.78125 -13.375 27.78125 -13.375 
Q 36.625 -13.375 41.015625 -8.765625 
Q 45.40625 -4.15625 45.40625 5.171875 
L 45.40625 9.625 
Q 42.625 4.78125 38.28125 2.390625 
Q 33.9375 0 27.875 0 
Q 17.828125 0 11.671875 7.65625 
Q 5.515625 15.328125 5.515625 27.984375 
Q 5.515625 40.671875 11.671875 48.328125 
Q 17.828125 56 27.875 56 
Q 33.9375 56 38.28125 53.609375 
Q 42.625 51.21875 45.40625 46.390625 
L 45.40625 54.6875 
L 54.390625 54.6875 
z
" id="DejaVuSans-67"/>
     <path d="M 2.984375 54.6875 
L 12.5 54.6875 
L 29.59375 8.796875 
L 46.6875 54.6875 
L 56.203125 54.6875 
L 35.6875 0 
L 23.484375 0 
z
" id="DejaVuSans-76"/>
     <path d="M 53.515625 70.515625 
L 53.515625 60.890625 
Q 47.90625 63.578125 42.921875 64.890625 
Q 37.9375 66.21875 33.296875 66.21875 
Q 25.25 66.21875 20.875 63.09375 
Q 16.5 59.96875 16.5 54.203125 
Q 16.5 49.359375 19.40625 46.890625 
Q 22.3125 44.4375 30.421875 42.921875 
L 36.375 41.703125 
Q 47.40625 39.59375 52.65625 34.296875 
Q 57.90625 29 57.90625 20.125 
Q 57.90625 9.515625 50.796875 4.046875 
Q 43.703125 -1.421875 29.984375 -1.421875 
Q 24.8125 -1.421875 18.96875 -0.25 
Q 13.140625 0.921875 6.890625 3.21875 
L 6.890625 13.375 
Q 12.890625 10.015625 18.65625 8.296875 
Q 24.421875 6.59375 29.984375 6.59375 
Q 38.421875 6.59375 43.015625 9.90625 
Q 47.609375 13.234375 47.609375 19.390625 
Q 47.609375 24.75 44.3125 27.78125 
Q 41.015625 30.8125 33.5 32.328125 
L 27.484375 33.5 
Q 16.453125 35.6875 11.515625 40.375 
Q 6.59375 45.0625 6.59375 53.421875 
Q 6.59375 63.09375 13.40625 68.65625 
Q 20.21875 74.21875 32.171875 74.21875 
Q 37.3125 74.21875 42.625 73.28125 
Q 47.953125 72.359375 53.515625 70.515625 
z
" id="DejaVuSans-53"/>
     <path d="M 41.109375 46.296875 
Q 39.59375 47.171875 37.8125 47.578125 
Q 36.03125 48 33.890625 48 
Q 26.265625 48 22.1875 43.046875 
Q 18.109375 38.09375 18.109375 28.8125 
L 18.109375 0 
L 9.078125 0 
L 9.078125 54.6875 
L 18.109375 54.6875 
L 18.109375 46.1875 
Q 20.953125 51.171875 25.484375 53.578125 
Q 30.03125 56 36.53125 56 
Q 37.453125 56 38.578125 55.875 
Q 39.703125 55.765625 41.0625 55.515625 
z
" id="DejaVuSans-72"/>
    </defs>
    <g transform="translate(84.402699 35.472)scale(0.12 -0.12)">
     <use xlink:href="#DejaVuSans-49"/>
     <use x="29.492188" xlink:href="#DejaVuSans-42"/>
     <use x="98.095703" xlink:href="#DejaVuSans-49"/>
     <use x="127.587891" xlink:href="#DejaVuSans-20"/>
     <use x="159.375" xlink:href="#DejaVuSans-2d"/>
     <use x="195.458984" xlink:href="#DejaVuSans-20"/>
     <use x="227.246094" xlink:href="#DejaVuSans-52"/>
     <use x="296.666016" xlink:href="#DejaVuSans-65"/>
     <use x="358.189453" xlink:href="#DejaVuSans-67"/>
     <use x="421.666016" xlink:href="#DejaVuSans-20"/>
     <use x="453.453125" xlink:href="#DejaVuSans-76"/>
     <use x="512.632812" xlink:href="#DejaVuSans-73"/>
     <use x="564.732422" xlink:href="#DejaVuSans-20"/>
     <use x="596.519531" xlink:href="#DejaVuSans-53"/>
     <use x="659.996094" xlink:href="#DejaVuSans-74"/>
     <use x="699.205078" xlink:href="#DejaVuSans-72"/>
     <use x="740.287109" xlink:href="#DejaVuSans-65"/>
     <use x="801.810547" xlink:href="#DejaVuSans-73"/>
     <use x="853.910156" xlink:href="#DejaVuSans-73"/>
    </g>
   </g>
   <g id="legend_1">
    <g id="patch_7">
     <path d="M 64.6 78.82825 
L 127.548437 78.82825 
Q 129.548437 78.82825 129.548437 76.82825 
L 129.548437 48.472 
Q 129.548437 46.472 127.548437 46.472 
L 64.6 46.472 
Q 62.6 46.472 62.6 48.472 
L 62.6 76.82825 
Q 62.6 78.82825 64.6 78.82825 
z
" style="fill:#ffffff;opacity:0.8;stroke:#cccccc;stroke-linejoin:miter;"/>
    </g>
    <g id="line2d_14">
     <path d="M 66.6 54.570437 
L 86.6 54.570437 
" style="fill:none;stroke:#0000ff;stroke-linecap:square;stroke-width:1.5;"/>
    </g>
    <g id="line2d_15"/>
    <g id="text_14">
     <!-- Reg -->
     <g transform="translate(94.6 58.070437)scale(0.1 -0.1)">
      <use xlink:href="#DejaVuSans-52"/>
      <use x="69.419922" xlink:href="#DejaVuSans-65"/>
      <use x="130.943359" xlink:href="#DejaVuSans-67"/>
     </g>
    </g>
    <g id="line2d_16">
     <path d="M 66.6 69.248562 
L 86.6 69.248562 
" style="fill:none;stroke:#ff0000;stroke-linecap:square;stroke-width:1.5;"/>
    </g>
    <g id="line2d_17"/>
    <g id="text_15">
     <!-- Stress -->
     <g transform="translate(94.6 72.748562)scale(0.1 -0.1)">
      <use xlink:href="#DejaVuSans-53"/>
      <use x="63.476562" xlink:href="#DejaVuSans-74"/>
      <use x="102.685547" xlink:href="#DejaVuSans-72"/>
      <use x="143.767578" xlink:href="#DejaVuSans-65"/>
      <use x="205.291016" xlink:href="#DejaVuSans-73"/>
      <use x="257.390625" xlink:href="#DejaVuSans-73"/>
     </g>
    </g>
   </g>
  </g>
  <g id="axes_2">
   <g id="patch_8">
    <path d="M 252.392727 307.584 
L 414.72 307.584 
L 414.72 41.472 
L 252.392727 41.472 
z
" style="fill:#ffffff;"/>
   </g>
   <g id="matplotlib.axis_3">
    <g id="xtick_8">
     <g id="line2d_18">
      <g>
       <use style="stroke:#000000;stroke-width:0.8;" x="259.77124" xlink:href="#m3aff7a8ff6" y="307.584"/>
      </g>
     </g>
     <g id="text_16">
      <!-- 0.0 -->
      <g transform="translate(251.819677 322.182437)scale(0.1 -0.1)">
       <use xlink:href="#DejaVuSans-30"/>
       <use x="63.623047" xlink:href="#DejaVuSans-2e"/>
       <use x="95.410156" xlink:href="#DejaVuSans-30"/>
      </g>
     </g>
    </g>
    <g id="xtick_9">
     <g id="line2d_19">
      <g>
       <use style="stroke:#000000;stroke-width:0.8;" x="280.953572" xlink:href="#m3aff7a8ff6" y="307.584"/>
      </g>
     </g>
     <g id="text_17">
      <!-- 5.0 -->
      <g transform="translate(273.002009 322.182437)scale(0.1 -0.1)">
       <use xlink:href="#DejaVuSans-35"/>
       <use x="63.623047" xlink:href="#DejaVuSans-2e"/>
       <use x="95.410156" xlink:href="#DejaVuSans-30"/>
      </g>
     </g>
    </g>
    <g id="xtick_10">
     <g id="line2d_20">
      <g>
       <use style="stroke:#000000;stroke-width:0.8;" x="302.135904" xlink:href="#m3aff7a8ff6" y="307.584"/>
      </g>
     </g>
     <g id="text_18">
      <!-- 10.0 -->
      <g transform="translate(291.003092 322.182437)scale(0.1 -0.1)">
       <use xlink:href="#DejaVuSans-31"/>
       <use x="63.623047" xlink:href="#DejaVuSans-30"/>
       <use x="127.246094" xlink:href="#DejaVuSans-2e"/>
       <use x="159.033203" xlink:href="#DejaVuSans-30"/>
      </g>
     </g>
    </g>
    <g id="xtick_11">
     <g id="line2d_21">
      <g>
       <use style="stroke:#000000;stroke-width:0.8;" x="323.318236" xlink:href="#m3aff7a8ff6" y="307.584"/>
      </g>
     </g>
     <g id="text_19">
      <!-- 15.0 -->
      <g transform="translate(312.185424 322.182437)scale(0.1 -0.1)">
       <use xlink:href="#DejaVuSans-31"/>
       <use x="63.623047" xlink:href="#DejaVuSans-35"/>
       <use x="127.246094" xlink:href="#DejaVuSans-2e"/>
       <use x="159.033203" xlink:href="#DejaVuSans-30"/>
      </g>
     </g>
    </g>
    <g id="xtick_12">
     <g id="line2d_22">
      <g>
       <use style="stroke:#000000;stroke-width:0.8;" x="344.500569" xlink:href="#m3aff7a8ff6" y="307.584"/>
      </g>
     </g>
     <g id="text_20">
      <!-- 20.0 -->
      <g transform="translate(333.367756 322.182437)scale(0.1 -0.1)">
       <use xlink:href="#DejaVuSans-32"/>
       <use x="63.623047" xlink:href="#DejaVuSans-30"/>
       <use x="127.246094" xlink:href="#DejaVuSans-2e"/>
       <use x="159.033203" xlink:href="#DejaVuSans-30"/>
      </g>
     </g>
    </g>
    <g id="xtick_13">
     <g id="line2d_23">
      <g>
       <use style="stroke:#000000;stroke-width:0.8;" x="365.682901" xlink:href="#m3aff7a8ff6" y="307.584"/>
      </g>
     </g>
     <g id="text_21">
      <!-- 25.0 -->
      <g transform="translate(354.550088 322.182437)scale(0.1 -0.1)">
       <use xlink:href="#DejaVuSans-32"/>
       <use x="63.623047" xlink:href="#DejaVuSans-35"/>
       <use x="127.246094" xlink:href="#DejaVuSans-2e"/>
       <use x="159.033203" xlink:href="#DejaVuSans-30"/>
      </g>
     </g>
    </g>
    <g id="xtick_14">
     <g id="line2d_24">
      <g>
       <use style="stroke:#000000;stroke-width:0.8;" x="386.865233" xlink:href="#m3aff7a8ff6" y="307.584"/>
      </g>
     </g>
     <g id="text_22">
      <!-- 30.0 -->
      <g transform="translate(375.732421 322.182437)scale(0.1 -0.1)">
       <use xlink:href="#DejaVuSans-33"/>
       <use x="63.623047" xlink:href="#DejaVuSans-30"/>
       <use x="127.246094" xlink:href="#DejaVuSans-2e"/>
       <use x="159.033203" xlink:href="#DejaVuSans-30"/>
      </g>
     </g>
    </g>
    <g id="text_23">
     <!-- Minutes -->
     <g transform="translate(313.874332 335.860562)scale(0.1 -0.1)">
      <use xlink:href="#DejaVuSans-4d"/>
      <use x="86.279297" xlink:href="#DejaVuSans-69"/>
      <use x="114.0625" xlink:href="#DejaVuSans-6e"/>
      <use x="177.441406" xlink:href="#DejaVuSans-75"/>
      <use x="240.820312" xlink:href="#DejaVuSans-74"/>
      <use x="280.029297" xlink:href="#DejaVuSans-65"/>
      <use x="341.552734" xlink:href="#DejaVuSans-73"/>
     </g>
    </g>
   </g>
   <g id="matplotlib.axis_4">
    <g id="ytick_5">
     <g id="line2d_25">
      <g>
       <use style="stroke:#000000;stroke-width:0.8;" x="252.392727" xlink:href="#mb55da06954" y="307.584"/>
      </g>
     </g>
     <g id="text_24">
      <!-- 1.00 -->
      <g transform="translate(223.127102 311.383219)scale(0.1 -0.1)">
       <use xlink:href="#DejaVuSans-31"/>
       <use x="63.623047" xlink:href="#DejaVuSans-2e"/>
       <use x="95.410156" xlink:href="#DejaVuSans-30"/>
       <use x="159.033203" xlink:href="#DejaVuSans-30"/>
      </g>
     </g>
    </g>
    <g id="ytick_6">
     <g id="line2d_26">
      <g>
       <use style="stroke:#000000;stroke-width:0.8;" x="252.392727" xlink:href="#mb55da06954" y="274.32"/>
      </g>
     </g>
     <g id="text_25">
      <!-- 1.25 -->
      <g transform="translate(223.127102 278.119219)scale(0.1 -0.1)">
       <use xlink:href="#DejaVuSans-31"/>
       <use x="63.623047" xlink:href="#DejaVuSans-2e"/>
       <use x="95.410156" xlink:href="#DejaVuSans-32"/>
       <use x="159.033203" xlink:href="#DejaVuSans-35"/>
      </g>
     </g>
    </g>
    <g id="ytick_7">
     <g id="line2d_27">
      <g>
       <use style="stroke:#000000;stroke-width:0.8;" x="252.392727" xlink:href="#mb55da06954" y="241.056"/>
      </g>
     </g>
     <g id="text_26">
      <!-- 1.50 -->
      <g transform="translate(223.127102 244.855219)scale(0.1 -0.1)">
       <use xlink:href="#DejaVuSans-31"/>
       <use x="63.623047" xlink:href="#DejaVuSans-2e"/>
       <use x="95.410156" xlink:href="#DejaVuSans-35"/>
       <use x="159.033203" xlink:href="#DejaVuSans-30"/>
      </g>
     </g>
    </g>
    <g id="ytick_8">
     <g id="line2d_28">
      <g>
       <use style="stroke:#000000;stroke-width:0.8;" x="252.392727" xlink:href="#mb55da06954" y="207.792"/>
      </g>
     </g>
     <g id="text_27">
      <!-- 1.75 -->
      <defs>
       <path d="M 8.203125 72.90625 
L 55.078125 72.90625 
L 55.078125 68.703125 
L 28.609375 0 
L 18.3125 0 
L 43.21875 64.59375 
L 8.203125 64.59375 
z
" id="DejaVuSans-37"/>
      </defs>
      <g transform="translate(223.127102 211.591219)scale(0.1 -0.1)">
       <use xlink:href="#DejaVuSans-31"/>
       <use x="63.623047" xlink:href="#DejaVuSans-2e"/>
       <use x="95.410156" xlink:href="#DejaVuSans-37"/>
       <use x="159.033203" xlink:href="#DejaVuSans-35"/>
      </g>
     </g>
    </g>
    <g id="ytick_9">
     <g id="line2d_29">
      <g>
       <use style="stroke:#000000;stroke-width:0.8;" x="252.392727" xlink:href="#mb55da06954" y="174.528"/>
      </g>
     </g>
     <g id="text_28">
      <!-- 2.00 -->
      <g transform="translate(223.127102 178.327219)scale(0.1 -0.1)">
       <use xlink:href="#DejaVuSans-32"/>
       <use x="63.623047" xlink:href="#DejaVuSans-2e"/>
       <use x="95.410156" xlink:href="#DejaVuSans-30"/>
       <use x="159.033203" xlink:href="#DejaVuSans-30"/>
      </g>
     </g>
    </g>
    <g id="ytick_10">
     <g id="line2d_30">
      <g>
       <use style="stroke:#000000;stroke-width:0.8;" x="252.392727" xlink:href="#mb55da06954" y="141.264"/>
      </g>
     </g>
     <g id="text_29">
      <!-- 2.25 -->
      <g transform="translate(223.127102 145.063219)scale(0.1 -0.1)">
       <use xlink:href="#DejaVuSans-32"/>
       <use x="63.623047" xlink:href="#DejaVuSans-2e"/>
       <use x="95.410156" xlink:href="#DejaVuSans-32"/>
       <use x="159.033203" xlink:href="#DejaVuSans-35"/>
      </g>
     </g>
    </g>
    <g id="ytick_11">
     <g id="line2d_31">
      <g>
       <use style="stroke:#000000;stroke-width:0.8;" x="252.392727" xlink:href="#mb55da06954" y="108"/>
      </g>
     </g>
     <g id="text_30">
      <!-- 2.50 -->
      <g transform="translate(223.127102 111.799219)scale(0.1 -0.1)">
       <use xlink:href="#DejaVuSans-32"/>
       <use x="63.623047" xlink:href="#DejaVuSans-2e"/>
       <use x="95.410156" xlink:href="#DejaVuSans-35"/>
       <use x="159.033203" xlink:href="#DejaVuSans-30"/>
      </g>
     </g>
    </g>
    <g id="ytick_12">
     <g id="line2d_32">
      <g>
       <use style="stroke:#000000;stroke-width:0.8;" x="252.392727" xlink:href="#mb55da06954" y="74.736"/>
      </g>
     </g>
     <g id="text_31">
      <!-- 2.75 -->
      <g transform="translate(223.127102 78.535219)scale(0.1 -0.1)">
       <use xlink:href="#DejaVuSans-32"/>
       <use x="63.623047" xlink:href="#DejaVuSans-2e"/>
       <use x="95.410156" xlink:href="#DejaVuSans-37"/>
       <use x="159.033203" xlink:href="#DejaVuSans-35"/>
      </g>
     </g>
    </g>
    <g id="ytick_13">
     <g id="line2d_33">
      <g>
       <use style="stroke:#000000;stroke-width:0.8;" x="252.392727" xlink:href="#mb55da06954" y="41.472"/>
      </g>
     </g>
     <g id="text_32">
      <!-- 3.00 -->
      <g transform="translate(223.127102 45.271219)scale(0.1 -0.1)">
       <use xlink:href="#DejaVuSans-33"/>
       <use x="63.623047" xlink:href="#DejaVuSans-2e"/>
       <use x="95.410156" xlink:href="#DejaVuSans-30"/>
       <use x="159.033203" xlink:href="#DejaVuSans-30"/>
      </g>
     </g>
    </g>
   </g>
   <g id="line2d_34">
    <path clip-path="url(#p29b229e41d)" d="M 259.77124 170.939836 
L 260.124279 146.204871 
L 260.477317 170.063277 
L 260.830356 211.896459 
L 261.183395 225.805841 
L 261.536434 165.75557 
L 261.889473 205.535282 
L 262.242512 174.046665 
L 262.595551 208.227399 
L 262.94859 167.795594 
L 263.301628 159.300002 
L 263.654667 172.779091 
L 264.007706 218.229544 
L 264.360745 196.473335 
L 264.713784 159.520206 
L 265.066823 185.908831 
L 265.419862 177.58685 
L 265.7729 190.012441 
L 266.125939 172.506031 
L 266.478978 184.508121 
L 266.832017 224.239245 
L 267.185056 183.356772 
L 267.538095 173.423197 
L 267.891134 182.883745 
L 268.244173 197.333652 
L 268.597211 168.088091 
L 268.95025 170.30332 
L 269.303289 171.977488 
L 269.656328 179.151181 
L 270.009367 190.243562 
L 270.362406 235.324839 
L 270.715445 182.868036 
L 271.068484 244.790719 
L 271.421522 204.188492 
L 271.774561 167.581114 
L 272.1276 179.691308 
L 272.480639 160.735194 
L 272.833678 158.067041 
L 273.186717 202.190274 
L 273.539756 196.625109 
L 273.892794 169.4233 
L 274.245833 208.540133 
L 274.598872 184.748696 
L 274.951911 196.504621 
L 275.30495 182.873227 
L 275.657989 185.309059 
L 276.011028 166.448138 
L 276.364067 188.647677 
L 276.717105 197.332719 
L 277.070144 179.72233 
L 277.423183 170.088572 
L 277.776222 236.63888 
L 278.129261 177.557559 
L 278.4823 184.870912 
L 278.835339 197.078832 
L 279.188378 205.801286 
L 279.541416 204.821813 
L 279.894455 266.891616 
L 280.247494 179.106715 
L 280.600533 195.907779 
L 280.953572 156.126868 
L 281.306611 180.587438 
L 281.65965 190.213741 
L 282.012689 180.77649 
L 282.365727 190.33476 
L 282.718766 155.820393 
L 283.071805 173.331865 
L 283.424844 169.130536 
L 283.777883 152.882242 
L 284.130922 222.055304 
L 284.483961 179.682255 
L 284.836999 187.372515 
L 285.190038 181.532428 
L 285.543077 219.821303 
L 285.896116 228.211718 
L 286.249155 178.388585 
L 286.602194 224.079084 
L 286.955233 168.125237 
L 287.308272 205.490683 
L 287.66131 172.17972 
L 288.014349 159.481064 
L 288.367388 256.462773 
L 288.720427 210.906203 
L 289.073466 174.574011 
L 289.426505 209.012495 
L 289.779544 181.633477 
L 290.132583 174.287107 
L 290.485621 187.182663 
L 290.83866 189.932826 
L 291.191699 161.181194 
L 291.544738 213.522034 
L 291.897777 175.31078 
L 292.250816 175.844383 
L 292.603855 181.193068 
L 292.956894 287.722537 
L 293.309932 180.879669 
L 293.662971 172.748203 
L 294.01601 187.115563 
L 294.369049 211.228654 
L 294.722088 188.682292 
L 295.075127 195.715132 
L 295.428166 179.957577 
L 295.781204 171.882695 
L 296.134243 247.44436 
L 296.487282 183.711576 
L 296.840321 208.894671 
L 297.19336 184.685855 
L 297.546399 166.677129 
L 297.899438 170.99615 
L 298.252477 181.911063 
L 298.605515 200.045872 
L 298.958554 172.946309 
L 299.311593 199.737532 
L 299.664632 192.107447 
L 300.017671 181.070051 
L 300.37071 255.902542 
L 300.723749 182.34761 
L 301.076788 211.187782 
L 301.429826 203.914767 
L 301.782865 172.485261 
" style="fill:none;stroke:#0000ff;stroke-linecap:square;stroke-width:1.5;"/>
   </g>
   <g id="line2d_35">
    <path clip-path="url(#p29b229e41d)" d="M 302.135904 151.308056 
L 302.488943 151.876808 
L 302.841982 171.37998 
L 303.195021 171.02797 
L 303.54806 177.166943 
L 303.901099 202.481173 
L 304.607176 157.38659 
L 304.960215 211.706476 
L 305.313254 168.580423 
L 305.666293 189.13282 
L 306.019332 185.832812 
L 306.372371 257.079053 
L 306.725409 181.163378 
L 307.078448 188.603343 
L 307.431487 223.14541 
L 307.784526 209.649146 
L 308.137565 269.452461 
L 308.490604 182.387286 
L 308.843643 183.64887 
L 309.196682 160.343777 
L 309.54972 192.939141 
L 309.902759 175.52566 
L 310.255798 223.032911 
L 310.608837 217.095902 
L 310.961876 184.442085 
L 311.314915 220.401238 
L 311.667954 208.122356 
L 312.020993 228.341392 
L 312.374031 182.682177 
L 312.72707 234.330989 
L 313.786187 190.935464 
L 314.139226 210.609845 
L 314.492265 177.992644 
L 314.845303 222.225849 
L 315.198342 189.82086 
L 315.551381 188.901033 
L 315.90442 191.578371 
L 316.257459 205.750029 
L 316.610498 214.185445 
L 316.963537 201.60661 
L 317.316576 166.772056 
L 317.669614 193.282894 
L 318.022653 176.612304 
L 318.375692 203.916098 
L 318.728731 279.093677 
L 319.08177 219.748478 
L 319.434809 195.722321 
L 319.787848 187.183595 
L 320.140887 219.319385 
L 320.493925 207.064734 
L 320.846964 229.680594 
L 321.200003 206.854248 
L 321.553042 221.352885 
L 321.906081 217.178046 
L 322.25912 190.476948 
L 322.612159 192.137004 
L 322.965198 182.511767 
L 323.318236 206.788347 
L 323.671275 182.820372 
L 324.024314 226.301235 
L 324.377353 189.730596 
L 324.730392 208.991858 
L 325.083431 187.69137 
L 325.43647 210.721812 
L 325.789508 214.30207 
L 326.142547 178.628096 
L 326.495586 201.879669 
L 326.848625 185.347401 
L 327.201664 223.778199 
L 327.554703 213.39529 
L 327.907742 170.131443 
L 328.260781 214.49698 
L 328.613819 172.08293 
L 328.966858 174.330243 
L 329.319897 214.95017 
L 329.672936 195.108438 
L 330.025975 184.299499 
L 330.379014 183.962003 
L 330.732053 199.769617 
L 331.085092 190.900182 
L 331.43813 246.73129 
L 331.791169 200.140663 
L 332.144208 199.300451 
L 332.497247 173.335993 
L 332.850286 243.738023 
L 333.203325 195.421171 
L 333.556364 196.529517 
L 333.909403 230.193163 
L 334.262441 174.966227 
L 334.61548 208.392886 
L 334.968519 181.813742 
L 335.321558 183.119526 
L 335.674597 188.016752 
L 336.027636 196.043843 
L 336.380675 174.16702 
L 336.733713 176.302632 
L 337.086752 172.245089 
L 337.439791 178.193943 
L 337.79283 192.839023 
L 338.145869 165.017206 
L 338.498908 239.198662 
L 338.851947 188.587101 
L 339.204986 194.108064 
L 339.558024 202.411277 
L 339.911063 164.173132 
L 340.264102 224.81878 
L 340.617141 221.861593 
L 340.97018 186.471458 
L 341.323219 189.343572 
L 341.676258 188.066677 
L 342.029297 180.567866 
L 342.382335 181.231277 
L 342.735374 171.541338 
L 343.088413 148.68863 
L 343.441452 176.563444 
L 343.794491 172.759786 
L 344.14753 149.482648 
L 344.500569 155.059261 
L 344.853607 171.69684 
L 345.206646 147.896213 
L 346.265763 186.049154 
L 346.618802 167.335745 
L 346.971841 161.972147 
L 347.32488 163.370596 
L 347.677918 167.961342 
L 348.030957 149.882584 
L 348.383996 199.5357 
L 348.737035 126.528093 
L 349.443113 173.495354 
L 349.796152 168.114187 
L 350.149191 123.035434 
L 350.502229 151.759783 
L 351.208307 179.71727 
L 351.561346 168.754698 
L 351.914385 252.120984 
L 352.267424 144.869395 
L 352.620463 146.612127 
L 353.32654 196.40477 
L 353.679579 173.742719 
L 354.032618 115.660573 
L 354.385657 193.737284 
L 354.738696 153.164753 
L 355.091735 243.761987 
L 355.797812 117.802842 
L 356.150851 104.777075 
L 356.50389 139.980158 
L 356.856929 89.160371 
L 357.209968 174.74083 
L 357.563007 204.147085 
L 357.916046 206.935593 
L 358.269085 112.919462 
L 358.622123 172.702938 
L 358.975162 152.608516 
L 359.328201 158.885819 
L 359.68124 178.510803 
L 360.034279 150.140066 
L 360.387318 162.169983 
L 360.740357 144.784589 
L 361.093396 205.353687 
L 361.446434 221.067444 
L 361.799473 186.969648 
L 362.152512 134.767534 
L 362.505551 149.310236 
L 362.85859 127.076739 
L 363.211629 128.758097 
L 363.564668 133.730944 
L 363.917707 155.743041 
L 364.270745 164.041593 
L 364.623784 133.886316 
L 364.976823 153.519692 
L 365.329862 142.10552 
L 365.682901 113.676199 
L 366.03594 97.361337 
L 366.388979 178.919394 
L 366.742017 159.071277 
L 367.095056 232.073691 
L 367.448095 107.811216 
L 367.801134 115.507468 
L 368.154173 149.362425 
L 368.507212 87.653283 
L 368.860251 116.179929 
L 369.21329 113.953917 
L 369.566328 113.709082 
L 369.919367 129.651697 
L 370.272406 186.436046 
L 370.625445 223.145278 
L 370.978484 146.175849 
L 371.331523 142.392559 
L 371.684562 116.949449 
L 372.037601 115.224157 
L 372.390639 144.729204 
L 372.743678 153.978339 
L 373.096717 203.503381 
L 373.449756 166.371718 
L 373.802795 236.508275 
L 374.155834 115.581356 
L 374.508873 125.926855 
L 374.861912 140.26786 
L 375.21495 236.84444 
L 375.567989 198.558225 
L 375.921028 145.684579 
L 376.274067 149.273892 
L 376.627106 106.173393 
L 376.980145 145.51217 
L 377.333184 168.434909 
L 377.686222 219.65981 
L 378.039261 168.294449 
L 378.3923 136.626095 
L 378.745339 213.73292 
L 379.098378 112.565589 
L 379.451417 131.811544 
L 379.804456 91.525509 
L 380.157495 137.676261 
L 380.510533 163.168365 
L 380.863572 117.2506 
L 381.216611 156.678711 
L 381.56965 157.650728 
L 381.922689 166.563966 
L 382.275728 138.353384 
L 382.628767 154.405436 
L 382.981806 162.236288 
L 383.334844 240.813053 
L 383.687883 143.757987 
L 384.040922 155.529225 
L 384.393961 132.412248 
L 384.747 134.405142 
L 385.100039 143.628314 
L 385.453078 270.479329 
L 385.806116 170.074728 
L 386.159155 104.147348 
L 386.512194 122.779016 
L 386.865233 111.531664 
L 387.218272 112.473328 
L 387.322565 346.6 
M 387.827055 346.6 
L 387.92435 134.158575 
L 388.630427 183.163061 
L 388.983466 207.618441 
L 389.336505 221.703429 
L 389.689544 128.041965 
L 390.042583 124.806528 
L 390.395622 232.512769 
L 390.748661 193.103563 
L 391.1017 112.243538 
L 391.454738 219.274652 
L 391.807777 132.115355 
L 392.160816 132.44553 
L 392.513855 122.464553 
L 392.866894 116.126277 
L 393.219933 150.387961 
L 393.572972 114.731425 
L 393.926011 115.663768 
L 394.029298 346.6 
M 394.933282 346.6 
L 394.985127 250.576753 
L 395.338166 113.043943 
L 395.691205 117.603673 
L 396.044244 152.037501 
L 396.397283 251.967479 
L 396.750321 113.650638 
L 397.10336 169.703814 
L 397.456399 191.220106 
L 397.809438 192.923032 
L 398.162477 78.536354 
L 398.515516 160.604453 
L 398.868555 95.330766 
L 399.221594 160.284399 
L 399.574632 154.315969 
L 399.927671 171.424314 
L 400.28071 145.042204 
L 400.633749 100.725384 
L 400.986788 131.925641 
L 401.339827 143.04798 
L 401.692866 171.043015 
L 402.045905 230.610008 
L 402.398943 190.362186 
L 403.105021 265.844244 
L 403.811099 163.067715 
L 404.164138 271.796164 
L 404.517177 177.005185 
L 404.870216 127.342875 
L 405.223254 165.691267 
L 405.576293 155.287187 
L 405.929332 188.378079 
L 406.282371 126.399217 
L 406.63541 156.254143 
L 407.341488 182.53999 
L 407.341488 182.53999 
" style="fill:none;stroke:#ff0000;stroke-linecap:square;stroke-width:1.5;"/>
   </g>
   <g id="patch_9">
    <path d="M 252.392727 307.584 
L 252.392727 41.472 
" style="fill:none;stroke:#000000;stroke-linecap:square;stroke-linejoin:miter;stroke-width:0.8;"/>
   </g>
   <g id="patch_10">
    <path d="M 414.72 307.584 
L 414.72 41.472 
" style="fill:none;stroke:#000000;stroke-linecap:square;stroke-linejoin:miter;stroke-width:0.8;"/>
   </g>
   <g id="patch_11">
    <path d="M 252.392727 307.584 
L 414.72 307.584 
" style="fill:none;stroke:#000000;stroke-linecap:square;stroke-linejoin:miter;stroke-width:0.8;"/>
   </g>
   <g id="patch_12">
    <path d="M 252.392727 41.472 
L 414.72 41.472 
" style="fill:none;stroke:#000000;stroke-linecap:square;stroke-linejoin:miter;stroke-width:0.8;"/>
   </g>
   <g id="text_33">
    <!-- Pupil - Reg vs Stress -->
    <defs>
     <path d="M 19.671875 64.796875 
L 19.671875 37.40625 
L 32.078125 37.40625 
Q 38.96875 37.40625 42.71875 40.96875 
Q 46.484375 44.53125 46.484375 51.125 
Q 46.484375 57.671875 42.71875 61.234375 
Q 38.96875 64.796875 32.078125 64.796875 
z
M 9.8125 72.90625 
L 32.078125 72.90625 
Q 44.34375 72.90625 50.609375 67.359375 
Q 56.890625 61.8125 56.890625 51.125 
Q 56.890625 40.328125 50.609375 34.8125 
Q 44.34375 29.296875 32.078125 29.296875 
L 19.671875 29.296875 
L 19.671875 0 
L 9.8125 0 
z
" id="DejaVuSans-50"/>
     <path d="M 18.109375 8.203125 
L 18.109375 -20.796875 
L 9.078125 -20.796875 
L 9.078125 54.6875 
L 18.109375 54.6875 
L 18.109375 46.390625 
Q 20.953125 51.265625 25.265625 53.625 
Q 29.59375 56 35.59375 56 
Q 45.5625 56 51.78125 48.09375 
Q 58.015625 40.1875 58.015625 27.296875 
Q 58.015625 14.40625 51.78125 6.484375 
Q 45.5625 -1.421875 35.59375 -1.421875 
Q 29.59375 -1.421875 25.265625 0.953125 
Q 20.953125 3.328125 18.109375 8.203125 
z
M 48.6875 27.296875 
Q 48.6875 37.203125 44.609375 42.84375 
Q 40.53125 48.484375 33.40625 48.484375 
Q 26.265625 48.484375 22.1875 42.84375 
Q 18.109375 37.203125 18.109375 27.296875 
Q 18.109375 17.390625 22.1875 11.75 
Q 26.265625 6.109375 33.40625 6.109375 
Q 40.53125 6.109375 44.609375 11.75 
Q 48.6875 17.390625 48.6875 27.296875 
z
" id="DejaVuSans-70"/>
     <path d="M 9.421875 75.984375 
L 18.40625 75.984375 
L 18.40625 0 
L 9.421875 0 
z
" id="DejaVuSans-6c"/>
    </defs>
    <g transform="translate(272.289801 35.472)scale(0.12 -0.12)">
     <use xlink:href="#DejaVuSans-50"/>
     <use x="60.287109" xlink:href="#DejaVuSans-75"/>
     <use x="123.666016" xlink:href="#DejaVuSans-70"/>
     <use x="187.142578" xlink:href="#DejaVuSans-69"/>
     <use x="214.925781" xlink:href="#DejaVuSans-6c"/>
     <use x="242.708984" xlink:href="#DejaVuSans-20"/>
     <use x="274.496094" xlink:href="#DejaVuSans-2d"/>
     <use x="310.580078" xlink:href="#DejaVuSans-20"/>
     <use x="342.367188" xlink:href="#DejaVuSans-52"/>
     <use x="411.787109" xlink:href="#DejaVuSans-65"/>
     <use x="473.310547" xlink:href="#DejaVuSans-67"/>
     <use x="536.787109" xlink:href="#DejaVuSans-20"/>
     <use x="568.574219" xlink:href="#DejaVuSans-76"/>
     <use x="627.753906" xlink:href="#DejaVuSans-73"/>
     <use x="679.853516" xlink:href="#DejaVuSans-20"/>
     <use x="711.640625" xlink:href="#DejaVuSans-53"/>
     <use x="775.117188" xlink:href="#DejaVuSans-74"/>
     <use x="814.326172" xlink:href="#DejaVuSans-72"/>
     <use x="855.408203" xlink:href="#DejaVuSans-65"/>
     <use x="916.931641" xlink:href="#DejaVuSans-73"/>
     <use x="969.03125" xlink:href="#DejaVuSans-73"/>
    </g>
   </g>
   <g id="legend_2">
    <g id="patch_13">
     <path d="M 259.392727 78.82825 
L 322.341165 78.82825 
Q 324.341165 78.82825 324.341165 76.82825 
L 324.341165 48.472 
Q 324.341165 46.472 322.341165 46.472 
L 259.392727 46.472 
Q 257.392727 46.472 257.392727 48.472 
L 257.392727 76.82825 
Q 257.392727 78.82825 259.392727 78.82825 
z
" style="fill:#ffffff;opacity:0.8;stroke:#cccccc;stroke-linejoin:miter;"/>
    </g>
    <g id="line2d_36">
     <path d="M 261.392727 54.570437 
L 281.392727 54.570437 
" style="fill:none;stroke:#0000ff;stroke-linecap:square;stroke-width:1.5;"/>
    </g>
    <g id="line2d_37"/>
    <g id="text_34">
     <!-- Reg -->
     <g transform="translate(289.392727 58.070437)scale(0.1 -0.1)">
      <use xlink:href="#DejaVuSans-52"/>
      <use x="69.419922" xlink:href="#DejaVuSans-65"/>
      <use x="130.943359" xlink:href="#DejaVuSans-67"/>
     </g>
    </g>
    <g id="line2d_38">
     <path d="M 261.392727 69.248562 
L 281.392727 69.248562 
" style="fill:none;stroke:#ff0000;stroke-linecap:square;stroke-width:1.5;"/>
    </g>
    <g id="line2d_39"/>
    <g id="text_35">
     <!-- Stress -->
     <g transform="translate(289.392727 72.748562)scale(0.1 -0.1)">
      <use xlink:href="#DejaVuSans-53"/>
      <use x="63.476562" xlink:href="#DejaVuSans-74"/>
      <use x="102.685547" xlink:href="#DejaVuSans-72"/>
      <use x="143.767578" xlink:href="#DejaVuSans-65"/>
      <use x="205.291016" xlink:href="#DejaVuSans-73"/>
      <use x="257.390625" xlink:href="#DejaVuSans-73"/>
     </g>
    </g>
   </g>
  </g>
 </g>
 <defs>
  <clipPath id="pabac8ce094">
   <rect height="266.112" width="162.327273" x="57.6" y="41.472"/>
  </clipPath>
  <clipPath id="p29b229e41d">
   <rect height="266.112" width="162.327273" x="252.392727" y="41.472"/>
  </clipPath>
 </defs>
</svg>
