<?xml version="1.0" encoding="utf-8" standalone="no"?>
<!DOCTYPE svg PUBLIC "-//W3C//DTD SVG 1.1//EN"
  "http://www.w3.org/Graphics/SVG/1.1/DTD/svg11.dtd">
<!-- Created with matplotlib (http://matplotlib.org/) -->
<svg height="432pt" version="1.1" viewBox="0 0 576 432" width="576pt" xmlns="http://www.w3.org/2000/svg" xmlns:xlink="http://www.w3.org/1999/xlink">
 <defs>
  <style type="text/css">
*{stroke-linecap:butt;stroke-linejoin:round;}
  </style>
 </defs>
 <g id="figure_1">
  <g id="patch_1">
   <path d="
M0 432
L576 432
L576 0
L0 0
z
" style="fill:#ffffff;"/>
  </g>
  <g id="axes_1">
   <g id="patch_2">
    <path d="
M72 388.8
L518.4 388.8
L518.4 43.2
L72 43.2
z
" style="fill:#ffffff;"/>
   </g>
   <g id="PolyCollection_1">
    <defs>
     <path d="
M72 -78.9176
L72 -57.8988
L125.215 -141.31
L178.43 -147.303
L231.645 -229.058
L284.86 -206.206
L338.075 -104.12
L391.29 -78.8334
L444.505 -70.9967
L497.72 -59.7985
L550.935 -54.6918
L604.15 -58.2065
L657.365 -51.2854
L710.58 -47.9903
L763.795 -46.9855
L817.01 -46.3532
L870.225 -45.7612
L923.44 -45.4481
L976.655 -45.1292
L1029.87 -44.9269
L1083.09 -44.6943
L1136.3 -44.5555
L1189.52 -44.4848
L1242.73 -44.322
L1295.95 -44.1785
L1349.16 -44.1024
L1402.38 -44.0572
L1455.59 -43.9643
L1508.81 -43.8985
L1562.02 -43.8798
L1615.24 -44.139
L1615.24 -44.7639
L1615.24 -44.7639
L1562.02 -44.4515
L1508.81 -44.5312
L1455.59 -44.6201
L1402.38 -44.7174
L1349.16 -44.7977
L1295.95 -45.011
L1242.73 -45.2603
L1189.52 -45.3675
L1136.3 -45.5463
L1083.09 -45.7312
L1029.87 -45.9423
L976.655 -46.4522
L923.44 -47.0562
L870.225 -47.7655
L817.01 -48.5374
L763.795 -49.7958
L710.58 -51.0008
L657.365 -56.3787
L604.15 -66.8739
L550.935 -61.2331
L497.72 -69.8652
L444.505 -88.5554
L391.29 -102.998
L338.075 -140.472
L284.86 -271.895
L231.645 -307.72
L178.43 -196.512
L125.215 -208.386
L72 -78.9176
z
" id="m3e768eb14e" style="stroke:#000000;stroke-opacity:0.5;stroke-width:0.1;"/>
    </defs>
    <g clip-path="url(#p7ff5b81e1d)">
     <use style="fill:#ff0000;fill-opacity:0.5;stroke:#000000;stroke-opacity:0.5;stroke-width:0.1;" x="0.0" xlink:href="#m3e768eb14e" y="432.0"/>
    </g>
   </g>
   <g id="PolyCollection_2">
    <defs>
     <path d="
M72 -80.2023
L72 -60.2654
L125.215 -144.791
L178.43 -150.337
L231.645 -228.893
L284.86 -198.708
L338.075 -104.91
L391.29 -77.9933
L444.505 -69.394
L497.72 -58.9341
L550.935 -54.4754
L604.15 -59.847
L657.365 -52.2455
L710.58 -48.1951
L763.795 -47.1292
L817.01 -46.5316
L870.225 -45.9706
L923.44 -45.5635
L976.655 -45.2467
L1029.87 -45.0786
L1083.09 -44.7973
L1136.3 -44.682
L1189.52 -44.5224
L1242.73 -44.3872
L1295.95 -44.2895
L1349.16 -44.1968
L1402.38 -44.1718
L1455.59 -44.0698
L1508.81 -43.9958
L1562.02 -43.9322
L1615.24 -44.1986
L1615.24 -44.7505
L1615.24 -44.7505
L1562.02 -44.4701
L1508.81 -44.5909
L1455.59 -44.7795
L1402.38 -44.8339
L1349.16 -44.9193
L1295.95 -45.0823
L1242.73 -45.2191
L1189.52 -45.3717
L1136.3 -45.6834
L1083.09 -46.0223
L1029.87 -46.3235
L976.655 -46.6999
L923.44 -47.3141
L870.225 -47.8638
L817.01 -48.4647
L763.795 -49.54
L710.58 -51.0547
L657.365 -57.2032
L604.15 -68.1429
L550.935 -61.278
L497.72 -68.4411
L444.505 -87.0818
L391.29 -99.8322
L338.075 -138.599
L284.86 -263.395
L231.645 -303.345
L178.43 -197.52
L125.215 -222.565
L72 -80.2023
z
" id="m585b7dacee" style="stroke:#000000;stroke-opacity:0.5;stroke-width:0.1;"/>
    </defs>
    <g clip-path="url(#p7ff5b81e1d)">
     <use style="fill:#0000ff;fill-opacity:0.5;stroke:#000000;stroke-opacity:0.5;stroke-width:0.1;" x="0.0" xlink:href="#m585b7dacee" y="432.0"/>
    </g>
   </g>
   <g id="PolyCollection_3">
    <defs>
     <path d="
M72 -98.3083
L72 -73.6962
L125.215 -247.123
L178.43 -145.017
L231.645 -166.634
L284.86 -165.382
L338.075 -96.6171
L391.29 -71.8864
L444.505 -60.5704
L497.72 -55.2986
L550.935 -53.3806
L604.15 -54.4535
L657.365 -50.3055
L710.58 -47.9775
L763.795 -47.5574
L817.01 -46.7098
L870.225 -46.0185
L923.44 -45.533
L976.655 -45.1379
L1029.87 -45.0055
L1083.09 -44.7547
L1136.3 -44.5055
L1189.52 -44.4019
L1242.73 -44.2656
L1295.95 -44.1472
L1349.16 -44.0741
L1402.38 -43.9744
L1455.59 -43.9178
L1508.81 -43.8669
L1562.02 -43.8137
L1615.24 -43.8206
L1615.24 -44.3668
L1615.24 -44.3668
L1562.02 -44.2791
L1508.81 -44.357
L1455.59 -44.4277
L1402.38 -44.5591
L1349.16 -44.6987
L1295.95 -44.8266
L1242.73 -45.0264
L1189.52 -45.17
L1136.3 -45.4498
L1083.09 -45.8191
L1029.87 -46.1092
L976.655 -46.7803
L923.44 -47.2874
L870.225 -48.0846
L817.01 -49.192
L763.795 -50.5245
L710.58 -51.8744
L657.365 -54.8335
L604.15 -62.0304
L550.935 -60.4123
L497.72 -64.3901
L444.505 -72.7301
L391.29 -89.9699
L338.075 -138.404
L284.86 -233.849
L231.645 -243.785
L178.43 -190.002
L125.215 -356.202
L72 -98.3083
z
" id="m4c13919aee" style="stroke:#000000;stroke-opacity:0.5;stroke-width:0.1;"/>
    </defs>
    <g clip-path="url(#p7ff5b81e1d)">
     <use style="fill:#ff0000;fill-opacity:0.5;stroke:#000000;stroke-opacity:0.5;stroke-width:0.1;" x="0.0" xlink:href="#m4c13919aee" y="432.0"/>
    </g>
   </g>
   <g id="PolyCollection_4">
    <defs>
     <path d="
M72 -99.6477
L72 -75.6466
L125.215 -261.374
L178.43 -152.036
L231.645 -164.6
L284.86 -158.038
L338.075 -100.323
L391.29 -74.2488
L444.505 -63.2877
L497.72 -56.7358
L550.935 -54.2715
L604.15 -55.0149
L657.365 -51.1438
L710.58 -48.5249
L763.795 -47.4892
L817.01 -46.9203
L870.225 -46.2934
L923.44 -45.9128
L976.655 -45.4167
L1029.87 -45.2177
L1083.09 -44.9417
L1136.3 -44.663
L1189.52 -44.55
L1242.73 -44.396
L1295.95 -44.2589
L1349.16 -44.1259
L1402.38 -44.0461
L1455.59 -44.0124
L1508.81 -43.9394
L1562.02 -43.8806
L1615.24 -43.9684
L1615.24 -44.38
L1615.24 -44.38
L1562.02 -44.3626
L1508.81 -44.4916
L1455.59 -44.5728
L1402.38 -44.6598
L1349.16 -44.7665
L1295.95 -44.9761
L1242.73 -45.0686
L1189.52 -45.3114
L1136.3 -45.6289
L1083.09 -46.0632
L1029.87 -46.5097
L976.655 -46.8778
L923.44 -47.658
L870.225 -48.4647
L817.01 -49.5554
L763.795 -50.9577
L710.58 -52.3661
L657.365 -56.5226
L604.15 -63.1226
L550.935 -61.0897
L497.72 -65.0641
L444.505 -73.838
L391.29 -93.7528
L338.075 -130.477
L284.86 -212.583
L231.645 -233.426
L178.43 -197.914
L125.215 -347.554
L72 -99.6477
z
" id="me51f676163" style="stroke:#000000;stroke-opacity:0.5;stroke-width:0.1;"/>
    </defs>
    <g clip-path="url(#p7ff5b81e1d)">
     <use style="fill:#0000ff;fill-opacity:0.5;stroke:#000000;stroke-opacity:0.5;stroke-width:0.1;" x="0.0" xlink:href="#me51f676163" y="432.0"/>
    </g>
   </g>
   <g id="PolyCollection_5">
    <defs>
     <path d="
M72 -84.8133
L72 -63.0811
L125.215 -173.807
L178.43 -140.169
L231.645 -161.134
L284.86 -146.256
L338.075 -100.981
L391.29 -86.5643
L444.505 -76.1627
L497.72 -66.0464
L550.935 -62.9842
L604.15 -63.1376
L657.365 -59.7955
L710.58 -57.8805
L763.795 -57.0508
L817.01 -54.8109
L870.225 -53.836
L923.44 -52.6218
L976.655 -51.8479
L1029.87 -51.4759
L1083.09 -50.5162
L1136.3 -50.0666
L1189.52 -49.5303
L1242.73 -49.2187
L1295.95 -48.8578
L1349.16 -48.7317
L1402.38 -48.1487
L1455.59 -47.9922
L1508.81 -47.7347
L1562.02 -47.1062
L1615.24 -46.8307
L1615.24 -49.6723
L1615.24 -49.6723
L1562.02 -50.2863
L1508.81 -51.1225
L1455.59 -51.5216
L1402.38 -52.4696
L1349.16 -53.1683
L1295.95 -53.4666
L1242.73 -53.8208
L1189.52 -54.7259
L1136.3 -55.7562
L1083.09 -56.1943
L1029.87 -57.5674
L976.655 -59.6939
L923.44 -60.7551
L870.225 -62.6624
L817.01 -63.2048
L763.795 -64.9386
L710.58 -66.1543
L657.365 -69.7835
L604.15 -75.3164
L550.935 -74.2906
L497.72 -80.7999
L444.505 -95.2693
L391.29 -116.942
L338.075 -135.134
L284.86 -194.807
L231.645 -228.451
L178.43 -180.104
L125.215 -246.483
L72 -84.8133
z
" id="mce5d6e9578" style="stroke:#000000;stroke-opacity:0.5;stroke-width:0.1;"/>
    </defs>
    <g clip-path="url(#p7ff5b81e1d)">
     <use style="fill:#ff0000;fill-opacity:0.5;stroke:#000000;stroke-opacity:0.5;stroke-width:0.1;" x="0.0" xlink:href="#mce5d6e9578" y="432.0"/>
    </g>
   </g>
   <g id="PolyCollection_6">
    <defs>
     <path d="
M72 -84.5038
L72 -63.597
L125.215 -164.802
L178.43 -144.893
L231.645 -163.063
L284.86 -139.928
L338.075 -105.049
L391.29 -94.4354
L444.505 -78.5745
L497.72 -68.3951
L550.935 -64.5776
L604.15 -64.2429
L657.365 -59.6775
L710.58 -57.4837
L763.795 -57.0658
L817.01 -56.0894
L870.225 -54.9138
L923.44 -53.3472
L976.655 -52.3565
L1029.87 -51.6087
L1083.09 -50.9795
L1136.3 -50.1711
L1189.52 -49.6622
L1242.73 -49.4675
L1295.95 -49.0683
L1349.16 -48.5598
L1402.38 -48.2862
L1455.59 -47.837
L1508.81 -47.246
L1562.02 -46.9859
L1615.24 -47.0255
L1615.24 -49.9703
L1615.24 -49.9703
L1562.02 -50.146
L1508.81 -50.2947
L1455.59 -50.8318
L1402.38 -51.4521
L1349.16 -52.22
L1295.95 -52.9969
L1242.73 -53.6947
L1189.52 -54.3872
L1136.3 -55.3446
L1083.09 -56.4949
L1029.87 -57.7052
L976.655 -59.0968
L923.44 -60.7727
L870.225 -62.1361
L817.01 -64.3764
L763.795 -65.6828
L710.58 -66.2769
L657.365 -69.9259
L604.15 -76.6117
L550.935 -75.266
L497.72 -80.8319
L444.505 -98.6117
L391.29 -118.134
L338.075 -135.388
L284.86 -186.566
L231.645 -221.289
L178.43 -184.559
L125.215 -235.206
L72 -84.5038
z
" id="m0388e8880c" style="stroke:#000000;stroke-opacity:0.5;stroke-width:0.1;"/>
    </defs>
    <g clip-path="url(#p7ff5b81e1d)">
     <use style="fill:#0000ff;fill-opacity:0.5;stroke:#000000;stroke-opacity:0.5;stroke-width:0.1;" x="0.0" xlink:href="#m0388e8880c" y="432.0"/>
    </g>
   </g>
   <g id="PolyCollection_7">
    <defs>
     <path d="
M72 -86.7842
L72 -65.5998
L125.215 -187.221
L178.43 -140.646
L231.645 -200.664
L284.86 -192.085
L338.075 -103.287
L391.29 -72.8701
L444.505 -61.9123
L497.72 -56.0716
L550.935 -54.8431
L604.15 -57.1344
L657.365 -52.0436
L710.58 -49.6418
L763.795 -48.4171
L817.01 -47.571
L870.225 -47.0035
L923.44 -46.2521
L976.655 -46.0016
L1029.87 -45.6764
L1083.09 -45.3768
L1136.3 -45.1747
L1189.52 -45.0539
L1242.73 -44.9013
L1295.95 -44.7505
L1349.16 -44.5306
L1402.38 -44.3945
L1455.59 -44.3149
L1508.81 -44.2392
L1562.02 -44.1838
L1615.24 -44.2821
L1615.24 -44.9391
L1615.24 -44.9391
L1562.02 -44.8822
L1508.81 -45.0402
L1455.59 -45.1231
L1402.38 -45.2661
L1349.16 -45.584
L1295.95 -45.6757
L1242.73 -46.0115
L1189.52 -46.3499
L1136.3 -46.5074
L1083.09 -46.934
L1029.87 -47.2911
L976.655 -47.7717
L923.44 -48.5857
L870.225 -49.2951
L817.01 -50.251
L763.795 -52.1199
L710.58 -53.6907
L657.365 -57.9613
L604.15 -66.3235
L550.935 -61.7246
L497.72 -64.9789
L444.505 -73.2734
L391.29 -91.1864
L338.075 -144.087
L284.86 -263.466
L231.645 -274.366
L178.43 -187.214
L125.215 -276.542
L72 -86.7842
z
" id="m3705116029" style="stroke:#000000;stroke-opacity:0.5;stroke-width:0.1;"/>
    </defs>
    <g clip-path="url(#p7ff5b81e1d)">
     <use style="fill:#ff0000;fill-opacity:0.5;stroke:#000000;stroke-opacity:0.5;stroke-width:0.1;" x="0.0" xlink:href="#m3705116029" y="432.0"/>
    </g>
   </g>
   <g id="PolyCollection_8">
    <defs>
     <path d="
M72 -87.2216
L72 -65.8656
L125.215 -196.417
L178.43 -152.198
L231.645 -189.557
L284.86 -182.905
L338.075 -109.247
L391.29 -75.2897
L444.505 -63.2234
L497.72 -57.4953
L550.935 -55.8822
L604.15 -58.1613
L657.365 -52.8197
L710.58 -49.8526
L763.795 -48.9944
L817.01 -47.8262
L870.225 -47.1978
L923.44 -46.6883
L976.655 -46.2837
L1029.87 -45.986
L1083.09 -45.5766
L1136.3 -45.425
L1189.52 -45.1558
L1242.73 -44.9307
L1295.95 -44.8082
L1349.16 -44.749
L1402.38 -44.5623
L1455.59 -44.4773
L1508.81 -44.353
L1562.02 -44.2527
L1615.24 -44.345
L1615.24 -45.1
L1615.24 -45.1
L1562.02 -45.0949
L1508.81 -45.2261
L1455.59 -45.3615
L1402.38 -45.5545
L1349.16 -45.7347
L1295.95 -45.93
L1242.73 -46.1962
L1189.52 -46.4425
L1136.3 -46.7975
L1083.09 -47.2469
L1029.87 -48.1006
L976.655 -48.6813
L923.44 -49.1751
L870.225 -49.9534
L817.01 -51.3385
L763.795 -52.8915
L710.58 -54.4741
L657.365 -59.9832
L604.15 -69.0976
L550.935 -63.8992
L497.72 -66.7407
L444.505 -75.5467
L391.29 -94.9208
L338.075 -136.984
L284.86 -240.349
L231.645 -263.582
L178.43 -197.526
L125.215 -271.214
L72 -87.2216
z
" id="mc9cf7f9310" style="stroke:#000000;stroke-opacity:0.5;stroke-width:0.1;"/>
    </defs>
    <g clip-path="url(#p7ff5b81e1d)">
     <use style="fill:#0000ff;fill-opacity:0.5;stroke:#000000;stroke-opacity:0.5;stroke-width:0.1;" x="0.0" xlink:href="#mc9cf7f9310" y="432.0"/>
    </g>
   </g>
   <g id="PolyCollection_9">
    <defs>
     <path d="
M72 -83.4871
L72 -64.7874
L125.215 -178.762
L178.43 -131.503
L231.645 -231.223
L284.86 -220.398
L338.075 -98.126
L391.29 -65.4516
L444.505 -57.4849
L497.72 -53.236
L550.935 -51.5849
L604.15 -53.4717
L657.365 -49.7237
L710.58 -47.3761
L763.795 -46.4545
L817.01 -45.9814
L870.225 -45.5957
L923.44 -45.228
L976.655 -44.9413
L1029.87 -44.6947
L1083.09 -44.5694
L1136.3 -44.4732
L1189.52 -44.285
L1242.73 -44.1784
L1295.95 -44.0415
L1349.16 -43.95
L1402.38 -43.971
L1455.59 -43.9061
L1508.81 -43.8785
L1562.02 -43.8313
L1615.24 -43.8825
L1615.24 -44.4479
L1615.24 -44.4479
L1562.02 -44.3805
L1508.81 -44.4515
L1455.59 -44.5326
L1402.38 -44.6633
L1349.16 -44.8388
L1295.95 -45.0097
L1242.73 -45.1583
L1189.52 -45.282
L1136.3 -45.4003
L1083.09 -45.7005
L1029.87 -46.0508
L976.655 -46.5059
L923.44 -46.8533
L870.225 -47.2647
L817.01 -48.2156
L763.795 -49.672
L710.58 -50.611
L657.365 -54.3709
L604.15 -60.831
L550.935 -56.4119
L497.72 -58.6658
L444.505 -65.1234
L391.29 -78.852
L338.075 -140.036
L284.86 -290.825
L231.645 -319.782
L178.43 -177.1
L125.215 -271.786
L72 -83.4871
z
" id="maf24e978db" style="stroke:#000000;stroke-opacity:0.5;stroke-width:0.1;"/>
    </defs>
    <g clip-path="url(#p7ff5b81e1d)">
     <use style="fill:#ff0000;fill-opacity:0.5;stroke:#000000;stroke-opacity:0.5;stroke-width:0.1;" x="0.0" xlink:href="#maf24e978db" y="432.0"/>
    </g>
   </g>
   <g id="PolyCollection_10">
    <defs>
     <path d="
M72 -83.8336
L72 -62.9901
L125.215 -177.2
L178.43 -142.363
L231.645 -239.477
L284.86 -207.488
L338.075 -94.9019
L391.29 -64.7953
L444.505 -58.27
L497.72 -53.7535
L550.935 -52.3992
L604.15 -54.6708
L657.365 -50.1376
L710.58 -47.5665
L763.795 -46.8056
L817.01 -46.2284
L870.225 -45.6754
L923.44 -45.2585
L976.655 -44.9875
L1029.87 -44.7855
L1083.09 -44.688
L1136.3 -44.5184
L1189.52 -44.3601
L1242.73 -44.2484
L1295.95 -44.1639
L1349.16 -44.1239
L1402.38 -44.0459
L1455.59 -43.9925
L1508.81 -43.9411
L1562.02 -43.87
L1615.24 -43.9436
L1615.24 -44.571
L1615.24 -44.571
L1562.02 -44.4471
L1508.81 -44.5413
L1455.59 -44.5699
L1402.38 -44.7041
L1349.16 -44.868
L1295.95 -45.0054
L1242.73 -45.1699
L1189.52 -45.3054
L1136.3 -45.4909
L1083.09 -45.763
L1029.87 -46.1471
L976.655 -46.3624
L923.44 -46.7991
L870.225 -47.5091
L817.01 -48.1838
L763.795 -49.1665
L710.58 -50.5023
L657.365 -54.9655
L604.15 -62.5441
L550.935 -57.9243
L497.72 -59.8546
L444.505 -66.7312
L391.29 -81.1925
L338.075 -128.327
L284.86 -274.454
L231.645 -328.744
L178.43 -192.616
L125.215 -262.997
L72 -83.8336
z
" id="m4cde979d4b" style="stroke:#000000;stroke-opacity:0.5;stroke-width:0.1;"/>
    </defs>
    <g clip-path="url(#p7ff5b81e1d)">
     <use style="fill:#0000ff;fill-opacity:0.5;stroke:#000000;stroke-opacity:0.5;stroke-width:0.1;" x="0.0" xlink:href="#m4cde979d4b" y="432.0"/>
    </g>
   </g>
   <g id="PolyCollection_11">
    <defs>
     <path d="
M72 -81.8865
L72 -62.9126
L125.215 -164.816
L178.43 -132.877
L231.645 -178.934
L284.86 -166.317
L338.075 -104.392
L391.29 -84.5145
L444.505 -72.3923
L497.72 -63.7257
L550.935 -60.4421
L604.15 -61.5355
L657.365 -57.4937
L710.58 -54.8091
L763.795 -53.3163
L817.01 -51.8163
L870.225 -50.7012
L923.44 -49.132
L976.655 -47.9907
L1029.87 -47.7185
L1083.09 -47.1356
L1136.3 -46.3471
L1189.52 -46.1215
L1242.73 -46.0884
L1295.95 -45.8876
L1349.16 -45.4983
L1402.38 -45.2878
L1455.59 -45.184
L1508.81 -45.0315
L1562.02 -44.8703
L1615.24 -44.9192
L1615.24 -46.4154
L1615.24 -46.4154
L1562.02 -46.3868
L1508.81 -46.5769
L1455.59 -46.7725
L1402.38 -47.0502
L1349.16 -47.3741
L1295.95 -47.69
L1242.73 -48.2069
L1189.52 -48.6251
L1136.3 -49.2524
L1083.09 -49.8796
L1029.87 -50.9253
L976.655 -52.3494
L923.44 -53.713
L870.225 -55.5828
L817.01 -57.9801
L763.795 -59.6598
L710.58 -61.9767
L657.365 -66.5067
L604.15 -75.3863
L550.935 -70.2426
L497.72 -75.52
L444.505 -89.9234
L391.29 -113.418
L338.075 -143.597
L284.86 -230.941
L231.645 -253.894
L178.43 -184.519
L125.215 -236.956
L72 -81.8865
z
" id="m961936b076" style="stroke:#000000;stroke-opacity:0.5;stroke-width:0.1;"/>
    </defs>
    <g clip-path="url(#p7ff5b81e1d)">
     <use style="fill:#ff0000;fill-opacity:0.5;stroke:#000000;stroke-opacity:0.5;stroke-width:0.1;" x="0.0" xlink:href="#m961936b076" y="432.0"/>
    </g>
   </g>
   <g id="PolyCollection_12">
    <defs>
     <path d="
M72 -83.7315
L72 -65.2724
L125.215 -177.181
L178.43 -144.004
L231.645 -178.37
L284.86 -160.865
L338.075 -106.939
L391.29 -88.2354
L444.505 -75.6437
L497.72 -65.2893
L550.935 -61.1684
L604.15 -63.1408
L657.365 -57.711
L710.58 -54.3822
L763.795 -53.0661
L817.01 -51.0485
L870.225 -50.052
L923.44 -49.1988
L976.655 -48.4225
L1029.87 -47.7125
L1083.09 -47.0266
L1136.3 -46.7753
L1189.52 -46.41
L1242.73 -46.0313
L1295.95 -45.9275
L1349.16 -45.7881
L1402.38 -45.4864
L1455.59 -45.3664
L1508.81 -45.2469
L1562.02 -45.0756
L1615.24 -45.1128
L1615.24 -46.3317
L1615.24 -46.3317
L1562.02 -46.4251
L1508.81 -46.6391
L1455.59 -46.8046
L1402.38 -47.115
L1349.16 -47.3079
L1295.95 -47.6038
L1242.73 -48.0925
L1189.52 -48.7933
L1136.3 -49.4003
L1083.09 -50.2689
L1029.87 -51.0246
L976.655 -52.1804
L923.44 -53.5592
L870.225 -55.9549
L817.01 -57.7477
L763.795 -59.3579
L710.58 -61.9902
L657.365 -66.6774
L604.15 -74.7437
L550.935 -71.2147
L497.72 -77.7183
L444.505 -91.5333
L391.29 -112.14
L338.075 -137.15
L284.86 -209.344
L231.645 -241.417
L178.43 -186.8
L125.215 -239.053
L72 -83.7315
z
" id="m5eb17a83bd" style="stroke:#000000;stroke-opacity:0.5;stroke-width:0.1;"/>
    </defs>
    <g clip-path="url(#p7ff5b81e1d)">
     <use style="fill:#0000ff;fill-opacity:0.5;stroke:#000000;stroke-opacity:0.5;stroke-width:0.1;" x="0.0" xlink:href="#m5eb17a83bd" y="432.0"/>
    </g>
   </g>
   <g id="PolyCollection_13">
    <defs>
     <path d="
M72 -84.9322
L72 -65.5979
L125.215 -185.276
L178.43 -148.532
L231.645 -201.933
L284.86 -187.515
L338.075 -103.137
L391.29 -73.332
L444.505 -63.7147
L497.72 -57.7187
L550.935 -55.0531
L604.15 -57.6671
L657.365 -53.4109
L710.58 -50.6115
L763.795 -49.3826
L817.01 -48.9442
L870.225 -48.0498
L923.44 -47.3294
L976.655 -46.7369
L1029.87 -46.5525
L1083.09 -46.3827
L1136.3 -46.1789
L1189.52 -45.901
L1242.73 -45.6674
L1295.95 -45.3197
L1349.16 -45.2348
L1402.38 -45.1334
L1455.59 -44.9153
L1508.81 -44.7773
L1562.02 -44.637
L1615.24 -44.6821
L1615.24 -45.6928
L1615.24 -45.6928
L1562.02 -45.6778
L1508.81 -45.8977
L1455.59 -46.1545
L1402.38 -46.3928
L1349.16 -46.799
L1295.95 -47.0746
L1242.73 -47.4267
L1189.52 -47.5463
L1136.3 -47.9617
L1083.09 -48.2349
L1029.87 -48.5603
L976.655 -49.471
L923.44 -50.2652
L870.225 -51.4986
L817.01 -52.4104
L763.795 -53.8773
L710.58 -55.4806
L657.365 -60.1821
L604.15 -67.4894
L550.935 -63.4229
L497.72 -67.4399
L444.505 -74.1919
L391.29 -90.2403
L338.075 -136.751
L284.86 -250.102
L231.645 -276.5
L178.43 -198.115
L125.215 -253.792
L72 -84.9322
z
" id="mf2036bf442" style="stroke:#000000;stroke-opacity:0.5;stroke-width:0.1;"/>
    </defs>
    <g clip-path="url(#p7ff5b81e1d)">
     <use style="fill:#ff0000;fill-opacity:0.5;stroke:#000000;stroke-opacity:0.5;stroke-width:0.1;" x="0.0" xlink:href="#mf2036bf442" y="432.0"/>
    </g>
   </g>
   <g id="PolyCollection_14">
    <defs>
     <path d="
M72 -85.8708
L72 -64.8061
L125.215 -184.386
L178.43 -163.33
L231.645 -195.565
L284.86 -171.573
L338.075 -104.584
L391.29 -77.0909
L444.505 -65.428
L497.72 -59.5413
L550.935 -57.2398
L604.15 -58.4293
L657.365 -54.1658
L710.58 -50.9625
L763.795 -49.7961
L817.01 -49.251
L870.225 -48.2342
L923.44 -47.8939
L976.655 -47.2126
L1029.87 -46.8704
L1083.09 -46.4453
L1136.3 -46.087
L1189.52 -45.8832
L1242.73 -45.5519
L1295.95 -45.4159
L1349.16 -45.2678
L1402.38 -44.9933
L1455.59 -44.9044
L1508.81 -44.7961
L1562.02 -44.6905
L1615.24 -44.7251
L1615.24 -45.7381
L1615.24 -45.7381
L1562.02 -45.7357
L1508.81 -45.9217
L1455.59 -46.0752
L1402.38 -46.3474
L1349.16 -46.6772
L1295.95 -46.8855
L1242.73 -47.1086
L1189.52 -47.548
L1136.3 -48.0736
L1083.09 -48.4419
L1029.87 -48.806
L976.655 -49.6813
L923.44 -50.2635
L870.225 -51.0502
L817.01 -52.56
L763.795 -54.6588
L710.58 -55.7821
L657.365 -60.2451
L604.15 -68.5801
L550.935 -65.0013
L497.72 -68.2069
L444.505 -77.1155
L391.29 -92.2215
L338.075 -133.509
L284.86 -229.936
L231.645 -265.222
L178.43 -210.132
L125.215 -260.921
L72 -85.8708
z
" id="m4b66ea714d" style="stroke:#000000;stroke-opacity:0.5;stroke-width:0.1;"/>
    </defs>
    <g clip-path="url(#p7ff5b81e1d)">
     <use style="fill:#0000ff;fill-opacity:0.5;stroke:#000000;stroke-opacity:0.5;stroke-width:0.1;" x="0.0" xlink:href="#m4b66ea714d" y="432.0"/>
    </g>
   </g>
   <g id="PolyCollection_15">
    <defs>
     <path d="
M72 -59.6498
L72 -51.1963
L125.215 -88.2599
L178.43 -144.763
L231.645 -291.866
L284.86 -262.618
L338.075 -103.019
L391.29 -71.1229
L444.505 -63.2061
L497.72 -55.1907
L550.935 -50.2955
L604.15 -49.0821
L657.365 -47.049
L710.58 -45.7798
L763.795 -45.3375
L817.01 -44.9859
L870.225 -44.7046
L923.44 -44.5677
L976.655 -44.4052
L1029.87 -44.2588
L1083.09 -44.1251
L1136.3 -44.0137
L1189.52 -43.9874
L1242.73 -43.9072
L1295.95 -43.8047
L1349.16 -43.7378
L1402.38 -43.7034
L1455.59 -43.6836
L1508.81 -43.6275
L1562.02 -43.6032
L1615.24 -43.637
L1615.24 -44.1003
L1615.24 -44.1003
L1562.02 -44.06
L1508.81 -44.1504
L1455.59 -44.2501
L1402.38 -44.3444
L1349.16 -44.3828
L1295.95 -44.5223
L1242.73 -44.6388
L1189.52 -44.6826
L1136.3 -44.9305
L1083.09 -45.094
L1029.87 -45.279
L976.655 -45.5161
L923.44 -45.8747
L870.225 -46.2869
L817.01 -46.7678
L763.795 -47.5085
L710.58 -48.3114
L657.365 -49.9994
L604.15 -53.5449
L550.935 -54.889
L497.72 -63.8907
L444.505 -79.4756
L391.29 -89.6291
L338.075 -144.172
L284.86 -336.978
L231.645 -377.41
L178.43 -215.195
L125.215 -124.411
L72 -59.6498
z
" id="mf032518048" style="stroke:#000000;stroke-opacity:0.5;stroke-width:0.1;"/>
    </defs>
    <g clip-path="url(#p7ff5b81e1d)">
     <use style="fill:#ff0000;fill-opacity:0.5;stroke:#000000;stroke-opacity:0.5;stroke-width:0.1;" x="0.0" xlink:href="#mf032518048" y="432.0"/>
    </g>
   </g>
   <g id="PolyCollection_16">
    <defs>
     <path d="
M72 -60.0846
L72 -52.1154
L125.215 -88.9045
L178.43 -142.772
L231.645 -289.508
L284.86 -263.636
L338.075 -105.542
L391.29 -71.6871
L444.505 -64.3875
L497.72 -55.6339
L550.935 -50.3813
L604.15 -48.907
L657.365 -46.9032
L710.58 -45.8061
L763.795 -45.4654
L817.01 -44.9435
L870.225 -44.7388
L923.44 -44.5667
L976.655 -44.3174
L1029.87 -44.2449
L1083.09 -44.1155
L1136.3 -44.0053
L1189.52 -43.9764
L1242.73 -43.9316
L1295.95 -43.8791
L1349.16 -43.7835
L1402.38 -43.7251
L1455.59 -43.7128
L1508.81 -43.6919
L1562.02 -43.6646
L1615.24 -43.6578
L1615.24 -44.0919
L1615.24 -44.0919
L1562.02 -44.0808
L1508.81 -44.1632
L1455.59 -44.2514
L1402.38 -44.391
L1349.16 -44.4477
L1295.95 -44.5018
L1242.73 -44.6281
L1189.52 -44.8674
L1136.3 -45.0975
L1083.09 -45.1795
L1029.87 -45.3679
L976.655 -45.8128
L923.44 -45.8952
L870.225 -46.2098
L817.01 -46.7797
L763.795 -47.4485
L710.58 -48.3254
L657.365 -50.0857
L604.15 -53.7301
L550.935 -54.9236
L497.72 -63.4976
L444.505 -78.34
L391.29 -87.1733
L338.075 -146.124
L284.86 -339.553
L231.645 -369.499
L178.43 -213.591
L125.215 -129.776
L72 -60.0846
z
" id="m0b88f57cd1" style="stroke:#000000;stroke-opacity:0.5;stroke-width:0.1;"/>
    </defs>
    <g clip-path="url(#p7ff5b81e1d)">
     <use style="fill:#0000ff;fill-opacity:0.5;stroke:#000000;stroke-opacity:0.5;stroke-width:0.1;" x="0.0" xlink:href="#m0b88f57cd1" y="432.0"/>
    </g>
   </g>
   <g id="PolyCollection_17">
    <defs>
     <path d="
M72 -101.601
L72 -75.6779
L125.215 -255.393
L178.43 -153.963
L231.645 -157.317
L284.86 -149.616
L338.075 -111.05
L391.29 -80.9309
L444.505 -65.5584
L497.72 -58.3181
L550.935 -54.6514
L604.15 -54.7723
L657.365 -51.6143
L710.58 -49.2964
L763.795 -48.2668
L817.01 -47.2832
L870.225 -46.768
L923.44 -46.3859
L976.655 -46.1333
L1029.87 -45.7249
L1083.09 -45.6654
L1136.3 -45.3639
L1189.52 -44.9493
L1242.73 -44.784
L1295.95 -44.7615
L1349.16 -44.6679
L1402.38 -44.4743
L1455.59 -44.387
L1508.81 -44.3485
L1562.02 -44.3004
L1615.24 -44.2703
L1615.24 -44.9692
L1615.24 -44.9692
L1562.02 -45.0059
L1508.81 -45.1871
L1455.59 -45.2832
L1402.38 -45.4953
L1349.16 -45.6556
L1295.95 -45.9752
L1242.73 -46.3288
L1189.52 -46.5012
L1136.3 -46.6948
L1083.09 -47.1935
L1029.87 -47.8764
L976.655 -48.1629
L923.44 -48.8611
L870.225 -49.6792
L817.01 -50.8411
L763.795 -51.9806
L710.58 -53.9279
L657.365 -56.6691
L604.15 -61.8959
L550.935 -62.2182
L497.72 -67.0584
L444.505 -77.7492
L391.29 -98.9382
L338.075 -145.203
L284.86 -196.271
L231.645 -219.543
L178.43 -198.585
L125.215 -336.966
L72 -101.601
z
" id="m7d5d90e3b0" style="stroke:#000000;stroke-opacity:0.5;stroke-width:0.1;"/>
    </defs>
    <g clip-path="url(#p7ff5b81e1d)">
     <use style="fill:#ff0000;fill-opacity:0.5;stroke:#000000;stroke-opacity:0.5;stroke-width:0.1;" x="0.0" xlink:href="#m7d5d90e3b0" y="432.0"/>
    </g>
   </g>
   <g id="PolyCollection_18">
    <defs>
     <path d="
M72 -99.9355
L72 -73.9064
L125.215 -239.824
L178.43 -159.177
L231.645 -155.142
L284.86 -145.842
L338.075 -108.839
L391.29 -82.211
L444.505 -66.9591
L497.72 -58.643
L550.935 -56.005
L604.15 -55.3031
L657.365 -51.8046
L710.58 -49.5693
L763.795 -48.9408
L817.01 -47.9035
L870.225 -47.3028
L923.44 -46.8145
L976.655 -46.3972
L1029.87 -46.0343
L1083.09 -45.7491
L1136.3 -45.5325
L1189.52 -45.293
L1242.73 -45.0772
L1295.95 -44.9439
L1349.16 -44.7861
L1402.38 -44.6693
L1455.59 -44.5863
L1508.81 -44.4161
L1562.02 -44.2372
L1615.24 -44.3675
L1615.24 -44.9256
L1615.24 -44.9256
L1562.02 -45.0234
L1508.81 -45.1088
L1455.59 -45.3074
L1402.38 -45.4246
L1349.16 -45.6811
L1295.95 -45.9482
L1242.73 -46.3529
L1189.52 -46.5844
L1136.3 -46.9474
L1083.09 -47.3613
L1029.87 -47.7729
L976.655 -48.346
L923.44 -48.7772
L870.225 -49.6625
L817.01 -51.0696
L763.795 -52.0499
L710.58 -53.3365
L657.365 -56.8684
L604.15 -62.5603
L550.935 -62.2038
L497.72 -67.8765
L444.505 -78.8681
L391.29 -105.304
L338.075 -150.257
L284.86 -197.635
L231.645 -214.566
L178.43 -202.254
L125.215 -337.217
L72 -99.9355
z
" id="m0497cc755b" style="stroke:#000000;stroke-opacity:0.5;stroke-width:0.1;"/>
    </defs>
    <g clip-path="url(#p7ff5b81e1d)">
     <use style="fill:#0000ff;fill-opacity:0.5;stroke:#000000;stroke-opacity:0.5;stroke-width:0.1;" x="0.0" xlink:href="#m0497cc755b" y="432.0"/>
    </g>
   </g>
   <g id="line2d_1">
    <path clip-path="url(#p7ff5b81e1d)" d="
M72 363.592
L125.215 257.152
L178.43 260.093
L231.645 163.611
L284.86 192.949
L338.075 309.704
L391.29 341.084
L444.505 352.224
L497.72 367.168
L550.935 374.038
L577 371.795" style="fill:none;stroke:#ff0000;stroke-linecap:square;"/>
   </g>
   <g id="line2d_2">
    <path clip-path="url(#p7ff5b81e1d)" d="
M72 361.766
L125.215 248.322
L178.43 258.072
L231.645 165.881
L284.86 200.948
L338.075 310.246
L391.29 343.087
L444.505 353.762
L497.72 368.312
L550.935 374.123
L577 371.127" style="fill:none;stroke:#0000ff;stroke-linecap:square;"/>
   </g>
   <g id="line2d_3">
    <path clip-path="url(#p7ff5b81e1d)" d="
M72 345.998
L125.215 130.338
L178.43 264.49
L231.645 226.79
L284.86 232.384
L338.075 314.489
L391.29 351.072
L444.505 365.35
L497.72 372.156
L550.935 375.104
L577 374.445" style="fill:none;stroke:#ff0000;stroke-linecap:square;"/>
   </g>
   <g id="line2d_4">
    <path clip-path="url(#p7ff5b81e1d)" d="
M72 344.353
L125.215 127.536
L178.43 257.025
L231.645 232.987
L284.86 246.69
L338.075 316.6
L391.29 347.999
L444.505 363.437
L497.72 371.1
L550.935 374.319
L577 373.639" style="fill:none;stroke:#0000ff;stroke-linecap:square;"/>
   </g>
   <g id="line2d_5">
    <path clip-path="url(#p7ff5b81e1d)" d="
M72 358.053
L125.215 221.855
L178.43 271.864
L231.645 237.207
L284.86 261.468
L338.075 313.942
L391.29 330.247
L444.505 346.284
L497.72 358.577
L550.935 363.363
L577 363.074" style="fill:none;stroke:#ff0000;stroke-linecap:square;"/>
   </g>
   <g id="line2d_6">
    <path clip-path="url(#p7ff5b81e1d)" d="
M72 357.95
L125.215 231.996
L178.43 267.274
L231.645 239.824
L284.86 268.753
L338.075 311.781
L391.29 325.715
L444.505 343.407
L497.72 357.386
L550.935 362.078
L577 361.831" style="fill:none;stroke:#0000ff;stroke-linecap:square;"/>
   </g>
   <g id="line2d_7">
    <path clip-path="url(#p7ff5b81e1d)" d="
M72 355.808
L125.215 200.118
L178.43 268.07
L231.645 194.485
L284.86 204.225
L338.075 308.313
L391.29 349.972
L444.505 364.407
L497.72 371.475
L550.935 373.716
L577 372.029" style="fill:none;stroke:#ff0000;stroke-linecap:square;"/>
   </g>
   <g id="line2d_8">
    <path clip-path="url(#p7ff5b81e1d)" d="
M72 355.456
L125.215 198.185
L178.43 257.138
L231.645 205.431
L284.86 220.373
L338.075 308.885
L391.29 346.895
L444.505 362.615
L497.72 369.882
L550.935 372.109
L577 370.278" style="fill:none;stroke:#0000ff;stroke-linecap:square;"/>
   </g>
   <g id="line2d_9">
    <path clip-path="url(#p7ff5b81e1d)" d="
M72 357.863
L125.215 206.726
L178.43 277.698
L231.645 156.498
L284.86 176.388
L338.075 312.919
L391.29 359.848
L444.505 370.696
L497.72 376.049
L550.935 378.002
L577 376.457" style="fill:none;stroke:#ff0000;stroke-linecap:square;"/>
   </g>
   <g id="line2d_10">
    <path clip-path="url(#p7ff5b81e1d)" d="
M72 358.588
L125.215 211.902
L178.43 264.51
L231.645 147.89
L284.86 191.029
L338.075 320.385
L391.29 359.006
L444.505 369.499
L497.72 375.196
L550.935 376.838
L577 375.151" style="fill:none;stroke:#0000ff;stroke-linecap:square;"/>
   </g>
   <g id="line2d_11">
    <path clip-path="url(#p7ff5b81e1d)" d="
M72 359.6
L125.215 231.114
L178.43 273.302
L231.645 215.586
L284.86 233.371
L338.075 308.005
L391.29 333.034
L444.505 350.842
L497.72 362.377
L550.935 366.658
L577 365.13" style="fill:none;stroke:#ff0000;stroke-linecap:square;"/>
   </g>
   <g id="line2d_12">
    <path clip-path="url(#p7ff5b81e1d)" d="
M72 357.498
L125.215 223.883
L178.43 266.598
L231.645 222.107
L284.86 246.896
L338.075 309.955
L391.29 331.813
L444.505 348.411
L497.72 360.496
L550.935 365.808
L577 364.461" style="fill:none;stroke:#0000ff;stroke-linecap:square;"/>
   </g>
   <g id="line2d_13">
    <path clip-path="url(#p7ff5b81e1d)" d="
M72 356.735
L125.215 212.466
L178.43 258.677
L231.645 192.783
L284.86 213.192
L338.075 312.056
L391.29 350.214
L444.505 363.047
L497.72 369.421
L550.935 372.762
L577 371.126" style="fill:none;stroke:#ff0000;stroke-linecap:square;"/>
   </g>
   <g id="line2d_14">
    <path clip-path="url(#p7ff5b81e1d)" d="
M72 356.662
L125.215 209.346
L178.43 245.269
L231.645 201.606
L284.86 231.246
L338.075 312.953
L391.29 347.344
L444.505 360.728
L497.72 368.126
L550.935 370.879
L577 369.712" style="fill:none;stroke:#0000ff;stroke-linecap:square;"/>
   </g>
   <g id="line2d_15">
    <path clip-path="url(#p7ff5b81e1d)" d="
M72 376.577
L125.215 325.664
L178.43 252.021
L231.645 97.3619
L284.86 132.202
L338.075 308.404
L391.29 351.624
L444.505 360.659
L497.72 372.459
L550.935 379.408
L577 380.034" style="fill:none;stroke:#ff0000;stroke-linecap:square;"/>
   </g>
   <g id="line2d_16">
    <path clip-path="url(#p7ff5b81e1d)" d="
M72 375.9
L125.215 322.66
L178.43 253.819
L231.645 102.497
L284.86 130.406
L338.075 306.167
L391.29 352.57
L444.505 360.636
L497.72 372.434
L550.935 379.348
L577 380.001" style="fill:none;stroke:#0000ff;stroke-linecap:square;"/>
   </g>
   <g id="line2d_17">
    <path clip-path="url(#p7ff5b81e1d)" d="
M72 343.36
L125.215 135.821
L178.43 255.726
L231.645 243.57
L284.86 259.056
L338.075 303.873
L391.29 342.065
L444.505 360.346
L497.72 369.312
L550.935 373.565
L577 373.615" style="fill:none;stroke:#ff0000;stroke-linecap:square;"/>
   </g>
   <g id="line2d_18">
    <path clip-path="url(#p7ff5b81e1d)" d="
M72 345.079
L125.215 143.48
L178.43 251.285
L231.645 247.146
L284.86 260.262
L338.075 302.452
L391.29 338.242
L444.505 359.086
L497.72 368.74
L550.935 372.896
L577 372.98" style="fill:none;stroke:#0000ff;stroke-linecap:square;"/>
   </g>
   <g id="patch_3">
    <path d="
M72 43.2
L518.4 43.2" style="fill:none;stroke:#000000;stroke-linecap:square;stroke-linejoin:miter;"/>
   </g>
   <g id="patch_4">
    <path d="
M518.4 388.8
L518.4 43.2" style="fill:none;stroke:#000000;stroke-linecap:square;stroke-linejoin:miter;"/>
   </g>
   <g id="patch_5">
    <path d="
M72 388.8
L518.4 388.8" style="fill:none;stroke:#000000;stroke-linecap:square;stroke-linejoin:miter;"/>
   </g>
   <g id="patch_6">
    <path d="
M72 388.8
L72 43.2" style="fill:none;stroke:#000000;stroke-linecap:square;stroke-linejoin:miter;"/>
   </g>
   <g id="matplotlib.axis_1">
    <g id="xtick_1">
     <g id="line2d_19">
      <defs>
       <path d="
M0 0
L0 -4" id="m93b0483c22" style="stroke:#000000;stroke-width:0.5;"/>
      </defs>
      <g>
       <use style="stroke:#000000;stroke-width:0.5;" x="72.0" xlink:href="#m93b0483c22" y="388.8"/>
      </g>
     </g>
     <g id="line2d_20">
      <defs>
       <path d="
M0 0
L0 4" id="m741efc42ff" style="stroke:#000000;stroke-width:0.5;"/>
      </defs>
      <g>
       <use style="stroke:#000000;stroke-width:0.5;" x="72.0" xlink:href="#m741efc42ff" y="43.2"/>
      </g>
     </g>
     <g id="text_1">
      <!-- 0 -->
      <defs>
       <path d="
M31.7812 66.4062
Q24.1719 66.4062 20.3281 58.9062
Q16.5 51.4219 16.5 36.375
Q16.5 21.3906 20.3281 13.8906
Q24.1719 6.39062 31.7812 6.39062
Q39.4531 6.39062 43.2812 13.8906
Q47.125 21.3906 47.125 36.375
Q47.125 51.4219 43.2812 58.9062
Q39.4531 66.4062 31.7812 66.4062
M31.7812 74.2188
Q44.0469 74.2188 50.5156 64.5156
Q56.9844 54.8281 56.9844 36.375
Q56.9844 17.9688 50.5156 8.26562
Q44.0469 -1.42188 31.7812 -1.42188
Q19.5312 -1.42188 13.0625 8.26562
Q6.59375 17.9688 6.59375 36.375
Q6.59375 54.8281 13.0625 64.5156
Q19.5312 74.2188 31.7812 74.2188" id="BitstreamVeraSans-Roman-30"/>
      </defs>
      <g transform="translate(68.9765625 401.918125)scale(0.12 -0.12)">
       <use xlink:href="#BitstreamVeraSans-Roman-30"/>
      </g>
     </g>
    </g>
    <g id="xtick_2">
     <g id="line2d_21">
      <g>
       <use style="stroke:#000000;stroke-width:0.5;" x="161.28" xlink:href="#m93b0483c22" y="388.8"/>
      </g>
     </g>
     <g id="line2d_22">
      <g>
       <use style="stroke:#000000;stroke-width:0.5;" x="161.28" xlink:href="#m741efc42ff" y="43.2"/>
      </g>
     </g>
     <g id="text_2">
      <!-- 10 -->
      <defs>
       <path d="
M12.4062 8.29688
L28.5156 8.29688
L28.5156 63.9219
L10.9844 60.4062
L10.9844 69.3906
L28.4219 72.9062
L38.2812 72.9062
L38.2812 8.29688
L54.3906 8.29688
L54.3906 0
L12.4062 0
z
" id="BitstreamVeraSans-Roman-31"/>
      </defs>
      <g transform="translate(154.7025 401.918125)scale(0.12 -0.12)">
       <use xlink:href="#BitstreamVeraSans-Roman-31"/>
       <use x="63.623046875" xlink:href="#BitstreamVeraSans-Roman-30"/>
      </g>
     </g>
    </g>
    <g id="xtick_3">
     <g id="line2d_23">
      <g>
       <use style="stroke:#000000;stroke-width:0.5;" x="250.56" xlink:href="#m93b0483c22" y="388.8"/>
      </g>
     </g>
     <g id="line2d_24">
      <g>
       <use style="stroke:#000000;stroke-width:0.5;" x="250.56" xlink:href="#m741efc42ff" y="43.2"/>
      </g>
     </g>
     <g id="text_3">
      <!-- 20 -->
      <defs>
       <path d="
M19.1875 8.29688
L53.6094 8.29688
L53.6094 0
L7.32812 0
L7.32812 8.29688
Q12.9375 14.1094 22.625 23.8906
Q32.3281 33.6875 34.8125 36.5312
Q39.5469 41.8438 41.4219 45.5312
Q43.3125 49.2188 43.3125 52.7812
Q43.3125 58.5938 39.2344 62.25
Q35.1562 65.9219 28.6094 65.9219
Q23.9688 65.9219 18.8125 64.3125
Q13.6719 62.7031 7.8125 59.4219
L7.8125 69.3906
Q13.7656 71.7812 18.9375 73
Q24.125 74.2188 28.4219 74.2188
Q39.75 74.2188 46.4844 68.5469
Q53.2188 62.8906 53.2188 53.4219
Q53.2188 48.9219 51.5312 44.8906
Q49.8594 40.875 45.4062 35.4062
Q44.1875 33.9844 37.6406 27.2188
Q31.1094 20.4531 19.1875 8.29688" id="BitstreamVeraSans-Roman-32"/>
      </defs>
      <g transform="translate(243.763125 401.918125)scale(0.12 -0.12)">
       <use xlink:href="#BitstreamVeraSans-Roman-32"/>
       <use x="63.623046875" xlink:href="#BitstreamVeraSans-Roman-30"/>
      </g>
     </g>
    </g>
    <g id="xtick_4">
     <g id="line2d_25">
      <g>
       <use style="stroke:#000000;stroke-width:0.5;" x="339.84" xlink:href="#m93b0483c22" y="388.8"/>
      </g>
     </g>
     <g id="line2d_26">
      <g>
       <use style="stroke:#000000;stroke-width:0.5;" x="339.84" xlink:href="#m741efc42ff" y="43.2"/>
      </g>
     </g>
     <g id="text_4">
      <!-- 30 -->
      <defs>
       <path d="
M40.5781 39.3125
Q47.6562 37.7969 51.625 33
Q55.6094 28.2188 55.6094 21.1875
Q55.6094 10.4062 48.1875 4.48438
Q40.7656 -1.42188 27.0938 -1.42188
Q22.5156 -1.42188 17.6562 -0.515625
Q12.7969 0.390625 7.625 2.20312
L7.625 11.7188
Q11.7188 9.32812 16.5938 8.10938
Q21.4844 6.89062 26.8125 6.89062
Q36.0781 6.89062 40.9375 10.5469
Q45.7969 14.2031 45.7969 21.1875
Q45.7969 27.6406 41.2812 31.2656
Q36.7656 34.9062 28.7188 34.9062
L20.2188 34.9062
L20.2188 43.0156
L29.1094 43.0156
Q36.375 43.0156 40.2344 45.9219
Q44.0938 48.8281 44.0938 54.2969
Q44.0938 59.9062 40.1094 62.9062
Q36.1406 65.9219 28.7188 65.9219
Q24.6562 65.9219 20.0156 65.0312
Q15.375 64.1562 9.8125 62.3125
L9.8125 71.0938
Q15.4375 72.6562 20.3438 73.4375
Q25.25 74.2188 29.5938 74.2188
Q40.8281 74.2188 47.3594 69.1094
Q53.9062 64.0156 53.9062 55.3281
Q53.9062 49.2656 50.4375 45.0938
Q46.9688 40.9219 40.5781 39.3125" id="BitstreamVeraSans-Roman-33"/>
      </defs>
      <g transform="translate(333.0609375 401.918125)scale(0.12 -0.12)">
       <use xlink:href="#BitstreamVeraSans-Roman-33"/>
       <use x="63.623046875" xlink:href="#BitstreamVeraSans-Roman-30"/>
      </g>
     </g>
    </g>
    <g id="xtick_5">
     <g id="line2d_27">
      <g>
       <use style="stroke:#000000;stroke-width:0.5;" x="429.12" xlink:href="#m93b0483c22" y="388.8"/>
      </g>
     </g>
     <g id="line2d_28">
      <g>
       <use style="stroke:#000000;stroke-width:0.5;" x="429.12" xlink:href="#m741efc42ff" y="43.2"/>
      </g>
     </g>
     <g id="text_5">
      <!-- 40 -->
      <defs>
       <path d="
M37.7969 64.3125
L12.8906 25.3906
L37.7969 25.3906
z

M35.2031 72.9062
L47.6094 72.9062
L47.6094 25.3906
L58.0156 25.3906
L58.0156 17.1875
L47.6094 17.1875
L47.6094 0
L37.7969 0
L37.7969 17.1875
L4.89062 17.1875
L4.89062 26.7031
z
" id="BitstreamVeraSans-Roman-34"/>
      </defs>
      <g transform="translate(422.176875 401.918125)scale(0.12 -0.12)">
       <use xlink:href="#BitstreamVeraSans-Roman-34"/>
       <use x="63.623046875" xlink:href="#BitstreamVeraSans-Roman-30"/>
      </g>
     </g>
    </g>
    <g id="xtick_6">
     <g id="line2d_29">
      <g>
       <use style="stroke:#000000;stroke-width:0.5;" x="518.4" xlink:href="#m93b0483c22" y="388.8"/>
      </g>
     </g>
     <g id="line2d_30">
      <g>
       <use style="stroke:#000000;stroke-width:0.5;" x="518.4" xlink:href="#m741efc42ff" y="43.2"/>
      </g>
     </g>
     <g id="text_6">
      <!-- 50 -->
      <defs>
       <path d="
M10.7969 72.9062
L49.5156 72.9062
L49.5156 64.5938
L19.8281 64.5938
L19.8281 46.7344
Q21.9688 47.4688 24.1094 47.8281
Q26.2656 48.1875 28.4219 48.1875
Q40.625 48.1875 47.75 41.5
Q54.8906 34.8125 54.8906 23.3906
Q54.8906 11.625 47.5625 5.09375
Q40.2344 -1.42188 26.9062 -1.42188
Q22.3125 -1.42188 17.5469 -0.640625
Q12.7969 0.140625 7.71875 1.70312
L7.71875 11.625
Q12.1094 9.23438 16.7969 8.0625
Q21.4844 6.89062 26.7031 6.89062
Q35.1562 6.89062 40.0781 11.3281
Q45.0156 15.7656 45.0156 23.3906
Q45.0156 31 40.0781 35.4375
Q35.1562 39.8906 26.7031 39.8906
Q22.75 39.8906 18.8125 39.0156
Q14.8906 38.1406 10.7969 36.2812
z
" id="BitstreamVeraSans-Roman-35"/>
      </defs>
      <g transform="translate(511.6265625 401.918125)scale(0.12 -0.12)">
       <use xlink:href="#BitstreamVeraSans-Roman-35"/>
       <use x="63.623046875" xlink:href="#BitstreamVeraSans-Roman-30"/>
      </g>
     </g>
    </g>
    <g id="text_7">
     <!-- Freq (Hz) -->
     <defs>
      <path id="BitstreamVeraSans-Roman-20"/>
      <path d="
M8.01562 75.875
L15.8281 75.875
Q23.1406 64.3594 26.7812 53.3125
Q30.4219 42.2812 30.4219 31.3906
Q30.4219 20.4531 26.7812 9.375
Q23.1406 -1.70312 15.8281 -13.1875
L8.01562 -13.1875
Q14.5 -2 17.7031 9.0625
Q20.9062 20.125 20.9062 31.3906
Q20.9062 42.6719 17.7031 53.6562
Q14.5 64.6562 8.01562 75.875" id="BitstreamVeraSans-Roman-29"/>
      <path d="
M31 75.875
Q24.4688 64.6562 21.2812 53.6562
Q18.1094 42.6719 18.1094 31.3906
Q18.1094 20.125 21.3125 9.0625
Q24.5156 -2 31 -13.1875
L23.1875 -13.1875
Q15.875 -1.70312 12.2344 9.375
Q8.59375 20.4531 8.59375 31.3906
Q8.59375 42.2812 12.2031 53.3125
Q15.8281 64.3594 23.1875 75.875
z
" id="BitstreamVeraSans-Roman-28"/>
      <path d="
M5.51562 54.6875
L48.1875 54.6875
L48.1875 46.4844
L14.4062 7.17188
L48.1875 7.17188
L48.1875 0
L4.29688 0
L4.29688 8.20312
L38.0938 47.5156
L5.51562 47.5156
z
" id="BitstreamVeraSans-Roman-7a"/>
      <path d="
M9.8125 72.9062
L51.7031 72.9062
L51.7031 64.5938
L19.6719 64.5938
L19.6719 43.1094
L48.5781 43.1094
L48.5781 34.8125
L19.6719 34.8125
L19.6719 0
L9.8125 0
z
" id="BitstreamVeraSans-Roman-46"/>
      <path d="
M56.2031 29.5938
L56.2031 25.2031
L14.8906 25.2031
Q15.4844 15.9219 20.4844 11.0625
Q25.4844 6.20312 34.4219 6.20312
Q39.5938 6.20312 44.4531 7.46875
Q49.3125 8.73438 54.1094 11.2812
L54.1094 2.78125
Q49.2656 0.734375 44.1875 -0.34375
Q39.1094 -1.42188 33.8906 -1.42188
Q20.7969 -1.42188 13.1562 6.1875
Q5.51562 13.8125 5.51562 26.8125
Q5.51562 40.2344 12.7656 48.1094
Q20.0156 56 32.3281 56
Q43.3594 56 49.7812 48.8906
Q56.2031 41.7969 56.2031 29.5938
M47.2188 32.2344
Q47.125 39.5938 43.0938 43.9844
Q39.0625 48.3906 32.4219 48.3906
Q24.9062 48.3906 20.3906 44.1406
Q15.875 39.8906 15.1875 32.1719
z
" id="BitstreamVeraSans-Roman-65"/>
      <path d="
M9.8125 72.9062
L19.6719 72.9062
L19.6719 43.0156
L55.5156 43.0156
L55.5156 72.9062
L65.375 72.9062
L65.375 0
L55.5156 0
L55.5156 34.7188
L19.6719 34.7188
L19.6719 0
L9.8125 0
z
" id="BitstreamVeraSans-Roman-48"/>
      <path d="
M41.1094 46.2969
Q39.5938 47.1719 37.8125 47.5781
Q36.0312 48 33.8906 48
Q26.2656 48 22.1875 43.0469
Q18.1094 38.0938 18.1094 28.8125
L18.1094 0
L9.07812 0
L9.07812 54.6875
L18.1094 54.6875
L18.1094 46.1875
Q20.9531 51.1719 25.4844 53.5781
Q30.0312 56 36.5312 56
Q37.4531 56 38.5781 55.875
Q39.7031 55.7656 41.0625 55.5156
z
" id="BitstreamVeraSans-Roman-72"/>
      <path d="
M14.7969 27.2969
Q14.7969 17.3906 18.875 11.75
Q22.9531 6.10938 30.0781 6.10938
Q37.2031 6.10938 41.2969 11.75
Q45.4062 17.3906 45.4062 27.2969
Q45.4062 37.2031 41.2969 42.8438
Q37.2031 48.4844 30.0781 48.4844
Q22.9531 48.4844 18.875 42.8438
Q14.7969 37.2031 14.7969 27.2969
M45.4062 8.20312
Q42.5781 3.32812 38.25 0.953125
Q33.9375 -1.42188 27.875 -1.42188
Q17.9688 -1.42188 11.7344 6.48438
Q5.51562 14.4062 5.51562 27.2969
Q5.51562 40.1875 11.7344 48.0938
Q17.9688 56 27.875 56
Q33.9375 56 38.25 53.625
Q42.5781 51.2656 45.4062 46.3906
L45.4062 54.6875
L54.3906 54.6875
L54.3906 -20.7969
L45.4062 -20.7969
z
" id="BitstreamVeraSans-Roman-71"/>
     </defs>
     <g transform="translate(268.6171875 418.531875)scale(0.12 -0.12)">
      <use xlink:href="#BitstreamVeraSans-Roman-46"/>
      <use x="50.26953125" xlink:href="#BitstreamVeraSans-Roman-72"/>
      <use x="89.1328125" xlink:href="#BitstreamVeraSans-Roman-65"/>
      <use x="150.65625" xlink:href="#BitstreamVeraSans-Roman-71"/>
      <use x="214.1328125" xlink:href="#BitstreamVeraSans-Roman-20"/>
      <use x="245.919921875" xlink:href="#BitstreamVeraSans-Roman-28"/>
      <use x="284.93359375" xlink:href="#BitstreamVeraSans-Roman-48"/>
      <use x="360.12890625" xlink:href="#BitstreamVeraSans-Roman-7a"/>
      <use x="412.619140625" xlink:href="#BitstreamVeraSans-Roman-29"/>
     </g>
    </g>
   </g>
   <g id="matplotlib.axis_2">
    <g id="ytick_1">
     <g id="line2d_31">
      <defs>
       <path d="
M0 0
L4 0" id="m728421d6d4" style="stroke:#000000;stroke-width:0.5;"/>
      </defs>
      <g>
       <use style="stroke:#000000;stroke-width:0.5;" x="72.0" xlink:href="#m728421d6d4" y="388.8"/>
      </g>
     </g>
     <g id="line2d_32">
      <defs>
       <path d="
M0 0
L-4 0" id="mcb0005524f" style="stroke:#000000;stroke-width:0.5;"/>
      </defs>
      <g>
       <use style="stroke:#000000;stroke-width:0.5;" x="518.4" xlink:href="#mcb0005524f" y="388.8"/>
      </g>
     </g>
     <g id="text_8">
      <!-- 0.00 -->
      <defs>
       <path d="
M10.6875 12.4062
L21 12.4062
L21 0
L10.6875 0
z
" id="BitstreamVeraSans-Roman-2e"/>
      </defs>
      <g transform="translate(42.869375 392.11125)scale(0.12 -0.12)">
       <use xlink:href="#BitstreamVeraSans-Roman-30"/>
       <use x="63.623046875" xlink:href="#BitstreamVeraSans-Roman-2e"/>
       <use x="95.41015625" xlink:href="#BitstreamVeraSans-Roman-30"/>
       <use x="159.033203125" xlink:href="#BitstreamVeraSans-Roman-30"/>
      </g>
     </g>
    </g>
    <g id="ytick_2">
     <g id="line2d_33">
      <g>
       <use style="stroke:#000000;stroke-width:0.5;" x="72.0" xlink:href="#m728421d6d4" y="350.4"/>
      </g>
     </g>
     <g id="line2d_34">
      <g>
       <use style="stroke:#000000;stroke-width:0.5;" x="518.4" xlink:href="#mcb0005524f" y="350.4"/>
      </g>
     </g>
     <g id="text_9">
      <!-- 0.02 -->
      <g transform="translate(43.274375 353.71125)scale(0.12 -0.12)">
       <use xlink:href="#BitstreamVeraSans-Roman-30"/>
       <use x="63.623046875" xlink:href="#BitstreamVeraSans-Roman-2e"/>
       <use x="95.41015625" xlink:href="#BitstreamVeraSans-Roman-30"/>
       <use x="159.033203125" xlink:href="#BitstreamVeraSans-Roman-32"/>
      </g>
     </g>
    </g>
    <g id="ytick_3">
     <g id="line2d_35">
      <g>
       <use style="stroke:#000000;stroke-width:0.5;" x="72.0" xlink:href="#m728421d6d4" y="312.0"/>
      </g>
     </g>
     <g id="line2d_36">
      <g>
       <use style="stroke:#000000;stroke-width:0.5;" x="518.4" xlink:href="#mcb0005524f" y="312.0"/>
      </g>
     </g>
     <g id="text_10">
      <!-- 0.04 -->
      <g transform="translate(42.745625 315.31125)scale(0.12 -0.12)">
       <use xlink:href="#BitstreamVeraSans-Roman-30"/>
       <use x="63.623046875" xlink:href="#BitstreamVeraSans-Roman-2e"/>
       <use x="95.41015625" xlink:href="#BitstreamVeraSans-Roman-30"/>
       <use x="159.033203125" xlink:href="#BitstreamVeraSans-Roman-34"/>
      </g>
     </g>
    </g>
    <g id="ytick_4">
     <g id="line2d_37">
      <g>
       <use style="stroke:#000000;stroke-width:0.5;" x="72.0" xlink:href="#m728421d6d4" y="273.6"/>
      </g>
     </g>
     <g id="line2d_38">
      <g>
       <use style="stroke:#000000;stroke-width:0.5;" x="518.4" xlink:href="#mcb0005524f" y="273.6"/>
      </g>
     </g>
     <g id="text_11">
      <!-- 0.06 -->
      <defs>
       <path d="
M33.0156 40.375
Q26.375 40.375 22.4844 35.8281
Q18.6094 31.2969 18.6094 23.3906
Q18.6094 15.5312 22.4844 10.9531
Q26.375 6.39062 33.0156 6.39062
Q39.6562 6.39062 43.5312 10.9531
Q47.4062 15.5312 47.4062 23.3906
Q47.4062 31.2969 43.5312 35.8281
Q39.6562 40.375 33.0156 40.375
M52.5938 71.2969
L52.5938 62.3125
Q48.875 64.0625 45.0938 64.9844
Q41.3125 65.9219 37.5938 65.9219
Q27.8281 65.9219 22.6719 59.3281
Q17.5312 52.7344 16.7969 39.4062
Q19.6719 43.6562 24.0156 45.9219
Q28.375 48.1875 33.5938 48.1875
Q44.5781 48.1875 50.9531 41.5156
Q57.3281 34.8594 57.3281 23.3906
Q57.3281 12.1562 50.6875 5.35938
Q44.0469 -1.42188 33.0156 -1.42188
Q20.3594 -1.42188 13.6719 8.26562
Q6.98438 17.9688 6.98438 36.375
Q6.98438 53.6562 15.1875 63.9375
Q23.3906 74.2188 37.2031 74.2188
Q40.9219 74.2188 44.7031 73.4844
Q48.4844 72.75 52.5938 71.2969" id="BitstreamVeraSans-Roman-36"/>
      </defs>
      <g transform="translate(42.828125 276.91125)scale(0.12 -0.12)">
       <use xlink:href="#BitstreamVeraSans-Roman-30"/>
       <use x="63.623046875" xlink:href="#BitstreamVeraSans-Roman-2e"/>
       <use x="95.41015625" xlink:href="#BitstreamVeraSans-Roman-30"/>
       <use x="159.033203125" xlink:href="#BitstreamVeraSans-Roman-36"/>
      </g>
     </g>
    </g>
    <g id="ytick_5">
     <g id="line2d_39">
      <g>
       <use style="stroke:#000000;stroke-width:0.5;" x="72.0" xlink:href="#m728421d6d4" y="235.2"/>
      </g>
     </g>
     <g id="line2d_40">
      <g>
       <use style="stroke:#000000;stroke-width:0.5;" x="518.4" xlink:href="#mcb0005524f" y="235.2"/>
      </g>
     </g>
     <g id="text_12">
      <!-- 0.08 -->
      <defs>
       <path d="
M31.7812 34.625
Q24.75 34.625 20.7188 30.8594
Q16.7031 27.0938 16.7031 20.5156
Q16.7031 13.9219 20.7188 10.1562
Q24.75 6.39062 31.7812 6.39062
Q38.8125 6.39062 42.8594 10.1719
Q46.9219 13.9688 46.9219 20.5156
Q46.9219 27.0938 42.8906 30.8594
Q38.875 34.625 31.7812 34.625
M21.9219 38.8125
Q15.5781 40.375 12.0312 44.7188
Q8.5 49.0781 8.5 55.3281
Q8.5 64.0625 14.7188 69.1406
Q20.9531 74.2188 31.7812 74.2188
Q42.6719 74.2188 48.875 69.1406
Q55.0781 64.0625 55.0781 55.3281
Q55.0781 49.0781 51.5312 44.7188
Q48 40.375 41.7031 38.8125
Q48.8281 37.1562 52.7969 32.3125
Q56.7812 27.4844 56.7812 20.5156
Q56.7812 9.90625 50.3125 4.23438
Q43.8438 -1.42188 31.7812 -1.42188
Q19.7344 -1.42188 13.25 4.23438
Q6.78125 9.90625 6.78125 20.5156
Q6.78125 27.4844 10.7812 32.3125
Q14.7969 37.1562 21.9219 38.8125
M18.3125 54.3906
Q18.3125 48.7344 21.8438 45.5625
Q25.3906 42.3906 31.7812 42.3906
Q38.1406 42.3906 41.7188 45.5625
Q45.3125 48.7344 45.3125 54.3906
Q45.3125 60.0625 41.7188 63.2344
Q38.1406 66.4062 31.7812 66.4062
Q25.3906 66.4062 21.8438 63.2344
Q18.3125 60.0625 18.3125 54.3906" id="BitstreamVeraSans-Roman-38"/>
      </defs>
      <g transform="translate(42.89375 238.51125)scale(0.12 -0.12)">
       <use xlink:href="#BitstreamVeraSans-Roman-30"/>
       <use x="63.623046875" xlink:href="#BitstreamVeraSans-Roman-2e"/>
       <use x="95.41015625" xlink:href="#BitstreamVeraSans-Roman-30"/>
       <use x="159.033203125" xlink:href="#BitstreamVeraSans-Roman-38"/>
      </g>
     </g>
    </g>
    <g id="ytick_6">
     <g id="line2d_41">
      <g>
       <use style="stroke:#000000;stroke-width:0.5;" x="72.0" xlink:href="#m728421d6d4" y="196.8"/>
      </g>
     </g>
     <g id="line2d_42">
      <g>
       <use style="stroke:#000000;stroke-width:0.5;" x="518.4" xlink:href="#mcb0005524f" y="196.8"/>
      </g>
     </g>
     <g id="text_13">
      <!-- 0.10 -->
      <g transform="translate(42.869375 200.11125)scale(0.12 -0.12)">
       <use xlink:href="#BitstreamVeraSans-Roman-30"/>
       <use x="63.623046875" xlink:href="#BitstreamVeraSans-Roman-2e"/>
       <use x="95.41015625" xlink:href="#BitstreamVeraSans-Roman-31"/>
       <use x="159.033203125" xlink:href="#BitstreamVeraSans-Roman-30"/>
      </g>
     </g>
    </g>
    <g id="ytick_7">
     <g id="line2d_43">
      <g>
       <use style="stroke:#000000;stroke-width:0.5;" x="72.0" xlink:href="#m728421d6d4" y="158.4"/>
      </g>
     </g>
     <g id="line2d_44">
      <g>
       <use style="stroke:#000000;stroke-width:0.5;" x="518.4" xlink:href="#mcb0005524f" y="158.4"/>
      </g>
     </g>
     <g id="text_14">
      <!-- 0.12 -->
      <g transform="translate(43.274375 161.71125)scale(0.12 -0.12)">
       <use xlink:href="#BitstreamVeraSans-Roman-30"/>
       <use x="63.623046875" xlink:href="#BitstreamVeraSans-Roman-2e"/>
       <use x="95.41015625" xlink:href="#BitstreamVeraSans-Roman-31"/>
       <use x="159.033203125" xlink:href="#BitstreamVeraSans-Roman-32"/>
      </g>
     </g>
    </g>
    <g id="ytick_8">
     <g id="line2d_45">
      <g>
       <use style="stroke:#000000;stroke-width:0.5;" x="72.0" xlink:href="#m728421d6d4" y="120.0"/>
      </g>
     </g>
     <g id="line2d_46">
      <g>
       <use style="stroke:#000000;stroke-width:0.5;" x="518.4" xlink:href="#mcb0005524f" y="120.0"/>
      </g>
     </g>
     <g id="text_15">
      <!-- 0.14 -->
      <g transform="translate(42.745625 123.31125)scale(0.12 -0.12)">
       <use xlink:href="#BitstreamVeraSans-Roman-30"/>
       <use x="63.623046875" xlink:href="#BitstreamVeraSans-Roman-2e"/>
       <use x="95.41015625" xlink:href="#BitstreamVeraSans-Roman-31"/>
       <use x="159.033203125" xlink:href="#BitstreamVeraSans-Roman-34"/>
      </g>
     </g>
    </g>
    <g id="ytick_9">
     <g id="line2d_47">
      <g>
       <use style="stroke:#000000;stroke-width:0.5;" x="72.0" xlink:href="#m728421d6d4" y="81.6"/>
      </g>
     </g>
     <g id="line2d_48">
      <g>
       <use style="stroke:#000000;stroke-width:0.5;" x="518.4" xlink:href="#mcb0005524f" y="81.6"/>
      </g>
     </g>
     <g id="text_16">
      <!-- 0.16 -->
      <g transform="translate(42.828125 84.91125)scale(0.12 -0.12)">
       <use xlink:href="#BitstreamVeraSans-Roman-30"/>
       <use x="63.623046875" xlink:href="#BitstreamVeraSans-Roman-2e"/>
       <use x="95.41015625" xlink:href="#BitstreamVeraSans-Roman-31"/>
       <use x="159.033203125" xlink:href="#BitstreamVeraSans-Roman-36"/>
      </g>
     </g>
    </g>
    <g id="ytick_10">
     <g id="line2d_49">
      <g>
       <use style="stroke:#000000;stroke-width:0.5;" x="72.0" xlink:href="#m728421d6d4" y="43.2"/>
      </g>
     </g>
     <g id="line2d_50">
      <g>
       <use style="stroke:#000000;stroke-width:0.5;" x="518.4" xlink:href="#mcb0005524f" y="43.2"/>
      </g>
     </g>
     <g id="text_17">
      <!-- 0.18 -->
      <g transform="translate(42.89375 46.51125)scale(0.12 -0.12)">
       <use xlink:href="#BitstreamVeraSans-Roman-30"/>
       <use x="63.623046875" xlink:href="#BitstreamVeraSans-Roman-2e"/>
       <use x="95.41015625" xlink:href="#BitstreamVeraSans-Roman-31"/>
       <use x="159.033203125" xlink:href="#BitstreamVeraSans-Roman-38"/>
      </g>
     </g>
    </g>
    <g id="text_18">
     <!-- Normalized PSD -->
     <defs>
      <path d="
M9.8125 72.9062
L23.0938 72.9062
L55.4219 11.9219
L55.4219 72.9062
L64.9844 72.9062
L64.9844 0
L51.7031 0
L19.3906 60.9844
L19.3906 0
L9.8125 0
z
" id="BitstreamVeraSans-Roman-4e"/>
      <path d="
M52 44.1875
Q55.375 50.25 60.0625 53.125
Q64.75 56 71.0938 56
Q79.6406 56 84.2812 50.0156
Q88.9219 44.0469 88.9219 33.0156
L88.9219 0
L79.8906 0
L79.8906 32.7188
Q79.8906 40.5781 77.0938 44.375
Q74.3125 48.1875 68.6094 48.1875
Q61.625 48.1875 57.5625 43.5469
Q53.5156 38.9219 53.5156 30.9062
L53.5156 0
L44.4844 0
L44.4844 32.7188
Q44.4844 40.625 41.7031 44.4062
Q38.9219 48.1875 33.1094 48.1875
Q26.2188 48.1875 22.1562 43.5312
Q18.1094 38.875 18.1094 30.9062
L18.1094 0
L9.07812 0
L9.07812 54.6875
L18.1094 54.6875
L18.1094 46.1875
Q21.1875 51.2188 25.4844 53.6094
Q29.7812 56 35.6875 56
Q41.6562 56 45.8281 52.9688
Q50 49.9531 52 44.1875" id="BitstreamVeraSans-Roman-6d"/>
      <path d="
M30.6094 48.3906
Q23.3906 48.3906 19.1875 42.75
Q14.9844 37.1094 14.9844 27.2969
Q14.9844 17.4844 19.1562 11.8438
Q23.3438 6.20312 30.6094 6.20312
Q37.7969 6.20312 41.9844 11.8594
Q46.1875 17.5312 46.1875 27.2969
Q46.1875 37.0156 41.9844 42.7031
Q37.7969 48.3906 30.6094 48.3906
M30.6094 56
Q42.3281 56 49.0156 48.375
Q55.7188 40.7656 55.7188 27.2969
Q55.7188 13.875 49.0156 6.21875
Q42.3281 -1.42188 30.6094 -1.42188
Q18.8438 -1.42188 12.1719 6.21875
Q5.51562 13.875 5.51562 27.2969
Q5.51562 40.7656 12.1719 48.375
Q18.8438 56 30.6094 56" id="BitstreamVeraSans-Roman-6f"/>
      <path d="
M9.42188 75.9844
L18.4062 75.9844
L18.4062 0
L9.42188 0
z
" id="BitstreamVeraSans-Roman-6c"/>
      <path d="
M19.6719 64.7969
L19.6719 37.4062
L32.0781 37.4062
Q38.9688 37.4062 42.7188 40.9688
Q46.4844 44.5312 46.4844 51.125
Q46.4844 57.6719 42.7188 61.2344
Q38.9688 64.7969 32.0781 64.7969
z

M9.8125 72.9062
L32.0781 72.9062
Q44.3438 72.9062 50.6094 67.3594
Q56.8906 61.8125 56.8906 51.125
Q56.8906 40.3281 50.6094 34.8125
Q44.3438 29.2969 32.0781 29.2969
L19.6719 29.2969
L19.6719 0
L9.8125 0
z
" id="BitstreamVeraSans-Roman-50"/>
      <path d="
M19.6719 64.7969
L19.6719 8.10938
L31.5938 8.10938
Q46.6875 8.10938 53.6875 14.9375
Q60.6875 21.7812 60.6875 36.5312
Q60.6875 51.1719 53.6875 57.9844
Q46.6875 64.7969 31.5938 64.7969
z

M9.8125 72.9062
L30.0781 72.9062
Q51.2656 72.9062 61.1719 64.0938
Q71.0938 55.2812 71.0938 36.5312
Q71.0938 17.6719 61.125 8.82812
Q51.1719 0 30.0781 0
L9.8125 0
z
" id="BitstreamVeraSans-Roman-44"/>
      <path d="
M53.5156 70.5156
L53.5156 60.8906
Q47.9062 63.5781 42.9219 64.8906
Q37.9375 66.2188 33.2969 66.2188
Q25.25 66.2188 20.875 63.0938
Q16.5 59.9688 16.5 54.2031
Q16.5 49.3594 19.4062 46.8906
Q22.3125 44.4375 30.4219 42.9219
L36.375 41.7031
Q47.4062 39.5938 52.6562 34.2969
Q57.9062 29 57.9062 20.125
Q57.9062 9.51562 50.7969 4.04688
Q43.7031 -1.42188 29.9844 -1.42188
Q24.8125 -1.42188 18.9688 -0.25
Q13.1406 0.921875 6.89062 3.21875
L6.89062 13.375
Q12.8906 10.0156 18.6562 8.29688
Q24.4219 6.59375 29.9844 6.59375
Q38.4219 6.59375 43.0156 9.90625
Q47.6094 13.2344 47.6094 19.3906
Q47.6094 24.75 44.3125 27.7812
Q41.0156 30.8125 33.5 32.3281
L27.4844 33.5
Q16.4531 35.6875 11.5156 40.375
Q6.59375 45.0625 6.59375 53.4219
Q6.59375 63.0938 13.4062 68.6562
Q20.2188 74.2188 32.1719 74.2188
Q37.3125 74.2188 42.625 73.2812
Q47.9531 72.3594 53.5156 70.5156" id="BitstreamVeraSans-Roman-53"/>
      <path d="
M9.42188 54.6875
L18.4062 54.6875
L18.4062 0
L9.42188 0
z

M9.42188 75.9844
L18.4062 75.9844
L18.4062 64.5938
L9.42188 64.5938
z
" id="BitstreamVeraSans-Roman-69"/>
      <path d="
M45.4062 46.3906
L45.4062 75.9844
L54.3906 75.9844
L54.3906 0
L45.4062 0
L45.4062 8.20312
Q42.5781 3.32812 38.25 0.953125
Q33.9375 -1.42188 27.875 -1.42188
Q17.9688 -1.42188 11.7344 6.48438
Q5.51562 14.4062 5.51562 27.2969
Q5.51562 40.1875 11.7344 48.0938
Q17.9688 56 27.875 56
Q33.9375 56 38.25 53.625
Q42.5781 51.2656 45.4062 46.3906
M14.7969 27.2969
Q14.7969 17.3906 18.875 11.75
Q22.9531 6.10938 30.0781 6.10938
Q37.2031 6.10938 41.2969 11.75
Q45.4062 17.3906 45.4062 27.2969
Q45.4062 37.2031 41.2969 42.8438
Q37.2031 48.4844 30.0781 48.4844
Q22.9531 48.4844 18.875 42.8438
Q14.7969 37.2031 14.7969 27.2969" id="BitstreamVeraSans-Roman-64"/>
      <path d="
M34.2812 27.4844
Q23.3906 27.4844 19.1875 25
Q14.9844 22.5156 14.9844 16.5
Q14.9844 11.7188 18.1406 8.90625
Q21.2969 6.10938 26.7031 6.10938
Q34.1875 6.10938 38.7031 11.4062
Q43.2188 16.7031 43.2188 25.4844
L43.2188 27.4844
z

M52.2031 31.2031
L52.2031 0
L43.2188 0
L43.2188 8.29688
Q40.1406 3.32812 35.5469 0.953125
Q30.9531 -1.42188 24.3125 -1.42188
Q15.9219 -1.42188 10.9531 3.29688
Q6 8.01562 6 15.9219
Q6 25.1406 12.1719 29.8281
Q18.3594 34.5156 30.6094 34.5156
L43.2188 34.5156
L43.2188 35.4062
Q43.2188 41.6094 39.1406 45
Q35.0625 48.3906 27.6875 48.3906
Q23 48.3906 18.5469 47.2656
Q14.1094 46.1406 10.0156 43.8906
L10.0156 52.2031
Q14.9375 54.1094 19.5781 55.0469
Q24.2188 56 28.6094 56
Q40.4844 56 46.3438 49.8438
Q52.2031 43.7031 52.2031 31.2031" id="BitstreamVeraSans-Roman-61"/>
     </defs>
     <g transform="translate(35.25 263.6259375)rotate(-90.0)scale(0.12 -0.12)">
      <use xlink:href="#BitstreamVeraSans-Roman-4e"/>
      <use x="74.8046875" xlink:href="#BitstreamVeraSans-Roman-6f"/>
      <use x="135.986328125" xlink:href="#BitstreamVeraSans-Roman-72"/>
      <use x="175.349609375" xlink:href="#BitstreamVeraSans-Roman-6d"/>
      <use x="272.76171875" xlink:href="#BitstreamVeraSans-Roman-61"/>
      <use x="334.041015625" xlink:href="#BitstreamVeraSans-Roman-6c"/>
      <use x="361.82421875" xlink:href="#BitstreamVeraSans-Roman-69"/>
      <use x="389.607421875" xlink:href="#BitstreamVeraSans-Roman-7a"/>
      <use x="442.09765625" xlink:href="#BitstreamVeraSans-Roman-65"/>
      <use x="503.62109375" xlink:href="#BitstreamVeraSans-Roman-64"/>
      <use x="567.09765625" xlink:href="#BitstreamVeraSans-Roman-20"/>
      <use x="598.884765625" xlink:href="#BitstreamVeraSans-Roman-50"/>
      <use x="659.1875" xlink:href="#BitstreamVeraSans-Roman-53"/>
      <use x="722.6640625" xlink:href="#BitstreamVeraSans-Roman-44"/>
     </g>
    </g>
   </g>
   <g id="text_19">
    <!-- Channel 82- Successful Trial-Averaged PSD -->
    <defs>
     <path d="
M37.1094 75.9844
L37.1094 68.5
L28.5156 68.5
Q23.6875 68.5 21.7969 66.5469
Q19.9219 64.5938 19.9219 59.5156
L19.9219 54.6875
L34.7188 54.6875
L34.7188 47.7031
L19.9219 47.7031
L19.9219 0
L10.8906 0
L10.8906 47.7031
L2.29688 47.7031
L2.29688 54.6875
L10.8906 54.6875
L10.8906 58.5
Q10.8906 67.625 15.1406 71.7969
Q19.3906 75.9844 28.6094 75.9844
z
" id="BitstreamVeraSans-Roman-66"/>
     <path d="
M54.8906 33.0156
L54.8906 0
L45.9062 0
L45.9062 32.7188
Q45.9062 40.4844 42.875 44.3281
Q39.8438 48.1875 33.7969 48.1875
Q26.5156 48.1875 22.3125 43.5469
Q18.1094 38.9219 18.1094 30.9062
L18.1094 0
L9.07812 0
L9.07812 54.6875
L18.1094 54.6875
L18.1094 46.1875
Q21.3438 51.125 25.7031 53.5625
Q30.0781 56 35.7969 56
Q45.2188 56 50.0469 50.1719
Q54.8906 44.3438 54.8906 33.0156" id="BitstreamVeraSans-Roman-6e"/>
     <path d="
M64.4062 67.2812
L64.4062 56.8906
Q59.4219 61.5312 53.7812 63.8125
Q48.1406 66.1094 41.7969 66.1094
Q29.2969 66.1094 22.6562 58.4688
Q16.0156 50.8281 16.0156 36.375
Q16.0156 21.9688 22.6562 14.3281
Q29.2969 6.6875 41.7969 6.6875
Q48.1406 6.6875 53.7812 8.98438
Q59.4219 11.2812 64.4062 15.9219
L64.4062 5.60938
Q59.2344 2.09375 53.4375 0.328125
Q47.6562 -1.42188 41.2188 -1.42188
Q24.6562 -1.42188 15.125 8.70312
Q5.60938 18.8438 5.60938 36.375
Q5.60938 53.9531 15.125 64.0781
Q24.6562 74.2188 41.2188 74.2188
Q47.75 74.2188 53.5312 72.4844
Q59.3281 70.75 64.4062 67.2812" id="BitstreamVeraSans-Roman-43"/>
     <path d="
M54.8906 33.0156
L54.8906 0
L45.9062 0
L45.9062 32.7188
Q45.9062 40.4844 42.875 44.3281
Q39.8438 48.1875 33.7969 48.1875
Q26.5156 48.1875 22.3125 43.5469
Q18.1094 38.9219 18.1094 30.9062
L18.1094 0
L9.07812 0
L9.07812 75.9844
L18.1094 75.9844
L18.1094 46.1875
Q21.3438 51.125 25.7031 53.5625
Q30.0781 56 35.7969 56
Q45.2188 56 50.0469 50.1719
Q54.8906 44.3438 54.8906 33.0156" id="BitstreamVeraSans-Roman-68"/>
     <path d="
M34.1875 63.1875
L20.7969 26.9062
L47.6094 26.9062
z

M28.6094 72.9062
L39.7969 72.9062
L67.5781 0
L57.3281 0
L50.6875 18.7031
L17.8281 18.7031
L11.1875 0
L0.78125 0
z
" id="BitstreamVeraSans-Roman-41"/>
     <path d="
M2.98438 54.6875
L12.5 54.6875
L29.5938 8.79688
L46.6875 54.6875
L56.2031 54.6875
L35.6875 0
L23.4844 0
z
" id="BitstreamVeraSans-Roman-76"/>
     <path d="
M-0.296875 72.9062
L61.375 72.9062
L61.375 64.5938
L35.5 64.5938
L35.5 0
L25.5938 0
L25.5938 64.5938
L-0.296875 64.5938
z
" id="BitstreamVeraSans-Roman-54"/>
     <path d="
M45.4062 27.9844
Q45.4062 37.75 41.375 43.1094
Q37.3594 48.4844 30.0781 48.4844
Q22.8594 48.4844 18.8281 43.1094
Q14.7969 37.75 14.7969 27.9844
Q14.7969 18.2656 18.8281 12.8906
Q22.8594 7.51562 30.0781 7.51562
Q37.3594 7.51562 41.375 12.8906
Q45.4062 18.2656 45.4062 27.9844
M54.3906 6.78125
Q54.3906 -7.17188 48.1875 -13.9844
Q42 -20.7969 29.2031 -20.7969
Q24.4688 -20.7969 20.2656 -20.0938
Q16.0625 -19.3906 12.1094 -17.9219
L12.1094 -9.1875
Q16.0625 -11.3281 19.9219 -12.3438
Q23.7812 -13.375 27.7812 -13.375
Q36.625 -13.375 41.0156 -8.76562
Q45.4062 -4.15625 45.4062 5.17188
L45.4062 9.625
Q42.625 4.78125 38.2812 2.39062
Q33.9375 0 27.875 0
Q17.8281 0 11.6719 7.65625
Q5.51562 15.3281 5.51562 27.9844
Q5.51562 40.6719 11.6719 48.3281
Q17.8281 56 27.875 56
Q33.9375 56 38.2812 53.6094
Q42.625 51.2188 45.4062 46.3906
L45.4062 54.6875
L54.3906 54.6875
z
" id="BitstreamVeraSans-Roman-67"/>
     <path d="
M8.5 21.5781
L8.5 54.6875
L17.4844 54.6875
L17.4844 21.9219
Q17.4844 14.1562 20.5 10.2656
Q23.5312 6.39062 29.5938 6.39062
Q36.8594 6.39062 41.0781 11.0312
Q45.3125 15.6719 45.3125 23.6875
L45.3125 54.6875
L54.2969 54.6875
L54.2969 0
L45.3125 0
L45.3125 8.40625
Q42.0469 3.42188 37.7188 1
Q33.4062 -1.42188 27.6875 -1.42188
Q18.2656 -1.42188 13.375 4.4375
Q8.5 10.2969 8.5 21.5781" id="BitstreamVeraSans-Roman-75"/>
     <path d="
M44.2812 53.0781
L44.2812 44.5781
Q40.4844 46.5312 36.375 47.5
Q32.2812 48.4844 27.875 48.4844
Q21.1875 48.4844 17.8438 46.4375
Q14.5 44.3906 14.5 40.2812
Q14.5 37.1562 16.8906 35.375
Q19.2812 33.5938 26.5156 31.9844
L29.5938 31.2969
Q39.1562 29.25 43.1875 25.5156
Q47.2188 21.7812 47.2188 15.0938
Q47.2188 7.46875 41.1875 3.01562
Q35.1562 -1.42188 24.6094 -1.42188
Q20.2188 -1.42188 15.4531 -0.5625
Q10.6875 0.296875 5.42188 2
L5.42188 11.2812
Q10.4062 8.6875 15.2344 7.39062
Q20.0625 6.10938 24.8125 6.10938
Q31.1562 6.10938 34.5625 8.28125
Q37.9844 10.4531 37.9844 14.4062
Q37.9844 18.0625 35.5156 20.0156
Q33.0625 21.9688 24.7031 23.7812
L21.5781 24.5156
Q13.2344 26.2656 9.51562 29.9062
Q5.8125 33.5469 5.8125 39.8906
Q5.8125 47.6094 11.2812 51.7969
Q16.75 56 26.8125 56
Q31.7812 56 36.1719 55.2656
Q40.5781 54.5469 44.2812 53.0781" id="BitstreamVeraSans-Roman-73"/>
     <path d="
M48.7812 52.5938
L48.7812 44.1875
Q44.9688 46.2969 41.1406 47.3438
Q37.3125 48.3906 33.4062 48.3906
Q24.6562 48.3906 19.8125 42.8438
Q14.9844 37.3125 14.9844 27.2969
Q14.9844 17.2812 19.8125 11.7344
Q24.6562 6.20312 33.4062 6.20312
Q37.3125 6.20312 41.1406 7.25
Q44.9688 8.29688 48.7812 10.4062
L48.7812 2.09375
Q45.0156 0.34375 40.9844 -0.53125
Q36.9688 -1.42188 32.4219 -1.42188
Q20.0625 -1.42188 12.7812 6.34375
Q5.51562 14.1094 5.51562 27.2969
Q5.51562 40.6719 12.8594 48.3281
Q20.2188 56 33.0156 56
Q37.1562 56 41.1094 55.1406
Q45.0625 54.2969 48.7812 52.5938" id="BitstreamVeraSans-Roman-63"/>
     <path d="
M4.89062 31.3906
L31.2031 31.3906
L31.2031 23.3906
L4.89062 23.3906
z
" id="BitstreamVeraSans-Roman-2d"/>
    </defs>
    <g transform="translate(141.33375 38.2)scale(0.144 -0.144)">
     <use xlink:href="#BitstreamVeraSans-Roman-43"/>
     <use x="69.82421875" xlink:href="#BitstreamVeraSans-Roman-68"/>
     <use x="133.203125" xlink:href="#BitstreamVeraSans-Roman-61"/>
     <use x="194.482421875" xlink:href="#BitstreamVeraSans-Roman-6e"/>
     <use x="257.861328125" xlink:href="#BitstreamVeraSans-Roman-6e"/>
     <use x="321.240234375" xlink:href="#BitstreamVeraSans-Roman-65"/>
     <use x="382.763671875" xlink:href="#BitstreamVeraSans-Roman-6c"/>
     <use x="410.546875" xlink:href="#BitstreamVeraSans-Roman-20"/>
     <use x="442.333984375" xlink:href="#BitstreamVeraSans-Roman-38"/>
     <use x="505.95703125" xlink:href="#BitstreamVeraSans-Roman-32"/>
     <use x="569.580078125" xlink:href="#BitstreamVeraSans-Roman-2d"/>
     <use x="605.6640625" xlink:href="#BitstreamVeraSans-Roman-20"/>
     <use x="637.451171875" xlink:href="#BitstreamVeraSans-Roman-53"/>
     <use x="700.927734375" xlink:href="#BitstreamVeraSans-Roman-75"/>
     <use x="764.306640625" xlink:href="#BitstreamVeraSans-Roman-63"/>
     <use x="819.287109375" xlink:href="#BitstreamVeraSans-Roman-63"/>
     <use x="874.267578125" xlink:href="#BitstreamVeraSans-Roman-65"/>
     <use x="935.791015625" xlink:href="#BitstreamVeraSans-Roman-73"/>
     <use x="987.890625" xlink:href="#BitstreamVeraSans-Roman-73"/>
     <use x="1039.99023438" xlink:href="#BitstreamVeraSans-Roman-66"/>
     <use x="1075.1953125" xlink:href="#BitstreamVeraSans-Roman-75"/>
     <use x="1138.57421875" xlink:href="#BitstreamVeraSans-Roman-6c"/>
     <use x="1166.35742188" xlink:href="#BitstreamVeraSans-Roman-20"/>
     <use x="1198.14453125" xlink:href="#BitstreamVeraSans-Roman-54"/>
     <use x="1244.47851562" xlink:href="#BitstreamVeraSans-Roman-72"/>
     <use x="1285.59179688" xlink:href="#BitstreamVeraSans-Roman-69"/>
     <use x="1313.375" xlink:href="#BitstreamVeraSans-Roman-61"/>
     <use x="1374.65429688" xlink:href="#BitstreamVeraSans-Roman-6c"/>
     <use x="1402.4375" xlink:href="#BitstreamVeraSans-Roman-2d"/>
     <use x="1436.27148438" xlink:href="#BitstreamVeraSans-Roman-41"/>
     <use x="1498.8046875" xlink:href="#BitstreamVeraSans-Roman-76"/>
     <use x="1557.984375" xlink:href="#BitstreamVeraSans-Roman-65"/>
     <use x="1619.5078125" xlink:href="#BitstreamVeraSans-Roman-72"/>
     <use x="1660.62109375" xlink:href="#BitstreamVeraSans-Roman-61"/>
     <use x="1721.90039062" xlink:href="#BitstreamVeraSans-Roman-67"/>
     <use x="1785.37695312" xlink:href="#BitstreamVeraSans-Roman-65"/>
     <use x="1846.90039062" xlink:href="#BitstreamVeraSans-Roman-64"/>
     <use x="1910.37695312" xlink:href="#BitstreamVeraSans-Roman-20"/>
     <use x="1942.1640625" xlink:href="#BitstreamVeraSans-Roman-50"/>
     <use x="2002.46679688" xlink:href="#BitstreamVeraSans-Roman-53"/>
     <use x="2065.94335938" xlink:href="#BitstreamVeraSans-Roman-44"/>
    </g>
   </g>
   <g id="legend_1">
    <g id="patch_7">
     <path d="
M363.337 435.177
L511.2 435.177
L511.2 50.4
L363.337 50.4
z
" style="fill:#ffffff;stroke:#000000;stroke-linejoin:miter;"/>
    </g>
    <g id="line2d_51">
     <path d="
M373.417 62.0617
L393.577 62.0617" style="fill:none;stroke:#ff0000;stroke-linecap:square;"/>
    </g>
    <g id="line2d_52"/>
    <g id="text_20">
     <!-- Stress Trials -->
     <defs>
      <path d="
M18.3125 70.2188
L18.3125 54.6875
L36.8125 54.6875
L36.8125 47.7031
L18.3125 47.7031
L18.3125 18.0156
Q18.3125 11.3281 20.1406 9.42188
Q21.9688 7.51562 27.5938 7.51562
L36.8125 7.51562
L36.8125 0
L27.5938 0
Q17.1875 0 13.2344 3.875
Q9.28125 7.76562 9.28125 18.0156
L9.28125 47.7031
L2.6875 47.7031
L2.6875 54.6875
L9.28125 54.6875
L9.28125 70.2188
z
" id="BitstreamVeraSans-Roman-74"/>
     </defs>
     <g transform="translate(409.41675 67.10175)scale(0.144 -0.144)">
      <use xlink:href="#BitstreamVeraSans-Roman-53"/>
      <use x="63.4765625" xlink:href="#BitstreamVeraSans-Roman-74"/>
      <use x="102.685546875" xlink:href="#BitstreamVeraSans-Roman-72"/>
      <use x="141.548828125" xlink:href="#BitstreamVeraSans-Roman-65"/>
      <use x="203.072265625" xlink:href="#BitstreamVeraSans-Roman-73"/>
      <use x="255.171875" xlink:href="#BitstreamVeraSans-Roman-73"/>
      <use x="307.271484375" xlink:href="#BitstreamVeraSans-Roman-20"/>
      <use x="339.05859375" xlink:href="#BitstreamVeraSans-Roman-54"/>
      <use x="385.392578125" xlink:href="#BitstreamVeraSans-Roman-72"/>
      <use x="426.505859375" xlink:href="#BitstreamVeraSans-Roman-69"/>
      <use x="454.2890625" xlink:href="#BitstreamVeraSans-Roman-61"/>
      <use x="515.568359375" xlink:href="#BitstreamVeraSans-Roman-6c"/>
      <use x="543.3515625" xlink:href="#BitstreamVeraSans-Roman-73"/>
     </g>
    </g>
    <g id="line2d_53">
     <path d="
M373.417 83.1982
L393.577 83.1982" style="fill:none;stroke:#0000ff;stroke-linecap:square;"/>
    </g>
    <g id="line2d_54"/>
    <g id="text_21">
     <!-- Regular Trials -->
     <defs>
      <path d="
M44.3906 34.1875
Q47.5625 33.1094 50.5625 29.5938
Q53.5625 26.0781 56.5938 19.9219
L66.6094 0
L56 0
L46.6875 18.7031
Q43.0625 26.0312 39.6719 28.4219
Q36.2812 30.8125 30.4219 30.8125
L19.6719 30.8125
L19.6719 0
L9.8125 0
L9.8125 72.9062
L32.0781 72.9062
Q44.5781 72.9062 50.7344 67.6719
Q56.8906 62.4531 56.8906 51.9062
Q56.8906 45.0156 53.6875 40.4688
Q50.4844 35.9375 44.3906 34.1875
M19.6719 64.7969
L19.6719 38.9219
L32.0781 38.9219
Q39.2031 38.9219 42.8438 42.2188
Q46.4844 45.5156 46.4844 51.9062
Q46.4844 58.2969 42.8438 61.5469
Q39.2031 64.7969 32.0781 64.7969
z
" id="BitstreamVeraSans-Roman-52"/>
     </defs>
     <g transform="translate(409.41675 88.23825)scale(0.144 -0.144)">
      <use xlink:href="#BitstreamVeraSans-Roman-52"/>
      <use x="64.982421875" xlink:href="#BitstreamVeraSans-Roman-65"/>
      <use x="126.505859375" xlink:href="#BitstreamVeraSans-Roman-67"/>
      <use x="189.982421875" xlink:href="#BitstreamVeraSans-Roman-75"/>
      <use x="253.361328125" xlink:href="#BitstreamVeraSans-Roman-6c"/>
      <use x="281.14453125" xlink:href="#BitstreamVeraSans-Roman-61"/>
      <use x="342.423828125" xlink:href="#BitstreamVeraSans-Roman-72"/>
      <use x="383.537109375" xlink:href="#BitstreamVeraSans-Roman-20"/>
      <use x="415.32421875" xlink:href="#BitstreamVeraSans-Roman-54"/>
      <use x="461.658203125" xlink:href="#BitstreamVeraSans-Roman-72"/>
      <use x="502.771484375" xlink:href="#BitstreamVeraSans-Roman-69"/>
      <use x="530.5546875" xlink:href="#BitstreamVeraSans-Roman-61"/>
      <use x="591.833984375" xlink:href="#BitstreamVeraSans-Roman-6c"/>
      <use x="619.6171875" xlink:href="#BitstreamVeraSans-Roman-73"/>
     </g>
    </g>
    <g id="line2d_55">
     <path d="
M373.417 104.335
L393.577 104.335" style="fill:none;stroke:#ff0000;stroke-linecap:square;"/>
    </g>
    <g id="line2d_56"/>
    <g id="text_22">
     <!-- Stress Trials -->
     <g transform="translate(409.41675 109.37475)scale(0.144 -0.144)">
      <use xlink:href="#BitstreamVeraSans-Roman-53"/>
      <use x="63.4765625" xlink:href="#BitstreamVeraSans-Roman-74"/>
      <use x="102.685546875" xlink:href="#BitstreamVeraSans-Roman-72"/>
      <use x="141.548828125" xlink:href="#BitstreamVeraSans-Roman-65"/>
      <use x="203.072265625" xlink:href="#BitstreamVeraSans-Roman-73"/>
      <use x="255.171875" xlink:href="#BitstreamVeraSans-Roman-73"/>
      <use x="307.271484375" xlink:href="#BitstreamVeraSans-Roman-20"/>
      <use x="339.05859375" xlink:href="#BitstreamVeraSans-Roman-54"/>
      <use x="385.392578125" xlink:href="#BitstreamVeraSans-Roman-72"/>
      <use x="426.505859375" xlink:href="#BitstreamVeraSans-Roman-69"/>
      <use x="454.2890625" xlink:href="#BitstreamVeraSans-Roman-61"/>
      <use x="515.568359375" xlink:href="#BitstreamVeraSans-Roman-6c"/>
      <use x="543.3515625" xlink:href="#BitstreamVeraSans-Roman-73"/>
     </g>
    </g>
    <g id="line2d_57">
     <path d="
M373.417 125.471
L393.577 125.471" style="fill:none;stroke:#0000ff;stroke-linecap:square;"/>
    </g>
    <g id="line2d_58"/>
    <g id="text_23">
     <!-- Regular Trials -->
     <g transform="translate(409.41675 130.51125)scale(0.144 -0.144)">
      <use xlink:href="#BitstreamVeraSans-Roman-52"/>
      <use x="64.982421875" xlink:href="#BitstreamVeraSans-Roman-65"/>
      <use x="126.505859375" xlink:href="#BitstreamVeraSans-Roman-67"/>
      <use x="189.982421875" xlink:href="#BitstreamVeraSans-Roman-75"/>
      <use x="253.361328125" xlink:href="#BitstreamVeraSans-Roman-6c"/>
      <use x="281.14453125" xlink:href="#BitstreamVeraSans-Roman-61"/>
      <use x="342.423828125" xlink:href="#BitstreamVeraSans-Roman-72"/>
      <use x="383.537109375" xlink:href="#BitstreamVeraSans-Roman-20"/>
      <use x="415.32421875" xlink:href="#BitstreamVeraSans-Roman-54"/>
      <use x="461.658203125" xlink:href="#BitstreamVeraSans-Roman-72"/>
      <use x="502.771484375" xlink:href="#BitstreamVeraSans-Roman-69"/>
      <use x="530.5546875" xlink:href="#BitstreamVeraSans-Roman-61"/>
      <use x="591.833984375" xlink:href="#BitstreamVeraSans-Roman-6c"/>
      <use x="619.6171875" xlink:href="#BitstreamVeraSans-Roman-73"/>
     </g>
    </g>
    <g id="line2d_59">
     <path d="
M373.417 146.608
L393.577 146.608" style="fill:none;stroke:#ff0000;stroke-linecap:square;"/>
    </g>
    <g id="line2d_60"/>
    <g id="text_24">
     <!-- Stress Trials -->
     <g transform="translate(409.41675 151.64775)scale(0.144 -0.144)">
      <use xlink:href="#BitstreamVeraSans-Roman-53"/>
      <use x="63.4765625" xlink:href="#BitstreamVeraSans-Roman-74"/>
      <use x="102.685546875" xlink:href="#BitstreamVeraSans-Roman-72"/>
      <use x="141.548828125" xlink:href="#BitstreamVeraSans-Roman-65"/>
      <use x="203.072265625" xlink:href="#BitstreamVeraSans-Roman-73"/>
      <use x="255.171875" xlink:href="#BitstreamVeraSans-Roman-73"/>
      <use x="307.271484375" xlink:href="#BitstreamVeraSans-Roman-20"/>
      <use x="339.05859375" xlink:href="#BitstreamVeraSans-Roman-54"/>
      <use x="385.392578125" xlink:href="#BitstreamVeraSans-Roman-72"/>
      <use x="426.505859375" xlink:href="#BitstreamVeraSans-Roman-69"/>
      <use x="454.2890625" xlink:href="#BitstreamVeraSans-Roman-61"/>
      <use x="515.568359375" xlink:href="#BitstreamVeraSans-Roman-6c"/>
      <use x="543.3515625" xlink:href="#BitstreamVeraSans-Roman-73"/>
     </g>
    </g>
    <g id="line2d_61">
     <path d="
M373.417 167.744
L393.577 167.744" style="fill:none;stroke:#0000ff;stroke-linecap:square;"/>
    </g>
    <g id="line2d_62"/>
    <g id="text_25">
     <!-- Regular Trials -->
     <g transform="translate(409.41675 172.78425)scale(0.144 -0.144)">
      <use xlink:href="#BitstreamVeraSans-Roman-52"/>
      <use x="64.982421875" xlink:href="#BitstreamVeraSans-Roman-65"/>
      <use x="126.505859375" xlink:href="#BitstreamVeraSans-Roman-67"/>
      <use x="189.982421875" xlink:href="#BitstreamVeraSans-Roman-75"/>
      <use x="253.361328125" xlink:href="#BitstreamVeraSans-Roman-6c"/>
      <use x="281.14453125" xlink:href="#BitstreamVeraSans-Roman-61"/>
      <use x="342.423828125" xlink:href="#BitstreamVeraSans-Roman-72"/>
      <use x="383.537109375" xlink:href="#BitstreamVeraSans-Roman-20"/>
      <use x="415.32421875" xlink:href="#BitstreamVeraSans-Roman-54"/>
      <use x="461.658203125" xlink:href="#BitstreamVeraSans-Roman-72"/>
      <use x="502.771484375" xlink:href="#BitstreamVeraSans-Roman-69"/>
      <use x="530.5546875" xlink:href="#BitstreamVeraSans-Roman-61"/>
      <use x="591.833984375" xlink:href="#BitstreamVeraSans-Roman-6c"/>
      <use x="619.6171875" xlink:href="#BitstreamVeraSans-Roman-73"/>
     </g>
    </g>
    <g id="line2d_63">
     <path d="
M373.417 188.881
L393.577 188.881" style="fill:none;stroke:#ff0000;stroke-linecap:square;"/>
    </g>
    <g id="line2d_64"/>
    <g id="text_26">
     <!-- Stress Trials -->
     <g transform="translate(409.41675 193.92075)scale(0.144 -0.144)">
      <use xlink:href="#BitstreamVeraSans-Roman-53"/>
      <use x="63.4765625" xlink:href="#BitstreamVeraSans-Roman-74"/>
      <use x="102.685546875" xlink:href="#BitstreamVeraSans-Roman-72"/>
      <use x="141.548828125" xlink:href="#BitstreamVeraSans-Roman-65"/>
      <use x="203.072265625" xlink:href="#BitstreamVeraSans-Roman-73"/>
      <use x="255.171875" xlink:href="#BitstreamVeraSans-Roman-73"/>
      <use x="307.271484375" xlink:href="#BitstreamVeraSans-Roman-20"/>
      <use x="339.05859375" xlink:href="#BitstreamVeraSans-Roman-54"/>
      <use x="385.392578125" xlink:href="#BitstreamVeraSans-Roman-72"/>
      <use x="426.505859375" xlink:href="#BitstreamVeraSans-Roman-69"/>
      <use x="454.2890625" xlink:href="#BitstreamVeraSans-Roman-61"/>
      <use x="515.568359375" xlink:href="#BitstreamVeraSans-Roman-6c"/>
      <use x="543.3515625" xlink:href="#BitstreamVeraSans-Roman-73"/>
     </g>
    </g>
    <g id="line2d_65">
     <path d="
M373.417 210.017
L393.577 210.017" style="fill:none;stroke:#0000ff;stroke-linecap:square;"/>
    </g>
    <g id="line2d_66"/>
    <g id="text_27">
     <!-- Regular Trials -->
     <g transform="translate(409.41675 215.05725)scale(0.144 -0.144)">
      <use xlink:href="#BitstreamVeraSans-Roman-52"/>
      <use x="64.982421875" xlink:href="#BitstreamVeraSans-Roman-65"/>
      <use x="126.505859375" xlink:href="#BitstreamVeraSans-Roman-67"/>
      <use x="189.982421875" xlink:href="#BitstreamVeraSans-Roman-75"/>
      <use x="253.361328125" xlink:href="#BitstreamVeraSans-Roman-6c"/>
      <use x="281.14453125" xlink:href="#BitstreamVeraSans-Roman-61"/>
      <use x="342.423828125" xlink:href="#BitstreamVeraSans-Roman-72"/>
      <use x="383.537109375" xlink:href="#BitstreamVeraSans-Roman-20"/>
      <use x="415.32421875" xlink:href="#BitstreamVeraSans-Roman-54"/>
      <use x="461.658203125" xlink:href="#BitstreamVeraSans-Roman-72"/>
      <use x="502.771484375" xlink:href="#BitstreamVeraSans-Roman-69"/>
      <use x="530.5546875" xlink:href="#BitstreamVeraSans-Roman-61"/>
      <use x="591.833984375" xlink:href="#BitstreamVeraSans-Roman-6c"/>
      <use x="619.6171875" xlink:href="#BitstreamVeraSans-Roman-73"/>
     </g>
    </g>
    <g id="line2d_67">
     <path d="
M373.417 231.154
L393.577 231.154" style="fill:none;stroke:#ff0000;stroke-linecap:square;"/>
    </g>
    <g id="line2d_68"/>
    <g id="text_28">
     <!-- Stress Trials -->
     <g transform="translate(409.41675 236.19375)scale(0.144 -0.144)">
      <use xlink:href="#BitstreamVeraSans-Roman-53"/>
      <use x="63.4765625" xlink:href="#BitstreamVeraSans-Roman-74"/>
      <use x="102.685546875" xlink:href="#BitstreamVeraSans-Roman-72"/>
      <use x="141.548828125" xlink:href="#BitstreamVeraSans-Roman-65"/>
      <use x="203.072265625" xlink:href="#BitstreamVeraSans-Roman-73"/>
      <use x="255.171875" xlink:href="#BitstreamVeraSans-Roman-73"/>
      <use x="307.271484375" xlink:href="#BitstreamVeraSans-Roman-20"/>
      <use x="339.05859375" xlink:href="#BitstreamVeraSans-Roman-54"/>
      <use x="385.392578125" xlink:href="#BitstreamVeraSans-Roman-72"/>
      <use x="426.505859375" xlink:href="#BitstreamVeraSans-Roman-69"/>
      <use x="454.2890625" xlink:href="#BitstreamVeraSans-Roman-61"/>
      <use x="515.568359375" xlink:href="#BitstreamVeraSans-Roman-6c"/>
      <use x="543.3515625" xlink:href="#BitstreamVeraSans-Roman-73"/>
     </g>
    </g>
    <g id="line2d_69">
     <path d="
M373.417 252.29
L393.577 252.29" style="fill:none;stroke:#0000ff;stroke-linecap:square;"/>
    </g>
    <g id="line2d_70"/>
    <g id="text_29">
     <!-- Regular Trials -->
     <g transform="translate(409.41675 257.33025)scale(0.144 -0.144)">
      <use xlink:href="#BitstreamVeraSans-Roman-52"/>
      <use x="64.982421875" xlink:href="#BitstreamVeraSans-Roman-65"/>
      <use x="126.505859375" xlink:href="#BitstreamVeraSans-Roman-67"/>
      <use x="189.982421875" xlink:href="#BitstreamVeraSans-Roman-75"/>
      <use x="253.361328125" xlink:href="#BitstreamVeraSans-Roman-6c"/>
      <use x="281.14453125" xlink:href="#BitstreamVeraSans-Roman-61"/>
      <use x="342.423828125" xlink:href="#BitstreamVeraSans-Roman-72"/>
      <use x="383.537109375" xlink:href="#BitstreamVeraSans-Roman-20"/>
      <use x="415.32421875" xlink:href="#BitstreamVeraSans-Roman-54"/>
      <use x="461.658203125" xlink:href="#BitstreamVeraSans-Roman-72"/>
      <use x="502.771484375" xlink:href="#BitstreamVeraSans-Roman-69"/>
      <use x="530.5546875" xlink:href="#BitstreamVeraSans-Roman-61"/>
      <use x="591.833984375" xlink:href="#BitstreamVeraSans-Roman-6c"/>
      <use x="619.6171875" xlink:href="#BitstreamVeraSans-Roman-73"/>
     </g>
    </g>
    <g id="line2d_71">
     <path d="
M373.417 273.427
L393.577 273.427" style="fill:none;stroke:#ff0000;stroke-linecap:square;"/>
    </g>
    <g id="line2d_72"/>
    <g id="text_30">
     <!-- Stress Trials -->
     <g transform="translate(409.41675 278.46675)scale(0.144 -0.144)">
      <use xlink:href="#BitstreamVeraSans-Roman-53"/>
      <use x="63.4765625" xlink:href="#BitstreamVeraSans-Roman-74"/>
      <use x="102.685546875" xlink:href="#BitstreamVeraSans-Roman-72"/>
      <use x="141.548828125" xlink:href="#BitstreamVeraSans-Roman-65"/>
      <use x="203.072265625" xlink:href="#BitstreamVeraSans-Roman-73"/>
      <use x="255.171875" xlink:href="#BitstreamVeraSans-Roman-73"/>
      <use x="307.271484375" xlink:href="#BitstreamVeraSans-Roman-20"/>
      <use x="339.05859375" xlink:href="#BitstreamVeraSans-Roman-54"/>
      <use x="385.392578125" xlink:href="#BitstreamVeraSans-Roman-72"/>
      <use x="426.505859375" xlink:href="#BitstreamVeraSans-Roman-69"/>
      <use x="454.2890625" xlink:href="#BitstreamVeraSans-Roman-61"/>
      <use x="515.568359375" xlink:href="#BitstreamVeraSans-Roman-6c"/>
      <use x="543.3515625" xlink:href="#BitstreamVeraSans-Roman-73"/>
     </g>
    </g>
    <g id="line2d_73">
     <path d="
M373.417 294.563
L393.577 294.563" style="fill:none;stroke:#0000ff;stroke-linecap:square;"/>
    </g>
    <g id="line2d_74"/>
    <g id="text_31">
     <!-- Regular Trials -->
     <g transform="translate(409.41675 299.60325)scale(0.144 -0.144)">
      <use xlink:href="#BitstreamVeraSans-Roman-52"/>
      <use x="64.982421875" xlink:href="#BitstreamVeraSans-Roman-65"/>
      <use x="126.505859375" xlink:href="#BitstreamVeraSans-Roman-67"/>
      <use x="189.982421875" xlink:href="#BitstreamVeraSans-Roman-75"/>
      <use x="253.361328125" xlink:href="#BitstreamVeraSans-Roman-6c"/>
      <use x="281.14453125" xlink:href="#BitstreamVeraSans-Roman-61"/>
      <use x="342.423828125" xlink:href="#BitstreamVeraSans-Roman-72"/>
      <use x="383.537109375" xlink:href="#BitstreamVeraSans-Roman-20"/>
      <use x="415.32421875" xlink:href="#BitstreamVeraSans-Roman-54"/>
      <use x="461.658203125" xlink:href="#BitstreamVeraSans-Roman-72"/>
      <use x="502.771484375" xlink:href="#BitstreamVeraSans-Roman-69"/>
      <use x="530.5546875" xlink:href="#BitstreamVeraSans-Roman-61"/>
      <use x="591.833984375" xlink:href="#BitstreamVeraSans-Roman-6c"/>
      <use x="619.6171875" xlink:href="#BitstreamVeraSans-Roman-73"/>
     </g>
    </g>
    <g id="line2d_75">
     <path d="
M373.417 315.7
L393.577 315.7" style="fill:none;stroke:#ff0000;stroke-linecap:square;"/>
    </g>
    <g id="line2d_76"/>
    <g id="text_32">
     <!-- Stress Trials -->
     <g transform="translate(409.41675 320.73975)scale(0.144 -0.144)">
      <use xlink:href="#BitstreamVeraSans-Roman-53"/>
      <use x="63.4765625" xlink:href="#BitstreamVeraSans-Roman-74"/>
      <use x="102.685546875" xlink:href="#BitstreamVeraSans-Roman-72"/>
      <use x="141.548828125" xlink:href="#BitstreamVeraSans-Roman-65"/>
      <use x="203.072265625" xlink:href="#BitstreamVeraSans-Roman-73"/>
      <use x="255.171875" xlink:href="#BitstreamVeraSans-Roman-73"/>
      <use x="307.271484375" xlink:href="#BitstreamVeraSans-Roman-20"/>
      <use x="339.05859375" xlink:href="#BitstreamVeraSans-Roman-54"/>
      <use x="385.392578125" xlink:href="#BitstreamVeraSans-Roman-72"/>
      <use x="426.505859375" xlink:href="#BitstreamVeraSans-Roman-69"/>
      <use x="454.2890625" xlink:href="#BitstreamVeraSans-Roman-61"/>
      <use x="515.568359375" xlink:href="#BitstreamVeraSans-Roman-6c"/>
      <use x="543.3515625" xlink:href="#BitstreamVeraSans-Roman-73"/>
     </g>
    </g>
    <g id="line2d_77">
     <path d="
M373.417 336.836
L393.577 336.836" style="fill:none;stroke:#0000ff;stroke-linecap:square;"/>
    </g>
    <g id="line2d_78"/>
    <g id="text_33">
     <!-- Regular Trials -->
     <g transform="translate(409.41675 341.87625)scale(0.144 -0.144)">
      <use xlink:href="#BitstreamVeraSans-Roman-52"/>
      <use x="64.982421875" xlink:href="#BitstreamVeraSans-Roman-65"/>
      <use x="126.505859375" xlink:href="#BitstreamVeraSans-Roman-67"/>
      <use x="189.982421875" xlink:href="#BitstreamVeraSans-Roman-75"/>
      <use x="253.361328125" xlink:href="#BitstreamVeraSans-Roman-6c"/>
      <use x="281.14453125" xlink:href="#BitstreamVeraSans-Roman-61"/>
      <use x="342.423828125" xlink:href="#BitstreamVeraSans-Roman-72"/>
      <use x="383.537109375" xlink:href="#BitstreamVeraSans-Roman-20"/>
      <use x="415.32421875" xlink:href="#BitstreamVeraSans-Roman-54"/>
      <use x="461.658203125" xlink:href="#BitstreamVeraSans-Roman-72"/>
      <use x="502.771484375" xlink:href="#BitstreamVeraSans-Roman-69"/>
      <use x="530.5546875" xlink:href="#BitstreamVeraSans-Roman-61"/>
      <use x="591.833984375" xlink:href="#BitstreamVeraSans-Roman-6c"/>
      <use x="619.6171875" xlink:href="#BitstreamVeraSans-Roman-73"/>
     </g>
    </g>
    <g id="line2d_79">
     <path d="
M373.417 357.973
L393.577 357.973" style="fill:none;stroke:#ff0000;stroke-linecap:square;"/>
    </g>
    <g id="line2d_80"/>
    <g id="text_34">
     <!-- Stress Trials -->
     <g transform="translate(409.41675 363.01275)scale(0.144 -0.144)">
      <use xlink:href="#BitstreamVeraSans-Roman-53"/>
      <use x="63.4765625" xlink:href="#BitstreamVeraSans-Roman-74"/>
      <use x="102.685546875" xlink:href="#BitstreamVeraSans-Roman-72"/>
      <use x="141.548828125" xlink:href="#BitstreamVeraSans-Roman-65"/>
      <use x="203.072265625" xlink:href="#BitstreamVeraSans-Roman-73"/>
      <use x="255.171875" xlink:href="#BitstreamVeraSans-Roman-73"/>
      <use x="307.271484375" xlink:href="#BitstreamVeraSans-Roman-20"/>
      <use x="339.05859375" xlink:href="#BitstreamVeraSans-Roman-54"/>
      <use x="385.392578125" xlink:href="#BitstreamVeraSans-Roman-72"/>
      <use x="426.505859375" xlink:href="#BitstreamVeraSans-Roman-69"/>
      <use x="454.2890625" xlink:href="#BitstreamVeraSans-Roman-61"/>
      <use x="515.568359375" xlink:href="#BitstreamVeraSans-Roman-6c"/>
      <use x="543.3515625" xlink:href="#BitstreamVeraSans-Roman-73"/>
     </g>
    </g>
    <g id="line2d_81">
     <path d="
M373.417 379.109
L393.577 379.109" style="fill:none;stroke:#0000ff;stroke-linecap:square;"/>
    </g>
    <g id="line2d_82"/>
    <g id="text_35">
     <!-- Regular Trials -->
     <g transform="translate(409.41675 384.14925)scale(0.144 -0.144)">
      <use xlink:href="#BitstreamVeraSans-Roman-52"/>
      <use x="64.982421875" xlink:href="#BitstreamVeraSans-Roman-65"/>
      <use x="126.505859375" xlink:href="#BitstreamVeraSans-Roman-67"/>
      <use x="189.982421875" xlink:href="#BitstreamVeraSans-Roman-75"/>
      <use x="253.361328125" xlink:href="#BitstreamVeraSans-Roman-6c"/>
      <use x="281.14453125" xlink:href="#BitstreamVeraSans-Roman-61"/>
      <use x="342.423828125" xlink:href="#BitstreamVeraSans-Roman-72"/>
      <use x="383.537109375" xlink:href="#BitstreamVeraSans-Roman-20"/>
      <use x="415.32421875" xlink:href="#BitstreamVeraSans-Roman-54"/>
      <use x="461.658203125" xlink:href="#BitstreamVeraSans-Roman-72"/>
      <use x="502.771484375" xlink:href="#BitstreamVeraSans-Roman-69"/>
      <use x="530.5546875" xlink:href="#BitstreamVeraSans-Roman-61"/>
      <use x="591.833984375" xlink:href="#BitstreamVeraSans-Roman-6c"/>
      <use x="619.6171875" xlink:href="#BitstreamVeraSans-Roman-73"/>
     </g>
    </g>
    <g id="line2d_83">
     <path d="
M373.417 400.246
L393.577 400.246" style="fill:none;stroke:#ff0000;stroke-linecap:square;"/>
    </g>
    <g id="line2d_84"/>
    <g id="text_36">
     <!-- Stress Trials -->
     <g transform="translate(409.41675 405.28575)scale(0.144 -0.144)">
      <use xlink:href="#BitstreamVeraSans-Roman-53"/>
      <use x="63.4765625" xlink:href="#BitstreamVeraSans-Roman-74"/>
      <use x="102.685546875" xlink:href="#BitstreamVeraSans-Roman-72"/>
      <use x="141.548828125" xlink:href="#BitstreamVeraSans-Roman-65"/>
      <use x="203.072265625" xlink:href="#BitstreamVeraSans-Roman-73"/>
      <use x="255.171875" xlink:href="#BitstreamVeraSans-Roman-73"/>
      <use x="307.271484375" xlink:href="#BitstreamVeraSans-Roman-20"/>
      <use x="339.05859375" xlink:href="#BitstreamVeraSans-Roman-54"/>
      <use x="385.392578125" xlink:href="#BitstreamVeraSans-Roman-72"/>
      <use x="426.505859375" xlink:href="#BitstreamVeraSans-Roman-69"/>
      <use x="454.2890625" xlink:href="#BitstreamVeraSans-Roman-61"/>
      <use x="515.568359375" xlink:href="#BitstreamVeraSans-Roman-6c"/>
      <use x="543.3515625" xlink:href="#BitstreamVeraSans-Roman-73"/>
     </g>
    </g>
    <g id="line2d_85">
     <path d="
M373.417 421.382
L393.577 421.382" style="fill:none;stroke:#0000ff;stroke-linecap:square;"/>
    </g>
    <g id="line2d_86"/>
    <g id="text_37">
     <!-- Regular Trials -->
     <g transform="translate(409.41675 426.42225)scale(0.144 -0.144)">
      <use xlink:href="#BitstreamVeraSans-Roman-52"/>
      <use x="64.982421875" xlink:href="#BitstreamVeraSans-Roman-65"/>
      <use x="126.505859375" xlink:href="#BitstreamVeraSans-Roman-67"/>
      <use x="189.982421875" xlink:href="#BitstreamVeraSans-Roman-75"/>
      <use x="253.361328125" xlink:href="#BitstreamVeraSans-Roman-6c"/>
      <use x="281.14453125" xlink:href="#BitstreamVeraSans-Roman-61"/>
      <use x="342.423828125" xlink:href="#BitstreamVeraSans-Roman-72"/>
      <use x="383.537109375" xlink:href="#BitstreamVeraSans-Roman-20"/>
      <use x="415.32421875" xlink:href="#BitstreamVeraSans-Roman-54"/>
      <use x="461.658203125" xlink:href="#BitstreamVeraSans-Roman-72"/>
      <use x="502.771484375" xlink:href="#BitstreamVeraSans-Roman-69"/>
      <use x="530.5546875" xlink:href="#BitstreamVeraSans-Roman-61"/>
      <use x="591.833984375" xlink:href="#BitstreamVeraSans-Roman-6c"/>
      <use x="619.6171875" xlink:href="#BitstreamVeraSans-Roman-73"/>
     </g>
    </g>
   </g>
  </g>
 </g>
 <defs>
  <clipPath id="p7ff5b81e1d">
   <rect height="345.6" width="446.4" x="72.0" y="43.2"/>
  </clipPath>
 </defs>
</svg>
