<?xml version="1.0" encoding="utf-8" standalone="no"?>
<!DOCTYPE svg PUBLIC "-//W3C//DTD SVG 1.1//EN"
  "http://www.w3.org/Graphics/SVG/1.1/DTD/svg11.dtd">
<!-- Created with matplotlib (http://matplotlib.org/) -->
<svg height="432pt" version="1.1" viewBox="0 0 576 432" width="576pt" xmlns="http://www.w3.org/2000/svg" xmlns:xlink="http://www.w3.org/1999/xlink">
 <defs>
  <style type="text/css">
*{stroke-linecap:butt;stroke-linejoin:round;}
  </style>
 </defs>
 <g id="figure_1">
  <g id="patch_1">
   <path d="
M0 432
L576 432
L576 0
L0 0
z
" style="fill:#ffffff;"/>
  </g>
  <g id="axes_1">
   <g id="patch_2">
    <path d="
M52.0256 175.32
L543.008 175.32
L543.008 28.76
L52.0256 28.76
z
" style="fill:#ffffff;"/>
   </g>
   <g id="line2d_1">
    <path clip-path="url(#pdb6e13763d)" d="
M52.0256 175.32
L57.305 175.32
L62.5844 175.32
L67.8638 142.011
L73.1431 148.673
L78.4225 153.114
L83.7019 156.286
L88.9813 158.665
L94.2607 160.516
L99.54 161.996
L104.819 163.208
L110.099 164.217
L115.378 165.071
L120.658 165.803
L125.937 166.438
L131.216 166.993
L136.496 167.483
L141.775 167.918
L147.054 168.308
L152.334 168.658
L157.613 168.975
L162.893 169.264
L168.172 169.527
L173.451 169.768
L178.731 169.991
L184.01 165.071
L189.29 165.451
L194.569 165.803
L199.848 166.131
L205.128 166.438
L210.407 166.724
L215.686 166.993
L220.966 167.245
L226.245 167.483
L231.525 167.706
L236.804 167.918
L242.083 168.118
L247.363 168.308
L252.642 168.487
L257.921 168.658
L263.201 168.821
L268.48 168.975
L273.76 169.123
L279.039 169.264
L284.318 169.398
L289.598 169.527
L294.877 169.65
L300.156 169.768
L305.436 169.882
L310.715 169.991
L315.995 170.095
L321.274 170.095
L326.553 170.095
L331.833 170.095
L337.112 172.708
L342.392 172.708
L347.671 172.708
L352.95 172.708
L358.23 172.708
L363.509 172.708
L368.788 172.708
L374.068 172.708
L379.347 172.708
L384.627 172.708
L389.906 172.708
L395.185 172.708
L400.465 172.708
L405.744 172.708
L411.023 172.708
L416.303 172.708
L421.582 172.708
L426.862 172.708
L432.141 172.708
L437.42 170.095
L442.7 170.095
L447.979 167.483
L453.259 170.095
L458.538 170.095
L463.817 170.095
L469.097 170.095
L474.376 170.095
L479.655 170.095
L484.935 170.095
L490.214 170.095
L495.494 170.095
L500.773 170.095
L506.052 170.095
L511.332 170.095
L516.611 170.095
L521.89 170.095
L527.17 170.095
L532.449 170.095
L537.729 170.095" style="fill:none;stroke:#ff0000;stroke-linecap:square;"/>
   </g>
   <g id="line2d_2">
    <path clip-path="url(#pdb6e13763d)" d="
M52.0256 175.32
L57.305 175.32
L62.5844 175.32
L67.8638 42.0836
L73.1431 42.0836
L78.4225 42.0836
L83.7019 42.0836
L88.9813 42.0836
L94.2607 42.0836
L99.54 42.0836
L104.819 42.0836
L110.099 42.0836
L115.378 42.0836
L120.658 42.0836
L125.937 42.0836
L131.216 42.0836
L136.496 42.0836
L141.775 42.0836
L147.054 42.0836
L152.334 42.0836
L157.613 42.0836
L162.893 42.0836
L168.172 42.0836
L173.451 42.0836
L178.731 42.0836
L184.01 42.0836
L189.29 42.0836
L194.569 42.0836
L199.848 42.0836
L205.128 42.0836
L210.407 42.0836
L215.686 42.0836
L220.966 42.0836
L226.245 42.0836
L231.525 42.0836
L236.804 42.0836
L242.083 42.0836
L247.363 42.0836
L252.642 42.0836
L257.921 42.0836
L263.201 42.0836
L268.48 42.0836
L273.76 42.0836
L279.039 42.0836
L284.318 42.0836
L289.598 42.0836
L294.877 42.0836
L300.156 42.0836
L305.436 42.0836
L310.715 42.0836
L315.995 42.0836
L321.274 42.0836
L326.553 42.0836
L331.833 42.0836
L337.112 42.0836
L342.392 42.0836
L347.671 42.0836
L352.95 42.0836
L358.23 42.0836
L363.509 42.0836
L368.788 42.0836
L374.068 42.0836
L379.347 42.0836
L384.627 42.0836
L389.906 42.0836
L395.185 42.0836
L400.465 42.0836
L405.744 42.0836
L411.023 42.0836
L416.303 42.0836
L421.582 42.0836
L426.862 42.0836
L432.141 42.0836
L437.42 108.702
L442.7 108.702
L447.979 130.908
L453.259 175.32
L458.538 175.32
L463.817 175.32
L469.097 175.32
L474.376 175.32
L479.655 175.32
L484.935 175.32
L490.214 175.32
L495.494 175.32
L500.773 175.32
L506.052 175.32
L511.332 175.32
L516.611 175.32
L521.89 175.32
L527.17 175.32
L532.449 175.32
L537.729 175.32" style="fill:none;stroke:#ff0000;stroke-dasharray:6.000000,6.000000;stroke-dashoffset:0.0;"/>
   </g>
   <g id="line2d_3">
    <path clip-path="url(#pdb6e13763d)" d="
M52.0256 42.0836
L57.305 42.0836
L62.5844 42.0836
L67.8638 75.3927
L73.1431 68.7309
L78.4225 64.2897
L83.7019 61.1174
L88.9813 58.7382
L94.2607 56.8877
L99.54 55.4073
L104.819 54.196
L110.099 53.1867
L115.378 52.3326
L120.658 51.6005
L125.937 50.9661
L131.216 50.4109
L136.496 49.9211
L141.775 49.4857
L147.054 49.0961
L152.334 48.7455
L157.613 48.4282
L162.893 48.1398
L168.172 47.8765
L173.451 47.6352
L178.731 47.4131
L184.01 52.3326
L189.29 51.953
L194.569 51.6005
L199.848 51.2724
L205.128 50.9661
L210.407 50.6795
L215.686 50.4109
L220.966 50.1586
L226.245 49.9211
L231.525 49.6971
L236.804 49.4857
L242.083 49.2856
L247.363 49.0961
L252.642 48.9163
L257.921 48.7455
L263.201 48.583
L268.48 48.4282
L273.76 48.2807
L279.039 48.1398
L284.318 48.0053
L289.598 47.8765
L294.877 47.7533
L300.156 47.6352
L305.436 47.5219
L310.715 47.4131
L315.995 47.3086
L321.274 47.3086
L326.553 47.3086
L331.833 47.3086
L337.112 44.6961
L342.392 44.6961
L347.671 44.6961
L352.95 44.6961
L358.23 44.6961
L363.509 44.6961
L368.788 44.6961
L374.068 44.6961
L379.347 44.6961
L384.627 44.6961
L389.906 44.6961
L395.185 44.6961
L400.465 44.6961
L405.744 44.6961
L411.023 44.6961
L416.303 44.6961
L421.582 44.6961
L426.862 44.6961
L432.141 44.6961
L437.42 47.3086
L442.7 47.3086
L447.979 49.9211
L453.259 47.3086
L458.538 47.3086
L463.817 47.3086
L469.097 47.3086
L474.376 47.3086
L479.655 47.3086
L484.935 47.3086
L490.214 47.3086
L495.494 47.3086
L500.773 47.3086
L506.052 47.3086
L511.332 47.3086
L516.611 47.3086
L521.89 47.3086
L527.17 47.3086
L532.449 47.3086
L537.729 47.3086" style="fill:none;stroke:#0000ff;stroke-linecap:square;"/>
   </g>
   <g id="line2d_4">
    <path clip-path="url(#pdb6e13763d)" d="
M52.0256 42.0836
L57.305 42.0836
L62.5844 42.0836
L67.8638 42.0836
L73.1431 42.0836
L78.4225 68.7309
L83.7019 64.2897
L88.9813 61.1174
L94.2607 58.7382
L99.54 56.8877
L104.819 68.7309
L110.099 78.4208
L115.378 75.3927
L120.658 72.8305
L125.937 70.6343
L131.216 68.7309
L136.496 67.0655
L141.775 65.5959
L147.054 64.2897
L152.334 63.121
L157.613 68.7309
L162.893 67.462
L168.172 66.3084
L173.451 65.2552
L178.731 64.2897
L184.01 64.2897
L189.29 63.4015
L194.569 62.5815
L199.848 61.8224
L205.128 65.8758
L210.407 65.0554
L215.686 64.2897
L220.966 63.5734
L226.245 62.9018
L231.525 62.271
L236.804 65.5959
L242.083 64.9242
L247.363 64.2897
L252.642 63.6895
L257.921 63.121
L263.201 62.5815
L268.48 62.0691
L273.76 61.5816
L279.039 64.2897
L284.318 63.7733
L289.598 66.3084
L294.877 65.7701
L300.156 65.2552
L305.436 64.7622
L310.715 64.2897
L315.995 66.5556
L321.274 66.5556
L326.553 66.5556
L331.833 66.5556
L337.112 66.0662
L342.392 66.0662
L347.671 63.4015
L352.95 63.4015
L358.23 63.4015
L363.509 63.4015
L368.788 63.4015
L374.068 63.4015
L379.347 60.7367
L384.627 63.4015
L389.906 63.4015
L395.185 66.0662
L400.465 66.0662
L405.744 66.0662
L411.023 66.0662
L416.303 66.0662
L421.582 66.0662
L426.862 63.4015
L432.141 63.4015
L437.42 63.8365
L442.7 66.5556
L447.979 67.0655
L453.259 66.5556
L458.538 69.2747
L463.817 69.2747
L469.097 69.2747
L474.376 66.5556
L479.655 66.5556
L484.935 66.5556
L490.214 66.5556
L495.494 69.2747
L500.773 69.2747
L506.052 66.5556
L511.332 69.2747
L516.611 69.2747
L521.89 69.2747
L527.17 69.2747
L532.449 71.9938
L537.729 71.9938" style="fill:none;stroke:#0000ff;stroke-dasharray:6.000000,6.000000;stroke-dashoffset:0.0;"/>
   </g>
   <g id="patch_3">
    <path d="
M52.0256 28.76
L543.008 28.76" style="fill:none;stroke:#000000;stroke-linecap:square;stroke-linejoin:miter;"/>
   </g>
   <g id="patch_4">
    <path d="
M543.008 175.32
L543.008 28.76" style="fill:none;stroke:#000000;stroke-linecap:square;stroke-linejoin:miter;"/>
   </g>
   <g id="patch_5">
    <path d="
M52.0256 175.32
L543.008 175.32" style="fill:none;stroke:#000000;stroke-linecap:square;stroke-linejoin:miter;"/>
   </g>
   <g id="patch_6">
    <path d="
M52.0256 175.32
L52.0256 28.76" style="fill:none;stroke:#000000;stroke-linecap:square;stroke-linejoin:miter;"/>
   </g>
   <g id="matplotlib.axis_1">
    <g id="xtick_1">
     <g id="line2d_5">
      <defs>
       <path d="
M0 0
L0 -4" id="m93b0483c22" style="stroke:#000000;stroke-width:0.5;"/>
      </defs>
      <g>
       <use style="stroke:#000000;stroke-width:0.5;" x="52.025625" xlink:href="#m93b0483c22" y="175.32"/>
      </g>
     </g>
     <g id="line2d_6">
      <defs>
       <path d="
M0 0
L0 4" id="m741efc42ff" style="stroke:#000000;stroke-width:0.5;"/>
      </defs>
      <g>
       <use style="stroke:#000000;stroke-width:0.5;" x="52.025625" xlink:href="#m741efc42ff" y="28.76"/>
      </g>
     </g>
     <g id="text_1">
      <!-- 0 -->
      <defs>
       <path d="
M31.7812 66.4062
Q24.1719 66.4062 20.3281 58.9062
Q16.5 51.4219 16.5 36.375
Q16.5 21.3906 20.3281 13.8906
Q24.1719 6.39062 31.7812 6.39062
Q39.4531 6.39062 43.2812 13.8906
Q47.125 21.3906 47.125 36.375
Q47.125 51.4219 43.2812 58.9062
Q39.4531 66.4062 31.7812 66.4062
M31.7812 74.2188
Q44.0469 74.2188 50.5156 64.5156
Q56.9844 54.8281 56.9844 36.375
Q56.9844 17.9688 50.5156 8.26562
Q44.0469 -1.42188 31.7812 -1.42188
Q19.5312 -1.42188 13.0625 8.26562
Q6.59375 17.9688 6.59375 36.375
Q6.59375 54.8281 13.0625 64.5156
Q19.5312 74.2188 31.7812 74.2188" id="BitstreamVeraSans-Roman-30"/>
      </defs>
      <g transform="translate(49.0021875 188.438125)scale(0.12 -0.12)">
       <use xlink:href="#BitstreamVeraSans-Roman-30"/>
      </g>
     </g>
    </g>
    <g id="xtick_2">
     <g id="line2d_7">
      <g>
       <use style="stroke:#000000;stroke-width:0.5;" x="157.613225806" xlink:href="#m93b0483c22" y="175.32"/>
      </g>
     </g>
     <g id="line2d_8">
      <g>
       <use style="stroke:#000000;stroke-width:0.5;" x="157.613225806" xlink:href="#m741efc42ff" y="28.76"/>
      </g>
     </g>
     <g id="text_2">
      <!-- 20 -->
      <defs>
       <path d="
M19.1875 8.29688
L53.6094 8.29688
L53.6094 0
L7.32812 0
L7.32812 8.29688
Q12.9375 14.1094 22.625 23.8906
Q32.3281 33.6875 34.8125 36.5312
Q39.5469 41.8438 41.4219 45.5312
Q43.3125 49.2188 43.3125 52.7812
Q43.3125 58.5938 39.2344 62.25
Q35.1562 65.9219 28.6094 65.9219
Q23.9688 65.9219 18.8125 64.3125
Q13.6719 62.7031 7.8125 59.4219
L7.8125 69.3906
Q13.7656 71.7812 18.9375 73
Q24.125 74.2188 28.4219 74.2188
Q39.75 74.2188 46.4844 68.5469
Q53.2188 62.8906 53.2188 53.4219
Q53.2188 48.9219 51.5312 44.8906
Q49.8594 40.875 45.4062 35.4062
Q44.1875 33.9844 37.6406 27.2188
Q31.1094 20.4531 19.1875 8.29688" id="BitstreamVeraSans-Roman-32"/>
      </defs>
      <g transform="translate(150.816350806 188.438125)scale(0.12 -0.12)">
       <use xlink:href="#BitstreamVeraSans-Roman-32"/>
       <use x="63.623046875" xlink:href="#BitstreamVeraSans-Roman-30"/>
      </g>
     </g>
    </g>
    <g id="xtick_3">
     <g id="line2d_9">
      <g>
       <use style="stroke:#000000;stroke-width:0.5;" x="263.200826613" xlink:href="#m93b0483c22" y="175.32"/>
      </g>
     </g>
     <g id="line2d_10">
      <g>
       <use style="stroke:#000000;stroke-width:0.5;" x="263.200826613" xlink:href="#m741efc42ff" y="28.76"/>
      </g>
     </g>
     <g id="text_3">
      <!-- 40 -->
      <defs>
       <path d="
M37.7969 64.3125
L12.8906 25.3906
L37.7969 25.3906
z

M35.2031 72.9062
L47.6094 72.9062
L47.6094 25.3906
L58.0156 25.3906
L58.0156 17.1875
L47.6094 17.1875
L47.6094 0
L37.7969 0
L37.7969 17.1875
L4.89062 17.1875
L4.89062 26.7031
z
" id="BitstreamVeraSans-Roman-34"/>
      </defs>
      <g transform="translate(256.257701613 188.438125)scale(0.12 -0.12)">
       <use xlink:href="#BitstreamVeraSans-Roman-34"/>
       <use x="63.623046875" xlink:href="#BitstreamVeraSans-Roman-30"/>
      </g>
     </g>
    </g>
    <g id="xtick_4">
     <g id="line2d_11">
      <g>
       <use style="stroke:#000000;stroke-width:0.5;" x="368.788427419" xlink:href="#m93b0483c22" y="175.32"/>
      </g>
     </g>
     <g id="line2d_12">
      <g>
       <use style="stroke:#000000;stroke-width:0.5;" x="368.788427419" xlink:href="#m741efc42ff" y="28.76"/>
      </g>
     </g>
     <g id="text_4">
      <!-- 60 -->
      <defs>
       <path d="
M33.0156 40.375
Q26.375 40.375 22.4844 35.8281
Q18.6094 31.2969 18.6094 23.3906
Q18.6094 15.5312 22.4844 10.9531
Q26.375 6.39062 33.0156 6.39062
Q39.6562 6.39062 43.5312 10.9531
Q47.4062 15.5312 47.4062 23.3906
Q47.4062 31.2969 43.5312 35.8281
Q39.6562 40.375 33.0156 40.375
M52.5938 71.2969
L52.5938 62.3125
Q48.875 64.0625 45.0938 64.9844
Q41.3125 65.9219 37.5938 65.9219
Q27.8281 65.9219 22.6719 59.3281
Q17.5312 52.7344 16.7969 39.4062
Q19.6719 43.6562 24.0156 45.9219
Q28.375 48.1875 33.5938 48.1875
Q44.5781 48.1875 50.9531 41.5156
Q57.3281 34.8594 57.3281 23.3906
Q57.3281 12.1562 50.6875 5.35938
Q44.0469 -1.42188 33.0156 -1.42188
Q20.3594 -1.42188 13.6719 8.26562
Q6.98438 17.9688 6.98438 36.375
Q6.98438 53.6562 15.1875 63.9375
Q23.3906 74.2188 37.2031 74.2188
Q40.9219 74.2188 44.7031 73.4844
Q48.4844 72.75 52.5938 71.2969" id="BitstreamVeraSans-Roman-36"/>
      </defs>
      <g transform="translate(361.970927419 188.438125)scale(0.12 -0.12)">
       <use xlink:href="#BitstreamVeraSans-Roman-36"/>
       <use x="63.623046875" xlink:href="#BitstreamVeraSans-Roman-30"/>
      </g>
     </g>
    </g>
    <g id="xtick_5">
     <g id="line2d_13">
      <g>
       <use style="stroke:#000000;stroke-width:0.5;" x="474.376028226" xlink:href="#m93b0483c22" y="175.32"/>
      </g>
     </g>
     <g id="line2d_14">
      <g>
       <use style="stroke:#000000;stroke-width:0.5;" x="474.376028226" xlink:href="#m741efc42ff" y="28.76"/>
      </g>
     </g>
     <g id="text_5">
      <!-- 80 -->
      <defs>
       <path d="
M31.7812 34.625
Q24.75 34.625 20.7188 30.8594
Q16.7031 27.0938 16.7031 20.5156
Q16.7031 13.9219 20.7188 10.1562
Q24.75 6.39062 31.7812 6.39062
Q38.8125 6.39062 42.8594 10.1719
Q46.9219 13.9688 46.9219 20.5156
Q46.9219 27.0938 42.8906 30.8594
Q38.875 34.625 31.7812 34.625
M21.9219 38.8125
Q15.5781 40.375 12.0312 44.7188
Q8.5 49.0781 8.5 55.3281
Q8.5 64.0625 14.7188 69.1406
Q20.9531 74.2188 31.7812 74.2188
Q42.6719 74.2188 48.875 69.1406
Q55.0781 64.0625 55.0781 55.3281
Q55.0781 49.0781 51.5312 44.7188
Q48 40.375 41.7031 38.8125
Q48.8281 37.1562 52.7969 32.3125
Q56.7812 27.4844 56.7812 20.5156
Q56.7812 9.90625 50.3125 4.23438
Q43.8438 -1.42188 31.7812 -1.42188
Q19.7344 -1.42188 13.25 4.23438
Q6.78125 9.90625 6.78125 20.5156
Q6.78125 27.4844 10.7812 32.3125
Q14.7969 37.1562 21.9219 38.8125
M18.3125 54.3906
Q18.3125 48.7344 21.8438 45.5625
Q25.3906 42.3906 31.7812 42.3906
Q38.1406 42.3906 41.7188 45.5625
Q45.3125 48.7344 45.3125 54.3906
Q45.3125 60.0625 41.7188 63.2344
Q38.1406 66.4062 31.7812 66.4062
Q25.3906 66.4062 21.8438 63.2344
Q18.3125 60.0625 18.3125 54.3906" id="BitstreamVeraSans-Roman-38"/>
      </defs>
      <g transform="translate(467.546340726 188.438125)scale(0.12 -0.12)">
       <use xlink:href="#BitstreamVeraSans-Roman-38"/>
       <use x="63.623046875" xlink:href="#BitstreamVeraSans-Roman-30"/>
      </g>
     </g>
    </g>
    <g id="text_6">
     <!-- Trial Number -->
     <defs>
      <path id="BitstreamVeraSans-Roman-20"/>
      <path d="
M9.8125 72.9062
L23.0938 72.9062
L55.4219 11.9219
L55.4219 72.9062
L64.9844 72.9062
L64.9844 0
L51.7031 0
L19.3906 60.9844
L19.3906 0
L9.8125 0
z
" id="BitstreamVeraSans-Roman-4e"/>
      <path d="
M34.2812 27.4844
Q23.3906 27.4844 19.1875 25
Q14.9844 22.5156 14.9844 16.5
Q14.9844 11.7188 18.1406 8.90625
Q21.2969 6.10938 26.7031 6.10938
Q34.1875 6.10938 38.7031 11.4062
Q43.2188 16.7031 43.2188 25.4844
L43.2188 27.4844
z

M52.2031 31.2031
L52.2031 0
L43.2188 0
L43.2188 8.29688
Q40.1406 3.32812 35.5469 0.953125
Q30.9531 -1.42188 24.3125 -1.42188
Q15.9219 -1.42188 10.9531 3.29688
Q6 8.01562 6 15.9219
Q6 25.1406 12.1719 29.8281
Q18.3594 34.5156 30.6094 34.5156
L43.2188 34.5156
L43.2188 35.4062
Q43.2188 41.6094 39.1406 45
Q35.0625 48.3906 27.6875 48.3906
Q23 48.3906 18.5469 47.2656
Q14.1094 46.1406 10.0156 43.8906
L10.0156 52.2031
Q14.9375 54.1094 19.5781 55.0469
Q24.2188 56 28.6094 56
Q40.4844 56 46.3438 49.8438
Q52.2031 43.7031 52.2031 31.2031" id="BitstreamVeraSans-Roman-61"/>
      <path d="
M9.42188 75.9844
L18.4062 75.9844
L18.4062 0
L9.42188 0
z
" id="BitstreamVeraSans-Roman-6c"/>
      <path d="
M9.42188 54.6875
L18.4062 54.6875
L18.4062 0
L9.42188 0
z

M9.42188 75.9844
L18.4062 75.9844
L18.4062 64.5938
L9.42188 64.5938
z
" id="BitstreamVeraSans-Roman-69"/>
      <path d="
M52 44.1875
Q55.375 50.25 60.0625 53.125
Q64.75 56 71.0938 56
Q79.6406 56 84.2812 50.0156
Q88.9219 44.0469 88.9219 33.0156
L88.9219 0
L79.8906 0
L79.8906 32.7188
Q79.8906 40.5781 77.0938 44.375
Q74.3125 48.1875 68.6094 48.1875
Q61.625 48.1875 57.5625 43.5469
Q53.5156 38.9219 53.5156 30.9062
L53.5156 0
L44.4844 0
L44.4844 32.7188
Q44.4844 40.625 41.7031 44.4062
Q38.9219 48.1875 33.1094 48.1875
Q26.2188 48.1875 22.1562 43.5312
Q18.1094 38.875 18.1094 30.9062
L18.1094 0
L9.07812 0
L9.07812 54.6875
L18.1094 54.6875
L18.1094 46.1875
Q21.1875 51.2188 25.4844 53.6094
Q29.7812 56 35.6875 56
Q41.6562 56 45.8281 52.9688
Q50 49.9531 52 44.1875" id="BitstreamVeraSans-Roman-6d"/>
      <path d="
M56.2031 29.5938
L56.2031 25.2031
L14.8906 25.2031
Q15.4844 15.9219 20.4844 11.0625
Q25.4844 6.20312 34.4219 6.20312
Q39.5938 6.20312 44.4531 7.46875
Q49.3125 8.73438 54.1094 11.2812
L54.1094 2.78125
Q49.2656 0.734375 44.1875 -0.34375
Q39.1094 -1.42188 33.8906 -1.42188
Q20.7969 -1.42188 13.1562 6.1875
Q5.51562 13.8125 5.51562 26.8125
Q5.51562 40.2344 12.7656 48.1094
Q20.0156 56 32.3281 56
Q43.3594 56 49.7812 48.8906
Q56.2031 41.7969 56.2031 29.5938
M47.2188 32.2344
Q47.125 39.5938 43.0938 43.9844
Q39.0625 48.3906 32.4219 48.3906
Q24.9062 48.3906 20.3906 44.1406
Q15.875 39.8906 15.1875 32.1719
z
" id="BitstreamVeraSans-Roman-65"/>
      <path d="
M-0.296875 72.9062
L61.375 72.9062
L61.375 64.5938
L35.5 64.5938
L35.5 0
L25.5938 0
L25.5938 64.5938
L-0.296875 64.5938
z
" id="BitstreamVeraSans-Roman-54"/>
      <path d="
M8.5 21.5781
L8.5 54.6875
L17.4844 54.6875
L17.4844 21.9219
Q17.4844 14.1562 20.5 10.2656
Q23.5312 6.39062 29.5938 6.39062
Q36.8594 6.39062 41.0781 11.0312
Q45.3125 15.6719 45.3125 23.6875
L45.3125 54.6875
L54.2969 54.6875
L54.2969 0
L45.3125 0
L45.3125 8.40625
Q42.0469 3.42188 37.7188 1
Q33.4062 -1.42188 27.6875 -1.42188
Q18.2656 -1.42188 13.375 4.4375
Q8.5 10.2969 8.5 21.5781" id="BitstreamVeraSans-Roman-75"/>
      <path d="
M41.1094 46.2969
Q39.5938 47.1719 37.8125 47.5781
Q36.0312 48 33.8906 48
Q26.2656 48 22.1875 43.0469
Q18.1094 38.0938 18.1094 28.8125
L18.1094 0
L9.07812 0
L9.07812 54.6875
L18.1094 54.6875
L18.1094 46.1875
Q20.9531 51.1719 25.4844 53.5781
Q30.0312 56 36.5312 56
Q37.4531 56 38.5781 55.875
Q39.7031 55.7656 41.0625 55.5156
z
" id="BitstreamVeraSans-Roman-72"/>
      <path d="
M48.6875 27.2969
Q48.6875 37.2031 44.6094 42.8438
Q40.5312 48.4844 33.4062 48.4844
Q26.2656 48.4844 22.1875 42.8438
Q18.1094 37.2031 18.1094 27.2969
Q18.1094 17.3906 22.1875 11.75
Q26.2656 6.10938 33.4062 6.10938
Q40.5312 6.10938 44.6094 11.75
Q48.6875 17.3906 48.6875 27.2969
M18.1094 46.3906
Q20.9531 51.2656 25.2656 53.625
Q29.5938 56 35.5938 56
Q45.5625 56 51.7812 48.0938
Q58.0156 40.1875 58.0156 27.2969
Q58.0156 14.4062 51.7812 6.48438
Q45.5625 -1.42188 35.5938 -1.42188
Q29.5938 -1.42188 25.2656 0.953125
Q20.9531 3.32812 18.1094 8.20312
L18.1094 0
L9.07812 0
L9.07812 75.9844
L18.1094 75.9844
z
" id="BitstreamVeraSans-Roman-62"/>
     </defs>
     <g transform="translate(259.232109375 205.051875)scale(0.12 -0.12)">
      <use xlink:href="#BitstreamVeraSans-Roman-54"/>
      <use x="46.333984375" xlink:href="#BitstreamVeraSans-Roman-72"/>
      <use x="87.447265625" xlink:href="#BitstreamVeraSans-Roman-69"/>
      <use x="115.23046875" xlink:href="#BitstreamVeraSans-Roman-61"/>
      <use x="176.509765625" xlink:href="#BitstreamVeraSans-Roman-6c"/>
      <use x="204.29296875" xlink:href="#BitstreamVeraSans-Roman-20"/>
      <use x="236.080078125" xlink:href="#BitstreamVeraSans-Roman-4e"/>
      <use x="310.884765625" xlink:href="#BitstreamVeraSans-Roman-75"/>
      <use x="374.263671875" xlink:href="#BitstreamVeraSans-Roman-6d"/>
      <use x="471.67578125" xlink:href="#BitstreamVeraSans-Roman-62"/>
      <use x="535.15234375" xlink:href="#BitstreamVeraSans-Roman-65"/>
      <use x="596.67578125" xlink:href="#BitstreamVeraSans-Roman-72"/>
     </g>
    </g>
   </g>
   <g id="matplotlib.axis_2">
    <g id="ytick_1">
     <g id="line2d_15">
      <defs>
       <path d="
M0 0
L4 0" id="m728421d6d4" style="stroke:#000000;stroke-width:0.5;"/>
      </defs>
      <g>
       <use style="stroke:#000000;stroke-width:0.5;" x="52.025625" xlink:href="#m728421d6d4" y="175.32"/>
      </g>
     </g>
     <g id="line2d_16">
      <defs>
       <path d="
M0 0
L-4 0" id="mcb0005524f" style="stroke:#000000;stroke-width:0.5;"/>
      </defs>
      <g>
       <use style="stroke:#000000;stroke-width:0.5;" x="543.00796875" xlink:href="#mcb0005524f" y="175.32"/>
      </g>
     </g>
     <g id="text_7">
      <!-- 0.0 -->
      <defs>
       <path d="
M10.6875 12.4062
L21 12.4062
L21 0
L10.6875 0
z
" id="BitstreamVeraSans-Roman-2e"/>
      </defs>
      <g transform="translate(30.53 178.63125)scale(0.12 -0.12)">
       <use xlink:href="#BitstreamVeraSans-Roman-30"/>
       <use x="63.623046875" xlink:href="#BitstreamVeraSans-Roman-2e"/>
       <use x="95.41015625" xlink:href="#BitstreamVeraSans-Roman-30"/>
      </g>
     </g>
    </g>
    <g id="ytick_2">
     <g id="line2d_17">
      <g>
       <use style="stroke:#000000;stroke-width:0.5;" x="52.025625" xlink:href="#m728421d6d4" y="148.672727273"/>
      </g>
     </g>
     <g id="line2d_18">
      <g>
       <use style="stroke:#000000;stroke-width:0.5;" x="543.00796875" xlink:href="#mcb0005524f" y="148.672727273"/>
      </g>
     </g>
     <g id="text_8">
      <!-- 0.2 -->
      <g transform="translate(30.935 151.983977273)scale(0.12 -0.12)">
       <use xlink:href="#BitstreamVeraSans-Roman-30"/>
       <use x="63.623046875" xlink:href="#BitstreamVeraSans-Roman-2e"/>
       <use x="95.41015625" xlink:href="#BitstreamVeraSans-Roman-32"/>
      </g>
     </g>
    </g>
    <g id="ytick_3">
     <g id="line2d_19">
      <g>
       <use style="stroke:#000000;stroke-width:0.5;" x="52.025625" xlink:href="#m728421d6d4" y="122.025454545"/>
      </g>
     </g>
     <g id="line2d_20">
      <g>
       <use style="stroke:#000000;stroke-width:0.5;" x="543.00796875" xlink:href="#mcb0005524f" y="122.025454545"/>
      </g>
     </g>
     <g id="text_9">
      <!-- 0.4 -->
      <g transform="translate(30.40625 125.336704545)scale(0.12 -0.12)">
       <use xlink:href="#BitstreamVeraSans-Roman-30"/>
       <use x="63.623046875" xlink:href="#BitstreamVeraSans-Roman-2e"/>
       <use x="95.41015625" xlink:href="#BitstreamVeraSans-Roman-34"/>
      </g>
     </g>
    </g>
    <g id="ytick_4">
     <g id="line2d_21">
      <g>
       <use style="stroke:#000000;stroke-width:0.5;" x="52.025625" xlink:href="#m728421d6d4" y="95.3781818182"/>
      </g>
     </g>
     <g id="line2d_22">
      <g>
       <use style="stroke:#000000;stroke-width:0.5;" x="543.00796875" xlink:href="#mcb0005524f" y="95.3781818182"/>
      </g>
     </g>
     <g id="text_10">
      <!-- 0.6 -->
      <g transform="translate(30.48875 98.6894318182)scale(0.12 -0.12)">
       <use xlink:href="#BitstreamVeraSans-Roman-30"/>
       <use x="63.623046875" xlink:href="#BitstreamVeraSans-Roman-2e"/>
       <use x="95.41015625" xlink:href="#BitstreamVeraSans-Roman-36"/>
      </g>
     </g>
    </g>
    <g id="ytick_5">
     <g id="line2d_23">
      <g>
       <use style="stroke:#000000;stroke-width:0.5;" x="52.025625" xlink:href="#m728421d6d4" y="68.7309090909"/>
      </g>
     </g>
     <g id="line2d_24">
      <g>
       <use style="stroke:#000000;stroke-width:0.5;" x="543.00796875" xlink:href="#mcb0005524f" y="68.7309090909"/>
      </g>
     </g>
     <g id="text_11">
      <!-- 0.8 -->
      <g transform="translate(30.554375 72.0421590909)scale(0.12 -0.12)">
       <use xlink:href="#BitstreamVeraSans-Roman-30"/>
       <use x="63.623046875" xlink:href="#BitstreamVeraSans-Roman-2e"/>
       <use x="95.41015625" xlink:href="#BitstreamVeraSans-Roman-38"/>
      </g>
     </g>
    </g>
    <g id="ytick_6">
     <g id="line2d_25">
      <g>
       <use style="stroke:#000000;stroke-width:0.5;" x="52.025625" xlink:href="#m728421d6d4" y="42.0836363636"/>
      </g>
     </g>
     <g id="line2d_26">
      <g>
       <use style="stroke:#000000;stroke-width:0.5;" x="543.00796875" xlink:href="#mcb0005524f" y="42.0836363636"/>
      </g>
     </g>
     <g id="text_12">
      <!-- 1.0 -->
      <defs>
       <path d="
M12.4062 8.29688
L28.5156 8.29688
L28.5156 63.9219
L10.9844 60.4062
L10.9844 69.3906
L28.4219 72.9062
L38.2812 72.9062
L38.2812 8.29688
L54.3906 8.29688
L54.3906 0
L12.4062 0
z
" id="BitstreamVeraSans-Roman-31"/>
      </defs>
      <g transform="translate(31.056875 45.3948863636)scale(0.12 -0.12)">
       <use xlink:href="#BitstreamVeraSans-Roman-31"/>
       <use x="63.623046875" xlink:href="#BitstreamVeraSans-Roman-2e"/>
       <use x="95.41015625" xlink:href="#BitstreamVeraSans-Roman-30"/>
      </g>
     </g>
    </g>
    <g id="text_13">
     <!-- Probability -->
     <defs>
      <path d="
M19.6719 64.7969
L19.6719 37.4062
L32.0781 37.4062
Q38.9688 37.4062 42.7188 40.9688
Q46.4844 44.5312 46.4844 51.125
Q46.4844 57.6719 42.7188 61.2344
Q38.9688 64.7969 32.0781 64.7969
z

M9.8125 72.9062
L32.0781 72.9062
Q44.3438 72.9062 50.6094 67.3594
Q56.8906 61.8125 56.8906 51.125
Q56.8906 40.3281 50.6094 34.8125
Q44.3438 29.2969 32.0781 29.2969
L19.6719 29.2969
L19.6719 0
L9.8125 0
z
" id="BitstreamVeraSans-Roman-50"/>
      <path d="
M18.3125 70.2188
L18.3125 54.6875
L36.8125 54.6875
L36.8125 47.7031
L18.3125 47.7031
L18.3125 18.0156
Q18.3125 11.3281 20.1406 9.42188
Q21.9688 7.51562 27.5938 7.51562
L36.8125 7.51562
L36.8125 0
L27.5938 0
Q17.1875 0 13.2344 3.875
Q9.28125 7.76562 9.28125 18.0156
L9.28125 47.7031
L2.6875 47.7031
L2.6875 54.6875
L9.28125 54.6875
L9.28125 70.2188
z
" id="BitstreamVeraSans-Roman-74"/>
      <path d="
M30.6094 48.3906
Q23.3906 48.3906 19.1875 42.75
Q14.9844 37.1094 14.9844 27.2969
Q14.9844 17.4844 19.1562 11.8438
Q23.3438 6.20312 30.6094 6.20312
Q37.7969 6.20312 41.9844 11.8594
Q46.1875 17.5312 46.1875 27.2969
Q46.1875 37.0156 41.9844 42.7031
Q37.7969 48.3906 30.6094 48.3906
M30.6094 56
Q42.3281 56 49.0156 48.375
Q55.7188 40.7656 55.7188 27.2969
Q55.7188 13.875 49.0156 6.21875
Q42.3281 -1.42188 30.6094 -1.42188
Q18.8438 -1.42188 12.1719 6.21875
Q5.51562 13.875 5.51562 27.2969
Q5.51562 40.7656 12.1719 48.375
Q18.8438 56 30.6094 56" id="BitstreamVeraSans-Roman-6f"/>
      <path d="
M32.1719 -5.07812
Q28.375 -14.8438 24.75 -17.8125
Q21.1406 -20.7969 15.0938 -20.7969
L7.90625 -20.7969
L7.90625 -13.2812
L13.1875 -13.2812
Q16.8906 -13.2812 18.9375 -11.5156
Q21 -9.76562 23.4844 -3.21875
L25.0938 0.875
L2.98438 54.6875
L12.5 54.6875
L29.5938 11.9219
L46.6875 54.6875
L56.2031 54.6875
z
" id="BitstreamVeraSans-Roman-79"/>
     </defs>
     <g transform="translate(22.910625 132.986875)rotate(-90.0)scale(0.12 -0.12)">
      <use xlink:href="#BitstreamVeraSans-Roman-50"/>
      <use x="58.552734375" xlink:href="#BitstreamVeraSans-Roman-72"/>
      <use x="97.416015625" xlink:href="#BitstreamVeraSans-Roman-6f"/>
      <use x="158.59765625" xlink:href="#BitstreamVeraSans-Roman-62"/>
      <use x="222.07421875" xlink:href="#BitstreamVeraSans-Roman-61"/>
      <use x="283.353515625" xlink:href="#BitstreamVeraSans-Roman-62"/>
      <use x="346.830078125" xlink:href="#BitstreamVeraSans-Roman-69"/>
      <use x="374.61328125" xlink:href="#BitstreamVeraSans-Roman-6c"/>
      <use x="402.396484375" xlink:href="#BitstreamVeraSans-Roman-69"/>
      <use x="430.1796875" xlink:href="#BitstreamVeraSans-Roman-74"/>
      <use x="469.388671875" xlink:href="#BitstreamVeraSans-Roman-79"/>
     </g>
    </g>
   </g>
   <g id="text_14">
    <!-- Stress Trial Performance: Trial Completion Rate 0.534979 -->
    <defs>
     <path d="
M40.5781 39.3125
Q47.6562 37.7969 51.625 33
Q55.6094 28.2188 55.6094 21.1875
Q55.6094 10.4062 48.1875 4.48438
Q40.7656 -1.42188 27.0938 -1.42188
Q22.5156 -1.42188 17.6562 -0.515625
Q12.7969 0.390625 7.625 2.20312
L7.625 11.7188
Q11.7188 9.32812 16.5938 8.10938
Q21.4844 6.89062 26.8125 6.89062
Q36.0781 6.89062 40.9375 10.5469
Q45.7969 14.2031 45.7969 21.1875
Q45.7969 27.6406 41.2812 31.2656
Q36.7656 34.9062 28.7188 34.9062
L20.2188 34.9062
L20.2188 43.0156
L29.1094 43.0156
Q36.375 43.0156 40.2344 45.9219
Q44.0938 48.8281 44.0938 54.2969
Q44.0938 59.9062 40.1094 62.9062
Q36.1406 65.9219 28.7188 65.9219
Q24.6562 65.9219 20.0156 65.0312
Q15.375 64.1562 9.8125 62.3125
L9.8125 71.0938
Q15.4375 72.6562 20.3438 73.4375
Q25.25 74.2188 29.5938 74.2188
Q40.8281 74.2188 47.3594 69.1094
Q53.9062 64.0156 53.9062 55.3281
Q53.9062 49.2656 50.4375 45.0938
Q46.9688 40.9219 40.5781 39.3125" id="BitstreamVeraSans-Roman-33"/>
     <path d="
M8.20312 72.9062
L55.0781 72.9062
L55.0781 68.7031
L28.6094 0
L18.3125 0
L43.2188 64.5938
L8.20312 64.5938
z
" id="BitstreamVeraSans-Roman-37"/>
     <path d="
M10.7969 72.9062
L49.5156 72.9062
L49.5156 64.5938
L19.8281 64.5938
L19.8281 46.7344
Q21.9688 47.4688 24.1094 47.8281
Q26.2656 48.1875 28.4219 48.1875
Q40.625 48.1875 47.75 41.5
Q54.8906 34.8125 54.8906 23.3906
Q54.8906 11.625 47.5625 5.09375
Q40.2344 -1.42188 26.9062 -1.42188
Q22.3125 -1.42188 17.5469 -0.640625
Q12.7969 0.140625 7.71875 1.70312
L7.71875 11.625
Q12.1094 9.23438 16.7969 8.0625
Q21.4844 6.89062 26.7031 6.89062
Q35.1562 6.89062 40.0781 11.3281
Q45.0156 15.7656 45.0156 23.3906
Q45.0156 31 40.0781 35.4375
Q35.1562 39.8906 26.7031 39.8906
Q22.75 39.8906 18.8125 39.0156
Q14.8906 38.1406 10.7969 36.2812
z
" id="BitstreamVeraSans-Roman-35"/>
     <path d="
M54.8906 33.0156
L54.8906 0
L45.9062 0
L45.9062 32.7188
Q45.9062 40.4844 42.875 44.3281
Q39.8438 48.1875 33.7969 48.1875
Q26.5156 48.1875 22.3125 43.5469
Q18.1094 38.9219 18.1094 30.9062
L18.1094 0
L9.07812 0
L9.07812 54.6875
L18.1094 54.6875
L18.1094 46.1875
Q21.3438 51.125 25.7031 53.5625
Q30.0781 56 35.7969 56
Q45.2188 56 50.0469 50.1719
Q54.8906 44.3438 54.8906 33.0156" id="BitstreamVeraSans-Roman-6e"/>
     <path d="
M10.9844 1.51562
L10.9844 10.5
Q14.7031 8.73438 18.5 7.8125
Q22.3125 6.89062 25.9844 6.89062
Q35.75 6.89062 40.8906 13.4531
Q46.0469 20.0156 46.7812 33.4062
Q43.9531 29.2031 39.5938 26.9531
Q35.25 24.7031 29.9844 24.7031
Q19.0469 24.7031 12.6719 31.3125
Q6.29688 37.9375 6.29688 49.4219
Q6.29688 60.6406 12.9375 67.4219
Q19.5781 74.2188 30.6094 74.2188
Q43.2656 74.2188 49.9219 64.5156
Q56.5938 54.8281 56.5938 36.375
Q56.5938 19.1406 48.4062 8.85938
Q40.2344 -1.42188 26.4219 -1.42188
Q22.7031 -1.42188 18.8906 -0.6875
Q15.0938 0.046875 10.9844 1.51562
M30.6094 32.4219
Q37.25 32.4219 41.125 36.9531
Q45.0156 41.5 45.0156 49.4219
Q45.0156 57.2812 41.125 61.8438
Q37.25 66.4062 30.6094 66.4062
Q23.9688 66.4062 20.0938 61.8438
Q16.2188 57.2812 16.2188 49.4219
Q16.2188 41.5 20.0938 36.9531
Q23.9688 32.4219 30.6094 32.4219" id="BitstreamVeraSans-Roman-39"/>
     <path d="
M11.7188 12.4062
L22.0156 12.4062
L22.0156 0
L11.7188 0
z

M11.7188 51.7031
L22.0156 51.7031
L22.0156 39.3125
L11.7188 39.3125
z
" id="BitstreamVeraSans-Roman-3a"/>
     <path d="
M44.3906 34.1875
Q47.5625 33.1094 50.5625 29.5938
Q53.5625 26.0781 56.5938 19.9219
L66.6094 0
L56 0
L46.6875 18.7031
Q43.0625 26.0312 39.6719 28.4219
Q36.2812 30.8125 30.4219 30.8125
L19.6719 30.8125
L19.6719 0
L9.8125 0
L9.8125 72.9062
L32.0781 72.9062
Q44.5781 72.9062 50.7344 67.6719
Q56.8906 62.4531 56.8906 51.9062
Q56.8906 45.0156 53.6875 40.4688
Q50.4844 35.9375 44.3906 34.1875
M19.6719 64.7969
L19.6719 38.9219
L32.0781 38.9219
Q39.2031 38.9219 42.8438 42.2188
Q46.4844 45.5156 46.4844 51.9062
Q46.4844 58.2969 42.8438 61.5469
Q39.2031 64.7969 32.0781 64.7969
z
" id="BitstreamVeraSans-Roman-52"/>
     <path d="
M53.5156 70.5156
L53.5156 60.8906
Q47.9062 63.5781 42.9219 64.8906
Q37.9375 66.2188 33.2969 66.2188
Q25.25 66.2188 20.875 63.0938
Q16.5 59.9688 16.5 54.2031
Q16.5 49.3594 19.4062 46.8906
Q22.3125 44.4375 30.4219 42.9219
L36.375 41.7031
Q47.4062 39.5938 52.6562 34.2969
Q57.9062 29 57.9062 20.125
Q57.9062 9.51562 50.7969 4.04688
Q43.7031 -1.42188 29.9844 -1.42188
Q24.8125 -1.42188 18.9688 -0.25
Q13.1406 0.921875 6.89062 3.21875
L6.89062 13.375
Q12.8906 10.0156 18.6562 8.29688
Q24.4219 6.59375 29.9844 6.59375
Q38.4219 6.59375 43.0156 9.90625
Q47.6094 13.2344 47.6094 19.3906
Q47.6094 24.75 44.3125 27.7812
Q41.0156 30.8125 33.5 32.3281
L27.4844 33.5
Q16.4531 35.6875 11.5156 40.375
Q6.59375 45.0625 6.59375 53.4219
Q6.59375 63.0938 13.4062 68.6562
Q20.2188 74.2188 32.1719 74.2188
Q37.3125 74.2188 42.625 73.2812
Q47.9531 72.3594 53.5156 70.5156" id="BitstreamVeraSans-Roman-53"/>
     <path d="
M64.4062 67.2812
L64.4062 56.8906
Q59.4219 61.5312 53.7812 63.8125
Q48.1406 66.1094 41.7969 66.1094
Q29.2969 66.1094 22.6562 58.4688
Q16.0156 50.8281 16.0156 36.375
Q16.0156 21.9688 22.6562 14.3281
Q29.2969 6.6875 41.7969 6.6875
Q48.1406 6.6875 53.7812 8.98438
Q59.4219 11.2812 64.4062 15.9219
L64.4062 5.60938
Q59.2344 2.09375 53.4375 0.328125
Q47.6562 -1.42188 41.2188 -1.42188
Q24.6562 -1.42188 15.125 8.70312
Q5.60938 18.8438 5.60938 36.375
Q5.60938 53.9531 15.125 64.0781
Q24.6562 74.2188 41.2188 74.2188
Q47.75 74.2188 53.5312 72.4844
Q59.3281 70.75 64.4062 67.2812" id="BitstreamVeraSans-Roman-43"/>
     <path d="
M18.1094 8.20312
L18.1094 -20.7969
L9.07812 -20.7969
L9.07812 54.6875
L18.1094 54.6875
L18.1094 46.3906
Q20.9531 51.2656 25.2656 53.625
Q29.5938 56 35.5938 56
Q45.5625 56 51.7812 48.0938
Q58.0156 40.1875 58.0156 27.2969
Q58.0156 14.4062 51.7812 6.48438
Q45.5625 -1.42188 35.5938 -1.42188
Q29.5938 -1.42188 25.2656 0.953125
Q20.9531 3.32812 18.1094 8.20312
M48.6875 27.2969
Q48.6875 37.2031 44.6094 42.8438
Q40.5312 48.4844 33.4062 48.4844
Q26.2656 48.4844 22.1875 42.8438
Q18.1094 37.2031 18.1094 27.2969
Q18.1094 17.3906 22.1875 11.75
Q26.2656 6.10938 33.4062 6.10938
Q40.5312 6.10938 44.6094 11.75
Q48.6875 17.3906 48.6875 27.2969" id="BitstreamVeraSans-Roman-70"/>
     <path d="
M37.1094 75.9844
L37.1094 68.5
L28.5156 68.5
Q23.6875 68.5 21.7969 66.5469
Q19.9219 64.5938 19.9219 59.5156
L19.9219 54.6875
L34.7188 54.6875
L34.7188 47.7031
L19.9219 47.7031
L19.9219 0
L10.8906 0
L10.8906 47.7031
L2.29688 47.7031
L2.29688 54.6875
L10.8906 54.6875
L10.8906 58.5
Q10.8906 67.625 15.1406 71.7969
Q19.3906 75.9844 28.6094 75.9844
z
" id="BitstreamVeraSans-Roman-66"/>
     <path d="
M44.2812 53.0781
L44.2812 44.5781
Q40.4844 46.5312 36.375 47.5
Q32.2812 48.4844 27.875 48.4844
Q21.1875 48.4844 17.8438 46.4375
Q14.5 44.3906 14.5 40.2812
Q14.5 37.1562 16.8906 35.375
Q19.2812 33.5938 26.5156 31.9844
L29.5938 31.2969
Q39.1562 29.25 43.1875 25.5156
Q47.2188 21.7812 47.2188 15.0938
Q47.2188 7.46875 41.1875 3.01562
Q35.1562 -1.42188 24.6094 -1.42188
Q20.2188 -1.42188 15.4531 -0.5625
Q10.6875 0.296875 5.42188 2
L5.42188 11.2812
Q10.4062 8.6875 15.2344 7.39062
Q20.0625 6.10938 24.8125 6.10938
Q31.1562 6.10938 34.5625 8.28125
Q37.9844 10.4531 37.9844 14.4062
Q37.9844 18.0625 35.5156 20.0156
Q33.0625 21.9688 24.7031 23.7812
L21.5781 24.5156
Q13.2344 26.2656 9.51562 29.9062
Q5.8125 33.5469 5.8125 39.8906
Q5.8125 47.6094 11.2812 51.7969
Q16.75 56 26.8125 56
Q31.7812 56 36.1719 55.2656
Q40.5781 54.5469 44.2812 53.0781" id="BitstreamVeraSans-Roman-73"/>
     <path d="
M48.7812 52.5938
L48.7812 44.1875
Q44.9688 46.2969 41.1406 47.3438
Q37.3125 48.3906 33.4062 48.3906
Q24.6562 48.3906 19.8125 42.8438
Q14.9844 37.3125 14.9844 27.2969
Q14.9844 17.2812 19.8125 11.7344
Q24.6562 6.20312 33.4062 6.20312
Q37.3125 6.20312 41.1406 7.25
Q44.9688 8.29688 48.7812 10.4062
L48.7812 2.09375
Q45.0156 0.34375 40.9844 -0.53125
Q36.9688 -1.42188 32.4219 -1.42188
Q20.0625 -1.42188 12.7812 6.34375
Q5.51562 14.1094 5.51562 27.2969
Q5.51562 40.6719 12.8594 48.3281
Q20.2188 56 33.0156 56
Q37.1562 56 41.1094 55.1406
Q45.0625 54.2969 48.7812 52.5938" id="BitstreamVeraSans-Roman-63"/>
    </defs>
    <g transform="translate(92.605921875 23.76)scale(0.144 -0.144)">
     <use xlink:href="#BitstreamVeraSans-Roman-53"/>
     <use x="63.4765625" xlink:href="#BitstreamVeraSans-Roman-74"/>
     <use x="102.685546875" xlink:href="#BitstreamVeraSans-Roman-72"/>
     <use x="141.548828125" xlink:href="#BitstreamVeraSans-Roman-65"/>
     <use x="203.072265625" xlink:href="#BitstreamVeraSans-Roman-73"/>
     <use x="255.171875" xlink:href="#BitstreamVeraSans-Roman-73"/>
     <use x="307.271484375" xlink:href="#BitstreamVeraSans-Roman-20"/>
     <use x="339.05859375" xlink:href="#BitstreamVeraSans-Roman-54"/>
     <use x="385.392578125" xlink:href="#BitstreamVeraSans-Roman-72"/>
     <use x="426.505859375" xlink:href="#BitstreamVeraSans-Roman-69"/>
     <use x="454.2890625" xlink:href="#BitstreamVeraSans-Roman-61"/>
     <use x="515.568359375" xlink:href="#BitstreamVeraSans-Roman-6c"/>
     <use x="543.3515625" xlink:href="#BitstreamVeraSans-Roman-20"/>
     <use x="575.138671875" xlink:href="#BitstreamVeraSans-Roman-50"/>
     <use x="631.81640625" xlink:href="#BitstreamVeraSans-Roman-65"/>
     <use x="693.33984375" xlink:href="#BitstreamVeraSans-Roman-72"/>
     <use x="734.453125" xlink:href="#BitstreamVeraSans-Roman-66"/>
     <use x="769.658203125" xlink:href="#BitstreamVeraSans-Roman-6f"/>
     <use x="830.83984375" xlink:href="#BitstreamVeraSans-Roman-72"/>
     <use x="870.203125" xlink:href="#BitstreamVeraSans-Roman-6d"/>
     <use x="967.615234375" xlink:href="#BitstreamVeraSans-Roman-61"/>
     <use x="1028.89453125" xlink:href="#BitstreamVeraSans-Roman-6e"/>
     <use x="1092.2734375" xlink:href="#BitstreamVeraSans-Roman-63"/>
     <use x="1147.25390625" xlink:href="#BitstreamVeraSans-Roman-65"/>
     <use x="1208.77734375" xlink:href="#BitstreamVeraSans-Roman-3a"/>
     <use x="1242.46875" xlink:href="#BitstreamVeraSans-Roman-20"/>
     <use x="1274.25585938" xlink:href="#BitstreamVeraSans-Roman-54"/>
     <use x="1320.58984375" xlink:href="#BitstreamVeraSans-Roman-72"/>
     <use x="1361.703125" xlink:href="#BitstreamVeraSans-Roman-69"/>
     <use x="1389.48632812" xlink:href="#BitstreamVeraSans-Roman-61"/>
     <use x="1450.765625" xlink:href="#BitstreamVeraSans-Roman-6c"/>
     <use x="1478.54882812" xlink:href="#BitstreamVeraSans-Roman-20"/>
     <use x="1510.3359375" xlink:href="#BitstreamVeraSans-Roman-43"/>
     <use x="1580.16015625" xlink:href="#BitstreamVeraSans-Roman-6f"/>
     <use x="1641.34179688" xlink:href="#BitstreamVeraSans-Roman-6d"/>
     <use x="1738.75390625" xlink:href="#BitstreamVeraSans-Roman-70"/>
     <use x="1802.23046875" xlink:href="#BitstreamVeraSans-Roman-6c"/>
     <use x="1830.01367188" xlink:href="#BitstreamVeraSans-Roman-65"/>
     <use x="1891.53710938" xlink:href="#BitstreamVeraSans-Roman-74"/>
     <use x="1930.74609375" xlink:href="#BitstreamVeraSans-Roman-69"/>
     <use x="1958.52929688" xlink:href="#BitstreamVeraSans-Roman-6f"/>
     <use x="2019.7109375" xlink:href="#BitstreamVeraSans-Roman-6e"/>
     <use x="2083.08984375" xlink:href="#BitstreamVeraSans-Roman-20"/>
     <use x="2114.87695312" xlink:href="#BitstreamVeraSans-Roman-52"/>
     <use x="2182.109375" xlink:href="#BitstreamVeraSans-Roman-61"/>
     <use x="2243.38867188" xlink:href="#BitstreamVeraSans-Roman-74"/>
     <use x="2282.59765625" xlink:href="#BitstreamVeraSans-Roman-65"/>
     <use x="2344.12109375" xlink:href="#BitstreamVeraSans-Roman-20"/>
     <use x="2375.90820312" xlink:href="#BitstreamVeraSans-Roman-30"/>
     <use x="2439.53125" xlink:href="#BitstreamVeraSans-Roman-2e"/>
     <use x="2471.31835938" xlink:href="#BitstreamVeraSans-Roman-35"/>
     <use x="2534.94140625" xlink:href="#BitstreamVeraSans-Roman-33"/>
     <use x="2598.56445312" xlink:href="#BitstreamVeraSans-Roman-34"/>
     <use x="2662.1875" xlink:href="#BitstreamVeraSans-Roman-39"/>
     <use x="2725.81054688" xlink:href="#BitstreamVeraSans-Roman-37"/>
     <use x="2789.43359375" xlink:href="#BitstreamVeraSans-Roman-39"/>
    </g>
   </g>
  </g>
  <g id="axes_2">
   <g id="patch_7">
    <path d="
M52.0256 384.84
L543.008 384.84
L543.008 238.28
L52.0256 238.28
z
" style="fill:#ffffff;"/>
   </g>
   <g id="line2d_27"/>
   <g id="line2d_28"/>
   <g id="line2d_29"/>
   <g id="line2d_30"/>
   <g id="patch_8">
    <path d="
M52.0256 238.28
L543.008 238.28" style="fill:none;stroke:#000000;stroke-linecap:square;stroke-linejoin:miter;"/>
   </g>
   <g id="patch_9">
    <path d="
M543.008 384.84
L543.008 238.28" style="fill:none;stroke:#000000;stroke-linecap:square;stroke-linejoin:miter;"/>
   </g>
   <g id="patch_10">
    <path d="
M52.0256 384.84
L543.008 384.84" style="fill:none;stroke:#000000;stroke-linecap:square;stroke-linejoin:miter;"/>
   </g>
   <g id="patch_11">
    <path d="
M52.0256 384.84
L52.0256 238.28" style="fill:none;stroke:#000000;stroke-linecap:square;stroke-linejoin:miter;"/>
   </g>
   <g id="matplotlib.axis_3">
    <g id="xtick_6">
     <g id="line2d_31">
      <g>
       <use style="stroke:#000000;stroke-width:0.5;" x="52.025625" xlink:href="#m93b0483c22" y="384.84"/>
      </g>
     </g>
     <g id="line2d_32">
      <g>
       <use style="stroke:#000000;stroke-width:0.5;" x="52.025625" xlink:href="#m741efc42ff" y="238.28"/>
      </g>
     </g>
     <g id="text_15">
      <!-- −0.0010 -->
      <defs>
       <path d="
M10.5938 35.5
L73.1875 35.5
L73.1875 27.2031
L10.5938 27.2031
z
" id="BitstreamVeraSans-Roman-2212"/>
      </defs>
      <g transform="translate(27.0375 397.958125)scale(0.12 -0.12)">
       <use xlink:href="#BitstreamVeraSans-Roman-2212"/>
       <use x="83.7890625" xlink:href="#BitstreamVeraSans-Roman-30"/>
       <use x="147.412109375" xlink:href="#BitstreamVeraSans-Roman-2e"/>
       <use x="179.19921875" xlink:href="#BitstreamVeraSans-Roman-30"/>
       <use x="242.822265625" xlink:href="#BitstreamVeraSans-Roman-30"/>
       <use x="306.4453125" xlink:href="#BitstreamVeraSans-Roman-31"/>
       <use x="370.068359375" xlink:href="#BitstreamVeraSans-Roman-30"/>
      </g>
     </g>
    </g>
    <g id="xtick_7">
     <g id="line2d_33">
      <g>
       <use style="stroke:#000000;stroke-width:0.5;" x="174.771210938" xlink:href="#m93b0483c22" y="384.84"/>
      </g>
     </g>
     <g id="line2d_34">
      <g>
       <use style="stroke:#000000;stroke-width:0.5;" x="174.771210938" xlink:href="#m741efc42ff" y="238.28"/>
      </g>
     </g>
     <g id="text_16">
      <!-- −0.0005 -->
      <g transform="translate(149.908710937 397.958125)scale(0.12 -0.12)">
       <use xlink:href="#BitstreamVeraSans-Roman-2212"/>
       <use x="83.7890625" xlink:href="#BitstreamVeraSans-Roman-30"/>
       <use x="147.412109375" xlink:href="#BitstreamVeraSans-Roman-2e"/>
       <use x="179.19921875" xlink:href="#BitstreamVeraSans-Roman-30"/>
       <use x="242.822265625" xlink:href="#BitstreamVeraSans-Roman-30"/>
       <use x="306.4453125" xlink:href="#BitstreamVeraSans-Roman-30"/>
       <use x="370.068359375" xlink:href="#BitstreamVeraSans-Roman-35"/>
      </g>
     </g>
    </g>
    <g id="xtick_8">
     <g id="line2d_35">
      <g>
       <use style="stroke:#000000;stroke-width:0.5;" x="297.516796875" xlink:href="#m93b0483c22" y="384.84"/>
      </g>
     </g>
     <g id="line2d_36">
      <g>
       <use style="stroke:#000000;stroke-width:0.5;" x="297.516796875" xlink:href="#m741efc42ff" y="238.28"/>
      </g>
     </g>
     <g id="text_17">
      <!-- 0.0000 -->
      <g transform="translate(277.316484375 397.958125)scale(0.12 -0.12)">
       <use xlink:href="#BitstreamVeraSans-Roman-30"/>
       <use x="63.623046875" xlink:href="#BitstreamVeraSans-Roman-2e"/>
       <use x="95.41015625" xlink:href="#BitstreamVeraSans-Roman-30"/>
       <use x="159.033203125" xlink:href="#BitstreamVeraSans-Roman-30"/>
       <use x="222.65625" xlink:href="#BitstreamVeraSans-Roman-30"/>
       <use x="286.279296875" xlink:href="#BitstreamVeraSans-Roman-30"/>
      </g>
     </g>
    </g>
    <g id="xtick_9">
     <g id="line2d_37">
      <g>
       <use style="stroke:#000000;stroke-width:0.5;" x="420.262382813" xlink:href="#m93b0483c22" y="384.84"/>
      </g>
     </g>
     <g id="line2d_38">
      <g>
       <use style="stroke:#000000;stroke-width:0.5;" x="420.262382813" xlink:href="#m741efc42ff" y="238.28"/>
      </g>
     </g>
     <g id="text_18">
      <!-- 0.0005 -->
      <g transform="translate(400.187695313 397.958125)scale(0.12 -0.12)">
       <use xlink:href="#BitstreamVeraSans-Roman-30"/>
       <use x="63.623046875" xlink:href="#BitstreamVeraSans-Roman-2e"/>
       <use x="95.41015625" xlink:href="#BitstreamVeraSans-Roman-30"/>
       <use x="159.033203125" xlink:href="#BitstreamVeraSans-Roman-30"/>
       <use x="222.65625" xlink:href="#BitstreamVeraSans-Roman-30"/>
       <use x="286.279296875" xlink:href="#BitstreamVeraSans-Roman-35"/>
      </g>
     </g>
    </g>
    <g id="xtick_10">
     <g id="line2d_39">
      <g>
       <use style="stroke:#000000;stroke-width:0.5;" x="543.00796875" xlink:href="#m93b0483c22" y="384.84"/>
      </g>
     </g>
     <g id="line2d_40">
      <g>
       <use style="stroke:#000000;stroke-width:0.5;" x="543.00796875" xlink:href="#m741efc42ff" y="238.28"/>
      </g>
     </g>
     <g id="text_19">
      <!-- 0.0010 -->
      <g transform="translate(522.80765625 397.958125)scale(0.12 -0.12)">
       <use xlink:href="#BitstreamVeraSans-Roman-30"/>
       <use x="63.623046875" xlink:href="#BitstreamVeraSans-Roman-2e"/>
       <use x="95.41015625" xlink:href="#BitstreamVeraSans-Roman-30"/>
       <use x="159.033203125" xlink:href="#BitstreamVeraSans-Roman-30"/>
       <use x="222.65625" xlink:href="#BitstreamVeraSans-Roman-31"/>
       <use x="286.279296875" xlink:href="#BitstreamVeraSans-Roman-30"/>
      </g>
     </g>
    </g>
    <g id="text_20">
     <!-- Trial Number -->
     <g transform="translate(259.232109375 414.571875)scale(0.12 -0.12)">
      <use xlink:href="#BitstreamVeraSans-Roman-54"/>
      <use x="46.333984375" xlink:href="#BitstreamVeraSans-Roman-72"/>
      <use x="87.447265625" xlink:href="#BitstreamVeraSans-Roman-69"/>
      <use x="115.23046875" xlink:href="#BitstreamVeraSans-Roman-61"/>
      <use x="176.509765625" xlink:href="#BitstreamVeraSans-Roman-6c"/>
      <use x="204.29296875" xlink:href="#BitstreamVeraSans-Roman-20"/>
      <use x="236.080078125" xlink:href="#BitstreamVeraSans-Roman-4e"/>
      <use x="310.884765625" xlink:href="#BitstreamVeraSans-Roman-75"/>
      <use x="374.263671875" xlink:href="#BitstreamVeraSans-Roman-6d"/>
      <use x="471.67578125" xlink:href="#BitstreamVeraSans-Roman-62"/>
      <use x="535.15234375" xlink:href="#BitstreamVeraSans-Roman-65"/>
      <use x="596.67578125" xlink:href="#BitstreamVeraSans-Roman-72"/>
     </g>
    </g>
   </g>
   <g id="matplotlib.axis_4">
    <g id="ytick_7">
     <g id="line2d_41">
      <g>
       <use style="stroke:#000000;stroke-width:0.5;" x="52.025625" xlink:href="#m728421d6d4" y="384.84"/>
      </g>
     </g>
     <g id="line2d_42">
      <g>
       <use style="stroke:#000000;stroke-width:0.5;" x="543.00796875" xlink:href="#mcb0005524f" y="384.84"/>
      </g>
     </g>
     <g id="text_21">
      <!-- 0.0 -->
      <g transform="translate(30.53 388.15125)scale(0.12 -0.12)">
       <use xlink:href="#BitstreamVeraSans-Roman-30"/>
       <use x="63.623046875" xlink:href="#BitstreamVeraSans-Roman-2e"/>
       <use x="95.41015625" xlink:href="#BitstreamVeraSans-Roman-30"/>
      </g>
     </g>
    </g>
    <g id="ytick_8">
     <g id="line2d_43">
      <g>
       <use style="stroke:#000000;stroke-width:0.5;" x="52.025625" xlink:href="#m728421d6d4" y="358.192727273"/>
      </g>
     </g>
     <g id="line2d_44">
      <g>
       <use style="stroke:#000000;stroke-width:0.5;" x="543.00796875" xlink:href="#mcb0005524f" y="358.192727273"/>
      </g>
     </g>
     <g id="text_22">
      <!-- 0.2 -->
      <g transform="translate(30.935 361.503977273)scale(0.12 -0.12)">
       <use xlink:href="#BitstreamVeraSans-Roman-30"/>
       <use x="63.623046875" xlink:href="#BitstreamVeraSans-Roman-2e"/>
       <use x="95.41015625" xlink:href="#BitstreamVeraSans-Roman-32"/>
      </g>
     </g>
    </g>
    <g id="ytick_9">
     <g id="line2d_45">
      <g>
       <use style="stroke:#000000;stroke-width:0.5;" x="52.025625" xlink:href="#m728421d6d4" y="331.545454545"/>
      </g>
     </g>
     <g id="line2d_46">
      <g>
       <use style="stroke:#000000;stroke-width:0.5;" x="543.00796875" xlink:href="#mcb0005524f" y="331.545454545"/>
      </g>
     </g>
     <g id="text_23">
      <!-- 0.4 -->
      <g transform="translate(30.40625 334.856704545)scale(0.12 -0.12)">
       <use xlink:href="#BitstreamVeraSans-Roman-30"/>
       <use x="63.623046875" xlink:href="#BitstreamVeraSans-Roman-2e"/>
       <use x="95.41015625" xlink:href="#BitstreamVeraSans-Roman-34"/>
      </g>
     </g>
    </g>
    <g id="ytick_10">
     <g id="line2d_47">
      <g>
       <use style="stroke:#000000;stroke-width:0.5;" x="52.025625" xlink:href="#m728421d6d4" y="304.898181818"/>
      </g>
     </g>
     <g id="line2d_48">
      <g>
       <use style="stroke:#000000;stroke-width:0.5;" x="543.00796875" xlink:href="#mcb0005524f" y="304.898181818"/>
      </g>
     </g>
     <g id="text_24">
      <!-- 0.6 -->
      <g transform="translate(30.48875 308.209431818)scale(0.12 -0.12)">
       <use xlink:href="#BitstreamVeraSans-Roman-30"/>
       <use x="63.623046875" xlink:href="#BitstreamVeraSans-Roman-2e"/>
       <use x="95.41015625" xlink:href="#BitstreamVeraSans-Roman-36"/>
      </g>
     </g>
    </g>
    <g id="ytick_11">
     <g id="line2d_49">
      <g>
       <use style="stroke:#000000;stroke-width:0.5;" x="52.025625" xlink:href="#m728421d6d4" y="278.250909091"/>
      </g>
     </g>
     <g id="line2d_50">
      <g>
       <use style="stroke:#000000;stroke-width:0.5;" x="543.00796875" xlink:href="#mcb0005524f" y="278.250909091"/>
      </g>
     </g>
     <g id="text_25">
      <!-- 0.8 -->
      <g transform="translate(30.554375 281.562159091)scale(0.12 -0.12)">
       <use xlink:href="#BitstreamVeraSans-Roman-30"/>
       <use x="63.623046875" xlink:href="#BitstreamVeraSans-Roman-2e"/>
       <use x="95.41015625" xlink:href="#BitstreamVeraSans-Roman-38"/>
      </g>
     </g>
    </g>
    <g id="ytick_12">
     <g id="line2d_51">
      <g>
       <use style="stroke:#000000;stroke-width:0.5;" x="52.025625" xlink:href="#m728421d6d4" y="251.603636364"/>
      </g>
     </g>
     <g id="line2d_52">
      <g>
       <use style="stroke:#000000;stroke-width:0.5;" x="543.00796875" xlink:href="#mcb0005524f" y="251.603636364"/>
      </g>
     </g>
     <g id="text_26">
      <!-- 1.0 -->
      <g transform="translate(31.056875 254.914886364)scale(0.12 -0.12)">
       <use xlink:href="#BitstreamVeraSans-Roman-31"/>
       <use x="63.623046875" xlink:href="#BitstreamVeraSans-Roman-2e"/>
       <use x="95.41015625" xlink:href="#BitstreamVeraSans-Roman-30"/>
      </g>
     </g>
    </g>
    <g id="text_27">
     <!-- Probability -->
     <g transform="translate(22.910625 342.506875)rotate(-90.0)scale(0.12 -0.12)">
      <use xlink:href="#BitstreamVeraSans-Roman-50"/>
      <use x="58.552734375" xlink:href="#BitstreamVeraSans-Roman-72"/>
      <use x="97.416015625" xlink:href="#BitstreamVeraSans-Roman-6f"/>
      <use x="158.59765625" xlink:href="#BitstreamVeraSans-Roman-62"/>
      <use x="222.07421875" xlink:href="#BitstreamVeraSans-Roman-61"/>
      <use x="283.353515625" xlink:href="#BitstreamVeraSans-Roman-62"/>
      <use x="346.830078125" xlink:href="#BitstreamVeraSans-Roman-69"/>
      <use x="374.61328125" xlink:href="#BitstreamVeraSans-Roman-6c"/>
      <use x="402.396484375" xlink:href="#BitstreamVeraSans-Roman-69"/>
      <use x="430.1796875" xlink:href="#BitstreamVeraSans-Roman-74"/>
      <use x="469.388671875" xlink:href="#BitstreamVeraSans-Roman-79"/>
     </g>
    </g>
   </g>
   <g id="text_28">
    <!-- Regular Trial Performance: Trial Completion Rate 1.000000 -->
    <defs>
     <path d="
M45.4062 27.9844
Q45.4062 37.75 41.375 43.1094
Q37.3594 48.4844 30.0781 48.4844
Q22.8594 48.4844 18.8281 43.1094
Q14.7969 37.75 14.7969 27.9844
Q14.7969 18.2656 18.8281 12.8906
Q22.8594 7.51562 30.0781 7.51562
Q37.3594 7.51562 41.375 12.8906
Q45.4062 18.2656 45.4062 27.9844
M54.3906 6.78125
Q54.3906 -7.17188 48.1875 -13.9844
Q42 -20.7969 29.2031 -20.7969
Q24.4688 -20.7969 20.2656 -20.0938
Q16.0625 -19.3906 12.1094 -17.9219
L12.1094 -9.1875
Q16.0625 -11.3281 19.9219 -12.3438
Q23.7812 -13.375 27.7812 -13.375
Q36.625 -13.375 41.0156 -8.76562
Q45.4062 -4.15625 45.4062 5.17188
L45.4062 9.625
Q42.625 4.78125 38.2812 2.39062
Q33.9375 0 27.875 0
Q17.8281 0 11.6719 7.65625
Q5.51562 15.3281 5.51562 27.9844
Q5.51562 40.6719 11.6719 48.3281
Q17.8281 56 27.875 56
Q33.9375 56 38.2812 53.6094
Q42.625 51.2188 45.4062 46.3906
L45.4062 54.6875
L54.3906 54.6875
z
" id="BitstreamVeraSans-Roman-67"/>
    </defs>
    <g transform="translate(87.085546875 233.28)scale(0.144 -0.144)">
     <use xlink:href="#BitstreamVeraSans-Roman-52"/>
     <use x="64.982421875" xlink:href="#BitstreamVeraSans-Roman-65"/>
     <use x="126.505859375" xlink:href="#BitstreamVeraSans-Roman-67"/>
     <use x="189.982421875" xlink:href="#BitstreamVeraSans-Roman-75"/>
     <use x="253.361328125" xlink:href="#BitstreamVeraSans-Roman-6c"/>
     <use x="281.14453125" xlink:href="#BitstreamVeraSans-Roman-61"/>
     <use x="342.423828125" xlink:href="#BitstreamVeraSans-Roman-72"/>
     <use x="383.537109375" xlink:href="#BitstreamVeraSans-Roman-20"/>
     <use x="415.32421875" xlink:href="#BitstreamVeraSans-Roman-54"/>
     <use x="461.658203125" xlink:href="#BitstreamVeraSans-Roman-72"/>
     <use x="502.771484375" xlink:href="#BitstreamVeraSans-Roman-69"/>
     <use x="530.5546875" xlink:href="#BitstreamVeraSans-Roman-61"/>
     <use x="591.833984375" xlink:href="#BitstreamVeraSans-Roman-6c"/>
     <use x="619.6171875" xlink:href="#BitstreamVeraSans-Roman-20"/>
     <use x="651.404296875" xlink:href="#BitstreamVeraSans-Roman-50"/>
     <use x="708.08203125" xlink:href="#BitstreamVeraSans-Roman-65"/>
     <use x="769.60546875" xlink:href="#BitstreamVeraSans-Roman-72"/>
     <use x="810.71875" xlink:href="#BitstreamVeraSans-Roman-66"/>
     <use x="845.923828125" xlink:href="#BitstreamVeraSans-Roman-6f"/>
     <use x="907.10546875" xlink:href="#BitstreamVeraSans-Roman-72"/>
     <use x="946.46875" xlink:href="#BitstreamVeraSans-Roman-6d"/>
     <use x="1043.88085938" xlink:href="#BitstreamVeraSans-Roman-61"/>
     <use x="1105.16015625" xlink:href="#BitstreamVeraSans-Roman-6e"/>
     <use x="1168.5390625" xlink:href="#BitstreamVeraSans-Roman-63"/>
     <use x="1223.51953125" xlink:href="#BitstreamVeraSans-Roman-65"/>
     <use x="1285.04296875" xlink:href="#BitstreamVeraSans-Roman-3a"/>
     <use x="1318.734375" xlink:href="#BitstreamVeraSans-Roman-20"/>
     <use x="1350.52148438" xlink:href="#BitstreamVeraSans-Roman-54"/>
     <use x="1396.85546875" xlink:href="#BitstreamVeraSans-Roman-72"/>
     <use x="1437.96875" xlink:href="#BitstreamVeraSans-Roman-69"/>
     <use x="1465.75195312" xlink:href="#BitstreamVeraSans-Roman-61"/>
     <use x="1527.03125" xlink:href="#BitstreamVeraSans-Roman-6c"/>
     <use x="1554.81445312" xlink:href="#BitstreamVeraSans-Roman-20"/>
     <use x="1586.6015625" xlink:href="#BitstreamVeraSans-Roman-43"/>
     <use x="1656.42578125" xlink:href="#BitstreamVeraSans-Roman-6f"/>
     <use x="1717.60742188" xlink:href="#BitstreamVeraSans-Roman-6d"/>
     <use x="1815.01953125" xlink:href="#BitstreamVeraSans-Roman-70"/>
     <use x="1878.49609375" xlink:href="#BitstreamVeraSans-Roman-6c"/>
     <use x="1906.27929688" xlink:href="#BitstreamVeraSans-Roman-65"/>
     <use x="1967.80273438" xlink:href="#BitstreamVeraSans-Roman-74"/>
     <use x="2007.01171875" xlink:href="#BitstreamVeraSans-Roman-69"/>
     <use x="2034.79492188" xlink:href="#BitstreamVeraSans-Roman-6f"/>
     <use x="2095.9765625" xlink:href="#BitstreamVeraSans-Roman-6e"/>
     <use x="2159.35546875" xlink:href="#BitstreamVeraSans-Roman-20"/>
     <use x="2191.14257812" xlink:href="#BitstreamVeraSans-Roman-52"/>
     <use x="2258.375" xlink:href="#BitstreamVeraSans-Roman-61"/>
     <use x="2319.65429688" xlink:href="#BitstreamVeraSans-Roman-74"/>
     <use x="2358.86328125" xlink:href="#BitstreamVeraSans-Roman-65"/>
     <use x="2420.38671875" xlink:href="#BitstreamVeraSans-Roman-20"/>
     <use x="2452.17382812" xlink:href="#BitstreamVeraSans-Roman-31"/>
     <use x="2515.796875" xlink:href="#BitstreamVeraSans-Roman-2e"/>
     <use x="2547.58398438" xlink:href="#BitstreamVeraSans-Roman-30"/>
     <use x="2611.20703125" xlink:href="#BitstreamVeraSans-Roman-30"/>
     <use x="2674.83007812" xlink:href="#BitstreamVeraSans-Roman-30"/>
     <use x="2738.453125" xlink:href="#BitstreamVeraSans-Roman-30"/>
     <use x="2802.07617188" xlink:href="#BitstreamVeraSans-Roman-30"/>
     <use x="2865.69921875" xlink:href="#BitstreamVeraSans-Roman-30"/>
    </g>
   </g>
   <g id="legend_1">
    <g id="patch_12">
     <path d="
M384.115 334.346
L535.808 334.346
L535.808 245.48
L384.115 245.48
z
" style="fill:#ffffff;stroke:#000000;stroke-linejoin:miter;"/>
    </g>
    <g id="line2d_53">
     <path d="
M394.195 257.142
L414.355 257.142" style="fill:none;stroke:#ff0000;stroke-linecap:square;"/>
    </g>
    <g id="line2d_54"/>
    <g id="text_29">
     <!-- Target - Low -->
     <defs>
      <path d="
M4.20312 54.6875
L13.1875 54.6875
L24.4219 12.0156
L35.5938 54.6875
L46.1875 54.6875
L57.4219 12.0156
L68.6094 54.6875
L77.5938 54.6875
L63.2812 0
L52.6875 0
L40.9219 44.8281
L29.1094 0
L18.5 0
z
" id="BitstreamVeraSans-Roman-77"/>
      <path d="
M9.8125 72.9062
L19.6719 72.9062
L19.6719 8.29688
L55.1719 8.29688
L55.1719 0
L9.8125 0
z
" id="BitstreamVeraSans-Roman-4c"/>
      <path d="
M4.89062 31.3906
L31.2031 31.3906
L31.2031 23.3906
L4.89062 23.3906
z
" id="BitstreamVeraSans-Roman-2d"/>
     </defs>
     <g transform="translate(430.19521875 262.18175)scale(0.144 -0.144)">
      <use xlink:href="#BitstreamVeraSans-Roman-54"/>
      <use x="44.583984375" xlink:href="#BitstreamVeraSans-Roman-61"/>
      <use x="105.86328125" xlink:href="#BitstreamVeraSans-Roman-72"/>
      <use x="145.2265625" xlink:href="#BitstreamVeraSans-Roman-67"/>
      <use x="208.703125" xlink:href="#BitstreamVeraSans-Roman-65"/>
      <use x="270.2265625" xlink:href="#BitstreamVeraSans-Roman-74"/>
      <use x="309.435546875" xlink:href="#BitstreamVeraSans-Roman-20"/>
      <use x="341.22265625" xlink:href="#BitstreamVeraSans-Roman-2d"/>
      <use x="377.306640625" xlink:href="#BitstreamVeraSans-Roman-20"/>
      <use x="409.09375" xlink:href="#BitstreamVeraSans-Roman-4c"/>
      <use x="463.056640625" xlink:href="#BitstreamVeraSans-Roman-6f"/>
      <use x="524.23828125" xlink:href="#BitstreamVeraSans-Roman-77"/>
     </g>
    </g>
    <g id="line2d_55">
     <path d="
M394.195 278.278
L414.355 278.278" style="fill:none;stroke:#ff0000;stroke-dasharray:6.000000,6.000000;stroke-dashoffset:0.0;"/>
    </g>
    <g id="line2d_56"/>
    <g id="text_30">
     <!-- Reward - Low -->
     <defs>
      <path d="
M45.4062 46.3906
L45.4062 75.9844
L54.3906 75.9844
L54.3906 0
L45.4062 0
L45.4062 8.20312
Q42.5781 3.32812 38.25 0.953125
Q33.9375 -1.42188 27.875 -1.42188
Q17.9688 -1.42188 11.7344 6.48438
Q5.51562 14.4062 5.51562 27.2969
Q5.51562 40.1875 11.7344 48.0938
Q17.9688 56 27.875 56
Q33.9375 56 38.25 53.625
Q42.5781 51.2656 45.4062 46.3906
M14.7969 27.2969
Q14.7969 17.3906 18.875 11.75
Q22.9531 6.10938 30.0781 6.10938
Q37.2031 6.10938 41.2969 11.75
Q45.4062 17.3906 45.4062 27.2969
Q45.4062 37.2031 41.2969 42.8438
Q37.2031 48.4844 30.0781 48.4844
Q22.9531 48.4844 18.875 42.8438
Q14.7969 37.2031 14.7969 27.2969" id="BitstreamVeraSans-Roman-64"/>
     </defs>
     <g transform="translate(430.19521875 283.31825)scale(0.144 -0.144)">
      <use xlink:href="#BitstreamVeraSans-Roman-52"/>
      <use x="64.982421875" xlink:href="#BitstreamVeraSans-Roman-65"/>
      <use x="126.505859375" xlink:href="#BitstreamVeraSans-Roman-77"/>
      <use x="208.29296875" xlink:href="#BitstreamVeraSans-Roman-61"/>
      <use x="269.572265625" xlink:href="#BitstreamVeraSans-Roman-72"/>
      <use x="308.935546875" xlink:href="#BitstreamVeraSans-Roman-64"/>
      <use x="372.412109375" xlink:href="#BitstreamVeraSans-Roman-20"/>
      <use x="404.19921875" xlink:href="#BitstreamVeraSans-Roman-2d"/>
      <use x="440.283203125" xlink:href="#BitstreamVeraSans-Roman-20"/>
      <use x="472.0703125" xlink:href="#BitstreamVeraSans-Roman-4c"/>
      <use x="526.033203125" xlink:href="#BitstreamVeraSans-Roman-6f"/>
      <use x="587.21484375" xlink:href="#BitstreamVeraSans-Roman-77"/>
     </g>
    </g>
    <g id="line2d_57">
     <path d="
M394.195 299.415
L414.355 299.415" style="fill:none;stroke:#0000ff;stroke-linecap:square;"/>
    </g>
    <g id="line2d_58"/>
    <g id="text_31">
     <!-- Target - High -->
     <defs>
      <path d="
M54.8906 33.0156
L54.8906 0
L45.9062 0
L45.9062 32.7188
Q45.9062 40.4844 42.875 44.3281
Q39.8438 48.1875 33.7969 48.1875
Q26.5156 48.1875 22.3125 43.5469
Q18.1094 38.9219 18.1094 30.9062
L18.1094 0
L9.07812 0
L9.07812 75.9844
L18.1094 75.9844
L18.1094 46.1875
Q21.3438 51.125 25.7031 53.5625
Q30.0781 56 35.7969 56
Q45.2188 56 50.0469 50.1719
Q54.8906 44.3438 54.8906 33.0156" id="BitstreamVeraSans-Roman-68"/>
      <path d="
M9.8125 72.9062
L19.6719 72.9062
L19.6719 43.0156
L55.5156 43.0156
L55.5156 72.9062
L65.375 72.9062
L65.375 0
L55.5156 0
L55.5156 34.7188
L19.6719 34.7188
L19.6719 0
L9.8125 0
z
" id="BitstreamVeraSans-Roman-48"/>
     </defs>
     <g transform="translate(430.19521875 304.45475)scale(0.144 -0.144)">
      <use xlink:href="#BitstreamVeraSans-Roman-54"/>
      <use x="44.583984375" xlink:href="#BitstreamVeraSans-Roman-61"/>
      <use x="105.86328125" xlink:href="#BitstreamVeraSans-Roman-72"/>
      <use x="145.2265625" xlink:href="#BitstreamVeraSans-Roman-67"/>
      <use x="208.703125" xlink:href="#BitstreamVeraSans-Roman-65"/>
      <use x="270.2265625" xlink:href="#BitstreamVeraSans-Roman-74"/>
      <use x="309.435546875" xlink:href="#BitstreamVeraSans-Roman-20"/>
      <use x="341.22265625" xlink:href="#BitstreamVeraSans-Roman-2d"/>
      <use x="377.306640625" xlink:href="#BitstreamVeraSans-Roman-20"/>
      <use x="409.09375" xlink:href="#BitstreamVeraSans-Roman-48"/>
      <use x="484.2890625" xlink:href="#BitstreamVeraSans-Roman-69"/>
      <use x="512.072265625" xlink:href="#BitstreamVeraSans-Roman-67"/>
      <use x="575.548828125" xlink:href="#BitstreamVeraSans-Roman-68"/>
     </g>
    </g>
    <g id="line2d_59">
     <path d="
M394.195 320.551
L414.355 320.551" style="fill:none;stroke:#0000ff;stroke-dasharray:6.000000,6.000000;stroke-dashoffset:0.0;"/>
    </g>
    <g id="line2d_60"/>
    <g id="text_32">
     <!-- Reward - High -->
     <g transform="translate(430.19521875 325.59125)scale(0.144 -0.144)">
      <use xlink:href="#BitstreamVeraSans-Roman-52"/>
      <use x="64.982421875" xlink:href="#BitstreamVeraSans-Roman-65"/>
      <use x="126.505859375" xlink:href="#BitstreamVeraSans-Roman-77"/>
      <use x="208.29296875" xlink:href="#BitstreamVeraSans-Roman-61"/>
      <use x="269.572265625" xlink:href="#BitstreamVeraSans-Roman-72"/>
      <use x="308.935546875" xlink:href="#BitstreamVeraSans-Roman-64"/>
      <use x="372.412109375" xlink:href="#BitstreamVeraSans-Roman-20"/>
      <use x="404.19921875" xlink:href="#BitstreamVeraSans-Roman-2d"/>
      <use x="440.283203125" xlink:href="#BitstreamVeraSans-Roman-20"/>
      <use x="472.0703125" xlink:href="#BitstreamVeraSans-Roman-48"/>
      <use x="547.265625" xlink:href="#BitstreamVeraSans-Roman-69"/>
      <use x="575.048828125" xlink:href="#BitstreamVeraSans-Roman-67"/>
      <use x="638.525390625" xlink:href="#BitstreamVeraSans-Roman-68"/>
     </g>
    </g>
   </g>
  </g>
 </g>
 <defs>
  <clipPath id="pdb6e13763d">
   <rect height="146.56" width="490.98234375" x="52.025625" y="28.76"/>
  </clipPath>
 </defs>
</svg>
