<?xml version="1.0" encoding="utf-8" standalone="no"?>
<!DOCTYPE svg PUBLIC "-//W3C//DTD SVG 1.1//EN"
  "http://www.w3.org/Graphics/SVG/1.1/DTD/svg11.dtd">
<!-- Created with matplotlib (http://matplotlib.org/) -->
<svg height="345pt" version="1.1" viewBox="0 0 460 345" width="460pt" xmlns="http://www.w3.org/2000/svg" xmlns:xlink="http://www.w3.org/1999/xlink">
 <defs>
  <style type="text/css">
*{stroke-linecap:butt;stroke-linejoin:round;}
  </style>
 </defs>
 <g id="figure_1">
  <g id="patch_1">
   <path d="M 0 345.6 
L 460.8 345.6 
L 460.8 0 
L 0 0 
z
" style="fill:#ffffff;"/>
  </g>
  <g id="axes_1">
   <g id="patch_2">
    <path d="M 57.6 307.584 
L 219.927273 307.584 
L 219.927273 41.472 
L 57.6 41.472 
z
" style="fill:#ffffff;"/>
   </g>
   <g id="matplotlib.axis_1">
    <g id="xtick_1">
     <g id="line2d_1">
      <defs>
       <path d="M 0 0 
L 0 3.5 
" id="m94ea2fb06c" style="stroke:#000000;stroke-width:0.8;"/>
      </defs>
      <g>
       <use style="stroke:#000000;stroke-width:0.8;" x="64.978512" xlink:href="#m94ea2fb06c" y="307.584"/>
      </g>
     </g>
     <g id="text_1">
      <!-- 0.0 -->
      <defs>
       <path d="M 31.78125 66.40625 
Q 24.171875 66.40625 20.328125 58.90625 
Q 16.5 51.421875 16.5 36.375 
Q 16.5 21.390625 20.328125 13.890625 
Q 24.171875 6.390625 31.78125 6.390625 
Q 39.453125 6.390625 43.28125 13.890625 
Q 47.125 21.390625 47.125 36.375 
Q 47.125 51.421875 43.28125 58.90625 
Q 39.453125 66.40625 31.78125 66.40625 
z
M 31.78125 74.21875 
Q 44.046875 74.21875 50.515625 64.515625 
Q 56.984375 54.828125 56.984375 36.375 
Q 56.984375 17.96875 50.515625 8.265625 
Q 44.046875 -1.421875 31.78125 -1.421875 
Q 19.53125 -1.421875 13.0625 8.265625 
Q 6.59375 17.96875 6.59375 36.375 
Q 6.59375 54.828125 13.0625 64.515625 
Q 19.53125 74.21875 31.78125 74.21875 
z
" id="DejaVuSans-30"/>
       <path d="M 10.6875 12.40625 
L 21 12.40625 
L 21 0 
L 10.6875 0 
z
" id="DejaVuSans-2e"/>
      </defs>
      <g transform="translate(57.02695 322.182437)scale(0.1 -0.1)">
       <use xlink:href="#DejaVuSans-30"/>
       <use x="63.623047" xlink:href="#DejaVuSans-2e"/>
       <use x="95.410156" xlink:href="#DejaVuSans-30"/>
      </g>
     </g>
    </g>
    <g id="xtick_2">
     <g id="line2d_2">
      <g>
       <use style="stroke:#000000;stroke-width:0.8;" x="79.834578" xlink:href="#m94ea2fb06c" y="307.584"/>
      </g>
     </g>
     <g id="text_2">
      <!-- 5.0 -->
      <defs>
       <path d="M 10.796875 72.90625 
L 49.515625 72.90625 
L 49.515625 64.59375 
L 19.828125 64.59375 
L 19.828125 46.734375 
Q 21.96875 47.46875 24.109375 47.828125 
Q 26.265625 48.1875 28.421875 48.1875 
Q 40.625 48.1875 47.75 41.5 
Q 54.890625 34.8125 54.890625 23.390625 
Q 54.890625 11.625 47.5625 5.09375 
Q 40.234375 -1.421875 26.90625 -1.421875 
Q 22.3125 -1.421875 17.546875 -0.640625 
Q 12.796875 0.140625 7.71875 1.703125 
L 7.71875 11.625 
Q 12.109375 9.234375 16.796875 8.0625 
Q 21.484375 6.890625 26.703125 6.890625 
Q 35.15625 6.890625 40.078125 11.328125 
Q 45.015625 15.765625 45.015625 23.390625 
Q 45.015625 31 40.078125 35.4375 
Q 35.15625 39.890625 26.703125 39.890625 
Q 22.75 39.890625 18.8125 39.015625 
Q 14.890625 38.140625 10.796875 36.28125 
z
" id="DejaVuSans-35"/>
      </defs>
      <g transform="translate(71.883015 322.182437)scale(0.1 -0.1)">
       <use xlink:href="#DejaVuSans-35"/>
       <use x="63.623047" xlink:href="#DejaVuSans-2e"/>
       <use x="95.410156" xlink:href="#DejaVuSans-30"/>
      </g>
     </g>
    </g>
    <g id="xtick_3">
     <g id="line2d_3">
      <g>
       <use style="stroke:#000000;stroke-width:0.8;" x="94.690643" xlink:href="#m94ea2fb06c" y="307.584"/>
      </g>
     </g>
     <g id="text_3">
      <!-- 10.0 -->
      <defs>
       <path d="M 12.40625 8.296875 
L 28.515625 8.296875 
L 28.515625 63.921875 
L 10.984375 60.40625 
L 10.984375 69.390625 
L 28.421875 72.90625 
L 38.28125 72.90625 
L 38.28125 8.296875 
L 54.390625 8.296875 
L 54.390625 0 
L 12.40625 0 
z
" id="DejaVuSans-31"/>
      </defs>
      <g transform="translate(83.55783 322.182437)scale(0.1 -0.1)">
       <use xlink:href="#DejaVuSans-31"/>
       <use x="63.623047" xlink:href="#DejaVuSans-30"/>
       <use x="127.246094" xlink:href="#DejaVuSans-2e"/>
       <use x="159.033203" xlink:href="#DejaVuSans-30"/>
      </g>
     </g>
    </g>
    <g id="xtick_4">
     <g id="line2d_4">
      <g>
       <use style="stroke:#000000;stroke-width:0.8;" x="109.546708" xlink:href="#m94ea2fb06c" y="307.584"/>
      </g>
     </g>
     <g id="text_4">
      <!-- 15.0 -->
      <g transform="translate(98.413896 322.182437)scale(0.1 -0.1)">
       <use xlink:href="#DejaVuSans-31"/>
       <use x="63.623047" xlink:href="#DejaVuSans-35"/>
       <use x="127.246094" xlink:href="#DejaVuSans-2e"/>
       <use x="159.033203" xlink:href="#DejaVuSans-30"/>
      </g>
     </g>
    </g>
    <g id="xtick_5">
     <g id="line2d_5">
      <g>
       <use style="stroke:#000000;stroke-width:0.8;" x="124.402773" xlink:href="#m94ea2fb06c" y="307.584"/>
      </g>
     </g>
     <g id="text_5">
      <!-- 20.0 -->
      <defs>
       <path d="M 19.1875 8.296875 
L 53.609375 8.296875 
L 53.609375 0 
L 7.328125 0 
L 7.328125 8.296875 
Q 12.9375 14.109375 22.625 23.890625 
Q 32.328125 33.6875 34.8125 36.53125 
Q 39.546875 41.84375 41.421875 45.53125 
Q 43.3125 49.21875 43.3125 52.78125 
Q 43.3125 58.59375 39.234375 62.25 
Q 35.15625 65.921875 28.609375 65.921875 
Q 23.96875 65.921875 18.8125 64.3125 
Q 13.671875 62.703125 7.8125 59.421875 
L 7.8125 69.390625 
Q 13.765625 71.78125 18.9375 73 
Q 24.125 74.21875 28.421875 74.21875 
Q 39.75 74.21875 46.484375 68.546875 
Q 53.21875 62.890625 53.21875 53.421875 
Q 53.21875 48.921875 51.53125 44.890625 
Q 49.859375 40.875 45.40625 35.40625 
Q 44.1875 33.984375 37.640625 27.21875 
Q 31.109375 20.453125 19.1875 8.296875 
z
" id="DejaVuSans-32"/>
      </defs>
      <g transform="translate(113.269961 322.182437)scale(0.1 -0.1)">
       <use xlink:href="#DejaVuSans-32"/>
       <use x="63.623047" xlink:href="#DejaVuSans-30"/>
       <use x="127.246094" xlink:href="#DejaVuSans-2e"/>
       <use x="159.033203" xlink:href="#DejaVuSans-30"/>
      </g>
     </g>
    </g>
    <g id="xtick_6">
     <g id="line2d_6">
      <g>
       <use style="stroke:#000000;stroke-width:0.8;" x="139.258839" xlink:href="#m94ea2fb06c" y="307.584"/>
      </g>
     </g>
     <g id="text_6">
      <!-- 25.0 -->
      <g transform="translate(128.126026 322.182437)scale(0.1 -0.1)">
       <use xlink:href="#DejaVuSans-32"/>
       <use x="63.623047" xlink:href="#DejaVuSans-35"/>
       <use x="127.246094" xlink:href="#DejaVuSans-2e"/>
       <use x="159.033203" xlink:href="#DejaVuSans-30"/>
      </g>
     </g>
    </g>
    <g id="xtick_7">
     <g id="line2d_7">
      <g>
       <use style="stroke:#000000;stroke-width:0.8;" x="154.114904" xlink:href="#m94ea2fb06c" y="307.584"/>
      </g>
     </g>
     <g id="text_7">
      <!-- 30.0 -->
      <defs>
       <path d="M 40.578125 39.3125 
Q 47.65625 37.796875 51.625 33 
Q 55.609375 28.21875 55.609375 21.1875 
Q 55.609375 10.40625 48.1875 4.484375 
Q 40.765625 -1.421875 27.09375 -1.421875 
Q 22.515625 -1.421875 17.65625 -0.515625 
Q 12.796875 0.390625 7.625 2.203125 
L 7.625 11.71875 
Q 11.71875 9.328125 16.59375 8.109375 
Q 21.484375 6.890625 26.8125 6.890625 
Q 36.078125 6.890625 40.9375 10.546875 
Q 45.796875 14.203125 45.796875 21.1875 
Q 45.796875 27.640625 41.28125 31.265625 
Q 36.765625 34.90625 28.71875 34.90625 
L 20.21875 34.90625 
L 20.21875 43.015625 
L 29.109375 43.015625 
Q 36.375 43.015625 40.234375 45.921875 
Q 44.09375 48.828125 44.09375 54.296875 
Q 44.09375 59.90625 40.109375 62.90625 
Q 36.140625 65.921875 28.71875 65.921875 
Q 24.65625 65.921875 20.015625 65.03125 
Q 15.375 64.15625 9.8125 62.3125 
L 9.8125 71.09375 
Q 15.4375 72.65625 20.34375 73.4375 
Q 25.25 74.21875 29.59375 74.21875 
Q 40.828125 74.21875 47.359375 69.109375 
Q 53.90625 64.015625 53.90625 55.328125 
Q 53.90625 49.265625 50.4375 45.09375 
Q 46.96875 40.921875 40.578125 39.3125 
z
" id="DejaVuSans-33"/>
      </defs>
      <g transform="translate(142.982091 322.182437)scale(0.1 -0.1)">
       <use xlink:href="#DejaVuSans-33"/>
       <use x="63.623047" xlink:href="#DejaVuSans-30"/>
       <use x="127.246094" xlink:href="#DejaVuSans-2e"/>
       <use x="159.033203" xlink:href="#DejaVuSans-30"/>
      </g>
     </g>
    </g>
    <g id="xtick_8">
     <g id="line2d_8">
      <g>
       <use style="stroke:#000000;stroke-width:0.8;" x="168.970969" xlink:href="#m94ea2fb06c" y="307.584"/>
      </g>
     </g>
     <g id="text_8">
      <!-- 35.0 -->
      <g transform="translate(157.838156 322.182437)scale(0.1 -0.1)">
       <use xlink:href="#DejaVuSans-33"/>
       <use x="63.623047" xlink:href="#DejaVuSans-35"/>
       <use x="127.246094" xlink:href="#DejaVuSans-2e"/>
       <use x="159.033203" xlink:href="#DejaVuSans-30"/>
      </g>
     </g>
    </g>
    <g id="xtick_9">
     <g id="line2d_9">
      <g>
       <use style="stroke:#000000;stroke-width:0.8;" x="183.827034" xlink:href="#m94ea2fb06c" y="307.584"/>
      </g>
     </g>
     <g id="text_9">
      <!-- 40.0 -->
      <defs>
       <path d="M 37.796875 64.3125 
L 12.890625 25.390625 
L 37.796875 25.390625 
z
M 35.203125 72.90625 
L 47.609375 72.90625 
L 47.609375 25.390625 
L 58.015625 25.390625 
L 58.015625 17.1875 
L 47.609375 17.1875 
L 47.609375 0 
L 37.796875 0 
L 37.796875 17.1875 
L 4.890625 17.1875 
L 4.890625 26.703125 
z
" id="DejaVuSans-34"/>
      </defs>
      <g transform="translate(172.694222 322.182437)scale(0.1 -0.1)">
       <use xlink:href="#DejaVuSans-34"/>
       <use x="63.623047" xlink:href="#DejaVuSans-30"/>
       <use x="127.246094" xlink:href="#DejaVuSans-2e"/>
       <use x="159.033203" xlink:href="#DejaVuSans-30"/>
      </g>
     </g>
    </g>
    <g id="xtick_10">
     <g id="line2d_10">
      <g>
       <use style="stroke:#000000;stroke-width:0.8;" x="198.683099" xlink:href="#m94ea2fb06c" y="307.584"/>
      </g>
     </g>
     <g id="text_10">
      <!-- 45.0 -->
      <g transform="translate(187.550287 322.182437)scale(0.1 -0.1)">
       <use xlink:href="#DejaVuSans-34"/>
       <use x="63.623047" xlink:href="#DejaVuSans-35"/>
       <use x="127.246094" xlink:href="#DejaVuSans-2e"/>
       <use x="159.033203" xlink:href="#DejaVuSans-30"/>
      </g>
     </g>
    </g>
    <g id="text_11">
     <!-- Minutes -->
     <defs>
      <path d="M 9.8125 72.90625 
L 24.515625 72.90625 
L 43.109375 23.296875 
L 61.8125 72.90625 
L 76.515625 72.90625 
L 76.515625 0 
L 66.890625 0 
L 66.890625 64.015625 
L 48.09375 14.015625 
L 38.1875 14.015625 
L 19.390625 64.015625 
L 19.390625 0 
L 9.8125 0 
z
" id="DejaVuSans-4d"/>
      <path d="M 9.421875 54.6875 
L 18.40625 54.6875 
L 18.40625 0 
L 9.421875 0 
z
M 9.421875 75.984375 
L 18.40625 75.984375 
L 18.40625 64.59375 
L 9.421875 64.59375 
z
" id="DejaVuSans-69"/>
      <path d="M 54.890625 33.015625 
L 54.890625 0 
L 45.90625 0 
L 45.90625 32.71875 
Q 45.90625 40.484375 42.875 44.328125 
Q 39.84375 48.1875 33.796875 48.1875 
Q 26.515625 48.1875 22.3125 43.546875 
Q 18.109375 38.921875 18.109375 30.90625 
L 18.109375 0 
L 9.078125 0 
L 9.078125 54.6875 
L 18.109375 54.6875 
L 18.109375 46.1875 
Q 21.34375 51.125 25.703125 53.5625 
Q 30.078125 56 35.796875 56 
Q 45.21875 56 50.046875 50.171875 
Q 54.890625 44.34375 54.890625 33.015625 
z
" id="DejaVuSans-6e"/>
      <path d="M 8.5 21.578125 
L 8.5 54.6875 
L 17.484375 54.6875 
L 17.484375 21.921875 
Q 17.484375 14.15625 20.5 10.265625 
Q 23.53125 6.390625 29.59375 6.390625 
Q 36.859375 6.390625 41.078125 11.03125 
Q 45.3125 15.671875 45.3125 23.6875 
L 45.3125 54.6875 
L 54.296875 54.6875 
L 54.296875 0 
L 45.3125 0 
L 45.3125 8.40625 
Q 42.046875 3.421875 37.71875 1 
Q 33.40625 -1.421875 27.6875 -1.421875 
Q 18.265625 -1.421875 13.375 4.4375 
Q 8.5 10.296875 8.5 21.578125 
z
M 31.109375 56 
z
" id="DejaVuSans-75"/>
      <path d="M 18.3125 70.21875 
L 18.3125 54.6875 
L 36.8125 54.6875 
L 36.8125 47.703125 
L 18.3125 47.703125 
L 18.3125 18.015625 
Q 18.3125 11.328125 20.140625 9.421875 
Q 21.96875 7.515625 27.59375 7.515625 
L 36.8125 7.515625 
L 36.8125 0 
L 27.59375 0 
Q 17.1875 0 13.234375 3.875 
Q 9.28125 7.765625 9.28125 18.015625 
L 9.28125 47.703125 
L 2.6875 47.703125 
L 2.6875 54.6875 
L 9.28125 54.6875 
L 9.28125 70.21875 
z
" id="DejaVuSans-74"/>
      <path d="M 56.203125 29.59375 
L 56.203125 25.203125 
L 14.890625 25.203125 
Q 15.484375 15.921875 20.484375 11.0625 
Q 25.484375 6.203125 34.421875 6.203125 
Q 39.59375 6.203125 44.453125 7.46875 
Q 49.3125 8.734375 54.109375 11.28125 
L 54.109375 2.78125 
Q 49.265625 0.734375 44.1875 -0.34375 
Q 39.109375 -1.421875 33.890625 -1.421875 
Q 20.796875 -1.421875 13.15625 6.1875 
Q 5.515625 13.8125 5.515625 26.8125 
Q 5.515625 40.234375 12.765625 48.109375 
Q 20.015625 56 32.328125 56 
Q 43.359375 56 49.78125 48.890625 
Q 56.203125 41.796875 56.203125 29.59375 
z
M 47.21875 32.234375 
Q 47.125 39.59375 43.09375 43.984375 
Q 39.0625 48.390625 32.421875 48.390625 
Q 24.90625 48.390625 20.390625 44.140625 
Q 15.875 39.890625 15.1875 32.171875 
z
" id="DejaVuSans-65"/>
      <path d="M 44.28125 53.078125 
L 44.28125 44.578125 
Q 40.484375 46.53125 36.375 47.5 
Q 32.28125 48.484375 27.875 48.484375 
Q 21.1875 48.484375 17.84375 46.4375 
Q 14.5 44.390625 14.5 40.28125 
Q 14.5 37.15625 16.890625 35.375 
Q 19.28125 33.59375 26.515625 31.984375 
L 29.59375 31.296875 
Q 39.15625 29.25 43.1875 25.515625 
Q 47.21875 21.78125 47.21875 15.09375 
Q 47.21875 7.46875 41.1875 3.015625 
Q 35.15625 -1.421875 24.609375 -1.421875 
Q 20.21875 -1.421875 15.453125 -0.5625 
Q 10.6875 0.296875 5.421875 2 
L 5.421875 11.28125 
Q 10.40625 8.6875 15.234375 7.390625 
Q 20.0625 6.109375 24.8125 6.109375 
Q 31.15625 6.109375 34.5625 8.28125 
Q 37.984375 10.453125 37.984375 14.40625 
Q 37.984375 18.0625 35.515625 20.015625 
Q 33.0625 21.96875 24.703125 23.78125 
L 21.578125 24.515625 
Q 13.234375 26.265625 9.515625 29.90625 
Q 5.8125 33.546875 5.8125 39.890625 
Q 5.8125 47.609375 11.28125 51.796875 
Q 16.75 56 26.8125 56 
Q 31.78125 56 36.171875 55.265625 
Q 40.578125 54.546875 44.28125 53.078125 
z
" id="DejaVuSans-73"/>
     </defs>
     <g transform="translate(119.081605 335.860562)scale(0.1 -0.1)">
      <use xlink:href="#DejaVuSans-4d"/>
      <use x="86.279297" xlink:href="#DejaVuSans-69"/>
      <use x="114.0625" xlink:href="#DejaVuSans-6e"/>
      <use x="177.441406" xlink:href="#DejaVuSans-75"/>
      <use x="240.820312" xlink:href="#DejaVuSans-74"/>
      <use x="280.029297" xlink:href="#DejaVuSans-65"/>
      <use x="341.552734" xlink:href="#DejaVuSans-73"/>
     </g>
    </g>
   </g>
   <g id="matplotlib.axis_2">
    <g id="ytick_1">
     <g id="line2d_11">
      <defs>
       <path d="M 0 0 
L -3.5 0 
" id="m4b43c1510a" style="stroke:#000000;stroke-width:0.8;"/>
      </defs>
      <g>
       <use style="stroke:#000000;stroke-width:0.8;" x="57.6" xlink:href="#m4b43c1510a" y="288.01237"/>
      </g>
     </g>
     <g id="text_12">
      <!-- 0.36 -->
      <defs>
       <path d="M 33.015625 40.375 
Q 26.375 40.375 22.484375 35.828125 
Q 18.609375 31.296875 18.609375 23.390625 
Q 18.609375 15.53125 22.484375 10.953125 
Q 26.375 6.390625 33.015625 6.390625 
Q 39.65625 6.390625 43.53125 10.953125 
Q 47.40625 15.53125 47.40625 23.390625 
Q 47.40625 31.296875 43.53125 35.828125 
Q 39.65625 40.375 33.015625 40.375 
z
M 52.59375 71.296875 
L 52.59375 62.3125 
Q 48.875 64.0625 45.09375 64.984375 
Q 41.3125 65.921875 37.59375 65.921875 
Q 27.828125 65.921875 22.671875 59.328125 
Q 17.53125 52.734375 16.796875 39.40625 
Q 19.671875 43.65625 24.015625 45.921875 
Q 28.375 48.1875 33.59375 48.1875 
Q 44.578125 48.1875 50.953125 41.515625 
Q 57.328125 34.859375 57.328125 23.390625 
Q 57.328125 12.15625 50.6875 5.359375 
Q 44.046875 -1.421875 33.015625 -1.421875 
Q 20.359375 -1.421875 13.671875 8.265625 
Q 6.984375 17.96875 6.984375 36.375 
Q 6.984375 53.65625 15.1875 63.9375 
Q 23.390625 74.21875 37.203125 74.21875 
Q 40.921875 74.21875 44.703125 73.484375 
Q 48.484375 72.75 52.59375 71.296875 
z
" id="DejaVuSans-36"/>
      </defs>
      <g transform="translate(28.334375 291.811589)scale(0.1 -0.1)">
       <use xlink:href="#DejaVuSans-30"/>
       <use x="63.623047" xlink:href="#DejaVuSans-2e"/>
       <use x="95.410156" xlink:href="#DejaVuSans-33"/>
       <use x="159.033203" xlink:href="#DejaVuSans-36"/>
      </g>
     </g>
    </g>
    <g id="ytick_2">
     <g id="line2d_12">
      <g>
       <use style="stroke:#000000;stroke-width:0.8;" x="57.6" xlink:href="#m4b43c1510a" y="251.672753"/>
      </g>
     </g>
     <g id="text_13">
      <!-- 0.38 -->
      <defs>
       <path d="M 31.78125 34.625 
Q 24.75 34.625 20.71875 30.859375 
Q 16.703125 27.09375 16.703125 20.515625 
Q 16.703125 13.921875 20.71875 10.15625 
Q 24.75 6.390625 31.78125 6.390625 
Q 38.8125 6.390625 42.859375 10.171875 
Q 46.921875 13.96875 46.921875 20.515625 
Q 46.921875 27.09375 42.890625 30.859375 
Q 38.875 34.625 31.78125 34.625 
z
M 21.921875 38.8125 
Q 15.578125 40.375 12.03125 44.71875 
Q 8.5 49.078125 8.5 55.328125 
Q 8.5 64.0625 14.71875 69.140625 
Q 20.953125 74.21875 31.78125 74.21875 
Q 42.671875 74.21875 48.875 69.140625 
Q 55.078125 64.0625 55.078125 55.328125 
Q 55.078125 49.078125 51.53125 44.71875 
Q 48 40.375 41.703125 38.8125 
Q 48.828125 37.15625 52.796875 32.3125 
Q 56.78125 27.484375 56.78125 20.515625 
Q 56.78125 9.90625 50.3125 4.234375 
Q 43.84375 -1.421875 31.78125 -1.421875 
Q 19.734375 -1.421875 13.25 4.234375 
Q 6.78125 9.90625 6.78125 20.515625 
Q 6.78125 27.484375 10.78125 32.3125 
Q 14.796875 37.15625 21.921875 38.8125 
z
M 18.3125 54.390625 
Q 18.3125 48.734375 21.84375 45.5625 
Q 25.390625 42.390625 31.78125 42.390625 
Q 38.140625 42.390625 41.71875 45.5625 
Q 45.3125 48.734375 45.3125 54.390625 
Q 45.3125 60.0625 41.71875 63.234375 
Q 38.140625 66.40625 31.78125 66.40625 
Q 25.390625 66.40625 21.84375 63.234375 
Q 18.3125 60.0625 18.3125 54.390625 
z
" id="DejaVuSans-38"/>
      </defs>
      <g transform="translate(28.334375 255.471972)scale(0.1 -0.1)">
       <use xlink:href="#DejaVuSans-30"/>
       <use x="63.623047" xlink:href="#DejaVuSans-2e"/>
       <use x="95.410156" xlink:href="#DejaVuSans-33"/>
       <use x="159.033203" xlink:href="#DejaVuSans-38"/>
      </g>
     </g>
    </g>
    <g id="ytick_3">
     <g id="line2d_13">
      <g>
       <use style="stroke:#000000;stroke-width:0.8;" x="57.6" xlink:href="#m4b43c1510a" y="215.333136"/>
      </g>
     </g>
     <g id="text_14">
      <!-- 0.40 -->
      <g transform="translate(28.334375 219.132355)scale(0.1 -0.1)">
       <use xlink:href="#DejaVuSans-30"/>
       <use x="63.623047" xlink:href="#DejaVuSans-2e"/>
       <use x="95.410156" xlink:href="#DejaVuSans-34"/>
       <use x="159.033203" xlink:href="#DejaVuSans-30"/>
      </g>
     </g>
    </g>
    <g id="ytick_4">
     <g id="line2d_14">
      <g>
       <use style="stroke:#000000;stroke-width:0.8;" x="57.6" xlink:href="#m4b43c1510a" y="178.993519"/>
      </g>
     </g>
     <g id="text_15">
      <!-- 0.42 -->
      <g transform="translate(28.334375 182.792738)scale(0.1 -0.1)">
       <use xlink:href="#DejaVuSans-30"/>
       <use x="63.623047" xlink:href="#DejaVuSans-2e"/>
       <use x="95.410156" xlink:href="#DejaVuSans-34"/>
       <use x="159.033203" xlink:href="#DejaVuSans-32"/>
      </g>
     </g>
    </g>
    <g id="ytick_5">
     <g id="line2d_15">
      <g>
       <use style="stroke:#000000;stroke-width:0.8;" x="57.6" xlink:href="#m4b43c1510a" y="142.653902"/>
      </g>
     </g>
     <g id="text_16">
      <!-- 0.44 -->
      <g transform="translate(28.334375 146.453121)scale(0.1 -0.1)">
       <use xlink:href="#DejaVuSans-30"/>
       <use x="63.623047" xlink:href="#DejaVuSans-2e"/>
       <use x="95.410156" xlink:href="#DejaVuSans-34"/>
       <use x="159.033203" xlink:href="#DejaVuSans-34"/>
      </g>
     </g>
    </g>
    <g id="ytick_6">
     <g id="line2d_16">
      <g>
       <use style="stroke:#000000;stroke-width:0.8;" x="57.6" xlink:href="#m4b43c1510a" y="106.314285"/>
      </g>
     </g>
     <g id="text_17">
      <!-- 0.46 -->
      <g transform="translate(28.334375 110.113504)scale(0.1 -0.1)">
       <use xlink:href="#DejaVuSans-30"/>
       <use x="63.623047" xlink:href="#DejaVuSans-2e"/>
       <use x="95.410156" xlink:href="#DejaVuSans-34"/>
       <use x="159.033203" xlink:href="#DejaVuSans-36"/>
      </g>
     </g>
    </g>
    <g id="ytick_7">
     <g id="line2d_17">
      <g>
       <use style="stroke:#000000;stroke-width:0.8;" x="57.6" xlink:href="#m4b43c1510a" y="69.974668"/>
      </g>
     </g>
     <g id="text_18">
      <!-- 0.48 -->
      <g transform="translate(28.334375 73.773887)scale(0.1 -0.1)">
       <use xlink:href="#DejaVuSans-30"/>
       <use x="63.623047" xlink:href="#DejaVuSans-2e"/>
       <use x="95.410156" xlink:href="#DejaVuSans-34"/>
       <use x="159.033203" xlink:href="#DejaVuSans-38"/>
      </g>
     </g>
    </g>
   </g>
   <g id="line2d_18">
    <path clip-path="url(#p7810a2e28a)" d="M 64.978512 134.36219 
L 65.226113 202.815605 
L 65.473715 180.894491 
L 65.721316 208.855188 
L 65.968917 198.864392 
L 66.216518 167.63357 
L 66.464119 146.470223 
L 66.71172 197.402984 
L 66.959321 163.249347 
L 67.206922 162.92459 
L 67.454523 187.985024 
L 67.702124 234.605731 
L 67.949725 157.511969 
L 68.197327 201.908991 
L 68.444928 178.350559 
L 68.692529 147.173864 
L 68.94013 152.099349 
L 69.187731 166.875803 
L 69.435332 155.130416 
L 69.682933 175.157113 
L 69.930534 151.449834 
L 70.178135 148.79765 
L 70.425736 147.163038 
L 70.673337 162.708085 
L 70.920938 143.352553 
L 71.16854 139.542068 
L 71.416141 184.791578 
L 71.663742 153.398378 
L 71.911343 193.451771 
L 72.158944 142.952019 
L 72.406545 152.532358 
L 72.654146 159.839396 
L 72.901747 181.110996 
L 73.149348 175.265365 
L 73.396949 148.711048 
L 73.64455 151.016824 
L 73.892152 124.7169 
L 74.139753 152.207601 
L 74.387354 179.108326 
L 74.634955 230.58686 
L 74.882556 169.798619 
L 75.130157 125.074133 
L 75.377758 141.111728 
L 75.625359 178.837695 
L 75.87296 152.911242 
L 76.120561 196.807596 
L 76.368162 174.886482 
L 76.615763 175.373618 
L 76.863365 145.387699 
L 77.110966 161.409056 
L 77.358567 168.228958 
L 77.606168 171.855414 
L 77.853769 134.838501 
L 78.10137 151.991096 
L 78.348971 151.395708 
L 78.596572 187.173131 
L 78.844173 165.576774 
L 79.091774 169.852745 
L 79.339375 152.402455 
L 79.586977 153.723135 
L 79.834578 173.695705 
L 80.082179 201.412834 
L 80.32978 194.859053 
L 80.577381 166.388667 
L 80.824982 161.246678 
L 81.072583 176.34789 
L 81.320184 149.284786 
L 81.567785 201.710528 
L 81.815386 207.118639 
L 82.062987 155.671678 
L 82.310588 159.35226 
L 82.55819 135.314812 
L 82.805791 145.008815 
L 83.053392 195.18381 
L 83.300993 143.980417 
L 83.548594 164.331872 
L 83.796195 127.693842 
L 84.043796 153.831387 
L 84.291397 198.539635 
L 84.538998 173.425074 
L 84.786599 166.821677 
L 85.0342 140.792384 
L 85.281802 144.738184 
L 85.529403 188.147403 
L 85.777004 175.91488 
L 86.024605 176.239637 
L 86.272206 163.952988 
L 86.519807 198.336662 
L 86.767408 209.527255 
L 87.015009 160.597163 
L 87.26261 156.158814 
L 87.510211 177.538666 
L 87.757812 133.35003 
L 88.005414 160.001775 
L 88.253015 157.674348 
L 88.500616 172.504929 
L 88.748217 134.957579 
L 88.995818 121.501803 
L 89.243419 148.635271 
L 89.49102 176.34789 
L 89.738621 121.323187 
L 89.986222 140.51634 
L 90.233823 179.595462 
L 90.481424 150.794907 
L 90.729025 117.945711 
L 90.976627 189.717063 
L 91.224228 160.705416 
L 91.471829 181.002744 
L 91.71943 122.454425 
L 91.967031 153.07362 
L 92.214632 182.031141 
L 92.462233 168.283085 
L 92.709834 164.169493 
L 92.957435 138.784301 
L 93.205036 167.092308 
L 93.452637 156.034324 
L 93.700239 147.552747 
L 93.94784 143.769325 
L 94.195441 138.405418 
L 94.443042 151.070951 
L 94.690643 176.059217 
" style="fill:none;stroke:#0000ff;stroke-linecap:square;stroke-width:1.5;"/>
   </g>
   <g id="line2d_19">
    <path clip-path="url(#p7810a2e28a)" d="M 94.938244 112.51144 
L 95.185845 133.945418 
L 95.433446 163.519978 
L 95.681047 185.603471 
L 95.928648 187.985024 
L 96.176249 133.35003 
L 96.42385 116.560081 
L 96.671452 79.288774 
L 96.919053 98.28166 
L 97.166654 77.859842 
L 97.414255 92.982704 
L 97.661856 76.960144 
L 97.909457 89.291297 
L 98.157058 64.589299 
L 98.404659 107.510179 
L 98.65226 103.282922 
L 98.899861 118.346245 
L 99.147462 80.00324 
L 99.395064 123.823818 
L 99.642665 85.302196 
L 99.890266 65.118533 
L 100.137867 79.765085 
L 100.385468 74.909362 
L 100.633069 88.279137 
L 100.88067 60.421581 
L 101.128271 72.560886 
L 101.375872 127.796681 
L 101.623473 108.760494 
L 101.871074 87.505132 
L 102.118675 114.595299 
L 102.366277 95.542874 
L 102.613878 90.958384 
L 102.861479 113.106829 
L 103.10908 92.804088 
L 103.356681 100.067825 
L 103.604282 111.677897 
L 103.851883 92.387316 
L 104.099484 93.101782 
L 104.347085 128.348769 
L 104.594686 70.060255 
L 104.842287 120.381391 
L 105.089889 153.235999 
L 105.33749 196.591091 
L 105.585091 222.052962 
L 105.832692 214.660224 
L 106.080293 166.875803 
L 106.327894 116.738697 
L 106.575495 96.79319 
L 106.823096 112.987751 
L 107.070697 69.167173 
L 107.318298 100.901369 
L 107.565899 64.192373 
L 107.8135 53.568 
L 108.061102 136.267433 
L 108.308703 190.799587 
L 108.556304 203.64554 
L 108.803905 205.73842 
L 109.051506 169.63624 
L 109.299107 178.729443 
L 109.546708 162.49158 
L 109.794309 119.6561 
L 110.04191 108.998649 
L 110.289511 87.412516 
L 110.537112 83.813725 
L 110.784714 71.469341 
L 111.032315 78.217075 
L 111.279916 123.942895 
L 111.527517 164.764881 
L 111.775118 185.982355 
L 112.022719 150.908572 
L 112.27032 170.123376 
L 112.517921 163.3576 
L 112.765522 155.677091 
L 113.013123 181.381627 
L 113.260724 191.043155 
L 113.508325 204.493518 
L 113.755927 188.611986 
L 114.003528 129.241851 
L 114.251129 163.844736 
L 114.49873 157.295465 
L 114.746331 150.746193 
L 114.993932 137.431146 
L 115.241533 148.635271 
L 115.489134 206.969792 
L 115.736735 210.542121 
L 115.984336 194.696674 
L 116.231937 144.684058 
L 116.479539 129.691099 
L 116.72714 176.239637 
L 116.974741 197.078227 
L 117.222342 188.90517 
L 117.469943 186.090607 
L 117.717544 157.024833 
L 117.965145 193.072888 
L 118.212746 180.407355 
L 118.460347 198.32313 
L 118.707948 199.080897 
L 118.955549 182.734782 
L 119.20315 162.004445 
L 119.450752 193.61415 
L 119.698353 189.825315 
L 119.945954 177.538666 
L 120.193555 192.315121 
L 120.441156 207.903469 
L 120.688757 205.878246 
L 120.936358 219.820255 
L 121.183959 178.512938 
L 121.43156 150.259058 
L 121.679161 134.833088 
L 121.926762 181.327501 
L 122.174364 188.418034 
L 122.421965 214.36253 
L 122.669566 165.901532 
L 122.917167 199.973979 
L 123.164768 210.690968 
L 123.412369 197.673615 
L 123.65997 219.77064 
L 123.907571 178.62119 
L 124.155172 198.336662 
L 124.402773 212.377902 
L 124.650374 205.828631 
" style="fill:none;stroke:#ff0000;stroke-linecap:square;stroke-width:1.5;"/>
   </g>
   <g id="line2d_20">
    <path clip-path="url(#p7810a2e28a)" d="M 124.897975 123.70474 
L 125.145577 196.848191 
L 125.393178 218.629479 
L 125.640779 218.232553 
L 125.88838 210.244427 
L 126.135981 207.578712 
L 126.631183 233.613417 
L 126.878784 199.026771 
L 127.126385 197.344348 
L 127.373986 234.258421 
L 127.621587 191.990364 
L 127.869189 187.227257 
L 128.11679 191.503228 
L 128.364391 209.103266 
L 128.859593 226.22068 
L 129.107194 220.266797 
L 129.354795 228.899927 
L 129.602396 274.512013 
L 129.849997 227.560303 
L 130.097598 247.654658 
L 130.345199 192.206869 
L 130.5928 215.454075 
L 130.840402 218.295701 
L 131.088003 190.47483 
L 131.335604 207.118639 
L 131.583205 184.89983 
L 131.830806 208.309415 
L 132.078407 183.871433 
L 132.573609 211.187125 
L 132.82121 213.419831 
L 133.068811 203.149384 
L 133.316412 202.305917 
L 133.564014 185.549345 
L 133.811615 126.086293 
L 134.059216 105.366781 
L 134.306817 97.2695 
L 134.554418 160.380658 
L 134.802019 112.154207 
L 135.04962 97.864888 
L 135.297221 114.05945 
L 135.544822 105.545397 
L 135.792423 102.925689 
L 136.040024 151.016824 
L 136.287625 103.104305 
L 136.535227 117.512702 
L 137.030429 92.327777 
L 137.27803 109.236805 
L 137.525631 147.498621 
L 137.773232 145.22532 
L 138.020833 125.306876 
L 138.268434 144.792311 
L 138.763636 125.577507 
L 139.011237 185.982355 
L 139.258839 112.273285 
L 139.50644 84.825885 
L 139.754041 122.930735 
L 140.001642 122.113429 
L 140.249243 118.048551 
L 140.744445 82.265715 
L 140.992046 111.796974 
L 141.239647 79.288774 
L 141.487248 96.852728 
L 141.734849 86.016662 
L 141.98245 124.538284 
L 142.477653 68.869479 
L 142.725254 93.161321 
L 142.972855 61.744666 
L 143.220456 94.352098 
L 143.468057 102.449378 
L 143.715658 125.631633 
L 143.963259 116.738697 
L 144.21086 86.492972 
L 144.458461 110.606198 
L 144.706062 87.802826 
L 144.953664 89.529452 
L 145.201265 118.227168 
L 145.944068 274.924205 
L 146.191669 257.38315 
L 146.43927 270.481692 
L 146.686871 221.854499 
L 146.934472 237.185747 
L 147.182073 243.090014 
L 147.677276 264.069818 
L 147.924877 222.400271 
L 148.420079 195.111642 
L 148.66768 207.903469 
L 148.915281 232.224178 
L 149.162882 219.125636 
L 149.658084 223.640664 
L 150.153286 220.614107 
L 150.400887 249.826298 
L 150.648489 240.509998 
L 150.89609 237.136131 
L 151.391292 204.34016 
L 151.638893 248.101199 
L 151.886494 210.988663 
L 152.134095 203.000536 
L 152.629297 169.257356 
L 152.876898 178.567064 
L 153.124499 210.988663 
L 153.372101 190.199688 
L 153.867303 205.530937 
L 154.114904 221.209495 
L 154.362505 184.89983 
L 154.610106 230.388398 
L 154.857707 180.62386 
L 155.105308 203.519246 
L 155.352909 175.91488 
L 155.848111 220.614107 
L 156.590915 139.363452 
L 156.838516 127.396147 
L 157.086117 121.204109 
L 157.333718 122.329934 
L 157.581319 140.49469 
L 157.82892 110.308504 
L 158.076521 126.443526 
L 158.324122 100.484597 
L 158.571723 107.92695 
L 159.066926 96.019185 
L 159.314527 118.286707 
L 159.562128 103.401999 
L 159.809729 136.029277 
L 160.552532 96.197801 
L 160.800133 95.959646 
L 161.047734 169.094978 
L 161.295335 129.599084 
L 161.790537 95.840568 
L 162.28574 151.287455 
L 162.533341 158.432115 
L 162.780942 118.286707 
L 163.028543 100.008286 
L 163.276144 112.809134 
L 163.523745 117.691318 
L 163.771346 138.94668 
L 164.018947 128.608574 
L 164.266548 164.277745 
L 164.514149 142.627262 
L 164.761751 131.802021 
L 165.009352 152.153475 
L 165.256953 161.084299 
L 165.504554 110.189426 
L 165.752155 120.191949 
L 166.247357 198.106625 
L 166.494958 183.979685 
L 166.742559 202.256301 
L 166.99016 260.05858 
L 167.237761 239.368838 
L 167.485362 243.735018 
L 167.980565 217.091393 
L 168.228166 223.144507 
L 168.475767 284.404618 
L 169.21857 210.285022 
L 169.713772 219.522561 
L 169.961373 227.560303 
L 170.208974 199.351528 
L 170.456576 188.309782 
L 170.704177 224.48413 
L 170.951778 235.548429 
L 171.199379 222.30104 
L 171.44698 225.377213 
L 171.694581 225.426829 
L 171.942182 252.070454 
L 172.189783 234.15919 
L 172.437384 236.987284 
L 172.684985 206.60444 
L 172.932586 223.591048 
L 173.180187 227.609919 
L 173.427789 238.326908 
L 173.67539 243.586171 
L 173.922991 239.468069 
L 174.170592 243.437324 
L 174.665794 237.086516 
L 174.913395 226.270295 
L 175.160996 254.055082 
L 175.408597 253.032235 
L 175.656198 244.082328 
L 175.903799 245.818877 
L 176.151401 256.486251 
L 176.646603 238.525371 
L 176.894204 246.414266 
L 177.141805 247.536343 
L 177.637007 267.962742 
L 177.884608 257.749543 
L 178.132209 254.551239 
L 178.875012 215.914148 
L 179.122614 227.262609 
L 179.370215 220.514875 
L 179.617816 229.197621 
L 179.865417 250.383521 
L 180.113018 229.842625 
L 180.360619 268.05434 
L 180.60822 223.094891 
L 180.855821 233.117261 
L 181.103422 231.777637 
L 181.351023 221.755267 
L 181.598624 231.529558 
L 181.846226 233.960727 
L 182.093827 209.960265 
L 182.341428 230.735707 
L 182.589029 230.388398 
L 182.83663 247.753889 
L 183.331832 228.999158 
L 183.579433 226.121448 
L 183.827034 218.976789 
L 184.074635 217.267303 
L 184.322236 217.934859 
L 184.569837 203.140362 
L 184.817439 225.922985 
L 185.06504 214.164067 
L 185.312641 208.507878 
L 185.560242 217.267303 
L 185.807843 197.691658 
L 186.055444 194.7508 
L 186.303045 180.732112 
L 186.550646 181.110996 
L 186.798247 148.79765 
L 187.045848 210.988663 
L 187.293449 190.100457 
L 187.541051 197.402984 
L 187.788652 168.716094 
L 188.036253 160.21828 
L 188.531455 227.212993 
L 188.779056 261.001279 
L 189.026657 251.326219 
L 189.521859 213.694973 
L 189.76946 218.133322 
L 190.017061 240.509998 
L 190.264662 222.846813 
L 190.512264 186.825821 
L 190.759865 226.270295 
L 191.007466 240.460383 
L 191.255067 220.564491 
L 191.502668 229.693778 
L 191.750269 229.247237 
L 191.99787 232.621104 
L 192.493072 245.769262 
L 192.740673 241.750391 
L 192.988274 224.930672 
L 193.235876 245.818877 
L 193.483477 243.933481 
L 193.731078 246.761575 
L 193.978679 257.841141 
L 194.22628 257.230486 
L 194.473881 253.719222 
L 194.721482 280.878087 
L 194.969083 250.879678 
L 195.216684 241.998469 
L 195.464285 245.769262 
L 195.959487 220.366028 
L 196.207089 220.266797 
L 196.45469 222.846813 
L 196.702291 207.763643 
L 196.949892 216.19831 
L 197.197493 177.755171 
L 197.445094 231.827253 
L 197.692695 260.157812 
L 197.940296 241.948853 
L 198.187897 237.73152 
L 198.435498 225.129134 
L 198.683099 235.895739 
L 198.930701 241.006155 
L 199.178302 255.34509 
L 199.425903 238.823065 
L 199.673504 231.380711 
L 199.921105 227.758766 
L 200.168706 238.624602 
L 200.416307 224.583362 
L 200.663908 251.77276 
L 200.911509 250.929293 
L 201.406711 229.991472 
L 201.654312 236.094202 
L 201.901914 268.420733 
L 202.149515 251.623913 
L 202.397116 217.141008 
L 202.644717 233.613417 
L 202.892318 202.405148 
L 203.139919 223.888742 
L 203.635121 239.864994 
L 203.882722 229.148005 
L 204.377924 250.036211 
L 204.625526 241.700775 
L 204.873127 225.674907 
L 205.120728 239.170375 
L 205.368329 234.407268 
L 205.61593 208.507878 
L 205.863531 194.588422 
L 206.111132 173.262696 
L 206.358733 171.63891 
L 206.606334 190.312451 
L 206.853935 163.465852 
L 207.101536 154.318523 
L 207.349138 193.722402 
L 207.596739 167.850075 
L 207.84434 171.151774 
L 208.091941 185.33284 
L 208.587143 141.268694 
L 208.834744 144.034544 
L 209.082345 160.434785 
L 209.329946 161.842066 
L 209.577547 172.396676 
L 209.825148 130.31355 
L 210.072749 119.417944 
L 210.567952 183.709054 
L 210.815553 255.184793 
L 211.063154 248.001968 
L 211.310755 295.488 
L 211.805957 155.888183 
L 212.053558 162.978716 
L 212.54876 113.791525 
L 212.54876 113.791525 
" style="fill:none;stroke:#000000;stroke-linecap:square;stroke-width:1.5;"/>
   </g>
   <g id="patch_3">
    <path d="M 57.6 307.584 
L 57.6 41.472 
" style="fill:none;stroke:#000000;stroke-linecap:square;stroke-linejoin:miter;stroke-width:0.8;"/>
   </g>
   <g id="patch_4">
    <path d="M 219.927273 307.584 
L 219.927273 41.472 
" style="fill:none;stroke:#000000;stroke-linecap:square;stroke-linejoin:miter;stroke-width:0.8;"/>
   </g>
   <g id="patch_5">
    <path d="M 57.6 307.584 
L 219.927273 307.584 
" style="fill:none;stroke:#000000;stroke-linecap:square;stroke-linejoin:miter;stroke-width:0.8;"/>
   </g>
   <g id="patch_6">
    <path d="M 57.6 41.472 
L 219.927273 41.472 
" style="fill:none;stroke:#000000;stroke-linecap:square;stroke-linejoin:miter;stroke-width:0.8;"/>
   </g>
   <g id="text_19">
    <!-- IBI - Reg vs Stress -->
    <defs>
     <path d="M 9.8125 72.90625 
L 19.671875 72.90625 
L 19.671875 0 
L 9.8125 0 
z
" id="DejaVuSans-49"/>
     <path d="M 19.671875 34.8125 
L 19.671875 8.109375 
L 35.5 8.109375 
Q 43.453125 8.109375 47.28125 11.40625 
Q 51.125 14.703125 51.125 21.484375 
Q 51.125 28.328125 47.28125 31.5625 
Q 43.453125 34.8125 35.5 34.8125 
z
M 19.671875 64.796875 
L 19.671875 42.828125 
L 34.28125 42.828125 
Q 41.5 42.828125 45.03125 45.53125 
Q 48.578125 48.25 48.578125 53.8125 
Q 48.578125 59.328125 45.03125 62.0625 
Q 41.5 64.796875 34.28125 64.796875 
z
M 9.8125 72.90625 
L 35.015625 72.90625 
Q 46.296875 72.90625 52.390625 68.21875 
Q 58.5 63.53125 58.5 54.890625 
Q 58.5 48.1875 55.375 44.234375 
Q 52.25 40.28125 46.1875 39.3125 
Q 53.46875 37.75 57.5 32.78125 
Q 61.53125 27.828125 61.53125 20.40625 
Q 61.53125 10.640625 54.890625 5.3125 
Q 48.25 0 35.984375 0 
L 9.8125 0 
z
" id="DejaVuSans-42"/>
     <path id="DejaVuSans-20"/>
     <path d="M 4.890625 31.390625 
L 31.203125 31.390625 
L 31.203125 23.390625 
L 4.890625 23.390625 
z
" id="DejaVuSans-2d"/>
     <path d="M 44.390625 34.1875 
Q 47.5625 33.109375 50.5625 29.59375 
Q 53.5625 26.078125 56.59375 19.921875 
L 66.609375 0 
L 56 0 
L 46.6875 18.703125 
Q 43.0625 26.03125 39.671875 28.421875 
Q 36.28125 30.8125 30.421875 30.8125 
L 19.671875 30.8125 
L 19.671875 0 
L 9.8125 0 
L 9.8125 72.90625 
L 32.078125 72.90625 
Q 44.578125 72.90625 50.734375 67.671875 
Q 56.890625 62.453125 56.890625 51.90625 
Q 56.890625 45.015625 53.6875 40.46875 
Q 50.484375 35.9375 44.390625 34.1875 
z
M 19.671875 64.796875 
L 19.671875 38.921875 
L 32.078125 38.921875 
Q 39.203125 38.921875 42.84375 42.21875 
Q 46.484375 45.515625 46.484375 51.90625 
Q 46.484375 58.296875 42.84375 61.546875 
Q 39.203125 64.796875 32.078125 64.796875 
z
" id="DejaVuSans-52"/>
     <path d="M 45.40625 27.984375 
Q 45.40625 37.75 41.375 43.109375 
Q 37.359375 48.484375 30.078125 48.484375 
Q 22.859375 48.484375 18.828125 43.109375 
Q 14.796875 37.75 14.796875 27.984375 
Q 14.796875 18.265625 18.828125 12.890625 
Q 22.859375 7.515625 30.078125 7.515625 
Q 37.359375 7.515625 41.375 12.890625 
Q 45.40625 18.265625 45.40625 27.984375 
z
M 54.390625 6.78125 
Q 54.390625 -7.171875 48.1875 -13.984375 
Q 42 -20.796875 29.203125 -20.796875 
Q 24.46875 -20.796875 20.265625 -20.09375 
Q 16.0625 -19.390625 12.109375 -17.921875 
L 12.109375 -9.1875 
Q 16.0625 -11.328125 19.921875 -12.34375 
Q 23.78125 -13.375 27.78125 -13.375 
Q 36.625 -13.375 41.015625 -8.765625 
Q 45.40625 -4.15625 45.40625 5.171875 
L 45.40625 9.625 
Q 42.625 4.78125 38.28125 2.390625 
Q 33.9375 0 27.875 0 
Q 17.828125 0 11.671875 7.65625 
Q 5.515625 15.328125 5.515625 27.984375 
Q 5.515625 40.671875 11.671875 48.328125 
Q 17.828125 56 27.875 56 
Q 33.9375 56 38.28125 53.609375 
Q 42.625 51.21875 45.40625 46.390625 
L 45.40625 54.6875 
L 54.390625 54.6875 
z
" id="DejaVuSans-67"/>
     <path d="M 2.984375 54.6875 
L 12.5 54.6875 
L 29.59375 8.796875 
L 46.6875 54.6875 
L 56.203125 54.6875 
L 35.6875 0 
L 23.484375 0 
z
" id="DejaVuSans-76"/>
     <path d="M 53.515625 70.515625 
L 53.515625 60.890625 
Q 47.90625 63.578125 42.921875 64.890625 
Q 37.9375 66.21875 33.296875 66.21875 
Q 25.25 66.21875 20.875 63.09375 
Q 16.5 59.96875 16.5 54.203125 
Q 16.5 49.359375 19.40625 46.890625 
Q 22.3125 44.4375 30.421875 42.921875 
L 36.375 41.703125 
Q 47.40625 39.59375 52.65625 34.296875 
Q 57.90625 29 57.90625 20.125 
Q 57.90625 9.515625 50.796875 4.046875 
Q 43.703125 -1.421875 29.984375 -1.421875 
Q 24.8125 -1.421875 18.96875 -0.25 
Q 13.140625 0.921875 6.890625 3.21875 
L 6.890625 13.375 
Q 12.890625 10.015625 18.65625 8.296875 
Q 24.421875 6.59375 29.984375 6.59375 
Q 38.421875 6.59375 43.015625 9.90625 
Q 47.609375 13.234375 47.609375 19.390625 
Q 47.609375 24.75 44.3125 27.78125 
Q 41.015625 30.8125 33.5 32.328125 
L 27.484375 33.5 
Q 16.453125 35.6875 11.515625 40.375 
Q 6.59375 45.0625 6.59375 53.421875 
Q 6.59375 63.09375 13.40625 68.65625 
Q 20.21875 74.21875 32.171875 74.21875 
Q 37.3125 74.21875 42.625 73.28125 
Q 47.953125 72.359375 53.515625 70.515625 
z
" id="DejaVuSans-53"/>
     <path d="M 41.109375 46.296875 
Q 39.59375 47.171875 37.8125 47.578125 
Q 36.03125 48 33.890625 48 
Q 26.265625 48 22.1875 43.046875 
Q 18.109375 38.09375 18.109375 28.8125 
L 18.109375 0 
L 9.078125 0 
L 9.078125 54.6875 
L 18.109375 54.6875 
L 18.109375 46.1875 
Q 20.953125 51.171875 25.484375 53.578125 
Q 30.03125 56 36.53125 56 
Q 37.453125 56 38.578125 55.875 
Q 39.703125 55.765625 41.0625 55.515625 
z
" id="DejaVuSans-72"/>
    </defs>
    <g transform="translate(84.402699 35.472)scale(0.12 -0.12)">
     <use xlink:href="#DejaVuSans-49"/>
     <use x="29.492188" xlink:href="#DejaVuSans-42"/>
     <use x="98.095703" xlink:href="#DejaVuSans-49"/>
     <use x="127.587891" xlink:href="#DejaVuSans-20"/>
     <use x="159.375" xlink:href="#DejaVuSans-2d"/>
     <use x="195.458984" xlink:href="#DejaVuSans-20"/>
     <use x="227.246094" xlink:href="#DejaVuSans-52"/>
     <use x="296.666016" xlink:href="#DejaVuSans-65"/>
     <use x="358.189453" xlink:href="#DejaVuSans-67"/>
     <use x="421.666016" xlink:href="#DejaVuSans-20"/>
     <use x="453.453125" xlink:href="#DejaVuSans-76"/>
     <use x="512.632812" xlink:href="#DejaVuSans-73"/>
     <use x="564.732422" xlink:href="#DejaVuSans-20"/>
     <use x="596.519531" xlink:href="#DejaVuSans-53"/>
     <use x="659.996094" xlink:href="#DejaVuSans-74"/>
     <use x="699.205078" xlink:href="#DejaVuSans-72"/>
     <use x="740.287109" xlink:href="#DejaVuSans-65"/>
     <use x="801.810547" xlink:href="#DejaVuSans-73"/>
     <use x="853.910156" xlink:href="#DejaVuSans-73"/>
    </g>
   </g>
   <g id="legend_1">
    <g id="patch_7">
     <path d="M 64.6 302.584 
L 133.807813 302.584 
Q 135.807813 302.584 135.807813 300.584 
L 135.807813 257.549625 
Q 135.807813 255.549625 133.807813 255.549625 
L 64.6 255.549625 
Q 62.6 255.549625 62.6 257.549625 
L 62.6 300.584 
Q 62.6 302.584 64.6 302.584 
z
" style="fill:#ffffff;opacity:0.8;stroke:#cccccc;stroke-linejoin:miter;"/>
    </g>
    <g id="line2d_21">
     <path d="M 66.6 263.648062 
L 86.6 263.648062 
" style="fill:none;stroke:#0000ff;stroke-linecap:square;stroke-width:1.5;"/>
    </g>
    <g id="line2d_22"/>
    <g id="text_20">
     <!-- Reg -->
     <g transform="translate(94.6 267.148062)scale(0.1 -0.1)">
      <use xlink:href="#DejaVuSans-52"/>
      <use x="69.419922" xlink:href="#DejaVuSans-65"/>
      <use x="130.943359" xlink:href="#DejaVuSans-67"/>
     </g>
    </g>
    <g id="line2d_23">
     <path d="M 66.6 278.326188 
L 86.6 278.326188 
" style="fill:none;stroke:#ff0000;stroke-linecap:square;stroke-width:1.5;"/>
    </g>
    <g id="line2d_24"/>
    <g id="text_21">
     <!-- Stress -->
     <g transform="translate(94.6 281.826188)scale(0.1 -0.1)">
      <use xlink:href="#DejaVuSans-53"/>
      <use x="63.476562" xlink:href="#DejaVuSans-74"/>
      <use x="102.685547" xlink:href="#DejaVuSans-72"/>
      <use x="143.767578" xlink:href="#DejaVuSans-65"/>
      <use x="205.291016" xlink:href="#DejaVuSans-73"/>
      <use x="257.390625" xlink:href="#DejaVuSans-73"/>
     </g>
    </g>
    <g id="line2d_25">
     <path d="M 66.6 293.004312 
L 86.6 293.004312 
" style="fill:none;stroke:#000000;stroke-linecap:square;stroke-width:1.5;"/>
    </g>
    <g id="line2d_26"/>
    <g id="text_22">
     <!-- Block C -->
     <defs>
      <path d="M 9.421875 75.984375 
L 18.40625 75.984375 
L 18.40625 0 
L 9.421875 0 
z
" id="DejaVuSans-6c"/>
      <path d="M 30.609375 48.390625 
Q 23.390625 48.390625 19.1875 42.75 
Q 14.984375 37.109375 14.984375 27.296875 
Q 14.984375 17.484375 19.15625 11.84375 
Q 23.34375 6.203125 30.609375 6.203125 
Q 37.796875 6.203125 41.984375 11.859375 
Q 46.1875 17.53125 46.1875 27.296875 
Q 46.1875 37.015625 41.984375 42.703125 
Q 37.796875 48.390625 30.609375 48.390625 
z
M 30.609375 56 
Q 42.328125 56 49.015625 48.375 
Q 55.71875 40.765625 55.71875 27.296875 
Q 55.71875 13.875 49.015625 6.21875 
Q 42.328125 -1.421875 30.609375 -1.421875 
Q 18.84375 -1.421875 12.171875 6.21875 
Q 5.515625 13.875 5.515625 27.296875 
Q 5.515625 40.765625 12.171875 48.375 
Q 18.84375 56 30.609375 56 
z
" id="DejaVuSans-6f"/>
      <path d="M 48.78125 52.59375 
L 48.78125 44.1875 
Q 44.96875 46.296875 41.140625 47.34375 
Q 37.3125 48.390625 33.40625 48.390625 
Q 24.65625 48.390625 19.8125 42.84375 
Q 14.984375 37.3125 14.984375 27.296875 
Q 14.984375 17.28125 19.8125 11.734375 
Q 24.65625 6.203125 33.40625 6.203125 
Q 37.3125 6.203125 41.140625 7.25 
Q 44.96875 8.296875 48.78125 10.40625 
L 48.78125 2.09375 
Q 45.015625 0.34375 40.984375 -0.53125 
Q 36.96875 -1.421875 32.421875 -1.421875 
Q 20.0625 -1.421875 12.78125 6.34375 
Q 5.515625 14.109375 5.515625 27.296875 
Q 5.515625 40.671875 12.859375 48.328125 
Q 20.21875 56 33.015625 56 
Q 37.15625 56 41.109375 55.140625 
Q 45.0625 54.296875 48.78125 52.59375 
z
" id="DejaVuSans-63"/>
      <path d="M 9.078125 75.984375 
L 18.109375 75.984375 
L 18.109375 31.109375 
L 44.921875 54.6875 
L 56.390625 54.6875 
L 27.390625 29.109375 
L 57.625 0 
L 45.90625 0 
L 18.109375 26.703125 
L 18.109375 0 
L 9.078125 0 
z
" id="DejaVuSans-6b"/>
      <path d="M 64.40625 67.28125 
L 64.40625 56.890625 
Q 59.421875 61.53125 53.78125 63.8125 
Q 48.140625 66.109375 41.796875 66.109375 
Q 29.296875 66.109375 22.65625 58.46875 
Q 16.015625 50.828125 16.015625 36.375 
Q 16.015625 21.96875 22.65625 14.328125 
Q 29.296875 6.6875 41.796875 6.6875 
Q 48.140625 6.6875 53.78125 8.984375 
Q 59.421875 11.28125 64.40625 15.921875 
L 64.40625 5.609375 
Q 59.234375 2.09375 53.4375 0.328125 
Q 47.65625 -1.421875 41.21875 -1.421875 
Q 24.65625 -1.421875 15.125 8.703125 
Q 5.609375 18.84375 5.609375 36.375 
Q 5.609375 53.953125 15.125 64.078125 
Q 24.65625 74.21875 41.21875 74.21875 
Q 47.75 74.21875 53.53125 72.484375 
Q 59.328125 70.75 64.40625 67.28125 
z
" id="DejaVuSans-43"/>
     </defs>
     <g transform="translate(94.6 296.504312)scale(0.1 -0.1)">
      <use xlink:href="#DejaVuSans-42"/>
      <use x="68.603516" xlink:href="#DejaVuSans-6c"/>
      <use x="96.386719" xlink:href="#DejaVuSans-6f"/>
      <use x="157.568359" xlink:href="#DejaVuSans-63"/>
      <use x="212.548828" xlink:href="#DejaVuSans-6b"/>
      <use x="270.458984" xlink:href="#DejaVuSans-20"/>
      <use x="302.246094" xlink:href="#DejaVuSans-43"/>
     </g>
    </g>
   </g>
  </g>
  <g id="axes_2">
   <g id="patch_8">
    <path d="M 252.392727 307.584 
L 414.72 307.584 
L 414.72 41.472 
L 252.392727 41.472 
z
" style="fill:#ffffff;"/>
   </g>
   <g id="matplotlib.axis_3">
    <g id="xtick_11">
     <g id="line2d_27">
      <g>
       <use style="stroke:#000000;stroke-width:0.8;" x="259.77124" xlink:href="#m94ea2fb06c" y="307.584"/>
      </g>
     </g>
     <g id="text_23">
      <!-- 0.0 -->
      <g transform="translate(251.819677 322.182437)scale(0.1 -0.1)">
       <use xlink:href="#DejaVuSans-30"/>
       <use x="63.623047" xlink:href="#DejaVuSans-2e"/>
       <use x="95.410156" xlink:href="#DejaVuSans-30"/>
      </g>
     </g>
    </g>
    <g id="xtick_12">
     <g id="line2d_28">
      <g>
       <use style="stroke:#000000;stroke-width:0.8;" x="274.627305" xlink:href="#m94ea2fb06c" y="307.584"/>
      </g>
     </g>
     <g id="text_24">
      <!-- 5.0 -->
      <g transform="translate(266.675742 322.182437)scale(0.1 -0.1)">
       <use xlink:href="#DejaVuSans-35"/>
       <use x="63.623047" xlink:href="#DejaVuSans-2e"/>
       <use x="95.410156" xlink:href="#DejaVuSans-30"/>
      </g>
     </g>
    </g>
    <g id="xtick_13">
     <g id="line2d_29">
      <g>
       <use style="stroke:#000000;stroke-width:0.8;" x="289.48337" xlink:href="#m94ea2fb06c" y="307.584"/>
      </g>
     </g>
     <g id="text_25">
      <!-- 10.0 -->
      <g transform="translate(278.350558 322.182437)scale(0.1 -0.1)">
       <use xlink:href="#DejaVuSans-31"/>
       <use x="63.623047" xlink:href="#DejaVuSans-30"/>
       <use x="127.246094" xlink:href="#DejaVuSans-2e"/>
       <use x="159.033203" xlink:href="#DejaVuSans-30"/>
      </g>
     </g>
    </g>
    <g id="xtick_14">
     <g id="line2d_30">
      <g>
       <use style="stroke:#000000;stroke-width:0.8;" x="304.339435" xlink:href="#m94ea2fb06c" y="307.584"/>
      </g>
     </g>
     <g id="text_26">
      <!-- 15.0 -->
      <g transform="translate(293.206623 322.182437)scale(0.1 -0.1)">
       <use xlink:href="#DejaVuSans-31"/>
       <use x="63.623047" xlink:href="#DejaVuSans-35"/>
       <use x="127.246094" xlink:href="#DejaVuSans-2e"/>
       <use x="159.033203" xlink:href="#DejaVuSans-30"/>
      </g>
     </g>
    </g>
    <g id="xtick_15">
     <g id="line2d_31">
      <g>
       <use style="stroke:#000000;stroke-width:0.8;" x="319.195501" xlink:href="#m94ea2fb06c" y="307.584"/>
      </g>
     </g>
     <g id="text_27">
      <!-- 20.0 -->
      <g transform="translate(308.062688 322.182437)scale(0.1 -0.1)">
       <use xlink:href="#DejaVuSans-32"/>
       <use x="63.623047" xlink:href="#DejaVuSans-30"/>
       <use x="127.246094" xlink:href="#DejaVuSans-2e"/>
       <use x="159.033203" xlink:href="#DejaVuSans-30"/>
      </g>
     </g>
    </g>
    <g id="xtick_16">
     <g id="line2d_32">
      <g>
       <use style="stroke:#000000;stroke-width:0.8;" x="334.051566" xlink:href="#m94ea2fb06c" y="307.584"/>
      </g>
     </g>
     <g id="text_28">
      <!-- 25.0 -->
      <g transform="translate(322.918753 322.182437)scale(0.1 -0.1)">
       <use xlink:href="#DejaVuSans-32"/>
       <use x="63.623047" xlink:href="#DejaVuSans-35"/>
       <use x="127.246094" xlink:href="#DejaVuSans-2e"/>
       <use x="159.033203" xlink:href="#DejaVuSans-30"/>
      </g>
     </g>
    </g>
    <g id="xtick_17">
     <g id="line2d_33">
      <g>
       <use style="stroke:#000000;stroke-width:0.8;" x="348.907631" xlink:href="#m94ea2fb06c" y="307.584"/>
      </g>
     </g>
     <g id="text_29">
      <!-- 30.0 -->
      <g transform="translate(337.774819 322.182437)scale(0.1 -0.1)">
       <use xlink:href="#DejaVuSans-33"/>
       <use x="63.623047" xlink:href="#DejaVuSans-30"/>
       <use x="127.246094" xlink:href="#DejaVuSans-2e"/>
       <use x="159.033203" xlink:href="#DejaVuSans-30"/>
      </g>
     </g>
    </g>
    <g id="xtick_18">
     <g id="line2d_34">
      <g>
       <use style="stroke:#000000;stroke-width:0.8;" x="363.763696" xlink:href="#m94ea2fb06c" y="307.584"/>
      </g>
     </g>
     <g id="text_30">
      <!-- 35.0 -->
      <g transform="translate(352.630884 322.182437)scale(0.1 -0.1)">
       <use xlink:href="#DejaVuSans-33"/>
       <use x="63.623047" xlink:href="#DejaVuSans-35"/>
       <use x="127.246094" xlink:href="#DejaVuSans-2e"/>
       <use x="159.033203" xlink:href="#DejaVuSans-30"/>
      </g>
     </g>
    </g>
    <g id="xtick_19">
     <g id="line2d_35">
      <g>
       <use style="stroke:#000000;stroke-width:0.8;" x="378.619761" xlink:href="#m94ea2fb06c" y="307.584"/>
      </g>
     </g>
     <g id="text_31">
      <!-- 40.0 -->
      <g transform="translate(367.486949 322.182437)scale(0.1 -0.1)">
       <use xlink:href="#DejaVuSans-34"/>
       <use x="63.623047" xlink:href="#DejaVuSans-30"/>
       <use x="127.246094" xlink:href="#DejaVuSans-2e"/>
       <use x="159.033203" xlink:href="#DejaVuSans-30"/>
      </g>
     </g>
    </g>
    <g id="xtick_20">
     <g id="line2d_36">
      <g>
       <use style="stroke:#000000;stroke-width:0.8;" x="393.475827" xlink:href="#m94ea2fb06c" y="307.584"/>
      </g>
     </g>
     <g id="text_32">
      <!-- 45.0 -->
      <g transform="translate(382.343014 322.182437)scale(0.1 -0.1)">
       <use xlink:href="#DejaVuSans-34"/>
       <use x="63.623047" xlink:href="#DejaVuSans-35"/>
       <use x="127.246094" xlink:href="#DejaVuSans-2e"/>
       <use x="159.033203" xlink:href="#DejaVuSans-30"/>
      </g>
     </g>
    </g>
    <g id="text_33">
     <!-- Minutes -->
     <g transform="translate(313.874332 335.860562)scale(0.1 -0.1)">
      <use xlink:href="#DejaVuSans-4d"/>
      <use x="86.279297" xlink:href="#DejaVuSans-69"/>
      <use x="114.0625" xlink:href="#DejaVuSans-6e"/>
      <use x="177.441406" xlink:href="#DejaVuSans-75"/>
      <use x="240.820312" xlink:href="#DejaVuSans-74"/>
      <use x="280.029297" xlink:href="#DejaVuSans-65"/>
      <use x="341.552734" xlink:href="#DejaVuSans-73"/>
     </g>
    </g>
   </g>
   <g id="matplotlib.axis_4">
    <g id="ytick_8">
     <g id="line2d_37">
      <g>
       <use style="stroke:#000000;stroke-width:0.8;" x="252.392727" xlink:href="#m4b43c1510a" y="307.584"/>
      </g>
     </g>
     <g id="text_34">
      <!-- 1.00 -->
      <g transform="translate(223.127102 311.383219)scale(0.1 -0.1)">
       <use xlink:href="#DejaVuSans-31"/>
       <use x="63.623047" xlink:href="#DejaVuSans-2e"/>
       <use x="95.410156" xlink:href="#DejaVuSans-30"/>
       <use x="159.033203" xlink:href="#DejaVuSans-30"/>
      </g>
     </g>
    </g>
    <g id="ytick_9">
     <g id="line2d_38">
      <g>
       <use style="stroke:#000000;stroke-width:0.8;" x="252.392727" xlink:href="#m4b43c1510a" y="274.32"/>
      </g>
     </g>
     <g id="text_35">
      <!-- 1.25 -->
      <g transform="translate(223.127102 278.119219)scale(0.1 -0.1)">
       <use xlink:href="#DejaVuSans-31"/>
       <use x="63.623047" xlink:href="#DejaVuSans-2e"/>
       <use x="95.410156" xlink:href="#DejaVuSans-32"/>
       <use x="159.033203" xlink:href="#DejaVuSans-35"/>
      </g>
     </g>
    </g>
    <g id="ytick_10">
     <g id="line2d_39">
      <g>
       <use style="stroke:#000000;stroke-width:0.8;" x="252.392727" xlink:href="#m4b43c1510a" y="241.056"/>
      </g>
     </g>
     <g id="text_36">
      <!-- 1.50 -->
      <g transform="translate(223.127102 244.855219)scale(0.1 -0.1)">
       <use xlink:href="#DejaVuSans-31"/>
       <use x="63.623047" xlink:href="#DejaVuSans-2e"/>
       <use x="95.410156" xlink:href="#DejaVuSans-35"/>
       <use x="159.033203" xlink:href="#DejaVuSans-30"/>
      </g>
     </g>
    </g>
    <g id="ytick_11">
     <g id="line2d_40">
      <g>
       <use style="stroke:#000000;stroke-width:0.8;" x="252.392727" xlink:href="#m4b43c1510a" y="207.792"/>
      </g>
     </g>
     <g id="text_37">
      <!-- 1.75 -->
      <defs>
       <path d="M 8.203125 72.90625 
L 55.078125 72.90625 
L 55.078125 68.703125 
L 28.609375 0 
L 18.3125 0 
L 43.21875 64.59375 
L 8.203125 64.59375 
z
" id="DejaVuSans-37"/>
      </defs>
      <g transform="translate(223.127102 211.591219)scale(0.1 -0.1)">
       <use xlink:href="#DejaVuSans-31"/>
       <use x="63.623047" xlink:href="#DejaVuSans-2e"/>
       <use x="95.410156" xlink:href="#DejaVuSans-37"/>
       <use x="159.033203" xlink:href="#DejaVuSans-35"/>
      </g>
     </g>
    </g>
    <g id="ytick_12">
     <g id="line2d_41">
      <g>
       <use style="stroke:#000000;stroke-width:0.8;" x="252.392727" xlink:href="#m4b43c1510a" y="174.528"/>
      </g>
     </g>
     <g id="text_38">
      <!-- 2.00 -->
      <g transform="translate(223.127102 178.327219)scale(0.1 -0.1)">
       <use xlink:href="#DejaVuSans-32"/>
       <use x="63.623047" xlink:href="#DejaVuSans-2e"/>
       <use x="95.410156" xlink:href="#DejaVuSans-30"/>
       <use x="159.033203" xlink:href="#DejaVuSans-30"/>
      </g>
     </g>
    </g>
    <g id="ytick_13">
     <g id="line2d_42">
      <g>
       <use style="stroke:#000000;stroke-width:0.8;" x="252.392727" xlink:href="#m4b43c1510a" y="141.264"/>
      </g>
     </g>
     <g id="text_39">
      <!-- 2.25 -->
      <g transform="translate(223.127102 145.063219)scale(0.1 -0.1)">
       <use xlink:href="#DejaVuSans-32"/>
       <use x="63.623047" xlink:href="#DejaVuSans-2e"/>
       <use x="95.410156" xlink:href="#DejaVuSans-32"/>
       <use x="159.033203" xlink:href="#DejaVuSans-35"/>
      </g>
     </g>
    </g>
    <g id="ytick_14">
     <g id="line2d_43">
      <g>
       <use style="stroke:#000000;stroke-width:0.8;" x="252.392727" xlink:href="#m4b43c1510a" y="108"/>
      </g>
     </g>
     <g id="text_40">
      <!-- 2.50 -->
      <g transform="translate(223.127102 111.799219)scale(0.1 -0.1)">
       <use xlink:href="#DejaVuSans-32"/>
       <use x="63.623047" xlink:href="#DejaVuSans-2e"/>
       <use x="95.410156" xlink:href="#DejaVuSans-35"/>
       <use x="159.033203" xlink:href="#DejaVuSans-30"/>
      </g>
     </g>
    </g>
    <g id="ytick_15">
     <g id="line2d_44">
      <g>
       <use style="stroke:#000000;stroke-width:0.8;" x="252.392727" xlink:href="#m4b43c1510a" y="74.736"/>
      </g>
     </g>
     <g id="text_41">
      <!-- 2.75 -->
      <g transform="translate(223.127102 78.535219)scale(0.1 -0.1)">
       <use xlink:href="#DejaVuSans-32"/>
       <use x="63.623047" xlink:href="#DejaVuSans-2e"/>
       <use x="95.410156" xlink:href="#DejaVuSans-37"/>
       <use x="159.033203" xlink:href="#DejaVuSans-35"/>
      </g>
     </g>
    </g>
    <g id="ytick_16">
     <g id="line2d_45">
      <g>
       <use style="stroke:#000000;stroke-width:0.8;" x="252.392727" xlink:href="#m4b43c1510a" y="41.472"/>
      </g>
     </g>
     <g id="text_42">
      <!-- 3.00 -->
      <g transform="translate(223.127102 45.271219)scale(0.1 -0.1)">
       <use xlink:href="#DejaVuSans-33"/>
       <use x="63.623047" xlink:href="#DejaVuSans-2e"/>
       <use x="95.410156" xlink:href="#DejaVuSans-30"/>
       <use x="159.033203" xlink:href="#DejaVuSans-30"/>
      </g>
     </g>
    </g>
   </g>
   <g id="line2d_46">
    <path clip-path="url(#p433e669813)" d="M 259.77124 273.225232 
L 260.018841 141.787726 
L 260.266442 180.152219 
L 260.514043 171.962976 
L 260.761644 197.016524 
L 261.009245 224.869904 
L 261.256846 236.485243 
L 261.504447 196.003502 
L 261.752048 219.74262 
L 261.999649 226.973433 
L 262.247251 200.237586 
L 262.494852 233.738407 
L 262.742453 210.660701 
L 262.990054 173.629289 
L 263.237655 175.709117 
L 263.485256 207.64134 
L 263.732857 196.894306 
L 263.980458 203.420438 
L 264.228059 176.900007 
L 264.47566 194.690128 
L 264.723261 220.195811 
L 264.970862 186.664369 
L 265.218464 222.407046 
L 265.466065 167.807443 
L 265.713666 176.196125 
L 265.961267 178.61305 
L 266.208868 209.072805 
L 266.456469 201.108952 
L 266.70407 178.130837 
L 266.951671 252.024992 
L 267.199272 202.297712 
L 267.446873 210.788512 
L 267.694474 198.957496 
L 267.942076 198.857245 
L 268.189677 221.507455 
L 268.437278 183.963067 
L 268.684879 221.506922 
L 268.93248 196.645878 
L 269.180081 187.26361 
L 269.427682 167.523202 
L 269.675283 206.767712 
L 269.922884 207.025992 
L 270.170485 190.421164 
L 270.418086 199.517726 
L 270.665688 177.085064 
L 270.913289 194.292455 
L 271.16089 188.228969 
L 271.408491 203.113694 
L 271.656092 211.170608 
L 271.903693 265.147816 
L 272.151294 205.97303 
L 272.398895 216.475495 
L 272.646496 210.745243 
L 272.894097 221.404141 
L 273.141698 213.544268 
L 273.389299 185.668654 
L 273.636901 179.368322 
L 273.884502 204.23256 
L 274.132103 220.065072 
L 274.379704 200.181803 
L 274.627305 217.457895 
L 274.874906 192.499797 
L 275.122507 238.095108 
L 275.370108 190.38362 
L 275.617709 213.758082 
L 275.86531 194.476979 
L 276.112911 232.205894 
L 276.360513 177.816372 
L 276.608114 167.39912 
L 276.855715 272.389812 
L 277.103316 171.460657 
L 277.350917 184.936015 
L 277.598518 181.108792 
L 277.846119 170.32968 
L 278.09372 181.547604 
L 278.341321 179.366592 
L 278.588922 193.148828 
L 278.836523 185.248614 
L 279.084124 175.197348 
L 279.331726 178.465805 
L 279.579327 179.757742 
L 279.826928 267.142707 
L 280.074529 178.613849 
L 280.32213 183.687077 
L 280.569731 136.222961 
L 280.817332 183.365424 
L 281.064933 178.499353 
L 281.312534 159.87461 
L 281.560135 188.706656 
L 281.807736 176.283327 
L 282.055338 177.535856 
L 282.302939 174.483745 
L 282.55054 265.377207 
L 282.798141 164.679577 
L 283.045742 181.297312 
L 283.293343 159.597558 
L 283.540944 184.680263 
L 283.788545 193.547966 
L 284.036146 154.972721 
L 284.283747 191.723354 
L 284.531348 170.802172 
L 284.778949 177.228982 
L 285.026551 167.605479 
L 285.274152 207.898556 
L 285.521753 199.99954 
L 285.769354 224.227796 
L 286.016955 161.157896 
L 286.264556 185.100036 
L 286.512157 172.298074 
L 286.759758 168.627287 
L 287.007359 177.65781 
L 287.25496 159.854506 
L 287.502561 163.433702 
L 287.750163 181.120775 
L 287.997764 158.253162 
L 288.245365 184.990201 
L 288.492966 181.841566 
L 288.740567 176.878571 
L 288.988168 180.81949 
L 289.235769 176.519375 
L 289.48337 167.702533 
" style="fill:none;stroke:#0000ff;stroke-linecap:square;stroke-width:1.5;"/>
   </g>
   <g id="line2d_47">
    <path clip-path="url(#p433e669813)" d="M 289.730971 159.851179 
L 289.978572 214.443992 
L 290.226173 161.840079 
L 290.473774 197.891884 
L 290.721376 200.760539 
L 290.968977 182.486869 
L 291.216578 334.940359 
L 291.464179 169.349942 
L 291.71178 185.983918 
L 291.959381 227.20389 
L 292.206982 157.433053 
L 292.454583 166.134205 
L 292.702184 186.990682 
L 292.949785 220.922992 
L 293.197386 171.870846 
L 293.444988 263.505466 
L 293.692589 226.974897 
L 293.94019 158.699831 
L 294.187791 148.886202 
L 294.435392 163.120966 
L 294.682993 198.052712 
L 294.930594 202.582221 
L 295.178195 157.609322 
L 295.425796 162.14975 
L 295.673397 165.192143 
L 295.920998 251.558489 
L 296.168599 122.693011 
L 296.416201 157.438244 
L 296.663802 259.764115 
L 296.911403 212.197344 
L 297.159004 199.189416 
L 297.406605 139.76421 
L 297.654206 143.580783 
L 297.901807 241.62624 
L 298.149408 136.62037 
L 298.397009 163.841759 
L 298.64461 149.339925 
L 298.892211 167.810503 
L 299.139813 164.703538 
L 299.387414 180.558007 
L 299.635015 144.444163 
L 299.882616 139.384113 
L 300.130217 125.536635 
L 300.377818 157.666169 
L 300.625419 200.616354 
L 300.87302 119.24336 
L 301.120621 129.757009 
L 301.368222 169.345946 
L 301.615823 186.673289 
L 301.863424 148.143441 
L 302.111026 257.739934 
L 302.358627 132.145846 
L 302.606228 182.348277 
L 302.853829 148.620731 
L 303.10143 132.755735 
L 303.349031 180.01043 
L 303.596632 204.461019 
L 303.844233 218.668356 
L 304.091834 173.647796 
L 304.339435 187.714137 
L 304.587036 205.647381 
L 304.834638 160.205584 
L 305.082239 176.339644 
L 305.32984 164.773836 
L 305.577441 153.394542 
L 305.825042 111.964752 
L 306.072643 233.304521 
L 306.320244 133.198275 
L 306.567845 159.8364 
L 306.815446 224.835156 
L 307.063047 182.247096 
L 307.310648 197.974162 
L 307.558249 225.601747 
L 307.805851 193.181579 
L 308.053452 192.760739 
L 308.301053 178.841377 
L 308.548654 180.746799 
L 308.796255 162.237885 
L 309.043856 160.425123 
L 309.291457 160.517518 
L 309.539058 226.20378 
L 309.786659 171.643984 
L 310.03426 186.886172 
L 310.281861 148.577727 
L 310.529463 218.306896 
L 310.777064 209.430403 
L 311.024665 227.553901 
L 311.272266 169.713401 
L 311.519867 183.013816 
L 311.767468 180.221051 
L 312.015069 128.174435 
L 312.26267 167.126457 
L 312.510271 166.6742 
L 312.757872 198.6859 
L 313.005473 212.139163 
L 313.253074 183.410158 
L 313.500676 220.629564 
L 313.748277 230.674711 
L 313.995878 197.500335 
L 314.243479 259.711926 
L 314.49108 198.800263 
L 314.738681 178.852293 
L 314.986282 226.798627 
L 315.233883 200.960374 
L 315.481484 216.175942 
L 315.729085 180.801385 
L 315.976686 172.299807 
L 316.224288 245.30595 
L 316.471889 192.446408 
L 316.71949 135.08173 
L 316.967091 175.899899 
L 317.214692 194.735661 
L 317.462293 175.548823 
L 317.709894 182.392742 
L 317.957495 247.572968 
L 318.205096 225.846446 
L 318.452697 168.807018 
L 318.700298 214.416566 
L 318.947899 195.97581 
L 319.195501 238.794331 
L 319.443102 201.924801 
" style="fill:none;stroke:#ff0000;stroke-linecap:square;stroke-width:1.5;"/>
   </g>
   <g id="line2d_48">
    <path clip-path="url(#p433e669813)" d="M 319.690703 109.155876 
L 319.938304 179.990194 
L 320.433506 220.861617 
L 320.681107 200.150649 
L 320.928708 192.973622 
L 321.176309 176.85008 
L 321.42391 189.117243 
L 321.671511 181.735723 
L 321.919113 182.756733 
L 322.166714 174.217743 
L 322.414315 194.676416 
L 322.661916 160.008012 
L 322.909517 209.196886 
L 323.157118 157.643271 
L 323.404719 188.598683 
L 323.65232 164.551234 
L 323.899921 222.985382 
L 324.147522 187.824904 
L 324.395123 180.168729 
L 324.642724 167.686158 
L 325.137927 200.694372 
L 325.385528 177.279576 
L 325.633129 198.855381 
L 325.88073 162.45849 
L 326.128331 190.844931 
L 326.375932 179.120027 
L 326.623533 240.14485 
L 326.871134 166.254027 
L 327.118735 179.316269 
L 327.366336 168.468457 
L 327.613938 193.38381 
L 327.861539 269.976346 
L 328.10914 179.948791 
L 328.356741 166.413657 
L 328.604342 174.742427 
L 328.851943 169.693962 
L 329.099544 148.905772 
L 329.347145 138.893509 
L 329.594746 185.543375 
L 330.089948 236.775876 
L 330.33755 217.751591 
L 330.585151 303.065913 
L 330.832752 167.902632 
L 331.080353 141.157999 
L 331.327954 198.749007 
L 331.575555 121.277124 
L 331.823156 175.406236 
L 332.070757 122.657734 
L 332.318358 192.345892 
L 332.81356 153.094458 
L 333.061161 107.882842 
L 333.556364 175.682359 
L 333.803965 132.165416 
L 334.051566 134.822386 
L 334.119684 346.6 
M 334.54137 346.6 
L 334.546768 334.164716 
L 334.794369 109.369958 
L 334.868209 346.6 
M 335.260445 346.6 
L 335.289571 272.17573 
L 335.537172 141.97518 
L 335.784773 189.386977 
L 336.032375 146.449705 
L 336.097796 346.6 
M 336.732521 346.6 
L 336.775178 230.406445 
L 337.022779 150.649836 
L 337.27038 120.90171 
L 337.341738 346.6 
M 337.987969 346.6 
L 338.013183 283.398722 
L 338.260784 146.705989 
L 338.508385 146.567928 
L 338.755986 149.816146 
L 339.003588 228.173642 
L 339.251189 137.287772 
L 339.318773 346.6 
M 339.946331 346.6 
L 339.993992 213.557181 
L 340.241593 158.706882 
L 340.736795 117.503287 
L 340.984396 136.553002 
L 341.231997 167.772163 
L 341.479598 226.948138 
L 341.7272 170.077657 
L 341.974801 198.355195 
L 342.222402 146.562467 
L 342.717604 160.561188 
L 342.965205 177.857111 
L 343.212806 170.675562 
L 343.460407 147.411199 
L 343.708008 138.252735 
L 343.955609 151.57459 
L 344.20321 152.419596 
L 344.450811 148.163412 
L 344.698413 140.985459 
L 344.946014 176.468119 
L 345.193615 147.918044 
L 345.441216 162.194082 
L 345.688817 134.848879 
L 345.936418 159.781682 
L 346.184019 163.453404 
L 346.43162 147.938149 
L 346.679221 182.175068 
L 346.926822 135.005712 
L 347.174423 158.863852 
L 347.422025 208.897467 
L 347.669626 150.907187 
L 347.917227 166.773918 
L 348.164828 156.931001 
L 348.412429 192.142196 
L 348.66003 182.929011 
L 348.907631 139.807347 
L 349.402833 162.848308 
L 349.650434 173.595206 
L 349.898035 160.684601 
L 350.145636 183.685081 
L 350.393238 180.503029 
L 350.640839 168.36288 
L 350.88844 171.552388 
L 351.136041 148.251018 
L 351.383642 151.274638 
L 351.631243 182.16362 
L 351.878844 151.855242 
L 352.126445 144.241797 
L 352.374046 227.568413 
L 352.621647 130.949362 
L 352.869248 135.307793 
L 353.11685 133.095094 
L 353.364451 221.684524 
L 353.612052 108.241508 
L 353.859653 144.597399 
L 354.107254 139.871785 
L 354.354855 259.994171 
L 354.602456 113.930752 
L 355.097658 144.389176 
L 355.345259 145.602835 
L 355.59286 258.865588 
L 355.840461 155.499401 
L 356.088063 131.77999 
L 356.335664 142.907123 
L 356.583265 221.755351 
L 356.628517 346.6 
M 357.036261 346.6 
L 357.078467 231.887169 
L 357.326068 107.09575 
L 357.573669 110.111651 
L 357.82127 107.365481 
L 358.068871 213.213161 
L 358.316472 118.86073 
L 358.564073 140.524677 
L 358.811675 192.856864 
L 359.059276 113.024905 
L 359.306877 128.258178 
L 359.554478 156.671786 
L 359.802079 149.510071 
L 360.04968 193.535185 
L 360.544882 241.258654 
L 360.792483 156.923678 
L 361.040084 130.516673 
L 361.287685 157.606658 
L 361.535286 154.699262 
L 361.782888 176.177351 
L 362.030489 264.008715 
L 362.27809 150.605368 
L 362.773292 186.614444 
L 363.268494 132.091393 
L 363.516095 173.424261 
L 363.763696 149.221567 
L 364.011297 155.962578 
L 364.258898 189.475774 
L 364.5065 173.637143 
L 364.754101 173.524777 
L 365.249303 156.931534 
L 365.496904 203.416709 
L 365.744505 166.375447 
L 365.992106 153.160093 
L 366.239707 155.3893 
L 366.487308 193.133916 
L 366.734909 141.052957 
L 366.98251 172.883467 
L 367.230111 179.473233 
L 367.477713 152.362483 
L 367.725314 156.791609 
L 367.972915 222.3703 
L 368.220516 167.013694 
L 368.468117 146.983039 
L 368.715718 185.730696 
L 368.963319 153.352205 
L 369.21092 185.264325 
L 369.458521 171.010929 
L 369.706122 180.672245 
L 369.953723 154.213454 
L 370.201325 190.322513 
L 370.448926 139.500738 
L 370.696527 173.277416 
L 370.944128 179.629401 
L 371.191729 178.500152 
L 371.686931 166.656759 
L 371.934532 171.914377 
L 372.182133 154.723894 
L 372.429734 158.004465 
L 372.677335 221.188065 
L 372.924936 163.640592 
L 373.172538 178.122983 
L 373.420139 169.653223 
L 373.66774 149.865274 
L 373.915341 175.880595 
L 374.162942 167.09304 
L 374.410543 186.834515 
L 374.658144 234.217293 
L 374.905745 187.210088 
L 375.153346 184.597453 
L 375.400947 179.64471 
L 375.648548 210.777062 
L 376.143751 158.526355 
L 376.391352 189.350627 
L 376.638953 181.760752 
L 376.886554 162.487513 
L 377.134155 186.981894 
L 377.381756 192.082951 
L 377.629357 153.725781 
L 377.876958 193.012631 
L 378.124559 174.967293 
L 378.37216 198.231911 
L 378.619761 184.8785 
L 378.867363 192.237521 
L 379.114964 162.78001 
L 379.362565 235.962422 
L 379.610166 174.13773 
L 379.857767 185.948237 
L 380.105368 175.19868 
L 380.352969 206.289891 
L 380.60057 200.19232 
L 380.848171 217.02574 
L 381.095772 186.41501 
L 381.343373 183.039244 
L 381.590975 160.452282 
L 381.838576 168.151724 
L 382.086177 160.020792 
L 382.333778 163.752559 
L 382.581379 131.74804 
L 382.82898 167.167065 
L 383.324182 137.565092 
L 383.571783 192.088809 
L 383.819384 177.486996 
L 384.066985 219.066828 
L 384.314586 173.990882 
L 384.562188 181.436969 
L 384.809789 228.639081 
L 385.05739 182.907176 
L 385.304991 248.513832 
L 385.552592 184.632866 
L 385.800193 183.99848 
L 386.047794 186.415009 
L 386.295395 174.282315 
L 386.542996 203.744222 
L 386.790597 159.249276 
L 387.038198 185.443791 
L 387.2858 158.698764 
L 387.533401 213.124495 
L 387.781002 157.187286 
L 388.028603 211.762659 
L 388.276204 155.088681 
L 388.523805 178.145749 
L 388.771406 151.919676 
L 389.019007 187.263209 
L 389.266608 191.648 
L 389.514209 173.623031 
L 389.76181 145.101848 
L 390.009412 153.603696 
L 390.257013 184.981281 
L 390.504614 182.10464 
L 390.752215 175.885122 
L 390.999816 180.506891 
L 391.247417 165.760893 
L 391.495018 174.449132 
L 391.742619 174.779173 
L 391.99022 229.542134 
L 392.237821 243.055174 
L 392.485422 190.209879 
L 392.980625 149.555071 
L 393.228226 161.398603 
L 393.475827 146.348386 
L 393.723428 166.174413 
L 393.971029 140.515225 
L 394.21863 186.816675 
L 394.466231 169.412114 
L 394.713832 182.069226 
L 395.209034 158.644445 
L 395.456635 203.804664 
L 395.704237 167.723568 
L 395.951838 163.02511 
L 396.199439 181.78658 
L 396.44704 183.438916 
L 396.694641 166.397681 
L 396.942242 252.615047 
L 397.437444 158.875035 
L 397.685045 165.192942 
L 397.932646 156.584718 
L 398.180247 201.481598 
L 398.427848 166.530013 
L 398.67545 185.572265 
L 398.923051 181.077238 
L 399.170652 223.117585 
L 399.418253 191.542158 
L 399.913455 175.519799 
L 400.161056 180.047442 
L 400.408657 178.958269 
L 400.656258 176.713752 
L 400.903859 159.560414 
L 401.15146 165.761561 
L 401.399062 191.092429 
L 401.646663 184.520502 
L 401.894264 188.166395 
L 402.141865 119.193033 
L 402.389466 165.457216 
L 402.637067 149.569979 
L 402.884668 158.074627 
L 403.132269 197.643456 
L 403.37987 174.942663 
L 403.627471 127.108958 
L 403.875072 248.389084 
L 404.122673 155.692182 
L 404.370275 182.764722 
L 404.617876 150.678994 
L 404.865477 289.172642 
L 405.113078 133.299324 
L 405.360679 148.417169 
L 405.60828 135.429213 
L 405.855881 153.698621 
L 406.103482 111.145974 
L 406.598684 159.533918 
L 406.846285 157.486839 
L 407.093887 128.352837 
L 407.341488 157.159859 
L 407.341488 157.159859 
" style="fill:none;stroke:#000000;stroke-linecap:square;stroke-width:1.5;"/>
   </g>
   <g id="patch_9">
    <path d="M 252.392727 307.584 
L 252.392727 41.472 
" style="fill:none;stroke:#000000;stroke-linecap:square;stroke-linejoin:miter;stroke-width:0.8;"/>
   </g>
   <g id="patch_10">
    <path d="M 414.72 307.584 
L 414.72 41.472 
" style="fill:none;stroke:#000000;stroke-linecap:square;stroke-linejoin:miter;stroke-width:0.8;"/>
   </g>
   <g id="patch_11">
    <path d="M 252.392727 307.584 
L 414.72 307.584 
" style="fill:none;stroke:#000000;stroke-linecap:square;stroke-linejoin:miter;stroke-width:0.8;"/>
   </g>
   <g id="patch_12">
    <path d="M 252.392727 41.472 
L 414.72 41.472 
" style="fill:none;stroke:#000000;stroke-linecap:square;stroke-linejoin:miter;stroke-width:0.8;"/>
   </g>
   <g id="text_43">
    <!-- Pupil - Reg vs Stress -->
    <defs>
     <path d="M 19.671875 64.796875 
L 19.671875 37.40625 
L 32.078125 37.40625 
Q 38.96875 37.40625 42.71875 40.96875 
Q 46.484375 44.53125 46.484375 51.125 
Q 46.484375 57.671875 42.71875 61.234375 
Q 38.96875 64.796875 32.078125 64.796875 
z
M 9.8125 72.90625 
L 32.078125 72.90625 
Q 44.34375 72.90625 50.609375 67.359375 
Q 56.890625 61.8125 56.890625 51.125 
Q 56.890625 40.328125 50.609375 34.8125 
Q 44.34375 29.296875 32.078125 29.296875 
L 19.671875 29.296875 
L 19.671875 0 
L 9.8125 0 
z
" id="DejaVuSans-50"/>
     <path d="M 18.109375 8.203125 
L 18.109375 -20.796875 
L 9.078125 -20.796875 
L 9.078125 54.6875 
L 18.109375 54.6875 
L 18.109375 46.390625 
Q 20.953125 51.265625 25.265625 53.625 
Q 29.59375 56 35.59375 56 
Q 45.5625 56 51.78125 48.09375 
Q 58.015625 40.1875 58.015625 27.296875 
Q 58.015625 14.40625 51.78125 6.484375 
Q 45.5625 -1.421875 35.59375 -1.421875 
Q 29.59375 -1.421875 25.265625 0.953125 
Q 20.953125 3.328125 18.109375 8.203125 
z
M 48.6875 27.296875 
Q 48.6875 37.203125 44.609375 42.84375 
Q 40.53125 48.484375 33.40625 48.484375 
Q 26.265625 48.484375 22.1875 42.84375 
Q 18.109375 37.203125 18.109375 27.296875 
Q 18.109375 17.390625 22.1875 11.75 
Q 26.265625 6.109375 33.40625 6.109375 
Q 40.53125 6.109375 44.609375 11.75 
Q 48.6875 17.390625 48.6875 27.296875 
z
" id="DejaVuSans-70"/>
    </defs>
    <g transform="translate(272.289801 35.472)scale(0.12 -0.12)">
     <use xlink:href="#DejaVuSans-50"/>
     <use x="60.287109" xlink:href="#DejaVuSans-75"/>
     <use x="123.666016" xlink:href="#DejaVuSans-70"/>
     <use x="187.142578" xlink:href="#DejaVuSans-69"/>
     <use x="214.925781" xlink:href="#DejaVuSans-6c"/>
     <use x="242.708984" xlink:href="#DejaVuSans-20"/>
     <use x="274.496094" xlink:href="#DejaVuSans-2d"/>
     <use x="310.580078" xlink:href="#DejaVuSans-20"/>
     <use x="342.367188" xlink:href="#DejaVuSans-52"/>
     <use x="411.787109" xlink:href="#DejaVuSans-65"/>
     <use x="473.310547" xlink:href="#DejaVuSans-67"/>
     <use x="536.787109" xlink:href="#DejaVuSans-20"/>
     <use x="568.574219" xlink:href="#DejaVuSans-76"/>
     <use x="627.753906" xlink:href="#DejaVuSans-73"/>
     <use x="679.853516" xlink:href="#DejaVuSans-20"/>
     <use x="711.640625" xlink:href="#DejaVuSans-53"/>
     <use x="775.117188" xlink:href="#DejaVuSans-74"/>
     <use x="814.326172" xlink:href="#DejaVuSans-72"/>
     <use x="855.408203" xlink:href="#DejaVuSans-65"/>
     <use x="916.931641" xlink:href="#DejaVuSans-73"/>
     <use x="969.03125" xlink:href="#DejaVuSans-73"/>
    </g>
   </g>
   <g id="legend_2">
    <g id="patch_13">
     <path d="M 338.512187 93.506375 
L 407.72 93.506375 
Q 409.72 93.506375 409.72 91.506375 
L 409.72 48.472 
Q 409.72 46.472 407.72 46.472 
L 338.512187 46.472 
Q 336.512187 46.472 336.512187 48.472 
L 336.512187 91.506375 
Q 336.512187 93.506375 338.512187 93.506375 
z
" style="fill:#ffffff;opacity:0.8;stroke:#cccccc;stroke-linejoin:miter;"/>
    </g>
    <g id="line2d_49">
     <path d="M 340.512187 54.570438 
L 360.512187 54.570438 
" style="fill:none;stroke:#0000ff;stroke-linecap:square;stroke-width:1.5;"/>
    </g>
    <g id="line2d_50"/>
    <g id="text_44">
     <!-- Reg -->
     <g transform="translate(368.512187 58.070438)scale(0.1 -0.1)">
      <use xlink:href="#DejaVuSans-52"/>
      <use x="69.419922" xlink:href="#DejaVuSans-65"/>
      <use x="130.943359" xlink:href="#DejaVuSans-67"/>
     </g>
    </g>
    <g id="line2d_51">
     <path d="M 340.512187 69.248563 
L 360.512187 69.248563 
" style="fill:none;stroke:#ff0000;stroke-linecap:square;stroke-width:1.5;"/>
    </g>
    <g id="line2d_52"/>
    <g id="text_45">
     <!-- Stress -->
     <g transform="translate(368.512187 72.748563)scale(0.1 -0.1)">
      <use xlink:href="#DejaVuSans-53"/>
      <use x="63.476562" xlink:href="#DejaVuSans-74"/>
      <use x="102.685547" xlink:href="#DejaVuSans-72"/>
      <use x="143.767578" xlink:href="#DejaVuSans-65"/>
      <use x="205.291016" xlink:href="#DejaVuSans-73"/>
      <use x="257.390625" xlink:href="#DejaVuSans-73"/>
     </g>
    </g>
    <g id="line2d_53">
     <path d="M 340.512187 83.926688 
L 360.512187 83.926688 
" style="fill:none;stroke:#000000;stroke-linecap:square;stroke-width:1.5;"/>
    </g>
    <g id="line2d_54"/>
    <g id="text_46">
     <!-- Block C -->
     <g transform="translate(368.512187 87.426688)scale(0.1 -0.1)">
      <use xlink:href="#DejaVuSans-42"/>
      <use x="68.603516" xlink:href="#DejaVuSans-6c"/>
      <use x="96.386719" xlink:href="#DejaVuSans-6f"/>
      <use x="157.568359" xlink:href="#DejaVuSans-63"/>
      <use x="212.548828" xlink:href="#DejaVuSans-6b"/>
      <use x="270.458984" xlink:href="#DejaVuSans-20"/>
      <use x="302.246094" xlink:href="#DejaVuSans-43"/>
     </g>
    </g>
   </g>
  </g>
 </g>
 <defs>
  <clipPath id="p7810a2e28a">
   <rect height="266.112" width="162.327273" x="57.6" y="41.472"/>
  </clipPath>
  <clipPath id="p433e669813">
   <rect height="266.112" width="162.327273" x="252.392727" y="41.472"/>
  </clipPath>
 </defs>
</svg>
