<?xml version="1.0" encoding="utf-8" standalone="no"?>
<!DOCTYPE svg PUBLIC "-//W3C//DTD SVG 1.1//EN"
  "http://www.w3.org/Graphics/SVG/1.1/DTD/svg11.dtd">
<!-- Created with matplotlib (http://matplotlib.org/) -->
<svg height="345pt" version="1.1" viewBox="0 0 460 345" width="460pt" xmlns="http://www.w3.org/2000/svg" xmlns:xlink="http://www.w3.org/1999/xlink">
 <defs>
  <style type="text/css">
*{stroke-linecap:butt;stroke-linejoin:round;}
  </style>
 </defs>
 <g id="figure_1">
  <g id="patch_1">
   <path d="M 0 345.6 
L 460.8 345.6 
L 460.8 0 
L 0 0 
z
" style="fill:#ffffff;"/>
  </g>
  <g id="axes_1">
   <g id="patch_2">
    <path d="M 57.6 307.584 
L 219.927273 307.584 
L 219.927273 41.472 
L 57.6 41.472 
z
" style="fill:#ffffff;"/>
   </g>
   <g id="matplotlib.axis_1">
    <g id="xtick_1">
     <g id="line2d_1">
      <defs>
       <path d="M 0 0 
L 0 3.5 
" id="m71d658dfae" style="stroke:#000000;stroke-width:0.8;"/>
      </defs>
      <g>
       <use style="stroke:#000000;stroke-width:0.8;" x="64.978512" xlink:href="#m71d658dfae" y="307.584"/>
      </g>
     </g>
     <g id="text_1">
      <!-- 0.0 -->
      <defs>
       <path d="M 31.78125 66.40625 
Q 24.171875 66.40625 20.328125 58.90625 
Q 16.5 51.421875 16.5 36.375 
Q 16.5 21.390625 20.328125 13.890625 
Q 24.171875 6.390625 31.78125 6.390625 
Q 39.453125 6.390625 43.28125 13.890625 
Q 47.125 21.390625 47.125 36.375 
Q 47.125 51.421875 43.28125 58.90625 
Q 39.453125 66.40625 31.78125 66.40625 
z
M 31.78125 74.21875 
Q 44.046875 74.21875 50.515625 64.515625 
Q 56.984375 54.828125 56.984375 36.375 
Q 56.984375 17.96875 50.515625 8.265625 
Q 44.046875 -1.421875 31.78125 -1.421875 
Q 19.53125 -1.421875 13.0625 8.265625 
Q 6.59375 17.96875 6.59375 36.375 
Q 6.59375 54.828125 13.0625 64.515625 
Q 19.53125 74.21875 31.78125 74.21875 
z
" id="DejaVuSans-30"/>
       <path d="M 10.6875 12.40625 
L 21 12.40625 
L 21 0 
L 10.6875 0 
z
" id="DejaVuSans-2e"/>
      </defs>
      <g transform="translate(57.02695 322.182437)scale(0.1 -0.1)">
       <use xlink:href="#DejaVuSans-30"/>
       <use x="63.623047" xlink:href="#DejaVuSans-2e"/>
       <use x="95.410156" xlink:href="#DejaVuSans-30"/>
      </g>
     </g>
    </g>
    <g id="xtick_2">
     <g id="line2d_2">
      <g>
       <use style="stroke:#000000;stroke-width:0.8;" x="86.009902" xlink:href="#m71d658dfae" y="307.584"/>
      </g>
     </g>
     <g id="text_2">
      <!-- 5.0 -->
      <defs>
       <path d="M 10.796875 72.90625 
L 49.515625 72.90625 
L 49.515625 64.59375 
L 19.828125 64.59375 
L 19.828125 46.734375 
Q 21.96875 47.46875 24.109375 47.828125 
Q 26.265625 48.1875 28.421875 48.1875 
Q 40.625 48.1875 47.75 41.5 
Q 54.890625 34.8125 54.890625 23.390625 
Q 54.890625 11.625 47.5625 5.09375 
Q 40.234375 -1.421875 26.90625 -1.421875 
Q 22.3125 -1.421875 17.546875 -0.640625 
Q 12.796875 0.140625 7.71875 1.703125 
L 7.71875 11.625 
Q 12.109375 9.234375 16.796875 8.0625 
Q 21.484375 6.890625 26.703125 6.890625 
Q 35.15625 6.890625 40.078125 11.328125 
Q 45.015625 15.765625 45.015625 23.390625 
Q 45.015625 31 40.078125 35.4375 
Q 35.15625 39.890625 26.703125 39.890625 
Q 22.75 39.890625 18.8125 39.015625 
Q 14.890625 38.140625 10.796875 36.28125 
z
" id="DejaVuSans-35"/>
      </defs>
      <g transform="translate(78.058339 322.182437)scale(0.1 -0.1)">
       <use xlink:href="#DejaVuSans-35"/>
       <use x="63.623047" xlink:href="#DejaVuSans-2e"/>
       <use x="95.410156" xlink:href="#DejaVuSans-30"/>
      </g>
     </g>
    </g>
    <g id="xtick_3">
     <g id="line2d_3">
      <g>
       <use style="stroke:#000000;stroke-width:0.8;" x="107.041291" xlink:href="#m71d658dfae" y="307.584"/>
      </g>
     </g>
     <g id="text_3">
      <!-- 10.0 -->
      <defs>
       <path d="M 12.40625 8.296875 
L 28.515625 8.296875 
L 28.515625 63.921875 
L 10.984375 60.40625 
L 10.984375 69.390625 
L 28.421875 72.90625 
L 38.28125 72.90625 
L 38.28125 8.296875 
L 54.390625 8.296875 
L 54.390625 0 
L 12.40625 0 
z
" id="DejaVuSans-31"/>
      </defs>
      <g transform="translate(95.908478 322.182437)scale(0.1 -0.1)">
       <use xlink:href="#DejaVuSans-31"/>
       <use x="63.623047" xlink:href="#DejaVuSans-30"/>
       <use x="127.246094" xlink:href="#DejaVuSans-2e"/>
       <use x="159.033203" xlink:href="#DejaVuSans-30"/>
      </g>
     </g>
    </g>
    <g id="xtick_4">
     <g id="line2d_4">
      <g>
       <use style="stroke:#000000;stroke-width:0.8;" x="128.07268" xlink:href="#m71d658dfae" y="307.584"/>
      </g>
     </g>
     <g id="text_4">
      <!-- 15.0 -->
      <g transform="translate(116.939868 322.182437)scale(0.1 -0.1)">
       <use xlink:href="#DejaVuSans-31"/>
       <use x="63.623047" xlink:href="#DejaVuSans-35"/>
       <use x="127.246094" xlink:href="#DejaVuSans-2e"/>
       <use x="159.033203" xlink:href="#DejaVuSans-30"/>
      </g>
     </g>
    </g>
    <g id="xtick_5">
     <g id="line2d_5">
      <g>
       <use style="stroke:#000000;stroke-width:0.8;" x="149.104069" xlink:href="#m71d658dfae" y="307.584"/>
      </g>
     </g>
     <g id="text_5">
      <!-- 20.0 -->
      <defs>
       <path d="M 19.1875 8.296875 
L 53.609375 8.296875 
L 53.609375 0 
L 7.328125 0 
L 7.328125 8.296875 
Q 12.9375 14.109375 22.625 23.890625 
Q 32.328125 33.6875 34.8125 36.53125 
Q 39.546875 41.84375 41.421875 45.53125 
Q 43.3125 49.21875 43.3125 52.78125 
Q 43.3125 58.59375 39.234375 62.25 
Q 35.15625 65.921875 28.609375 65.921875 
Q 23.96875 65.921875 18.8125 64.3125 
Q 13.671875 62.703125 7.8125 59.421875 
L 7.8125 69.390625 
Q 13.765625 71.78125 18.9375 73 
Q 24.125 74.21875 28.421875 74.21875 
Q 39.75 74.21875 46.484375 68.546875 
Q 53.21875 62.890625 53.21875 53.421875 
Q 53.21875 48.921875 51.53125 44.890625 
Q 49.859375 40.875 45.40625 35.40625 
Q 44.1875 33.984375 37.640625 27.21875 
Q 31.109375 20.453125 19.1875 8.296875 
z
" id="DejaVuSans-32"/>
      </defs>
      <g transform="translate(137.971257 322.182437)scale(0.1 -0.1)">
       <use xlink:href="#DejaVuSans-32"/>
       <use x="63.623047" xlink:href="#DejaVuSans-30"/>
       <use x="127.246094" xlink:href="#DejaVuSans-2e"/>
       <use x="159.033203" xlink:href="#DejaVuSans-30"/>
      </g>
     </g>
    </g>
    <g id="xtick_6">
     <g id="line2d_6">
      <g>
       <use style="stroke:#000000;stroke-width:0.8;" x="170.135459" xlink:href="#m71d658dfae" y="307.584"/>
      </g>
     </g>
     <g id="text_6">
      <!-- 25.0 -->
      <g transform="translate(159.002646 322.182437)scale(0.1 -0.1)">
       <use xlink:href="#DejaVuSans-32"/>
       <use x="63.623047" xlink:href="#DejaVuSans-35"/>
       <use x="127.246094" xlink:href="#DejaVuSans-2e"/>
       <use x="159.033203" xlink:href="#DejaVuSans-30"/>
      </g>
     </g>
    </g>
    <g id="xtick_7">
     <g id="line2d_7">
      <g>
       <use style="stroke:#000000;stroke-width:0.8;" x="191.166848" xlink:href="#m71d658dfae" y="307.584"/>
      </g>
     </g>
     <g id="text_7">
      <!-- 30.0 -->
      <defs>
       <path d="M 40.578125 39.3125 
Q 47.65625 37.796875 51.625 33 
Q 55.609375 28.21875 55.609375 21.1875 
Q 55.609375 10.40625 48.1875 4.484375 
Q 40.765625 -1.421875 27.09375 -1.421875 
Q 22.515625 -1.421875 17.65625 -0.515625 
Q 12.796875 0.390625 7.625 2.203125 
L 7.625 11.71875 
Q 11.71875 9.328125 16.59375 8.109375 
Q 21.484375 6.890625 26.8125 6.890625 
Q 36.078125 6.890625 40.9375 10.546875 
Q 45.796875 14.203125 45.796875 21.1875 
Q 45.796875 27.640625 41.28125 31.265625 
Q 36.765625 34.90625 28.71875 34.90625 
L 20.21875 34.90625 
L 20.21875 43.015625 
L 29.109375 43.015625 
Q 36.375 43.015625 40.234375 45.921875 
Q 44.09375 48.828125 44.09375 54.296875 
Q 44.09375 59.90625 40.109375 62.90625 
Q 36.140625 65.921875 28.71875 65.921875 
Q 24.65625 65.921875 20.015625 65.03125 
Q 15.375 64.15625 9.8125 62.3125 
L 9.8125 71.09375 
Q 15.4375 72.65625 20.34375 73.4375 
Q 25.25 74.21875 29.59375 74.21875 
Q 40.828125 74.21875 47.359375 69.109375 
Q 53.90625 64.015625 53.90625 55.328125 
Q 53.90625 49.265625 50.4375 45.09375 
Q 46.96875 40.921875 40.578125 39.3125 
z
" id="DejaVuSans-33"/>
      </defs>
      <g transform="translate(180.034035 322.182437)scale(0.1 -0.1)">
       <use xlink:href="#DejaVuSans-33"/>
       <use x="63.623047" xlink:href="#DejaVuSans-30"/>
       <use x="127.246094" xlink:href="#DejaVuSans-2e"/>
       <use x="159.033203" xlink:href="#DejaVuSans-30"/>
      </g>
     </g>
    </g>
    <g id="xtick_8">
     <g id="line2d_8">
      <g>
       <use style="stroke:#000000;stroke-width:0.8;" x="212.198237" xlink:href="#m71d658dfae" y="307.584"/>
      </g>
     </g>
     <g id="text_8">
      <!-- 35.0 -->
      <g transform="translate(201.065425 322.182437)scale(0.1 -0.1)">
       <use xlink:href="#DejaVuSans-33"/>
       <use x="63.623047" xlink:href="#DejaVuSans-35"/>
       <use x="127.246094" xlink:href="#DejaVuSans-2e"/>
       <use x="159.033203" xlink:href="#DejaVuSans-30"/>
      </g>
     </g>
    </g>
    <g id="text_9">
     <!-- Minutes -->
     <defs>
      <path d="M 9.8125 72.90625 
L 24.515625 72.90625 
L 43.109375 23.296875 
L 61.8125 72.90625 
L 76.515625 72.90625 
L 76.515625 0 
L 66.890625 0 
L 66.890625 64.015625 
L 48.09375 14.015625 
L 38.1875 14.015625 
L 19.390625 64.015625 
L 19.390625 0 
L 9.8125 0 
z
" id="DejaVuSans-4d"/>
      <path d="M 9.421875 54.6875 
L 18.40625 54.6875 
L 18.40625 0 
L 9.421875 0 
z
M 9.421875 75.984375 
L 18.40625 75.984375 
L 18.40625 64.59375 
L 9.421875 64.59375 
z
" id="DejaVuSans-69"/>
      <path d="M 54.890625 33.015625 
L 54.890625 0 
L 45.90625 0 
L 45.90625 32.71875 
Q 45.90625 40.484375 42.875 44.328125 
Q 39.84375 48.1875 33.796875 48.1875 
Q 26.515625 48.1875 22.3125 43.546875 
Q 18.109375 38.921875 18.109375 30.90625 
L 18.109375 0 
L 9.078125 0 
L 9.078125 54.6875 
L 18.109375 54.6875 
L 18.109375 46.1875 
Q 21.34375 51.125 25.703125 53.5625 
Q 30.078125 56 35.796875 56 
Q 45.21875 56 50.046875 50.171875 
Q 54.890625 44.34375 54.890625 33.015625 
z
" id="DejaVuSans-6e"/>
      <path d="M 8.5 21.578125 
L 8.5 54.6875 
L 17.484375 54.6875 
L 17.484375 21.921875 
Q 17.484375 14.15625 20.5 10.265625 
Q 23.53125 6.390625 29.59375 6.390625 
Q 36.859375 6.390625 41.078125 11.03125 
Q 45.3125 15.671875 45.3125 23.6875 
L 45.3125 54.6875 
L 54.296875 54.6875 
L 54.296875 0 
L 45.3125 0 
L 45.3125 8.40625 
Q 42.046875 3.421875 37.71875 1 
Q 33.40625 -1.421875 27.6875 -1.421875 
Q 18.265625 -1.421875 13.375 4.4375 
Q 8.5 10.296875 8.5 21.578125 
z
M 31.109375 56 
z
" id="DejaVuSans-75"/>
      <path d="M 18.3125 70.21875 
L 18.3125 54.6875 
L 36.8125 54.6875 
L 36.8125 47.703125 
L 18.3125 47.703125 
L 18.3125 18.015625 
Q 18.3125 11.328125 20.140625 9.421875 
Q 21.96875 7.515625 27.59375 7.515625 
L 36.8125 7.515625 
L 36.8125 0 
L 27.59375 0 
Q 17.1875 0 13.234375 3.875 
Q 9.28125 7.765625 9.28125 18.015625 
L 9.28125 47.703125 
L 2.6875 47.703125 
L 2.6875 54.6875 
L 9.28125 54.6875 
L 9.28125 70.21875 
z
" id="DejaVuSans-74"/>
      <path d="M 56.203125 29.59375 
L 56.203125 25.203125 
L 14.890625 25.203125 
Q 15.484375 15.921875 20.484375 11.0625 
Q 25.484375 6.203125 34.421875 6.203125 
Q 39.59375 6.203125 44.453125 7.46875 
Q 49.3125 8.734375 54.109375 11.28125 
L 54.109375 2.78125 
Q 49.265625 0.734375 44.1875 -0.34375 
Q 39.109375 -1.421875 33.890625 -1.421875 
Q 20.796875 -1.421875 13.15625 6.1875 
Q 5.515625 13.8125 5.515625 26.8125 
Q 5.515625 40.234375 12.765625 48.109375 
Q 20.015625 56 32.328125 56 
Q 43.359375 56 49.78125 48.890625 
Q 56.203125 41.796875 56.203125 29.59375 
z
M 47.21875 32.234375 
Q 47.125 39.59375 43.09375 43.984375 
Q 39.0625 48.390625 32.421875 48.390625 
Q 24.90625 48.390625 20.390625 44.140625 
Q 15.875 39.890625 15.1875 32.171875 
z
" id="DejaVuSans-65"/>
      <path d="M 44.28125 53.078125 
L 44.28125 44.578125 
Q 40.484375 46.53125 36.375 47.5 
Q 32.28125 48.484375 27.875 48.484375 
Q 21.1875 48.484375 17.84375 46.4375 
Q 14.5 44.390625 14.5 40.28125 
Q 14.5 37.15625 16.890625 35.375 
Q 19.28125 33.59375 26.515625 31.984375 
L 29.59375 31.296875 
Q 39.15625 29.25 43.1875 25.515625 
Q 47.21875 21.78125 47.21875 15.09375 
Q 47.21875 7.46875 41.1875 3.015625 
Q 35.15625 -1.421875 24.609375 -1.421875 
Q 20.21875 -1.421875 15.453125 -0.5625 
Q 10.6875 0.296875 5.421875 2 
L 5.421875 11.28125 
Q 10.40625 8.6875 15.234375 7.390625 
Q 20.0625 6.109375 24.8125 6.109375 
Q 31.15625 6.109375 34.5625 8.28125 
Q 37.984375 10.453125 37.984375 14.40625 
Q 37.984375 18.0625 35.515625 20.015625 
Q 33.0625 21.96875 24.703125 23.78125 
L 21.578125 24.515625 
Q 13.234375 26.265625 9.515625 29.90625 
Q 5.8125 33.546875 5.8125 39.890625 
Q 5.8125 47.609375 11.28125 51.796875 
Q 16.75 56 26.8125 56 
Q 31.78125 56 36.171875 55.265625 
Q 40.578125 54.546875 44.28125 53.078125 
z
" id="DejaVuSans-73"/>
     </defs>
     <g transform="translate(119.081605 335.860562)scale(0.1 -0.1)">
      <use xlink:href="#DejaVuSans-4d"/>
      <use x="86.279297" xlink:href="#DejaVuSans-69"/>
      <use x="114.0625" xlink:href="#DejaVuSans-6e"/>
      <use x="177.441406" xlink:href="#DejaVuSans-75"/>
      <use x="240.820312" xlink:href="#DejaVuSans-74"/>
      <use x="280.029297" xlink:href="#DejaVuSans-65"/>
      <use x="341.552734" xlink:href="#DejaVuSans-73"/>
     </g>
    </g>
   </g>
   <g id="matplotlib.axis_2">
    <g id="ytick_1">
     <g id="line2d_9">
      <defs>
       <path d="M 0 0 
L -3.5 0 
" id="m95b53deb14" style="stroke:#000000;stroke-width:0.8;"/>
      </defs>
      <g>
       <use style="stroke:#000000;stroke-width:0.8;" x="57.6" xlink:href="#m95b53deb14" y="268.53717"/>
      </g>
     </g>
     <g id="text_10">
      <!-- 0.36 -->
      <defs>
       <path d="M 33.015625 40.375 
Q 26.375 40.375 22.484375 35.828125 
Q 18.609375 31.296875 18.609375 23.390625 
Q 18.609375 15.53125 22.484375 10.953125 
Q 26.375 6.390625 33.015625 6.390625 
Q 39.65625 6.390625 43.53125 10.953125 
Q 47.40625 15.53125 47.40625 23.390625 
Q 47.40625 31.296875 43.53125 35.828125 
Q 39.65625 40.375 33.015625 40.375 
z
M 52.59375 71.296875 
L 52.59375 62.3125 
Q 48.875 64.0625 45.09375 64.984375 
Q 41.3125 65.921875 37.59375 65.921875 
Q 27.828125 65.921875 22.671875 59.328125 
Q 17.53125 52.734375 16.796875 39.40625 
Q 19.671875 43.65625 24.015625 45.921875 
Q 28.375 48.1875 33.59375 48.1875 
Q 44.578125 48.1875 50.953125 41.515625 
Q 57.328125 34.859375 57.328125 23.390625 
Q 57.328125 12.15625 50.6875 5.359375 
Q 44.046875 -1.421875 33.015625 -1.421875 
Q 20.359375 -1.421875 13.671875 8.265625 
Q 6.984375 17.96875 6.984375 36.375 
Q 6.984375 53.65625 15.1875 63.9375 
Q 23.390625 74.21875 37.203125 74.21875 
Q 40.921875 74.21875 44.703125 73.484375 
Q 48.484375 72.75 52.59375 71.296875 
z
" id="DejaVuSans-36"/>
      </defs>
      <g transform="translate(28.334375 272.336388)scale(0.1 -0.1)">
       <use xlink:href="#DejaVuSans-30"/>
       <use x="63.623047" xlink:href="#DejaVuSans-2e"/>
       <use x="95.410156" xlink:href="#DejaVuSans-33"/>
       <use x="159.033203" xlink:href="#DejaVuSans-36"/>
      </g>
     </g>
    </g>
    <g id="ytick_2">
     <g id="line2d_10">
      <g>
       <use style="stroke:#000000;stroke-width:0.8;" x="57.6" xlink:href="#m95b53deb14" y="211.514168"/>
      </g>
     </g>
     <g id="text_11">
      <!-- 0.38 -->
      <defs>
       <path d="M 31.78125 34.625 
Q 24.75 34.625 20.71875 30.859375 
Q 16.703125 27.09375 16.703125 20.515625 
Q 16.703125 13.921875 20.71875 10.15625 
Q 24.75 6.390625 31.78125 6.390625 
Q 38.8125 6.390625 42.859375 10.171875 
Q 46.921875 13.96875 46.921875 20.515625 
Q 46.921875 27.09375 42.890625 30.859375 
Q 38.875 34.625 31.78125 34.625 
z
M 21.921875 38.8125 
Q 15.578125 40.375 12.03125 44.71875 
Q 8.5 49.078125 8.5 55.328125 
Q 8.5 64.0625 14.71875 69.140625 
Q 20.953125 74.21875 31.78125 74.21875 
Q 42.671875 74.21875 48.875 69.140625 
Q 55.078125 64.0625 55.078125 55.328125 
Q 55.078125 49.078125 51.53125 44.71875 
Q 48 40.375 41.703125 38.8125 
Q 48.828125 37.15625 52.796875 32.3125 
Q 56.78125 27.484375 56.78125 20.515625 
Q 56.78125 9.90625 50.3125 4.234375 
Q 43.84375 -1.421875 31.78125 -1.421875 
Q 19.734375 -1.421875 13.25 4.234375 
Q 6.78125 9.90625 6.78125 20.515625 
Q 6.78125 27.484375 10.78125 32.3125 
Q 14.796875 37.15625 21.921875 38.8125 
z
M 18.3125 54.390625 
Q 18.3125 48.734375 21.84375 45.5625 
Q 25.390625 42.390625 31.78125 42.390625 
Q 38.140625 42.390625 41.71875 45.5625 
Q 45.3125 48.734375 45.3125 54.390625 
Q 45.3125 60.0625 41.71875 63.234375 
Q 38.140625 66.40625 31.78125 66.40625 
Q 25.390625 66.40625 21.84375 63.234375 
Q 18.3125 60.0625 18.3125 54.390625 
z
" id="DejaVuSans-38"/>
      </defs>
      <g transform="translate(28.334375 215.313386)scale(0.1 -0.1)">
       <use xlink:href="#DejaVuSans-30"/>
       <use x="63.623047" xlink:href="#DejaVuSans-2e"/>
       <use x="95.410156" xlink:href="#DejaVuSans-33"/>
       <use x="159.033203" xlink:href="#DejaVuSans-38"/>
      </g>
     </g>
    </g>
    <g id="ytick_3">
     <g id="line2d_11">
      <g>
       <use style="stroke:#000000;stroke-width:0.8;" x="57.6" xlink:href="#m95b53deb14" y="154.491166"/>
      </g>
     </g>
     <g id="text_12">
      <!-- 0.40 -->
      <defs>
       <path d="M 37.796875 64.3125 
L 12.890625 25.390625 
L 37.796875 25.390625 
z
M 35.203125 72.90625 
L 47.609375 72.90625 
L 47.609375 25.390625 
L 58.015625 25.390625 
L 58.015625 17.1875 
L 47.609375 17.1875 
L 47.609375 0 
L 37.796875 0 
L 37.796875 17.1875 
L 4.890625 17.1875 
L 4.890625 26.703125 
z
" id="DejaVuSans-34"/>
      </defs>
      <g transform="translate(28.334375 158.290384)scale(0.1 -0.1)">
       <use xlink:href="#DejaVuSans-30"/>
       <use x="63.623047" xlink:href="#DejaVuSans-2e"/>
       <use x="95.410156" xlink:href="#DejaVuSans-34"/>
       <use x="159.033203" xlink:href="#DejaVuSans-30"/>
      </g>
     </g>
    </g>
    <g id="ytick_4">
     <g id="line2d_12">
      <g>
       <use style="stroke:#000000;stroke-width:0.8;" x="57.6" xlink:href="#m95b53deb14" y="97.468164"/>
      </g>
     </g>
     <g id="text_13">
      <!-- 0.42 -->
      <g transform="translate(28.334375 101.267382)scale(0.1 -0.1)">
       <use xlink:href="#DejaVuSans-30"/>
       <use x="63.623047" xlink:href="#DejaVuSans-2e"/>
       <use x="95.410156" xlink:href="#DejaVuSans-34"/>
       <use x="159.033203" xlink:href="#DejaVuSans-32"/>
      </g>
     </g>
    </g>
   </g>
   <g id="line2d_13">
    <path clip-path="url(#pfbd76c7f24)" d="M 64.978512 201.238471 
L 65.329036 268.984651 
L 65.679559 239.447508 
L 66.030082 196.177869 
L 66.380605 198.20211 
L 66.731128 201.394182 
L 67.081651 198.513532 
L 67.432174 203.574133 
L 67.782698 224.283671 
L 68.133221 179.127536 
L 68.483744 158.573709 
L 68.834267 174.534067 
L 69.18479 156.705179 
L 69.535313 205.83194 
L 69.885837 209.335433 
L 70.23636 198.669242 
L 70.586883 192.674376 
L 70.937406 173.28838 
L 71.287929 207.10757 
L 71.638452 215.018877 
L 71.988975 222.055808 
L 72.339499 211.437529 
L 72.690022 166.437104 
L 73.040545 208.544901 
L 73.391068 199.992784 
L 73.741591 209.101867 
L 74.092114 192.985798 
L 74.442638 190.105148 
L 74.793161 185.433823 
L 75.143684 223.852472 
L 75.494207 192.44081 
L 75.84473 198.824953 
L 76.195253 206.376927 
L 76.545776 181.463198 
L 76.8963 188.70375 
L 77.246823 188.781606 
L 77.597346 196.177869 
L 77.947869 209.72471 
L 78.298392 186.913076 
L 78.648915 175.857609 
L 78.999439 182.864595 
L 79.349962 167.449225 
L 79.700485 175.079054 
L 80.051008 181.385342 
L 80.401531 176.558307 
L 80.752054 189.093027 
L 81.102577 198.591387 
L 81.453101 198.357821 
L 81.803624 208.8683 
L 82.154147 214.785311 
L 82.50467 255.97681 
L 82.855193 278.974099 
L 83.205716 238.36951 
L 83.55624 183.409583 
L 83.906763 191.817967 
L 84.257286 190.650136 
L 84.607809 188.003052 
L 84.958332 182.631029 
L 85.308855 174.923344 
L 85.659378 194.620761 
L 86.009902 184.499559 
L 86.360425 185.278113 
L 86.710948 188.080907 
L 87.061471 178.348982 
L 87.411994 163.478599 
L 87.762517 182.319607 
L 88.113041 150.321036 
L 88.463564 181.151776 
L 88.814087 190.260859 
L 89.16461 145.805422 
L 89.515133 181.774619 
L 89.865656 164.179298 
L 90.21618 161.999346 
L 90.566703 173.599802 
L 90.917226 174.3005 
L 91.267749 154.213806 
L 91.618272 172.431971 
L 91.968795 166.670671 
L 92.319318 157.561588 
L 92.669842 157.250167 
L 93.020365 161.843636 
L 93.370888 170.329875 
L 93.721411 162.700045 
L 94.071934 159.89725 
L 94.422457 158.651564 
L 94.772981 149.464626 
L 95.123504 150.321036 
L 95.474027 189.170883 
L 95.82455 127.120125 
L 96.175073 202.406302 
L 96.525596 161.376503 
L 96.876119 136.384918 
L 97.226643 138.564869 
L 97.577166 142.238229 
L 97.927689 142.379784 
L 98.278212 164.568575 
L 98.628735 153.513107 
L 98.979258 153.279541 
L 99.329782 145.805422 
L 99.680305 148.763927 
L 100.030828 149.776048 
L 100.381351 135.061376 
L 100.731874 133.829845 
L 101.082397 162.7779 
L 101.43292 152.890264 
L 101.783444 173.677657 
L 102.133967 118.287075 
L 102.48449 133.829845 
L 102.835013 145.571856 
L 103.185536 126.886559 
L 103.536059 138.416236 
L 103.886583 146.428265 
L 104.237106 141.211953 
L 104.587629 116.588412 
L 104.938152 123.892664 
L 105.288675 132.258582 
L 105.639198 154.447372 
L 105.989721 185.66739 
L 106.340245 170.329875 
L 106.690768 166.826382 
L 107.041291 148.69315 
" style="fill:none;stroke:#0000ff;stroke-linecap:square;stroke-width:1.5;"/>
   </g>
   <g id="line2d_14">
    <path clip-path="url(#pfbd76c7f24)" d="M 107.391814 178.971825 
L 107.742337 242.10657 
L 108.09286 206.688349 
L 108.443384 204.274832 
L 108.793907 186.212377 
L 109.14443 253.461481 
L 109.494953 243.831366 
L 109.845476 230.122826 
L 110.195999 268.912785 
L 110.546522 238.441377 
L 110.897046 264.816392 
L 111.247569 256.767341 
L 111.598092 293.275538 
L 111.948615 295.488 
L 112.299138 241.89097 
L 112.649661 233.985652 
L 113.000185 233.698186 
L 113.350708 217.899527 
L 113.701231 190.961557 
L 114.051754 266.613056 
L 114.402277 282.639291 
L 114.7528 273.081043 
L 115.103323 225.864734 
L 115.453847 215.719576 
L 115.80437 235.782315 
L 116.154893 226.511533 
L 116.505416 226.385767 
L 117.206462 196.956423 
L 117.556986 210.581119 
L 117.907509 211.59324 
L 118.258032 242.753368 
L 118.959078 186.290233 
L 119.309601 188.158763 
L 119.660124 186.757365 
L 120.010648 188.314473 
L 120.361171 180.840354 
L 120.711694 181.541053 
L 121.062217 176.480452 
L 121.41274 189.326594 
L 121.763263 175.779753 
L 122.113787 179.516813 
L 122.46431 176.947584 
L 122.814833 170.096309 
L 123.515879 195.32146 
L 123.866402 207.035704 
L 124.216925 192.44081 
L 124.567449 211.132096 
L 124.917972 207.700469 
L 125.268495 184.499559 
L 125.619018 215.875287 
L 125.969541 201.08276 
L 126.320064 175.779753 
L 126.670588 230.823525 
L 127.021111 227.865019 
L 127.371634 195.087894 
L 127.722157 188.70375 
L 128.07268 211.671095 
L 128.423203 222.648707 
L 128.773726 197.501411 
L 129.12425 191.42869 
L 129.474773 170.096309 
L 129.825296 183.876715 
L 130.175819 184.499559 
L 130.526342 169.39561 
L 130.876865 174.534067 
L 131.227389 146.817542 
L 131.577912 188.236618 
L 132.278958 204.041265 
L 132.629481 218.031283 
L 132.980004 195.010038 
L 133.330527 193.686496 
L 133.681051 204.741964 
L 134.031574 186.523799 
L 134.73262 221.19341 
L 135.083143 202.639868 
L 135.433666 173.833368 
L 135.78419 168.5392 
L 136.134713 218.965548 
L 136.835759 198.669242 
L 137.186282 274.230908 
L 137.536805 286.017018 
L 138.237852 229.458061 
L 138.588375 197.18999 
L 138.938898 218.055238 
L 139.289421 201.939169 
L 139.639944 216.522086 
L 139.990467 196.100014 
L 140.340991 203.226778 
L 140.691514 246.993494 
L 141.042037 197.112134 
L 141.39256 169.784887 
L 141.743083 207.778325 
L 142.093606 202.220647 
L 142.444129 193.45293 
L 142.794653 196.800713 
L 143.145176 189.326594 
L 143.495699 210.425409 
L 143.846222 186.056667 
L 144.196745 174.222645 
L 144.547268 195.555026 
L 144.897792 205.131241 
L 145.949361 181.93033 
L 146.299884 190.57228 
L 146.650407 191.740111 
L 147.00093 191.039413 
L 147.351454 164.802141 
L 147.701977 186.67951 
L 148.0525 184.499559 
L 148.403023 187.925196 
L 148.753546 210.970396 
L 149.104069 207.389048 
L 149.454593 199.292086 
L 149.805116 185.745245 
L 150.155639 217.198829 
L 150.506162 209.622899 
L 150.856685 235.782315 
L 151.207208 253.030282 
L 151.557731 212.71316 
L 151.908255 233.392753 
L 152.258778 265.175725 
L 152.609301 240.597373 
L 152.959824 196.022159 
L 153.310347 209.646854 
L 153.66087 238.297644 
L 154.011394 205.364807 
L 154.361917 214.006757 
L 154.71244 172.120549 
L 155.062963 178.115415 
L 155.413486 198.046399 
L 155.764009 191.039413 
L 156.114532 191.740111 
L 156.465056 196.567146 
L 156.815579 210.347553 
L 157.166102 200.771338 
L 157.516625 213.773191 
L 157.867148 218.911648 
L 158.217671 201.627748 
L 158.568195 207.466903 
L 158.918718 187.847341 
L 159.269241 200.304206 
L 159.619764 225.505402 
L 159.970287 223.421272 
L 160.32081 227.086465 
L 160.671334 206.460772 
L 161.021857 201.549892 
L 161.37238 239.519375 
L 161.722903 216.731696 
L 162.073426 205.053386 
L 162.423949 222.84634 
L 163.124996 179.361102 
L 163.475519 238.441377 
L 164.176565 198.591387 
L 164.527088 245.340563 
L 164.877611 248.430824 
L 165.228135 211.904661 
L 165.578658 206.221217 
L 165.929181 195.710737 
L 166.279704 238.010178 
L 166.630227 255.54561 
L 166.98075 216.965263 
L 167.331273 238.297644 
L 167.681797 250.730553 
L 168.03232 232.117122 
L 168.382843 204.879708 
L 168.733366 248.646424 
L 169.434412 215.084755 
L 169.784936 233.392753 
L 170.135459 206.532638 
L 170.485982 216.186709 
L 170.836505 235.135516 
L 171.187028 229.098728 
L 171.537551 191.117268 
L 171.888074 213.934891 
L 172.238598 215.228488 
L 172.939644 195.165749 
L 173.290167 212.449649 
L 173.64069 223.738683 
L 173.991213 210.84463 
L 174.341737 218.678082 
L 174.69226 218.606215 
L 175.042783 230.823525 
L 175.393306 211.707028 
L 176.094352 228.883128 
L 176.444875 209.335433 
L 176.795399 197.034279 
L 177.145922 180.217511 
L 177.496445 233.051387 
L 177.846968 211.982517 
L 178.548014 196.800713 
L 178.898538 207.035704 
L 179.249061 187.224498 
L 179.599584 197.034279 
L 179.950107 193.920063 
L 180.30063 176.246886 
L 180.651153 216.881418 
L 181.001676 212.138227 
L 181.3522 204.664109 
L 181.702723 193.297219 
L 182.403769 243.687633 
L 183.104815 192.362954 
L 183.455339 190.105148 
L 183.805862 163.167177 
L 184.156385 200.615627 
L 184.857431 213.216225 
L 185.207954 205.676229 
L 185.558477 212.49756 
L 185.909001 213.150348 
L 186.259524 228.87714 
L 186.610047 218.175016 
L 186.96057 235.854182 
L 187.311093 186.212377 
L 188.01214 216.965263 
L 188.362663 202.017025 
L 188.713186 222.84634 
L 189.063709 262.875996 
L 189.414232 171.108429 
L 189.764755 157.328022 
L 190.115278 174.534067 
L 190.465802 151.177445 
L 190.816325 154.058095 
L 191.166848 178.115415 
L 191.517371 159.040841 
L 191.867894 152.11171 
L 192.218417 158.807275 
L 192.568941 174.3005 
L 192.919464 151.750744 
L 193.269987 142.769061 
L 193.62051 136.85205 
L 193.971033 138.161437 
L 194.321556 137.085617 
L 194.672079 151.177445 
L 195.022603 128.988655 
L 195.373126 176.947584 
L 196.074172 138.798436 
L 196.424695 125.251595 
L 196.775218 103.508704 
L 197.125742 104.697768 
L 197.476265 95.609919 
L 197.826788 135.613442 
L 198.177311 102.659372 
L 198.527834 104.697768 
L 198.878357 108.264961 
L 199.22888 131.706516 
L 199.579404 140.121977 
L 199.929927 152.189565 
L 200.28045 78.538352 
L 200.630973 162.855756 
L 200.981496 140.666965 
L 201.332019 126.865325 
L 201.682543 127.820823 
L 202.033066 144.014748 
L 202.383589 138.840902 
L 202.734112 103.93337 
L 203.084635 145.649711 
L 203.435158 174.066934 
L 203.785681 168.928477 
L 204.136205 136.802506 
L 204.486728 147.673952 
L 204.837251 113.785617 
L 205.187774 144.326169 
L 205.538297 138.72058 
L 206.239344 165.736406 
L 206.589867 112.596553 
L 206.94039 103.93337 
L 207.290913 82.445278 
L 207.641436 113.955484 
L 207.991959 115.314414 
L 208.342482 114.12535 
L 208.693006 75.395825 
L 209.043529 53.568 
L 209.394052 119.730939 
L 209.744575 119.957427 
L 210.095098 146.35041 
L 210.445621 102.234706 
L 210.796145 119.900805 
L 211.146668 159.352263 
L 211.847714 149.075349 
L 212.198237 132.216115 
L 212.54876 152.260343 
L 212.54876 152.260343 
" style="fill:none;stroke:#ff0000;stroke-linecap:square;stroke-width:1.5;"/>
   </g>
   <g id="patch_3">
    <path d="M 57.6 307.584 
L 57.6 41.472 
" style="fill:none;stroke:#000000;stroke-linecap:square;stroke-linejoin:miter;stroke-width:0.8;"/>
   </g>
   <g id="patch_4">
    <path d="M 219.927273 307.584 
L 219.927273 41.472 
" style="fill:none;stroke:#000000;stroke-linecap:square;stroke-linejoin:miter;stroke-width:0.8;"/>
   </g>
   <g id="patch_5">
    <path d="M 57.6 307.584 
L 219.927273 307.584 
" style="fill:none;stroke:#000000;stroke-linecap:square;stroke-linejoin:miter;stroke-width:0.8;"/>
   </g>
   <g id="patch_6">
    <path d="M 57.6 41.472 
L 219.927273 41.472 
" style="fill:none;stroke:#000000;stroke-linecap:square;stroke-linejoin:miter;stroke-width:0.8;"/>
   </g>
   <g id="text_14">
    <!-- IBI - Reg vs Stress -->
    <defs>
     <path d="M 9.8125 72.90625 
L 19.671875 72.90625 
L 19.671875 0 
L 9.8125 0 
z
" id="DejaVuSans-49"/>
     <path d="M 19.671875 34.8125 
L 19.671875 8.109375 
L 35.5 8.109375 
Q 43.453125 8.109375 47.28125 11.40625 
Q 51.125 14.703125 51.125 21.484375 
Q 51.125 28.328125 47.28125 31.5625 
Q 43.453125 34.8125 35.5 34.8125 
z
M 19.671875 64.796875 
L 19.671875 42.828125 
L 34.28125 42.828125 
Q 41.5 42.828125 45.03125 45.53125 
Q 48.578125 48.25 48.578125 53.8125 
Q 48.578125 59.328125 45.03125 62.0625 
Q 41.5 64.796875 34.28125 64.796875 
z
M 9.8125 72.90625 
L 35.015625 72.90625 
Q 46.296875 72.90625 52.390625 68.21875 
Q 58.5 63.53125 58.5 54.890625 
Q 58.5 48.1875 55.375 44.234375 
Q 52.25 40.28125 46.1875 39.3125 
Q 53.46875 37.75 57.5 32.78125 
Q 61.53125 27.828125 61.53125 20.40625 
Q 61.53125 10.640625 54.890625 5.3125 
Q 48.25 0 35.984375 0 
L 9.8125 0 
z
" id="DejaVuSans-42"/>
     <path id="DejaVuSans-20"/>
     <path d="M 4.890625 31.390625 
L 31.203125 31.390625 
L 31.203125 23.390625 
L 4.890625 23.390625 
z
" id="DejaVuSans-2d"/>
     <path d="M 44.390625 34.1875 
Q 47.5625 33.109375 50.5625 29.59375 
Q 53.5625 26.078125 56.59375 19.921875 
L 66.609375 0 
L 56 0 
L 46.6875 18.703125 
Q 43.0625 26.03125 39.671875 28.421875 
Q 36.28125 30.8125 30.421875 30.8125 
L 19.671875 30.8125 
L 19.671875 0 
L 9.8125 0 
L 9.8125 72.90625 
L 32.078125 72.90625 
Q 44.578125 72.90625 50.734375 67.671875 
Q 56.890625 62.453125 56.890625 51.90625 
Q 56.890625 45.015625 53.6875 40.46875 
Q 50.484375 35.9375 44.390625 34.1875 
z
M 19.671875 64.796875 
L 19.671875 38.921875 
L 32.078125 38.921875 
Q 39.203125 38.921875 42.84375 42.21875 
Q 46.484375 45.515625 46.484375 51.90625 
Q 46.484375 58.296875 42.84375 61.546875 
Q 39.203125 64.796875 32.078125 64.796875 
z
" id="DejaVuSans-52"/>
     <path d="M 45.40625 27.984375 
Q 45.40625 37.75 41.375 43.109375 
Q 37.359375 48.484375 30.078125 48.484375 
Q 22.859375 48.484375 18.828125 43.109375 
Q 14.796875 37.75 14.796875 27.984375 
Q 14.796875 18.265625 18.828125 12.890625 
Q 22.859375 7.515625 30.078125 7.515625 
Q 37.359375 7.515625 41.375 12.890625 
Q 45.40625 18.265625 45.40625 27.984375 
z
M 54.390625 6.78125 
Q 54.390625 -7.171875 48.1875 -13.984375 
Q 42 -20.796875 29.203125 -20.796875 
Q 24.46875 -20.796875 20.265625 -20.09375 
Q 16.0625 -19.390625 12.109375 -17.921875 
L 12.109375 -9.1875 
Q 16.0625 -11.328125 19.921875 -12.34375 
Q 23.78125 -13.375 27.78125 -13.375 
Q 36.625 -13.375 41.015625 -8.765625 
Q 45.40625 -4.15625 45.40625 5.171875 
L 45.40625 9.625 
Q 42.625 4.78125 38.28125 2.390625 
Q 33.9375 0 27.875 0 
Q 17.828125 0 11.671875 7.65625 
Q 5.515625 15.328125 5.515625 27.984375 
Q 5.515625 40.671875 11.671875 48.328125 
Q 17.828125 56 27.875 56 
Q 33.9375 56 38.28125 53.609375 
Q 42.625 51.21875 45.40625 46.390625 
L 45.40625 54.6875 
L 54.390625 54.6875 
z
" id="DejaVuSans-67"/>
     <path d="M 2.984375 54.6875 
L 12.5 54.6875 
L 29.59375 8.796875 
L 46.6875 54.6875 
L 56.203125 54.6875 
L 35.6875 0 
L 23.484375 0 
z
" id="DejaVuSans-76"/>
     <path d="M 53.515625 70.515625 
L 53.515625 60.890625 
Q 47.90625 63.578125 42.921875 64.890625 
Q 37.9375 66.21875 33.296875 66.21875 
Q 25.25 66.21875 20.875 63.09375 
Q 16.5 59.96875 16.5 54.203125 
Q 16.5 49.359375 19.40625 46.890625 
Q 22.3125 44.4375 30.421875 42.921875 
L 36.375 41.703125 
Q 47.40625 39.59375 52.65625 34.296875 
Q 57.90625 29 57.90625 20.125 
Q 57.90625 9.515625 50.796875 4.046875 
Q 43.703125 -1.421875 29.984375 -1.421875 
Q 24.8125 -1.421875 18.96875 -0.25 
Q 13.140625 0.921875 6.890625 3.21875 
L 6.890625 13.375 
Q 12.890625 10.015625 18.65625 8.296875 
Q 24.421875 6.59375 29.984375 6.59375 
Q 38.421875 6.59375 43.015625 9.90625 
Q 47.609375 13.234375 47.609375 19.390625 
Q 47.609375 24.75 44.3125 27.78125 
Q 41.015625 30.8125 33.5 32.328125 
L 27.484375 33.5 
Q 16.453125 35.6875 11.515625 40.375 
Q 6.59375 45.0625 6.59375 53.421875 
Q 6.59375 63.09375 13.40625 68.65625 
Q 20.21875 74.21875 32.171875 74.21875 
Q 37.3125 74.21875 42.625 73.28125 
Q 47.953125 72.359375 53.515625 70.515625 
z
" id="DejaVuSans-53"/>
     <path d="M 41.109375 46.296875 
Q 39.59375 47.171875 37.8125 47.578125 
Q 36.03125 48 33.890625 48 
Q 26.265625 48 22.1875 43.046875 
Q 18.109375 38.09375 18.109375 28.8125 
L 18.109375 0 
L 9.078125 0 
L 9.078125 54.6875 
L 18.109375 54.6875 
L 18.109375 46.1875 
Q 20.953125 51.171875 25.484375 53.578125 
Q 30.03125 56 36.53125 56 
Q 37.453125 56 38.578125 55.875 
Q 39.703125 55.765625 41.0625 55.515625 
z
" id="DejaVuSans-72"/>
    </defs>
    <g transform="translate(84.402699 35.472)scale(0.12 -0.12)">
     <use xlink:href="#DejaVuSans-49"/>
     <use x="29.492188" xlink:href="#DejaVuSans-42"/>
     <use x="98.095703" xlink:href="#DejaVuSans-49"/>
     <use x="127.587891" xlink:href="#DejaVuSans-20"/>
     <use x="159.375" xlink:href="#DejaVuSans-2d"/>
     <use x="195.458984" xlink:href="#DejaVuSans-20"/>
     <use x="227.246094" xlink:href="#DejaVuSans-52"/>
     <use x="296.666016" xlink:href="#DejaVuSans-65"/>
     <use x="358.189453" xlink:href="#DejaVuSans-67"/>
     <use x="421.666016" xlink:href="#DejaVuSans-20"/>
     <use x="453.453125" xlink:href="#DejaVuSans-76"/>
     <use x="512.632812" xlink:href="#DejaVuSans-73"/>
     <use x="564.732422" xlink:href="#DejaVuSans-20"/>
     <use x="596.519531" xlink:href="#DejaVuSans-53"/>
     <use x="659.996094" xlink:href="#DejaVuSans-74"/>
     <use x="699.205078" xlink:href="#DejaVuSans-72"/>
     <use x="740.287109" xlink:href="#DejaVuSans-65"/>
     <use x="801.810547" xlink:href="#DejaVuSans-73"/>
     <use x="853.910156" xlink:href="#DejaVuSans-73"/>
    </g>
   </g>
   <g id="legend_1">
    <g id="patch_7">
     <path d="M 64.6 78.82825 
L 127.548437 78.82825 
Q 129.548437 78.82825 129.548437 76.82825 
L 129.548437 48.472 
Q 129.548437 46.472 127.548437 46.472 
L 64.6 46.472 
Q 62.6 46.472 62.6 48.472 
L 62.6 76.82825 
Q 62.6 78.82825 64.6 78.82825 
z
" style="fill:#ffffff;opacity:0.8;stroke:#cccccc;stroke-linejoin:miter;"/>
    </g>
    <g id="line2d_15">
     <path d="M 66.6 54.570437 
L 86.6 54.570437 
" style="fill:none;stroke:#0000ff;stroke-linecap:square;stroke-width:1.5;"/>
    </g>
    <g id="line2d_16"/>
    <g id="text_15">
     <!-- Reg -->
     <g transform="translate(94.6 58.070437)scale(0.1 -0.1)">
      <use xlink:href="#DejaVuSans-52"/>
      <use x="69.419922" xlink:href="#DejaVuSans-65"/>
      <use x="130.943359" xlink:href="#DejaVuSans-67"/>
     </g>
    </g>
    <g id="line2d_17">
     <path d="M 66.6 69.248562 
L 86.6 69.248562 
" style="fill:none;stroke:#ff0000;stroke-linecap:square;stroke-width:1.5;"/>
    </g>
    <g id="line2d_18"/>
    <g id="text_16">
     <!-- Stress -->
     <g transform="translate(94.6 72.748562)scale(0.1 -0.1)">
      <use xlink:href="#DejaVuSans-53"/>
      <use x="63.476562" xlink:href="#DejaVuSans-74"/>
      <use x="102.685547" xlink:href="#DejaVuSans-72"/>
      <use x="143.767578" xlink:href="#DejaVuSans-65"/>
      <use x="205.291016" xlink:href="#DejaVuSans-73"/>
      <use x="257.390625" xlink:href="#DejaVuSans-73"/>
     </g>
    </g>
   </g>
  </g>
  <g id="axes_2">
   <g id="patch_8">
    <path d="M 252.392727 307.584 
L 414.72 307.584 
L 414.72 41.472 
L 252.392727 41.472 
z
" style="fill:#ffffff;"/>
   </g>
   <g id="matplotlib.axis_3">
    <g id="xtick_9">
     <g id="line2d_19">
      <g>
       <use style="stroke:#000000;stroke-width:0.8;" x="259.77124" xlink:href="#m71d658dfae" y="307.584"/>
      </g>
     </g>
     <g id="text_17">
      <!-- 0.0 -->
      <g transform="translate(251.819677 322.182437)scale(0.1 -0.1)">
       <use xlink:href="#DejaVuSans-30"/>
       <use x="63.623047" xlink:href="#DejaVuSans-2e"/>
       <use x="95.410156" xlink:href="#DejaVuSans-30"/>
      </g>
     </g>
    </g>
    <g id="xtick_10">
     <g id="line2d_20">
      <g>
       <use style="stroke:#000000;stroke-width:0.8;" x="280.802629" xlink:href="#m71d658dfae" y="307.584"/>
      </g>
     </g>
     <g id="text_18">
      <!-- 5.0 -->
      <g transform="translate(272.851066 322.182437)scale(0.1 -0.1)">
       <use xlink:href="#DejaVuSans-35"/>
       <use x="63.623047" xlink:href="#DejaVuSans-2e"/>
       <use x="95.410156" xlink:href="#DejaVuSans-30"/>
      </g>
     </g>
    </g>
    <g id="xtick_11">
     <g id="line2d_21">
      <g>
       <use style="stroke:#000000;stroke-width:0.8;" x="301.834018" xlink:href="#m71d658dfae" y="307.584"/>
      </g>
     </g>
     <g id="text_19">
      <!-- 10.0 -->
      <g transform="translate(290.701206 322.182437)scale(0.1 -0.1)">
       <use xlink:href="#DejaVuSans-31"/>
       <use x="63.623047" xlink:href="#DejaVuSans-30"/>
       <use x="127.246094" xlink:href="#DejaVuSans-2e"/>
       <use x="159.033203" xlink:href="#DejaVuSans-30"/>
      </g>
     </g>
    </g>
    <g id="xtick_12">
     <g id="line2d_22">
      <g>
       <use style="stroke:#000000;stroke-width:0.8;" x="322.865407" xlink:href="#m71d658dfae" y="307.584"/>
      </g>
     </g>
     <g id="text_20">
      <!-- 15.0 -->
      <g transform="translate(311.732595 322.182437)scale(0.1 -0.1)">
       <use xlink:href="#DejaVuSans-31"/>
       <use x="63.623047" xlink:href="#DejaVuSans-35"/>
       <use x="127.246094" xlink:href="#DejaVuSans-2e"/>
       <use x="159.033203" xlink:href="#DejaVuSans-30"/>
      </g>
     </g>
    </g>
    <g id="xtick_13">
     <g id="line2d_23">
      <g>
       <use style="stroke:#000000;stroke-width:0.8;" x="343.896797" xlink:href="#m71d658dfae" y="307.584"/>
      </g>
     </g>
     <g id="text_21">
      <!-- 20.0 -->
      <g transform="translate(332.763984 322.182437)scale(0.1 -0.1)">
       <use xlink:href="#DejaVuSans-32"/>
       <use x="63.623047" xlink:href="#DejaVuSans-30"/>
       <use x="127.246094" xlink:href="#DejaVuSans-2e"/>
       <use x="159.033203" xlink:href="#DejaVuSans-30"/>
      </g>
     </g>
    </g>
    <g id="xtick_14">
     <g id="line2d_24">
      <g>
       <use style="stroke:#000000;stroke-width:0.8;" x="364.928186" xlink:href="#m71d658dfae" y="307.584"/>
      </g>
     </g>
     <g id="text_22">
      <!-- 25.0 -->
      <g transform="translate(353.795373 322.182437)scale(0.1 -0.1)">
       <use xlink:href="#DejaVuSans-32"/>
       <use x="63.623047" xlink:href="#DejaVuSans-35"/>
       <use x="127.246094" xlink:href="#DejaVuSans-2e"/>
       <use x="159.033203" xlink:href="#DejaVuSans-30"/>
      </g>
     </g>
    </g>
    <g id="xtick_15">
     <g id="line2d_25">
      <g>
       <use style="stroke:#000000;stroke-width:0.8;" x="385.959575" xlink:href="#m71d658dfae" y="307.584"/>
      </g>
     </g>
     <g id="text_23">
      <!-- 30.0 -->
      <g transform="translate(374.826763 322.182437)scale(0.1 -0.1)">
       <use xlink:href="#DejaVuSans-33"/>
       <use x="63.623047" xlink:href="#DejaVuSans-30"/>
       <use x="127.246094" xlink:href="#DejaVuSans-2e"/>
       <use x="159.033203" xlink:href="#DejaVuSans-30"/>
      </g>
     </g>
    </g>
    <g id="xtick_16">
     <g id="line2d_26">
      <g>
       <use style="stroke:#000000;stroke-width:0.8;" x="406.990964" xlink:href="#m71d658dfae" y="307.584"/>
      </g>
     </g>
     <g id="text_24">
      <!-- 35.0 -->
      <g transform="translate(395.858152 322.182437)scale(0.1 -0.1)">
       <use xlink:href="#DejaVuSans-33"/>
       <use x="63.623047" xlink:href="#DejaVuSans-35"/>
       <use x="127.246094" xlink:href="#DejaVuSans-2e"/>
       <use x="159.033203" xlink:href="#DejaVuSans-30"/>
      </g>
     </g>
    </g>
    <g id="text_25">
     <!-- Minutes -->
     <g transform="translate(313.874332 335.860562)scale(0.1 -0.1)">
      <use xlink:href="#DejaVuSans-4d"/>
      <use x="86.279297" xlink:href="#DejaVuSans-69"/>
      <use x="114.0625" xlink:href="#DejaVuSans-6e"/>
      <use x="177.441406" xlink:href="#DejaVuSans-75"/>
      <use x="240.820312" xlink:href="#DejaVuSans-74"/>
      <use x="280.029297" xlink:href="#DejaVuSans-65"/>
      <use x="341.552734" xlink:href="#DejaVuSans-73"/>
     </g>
    </g>
   </g>
   <g id="matplotlib.axis_4">
    <g id="ytick_5">
     <g id="line2d_27">
      <g>
       <use style="stroke:#000000;stroke-width:0.8;" x="252.392727" xlink:href="#m95b53deb14" y="307.584"/>
      </g>
     </g>
     <g id="text_26">
      <!-- 1.00 -->
      <g transform="translate(223.127102 311.383219)scale(0.1 -0.1)">
       <use xlink:href="#DejaVuSans-31"/>
       <use x="63.623047" xlink:href="#DejaVuSans-2e"/>
       <use x="95.410156" xlink:href="#DejaVuSans-30"/>
       <use x="159.033203" xlink:href="#DejaVuSans-30"/>
      </g>
     </g>
    </g>
    <g id="ytick_6">
     <g id="line2d_28">
      <g>
       <use style="stroke:#000000;stroke-width:0.8;" x="252.392727" xlink:href="#m95b53deb14" y="274.32"/>
      </g>
     </g>
     <g id="text_27">
      <!-- 1.25 -->
      <g transform="translate(223.127102 278.119219)scale(0.1 -0.1)">
       <use xlink:href="#DejaVuSans-31"/>
       <use x="63.623047" xlink:href="#DejaVuSans-2e"/>
       <use x="95.410156" xlink:href="#DejaVuSans-32"/>
       <use x="159.033203" xlink:href="#DejaVuSans-35"/>
      </g>
     </g>
    </g>
    <g id="ytick_7">
     <g id="line2d_29">
      <g>
       <use style="stroke:#000000;stroke-width:0.8;" x="252.392727" xlink:href="#m95b53deb14" y="241.056"/>
      </g>
     </g>
     <g id="text_28">
      <!-- 1.50 -->
      <g transform="translate(223.127102 244.855219)scale(0.1 -0.1)">
       <use xlink:href="#DejaVuSans-31"/>
       <use x="63.623047" xlink:href="#DejaVuSans-2e"/>
       <use x="95.410156" xlink:href="#DejaVuSans-35"/>
       <use x="159.033203" xlink:href="#DejaVuSans-30"/>
      </g>
     </g>
    </g>
    <g id="ytick_8">
     <g id="line2d_30">
      <g>
       <use style="stroke:#000000;stroke-width:0.8;" x="252.392727" xlink:href="#m95b53deb14" y="207.792"/>
      </g>
     </g>
     <g id="text_29">
      <!-- 1.75 -->
      <defs>
       <path d="M 8.203125 72.90625 
L 55.078125 72.90625 
L 55.078125 68.703125 
L 28.609375 0 
L 18.3125 0 
L 43.21875 64.59375 
L 8.203125 64.59375 
z
" id="DejaVuSans-37"/>
      </defs>
      <g transform="translate(223.127102 211.591219)scale(0.1 -0.1)">
       <use xlink:href="#DejaVuSans-31"/>
       <use x="63.623047" xlink:href="#DejaVuSans-2e"/>
       <use x="95.410156" xlink:href="#DejaVuSans-37"/>
       <use x="159.033203" xlink:href="#DejaVuSans-35"/>
      </g>
     </g>
    </g>
    <g id="ytick_9">
     <g id="line2d_31">
      <g>
       <use style="stroke:#000000;stroke-width:0.8;" x="252.392727" xlink:href="#m95b53deb14" y="174.528"/>
      </g>
     </g>
     <g id="text_30">
      <!-- 2.00 -->
      <g transform="translate(223.127102 178.327219)scale(0.1 -0.1)">
       <use xlink:href="#DejaVuSans-32"/>
       <use x="63.623047" xlink:href="#DejaVuSans-2e"/>
       <use x="95.410156" xlink:href="#DejaVuSans-30"/>
       <use x="159.033203" xlink:href="#DejaVuSans-30"/>
      </g>
     </g>
    </g>
    <g id="ytick_10">
     <g id="line2d_32">
      <g>
       <use style="stroke:#000000;stroke-width:0.8;" x="252.392727" xlink:href="#m95b53deb14" y="141.264"/>
      </g>
     </g>
     <g id="text_31">
      <!-- 2.25 -->
      <g transform="translate(223.127102 145.063219)scale(0.1 -0.1)">
       <use xlink:href="#DejaVuSans-32"/>
       <use x="63.623047" xlink:href="#DejaVuSans-2e"/>
       <use x="95.410156" xlink:href="#DejaVuSans-32"/>
       <use x="159.033203" xlink:href="#DejaVuSans-35"/>
      </g>
     </g>
    </g>
    <g id="ytick_11">
     <g id="line2d_33">
      <g>
       <use style="stroke:#000000;stroke-width:0.8;" x="252.392727" xlink:href="#m95b53deb14" y="108"/>
      </g>
     </g>
     <g id="text_32">
      <!-- 2.50 -->
      <g transform="translate(223.127102 111.799219)scale(0.1 -0.1)">
       <use xlink:href="#DejaVuSans-32"/>
       <use x="63.623047" xlink:href="#DejaVuSans-2e"/>
       <use x="95.410156" xlink:href="#DejaVuSans-35"/>
       <use x="159.033203" xlink:href="#DejaVuSans-30"/>
      </g>
     </g>
    </g>
    <g id="ytick_12">
     <g id="line2d_34">
      <g>
       <use style="stroke:#000000;stroke-width:0.8;" x="252.392727" xlink:href="#m95b53deb14" y="74.736"/>
      </g>
     </g>
     <g id="text_33">
      <!-- 2.75 -->
      <g transform="translate(223.127102 78.535219)scale(0.1 -0.1)">
       <use xlink:href="#DejaVuSans-32"/>
       <use x="63.623047" xlink:href="#DejaVuSans-2e"/>
       <use x="95.410156" xlink:href="#DejaVuSans-37"/>
       <use x="159.033203" xlink:href="#DejaVuSans-35"/>
      </g>
     </g>
    </g>
    <g id="ytick_13">
     <g id="line2d_35">
      <g>
       <use style="stroke:#000000;stroke-width:0.8;" x="252.392727" xlink:href="#m95b53deb14" y="41.472"/>
      </g>
     </g>
     <g id="text_34">
      <!-- 3.00 -->
      <g transform="translate(223.127102 45.271219)scale(0.1 -0.1)">
       <use xlink:href="#DejaVuSans-33"/>
       <use x="63.623047" xlink:href="#DejaVuSans-2e"/>
       <use x="95.410156" xlink:href="#DejaVuSans-30"/>
       <use x="159.033203" xlink:href="#DejaVuSans-30"/>
      </g>
     </g>
    </g>
   </g>
   <g id="line2d_36">
    <path clip-path="url(#p0055bcdf64)" d="M 259.77124 159.017489 
L 260.121763 165.177501 
L 260.472286 170.348452 
L 260.822809 155.439758 
L 261.173332 170.37854 
L 261.523855 201.418757 
L 261.874379 147.297505 
L 262.224902 164.811912 
L 262.575425 185.809911 
L 262.925948 261.717334 
L 263.276471 238.832275 
L 263.626994 265.657055 
L 263.977518 343.733241 
L 264.328041 228.843444 
L 264.678564 205.321601 
L 265.029087 122.079127 
L 265.37961 178.385657 
L 265.730133 150.676863 
L 266.080656 225.762972 
L 266.43118 140.8004 
L 266.781703 152.092349 
L 267.132226 160.196263 
L 267.482749 193.577521 
L 267.833272 206.58851 
L 268.183795 204.416018 
L 268.534319 163.417859 
L 268.884842 174.932544 
L 269.235365 161.753809 
L 269.585888 220.887179 
L 269.936411 174.421174 
L 270.286934 252.48271 
L 270.637457 190.693291 
L 270.987981 168.743247 
L 271.338504 171.356813 
L 271.689027 159.205209 
L 272.03955 210.392437 
L 272.390073 151.145628 
L 272.740596 163.449811 
L 273.09112 190.671856 
L 273.441643 231.879314 
L 273.792166 180.273373 
L 274.142689 190.862239 
L 274.493212 168.742448 
L 274.843735 159.122399 
L 275.194258 172.786947 
L 275.544782 189.181414 
L 275.895305 255.636539 
L 276.245828 187.453991 
L 276.596351 169.191246 
L 276.946874 174.288438 
L 277.297397 94.291515 
L 277.647921 183.404967 
L 277.998444 168.221626 
L 278.348967 233.59116 
L 278.69949 178.464207 
L 279.050013 244.254585 
L 279.400536 192.09014 
L 279.751059 201.949698 
L 280.101583 184.750824 
L 280.452106 205.936817 
L 280.802629 177.160284 
L 281.153152 173.640872 
L 281.503675 181.754895 
L 281.854198 194.279939 
L 282.204722 161.687107 
L 282.555245 192.103054 
L 282.905768 166.840219 
L 283.256291 177.600163 
L 283.606814 180.548962 
L 283.957337 212.281484 
L 284.30786 172.493253 
L 284.658384 163.895546 
L 285.008907 171.62428 
L 285.35943 233.293737 
L 285.709953 201.169529 
L 286.060476 233.089775 
L 286.410999 200.120161 
L 286.761523 157.9371 
L 287.112046 201.737348 
L 287.462569 167.408571 
L 287.813092 178.833653 
L 288.163615 177.951639 
L 288.514138 207.639477 
L 288.864661 186.410748 
L 289.215185 191.760099 
L 289.565708 177.880409 
L 289.916231 207.962328 
L 290.266754 206.324638 
L 290.617277 202.738388 
L 290.9678 163.204709 
L 291.318324 167.358247 
L 291.668847 206.043058 
L 292.01937 181.509793 
L 292.369893 258.048939 
L 292.720416 173.290461 
L 293.070939 227.429685 
L 293.421462 199.741259 
L 293.771986 164.756528 
L 294.122509 172.243756 
L 294.473032 170.67157 
L 294.823555 177.54531 
L 295.174078 202.930102 
L 295.524601 187.792153 
L 295.875125 163.394827 
L 296.225648 173.954139 
L 296.576171 180.476138 
L 296.926694 203.250691 
L 297.277217 192.3853 
L 297.62774 211.454585 
L 297.978263 179.167555 
L 298.328787 241.382736 
L 298.67931 186.615242 
L 299.029833 172.963482 
L 299.380356 234.746103 
L 299.730879 169.659481 
L 300.081402 182.196369 
L 300.431926 190.076344 
L 300.782449 161.139258 
L 301.132972 248.432352 
L 301.483495 193.225379 
L 301.834018 182.468897 
" style="fill:none;stroke:#0000ff;stroke-linecap:square;stroke-width:1.5;"/>
   </g>
   <g id="line2d_37">
    <path clip-path="url(#p0055bcdf64)" d="M 302.184541 133.618319 
L 302.535064 224.77684 
L 302.885588 166.773456 
L 303.236111 176.941802 
L 303.586634 166.398519 
L 303.937157 170.173682 
L 304.28768 179.154167 
L 304.638203 183.100249 
L 304.988727 197.954916 
L 305.33925 229.007886 
L 305.689773 176.876933 
L 306.040296 185.966101 
L 306.390819 187.22676 
L 306.741342 181.433716 
L 307.091865 194.989068 
L 307.442389 184.645558 
L 307.792912 183.305201 
L 308.143435 170.848757 
L 308.844481 203.546667 
L 309.195004 157.423235 
L 309.545528 193.627963 
L 310.246574 215.433031 
L 310.597097 213.528953 
L 310.94762 166.045885 
L 311.298143 195.264518 
L 311.648666 186.507739 
L 311.99919 263.033518 
L 312.349713 209.51683 
L 313.050759 191.307538 
L 313.401282 203.376362 
L 313.751805 210.315194 
L 314.102329 237.599916 
L 314.452852 227.037423 
L 314.803375 195.407952 
L 315.504421 236.950517 
L 315.854944 194.699615 
L 316.205468 252.122235 
L 316.555991 201.981596 
L 316.906514 203.533686 
L 317.257037 223.999046 
L 317.60756 180.681168 
L 317.958083 205.319953 
L 318.308606 212.153688 
L 318.65913 170.206273 
L 319.009653 235.629484 
L 319.360176 182.727901 
L 319.710699 179.12478 
L 320.061222 281.481507 
L 320.411745 208.067568 
L 320.762269 172.061833 
L 321.112792 188.746683 
L 321.463315 173.609703 
L 321.813838 219.843397 
L 322.164361 203.243458 
L 322.514884 211.794244 
L 322.865407 246.907158 
L 323.215931 187.27872 
L 323.566454 180.77726 
L 324.2675 188.263952 
L 324.618023 193.368896 
L 324.968546 180.422036 
L 325.31907 181.899216 
L 325.669593 174.409135 
L 326.020116 236.645705 
L 326.370639 191.119334 
L 326.721162 175.560664 
L 327.071685 180.432322 
L 327.422208 170.315236 
L 327.772732 183.062099 
L 328.123255 173.56656 
L 328.473778 195.668551 
L 328.824301 200.467016 
L 329.174824 207.283495 
L 329.525347 197.594001 
L 329.875871 218.73468 
L 330.226394 166.698748 
L 330.576917 184.780377 
L 330.92744 188.201974 
L 331.277963 159.574321 
L 331.628486 161.459934 
L 331.979009 187.209529 
L 332.329533 168.589643 
L 332.680056 180.234367 
L 333.381102 175.391027 
L 333.731625 238.940483 
L 334.082148 181.190156 
L 334.783195 194.203394 
L 335.133718 160.860195 
L 335.484241 177.87227 
L 335.834764 178.631631 
L 336.185287 153.346329 
L 336.53581 174.562876 
L 337.236857 201.264445 
L 337.58738 169.221575 
L 337.937903 203.636562 
L 338.288426 187.457976 
L 338.638949 179.68405 
L 338.989473 186.085382 
L 339.339996 166.751416 
L 340.041042 186.004705 
L 340.391565 210.080374 
L 340.742088 187.784826 
L 341.092611 173.407471 
L 341.443135 186.938911 
L 341.793658 161.455795 
L 342.144181 227.481685 
L 342.494704 210.448365 
L 343.19575 193.069628 
L 343.546274 251.745576 
L 343.896797 189.203635 
L 344.24732 156.371483 
L 344.597843 186.517757 
L 344.948366 158.684028 
L 345.649412 187.517681 
L 345.999936 160.003058 
L 346.350459 171.619589 
L 346.700982 170.755792 
L 347.051505 204.857817 
L 347.402028 172.302521 
L 347.752551 161.503482 
L 348.103075 182.368056 
L 348.453598 177.59671 
L 348.804121 161.716794 
L 349.154644 201.465993 
L 349.505167 160.684278 
L 349.85569 191.550641 
L 350.206213 181.553868 
L 350.556737 194.210606 
L 350.90726 141.744878 
L 351.257783 187.142746 
L 351.608306 181.433716 
L 351.958829 181.120489 
L 352.309352 164.746091 
L 352.659876 174.020038 
L 353.010399 177.336867 
L 353.360922 176.238543 
L 353.711445 173.978096 
L 354.061968 158.561675 
L 354.412491 180.214464 
L 354.763014 172.629681 
L 355.113538 193.42333 
L 355.464061 190.794486 
L 355.814584 182.060035 
L 356.165107 160.171225 
L 356.51563 169.72381 
L 356.866153 189.28296 
L 357.216677 191.96525 
L 357.5672 174.749744 
L 357.917723 173.608767 
L 358.618769 161.880957 
L 358.969292 166.040543 
L 359.670339 165.969616 
L 360.020862 187.537584 
L 360.371385 168.444985 
L 360.721908 178.157982 
L 361.072431 168.451528 
L 361.422954 172.637961 
L 361.773478 165.075482 
L 362.474524 182.705981 
L 362.825047 284.769931 
L 363.17557 177.28415 
L 363.526093 163.767602 
L 363.876616 201.765609 
L 364.22714 180.364468 
L 364.577663 180.915056 
L 364.928186 165.602558 
L 365.629232 176.110048 
L 365.979755 186.444827 
L 366.330279 189.530617 
L 366.680802 168.234473 
L 367.031325 189.904224 
L 367.381848 163.249677 
L 367.732371 163.167263 
L 368.082894 173.935753 
L 368.433417 167.319501 
L 368.783941 198.876299 
L 369.134464 190.912027 
L 369.484987 178.295426 
L 369.83551 180.584595 
L 370.186033 196.925603 
L 370.536556 173.575909 
L 370.88708 177.767282 
L 371.237603 171.973435 
L 371.588126 170.029156 
L 371.938649 166.744178 
L 372.289172 170.963097 
L 372.639695 169.721806 
L 372.990218 173.663828 
L 373.340742 183.680808 
L 373.691265 240.757873 
L 374.041788 185.952344 
L 374.392311 196.354715 
L 375.093357 165.502379 
L 375.443881 180.800315 
L 375.794404 184.267238 
L 376.49545 167.781798 
L 376.845973 192.039916 
L 377.196496 174.296933 
L 377.547019 199.787933 
L 378.248066 171.47842 
L 378.598589 207.463364 
L 378.949112 176.55885 
L 379.299635 203.372622 
L 379.650158 176.882429 
L 380.000682 194.956208 
L 380.351205 167.389362 
L 380.701728 164.753438 
L 381.052251 160.676665 
L 381.402774 218.444162 
L 381.753297 160.275813 
L 382.10382 165.567295 
L 382.454344 195.28797 
L 382.804867 190.468702 
L 383.15539 187.654192 
L 383.505913 193.956016 
L 383.856436 162.788583 
L 384.206959 146.955012 
L 384.557483 161.434156 
L 384.908006 147.592018 
L 385.258529 183.343082 
L 385.609052 162.130205 
L 385.959575 164.404279 
L 386.310098 269.275769 
L 386.660622 193.486642 
L 387.011145 177.118518 
L 387.361668 148.753033 
L 387.712191 155.88608 
L 388.062714 128.843821 
L 388.413237 154.072163 
L 388.76376 146.914805 
L 389.114284 129.368217 
L 389.464807 122.3914 
L 389.81533 164.08664 
L 389.901798 346.6 
M 390.438347 346.6 
L 390.516376 187.001426 
L 390.866899 139.289773 
L 391.217423 160.020823 
L 391.567946 149.506513 
L 391.918469 178.739721 
L 392.268992 131.107552 
L 392.619515 142.742265 
L 392.970038 147.682581 
L 393.320561 128.420606 
L 393.671085 212.554673 
L 394.021608 139.546006 
L 394.372131 169.83307 
L 394.722654 138.846992 
L 395.073177 148.897289 
L 395.164948 346.6 
M 395.697439 346.6 
L 395.774224 190.238073 
L 396.124747 87.454535 
L 396.47527 107.409225 
L 396.825793 136.254643 
L 397.526839 129.836191 
L 398.227886 241.672979 
L 398.578409 109.830793 
L 398.928932 150.422558 
L 399.279455 174.434379 
L 399.629978 129.424536 
L 399.980501 192.666373 
L 400.331025 122.758059 
L 400.681548 170.331563 
L 401.032071 265.980132 
L 401.382594 157.995641 
L 401.733117 152.880293 
L 402.08364 172.276781 
L 402.434163 146.633904 
L 402.526707 346.6 
M 403.079149 346.6 
L 403.13521 240.473898 
L 403.485733 124.257009 
L 403.836256 121.415786 
L 404.537302 231.891319 
L 404.887826 156.617257 
L 405.238349 119.390509 
L 405.588872 179.793044 
L 405.939395 135.368521 
L 406.289918 194.067684 
L 406.640441 150.493482 
L 406.990964 139.362944 
L 407.341488 108.119565 
L 407.341488 108.119565 
" style="fill:none;stroke:#ff0000;stroke-linecap:square;stroke-width:1.5;"/>
   </g>
   <g id="patch_9">
    <path d="M 252.392727 307.584 
L 252.392727 41.472 
" style="fill:none;stroke:#000000;stroke-linecap:square;stroke-linejoin:miter;stroke-width:0.8;"/>
   </g>
   <g id="patch_10">
    <path d="M 414.72 307.584 
L 414.72 41.472 
" style="fill:none;stroke:#000000;stroke-linecap:square;stroke-linejoin:miter;stroke-width:0.8;"/>
   </g>
   <g id="patch_11">
    <path d="M 252.392727 307.584 
L 414.72 307.584 
" style="fill:none;stroke:#000000;stroke-linecap:square;stroke-linejoin:miter;stroke-width:0.8;"/>
   </g>
   <g id="patch_12">
    <path d="M 252.392727 41.472 
L 414.72 41.472 
" style="fill:none;stroke:#000000;stroke-linecap:square;stroke-linejoin:miter;stroke-width:0.8;"/>
   </g>
   <g id="text_35">
    <!-- Pupil - Reg vs Stress -->
    <defs>
     <path d="M 19.671875 64.796875 
L 19.671875 37.40625 
L 32.078125 37.40625 
Q 38.96875 37.40625 42.71875 40.96875 
Q 46.484375 44.53125 46.484375 51.125 
Q 46.484375 57.671875 42.71875 61.234375 
Q 38.96875 64.796875 32.078125 64.796875 
z
M 9.8125 72.90625 
L 32.078125 72.90625 
Q 44.34375 72.90625 50.609375 67.359375 
Q 56.890625 61.8125 56.890625 51.125 
Q 56.890625 40.328125 50.609375 34.8125 
Q 44.34375 29.296875 32.078125 29.296875 
L 19.671875 29.296875 
L 19.671875 0 
L 9.8125 0 
z
" id="DejaVuSans-50"/>
     <path d="M 18.109375 8.203125 
L 18.109375 -20.796875 
L 9.078125 -20.796875 
L 9.078125 54.6875 
L 18.109375 54.6875 
L 18.109375 46.390625 
Q 20.953125 51.265625 25.265625 53.625 
Q 29.59375 56 35.59375 56 
Q 45.5625 56 51.78125 48.09375 
Q 58.015625 40.1875 58.015625 27.296875 
Q 58.015625 14.40625 51.78125 6.484375 
Q 45.5625 -1.421875 35.59375 -1.421875 
Q 29.59375 -1.421875 25.265625 0.953125 
Q 20.953125 3.328125 18.109375 8.203125 
z
M 48.6875 27.296875 
Q 48.6875 37.203125 44.609375 42.84375 
Q 40.53125 48.484375 33.40625 48.484375 
Q 26.265625 48.484375 22.1875 42.84375 
Q 18.109375 37.203125 18.109375 27.296875 
Q 18.109375 17.390625 22.1875 11.75 
Q 26.265625 6.109375 33.40625 6.109375 
Q 40.53125 6.109375 44.609375 11.75 
Q 48.6875 17.390625 48.6875 27.296875 
z
" id="DejaVuSans-70"/>
     <path d="M 9.421875 75.984375 
L 18.40625 75.984375 
L 18.40625 0 
L 9.421875 0 
z
" id="DejaVuSans-6c"/>
    </defs>
    <g transform="translate(272.289801 35.472)scale(0.12 -0.12)">
     <use xlink:href="#DejaVuSans-50"/>
     <use x="60.287109" xlink:href="#DejaVuSans-75"/>
     <use x="123.666016" xlink:href="#DejaVuSans-70"/>
     <use x="187.142578" xlink:href="#DejaVuSans-69"/>
     <use x="214.925781" xlink:href="#DejaVuSans-6c"/>
     <use x="242.708984" xlink:href="#DejaVuSans-20"/>
     <use x="274.496094" xlink:href="#DejaVuSans-2d"/>
     <use x="310.580078" xlink:href="#DejaVuSans-20"/>
     <use x="342.367188" xlink:href="#DejaVuSans-52"/>
     <use x="411.787109" xlink:href="#DejaVuSans-65"/>
     <use x="473.310547" xlink:href="#DejaVuSans-67"/>
     <use x="536.787109" xlink:href="#DejaVuSans-20"/>
     <use x="568.574219" xlink:href="#DejaVuSans-76"/>
     <use x="627.753906" xlink:href="#DejaVuSans-73"/>
     <use x="679.853516" xlink:href="#DejaVuSans-20"/>
     <use x="711.640625" xlink:href="#DejaVuSans-53"/>
     <use x="775.117188" xlink:href="#DejaVuSans-74"/>
     <use x="814.326172" xlink:href="#DejaVuSans-72"/>
     <use x="855.408203" xlink:href="#DejaVuSans-65"/>
     <use x="916.931641" xlink:href="#DejaVuSans-73"/>
     <use x="969.03125" xlink:href="#DejaVuSans-73"/>
    </g>
   </g>
   <g id="legend_2">
    <g id="patch_13">
     <path d="M 344.771562 78.82825 
L 407.72 78.82825 
Q 409.72 78.82825 409.72 76.82825 
L 409.72 48.472 
Q 409.72 46.472 407.72 46.472 
L 344.771562 46.472 
Q 342.771562 46.472 342.771562 48.472 
L 342.771562 76.82825 
Q 342.771562 78.82825 344.771562 78.82825 
z
" style="fill:#ffffff;opacity:0.8;stroke:#cccccc;stroke-linejoin:miter;"/>
    </g>
    <g id="line2d_38">
     <path d="M 346.771562 54.570437 
L 366.771562 54.570437 
" style="fill:none;stroke:#0000ff;stroke-linecap:square;stroke-width:1.5;"/>
    </g>
    <g id="line2d_39"/>
    <g id="text_36">
     <!-- Reg -->
     <g transform="translate(374.771562 58.070437)scale(0.1 -0.1)">
      <use xlink:href="#DejaVuSans-52"/>
      <use x="69.419922" xlink:href="#DejaVuSans-65"/>
      <use x="130.943359" xlink:href="#DejaVuSans-67"/>
     </g>
    </g>
    <g id="line2d_40">
     <path d="M 346.771562 69.248562 
L 366.771562 69.248562 
" style="fill:none;stroke:#ff0000;stroke-linecap:square;stroke-width:1.5;"/>
    </g>
    <g id="line2d_41"/>
    <g id="text_37">
     <!-- Stress -->
     <g transform="translate(374.771562 72.748562)scale(0.1 -0.1)">
      <use xlink:href="#DejaVuSans-53"/>
      <use x="63.476562" xlink:href="#DejaVuSans-74"/>
      <use x="102.685547" xlink:href="#DejaVuSans-72"/>
      <use x="143.767578" xlink:href="#DejaVuSans-65"/>
      <use x="205.291016" xlink:href="#DejaVuSans-73"/>
      <use x="257.390625" xlink:href="#DejaVuSans-73"/>
     </g>
    </g>
   </g>
  </g>
 </g>
 <defs>
  <clipPath id="pfbd76c7f24">
   <rect height="266.112" width="162.327273" x="57.6" y="41.472"/>
  </clipPath>
  <clipPath id="p0055bcdf64">
   <rect height="266.112" width="162.327273" x="252.392727" y="41.472"/>
  </clipPath>
 </defs>
</svg>
