<?xml version="1.0" encoding="utf-8" standalone="no"?>
<!DOCTYPE svg PUBLIC "-//W3C//DTD SVG 1.1//EN"
  "http://www.w3.org/Graphics/SVG/1.1/DTD/svg11.dtd">
<!-- Created with matplotlib (http://matplotlib.org/) -->
<svg height="345pt" version="1.1" viewBox="0 0 460 345" width="460pt" xmlns="http://www.w3.org/2000/svg" xmlns:xlink="http://www.w3.org/1999/xlink">
 <defs>
  <style type="text/css">
*{stroke-linecap:butt;stroke-linejoin:round;}
  </style>
 </defs>
 <g id="figure_1">
  <g id="patch_1">
   <path d="M 0 345.6 
L 460.8 345.6 
L 460.8 0 
L 0 0 
z
" style="fill:#ffffff;"/>
  </g>
  <g id="axes_1">
   <g id="patch_2">
    <path d="M 57.6 307.584 
L 219.927273 307.584 
L 219.927273 41.472 
L 57.6 41.472 
z
" style="fill:#ffffff;"/>
   </g>
   <g id="matplotlib.axis_1">
    <g id="xtick_1">
     <g id="line2d_1">
      <defs>
       <path d="M 0 0 
L 0 3.5 
" id="ma7b4a12d9a" style="stroke:#000000;stroke-width:0.8;"/>
      </defs>
      <g>
       <use style="stroke:#000000;stroke-width:0.8;" x="64.978512" xlink:href="#ma7b4a12d9a" y="307.584"/>
      </g>
     </g>
     <g id="text_1">
      <!-- 0.0 -->
      <defs>
       <path d="M 31.78125 66.40625 
Q 24.171875 66.40625 20.328125 58.90625 
Q 16.5 51.421875 16.5 36.375 
Q 16.5 21.390625 20.328125 13.890625 
Q 24.171875 6.390625 31.78125 6.390625 
Q 39.453125 6.390625 43.28125 13.890625 
Q 47.125 21.390625 47.125 36.375 
Q 47.125 51.421875 43.28125 58.90625 
Q 39.453125 66.40625 31.78125 66.40625 
z
M 31.78125 74.21875 
Q 44.046875 74.21875 50.515625 64.515625 
Q 56.984375 54.828125 56.984375 36.375 
Q 56.984375 17.96875 50.515625 8.265625 
Q 44.046875 -1.421875 31.78125 -1.421875 
Q 19.53125 -1.421875 13.0625 8.265625 
Q 6.59375 17.96875 6.59375 36.375 
Q 6.59375 54.828125 13.0625 64.515625 
Q 19.53125 74.21875 31.78125 74.21875 
z
" id="DejaVuSans-30"/>
       <path d="M 10.6875 12.40625 
L 21 12.40625 
L 21 0 
L 10.6875 0 
z
" id="DejaVuSans-2e"/>
      </defs>
      <g transform="translate(57.02695 322.182437)scale(0.1 -0.1)">
       <use xlink:href="#DejaVuSans-30"/>
       <use x="63.623047" xlink:href="#DejaVuSans-2e"/>
       <use x="95.410156" xlink:href="#DejaVuSans-30"/>
      </g>
     </g>
    </g>
    <g id="xtick_2">
     <g id="line2d_2">
      <g>
       <use style="stroke:#000000;stroke-width:0.8;" x="78.333286" xlink:href="#ma7b4a12d9a" y="307.584"/>
      </g>
     </g>
     <g id="text_2">
      <!-- 5.0 -->
      <defs>
       <path d="M 10.796875 72.90625 
L 49.515625 72.90625 
L 49.515625 64.59375 
L 19.828125 64.59375 
L 19.828125 46.734375 
Q 21.96875 47.46875 24.109375 47.828125 
Q 26.265625 48.1875 28.421875 48.1875 
Q 40.625 48.1875 47.75 41.5 
Q 54.890625 34.8125 54.890625 23.390625 
Q 54.890625 11.625 47.5625 5.09375 
Q 40.234375 -1.421875 26.90625 -1.421875 
Q 22.3125 -1.421875 17.546875 -0.640625 
Q 12.796875 0.140625 7.71875 1.703125 
L 7.71875 11.625 
Q 12.109375 9.234375 16.796875 8.0625 
Q 21.484375 6.890625 26.703125 6.890625 
Q 35.15625 6.890625 40.078125 11.328125 
Q 45.015625 15.765625 45.015625 23.390625 
Q 45.015625 31 40.078125 35.4375 
Q 35.15625 39.890625 26.703125 39.890625 
Q 22.75 39.890625 18.8125 39.015625 
Q 14.890625 38.140625 10.796875 36.28125 
z
" id="DejaVuSans-35"/>
      </defs>
      <g transform="translate(70.381723 322.182437)scale(0.1 -0.1)">
       <use xlink:href="#DejaVuSans-35"/>
       <use x="63.623047" xlink:href="#DejaVuSans-2e"/>
       <use x="95.410156" xlink:href="#DejaVuSans-30"/>
      </g>
     </g>
    </g>
    <g id="xtick_3">
     <g id="line2d_3">
      <g>
       <use style="stroke:#000000;stroke-width:0.8;" x="91.68806" xlink:href="#ma7b4a12d9a" y="307.584"/>
      </g>
     </g>
     <g id="text_3">
      <!-- 10.0 -->
      <defs>
       <path d="M 12.40625 8.296875 
L 28.515625 8.296875 
L 28.515625 63.921875 
L 10.984375 60.40625 
L 10.984375 69.390625 
L 28.421875 72.90625 
L 38.28125 72.90625 
L 38.28125 8.296875 
L 54.390625 8.296875 
L 54.390625 0 
L 12.40625 0 
z
" id="DejaVuSans-31"/>
      </defs>
      <g transform="translate(80.555247 322.182437)scale(0.1 -0.1)">
       <use xlink:href="#DejaVuSans-31"/>
       <use x="63.623047" xlink:href="#DejaVuSans-30"/>
       <use x="127.246094" xlink:href="#DejaVuSans-2e"/>
       <use x="159.033203" xlink:href="#DejaVuSans-30"/>
      </g>
     </g>
    </g>
    <g id="xtick_4">
     <g id="line2d_4">
      <g>
       <use style="stroke:#000000;stroke-width:0.8;" x="105.042833" xlink:href="#ma7b4a12d9a" y="307.584"/>
      </g>
     </g>
     <g id="text_4">
      <!-- 15.0 -->
      <g transform="translate(93.910021 322.182437)scale(0.1 -0.1)">
       <use xlink:href="#DejaVuSans-31"/>
       <use x="63.623047" xlink:href="#DejaVuSans-35"/>
       <use x="127.246094" xlink:href="#DejaVuSans-2e"/>
       <use x="159.033203" xlink:href="#DejaVuSans-30"/>
      </g>
     </g>
    </g>
    <g id="xtick_5">
     <g id="line2d_5">
      <g>
       <use style="stroke:#000000;stroke-width:0.8;" x="118.397607" xlink:href="#ma7b4a12d9a" y="307.584"/>
      </g>
     </g>
     <g id="text_5">
      <!-- 20.0 -->
      <defs>
       <path d="M 19.1875 8.296875 
L 53.609375 8.296875 
L 53.609375 0 
L 7.328125 0 
L 7.328125 8.296875 
Q 12.9375 14.109375 22.625 23.890625 
Q 32.328125 33.6875 34.8125 36.53125 
Q 39.546875 41.84375 41.421875 45.53125 
Q 43.3125 49.21875 43.3125 52.78125 
Q 43.3125 58.59375 39.234375 62.25 
Q 35.15625 65.921875 28.609375 65.921875 
Q 23.96875 65.921875 18.8125 64.3125 
Q 13.671875 62.703125 7.8125 59.421875 
L 7.8125 69.390625 
Q 13.765625 71.78125 18.9375 73 
Q 24.125 74.21875 28.421875 74.21875 
Q 39.75 74.21875 46.484375 68.546875 
Q 53.21875 62.890625 53.21875 53.421875 
Q 53.21875 48.921875 51.53125 44.890625 
Q 49.859375 40.875 45.40625 35.40625 
Q 44.1875 33.984375 37.640625 27.21875 
Q 31.109375 20.453125 19.1875 8.296875 
z
" id="DejaVuSans-32"/>
      </defs>
      <g transform="translate(107.264794 322.182437)scale(0.1 -0.1)">
       <use xlink:href="#DejaVuSans-32"/>
       <use x="63.623047" xlink:href="#DejaVuSans-30"/>
       <use x="127.246094" xlink:href="#DejaVuSans-2e"/>
       <use x="159.033203" xlink:href="#DejaVuSans-30"/>
      </g>
     </g>
    </g>
    <g id="xtick_6">
     <g id="line2d_6">
      <g>
       <use style="stroke:#000000;stroke-width:0.8;" x="131.75238" xlink:href="#ma7b4a12d9a" y="307.584"/>
      </g>
     </g>
     <g id="text_6">
      <!-- 25.0 -->
      <g transform="translate(120.619568 322.182437)scale(0.1 -0.1)">
       <use xlink:href="#DejaVuSans-32"/>
       <use x="63.623047" xlink:href="#DejaVuSans-35"/>
       <use x="127.246094" xlink:href="#DejaVuSans-2e"/>
       <use x="159.033203" xlink:href="#DejaVuSans-30"/>
      </g>
     </g>
    </g>
    <g id="xtick_7">
     <g id="line2d_7">
      <g>
       <use style="stroke:#000000;stroke-width:0.8;" x="145.107154" xlink:href="#ma7b4a12d9a" y="307.584"/>
      </g>
     </g>
     <g id="text_7">
      <!-- 30.0 -->
      <defs>
       <path d="M 40.578125 39.3125 
Q 47.65625 37.796875 51.625 33 
Q 55.609375 28.21875 55.609375 21.1875 
Q 55.609375 10.40625 48.1875 4.484375 
Q 40.765625 -1.421875 27.09375 -1.421875 
Q 22.515625 -1.421875 17.65625 -0.515625 
Q 12.796875 0.390625 7.625 2.203125 
L 7.625 11.71875 
Q 11.71875 9.328125 16.59375 8.109375 
Q 21.484375 6.890625 26.8125 6.890625 
Q 36.078125 6.890625 40.9375 10.546875 
Q 45.796875 14.203125 45.796875 21.1875 
Q 45.796875 27.640625 41.28125 31.265625 
Q 36.765625 34.90625 28.71875 34.90625 
L 20.21875 34.90625 
L 20.21875 43.015625 
L 29.109375 43.015625 
Q 36.375 43.015625 40.234375 45.921875 
Q 44.09375 48.828125 44.09375 54.296875 
Q 44.09375 59.90625 40.109375 62.90625 
Q 36.140625 65.921875 28.71875 65.921875 
Q 24.65625 65.921875 20.015625 65.03125 
Q 15.375 64.15625 9.8125 62.3125 
L 9.8125 71.09375 
Q 15.4375 72.65625 20.34375 73.4375 
Q 25.25 74.21875 29.59375 74.21875 
Q 40.828125 74.21875 47.359375 69.109375 
Q 53.90625 64.015625 53.90625 55.328125 
Q 53.90625 49.265625 50.4375 45.09375 
Q 46.96875 40.921875 40.578125 39.3125 
z
" id="DejaVuSans-33"/>
      </defs>
      <g transform="translate(133.974341 322.182437)scale(0.1 -0.1)">
       <use xlink:href="#DejaVuSans-33"/>
       <use x="63.623047" xlink:href="#DejaVuSans-30"/>
       <use x="127.246094" xlink:href="#DejaVuSans-2e"/>
       <use x="159.033203" xlink:href="#DejaVuSans-30"/>
      </g>
     </g>
    </g>
    <g id="xtick_8">
     <g id="line2d_8">
      <g>
       <use style="stroke:#000000;stroke-width:0.8;" x="158.461927" xlink:href="#ma7b4a12d9a" y="307.584"/>
      </g>
     </g>
     <g id="text_8">
      <!-- 35.0 -->
      <g transform="translate(147.329115 322.182437)scale(0.1 -0.1)">
       <use xlink:href="#DejaVuSans-33"/>
       <use x="63.623047" xlink:href="#DejaVuSans-35"/>
       <use x="127.246094" xlink:href="#DejaVuSans-2e"/>
       <use x="159.033203" xlink:href="#DejaVuSans-30"/>
      </g>
     </g>
    </g>
    <g id="xtick_9">
     <g id="line2d_9">
      <g>
       <use style="stroke:#000000;stroke-width:0.8;" x="171.816701" xlink:href="#ma7b4a12d9a" y="307.584"/>
      </g>
     </g>
     <g id="text_9">
      <!-- 40.0 -->
      <defs>
       <path d="M 37.796875 64.3125 
L 12.890625 25.390625 
L 37.796875 25.390625 
z
M 35.203125 72.90625 
L 47.609375 72.90625 
L 47.609375 25.390625 
L 58.015625 25.390625 
L 58.015625 17.1875 
L 47.609375 17.1875 
L 47.609375 0 
L 37.796875 0 
L 37.796875 17.1875 
L 4.890625 17.1875 
L 4.890625 26.703125 
z
" id="DejaVuSans-34"/>
      </defs>
      <g transform="translate(160.683888 322.182437)scale(0.1 -0.1)">
       <use xlink:href="#DejaVuSans-34"/>
       <use x="63.623047" xlink:href="#DejaVuSans-30"/>
       <use x="127.246094" xlink:href="#DejaVuSans-2e"/>
       <use x="159.033203" xlink:href="#DejaVuSans-30"/>
      </g>
     </g>
    </g>
    <g id="xtick_10">
     <g id="line2d_10">
      <g>
       <use style="stroke:#000000;stroke-width:0.8;" x="185.171475" xlink:href="#ma7b4a12d9a" y="307.584"/>
      </g>
     </g>
     <g id="text_10">
      <!-- 45.0 -->
      <g transform="translate(174.038662 322.182437)scale(0.1 -0.1)">
       <use xlink:href="#DejaVuSans-34"/>
       <use x="63.623047" xlink:href="#DejaVuSans-35"/>
       <use x="127.246094" xlink:href="#DejaVuSans-2e"/>
       <use x="159.033203" xlink:href="#DejaVuSans-30"/>
      </g>
     </g>
    </g>
    <g id="xtick_11">
     <g id="line2d_11">
      <g>
       <use style="stroke:#000000;stroke-width:0.8;" x="198.526248" xlink:href="#ma7b4a12d9a" y="307.584"/>
      </g>
     </g>
     <g id="text_11">
      <!-- 50.0 -->
      <g transform="translate(187.393436 322.182437)scale(0.1 -0.1)">
       <use xlink:href="#DejaVuSans-35"/>
       <use x="63.623047" xlink:href="#DejaVuSans-30"/>
       <use x="127.246094" xlink:href="#DejaVuSans-2e"/>
       <use x="159.033203" xlink:href="#DejaVuSans-30"/>
      </g>
     </g>
    </g>
    <g id="xtick_12">
     <g id="line2d_12">
      <g>
       <use style="stroke:#000000;stroke-width:0.8;" x="211.881022" xlink:href="#ma7b4a12d9a" y="307.584"/>
      </g>
     </g>
     <g id="text_12">
      <!-- 55.0 -->
      <g transform="translate(200.748209 322.182437)scale(0.1 -0.1)">
       <use xlink:href="#DejaVuSans-35"/>
       <use x="63.623047" xlink:href="#DejaVuSans-35"/>
       <use x="127.246094" xlink:href="#DejaVuSans-2e"/>
       <use x="159.033203" xlink:href="#DejaVuSans-30"/>
      </g>
     </g>
    </g>
    <g id="text_13">
     <!-- Minutes -->
     <defs>
      <path d="M 9.8125 72.90625 
L 24.515625 72.90625 
L 43.109375 23.296875 
L 61.8125 72.90625 
L 76.515625 72.90625 
L 76.515625 0 
L 66.890625 0 
L 66.890625 64.015625 
L 48.09375 14.015625 
L 38.1875 14.015625 
L 19.390625 64.015625 
L 19.390625 0 
L 9.8125 0 
z
" id="DejaVuSans-4d"/>
      <path d="M 9.421875 54.6875 
L 18.40625 54.6875 
L 18.40625 0 
L 9.421875 0 
z
M 9.421875 75.984375 
L 18.40625 75.984375 
L 18.40625 64.59375 
L 9.421875 64.59375 
z
" id="DejaVuSans-69"/>
      <path d="M 54.890625 33.015625 
L 54.890625 0 
L 45.90625 0 
L 45.90625 32.71875 
Q 45.90625 40.484375 42.875 44.328125 
Q 39.84375 48.1875 33.796875 48.1875 
Q 26.515625 48.1875 22.3125 43.546875 
Q 18.109375 38.921875 18.109375 30.90625 
L 18.109375 0 
L 9.078125 0 
L 9.078125 54.6875 
L 18.109375 54.6875 
L 18.109375 46.1875 
Q 21.34375 51.125 25.703125 53.5625 
Q 30.078125 56 35.796875 56 
Q 45.21875 56 50.046875 50.171875 
Q 54.890625 44.34375 54.890625 33.015625 
z
" id="DejaVuSans-6e"/>
      <path d="M 8.5 21.578125 
L 8.5 54.6875 
L 17.484375 54.6875 
L 17.484375 21.921875 
Q 17.484375 14.15625 20.5 10.265625 
Q 23.53125 6.390625 29.59375 6.390625 
Q 36.859375 6.390625 41.078125 11.03125 
Q 45.3125 15.671875 45.3125 23.6875 
L 45.3125 54.6875 
L 54.296875 54.6875 
L 54.296875 0 
L 45.3125 0 
L 45.3125 8.40625 
Q 42.046875 3.421875 37.71875 1 
Q 33.40625 -1.421875 27.6875 -1.421875 
Q 18.265625 -1.421875 13.375 4.4375 
Q 8.5 10.296875 8.5 21.578125 
z
M 31.109375 56 
z
" id="DejaVuSans-75"/>
      <path d="M 18.3125 70.21875 
L 18.3125 54.6875 
L 36.8125 54.6875 
L 36.8125 47.703125 
L 18.3125 47.703125 
L 18.3125 18.015625 
Q 18.3125 11.328125 20.140625 9.421875 
Q 21.96875 7.515625 27.59375 7.515625 
L 36.8125 7.515625 
L 36.8125 0 
L 27.59375 0 
Q 17.1875 0 13.234375 3.875 
Q 9.28125 7.765625 9.28125 18.015625 
L 9.28125 47.703125 
L 2.6875 47.703125 
L 2.6875 54.6875 
L 9.28125 54.6875 
L 9.28125 70.21875 
z
" id="DejaVuSans-74"/>
      <path d="M 56.203125 29.59375 
L 56.203125 25.203125 
L 14.890625 25.203125 
Q 15.484375 15.921875 20.484375 11.0625 
Q 25.484375 6.203125 34.421875 6.203125 
Q 39.59375 6.203125 44.453125 7.46875 
Q 49.3125 8.734375 54.109375 11.28125 
L 54.109375 2.78125 
Q 49.265625 0.734375 44.1875 -0.34375 
Q 39.109375 -1.421875 33.890625 -1.421875 
Q 20.796875 -1.421875 13.15625 6.1875 
Q 5.515625 13.8125 5.515625 26.8125 
Q 5.515625 40.234375 12.765625 48.109375 
Q 20.015625 56 32.328125 56 
Q 43.359375 56 49.78125 48.890625 
Q 56.203125 41.796875 56.203125 29.59375 
z
M 47.21875 32.234375 
Q 47.125 39.59375 43.09375 43.984375 
Q 39.0625 48.390625 32.421875 48.390625 
Q 24.90625 48.390625 20.390625 44.140625 
Q 15.875 39.890625 15.1875 32.171875 
z
" id="DejaVuSans-65"/>
      <path d="M 44.28125 53.078125 
L 44.28125 44.578125 
Q 40.484375 46.53125 36.375 47.5 
Q 32.28125 48.484375 27.875 48.484375 
Q 21.1875 48.484375 17.84375 46.4375 
Q 14.5 44.390625 14.5 40.28125 
Q 14.5 37.15625 16.890625 35.375 
Q 19.28125 33.59375 26.515625 31.984375 
L 29.59375 31.296875 
Q 39.15625 29.25 43.1875 25.515625 
Q 47.21875 21.78125 47.21875 15.09375 
Q 47.21875 7.46875 41.1875 3.015625 
Q 35.15625 -1.421875 24.609375 -1.421875 
Q 20.21875 -1.421875 15.453125 -0.5625 
Q 10.6875 0.296875 5.421875 2 
L 5.421875 11.28125 
Q 10.40625 8.6875 15.234375 7.390625 
Q 20.0625 6.109375 24.8125 6.109375 
Q 31.15625 6.109375 34.5625 8.28125 
Q 37.984375 10.453125 37.984375 14.40625 
Q 37.984375 18.0625 35.515625 20.015625 
Q 33.0625 21.96875 24.703125 23.78125 
L 21.578125 24.515625 
Q 13.234375 26.265625 9.515625 29.90625 
Q 5.8125 33.546875 5.8125 39.890625 
Q 5.8125 47.609375 11.28125 51.796875 
Q 16.75 56 26.8125 56 
Q 31.78125 56 36.171875 55.265625 
Q 40.578125 54.546875 44.28125 53.078125 
z
" id="DejaVuSans-73"/>
     </defs>
     <g transform="translate(119.081605 335.860562)scale(0.1 -0.1)">
      <use xlink:href="#DejaVuSans-4d"/>
      <use x="86.279297" xlink:href="#DejaVuSans-69"/>
      <use x="114.0625" xlink:href="#DejaVuSans-6e"/>
      <use x="177.441406" xlink:href="#DejaVuSans-75"/>
      <use x="240.820312" xlink:href="#DejaVuSans-74"/>
      <use x="280.029297" xlink:href="#DejaVuSans-65"/>
      <use x="341.552734" xlink:href="#DejaVuSans-73"/>
     </g>
    </g>
   </g>
   <g id="matplotlib.axis_2">
    <g id="ytick_1">
     <g id="line2d_13">
      <defs>
       <path d="M 0 0 
L -3.5 0 
" id="m2647ffbd67" style="stroke:#000000;stroke-width:0.8;"/>
      </defs>
      <g>
       <use style="stroke:#000000;stroke-width:0.8;" x="57.6" xlink:href="#m2647ffbd67" y="303.933607"/>
      </g>
     </g>
     <g id="text_14">
      <!-- 0.30 -->
      <g transform="translate(28.334375 307.732826)scale(0.1 -0.1)">
       <use xlink:href="#DejaVuSans-30"/>
       <use x="63.623047" xlink:href="#DejaVuSans-2e"/>
       <use x="95.410156" xlink:href="#DejaVuSans-33"/>
       <use x="159.033203" xlink:href="#DejaVuSans-30"/>
      </g>
     </g>
    </g>
    <g id="ytick_2">
     <g id="line2d_14">
      <g>
       <use style="stroke:#000000;stroke-width:0.8;" x="57.6" xlink:href="#m2647ffbd67" y="262.604885"/>
      </g>
     </g>
     <g id="text_15">
      <!-- 0.32 -->
      <g transform="translate(28.334375 266.404104)scale(0.1 -0.1)">
       <use xlink:href="#DejaVuSans-30"/>
       <use x="63.623047" xlink:href="#DejaVuSans-2e"/>
       <use x="95.410156" xlink:href="#DejaVuSans-33"/>
       <use x="159.033203" xlink:href="#DejaVuSans-32"/>
      </g>
     </g>
    </g>
    <g id="ytick_3">
     <g id="line2d_15">
      <g>
       <use style="stroke:#000000;stroke-width:0.8;" x="57.6" xlink:href="#m2647ffbd67" y="221.276164"/>
      </g>
     </g>
     <g id="text_16">
      <!-- 0.34 -->
      <g transform="translate(28.334375 225.075383)scale(0.1 -0.1)">
       <use xlink:href="#DejaVuSans-30"/>
       <use x="63.623047" xlink:href="#DejaVuSans-2e"/>
       <use x="95.410156" xlink:href="#DejaVuSans-33"/>
       <use x="159.033203" xlink:href="#DejaVuSans-34"/>
      </g>
     </g>
    </g>
    <g id="ytick_4">
     <g id="line2d_16">
      <g>
       <use style="stroke:#000000;stroke-width:0.8;" x="57.6" xlink:href="#m2647ffbd67" y="179.947443"/>
      </g>
     </g>
     <g id="text_17">
      <!-- 0.36 -->
      <defs>
       <path d="M 33.015625 40.375 
Q 26.375 40.375 22.484375 35.828125 
Q 18.609375 31.296875 18.609375 23.390625 
Q 18.609375 15.53125 22.484375 10.953125 
Q 26.375 6.390625 33.015625 6.390625 
Q 39.65625 6.390625 43.53125 10.953125 
Q 47.40625 15.53125 47.40625 23.390625 
Q 47.40625 31.296875 43.53125 35.828125 
Q 39.65625 40.375 33.015625 40.375 
z
M 52.59375 71.296875 
L 52.59375 62.3125 
Q 48.875 64.0625 45.09375 64.984375 
Q 41.3125 65.921875 37.59375 65.921875 
Q 27.828125 65.921875 22.671875 59.328125 
Q 17.53125 52.734375 16.796875 39.40625 
Q 19.671875 43.65625 24.015625 45.921875 
Q 28.375 48.1875 33.59375 48.1875 
Q 44.578125 48.1875 50.953125 41.515625 
Q 57.328125 34.859375 57.328125 23.390625 
Q 57.328125 12.15625 50.6875 5.359375 
Q 44.046875 -1.421875 33.015625 -1.421875 
Q 20.359375 -1.421875 13.671875 8.265625 
Q 6.984375 17.96875 6.984375 36.375 
Q 6.984375 53.65625 15.1875 63.9375 
Q 23.390625 74.21875 37.203125 74.21875 
Q 40.921875 74.21875 44.703125 73.484375 
Q 48.484375 72.75 52.59375 71.296875 
z
" id="DejaVuSans-36"/>
      </defs>
      <g transform="translate(28.334375 183.746661)scale(0.1 -0.1)">
       <use xlink:href="#DejaVuSans-30"/>
       <use x="63.623047" xlink:href="#DejaVuSans-2e"/>
       <use x="95.410156" xlink:href="#DejaVuSans-33"/>
       <use x="159.033203" xlink:href="#DejaVuSans-36"/>
      </g>
     </g>
    </g>
    <g id="ytick_5">
     <g id="line2d_17">
      <g>
       <use style="stroke:#000000;stroke-width:0.8;" x="57.6" xlink:href="#m2647ffbd67" y="138.618721"/>
      </g>
     </g>
     <g id="text_18">
      <!-- 0.38 -->
      <defs>
       <path d="M 31.78125 34.625 
Q 24.75 34.625 20.71875 30.859375 
Q 16.703125 27.09375 16.703125 20.515625 
Q 16.703125 13.921875 20.71875 10.15625 
Q 24.75 6.390625 31.78125 6.390625 
Q 38.8125 6.390625 42.859375 10.171875 
Q 46.921875 13.96875 46.921875 20.515625 
Q 46.921875 27.09375 42.890625 30.859375 
Q 38.875 34.625 31.78125 34.625 
z
M 21.921875 38.8125 
Q 15.578125 40.375 12.03125 44.71875 
Q 8.5 49.078125 8.5 55.328125 
Q 8.5 64.0625 14.71875 69.140625 
Q 20.953125 74.21875 31.78125 74.21875 
Q 42.671875 74.21875 48.875 69.140625 
Q 55.078125 64.0625 55.078125 55.328125 
Q 55.078125 49.078125 51.53125 44.71875 
Q 48 40.375 41.703125 38.8125 
Q 48.828125 37.15625 52.796875 32.3125 
Q 56.78125 27.484375 56.78125 20.515625 
Q 56.78125 9.90625 50.3125 4.234375 
Q 43.84375 -1.421875 31.78125 -1.421875 
Q 19.734375 -1.421875 13.25 4.234375 
Q 6.78125 9.90625 6.78125 20.515625 
Q 6.78125 27.484375 10.78125 32.3125 
Q 14.796875 37.15625 21.921875 38.8125 
z
M 18.3125 54.390625 
Q 18.3125 48.734375 21.84375 45.5625 
Q 25.390625 42.390625 31.78125 42.390625 
Q 38.140625 42.390625 41.71875 45.5625 
Q 45.3125 48.734375 45.3125 54.390625 
Q 45.3125 60.0625 41.71875 63.234375 
Q 38.140625 66.40625 31.78125 66.40625 
Q 25.390625 66.40625 21.84375 63.234375 
Q 18.3125 60.0625 18.3125 54.390625 
z
" id="DejaVuSans-38"/>
      </defs>
      <g transform="translate(28.334375 142.41794)scale(0.1 -0.1)">
       <use xlink:href="#DejaVuSans-30"/>
       <use x="63.623047" xlink:href="#DejaVuSans-2e"/>
       <use x="95.410156" xlink:href="#DejaVuSans-33"/>
       <use x="159.033203" xlink:href="#DejaVuSans-38"/>
      </g>
     </g>
    </g>
    <g id="ytick_6">
     <g id="line2d_18">
      <g>
       <use style="stroke:#000000;stroke-width:0.8;" x="57.6" xlink:href="#m2647ffbd67" y="97.29"/>
      </g>
     </g>
     <g id="text_19">
      <!-- 0.40 -->
      <g transform="translate(28.334375 101.089219)scale(0.1 -0.1)">
       <use xlink:href="#DejaVuSans-30"/>
       <use x="63.623047" xlink:href="#DejaVuSans-2e"/>
       <use x="95.410156" xlink:href="#DejaVuSans-34"/>
       <use x="159.033203" xlink:href="#DejaVuSans-30"/>
      </g>
     </g>
    </g>
    <g id="ytick_7">
     <g id="line2d_19">
      <g>
       <use style="stroke:#000000;stroke-width:0.8;" x="57.6" xlink:href="#m2647ffbd67" y="55.961278"/>
      </g>
     </g>
     <g id="text_20">
      <!-- 0.42 -->
      <g transform="translate(28.334375 59.760497)scale(0.1 -0.1)">
       <use xlink:href="#DejaVuSans-30"/>
       <use x="63.623047" xlink:href="#DejaVuSans-2e"/>
       <use x="95.410156" xlink:href="#DejaVuSans-34"/>
       <use x="159.033203" xlink:href="#DejaVuSans-32"/>
      </g>
     </g>
    </g>
   </g>
   <g id="line2d_20">
    <path clip-path="url(#p3364dd2370)" d="M 64.978512 90.74858 
L 65.201092 135.177527 
L 65.423672 145.217278 
L 65.646251 150.73849 
L 65.868831 135.064672 
L 66.09141 136.531786 
L 66.31399 150.373881 
L 66.536569 126.882687 
L 66.759149 142.625954 
L 66.981728 135.290382 
L 67.204308 120.111389 
L 67.426888 124.512733 
L 67.649467 120.901374 
L 67.872047 110.518718 
L 68.094626 107.810198 
L 68.317206 96.919695 
L 68.539785 115.540763 
L 68.762365 125.92342 
L 68.984944 114.130076 
L 69.207524 101.546748 
L 69.430104 118.418565 
L 69.652683 106.286656 
L 69.875263 131.96116 
L 70.097842 110.46229 
L 70.320422 116.838595 
L 70.543001 113.960794 
L 70.765581 100.700336 
L 70.988161 117.62858 
L 71.21074 113.847939 
L 71.43332 116.274321 
L 71.655899 122.707053 
L 71.878479 104.085985 
L 72.101058 94.041893 
L 72.323638 100.587481 
L 72.546217 89.64055 
L 72.768797 112.606534 
L 72.991377 97.822534 
L 73.213956 102.449588 
L 73.436536 107.697344 
L 73.659115 128.067664 
L 73.881695 124.061313 
L 74.104274 99.853924 
L 74.326854 98.320122 
L 74.549433 123.892031 
L 74.772013 107.866626 
L 74.994593 129.986198 
L 75.217172 122.932763 
L 75.439752 129.478351 
L 75.662331 110.46229 
L 75.884911 111.59084 
L 76.10749 108.825893 
L 76.33007 103.52171 
L 76.552649 99.007511 
L 76.775229 117.967145 
L 76.997809 114.186504 
L 77.220388 138.958168 
L 77.442968 123.835603 
L 77.665547 109.615878 
L 77.888127 88.96342 
L 78.110706 101.772458 
L 78.333286 122.594198 
L 78.555866 107.076641 
L 78.778445 109.220885 
L 79.001025 106.117374 
L 79.223604 118.644275 
L 79.446184 86.762748 
L 79.668763 102.61887 
L 79.891343 108.825893 
L 80.113922 98.838229 
L 80.336502 73.840855 
L 80.559082 87.855389 
L 80.781661 96.750412 
L 81.004241 87.855389 
L 81.22682 89.584122 
L 81.4494 90.881954 
L 81.671979 97.314687 
L 81.894559 97.991817 
L 82.117138 96.863267 
L 82.339718 89.64055 
L 82.562298 114.299359 
L 82.784877 115.258626 
L 83.007457 100.813191 
L 83.230036 80.714748 
L 83.452616 94.154748 
L 83.675195 85.408489 
L 83.897775 85.762443 
L 84.120355 102.84458 
L 84.342934 107.471634 
L 84.565514 89.809832 
L 84.788093 117.797863 
L 85.010673 126.487695 
L 85.233252 104.593832 
L 85.455832 89.076275 
L 85.678411 81.330321 
L 85.900991 64.09429 
L 86.123571 84.839084 
L 86.34615 91.559084 
L 86.56873 72.543023 
L 86.791309 85.885557 
L 87.013889 87.439878 
L 87.236468 100.587481 
L 87.459048 104.19884 
L 87.681627 94.944733 
L 87.904207 107.866626 
L 88.126787 87.855389 
L 88.349366 75.790168 
L 88.571946 53.568 
L 88.794525 70.557802 
L 89.017105 83.602809 
L 89.239684 82.643542 
L 89.462264 87.855389 
L 89.684843 103.690992 
L 89.907423 118.644275 
L 90.130003 119.095695 
L 90.352582 99.741069 
L 90.575162 90.261252 
L 90.797741 110.293008 
L 91.020321 118.192855 
L 91.2429 113.001527 
L 91.46548 108.092336 
L 91.68806 82.530687 
" style="fill:none;stroke:#0000ff;stroke-linecap:square;stroke-width:1.5;"/>
   </g>
   <g id="line2d_21">
    <path clip-path="url(#p3364dd2370)" d="M 91.910639 170.583601 
L 92.133219 210.411481 
L 92.355798 234.933252 
L 92.578378 237.835237 
L 93.023537 177.146551 
L 93.246116 221.874321 
L 93.468696 221.584122 
L 93.691276 216.070351 
L 93.913855 177.198638 
L 94.136435 198.803542 
L 94.359014 189.855756 
L 94.581594 212.974901 
L 94.804173 193.137231 
L 95.026753 198.464977 
L 95.249332 188.709844 
L 95.694492 152.457358 
L 96.139651 182.094807 
L 96.36223 170.114819 
L 96.58481 183.344893 
L 96.807389 155.895093 
L 97.029969 167.614647 
L 97.252549 188.709844 
L 97.475128 174.750553 
L 97.697708 175.219335 
L 97.920287 160.895436 
L 98.365446 221.922687 
L 98.588026 188.501496 
L 98.810605 179.438375 
L 99.033185 180.063417 
L 99.255765 176.261073 
L 99.478344 163.656042 
L 99.700924 184.542891 
L 99.923503 159.892763 
L 100.146083 177.250725 
L 100.368662 170.739861 
L 100.591242 135.911084 
L 100.813821 127.898382 
L 101.036401 151.051011 
L 101.258981 149.735817 
L 101.48156 156.936831 
L 101.70414 131.73545 
L 101.926719 182.146894 
L 102.149299 194.450565 
L 102.371878 174.542206 
L 102.594458 174.021336 
L 102.817038 147.817282 
L 103.484776 186.834715 
L 103.707356 173.344207 
L 103.929935 130.211908 
L 104.375094 119.20855 
L 104.597674 126.995542 
L 104.820254 126.995542 
L 105.042833 115.597191 
L 105.487992 118.700702 
L 105.710572 138.185546 
L 105.933151 187.980627 
L 106.155731 190.79332 
L 106.37831 157.874396 
L 106.60089 175.688117 
L 106.82347 135.633287 
L 107.491208 204.752611 
L 107.713788 169.333515 
L 107.936367 171.26073 
L 108.158947 178.813332 
L 108.381526 166.989604 
L 108.604106 183.813675 
L 109.049265 168.864733 
L 109.494424 178.34455 
L 109.717004 193.241405 
L 109.939583 172.61499 
L 110.162163 184.022022 
L 110.384743 162.718478 
L 110.829902 156.62431 
L 111.052481 163.708129 
L 111.275061 156.832658 
L 111.49764 160.218307 
L 111.72022 155.999267 
L 111.942799 198.803542 
L 112.165379 176.261073 
L 112.387959 142.404585 
L 112.833118 177.250725 
L 113.055697 172.667077 
L 113.278277 197.095836 
L 113.500856 195.064446 
L 113.723436 131.904733 
L 113.946015 123.553466 
L 114.168595 124.174168 
L 114.613754 130.945466 
L 114.836334 126.14913 
L 115.058913 152.509445 
L 115.281493 131.622595 
L 115.504072 129.816916 
L 115.726652 161.624653 
L 116.171811 122.481344 
L 116.394391 147.19658 
L 116.61697 152.978227 
L 117.062129 136.813924 
L 117.284709 117.685008 
L 117.507288 132.920427 
L 117.729868 157.718135 
L 117.952448 136.136794 
L 118.175027 132.039291 
L 118.397607 140.48171 
L 118.620186 137.039634 
L 118.842766 145.738147 
L 119.065345 141.835969 
L 119.287925 132.525435 
L 119.510504 140.164848 
L 119.733084 137.378198 
L 119.955664 116.048611 
L 120.178243 118.926412 
L 120.400823 89.584122 
L 120.623402 107.810198 
L 120.845982 148.394579 
L 121.068561 115.935756 
L 121.291141 107.697344 
L 121.513721 109.954443 
L 121.7363 124.004885 
L 121.95888 128.744794 
L 122.181459 128.857649 
L 122.404039 124.56916 
L 122.626618 126.882687 
L 122.849198 127.390534 
L 123.294357 88.512 
L 123.516937 130.889038 
L 123.739516 148.09942 
L 124.184675 113.452947 
L 124.407255 120.167817 
L 124.629834 117.40287 
L 124.852414 131.50974 
L 125.074993 130.099053 
L 125.297573 154.43666 
L 125.520153 119.603542 
L 125.742732 142.400244 
L 126.187891 219.842931 
L 126.63305 178.657071 
L 126.85563 184.334544 
L 127.078209 196.418706 
L 127.300789 192.177344 
L 127.745948 204.414046 
L 127.968528 197.772965 
L 128.191107 181.417677 
L 128.413687 181.053069 
L 128.636266 225.018137 
L 128.858846 201.314875 
L 129.081426 198.078046 
L 129.304005 198.137574 
L 129.526585 206.784 
L 130.194323 169.125167 
L 130.416903 173.187946 
L 130.639482 220.13313 
L 130.862062 203.833649 
L 131.084642 210.218015 
L 131.529801 161.155871 
L 131.75238 189.386974 
L 131.97496 179.750896 
L 132.197539 187.92854 
L 132.420119 191.314189 
L 132.642698 189.699495 
L 132.865278 194.547298 
L 133.087858 186.365933 
L 133.310437 193.866447 
L 133.533017 163.18726 
L 133.755596 203.882015 
L 133.978176 180.063417 
L 134.200755 188.761931 
L 134.423335 192.824709 
L 134.645915 182.928197 
L 134.868494 195.689489 
L 135.313653 185.115847 
L 135.758812 169.281428 
L 135.981392 173.448381 
L 136.203971 173.135859 
L 136.426551 164.645693 
L 136.649131 171.989947 
L 136.87171 161.364218 
L 137.09429 167.302126 
L 137.539449 149.123796 
L 137.984608 167.718821 
L 138.207187 159.280742 
L 138.429767 166.989604 
L 138.652347 153.655356 
L 138.874926 151.832315 
L 139.097506 157.666048 
L 139.320085 150.998924 
L 139.542665 151.936489 
L 139.765244 168.968907 
L 139.987824 175.896465 
L 140.210404 159.437003 
L 140.655563 154.957529 
L 140.878142 154.592921 
L 141.100722 158.343178 
L 141.323301 141.271695 
L 141.545881 141.154499 
L 141.76846 159.749524 
L 142.21362 149.227969 
L 142.436199 158.343178 
L 142.658779 161.728827 
L 142.881358 185.74089 
L 143.103938 192.951206 
L 143.326517 179.073766 
L 143.549097 178.709158 
L 143.771676 168.291777 
L 143.994256 148.967535 
L 144.216836 160.895436 
L 144.439415 148.863361 
L 144.661995 152.092749 
L 144.884574 149.115115 
L 145.107154 140.737804 
L 145.552313 157.579237 
L 145.997472 247.547212 
L 146.220052 276.212373 
L 146.442631 262.940629 
L 146.665211 259.284128 
L 146.88779 267.183976 
L 147.11037 265.01716 
L 147.332949 254.453936 
L 147.555529 257.162455 
L 147.778109 248.959511 
L 148.000688 247.411786 
L 148.223268 261.270376 
L 148.668427 264.204605 
L 148.891006 281.132849 
L 149.113586 263.933753 
L 149.336165 259.284128 
L 149.558745 268.628519 
L 149.781325 295.488 
L 150.003904 289.80011 
L 150.449063 228.258687 
L 150.671643 244.751634 
L 150.894222 250.255731 
L 151.116802 226.662595 
L 151.339381 249.733374 
L 151.561961 255.040782 
L 152.00712 209.927817 
L 152.2297 201.221863 
L 152.452279 230.483542 
L 152.674859 241.124153 
L 152.897438 239.576427 
L 153.120018 268.131957 
L 153.342598 249.92684 
L 153.565177 201.560427 
L 154.010336 188.397322 
L 154.232916 186.001325 
L 154.455495 236.045679 
L 154.678075 253.18996 
L 154.900654 255.717911 
L 155.345814 226.759328 
L 155.568393 248.946614 
L 155.790973 249.539908 
L 156.013552 232.80513 
L 156.236132 246.541191 
L 156.681291 257.297881 
L 156.90387 255.898479 
L 157.12645 249.984879 
L 157.34903 269.531359 
L 157.571609 272.330162 
L 158.016768 231.644336 
L 158.239348 221.426931 
L 158.239348 221.426931 
" style="fill:none;stroke:#ff0000;stroke-linecap:square;stroke-width:1.5;"/>
   </g>
   <g id="line2d_22">
    <path clip-path="url(#p3364dd2370)" d="M 158.461927 278.65004 
L 158.684507 267.725679 
L 158.907086 261.450944 
L 159.129666 256.530467 
L 159.352246 256.620751 
L 159.574825 247.140934 
L 159.797405 242.865344 
L 160.019984 261.044666 
L 160.242564 257.375267 
L 160.465143 241.58847 
L 160.687723 234.449588 
L 161.355462 243.484434 
L 161.578041 222.55145 
L 161.800621 214.184061 
L 162.0232 220.616794 
L 162.24578 216.263817 
L 162.468359 218.488672 
L 162.690939 224.389374 
L 162.913519 212.201038 
L 163.136098 232.950229 
L 163.358678 230.628641 
L 163.581257 207.944794 
L 163.803837 204.365679 
L 164.026416 216.554015 
L 164.248996 205.57484 
L 164.471575 231.499237 
L 164.694155 240.640489 
L 164.916735 228.984183 
L 165.139314 224.099176 
L 165.361894 226.517496 
L 165.584473 212.44287 
L 165.807053 212.926534 
L 166.029632 238.028702 
L 166.252212 229.467847 
L 166.474792 228.597252 
L 166.697371 207.606229 
L 166.919951 204.268947 
L 167.14253 196.210358 
L 167.36511 220.568427 
L 167.587689 212.394504 
L 167.810269 212.926534 
L 168.032848 205.742262 
L 168.255428 206.832366 
L 168.478008 194.015267 
L 168.700587 197.408357 
L 168.923167 184.126196 
L 169.368326 195.16862 
L 169.813485 179.073766 
L 170.036064 177.198638 
L 170.258644 193.137231 
L 170.481224 190.012016 
L 170.703803 182.355241 
L 170.926383 194.283143 
L 171.148962 186.574281 
L 171.371542 185.792977 
L 171.594121 187.824366 
L 171.816701 179.594635 
L 172.26186 213.506931 
L 172.707019 197.252096 
L 173.152178 223.954076 
L 173.374758 208.034086 
L 173.819917 201.512061 
L 174.042497 200.533571 
L 174.265076 203.833649 
L 174.487656 191.418363 
L 174.710235 198.271511 
L 174.932815 194.908186 
L 175.155394 194.022708 
L 175.377974 190.79332 
L 175.600553 176.625682 
L 175.823133 176.834029 
L 176.045713 192.876796 
L 176.490872 166.989604 
L 176.713451 164.281085 
L 176.936031 184.490804 
L 177.15861 161.780914 
L 177.38119 180.063417 
L 177.603769 158.082743 
L 177.826349 150.998924 
L 178.048929 187.980627 
L 178.271508 174.12551 
L 178.494088 176.365247 
L 178.716667 181.313503 
L 178.939247 169.281428 
L 179.384406 164.69778 
L 179.606986 176.417334 
L 179.829565 174.229684 
L 180.052145 153.75953 
L 180.274724 160.478741 
L 180.497304 160.32248 
L 180.719883 137.942473 
L 180.942463 179.125853 
L 181.610202 154.019965 
L 181.832781 175.375596 
L 182.055361 178.188289 
L 182.50052 164.645693 
L 182.723099 144.093069 
L 182.945679 167.510473 
L 183.168258 144.644322 
L 183.390838 148.437985 
L 183.613418 169.698123 
L 183.835997 154.645008 
L 184.058577 158.030656 
L 184.281156 143.923786 
L 184.503736 171.052383 
L 184.726315 150.582229 
L 184.948895 165.999953 
L 185.171475 163.86439 
L 185.616634 147.19658 
L 185.839213 152.821966 
L 186.061793 181.261416 
L 186.284372 141.892397 
L 186.506952 151.467706 
L 186.729531 148.602927 
L 186.952111 148.268702 
L 187.174691 134.279028 
L 187.39727 172.979598 
L 187.61985 163.603955 
L 187.842429 140.594565 
L 188.065009 165.426997 
L 188.287588 131.001893 
L 188.510168 128.914076 
L 188.955327 182.563589 
L 189.177907 175.688117 
L 189.400486 122.312061 
L 189.623066 160.843349 
L 189.845645 149.488404 
L 190.068225 122.819908 
L 190.290804 146.74516 
L 190.513384 149.227969 
L 190.735964 155.374224 
L 190.958543 167.145865 
L 191.181123 146.831972 
L 191.403702 160.582915 
L 191.626282 125.92342 
L 191.848861 144.318779 
L 192.071441 144.696409 
L 192.29402 138.958168 
L 192.5166 123.722748 
L 193.184339 165.479084 
L 193.629498 129.647634 
L 193.852077 164.749867 
L 194.074657 115.822901 
L 194.297236 134.274687 
L 194.519816 169.906471 
L 194.742396 139.279371 
L 194.964975 141.666687 
L 195.187555 164.437346 
L 195.410134 129.309069 
L 195.632714 158.707786 
L 195.855293 158.082743 
L 196.077873 150.530142 
L 196.300452 137.886046 
L 196.523032 116.048611 
L 196.745612 127.108397 
L 196.968191 148.155847 
L 197.190771 143.394236 
L 197.41335 135.572519 
L 197.63593 146.571537 
L 197.858509 118.474992 
L 198.303669 144.995908 
L 198.526248 94.436885 
L 198.971407 140.946151 
L 199.193987 120.393527 
L 199.639146 110.631573 
L 199.861725 119.43426 
L 200.306885 153.065038 
L 200.529464 162.562217 
L 200.752044 117.685008 
L 200.974623 130.663328 
L 201.197203 114.242931 
L 201.419782 108.995176 
L 201.642362 117.685008 
L 201.864941 108.825893 
L 202.087521 163.343521 
L 202.310101 136.049982 
L 202.53268 140.763847 
L 202.75526 178.188289 
L 202.977839 161.312132 
L 203.200419 173.552554 
L 203.422998 179.594635 
L 203.645578 155.11379 
L 203.868158 177.094464 
L 204.313317 136.926779 
L 204.535896 126.036275 
L 204.758476 148.55084 
L 205.203635 160.791262 
L 205.648794 127.785527 
L 205.871374 137.265344 
L 206.093953 126.318412 
L 206.316533 131.058321 
L 206.539112 126.431267 
L 206.761692 114.637924 
L 206.984271 152.444336 
L 207.206851 102.280305 
L 207.42943 146.51945 
L 207.65201 112.04226 
L 207.87459 126.882687 
L 208.097169 133.653985 
L 208.542328 161.937174 
L 208.764908 153.0824 
L 208.987487 181.209329 
L 209.210067 182.355241 
L 209.655226 133.879695 
L 209.877806 181.886459 
L 210.100385 174.594292 
L 210.322965 163.239347 
L 210.545544 132.864 
L 210.768124 119.885679 
L 210.990703 156.958534 
L 211.213283 139.12745 
L 211.435863 147.717449 
L 211.658442 137.977198 
L 211.881022 116.443603 
L 212.103601 122.199206 
L 212.326181 106.286656 
L 212.54876 102.506015 
L 212.54876 102.506015 
" style="fill:none;stroke:#000000;stroke-linecap:square;stroke-width:1.5;"/>
   </g>
   <g id="patch_3">
    <path d="M 57.6 307.584 
L 57.6 41.472 
" style="fill:none;stroke:#000000;stroke-linecap:square;stroke-linejoin:miter;stroke-width:0.8;"/>
   </g>
   <g id="patch_4">
    <path d="M 219.927273 307.584 
L 219.927273 41.472 
" style="fill:none;stroke:#000000;stroke-linecap:square;stroke-linejoin:miter;stroke-width:0.8;"/>
   </g>
   <g id="patch_5">
    <path d="M 57.6 307.584 
L 219.927273 307.584 
" style="fill:none;stroke:#000000;stroke-linecap:square;stroke-linejoin:miter;stroke-width:0.8;"/>
   </g>
   <g id="patch_6">
    <path d="M 57.6 41.472 
L 219.927273 41.472 
" style="fill:none;stroke:#000000;stroke-linecap:square;stroke-linejoin:miter;stroke-width:0.8;"/>
   </g>
   <g id="text_21">
    <!-- IBI - Reg vs Stress -->
    <defs>
     <path d="M 9.8125 72.90625 
L 19.671875 72.90625 
L 19.671875 0 
L 9.8125 0 
z
" id="DejaVuSans-49"/>
     <path d="M 19.671875 34.8125 
L 19.671875 8.109375 
L 35.5 8.109375 
Q 43.453125 8.109375 47.28125 11.40625 
Q 51.125 14.703125 51.125 21.484375 
Q 51.125 28.328125 47.28125 31.5625 
Q 43.453125 34.8125 35.5 34.8125 
z
M 19.671875 64.796875 
L 19.671875 42.828125 
L 34.28125 42.828125 
Q 41.5 42.828125 45.03125 45.53125 
Q 48.578125 48.25 48.578125 53.8125 
Q 48.578125 59.328125 45.03125 62.0625 
Q 41.5 64.796875 34.28125 64.796875 
z
M 9.8125 72.90625 
L 35.015625 72.90625 
Q 46.296875 72.90625 52.390625 68.21875 
Q 58.5 63.53125 58.5 54.890625 
Q 58.5 48.1875 55.375 44.234375 
Q 52.25 40.28125 46.1875 39.3125 
Q 53.46875 37.75 57.5 32.78125 
Q 61.53125 27.828125 61.53125 20.40625 
Q 61.53125 10.640625 54.890625 5.3125 
Q 48.25 0 35.984375 0 
L 9.8125 0 
z
" id="DejaVuSans-42"/>
     <path id="DejaVuSans-20"/>
     <path d="M 4.890625 31.390625 
L 31.203125 31.390625 
L 31.203125 23.390625 
L 4.890625 23.390625 
z
" id="DejaVuSans-2d"/>
     <path d="M 44.390625 34.1875 
Q 47.5625 33.109375 50.5625 29.59375 
Q 53.5625 26.078125 56.59375 19.921875 
L 66.609375 0 
L 56 0 
L 46.6875 18.703125 
Q 43.0625 26.03125 39.671875 28.421875 
Q 36.28125 30.8125 30.421875 30.8125 
L 19.671875 30.8125 
L 19.671875 0 
L 9.8125 0 
L 9.8125 72.90625 
L 32.078125 72.90625 
Q 44.578125 72.90625 50.734375 67.671875 
Q 56.890625 62.453125 56.890625 51.90625 
Q 56.890625 45.015625 53.6875 40.46875 
Q 50.484375 35.9375 44.390625 34.1875 
z
M 19.671875 64.796875 
L 19.671875 38.921875 
L 32.078125 38.921875 
Q 39.203125 38.921875 42.84375 42.21875 
Q 46.484375 45.515625 46.484375 51.90625 
Q 46.484375 58.296875 42.84375 61.546875 
Q 39.203125 64.796875 32.078125 64.796875 
z
" id="DejaVuSans-52"/>
     <path d="M 45.40625 27.984375 
Q 45.40625 37.75 41.375 43.109375 
Q 37.359375 48.484375 30.078125 48.484375 
Q 22.859375 48.484375 18.828125 43.109375 
Q 14.796875 37.75 14.796875 27.984375 
Q 14.796875 18.265625 18.828125 12.890625 
Q 22.859375 7.515625 30.078125 7.515625 
Q 37.359375 7.515625 41.375 12.890625 
Q 45.40625 18.265625 45.40625 27.984375 
z
M 54.390625 6.78125 
Q 54.390625 -7.171875 48.1875 -13.984375 
Q 42 -20.796875 29.203125 -20.796875 
Q 24.46875 -20.796875 20.265625 -20.09375 
Q 16.0625 -19.390625 12.109375 -17.921875 
L 12.109375 -9.1875 
Q 16.0625 -11.328125 19.921875 -12.34375 
Q 23.78125 -13.375 27.78125 -13.375 
Q 36.625 -13.375 41.015625 -8.765625 
Q 45.40625 -4.15625 45.40625 5.171875 
L 45.40625 9.625 
Q 42.625 4.78125 38.28125 2.390625 
Q 33.9375 0 27.875 0 
Q 17.828125 0 11.671875 7.65625 
Q 5.515625 15.328125 5.515625 27.984375 
Q 5.515625 40.671875 11.671875 48.328125 
Q 17.828125 56 27.875 56 
Q 33.9375 56 38.28125 53.609375 
Q 42.625 51.21875 45.40625 46.390625 
L 45.40625 54.6875 
L 54.390625 54.6875 
z
" id="DejaVuSans-67"/>
     <path d="M 2.984375 54.6875 
L 12.5 54.6875 
L 29.59375 8.796875 
L 46.6875 54.6875 
L 56.203125 54.6875 
L 35.6875 0 
L 23.484375 0 
z
" id="DejaVuSans-76"/>
     <path d="M 53.515625 70.515625 
L 53.515625 60.890625 
Q 47.90625 63.578125 42.921875 64.890625 
Q 37.9375 66.21875 33.296875 66.21875 
Q 25.25 66.21875 20.875 63.09375 
Q 16.5 59.96875 16.5 54.203125 
Q 16.5 49.359375 19.40625 46.890625 
Q 22.3125 44.4375 30.421875 42.921875 
L 36.375 41.703125 
Q 47.40625 39.59375 52.65625 34.296875 
Q 57.90625 29 57.90625 20.125 
Q 57.90625 9.515625 50.796875 4.046875 
Q 43.703125 -1.421875 29.984375 -1.421875 
Q 24.8125 -1.421875 18.96875 -0.25 
Q 13.140625 0.921875 6.890625 3.21875 
L 6.890625 13.375 
Q 12.890625 10.015625 18.65625 8.296875 
Q 24.421875 6.59375 29.984375 6.59375 
Q 38.421875 6.59375 43.015625 9.90625 
Q 47.609375 13.234375 47.609375 19.390625 
Q 47.609375 24.75 44.3125 27.78125 
Q 41.015625 30.8125 33.5 32.328125 
L 27.484375 33.5 
Q 16.453125 35.6875 11.515625 40.375 
Q 6.59375 45.0625 6.59375 53.421875 
Q 6.59375 63.09375 13.40625 68.65625 
Q 20.21875 74.21875 32.171875 74.21875 
Q 37.3125 74.21875 42.625 73.28125 
Q 47.953125 72.359375 53.515625 70.515625 
z
" id="DejaVuSans-53"/>
     <path d="M 41.109375 46.296875 
Q 39.59375 47.171875 37.8125 47.578125 
Q 36.03125 48 33.890625 48 
Q 26.265625 48 22.1875 43.046875 
Q 18.109375 38.09375 18.109375 28.8125 
L 18.109375 0 
L 9.078125 0 
L 9.078125 54.6875 
L 18.109375 54.6875 
L 18.109375 46.1875 
Q 20.953125 51.171875 25.484375 53.578125 
Q 30.03125 56 36.53125 56 
Q 37.453125 56 38.578125 55.875 
Q 39.703125 55.765625 41.0625 55.515625 
z
" id="DejaVuSans-72"/>
    </defs>
    <g transform="translate(84.402699 35.472)scale(0.12 -0.12)">
     <use xlink:href="#DejaVuSans-49"/>
     <use x="29.492188" xlink:href="#DejaVuSans-42"/>
     <use x="98.095703" xlink:href="#DejaVuSans-49"/>
     <use x="127.587891" xlink:href="#DejaVuSans-20"/>
     <use x="159.375" xlink:href="#DejaVuSans-2d"/>
     <use x="195.458984" xlink:href="#DejaVuSans-20"/>
     <use x="227.246094" xlink:href="#DejaVuSans-52"/>
     <use x="296.666016" xlink:href="#DejaVuSans-65"/>
     <use x="358.189453" xlink:href="#DejaVuSans-67"/>
     <use x="421.666016" xlink:href="#DejaVuSans-20"/>
     <use x="453.453125" xlink:href="#DejaVuSans-76"/>
     <use x="512.632812" xlink:href="#DejaVuSans-73"/>
     <use x="564.732422" xlink:href="#DejaVuSans-20"/>
     <use x="596.519531" xlink:href="#DejaVuSans-53"/>
     <use x="659.996094" xlink:href="#DejaVuSans-74"/>
     <use x="699.205078" xlink:href="#DejaVuSans-72"/>
     <use x="740.287109" xlink:href="#DejaVuSans-65"/>
     <use x="801.810547" xlink:href="#DejaVuSans-73"/>
     <use x="853.910156" xlink:href="#DejaVuSans-73"/>
    </g>
   </g>
   <g id="legend_1">
    <g id="patch_7">
     <path d="M 143.71946 93.506375 
L 212.927273 93.506375 
Q 214.927273 93.506375 214.927273 91.506375 
L 214.927273 48.472 
Q 214.927273 46.472 212.927273 46.472 
L 143.71946 46.472 
Q 141.71946 46.472 141.71946 48.472 
L 141.71946 91.506375 
Q 141.71946 93.506375 143.71946 93.506375 
z
" style="fill:#ffffff;opacity:0.8;stroke:#cccccc;stroke-linejoin:miter;"/>
    </g>
    <g id="line2d_23">
     <path d="M 145.71946 54.570438 
L 165.71946 54.570438 
" style="fill:none;stroke:#0000ff;stroke-linecap:square;stroke-width:1.5;"/>
    </g>
    <g id="line2d_24"/>
    <g id="text_22">
     <!-- Reg -->
     <g transform="translate(173.71946 58.070438)scale(0.1 -0.1)">
      <use xlink:href="#DejaVuSans-52"/>
      <use x="69.419922" xlink:href="#DejaVuSans-65"/>
      <use x="130.943359" xlink:href="#DejaVuSans-67"/>
     </g>
    </g>
    <g id="line2d_25">
     <path d="M 145.71946 69.248563 
L 165.71946 69.248563 
" style="fill:none;stroke:#ff0000;stroke-linecap:square;stroke-width:1.5;"/>
    </g>
    <g id="line2d_26"/>
    <g id="text_23">
     <!-- Stress -->
     <g transform="translate(173.71946 72.748563)scale(0.1 -0.1)">
      <use xlink:href="#DejaVuSans-53"/>
      <use x="63.476562" xlink:href="#DejaVuSans-74"/>
      <use x="102.685547" xlink:href="#DejaVuSans-72"/>
      <use x="143.767578" xlink:href="#DejaVuSans-65"/>
      <use x="205.291016" xlink:href="#DejaVuSans-73"/>
      <use x="257.390625" xlink:href="#DejaVuSans-73"/>
     </g>
    </g>
    <g id="line2d_27">
     <path d="M 145.71946 83.926688 
L 165.71946 83.926688 
" style="fill:none;stroke:#000000;stroke-linecap:square;stroke-width:1.5;"/>
    </g>
    <g id="line2d_28"/>
    <g id="text_24">
     <!-- Block C -->
     <defs>
      <path d="M 9.421875 75.984375 
L 18.40625 75.984375 
L 18.40625 0 
L 9.421875 0 
z
" id="DejaVuSans-6c"/>
      <path d="M 30.609375 48.390625 
Q 23.390625 48.390625 19.1875 42.75 
Q 14.984375 37.109375 14.984375 27.296875 
Q 14.984375 17.484375 19.15625 11.84375 
Q 23.34375 6.203125 30.609375 6.203125 
Q 37.796875 6.203125 41.984375 11.859375 
Q 46.1875 17.53125 46.1875 27.296875 
Q 46.1875 37.015625 41.984375 42.703125 
Q 37.796875 48.390625 30.609375 48.390625 
z
M 30.609375 56 
Q 42.328125 56 49.015625 48.375 
Q 55.71875 40.765625 55.71875 27.296875 
Q 55.71875 13.875 49.015625 6.21875 
Q 42.328125 -1.421875 30.609375 -1.421875 
Q 18.84375 -1.421875 12.171875 6.21875 
Q 5.515625 13.875 5.515625 27.296875 
Q 5.515625 40.765625 12.171875 48.375 
Q 18.84375 56 30.609375 56 
z
" id="DejaVuSans-6f"/>
      <path d="M 48.78125 52.59375 
L 48.78125 44.1875 
Q 44.96875 46.296875 41.140625 47.34375 
Q 37.3125 48.390625 33.40625 48.390625 
Q 24.65625 48.390625 19.8125 42.84375 
Q 14.984375 37.3125 14.984375 27.296875 
Q 14.984375 17.28125 19.8125 11.734375 
Q 24.65625 6.203125 33.40625 6.203125 
Q 37.3125 6.203125 41.140625 7.25 
Q 44.96875 8.296875 48.78125 10.40625 
L 48.78125 2.09375 
Q 45.015625 0.34375 40.984375 -0.53125 
Q 36.96875 -1.421875 32.421875 -1.421875 
Q 20.0625 -1.421875 12.78125 6.34375 
Q 5.515625 14.109375 5.515625 27.296875 
Q 5.515625 40.671875 12.859375 48.328125 
Q 20.21875 56 33.015625 56 
Q 37.15625 56 41.109375 55.140625 
Q 45.0625 54.296875 48.78125 52.59375 
z
" id="DejaVuSans-63"/>
      <path d="M 9.078125 75.984375 
L 18.109375 75.984375 
L 18.109375 31.109375 
L 44.921875 54.6875 
L 56.390625 54.6875 
L 27.390625 29.109375 
L 57.625 0 
L 45.90625 0 
L 18.109375 26.703125 
L 18.109375 0 
L 9.078125 0 
z
" id="DejaVuSans-6b"/>
      <path d="M 64.40625 67.28125 
L 64.40625 56.890625 
Q 59.421875 61.53125 53.78125 63.8125 
Q 48.140625 66.109375 41.796875 66.109375 
Q 29.296875 66.109375 22.65625 58.46875 
Q 16.015625 50.828125 16.015625 36.375 
Q 16.015625 21.96875 22.65625 14.328125 
Q 29.296875 6.6875 41.796875 6.6875 
Q 48.140625 6.6875 53.78125 8.984375 
Q 59.421875 11.28125 64.40625 15.921875 
L 64.40625 5.609375 
Q 59.234375 2.09375 53.4375 0.328125 
Q 47.65625 -1.421875 41.21875 -1.421875 
Q 24.65625 -1.421875 15.125 8.703125 
Q 5.609375 18.84375 5.609375 36.375 
Q 5.609375 53.953125 15.125 64.078125 
Q 24.65625 74.21875 41.21875 74.21875 
Q 47.75 74.21875 53.53125 72.484375 
Q 59.328125 70.75 64.40625 67.28125 
z
" id="DejaVuSans-43"/>
     </defs>
     <g transform="translate(173.71946 87.426688)scale(0.1 -0.1)">
      <use xlink:href="#DejaVuSans-42"/>
      <use x="68.603516" xlink:href="#DejaVuSans-6c"/>
      <use x="96.386719" xlink:href="#DejaVuSans-6f"/>
      <use x="157.568359" xlink:href="#DejaVuSans-63"/>
      <use x="212.548828" xlink:href="#DejaVuSans-6b"/>
      <use x="270.458984" xlink:href="#DejaVuSans-20"/>
      <use x="302.246094" xlink:href="#DejaVuSans-43"/>
     </g>
    </g>
   </g>
  </g>
  <g id="axes_2">
   <g id="patch_8">
    <path d="M 252.392727 307.584 
L 414.72 307.584 
L 414.72 41.472 
L 252.392727 41.472 
z
" style="fill:#ffffff;"/>
   </g>
   <g id="matplotlib.axis_3">
    <g id="xtick_13">
     <g id="line2d_29">
      <g>
       <use style="stroke:#000000;stroke-width:0.8;" x="259.77124" xlink:href="#ma7b4a12d9a" y="307.584"/>
      </g>
     </g>
     <g id="text_25">
      <!-- 0.0 -->
      <g transform="translate(251.819677 322.182437)scale(0.1 -0.1)">
       <use xlink:href="#DejaVuSans-30"/>
       <use x="63.623047" xlink:href="#DejaVuSans-2e"/>
       <use x="95.410156" xlink:href="#DejaVuSans-30"/>
      </g>
     </g>
    </g>
    <g id="xtick_14">
     <g id="line2d_30">
      <g>
       <use style="stroke:#000000;stroke-width:0.8;" x="273.126013" xlink:href="#ma7b4a12d9a" y="307.584"/>
      </g>
     </g>
     <g id="text_26">
      <!-- 5.0 -->
      <g transform="translate(265.174451 322.182437)scale(0.1 -0.1)">
       <use xlink:href="#DejaVuSans-35"/>
       <use x="63.623047" xlink:href="#DejaVuSans-2e"/>
       <use x="95.410156" xlink:href="#DejaVuSans-30"/>
      </g>
     </g>
    </g>
    <g id="xtick_15">
     <g id="line2d_31">
      <g>
       <use style="stroke:#000000;stroke-width:0.8;" x="286.480787" xlink:href="#ma7b4a12d9a" y="307.584"/>
      </g>
     </g>
     <g id="text_27">
      <!-- 10.0 -->
      <g transform="translate(275.347974 322.182437)scale(0.1 -0.1)">
       <use xlink:href="#DejaVuSans-31"/>
       <use x="63.623047" xlink:href="#DejaVuSans-30"/>
       <use x="127.246094" xlink:href="#DejaVuSans-2e"/>
       <use x="159.033203" xlink:href="#DejaVuSans-30"/>
      </g>
     </g>
    </g>
    <g id="xtick_16">
     <g id="line2d_32">
      <g>
       <use style="stroke:#000000;stroke-width:0.8;" x="299.83556" xlink:href="#ma7b4a12d9a" y="307.584"/>
      </g>
     </g>
     <g id="text_28">
      <!-- 15.0 -->
      <g transform="translate(288.702748 322.182437)scale(0.1 -0.1)">
       <use xlink:href="#DejaVuSans-31"/>
       <use x="63.623047" xlink:href="#DejaVuSans-35"/>
       <use x="127.246094" xlink:href="#DejaVuSans-2e"/>
       <use x="159.033203" xlink:href="#DejaVuSans-30"/>
      </g>
     </g>
    </g>
    <g id="xtick_17">
     <g id="line2d_33">
      <g>
       <use style="stroke:#000000;stroke-width:0.8;" x="313.190334" xlink:href="#ma7b4a12d9a" y="307.584"/>
      </g>
     </g>
     <g id="text_29">
      <!-- 20.0 -->
      <g transform="translate(302.057521 322.182437)scale(0.1 -0.1)">
       <use xlink:href="#DejaVuSans-32"/>
       <use x="63.623047" xlink:href="#DejaVuSans-30"/>
       <use x="127.246094" xlink:href="#DejaVuSans-2e"/>
       <use x="159.033203" xlink:href="#DejaVuSans-30"/>
      </g>
     </g>
    </g>
    <g id="xtick_18">
     <g id="line2d_34">
      <g>
       <use style="stroke:#000000;stroke-width:0.8;" x="326.545108" xlink:href="#ma7b4a12d9a" y="307.584"/>
      </g>
     </g>
     <g id="text_30">
      <!-- 25.0 -->
      <g transform="translate(315.412295 322.182437)scale(0.1 -0.1)">
       <use xlink:href="#DejaVuSans-32"/>
       <use x="63.623047" xlink:href="#DejaVuSans-35"/>
       <use x="127.246094" xlink:href="#DejaVuSans-2e"/>
       <use x="159.033203" xlink:href="#DejaVuSans-30"/>
      </g>
     </g>
    </g>
    <g id="xtick_19">
     <g id="line2d_35">
      <g>
       <use style="stroke:#000000;stroke-width:0.8;" x="339.899881" xlink:href="#ma7b4a12d9a" y="307.584"/>
      </g>
     </g>
     <g id="text_31">
      <!-- 30.0 -->
      <g transform="translate(328.767069 322.182437)scale(0.1 -0.1)">
       <use xlink:href="#DejaVuSans-33"/>
       <use x="63.623047" xlink:href="#DejaVuSans-30"/>
       <use x="127.246094" xlink:href="#DejaVuSans-2e"/>
       <use x="159.033203" xlink:href="#DejaVuSans-30"/>
      </g>
     </g>
    </g>
    <g id="xtick_20">
     <g id="line2d_36">
      <g>
       <use style="stroke:#000000;stroke-width:0.8;" x="353.254655" xlink:href="#ma7b4a12d9a" y="307.584"/>
      </g>
     </g>
     <g id="text_32">
      <!-- 35.0 -->
      <g transform="translate(342.121842 322.182437)scale(0.1 -0.1)">
       <use xlink:href="#DejaVuSans-33"/>
       <use x="63.623047" xlink:href="#DejaVuSans-35"/>
       <use x="127.246094" xlink:href="#DejaVuSans-2e"/>
       <use x="159.033203" xlink:href="#DejaVuSans-30"/>
      </g>
     </g>
    </g>
    <g id="xtick_21">
     <g id="line2d_37">
      <g>
       <use style="stroke:#000000;stroke-width:0.8;" x="366.609428" xlink:href="#ma7b4a12d9a" y="307.584"/>
      </g>
     </g>
     <g id="text_33">
      <!-- 40.0 -->
      <g transform="translate(355.476616 322.182437)scale(0.1 -0.1)">
       <use xlink:href="#DejaVuSans-34"/>
       <use x="63.623047" xlink:href="#DejaVuSans-30"/>
       <use x="127.246094" xlink:href="#DejaVuSans-2e"/>
       <use x="159.033203" xlink:href="#DejaVuSans-30"/>
      </g>
     </g>
    </g>
    <g id="xtick_22">
     <g id="line2d_38">
      <g>
       <use style="stroke:#000000;stroke-width:0.8;" x="379.964202" xlink:href="#ma7b4a12d9a" y="307.584"/>
      </g>
     </g>
     <g id="text_34">
      <!-- 45.0 -->
      <g transform="translate(368.831389 322.182437)scale(0.1 -0.1)">
       <use xlink:href="#DejaVuSans-34"/>
       <use x="63.623047" xlink:href="#DejaVuSans-35"/>
       <use x="127.246094" xlink:href="#DejaVuSans-2e"/>
       <use x="159.033203" xlink:href="#DejaVuSans-30"/>
      </g>
     </g>
    </g>
    <g id="xtick_23">
     <g id="line2d_39">
      <g>
       <use style="stroke:#000000;stroke-width:0.8;" x="393.318975" xlink:href="#ma7b4a12d9a" y="307.584"/>
      </g>
     </g>
     <g id="text_35">
      <!-- 50.0 -->
      <g transform="translate(382.186163 322.182437)scale(0.1 -0.1)">
       <use xlink:href="#DejaVuSans-35"/>
       <use x="63.623047" xlink:href="#DejaVuSans-30"/>
       <use x="127.246094" xlink:href="#DejaVuSans-2e"/>
       <use x="159.033203" xlink:href="#DejaVuSans-30"/>
      </g>
     </g>
    </g>
    <g id="xtick_24">
     <g id="line2d_40">
      <g>
       <use style="stroke:#000000;stroke-width:0.8;" x="406.673749" xlink:href="#ma7b4a12d9a" y="307.584"/>
      </g>
     </g>
     <g id="text_36">
      <!-- 55.0 -->
      <g transform="translate(395.540936 322.182437)scale(0.1 -0.1)">
       <use xlink:href="#DejaVuSans-35"/>
       <use x="63.623047" xlink:href="#DejaVuSans-35"/>
       <use x="127.246094" xlink:href="#DejaVuSans-2e"/>
       <use x="159.033203" xlink:href="#DejaVuSans-30"/>
      </g>
     </g>
    </g>
    <g id="text_37">
     <!-- Minutes -->
     <g transform="translate(313.874332 335.860562)scale(0.1 -0.1)">
      <use xlink:href="#DejaVuSans-4d"/>
      <use x="86.279297" xlink:href="#DejaVuSans-69"/>
      <use x="114.0625" xlink:href="#DejaVuSans-6e"/>
      <use x="177.441406" xlink:href="#DejaVuSans-75"/>
      <use x="240.820312" xlink:href="#DejaVuSans-74"/>
      <use x="280.029297" xlink:href="#DejaVuSans-65"/>
      <use x="341.552734" xlink:href="#DejaVuSans-73"/>
     </g>
    </g>
   </g>
   <g id="matplotlib.axis_4">
    <g id="ytick_8">
     <g id="line2d_41">
      <g>
       <use style="stroke:#000000;stroke-width:0.8;" x="252.392727" xlink:href="#m2647ffbd67" y="307.584"/>
      </g>
     </g>
     <g id="text_38">
      <!-- 1.00 -->
      <g transform="translate(223.127102 311.383219)scale(0.1 -0.1)">
       <use xlink:href="#DejaVuSans-31"/>
       <use x="63.623047" xlink:href="#DejaVuSans-2e"/>
       <use x="95.410156" xlink:href="#DejaVuSans-30"/>
       <use x="159.033203" xlink:href="#DejaVuSans-30"/>
      </g>
     </g>
    </g>
    <g id="ytick_9">
     <g id="line2d_42">
      <g>
       <use style="stroke:#000000;stroke-width:0.8;" x="252.392727" xlink:href="#m2647ffbd67" y="274.32"/>
      </g>
     </g>
     <g id="text_39">
      <!-- 1.25 -->
      <g transform="translate(223.127102 278.119219)scale(0.1 -0.1)">
       <use xlink:href="#DejaVuSans-31"/>
       <use x="63.623047" xlink:href="#DejaVuSans-2e"/>
       <use x="95.410156" xlink:href="#DejaVuSans-32"/>
       <use x="159.033203" xlink:href="#DejaVuSans-35"/>
      </g>
     </g>
    </g>
    <g id="ytick_10">
     <g id="line2d_43">
      <g>
       <use style="stroke:#000000;stroke-width:0.8;" x="252.392727" xlink:href="#m2647ffbd67" y="241.056"/>
      </g>
     </g>
     <g id="text_40">
      <!-- 1.50 -->
      <g transform="translate(223.127102 244.855219)scale(0.1 -0.1)">
       <use xlink:href="#DejaVuSans-31"/>
       <use x="63.623047" xlink:href="#DejaVuSans-2e"/>
       <use x="95.410156" xlink:href="#DejaVuSans-35"/>
       <use x="159.033203" xlink:href="#DejaVuSans-30"/>
      </g>
     </g>
    </g>
    <g id="ytick_11">
     <g id="line2d_44">
      <g>
       <use style="stroke:#000000;stroke-width:0.8;" x="252.392727" xlink:href="#m2647ffbd67" y="207.792"/>
      </g>
     </g>
     <g id="text_41">
      <!-- 1.75 -->
      <defs>
       <path d="M 8.203125 72.90625 
L 55.078125 72.90625 
L 55.078125 68.703125 
L 28.609375 0 
L 18.3125 0 
L 43.21875 64.59375 
L 8.203125 64.59375 
z
" id="DejaVuSans-37"/>
      </defs>
      <g transform="translate(223.127102 211.591219)scale(0.1 -0.1)">
       <use xlink:href="#DejaVuSans-31"/>
       <use x="63.623047" xlink:href="#DejaVuSans-2e"/>
       <use x="95.410156" xlink:href="#DejaVuSans-37"/>
       <use x="159.033203" xlink:href="#DejaVuSans-35"/>
      </g>
     </g>
    </g>
    <g id="ytick_12">
     <g id="line2d_45">
      <g>
       <use style="stroke:#000000;stroke-width:0.8;" x="252.392727" xlink:href="#m2647ffbd67" y="174.528"/>
      </g>
     </g>
     <g id="text_42">
      <!-- 2.00 -->
      <g transform="translate(223.127102 178.327219)scale(0.1 -0.1)">
       <use xlink:href="#DejaVuSans-32"/>
       <use x="63.623047" xlink:href="#DejaVuSans-2e"/>
       <use x="95.410156" xlink:href="#DejaVuSans-30"/>
       <use x="159.033203" xlink:href="#DejaVuSans-30"/>
      </g>
     </g>
    </g>
    <g id="ytick_13">
     <g id="line2d_46">
      <g>
       <use style="stroke:#000000;stroke-width:0.8;" x="252.392727" xlink:href="#m2647ffbd67" y="141.264"/>
      </g>
     </g>
     <g id="text_43">
      <!-- 2.25 -->
      <g transform="translate(223.127102 145.063219)scale(0.1 -0.1)">
       <use xlink:href="#DejaVuSans-32"/>
       <use x="63.623047" xlink:href="#DejaVuSans-2e"/>
       <use x="95.410156" xlink:href="#DejaVuSans-32"/>
       <use x="159.033203" xlink:href="#DejaVuSans-35"/>
      </g>
     </g>
    </g>
    <g id="ytick_14">
     <g id="line2d_47">
      <g>
       <use style="stroke:#000000;stroke-width:0.8;" x="252.392727" xlink:href="#m2647ffbd67" y="108"/>
      </g>
     </g>
     <g id="text_44">
      <!-- 2.50 -->
      <g transform="translate(223.127102 111.799219)scale(0.1 -0.1)">
       <use xlink:href="#DejaVuSans-32"/>
       <use x="63.623047" xlink:href="#DejaVuSans-2e"/>
       <use x="95.410156" xlink:href="#DejaVuSans-35"/>
       <use x="159.033203" xlink:href="#DejaVuSans-30"/>
      </g>
     </g>
    </g>
    <g id="ytick_15">
     <g id="line2d_48">
      <g>
       <use style="stroke:#000000;stroke-width:0.8;" x="252.392727" xlink:href="#m2647ffbd67" y="74.736"/>
      </g>
     </g>
     <g id="text_45">
      <!-- 2.75 -->
      <g transform="translate(223.127102 78.535219)scale(0.1 -0.1)">
       <use xlink:href="#DejaVuSans-32"/>
       <use x="63.623047" xlink:href="#DejaVuSans-2e"/>
       <use x="95.410156" xlink:href="#DejaVuSans-37"/>
       <use x="159.033203" xlink:href="#DejaVuSans-35"/>
      </g>
     </g>
    </g>
    <g id="ytick_16">
     <g id="line2d_49">
      <g>
       <use style="stroke:#000000;stroke-width:0.8;" x="252.392727" xlink:href="#m2647ffbd67" y="41.472"/>
      </g>
     </g>
     <g id="text_46">
      <!-- 3.00 -->
      <g transform="translate(223.127102 45.271219)scale(0.1 -0.1)">
       <use xlink:href="#DejaVuSans-33"/>
       <use x="63.623047" xlink:href="#DejaVuSans-2e"/>
       <use x="95.410156" xlink:href="#DejaVuSans-30"/>
       <use x="159.033203" xlink:href="#DejaVuSans-30"/>
      </g>
     </g>
    </g>
   </g>
   <g id="line2d_50">
    <path clip-path="url(#pb41213c83b)" d="M 259.77124 133.560667 
L 259.993819 210.587878 
L 260.216399 191.887376 
L 260.438978 192.03449 
L 260.661558 176.711621 
L 260.884137 172.848588 
L 261.106717 148.294551 
L 261.329297 155.008802 
L 261.551876 171.688717 
L 261.774456 201.272442 
L 261.997035 178.473925 
L 262.219615 193.726898 
L 262.442194 185.030142 
L 262.664774 192.856065 
L 262.887354 185.790341 
L 263.109933 167.835932 
L 263.332513 167.47567 
L 263.555092 188.935781 
L 263.777672 177.175729 
L 264.000251 180.640824 
L 264.222831 178.443704 
L 264.44541 171.020649 
L 264.66799 202.683804 
L 264.89057 205.26675 
L 265.113149 187.608029 
L 265.335729 171.311147 
L 265.558308 180.429807 
L 265.780888 154.231429 
L 266.003467 174.03535 
L 266.226047 160.328333 
L 266.448626 175.667447 
L 266.671206 224.335901 
L 266.893786 183.406698 
L 267.116365 180.46775 
L 267.338945 171.994661 
L 267.561524 176.396892 
L 267.784104 165.103078 
L 268.006683 187.256287 
L 268.229263 192.201707 
L 268.451842 157.324814 
L 268.674422 187.483414 
L 268.897002 194.552201 
L 269.119581 175.271904 
L 269.342161 208.424041 
L 269.56474 176.731459 
L 269.78732 160.245658 
L 270.009899 202.662368 
L 270.232479 181.165641 
L 270.455059 191.928648 
L 270.677638 183.35038 
L 270.900218 216.914439 
L 271.122797 192.526691 
L 271.345377 188.644083 
L 271.567956 193.89385 
L 271.790536 175.325291 
L 272.013115 165.601933 
L 272.235695 181.421528 
L 272.458275 181.163644 
L 272.680854 182.154034 
L 272.903434 196.534045 
L 273.126013 186.476516 
L 273.348593 207.668234 
L 273.571172 186.136225 
L 273.793752 173.684273 
L 274.016331 186.726944 
L 274.238911 200.219213 
L 274.461491 174.335568 
L 274.68407 164.483071 
L 274.90665 195.577605 
L 275.129229 186.146742 
L 275.351809 162.5188 
L 275.574388 173.011544 
L 275.796968 193.748734 
L 276.019548 178.338927 
L 276.242127 202.464531 
L 276.464707 202.928771 
L 276.687286 200.161566 
L 276.909866 194.609183 
L 277.132445 179.482553 
L 277.355025 169.622335 
L 277.577604 217.928528 
L 277.800184 175.190691 
L 278.022764 162.338136 
L 278.245343 191.11919 
L 278.467923 181.109858 
L 278.690502 210.247452 
L 278.913082 158.330515 
L 279.135661 218.086691 
L 279.358241 192.526157 
L 279.58082 182.798005 
L 279.8034 183.801174 
L 280.02598 179.352481 
L 280.248559 142.796489 
L 280.471139 188.825279 
L 280.693718 152.49149 
L 280.916298 241.953086 
L 281.138877 201.530058 
L 281.361457 150.90133 
L 281.584036 180.62618 
L 281.806616 199.956672 
L 282.029196 158.00673 
L 282.251775 177.92661 
L 282.474355 191.164855 
L 282.696934 162.428668 
L 282.919514 181.237668 
L 283.142093 172.366506 
L 283.364673 197.047812 
L 283.587253 185.108026 
L 283.809832 160.696984 
L 284.032412 187.287174 
L 284.254991 162.524657 
L 284.477571 203.876024 
L 284.70015 227.971944 
L 284.92273 189.197923 
L 285.145309 241.358772 
L 285.367889 198.008911 
L 285.590469 172.337218 
L 285.813048 166.651433 
L 286.035628 183.3609 
L 286.258207 184.026175 
L 286.480787 201.007238 
" style="fill:none;stroke:#0000ff;stroke-linecap:square;stroke-width:1.5;"/>
   </g>
   <g id="line2d_51">
    <path clip-path="url(#pb41213c83b)" d="M 286.703366 141.717699 
L 286.925946 168.919785 
L 287.148525 194.431581 
L 287.371105 168.665363 
L 287.593685 179.588662 
L 287.816264 157.156264 
L 288.038844 226.093812 
L 288.261423 192.257358 
L 288.484003 191.20413 
L 288.706582 164.596368 
L 288.929162 185.501837 
L 289.151742 161.186254 
L 289.374321 160.90108 
L 289.596901 192.671674 
L 289.81948 182.778567 
L 290.04206 182.234846 
L 290.264639 224.92409 
L 290.487219 185.347934 
L 290.709798 182.360791 
L 290.932378 159.264587 
L 291.154958 155.180945 
L 291.377537 185.297342 
L 291.600117 194.399762 
L 291.822696 154.569857 
L 292.045276 165.351774 
L 292.267855 154.065409 
L 292.490435 203.205159 
L 292.713014 194.671623 
L 292.935594 194.086629 
L 293.158174 159.26845 
L 293.380753 219.380893 
L 293.603333 180.059957 
L 293.825912 162.202204 
L 294.048492 180.75266 
L 294.271071 155.411401 
L 294.493651 170.529777 
L 294.716231 152.135489 
L 294.93881 181.977897 
L 295.16139 173.024723 
L 295.383969 150.638522 
L 295.606549 145.300486 
L 295.829128 183.585098 
L 296.051708 147.861463 
L 296.274287 169.095388 
L 296.496867 146.206999 
L 296.719447 194.080772 
L 296.942026 202.545343 
L 297.164606 184.564039 
L 297.387185 142.832833 
L 297.609765 153.5804 
L 297.832344 144.533763 
L 298.277503 200.929889 
L 298.500083 135.043921 
L 298.722663 144.041298 
L 298.945242 166.782174 
L 299.167822 150.812394 
L 299.384372 346.6 
M 299.396376 346.6 
L 299.612981 148.982859 
L 299.83556 56.594557 
L 300.05814 216.175675 
L 300.280719 134.721203 
L 300.503299 135.70081 
L 300.725879 134.907325 
L 300.948458 144.039701 
L 301.171038 224.910378 
L 301.393617 155.316744 
L 301.616197 203.775907 
L 301.838776 174.166619 
L 302.061356 178.124846 
L 302.283936 157.579234 
L 302.506515 164.295747 
L 302.729095 176.3013 
L 302.951674 213.984145 
L 303.174254 173.945616 
L 303.396833 181.219161 
L 303.619413 156.213805 
L 303.841992 164.114287 
L 304.064572 167.766838 
L 304.287152 161.59125 
L 304.509731 161.465572 
L 304.732311 190.065694 
L 304.95489 177.683771 
L 305.17747 182.749545 
L 305.400049 166.636123 
L 305.622629 230.852979 
L 305.845208 172.353859 
L 306.067788 166.195979 
L 306.290368 183.101819 
L 306.735527 141.71144 
L 306.958106 184.157843 
L 307.180686 155.651842 
L 307.403265 180.605943 
L 307.625845 155.043683 
L 307.848425 142.710883 
L 308.071004 137.948122 
L 308.293584 147.017392 
L 308.516163 239.665298 
L 308.738743 264.987521 
L 309.183902 219.768182 
L 309.406481 112.6697 
L 309.629061 104.539029 
L 310.07422 206.805788 
L 310.2968 174.171011 
L 310.519379 195.597176 
L 310.964538 132.125741 
L 311.187118 232.038543 
L 311.409697 161.994516 
L 311.854857 125.658987 
L 312.077436 114.586175 
L 312.300016 124.424564 
L 312.528383 346.6 
M 312.90439 346.6 
L 312.967754 124.751408 
L 313.190334 111.692893 
L 313.412914 140.332698 
L 313.635493 336.665252 
L 314.080652 122.767965 
L 314.303232 218.787245 
L 314.525811 56.476731 
L 314.97097 211.865572 
L 315.19355 144.157924 
L 315.41613 211.754804 
L 315.638709 44.683259 
L 315.861289 104.895832 
L 316.083868 73.327459 
L 316.306448 110.961449 
L 316.529027 102.003744 
L 316.751607 134.722003 
L 316.974186 42.205355 
L 317.196766 123.332727 
L 317.419346 143.396793 
L 317.641925 108.679254 
L 317.864505 191.489171 
L 318.087084 187.141391 
L 318.309664 63.394676 
L 318.532243 315.238684 
L 318.754823 51.273827 
L 318.977402 109.445045 
L 319.199982 121.474697 
L 319.264006 346.6 
M 319.797448 346.6 
L 319.867721 88.993155 
L 320.0903 52.364734 
L 320.535459 184.398418 
L 320.758039 135.618264 
L 320.980619 172.452513 
L 321.203198 181.279472 
L 321.425778 134.678998 
L 321.648357 156.160018 
L 321.870937 152.757225 
L 322.093516 133.868743 
L 322.316096 135.734624 
L 322.538675 233.135041 
L 322.761255 153.332369 
L 322.983835 190.244628 
L 323.206414 166.759674 
L 323.428994 206.762119 
L 323.651573 203.385555 
L 324.096732 158.102588 
L 324.319312 166.896135 
L 324.541891 169.275649 
L 324.764471 135.245753 
L 324.987051 177.786684 
L 325.20963 173.976636 
L 325.43221 181.119044 
L 325.654789 218.005345 
L 325.877369 189.892353 
L 326.099948 187.231258 
L 326.322528 183.214184 
L 326.545108 159.963678 
L 326.767687 214.762716 
L 326.990267 189.618761 
L 327.212846 222.713654 
L 327.435426 220.201003 
L 327.658005 265.563063 
L 327.880585 188.956283 
L 328.103164 159.464157 
L 328.325744 178.005824 
L 328.548324 164.435939 
L 328.770903 220.001567 
L 328.993483 197.1892 
L 329.216062 261.194911 
L 329.438642 105.535543 
L 329.661221 200.416386 
L 330.10638 85.310917 
L 330.32896 165.598067 
L 330.55154 152.871057 
L 330.774119 191.764494 
L 330.996699 48.028667 
L 331.219278 126.238921 
L 331.441858 122.310651 
L 331.664437 129.853398 
L 331.726674 346.6 
M 332.26894 346.6 
L 332.332176 124.993448 
L 332.554756 105.632197 
L 332.777335 125.623042 
L 332.999915 117.213855 
L 333.211794 346.6 
M 333.34451 346.6 
L 333.445074 337.052541 
L 333.667653 215.906477 
L 333.890233 186.096018 
L 334.112813 100.93667 
L 334.335392 208.075493 
L 334.557972 206.667193 
L 334.780551 285.52009 
L 335.003131 190.43075 
L 335.22571 236.910741 
L 335.44829 241.861622 
L 335.670869 183.068936 
L 335.893449 307.901498 
L 336.338608 141.343322 
L 336.561188 202.130229 
L 336.783767 211.389349 
L 337.006347 69.016159 
L 337.228926 111.367642 
L 337.451506 186.785123 
L 337.896665 115.348902 
L 338.119245 207.994681 
L 338.341824 196.813894 
L 338.564404 80.244206 
L 338.786983 126.876638 
L 339.009563 77.177448 
L 339.454722 212.80071 
L 339.677302 132.996177 
L 339.899881 150.34083 
L 340.122461 225.665917 
L 340.34504 194.60692 
L 340.56762 117.895103 
L 340.790199 169.697291 
L 341.012779 172.37343 
L 341.235358 162.470738 
L 341.457938 195.259411 
L 341.680518 199.63129 
L 341.903097 198.507634 
L 342.125677 169.913368 
L 342.348256 192.901464 
L 342.570836 174.62447 
L 342.793415 183.574314 
L 343.238574 143.285493 
L 343.461154 182.477951 
L 343.683734 163.520505 
L 343.906313 161.229255 
L 344.128893 168.0379 
L 344.351472 231.989151 
L 344.574052 139.607381 
L 344.796631 183.636754 
L 345.019211 191.473727 
L 345.241791 220.020872 
L 345.46437 158.951055 
L 345.68695 156.421363 
L 345.909529 143.767707 
L 346.132109 192.30715 
L 346.354688 199.383793 
L 346.577268 171.052334 
L 346.799847 208.562234 
L 347.022427 198.139116 
L 347.245007 164.617004 
L 347.467586 158.567761 
L 347.690166 197.719875 
L 347.912745 175.304388 
L 348.135325 132.541786 
L 348.357904 142.623946 
L 348.580484 125.050031 
L 348.803063 182.30035 
L 349.025643 161.584728 
L 349.248223 118.75369 
L 349.470802 161.483411 
L 349.693382 164.225053 
L 350.138541 230.652877 
L 350.5837 167.497505 
L 350.806279 263.034701 
L 351.251439 151.416028 
L 351.474018 174.291767 
L 351.696598 184.309083 
L 351.919177 169.38256 
L 352.141757 177.326704 
L 352.364336 158.315337 
L 352.586916 215.366349 
L 352.809496 202.488761 
L 353.032075 217.229835 
L 353.032075 217.229835 
" style="fill:none;stroke:#ff0000;stroke-linecap:square;stroke-width:1.5;"/>
   </g>
   <g id="line2d_52">
    <path clip-path="url(#pb41213c83b)" d="M 353.254655 123.673016 
L 353.477234 263.765878 
L 353.699814 115.257044 
L 354.144973 250.097735 
L 354.367552 120.555137 
L 354.590132 132.216274 
L 354.812712 136.443967 
L 355.035291 64.557475 
L 355.257871 248.637114 
L 355.48045 74.707136 
L 355.70303 137.990592 
L 355.925609 152.209246 
L 356.148189 116.108836 
L 356.370768 143.306261 
L 356.593348 133.078187 
L 356.815928 128.494093 
L 357.038507 134.955519 
L 357.261087 160.799365 
L 357.483666 114.964942 
L 357.706246 224.927022 
L 358.151405 122.050238 
L 358.596564 110.387904 
L 358.819144 151.524002 
L 359.041723 150.602707 
L 359.264303 237.112574 
L 359.486882 267.724239 
L 359.709462 125.89144 
L 359.932041 214.496447 
L 360.154621 207.444435 
L 360.377201 134.714811 
L 360.59978 196.313706 
L 360.82236 309.033676 
L 361.044939 133.798045 
L 361.267519 233.674769 
L 361.490098 126.558577 
L 361.712678 216.445938 
L 361.935257 125.041509 
L 362.157837 232.20829 
L 362.380417 218.487027 
L 362.602996 220.606266 
L 362.825576 216.409328 
L 363.048155 258.448743 
L 363.493314 157.072523 
L 363.715894 160.316618 
L 363.938474 250.02065 
L 364.161053 136.977302 
L 364.22188 346.6 
M 364.989219 346.6 
L 365.051371 130.467016 
L 365.113484 346.6 
M 366.104773 346.6 
L 366.164269 143.220256 
L 366.386849 229.861923 
L 366.609428 231.970112 
L 367.054587 77.589766 
L 367.277167 173.823666 
L 367.329832 346.6 
M 367.659861 346.6 
L 367.722326 129.127413 
L 367.944906 106.719378 
L 368.167485 120.718093 
L 368.390065 154.12026 
L 368.612644 151.520806 
L 368.835224 202.562917 
L 369.057803 149.145151 
L 369.115954 346.6 
M 369.464191 346.6 
L 369.502962 228.830661 
L 369.725542 126.982881 
L 369.788377 346.6 
M 370.115604 346.6 
L 370.170701 162.923129 
L 370.393281 188.667912 
L 370.83844 141.487506 
L 371.061019 186.408219 
L 371.283599 156.618799 
L 371.506179 230.088785 
L 371.544607 346.6 
M 371.886551 346.6 
L 371.951338 117.361899 
L 372.173917 141.465364 
L 372.396497 140.916226 
L 372.619076 132.12243 
L 372.841656 336.880264 
L 373.064235 141.052524 
L 373.286815 117.87966 
L 373.509395 159.679701 
L 373.565218 346.6 
M 374.115751 346.6 
L 374.177133 133.99615 
L 374.399713 122.439255 
L 374.622292 201.384275 
L 374.668234 346.6 
M 374.999228 346.6 
L 375.067451 99.826326 
L 375.290031 188.205536 
L 375.512611 94.969838 
L 375.73519 108.972282 
L 375.95777 153.438872 
L 376.180349 143.808845 
L 376.402929 182.06896 
L 376.625508 119.253342 
L 377.070668 169.699818 
L 377.293247 136.419204 
L 377.515827 246.046978 
L 377.549795 346.6 
M 378.141355 346.6 
L 378.183565 216.053095 
L 378.406145 180.185908 
L 378.628724 166.246302 
L 378.851304 132.005786 
L 379.073884 257.580571 
L 379.296463 158.280987 
L 379.519043 154.063813 
L 379.741622 167.767901 
L 379.795625 346.6 
M 397.279708 346.6 
L 397.325407 202.590609 
L 397.547987 167.944041 
L 397.770567 156.969342 
L 397.993146 242.852277 
L 398.028076 346.6 
M 398.613162 346.6 
L 398.660885 194.460208 
L 398.809292 346.6 
M 402.38436 346.6 
L 402.444737 138.753187 
L 402.667317 168.206848 
L 402.721216 346.6 
M 403.74049 346.6 
L 403.780215 225.489779 
L 404.002794 229.0514 
L 404.225374 211.597705 
L 404.268703 346.6 
M 404.624068 346.6 
L 404.670533 199.249568 
L 404.893112 195.865177 
L 404.940453 346.6 
M 406.173693 346.6 
L 406.22859 163.809274 
L 406.22859 163.809274 
L 406.22859 163.809274 
L 406.283511 346.6 
L 406.283511 346.6 
" style="fill:none;stroke:#000000;stroke-linecap:square;stroke-width:1.5;"/>
   </g>
   <g id="patch_9">
    <path d="M 252.392727 307.584 
L 252.392727 41.472 
" style="fill:none;stroke:#000000;stroke-linecap:square;stroke-linejoin:miter;stroke-width:0.8;"/>
   </g>
   <g id="patch_10">
    <path d="M 414.72 307.584 
L 414.72 41.472 
" style="fill:none;stroke:#000000;stroke-linecap:square;stroke-linejoin:miter;stroke-width:0.8;"/>
   </g>
   <g id="patch_11">
    <path d="M 252.392727 307.584 
L 414.72 307.584 
" style="fill:none;stroke:#000000;stroke-linecap:square;stroke-linejoin:miter;stroke-width:0.8;"/>
   </g>
   <g id="patch_12">
    <path d="M 252.392727 41.472 
L 414.72 41.472 
" style="fill:none;stroke:#000000;stroke-linecap:square;stroke-linejoin:miter;stroke-width:0.8;"/>
   </g>
   <g id="text_47">
    <!-- Pupil - Reg vs Stress -->
    <defs>
     <path d="M 19.671875 64.796875 
L 19.671875 37.40625 
L 32.078125 37.40625 
Q 38.96875 37.40625 42.71875 40.96875 
Q 46.484375 44.53125 46.484375 51.125 
Q 46.484375 57.671875 42.71875 61.234375 
Q 38.96875 64.796875 32.078125 64.796875 
z
M 9.8125 72.90625 
L 32.078125 72.90625 
Q 44.34375 72.90625 50.609375 67.359375 
Q 56.890625 61.8125 56.890625 51.125 
Q 56.890625 40.328125 50.609375 34.8125 
Q 44.34375 29.296875 32.078125 29.296875 
L 19.671875 29.296875 
L 19.671875 0 
L 9.8125 0 
z
" id="DejaVuSans-50"/>
     <path d="M 18.109375 8.203125 
L 18.109375 -20.796875 
L 9.078125 -20.796875 
L 9.078125 54.6875 
L 18.109375 54.6875 
L 18.109375 46.390625 
Q 20.953125 51.265625 25.265625 53.625 
Q 29.59375 56 35.59375 56 
Q 45.5625 56 51.78125 48.09375 
Q 58.015625 40.1875 58.015625 27.296875 
Q 58.015625 14.40625 51.78125 6.484375 
Q 45.5625 -1.421875 35.59375 -1.421875 
Q 29.59375 -1.421875 25.265625 0.953125 
Q 20.953125 3.328125 18.109375 8.203125 
z
M 48.6875 27.296875 
Q 48.6875 37.203125 44.609375 42.84375 
Q 40.53125 48.484375 33.40625 48.484375 
Q 26.265625 48.484375 22.1875 42.84375 
Q 18.109375 37.203125 18.109375 27.296875 
Q 18.109375 17.390625 22.1875 11.75 
Q 26.265625 6.109375 33.40625 6.109375 
Q 40.53125 6.109375 44.609375 11.75 
Q 48.6875 17.390625 48.6875 27.296875 
z
" id="DejaVuSans-70"/>
    </defs>
    <g transform="translate(272.289801 35.472)scale(0.12 -0.12)">
     <use xlink:href="#DejaVuSans-50"/>
     <use x="60.287109" xlink:href="#DejaVuSans-75"/>
     <use x="123.666016" xlink:href="#DejaVuSans-70"/>
     <use x="187.142578" xlink:href="#DejaVuSans-69"/>
     <use x="214.925781" xlink:href="#DejaVuSans-6c"/>
     <use x="242.708984" xlink:href="#DejaVuSans-20"/>
     <use x="274.496094" xlink:href="#DejaVuSans-2d"/>
     <use x="310.580078" xlink:href="#DejaVuSans-20"/>
     <use x="342.367188" xlink:href="#DejaVuSans-52"/>
     <use x="411.787109" xlink:href="#DejaVuSans-65"/>
     <use x="473.310547" xlink:href="#DejaVuSans-67"/>
     <use x="536.787109" xlink:href="#DejaVuSans-20"/>
     <use x="568.574219" xlink:href="#DejaVuSans-76"/>
     <use x="627.753906" xlink:href="#DejaVuSans-73"/>
     <use x="679.853516" xlink:href="#DejaVuSans-20"/>
     <use x="711.640625" xlink:href="#DejaVuSans-53"/>
     <use x="775.117188" xlink:href="#DejaVuSans-74"/>
     <use x="814.326172" xlink:href="#DejaVuSans-72"/>
     <use x="855.408203" xlink:href="#DejaVuSans-65"/>
     <use x="916.931641" xlink:href="#DejaVuSans-73"/>
     <use x="969.03125" xlink:href="#DejaVuSans-73"/>
    </g>
   </g>
   <g id="legend_2">
    <g id="patch_13">
     <path d="M 259.392727 302.584 
L 328.60054 302.584 
Q 330.60054 302.584 330.60054 300.584 
L 330.60054 257.549625 
Q 330.60054 255.549625 328.60054 255.549625 
L 259.392727 255.549625 
Q 257.392727 255.549625 257.392727 257.549625 
L 257.392727 300.584 
Q 257.392727 302.584 259.392727 302.584 
z
" style="fill:#ffffff;opacity:0.8;stroke:#cccccc;stroke-linejoin:miter;"/>
    </g>
    <g id="line2d_53">
     <path d="M 261.392727 263.648062 
L 281.392727 263.648062 
" style="fill:none;stroke:#0000ff;stroke-linecap:square;stroke-width:1.5;"/>
    </g>
    <g id="line2d_54"/>
    <g id="text_48">
     <!-- Reg -->
     <g transform="translate(289.392727 267.148062)scale(0.1 -0.1)">
      <use xlink:href="#DejaVuSans-52"/>
      <use x="69.419922" xlink:href="#DejaVuSans-65"/>
      <use x="130.943359" xlink:href="#DejaVuSans-67"/>
     </g>
    </g>
    <g id="line2d_55">
     <path d="M 261.392727 278.326188 
L 281.392727 278.326188 
" style="fill:none;stroke:#ff0000;stroke-linecap:square;stroke-width:1.5;"/>
    </g>
    <g id="line2d_56"/>
    <g id="text_49">
     <!-- Stress -->
     <g transform="translate(289.392727 281.826188)scale(0.1 -0.1)">
      <use xlink:href="#DejaVuSans-53"/>
      <use x="63.476562" xlink:href="#DejaVuSans-74"/>
      <use x="102.685547" xlink:href="#DejaVuSans-72"/>
      <use x="143.767578" xlink:href="#DejaVuSans-65"/>
      <use x="205.291016" xlink:href="#DejaVuSans-73"/>
      <use x="257.390625" xlink:href="#DejaVuSans-73"/>
     </g>
    </g>
    <g id="line2d_57">
     <path d="M 261.392727 293.004312 
L 281.392727 293.004312 
" style="fill:none;stroke:#000000;stroke-linecap:square;stroke-width:1.5;"/>
    </g>
    <g id="line2d_58"/>
    <g id="text_50">
     <!-- Block C -->
     <g transform="translate(289.392727 296.504312)scale(0.1 -0.1)">
      <use xlink:href="#DejaVuSans-42"/>
      <use x="68.603516" xlink:href="#DejaVuSans-6c"/>
      <use x="96.386719" xlink:href="#DejaVuSans-6f"/>
      <use x="157.568359" xlink:href="#DejaVuSans-63"/>
      <use x="212.548828" xlink:href="#DejaVuSans-6b"/>
      <use x="270.458984" xlink:href="#DejaVuSans-20"/>
      <use x="302.246094" xlink:href="#DejaVuSans-43"/>
     </g>
    </g>
   </g>
  </g>
 </g>
 <defs>
  <clipPath id="p3364dd2370">
   <rect height="266.112" width="162.327273" x="57.6" y="41.472"/>
  </clipPath>
  <clipPath id="pb41213c83b">
   <rect height="266.112" width="162.327273" x="252.392727" y="41.472"/>
  </clipPath>
 </defs>
</svg>
