<?xml version="1.0" encoding="utf-8" standalone="no"?>
<!DOCTYPE svg PUBLIC "-//W3C//DTD SVG 1.1//EN"
  "http://www.w3.org/Graphics/SVG/1.1/DTD/svg11.dtd">
<!-- Created with matplotlib (http://matplotlib.org/) -->
<svg height="432pt" version="1.1" viewBox="0 0 576 432" width="576pt" xmlns="http://www.w3.org/2000/svg" xmlns:xlink="http://www.w3.org/1999/xlink">
 <defs>
  <style type="text/css">
*{stroke-linecap:butt;stroke-linejoin:round;}
  </style>
 </defs>
 <g id="figure_1">
  <g id="patch_1">
   <path d="
M0 432
L576 432
L576 0
L0 0
z
" style="fill:#ffffff;"/>
  </g>
  <g id="axes_1">
   <g id="patch_2">
    <path d="
M72 388.8
L518.4 388.8
L518.4 43.2
L72 43.2
z
" style="fill:#ffffff;"/>
   </g>
   <g id="PolyCollection_1">
    <defs>
     <path d="
M72 -75.6031
L72 -57.933
L125.215 -128.874
L178.43 -132.222
L231.645 -206.656
L284.86 -189.041
L338.075 -101.219
L391.29 -76.6725
L444.505 -66.7835
L497.72 -57.428
L550.935 -53.444
L604.15 -56.7289
L657.365 -50.4741
L710.58 -47.4075
L763.795 -46.5677
L817.01 -45.749
L870.225 -45.4942
L923.44 -45.1694
L976.655 -44.9228
L1029.87 -44.7399
L1083.09 -44.5283
L1136.3 -44.3353
L1189.52 -44.2315
L1242.73 -44.1295
L1295.95 -44.0257
L1349.16 -43.9611
L1402.38 -43.9629
L1455.59 -43.9157
L1508.81 -43.867
L1562.02 -43.7748
L1615.24 -44.099
L1615.24 -44.771
L1615.24 -44.771
L1562.02 -44.2486
L1508.81 -44.257
L1455.59 -44.3691
L1402.38 -44.4967
L1349.16 -44.5768
L1295.95 -44.5938
L1242.73 -44.866
L1189.52 -45.0059
L1136.3 -45.176
L1083.09 -45.4119
L1029.87 -45.736
L976.655 -46.0477
L923.44 -46.5595
L870.225 -46.9419
L817.01 -47.5304
L763.795 -48.7064
L710.58 -50.4059
L657.365 -55.2746
L604.15 -65.5607
L550.935 -60.533
L497.72 -66.6083
L444.505 -81.8376
L391.29 -95.862
L338.075 -135.988
L284.86 -252.465
L231.645 -274.719
L178.43 -175.573
L125.215 -206.482
L72 -75.6031
z
" id="m4960c0f1d7" style="stroke:#000000;stroke-opacity:0.5;stroke-width:0.1;"/>
    </defs>
    <g clip-path="url(#p7ff5b81e1d)">
     <use style="fill:#ff0000;fill-opacity:0.5;stroke:#000000;stroke-opacity:0.5;stroke-width:0.1;" x="0.0" xlink:href="#m4960c0f1d7" y="432.0"/>
    </g>
   </g>
   <g id="PolyCollection_2">
    <defs>
     <path d="
M72 -73.7578
L72 -57.9614
L125.215 -140.84
L178.43 -134.294
L231.645 -206.521
L284.86 -190.94
L338.075 -100.288
L391.29 -77.1553
L444.505 -67.9364
L497.72 -58.5902
L550.935 -54.3231
L604.15 -58.2921
L657.365 -51.1835
L710.58 -47.6095
L763.795 -46.8509
L817.01 -46.0274
L870.225 -45.6339
L923.44 -45.1953
L976.655 -44.9369
L1029.87 -44.7526
L1083.09 -44.5943
L1136.3 -44.4953
L1189.52 -44.3508
L1242.73 -44.2511
L1295.95 -44.1252
L1349.16 -44.0212
L1402.38 -43.9966
L1455.59 -43.9399
L1508.81 -43.8949
L1562.02 -43.8363
L1615.24 -44.1867
L1615.24 -44.7856
L1615.24 -44.7856
L1562.02 -44.26
L1508.81 -44.3124
L1455.59 -44.4645
L1402.38 -44.5679
L1349.16 -44.6398
L1295.95 -44.7802
L1242.73 -44.841
L1189.52 -44.9898
L1136.3 -45.1914
L1083.09 -45.493
L1029.87 -45.786
L976.655 -46.1325
L923.44 -46.5997
L870.225 -47.0855
L817.01 -47.7033
L763.795 -48.6708
L710.58 -49.8543
L657.365 -55.2462
L604.15 -66.2102
L550.935 -60.4761
L497.72 -66.6657
L444.505 -82.8365
L391.29 -93.5979
L338.075 -132.325
L284.86 -247.318
L231.645 -267.812
L178.43 -178.083
L125.215 -200.581
L72 -73.7578
z
" id="m11645be21d" style="stroke:#000000;stroke-opacity:0.5;stroke-width:0.1;"/>
    </defs>
    <g clip-path="url(#p7ff5b81e1d)">
     <use style="fill:#0000ff;fill-opacity:0.5;stroke:#000000;stroke-opacity:0.5;stroke-width:0.1;" x="0.0" xlink:href="#m11645be21d" y="432.0"/>
    </g>
   </g>
   <g id="PolyCollection_3">
    <defs>
     <path d="
M72 -98.9835
L72 -74.587
L125.215 -263.477
L178.43 -134.245
L231.645 -141.88
L284.86 -141.548
L338.075 -91.107
L391.29 -67.385
L444.505 -57.6744
L497.72 -52.8155
L550.935 -51.5923
L604.15 -52.1061
L657.365 -49.3264
L710.58 -47.593
L763.795 -46.5055
L817.01 -46.0642
L870.225 -45.6345
L923.44 -45.1435
L976.655 -44.8319
L1029.87 -44.6174
L1083.09 -44.4773
L1136.3 -44.289
L1189.52 -44.1518
L1242.73 -44.0534
L1295.95 -43.9639
L1349.16 -43.9056
L1402.38 -43.8434
L1455.59 -43.7753
L1508.81 -43.747
L1562.02 -43.7122
L1615.24 -43.8114
L1615.24 -44.2386
L1615.24 -44.2386
L1562.02 -44.0713
L1508.81 -44.1609
L1455.59 -44.2665
L1402.38 -44.3366
L1349.16 -44.4751
L1295.95 -44.5524
L1242.73 -44.7069
L1189.52 -44.9334
L1136.3 -45.1388
L1083.09 -45.3014
L1029.87 -45.677
L976.655 -46.0797
L923.44 -46.6088
L870.225 -47.2919
L817.01 -48.0955
L763.795 -49.6427
L710.58 -51.0361
L657.365 -53.6866
L604.15 -58.7268
L550.935 -57.2865
L497.72 -59.8562
L444.505 -67.1122
L391.29 -83.9877
L338.075 -124.839
L284.86 -202.935
L231.645 -202.019
L178.43 -170.643
L125.215 -363.109
L72 -98.9835
z
" id="m45a264409f" style="stroke:#000000;stroke-opacity:0.5;stroke-width:0.1;"/>
    </defs>
    <g clip-path="url(#p7ff5b81e1d)">
     <use style="fill:#ff0000;fill-opacity:0.5;stroke:#000000;stroke-opacity:0.5;stroke-width:0.1;" x="0.0" xlink:href="#m45a264409f" y="432.0"/>
    </g>
   </g>
   <g id="PolyCollection_4">
    <defs>
     <path d="
M72 -98.8976
L72 -76.3442
L125.215 -268.827
L178.43 -136.021
L231.645 -143.197
L284.86 -139.562
L338.075 -93.8387
L391.29 -69.8274
L444.505 -59.4271
L497.72 -54.4178
L550.935 -52.2338
L604.15 -53.313
L657.365 -50.0611
L710.58 -48.0661
L763.795 -47.2683
L817.01 -46.529
L870.225 -45.8169
L923.44 -45.3787
L976.655 -44.9889
L1029.87 -44.8532
L1083.09 -44.633
L1136.3 -44.4516
L1189.52 -44.2555
L1242.73 -44.1527
L1295.95 -44.1071
L1349.16 -44.0258
L1402.38 -43.9265
L1455.59 -43.8629
L1508.81 -43.8242
L1562.02 -43.7871
L1615.24 -43.8938
L1615.24 -44.3017
L1615.24 -44.3017
L1562.02 -44.1554
L1508.81 -44.2032
L1455.59 -44.3884
L1402.38 -44.4472
L1349.16 -44.5767
L1295.95 -44.6782
L1242.73 -44.7912
L1189.52 -44.995
L1136.3 -45.2874
L1083.09 -45.5228
L1029.87 -45.7579
L976.655 -46.1395
L923.44 -46.7965
L870.225 -47.4845
L817.01 -48.7205
L763.795 -49.8851
L710.58 -51.1483
L657.365 -54.3557
L604.15 -59.634
L550.935 -57.6675
L497.72 -60.6277
L444.505 -68.6032
L391.29 -84.5363
L338.075 -121.232
L284.86 -186.404
L231.645 -194.085
L178.43 -174.772
L125.215 -359.456
L72 -98.8976
z
" id="m2986593ca9" style="stroke:#000000;stroke-opacity:0.5;stroke-width:0.1;"/>
    </defs>
    <g clip-path="url(#p7ff5b81e1d)">
     <use style="fill:#0000ff;fill-opacity:0.5;stroke:#000000;stroke-opacity:0.5;stroke-width:0.1;" x="0.0" xlink:href="#m2986593ca9" y="432.0"/>
    </g>
   </g>
   <g id="PolyCollection_5">
    <defs>
     <path d="
M72 -84.0131
L72 -61.576
L125.215 -162.947
L178.43 -128.846
L231.645 -146.664
L284.86 -131.082
L338.075 -97.1578
L391.29 -85.9497
L444.505 -72.9692
L497.72 -64.0858
L550.935 -60.3757
L604.15 -60.0369
L657.365 -57.6612
L710.58 -55.1835
L763.795 -54.1676
L817.01 -53.8446
L870.225 -52.6726
L923.44 -51.7132
L976.655 -50.8721
L1029.87 -50.3517
L1083.09 -49.7812
L1136.3 -49.4437
L1189.52 -48.8248
L1242.73 -48.5345
L1295.95 -47.7817
L1349.16 -47.6035
L1402.38 -47.5063
L1455.59 -47.2273
L1508.81 -46.8173
L1562.02 -46.6433
L1615.24 -46.5951
L1615.24 -49.2113
L1615.24 -49.2113
L1562.02 -49.2326
L1508.81 -49.7755
L1455.59 -50.3343
L1402.38 -50.8213
L1349.16 -51.4671
L1295.95 -52.2485
L1242.73 -52.1606
L1189.52 -53.1202
L1136.3 -54.0058
L1083.09 -54.8461
L1029.87 -55.9796
L976.655 -57.0869
L923.44 -58.0025
L870.225 -58.8554
L817.01 -60.209
L763.795 -62.7436
L710.58 -63.9619
L657.365 -67.0685
L604.15 -72.4265
L550.935 -70.0681
L497.72 -76.2565
L444.505 -88.9113
L391.29 -109.47
L338.075 -128.457
L284.86 -177.16
L231.645 -203.179
L178.43 -161.357
L125.215 -246.948
L72 -84.0131
z
" id="mc76919d39d" style="stroke:#000000;stroke-opacity:0.5;stroke-width:0.1;"/>
    </defs>
    <g clip-path="url(#p7ff5b81e1d)">
     <use style="fill:#ff0000;fill-opacity:0.5;stroke:#000000;stroke-opacity:0.5;stroke-width:0.1;" x="0.0" xlink:href="#mc76919d39d" y="432.0"/>
    </g>
   </g>
   <g id="PolyCollection_6">
    <defs>
     <path d="
M72 -80.182
L72 -62.1627
L125.215 -163.911
L178.43 -128.499
L231.645 -147.357
L284.86 -131.312
L338.075 -99.1133
L391.29 -86.4602
L444.505 -75.6204
L497.72 -66.2492
L550.935 -62.9296
L604.15 -62.7694
L657.365 -59.6207
L710.58 -58.1014
L763.795 -55.8829
L817.01 -54.0612
L870.225 -53.2083
L923.44 -52.2547
L976.655 -51.1685
L1029.87 -50.3669
L1083.09 -50.2551
L1136.3 -49.5865
L1189.52 -48.9205
L1242.73 -48.644
L1295.95 -48.1551
L1349.16 -47.8141
L1402.38 -47.5226
L1455.59 -47.224
L1508.81 -47.026
L1562.02 -46.7079
L1615.24 -46.6481
L1615.24 -49.01
L1615.24 -49.01
L1562.02 -49.1146
L1508.81 -49.6842
L1455.59 -50.2642
L1402.38 -50.7856
L1349.16 -51.4278
L1295.95 -51.9158
L1242.73 -52.6541
L1189.52 -53.8463
L1136.3 -54.1351
L1083.09 -54.8259
L1029.87 -56.2783
L976.655 -57.0656
L923.44 -58.7741
L870.225 -60.0953
L817.01 -61.2619
L763.795 -62.4118
L710.58 -64.2276
L657.365 -67.7359
L604.15 -73.3858
L550.935 -72.2291
L497.72 -78.7358
L444.505 -92.5218
L391.29 -114.338
L338.075 -129.5
L284.86 -172.323
L231.645 -196.874
L178.43 -164.02
L125.215 -217.756
L72 -80.182
z
" id="m3c95f9b3e1" style="stroke:#000000;stroke-opacity:0.5;stroke-width:0.1;"/>
    </defs>
    <g clip-path="url(#p7ff5b81e1d)">
     <use style="fill:#0000ff;fill-opacity:0.5;stroke:#000000;stroke-opacity:0.5;stroke-width:0.1;" x="0.0" xlink:href="#m3c95f9b3e1" y="432.0"/>
    </g>
   </g>
   <g id="PolyCollection_7">
    <defs>
     <path d="
M72 -86.72
L72 -64.7908
L125.215 -189.509
L178.43 -132.642
L231.645 -174.401
L284.86 -166.385
L338.075 -96.9321
L391.29 -68.7078
L444.505 -58.2651
L497.72 -53.9296
L550.935 -52.4337
L604.15 -55.0893
L657.365 -50.9998
L710.58 -48.6636
L763.795 -47.6084
L817.01 -46.8205
L870.225 -46.3435
L923.44 -46.0395
L976.655 -45.6548
L1029.87 -45.3594
L1083.09 -44.9885
L1136.3 -44.8361
L1189.52 -44.7434
L1242.73 -44.6749
L1295.95 -44.4694
L1349.16 -44.366
L1402.38 -44.2267
L1455.59 -44.1759
L1508.81 -44.1139
L1562.02 -44.0771
L1615.24 -44.2262
L1615.24 -44.8698
L1615.24 -44.8698
L1562.02 -44.6314
L1508.81 -44.7684
L1455.59 -44.9272
L1402.38 -45.1048
L1349.16 -45.2369
L1295.95 -45.3469
L1242.73 -45.5541
L1189.52 -45.8027
L1136.3 -46.1025
L1083.09 -46.5899
L1029.87 -47.0833
L976.655 -47.5391
L923.44 -48.0911
L870.225 -48.9722
L817.01 -49.6376
L763.795 -51.0169
L710.58 -52.7484
L657.365 -56.7991
L604.15 -63.905
L550.935 -59.7683
L497.72 -61.5356
L444.505 -68.292
L391.29 -85.1685
L338.075 -133.43
L284.86 -233.849
L231.645 -241.353
L178.43 -171.077
L125.215 -281.48
L72 -86.72
z
" id="m04ed75c275" style="stroke:#000000;stroke-opacity:0.5;stroke-width:0.1;"/>
    </defs>
    <g clip-path="url(#p7ff5b81e1d)">
     <use style="fill:#ff0000;fill-opacity:0.5;stroke:#000000;stroke-opacity:0.5;stroke-width:0.1;" x="0.0" xlink:href="#m04ed75c275" y="432.0"/>
    </g>
   </g>
   <g id="PolyCollection_8">
    <defs>
     <path d="
M72 -87.3076
L72 -68.622
L125.215 -202.902
L178.43 -139.359
L231.645 -168.069
L284.86 -158.445
L338.075 -98.5824
L391.29 -71.805
L444.505 -61.3256
L497.72 -55.8542
L550.935 -54.4117
L604.15 -57.7268
L657.365 -52.3571
L710.58 -49.2951
L763.795 -48.3687
L817.01 -47.4138
L870.225 -46.8275
L923.44 -46.3977
L976.655 -45.9736
L1029.87 -45.6896
L1083.09 -45.3269
L1136.3 -45.1251
L1189.52 -44.9407
L1242.73 -44.7037
L1295.95 -44.6844
L1349.16 -44.5535
L1402.38 -44.4407
L1455.59 -44.3827
L1508.81 -44.248
L1562.02 -44.1484
L1615.24 -44.3798
L1615.24 -45.0862
L1615.24 -45.0862
L1562.02 -44.8211
L1508.81 -44.8723
L1455.59 -45.0779
L1402.38 -45.1734
L1349.16 -45.4064
L1295.95 -45.5933
L1242.73 -45.8492
L1189.52 -45.9651
L1136.3 -46.2986
L1083.09 -46.7163
L1029.87 -47.3387
L976.655 -47.8426
L923.44 -48.2407
L870.225 -49.1651
L817.01 -49.8475
L763.795 -51.0633
L710.58 -53.0656
L657.365 -57.1468
L604.15 -65.4857
L550.935 -60.713
L497.72 -63.3367
L444.505 -70.5945
L391.29 -86.8424
L338.075 -124.955
L284.86 -208.632
L231.645 -228.559
L178.43 -178.041
L125.215 -282.333
L72 -87.3076
z
" id="m05046cec87" style="stroke:#000000;stroke-opacity:0.5;stroke-width:0.1;"/>
    </defs>
    <g clip-path="url(#p7ff5b81e1d)">
     <use style="fill:#0000ff;fill-opacity:0.5;stroke:#000000;stroke-opacity:0.5;stroke-width:0.1;" x="0.0" xlink:href="#m05046cec87" y="432.0"/>
    </g>
   </g>
   <g id="PolyCollection_9">
    <defs>
     <path d="
M72 -82.3821
L72 -62.7313
L125.215 -177.974
L178.43 -127.594
L231.645 -203.578
L284.86 -187.555
L338.075 -89.9994
L391.29 -61.8471
L444.505 -55.1999
L497.72 -51.4245
L550.935 -50.1194
L604.15 -51.9523
L657.365 -48.6021
L710.58 -46.6267
L763.795 -45.8504
L817.01 -45.5118
L870.225 -45.2008
L923.44 -44.8286
L976.655 -44.6549
L1029.87 -44.4326
L1083.09 -44.3058
L1136.3 -44.2341
L1189.52 -44.1482
L1242.73 -44.0312
L1295.95 -43.9475
L1349.16 -43.877
L1402.38 -43.8369
L1455.59 -43.7894
L1508.81 -43.7574
L1562.02 -43.699
L1615.24 -43.8855
L1615.24 -44.3663
L1615.24 -44.3663
L1562.02 -44.1595
L1508.81 -44.1737
L1455.59 -44.2402
L1402.38 -44.326
L1349.16 -44.4445
L1295.95 -44.5265
L1242.73 -44.688
L1189.52 -44.9274
L1136.3 -45.0997
L1083.09 -45.1852
L1029.87 -45.442
L976.655 -45.7547
L923.44 -46.2329
L870.225 -46.6878
L817.01 -47.4859
L763.795 -48.2395
L710.58 -49.3986
L657.365 -52.4876
L604.15 -58.2687
L550.935 -55.1282
L497.72 -56.8098
L444.505 -62.5023
L391.29 -74.0487
L338.075 -123.403
L284.86 -262.823
L231.645 -283.966
L178.43 -166.599
L125.215 -281.738
L72 -82.3821
z
" id="m065f9d77e2" style="stroke:#000000;stroke-opacity:0.5;stroke-width:0.1;"/>
    </defs>
    <g clip-path="url(#p7ff5b81e1d)">
     <use style="fill:#ff0000;fill-opacity:0.5;stroke:#000000;stroke-opacity:0.5;stroke-width:0.1;" x="0.0" xlink:href="#m065f9d77e2" y="432.0"/>
    </g>
   </g>
   <g id="PolyCollection_10">
    <defs>
     <path d="
M72 -84.0115
L72 -65.3392
L125.215 -192.946
L178.43 -134.529
L231.645 -198.953
L284.86 -185.647
L338.075 -91.3084
L391.29 -62.6761
L444.505 -55.5593
L497.72 -52.5777
L550.935 -50.9532
L604.15 -53.0096
L657.365 -48.8438
L710.58 -46.7004
L763.795 -46.0953
L817.01 -45.5665
L870.225 -45.2683
L923.44 -44.9843
L976.655 -44.6904
L1029.87 -44.5479
L1083.09 -44.4227
L1136.3 -44.328
L1189.52 -44.2146
L1242.73 -44.1588
L1295.95 -44.0528
L1349.16 -43.9481
L1402.38 -43.8926
L1455.59 -43.8575
L1508.81 -43.781
L1562.02 -43.7497
L1615.24 -43.9592
L1615.24 -44.416
L1615.24 -44.416
L1562.02 -44.1207
L1508.81 -44.2091
L1455.59 -44.3528
L1402.38 -44.4115
L1349.16 -44.5511
L1295.95 -44.6083
L1242.73 -44.6987
L1189.52 -44.8423
L1136.3 -44.9323
L1083.09 -45.104
L1029.87 -45.4524
L976.655 -45.8013
L923.44 -46.1821
L870.225 -46.5974
L817.01 -47.0204
L763.795 -47.7091
L710.58 -48.8498
L657.365 -52.0473
L604.15 -58.8068
L550.935 -55.521
L497.72 -57.3862
L444.505 -62.8643
L391.29 -73.9775
L338.075 -117.757
L284.86 -239.308
L231.645 -275.573
L178.43 -171.237
L125.215 -288.949
L72 -84.0115
z
" id="m12b11a91d7" style="stroke:#000000;stroke-opacity:0.5;stroke-width:0.1;"/>
    </defs>
    <g clip-path="url(#p7ff5b81e1d)">
     <use style="fill:#0000ff;fill-opacity:0.5;stroke:#000000;stroke-opacity:0.5;stroke-width:0.1;" x="0.0" xlink:href="#m12b11a91d7" y="432.0"/>
    </g>
   </g>
   <g id="PolyCollection_11">
    <defs>
     <path d="
M72 -82.6025
L72 -63.363
L125.215 -163.476
L178.43 -126.863
L231.645 -158.806
L284.86 -146.75
L338.075 -99.704
L391.29 -80.8905
L444.505 -68.6757
L497.72 -61.6432
L550.935 -58.5949
L604.15 -59.7666
L657.365 -55.266
L710.58 -53.015
L763.795 -51.827
L817.01 -50.1999
L870.225 -49.2938
L923.44 -48.1879
L976.655 -47.4447
L1029.87 -46.8892
L1083.09 -46.5188
L1136.3 -46.1425
L1189.52 -45.8634
L1242.73 -45.5551
L1295.95 -45.3945
L1349.16 -45.2831
L1402.38 -45.1125
L1455.59 -45.0137
L1508.81 -44.9253
L1562.02 -44.7724
L1615.24 -44.8722
L1615.24 -45.9394
L1615.24 -45.9394
L1562.02 -45.7337
L1508.81 -46.0483
L1455.59 -46.2978
L1402.38 -46.5313
L1349.16 -46.696
L1295.95 -47.0944
L1242.73 -47.3094
L1189.52 -47.8397
L1136.3 -48.35
L1083.09 -49.0579
L1029.87 -49.7307
L976.655 -50.3818
L923.44 -51.8338
L870.225 -53.4448
L817.01 -55.0082
L763.795 -56.7114
L710.58 -58.4287
L657.365 -63.0232
L604.15 -71.0649
L550.935 -68.227
L497.72 -72.719
L444.505 -83.319
L391.29 -105.713
L338.075 -135.083
L284.86 -202.511
L231.645 -215.738
L178.43 -163.372
L125.215 -255.965
L72 -82.6025
z
" id="m12aee8e92a" style="stroke:#000000;stroke-opacity:0.5;stroke-width:0.1;"/>
    </defs>
    <g clip-path="url(#p7ff5b81e1d)">
     <use style="fill:#ff0000;fill-opacity:0.5;stroke:#000000;stroke-opacity:0.5;stroke-width:0.1;" x="0.0" xlink:href="#m12aee8e92a" y="432.0"/>
    </g>
   </g>
   <g id="PolyCollection_12">
    <defs>
     <path d="
M72 -83.9921
L72 -64.763
L125.215 -180.987
L178.43 -134.352
L231.645 -158.784
L284.86 -145.012
L338.075 -98.9592
L391.29 -80.9399
L444.505 -70.2321
L497.72 -62.6431
L550.935 -59.1462
L604.15 -61.2347
L657.365 -56.5246
L710.58 -53.8923
L763.795 -52.2196
L817.01 -51.151
L870.225 -49.9296
L923.44 -48.7025
L976.655 -48.1601
L1029.87 -47.2636
L1083.09 -46.8012
L1136.3 -46.5378
L1189.52 -46.2271
L1242.73 -45.958
L1295.95 -45.726
L1349.16 -45.4965
L1402.38 -45.425
L1455.59 -45.1362
L1508.81 -44.9188
L1562.02 -44.8334
L1615.24 -45.0331
L1615.24 -46.0893
L1615.24 -46.0893
L1562.02 -45.8886
L1508.81 -46.2382
L1455.59 -46.4467
L1402.38 -46.5866
L1349.16 -46.9126
L1295.95 -47.3227
L1242.73 -47.5852
L1189.52 -47.9663
L1136.3 -48.4935
L1083.09 -49.1526
L1029.87 -49.7102
L976.655 -50.9839
L923.44 -52.4479
L870.225 -53.9031
L817.01 -55.5417
L763.795 -56.8919
L710.58 -59.048
L657.365 -63.884
L604.15 -71.2237
L550.935 -68.1604
L497.72 -72.3766
L444.505 -82.7549
L391.29 -102.674
L338.075 -126.56
L284.86 -188.586
L231.645 -212.085
L178.43 -167.625
L125.215 -243.202
L72 -83.9921
z
" id="mf0af541bce" style="stroke:#000000;stroke-opacity:0.5;stroke-width:0.1;"/>
    </defs>
    <g clip-path="url(#p7ff5b81e1d)">
     <use style="fill:#0000ff;fill-opacity:0.5;stroke:#000000;stroke-opacity:0.5;stroke-width:0.1;" x="0.0" xlink:href="#mf0af541bce" y="432.0"/>
    </g>
   </g>
   <g id="PolyCollection_13">
    <defs>
     <path d="
M72 -83.4081
L72 -62.9808
L125.215 -171.359
L178.43 -144.511
L231.645 -182.958
L284.86 -163.614
L338.075 -95.5203
L391.29 -68.4711
L444.505 -59.6752
L497.72 -56.1948
L550.935 -54.5595
L604.15 -56.551
L657.365 -52.3685
L710.58 -49.6777
L763.795 -48.704
L817.01 -48.1184
L870.225 -47.8327
L923.44 -47.2189
L976.655 -46.7191
L1029.87 -46.2489
L1083.09 -46.1865
L1136.3 -45.9255
L1189.52 -45.5064
L1242.73 -45.3939
L1295.95 -45.2391
L1349.16 -45.0769
L1402.38 -44.9157
L1455.59 -44.8278
L1508.81 -44.7081
L1562.02 -44.5553
L1615.24 -44.6894
L1615.24 -45.6437
L1615.24 -45.6437
L1562.02 -45.5294
L1508.81 -45.7324
L1455.59 -45.9488
L1402.38 -46.1202
L1349.16 -46.3051
L1295.95 -46.4607
L1242.73 -46.743
L1189.52 -47.1707
L1136.3 -47.396
L1083.09 -47.9171
L1029.87 -48.3666
L976.655 -48.855
L923.44 -49.4743
L870.225 -50.5858
L817.01 -51.811
L763.795 -53.09
L710.58 -54.0615
L657.365 -58.2093
L604.15 -65.2892
L550.935 -62.2447
L497.72 -64.5587
L444.505 -70.6868
L391.29 -84.1719
L338.075 -123.511
L284.86 -224.642
L231.645 -247.53
L178.43 -182.197
L125.215 -256.428
L72 -83.4081
z
" id="m972d81c842" style="stroke:#000000;stroke-opacity:0.5;stroke-width:0.1;"/>
    </defs>
    <g clip-path="url(#p7ff5b81e1d)">
     <use style="fill:#ff0000;fill-opacity:0.5;stroke:#000000;stroke-opacity:0.5;stroke-width:0.1;" x="0.0" xlink:href="#m972d81c842" y="432.0"/>
    </g>
   </g>
   <g id="PolyCollection_14">
    <defs>
     <path d="
M72 -82.3818
L72 -64.5391
L125.215 -180.704
L178.43 -153.45
L231.645 -181.796
L284.86 -159.176
L338.075 -96.7173
L391.29 -72.7812
L444.505 -62.826
L497.72 -57.3874
L550.935 -55.4042
L604.15 -57.1927
L657.365 -52.4761
L710.58 -49.9162
L763.795 -48.9926
L817.01 -48.3905
L870.225 -47.6549
L923.44 -47.2595
L976.655 -46.7647
L1029.87 -46.493
L1083.09 -46.0872
L1136.3 -45.9835
L1189.52 -45.7447
L1242.73 -45.4554
L1295.95 -45.3281
L1349.16 -45.133
L1402.38 -45.0528
L1455.59 -44.8713
L1508.81 -44.6553
L1562.02 -44.634
L1615.24 -44.7684
L1615.24 -45.662
L1615.24 -45.662
L1562.02 -45.493
L1508.81 -45.6972
L1455.59 -45.9465
L1402.38 -46.1592
L1349.16 -46.4155
L1295.95 -46.6544
L1242.73 -46.7917
L1189.52 -46.9867
L1136.3 -47.3657
L1083.09 -47.8048
L1029.87 -48.5106
L976.655 -48.981
L923.44 -49.3983
L870.225 -50.0365
L817.01 -51.1623
L763.795 -52.6142
L710.58 -54.4001
L657.365 -58.2796
L604.15 -65.9112
L550.935 -62.7677
L497.72 -65.4195
L444.505 -72.6618
L391.29 -87.2918
L338.075 -123.59
L284.86 -203.774
L231.645 -236.878
L178.43 -192.665
L125.215 -246.232
L72 -82.3818
z
" id="mb71302e950" style="stroke:#000000;stroke-opacity:0.5;stroke-width:0.1;"/>
    </defs>
    <g clip-path="url(#p7ff5b81e1d)">
     <use style="fill:#0000ff;fill-opacity:0.5;stroke:#000000;stroke-opacity:0.5;stroke-width:0.1;" x="0.0" xlink:href="#mb71302e950" y="432.0"/>
    </g>
   </g>
   <g id="PolyCollection_15">
    <defs>
     <path d="
M72 -58.8807
L72 -50.203
L125.215 -81.2413
L178.43 -129.374
L231.645 -272.635
L284.86 -244.786
L338.075 -98.4429
L391.29 -68.387
L444.505 -62.2055
L497.72 -54.1805
L550.935 -49.2757
L604.15 -48.064
L657.365 -46.424
L710.58 -45.3634
L763.795 -44.9139
L817.01 -44.6178
L870.225 -44.4086
L923.44 -44.3005
L976.655 -44.15
L1029.87 -44.0128
L1083.09 -43.9325
L1136.3 -43.8747
L1189.52 -43.8322
L1242.73 -43.7595
L1295.95 -43.7243
L1349.16 -43.69
L1402.38 -43.6561
L1455.59 -43.5971
L1508.81 -43.5671
L1562.02 -43.5268
L1615.24 -43.5531
L1615.24 -43.9533
L1615.24 -43.9533
L1562.02 -43.9151
L1508.81 -43.9506
L1455.59 -43.997
L1402.38 -44.0147
L1349.16 -44.0683
L1295.95 -44.178
L1242.73 -44.334
L1189.52 -44.3964
L1136.3 -44.507
L1083.09 -44.5795
L1029.87 -44.8346
L976.655 -45.1216
L923.44 -45.1797
L870.225 -45.4127
L817.01 -45.9187
L763.795 -46.4913
L710.58 -47.17
L657.365 -49.0828
L604.15 -51.8491
L550.935 -52.8668
L497.72 -61.1442
L444.505 -74.8185
L391.29 -82.2148
L338.075 -133.982
L284.86 -312.376
L231.645 -344.425
L178.43 -193.161
L125.215 -121.568
L72 -58.8807
z
" id="m9a959e4f3e" style="stroke:#000000;stroke-opacity:0.5;stroke-width:0.1;"/>
    </defs>
    <g clip-path="url(#p7ff5b81e1d)">
     <use style="fill:#ff0000;fill-opacity:0.5;stroke:#000000;stroke-opacity:0.5;stroke-width:0.1;" x="0.0" xlink:href="#m9a959e4f3e" y="432.0"/>
    </g>
   </g>
   <g id="PolyCollection_16">
    <defs>
     <path d="
M72 -57.4552
L72 -50.8363
L125.215 -84.2442
L178.43 -134.203
L231.645 -273.726
L284.86 -236.31
L338.075 -97.1418
L391.29 -68.7662
L444.505 -62.5889
L497.72 -53.7584
L550.935 -48.959
L604.15 -48.2215
L657.365 -46.3561
L710.58 -45.1987
L763.795 -44.8238
L817.01 -44.537
L870.225 -44.3752
L923.44 -44.2216
L976.655 -44.0925
L1029.87 -43.994
L1083.09 -43.8723
L1136.3 -43.8178
L1189.52 -43.7951
L1242.73 -43.7336
L1295.95 -43.6552
L1349.16 -43.6111
L1402.38 -43.5897
L1455.59 -43.5691
L1508.81 -43.5184
L1562.02 -43.5032
L1615.24 -43.551
L1615.24 -43.8898
L1615.24 -43.8898
L1562.02 -43.8323
L1508.81 -43.8587
L1455.59 -43.9128
L1402.38 -44.0084
L1349.16 -44.079
L1295.95 -44.1526
L1242.73 -44.2214
L1189.52 -44.2968
L1136.3 -44.4529
L1083.09 -44.6217
L1029.87 -44.814
L976.655 -45.0165
L923.44 -45.2453
L870.225 -45.439
L817.01 -45.7801
L763.795 -46.0846
L710.58 -47.0047
L657.365 -48.7158
L604.15 -51.3549
L550.935 -52.5701
L497.72 -61.0311
L444.505 -74.4063
L391.29 -82.7294
L338.075 -133.89
L284.86 -310.677
L231.645 -343.439
L178.43 -203.316
L125.215 -118.038
L72 -57.4552
z
" id="m397985e4d9" style="stroke:#000000;stroke-opacity:0.5;stroke-width:0.1;"/>
    </defs>
    <g clip-path="url(#p7ff5b81e1d)">
     <use style="fill:#0000ff;fill-opacity:0.5;stroke:#000000;stroke-opacity:0.5;stroke-width:0.1;" x="0.0" xlink:href="#m397985e4d9" y="432.0"/>
    </g>
   </g>
   <g id="PolyCollection_17">
    <defs>
     <path d="
M72 -100.477
L72 -75.0228
L125.215 -255.039
L178.43 -147.488
L231.645 -136.277
L284.86 -130.434
L338.075 -98.7273
L391.29 -74.7001
L444.505 -61.193
L497.72 -55.199
L550.935 -52.6354
L604.15 -52.5468
L657.365 -49.9655
L710.58 -48.1535
L763.795 -47.3564
L817.01 -46.7952
L870.225 -46.3374
L923.44 -45.8327
L976.655 -45.6019
L1029.87 -45.3311
L1083.09 -45.1462
L1136.3 -44.9872
L1189.52 -44.7941
L1242.73 -44.625
L1295.95 -44.5168
L1349.16 -44.3333
L1402.38 -44.3119
L1455.59 -44.2462
L1508.81 -44.2176
L1562.02 -44.1214
L1615.24 -44.1173
L1615.24 -44.8137
L1615.24 -44.8137
L1562.02 -44.7298
L1508.81 -44.9245
L1455.59 -45.045
L1402.38 -45.1799
L1349.16 -45.4809
L1295.95 -45.615
L1242.73 -45.6064
L1189.52 -45.9639
L1136.3 -46.384
L1083.09 -46.5351
L1029.87 -46.8347
L976.655 -47.3835
L923.44 -47.9576
L870.225 -48.4616
L817.01 -49.5951
L763.795 -50.7236
L710.58 -52.2701
L657.365 -54.5288
L604.15 -59.1895
L550.935 -58.7963
L497.72 -62.785
L444.505 -70.8197
L391.29 -93.6266
L338.075 -132.218
L284.86 -175.71
L231.645 -188.517
L178.43 -180.215
L125.215 -343.913
L72 -100.477
z
" id="m88444e9c10" style="stroke:#000000;stroke-opacity:0.5;stroke-width:0.1;"/>
    </defs>
    <g clip-path="url(#p7ff5b81e1d)">
     <use style="fill:#ff0000;fill-opacity:0.5;stroke:#000000;stroke-opacity:0.5;stroke-width:0.1;" x="0.0" xlink:href="#m88444e9c10" y="432.0"/>
    </g>
   </g>
   <g id="PolyCollection_18">
    <defs>
     <path d="
M72 -99.7932
L72 -73.0949
L125.215 -263.051
L178.43 -145.099
L231.645 -132.967
L284.86 -128.318
L338.075 -98.6342
L391.29 -75.8082
L444.505 -62.8266
L497.72 -56.2171
L550.935 -53.2017
L604.15 -52.8956
L657.365 -49.8062
L710.58 -48.5003
L763.795 -47.6221
L817.01 -47.2676
L870.225 -46.6693
L923.44 -46.3259
L976.655 -45.8555
L1029.87 -45.6094
L1083.09 -45.3397
L1136.3 -45.1261
L1189.52 -44.9312
L1242.73 -44.8372
L1295.95 -44.7207
L1349.16 -44.5838
L1402.38 -44.4719
L1455.59 -44.3349
L1508.81 -44.243
L1562.02 -44.1486
L1615.24 -44.1757
L1615.24 -44.8687
L1615.24 -44.8687
L1562.02 -44.8504
L1508.81 -44.9054
L1455.59 -45.0494
L1402.38 -45.2355
L1349.16 -45.4668
L1295.95 -45.6016
L1242.73 -45.8355
L1189.52 -46.0273
L1136.3 -46.4026
L1083.09 -46.7559
L1029.87 -47.1817
L976.655 -47.8023
L923.44 -48.2857
L870.225 -49.0292
L817.01 -49.6508
L763.795 -50.5849
L710.58 -51.8
L657.365 -54.5505
L604.15 -58.9841
L550.935 -58.7911
L497.72 -63.7748
L444.505 -72.427
L391.29 -92.5334
L338.075 -133.063
L284.86 -167.783
L231.645 -182.024
L178.43 -186.315
L125.215 -345.477
L72 -99.7932
z
" id="m3bddd260eb" style="stroke:#000000;stroke-opacity:0.5;stroke-width:0.1;"/>
    </defs>
    <g clip-path="url(#p7ff5b81e1d)">
     <use style="fill:#0000ff;fill-opacity:0.5;stroke:#000000;stroke-opacity:0.5;stroke-width:0.1;" x="0.0" xlink:href="#m3bddd260eb" y="432.0"/>
    </g>
   </g>
   <g id="PolyCollection_19">
    <defs>
     <path d="
M72 -101.239
L72 -76.6033
L125.215 -243.779
L178.43 -128.458
L231.645 -148.344
L284.86 -155.635
L338.075 -95.7504
L391.29 -68.2515
L444.505 -61.0818
L497.72 -55.1748
L550.935 -51.7902
L604.15 -51.3782
L657.365 -48.8827
L710.58 -47.2405
L763.795 -46.67
L817.01 -46.0224
L870.225 -45.7301
L923.44 -45.4944
L976.655 -45.2141
L1029.87 -44.9805
L1083.09 -44.7367
L1136.3 -44.5525
L1189.52 -44.4147
L1242.73 -44.3601
L1295.95 -44.226
L1349.16 -44.1494
L1402.38 -44.068
L1455.59 -44.0233
L1508.81 -43.9496
L1562.02 -43.9016
L1615.24 -43.9874
L1615.24 -44.5683
L1615.24 -44.5683
L1562.02 -44.4269
L1508.81 -44.4568
L1455.59 -44.5834
L1402.38 -44.7688
L1349.16 -44.8512
L1295.95 -45.0208
L1242.73 -45.1619
L1189.52 -45.4605
L1136.3 -45.6786
L1083.09 -45.981
L1029.87 -46.1128
L976.655 -46.3315
L923.44 -46.8003
L870.225 -47.3327
L817.01 -47.8011
L763.795 -48.8117
L710.58 -50.0933
L657.365 -52.5435
L604.15 -56.5767
L550.935 -56.521
L497.72 -63.158
L444.505 -72.9469
L391.29 -81.9915
L338.075 -124.875
L284.86 -218.634
L231.645 -204.32
L178.43 -164.614
L125.215 -339.682
L72 -101.239
z
" id="m983023ca67" style="stroke:#000000;stroke-opacity:0.5;stroke-width:0.1;"/>
    </defs>
    <g clip-path="url(#p7ff5b81e1d)">
     <use style="fill:#ff0000;fill-opacity:0.5;stroke:#000000;stroke-opacity:0.5;stroke-width:0.1;" x="0.0" xlink:href="#m983023ca67" y="432.0"/>
    </g>
   </g>
   <g id="PolyCollection_20">
    <defs>
     <path d="
M72 -99.2521
L72 -75.6817
L125.215 -260.627
L178.43 -137.228
L231.645 -142.051
L284.86 -152.753
L338.075 -94.9502
L391.29 -67.5977
L444.505 -60.8313
L497.72 -56.1718
L550.935 -52.0858
L604.15 -51.586
L657.365 -49.0396
L710.58 -47.2885
L763.795 -46.6398
L817.01 -46.1337
L870.225 -45.786
L923.44 -45.3722
L976.655 -45.142
L1029.87 -45.0144
L1083.09 -44.7802
L1136.3 -44.6546
L1189.52 -44.48
L1242.73 -44.3771
L1295.95 -44.2713
L1349.16 -44.2092
L1402.38 -44.1512
L1455.59 -44.0827
L1508.81 -43.9588
L1562.02 -43.919
L1615.24 -44.0381
L1615.24 -44.5225
L1615.24 -44.5225
L1562.02 -44.4152
L1508.81 -44.4755
L1455.59 -44.6077
L1402.38 -44.7341
L1349.16 -44.8811
L1295.95 -44.9479
L1242.73 -45.0803
L1189.52 -45.3007
L1136.3 -45.4765
L1083.09 -45.6696
L1029.87 -45.9692
L976.655 -46.2714
L923.44 -46.8236
L870.225 -47.5659
L817.01 -48.0172
L763.795 -48.7542
L710.58 -49.8207
L657.365 -52.112
L604.15 -56.6884
L550.935 -57.6896
L497.72 -63.3212
L444.505 -71.6397
L391.29 -79.3937
L338.075 -119.3
L284.86 -206.862
L231.645 -195.161
L178.43 -170.466
L125.215 -349.604
L72 -99.2521
z
" id="m2048f9da8a" style="stroke:#000000;stroke-opacity:0.5;stroke-width:0.1;"/>
    </defs>
    <g clip-path="url(#p7ff5b81e1d)">
     <use style="fill:#0000ff;fill-opacity:0.5;stroke:#000000;stroke-opacity:0.5;stroke-width:0.1;" x="0.0" xlink:href="#m2048f9da8a" y="432.0"/>
    </g>
   </g>
   <g id="line2d_1">
    <path clip-path="url(#p7ff5b81e1d)" d="
M72 365.232
L125.215 264.322
L178.43 278.102
L231.645 191.312
L284.86 211.247
L338.075 313.396
L391.29 345.733
L444.505 357.689
L497.72 369.982
L550.935 375.012
L577 372.976" style="fill:none;stroke:#ff0000;stroke-linecap:square;"/>
   </g>
   <g id="line2d_2">
    <path clip-path="url(#p7ff5b81e1d)" d="
M72 366.14
L125.215 261.289
L178.43 275.811
L231.645 194.834
L284.86 212.871
L338.075 315.694
L391.29 346.623
L444.505 356.614
L497.72 369.372
L550.935 374.6
L577 372.224" style="fill:none;stroke:#0000ff;stroke-linecap:square;"/>
   </g>
   <g id="line2d_3">
    <path clip-path="url(#p7ff5b81e1d)" d="
M72 345.215
L125.215 118.707
L178.43 279.556
L231.645 260.051
L284.86 259.759
L338.075 324.027
L391.29 356.314
L444.505 369.607
L497.72 375.664
L550.935 377.561
L577 377.082" style="fill:none;stroke:#ff0000;stroke-linecap:square;"/>
   </g>
   <g id="line2d_4">
    <path clip-path="url(#p7ff5b81e1d)" d="
M72 344.379
L125.215 117.859
L178.43 276.604
L231.645 263.359
L284.86 269.017
L338.075 324.464
L391.29 354.818
L444.505 367.985
L497.72 374.477
L550.935 377.049
L577 376.303" style="fill:none;stroke:#0000ff;stroke-linecap:square;"/>
   </g>
   <g id="line2d_5">
    <path clip-path="url(#p7ff5b81e1d)" d="
M72 359.205
L125.215 227.052
L178.43 286.898
L231.645 257.079
L284.86 277.879
L338.075 319.193
L391.29 334.29
L444.505 351.06
L497.72 361.829
L550.935 366.778
L577 366.284" style="fill:none;stroke:#ff0000;stroke-linecap:square;"/>
   </g>
   <g id="line2d_6">
    <path clip-path="url(#p7ff5b81e1d)" d="
M72 360.828
L125.215 241.167
L178.43 285.741
L231.645 259.885
L284.86 280.183
L338.075 317.693
L391.29 331.601
L444.505 347.929
L497.72 359.507
L550.935 364.421
L577 364.177" style="fill:none;stroke:#0000ff;stroke-linecap:square;"/>
   </g>
   <g id="line2d_7">
    <path clip-path="url(#p7ff5b81e1d)" d="
M72 356.245
L125.215 196.505
L178.43 280.141
L231.645 224.123
L284.86 231.883
L338.075 316.819
L391.29 355.062
L444.505 368.721
L497.72 374.267
L550.935 375.899
L577 374.236" style="fill:none;stroke:#ff0000;stroke-linecap:square;"/>
   </g>
   <g id="line2d_8">
    <path clip-path="url(#p7ff5b81e1d)" d="
M72 354.035
L125.215 189.382
L178.43 273.3
L231.645 233.686
L284.86 248.461
L338.075 320.231
L391.29 352.676
L444.505 366.04
L497.72 372.405
L550.935 374.438
L577 372.457" style="fill:none;stroke:#0000ff;stroke-linecap:square;"/>
   </g>
   <g id="line2d_9">
    <path clip-path="url(#p7ff5b81e1d)" d="
M72 359.443
L125.215 202.144
L178.43 284.903
L231.645 188.228
L284.86 206.811
L338.075 325.299
L391.29 364.052
L444.505 373.149
L497.72 377.883
L550.935 379.376
L577 378.158" style="fill:none;stroke:#ff0000;stroke-linecap:square;"/>
   </g>
   <g id="line2d_10">
    <path clip-path="url(#p7ff5b81e1d)" d="
M72 357.325
L125.215 191.053
L178.43 279.117
L231.645 194.737
L284.86 219.522
L338.075 327.467
L391.29 363.673
L444.505 372.788
L497.72 377.018
L550.935 378.763
L577 377.455" style="fill:none;stroke:#0000ff;stroke-linecap:square;"/>
   </g>
   <g id="line2d_11">
    <path clip-path="url(#p7ff5b81e1d)" d="
M72 359.017
L125.215 222.279
L178.43 286.882
L231.645 244.728
L284.86 257.369
L338.075 314.607
L391.29 338.698
L444.505 356.003
L497.72 364.819
L550.935 368.589
L577 367.607" style="fill:none;stroke:#ff0000;stroke-linecap:square;"/>
   </g>
   <g id="line2d_12">
    <path clip-path="url(#p7ff5b81e1d)" d="
M72 357.622
L125.215 219.906
L178.43 281.011
L231.645 246.565
L284.86 265.201
L338.075 319.241
L391.29 340.193
L444.505 355.507
L497.72 364.49
L550.935 368.347
L577 367.085" style="fill:none;stroke:#0000ff;stroke-linecap:square;"/>
   </g>
   <g id="line2d_13">
    <path clip-path="url(#p7ff5b81e1d)" d="
M72 358.806
L125.215 218.107
L178.43 268.646
L231.645 216.756
L284.86 237.872
L338.075 322.484
L391.29 355.679
L444.505 366.819
L497.72 371.623
L550.935 373.598
L577 372.365" style="fill:none;stroke:#ff0000;stroke-linecap:square;"/>
   </g>
   <g id="line2d_14">
    <path clip-path="url(#p7ff5b81e1d)" d="
M72 358.54
L125.215 218.532
L178.43 258.943
L231.645 222.663
L284.86 250.525
L338.075 321.846
L391.29 351.964
L444.505 364.256
L497.72 370.597
L550.935 372.914
L577 371.706" style="fill:none;stroke:#0000ff;stroke-linecap:square;"/>
   </g>
   <g id="line2d_15">
    <path clip-path="url(#p7ff5b81e1d)" d="
M72 377.458
L125.215 330.596
L178.43 270.732
L231.645 123.47
L284.86 153.419
L338.075 315.787
L391.29 356.699
L444.505 363.488
L497.72 374.338
L550.935 380.929
L577 381.475" style="fill:none;stroke:#ff0000;stroke-linecap:square;"/>
   </g>
   <g id="line2d_16">
    <path clip-path="url(#p7ff5b81e1d)" d="
M72 377.854
L125.215 330.859
L178.43 263.24
L231.645 123.417
L284.86 158.507
L338.075 316.484
L391.29 356.252
L444.505 363.502
L497.72 374.605
L550.935 381.235
L577 381.714" style="fill:none;stroke:#0000ff;stroke-linecap:square;"/>
   </g>
   <g id="line2d_17">
    <path clip-path="url(#p7ff5b81e1d)" d="
M72 344.25
L125.215 132.524
L178.43 268.149
L231.645 269.603
L284.86 278.928
L338.075 316.527
L391.29 347.837
L444.505 365.994
L497.72 373.008
L550.935 376.284
L577 376.21" style="fill:none;stroke:#ff0000;stroke-linecap:square;"/>
   </g>
   <g id="line2d_18">
    <path clip-path="url(#p7ff5b81e1d)" d="
M72 345.556
L125.215 127.736
L178.43 266.293
L231.645 274.505
L284.86 283.95
L338.075 316.151
L391.29 347.829
L444.505 364.373
L497.72 372.004
L550.935 376.004
L577 376.031" style="fill:none;stroke:#0000ff;stroke-linecap:square;"/>
   </g>
   <g id="line2d_19">
    <path clip-path="url(#p7ff5b81e1d)" d="
M72 343.079
L125.215 140.27
L178.43 285.464
L231.645 255.668
L284.86 244.865
L338.075 321.687
L391.29 356.878
L444.505 364.986
L497.72 372.834
L550.935 377.844
L577 377.932" style="fill:none;stroke:#ff0000;stroke-linecap:square;"/>
   </g>
   <g id="line2d_20">
    <path clip-path="url(#p7ff5b81e1d)" d="
M72 344.533
L125.215 126.885
L178.43 278.153
L231.645 263.394
L284.86 252.193
L338.075 324.875
L391.29 358.504
L444.505 365.764
L497.72 372.254
L550.935 377.112
L577 377.48" style="fill:none;stroke:#0000ff;stroke-linecap:square;"/>
   </g>
   <g id="patch_3">
    <path d="
M72 43.2
L518.4 43.2" style="fill:none;stroke:#000000;stroke-linecap:square;stroke-linejoin:miter;"/>
   </g>
   <g id="patch_4">
    <path d="
M518.4 388.8
L518.4 43.2" style="fill:none;stroke:#000000;stroke-linecap:square;stroke-linejoin:miter;"/>
   </g>
   <g id="patch_5">
    <path d="
M72 388.8
L518.4 388.8" style="fill:none;stroke:#000000;stroke-linecap:square;stroke-linejoin:miter;"/>
   </g>
   <g id="patch_6">
    <path d="
M72 388.8
L72 43.2" style="fill:none;stroke:#000000;stroke-linecap:square;stroke-linejoin:miter;"/>
   </g>
   <g id="matplotlib.axis_1">
    <g id="xtick_1">
     <g id="line2d_21">
      <defs>
       <path d="
M0 0
L0 -4" id="m93b0483c22" style="stroke:#000000;stroke-width:0.5;"/>
      </defs>
      <g>
       <use style="stroke:#000000;stroke-width:0.5;" x="72.0" xlink:href="#m93b0483c22" y="388.8"/>
      </g>
     </g>
     <g id="line2d_22">
      <defs>
       <path d="
M0 0
L0 4" id="m741efc42ff" style="stroke:#000000;stroke-width:0.5;"/>
      </defs>
      <g>
       <use style="stroke:#000000;stroke-width:0.5;" x="72.0" xlink:href="#m741efc42ff" y="43.2"/>
      </g>
     </g>
     <g id="text_1">
      <!-- 0 -->
      <defs>
       <path d="
M31.7812 66.4062
Q24.1719 66.4062 20.3281 58.9062
Q16.5 51.4219 16.5 36.375
Q16.5 21.3906 20.3281 13.8906
Q24.1719 6.39062 31.7812 6.39062
Q39.4531 6.39062 43.2812 13.8906
Q47.125 21.3906 47.125 36.375
Q47.125 51.4219 43.2812 58.9062
Q39.4531 66.4062 31.7812 66.4062
M31.7812 74.2188
Q44.0469 74.2188 50.5156 64.5156
Q56.9844 54.8281 56.9844 36.375
Q56.9844 17.9688 50.5156 8.26562
Q44.0469 -1.42188 31.7812 -1.42188
Q19.5312 -1.42188 13.0625 8.26562
Q6.59375 17.9688 6.59375 36.375
Q6.59375 54.8281 13.0625 64.5156
Q19.5312 74.2188 31.7812 74.2188" id="BitstreamVeraSans-Roman-30"/>
      </defs>
      <g transform="translate(68.9765625 401.918125)scale(0.12 -0.12)">
       <use xlink:href="#BitstreamVeraSans-Roman-30"/>
      </g>
     </g>
    </g>
    <g id="xtick_2">
     <g id="line2d_23">
      <g>
       <use style="stroke:#000000;stroke-width:0.5;" x="161.28" xlink:href="#m93b0483c22" y="388.8"/>
      </g>
     </g>
     <g id="line2d_24">
      <g>
       <use style="stroke:#000000;stroke-width:0.5;" x="161.28" xlink:href="#m741efc42ff" y="43.2"/>
      </g>
     </g>
     <g id="text_2">
      <!-- 10 -->
      <defs>
       <path d="
M12.4062 8.29688
L28.5156 8.29688
L28.5156 63.9219
L10.9844 60.4062
L10.9844 69.3906
L28.4219 72.9062
L38.2812 72.9062
L38.2812 8.29688
L54.3906 8.29688
L54.3906 0
L12.4062 0
z
" id="BitstreamVeraSans-Roman-31"/>
      </defs>
      <g transform="translate(154.7025 401.918125)scale(0.12 -0.12)">
       <use xlink:href="#BitstreamVeraSans-Roman-31"/>
       <use x="63.623046875" xlink:href="#BitstreamVeraSans-Roman-30"/>
      </g>
     </g>
    </g>
    <g id="xtick_3">
     <g id="line2d_25">
      <g>
       <use style="stroke:#000000;stroke-width:0.5;" x="250.56" xlink:href="#m93b0483c22" y="388.8"/>
      </g>
     </g>
     <g id="line2d_26">
      <g>
       <use style="stroke:#000000;stroke-width:0.5;" x="250.56" xlink:href="#m741efc42ff" y="43.2"/>
      </g>
     </g>
     <g id="text_3">
      <!-- 20 -->
      <defs>
       <path d="
M19.1875 8.29688
L53.6094 8.29688
L53.6094 0
L7.32812 0
L7.32812 8.29688
Q12.9375 14.1094 22.625 23.8906
Q32.3281 33.6875 34.8125 36.5312
Q39.5469 41.8438 41.4219 45.5312
Q43.3125 49.2188 43.3125 52.7812
Q43.3125 58.5938 39.2344 62.25
Q35.1562 65.9219 28.6094 65.9219
Q23.9688 65.9219 18.8125 64.3125
Q13.6719 62.7031 7.8125 59.4219
L7.8125 69.3906
Q13.7656 71.7812 18.9375 73
Q24.125 74.2188 28.4219 74.2188
Q39.75 74.2188 46.4844 68.5469
Q53.2188 62.8906 53.2188 53.4219
Q53.2188 48.9219 51.5312 44.8906
Q49.8594 40.875 45.4062 35.4062
Q44.1875 33.9844 37.6406 27.2188
Q31.1094 20.4531 19.1875 8.29688" id="BitstreamVeraSans-Roman-32"/>
      </defs>
      <g transform="translate(243.763125 401.918125)scale(0.12 -0.12)">
       <use xlink:href="#BitstreamVeraSans-Roman-32"/>
       <use x="63.623046875" xlink:href="#BitstreamVeraSans-Roman-30"/>
      </g>
     </g>
    </g>
    <g id="xtick_4">
     <g id="line2d_27">
      <g>
       <use style="stroke:#000000;stroke-width:0.5;" x="339.84" xlink:href="#m93b0483c22" y="388.8"/>
      </g>
     </g>
     <g id="line2d_28">
      <g>
       <use style="stroke:#000000;stroke-width:0.5;" x="339.84" xlink:href="#m741efc42ff" y="43.2"/>
      </g>
     </g>
     <g id="text_4">
      <!-- 30 -->
      <defs>
       <path d="
M40.5781 39.3125
Q47.6562 37.7969 51.625 33
Q55.6094 28.2188 55.6094 21.1875
Q55.6094 10.4062 48.1875 4.48438
Q40.7656 -1.42188 27.0938 -1.42188
Q22.5156 -1.42188 17.6562 -0.515625
Q12.7969 0.390625 7.625 2.20312
L7.625 11.7188
Q11.7188 9.32812 16.5938 8.10938
Q21.4844 6.89062 26.8125 6.89062
Q36.0781 6.89062 40.9375 10.5469
Q45.7969 14.2031 45.7969 21.1875
Q45.7969 27.6406 41.2812 31.2656
Q36.7656 34.9062 28.7188 34.9062
L20.2188 34.9062
L20.2188 43.0156
L29.1094 43.0156
Q36.375 43.0156 40.2344 45.9219
Q44.0938 48.8281 44.0938 54.2969
Q44.0938 59.9062 40.1094 62.9062
Q36.1406 65.9219 28.7188 65.9219
Q24.6562 65.9219 20.0156 65.0312
Q15.375 64.1562 9.8125 62.3125
L9.8125 71.0938
Q15.4375 72.6562 20.3438 73.4375
Q25.25 74.2188 29.5938 74.2188
Q40.8281 74.2188 47.3594 69.1094
Q53.9062 64.0156 53.9062 55.3281
Q53.9062 49.2656 50.4375 45.0938
Q46.9688 40.9219 40.5781 39.3125" id="BitstreamVeraSans-Roman-33"/>
      </defs>
      <g transform="translate(333.0609375 401.918125)scale(0.12 -0.12)">
       <use xlink:href="#BitstreamVeraSans-Roman-33"/>
       <use x="63.623046875" xlink:href="#BitstreamVeraSans-Roman-30"/>
      </g>
     </g>
    </g>
    <g id="xtick_5">
     <g id="line2d_29">
      <g>
       <use style="stroke:#000000;stroke-width:0.5;" x="429.12" xlink:href="#m93b0483c22" y="388.8"/>
      </g>
     </g>
     <g id="line2d_30">
      <g>
       <use style="stroke:#000000;stroke-width:0.5;" x="429.12" xlink:href="#m741efc42ff" y="43.2"/>
      </g>
     </g>
     <g id="text_5">
      <!-- 40 -->
      <defs>
       <path d="
M37.7969 64.3125
L12.8906 25.3906
L37.7969 25.3906
z

M35.2031 72.9062
L47.6094 72.9062
L47.6094 25.3906
L58.0156 25.3906
L58.0156 17.1875
L47.6094 17.1875
L47.6094 0
L37.7969 0
L37.7969 17.1875
L4.89062 17.1875
L4.89062 26.7031
z
" id="BitstreamVeraSans-Roman-34"/>
      </defs>
      <g transform="translate(422.176875 401.918125)scale(0.12 -0.12)">
       <use xlink:href="#BitstreamVeraSans-Roman-34"/>
       <use x="63.623046875" xlink:href="#BitstreamVeraSans-Roman-30"/>
      </g>
     </g>
    </g>
    <g id="xtick_6">
     <g id="line2d_31">
      <g>
       <use style="stroke:#000000;stroke-width:0.5;" x="518.4" xlink:href="#m93b0483c22" y="388.8"/>
      </g>
     </g>
     <g id="line2d_32">
      <g>
       <use style="stroke:#000000;stroke-width:0.5;" x="518.4" xlink:href="#m741efc42ff" y="43.2"/>
      </g>
     </g>
     <g id="text_6">
      <!-- 50 -->
      <defs>
       <path d="
M10.7969 72.9062
L49.5156 72.9062
L49.5156 64.5938
L19.8281 64.5938
L19.8281 46.7344
Q21.9688 47.4688 24.1094 47.8281
Q26.2656 48.1875 28.4219 48.1875
Q40.625 48.1875 47.75 41.5
Q54.8906 34.8125 54.8906 23.3906
Q54.8906 11.625 47.5625 5.09375
Q40.2344 -1.42188 26.9062 -1.42188
Q22.3125 -1.42188 17.5469 -0.640625
Q12.7969 0.140625 7.71875 1.70312
L7.71875 11.625
Q12.1094 9.23438 16.7969 8.0625
Q21.4844 6.89062 26.7031 6.89062
Q35.1562 6.89062 40.0781 11.3281
Q45.0156 15.7656 45.0156 23.3906
Q45.0156 31 40.0781 35.4375
Q35.1562 39.8906 26.7031 39.8906
Q22.75 39.8906 18.8125 39.0156
Q14.8906 38.1406 10.7969 36.2812
z
" id="BitstreamVeraSans-Roman-35"/>
      </defs>
      <g transform="translate(511.6265625 401.918125)scale(0.12 -0.12)">
       <use xlink:href="#BitstreamVeraSans-Roman-35"/>
       <use x="63.623046875" xlink:href="#BitstreamVeraSans-Roman-30"/>
      </g>
     </g>
    </g>
    <g id="text_7">
     <!-- Freq (Hz) -->
     <defs>
      <path id="BitstreamVeraSans-Roman-20"/>
      <path d="
M8.01562 75.875
L15.8281 75.875
Q23.1406 64.3594 26.7812 53.3125
Q30.4219 42.2812 30.4219 31.3906
Q30.4219 20.4531 26.7812 9.375
Q23.1406 -1.70312 15.8281 -13.1875
L8.01562 -13.1875
Q14.5 -2 17.7031 9.0625
Q20.9062 20.125 20.9062 31.3906
Q20.9062 42.6719 17.7031 53.6562
Q14.5 64.6562 8.01562 75.875" id="BitstreamVeraSans-Roman-29"/>
      <path d="
M31 75.875
Q24.4688 64.6562 21.2812 53.6562
Q18.1094 42.6719 18.1094 31.3906
Q18.1094 20.125 21.3125 9.0625
Q24.5156 -2 31 -13.1875
L23.1875 -13.1875
Q15.875 -1.70312 12.2344 9.375
Q8.59375 20.4531 8.59375 31.3906
Q8.59375 42.2812 12.2031 53.3125
Q15.8281 64.3594 23.1875 75.875
z
" id="BitstreamVeraSans-Roman-28"/>
      <path d="
M5.51562 54.6875
L48.1875 54.6875
L48.1875 46.4844
L14.4062 7.17188
L48.1875 7.17188
L48.1875 0
L4.29688 0
L4.29688 8.20312
L38.0938 47.5156
L5.51562 47.5156
z
" id="BitstreamVeraSans-Roman-7a"/>
      <path d="
M9.8125 72.9062
L51.7031 72.9062
L51.7031 64.5938
L19.6719 64.5938
L19.6719 43.1094
L48.5781 43.1094
L48.5781 34.8125
L19.6719 34.8125
L19.6719 0
L9.8125 0
z
" id="BitstreamVeraSans-Roman-46"/>
      <path d="
M56.2031 29.5938
L56.2031 25.2031
L14.8906 25.2031
Q15.4844 15.9219 20.4844 11.0625
Q25.4844 6.20312 34.4219 6.20312
Q39.5938 6.20312 44.4531 7.46875
Q49.3125 8.73438 54.1094 11.2812
L54.1094 2.78125
Q49.2656 0.734375 44.1875 -0.34375
Q39.1094 -1.42188 33.8906 -1.42188
Q20.7969 -1.42188 13.1562 6.1875
Q5.51562 13.8125 5.51562 26.8125
Q5.51562 40.2344 12.7656 48.1094
Q20.0156 56 32.3281 56
Q43.3594 56 49.7812 48.8906
Q56.2031 41.7969 56.2031 29.5938
M47.2188 32.2344
Q47.125 39.5938 43.0938 43.9844
Q39.0625 48.3906 32.4219 48.3906
Q24.9062 48.3906 20.3906 44.1406
Q15.875 39.8906 15.1875 32.1719
z
" id="BitstreamVeraSans-Roman-65"/>
      <path d="
M9.8125 72.9062
L19.6719 72.9062
L19.6719 43.0156
L55.5156 43.0156
L55.5156 72.9062
L65.375 72.9062
L65.375 0
L55.5156 0
L55.5156 34.7188
L19.6719 34.7188
L19.6719 0
L9.8125 0
z
" id="BitstreamVeraSans-Roman-48"/>
      <path d="
M41.1094 46.2969
Q39.5938 47.1719 37.8125 47.5781
Q36.0312 48 33.8906 48
Q26.2656 48 22.1875 43.0469
Q18.1094 38.0938 18.1094 28.8125
L18.1094 0
L9.07812 0
L9.07812 54.6875
L18.1094 54.6875
L18.1094 46.1875
Q20.9531 51.1719 25.4844 53.5781
Q30.0312 56 36.5312 56
Q37.4531 56 38.5781 55.875
Q39.7031 55.7656 41.0625 55.5156
z
" id="BitstreamVeraSans-Roman-72"/>
      <path d="
M14.7969 27.2969
Q14.7969 17.3906 18.875 11.75
Q22.9531 6.10938 30.0781 6.10938
Q37.2031 6.10938 41.2969 11.75
Q45.4062 17.3906 45.4062 27.2969
Q45.4062 37.2031 41.2969 42.8438
Q37.2031 48.4844 30.0781 48.4844
Q22.9531 48.4844 18.875 42.8438
Q14.7969 37.2031 14.7969 27.2969
M45.4062 8.20312
Q42.5781 3.32812 38.25 0.953125
Q33.9375 -1.42188 27.875 -1.42188
Q17.9688 -1.42188 11.7344 6.48438
Q5.51562 14.4062 5.51562 27.2969
Q5.51562 40.1875 11.7344 48.0938
Q17.9688 56 27.875 56
Q33.9375 56 38.25 53.625
Q42.5781 51.2656 45.4062 46.3906
L45.4062 54.6875
L54.3906 54.6875
L54.3906 -20.7969
L45.4062 -20.7969
z
" id="BitstreamVeraSans-Roman-71"/>
     </defs>
     <g transform="translate(268.6171875 418.531875)scale(0.12 -0.12)">
      <use xlink:href="#BitstreamVeraSans-Roman-46"/>
      <use x="50.26953125" xlink:href="#BitstreamVeraSans-Roman-72"/>
      <use x="89.1328125" xlink:href="#BitstreamVeraSans-Roman-65"/>
      <use x="150.65625" xlink:href="#BitstreamVeraSans-Roman-71"/>
      <use x="214.1328125" xlink:href="#BitstreamVeraSans-Roman-20"/>
      <use x="245.919921875" xlink:href="#BitstreamVeraSans-Roman-28"/>
      <use x="284.93359375" xlink:href="#BitstreamVeraSans-Roman-48"/>
      <use x="360.12890625" xlink:href="#BitstreamVeraSans-Roman-7a"/>
      <use x="412.619140625" xlink:href="#BitstreamVeraSans-Roman-29"/>
     </g>
    </g>
   </g>
   <g id="matplotlib.axis_2">
    <g id="ytick_1">
     <g id="line2d_33">
      <defs>
       <path d="
M0 0
L4 0" id="m728421d6d4" style="stroke:#000000;stroke-width:0.5;"/>
      </defs>
      <g>
       <use style="stroke:#000000;stroke-width:0.5;" x="72.0" xlink:href="#m728421d6d4" y="388.8"/>
      </g>
     </g>
     <g id="line2d_34">
      <defs>
       <path d="
M0 0
L-4 0" id="mcb0005524f" style="stroke:#000000;stroke-width:0.5;"/>
      </defs>
      <g>
       <use style="stroke:#000000;stroke-width:0.5;" x="518.4" xlink:href="#mcb0005524f" y="388.8"/>
      </g>
     </g>
     <g id="text_8">
      <!-- 0.00 -->
      <defs>
       <path d="
M10.6875 12.4062
L21 12.4062
L21 0
L10.6875 0
z
" id="BitstreamVeraSans-Roman-2e"/>
      </defs>
      <g transform="translate(42.869375 392.11125)scale(0.12 -0.12)">
       <use xlink:href="#BitstreamVeraSans-Roman-30"/>
       <use x="63.623046875" xlink:href="#BitstreamVeraSans-Roman-2e"/>
       <use x="95.41015625" xlink:href="#BitstreamVeraSans-Roman-30"/>
       <use x="159.033203125" xlink:href="#BitstreamVeraSans-Roman-30"/>
      </g>
     </g>
    </g>
    <g id="ytick_2">
     <g id="line2d_35">
      <g>
       <use style="stroke:#000000;stroke-width:0.5;" x="72.0" xlink:href="#m728421d6d4" y="302.4"/>
      </g>
     </g>
     <g id="line2d_36">
      <g>
       <use style="stroke:#000000;stroke-width:0.5;" x="518.4" xlink:href="#mcb0005524f" y="302.4"/>
      </g>
     </g>
     <g id="text_9">
      <!-- 0.05 -->
      <g transform="translate(43.120625 305.71125)scale(0.12 -0.12)">
       <use xlink:href="#BitstreamVeraSans-Roman-30"/>
       <use x="63.623046875" xlink:href="#BitstreamVeraSans-Roman-2e"/>
       <use x="95.41015625" xlink:href="#BitstreamVeraSans-Roman-30"/>
       <use x="159.033203125" xlink:href="#BitstreamVeraSans-Roman-35"/>
      </g>
     </g>
    </g>
    <g id="ytick_3">
     <g id="line2d_37">
      <g>
       <use style="stroke:#000000;stroke-width:0.5;" x="72.0" xlink:href="#m728421d6d4" y="216.0"/>
      </g>
     </g>
     <g id="line2d_38">
      <g>
       <use style="stroke:#000000;stroke-width:0.5;" x="518.4" xlink:href="#mcb0005524f" y="216.0"/>
      </g>
     </g>
     <g id="text_10">
      <!-- 0.10 -->
      <g transform="translate(42.869375 219.31125)scale(0.12 -0.12)">
       <use xlink:href="#BitstreamVeraSans-Roman-30"/>
       <use x="63.623046875" xlink:href="#BitstreamVeraSans-Roman-2e"/>
       <use x="95.41015625" xlink:href="#BitstreamVeraSans-Roman-31"/>
       <use x="159.033203125" xlink:href="#BitstreamVeraSans-Roman-30"/>
      </g>
     </g>
    </g>
    <g id="ytick_4">
     <g id="line2d_39">
      <g>
       <use style="stroke:#000000;stroke-width:0.5;" x="72.0" xlink:href="#m728421d6d4" y="129.6"/>
      </g>
     </g>
     <g id="line2d_40">
      <g>
       <use style="stroke:#000000;stroke-width:0.5;" x="518.4" xlink:href="#mcb0005524f" y="129.6"/>
      </g>
     </g>
     <g id="text_11">
      <!-- 0.15 -->
      <g transform="translate(43.120625 132.91125)scale(0.12 -0.12)">
       <use xlink:href="#BitstreamVeraSans-Roman-30"/>
       <use x="63.623046875" xlink:href="#BitstreamVeraSans-Roman-2e"/>
       <use x="95.41015625" xlink:href="#BitstreamVeraSans-Roman-31"/>
       <use x="159.033203125" xlink:href="#BitstreamVeraSans-Roman-35"/>
      </g>
     </g>
    </g>
    <g id="ytick_5">
     <g id="line2d_41">
      <g>
       <use style="stroke:#000000;stroke-width:0.5;" x="72.0" xlink:href="#m728421d6d4" y="43.2"/>
      </g>
     </g>
     <g id="line2d_42">
      <g>
       <use style="stroke:#000000;stroke-width:0.5;" x="518.4" xlink:href="#mcb0005524f" y="43.2"/>
      </g>
     </g>
     <g id="text_12">
      <!-- 0.20 -->
      <g transform="translate(42.869375 46.51125)scale(0.12 -0.12)">
       <use xlink:href="#BitstreamVeraSans-Roman-30"/>
       <use x="63.623046875" xlink:href="#BitstreamVeraSans-Roman-2e"/>
       <use x="95.41015625" xlink:href="#BitstreamVeraSans-Roman-32"/>
       <use x="159.033203125" xlink:href="#BitstreamVeraSans-Roman-30"/>
      </g>
     </g>
    </g>
    <g id="text_13">
     <!-- Normalized PSD -->
     <defs>
      <path d="
M9.8125 72.9062
L23.0938 72.9062
L55.4219 11.9219
L55.4219 72.9062
L64.9844 72.9062
L64.9844 0
L51.7031 0
L19.3906 60.9844
L19.3906 0
L9.8125 0
z
" id="BitstreamVeraSans-Roman-4e"/>
      <path d="
M52 44.1875
Q55.375 50.25 60.0625 53.125
Q64.75 56 71.0938 56
Q79.6406 56 84.2812 50.0156
Q88.9219 44.0469 88.9219 33.0156
L88.9219 0
L79.8906 0
L79.8906 32.7188
Q79.8906 40.5781 77.0938 44.375
Q74.3125 48.1875 68.6094 48.1875
Q61.625 48.1875 57.5625 43.5469
Q53.5156 38.9219 53.5156 30.9062
L53.5156 0
L44.4844 0
L44.4844 32.7188
Q44.4844 40.625 41.7031 44.4062
Q38.9219 48.1875 33.1094 48.1875
Q26.2188 48.1875 22.1562 43.5312
Q18.1094 38.875 18.1094 30.9062
L18.1094 0
L9.07812 0
L9.07812 54.6875
L18.1094 54.6875
L18.1094 46.1875
Q21.1875 51.2188 25.4844 53.6094
Q29.7812 56 35.6875 56
Q41.6562 56 45.8281 52.9688
Q50 49.9531 52 44.1875" id="BitstreamVeraSans-Roman-6d"/>
      <path d="
M30.6094 48.3906
Q23.3906 48.3906 19.1875 42.75
Q14.9844 37.1094 14.9844 27.2969
Q14.9844 17.4844 19.1562 11.8438
Q23.3438 6.20312 30.6094 6.20312
Q37.7969 6.20312 41.9844 11.8594
Q46.1875 17.5312 46.1875 27.2969
Q46.1875 37.0156 41.9844 42.7031
Q37.7969 48.3906 30.6094 48.3906
M30.6094 56
Q42.3281 56 49.0156 48.375
Q55.7188 40.7656 55.7188 27.2969
Q55.7188 13.875 49.0156 6.21875
Q42.3281 -1.42188 30.6094 -1.42188
Q18.8438 -1.42188 12.1719 6.21875
Q5.51562 13.875 5.51562 27.2969
Q5.51562 40.7656 12.1719 48.375
Q18.8438 56 30.6094 56" id="BitstreamVeraSans-Roman-6f"/>
      <path d="
M9.42188 75.9844
L18.4062 75.9844
L18.4062 0
L9.42188 0
z
" id="BitstreamVeraSans-Roman-6c"/>
      <path d="
M19.6719 64.7969
L19.6719 37.4062
L32.0781 37.4062
Q38.9688 37.4062 42.7188 40.9688
Q46.4844 44.5312 46.4844 51.125
Q46.4844 57.6719 42.7188 61.2344
Q38.9688 64.7969 32.0781 64.7969
z

M9.8125 72.9062
L32.0781 72.9062
Q44.3438 72.9062 50.6094 67.3594
Q56.8906 61.8125 56.8906 51.125
Q56.8906 40.3281 50.6094 34.8125
Q44.3438 29.2969 32.0781 29.2969
L19.6719 29.2969
L19.6719 0
L9.8125 0
z
" id="BitstreamVeraSans-Roman-50"/>
      <path d="
M19.6719 64.7969
L19.6719 8.10938
L31.5938 8.10938
Q46.6875 8.10938 53.6875 14.9375
Q60.6875 21.7812 60.6875 36.5312
Q60.6875 51.1719 53.6875 57.9844
Q46.6875 64.7969 31.5938 64.7969
z

M9.8125 72.9062
L30.0781 72.9062
Q51.2656 72.9062 61.1719 64.0938
Q71.0938 55.2812 71.0938 36.5312
Q71.0938 17.6719 61.125 8.82812
Q51.1719 0 30.0781 0
L9.8125 0
z
" id="BitstreamVeraSans-Roman-44"/>
      <path d="
M53.5156 70.5156
L53.5156 60.8906
Q47.9062 63.5781 42.9219 64.8906
Q37.9375 66.2188 33.2969 66.2188
Q25.25 66.2188 20.875 63.0938
Q16.5 59.9688 16.5 54.2031
Q16.5 49.3594 19.4062 46.8906
Q22.3125 44.4375 30.4219 42.9219
L36.375 41.7031
Q47.4062 39.5938 52.6562 34.2969
Q57.9062 29 57.9062 20.125
Q57.9062 9.51562 50.7969 4.04688
Q43.7031 -1.42188 29.9844 -1.42188
Q24.8125 -1.42188 18.9688 -0.25
Q13.1406 0.921875 6.89062 3.21875
L6.89062 13.375
Q12.8906 10.0156 18.6562 8.29688
Q24.4219 6.59375 29.9844 6.59375
Q38.4219 6.59375 43.0156 9.90625
Q47.6094 13.2344 47.6094 19.3906
Q47.6094 24.75 44.3125 27.7812
Q41.0156 30.8125 33.5 32.3281
L27.4844 33.5
Q16.4531 35.6875 11.5156 40.375
Q6.59375 45.0625 6.59375 53.4219
Q6.59375 63.0938 13.4062 68.6562
Q20.2188 74.2188 32.1719 74.2188
Q37.3125 74.2188 42.625 73.2812
Q47.9531 72.3594 53.5156 70.5156" id="BitstreamVeraSans-Roman-53"/>
      <path d="
M9.42188 54.6875
L18.4062 54.6875
L18.4062 0
L9.42188 0
z

M9.42188 75.9844
L18.4062 75.9844
L18.4062 64.5938
L9.42188 64.5938
z
" id="BitstreamVeraSans-Roman-69"/>
      <path d="
M45.4062 46.3906
L45.4062 75.9844
L54.3906 75.9844
L54.3906 0
L45.4062 0
L45.4062 8.20312
Q42.5781 3.32812 38.25 0.953125
Q33.9375 -1.42188 27.875 -1.42188
Q17.9688 -1.42188 11.7344 6.48438
Q5.51562 14.4062 5.51562 27.2969
Q5.51562 40.1875 11.7344 48.0938
Q17.9688 56 27.875 56
Q33.9375 56 38.25 53.625
Q42.5781 51.2656 45.4062 46.3906
M14.7969 27.2969
Q14.7969 17.3906 18.875 11.75
Q22.9531 6.10938 30.0781 6.10938
Q37.2031 6.10938 41.2969 11.75
Q45.4062 17.3906 45.4062 27.2969
Q45.4062 37.2031 41.2969 42.8438
Q37.2031 48.4844 30.0781 48.4844
Q22.9531 48.4844 18.875 42.8438
Q14.7969 37.2031 14.7969 27.2969" id="BitstreamVeraSans-Roman-64"/>
      <path d="
M34.2812 27.4844
Q23.3906 27.4844 19.1875 25
Q14.9844 22.5156 14.9844 16.5
Q14.9844 11.7188 18.1406 8.90625
Q21.2969 6.10938 26.7031 6.10938
Q34.1875 6.10938 38.7031 11.4062
Q43.2188 16.7031 43.2188 25.4844
L43.2188 27.4844
z

M52.2031 31.2031
L52.2031 0
L43.2188 0
L43.2188 8.29688
Q40.1406 3.32812 35.5469 0.953125
Q30.9531 -1.42188 24.3125 -1.42188
Q15.9219 -1.42188 10.9531 3.29688
Q6 8.01562 6 15.9219
Q6 25.1406 12.1719 29.8281
Q18.3594 34.5156 30.6094 34.5156
L43.2188 34.5156
L43.2188 35.4062
Q43.2188 41.6094 39.1406 45
Q35.0625 48.3906 27.6875 48.3906
Q23 48.3906 18.5469 47.2656
Q14.1094 46.1406 10.0156 43.8906
L10.0156 52.2031
Q14.9375 54.1094 19.5781 55.0469
Q24.2188 56 28.6094 56
Q40.4844 56 46.3438 49.8438
Q52.2031 43.7031 52.2031 31.2031" id="BitstreamVeraSans-Roman-61"/>
     </defs>
     <g transform="translate(35.37375 263.6259375)rotate(-90.0)scale(0.12 -0.12)">
      <use xlink:href="#BitstreamVeraSans-Roman-4e"/>
      <use x="74.8046875" xlink:href="#BitstreamVeraSans-Roman-6f"/>
      <use x="135.986328125" xlink:href="#BitstreamVeraSans-Roman-72"/>
      <use x="175.349609375" xlink:href="#BitstreamVeraSans-Roman-6d"/>
      <use x="272.76171875" xlink:href="#BitstreamVeraSans-Roman-61"/>
      <use x="334.041015625" xlink:href="#BitstreamVeraSans-Roman-6c"/>
      <use x="361.82421875" xlink:href="#BitstreamVeraSans-Roman-69"/>
      <use x="389.607421875" xlink:href="#BitstreamVeraSans-Roman-7a"/>
      <use x="442.09765625" xlink:href="#BitstreamVeraSans-Roman-65"/>
      <use x="503.62109375" xlink:href="#BitstreamVeraSans-Roman-64"/>
      <use x="567.09765625" xlink:href="#BitstreamVeraSans-Roman-20"/>
      <use x="598.884765625" xlink:href="#BitstreamVeraSans-Roman-50"/>
      <use x="659.1875" xlink:href="#BitstreamVeraSans-Roman-53"/>
      <use x="722.6640625" xlink:href="#BitstreamVeraSans-Roman-44"/>
     </g>
    </g>
   </g>
   <g id="text_14">
    <!-- Channel 84- Successful Trial-Averaged PSD -->
    <defs>
     <path d="
M37.1094 75.9844
L37.1094 68.5
L28.5156 68.5
Q23.6875 68.5 21.7969 66.5469
Q19.9219 64.5938 19.9219 59.5156
L19.9219 54.6875
L34.7188 54.6875
L34.7188 47.7031
L19.9219 47.7031
L19.9219 0
L10.8906 0
L10.8906 47.7031
L2.29688 47.7031
L2.29688 54.6875
L10.8906 54.6875
L10.8906 58.5
Q10.8906 67.625 15.1406 71.7969
Q19.3906 75.9844 28.6094 75.9844
z
" id="BitstreamVeraSans-Roman-66"/>
     <path d="
M54.8906 33.0156
L54.8906 0
L45.9062 0
L45.9062 32.7188
Q45.9062 40.4844 42.875 44.3281
Q39.8438 48.1875 33.7969 48.1875
Q26.5156 48.1875 22.3125 43.5469
Q18.1094 38.9219 18.1094 30.9062
L18.1094 0
L9.07812 0
L9.07812 54.6875
L18.1094 54.6875
L18.1094 46.1875
Q21.3438 51.125 25.7031 53.5625
Q30.0781 56 35.7969 56
Q45.2188 56 50.0469 50.1719
Q54.8906 44.3438 54.8906 33.0156" id="BitstreamVeraSans-Roman-6e"/>
     <path d="
M31.7812 34.625
Q24.75 34.625 20.7188 30.8594
Q16.7031 27.0938 16.7031 20.5156
Q16.7031 13.9219 20.7188 10.1562
Q24.75 6.39062 31.7812 6.39062
Q38.8125 6.39062 42.8594 10.1719
Q46.9219 13.9688 46.9219 20.5156
Q46.9219 27.0938 42.8906 30.8594
Q38.875 34.625 31.7812 34.625
M21.9219 38.8125
Q15.5781 40.375 12.0312 44.7188
Q8.5 49.0781 8.5 55.3281
Q8.5 64.0625 14.7188 69.1406
Q20.9531 74.2188 31.7812 74.2188
Q42.6719 74.2188 48.875 69.1406
Q55.0781 64.0625 55.0781 55.3281
Q55.0781 49.0781 51.5312 44.7188
Q48 40.375 41.7031 38.8125
Q48.8281 37.1562 52.7969 32.3125
Q56.7812 27.4844 56.7812 20.5156
Q56.7812 9.90625 50.3125 4.23438
Q43.8438 -1.42188 31.7812 -1.42188
Q19.7344 -1.42188 13.25 4.23438
Q6.78125 9.90625 6.78125 20.5156
Q6.78125 27.4844 10.7812 32.3125
Q14.7969 37.1562 21.9219 38.8125
M18.3125 54.3906
Q18.3125 48.7344 21.8438 45.5625
Q25.3906 42.3906 31.7812 42.3906
Q38.1406 42.3906 41.7188 45.5625
Q45.3125 48.7344 45.3125 54.3906
Q45.3125 60.0625 41.7188 63.2344
Q38.1406 66.4062 31.7812 66.4062
Q25.3906 66.4062 21.8438 63.2344
Q18.3125 60.0625 18.3125 54.3906" id="BitstreamVeraSans-Roman-38"/>
     <path d="
M64.4062 67.2812
L64.4062 56.8906
Q59.4219 61.5312 53.7812 63.8125
Q48.1406 66.1094 41.7969 66.1094
Q29.2969 66.1094 22.6562 58.4688
Q16.0156 50.8281 16.0156 36.375
Q16.0156 21.9688 22.6562 14.3281
Q29.2969 6.6875 41.7969 6.6875
Q48.1406 6.6875 53.7812 8.98438
Q59.4219 11.2812 64.4062 15.9219
L64.4062 5.60938
Q59.2344 2.09375 53.4375 0.328125
Q47.6562 -1.42188 41.2188 -1.42188
Q24.6562 -1.42188 15.125 8.70312
Q5.60938 18.8438 5.60938 36.375
Q5.60938 53.9531 15.125 64.0781
Q24.6562 74.2188 41.2188 74.2188
Q47.75 74.2188 53.5312 72.4844
Q59.3281 70.75 64.4062 67.2812" id="BitstreamVeraSans-Roman-43"/>
     <path d="
M54.8906 33.0156
L54.8906 0
L45.9062 0
L45.9062 32.7188
Q45.9062 40.4844 42.875 44.3281
Q39.8438 48.1875 33.7969 48.1875
Q26.5156 48.1875 22.3125 43.5469
Q18.1094 38.9219 18.1094 30.9062
L18.1094 0
L9.07812 0
L9.07812 75.9844
L18.1094 75.9844
L18.1094 46.1875
Q21.3438 51.125 25.7031 53.5625
Q30.0781 56 35.7969 56
Q45.2188 56 50.0469 50.1719
Q54.8906 44.3438 54.8906 33.0156" id="BitstreamVeraSans-Roman-68"/>
     <path d="
M34.1875 63.1875
L20.7969 26.9062
L47.6094 26.9062
z

M28.6094 72.9062
L39.7969 72.9062
L67.5781 0
L57.3281 0
L50.6875 18.7031
L17.8281 18.7031
L11.1875 0
L0.78125 0
z
" id="BitstreamVeraSans-Roman-41"/>
     <path d="
M2.98438 54.6875
L12.5 54.6875
L29.5938 8.79688
L46.6875 54.6875
L56.2031 54.6875
L35.6875 0
L23.4844 0
z
" id="BitstreamVeraSans-Roman-76"/>
     <path d="
M-0.296875 72.9062
L61.375 72.9062
L61.375 64.5938
L35.5 64.5938
L35.5 0
L25.5938 0
L25.5938 64.5938
L-0.296875 64.5938
z
" id="BitstreamVeraSans-Roman-54"/>
     <path d="
M45.4062 27.9844
Q45.4062 37.75 41.375 43.1094
Q37.3594 48.4844 30.0781 48.4844
Q22.8594 48.4844 18.8281 43.1094
Q14.7969 37.75 14.7969 27.9844
Q14.7969 18.2656 18.8281 12.8906
Q22.8594 7.51562 30.0781 7.51562
Q37.3594 7.51562 41.375 12.8906
Q45.4062 18.2656 45.4062 27.9844
M54.3906 6.78125
Q54.3906 -7.17188 48.1875 -13.9844
Q42 -20.7969 29.2031 -20.7969
Q24.4688 -20.7969 20.2656 -20.0938
Q16.0625 -19.3906 12.1094 -17.9219
L12.1094 -9.1875
Q16.0625 -11.3281 19.9219 -12.3438
Q23.7812 -13.375 27.7812 -13.375
Q36.625 -13.375 41.0156 -8.76562
Q45.4062 -4.15625 45.4062 5.17188
L45.4062 9.625
Q42.625 4.78125 38.2812 2.39062
Q33.9375 0 27.875 0
Q17.8281 0 11.6719 7.65625
Q5.51562 15.3281 5.51562 27.9844
Q5.51562 40.6719 11.6719 48.3281
Q17.8281 56 27.875 56
Q33.9375 56 38.2812 53.6094
Q42.625 51.2188 45.4062 46.3906
L45.4062 54.6875
L54.3906 54.6875
z
" id="BitstreamVeraSans-Roman-67"/>
     <path d="
M8.5 21.5781
L8.5 54.6875
L17.4844 54.6875
L17.4844 21.9219
Q17.4844 14.1562 20.5 10.2656
Q23.5312 6.39062 29.5938 6.39062
Q36.8594 6.39062 41.0781 11.0312
Q45.3125 15.6719 45.3125 23.6875
L45.3125 54.6875
L54.2969 54.6875
L54.2969 0
L45.3125 0
L45.3125 8.40625
Q42.0469 3.42188 37.7188 1
Q33.4062 -1.42188 27.6875 -1.42188
Q18.2656 -1.42188 13.375 4.4375
Q8.5 10.2969 8.5 21.5781" id="BitstreamVeraSans-Roman-75"/>
     <path d="
M44.2812 53.0781
L44.2812 44.5781
Q40.4844 46.5312 36.375 47.5
Q32.2812 48.4844 27.875 48.4844
Q21.1875 48.4844 17.8438 46.4375
Q14.5 44.3906 14.5 40.2812
Q14.5 37.1562 16.8906 35.375
Q19.2812 33.5938 26.5156 31.9844
L29.5938 31.2969
Q39.1562 29.25 43.1875 25.5156
Q47.2188 21.7812 47.2188 15.0938
Q47.2188 7.46875 41.1875 3.01562
Q35.1562 -1.42188 24.6094 -1.42188
Q20.2188 -1.42188 15.4531 -0.5625
Q10.6875 0.296875 5.42188 2
L5.42188 11.2812
Q10.4062 8.6875 15.2344 7.39062
Q20.0625 6.10938 24.8125 6.10938
Q31.1562 6.10938 34.5625 8.28125
Q37.9844 10.4531 37.9844 14.4062
Q37.9844 18.0625 35.5156 20.0156
Q33.0625 21.9688 24.7031 23.7812
L21.5781 24.5156
Q13.2344 26.2656 9.51562 29.9062
Q5.8125 33.5469 5.8125 39.8906
Q5.8125 47.6094 11.2812 51.7969
Q16.75 56 26.8125 56
Q31.7812 56 36.1719 55.2656
Q40.5781 54.5469 44.2812 53.0781" id="BitstreamVeraSans-Roman-73"/>
     <path d="
M48.7812 52.5938
L48.7812 44.1875
Q44.9688 46.2969 41.1406 47.3438
Q37.3125 48.3906 33.4062 48.3906
Q24.6562 48.3906 19.8125 42.8438
Q14.9844 37.3125 14.9844 27.2969
Q14.9844 17.2812 19.8125 11.7344
Q24.6562 6.20312 33.4062 6.20312
Q37.3125 6.20312 41.1406 7.25
Q44.9688 8.29688 48.7812 10.4062
L48.7812 2.09375
Q45.0156 0.34375 40.9844 -0.53125
Q36.9688 -1.42188 32.4219 -1.42188
Q20.0625 -1.42188 12.7812 6.34375
Q5.51562 14.1094 5.51562 27.2969
Q5.51562 40.6719 12.8594 48.3281
Q20.2188 56 33.0156 56
Q37.1562 56 41.1094 55.1406
Q45.0625 54.2969 48.7812 52.5938" id="BitstreamVeraSans-Roman-63"/>
     <path d="
M4.89062 31.3906
L31.2031 31.3906
L31.2031 23.3906
L4.89062 23.3906
z
" id="BitstreamVeraSans-Roman-2d"/>
    </defs>
    <g transform="translate(141.33375 38.2)scale(0.144 -0.144)">
     <use xlink:href="#BitstreamVeraSans-Roman-43"/>
     <use x="69.82421875" xlink:href="#BitstreamVeraSans-Roman-68"/>
     <use x="133.203125" xlink:href="#BitstreamVeraSans-Roman-61"/>
     <use x="194.482421875" xlink:href="#BitstreamVeraSans-Roman-6e"/>
     <use x="257.861328125" xlink:href="#BitstreamVeraSans-Roman-6e"/>
     <use x="321.240234375" xlink:href="#BitstreamVeraSans-Roman-65"/>
     <use x="382.763671875" xlink:href="#BitstreamVeraSans-Roman-6c"/>
     <use x="410.546875" xlink:href="#BitstreamVeraSans-Roman-20"/>
     <use x="442.333984375" xlink:href="#BitstreamVeraSans-Roman-38"/>
     <use x="505.95703125" xlink:href="#BitstreamVeraSans-Roman-34"/>
     <use x="569.580078125" xlink:href="#BitstreamVeraSans-Roman-2d"/>
     <use x="605.6640625" xlink:href="#BitstreamVeraSans-Roman-20"/>
     <use x="637.451171875" xlink:href="#BitstreamVeraSans-Roman-53"/>
     <use x="700.927734375" xlink:href="#BitstreamVeraSans-Roman-75"/>
     <use x="764.306640625" xlink:href="#BitstreamVeraSans-Roman-63"/>
     <use x="819.287109375" xlink:href="#BitstreamVeraSans-Roman-63"/>
     <use x="874.267578125" xlink:href="#BitstreamVeraSans-Roman-65"/>
     <use x="935.791015625" xlink:href="#BitstreamVeraSans-Roman-73"/>
     <use x="987.890625" xlink:href="#BitstreamVeraSans-Roman-73"/>
     <use x="1039.99023438" xlink:href="#BitstreamVeraSans-Roman-66"/>
     <use x="1075.1953125" xlink:href="#BitstreamVeraSans-Roman-75"/>
     <use x="1138.57421875" xlink:href="#BitstreamVeraSans-Roman-6c"/>
     <use x="1166.35742188" xlink:href="#BitstreamVeraSans-Roman-20"/>
     <use x="1198.14453125" xlink:href="#BitstreamVeraSans-Roman-54"/>
     <use x="1244.47851562" xlink:href="#BitstreamVeraSans-Roman-72"/>
     <use x="1285.59179688" xlink:href="#BitstreamVeraSans-Roman-69"/>
     <use x="1313.375" xlink:href="#BitstreamVeraSans-Roman-61"/>
     <use x="1374.65429688" xlink:href="#BitstreamVeraSans-Roman-6c"/>
     <use x="1402.4375" xlink:href="#BitstreamVeraSans-Roman-2d"/>
     <use x="1436.27148438" xlink:href="#BitstreamVeraSans-Roman-41"/>
     <use x="1498.8046875" xlink:href="#BitstreamVeraSans-Roman-76"/>
     <use x="1557.984375" xlink:href="#BitstreamVeraSans-Roman-65"/>
     <use x="1619.5078125" xlink:href="#BitstreamVeraSans-Roman-72"/>
     <use x="1660.62109375" xlink:href="#BitstreamVeraSans-Roman-61"/>
     <use x="1721.90039062" xlink:href="#BitstreamVeraSans-Roman-67"/>
     <use x="1785.37695312" xlink:href="#BitstreamVeraSans-Roman-65"/>
     <use x="1846.90039062" xlink:href="#BitstreamVeraSans-Roman-64"/>
     <use x="1910.37695312" xlink:href="#BitstreamVeraSans-Roman-20"/>
     <use x="1942.1640625" xlink:href="#BitstreamVeraSans-Roman-50"/>
     <use x="2002.46679688" xlink:href="#BitstreamVeraSans-Roman-53"/>
     <use x="2065.94335938" xlink:href="#BitstreamVeraSans-Roman-44"/>
    </g>
   </g>
   <g id="legend_1">
    <g id="patch_7">
     <path d="
M363.337 477.45
L511.2 477.45
L511.2 50.4
L363.337 50.4
z
" style="fill:#ffffff;stroke:#000000;stroke-linejoin:miter;"/>
    </g>
    <g id="line2d_43">
     <path d="
M373.417 62.0617
L393.577 62.0617" style="fill:none;stroke:#ff0000;stroke-linecap:square;"/>
    </g>
    <g id="line2d_44"/>
    <g id="text_15">
     <!-- Stress Trials -->
     <defs>
      <path d="
M18.3125 70.2188
L18.3125 54.6875
L36.8125 54.6875
L36.8125 47.7031
L18.3125 47.7031
L18.3125 18.0156
Q18.3125 11.3281 20.1406 9.42188
Q21.9688 7.51562 27.5938 7.51562
L36.8125 7.51562
L36.8125 0
L27.5938 0
Q17.1875 0 13.2344 3.875
Q9.28125 7.76562 9.28125 18.0156
L9.28125 47.7031
L2.6875 47.7031
L2.6875 54.6875
L9.28125 54.6875
L9.28125 70.2188
z
" id="BitstreamVeraSans-Roman-74"/>
     </defs>
     <g transform="translate(409.41675 67.10175)scale(0.144 -0.144)">
      <use xlink:href="#BitstreamVeraSans-Roman-53"/>
      <use x="63.4765625" xlink:href="#BitstreamVeraSans-Roman-74"/>
      <use x="102.685546875" xlink:href="#BitstreamVeraSans-Roman-72"/>
      <use x="141.548828125" xlink:href="#BitstreamVeraSans-Roman-65"/>
      <use x="203.072265625" xlink:href="#BitstreamVeraSans-Roman-73"/>
      <use x="255.171875" xlink:href="#BitstreamVeraSans-Roman-73"/>
      <use x="307.271484375" xlink:href="#BitstreamVeraSans-Roman-20"/>
      <use x="339.05859375" xlink:href="#BitstreamVeraSans-Roman-54"/>
      <use x="385.392578125" xlink:href="#BitstreamVeraSans-Roman-72"/>
      <use x="426.505859375" xlink:href="#BitstreamVeraSans-Roman-69"/>
      <use x="454.2890625" xlink:href="#BitstreamVeraSans-Roman-61"/>
      <use x="515.568359375" xlink:href="#BitstreamVeraSans-Roman-6c"/>
      <use x="543.3515625" xlink:href="#BitstreamVeraSans-Roman-73"/>
     </g>
    </g>
    <g id="line2d_45">
     <path d="
M373.417 83.1982
L393.577 83.1982" style="fill:none;stroke:#0000ff;stroke-linecap:square;"/>
    </g>
    <g id="line2d_46"/>
    <g id="text_16">
     <!-- Regular Trials -->
     <defs>
      <path d="
M44.3906 34.1875
Q47.5625 33.1094 50.5625 29.5938
Q53.5625 26.0781 56.5938 19.9219
L66.6094 0
L56 0
L46.6875 18.7031
Q43.0625 26.0312 39.6719 28.4219
Q36.2812 30.8125 30.4219 30.8125
L19.6719 30.8125
L19.6719 0
L9.8125 0
L9.8125 72.9062
L32.0781 72.9062
Q44.5781 72.9062 50.7344 67.6719
Q56.8906 62.4531 56.8906 51.9062
Q56.8906 45.0156 53.6875 40.4688
Q50.4844 35.9375 44.3906 34.1875
M19.6719 64.7969
L19.6719 38.9219
L32.0781 38.9219
Q39.2031 38.9219 42.8438 42.2188
Q46.4844 45.5156 46.4844 51.9062
Q46.4844 58.2969 42.8438 61.5469
Q39.2031 64.7969 32.0781 64.7969
z
" id="BitstreamVeraSans-Roman-52"/>
     </defs>
     <g transform="translate(409.41675 88.23825)scale(0.144 -0.144)">
      <use xlink:href="#BitstreamVeraSans-Roman-52"/>
      <use x="64.982421875" xlink:href="#BitstreamVeraSans-Roman-65"/>
      <use x="126.505859375" xlink:href="#BitstreamVeraSans-Roman-67"/>
      <use x="189.982421875" xlink:href="#BitstreamVeraSans-Roman-75"/>
      <use x="253.361328125" xlink:href="#BitstreamVeraSans-Roman-6c"/>
      <use x="281.14453125" xlink:href="#BitstreamVeraSans-Roman-61"/>
      <use x="342.423828125" xlink:href="#BitstreamVeraSans-Roman-72"/>
      <use x="383.537109375" xlink:href="#BitstreamVeraSans-Roman-20"/>
      <use x="415.32421875" xlink:href="#BitstreamVeraSans-Roman-54"/>
      <use x="461.658203125" xlink:href="#BitstreamVeraSans-Roman-72"/>
      <use x="502.771484375" xlink:href="#BitstreamVeraSans-Roman-69"/>
      <use x="530.5546875" xlink:href="#BitstreamVeraSans-Roman-61"/>
      <use x="591.833984375" xlink:href="#BitstreamVeraSans-Roman-6c"/>
      <use x="619.6171875" xlink:href="#BitstreamVeraSans-Roman-73"/>
     </g>
    </g>
    <g id="line2d_47">
     <path d="
M373.417 104.335
L393.577 104.335" style="fill:none;stroke:#ff0000;stroke-linecap:square;"/>
    </g>
    <g id="line2d_48"/>
    <g id="text_17">
     <!-- Stress Trials -->
     <g transform="translate(409.41675 109.37475)scale(0.144 -0.144)">
      <use xlink:href="#BitstreamVeraSans-Roman-53"/>
      <use x="63.4765625" xlink:href="#BitstreamVeraSans-Roman-74"/>
      <use x="102.685546875" xlink:href="#BitstreamVeraSans-Roman-72"/>
      <use x="141.548828125" xlink:href="#BitstreamVeraSans-Roman-65"/>
      <use x="203.072265625" xlink:href="#BitstreamVeraSans-Roman-73"/>
      <use x="255.171875" xlink:href="#BitstreamVeraSans-Roman-73"/>
      <use x="307.271484375" xlink:href="#BitstreamVeraSans-Roman-20"/>
      <use x="339.05859375" xlink:href="#BitstreamVeraSans-Roman-54"/>
      <use x="385.392578125" xlink:href="#BitstreamVeraSans-Roman-72"/>
      <use x="426.505859375" xlink:href="#BitstreamVeraSans-Roman-69"/>
      <use x="454.2890625" xlink:href="#BitstreamVeraSans-Roman-61"/>
      <use x="515.568359375" xlink:href="#BitstreamVeraSans-Roman-6c"/>
      <use x="543.3515625" xlink:href="#BitstreamVeraSans-Roman-73"/>
     </g>
    </g>
    <g id="line2d_49">
     <path d="
M373.417 125.471
L393.577 125.471" style="fill:none;stroke:#0000ff;stroke-linecap:square;"/>
    </g>
    <g id="line2d_50"/>
    <g id="text_18">
     <!-- Regular Trials -->
     <g transform="translate(409.41675 130.51125)scale(0.144 -0.144)">
      <use xlink:href="#BitstreamVeraSans-Roman-52"/>
      <use x="64.982421875" xlink:href="#BitstreamVeraSans-Roman-65"/>
      <use x="126.505859375" xlink:href="#BitstreamVeraSans-Roman-67"/>
      <use x="189.982421875" xlink:href="#BitstreamVeraSans-Roman-75"/>
      <use x="253.361328125" xlink:href="#BitstreamVeraSans-Roman-6c"/>
      <use x="281.14453125" xlink:href="#BitstreamVeraSans-Roman-61"/>
      <use x="342.423828125" xlink:href="#BitstreamVeraSans-Roman-72"/>
      <use x="383.537109375" xlink:href="#BitstreamVeraSans-Roman-20"/>
      <use x="415.32421875" xlink:href="#BitstreamVeraSans-Roman-54"/>
      <use x="461.658203125" xlink:href="#BitstreamVeraSans-Roman-72"/>
      <use x="502.771484375" xlink:href="#BitstreamVeraSans-Roman-69"/>
      <use x="530.5546875" xlink:href="#BitstreamVeraSans-Roman-61"/>
      <use x="591.833984375" xlink:href="#BitstreamVeraSans-Roman-6c"/>
      <use x="619.6171875" xlink:href="#BitstreamVeraSans-Roman-73"/>
     </g>
    </g>
    <g id="line2d_51">
     <path d="
M373.417 146.608
L393.577 146.608" style="fill:none;stroke:#ff0000;stroke-linecap:square;"/>
    </g>
    <g id="line2d_52"/>
    <g id="text_19">
     <!-- Stress Trials -->
     <g transform="translate(409.41675 151.64775)scale(0.144 -0.144)">
      <use xlink:href="#BitstreamVeraSans-Roman-53"/>
      <use x="63.4765625" xlink:href="#BitstreamVeraSans-Roman-74"/>
      <use x="102.685546875" xlink:href="#BitstreamVeraSans-Roman-72"/>
      <use x="141.548828125" xlink:href="#BitstreamVeraSans-Roman-65"/>
      <use x="203.072265625" xlink:href="#BitstreamVeraSans-Roman-73"/>
      <use x="255.171875" xlink:href="#BitstreamVeraSans-Roman-73"/>
      <use x="307.271484375" xlink:href="#BitstreamVeraSans-Roman-20"/>
      <use x="339.05859375" xlink:href="#BitstreamVeraSans-Roman-54"/>
      <use x="385.392578125" xlink:href="#BitstreamVeraSans-Roman-72"/>
      <use x="426.505859375" xlink:href="#BitstreamVeraSans-Roman-69"/>
      <use x="454.2890625" xlink:href="#BitstreamVeraSans-Roman-61"/>
      <use x="515.568359375" xlink:href="#BitstreamVeraSans-Roman-6c"/>
      <use x="543.3515625" xlink:href="#BitstreamVeraSans-Roman-73"/>
     </g>
    </g>
    <g id="line2d_53">
     <path d="
M373.417 167.744
L393.577 167.744" style="fill:none;stroke:#0000ff;stroke-linecap:square;"/>
    </g>
    <g id="line2d_54"/>
    <g id="text_20">
     <!-- Regular Trials -->
     <g transform="translate(409.41675 172.78425)scale(0.144 -0.144)">
      <use xlink:href="#BitstreamVeraSans-Roman-52"/>
      <use x="64.982421875" xlink:href="#BitstreamVeraSans-Roman-65"/>
      <use x="126.505859375" xlink:href="#BitstreamVeraSans-Roman-67"/>
      <use x="189.982421875" xlink:href="#BitstreamVeraSans-Roman-75"/>
      <use x="253.361328125" xlink:href="#BitstreamVeraSans-Roman-6c"/>
      <use x="281.14453125" xlink:href="#BitstreamVeraSans-Roman-61"/>
      <use x="342.423828125" xlink:href="#BitstreamVeraSans-Roman-72"/>
      <use x="383.537109375" xlink:href="#BitstreamVeraSans-Roman-20"/>
      <use x="415.32421875" xlink:href="#BitstreamVeraSans-Roman-54"/>
      <use x="461.658203125" xlink:href="#BitstreamVeraSans-Roman-72"/>
      <use x="502.771484375" xlink:href="#BitstreamVeraSans-Roman-69"/>
      <use x="530.5546875" xlink:href="#BitstreamVeraSans-Roman-61"/>
      <use x="591.833984375" xlink:href="#BitstreamVeraSans-Roman-6c"/>
      <use x="619.6171875" xlink:href="#BitstreamVeraSans-Roman-73"/>
     </g>
    </g>
    <g id="line2d_55">
     <path d="
M373.417 188.881
L393.577 188.881" style="fill:none;stroke:#ff0000;stroke-linecap:square;"/>
    </g>
    <g id="line2d_56"/>
    <g id="text_21">
     <!-- Stress Trials -->
     <g transform="translate(409.41675 193.92075)scale(0.144 -0.144)">
      <use xlink:href="#BitstreamVeraSans-Roman-53"/>
      <use x="63.4765625" xlink:href="#BitstreamVeraSans-Roman-74"/>
      <use x="102.685546875" xlink:href="#BitstreamVeraSans-Roman-72"/>
      <use x="141.548828125" xlink:href="#BitstreamVeraSans-Roman-65"/>
      <use x="203.072265625" xlink:href="#BitstreamVeraSans-Roman-73"/>
      <use x="255.171875" xlink:href="#BitstreamVeraSans-Roman-73"/>
      <use x="307.271484375" xlink:href="#BitstreamVeraSans-Roman-20"/>
      <use x="339.05859375" xlink:href="#BitstreamVeraSans-Roman-54"/>
      <use x="385.392578125" xlink:href="#BitstreamVeraSans-Roman-72"/>
      <use x="426.505859375" xlink:href="#BitstreamVeraSans-Roman-69"/>
      <use x="454.2890625" xlink:href="#BitstreamVeraSans-Roman-61"/>
      <use x="515.568359375" xlink:href="#BitstreamVeraSans-Roman-6c"/>
      <use x="543.3515625" xlink:href="#BitstreamVeraSans-Roman-73"/>
     </g>
    </g>
    <g id="line2d_57">
     <path d="
M373.417 210.017
L393.577 210.017" style="fill:none;stroke:#0000ff;stroke-linecap:square;"/>
    </g>
    <g id="line2d_58"/>
    <g id="text_22">
     <!-- Regular Trials -->
     <g transform="translate(409.41675 215.05725)scale(0.144 -0.144)">
      <use xlink:href="#BitstreamVeraSans-Roman-52"/>
      <use x="64.982421875" xlink:href="#BitstreamVeraSans-Roman-65"/>
      <use x="126.505859375" xlink:href="#BitstreamVeraSans-Roman-67"/>
      <use x="189.982421875" xlink:href="#BitstreamVeraSans-Roman-75"/>
      <use x="253.361328125" xlink:href="#BitstreamVeraSans-Roman-6c"/>
      <use x="281.14453125" xlink:href="#BitstreamVeraSans-Roman-61"/>
      <use x="342.423828125" xlink:href="#BitstreamVeraSans-Roman-72"/>
      <use x="383.537109375" xlink:href="#BitstreamVeraSans-Roman-20"/>
      <use x="415.32421875" xlink:href="#BitstreamVeraSans-Roman-54"/>
      <use x="461.658203125" xlink:href="#BitstreamVeraSans-Roman-72"/>
      <use x="502.771484375" xlink:href="#BitstreamVeraSans-Roman-69"/>
      <use x="530.5546875" xlink:href="#BitstreamVeraSans-Roman-61"/>
      <use x="591.833984375" xlink:href="#BitstreamVeraSans-Roman-6c"/>
      <use x="619.6171875" xlink:href="#BitstreamVeraSans-Roman-73"/>
     </g>
    </g>
    <g id="line2d_59">
     <path d="
M373.417 231.154
L393.577 231.154" style="fill:none;stroke:#ff0000;stroke-linecap:square;"/>
    </g>
    <g id="line2d_60"/>
    <g id="text_23">
     <!-- Stress Trials -->
     <g transform="translate(409.41675 236.19375)scale(0.144 -0.144)">
      <use xlink:href="#BitstreamVeraSans-Roman-53"/>
      <use x="63.4765625" xlink:href="#BitstreamVeraSans-Roman-74"/>
      <use x="102.685546875" xlink:href="#BitstreamVeraSans-Roman-72"/>
      <use x="141.548828125" xlink:href="#BitstreamVeraSans-Roman-65"/>
      <use x="203.072265625" xlink:href="#BitstreamVeraSans-Roman-73"/>
      <use x="255.171875" xlink:href="#BitstreamVeraSans-Roman-73"/>
      <use x="307.271484375" xlink:href="#BitstreamVeraSans-Roman-20"/>
      <use x="339.05859375" xlink:href="#BitstreamVeraSans-Roman-54"/>
      <use x="385.392578125" xlink:href="#BitstreamVeraSans-Roman-72"/>
      <use x="426.505859375" xlink:href="#BitstreamVeraSans-Roman-69"/>
      <use x="454.2890625" xlink:href="#BitstreamVeraSans-Roman-61"/>
      <use x="515.568359375" xlink:href="#BitstreamVeraSans-Roman-6c"/>
      <use x="543.3515625" xlink:href="#BitstreamVeraSans-Roman-73"/>
     </g>
    </g>
    <g id="line2d_61">
     <path d="
M373.417 252.29
L393.577 252.29" style="fill:none;stroke:#0000ff;stroke-linecap:square;"/>
    </g>
    <g id="line2d_62"/>
    <g id="text_24">
     <!-- Regular Trials -->
     <g transform="translate(409.41675 257.33025)scale(0.144 -0.144)">
      <use xlink:href="#BitstreamVeraSans-Roman-52"/>
      <use x="64.982421875" xlink:href="#BitstreamVeraSans-Roman-65"/>
      <use x="126.505859375" xlink:href="#BitstreamVeraSans-Roman-67"/>
      <use x="189.982421875" xlink:href="#BitstreamVeraSans-Roman-75"/>
      <use x="253.361328125" xlink:href="#BitstreamVeraSans-Roman-6c"/>
      <use x="281.14453125" xlink:href="#BitstreamVeraSans-Roman-61"/>
      <use x="342.423828125" xlink:href="#BitstreamVeraSans-Roman-72"/>
      <use x="383.537109375" xlink:href="#BitstreamVeraSans-Roman-20"/>
      <use x="415.32421875" xlink:href="#BitstreamVeraSans-Roman-54"/>
      <use x="461.658203125" xlink:href="#BitstreamVeraSans-Roman-72"/>
      <use x="502.771484375" xlink:href="#BitstreamVeraSans-Roman-69"/>
      <use x="530.5546875" xlink:href="#BitstreamVeraSans-Roman-61"/>
      <use x="591.833984375" xlink:href="#BitstreamVeraSans-Roman-6c"/>
      <use x="619.6171875" xlink:href="#BitstreamVeraSans-Roman-73"/>
     </g>
    </g>
    <g id="line2d_63">
     <path d="
M373.417 273.427
L393.577 273.427" style="fill:none;stroke:#ff0000;stroke-linecap:square;"/>
    </g>
    <g id="line2d_64"/>
    <g id="text_25">
     <!-- Stress Trials -->
     <g transform="translate(409.41675 278.46675)scale(0.144 -0.144)">
      <use xlink:href="#BitstreamVeraSans-Roman-53"/>
      <use x="63.4765625" xlink:href="#BitstreamVeraSans-Roman-74"/>
      <use x="102.685546875" xlink:href="#BitstreamVeraSans-Roman-72"/>
      <use x="141.548828125" xlink:href="#BitstreamVeraSans-Roman-65"/>
      <use x="203.072265625" xlink:href="#BitstreamVeraSans-Roman-73"/>
      <use x="255.171875" xlink:href="#BitstreamVeraSans-Roman-73"/>
      <use x="307.271484375" xlink:href="#BitstreamVeraSans-Roman-20"/>
      <use x="339.05859375" xlink:href="#BitstreamVeraSans-Roman-54"/>
      <use x="385.392578125" xlink:href="#BitstreamVeraSans-Roman-72"/>
      <use x="426.505859375" xlink:href="#BitstreamVeraSans-Roman-69"/>
      <use x="454.2890625" xlink:href="#BitstreamVeraSans-Roman-61"/>
      <use x="515.568359375" xlink:href="#BitstreamVeraSans-Roman-6c"/>
      <use x="543.3515625" xlink:href="#BitstreamVeraSans-Roman-73"/>
     </g>
    </g>
    <g id="line2d_65">
     <path d="
M373.417 294.563
L393.577 294.563" style="fill:none;stroke:#0000ff;stroke-linecap:square;"/>
    </g>
    <g id="line2d_66"/>
    <g id="text_26">
     <!-- Regular Trials -->
     <g transform="translate(409.41675 299.60325)scale(0.144 -0.144)">
      <use xlink:href="#BitstreamVeraSans-Roman-52"/>
      <use x="64.982421875" xlink:href="#BitstreamVeraSans-Roman-65"/>
      <use x="126.505859375" xlink:href="#BitstreamVeraSans-Roman-67"/>
      <use x="189.982421875" xlink:href="#BitstreamVeraSans-Roman-75"/>
      <use x="253.361328125" xlink:href="#BitstreamVeraSans-Roman-6c"/>
      <use x="281.14453125" xlink:href="#BitstreamVeraSans-Roman-61"/>
      <use x="342.423828125" xlink:href="#BitstreamVeraSans-Roman-72"/>
      <use x="383.537109375" xlink:href="#BitstreamVeraSans-Roman-20"/>
      <use x="415.32421875" xlink:href="#BitstreamVeraSans-Roman-54"/>
      <use x="461.658203125" xlink:href="#BitstreamVeraSans-Roman-72"/>
      <use x="502.771484375" xlink:href="#BitstreamVeraSans-Roman-69"/>
      <use x="530.5546875" xlink:href="#BitstreamVeraSans-Roman-61"/>
      <use x="591.833984375" xlink:href="#BitstreamVeraSans-Roman-6c"/>
      <use x="619.6171875" xlink:href="#BitstreamVeraSans-Roman-73"/>
     </g>
    </g>
    <g id="line2d_67">
     <path d="
M373.417 315.7
L393.577 315.7" style="fill:none;stroke:#ff0000;stroke-linecap:square;"/>
    </g>
    <g id="line2d_68"/>
    <g id="text_27">
     <!-- Stress Trials -->
     <g transform="translate(409.41675 320.73975)scale(0.144 -0.144)">
      <use xlink:href="#BitstreamVeraSans-Roman-53"/>
      <use x="63.4765625" xlink:href="#BitstreamVeraSans-Roman-74"/>
      <use x="102.685546875" xlink:href="#BitstreamVeraSans-Roman-72"/>
      <use x="141.548828125" xlink:href="#BitstreamVeraSans-Roman-65"/>
      <use x="203.072265625" xlink:href="#BitstreamVeraSans-Roman-73"/>
      <use x="255.171875" xlink:href="#BitstreamVeraSans-Roman-73"/>
      <use x="307.271484375" xlink:href="#BitstreamVeraSans-Roman-20"/>
      <use x="339.05859375" xlink:href="#BitstreamVeraSans-Roman-54"/>
      <use x="385.392578125" xlink:href="#BitstreamVeraSans-Roman-72"/>
      <use x="426.505859375" xlink:href="#BitstreamVeraSans-Roman-69"/>
      <use x="454.2890625" xlink:href="#BitstreamVeraSans-Roman-61"/>
      <use x="515.568359375" xlink:href="#BitstreamVeraSans-Roman-6c"/>
      <use x="543.3515625" xlink:href="#BitstreamVeraSans-Roman-73"/>
     </g>
    </g>
    <g id="line2d_69">
     <path d="
M373.417 336.836
L393.577 336.836" style="fill:none;stroke:#0000ff;stroke-linecap:square;"/>
    </g>
    <g id="line2d_70"/>
    <g id="text_28">
     <!-- Regular Trials -->
     <g transform="translate(409.41675 341.87625)scale(0.144 -0.144)">
      <use xlink:href="#BitstreamVeraSans-Roman-52"/>
      <use x="64.982421875" xlink:href="#BitstreamVeraSans-Roman-65"/>
      <use x="126.505859375" xlink:href="#BitstreamVeraSans-Roman-67"/>
      <use x="189.982421875" xlink:href="#BitstreamVeraSans-Roman-75"/>
      <use x="253.361328125" xlink:href="#BitstreamVeraSans-Roman-6c"/>
      <use x="281.14453125" xlink:href="#BitstreamVeraSans-Roman-61"/>
      <use x="342.423828125" xlink:href="#BitstreamVeraSans-Roman-72"/>
      <use x="383.537109375" xlink:href="#BitstreamVeraSans-Roman-20"/>
      <use x="415.32421875" xlink:href="#BitstreamVeraSans-Roman-54"/>
      <use x="461.658203125" xlink:href="#BitstreamVeraSans-Roman-72"/>
      <use x="502.771484375" xlink:href="#BitstreamVeraSans-Roman-69"/>
      <use x="530.5546875" xlink:href="#BitstreamVeraSans-Roman-61"/>
      <use x="591.833984375" xlink:href="#BitstreamVeraSans-Roman-6c"/>
      <use x="619.6171875" xlink:href="#BitstreamVeraSans-Roman-73"/>
     </g>
    </g>
    <g id="line2d_71">
     <path d="
M373.417 357.973
L393.577 357.973" style="fill:none;stroke:#ff0000;stroke-linecap:square;"/>
    </g>
    <g id="line2d_72"/>
    <g id="text_29">
     <!-- Stress Trials -->
     <g transform="translate(409.41675 363.01275)scale(0.144 -0.144)">
      <use xlink:href="#BitstreamVeraSans-Roman-53"/>
      <use x="63.4765625" xlink:href="#BitstreamVeraSans-Roman-74"/>
      <use x="102.685546875" xlink:href="#BitstreamVeraSans-Roman-72"/>
      <use x="141.548828125" xlink:href="#BitstreamVeraSans-Roman-65"/>
      <use x="203.072265625" xlink:href="#BitstreamVeraSans-Roman-73"/>
      <use x="255.171875" xlink:href="#BitstreamVeraSans-Roman-73"/>
      <use x="307.271484375" xlink:href="#BitstreamVeraSans-Roman-20"/>
      <use x="339.05859375" xlink:href="#BitstreamVeraSans-Roman-54"/>
      <use x="385.392578125" xlink:href="#BitstreamVeraSans-Roman-72"/>
      <use x="426.505859375" xlink:href="#BitstreamVeraSans-Roman-69"/>
      <use x="454.2890625" xlink:href="#BitstreamVeraSans-Roman-61"/>
      <use x="515.568359375" xlink:href="#BitstreamVeraSans-Roman-6c"/>
      <use x="543.3515625" xlink:href="#BitstreamVeraSans-Roman-73"/>
     </g>
    </g>
    <g id="line2d_73">
     <path d="
M373.417 379.109
L393.577 379.109" style="fill:none;stroke:#0000ff;stroke-linecap:square;"/>
    </g>
    <g id="line2d_74"/>
    <g id="text_30">
     <!-- Regular Trials -->
     <g transform="translate(409.41675 384.14925)scale(0.144 -0.144)">
      <use xlink:href="#BitstreamVeraSans-Roman-52"/>
      <use x="64.982421875" xlink:href="#BitstreamVeraSans-Roman-65"/>
      <use x="126.505859375" xlink:href="#BitstreamVeraSans-Roman-67"/>
      <use x="189.982421875" xlink:href="#BitstreamVeraSans-Roman-75"/>
      <use x="253.361328125" xlink:href="#BitstreamVeraSans-Roman-6c"/>
      <use x="281.14453125" xlink:href="#BitstreamVeraSans-Roman-61"/>
      <use x="342.423828125" xlink:href="#BitstreamVeraSans-Roman-72"/>
      <use x="383.537109375" xlink:href="#BitstreamVeraSans-Roman-20"/>
      <use x="415.32421875" xlink:href="#BitstreamVeraSans-Roman-54"/>
      <use x="461.658203125" xlink:href="#BitstreamVeraSans-Roman-72"/>
      <use x="502.771484375" xlink:href="#BitstreamVeraSans-Roman-69"/>
      <use x="530.5546875" xlink:href="#BitstreamVeraSans-Roman-61"/>
      <use x="591.833984375" xlink:href="#BitstreamVeraSans-Roman-6c"/>
      <use x="619.6171875" xlink:href="#BitstreamVeraSans-Roman-73"/>
     </g>
    </g>
    <g id="line2d_75">
     <path d="
M373.417 400.246
L393.577 400.246" style="fill:none;stroke:#ff0000;stroke-linecap:square;"/>
    </g>
    <g id="line2d_76"/>
    <g id="text_31">
     <!-- Stress Trials -->
     <g transform="translate(409.41675 405.28575)scale(0.144 -0.144)">
      <use xlink:href="#BitstreamVeraSans-Roman-53"/>
      <use x="63.4765625" xlink:href="#BitstreamVeraSans-Roman-74"/>
      <use x="102.685546875" xlink:href="#BitstreamVeraSans-Roman-72"/>
      <use x="141.548828125" xlink:href="#BitstreamVeraSans-Roman-65"/>
      <use x="203.072265625" xlink:href="#BitstreamVeraSans-Roman-73"/>
      <use x="255.171875" xlink:href="#BitstreamVeraSans-Roman-73"/>
      <use x="307.271484375" xlink:href="#BitstreamVeraSans-Roman-20"/>
      <use x="339.05859375" xlink:href="#BitstreamVeraSans-Roman-54"/>
      <use x="385.392578125" xlink:href="#BitstreamVeraSans-Roman-72"/>
      <use x="426.505859375" xlink:href="#BitstreamVeraSans-Roman-69"/>
      <use x="454.2890625" xlink:href="#BitstreamVeraSans-Roman-61"/>
      <use x="515.568359375" xlink:href="#BitstreamVeraSans-Roman-6c"/>
      <use x="543.3515625" xlink:href="#BitstreamVeraSans-Roman-73"/>
     </g>
    </g>
    <g id="line2d_77">
     <path d="
M373.417 421.382
L393.577 421.382" style="fill:none;stroke:#0000ff;stroke-linecap:square;"/>
    </g>
    <g id="line2d_78"/>
    <g id="text_32">
     <!-- Regular Trials -->
     <g transform="translate(409.41675 426.42225)scale(0.144 -0.144)">
      <use xlink:href="#BitstreamVeraSans-Roman-52"/>
      <use x="64.982421875" xlink:href="#BitstreamVeraSans-Roman-65"/>
      <use x="126.505859375" xlink:href="#BitstreamVeraSans-Roman-67"/>
      <use x="189.982421875" xlink:href="#BitstreamVeraSans-Roman-75"/>
      <use x="253.361328125" xlink:href="#BitstreamVeraSans-Roman-6c"/>
      <use x="281.14453125" xlink:href="#BitstreamVeraSans-Roman-61"/>
      <use x="342.423828125" xlink:href="#BitstreamVeraSans-Roman-72"/>
      <use x="383.537109375" xlink:href="#BitstreamVeraSans-Roman-20"/>
      <use x="415.32421875" xlink:href="#BitstreamVeraSans-Roman-54"/>
      <use x="461.658203125" xlink:href="#BitstreamVeraSans-Roman-72"/>
      <use x="502.771484375" xlink:href="#BitstreamVeraSans-Roman-69"/>
      <use x="530.5546875" xlink:href="#BitstreamVeraSans-Roman-61"/>
      <use x="591.833984375" xlink:href="#BitstreamVeraSans-Roman-6c"/>
      <use x="619.6171875" xlink:href="#BitstreamVeraSans-Roman-73"/>
     </g>
    </g>
    <g id="line2d_79">
     <path d="
M373.417 442.519" style="fill:none;stroke:#ff0000;stroke-linecap:square;"/>
    </g>
    <g id="line2d_80"/>
    <g id="text_33">
     <!-- Stress Trials -->
     <g transform="translate(409.41675 447.55875)scale(0.144 -0.144)">
      <use xlink:href="#BitstreamVeraSans-Roman-53"/>
      <use x="63.4765625" xlink:href="#BitstreamVeraSans-Roman-74"/>
      <use x="102.685546875" xlink:href="#BitstreamVeraSans-Roman-72"/>
      <use x="141.548828125" xlink:href="#BitstreamVeraSans-Roman-65"/>
      <use x="203.072265625" xlink:href="#BitstreamVeraSans-Roman-73"/>
      <use x="255.171875" xlink:href="#BitstreamVeraSans-Roman-73"/>
      <use x="307.271484375" xlink:href="#BitstreamVeraSans-Roman-20"/>
      <use x="339.05859375" xlink:href="#BitstreamVeraSans-Roman-54"/>
      <use x="385.392578125" xlink:href="#BitstreamVeraSans-Roman-72"/>
      <use x="426.505859375" xlink:href="#BitstreamVeraSans-Roman-69"/>
      <use x="454.2890625" xlink:href="#BitstreamVeraSans-Roman-61"/>
      <use x="515.568359375" xlink:href="#BitstreamVeraSans-Roman-6c"/>
      <use x="543.3515625" xlink:href="#BitstreamVeraSans-Roman-73"/>
     </g>
    </g>
    <g id="line2d_81">
     <path d="
M373.417 463.655" style="fill:none;stroke:#0000ff;stroke-linecap:square;"/>
    </g>
    <g id="line2d_82"/>
    <g id="text_34">
     <!-- Regular Trials -->
     <g transform="translate(409.41675 468.69525)scale(0.144 -0.144)">
      <use xlink:href="#BitstreamVeraSans-Roman-52"/>
      <use x="64.982421875" xlink:href="#BitstreamVeraSans-Roman-65"/>
      <use x="126.505859375" xlink:href="#BitstreamVeraSans-Roman-67"/>
      <use x="189.982421875" xlink:href="#BitstreamVeraSans-Roman-75"/>
      <use x="253.361328125" xlink:href="#BitstreamVeraSans-Roman-6c"/>
      <use x="281.14453125" xlink:href="#BitstreamVeraSans-Roman-61"/>
      <use x="342.423828125" xlink:href="#BitstreamVeraSans-Roman-72"/>
      <use x="383.537109375" xlink:href="#BitstreamVeraSans-Roman-20"/>
      <use x="415.32421875" xlink:href="#BitstreamVeraSans-Roman-54"/>
      <use x="461.658203125" xlink:href="#BitstreamVeraSans-Roman-72"/>
      <use x="502.771484375" xlink:href="#BitstreamVeraSans-Roman-69"/>
      <use x="530.5546875" xlink:href="#BitstreamVeraSans-Roman-61"/>
      <use x="591.833984375" xlink:href="#BitstreamVeraSans-Roman-6c"/>
      <use x="619.6171875" xlink:href="#BitstreamVeraSans-Roman-73"/>
     </g>
    </g>
   </g>
  </g>
 </g>
 <defs>
  <clipPath id="p7ff5b81e1d">
   <rect height="345.6" width="446.4" x="72.0" y="43.2"/>
  </clipPath>
 </defs>
</svg>
