<?xml version="1.0" encoding="utf-8" standalone="no"?>
<!DOCTYPE svg PUBLIC "-//W3C//DTD SVG 1.1//EN"
  "http://www.w3.org/Graphics/SVG/1.1/DTD/svg11.dtd">
<!-- Created with matplotlib (http://matplotlib.org/) -->
<svg height="432pt" version="1.1" viewBox="0 0 576 432" width="576pt" xmlns="http://www.w3.org/2000/svg" xmlns:xlink="http://www.w3.org/1999/xlink">
 <defs>
  <style type="text/css">
*{stroke-linecap:butt;stroke-linejoin:round;}
  </style>
 </defs>
 <g id="figure_1">
  <g id="patch_1">
   <path d="
M0 432
L576 432
L576 0
L0 0
z
" style="fill:#ffffff;"/>
  </g>
  <g id="axes_1">
   <g id="patch_2">
    <path d="
M41.9491 402.44
L254.774 402.44
L254.774 238.28
L41.9491 238.28
z
" style="fill:#ffffff;"/>
   </g>
   <g id="line2d_1">
    <path clip-path="url(#p12b1442ff1)" d="
M45.4961 317.325
L49.0432 319.794
L52.5903 291.7
L56.1374 321.078
L59.6845 300.295
L63.2315 309.451
L66.7786 326.239
L70.3257 308.844
L73.8728 306.273
L77.4198 309.076
L80.9669 305.197
L84.514 301.369
L88.0611 322.117
L91.6082 297.116
L95.1552 302.189
L98.7023 299.378
L102.249 293.314
L105.796 321.726
L109.344 298.008
L112.891 297.813
L116.438 305.001
L119.985 337.814
L123.532 311.75
L127.079 321.921
L130.626 327.985
L134.173 294.365
L137.72 322.557
L141.267 310.478
L144.814 315.271
L148.361 297.727
L151.908 306.672
L155.456 333.65
L159.003 319.721
L162.55 304.268
L166.097 309.256
L169.644 319.835
L173.191 286.663
L176.738 289.536
L180.285 317.911
L183.832 309.193
L187.379 323.828
L190.926 293.216
L194.473 308.278
L198.021 308.486
L201.568 326.029
L205.115 320.21
L208.662 327.112
L212.209 289.597
L215.756 291.064
L219.303 305.7
L222.85 315.173" style="fill:none;stroke:#ff0000;stroke-linecap:square;"/>
   </g>
   <g id="line2d_2">
    <path clip-path="url(#p12b1442ff1)" d="
M45.4961 309.94
L49.0432 309.934
L52.5903 309.927
L56.1374 309.921
L59.6845 309.914
L63.2315 309.908
L66.7786 309.901
L70.3257 309.894
L73.8728 309.888
L77.4198 309.881
L80.9669 309.875
L84.514 309.868
L88.0611 309.861
L91.6082 309.855
L95.1552 309.848
L98.7023 309.842
L102.249 309.835
L105.796 309.829
L109.344 309.822
L112.891 309.815
L116.438 309.809
L119.985 309.802
L123.532 309.796
L127.079 309.789
L130.626 309.782
L134.173 309.776
L137.72 309.769
L141.267 309.763
L144.814 309.756
L148.361 309.749
L151.908 309.743
L155.456 309.736
L159.003 309.73
L162.55 309.723
L166.097 309.717
L169.644 309.71
L173.191 309.703
L176.738 309.697
L180.285 309.69
L183.832 309.684
L187.379 309.677
L190.926 309.67
L194.473 309.664
L198.021 309.657
L201.568 309.651
L205.115 309.644
L208.662 309.638
L212.209 309.631
L215.756 309.624
L219.303 309.618
L222.85 309.611" style="fill:none;stroke:#ff0000;stroke-dasharray:6.000000,6.000000;stroke-dashoffset:0.0;"/>
   </g>
   <g id="patch_3">
    <path d="
M41.9491 238.28
L254.774 238.28" style="fill:none;stroke:#000000;stroke-linecap:square;stroke-linejoin:miter;"/>
   </g>
   <g id="patch_4">
    <path d="
M254.774 402.44
L254.774 238.28" style="fill:none;stroke:#000000;stroke-linecap:square;stroke-linejoin:miter;"/>
   </g>
   <g id="patch_5">
    <path d="
M41.9491 402.44
L254.774 402.44" style="fill:none;stroke:#000000;stroke-linecap:square;stroke-linejoin:miter;"/>
   </g>
   <g id="patch_6">
    <path d="
M41.9491 402.44
L41.9491 238.28" style="fill:none;stroke:#000000;stroke-linecap:square;stroke-linejoin:miter;"/>
   </g>
   <g id="matplotlib.axis_1">
    <g id="xtick_1">
     <g id="line2d_3">
      <defs>
       <path d="
M0 0
L0 -4" id="m93b0483c22" style="stroke:#000000;stroke-width:0.5;"/>
      </defs>
      <g>
       <use style="stroke:#000000;stroke-width:0.5;" x="41.9490625" xlink:href="#m93b0483c22" y="402.44"/>
      </g>
     </g>
     <g id="line2d_4">
      <defs>
       <path d="
M0 0
L0 4" id="m741efc42ff" style="stroke:#000000;stroke-width:0.5;"/>
      </defs>
      <g>
       <use style="stroke:#000000;stroke-width:0.5;" x="41.9490625" xlink:href="#m741efc42ff" y="238.28"/>
      </g>
     </g>
     <g id="text_1">
      <!-- 0 -->
      <defs>
       <path d="
M31.7812 66.4062
Q24.1719 66.4062 20.3281 58.9062
Q16.5 51.4219 16.5 36.375
Q16.5 21.3906 20.3281 13.8906
Q24.1719 6.39062 31.7812 6.39062
Q39.4531 6.39062 43.2812 13.8906
Q47.125 21.3906 47.125 36.375
Q47.125 51.4219 43.2812 58.9062
Q39.4531 66.4062 31.7812 66.4062
M31.7812 74.2188
Q44.0469 74.2188 50.5156 64.5156
Q56.9844 54.8281 56.9844 36.375
Q56.9844 17.9688 50.5156 8.26562
Q44.0469 -1.42188 31.7812 -1.42188
Q19.5312 -1.42188 13.0625 8.26562
Q6.59375 17.9688 6.59375 36.375
Q6.59375 54.8281 13.0625 64.5156
Q19.5312 74.2188 31.7812 74.2188" id="BitstreamVeraSans-Roman-30"/>
      </defs>
      <g transform="translate(38.925625 415.558125)scale(0.12 -0.12)">
       <use xlink:href="#BitstreamVeraSans-Roman-30"/>
      </g>
     </g>
    </g>
    <g id="xtick_2">
     <g id="line2d_5">
      <g>
       <use style="stroke:#000000;stroke-width:0.5;" x="77.4198461174" xlink:href="#m93b0483c22" y="402.44"/>
      </g>
     </g>
     <g id="line2d_6">
      <g>
       <use style="stroke:#000000;stroke-width:0.5;" x="77.4198461174" xlink:href="#m741efc42ff" y="238.28"/>
      </g>
     </g>
     <g id="text_2">
      <!-- 10 -->
      <defs>
       <path d="
M12.4062 8.29688
L28.5156 8.29688
L28.5156 63.9219
L10.9844 60.4062
L10.9844 69.3906
L28.4219 72.9062
L38.2812 72.9062
L38.2812 8.29688
L54.3906 8.29688
L54.3906 0
L12.4062 0
z
" id="BitstreamVeraSans-Roman-31"/>
      </defs>
      <g transform="translate(70.8423461174 415.558125)scale(0.12 -0.12)">
       <use xlink:href="#BitstreamVeraSans-Roman-31"/>
       <use x="63.623046875" xlink:href="#BitstreamVeraSans-Roman-30"/>
      </g>
     </g>
    </g>
    <g id="xtick_3">
     <g id="line2d_7">
      <g>
       <use style="stroke:#000000;stroke-width:0.5;" x="112.890629735" xlink:href="#m93b0483c22" y="402.44"/>
      </g>
     </g>
     <g id="line2d_8">
      <g>
       <use style="stroke:#000000;stroke-width:0.5;" x="112.890629735" xlink:href="#m741efc42ff" y="238.28"/>
      </g>
     </g>
     <g id="text_3">
      <!-- 20 -->
      <defs>
       <path d="
M19.1875 8.29688
L53.6094 8.29688
L53.6094 0
L7.32812 0
L7.32812 8.29688
Q12.9375 14.1094 22.625 23.8906
Q32.3281 33.6875 34.8125 36.5312
Q39.5469 41.8438 41.4219 45.5312
Q43.3125 49.2188 43.3125 52.7812
Q43.3125 58.5938 39.2344 62.25
Q35.1562 65.9219 28.6094 65.9219
Q23.9688 65.9219 18.8125 64.3125
Q13.6719 62.7031 7.8125 59.4219
L7.8125 69.3906
Q13.7656 71.7812 18.9375 73
Q24.125 74.2188 28.4219 74.2188
Q39.75 74.2188 46.4844 68.5469
Q53.2188 62.8906 53.2188 53.4219
Q53.2188 48.9219 51.5312 44.8906
Q49.8594 40.875 45.4062 35.4062
Q44.1875 33.9844 37.6406 27.2188
Q31.1094 20.4531 19.1875 8.29688" id="BitstreamVeraSans-Roman-32"/>
      </defs>
      <g transform="translate(106.093754735 415.558125)scale(0.12 -0.12)">
       <use xlink:href="#BitstreamVeraSans-Roman-32"/>
       <use x="63.623046875" xlink:href="#BitstreamVeraSans-Roman-30"/>
      </g>
     </g>
    </g>
    <g id="xtick_4">
     <g id="line2d_9">
      <g>
       <use style="stroke:#000000;stroke-width:0.5;" x="148.361413352" xlink:href="#m93b0483c22" y="402.44"/>
      </g>
     </g>
     <g id="line2d_10">
      <g>
       <use style="stroke:#000000;stroke-width:0.5;" x="148.361413352" xlink:href="#m741efc42ff" y="238.28"/>
      </g>
     </g>
     <g id="text_4">
      <!-- 30 -->
      <defs>
       <path d="
M40.5781 39.3125
Q47.6562 37.7969 51.625 33
Q55.6094 28.2188 55.6094 21.1875
Q55.6094 10.4062 48.1875 4.48438
Q40.7656 -1.42188 27.0938 -1.42188
Q22.5156 -1.42188 17.6562 -0.515625
Q12.7969 0.390625 7.625 2.20312
L7.625 11.7188
Q11.7188 9.32812 16.5938 8.10938
Q21.4844 6.89062 26.8125 6.89062
Q36.0781 6.89062 40.9375 10.5469
Q45.7969 14.2031 45.7969 21.1875
Q45.7969 27.6406 41.2812 31.2656
Q36.7656 34.9062 28.7188 34.9062
L20.2188 34.9062
L20.2188 43.0156
L29.1094 43.0156
Q36.375 43.0156 40.2344 45.9219
Q44.0938 48.8281 44.0938 54.2969
Q44.0938 59.9062 40.1094 62.9062
Q36.1406 65.9219 28.7188 65.9219
Q24.6562 65.9219 20.0156 65.0312
Q15.375 64.1562 9.8125 62.3125
L9.8125 71.0938
Q15.4375 72.6562 20.3438 73.4375
Q25.25 74.2188 29.5938 74.2188
Q40.8281 74.2188 47.3594 69.1094
Q53.9062 64.0156 53.9062 55.3281
Q53.9062 49.2656 50.4375 45.0938
Q46.9688 40.9219 40.5781 39.3125" id="BitstreamVeraSans-Roman-33"/>
      </defs>
      <g transform="translate(141.582350852 415.558125)scale(0.12 -0.12)">
       <use xlink:href="#BitstreamVeraSans-Roman-33"/>
       <use x="63.623046875" xlink:href="#BitstreamVeraSans-Roman-30"/>
      </g>
     </g>
    </g>
    <g id="xtick_5">
     <g id="line2d_11">
      <g>
       <use style="stroke:#000000;stroke-width:0.5;" x="183.83219697" xlink:href="#m93b0483c22" y="402.44"/>
      </g>
     </g>
     <g id="line2d_12">
      <g>
       <use style="stroke:#000000;stroke-width:0.5;" x="183.83219697" xlink:href="#m741efc42ff" y="238.28"/>
      </g>
     </g>
     <g id="text_5">
      <!-- 40 -->
      <defs>
       <path d="
M37.7969 64.3125
L12.8906 25.3906
L37.7969 25.3906
z

M35.2031 72.9062
L47.6094 72.9062
L47.6094 25.3906
L58.0156 25.3906
L58.0156 17.1875
L47.6094 17.1875
L47.6094 0
L37.7969 0
L37.7969 17.1875
L4.89062 17.1875
L4.89062 26.7031
z
" id="BitstreamVeraSans-Roman-34"/>
      </defs>
      <g transform="translate(176.88907197 415.558125)scale(0.12 -0.12)">
       <use xlink:href="#BitstreamVeraSans-Roman-34"/>
       <use x="63.623046875" xlink:href="#BitstreamVeraSans-Roman-30"/>
      </g>
     </g>
    </g>
    <g id="xtick_6">
     <g id="line2d_13">
      <g>
       <use style="stroke:#000000;stroke-width:0.5;" x="219.302980587" xlink:href="#m93b0483c22" y="402.44"/>
      </g>
     </g>
     <g id="line2d_14">
      <g>
       <use style="stroke:#000000;stroke-width:0.5;" x="219.302980587" xlink:href="#m741efc42ff" y="238.28"/>
      </g>
     </g>
     <g id="text_6">
      <!-- 50 -->
      <defs>
       <path d="
M10.7969 72.9062
L49.5156 72.9062
L49.5156 64.5938
L19.8281 64.5938
L19.8281 46.7344
Q21.9688 47.4688 24.1094 47.8281
Q26.2656 48.1875 28.4219 48.1875
Q40.625 48.1875 47.75 41.5
Q54.8906 34.8125 54.8906 23.3906
Q54.8906 11.625 47.5625 5.09375
Q40.2344 -1.42188 26.9062 -1.42188
Q22.3125 -1.42188 17.5469 -0.640625
Q12.7969 0.140625 7.71875 1.70312
L7.71875 11.625
Q12.1094 9.23438 16.7969 8.0625
Q21.4844 6.89062 26.7031 6.89062
Q35.1562 6.89062 40.0781 11.3281
Q45.0156 15.7656 45.0156 23.3906
Q45.0156 31 40.0781 35.4375
Q35.1562 39.8906 26.7031 39.8906
Q22.75 39.8906 18.8125 39.0156
Q14.8906 38.1406 10.7969 36.2812
z
" id="BitstreamVeraSans-Roman-35"/>
      </defs>
      <g transform="translate(212.529543087 415.558125)scale(0.12 -0.12)">
       <use xlink:href="#BitstreamVeraSans-Roman-35"/>
       <use x="63.623046875" xlink:href="#BitstreamVeraSans-Roman-30"/>
      </g>
     </g>
    </g>
    <g id="xtick_7">
     <g id="line2d_15">
      <g>
       <use style="stroke:#000000;stroke-width:0.5;" x="254.773764205" xlink:href="#m93b0483c22" y="402.44"/>
      </g>
     </g>
     <g id="line2d_16">
      <g>
       <use style="stroke:#000000;stroke-width:0.5;" x="254.773764205" xlink:href="#m741efc42ff" y="238.28"/>
      </g>
     </g>
     <g id="text_7">
      <!-- 60 -->
      <defs>
       <path d="
M33.0156 40.375
Q26.375 40.375 22.4844 35.8281
Q18.6094 31.2969 18.6094 23.3906
Q18.6094 15.5312 22.4844 10.9531
Q26.375 6.39062 33.0156 6.39062
Q39.6562 6.39062 43.5312 10.9531
Q47.4062 15.5312 47.4062 23.3906
Q47.4062 31.2969 43.5312 35.8281
Q39.6562 40.375 33.0156 40.375
M52.5938 71.2969
L52.5938 62.3125
Q48.875 64.0625 45.0938 64.9844
Q41.3125 65.9219 37.5938 65.9219
Q27.8281 65.9219 22.6719 59.3281
Q17.5312 52.7344 16.7969 39.4062
Q19.6719 43.6562 24.0156 45.9219
Q28.375 48.1875 33.5938 48.1875
Q44.5781 48.1875 50.9531 41.5156
Q57.3281 34.8594 57.3281 23.3906
Q57.3281 12.1562 50.6875 5.35938
Q44.0469 -1.42188 33.0156 -1.42188
Q20.3594 -1.42188 13.6719 8.26562
Q6.98438 17.9688 6.98438 36.375
Q6.98438 53.6562 15.1875 63.9375
Q23.3906 74.2188 37.2031 74.2188
Q40.9219 74.2188 44.7031 73.4844
Q48.4844 72.75 52.5938 71.2969" id="BitstreamVeraSans-Roman-36"/>
      </defs>
      <g transform="translate(247.956264205 415.558125)scale(0.12 -0.12)">
       <use xlink:href="#BitstreamVeraSans-Roman-36"/>
       <use x="63.623046875" xlink:href="#BitstreamVeraSans-Roman-30"/>
      </g>
     </g>
    </g>
   </g>
   <g id="matplotlib.axis_2">
    <g id="ytick_1">
     <g id="line2d_17">
      <defs>
       <path d="
M0 0
L4 0" id="m728421d6d4" style="stroke:#000000;stroke-width:0.5;"/>
      </defs>
      <g>
       <use style="stroke:#000000;stroke-width:0.5;" x="41.9490625" xlink:href="#m728421d6d4" y="387.516363636"/>
      </g>
     </g>
     <g id="line2d_18">
      <defs>
       <path d="
M0 0
L-4 0" id="mcb0005524f" style="stroke:#000000;stroke-width:0.5;"/>
      </defs>
      <g>
       <use style="stroke:#000000;stroke-width:0.5;" x="254.773764205" xlink:href="#mcb0005524f" y="387.516363636"/>
      </g>
     </g>
     <g id="text_8">
      <!-- 0.30 -->
      <defs>
       <path d="
M10.6875 12.4062
L21 12.4062
L21 0
L10.6875 0
z
" id="BitstreamVeraSans-Roman-2e"/>
      </defs>
      <g transform="translate(12.8184375 390.827613636)scale(0.12 -0.12)">
       <use xlink:href="#BitstreamVeraSans-Roman-30"/>
       <use x="63.623046875" xlink:href="#BitstreamVeraSans-Roman-2e"/>
       <use x="95.41015625" xlink:href="#BitstreamVeraSans-Roman-33"/>
       <use x="159.033203125" xlink:href="#BitstreamVeraSans-Roman-30"/>
      </g>
     </g>
    </g>
    <g id="ytick_2">
     <g id="line2d_19">
      <g>
       <use style="stroke:#000000;stroke-width:0.5;" x="41.9490625" xlink:href="#m728421d6d4" y="350.207272727"/>
      </g>
     </g>
     <g id="line2d_20">
      <g>
       <use style="stroke:#000000;stroke-width:0.5;" x="254.773764205" xlink:href="#mcb0005524f" y="350.207272727"/>
      </g>
     </g>
     <g id="text_9">
      <!-- 0.35 -->
      <g transform="translate(13.0696875 353.518522727)scale(0.12 -0.12)">
       <use xlink:href="#BitstreamVeraSans-Roman-30"/>
       <use x="63.623046875" xlink:href="#BitstreamVeraSans-Roman-2e"/>
       <use x="95.41015625" xlink:href="#BitstreamVeraSans-Roman-33"/>
       <use x="159.033203125" xlink:href="#BitstreamVeraSans-Roman-35"/>
      </g>
     </g>
    </g>
    <g id="ytick_3">
     <g id="line2d_21">
      <g>
       <use style="stroke:#000000;stroke-width:0.5;" x="41.9490625" xlink:href="#m728421d6d4" y="312.898181818"/>
      </g>
     </g>
     <g id="line2d_22">
      <g>
       <use style="stroke:#000000;stroke-width:0.5;" x="254.773764205" xlink:href="#mcb0005524f" y="312.898181818"/>
      </g>
     </g>
     <g id="text_10">
      <!-- 0.40 -->
      <g transform="translate(12.8184375 316.209431818)scale(0.12 -0.12)">
       <use xlink:href="#BitstreamVeraSans-Roman-30"/>
       <use x="63.623046875" xlink:href="#BitstreamVeraSans-Roman-2e"/>
       <use x="95.41015625" xlink:href="#BitstreamVeraSans-Roman-34"/>
       <use x="159.033203125" xlink:href="#BitstreamVeraSans-Roman-30"/>
      </g>
     </g>
    </g>
    <g id="ytick_4">
     <g id="line2d_23">
      <g>
       <use style="stroke:#000000;stroke-width:0.5;" x="41.9490625" xlink:href="#m728421d6d4" y="275.589090909"/>
      </g>
     </g>
     <g id="line2d_24">
      <g>
       <use style="stroke:#000000;stroke-width:0.5;" x="254.773764205" xlink:href="#mcb0005524f" y="275.589090909"/>
      </g>
     </g>
     <g id="text_11">
      <!-- 0.45 -->
      <g transform="translate(13.0696875 278.900340909)scale(0.12 -0.12)">
       <use xlink:href="#BitstreamVeraSans-Roman-30"/>
       <use x="63.623046875" xlink:href="#BitstreamVeraSans-Roman-2e"/>
       <use x="95.41015625" xlink:href="#BitstreamVeraSans-Roman-34"/>
       <use x="159.033203125" xlink:href="#BitstreamVeraSans-Roman-35"/>
      </g>
     </g>
    </g>
    <g id="ytick_5">
     <g id="line2d_25">
      <g>
       <use style="stroke:#000000;stroke-width:0.5;" x="41.9490625" xlink:href="#m728421d6d4" y="238.28"/>
      </g>
     </g>
     <g id="line2d_26">
      <g>
       <use style="stroke:#000000;stroke-width:0.5;" x="254.773764205" xlink:href="#mcb0005524f" y="238.28"/>
      </g>
     </g>
     <g id="text_12">
      <!-- 0.50 -->
      <g transform="translate(12.8184375 241.59125)scale(0.12 -0.12)">
       <use xlink:href="#BitstreamVeraSans-Roman-30"/>
       <use x="63.623046875" xlink:href="#BitstreamVeraSans-Roman-2e"/>
       <use x="95.41015625" xlink:href="#BitstreamVeraSans-Roman-35"/>
       <use x="159.033203125" xlink:href="#BitstreamVeraSans-Roman-30"/>
      </g>
     </g>
    </g>
   </g>
   <g id="text_13">
    <!-- Pulse in Stress Trials -->
    <defs>
     <path id="BitstreamVeraSans-Roman-20"/>
     <path d="
M54.8906 33.0156
L54.8906 0
L45.9062 0
L45.9062 32.7188
Q45.9062 40.4844 42.875 44.3281
Q39.8438 48.1875 33.7969 48.1875
Q26.5156 48.1875 22.3125 43.5469
Q18.1094 38.9219 18.1094 30.9062
L18.1094 0
L9.07812 0
L9.07812 54.6875
L18.1094 54.6875
L18.1094 46.1875
Q21.3438 51.125 25.7031 53.5625
Q30.0781 56 35.7969 56
Q45.2188 56 50.0469 50.1719
Q54.8906 44.3438 54.8906 33.0156" id="BitstreamVeraSans-Roman-6e"/>
     <path d="
M34.2812 27.4844
Q23.3906 27.4844 19.1875 25
Q14.9844 22.5156 14.9844 16.5
Q14.9844 11.7188 18.1406 8.90625
Q21.2969 6.10938 26.7031 6.10938
Q34.1875 6.10938 38.7031 11.4062
Q43.2188 16.7031 43.2188 25.4844
L43.2188 27.4844
z

M52.2031 31.2031
L52.2031 0
L43.2188 0
L43.2188 8.29688
Q40.1406 3.32812 35.5469 0.953125
Q30.9531 -1.42188 24.3125 -1.42188
Q15.9219 -1.42188 10.9531 3.29688
Q6 8.01562 6 15.9219
Q6 25.1406 12.1719 29.8281
Q18.3594 34.5156 30.6094 34.5156
L43.2188 34.5156
L43.2188 35.4062
Q43.2188 41.6094 39.1406 45
Q35.0625 48.3906 27.6875 48.3906
Q23 48.3906 18.5469 47.2656
Q14.1094 46.1406 10.0156 43.8906
L10.0156 52.2031
Q14.9375 54.1094 19.5781 55.0469
Q24.2188 56 28.6094 56
Q40.4844 56 46.3438 49.8438
Q52.2031 43.7031 52.2031 31.2031" id="BitstreamVeraSans-Roman-61"/>
     <path d="
M9.42188 75.9844
L18.4062 75.9844
L18.4062 0
L9.42188 0
z
" id="BitstreamVeraSans-Roman-6c"/>
     <path d="
M19.6719 64.7969
L19.6719 37.4062
L32.0781 37.4062
Q38.9688 37.4062 42.7188 40.9688
Q46.4844 44.5312 46.4844 51.125
Q46.4844 57.6719 42.7188 61.2344
Q38.9688 64.7969 32.0781 64.7969
z

M9.8125 72.9062
L32.0781 72.9062
Q44.3438 72.9062 50.6094 67.3594
Q56.8906 61.8125 56.8906 51.125
Q56.8906 40.3281 50.6094 34.8125
Q44.3438 29.2969 32.0781 29.2969
L19.6719 29.2969
L19.6719 0
L9.8125 0
z
" id="BitstreamVeraSans-Roman-50"/>
     <path d="
M53.5156 70.5156
L53.5156 60.8906
Q47.9062 63.5781 42.9219 64.8906
Q37.9375 66.2188 33.2969 66.2188
Q25.25 66.2188 20.875 63.0938
Q16.5 59.9688 16.5 54.2031
Q16.5 49.3594 19.4062 46.8906
Q22.3125 44.4375 30.4219 42.9219
L36.375 41.7031
Q47.4062 39.5938 52.6562 34.2969
Q57.9062 29 57.9062 20.125
Q57.9062 9.51562 50.7969 4.04688
Q43.7031 -1.42188 29.9844 -1.42188
Q24.8125 -1.42188 18.9688 -0.25
Q13.1406 0.921875 6.89062 3.21875
L6.89062 13.375
Q12.8906 10.0156 18.6562 8.29688
Q24.4219 6.59375 29.9844 6.59375
Q38.4219 6.59375 43.0156 9.90625
Q47.6094 13.2344 47.6094 19.3906
Q47.6094 24.75 44.3125 27.7812
Q41.0156 30.8125 33.5 32.3281
L27.4844 33.5
Q16.4531 35.6875 11.5156 40.375
Q6.59375 45.0625 6.59375 53.4219
Q6.59375 63.0938 13.4062 68.6562
Q20.2188 74.2188 32.1719 74.2188
Q37.3125 74.2188 42.625 73.2812
Q47.9531 72.3594 53.5156 70.5156" id="BitstreamVeraSans-Roman-53"/>
     <path d="
M9.42188 54.6875
L18.4062 54.6875
L18.4062 0
L9.42188 0
z

M9.42188 75.9844
L18.4062 75.9844
L18.4062 64.5938
L9.42188 64.5938
z
" id="BitstreamVeraSans-Roman-69"/>
     <path d="
M56.2031 29.5938
L56.2031 25.2031
L14.8906 25.2031
Q15.4844 15.9219 20.4844 11.0625
Q25.4844 6.20312 34.4219 6.20312
Q39.5938 6.20312 44.4531 7.46875
Q49.3125 8.73438 54.1094 11.2812
L54.1094 2.78125
Q49.2656 0.734375 44.1875 -0.34375
Q39.1094 -1.42188 33.8906 -1.42188
Q20.7969 -1.42188 13.1562 6.1875
Q5.51562 13.8125 5.51562 26.8125
Q5.51562 40.2344 12.7656 48.1094
Q20.0156 56 32.3281 56
Q43.3594 56 49.7812 48.8906
Q56.2031 41.7969 56.2031 29.5938
M47.2188 32.2344
Q47.125 39.5938 43.0938 43.9844
Q39.0625 48.3906 32.4219 48.3906
Q24.9062 48.3906 20.3906 44.1406
Q15.875 39.8906 15.1875 32.1719
z
" id="BitstreamVeraSans-Roman-65"/>
     <path d="
M-0.296875 72.9062
L61.375 72.9062
L61.375 64.5938
L35.5 64.5938
L35.5 0
L25.5938 0
L25.5938 64.5938
L-0.296875 64.5938
z
" id="BitstreamVeraSans-Roman-54"/>
     <path d="
M18.3125 70.2188
L18.3125 54.6875
L36.8125 54.6875
L36.8125 47.7031
L18.3125 47.7031
L18.3125 18.0156
Q18.3125 11.3281 20.1406 9.42188
Q21.9688 7.51562 27.5938 7.51562
L36.8125 7.51562
L36.8125 0
L27.5938 0
Q17.1875 0 13.2344 3.875
Q9.28125 7.76562 9.28125 18.0156
L9.28125 47.7031
L2.6875 47.7031
L2.6875 54.6875
L9.28125 54.6875
L9.28125 70.2188
z
" id="BitstreamVeraSans-Roman-74"/>
     <path d="
M8.5 21.5781
L8.5 54.6875
L17.4844 54.6875
L17.4844 21.9219
Q17.4844 14.1562 20.5 10.2656
Q23.5312 6.39062 29.5938 6.39062
Q36.8594 6.39062 41.0781 11.0312
Q45.3125 15.6719 45.3125 23.6875
L45.3125 54.6875
L54.2969 54.6875
L54.2969 0
L45.3125 0
L45.3125 8.40625
Q42.0469 3.42188 37.7188 1
Q33.4062 -1.42188 27.6875 -1.42188
Q18.2656 -1.42188 13.375 4.4375
Q8.5 10.2969 8.5 21.5781" id="BitstreamVeraSans-Roman-75"/>
     <path d="
M41.1094 46.2969
Q39.5938 47.1719 37.8125 47.5781
Q36.0312 48 33.8906 48
Q26.2656 48 22.1875 43.0469
Q18.1094 38.0938 18.1094 28.8125
L18.1094 0
L9.07812 0
L9.07812 54.6875
L18.1094 54.6875
L18.1094 46.1875
Q20.9531 51.1719 25.4844 53.5781
Q30.0312 56 36.5312 56
Q37.4531 56 38.5781 55.875
Q39.7031 55.7656 41.0625 55.5156
z
" id="BitstreamVeraSans-Roman-72"/>
     <path d="
M44.2812 53.0781
L44.2812 44.5781
Q40.4844 46.5312 36.375 47.5
Q32.2812 48.4844 27.875 48.4844
Q21.1875 48.4844 17.8438 46.4375
Q14.5 44.3906 14.5 40.2812
Q14.5 37.1562 16.8906 35.375
Q19.2812 33.5938 26.5156 31.9844
L29.5938 31.2969
Q39.1562 29.25 43.1875 25.5156
Q47.2188 21.7812 47.2188 15.0938
Q47.2188 7.46875 41.1875 3.01562
Q35.1562 -1.42188 24.6094 -1.42188
Q20.2188 -1.42188 15.4531 -0.5625
Q10.6875 0.296875 5.42188 2
L5.42188 11.2812
Q10.4062 8.6875 15.2344 7.39062
Q20.0625 6.10938 24.8125 6.10938
Q31.1562 6.10938 34.5625 8.28125
Q37.9844 10.4531 37.9844 14.4062
Q37.9844 18.0625 35.5156 20.0156
Q33.0625 21.9688 24.7031 23.7812
L21.5781 24.5156
Q13.2344 26.2656 9.51562 29.9062
Q5.8125 33.5469 5.8125 39.8906
Q5.8125 47.6094 11.2812 51.7969
Q16.75 56 26.8125 56
Q31.7812 56 36.1719 55.2656
Q40.5781 54.5469 44.2812 53.0781" id="BitstreamVeraSans-Roman-73"/>
    </defs>
    <g transform="translate(75.7426633523 233.28)scale(0.144 -0.144)">
     <use xlink:href="#BitstreamVeraSans-Roman-50"/>
     <use x="58.552734375" xlink:href="#BitstreamVeraSans-Roman-75"/>
     <use x="121.931640625" xlink:href="#BitstreamVeraSans-Roman-6c"/>
     <use x="149.71484375" xlink:href="#BitstreamVeraSans-Roman-73"/>
     <use x="201.814453125" xlink:href="#BitstreamVeraSans-Roman-65"/>
     <use x="263.337890625" xlink:href="#BitstreamVeraSans-Roman-20"/>
     <use x="295.125" xlink:href="#BitstreamVeraSans-Roman-69"/>
     <use x="322.908203125" xlink:href="#BitstreamVeraSans-Roman-6e"/>
     <use x="386.287109375" xlink:href="#BitstreamVeraSans-Roman-20"/>
     <use x="418.07421875" xlink:href="#BitstreamVeraSans-Roman-53"/>
     <use x="481.55078125" xlink:href="#BitstreamVeraSans-Roman-74"/>
     <use x="520.759765625" xlink:href="#BitstreamVeraSans-Roman-72"/>
     <use x="559.623046875" xlink:href="#BitstreamVeraSans-Roman-65"/>
     <use x="621.146484375" xlink:href="#BitstreamVeraSans-Roman-73"/>
     <use x="673.24609375" xlink:href="#BitstreamVeraSans-Roman-73"/>
     <use x="725.345703125" xlink:href="#BitstreamVeraSans-Roman-20"/>
     <use x="757.1328125" xlink:href="#BitstreamVeraSans-Roman-54"/>
     <use x="803.466796875" xlink:href="#BitstreamVeraSans-Roman-72"/>
     <use x="844.580078125" xlink:href="#BitstreamVeraSans-Roman-69"/>
     <use x="872.36328125" xlink:href="#BitstreamVeraSans-Roman-61"/>
     <use x="933.642578125" xlink:href="#BitstreamVeraSans-Roman-6c"/>
     <use x="961.42578125" xlink:href="#BitstreamVeraSans-Roman-73"/>
    </g>
   </g>
  </g>
  <g id="axes_2">
   <g id="patch_7">
    <path d="
M41.9491 192.92
L254.774 192.92
L254.774 28.76
L41.9491 28.76
z
" style="fill:#ffffff;"/>
   </g>
   <g id="line2d_27">
    <path clip-path="url(#p217c292275)" d="
M46.2056 89.9187
L50.4621 122.595
L54.7185 120.98
L58.975 124.456
L63.2315 122.524
L67.488 119.443
L71.7445 82.1381
L76.001 74.6166
L80.2575 117.278
L84.514 87.0458
L88.7705 84.2339
L93.027 78.708
L97.2835 116.656
L101.54 86.0677
L105.796 104.528
L110.053 104.877
L114.309 74.9426
L118.566 93.9095
L122.822 114.113
L127.079 104.936
L131.335 78.4635
L135.592 70.8837
L139.848 70.0524
L144.105 82.4306
L148.361 78.5694
L152.618 115.327
L156.874 83.5004
L161.131 92.0931
L165.387 111.933
L169.644 106.393
L173.9 105.716
L178.157 79.9794
L182.413 99.6787
L186.67 79.5067
L190.926 88.684
L195.183 99.3935
L199.439 99.4982
L203.696 67.0135
L207.952 65.9446
L212.209 98.7647
L216.465 64.7343
L220.722 72.253
L224.978 101.839
L229.235 100.93
L233.491 100.249
L237.748 102.865
L242.004 90.9986
L246.261 83.5004
L250.517 86.7605
L254.774 98.7822" style="fill:none;stroke:#0000ff;stroke-linecap:square;"/>
   </g>
   <g id="line2d_28">
    <path clip-path="url(#p217c292275)" d="
M46.2056 102.617
L50.4621 102.265
L54.7185 101.914
L58.975 101.563
L63.2315 101.212
L67.488 100.861
L71.7445 100.51
L76.001 100.159
L80.2575 99.8076
L84.514 99.4565
L88.7705 99.1053
L93.027 98.7542
L97.2835 98.4031
L101.54 98.052
L105.796 97.7008
L110.053 97.3497
L114.309 96.9986
L118.566 96.6475
L122.822 96.2964
L127.079 95.9452
L131.335 95.5941
L135.592 95.243
L139.848 94.8919
L144.105 94.5408
L148.361 94.1896
L152.618 93.8385
L156.874 93.4874
L161.131 93.1363
L165.387 92.7852
L169.644 92.434
L173.9 92.0829
L178.157 91.7318
L182.413 91.3807
L186.67 91.0295
L190.926 90.6784
L195.183 90.3273
L199.439 89.9762
L203.696 89.6251
L207.952 89.2739
L212.209 88.9228
L216.465 88.5717
L220.722 88.2206
L224.978 87.8695
L229.235 87.5183
L233.491 87.1672
L237.748 86.8161
L242.004 86.465
L246.261 86.1138
L250.517 85.7627
L254.774 85.4116" style="fill:none;stroke:#0000ff;stroke-dasharray:6.000000,6.000000;stroke-dashoffset:0.0;"/>
   </g>
   <g id="patch_8">
    <path d="
M41.9491 28.76
L254.774 28.76" style="fill:none;stroke:#000000;stroke-linecap:square;stroke-linejoin:miter;"/>
   </g>
   <g id="patch_9">
    <path d="
M254.774 192.92
L254.774 28.76" style="fill:none;stroke:#000000;stroke-linecap:square;stroke-linejoin:miter;"/>
   </g>
   <g id="patch_10">
    <path d="
M41.9491 192.92
L254.774 192.92" style="fill:none;stroke:#000000;stroke-linecap:square;stroke-linejoin:miter;"/>
   </g>
   <g id="patch_11">
    <path d="
M41.9491 192.92
L41.9491 28.76" style="fill:none;stroke:#000000;stroke-linecap:square;stroke-linejoin:miter;"/>
   </g>
   <g id="matplotlib.axis_3">
    <g id="xtick_8">
     <g id="line2d_29">
      <g>
       <use style="stroke:#000000;stroke-width:0.5;" x="41.9490625" xlink:href="#m93b0483c22" y="192.92"/>
      </g>
     </g>
     <g id="line2d_30">
      <g>
       <use style="stroke:#000000;stroke-width:0.5;" x="41.9490625" xlink:href="#m741efc42ff" y="28.76"/>
      </g>
     </g>
     <g id="text_14">
      <!-- 0 -->
      <g transform="translate(38.925625 206.038125)scale(0.12 -0.12)">
       <use xlink:href="#BitstreamVeraSans-Roman-30"/>
      </g>
     </g>
    </g>
    <g id="xtick_9">
     <g id="line2d_31">
      <g>
       <use style="stroke:#000000;stroke-width:0.5;" x="84.5140028409" xlink:href="#m93b0483c22" y="192.92"/>
      </g>
     </g>
     <g id="line2d_32">
      <g>
       <use style="stroke:#000000;stroke-width:0.5;" x="84.5140028409" xlink:href="#m741efc42ff" y="28.76"/>
      </g>
     </g>
     <g id="text_15">
      <!-- 10 -->
      <g transform="translate(77.9365028409 206.038125)scale(0.12 -0.12)">
       <use xlink:href="#BitstreamVeraSans-Roman-31"/>
       <use x="63.623046875" xlink:href="#BitstreamVeraSans-Roman-30"/>
      </g>
     </g>
    </g>
    <g id="xtick_10">
     <g id="line2d_33">
      <g>
       <use style="stroke:#000000;stroke-width:0.5;" x="127.078943182" xlink:href="#m93b0483c22" y="192.92"/>
      </g>
     </g>
     <g id="line2d_34">
      <g>
       <use style="stroke:#000000;stroke-width:0.5;" x="127.078943182" xlink:href="#m741efc42ff" y="28.76"/>
      </g>
     </g>
     <g id="text_16">
      <!-- 20 -->
      <g transform="translate(120.282068182 206.038125)scale(0.12 -0.12)">
       <use xlink:href="#BitstreamVeraSans-Roman-32"/>
       <use x="63.623046875" xlink:href="#BitstreamVeraSans-Roman-30"/>
      </g>
     </g>
    </g>
    <g id="xtick_11">
     <g id="line2d_35">
      <g>
       <use style="stroke:#000000;stroke-width:0.5;" x="169.643883523" xlink:href="#m93b0483c22" y="192.92"/>
      </g>
     </g>
     <g id="line2d_36">
      <g>
       <use style="stroke:#000000;stroke-width:0.5;" x="169.643883523" xlink:href="#m741efc42ff" y="28.76"/>
      </g>
     </g>
     <g id="text_17">
      <!-- 30 -->
      <g transform="translate(162.864821023 206.038125)scale(0.12 -0.12)">
       <use xlink:href="#BitstreamVeraSans-Roman-33"/>
       <use x="63.623046875" xlink:href="#BitstreamVeraSans-Roman-30"/>
      </g>
     </g>
    </g>
    <g id="xtick_12">
     <g id="line2d_37">
      <g>
       <use style="stroke:#000000;stroke-width:0.5;" x="212.208823864" xlink:href="#m93b0483c22" y="192.92"/>
      </g>
     </g>
     <g id="line2d_38">
      <g>
       <use style="stroke:#000000;stroke-width:0.5;" x="212.208823864" xlink:href="#m741efc42ff" y="28.76"/>
      </g>
     </g>
     <g id="text_18">
      <!-- 40 -->
      <g transform="translate(205.265698864 206.038125)scale(0.12 -0.12)">
       <use xlink:href="#BitstreamVeraSans-Roman-34"/>
       <use x="63.623046875" xlink:href="#BitstreamVeraSans-Roman-30"/>
      </g>
     </g>
    </g>
    <g id="xtick_13">
     <g id="line2d_39">
      <g>
       <use style="stroke:#000000;stroke-width:0.5;" x="254.773764205" xlink:href="#m93b0483c22" y="192.92"/>
      </g>
     </g>
     <g id="line2d_40">
      <g>
       <use style="stroke:#000000;stroke-width:0.5;" x="254.773764205" xlink:href="#m741efc42ff" y="28.76"/>
      </g>
     </g>
     <g id="text_19">
      <!-- 50 -->
      <g transform="translate(248.000326705 206.038125)scale(0.12 -0.12)">
       <use xlink:href="#BitstreamVeraSans-Roman-35"/>
       <use x="63.623046875" xlink:href="#BitstreamVeraSans-Roman-30"/>
      </g>
     </g>
    </g>
   </g>
   <g id="matplotlib.axis_4">
    <g id="ytick_6">
     <g id="line2d_41">
      <g>
       <use style="stroke:#000000;stroke-width:0.5;" x="41.9490625" xlink:href="#m728421d6d4" y="177.996363636"/>
      </g>
     </g>
     <g id="line2d_42">
      <g>
       <use style="stroke:#000000;stroke-width:0.5;" x="254.773764205" xlink:href="#mcb0005524f" y="177.996363636"/>
      </g>
     </g>
     <g id="text_20">
      <!-- 0.30 -->
      <g transform="translate(12.8184375 181.307613636)scale(0.12 -0.12)">
       <use xlink:href="#BitstreamVeraSans-Roman-30"/>
       <use x="63.623046875" xlink:href="#BitstreamVeraSans-Roman-2e"/>
       <use x="95.41015625" xlink:href="#BitstreamVeraSans-Roman-33"/>
       <use x="159.033203125" xlink:href="#BitstreamVeraSans-Roman-30"/>
      </g>
     </g>
    </g>
    <g id="ytick_7">
     <g id="line2d_43">
      <g>
       <use style="stroke:#000000;stroke-width:0.5;" x="41.9490625" xlink:href="#m728421d6d4" y="140.687272727"/>
      </g>
     </g>
     <g id="line2d_44">
      <g>
       <use style="stroke:#000000;stroke-width:0.5;" x="254.773764205" xlink:href="#mcb0005524f" y="140.687272727"/>
      </g>
     </g>
     <g id="text_21">
      <!-- 0.35 -->
      <g transform="translate(13.0696875 143.998522727)scale(0.12 -0.12)">
       <use xlink:href="#BitstreamVeraSans-Roman-30"/>
       <use x="63.623046875" xlink:href="#BitstreamVeraSans-Roman-2e"/>
       <use x="95.41015625" xlink:href="#BitstreamVeraSans-Roman-33"/>
       <use x="159.033203125" xlink:href="#BitstreamVeraSans-Roman-35"/>
      </g>
     </g>
    </g>
    <g id="ytick_8">
     <g id="line2d_45">
      <g>
       <use style="stroke:#000000;stroke-width:0.5;" x="41.9490625" xlink:href="#m728421d6d4" y="103.378181818"/>
      </g>
     </g>
     <g id="line2d_46">
      <g>
       <use style="stroke:#000000;stroke-width:0.5;" x="254.773764205" xlink:href="#mcb0005524f" y="103.378181818"/>
      </g>
     </g>
     <g id="text_22">
      <!-- 0.40 -->
      <g transform="translate(12.8184375 106.689431818)scale(0.12 -0.12)">
       <use xlink:href="#BitstreamVeraSans-Roman-30"/>
       <use x="63.623046875" xlink:href="#BitstreamVeraSans-Roman-2e"/>
       <use x="95.41015625" xlink:href="#BitstreamVeraSans-Roman-34"/>
       <use x="159.033203125" xlink:href="#BitstreamVeraSans-Roman-30"/>
      </g>
     </g>
    </g>
    <g id="ytick_9">
     <g id="line2d_47">
      <g>
       <use style="stroke:#000000;stroke-width:0.5;" x="41.9490625" xlink:href="#m728421d6d4" y="66.0690909091"/>
      </g>
     </g>
     <g id="line2d_48">
      <g>
       <use style="stroke:#000000;stroke-width:0.5;" x="254.773764205" xlink:href="#mcb0005524f" y="66.0690909091"/>
      </g>
     </g>
     <g id="text_23">
      <!-- 0.45 -->
      <g transform="translate(13.0696875 69.3803409091)scale(0.12 -0.12)">
       <use xlink:href="#BitstreamVeraSans-Roman-30"/>
       <use x="63.623046875" xlink:href="#BitstreamVeraSans-Roman-2e"/>
       <use x="95.41015625" xlink:href="#BitstreamVeraSans-Roman-34"/>
       <use x="159.033203125" xlink:href="#BitstreamVeraSans-Roman-35"/>
      </g>
     </g>
    </g>
    <g id="ytick_10">
     <g id="line2d_49">
      <g>
       <use style="stroke:#000000;stroke-width:0.5;" x="41.9490625" xlink:href="#m728421d6d4" y="28.76"/>
      </g>
     </g>
     <g id="line2d_50">
      <g>
       <use style="stroke:#000000;stroke-width:0.5;" x="254.773764205" xlink:href="#mcb0005524f" y="28.76"/>
      </g>
     </g>
     <g id="text_24">
      <!-- 0.50 -->
      <g transform="translate(12.8184375 32.07125)scale(0.12 -0.12)">
       <use xlink:href="#BitstreamVeraSans-Roman-30"/>
       <use x="63.623046875" xlink:href="#BitstreamVeraSans-Roman-2e"/>
       <use x="95.41015625" xlink:href="#BitstreamVeraSans-Roman-35"/>
       <use x="159.033203125" xlink:href="#BitstreamVeraSans-Roman-30"/>
      </g>
     </g>
    </g>
   </g>
   <g id="text_25">
    <!-- Pulse in Regular Trials before Stress -->
    <defs>
     <path d="
M44.3906 34.1875
Q47.5625 33.1094 50.5625 29.5938
Q53.5625 26.0781 56.5938 19.9219
L66.6094 0
L56 0
L46.6875 18.7031
Q43.0625 26.0312 39.6719 28.4219
Q36.2812 30.8125 30.4219 30.8125
L19.6719 30.8125
L19.6719 0
L9.8125 0
L9.8125 72.9062
L32.0781 72.9062
Q44.5781 72.9062 50.7344 67.6719
Q56.8906 62.4531 56.8906 51.9062
Q56.8906 45.0156 53.6875 40.4688
Q50.4844 35.9375 44.3906 34.1875
M19.6719 64.7969
L19.6719 38.9219
L32.0781 38.9219
Q39.2031 38.9219 42.8438 42.2188
Q46.4844 45.5156 46.4844 51.9062
Q46.4844 58.2969 42.8438 61.5469
Q39.2031 64.7969 32.0781 64.7969
z
" id="BitstreamVeraSans-Roman-52"/>
     <path d="
M37.1094 75.9844
L37.1094 68.5
L28.5156 68.5
Q23.6875 68.5 21.7969 66.5469
Q19.9219 64.5938 19.9219 59.5156
L19.9219 54.6875
L34.7188 54.6875
L34.7188 47.7031
L19.9219 47.7031
L19.9219 0
L10.8906 0
L10.8906 47.7031
L2.29688 47.7031
L2.29688 54.6875
L10.8906 54.6875
L10.8906 58.5
Q10.8906 67.625 15.1406 71.7969
Q19.3906 75.9844 28.6094 75.9844
z
" id="BitstreamVeraSans-Roman-66"/>
     <path d="
M45.4062 27.9844
Q45.4062 37.75 41.375 43.1094
Q37.3594 48.4844 30.0781 48.4844
Q22.8594 48.4844 18.8281 43.1094
Q14.7969 37.75 14.7969 27.9844
Q14.7969 18.2656 18.8281 12.8906
Q22.8594 7.51562 30.0781 7.51562
Q37.3594 7.51562 41.375 12.8906
Q45.4062 18.2656 45.4062 27.9844
M54.3906 6.78125
Q54.3906 -7.17188 48.1875 -13.9844
Q42 -20.7969 29.2031 -20.7969
Q24.4688 -20.7969 20.2656 -20.0938
Q16.0625 -19.3906 12.1094 -17.9219
L12.1094 -9.1875
Q16.0625 -11.3281 19.9219 -12.3438
Q23.7812 -13.375 27.7812 -13.375
Q36.625 -13.375 41.0156 -8.76562
Q45.4062 -4.15625 45.4062 5.17188
L45.4062 9.625
Q42.625 4.78125 38.2812 2.39062
Q33.9375 0 27.875 0
Q17.8281 0 11.6719 7.65625
Q5.51562 15.3281 5.51562 27.9844
Q5.51562 40.6719 11.6719 48.3281
Q17.8281 56 27.875 56
Q33.9375 56 38.2812 53.6094
Q42.625 51.2188 45.4062 46.3906
L45.4062 54.6875
L54.3906 54.6875
z
" id="BitstreamVeraSans-Roman-67"/>
     <path d="
M30.6094 48.3906
Q23.3906 48.3906 19.1875 42.75
Q14.9844 37.1094 14.9844 27.2969
Q14.9844 17.4844 19.1562 11.8438
Q23.3438 6.20312 30.6094 6.20312
Q37.7969 6.20312 41.9844 11.8594
Q46.1875 17.5312 46.1875 27.2969
Q46.1875 37.0156 41.9844 42.7031
Q37.7969 48.3906 30.6094 48.3906
M30.6094 56
Q42.3281 56 49.0156 48.375
Q55.7188 40.7656 55.7188 27.2969
Q55.7188 13.875 49.0156 6.21875
Q42.3281 -1.42188 30.6094 -1.42188
Q18.8438 -1.42188 12.1719 6.21875
Q5.51562 13.875 5.51562 27.2969
Q5.51562 40.7656 12.1719 48.375
Q18.8438 56 30.6094 56" id="BitstreamVeraSans-Roman-6f"/>
     <path d="
M48.6875 27.2969
Q48.6875 37.2031 44.6094 42.8438
Q40.5312 48.4844 33.4062 48.4844
Q26.2656 48.4844 22.1875 42.8438
Q18.1094 37.2031 18.1094 27.2969
Q18.1094 17.3906 22.1875 11.75
Q26.2656 6.10938 33.4062 6.10938
Q40.5312 6.10938 44.6094 11.75
Q48.6875 17.3906 48.6875 27.2969
M18.1094 46.3906
Q20.9531 51.2656 25.2656 53.625
Q29.5938 56 35.5938 56
Q45.5625 56 51.7812 48.0938
Q58.0156 40.1875 58.0156 27.2969
Q58.0156 14.4062 51.7812 6.48438
Q45.5625 -1.42188 35.5938 -1.42188
Q29.5938 -1.42188 25.2656 0.953125
Q20.9531 3.32812 18.1094 8.20312
L18.1094 0
L9.07812 0
L9.07812 75.9844
L18.1094 75.9844
z
" id="BitstreamVeraSans-Roman-62"/>
    </defs>
    <g transform="translate(20.3814133523 23.76)scale(0.144 -0.144)">
     <use xlink:href="#BitstreamVeraSans-Roman-50"/>
     <use x="58.552734375" xlink:href="#BitstreamVeraSans-Roman-75"/>
     <use x="121.931640625" xlink:href="#BitstreamVeraSans-Roman-6c"/>
     <use x="149.71484375" xlink:href="#BitstreamVeraSans-Roman-73"/>
     <use x="201.814453125" xlink:href="#BitstreamVeraSans-Roman-65"/>
     <use x="263.337890625" xlink:href="#BitstreamVeraSans-Roman-20"/>
     <use x="295.125" xlink:href="#BitstreamVeraSans-Roman-69"/>
     <use x="322.908203125" xlink:href="#BitstreamVeraSans-Roman-6e"/>
     <use x="386.287109375" xlink:href="#BitstreamVeraSans-Roman-20"/>
     <use x="418.07421875" xlink:href="#BitstreamVeraSans-Roman-52"/>
     <use x="483.056640625" xlink:href="#BitstreamVeraSans-Roman-65"/>
     <use x="544.580078125" xlink:href="#BitstreamVeraSans-Roman-67"/>
     <use x="608.056640625" xlink:href="#BitstreamVeraSans-Roman-75"/>
     <use x="671.435546875" xlink:href="#BitstreamVeraSans-Roman-6c"/>
     <use x="699.21875" xlink:href="#BitstreamVeraSans-Roman-61"/>
     <use x="760.498046875" xlink:href="#BitstreamVeraSans-Roman-72"/>
     <use x="801.611328125" xlink:href="#BitstreamVeraSans-Roman-20"/>
     <use x="833.3984375" xlink:href="#BitstreamVeraSans-Roman-54"/>
     <use x="879.732421875" xlink:href="#BitstreamVeraSans-Roman-72"/>
     <use x="920.845703125" xlink:href="#BitstreamVeraSans-Roman-69"/>
     <use x="948.62890625" xlink:href="#BitstreamVeraSans-Roman-61"/>
     <use x="1009.90820312" xlink:href="#BitstreamVeraSans-Roman-6c"/>
     <use x="1037.69140625" xlink:href="#BitstreamVeraSans-Roman-73"/>
     <use x="1089.79101562" xlink:href="#BitstreamVeraSans-Roman-20"/>
     <use x="1121.578125" xlink:href="#BitstreamVeraSans-Roman-62"/>
     <use x="1185.0546875" xlink:href="#BitstreamVeraSans-Roman-65"/>
     <use x="1246.578125" xlink:href="#BitstreamVeraSans-Roman-66"/>
     <use x="1281.78320312" xlink:href="#BitstreamVeraSans-Roman-6f"/>
     <use x="1342.96484375" xlink:href="#BitstreamVeraSans-Roman-72"/>
     <use x="1381.828125" xlink:href="#BitstreamVeraSans-Roman-65"/>
     <use x="1443.3515625" xlink:href="#BitstreamVeraSans-Roman-20"/>
     <use x="1475.13867188" xlink:href="#BitstreamVeraSans-Roman-53"/>
     <use x="1538.61523438" xlink:href="#BitstreamVeraSans-Roman-74"/>
     <use x="1577.82421875" xlink:href="#BitstreamVeraSans-Roman-72"/>
     <use x="1616.6875" xlink:href="#BitstreamVeraSans-Roman-65"/>
     <use x="1678.2109375" xlink:href="#BitstreamVeraSans-Roman-73"/>
     <use x="1730.31054688" xlink:href="#BitstreamVeraSans-Roman-73"/>
    </g>
   </g>
  </g>
  <g id="axes_3">
   <g id="patch_12">
    <path d="
M323.469 402.44
L536.294 402.44
L536.294 238.28
L323.469 238.28
z
" style="fill:#ffffff;"/>
   </g>
   <g id="line2d_51">
    <path clip-path="url(#p13eebda5b1)" d="
M326.129 317.325
M331.45 319.794
L334.11 291.7
L336.771 321.078
L339.431 298.155
L342.091 300.295
L344.752 309.451
L347.412 326.239
L350.072 308.844
L352.732 282.262
L355.393 306.273
L358.053 309.076
L360.713 315.148
M366.034 305.197
L368.694 301.369
L371.355 322.117
L374.015 297.116
L376.675 302.189
L379.336 299.378
L381.996 293.314
L384.656 321.726
L387.316 298.008
L389.977 297.813
L392.637 305.001
L395.297 282.506
L397.958 337.814
L400.618 311.75
L403.278 300.111
L405.939 308.547
L408.599 321.921
L411.259 305.246
L413.92 327.985
L416.58 294.365
L419.24 322.557
L421.9 287.152
M427.221 310.478
L429.881 315.271
L432.542 308.693
L435.202 297.727
L437.862 306.672
L440.523 333.65
L443.183 319.721
L445.843 304.268
L448.504 309.256
L451.164 376.887
M456.485 319.835
L459.145 286.663
L461.805 289.536
L464.465 292.605
L467.126 317.911
L469.786 309.193
L472.446 300.6
L475.107 312.337
L477.767 323.828
L480.427 293.216
L483.088 306.811
L485.748 308.278
L488.408 290.331
L491.069 308.486
L493.729 326.029
L496.389 320.21
L499.049 327.112
L501.71 289.597
M507.03 291.064
L509.691 305.7
L512.351 315.173
L515.011 319.916" style="fill:none;stroke:#ff0000;stroke-linecap:square;"/>
   </g>
   <g id="line2d_52">
    <path clip-path="url(#p13eebda5b1)" d="
M326.129 307.063
L328.79 307.11
L331.45 307.157
L334.11 307.204
L336.771 307.252
L339.431 307.299
L342.091 307.346
L344.752 307.393
L347.412 307.44
L350.072 307.487
L352.732 307.535
L355.393 307.582
L358.053 307.629
L360.713 307.676
L363.374 307.723
L366.034 307.77
L368.694 307.817
L371.355 307.865
L374.015 307.912
L376.675 307.959
L379.336 308.006
L381.996 308.053
L384.656 308.1
L387.316 308.148
L389.977 308.195
L392.637 308.242
L395.297 308.289
L397.958 308.336
L400.618 308.383
L403.278 308.431
L405.939 308.478
L408.599 308.525
L411.259 308.572
L413.92 308.619
L416.58 308.666
L419.24 308.713
L421.9 308.761
L424.561 308.808
L427.221 308.855
L429.881 308.902
L432.542 308.949
L435.202 308.996
L437.862 309.044
L440.523 309.091
L443.183 309.138
L445.843 309.185
L448.504 309.232
L451.164 309.279
L453.824 309.326
L456.485 309.374
L459.145 309.421
L461.805 309.468
L464.465 309.515
L467.126 309.562
L469.786 309.609
L472.446 309.657
L475.107 309.704
L477.767 309.751
L480.427 309.798
L483.088 309.845
L485.748 309.892
L488.408 309.939
L491.069 309.987
L493.729 310.034
L496.389 310.081
L499.049 310.128
L501.71 310.175" style="fill:none;stroke:#ff0000;stroke-dasharray:6.000000,6.000000;stroke-dashoffset:0.0;"/>
   </g>
   <g id="patch_13">
    <path d="
M323.469 238.28
L536.294 238.28" style="fill:none;stroke:#000000;stroke-linecap:square;stroke-linejoin:miter;"/>
   </g>
   <g id="patch_14">
    <path d="
M536.294 402.44
L536.294 238.28" style="fill:none;stroke:#000000;stroke-linecap:square;stroke-linejoin:miter;"/>
   </g>
   <g id="patch_15">
    <path d="
M323.469 402.44
L536.294 402.44" style="fill:none;stroke:#000000;stroke-linecap:square;stroke-linejoin:miter;"/>
   </g>
   <g id="patch_16">
    <path d="
M323.469 402.44
L323.469 238.28" style="fill:none;stroke:#000000;stroke-linecap:square;stroke-linejoin:miter;"/>
   </g>
   <g id="matplotlib.axis_5">
    <g id="xtick_14">
     <g id="line2d_53">
      <g>
       <use style="stroke:#000000;stroke-width:0.5;" x="323.4690625" xlink:href="#m93b0483c22" y="402.44"/>
      </g>
     </g>
     <g id="line2d_54">
      <g>
       <use style="stroke:#000000;stroke-width:0.5;" x="323.4690625" xlink:href="#m741efc42ff" y="238.28"/>
      </g>
     </g>
     <g id="text_26">
      <!-- 0 -->
      <g transform="translate(320.445625 415.558125)scale(0.12 -0.12)">
       <use xlink:href="#BitstreamVeraSans-Roman-30"/>
      </g>
     </g>
    </g>
    <g id="xtick_15">
     <g id="line2d_55">
      <g>
       <use style="stroke:#000000;stroke-width:0.5;" x="350.072150213" xlink:href="#m93b0483c22" y="402.44"/>
      </g>
     </g>
     <g id="line2d_56">
      <g>
       <use style="stroke:#000000;stroke-width:0.5;" x="350.072150213" xlink:href="#m741efc42ff" y="238.28"/>
      </g>
     </g>
     <g id="text_27">
      <!-- 10 -->
      <g transform="translate(343.494650213 415.558125)scale(0.12 -0.12)">
       <use xlink:href="#BitstreamVeraSans-Roman-31"/>
       <use x="63.623046875" xlink:href="#BitstreamVeraSans-Roman-30"/>
      </g>
     </g>
    </g>
    <g id="xtick_16">
     <g id="line2d_57">
      <g>
       <use style="stroke:#000000;stroke-width:0.5;" x="376.675237926" xlink:href="#m93b0483c22" y="402.44"/>
      </g>
     </g>
     <g id="line2d_58">
      <g>
       <use style="stroke:#000000;stroke-width:0.5;" x="376.675237926" xlink:href="#m741efc42ff" y="238.28"/>
      </g>
     </g>
     <g id="text_28">
      <!-- 20 -->
      <g transform="translate(369.878362926 415.558125)scale(0.12 -0.12)">
       <use xlink:href="#BitstreamVeraSans-Roman-32"/>
       <use x="63.623046875" xlink:href="#BitstreamVeraSans-Roman-30"/>
      </g>
     </g>
    </g>
    <g id="xtick_17">
     <g id="line2d_59">
      <g>
       <use style="stroke:#000000;stroke-width:0.5;" x="403.278325639" xlink:href="#m93b0483c22" y="402.44"/>
      </g>
     </g>
     <g id="line2d_60">
      <g>
       <use style="stroke:#000000;stroke-width:0.5;" x="403.278325639" xlink:href="#m741efc42ff" y="238.28"/>
      </g>
     </g>
     <g id="text_29">
      <!-- 30 -->
      <g transform="translate(396.499263139 415.558125)scale(0.12 -0.12)">
       <use xlink:href="#BitstreamVeraSans-Roman-33"/>
       <use x="63.623046875" xlink:href="#BitstreamVeraSans-Roman-30"/>
      </g>
     </g>
    </g>
    <g id="xtick_18">
     <g id="line2d_61">
      <g>
       <use style="stroke:#000000;stroke-width:0.5;" x="429.881413352" xlink:href="#m93b0483c22" y="402.44"/>
      </g>
     </g>
     <g id="line2d_62">
      <g>
       <use style="stroke:#000000;stroke-width:0.5;" x="429.881413352" xlink:href="#m741efc42ff" y="238.28"/>
      </g>
     </g>
     <g id="text_30">
      <!-- 40 -->
      <g transform="translate(422.938288352 415.558125)scale(0.12 -0.12)">
       <use xlink:href="#BitstreamVeraSans-Roman-34"/>
       <use x="63.623046875" xlink:href="#BitstreamVeraSans-Roman-30"/>
      </g>
     </g>
    </g>
    <g id="xtick_19">
     <g id="line2d_63">
      <g>
       <use style="stroke:#000000;stroke-width:0.5;" x="456.484501065" xlink:href="#m93b0483c22" y="402.44"/>
      </g>
     </g>
     <g id="line2d_64">
      <g>
       <use style="stroke:#000000;stroke-width:0.5;" x="456.484501065" xlink:href="#m741efc42ff" y="238.28"/>
      </g>
     </g>
     <g id="text_31">
      <!-- 50 -->
      <g transform="translate(449.711063565 415.558125)scale(0.12 -0.12)">
       <use xlink:href="#BitstreamVeraSans-Roman-35"/>
       <use x="63.623046875" xlink:href="#BitstreamVeraSans-Roman-30"/>
      </g>
     </g>
    </g>
    <g id="xtick_20">
     <g id="line2d_65">
      <g>
       <use style="stroke:#000000;stroke-width:0.5;" x="483.087588778" xlink:href="#m93b0483c22" y="402.44"/>
      </g>
     </g>
     <g id="line2d_66">
      <g>
       <use style="stroke:#000000;stroke-width:0.5;" x="483.087588778" xlink:href="#m741efc42ff" y="238.28"/>
      </g>
     </g>
     <g id="text_32">
      <!-- 60 -->
      <g transform="translate(476.270088778 415.558125)scale(0.12 -0.12)">
       <use xlink:href="#BitstreamVeraSans-Roman-36"/>
       <use x="63.623046875" xlink:href="#BitstreamVeraSans-Roman-30"/>
      </g>
     </g>
    </g>
    <g id="xtick_21">
     <g id="line2d_67">
      <g>
       <use style="stroke:#000000;stroke-width:0.5;" x="509.690676491" xlink:href="#m93b0483c22" y="402.44"/>
      </g>
     </g>
     <g id="line2d_68">
      <g>
       <use style="stroke:#000000;stroke-width:0.5;" x="509.690676491" xlink:href="#m741efc42ff" y="238.28"/>
      </g>
     </g>
     <g id="text_33">
      <!-- 70 -->
      <defs>
       <path d="
M8.20312 72.9062
L55.0781 72.9062
L55.0781 68.7031
L28.6094 0
L18.3125 0
L43.2188 64.5938
L8.20312 64.5938
z
" id="BitstreamVeraSans-Roman-37"/>
      </defs>
      <g transform="translate(502.946301491 415.558125)scale(0.12 -0.12)">
       <use xlink:href="#BitstreamVeraSans-Roman-37"/>
       <use x="63.623046875" xlink:href="#BitstreamVeraSans-Roman-30"/>
      </g>
     </g>
    </g>
    <g id="xtick_22">
     <g id="line2d_69">
      <g>
       <use style="stroke:#000000;stroke-width:0.5;" x="536.293764205" xlink:href="#m93b0483c22" y="402.44"/>
      </g>
     </g>
     <g id="line2d_70">
      <g>
       <use style="stroke:#000000;stroke-width:0.5;" x="536.293764205" xlink:href="#m741efc42ff" y="238.28"/>
      </g>
     </g>
     <g id="text_34">
      <!-- 80 -->
      <defs>
       <path d="
M31.7812 34.625
Q24.75 34.625 20.7188 30.8594
Q16.7031 27.0938 16.7031 20.5156
Q16.7031 13.9219 20.7188 10.1562
Q24.75 6.39062 31.7812 6.39062
Q38.8125 6.39062 42.8594 10.1719
Q46.9219 13.9688 46.9219 20.5156
Q46.9219 27.0938 42.8906 30.8594
Q38.875 34.625 31.7812 34.625
M21.9219 38.8125
Q15.5781 40.375 12.0312 44.7188
Q8.5 49.0781 8.5 55.3281
Q8.5 64.0625 14.7188 69.1406
Q20.9531 74.2188 31.7812 74.2188
Q42.6719 74.2188 48.875 69.1406
Q55.0781 64.0625 55.0781 55.3281
Q55.0781 49.0781 51.5312 44.7188
Q48 40.375 41.7031 38.8125
Q48.8281 37.1562 52.7969 32.3125
Q56.7812 27.4844 56.7812 20.5156
Q56.7812 9.90625 50.3125 4.23438
Q43.8438 -1.42188 31.7812 -1.42188
Q19.7344 -1.42188 13.25 4.23438
Q6.78125 9.90625 6.78125 20.5156
Q6.78125 27.4844 10.7812 32.3125
Q14.7969 37.1562 21.9219 38.8125
M18.3125 54.3906
Q18.3125 48.7344 21.8438 45.5625
Q25.3906 42.3906 31.7812 42.3906
Q38.1406 42.3906 41.7188 45.5625
Q45.3125 48.7344 45.3125 54.3906
Q45.3125 60.0625 41.7188 63.2344
Q38.1406 66.4062 31.7812 66.4062
Q25.3906 66.4062 21.8438 63.2344
Q18.3125 60.0625 18.3125 54.3906" id="BitstreamVeraSans-Roman-38"/>
      </defs>
      <g transform="translate(529.464076705 415.558125)scale(0.12 -0.12)">
       <use xlink:href="#BitstreamVeraSans-Roman-38"/>
       <use x="63.623046875" xlink:href="#BitstreamVeraSans-Roman-30"/>
      </g>
     </g>
    </g>
   </g>
   <g id="matplotlib.axis_6">
    <g id="ytick_11">
     <g id="line2d_71">
      <g>
       <use style="stroke:#000000;stroke-width:0.5;" x="323.4690625" xlink:href="#m728421d6d4" y="387.516363636"/>
      </g>
     </g>
     <g id="line2d_72">
      <g>
       <use style="stroke:#000000;stroke-width:0.5;" x="536.293764205" xlink:href="#mcb0005524f" y="387.516363636"/>
      </g>
     </g>
     <g id="text_35">
      <!-- 0.30 -->
      <g transform="translate(294.3384375 390.827613636)scale(0.12 -0.12)">
       <use xlink:href="#BitstreamVeraSans-Roman-30"/>
       <use x="63.623046875" xlink:href="#BitstreamVeraSans-Roman-2e"/>
       <use x="95.41015625" xlink:href="#BitstreamVeraSans-Roman-33"/>
       <use x="159.033203125" xlink:href="#BitstreamVeraSans-Roman-30"/>
      </g>
     </g>
    </g>
    <g id="ytick_12">
     <g id="line2d_73">
      <g>
       <use style="stroke:#000000;stroke-width:0.5;" x="323.4690625" xlink:href="#m728421d6d4" y="350.207272727"/>
      </g>
     </g>
     <g id="line2d_74">
      <g>
       <use style="stroke:#000000;stroke-width:0.5;" x="536.293764205" xlink:href="#mcb0005524f" y="350.207272727"/>
      </g>
     </g>
     <g id="text_36">
      <!-- 0.35 -->
      <g transform="translate(294.5896875 353.518522727)scale(0.12 -0.12)">
       <use xlink:href="#BitstreamVeraSans-Roman-30"/>
       <use x="63.623046875" xlink:href="#BitstreamVeraSans-Roman-2e"/>
       <use x="95.41015625" xlink:href="#BitstreamVeraSans-Roman-33"/>
       <use x="159.033203125" xlink:href="#BitstreamVeraSans-Roman-35"/>
      </g>
     </g>
    </g>
    <g id="ytick_13">
     <g id="line2d_75">
      <g>
       <use style="stroke:#000000;stroke-width:0.5;" x="323.4690625" xlink:href="#m728421d6d4" y="312.898181818"/>
      </g>
     </g>
     <g id="line2d_76">
      <g>
       <use style="stroke:#000000;stroke-width:0.5;" x="536.293764205" xlink:href="#mcb0005524f" y="312.898181818"/>
      </g>
     </g>
     <g id="text_37">
      <!-- 0.40 -->
      <g transform="translate(294.3384375 316.209431818)scale(0.12 -0.12)">
       <use xlink:href="#BitstreamVeraSans-Roman-30"/>
       <use x="63.623046875" xlink:href="#BitstreamVeraSans-Roman-2e"/>
       <use x="95.41015625" xlink:href="#BitstreamVeraSans-Roman-34"/>
       <use x="159.033203125" xlink:href="#BitstreamVeraSans-Roman-30"/>
      </g>
     </g>
    </g>
    <g id="ytick_14">
     <g id="line2d_77">
      <g>
       <use style="stroke:#000000;stroke-width:0.5;" x="323.4690625" xlink:href="#m728421d6d4" y="275.589090909"/>
      </g>
     </g>
     <g id="line2d_78">
      <g>
       <use style="stroke:#000000;stroke-width:0.5;" x="536.293764205" xlink:href="#mcb0005524f" y="275.589090909"/>
      </g>
     </g>
     <g id="text_38">
      <!-- 0.45 -->
      <g transform="translate(294.5896875 278.900340909)scale(0.12 -0.12)">
       <use xlink:href="#BitstreamVeraSans-Roman-30"/>
       <use x="63.623046875" xlink:href="#BitstreamVeraSans-Roman-2e"/>
       <use x="95.41015625" xlink:href="#BitstreamVeraSans-Roman-34"/>
       <use x="159.033203125" xlink:href="#BitstreamVeraSans-Roman-35"/>
      </g>
     </g>
    </g>
    <g id="ytick_15">
     <g id="line2d_79">
      <g>
       <use style="stroke:#000000;stroke-width:0.5;" x="323.4690625" xlink:href="#m728421d6d4" y="238.28"/>
      </g>
     </g>
     <g id="line2d_80">
      <g>
       <use style="stroke:#000000;stroke-width:0.5;" x="536.293764205" xlink:href="#mcb0005524f" y="238.28"/>
      </g>
     </g>
     <g id="text_39">
      <!-- 0.50 -->
      <g transform="translate(294.3384375 241.59125)scale(0.12 -0.12)">
       <use xlink:href="#BitstreamVeraSans-Roman-30"/>
       <use x="63.623046875" xlink:href="#BitstreamVeraSans-Roman-2e"/>
       <use x="95.41015625" xlink:href="#BitstreamVeraSans-Roman-35"/>
       <use x="159.033203125" xlink:href="#BitstreamVeraSans-Roman-30"/>
      </g>
     </g>
    </g>
   </g>
   <g id="text_40">
    <!-- Pulse in Stress Trials -->
    <g transform="translate(357.262663352 233.28)scale(0.144 -0.144)">
     <use xlink:href="#BitstreamVeraSans-Roman-50"/>
     <use x="58.552734375" xlink:href="#BitstreamVeraSans-Roman-75"/>
     <use x="121.931640625" xlink:href="#BitstreamVeraSans-Roman-6c"/>
     <use x="149.71484375" xlink:href="#BitstreamVeraSans-Roman-73"/>
     <use x="201.814453125" xlink:href="#BitstreamVeraSans-Roman-65"/>
     <use x="263.337890625" xlink:href="#BitstreamVeraSans-Roman-20"/>
     <use x="295.125" xlink:href="#BitstreamVeraSans-Roman-69"/>
     <use x="322.908203125" xlink:href="#BitstreamVeraSans-Roman-6e"/>
     <use x="386.287109375" xlink:href="#BitstreamVeraSans-Roman-20"/>
     <use x="418.07421875" xlink:href="#BitstreamVeraSans-Roman-53"/>
     <use x="481.55078125" xlink:href="#BitstreamVeraSans-Roman-74"/>
     <use x="520.759765625" xlink:href="#BitstreamVeraSans-Roman-72"/>
     <use x="559.623046875" xlink:href="#BitstreamVeraSans-Roman-65"/>
     <use x="621.146484375" xlink:href="#BitstreamVeraSans-Roman-73"/>
     <use x="673.24609375" xlink:href="#BitstreamVeraSans-Roman-73"/>
     <use x="725.345703125" xlink:href="#BitstreamVeraSans-Roman-20"/>
     <use x="757.1328125" xlink:href="#BitstreamVeraSans-Roman-54"/>
     <use x="803.466796875" xlink:href="#BitstreamVeraSans-Roman-72"/>
     <use x="844.580078125" xlink:href="#BitstreamVeraSans-Roman-69"/>
     <use x="872.36328125" xlink:href="#BitstreamVeraSans-Roman-61"/>
     <use x="933.642578125" xlink:href="#BitstreamVeraSans-Roman-6c"/>
     <use x="961.42578125" xlink:href="#BitstreamVeraSans-Roman-73"/>
    </g>
   </g>
  </g>
  <g id="axes_4">
   <g id="patch_17">
    <path d="
M323.469 192.92
L536.294 192.92
L536.294 28.76
L323.469 28.76
z
" style="fill:#ffffff;"/>
   </g>
   <g id="line2d_81">
    <path clip-path="url(#pe160646a53)" d="
M327.726 89.9187
L331.982 122.595
L336.239 120.98
L340.495 124.456
L344.752 122.524
L349.008 119.443
L353.265 82.1381
L357.521 74.6166
L361.778 117.278
L366.034 87.0458
L370.29 84.2339
L374.547 78.708
L378.803 116.656
L383.06 86.0677
L387.316 104.528
L391.573 104.877
L395.829 74.9426
L400.086 93.9095
L404.342 114.113
L408.599 104.936
L412.855 78.4635
L417.112 70.8837
L421.368 70.0524
L425.625 82.4306
L429.881 78.5694
L434.138 115.327
L438.394 83.5004
L442.651 92.0931
L446.907 111.933
L451.164 106.393
L455.42 105.716
L459.677 79.9794
L463.933 99.6787
L468.19 79.5067
L472.446 88.684
L476.703 99.3935
L480.959 99.4982
L485.216 67.0135
L489.472 65.9446
L493.729 98.7647
L497.985 64.7343
L502.242 72.253
L506.498 101.839
L510.755 100.93
L515.011 100.249
L519.268 102.865
L523.524 90.9986
L527.781 83.5004
L532.037 86.7605
L536.294 98.7822" style="fill:none;stroke:#0000ff;stroke-linecap:square;"/>
   </g>
   <g id="line2d_82">
    <path clip-path="url(#pe160646a53)" d="
M327.726 102.617
L331.982 102.265
L336.239 101.914
L340.495 101.563
L344.752 101.212
L349.008 100.861
L353.265 100.51
L357.521 100.159
L361.778 99.8076
L366.034 99.4565
L370.29 99.1053
L374.547 98.7542
L378.803 98.4031
L383.06 98.052
L387.316 97.7008
L391.573 97.3497
L395.829 96.9986
L400.086 96.6475
L404.342 96.2964
L408.599 95.9452
L412.855 95.5941
L417.112 95.243
L421.368 94.8919
L425.625 94.5408
L429.881 94.1896
L434.138 93.8385
L438.394 93.4874
L442.651 93.1363
L446.907 92.7852
L451.164 92.434
L455.42 92.0829
L459.677 91.7318
L463.933 91.3807
L468.19 91.0295
L472.446 90.6784
L476.703 90.3273
L480.959 89.9762
L485.216 89.6251
L489.472 89.2739
L493.729 88.9228
L497.985 88.5717
L502.242 88.2206
L506.498 87.8695
L510.755 87.5183
L515.011 87.1672
L519.268 86.8161
L523.524 86.465
L527.781 86.1138
L532.037 85.7627
L536.294 85.4116" style="fill:none;stroke:#0000ff;stroke-dasharray:6.000000,6.000000;stroke-dashoffset:0.0;"/>
   </g>
   <g id="patch_18">
    <path d="
M323.469 28.76
L536.294 28.76" style="fill:none;stroke:#000000;stroke-linecap:square;stroke-linejoin:miter;"/>
   </g>
   <g id="patch_19">
    <path d="
M536.294 192.92
L536.294 28.76" style="fill:none;stroke:#000000;stroke-linecap:square;stroke-linejoin:miter;"/>
   </g>
   <g id="patch_20">
    <path d="
M323.469 192.92
L536.294 192.92" style="fill:none;stroke:#000000;stroke-linecap:square;stroke-linejoin:miter;"/>
   </g>
   <g id="patch_21">
    <path d="
M323.469 192.92
L323.469 28.76" style="fill:none;stroke:#000000;stroke-linecap:square;stroke-linejoin:miter;"/>
   </g>
   <g id="matplotlib.axis_7">
    <g id="xtick_23">
     <g id="line2d_83">
      <g>
       <use style="stroke:#000000;stroke-width:0.5;" x="323.4690625" xlink:href="#m93b0483c22" y="192.92"/>
      </g>
     </g>
     <g id="line2d_84">
      <g>
       <use style="stroke:#000000;stroke-width:0.5;" x="323.4690625" xlink:href="#m741efc42ff" y="28.76"/>
      </g>
     </g>
     <g id="text_41">
      <!-- 0 -->
      <g transform="translate(320.445625 206.038125)scale(0.12 -0.12)">
       <use xlink:href="#BitstreamVeraSans-Roman-30"/>
      </g>
     </g>
    </g>
    <g id="xtick_24">
     <g id="line2d_85">
      <g>
       <use style="stroke:#000000;stroke-width:0.5;" x="366.034002841" xlink:href="#m93b0483c22" y="192.92"/>
      </g>
     </g>
     <g id="line2d_86">
      <g>
       <use style="stroke:#000000;stroke-width:0.5;" x="366.034002841" xlink:href="#m741efc42ff" y="28.76"/>
      </g>
     </g>
     <g id="text_42">
      <!-- 10 -->
      <g transform="translate(359.456502841 206.038125)scale(0.12 -0.12)">
       <use xlink:href="#BitstreamVeraSans-Roman-31"/>
       <use x="63.623046875" xlink:href="#BitstreamVeraSans-Roman-30"/>
      </g>
     </g>
    </g>
    <g id="xtick_25">
     <g id="line2d_87">
      <g>
       <use style="stroke:#000000;stroke-width:0.5;" x="408.598943182" xlink:href="#m93b0483c22" y="192.92"/>
      </g>
     </g>
     <g id="line2d_88">
      <g>
       <use style="stroke:#000000;stroke-width:0.5;" x="408.598943182" xlink:href="#m741efc42ff" y="28.76"/>
      </g>
     </g>
     <g id="text_43">
      <!-- 20 -->
      <g transform="translate(401.802068182 206.038125)scale(0.12 -0.12)">
       <use xlink:href="#BitstreamVeraSans-Roman-32"/>
       <use x="63.623046875" xlink:href="#BitstreamVeraSans-Roman-30"/>
      </g>
     </g>
    </g>
    <g id="xtick_26">
     <g id="line2d_89">
      <g>
       <use style="stroke:#000000;stroke-width:0.5;" x="451.163883523" xlink:href="#m93b0483c22" y="192.92"/>
      </g>
     </g>
     <g id="line2d_90">
      <g>
       <use style="stroke:#000000;stroke-width:0.5;" x="451.163883523" xlink:href="#m741efc42ff" y="28.76"/>
      </g>
     </g>
     <g id="text_44">
      <!-- 30 -->
      <g transform="translate(444.384821023 206.038125)scale(0.12 -0.12)">
       <use xlink:href="#BitstreamVeraSans-Roman-33"/>
       <use x="63.623046875" xlink:href="#BitstreamVeraSans-Roman-30"/>
      </g>
     </g>
    </g>
    <g id="xtick_27">
     <g id="line2d_91">
      <g>
       <use style="stroke:#000000;stroke-width:0.5;" x="493.728823864" xlink:href="#m93b0483c22" y="192.92"/>
      </g>
     </g>
     <g id="line2d_92">
      <g>
       <use style="stroke:#000000;stroke-width:0.5;" x="493.728823864" xlink:href="#m741efc42ff" y="28.76"/>
      </g>
     </g>
     <g id="text_45">
      <!-- 40 -->
      <g transform="translate(486.785698864 206.038125)scale(0.12 -0.12)">
       <use xlink:href="#BitstreamVeraSans-Roman-34"/>
       <use x="63.623046875" xlink:href="#BitstreamVeraSans-Roman-30"/>
      </g>
     </g>
    </g>
    <g id="xtick_28">
     <g id="line2d_93">
      <g>
       <use style="stroke:#000000;stroke-width:0.5;" x="536.293764205" xlink:href="#m93b0483c22" y="192.92"/>
      </g>
     </g>
     <g id="line2d_94">
      <g>
       <use style="stroke:#000000;stroke-width:0.5;" x="536.293764205" xlink:href="#m741efc42ff" y="28.76"/>
      </g>
     </g>
     <g id="text_46">
      <!-- 50 -->
      <g transform="translate(529.520326705 206.038125)scale(0.12 -0.12)">
       <use xlink:href="#BitstreamVeraSans-Roman-35"/>
       <use x="63.623046875" xlink:href="#BitstreamVeraSans-Roman-30"/>
      </g>
     </g>
    </g>
   </g>
   <g id="matplotlib.axis_8">
    <g id="ytick_16">
     <g id="line2d_95">
      <g>
       <use style="stroke:#000000;stroke-width:0.5;" x="323.4690625" xlink:href="#m728421d6d4" y="177.996363636"/>
      </g>
     </g>
     <g id="line2d_96">
      <g>
       <use style="stroke:#000000;stroke-width:0.5;" x="536.293764205" xlink:href="#mcb0005524f" y="177.996363636"/>
      </g>
     </g>
     <g id="text_47">
      <!-- 0.30 -->
      <g transform="translate(294.3384375 181.307613636)scale(0.12 -0.12)">
       <use xlink:href="#BitstreamVeraSans-Roman-30"/>
       <use x="63.623046875" xlink:href="#BitstreamVeraSans-Roman-2e"/>
       <use x="95.41015625" xlink:href="#BitstreamVeraSans-Roman-33"/>
       <use x="159.033203125" xlink:href="#BitstreamVeraSans-Roman-30"/>
      </g>
     </g>
    </g>
    <g id="ytick_17">
     <g id="line2d_97">
      <g>
       <use style="stroke:#000000;stroke-width:0.5;" x="323.4690625" xlink:href="#m728421d6d4" y="140.687272727"/>
      </g>
     </g>
     <g id="line2d_98">
      <g>
       <use style="stroke:#000000;stroke-width:0.5;" x="536.293764205" xlink:href="#mcb0005524f" y="140.687272727"/>
      </g>
     </g>
     <g id="text_48">
      <!-- 0.35 -->
      <g transform="translate(294.5896875 143.998522727)scale(0.12 -0.12)">
       <use xlink:href="#BitstreamVeraSans-Roman-30"/>
       <use x="63.623046875" xlink:href="#BitstreamVeraSans-Roman-2e"/>
       <use x="95.41015625" xlink:href="#BitstreamVeraSans-Roman-33"/>
       <use x="159.033203125" xlink:href="#BitstreamVeraSans-Roman-35"/>
      </g>
     </g>
    </g>
    <g id="ytick_18">
     <g id="line2d_99">
      <g>
       <use style="stroke:#000000;stroke-width:0.5;" x="323.4690625" xlink:href="#m728421d6d4" y="103.378181818"/>
      </g>
     </g>
     <g id="line2d_100">
      <g>
       <use style="stroke:#000000;stroke-width:0.5;" x="536.293764205" xlink:href="#mcb0005524f" y="103.378181818"/>
      </g>
     </g>
     <g id="text_49">
      <!-- 0.40 -->
      <g transform="translate(294.3384375 106.689431818)scale(0.12 -0.12)">
       <use xlink:href="#BitstreamVeraSans-Roman-30"/>
       <use x="63.623046875" xlink:href="#BitstreamVeraSans-Roman-2e"/>
       <use x="95.41015625" xlink:href="#BitstreamVeraSans-Roman-34"/>
       <use x="159.033203125" xlink:href="#BitstreamVeraSans-Roman-30"/>
      </g>
     </g>
    </g>
    <g id="ytick_19">
     <g id="line2d_101">
      <g>
       <use style="stroke:#000000;stroke-width:0.5;" x="323.4690625" xlink:href="#m728421d6d4" y="66.0690909091"/>
      </g>
     </g>
     <g id="line2d_102">
      <g>
       <use style="stroke:#000000;stroke-width:0.5;" x="536.293764205" xlink:href="#mcb0005524f" y="66.0690909091"/>
      </g>
     </g>
     <g id="text_50">
      <!-- 0.45 -->
      <g transform="translate(294.5896875 69.3803409091)scale(0.12 -0.12)">
       <use xlink:href="#BitstreamVeraSans-Roman-30"/>
       <use x="63.623046875" xlink:href="#BitstreamVeraSans-Roman-2e"/>
       <use x="95.41015625" xlink:href="#BitstreamVeraSans-Roman-34"/>
       <use x="159.033203125" xlink:href="#BitstreamVeraSans-Roman-35"/>
      </g>
     </g>
    </g>
    <g id="ytick_20">
     <g id="line2d_103">
      <g>
       <use style="stroke:#000000;stroke-width:0.5;" x="323.4690625" xlink:href="#m728421d6d4" y="28.76"/>
      </g>
     </g>
     <g id="line2d_104">
      <g>
       <use style="stroke:#000000;stroke-width:0.5;" x="536.293764205" xlink:href="#mcb0005524f" y="28.76"/>
      </g>
     </g>
     <g id="text_51">
      <!-- 0.50 -->
      <g transform="translate(294.3384375 32.07125)scale(0.12 -0.12)">
       <use xlink:href="#BitstreamVeraSans-Roman-30"/>
       <use x="63.623046875" xlink:href="#BitstreamVeraSans-Roman-2e"/>
       <use x="95.41015625" xlink:href="#BitstreamVeraSans-Roman-35"/>
       <use x="159.033203125" xlink:href="#BitstreamVeraSans-Roman-30"/>
      </g>
     </g>
    </g>
   </g>
   <g id="text_52">
    <!-- Pulse in Regular Trials before Stress -->
    <g transform="translate(301.901413352 23.76)scale(0.144 -0.144)">
     <use xlink:href="#BitstreamVeraSans-Roman-50"/>
     <use x="58.552734375" xlink:href="#BitstreamVeraSans-Roman-75"/>
     <use x="121.931640625" xlink:href="#BitstreamVeraSans-Roman-6c"/>
     <use x="149.71484375" xlink:href="#BitstreamVeraSans-Roman-73"/>
     <use x="201.814453125" xlink:href="#BitstreamVeraSans-Roman-65"/>
     <use x="263.337890625" xlink:href="#BitstreamVeraSans-Roman-20"/>
     <use x="295.125" xlink:href="#BitstreamVeraSans-Roman-69"/>
     <use x="322.908203125" xlink:href="#BitstreamVeraSans-Roman-6e"/>
     <use x="386.287109375" xlink:href="#BitstreamVeraSans-Roman-20"/>
     <use x="418.07421875" xlink:href="#BitstreamVeraSans-Roman-52"/>
     <use x="483.056640625" xlink:href="#BitstreamVeraSans-Roman-65"/>
     <use x="544.580078125" xlink:href="#BitstreamVeraSans-Roman-67"/>
     <use x="608.056640625" xlink:href="#BitstreamVeraSans-Roman-75"/>
     <use x="671.435546875" xlink:href="#BitstreamVeraSans-Roman-6c"/>
     <use x="699.21875" xlink:href="#BitstreamVeraSans-Roman-61"/>
     <use x="760.498046875" xlink:href="#BitstreamVeraSans-Roman-72"/>
     <use x="801.611328125" xlink:href="#BitstreamVeraSans-Roman-20"/>
     <use x="833.3984375" xlink:href="#BitstreamVeraSans-Roman-54"/>
     <use x="879.732421875" xlink:href="#BitstreamVeraSans-Roman-72"/>
     <use x="920.845703125" xlink:href="#BitstreamVeraSans-Roman-69"/>
     <use x="948.62890625" xlink:href="#BitstreamVeraSans-Roman-61"/>
     <use x="1009.90820312" xlink:href="#BitstreamVeraSans-Roman-6c"/>
     <use x="1037.69140625" xlink:href="#BitstreamVeraSans-Roman-73"/>
     <use x="1089.79101562" xlink:href="#BitstreamVeraSans-Roman-20"/>
     <use x="1121.578125" xlink:href="#BitstreamVeraSans-Roman-62"/>
     <use x="1185.0546875" xlink:href="#BitstreamVeraSans-Roman-65"/>
     <use x="1246.578125" xlink:href="#BitstreamVeraSans-Roman-66"/>
     <use x="1281.78320312" xlink:href="#BitstreamVeraSans-Roman-6f"/>
     <use x="1342.96484375" xlink:href="#BitstreamVeraSans-Roman-72"/>
     <use x="1381.828125" xlink:href="#BitstreamVeraSans-Roman-65"/>
     <use x="1443.3515625" xlink:href="#BitstreamVeraSans-Roman-20"/>
     <use x="1475.13867188" xlink:href="#BitstreamVeraSans-Roman-53"/>
     <use x="1538.61523438" xlink:href="#BitstreamVeraSans-Roman-74"/>
     <use x="1577.82421875" xlink:href="#BitstreamVeraSans-Roman-72"/>
     <use x="1616.6875" xlink:href="#BitstreamVeraSans-Roman-65"/>
     <use x="1678.2109375" xlink:href="#BitstreamVeraSans-Roman-73"/>
     <use x="1730.31054688" xlink:href="#BitstreamVeraSans-Roman-73"/>
    </g>
   </g>
  </g>
 </g>
 <defs>
  <clipPath id="p12b1442ff1">
   <rect height="164.16" width="212.824701705" x="41.9490625" y="238.28"/>
  </clipPath>
  <clipPath id="p13eebda5b1">
   <rect height="164.16" width="212.824701705" x="323.4690625" y="238.28"/>
  </clipPath>
  <clipPath id="p217c292275">
   <rect height="164.16" width="212.824701705" x="41.9490625" y="28.76"/>
  </clipPath>
  <clipPath id="pe160646a53">
   <rect height="164.16" width="212.824701705" x="323.4690625" y="28.76"/>
  </clipPath>
 </defs>
</svg>
