<?xml version="1.0" encoding="utf-8" standalone="no"?>
<!DOCTYPE svg PUBLIC "-//W3C//DTD SVG 1.1//EN"
  "http://www.w3.org/Graphics/SVG/1.1/DTD/svg11.dtd">
<!-- Created with matplotlib (http://matplotlib.org/) -->
<svg height="345pt" version="1.1" viewBox="0 0 460 345" width="460pt" xmlns="http://www.w3.org/2000/svg" xmlns:xlink="http://www.w3.org/1999/xlink">
 <defs>
  <style type="text/css">
*{stroke-linecap:butt;stroke-linejoin:round;}
  </style>
 </defs>
 <g id="figure_1">
  <g id="patch_1">
   <path d="M 0 345.6 
L 460.8 345.6 
L 460.8 0 
L 0 0 
z
" style="fill:#ffffff;"/>
  </g>
  <g id="axes_1">
   <g id="patch_2">
    <path d="M 57.6 307.584 
L 219.927273 307.584 
L 219.927273 41.472 
L 57.6 41.472 
z
" style="fill:#ffffff;"/>
   </g>
   <g id="matplotlib.axis_1">
    <g id="xtick_1">
     <g id="line2d_1">
      <defs>
       <path d="M 0 0 
L 0 3.5 
" id="m38adadf6e8" style="stroke:#000000;stroke-width:0.8;"/>
      </defs>
      <g>
       <use style="stroke:#000000;stroke-width:0.8;" x="64.978512" xlink:href="#m38adadf6e8" y="307.584"/>
      </g>
     </g>
     <g id="text_1">
      <!-- 0.0 -->
      <defs>
       <path d="M 31.78125 66.40625 
Q 24.171875 66.40625 20.328125 58.90625 
Q 16.5 51.421875 16.5 36.375 
Q 16.5 21.390625 20.328125 13.890625 
Q 24.171875 6.390625 31.78125 6.390625 
Q 39.453125 6.390625 43.28125 13.890625 
Q 47.125 21.390625 47.125 36.375 
Q 47.125 51.421875 43.28125 58.90625 
Q 39.453125 66.40625 31.78125 66.40625 
z
M 31.78125 74.21875 
Q 44.046875 74.21875 50.515625 64.515625 
Q 56.984375 54.828125 56.984375 36.375 
Q 56.984375 17.96875 50.515625 8.265625 
Q 44.046875 -1.421875 31.78125 -1.421875 
Q 19.53125 -1.421875 13.0625 8.265625 
Q 6.59375 17.96875 6.59375 36.375 
Q 6.59375 54.828125 13.0625 64.515625 
Q 19.53125 74.21875 31.78125 74.21875 
z
" id="DejaVuSans-30"/>
       <path d="M 10.6875 12.40625 
L 21 12.40625 
L 21 0 
L 10.6875 0 
z
" id="DejaVuSans-2e"/>
      </defs>
      <g transform="translate(57.02695 322.182437)scale(0.1 -0.1)">
       <use xlink:href="#DejaVuSans-30"/>
       <use x="63.623047" xlink:href="#DejaVuSans-2e"/>
       <use x="95.410156" xlink:href="#DejaVuSans-30"/>
      </g>
     </g>
    </g>
    <g id="xtick_2">
     <g id="line2d_2">
      <g>
       <use style="stroke:#000000;stroke-width:0.8;" x="80.297223" xlink:href="#m38adadf6e8" y="307.584"/>
      </g>
     </g>
     <g id="text_2">
      <!-- 5.0 -->
      <defs>
       <path d="M 10.796875 72.90625 
L 49.515625 72.90625 
L 49.515625 64.59375 
L 19.828125 64.59375 
L 19.828125 46.734375 
Q 21.96875 47.46875 24.109375 47.828125 
Q 26.265625 48.1875 28.421875 48.1875 
Q 40.625 48.1875 47.75 41.5 
Q 54.890625 34.8125 54.890625 23.390625 
Q 54.890625 11.625 47.5625 5.09375 
Q 40.234375 -1.421875 26.90625 -1.421875 
Q 22.3125 -1.421875 17.546875 -0.640625 
Q 12.796875 0.140625 7.71875 1.703125 
L 7.71875 11.625 
Q 12.109375 9.234375 16.796875 8.0625 
Q 21.484375 6.890625 26.703125 6.890625 
Q 35.15625 6.890625 40.078125 11.328125 
Q 45.015625 15.765625 45.015625 23.390625 
Q 45.015625 31 40.078125 35.4375 
Q 35.15625 39.890625 26.703125 39.890625 
Q 22.75 39.890625 18.8125 39.015625 
Q 14.890625 38.140625 10.796875 36.28125 
z
" id="DejaVuSans-35"/>
      </defs>
      <g transform="translate(72.345661 322.182437)scale(0.1 -0.1)">
       <use xlink:href="#DejaVuSans-35"/>
       <use x="63.623047" xlink:href="#DejaVuSans-2e"/>
       <use x="95.410156" xlink:href="#DejaVuSans-30"/>
      </g>
     </g>
    </g>
    <g id="xtick_3">
     <g id="line2d_3">
      <g>
       <use style="stroke:#000000;stroke-width:0.8;" x="95.615934" xlink:href="#m38adadf6e8" y="307.584"/>
      </g>
     </g>
     <g id="text_3">
      <!-- 10.0 -->
      <defs>
       <path d="M 12.40625 8.296875 
L 28.515625 8.296875 
L 28.515625 63.921875 
L 10.984375 60.40625 
L 10.984375 69.390625 
L 28.421875 72.90625 
L 38.28125 72.90625 
L 38.28125 8.296875 
L 54.390625 8.296875 
L 54.390625 0 
L 12.40625 0 
z
" id="DejaVuSans-31"/>
      </defs>
      <g transform="translate(84.483122 322.182437)scale(0.1 -0.1)">
       <use xlink:href="#DejaVuSans-31"/>
       <use x="63.623047" xlink:href="#DejaVuSans-30"/>
       <use x="127.246094" xlink:href="#DejaVuSans-2e"/>
       <use x="159.033203" xlink:href="#DejaVuSans-30"/>
      </g>
     </g>
    </g>
    <g id="xtick_4">
     <g id="line2d_4">
      <g>
       <use style="stroke:#000000;stroke-width:0.8;" x="110.934645" xlink:href="#m38adadf6e8" y="307.584"/>
      </g>
     </g>
     <g id="text_4">
      <!-- 15.0 -->
      <g transform="translate(99.801832 322.182437)scale(0.1 -0.1)">
       <use xlink:href="#DejaVuSans-31"/>
       <use x="63.623047" xlink:href="#DejaVuSans-35"/>
       <use x="127.246094" xlink:href="#DejaVuSans-2e"/>
       <use x="159.033203" xlink:href="#DejaVuSans-30"/>
      </g>
     </g>
    </g>
    <g id="xtick_5">
     <g id="line2d_5">
      <g>
       <use style="stroke:#000000;stroke-width:0.8;" x="126.253356" xlink:href="#m38adadf6e8" y="307.584"/>
      </g>
     </g>
     <g id="text_5">
      <!-- 20.0 -->
      <defs>
       <path d="M 19.1875 8.296875 
L 53.609375 8.296875 
L 53.609375 0 
L 7.328125 0 
L 7.328125 8.296875 
Q 12.9375 14.109375 22.625 23.890625 
Q 32.328125 33.6875 34.8125 36.53125 
Q 39.546875 41.84375 41.421875 45.53125 
Q 43.3125 49.21875 43.3125 52.78125 
Q 43.3125 58.59375 39.234375 62.25 
Q 35.15625 65.921875 28.609375 65.921875 
Q 23.96875 65.921875 18.8125 64.3125 
Q 13.671875 62.703125 7.8125 59.421875 
L 7.8125 69.390625 
Q 13.765625 71.78125 18.9375 73 
Q 24.125 74.21875 28.421875 74.21875 
Q 39.75 74.21875 46.484375 68.546875 
Q 53.21875 62.890625 53.21875 53.421875 
Q 53.21875 48.921875 51.53125 44.890625 
Q 49.859375 40.875 45.40625 35.40625 
Q 44.1875 33.984375 37.640625 27.21875 
Q 31.109375 20.453125 19.1875 8.296875 
z
" id="DejaVuSans-32"/>
      </defs>
      <g transform="translate(115.120543 322.182437)scale(0.1 -0.1)">
       <use xlink:href="#DejaVuSans-32"/>
       <use x="63.623047" xlink:href="#DejaVuSans-30"/>
       <use x="127.246094" xlink:href="#DejaVuSans-2e"/>
       <use x="159.033203" xlink:href="#DejaVuSans-30"/>
      </g>
     </g>
    </g>
    <g id="xtick_6">
     <g id="line2d_6">
      <g>
       <use style="stroke:#000000;stroke-width:0.8;" x="141.572067" xlink:href="#m38adadf6e8" y="307.584"/>
      </g>
     </g>
     <g id="text_6">
      <!-- 25.0 -->
      <g transform="translate(130.439254 322.182437)scale(0.1 -0.1)">
       <use xlink:href="#DejaVuSans-32"/>
       <use x="63.623047" xlink:href="#DejaVuSans-35"/>
       <use x="127.246094" xlink:href="#DejaVuSans-2e"/>
       <use x="159.033203" xlink:href="#DejaVuSans-30"/>
      </g>
     </g>
    </g>
    <g id="xtick_7">
     <g id="line2d_7">
      <g>
       <use style="stroke:#000000;stroke-width:0.8;" x="156.890778" xlink:href="#m38adadf6e8" y="307.584"/>
      </g>
     </g>
     <g id="text_7">
      <!-- 30.0 -->
      <defs>
       <path d="M 40.578125 39.3125 
Q 47.65625 37.796875 51.625 33 
Q 55.609375 28.21875 55.609375 21.1875 
Q 55.609375 10.40625 48.1875 4.484375 
Q 40.765625 -1.421875 27.09375 -1.421875 
Q 22.515625 -1.421875 17.65625 -0.515625 
Q 12.796875 0.390625 7.625 2.203125 
L 7.625 11.71875 
Q 11.71875 9.328125 16.59375 8.109375 
Q 21.484375 6.890625 26.8125 6.890625 
Q 36.078125 6.890625 40.9375 10.546875 
Q 45.796875 14.203125 45.796875 21.1875 
Q 45.796875 27.640625 41.28125 31.265625 
Q 36.765625 34.90625 28.71875 34.90625 
L 20.21875 34.90625 
L 20.21875 43.015625 
L 29.109375 43.015625 
Q 36.375 43.015625 40.234375 45.921875 
Q 44.09375 48.828125 44.09375 54.296875 
Q 44.09375 59.90625 40.109375 62.90625 
Q 36.140625 65.921875 28.71875 65.921875 
Q 24.65625 65.921875 20.015625 65.03125 
Q 15.375 64.15625 9.8125 62.3125 
L 9.8125 71.09375 
Q 15.4375 72.65625 20.34375 73.4375 
Q 25.25 74.21875 29.59375 74.21875 
Q 40.828125 74.21875 47.359375 69.109375 
Q 53.90625 64.015625 53.90625 55.328125 
Q 53.90625 49.265625 50.4375 45.09375 
Q 46.96875 40.921875 40.578125 39.3125 
z
" id="DejaVuSans-33"/>
      </defs>
      <g transform="translate(145.757965 322.182437)scale(0.1 -0.1)">
       <use xlink:href="#DejaVuSans-33"/>
       <use x="63.623047" xlink:href="#DejaVuSans-30"/>
       <use x="127.246094" xlink:href="#DejaVuSans-2e"/>
       <use x="159.033203" xlink:href="#DejaVuSans-30"/>
      </g>
     </g>
    </g>
    <g id="xtick_8">
     <g id="line2d_8">
      <g>
       <use style="stroke:#000000;stroke-width:0.8;" x="172.209488" xlink:href="#m38adadf6e8" y="307.584"/>
      </g>
     </g>
     <g id="text_8">
      <!-- 35.0 -->
      <g transform="translate(161.076676 322.182437)scale(0.1 -0.1)">
       <use xlink:href="#DejaVuSans-33"/>
       <use x="63.623047" xlink:href="#DejaVuSans-35"/>
       <use x="127.246094" xlink:href="#DejaVuSans-2e"/>
       <use x="159.033203" xlink:href="#DejaVuSans-30"/>
      </g>
     </g>
    </g>
    <g id="xtick_9">
     <g id="line2d_9">
      <g>
       <use style="stroke:#000000;stroke-width:0.8;" x="187.528199" xlink:href="#m38adadf6e8" y="307.584"/>
      </g>
     </g>
     <g id="text_9">
      <!-- 40.0 -->
      <defs>
       <path d="M 37.796875 64.3125 
L 12.890625 25.390625 
L 37.796875 25.390625 
z
M 35.203125 72.90625 
L 47.609375 72.90625 
L 47.609375 25.390625 
L 58.015625 25.390625 
L 58.015625 17.1875 
L 47.609375 17.1875 
L 47.609375 0 
L 37.796875 0 
L 37.796875 17.1875 
L 4.890625 17.1875 
L 4.890625 26.703125 
z
" id="DejaVuSans-34"/>
      </defs>
      <g transform="translate(176.395387 322.182437)scale(0.1 -0.1)">
       <use xlink:href="#DejaVuSans-34"/>
       <use x="63.623047" xlink:href="#DejaVuSans-30"/>
       <use x="127.246094" xlink:href="#DejaVuSans-2e"/>
       <use x="159.033203" xlink:href="#DejaVuSans-30"/>
      </g>
     </g>
    </g>
    <g id="xtick_10">
     <g id="line2d_10">
      <g>
       <use style="stroke:#000000;stroke-width:0.8;" x="202.84691" xlink:href="#m38adadf6e8" y="307.584"/>
      </g>
     </g>
     <g id="text_10">
      <!-- 45.0 -->
      <g transform="translate(191.714098 322.182437)scale(0.1 -0.1)">
       <use xlink:href="#DejaVuSans-34"/>
       <use x="63.623047" xlink:href="#DejaVuSans-35"/>
       <use x="127.246094" xlink:href="#DejaVuSans-2e"/>
       <use x="159.033203" xlink:href="#DejaVuSans-30"/>
      </g>
     </g>
    </g>
    <g id="text_11">
     <!-- Minutes -->
     <defs>
      <path d="M 9.8125 72.90625 
L 24.515625 72.90625 
L 43.109375 23.296875 
L 61.8125 72.90625 
L 76.515625 72.90625 
L 76.515625 0 
L 66.890625 0 
L 66.890625 64.015625 
L 48.09375 14.015625 
L 38.1875 14.015625 
L 19.390625 64.015625 
L 19.390625 0 
L 9.8125 0 
z
" id="DejaVuSans-4d"/>
      <path d="M 9.421875 54.6875 
L 18.40625 54.6875 
L 18.40625 0 
L 9.421875 0 
z
M 9.421875 75.984375 
L 18.40625 75.984375 
L 18.40625 64.59375 
L 9.421875 64.59375 
z
" id="DejaVuSans-69"/>
      <path d="M 54.890625 33.015625 
L 54.890625 0 
L 45.90625 0 
L 45.90625 32.71875 
Q 45.90625 40.484375 42.875 44.328125 
Q 39.84375 48.1875 33.796875 48.1875 
Q 26.515625 48.1875 22.3125 43.546875 
Q 18.109375 38.921875 18.109375 30.90625 
L 18.109375 0 
L 9.078125 0 
L 9.078125 54.6875 
L 18.109375 54.6875 
L 18.109375 46.1875 
Q 21.34375 51.125 25.703125 53.5625 
Q 30.078125 56 35.796875 56 
Q 45.21875 56 50.046875 50.171875 
Q 54.890625 44.34375 54.890625 33.015625 
z
" id="DejaVuSans-6e"/>
      <path d="M 8.5 21.578125 
L 8.5 54.6875 
L 17.484375 54.6875 
L 17.484375 21.921875 
Q 17.484375 14.15625 20.5 10.265625 
Q 23.53125 6.390625 29.59375 6.390625 
Q 36.859375 6.390625 41.078125 11.03125 
Q 45.3125 15.671875 45.3125 23.6875 
L 45.3125 54.6875 
L 54.296875 54.6875 
L 54.296875 0 
L 45.3125 0 
L 45.3125 8.40625 
Q 42.046875 3.421875 37.71875 1 
Q 33.40625 -1.421875 27.6875 -1.421875 
Q 18.265625 -1.421875 13.375 4.4375 
Q 8.5 10.296875 8.5 21.578125 
z
M 31.109375 56 
z
" id="DejaVuSans-75"/>
      <path d="M 18.3125 70.21875 
L 18.3125 54.6875 
L 36.8125 54.6875 
L 36.8125 47.703125 
L 18.3125 47.703125 
L 18.3125 18.015625 
Q 18.3125 11.328125 20.140625 9.421875 
Q 21.96875 7.515625 27.59375 7.515625 
L 36.8125 7.515625 
L 36.8125 0 
L 27.59375 0 
Q 17.1875 0 13.234375 3.875 
Q 9.28125 7.765625 9.28125 18.015625 
L 9.28125 47.703125 
L 2.6875 47.703125 
L 2.6875 54.6875 
L 9.28125 54.6875 
L 9.28125 70.21875 
z
" id="DejaVuSans-74"/>
      <path d="M 56.203125 29.59375 
L 56.203125 25.203125 
L 14.890625 25.203125 
Q 15.484375 15.921875 20.484375 11.0625 
Q 25.484375 6.203125 34.421875 6.203125 
Q 39.59375 6.203125 44.453125 7.46875 
Q 49.3125 8.734375 54.109375 11.28125 
L 54.109375 2.78125 
Q 49.265625 0.734375 44.1875 -0.34375 
Q 39.109375 -1.421875 33.890625 -1.421875 
Q 20.796875 -1.421875 13.15625 6.1875 
Q 5.515625 13.8125 5.515625 26.8125 
Q 5.515625 40.234375 12.765625 48.109375 
Q 20.015625 56 32.328125 56 
Q 43.359375 56 49.78125 48.890625 
Q 56.203125 41.796875 56.203125 29.59375 
z
M 47.21875 32.234375 
Q 47.125 39.59375 43.09375 43.984375 
Q 39.0625 48.390625 32.421875 48.390625 
Q 24.90625 48.390625 20.390625 44.140625 
Q 15.875 39.890625 15.1875 32.171875 
z
" id="DejaVuSans-65"/>
      <path d="M 44.28125 53.078125 
L 44.28125 44.578125 
Q 40.484375 46.53125 36.375 47.5 
Q 32.28125 48.484375 27.875 48.484375 
Q 21.1875 48.484375 17.84375 46.4375 
Q 14.5 44.390625 14.5 40.28125 
Q 14.5 37.15625 16.890625 35.375 
Q 19.28125 33.59375 26.515625 31.984375 
L 29.59375 31.296875 
Q 39.15625 29.25 43.1875 25.515625 
Q 47.21875 21.78125 47.21875 15.09375 
Q 47.21875 7.46875 41.1875 3.015625 
Q 35.15625 -1.421875 24.609375 -1.421875 
Q 20.21875 -1.421875 15.453125 -0.5625 
Q 10.6875 0.296875 5.421875 2 
L 5.421875 11.28125 
Q 10.40625 8.6875 15.234375 7.390625 
Q 20.0625 6.109375 24.8125 6.109375 
Q 31.15625 6.109375 34.5625 8.28125 
Q 37.984375 10.453125 37.984375 14.40625 
Q 37.984375 18.0625 35.515625 20.015625 
Q 33.0625 21.96875 24.703125 23.78125 
L 21.578125 24.515625 
Q 13.234375 26.265625 9.515625 29.90625 
Q 5.8125 33.546875 5.8125 39.890625 
Q 5.8125 47.609375 11.28125 51.796875 
Q 16.75 56 26.8125 56 
Q 31.78125 56 36.171875 55.265625 
Q 40.578125 54.546875 44.28125 53.078125 
z
" id="DejaVuSans-73"/>
     </defs>
     <g transform="translate(119.081605 335.860562)scale(0.1 -0.1)">
      <use xlink:href="#DejaVuSans-4d"/>
      <use x="86.279297" xlink:href="#DejaVuSans-69"/>
      <use x="114.0625" xlink:href="#DejaVuSans-6e"/>
      <use x="177.441406" xlink:href="#DejaVuSans-75"/>
      <use x="240.820312" xlink:href="#DejaVuSans-74"/>
      <use x="280.029297" xlink:href="#DejaVuSans-65"/>
      <use x="341.552734" xlink:href="#DejaVuSans-73"/>
     </g>
    </g>
   </g>
   <g id="matplotlib.axis_2">
    <g id="ytick_1">
     <g id="line2d_11">
      <defs>
       <path d="M 0 0 
L -3.5 0 
" id="m39505d18ad" style="stroke:#000000;stroke-width:0.8;"/>
      </defs>
      <g>
       <use style="stroke:#000000;stroke-width:0.8;" x="57.6" xlink:href="#m39505d18ad" y="266.289334"/>
      </g>
     </g>
     <g id="text_12">
      <!-- 0.36 -->
      <defs>
       <path d="M 33.015625 40.375 
Q 26.375 40.375 22.484375 35.828125 
Q 18.609375 31.296875 18.609375 23.390625 
Q 18.609375 15.53125 22.484375 10.953125 
Q 26.375 6.390625 33.015625 6.390625 
Q 39.65625 6.390625 43.53125 10.953125 
Q 47.40625 15.53125 47.40625 23.390625 
Q 47.40625 31.296875 43.53125 35.828125 
Q 39.65625 40.375 33.015625 40.375 
z
M 52.59375 71.296875 
L 52.59375 62.3125 
Q 48.875 64.0625 45.09375 64.984375 
Q 41.3125 65.921875 37.59375 65.921875 
Q 27.828125 65.921875 22.671875 59.328125 
Q 17.53125 52.734375 16.796875 39.40625 
Q 19.671875 43.65625 24.015625 45.921875 
Q 28.375 48.1875 33.59375 48.1875 
Q 44.578125 48.1875 50.953125 41.515625 
Q 57.328125 34.859375 57.328125 23.390625 
Q 57.328125 12.15625 50.6875 5.359375 
Q 44.046875 -1.421875 33.015625 -1.421875 
Q 20.359375 -1.421875 13.671875 8.265625 
Q 6.984375 17.96875 6.984375 36.375 
Q 6.984375 53.65625 15.1875 63.9375 
Q 23.390625 74.21875 37.203125 74.21875 
Q 40.921875 74.21875 44.703125 73.484375 
Q 48.484375 72.75 52.59375 71.296875 
z
" id="DejaVuSans-36"/>
      </defs>
      <g transform="translate(28.334375 270.088553)scale(0.1 -0.1)">
       <use xlink:href="#DejaVuSans-30"/>
       <use x="63.623047" xlink:href="#DejaVuSans-2e"/>
       <use x="95.410156" xlink:href="#DejaVuSans-33"/>
       <use x="159.033203" xlink:href="#DejaVuSans-36"/>
      </g>
     </g>
    </g>
    <g id="ytick_2">
     <g id="line2d_12">
      <g>
       <use style="stroke:#000000;stroke-width:0.8;" x="57.6" xlink:href="#m39505d18ad" y="223.335681"/>
      </g>
     </g>
     <g id="text_13">
      <!-- 0.38 -->
      <defs>
       <path d="M 31.78125 34.625 
Q 24.75 34.625 20.71875 30.859375 
Q 16.703125 27.09375 16.703125 20.515625 
Q 16.703125 13.921875 20.71875 10.15625 
Q 24.75 6.390625 31.78125 6.390625 
Q 38.8125 6.390625 42.859375 10.171875 
Q 46.921875 13.96875 46.921875 20.515625 
Q 46.921875 27.09375 42.890625 30.859375 
Q 38.875 34.625 31.78125 34.625 
z
M 21.921875 38.8125 
Q 15.578125 40.375 12.03125 44.71875 
Q 8.5 49.078125 8.5 55.328125 
Q 8.5 64.0625 14.71875 69.140625 
Q 20.953125 74.21875 31.78125 74.21875 
Q 42.671875 74.21875 48.875 69.140625 
Q 55.078125 64.0625 55.078125 55.328125 
Q 55.078125 49.078125 51.53125 44.71875 
Q 48 40.375 41.703125 38.8125 
Q 48.828125 37.15625 52.796875 32.3125 
Q 56.78125 27.484375 56.78125 20.515625 
Q 56.78125 9.90625 50.3125 4.234375 
Q 43.84375 -1.421875 31.78125 -1.421875 
Q 19.734375 -1.421875 13.25 4.234375 
Q 6.78125 9.90625 6.78125 20.515625 
Q 6.78125 27.484375 10.78125 32.3125 
Q 14.796875 37.15625 21.921875 38.8125 
z
M 18.3125 54.390625 
Q 18.3125 48.734375 21.84375 45.5625 
Q 25.390625 42.390625 31.78125 42.390625 
Q 38.140625 42.390625 41.71875 45.5625 
Q 45.3125 48.734375 45.3125 54.390625 
Q 45.3125 60.0625 41.71875 63.234375 
Q 38.140625 66.40625 31.78125 66.40625 
Q 25.390625 66.40625 21.84375 63.234375 
Q 18.3125 60.0625 18.3125 54.390625 
z
" id="DejaVuSans-38"/>
      </defs>
      <g transform="translate(28.334375 227.1349)scale(0.1 -0.1)">
       <use xlink:href="#DejaVuSans-30"/>
       <use x="63.623047" xlink:href="#DejaVuSans-2e"/>
       <use x="95.410156" xlink:href="#DejaVuSans-33"/>
       <use x="159.033203" xlink:href="#DejaVuSans-38"/>
      </g>
     </g>
    </g>
    <g id="ytick_3">
     <g id="line2d_13">
      <g>
       <use style="stroke:#000000;stroke-width:0.8;" x="57.6" xlink:href="#m39505d18ad" y="180.382028"/>
      </g>
     </g>
     <g id="text_14">
      <!-- 0.40 -->
      <g transform="translate(28.334375 184.181247)scale(0.1 -0.1)">
       <use xlink:href="#DejaVuSans-30"/>
       <use x="63.623047" xlink:href="#DejaVuSans-2e"/>
       <use x="95.410156" xlink:href="#DejaVuSans-34"/>
       <use x="159.033203" xlink:href="#DejaVuSans-30"/>
      </g>
     </g>
    </g>
    <g id="ytick_4">
     <g id="line2d_14">
      <g>
       <use style="stroke:#000000;stroke-width:0.8;" x="57.6" xlink:href="#m39505d18ad" y="137.428375"/>
      </g>
     </g>
     <g id="text_15">
      <!-- 0.42 -->
      <g transform="translate(28.334375 141.227594)scale(0.1 -0.1)">
       <use xlink:href="#DejaVuSans-30"/>
       <use x="63.623047" xlink:href="#DejaVuSans-2e"/>
       <use x="95.410156" xlink:href="#DejaVuSans-34"/>
       <use x="159.033203" xlink:href="#DejaVuSans-32"/>
      </g>
     </g>
    </g>
    <g id="ytick_5">
     <g id="line2d_15">
      <g>
       <use style="stroke:#000000;stroke-width:0.8;" x="57.6" xlink:href="#m39505d18ad" y="94.474722"/>
      </g>
     </g>
     <g id="text_16">
      <!-- 0.44 -->
      <g transform="translate(28.334375 98.273941)scale(0.1 -0.1)">
       <use xlink:href="#DejaVuSans-30"/>
       <use x="63.623047" xlink:href="#DejaVuSans-2e"/>
       <use x="95.410156" xlink:href="#DejaVuSans-34"/>
       <use x="159.033203" xlink:href="#DejaVuSans-34"/>
      </g>
     </g>
    </g>
    <g id="ytick_6">
     <g id="line2d_16">
      <g>
       <use style="stroke:#000000;stroke-width:0.8;" x="57.6" xlink:href="#m39505d18ad" y="51.521069"/>
      </g>
     </g>
     <g id="text_17">
      <!-- 0.46 -->
      <g transform="translate(28.334375 55.320288)scale(0.1 -0.1)">
       <use xlink:href="#DejaVuSans-30"/>
       <use x="63.623047" xlink:href="#DejaVuSans-2e"/>
       <use x="95.410156" xlink:href="#DejaVuSans-34"/>
       <use x="159.033203" xlink:href="#DejaVuSans-36"/>
      </g>
     </g>
    </g>
   </g>
   <g id="line2d_17">
    <path clip-path="url(#p1dff6af64f)" d="M 64.978512 167.622846 
L 65.233824 183.691865 
L 65.489136 216.005841 
L 65.744448 256.719736 
L 65.99976 241.237178 
L 66.255072 223.277951 
L 66.510383 201.285681 
L 66.765695 213.48406 
L 67.021007 220.111064 
L 67.276319 223.210283 
L 67.531631 212.487077 
L 67.786943 216.533655 
L 68.042255 205.684135 
L 68.297566 196.887227 
L 68.552878 204.393922 
L 68.80819 239.180055 
L 69.063502 234.199651 
L 69.318814 217.093048 
L 69.574126 205.097675 
L 69.829438 207.09164 
L 70.084749 229.435787 
L 70.340061 231.312461 
L 70.595373 228.894439 
L 70.850685 223.043367 
L 71.105997 211.783325 
L 71.361309 227.270394 
L 71.61662 228.20422 
L 71.871932 222.163676 
L 72.127244 224.568165 
L 72.382556 227.757608 
L 72.637868 215.771256 
L 72.89318 236.852257 
L 73.148492 266.951217 
L 73.403803 262.782836 
L 73.659115 247.354412 
L 73.914427 239.342459 
L 74.169739 233.225224 
L 74.425051 230.315478 
L 74.680363 222.993744 
L 74.935674 212.252493 
L 75.190986 201.168389 
L 75.446298 210.375819 
L 75.70161 216.533655 
L 75.956922 211.900617 
L 76.212234 215.478026 
L 76.467546 208.029977 
L 76.722857 207.384871 
L 76.978169 206.446534 
L 77.233481 215.302088 
L 77.488793 229.553079 
L 77.744105 219.172728 
L 77.999417 229.273383 
L 78.254728 234.63273 
L 78.51004 206.974348 
L 78.765352 222.163676 
L 79.020664 209.378837 
L 79.275976 222.632845 
L 79.531288 227.969636 
L 79.7866 213.132184 
L 80.041911 246.379985 
L 80.297223 222.560665 
L 80.552535 227.089945 
L 80.807847 226.210254 
L 81.063159 217.765222 
L 81.318471 216.240425 
L 81.573782 228.46136 
L 81.829094 207.971331 
L 82.084406 216.944178 
L 82.339718 216.592301 
L 82.59503 240.371021 
L 82.850342 223.571182 
L 83.105654 218.996789 
L 83.360965 203.572877 
L 83.616277 215.41938 
L 83.871589 188.676779 
L 84.126901 193.954924 
L 84.382213 192.312835 
L 84.637525 188.090319 
L 84.892837 206.622472 
L 85.148148 213.366768 
L 85.40346 199.233069 
L 85.658772 216.475009 
L 85.914084 229.787663 
L 86.169396 206.857056 
L 86.424708 203.807461 
L 86.680019 221.401278 
L 86.935331 205.097675 
L 87.190643 212.135201 
L 87.445955 203.279647 
L 87.701267 222.574199 
L 87.956579 217.765222 
L 88.211891 205.625489 
L 88.467202 190.494807 
L 88.722514 197.88421 
L 88.977826 194.834615 
L 89.233138 196.769935 
L 89.48845 214.656981 
L 89.743762 232.544028 
L 89.999073 244.376997 
L 90.254385 226.350102 
L 90.509697 218.996789 
L 90.765009 208.675084 
L 91.020321 195.772952 
L 91.275633 176.009232 
L 91.530945 179.879871 
L 91.786256 217.178762 
L 92.041568 214.246459 
L 92.29688 207.502163 
L 92.552192 186.800106 
L 92.807504 176.419754 
L 93.062816 155.029939 
L 93.318127 176.654338 
L 93.573439 185.040724 
L 93.828751 169.041014 
L 94.084063 206.094658 
L 94.339375 197.063165 
L 94.594687 197.59098 
L 94.849999 194.834615 
L 95.10531 195.36243 
L 95.360622 195.069199 
L 95.615934 191.292393 
" style="fill:none;stroke:#0000ff;stroke-linecap:square;stroke-width:1.5;"/>
   </g>
   <g id="line2d_18">
    <path clip-path="url(#p1dff6af64f)" d="M 95.871246 200.992451 
L 96.126558 250.981445 
L 96.38187 252.713759 
L 96.637182 247.787491 
L 96.892493 247.083738 
L 97.147805 234.037247 
L 97.403117 243.294301 
L 97.658429 238.638706 
L 97.913741 248.00403 
L 98.169053 241.507852 
L 98.424364 239.558998 
L 98.679676 232.016213 
L 98.934988 228.298956 
L 99.1903 234.831224 
L 99.445612 241.778526 
L 99.700924 229.083911 
L 99.956236 223.277951 
L 100.211547 204.86309 
L 100.466859 223.74712 
L 100.722171 224.568165 
L 100.977483 218.175745 
L 101.232795 217.765222 
L 101.488107 198.412024 
L 101.743418 212.663016 
L 101.99873 209.02696 
L 102.254042 196.124828 
L 102.509354 219.114082 
L 102.764666 202.63454 
L 103.019978 181.346023 
L 103.27529 203.221001 
L 103.530601 179.586641 
L 103.785913 216.181779 
L 104.041225 192.254189 
L 104.296537 200.757867 
L 104.551849 188.031673 
L 104.807161 168.443891 
L 105.062472 203.514231 
L 105.317784 201.285681 
L 105.573096 188.618133 
L 105.828408 201.168389 
L 106.08372 198.236086 
L 106.339032 173.311513 
L 106.594344 195.245138 
L 106.849655 198.998485 
L 107.104967 188.559487 
L 107.360279 208.968314 
L 107.615591 185.979061 
L 107.870903 187.797089 
L 108.126215 194.717323 
L 108.381526 179.645287 
L 108.636838 169.910042 
L 108.89215 204.921736 
L 109.147462 178.882888 
L 109.402774 221.694508 
L 109.658086 205.156321 
L 109.913398 207.150286 
L 110.168709 196.593997 
L 110.424021 200.288698 
L 110.679333 199.526299 
L 110.934645 209.378837 
L 111.189957 181.756545 
L 111.445269 190.142931 
L 111.700581 196.828581 
L 111.955892 181.756545 
L 112.211204 190.025639 
L 112.466516 189.615116 
L 112.721828 186.037707 
L 112.97714 197.180457 
L 113.232452 184.923432 
L 113.487763 191.726374 
L 113.743075 182.401652 
L 113.998387 196.652643 
L 114.253699 189.497824 
L 114.509011 213.073538 
L 114.764323 202.517248 
L 115.019635 191.374498 
L 115.274946 186.624168 
L 115.530258 203.103709 
L 115.78557 203.9834 
L 116.040882 219.407312 
L 116.296194 181.052792 
L 116.551506 196.359413 
L 116.806817 197.356395 
L 117.062129 183.633219 
L 117.317441 214.070521 
L 117.572753 201.75485 
L 117.828065 212.663016 
L 118.083377 155.659051 
" style="fill:none;stroke:#ff0000;stroke-linecap:square;stroke-width:1.5;"/>
   </g>
   <g id="line2d_19">
    <path clip-path="url(#p1dff6af64f)" d="M 118.338689 183.574573 
L 118.594 184.571556 
L 118.849312 164.754521 
L 119.104624 166.567217 
L 119.615248 215.184796 
L 119.87056 208.381854 
L 120.125871 153.366523 
L 120.381183 180.114456 
L 120.636495 172.367845 
L 120.891807 188.442195 
L 121.147119 156.117557 
L 121.402431 151.319243 
L 121.657743 177.534029 
L 121.913054 180.173102 
L 122.168366 184.864786 
L 122.67899 158.740635 
L 122.934302 182.167067 
L 123.189614 194.130862 
L 123.444926 157.359787 
L 124.210861 184.923432 
L 124.466173 171.98398 
L 124.721485 172.490469 
L 124.976797 183.16405 
L 125.232108 172.079946 
L 125.48742 167.446908 
L 125.742732 205.332259 
L 125.998044 178.317754 
L 126.253356 180.876854 
L 126.508668 194.424093 
L 126.76398 169.041014 
L 127.274603 191.374498 
L 127.529915 189.966993 
L 127.785227 183.750511 
L 128.040539 186.624168 
L 128.295851 180.583624 
L 129.061786 141.786593 
L 129.317098 185.744477 
L 129.57241 194.248155 
L 129.827722 192.254189 
L 130.083034 211.138218 
L 130.338345 187.386566 
L 130.593657 198.939839 
L 130.848969 203.103709 
L 131.104281 167.057711 
L 131.359593 190.318869 
L 131.614905 166.098049 
L 131.870216 174.425788 
L 132.125528 186.389583 
L 132.636152 182.167067 
L 133.402088 152.086973 
L 133.657399 151.063333 
L 133.912711 111.909095 
L 134.168023 138.52374 
L 134.423335 128.671203 
L 134.678647 131.166326 
L 134.933959 128.543248 
L 135.18927 148.05639 
L 135.444582 155.307175 
L 135.699894 168.385245 
L 135.955206 169.808744 
L 136.210518 150.32226 
L 136.46583 166.865779 
L 136.721142 128.991091 
L 136.976453 128.415293 
L 137.231765 128.543248 
L 137.487077 146.392974 
L 137.742389 118.754689 
L 137.997701 131.166326 
L 138.253013 118.690711 
L 138.508325 140.571021 
L 138.763636 110.821477 
L 139.018948 161.523656 
L 139.27426 160.787915 
L 139.529572 97.898019 
L 139.784884 133.725427 
L 140.040196 132.125989 
L 140.295507 108.262376 
L 140.550819 136.860325 
L 140.806131 126.43199 
L 141.061443 137.116235 
L 141.316755 180.700916 
L 141.572067 136.348505 
L 141.827379 151.729765 
L 142.08269 180.64227 
L 142.338002 162.515308 
L 142.593314 118.114913 
L 142.848626 119.650374 
L 143.103938 124.832552 
L 143.35925 100.71303 
L 143.614561 139.29147 
L 143.869873 116.835363 
L 144.125185 136.860325 
L 144.380497 90.92447 
L 144.635809 142.490346 
L 144.891121 115.747745 
L 145.146433 140.379088 
L 145.401744 105.575321 
L 145.657056 119.228122 
L 145.912368 111.52523 
L 146.422992 137.883965 
L 146.678304 109.286017 
L 146.933615 144.985469 
L 147.188927 121.441744 
L 147.444239 129.502911 
L 147.699551 126.240058 
L 147.954863 158.65 
L 148.210175 163.538948 
L 148.465487 107.366691 
L 148.97611 171.786716 
L 149.231422 149.016052 
L 149.486734 105.895208 
L 149.742046 155.029939 
L 149.997358 88.685257 
L 150.25267 121.249812 
L 150.507981 130.654506 
L 150.763293 106.490199 
L 151.018605 92.971751 
L 151.273917 145.049447 
L 151.529229 98.857682 
L 151.784541 133.725427 
L 152.039852 68.27643 
L 152.295164 82.415461 
L 152.550476 142.490346 
L 152.805788 98.025974 
L 153.0611 142.810234 
L 153.316412 110.565567 
L 153.571724 136.73237 
L 153.827035 96.810401 
L 154.082347 158.61268 
L 154.592971 134.237247 
L 154.848283 108.070444 
L 155.103595 128.223361 
L 155.358906 130.270641 
L 155.614218 110.373634 
L 155.86953 113.956375 
L 156.380154 124.64062 
L 156.635466 104.423726 
L 156.890778 98.473817 
L 157.146089 110.565567 
L 157.401401 74.117577 
L 157.912025 131.678146 
L 158.167337 81.718106 
L 158.422649 69.47281 
L 158.933272 140.826931 
L 159.188584 86.062179 
L 159.443896 123.10516 
L 159.699208 119.778329 
L 159.95452 124.89653 
L 160.209832 70.598814 
L 160.465143 114.404218 
L 160.720455 125.344372 
L 160.975767 74.891705 
L 161.486391 136.412482 
L 161.741703 61.379654 
L 161.997014 113.252622 
L 162.252326 129.694843 
L 162.507638 53.568 
L 162.76295 84.321991 
L 163.018262 95.530851 
L 163.273574 97.578132 
L 163.528886 113.508532 
L 163.784197 97.763666 
L 164.039509 94.827099 
L 164.294821 142.554324 
L 164.550133 68.839432 
L 164.805445 97.130289 
L 165.060757 140.315111 
L 165.57138 75.454707 
L 165.826692 86.292498 
L 166.082004 57.790516 
L 166.337316 68.980183 
L 166.592628 156.821309 
L 167.103251 253.688186 
L 167.358563 248.274704 
L 167.613875 230.080894 
L 167.869187 224.238844 
L 168.124499 234.186117 
L 168.635123 198.294732 
L 168.890434 202.751832 
L 169.145746 176.126524 
L 169.401058 194.541385 
L 169.65637 183.926449 
L 169.911682 185.509893 
L 170.166994 208.73373 
L 170.422305 175.481417 
L 170.677617 191.022622 
L 170.932929 176.126524 
L 171.188241 192.254189 
L 171.698865 171.786716 
L 171.954177 182.87082 
L 172.209488 188.852718 
L 172.4648 202.575894 
L 172.720112 203.690169 
L 172.975424 191.022622 
L 173.486048 204.335276 
L 173.741359 196.652643 
L 173.996671 173.95662 
L 174.251983 199.643592 
L 174.507295 196.124828 
L 174.762607 183.457281 
L 175.017919 184.395618 
L 175.273231 218.234391 
L 175.528542 207.150286 
L 175.783854 207.678101 
L 176.039166 221.401278 
L 176.294478 215.243442 
L 176.54979 219.055435 
L 176.805102 208.323208 
L 177.060414 211.724679 
L 177.315725 196.711289 
L 177.826349 235.1831 
L 178.081661 225.917024 
L 178.336973 221.802778 
L 178.592285 224.744103 
L 178.847596 186.096353 
L 179.102908 177.651321 
L 179.35822 180.524978 
L 179.613532 173.839328 
L 180.124156 237.989088 
L 180.379468 228.614742 
L 180.634779 227.617759 
L 181.145403 200.054114 
L 181.400715 217.3547 
L 181.656027 201.402973 
L 181.911339 241.995065 
L 182.16665 232.521472 
L 182.421962 254.608478 
L 182.677274 240.316886 
L 182.932586 272.689508 
L 183.187898 254.175399 
L 183.44321 254.012995 
L 183.698522 247.625086 
L 183.953833 251.03558 
L 184.209145 206.974348 
L 184.464457 142.938189 
L 184.719769 140.123178 
L 185.230393 150.039693 
L 185.485704 143.386031 
L 185.741016 128.095406 
L 185.996328 126.6879 
L 186.506952 154.48613 
L 186.762264 148.440255 
L 187.017576 166.567217 
L 187.272887 197.766918 
L 187.528199 244.593536 
L 187.783511 239.288324 
L 188.038823 213.894583 
L 188.294135 216.123133 
L 188.804759 262.566296 
L 189.06007 238.205628 
L 189.315382 230.784646 
L 189.570694 230.301944 
L 189.826006 224.022305 
L 190.081318 225.97567 
L 190.33663 232.846281 
L 190.591941 207.150286 
L 190.847253 199.643592 
L 191.102565 206.329242 
L 191.357877 192.723357 
L 191.613189 202.927771 
L 191.868501 233.333494 
L 192.123813 237.44774 
L 192.379124 231.898921 
L 192.634436 214.950212 
L 193.14506 261.59187 
L 193.400372 247.841626 
L 193.655684 213.19083 
L 193.910995 211.959263 
L 194.166307 184.278325 
L 194.421619 190.436161 
L 194.676931 213.718645 
L 194.932243 224.098996 
L 195.187555 250.764906 
L 195.442867 238.936448 
L 195.698178 209.965297 
L 195.95349 194.717323 
L 196.208802 203.338293 
L 196.974738 262.566296 
L 197.230049 239.829672 
L 197.485361 243.835649 
L 197.740673 239.504863 
L 197.995985 230.784646 
L 198.251297 260.563308 
L 198.506609 229.494433 
L 198.761921 234.903404 
L 199.017232 249.086726 
L 199.272544 211.900617 
L 199.527856 218.234391 
L 199.783168 237.068797 
L 200.03848 245.351424 
L 200.293792 240.641695 
L 200.549103 225.447855 
L 200.804415 226.151608 
L 201.059727 210.727696 
L 201.315039 211.138218 
L 201.825663 233.716949 
L 202.080975 221.640373 
L 202.336286 240.402599 
L 202.84691 210.610404 
L 203.102222 225.447855 
L 203.357534 222.046384 
L 203.612846 210.844988 
L 203.868158 162.168763 
L 204.123469 158.804612 
L 204.378781 136.092595 
L 204.634093 142.426369 
L 204.889405 136.73237 
L 205.144717 142.362391 
L 205.400029 193.661694 
L 205.910652 225.447855 
L 206.165964 251.414524 
L 206.421276 254.879152 
L 206.676588 217.765222 
L 207.187212 250.981445 
L 207.442523 257.315219 
L 207.697835 258.018972 
L 207.953147 261.808409 
L 208.208459 295.488 
L 208.463771 283.678876 
L 208.974394 169.558166 
L 209.74033 217.120116 
L 209.995642 217.526127 
L 210.250954 256.286657 
L 210.506266 271.985755 
L 210.761577 245.513828 
L 211.272201 275.07144 
L 211.527513 279.727034 
L 211.782825 274.475957 
L 212.038137 232.467337 
L 212.54876 189.145948 
L 212.54876 189.145948 
" style="fill:none;stroke:#000000;stroke-linecap:square;stroke-width:1.5;"/>
   </g>
   <g id="patch_3">
    <path d="M 57.6 307.584 
L 57.6 41.472 
" style="fill:none;stroke:#000000;stroke-linecap:square;stroke-linejoin:miter;stroke-width:0.8;"/>
   </g>
   <g id="patch_4">
    <path d="M 219.927273 307.584 
L 219.927273 41.472 
" style="fill:none;stroke:#000000;stroke-linecap:square;stroke-linejoin:miter;stroke-width:0.8;"/>
   </g>
   <g id="patch_5">
    <path d="M 57.6 307.584 
L 219.927273 307.584 
" style="fill:none;stroke:#000000;stroke-linecap:square;stroke-linejoin:miter;stroke-width:0.8;"/>
   </g>
   <g id="patch_6">
    <path d="M 57.6 41.472 
L 219.927273 41.472 
" style="fill:none;stroke:#000000;stroke-linecap:square;stroke-linejoin:miter;stroke-width:0.8;"/>
   </g>
   <g id="text_18">
    <!-- IBI - Reg vs Stress -->
    <defs>
     <path d="M 9.8125 72.90625 
L 19.671875 72.90625 
L 19.671875 0 
L 9.8125 0 
z
" id="DejaVuSans-49"/>
     <path d="M 19.671875 34.8125 
L 19.671875 8.109375 
L 35.5 8.109375 
Q 43.453125 8.109375 47.28125 11.40625 
Q 51.125 14.703125 51.125 21.484375 
Q 51.125 28.328125 47.28125 31.5625 
Q 43.453125 34.8125 35.5 34.8125 
z
M 19.671875 64.796875 
L 19.671875 42.828125 
L 34.28125 42.828125 
Q 41.5 42.828125 45.03125 45.53125 
Q 48.578125 48.25 48.578125 53.8125 
Q 48.578125 59.328125 45.03125 62.0625 
Q 41.5 64.796875 34.28125 64.796875 
z
M 9.8125 72.90625 
L 35.015625 72.90625 
Q 46.296875 72.90625 52.390625 68.21875 
Q 58.5 63.53125 58.5 54.890625 
Q 58.5 48.1875 55.375 44.234375 
Q 52.25 40.28125 46.1875 39.3125 
Q 53.46875 37.75 57.5 32.78125 
Q 61.53125 27.828125 61.53125 20.40625 
Q 61.53125 10.640625 54.890625 5.3125 
Q 48.25 0 35.984375 0 
L 9.8125 0 
z
" id="DejaVuSans-42"/>
     <path id="DejaVuSans-20"/>
     <path d="M 4.890625 31.390625 
L 31.203125 31.390625 
L 31.203125 23.390625 
L 4.890625 23.390625 
z
" id="DejaVuSans-2d"/>
     <path d="M 44.390625 34.1875 
Q 47.5625 33.109375 50.5625 29.59375 
Q 53.5625 26.078125 56.59375 19.921875 
L 66.609375 0 
L 56 0 
L 46.6875 18.703125 
Q 43.0625 26.03125 39.671875 28.421875 
Q 36.28125 30.8125 30.421875 30.8125 
L 19.671875 30.8125 
L 19.671875 0 
L 9.8125 0 
L 9.8125 72.90625 
L 32.078125 72.90625 
Q 44.578125 72.90625 50.734375 67.671875 
Q 56.890625 62.453125 56.890625 51.90625 
Q 56.890625 45.015625 53.6875 40.46875 
Q 50.484375 35.9375 44.390625 34.1875 
z
M 19.671875 64.796875 
L 19.671875 38.921875 
L 32.078125 38.921875 
Q 39.203125 38.921875 42.84375 42.21875 
Q 46.484375 45.515625 46.484375 51.90625 
Q 46.484375 58.296875 42.84375 61.546875 
Q 39.203125 64.796875 32.078125 64.796875 
z
" id="DejaVuSans-52"/>
     <path d="M 45.40625 27.984375 
Q 45.40625 37.75 41.375 43.109375 
Q 37.359375 48.484375 30.078125 48.484375 
Q 22.859375 48.484375 18.828125 43.109375 
Q 14.796875 37.75 14.796875 27.984375 
Q 14.796875 18.265625 18.828125 12.890625 
Q 22.859375 7.515625 30.078125 7.515625 
Q 37.359375 7.515625 41.375 12.890625 
Q 45.40625 18.265625 45.40625 27.984375 
z
M 54.390625 6.78125 
Q 54.390625 -7.171875 48.1875 -13.984375 
Q 42 -20.796875 29.203125 -20.796875 
Q 24.46875 -20.796875 20.265625 -20.09375 
Q 16.0625 -19.390625 12.109375 -17.921875 
L 12.109375 -9.1875 
Q 16.0625 -11.328125 19.921875 -12.34375 
Q 23.78125 -13.375 27.78125 -13.375 
Q 36.625 -13.375 41.015625 -8.765625 
Q 45.40625 -4.15625 45.40625 5.171875 
L 45.40625 9.625 
Q 42.625 4.78125 38.28125 2.390625 
Q 33.9375 0 27.875 0 
Q 17.828125 0 11.671875 7.65625 
Q 5.515625 15.328125 5.515625 27.984375 
Q 5.515625 40.671875 11.671875 48.328125 
Q 17.828125 56 27.875 56 
Q 33.9375 56 38.28125 53.609375 
Q 42.625 51.21875 45.40625 46.390625 
L 45.40625 54.6875 
L 54.390625 54.6875 
z
" id="DejaVuSans-67"/>
     <path d="M 2.984375 54.6875 
L 12.5 54.6875 
L 29.59375 8.796875 
L 46.6875 54.6875 
L 56.203125 54.6875 
L 35.6875 0 
L 23.484375 0 
z
" id="DejaVuSans-76"/>
     <path d="M 53.515625 70.515625 
L 53.515625 60.890625 
Q 47.90625 63.578125 42.921875 64.890625 
Q 37.9375 66.21875 33.296875 66.21875 
Q 25.25 66.21875 20.875 63.09375 
Q 16.5 59.96875 16.5 54.203125 
Q 16.5 49.359375 19.40625 46.890625 
Q 22.3125 44.4375 30.421875 42.921875 
L 36.375 41.703125 
Q 47.40625 39.59375 52.65625 34.296875 
Q 57.90625 29 57.90625 20.125 
Q 57.90625 9.515625 50.796875 4.046875 
Q 43.703125 -1.421875 29.984375 -1.421875 
Q 24.8125 -1.421875 18.96875 -0.25 
Q 13.140625 0.921875 6.890625 3.21875 
L 6.890625 13.375 
Q 12.890625 10.015625 18.65625 8.296875 
Q 24.421875 6.59375 29.984375 6.59375 
Q 38.421875 6.59375 43.015625 9.90625 
Q 47.609375 13.234375 47.609375 19.390625 
Q 47.609375 24.75 44.3125 27.78125 
Q 41.015625 30.8125 33.5 32.328125 
L 27.484375 33.5 
Q 16.453125 35.6875 11.515625 40.375 
Q 6.59375 45.0625 6.59375 53.421875 
Q 6.59375 63.09375 13.40625 68.65625 
Q 20.21875 74.21875 32.171875 74.21875 
Q 37.3125 74.21875 42.625 73.28125 
Q 47.953125 72.359375 53.515625 70.515625 
z
" id="DejaVuSans-53"/>
     <path d="M 41.109375 46.296875 
Q 39.59375 47.171875 37.8125 47.578125 
Q 36.03125 48 33.890625 48 
Q 26.265625 48 22.1875 43.046875 
Q 18.109375 38.09375 18.109375 28.8125 
L 18.109375 0 
L 9.078125 0 
L 9.078125 54.6875 
L 18.109375 54.6875 
L 18.109375 46.1875 
Q 20.953125 51.171875 25.484375 53.578125 
Q 30.03125 56 36.53125 56 
Q 37.453125 56 38.578125 55.875 
Q 39.703125 55.765625 41.0625 55.515625 
z
" id="DejaVuSans-72"/>
    </defs>
    <g transform="translate(84.402699 35.472)scale(0.12 -0.12)">
     <use xlink:href="#DejaVuSans-49"/>
     <use x="29.492188" xlink:href="#DejaVuSans-42"/>
     <use x="98.095703" xlink:href="#DejaVuSans-49"/>
     <use x="127.587891" xlink:href="#DejaVuSans-20"/>
     <use x="159.375" xlink:href="#DejaVuSans-2d"/>
     <use x="195.458984" xlink:href="#DejaVuSans-20"/>
     <use x="227.246094" xlink:href="#DejaVuSans-52"/>
     <use x="296.666016" xlink:href="#DejaVuSans-65"/>
     <use x="358.189453" xlink:href="#DejaVuSans-67"/>
     <use x="421.666016" xlink:href="#DejaVuSans-20"/>
     <use x="453.453125" xlink:href="#DejaVuSans-76"/>
     <use x="512.632812" xlink:href="#DejaVuSans-73"/>
     <use x="564.732422" xlink:href="#DejaVuSans-20"/>
     <use x="596.519531" xlink:href="#DejaVuSans-53"/>
     <use x="659.996094" xlink:href="#DejaVuSans-74"/>
     <use x="699.205078" xlink:href="#DejaVuSans-72"/>
     <use x="740.287109" xlink:href="#DejaVuSans-65"/>
     <use x="801.810547" xlink:href="#DejaVuSans-73"/>
     <use x="853.910156" xlink:href="#DejaVuSans-73"/>
    </g>
   </g>
   <g id="legend_1">
    <g id="patch_7">
     <path d="M 64.6 93.506375 
L 133.807813 93.506375 
Q 135.807813 93.506375 135.807813 91.506375 
L 135.807813 48.472 
Q 135.807813 46.472 133.807813 46.472 
L 64.6 46.472 
Q 62.6 46.472 62.6 48.472 
L 62.6 91.506375 
Q 62.6 93.506375 64.6 93.506375 
z
" style="fill:#ffffff;opacity:0.8;stroke:#cccccc;stroke-linejoin:miter;"/>
    </g>
    <g id="line2d_20">
     <path d="M 66.6 54.570438 
L 86.6 54.570438 
" style="fill:none;stroke:#0000ff;stroke-linecap:square;stroke-width:1.5;"/>
    </g>
    <g id="line2d_21"/>
    <g id="text_19">
     <!-- Reg -->
     <g transform="translate(94.6 58.070438)scale(0.1 -0.1)">
      <use xlink:href="#DejaVuSans-52"/>
      <use x="69.419922" xlink:href="#DejaVuSans-65"/>
      <use x="130.943359" xlink:href="#DejaVuSans-67"/>
     </g>
    </g>
    <g id="line2d_22">
     <path d="M 66.6 69.248563 
L 86.6 69.248563 
" style="fill:none;stroke:#ff0000;stroke-linecap:square;stroke-width:1.5;"/>
    </g>
    <g id="line2d_23"/>
    <g id="text_20">
     <!-- Stress -->
     <g transform="translate(94.6 72.748563)scale(0.1 -0.1)">
      <use xlink:href="#DejaVuSans-53"/>
      <use x="63.476562" xlink:href="#DejaVuSans-74"/>
      <use x="102.685547" xlink:href="#DejaVuSans-72"/>
      <use x="143.767578" xlink:href="#DejaVuSans-65"/>
      <use x="205.291016" xlink:href="#DejaVuSans-73"/>
      <use x="257.390625" xlink:href="#DejaVuSans-73"/>
     </g>
    </g>
    <g id="line2d_24">
     <path d="M 66.6 83.926688 
L 86.6 83.926688 
" style="fill:none;stroke:#000000;stroke-linecap:square;stroke-width:1.5;"/>
    </g>
    <g id="line2d_25"/>
    <g id="text_21">
     <!-- Block C -->
     <defs>
      <path d="M 9.421875 75.984375 
L 18.40625 75.984375 
L 18.40625 0 
L 9.421875 0 
z
" id="DejaVuSans-6c"/>
      <path d="M 30.609375 48.390625 
Q 23.390625 48.390625 19.1875 42.75 
Q 14.984375 37.109375 14.984375 27.296875 
Q 14.984375 17.484375 19.15625 11.84375 
Q 23.34375 6.203125 30.609375 6.203125 
Q 37.796875 6.203125 41.984375 11.859375 
Q 46.1875 17.53125 46.1875 27.296875 
Q 46.1875 37.015625 41.984375 42.703125 
Q 37.796875 48.390625 30.609375 48.390625 
z
M 30.609375 56 
Q 42.328125 56 49.015625 48.375 
Q 55.71875 40.765625 55.71875 27.296875 
Q 55.71875 13.875 49.015625 6.21875 
Q 42.328125 -1.421875 30.609375 -1.421875 
Q 18.84375 -1.421875 12.171875 6.21875 
Q 5.515625 13.875 5.515625 27.296875 
Q 5.515625 40.765625 12.171875 48.375 
Q 18.84375 56 30.609375 56 
z
" id="DejaVuSans-6f"/>
      <path d="M 48.78125 52.59375 
L 48.78125 44.1875 
Q 44.96875 46.296875 41.140625 47.34375 
Q 37.3125 48.390625 33.40625 48.390625 
Q 24.65625 48.390625 19.8125 42.84375 
Q 14.984375 37.3125 14.984375 27.296875 
Q 14.984375 17.28125 19.8125 11.734375 
Q 24.65625 6.203125 33.40625 6.203125 
Q 37.3125 6.203125 41.140625 7.25 
Q 44.96875 8.296875 48.78125 10.40625 
L 48.78125 2.09375 
Q 45.015625 0.34375 40.984375 -0.53125 
Q 36.96875 -1.421875 32.421875 -1.421875 
Q 20.0625 -1.421875 12.78125 6.34375 
Q 5.515625 14.109375 5.515625 27.296875 
Q 5.515625 40.671875 12.859375 48.328125 
Q 20.21875 56 33.015625 56 
Q 37.15625 56 41.109375 55.140625 
Q 45.0625 54.296875 48.78125 52.59375 
z
" id="DejaVuSans-63"/>
      <path d="M 9.078125 75.984375 
L 18.109375 75.984375 
L 18.109375 31.109375 
L 44.921875 54.6875 
L 56.390625 54.6875 
L 27.390625 29.109375 
L 57.625 0 
L 45.90625 0 
L 18.109375 26.703125 
L 18.109375 0 
L 9.078125 0 
z
" id="DejaVuSans-6b"/>
      <path d="M 64.40625 67.28125 
L 64.40625 56.890625 
Q 59.421875 61.53125 53.78125 63.8125 
Q 48.140625 66.109375 41.796875 66.109375 
Q 29.296875 66.109375 22.65625 58.46875 
Q 16.015625 50.828125 16.015625 36.375 
Q 16.015625 21.96875 22.65625 14.328125 
Q 29.296875 6.6875 41.796875 6.6875 
Q 48.140625 6.6875 53.78125 8.984375 
Q 59.421875 11.28125 64.40625 15.921875 
L 64.40625 5.609375 
Q 59.234375 2.09375 53.4375 0.328125 
Q 47.65625 -1.421875 41.21875 -1.421875 
Q 24.65625 -1.421875 15.125 8.703125 
Q 5.609375 18.84375 5.609375 36.375 
Q 5.609375 53.953125 15.125 64.078125 
Q 24.65625 74.21875 41.21875 74.21875 
Q 47.75 74.21875 53.53125 72.484375 
Q 59.328125 70.75 64.40625 67.28125 
z
" id="DejaVuSans-43"/>
     </defs>
     <g transform="translate(94.6 87.426688)scale(0.1 -0.1)">
      <use xlink:href="#DejaVuSans-42"/>
      <use x="68.603516" xlink:href="#DejaVuSans-6c"/>
      <use x="96.386719" xlink:href="#DejaVuSans-6f"/>
      <use x="157.568359" xlink:href="#DejaVuSans-63"/>
      <use x="212.548828" xlink:href="#DejaVuSans-6b"/>
      <use x="270.458984" xlink:href="#DejaVuSans-20"/>
      <use x="302.246094" xlink:href="#DejaVuSans-43"/>
     </g>
    </g>
   </g>
  </g>
  <g id="axes_2">
   <g id="patch_8">
    <path d="M 252.392727 307.584 
L 414.72 307.584 
L 414.72 41.472 
L 252.392727 41.472 
z
" style="fill:#ffffff;"/>
   </g>
   <g id="matplotlib.axis_3">
    <g id="xtick_11">
     <g id="line2d_26">
      <g>
       <use style="stroke:#000000;stroke-width:0.8;" x="259.77124" xlink:href="#m38adadf6e8" y="307.584"/>
      </g>
     </g>
     <g id="text_22">
      <!-- 0.0 -->
      <g transform="translate(251.819677 322.182437)scale(0.1 -0.1)">
       <use xlink:href="#DejaVuSans-30"/>
       <use x="63.623047" xlink:href="#DejaVuSans-2e"/>
       <use x="95.410156" xlink:href="#DejaVuSans-30"/>
      </g>
     </g>
    </g>
    <g id="xtick_12">
     <g id="line2d_27">
      <g>
       <use style="stroke:#000000;stroke-width:0.8;" x="275.089951" xlink:href="#m38adadf6e8" y="307.584"/>
      </g>
     </g>
     <g id="text_23">
      <!-- 5.0 -->
      <g transform="translate(267.138388 322.182437)scale(0.1 -0.1)">
       <use xlink:href="#DejaVuSans-35"/>
       <use x="63.623047" xlink:href="#DejaVuSans-2e"/>
       <use x="95.410156" xlink:href="#DejaVuSans-30"/>
      </g>
     </g>
    </g>
    <g id="xtick_13">
     <g id="line2d_28">
      <g>
       <use style="stroke:#000000;stroke-width:0.8;" x="290.408661" xlink:href="#m38adadf6e8" y="307.584"/>
      </g>
     </g>
     <g id="text_24">
      <!-- 10.0 -->
      <g transform="translate(279.275849 322.182437)scale(0.1 -0.1)">
       <use xlink:href="#DejaVuSans-31"/>
       <use x="63.623047" xlink:href="#DejaVuSans-30"/>
       <use x="127.246094" xlink:href="#DejaVuSans-2e"/>
       <use x="159.033203" xlink:href="#DejaVuSans-30"/>
      </g>
     </g>
    </g>
    <g id="xtick_14">
     <g id="line2d_29">
      <g>
       <use style="stroke:#000000;stroke-width:0.8;" x="305.727372" xlink:href="#m38adadf6e8" y="307.584"/>
      </g>
     </g>
     <g id="text_25">
      <!-- 15.0 -->
      <g transform="translate(294.59456 322.182437)scale(0.1 -0.1)">
       <use xlink:href="#DejaVuSans-31"/>
       <use x="63.623047" xlink:href="#DejaVuSans-35"/>
       <use x="127.246094" xlink:href="#DejaVuSans-2e"/>
       <use x="159.033203" xlink:href="#DejaVuSans-30"/>
      </g>
     </g>
    </g>
    <g id="xtick_15">
     <g id="line2d_30">
      <g>
       <use style="stroke:#000000;stroke-width:0.8;" x="321.046083" xlink:href="#m38adadf6e8" y="307.584"/>
      </g>
     </g>
     <g id="text_26">
      <!-- 20.0 -->
      <g transform="translate(309.913271 322.182437)scale(0.1 -0.1)">
       <use xlink:href="#DejaVuSans-32"/>
       <use x="63.623047" xlink:href="#DejaVuSans-30"/>
       <use x="127.246094" xlink:href="#DejaVuSans-2e"/>
       <use x="159.033203" xlink:href="#DejaVuSans-30"/>
      </g>
     </g>
    </g>
    <g id="xtick_16">
     <g id="line2d_31">
      <g>
       <use style="stroke:#000000;stroke-width:0.8;" x="336.364794" xlink:href="#m38adadf6e8" y="307.584"/>
      </g>
     </g>
     <g id="text_27">
      <!-- 25.0 -->
      <g transform="translate(325.231981 322.182437)scale(0.1 -0.1)">
       <use xlink:href="#DejaVuSans-32"/>
       <use x="63.623047" xlink:href="#DejaVuSans-35"/>
       <use x="127.246094" xlink:href="#DejaVuSans-2e"/>
       <use x="159.033203" xlink:href="#DejaVuSans-30"/>
      </g>
     </g>
    </g>
    <g id="xtick_17">
     <g id="line2d_32">
      <g>
       <use style="stroke:#000000;stroke-width:0.8;" x="351.683505" xlink:href="#m38adadf6e8" y="307.584"/>
      </g>
     </g>
     <g id="text_28">
      <!-- 30.0 -->
      <g transform="translate(340.550692 322.182437)scale(0.1 -0.1)">
       <use xlink:href="#DejaVuSans-33"/>
       <use x="63.623047" xlink:href="#DejaVuSans-30"/>
       <use x="127.246094" xlink:href="#DejaVuSans-2e"/>
       <use x="159.033203" xlink:href="#DejaVuSans-30"/>
      </g>
     </g>
    </g>
    <g id="xtick_18">
     <g id="line2d_33">
      <g>
       <use style="stroke:#000000;stroke-width:0.8;" x="367.002216" xlink:href="#m38adadf6e8" y="307.584"/>
      </g>
     </g>
     <g id="text_29">
      <!-- 35.0 -->
      <g transform="translate(355.869403 322.182437)scale(0.1 -0.1)">
       <use xlink:href="#DejaVuSans-33"/>
       <use x="63.623047" xlink:href="#DejaVuSans-35"/>
       <use x="127.246094" xlink:href="#DejaVuSans-2e"/>
       <use x="159.033203" xlink:href="#DejaVuSans-30"/>
      </g>
     </g>
    </g>
    <g id="xtick_19">
     <g id="line2d_34">
      <g>
       <use style="stroke:#000000;stroke-width:0.8;" x="382.320927" xlink:href="#m38adadf6e8" y="307.584"/>
      </g>
     </g>
     <g id="text_30">
      <!-- 40.0 -->
      <g transform="translate(371.188114 322.182437)scale(0.1 -0.1)">
       <use xlink:href="#DejaVuSans-34"/>
       <use x="63.623047" xlink:href="#DejaVuSans-30"/>
       <use x="127.246094" xlink:href="#DejaVuSans-2e"/>
       <use x="159.033203" xlink:href="#DejaVuSans-30"/>
      </g>
     </g>
    </g>
    <g id="xtick_20">
     <g id="line2d_35">
      <g>
       <use style="stroke:#000000;stroke-width:0.8;" x="397.639637" xlink:href="#m38adadf6e8" y="307.584"/>
      </g>
     </g>
     <g id="text_31">
      <!-- 45.0 -->
      <g transform="translate(386.506825 322.182437)scale(0.1 -0.1)">
       <use xlink:href="#DejaVuSans-34"/>
       <use x="63.623047" xlink:href="#DejaVuSans-35"/>
       <use x="127.246094" xlink:href="#DejaVuSans-2e"/>
       <use x="159.033203" xlink:href="#DejaVuSans-30"/>
      </g>
     </g>
    </g>
    <g id="text_32">
     <!-- Minutes -->
     <g transform="translate(313.874332 335.860562)scale(0.1 -0.1)">
      <use xlink:href="#DejaVuSans-4d"/>
      <use x="86.279297" xlink:href="#DejaVuSans-69"/>
      <use x="114.0625" xlink:href="#DejaVuSans-6e"/>
      <use x="177.441406" xlink:href="#DejaVuSans-75"/>
      <use x="240.820312" xlink:href="#DejaVuSans-74"/>
      <use x="280.029297" xlink:href="#DejaVuSans-65"/>
      <use x="341.552734" xlink:href="#DejaVuSans-73"/>
     </g>
    </g>
   </g>
   <g id="matplotlib.axis_4">
    <g id="ytick_7">
     <g id="line2d_36">
      <g>
       <use style="stroke:#000000;stroke-width:0.8;" x="252.392727" xlink:href="#m39505d18ad" y="307.584"/>
      </g>
     </g>
     <g id="text_33">
      <!-- 1.00 -->
      <g transform="translate(223.127102 311.383219)scale(0.1 -0.1)">
       <use xlink:href="#DejaVuSans-31"/>
       <use x="63.623047" xlink:href="#DejaVuSans-2e"/>
       <use x="95.410156" xlink:href="#DejaVuSans-30"/>
       <use x="159.033203" xlink:href="#DejaVuSans-30"/>
      </g>
     </g>
    </g>
    <g id="ytick_8">
     <g id="line2d_37">
      <g>
       <use style="stroke:#000000;stroke-width:0.8;" x="252.392727" xlink:href="#m39505d18ad" y="274.32"/>
      </g>
     </g>
     <g id="text_34">
      <!-- 1.25 -->
      <g transform="translate(223.127102 278.119219)scale(0.1 -0.1)">
       <use xlink:href="#DejaVuSans-31"/>
       <use x="63.623047" xlink:href="#DejaVuSans-2e"/>
       <use x="95.410156" xlink:href="#DejaVuSans-32"/>
       <use x="159.033203" xlink:href="#DejaVuSans-35"/>
      </g>
     </g>
    </g>
    <g id="ytick_9">
     <g id="line2d_38">
      <g>
       <use style="stroke:#000000;stroke-width:0.8;" x="252.392727" xlink:href="#m39505d18ad" y="241.056"/>
      </g>
     </g>
     <g id="text_35">
      <!-- 1.50 -->
      <g transform="translate(223.127102 244.855219)scale(0.1 -0.1)">
       <use xlink:href="#DejaVuSans-31"/>
       <use x="63.623047" xlink:href="#DejaVuSans-2e"/>
       <use x="95.410156" xlink:href="#DejaVuSans-35"/>
       <use x="159.033203" xlink:href="#DejaVuSans-30"/>
      </g>
     </g>
    </g>
    <g id="ytick_10">
     <g id="line2d_39">
      <g>
       <use style="stroke:#000000;stroke-width:0.8;" x="252.392727" xlink:href="#m39505d18ad" y="207.792"/>
      </g>
     </g>
     <g id="text_36">
      <!-- 1.75 -->
      <defs>
       <path d="M 8.203125 72.90625 
L 55.078125 72.90625 
L 55.078125 68.703125 
L 28.609375 0 
L 18.3125 0 
L 43.21875 64.59375 
L 8.203125 64.59375 
z
" id="DejaVuSans-37"/>
      </defs>
      <g transform="translate(223.127102 211.591219)scale(0.1 -0.1)">
       <use xlink:href="#DejaVuSans-31"/>
       <use x="63.623047" xlink:href="#DejaVuSans-2e"/>
       <use x="95.410156" xlink:href="#DejaVuSans-37"/>
       <use x="159.033203" xlink:href="#DejaVuSans-35"/>
      </g>
     </g>
    </g>
    <g id="ytick_11">
     <g id="line2d_40">
      <g>
       <use style="stroke:#000000;stroke-width:0.8;" x="252.392727" xlink:href="#m39505d18ad" y="174.528"/>
      </g>
     </g>
     <g id="text_37">
      <!-- 2.00 -->
      <g transform="translate(223.127102 178.327219)scale(0.1 -0.1)">
       <use xlink:href="#DejaVuSans-32"/>
       <use x="63.623047" xlink:href="#DejaVuSans-2e"/>
       <use x="95.410156" xlink:href="#DejaVuSans-30"/>
       <use x="159.033203" xlink:href="#DejaVuSans-30"/>
      </g>
     </g>
    </g>
    <g id="ytick_12">
     <g id="line2d_41">
      <g>
       <use style="stroke:#000000;stroke-width:0.8;" x="252.392727" xlink:href="#m39505d18ad" y="141.264"/>
      </g>
     </g>
     <g id="text_38">
      <!-- 2.25 -->
      <g transform="translate(223.127102 145.063219)scale(0.1 -0.1)">
       <use xlink:href="#DejaVuSans-32"/>
       <use x="63.623047" xlink:href="#DejaVuSans-2e"/>
       <use x="95.410156" xlink:href="#DejaVuSans-32"/>
       <use x="159.033203" xlink:href="#DejaVuSans-35"/>
      </g>
     </g>
    </g>
    <g id="ytick_13">
     <g id="line2d_42">
      <g>
       <use style="stroke:#000000;stroke-width:0.8;" x="252.392727" xlink:href="#m39505d18ad" y="108"/>
      </g>
     </g>
     <g id="text_39">
      <!-- 2.50 -->
      <g transform="translate(223.127102 111.799219)scale(0.1 -0.1)">
       <use xlink:href="#DejaVuSans-32"/>
       <use x="63.623047" xlink:href="#DejaVuSans-2e"/>
       <use x="95.410156" xlink:href="#DejaVuSans-35"/>
       <use x="159.033203" xlink:href="#DejaVuSans-30"/>
      </g>
     </g>
    </g>
    <g id="ytick_14">
     <g id="line2d_43">
      <g>
       <use style="stroke:#000000;stroke-width:0.8;" x="252.392727" xlink:href="#m39505d18ad" y="74.736"/>
      </g>
     </g>
     <g id="text_40">
      <!-- 2.75 -->
      <g transform="translate(223.127102 78.535219)scale(0.1 -0.1)">
       <use xlink:href="#DejaVuSans-32"/>
       <use x="63.623047" xlink:href="#DejaVuSans-2e"/>
       <use x="95.410156" xlink:href="#DejaVuSans-37"/>
       <use x="159.033203" xlink:href="#DejaVuSans-35"/>
      </g>
     </g>
    </g>
    <g id="ytick_15">
     <g id="line2d_44">
      <g>
       <use style="stroke:#000000;stroke-width:0.8;" x="252.392727" xlink:href="#m39505d18ad" y="41.472"/>
      </g>
     </g>
     <g id="text_41">
      <!-- 3.00 -->
      <g transform="translate(223.127102 45.271219)scale(0.1 -0.1)">
       <use xlink:href="#DejaVuSans-33"/>
       <use x="63.623047" xlink:href="#DejaVuSans-2e"/>
       <use x="95.410156" xlink:href="#DejaVuSans-30"/>
       <use x="159.033203" xlink:href="#DejaVuSans-30"/>
      </g>
     </g>
    </g>
   </g>
   <g id="line2d_45">
    <path clip-path="url(#p0c958e358b)" d="M 259.77124 260.281874 
L 260.026552 142.088479 
L 260.281863 133.115998 
L 260.537175 181.223953 
L 260.792487 155.600054 
L 261.047799 200.758941 
L 261.303111 175.167791 
L 261.558423 208.082416 
L 261.813734 218.133821 
L 262.069046 200.702625 
L 262.324358 202.082433 
L 262.57967 204.720899 
L 262.834982 201.587572 
L 263.090294 186.680211 
L 263.345606 173.572707 
L 263.600917 197.786309 
L 263.856229 193.962015 
L 264.111541 216.792622 
L 264.366853 202.797767 
L 264.622165 169.848795 
L 264.877477 220.5831 
L 265.132788 182.992513 
L 265.3881 203.994247 
L 265.643412 183.963866 
L 265.898724 221.018983 
L 266.154036 207.835318 
L 266.409348 202.747575 
L 266.66466 176.482628 
L 266.919971 223.933036 
L 267.175283 177.35586 
L 267.430595 185.065021 
L 267.685907 177.394735 
L 267.941219 181.417929 
L 268.196531 188.46568 
L 268.451842 201.791269 
L 268.707154 232.580269 
L 268.962466 204.025534 
L 269.217778 181.865929 
L 269.47309 185.128794 
L 269.728402 201.224514 
L 269.983714 175.157008 
L 270.239025 187.570751 
L 270.494337 220.363695 
L 270.749649 205.583876 
L 271.004961 179.740567 
L 271.260273 252.12125 
L 271.515585 198.642233 
L 271.770897 219.075616 
L 272.026208 200.069703 
L 272.28152 214.646757 
L 272.536832 216.631262 
L 272.792144 236.904751 
L 273.047456 197.51325 
L 273.302768 195.910974 
L 273.558079 232.231988 
L 273.813391 205.38018 
L 274.068703 226.784382 
L 274.324015 174.120956 
L 274.579327 193.336414 
L 274.834639 178.647266 
L 275.089951 191.376805 
L 275.345262 200.944664 
L 275.600574 195.626199 
L 275.855886 244.887508 
L 276.111198 197.056465 
L 276.36651 197.800287 
L 276.621822 194.321877 
L 276.877133 219.514427 
L 277.132445 178.702785 
L 277.387757 189.24838 
L 277.643069 186.327939 
L 277.898381 198.2391 
L 278.153693 231.245993 
L 278.409005 179.468572 
L 278.664316 215.848432 
L 278.919628 203.606427 
L 279.17494 271.162976 
L 279.430252 202.561719 
L 279.685564 211.164352 
L 279.940876 211.071957 
L 280.196187 213.101328 
L 280.451499 210.138548 
L 280.706811 181.247917 
L 280.962123 206.493719 
L 281.217435 181.042624 
L 281.472747 231.269159 
L 281.728059 189.120438 
L 281.98337 201.100034 
L 282.238682 181.976431 
L 282.493994 213.716944 
L 282.749306 210.335189 
L 283.004618 230.622123 
L 283.25993 174.19857 
L 283.515241 247.461535 
L 283.770553 211.481744 
L 284.025865 190.487198 
L 284.281177 197.782183 
L 284.536489 203.696693 
L 284.791801 223.793511 
L 285.047113 201.548564 
L 285.302424 218.555326 
L 285.557736 212.542829 
L 285.813048 239.064994 
L 286.06836 201.737481 
L 286.323672 236.622106 
L 286.578984 190.006316 
L 286.834296 238.014694 
L 287.089607 241.407499 
L 287.344919 239.65824 
L 287.600231 227.496785 
L 287.855543 251.405784 
L 288.110855 229.931154 
L 288.366167 234.929431 
L 288.621478 228.986031 
L 288.87679 244.834653 
L 289.132102 236.374874 
L 289.387414 278.889583 
L 289.642726 228.385459 
L 289.898038 246.732489 
L 290.15335 216.276458 
L 290.408661 214.688826 
" style="fill:none;stroke:#0000ff;stroke-linecap:square;stroke-width:1.5;"/>
   </g>
   <g id="line2d_46">
    <path clip-path="url(#p0c958e358b)" d="M 290.663973 242.771463 
L 290.919285 180.407571 
L 291.174597 244.023464 
L 291.429909 209.391795 
L 291.685221 290.430765 
L 291.940532 218.953531 
L 292.195844 251.406981 
L 292.451156 227.645764 
L 292.706468 245.139665 
L 292.96178 200.005932 
L 293.217092 202.700312 
L 293.472404 222.352993 
L 293.727715 282.010527 
L 293.983027 220.743528 
L 294.238339 178.673758 
L 294.493651 215.312696 
L 294.748963 199.735268 
L 295.004275 267.192634 
L 295.259586 222.65441 
L 295.514898 253.156373 
L 295.77021 230.265056 
L 296.025522 214.994238 
L 296.280834 227.15463 
L 296.536146 280.951173 
L 296.791458 221.457795 
L 297.046769 259.615936 
L 297.302081 222.039727 
L 297.557393 188.996889 
L 297.812705 219.194639 
L 298.068017 209.944837 
L 298.323329 261.745159 
L 298.578641 222.732028 
L 298.833952 246.278767 
L 299.089264 182.507505 
L 299.344576 232.402268 
L 299.599888 221.946133 
L 299.8552 275.802987 
L 300.110512 214.323505 
L 300.365823 228.328611 
L 300.621135 217.982713 
L 300.876447 215.521318 
L 301.131759 200.145057 
L 301.387071 203.930476 
L 301.642383 280.345544 
L 301.897695 251.540515 
L 302.153006 263.270351 
L 302.408318 226.059862 
L 302.66363 204.497365 
L 302.918942 222.17792 
L 303.174254 240.574875 
L 303.429566 201.159942 
L 303.684877 212.23968 
L 303.940189 216.824174 
L 304.195501 208.860455 
L 304.450813 201.021217 
L 304.706125 197.912122 
L 304.961437 195.413049 
L 305.216749 201.553623 
L 305.47206 230.981587 
L 305.727372 202.661969 
L 305.982684 240.239908 
L 306.237996 210.01673 
L 306.493308 222.997632 
L 306.74862 202.979629 
L 307.003931 195.21215 
L 307.259243 188.544231 
L 307.514555 227.998172 
L 307.769867 187.538531 
L 308.025179 230.169731 
L 308.280491 261.214883 
L 308.535803 193.498972 
L 308.791114 190.288162 
L 309.046426 208.164161 
L 309.301738 195.632855 
L 309.55705 232.73324 
L 309.812362 198.617602 
L 310.067674 196.227568 
L 310.322986 212.364428 
L 310.578297 195.883148 
L 310.833609 173.60639 
L 311.088921 173.536628 
L 311.344233 191.070861 
L 311.599545 206.429281 
L 311.854857 194.807686 
L 312.110168 178.083308 
L 312.36548 181.004949 
L 312.620792 199.267034 
L 312.876104 201.725501 
" style="fill:none;stroke:#ff0000;stroke-linecap:square;stroke-width:1.5;"/>
   </g>
   <g id="line2d_47">
    <path clip-path="url(#p0c958e358b)" d="M 313.131416 202.967512 
L 313.386728 204.715971 
L 313.64204 209.993165 
L 313.897351 188.425873 
L 314.152663 203.986659 
L 314.663287 259.640965 
L 314.918599 233.945033 
L 315.173911 221.080492 
L 315.429222 190.419833 
L 315.684534 245.898399 
L 316.195158 197.783114 
L 316.45047 204.955881 
L 316.705782 221.367796 
L 316.961094 205.117371 
L 317.471717 243.20575 
L 317.727029 200.757476 
L 317.982341 273.170249 
L 318.237653 215.836049 
L 318.492965 221.209633 
L 318.748276 200.192588 
L 319.003588 203.801336 
L 319.514212 236.064005 
L 319.769524 190.08167 
L 320.024836 263.552996 
L 320.280148 198.434275 
L 320.535459 190.876617 
L 320.790771 233.477064 
L 321.046083 205.22894 
L 321.301395 189.634338 
L 321.556707 241.118331 
L 321.812019 197.495677 
L 322.06733 214.322175 
L 322.322642 209.869084 
L 322.577954 237.422778 
L 322.833266 201.956089 
L 323.088578 191.996813 
L 323.34389 227.723115 
L 323.599202 213.677137 
L 323.854513 212.217047 
L 324.109825 180.363638 
L 324.365137 210.486695 
L 324.620449 205.781582 
L 324.875761 181.158717 
L 325.386385 240.068696 
L 325.641696 194.069987 
L 325.897008 284.115519 
L 326.15232 212.650933 
L 326.407632 203.651293 
L 326.662944 173.553269 
L 326.918256 206.738289 
L 327.173567 223.36322 
L 327.428879 219.892264 
L 327.684191 187.831827 
L 327.939503 246.311384 
L 328.450127 211.292428 
L 328.96075 186.485169 
L 329.216062 170.390121 
L 329.726686 198.121676 
L 329.981998 295.605178 
L 330.23731 149.832521 
L 330.492621 189.788377 
L 330.747933 172.776958 
L 331.003245 167.331221 
L 331.258557 179.147716 
L 331.513869 156.054175 
L 331.769181 212.548687 
L 332.024493 220.615585 
L 332.279804 256.583525 
L 332.535116 144.153928 
L 332.790428 163.0544 
L 333.04574 231.686801 
L 333.301052 172.236034 
L 333.556364 235.119946 
L 333.811675 147.146529 
L 334.084451 346.6 
M 334.564166 346.6 
L 334.577611 315.56846 
L 334.832923 198.179193 
L 335.088235 161.016906 
L 335.343547 267.441195 
L 335.598858 115.114052 
L 335.85417 172.197425 
L 336.109482 166.79562 
L 336.364794 130.60694 
L 336.620106 302.048365 
L 336.875418 158.2272 
L 337.13073 171.371458 
L 337.386041 155.062987 
L 337.641353 187.63998 
L 337.896665 176.762743 
L 337.95622 346.6 
M 338.358349 346.6 
L 338.407289 214.215799 
L 338.662601 161.369715 
L 338.917912 138.463087 
L 338.987254 346.6 
M 339.392059 346.6 
L 339.428536 253.554179 
L 339.683848 154.153144 
L 339.93916 138.856766 
L 340.194472 251.224586 
L 340.449784 158.830302 
L 340.705095 154.475329 
L 340.960407 187.500988 
L 341.215719 156.61281 
L 341.471031 309.423627 
L 342.492278 125.860952 
L 343.002902 147.114179 
L 343.513526 283.908361 
L 343.768838 141.752711 
L 344.024149 146.795854 
L 344.279461 165.903351 
L 344.534773 173.496817 
L 344.790085 133.87633 
L 345.045397 239.31835 
L 345.300709 230.859104 
L 345.55602 209.656468 
L 345.811332 298.642912 
L 346.066644 206.55869 
L 346.321956 292.231544 
L 346.577268 254.935717 
L 346.613327 346.6 
M 347.319411 346.6 
L 347.343203 289.306042 
L 347.598515 161.132866 
L 347.853827 194.683471 
L 348.109139 174.518626 
L 348.364451 194.465929 
L 348.619763 262.053367 
L 348.875074 216.656426 
L 349.130386 191.753574 
L 349.385698 181.037165 
L 349.64101 180.599418 
L 349.896322 330.014375 
L 350.151634 163.375122 
L 350.406946 151.302332 
L 350.473104 346.6 
M 350.88177 346.6 
L 350.917569 255.53935 
L 351.172881 146.205003 
L 351.428193 177.190373 
L 351.683505 313.124241 
L 351.938817 127.06023 
L 352.194129 175.022542 
L 352.44944 155.66622 
L 352.704752 188.513743 
L 352.761116 346.6 
M 353.163065 346.6 
L 353.215376 202.808443 
L 353.470688 158.583601 
L 353.726 181.682736 
L 353.981311 181.691656 
L 354.236623 191.333274 
L 354.491935 189.427712 
L 354.747247 136.191676 
L 355.002559 146.946562 
L 355.257871 243.91842 
L 355.513183 169.041733 
L 355.768494 285.712071 
L 356.023806 141.40004 
L 356.279118 157.127108 
L 356.53443 286.419947 
L 356.789742 153.492928 
L 357.045054 171.572888 
L 357.106049 346.6 
M 357.516114 346.6 
L 357.555677 244.347647 
L 357.810989 164.669058 
L 358.066301 239.102006 
L 358.321613 262.297003 
L 358.576925 245.037418 
L 358.832237 257.841916 
L 359.087548 284.791578 
L 359.112997 346.6 
M 359.56203 346.6 
L 359.598172 254.536846 
L 359.853484 156.432411 
L 360.108796 148.251015 
L 360.364108 236.760033 
L 360.619419 162.031659 
L 360.682885 346.6 
M 361.090404 346.6 
L 361.130043 244.057946 
L 361.385355 164.535656 
L 361.640667 205.631406 
L 361.895979 205.508789 
L 362.151291 232.575609 
L 362.661914 209.459561 
L 362.917226 186.71363 
L 363.172538 209.310717 
L 363.42785 201.942775 
L 363.683162 224.273861 
L 363.938474 222.741614 
L 364.193785 198.507633 
L 364.449097 209.339738 
L 364.704409 212.585564 
L 364.959721 241.06561 
L 365.215033 234.155918 
L 365.725656 200.092336 
L 366.491592 225.408169 
L 366.746904 196.248471 
L 367.002216 193.08479 
L 367.257528 195.90405 
L 367.512839 222.656008 
L 367.768151 230.732757 
L 368.023463 210.163178 
L 368.278775 210.015265 
L 368.534087 198.275979 
L 368.789399 229.548792 
L 369.04471 214.950569 
L 369.300022 187.959239 
L 369.555334 180.341136 
L 369.810646 225.729955 
L 370.065958 182.194239 
L 370.32127 208.424306 
L 370.576582 196.21146 
L 370.831893 227.438739 
L 371.087205 193.773629 
L 371.342517 203.019437 
L 371.597829 241.363165 
L 371.853141 181.020524 
L 372.108453 222.352594 
L 372.363764 197.520439 
L 372.619076 205.788506 
L 372.874388 210.429847 
L 373.1297 183.761901 
L 373.385012 225.922734 
L 373.640324 238.877274 
L 373.895636 161.510303 
L 374.150947 164.999898 
L 374.406259 283.125263 
L 374.916883 188.97279 
L 375.172195 204.981309 
L 375.427507 232.917233 
L 375.682818 192.512443 
L 375.93813 188.288347 
L 376.448754 238.42821 
L 376.704066 216.941732 
L 376.959378 214.186377 
L 377.21469 200.222276 
L 377.725313 227.982194 
L 377.980625 199.459414 
L 378.235937 209.178647 
L 378.491249 214.144039 
L 378.746561 196.30838 
L 379.001873 162.236286 
L 379.257184 200.094067 
L 379.512496 185.458303 
L 379.767808 180.014824 
L 380.02312 200.017115 
L 380.278432 136.692397 
L 380.533744 168.393769 
L 380.789055 153.333567 
L 381.044367 161.835283 
L 381.299679 157.831791 
L 381.554991 208.869107 
L 381.810303 170.174045 
L 382.065615 176.461995 
L 382.320927 164.367108 
L 382.576238 229.262817 
L 382.83155 207.816813 
L 383.086862 213.699902 
L 383.342174 247.271818 
L 384.108109 184.911252 
L 384.363421 244.904016 
L 384.618733 228.195877 
L 384.874045 226.059597 
L 385.129357 178.31536 
L 385.384669 208.229397 
L 385.639981 204.599745 
L 385.895292 217.909356 
L 386.150604 216.838287 
L 386.405916 234.198388 
L 386.91654 206.140113 
L 387.171852 221.741371 
L 387.682475 196.241015 
L 387.937787 218.780855 
L 388.193099 201.364837 
L 388.448411 232.672265 
L 388.703723 211.44713 
L 388.959035 234.880704 
L 389.214346 192.661021 
L 389.469658 225.689482 
L 389.72497 237.208964 
L 389.980282 204.922996 
L 390.235594 223.67662 
L 390.490906 183.906086 
L 390.746218 231.905674 
L 391.256841 193.443855 
L 391.512153 198.986652 
L 391.767465 211.065698 
L 392.022777 183.968258 
L 392.278089 187.39235 
L 392.788712 311.782909 
L 393.044024 170.834921 
L 393.299336 218.893754 
L 393.554648 214.974801 
L 393.80996 192.507251 
L 394.065272 208.028496 
L 394.320583 216.694634 
L 394.575895 185.52833 
L 394.831207 198.431746 
L 395.086519 196.544828 
L 395.852454 233.974987 
L 396.107766 214.998099 
L 396.363078 225.289678 
L 396.61839 254.900437 
L 396.873702 200.783971 
L 397.384326 247.069719 
L 397.639637 194.350901 
L 397.894949 233.849176 
L 398.150261 188.817024 
L 398.405573 215.83312 
L 398.660885 168.199655 
L 398.916197 199.377136 
L 399.171508 181.587412 
L 399.682132 163.662026 
L 399.937444 207.143949 
L 400.192756 168.444889 
L 400.448068 165.065132 
L 400.70338 232.408791 
L 400.958691 188.120196 
L 401.214003 196.536574 
L 401.469315 182.448659 
L 401.724627 232.348349 
L 401.979939 214.855644 
L 402.235251 179.390689 
L 402.490562 206.217998 
L 402.745874 197.511254 
L 403.001186 183.713971 
L 403.256498 179.057852 
L 403.51181 257.654329 
L 403.767122 192.464382 
L 404.022434 219.343084 
L 404.277745 178.545153 
L 404.533057 197.859133 
L 404.788369 241.919136 
L 405.043681 204.626105 
L 405.298993 188.775752 
L 405.554305 210.160249 
L 405.809617 164.454979 
L 406.064928 213.94913 
L 406.32024 193.150425 
L 406.575552 200.034688 
L 406.830864 235.576998 
L 407.086176 250.35402 
L 407.341488 178.586024 
L 407.341488 178.586024 
" style="fill:none;stroke:#000000;stroke-linecap:square;stroke-width:1.5;"/>
   </g>
   <g id="patch_9">
    <path d="M 252.392727 307.584 
L 252.392727 41.472 
" style="fill:none;stroke:#000000;stroke-linecap:square;stroke-linejoin:miter;stroke-width:0.8;"/>
   </g>
   <g id="patch_10">
    <path d="M 414.72 307.584 
L 414.72 41.472 
" style="fill:none;stroke:#000000;stroke-linecap:square;stroke-linejoin:miter;stroke-width:0.8;"/>
   </g>
   <g id="patch_11">
    <path d="M 252.392727 307.584 
L 414.72 307.584 
" style="fill:none;stroke:#000000;stroke-linecap:square;stroke-linejoin:miter;stroke-width:0.8;"/>
   </g>
   <g id="patch_12">
    <path d="M 252.392727 41.472 
L 414.72 41.472 
" style="fill:none;stroke:#000000;stroke-linecap:square;stroke-linejoin:miter;stroke-width:0.8;"/>
   </g>
   <g id="text_42">
    <!-- Pupil - Reg vs Stress -->
    <defs>
     <path d="M 19.671875 64.796875 
L 19.671875 37.40625 
L 32.078125 37.40625 
Q 38.96875 37.40625 42.71875 40.96875 
Q 46.484375 44.53125 46.484375 51.125 
Q 46.484375 57.671875 42.71875 61.234375 
Q 38.96875 64.796875 32.078125 64.796875 
z
M 9.8125 72.90625 
L 32.078125 72.90625 
Q 44.34375 72.90625 50.609375 67.359375 
Q 56.890625 61.8125 56.890625 51.125 
Q 56.890625 40.328125 50.609375 34.8125 
Q 44.34375 29.296875 32.078125 29.296875 
L 19.671875 29.296875 
L 19.671875 0 
L 9.8125 0 
z
" id="DejaVuSans-50"/>
     <path d="M 18.109375 8.203125 
L 18.109375 -20.796875 
L 9.078125 -20.796875 
L 9.078125 54.6875 
L 18.109375 54.6875 
L 18.109375 46.390625 
Q 20.953125 51.265625 25.265625 53.625 
Q 29.59375 56 35.59375 56 
Q 45.5625 56 51.78125 48.09375 
Q 58.015625 40.1875 58.015625 27.296875 
Q 58.015625 14.40625 51.78125 6.484375 
Q 45.5625 -1.421875 35.59375 -1.421875 
Q 29.59375 -1.421875 25.265625 0.953125 
Q 20.953125 3.328125 18.109375 8.203125 
z
M 48.6875 27.296875 
Q 48.6875 37.203125 44.609375 42.84375 
Q 40.53125 48.484375 33.40625 48.484375 
Q 26.265625 48.484375 22.1875 42.84375 
Q 18.109375 37.203125 18.109375 27.296875 
Q 18.109375 17.390625 22.1875 11.75 
Q 26.265625 6.109375 33.40625 6.109375 
Q 40.53125 6.109375 44.609375 11.75 
Q 48.6875 17.390625 48.6875 27.296875 
z
" id="DejaVuSans-70"/>
    </defs>
    <g transform="translate(272.289801 35.472)scale(0.12 -0.12)">
     <use xlink:href="#DejaVuSans-50"/>
     <use x="60.287109" xlink:href="#DejaVuSans-75"/>
     <use x="123.666016" xlink:href="#DejaVuSans-70"/>
     <use x="187.142578" xlink:href="#DejaVuSans-69"/>
     <use x="214.925781" xlink:href="#DejaVuSans-6c"/>
     <use x="242.708984" xlink:href="#DejaVuSans-20"/>
     <use x="274.496094" xlink:href="#DejaVuSans-2d"/>
     <use x="310.580078" xlink:href="#DejaVuSans-20"/>
     <use x="342.367188" xlink:href="#DejaVuSans-52"/>
     <use x="411.787109" xlink:href="#DejaVuSans-65"/>
     <use x="473.310547" xlink:href="#DejaVuSans-67"/>
     <use x="536.787109" xlink:href="#DejaVuSans-20"/>
     <use x="568.574219" xlink:href="#DejaVuSans-76"/>
     <use x="627.753906" xlink:href="#DejaVuSans-73"/>
     <use x="679.853516" xlink:href="#DejaVuSans-20"/>
     <use x="711.640625" xlink:href="#DejaVuSans-53"/>
     <use x="775.117188" xlink:href="#DejaVuSans-74"/>
     <use x="814.326172" xlink:href="#DejaVuSans-72"/>
     <use x="855.408203" xlink:href="#DejaVuSans-65"/>
     <use x="916.931641" xlink:href="#DejaVuSans-73"/>
     <use x="969.03125" xlink:href="#DejaVuSans-73"/>
    </g>
   </g>
   <g id="legend_2">
    <g id="patch_13">
     <path d="M 338.512187 93.506375 
L 407.72 93.506375 
Q 409.72 93.506375 409.72 91.506375 
L 409.72 48.472 
Q 409.72 46.472 407.72 46.472 
L 338.512187 46.472 
Q 336.512187 46.472 336.512187 48.472 
L 336.512187 91.506375 
Q 336.512187 93.506375 338.512187 93.506375 
z
" style="fill:#ffffff;opacity:0.8;stroke:#cccccc;stroke-linejoin:miter;"/>
    </g>
    <g id="line2d_48">
     <path d="M 340.512187 54.570438 
L 360.512187 54.570438 
" style="fill:none;stroke:#0000ff;stroke-linecap:square;stroke-width:1.5;"/>
    </g>
    <g id="line2d_49"/>
    <g id="text_43">
     <!-- Reg -->
     <g transform="translate(368.512187 58.070438)scale(0.1 -0.1)">
      <use xlink:href="#DejaVuSans-52"/>
      <use x="69.419922" xlink:href="#DejaVuSans-65"/>
      <use x="130.943359" xlink:href="#DejaVuSans-67"/>
     </g>
    </g>
    <g id="line2d_50">
     <path d="M 340.512187 69.248563 
L 360.512187 69.248563 
" style="fill:none;stroke:#ff0000;stroke-linecap:square;stroke-width:1.5;"/>
    </g>
    <g id="line2d_51"/>
    <g id="text_44">
     <!-- Stress -->
     <g transform="translate(368.512187 72.748563)scale(0.1 -0.1)">
      <use xlink:href="#DejaVuSans-53"/>
      <use x="63.476562" xlink:href="#DejaVuSans-74"/>
      <use x="102.685547" xlink:href="#DejaVuSans-72"/>
      <use x="143.767578" xlink:href="#DejaVuSans-65"/>
      <use x="205.291016" xlink:href="#DejaVuSans-73"/>
      <use x="257.390625" xlink:href="#DejaVuSans-73"/>
     </g>
    </g>
    <g id="line2d_52">
     <path d="M 340.512187 83.926688 
L 360.512187 83.926688 
" style="fill:none;stroke:#000000;stroke-linecap:square;stroke-width:1.5;"/>
    </g>
    <g id="line2d_53"/>
    <g id="text_45">
     <!-- Block C -->
     <g transform="translate(368.512187 87.426688)scale(0.1 -0.1)">
      <use xlink:href="#DejaVuSans-42"/>
      <use x="68.603516" xlink:href="#DejaVuSans-6c"/>
      <use x="96.386719" xlink:href="#DejaVuSans-6f"/>
      <use x="157.568359" xlink:href="#DejaVuSans-63"/>
      <use x="212.548828" xlink:href="#DejaVuSans-6b"/>
      <use x="270.458984" xlink:href="#DejaVuSans-20"/>
      <use x="302.246094" xlink:href="#DejaVuSans-43"/>
     </g>
    </g>
   </g>
  </g>
 </g>
 <defs>
  <clipPath id="p1dff6af64f">
   <rect height="266.112" width="162.327273" x="57.6" y="41.472"/>
  </clipPath>
  <clipPath id="p0c958e358b">
   <rect height="266.112" width="162.327273" x="252.392727" y="41.472"/>
  </clipPath>
 </defs>
</svg>
