<?xml version="1.0" encoding="utf-8" standalone="no"?>
<!DOCTYPE svg PUBLIC "-//W3C//DTD SVG 1.1//EN"
  "http://www.w3.org/Graphics/SVG/1.1/DTD/svg11.dtd">
<!-- Created with matplotlib (http://matplotlib.org/) -->
<svg height="432pt" version="1.1" viewBox="0 0 576 432" width="576pt" xmlns="http://www.w3.org/2000/svg" xmlns:xlink="http://www.w3.org/1999/xlink">
 <defs>
  <style type="text/css">
*{stroke-linecap:butt;stroke-linejoin:round;}
  </style>
 </defs>
 <g id="figure_1">
  <g id="patch_1">
   <path d="
M0 432
L576 432
L576 0
L0 0
z
" style="fill:#ffffff;"/>
  </g>
  <g id="axes_1">
   <g id="patch_2">
    <path d="
M74.1875 402.44
L220.293 402.44
L220.293 238.28
L74.1875 238.28
z
" style="fill:#ffffff;"/>
   </g>
   <g id="line2d_1">
    <path clip-path="url(#p03a1b07124)" d="
M75.2311 269.891
L76.2747 280.658
L77.3183 272.427
L78.3619 275.048
L79.4055 272.129
L80.4491 271.416
L81.4927 270.741
L82.5363 267.971
L83.58 270.386
L84.6236 272.866
L85.6672 272.662
L86.7108 270.599
L87.7544 271.366
L88.798 272.68
L89.8416 273.34
L90.8852 273.971
L91.9288 273.848
L92.9724 275.889
L94.016 276.614
L95.0596 274.122
L96.1032 272.704
L97.1468 271.635
L98.1905 271.591
L99.2341 276.182
L100.278 277.798
L101.321 276.354
L102.365 273.649
L103.408 273.969
L104.452 273.151
L105.496 273.604
L106.539 277.389
L107.583 274.463
L108.627 273.876
L109.67 270.603
L110.714 279.129
L111.757 273.446
L112.801 270.62
L113.845 273.735
L114.888 273.655
L115.932 269.784
L116.975 272.434
L118.019 272.427
L119.063 270.591
L120.106 273.48
L121.15 274.559
L122.193 273.772
L123.237 272.076
L124.281 274.603
L125.324 274.917
L126.368 273.946
L127.411 273.769
L128.455 271.306
L129.499 271.878
L130.542 273.143
L131.586 270.907
L132.629 274.475
L133.673 273.135
L134.717 272.191
L135.76 277.308
L136.804 273.817
L137.848 274.281
L138.891 274.573
L139.935 275.172
L140.978 273.25
L142.022 271.299
L143.066 270.719
L144.109 272.898
L145.153 275.621
L146.196 275.102
L147.24 275.904
L148.284 272.021
L149.327 273.19
L150.371 273.477
L151.414 274.463
L152.458 273.589
L153.502 272.816
L154.545 269.477
L155.589 272.109
L156.632 272.502
L157.676 270.899
L158.72 271.376
L159.763 274.782
L160.807 273.955
L161.851 275.488
L162.894 271.789
L163.938 276.612
L164.981 272.167
L166.025 272.877
L167.069 273.828
L168.112 277.73
L169.156 276.144
L170.199 272
L171.243 276.876
L172.287 271.742
L173.33 274.363
L174.374 270.515
L175.417 273.347
L176.461 274.693
L177.505 276.385
L178.548 271.446
L179.592 278.705
L180.635 274.53
L181.679 272.441
L182.723 270.606
L183.766 272.908
L184.81 274.362
L185.853 271.683
L186.897 276.651
L187.941 273.88
L188.984 275.273
L190.028 274.655
L191.072 272.315
L192.115 273.533
L193.159 273.327
L194.202 270.497
L195.246 275.826
L196.29 269.104
L197.333 271.736
L198.377 273.018
L199.42 274.255
L200.464 275.493
L201.508 275.921
L202.551 274.545
L203.595 272.699
L204.638 271.86" style="fill:none;stroke:#ff0000;stroke-linecap:square;"/>
   </g>
   <g id="line2d_2">
    <path clip-path="url(#p03a1b07124)" d="
M75.2311 273.218
L76.2747 273.222
L77.3183 273.226
L78.3619 273.23
L79.4055 273.234
L80.4491 273.237
L81.4927 273.241
L82.5363 273.245
L83.58 273.249
L84.6236 273.253
L85.6672 273.257
L86.7108 273.26
L87.7544 273.264
L88.798 273.268
L89.8416 273.272
L90.8852 273.276
L91.9288 273.28
L92.9724 273.283
L94.016 273.287
L95.0596 273.291
L96.1032 273.295
L97.1468 273.299
L98.1905 273.303
L99.2341 273.306
L100.278 273.31
L101.321 273.314
L102.365 273.318
L103.408 273.322
L104.452 273.326
L105.496 273.329
L106.539 273.333
L107.583 273.337
L108.627 273.341
L109.67 273.345
L110.714 273.349
L111.757 273.352
L112.801 273.356
L113.845 273.36
L114.888 273.364
L115.932 273.368
L116.975 273.372
L118.019 273.375
L119.063 273.379
L120.106 273.383
L121.15 273.387
L122.193 273.391
L123.237 273.395
L124.281 273.398
L125.324 273.402
L126.368 273.406
L127.411 273.41
L128.455 273.414
L129.499 273.418
L130.542 273.421
L131.586 273.425
L132.629 273.429
L133.673 273.433
L134.717 273.437
L135.76 273.441
L136.804 273.445
L137.848 273.448
L138.891 273.452
L139.935 273.456
L140.978 273.46
L142.022 273.464
L143.066 273.468
L144.109 273.471
L145.153 273.475
L146.196 273.479
L147.24 273.483
L148.284 273.487
L149.327 273.491
L150.371 273.494
L151.414 273.498
L152.458 273.502
L153.502 273.506
L154.545 273.51
L155.589 273.514
L156.632 273.517
L157.676 273.521
L158.72 273.525
L159.763 273.529
L160.807 273.533
L161.851 273.537
L162.894 273.54
L163.938 273.544
L164.981 273.548
L166.025 273.552
L167.069 273.556
L168.112 273.56
L169.156 273.563
L170.199 273.567
L171.243 273.571
L172.287 273.575
L173.33 273.579
L174.374 273.583
L175.417 273.586
L176.461 273.59
L177.505 273.594
L178.548 273.598
L179.592 273.602
L180.635 273.606
L181.679 273.609
L182.723 273.613
L183.766 273.617
L184.81 273.621
L185.853 273.625
L186.897 273.629
L187.941 273.632
L188.984 273.636
L190.028 273.64
L191.072 273.644
L192.115 273.648
L193.159 273.652
L194.202 273.655
L195.246 273.659
L196.29 273.663
L197.333 273.667
L198.377 273.671
L199.42 273.675
L200.464 273.678
L201.508 273.682
L202.551 273.686
L203.595 273.69
L204.638 273.694" style="fill:none;stroke:#ff0000;stroke-dasharray:6.000000,6.000000;stroke-dashoffset:0.0;"/>
   </g>
   <g id="patch_3">
    <path d="
M74.1875 238.28
L220.293 238.28" style="fill:none;stroke:#000000;stroke-linecap:square;stroke-linejoin:miter;"/>
   </g>
   <g id="patch_4">
    <path d="
M220.293 402.44
L220.293 238.28" style="fill:none;stroke:#000000;stroke-linecap:square;stroke-linejoin:miter;"/>
   </g>
   <g id="patch_5">
    <path d="
M74.1875 402.44
L220.293 402.44" style="fill:none;stroke:#000000;stroke-linecap:square;stroke-linejoin:miter;"/>
   </g>
   <g id="patch_6">
    <path d="
M74.1875 402.44
L74.1875 238.28" style="fill:none;stroke:#000000;stroke-linecap:square;stroke-linejoin:miter;"/>
   </g>
   <g id="matplotlib.axis_1">
    <g id="xtick_1">
     <g id="line2d_3">
      <defs>
       <path d="
M0 0
L0 -4" id="m93b0483c22" style="stroke:#000000;stroke-width:0.5;"/>
      </defs>
      <g>
       <use style="stroke:#000000;stroke-width:0.5;" x="74.1874857955" xlink:href="#m93b0483c22" y="402.44"/>
      </g>
     </g>
     <g id="line2d_4">
      <defs>
       <path d="
M0 0
L0 4" id="m741efc42ff" style="stroke:#000000;stroke-width:0.5;"/>
      </defs>
      <g>
       <use style="stroke:#000000;stroke-width:0.5;" x="74.1874857955" xlink:href="#m741efc42ff" y="238.28"/>
      </g>
     </g>
     <g id="text_1">
      <!-- 0 -->
      <defs>
       <path d="
M31.7812 66.4062
Q24.1719 66.4062 20.3281 58.9062
Q16.5 51.4219 16.5 36.375
Q16.5 21.3906 20.3281 13.8906
Q24.1719 6.39062 31.7812 6.39062
Q39.4531 6.39062 43.2812 13.8906
Q47.125 21.3906 47.125 36.375
Q47.125 51.4219 43.2812 58.9062
Q39.4531 66.4062 31.7812 66.4062
M31.7812 74.2188
Q44.0469 74.2188 50.5156 64.5156
Q56.9844 54.8281 56.9844 36.375
Q56.9844 17.9688 50.5156 8.26562
Q44.0469 -1.42188 31.7812 -1.42188
Q19.5312 -1.42188 13.0625 8.26562
Q6.59375 17.9688 6.59375 36.375
Q6.59375 54.8281 13.0625 64.5156
Q19.5312 74.2188 31.7812 74.2188" id="BitstreamVeraSans-Roman-30"/>
      </defs>
      <g transform="translate(71.1640482955 415.558125)scale(0.12 -0.12)">
       <use xlink:href="#BitstreamVeraSans-Roman-30"/>
      </g>
     </g>
    </g>
    <g id="xtick_2">
     <g id="line2d_5">
      <g>
       <use style="stroke:#000000;stroke-width:0.5;" x="95.059632711" xlink:href="#m93b0483c22" y="402.44"/>
      </g>
     </g>
     <g id="line2d_6">
      <g>
       <use style="stroke:#000000;stroke-width:0.5;" x="95.059632711" xlink:href="#m741efc42ff" y="238.28"/>
      </g>
     </g>
     <g id="text_2">
      <!-- 20 -->
      <defs>
       <path d="
M19.1875 8.29688
L53.6094 8.29688
L53.6094 0
L7.32812 0
L7.32812 8.29688
Q12.9375 14.1094 22.625 23.8906
Q32.3281 33.6875 34.8125 36.5312
Q39.5469 41.8438 41.4219 45.5312
Q43.3125 49.2188 43.3125 52.7812
Q43.3125 58.5938 39.2344 62.25
Q35.1562 65.9219 28.6094 65.9219
Q23.9688 65.9219 18.8125 64.3125
Q13.6719 62.7031 7.8125 59.4219
L7.8125 69.3906
Q13.7656 71.7812 18.9375 73
Q24.125 74.2188 28.4219 74.2188
Q39.75 74.2188 46.4844 68.5469
Q53.2188 62.8906 53.2188 53.4219
Q53.2188 48.9219 51.5312 44.8906
Q49.8594 40.875 45.4062 35.4062
Q44.1875 33.9844 37.6406 27.2188
Q31.1094 20.4531 19.1875 8.29688" id="BitstreamVeraSans-Roman-32"/>
      </defs>
      <g transform="translate(88.262757711 415.558125)scale(0.12 -0.12)">
       <use xlink:href="#BitstreamVeraSans-Roman-32"/>
       <use x="63.623046875" xlink:href="#BitstreamVeraSans-Roman-30"/>
      </g>
     </g>
    </g>
    <g id="xtick_3">
     <g id="line2d_7">
      <g>
       <use style="stroke:#000000;stroke-width:0.5;" x="115.931779627" xlink:href="#m93b0483c22" y="402.44"/>
      </g>
     </g>
     <g id="line2d_8">
      <g>
       <use style="stroke:#000000;stroke-width:0.5;" x="115.931779627" xlink:href="#m741efc42ff" y="238.28"/>
      </g>
     </g>
     <g id="text_3">
      <!-- 40 -->
      <defs>
       <path d="
M37.7969 64.3125
L12.8906 25.3906
L37.7969 25.3906
z

M35.2031 72.9062
L47.6094 72.9062
L47.6094 25.3906
L58.0156 25.3906
L58.0156 17.1875
L47.6094 17.1875
L47.6094 0
L37.7969 0
L37.7969 17.1875
L4.89062 17.1875
L4.89062 26.7031
z
" id="BitstreamVeraSans-Roman-34"/>
      </defs>
      <g transform="translate(108.988654627 415.558125)scale(0.12 -0.12)">
       <use xlink:href="#BitstreamVeraSans-Roman-34"/>
       <use x="63.623046875" xlink:href="#BitstreamVeraSans-Roman-30"/>
      </g>
     </g>
    </g>
    <g id="xtick_4">
     <g id="line2d_9">
      <g>
       <use style="stroke:#000000;stroke-width:0.5;" x="136.803926542" xlink:href="#m93b0483c22" y="402.44"/>
      </g>
     </g>
     <g id="line2d_10">
      <g>
       <use style="stroke:#000000;stroke-width:0.5;" x="136.803926542" xlink:href="#m741efc42ff" y="238.28"/>
      </g>
     </g>
     <g id="text_4">
      <!-- 60 -->
      <defs>
       <path d="
M33.0156 40.375
Q26.375 40.375 22.4844 35.8281
Q18.6094 31.2969 18.6094 23.3906
Q18.6094 15.5312 22.4844 10.9531
Q26.375 6.39062 33.0156 6.39062
Q39.6562 6.39062 43.5312 10.9531
Q47.4062 15.5312 47.4062 23.3906
Q47.4062 31.2969 43.5312 35.8281
Q39.6562 40.375 33.0156 40.375
M52.5938 71.2969
L52.5938 62.3125
Q48.875 64.0625 45.0938 64.9844
Q41.3125 65.9219 37.5938 65.9219
Q27.8281 65.9219 22.6719 59.3281
Q17.5312 52.7344 16.7969 39.4062
Q19.6719 43.6562 24.0156 45.9219
Q28.375 48.1875 33.5938 48.1875
Q44.5781 48.1875 50.9531 41.5156
Q57.3281 34.8594 57.3281 23.3906
Q57.3281 12.1562 50.6875 5.35938
Q44.0469 -1.42188 33.0156 -1.42188
Q20.3594 -1.42188 13.6719 8.26562
Q6.98438 17.9688 6.98438 36.375
Q6.98438 53.6562 15.1875 63.9375
Q23.3906 74.2188 37.2031 74.2188
Q40.9219 74.2188 44.7031 73.4844
Q48.4844 72.75 52.5938 71.2969" id="BitstreamVeraSans-Roman-36"/>
      </defs>
      <g transform="translate(129.986426542 415.558125)scale(0.12 -0.12)">
       <use xlink:href="#BitstreamVeraSans-Roman-36"/>
       <use x="63.623046875" xlink:href="#BitstreamVeraSans-Roman-30"/>
      </g>
     </g>
    </g>
    <g id="xtick_5">
     <g id="line2d_11">
      <g>
       <use style="stroke:#000000;stroke-width:0.5;" x="157.676073458" xlink:href="#m93b0483c22" y="402.44"/>
      </g>
     </g>
     <g id="line2d_12">
      <g>
       <use style="stroke:#000000;stroke-width:0.5;" x="157.676073458" xlink:href="#m741efc42ff" y="238.28"/>
      </g>
     </g>
     <g id="text_5">
      <!-- 80 -->
      <defs>
       <path d="
M31.7812 34.625
Q24.75 34.625 20.7188 30.8594
Q16.7031 27.0938 16.7031 20.5156
Q16.7031 13.9219 20.7188 10.1562
Q24.75 6.39062 31.7812 6.39062
Q38.8125 6.39062 42.8594 10.1719
Q46.9219 13.9688 46.9219 20.5156
Q46.9219 27.0938 42.8906 30.8594
Q38.875 34.625 31.7812 34.625
M21.9219 38.8125
Q15.5781 40.375 12.0312 44.7188
Q8.5 49.0781 8.5 55.3281
Q8.5 64.0625 14.7188 69.1406
Q20.9531 74.2188 31.7812 74.2188
Q42.6719 74.2188 48.875 69.1406
Q55.0781 64.0625 55.0781 55.3281
Q55.0781 49.0781 51.5312 44.7188
Q48 40.375 41.7031 38.8125
Q48.8281 37.1562 52.7969 32.3125
Q56.7812 27.4844 56.7812 20.5156
Q56.7812 9.90625 50.3125 4.23438
Q43.8438 -1.42188 31.7812 -1.42188
Q19.7344 -1.42188 13.25 4.23438
Q6.78125 9.90625 6.78125 20.5156
Q6.78125 27.4844 10.7812 32.3125
Q14.7969 37.1562 21.9219 38.8125
M18.3125 54.3906
Q18.3125 48.7344 21.8438 45.5625
Q25.3906 42.3906 31.7812 42.3906
Q38.1406 42.3906 41.7188 45.5625
Q45.3125 48.7344 45.3125 54.3906
Q45.3125 60.0625 41.7188 63.2344
Q38.1406 66.4062 31.7812 66.4062
Q25.3906 66.4062 21.8438 63.2344
Q18.3125 60.0625 18.3125 54.3906" id="BitstreamVeraSans-Roman-38"/>
      </defs>
      <g transform="translate(150.846385958 415.558125)scale(0.12 -0.12)">
       <use xlink:href="#BitstreamVeraSans-Roman-38"/>
       <use x="63.623046875" xlink:href="#BitstreamVeraSans-Roman-30"/>
      </g>
     </g>
    </g>
    <g id="xtick_6">
     <g id="line2d_13">
      <g>
       <use style="stroke:#000000;stroke-width:0.5;" x="178.548220373" xlink:href="#m93b0483c22" y="402.44"/>
      </g>
     </g>
     <g id="line2d_14">
      <g>
       <use style="stroke:#000000;stroke-width:0.5;" x="178.548220373" xlink:href="#m741efc42ff" y="238.28"/>
      </g>
     </g>
     <g id="text_6">
      <!-- 100 -->
      <defs>
       <path d="
M12.4062 8.29688
L28.5156 8.29688
L28.5156 63.9219
L10.9844 60.4062
L10.9844 69.3906
L28.4219 72.9062
L38.2812 72.9062
L38.2812 8.29688
L54.3906 8.29688
L54.3906 0
L12.4062 0
z
" id="BitstreamVeraSans-Roman-31"/>
      </defs>
      <g transform="translate(168.153220373 415.558125)scale(0.12 -0.12)">
       <use xlink:href="#BitstreamVeraSans-Roman-31"/>
       <use x="63.623046875" xlink:href="#BitstreamVeraSans-Roman-30"/>
       <use x="127.24609375" xlink:href="#BitstreamVeraSans-Roman-30"/>
      </g>
     </g>
    </g>
    <g id="xtick_7">
     <g id="line2d_15">
      <g>
       <use style="stroke:#000000;stroke-width:0.5;" x="199.420367289" xlink:href="#m93b0483c22" y="402.44"/>
      </g>
     </g>
     <g id="line2d_16">
      <g>
       <use style="stroke:#000000;stroke-width:0.5;" x="199.420367289" xlink:href="#m741efc42ff" y="238.28"/>
      </g>
     </g>
     <g id="text_7">
      <!-- 120 -->
      <g transform="translate(189.025367289 415.558125)scale(0.12 -0.12)">
       <use xlink:href="#BitstreamVeraSans-Roman-31"/>
       <use x="63.623046875" xlink:href="#BitstreamVeraSans-Roman-32"/>
       <use x="127.24609375" xlink:href="#BitstreamVeraSans-Roman-30"/>
      </g>
     </g>
    </g>
    <g id="xtick_8">
     <g id="line2d_17">
      <g>
       <use style="stroke:#000000;stroke-width:0.5;" x="220.292514205" xlink:href="#m93b0483c22" y="402.44"/>
      </g>
     </g>
     <g id="line2d_18">
      <g>
       <use style="stroke:#000000;stroke-width:0.5;" x="220.292514205" xlink:href="#m741efc42ff" y="238.28"/>
      </g>
     </g>
     <g id="text_8">
      <!-- 140 -->
      <g transform="translate(209.897514205 415.558125)scale(0.12 -0.12)">
       <use xlink:href="#BitstreamVeraSans-Roman-31"/>
       <use x="63.623046875" xlink:href="#BitstreamVeraSans-Roman-34"/>
       <use x="127.24609375" xlink:href="#BitstreamVeraSans-Roman-30"/>
      </g>
     </g>
    </g>
   </g>
   <g id="matplotlib.axis_2">
    <g id="ytick_1">
     <g id="line2d_19">
      <defs>
       <path d="
M0 0
L4 0" id="m728421d6d4" style="stroke:#000000;stroke-width:0.5;"/>
      </defs>
      <g>
       <use style="stroke:#000000;stroke-width:0.5;" x="74.1874857955" xlink:href="#m728421d6d4" y="402.44"/>
      </g>
     </g>
     <g id="line2d_20">
      <defs>
       <path d="
M0 0
L-4 0" id="mcb0005524f" style="stroke:#000000;stroke-width:0.5;"/>
      </defs>
      <g>
       <use style="stroke:#000000;stroke-width:0.5;" x="220.292514205" xlink:href="#mcb0005524f" y="402.44"/>
      </g>
     </g>
     <g id="text_9">
      <!-- −3 -->
      <defs>
       <path d="
M10.5938 35.5
L73.1875 35.5
L73.1875 27.2031
L10.5938 27.2031
z
" id="BitstreamVeraSans-Roman-2212"/>
       <path d="
M40.5781 39.3125
Q47.6562 37.7969 51.625 33
Q55.6094 28.2188 55.6094 21.1875
Q55.6094 10.4062 48.1875 4.48438
Q40.7656 -1.42188 27.0938 -1.42188
Q22.5156 -1.42188 17.6562 -0.515625
Q12.7969 0.390625 7.625 2.20312
L7.625 11.7188
Q11.7188 9.32812 16.5938 8.10938
Q21.4844 6.89062 26.8125 6.89062
Q36.0781 6.89062 40.9375 10.5469
Q45.7969 14.2031 45.7969 21.1875
Q45.7969 27.6406 41.2812 31.2656
Q36.7656 34.9062 28.7188 34.9062
L20.2188 34.9062
L20.2188 43.0156
L29.1094 43.0156
Q36.375 43.0156 40.2344 45.9219
Q44.0938 48.8281 44.0938 54.2969
Q44.0938 59.9062 40.1094 62.9062
Q36.1406 65.9219 28.7188 65.9219
Q24.6562 65.9219 20.0156 65.0312
Q15.375 64.1562 9.8125 62.3125
L9.8125 71.0938
Q15.4375 72.6562 20.3438 73.4375
Q25.25 74.2188 29.5938 74.2188
Q40.8281 74.2188 47.3594 69.1094
Q53.9062 64.0156 53.9062 55.3281
Q53.9062 49.2656 50.4375 45.0938
Q46.9688 40.9219 40.5781 39.3125" id="BitstreamVeraSans-Roman-33"/>
      </defs>
      <g transform="translate(54.7299857955 405.75125)scale(0.12 -0.12)">
       <use xlink:href="#BitstreamVeraSans-Roman-2212"/>
       <use x="83.7890625" xlink:href="#BitstreamVeraSans-Roman-33"/>
      </g>
     </g>
    </g>
    <g id="ytick_2">
     <g id="line2d_21">
      <g>
       <use style="stroke:#000000;stroke-width:0.5;" x="74.1874857955" xlink:href="#m728421d6d4" y="375.08"/>
      </g>
     </g>
     <g id="line2d_22">
      <g>
       <use style="stroke:#000000;stroke-width:0.5;" x="220.292514205" xlink:href="#mcb0005524f" y="375.08"/>
      </g>
     </g>
     <g id="text_10">
      <!-- −2 -->
      <g transform="translate(54.9699857955 378.39125)scale(0.12 -0.12)">
       <use xlink:href="#BitstreamVeraSans-Roman-2212"/>
       <use x="83.7890625" xlink:href="#BitstreamVeraSans-Roman-32"/>
      </g>
     </g>
    </g>
    <g id="ytick_3">
     <g id="line2d_23">
      <g>
       <use style="stroke:#000000;stroke-width:0.5;" x="74.1874857955" xlink:href="#m728421d6d4" y="347.72"/>
      </g>
     </g>
     <g id="line2d_24">
      <g>
       <use style="stroke:#000000;stroke-width:0.5;" x="220.292514205" xlink:href="#mcb0005524f" y="347.72"/>
      </g>
     </g>
     <g id="text_11">
      <!-- −1 -->
      <g transform="translate(54.8762357955 351.03125)scale(0.12 -0.12)">
       <use xlink:href="#BitstreamVeraSans-Roman-2212"/>
       <use x="83.7890625" xlink:href="#BitstreamVeraSans-Roman-31"/>
      </g>
     </g>
    </g>
    <g id="ytick_4">
     <g id="line2d_25">
      <g>
       <use style="stroke:#000000;stroke-width:0.5;" x="74.1874857955" xlink:href="#m728421d6d4" y="320.36"/>
      </g>
     </g>
     <g id="line2d_26">
      <g>
       <use style="stroke:#000000;stroke-width:0.5;" x="220.292514205" xlink:href="#mcb0005524f" y="320.36"/>
      </g>
     </g>
     <g id="text_12">
      <!-- 0 -->
      <g transform="translate(64.1406107955 323.67125)scale(0.12 -0.12)">
       <use xlink:href="#BitstreamVeraSans-Roman-30"/>
      </g>
     </g>
    </g>
    <g id="ytick_5">
     <g id="line2d_27">
      <g>
       <use style="stroke:#000000;stroke-width:0.5;" x="74.1874857955" xlink:href="#m728421d6d4" y="293.0"/>
      </g>
     </g>
     <g id="line2d_28">
      <g>
       <use style="stroke:#000000;stroke-width:0.5;" x="220.292514205" xlink:href="#mcb0005524f" y="293.0"/>
      </g>
     </g>
     <g id="text_13">
      <!-- 1 -->
      <g transform="translate(64.9787357955 296.31125)scale(0.12 -0.12)">
       <use xlink:href="#BitstreamVeraSans-Roman-31"/>
      </g>
     </g>
    </g>
    <g id="ytick_6">
     <g id="line2d_29">
      <g>
       <use style="stroke:#000000;stroke-width:0.5;" x="74.1874857955" xlink:href="#m728421d6d4" y="265.64"/>
      </g>
     </g>
     <g id="line2d_30">
      <g>
       <use style="stroke:#000000;stroke-width:0.5;" x="220.292514205" xlink:href="#mcb0005524f" y="265.64"/>
      </g>
     </g>
     <g id="text_14">
      <!-- 2 -->
      <g transform="translate(64.6337357955 268.95125)scale(0.12 -0.12)">
       <use xlink:href="#BitstreamVeraSans-Roman-32"/>
      </g>
     </g>
    </g>
    <g id="ytick_7">
     <g id="line2d_31">
      <g>
       <use style="stroke:#000000;stroke-width:0.5;" x="74.1874857955" xlink:href="#m728421d6d4" y="238.28"/>
      </g>
     </g>
     <g id="line2d_32">
      <g>
       <use style="stroke:#000000;stroke-width:0.5;" x="220.292514205" xlink:href="#mcb0005524f" y="238.28"/>
      </g>
     </g>
     <g id="text_15">
      <!-- 3 -->
      <g transform="translate(64.4293607955 241.59125)scale(0.12 -0.12)">
       <use xlink:href="#BitstreamVeraSans-Roman-33"/>
      </g>
     </g>
    </g>
   </g>
   <g id="text_16">
    <!-- Pulse v. Pupil:r=-0.339490  -->
    <defs>
     <path id="BitstreamVeraSans-Roman-20"/>
     <path d="
M10.9844 1.51562
L10.9844 10.5
Q14.7031 8.73438 18.5 7.8125
Q22.3125 6.89062 25.9844 6.89062
Q35.75 6.89062 40.8906 13.4531
Q46.0469 20.0156 46.7812 33.4062
Q43.9531 29.2031 39.5938 26.9531
Q35.25 24.7031 29.9844 24.7031
Q19.0469 24.7031 12.6719 31.3125
Q6.29688 37.9375 6.29688 49.4219
Q6.29688 60.6406 12.9375 67.4219
Q19.5781 74.2188 30.6094 74.2188
Q43.2656 74.2188 49.9219 64.5156
Q56.5938 54.8281 56.5938 36.375
Q56.5938 19.1406 48.4062 8.85938
Q40.2344 -1.42188 26.4219 -1.42188
Q22.7031 -1.42188 18.8906 -0.6875
Q15.0938 0.046875 10.9844 1.51562
M30.6094 32.4219
Q37.25 32.4219 41.125 36.9531
Q45.0156 41.5 45.0156 49.4219
Q45.0156 57.2812 41.125 61.8438
Q37.25 66.4062 30.6094 66.4062
Q23.9688 66.4062 20.0938 61.8438
Q16.2188 57.2812 16.2188 49.4219
Q16.2188 41.5 20.0938 36.9531
Q23.9688 32.4219 30.6094 32.4219" id="BitstreamVeraSans-Roman-39"/>
     <path d="
M9.42188 75.9844
L18.4062 75.9844
L18.4062 0
L9.42188 0
z
" id="BitstreamVeraSans-Roman-6c"/>
     <path d="
M19.6719 64.7969
L19.6719 37.4062
L32.0781 37.4062
Q38.9688 37.4062 42.7188 40.9688
Q46.4844 44.5312 46.4844 51.125
Q46.4844 57.6719 42.7188 61.2344
Q38.9688 64.7969 32.0781 64.7969
z

M9.8125 72.9062
L32.0781 72.9062
Q44.3438 72.9062 50.6094 67.3594
Q56.8906 61.8125 56.8906 51.125
Q56.8906 40.3281 50.6094 34.8125
Q44.3438 29.2969 32.0781 29.2969
L19.6719 29.2969
L19.6719 0
L9.8125 0
z
" id="BitstreamVeraSans-Roman-50"/>
     <path d="
M2.98438 54.6875
L12.5 54.6875
L29.5938 8.79688
L46.6875 54.6875
L56.2031 54.6875
L35.6875 0
L23.4844 0
z
" id="BitstreamVeraSans-Roman-76"/>
     <path d="
M11.7188 12.4062
L22.0156 12.4062
L22.0156 0
L11.7188 0
z

M11.7188 51.7031
L22.0156 51.7031
L22.0156 39.3125
L11.7188 39.3125
z
" id="BitstreamVeraSans-Roman-3a"/>
     <path d="
M10.6875 12.4062
L21 12.4062
L21 0
L10.6875 0
z
" id="BitstreamVeraSans-Roman-2e"/>
     <path d="
M4.89062 31.3906
L31.2031 31.3906
L31.2031 23.3906
L4.89062 23.3906
z
" id="BitstreamVeraSans-Roman-2d"/>
     <path d="
M10.5938 45.4062
L73.1875 45.4062
L73.1875 37.2031
L10.5938 37.2031
z

M10.5938 25.4844
L73.1875 25.4844
L73.1875 17.1875
L10.5938 17.1875
z
" id="BitstreamVeraSans-Roman-3d"/>
     <path d="
M56.2031 29.5938
L56.2031 25.2031
L14.8906 25.2031
Q15.4844 15.9219 20.4844 11.0625
Q25.4844 6.20312 34.4219 6.20312
Q39.5938 6.20312 44.4531 7.46875
Q49.3125 8.73438 54.1094 11.2812
L54.1094 2.78125
Q49.2656 0.734375 44.1875 -0.34375
Q39.1094 -1.42188 33.8906 -1.42188
Q20.7969 -1.42188 13.1562 6.1875
Q5.51562 13.8125 5.51562 26.8125
Q5.51562 40.2344 12.7656 48.1094
Q20.0156 56 32.3281 56
Q43.3594 56 49.7812 48.8906
Q56.2031 41.7969 56.2031 29.5938
M47.2188 32.2344
Q47.125 39.5938 43.0938 43.9844
Q39.0625 48.3906 32.4219 48.3906
Q24.9062 48.3906 20.3906 44.1406
Q15.875 39.8906 15.1875 32.1719
z
" id="BitstreamVeraSans-Roman-65"/>
     <path d="
M9.42188 54.6875
L18.4062 54.6875
L18.4062 0
L9.42188 0
z

M9.42188 75.9844
L18.4062 75.9844
L18.4062 64.5938
L9.42188 64.5938
z
" id="BitstreamVeraSans-Roman-69"/>
     <path d="
M8.5 21.5781
L8.5 54.6875
L17.4844 54.6875
L17.4844 21.9219
Q17.4844 14.1562 20.5 10.2656
Q23.5312 6.39062 29.5938 6.39062
Q36.8594 6.39062 41.0781 11.0312
Q45.3125 15.6719 45.3125 23.6875
L45.3125 54.6875
L54.2969 54.6875
L54.2969 0
L45.3125 0
L45.3125 8.40625
Q42.0469 3.42188 37.7188 1
Q33.4062 -1.42188 27.6875 -1.42188
Q18.2656 -1.42188 13.375 4.4375
Q8.5 10.2969 8.5 21.5781" id="BitstreamVeraSans-Roman-75"/>
     <path d="
M41.1094 46.2969
Q39.5938 47.1719 37.8125 47.5781
Q36.0312 48 33.8906 48
Q26.2656 48 22.1875 43.0469
Q18.1094 38.0938 18.1094 28.8125
L18.1094 0
L9.07812 0
L9.07812 54.6875
L18.1094 54.6875
L18.1094 46.1875
Q20.9531 51.1719 25.4844 53.5781
Q30.0312 56 36.5312 56
Q37.4531 56 38.5781 55.875
Q39.7031 55.7656 41.0625 55.5156
z
" id="BitstreamVeraSans-Roman-72"/>
     <path d="
M44.2812 53.0781
L44.2812 44.5781
Q40.4844 46.5312 36.375 47.5
Q32.2812 48.4844 27.875 48.4844
Q21.1875 48.4844 17.8438 46.4375
Q14.5 44.3906 14.5 40.2812
Q14.5 37.1562 16.8906 35.375
Q19.2812 33.5938 26.5156 31.9844
L29.5938 31.2969
Q39.1562 29.25 43.1875 25.5156
Q47.2188 21.7812 47.2188 15.0938
Q47.2188 7.46875 41.1875 3.01562
Q35.1562 -1.42188 24.6094 -1.42188
Q20.2188 -1.42188 15.4531 -0.5625
Q10.6875 0.296875 5.42188 2
L5.42188 11.2812
Q10.4062 8.6875 15.2344 7.39062
Q20.0625 6.10938 24.8125 6.10938
Q31.1562 6.10938 34.5625 8.28125
Q37.9844 10.4531 37.9844 14.4062
Q37.9844 18.0625 35.5156 20.0156
Q33.0625 21.9688 24.7031 23.7812
L21.5781 24.5156
Q13.2344 26.2656 9.51562 29.9062
Q5.8125 33.5469 5.8125 39.8906
Q5.8125 47.6094 11.2812 51.7969
Q16.75 56 26.8125 56
Q31.7812 56 36.1719 55.2656
Q40.5781 54.5469 44.2812 53.0781" id="BitstreamVeraSans-Roman-73"/>
     <path d="
M18.1094 8.20312
L18.1094 -20.7969
L9.07812 -20.7969
L9.07812 54.6875
L18.1094 54.6875
L18.1094 46.3906
Q20.9531 51.2656 25.2656 53.625
Q29.5938 56 35.5938 56
Q45.5625 56 51.7812 48.0938
Q58.0156 40.1875 58.0156 27.2969
Q58.0156 14.4062 51.7812 6.48438
Q45.5625 -1.42188 35.5938 -1.42188
Q29.5938 -1.42188 25.2656 0.953125
Q20.9531 3.32812 18.1094 8.20312
M48.6875 27.2969
Q48.6875 37.2031 44.6094 42.8438
Q40.5312 48.4844 33.4062 48.4844
Q26.2656 48.4844 22.1875 42.8438
Q18.1094 37.2031 18.1094 27.2969
Q18.1094 17.3906 22.1875 11.75
Q26.2656 6.10938 33.4062 6.10938
Q40.5312 6.10938 44.6094 11.75
Q48.6875 17.3906 48.6875 27.2969" id="BitstreamVeraSans-Roman-70"/>
    </defs>
    <g transform="translate(75.2310931412 254.533470642)scale(0.12 -0.12)">
     <use xlink:href="#BitstreamVeraSans-Roman-50"/>
     <use x="58.552734375" xlink:href="#BitstreamVeraSans-Roman-75"/>
     <use x="121.931640625" xlink:href="#BitstreamVeraSans-Roman-6c"/>
     <use x="149.71484375" xlink:href="#BitstreamVeraSans-Roman-73"/>
     <use x="201.814453125" xlink:href="#BitstreamVeraSans-Roman-65"/>
     <use x="263.337890625" xlink:href="#BitstreamVeraSans-Roman-20"/>
     <use x="295.125" xlink:href="#BitstreamVeraSans-Roman-76"/>
     <use x="346.5546875" xlink:href="#BitstreamVeraSans-Roman-2e"/>
     <use x="378.341796875" xlink:href="#BitstreamVeraSans-Roman-20"/>
     <use x="410.12890625" xlink:href="#BitstreamVeraSans-Roman-50"/>
     <use x="468.681640625" xlink:href="#BitstreamVeraSans-Roman-75"/>
     <use x="532.060546875" xlink:href="#BitstreamVeraSans-Roman-70"/>
     <use x="595.537109375" xlink:href="#BitstreamVeraSans-Roman-69"/>
     <use x="623.3203125" xlink:href="#BitstreamVeraSans-Roman-6c"/>
     <use x="651.103515625" xlink:href="#BitstreamVeraSans-Roman-3a"/>
     <use x="684.794921875" xlink:href="#BitstreamVeraSans-Roman-72"/>
     <use x="725.908203125" xlink:href="#BitstreamVeraSans-Roman-3d"/>
     <use x="809.697265625" xlink:href="#BitstreamVeraSans-Roman-2d"/>
     <use x="845.78125" xlink:href="#BitstreamVeraSans-Roman-30"/>
     <use x="909.404296875" xlink:href="#BitstreamVeraSans-Roman-2e"/>
     <use x="941.19140625" xlink:href="#BitstreamVeraSans-Roman-33"/>
     <use x="1004.81445312" xlink:href="#BitstreamVeraSans-Roman-33"/>
     <use x="1068.4375" xlink:href="#BitstreamVeraSans-Roman-39"/>
     <use x="1132.06054688" xlink:href="#BitstreamVeraSans-Roman-34"/>
     <use x="1195.68359375" xlink:href="#BitstreamVeraSans-Roman-39"/>
     <use x="1259.30664062" xlink:href="#BitstreamVeraSans-Roman-30"/>
     <use x="1322.9296875" xlink:href="#BitstreamVeraSans-Roman-20"/>
    </g>
    <!--  p=0.000107 -->
    <defs>
     <path d="
M8.20312 72.9062
L55.0781 72.9062
L55.0781 68.7031
L28.6094 0
L18.3125 0
L43.2188 64.5938
L8.20312 64.5938
z
" id="BitstreamVeraSans-Roman-37"/>
    </defs>
    <g transform="translate(75.2310931412 267.970845642)scale(0.12 -0.12)">
     <use xlink:href="#BitstreamVeraSans-Roman-20"/>
     <use x="31.787109375" xlink:href="#BitstreamVeraSans-Roman-70"/>
     <use x="95.263671875" xlink:href="#BitstreamVeraSans-Roman-3d"/>
     <use x="179.052734375" xlink:href="#BitstreamVeraSans-Roman-30"/>
     <use x="242.67578125" xlink:href="#BitstreamVeraSans-Roman-2e"/>
     <use x="274.462890625" xlink:href="#BitstreamVeraSans-Roman-30"/>
     <use x="338.0859375" xlink:href="#BitstreamVeraSans-Roman-30"/>
     <use x="401.708984375" xlink:href="#BitstreamVeraSans-Roman-30"/>
     <use x="465.33203125" xlink:href="#BitstreamVeraSans-Roman-31"/>
     <use x="528.955078125" xlink:href="#BitstreamVeraSans-Roman-30"/>
     <use x="592.578125" xlink:href="#BitstreamVeraSans-Roman-37"/>
    </g>
   </g>
   <g id="text_17">
    <!-- Pupil Diameter in Stress Trials -->
    <defs>
     <path d="
M54.8906 33.0156
L54.8906 0
L45.9062 0
L45.9062 32.7188
Q45.9062 40.4844 42.875 44.3281
Q39.8438 48.1875 33.7969 48.1875
Q26.5156 48.1875 22.3125 43.5469
Q18.1094 38.9219 18.1094 30.9062
L18.1094 0
L9.07812 0
L9.07812 54.6875
L18.1094 54.6875
L18.1094 46.1875
Q21.3438 51.125 25.7031 53.5625
Q30.0781 56 35.7969 56
Q45.2188 56 50.0469 50.1719
Q54.8906 44.3438 54.8906 33.0156" id="BitstreamVeraSans-Roman-6e"/>
     <path d="
M52 44.1875
Q55.375 50.25 60.0625 53.125
Q64.75 56 71.0938 56
Q79.6406 56 84.2812 50.0156
Q88.9219 44.0469 88.9219 33.0156
L88.9219 0
L79.8906 0
L79.8906 32.7188
Q79.8906 40.5781 77.0938 44.375
Q74.3125 48.1875 68.6094 48.1875
Q61.625 48.1875 57.5625 43.5469
Q53.5156 38.9219 53.5156 30.9062
L53.5156 0
L44.4844 0
L44.4844 32.7188
Q44.4844 40.625 41.7031 44.4062
Q38.9219 48.1875 33.1094 48.1875
Q26.2188 48.1875 22.1562 43.5312
Q18.1094 38.875 18.1094 30.9062
L18.1094 0
L9.07812 0
L9.07812 54.6875
L18.1094 54.6875
L18.1094 46.1875
Q21.1875 51.2188 25.4844 53.6094
Q29.7812 56 35.6875 56
Q41.6562 56 45.8281 52.9688
Q50 49.9531 52 44.1875" id="BitstreamVeraSans-Roman-6d"/>
     <path d="
M19.6719 64.7969
L19.6719 8.10938
L31.5938 8.10938
Q46.6875 8.10938 53.6875 14.9375
Q60.6875 21.7812 60.6875 36.5312
Q60.6875 51.1719 53.6875 57.9844
Q46.6875 64.7969 31.5938 64.7969
z

M9.8125 72.9062
L30.0781 72.9062
Q51.2656 72.9062 61.1719 64.0938
Q71.0938 55.2812 71.0938 36.5312
Q71.0938 17.6719 61.125 8.82812
Q51.1719 0 30.0781 0
L9.8125 0
z
" id="BitstreamVeraSans-Roman-44"/>
     <path d="
M-0.296875 72.9062
L61.375 72.9062
L61.375 64.5938
L35.5 64.5938
L35.5 0
L25.5938 0
L25.5938 64.5938
L-0.296875 64.5938
z
" id="BitstreamVeraSans-Roman-54"/>
     <path d="
M18.3125 70.2188
L18.3125 54.6875
L36.8125 54.6875
L36.8125 47.7031
L18.3125 47.7031
L18.3125 18.0156
Q18.3125 11.3281 20.1406 9.42188
Q21.9688 7.51562 27.5938 7.51562
L36.8125 7.51562
L36.8125 0
L27.5938 0
Q17.1875 0 13.2344 3.875
Q9.28125 7.76562 9.28125 18.0156
L9.28125 47.7031
L2.6875 47.7031
L2.6875 54.6875
L9.28125 54.6875
L9.28125 70.2188
z
" id="BitstreamVeraSans-Roman-74"/>
     <path d="
M34.2812 27.4844
Q23.3906 27.4844 19.1875 25
Q14.9844 22.5156 14.9844 16.5
Q14.9844 11.7188 18.1406 8.90625
Q21.2969 6.10938 26.7031 6.10938
Q34.1875 6.10938 38.7031 11.4062
Q43.2188 16.7031 43.2188 25.4844
L43.2188 27.4844
z

M52.2031 31.2031
L52.2031 0
L43.2188 0
L43.2188 8.29688
Q40.1406 3.32812 35.5469 0.953125
Q30.9531 -1.42188 24.3125 -1.42188
Q15.9219 -1.42188 10.9531 3.29688
Q6 8.01562 6 15.9219
Q6 25.1406 12.1719 29.8281
Q18.3594 34.5156 30.6094 34.5156
L43.2188 34.5156
L43.2188 35.4062
Q43.2188 41.6094 39.1406 45
Q35.0625 48.3906 27.6875 48.3906
Q23 48.3906 18.5469 47.2656
Q14.1094 46.1406 10.0156 43.8906
L10.0156 52.2031
Q14.9375 54.1094 19.5781 55.0469
Q24.2188 56 28.6094 56
Q40.4844 56 46.3438 49.8438
Q52.2031 43.7031 52.2031 31.2031" id="BitstreamVeraSans-Roman-61"/>
     <path d="
M53.5156 70.5156
L53.5156 60.8906
Q47.9062 63.5781 42.9219 64.8906
Q37.9375 66.2188 33.2969 66.2188
Q25.25 66.2188 20.875 63.0938
Q16.5 59.9688 16.5 54.2031
Q16.5 49.3594 19.4062 46.8906
Q22.3125 44.4375 30.4219 42.9219
L36.375 41.7031
Q47.4062 39.5938 52.6562 34.2969
Q57.9062 29 57.9062 20.125
Q57.9062 9.51562 50.7969 4.04688
Q43.7031 -1.42188 29.9844 -1.42188
Q24.8125 -1.42188 18.9688 -0.25
Q13.1406 0.921875 6.89062 3.21875
L6.89062 13.375
Q12.8906 10.0156 18.6562 8.29688
Q24.4219 6.59375 29.9844 6.59375
Q38.4219 6.59375 43.0156 9.90625
Q47.6094 13.2344 47.6094 19.3906
Q47.6094 24.75 44.3125 27.7812
Q41.0156 30.8125 33.5 32.3281
L27.4844 33.5
Q16.4531 35.6875 11.5156 40.375
Q6.59375 45.0625 6.59375 53.4219
Q6.59375 63.0938 13.4062 68.6562
Q20.2188 74.2188 32.1719 74.2188
Q37.3125 74.2188 42.625 73.2812
Q47.9531 72.3594 53.5156 70.5156" id="BitstreamVeraSans-Roman-53"/>
    </defs>
    <g transform="translate(40.330125 233.28)scale(0.144 -0.144)">
     <use xlink:href="#BitstreamVeraSans-Roman-50"/>
     <use x="58.552734375" xlink:href="#BitstreamVeraSans-Roman-75"/>
     <use x="121.931640625" xlink:href="#BitstreamVeraSans-Roman-70"/>
     <use x="185.408203125" xlink:href="#BitstreamVeraSans-Roman-69"/>
     <use x="213.19140625" xlink:href="#BitstreamVeraSans-Roman-6c"/>
     <use x="240.974609375" xlink:href="#BitstreamVeraSans-Roman-20"/>
     <use x="272.76171875" xlink:href="#BitstreamVeraSans-Roman-44"/>
     <use x="349.763671875" xlink:href="#BitstreamVeraSans-Roman-69"/>
     <use x="377.546875" xlink:href="#BitstreamVeraSans-Roman-61"/>
     <use x="438.826171875" xlink:href="#BitstreamVeraSans-Roman-6d"/>
     <use x="536.23828125" xlink:href="#BitstreamVeraSans-Roman-65"/>
     <use x="597.76171875" xlink:href="#BitstreamVeraSans-Roman-74"/>
     <use x="636.970703125" xlink:href="#BitstreamVeraSans-Roman-65"/>
     <use x="698.494140625" xlink:href="#BitstreamVeraSans-Roman-72"/>
     <use x="739.607421875" xlink:href="#BitstreamVeraSans-Roman-20"/>
     <use x="771.39453125" xlink:href="#BitstreamVeraSans-Roman-69"/>
     <use x="799.177734375" xlink:href="#BitstreamVeraSans-Roman-6e"/>
     <use x="862.556640625" xlink:href="#BitstreamVeraSans-Roman-20"/>
     <use x="894.34375" xlink:href="#BitstreamVeraSans-Roman-53"/>
     <use x="957.8203125" xlink:href="#BitstreamVeraSans-Roman-74"/>
     <use x="997.029296875" xlink:href="#BitstreamVeraSans-Roman-72"/>
     <use x="1035.89257812" xlink:href="#BitstreamVeraSans-Roman-65"/>
     <use x="1097.41601562" xlink:href="#BitstreamVeraSans-Roman-73"/>
     <use x="1149.515625" xlink:href="#BitstreamVeraSans-Roman-73"/>
     <use x="1201.61523438" xlink:href="#BitstreamVeraSans-Roman-20"/>
     <use x="1233.40234375" xlink:href="#BitstreamVeraSans-Roman-54"/>
     <use x="1279.73632812" xlink:href="#BitstreamVeraSans-Roman-72"/>
     <use x="1320.84960938" xlink:href="#BitstreamVeraSans-Roman-69"/>
     <use x="1348.6328125" xlink:href="#BitstreamVeraSans-Roman-61"/>
     <use x="1409.91210938" xlink:href="#BitstreamVeraSans-Roman-6c"/>
     <use x="1437.6953125" xlink:href="#BitstreamVeraSans-Roman-73"/>
    </g>
   </g>
  </g>
  <g id="axes_2">
   <g id="patch_7">
    <path d="
M74.1875 192.92
L220.293 192.92
L220.293 28.76
L74.1875 28.76
z
" style="fill:#ffffff;"/>
   </g>
   <g id="line2d_33">
    <path clip-path="url(#p528d018644)" d="
M75.6485 68.836
L77.1096 75.0827
L78.5706 75.0091
L80.0317 75.2461
L81.4927 72.4496
L82.9538 73.246
L84.4148 71.6234
L85.8759 73.0301
L87.3369 70.0633
L88.798 71.1982
L90.259 67.7637
L91.7201 69.2279
L93.1811 72.1632
L94.6422 71.9118
L96.1032 71.2411
L97.5643 68.7068
L99.0253 72.1566
L100.486 69.5948
L101.947 66.3025
L103.408 65.7754
L104.87 71.3741
L106.331 69.8311
L107.792 68.6582
L109.253 69.6434
L110.714 70.4349
L112.175 69.5283
L113.636 68.7243
L115.097 69.115
L116.558 69.0008
L118.019 67.1628
L119.48 66.8619
L120.941 69.1528
L122.402 69.567
L123.863 69.072
L125.324 66.6229
L126.785 69.949
L128.246 68.9993
L129.707 65.7219
L131.168 69.958
L132.629 68.0856
L134.091 68.1002
L135.552 65.7544
L137.013 65.7803
L138.474 65.8449
L139.935 73.5446
L141.396 65.8727
L142.857 66.3151
L144.318 65.7657
L145.779 63.5846
L147.24 65.2639
L148.701 66.7911
L150.162 66.9005
L151.623 66.2146
L153.084 70.5703
L154.545 67.9327
L156.006 66.1261
L157.467 65.4653
L158.928 68.2771
L160.389 68.2468
L161.851 64.6421
L163.312 65.6396
L164.773 66.8142
L166.234 67.6421
L167.695 67.1226
L169.156 67.898
L170.617 64.6844
L172.078 68.2797
L173.539 68.4915
L175 68.6311
L176.461 65.8448
L177.922 65.05
L179.383 63.5191
L180.844 62.9436
L182.305 65.6942
L183.766 65.9488
L185.227 69.2609
L186.688 64.6505
L188.149 65.6792
L189.61 66.7363
L191.072 67.0663
L192.533 64.8679
L193.994 65.5096
L195.455 65.7592
L196.916 65.2033
L198.377 65.0516
L199.838 63.9995
L201.299 65.1251
L202.76 66.2896
L204.221 65.7836
L205.682 65.3807
L207.143 62.3987
L208.604 66.7461
L210.065 66.3904
L211.526 65.7253
L212.987 66.4592
L214.448 64.404
L215.909 69.8307
L217.37 66.5468
L218.831 62.8047
L220.293 63.1733" style="fill:none;stroke:#0000ff;stroke-linecap:square;"/>
   </g>
   <g id="line2d_34">
    <path clip-path="url(#p528d018644)" d="
M75.6485 71.1626
L77.1096 71.0927
L78.5706 71.0227
L80.0317 70.9528
L81.4927 70.8829
L82.9538 70.813
L84.4148 70.743
L85.8759 70.6731
L87.3369 70.6032
L88.798 70.5333
L90.259 70.4633
L91.7201 70.3934
L93.1811 70.3235
L94.6422 70.2536
L96.1032 70.1836
L97.5643 70.1137
L99.0253 70.0438
L100.486 69.9739
L101.947 69.9039
L103.408 69.834
L104.87 69.7641
L106.331 69.6942
L107.792 69.6242
L109.253 69.5543
L110.714 69.4844
L112.175 69.4145
L113.636 69.3445
L115.097 69.2746
L116.558 69.2047
L118.019 69.1348
L119.48 69.0648
L120.941 68.9949
L122.402 68.925
L123.863 68.8551
L125.324 68.7851
L126.785 68.7152
L128.246 68.6453
L129.707 68.5754
L131.168 68.5054
L132.629 68.4355
L134.091 68.3656
L135.552 68.2957
L137.013 68.2257
L138.474 68.1558
L139.935 68.0859
L141.396 68.016
L142.857 67.946
L144.318 67.8761
L145.779 67.8062
L147.24 67.7363
L148.701 67.6663
L150.162 67.5964
L151.623 67.5265
L153.084 67.4566
L154.545 67.3866
L156.006 67.3167
L157.467 67.2468
L158.928 67.1769
L160.389 67.1069
L161.851 67.037
L163.312 66.9671
L164.773 66.8972
L166.234 66.8272
L167.695 66.7573
L169.156 66.6874
L170.617 66.6175
L172.078 66.5475
L173.539 66.4776
L175 66.4077
L176.461 66.3378
L177.922 66.2678
L179.383 66.1979
L180.844 66.128
L182.305 66.0581
L183.766 65.9881
L185.227 65.9182
L186.688 65.8483
L188.149 65.7784
L189.61 65.7084
L191.072 65.6385
L192.533 65.5686
L193.994 65.4987
L195.455 65.4287
L196.916 65.3588
L198.377 65.2889
L199.838 65.219
L201.299 65.149
L202.76 65.0791
L204.221 65.0092
L205.682 64.9393
L207.143 64.8693
L208.604 64.7994
L210.065 64.7295
L211.526 64.6596
L212.987 64.5896
L214.448 64.5197
L215.909 64.4498
L217.37 64.3799
L218.831 64.3099
L220.293 64.24" style="fill:none;stroke:#0000ff;stroke-dasharray:6.000000,6.000000;stroke-dashoffset:0.0;"/>
   </g>
   <g id="patch_8">
    <path d="
M74.1875 28.76
L220.293 28.76" style="fill:none;stroke:#000000;stroke-linecap:square;stroke-linejoin:miter;"/>
   </g>
   <g id="patch_9">
    <path d="
M220.293 192.92
L220.293 28.76" style="fill:none;stroke:#000000;stroke-linecap:square;stroke-linejoin:miter;"/>
   </g>
   <g id="patch_10">
    <path d="
M74.1875 192.92
L220.293 192.92" style="fill:none;stroke:#000000;stroke-linecap:square;stroke-linejoin:miter;"/>
   </g>
   <g id="patch_11">
    <path d="
M74.1875 192.92
L74.1875 28.76" style="fill:none;stroke:#000000;stroke-linecap:square;stroke-linejoin:miter;"/>
   </g>
   <g id="matplotlib.axis_3">
    <g id="xtick_9">
     <g id="line2d_35">
      <g>
       <use style="stroke:#000000;stroke-width:0.5;" x="74.1874857955" xlink:href="#m93b0483c22" y="192.92"/>
      </g>
     </g>
     <g id="line2d_36">
      <g>
       <use style="stroke:#000000;stroke-width:0.5;" x="74.1874857955" xlink:href="#m741efc42ff" y="28.76"/>
      </g>
     </g>
     <g id="text_18">
      <!-- 0 -->
      <g transform="translate(71.1640482955 206.038125)scale(0.12 -0.12)">
       <use xlink:href="#BitstreamVeraSans-Roman-30"/>
      </g>
     </g>
    </g>
    <g id="xtick_10">
     <g id="line2d_37">
      <g>
       <use style="stroke:#000000;stroke-width:0.5;" x="103.408491477" xlink:href="#m93b0483c22" y="192.92"/>
      </g>
     </g>
     <g id="line2d_38">
      <g>
       <use style="stroke:#000000;stroke-width:0.5;" x="103.408491477" xlink:href="#m741efc42ff" y="28.76"/>
      </g>
     </g>
     <g id="text_19">
      <!-- 20 -->
      <g transform="translate(96.6116164773 206.038125)scale(0.12 -0.12)">
       <use xlink:href="#BitstreamVeraSans-Roman-32"/>
       <use x="63.623046875" xlink:href="#BitstreamVeraSans-Roman-30"/>
      </g>
     </g>
    </g>
    <g id="xtick_11">
     <g id="line2d_39">
      <g>
       <use style="stroke:#000000;stroke-width:0.5;" x="132.629497159" xlink:href="#m93b0483c22" y="192.92"/>
      </g>
     </g>
     <g id="line2d_40">
      <g>
       <use style="stroke:#000000;stroke-width:0.5;" x="132.629497159" xlink:href="#m741efc42ff" y="28.76"/>
      </g>
     </g>
     <g id="text_20">
      <!-- 40 -->
      <g transform="translate(125.686372159 206.038125)scale(0.12 -0.12)">
       <use xlink:href="#BitstreamVeraSans-Roman-34"/>
       <use x="63.623046875" xlink:href="#BitstreamVeraSans-Roman-30"/>
      </g>
     </g>
    </g>
    <g id="xtick_12">
     <g id="line2d_41">
      <g>
       <use style="stroke:#000000;stroke-width:0.5;" x="161.850502841" xlink:href="#m93b0483c22" y="192.92"/>
      </g>
     </g>
     <g id="line2d_42">
      <g>
       <use style="stroke:#000000;stroke-width:0.5;" x="161.850502841" xlink:href="#m741efc42ff" y="28.76"/>
      </g>
     </g>
     <g id="text_21">
      <!-- 60 -->
      <g transform="translate(155.033002841 206.038125)scale(0.12 -0.12)">
       <use xlink:href="#BitstreamVeraSans-Roman-36"/>
       <use x="63.623046875" xlink:href="#BitstreamVeraSans-Roman-30"/>
      </g>
     </g>
    </g>
    <g id="xtick_13">
     <g id="line2d_43">
      <g>
       <use style="stroke:#000000;stroke-width:0.5;" x="191.071508523" xlink:href="#m93b0483c22" y="192.92"/>
      </g>
     </g>
     <g id="line2d_44">
      <g>
       <use style="stroke:#000000;stroke-width:0.5;" x="191.071508523" xlink:href="#m741efc42ff" y="28.76"/>
      </g>
     </g>
     <g id="text_22">
      <!-- 80 -->
      <g transform="translate(184.241821023 206.038125)scale(0.12 -0.12)">
       <use xlink:href="#BitstreamVeraSans-Roman-38"/>
       <use x="63.623046875" xlink:href="#BitstreamVeraSans-Roman-30"/>
      </g>
     </g>
    </g>
    <g id="xtick_14">
     <g id="line2d_45">
      <g>
       <use style="stroke:#000000;stroke-width:0.5;" x="220.292514205" xlink:href="#m93b0483c22" y="192.92"/>
      </g>
     </g>
     <g id="line2d_46">
      <g>
       <use style="stroke:#000000;stroke-width:0.5;" x="220.292514205" xlink:href="#m741efc42ff" y="28.76"/>
      </g>
     </g>
     <g id="text_23">
      <!-- 100 -->
      <g transform="translate(209.897514205 206.038125)scale(0.12 -0.12)">
       <use xlink:href="#BitstreamVeraSans-Roman-31"/>
       <use x="63.623046875" xlink:href="#BitstreamVeraSans-Roman-30"/>
       <use x="127.24609375" xlink:href="#BitstreamVeraSans-Roman-30"/>
      </g>
     </g>
    </g>
   </g>
   <g id="matplotlib.axis_4">
    <g id="ytick_8">
     <g id="line2d_47">
      <g>
       <use style="stroke:#000000;stroke-width:0.5;" x="74.1874857955" xlink:href="#m728421d6d4" y="192.92"/>
      </g>
     </g>
     <g id="line2d_48">
      <g>
       <use style="stroke:#000000;stroke-width:0.5;" x="220.292514205" xlink:href="#mcb0005524f" y="192.92"/>
      </g>
     </g>
     <g id="text_24">
      <!-- −3 -->
      <g transform="translate(54.7299857955 196.23125)scale(0.12 -0.12)">
       <use xlink:href="#BitstreamVeraSans-Roman-2212"/>
       <use x="83.7890625" xlink:href="#BitstreamVeraSans-Roman-33"/>
      </g>
     </g>
    </g>
    <g id="ytick_9">
     <g id="line2d_49">
      <g>
       <use style="stroke:#000000;stroke-width:0.5;" x="74.1874857955" xlink:href="#m728421d6d4" y="165.56"/>
      </g>
     </g>
     <g id="line2d_50">
      <g>
       <use style="stroke:#000000;stroke-width:0.5;" x="220.292514205" xlink:href="#mcb0005524f" y="165.56"/>
      </g>
     </g>
     <g id="text_25">
      <!-- −2 -->
      <g transform="translate(54.9699857955 168.87125)scale(0.12 -0.12)">
       <use xlink:href="#BitstreamVeraSans-Roman-2212"/>
       <use x="83.7890625" xlink:href="#BitstreamVeraSans-Roman-32"/>
      </g>
     </g>
    </g>
    <g id="ytick_10">
     <g id="line2d_51">
      <g>
       <use style="stroke:#000000;stroke-width:0.5;" x="74.1874857955" xlink:href="#m728421d6d4" y="138.2"/>
      </g>
     </g>
     <g id="line2d_52">
      <g>
       <use style="stroke:#000000;stroke-width:0.5;" x="220.292514205" xlink:href="#mcb0005524f" y="138.2"/>
      </g>
     </g>
     <g id="text_26">
      <!-- −1 -->
      <g transform="translate(54.8762357955 141.51125)scale(0.12 -0.12)">
       <use xlink:href="#BitstreamVeraSans-Roman-2212"/>
       <use x="83.7890625" xlink:href="#BitstreamVeraSans-Roman-31"/>
      </g>
     </g>
    </g>
    <g id="ytick_11">
     <g id="line2d_53">
      <g>
       <use style="stroke:#000000;stroke-width:0.5;" x="74.1874857955" xlink:href="#m728421d6d4" y="110.84"/>
      </g>
     </g>
     <g id="line2d_54">
      <g>
       <use style="stroke:#000000;stroke-width:0.5;" x="220.292514205" xlink:href="#mcb0005524f" y="110.84"/>
      </g>
     </g>
     <g id="text_27">
      <!-- 0 -->
      <g transform="translate(64.1406107955 114.15125)scale(0.12 -0.12)">
       <use xlink:href="#BitstreamVeraSans-Roman-30"/>
      </g>
     </g>
    </g>
    <g id="ytick_12">
     <g id="line2d_55">
      <g>
       <use style="stroke:#000000;stroke-width:0.5;" x="74.1874857955" xlink:href="#m728421d6d4" y="83.48"/>
      </g>
     </g>
     <g id="line2d_56">
      <g>
       <use style="stroke:#000000;stroke-width:0.5;" x="220.292514205" xlink:href="#mcb0005524f" y="83.48"/>
      </g>
     </g>
     <g id="text_28">
      <!-- 1 -->
      <g transform="translate(64.9787357955 86.79125)scale(0.12 -0.12)">
       <use xlink:href="#BitstreamVeraSans-Roman-31"/>
      </g>
     </g>
    </g>
    <g id="ytick_13">
     <g id="line2d_57">
      <g>
       <use style="stroke:#000000;stroke-width:0.5;" x="74.1874857955" xlink:href="#m728421d6d4" y="56.12"/>
      </g>
     </g>
     <g id="line2d_58">
      <g>
       <use style="stroke:#000000;stroke-width:0.5;" x="220.292514205" xlink:href="#mcb0005524f" y="56.12"/>
      </g>
     </g>
     <g id="text_29">
      <!-- 2 -->
      <g transform="translate(64.6337357955 59.43125)scale(0.12 -0.12)">
       <use xlink:href="#BitstreamVeraSans-Roman-32"/>
      </g>
     </g>
    </g>
    <g id="ytick_14">
     <g id="line2d_59">
      <g>
       <use style="stroke:#000000;stroke-width:0.5;" x="74.1874857955" xlink:href="#m728421d6d4" y="28.76"/>
      </g>
     </g>
     <g id="line2d_60">
      <g>
       <use style="stroke:#000000;stroke-width:0.5;" x="220.292514205" xlink:href="#mcb0005524f" y="28.76"/>
      </g>
     </g>
     <g id="text_30">
      <!-- 3 -->
      <g transform="translate(64.4293607955 32.07125)scale(0.12 -0.12)">
       <use xlink:href="#BitstreamVeraSans-Roman-33"/>
      </g>
     </g>
    </g>
   </g>
   <g id="text_31">
    <!-- Pulse v. Pupil:r=-0.004681  -->
    <g transform="translate(75.6485360795 48.961358387)scale(0.12 -0.12)">
     <use xlink:href="#BitstreamVeraSans-Roman-50"/>
     <use x="58.552734375" xlink:href="#BitstreamVeraSans-Roman-75"/>
     <use x="121.931640625" xlink:href="#BitstreamVeraSans-Roman-6c"/>
     <use x="149.71484375" xlink:href="#BitstreamVeraSans-Roman-73"/>
     <use x="201.814453125" xlink:href="#BitstreamVeraSans-Roman-65"/>
     <use x="263.337890625" xlink:href="#BitstreamVeraSans-Roman-20"/>
     <use x="295.125" xlink:href="#BitstreamVeraSans-Roman-76"/>
     <use x="346.5546875" xlink:href="#BitstreamVeraSans-Roman-2e"/>
     <use x="378.341796875" xlink:href="#BitstreamVeraSans-Roman-20"/>
     <use x="410.12890625" xlink:href="#BitstreamVeraSans-Roman-50"/>
     <use x="468.681640625" xlink:href="#BitstreamVeraSans-Roman-75"/>
     <use x="532.060546875" xlink:href="#BitstreamVeraSans-Roman-70"/>
     <use x="595.537109375" xlink:href="#BitstreamVeraSans-Roman-69"/>
     <use x="623.3203125" xlink:href="#BitstreamVeraSans-Roman-6c"/>
     <use x="651.103515625" xlink:href="#BitstreamVeraSans-Roman-3a"/>
     <use x="684.794921875" xlink:href="#BitstreamVeraSans-Roman-72"/>
     <use x="725.908203125" xlink:href="#BitstreamVeraSans-Roman-3d"/>
     <use x="809.697265625" xlink:href="#BitstreamVeraSans-Roman-2d"/>
     <use x="845.78125" xlink:href="#BitstreamVeraSans-Roman-30"/>
     <use x="909.404296875" xlink:href="#BitstreamVeraSans-Roman-2e"/>
     <use x="941.19140625" xlink:href="#BitstreamVeraSans-Roman-30"/>
     <use x="1004.81445312" xlink:href="#BitstreamVeraSans-Roman-30"/>
     <use x="1068.4375" xlink:href="#BitstreamVeraSans-Roman-34"/>
     <use x="1132.06054688" xlink:href="#BitstreamVeraSans-Roman-36"/>
     <use x="1195.68359375" xlink:href="#BitstreamVeraSans-Roman-38"/>
     <use x="1259.30664062" xlink:href="#BitstreamVeraSans-Roman-31"/>
     <use x="1322.9296875" xlink:href="#BitstreamVeraSans-Roman-20"/>
    </g>
    <!--  p=0.963135 -->
    <defs>
     <path d="
M10.7969 72.9062
L49.5156 72.9062
L49.5156 64.5938
L19.8281 64.5938
L19.8281 46.7344
Q21.9688 47.4688 24.1094 47.8281
Q26.2656 48.1875 28.4219 48.1875
Q40.625 48.1875 47.75 41.5
Q54.8906 34.8125 54.8906 23.3906
Q54.8906 11.625 47.5625 5.09375
Q40.2344 -1.42188 26.9062 -1.42188
Q22.3125 -1.42188 17.5469 -0.640625
Q12.7969 0.140625 7.71875 1.70312
L7.71875 11.625
Q12.1094 9.23438 16.7969 8.0625
Q21.4844 6.89062 26.7031 6.89062
Q35.1562 6.89062 40.0781 11.3281
Q45.0156 15.7656 45.0156 23.3906
Q45.0156 31 40.0781 35.4375
Q35.1562 39.8906 26.7031 39.8906
Q22.75 39.8906 18.8125 39.0156
Q14.8906 38.1406 10.7969 36.2812
z
" id="BitstreamVeraSans-Roman-35"/>
    </defs>
    <g transform="translate(75.6485360795 62.398733387)scale(0.12 -0.12)">
     <use xlink:href="#BitstreamVeraSans-Roman-20"/>
     <use x="31.787109375" xlink:href="#BitstreamVeraSans-Roman-70"/>
     <use x="95.263671875" xlink:href="#BitstreamVeraSans-Roman-3d"/>
     <use x="179.052734375" xlink:href="#BitstreamVeraSans-Roman-30"/>
     <use x="242.67578125" xlink:href="#BitstreamVeraSans-Roman-2e"/>
     <use x="274.462890625" xlink:href="#BitstreamVeraSans-Roman-39"/>
     <use x="338.0859375" xlink:href="#BitstreamVeraSans-Roman-36"/>
     <use x="401.708984375" xlink:href="#BitstreamVeraSans-Roman-33"/>
     <use x="465.33203125" xlink:href="#BitstreamVeraSans-Roman-31"/>
     <use x="528.955078125" xlink:href="#BitstreamVeraSans-Roman-33"/>
     <use x="592.578125" xlink:href="#BitstreamVeraSans-Roman-35"/>
    </g>
   </g>
   <g id="text_32">
    <!-- Pupil Diameter in Regular Trials before Stress -->
    <defs>
     <path d="
M44.3906 34.1875
Q47.5625 33.1094 50.5625 29.5938
Q53.5625 26.0781 56.5938 19.9219
L66.6094 0
L56 0
L46.6875 18.7031
Q43.0625 26.0312 39.6719 28.4219
Q36.2812 30.8125 30.4219 30.8125
L19.6719 30.8125
L19.6719 0
L9.8125 0
L9.8125 72.9062
L32.0781 72.9062
Q44.5781 72.9062 50.7344 67.6719
Q56.8906 62.4531 56.8906 51.9062
Q56.8906 45.0156 53.6875 40.4688
Q50.4844 35.9375 44.3906 34.1875
M19.6719 64.7969
L19.6719 38.9219
L32.0781 38.9219
Q39.2031 38.9219 42.8438 42.2188
Q46.4844 45.5156 46.4844 51.9062
Q46.4844 58.2969 42.8438 61.5469
Q39.2031 64.7969 32.0781 64.7969
z
" id="BitstreamVeraSans-Roman-52"/>
     <path d="
M37.1094 75.9844
L37.1094 68.5
L28.5156 68.5
Q23.6875 68.5 21.7969 66.5469
Q19.9219 64.5938 19.9219 59.5156
L19.9219 54.6875
L34.7188 54.6875
L34.7188 47.7031
L19.9219 47.7031
L19.9219 0
L10.8906 0
L10.8906 47.7031
L2.29688 47.7031
L2.29688 54.6875
L10.8906 54.6875
L10.8906 58.5
Q10.8906 67.625 15.1406 71.7969
Q19.3906 75.9844 28.6094 75.9844
z
" id="BitstreamVeraSans-Roman-66"/>
     <path d="
M45.4062 27.9844
Q45.4062 37.75 41.375 43.1094
Q37.3594 48.4844 30.0781 48.4844
Q22.8594 48.4844 18.8281 43.1094
Q14.7969 37.75 14.7969 27.9844
Q14.7969 18.2656 18.8281 12.8906
Q22.8594 7.51562 30.0781 7.51562
Q37.3594 7.51562 41.375 12.8906
Q45.4062 18.2656 45.4062 27.9844
M54.3906 6.78125
Q54.3906 -7.17188 48.1875 -13.9844
Q42 -20.7969 29.2031 -20.7969
Q24.4688 -20.7969 20.2656 -20.0938
Q16.0625 -19.3906 12.1094 -17.9219
L12.1094 -9.1875
Q16.0625 -11.3281 19.9219 -12.3438
Q23.7812 -13.375 27.7812 -13.375
Q36.625 -13.375 41.0156 -8.76562
Q45.4062 -4.15625 45.4062 5.17188
L45.4062 9.625
Q42.625 4.78125 38.2812 2.39062
Q33.9375 0 27.875 0
Q17.8281 0 11.6719 7.65625
Q5.51562 15.3281 5.51562 27.9844
Q5.51562 40.6719 11.6719 48.3281
Q17.8281 56 27.875 56
Q33.9375 56 38.2812 53.6094
Q42.625 51.2188 45.4062 46.3906
L45.4062 54.6875
L54.3906 54.6875
z
" id="BitstreamVeraSans-Roman-67"/>
     <path d="
M30.6094 48.3906
Q23.3906 48.3906 19.1875 42.75
Q14.9844 37.1094 14.9844 27.2969
Q14.9844 17.4844 19.1562 11.8438
Q23.3438 6.20312 30.6094 6.20312
Q37.7969 6.20312 41.9844 11.8594
Q46.1875 17.5312 46.1875 27.2969
Q46.1875 37.0156 41.9844 42.7031
Q37.7969 48.3906 30.6094 48.3906
M30.6094 56
Q42.3281 56 49.0156 48.375
Q55.7188 40.7656 55.7188 27.2969
Q55.7188 13.875 49.0156 6.21875
Q42.3281 -1.42188 30.6094 -1.42188
Q18.8438 -1.42188 12.1719 6.21875
Q5.51562 13.875 5.51562 27.2969
Q5.51562 40.7656 12.1719 48.375
Q18.8438 56 30.6094 56" id="BitstreamVeraSans-Roman-6f"/>
     <path d="
M48.6875 27.2969
Q48.6875 37.2031 44.6094 42.8438
Q40.5312 48.4844 33.4062 48.4844
Q26.2656 48.4844 22.1875 42.8438
Q18.1094 37.2031 18.1094 27.2969
Q18.1094 17.3906 22.1875 11.75
Q26.2656 6.10938 33.4062 6.10938
Q40.5312 6.10938 44.6094 11.75
Q48.6875 17.3906 48.6875 27.2969
M18.1094 46.3906
Q20.9531 51.2656 25.2656 53.625
Q29.5938 56 35.5938 56
Q45.5625 56 51.7812 48.0938
Q58.0156 40.1875 58.0156 27.2969
Q58.0156 14.4062 51.7812 6.48438
Q45.5625 -1.42188 35.5938 -1.42188
Q29.5938 -1.42188 25.2656 0.953125
Q20.9531 3.32812 18.1094 8.20312
L18.1094 0
L9.07812 0
L9.07812 75.9844
L18.1094 75.9844
z
" id="BitstreamVeraSans-Roman-62"/>
    </defs>
    <g transform="translate(-15.031125 23.76)scale(0.144 -0.144)">
     <use xlink:href="#BitstreamVeraSans-Roman-50"/>
     <use x="58.552734375" xlink:href="#BitstreamVeraSans-Roman-75"/>
     <use x="121.931640625" xlink:href="#BitstreamVeraSans-Roman-70"/>
     <use x="185.408203125" xlink:href="#BitstreamVeraSans-Roman-69"/>
     <use x="213.19140625" xlink:href="#BitstreamVeraSans-Roman-6c"/>
     <use x="240.974609375" xlink:href="#BitstreamVeraSans-Roman-20"/>
     <use x="272.76171875" xlink:href="#BitstreamVeraSans-Roman-44"/>
     <use x="349.763671875" xlink:href="#BitstreamVeraSans-Roman-69"/>
     <use x="377.546875" xlink:href="#BitstreamVeraSans-Roman-61"/>
     <use x="438.826171875" xlink:href="#BitstreamVeraSans-Roman-6d"/>
     <use x="536.23828125" xlink:href="#BitstreamVeraSans-Roman-65"/>
     <use x="597.76171875" xlink:href="#BitstreamVeraSans-Roman-74"/>
     <use x="636.970703125" xlink:href="#BitstreamVeraSans-Roman-65"/>
     <use x="698.494140625" xlink:href="#BitstreamVeraSans-Roman-72"/>
     <use x="739.607421875" xlink:href="#BitstreamVeraSans-Roman-20"/>
     <use x="771.39453125" xlink:href="#BitstreamVeraSans-Roman-69"/>
     <use x="799.177734375" xlink:href="#BitstreamVeraSans-Roman-6e"/>
     <use x="862.556640625" xlink:href="#BitstreamVeraSans-Roman-20"/>
     <use x="894.34375" xlink:href="#BitstreamVeraSans-Roman-52"/>
     <use x="959.326171875" xlink:href="#BitstreamVeraSans-Roman-65"/>
     <use x="1020.84960938" xlink:href="#BitstreamVeraSans-Roman-67"/>
     <use x="1084.32617188" xlink:href="#BitstreamVeraSans-Roman-75"/>
     <use x="1147.70507812" xlink:href="#BitstreamVeraSans-Roman-6c"/>
     <use x="1175.48828125" xlink:href="#BitstreamVeraSans-Roman-61"/>
     <use x="1236.76757812" xlink:href="#BitstreamVeraSans-Roman-72"/>
     <use x="1277.88085938" xlink:href="#BitstreamVeraSans-Roman-20"/>
     <use x="1309.66796875" xlink:href="#BitstreamVeraSans-Roman-54"/>
     <use x="1356.00195312" xlink:href="#BitstreamVeraSans-Roman-72"/>
     <use x="1397.11523438" xlink:href="#BitstreamVeraSans-Roman-69"/>
     <use x="1424.8984375" xlink:href="#BitstreamVeraSans-Roman-61"/>
     <use x="1486.17773438" xlink:href="#BitstreamVeraSans-Roman-6c"/>
     <use x="1513.9609375" xlink:href="#BitstreamVeraSans-Roman-73"/>
     <use x="1566.06054688" xlink:href="#BitstreamVeraSans-Roman-20"/>
     <use x="1597.84765625" xlink:href="#BitstreamVeraSans-Roman-62"/>
     <use x="1661.32421875" xlink:href="#BitstreamVeraSans-Roman-65"/>
     <use x="1722.84765625" xlink:href="#BitstreamVeraSans-Roman-66"/>
     <use x="1758.05273438" xlink:href="#BitstreamVeraSans-Roman-6f"/>
     <use x="1819.234375" xlink:href="#BitstreamVeraSans-Roman-72"/>
     <use x="1858.09765625" xlink:href="#BitstreamVeraSans-Roman-65"/>
     <use x="1919.62109375" xlink:href="#BitstreamVeraSans-Roman-20"/>
     <use x="1951.40820312" xlink:href="#BitstreamVeraSans-Roman-53"/>
     <use x="2014.88476562" xlink:href="#BitstreamVeraSans-Roman-74"/>
     <use x="2054.09375" xlink:href="#BitstreamVeraSans-Roman-72"/>
     <use x="2092.95703125" xlink:href="#BitstreamVeraSans-Roman-65"/>
     <use x="2154.48046875" xlink:href="#BitstreamVeraSans-Roman-73"/>
     <use x="2206.58007812" xlink:href="#BitstreamVeraSans-Roman-73"/>
    </g>
   </g>
  </g>
  <g id="axes_3">
   <g id="patch_12">
    <path d="
M355.707 402.44
L501.813 402.44
L501.813 238.28
L355.707 238.28
z
" style="fill:#ffffff;"/>
   </g>
   <g id="line2d_61">
    <path clip-path="url(#p1cbca1c66b)" d="
M356.292 343.423
L356.876 306.337
L357.461 273.284
L358.045 350.034
L358.63 304.723
L359.214 320.36
L359.798 327.001
L360.383 263.3
L360.967 327.421
L361.552 262.935
L362.136 323.68
L362.721 305.175
L363.305 281.369
L363.889 272.806
L364.474 308.328
L365.058 275.681
L365.643 352.281
L366.227 272.137
L366.811 361.921
L367.396 341.541
L367.98 283.402
L368.565 332.118
L369.149 286.011
L369.734 322.669
L370.318 258.726
L370.902 347.432
L371.487 248.197
L372.071 277.593
L372.656 260.237
L373.24 334.82
L373.825 290.39
L374.409 285.145
L374.993 327.345
L375.578 295.143
L376.162 292.615
L376.747 290.673
L377.331 285.758
L377.915 332.1
L379.084 273.132
L379.669 274.579
L380.253 280.302
L380.838 292.77
L381.422 299.057
L382.006 368.021
L382.591 303.089
L383.175 265.047
L383.76 303.005
L384.344 298.735
L384.928 289.712
L385.513 344.986
L386.097 261.949
L386.682 320.998
L387.266 260.881
L387.851 306.94
L388.435 343.534
L389.019 265.095
L389.604 362.694
L390.188 250.343
L390.773 331.729
L391.357 230.383
L392.526 343.458
L393.11 306.393
L393.695 228.059
L394.279 297.294
L394.864 284.799
L395.448 334.491
L396.032 257.761
L396.617 298.615
L397.201 316.467
L397.786 326.039
L398.37 271.53
L398.955 264.29
L399.539 317.204
L400.123 260.332
L400.708 337.571
L401.292 262.485
L401.877 376.076
L402.461 259.542
L403.046 312.913
L403.63 285.944
L404.214 281.423
L404.799 273.149
L405.383 343.781
L405.968 260.621
L406.552 305.774
L407.136 320.804
L407.721 254.316
L408.305 352.129
L408.89 280.837
L409.474 284.345
L410.059 310.087
L410.643 308.195
L411.227 260.737
L411.812 331.597
L412.396 262.567
L412.981 344.92
L413.565 295.333
L414.149 269.233
L414.734 319.912
L415.318 268.892
L415.903 360.519
L416.487 240.691
L417.072 283.721
L417.656 281.525
L418.24 298.807
L418.825 276.613
L419.409 325.544
L419.994 276.435
L420.578 297.897
L421.163 303.831
L421.747 330.306
L422.331 237.22
L422.916 296.919
L423.5 313.572
L424.085 343.177
L424.669 297.984
L425.253 285.342
L425.838 292.677
L426.422 265.691
L427.591 306.727
L428.176 319.747
L428.76 281.232
L429.344 360.069
L429.929 358.695
L430.513 281.578
L431.098 241.658
L431.682 337.893
L432.267 264.138
L432.851 358.403
L433.435 289.635
L434.02 294.702
L434.604 325.081
L435.189 289.15
L435.773 311.174
L436.357 265.04
L436.942 305.429
L437.526 322.068
L438.111 257.528
L438.695 279.301
L439.28 308.976
L439.864 308.927
L440.448 320.36
L441.033 299.249
L441.617 288.444
L442.202 334.714
L442.786 263.406
L443.371 284.286
L443.955 336.737
L444.539 263.637
L445.124 301.408
L445.708 400.169
L446.293 309.173
L446.877 270.267
L447.461 262.279
L448.046 328.413
L448.63 275.319
L449.215 292.352
L449.799 361.954
L450.384 271.359
L450.968 328.639
L451.552 298.991
L452.137 296.759
L453.306 271.462
L453.89 332.933
L454.474 277.214
L455.059 329.992
L455.643 280.889
L456.228 275.301
L456.812 273.162
L457.397 317.926
L457.981 280.663
L458.565 356.142
L459.15 272.107
L459.734 362.888
L460.319 285.844
L460.903 312.432
L461.488 271.701
L462.656 299.769
L463.241 318.974
L463.825 240.899
L464.41 353.211
L464.994 256.758
L465.578 267.723
L466.163 345.064
L466.747 264.541
L467.332 340.851
L468.501 272.456
L469.085 279.412
L469.669 288.651
L470.254 267.421
L470.838 272.883
L471.423 264.47
L472.007 334.833
L472.592 343.922
L473.176 304.119
L473.76 281.388
L474.345 319.975
L474.929 284.063
L475.514 338.096
L476.098 279.563
L476.682 293.999
L477.267 282.728
L477.851 304.139
L478.436 258.697
L479.02 290.305
L479.605 279.831
L480.189 285.303
L480.773 362.179
L481.358 308.76
L481.942 277.983
L482.527 343.072
L483.111 273.197
L483.695 341.402
L484.28 349.307
L484.864 298.447
L485.449 301.027
L486.033 294.454
L486.618 302.576
L487.202 268.451
L487.786 283.489
L487.786 283.489" style="fill:none;stroke:#ff0000;stroke-linecap:square;"/>
   </g>
   <g id="line2d_62">
    <path clip-path="url(#p1cbca1c66b)" d="
M356.292 300.185
L487.786 298.453
L487.786 298.453" style="fill:none;stroke:#ff0000;stroke-dasharray:6.000000,6.000000;stroke-dashoffset:0.0;"/>
   </g>
   <g id="patch_13">
    <path d="
M355.707 238.28
L501.813 238.28" style="fill:none;stroke:#000000;stroke-linecap:square;stroke-linejoin:miter;"/>
   </g>
   <g id="patch_14">
    <path d="
M501.813 402.44
L501.813 238.28" style="fill:none;stroke:#000000;stroke-linecap:square;stroke-linejoin:miter;"/>
   </g>
   <g id="patch_15">
    <path d="
M355.707 402.44
L501.813 402.44" style="fill:none;stroke:#000000;stroke-linecap:square;stroke-linejoin:miter;"/>
   </g>
   <g id="patch_16">
    <path d="
M355.707 402.44
L355.707 238.28" style="fill:none;stroke:#000000;stroke-linecap:square;stroke-linejoin:miter;"/>
   </g>
   <g id="matplotlib.axis_5">
    <g id="xtick_15">
     <g id="line2d_63">
      <g>
       <use style="stroke:#000000;stroke-width:0.5;" x="355.707485795" xlink:href="#m93b0483c22" y="402.44"/>
      </g>
     </g>
     <g id="line2d_64">
      <g>
       <use style="stroke:#000000;stroke-width:0.5;" x="355.707485795" xlink:href="#m741efc42ff" y="238.28"/>
      </g>
     </g>
     <g id="text_33">
      <!-- 0 -->
      <g transform="translate(352.684048295 415.558125)scale(0.12 -0.12)">
       <use xlink:href="#BitstreamVeraSans-Roman-30"/>
      </g>
     </g>
    </g>
    <g id="xtick_16">
     <g id="line2d_65">
      <g>
       <use style="stroke:#000000;stroke-width:0.5;" x="384.928491477" xlink:href="#m93b0483c22" y="402.44"/>
      </g>
     </g>
     <g id="line2d_66">
      <g>
       <use style="stroke:#000000;stroke-width:0.5;" x="384.928491477" xlink:href="#m741efc42ff" y="238.28"/>
      </g>
     </g>
     <g id="text_34">
      <!-- 50 -->
      <g transform="translate(378.155053977 415.558125)scale(0.12 -0.12)">
       <use xlink:href="#BitstreamVeraSans-Roman-35"/>
       <use x="63.623046875" xlink:href="#BitstreamVeraSans-Roman-30"/>
      </g>
     </g>
    </g>
    <g id="xtick_17">
     <g id="line2d_67">
      <g>
       <use style="stroke:#000000;stroke-width:0.5;" x="414.149497159" xlink:href="#m93b0483c22" y="402.44"/>
      </g>
     </g>
     <g id="line2d_68">
      <g>
       <use style="stroke:#000000;stroke-width:0.5;" x="414.149497159" xlink:href="#m741efc42ff" y="238.28"/>
      </g>
     </g>
     <g id="text_35">
      <!-- 100 -->
      <g transform="translate(403.754497159 415.558125)scale(0.12 -0.12)">
       <use xlink:href="#BitstreamVeraSans-Roman-31"/>
       <use x="63.623046875" xlink:href="#BitstreamVeraSans-Roman-30"/>
       <use x="127.24609375" xlink:href="#BitstreamVeraSans-Roman-30"/>
      </g>
     </g>
    </g>
    <g id="xtick_18">
     <g id="line2d_69">
      <g>
       <use style="stroke:#000000;stroke-width:0.5;" x="443.370502841" xlink:href="#m93b0483c22" y="402.44"/>
      </g>
     </g>
     <g id="line2d_70">
      <g>
       <use style="stroke:#000000;stroke-width:0.5;" x="443.370502841" xlink:href="#m741efc42ff" y="238.28"/>
      </g>
     </g>
     <g id="text_36">
      <!-- 150 -->
      <g transform="translate(432.975502841 415.558125)scale(0.12 -0.12)">
       <use xlink:href="#BitstreamVeraSans-Roman-31"/>
       <use x="63.623046875" xlink:href="#BitstreamVeraSans-Roman-35"/>
       <use x="127.24609375" xlink:href="#BitstreamVeraSans-Roman-30"/>
      </g>
     </g>
    </g>
    <g id="xtick_19">
     <g id="line2d_71">
      <g>
       <use style="stroke:#000000;stroke-width:0.5;" x="472.591508523" xlink:href="#m93b0483c22" y="402.44"/>
      </g>
     </g>
     <g id="line2d_72">
      <g>
       <use style="stroke:#000000;stroke-width:0.5;" x="472.591508523" xlink:href="#m741efc42ff" y="238.28"/>
      </g>
     </g>
     <g id="text_37">
      <!-- 200 -->
      <g transform="translate(461.977133523 415.558125)scale(0.12 -0.12)">
       <use xlink:href="#BitstreamVeraSans-Roman-32"/>
       <use x="63.623046875" xlink:href="#BitstreamVeraSans-Roman-30"/>
       <use x="127.24609375" xlink:href="#BitstreamVeraSans-Roman-30"/>
      </g>
     </g>
    </g>
    <g id="xtick_20">
     <g id="line2d_73">
      <g>
       <use style="stroke:#000000;stroke-width:0.5;" x="501.812514205" xlink:href="#m93b0483c22" y="402.44"/>
      </g>
     </g>
     <g id="line2d_74">
      <g>
       <use style="stroke:#000000;stroke-width:0.5;" x="501.812514205" xlink:href="#m741efc42ff" y="238.28"/>
      </g>
     </g>
     <g id="text_38">
      <!-- 250 -->
      <g transform="translate(491.198139205 415.558125)scale(0.12 -0.12)">
       <use xlink:href="#BitstreamVeraSans-Roman-32"/>
       <use x="63.623046875" xlink:href="#BitstreamVeraSans-Roman-35"/>
       <use x="127.24609375" xlink:href="#BitstreamVeraSans-Roman-30"/>
      </g>
     </g>
    </g>
   </g>
   <g id="matplotlib.axis_6">
    <g id="ytick_15">
     <g id="line2d_75">
      <g>
       <use style="stroke:#000000;stroke-width:0.5;" x="355.707485795" xlink:href="#m728421d6d4" y="402.44"/>
      </g>
     </g>
     <g id="line2d_76">
      <g>
       <use style="stroke:#000000;stroke-width:0.5;" x="501.812514205" xlink:href="#mcb0005524f" y="402.44"/>
      </g>
     </g>
     <g id="text_39">
      <!-- −3 -->
      <g transform="translate(336.249985795 405.75125)scale(0.12 -0.12)">
       <use xlink:href="#BitstreamVeraSans-Roman-2212"/>
       <use x="83.7890625" xlink:href="#BitstreamVeraSans-Roman-33"/>
      </g>
     </g>
    </g>
    <g id="ytick_16">
     <g id="line2d_77">
      <g>
       <use style="stroke:#000000;stroke-width:0.5;" x="355.707485795" xlink:href="#m728421d6d4" y="375.08"/>
      </g>
     </g>
     <g id="line2d_78">
      <g>
       <use style="stroke:#000000;stroke-width:0.5;" x="501.812514205" xlink:href="#mcb0005524f" y="375.08"/>
      </g>
     </g>
     <g id="text_40">
      <!-- −2 -->
      <g transform="translate(336.489985795 378.39125)scale(0.12 -0.12)">
       <use xlink:href="#BitstreamVeraSans-Roman-2212"/>
       <use x="83.7890625" xlink:href="#BitstreamVeraSans-Roman-32"/>
      </g>
     </g>
    </g>
    <g id="ytick_17">
     <g id="line2d_79">
      <g>
       <use style="stroke:#000000;stroke-width:0.5;" x="355.707485795" xlink:href="#m728421d6d4" y="347.72"/>
      </g>
     </g>
     <g id="line2d_80">
      <g>
       <use style="stroke:#000000;stroke-width:0.5;" x="501.812514205" xlink:href="#mcb0005524f" y="347.72"/>
      </g>
     </g>
     <g id="text_41">
      <!-- −1 -->
      <g transform="translate(336.396235795 351.03125)scale(0.12 -0.12)">
       <use xlink:href="#BitstreamVeraSans-Roman-2212"/>
       <use x="83.7890625" xlink:href="#BitstreamVeraSans-Roman-31"/>
      </g>
     </g>
    </g>
    <g id="ytick_18">
     <g id="line2d_81">
      <g>
       <use style="stroke:#000000;stroke-width:0.5;" x="355.707485795" xlink:href="#m728421d6d4" y="320.36"/>
      </g>
     </g>
     <g id="line2d_82">
      <g>
       <use style="stroke:#000000;stroke-width:0.5;" x="501.812514205" xlink:href="#mcb0005524f" y="320.36"/>
      </g>
     </g>
     <g id="text_42">
      <!-- 0 -->
      <g transform="translate(345.660610795 323.67125)scale(0.12 -0.12)">
       <use xlink:href="#BitstreamVeraSans-Roman-30"/>
      </g>
     </g>
    </g>
    <g id="ytick_19">
     <g id="line2d_83">
      <g>
       <use style="stroke:#000000;stroke-width:0.5;" x="355.707485795" xlink:href="#m728421d6d4" y="293.0"/>
      </g>
     </g>
     <g id="line2d_84">
      <g>
       <use style="stroke:#000000;stroke-width:0.5;" x="501.812514205" xlink:href="#mcb0005524f" y="293.0"/>
      </g>
     </g>
     <g id="text_43">
      <!-- 1 -->
      <g transform="translate(346.498735795 296.31125)scale(0.12 -0.12)">
       <use xlink:href="#BitstreamVeraSans-Roman-31"/>
      </g>
     </g>
    </g>
    <g id="ytick_20">
     <g id="line2d_85">
      <g>
       <use style="stroke:#000000;stroke-width:0.5;" x="355.707485795" xlink:href="#m728421d6d4" y="265.64"/>
      </g>
     </g>
     <g id="line2d_86">
      <g>
       <use style="stroke:#000000;stroke-width:0.5;" x="501.812514205" xlink:href="#mcb0005524f" y="265.64"/>
      </g>
     </g>
     <g id="text_44">
      <!-- 2 -->
      <g transform="translate(346.153735795 268.95125)scale(0.12 -0.12)">
       <use xlink:href="#BitstreamVeraSans-Roman-32"/>
      </g>
     </g>
    </g>
    <g id="ytick_21">
     <g id="line2d_87">
      <g>
       <use style="stroke:#000000;stroke-width:0.5;" x="355.707485795" xlink:href="#m728421d6d4" y="238.28"/>
      </g>
     </g>
     <g id="line2d_88">
      <g>
       <use style="stroke:#000000;stroke-width:0.5;" x="501.812514205" xlink:href="#mcb0005524f" y="238.28"/>
      </g>
     </g>
     <g id="text_45">
      <!-- 3 -->
      <g transform="translate(345.949360795 241.59125)scale(0.12 -0.12)">
       <use xlink:href="#BitstreamVeraSans-Roman-33"/>
      </g>
     </g>
    </g>
   </g>
   <g id="text_46">
    <!-- Pupil Diameter in Stress Trials -->
    <g transform="translate(321.850125 233.28)scale(0.144 -0.144)">
     <use xlink:href="#BitstreamVeraSans-Roman-50"/>
     <use x="58.552734375" xlink:href="#BitstreamVeraSans-Roman-75"/>
     <use x="121.931640625" xlink:href="#BitstreamVeraSans-Roman-70"/>
     <use x="185.408203125" xlink:href="#BitstreamVeraSans-Roman-69"/>
     <use x="213.19140625" xlink:href="#BitstreamVeraSans-Roman-6c"/>
     <use x="240.974609375" xlink:href="#BitstreamVeraSans-Roman-20"/>
     <use x="272.76171875" xlink:href="#BitstreamVeraSans-Roman-44"/>
     <use x="349.763671875" xlink:href="#BitstreamVeraSans-Roman-69"/>
     <use x="377.546875" xlink:href="#BitstreamVeraSans-Roman-61"/>
     <use x="438.826171875" xlink:href="#BitstreamVeraSans-Roman-6d"/>
     <use x="536.23828125" xlink:href="#BitstreamVeraSans-Roman-65"/>
     <use x="597.76171875" xlink:href="#BitstreamVeraSans-Roman-74"/>
     <use x="636.970703125" xlink:href="#BitstreamVeraSans-Roman-65"/>
     <use x="698.494140625" xlink:href="#BitstreamVeraSans-Roman-72"/>
     <use x="739.607421875" xlink:href="#BitstreamVeraSans-Roman-20"/>
     <use x="771.39453125" xlink:href="#BitstreamVeraSans-Roman-69"/>
     <use x="799.177734375" xlink:href="#BitstreamVeraSans-Roman-6e"/>
     <use x="862.556640625" xlink:href="#BitstreamVeraSans-Roman-20"/>
     <use x="894.34375" xlink:href="#BitstreamVeraSans-Roman-53"/>
     <use x="957.8203125" xlink:href="#BitstreamVeraSans-Roman-74"/>
     <use x="997.029296875" xlink:href="#BitstreamVeraSans-Roman-72"/>
     <use x="1035.89257812" xlink:href="#BitstreamVeraSans-Roman-65"/>
     <use x="1097.41601562" xlink:href="#BitstreamVeraSans-Roman-73"/>
     <use x="1149.515625" xlink:href="#BitstreamVeraSans-Roman-73"/>
     <use x="1201.61523438" xlink:href="#BitstreamVeraSans-Roman-20"/>
     <use x="1233.40234375" xlink:href="#BitstreamVeraSans-Roman-54"/>
     <use x="1279.73632812" xlink:href="#BitstreamVeraSans-Roman-72"/>
     <use x="1320.84960938" xlink:href="#BitstreamVeraSans-Roman-69"/>
     <use x="1348.6328125" xlink:href="#BitstreamVeraSans-Roman-61"/>
     <use x="1409.91210938" xlink:href="#BitstreamVeraSans-Roman-6c"/>
     <use x="1437.6953125" xlink:href="#BitstreamVeraSans-Roman-73"/>
    </g>
   </g>
  </g>
  <g id="axes_4">
   <g id="patch_17">
    <path d="
M355.707 192.92
L501.813 192.92
L501.813 28.76
L355.707 28.76
z
" style="fill:#ffffff;"/>
   </g>
   <g id="line2d_89">
    <path clip-path="url(#pf8eeff694e)" d="
M356.925 128.91
L358.143 102.202
L359.36 75.1111
L360.578 100.127
L361.795 81.0848
L363.013 128.145
L364.23 123.038
L365.448 133.491
L366.665 105.568
L367.883 158.791
L369.1 111.874
L370.318 94.2158
L371.536 117.89
L372.753 48.3755
L373.971 77.2258
L375.188 102.599
L376.406 147.225
L377.623 60.6098
L378.841 90.4778
L380.058 107.247
L381.276 144.84
L382.493 175.927
L383.711 118.311
L384.928 130.173
L386.146 146.367
L387.364 136.766
L388.581 97.5441
L389.799 71.8875
L391.016 112.163
L392.234 107.09
L393.451 116.033
L394.669 129.309
L395.886 97.1933
L397.104 129.855
L398.321 86.0111
L399.539 91.3131
L400.757 140.955
L401.974 116.738
L403.192 76.7315
L404.409 103.314
L405.627 115.134
L406.844 81.1356
L408.062 122.289
L409.279 99.0935
L410.497 118.114
L411.714 180.417
L412.932 128.742
L414.149 78.183
L415.367 97.0876
L416.585 68.0603
L417.802 121.138
L419.02 156.551
L420.237 123.895
L421.455 126.057
L422.672 113.62
L423.89 93.2546
L425.107 102.497
L426.325 126.775
L427.542 89.2192
L428.76 139.66
L429.978 153.881
L431.195 128.638
L432.413 141.685
L433.63 111.903
L434.848 90.316
L436.065 113.282
L437.283 66.0089
L438.5 91.3379
L439.718 187.147
L440.935 113.405
L442.153 72.7528
L443.371 96.8466
L444.588 154.468
L445.806 100.73
L447.023 114.425
L448.241 131.416
L449.458 78.4395
L450.676 132.898
L451.893 93.0457
L453.111 152.939
L454.328 139.515
L455.546 76.6966
L456.763 99.1866
L457.981 133.476
L459.199 83.1474
L460.416 50.67
L461.634 85.1283
L462.851 139.962
L464.069 52.9526
L465.286 97.0128
L466.504 88.4364
L467.721 119.655
L468.939 129.137
L470.156 113.412
L471.374 65.0997
L472.592 121.894
L473.809 81.8691
L475.027 93.1948
L476.244 158.829
L477.462 200.691
L478.679 114.317
L479.897 141.182
L481.114 156.617" style="fill:none;stroke:#0000ff;stroke-linecap:square;"/>
   </g>
   <g id="line2d_90">
    <path clip-path="url(#pf8eeff694e)" d="
M356.925 109.843
L358.143 109.892
L359.36 109.941
L360.578 109.99
L361.795 110.039
L363.013 110.088
L364.23 110.137
L365.448 110.186
L366.665 110.235
L367.883 110.284
L369.1 110.333
L370.318 110.382
L371.536 110.431
L372.753 110.48
L373.971 110.529
L375.188 110.578
L376.406 110.627
L377.623 110.676
L378.841 110.725
L380.058 110.774
L381.276 110.823
L382.493 110.872
L383.711 110.921
L384.928 110.971
L386.146 111.02
L387.364 111.069
L388.581 111.118
L389.799 111.167
L391.016 111.216
L392.234 111.265
L393.451 111.314
L394.669 111.363
L395.886 111.412
L397.104 111.461
L398.321 111.51
L399.539 111.559
L400.757 111.608
L401.974 111.657
L403.192 111.706
L404.409 111.755
L405.627 111.804
L406.844 111.853
L408.062 111.902
L409.279 111.951
L410.497 112
L411.714 112.049
L412.932 112.098
L414.149 112.147
L415.367 112.196
L416.585 112.245
L417.802 112.294
L419.02 112.343
L420.237 112.392
L421.455 112.441
L422.672 112.49
L423.89 112.539
L425.107 112.588
L426.325 112.637
L427.542 112.686
L428.76 112.735
L429.978 112.784
L431.195 112.833
L432.413 112.882
L433.63 112.931
L434.848 112.98
L436.065 113.029
L437.283 113.078
L438.5 113.127
L439.718 113.176
L440.935 113.225
L442.153 113.274
L443.371 113.323
L444.588 113.372
L445.806 113.421
L447.023 113.47
L448.241 113.519
L449.458 113.568
L450.676 113.617
L451.893 113.666
L453.111 113.715
L454.328 113.764
L455.546 113.813
L456.763 113.862
L457.981 113.911
L459.199 113.96
L460.416 114.009
L461.634 114.058
L462.851 114.107
L464.069 114.156
L465.286 114.205
L466.504 114.254
L467.721 114.303
L468.939 114.352
L470.156 114.401
L471.374 114.45
L472.592 114.499
L473.809 114.548
L475.027 114.597
L476.244 114.646
L477.462 114.695
L478.679 114.744
L479.897 114.793
L481.114 114.842" style="fill:none;stroke:#0000ff;stroke-dasharray:6.000000,6.000000;stroke-dashoffset:0.0;"/>
   </g>
   <g id="patch_18">
    <path d="
M355.707 28.76
L501.813 28.76" style="fill:none;stroke:#000000;stroke-linecap:square;stroke-linejoin:miter;"/>
   </g>
   <g id="patch_19">
    <path d="
M501.813 192.92
L501.813 28.76" style="fill:none;stroke:#000000;stroke-linecap:square;stroke-linejoin:miter;"/>
   </g>
   <g id="patch_20">
    <path d="
M355.707 192.92
L501.813 192.92" style="fill:none;stroke:#000000;stroke-linecap:square;stroke-linejoin:miter;"/>
   </g>
   <g id="patch_21">
    <path d="
M355.707 192.92
L355.707 28.76" style="fill:none;stroke:#000000;stroke-linecap:square;stroke-linejoin:miter;"/>
   </g>
   <g id="matplotlib.axis_7">
    <g id="xtick_21">
     <g id="line2d_91">
      <g>
       <use style="stroke:#000000;stroke-width:0.5;" x="355.707485795" xlink:href="#m93b0483c22" y="192.92"/>
      </g>
     </g>
     <g id="line2d_92">
      <g>
       <use style="stroke:#000000;stroke-width:0.5;" x="355.707485795" xlink:href="#m741efc42ff" y="28.76"/>
      </g>
     </g>
     <g id="text_47">
      <!-- 0 -->
      <g transform="translate(352.684048295 206.038125)scale(0.12 -0.12)">
       <use xlink:href="#BitstreamVeraSans-Roman-30"/>
      </g>
     </g>
    </g>
    <g id="xtick_22">
     <g id="line2d_93">
      <g>
       <use style="stroke:#000000;stroke-width:0.5;" x="380.058323864" xlink:href="#m93b0483c22" y="192.92"/>
      </g>
     </g>
     <g id="line2d_94">
      <g>
       <use style="stroke:#000000;stroke-width:0.5;" x="380.058323864" xlink:href="#m741efc42ff" y="28.76"/>
      </g>
     </g>
     <g id="text_48">
      <!-- 20 -->
      <g transform="translate(373.261448864 206.038125)scale(0.12 -0.12)">
       <use xlink:href="#BitstreamVeraSans-Roman-32"/>
       <use x="63.623046875" xlink:href="#BitstreamVeraSans-Roman-30"/>
      </g>
     </g>
    </g>
    <g id="xtick_23">
     <g id="line2d_95">
      <g>
       <use style="stroke:#000000;stroke-width:0.5;" x="404.409161932" xlink:href="#m93b0483c22" y="192.92"/>
      </g>
     </g>
     <g id="line2d_96">
      <g>
       <use style="stroke:#000000;stroke-width:0.5;" x="404.409161932" xlink:href="#m741efc42ff" y="28.76"/>
      </g>
     </g>
     <g id="text_49">
      <!-- 40 -->
      <g transform="translate(397.466036932 206.038125)scale(0.12 -0.12)">
       <use xlink:href="#BitstreamVeraSans-Roman-34"/>
       <use x="63.623046875" xlink:href="#BitstreamVeraSans-Roman-30"/>
      </g>
     </g>
    </g>
    <g id="xtick_24">
     <g id="line2d_97">
      <g>
       <use style="stroke:#000000;stroke-width:0.5;" x="428.76" xlink:href="#m93b0483c22" y="192.92"/>
      </g>
     </g>
     <g id="line2d_98">
      <g>
       <use style="stroke:#000000;stroke-width:0.5;" x="428.76" xlink:href="#m741efc42ff" y="28.76"/>
      </g>
     </g>
     <g id="text_50">
      <!-- 60 -->
      <g transform="translate(421.9425 206.038125)scale(0.12 -0.12)">
       <use xlink:href="#BitstreamVeraSans-Roman-36"/>
       <use x="63.623046875" xlink:href="#BitstreamVeraSans-Roman-30"/>
      </g>
     </g>
    </g>
    <g id="xtick_25">
     <g id="line2d_99">
      <g>
       <use style="stroke:#000000;stroke-width:0.5;" x="453.110838068" xlink:href="#m93b0483c22" y="192.92"/>
      </g>
     </g>
     <g id="line2d_100">
      <g>
       <use style="stroke:#000000;stroke-width:0.5;" x="453.110838068" xlink:href="#m741efc42ff" y="28.76"/>
      </g>
     </g>
     <g id="text_51">
      <!-- 80 -->
      <g transform="translate(446.281150568 206.038125)scale(0.12 -0.12)">
       <use xlink:href="#BitstreamVeraSans-Roman-38"/>
       <use x="63.623046875" xlink:href="#BitstreamVeraSans-Roman-30"/>
      </g>
     </g>
    </g>
    <g id="xtick_26">
     <g id="line2d_101">
      <g>
       <use style="stroke:#000000;stroke-width:0.5;" x="477.461676136" xlink:href="#m93b0483c22" y="192.92"/>
      </g>
     </g>
     <g id="line2d_102">
      <g>
       <use style="stroke:#000000;stroke-width:0.5;" x="477.461676136" xlink:href="#m741efc42ff" y="28.76"/>
      </g>
     </g>
     <g id="text_52">
      <!-- 100 -->
      <g transform="translate(467.066676136 206.038125)scale(0.12 -0.12)">
       <use xlink:href="#BitstreamVeraSans-Roman-31"/>
       <use x="63.623046875" xlink:href="#BitstreamVeraSans-Roman-30"/>
       <use x="127.24609375" xlink:href="#BitstreamVeraSans-Roman-30"/>
      </g>
     </g>
    </g>
    <g id="xtick_27">
     <g id="line2d_103">
      <g>
       <use style="stroke:#000000;stroke-width:0.5;" x="501.812514205" xlink:href="#m93b0483c22" y="192.92"/>
      </g>
     </g>
     <g id="line2d_104">
      <g>
       <use style="stroke:#000000;stroke-width:0.5;" x="501.812514205" xlink:href="#m741efc42ff" y="28.76"/>
      </g>
     </g>
     <g id="text_53">
      <!-- 120 -->
      <g transform="translate(491.417514205 206.038125)scale(0.12 -0.12)">
       <use xlink:href="#BitstreamVeraSans-Roman-31"/>
       <use x="63.623046875" xlink:href="#BitstreamVeraSans-Roman-32"/>
       <use x="127.24609375" xlink:href="#BitstreamVeraSans-Roman-30"/>
      </g>
     </g>
    </g>
   </g>
   <g id="matplotlib.axis_8">
    <g id="ytick_22">
     <g id="line2d_105">
      <g>
       <use style="stroke:#000000;stroke-width:0.5;" x="355.707485795" xlink:href="#m728421d6d4" y="192.92"/>
      </g>
     </g>
     <g id="line2d_106">
      <g>
       <use style="stroke:#000000;stroke-width:0.5;" x="501.812514205" xlink:href="#mcb0005524f" y="192.92"/>
      </g>
     </g>
     <g id="text_54">
      <!-- −3 -->
      <g transform="translate(336.249985795 196.23125)scale(0.12 -0.12)">
       <use xlink:href="#BitstreamVeraSans-Roman-2212"/>
       <use x="83.7890625" xlink:href="#BitstreamVeraSans-Roman-33"/>
      </g>
     </g>
    </g>
    <g id="ytick_23">
     <g id="line2d_107">
      <g>
       <use style="stroke:#000000;stroke-width:0.5;" x="355.707485795" xlink:href="#m728421d6d4" y="165.56"/>
      </g>
     </g>
     <g id="line2d_108">
      <g>
       <use style="stroke:#000000;stroke-width:0.5;" x="501.812514205" xlink:href="#mcb0005524f" y="165.56"/>
      </g>
     </g>
     <g id="text_55">
      <!-- −2 -->
      <g transform="translate(336.489985795 168.87125)scale(0.12 -0.12)">
       <use xlink:href="#BitstreamVeraSans-Roman-2212"/>
       <use x="83.7890625" xlink:href="#BitstreamVeraSans-Roman-32"/>
      </g>
     </g>
    </g>
    <g id="ytick_24">
     <g id="line2d_109">
      <g>
       <use style="stroke:#000000;stroke-width:0.5;" x="355.707485795" xlink:href="#m728421d6d4" y="138.2"/>
      </g>
     </g>
     <g id="line2d_110">
      <g>
       <use style="stroke:#000000;stroke-width:0.5;" x="501.812514205" xlink:href="#mcb0005524f" y="138.2"/>
      </g>
     </g>
     <g id="text_56">
      <!-- −1 -->
      <g transform="translate(336.396235795 141.51125)scale(0.12 -0.12)">
       <use xlink:href="#BitstreamVeraSans-Roman-2212"/>
       <use x="83.7890625" xlink:href="#BitstreamVeraSans-Roman-31"/>
      </g>
     </g>
    </g>
    <g id="ytick_25">
     <g id="line2d_111">
      <g>
       <use style="stroke:#000000;stroke-width:0.5;" x="355.707485795" xlink:href="#m728421d6d4" y="110.84"/>
      </g>
     </g>
     <g id="line2d_112">
      <g>
       <use style="stroke:#000000;stroke-width:0.5;" x="501.812514205" xlink:href="#mcb0005524f" y="110.84"/>
      </g>
     </g>
     <g id="text_57">
      <!-- 0 -->
      <g transform="translate(345.660610795 114.15125)scale(0.12 -0.12)">
       <use xlink:href="#BitstreamVeraSans-Roman-30"/>
      </g>
     </g>
    </g>
    <g id="ytick_26">
     <g id="line2d_113">
      <g>
       <use style="stroke:#000000;stroke-width:0.5;" x="355.707485795" xlink:href="#m728421d6d4" y="83.48"/>
      </g>
     </g>
     <g id="line2d_114">
      <g>
       <use style="stroke:#000000;stroke-width:0.5;" x="501.812514205" xlink:href="#mcb0005524f" y="83.48"/>
      </g>
     </g>
     <g id="text_58">
      <!-- 1 -->
      <g transform="translate(346.498735795 86.79125)scale(0.12 -0.12)">
       <use xlink:href="#BitstreamVeraSans-Roman-31"/>
      </g>
     </g>
    </g>
    <g id="ytick_27">
     <g id="line2d_115">
      <g>
       <use style="stroke:#000000;stroke-width:0.5;" x="355.707485795" xlink:href="#m728421d6d4" y="56.12"/>
      </g>
     </g>
     <g id="line2d_116">
      <g>
       <use style="stroke:#000000;stroke-width:0.5;" x="501.812514205" xlink:href="#mcb0005524f" y="56.12"/>
      </g>
     </g>
     <g id="text_59">
      <!-- 2 -->
      <g transform="translate(346.153735795 59.43125)scale(0.12 -0.12)">
       <use xlink:href="#BitstreamVeraSans-Roman-32"/>
      </g>
     </g>
    </g>
    <g id="ytick_28">
     <g id="line2d_117">
      <g>
       <use style="stroke:#000000;stroke-width:0.5;" x="355.707485795" xlink:href="#m728421d6d4" y="28.76"/>
      </g>
     </g>
     <g id="line2d_118">
      <g>
       <use style="stroke:#000000;stroke-width:0.5;" x="501.812514205" xlink:href="#mcb0005524f" y="28.76"/>
      </g>
     </g>
     <g id="text_60">
      <!-- 3 -->
      <g transform="translate(345.949360795 32.07125)scale(0.12 -0.12)">
       <use xlink:href="#BitstreamVeraSans-Roman-33"/>
      </g>
     </g>
    </g>
   </g>
   <g id="text_61">
    <!-- Pupil Diameter in Regular Trials before Stress -->
    <g transform="translate(266.488875 23.76)scale(0.144 -0.144)">
     <use xlink:href="#BitstreamVeraSans-Roman-50"/>
     <use x="58.552734375" xlink:href="#BitstreamVeraSans-Roman-75"/>
     <use x="121.931640625" xlink:href="#BitstreamVeraSans-Roman-70"/>
     <use x="185.408203125" xlink:href="#BitstreamVeraSans-Roman-69"/>
     <use x="213.19140625" xlink:href="#BitstreamVeraSans-Roman-6c"/>
     <use x="240.974609375" xlink:href="#BitstreamVeraSans-Roman-20"/>
     <use x="272.76171875" xlink:href="#BitstreamVeraSans-Roman-44"/>
     <use x="349.763671875" xlink:href="#BitstreamVeraSans-Roman-69"/>
     <use x="377.546875" xlink:href="#BitstreamVeraSans-Roman-61"/>
     <use x="438.826171875" xlink:href="#BitstreamVeraSans-Roman-6d"/>
     <use x="536.23828125" xlink:href="#BitstreamVeraSans-Roman-65"/>
     <use x="597.76171875" xlink:href="#BitstreamVeraSans-Roman-74"/>
     <use x="636.970703125" xlink:href="#BitstreamVeraSans-Roman-65"/>
     <use x="698.494140625" xlink:href="#BitstreamVeraSans-Roman-72"/>
     <use x="739.607421875" xlink:href="#BitstreamVeraSans-Roman-20"/>
     <use x="771.39453125" xlink:href="#BitstreamVeraSans-Roman-69"/>
     <use x="799.177734375" xlink:href="#BitstreamVeraSans-Roman-6e"/>
     <use x="862.556640625" xlink:href="#BitstreamVeraSans-Roman-20"/>
     <use x="894.34375" xlink:href="#BitstreamVeraSans-Roman-52"/>
     <use x="959.326171875" xlink:href="#BitstreamVeraSans-Roman-65"/>
     <use x="1020.84960938" xlink:href="#BitstreamVeraSans-Roman-67"/>
     <use x="1084.32617188" xlink:href="#BitstreamVeraSans-Roman-75"/>
     <use x="1147.70507812" xlink:href="#BitstreamVeraSans-Roman-6c"/>
     <use x="1175.48828125" xlink:href="#BitstreamVeraSans-Roman-61"/>
     <use x="1236.76757812" xlink:href="#BitstreamVeraSans-Roman-72"/>
     <use x="1277.88085938" xlink:href="#BitstreamVeraSans-Roman-20"/>
     <use x="1309.66796875" xlink:href="#BitstreamVeraSans-Roman-54"/>
     <use x="1356.00195312" xlink:href="#BitstreamVeraSans-Roman-72"/>
     <use x="1397.11523438" xlink:href="#BitstreamVeraSans-Roman-69"/>
     <use x="1424.8984375" xlink:href="#BitstreamVeraSans-Roman-61"/>
     <use x="1486.17773438" xlink:href="#BitstreamVeraSans-Roman-6c"/>
     <use x="1513.9609375" xlink:href="#BitstreamVeraSans-Roman-73"/>
     <use x="1566.06054688" xlink:href="#BitstreamVeraSans-Roman-20"/>
     <use x="1597.84765625" xlink:href="#BitstreamVeraSans-Roman-62"/>
     <use x="1661.32421875" xlink:href="#BitstreamVeraSans-Roman-65"/>
     <use x="1722.84765625" xlink:href="#BitstreamVeraSans-Roman-66"/>
     <use x="1758.05273438" xlink:href="#BitstreamVeraSans-Roman-6f"/>
     <use x="1819.234375" xlink:href="#BitstreamVeraSans-Roman-72"/>
     <use x="1858.09765625" xlink:href="#BitstreamVeraSans-Roman-65"/>
     <use x="1919.62109375" xlink:href="#BitstreamVeraSans-Roman-20"/>
     <use x="1951.40820312" xlink:href="#BitstreamVeraSans-Roman-53"/>
     <use x="2014.88476562" xlink:href="#BitstreamVeraSans-Roman-74"/>
     <use x="2054.09375" xlink:href="#BitstreamVeraSans-Roman-72"/>
     <use x="2092.95703125" xlink:href="#BitstreamVeraSans-Roman-65"/>
     <use x="2154.48046875" xlink:href="#BitstreamVeraSans-Roman-73"/>
     <use x="2206.58007812" xlink:href="#BitstreamVeraSans-Roman-73"/>
    </g>
   </g>
  </g>
 </g>
 <defs>
  <clipPath id="p1cbca1c66b">
   <rect height="164.16" width="146.105028409" x="355.707485795" y="238.28"/>
  </clipPath>
  <clipPath id="p03a1b07124">
   <rect height="164.16" width="146.105028409" x="74.1874857955" y="238.28"/>
  </clipPath>
  <clipPath id="pf8eeff694e">
   <rect height="164.16" width="146.105028409" x="355.707485795" y="28.76"/>
  </clipPath>
  <clipPath id="p528d018644">
   <rect height="164.16" width="146.105028409" x="74.1874857955" y="28.76"/>
  </clipPath>
 </defs>
</svg>
