<?xml version="1.0" encoding="utf-8" standalone="no"?>
<!DOCTYPE svg PUBLIC "-//W3C//DTD SVG 1.1//EN"
  "http://www.w3.org/Graphics/SVG/1.1/DTD/svg11.dtd">
<!-- Created with matplotlib (http://matplotlib.org/) -->
<svg height="432pt" version="1.1" viewBox="0 0 576 432" width="576pt" xmlns="http://www.w3.org/2000/svg" xmlns:xlink="http://www.w3.org/1999/xlink">
 <defs>
  <style type="text/css">
*{stroke-linecap:butt;stroke-linejoin:round;}
  </style>
 </defs>
 <g id="figure_1">
  <g id="patch_1">
   <path d="
M0 432
L576 432
L576 0
L0 0
z
" style="fill:#ffffff;"/>
  </g>
  <g id="axes_1">
   <g id="patch_2">
    <path d="
M41.9491 402.44
L254.774 402.44
L254.774 238.28
L41.9491 238.28
z
" style="fill:#ffffff;"/>
   </g>
   <g id="line2d_1">
    <path clip-path="url(#p12b1442ff1)" d="
M47.2697 339.324
L52.5903 310.095
L57.9109 319.061
L63.2315 319.288
L68.5522 329.732
L73.8728 337.806
L79.1934 330.256
L84.514 326.885
L89.8346 365.22
L95.1552 338.01
L100.476 333.26
L105.796 335.181
L111.117 337.399
L116.438 317.52
L121.758 325.866
L127.079 312.54
L132.4 311.929
L137.72 314.39
L143.041 331.583
L148.361 331.604
L153.682 322.948
L159.003 337.57
L164.323 315.108
L169.644 324.399
L174.965 330.705
L180.285 311.297
L185.606 321.97
L190.926 337.949
L196.247 334.465
L201.568 316.167
L206.888 330.96
L212.209 350.305
L217.529 345.101
L222.85 333.574
L228.171 332.295
L233.491 331.734
L238.812 332.305
L244.133 314.985
L249.453 326.192" style="fill:none;stroke:#ff0000;stroke-linecap:square;"/>
   </g>
   <g id="line2d_2">
    <path clip-path="url(#p12b1442ff1)" d="
M47.2697 328.151
L52.5903 328.177
L57.9109 328.202
L63.2315 328.228
L68.5522 328.254
L73.8728 328.28
L79.1934 328.305
L84.514 328.331
L89.8346 328.357
L95.1552 328.383
L100.476 328.409
L105.796 328.434
L111.117 328.46
L116.438 328.486
L121.758 328.512
L127.079 328.537
L132.4 328.563
L137.72 328.589
L143.041 328.615
L148.361 328.64
L153.682 328.666
L159.003 328.692
L164.323 328.718
L169.644 328.744
L174.965 328.769
L180.285 328.795
L185.606 328.821
L190.926 328.847
L196.247 328.872
L201.568 328.898
L206.888 328.924
L212.209 328.95
L217.529 328.975
L222.85 329.001
L228.171 329.027
L233.491 329.053
L238.812 329.078
L244.133 329.104
L249.453 329.13" style="fill:none;stroke:#ff0000;stroke-dasharray:6.000000,6.000000;stroke-dashoffset:0.0;"/>
   </g>
   <g id="patch_3">
    <path d="
M41.9491 238.28
L254.774 238.28" style="fill:none;stroke:#000000;stroke-linecap:square;stroke-linejoin:miter;"/>
   </g>
   <g id="patch_4">
    <path d="
M254.774 402.44
L254.774 238.28" style="fill:none;stroke:#000000;stroke-linecap:square;stroke-linejoin:miter;"/>
   </g>
   <g id="patch_5">
    <path d="
M41.9491 402.44
L254.774 402.44" style="fill:none;stroke:#000000;stroke-linecap:square;stroke-linejoin:miter;"/>
   </g>
   <g id="patch_6">
    <path d="
M41.9491 402.44
L41.9491 238.28" style="fill:none;stroke:#000000;stroke-linecap:square;stroke-linejoin:miter;"/>
   </g>
   <g id="matplotlib.axis_1">
    <g id="xtick_1">
     <g id="line2d_3">
      <defs>
       <path d="
M0 0
L0 -4" id="m93b0483c22" style="stroke:#000000;stroke-width:0.5;"/>
      </defs>
      <g>
       <use style="stroke:#000000;stroke-width:0.5;" x="41.9490625" xlink:href="#m93b0483c22" y="402.44"/>
      </g>
     </g>
     <g id="line2d_4">
      <defs>
       <path d="
M0 0
L0 4" id="m741efc42ff" style="stroke:#000000;stroke-width:0.5;"/>
      </defs>
      <g>
       <use style="stroke:#000000;stroke-width:0.5;" x="41.9490625" xlink:href="#m741efc42ff" y="238.28"/>
      </g>
     </g>
     <g id="text_1">
      <!-- 0 -->
      <defs>
       <path d="
M31.7812 66.4062
Q24.1719 66.4062 20.3281 58.9062
Q16.5 51.4219 16.5 36.375
Q16.5 21.3906 20.3281 13.8906
Q24.1719 6.39062 31.7812 6.39062
Q39.4531 6.39062 43.2812 13.8906
Q47.125 21.3906 47.125 36.375
Q47.125 51.4219 43.2812 58.9062
Q39.4531 66.4062 31.7812 66.4062
M31.7812 74.2188
Q44.0469 74.2188 50.5156 64.5156
Q56.9844 54.8281 56.9844 36.375
Q56.9844 17.9688 50.5156 8.26562
Q44.0469 -1.42188 31.7812 -1.42188
Q19.5312 -1.42188 13.0625 8.26562
Q6.59375 17.9688 6.59375 36.375
Q6.59375 54.8281 13.0625 64.5156
Q19.5312 74.2188 31.7812 74.2188" id="BitstreamVeraSans-Roman-30"/>
      </defs>
      <g transform="translate(38.925625 415.558125)scale(0.12 -0.12)">
       <use xlink:href="#BitstreamVeraSans-Roman-30"/>
      </g>
     </g>
    </g>
    <g id="xtick_2">
     <g id="line2d_5">
      <g>
       <use style="stroke:#000000;stroke-width:0.5;" x="68.5521502131" xlink:href="#m93b0483c22" y="402.44"/>
      </g>
     </g>
     <g id="line2d_6">
      <g>
       <use style="stroke:#000000;stroke-width:0.5;" x="68.5521502131" xlink:href="#m741efc42ff" y="238.28"/>
      </g>
     </g>
     <g id="text_2">
      <!-- 5 -->
      <defs>
       <path d="
M10.7969 72.9062
L49.5156 72.9062
L49.5156 64.5938
L19.8281 64.5938
L19.8281 46.7344
Q21.9688 47.4688 24.1094 47.8281
Q26.2656 48.1875 28.4219 48.1875
Q40.625 48.1875 47.75 41.5
Q54.8906 34.8125 54.8906 23.3906
Q54.8906 11.625 47.5625 5.09375
Q40.2344 -1.42188 26.9062 -1.42188
Q22.3125 -1.42188 17.5469 -0.640625
Q12.7969 0.140625 7.71875 1.70312
L7.71875 11.625
Q12.1094 9.23438 16.7969 8.0625
Q21.4844 6.89062 26.7031 6.89062
Q35.1562 6.89062 40.0781 11.3281
Q45.0156 15.7656 45.0156 23.3906
Q45.0156 31 40.0781 35.4375
Q35.1562 39.8906 26.7031 39.8906
Q22.75 39.8906 18.8125 39.0156
Q14.8906 38.1406 10.7969 36.2812
z
" id="BitstreamVeraSans-Roman-35"/>
      </defs>
      <g transform="translate(65.7218377131 415.558125)scale(0.12 -0.12)">
       <use xlink:href="#BitstreamVeraSans-Roman-35"/>
      </g>
     </g>
    </g>
    <g id="xtick_3">
     <g id="line2d_7">
      <g>
       <use style="stroke:#000000;stroke-width:0.5;" x="95.1552379261" xlink:href="#m93b0483c22" y="402.44"/>
      </g>
     </g>
     <g id="line2d_8">
      <g>
       <use style="stroke:#000000;stroke-width:0.5;" x="95.1552379261" xlink:href="#m741efc42ff" y="238.28"/>
      </g>
     </g>
     <g id="text_3">
      <!-- 10 -->
      <defs>
       <path d="
M12.4062 8.29688
L28.5156 8.29688
L28.5156 63.9219
L10.9844 60.4062
L10.9844 69.3906
L28.4219 72.9062
L38.2812 72.9062
L38.2812 8.29688
L54.3906 8.29688
L54.3906 0
L12.4062 0
z
" id="BitstreamVeraSans-Roman-31"/>
      </defs>
      <g transform="translate(88.5777379261 415.558125)scale(0.12 -0.12)">
       <use xlink:href="#BitstreamVeraSans-Roman-31"/>
       <use x="63.623046875" xlink:href="#BitstreamVeraSans-Roman-30"/>
      </g>
     </g>
    </g>
    <g id="xtick_4">
     <g id="line2d_9">
      <g>
       <use style="stroke:#000000;stroke-width:0.5;" x="121.758325639" xlink:href="#m93b0483c22" y="402.44"/>
      </g>
     </g>
     <g id="line2d_10">
      <g>
       <use style="stroke:#000000;stroke-width:0.5;" x="121.758325639" xlink:href="#m741efc42ff" y="238.28"/>
      </g>
     </g>
     <g id="text_4">
      <!-- 15 -->
      <g transform="translate(115.306450639 415.558125)scale(0.12 -0.12)">
       <use xlink:href="#BitstreamVeraSans-Roman-31"/>
       <use x="63.623046875" xlink:href="#BitstreamVeraSans-Roman-35"/>
      </g>
     </g>
    </g>
    <g id="xtick_5">
     <g id="line2d_11">
      <g>
       <use style="stroke:#000000;stroke-width:0.5;" x="148.361413352" xlink:href="#m93b0483c22" y="402.44"/>
      </g>
     </g>
     <g id="line2d_12">
      <g>
       <use style="stroke:#000000;stroke-width:0.5;" x="148.361413352" xlink:href="#m741efc42ff" y="238.28"/>
      </g>
     </g>
     <g id="text_5">
      <!-- 20 -->
      <defs>
       <path d="
M19.1875 8.29688
L53.6094 8.29688
L53.6094 0
L7.32812 0
L7.32812 8.29688
Q12.9375 14.1094 22.625 23.8906
Q32.3281 33.6875 34.8125 36.5312
Q39.5469 41.8438 41.4219 45.5312
Q43.3125 49.2188 43.3125 52.7812
Q43.3125 58.5938 39.2344 62.25
Q35.1562 65.9219 28.6094 65.9219
Q23.9688 65.9219 18.8125 64.3125
Q13.6719 62.7031 7.8125 59.4219
L7.8125 69.3906
Q13.7656 71.7812 18.9375 73
Q24.125 74.2188 28.4219 74.2188
Q39.75 74.2188 46.4844 68.5469
Q53.2188 62.8906 53.2188 53.4219
Q53.2188 48.9219 51.5312 44.8906
Q49.8594 40.875 45.4062 35.4062
Q44.1875 33.9844 37.6406 27.2188
Q31.1094 20.4531 19.1875 8.29688" id="BitstreamVeraSans-Roman-32"/>
      </defs>
      <g transform="translate(141.564538352 415.558125)scale(0.12 -0.12)">
       <use xlink:href="#BitstreamVeraSans-Roman-32"/>
       <use x="63.623046875" xlink:href="#BitstreamVeraSans-Roman-30"/>
      </g>
     </g>
    </g>
    <g id="xtick_6">
     <g id="line2d_13">
      <g>
       <use style="stroke:#000000;stroke-width:0.5;" x="174.964501065" xlink:href="#m93b0483c22" y="402.44"/>
      </g>
     </g>
     <g id="line2d_14">
      <g>
       <use style="stroke:#000000;stroke-width:0.5;" x="174.964501065" xlink:href="#m741efc42ff" y="238.28"/>
      </g>
     </g>
     <g id="text_6">
      <!-- 25 -->
      <g transform="translate(168.293251065 415.558125)scale(0.12 -0.12)">
       <use xlink:href="#BitstreamVeraSans-Roman-32"/>
       <use x="63.623046875" xlink:href="#BitstreamVeraSans-Roman-35"/>
      </g>
     </g>
    </g>
    <g id="xtick_7">
     <g id="line2d_15">
      <g>
       <use style="stroke:#000000;stroke-width:0.5;" x="201.567588778" xlink:href="#m93b0483c22" y="402.44"/>
      </g>
     </g>
     <g id="line2d_16">
      <g>
       <use style="stroke:#000000;stroke-width:0.5;" x="201.567588778" xlink:href="#m741efc42ff" y="238.28"/>
      </g>
     </g>
     <g id="text_7">
      <!-- 30 -->
      <defs>
       <path d="
M40.5781 39.3125
Q47.6562 37.7969 51.625 33
Q55.6094 28.2188 55.6094 21.1875
Q55.6094 10.4062 48.1875 4.48438
Q40.7656 -1.42188 27.0938 -1.42188
Q22.5156 -1.42188 17.6562 -0.515625
Q12.7969 0.390625 7.625 2.20312
L7.625 11.7188
Q11.7188 9.32812 16.5938 8.10938
Q21.4844 6.89062 26.8125 6.89062
Q36.0781 6.89062 40.9375 10.5469
Q45.7969 14.2031 45.7969 21.1875
Q45.7969 27.6406 41.2812 31.2656
Q36.7656 34.9062 28.7188 34.9062
L20.2188 34.9062
L20.2188 43.0156
L29.1094 43.0156
Q36.375 43.0156 40.2344 45.9219
Q44.0938 48.8281 44.0938 54.2969
Q44.0938 59.9062 40.1094 62.9062
Q36.1406 65.9219 28.7188 65.9219
Q24.6562 65.9219 20.0156 65.0312
Q15.375 64.1562 9.8125 62.3125
L9.8125 71.0938
Q15.4375 72.6562 20.3438 73.4375
Q25.25 74.2188 29.5938 74.2188
Q40.8281 74.2188 47.3594 69.1094
Q53.9062 64.0156 53.9062 55.3281
Q53.9062 49.2656 50.4375 45.0938
Q46.9688 40.9219 40.5781 39.3125" id="BitstreamVeraSans-Roman-33"/>
      </defs>
      <g transform="translate(194.788526278 415.558125)scale(0.12 -0.12)">
       <use xlink:href="#BitstreamVeraSans-Roman-33"/>
       <use x="63.623046875" xlink:href="#BitstreamVeraSans-Roman-30"/>
      </g>
     </g>
    </g>
    <g id="xtick_8">
     <g id="line2d_17">
      <g>
       <use style="stroke:#000000;stroke-width:0.5;" x="228.170676491" xlink:href="#m93b0483c22" y="402.44"/>
      </g>
     </g>
     <g id="line2d_18">
      <g>
       <use style="stroke:#000000;stroke-width:0.5;" x="228.170676491" xlink:href="#m741efc42ff" y="238.28"/>
      </g>
     </g>
     <g id="text_8">
      <!-- 35 -->
      <g transform="translate(221.517238991 415.558125)scale(0.12 -0.12)">
       <use xlink:href="#BitstreamVeraSans-Roman-33"/>
       <use x="63.623046875" xlink:href="#BitstreamVeraSans-Roman-35"/>
      </g>
     </g>
    </g>
    <g id="xtick_9">
     <g id="line2d_19">
      <g>
       <use style="stroke:#000000;stroke-width:0.5;" x="254.773764205" xlink:href="#m93b0483c22" y="402.44"/>
      </g>
     </g>
     <g id="line2d_20">
      <g>
       <use style="stroke:#000000;stroke-width:0.5;" x="254.773764205" xlink:href="#m741efc42ff" y="238.28"/>
      </g>
     </g>
     <g id="text_9">
      <!-- 40 -->
      <defs>
       <path d="
M37.7969 64.3125
L12.8906 25.3906
L37.7969 25.3906
z

M35.2031 72.9062
L47.6094 72.9062
L47.6094 25.3906
L58.0156 25.3906
L58.0156 17.1875
L47.6094 17.1875
L47.6094 0
L37.7969 0
L37.7969 17.1875
L4.89062 17.1875
L4.89062 26.7031
z
" id="BitstreamVeraSans-Roman-34"/>
      </defs>
      <g transform="translate(247.830639205 415.558125)scale(0.12 -0.12)">
       <use xlink:href="#BitstreamVeraSans-Roman-34"/>
       <use x="63.623046875" xlink:href="#BitstreamVeraSans-Roman-30"/>
      </g>
     </g>
    </g>
   </g>
   <g id="matplotlib.axis_2">
    <g id="ytick_1">
     <g id="line2d_21">
      <defs>
       <path d="
M0 0
L4 0" id="m728421d6d4" style="stroke:#000000;stroke-width:0.5;"/>
      </defs>
      <g>
       <use style="stroke:#000000;stroke-width:0.5;" x="41.9490625" xlink:href="#m728421d6d4" y="387.516363636"/>
      </g>
     </g>
     <g id="line2d_22">
      <defs>
       <path d="
M0 0
L-4 0" id="mcb0005524f" style="stroke:#000000;stroke-width:0.5;"/>
      </defs>
      <g>
       <use style="stroke:#000000;stroke-width:0.5;" x="254.773764205" xlink:href="#mcb0005524f" y="387.516363636"/>
      </g>
     </g>
     <g id="text_10">
      <!-- 0.30 -->
      <defs>
       <path d="
M10.6875 12.4062
L21 12.4062
L21 0
L10.6875 0
z
" id="BitstreamVeraSans-Roman-2e"/>
      </defs>
      <g transform="translate(12.8184375 390.827613636)scale(0.12 -0.12)">
       <use xlink:href="#BitstreamVeraSans-Roman-30"/>
       <use x="63.623046875" xlink:href="#BitstreamVeraSans-Roman-2e"/>
       <use x="95.41015625" xlink:href="#BitstreamVeraSans-Roman-33"/>
       <use x="159.033203125" xlink:href="#BitstreamVeraSans-Roman-30"/>
      </g>
     </g>
    </g>
    <g id="ytick_2">
     <g id="line2d_23">
      <g>
       <use style="stroke:#000000;stroke-width:0.5;" x="41.9490625" xlink:href="#m728421d6d4" y="350.207272727"/>
      </g>
     </g>
     <g id="line2d_24">
      <g>
       <use style="stroke:#000000;stroke-width:0.5;" x="254.773764205" xlink:href="#mcb0005524f" y="350.207272727"/>
      </g>
     </g>
     <g id="text_11">
      <!-- 0.35 -->
      <g transform="translate(13.0696875 353.518522727)scale(0.12 -0.12)">
       <use xlink:href="#BitstreamVeraSans-Roman-30"/>
       <use x="63.623046875" xlink:href="#BitstreamVeraSans-Roman-2e"/>
       <use x="95.41015625" xlink:href="#BitstreamVeraSans-Roman-33"/>
       <use x="159.033203125" xlink:href="#BitstreamVeraSans-Roman-35"/>
      </g>
     </g>
    </g>
    <g id="ytick_3">
     <g id="line2d_25">
      <g>
       <use style="stroke:#000000;stroke-width:0.5;" x="41.9490625" xlink:href="#m728421d6d4" y="312.898181818"/>
      </g>
     </g>
     <g id="line2d_26">
      <g>
       <use style="stroke:#000000;stroke-width:0.5;" x="254.773764205" xlink:href="#mcb0005524f" y="312.898181818"/>
      </g>
     </g>
     <g id="text_12">
      <!-- 0.40 -->
      <g transform="translate(12.8184375 316.209431818)scale(0.12 -0.12)">
       <use xlink:href="#BitstreamVeraSans-Roman-30"/>
       <use x="63.623046875" xlink:href="#BitstreamVeraSans-Roman-2e"/>
       <use x="95.41015625" xlink:href="#BitstreamVeraSans-Roman-34"/>
       <use x="159.033203125" xlink:href="#BitstreamVeraSans-Roman-30"/>
      </g>
     </g>
    </g>
    <g id="ytick_4">
     <g id="line2d_27">
      <g>
       <use style="stroke:#000000;stroke-width:0.5;" x="41.9490625" xlink:href="#m728421d6d4" y="275.589090909"/>
      </g>
     </g>
     <g id="line2d_28">
      <g>
       <use style="stroke:#000000;stroke-width:0.5;" x="254.773764205" xlink:href="#mcb0005524f" y="275.589090909"/>
      </g>
     </g>
     <g id="text_13">
      <!-- 0.45 -->
      <g transform="translate(13.0696875 278.900340909)scale(0.12 -0.12)">
       <use xlink:href="#BitstreamVeraSans-Roman-30"/>
       <use x="63.623046875" xlink:href="#BitstreamVeraSans-Roman-2e"/>
       <use x="95.41015625" xlink:href="#BitstreamVeraSans-Roman-34"/>
       <use x="159.033203125" xlink:href="#BitstreamVeraSans-Roman-35"/>
      </g>
     </g>
    </g>
    <g id="ytick_5">
     <g id="line2d_29">
      <g>
       <use style="stroke:#000000;stroke-width:0.5;" x="41.9490625" xlink:href="#m728421d6d4" y="238.28"/>
      </g>
     </g>
     <g id="line2d_30">
      <g>
       <use style="stroke:#000000;stroke-width:0.5;" x="254.773764205" xlink:href="#mcb0005524f" y="238.28"/>
      </g>
     </g>
     <g id="text_14">
      <!-- 0.50 -->
      <g transform="translate(12.8184375 241.59125)scale(0.12 -0.12)">
       <use xlink:href="#BitstreamVeraSans-Roman-30"/>
       <use x="63.623046875" xlink:href="#BitstreamVeraSans-Roman-2e"/>
       <use x="95.41015625" xlink:href="#BitstreamVeraSans-Roman-35"/>
       <use x="159.033203125" xlink:href="#BitstreamVeraSans-Roman-30"/>
      </g>
     </g>
    </g>
   </g>
   <g id="text_15">
    <!-- Pulse in Stress Trials -->
    <defs>
     <path id="BitstreamVeraSans-Roman-20"/>
     <path d="
M54.8906 33.0156
L54.8906 0
L45.9062 0
L45.9062 32.7188
Q45.9062 40.4844 42.875 44.3281
Q39.8438 48.1875 33.7969 48.1875
Q26.5156 48.1875 22.3125 43.5469
Q18.1094 38.9219 18.1094 30.9062
L18.1094 0
L9.07812 0
L9.07812 54.6875
L18.1094 54.6875
L18.1094 46.1875
Q21.3438 51.125 25.7031 53.5625
Q30.0781 56 35.7969 56
Q45.2188 56 50.0469 50.1719
Q54.8906 44.3438 54.8906 33.0156" id="BitstreamVeraSans-Roman-6e"/>
     <path d="
M34.2812 27.4844
Q23.3906 27.4844 19.1875 25
Q14.9844 22.5156 14.9844 16.5
Q14.9844 11.7188 18.1406 8.90625
Q21.2969 6.10938 26.7031 6.10938
Q34.1875 6.10938 38.7031 11.4062
Q43.2188 16.7031 43.2188 25.4844
L43.2188 27.4844
z

M52.2031 31.2031
L52.2031 0
L43.2188 0
L43.2188 8.29688
Q40.1406 3.32812 35.5469 0.953125
Q30.9531 -1.42188 24.3125 -1.42188
Q15.9219 -1.42188 10.9531 3.29688
Q6 8.01562 6 15.9219
Q6 25.1406 12.1719 29.8281
Q18.3594 34.5156 30.6094 34.5156
L43.2188 34.5156
L43.2188 35.4062
Q43.2188 41.6094 39.1406 45
Q35.0625 48.3906 27.6875 48.3906
Q23 48.3906 18.5469 47.2656
Q14.1094 46.1406 10.0156 43.8906
L10.0156 52.2031
Q14.9375 54.1094 19.5781 55.0469
Q24.2188 56 28.6094 56
Q40.4844 56 46.3438 49.8438
Q52.2031 43.7031 52.2031 31.2031" id="BitstreamVeraSans-Roman-61"/>
     <path d="
M9.42188 75.9844
L18.4062 75.9844
L18.4062 0
L9.42188 0
z
" id="BitstreamVeraSans-Roman-6c"/>
     <path d="
M19.6719 64.7969
L19.6719 37.4062
L32.0781 37.4062
Q38.9688 37.4062 42.7188 40.9688
Q46.4844 44.5312 46.4844 51.125
Q46.4844 57.6719 42.7188 61.2344
Q38.9688 64.7969 32.0781 64.7969
z

M9.8125 72.9062
L32.0781 72.9062
Q44.3438 72.9062 50.6094 67.3594
Q56.8906 61.8125 56.8906 51.125
Q56.8906 40.3281 50.6094 34.8125
Q44.3438 29.2969 32.0781 29.2969
L19.6719 29.2969
L19.6719 0
L9.8125 0
z
" id="BitstreamVeraSans-Roman-50"/>
     <path d="
M53.5156 70.5156
L53.5156 60.8906
Q47.9062 63.5781 42.9219 64.8906
Q37.9375 66.2188 33.2969 66.2188
Q25.25 66.2188 20.875 63.0938
Q16.5 59.9688 16.5 54.2031
Q16.5 49.3594 19.4062 46.8906
Q22.3125 44.4375 30.4219 42.9219
L36.375 41.7031
Q47.4062 39.5938 52.6562 34.2969
Q57.9062 29 57.9062 20.125
Q57.9062 9.51562 50.7969 4.04688
Q43.7031 -1.42188 29.9844 -1.42188
Q24.8125 -1.42188 18.9688 -0.25
Q13.1406 0.921875 6.89062 3.21875
L6.89062 13.375
Q12.8906 10.0156 18.6562 8.29688
Q24.4219 6.59375 29.9844 6.59375
Q38.4219 6.59375 43.0156 9.90625
Q47.6094 13.2344 47.6094 19.3906
Q47.6094 24.75 44.3125 27.7812
Q41.0156 30.8125 33.5 32.3281
L27.4844 33.5
Q16.4531 35.6875 11.5156 40.375
Q6.59375 45.0625 6.59375 53.4219
Q6.59375 63.0938 13.4062 68.6562
Q20.2188 74.2188 32.1719 74.2188
Q37.3125 74.2188 42.625 73.2812
Q47.9531 72.3594 53.5156 70.5156" id="BitstreamVeraSans-Roman-53"/>
     <path d="
M9.42188 54.6875
L18.4062 54.6875
L18.4062 0
L9.42188 0
z

M9.42188 75.9844
L18.4062 75.9844
L18.4062 64.5938
L9.42188 64.5938
z
" id="BitstreamVeraSans-Roman-69"/>
     <path d="
M56.2031 29.5938
L56.2031 25.2031
L14.8906 25.2031
Q15.4844 15.9219 20.4844 11.0625
Q25.4844 6.20312 34.4219 6.20312
Q39.5938 6.20312 44.4531 7.46875
Q49.3125 8.73438 54.1094 11.2812
L54.1094 2.78125
Q49.2656 0.734375 44.1875 -0.34375
Q39.1094 -1.42188 33.8906 -1.42188
Q20.7969 -1.42188 13.1562 6.1875
Q5.51562 13.8125 5.51562 26.8125
Q5.51562 40.2344 12.7656 48.1094
Q20.0156 56 32.3281 56
Q43.3594 56 49.7812 48.8906
Q56.2031 41.7969 56.2031 29.5938
M47.2188 32.2344
Q47.125 39.5938 43.0938 43.9844
Q39.0625 48.3906 32.4219 48.3906
Q24.9062 48.3906 20.3906 44.1406
Q15.875 39.8906 15.1875 32.1719
z
" id="BitstreamVeraSans-Roman-65"/>
     <path d="
M-0.296875 72.9062
L61.375 72.9062
L61.375 64.5938
L35.5 64.5938
L35.5 0
L25.5938 0
L25.5938 64.5938
L-0.296875 64.5938
z
" id="BitstreamVeraSans-Roman-54"/>
     <path d="
M18.3125 70.2188
L18.3125 54.6875
L36.8125 54.6875
L36.8125 47.7031
L18.3125 47.7031
L18.3125 18.0156
Q18.3125 11.3281 20.1406 9.42188
Q21.9688 7.51562 27.5938 7.51562
L36.8125 7.51562
L36.8125 0
L27.5938 0
Q17.1875 0 13.2344 3.875
Q9.28125 7.76562 9.28125 18.0156
L9.28125 47.7031
L2.6875 47.7031
L2.6875 54.6875
L9.28125 54.6875
L9.28125 70.2188
z
" id="BitstreamVeraSans-Roman-74"/>
     <path d="
M8.5 21.5781
L8.5 54.6875
L17.4844 54.6875
L17.4844 21.9219
Q17.4844 14.1562 20.5 10.2656
Q23.5312 6.39062 29.5938 6.39062
Q36.8594 6.39062 41.0781 11.0312
Q45.3125 15.6719 45.3125 23.6875
L45.3125 54.6875
L54.2969 54.6875
L54.2969 0
L45.3125 0
L45.3125 8.40625
Q42.0469 3.42188 37.7188 1
Q33.4062 -1.42188 27.6875 -1.42188
Q18.2656 -1.42188 13.375 4.4375
Q8.5 10.2969 8.5 21.5781" id="BitstreamVeraSans-Roman-75"/>
     <path d="
M41.1094 46.2969
Q39.5938 47.1719 37.8125 47.5781
Q36.0312 48 33.8906 48
Q26.2656 48 22.1875 43.0469
Q18.1094 38.0938 18.1094 28.8125
L18.1094 0
L9.07812 0
L9.07812 54.6875
L18.1094 54.6875
L18.1094 46.1875
Q20.9531 51.1719 25.4844 53.5781
Q30.0312 56 36.5312 56
Q37.4531 56 38.5781 55.875
Q39.7031 55.7656 41.0625 55.5156
z
" id="BitstreamVeraSans-Roman-72"/>
     <path d="
M44.2812 53.0781
L44.2812 44.5781
Q40.4844 46.5312 36.375 47.5
Q32.2812 48.4844 27.875 48.4844
Q21.1875 48.4844 17.8438 46.4375
Q14.5 44.3906 14.5 40.2812
Q14.5 37.1562 16.8906 35.375
Q19.2812 33.5938 26.5156 31.9844
L29.5938 31.2969
Q39.1562 29.25 43.1875 25.5156
Q47.2188 21.7812 47.2188 15.0938
Q47.2188 7.46875 41.1875 3.01562
Q35.1562 -1.42188 24.6094 -1.42188
Q20.2188 -1.42188 15.4531 -0.5625
Q10.6875 0.296875 5.42188 2
L5.42188 11.2812
Q10.4062 8.6875 15.2344 7.39062
Q20.0625 6.10938 24.8125 6.10938
Q31.1562 6.10938 34.5625 8.28125
Q37.9844 10.4531 37.9844 14.4062
Q37.9844 18.0625 35.5156 20.0156
Q33.0625 21.9688 24.7031 23.7812
L21.5781 24.5156
Q13.2344 26.2656 9.51562 29.9062
Q5.8125 33.5469 5.8125 39.8906
Q5.8125 47.6094 11.2812 51.7969
Q16.75 56 26.8125 56
Q31.7812 56 36.1719 55.2656
Q40.5781 54.5469 44.2812 53.0781" id="BitstreamVeraSans-Roman-73"/>
    </defs>
    <g transform="translate(75.7426633523 233.28)scale(0.144 -0.144)">
     <use xlink:href="#BitstreamVeraSans-Roman-50"/>
     <use x="58.552734375" xlink:href="#BitstreamVeraSans-Roman-75"/>
     <use x="121.931640625" xlink:href="#BitstreamVeraSans-Roman-6c"/>
     <use x="149.71484375" xlink:href="#BitstreamVeraSans-Roman-73"/>
     <use x="201.814453125" xlink:href="#BitstreamVeraSans-Roman-65"/>
     <use x="263.337890625" xlink:href="#BitstreamVeraSans-Roman-20"/>
     <use x="295.125" xlink:href="#BitstreamVeraSans-Roman-69"/>
     <use x="322.908203125" xlink:href="#BitstreamVeraSans-Roman-6e"/>
     <use x="386.287109375" xlink:href="#BitstreamVeraSans-Roman-20"/>
     <use x="418.07421875" xlink:href="#BitstreamVeraSans-Roman-53"/>
     <use x="481.55078125" xlink:href="#BitstreamVeraSans-Roman-74"/>
     <use x="520.759765625" xlink:href="#BitstreamVeraSans-Roman-72"/>
     <use x="559.623046875" xlink:href="#BitstreamVeraSans-Roman-65"/>
     <use x="621.146484375" xlink:href="#BitstreamVeraSans-Roman-73"/>
     <use x="673.24609375" xlink:href="#BitstreamVeraSans-Roman-73"/>
     <use x="725.345703125" xlink:href="#BitstreamVeraSans-Roman-20"/>
     <use x="757.1328125" xlink:href="#BitstreamVeraSans-Roman-54"/>
     <use x="803.466796875" xlink:href="#BitstreamVeraSans-Roman-72"/>
     <use x="844.580078125" xlink:href="#BitstreamVeraSans-Roman-69"/>
     <use x="872.36328125" xlink:href="#BitstreamVeraSans-Roman-61"/>
     <use x="933.642578125" xlink:href="#BitstreamVeraSans-Roman-6c"/>
     <use x="961.42578125" xlink:href="#BitstreamVeraSans-Roman-73"/>
    </g>
   </g>
  </g>
  <g id="axes_2">
   <g id="patch_7">
    <path d="
M41.9491 192.92
L254.774 192.92
L254.774 28.76
L41.9491 28.76
z
" style="fill:#ffffff;"/>
   </g>
   <g id="line2d_31">
    <path clip-path="url(#p217c292275)" d="
M43.7226 82.9808
L45.4961 133.395
L47.2697 137.886
L49.0432 129.419
L50.8168 102.572
L52.5903 110.466
L54.3638 107.462
L56.1374 100.657
L57.9109 111.283
L59.6845 110.6
L61.458 108.359
L63.2315 96.2148
L65.0051 110.885
L66.7786 103.509
L68.5522 112.059
L70.3257 110.335
L72.0992 109.174
L73.8728 103.061
L75.6463 95.3183
L77.4198 97.3966
L79.1934 87.3147
L80.9669 98.4154
L82.7405 82.7261
L84.514 93.077
L86.2875 100.029
L88.0611 108.65
L89.8346 103.265
L91.6082 103.969
L93.3817 105.436
L95.1552 103.452
L96.9288 118.19
L98.7023 81.1042
L100.476 111.374
L102.249 110.274
L104.023 108.97
L105.796 100.616
L107.57 113.057
L109.344 101.309
L111.117 107.986
L112.891 97.4374
L114.664 108.233
L116.438 112.312
L118.211 107.503
L119.985 114.01
L121.758 105.506
L123.532 120.024
L125.305 97.4781
L127.079 95.9214
L128.852 100.861
L130.626 101.454
L132.4 105.099
L134.173 100.922
L135.947 101.699
L137.72 101.887
L139.494 110.396
L141.267 113.819
L143.041 127.359
L144.814 111.497
L146.588 121.155
L148.361 118.19
L150.135 112.003
L151.908 114.763
L153.682 98.9044
L155.456 97.5072
L157.229 107.071
L159.003 103.599
L160.776 100.453
L162.55 108.807
L164.323 116.713
L166.097 108.685
L167.87 118.884
L169.644 103.591
L171.417 114.099
L173.191 111.578
L174.965 100.453
L176.738 99.2712
L178.512 109.877
L180.285 106.403
L182.059 117.823
L183.832 105.052
L185.606 112.801
L187.379 112.801
L189.153 111.409
L190.926 100.763
L192.7 90.7867
L194.473 107.421
L196.247 98.2117
L198.021 94.5522
L199.794 104.956
L201.568 105.017
L203.341 116.917
L205.115 102.607
L206.888 112.073
L208.662 100.779
L210.435 94.9515
L212.209 99.5891
L213.982 103.183
L215.756 96.3546
L217.529 103.224
L219.303 111.13
L221.077 112.304" style="fill:none;stroke:#0000ff;stroke-linecap:square;"/>
   </g>
   <g id="line2d_32">
    <path clip-path="url(#p217c292275)" d="
M43.7226 106.775
L45.4961 106.765
L47.2697 106.755
L49.0432 106.745
L50.8168 106.734
L52.5903 106.724
L54.3638 106.714
L56.1374 106.703
L57.9109 106.693
L59.6845 106.683
L61.458 106.673
L63.2315 106.662
L65.0051 106.652
L66.7786 106.642
L68.5522 106.631
L70.3257 106.621
L72.0992 106.611
L73.8728 106.601
L75.6463 106.59
L77.4198 106.58
L79.1934 106.57
L80.9669 106.559
L82.7405 106.549
L84.514 106.539
L86.2875 106.529
L88.0611 106.518
L89.8346 106.508
L91.6082 106.498
L93.3817 106.487
L95.1552 106.477
L96.9288 106.467
L98.7023 106.457
L100.476 106.446
L102.249 106.436
L104.023 106.426
L105.796 106.415
L107.57 106.405
L109.344 106.395
L111.117 106.385
L112.891 106.374
L114.664 106.364
L116.438 106.354
L118.211 106.343
L119.985 106.333
L121.758 106.323
L123.532 106.313
L125.305 106.302
L127.079 106.292
L128.852 106.282
L130.626 106.271
L132.4 106.261
L134.173 106.251
L135.947 106.241
L137.72 106.23
L139.494 106.22
L141.267 106.21
L143.041 106.199
L144.814 106.189
L146.588 106.179
L148.361 106.169
L150.135 106.158
L151.908 106.148
L153.682 106.138
L155.456 106.127
L157.229 106.117
L159.003 106.107
L160.776 106.097
L162.55 106.086
L164.323 106.076
L166.097 106.066
L167.87 106.055
L169.644 106.045
L171.417 106.035
L173.191 106.025
L174.965 106.014
L176.738 106.004
L178.512 105.994
L180.285 105.984
L182.059 105.973
L183.832 105.963
L185.606 105.953
L187.379 105.942
L189.153 105.932
L190.926 105.922
L192.7 105.912
L194.473 105.901
L196.247 105.891
L198.021 105.881
L199.794 105.87
L201.568 105.86
L203.341 105.85
L205.115 105.84
L206.888 105.829
L208.662 105.819
L210.435 105.809
L212.209 105.798
L213.982 105.788
L215.756 105.778
L217.529 105.768
L219.303 105.757
L221.077 105.747" style="fill:none;stroke:#0000ff;stroke-dasharray:6.000000,6.000000;stroke-dashoffset:0.0;"/>
   </g>
   <g id="patch_8">
    <path d="
M41.9491 28.76
L254.774 28.76" style="fill:none;stroke:#000000;stroke-linecap:square;stroke-linejoin:miter;"/>
   </g>
   <g id="patch_9">
    <path d="
M254.774 192.92
L254.774 28.76" style="fill:none;stroke:#000000;stroke-linecap:square;stroke-linejoin:miter;"/>
   </g>
   <g id="patch_10">
    <path d="
M41.9491 192.92
L254.774 192.92" style="fill:none;stroke:#000000;stroke-linecap:square;stroke-linejoin:miter;"/>
   </g>
   <g id="patch_11">
    <path d="
M41.9491 192.92
L41.9491 28.76" style="fill:none;stroke:#000000;stroke-linecap:square;stroke-linejoin:miter;"/>
   </g>
   <g id="matplotlib.axis_3">
    <g id="xtick_10">
     <g id="line2d_33">
      <g>
       <use style="stroke:#000000;stroke-width:0.5;" x="41.9490625" xlink:href="#m93b0483c22" y="192.92"/>
      </g>
     </g>
     <g id="line2d_34">
      <g>
       <use style="stroke:#000000;stroke-width:0.5;" x="41.9490625" xlink:href="#m741efc42ff" y="28.76"/>
      </g>
     </g>
     <g id="text_16">
      <!-- 0 -->
      <g transform="translate(38.925625 206.038125)scale(0.12 -0.12)">
       <use xlink:href="#BitstreamVeraSans-Roman-30"/>
      </g>
     </g>
    </g>
    <g id="xtick_11">
     <g id="line2d_35">
      <g>
       <use style="stroke:#000000;stroke-width:0.5;" x="77.4198461174" xlink:href="#m93b0483c22" y="192.92"/>
      </g>
     </g>
     <g id="line2d_36">
      <g>
       <use style="stroke:#000000;stroke-width:0.5;" x="77.4198461174" xlink:href="#m741efc42ff" y="28.76"/>
      </g>
     </g>
     <g id="text_17">
      <!-- 20 -->
      <g transform="translate(70.6229711174 206.038125)scale(0.12 -0.12)">
       <use xlink:href="#BitstreamVeraSans-Roman-32"/>
       <use x="63.623046875" xlink:href="#BitstreamVeraSans-Roman-30"/>
      </g>
     </g>
    </g>
    <g id="xtick_12">
     <g id="line2d_37">
      <g>
       <use style="stroke:#000000;stroke-width:0.5;" x="112.890629735" xlink:href="#m93b0483c22" y="192.92"/>
      </g>
     </g>
     <g id="line2d_38">
      <g>
       <use style="stroke:#000000;stroke-width:0.5;" x="112.890629735" xlink:href="#m741efc42ff" y="28.76"/>
      </g>
     </g>
     <g id="text_18">
      <!-- 40 -->
      <g transform="translate(105.947504735 206.038125)scale(0.12 -0.12)">
       <use xlink:href="#BitstreamVeraSans-Roman-34"/>
       <use x="63.623046875" xlink:href="#BitstreamVeraSans-Roman-30"/>
      </g>
     </g>
    </g>
    <g id="xtick_13">
     <g id="line2d_39">
      <g>
       <use style="stroke:#000000;stroke-width:0.5;" x="148.361413352" xlink:href="#m93b0483c22" y="192.92"/>
      </g>
     </g>
     <g id="line2d_40">
      <g>
       <use style="stroke:#000000;stroke-width:0.5;" x="148.361413352" xlink:href="#m741efc42ff" y="28.76"/>
      </g>
     </g>
     <g id="text_19">
      <!-- 60 -->
      <defs>
       <path d="
M33.0156 40.375
Q26.375 40.375 22.4844 35.8281
Q18.6094 31.2969 18.6094 23.3906
Q18.6094 15.5312 22.4844 10.9531
Q26.375 6.39062 33.0156 6.39062
Q39.6562 6.39062 43.5312 10.9531
Q47.4062 15.5312 47.4062 23.3906
Q47.4062 31.2969 43.5312 35.8281
Q39.6562 40.375 33.0156 40.375
M52.5938 71.2969
L52.5938 62.3125
Q48.875 64.0625 45.0938 64.9844
Q41.3125 65.9219 37.5938 65.9219
Q27.8281 65.9219 22.6719 59.3281
Q17.5312 52.7344 16.7969 39.4062
Q19.6719 43.6562 24.0156 45.9219
Q28.375 48.1875 33.5938 48.1875
Q44.5781 48.1875 50.9531 41.5156
Q57.3281 34.8594 57.3281 23.3906
Q57.3281 12.1562 50.6875 5.35938
Q44.0469 -1.42188 33.0156 -1.42188
Q20.3594 -1.42188 13.6719 8.26562
Q6.98438 17.9688 6.98438 36.375
Q6.98438 53.6562 15.1875 63.9375
Q23.3906 74.2188 37.2031 74.2188
Q40.9219 74.2188 44.7031 73.4844
Q48.4844 72.75 52.5938 71.2969" id="BitstreamVeraSans-Roman-36"/>
      </defs>
      <g transform="translate(141.543913352 206.038125)scale(0.12 -0.12)">
       <use xlink:href="#BitstreamVeraSans-Roman-36"/>
       <use x="63.623046875" xlink:href="#BitstreamVeraSans-Roman-30"/>
      </g>
     </g>
    </g>
    <g id="xtick_14">
     <g id="line2d_41">
      <g>
       <use style="stroke:#000000;stroke-width:0.5;" x="183.83219697" xlink:href="#m93b0483c22" y="192.92"/>
      </g>
     </g>
     <g id="line2d_42">
      <g>
       <use style="stroke:#000000;stroke-width:0.5;" x="183.83219697" xlink:href="#m741efc42ff" y="28.76"/>
      </g>
     </g>
     <g id="text_20">
      <!-- 80 -->
      <defs>
       <path d="
M31.7812 34.625
Q24.75 34.625 20.7188 30.8594
Q16.7031 27.0938 16.7031 20.5156
Q16.7031 13.9219 20.7188 10.1562
Q24.75 6.39062 31.7812 6.39062
Q38.8125 6.39062 42.8594 10.1719
Q46.9219 13.9688 46.9219 20.5156
Q46.9219 27.0938 42.8906 30.8594
Q38.875 34.625 31.7812 34.625
M21.9219 38.8125
Q15.5781 40.375 12.0312 44.7188
Q8.5 49.0781 8.5 55.3281
Q8.5 64.0625 14.7188 69.1406
Q20.9531 74.2188 31.7812 74.2188
Q42.6719 74.2188 48.875 69.1406
Q55.0781 64.0625 55.0781 55.3281
Q55.0781 49.0781 51.5312 44.7188
Q48 40.375 41.7031 38.8125
Q48.8281 37.1562 52.7969 32.3125
Q56.7812 27.4844 56.7812 20.5156
Q56.7812 9.90625 50.3125 4.23438
Q43.8438 -1.42188 31.7812 -1.42188
Q19.7344 -1.42188 13.25 4.23438
Q6.78125 9.90625 6.78125 20.5156
Q6.78125 27.4844 10.7812 32.3125
Q14.7969 37.1562 21.9219 38.8125
M18.3125 54.3906
Q18.3125 48.7344 21.8438 45.5625
Q25.3906 42.3906 31.7812 42.3906
Q38.1406 42.3906 41.7188 45.5625
Q45.3125 48.7344 45.3125 54.3906
Q45.3125 60.0625 41.7188 63.2344
Q38.1406 66.4062 31.7812 66.4062
Q25.3906 66.4062 21.8438 63.2344
Q18.3125 60.0625 18.3125 54.3906" id="BitstreamVeraSans-Roman-38"/>
      </defs>
      <g transform="translate(177.00250947 206.038125)scale(0.12 -0.12)">
       <use xlink:href="#BitstreamVeraSans-Roman-38"/>
       <use x="63.623046875" xlink:href="#BitstreamVeraSans-Roman-30"/>
      </g>
     </g>
    </g>
    <g id="xtick_15">
     <g id="line2d_43">
      <g>
       <use style="stroke:#000000;stroke-width:0.5;" x="219.302980587" xlink:href="#m93b0483c22" y="192.92"/>
      </g>
     </g>
     <g id="line2d_44">
      <g>
       <use style="stroke:#000000;stroke-width:0.5;" x="219.302980587" xlink:href="#m741efc42ff" y="28.76"/>
      </g>
     </g>
     <g id="text_21">
      <!-- 100 -->
      <g transform="translate(208.907980587 206.038125)scale(0.12 -0.12)">
       <use xlink:href="#BitstreamVeraSans-Roman-31"/>
       <use x="63.623046875" xlink:href="#BitstreamVeraSans-Roman-30"/>
       <use x="127.24609375" xlink:href="#BitstreamVeraSans-Roman-30"/>
      </g>
     </g>
    </g>
    <g id="xtick_16">
     <g id="line2d_45">
      <g>
       <use style="stroke:#000000;stroke-width:0.5;" x="254.773764205" xlink:href="#m93b0483c22" y="192.92"/>
      </g>
     </g>
     <g id="line2d_46">
      <g>
       <use style="stroke:#000000;stroke-width:0.5;" x="254.773764205" xlink:href="#m741efc42ff" y="28.76"/>
      </g>
     </g>
     <g id="text_22">
      <!-- 120 -->
      <g transform="translate(244.378764205 206.038125)scale(0.12 -0.12)">
       <use xlink:href="#BitstreamVeraSans-Roman-31"/>
       <use x="63.623046875" xlink:href="#BitstreamVeraSans-Roman-32"/>
       <use x="127.24609375" xlink:href="#BitstreamVeraSans-Roman-30"/>
      </g>
     </g>
    </g>
   </g>
   <g id="matplotlib.axis_4">
    <g id="ytick_6">
     <g id="line2d_47">
      <g>
       <use style="stroke:#000000;stroke-width:0.5;" x="41.9490625" xlink:href="#m728421d6d4" y="177.996363636"/>
      </g>
     </g>
     <g id="line2d_48">
      <g>
       <use style="stroke:#000000;stroke-width:0.5;" x="254.773764205" xlink:href="#mcb0005524f" y="177.996363636"/>
      </g>
     </g>
     <g id="text_23">
      <!-- 0.30 -->
      <g transform="translate(12.8184375 181.307613636)scale(0.12 -0.12)">
       <use xlink:href="#BitstreamVeraSans-Roman-30"/>
       <use x="63.623046875" xlink:href="#BitstreamVeraSans-Roman-2e"/>
       <use x="95.41015625" xlink:href="#BitstreamVeraSans-Roman-33"/>
       <use x="159.033203125" xlink:href="#BitstreamVeraSans-Roman-30"/>
      </g>
     </g>
    </g>
    <g id="ytick_7">
     <g id="line2d_49">
      <g>
       <use style="stroke:#000000;stroke-width:0.5;" x="41.9490625" xlink:href="#m728421d6d4" y="140.687272727"/>
      </g>
     </g>
     <g id="line2d_50">
      <g>
       <use style="stroke:#000000;stroke-width:0.5;" x="254.773764205" xlink:href="#mcb0005524f" y="140.687272727"/>
      </g>
     </g>
     <g id="text_24">
      <!-- 0.35 -->
      <g transform="translate(13.0696875 143.998522727)scale(0.12 -0.12)">
       <use xlink:href="#BitstreamVeraSans-Roman-30"/>
       <use x="63.623046875" xlink:href="#BitstreamVeraSans-Roman-2e"/>
       <use x="95.41015625" xlink:href="#BitstreamVeraSans-Roman-33"/>
       <use x="159.033203125" xlink:href="#BitstreamVeraSans-Roman-35"/>
      </g>
     </g>
    </g>
    <g id="ytick_8">
     <g id="line2d_51">
      <g>
       <use style="stroke:#000000;stroke-width:0.5;" x="41.9490625" xlink:href="#m728421d6d4" y="103.378181818"/>
      </g>
     </g>
     <g id="line2d_52">
      <g>
       <use style="stroke:#000000;stroke-width:0.5;" x="254.773764205" xlink:href="#mcb0005524f" y="103.378181818"/>
      </g>
     </g>
     <g id="text_25">
      <!-- 0.40 -->
      <g transform="translate(12.8184375 106.689431818)scale(0.12 -0.12)">
       <use xlink:href="#BitstreamVeraSans-Roman-30"/>
       <use x="63.623046875" xlink:href="#BitstreamVeraSans-Roman-2e"/>
       <use x="95.41015625" xlink:href="#BitstreamVeraSans-Roman-34"/>
       <use x="159.033203125" xlink:href="#BitstreamVeraSans-Roman-30"/>
      </g>
     </g>
    </g>
    <g id="ytick_9">
     <g id="line2d_53">
      <g>
       <use style="stroke:#000000;stroke-width:0.5;" x="41.9490625" xlink:href="#m728421d6d4" y="66.0690909091"/>
      </g>
     </g>
     <g id="line2d_54">
      <g>
       <use style="stroke:#000000;stroke-width:0.5;" x="254.773764205" xlink:href="#mcb0005524f" y="66.0690909091"/>
      </g>
     </g>
     <g id="text_26">
      <!-- 0.45 -->
      <g transform="translate(13.0696875 69.3803409091)scale(0.12 -0.12)">
       <use xlink:href="#BitstreamVeraSans-Roman-30"/>
       <use x="63.623046875" xlink:href="#BitstreamVeraSans-Roman-2e"/>
       <use x="95.41015625" xlink:href="#BitstreamVeraSans-Roman-34"/>
       <use x="159.033203125" xlink:href="#BitstreamVeraSans-Roman-35"/>
      </g>
     </g>
    </g>
    <g id="ytick_10">
     <g id="line2d_55">
      <g>
       <use style="stroke:#000000;stroke-width:0.5;" x="41.9490625" xlink:href="#m728421d6d4" y="28.76"/>
      </g>
     </g>
     <g id="line2d_56">
      <g>
       <use style="stroke:#000000;stroke-width:0.5;" x="254.773764205" xlink:href="#mcb0005524f" y="28.76"/>
      </g>
     </g>
     <g id="text_27">
      <!-- 0.50 -->
      <g transform="translate(12.8184375 32.07125)scale(0.12 -0.12)">
       <use xlink:href="#BitstreamVeraSans-Roman-30"/>
       <use x="63.623046875" xlink:href="#BitstreamVeraSans-Roman-2e"/>
       <use x="95.41015625" xlink:href="#BitstreamVeraSans-Roman-35"/>
       <use x="159.033203125" xlink:href="#BitstreamVeraSans-Roman-30"/>
      </g>
     </g>
    </g>
   </g>
   <g id="text_28">
    <!-- Pulse in Regular Trials before Stress -->
    <defs>
     <path d="
M44.3906 34.1875
Q47.5625 33.1094 50.5625 29.5938
Q53.5625 26.0781 56.5938 19.9219
L66.6094 0
L56 0
L46.6875 18.7031
Q43.0625 26.0312 39.6719 28.4219
Q36.2812 30.8125 30.4219 30.8125
L19.6719 30.8125
L19.6719 0
L9.8125 0
L9.8125 72.9062
L32.0781 72.9062
Q44.5781 72.9062 50.7344 67.6719
Q56.8906 62.4531 56.8906 51.9062
Q56.8906 45.0156 53.6875 40.4688
Q50.4844 35.9375 44.3906 34.1875
M19.6719 64.7969
L19.6719 38.9219
L32.0781 38.9219
Q39.2031 38.9219 42.8438 42.2188
Q46.4844 45.5156 46.4844 51.9062
Q46.4844 58.2969 42.8438 61.5469
Q39.2031 64.7969 32.0781 64.7969
z
" id="BitstreamVeraSans-Roman-52"/>
     <path d="
M37.1094 75.9844
L37.1094 68.5
L28.5156 68.5
Q23.6875 68.5 21.7969 66.5469
Q19.9219 64.5938 19.9219 59.5156
L19.9219 54.6875
L34.7188 54.6875
L34.7188 47.7031
L19.9219 47.7031
L19.9219 0
L10.8906 0
L10.8906 47.7031
L2.29688 47.7031
L2.29688 54.6875
L10.8906 54.6875
L10.8906 58.5
Q10.8906 67.625 15.1406 71.7969
Q19.3906 75.9844 28.6094 75.9844
z
" id="BitstreamVeraSans-Roman-66"/>
     <path d="
M45.4062 27.9844
Q45.4062 37.75 41.375 43.1094
Q37.3594 48.4844 30.0781 48.4844
Q22.8594 48.4844 18.8281 43.1094
Q14.7969 37.75 14.7969 27.9844
Q14.7969 18.2656 18.8281 12.8906
Q22.8594 7.51562 30.0781 7.51562
Q37.3594 7.51562 41.375 12.8906
Q45.4062 18.2656 45.4062 27.9844
M54.3906 6.78125
Q54.3906 -7.17188 48.1875 -13.9844
Q42 -20.7969 29.2031 -20.7969
Q24.4688 -20.7969 20.2656 -20.0938
Q16.0625 -19.3906 12.1094 -17.9219
L12.1094 -9.1875
Q16.0625 -11.3281 19.9219 -12.3438
Q23.7812 -13.375 27.7812 -13.375
Q36.625 -13.375 41.0156 -8.76562
Q45.4062 -4.15625 45.4062 5.17188
L45.4062 9.625
Q42.625 4.78125 38.2812 2.39062
Q33.9375 0 27.875 0
Q17.8281 0 11.6719 7.65625
Q5.51562 15.3281 5.51562 27.9844
Q5.51562 40.6719 11.6719 48.3281
Q17.8281 56 27.875 56
Q33.9375 56 38.2812 53.6094
Q42.625 51.2188 45.4062 46.3906
L45.4062 54.6875
L54.3906 54.6875
z
" id="BitstreamVeraSans-Roman-67"/>
     <path d="
M30.6094 48.3906
Q23.3906 48.3906 19.1875 42.75
Q14.9844 37.1094 14.9844 27.2969
Q14.9844 17.4844 19.1562 11.8438
Q23.3438 6.20312 30.6094 6.20312
Q37.7969 6.20312 41.9844 11.8594
Q46.1875 17.5312 46.1875 27.2969
Q46.1875 37.0156 41.9844 42.7031
Q37.7969 48.3906 30.6094 48.3906
M30.6094 56
Q42.3281 56 49.0156 48.375
Q55.7188 40.7656 55.7188 27.2969
Q55.7188 13.875 49.0156 6.21875
Q42.3281 -1.42188 30.6094 -1.42188
Q18.8438 -1.42188 12.1719 6.21875
Q5.51562 13.875 5.51562 27.2969
Q5.51562 40.7656 12.1719 48.375
Q18.8438 56 30.6094 56" id="BitstreamVeraSans-Roman-6f"/>
     <path d="
M48.6875 27.2969
Q48.6875 37.2031 44.6094 42.8438
Q40.5312 48.4844 33.4062 48.4844
Q26.2656 48.4844 22.1875 42.8438
Q18.1094 37.2031 18.1094 27.2969
Q18.1094 17.3906 22.1875 11.75
Q26.2656 6.10938 33.4062 6.10938
Q40.5312 6.10938 44.6094 11.75
Q48.6875 17.3906 48.6875 27.2969
M18.1094 46.3906
Q20.9531 51.2656 25.2656 53.625
Q29.5938 56 35.5938 56
Q45.5625 56 51.7812 48.0938
Q58.0156 40.1875 58.0156 27.2969
Q58.0156 14.4062 51.7812 6.48438
Q45.5625 -1.42188 35.5938 -1.42188
Q29.5938 -1.42188 25.2656 0.953125
Q20.9531 3.32812 18.1094 8.20312
L18.1094 0
L9.07812 0
L9.07812 75.9844
L18.1094 75.9844
z
" id="BitstreamVeraSans-Roman-62"/>
    </defs>
    <g transform="translate(20.3814133523 23.76)scale(0.144 -0.144)">
     <use xlink:href="#BitstreamVeraSans-Roman-50"/>
     <use x="58.552734375" xlink:href="#BitstreamVeraSans-Roman-75"/>
     <use x="121.931640625" xlink:href="#BitstreamVeraSans-Roman-6c"/>
     <use x="149.71484375" xlink:href="#BitstreamVeraSans-Roman-73"/>
     <use x="201.814453125" xlink:href="#BitstreamVeraSans-Roman-65"/>
     <use x="263.337890625" xlink:href="#BitstreamVeraSans-Roman-20"/>
     <use x="295.125" xlink:href="#BitstreamVeraSans-Roman-69"/>
     <use x="322.908203125" xlink:href="#BitstreamVeraSans-Roman-6e"/>
     <use x="386.287109375" xlink:href="#BitstreamVeraSans-Roman-20"/>
     <use x="418.07421875" xlink:href="#BitstreamVeraSans-Roman-52"/>
     <use x="483.056640625" xlink:href="#BitstreamVeraSans-Roman-65"/>
     <use x="544.580078125" xlink:href="#BitstreamVeraSans-Roman-67"/>
     <use x="608.056640625" xlink:href="#BitstreamVeraSans-Roman-75"/>
     <use x="671.435546875" xlink:href="#BitstreamVeraSans-Roman-6c"/>
     <use x="699.21875" xlink:href="#BitstreamVeraSans-Roman-61"/>
     <use x="760.498046875" xlink:href="#BitstreamVeraSans-Roman-72"/>
     <use x="801.611328125" xlink:href="#BitstreamVeraSans-Roman-20"/>
     <use x="833.3984375" xlink:href="#BitstreamVeraSans-Roman-54"/>
     <use x="879.732421875" xlink:href="#BitstreamVeraSans-Roman-72"/>
     <use x="920.845703125" xlink:href="#BitstreamVeraSans-Roman-69"/>
     <use x="948.62890625" xlink:href="#BitstreamVeraSans-Roman-61"/>
     <use x="1009.90820312" xlink:href="#BitstreamVeraSans-Roman-6c"/>
     <use x="1037.69140625" xlink:href="#BitstreamVeraSans-Roman-73"/>
     <use x="1089.79101562" xlink:href="#BitstreamVeraSans-Roman-20"/>
     <use x="1121.578125" xlink:href="#BitstreamVeraSans-Roman-62"/>
     <use x="1185.0546875" xlink:href="#BitstreamVeraSans-Roman-65"/>
     <use x="1246.578125" xlink:href="#BitstreamVeraSans-Roman-66"/>
     <use x="1281.78320312" xlink:href="#BitstreamVeraSans-Roman-6f"/>
     <use x="1342.96484375" xlink:href="#BitstreamVeraSans-Roman-72"/>
     <use x="1381.828125" xlink:href="#BitstreamVeraSans-Roman-65"/>
     <use x="1443.3515625" xlink:href="#BitstreamVeraSans-Roman-20"/>
     <use x="1475.13867188" xlink:href="#BitstreamVeraSans-Roman-53"/>
     <use x="1538.61523438" xlink:href="#BitstreamVeraSans-Roman-74"/>
     <use x="1577.82421875" xlink:href="#BitstreamVeraSans-Roman-72"/>
     <use x="1616.6875" xlink:href="#BitstreamVeraSans-Roman-65"/>
     <use x="1678.2109375" xlink:href="#BitstreamVeraSans-Roman-73"/>
     <use x="1730.31054688" xlink:href="#BitstreamVeraSans-Roman-73"/>
    </g>
   </g>
  </g>
  <g id="axes_3">
   <g id="patch_12">
    <path d="
M323.469 402.44
L536.294 402.44
L536.294 238.28
L323.469 238.28
z
" style="fill:#ffffff;"/>
   </g>
   <g id="line2d_57">
    <path clip-path="url(#p13eebda5b1)" d="
M324.32 339.324
L325.172 310.095
L326.023 315.026
L326.874 319.061
L327.726 319.288
L328.577 329.732
L329.428 330.724
L330.279 337.806
L331.131 330.256
L331.982 333.009
L332.833 326.885
L333.685 332.924
L334.536 322.899
L335.387 308.596
L336.239 304.146
L337.09 312.483
L337.941 308.596
L338.792 299.079
L339.644 303.877
L340.495 283.919
L341.346 292.124
L342.198 289.896
L343.049 282.941
L343.9 289.706
L344.752 283.376
L345.603 285.223
L346.454 294.352
L348.157 287.261
L349.008 285.196
L349.859 279.083
L350.711 270.743
L351.562 281.067
L352.413 288.809
L353.265 288.592
L354.116 282.506
L354.967 295.085
L355.818 290.059
L356.67 276.91
L357.521 286.147
L358.372 288.157
L359.224 302.458
L360.075 289.326
L360.926 296.09
L361.778 298.916
L362.629 292.885
L363.48 296.96
L364.331 289.434
L365.183 289.543
L366.034 290.412
L366.885 292.45
L367.737 286.038
L368.588 296.308
L369.439 299.5
L370.29 285.033
L371.142 289.163
L371.993 284.381
L372.844 288.701
L373.696 299.894
L374.547 294.879
L375.398 296.824
L376.25 285.93
L377.101 290.983
L377.952 294.732
L378.803 284.734
L379.655 283.946
L380.506 265.544
L381.357 285.169
L382.209 286.717
L383.06 292.26
L383.911 290.63
L384.763 280.931
L385.614 303.877
L386.465 294.053
L387.316 290.983
L388.168 278.975
L389.019 294.976
L389.87 303.852
L390.722 290.847
L391.573 294.27
L392.424 282.045
L393.276 291.798
L394.127 298.4
L394.978 299.255
L395.829 284.571
L396.681 282.778
L397.532 281.393
L398.383 286.391
L399.235 292.803
L400.086 282.724
L400.937 291.58
L401.789 277.589
L402.64 276.312
L403.491 291.499
L404.342 294.623
L405.194 288.565
L406.045 303.901
L406.896 293.045
L407.748 308.131
L410.302 275.497
L411.153 282.017
L412.855 301.116
L414.558 345.488
L415.409 323.242
L416.261 288.32
L417.112 296.199
L417.963 306.077
L418.815 345.012
L419.666 365.22
L420.517 365.15
L421.368 359.71
M423.071 338.01
L423.922 333.26
L424.774 332.117
L425.625 336.787
L426.476 335.181
L427.328 320.161
M429.03 325.051
L429.881 341.7
L430.733 337.399
L431.584 317.52
L432.435 325.866
L433.287 312.54
L434.138 311.929
L434.989 314.39
L435.841 320.356
L436.692 331.583
L437.543 331.604
L438.394 324.269
L439.246 321.775
L440.097 322.948
L440.948 308.913
L441.8 318.327
L442.651 337.57
L443.502 315.108
L444.353 324.399
L445.205 330.705
L446.056 311.297
L446.907 321.97
L447.759 324.984
M451.164 318.474
L452.015 332.875
L452.866 337.949
L453.718 334.465
L454.569 316.167
L455.42 326.665
L456.272 329.697
M457.974 354.148
L458.826 328.785
L459.677 332.208
L460.528 330.96
L462.231 305.319
L463.082 307.422
L463.933 325.271
M465.636 342.533
L466.487 341.655
L467.339 338.677
L468.19 349.746
L469.041 335.965
L469.892 335.543
L471.595 282.045
L472.446 303.021
L473.298 310.234
L474.149 299.451
L475 293.564
L475.852 295.873
L476.703 298.717
L477.554 327.629
L478.405 350.305
L479.257 352.192
M480.959 345.101
L481.811 333.574
L482.662 332.295
L483.513 331.734
L484.365 332.305
L485.216 314.985
L486.067 326.192
L486.918 325.873
L487.77 342.922
L488.621 347.872
L489.472 344.078
L490.324 333.92
L491.175 315.491
L492.026 304.39
L492.878 298.106
L493.729 299.5
L494.58 297.348
L495.431 295.9
L497.134 274.737
L497.985 283.892
L498.837 290.63
L499.688 272.753
L500.539 282.724
L501.391 290.059
L502.242 279.926
L503.093 279.246
L503.944 281.42
L504.796 283.267
L505.647 293.89
L506.498 294.161
L507.35 287.478
L509.052 282.805
L509.904 277.643
L510.755 287.859
L511.606 282.67
L512.457 296.362
L513.309 301.144
L514.16 294.216
L515.011 275.932
L515.863 277.589
L516.714 284.408
L517.565 293.102
L518.416 291.553
L519.268 280.279
L520.119 276.394
L520.97 277.725
L521.822 289.434
L522.673 291.146
L523.524 275.063
L524.376 278.54
L525.227 276.312
L526.078 276.883
L526.929 308.718
L527.781 315.344
L528.632 317.911
L529.483 309.5
L530.335 296.28
L531.186 311.09
L532.037 332.675
L532.037 332.675" style="fill:none;stroke:#ff0000;stroke-linecap:square;"/>
   </g>
   <g id="line2d_58">
    <path clip-path="url(#p13eebda5b1)" d="
M324.32 301.995
L526.078 308.364
L526.078 308.364" style="fill:none;stroke:#ff0000;stroke-dasharray:6.000000,6.000000;stroke-dashoffset:0.0;"/>
   </g>
   <g id="patch_13">
    <path d="
M323.469 238.28
L536.294 238.28" style="fill:none;stroke:#000000;stroke-linecap:square;stroke-linejoin:miter;"/>
   </g>
   <g id="patch_14">
    <path d="
M536.294 402.44
L536.294 238.28" style="fill:none;stroke:#000000;stroke-linecap:square;stroke-linejoin:miter;"/>
   </g>
   <g id="patch_15">
    <path d="
M323.469 402.44
L536.294 402.44" style="fill:none;stroke:#000000;stroke-linecap:square;stroke-linejoin:miter;"/>
   </g>
   <g id="patch_16">
    <path d="
M323.469 402.44
L323.469 238.28" style="fill:none;stroke:#000000;stroke-linecap:square;stroke-linejoin:miter;"/>
   </g>
   <g id="matplotlib.axis_5">
    <g id="xtick_17">
     <g id="line2d_59">
      <g>
       <use style="stroke:#000000;stroke-width:0.5;" x="323.4690625" xlink:href="#m93b0483c22" y="402.44"/>
      </g>
     </g>
     <g id="line2d_60">
      <g>
       <use style="stroke:#000000;stroke-width:0.5;" x="323.4690625" xlink:href="#m741efc42ff" y="238.28"/>
      </g>
     </g>
     <g id="text_29">
      <!-- 0 -->
      <g transform="translate(320.445625 415.558125)scale(0.12 -0.12)">
       <use xlink:href="#BitstreamVeraSans-Roman-30"/>
      </g>
     </g>
    </g>
    <g id="xtick_18">
     <g id="line2d_61">
      <g>
       <use style="stroke:#000000;stroke-width:0.5;" x="366.034002841" xlink:href="#m93b0483c22" y="402.44"/>
      </g>
     </g>
     <g id="line2d_62">
      <g>
       <use style="stroke:#000000;stroke-width:0.5;" x="366.034002841" xlink:href="#m741efc42ff" y="238.28"/>
      </g>
     </g>
     <g id="text_30">
      <!-- 50 -->
      <g transform="translate(359.260565341 415.558125)scale(0.12 -0.12)">
       <use xlink:href="#BitstreamVeraSans-Roman-35"/>
       <use x="63.623046875" xlink:href="#BitstreamVeraSans-Roman-30"/>
      </g>
     </g>
    </g>
    <g id="xtick_19">
     <g id="line2d_63">
      <g>
       <use style="stroke:#000000;stroke-width:0.5;" x="408.598943182" xlink:href="#m93b0483c22" y="402.44"/>
      </g>
     </g>
     <g id="line2d_64">
      <g>
       <use style="stroke:#000000;stroke-width:0.5;" x="408.598943182" xlink:href="#m741efc42ff" y="238.28"/>
      </g>
     </g>
     <g id="text_31">
      <!-- 100 -->
      <g transform="translate(398.203943182 415.558125)scale(0.12 -0.12)">
       <use xlink:href="#BitstreamVeraSans-Roman-31"/>
       <use x="63.623046875" xlink:href="#BitstreamVeraSans-Roman-30"/>
       <use x="127.24609375" xlink:href="#BitstreamVeraSans-Roman-30"/>
      </g>
     </g>
    </g>
    <g id="xtick_20">
     <g id="line2d_65">
      <g>
       <use style="stroke:#000000;stroke-width:0.5;" x="451.163883523" xlink:href="#m93b0483c22" y="402.44"/>
      </g>
     </g>
     <g id="line2d_66">
      <g>
       <use style="stroke:#000000;stroke-width:0.5;" x="451.163883523" xlink:href="#m741efc42ff" y="238.28"/>
      </g>
     </g>
     <g id="text_32">
      <!-- 150 -->
      <g transform="translate(440.768883523 415.558125)scale(0.12 -0.12)">
       <use xlink:href="#BitstreamVeraSans-Roman-31"/>
       <use x="63.623046875" xlink:href="#BitstreamVeraSans-Roman-35"/>
       <use x="127.24609375" xlink:href="#BitstreamVeraSans-Roman-30"/>
      </g>
     </g>
    </g>
    <g id="xtick_21">
     <g id="line2d_67">
      <g>
       <use style="stroke:#000000;stroke-width:0.5;" x="493.728823864" xlink:href="#m93b0483c22" y="402.44"/>
      </g>
     </g>
     <g id="line2d_68">
      <g>
       <use style="stroke:#000000;stroke-width:0.5;" x="493.728823864" xlink:href="#m741efc42ff" y="238.28"/>
      </g>
     </g>
     <g id="text_33">
      <!-- 200 -->
      <g transform="translate(483.114448864 415.558125)scale(0.12 -0.12)">
       <use xlink:href="#BitstreamVeraSans-Roman-32"/>
       <use x="63.623046875" xlink:href="#BitstreamVeraSans-Roman-30"/>
       <use x="127.24609375" xlink:href="#BitstreamVeraSans-Roman-30"/>
      </g>
     </g>
    </g>
    <g id="xtick_22">
     <g id="line2d_69">
      <g>
       <use style="stroke:#000000;stroke-width:0.5;" x="536.293764205" xlink:href="#m93b0483c22" y="402.44"/>
      </g>
     </g>
     <g id="line2d_70">
      <g>
       <use style="stroke:#000000;stroke-width:0.5;" x="536.293764205" xlink:href="#m741efc42ff" y="238.28"/>
      </g>
     </g>
     <g id="text_34">
      <!-- 250 -->
      <g transform="translate(525.679389205 415.558125)scale(0.12 -0.12)">
       <use xlink:href="#BitstreamVeraSans-Roman-32"/>
       <use x="63.623046875" xlink:href="#BitstreamVeraSans-Roman-35"/>
       <use x="127.24609375" xlink:href="#BitstreamVeraSans-Roman-30"/>
      </g>
     </g>
    </g>
   </g>
   <g id="matplotlib.axis_6">
    <g id="ytick_11">
     <g id="line2d_71">
      <g>
       <use style="stroke:#000000;stroke-width:0.5;" x="323.4690625" xlink:href="#m728421d6d4" y="387.516363636"/>
      </g>
     </g>
     <g id="line2d_72">
      <g>
       <use style="stroke:#000000;stroke-width:0.5;" x="536.293764205" xlink:href="#mcb0005524f" y="387.516363636"/>
      </g>
     </g>
     <g id="text_35">
      <!-- 0.30 -->
      <g transform="translate(294.3384375 390.827613636)scale(0.12 -0.12)">
       <use xlink:href="#BitstreamVeraSans-Roman-30"/>
       <use x="63.623046875" xlink:href="#BitstreamVeraSans-Roman-2e"/>
       <use x="95.41015625" xlink:href="#BitstreamVeraSans-Roman-33"/>
       <use x="159.033203125" xlink:href="#BitstreamVeraSans-Roman-30"/>
      </g>
     </g>
    </g>
    <g id="ytick_12">
     <g id="line2d_73">
      <g>
       <use style="stroke:#000000;stroke-width:0.5;" x="323.4690625" xlink:href="#m728421d6d4" y="350.207272727"/>
      </g>
     </g>
     <g id="line2d_74">
      <g>
       <use style="stroke:#000000;stroke-width:0.5;" x="536.293764205" xlink:href="#mcb0005524f" y="350.207272727"/>
      </g>
     </g>
     <g id="text_36">
      <!-- 0.35 -->
      <g transform="translate(294.5896875 353.518522727)scale(0.12 -0.12)">
       <use xlink:href="#BitstreamVeraSans-Roman-30"/>
       <use x="63.623046875" xlink:href="#BitstreamVeraSans-Roman-2e"/>
       <use x="95.41015625" xlink:href="#BitstreamVeraSans-Roman-33"/>
       <use x="159.033203125" xlink:href="#BitstreamVeraSans-Roman-35"/>
      </g>
     </g>
    </g>
    <g id="ytick_13">
     <g id="line2d_75">
      <g>
       <use style="stroke:#000000;stroke-width:0.5;" x="323.4690625" xlink:href="#m728421d6d4" y="312.898181818"/>
      </g>
     </g>
     <g id="line2d_76">
      <g>
       <use style="stroke:#000000;stroke-width:0.5;" x="536.293764205" xlink:href="#mcb0005524f" y="312.898181818"/>
      </g>
     </g>
     <g id="text_37">
      <!-- 0.40 -->
      <g transform="translate(294.3384375 316.209431818)scale(0.12 -0.12)">
       <use xlink:href="#BitstreamVeraSans-Roman-30"/>
       <use x="63.623046875" xlink:href="#BitstreamVeraSans-Roman-2e"/>
       <use x="95.41015625" xlink:href="#BitstreamVeraSans-Roman-34"/>
       <use x="159.033203125" xlink:href="#BitstreamVeraSans-Roman-30"/>
      </g>
     </g>
    </g>
    <g id="ytick_14">
     <g id="line2d_77">
      <g>
       <use style="stroke:#000000;stroke-width:0.5;" x="323.4690625" xlink:href="#m728421d6d4" y="275.589090909"/>
      </g>
     </g>
     <g id="line2d_78">
      <g>
       <use style="stroke:#000000;stroke-width:0.5;" x="536.293764205" xlink:href="#mcb0005524f" y="275.589090909"/>
      </g>
     </g>
     <g id="text_38">
      <!-- 0.45 -->
      <g transform="translate(294.5896875 278.900340909)scale(0.12 -0.12)">
       <use xlink:href="#BitstreamVeraSans-Roman-30"/>
       <use x="63.623046875" xlink:href="#BitstreamVeraSans-Roman-2e"/>
       <use x="95.41015625" xlink:href="#BitstreamVeraSans-Roman-34"/>
       <use x="159.033203125" xlink:href="#BitstreamVeraSans-Roman-35"/>
      </g>
     </g>
    </g>
    <g id="ytick_15">
     <g id="line2d_79">
      <g>
       <use style="stroke:#000000;stroke-width:0.5;" x="323.4690625" xlink:href="#m728421d6d4" y="238.28"/>
      </g>
     </g>
     <g id="line2d_80">
      <g>
       <use style="stroke:#000000;stroke-width:0.5;" x="536.293764205" xlink:href="#mcb0005524f" y="238.28"/>
      </g>
     </g>
     <g id="text_39">
      <!-- 0.50 -->
      <g transform="translate(294.3384375 241.59125)scale(0.12 -0.12)">
       <use xlink:href="#BitstreamVeraSans-Roman-30"/>
       <use x="63.623046875" xlink:href="#BitstreamVeraSans-Roman-2e"/>
       <use x="95.41015625" xlink:href="#BitstreamVeraSans-Roman-35"/>
       <use x="159.033203125" xlink:href="#BitstreamVeraSans-Roman-30"/>
      </g>
     </g>
    </g>
   </g>
   <g id="text_40">
    <!-- Pulse in Stress Trials -->
    <g transform="translate(357.262663352 233.28)scale(0.144 -0.144)">
     <use xlink:href="#BitstreamVeraSans-Roman-50"/>
     <use x="58.552734375" xlink:href="#BitstreamVeraSans-Roman-75"/>
     <use x="121.931640625" xlink:href="#BitstreamVeraSans-Roman-6c"/>
     <use x="149.71484375" xlink:href="#BitstreamVeraSans-Roman-73"/>
     <use x="201.814453125" xlink:href="#BitstreamVeraSans-Roman-65"/>
     <use x="263.337890625" xlink:href="#BitstreamVeraSans-Roman-20"/>
     <use x="295.125" xlink:href="#BitstreamVeraSans-Roman-69"/>
     <use x="322.908203125" xlink:href="#BitstreamVeraSans-Roman-6e"/>
     <use x="386.287109375" xlink:href="#BitstreamVeraSans-Roman-20"/>
     <use x="418.07421875" xlink:href="#BitstreamVeraSans-Roman-53"/>
     <use x="481.55078125" xlink:href="#BitstreamVeraSans-Roman-74"/>
     <use x="520.759765625" xlink:href="#BitstreamVeraSans-Roman-72"/>
     <use x="559.623046875" xlink:href="#BitstreamVeraSans-Roman-65"/>
     <use x="621.146484375" xlink:href="#BitstreamVeraSans-Roman-73"/>
     <use x="673.24609375" xlink:href="#BitstreamVeraSans-Roman-73"/>
     <use x="725.345703125" xlink:href="#BitstreamVeraSans-Roman-20"/>
     <use x="757.1328125" xlink:href="#BitstreamVeraSans-Roman-54"/>
     <use x="803.466796875" xlink:href="#BitstreamVeraSans-Roman-72"/>
     <use x="844.580078125" xlink:href="#BitstreamVeraSans-Roman-69"/>
     <use x="872.36328125" xlink:href="#BitstreamVeraSans-Roman-61"/>
     <use x="933.642578125" xlink:href="#BitstreamVeraSans-Roman-6c"/>
     <use x="961.42578125" xlink:href="#BitstreamVeraSans-Roman-73"/>
    </g>
   </g>
  </g>
  <g id="axes_4">
   <g id="patch_17">
    <path d="
M323.469 192.92
L536.294 192.92
L536.294 28.76
L323.469 28.76
z
" style="fill:#ffffff;"/>
   </g>
   <g id="line2d_81">
    <path clip-path="url(#pe160646a53)" d="
M325.243 83.8846
L327.016 153.348
L328.79 128.001
L330.563 128.49
L332.337 107.136
L334.11 111.863
L335.884 109.581
L337.657 105.262
L339.431 105.099
L341.204 108.033
L342.978 113.656
L344.752 98.3665
L346.525 115.857
L348.299 103.306
L350.072 113.575
L351.846 98.5784
L353.619 107.299
L355.393 92.8732
L357.166 94.7478
L358.94 106.484
L360.713 81.9111
L362.487 98.3339
L364.26 74.209
L366.034 89.4501
L367.808 109.663
L369.581 115.124
L371.355 109.907
L373.128 105.995
L374.902 108.766
L376.675 98.1709
L378.449 112.475
L380.222 101.431
L381.996 111.374
L383.769 101.268
L385.543 106.179
L387.316 98.1709
L389.09 114.308
L390.864 109.5
L392.637 107.87
L394.411 97.1929
L396.184 115.287
L397.958 103.713
L399.731 106.566
L401.505 116.203
L403.278 105.262
L405.052 125.637
L406.825 107.707
L408.599 100.127
L410.372 106.362
L412.146 97.4374
L413.92 103.876
L415.693 109.255
L417.467 99.0674
L419.24 96.8669
L421.014 94.4218
L422.787 114.186
L424.561 116.102
L426.334 130.283
L428.108 113.33
L429.881 122.296
L431.655 120.992
L433.428 115.694
L435.202 113.738
L436.976 98.9859
L438.749 109.826
L440.523 107.707
L442.296 115.205
L444.07 94.5033
L445.843 115.857
L447.617 116.102
L449.39 109.663
L451.164 120.584
L452.937 108.929
L454.711 119.688
L456.485 116.815
L458.258 107.218
L460.032 103.469
L461.805 119.769
L463.579 103.55
L465.352 115.531
L467.126 111.782
L468.899 115.939
L470.673 103.306
L472.446 113.575
L474.22 104.121
L475.993 88.2683
L477.767 110.478
L479.541 90.8356
L481.314 105.262
L483.088 103.061
L484.861 111.374
L486.635 116.998
L488.408 105.873
L490.182 105.669
L491.955 94.7478
L493.729 101.961
L495.502 106.973
L497.276 104.773
L499.049 106.851
L500.823 107.707
L502.597 124.415
L504.37 116.02" style="fill:none;stroke:#0000ff;stroke-linecap:square;"/>
   </g>
   <g id="line2d_82">
    <path clip-path="url(#pe160646a53)" d="
M325.243 106.868
L327.016 106.889
L328.79 106.909
L330.563 106.929
L332.337 106.949
L334.11 106.969
L335.884 106.989
L337.657 107.01
L339.431 107.03
L341.204 107.05
L342.978 107.07
L344.752 107.09
L346.525 107.111
L348.299 107.131
L350.072 107.151
L351.846 107.171
L353.619 107.191
L355.393 107.211
L357.166 107.232
L358.94 107.252
L360.713 107.272
L362.487 107.292
L364.26 107.312
L366.034 107.333
L367.808 107.353
L369.581 107.373
L371.355 107.393
L373.128 107.413
L374.902 107.434
L376.675 107.454
L378.449 107.474
L380.222 107.494
L381.996 107.514
L383.769 107.534
L385.543 107.555
L387.316 107.575
L389.09 107.595
L390.864 107.615
L392.637 107.635
L394.411 107.656
L396.184 107.676
L397.958 107.696
L399.731 107.716
L401.505 107.736
L403.278 107.756
L405.052 107.777
L406.825 107.797
L408.599 107.817
L410.372 107.837
L412.146 107.857
L413.92 107.878
L415.693 107.898
L417.467 107.918
L419.24 107.938
L421.014 107.958
L422.787 107.978
L424.561 107.999
L426.334 108.019
L428.108 108.039
L429.881 108.059
L431.655 108.079
L433.428 108.1
L435.202 108.12
L436.976 108.14
L438.749 108.16
L440.523 108.18
L442.296 108.2
L444.07 108.221
L445.843 108.241
L447.617 108.261
L449.39 108.281
L451.164 108.301
L452.937 108.322
L454.711 108.342
L456.485 108.362
L458.258 108.382
L460.032 108.402
L461.805 108.422
L463.579 108.443
L465.352 108.463
L467.126 108.483
L468.899 108.503
L470.673 108.523
L472.446 108.544
L474.22 108.564
L475.993 108.584
L477.767 108.604
L479.541 108.624
L481.314 108.644
L483.088 108.665
L484.861 108.685
L486.635 108.705
L488.408 108.725
L490.182 108.745
L491.955 108.766
L493.729 108.786
L495.502 108.806
L497.276 108.826
L499.049 108.846
L500.823 108.867
L502.597 108.887
L504.37 108.907" style="fill:none;stroke:#0000ff;stroke-dasharray:6.000000,6.000000;stroke-dashoffset:0.0;"/>
   </g>
   <g id="patch_18">
    <path d="
M323.469 28.76
L536.294 28.76" style="fill:none;stroke:#000000;stroke-linecap:square;stroke-linejoin:miter;"/>
   </g>
   <g id="patch_19">
    <path d="
M536.294 192.92
L536.294 28.76" style="fill:none;stroke:#000000;stroke-linecap:square;stroke-linejoin:miter;"/>
   </g>
   <g id="patch_20">
    <path d="
M323.469 192.92
L536.294 192.92" style="fill:none;stroke:#000000;stroke-linecap:square;stroke-linejoin:miter;"/>
   </g>
   <g id="patch_21">
    <path d="
M323.469 192.92
L323.469 28.76" style="fill:none;stroke:#000000;stroke-linecap:square;stroke-linejoin:miter;"/>
   </g>
   <g id="matplotlib.axis_7">
    <g id="xtick_23">
     <g id="line2d_83">
      <g>
       <use style="stroke:#000000;stroke-width:0.5;" x="323.4690625" xlink:href="#m93b0483c22" y="192.92"/>
      </g>
     </g>
     <g id="line2d_84">
      <g>
       <use style="stroke:#000000;stroke-width:0.5;" x="323.4690625" xlink:href="#m741efc42ff" y="28.76"/>
      </g>
     </g>
     <g id="text_41">
      <!-- 0 -->
      <g transform="translate(320.445625 206.038125)scale(0.12 -0.12)">
       <use xlink:href="#BitstreamVeraSans-Roman-30"/>
      </g>
     </g>
    </g>
    <g id="xtick_24">
     <g id="line2d_85">
      <g>
       <use style="stroke:#000000;stroke-width:0.5;" x="358.939846117" xlink:href="#m93b0483c22" y="192.92"/>
      </g>
     </g>
     <g id="line2d_86">
      <g>
       <use style="stroke:#000000;stroke-width:0.5;" x="358.939846117" xlink:href="#m741efc42ff" y="28.76"/>
      </g>
     </g>
     <g id="text_42">
      <!-- 20 -->
      <g transform="translate(352.142971117 206.038125)scale(0.12 -0.12)">
       <use xlink:href="#BitstreamVeraSans-Roman-32"/>
       <use x="63.623046875" xlink:href="#BitstreamVeraSans-Roman-30"/>
      </g>
     </g>
    </g>
    <g id="xtick_25">
     <g id="line2d_87">
      <g>
       <use style="stroke:#000000;stroke-width:0.5;" x="394.410629735" xlink:href="#m93b0483c22" y="192.92"/>
      </g>
     </g>
     <g id="line2d_88">
      <g>
       <use style="stroke:#000000;stroke-width:0.5;" x="394.410629735" xlink:href="#m741efc42ff" y="28.76"/>
      </g>
     </g>
     <g id="text_43">
      <!-- 40 -->
      <g transform="translate(387.467504735 206.038125)scale(0.12 -0.12)">
       <use xlink:href="#BitstreamVeraSans-Roman-34"/>
       <use x="63.623046875" xlink:href="#BitstreamVeraSans-Roman-30"/>
      </g>
     </g>
    </g>
    <g id="xtick_26">
     <g id="line2d_89">
      <g>
       <use style="stroke:#000000;stroke-width:0.5;" x="429.881413352" xlink:href="#m93b0483c22" y="192.92"/>
      </g>
     </g>
     <g id="line2d_90">
      <g>
       <use style="stroke:#000000;stroke-width:0.5;" x="429.881413352" xlink:href="#m741efc42ff" y="28.76"/>
      </g>
     </g>
     <g id="text_44">
      <!-- 60 -->
      <g transform="translate(423.063913352 206.038125)scale(0.12 -0.12)">
       <use xlink:href="#BitstreamVeraSans-Roman-36"/>
       <use x="63.623046875" xlink:href="#BitstreamVeraSans-Roman-30"/>
      </g>
     </g>
    </g>
    <g id="xtick_27">
     <g id="line2d_91">
      <g>
       <use style="stroke:#000000;stroke-width:0.5;" x="465.35219697" xlink:href="#m93b0483c22" y="192.92"/>
      </g>
     </g>
     <g id="line2d_92">
      <g>
       <use style="stroke:#000000;stroke-width:0.5;" x="465.35219697" xlink:href="#m741efc42ff" y="28.76"/>
      </g>
     </g>
     <g id="text_45">
      <!-- 80 -->
      <g transform="translate(458.52250947 206.038125)scale(0.12 -0.12)">
       <use xlink:href="#BitstreamVeraSans-Roman-38"/>
       <use x="63.623046875" xlink:href="#BitstreamVeraSans-Roman-30"/>
      </g>
     </g>
    </g>
    <g id="xtick_28">
     <g id="line2d_93">
      <g>
       <use style="stroke:#000000;stroke-width:0.5;" x="500.822980587" xlink:href="#m93b0483c22" y="192.92"/>
      </g>
     </g>
     <g id="line2d_94">
      <g>
       <use style="stroke:#000000;stroke-width:0.5;" x="500.822980587" xlink:href="#m741efc42ff" y="28.76"/>
      </g>
     </g>
     <g id="text_46">
      <!-- 100 -->
      <g transform="translate(490.427980587 206.038125)scale(0.12 -0.12)">
       <use xlink:href="#BitstreamVeraSans-Roman-31"/>
       <use x="63.623046875" xlink:href="#BitstreamVeraSans-Roman-30"/>
       <use x="127.24609375" xlink:href="#BitstreamVeraSans-Roman-30"/>
      </g>
     </g>
    </g>
    <g id="xtick_29">
     <g id="line2d_95">
      <g>
       <use style="stroke:#000000;stroke-width:0.5;" x="536.293764205" xlink:href="#m93b0483c22" y="192.92"/>
      </g>
     </g>
     <g id="line2d_96">
      <g>
       <use style="stroke:#000000;stroke-width:0.5;" x="536.293764205" xlink:href="#m741efc42ff" y="28.76"/>
      </g>
     </g>
     <g id="text_47">
      <!-- 120 -->
      <g transform="translate(525.898764205 206.038125)scale(0.12 -0.12)">
       <use xlink:href="#BitstreamVeraSans-Roman-31"/>
       <use x="63.623046875" xlink:href="#BitstreamVeraSans-Roman-32"/>
       <use x="127.24609375" xlink:href="#BitstreamVeraSans-Roman-30"/>
      </g>
     </g>
    </g>
   </g>
   <g id="matplotlib.axis_8">
    <g id="ytick_16">
     <g id="line2d_97">
      <g>
       <use style="stroke:#000000;stroke-width:0.5;" x="323.4690625" xlink:href="#m728421d6d4" y="177.996363636"/>
      </g>
     </g>
     <g id="line2d_98">
      <g>
       <use style="stroke:#000000;stroke-width:0.5;" x="536.293764205" xlink:href="#mcb0005524f" y="177.996363636"/>
      </g>
     </g>
     <g id="text_48">
      <!-- 0.30 -->
      <g transform="translate(294.3384375 181.307613636)scale(0.12 -0.12)">
       <use xlink:href="#BitstreamVeraSans-Roman-30"/>
       <use x="63.623046875" xlink:href="#BitstreamVeraSans-Roman-2e"/>
       <use x="95.41015625" xlink:href="#BitstreamVeraSans-Roman-33"/>
       <use x="159.033203125" xlink:href="#BitstreamVeraSans-Roman-30"/>
      </g>
     </g>
    </g>
    <g id="ytick_17">
     <g id="line2d_99">
      <g>
       <use style="stroke:#000000;stroke-width:0.5;" x="323.4690625" xlink:href="#m728421d6d4" y="140.687272727"/>
      </g>
     </g>
     <g id="line2d_100">
      <g>
       <use style="stroke:#000000;stroke-width:0.5;" x="536.293764205" xlink:href="#mcb0005524f" y="140.687272727"/>
      </g>
     </g>
     <g id="text_49">
      <!-- 0.35 -->
      <g transform="translate(294.5896875 143.998522727)scale(0.12 -0.12)">
       <use xlink:href="#BitstreamVeraSans-Roman-30"/>
       <use x="63.623046875" xlink:href="#BitstreamVeraSans-Roman-2e"/>
       <use x="95.41015625" xlink:href="#BitstreamVeraSans-Roman-33"/>
       <use x="159.033203125" xlink:href="#BitstreamVeraSans-Roman-35"/>
      </g>
     </g>
    </g>
    <g id="ytick_18">
     <g id="line2d_101">
      <g>
       <use style="stroke:#000000;stroke-width:0.5;" x="323.4690625" xlink:href="#m728421d6d4" y="103.378181818"/>
      </g>
     </g>
     <g id="line2d_102">
      <g>
       <use style="stroke:#000000;stroke-width:0.5;" x="536.293764205" xlink:href="#mcb0005524f" y="103.378181818"/>
      </g>
     </g>
     <g id="text_50">
      <!-- 0.40 -->
      <g transform="translate(294.3384375 106.689431818)scale(0.12 -0.12)">
       <use xlink:href="#BitstreamVeraSans-Roman-30"/>
       <use x="63.623046875" xlink:href="#BitstreamVeraSans-Roman-2e"/>
       <use x="95.41015625" xlink:href="#BitstreamVeraSans-Roman-34"/>
       <use x="159.033203125" xlink:href="#BitstreamVeraSans-Roman-30"/>
      </g>
     </g>
    </g>
    <g id="ytick_19">
     <g id="line2d_103">
      <g>
       <use style="stroke:#000000;stroke-width:0.5;" x="323.4690625" xlink:href="#m728421d6d4" y="66.0690909091"/>
      </g>
     </g>
     <g id="line2d_104">
      <g>
       <use style="stroke:#000000;stroke-width:0.5;" x="536.293764205" xlink:href="#mcb0005524f" y="66.0690909091"/>
      </g>
     </g>
     <g id="text_51">
      <!-- 0.45 -->
      <g transform="translate(294.5896875 69.3803409091)scale(0.12 -0.12)">
       <use xlink:href="#BitstreamVeraSans-Roman-30"/>
       <use x="63.623046875" xlink:href="#BitstreamVeraSans-Roman-2e"/>
       <use x="95.41015625" xlink:href="#BitstreamVeraSans-Roman-34"/>
       <use x="159.033203125" xlink:href="#BitstreamVeraSans-Roman-35"/>
      </g>
     </g>
    </g>
    <g id="ytick_20">
     <g id="line2d_105">
      <g>
       <use style="stroke:#000000;stroke-width:0.5;" x="323.4690625" xlink:href="#m728421d6d4" y="28.76"/>
      </g>
     </g>
     <g id="line2d_106">
      <g>
       <use style="stroke:#000000;stroke-width:0.5;" x="536.293764205" xlink:href="#mcb0005524f" y="28.76"/>
      </g>
     </g>
     <g id="text_52">
      <!-- 0.50 -->
      <g transform="translate(294.3384375 32.07125)scale(0.12 -0.12)">
       <use xlink:href="#BitstreamVeraSans-Roman-30"/>
       <use x="63.623046875" xlink:href="#BitstreamVeraSans-Roman-2e"/>
       <use x="95.41015625" xlink:href="#BitstreamVeraSans-Roman-35"/>
       <use x="159.033203125" xlink:href="#BitstreamVeraSans-Roman-30"/>
      </g>
     </g>
    </g>
   </g>
   <g id="text_53">
    <!-- Pulse in Regular Trials before Stress -->
    <g transform="translate(301.901413352 23.76)scale(0.144 -0.144)">
     <use xlink:href="#BitstreamVeraSans-Roman-50"/>
     <use x="58.552734375" xlink:href="#BitstreamVeraSans-Roman-75"/>
     <use x="121.931640625" xlink:href="#BitstreamVeraSans-Roman-6c"/>
     <use x="149.71484375" xlink:href="#BitstreamVeraSans-Roman-73"/>
     <use x="201.814453125" xlink:href="#BitstreamVeraSans-Roman-65"/>
     <use x="263.337890625" xlink:href="#BitstreamVeraSans-Roman-20"/>
     <use x="295.125" xlink:href="#BitstreamVeraSans-Roman-69"/>
     <use x="322.908203125" xlink:href="#BitstreamVeraSans-Roman-6e"/>
     <use x="386.287109375" xlink:href="#BitstreamVeraSans-Roman-20"/>
     <use x="418.07421875" xlink:href="#BitstreamVeraSans-Roman-52"/>
     <use x="483.056640625" xlink:href="#BitstreamVeraSans-Roman-65"/>
     <use x="544.580078125" xlink:href="#BitstreamVeraSans-Roman-67"/>
     <use x="608.056640625" xlink:href="#BitstreamVeraSans-Roman-75"/>
     <use x="671.435546875" xlink:href="#BitstreamVeraSans-Roman-6c"/>
     <use x="699.21875" xlink:href="#BitstreamVeraSans-Roman-61"/>
     <use x="760.498046875" xlink:href="#BitstreamVeraSans-Roman-72"/>
     <use x="801.611328125" xlink:href="#BitstreamVeraSans-Roman-20"/>
     <use x="833.3984375" xlink:href="#BitstreamVeraSans-Roman-54"/>
     <use x="879.732421875" xlink:href="#BitstreamVeraSans-Roman-72"/>
     <use x="920.845703125" xlink:href="#BitstreamVeraSans-Roman-69"/>
     <use x="948.62890625" xlink:href="#BitstreamVeraSans-Roman-61"/>
     <use x="1009.90820312" xlink:href="#BitstreamVeraSans-Roman-6c"/>
     <use x="1037.69140625" xlink:href="#BitstreamVeraSans-Roman-73"/>
     <use x="1089.79101562" xlink:href="#BitstreamVeraSans-Roman-20"/>
     <use x="1121.578125" xlink:href="#BitstreamVeraSans-Roman-62"/>
     <use x="1185.0546875" xlink:href="#BitstreamVeraSans-Roman-65"/>
     <use x="1246.578125" xlink:href="#BitstreamVeraSans-Roman-66"/>
     <use x="1281.78320312" xlink:href="#BitstreamVeraSans-Roman-6f"/>
     <use x="1342.96484375" xlink:href="#BitstreamVeraSans-Roman-72"/>
     <use x="1381.828125" xlink:href="#BitstreamVeraSans-Roman-65"/>
     <use x="1443.3515625" xlink:href="#BitstreamVeraSans-Roman-20"/>
     <use x="1475.13867188" xlink:href="#BitstreamVeraSans-Roman-53"/>
     <use x="1538.61523438" xlink:href="#BitstreamVeraSans-Roman-74"/>
     <use x="1577.82421875" xlink:href="#BitstreamVeraSans-Roman-72"/>
     <use x="1616.6875" xlink:href="#BitstreamVeraSans-Roman-65"/>
     <use x="1678.2109375" xlink:href="#BitstreamVeraSans-Roman-73"/>
     <use x="1730.31054688" xlink:href="#BitstreamVeraSans-Roman-73"/>
    </g>
   </g>
  </g>
 </g>
 <defs>
  <clipPath id="p12b1442ff1">
   <rect height="164.16" width="212.824701705" x="41.9490625" y="238.28"/>
  </clipPath>
  <clipPath id="p13eebda5b1">
   <rect height="164.16" width="212.824701705" x="323.4690625" y="238.28"/>
  </clipPath>
  <clipPath id="p217c292275">
   <rect height="164.16" width="212.824701705" x="41.9490625" y="28.76"/>
  </clipPath>
  <clipPath id="pe160646a53">
   <rect height="164.16" width="212.824701705" x="323.4690625" y="28.76"/>
  </clipPath>
 </defs>
</svg>
