<?xml version="1.0" encoding="utf-8" standalone="no"?>
<!DOCTYPE svg PUBLIC "-//W3C//DTD SVG 1.1//EN"
  "http://www.w3.org/Graphics/SVG/1.1/DTD/svg11.dtd">
<!-- Created with matplotlib (http://matplotlib.org/) -->
<svg height="432pt" version="1.1" viewBox="0 0 576 432" width="576pt" xmlns="http://www.w3.org/2000/svg" xmlns:xlink="http://www.w3.org/1999/xlink">
 <defs>
  <style type="text/css">
*{stroke-linecap:butt;stroke-linejoin:round;}
  </style>
 </defs>
 <g id="figure_1">
  <g id="patch_1">
   <path d="
M0 432
L576 432
L576 0
L0 0
z
" style="fill:#ffffff;"/>
  </g>
  <g id="axes_1">
   <g id="patch_2">
    <path d="
M74.1875 402.44
L220.293 402.44
L220.293 238.28
L74.1875 238.28
z
" style="fill:#ffffff;"/>
   </g>
   <g id="line2d_1">
    <path clip-path="url(#p03a1b07124)" d="
M75.6485 332.898
L77.1096 306.266
L78.5706 316.317
L80.0317 353.152
L81.4927 322.806
L82.9538 280.896
L84.4148 352.181
L85.8759 271.898
L87.3369 296.791
L88.798 309.713
L90.259 286.513
L91.7201 342.807
L93.1811 280.218
L94.6422 291.205
L96.1032 307.293
L97.5643 280.917
L99.0253 285.946
L100.486 297.51
L101.947 275.668
L103.408 299.066
L104.87 258.651
L106.331 254.437
L107.792 297.786
L109.253 287.932
L110.714 296.257
L112.175 268.487
L113.636 299.558
L115.097 288.396
L116.558 278.174
L118.019 276.3
L119.48 302.924
L120.941 285.973
L122.402 270.525
L123.863 290.426
L125.324 293.745
L126.785 274.971
L128.246 271.665
L129.707 285.934
L131.168 285.84
L132.629 278.208
L134.091 245.47
L135.552 273.38
L137.013 286.808
L138.474 283.858
L139.935 286.67
L141.396 281.622
L142.857 296.727
L144.318 283.968
L145.779 279.331
L147.24 292.857
L148.701 312.226
L150.162 283.935
L151.623 268.269
L153.084 276.844
L154.545 278.559
L156.006 275.424
L157.467 286.181
L158.928 284.922
L160.389 282.788
L161.851 301.479
L163.312 296.321
L164.773 295.707
L166.234 315.947
L167.695 313.394
L169.156 288.612
L170.617 272.199
L172.078 302.417
L173.539 289.845
L175 307.935
L176.461 283.555
L177.922 263.309
L179.383 271.994
L180.844 292.674
L182.305 283.342
L183.766 279.618
L185.227 243.772
L186.688 315.745
L188.149 287.236
L189.61 339.834
L191.072 345.298
L192.533 300.626
L193.994 289.32
L195.455 289.086
L196.916 270.6
L198.377 291.787
L199.838 274.124
L201.299 272.789
L202.76 311.705
L204.221 303.216
L205.682 354.083
L207.143 270.302
L208.604 330.13
L210.065 300.728
L211.526 280.697
L212.987 262.716
L214.448 255.604
L215.909 292.298
L217.37 271.57
L218.831 294.083" style="fill:none;stroke:#ff0000;stroke-linecap:square;"/>
   </g>
   <g id="line2d_2">
    <path clip-path="url(#p03a1b07124)" d="
M75.6485 295.317
L77.1096 295.228
L78.5706 295.138
L80.0317 295.049
L81.4927 294.959
L82.9538 294.869
L84.4148 294.78
L85.8759 294.69
L87.3369 294.601
L88.798 294.511
L90.259 294.421
L91.7201 294.332
L93.1811 294.242
L94.6422 294.153
L96.1032 294.063
L97.5643 293.973
L99.0253 293.884
L100.486 293.794
L101.947 293.705
L103.408 293.615
L104.87 293.525
L106.331 293.436
L107.792 293.346
L109.253 293.257
L110.714 293.167
L112.175 293.077
L113.636 292.988
L115.097 292.898
L116.558 292.809
L118.019 292.719
L119.48 292.629
L120.941 292.54
L122.402 292.45
L123.863 292.361
L125.324 292.271
L126.785 292.181
L128.246 292.092
L129.707 292.002
L131.168 291.913
L132.629 291.823
L134.091 291.734
L135.552 291.644
L137.013 291.554
L138.474 291.465
L139.935 291.375
L141.396 291.286
L142.857 291.196
L144.318 291.106
L145.779 291.017
L147.24 290.927
L148.701 290.838
L150.162 290.748
L151.623 290.658
L153.084 290.569
L154.545 290.479
L156.006 290.39
L157.467 290.3
L158.928 290.21
L160.389 290.121
L161.851 290.031
L163.312 289.942
L164.773 289.852
L166.234 289.762
L167.695 289.673
L169.156 289.583
L170.617 289.494
L172.078 289.404
L173.539 289.314
L175 289.225
L176.461 289.135
L177.922 289.046
L179.383 288.956
L180.844 288.866
L182.305 288.777
L183.766 288.687
L185.227 288.598
L186.688 288.508
L188.149 288.418
L189.61 288.329
L191.072 288.239
L192.533 288.15
L193.994 288.06
L195.455 287.971
L196.916 287.881
L198.377 287.791
L199.838 287.702
L201.299 287.612
L202.76 287.523
L204.221 287.433
L205.682 287.343
L207.143 287.254
L208.604 287.164
L210.065 287.075
L211.526 286.985
L212.987 286.895
L214.448 286.806
L215.909 286.716
L217.37 286.627
L218.831 286.537" style="fill:none;stroke:#ff0000;stroke-dasharray:6.000000,6.000000;stroke-dashoffset:0.0;"/>
   </g>
   <g id="patch_3">
    <path d="
M74.1875 238.28
L220.293 238.28" style="fill:none;stroke:#000000;stroke-linecap:square;stroke-linejoin:miter;"/>
   </g>
   <g id="patch_4">
    <path d="
M220.293 402.44
L220.293 238.28" style="fill:none;stroke:#000000;stroke-linecap:square;stroke-linejoin:miter;"/>
   </g>
   <g id="patch_5">
    <path d="
M74.1875 402.44
L220.293 402.44" style="fill:none;stroke:#000000;stroke-linecap:square;stroke-linejoin:miter;"/>
   </g>
   <g id="patch_6">
    <path d="
M74.1875 402.44
L74.1875 238.28" style="fill:none;stroke:#000000;stroke-linecap:square;stroke-linejoin:miter;"/>
   </g>
   <g id="matplotlib.axis_1">
    <g id="xtick_1">
     <g id="line2d_3">
      <defs>
       <path d="
M0 0
L0 -4" id="m93b0483c22" style="stroke:#000000;stroke-width:0.5;"/>
      </defs>
      <g>
       <use style="stroke:#000000;stroke-width:0.5;" x="74.1874857955" xlink:href="#m93b0483c22" y="402.44"/>
      </g>
     </g>
     <g id="line2d_4">
      <defs>
       <path d="
M0 0
L0 4" id="m741efc42ff" style="stroke:#000000;stroke-width:0.5;"/>
      </defs>
      <g>
       <use style="stroke:#000000;stroke-width:0.5;" x="74.1874857955" xlink:href="#m741efc42ff" y="238.28"/>
      </g>
     </g>
     <g id="text_1">
      <!-- 0 -->
      <defs>
       <path d="
M31.7812 66.4062
Q24.1719 66.4062 20.3281 58.9062
Q16.5 51.4219 16.5 36.375
Q16.5 21.3906 20.3281 13.8906
Q24.1719 6.39062 31.7812 6.39062
Q39.4531 6.39062 43.2812 13.8906
Q47.125 21.3906 47.125 36.375
Q47.125 51.4219 43.2812 58.9062
Q39.4531 66.4062 31.7812 66.4062
M31.7812 74.2188
Q44.0469 74.2188 50.5156 64.5156
Q56.9844 54.8281 56.9844 36.375
Q56.9844 17.9688 50.5156 8.26562
Q44.0469 -1.42188 31.7812 -1.42188
Q19.5312 -1.42188 13.0625 8.26562
Q6.59375 17.9688 6.59375 36.375
Q6.59375 54.8281 13.0625 64.5156
Q19.5312 74.2188 31.7812 74.2188" id="BitstreamVeraSans-Roman-30"/>
      </defs>
      <g transform="translate(71.1640482955 415.558125)scale(0.12 -0.12)">
       <use xlink:href="#BitstreamVeraSans-Roman-30"/>
      </g>
     </g>
    </g>
    <g id="xtick_2">
     <g id="line2d_5">
      <g>
       <use style="stroke:#000000;stroke-width:0.5;" x="103.408491477" xlink:href="#m93b0483c22" y="402.44"/>
      </g>
     </g>
     <g id="line2d_6">
      <g>
       <use style="stroke:#000000;stroke-width:0.5;" x="103.408491477" xlink:href="#m741efc42ff" y="238.28"/>
      </g>
     </g>
     <g id="text_2">
      <!-- 20 -->
      <defs>
       <path d="
M19.1875 8.29688
L53.6094 8.29688
L53.6094 0
L7.32812 0
L7.32812 8.29688
Q12.9375 14.1094 22.625 23.8906
Q32.3281 33.6875 34.8125 36.5312
Q39.5469 41.8438 41.4219 45.5312
Q43.3125 49.2188 43.3125 52.7812
Q43.3125 58.5938 39.2344 62.25
Q35.1562 65.9219 28.6094 65.9219
Q23.9688 65.9219 18.8125 64.3125
Q13.6719 62.7031 7.8125 59.4219
L7.8125 69.3906
Q13.7656 71.7812 18.9375 73
Q24.125 74.2188 28.4219 74.2188
Q39.75 74.2188 46.4844 68.5469
Q53.2188 62.8906 53.2188 53.4219
Q53.2188 48.9219 51.5312 44.8906
Q49.8594 40.875 45.4062 35.4062
Q44.1875 33.9844 37.6406 27.2188
Q31.1094 20.4531 19.1875 8.29688" id="BitstreamVeraSans-Roman-32"/>
      </defs>
      <g transform="translate(96.6116164773 415.558125)scale(0.12 -0.12)">
       <use xlink:href="#BitstreamVeraSans-Roman-32"/>
       <use x="63.623046875" xlink:href="#BitstreamVeraSans-Roman-30"/>
      </g>
     </g>
    </g>
    <g id="xtick_3">
     <g id="line2d_7">
      <g>
       <use style="stroke:#000000;stroke-width:0.5;" x="132.629497159" xlink:href="#m93b0483c22" y="402.44"/>
      </g>
     </g>
     <g id="line2d_8">
      <g>
       <use style="stroke:#000000;stroke-width:0.5;" x="132.629497159" xlink:href="#m741efc42ff" y="238.28"/>
      </g>
     </g>
     <g id="text_3">
      <!-- 40 -->
      <defs>
       <path d="
M37.7969 64.3125
L12.8906 25.3906
L37.7969 25.3906
z

M35.2031 72.9062
L47.6094 72.9062
L47.6094 25.3906
L58.0156 25.3906
L58.0156 17.1875
L47.6094 17.1875
L47.6094 0
L37.7969 0
L37.7969 17.1875
L4.89062 17.1875
L4.89062 26.7031
z
" id="BitstreamVeraSans-Roman-34"/>
      </defs>
      <g transform="translate(125.686372159 415.558125)scale(0.12 -0.12)">
       <use xlink:href="#BitstreamVeraSans-Roman-34"/>
       <use x="63.623046875" xlink:href="#BitstreamVeraSans-Roman-30"/>
      </g>
     </g>
    </g>
    <g id="xtick_4">
     <g id="line2d_9">
      <g>
       <use style="stroke:#000000;stroke-width:0.5;" x="161.850502841" xlink:href="#m93b0483c22" y="402.44"/>
      </g>
     </g>
     <g id="line2d_10">
      <g>
       <use style="stroke:#000000;stroke-width:0.5;" x="161.850502841" xlink:href="#m741efc42ff" y="238.28"/>
      </g>
     </g>
     <g id="text_4">
      <!-- 60 -->
      <defs>
       <path d="
M33.0156 40.375
Q26.375 40.375 22.4844 35.8281
Q18.6094 31.2969 18.6094 23.3906
Q18.6094 15.5312 22.4844 10.9531
Q26.375 6.39062 33.0156 6.39062
Q39.6562 6.39062 43.5312 10.9531
Q47.4062 15.5312 47.4062 23.3906
Q47.4062 31.2969 43.5312 35.8281
Q39.6562 40.375 33.0156 40.375
M52.5938 71.2969
L52.5938 62.3125
Q48.875 64.0625 45.0938 64.9844
Q41.3125 65.9219 37.5938 65.9219
Q27.8281 65.9219 22.6719 59.3281
Q17.5312 52.7344 16.7969 39.4062
Q19.6719 43.6562 24.0156 45.9219
Q28.375 48.1875 33.5938 48.1875
Q44.5781 48.1875 50.9531 41.5156
Q57.3281 34.8594 57.3281 23.3906
Q57.3281 12.1562 50.6875 5.35938
Q44.0469 -1.42188 33.0156 -1.42188
Q20.3594 -1.42188 13.6719 8.26562
Q6.98438 17.9688 6.98438 36.375
Q6.98438 53.6562 15.1875 63.9375
Q23.3906 74.2188 37.2031 74.2188
Q40.9219 74.2188 44.7031 73.4844
Q48.4844 72.75 52.5938 71.2969" id="BitstreamVeraSans-Roman-36"/>
      </defs>
      <g transform="translate(155.033002841 415.558125)scale(0.12 -0.12)">
       <use xlink:href="#BitstreamVeraSans-Roman-36"/>
       <use x="63.623046875" xlink:href="#BitstreamVeraSans-Roman-30"/>
      </g>
     </g>
    </g>
    <g id="xtick_5">
     <g id="line2d_11">
      <g>
       <use style="stroke:#000000;stroke-width:0.5;" x="191.071508523" xlink:href="#m93b0483c22" y="402.44"/>
      </g>
     </g>
     <g id="line2d_12">
      <g>
       <use style="stroke:#000000;stroke-width:0.5;" x="191.071508523" xlink:href="#m741efc42ff" y="238.28"/>
      </g>
     </g>
     <g id="text_5">
      <!-- 80 -->
      <defs>
       <path d="
M31.7812 34.625
Q24.75 34.625 20.7188 30.8594
Q16.7031 27.0938 16.7031 20.5156
Q16.7031 13.9219 20.7188 10.1562
Q24.75 6.39062 31.7812 6.39062
Q38.8125 6.39062 42.8594 10.1719
Q46.9219 13.9688 46.9219 20.5156
Q46.9219 27.0938 42.8906 30.8594
Q38.875 34.625 31.7812 34.625
M21.9219 38.8125
Q15.5781 40.375 12.0312 44.7188
Q8.5 49.0781 8.5 55.3281
Q8.5 64.0625 14.7188 69.1406
Q20.9531 74.2188 31.7812 74.2188
Q42.6719 74.2188 48.875 69.1406
Q55.0781 64.0625 55.0781 55.3281
Q55.0781 49.0781 51.5312 44.7188
Q48 40.375 41.7031 38.8125
Q48.8281 37.1562 52.7969 32.3125
Q56.7812 27.4844 56.7812 20.5156
Q56.7812 9.90625 50.3125 4.23438
Q43.8438 -1.42188 31.7812 -1.42188
Q19.7344 -1.42188 13.25 4.23438
Q6.78125 9.90625 6.78125 20.5156
Q6.78125 27.4844 10.7812 32.3125
Q14.7969 37.1562 21.9219 38.8125
M18.3125 54.3906
Q18.3125 48.7344 21.8438 45.5625
Q25.3906 42.3906 31.7812 42.3906
Q38.1406 42.3906 41.7188 45.5625
Q45.3125 48.7344 45.3125 54.3906
Q45.3125 60.0625 41.7188 63.2344
Q38.1406 66.4062 31.7812 66.4062
Q25.3906 66.4062 21.8438 63.2344
Q18.3125 60.0625 18.3125 54.3906" id="BitstreamVeraSans-Roman-38"/>
      </defs>
      <g transform="translate(184.241821023 415.558125)scale(0.12 -0.12)">
       <use xlink:href="#BitstreamVeraSans-Roman-38"/>
       <use x="63.623046875" xlink:href="#BitstreamVeraSans-Roman-30"/>
      </g>
     </g>
    </g>
    <g id="xtick_6">
     <g id="line2d_13">
      <g>
       <use style="stroke:#000000;stroke-width:0.5;" x="220.292514205" xlink:href="#m93b0483c22" y="402.44"/>
      </g>
     </g>
     <g id="line2d_14">
      <g>
       <use style="stroke:#000000;stroke-width:0.5;" x="220.292514205" xlink:href="#m741efc42ff" y="238.28"/>
      </g>
     </g>
     <g id="text_6">
      <!-- 100 -->
      <defs>
       <path d="
M12.4062 8.29688
L28.5156 8.29688
L28.5156 63.9219
L10.9844 60.4062
L10.9844 69.3906
L28.4219 72.9062
L38.2812 72.9062
L38.2812 8.29688
L54.3906 8.29688
L54.3906 0
L12.4062 0
z
" id="BitstreamVeraSans-Roman-31"/>
      </defs>
      <g transform="translate(209.897514205 415.558125)scale(0.12 -0.12)">
       <use xlink:href="#BitstreamVeraSans-Roman-31"/>
       <use x="63.623046875" xlink:href="#BitstreamVeraSans-Roman-30"/>
       <use x="127.24609375" xlink:href="#BitstreamVeraSans-Roman-30"/>
      </g>
     </g>
    </g>
   </g>
   <g id="matplotlib.axis_2">
    <g id="ytick_1">
     <g id="line2d_15">
      <defs>
       <path d="
M0 0
L4 0" id="m728421d6d4" style="stroke:#000000;stroke-width:0.5;"/>
      </defs>
      <g>
       <use style="stroke:#000000;stroke-width:0.5;" x="74.1874857955" xlink:href="#m728421d6d4" y="402.44"/>
      </g>
     </g>
     <g id="line2d_16">
      <defs>
       <path d="
M0 0
L-4 0" id="mcb0005524f" style="stroke:#000000;stroke-width:0.5;"/>
      </defs>
      <g>
       <use style="stroke:#000000;stroke-width:0.5;" x="220.292514205" xlink:href="#mcb0005524f" y="402.44"/>
      </g>
     </g>
     <g id="text_7">
      <!-- −3 -->
      <defs>
       <path d="
M10.5938 35.5
L73.1875 35.5
L73.1875 27.2031
L10.5938 27.2031
z
" id="BitstreamVeraSans-Roman-2212"/>
       <path d="
M40.5781 39.3125
Q47.6562 37.7969 51.625 33
Q55.6094 28.2188 55.6094 21.1875
Q55.6094 10.4062 48.1875 4.48438
Q40.7656 -1.42188 27.0938 -1.42188
Q22.5156 -1.42188 17.6562 -0.515625
Q12.7969 0.390625 7.625 2.20312
L7.625 11.7188
Q11.7188 9.32812 16.5938 8.10938
Q21.4844 6.89062 26.8125 6.89062
Q36.0781 6.89062 40.9375 10.5469
Q45.7969 14.2031 45.7969 21.1875
Q45.7969 27.6406 41.2812 31.2656
Q36.7656 34.9062 28.7188 34.9062
L20.2188 34.9062
L20.2188 43.0156
L29.1094 43.0156
Q36.375 43.0156 40.2344 45.9219
Q44.0938 48.8281 44.0938 54.2969
Q44.0938 59.9062 40.1094 62.9062
Q36.1406 65.9219 28.7188 65.9219
Q24.6562 65.9219 20.0156 65.0312
Q15.375 64.1562 9.8125 62.3125
L9.8125 71.0938
Q15.4375 72.6562 20.3438 73.4375
Q25.25 74.2188 29.5938 74.2188
Q40.8281 74.2188 47.3594 69.1094
Q53.9062 64.0156 53.9062 55.3281
Q53.9062 49.2656 50.4375 45.0938
Q46.9688 40.9219 40.5781 39.3125" id="BitstreamVeraSans-Roman-33"/>
      </defs>
      <g transform="translate(54.7299857955 405.75125)scale(0.12 -0.12)">
       <use xlink:href="#BitstreamVeraSans-Roman-2212"/>
       <use x="83.7890625" xlink:href="#BitstreamVeraSans-Roman-33"/>
      </g>
     </g>
    </g>
    <g id="ytick_2">
     <g id="line2d_17">
      <g>
       <use style="stroke:#000000;stroke-width:0.5;" x="74.1874857955" xlink:href="#m728421d6d4" y="375.08"/>
      </g>
     </g>
     <g id="line2d_18">
      <g>
       <use style="stroke:#000000;stroke-width:0.5;" x="220.292514205" xlink:href="#mcb0005524f" y="375.08"/>
      </g>
     </g>
     <g id="text_8">
      <!-- −2 -->
      <g transform="translate(54.9699857955 378.39125)scale(0.12 -0.12)">
       <use xlink:href="#BitstreamVeraSans-Roman-2212"/>
       <use x="83.7890625" xlink:href="#BitstreamVeraSans-Roman-32"/>
      </g>
     </g>
    </g>
    <g id="ytick_3">
     <g id="line2d_19">
      <g>
       <use style="stroke:#000000;stroke-width:0.5;" x="74.1874857955" xlink:href="#m728421d6d4" y="347.72"/>
      </g>
     </g>
     <g id="line2d_20">
      <g>
       <use style="stroke:#000000;stroke-width:0.5;" x="220.292514205" xlink:href="#mcb0005524f" y="347.72"/>
      </g>
     </g>
     <g id="text_9">
      <!-- −1 -->
      <g transform="translate(54.8762357955 351.03125)scale(0.12 -0.12)">
       <use xlink:href="#BitstreamVeraSans-Roman-2212"/>
       <use x="83.7890625" xlink:href="#BitstreamVeraSans-Roman-31"/>
      </g>
     </g>
    </g>
    <g id="ytick_4">
     <g id="line2d_21">
      <g>
       <use style="stroke:#000000;stroke-width:0.5;" x="74.1874857955" xlink:href="#m728421d6d4" y="320.36"/>
      </g>
     </g>
     <g id="line2d_22">
      <g>
       <use style="stroke:#000000;stroke-width:0.5;" x="220.292514205" xlink:href="#mcb0005524f" y="320.36"/>
      </g>
     </g>
     <g id="text_10">
      <!-- 0 -->
      <g transform="translate(64.1406107955 323.67125)scale(0.12 -0.12)">
       <use xlink:href="#BitstreamVeraSans-Roman-30"/>
      </g>
     </g>
    </g>
    <g id="ytick_5">
     <g id="line2d_23">
      <g>
       <use style="stroke:#000000;stroke-width:0.5;" x="74.1874857955" xlink:href="#m728421d6d4" y="293.0"/>
      </g>
     </g>
     <g id="line2d_24">
      <g>
       <use style="stroke:#000000;stroke-width:0.5;" x="220.292514205" xlink:href="#mcb0005524f" y="293.0"/>
      </g>
     </g>
     <g id="text_11">
      <!-- 1 -->
      <g transform="translate(64.9787357955 296.31125)scale(0.12 -0.12)">
       <use xlink:href="#BitstreamVeraSans-Roman-31"/>
      </g>
     </g>
    </g>
    <g id="ytick_6">
     <g id="line2d_25">
      <g>
       <use style="stroke:#000000;stroke-width:0.5;" x="74.1874857955" xlink:href="#m728421d6d4" y="265.64"/>
      </g>
     </g>
     <g id="line2d_26">
      <g>
       <use style="stroke:#000000;stroke-width:0.5;" x="220.292514205" xlink:href="#mcb0005524f" y="265.64"/>
      </g>
     </g>
     <g id="text_12">
      <!-- 2 -->
      <g transform="translate(64.6337357955 268.95125)scale(0.12 -0.12)">
       <use xlink:href="#BitstreamVeraSans-Roman-32"/>
      </g>
     </g>
    </g>
    <g id="ytick_7">
     <g id="line2d_27">
      <g>
       <use style="stroke:#000000;stroke-width:0.5;" x="74.1874857955" xlink:href="#m728421d6d4" y="238.28"/>
      </g>
     </g>
     <g id="line2d_28">
      <g>
       <use style="stroke:#000000;stroke-width:0.5;" x="220.292514205" xlink:href="#mcb0005524f" y="238.28"/>
      </g>
     </g>
     <g id="text_13">
      <!-- 3 -->
      <g transform="translate(64.4293607955 241.59125)scale(0.12 -0.12)">
       <use xlink:href="#BitstreamVeraSans-Roman-33"/>
      </g>
     </g>
    </g>
   </g>
   <g id="text_14">
    <!-- Pulse v. Pupil:r=-0.200344  -->
    <defs>
     <path id="BitstreamVeraSans-Roman-20"/>
     <path d="
M9.42188 75.9844
L18.4062 75.9844
L18.4062 0
L9.42188 0
z
" id="BitstreamVeraSans-Roman-6c"/>
     <path d="
M19.6719 64.7969
L19.6719 37.4062
L32.0781 37.4062
Q38.9688 37.4062 42.7188 40.9688
Q46.4844 44.5312 46.4844 51.125
Q46.4844 57.6719 42.7188 61.2344
Q38.9688 64.7969 32.0781 64.7969
z

M9.8125 72.9062
L32.0781 72.9062
Q44.3438 72.9062 50.6094 67.3594
Q56.8906 61.8125 56.8906 51.125
Q56.8906 40.3281 50.6094 34.8125
Q44.3438 29.2969 32.0781 29.2969
L19.6719 29.2969
L19.6719 0
L9.8125 0
z
" id="BitstreamVeraSans-Roman-50"/>
     <path d="
M2.98438 54.6875
L12.5 54.6875
L29.5938 8.79688
L46.6875 54.6875
L56.2031 54.6875
L35.6875 0
L23.4844 0
z
" id="BitstreamVeraSans-Roman-76"/>
     <path d="
M11.7188 12.4062
L22.0156 12.4062
L22.0156 0
L11.7188 0
z

M11.7188 51.7031
L22.0156 51.7031
L22.0156 39.3125
L11.7188 39.3125
z
" id="BitstreamVeraSans-Roman-3a"/>
     <path d="
M10.6875 12.4062
L21 12.4062
L21 0
L10.6875 0
z
" id="BitstreamVeraSans-Roman-2e"/>
     <path d="
M4.89062 31.3906
L31.2031 31.3906
L31.2031 23.3906
L4.89062 23.3906
z
" id="BitstreamVeraSans-Roman-2d"/>
     <path d="
M10.5938 45.4062
L73.1875 45.4062
L73.1875 37.2031
L10.5938 37.2031
z

M10.5938 25.4844
L73.1875 25.4844
L73.1875 17.1875
L10.5938 17.1875
z
" id="BitstreamVeraSans-Roman-3d"/>
     <path d="
M56.2031 29.5938
L56.2031 25.2031
L14.8906 25.2031
Q15.4844 15.9219 20.4844 11.0625
Q25.4844 6.20312 34.4219 6.20312
Q39.5938 6.20312 44.4531 7.46875
Q49.3125 8.73438 54.1094 11.2812
L54.1094 2.78125
Q49.2656 0.734375 44.1875 -0.34375
Q39.1094 -1.42188 33.8906 -1.42188
Q20.7969 -1.42188 13.1562 6.1875
Q5.51562 13.8125 5.51562 26.8125
Q5.51562 40.2344 12.7656 48.1094
Q20.0156 56 32.3281 56
Q43.3594 56 49.7812 48.8906
Q56.2031 41.7969 56.2031 29.5938
M47.2188 32.2344
Q47.125 39.5938 43.0938 43.9844
Q39.0625 48.3906 32.4219 48.3906
Q24.9062 48.3906 20.3906 44.1406
Q15.875 39.8906 15.1875 32.1719
z
" id="BitstreamVeraSans-Roman-65"/>
     <path d="
M9.42188 54.6875
L18.4062 54.6875
L18.4062 0
L9.42188 0
z

M9.42188 75.9844
L18.4062 75.9844
L18.4062 64.5938
L9.42188 64.5938
z
" id="BitstreamVeraSans-Roman-69"/>
     <path d="
M8.5 21.5781
L8.5 54.6875
L17.4844 54.6875
L17.4844 21.9219
Q17.4844 14.1562 20.5 10.2656
Q23.5312 6.39062 29.5938 6.39062
Q36.8594 6.39062 41.0781 11.0312
Q45.3125 15.6719 45.3125 23.6875
L45.3125 54.6875
L54.2969 54.6875
L54.2969 0
L45.3125 0
L45.3125 8.40625
Q42.0469 3.42188 37.7188 1
Q33.4062 -1.42188 27.6875 -1.42188
Q18.2656 -1.42188 13.375 4.4375
Q8.5 10.2969 8.5 21.5781" id="BitstreamVeraSans-Roman-75"/>
     <path d="
M41.1094 46.2969
Q39.5938 47.1719 37.8125 47.5781
Q36.0312 48 33.8906 48
Q26.2656 48 22.1875 43.0469
Q18.1094 38.0938 18.1094 28.8125
L18.1094 0
L9.07812 0
L9.07812 54.6875
L18.1094 54.6875
L18.1094 46.1875
Q20.9531 51.1719 25.4844 53.5781
Q30.0312 56 36.5312 56
Q37.4531 56 38.5781 55.875
Q39.7031 55.7656 41.0625 55.5156
z
" id="BitstreamVeraSans-Roman-72"/>
     <path d="
M44.2812 53.0781
L44.2812 44.5781
Q40.4844 46.5312 36.375 47.5
Q32.2812 48.4844 27.875 48.4844
Q21.1875 48.4844 17.8438 46.4375
Q14.5 44.3906 14.5 40.2812
Q14.5 37.1562 16.8906 35.375
Q19.2812 33.5938 26.5156 31.9844
L29.5938 31.2969
Q39.1562 29.25 43.1875 25.5156
Q47.2188 21.7812 47.2188 15.0938
Q47.2188 7.46875 41.1875 3.01562
Q35.1562 -1.42188 24.6094 -1.42188
Q20.2188 -1.42188 15.4531 -0.5625
Q10.6875 0.296875 5.42188 2
L5.42188 11.2812
Q10.4062 8.6875 15.2344 7.39062
Q20.0625 6.10938 24.8125 6.10938
Q31.1562 6.10938 34.5625 8.28125
Q37.9844 10.4531 37.9844 14.4062
Q37.9844 18.0625 35.5156 20.0156
Q33.0625 21.9688 24.7031 23.7812
L21.5781 24.5156
Q13.2344 26.2656 9.51562 29.9062
Q5.8125 33.5469 5.8125 39.8906
Q5.8125 47.6094 11.2812 51.7969
Q16.75 56 26.8125 56
Q31.7812 56 36.1719 55.2656
Q40.5781 54.5469 44.2812 53.0781" id="BitstreamVeraSans-Roman-73"/>
     <path d="
M18.1094 8.20312
L18.1094 -20.7969
L9.07812 -20.7969
L9.07812 54.6875
L18.1094 54.6875
L18.1094 46.3906
Q20.9531 51.2656 25.2656 53.625
Q29.5938 56 35.5938 56
Q45.5625 56 51.7812 48.0938
Q58.0156 40.1875 58.0156 27.2969
Q58.0156 14.4062 51.7812 6.48438
Q45.5625 -1.42188 35.5938 -1.42188
Q29.5938 -1.42188 25.2656 0.953125
Q20.9531 3.32812 18.1094 8.20312
M48.6875 27.2969
Q48.6875 37.2031 44.6094 42.8438
Q40.5312 48.4844 33.4062 48.4844
Q26.2656 48.4844 22.1875 42.8438
Q18.1094 37.2031 18.1094 27.2969
Q18.1094 17.3906 22.1875 11.75
Q26.2656 6.10938 33.4062 6.10938
Q40.5312 6.10938 44.6094 11.75
Q48.6875 17.3906 48.6875 27.2969" id="BitstreamVeraSans-Roman-70"/>
    </defs>
    <g transform="translate(75.6485360795 230.334998047)scale(0.12 -0.12)">
     <use xlink:href="#BitstreamVeraSans-Roman-50"/>
     <use x="58.552734375" xlink:href="#BitstreamVeraSans-Roman-75"/>
     <use x="121.931640625" xlink:href="#BitstreamVeraSans-Roman-6c"/>
     <use x="149.71484375" xlink:href="#BitstreamVeraSans-Roman-73"/>
     <use x="201.814453125" xlink:href="#BitstreamVeraSans-Roman-65"/>
     <use x="263.337890625" xlink:href="#BitstreamVeraSans-Roman-20"/>
     <use x="295.125" xlink:href="#BitstreamVeraSans-Roman-76"/>
     <use x="346.5546875" xlink:href="#BitstreamVeraSans-Roman-2e"/>
     <use x="378.341796875" xlink:href="#BitstreamVeraSans-Roman-20"/>
     <use x="410.12890625" xlink:href="#BitstreamVeraSans-Roman-50"/>
     <use x="468.681640625" xlink:href="#BitstreamVeraSans-Roman-75"/>
     <use x="532.060546875" xlink:href="#BitstreamVeraSans-Roman-70"/>
     <use x="595.537109375" xlink:href="#BitstreamVeraSans-Roman-69"/>
     <use x="623.3203125" xlink:href="#BitstreamVeraSans-Roman-6c"/>
     <use x="651.103515625" xlink:href="#BitstreamVeraSans-Roman-3a"/>
     <use x="684.794921875" xlink:href="#BitstreamVeraSans-Roman-72"/>
     <use x="725.908203125" xlink:href="#BitstreamVeraSans-Roman-3d"/>
     <use x="809.697265625" xlink:href="#BitstreamVeraSans-Roman-2d"/>
     <use x="845.78125" xlink:href="#BitstreamVeraSans-Roman-30"/>
     <use x="909.404296875" xlink:href="#BitstreamVeraSans-Roman-2e"/>
     <use x="941.19140625" xlink:href="#BitstreamVeraSans-Roman-32"/>
     <use x="1004.81445312" xlink:href="#BitstreamVeraSans-Roman-30"/>
     <use x="1068.4375" xlink:href="#BitstreamVeraSans-Roman-30"/>
     <use x="1132.06054688" xlink:href="#BitstreamVeraSans-Roman-33"/>
     <use x="1195.68359375" xlink:href="#BitstreamVeraSans-Roman-34"/>
     <use x="1259.30664062" xlink:href="#BitstreamVeraSans-Roman-34"/>
     <use x="1322.9296875" xlink:href="#BitstreamVeraSans-Roman-20"/>
    </g>
    <!--  p=0.046780 -->
    <defs>
     <path d="
M8.20312 72.9062
L55.0781 72.9062
L55.0781 68.7031
L28.6094 0
L18.3125 0
L43.2188 64.5938
L8.20312 64.5938
z
" id="BitstreamVeraSans-Roman-37"/>
    </defs>
    <g transform="translate(75.6485360795 243.772373047)scale(0.12 -0.12)">
     <use xlink:href="#BitstreamVeraSans-Roman-20"/>
     <use x="31.787109375" xlink:href="#BitstreamVeraSans-Roman-70"/>
     <use x="95.263671875" xlink:href="#BitstreamVeraSans-Roman-3d"/>
     <use x="179.052734375" xlink:href="#BitstreamVeraSans-Roman-30"/>
     <use x="242.67578125" xlink:href="#BitstreamVeraSans-Roman-2e"/>
     <use x="274.462890625" xlink:href="#BitstreamVeraSans-Roman-30"/>
     <use x="338.0859375" xlink:href="#BitstreamVeraSans-Roman-34"/>
     <use x="401.708984375" xlink:href="#BitstreamVeraSans-Roman-36"/>
     <use x="465.33203125" xlink:href="#BitstreamVeraSans-Roman-37"/>
     <use x="528.955078125" xlink:href="#BitstreamVeraSans-Roman-38"/>
     <use x="592.578125" xlink:href="#BitstreamVeraSans-Roman-30"/>
    </g>
   </g>
   <g id="text_15">
    <!-- Pupil Diameter in Stress Trials -->
    <defs>
     <path d="
M54.8906 33.0156
L54.8906 0
L45.9062 0
L45.9062 32.7188
Q45.9062 40.4844 42.875 44.3281
Q39.8438 48.1875 33.7969 48.1875
Q26.5156 48.1875 22.3125 43.5469
Q18.1094 38.9219 18.1094 30.9062
L18.1094 0
L9.07812 0
L9.07812 54.6875
L18.1094 54.6875
L18.1094 46.1875
Q21.3438 51.125 25.7031 53.5625
Q30.0781 56 35.7969 56
Q45.2188 56 50.0469 50.1719
Q54.8906 44.3438 54.8906 33.0156" id="BitstreamVeraSans-Roman-6e"/>
     <path d="
M52 44.1875
Q55.375 50.25 60.0625 53.125
Q64.75 56 71.0938 56
Q79.6406 56 84.2812 50.0156
Q88.9219 44.0469 88.9219 33.0156
L88.9219 0
L79.8906 0
L79.8906 32.7188
Q79.8906 40.5781 77.0938 44.375
Q74.3125 48.1875 68.6094 48.1875
Q61.625 48.1875 57.5625 43.5469
Q53.5156 38.9219 53.5156 30.9062
L53.5156 0
L44.4844 0
L44.4844 32.7188
Q44.4844 40.625 41.7031 44.4062
Q38.9219 48.1875 33.1094 48.1875
Q26.2188 48.1875 22.1562 43.5312
Q18.1094 38.875 18.1094 30.9062
L18.1094 0
L9.07812 0
L9.07812 54.6875
L18.1094 54.6875
L18.1094 46.1875
Q21.1875 51.2188 25.4844 53.6094
Q29.7812 56 35.6875 56
Q41.6562 56 45.8281 52.9688
Q50 49.9531 52 44.1875" id="BitstreamVeraSans-Roman-6d"/>
     <path d="
M19.6719 64.7969
L19.6719 8.10938
L31.5938 8.10938
Q46.6875 8.10938 53.6875 14.9375
Q60.6875 21.7812 60.6875 36.5312
Q60.6875 51.1719 53.6875 57.9844
Q46.6875 64.7969 31.5938 64.7969
z

M9.8125 72.9062
L30.0781 72.9062
Q51.2656 72.9062 61.1719 64.0938
Q71.0938 55.2812 71.0938 36.5312
Q71.0938 17.6719 61.125 8.82812
Q51.1719 0 30.0781 0
L9.8125 0
z
" id="BitstreamVeraSans-Roman-44"/>
     <path d="
M-0.296875 72.9062
L61.375 72.9062
L61.375 64.5938
L35.5 64.5938
L35.5 0
L25.5938 0
L25.5938 64.5938
L-0.296875 64.5938
z
" id="BitstreamVeraSans-Roman-54"/>
     <path d="
M18.3125 70.2188
L18.3125 54.6875
L36.8125 54.6875
L36.8125 47.7031
L18.3125 47.7031
L18.3125 18.0156
Q18.3125 11.3281 20.1406 9.42188
Q21.9688 7.51562 27.5938 7.51562
L36.8125 7.51562
L36.8125 0
L27.5938 0
Q17.1875 0 13.2344 3.875
Q9.28125 7.76562 9.28125 18.0156
L9.28125 47.7031
L2.6875 47.7031
L2.6875 54.6875
L9.28125 54.6875
L9.28125 70.2188
z
" id="BitstreamVeraSans-Roman-74"/>
     <path d="
M34.2812 27.4844
Q23.3906 27.4844 19.1875 25
Q14.9844 22.5156 14.9844 16.5
Q14.9844 11.7188 18.1406 8.90625
Q21.2969 6.10938 26.7031 6.10938
Q34.1875 6.10938 38.7031 11.4062
Q43.2188 16.7031 43.2188 25.4844
L43.2188 27.4844
z

M52.2031 31.2031
L52.2031 0
L43.2188 0
L43.2188 8.29688
Q40.1406 3.32812 35.5469 0.953125
Q30.9531 -1.42188 24.3125 -1.42188
Q15.9219 -1.42188 10.9531 3.29688
Q6 8.01562 6 15.9219
Q6 25.1406 12.1719 29.8281
Q18.3594 34.5156 30.6094 34.5156
L43.2188 34.5156
L43.2188 35.4062
Q43.2188 41.6094 39.1406 45
Q35.0625 48.3906 27.6875 48.3906
Q23 48.3906 18.5469 47.2656
Q14.1094 46.1406 10.0156 43.8906
L10.0156 52.2031
Q14.9375 54.1094 19.5781 55.0469
Q24.2188 56 28.6094 56
Q40.4844 56 46.3438 49.8438
Q52.2031 43.7031 52.2031 31.2031" id="BitstreamVeraSans-Roman-61"/>
     <path d="
M53.5156 70.5156
L53.5156 60.8906
Q47.9062 63.5781 42.9219 64.8906
Q37.9375 66.2188 33.2969 66.2188
Q25.25 66.2188 20.875 63.0938
Q16.5 59.9688 16.5 54.2031
Q16.5 49.3594 19.4062 46.8906
Q22.3125 44.4375 30.4219 42.9219
L36.375 41.7031
Q47.4062 39.5938 52.6562 34.2969
Q57.9062 29 57.9062 20.125
Q57.9062 9.51562 50.7969 4.04688
Q43.7031 -1.42188 29.9844 -1.42188
Q24.8125 -1.42188 18.9688 -0.25
Q13.1406 0.921875 6.89062 3.21875
L6.89062 13.375
Q12.8906 10.0156 18.6562 8.29688
Q24.4219 6.59375 29.9844 6.59375
Q38.4219 6.59375 43.0156 9.90625
Q47.6094 13.2344 47.6094 19.3906
Q47.6094 24.75 44.3125 27.7812
Q41.0156 30.8125 33.5 32.3281
L27.4844 33.5
Q16.4531 35.6875 11.5156 40.375
Q6.59375 45.0625 6.59375 53.4219
Q6.59375 63.0938 13.4062 68.6562
Q20.2188 74.2188 32.1719 74.2188
Q37.3125 74.2188 42.625 73.2812
Q47.9531 72.3594 53.5156 70.5156" id="BitstreamVeraSans-Roman-53"/>
    </defs>
    <g transform="translate(40.330125 233.28)scale(0.144 -0.144)">
     <use xlink:href="#BitstreamVeraSans-Roman-50"/>
     <use x="58.552734375" xlink:href="#BitstreamVeraSans-Roman-75"/>
     <use x="121.931640625" xlink:href="#BitstreamVeraSans-Roman-70"/>
     <use x="185.408203125" xlink:href="#BitstreamVeraSans-Roman-69"/>
     <use x="213.19140625" xlink:href="#BitstreamVeraSans-Roman-6c"/>
     <use x="240.974609375" xlink:href="#BitstreamVeraSans-Roman-20"/>
     <use x="272.76171875" xlink:href="#BitstreamVeraSans-Roman-44"/>
     <use x="349.763671875" xlink:href="#BitstreamVeraSans-Roman-69"/>
     <use x="377.546875" xlink:href="#BitstreamVeraSans-Roman-61"/>
     <use x="438.826171875" xlink:href="#BitstreamVeraSans-Roman-6d"/>
     <use x="536.23828125" xlink:href="#BitstreamVeraSans-Roman-65"/>
     <use x="597.76171875" xlink:href="#BitstreamVeraSans-Roman-74"/>
     <use x="636.970703125" xlink:href="#BitstreamVeraSans-Roman-65"/>
     <use x="698.494140625" xlink:href="#BitstreamVeraSans-Roman-72"/>
     <use x="739.607421875" xlink:href="#BitstreamVeraSans-Roman-20"/>
     <use x="771.39453125" xlink:href="#BitstreamVeraSans-Roman-69"/>
     <use x="799.177734375" xlink:href="#BitstreamVeraSans-Roman-6e"/>
     <use x="862.556640625" xlink:href="#BitstreamVeraSans-Roman-20"/>
     <use x="894.34375" xlink:href="#BitstreamVeraSans-Roman-53"/>
     <use x="957.8203125" xlink:href="#BitstreamVeraSans-Roman-74"/>
     <use x="997.029296875" xlink:href="#BitstreamVeraSans-Roman-72"/>
     <use x="1035.89257812" xlink:href="#BitstreamVeraSans-Roman-65"/>
     <use x="1097.41601562" xlink:href="#BitstreamVeraSans-Roman-73"/>
     <use x="1149.515625" xlink:href="#BitstreamVeraSans-Roman-73"/>
     <use x="1201.61523438" xlink:href="#BitstreamVeraSans-Roman-20"/>
     <use x="1233.40234375" xlink:href="#BitstreamVeraSans-Roman-54"/>
     <use x="1279.73632812" xlink:href="#BitstreamVeraSans-Roman-72"/>
     <use x="1320.84960938" xlink:href="#BitstreamVeraSans-Roman-69"/>
     <use x="1348.6328125" xlink:href="#BitstreamVeraSans-Roman-61"/>
     <use x="1409.91210938" xlink:href="#BitstreamVeraSans-Roman-6c"/>
     <use x="1437.6953125" xlink:href="#BitstreamVeraSans-Roman-73"/>
    </g>
   </g>
  </g>
  <g id="axes_2">
   <g id="patch_7">
    <path d="
M74.1875 192.92
L220.293 192.92
L220.293 28.76
L74.1875 28.76
z
" style="fill:#ffffff;"/>
   </g>
   <g id="line2d_29">
    <path clip-path="url(#p528d018644)" d="
M75.6485 38.2883
L77.1096 40.4771
L78.5706 105.402
L80.0317 106.579
L81.4927 146.859
L82.9538 136.423
L84.4148 61.9182
L85.8759 70.2353
L87.3369 132.323
L88.798 138.259
L90.259 86.3917
L91.7201 70.0016
L93.1811 86.2574
L94.6422 81.1558
L96.1032 92.2819
L97.5643 146.92
L99.0253 80.4467
L100.486 90.1087
L101.947 103.155
L103.408 70.9252
L104.87 136.734
L106.331 73.9766
L107.792 52.2031
L109.253 127.823
L110.714 155.881
L112.175 111.819
L113.636 106.524
L115.097 93.6798
L116.558 146.929
L118.019 74.223
L119.48 134.64
L120.941 107.702
L122.402 128.531
L123.863 73.2583
L125.324 106.237
L126.785 83.8875
L128.246 120.865
L129.707 99.4672
L131.168 129.394
L132.629 68.0496
L134.091 102.289
L135.552 78.6454
L137.013 158.941
L138.474 105.536
L139.935 124.053
L141.396 132.424
L142.857 126.565
L144.318 79.0057
L145.779 135.921
L147.24 94.5364
L148.701 106.772
L150.162 130.79
L151.623 160.29
L153.084 102.159
L154.545 72.2395
L156.006 166.437
L157.467 114.765
L158.928 54.5836
L160.389 126.473
L161.851 142.484
L163.312 68.1761
L164.773 139.09
L166.234 105.154
L167.695 80.9939
L169.156 143.886
L170.617 69.1324
L172.078 111.61
L173.539 109.96
L175 116.452
L176.461 125.03
L177.922 79.6785
L179.383 132.94
L180.844 108.326
L182.305 91.431
L183.766 107.716
L185.227 121.538
L186.688 84.5447
L188.149 93.2475
L189.61 113.507
L191.072 87.4718
L192.533 95.565
L193.994 88.6412
L195.455 146.069
L196.916 124.992
L198.377 100.769
L199.838 164.627
L201.299 100.309
L202.76 82.5717
L204.221 89.8849
L205.682 100.411
L207.143 130.981
L208.604 153.454
L210.065 113.898
L211.526 131.157
L212.987 91.9736
L214.448 90.2088
L215.909 98.0307
L217.37 135.215
L218.831 169.511
L220.293 106.755" style="fill:none;stroke:#0000ff;stroke-linecap:square;"/>
   </g>
   <g id="line2d_30">
    <path clip-path="url(#p528d018644)" d="
M75.6485 97.3485
L77.1096 97.5507
L78.5706 97.753
L80.0317 97.9553
L81.4927 98.1575
L82.9538 98.3598
L84.4148 98.5621
L85.8759 98.7643
L87.3369 98.9666
L88.798 99.1688
L90.259 99.3711
L91.7201 99.5734
L93.1811 99.7756
L94.6422 99.9779
L96.1032 100.18
L97.5643 100.382
L99.0253 100.585
L100.486 100.787
L101.947 100.989
L103.408 101.191
L104.87 101.394
L106.331 101.596
L107.792 101.798
L109.253 102.001
L110.714 102.203
L112.175 102.405
L113.636 102.607
L115.097 102.81
L116.558 103.012
L118.019 103.214
L119.48 103.416
L120.941 103.619
L122.402 103.821
L123.863 104.023
L125.324 104.225
L126.785 104.428
L128.246 104.63
L129.707 104.832
L131.168 105.034
L132.629 105.237
L134.091 105.439
L135.552 105.641
L137.013 105.844
L138.474 106.046
L139.935 106.248
L141.396 106.45
L142.857 106.653
L144.318 106.855
L145.779 107.057
L147.24 107.259
L148.701 107.462
L150.162 107.664
L151.623 107.866
L153.084 108.068
L154.545 108.271
L156.006 108.473
L157.467 108.675
L158.928 108.877
L160.389 109.08
L161.851 109.282
L163.312 109.484
L164.773 109.686
L166.234 109.889
L167.695 110.091
L169.156 110.293
L170.617 110.496
L172.078 110.698
L173.539 110.9
L175 111.102
L176.461 111.305
L177.922 111.507
L179.383 111.709
L180.844 111.911
L182.305 112.114
L183.766 112.316
L185.227 112.518
L186.688 112.72
L188.149 112.923
L189.61 113.125
L191.072 113.327
L192.533 113.529
L193.994 113.732
L195.455 113.934
L196.916 114.136
L198.377 114.339
L199.838 114.541
L201.299 114.743
L202.76 114.945
L204.221 115.148
L205.682 115.35
L207.143 115.552
L208.604 115.754
L210.065 115.957
L211.526 116.159
L212.987 116.361
L214.448 116.563
L215.909 116.766
L217.37 116.968
L218.831 117.17
L220.293 117.372" style="fill:none;stroke:#0000ff;stroke-dasharray:6.000000,6.000000;stroke-dashoffset:0.0;"/>
   </g>
   <g id="patch_8">
    <path d="
M74.1875 28.76
L220.293 28.76" style="fill:none;stroke:#000000;stroke-linecap:square;stroke-linejoin:miter;"/>
   </g>
   <g id="patch_9">
    <path d="
M220.293 192.92
L220.293 28.76" style="fill:none;stroke:#000000;stroke-linecap:square;stroke-linejoin:miter;"/>
   </g>
   <g id="patch_10">
    <path d="
M74.1875 192.92
L220.293 192.92" style="fill:none;stroke:#000000;stroke-linecap:square;stroke-linejoin:miter;"/>
   </g>
   <g id="patch_11">
    <path d="
M74.1875 192.92
L74.1875 28.76" style="fill:none;stroke:#000000;stroke-linecap:square;stroke-linejoin:miter;"/>
   </g>
   <g id="matplotlib.axis_3">
    <g id="xtick_7">
     <g id="line2d_31">
      <g>
       <use style="stroke:#000000;stroke-width:0.5;" x="74.1874857955" xlink:href="#m93b0483c22" y="192.92"/>
      </g>
     </g>
     <g id="line2d_32">
      <g>
       <use style="stroke:#000000;stroke-width:0.5;" x="74.1874857955" xlink:href="#m741efc42ff" y="28.76"/>
      </g>
     </g>
     <g id="text_16">
      <!-- 0 -->
      <g transform="translate(71.1640482955 206.038125)scale(0.12 -0.12)">
       <use xlink:href="#BitstreamVeraSans-Roman-30"/>
      </g>
     </g>
    </g>
    <g id="xtick_8">
     <g id="line2d_33">
      <g>
       <use style="stroke:#000000;stroke-width:0.5;" x="103.408491477" xlink:href="#m93b0483c22" y="192.92"/>
      </g>
     </g>
     <g id="line2d_34">
      <g>
       <use style="stroke:#000000;stroke-width:0.5;" x="103.408491477" xlink:href="#m741efc42ff" y="28.76"/>
      </g>
     </g>
     <g id="text_17">
      <!-- 20 -->
      <g transform="translate(96.6116164773 206.038125)scale(0.12 -0.12)">
       <use xlink:href="#BitstreamVeraSans-Roman-32"/>
       <use x="63.623046875" xlink:href="#BitstreamVeraSans-Roman-30"/>
      </g>
     </g>
    </g>
    <g id="xtick_9">
     <g id="line2d_35">
      <g>
       <use style="stroke:#000000;stroke-width:0.5;" x="132.629497159" xlink:href="#m93b0483c22" y="192.92"/>
      </g>
     </g>
     <g id="line2d_36">
      <g>
       <use style="stroke:#000000;stroke-width:0.5;" x="132.629497159" xlink:href="#m741efc42ff" y="28.76"/>
      </g>
     </g>
     <g id="text_18">
      <!-- 40 -->
      <g transform="translate(125.686372159 206.038125)scale(0.12 -0.12)">
       <use xlink:href="#BitstreamVeraSans-Roman-34"/>
       <use x="63.623046875" xlink:href="#BitstreamVeraSans-Roman-30"/>
      </g>
     </g>
    </g>
    <g id="xtick_10">
     <g id="line2d_37">
      <g>
       <use style="stroke:#000000;stroke-width:0.5;" x="161.850502841" xlink:href="#m93b0483c22" y="192.92"/>
      </g>
     </g>
     <g id="line2d_38">
      <g>
       <use style="stroke:#000000;stroke-width:0.5;" x="161.850502841" xlink:href="#m741efc42ff" y="28.76"/>
      </g>
     </g>
     <g id="text_19">
      <!-- 60 -->
      <g transform="translate(155.033002841 206.038125)scale(0.12 -0.12)">
       <use xlink:href="#BitstreamVeraSans-Roman-36"/>
       <use x="63.623046875" xlink:href="#BitstreamVeraSans-Roman-30"/>
      </g>
     </g>
    </g>
    <g id="xtick_11">
     <g id="line2d_39">
      <g>
       <use style="stroke:#000000;stroke-width:0.5;" x="191.071508523" xlink:href="#m93b0483c22" y="192.92"/>
      </g>
     </g>
     <g id="line2d_40">
      <g>
       <use style="stroke:#000000;stroke-width:0.5;" x="191.071508523" xlink:href="#m741efc42ff" y="28.76"/>
      </g>
     </g>
     <g id="text_20">
      <!-- 80 -->
      <g transform="translate(184.241821023 206.038125)scale(0.12 -0.12)">
       <use xlink:href="#BitstreamVeraSans-Roman-38"/>
       <use x="63.623046875" xlink:href="#BitstreamVeraSans-Roman-30"/>
      </g>
     </g>
    </g>
    <g id="xtick_12">
     <g id="line2d_41">
      <g>
       <use style="stroke:#000000;stroke-width:0.5;" x="220.292514205" xlink:href="#m93b0483c22" y="192.92"/>
      </g>
     </g>
     <g id="line2d_42">
      <g>
       <use style="stroke:#000000;stroke-width:0.5;" x="220.292514205" xlink:href="#m741efc42ff" y="28.76"/>
      </g>
     </g>
     <g id="text_21">
      <!-- 100 -->
      <g transform="translate(209.897514205 206.038125)scale(0.12 -0.12)">
       <use xlink:href="#BitstreamVeraSans-Roman-31"/>
       <use x="63.623046875" xlink:href="#BitstreamVeraSans-Roman-30"/>
       <use x="127.24609375" xlink:href="#BitstreamVeraSans-Roman-30"/>
      </g>
     </g>
    </g>
   </g>
   <g id="matplotlib.axis_4">
    <g id="ytick_8">
     <g id="line2d_43">
      <g>
       <use style="stroke:#000000;stroke-width:0.5;" x="74.1874857955" xlink:href="#m728421d6d4" y="192.92"/>
      </g>
     </g>
     <g id="line2d_44">
      <g>
       <use style="stroke:#000000;stroke-width:0.5;" x="220.292514205" xlink:href="#mcb0005524f" y="192.92"/>
      </g>
     </g>
     <g id="text_22">
      <!-- −3 -->
      <g transform="translate(54.7299857955 196.23125)scale(0.12 -0.12)">
       <use xlink:href="#BitstreamVeraSans-Roman-2212"/>
       <use x="83.7890625" xlink:href="#BitstreamVeraSans-Roman-33"/>
      </g>
     </g>
    </g>
    <g id="ytick_9">
     <g id="line2d_45">
      <g>
       <use style="stroke:#000000;stroke-width:0.5;" x="74.1874857955" xlink:href="#m728421d6d4" y="165.56"/>
      </g>
     </g>
     <g id="line2d_46">
      <g>
       <use style="stroke:#000000;stroke-width:0.5;" x="220.292514205" xlink:href="#mcb0005524f" y="165.56"/>
      </g>
     </g>
     <g id="text_23">
      <!-- −2 -->
      <g transform="translate(54.9699857955 168.87125)scale(0.12 -0.12)">
       <use xlink:href="#BitstreamVeraSans-Roman-2212"/>
       <use x="83.7890625" xlink:href="#BitstreamVeraSans-Roman-32"/>
      </g>
     </g>
    </g>
    <g id="ytick_10">
     <g id="line2d_47">
      <g>
       <use style="stroke:#000000;stroke-width:0.5;" x="74.1874857955" xlink:href="#m728421d6d4" y="138.2"/>
      </g>
     </g>
     <g id="line2d_48">
      <g>
       <use style="stroke:#000000;stroke-width:0.5;" x="220.292514205" xlink:href="#mcb0005524f" y="138.2"/>
      </g>
     </g>
     <g id="text_24">
      <!-- −1 -->
      <g transform="translate(54.8762357955 141.51125)scale(0.12 -0.12)">
       <use xlink:href="#BitstreamVeraSans-Roman-2212"/>
       <use x="83.7890625" xlink:href="#BitstreamVeraSans-Roman-31"/>
      </g>
     </g>
    </g>
    <g id="ytick_11">
     <g id="line2d_49">
      <g>
       <use style="stroke:#000000;stroke-width:0.5;" x="74.1874857955" xlink:href="#m728421d6d4" y="110.84"/>
      </g>
     </g>
     <g id="line2d_50">
      <g>
       <use style="stroke:#000000;stroke-width:0.5;" x="220.292514205" xlink:href="#mcb0005524f" y="110.84"/>
      </g>
     </g>
     <g id="text_25">
      <!-- 0 -->
      <g transform="translate(64.1406107955 114.15125)scale(0.12 -0.12)">
       <use xlink:href="#BitstreamVeraSans-Roman-30"/>
      </g>
     </g>
    </g>
    <g id="ytick_12">
     <g id="line2d_51">
      <g>
       <use style="stroke:#000000;stroke-width:0.5;" x="74.1874857955" xlink:href="#m728421d6d4" y="83.48"/>
      </g>
     </g>
     <g id="line2d_52">
      <g>
       <use style="stroke:#000000;stroke-width:0.5;" x="220.292514205" xlink:href="#mcb0005524f" y="83.48"/>
      </g>
     </g>
     <g id="text_26">
      <!-- 1 -->
      <g transform="translate(64.9787357955 86.79125)scale(0.12 -0.12)">
       <use xlink:href="#BitstreamVeraSans-Roman-31"/>
      </g>
     </g>
    </g>
    <g id="ytick_13">
     <g id="line2d_53">
      <g>
       <use style="stroke:#000000;stroke-width:0.5;" x="74.1874857955" xlink:href="#m728421d6d4" y="56.12"/>
      </g>
     </g>
     <g id="line2d_54">
      <g>
       <use style="stroke:#000000;stroke-width:0.5;" x="220.292514205" xlink:href="#mcb0005524f" y="56.12"/>
      </g>
     </g>
     <g id="text_27">
      <!-- 2 -->
      <g transform="translate(64.6337357955 59.43125)scale(0.12 -0.12)">
       <use xlink:href="#BitstreamVeraSans-Roman-32"/>
      </g>
     </g>
    </g>
    <g id="ytick_14">
     <g id="line2d_55">
      <g>
       <use style="stroke:#000000;stroke-width:0.5;" x="74.1874857955" xlink:href="#m728421d6d4" y="28.76"/>
      </g>
     </g>
     <g id="line2d_56">
      <g>
       <use style="stroke:#000000;stroke-width:0.5;" x="220.292514205" xlink:href="#mcb0005524f" y="28.76"/>
      </g>
     </g>
     <g id="text_28">
      <!-- 3 -->
      <g transform="translate(64.4293607955 32.07125)scale(0.12 -0.12)">
       <use xlink:href="#BitstreamVeraSans-Roman-33"/>
      </g>
     </g>
    </g>
   </g>
   <g id="text_29">
    <!-- Pulse v. Pupil:r=0.020192  -->
    <defs>
     <path d="
M10.9844 1.51562
L10.9844 10.5
Q14.7031 8.73438 18.5 7.8125
Q22.3125 6.89062 25.9844 6.89062
Q35.75 6.89062 40.8906 13.4531
Q46.0469 20.0156 46.7812 33.4062
Q43.9531 29.2031 39.5938 26.9531
Q35.25 24.7031 29.9844 24.7031
Q19.0469 24.7031 12.6719 31.3125
Q6.29688 37.9375 6.29688 49.4219
Q6.29688 60.6406 12.9375 67.4219
Q19.5781 74.2188 30.6094 74.2188
Q43.2656 74.2188 49.9219 64.5156
Q56.5938 54.8281 56.5938 36.375
Q56.5938 19.1406 48.4062 8.85938
Q40.2344 -1.42188 26.4219 -1.42188
Q22.7031 -1.42188 18.8906 -0.6875
Q15.0938 0.046875 10.9844 1.51562
M30.6094 32.4219
Q37.25 32.4219 41.125 36.9531
Q45.0156 41.5 45.0156 49.4219
Q45.0156 57.2812 41.125 61.8438
Q37.25 66.4062 30.6094 66.4062
Q23.9688 66.4062 20.0938 61.8438
Q16.2188 57.2812 16.2188 49.4219
Q16.2188 41.5 20.0938 36.9531
Q23.9688 32.4219 30.6094 32.4219" id="BitstreamVeraSans-Roman-39"/>
    </defs>
    <g transform="translate(75.6485360795 24.8509122009)scale(0.12 -0.12)">
     <use xlink:href="#BitstreamVeraSans-Roman-50"/>
     <use x="58.552734375" xlink:href="#BitstreamVeraSans-Roman-75"/>
     <use x="121.931640625" xlink:href="#BitstreamVeraSans-Roman-6c"/>
     <use x="149.71484375" xlink:href="#BitstreamVeraSans-Roman-73"/>
     <use x="201.814453125" xlink:href="#BitstreamVeraSans-Roman-65"/>
     <use x="263.337890625" xlink:href="#BitstreamVeraSans-Roman-20"/>
     <use x="295.125" xlink:href="#BitstreamVeraSans-Roman-76"/>
     <use x="346.5546875" xlink:href="#BitstreamVeraSans-Roman-2e"/>
     <use x="378.341796875" xlink:href="#BitstreamVeraSans-Roman-20"/>
     <use x="410.12890625" xlink:href="#BitstreamVeraSans-Roman-50"/>
     <use x="468.681640625" xlink:href="#BitstreamVeraSans-Roman-75"/>
     <use x="532.060546875" xlink:href="#BitstreamVeraSans-Roman-70"/>
     <use x="595.537109375" xlink:href="#BitstreamVeraSans-Roman-69"/>
     <use x="623.3203125" xlink:href="#BitstreamVeraSans-Roman-6c"/>
     <use x="651.103515625" xlink:href="#BitstreamVeraSans-Roman-3a"/>
     <use x="684.794921875" xlink:href="#BitstreamVeraSans-Roman-72"/>
     <use x="725.908203125" xlink:href="#BitstreamVeraSans-Roman-3d"/>
     <use x="809.697265625" xlink:href="#BitstreamVeraSans-Roman-30"/>
     <use x="873.3203125" xlink:href="#BitstreamVeraSans-Roman-2e"/>
     <use x="905.107421875" xlink:href="#BitstreamVeraSans-Roman-30"/>
     <use x="968.73046875" xlink:href="#BitstreamVeraSans-Roman-32"/>
     <use x="1032.35351562" xlink:href="#BitstreamVeraSans-Roman-30"/>
     <use x="1095.9765625" xlink:href="#BitstreamVeraSans-Roman-31"/>
     <use x="1159.59960938" xlink:href="#BitstreamVeraSans-Roman-39"/>
     <use x="1223.22265625" xlink:href="#BitstreamVeraSans-Roman-32"/>
     <use x="1286.84570312" xlink:href="#BitstreamVeraSans-Roman-20"/>
    </g>
    <!--  p=0.841951 -->
    <defs>
     <path d="
M10.7969 72.9062
L49.5156 72.9062
L49.5156 64.5938
L19.8281 64.5938
L19.8281 46.7344
Q21.9688 47.4688 24.1094 47.8281
Q26.2656 48.1875 28.4219 48.1875
Q40.625 48.1875 47.75 41.5
Q54.8906 34.8125 54.8906 23.3906
Q54.8906 11.625 47.5625 5.09375
Q40.2344 -1.42188 26.9062 -1.42188
Q22.3125 -1.42188 17.5469 -0.640625
Q12.7969 0.140625 7.71875 1.70312
L7.71875 11.625
Q12.1094 9.23438 16.7969 8.0625
Q21.4844 6.89062 26.7031 6.89062
Q35.1562 6.89062 40.0781 11.3281
Q45.0156 15.7656 45.0156 23.3906
Q45.0156 31 40.0781 35.4375
Q35.1562 39.8906 26.7031 39.8906
Q22.75 39.8906 18.8125 39.0156
Q14.8906 38.1406 10.7969 36.2812
z
" id="BitstreamVeraSans-Roman-35"/>
    </defs>
    <g transform="translate(75.6485360795 38.2882872009)scale(0.12 -0.12)">
     <use xlink:href="#BitstreamVeraSans-Roman-20"/>
     <use x="31.787109375" xlink:href="#BitstreamVeraSans-Roman-70"/>
     <use x="95.263671875" xlink:href="#BitstreamVeraSans-Roman-3d"/>
     <use x="179.052734375" xlink:href="#BitstreamVeraSans-Roman-30"/>
     <use x="242.67578125" xlink:href="#BitstreamVeraSans-Roman-2e"/>
     <use x="274.462890625" xlink:href="#BitstreamVeraSans-Roman-38"/>
     <use x="338.0859375" xlink:href="#BitstreamVeraSans-Roman-34"/>
     <use x="401.708984375" xlink:href="#BitstreamVeraSans-Roman-31"/>
     <use x="465.33203125" xlink:href="#BitstreamVeraSans-Roman-39"/>
     <use x="528.955078125" xlink:href="#BitstreamVeraSans-Roman-35"/>
     <use x="592.578125" xlink:href="#BitstreamVeraSans-Roman-31"/>
    </g>
   </g>
   <g id="text_30">
    <!-- Pupil Diameter in Regular Trials before Stress -->
    <defs>
     <path d="
M44.3906 34.1875
Q47.5625 33.1094 50.5625 29.5938
Q53.5625 26.0781 56.5938 19.9219
L66.6094 0
L56 0
L46.6875 18.7031
Q43.0625 26.0312 39.6719 28.4219
Q36.2812 30.8125 30.4219 30.8125
L19.6719 30.8125
L19.6719 0
L9.8125 0
L9.8125 72.9062
L32.0781 72.9062
Q44.5781 72.9062 50.7344 67.6719
Q56.8906 62.4531 56.8906 51.9062
Q56.8906 45.0156 53.6875 40.4688
Q50.4844 35.9375 44.3906 34.1875
M19.6719 64.7969
L19.6719 38.9219
L32.0781 38.9219
Q39.2031 38.9219 42.8438 42.2188
Q46.4844 45.5156 46.4844 51.9062
Q46.4844 58.2969 42.8438 61.5469
Q39.2031 64.7969 32.0781 64.7969
z
" id="BitstreamVeraSans-Roman-52"/>
     <path d="
M37.1094 75.9844
L37.1094 68.5
L28.5156 68.5
Q23.6875 68.5 21.7969 66.5469
Q19.9219 64.5938 19.9219 59.5156
L19.9219 54.6875
L34.7188 54.6875
L34.7188 47.7031
L19.9219 47.7031
L19.9219 0
L10.8906 0
L10.8906 47.7031
L2.29688 47.7031
L2.29688 54.6875
L10.8906 54.6875
L10.8906 58.5
Q10.8906 67.625 15.1406 71.7969
Q19.3906 75.9844 28.6094 75.9844
z
" id="BitstreamVeraSans-Roman-66"/>
     <path d="
M45.4062 27.9844
Q45.4062 37.75 41.375 43.1094
Q37.3594 48.4844 30.0781 48.4844
Q22.8594 48.4844 18.8281 43.1094
Q14.7969 37.75 14.7969 27.9844
Q14.7969 18.2656 18.8281 12.8906
Q22.8594 7.51562 30.0781 7.51562
Q37.3594 7.51562 41.375 12.8906
Q45.4062 18.2656 45.4062 27.9844
M54.3906 6.78125
Q54.3906 -7.17188 48.1875 -13.9844
Q42 -20.7969 29.2031 -20.7969
Q24.4688 -20.7969 20.2656 -20.0938
Q16.0625 -19.3906 12.1094 -17.9219
L12.1094 -9.1875
Q16.0625 -11.3281 19.9219 -12.3438
Q23.7812 -13.375 27.7812 -13.375
Q36.625 -13.375 41.0156 -8.76562
Q45.4062 -4.15625 45.4062 5.17188
L45.4062 9.625
Q42.625 4.78125 38.2812 2.39062
Q33.9375 0 27.875 0
Q17.8281 0 11.6719 7.65625
Q5.51562 15.3281 5.51562 27.9844
Q5.51562 40.6719 11.6719 48.3281
Q17.8281 56 27.875 56
Q33.9375 56 38.2812 53.6094
Q42.625 51.2188 45.4062 46.3906
L45.4062 54.6875
L54.3906 54.6875
z
" id="BitstreamVeraSans-Roman-67"/>
     <path d="
M30.6094 48.3906
Q23.3906 48.3906 19.1875 42.75
Q14.9844 37.1094 14.9844 27.2969
Q14.9844 17.4844 19.1562 11.8438
Q23.3438 6.20312 30.6094 6.20312
Q37.7969 6.20312 41.9844 11.8594
Q46.1875 17.5312 46.1875 27.2969
Q46.1875 37.0156 41.9844 42.7031
Q37.7969 48.3906 30.6094 48.3906
M30.6094 56
Q42.3281 56 49.0156 48.375
Q55.7188 40.7656 55.7188 27.2969
Q55.7188 13.875 49.0156 6.21875
Q42.3281 -1.42188 30.6094 -1.42188
Q18.8438 -1.42188 12.1719 6.21875
Q5.51562 13.875 5.51562 27.2969
Q5.51562 40.7656 12.1719 48.375
Q18.8438 56 30.6094 56" id="BitstreamVeraSans-Roman-6f"/>
     <path d="
M48.6875 27.2969
Q48.6875 37.2031 44.6094 42.8438
Q40.5312 48.4844 33.4062 48.4844
Q26.2656 48.4844 22.1875 42.8438
Q18.1094 37.2031 18.1094 27.2969
Q18.1094 17.3906 22.1875 11.75
Q26.2656 6.10938 33.4062 6.10938
Q40.5312 6.10938 44.6094 11.75
Q48.6875 17.3906 48.6875 27.2969
M18.1094 46.3906
Q20.9531 51.2656 25.2656 53.625
Q29.5938 56 35.5938 56
Q45.5625 56 51.7812 48.0938
Q58.0156 40.1875 58.0156 27.2969
Q58.0156 14.4062 51.7812 6.48438
Q45.5625 -1.42188 35.5938 -1.42188
Q29.5938 -1.42188 25.2656 0.953125
Q20.9531 3.32812 18.1094 8.20312
L18.1094 0
L9.07812 0
L9.07812 75.9844
L18.1094 75.9844
z
" id="BitstreamVeraSans-Roman-62"/>
    </defs>
    <g transform="translate(-15.031125 23.76)scale(0.144 -0.144)">
     <use xlink:href="#BitstreamVeraSans-Roman-50"/>
     <use x="58.552734375" xlink:href="#BitstreamVeraSans-Roman-75"/>
     <use x="121.931640625" xlink:href="#BitstreamVeraSans-Roman-70"/>
     <use x="185.408203125" xlink:href="#BitstreamVeraSans-Roman-69"/>
     <use x="213.19140625" xlink:href="#BitstreamVeraSans-Roman-6c"/>
     <use x="240.974609375" xlink:href="#BitstreamVeraSans-Roman-20"/>
     <use x="272.76171875" xlink:href="#BitstreamVeraSans-Roman-44"/>
     <use x="349.763671875" xlink:href="#BitstreamVeraSans-Roman-69"/>
     <use x="377.546875" xlink:href="#BitstreamVeraSans-Roman-61"/>
     <use x="438.826171875" xlink:href="#BitstreamVeraSans-Roman-6d"/>
     <use x="536.23828125" xlink:href="#BitstreamVeraSans-Roman-65"/>
     <use x="597.76171875" xlink:href="#BitstreamVeraSans-Roman-74"/>
     <use x="636.970703125" xlink:href="#BitstreamVeraSans-Roman-65"/>
     <use x="698.494140625" xlink:href="#BitstreamVeraSans-Roman-72"/>
     <use x="739.607421875" xlink:href="#BitstreamVeraSans-Roman-20"/>
     <use x="771.39453125" xlink:href="#BitstreamVeraSans-Roman-69"/>
     <use x="799.177734375" xlink:href="#BitstreamVeraSans-Roman-6e"/>
     <use x="862.556640625" xlink:href="#BitstreamVeraSans-Roman-20"/>
     <use x="894.34375" xlink:href="#BitstreamVeraSans-Roman-52"/>
     <use x="959.326171875" xlink:href="#BitstreamVeraSans-Roman-65"/>
     <use x="1020.84960938" xlink:href="#BitstreamVeraSans-Roman-67"/>
     <use x="1084.32617188" xlink:href="#BitstreamVeraSans-Roman-75"/>
     <use x="1147.70507812" xlink:href="#BitstreamVeraSans-Roman-6c"/>
     <use x="1175.48828125" xlink:href="#BitstreamVeraSans-Roman-61"/>
     <use x="1236.76757812" xlink:href="#BitstreamVeraSans-Roman-72"/>
     <use x="1277.88085938" xlink:href="#BitstreamVeraSans-Roman-20"/>
     <use x="1309.66796875" xlink:href="#BitstreamVeraSans-Roman-54"/>
     <use x="1356.00195312" xlink:href="#BitstreamVeraSans-Roman-72"/>
     <use x="1397.11523438" xlink:href="#BitstreamVeraSans-Roman-69"/>
     <use x="1424.8984375" xlink:href="#BitstreamVeraSans-Roman-61"/>
     <use x="1486.17773438" xlink:href="#BitstreamVeraSans-Roman-6c"/>
     <use x="1513.9609375" xlink:href="#BitstreamVeraSans-Roman-73"/>
     <use x="1566.06054688" xlink:href="#BitstreamVeraSans-Roman-20"/>
     <use x="1597.84765625" xlink:href="#BitstreamVeraSans-Roman-62"/>
     <use x="1661.32421875" xlink:href="#BitstreamVeraSans-Roman-65"/>
     <use x="1722.84765625" xlink:href="#BitstreamVeraSans-Roman-66"/>
     <use x="1758.05273438" xlink:href="#BitstreamVeraSans-Roman-6f"/>
     <use x="1819.234375" xlink:href="#BitstreamVeraSans-Roman-72"/>
     <use x="1858.09765625" xlink:href="#BitstreamVeraSans-Roman-65"/>
     <use x="1919.62109375" xlink:href="#BitstreamVeraSans-Roman-20"/>
     <use x="1951.40820312" xlink:href="#BitstreamVeraSans-Roman-53"/>
     <use x="2014.88476562" xlink:href="#BitstreamVeraSans-Roman-74"/>
     <use x="2054.09375" xlink:href="#BitstreamVeraSans-Roman-72"/>
     <use x="2092.95703125" xlink:href="#BitstreamVeraSans-Roman-65"/>
     <use x="2154.48046875" xlink:href="#BitstreamVeraSans-Roman-73"/>
     <use x="2206.58007812" xlink:href="#BitstreamVeraSans-Roman-73"/>
    </g>
   </g>
  </g>
  <g id="axes_3">
   <g id="patch_12">
    <path d="
M355.707 402.44
L501.813 402.44
L501.813 238.28
L355.707 238.28
z
" style="fill:#ffffff;"/>
   </g>
   <g id="line2d_57">
    <path clip-path="url(#p1cbca1c66b)" d="
M356.519 332.898
L357.331 307.015
L358.143 306.266
L358.954 316.317
L359.766 353.152
L360.578 322.806
L361.389 372.236
L362.201 280.896
L363.013 341.291
L363.824 352.181
L364.636 271.898
L365.448 296.791
L366.26 309.713
L367.071 286.513
L367.883 342.807
L368.695 280.218
L369.506 291.205
L370.318 307.293
L371.13 356.236
L371.941 280.917
L372.753 377.607
L373.565 285.946
L374.376 297.51
L375.188 275.668
L376 299.066
L376.812 312.582
L377.623 258.651
L378.435 341.144
L379.247 254.437
L380.058 297.786
L380.87 287.932
L381.682 296.257
L382.493 306.451
L383.305 268.487
L384.117 299.558
L385.74 278.174
L386.552 366.361
L387.364 276.3
L388.175 302.924
L388.987 285.973
L389.799 355.672
L390.61 270.525
L391.422 290.426
L392.234 293.745
L393.045 349.062
L393.857 274.971
L394.669 346.336
L396.292 271.665
L397.104 285.934
L397.916 339.189
L398.727 290.47
L399.539 285.84
L400.351 276.09
L401.162 278.208
L401.974 323.91
L402.786 291.836
L403.597 245.47
L404.409 358.222
L405.221 273.38
L406.033 324.467
L406.844 285.724
L407.656 303.721
L408.468 314.922
L409.279 305.453
L410.091 286.808
L410.903 283.858
L411.714 286.67
L412.526 281.622
L413.338 296.727
L414.149 357.522
L414.961 283.968
L415.773 279.331
L416.585 292.857
L417.396 312.226
L418.208 283.935
L419.02 379.646
L419.831 268.269
L420.643 369.838
L421.455 276.844
L422.266 371.796
L423.078 278.559
L423.89 275.424
L424.702 286.181
L425.513 284.922
L426.325 282.788
L427.137 301.479
L427.948 296.321
L428.76 295.707
L429.572 315.947
L430.383 313.394
L431.195 288.612
L432.007 359.755
L432.818 272.199
L433.63 302.417
L434.442 289.845
L435.254 307.935
L436.065 283.555
L436.877 344.929
L437.689 263.309
L438.5 301.525
L439.312 271.994
L440.124 292.674
L440.935 322.347
L441.747 283.342
L442.559 333.483
L443.371 279.618
L444.182 327.814
L444.994 243.772
L445.806 315.745
L446.617 270.945
L447.429 287.236
L448.241 339.834
L449.052 345.298
L449.864 300.626
L450.676 289.32
L451.487 304.526
L453.111 320.624
L453.923 307.851
L454.734 311.959
L455.546 312.917
L456.358 298.551
L457.169 359.065
L457.981 289.086
L458.793 336.239
L459.604 290.088
L460.416 345.126
L461.228 291.424
L462.039 283.373
L462.851 272.056
L463.663 284.558
L464.475 336.194
L465.286 348.634
L466.098 385.18
L466.91 313.748
L467.721 270.6
L468.533 291.787
L469.345 274.124
L470.156 272.789
L470.968 346.494
L471.78 311.705
L472.592 303.216
L473.403 354.083
L474.215 336.574
L475.027 270.302
L475.838 330.13
L476.65 323.144
L477.462 276.306
L479.085 339.637
L479.897 308.158
L480.708 293.532
L481.52 304.906
L482.332 319.431
L483.144 329.31
L483.955 323.036
L484.767 301.222
L485.579 309.236
L486.39 300.728
L487.202 280.697
L488.014 380.202
L488.825 262.716
L489.637 329.315
L490.449 255.604
L492.072 329.051
L492.884 271.57
L493.696 294.083
L494.507 385.056
L495.319 320.36
L495.319 320.36" style="fill:none;stroke:#ff0000;stroke-linecap:square;"/>
   </g>
   <g id="line2d_58">
    <path clip-path="url(#p1cbca1c66b)" d="
M356.519 303.401
L495.319 307.935
L495.319 307.935" style="fill:none;stroke:#ff0000;stroke-dasharray:6.000000,6.000000;stroke-dashoffset:0.0;"/>
   </g>
   <g id="patch_13">
    <path d="
M355.707 238.28
L501.813 238.28" style="fill:none;stroke:#000000;stroke-linecap:square;stroke-linejoin:miter;"/>
   </g>
   <g id="patch_14">
    <path d="
M501.813 402.44
L501.813 238.28" style="fill:none;stroke:#000000;stroke-linecap:square;stroke-linejoin:miter;"/>
   </g>
   <g id="patch_15">
    <path d="
M355.707 402.44
L501.813 402.44" style="fill:none;stroke:#000000;stroke-linecap:square;stroke-linejoin:miter;"/>
   </g>
   <g id="patch_16">
    <path d="
M355.707 402.44
L355.707 238.28" style="fill:none;stroke:#000000;stroke-linecap:square;stroke-linejoin:miter;"/>
   </g>
   <g id="matplotlib.axis_5">
    <g id="xtick_13">
     <g id="line2d_59">
      <g>
       <use style="stroke:#000000;stroke-width:0.5;" x="355.707485795" xlink:href="#m93b0483c22" y="402.44"/>
      </g>
     </g>
     <g id="line2d_60">
      <g>
       <use style="stroke:#000000;stroke-width:0.5;" x="355.707485795" xlink:href="#m741efc42ff" y="238.28"/>
      </g>
     </g>
     <g id="text_31">
      <!-- 0 -->
      <g transform="translate(352.684048295 415.558125)scale(0.12 -0.12)">
       <use xlink:href="#BitstreamVeraSans-Roman-30"/>
      </g>
     </g>
    </g>
    <g id="xtick_14">
     <g id="line2d_61">
      <g>
       <use style="stroke:#000000;stroke-width:0.5;" x="371.941377841" xlink:href="#m93b0483c22" y="402.44"/>
      </g>
     </g>
     <g id="line2d_62">
      <g>
       <use style="stroke:#000000;stroke-width:0.5;" x="371.941377841" xlink:href="#m741efc42ff" y="238.28"/>
      </g>
     </g>
     <g id="text_32">
      <!-- 20 -->
      <g transform="translate(365.144502841 415.558125)scale(0.12 -0.12)">
       <use xlink:href="#BitstreamVeraSans-Roman-32"/>
       <use x="63.623046875" xlink:href="#BitstreamVeraSans-Roman-30"/>
      </g>
     </g>
    </g>
    <g id="xtick_15">
     <g id="line2d_63">
      <g>
       <use style="stroke:#000000;stroke-width:0.5;" x="388.175269886" xlink:href="#m93b0483c22" y="402.44"/>
      </g>
     </g>
     <g id="line2d_64">
      <g>
       <use style="stroke:#000000;stroke-width:0.5;" x="388.175269886" xlink:href="#m741efc42ff" y="238.28"/>
      </g>
     </g>
     <g id="text_33">
      <!-- 40 -->
      <g transform="translate(381.232144886 415.558125)scale(0.12 -0.12)">
       <use xlink:href="#BitstreamVeraSans-Roman-34"/>
       <use x="63.623046875" xlink:href="#BitstreamVeraSans-Roman-30"/>
      </g>
     </g>
    </g>
    <g id="xtick_16">
     <g id="line2d_65">
      <g>
       <use style="stroke:#000000;stroke-width:0.5;" x="404.409161932" xlink:href="#m93b0483c22" y="402.44"/>
      </g>
     </g>
     <g id="line2d_66">
      <g>
       <use style="stroke:#000000;stroke-width:0.5;" x="404.409161932" xlink:href="#m741efc42ff" y="238.28"/>
      </g>
     </g>
     <g id="text_34">
      <!-- 60 -->
      <g transform="translate(397.591661932 415.558125)scale(0.12 -0.12)">
       <use xlink:href="#BitstreamVeraSans-Roman-36"/>
       <use x="63.623046875" xlink:href="#BitstreamVeraSans-Roman-30"/>
      </g>
     </g>
    </g>
    <g id="xtick_17">
     <g id="line2d_67">
      <g>
       <use style="stroke:#000000;stroke-width:0.5;" x="420.643053977" xlink:href="#m93b0483c22" y="402.44"/>
      </g>
     </g>
     <g id="line2d_68">
      <g>
       <use style="stroke:#000000;stroke-width:0.5;" x="420.643053977" xlink:href="#m741efc42ff" y="238.28"/>
      </g>
     </g>
     <g id="text_35">
      <!-- 80 -->
      <g transform="translate(413.813366477 415.558125)scale(0.12 -0.12)">
       <use xlink:href="#BitstreamVeraSans-Roman-38"/>
       <use x="63.623046875" xlink:href="#BitstreamVeraSans-Roman-30"/>
      </g>
     </g>
    </g>
    <g id="xtick_18">
     <g id="line2d_69">
      <g>
       <use style="stroke:#000000;stroke-width:0.5;" x="436.876946023" xlink:href="#m93b0483c22" y="402.44"/>
      </g>
     </g>
     <g id="line2d_70">
      <g>
       <use style="stroke:#000000;stroke-width:0.5;" x="436.876946023" xlink:href="#m741efc42ff" y="238.28"/>
      </g>
     </g>
     <g id="text_36">
      <!-- 100 -->
      <g transform="translate(426.481946023 415.558125)scale(0.12 -0.12)">
       <use xlink:href="#BitstreamVeraSans-Roman-31"/>
       <use x="63.623046875" xlink:href="#BitstreamVeraSans-Roman-30"/>
       <use x="127.24609375" xlink:href="#BitstreamVeraSans-Roman-30"/>
      </g>
     </g>
    </g>
    <g id="xtick_19">
     <g id="line2d_71">
      <g>
       <use style="stroke:#000000;stroke-width:0.5;" x="453.110838068" xlink:href="#m93b0483c22" y="402.44"/>
      </g>
     </g>
     <g id="line2d_72">
      <g>
       <use style="stroke:#000000;stroke-width:0.5;" x="453.110838068" xlink:href="#m741efc42ff" y="238.28"/>
      </g>
     </g>
     <g id="text_37">
      <!-- 120 -->
      <g transform="translate(442.715838068 415.558125)scale(0.12 -0.12)">
       <use xlink:href="#BitstreamVeraSans-Roman-31"/>
       <use x="63.623046875" xlink:href="#BitstreamVeraSans-Roman-32"/>
       <use x="127.24609375" xlink:href="#BitstreamVeraSans-Roman-30"/>
      </g>
     </g>
    </g>
    <g id="xtick_20">
     <g id="line2d_73">
      <g>
       <use style="stroke:#000000;stroke-width:0.5;" x="469.344730114" xlink:href="#m93b0483c22" y="402.44"/>
      </g>
     </g>
     <g id="line2d_74">
      <g>
       <use style="stroke:#000000;stroke-width:0.5;" x="469.344730114" xlink:href="#m741efc42ff" y="238.28"/>
      </g>
     </g>
     <g id="text_38">
      <!-- 140 -->
      <g transform="translate(458.949730114 415.558125)scale(0.12 -0.12)">
       <use xlink:href="#BitstreamVeraSans-Roman-31"/>
       <use x="63.623046875" xlink:href="#BitstreamVeraSans-Roman-34"/>
       <use x="127.24609375" xlink:href="#BitstreamVeraSans-Roman-30"/>
      </g>
     </g>
    </g>
    <g id="xtick_21">
     <g id="line2d_75">
      <g>
       <use style="stroke:#000000;stroke-width:0.5;" x="485.578622159" xlink:href="#m93b0483c22" y="402.44"/>
      </g>
     </g>
     <g id="line2d_76">
      <g>
       <use style="stroke:#000000;stroke-width:0.5;" x="485.578622159" xlink:href="#m741efc42ff" y="238.28"/>
      </g>
     </g>
     <g id="text_39">
      <!-- 160 -->
      <g transform="translate(475.183622159 415.558125)scale(0.12 -0.12)">
       <use xlink:href="#BitstreamVeraSans-Roman-31"/>
       <use x="63.623046875" xlink:href="#BitstreamVeraSans-Roman-36"/>
       <use x="127.24609375" xlink:href="#BitstreamVeraSans-Roman-30"/>
      </g>
     </g>
    </g>
    <g id="xtick_22">
     <g id="line2d_77">
      <g>
       <use style="stroke:#000000;stroke-width:0.5;" x="501.812514205" xlink:href="#m93b0483c22" y="402.44"/>
      </g>
     </g>
     <g id="line2d_78">
      <g>
       <use style="stroke:#000000;stroke-width:0.5;" x="501.812514205" xlink:href="#m741efc42ff" y="238.28"/>
      </g>
     </g>
     <g id="text_40">
      <!-- 180 -->
      <g transform="translate(491.417514205 415.558125)scale(0.12 -0.12)">
       <use xlink:href="#BitstreamVeraSans-Roman-31"/>
       <use x="63.623046875" xlink:href="#BitstreamVeraSans-Roman-38"/>
       <use x="127.24609375" xlink:href="#BitstreamVeraSans-Roman-30"/>
      </g>
     </g>
    </g>
   </g>
   <g id="matplotlib.axis_6">
    <g id="ytick_15">
     <g id="line2d_79">
      <g>
       <use style="stroke:#000000;stroke-width:0.5;" x="355.707485795" xlink:href="#m728421d6d4" y="402.44"/>
      </g>
     </g>
     <g id="line2d_80">
      <g>
       <use style="stroke:#000000;stroke-width:0.5;" x="501.812514205" xlink:href="#mcb0005524f" y="402.44"/>
      </g>
     </g>
     <g id="text_41">
      <!-- −3 -->
      <g transform="translate(336.249985795 405.75125)scale(0.12 -0.12)">
       <use xlink:href="#BitstreamVeraSans-Roman-2212"/>
       <use x="83.7890625" xlink:href="#BitstreamVeraSans-Roman-33"/>
      </g>
     </g>
    </g>
    <g id="ytick_16">
     <g id="line2d_81">
      <g>
       <use style="stroke:#000000;stroke-width:0.5;" x="355.707485795" xlink:href="#m728421d6d4" y="375.08"/>
      </g>
     </g>
     <g id="line2d_82">
      <g>
       <use style="stroke:#000000;stroke-width:0.5;" x="501.812514205" xlink:href="#mcb0005524f" y="375.08"/>
      </g>
     </g>
     <g id="text_42">
      <!-- −2 -->
      <g transform="translate(336.489985795 378.39125)scale(0.12 -0.12)">
       <use xlink:href="#BitstreamVeraSans-Roman-2212"/>
       <use x="83.7890625" xlink:href="#BitstreamVeraSans-Roman-32"/>
      </g>
     </g>
    </g>
    <g id="ytick_17">
     <g id="line2d_83">
      <g>
       <use style="stroke:#000000;stroke-width:0.5;" x="355.707485795" xlink:href="#m728421d6d4" y="347.72"/>
      </g>
     </g>
     <g id="line2d_84">
      <g>
       <use style="stroke:#000000;stroke-width:0.5;" x="501.812514205" xlink:href="#mcb0005524f" y="347.72"/>
      </g>
     </g>
     <g id="text_43">
      <!-- −1 -->
      <g transform="translate(336.396235795 351.03125)scale(0.12 -0.12)">
       <use xlink:href="#BitstreamVeraSans-Roman-2212"/>
       <use x="83.7890625" xlink:href="#BitstreamVeraSans-Roman-31"/>
      </g>
     </g>
    </g>
    <g id="ytick_18">
     <g id="line2d_85">
      <g>
       <use style="stroke:#000000;stroke-width:0.5;" x="355.707485795" xlink:href="#m728421d6d4" y="320.36"/>
      </g>
     </g>
     <g id="line2d_86">
      <g>
       <use style="stroke:#000000;stroke-width:0.5;" x="501.812514205" xlink:href="#mcb0005524f" y="320.36"/>
      </g>
     </g>
     <g id="text_44">
      <!-- 0 -->
      <g transform="translate(345.660610795 323.67125)scale(0.12 -0.12)">
       <use xlink:href="#BitstreamVeraSans-Roman-30"/>
      </g>
     </g>
    </g>
    <g id="ytick_19">
     <g id="line2d_87">
      <g>
       <use style="stroke:#000000;stroke-width:0.5;" x="355.707485795" xlink:href="#m728421d6d4" y="293.0"/>
      </g>
     </g>
     <g id="line2d_88">
      <g>
       <use style="stroke:#000000;stroke-width:0.5;" x="501.812514205" xlink:href="#mcb0005524f" y="293.0"/>
      </g>
     </g>
     <g id="text_45">
      <!-- 1 -->
      <g transform="translate(346.498735795 296.31125)scale(0.12 -0.12)">
       <use xlink:href="#BitstreamVeraSans-Roman-31"/>
      </g>
     </g>
    </g>
    <g id="ytick_20">
     <g id="line2d_89">
      <g>
       <use style="stroke:#000000;stroke-width:0.5;" x="355.707485795" xlink:href="#m728421d6d4" y="265.64"/>
      </g>
     </g>
     <g id="line2d_90">
      <g>
       <use style="stroke:#000000;stroke-width:0.5;" x="501.812514205" xlink:href="#mcb0005524f" y="265.64"/>
      </g>
     </g>
     <g id="text_46">
      <!-- 2 -->
      <g transform="translate(346.153735795 268.95125)scale(0.12 -0.12)">
       <use xlink:href="#BitstreamVeraSans-Roman-32"/>
      </g>
     </g>
    </g>
    <g id="ytick_21">
     <g id="line2d_91">
      <g>
       <use style="stroke:#000000;stroke-width:0.5;" x="355.707485795" xlink:href="#m728421d6d4" y="238.28"/>
      </g>
     </g>
     <g id="line2d_92">
      <g>
       <use style="stroke:#000000;stroke-width:0.5;" x="501.812514205" xlink:href="#mcb0005524f" y="238.28"/>
      </g>
     </g>
     <g id="text_47">
      <!-- 3 -->
      <g transform="translate(345.949360795 241.59125)scale(0.12 -0.12)">
       <use xlink:href="#BitstreamVeraSans-Roman-33"/>
      </g>
     </g>
    </g>
   </g>
   <g id="text_48">
    <!-- Pupil Diameter in Stress Trials -->
    <g transform="translate(321.850125 233.28)scale(0.144 -0.144)">
     <use xlink:href="#BitstreamVeraSans-Roman-50"/>
     <use x="58.552734375" xlink:href="#BitstreamVeraSans-Roman-75"/>
     <use x="121.931640625" xlink:href="#BitstreamVeraSans-Roman-70"/>
     <use x="185.408203125" xlink:href="#BitstreamVeraSans-Roman-69"/>
     <use x="213.19140625" xlink:href="#BitstreamVeraSans-Roman-6c"/>
     <use x="240.974609375" xlink:href="#BitstreamVeraSans-Roman-20"/>
     <use x="272.76171875" xlink:href="#BitstreamVeraSans-Roman-44"/>
     <use x="349.763671875" xlink:href="#BitstreamVeraSans-Roman-69"/>
     <use x="377.546875" xlink:href="#BitstreamVeraSans-Roman-61"/>
     <use x="438.826171875" xlink:href="#BitstreamVeraSans-Roman-6d"/>
     <use x="536.23828125" xlink:href="#BitstreamVeraSans-Roman-65"/>
     <use x="597.76171875" xlink:href="#BitstreamVeraSans-Roman-74"/>
     <use x="636.970703125" xlink:href="#BitstreamVeraSans-Roman-65"/>
     <use x="698.494140625" xlink:href="#BitstreamVeraSans-Roman-72"/>
     <use x="739.607421875" xlink:href="#BitstreamVeraSans-Roman-20"/>
     <use x="771.39453125" xlink:href="#BitstreamVeraSans-Roman-69"/>
     <use x="799.177734375" xlink:href="#BitstreamVeraSans-Roman-6e"/>
     <use x="862.556640625" xlink:href="#BitstreamVeraSans-Roman-20"/>
     <use x="894.34375" xlink:href="#BitstreamVeraSans-Roman-53"/>
     <use x="957.8203125" xlink:href="#BitstreamVeraSans-Roman-74"/>
     <use x="997.029296875" xlink:href="#BitstreamVeraSans-Roman-72"/>
     <use x="1035.89257812" xlink:href="#BitstreamVeraSans-Roman-65"/>
     <use x="1097.41601562" xlink:href="#BitstreamVeraSans-Roman-73"/>
     <use x="1149.515625" xlink:href="#BitstreamVeraSans-Roman-73"/>
     <use x="1201.61523438" xlink:href="#BitstreamVeraSans-Roman-20"/>
     <use x="1233.40234375" xlink:href="#BitstreamVeraSans-Roman-54"/>
     <use x="1279.73632812" xlink:href="#BitstreamVeraSans-Roman-72"/>
     <use x="1320.84960938" xlink:href="#BitstreamVeraSans-Roman-69"/>
     <use x="1348.6328125" xlink:href="#BitstreamVeraSans-Roman-61"/>
     <use x="1409.91210938" xlink:href="#BitstreamVeraSans-Roman-6c"/>
     <use x="1437.6953125" xlink:href="#BitstreamVeraSans-Roman-73"/>
    </g>
   </g>
  </g>
  <g id="axes_4">
   <g id="patch_17">
    <path d="
M355.707 192.92
L501.813 192.92
L501.813 28.76
L355.707 28.76
z
" style="fill:#ffffff;"/>
   </g>
   <g id="line2d_93">
    <path clip-path="url(#pf8eeff694e)" d="
M356.925 73.3882
L358.143 38.2883
L359.36 40.4771
L360.578 105.402
L361.795 106.579
L363.013 146.859
L364.23 136.423
L365.448 61.9182
L366.665 70.2353
L367.883 132.323
L369.1 138.259
L370.318 86.3917
L371.536 70.0016
L372.753 86.2574
L373.971 81.1558
L375.188 92.2819
L376.406 146.92
L377.623 80.4467
L378.841 90.1087
L380.058 103.155
L381.276 70.9252
L382.493 136.734
L383.711 73.9766
L384.928 125.89
L386.146 52.2031
L387.364 127.823
L388.581 155.881
L389.799 111.819
L391.016 106.524
L392.234 93.6798
L393.451 146.929
L394.669 74.223
L395.886 134.64
L397.104 107.702
L398.321 128.531
L399.539 73.2583
L400.757 106.237
L401.974 83.8875
L403.192 120.865
L404.409 99.4672
L405.627 129.394
L406.844 68.0496
L408.062 102.289
L409.279 78.6454
L410.497 158.941
L411.714 105.536
L412.932 124.053
L414.149 132.424
L415.367 126.565
L416.585 79.0057
L417.802 135.921
L419.02 94.5364
L420.237 106.772
L421.455 130.79
L422.672 160.29
L423.89 102.159
L425.107 115.565
L426.325 72.2395
L427.542 166.437
L428.76 114.765
L429.978 118.037
L431.195 54.5836
L432.413 126.473
L433.63 142.484
L434.848 68.1761
L436.065 139.09
L437.283 105.154
L438.5 80.9939
L439.718 143.886
L440.935 69.1324
L442.153 111.61
L443.371 109.96
L444.588 116.452
L445.806 125.03
L447.023 79.6785
L448.241 132.94
L449.458 108.326
L450.676 91.431
L451.893 107.716
L453.111 121.538
L454.328 84.5447
L455.546 93.2475
L456.763 113.507
L457.981 87.4718
L459.199 95.565
L460.416 88.6412
L461.634 146.069
L462.851 124.992
L464.069 100.769
L465.286 164.627
L466.504 100.309
L467.721 82.5717
L468.939 89.8849
L470.156 100.411
L471.374 130.981
L472.592 153.454
L473.809 113.898
L475.027 131.157
L476.244 91.9736
L477.462 90.2088
L478.679 98.0307
L479.897 135.215
L481.114 169.511
L482.332 106.755" style="fill:none;stroke:#0000ff;stroke-linecap:square;"/>
   </g>
   <g id="line2d_94">
    <path clip-path="url(#pf8eeff694e)" d="
M356.925 97.1052
L358.143 97.305
L359.36 97.5048
L360.578 97.7045
L361.795 97.9043
L363.013 98.1041
L364.23 98.3039
L365.448 98.5036
L366.665 98.7034
L367.883 98.9032
L369.1 99.103
L370.318 99.3027
L371.536 99.5025
L372.753 99.7023
L373.971 99.902
L375.188 100.102
L376.406 100.302
L377.623 100.501
L378.841 100.701
L380.058 100.901
L381.276 101.101
L382.493 101.3
L383.711 101.5
L384.928 101.7
L386.146 101.9
L387.364 102.1
L388.581 102.299
L389.799 102.499
L391.016 102.699
L392.234 102.899
L393.451 103.098
L394.669 103.298
L395.886 103.498
L397.104 103.698
L398.321 103.898
L399.539 104.097
L400.757 104.297
L401.974 104.497
L403.192 104.697
L404.409 104.896
L405.627 105.096
L406.844 105.296
L408.062 105.496
L409.279 105.695
L410.497 105.895
L411.714 106.095
L412.932 106.295
L414.149 106.495
L415.367 106.694
L416.585 106.894
L417.802 107.094
L419.02 107.294
L420.237 107.493
L421.455 107.693
L422.672 107.893
L423.89 108.093
L425.107 108.293
L426.325 108.492
L427.542 108.692
L428.76 108.892
L429.978 109.092
L431.195 109.291
L432.413 109.491
L433.63 109.691
L434.848 109.891
L436.065 110.09
L437.283 110.29
L438.5 110.49
L439.718 110.69
L440.935 110.89
L442.153 111.089
L443.371 111.289
L444.588 111.489
L445.806 111.689
L447.023 111.888
L448.241 112.088
L449.458 112.288
L450.676 112.488
L451.893 112.688
L453.111 112.887
L454.328 113.087
L455.546 113.287
L456.763 113.487
L457.981 113.686
L459.199 113.886
L460.416 114.086
L461.634 114.286
L462.851 114.485
L464.069 114.685
L465.286 114.885
L466.504 115.085
L467.721 115.285
L468.939 115.484
L470.156 115.684
L471.374 115.884
L472.592 116.084
L473.809 116.283
L475.027 116.483
L476.244 116.683
L477.462 116.883
L478.679 117.083
L479.897 117.282
L481.114 117.482
L482.332 117.682" style="fill:none;stroke:#0000ff;stroke-dasharray:6.000000,6.000000;stroke-dashoffset:0.0;"/>
   </g>
   <g id="patch_18">
    <path d="
M355.707 28.76
L501.813 28.76" style="fill:none;stroke:#000000;stroke-linecap:square;stroke-linejoin:miter;"/>
   </g>
   <g id="patch_19">
    <path d="
M501.813 192.92
L501.813 28.76" style="fill:none;stroke:#000000;stroke-linecap:square;stroke-linejoin:miter;"/>
   </g>
   <g id="patch_20">
    <path d="
M355.707 192.92
L501.813 192.92" style="fill:none;stroke:#000000;stroke-linecap:square;stroke-linejoin:miter;"/>
   </g>
   <g id="patch_21">
    <path d="
M355.707 192.92
L355.707 28.76" style="fill:none;stroke:#000000;stroke-linecap:square;stroke-linejoin:miter;"/>
   </g>
   <g id="matplotlib.axis_7">
    <g id="xtick_23">
     <g id="line2d_95">
      <g>
       <use style="stroke:#000000;stroke-width:0.5;" x="355.707485795" xlink:href="#m93b0483c22" y="192.92"/>
      </g>
     </g>
     <g id="line2d_96">
      <g>
       <use style="stroke:#000000;stroke-width:0.5;" x="355.707485795" xlink:href="#m741efc42ff" y="28.76"/>
      </g>
     </g>
     <g id="text_49">
      <!-- 0 -->
      <g transform="translate(352.684048295 206.038125)scale(0.12 -0.12)">
       <use xlink:href="#BitstreamVeraSans-Roman-30"/>
      </g>
     </g>
    </g>
    <g id="xtick_24">
     <g id="line2d_97">
      <g>
       <use style="stroke:#000000;stroke-width:0.5;" x="380.058323864" xlink:href="#m93b0483c22" y="192.92"/>
      </g>
     </g>
     <g id="line2d_98">
      <g>
       <use style="stroke:#000000;stroke-width:0.5;" x="380.058323864" xlink:href="#m741efc42ff" y="28.76"/>
      </g>
     </g>
     <g id="text_50">
      <!-- 20 -->
      <g transform="translate(373.261448864 206.038125)scale(0.12 -0.12)">
       <use xlink:href="#BitstreamVeraSans-Roman-32"/>
       <use x="63.623046875" xlink:href="#BitstreamVeraSans-Roman-30"/>
      </g>
     </g>
    </g>
    <g id="xtick_25">
     <g id="line2d_99">
      <g>
       <use style="stroke:#000000;stroke-width:0.5;" x="404.409161932" xlink:href="#m93b0483c22" y="192.92"/>
      </g>
     </g>
     <g id="line2d_100">
      <g>
       <use style="stroke:#000000;stroke-width:0.5;" x="404.409161932" xlink:href="#m741efc42ff" y="28.76"/>
      </g>
     </g>
     <g id="text_51">
      <!-- 40 -->
      <g transform="translate(397.466036932 206.038125)scale(0.12 -0.12)">
       <use xlink:href="#BitstreamVeraSans-Roman-34"/>
       <use x="63.623046875" xlink:href="#BitstreamVeraSans-Roman-30"/>
      </g>
     </g>
    </g>
    <g id="xtick_26">
     <g id="line2d_101">
      <g>
       <use style="stroke:#000000;stroke-width:0.5;" x="428.76" xlink:href="#m93b0483c22" y="192.92"/>
      </g>
     </g>
     <g id="line2d_102">
      <g>
       <use style="stroke:#000000;stroke-width:0.5;" x="428.76" xlink:href="#m741efc42ff" y="28.76"/>
      </g>
     </g>
     <g id="text_52">
      <!-- 60 -->
      <g transform="translate(421.9425 206.038125)scale(0.12 -0.12)">
       <use xlink:href="#BitstreamVeraSans-Roman-36"/>
       <use x="63.623046875" xlink:href="#BitstreamVeraSans-Roman-30"/>
      </g>
     </g>
    </g>
    <g id="xtick_27">
     <g id="line2d_103">
      <g>
       <use style="stroke:#000000;stroke-width:0.5;" x="453.110838068" xlink:href="#m93b0483c22" y="192.92"/>
      </g>
     </g>
     <g id="line2d_104">
      <g>
       <use style="stroke:#000000;stroke-width:0.5;" x="453.110838068" xlink:href="#m741efc42ff" y="28.76"/>
      </g>
     </g>
     <g id="text_53">
      <!-- 80 -->
      <g transform="translate(446.281150568 206.038125)scale(0.12 -0.12)">
       <use xlink:href="#BitstreamVeraSans-Roman-38"/>
       <use x="63.623046875" xlink:href="#BitstreamVeraSans-Roman-30"/>
      </g>
     </g>
    </g>
    <g id="xtick_28">
     <g id="line2d_105">
      <g>
       <use style="stroke:#000000;stroke-width:0.5;" x="477.461676136" xlink:href="#m93b0483c22" y="192.92"/>
      </g>
     </g>
     <g id="line2d_106">
      <g>
       <use style="stroke:#000000;stroke-width:0.5;" x="477.461676136" xlink:href="#m741efc42ff" y="28.76"/>
      </g>
     </g>
     <g id="text_54">
      <!-- 100 -->
      <g transform="translate(467.066676136 206.038125)scale(0.12 -0.12)">
       <use xlink:href="#BitstreamVeraSans-Roman-31"/>
       <use x="63.623046875" xlink:href="#BitstreamVeraSans-Roman-30"/>
       <use x="127.24609375" xlink:href="#BitstreamVeraSans-Roman-30"/>
      </g>
     </g>
    </g>
    <g id="xtick_29">
     <g id="line2d_107">
      <g>
       <use style="stroke:#000000;stroke-width:0.5;" x="501.812514205" xlink:href="#m93b0483c22" y="192.92"/>
      </g>
     </g>
     <g id="line2d_108">
      <g>
       <use style="stroke:#000000;stroke-width:0.5;" x="501.812514205" xlink:href="#m741efc42ff" y="28.76"/>
      </g>
     </g>
     <g id="text_55">
      <!-- 120 -->
      <g transform="translate(491.417514205 206.038125)scale(0.12 -0.12)">
       <use xlink:href="#BitstreamVeraSans-Roman-31"/>
       <use x="63.623046875" xlink:href="#BitstreamVeraSans-Roman-32"/>
       <use x="127.24609375" xlink:href="#BitstreamVeraSans-Roman-30"/>
      </g>
     </g>
    </g>
   </g>
   <g id="matplotlib.axis_8">
    <g id="ytick_22">
     <g id="line2d_109">
      <g>
       <use style="stroke:#000000;stroke-width:0.5;" x="355.707485795" xlink:href="#m728421d6d4" y="192.92"/>
      </g>
     </g>
     <g id="line2d_110">
      <g>
       <use style="stroke:#000000;stroke-width:0.5;" x="501.812514205" xlink:href="#mcb0005524f" y="192.92"/>
      </g>
     </g>
     <g id="text_56">
      <!-- −3 -->
      <g transform="translate(336.249985795 196.23125)scale(0.12 -0.12)">
       <use xlink:href="#BitstreamVeraSans-Roman-2212"/>
       <use x="83.7890625" xlink:href="#BitstreamVeraSans-Roman-33"/>
      </g>
     </g>
    </g>
    <g id="ytick_23">
     <g id="line2d_111">
      <g>
       <use style="stroke:#000000;stroke-width:0.5;" x="355.707485795" xlink:href="#m728421d6d4" y="165.56"/>
      </g>
     </g>
     <g id="line2d_112">
      <g>
       <use style="stroke:#000000;stroke-width:0.5;" x="501.812514205" xlink:href="#mcb0005524f" y="165.56"/>
      </g>
     </g>
     <g id="text_57">
      <!-- −2 -->
      <g transform="translate(336.489985795 168.87125)scale(0.12 -0.12)">
       <use xlink:href="#BitstreamVeraSans-Roman-2212"/>
       <use x="83.7890625" xlink:href="#BitstreamVeraSans-Roman-32"/>
      </g>
     </g>
    </g>
    <g id="ytick_24">
     <g id="line2d_113">
      <g>
       <use style="stroke:#000000;stroke-width:0.5;" x="355.707485795" xlink:href="#m728421d6d4" y="138.2"/>
      </g>
     </g>
     <g id="line2d_114">
      <g>
       <use style="stroke:#000000;stroke-width:0.5;" x="501.812514205" xlink:href="#mcb0005524f" y="138.2"/>
      </g>
     </g>
     <g id="text_58">
      <!-- −1 -->
      <g transform="translate(336.396235795 141.51125)scale(0.12 -0.12)">
       <use xlink:href="#BitstreamVeraSans-Roman-2212"/>
       <use x="83.7890625" xlink:href="#BitstreamVeraSans-Roman-31"/>
      </g>
     </g>
    </g>
    <g id="ytick_25">
     <g id="line2d_115">
      <g>
       <use style="stroke:#000000;stroke-width:0.5;" x="355.707485795" xlink:href="#m728421d6d4" y="110.84"/>
      </g>
     </g>
     <g id="line2d_116">
      <g>
       <use style="stroke:#000000;stroke-width:0.5;" x="501.812514205" xlink:href="#mcb0005524f" y="110.84"/>
      </g>
     </g>
     <g id="text_59">
      <!-- 0 -->
      <g transform="translate(345.660610795 114.15125)scale(0.12 -0.12)">
       <use xlink:href="#BitstreamVeraSans-Roman-30"/>
      </g>
     </g>
    </g>
    <g id="ytick_26">
     <g id="line2d_117">
      <g>
       <use style="stroke:#000000;stroke-width:0.5;" x="355.707485795" xlink:href="#m728421d6d4" y="83.48"/>
      </g>
     </g>
     <g id="line2d_118">
      <g>
       <use style="stroke:#000000;stroke-width:0.5;" x="501.812514205" xlink:href="#mcb0005524f" y="83.48"/>
      </g>
     </g>
     <g id="text_60">
      <!-- 1 -->
      <g transform="translate(346.498735795 86.79125)scale(0.12 -0.12)">
       <use xlink:href="#BitstreamVeraSans-Roman-31"/>
      </g>
     </g>
    </g>
    <g id="ytick_27">
     <g id="line2d_119">
      <g>
       <use style="stroke:#000000;stroke-width:0.5;" x="355.707485795" xlink:href="#m728421d6d4" y="56.12"/>
      </g>
     </g>
     <g id="line2d_120">
      <g>
       <use style="stroke:#000000;stroke-width:0.5;" x="501.812514205" xlink:href="#mcb0005524f" y="56.12"/>
      </g>
     </g>
     <g id="text_61">
      <!-- 2 -->
      <g transform="translate(346.153735795 59.43125)scale(0.12 -0.12)">
       <use xlink:href="#BitstreamVeraSans-Roman-32"/>
      </g>
     </g>
    </g>
    <g id="ytick_28">
     <g id="line2d_121">
      <g>
       <use style="stroke:#000000;stroke-width:0.5;" x="355.707485795" xlink:href="#m728421d6d4" y="28.76"/>
      </g>
     </g>
     <g id="line2d_122">
      <g>
       <use style="stroke:#000000;stroke-width:0.5;" x="501.812514205" xlink:href="#mcb0005524f" y="28.76"/>
      </g>
     </g>
     <g id="text_62">
      <!-- 3 -->
      <g transform="translate(345.949360795 32.07125)scale(0.12 -0.12)">
       <use xlink:href="#BitstreamVeraSans-Roman-33"/>
      </g>
     </g>
    </g>
   </g>
   <g id="text_63">
    <!-- Pupil Diameter in Regular Trials before Stress -->
    <g transform="translate(266.488875 23.76)scale(0.144 -0.144)">
     <use xlink:href="#BitstreamVeraSans-Roman-50"/>
     <use x="58.552734375" xlink:href="#BitstreamVeraSans-Roman-75"/>
     <use x="121.931640625" xlink:href="#BitstreamVeraSans-Roman-70"/>
     <use x="185.408203125" xlink:href="#BitstreamVeraSans-Roman-69"/>
     <use x="213.19140625" xlink:href="#BitstreamVeraSans-Roman-6c"/>
     <use x="240.974609375" xlink:href="#BitstreamVeraSans-Roman-20"/>
     <use x="272.76171875" xlink:href="#BitstreamVeraSans-Roman-44"/>
     <use x="349.763671875" xlink:href="#BitstreamVeraSans-Roman-69"/>
     <use x="377.546875" xlink:href="#BitstreamVeraSans-Roman-61"/>
     <use x="438.826171875" xlink:href="#BitstreamVeraSans-Roman-6d"/>
     <use x="536.23828125" xlink:href="#BitstreamVeraSans-Roman-65"/>
     <use x="597.76171875" xlink:href="#BitstreamVeraSans-Roman-74"/>
     <use x="636.970703125" xlink:href="#BitstreamVeraSans-Roman-65"/>
     <use x="698.494140625" xlink:href="#BitstreamVeraSans-Roman-72"/>
     <use x="739.607421875" xlink:href="#BitstreamVeraSans-Roman-20"/>
     <use x="771.39453125" xlink:href="#BitstreamVeraSans-Roman-69"/>
     <use x="799.177734375" xlink:href="#BitstreamVeraSans-Roman-6e"/>
     <use x="862.556640625" xlink:href="#BitstreamVeraSans-Roman-20"/>
     <use x="894.34375" xlink:href="#BitstreamVeraSans-Roman-52"/>
     <use x="959.326171875" xlink:href="#BitstreamVeraSans-Roman-65"/>
     <use x="1020.84960938" xlink:href="#BitstreamVeraSans-Roman-67"/>
     <use x="1084.32617188" xlink:href="#BitstreamVeraSans-Roman-75"/>
     <use x="1147.70507812" xlink:href="#BitstreamVeraSans-Roman-6c"/>
     <use x="1175.48828125" xlink:href="#BitstreamVeraSans-Roman-61"/>
     <use x="1236.76757812" xlink:href="#BitstreamVeraSans-Roman-72"/>
     <use x="1277.88085938" xlink:href="#BitstreamVeraSans-Roman-20"/>
     <use x="1309.66796875" xlink:href="#BitstreamVeraSans-Roman-54"/>
     <use x="1356.00195312" xlink:href="#BitstreamVeraSans-Roman-72"/>
     <use x="1397.11523438" xlink:href="#BitstreamVeraSans-Roman-69"/>
     <use x="1424.8984375" xlink:href="#BitstreamVeraSans-Roman-61"/>
     <use x="1486.17773438" xlink:href="#BitstreamVeraSans-Roman-6c"/>
     <use x="1513.9609375" xlink:href="#BitstreamVeraSans-Roman-73"/>
     <use x="1566.06054688" xlink:href="#BitstreamVeraSans-Roman-20"/>
     <use x="1597.84765625" xlink:href="#BitstreamVeraSans-Roman-62"/>
     <use x="1661.32421875" xlink:href="#BitstreamVeraSans-Roman-65"/>
     <use x="1722.84765625" xlink:href="#BitstreamVeraSans-Roman-66"/>
     <use x="1758.05273438" xlink:href="#BitstreamVeraSans-Roman-6f"/>
     <use x="1819.234375" xlink:href="#BitstreamVeraSans-Roman-72"/>
     <use x="1858.09765625" xlink:href="#BitstreamVeraSans-Roman-65"/>
     <use x="1919.62109375" xlink:href="#BitstreamVeraSans-Roman-20"/>
     <use x="1951.40820312" xlink:href="#BitstreamVeraSans-Roman-53"/>
     <use x="2014.88476562" xlink:href="#BitstreamVeraSans-Roman-74"/>
     <use x="2054.09375" xlink:href="#BitstreamVeraSans-Roman-72"/>
     <use x="2092.95703125" xlink:href="#BitstreamVeraSans-Roman-65"/>
     <use x="2154.48046875" xlink:href="#BitstreamVeraSans-Roman-73"/>
     <use x="2206.58007812" xlink:href="#BitstreamVeraSans-Roman-73"/>
    </g>
   </g>
  </g>
 </g>
 <defs>
  <clipPath id="p1cbca1c66b">
   <rect height="164.16" width="146.105028409" x="355.707485795" y="238.28"/>
  </clipPath>
  <clipPath id="p03a1b07124">
   <rect height="164.16" width="146.105028409" x="74.1874857955" y="238.28"/>
  </clipPath>
  <clipPath id="pf8eeff694e">
   <rect height="164.16" width="146.105028409" x="355.707485795" y="28.76"/>
  </clipPath>
  <clipPath id="p528d018644">
   <rect height="164.16" width="146.105028409" x="74.1874857955" y="28.76"/>
  </clipPath>
 </defs>
</svg>
