<?xml version="1.0" encoding="utf-8" standalone="no"?>
<!DOCTYPE svg PUBLIC "-//W3C//DTD SVG 1.1//EN"
  "http://www.w3.org/Graphics/SVG/1.1/DTD/svg11.dtd">
<!-- Created with matplotlib (http://matplotlib.org/) -->
<svg height="345pt" version="1.1" viewBox="0 0 460 345" width="460pt" xmlns="http://www.w3.org/2000/svg" xmlns:xlink="http://www.w3.org/1999/xlink">
 <defs>
  <style type="text/css">
*{stroke-linecap:butt;stroke-linejoin:round;}
  </style>
 </defs>
 <g id="figure_1">
  <g id="patch_1">
   <path d="M 0 345.6 
L 460.8 345.6 
L 460.8 0 
L 0 0 
z
" style="fill:#ffffff;"/>
  </g>
  <g id="axes_1">
   <g id="patch_2">
    <path d="M 57.6 307.584 
L 219.927273 307.584 
L 219.927273 41.472 
L 57.6 41.472 
z
" style="fill:#ffffff;"/>
   </g>
   <g id="matplotlib.axis_1">
    <g id="xtick_1">
     <g id="line2d_1">
      <defs>
       <path d="M 0 0 
L 0 3.5 
" id="m64664d8328" style="stroke:#000000;stroke-width:0.8;"/>
      </defs>
      <g>
       <use style="stroke:#000000;stroke-width:0.8;" x="64.978512" xlink:href="#m64664d8328" y="307.584"/>
      </g>
     </g>
     <g id="text_1">
      <!-- 0.0 -->
      <defs>
       <path d="M 31.78125 66.40625 
Q 24.171875 66.40625 20.328125 58.90625 
Q 16.5 51.421875 16.5 36.375 
Q 16.5 21.390625 20.328125 13.890625 
Q 24.171875 6.390625 31.78125 6.390625 
Q 39.453125 6.390625 43.28125 13.890625 
Q 47.125 21.390625 47.125 36.375 
Q 47.125 51.421875 43.28125 58.90625 
Q 39.453125 66.40625 31.78125 66.40625 
z
M 31.78125 74.21875 
Q 44.046875 74.21875 50.515625 64.515625 
Q 56.984375 54.828125 56.984375 36.375 
Q 56.984375 17.96875 50.515625 8.265625 
Q 44.046875 -1.421875 31.78125 -1.421875 
Q 19.53125 -1.421875 13.0625 8.265625 
Q 6.59375 17.96875 6.59375 36.375 
Q 6.59375 54.828125 13.0625 64.515625 
Q 19.53125 74.21875 31.78125 74.21875 
z
" id="DejaVuSans-30"/>
       <path d="M 10.6875 12.40625 
L 21 12.40625 
L 21 0 
L 10.6875 0 
z
" id="DejaVuSans-2e"/>
      </defs>
      <g transform="translate(57.02695 322.182437)scale(0.1 -0.1)">
       <use xlink:href="#DejaVuSans-30"/>
       <use x="63.623047" xlink:href="#DejaVuSans-2e"/>
       <use x="95.410156" xlink:href="#DejaVuSans-30"/>
      </g>
     </g>
    </g>
    <g id="xtick_2">
     <g id="line2d_2">
      <g>
       <use style="stroke:#000000;stroke-width:0.8;" x="78.233325" xlink:href="#m64664d8328" y="307.584"/>
      </g>
     </g>
     <g id="text_2">
      <!-- 5.0 -->
      <defs>
       <path d="M 10.796875 72.90625 
L 49.515625 72.90625 
L 49.515625 64.59375 
L 19.828125 64.59375 
L 19.828125 46.734375 
Q 21.96875 47.46875 24.109375 47.828125 
Q 26.265625 48.1875 28.421875 48.1875 
Q 40.625 48.1875 47.75 41.5 
Q 54.890625 34.8125 54.890625 23.390625 
Q 54.890625 11.625 47.5625 5.09375 
Q 40.234375 -1.421875 26.90625 -1.421875 
Q 22.3125 -1.421875 17.546875 -0.640625 
Q 12.796875 0.140625 7.71875 1.703125 
L 7.71875 11.625 
Q 12.109375 9.234375 16.796875 8.0625 
Q 21.484375 6.890625 26.703125 6.890625 
Q 35.15625 6.890625 40.078125 11.328125 
Q 45.015625 15.765625 45.015625 23.390625 
Q 45.015625 31 40.078125 35.4375 
Q 35.15625 39.890625 26.703125 39.890625 
Q 22.75 39.890625 18.8125 39.015625 
Q 14.890625 38.140625 10.796875 36.28125 
z
" id="DejaVuSans-35"/>
      </defs>
      <g transform="translate(70.281763 322.182437)scale(0.1 -0.1)">
       <use xlink:href="#DejaVuSans-35"/>
       <use x="63.623047" xlink:href="#DejaVuSans-2e"/>
       <use x="95.410156" xlink:href="#DejaVuSans-30"/>
      </g>
     </g>
    </g>
    <g id="xtick_3">
     <g id="line2d_3">
      <g>
       <use style="stroke:#000000;stroke-width:0.8;" x="91.488138" xlink:href="#m64664d8328" y="307.584"/>
      </g>
     </g>
     <g id="text_3">
      <!-- 10.0 -->
      <defs>
       <path d="M 12.40625 8.296875 
L 28.515625 8.296875 
L 28.515625 63.921875 
L 10.984375 60.40625 
L 10.984375 69.390625 
L 28.421875 72.90625 
L 38.28125 72.90625 
L 38.28125 8.296875 
L 54.390625 8.296875 
L 54.390625 0 
L 12.40625 0 
z
" id="DejaVuSans-31"/>
      </defs>
      <g transform="translate(80.355325 322.182437)scale(0.1 -0.1)">
       <use xlink:href="#DejaVuSans-31"/>
       <use x="63.623047" xlink:href="#DejaVuSans-30"/>
       <use x="127.246094" xlink:href="#DejaVuSans-2e"/>
       <use x="159.033203" xlink:href="#DejaVuSans-30"/>
      </g>
     </g>
    </g>
    <g id="xtick_4">
     <g id="line2d_4">
      <g>
       <use style="stroke:#000000;stroke-width:0.8;" x="104.74295" xlink:href="#m64664d8328" y="307.584"/>
      </g>
     </g>
     <g id="text_4">
      <!-- 15.0 -->
      <g transform="translate(93.610138 322.182437)scale(0.1 -0.1)">
       <use xlink:href="#DejaVuSans-31"/>
       <use x="63.623047" xlink:href="#DejaVuSans-35"/>
       <use x="127.246094" xlink:href="#DejaVuSans-2e"/>
       <use x="159.033203" xlink:href="#DejaVuSans-30"/>
      </g>
     </g>
    </g>
    <g id="xtick_5">
     <g id="line2d_5">
      <g>
       <use style="stroke:#000000;stroke-width:0.8;" x="117.997763" xlink:href="#m64664d8328" y="307.584"/>
      </g>
     </g>
     <g id="text_5">
      <!-- 20.0 -->
      <defs>
       <path d="M 19.1875 8.296875 
L 53.609375 8.296875 
L 53.609375 0 
L 7.328125 0 
L 7.328125 8.296875 
Q 12.9375 14.109375 22.625 23.890625 
Q 32.328125 33.6875 34.8125 36.53125 
Q 39.546875 41.84375 41.421875 45.53125 
Q 43.3125 49.21875 43.3125 52.78125 
Q 43.3125 58.59375 39.234375 62.25 
Q 35.15625 65.921875 28.609375 65.921875 
Q 23.96875 65.921875 18.8125 64.3125 
Q 13.671875 62.703125 7.8125 59.421875 
L 7.8125 69.390625 
Q 13.765625 71.78125 18.9375 73 
Q 24.125 74.21875 28.421875 74.21875 
Q 39.75 74.21875 46.484375 68.546875 
Q 53.21875 62.890625 53.21875 53.421875 
Q 53.21875 48.921875 51.53125 44.890625 
Q 49.859375 40.875 45.40625 35.40625 
Q 44.1875 33.984375 37.640625 27.21875 
Q 31.109375 20.453125 19.1875 8.296875 
z
" id="DejaVuSans-32"/>
      </defs>
      <g transform="translate(106.864951 322.182437)scale(0.1 -0.1)">
       <use xlink:href="#DejaVuSans-32"/>
       <use x="63.623047" xlink:href="#DejaVuSans-30"/>
       <use x="127.246094" xlink:href="#DejaVuSans-2e"/>
       <use x="159.033203" xlink:href="#DejaVuSans-30"/>
      </g>
     </g>
    </g>
    <g id="xtick_6">
     <g id="line2d_6">
      <g>
       <use style="stroke:#000000;stroke-width:0.8;" x="131.252576" xlink:href="#m64664d8328" y="307.584"/>
      </g>
     </g>
     <g id="text_6">
      <!-- 25.0 -->
      <g transform="translate(120.119763 322.182437)scale(0.1 -0.1)">
       <use xlink:href="#DejaVuSans-32"/>
       <use x="63.623047" xlink:href="#DejaVuSans-35"/>
       <use x="127.246094" xlink:href="#DejaVuSans-2e"/>
       <use x="159.033203" xlink:href="#DejaVuSans-30"/>
      </g>
     </g>
    </g>
    <g id="xtick_7">
     <g id="line2d_7">
      <g>
       <use style="stroke:#000000;stroke-width:0.8;" x="144.507389" xlink:href="#m64664d8328" y="307.584"/>
      </g>
     </g>
     <g id="text_7">
      <!-- 30.0 -->
      <defs>
       <path d="M 40.578125 39.3125 
Q 47.65625 37.796875 51.625 33 
Q 55.609375 28.21875 55.609375 21.1875 
Q 55.609375 10.40625 48.1875 4.484375 
Q 40.765625 -1.421875 27.09375 -1.421875 
Q 22.515625 -1.421875 17.65625 -0.515625 
Q 12.796875 0.390625 7.625 2.203125 
L 7.625 11.71875 
Q 11.71875 9.328125 16.59375 8.109375 
Q 21.484375 6.890625 26.8125 6.890625 
Q 36.078125 6.890625 40.9375 10.546875 
Q 45.796875 14.203125 45.796875 21.1875 
Q 45.796875 27.640625 41.28125 31.265625 
Q 36.765625 34.90625 28.71875 34.90625 
L 20.21875 34.90625 
L 20.21875 43.015625 
L 29.109375 43.015625 
Q 36.375 43.015625 40.234375 45.921875 
Q 44.09375 48.828125 44.09375 54.296875 
Q 44.09375 59.90625 40.109375 62.90625 
Q 36.140625 65.921875 28.71875 65.921875 
Q 24.65625 65.921875 20.015625 65.03125 
Q 15.375 64.15625 9.8125 62.3125 
L 9.8125 71.09375 
Q 15.4375 72.65625 20.34375 73.4375 
Q 25.25 74.21875 29.59375 74.21875 
Q 40.828125 74.21875 47.359375 69.109375 
Q 53.90625 64.015625 53.90625 55.328125 
Q 53.90625 49.265625 50.4375 45.09375 
Q 46.96875 40.921875 40.578125 39.3125 
z
" id="DejaVuSans-33"/>
      </defs>
      <g transform="translate(133.374576 322.182437)scale(0.1 -0.1)">
       <use xlink:href="#DejaVuSans-33"/>
       <use x="63.623047" xlink:href="#DejaVuSans-30"/>
       <use x="127.246094" xlink:href="#DejaVuSans-2e"/>
       <use x="159.033203" xlink:href="#DejaVuSans-30"/>
      </g>
     </g>
    </g>
    <g id="xtick_8">
     <g id="line2d_8">
      <g>
       <use style="stroke:#000000;stroke-width:0.8;" x="157.762201" xlink:href="#m64664d8328" y="307.584"/>
      </g>
     </g>
     <g id="text_8">
      <!-- 35.0 -->
      <g transform="translate(146.629389 322.182437)scale(0.1 -0.1)">
       <use xlink:href="#DejaVuSans-33"/>
       <use x="63.623047" xlink:href="#DejaVuSans-35"/>
       <use x="127.246094" xlink:href="#DejaVuSans-2e"/>
       <use x="159.033203" xlink:href="#DejaVuSans-30"/>
      </g>
     </g>
    </g>
    <g id="xtick_9">
     <g id="line2d_9">
      <g>
       <use style="stroke:#000000;stroke-width:0.8;" x="171.017014" xlink:href="#m64664d8328" y="307.584"/>
      </g>
     </g>
     <g id="text_9">
      <!-- 40.0 -->
      <defs>
       <path d="M 37.796875 64.3125 
L 12.890625 25.390625 
L 37.796875 25.390625 
z
M 35.203125 72.90625 
L 47.609375 72.90625 
L 47.609375 25.390625 
L 58.015625 25.390625 
L 58.015625 17.1875 
L 47.609375 17.1875 
L 47.609375 0 
L 37.796875 0 
L 37.796875 17.1875 
L 4.890625 17.1875 
L 4.890625 26.703125 
z
" id="DejaVuSans-34"/>
      </defs>
      <g transform="translate(159.884201 322.182437)scale(0.1 -0.1)">
       <use xlink:href="#DejaVuSans-34"/>
       <use x="63.623047" xlink:href="#DejaVuSans-30"/>
       <use x="127.246094" xlink:href="#DejaVuSans-2e"/>
       <use x="159.033203" xlink:href="#DejaVuSans-30"/>
      </g>
     </g>
    </g>
    <g id="xtick_10">
     <g id="line2d_10">
      <g>
       <use style="stroke:#000000;stroke-width:0.8;" x="184.271827" xlink:href="#m64664d8328" y="307.584"/>
      </g>
     </g>
     <g id="text_10">
      <!-- 45.0 -->
      <g transform="translate(173.139014 322.182437)scale(0.1 -0.1)">
       <use xlink:href="#DejaVuSans-34"/>
       <use x="63.623047" xlink:href="#DejaVuSans-35"/>
       <use x="127.246094" xlink:href="#DejaVuSans-2e"/>
       <use x="159.033203" xlink:href="#DejaVuSans-30"/>
      </g>
     </g>
    </g>
    <g id="xtick_11">
     <g id="line2d_11">
      <g>
       <use style="stroke:#000000;stroke-width:0.8;" x="197.526639" xlink:href="#m64664d8328" y="307.584"/>
      </g>
     </g>
     <g id="text_11">
      <!-- 50.0 -->
      <g transform="translate(186.393827 322.182437)scale(0.1 -0.1)">
       <use xlink:href="#DejaVuSans-35"/>
       <use x="63.623047" xlink:href="#DejaVuSans-30"/>
       <use x="127.246094" xlink:href="#DejaVuSans-2e"/>
       <use x="159.033203" xlink:href="#DejaVuSans-30"/>
      </g>
     </g>
    </g>
    <g id="xtick_12">
     <g id="line2d_12">
      <g>
       <use style="stroke:#000000;stroke-width:0.8;" x="210.781452" xlink:href="#m64664d8328" y="307.584"/>
      </g>
     </g>
     <g id="text_12">
      <!-- 55.0 -->
      <g transform="translate(199.648639 322.182437)scale(0.1 -0.1)">
       <use xlink:href="#DejaVuSans-35"/>
       <use x="63.623047" xlink:href="#DejaVuSans-35"/>
       <use x="127.246094" xlink:href="#DejaVuSans-2e"/>
       <use x="159.033203" xlink:href="#DejaVuSans-30"/>
      </g>
     </g>
    </g>
    <g id="text_13">
     <!-- Minutes -->
     <defs>
      <path d="M 9.8125 72.90625 
L 24.515625 72.90625 
L 43.109375 23.296875 
L 61.8125 72.90625 
L 76.515625 72.90625 
L 76.515625 0 
L 66.890625 0 
L 66.890625 64.015625 
L 48.09375 14.015625 
L 38.1875 14.015625 
L 19.390625 64.015625 
L 19.390625 0 
L 9.8125 0 
z
" id="DejaVuSans-4d"/>
      <path d="M 9.421875 54.6875 
L 18.40625 54.6875 
L 18.40625 0 
L 9.421875 0 
z
M 9.421875 75.984375 
L 18.40625 75.984375 
L 18.40625 64.59375 
L 9.421875 64.59375 
z
" id="DejaVuSans-69"/>
      <path d="M 54.890625 33.015625 
L 54.890625 0 
L 45.90625 0 
L 45.90625 32.71875 
Q 45.90625 40.484375 42.875 44.328125 
Q 39.84375 48.1875 33.796875 48.1875 
Q 26.515625 48.1875 22.3125 43.546875 
Q 18.109375 38.921875 18.109375 30.90625 
L 18.109375 0 
L 9.078125 0 
L 9.078125 54.6875 
L 18.109375 54.6875 
L 18.109375 46.1875 
Q 21.34375 51.125 25.703125 53.5625 
Q 30.078125 56 35.796875 56 
Q 45.21875 56 50.046875 50.171875 
Q 54.890625 44.34375 54.890625 33.015625 
z
" id="DejaVuSans-6e"/>
      <path d="M 8.5 21.578125 
L 8.5 54.6875 
L 17.484375 54.6875 
L 17.484375 21.921875 
Q 17.484375 14.15625 20.5 10.265625 
Q 23.53125 6.390625 29.59375 6.390625 
Q 36.859375 6.390625 41.078125 11.03125 
Q 45.3125 15.671875 45.3125 23.6875 
L 45.3125 54.6875 
L 54.296875 54.6875 
L 54.296875 0 
L 45.3125 0 
L 45.3125 8.40625 
Q 42.046875 3.421875 37.71875 1 
Q 33.40625 -1.421875 27.6875 -1.421875 
Q 18.265625 -1.421875 13.375 4.4375 
Q 8.5 10.296875 8.5 21.578125 
z
M 31.109375 56 
z
" id="DejaVuSans-75"/>
      <path d="M 18.3125 70.21875 
L 18.3125 54.6875 
L 36.8125 54.6875 
L 36.8125 47.703125 
L 18.3125 47.703125 
L 18.3125 18.015625 
Q 18.3125 11.328125 20.140625 9.421875 
Q 21.96875 7.515625 27.59375 7.515625 
L 36.8125 7.515625 
L 36.8125 0 
L 27.59375 0 
Q 17.1875 0 13.234375 3.875 
Q 9.28125 7.765625 9.28125 18.015625 
L 9.28125 47.703125 
L 2.6875 47.703125 
L 2.6875 54.6875 
L 9.28125 54.6875 
L 9.28125 70.21875 
z
" id="DejaVuSans-74"/>
      <path d="M 56.203125 29.59375 
L 56.203125 25.203125 
L 14.890625 25.203125 
Q 15.484375 15.921875 20.484375 11.0625 
Q 25.484375 6.203125 34.421875 6.203125 
Q 39.59375 6.203125 44.453125 7.46875 
Q 49.3125 8.734375 54.109375 11.28125 
L 54.109375 2.78125 
Q 49.265625 0.734375 44.1875 -0.34375 
Q 39.109375 -1.421875 33.890625 -1.421875 
Q 20.796875 -1.421875 13.15625 6.1875 
Q 5.515625 13.8125 5.515625 26.8125 
Q 5.515625 40.234375 12.765625 48.109375 
Q 20.015625 56 32.328125 56 
Q 43.359375 56 49.78125 48.890625 
Q 56.203125 41.796875 56.203125 29.59375 
z
M 47.21875 32.234375 
Q 47.125 39.59375 43.09375 43.984375 
Q 39.0625 48.390625 32.421875 48.390625 
Q 24.90625 48.390625 20.390625 44.140625 
Q 15.875 39.890625 15.1875 32.171875 
z
" id="DejaVuSans-65"/>
      <path d="M 44.28125 53.078125 
L 44.28125 44.578125 
Q 40.484375 46.53125 36.375 47.5 
Q 32.28125 48.484375 27.875 48.484375 
Q 21.1875 48.484375 17.84375 46.4375 
Q 14.5 44.390625 14.5 40.28125 
Q 14.5 37.15625 16.890625 35.375 
Q 19.28125 33.59375 26.515625 31.984375 
L 29.59375 31.296875 
Q 39.15625 29.25 43.1875 25.515625 
Q 47.21875 21.78125 47.21875 15.09375 
Q 47.21875 7.46875 41.1875 3.015625 
Q 35.15625 -1.421875 24.609375 -1.421875 
Q 20.21875 -1.421875 15.453125 -0.5625 
Q 10.6875 0.296875 5.421875 2 
L 5.421875 11.28125 
Q 10.40625 8.6875 15.234375 7.390625 
Q 20.0625 6.109375 24.8125 6.109375 
Q 31.15625 6.109375 34.5625 8.28125 
Q 37.984375 10.453125 37.984375 14.40625 
Q 37.984375 18.0625 35.515625 20.015625 
Q 33.0625 21.96875 24.703125 23.78125 
L 21.578125 24.515625 
Q 13.234375 26.265625 9.515625 29.90625 
Q 5.8125 33.546875 5.8125 39.890625 
Q 5.8125 47.609375 11.28125 51.796875 
Q 16.75 56 26.8125 56 
Q 31.78125 56 36.171875 55.265625 
Q 40.578125 54.546875 44.28125 53.078125 
z
" id="DejaVuSans-73"/>
     </defs>
     <g transform="translate(119.081605 335.860562)scale(0.1 -0.1)">
      <use xlink:href="#DejaVuSans-4d"/>
      <use x="86.279297" xlink:href="#DejaVuSans-69"/>
      <use x="114.0625" xlink:href="#DejaVuSans-6e"/>
      <use x="177.441406" xlink:href="#DejaVuSans-75"/>
      <use x="240.820312" xlink:href="#DejaVuSans-74"/>
      <use x="280.029297" xlink:href="#DejaVuSans-65"/>
      <use x="341.552734" xlink:href="#DejaVuSans-73"/>
     </g>
    </g>
   </g>
   <g id="matplotlib.axis_2">
    <g id="ytick_1">
     <g id="line2d_13">
      <defs>
       <path d="M 0 0 
L -3.5 0 
" id="m10530919d4" style="stroke:#000000;stroke-width:0.8;"/>
      </defs>
      <g>
       <use style="stroke:#000000;stroke-width:0.8;" x="57.6" xlink:href="#m10530919d4" y="292.664337"/>
      </g>
     </g>
     <g id="text_14">
      <!-- 0.32 -->
      <g transform="translate(28.334375 296.463555)scale(0.1 -0.1)">
       <use xlink:href="#DejaVuSans-30"/>
       <use x="63.623047" xlink:href="#DejaVuSans-2e"/>
       <use x="95.410156" xlink:href="#DejaVuSans-33"/>
       <use x="159.033203" xlink:href="#DejaVuSans-32"/>
      </g>
     </g>
    </g>
    <g id="ytick_2">
     <g id="line2d_14">
      <g>
       <use style="stroke:#000000;stroke-width:0.8;" x="57.6" xlink:href="#m10530919d4" y="249.170904"/>
      </g>
     </g>
     <g id="text_15">
      <!-- 0.34 -->
      <g transform="translate(28.334375 252.970123)scale(0.1 -0.1)">
       <use xlink:href="#DejaVuSans-30"/>
       <use x="63.623047" xlink:href="#DejaVuSans-2e"/>
       <use x="95.410156" xlink:href="#DejaVuSans-33"/>
       <use x="159.033203" xlink:href="#DejaVuSans-34"/>
      </g>
     </g>
    </g>
    <g id="ytick_3">
     <g id="line2d_15">
      <g>
       <use style="stroke:#000000;stroke-width:0.8;" x="57.6" xlink:href="#m10530919d4" y="205.677471"/>
      </g>
     </g>
     <g id="text_16">
      <!-- 0.36 -->
      <defs>
       <path d="M 33.015625 40.375 
Q 26.375 40.375 22.484375 35.828125 
Q 18.609375 31.296875 18.609375 23.390625 
Q 18.609375 15.53125 22.484375 10.953125 
Q 26.375 6.390625 33.015625 6.390625 
Q 39.65625 6.390625 43.53125 10.953125 
Q 47.40625 15.53125 47.40625 23.390625 
Q 47.40625 31.296875 43.53125 35.828125 
Q 39.65625 40.375 33.015625 40.375 
z
M 52.59375 71.296875 
L 52.59375 62.3125 
Q 48.875 64.0625 45.09375 64.984375 
Q 41.3125 65.921875 37.59375 65.921875 
Q 27.828125 65.921875 22.671875 59.328125 
Q 17.53125 52.734375 16.796875 39.40625 
Q 19.671875 43.65625 24.015625 45.921875 
Q 28.375 48.1875 33.59375 48.1875 
Q 44.578125 48.1875 50.953125 41.515625 
Q 57.328125 34.859375 57.328125 23.390625 
Q 57.328125 12.15625 50.6875 5.359375 
Q 44.046875 -1.421875 33.015625 -1.421875 
Q 20.359375 -1.421875 13.671875 8.265625 
Q 6.984375 17.96875 6.984375 36.375 
Q 6.984375 53.65625 15.1875 63.9375 
Q 23.390625 74.21875 37.203125 74.21875 
Q 40.921875 74.21875 44.703125 73.484375 
Q 48.484375 72.75 52.59375 71.296875 
z
" id="DejaVuSans-36"/>
      </defs>
      <g transform="translate(28.334375 209.47669)scale(0.1 -0.1)">
       <use xlink:href="#DejaVuSans-30"/>
       <use x="63.623047" xlink:href="#DejaVuSans-2e"/>
       <use x="95.410156" xlink:href="#DejaVuSans-33"/>
       <use x="159.033203" xlink:href="#DejaVuSans-36"/>
      </g>
     </g>
    </g>
    <g id="ytick_4">
     <g id="line2d_16">
      <g>
       <use style="stroke:#000000;stroke-width:0.8;" x="57.6" xlink:href="#m10530919d4" y="162.184039"/>
      </g>
     </g>
     <g id="text_17">
      <!-- 0.38 -->
      <defs>
       <path d="M 31.78125 34.625 
Q 24.75 34.625 20.71875 30.859375 
Q 16.703125 27.09375 16.703125 20.515625 
Q 16.703125 13.921875 20.71875 10.15625 
Q 24.75 6.390625 31.78125 6.390625 
Q 38.8125 6.390625 42.859375 10.171875 
Q 46.921875 13.96875 46.921875 20.515625 
Q 46.921875 27.09375 42.890625 30.859375 
Q 38.875 34.625 31.78125 34.625 
z
M 21.921875 38.8125 
Q 15.578125 40.375 12.03125 44.71875 
Q 8.5 49.078125 8.5 55.328125 
Q 8.5 64.0625 14.71875 69.140625 
Q 20.953125 74.21875 31.78125 74.21875 
Q 42.671875 74.21875 48.875 69.140625 
Q 55.078125 64.0625 55.078125 55.328125 
Q 55.078125 49.078125 51.53125 44.71875 
Q 48 40.375 41.703125 38.8125 
Q 48.828125 37.15625 52.796875 32.3125 
Q 56.78125 27.484375 56.78125 20.515625 
Q 56.78125 9.90625 50.3125 4.234375 
Q 43.84375 -1.421875 31.78125 -1.421875 
Q 19.734375 -1.421875 13.25 4.234375 
Q 6.78125 9.90625 6.78125 20.515625 
Q 6.78125 27.484375 10.78125 32.3125 
Q 14.796875 37.15625 21.921875 38.8125 
z
M 18.3125 54.390625 
Q 18.3125 48.734375 21.84375 45.5625 
Q 25.390625 42.390625 31.78125 42.390625 
Q 38.140625 42.390625 41.71875 45.5625 
Q 45.3125 48.734375 45.3125 54.390625 
Q 45.3125 60.0625 41.71875 63.234375 
Q 38.140625 66.40625 31.78125 66.40625 
Q 25.390625 66.40625 21.84375 63.234375 
Q 18.3125 60.0625 18.3125 54.390625 
z
" id="DejaVuSans-38"/>
      </defs>
      <g transform="translate(28.334375 165.983257)scale(0.1 -0.1)">
       <use xlink:href="#DejaVuSans-30"/>
       <use x="63.623047" xlink:href="#DejaVuSans-2e"/>
       <use x="95.410156" xlink:href="#DejaVuSans-33"/>
       <use x="159.033203" xlink:href="#DejaVuSans-38"/>
      </g>
     </g>
    </g>
    <g id="ytick_5">
     <g id="line2d_17">
      <g>
       <use style="stroke:#000000;stroke-width:0.8;" x="57.6" xlink:href="#m10530919d4" y="118.690606"/>
      </g>
     </g>
     <g id="text_18">
      <!-- 0.40 -->
      <g transform="translate(28.334375 122.489825)scale(0.1 -0.1)">
       <use xlink:href="#DejaVuSans-30"/>
       <use x="63.623047" xlink:href="#DejaVuSans-2e"/>
       <use x="95.410156" xlink:href="#DejaVuSans-34"/>
       <use x="159.033203" xlink:href="#DejaVuSans-30"/>
      </g>
     </g>
    </g>
    <g id="ytick_6">
     <g id="line2d_18">
      <g>
       <use style="stroke:#000000;stroke-width:0.8;" x="57.6" xlink:href="#m10530919d4" y="75.197173"/>
      </g>
     </g>
     <g id="text_19">
      <!-- 0.42 -->
      <g transform="translate(28.334375 78.996392)scale(0.1 -0.1)">
       <use xlink:href="#DejaVuSans-30"/>
       <use x="63.623047" xlink:href="#DejaVuSans-2e"/>
       <use x="95.410156" xlink:href="#DejaVuSans-34"/>
       <use x="159.033203" xlink:href="#DejaVuSans-32"/>
      </g>
     </g>
    </g>
   </g>
   <g id="line2d_19">
    <path clip-path="url(#pf57ba7005e)" d="M 64.978512 161.47237 
L 65.199426 180.25568 
L 65.420339 186.888308 
L 65.641253 187.929796 
L 65.862167 162.422499 
L 66.08308 167.52944 
L 66.303994 165.236341 
L 66.524907 160.047177 
L 66.745821 170.388961 
L 66.966734 161.531753 
L 67.187648 178.008261 
L 67.408561 148.526869 
L 67.629475 156.306046 
L 67.850388 149.892679 
L 68.071302 160.937923 
L 68.292216 164.633375 
L 68.513129 176.971342 
L 68.734043 163.701518 
L 68.954956 153.336895 
L 69.17587 169.964144 
L 69.396783 171.101557 
L 69.617697 143.360545 
L 69.83861 147.279825 
L 70.059524 152.089851 
L 70.280437 149.417614 
L 70.501351 172.695763 
L 70.722265 156.899877 
L 70.943178 157.612473 
L 71.164092 144.666972 
L 71.385005 156.306046 
L 71.605919 168.634878 
L 71.826832 140.925841 
L 72.047746 153.396278 
L 72.268659 156.739999 
L 72.489573 130.415044 
L 72.710486 136.947177 
L 72.9314 161.056689 
L 73.152314 170.023527 
L 73.373227 161.125208 
L 73.594141 141.163373 
L 73.815054 160.641008 
L 74.035968 137.481625 
L 74.256881 142.944864 
L 74.477795 160.522242 
L 74.698708 153.752576 
L 74.919622 160.28471 
L 75.140535 220.634838 
L 75.361449 176.911959 
L 75.582363 154.940237 
L 75.803276 158.206303 
L 76.02419 151.971085 
L 76.245103 156.246663 
L 76.466017 139.797563 
L 76.68693 163.669542 
L 76.907844 134.156175 
L 77.128757 135.04692 
L 77.349671 129.999362 
L 77.570584 121.091907 
L 77.791498 141.579054 
L 78.012412 143.479311 
L 78.233325 144.42944 
L 78.454239 144.666972 
L 78.675152 147.636123 
L 78.896066 138.728668 
L 79.116979 145.02327 
L 79.337893 142.885481 
L 79.558806 131.365172 
L 79.77972 133.146663 
L 80.000633 150.486509 
L 80.221547 147.398591 
L 80.442461 126.792679 
L 80.663374 138.491136 
L 80.884288 154.49258 
L 81.105201 164.144607 
L 81.326115 153.811959 
L 81.547028 153.455661 
L 81.767942 120.082396 
L 81.988855 177.624555 
L 82.209769 155.415301 
L 82.430682 139.619414 
L 82.651596 158.274822 
L 82.87251 141.341522 
L 83.093423 144.607589 
L 83.314337 121.448206 
L 83.53525 146.507846 
L 83.756164 158.681368 
L 83.977077 129.405532 
L 84.197991 117.172627 
L 84.418904 128.158488 
L 84.639818 120.854375 
L 84.860731 106.364915 
L 85.081645 134.45309 
L 85.302559 110.046663 
L 85.523472 131.89962 
L 85.744386 133.740494 
L 85.965299 136.41273 
L 86.186213 142.113501 
L 86.407126 123.645378 
L 86.62804 142.766715 
L 86.848953 134.690622 
L 87.069867 126.673913 
L 87.29078 130.949491 
L 87.511694 137.244093 
L 87.732608 115.688051 
L 87.953521 98.591136 
L 88.174435 115.034838 
L 88.395348 96.906817 
L 88.616262 111.417871 
L 88.837175 112.837666 
L 89.058089 95.805532 
L 89.279002 91.529954 
L 89.499916 115.450519 
L 89.720829 109.927897 
L 89.941743 128.930468 
L 90.162657 126.198848 
L 90.38357 118.063373 
L 90.604484 87.778026 
L 90.825397 116.63818 
L 91.046311 112.125069 
L 91.267224 97.813758 
L 91.488138 100.210674 
L 91.709051 78.929954 
" style="fill:none;stroke:#0000ff;stroke-linecap:square;stroke-width:1.5;"/>
   </g>
   <g id="line2d_20">
    <path clip-path="url(#pf57ba7005e)" d="M 91.929965 197.467624 
L 92.150878 247.509902 
L 92.592705 272.399877 
L 92.813619 252.752576 
L 93.034533 185.243855 
L 93.255446 183.106066 
L 93.47636 171.814154 
L 93.697273 196.755028 
L 93.918187 197.083919 
L 94.360014 148.34872 
L 94.580927 159.453347 
L 94.801841 152.386766 
L 95.022754 129.643064 
L 95.243668 147.933039 
L 95.464582 143.004247 
L 95.685495 146.567229 
L 95.906409 141.282139 
L 96.127322 143.65746 
L 96.348236 137.77854 
L 96.569149 111.158746 
L 96.790063 116.697563 
L 97.23189 274.585172 
L 97.452803 239.467743 
L 97.673717 163.253861 
L 97.894631 200.372825 
L 98.336458 189.738694 
L 98.557371 230.763887 
L 98.778285 223.888506 
L 98.999198 210.458805 
L 99.220112 217.255878 
L 99.441025 245.015815 
L 99.882852 189.957955 
L 100.103766 195.329835 
L 100.32468 231.946327 
L 100.545593 231.730982 
L 100.766507 252.039979 
L 101.208334 176.583068 
L 101.429247 206.566932 
L 101.650161 195.16539 
L 101.871074 216.970057 
L 102.091988 164.322756 
L 102.312901 176.528253 
L 102.533815 147.695506 
L 102.754729 140.094478 
L 103.196556 157.731239 
L 103.417469 159.097049 
L 103.638383 179.378639 
L 103.859296 151.377254 
L 104.301123 133.384195 
L 104.74295 148.586252 
L 104.963864 117.44255 
L 105.184778 139.322499 
L 105.405691 133.443578 
L 105.626605 119.709902 
L 105.847518 124.47674 
L 106.068432 150.90219 
L 106.510259 105.069285 
L 107.393913 133.502961 
L 107.83574 83.10836 
L 108.056654 77.990622 
L 108.277567 129.405532 
L 108.498481 108.502704 
L 108.719394 102.861316 
L 108.940308 72.484195 
L 109.603048 256.162859 
L 109.823962 208.814352 
L 110.265789 177.898631 
L 110.486703 197.083919 
L 110.707616 186.778678 
L 110.92853 203.278026 
L 111.149443 197.7417 
L 111.59127 163.728925 
L 111.812184 185.737191 
L 112.033097 229.534462 
L 112.254011 192.753525 
L 112.474925 182.969028 
L 112.695838 159.206679 
L 113.579492 190.1224 
L 113.800406 202.78469 
L 114.021319 176.080596 
L 114.242233 121.982653 
L 114.463146 121.745121 
L 114.68406 73.779825 
L 114.904974 81.424041 
L 115.346801 111.887537 
L 115.567714 99.714015 
L 115.788628 69.504247 
L 116.009541 57.195763 
L 116.230455 87.189594 
L 116.451368 96.12944 
L 116.672282 88.290879 
L 116.893195 72.484195 
L 117.114109 112.006303 
L 117.335023 97.489851 
L 117.555936 90.390879 
L 117.77685 107.595763 
L 117.997763 70.670314 
L 118.218677 74.42764 
L 118.43959 92.24255 
L 118.660504 75.917614 
L 118.881417 88.031753 
L 119.323244 79.22147 
L 119.544158 84.922242 
L 119.765072 115.823013 
L 119.985985 115.391136 
L 120.427812 60.110931 
L 120.869639 128.217871 
L 121.090553 123.143321 
L 121.311466 77.083681 
L 121.53238 89.65129 
L 121.753293 85.246149 
L 121.974207 106.780596 
L 122.195121 111.115558 
L 122.416034 99.595249 
L 122.636948 138.788051 
L 122.857861 128.277254 
L 123.078775 76.371085 
L 123.299688 92.566458 
L 123.520602 99.17417 
L 123.741515 129.108617 
L 124.183342 53.568 
L 124.404256 113.075198 
L 124.625169 124.298591 
L 124.846083 105.533553 
L 125.066997 105.889851 
L 125.28791 101.441522 
L 125.508824 112.362602 
L 125.729737 102.14872 
L 125.950651 104.097563 
L 126.171564 79.156689 
L 126.392478 130.058746 
L 126.613391 115.434324 
L 126.834305 135.343835 
L 127.276132 214.679568 
L 127.497046 236.566458 
L 127.938873 199.112078 
L 128.159786 201.633572 
L 128.3807 197.248364 
L 128.601613 199.495783 
L 128.822527 188.806837 
L 129.04344 210.349175 
L 129.485267 191.876483 
L 129.706181 216.104761 
L 129.927095 255.552062 
L 130.368922 164.619671 
L 130.589835 209.855839 
L 130.810749 119.369799 
L 131.031662 93.667743 
L 131.252576 118.063373 
L 131.473489 109.98728 
L 131.694403 119.256432 
L 132.13623 152.089851 
L 132.357144 123.526612 
L 132.578057 113.134581 
L 132.798971 121.745121 
L 133.019884 117.113244 
L 133.240798 121.15129 
L 133.461711 119.904247 
L 133.682625 119.844864 
L 133.903538 119.666715 
L 134.345365 137.362859 
L 134.566279 108.918386 
L 134.787193 135.997049 
L 135.008106 121.685738 
L 135.22902 89.19782 
L 135.449933 88.873913 
L 135.670847 129.227383 
L 135.89176 116.400648 
L 136.112674 126.258231 
L 136.333587 120.319928 
L 136.775414 141.757203 
L 136.996328 146.38908 
L 137.438155 172.746011 
L 137.879982 156.246663 
L 138.100896 167.232524 
L 138.763636 182.0189 
L 138.98455 173.403792 
L 139.205463 173.458607 
L 139.426377 182.831991 
L 139.647291 169.964144 
L 140.089118 122.220185 
L 140.310031 159.987794 
L 140.530945 138.550519 
L 140.751858 148.051805 
L 140.972772 138.194221 
L 141.414599 157.233335 
L 141.635512 150.427126 
L 141.856426 170.023527 
L 142.519167 133.384195 
L 142.74008 155.059003 
L 142.960994 155.949748 
L 143.181907 189.464619 
L 143.402821 181.406798 
L 143.623734 167.173141 
L 143.844648 138.075455 
L 144.065561 134.690622 
L 144.286475 147.101676 
L 144.728302 118.300905 
L 144.949216 121.653347 
L 145.170129 137.362859 
L 145.391043 143.835609 
L 145.611956 142.29165 
L 145.83287 125.070571 
L 146.053783 137.659774 
L 146.274697 143.241779 
L 146.716524 87.772627 
L 147.158351 157.909388 
L 147.379265 121.863887 
L 147.600178 128.158488 
L 147.821092 142.707332 
L 148.042005 195.220205 
L 148.262919 180.25568 
L 148.483832 127.148977 
L 148.704746 154.049491 
L 148.925659 141.875969 
L 149.146573 221.695902 
L 149.367487 178.775673 
L 149.5884 170.772667 
L 149.809314 134.215558 
L 150.472054 166.75746 
L 150.692968 162.956946 
L 150.913881 145.082653 
L 151.355708 174.77417 
L 151.797536 279.953398 
L 152.239363 166.003752 
L 152.460276 144.42944 
L 152.68119 139.560031 
L 152.902103 196.316507 
L 153.123017 204.209883 
L 153.34393 273.825069 
L 153.564844 259.87854 
L 154.006671 205.415815 
L 154.227585 214.569938 
L 154.448498 211.335847 
L 154.669412 248.935095 
L 154.890325 249.189594 
L 155.332152 253.668771 
L 155.553066 243.183424 
L 155.773979 248.833296 
L 155.994893 225.724812 
L 156.215806 228.602605 
L 156.43672 234.734067 
L 156.657633 257.129954 
L 156.878547 221.805532 
L 157.320374 200.31801 
L 157.541288 215.611425 
L 157.762201 194.891314 
L 157.983115 193.520937 
L 158.424942 164.382139 
L 158.645855 148.883167 
L 158.866769 169.014015 
L 159.087682 214.241047 
L 159.308596 213.802526 
L 159.52951 226.23381 
L 159.750423 171.794221 
L 159.750423 171.794221 
" style="fill:none;stroke:#ff0000;stroke-linecap:square;stroke-width:1.5;"/>
   </g>
   <g id="line2d_21">
    <path clip-path="url(#pf57ba7005e)" d="M 159.971337 258.860545 
L 160.19225 245.830211 
L 160.413164 258.860545 
L 161.075904 258.860545 
L 161.296818 245.830211 
L 161.738645 245.830211 
L 161.959559 258.860545 
L 162.180472 258.860545 
L 162.401386 245.830211 
L 162.843213 245.830211 
L 163.064126 258.860545 
L 163.28504 258.860545 
L 163.505953 245.830211 
L 163.94778 245.830211 
L 164.168694 258.860545 
L 164.831435 258.860545 
L 165.052348 245.830211 
L 165.273262 258.860545 
L 165.494175 258.860545 
L 165.715089 245.830211 
L 166.156916 245.830211 
L 166.377829 258.860545 
L 166.598743 258.860545 
L 166.819657 245.830211 
L 167.04057 258.860545 
L 167.703311 258.860545 
L 167.924224 245.830211 
L 168.366051 245.830211 
L 168.586965 258.860545 
L 168.807878 258.860545 
L 169.028792 245.830211 
L 169.249706 245.830211 
L 169.470619 258.860545 
L 169.912446 258.860545 
L 170.13336 245.830211 
L 170.354273 271.02219 
L 170.575187 152.446149 
L 170.7961 295.488 
L 171.017014 283.183835 
L 171.458841 245.830211 
L 171.679755 245.830211 
L 171.900668 258.860545 
L 172.563409 258.860545 
L 172.784322 245.830211 
L 173.005236 258.860545 
L 173.447063 258.860545 
L 173.667976 245.830211 
L 173.88889 245.830211 
L 174.109804 258.860545 
L 174.772544 258.860545 
L 174.993458 245.830211 
L 175.214371 258.860545 
L 175.656198 258.860545 
L 175.877112 245.830211 
L 176.098025 258.860545 
L 176.760766 258.860545 
L 176.98168 245.830211 
L 177.202593 245.830211 
L 177.423507 258.860545 
L 177.865334 258.860545 
L 178.086247 245.830211 
L 178.307161 245.830211 
L 178.528074 258.860545 
L 179.190815 258.860545 
L 179.411729 245.830211 
L 179.632642 258.860545 
L 180.074469 258.860545 
L 180.295383 245.830211 
L 180.516296 245.830211 
L 180.73721 258.860545 
L 181.399951 258.860545 
L 181.620864 266.393707 
L 181.841778 258.860545 
L 182.283605 258.860545 
L 182.504518 245.830211 
L 182.725432 245.830211 
L 182.946345 258.860545 
L 183.388172 258.860545 
L 183.609086 245.830211 
L 183.83 258.860545 
L 184.49274 258.860545 
L 184.713654 245.830211 
L 184.934567 245.830211 
L 185.155481 258.860545 
L 186.701876 258.860545 
L 186.922789 245.830211 
L 187.143703 245.830211 
L 187.364616 258.860545 
L 188.911011 258.860545 
L 189.131925 245.830211 
L 189.352838 245.830211 
L 189.573752 258.860545 
L 190.015579 258.860545 
L 190.236492 245.830211 
L 190.457406 245.830211 
L 190.678319 258.860545 
L 191.120146 258.860545 
L 191.34106 245.830211 
L 191.561974 245.830211 
L 191.782887 258.860545 
L 192.224714 258.860545 
L 192.445628 245.830211 
L 192.666541 245.830211 
L 192.887455 258.860545 
L 193.550195 258.860545 
L 193.771109 245.830211 
L 193.992023 258.860545 
L 194.43385 258.860545 
L 194.654763 245.830211 
L 194.875677 245.830211 
L 195.09659 258.860545 
L 195.980244 258.860545 
L 196.201158 188.697207 
L 196.422072 258.809645 
L 196.642985 258.860545 
L 196.863899 245.830211 
L 197.084812 245.830211 
L 197.305726 258.860545 
L 197.747553 258.860545 
L 197.968466 245.830211 
L 198.18938 245.830211 
L 198.410293 258.860545 
L 198.852121 258.860545 
L 199.073034 245.830211 
L 199.514861 245.830211 
L 199.735775 258.860545 
L 199.956688 258.860545 
L 200.177602 245.830211 
L 200.619429 245.830211 
L 200.840342 258.860545 
L 202.165824 258.860545 
L 202.386737 245.830211 
L 202.828564 245.830211 
L 203.049478 258.860545 
L 203.270391 258.860545 
L 203.491305 245.830211 
L 203.933132 245.830211 
L 204.154046 258.860545 
L 204.374959 258.860545 
L 204.595873 245.830211 
L 204.816786 258.860545 
L 206.584095 258.860545 
L 206.805008 245.830211 
L 207.246835 245.830211 
L 207.467749 258.860545 
L 207.688662 258.860545 
L 207.909576 245.830211 
L 208.130489 245.830211 
L 208.351403 258.860545 
L 208.79323 258.860545 
L 209.014144 245.830211 
L 209.455971 245.830211 
L 209.676884 258.860545 
L 210.339625 258.860545 
L 210.560538 245.830211 
L 210.781452 258.860545 
L 211.002366 258.860545 
L 211.223279 245.830211 
L 211.444193 245.830211 
L 211.665106 258.860545 
L 212.106933 258.860545 
L 212.327847 245.830211 
L 212.54876 245.830211 
L 212.54876 245.830211 
" style="fill:none;stroke:#000000;stroke-linecap:square;stroke-width:1.5;"/>
   </g>
   <g id="patch_3">
    <path d="M 57.6 307.584 
L 57.6 41.472 
" style="fill:none;stroke:#000000;stroke-linecap:square;stroke-linejoin:miter;stroke-width:0.8;"/>
   </g>
   <g id="patch_4">
    <path d="M 219.927273 307.584 
L 219.927273 41.472 
" style="fill:none;stroke:#000000;stroke-linecap:square;stroke-linejoin:miter;stroke-width:0.8;"/>
   </g>
   <g id="patch_5">
    <path d="M 57.6 307.584 
L 219.927273 307.584 
" style="fill:none;stroke:#000000;stroke-linecap:square;stroke-linejoin:miter;stroke-width:0.8;"/>
   </g>
   <g id="patch_6">
    <path d="M 57.6 41.472 
L 219.927273 41.472 
" style="fill:none;stroke:#000000;stroke-linecap:square;stroke-linejoin:miter;stroke-width:0.8;"/>
   </g>
   <g id="text_20">
    <!-- IBI - Reg vs Stress -->
    <defs>
     <path d="M 9.8125 72.90625 
L 19.671875 72.90625 
L 19.671875 0 
L 9.8125 0 
z
" id="DejaVuSans-49"/>
     <path d="M 19.671875 34.8125 
L 19.671875 8.109375 
L 35.5 8.109375 
Q 43.453125 8.109375 47.28125 11.40625 
Q 51.125 14.703125 51.125 21.484375 
Q 51.125 28.328125 47.28125 31.5625 
Q 43.453125 34.8125 35.5 34.8125 
z
M 19.671875 64.796875 
L 19.671875 42.828125 
L 34.28125 42.828125 
Q 41.5 42.828125 45.03125 45.53125 
Q 48.578125 48.25 48.578125 53.8125 
Q 48.578125 59.328125 45.03125 62.0625 
Q 41.5 64.796875 34.28125 64.796875 
z
M 9.8125 72.90625 
L 35.015625 72.90625 
Q 46.296875 72.90625 52.390625 68.21875 
Q 58.5 63.53125 58.5 54.890625 
Q 58.5 48.1875 55.375 44.234375 
Q 52.25 40.28125 46.1875 39.3125 
Q 53.46875 37.75 57.5 32.78125 
Q 61.53125 27.828125 61.53125 20.40625 
Q 61.53125 10.640625 54.890625 5.3125 
Q 48.25 0 35.984375 0 
L 9.8125 0 
z
" id="DejaVuSans-42"/>
     <path id="DejaVuSans-20"/>
     <path d="M 4.890625 31.390625 
L 31.203125 31.390625 
L 31.203125 23.390625 
L 4.890625 23.390625 
z
" id="DejaVuSans-2d"/>
     <path d="M 44.390625 34.1875 
Q 47.5625 33.109375 50.5625 29.59375 
Q 53.5625 26.078125 56.59375 19.921875 
L 66.609375 0 
L 56 0 
L 46.6875 18.703125 
Q 43.0625 26.03125 39.671875 28.421875 
Q 36.28125 30.8125 30.421875 30.8125 
L 19.671875 30.8125 
L 19.671875 0 
L 9.8125 0 
L 9.8125 72.90625 
L 32.078125 72.90625 
Q 44.578125 72.90625 50.734375 67.671875 
Q 56.890625 62.453125 56.890625 51.90625 
Q 56.890625 45.015625 53.6875 40.46875 
Q 50.484375 35.9375 44.390625 34.1875 
z
M 19.671875 64.796875 
L 19.671875 38.921875 
L 32.078125 38.921875 
Q 39.203125 38.921875 42.84375 42.21875 
Q 46.484375 45.515625 46.484375 51.90625 
Q 46.484375 58.296875 42.84375 61.546875 
Q 39.203125 64.796875 32.078125 64.796875 
z
" id="DejaVuSans-52"/>
     <path d="M 45.40625 27.984375 
Q 45.40625 37.75 41.375 43.109375 
Q 37.359375 48.484375 30.078125 48.484375 
Q 22.859375 48.484375 18.828125 43.109375 
Q 14.796875 37.75 14.796875 27.984375 
Q 14.796875 18.265625 18.828125 12.890625 
Q 22.859375 7.515625 30.078125 7.515625 
Q 37.359375 7.515625 41.375 12.890625 
Q 45.40625 18.265625 45.40625 27.984375 
z
M 54.390625 6.78125 
Q 54.390625 -7.171875 48.1875 -13.984375 
Q 42 -20.796875 29.203125 -20.796875 
Q 24.46875 -20.796875 20.265625 -20.09375 
Q 16.0625 -19.390625 12.109375 -17.921875 
L 12.109375 -9.1875 
Q 16.0625 -11.328125 19.921875 -12.34375 
Q 23.78125 -13.375 27.78125 -13.375 
Q 36.625 -13.375 41.015625 -8.765625 
Q 45.40625 -4.15625 45.40625 5.171875 
L 45.40625 9.625 
Q 42.625 4.78125 38.28125 2.390625 
Q 33.9375 0 27.875 0 
Q 17.828125 0 11.671875 7.65625 
Q 5.515625 15.328125 5.515625 27.984375 
Q 5.515625 40.671875 11.671875 48.328125 
Q 17.828125 56 27.875 56 
Q 33.9375 56 38.28125 53.609375 
Q 42.625 51.21875 45.40625 46.390625 
L 45.40625 54.6875 
L 54.390625 54.6875 
z
" id="DejaVuSans-67"/>
     <path d="M 2.984375 54.6875 
L 12.5 54.6875 
L 29.59375 8.796875 
L 46.6875 54.6875 
L 56.203125 54.6875 
L 35.6875 0 
L 23.484375 0 
z
" id="DejaVuSans-76"/>
     <path d="M 53.515625 70.515625 
L 53.515625 60.890625 
Q 47.90625 63.578125 42.921875 64.890625 
Q 37.9375 66.21875 33.296875 66.21875 
Q 25.25 66.21875 20.875 63.09375 
Q 16.5 59.96875 16.5 54.203125 
Q 16.5 49.359375 19.40625 46.890625 
Q 22.3125 44.4375 30.421875 42.921875 
L 36.375 41.703125 
Q 47.40625 39.59375 52.65625 34.296875 
Q 57.90625 29 57.90625 20.125 
Q 57.90625 9.515625 50.796875 4.046875 
Q 43.703125 -1.421875 29.984375 -1.421875 
Q 24.8125 -1.421875 18.96875 -0.25 
Q 13.140625 0.921875 6.890625 3.21875 
L 6.890625 13.375 
Q 12.890625 10.015625 18.65625 8.296875 
Q 24.421875 6.59375 29.984375 6.59375 
Q 38.421875 6.59375 43.015625 9.90625 
Q 47.609375 13.234375 47.609375 19.390625 
Q 47.609375 24.75 44.3125 27.78125 
Q 41.015625 30.8125 33.5 32.328125 
L 27.484375 33.5 
Q 16.453125 35.6875 11.515625 40.375 
Q 6.59375 45.0625 6.59375 53.421875 
Q 6.59375 63.09375 13.40625 68.65625 
Q 20.21875 74.21875 32.171875 74.21875 
Q 37.3125 74.21875 42.625 73.28125 
Q 47.953125 72.359375 53.515625 70.515625 
z
" id="DejaVuSans-53"/>
     <path d="M 41.109375 46.296875 
Q 39.59375 47.171875 37.8125 47.578125 
Q 36.03125 48 33.890625 48 
Q 26.265625 48 22.1875 43.046875 
Q 18.109375 38.09375 18.109375 28.8125 
L 18.109375 0 
L 9.078125 0 
L 9.078125 54.6875 
L 18.109375 54.6875 
L 18.109375 46.1875 
Q 20.953125 51.171875 25.484375 53.578125 
Q 30.03125 56 36.53125 56 
Q 37.453125 56 38.578125 55.875 
Q 39.703125 55.765625 41.0625 55.515625 
z
" id="DejaVuSans-72"/>
    </defs>
    <g transform="translate(84.402699 35.472)scale(0.12 -0.12)">
     <use xlink:href="#DejaVuSans-49"/>
     <use x="29.492188" xlink:href="#DejaVuSans-42"/>
     <use x="98.095703" xlink:href="#DejaVuSans-49"/>
     <use x="127.587891" xlink:href="#DejaVuSans-20"/>
     <use x="159.375" xlink:href="#DejaVuSans-2d"/>
     <use x="195.458984" xlink:href="#DejaVuSans-20"/>
     <use x="227.246094" xlink:href="#DejaVuSans-52"/>
     <use x="296.666016" xlink:href="#DejaVuSans-65"/>
     <use x="358.189453" xlink:href="#DejaVuSans-67"/>
     <use x="421.666016" xlink:href="#DejaVuSans-20"/>
     <use x="453.453125" xlink:href="#DejaVuSans-76"/>
     <use x="512.632812" xlink:href="#DejaVuSans-73"/>
     <use x="564.732422" xlink:href="#DejaVuSans-20"/>
     <use x="596.519531" xlink:href="#DejaVuSans-53"/>
     <use x="659.996094" xlink:href="#DejaVuSans-74"/>
     <use x="699.205078" xlink:href="#DejaVuSans-72"/>
     <use x="740.287109" xlink:href="#DejaVuSans-65"/>
     <use x="801.810547" xlink:href="#DejaVuSans-73"/>
     <use x="853.910156" xlink:href="#DejaVuSans-73"/>
    </g>
   </g>
   <g id="legend_1">
    <g id="patch_7">
     <path d="M 143.71946 93.506375 
L 212.927273 93.506375 
Q 214.927273 93.506375 214.927273 91.506375 
L 214.927273 48.472 
Q 214.927273 46.472 212.927273 46.472 
L 143.71946 46.472 
Q 141.71946 46.472 141.71946 48.472 
L 141.71946 91.506375 
Q 141.71946 93.506375 143.71946 93.506375 
z
" style="fill:#ffffff;opacity:0.8;stroke:#cccccc;stroke-linejoin:miter;"/>
    </g>
    <g id="line2d_22">
     <path d="M 145.71946 54.570438 
L 165.71946 54.570438 
" style="fill:none;stroke:#0000ff;stroke-linecap:square;stroke-width:1.5;"/>
    </g>
    <g id="line2d_23"/>
    <g id="text_21">
     <!-- Reg -->
     <g transform="translate(173.71946 58.070438)scale(0.1 -0.1)">
      <use xlink:href="#DejaVuSans-52"/>
      <use x="69.419922" xlink:href="#DejaVuSans-65"/>
      <use x="130.943359" xlink:href="#DejaVuSans-67"/>
     </g>
    </g>
    <g id="line2d_24">
     <path d="M 145.71946 69.248563 
L 165.71946 69.248563 
" style="fill:none;stroke:#ff0000;stroke-linecap:square;stroke-width:1.5;"/>
    </g>
    <g id="line2d_25"/>
    <g id="text_22">
     <!-- Stress -->
     <g transform="translate(173.71946 72.748563)scale(0.1 -0.1)">
      <use xlink:href="#DejaVuSans-53"/>
      <use x="63.476562" xlink:href="#DejaVuSans-74"/>
      <use x="102.685547" xlink:href="#DejaVuSans-72"/>
      <use x="143.767578" xlink:href="#DejaVuSans-65"/>
      <use x="205.291016" xlink:href="#DejaVuSans-73"/>
      <use x="257.390625" xlink:href="#DejaVuSans-73"/>
     </g>
    </g>
    <g id="line2d_26">
     <path d="M 145.71946 83.926688 
L 165.71946 83.926688 
" style="fill:none;stroke:#000000;stroke-linecap:square;stroke-width:1.5;"/>
    </g>
    <g id="line2d_27"/>
    <g id="text_23">
     <!-- Block C -->
     <defs>
      <path d="M 9.421875 75.984375 
L 18.40625 75.984375 
L 18.40625 0 
L 9.421875 0 
z
" id="DejaVuSans-6c"/>
      <path d="M 30.609375 48.390625 
Q 23.390625 48.390625 19.1875 42.75 
Q 14.984375 37.109375 14.984375 27.296875 
Q 14.984375 17.484375 19.15625 11.84375 
Q 23.34375 6.203125 30.609375 6.203125 
Q 37.796875 6.203125 41.984375 11.859375 
Q 46.1875 17.53125 46.1875 27.296875 
Q 46.1875 37.015625 41.984375 42.703125 
Q 37.796875 48.390625 30.609375 48.390625 
z
M 30.609375 56 
Q 42.328125 56 49.015625 48.375 
Q 55.71875 40.765625 55.71875 27.296875 
Q 55.71875 13.875 49.015625 6.21875 
Q 42.328125 -1.421875 30.609375 -1.421875 
Q 18.84375 -1.421875 12.171875 6.21875 
Q 5.515625 13.875 5.515625 27.296875 
Q 5.515625 40.765625 12.171875 48.375 
Q 18.84375 56 30.609375 56 
z
" id="DejaVuSans-6f"/>
      <path d="M 48.78125 52.59375 
L 48.78125 44.1875 
Q 44.96875 46.296875 41.140625 47.34375 
Q 37.3125 48.390625 33.40625 48.390625 
Q 24.65625 48.390625 19.8125 42.84375 
Q 14.984375 37.3125 14.984375 27.296875 
Q 14.984375 17.28125 19.8125 11.734375 
Q 24.65625 6.203125 33.40625 6.203125 
Q 37.3125 6.203125 41.140625 7.25 
Q 44.96875 8.296875 48.78125 10.40625 
L 48.78125 2.09375 
Q 45.015625 0.34375 40.984375 -0.53125 
Q 36.96875 -1.421875 32.421875 -1.421875 
Q 20.0625 -1.421875 12.78125 6.34375 
Q 5.515625 14.109375 5.515625 27.296875 
Q 5.515625 40.671875 12.859375 48.328125 
Q 20.21875 56 33.015625 56 
Q 37.15625 56 41.109375 55.140625 
Q 45.0625 54.296875 48.78125 52.59375 
z
" id="DejaVuSans-63"/>
      <path d="M 9.078125 75.984375 
L 18.109375 75.984375 
L 18.109375 31.109375 
L 44.921875 54.6875 
L 56.390625 54.6875 
L 27.390625 29.109375 
L 57.625 0 
L 45.90625 0 
L 18.109375 26.703125 
L 18.109375 0 
L 9.078125 0 
z
" id="DejaVuSans-6b"/>
      <path d="M 64.40625 67.28125 
L 64.40625 56.890625 
Q 59.421875 61.53125 53.78125 63.8125 
Q 48.140625 66.109375 41.796875 66.109375 
Q 29.296875 66.109375 22.65625 58.46875 
Q 16.015625 50.828125 16.015625 36.375 
Q 16.015625 21.96875 22.65625 14.328125 
Q 29.296875 6.6875 41.796875 6.6875 
Q 48.140625 6.6875 53.78125 8.984375 
Q 59.421875 11.28125 64.40625 15.921875 
L 64.40625 5.609375 
Q 59.234375 2.09375 53.4375 0.328125 
Q 47.65625 -1.421875 41.21875 -1.421875 
Q 24.65625 -1.421875 15.125 8.703125 
Q 5.609375 18.84375 5.609375 36.375 
Q 5.609375 53.953125 15.125 64.078125 
Q 24.65625 74.21875 41.21875 74.21875 
Q 47.75 74.21875 53.53125 72.484375 
Q 59.328125 70.75 64.40625 67.28125 
z
" id="DejaVuSans-43"/>
     </defs>
     <g transform="translate(173.71946 87.426688)scale(0.1 -0.1)">
      <use xlink:href="#DejaVuSans-42"/>
      <use x="68.603516" xlink:href="#DejaVuSans-6c"/>
      <use x="96.386719" xlink:href="#DejaVuSans-6f"/>
      <use x="157.568359" xlink:href="#DejaVuSans-63"/>
      <use x="212.548828" xlink:href="#DejaVuSans-6b"/>
      <use x="270.458984" xlink:href="#DejaVuSans-20"/>
      <use x="302.246094" xlink:href="#DejaVuSans-43"/>
     </g>
    </g>
   </g>
  </g>
  <g id="axes_2">
   <g id="patch_8">
    <path d="M 252.392727 307.584 
L 414.72 307.584 
L 414.72 41.472 
L 252.392727 41.472 
z
" style="fill:#ffffff;"/>
   </g>
   <g id="matplotlib.axis_3">
    <g id="xtick_13">
     <g id="line2d_28">
      <g>
       <use style="stroke:#000000;stroke-width:0.8;" x="259.77124" xlink:href="#m64664d8328" y="307.584"/>
      </g>
     </g>
     <g id="text_24">
      <!-- 0.0 -->
      <g transform="translate(251.819677 322.182437)scale(0.1 -0.1)">
       <use xlink:href="#DejaVuSans-30"/>
       <use x="63.623047" xlink:href="#DejaVuSans-2e"/>
       <use x="95.410156" xlink:href="#DejaVuSans-30"/>
      </g>
     </g>
    </g>
    <g id="xtick_14">
     <g id="line2d_29">
      <g>
       <use style="stroke:#000000;stroke-width:0.8;" x="273.026052" xlink:href="#m64664d8328" y="307.584"/>
      </g>
     </g>
     <g id="text_25">
      <!-- 5.0 -->
      <g transform="translate(265.07449 322.182437)scale(0.1 -0.1)">
       <use xlink:href="#DejaVuSans-35"/>
       <use x="63.623047" xlink:href="#DejaVuSans-2e"/>
       <use x="95.410156" xlink:href="#DejaVuSans-30"/>
      </g>
     </g>
    </g>
    <g id="xtick_15">
     <g id="line2d_30">
      <g>
       <use style="stroke:#000000;stroke-width:0.8;" x="286.280865" xlink:href="#m64664d8328" y="307.584"/>
      </g>
     </g>
     <g id="text_26">
      <!-- 10.0 -->
      <g transform="translate(275.148053 322.182437)scale(0.1 -0.1)">
       <use xlink:href="#DejaVuSans-31"/>
       <use x="63.623047" xlink:href="#DejaVuSans-30"/>
       <use x="127.246094" xlink:href="#DejaVuSans-2e"/>
       <use x="159.033203" xlink:href="#DejaVuSans-30"/>
      </g>
     </g>
    </g>
    <g id="xtick_16">
     <g id="line2d_31">
      <g>
       <use style="stroke:#000000;stroke-width:0.8;" x="299.535678" xlink:href="#m64664d8328" y="307.584"/>
      </g>
     </g>
     <g id="text_27">
      <!-- 15.0 -->
      <g transform="translate(288.402865 322.182437)scale(0.1 -0.1)">
       <use xlink:href="#DejaVuSans-31"/>
       <use x="63.623047" xlink:href="#DejaVuSans-35"/>
       <use x="127.246094" xlink:href="#DejaVuSans-2e"/>
       <use x="159.033203" xlink:href="#DejaVuSans-30"/>
      </g>
     </g>
    </g>
    <g id="xtick_17">
     <g id="line2d_32">
      <g>
       <use style="stroke:#000000;stroke-width:0.8;" x="312.79049" xlink:href="#m64664d8328" y="307.584"/>
      </g>
     </g>
     <g id="text_28">
      <!-- 20.0 -->
      <g transform="translate(301.657678 322.182437)scale(0.1 -0.1)">
       <use xlink:href="#DejaVuSans-32"/>
       <use x="63.623047" xlink:href="#DejaVuSans-30"/>
       <use x="127.246094" xlink:href="#DejaVuSans-2e"/>
       <use x="159.033203" xlink:href="#DejaVuSans-30"/>
      </g>
     </g>
    </g>
    <g id="xtick_18">
     <g id="line2d_33">
      <g>
       <use style="stroke:#000000;stroke-width:0.8;" x="326.045303" xlink:href="#m64664d8328" y="307.584"/>
      </g>
     </g>
     <g id="text_29">
      <!-- 25.0 -->
      <g transform="translate(314.912491 322.182437)scale(0.1 -0.1)">
       <use xlink:href="#DejaVuSans-32"/>
       <use x="63.623047" xlink:href="#DejaVuSans-35"/>
       <use x="127.246094" xlink:href="#DejaVuSans-2e"/>
       <use x="159.033203" xlink:href="#DejaVuSans-30"/>
      </g>
     </g>
    </g>
    <g id="xtick_19">
     <g id="line2d_34">
      <g>
       <use style="stroke:#000000;stroke-width:0.8;" x="339.300116" xlink:href="#m64664d8328" y="307.584"/>
      </g>
     </g>
     <g id="text_30">
      <!-- 30.0 -->
      <g transform="translate(328.167303 322.182437)scale(0.1 -0.1)">
       <use xlink:href="#DejaVuSans-33"/>
       <use x="63.623047" xlink:href="#DejaVuSans-30"/>
       <use x="127.246094" xlink:href="#DejaVuSans-2e"/>
       <use x="159.033203" xlink:href="#DejaVuSans-30"/>
      </g>
     </g>
    </g>
    <g id="xtick_20">
     <g id="line2d_35">
      <g>
       <use style="stroke:#000000;stroke-width:0.8;" x="352.554928" xlink:href="#m64664d8328" y="307.584"/>
      </g>
     </g>
     <g id="text_31">
      <!-- 35.0 -->
      <g transform="translate(341.422116 322.182437)scale(0.1 -0.1)">
       <use xlink:href="#DejaVuSans-33"/>
       <use x="63.623047" xlink:href="#DejaVuSans-35"/>
       <use x="127.246094" xlink:href="#DejaVuSans-2e"/>
       <use x="159.033203" xlink:href="#DejaVuSans-30"/>
      </g>
     </g>
    </g>
    <g id="xtick_21">
     <g id="line2d_36">
      <g>
       <use style="stroke:#000000;stroke-width:0.8;" x="365.809741" xlink:href="#m64664d8328" y="307.584"/>
      </g>
     </g>
     <g id="text_32">
      <!-- 40.0 -->
      <g transform="translate(354.676929 322.182437)scale(0.1 -0.1)">
       <use xlink:href="#DejaVuSans-34"/>
       <use x="63.623047" xlink:href="#DejaVuSans-30"/>
       <use x="127.246094" xlink:href="#DejaVuSans-2e"/>
       <use x="159.033203" xlink:href="#DejaVuSans-30"/>
      </g>
     </g>
    </g>
    <g id="xtick_22">
     <g id="line2d_37">
      <g>
       <use style="stroke:#000000;stroke-width:0.8;" x="379.064554" xlink:href="#m64664d8328" y="307.584"/>
      </g>
     </g>
     <g id="text_33">
      <!-- 45.0 -->
      <g transform="translate(367.931741 322.182437)scale(0.1 -0.1)">
       <use xlink:href="#DejaVuSans-34"/>
       <use x="63.623047" xlink:href="#DejaVuSans-35"/>
       <use x="127.246094" xlink:href="#DejaVuSans-2e"/>
       <use x="159.033203" xlink:href="#DejaVuSans-30"/>
      </g>
     </g>
    </g>
    <g id="xtick_23">
     <g id="line2d_38">
      <g>
       <use style="stroke:#000000;stroke-width:0.8;" x="392.319367" xlink:href="#m64664d8328" y="307.584"/>
      </g>
     </g>
     <g id="text_34">
      <!-- 50.0 -->
      <g transform="translate(381.186554 322.182437)scale(0.1 -0.1)">
       <use xlink:href="#DejaVuSans-35"/>
       <use x="63.623047" xlink:href="#DejaVuSans-30"/>
       <use x="127.246094" xlink:href="#DejaVuSans-2e"/>
       <use x="159.033203" xlink:href="#DejaVuSans-30"/>
      </g>
     </g>
    </g>
    <g id="xtick_24">
     <g id="line2d_39">
      <g>
       <use style="stroke:#000000;stroke-width:0.8;" x="405.574179" xlink:href="#m64664d8328" y="307.584"/>
      </g>
     </g>
     <g id="text_35">
      <!-- 55.0 -->
      <g transform="translate(394.441367 322.182437)scale(0.1 -0.1)">
       <use xlink:href="#DejaVuSans-35"/>
       <use x="63.623047" xlink:href="#DejaVuSans-35"/>
       <use x="127.246094" xlink:href="#DejaVuSans-2e"/>
       <use x="159.033203" xlink:href="#DejaVuSans-30"/>
      </g>
     </g>
    </g>
    <g id="text_36">
     <!-- Minutes -->
     <g transform="translate(313.874332 335.860562)scale(0.1 -0.1)">
      <use xlink:href="#DejaVuSans-4d"/>
      <use x="86.279297" xlink:href="#DejaVuSans-69"/>
      <use x="114.0625" xlink:href="#DejaVuSans-6e"/>
      <use x="177.441406" xlink:href="#DejaVuSans-75"/>
      <use x="240.820312" xlink:href="#DejaVuSans-74"/>
      <use x="280.029297" xlink:href="#DejaVuSans-65"/>
      <use x="341.552734" xlink:href="#DejaVuSans-73"/>
     </g>
    </g>
   </g>
   <g id="matplotlib.axis_4">
    <g id="ytick_7">
     <g id="line2d_40">
      <g>
       <use style="stroke:#000000;stroke-width:0.8;" x="252.392727" xlink:href="#m10530919d4" y="307.584"/>
      </g>
     </g>
     <g id="text_37">
      <!-- 1.00 -->
      <g transform="translate(223.127102 311.383219)scale(0.1 -0.1)">
       <use xlink:href="#DejaVuSans-31"/>
       <use x="63.623047" xlink:href="#DejaVuSans-2e"/>
       <use x="95.410156" xlink:href="#DejaVuSans-30"/>
       <use x="159.033203" xlink:href="#DejaVuSans-30"/>
      </g>
     </g>
    </g>
    <g id="ytick_8">
     <g id="line2d_41">
      <g>
       <use style="stroke:#000000;stroke-width:0.8;" x="252.392727" xlink:href="#m10530919d4" y="274.32"/>
      </g>
     </g>
     <g id="text_38">
      <!-- 1.25 -->
      <g transform="translate(223.127102 278.119219)scale(0.1 -0.1)">
       <use xlink:href="#DejaVuSans-31"/>
       <use x="63.623047" xlink:href="#DejaVuSans-2e"/>
       <use x="95.410156" xlink:href="#DejaVuSans-32"/>
       <use x="159.033203" xlink:href="#DejaVuSans-35"/>
      </g>
     </g>
    </g>
    <g id="ytick_9">
     <g id="line2d_42">
      <g>
       <use style="stroke:#000000;stroke-width:0.8;" x="252.392727" xlink:href="#m10530919d4" y="241.056"/>
      </g>
     </g>
     <g id="text_39">
      <!-- 1.50 -->
      <g transform="translate(223.127102 244.855219)scale(0.1 -0.1)">
       <use xlink:href="#DejaVuSans-31"/>
       <use x="63.623047" xlink:href="#DejaVuSans-2e"/>
       <use x="95.410156" xlink:href="#DejaVuSans-35"/>
       <use x="159.033203" xlink:href="#DejaVuSans-30"/>
      </g>
     </g>
    </g>
    <g id="ytick_10">
     <g id="line2d_43">
      <g>
       <use style="stroke:#000000;stroke-width:0.8;" x="252.392727" xlink:href="#m10530919d4" y="207.792"/>
      </g>
     </g>
     <g id="text_40">
      <!-- 1.75 -->
      <defs>
       <path d="M 8.203125 72.90625 
L 55.078125 72.90625 
L 55.078125 68.703125 
L 28.609375 0 
L 18.3125 0 
L 43.21875 64.59375 
L 8.203125 64.59375 
z
" id="DejaVuSans-37"/>
      </defs>
      <g transform="translate(223.127102 211.591219)scale(0.1 -0.1)">
       <use xlink:href="#DejaVuSans-31"/>
       <use x="63.623047" xlink:href="#DejaVuSans-2e"/>
       <use x="95.410156" xlink:href="#DejaVuSans-37"/>
       <use x="159.033203" xlink:href="#DejaVuSans-35"/>
      </g>
     </g>
    </g>
    <g id="ytick_11">
     <g id="line2d_44">
      <g>
       <use style="stroke:#000000;stroke-width:0.8;" x="252.392727" xlink:href="#m10530919d4" y="174.528"/>
      </g>
     </g>
     <g id="text_41">
      <!-- 2.00 -->
      <g transform="translate(223.127102 178.327219)scale(0.1 -0.1)">
       <use xlink:href="#DejaVuSans-32"/>
       <use x="63.623047" xlink:href="#DejaVuSans-2e"/>
       <use x="95.410156" xlink:href="#DejaVuSans-30"/>
       <use x="159.033203" xlink:href="#DejaVuSans-30"/>
      </g>
     </g>
    </g>
    <g id="ytick_12">
     <g id="line2d_45">
      <g>
       <use style="stroke:#000000;stroke-width:0.8;" x="252.392727" xlink:href="#m10530919d4" y="141.264"/>
      </g>
     </g>
     <g id="text_42">
      <!-- 2.25 -->
      <g transform="translate(223.127102 145.063219)scale(0.1 -0.1)">
       <use xlink:href="#DejaVuSans-32"/>
       <use x="63.623047" xlink:href="#DejaVuSans-2e"/>
       <use x="95.410156" xlink:href="#DejaVuSans-32"/>
       <use x="159.033203" xlink:href="#DejaVuSans-35"/>
      </g>
     </g>
    </g>
    <g id="ytick_13">
     <g id="line2d_46">
      <g>
       <use style="stroke:#000000;stroke-width:0.8;" x="252.392727" xlink:href="#m10530919d4" y="108"/>
      </g>
     </g>
     <g id="text_43">
      <!-- 2.50 -->
      <g transform="translate(223.127102 111.799219)scale(0.1 -0.1)">
       <use xlink:href="#DejaVuSans-32"/>
       <use x="63.623047" xlink:href="#DejaVuSans-2e"/>
       <use x="95.410156" xlink:href="#DejaVuSans-35"/>
       <use x="159.033203" xlink:href="#DejaVuSans-30"/>
      </g>
     </g>
    </g>
    <g id="ytick_14">
     <g id="line2d_47">
      <g>
       <use style="stroke:#000000;stroke-width:0.8;" x="252.392727" xlink:href="#m10530919d4" y="74.736"/>
      </g>
     </g>
     <g id="text_44">
      <!-- 2.75 -->
      <g transform="translate(223.127102 78.535219)scale(0.1 -0.1)">
       <use xlink:href="#DejaVuSans-32"/>
       <use x="63.623047" xlink:href="#DejaVuSans-2e"/>
       <use x="95.410156" xlink:href="#DejaVuSans-37"/>
       <use x="159.033203" xlink:href="#DejaVuSans-35"/>
      </g>
     </g>
    </g>
    <g id="ytick_15">
     <g id="line2d_48">
      <g>
       <use style="stroke:#000000;stroke-width:0.8;" x="252.392727" xlink:href="#m10530919d4" y="41.472"/>
      </g>
     </g>
     <g id="text_45">
      <!-- 3.00 -->
      <g transform="translate(223.127102 45.271219)scale(0.1 -0.1)">
       <use xlink:href="#DejaVuSans-33"/>
       <use x="63.623047" xlink:href="#DejaVuSans-2e"/>
       <use x="95.410156" xlink:href="#DejaVuSans-30"/>
       <use x="159.033203" xlink:href="#DejaVuSans-30"/>
      </g>
     </g>
    </g>
   </g>
   <g id="line2d_49">
    <path clip-path="url(#pce6bd45f93)" d="M 259.77124 222.491453 
L 259.992153 149.100416 
L 260.213067 162.671904 
L 260.43398 170.396646 
L 260.654894 251.901976 
L 260.875807 122.968868 
L 261.096721 159.968869 
L 261.317634 176.012932 
L 261.538548 199.529178 
L 261.759462 155.015591 
L 261.980375 174.47243 
L 262.201289 188.674436 
L 262.422202 174.652295 
L 262.643116 182.590049 
L 262.864029 174.561763 
L 263.084943 183.944426 
L 263.305856 189.889822 
L 263.52677 163.495209 
L 263.747683 166.352681 
L 263.968597 170.350713 
L 264.189511 177.619468 
L 264.410424 206.625924 
L 264.631338 183.248532 
L 264.852251 170.400505 
L 265.073165 193.298605 
L 265.294078 178.99235 
L 265.514992 171.720802 
L 265.735905 153.310534 
L 265.956819 182.817974 
L 266.177732 178.438512 
L 266.398646 185.483331 
L 266.61956 170.313835 
L 266.840473 196.313573 
L 267.061387 185.674911 
L 267.2823 177.862039 
L 267.503214 171.623217 
L 267.724127 202.011472 
L 267.945041 194.239467 
L 268.165954 165.360824 
L 268.386868 216.141327 
L 268.607781 185.904835 
L 268.828695 181.486096 
L 269.049609 208.181335 
L 269.270522 185.67185 
L 269.491436 163.413332 
L 269.712349 206.313588 
L 269.933263 185.039326 
L 270.154176 195.069962 
L 270.37509 160.538686 
L 270.596003 171.860193 
L 270.816917 178.405093 
L 271.03783 208.338567 
L 271.258744 204.62717 
L 271.479658 176.144333 
L 271.700571 275.42808 
L 271.921485 181.45987 
L 272.142398 186.300113 
L 272.363312 199.850165 
L 272.584225 197.855272 
L 272.805139 178.829925 
L 273.026052 168.819799 
L 273.246966 177.108629 
L 273.467879 191.32049 
L 273.688793 178.323483 
L 273.909707 270.073668 
L 274.13062 205.961314 
L 274.351534 160.339119 
L 274.572447 241.653532 
L 274.793361 167.970666 
L 275.014274 207.680748 
L 275.235188 188.298197 
L 275.456101 171.598983 
L 275.677015 181.892687 
L 275.897928 195.141855 
L 276.118842 192.950724 
L 276.339756 250.66449 
L 276.560669 196.585567 
L 276.781583 155.898409 
L 277.002496 181.804021 
L 277.22341 207.722019 
L 277.444323 195.275921 
L 277.665237 172.031539 
L 277.88615 195.297888 
L 278.107064 201.25367 
L 278.327977 165.666901 
L 278.548891 178.656054 
L 278.769805 239.553865 
L 278.990718 198.848458 
L 279.211632 172.20355 
L 279.432545 215.023127 
L 279.653459 207.574639 
L 279.874372 178.91633 
L 280.095286 209.644885 
L 280.316199 248.967288 
L 280.537113 219.954837 
L 280.758026 185.780754 
L 280.97894 177.198495 
L 281.199854 192.270937 
L 281.420767 173.152133 
L 281.641681 245.496865 
L 281.862594 189.582284 
L 282.083508 182.697753 
L 282.304421 176.107987 
L 282.525335 226.605982 
L 282.746248 183.020208 
L 282.967162 199.384726 
L 283.188075 191.43179 
L 283.408989 167.670847 
L 283.629903 198.099176 
L 283.850816 199.298054 
L 284.07173 179.970224 
L 284.292643 208.261216 
L 284.513557 205.593595 
L 284.73447 182.992381 
L 284.955384 205.539409 
L 285.176297 231.044959 
L 285.397211 200.408797 
L 285.618124 193.911557 
L 285.839038 159.516346 
L 286.059952 174.76173 
L 286.280865 174.545918 
L 286.501779 187.61708 
" style="fill:none;stroke:#0000ff;stroke-linecap:square;stroke-width:1.5;"/>
   </g>
   <g id="line2d_50">
    <path clip-path="url(#pce6bd45f93)" d="M 286.722692 190.717387 
L 286.943606 175.302124 
L 287.164519 175.869412 
L 287.385433 173.517054 
L 287.606346 190.384817 
L 287.82726 182.837413 
L 288.048173 148.648289 
L 288.269087 148.32011 
L 288.49 233.663187 
L 288.710914 218.855544 
L 288.931828 131.701575 
L 289.152741 146.869341 
L 289.373655 222.241161 
L 289.594568 123.896682 
L 289.815482 232.404397 
L 290.036395 159.270179 
L 290.478222 236.429859 
L 290.699136 247.708633 
L 290.920049 295.641257 
L 291.140963 150.765264 
L 291.361877 145.220203 
L 291.58279 121.017378 
L 291.803704 127.625387 
L 292.024617 179.064243 
L 292.245531 197.30689 
L 292.466444 195.836153 
L 292.687358 205.24811 
L 292.908271 185.881405 
L 293.350098 265.079652 
L 293.571012 199.078914 
L 293.791926 169.630056 
L 294.012839 185.883799 
L 294.233753 211.593844 
L 294.454666 215.015539 
L 294.67558 226.262626 
L 294.896493 192.620681 
L 295.117407 206.473349 
L 295.33832 179.462982 
L 295.559234 181.303834 
L 296.001061 194.55806 
L 296.221975 248.106971 
L 296.663802 136.926311 
L 296.884715 230.55449 
L 297.326542 140.009841 
L 297.768369 125.4489 
L 298.210196 183.609462 
L 298.43111 182.71453 
L 298.652024 134.410067 
L 298.872937 180.30985 
L 299.093851 174.51104 
L 299.314764 124.521217 
L 299.535678 125.89437 
L 299.756591 132.94066 
L 299.977505 135.345871 
L 300.198418 114.159076 
L 300.419332 134.635597 
L 300.640245 221.341434 
L 300.861159 241.513874 
L 301.082073 208.822512 
L 301.302986 277.693633 
L 301.5239 154.248601 
L 301.744813 224.217811 
L 301.965727 176.096804 
L 302.18664 268.852157 
L 302.407554 129.376775 
L 302.628467 154.054491 
L 302.849381 279.697178 
L 303.070294 134.634397 
L 303.291208 111.498512 
L 303.512122 191.269764 
L 303.733035 134.493408 
L 303.953949 151.71851 
L 304.174862 158.469905 
L 304.395776 172.316049 
L 304.616689 201.189898 
L 304.837603 157.310833 
L 305.058516 157.562592 
L 305.27943 187.518827 
L 305.500343 187.57967 
L 305.721257 188.140566 
L 305.942171 175.241015 
L 306.163084 218.529497 
L 306.383998 181.187344 
L 306.604911 203.981866 
L 306.825825 188.908753 
L 307.046738 189.989808 
L 307.267652 246.297538 
L 307.709479 176.349227 
L 307.930392 271.501536 
L 308.151306 187.170281 
L 308.37222 198.982125 
L 308.593133 165.187351 
L 308.814047 222.092582 
L 309.03496 160.691659 
L 309.255874 142.726059 
L 309.476787 179.469372 
L 309.697701 180.685024 
L 309.918614 269.887413 
L 310.139528 132.980733 
L 310.360441 137.35261 
L 310.581355 120.324013 
L 310.802269 126.007934 
L 311.023182 152.352097 
L 311.244096 127.428081 
L 311.465009 127.386144 
L 311.685923 124.880017 
L 311.906836 103.362785 
L 312.12775 124.157095 
L 312.348663 125.897568 
L 312.569577 123.758487 
L 312.79049 123.811876 
L 313.011404 233.886454 
L 313.232318 107.22489 
L 313.453231 81.230998 
L 313.674145 99.582291 
L 313.895058 100.034816 
L 314.115972 117.537237 
L 314.336885 159.473078 
L 314.557799 285.591318 
L 314.778712 254.569729 
L 314.999626 248.517959 
L 315.032639 346.6 
M 315.624159 346.6 
L 315.662367 229.85753 
L 315.88328 85.659591 
L 316.104194 105.306152 
L 316.325107 111.056773 
L 316.546021 106.142638 
L 316.766934 158.24331 
L 316.987848 147.177017 
L 317.208761 248.644303 
L 317.650588 77.8358 
L 318.313329 159.202144 
L 318.534243 129.420578 
L 318.755156 129.792154 
L 318.817027 346.6 
M 319.138186 346.6 
L 319.196983 144.467991 
L 319.417897 63.698356 
L 319.63881 55.219673 
L 319.859724 100.769851 
L 320.080637 219.064699 
L 320.301551 206.464962 
L 320.522464 230.475941 
L 320.743378 219.70987 
L 320.964292 221.37605 
L 321.185205 206.19603 
L 321.406119 210.183414 
L 321.627032 224.12728 
L 321.847946 150.418714 
L 322.068859 160.838905 
L 322.510686 210.182483 
L 322.7316 180.444317 
L 322.952513 171.286518 
L 323.173427 206.834677 
L 323.394341 190.424225 
L 323.615254 190.072351 
L 323.836168 178.114459 
L 324.057081 177.366775 
L 324.277995 194.50028 
L 324.498908 184.175417 
L 324.719822 201.197886 
L 324.940735 200.936542 
L 325.161649 249.281752 
L 325.382562 219.34548 
L 325.603476 128.931706 
L 325.82439 250.676339 
L 326.045303 223.476516 
L 326.266217 138.013225 
L 326.48713 116.043466 
L 326.708044 148.711528 
L 326.928957 294.233757 
L 327.149871 148.18152 
L 327.591698 125.544492 
L 327.812611 150.475163 
L 328.033525 108.979472 
L 328.254439 129.619613 
L 328.475352 181.883902 
L 328.696266 127.705003 
L 328.917179 144.865401 
L 329.138093 180.588901 
L 329.359006 139.281731 
L 329.57992 169.941988 
L 329.800833 137.455924 
L 330.24266 155.505527 
L 330.463574 237.138402 
L 330.684488 88.208991 
L 330.905401 225.190094 
L 331.126315 121.996185 
L 331.347228 232.966892 
L 331.568142 220.441178 
L 331.789055 120.319088 
L 332.009969 144.287195 
L 332.230882 246.625716 
L 332.451796 200.42677 
L 332.672709 192.602577 
L 332.893623 209.505226 
L 333.777277 128.178829 
L 333.998191 117.330612 
L 334.219104 228.223036 
L 334.440018 83.264632 
L 334.660931 122.358177 
L 334.881845 128.545481 
L 335.102758 84.817382 
L 335.323672 98.394597 
L 335.544586 94.408408 
L 335.765499 100.915502 
L 335.986413 99.715292 
L 336.207326 61.621058 
L 337.09098 212.00776 
L 337.311894 132.258341 
L 337.532807 131.923644 
L 337.753721 126.384171 
L 337.974635 212.659853 
L 338.195548 239.923579 
L 338.416462 129.149912 
L 338.858289 176.866189 
L 339.079202 209.085185 
L 339.300116 111.939589 
L 339.741943 160.112655 
L 339.962856 102.235532 
L 340.18377 111.035736 
L 340.404684 136.825928 
L 340.625597 244.101613 
L 340.846511 138.182572 
L 341.067424 113.000672 
L 341.288338 137.873165 
L 341.509251 218.802158 
L 341.730165 240.686575 
L 341.951078 179.241978 
L 342.392905 291.962745 
L 342.613819 239.098411 
L 342.834733 223.741455 
L 343.055646 82.227249 
L 343.497473 149.112529 
L 343.718387 132.701548 
L 343.9393 195.531406 
L 344.160214 113.73158 
L 344.602041 224.82171 
L 344.822954 195.306942 
L 345.043868 226.0568 
L 345.264782 120.031783 
L 345.485695 228.468669 
L 345.706609 233.832001 
L 345.927522 163.14919 
L 346.148436 218.412871 
L 346.369349 135.06642 
L 346.590263 255.113053 
L 346.811176 111.1493 
L 347.03209 184.435428 
L 347.253003 196.144093 
L 347.694831 102.183076 
L 347.915744 218.289854 
L 348.136658 97.252034 
L 348.357571 215.299249 
L 348.578485 227.664402 
L 348.799398 187.170812 
L 349.020312 193.509091 
L 349.241225 154.564931 
L 349.683052 248.629392 
L 349.903966 209.096502 
L 350.124879 211.983663 
L 350.345793 174.79009 
L 350.566707 193.259062 
L 350.78762 191.705915 
L 351.008534 239.975368 
L 351.229447 204.240812 
L 351.450361 198.395534 
L 351.671274 222.98059 
L 351.892188 179.671602 
L 352.113101 226.379784 
L 352.334015 165.082176 
L 352.554928 204.394583 
L 352.775842 155.335249 
L 352.996756 142.012456 
L 353.217669 250.25124 
L 353.438583 260.76076 
L 353.659496 126.162369 
L 353.88041 135.068549 
L 354.101323 124.658881 
L 354.54315 228.625635 
L 354.54315 228.625635 
" style="fill:none;stroke:#ff0000;stroke-linecap:square;stroke-width:1.5;"/>
   </g>
   <g id="line2d_51">
    <path clip-path="url(#pce6bd45f93)" d="M 354.764064 160.907163 
L 354.984977 43.414649 
L 355.426805 172.117981 
L 355.647718 226.376272 
L 355.868632 150.772492 
L 356.089545 131.616118 
L 356.310459 124.598524 
L 356.531372 148.795061 
L 356.752286 228.061238 
L 356.973199 177.203747 
L 357.194113 200.576286 
L 357.415026 189.641095 
L 357.63594 159.978373 
L 357.856854 183.196304 
L 358.077767 174.180364 
L 358.298681 159.434379 
L 358.519594 205.622053 
L 358.740508 193.846285 
L 358.961421 223.460504 
L 359.182335 203.198428 
L 359.403248 156.70754 
L 359.624162 174.73772 
L 359.845075 166.558411 
L 360.065989 211.156436 
L 360.286903 188.492295 
L 360.72873 211.710722 
L 361.170557 190.772867 
L 361.39147 172.334348 
L 361.612384 179.703377 
L 361.833297 164.953792 
L 362.054211 174.505625 
L 362.275124 205.563568 
L 362.496038 133.795437 
L 362.716952 122.038046 
L 362.937865 191.636404 
L 363.158779 183.514462 
L 363.379692 182.94035 
L 363.600606 177.081712 
L 364.028061 -1 
M 364.051356 -1 
L 364.263346 159.260441 
L 364.48426 220.096143 
L 364.705173 152.173419 
L 364.926087 128.425496 
L 365.147001 148.439577 
L 365.367914 145.936447 
L 365.588828 131.064692 
L 365.809741 171.080934 
L 366.030655 134.844496 
L 366.251568 186.784194 
L 366.472482 168.561217 
L 366.914309 202.663157 
L 367.135222 161.459029 
L 367.57705 213.693868 
L 367.797963 158.845701 
L 368.018877 189.371426 
L 368.23979 164.950826 
L 368.460704 213.808611 
L 368.681617 216.216731 
L 368.902531 211.684891 
L 369.123444 157.151079 
L 369.344358 221.274101 
L 369.565271 208.756698 
L 369.786185 252.130424 
L 370.007099 232.951416 
L 370.228012 239.373339 
L 370.448926 152.504962 
L 370.669839 212.609012 
L 370.890753 202.81566 
L 371.111666 252.172164 
L 371.33258 257.41024 
L 371.553493 233.49069 
L 372.216234 298.673447 
L 372.437148 227.185981 
L 372.658061 229.302034 
L 372.878975 160.425525 
L 373.320802 246.196981 
L 373.541715 231.178075 
L 373.762629 230.701455 
L 373.983542 207.389356 
L 374.204456 212.985909 
L 374.425369 268.974574 
L 374.646283 236.16828 
L 374.867197 126.595196 
L 375.08811 138.943745 
L 375.529937 227.532548 
L 375.750851 197.480946 
L 375.971764 188.558514 
L 376.192678 31.507338 
L 376.413591 188.920982 
L 376.634505 251.667417 
L 376.855418 188.221713 
L 377.076332 169.686924 
L 377.297246 186.665362 
L 377.518159 224.019892 
L 377.739073 234.168255 
L 377.959986 239.061884 
L 378.1809 199.431796 
L 378.401813 211.907004 
L 378.622727 210.253284 
L 378.84364 263.57441 
L 379.285467 167.065837 
L 379.506381 159.46277 
L 379.727295 237.518638 
L 379.948208 234.1591 
L 380.169122 232.80704 
L 380.390035 184.888072 
L 380.610949 219.538732 
L 380.831862 201.326048 
L 381.494603 252.195576 
L 381.715516 189.261373 
L 382.157343 261.663856 
L 382.378257 252.866838 
L 382.599171 253.104427 
L 382.820084 200.588757 
L 383.261911 261.877634 
L 383.482825 251.120075 
L 383.924652 200.800517 
L 384.145565 231.959513 
L 384.366479 222.769186 
L 384.587392 255.372657 
L 384.808306 181.49617 
L 385.250133 244.590453 
L 385.69196 282.317632 
L 385.912874 228.28015 
L 386.133787 217.966771 
L 386.354701 214.560056 
L 386.575614 251.205867 
L 386.796528 246.970804 
L 387.017441 197.114141 
L 387.238355 185.657133 
L 387.459269 214.749351 
L 387.680182 209.248298 
L 387.901096 211.120907 
L 388.122009 199.736732 
L 388.342923 182.017893 
L 388.563836 243.500933 
L 388.78475 236.436937 
L 389.668404 166.652063 
L 389.889318 234.793661 
L 390.110231 151.060303 
L 390.331145 166.55432 
L 390.552058 130.173063 
L 390.993885 229.26442 
L 391.214799 238.843765 
L 391.435712 181.720743 
L 391.656626 163.414996 
L 392.098453 260.069442 
L 392.319367 179.988759 
L 392.54028 199.818516 
L 392.761194 119.080937 
L 393.203021 229.805237 
L 393.333043 -1 
M 393.748629 -1 
L 393.865761 181.092283 
L 394.086675 68.660001 
L 394.528502 127.347414 
L 394.749416 58.936266 
L 394.970329 53.260024 
L 395.191243 73.090683 
L 395.412156 107.224835 
L 395.503882 -1 
M 396.054444 -1 
L 396.074897 15.460512 
L 396.29581 75.640988 
L 396.516724 102.252844 
L 396.737637 52.454082 
L 396.958551 46.730836 
L 397.179465 66.961851 
L 397.400378 71.371721 
L 397.468941 -1 
M 398.01977 -1 
L 398.063119 38.385834 
L 398.284032 27.628322 
L 398.504946 99.469008 
L 398.725859 4.536605 
L 398.946773 92.567292 
L 399.167686 69.36575 
L 399.234776 -1 
M 399.778147 -1 
L 400.051341 163.25003 
L 400.272254 149.425048 
L 400.714081 200.82137 
L 400.934995 88.275746 
L 401.155908 105.734121 
L 401.243916 -1 
M 401.913734 -1 
L 402.039563 212.502063 
L 402.48139 291.815539 
L 402.702303 40.397477 
L 403.14413 119.099415 
L 403.398482 -1 
M 404.63723 -1 
L 404.690525 48.841891 
L 404.911439 22.380742 
L 405.353266 168.439078 
L 405.574179 178.980677 
L 405.795093 93.059284 
L 406.016006 76.179323 
L 406.23692 112.024468 
L 406.327927 -1 
M 407.005983 -1 
L 407.120574 172.883374 
L 407.341488 119.106279 
L 407.341488 119.106279 
" style="fill:none;stroke:#000000;stroke-linecap:square;stroke-width:1.5;"/>
   </g>
   <g id="patch_9">
    <path d="M 252.392727 307.584 
L 252.392727 41.472 
" style="fill:none;stroke:#000000;stroke-linecap:square;stroke-linejoin:miter;stroke-width:0.8;"/>
   </g>
   <g id="patch_10">
    <path d="M 414.72 307.584 
L 414.72 41.472 
" style="fill:none;stroke:#000000;stroke-linecap:square;stroke-linejoin:miter;stroke-width:0.8;"/>
   </g>
   <g id="patch_11">
    <path d="M 252.392727 307.584 
L 414.72 307.584 
" style="fill:none;stroke:#000000;stroke-linecap:square;stroke-linejoin:miter;stroke-width:0.8;"/>
   </g>
   <g id="patch_12">
    <path d="M 252.392727 41.472 
L 414.72 41.472 
" style="fill:none;stroke:#000000;stroke-linecap:square;stroke-linejoin:miter;stroke-width:0.8;"/>
   </g>
   <g id="text_46">
    <!-- Pupil - Reg vs Stress -->
    <defs>
     <path d="M 19.671875 64.796875 
L 19.671875 37.40625 
L 32.078125 37.40625 
Q 38.96875 37.40625 42.71875 40.96875 
Q 46.484375 44.53125 46.484375 51.125 
Q 46.484375 57.671875 42.71875 61.234375 
Q 38.96875 64.796875 32.078125 64.796875 
z
M 9.8125 72.90625 
L 32.078125 72.90625 
Q 44.34375 72.90625 50.609375 67.359375 
Q 56.890625 61.8125 56.890625 51.125 
Q 56.890625 40.328125 50.609375 34.8125 
Q 44.34375 29.296875 32.078125 29.296875 
L 19.671875 29.296875 
L 19.671875 0 
L 9.8125 0 
z
" id="DejaVuSans-50"/>
     <path d="M 18.109375 8.203125 
L 18.109375 -20.796875 
L 9.078125 -20.796875 
L 9.078125 54.6875 
L 18.109375 54.6875 
L 18.109375 46.390625 
Q 20.953125 51.265625 25.265625 53.625 
Q 29.59375 56 35.59375 56 
Q 45.5625 56 51.78125 48.09375 
Q 58.015625 40.1875 58.015625 27.296875 
Q 58.015625 14.40625 51.78125 6.484375 
Q 45.5625 -1.421875 35.59375 -1.421875 
Q 29.59375 -1.421875 25.265625 0.953125 
Q 20.953125 3.328125 18.109375 8.203125 
z
M 48.6875 27.296875 
Q 48.6875 37.203125 44.609375 42.84375 
Q 40.53125 48.484375 33.40625 48.484375 
Q 26.265625 48.484375 22.1875 42.84375 
Q 18.109375 37.203125 18.109375 27.296875 
Q 18.109375 17.390625 22.1875 11.75 
Q 26.265625 6.109375 33.40625 6.109375 
Q 40.53125 6.109375 44.609375 11.75 
Q 48.6875 17.390625 48.6875 27.296875 
z
" id="DejaVuSans-70"/>
    </defs>
    <g transform="translate(272.289801 35.472)scale(0.12 -0.12)">
     <use xlink:href="#DejaVuSans-50"/>
     <use x="60.287109" xlink:href="#DejaVuSans-75"/>
     <use x="123.666016" xlink:href="#DejaVuSans-70"/>
     <use x="187.142578" xlink:href="#DejaVuSans-69"/>
     <use x="214.925781" xlink:href="#DejaVuSans-6c"/>
     <use x="242.708984" xlink:href="#DejaVuSans-20"/>
     <use x="274.496094" xlink:href="#DejaVuSans-2d"/>
     <use x="310.580078" xlink:href="#DejaVuSans-20"/>
     <use x="342.367188" xlink:href="#DejaVuSans-52"/>
     <use x="411.787109" xlink:href="#DejaVuSans-65"/>
     <use x="473.310547" xlink:href="#DejaVuSans-67"/>
     <use x="536.787109" xlink:href="#DejaVuSans-20"/>
     <use x="568.574219" xlink:href="#DejaVuSans-76"/>
     <use x="627.753906" xlink:href="#DejaVuSans-73"/>
     <use x="679.853516" xlink:href="#DejaVuSans-20"/>
     <use x="711.640625" xlink:href="#DejaVuSans-53"/>
     <use x="775.117188" xlink:href="#DejaVuSans-74"/>
     <use x="814.326172" xlink:href="#DejaVuSans-72"/>
     <use x="855.408203" xlink:href="#DejaVuSans-65"/>
     <use x="916.931641" xlink:href="#DejaVuSans-73"/>
     <use x="969.03125" xlink:href="#DejaVuSans-73"/>
    </g>
   </g>
   <g id="legend_2">
    <g id="patch_13">
     <path d="M 259.392727 93.506375 
L 328.60054 93.506375 
Q 330.60054 93.506375 330.60054 91.506375 
L 330.60054 48.472 
Q 330.60054 46.472 328.60054 46.472 
L 259.392727 46.472 
Q 257.392727 46.472 257.392727 48.472 
L 257.392727 91.506375 
Q 257.392727 93.506375 259.392727 93.506375 
z
" style="fill:#ffffff;opacity:0.8;stroke:#cccccc;stroke-linejoin:miter;"/>
    </g>
    <g id="line2d_52">
     <path d="M 261.392727 54.570438 
L 281.392727 54.570438 
" style="fill:none;stroke:#0000ff;stroke-linecap:square;stroke-width:1.5;"/>
    </g>
    <g id="line2d_53"/>
    <g id="text_47">
     <!-- Reg -->
     <g transform="translate(289.392727 58.070438)scale(0.1 -0.1)">
      <use xlink:href="#DejaVuSans-52"/>
      <use x="69.419922" xlink:href="#DejaVuSans-65"/>
      <use x="130.943359" xlink:href="#DejaVuSans-67"/>
     </g>
    </g>
    <g id="line2d_54">
     <path d="M 261.392727 69.248563 
L 281.392727 69.248563 
" style="fill:none;stroke:#ff0000;stroke-linecap:square;stroke-width:1.5;"/>
    </g>
    <g id="line2d_55"/>
    <g id="text_48">
     <!-- Stress -->
     <g transform="translate(289.392727 72.748563)scale(0.1 -0.1)">
      <use xlink:href="#DejaVuSans-53"/>
      <use x="63.476562" xlink:href="#DejaVuSans-74"/>
      <use x="102.685547" xlink:href="#DejaVuSans-72"/>
      <use x="143.767578" xlink:href="#DejaVuSans-65"/>
      <use x="205.291016" xlink:href="#DejaVuSans-73"/>
      <use x="257.390625" xlink:href="#DejaVuSans-73"/>
     </g>
    </g>
    <g id="line2d_56">
     <path d="M 261.392727 83.926688 
L 281.392727 83.926688 
" style="fill:none;stroke:#000000;stroke-linecap:square;stroke-width:1.5;"/>
    </g>
    <g id="line2d_57"/>
    <g id="text_49">
     <!-- Block C -->
     <g transform="translate(289.392727 87.426688)scale(0.1 -0.1)">
      <use xlink:href="#DejaVuSans-42"/>
      <use x="68.603516" xlink:href="#DejaVuSans-6c"/>
      <use x="96.386719" xlink:href="#DejaVuSans-6f"/>
      <use x="157.568359" xlink:href="#DejaVuSans-63"/>
      <use x="212.548828" xlink:href="#DejaVuSans-6b"/>
      <use x="270.458984" xlink:href="#DejaVuSans-20"/>
      <use x="302.246094" xlink:href="#DejaVuSans-43"/>
     </g>
    </g>
   </g>
  </g>
 </g>
 <defs>
  <clipPath id="pf57ba7005e">
   <rect height="266.112" width="162.327273" x="57.6" y="41.472"/>
  </clipPath>
  <clipPath id="pce6bd45f93">
   <rect height="266.112" width="162.327273" x="252.392727" y="41.472"/>
  </clipPath>
 </defs>
</svg>
