<?xml version="1.0" encoding="utf-8" standalone="no"?>
<!DOCTYPE svg PUBLIC "-//W3C//DTD SVG 1.1//EN"
  "http://www.w3.org/Graphics/SVG/1.1/DTD/svg11.dtd">
<!-- Created with matplotlib (http://matplotlib.org/) -->
<svg height="432pt" version="1.1" viewBox="0 0 576 432" width="576pt" xmlns="http://www.w3.org/2000/svg" xmlns:xlink="http://www.w3.org/1999/xlink">
 <defs>
  <style type="text/css">
*{stroke-linecap:butt;stroke-linejoin:round;}
  </style>
 </defs>
 <g id="figure_1">
  <g id="patch_1">
   <path d="
M0 432
L576 432
L576 0
L0 0
z
" style="fill:#ffffff;"/>
  </g>
  <g id="axes_1">
   <g id="patch_2">
    <path d="
M41.9491 402.44
L254.774 402.44
L254.774 238.28
L41.9491 238.28
z
" style="fill:#ffffff;"/>
   </g>
   <g id="line2d_1">
    <path clip-path="url(#p12b1442ff1)" d="
M45.4961 321.418
L49.0432 312.642
L52.5903 306.678
L56.1374 311.848
L59.6845 307.161
L63.2315 314.118
L66.7786 316.423
L70.3257 321.872
L73.8728 326.335
L77.4198 319.742
L80.9669 339.477
L84.514 328.393
L88.0611 338.108
L91.6082 312.948
L95.1552 313.478
L98.7023 308.355
L102.249 329.662
L105.796 344.612
L109.344 315.864
L112.891 326.722
L116.438 316.249
L119.985 316.941
L123.532 338.303
L127.079 308.18
L130.626 316.941
L134.173 348.972
L137.72 300.356
L141.267 319.183
L144.814 310.038
L148.361 316.004
L151.908 313.641
L155.456 319.043
L159.003 307.609
L162.55 327.741
L166.097 323.706
L169.644 320.222
L173.191 333.511
L176.738 347.75
L180.285 325.173
L183.832 327.203
L187.379 340.874
L190.926 328.841
L194.473 307.609
L198.021 331.245
L201.568 304.268
L205.115 299.092
L208.662 327.863
L212.209 301.383
L215.756 313.987
L219.303 317.765
L222.85 321.663" style="fill:none;stroke:#ff0000;stroke-linecap:square;"/>
   </g>
   <g id="line2d_2">
    <path clip-path="url(#p12b1442ff1)" d="
M45.4961 320.148
L49.0432 320.163
L52.5903 320.179
L56.1374 320.194
L59.6845 320.21
L63.2315 320.225
L66.7786 320.241
L70.3257 320.256
L73.8728 320.271
L77.4198 320.287
L80.9669 320.302
L84.514 320.318
L88.0611 320.333
L91.6082 320.349
L95.1552 320.364
L98.7023 320.379
L102.249 320.395
L105.796 320.41
L109.344 320.426
L112.891 320.441
L116.438 320.456
L119.985 320.472
L123.532 320.487
L127.079 320.503
L130.626 320.518
L134.173 320.534
L137.72 320.549
L141.267 320.564
L144.814 320.58
L148.361 320.595
L151.908 320.611
L155.456 320.626
L159.003 320.641
L162.55 320.657
L166.097 320.672
L169.644 320.688
L173.191 320.703
L176.738 320.719
L180.285 320.734
L183.832 320.749
L187.379 320.765
L190.926 320.78
L194.473 320.796
L198.021 320.811
L201.568 320.827
L205.115 320.842
L208.662 320.857
L212.209 320.873
L215.756 320.888
L219.303 320.904
L222.85 320.919" style="fill:none;stroke:#ff0000;stroke-dasharray:6.000000,6.000000;stroke-dashoffset:0.0;"/>
   </g>
   <g id="patch_3">
    <path d="
M41.9491 238.28
L254.774 238.28" style="fill:none;stroke:#000000;stroke-linecap:square;stroke-linejoin:miter;"/>
   </g>
   <g id="patch_4">
    <path d="
M254.774 402.44
L254.774 238.28" style="fill:none;stroke:#000000;stroke-linecap:square;stroke-linejoin:miter;"/>
   </g>
   <g id="patch_5">
    <path d="
M41.9491 402.44
L254.774 402.44" style="fill:none;stroke:#000000;stroke-linecap:square;stroke-linejoin:miter;"/>
   </g>
   <g id="patch_6">
    <path d="
M41.9491 402.44
L41.9491 238.28" style="fill:none;stroke:#000000;stroke-linecap:square;stroke-linejoin:miter;"/>
   </g>
   <g id="matplotlib.axis_1">
    <g id="xtick_1">
     <g id="line2d_3">
      <defs>
       <path d="
M0 0
L0 -4" id="m93b0483c22" style="stroke:#000000;stroke-width:0.5;"/>
      </defs>
      <g>
       <use style="stroke:#000000;stroke-width:0.5;" x="41.9490625" xlink:href="#m93b0483c22" y="402.44"/>
      </g>
     </g>
     <g id="line2d_4">
      <defs>
       <path d="
M0 0
L0 4" id="m741efc42ff" style="stroke:#000000;stroke-width:0.5;"/>
      </defs>
      <g>
       <use style="stroke:#000000;stroke-width:0.5;" x="41.9490625" xlink:href="#m741efc42ff" y="238.28"/>
      </g>
     </g>
     <g id="text_1">
      <!-- 0 -->
      <defs>
       <path d="
M31.7812 66.4062
Q24.1719 66.4062 20.3281 58.9062
Q16.5 51.4219 16.5 36.375
Q16.5 21.3906 20.3281 13.8906
Q24.1719 6.39062 31.7812 6.39062
Q39.4531 6.39062 43.2812 13.8906
Q47.125 21.3906 47.125 36.375
Q47.125 51.4219 43.2812 58.9062
Q39.4531 66.4062 31.7812 66.4062
M31.7812 74.2188
Q44.0469 74.2188 50.5156 64.5156
Q56.9844 54.8281 56.9844 36.375
Q56.9844 17.9688 50.5156 8.26562
Q44.0469 -1.42188 31.7812 -1.42188
Q19.5312 -1.42188 13.0625 8.26562
Q6.59375 17.9688 6.59375 36.375
Q6.59375 54.8281 13.0625 64.5156
Q19.5312 74.2188 31.7812 74.2188" id="BitstreamVeraSans-Roman-30"/>
      </defs>
      <g transform="translate(38.925625 415.558125)scale(0.12 -0.12)">
       <use xlink:href="#BitstreamVeraSans-Roman-30"/>
      </g>
     </g>
    </g>
    <g id="xtick_2">
     <g id="line2d_5">
      <g>
       <use style="stroke:#000000;stroke-width:0.5;" x="77.4198461174" xlink:href="#m93b0483c22" y="402.44"/>
      </g>
     </g>
     <g id="line2d_6">
      <g>
       <use style="stroke:#000000;stroke-width:0.5;" x="77.4198461174" xlink:href="#m741efc42ff" y="238.28"/>
      </g>
     </g>
     <g id="text_2">
      <!-- 10 -->
      <defs>
       <path d="
M12.4062 8.29688
L28.5156 8.29688
L28.5156 63.9219
L10.9844 60.4062
L10.9844 69.3906
L28.4219 72.9062
L38.2812 72.9062
L38.2812 8.29688
L54.3906 8.29688
L54.3906 0
L12.4062 0
z
" id="BitstreamVeraSans-Roman-31"/>
      </defs>
      <g transform="translate(70.8423461174 415.558125)scale(0.12 -0.12)">
       <use xlink:href="#BitstreamVeraSans-Roman-31"/>
       <use x="63.623046875" xlink:href="#BitstreamVeraSans-Roman-30"/>
      </g>
     </g>
    </g>
    <g id="xtick_3">
     <g id="line2d_7">
      <g>
       <use style="stroke:#000000;stroke-width:0.5;" x="112.890629735" xlink:href="#m93b0483c22" y="402.44"/>
      </g>
     </g>
     <g id="line2d_8">
      <g>
       <use style="stroke:#000000;stroke-width:0.5;" x="112.890629735" xlink:href="#m741efc42ff" y="238.28"/>
      </g>
     </g>
     <g id="text_3">
      <!-- 20 -->
      <defs>
       <path d="
M19.1875 8.29688
L53.6094 8.29688
L53.6094 0
L7.32812 0
L7.32812 8.29688
Q12.9375 14.1094 22.625 23.8906
Q32.3281 33.6875 34.8125 36.5312
Q39.5469 41.8438 41.4219 45.5312
Q43.3125 49.2188 43.3125 52.7812
Q43.3125 58.5938 39.2344 62.25
Q35.1562 65.9219 28.6094 65.9219
Q23.9688 65.9219 18.8125 64.3125
Q13.6719 62.7031 7.8125 59.4219
L7.8125 69.3906
Q13.7656 71.7812 18.9375 73
Q24.125 74.2188 28.4219 74.2188
Q39.75 74.2188 46.4844 68.5469
Q53.2188 62.8906 53.2188 53.4219
Q53.2188 48.9219 51.5312 44.8906
Q49.8594 40.875 45.4062 35.4062
Q44.1875 33.9844 37.6406 27.2188
Q31.1094 20.4531 19.1875 8.29688" id="BitstreamVeraSans-Roman-32"/>
      </defs>
      <g transform="translate(106.093754735 415.558125)scale(0.12 -0.12)">
       <use xlink:href="#BitstreamVeraSans-Roman-32"/>
       <use x="63.623046875" xlink:href="#BitstreamVeraSans-Roman-30"/>
      </g>
     </g>
    </g>
    <g id="xtick_4">
     <g id="line2d_9">
      <g>
       <use style="stroke:#000000;stroke-width:0.5;" x="148.361413352" xlink:href="#m93b0483c22" y="402.44"/>
      </g>
     </g>
     <g id="line2d_10">
      <g>
       <use style="stroke:#000000;stroke-width:0.5;" x="148.361413352" xlink:href="#m741efc42ff" y="238.28"/>
      </g>
     </g>
     <g id="text_4">
      <!-- 30 -->
      <defs>
       <path d="
M40.5781 39.3125
Q47.6562 37.7969 51.625 33
Q55.6094 28.2188 55.6094 21.1875
Q55.6094 10.4062 48.1875 4.48438
Q40.7656 -1.42188 27.0938 -1.42188
Q22.5156 -1.42188 17.6562 -0.515625
Q12.7969 0.390625 7.625 2.20312
L7.625 11.7188
Q11.7188 9.32812 16.5938 8.10938
Q21.4844 6.89062 26.8125 6.89062
Q36.0781 6.89062 40.9375 10.5469
Q45.7969 14.2031 45.7969 21.1875
Q45.7969 27.6406 41.2812 31.2656
Q36.7656 34.9062 28.7188 34.9062
L20.2188 34.9062
L20.2188 43.0156
L29.1094 43.0156
Q36.375 43.0156 40.2344 45.9219
Q44.0938 48.8281 44.0938 54.2969
Q44.0938 59.9062 40.1094 62.9062
Q36.1406 65.9219 28.7188 65.9219
Q24.6562 65.9219 20.0156 65.0312
Q15.375 64.1562 9.8125 62.3125
L9.8125 71.0938
Q15.4375 72.6562 20.3438 73.4375
Q25.25 74.2188 29.5938 74.2188
Q40.8281 74.2188 47.3594 69.1094
Q53.9062 64.0156 53.9062 55.3281
Q53.9062 49.2656 50.4375 45.0938
Q46.9688 40.9219 40.5781 39.3125" id="BitstreamVeraSans-Roman-33"/>
      </defs>
      <g transform="translate(141.582350852 415.558125)scale(0.12 -0.12)">
       <use xlink:href="#BitstreamVeraSans-Roman-33"/>
       <use x="63.623046875" xlink:href="#BitstreamVeraSans-Roman-30"/>
      </g>
     </g>
    </g>
    <g id="xtick_5">
     <g id="line2d_11">
      <g>
       <use style="stroke:#000000;stroke-width:0.5;" x="183.83219697" xlink:href="#m93b0483c22" y="402.44"/>
      </g>
     </g>
     <g id="line2d_12">
      <g>
       <use style="stroke:#000000;stroke-width:0.5;" x="183.83219697" xlink:href="#m741efc42ff" y="238.28"/>
      </g>
     </g>
     <g id="text_5">
      <!-- 40 -->
      <defs>
       <path d="
M37.7969 64.3125
L12.8906 25.3906
L37.7969 25.3906
z

M35.2031 72.9062
L47.6094 72.9062
L47.6094 25.3906
L58.0156 25.3906
L58.0156 17.1875
L47.6094 17.1875
L47.6094 0
L37.7969 0
L37.7969 17.1875
L4.89062 17.1875
L4.89062 26.7031
z
" id="BitstreamVeraSans-Roman-34"/>
      </defs>
      <g transform="translate(176.88907197 415.558125)scale(0.12 -0.12)">
       <use xlink:href="#BitstreamVeraSans-Roman-34"/>
       <use x="63.623046875" xlink:href="#BitstreamVeraSans-Roman-30"/>
      </g>
     </g>
    </g>
    <g id="xtick_6">
     <g id="line2d_13">
      <g>
       <use style="stroke:#000000;stroke-width:0.5;" x="219.302980587" xlink:href="#m93b0483c22" y="402.44"/>
      </g>
     </g>
     <g id="line2d_14">
      <g>
       <use style="stroke:#000000;stroke-width:0.5;" x="219.302980587" xlink:href="#m741efc42ff" y="238.28"/>
      </g>
     </g>
     <g id="text_6">
      <!-- 50 -->
      <defs>
       <path d="
M10.7969 72.9062
L49.5156 72.9062
L49.5156 64.5938
L19.8281 64.5938
L19.8281 46.7344
Q21.9688 47.4688 24.1094 47.8281
Q26.2656 48.1875 28.4219 48.1875
Q40.625 48.1875 47.75 41.5
Q54.8906 34.8125 54.8906 23.3906
Q54.8906 11.625 47.5625 5.09375
Q40.2344 -1.42188 26.9062 -1.42188
Q22.3125 -1.42188 17.5469 -0.640625
Q12.7969 0.140625 7.71875 1.70312
L7.71875 11.625
Q12.1094 9.23438 16.7969 8.0625
Q21.4844 6.89062 26.7031 6.89062
Q35.1562 6.89062 40.0781 11.3281
Q45.0156 15.7656 45.0156 23.3906
Q45.0156 31 40.0781 35.4375
Q35.1562 39.8906 26.7031 39.8906
Q22.75 39.8906 18.8125 39.0156
Q14.8906 38.1406 10.7969 36.2812
z
" id="BitstreamVeraSans-Roman-35"/>
      </defs>
      <g transform="translate(212.529543087 415.558125)scale(0.12 -0.12)">
       <use xlink:href="#BitstreamVeraSans-Roman-35"/>
       <use x="63.623046875" xlink:href="#BitstreamVeraSans-Roman-30"/>
      </g>
     </g>
    </g>
    <g id="xtick_7">
     <g id="line2d_15">
      <g>
       <use style="stroke:#000000;stroke-width:0.5;" x="254.773764205" xlink:href="#m93b0483c22" y="402.44"/>
      </g>
     </g>
     <g id="line2d_16">
      <g>
       <use style="stroke:#000000;stroke-width:0.5;" x="254.773764205" xlink:href="#m741efc42ff" y="238.28"/>
      </g>
     </g>
     <g id="text_7">
      <!-- 60 -->
      <defs>
       <path d="
M33.0156 40.375
Q26.375 40.375 22.4844 35.8281
Q18.6094 31.2969 18.6094 23.3906
Q18.6094 15.5312 22.4844 10.9531
Q26.375 6.39062 33.0156 6.39062
Q39.6562 6.39062 43.5312 10.9531
Q47.4062 15.5312 47.4062 23.3906
Q47.4062 31.2969 43.5312 35.8281
Q39.6562 40.375 33.0156 40.375
M52.5938 71.2969
L52.5938 62.3125
Q48.875 64.0625 45.0938 64.9844
Q41.3125 65.9219 37.5938 65.9219
Q27.8281 65.9219 22.6719 59.3281
Q17.5312 52.7344 16.7969 39.4062
Q19.6719 43.6562 24.0156 45.9219
Q28.375 48.1875 33.5938 48.1875
Q44.5781 48.1875 50.9531 41.5156
Q57.3281 34.8594 57.3281 23.3906
Q57.3281 12.1562 50.6875 5.35938
Q44.0469 -1.42188 33.0156 -1.42188
Q20.3594 -1.42188 13.6719 8.26562
Q6.98438 17.9688 6.98438 36.375
Q6.98438 53.6562 15.1875 63.9375
Q23.3906 74.2188 37.2031 74.2188
Q40.9219 74.2188 44.7031 73.4844
Q48.4844 72.75 52.5938 71.2969" id="BitstreamVeraSans-Roman-36"/>
      </defs>
      <g transform="translate(247.956264205 415.558125)scale(0.12 -0.12)">
       <use xlink:href="#BitstreamVeraSans-Roman-36"/>
       <use x="63.623046875" xlink:href="#BitstreamVeraSans-Roman-30"/>
      </g>
     </g>
    </g>
   </g>
   <g id="matplotlib.axis_2">
    <g id="ytick_1">
     <g id="line2d_17">
      <defs>
       <path d="
M0 0
L4 0" id="m728421d6d4" style="stroke:#000000;stroke-width:0.5;"/>
      </defs>
      <g>
       <use style="stroke:#000000;stroke-width:0.5;" x="41.9490625" xlink:href="#m728421d6d4" y="387.516363636"/>
      </g>
     </g>
     <g id="line2d_18">
      <defs>
       <path d="
M0 0
L-4 0" id="mcb0005524f" style="stroke:#000000;stroke-width:0.5;"/>
      </defs>
      <g>
       <use style="stroke:#000000;stroke-width:0.5;" x="254.773764205" xlink:href="#mcb0005524f" y="387.516363636"/>
      </g>
     </g>
     <g id="text_8">
      <!-- 0.30 -->
      <defs>
       <path d="
M10.6875 12.4062
L21 12.4062
L21 0
L10.6875 0
z
" id="BitstreamVeraSans-Roman-2e"/>
      </defs>
      <g transform="translate(12.8184375 390.827613636)scale(0.12 -0.12)">
       <use xlink:href="#BitstreamVeraSans-Roman-30"/>
       <use x="63.623046875" xlink:href="#BitstreamVeraSans-Roman-2e"/>
       <use x="95.41015625" xlink:href="#BitstreamVeraSans-Roman-33"/>
       <use x="159.033203125" xlink:href="#BitstreamVeraSans-Roman-30"/>
      </g>
     </g>
    </g>
    <g id="ytick_2">
     <g id="line2d_19">
      <g>
       <use style="stroke:#000000;stroke-width:0.5;" x="41.9490625" xlink:href="#m728421d6d4" y="350.207272727"/>
      </g>
     </g>
     <g id="line2d_20">
      <g>
       <use style="stroke:#000000;stroke-width:0.5;" x="254.773764205" xlink:href="#mcb0005524f" y="350.207272727"/>
      </g>
     </g>
     <g id="text_9">
      <!-- 0.35 -->
      <g transform="translate(13.0696875 353.518522727)scale(0.12 -0.12)">
       <use xlink:href="#BitstreamVeraSans-Roman-30"/>
       <use x="63.623046875" xlink:href="#BitstreamVeraSans-Roman-2e"/>
       <use x="95.41015625" xlink:href="#BitstreamVeraSans-Roman-33"/>
       <use x="159.033203125" xlink:href="#BitstreamVeraSans-Roman-35"/>
      </g>
     </g>
    </g>
    <g id="ytick_3">
     <g id="line2d_21">
      <g>
       <use style="stroke:#000000;stroke-width:0.5;" x="41.9490625" xlink:href="#m728421d6d4" y="312.898181818"/>
      </g>
     </g>
     <g id="line2d_22">
      <g>
       <use style="stroke:#000000;stroke-width:0.5;" x="254.773764205" xlink:href="#mcb0005524f" y="312.898181818"/>
      </g>
     </g>
     <g id="text_10">
      <!-- 0.40 -->
      <g transform="translate(12.8184375 316.209431818)scale(0.12 -0.12)">
       <use xlink:href="#BitstreamVeraSans-Roman-30"/>
       <use x="63.623046875" xlink:href="#BitstreamVeraSans-Roman-2e"/>
       <use x="95.41015625" xlink:href="#BitstreamVeraSans-Roman-34"/>
       <use x="159.033203125" xlink:href="#BitstreamVeraSans-Roman-30"/>
      </g>
     </g>
    </g>
    <g id="ytick_4">
     <g id="line2d_23">
      <g>
       <use style="stroke:#000000;stroke-width:0.5;" x="41.9490625" xlink:href="#m728421d6d4" y="275.589090909"/>
      </g>
     </g>
     <g id="line2d_24">
      <g>
       <use style="stroke:#000000;stroke-width:0.5;" x="254.773764205" xlink:href="#mcb0005524f" y="275.589090909"/>
      </g>
     </g>
     <g id="text_11">
      <!-- 0.45 -->
      <g transform="translate(13.0696875 278.900340909)scale(0.12 -0.12)">
       <use xlink:href="#BitstreamVeraSans-Roman-30"/>
       <use x="63.623046875" xlink:href="#BitstreamVeraSans-Roman-2e"/>
       <use x="95.41015625" xlink:href="#BitstreamVeraSans-Roman-34"/>
       <use x="159.033203125" xlink:href="#BitstreamVeraSans-Roman-35"/>
      </g>
     </g>
    </g>
    <g id="ytick_5">
     <g id="line2d_25">
      <g>
       <use style="stroke:#000000;stroke-width:0.5;" x="41.9490625" xlink:href="#m728421d6d4" y="238.28"/>
      </g>
     </g>
     <g id="line2d_26">
      <g>
       <use style="stroke:#000000;stroke-width:0.5;" x="254.773764205" xlink:href="#mcb0005524f" y="238.28"/>
      </g>
     </g>
     <g id="text_12">
      <!-- 0.50 -->
      <g transform="translate(12.8184375 241.59125)scale(0.12 -0.12)">
       <use xlink:href="#BitstreamVeraSans-Roman-30"/>
       <use x="63.623046875" xlink:href="#BitstreamVeraSans-Roman-2e"/>
       <use x="95.41015625" xlink:href="#BitstreamVeraSans-Roman-35"/>
       <use x="159.033203125" xlink:href="#BitstreamVeraSans-Roman-30"/>
      </g>
     </g>
    </g>
   </g>
   <g id="text_13">
    <!-- Pulse in Stress Trials -->
    <defs>
     <path id="BitstreamVeraSans-Roman-20"/>
     <path d="
M54.8906 33.0156
L54.8906 0
L45.9062 0
L45.9062 32.7188
Q45.9062 40.4844 42.875 44.3281
Q39.8438 48.1875 33.7969 48.1875
Q26.5156 48.1875 22.3125 43.5469
Q18.1094 38.9219 18.1094 30.9062
L18.1094 0
L9.07812 0
L9.07812 54.6875
L18.1094 54.6875
L18.1094 46.1875
Q21.3438 51.125 25.7031 53.5625
Q30.0781 56 35.7969 56
Q45.2188 56 50.0469 50.1719
Q54.8906 44.3438 54.8906 33.0156" id="BitstreamVeraSans-Roman-6e"/>
     <path d="
M34.2812 27.4844
Q23.3906 27.4844 19.1875 25
Q14.9844 22.5156 14.9844 16.5
Q14.9844 11.7188 18.1406 8.90625
Q21.2969 6.10938 26.7031 6.10938
Q34.1875 6.10938 38.7031 11.4062
Q43.2188 16.7031 43.2188 25.4844
L43.2188 27.4844
z

M52.2031 31.2031
L52.2031 0
L43.2188 0
L43.2188 8.29688
Q40.1406 3.32812 35.5469 0.953125
Q30.9531 -1.42188 24.3125 -1.42188
Q15.9219 -1.42188 10.9531 3.29688
Q6 8.01562 6 15.9219
Q6 25.1406 12.1719 29.8281
Q18.3594 34.5156 30.6094 34.5156
L43.2188 34.5156
L43.2188 35.4062
Q43.2188 41.6094 39.1406 45
Q35.0625 48.3906 27.6875 48.3906
Q23 48.3906 18.5469 47.2656
Q14.1094 46.1406 10.0156 43.8906
L10.0156 52.2031
Q14.9375 54.1094 19.5781 55.0469
Q24.2188 56 28.6094 56
Q40.4844 56 46.3438 49.8438
Q52.2031 43.7031 52.2031 31.2031" id="BitstreamVeraSans-Roman-61"/>
     <path d="
M9.42188 75.9844
L18.4062 75.9844
L18.4062 0
L9.42188 0
z
" id="BitstreamVeraSans-Roman-6c"/>
     <path d="
M19.6719 64.7969
L19.6719 37.4062
L32.0781 37.4062
Q38.9688 37.4062 42.7188 40.9688
Q46.4844 44.5312 46.4844 51.125
Q46.4844 57.6719 42.7188 61.2344
Q38.9688 64.7969 32.0781 64.7969
z

M9.8125 72.9062
L32.0781 72.9062
Q44.3438 72.9062 50.6094 67.3594
Q56.8906 61.8125 56.8906 51.125
Q56.8906 40.3281 50.6094 34.8125
Q44.3438 29.2969 32.0781 29.2969
L19.6719 29.2969
L19.6719 0
L9.8125 0
z
" id="BitstreamVeraSans-Roman-50"/>
     <path d="
M53.5156 70.5156
L53.5156 60.8906
Q47.9062 63.5781 42.9219 64.8906
Q37.9375 66.2188 33.2969 66.2188
Q25.25 66.2188 20.875 63.0938
Q16.5 59.9688 16.5 54.2031
Q16.5 49.3594 19.4062 46.8906
Q22.3125 44.4375 30.4219 42.9219
L36.375 41.7031
Q47.4062 39.5938 52.6562 34.2969
Q57.9062 29 57.9062 20.125
Q57.9062 9.51562 50.7969 4.04688
Q43.7031 -1.42188 29.9844 -1.42188
Q24.8125 -1.42188 18.9688 -0.25
Q13.1406 0.921875 6.89062 3.21875
L6.89062 13.375
Q12.8906 10.0156 18.6562 8.29688
Q24.4219 6.59375 29.9844 6.59375
Q38.4219 6.59375 43.0156 9.90625
Q47.6094 13.2344 47.6094 19.3906
Q47.6094 24.75 44.3125 27.7812
Q41.0156 30.8125 33.5 32.3281
L27.4844 33.5
Q16.4531 35.6875 11.5156 40.375
Q6.59375 45.0625 6.59375 53.4219
Q6.59375 63.0938 13.4062 68.6562
Q20.2188 74.2188 32.1719 74.2188
Q37.3125 74.2188 42.625 73.2812
Q47.9531 72.3594 53.5156 70.5156" id="BitstreamVeraSans-Roman-53"/>
     <path d="
M9.42188 54.6875
L18.4062 54.6875
L18.4062 0
L9.42188 0
z

M9.42188 75.9844
L18.4062 75.9844
L18.4062 64.5938
L9.42188 64.5938
z
" id="BitstreamVeraSans-Roman-69"/>
     <path d="
M56.2031 29.5938
L56.2031 25.2031
L14.8906 25.2031
Q15.4844 15.9219 20.4844 11.0625
Q25.4844 6.20312 34.4219 6.20312
Q39.5938 6.20312 44.4531 7.46875
Q49.3125 8.73438 54.1094 11.2812
L54.1094 2.78125
Q49.2656 0.734375 44.1875 -0.34375
Q39.1094 -1.42188 33.8906 -1.42188
Q20.7969 -1.42188 13.1562 6.1875
Q5.51562 13.8125 5.51562 26.8125
Q5.51562 40.2344 12.7656 48.1094
Q20.0156 56 32.3281 56
Q43.3594 56 49.7812 48.8906
Q56.2031 41.7969 56.2031 29.5938
M47.2188 32.2344
Q47.125 39.5938 43.0938 43.9844
Q39.0625 48.3906 32.4219 48.3906
Q24.9062 48.3906 20.3906 44.1406
Q15.875 39.8906 15.1875 32.1719
z
" id="BitstreamVeraSans-Roman-65"/>
     <path d="
M-0.296875 72.9062
L61.375 72.9062
L61.375 64.5938
L35.5 64.5938
L35.5 0
L25.5938 0
L25.5938 64.5938
L-0.296875 64.5938
z
" id="BitstreamVeraSans-Roman-54"/>
     <path d="
M18.3125 70.2188
L18.3125 54.6875
L36.8125 54.6875
L36.8125 47.7031
L18.3125 47.7031
L18.3125 18.0156
Q18.3125 11.3281 20.1406 9.42188
Q21.9688 7.51562 27.5938 7.51562
L36.8125 7.51562
L36.8125 0
L27.5938 0
Q17.1875 0 13.2344 3.875
Q9.28125 7.76562 9.28125 18.0156
L9.28125 47.7031
L2.6875 47.7031
L2.6875 54.6875
L9.28125 54.6875
L9.28125 70.2188
z
" id="BitstreamVeraSans-Roman-74"/>
     <path d="
M8.5 21.5781
L8.5 54.6875
L17.4844 54.6875
L17.4844 21.9219
Q17.4844 14.1562 20.5 10.2656
Q23.5312 6.39062 29.5938 6.39062
Q36.8594 6.39062 41.0781 11.0312
Q45.3125 15.6719 45.3125 23.6875
L45.3125 54.6875
L54.2969 54.6875
L54.2969 0
L45.3125 0
L45.3125 8.40625
Q42.0469 3.42188 37.7188 1
Q33.4062 -1.42188 27.6875 -1.42188
Q18.2656 -1.42188 13.375 4.4375
Q8.5 10.2969 8.5 21.5781" id="BitstreamVeraSans-Roman-75"/>
     <path d="
M41.1094 46.2969
Q39.5938 47.1719 37.8125 47.5781
Q36.0312 48 33.8906 48
Q26.2656 48 22.1875 43.0469
Q18.1094 38.0938 18.1094 28.8125
L18.1094 0
L9.07812 0
L9.07812 54.6875
L18.1094 54.6875
L18.1094 46.1875
Q20.9531 51.1719 25.4844 53.5781
Q30.0312 56 36.5312 56
Q37.4531 56 38.5781 55.875
Q39.7031 55.7656 41.0625 55.5156
z
" id="BitstreamVeraSans-Roman-72"/>
     <path d="
M44.2812 53.0781
L44.2812 44.5781
Q40.4844 46.5312 36.375 47.5
Q32.2812 48.4844 27.875 48.4844
Q21.1875 48.4844 17.8438 46.4375
Q14.5 44.3906 14.5 40.2812
Q14.5 37.1562 16.8906 35.375
Q19.2812 33.5938 26.5156 31.9844
L29.5938 31.2969
Q39.1562 29.25 43.1875 25.5156
Q47.2188 21.7812 47.2188 15.0938
Q47.2188 7.46875 41.1875 3.01562
Q35.1562 -1.42188 24.6094 -1.42188
Q20.2188 -1.42188 15.4531 -0.5625
Q10.6875 0.296875 5.42188 2
L5.42188 11.2812
Q10.4062 8.6875 15.2344 7.39062
Q20.0625 6.10938 24.8125 6.10938
Q31.1562 6.10938 34.5625 8.28125
Q37.9844 10.4531 37.9844 14.4062
Q37.9844 18.0625 35.5156 20.0156
Q33.0625 21.9688 24.7031 23.7812
L21.5781 24.5156
Q13.2344 26.2656 9.51562 29.9062
Q5.8125 33.5469 5.8125 39.8906
Q5.8125 47.6094 11.2812 51.7969
Q16.75 56 26.8125 56
Q31.7812 56 36.1719 55.2656
Q40.5781 54.5469 44.2812 53.0781" id="BitstreamVeraSans-Roman-73"/>
    </defs>
    <g transform="translate(75.7426633523 233.28)scale(0.144 -0.144)">
     <use xlink:href="#BitstreamVeraSans-Roman-50"/>
     <use x="58.552734375" xlink:href="#BitstreamVeraSans-Roman-75"/>
     <use x="121.931640625" xlink:href="#BitstreamVeraSans-Roman-6c"/>
     <use x="149.71484375" xlink:href="#BitstreamVeraSans-Roman-73"/>
     <use x="201.814453125" xlink:href="#BitstreamVeraSans-Roman-65"/>
     <use x="263.337890625" xlink:href="#BitstreamVeraSans-Roman-20"/>
     <use x="295.125" xlink:href="#BitstreamVeraSans-Roman-69"/>
     <use x="322.908203125" xlink:href="#BitstreamVeraSans-Roman-6e"/>
     <use x="386.287109375" xlink:href="#BitstreamVeraSans-Roman-20"/>
     <use x="418.07421875" xlink:href="#BitstreamVeraSans-Roman-53"/>
     <use x="481.55078125" xlink:href="#BitstreamVeraSans-Roman-74"/>
     <use x="520.759765625" xlink:href="#BitstreamVeraSans-Roman-72"/>
     <use x="559.623046875" xlink:href="#BitstreamVeraSans-Roman-65"/>
     <use x="621.146484375" xlink:href="#BitstreamVeraSans-Roman-73"/>
     <use x="673.24609375" xlink:href="#BitstreamVeraSans-Roman-73"/>
     <use x="725.345703125" xlink:href="#BitstreamVeraSans-Roman-20"/>
     <use x="757.1328125" xlink:href="#BitstreamVeraSans-Roman-54"/>
     <use x="803.466796875" xlink:href="#BitstreamVeraSans-Roman-72"/>
     <use x="844.580078125" xlink:href="#BitstreamVeraSans-Roman-69"/>
     <use x="872.36328125" xlink:href="#BitstreamVeraSans-Roman-61"/>
     <use x="933.642578125" xlink:href="#BitstreamVeraSans-Roman-6c"/>
     <use x="961.42578125" xlink:href="#BitstreamVeraSans-Roman-73"/>
    </g>
   </g>
  </g>
  <g id="axes_2">
   <g id="patch_7">
    <path d="
M41.9491 192.92
L254.774 192.92
L254.774 28.76
L41.9491 28.76
z
" style="fill:#ffffff;"/>
   </g>
   <g id="line2d_27">
    <path clip-path="url(#p217c292275)" d="
M46.2056 80.3218
L50.4621 104.664
L54.7185 105.588
L58.975 110.117
L63.2315 93.8105
L67.488 94.3077
L71.7445 137.048
L76.001 102.782
L80.2575 108.863
L84.514 93.9837
L88.7705 114.037
L93.027 91.8544
L97.2835 90.9579
L101.54 119.513
L105.796 114.553
L110.053 98.1302
L114.309 112.016
L118.566 94.6161
L122.822 91.8544
L127.079 98.9044
L131.335 122.72
L135.592 116.411
L139.848 136
L144.105 89.8169
L148.361 116.558
L152.618 122.948
L156.874 96.2498
L161.131 80.713
L165.387 92.914
L169.644 88.5943
L173.9 113.942
L178.157 101.985
L182.413 119.688
L186.67 99.964
L190.926 82.18
L195.183 86.7197
L199.439 105.832
L203.696 84.5395
L207.952 123.315
L212.209 103.375
L216.465 88.2438
L220.722 104.447
L224.978 94.1365
L229.235 104.712
L233.491 100.812
L237.748 105.778
L242.004 115.317
L246.261 98.9859
L250.517 106.674
L254.774 119.769" style="fill:none;stroke:#0000ff;stroke-linecap:square;"/>
   </g>
   <g id="line2d_28">
    <path clip-path="url(#p217c292275)" d="
M46.2056 103.862
L50.4621 103.852
L54.7185 103.842
L58.975 103.833
L63.2315 103.823
L67.488 103.813
L71.7445 103.804
L76.001 103.794
L80.2575 103.784
L84.514 103.775
L88.7705 103.765
L93.027 103.755
L97.2835 103.746
L101.54 103.736
L105.796 103.726
L110.053 103.717
L114.309 103.707
L118.566 103.698
L122.822 103.688
L127.079 103.678
L131.335 103.669
L135.592 103.659
L139.848 103.649
L144.105 103.64
L148.361 103.63
L152.618 103.62
L156.874 103.611
L161.131 103.601
L165.387 103.591
L169.644 103.582
L173.9 103.572
L178.157 103.562
L182.413 103.553
L186.67 103.543
L190.926 103.534
L195.183 103.524
L199.439 103.514
L203.696 103.505
L207.952 103.495
L212.209 103.485
L216.465 103.476
L220.722 103.466
L224.978 103.456
L229.235 103.447
L233.491 103.437
L237.748 103.427
L242.004 103.418
L246.261 103.408
L250.517 103.398
L254.774 103.389" style="fill:none;stroke:#0000ff;stroke-dasharray:6.000000,6.000000;stroke-dashoffset:0.0;"/>
   </g>
   <g id="patch_8">
    <path d="
M41.9491 28.76
L254.774 28.76" style="fill:none;stroke:#000000;stroke-linecap:square;stroke-linejoin:miter;"/>
   </g>
   <g id="patch_9">
    <path d="
M254.774 192.92
L254.774 28.76" style="fill:none;stroke:#000000;stroke-linecap:square;stroke-linejoin:miter;"/>
   </g>
   <g id="patch_10">
    <path d="
M41.9491 192.92
L254.774 192.92" style="fill:none;stroke:#000000;stroke-linecap:square;stroke-linejoin:miter;"/>
   </g>
   <g id="patch_11">
    <path d="
M41.9491 192.92
L41.9491 28.76" style="fill:none;stroke:#000000;stroke-linecap:square;stroke-linejoin:miter;"/>
   </g>
   <g id="matplotlib.axis_3">
    <g id="xtick_8">
     <g id="line2d_29">
      <g>
       <use style="stroke:#000000;stroke-width:0.5;" x="41.9490625" xlink:href="#m93b0483c22" y="192.92"/>
      </g>
     </g>
     <g id="line2d_30">
      <g>
       <use style="stroke:#000000;stroke-width:0.5;" x="41.9490625" xlink:href="#m741efc42ff" y="28.76"/>
      </g>
     </g>
     <g id="text_14">
      <!-- 0 -->
      <g transform="translate(38.925625 206.038125)scale(0.12 -0.12)">
       <use xlink:href="#BitstreamVeraSans-Roman-30"/>
      </g>
     </g>
    </g>
    <g id="xtick_9">
     <g id="line2d_31">
      <g>
       <use style="stroke:#000000;stroke-width:0.5;" x="84.5140028409" xlink:href="#m93b0483c22" y="192.92"/>
      </g>
     </g>
     <g id="line2d_32">
      <g>
       <use style="stroke:#000000;stroke-width:0.5;" x="84.5140028409" xlink:href="#m741efc42ff" y="28.76"/>
      </g>
     </g>
     <g id="text_15">
      <!-- 10 -->
      <g transform="translate(77.9365028409 206.038125)scale(0.12 -0.12)">
       <use xlink:href="#BitstreamVeraSans-Roman-31"/>
       <use x="63.623046875" xlink:href="#BitstreamVeraSans-Roman-30"/>
      </g>
     </g>
    </g>
    <g id="xtick_10">
     <g id="line2d_33">
      <g>
       <use style="stroke:#000000;stroke-width:0.5;" x="127.078943182" xlink:href="#m93b0483c22" y="192.92"/>
      </g>
     </g>
     <g id="line2d_34">
      <g>
       <use style="stroke:#000000;stroke-width:0.5;" x="127.078943182" xlink:href="#m741efc42ff" y="28.76"/>
      </g>
     </g>
     <g id="text_16">
      <!-- 20 -->
      <g transform="translate(120.282068182 206.038125)scale(0.12 -0.12)">
       <use xlink:href="#BitstreamVeraSans-Roman-32"/>
       <use x="63.623046875" xlink:href="#BitstreamVeraSans-Roman-30"/>
      </g>
     </g>
    </g>
    <g id="xtick_11">
     <g id="line2d_35">
      <g>
       <use style="stroke:#000000;stroke-width:0.5;" x="169.643883523" xlink:href="#m93b0483c22" y="192.92"/>
      </g>
     </g>
     <g id="line2d_36">
      <g>
       <use style="stroke:#000000;stroke-width:0.5;" x="169.643883523" xlink:href="#m741efc42ff" y="28.76"/>
      </g>
     </g>
     <g id="text_17">
      <!-- 30 -->
      <g transform="translate(162.864821023 206.038125)scale(0.12 -0.12)">
       <use xlink:href="#BitstreamVeraSans-Roman-33"/>
       <use x="63.623046875" xlink:href="#BitstreamVeraSans-Roman-30"/>
      </g>
     </g>
    </g>
    <g id="xtick_12">
     <g id="line2d_37">
      <g>
       <use style="stroke:#000000;stroke-width:0.5;" x="212.208823864" xlink:href="#m93b0483c22" y="192.92"/>
      </g>
     </g>
     <g id="line2d_38">
      <g>
       <use style="stroke:#000000;stroke-width:0.5;" x="212.208823864" xlink:href="#m741efc42ff" y="28.76"/>
      </g>
     </g>
     <g id="text_18">
      <!-- 40 -->
      <g transform="translate(205.265698864 206.038125)scale(0.12 -0.12)">
       <use xlink:href="#BitstreamVeraSans-Roman-34"/>
       <use x="63.623046875" xlink:href="#BitstreamVeraSans-Roman-30"/>
      </g>
     </g>
    </g>
    <g id="xtick_13">
     <g id="line2d_39">
      <g>
       <use style="stroke:#000000;stroke-width:0.5;" x="254.773764205" xlink:href="#m93b0483c22" y="192.92"/>
      </g>
     </g>
     <g id="line2d_40">
      <g>
       <use style="stroke:#000000;stroke-width:0.5;" x="254.773764205" xlink:href="#m741efc42ff" y="28.76"/>
      </g>
     </g>
     <g id="text_19">
      <!-- 50 -->
      <g transform="translate(248.000326705 206.038125)scale(0.12 -0.12)">
       <use xlink:href="#BitstreamVeraSans-Roman-35"/>
       <use x="63.623046875" xlink:href="#BitstreamVeraSans-Roman-30"/>
      </g>
     </g>
    </g>
   </g>
   <g id="matplotlib.axis_4">
    <g id="ytick_6">
     <g id="line2d_41">
      <g>
       <use style="stroke:#000000;stroke-width:0.5;" x="41.9490625" xlink:href="#m728421d6d4" y="177.996363636"/>
      </g>
     </g>
     <g id="line2d_42">
      <g>
       <use style="stroke:#000000;stroke-width:0.5;" x="254.773764205" xlink:href="#mcb0005524f" y="177.996363636"/>
      </g>
     </g>
     <g id="text_20">
      <!-- 0.30 -->
      <g transform="translate(12.8184375 181.307613636)scale(0.12 -0.12)">
       <use xlink:href="#BitstreamVeraSans-Roman-30"/>
       <use x="63.623046875" xlink:href="#BitstreamVeraSans-Roman-2e"/>
       <use x="95.41015625" xlink:href="#BitstreamVeraSans-Roman-33"/>
       <use x="159.033203125" xlink:href="#BitstreamVeraSans-Roman-30"/>
      </g>
     </g>
    </g>
    <g id="ytick_7">
     <g id="line2d_43">
      <g>
       <use style="stroke:#000000;stroke-width:0.5;" x="41.9490625" xlink:href="#m728421d6d4" y="140.687272727"/>
      </g>
     </g>
     <g id="line2d_44">
      <g>
       <use style="stroke:#000000;stroke-width:0.5;" x="254.773764205" xlink:href="#mcb0005524f" y="140.687272727"/>
      </g>
     </g>
     <g id="text_21">
      <!-- 0.35 -->
      <g transform="translate(13.0696875 143.998522727)scale(0.12 -0.12)">
       <use xlink:href="#BitstreamVeraSans-Roman-30"/>
       <use x="63.623046875" xlink:href="#BitstreamVeraSans-Roman-2e"/>
       <use x="95.41015625" xlink:href="#BitstreamVeraSans-Roman-33"/>
       <use x="159.033203125" xlink:href="#BitstreamVeraSans-Roman-35"/>
      </g>
     </g>
    </g>
    <g id="ytick_8">
     <g id="line2d_45">
      <g>
       <use style="stroke:#000000;stroke-width:0.5;" x="41.9490625" xlink:href="#m728421d6d4" y="103.378181818"/>
      </g>
     </g>
     <g id="line2d_46">
      <g>
       <use style="stroke:#000000;stroke-width:0.5;" x="254.773764205" xlink:href="#mcb0005524f" y="103.378181818"/>
      </g>
     </g>
     <g id="text_22">
      <!-- 0.40 -->
      <g transform="translate(12.8184375 106.689431818)scale(0.12 -0.12)">
       <use xlink:href="#BitstreamVeraSans-Roman-30"/>
       <use x="63.623046875" xlink:href="#BitstreamVeraSans-Roman-2e"/>
       <use x="95.41015625" xlink:href="#BitstreamVeraSans-Roman-34"/>
       <use x="159.033203125" xlink:href="#BitstreamVeraSans-Roman-30"/>
      </g>
     </g>
    </g>
    <g id="ytick_9">
     <g id="line2d_47">
      <g>
       <use style="stroke:#000000;stroke-width:0.5;" x="41.9490625" xlink:href="#m728421d6d4" y="66.0690909091"/>
      </g>
     </g>
     <g id="line2d_48">
      <g>
       <use style="stroke:#000000;stroke-width:0.5;" x="254.773764205" xlink:href="#mcb0005524f" y="66.0690909091"/>
      </g>
     </g>
     <g id="text_23">
      <!-- 0.45 -->
      <g transform="translate(13.0696875 69.3803409091)scale(0.12 -0.12)">
       <use xlink:href="#BitstreamVeraSans-Roman-30"/>
       <use x="63.623046875" xlink:href="#BitstreamVeraSans-Roman-2e"/>
       <use x="95.41015625" xlink:href="#BitstreamVeraSans-Roman-34"/>
       <use x="159.033203125" xlink:href="#BitstreamVeraSans-Roman-35"/>
      </g>
     </g>
    </g>
    <g id="ytick_10">
     <g id="line2d_49">
      <g>
       <use style="stroke:#000000;stroke-width:0.5;" x="41.9490625" xlink:href="#m728421d6d4" y="28.76"/>
      </g>
     </g>
     <g id="line2d_50">
      <g>
       <use style="stroke:#000000;stroke-width:0.5;" x="254.773764205" xlink:href="#mcb0005524f" y="28.76"/>
      </g>
     </g>
     <g id="text_24">
      <!-- 0.50 -->
      <g transform="translate(12.8184375 32.07125)scale(0.12 -0.12)">
       <use xlink:href="#BitstreamVeraSans-Roman-30"/>
       <use x="63.623046875" xlink:href="#BitstreamVeraSans-Roman-2e"/>
       <use x="95.41015625" xlink:href="#BitstreamVeraSans-Roman-35"/>
       <use x="159.033203125" xlink:href="#BitstreamVeraSans-Roman-30"/>
      </g>
     </g>
    </g>
   </g>
   <g id="text_25">
    <!-- Pulse in Regular Trials before Stress -->
    <defs>
     <path d="
M44.3906 34.1875
Q47.5625 33.1094 50.5625 29.5938
Q53.5625 26.0781 56.5938 19.9219
L66.6094 0
L56 0
L46.6875 18.7031
Q43.0625 26.0312 39.6719 28.4219
Q36.2812 30.8125 30.4219 30.8125
L19.6719 30.8125
L19.6719 0
L9.8125 0
L9.8125 72.9062
L32.0781 72.9062
Q44.5781 72.9062 50.7344 67.6719
Q56.8906 62.4531 56.8906 51.9062
Q56.8906 45.0156 53.6875 40.4688
Q50.4844 35.9375 44.3906 34.1875
M19.6719 64.7969
L19.6719 38.9219
L32.0781 38.9219
Q39.2031 38.9219 42.8438 42.2188
Q46.4844 45.5156 46.4844 51.9062
Q46.4844 58.2969 42.8438 61.5469
Q39.2031 64.7969 32.0781 64.7969
z
" id="BitstreamVeraSans-Roman-52"/>
     <path d="
M37.1094 75.9844
L37.1094 68.5
L28.5156 68.5
Q23.6875 68.5 21.7969 66.5469
Q19.9219 64.5938 19.9219 59.5156
L19.9219 54.6875
L34.7188 54.6875
L34.7188 47.7031
L19.9219 47.7031
L19.9219 0
L10.8906 0
L10.8906 47.7031
L2.29688 47.7031
L2.29688 54.6875
L10.8906 54.6875
L10.8906 58.5
Q10.8906 67.625 15.1406 71.7969
Q19.3906 75.9844 28.6094 75.9844
z
" id="BitstreamVeraSans-Roman-66"/>
     <path d="
M45.4062 27.9844
Q45.4062 37.75 41.375 43.1094
Q37.3594 48.4844 30.0781 48.4844
Q22.8594 48.4844 18.8281 43.1094
Q14.7969 37.75 14.7969 27.9844
Q14.7969 18.2656 18.8281 12.8906
Q22.8594 7.51562 30.0781 7.51562
Q37.3594 7.51562 41.375 12.8906
Q45.4062 18.2656 45.4062 27.9844
M54.3906 6.78125
Q54.3906 -7.17188 48.1875 -13.9844
Q42 -20.7969 29.2031 -20.7969
Q24.4688 -20.7969 20.2656 -20.0938
Q16.0625 -19.3906 12.1094 -17.9219
L12.1094 -9.1875
Q16.0625 -11.3281 19.9219 -12.3438
Q23.7812 -13.375 27.7812 -13.375
Q36.625 -13.375 41.0156 -8.76562
Q45.4062 -4.15625 45.4062 5.17188
L45.4062 9.625
Q42.625 4.78125 38.2812 2.39062
Q33.9375 0 27.875 0
Q17.8281 0 11.6719 7.65625
Q5.51562 15.3281 5.51562 27.9844
Q5.51562 40.6719 11.6719 48.3281
Q17.8281 56 27.875 56
Q33.9375 56 38.2812 53.6094
Q42.625 51.2188 45.4062 46.3906
L45.4062 54.6875
L54.3906 54.6875
z
" id="BitstreamVeraSans-Roman-67"/>
     <path d="
M30.6094 48.3906
Q23.3906 48.3906 19.1875 42.75
Q14.9844 37.1094 14.9844 27.2969
Q14.9844 17.4844 19.1562 11.8438
Q23.3438 6.20312 30.6094 6.20312
Q37.7969 6.20312 41.9844 11.8594
Q46.1875 17.5312 46.1875 27.2969
Q46.1875 37.0156 41.9844 42.7031
Q37.7969 48.3906 30.6094 48.3906
M30.6094 56
Q42.3281 56 49.0156 48.375
Q55.7188 40.7656 55.7188 27.2969
Q55.7188 13.875 49.0156 6.21875
Q42.3281 -1.42188 30.6094 -1.42188
Q18.8438 -1.42188 12.1719 6.21875
Q5.51562 13.875 5.51562 27.2969
Q5.51562 40.7656 12.1719 48.375
Q18.8438 56 30.6094 56" id="BitstreamVeraSans-Roman-6f"/>
     <path d="
M48.6875 27.2969
Q48.6875 37.2031 44.6094 42.8438
Q40.5312 48.4844 33.4062 48.4844
Q26.2656 48.4844 22.1875 42.8438
Q18.1094 37.2031 18.1094 27.2969
Q18.1094 17.3906 22.1875 11.75
Q26.2656 6.10938 33.4062 6.10938
Q40.5312 6.10938 44.6094 11.75
Q48.6875 17.3906 48.6875 27.2969
M18.1094 46.3906
Q20.9531 51.2656 25.2656 53.625
Q29.5938 56 35.5938 56
Q45.5625 56 51.7812 48.0938
Q58.0156 40.1875 58.0156 27.2969
Q58.0156 14.4062 51.7812 6.48438
Q45.5625 -1.42188 35.5938 -1.42188
Q29.5938 -1.42188 25.2656 0.953125
Q20.9531 3.32812 18.1094 8.20312
L18.1094 0
L9.07812 0
L9.07812 75.9844
L18.1094 75.9844
z
" id="BitstreamVeraSans-Roman-62"/>
    </defs>
    <g transform="translate(20.3814133523 23.76)scale(0.144 -0.144)">
     <use xlink:href="#BitstreamVeraSans-Roman-50"/>
     <use x="58.552734375" xlink:href="#BitstreamVeraSans-Roman-75"/>
     <use x="121.931640625" xlink:href="#BitstreamVeraSans-Roman-6c"/>
     <use x="149.71484375" xlink:href="#BitstreamVeraSans-Roman-73"/>
     <use x="201.814453125" xlink:href="#BitstreamVeraSans-Roman-65"/>
     <use x="263.337890625" xlink:href="#BitstreamVeraSans-Roman-20"/>
     <use x="295.125" xlink:href="#BitstreamVeraSans-Roman-69"/>
     <use x="322.908203125" xlink:href="#BitstreamVeraSans-Roman-6e"/>
     <use x="386.287109375" xlink:href="#BitstreamVeraSans-Roman-20"/>
     <use x="418.07421875" xlink:href="#BitstreamVeraSans-Roman-52"/>
     <use x="483.056640625" xlink:href="#BitstreamVeraSans-Roman-65"/>
     <use x="544.580078125" xlink:href="#BitstreamVeraSans-Roman-67"/>
     <use x="608.056640625" xlink:href="#BitstreamVeraSans-Roman-75"/>
     <use x="671.435546875" xlink:href="#BitstreamVeraSans-Roman-6c"/>
     <use x="699.21875" xlink:href="#BitstreamVeraSans-Roman-61"/>
     <use x="760.498046875" xlink:href="#BitstreamVeraSans-Roman-72"/>
     <use x="801.611328125" xlink:href="#BitstreamVeraSans-Roman-20"/>
     <use x="833.3984375" xlink:href="#BitstreamVeraSans-Roman-54"/>
     <use x="879.732421875" xlink:href="#BitstreamVeraSans-Roman-72"/>
     <use x="920.845703125" xlink:href="#BitstreamVeraSans-Roman-69"/>
     <use x="948.62890625" xlink:href="#BitstreamVeraSans-Roman-61"/>
     <use x="1009.90820312" xlink:href="#BitstreamVeraSans-Roman-6c"/>
     <use x="1037.69140625" xlink:href="#BitstreamVeraSans-Roman-73"/>
     <use x="1089.79101562" xlink:href="#BitstreamVeraSans-Roman-20"/>
     <use x="1121.578125" xlink:href="#BitstreamVeraSans-Roman-62"/>
     <use x="1185.0546875" xlink:href="#BitstreamVeraSans-Roman-65"/>
     <use x="1246.578125" xlink:href="#BitstreamVeraSans-Roman-66"/>
     <use x="1281.78320312" xlink:href="#BitstreamVeraSans-Roman-6f"/>
     <use x="1342.96484375" xlink:href="#BitstreamVeraSans-Roman-72"/>
     <use x="1381.828125" xlink:href="#BitstreamVeraSans-Roman-65"/>
     <use x="1443.3515625" xlink:href="#BitstreamVeraSans-Roman-20"/>
     <use x="1475.13867188" xlink:href="#BitstreamVeraSans-Roman-53"/>
     <use x="1538.61523438" xlink:href="#BitstreamVeraSans-Roman-74"/>
     <use x="1577.82421875" xlink:href="#BitstreamVeraSans-Roman-72"/>
     <use x="1616.6875" xlink:href="#BitstreamVeraSans-Roman-65"/>
     <use x="1678.2109375" xlink:href="#BitstreamVeraSans-Roman-73"/>
     <use x="1730.31054688" xlink:href="#BitstreamVeraSans-Roman-73"/>
    </g>
   </g>
  </g>
  <g id="axes_3">
   <g id="patch_12">
    <path d="
M323.469 402.44
L536.294 402.44
L536.294 238.28
L323.469 238.28
z
" style="fill:#ffffff;"/>
   </g>
   <g id="line2d_51">
    <path clip-path="url(#p13eebda5b1)" d="
M325.834 321.418
L328.199 344.489
L330.563 312.642
L332.928 307.715
L335.293 306.678
L337.657 311.848
L340.022 334.098
L342.387 307.161
L344.752 314.118
L347.116 316.423
L349.481 343.456
L351.846 321.872
L354.21 312.654
L356.575 326.335
L358.94 319.742
L361.305 312.63
L363.669 339.477
L366.034 309.647
L368.399 326.696
L370.763 331.408
L373.128 328.393
L375.493 324.918
L377.858 320.405
L380.222 338.108
L382.587 312.948
L384.952 319.085
L387.316 313.478
L389.681 225.291
L392.046 308.355
L394.411 329.662
L396.775 344.612
L399.14 315.864
L401.505 326.722
L403.87 307.666
L406.234 316.249
L408.599 316.941
L410.964 313.95
L413.328 338.303
L415.693 298.962
L418.058 308.18
L420.423 316.941
L422.787 348.972
L425.152 300.356
L427.517 319.183
L429.881 329.074
L432.246 310.038
L434.611 322.044
L436.976 320.161
M441.705 316.004
L444.07 321.428
M448.799 313.641
L451.164 319.043
L453.529 307.609
L455.893 307.715
L458.258 306.224
L460.623 327.741
L462.987 313.722
L465.352 325.184
L467.717 323.706
L470.082 307.177
L472.446 320.222
L474.811 350.643
L477.176 333.511
L479.541 347.75
L481.905 316.982
L484.27 313.226
L486.635 325.173
L488.999 327.203
L491.364 308.4
L493.729 340.874
L496.094 328.841
L498.458 326.029
L500.823 318.889
L503.188 315.197
L505.552 307.609
L507.917 328.963
L510.282 331.245
L512.647 304.268
L515.011 299.092
L517.376 327.863
L519.741 301.383
M524.47 313.987
L526.835 323.784
L529.2 323.184
L531.564 317.765
L533.929 321.663
L536.294 400.115" style="fill:none;stroke:#ff0000;stroke-linecap:square;"/>
   </g>
   <g id="line2d_52">
    <path clip-path="url(#p13eebda5b1)" d="
M325.834 317.04
L328.199 317.112
L330.563 317.184
L332.928 317.256
L335.293 317.328
L337.657 317.401
L340.022 317.473
L342.387 317.545
L344.752 317.617
L347.116 317.689
L349.481 317.762
L351.846 317.834
L354.21 317.906
L356.575 317.978
L358.94 318.05
L361.305 318.123
L363.669 318.195
L366.034 318.267
L368.399 318.339
L370.763 318.411
L373.128 318.483
L375.493 318.556
L377.858 318.628
L380.222 318.7
L382.587 318.772
L384.952 318.844
L387.316 318.917
L389.681 318.989
L392.046 319.061
L394.411 319.133
L396.775 319.205
L399.14 319.278
L401.505 319.35
L403.87 319.422
L406.234 319.494
L408.599 319.566
L410.964 319.638
L413.328 319.711
L415.693 319.783
L418.058 319.855
L420.423 319.927
L422.787 319.999
L425.152 320.072
L427.517 320.144
L429.881 320.216
L432.246 320.288
L434.611 320.36
L436.976 320.433
L439.34 320.505
L441.705 320.577
L444.07 320.649
L446.434 320.721
L448.799 320.793
L451.164 320.866
L453.529 320.938
L455.893 321.01
L458.258 321.082
L460.623 321.154
L462.987 321.227
L465.352 321.299
L467.717 321.371
L470.082 321.443
L472.446 321.515
L474.811 321.587
L477.176 321.66
L479.541 321.732
L481.905 321.804
L484.27 321.876
L486.635 321.948
L488.999 322.021
L491.364 322.093
L493.729 322.165
L496.094 322.237
L498.458 322.309
L500.823 322.382
L503.188 322.454
L505.552 322.526
L507.917 322.598
L510.282 322.67
L512.647 322.742
L515.011 322.815
L517.376 322.887
L519.741 322.959
L522.105 323.031
L524.47 323.103
L526.835 323.176
L529.2 323.248" style="fill:none;stroke:#ff0000;stroke-dasharray:6.000000,6.000000;stroke-dashoffset:0.0;"/>
   </g>
   <g id="patch_13">
    <path d="
M323.469 238.28
L536.294 238.28" style="fill:none;stroke:#000000;stroke-linecap:square;stroke-linejoin:miter;"/>
   </g>
   <g id="patch_14">
    <path d="
M536.294 402.44
L536.294 238.28" style="fill:none;stroke:#000000;stroke-linecap:square;stroke-linejoin:miter;"/>
   </g>
   <g id="patch_15">
    <path d="
M323.469 402.44
L536.294 402.44" style="fill:none;stroke:#000000;stroke-linecap:square;stroke-linejoin:miter;"/>
   </g>
   <g id="patch_16">
    <path d="
M323.469 402.44
L323.469 238.28" style="fill:none;stroke:#000000;stroke-linecap:square;stroke-linejoin:miter;"/>
   </g>
   <g id="matplotlib.axis_5">
    <g id="xtick_14">
     <g id="line2d_53">
      <g>
       <use style="stroke:#000000;stroke-width:0.5;" x="323.4690625" xlink:href="#m93b0483c22" y="402.44"/>
      </g>
     </g>
     <g id="line2d_54">
      <g>
       <use style="stroke:#000000;stroke-width:0.5;" x="323.4690625" xlink:href="#m741efc42ff" y="238.28"/>
      </g>
     </g>
     <g id="text_26">
      <!-- 0 -->
      <g transform="translate(320.445625 415.558125)scale(0.12 -0.12)">
       <use xlink:href="#BitstreamVeraSans-Roman-30"/>
      </g>
     </g>
    </g>
    <g id="xtick_15">
     <g id="line2d_55">
      <g>
       <use style="stroke:#000000;stroke-width:0.5;" x="347.116251578" xlink:href="#m93b0483c22" y="402.44"/>
      </g>
     </g>
     <g id="line2d_56">
      <g>
       <use style="stroke:#000000;stroke-width:0.5;" x="347.116251578" xlink:href="#m741efc42ff" y="238.28"/>
      </g>
     </g>
     <g id="text_27">
      <!-- 10 -->
      <g transform="translate(340.538751578 415.558125)scale(0.12 -0.12)">
       <use xlink:href="#BitstreamVeraSans-Roman-31"/>
       <use x="63.623046875" xlink:href="#BitstreamVeraSans-Roman-30"/>
      </g>
     </g>
    </g>
    <g id="xtick_16">
     <g id="line2d_57">
      <g>
       <use style="stroke:#000000;stroke-width:0.5;" x="370.763440657" xlink:href="#m93b0483c22" y="402.44"/>
      </g>
     </g>
     <g id="line2d_58">
      <g>
       <use style="stroke:#000000;stroke-width:0.5;" x="370.763440657" xlink:href="#m741efc42ff" y="238.28"/>
      </g>
     </g>
     <g id="text_28">
      <!-- 20 -->
      <g transform="translate(363.966565657 415.558125)scale(0.12 -0.12)">
       <use xlink:href="#BitstreamVeraSans-Roman-32"/>
       <use x="63.623046875" xlink:href="#BitstreamVeraSans-Roman-30"/>
      </g>
     </g>
    </g>
    <g id="xtick_17">
     <g id="line2d_59">
      <g>
       <use style="stroke:#000000;stroke-width:0.5;" x="394.410629735" xlink:href="#m93b0483c22" y="402.44"/>
      </g>
     </g>
     <g id="line2d_60">
      <g>
       <use style="stroke:#000000;stroke-width:0.5;" x="394.410629735" xlink:href="#m741efc42ff" y="238.28"/>
      </g>
     </g>
     <g id="text_29">
      <!-- 30 -->
      <g transform="translate(387.631567235 415.558125)scale(0.12 -0.12)">
       <use xlink:href="#BitstreamVeraSans-Roman-33"/>
       <use x="63.623046875" xlink:href="#BitstreamVeraSans-Roman-30"/>
      </g>
     </g>
    </g>
    <g id="xtick_18">
     <g id="line2d_61">
      <g>
       <use style="stroke:#000000;stroke-width:0.5;" x="418.057818813" xlink:href="#m93b0483c22" y="402.44"/>
      </g>
     </g>
     <g id="line2d_62">
      <g>
       <use style="stroke:#000000;stroke-width:0.5;" x="418.057818813" xlink:href="#m741efc42ff" y="238.28"/>
      </g>
     </g>
     <g id="text_30">
      <!-- 40 -->
      <g transform="translate(411.114693813 415.558125)scale(0.12 -0.12)">
       <use xlink:href="#BitstreamVeraSans-Roman-34"/>
       <use x="63.623046875" xlink:href="#BitstreamVeraSans-Roman-30"/>
      </g>
     </g>
    </g>
    <g id="xtick_19">
     <g id="line2d_63">
      <g>
       <use style="stroke:#000000;stroke-width:0.5;" x="441.705007891" xlink:href="#m93b0483c22" y="402.44"/>
      </g>
     </g>
     <g id="line2d_64">
      <g>
       <use style="stroke:#000000;stroke-width:0.5;" x="441.705007891" xlink:href="#m741efc42ff" y="238.28"/>
      </g>
     </g>
     <g id="text_31">
      <!-- 50 -->
      <g transform="translate(434.931570391 415.558125)scale(0.12 -0.12)">
       <use xlink:href="#BitstreamVeraSans-Roman-35"/>
       <use x="63.623046875" xlink:href="#BitstreamVeraSans-Roman-30"/>
      </g>
     </g>
    </g>
    <g id="xtick_20">
     <g id="line2d_65">
      <g>
       <use style="stroke:#000000;stroke-width:0.5;" x="465.35219697" xlink:href="#m93b0483c22" y="402.44"/>
      </g>
     </g>
     <g id="line2d_66">
      <g>
       <use style="stroke:#000000;stroke-width:0.5;" x="465.35219697" xlink:href="#m741efc42ff" y="238.28"/>
      </g>
     </g>
     <g id="text_32">
      <!-- 60 -->
      <g transform="translate(458.53469697 415.558125)scale(0.12 -0.12)">
       <use xlink:href="#BitstreamVeraSans-Roman-36"/>
       <use x="63.623046875" xlink:href="#BitstreamVeraSans-Roman-30"/>
      </g>
     </g>
    </g>
    <g id="xtick_21">
     <g id="line2d_67">
      <g>
       <use style="stroke:#000000;stroke-width:0.5;" x="488.999386048" xlink:href="#m93b0483c22" y="402.44"/>
      </g>
     </g>
     <g id="line2d_68">
      <g>
       <use style="stroke:#000000;stroke-width:0.5;" x="488.999386048" xlink:href="#m741efc42ff" y="238.28"/>
      </g>
     </g>
     <g id="text_33">
      <!-- 70 -->
      <defs>
       <path d="
M8.20312 72.9062
L55.0781 72.9062
L55.0781 68.7031
L28.6094 0
L18.3125 0
L43.2188 64.5938
L8.20312 64.5938
z
" id="BitstreamVeraSans-Roman-37"/>
      </defs>
      <g transform="translate(482.255011048 415.558125)scale(0.12 -0.12)">
       <use xlink:href="#BitstreamVeraSans-Roman-37"/>
       <use x="63.623046875" xlink:href="#BitstreamVeraSans-Roman-30"/>
      </g>
     </g>
    </g>
    <g id="xtick_22">
     <g id="line2d_69">
      <g>
       <use style="stroke:#000000;stroke-width:0.5;" x="512.646575126" xlink:href="#m93b0483c22" y="402.44"/>
      </g>
     </g>
     <g id="line2d_70">
      <g>
       <use style="stroke:#000000;stroke-width:0.5;" x="512.646575126" xlink:href="#m741efc42ff" y="238.28"/>
      </g>
     </g>
     <g id="text_34">
      <!-- 80 -->
      <defs>
       <path d="
M31.7812 34.625
Q24.75 34.625 20.7188 30.8594
Q16.7031 27.0938 16.7031 20.5156
Q16.7031 13.9219 20.7188 10.1562
Q24.75 6.39062 31.7812 6.39062
Q38.8125 6.39062 42.8594 10.1719
Q46.9219 13.9688 46.9219 20.5156
Q46.9219 27.0938 42.8906 30.8594
Q38.875 34.625 31.7812 34.625
M21.9219 38.8125
Q15.5781 40.375 12.0312 44.7188
Q8.5 49.0781 8.5 55.3281
Q8.5 64.0625 14.7188 69.1406
Q20.9531 74.2188 31.7812 74.2188
Q42.6719 74.2188 48.875 69.1406
Q55.0781 64.0625 55.0781 55.3281
Q55.0781 49.0781 51.5312 44.7188
Q48 40.375 41.7031 38.8125
Q48.8281 37.1562 52.7969 32.3125
Q56.7812 27.4844 56.7812 20.5156
Q56.7812 9.90625 50.3125 4.23438
Q43.8438 -1.42188 31.7812 -1.42188
Q19.7344 -1.42188 13.25 4.23438
Q6.78125 9.90625 6.78125 20.5156
Q6.78125 27.4844 10.7812 32.3125
Q14.7969 37.1562 21.9219 38.8125
M18.3125 54.3906
Q18.3125 48.7344 21.8438 45.5625
Q25.3906 42.3906 31.7812 42.3906
Q38.1406 42.3906 41.7188 45.5625
Q45.3125 48.7344 45.3125 54.3906
Q45.3125 60.0625 41.7188 63.2344
Q38.1406 66.4062 31.7812 66.4062
Q25.3906 66.4062 21.8438 63.2344
Q18.3125 60.0625 18.3125 54.3906" id="BitstreamVeraSans-Roman-38"/>
      </defs>
      <g transform="translate(505.816887626 415.558125)scale(0.12 -0.12)">
       <use xlink:href="#BitstreamVeraSans-Roman-38"/>
       <use x="63.623046875" xlink:href="#BitstreamVeraSans-Roman-30"/>
      </g>
     </g>
    </g>
    <g id="xtick_23">
     <g id="line2d_71">
      <g>
       <use style="stroke:#000000;stroke-width:0.5;" x="536.293764205" xlink:href="#m93b0483c22" y="402.44"/>
      </g>
     </g>
     <g id="line2d_72">
      <g>
       <use style="stroke:#000000;stroke-width:0.5;" x="536.293764205" xlink:href="#m741efc42ff" y="238.28"/>
      </g>
     </g>
     <g id="text_35">
      <!-- 90 -->
      <defs>
       <path d="
M10.9844 1.51562
L10.9844 10.5
Q14.7031 8.73438 18.5 7.8125
Q22.3125 6.89062 25.9844 6.89062
Q35.75 6.89062 40.8906 13.4531
Q46.0469 20.0156 46.7812 33.4062
Q43.9531 29.2031 39.5938 26.9531
Q35.25 24.7031 29.9844 24.7031
Q19.0469 24.7031 12.6719 31.3125
Q6.29688 37.9375 6.29688 49.4219
Q6.29688 60.6406 12.9375 67.4219
Q19.5781 74.2188 30.6094 74.2188
Q43.2656 74.2188 49.9219 64.5156
Q56.5938 54.8281 56.5938 36.375
Q56.5938 19.1406 48.4062 8.85938
Q40.2344 -1.42188 26.4219 -1.42188
Q22.7031 -1.42188 18.8906 -0.6875
Q15.0938 0.046875 10.9844 1.51562
M30.6094 32.4219
Q37.25 32.4219 41.125 36.9531
Q45.0156 41.5 45.0156 49.4219
Q45.0156 57.2812 41.125 61.8438
Q37.25 66.4062 30.6094 66.4062
Q23.9688 66.4062 20.0938 61.8438
Q16.2188 57.2812 16.2188 49.4219
Q16.2188 41.5 20.0938 36.9531
Q23.9688 32.4219 30.6094 32.4219" id="BitstreamVeraSans-Roman-39"/>
      </defs>
      <g transform="translate(529.435014205 415.558125)scale(0.12 -0.12)">
       <use xlink:href="#BitstreamVeraSans-Roman-39"/>
       <use x="63.623046875" xlink:href="#BitstreamVeraSans-Roman-30"/>
      </g>
     </g>
    </g>
   </g>
   <g id="matplotlib.axis_6">
    <g id="ytick_11">
     <g id="line2d_73">
      <g>
       <use style="stroke:#000000;stroke-width:0.5;" x="323.4690625" xlink:href="#m728421d6d4" y="387.516363636"/>
      </g>
     </g>
     <g id="line2d_74">
      <g>
       <use style="stroke:#000000;stroke-width:0.5;" x="536.293764205" xlink:href="#mcb0005524f" y="387.516363636"/>
      </g>
     </g>
     <g id="text_36">
      <!-- 0.30 -->
      <g transform="translate(294.3384375 390.827613636)scale(0.12 -0.12)">
       <use xlink:href="#BitstreamVeraSans-Roman-30"/>
       <use x="63.623046875" xlink:href="#BitstreamVeraSans-Roman-2e"/>
       <use x="95.41015625" xlink:href="#BitstreamVeraSans-Roman-33"/>
       <use x="159.033203125" xlink:href="#BitstreamVeraSans-Roman-30"/>
      </g>
     </g>
    </g>
    <g id="ytick_12">
     <g id="line2d_75">
      <g>
       <use style="stroke:#000000;stroke-width:0.5;" x="323.4690625" xlink:href="#m728421d6d4" y="350.207272727"/>
      </g>
     </g>
     <g id="line2d_76">
      <g>
       <use style="stroke:#000000;stroke-width:0.5;" x="536.293764205" xlink:href="#mcb0005524f" y="350.207272727"/>
      </g>
     </g>
     <g id="text_37">
      <!-- 0.35 -->
      <g transform="translate(294.5896875 353.518522727)scale(0.12 -0.12)">
       <use xlink:href="#BitstreamVeraSans-Roman-30"/>
       <use x="63.623046875" xlink:href="#BitstreamVeraSans-Roman-2e"/>
       <use x="95.41015625" xlink:href="#BitstreamVeraSans-Roman-33"/>
       <use x="159.033203125" xlink:href="#BitstreamVeraSans-Roman-35"/>
      </g>
     </g>
    </g>
    <g id="ytick_13">
     <g id="line2d_77">
      <g>
       <use style="stroke:#000000;stroke-width:0.5;" x="323.4690625" xlink:href="#m728421d6d4" y="312.898181818"/>
      </g>
     </g>
     <g id="line2d_78">
      <g>
       <use style="stroke:#000000;stroke-width:0.5;" x="536.293764205" xlink:href="#mcb0005524f" y="312.898181818"/>
      </g>
     </g>
     <g id="text_38">
      <!-- 0.40 -->
      <g transform="translate(294.3384375 316.209431818)scale(0.12 -0.12)">
       <use xlink:href="#BitstreamVeraSans-Roman-30"/>
       <use x="63.623046875" xlink:href="#BitstreamVeraSans-Roman-2e"/>
       <use x="95.41015625" xlink:href="#BitstreamVeraSans-Roman-34"/>
       <use x="159.033203125" xlink:href="#BitstreamVeraSans-Roman-30"/>
      </g>
     </g>
    </g>
    <g id="ytick_14">
     <g id="line2d_79">
      <g>
       <use style="stroke:#000000;stroke-width:0.5;" x="323.4690625" xlink:href="#m728421d6d4" y="275.589090909"/>
      </g>
     </g>
     <g id="line2d_80">
      <g>
       <use style="stroke:#000000;stroke-width:0.5;" x="536.293764205" xlink:href="#mcb0005524f" y="275.589090909"/>
      </g>
     </g>
     <g id="text_39">
      <!-- 0.45 -->
      <g transform="translate(294.5896875 278.900340909)scale(0.12 -0.12)">
       <use xlink:href="#BitstreamVeraSans-Roman-30"/>
       <use x="63.623046875" xlink:href="#BitstreamVeraSans-Roman-2e"/>
       <use x="95.41015625" xlink:href="#BitstreamVeraSans-Roman-34"/>
       <use x="159.033203125" xlink:href="#BitstreamVeraSans-Roman-35"/>
      </g>
     </g>
    </g>
    <g id="ytick_15">
     <g id="line2d_81">
      <g>
       <use style="stroke:#000000;stroke-width:0.5;" x="323.4690625" xlink:href="#m728421d6d4" y="238.28"/>
      </g>
     </g>
     <g id="line2d_82">
      <g>
       <use style="stroke:#000000;stroke-width:0.5;" x="536.293764205" xlink:href="#mcb0005524f" y="238.28"/>
      </g>
     </g>
     <g id="text_40">
      <!-- 0.50 -->
      <g transform="translate(294.3384375 241.59125)scale(0.12 -0.12)">
       <use xlink:href="#BitstreamVeraSans-Roman-30"/>
       <use x="63.623046875" xlink:href="#BitstreamVeraSans-Roman-2e"/>
       <use x="95.41015625" xlink:href="#BitstreamVeraSans-Roman-35"/>
       <use x="159.033203125" xlink:href="#BitstreamVeraSans-Roman-30"/>
      </g>
     </g>
    </g>
   </g>
   <g id="text_41">
    <!-- Pulse in Stress Trials -->
    <g transform="translate(357.262663352 233.28)scale(0.144 -0.144)">
     <use xlink:href="#BitstreamVeraSans-Roman-50"/>
     <use x="58.552734375" xlink:href="#BitstreamVeraSans-Roman-75"/>
     <use x="121.931640625" xlink:href="#BitstreamVeraSans-Roman-6c"/>
     <use x="149.71484375" xlink:href="#BitstreamVeraSans-Roman-73"/>
     <use x="201.814453125" xlink:href="#BitstreamVeraSans-Roman-65"/>
     <use x="263.337890625" xlink:href="#BitstreamVeraSans-Roman-20"/>
     <use x="295.125" xlink:href="#BitstreamVeraSans-Roman-69"/>
     <use x="322.908203125" xlink:href="#BitstreamVeraSans-Roman-6e"/>
     <use x="386.287109375" xlink:href="#BitstreamVeraSans-Roman-20"/>
     <use x="418.07421875" xlink:href="#BitstreamVeraSans-Roman-53"/>
     <use x="481.55078125" xlink:href="#BitstreamVeraSans-Roman-74"/>
     <use x="520.759765625" xlink:href="#BitstreamVeraSans-Roman-72"/>
     <use x="559.623046875" xlink:href="#BitstreamVeraSans-Roman-65"/>
     <use x="621.146484375" xlink:href="#BitstreamVeraSans-Roman-73"/>
     <use x="673.24609375" xlink:href="#BitstreamVeraSans-Roman-73"/>
     <use x="725.345703125" xlink:href="#BitstreamVeraSans-Roman-20"/>
     <use x="757.1328125" xlink:href="#BitstreamVeraSans-Roman-54"/>
     <use x="803.466796875" xlink:href="#BitstreamVeraSans-Roman-72"/>
     <use x="844.580078125" xlink:href="#BitstreamVeraSans-Roman-69"/>
     <use x="872.36328125" xlink:href="#BitstreamVeraSans-Roman-61"/>
     <use x="933.642578125" xlink:href="#BitstreamVeraSans-Roman-6c"/>
     <use x="961.42578125" xlink:href="#BitstreamVeraSans-Roman-73"/>
    </g>
   </g>
  </g>
  <g id="axes_4">
   <g id="patch_17">
    <path d="
M323.469 192.92
L536.294 192.92
L536.294 28.76
L323.469 28.76
z
" style="fill:#ffffff;"/>
   </g>
   <g id="line2d_83">
    <path clip-path="url(#pe160646a53)" d="
M327.016 80.3218
L330.563 104.664
L334.11 105.588
L337.657 110.117
L341.204 93.8105
L344.752 94.3077
L348.299 137.048
L351.846 102.782
L355.393 108.863
L358.94 93.9837
L362.487 114.037
L366.034 91.8544
L369.581 90.9579
L373.128 119.513
L376.675 114.553
L380.222 98.1302
L383.769 112.016
L387.316 94.6161
L390.864 91.8544
L394.411 98.9044
L397.958 139.676
L401.505 122.72
L405.052 116.411
L408.599 136
L412.146 89.8169
L415.693 116.558
L419.24 122.948
L422.787 96.2498
L426.334 80.713
L429.881 92.914
L433.428 88.5943
L436.976 113.942
L440.523 101.985
L444.07 137.048
L447.617 119.688
L451.164 99.964
L454.711 82.18
L458.258 86.7197
L461.805 105.832
L465.352 84.5395
L468.899 123.315
L472.446 103.375
L475.993 88.2438
L479.541 98.7414
L483.088 104.447
L486.635 94.1365
L490.182 104.712
L493.729 100.812
L497.276 105.778
L500.823 115.317
L504.37 98.9859
L507.917 106.674
L511.464 119.769" style="fill:none;stroke:#0000ff;stroke-linecap:square;"/>
   </g>
   <g id="line2d_84">
    <path clip-path="url(#pe160646a53)" d="
M327.016 105.167
L330.563 105.154
L334.11 105.142
L337.657 105.129
L341.204 105.117
L344.752 105.105
L348.299 105.092
L351.846 105.08
L355.393 105.067
L358.94 105.055
L362.487 105.043
L366.034 105.03
L369.581 105.018
L373.128 105.005
L376.675 104.993
L380.222 104.98
L383.769 104.968
L387.316 104.956
L390.864 104.943
L394.411 104.931
L397.958 104.918
L401.505 104.906
L405.052 104.894
L408.599 104.881
L412.146 104.869
L415.693 104.856
L419.24 104.844
L422.787 104.831
L426.334 104.819
L429.881 104.807
L433.428 104.794
L436.976 104.782
L440.523 104.769
L444.07 104.757
L447.617 104.745
L451.164 104.732
L454.711 104.72
L458.258 104.707
L461.805 104.695
L465.352 104.682
L468.899 104.67
L472.446 104.658
L475.993 104.645
L479.541 104.633
L483.088 104.62
L486.635 104.608
L490.182 104.596
L493.729 104.583
L497.276 104.571
L500.823 104.558
L504.37 104.546
L507.917 104.533
L511.464 104.521" style="fill:none;stroke:#0000ff;stroke-dasharray:6.000000,6.000000;stroke-dashoffset:0.0;"/>
   </g>
   <g id="patch_18">
    <path d="
M323.469 28.76
L536.294 28.76" style="fill:none;stroke:#000000;stroke-linecap:square;stroke-linejoin:miter;"/>
   </g>
   <g id="patch_19">
    <path d="
M536.294 192.92
L536.294 28.76" style="fill:none;stroke:#000000;stroke-linecap:square;stroke-linejoin:miter;"/>
   </g>
   <g id="patch_20">
    <path d="
M323.469 192.92
L536.294 192.92" style="fill:none;stroke:#000000;stroke-linecap:square;stroke-linejoin:miter;"/>
   </g>
   <g id="patch_21">
    <path d="
M323.469 192.92
L323.469 28.76" style="fill:none;stroke:#000000;stroke-linecap:square;stroke-linejoin:miter;"/>
   </g>
   <g id="matplotlib.axis_7">
    <g id="xtick_24">
     <g id="line2d_85">
      <g>
       <use style="stroke:#000000;stroke-width:0.5;" x="323.4690625" xlink:href="#m93b0483c22" y="192.92"/>
      </g>
     </g>
     <g id="line2d_86">
      <g>
       <use style="stroke:#000000;stroke-width:0.5;" x="323.4690625" xlink:href="#m741efc42ff" y="28.76"/>
      </g>
     </g>
     <g id="text_42">
      <!-- 0 -->
      <g transform="translate(320.445625 206.038125)scale(0.12 -0.12)">
       <use xlink:href="#BitstreamVeraSans-Roman-30"/>
      </g>
     </g>
    </g>
    <g id="xtick_25">
     <g id="line2d_87">
      <g>
       <use style="stroke:#000000;stroke-width:0.5;" x="358.939846117" xlink:href="#m93b0483c22" y="192.92"/>
      </g>
     </g>
     <g id="line2d_88">
      <g>
       <use style="stroke:#000000;stroke-width:0.5;" x="358.939846117" xlink:href="#m741efc42ff" y="28.76"/>
      </g>
     </g>
     <g id="text_43">
      <!-- 10 -->
      <g transform="translate(352.362346117 206.038125)scale(0.12 -0.12)">
       <use xlink:href="#BitstreamVeraSans-Roman-31"/>
       <use x="63.623046875" xlink:href="#BitstreamVeraSans-Roman-30"/>
      </g>
     </g>
    </g>
    <g id="xtick_26">
     <g id="line2d_89">
      <g>
       <use style="stroke:#000000;stroke-width:0.5;" x="394.410629735" xlink:href="#m93b0483c22" y="192.92"/>
      </g>
     </g>
     <g id="line2d_90">
      <g>
       <use style="stroke:#000000;stroke-width:0.5;" x="394.410629735" xlink:href="#m741efc42ff" y="28.76"/>
      </g>
     </g>
     <g id="text_44">
      <!-- 20 -->
      <g transform="translate(387.613754735 206.038125)scale(0.12 -0.12)">
       <use xlink:href="#BitstreamVeraSans-Roman-32"/>
       <use x="63.623046875" xlink:href="#BitstreamVeraSans-Roman-30"/>
      </g>
     </g>
    </g>
    <g id="xtick_27">
     <g id="line2d_91">
      <g>
       <use style="stroke:#000000;stroke-width:0.5;" x="429.881413352" xlink:href="#m93b0483c22" y="192.92"/>
      </g>
     </g>
     <g id="line2d_92">
      <g>
       <use style="stroke:#000000;stroke-width:0.5;" x="429.881413352" xlink:href="#m741efc42ff" y="28.76"/>
      </g>
     </g>
     <g id="text_45">
      <!-- 30 -->
      <g transform="translate(423.102350852 206.038125)scale(0.12 -0.12)">
       <use xlink:href="#BitstreamVeraSans-Roman-33"/>
       <use x="63.623046875" xlink:href="#BitstreamVeraSans-Roman-30"/>
      </g>
     </g>
    </g>
    <g id="xtick_28">
     <g id="line2d_93">
      <g>
       <use style="stroke:#000000;stroke-width:0.5;" x="465.35219697" xlink:href="#m93b0483c22" y="192.92"/>
      </g>
     </g>
     <g id="line2d_94">
      <g>
       <use style="stroke:#000000;stroke-width:0.5;" x="465.35219697" xlink:href="#m741efc42ff" y="28.76"/>
      </g>
     </g>
     <g id="text_46">
      <!-- 40 -->
      <g transform="translate(458.40907197 206.038125)scale(0.12 -0.12)">
       <use xlink:href="#BitstreamVeraSans-Roman-34"/>
       <use x="63.623046875" xlink:href="#BitstreamVeraSans-Roman-30"/>
      </g>
     </g>
    </g>
    <g id="xtick_29">
     <g id="line2d_95">
      <g>
       <use style="stroke:#000000;stroke-width:0.5;" x="500.822980587" xlink:href="#m93b0483c22" y="192.92"/>
      </g>
     </g>
     <g id="line2d_96">
      <g>
       <use style="stroke:#000000;stroke-width:0.5;" x="500.822980587" xlink:href="#m741efc42ff" y="28.76"/>
      </g>
     </g>
     <g id="text_47">
      <!-- 50 -->
      <g transform="translate(494.049543087 206.038125)scale(0.12 -0.12)">
       <use xlink:href="#BitstreamVeraSans-Roman-35"/>
       <use x="63.623046875" xlink:href="#BitstreamVeraSans-Roman-30"/>
      </g>
     </g>
    </g>
    <g id="xtick_30">
     <g id="line2d_97">
      <g>
       <use style="stroke:#000000;stroke-width:0.5;" x="536.293764205" xlink:href="#m93b0483c22" y="192.92"/>
      </g>
     </g>
     <g id="line2d_98">
      <g>
       <use style="stroke:#000000;stroke-width:0.5;" x="536.293764205" xlink:href="#m741efc42ff" y="28.76"/>
      </g>
     </g>
     <g id="text_48">
      <!-- 60 -->
      <g transform="translate(529.476264205 206.038125)scale(0.12 -0.12)">
       <use xlink:href="#BitstreamVeraSans-Roman-36"/>
       <use x="63.623046875" xlink:href="#BitstreamVeraSans-Roman-30"/>
      </g>
     </g>
    </g>
   </g>
   <g id="matplotlib.axis_8">
    <g id="ytick_16">
     <g id="line2d_99">
      <g>
       <use style="stroke:#000000;stroke-width:0.5;" x="323.4690625" xlink:href="#m728421d6d4" y="177.996363636"/>
      </g>
     </g>
     <g id="line2d_100">
      <g>
       <use style="stroke:#000000;stroke-width:0.5;" x="536.293764205" xlink:href="#mcb0005524f" y="177.996363636"/>
      </g>
     </g>
     <g id="text_49">
      <!-- 0.30 -->
      <g transform="translate(294.3384375 181.307613636)scale(0.12 -0.12)">
       <use xlink:href="#BitstreamVeraSans-Roman-30"/>
       <use x="63.623046875" xlink:href="#BitstreamVeraSans-Roman-2e"/>
       <use x="95.41015625" xlink:href="#BitstreamVeraSans-Roman-33"/>
       <use x="159.033203125" xlink:href="#BitstreamVeraSans-Roman-30"/>
      </g>
     </g>
    </g>
    <g id="ytick_17">
     <g id="line2d_101">
      <g>
       <use style="stroke:#000000;stroke-width:0.5;" x="323.4690625" xlink:href="#m728421d6d4" y="140.687272727"/>
      </g>
     </g>
     <g id="line2d_102">
      <g>
       <use style="stroke:#000000;stroke-width:0.5;" x="536.293764205" xlink:href="#mcb0005524f" y="140.687272727"/>
      </g>
     </g>
     <g id="text_50">
      <!-- 0.35 -->
      <g transform="translate(294.5896875 143.998522727)scale(0.12 -0.12)">
       <use xlink:href="#BitstreamVeraSans-Roman-30"/>
       <use x="63.623046875" xlink:href="#BitstreamVeraSans-Roman-2e"/>
       <use x="95.41015625" xlink:href="#BitstreamVeraSans-Roman-33"/>
       <use x="159.033203125" xlink:href="#BitstreamVeraSans-Roman-35"/>
      </g>
     </g>
    </g>
    <g id="ytick_18">
     <g id="line2d_103">
      <g>
       <use style="stroke:#000000;stroke-width:0.5;" x="323.4690625" xlink:href="#m728421d6d4" y="103.378181818"/>
      </g>
     </g>
     <g id="line2d_104">
      <g>
       <use style="stroke:#000000;stroke-width:0.5;" x="536.293764205" xlink:href="#mcb0005524f" y="103.378181818"/>
      </g>
     </g>
     <g id="text_51">
      <!-- 0.40 -->
      <g transform="translate(294.3384375 106.689431818)scale(0.12 -0.12)">
       <use xlink:href="#BitstreamVeraSans-Roman-30"/>
       <use x="63.623046875" xlink:href="#BitstreamVeraSans-Roman-2e"/>
       <use x="95.41015625" xlink:href="#BitstreamVeraSans-Roman-34"/>
       <use x="159.033203125" xlink:href="#BitstreamVeraSans-Roman-30"/>
      </g>
     </g>
    </g>
    <g id="ytick_19">
     <g id="line2d_105">
      <g>
       <use style="stroke:#000000;stroke-width:0.5;" x="323.4690625" xlink:href="#m728421d6d4" y="66.0690909091"/>
      </g>
     </g>
     <g id="line2d_106">
      <g>
       <use style="stroke:#000000;stroke-width:0.5;" x="536.293764205" xlink:href="#mcb0005524f" y="66.0690909091"/>
      </g>
     </g>
     <g id="text_52">
      <!-- 0.45 -->
      <g transform="translate(294.5896875 69.3803409091)scale(0.12 -0.12)">
       <use xlink:href="#BitstreamVeraSans-Roman-30"/>
       <use x="63.623046875" xlink:href="#BitstreamVeraSans-Roman-2e"/>
       <use x="95.41015625" xlink:href="#BitstreamVeraSans-Roman-34"/>
       <use x="159.033203125" xlink:href="#BitstreamVeraSans-Roman-35"/>
      </g>
     </g>
    </g>
    <g id="ytick_20">
     <g id="line2d_107">
      <g>
       <use style="stroke:#000000;stroke-width:0.5;" x="323.4690625" xlink:href="#m728421d6d4" y="28.76"/>
      </g>
     </g>
     <g id="line2d_108">
      <g>
       <use style="stroke:#000000;stroke-width:0.5;" x="536.293764205" xlink:href="#mcb0005524f" y="28.76"/>
      </g>
     </g>
     <g id="text_53">
      <!-- 0.50 -->
      <g transform="translate(294.3384375 32.07125)scale(0.12 -0.12)">
       <use xlink:href="#BitstreamVeraSans-Roman-30"/>
       <use x="63.623046875" xlink:href="#BitstreamVeraSans-Roman-2e"/>
       <use x="95.41015625" xlink:href="#BitstreamVeraSans-Roman-35"/>
       <use x="159.033203125" xlink:href="#BitstreamVeraSans-Roman-30"/>
      </g>
     </g>
    </g>
   </g>
   <g id="text_54">
    <!-- Pulse in Regular Trials before Stress -->
    <g transform="translate(301.901413352 23.76)scale(0.144 -0.144)">
     <use xlink:href="#BitstreamVeraSans-Roman-50"/>
     <use x="58.552734375" xlink:href="#BitstreamVeraSans-Roman-75"/>
     <use x="121.931640625" xlink:href="#BitstreamVeraSans-Roman-6c"/>
     <use x="149.71484375" xlink:href="#BitstreamVeraSans-Roman-73"/>
     <use x="201.814453125" xlink:href="#BitstreamVeraSans-Roman-65"/>
     <use x="263.337890625" xlink:href="#BitstreamVeraSans-Roman-20"/>
     <use x="295.125" xlink:href="#BitstreamVeraSans-Roman-69"/>
     <use x="322.908203125" xlink:href="#BitstreamVeraSans-Roman-6e"/>
     <use x="386.287109375" xlink:href="#BitstreamVeraSans-Roman-20"/>
     <use x="418.07421875" xlink:href="#BitstreamVeraSans-Roman-52"/>
     <use x="483.056640625" xlink:href="#BitstreamVeraSans-Roman-65"/>
     <use x="544.580078125" xlink:href="#BitstreamVeraSans-Roman-67"/>
     <use x="608.056640625" xlink:href="#BitstreamVeraSans-Roman-75"/>
     <use x="671.435546875" xlink:href="#BitstreamVeraSans-Roman-6c"/>
     <use x="699.21875" xlink:href="#BitstreamVeraSans-Roman-61"/>
     <use x="760.498046875" xlink:href="#BitstreamVeraSans-Roman-72"/>
     <use x="801.611328125" xlink:href="#BitstreamVeraSans-Roman-20"/>
     <use x="833.3984375" xlink:href="#BitstreamVeraSans-Roman-54"/>
     <use x="879.732421875" xlink:href="#BitstreamVeraSans-Roman-72"/>
     <use x="920.845703125" xlink:href="#BitstreamVeraSans-Roman-69"/>
     <use x="948.62890625" xlink:href="#BitstreamVeraSans-Roman-61"/>
     <use x="1009.90820312" xlink:href="#BitstreamVeraSans-Roman-6c"/>
     <use x="1037.69140625" xlink:href="#BitstreamVeraSans-Roman-73"/>
     <use x="1089.79101562" xlink:href="#BitstreamVeraSans-Roman-20"/>
     <use x="1121.578125" xlink:href="#BitstreamVeraSans-Roman-62"/>
     <use x="1185.0546875" xlink:href="#BitstreamVeraSans-Roman-65"/>
     <use x="1246.578125" xlink:href="#BitstreamVeraSans-Roman-66"/>
     <use x="1281.78320312" xlink:href="#BitstreamVeraSans-Roman-6f"/>
     <use x="1342.96484375" xlink:href="#BitstreamVeraSans-Roman-72"/>
     <use x="1381.828125" xlink:href="#BitstreamVeraSans-Roman-65"/>
     <use x="1443.3515625" xlink:href="#BitstreamVeraSans-Roman-20"/>
     <use x="1475.13867188" xlink:href="#BitstreamVeraSans-Roman-53"/>
     <use x="1538.61523438" xlink:href="#BitstreamVeraSans-Roman-74"/>
     <use x="1577.82421875" xlink:href="#BitstreamVeraSans-Roman-72"/>
     <use x="1616.6875" xlink:href="#BitstreamVeraSans-Roman-65"/>
     <use x="1678.2109375" xlink:href="#BitstreamVeraSans-Roman-73"/>
     <use x="1730.31054688" xlink:href="#BitstreamVeraSans-Roman-73"/>
    </g>
   </g>
  </g>
 </g>
 <defs>
  <clipPath id="p12b1442ff1">
   <rect height="164.16" width="212.824701705" x="41.9490625" y="238.28"/>
  </clipPath>
  <clipPath id="p13eebda5b1">
   <rect height="164.16" width="212.824701705" x="323.4690625" y="238.28"/>
  </clipPath>
  <clipPath id="p217c292275">
   <rect height="164.16" width="212.824701705" x="41.9490625" y="28.76"/>
  </clipPath>
  <clipPath id="pe160646a53">
   <rect height="164.16" width="212.824701705" x="323.4690625" y="28.76"/>
  </clipPath>
 </defs>
</svg>
