<?xml version="1.0" encoding="utf-8" standalone="no"?>
<!DOCTYPE svg PUBLIC "-//W3C//DTD SVG 1.1//EN"
  "http://www.w3.org/Graphics/SVG/1.1/DTD/svg11.dtd">
<!-- Created with matplotlib (http://matplotlib.org/) -->
<svg height="345pt" version="1.1" viewBox="0 0 460 345" width="460pt" xmlns="http://www.w3.org/2000/svg" xmlns:xlink="http://www.w3.org/1999/xlink">
 <defs>
  <style type="text/css">
*{stroke-linecap:butt;stroke-linejoin:round;}
  </style>
 </defs>
 <g id="figure_1">
  <g id="patch_1">
   <path d="M 0 345.6 
L 460.8 345.6 
L 460.8 0 
L 0 0 
z
" style="fill:#ffffff;"/>
  </g>
  <g id="axes_1">
   <g id="patch_2">
    <path d="M 57.6 307.584 
L 219.927273 307.584 
L 219.927273 41.472 
L 57.6 41.472 
z
" style="fill:#ffffff;"/>
   </g>
   <g id="matplotlib.axis_1">
    <g id="xtick_1">
     <g id="line2d_1">
      <defs>
       <path d="M 0 0 
L 0 3.5 
" id="m754efeb707" style="stroke:#000000;stroke-width:0.8;"/>
      </defs>
      <g>
       <use style="stroke:#000000;stroke-width:0.8;" x="64.978512" xlink:href="#m754efeb707" y="307.584"/>
      </g>
     </g>
     <g id="text_1">
      <!-- 0.0 -->
      <defs>
       <path d="M 31.78125 66.40625 
Q 24.171875 66.40625 20.328125 58.90625 
Q 16.5 51.421875 16.5 36.375 
Q 16.5 21.390625 20.328125 13.890625 
Q 24.171875 6.390625 31.78125 6.390625 
Q 39.453125 6.390625 43.28125 13.890625 
Q 47.125 21.390625 47.125 36.375 
Q 47.125 51.421875 43.28125 58.90625 
Q 39.453125 66.40625 31.78125 66.40625 
z
M 31.78125 74.21875 
Q 44.046875 74.21875 50.515625 64.515625 
Q 56.984375 54.828125 56.984375 36.375 
Q 56.984375 17.96875 50.515625 8.265625 
Q 44.046875 -1.421875 31.78125 -1.421875 
Q 19.53125 -1.421875 13.0625 8.265625 
Q 6.59375 17.96875 6.59375 36.375 
Q 6.59375 54.828125 13.0625 64.515625 
Q 19.53125 74.21875 31.78125 74.21875 
z
" id="DejaVuSans-30"/>
       <path d="M 10.6875 12.40625 
L 21 12.40625 
L 21 0 
L 10.6875 0 
z
" id="DejaVuSans-2e"/>
      </defs>
      <g transform="translate(57.02695 322.182437)scale(0.1 -0.1)">
       <use xlink:href="#DejaVuSans-30"/>
       <use x="63.623047" xlink:href="#DejaVuSans-2e"/>
       <use x="95.410156" xlink:href="#DejaVuSans-30"/>
      </g>
     </g>
    </g>
    <g id="xtick_2">
     <g id="line2d_2">
      <g>
       <use style="stroke:#000000;stroke-width:0.8;" x="78.233325" xlink:href="#m754efeb707" y="307.584"/>
      </g>
     </g>
     <g id="text_2">
      <!-- 5.0 -->
      <defs>
       <path d="M 10.796875 72.90625 
L 49.515625 72.90625 
L 49.515625 64.59375 
L 19.828125 64.59375 
L 19.828125 46.734375 
Q 21.96875 47.46875 24.109375 47.828125 
Q 26.265625 48.1875 28.421875 48.1875 
Q 40.625 48.1875 47.75 41.5 
Q 54.890625 34.8125 54.890625 23.390625 
Q 54.890625 11.625 47.5625 5.09375 
Q 40.234375 -1.421875 26.90625 -1.421875 
Q 22.3125 -1.421875 17.546875 -0.640625 
Q 12.796875 0.140625 7.71875 1.703125 
L 7.71875 11.625 
Q 12.109375 9.234375 16.796875 8.0625 
Q 21.484375 6.890625 26.703125 6.890625 
Q 35.15625 6.890625 40.078125 11.328125 
Q 45.015625 15.765625 45.015625 23.390625 
Q 45.015625 31 40.078125 35.4375 
Q 35.15625 39.890625 26.703125 39.890625 
Q 22.75 39.890625 18.8125 39.015625 
Q 14.890625 38.140625 10.796875 36.28125 
z
" id="DejaVuSans-35"/>
      </defs>
      <g transform="translate(70.281763 322.182437)scale(0.1 -0.1)">
       <use xlink:href="#DejaVuSans-35"/>
       <use x="63.623047" xlink:href="#DejaVuSans-2e"/>
       <use x="95.410156" xlink:href="#DejaVuSans-30"/>
      </g>
     </g>
    </g>
    <g id="xtick_3">
     <g id="line2d_3">
      <g>
       <use style="stroke:#000000;stroke-width:0.8;" x="91.488138" xlink:href="#m754efeb707" y="307.584"/>
      </g>
     </g>
     <g id="text_3">
      <!-- 10.0 -->
      <defs>
       <path d="M 12.40625 8.296875 
L 28.515625 8.296875 
L 28.515625 63.921875 
L 10.984375 60.40625 
L 10.984375 69.390625 
L 28.421875 72.90625 
L 38.28125 72.90625 
L 38.28125 8.296875 
L 54.390625 8.296875 
L 54.390625 0 
L 12.40625 0 
z
" id="DejaVuSans-31"/>
      </defs>
      <g transform="translate(80.355325 322.182437)scale(0.1 -0.1)">
       <use xlink:href="#DejaVuSans-31"/>
       <use x="63.623047" xlink:href="#DejaVuSans-30"/>
       <use x="127.246094" xlink:href="#DejaVuSans-2e"/>
       <use x="159.033203" xlink:href="#DejaVuSans-30"/>
      </g>
     </g>
    </g>
    <g id="xtick_4">
     <g id="line2d_4">
      <g>
       <use style="stroke:#000000;stroke-width:0.8;" x="104.74295" xlink:href="#m754efeb707" y="307.584"/>
      </g>
     </g>
     <g id="text_4">
      <!-- 15.0 -->
      <g transform="translate(93.610138 322.182437)scale(0.1 -0.1)">
       <use xlink:href="#DejaVuSans-31"/>
       <use x="63.623047" xlink:href="#DejaVuSans-35"/>
       <use x="127.246094" xlink:href="#DejaVuSans-2e"/>
       <use x="159.033203" xlink:href="#DejaVuSans-30"/>
      </g>
     </g>
    </g>
    <g id="xtick_5">
     <g id="line2d_5">
      <g>
       <use style="stroke:#000000;stroke-width:0.8;" x="117.997763" xlink:href="#m754efeb707" y="307.584"/>
      </g>
     </g>
     <g id="text_5">
      <!-- 20.0 -->
      <defs>
       <path d="M 19.1875 8.296875 
L 53.609375 8.296875 
L 53.609375 0 
L 7.328125 0 
L 7.328125 8.296875 
Q 12.9375 14.109375 22.625 23.890625 
Q 32.328125 33.6875 34.8125 36.53125 
Q 39.546875 41.84375 41.421875 45.53125 
Q 43.3125 49.21875 43.3125 52.78125 
Q 43.3125 58.59375 39.234375 62.25 
Q 35.15625 65.921875 28.609375 65.921875 
Q 23.96875 65.921875 18.8125 64.3125 
Q 13.671875 62.703125 7.8125 59.421875 
L 7.8125 69.390625 
Q 13.765625 71.78125 18.9375 73 
Q 24.125 74.21875 28.421875 74.21875 
Q 39.75 74.21875 46.484375 68.546875 
Q 53.21875 62.890625 53.21875 53.421875 
Q 53.21875 48.921875 51.53125 44.890625 
Q 49.859375 40.875 45.40625 35.40625 
Q 44.1875 33.984375 37.640625 27.21875 
Q 31.109375 20.453125 19.1875 8.296875 
z
" id="DejaVuSans-32"/>
      </defs>
      <g transform="translate(106.864951 322.182437)scale(0.1 -0.1)">
       <use xlink:href="#DejaVuSans-32"/>
       <use x="63.623047" xlink:href="#DejaVuSans-30"/>
       <use x="127.246094" xlink:href="#DejaVuSans-2e"/>
       <use x="159.033203" xlink:href="#DejaVuSans-30"/>
      </g>
     </g>
    </g>
    <g id="xtick_6">
     <g id="line2d_6">
      <g>
       <use style="stroke:#000000;stroke-width:0.8;" x="131.252576" xlink:href="#m754efeb707" y="307.584"/>
      </g>
     </g>
     <g id="text_6">
      <!-- 25.0 -->
      <g transform="translate(120.119763 322.182437)scale(0.1 -0.1)">
       <use xlink:href="#DejaVuSans-32"/>
       <use x="63.623047" xlink:href="#DejaVuSans-35"/>
       <use x="127.246094" xlink:href="#DejaVuSans-2e"/>
       <use x="159.033203" xlink:href="#DejaVuSans-30"/>
      </g>
     </g>
    </g>
    <g id="xtick_7">
     <g id="line2d_7">
      <g>
       <use style="stroke:#000000;stroke-width:0.8;" x="144.507389" xlink:href="#m754efeb707" y="307.584"/>
      </g>
     </g>
     <g id="text_7">
      <!-- 30.0 -->
      <defs>
       <path d="M 40.578125 39.3125 
Q 47.65625 37.796875 51.625 33 
Q 55.609375 28.21875 55.609375 21.1875 
Q 55.609375 10.40625 48.1875 4.484375 
Q 40.765625 -1.421875 27.09375 -1.421875 
Q 22.515625 -1.421875 17.65625 -0.515625 
Q 12.796875 0.390625 7.625 2.203125 
L 7.625 11.71875 
Q 11.71875 9.328125 16.59375 8.109375 
Q 21.484375 6.890625 26.8125 6.890625 
Q 36.078125 6.890625 40.9375 10.546875 
Q 45.796875 14.203125 45.796875 21.1875 
Q 45.796875 27.640625 41.28125 31.265625 
Q 36.765625 34.90625 28.71875 34.90625 
L 20.21875 34.90625 
L 20.21875 43.015625 
L 29.109375 43.015625 
Q 36.375 43.015625 40.234375 45.921875 
Q 44.09375 48.828125 44.09375 54.296875 
Q 44.09375 59.90625 40.109375 62.90625 
Q 36.140625 65.921875 28.71875 65.921875 
Q 24.65625 65.921875 20.015625 65.03125 
Q 15.375 64.15625 9.8125 62.3125 
L 9.8125 71.09375 
Q 15.4375 72.65625 20.34375 73.4375 
Q 25.25 74.21875 29.59375 74.21875 
Q 40.828125 74.21875 47.359375 69.109375 
Q 53.90625 64.015625 53.90625 55.328125 
Q 53.90625 49.265625 50.4375 45.09375 
Q 46.96875 40.921875 40.578125 39.3125 
z
" id="DejaVuSans-33"/>
      </defs>
      <g transform="translate(133.374576 322.182437)scale(0.1 -0.1)">
       <use xlink:href="#DejaVuSans-33"/>
       <use x="63.623047" xlink:href="#DejaVuSans-30"/>
       <use x="127.246094" xlink:href="#DejaVuSans-2e"/>
       <use x="159.033203" xlink:href="#DejaVuSans-30"/>
      </g>
     </g>
    </g>
    <g id="xtick_8">
     <g id="line2d_8">
      <g>
       <use style="stroke:#000000;stroke-width:0.8;" x="157.762201" xlink:href="#m754efeb707" y="307.584"/>
      </g>
     </g>
     <g id="text_8">
      <!-- 35.0 -->
      <g transform="translate(146.629389 322.182437)scale(0.1 -0.1)">
       <use xlink:href="#DejaVuSans-33"/>
       <use x="63.623047" xlink:href="#DejaVuSans-35"/>
       <use x="127.246094" xlink:href="#DejaVuSans-2e"/>
       <use x="159.033203" xlink:href="#DejaVuSans-30"/>
      </g>
     </g>
    </g>
    <g id="xtick_9">
     <g id="line2d_9">
      <g>
       <use style="stroke:#000000;stroke-width:0.8;" x="171.017014" xlink:href="#m754efeb707" y="307.584"/>
      </g>
     </g>
     <g id="text_9">
      <!-- 40.0 -->
      <defs>
       <path d="M 37.796875 64.3125 
L 12.890625 25.390625 
L 37.796875 25.390625 
z
M 35.203125 72.90625 
L 47.609375 72.90625 
L 47.609375 25.390625 
L 58.015625 25.390625 
L 58.015625 17.1875 
L 47.609375 17.1875 
L 47.609375 0 
L 37.796875 0 
L 37.796875 17.1875 
L 4.890625 17.1875 
L 4.890625 26.703125 
z
" id="DejaVuSans-34"/>
      </defs>
      <g transform="translate(159.884201 322.182437)scale(0.1 -0.1)">
       <use xlink:href="#DejaVuSans-34"/>
       <use x="63.623047" xlink:href="#DejaVuSans-30"/>
       <use x="127.246094" xlink:href="#DejaVuSans-2e"/>
       <use x="159.033203" xlink:href="#DejaVuSans-30"/>
      </g>
     </g>
    </g>
    <g id="xtick_10">
     <g id="line2d_10">
      <g>
       <use style="stroke:#000000;stroke-width:0.8;" x="184.271827" xlink:href="#m754efeb707" y="307.584"/>
      </g>
     </g>
     <g id="text_10">
      <!-- 45.0 -->
      <g transform="translate(173.139014 322.182437)scale(0.1 -0.1)">
       <use xlink:href="#DejaVuSans-34"/>
       <use x="63.623047" xlink:href="#DejaVuSans-35"/>
       <use x="127.246094" xlink:href="#DejaVuSans-2e"/>
       <use x="159.033203" xlink:href="#DejaVuSans-30"/>
      </g>
     </g>
    </g>
    <g id="xtick_11">
     <g id="line2d_11">
      <g>
       <use style="stroke:#000000;stroke-width:0.8;" x="197.526639" xlink:href="#m754efeb707" y="307.584"/>
      </g>
     </g>
     <g id="text_11">
      <!-- 50.0 -->
      <g transform="translate(186.393827 322.182437)scale(0.1 -0.1)">
       <use xlink:href="#DejaVuSans-35"/>
       <use x="63.623047" xlink:href="#DejaVuSans-30"/>
       <use x="127.246094" xlink:href="#DejaVuSans-2e"/>
       <use x="159.033203" xlink:href="#DejaVuSans-30"/>
      </g>
     </g>
    </g>
    <g id="xtick_12">
     <g id="line2d_12">
      <g>
       <use style="stroke:#000000;stroke-width:0.8;" x="210.781452" xlink:href="#m754efeb707" y="307.584"/>
      </g>
     </g>
     <g id="text_12">
      <!-- 55.0 -->
      <g transform="translate(199.648639 322.182437)scale(0.1 -0.1)">
       <use xlink:href="#DejaVuSans-35"/>
       <use x="63.623047" xlink:href="#DejaVuSans-35"/>
       <use x="127.246094" xlink:href="#DejaVuSans-2e"/>
       <use x="159.033203" xlink:href="#DejaVuSans-30"/>
      </g>
     </g>
    </g>
    <g id="text_13">
     <!-- Minutes -->
     <defs>
      <path d="M 9.8125 72.90625 
L 24.515625 72.90625 
L 43.109375 23.296875 
L 61.8125 72.90625 
L 76.515625 72.90625 
L 76.515625 0 
L 66.890625 0 
L 66.890625 64.015625 
L 48.09375 14.015625 
L 38.1875 14.015625 
L 19.390625 64.015625 
L 19.390625 0 
L 9.8125 0 
z
" id="DejaVuSans-4d"/>
      <path d="M 9.421875 54.6875 
L 18.40625 54.6875 
L 18.40625 0 
L 9.421875 0 
z
M 9.421875 75.984375 
L 18.40625 75.984375 
L 18.40625 64.59375 
L 9.421875 64.59375 
z
" id="DejaVuSans-69"/>
      <path d="M 54.890625 33.015625 
L 54.890625 0 
L 45.90625 0 
L 45.90625 32.71875 
Q 45.90625 40.484375 42.875 44.328125 
Q 39.84375 48.1875 33.796875 48.1875 
Q 26.515625 48.1875 22.3125 43.546875 
Q 18.109375 38.921875 18.109375 30.90625 
L 18.109375 0 
L 9.078125 0 
L 9.078125 54.6875 
L 18.109375 54.6875 
L 18.109375 46.1875 
Q 21.34375 51.125 25.703125 53.5625 
Q 30.078125 56 35.796875 56 
Q 45.21875 56 50.046875 50.171875 
Q 54.890625 44.34375 54.890625 33.015625 
z
" id="DejaVuSans-6e"/>
      <path d="M 8.5 21.578125 
L 8.5 54.6875 
L 17.484375 54.6875 
L 17.484375 21.921875 
Q 17.484375 14.15625 20.5 10.265625 
Q 23.53125 6.390625 29.59375 6.390625 
Q 36.859375 6.390625 41.078125 11.03125 
Q 45.3125 15.671875 45.3125 23.6875 
L 45.3125 54.6875 
L 54.296875 54.6875 
L 54.296875 0 
L 45.3125 0 
L 45.3125 8.40625 
Q 42.046875 3.421875 37.71875 1 
Q 33.40625 -1.421875 27.6875 -1.421875 
Q 18.265625 -1.421875 13.375 4.4375 
Q 8.5 10.296875 8.5 21.578125 
z
M 31.109375 56 
z
" id="DejaVuSans-75"/>
      <path d="M 18.3125 70.21875 
L 18.3125 54.6875 
L 36.8125 54.6875 
L 36.8125 47.703125 
L 18.3125 47.703125 
L 18.3125 18.015625 
Q 18.3125 11.328125 20.140625 9.421875 
Q 21.96875 7.515625 27.59375 7.515625 
L 36.8125 7.515625 
L 36.8125 0 
L 27.59375 0 
Q 17.1875 0 13.234375 3.875 
Q 9.28125 7.765625 9.28125 18.015625 
L 9.28125 47.703125 
L 2.6875 47.703125 
L 2.6875 54.6875 
L 9.28125 54.6875 
L 9.28125 70.21875 
z
" id="DejaVuSans-74"/>
      <path d="M 56.203125 29.59375 
L 56.203125 25.203125 
L 14.890625 25.203125 
Q 15.484375 15.921875 20.484375 11.0625 
Q 25.484375 6.203125 34.421875 6.203125 
Q 39.59375 6.203125 44.453125 7.46875 
Q 49.3125 8.734375 54.109375 11.28125 
L 54.109375 2.78125 
Q 49.265625 0.734375 44.1875 -0.34375 
Q 39.109375 -1.421875 33.890625 -1.421875 
Q 20.796875 -1.421875 13.15625 6.1875 
Q 5.515625 13.8125 5.515625 26.8125 
Q 5.515625 40.234375 12.765625 48.109375 
Q 20.015625 56 32.328125 56 
Q 43.359375 56 49.78125 48.890625 
Q 56.203125 41.796875 56.203125 29.59375 
z
M 47.21875 32.234375 
Q 47.125 39.59375 43.09375 43.984375 
Q 39.0625 48.390625 32.421875 48.390625 
Q 24.90625 48.390625 20.390625 44.140625 
Q 15.875 39.890625 15.1875 32.171875 
z
" id="DejaVuSans-65"/>
      <path d="M 44.28125 53.078125 
L 44.28125 44.578125 
Q 40.484375 46.53125 36.375 47.5 
Q 32.28125 48.484375 27.875 48.484375 
Q 21.1875 48.484375 17.84375 46.4375 
Q 14.5 44.390625 14.5 40.28125 
Q 14.5 37.15625 16.890625 35.375 
Q 19.28125 33.59375 26.515625 31.984375 
L 29.59375 31.296875 
Q 39.15625 29.25 43.1875 25.515625 
Q 47.21875 21.78125 47.21875 15.09375 
Q 47.21875 7.46875 41.1875 3.015625 
Q 35.15625 -1.421875 24.609375 -1.421875 
Q 20.21875 -1.421875 15.453125 -0.5625 
Q 10.6875 0.296875 5.421875 2 
L 5.421875 11.28125 
Q 10.40625 8.6875 15.234375 7.390625 
Q 20.0625 6.109375 24.8125 6.109375 
Q 31.15625 6.109375 34.5625 8.28125 
Q 37.984375 10.453125 37.984375 14.40625 
Q 37.984375 18.0625 35.515625 20.015625 
Q 33.0625 21.96875 24.703125 23.78125 
L 21.578125 24.515625 
Q 13.234375 26.265625 9.515625 29.90625 
Q 5.8125 33.546875 5.8125 39.890625 
Q 5.8125 47.609375 11.28125 51.796875 
Q 16.75 56 26.8125 56 
Q 31.78125 56 36.171875 55.265625 
Q 40.578125 54.546875 44.28125 53.078125 
z
" id="DejaVuSans-73"/>
     </defs>
     <g transform="translate(119.081605 335.860562)scale(0.1 -0.1)">
      <use xlink:href="#DejaVuSans-4d"/>
      <use x="86.279297" xlink:href="#DejaVuSans-69"/>
      <use x="114.0625" xlink:href="#DejaVuSans-6e"/>
      <use x="177.441406" xlink:href="#DejaVuSans-75"/>
      <use x="240.820312" xlink:href="#DejaVuSans-74"/>
      <use x="280.029297" xlink:href="#DejaVuSans-65"/>
      <use x="341.552734" xlink:href="#DejaVuSans-73"/>
     </g>
    </g>
   </g>
   <g id="matplotlib.axis_2">
    <g id="ytick_1">
     <g id="line2d_13">
      <defs>
       <path d="M 0 0 
L -3.5 0 
" id="ma3327efc5f" style="stroke:#000000;stroke-width:0.8;"/>
      </defs>
      <g>
       <use style="stroke:#000000;stroke-width:0.8;" x="57.6" xlink:href="#ma3327efc5f" y="275.026991"/>
      </g>
     </g>
     <g id="text_14">
      <!-- 0.34 -->
      <g transform="translate(28.334375 278.82621)scale(0.1 -0.1)">
       <use xlink:href="#DejaVuSans-30"/>
       <use x="63.623047" xlink:href="#DejaVuSans-2e"/>
       <use x="95.410156" xlink:href="#DejaVuSans-33"/>
       <use x="159.033203" xlink:href="#DejaVuSans-34"/>
      </g>
     </g>
    </g>
    <g id="ytick_2">
     <g id="line2d_14">
      <g>
       <use style="stroke:#000000;stroke-width:0.8;" x="57.6" xlink:href="#ma3327efc5f" y="219.411224"/>
      </g>
     </g>
     <g id="text_15">
      <!-- 0.36 -->
      <defs>
       <path d="M 33.015625 40.375 
Q 26.375 40.375 22.484375 35.828125 
Q 18.609375 31.296875 18.609375 23.390625 
Q 18.609375 15.53125 22.484375 10.953125 
Q 26.375 6.390625 33.015625 6.390625 
Q 39.65625 6.390625 43.53125 10.953125 
Q 47.40625 15.53125 47.40625 23.390625 
Q 47.40625 31.296875 43.53125 35.828125 
Q 39.65625 40.375 33.015625 40.375 
z
M 52.59375 71.296875 
L 52.59375 62.3125 
Q 48.875 64.0625 45.09375 64.984375 
Q 41.3125 65.921875 37.59375 65.921875 
Q 27.828125 65.921875 22.671875 59.328125 
Q 17.53125 52.734375 16.796875 39.40625 
Q 19.671875 43.65625 24.015625 45.921875 
Q 28.375 48.1875 33.59375 48.1875 
Q 44.578125 48.1875 50.953125 41.515625 
Q 57.328125 34.859375 57.328125 23.390625 
Q 57.328125 12.15625 50.6875 5.359375 
Q 44.046875 -1.421875 33.015625 -1.421875 
Q 20.359375 -1.421875 13.671875 8.265625 
Q 6.984375 17.96875 6.984375 36.375 
Q 6.984375 53.65625 15.1875 63.9375 
Q 23.390625 74.21875 37.203125 74.21875 
Q 40.921875 74.21875 44.703125 73.484375 
Q 48.484375 72.75 52.59375 71.296875 
z
" id="DejaVuSans-36"/>
      </defs>
      <g transform="translate(28.334375 223.210443)scale(0.1 -0.1)">
       <use xlink:href="#DejaVuSans-30"/>
       <use x="63.623047" xlink:href="#DejaVuSans-2e"/>
       <use x="95.410156" xlink:href="#DejaVuSans-33"/>
       <use x="159.033203" xlink:href="#DejaVuSans-36"/>
      </g>
     </g>
    </g>
    <g id="ytick_3">
     <g id="line2d_15">
      <g>
       <use style="stroke:#000000;stroke-width:0.8;" x="57.6" xlink:href="#ma3327efc5f" y="163.795457"/>
      </g>
     </g>
     <g id="text_16">
      <!-- 0.38 -->
      <defs>
       <path d="M 31.78125 34.625 
Q 24.75 34.625 20.71875 30.859375 
Q 16.703125 27.09375 16.703125 20.515625 
Q 16.703125 13.921875 20.71875 10.15625 
Q 24.75 6.390625 31.78125 6.390625 
Q 38.8125 6.390625 42.859375 10.171875 
Q 46.921875 13.96875 46.921875 20.515625 
Q 46.921875 27.09375 42.890625 30.859375 
Q 38.875 34.625 31.78125 34.625 
z
M 21.921875 38.8125 
Q 15.578125 40.375 12.03125 44.71875 
Q 8.5 49.078125 8.5 55.328125 
Q 8.5 64.0625 14.71875 69.140625 
Q 20.953125 74.21875 31.78125 74.21875 
Q 42.671875 74.21875 48.875 69.140625 
Q 55.078125 64.0625 55.078125 55.328125 
Q 55.078125 49.078125 51.53125 44.71875 
Q 48 40.375 41.703125 38.8125 
Q 48.828125 37.15625 52.796875 32.3125 
Q 56.78125 27.484375 56.78125 20.515625 
Q 56.78125 9.90625 50.3125 4.234375 
Q 43.84375 -1.421875 31.78125 -1.421875 
Q 19.734375 -1.421875 13.25 4.234375 
Q 6.78125 9.90625 6.78125 20.515625 
Q 6.78125 27.484375 10.78125 32.3125 
Q 14.796875 37.15625 21.921875 38.8125 
z
M 18.3125 54.390625 
Q 18.3125 48.734375 21.84375 45.5625 
Q 25.390625 42.390625 31.78125 42.390625 
Q 38.140625 42.390625 41.71875 45.5625 
Q 45.3125 48.734375 45.3125 54.390625 
Q 45.3125 60.0625 41.71875 63.234375 
Q 38.140625 66.40625 31.78125 66.40625 
Q 25.390625 66.40625 21.84375 63.234375 
Q 18.3125 60.0625 18.3125 54.390625 
z
" id="DejaVuSans-38"/>
      </defs>
      <g transform="translate(28.334375 167.594676)scale(0.1 -0.1)">
       <use xlink:href="#DejaVuSans-30"/>
       <use x="63.623047" xlink:href="#DejaVuSans-2e"/>
       <use x="95.410156" xlink:href="#DejaVuSans-33"/>
       <use x="159.033203" xlink:href="#DejaVuSans-38"/>
      </g>
     </g>
    </g>
    <g id="ytick_4">
     <g id="line2d_16">
      <g>
       <use style="stroke:#000000;stroke-width:0.8;" x="57.6" xlink:href="#ma3327efc5f" y="108.17969"/>
      </g>
     </g>
     <g id="text_17">
      <!-- 0.40 -->
      <g transform="translate(28.334375 111.978909)scale(0.1 -0.1)">
       <use xlink:href="#DejaVuSans-30"/>
       <use x="63.623047" xlink:href="#DejaVuSans-2e"/>
       <use x="95.410156" xlink:href="#DejaVuSans-34"/>
       <use x="159.033203" xlink:href="#DejaVuSans-30"/>
      </g>
     </g>
    </g>
    <g id="ytick_5">
     <g id="line2d_17">
      <g>
       <use style="stroke:#000000;stroke-width:0.8;" x="57.6" xlink:href="#ma3327efc5f" y="52.563923"/>
      </g>
     </g>
     <g id="text_18">
      <!-- 0.42 -->
      <g transform="translate(28.334375 56.363142)scale(0.1 -0.1)">
       <use xlink:href="#DejaVuSans-30"/>
       <use x="63.623047" xlink:href="#DejaVuSans-2e"/>
       <use x="95.410156" xlink:href="#DejaVuSans-34"/>
       <use x="159.033203" xlink:href="#DejaVuSans-32"/>
      </g>
     </g>
    </g>
   </g>
   <g id="line2d_18">
    <path clip-path="url(#pf4c530d97a)" d="M 64.978512 209.123437 
L 65.199426 270.755192 
L 65.420339 295.488 
L 65.641253 270.234501 
L 65.862167 204.287021 
L 66.08308 155.216095 
L 66.303994 175.034885 
L 66.524907 160.379611 
L 66.745821 148.989502 
L 66.966734 186.343218 
L 67.187648 171.39005 
L 67.408561 161.138951 
L 67.629475 158.481259 
L 67.850388 172.604995 
L 68.071302 256.696543 
L 68.292216 243.188624 
L 68.513129 236.84521 
L 68.734043 254.483607 
L 68.954956 234.987746 
L 69.17587 225.595287 
L 69.396783 248.585784 
L 69.617697 281.103919 
L 69.83861 248.655877 
L 70.059524 235.268118 
L 70.280437 223.212125 
L 70.501351 270.755192 
L 70.722265 246.482994 
L 70.943178 265.613371 
L 71.164092 243.028412 
L 71.385005 230.361609 
L 71.605919 228.469099 
L 71.826832 218.866361 
L 72.047746 241.576486 
L 72.268659 250.383168 
L 72.489573 262.098709 
L 72.710486 196.366514 
L 72.9314 228.048541 
L 73.152314 221.880359 
L 73.373227 243.809448 
L 73.594141 246.412901 
L 73.815054 226.436402 
L 74.035968 202.534697 
L 74.256881 234.006444 
L 74.477795 206.039346 
L 74.698708 197.698281 
L 74.919622 186.576862 
L 75.140535 218.445803 
L 75.361449 222.020545 
L 75.582363 227.347611 
L 75.803276 248.655877 
L 76.02419 246.998678 
L 76.245103 232.534492 
L 76.466017 202.534697 
L 76.68693 220.408406 
L 76.907844 260.341378 
L 77.128757 220.758871 
L 77.349671 229.800865 
L 77.570584 241.336167 
L 77.791498 255.665175 
L 78.012412 232.043841 
L 78.233325 247.128851 
L 78.454239 240.595184 
L 78.675152 242.377549 
L 78.896066 243.679275 
L 79.116979 222.160731 
L 79.337893 206.810368 
L 79.558806 215.221526 
L 79.77972 225.805566 
L 80.000633 246.282729 
L 80.221547 238.001744 
L 80.442461 238.492395 
L 80.663374 211.576691 
L 80.884288 179.964757 
L 81.105201 209.824366 
L 81.326115 184.520801 
L 81.547028 226.156031 
L 81.767942 237.721372 
L 81.988855 204.777672 
L 82.209769 213.399108 
L 82.430682 218.095338 
L 82.651596 211.78697 
L 82.87251 211.226226 
L 83.093423 219.357012 
L 83.314337 234.84756 
L 83.53525 205.268323 
L 83.756164 196.086143 
L 83.977077 176.857302 
L 84.197991 148.230161 
L 84.418904 172.885366 
L 84.639818 174.351478 
L 84.860731 169.590996 
L 85.081645 185.134115 
L 85.302559 193.352516 
L 85.523472 174.503346 
L 85.744386 200.572093 
L 85.965299 184.450708 
L 86.186213 149.596974 
L 86.407126 138.814338 
L 86.62804 150.052579 
L 86.848953 143.977854 
L 87.069867 165.239391 
L 87.29078 155.140161 
L 87.511694 162.657633 
L 87.732608 188.72638 
L 87.953521 180.805873 
L 88.174435 201.132837 
L 88.395348 197.838467 
L 88.616262 169.170439 
L 88.837175 153.925216 
L 89.058089 133.80269 
L 89.279002 173.212467 
L 89.499916 153.014007 
L 89.720829 151.495326 
L 89.941743 178.352619 
L 90.162657 180.665687 
L 90.38357 161.594556 
L 90.604484 216.202827 
L 90.825397 213.959852 
L 91.046311 229.730772 
L 91.267224 216.763571 
L 91.488138 205.548695 
L 91.709051 178.603785 
L 91.929965 154.546494 
" style="fill:none;stroke:#0000ff;stroke-linecap:square;stroke-width:1.5;"/>
   </g>
   <g id="line2d_19">
    <path clip-path="url(#pf4c530d97a)" d="M 92.150878 203.305719 
L 92.371792 265.678457 
L 92.592705 222.511196 
L 92.813619 254.053036 
L 93.034533 210.875761 
L 93.255446 235.828862 
L 93.47636 226.296216 
L 93.697273 203.515998 
L 93.918187 241.726685 
L 94.1391 234.006444 
L 94.360014 231.903655 
L 94.580927 258.51896 
L 94.801841 252.010326 
L 95.022754 228.539192 
L 95.243668 244.520391 
L 95.464582 272.903041 
L 95.685495 269.71381 
L 95.906409 252.921535 
L 96.127322 295.162568 
L 96.348236 268.867688 
L 96.569149 267.370702 
L 96.790063 248.095133 
L 97.010976 257.28232 
L 97.23189 221.319615 
L 97.673717 252.140499 
L 97.894631 231.623283 
L 98.115544 238.492395 
L 98.557371 264.116385 
L 98.778285 220.338313 
L 98.999198 204.427207 
L 99.220112 225.104636 
L 99.441025 209.123437 
L 99.661939 208.843065 
L 99.882852 199.100141 
L 100.103766 239.709009 
L 100.32468 196.5067 
L 100.545593 228.819564 
L 100.98742 182.347919 
L 101.429247 194.403911 
L 101.650161 189.287124 
L 102.091988 169.520903 
L 102.533815 199.31042 
L 102.754729 185.992754 
L 102.975642 201.483302 
L 103.196556 174.777877 
L 103.417469 181.944884 
L 103.638383 162.733567 
L 103.859296 203.936556 
L 104.08021 185.992754 
L 104.301123 201.90386 
L 104.522037 178.352619 
L 104.74295 180.03485 
L 104.963864 170.023237 
L 105.184778 149.217304 
L 105.626605 172.534902 
L 105.847518 170.858511 
L 106.289345 196.716979 
L 106.510259 174.287226 
L 106.952086 171.273228 
L 107.172999 216.833664 
L 107.393913 167.207835 
L 107.614827 192.72168 
L 108.056654 178.492805 
L 108.277567 157.797853 
L 108.498481 162.505765 
L 108.719394 187.885264 
L 108.940308 196.5067 
L 109.161221 195.735678 
L 109.382135 196.156236 
L 109.603048 231.202725 
L 109.823962 215.852363 
L 110.044876 237.581186 
L 110.265789 147.015216 
L 110.486703 164.252248 
L 110.707616 127.955767 
L 110.92853 147.394886 
L 111.812184 167.698486 
L 112.033097 142.079502 
L 112.254011 143.142579 
L 112.695838 147.167084 
L 112.916752 133.271151 
L 113.137665 148.078293 
L 113.358579 138.434667 
L 113.579492 153.469611 
L 113.800406 137.599393 
L 114.021319 155.595765 
L 114.242233 131.296866 
L 114.68406 243.809448 
L 114.904974 247.254017 
L 115.125887 231.55319 
L 115.346801 231.833562 
L 115.567714 175.870159 
L 115.788628 222.37101 
L 116.009541 218.515896 
L 116.230455 192.441308 
L 116.451368 184.801173 
L 116.672282 242.067137 
L 116.893195 175.759179 
L 117.114109 155.595765 
L 117.335023 162.05016 
L 117.555936 124.538734 
L 117.77685 133.423019 
L 117.997763 101.986318 
L 118.218677 141.775766 
L 118.43959 116.869394 
L 118.881417 108.516647 
L 119.102331 130.841261 
L 119.323244 139.80148 
L 119.544158 137.599393 
L 119.765072 106.846098 
L 119.985985 162.733567 
L 120.427812 106.997966 
L 120.648726 110.339065 
L 120.869639 154.684556 
L 121.311466 131.296866 
L 121.53238 137.523459 
L 121.753293 148.457963 
L 121.974207 130.081921 
L 122.195121 155.064227 
L 122.416034 155.367963 
L 122.636948 172.073456 
L 122.857861 172.114344 
L 123.078775 146.255876 
L 123.299688 149.90071 
L 123.520602 105.555219 
L 123.741515 136.99192 
L 123.962429 130.613459 
L 124.183342 110.490933 
L 124.404256 109.959395 
L 124.625169 87.282723 
L 124.846083 114.667306 
L 125.066997 117.400933 
L 125.28791 92.252952 
L 125.508824 81.981145 
L 125.729737 94.16511 
L 125.950651 136.688184 
L 126.171564 110.718735 
L 126.392478 102.365989 
L 126.834305 150.660051 
L 127.055218 168.276753 
L 127.276132 126.664888 
L 127.497046 110.97415 
L 127.938873 281.364265 
L 128.3807 92.038956 
L 128.601613 90.368407 
L 128.822527 114.701822 
L 129.04344 84.673352 
L 129.264354 105.175549 
L 129.485267 102.593791 
L 129.706181 108.820384 
L 129.927095 86.371514 
L 130.368922 97.961813 
L 130.589835 87.614072 
L 131.031662 103.656868 
L 131.252576 116.489724 
L 131.473489 104.492142 
L 131.694403 129.398514 
L 131.915316 95.304121 
L 132.13623 110.725638 
L 132.357144 117.17313 
L 132.578057 118.084339 
L 133.019884 93.826858 
L 133.240798 106.162692 
L 133.461711 106.335269 
L 133.682625 100.239835 
L 133.903538 112.161482 
L 134.345365 53.568 
L 134.566279 100.315769 
L 134.787193 123.475657 
L 135.008106 120.590163 
L 135.22902 122.260712 
L 135.449933 83.458407 
L 135.670847 127.500163 
L 136.112674 142.155436 
L 136.333587 151.723128 
L 136.554501 107.605439 
L 136.775414 86.620026 
L 136.996328 130.309723 
L 137.217242 131.524668 
L 137.438155 124.234998 
L 137.659069 121.501372 
L 137.879982 132.511811 
L 138.100896 127.803899 
L 138.321809 109.959395 
L 138.542723 143.142579 
L 138.763636 121.425438 
L 138.98455 143.218513 
L 139.205463 143.825986 
L 139.426377 109.50379 
L 139.647291 94.158207 
L 139.868204 119.299284 
L 140.089118 93.744021 
L 140.310031 122.03291 
L 140.530945 73.448918 
L 140.751858 110.187197 
L 140.972772 93.557638 
L 141.414599 107.529505 
L 141.635512 81.863792 
L 141.856426 85.957328 
L 142.07734 97.430275 
L 142.298253 155.443897 
L 142.519167 76.513892 
L 142.74008 94.468846 
L 142.960994 72.454872 
L 143.181907 64.005482 
L 143.623734 117.628735 
L 143.844648 115.274779 
L 144.065561 133.119283 
L 144.507389 101.07511 
L 144.728302 72.703383 
L 144.949216 104.719944 
L 145.170129 116.337856 
L 145.391043 108.516647 
L 145.611956 67.56748 
L 145.83287 95.455989 
L 146.053783 97.885879 
L 146.274697 74.194452 
L 146.49561 63.425622 
L 146.716524 104.719944 
L 146.937438 102.290054 
L 147.379265 57.129998 
L 147.600178 114.591372 
L 147.821092 109.655658 
L 148.042005 76.431055 
L 148.262919 63.75697 
L 148.483832 99.78423 
L 148.704746 109.883461 
L 148.925659 107.377637 
L 149.146573 97.885879 
L 149.5884 129.398514 
L 150.030227 111.705878 
L 150.472054 144.205656 
L 150.913881 74.270386 
L 151.134795 107.246478 
L 151.355708 94.241044 
L 151.576622 91.051814 
L 151.797536 64.668179 
L 152.018449 79.910216 
L 152.239363 105.707087 
L 152.460276 113.376427 
L 152.68119 88.849726 
L 153.123017 130.537525 
L 153.564844 86.454351 
L 153.785757 66.739108 
L 154.006671 110.718735 
L 154.227585 125.222141 
L 154.669412 73.131375 
L 154.890325 89.519326 
L 155.111239 96.822802 
L 155.332152 68.7272 
L 155.553066 87.027308 
L 155.773979 162.505765 
L 155.994893 188.936659 
L 156.215806 153.545545 
L 156.43672 87.531234 
L 156.878547 104.719944 
L 157.099461 88.92566 
L 157.320374 101.758516 
L 157.541288 83.969237 
L 157.762201 106.010823 
L 157.983115 76.679567 
L 158.204028 82.312493 
L 158.204028 82.312493 
" style="fill:none;stroke:#ff0000;stroke-linecap:square;stroke-width:1.5;"/>
   </g>
   <g id="line2d_20">
    <path clip-path="url(#pf4c530d97a)" d="M 158.424942 287.417294 
L 159.087682 287.417294 
L 159.308596 270.755192 
L 159.52951 287.417294 
L 160.19225 287.417294 
L 160.413164 270.755192 
L 160.634077 287.417294 
L 161.296818 287.417294 
L 161.517731 270.755192 
L 161.738645 287.417294 
L 164.610521 287.417294 
L 164.831435 270.755192 
L 165.052348 287.417294 
L 166.819657 287.417294 
L 167.04057 270.755192 
L 167.261484 287.417294 
L 167.703311 287.417294 
L 167.924224 270.755192 
L 168.145138 270.755192 
L 168.366051 287.417294 
L 169.912446 287.417294 
L 170.13336 270.755192 
L 170.354273 287.417294 
L 172.121582 287.417294 
L 172.342495 270.755192 
L 172.563409 287.417294 
L 173.226149 287.417294 
L 173.447063 270.755192 
L 173.667976 287.417294 
L 174.330717 287.417294 
L 174.551631 270.755192 
L 174.772544 287.417294 
L 175.435285 287.417294 
L 175.656198 270.755192 
L 175.877112 270.755192 
L 176.098025 287.417294 
L 177.64442 287.417294 
L 177.865334 270.755192 
L 178.086247 287.417294 
L 179.853556 287.417294 
L 180.074469 270.755192 
L 180.295383 287.417294 
L 180.958123 287.417294 
L 181.179037 270.755192 
L 181.399951 270.755192 
L 181.620864 287.417294 
L 182.062691 287.417294 
L 182.283605 270.755192 
L 182.504518 287.417294 
L 185.597308 287.417294 
L 185.818221 270.755192 
L 186.039135 270.755192 
L 186.260048 287.417294 
L 186.480962 287.417294 
L 186.701876 270.755192 
L 187.143703 270.755192 
L 187.364616 287.417294 
L 188.027357 287.417294 
L 188.24827 270.755192 
L 188.469184 287.417294 
L 189.794665 287.417294 
L 190.015579 270.755192 
L 190.236492 287.417294 
L 193.108368 287.417294 
L 193.329282 270.755192 
L 193.550195 270.755192 
L 193.771109 287.417294 
L 194.212936 287.417294 
L 194.43385 270.755192 
L 194.654763 287.417294 
L 195.538417 287.417294 
L 195.759331 270.755192 
L 195.980244 287.417294 
L 196.422072 287.417294 
L 196.642985 270.755192 
L 196.863899 287.417294 
L 197.526639 287.417294 
L 197.747553 270.755192 
L 198.18938 270.755192 
L 198.410293 287.417294 
L 198.631207 287.417294 
L 198.852121 270.755192 
L 199.073034 270.755192 
L 199.293948 287.417294 
L 199.956688 287.417294 
L 200.177602 270.755192 
L 200.398515 287.417294 
L 200.840342 287.417294 
L 201.061256 270.755192 
L 201.28217 287.417294 
L 201.503083 270.755192 
L 201.723997 287.417294 
L 203.491305 287.417294 
L 203.712219 270.755192 
L 203.933132 287.417294 
L 204.374959 287.417294 
L 204.595873 270.755192 
L 204.816786 270.755192 
L 205.0377 287.417294 
L 205.479527 287.417294 
L 205.70044 270.755192 
L 205.921354 270.755192 
L 206.142268 287.417294 
L 207.467749 287.417294 
L 207.688662 270.755192 
L 207.909576 287.417294 
L 208.130489 270.755192 
L 208.351403 287.417294 
L 209.014144 287.417294 
L 209.235057 270.755192 
L 209.455971 287.417294 
L 210.781452 287.417294 
L 211.002366 270.755192 
L 211.223279 287.417294 
L 211.88602 287.417294 
L 212.106933 270.755192 
L 212.327847 287.417294 
L 212.54876 287.417294 
L 212.54876 287.417294 
" style="fill:none;stroke:#000000;stroke-linecap:square;stroke-width:1.5;"/>
   </g>
   <g id="patch_3">
    <path d="M 57.6 307.584 
L 57.6 41.472 
" style="fill:none;stroke:#000000;stroke-linecap:square;stroke-linejoin:miter;stroke-width:0.8;"/>
   </g>
   <g id="patch_4">
    <path d="M 219.927273 307.584 
L 219.927273 41.472 
" style="fill:none;stroke:#000000;stroke-linecap:square;stroke-linejoin:miter;stroke-width:0.8;"/>
   </g>
   <g id="patch_5">
    <path d="M 57.6 307.584 
L 219.927273 307.584 
" style="fill:none;stroke:#000000;stroke-linecap:square;stroke-linejoin:miter;stroke-width:0.8;"/>
   </g>
   <g id="patch_6">
    <path d="M 57.6 41.472 
L 219.927273 41.472 
" style="fill:none;stroke:#000000;stroke-linecap:square;stroke-linejoin:miter;stroke-width:0.8;"/>
   </g>
   <g id="text_19">
    <!-- IBI - Reg vs Stress -->
    <defs>
     <path d="M 9.8125 72.90625 
L 19.671875 72.90625 
L 19.671875 0 
L 9.8125 0 
z
" id="DejaVuSans-49"/>
     <path d="M 19.671875 34.8125 
L 19.671875 8.109375 
L 35.5 8.109375 
Q 43.453125 8.109375 47.28125 11.40625 
Q 51.125 14.703125 51.125 21.484375 
Q 51.125 28.328125 47.28125 31.5625 
Q 43.453125 34.8125 35.5 34.8125 
z
M 19.671875 64.796875 
L 19.671875 42.828125 
L 34.28125 42.828125 
Q 41.5 42.828125 45.03125 45.53125 
Q 48.578125 48.25 48.578125 53.8125 
Q 48.578125 59.328125 45.03125 62.0625 
Q 41.5 64.796875 34.28125 64.796875 
z
M 9.8125 72.90625 
L 35.015625 72.90625 
Q 46.296875 72.90625 52.390625 68.21875 
Q 58.5 63.53125 58.5 54.890625 
Q 58.5 48.1875 55.375 44.234375 
Q 52.25 40.28125 46.1875 39.3125 
Q 53.46875 37.75 57.5 32.78125 
Q 61.53125 27.828125 61.53125 20.40625 
Q 61.53125 10.640625 54.890625 5.3125 
Q 48.25 0 35.984375 0 
L 9.8125 0 
z
" id="DejaVuSans-42"/>
     <path id="DejaVuSans-20"/>
     <path d="M 4.890625 31.390625 
L 31.203125 31.390625 
L 31.203125 23.390625 
L 4.890625 23.390625 
z
" id="DejaVuSans-2d"/>
     <path d="M 44.390625 34.1875 
Q 47.5625 33.109375 50.5625 29.59375 
Q 53.5625 26.078125 56.59375 19.921875 
L 66.609375 0 
L 56 0 
L 46.6875 18.703125 
Q 43.0625 26.03125 39.671875 28.421875 
Q 36.28125 30.8125 30.421875 30.8125 
L 19.671875 30.8125 
L 19.671875 0 
L 9.8125 0 
L 9.8125 72.90625 
L 32.078125 72.90625 
Q 44.578125 72.90625 50.734375 67.671875 
Q 56.890625 62.453125 56.890625 51.90625 
Q 56.890625 45.015625 53.6875 40.46875 
Q 50.484375 35.9375 44.390625 34.1875 
z
M 19.671875 64.796875 
L 19.671875 38.921875 
L 32.078125 38.921875 
Q 39.203125 38.921875 42.84375 42.21875 
Q 46.484375 45.515625 46.484375 51.90625 
Q 46.484375 58.296875 42.84375 61.546875 
Q 39.203125 64.796875 32.078125 64.796875 
z
" id="DejaVuSans-52"/>
     <path d="M 45.40625 27.984375 
Q 45.40625 37.75 41.375 43.109375 
Q 37.359375 48.484375 30.078125 48.484375 
Q 22.859375 48.484375 18.828125 43.109375 
Q 14.796875 37.75 14.796875 27.984375 
Q 14.796875 18.265625 18.828125 12.890625 
Q 22.859375 7.515625 30.078125 7.515625 
Q 37.359375 7.515625 41.375 12.890625 
Q 45.40625 18.265625 45.40625 27.984375 
z
M 54.390625 6.78125 
Q 54.390625 -7.171875 48.1875 -13.984375 
Q 42 -20.796875 29.203125 -20.796875 
Q 24.46875 -20.796875 20.265625 -20.09375 
Q 16.0625 -19.390625 12.109375 -17.921875 
L 12.109375 -9.1875 
Q 16.0625 -11.328125 19.921875 -12.34375 
Q 23.78125 -13.375 27.78125 -13.375 
Q 36.625 -13.375 41.015625 -8.765625 
Q 45.40625 -4.15625 45.40625 5.171875 
L 45.40625 9.625 
Q 42.625 4.78125 38.28125 2.390625 
Q 33.9375 0 27.875 0 
Q 17.828125 0 11.671875 7.65625 
Q 5.515625 15.328125 5.515625 27.984375 
Q 5.515625 40.671875 11.671875 48.328125 
Q 17.828125 56 27.875 56 
Q 33.9375 56 38.28125 53.609375 
Q 42.625 51.21875 45.40625 46.390625 
L 45.40625 54.6875 
L 54.390625 54.6875 
z
" id="DejaVuSans-67"/>
     <path d="M 2.984375 54.6875 
L 12.5 54.6875 
L 29.59375 8.796875 
L 46.6875 54.6875 
L 56.203125 54.6875 
L 35.6875 0 
L 23.484375 0 
z
" id="DejaVuSans-76"/>
     <path d="M 53.515625 70.515625 
L 53.515625 60.890625 
Q 47.90625 63.578125 42.921875 64.890625 
Q 37.9375 66.21875 33.296875 66.21875 
Q 25.25 66.21875 20.875 63.09375 
Q 16.5 59.96875 16.5 54.203125 
Q 16.5 49.359375 19.40625 46.890625 
Q 22.3125 44.4375 30.421875 42.921875 
L 36.375 41.703125 
Q 47.40625 39.59375 52.65625 34.296875 
Q 57.90625 29 57.90625 20.125 
Q 57.90625 9.515625 50.796875 4.046875 
Q 43.703125 -1.421875 29.984375 -1.421875 
Q 24.8125 -1.421875 18.96875 -0.25 
Q 13.140625 0.921875 6.890625 3.21875 
L 6.890625 13.375 
Q 12.890625 10.015625 18.65625 8.296875 
Q 24.421875 6.59375 29.984375 6.59375 
Q 38.421875 6.59375 43.015625 9.90625 
Q 47.609375 13.234375 47.609375 19.390625 
Q 47.609375 24.75 44.3125 27.78125 
Q 41.015625 30.8125 33.5 32.328125 
L 27.484375 33.5 
Q 16.453125 35.6875 11.515625 40.375 
Q 6.59375 45.0625 6.59375 53.421875 
Q 6.59375 63.09375 13.40625 68.65625 
Q 20.21875 74.21875 32.171875 74.21875 
Q 37.3125 74.21875 42.625 73.28125 
Q 47.953125 72.359375 53.515625 70.515625 
z
" id="DejaVuSans-53"/>
     <path d="M 41.109375 46.296875 
Q 39.59375 47.171875 37.8125 47.578125 
Q 36.03125 48 33.890625 48 
Q 26.265625 48 22.1875 43.046875 
Q 18.109375 38.09375 18.109375 28.8125 
L 18.109375 0 
L 9.078125 0 
L 9.078125 54.6875 
L 18.109375 54.6875 
L 18.109375 46.1875 
Q 20.953125 51.171875 25.484375 53.578125 
Q 30.03125 56 36.53125 56 
Q 37.453125 56 38.578125 55.875 
Q 39.703125 55.765625 41.0625 55.515625 
z
" id="DejaVuSans-72"/>
    </defs>
    <g transform="translate(84.402699 35.472)scale(0.12 -0.12)">
     <use xlink:href="#DejaVuSans-49"/>
     <use x="29.492188" xlink:href="#DejaVuSans-42"/>
     <use x="98.095703" xlink:href="#DejaVuSans-49"/>
     <use x="127.587891" xlink:href="#DejaVuSans-20"/>
     <use x="159.375" xlink:href="#DejaVuSans-2d"/>
     <use x="195.458984" xlink:href="#DejaVuSans-20"/>
     <use x="227.246094" xlink:href="#DejaVuSans-52"/>
     <use x="296.666016" xlink:href="#DejaVuSans-65"/>
     <use x="358.189453" xlink:href="#DejaVuSans-67"/>
     <use x="421.666016" xlink:href="#DejaVuSans-20"/>
     <use x="453.453125" xlink:href="#DejaVuSans-76"/>
     <use x="512.632812" xlink:href="#DejaVuSans-73"/>
     <use x="564.732422" xlink:href="#DejaVuSans-20"/>
     <use x="596.519531" xlink:href="#DejaVuSans-53"/>
     <use x="659.996094" xlink:href="#DejaVuSans-74"/>
     <use x="699.205078" xlink:href="#DejaVuSans-72"/>
     <use x="740.287109" xlink:href="#DejaVuSans-65"/>
     <use x="801.810547" xlink:href="#DejaVuSans-73"/>
     <use x="853.910156" xlink:href="#DejaVuSans-73"/>
    </g>
   </g>
   <g id="legend_1">
    <g id="patch_7">
     <path d="M 143.71946 198.045187 
L 212.927273 198.045187 
Q 214.927273 198.045187 214.927273 196.045187 
L 214.927273 153.010812 
Q 214.927273 151.010812 212.927273 151.010812 
L 143.71946 151.010812 
Q 141.71946 151.010812 141.71946 153.010812 
L 141.71946 196.045187 
Q 141.71946 198.045187 143.71946 198.045187 
z
" style="fill:#ffffff;opacity:0.8;stroke:#cccccc;stroke-linejoin:miter;"/>
    </g>
    <g id="line2d_21">
     <path d="M 145.71946 159.10925 
L 165.71946 159.10925 
" style="fill:none;stroke:#0000ff;stroke-linecap:square;stroke-width:1.5;"/>
    </g>
    <g id="line2d_22"/>
    <g id="text_20">
     <!-- Reg -->
     <g transform="translate(173.71946 162.60925)scale(0.1 -0.1)">
      <use xlink:href="#DejaVuSans-52"/>
      <use x="69.419922" xlink:href="#DejaVuSans-65"/>
      <use x="130.943359" xlink:href="#DejaVuSans-67"/>
     </g>
    </g>
    <g id="line2d_23">
     <path d="M 145.71946 173.787375 
L 165.71946 173.787375 
" style="fill:none;stroke:#ff0000;stroke-linecap:square;stroke-width:1.5;"/>
    </g>
    <g id="line2d_24"/>
    <g id="text_21">
     <!-- Stress -->
     <g transform="translate(173.71946 177.287375)scale(0.1 -0.1)">
      <use xlink:href="#DejaVuSans-53"/>
      <use x="63.476562" xlink:href="#DejaVuSans-74"/>
      <use x="102.685547" xlink:href="#DejaVuSans-72"/>
      <use x="143.767578" xlink:href="#DejaVuSans-65"/>
      <use x="205.291016" xlink:href="#DejaVuSans-73"/>
      <use x="257.390625" xlink:href="#DejaVuSans-73"/>
     </g>
    </g>
    <g id="line2d_25">
     <path d="M 145.71946 188.4655 
L 165.71946 188.4655 
" style="fill:none;stroke:#000000;stroke-linecap:square;stroke-width:1.5;"/>
    </g>
    <g id="line2d_26"/>
    <g id="text_22">
     <!-- Block C -->
     <defs>
      <path d="M 9.421875 75.984375 
L 18.40625 75.984375 
L 18.40625 0 
L 9.421875 0 
z
" id="DejaVuSans-6c"/>
      <path d="M 30.609375 48.390625 
Q 23.390625 48.390625 19.1875 42.75 
Q 14.984375 37.109375 14.984375 27.296875 
Q 14.984375 17.484375 19.15625 11.84375 
Q 23.34375 6.203125 30.609375 6.203125 
Q 37.796875 6.203125 41.984375 11.859375 
Q 46.1875 17.53125 46.1875 27.296875 
Q 46.1875 37.015625 41.984375 42.703125 
Q 37.796875 48.390625 30.609375 48.390625 
z
M 30.609375 56 
Q 42.328125 56 49.015625 48.375 
Q 55.71875 40.765625 55.71875 27.296875 
Q 55.71875 13.875 49.015625 6.21875 
Q 42.328125 -1.421875 30.609375 -1.421875 
Q 18.84375 -1.421875 12.171875 6.21875 
Q 5.515625 13.875 5.515625 27.296875 
Q 5.515625 40.765625 12.171875 48.375 
Q 18.84375 56 30.609375 56 
z
" id="DejaVuSans-6f"/>
      <path d="M 48.78125 52.59375 
L 48.78125 44.1875 
Q 44.96875 46.296875 41.140625 47.34375 
Q 37.3125 48.390625 33.40625 48.390625 
Q 24.65625 48.390625 19.8125 42.84375 
Q 14.984375 37.3125 14.984375 27.296875 
Q 14.984375 17.28125 19.8125 11.734375 
Q 24.65625 6.203125 33.40625 6.203125 
Q 37.3125 6.203125 41.140625 7.25 
Q 44.96875 8.296875 48.78125 10.40625 
L 48.78125 2.09375 
Q 45.015625 0.34375 40.984375 -0.53125 
Q 36.96875 -1.421875 32.421875 -1.421875 
Q 20.0625 -1.421875 12.78125 6.34375 
Q 5.515625 14.109375 5.515625 27.296875 
Q 5.515625 40.671875 12.859375 48.328125 
Q 20.21875 56 33.015625 56 
Q 37.15625 56 41.109375 55.140625 
Q 45.0625 54.296875 48.78125 52.59375 
z
" id="DejaVuSans-63"/>
      <path d="M 9.078125 75.984375 
L 18.109375 75.984375 
L 18.109375 31.109375 
L 44.921875 54.6875 
L 56.390625 54.6875 
L 27.390625 29.109375 
L 57.625 0 
L 45.90625 0 
L 18.109375 26.703125 
L 18.109375 0 
L 9.078125 0 
z
" id="DejaVuSans-6b"/>
      <path d="M 64.40625 67.28125 
L 64.40625 56.890625 
Q 59.421875 61.53125 53.78125 63.8125 
Q 48.140625 66.109375 41.796875 66.109375 
Q 29.296875 66.109375 22.65625 58.46875 
Q 16.015625 50.828125 16.015625 36.375 
Q 16.015625 21.96875 22.65625 14.328125 
Q 29.296875 6.6875 41.796875 6.6875 
Q 48.140625 6.6875 53.78125 8.984375 
Q 59.421875 11.28125 64.40625 15.921875 
L 64.40625 5.609375 
Q 59.234375 2.09375 53.4375 0.328125 
Q 47.65625 -1.421875 41.21875 -1.421875 
Q 24.65625 -1.421875 15.125 8.703125 
Q 5.609375 18.84375 5.609375 36.375 
Q 5.609375 53.953125 15.125 64.078125 
Q 24.65625 74.21875 41.21875 74.21875 
Q 47.75 74.21875 53.53125 72.484375 
Q 59.328125 70.75 64.40625 67.28125 
z
" id="DejaVuSans-43"/>
     </defs>
     <g transform="translate(173.71946 191.9655)scale(0.1 -0.1)">
      <use xlink:href="#DejaVuSans-42"/>
      <use x="68.603516" xlink:href="#DejaVuSans-6c"/>
      <use x="96.386719" xlink:href="#DejaVuSans-6f"/>
      <use x="157.568359" xlink:href="#DejaVuSans-63"/>
      <use x="212.548828" xlink:href="#DejaVuSans-6b"/>
      <use x="270.458984" xlink:href="#DejaVuSans-20"/>
      <use x="302.246094" xlink:href="#DejaVuSans-43"/>
     </g>
    </g>
   </g>
  </g>
  <g id="axes_2">
   <g id="patch_8">
    <path d="M 252.392727 307.584 
L 414.72 307.584 
L 414.72 41.472 
L 252.392727 41.472 
z
" style="fill:#ffffff;"/>
   </g>
   <g id="matplotlib.axis_3">
    <g id="xtick_13">
     <g id="line2d_27">
      <g>
       <use style="stroke:#000000;stroke-width:0.8;" x="259.77124" xlink:href="#m754efeb707" y="307.584"/>
      </g>
     </g>
     <g id="text_23">
      <!-- 0.0 -->
      <g transform="translate(251.819677 322.182437)scale(0.1 -0.1)">
       <use xlink:href="#DejaVuSans-30"/>
       <use x="63.623047" xlink:href="#DejaVuSans-2e"/>
       <use x="95.410156" xlink:href="#DejaVuSans-30"/>
      </g>
     </g>
    </g>
    <g id="xtick_14">
     <g id="line2d_28">
      <g>
       <use style="stroke:#000000;stroke-width:0.8;" x="273.026052" xlink:href="#m754efeb707" y="307.584"/>
      </g>
     </g>
     <g id="text_24">
      <!-- 5.0 -->
      <g transform="translate(265.07449 322.182437)scale(0.1 -0.1)">
       <use xlink:href="#DejaVuSans-35"/>
       <use x="63.623047" xlink:href="#DejaVuSans-2e"/>
       <use x="95.410156" xlink:href="#DejaVuSans-30"/>
      </g>
     </g>
    </g>
    <g id="xtick_15">
     <g id="line2d_29">
      <g>
       <use style="stroke:#000000;stroke-width:0.8;" x="286.280865" xlink:href="#m754efeb707" y="307.584"/>
      </g>
     </g>
     <g id="text_25">
      <!-- 10.0 -->
      <g transform="translate(275.148053 322.182437)scale(0.1 -0.1)">
       <use xlink:href="#DejaVuSans-31"/>
       <use x="63.623047" xlink:href="#DejaVuSans-30"/>
       <use x="127.246094" xlink:href="#DejaVuSans-2e"/>
       <use x="159.033203" xlink:href="#DejaVuSans-30"/>
      </g>
     </g>
    </g>
    <g id="xtick_16">
     <g id="line2d_30">
      <g>
       <use style="stroke:#000000;stroke-width:0.8;" x="299.535678" xlink:href="#m754efeb707" y="307.584"/>
      </g>
     </g>
     <g id="text_26">
      <!-- 15.0 -->
      <g transform="translate(288.402865 322.182437)scale(0.1 -0.1)">
       <use xlink:href="#DejaVuSans-31"/>
       <use x="63.623047" xlink:href="#DejaVuSans-35"/>
       <use x="127.246094" xlink:href="#DejaVuSans-2e"/>
       <use x="159.033203" xlink:href="#DejaVuSans-30"/>
      </g>
     </g>
    </g>
    <g id="xtick_17">
     <g id="line2d_31">
      <g>
       <use style="stroke:#000000;stroke-width:0.8;" x="312.79049" xlink:href="#m754efeb707" y="307.584"/>
      </g>
     </g>
     <g id="text_27">
      <!-- 20.0 -->
      <g transform="translate(301.657678 322.182437)scale(0.1 -0.1)">
       <use xlink:href="#DejaVuSans-32"/>
       <use x="63.623047" xlink:href="#DejaVuSans-30"/>
       <use x="127.246094" xlink:href="#DejaVuSans-2e"/>
       <use x="159.033203" xlink:href="#DejaVuSans-30"/>
      </g>
     </g>
    </g>
    <g id="xtick_18">
     <g id="line2d_32">
      <g>
       <use style="stroke:#000000;stroke-width:0.8;" x="326.045303" xlink:href="#m754efeb707" y="307.584"/>
      </g>
     </g>
     <g id="text_28">
      <!-- 25.0 -->
      <g transform="translate(314.912491 322.182437)scale(0.1 -0.1)">
       <use xlink:href="#DejaVuSans-32"/>
       <use x="63.623047" xlink:href="#DejaVuSans-35"/>
       <use x="127.246094" xlink:href="#DejaVuSans-2e"/>
       <use x="159.033203" xlink:href="#DejaVuSans-30"/>
      </g>
     </g>
    </g>
    <g id="xtick_19">
     <g id="line2d_33">
      <g>
       <use style="stroke:#000000;stroke-width:0.8;" x="339.300116" xlink:href="#m754efeb707" y="307.584"/>
      </g>
     </g>
     <g id="text_29">
      <!-- 30.0 -->
      <g transform="translate(328.167303 322.182437)scale(0.1 -0.1)">
       <use xlink:href="#DejaVuSans-33"/>
       <use x="63.623047" xlink:href="#DejaVuSans-30"/>
       <use x="127.246094" xlink:href="#DejaVuSans-2e"/>
       <use x="159.033203" xlink:href="#DejaVuSans-30"/>
      </g>
     </g>
    </g>
    <g id="xtick_20">
     <g id="line2d_34">
      <g>
       <use style="stroke:#000000;stroke-width:0.8;" x="352.554928" xlink:href="#m754efeb707" y="307.584"/>
      </g>
     </g>
     <g id="text_30">
      <!-- 35.0 -->
      <g transform="translate(341.422116 322.182437)scale(0.1 -0.1)">
       <use xlink:href="#DejaVuSans-33"/>
       <use x="63.623047" xlink:href="#DejaVuSans-35"/>
       <use x="127.246094" xlink:href="#DejaVuSans-2e"/>
       <use x="159.033203" xlink:href="#DejaVuSans-30"/>
      </g>
     </g>
    </g>
    <g id="xtick_21">
     <g id="line2d_35">
      <g>
       <use style="stroke:#000000;stroke-width:0.8;" x="365.809741" xlink:href="#m754efeb707" y="307.584"/>
      </g>
     </g>
     <g id="text_31">
      <!-- 40.0 -->
      <g transform="translate(354.676929 322.182437)scale(0.1 -0.1)">
       <use xlink:href="#DejaVuSans-34"/>
       <use x="63.623047" xlink:href="#DejaVuSans-30"/>
       <use x="127.246094" xlink:href="#DejaVuSans-2e"/>
       <use x="159.033203" xlink:href="#DejaVuSans-30"/>
      </g>
     </g>
    </g>
    <g id="xtick_22">
     <g id="line2d_36">
      <g>
       <use style="stroke:#000000;stroke-width:0.8;" x="379.064554" xlink:href="#m754efeb707" y="307.584"/>
      </g>
     </g>
     <g id="text_32">
      <!-- 45.0 -->
      <g transform="translate(367.931741 322.182437)scale(0.1 -0.1)">
       <use xlink:href="#DejaVuSans-34"/>
       <use x="63.623047" xlink:href="#DejaVuSans-35"/>
       <use x="127.246094" xlink:href="#DejaVuSans-2e"/>
       <use x="159.033203" xlink:href="#DejaVuSans-30"/>
      </g>
     </g>
    </g>
    <g id="xtick_23">
     <g id="line2d_37">
      <g>
       <use style="stroke:#000000;stroke-width:0.8;" x="392.319367" xlink:href="#m754efeb707" y="307.584"/>
      </g>
     </g>
     <g id="text_33">
      <!-- 50.0 -->
      <g transform="translate(381.186554 322.182437)scale(0.1 -0.1)">
       <use xlink:href="#DejaVuSans-35"/>
       <use x="63.623047" xlink:href="#DejaVuSans-30"/>
       <use x="127.246094" xlink:href="#DejaVuSans-2e"/>
       <use x="159.033203" xlink:href="#DejaVuSans-30"/>
      </g>
     </g>
    </g>
    <g id="xtick_24">
     <g id="line2d_38">
      <g>
       <use style="stroke:#000000;stroke-width:0.8;" x="405.574179" xlink:href="#m754efeb707" y="307.584"/>
      </g>
     </g>
     <g id="text_34">
      <!-- 55.0 -->
      <g transform="translate(394.441367 322.182437)scale(0.1 -0.1)">
       <use xlink:href="#DejaVuSans-35"/>
       <use x="63.623047" xlink:href="#DejaVuSans-35"/>
       <use x="127.246094" xlink:href="#DejaVuSans-2e"/>
       <use x="159.033203" xlink:href="#DejaVuSans-30"/>
      </g>
     </g>
    </g>
    <g id="text_35">
     <!-- Minutes -->
     <g transform="translate(313.874332 335.860562)scale(0.1 -0.1)">
      <use xlink:href="#DejaVuSans-4d"/>
      <use x="86.279297" xlink:href="#DejaVuSans-69"/>
      <use x="114.0625" xlink:href="#DejaVuSans-6e"/>
      <use x="177.441406" xlink:href="#DejaVuSans-75"/>
      <use x="240.820312" xlink:href="#DejaVuSans-74"/>
      <use x="280.029297" xlink:href="#DejaVuSans-65"/>
      <use x="341.552734" xlink:href="#DejaVuSans-73"/>
     </g>
    </g>
   </g>
   <g id="matplotlib.axis_4">
    <g id="ytick_6">
     <g id="line2d_39">
      <g>
       <use style="stroke:#000000;stroke-width:0.8;" x="252.392727" xlink:href="#ma3327efc5f" y="307.584"/>
      </g>
     </g>
     <g id="text_36">
      <!-- 1.00 -->
      <g transform="translate(223.127102 311.383219)scale(0.1 -0.1)">
       <use xlink:href="#DejaVuSans-31"/>
       <use x="63.623047" xlink:href="#DejaVuSans-2e"/>
       <use x="95.410156" xlink:href="#DejaVuSans-30"/>
       <use x="159.033203" xlink:href="#DejaVuSans-30"/>
      </g>
     </g>
    </g>
    <g id="ytick_7">
     <g id="line2d_40">
      <g>
       <use style="stroke:#000000;stroke-width:0.8;" x="252.392727" xlink:href="#ma3327efc5f" y="274.32"/>
      </g>
     </g>
     <g id="text_37">
      <!-- 1.25 -->
      <g transform="translate(223.127102 278.119219)scale(0.1 -0.1)">
       <use xlink:href="#DejaVuSans-31"/>
       <use x="63.623047" xlink:href="#DejaVuSans-2e"/>
       <use x="95.410156" xlink:href="#DejaVuSans-32"/>
       <use x="159.033203" xlink:href="#DejaVuSans-35"/>
      </g>
     </g>
    </g>
    <g id="ytick_8">
     <g id="line2d_41">
      <g>
       <use style="stroke:#000000;stroke-width:0.8;" x="252.392727" xlink:href="#ma3327efc5f" y="241.056"/>
      </g>
     </g>
     <g id="text_38">
      <!-- 1.50 -->
      <g transform="translate(223.127102 244.855219)scale(0.1 -0.1)">
       <use xlink:href="#DejaVuSans-31"/>
       <use x="63.623047" xlink:href="#DejaVuSans-2e"/>
       <use x="95.410156" xlink:href="#DejaVuSans-35"/>
       <use x="159.033203" xlink:href="#DejaVuSans-30"/>
      </g>
     </g>
    </g>
    <g id="ytick_9">
     <g id="line2d_42">
      <g>
       <use style="stroke:#000000;stroke-width:0.8;" x="252.392727" xlink:href="#ma3327efc5f" y="207.792"/>
      </g>
     </g>
     <g id="text_39">
      <!-- 1.75 -->
      <defs>
       <path d="M 8.203125 72.90625 
L 55.078125 72.90625 
L 55.078125 68.703125 
L 28.609375 0 
L 18.3125 0 
L 43.21875 64.59375 
L 8.203125 64.59375 
z
" id="DejaVuSans-37"/>
      </defs>
      <g transform="translate(223.127102 211.591219)scale(0.1 -0.1)">
       <use xlink:href="#DejaVuSans-31"/>
       <use x="63.623047" xlink:href="#DejaVuSans-2e"/>
       <use x="95.410156" xlink:href="#DejaVuSans-37"/>
       <use x="159.033203" xlink:href="#DejaVuSans-35"/>
      </g>
     </g>
    </g>
    <g id="ytick_10">
     <g id="line2d_43">
      <g>
       <use style="stroke:#000000;stroke-width:0.8;" x="252.392727" xlink:href="#ma3327efc5f" y="174.528"/>
      </g>
     </g>
     <g id="text_40">
      <!-- 2.00 -->
      <g transform="translate(223.127102 178.327219)scale(0.1 -0.1)">
       <use xlink:href="#DejaVuSans-32"/>
       <use x="63.623047" xlink:href="#DejaVuSans-2e"/>
       <use x="95.410156" xlink:href="#DejaVuSans-30"/>
       <use x="159.033203" xlink:href="#DejaVuSans-30"/>
      </g>
     </g>
    </g>
    <g id="ytick_11">
     <g id="line2d_44">
      <g>
       <use style="stroke:#000000;stroke-width:0.8;" x="252.392727" xlink:href="#ma3327efc5f" y="141.264"/>
      </g>
     </g>
     <g id="text_41">
      <!-- 2.25 -->
      <g transform="translate(223.127102 145.063219)scale(0.1 -0.1)">
       <use xlink:href="#DejaVuSans-32"/>
       <use x="63.623047" xlink:href="#DejaVuSans-2e"/>
       <use x="95.410156" xlink:href="#DejaVuSans-32"/>
       <use x="159.033203" xlink:href="#DejaVuSans-35"/>
      </g>
     </g>
    </g>
    <g id="ytick_12">
     <g id="line2d_45">
      <g>
       <use style="stroke:#000000;stroke-width:0.8;" x="252.392727" xlink:href="#ma3327efc5f" y="108"/>
      </g>
     </g>
     <g id="text_42">
      <!-- 2.50 -->
      <g transform="translate(223.127102 111.799219)scale(0.1 -0.1)">
       <use xlink:href="#DejaVuSans-32"/>
       <use x="63.623047" xlink:href="#DejaVuSans-2e"/>
       <use x="95.410156" xlink:href="#DejaVuSans-35"/>
       <use x="159.033203" xlink:href="#DejaVuSans-30"/>
      </g>
     </g>
    </g>
    <g id="ytick_13">
     <g id="line2d_46">
      <g>
       <use style="stroke:#000000;stroke-width:0.8;" x="252.392727" xlink:href="#ma3327efc5f" y="74.736"/>
      </g>
     </g>
     <g id="text_43">
      <!-- 2.75 -->
      <g transform="translate(223.127102 78.535219)scale(0.1 -0.1)">
       <use xlink:href="#DejaVuSans-32"/>
       <use x="63.623047" xlink:href="#DejaVuSans-2e"/>
       <use x="95.410156" xlink:href="#DejaVuSans-37"/>
       <use x="159.033203" xlink:href="#DejaVuSans-35"/>
      </g>
     </g>
    </g>
    <g id="ytick_14">
     <g id="line2d_47">
      <g>
       <use style="stroke:#000000;stroke-width:0.8;" x="252.392727" xlink:href="#ma3327efc5f" y="41.472"/>
      </g>
     </g>
     <g id="text_44">
      <!-- 3.00 -->
      <g transform="translate(223.127102 45.271219)scale(0.1 -0.1)">
       <use xlink:href="#DejaVuSans-33"/>
       <use x="63.623047" xlink:href="#DejaVuSans-2e"/>
       <use x="95.410156" xlink:href="#DejaVuSans-30"/>
       <use x="159.033203" xlink:href="#DejaVuSans-30"/>
      </g>
     </g>
    </g>
   </g>
   <g id="line2d_48">
    <path clip-path="url(#p04c5612a1c)" d="M 259.77124 138.923469 
L 259.992153 113.929289 
L 260.213067 154.63549 
L 260.43398 178.72089 
L 260.654894 246.486456 
L 260.875807 143.121869 
L 261.096721 192.699764 
L 261.317634 160.384917 
L 261.538548 127.796197 
L 261.759462 141.147483 
L 261.980375 170.386661 
L 262.201289 157.491498 
L 262.422202 201.471479 
L 262.643116 138.025475 
L 262.864029 297.239139 
L 263.084943 117.924261 
L 263.305856 277.735037 
L 263.52677 134.0317 
L 263.747683 157.855888 
L 263.968597 142.094603 
L 264.189511 142.625145 
L 264.410424 183.164524 
L 264.631338 137.226801 
L 264.852251 187.588723 
L 265.073165 161.329373 
L 265.294078 171.305821 
L 265.514992 151.610668 
L 265.735905 157.913934 
L 265.956819 173.307238 
L 266.177732 179.796483 
L 266.398646 171.101064 
L 266.61956 171.784709 
L 266.840473 169.661211 
L 267.061387 148.252346 
L 267.2823 149.170177 
L 267.503214 173.402561 
L 267.724127 159.839463 
L 267.945041 176.592599 
L 268.165954 159.592897 
L 268.386868 141.797046 
L 268.607781 154.383999 
L 268.828695 151.453836 
L 269.049609 176.908262 
L 269.270522 187.242307 
L 269.491436 172.441993 
L 269.712349 180.785407 
L 269.933263 149.879251 
L 270.154176 152.301373 
L 270.37509 232.270198 
L 270.596003 168.328135 
L 270.816917 165.037311 
L 271.03783 193.085987 
L 271.258744 165.087102 
L 271.479658 156.036467 
L 271.700571 159.498104 
L 271.921485 225.963738 
L 272.142398 170.175107 
L 272.363312 183.810226 
L 272.584225 153.722984 
L 272.805139 177.816505 
L 273.026052 170.226369 
L 273.246966 150.184528 
L 273.467879 181.752631 
L 273.688793 162.445309 
L 273.909707 200.558573 
L 274.13062 173.797706 
L 274.351534 228.454956 
L 274.572447 157.255982 
L 274.793361 159.777422 
L 275.014274 204.612525 
L 275.235188 189.507327 
L 275.456101 169.072624 
L 275.677015 158.565363 
L 275.897928 152.884102 
L 276.118842 173.819805 
L 276.339756 176.212898 
L 276.560669 168.324007 
L 276.781583 187.579537 
L 277.002496 177.581522 
L 277.22341 163.554056 
L 277.444323 149.49356 
L 277.665237 188.542101 
L 277.88615 151.566601 
L 278.107064 176.572495 
L 278.327977 160.812677 
L 278.548891 167.423748 
L 278.769805 216.779441 
L 278.990718 185.638832 
L 279.211632 210.46526 
L 279.432545 195.335964 
L 279.653459 166.926093 
L 279.874372 223.280009 
L 280.095286 198.505635 
L 280.316199 175.529519 
L 280.537113 162.752186 
L 280.758026 205.648447 
L 280.97894 203.576339 
L 281.199854 241.360902 
L 281.420767 191.401967 
L 281.641681 177.080405 
L 281.862594 233.531649 
L 282.083508 160.939684 
L 282.304421 179.404801 
L 282.525335 253.088872 
L 282.746248 182.915428 
L 282.967162 216.179003 
L 283.188075 172.007444 
L 283.408989 235.286498 
L 283.629903 175.654267 
L 283.850816 163.262491 
L 284.07173 156.280504 
L 284.292643 189.146798 
L 284.513557 179.814855 
L 284.73447 186.479712 
L 284.955384 184.953587 
L 285.176297 185.700206 
L 285.397211 193.667919 
L 285.618124 155.467982 
L 285.839038 154.489043 
L 286.059952 158.739504 
L 286.280865 192.796154 
L 286.501779 161.380764 
L 286.722692 200.736043 
" style="fill:none;stroke:#0000ff;stroke-linecap:square;stroke-width:1.5;"/>
   </g>
   <g id="line2d_49">
    <path clip-path="url(#p04c5612a1c)" d="M 286.943606 135.120609 
L 287.164519 146.019544 
L 287.385433 184.652171 
L 287.606346 145.568882 
L 287.82726 165.426863 
L 288.048173 202.864733 
L 288.269087 167.646884 
L 288.49 168.032307 
L 288.710914 160.89469 
L 288.931828 170.467741 
L 289.152741 173.11752 
L 289.373655 160.520712 
L 289.594568 156.192501 
L 289.815482 157.928979 
L 290.036395 187.249896 
L 290.257309 166.030096 
L 290.478222 171.971764 
L 290.699136 170.307182 
L 290.920049 147.117505 
L 291.361877 195.672262 
L 291.58279 163.25317 
L 291.803704 181.59886 
L 292.024617 186.043162 
L 292.245531 157.294858 
L 292.466444 175.975921 
L 292.687358 234.977491 
L 292.908271 196.769425 
L 293.350098 163.400152 
L 293.571012 192.139134 
L 293.791926 185.008839 
L 294.012839 210.526103 
L 294.233753 169.960632 
L 294.454666 195.389085 
L 294.67558 170.527252 
L 294.896493 198.446124 
L 295.117407 155.998391 
L 295.33832 233.225972 
L 295.559234 193.055899 
L 295.780147 182.246293 
L 296.001061 194.859075 
L 296.221975 191.097887 
L 296.442888 163.629943 
L 296.663802 180.474005 
L 296.884715 215.164117 
L 297.326542 171.659298 
L 297.547456 164.188575 
L 297.768369 183.219242 
L 297.989283 240.664608 
L 298.210196 177.231647 
L 298.43111 181.976965 
L 298.652024 199.702384 
L 298.872937 185.28243 
L 299.093851 200.131877 
L 299.314764 170.673968 
L 299.535678 205.62821 
L 299.756591 182.291826 
L 299.977505 194.927506 
L 300.198418 183.990757 
L 300.419332 188.367294 
L 300.861159 182.640506 
L 301.5239 165.021999 
L 301.744813 247.551667 
L 301.965727 173.609187 
L 302.407554 184.519169 
L 302.628467 183.394447 
L 302.849381 173.731005 
L 303.070294 182.437076 
L 303.291208 168.103669 
L 303.512122 181.288125 
L 303.733035 181.198924 
L 303.953949 193.29594 
L 304.174862 186.497018 
L 304.395776 198.537588 
L 304.616689 168.508132 
L 304.837603 165.168447 
L 305.058516 200.48069 
L 305.27943 202.103869 
L 305.500343 168.883969 
L 305.721257 153.496123 
L 305.942171 150.214882 
L 306.163084 156.497912 
L 306.383998 234.298771 
L 306.604911 212.992957 
L 306.825825 150.69364 
L 307.046738 142.762271 
L 307.267652 141.754577 
L 307.488565 131.990077 
L 307.930392 174.58959 
L 308.151306 153.568015 
L 308.37222 144.988814 
L 308.593133 128.509268 
L 308.814047 144.049419 
L 309.03496 144.014803 
L 309.255874 215.907409 
L 309.697701 141.875197 
L 309.918614 170.986434 
L 310.139528 241.121659 
L 310.581355 141.757505 
L 310.802269 235.130996 
L 311.023182 157.56379 
L 311.244096 176.449212 
L 311.465009 230.874146 
L 311.685923 115.221358 
L 311.906836 145.653688 
L 312.12775 149.083772 
L 312.348663 143.025611 
L 312.569577 172.06975 
L 312.79049 182.066296 
L 313.011404 150.732248 
L 313.232318 144.371338 
L 313.453231 164.877415 
L 313.674145 197.687125 
L 313.895058 80.585831 
L 314.115972 169.323982 
L 314.557799 217.946901 
L 314.778712 210.161314 
L 314.999626 96.521522 
L 315.441453 223.152334 
L 315.662367 117.763966 
L 315.88328 158.936144 
L 316.104194 118.596059 
L 316.325107 118.573958 
L 316.546021 141.928983 
L 316.766934 121.420244 
L 316.987848 164.828155 
L 317.650588 122.708989 
L 317.871502 154.008959 
L 318.092415 123.766345 
L 318.313329 143.616331 
L 318.534243 188.023542 
L 318.755156 138.870214 
L 318.97607 123.94927 
L 319.196983 132.548045 
L 319.258215 346.6 
M 319.589919 346.6 
L 319.63881 187.949785 
L 319.859724 21.703276 
L 320.080637 138.39226 
L 320.140719 346.6 
M 320.482269 346.6 
L 320.522464 222.633375 
L 320.743378 72.003701 
L 320.964292 94.695181 
L 321.185205 132.550577 
L 321.406119 127.606349 
L 321.627032 134.947 
L 321.847946 91.346442 
L 322.068859 130.069875 
L 322.289773 211.595042 
L 322.510686 79.26327 
L 322.7316 78.0833 
L 322.952513 87.572336 
L 323.173427 119.10756 
L 323.394341 121.697696 
L 323.615254 166.097993 
L 323.836168 116.277384 
L 324.057081 157.065866 
L 324.277995 116.944521 
L 324.498908 206.974068 
L 324.719822 101.356179 
L 324.940735 165.690869 
L 325.161649 191.874463 
L 325.382562 153.639508 
L 325.603476 149.221698 
L 325.82439 270.562405 
L 326.045303 229.501262 
L 326.266217 145.852327 
L 326.48713 116.153305 
L 326.928957 174.356071 
L 327.370784 109.066145 
L 327.591698 164.36205 
L 327.812611 150.32073 
L 328.033525 228.710041 
L 328.254439 192.785769 
L 328.475352 113.625075 
L 328.696266 168.775996 
L 328.917179 168.998066 
L 328.970492 346.6 
M 329.326128 346.6 
L 329.359006 248.975676 
L 329.57992 85.220381 
L 329.800833 102.374262 
L 330.021747 218.296512 
L 330.24266 176.760347 
L 330.463574 182.408053 
L 330.684488 252.746849 
L 330.905401 160.175494 
L 331.126315 149.425796 
L 331.347228 154.701524 
L 331.568142 285.511303 
L 331.789055 157.80689 
L 332.230882 106.453907 
L 332.451796 137.248499 
L 332.672709 114.486589 
L 332.893623 119.006113 
L 333.114537 194.18781 
L 333.33545 109.345461 
L 333.556364 121.692769 
L 333.777277 201.798457 
L 333.998191 234.235665 
L 334.219104 185.937719 
L 334.440018 181.102535 
L 334.660931 172.739551 
L 334.881845 132.387485 
L 335.102758 129.087209 
L 335.323672 155.933155 
L 335.544586 224.100385 
L 335.765499 115.401625 
L 335.986413 188.218583 
L 336.207326 134.135807 
L 336.42824 116.147845 
L 336.649153 258.911786 
L 336.870067 112.092561 
L 337.311894 151.14483 
L 337.532807 138.617657 
L 337.974635 168.135754 
L 338.195548 260.218237 
L 338.416462 146.653266 
L 338.637375 176.986677 
L 339.079202 165.956206 
L 339.300116 155.008534 
L 339.741943 268.447826 
L 339.962856 119.511757 
L 340.18377 125.61505 
L 340.404684 190.848792 
L 340.625597 173.419866 
L 340.846511 132.158095 
L 341.067424 131.393501 
L 341.288338 201.149026 
L 341.509251 129.21182 
L 341.730165 132.373774 
L 341.951078 123.244855 
L 342.171992 341.422555 
L 342.392905 143.356586 
L 342.613819 123.680472 
L 342.834733 159.852776 
L 342.890154 346.6 
M 343.270546 346.6 
L 343.27656 330.995311 
L 343.497473 112.79711 
L 343.718387 113.267875 
L 343.9393 157.293261 
L 344.160214 151.146827 
L 344.381127 140.697753 
L 344.822954 190.245958 
L 345.043868 180.215325 
L 345.264782 211.663474 
L 345.485695 116.723783 
L 345.706609 199.702517 
L 345.927522 167.189831 
L 346.148436 266.584074 
L 346.369349 163.078633 
L 346.590263 158.000605 
L 346.811176 157.877322 
L 347.03209 91.036637 
L 347.473917 177.273183 
L 347.694831 144.682206 
L 347.915744 137.529813 
L 348.136658 146.667647 
L 348.357571 145.918099 
L 348.578485 127.836804 
L 348.799398 194.080504 
L 349.020312 144.341514 
L 349.462139 212.546424 
L 349.683052 184.425313 
L 349.903966 195.589852 
L 350.124879 162.995685 
L 350.345793 252.730607 
L 350.566707 109.345993 
L 350.78762 81.713878 
L 351.450361 127.864363 
L 351.671274 107.700979 
L 351.892188 149.884578 
L 352.113101 136.67562 
L 352.334015 158.045472 
L 352.554928 140.279579 
L 352.775842 153.734835 
L 352.996756 125.898762 
L 352.996756 125.898762 
" style="fill:none;stroke:#ff0000;stroke-linecap:square;stroke-width:1.5;"/>
   </g>
   <g id="line2d_50">
    <path clip-path="url(#p04c5612a1c)" d="M 353.217669 155.991955 
L 353.438583 93.785961 
L 353.659496 55.575016 
L 353.88041 181.417286 
L 354.101323 174.739296 
L 354.322237 237.203942 
L 354.54315 237.369982 
L 354.764064 146.949783 
L 354.984977 220.467854 
L 355.205891 210.925368 
L 355.426805 244.007406 
L 355.647718 159.951052 
L 355.868632 184.87824 
L 356.089545 224.450895 
L 356.310459 228.0818 
L 357.194113 178.931596 
L 357.415026 180.853186 
L 357.63594 283.713477 
L 357.856854 208.127389 
L 358.077767 176.11671 
L 358.298681 225.451407 
L 358.519594 218.285642 
L 358.740508 230.554746 
L 358.961421 158.916752 
L 359.182335 237.458194 
L 359.403248 167.866379 
L 359.845075 236.540189 
L 360.286903 152.10137 
L 360.507816 186.336967 
L 360.72873 191.816319 
L 360.949643 238.86525 
L 361.39147 185.96742 
L 361.612384 203.925521 
L 361.833297 170.392664 
L 362.054211 235.759025 
L 362.275124 191.585885 
L 362.496038 205.353894 
L 362.716952 248.170248 
L 362.937865 187.044224 
L 363.158779 244.827433 
L 363.379692 191.620383 
L 363.600606 170.246146 
L 363.821519 131.555412 
L 364.042433 144.362862 
L 364.263346 207.88074 
L 364.48426 161.113123 
L 364.705173 183.710212 
L 364.926087 170.612935 
L 365.147001 229.442607 
L 365.367914 180.234276 
L 365.588828 194.317041 
L 365.809741 142.423562 
L 366.030655 156.254205 
L 366.251568 222.666522 
L 366.472482 213.132592 
L 366.693395 169.535465 
L 366.914309 164.227752 
L 367.135222 155.703246 
L 367.356136 158.02714 
L 367.57705 186.978562 
L 367.797963 172.73779 
L 368.018877 171.987318 
L 368.23979 130.700022 
L 368.460704 160.681452 
L 368.681617 216.046782 
L 368.902531 209.108705 
L 369.123444 131.964885 
L 369.344358 178.498859 
L 369.565271 183.796134 
L 369.786185 216.436241 
L 370.007099 205.020183 
L 370.228012 175.369498 
L 370.448926 225.505867 
L 370.669839 181.023043 
L 370.890753 234.675444 
L 371.33258 153.203728 
L 371.553493 201.914187 
L 371.774407 183.174549 
L 371.99532 216.546389 
L 372.216234 162.598487 
L 372.437148 173.855691 
L 372.658061 196.301344 
L 372.878975 177.752699 
L 373.099888 201.621262 
L 373.320802 209.422946 
L 373.541715 192.538176 
L 373.762629 132.665272 
L 373.983542 203.408453 
L 374.204456 236.224726 
L 374.425369 206.64904 
L 374.646283 142.670855 
L 374.867197 185.749063 
L 375.08811 139.447207 
L 375.529937 216.421591 
L 375.750851 144.662157 
L 375.971764 143.066663 
L 376.192678 168.832197 
L 376.413591 174.074953 
L 376.634505 228.437668 
L 376.855418 143.818088 
L 377.076332 163.575115 
L 377.297246 150.087589 
L 377.518159 176.382342 
L 377.739073 187.64337 
L 377.959986 232.597545 
L 378.1809 142.025534 
L 378.401813 211.839213 
L 378.622727 216.66778 
L 378.84364 227.345378 
L 379.064554 150.239128 
L 379.285467 130.821062 
L 379.506381 192.450344 
L 379.727295 186.884957 
L 379.948208 220.395131 
L 380.169122 222.88559 
L 380.390035 139.146987 
L 380.610949 227.513793 
L 380.831862 185.754466 
L 381.052776 218.499556 
L 381.273689 141.609075 
L 381.494603 169.823202 
L 381.715516 213.713658 
L 381.93643 224.517285 
L 382.157343 182.999443 
L 382.378257 199.727629 
L 382.599171 164.485606 
L 382.820084 166.185927 
L 383.040998 191.733806 
L 383.261911 234.767766 
L 383.482825 162.517483 
L 383.924652 161.47596 
L 384.145565 205.092825 
L 384.366479 212.278188 
L 384.587392 178.212881 
L 384.808306 126.57827 
L 385.02922 210.077314 
L 385.250133 187.614155 
L 385.471047 269.775411 
L 385.69196 161.157542 
L 385.912874 153.635675 
L 386.133787 249.873079 
L 386.354701 200.574028 
L 387.017441 158.696819 
L 387.459269 232.191557 
L 387.680182 178.416326 
L 387.901096 161.497067 
L 388.122009 180.59322 
L 388.342923 171.640927 
L 388.563836 172.178552 
L 388.78475 205.369047 
L 389.005663 160.095351 
L 389.226577 159.683028 
L 389.44749 161.837498 
L 389.668404 156.754423 
L 389.889318 160.440532 
L 390.110231 118.75558 
L 390.331145 130.746699 
L 390.552058 150.233306 
L 390.772972 223.761439 
L 390.993885 208.613121 
L 391.435712 130.057982 
L 391.656626 162.067197 
L 391.877539 233.257081 
L 392.098453 162.982977 
L 392.319367 179.120585 
L 392.54028 156.202137 
L 392.982107 193.321242 
L 393.203021 226.799292 
L 393.644848 100.36615 
L 394.086675 229.153795 
L 394.528502 145.778481 
L 394.749416 191.284874 
L 394.970329 196.978735 
L 395.191243 224.289483 
L 395.63307 169.236013 
L 395.853983 187.009349 
L 396.074897 164.638992 
L 396.29581 215.217008 
L 396.516724 210.847911 
L 396.958551 145.135807 
L 397.179465 168.383604 
L 397.400378 207.627549 
L 397.621292 208.249341 
L 397.842205 181.389205 
L 398.063119 127.618398 
L 398.284032 212.215302 
L 398.504946 183.756179 
L 398.725859 247.241018 
L 399.167686 137.183112 
L 399.3886 235.378719 
L 399.609514 169.01484 
L 399.830427 207.412268 
L 400.051341 168.653407 
L 400.272254 105.484121 
L 400.493168 141.87588 
L 400.714081 153.950852 
L 400.934995 98.138683 
L 401.155908 171.178723 
L 401.376822 131.150861 
L 401.597735 238.940981 
L 401.818649 170.41937 
L 402.039563 167.502064 
L 402.260476 150.818031 
L 402.48139 205.562132 
L 402.702303 174.875158 
L 402.923217 211.595181 
L 403.14413 192.23941 
L 403.365044 143.531221 
L 403.585957 120.52285 
L 403.806871 187.748979 
L 404.027784 178.261778 
L 404.248698 200.482101 
L 404.469612 174.050518 
L 404.690525 181.57114 
L 404.911439 167.463137 
L 405.132352 209.765899 
L 405.353266 212.857164 
L 405.795093 170.915661 
L 406.016006 193.236898 
L 406.23692 177.979458 
L 406.457833 212.873806 
L 406.678747 215.519349 
L 406.899661 134.47169 
L 407.341488 199.190516 
L 407.341488 199.190516 
" style="fill:none;stroke:#000000;stroke-linecap:square;stroke-width:1.5;"/>
   </g>
   <g id="patch_9">
    <path d="M 252.392727 307.584 
L 252.392727 41.472 
" style="fill:none;stroke:#000000;stroke-linecap:square;stroke-linejoin:miter;stroke-width:0.8;"/>
   </g>
   <g id="patch_10">
    <path d="M 414.72 307.584 
L 414.72 41.472 
" style="fill:none;stroke:#000000;stroke-linecap:square;stroke-linejoin:miter;stroke-width:0.8;"/>
   </g>
   <g id="patch_11">
    <path d="M 252.392727 307.584 
L 414.72 307.584 
" style="fill:none;stroke:#000000;stroke-linecap:square;stroke-linejoin:miter;stroke-width:0.8;"/>
   </g>
   <g id="patch_12">
    <path d="M 252.392727 41.472 
L 414.72 41.472 
" style="fill:none;stroke:#000000;stroke-linecap:square;stroke-linejoin:miter;stroke-width:0.8;"/>
   </g>
   <g id="text_45">
    <!-- Pupil - Reg vs Stress -->
    <defs>
     <path d="M 19.671875 64.796875 
L 19.671875 37.40625 
L 32.078125 37.40625 
Q 38.96875 37.40625 42.71875 40.96875 
Q 46.484375 44.53125 46.484375 51.125 
Q 46.484375 57.671875 42.71875 61.234375 
Q 38.96875 64.796875 32.078125 64.796875 
z
M 9.8125 72.90625 
L 32.078125 72.90625 
Q 44.34375 72.90625 50.609375 67.359375 
Q 56.890625 61.8125 56.890625 51.125 
Q 56.890625 40.328125 50.609375 34.8125 
Q 44.34375 29.296875 32.078125 29.296875 
L 19.671875 29.296875 
L 19.671875 0 
L 9.8125 0 
z
" id="DejaVuSans-50"/>
     <path d="M 18.109375 8.203125 
L 18.109375 -20.796875 
L 9.078125 -20.796875 
L 9.078125 54.6875 
L 18.109375 54.6875 
L 18.109375 46.390625 
Q 20.953125 51.265625 25.265625 53.625 
Q 29.59375 56 35.59375 56 
Q 45.5625 56 51.78125 48.09375 
Q 58.015625 40.1875 58.015625 27.296875 
Q 58.015625 14.40625 51.78125 6.484375 
Q 45.5625 -1.421875 35.59375 -1.421875 
Q 29.59375 -1.421875 25.265625 0.953125 
Q 20.953125 3.328125 18.109375 8.203125 
z
M 48.6875 27.296875 
Q 48.6875 37.203125 44.609375 42.84375 
Q 40.53125 48.484375 33.40625 48.484375 
Q 26.265625 48.484375 22.1875 42.84375 
Q 18.109375 37.203125 18.109375 27.296875 
Q 18.109375 17.390625 22.1875 11.75 
Q 26.265625 6.109375 33.40625 6.109375 
Q 40.53125 6.109375 44.609375 11.75 
Q 48.6875 17.390625 48.6875 27.296875 
z
" id="DejaVuSans-70"/>
    </defs>
    <g transform="translate(272.289801 35.472)scale(0.12 -0.12)">
     <use xlink:href="#DejaVuSans-50"/>
     <use x="60.287109" xlink:href="#DejaVuSans-75"/>
     <use x="123.666016" xlink:href="#DejaVuSans-70"/>
     <use x="187.142578" xlink:href="#DejaVuSans-69"/>
     <use x="214.925781" xlink:href="#DejaVuSans-6c"/>
     <use x="242.708984" xlink:href="#DejaVuSans-20"/>
     <use x="274.496094" xlink:href="#DejaVuSans-2d"/>
     <use x="310.580078" xlink:href="#DejaVuSans-20"/>
     <use x="342.367188" xlink:href="#DejaVuSans-52"/>
     <use x="411.787109" xlink:href="#DejaVuSans-65"/>
     <use x="473.310547" xlink:href="#DejaVuSans-67"/>
     <use x="536.787109" xlink:href="#DejaVuSans-20"/>
     <use x="568.574219" xlink:href="#DejaVuSans-76"/>
     <use x="627.753906" xlink:href="#DejaVuSans-73"/>
     <use x="679.853516" xlink:href="#DejaVuSans-20"/>
     <use x="711.640625" xlink:href="#DejaVuSans-53"/>
     <use x="775.117188" xlink:href="#DejaVuSans-74"/>
     <use x="814.326172" xlink:href="#DejaVuSans-72"/>
     <use x="855.408203" xlink:href="#DejaVuSans-65"/>
     <use x="916.931641" xlink:href="#DejaVuSans-73"/>
     <use x="969.03125" xlink:href="#DejaVuSans-73"/>
    </g>
   </g>
   <g id="legend_2">
    <g id="patch_13">
     <path d="M 338.512187 93.506375 
L 407.72 93.506375 
Q 409.72 93.506375 409.72 91.506375 
L 409.72 48.472 
Q 409.72 46.472 407.72 46.472 
L 338.512187 46.472 
Q 336.512187 46.472 336.512187 48.472 
L 336.512187 91.506375 
Q 336.512187 93.506375 338.512187 93.506375 
z
" style="fill:#ffffff;opacity:0.8;stroke:#cccccc;stroke-linejoin:miter;"/>
    </g>
    <g id="line2d_51">
     <path d="M 340.512187 54.570438 
L 360.512187 54.570438 
" style="fill:none;stroke:#0000ff;stroke-linecap:square;stroke-width:1.5;"/>
    </g>
    <g id="line2d_52"/>
    <g id="text_46">
     <!-- Reg -->
     <g transform="translate(368.512187 58.070438)scale(0.1 -0.1)">
      <use xlink:href="#DejaVuSans-52"/>
      <use x="69.419922" xlink:href="#DejaVuSans-65"/>
      <use x="130.943359" xlink:href="#DejaVuSans-67"/>
     </g>
    </g>
    <g id="line2d_53">
     <path d="M 340.512187 69.248563 
L 360.512187 69.248563 
" style="fill:none;stroke:#ff0000;stroke-linecap:square;stroke-width:1.5;"/>
    </g>
    <g id="line2d_54"/>
    <g id="text_47">
     <!-- Stress -->
     <g transform="translate(368.512187 72.748563)scale(0.1 -0.1)">
      <use xlink:href="#DejaVuSans-53"/>
      <use x="63.476562" xlink:href="#DejaVuSans-74"/>
      <use x="102.685547" xlink:href="#DejaVuSans-72"/>
      <use x="143.767578" xlink:href="#DejaVuSans-65"/>
      <use x="205.291016" xlink:href="#DejaVuSans-73"/>
      <use x="257.390625" xlink:href="#DejaVuSans-73"/>
     </g>
    </g>
    <g id="line2d_55">
     <path d="M 340.512187 83.926688 
L 360.512187 83.926688 
" style="fill:none;stroke:#000000;stroke-linecap:square;stroke-width:1.5;"/>
    </g>
    <g id="line2d_56"/>
    <g id="text_48">
     <!-- Block C -->
     <g transform="translate(368.512187 87.426688)scale(0.1 -0.1)">
      <use xlink:href="#DejaVuSans-42"/>
      <use x="68.603516" xlink:href="#DejaVuSans-6c"/>
      <use x="96.386719" xlink:href="#DejaVuSans-6f"/>
      <use x="157.568359" xlink:href="#DejaVuSans-63"/>
      <use x="212.548828" xlink:href="#DejaVuSans-6b"/>
      <use x="270.458984" xlink:href="#DejaVuSans-20"/>
      <use x="302.246094" xlink:href="#DejaVuSans-43"/>
     </g>
    </g>
   </g>
  </g>
 </g>
 <defs>
  <clipPath id="pf4c530d97a">
   <rect height="266.112" width="162.327273" x="57.6" y="41.472"/>
  </clipPath>
  <clipPath id="p04c5612a1c">
   <rect height="266.112" width="162.327273" x="252.392727" y="41.472"/>
  </clipPath>
 </defs>
</svg>
