<?xml version="1.0" encoding="utf-8" standalone="no"?>
<!DOCTYPE svg PUBLIC "-//W3C//DTD SVG 1.1//EN"
  "http://www.w3.org/Graphics/SVG/1.1/DTD/svg11.dtd">
<!-- Created with matplotlib (http://matplotlib.org/) -->
<svg height="432pt" version="1.1" viewBox="0 0 576 432" width="576pt" xmlns="http://www.w3.org/2000/svg" xmlns:xlink="http://www.w3.org/1999/xlink">
 <defs>
  <style type="text/css">
*{stroke-linecap:butt;stroke-linejoin:round;}
  </style>
 </defs>
 <g id="figure_1">
  <g id="patch_1">
   <path d="
M0 432
L576 432
L576 0
L0 0
z
" style="fill:#ffffff;"/>
  </g>
  <g id="axes_1">
   <g id="patch_2">
    <path d="
M72 388.8
L518.4 388.8
L518.4 43.2
L72 43.2
z
" style="fill:#ffffff;"/>
   </g>
   <g id="PolyCollection_1">
    <defs>
     <path d="
M72 -51.2943
L72 -47.1998
L125.215 -64.2228
L178.43 -79.7592
L231.645 -131.576
L284.86 -115.086
L338.075 -66.6313
L391.29 -55.9728
L444.505 -53.4191
L497.72 -49.0188
L550.935 -46.6459
L604.15 -46.5443
L657.365 -45.3035
L710.58 -44.4152
L763.795 -44.1475
L817.01 -43.9428
L870.225 -43.9126
L923.44 -71.6176
L976.655 -102.79
L1029.87 -50.7778
L1083.09 -43.5155
L1136.3 -43.4609
L1189.52 -43.3807
L1242.73 -43.3929
L1295.95 -43.3746
L1349.16 -43.3694
L1402.38 -43.3453
L1455.59 -43.3327
L1508.81 -43.3153
L1562.02 -43.2659
L1615.24 -43.2991
L1615.24 -43.5849
L1615.24 -43.5849
L1562.02 -43.4959
L1508.81 -43.462
L1455.59 -43.4747
L1402.38 -43.4776
L1349.16 -43.4939
L1295.95 -43.5205
L1242.73 -43.5724
L1189.52 -43.6957
L1136.3 -43.6869
L1083.09 -43.7462
L1029.87 -54.5961
L976.655 -131.102
L923.44 -85.3239
L870.225 -44.4843
L817.01 -44.4258
L763.795 -44.762
L710.58 -45.2123
L657.365 -46.5674
L604.15 -49.3846
L550.935 -48.9809
L497.72 -52.4691
L444.505 -61.847
L391.29 -67.0147
L338.075 -79.1374
L284.86 -142.956
L231.645 -165.094
L178.43 -100.425
L125.215 -80.2598
L72 -51.2943
z
" id="m98332036cd" style="stroke:#000000;stroke-opacity:0.5;stroke-width:0.1;"/>
    </defs>
    <g clip-path="url(#p7ff5b81e1d)">
     <use style="fill:#ff0000;fill-opacity:0.5;stroke:#000000;stroke-opacity:0.5;stroke-width:0.1;" x="0.0" xlink:href="#m98332036cd" y="432.0"/>
    </g>
   </g>
   <g id="PolyCollection_2">
    <defs>
     <path d="
M72 -50.2623
L72 -50.2623
L125.215 -74.1088
L178.43 -78.1674
L231.645 -144.017
L284.86 -166.447
L338.075 -95.6604
L391.29 -63.4206
L444.505 -60.3424
L497.72 -59.2748
L550.935 -52.0848
L604.15 -49.3774
L657.365 -46.9502
L710.58 -47.1301
L763.795 -45.809
L817.01 -44.4298
L870.225 -44.1503
L923.44 -44.3708
L976.655 -43.9934
L1029.87 -43.8629
L1083.09 -43.7996
L1136.3 -43.6786
L1189.52 -43.6875
L1242.73 -43.554
L1295.95 -43.4981
L1349.16 -43.4536
L1402.38 -43.4539
L1455.59 -43.4235
L1508.81 -43.4125
L1562.02 -43.3931
L1615.24 -43.4474
L1615.24 -43.4474
L1615.24 -43.4474
L1562.02 -43.3931
L1508.81 -43.4125
L1455.59 -43.4235
L1402.38 -43.4539
L1349.16 -43.4536
L1295.95 -43.4981
L1242.73 -43.554
L1189.52 -43.6875
L1136.3 -43.6786
L1083.09 -43.7996
L1029.87 -43.8629
L976.655 -43.9934
L923.44 -44.3708
L870.225 -44.1503
L817.01 -44.4298
L763.795 -45.809
L710.58 -47.1301
L657.365 -46.9502
L604.15 -49.3774
L550.935 -52.0848
L497.72 -59.2748
L444.505 -60.3424
L391.29 -63.4206
L338.075 -95.6604
L284.86 -166.447
L231.645 -144.017
L178.43 -78.1674
L125.215 -74.1088
L72 -50.2623
z
" id="ma242c699a7" style="stroke:#000000;stroke-opacity:0.5;stroke-width:0.1;"/>
    </defs>
    <g clip-path="url(#p7ff5b81e1d)">
     <use style="fill:#0000ff;fill-opacity:0.5;stroke:#000000;stroke-opacity:0.5;stroke-width:0.1;" x="0.0" xlink:href="#ma242c699a7" y="432.0"/>
    </g>
   </g>
   <g id="PolyCollection_3">
    <defs>
     <path d="
M72 -62.7211
L72 -53.3115
L125.215 -115.04
L178.43 -82.5575
L231.645 -96.2773
L284.86 -88.5047
L338.075 -62.9989
L391.29 -52.6193
L444.505 -49.1839
L497.72 -47.3504
L550.935 -46.5234
L604.15 -46.4882
L657.365 -45.5808
L710.58 -44.9595
L763.795 -44.6114
L817.01 -44.3756
L870.225 -44.4118
L923.44 -77.0207
L976.655 -113.171
L1029.87 -52.3258
L1083.09 -43.7966
L1136.3 -43.6919
L1189.52 -43.6288
L1242.73 -43.572
L1295.95 -43.5322
L1349.16 -43.5181
L1402.38 -43.4859
L1455.59 -43.4763
L1508.81 -43.4459
L1562.02 -43.426
L1615.24 -43.4544
L1615.24 -43.6432
L1615.24 -43.6432
L1562.02 -43.5902
L1508.81 -43.6194
L1455.59 -43.6573
L1402.38 -43.7089
L1349.16 -43.7461
L1295.95 -43.7981
L1242.73 -43.8411
L1189.52 -43.8912
L1136.3 -43.9891
L1083.09 -44.1734
L1029.87 -55.4746
L976.655 -135.744
L923.44 -87.7638
L870.225 -45.13
L817.01 -45.1791
L763.795 -45.5672
L710.58 -45.902
L657.365 -47.1144
L604.15 -49.1157
L550.935 -48.5856
L497.72 -49.9208
L444.505 -52.8209
L391.29 -58.8804
L338.075 -75.2577
L284.86 -116.042
L231.645 -124.46
L178.43 -100.577
L125.215 -154.69
L72 -62.7211
z
" id="m021660b5ca" style="stroke:#000000;stroke-opacity:0.5;stroke-width:0.1;"/>
    </defs>
    <g clip-path="url(#p7ff5b81e1d)">
     <use style="fill:#ff0000;fill-opacity:0.5;stroke:#000000;stroke-opacity:0.5;stroke-width:0.1;" x="0.0" xlink:href="#m021660b5ca" y="432.0"/>
    </g>
   </g>
   <g id="PolyCollection_4">
    <defs>
     <path d="
M72 -64.6301
L72 -64.6301
L125.215 -186.792
L178.43 -103.737
L231.645 -92.2928
L284.86 -85.0127
L338.075 -79.3769
L391.29 -63.9088
L444.505 -55.2233
L497.72 -53.4471
L550.935 -51.9512
L604.15 -50.3494
L657.365 -48.5292
L710.58 -47.4015
L763.795 -46.4714
L817.01 -45.5132
L870.225 -45.7579
L923.44 -45.489
L976.655 -44.2328
L1029.87 -44.3636
L1083.09 -44.2558
L1136.3 -44.0927
L1189.52 -44.0947
L1242.73 -43.9637
L1295.95 -43.843
L1349.16 -43.7999
L1402.38 -43.829
L1455.59 -43.8124
L1508.81 -43.7643
L1562.02 -43.5943
L1615.24 -43.6099
L1615.24 -43.6099
L1615.24 -43.6099
L1562.02 -43.5943
L1508.81 -43.7643
L1455.59 -43.8124
L1402.38 -43.829
L1349.16 -43.7999
L1295.95 -43.843
L1242.73 -43.9637
L1189.52 -44.0947
L1136.3 -44.0927
L1083.09 -44.2558
L1029.87 -44.3636
L976.655 -44.2328
L923.44 -45.489
L870.225 -45.7579
L817.01 -45.5132
L763.795 -46.4714
L710.58 -47.4015
L657.365 -48.5292
L604.15 -50.3494
L550.935 -51.9512
L497.72 -53.4471
L444.505 -55.2233
L391.29 -63.9088
L338.075 -79.3769
L284.86 -85.0127
L231.645 -92.2928
L178.43 -103.737
L125.215 -186.792
L72 -64.6301
z
" id="md24757e2dc" style="stroke:#000000;stroke-opacity:0.5;stroke-width:0.1;"/>
    </defs>
    <g clip-path="url(#p7ff5b81e1d)">
     <use style="fill:#0000ff;fill-opacity:0.5;stroke:#000000;stroke-opacity:0.5;stroke-width:0.1;" x="0.0" xlink:href="#md24757e2dc" y="432.0"/>
    </g>
   </g>
   <g id="PolyCollection_5">
    <defs>
     <path d="
M72 -58.7761
L72 -50.5032
L125.215 -91.3691
L178.43 -83.4082
L231.645 -95.6834
L284.86 -86.1149
L338.075 -65.8569
L391.29 -59.8415
L444.505 -55.002
L497.72 -51.591
L550.935 -49.9935
L604.15 -49.7113
L657.365 -48.7558
L710.58 -48.2145
L763.795 -47.9863
L817.01 -47.539
L870.225 -47.3624
L923.44 -70.3767
L976.655 -95.2975
L1029.87 -52.0903
L1083.09 -45.993
L1136.3 -45.8141
L1189.52 -45.669
L1242.73 -45.5462
L1295.95 -45.4347
L1349.16 -45.2007
L1402.38 -45.0691
L1455.59 -44.9347
L1508.81 -44.8921
L1562.02 -44.7122
L1615.24 -44.7398
L1615.24 -45.7605
L1615.24 -45.7605
L1562.02 -45.9572
L1508.81 -46.1605
L1455.59 -46.3609
L1402.38 -46.4741
L1349.16 -46.7285
L1295.95 -46.7657
L1242.73 -47.0552
L1189.52 -47.3653
L1136.3 -47.7511
L1083.09 -48.0807
L1029.87 -55.9559
L976.655 -113.343
L923.44 -79.3872
L870.225 -50.0608
L817.01 -50.4189
L763.795 -51.0446
L710.58 -51.173
L657.365 -52.2903
L604.15 -53.9481
L550.935 -54.2501
L497.72 -56.4499
L444.505 -61.5899
L391.29 -68.9725
L338.075 -76.7361
L284.86 -107.226
L231.645 -126.977
L178.43 -101.518
L125.215 -121.552
L72 -58.7761
z
" id="m170e9c246b" style="stroke:#000000;stroke-opacity:0.5;stroke-width:0.1;"/>
    </defs>
    <g clip-path="url(#p7ff5b81e1d)">
     <use style="fill:#ff0000;fill-opacity:0.5;stroke:#000000;stroke-opacity:0.5;stroke-width:0.1;" x="0.0" xlink:href="#m170e9c246b" y="432.0"/>
    </g>
   </g>
   <g id="PolyCollection_6">
    <defs>
     <path d="
M72 -55.4176
L72 -55.4176
L125.215 -101.028
L178.43 -92.4098
L231.645 -110.213
L284.86 -91.0214
L338.075 -72.9245
L391.29 -67.379
L444.505 -59.3178
L497.72 -60.4061
L550.935 -58.0222
L604.15 -57.2465
L657.365 -57.5993
L710.58 -59.7296
L763.795 -58.568
L817.01 -55.0126
L870.225 -54.895
L923.44 -51.4857
L976.655 -50.6493
L1029.87 -49.9378
L1083.09 -50.022
L1136.3 -51.1346
L1189.52 -47.821
L1242.73 -48.7087
L1295.95 -49.1602
L1349.16 -47.8104
L1402.38 -47.4409
L1455.59 -48.1872
L1508.81 -48.1065
L1562.02 -46.6374
L1615.24 -46.0936
L1615.24 -46.0936
L1615.24 -46.0936
L1562.02 -46.6374
L1508.81 -48.1065
L1455.59 -48.1872
L1402.38 -47.4409
L1349.16 -47.8104
L1295.95 -49.1602
L1242.73 -48.7087
L1189.52 -47.821
L1136.3 -51.1346
L1083.09 -50.022
L1029.87 -49.9378
L976.655 -50.6493
L923.44 -51.4857
L870.225 -54.895
L817.01 -55.0126
L763.795 -58.568
L710.58 -59.7296
L657.365 -57.5993
L604.15 -57.2465
L550.935 -58.0222
L497.72 -60.4061
L444.505 -59.3178
L391.29 -67.379
L338.075 -72.9245
L284.86 -91.0214
L231.645 -110.213
L178.43 -92.4098
L125.215 -101.028
L72 -55.4176
z
" id="mbbe145c04c" style="stroke:#000000;stroke-opacity:0.5;stroke-width:0.1;"/>
    </defs>
    <g clip-path="url(#p7ff5b81e1d)">
     <use style="fill:#0000ff;fill-opacity:0.5;stroke:#000000;stroke-opacity:0.5;stroke-width:0.1;" x="0.0" xlink:href="#mbbe145c04c" y="432.0"/>
    </g>
   </g>
   <g id="PolyCollection_7">
    <defs>
     <path d="
M72 -57.3211
L72 -50.0594
L125.215 -91.752
L178.43 -79.9432
L231.645 -103.262
L284.86 -92.6053
L338.075 -62.7154
L391.29 -52.412
L444.505 -48.841
L497.72 -47.1609
L550.935 -46.7346
L604.15 -47.149
L657.365 -45.8898
L710.58 -45.1158
L763.795 -44.8675
L817.01 -44.6379
L870.225 -44.6238
L923.44 -89.7022
L976.655 -140.23
L1029.87 -55.6956
L1083.09 -43.9797
L1136.3 -43.8945
L1189.52 -43.7975
L1242.73 -43.7411
L1295.95 -43.6813
L1349.16 -43.6548
L1402.38 -43.6417
L1455.59 -43.6073
L1508.81 -43.5876
L1562.02 -43.5626
L1615.24 -43.594
L1615.24 -43.8055
L1615.24 -43.8055
L1562.02 -43.7726
L1508.81 -43.8173
L1455.59 -43.8899
L1402.38 -43.9044
L1349.16 -43.9398
L1295.95 -44.0095
L1242.73 -44.0918
L1189.52 -44.2135
L1136.3 -44.3515
L1083.09 -44.526
L1029.87 -59.6668
L976.655 -167.531
L923.44 -103.076
L870.225 -45.5517
L817.01 -45.4443
L763.795 -45.8293
L710.58 -46.3456
L657.365 -47.4957
L604.15 -49.695
L550.935 -48.595
L497.72 -49.7175
L444.505 -52.0871
L391.29 -57.1961
L338.075 -73.3889
L284.86 -117.298
L231.645 -130.62
L178.43 -96.2856
L125.215 -118.701
L72 -57.3211
z
" id="mde304b96af" style="stroke:#000000;stroke-opacity:0.5;stroke-width:0.1;"/>
    </defs>
    <g clip-path="url(#p7ff5b81e1d)">
     <use style="fill:#ff0000;fill-opacity:0.5;stroke:#000000;stroke-opacity:0.5;stroke-width:0.1;" x="0.0" xlink:href="#mde304b96af" y="432.0"/>
    </g>
   </g>
   <g id="PolyCollection_8">
    <defs>
     <path d="
M72 -58.5185
L72 -58.5185
L125.215 -148.953
L178.43 -98.2779
L231.645 -96.4303
L284.86 -96.3852
L338.075 -91.93
L391.29 -66.0265
L444.505 -56.2201
L497.72 -53.1594
L550.935 -54.4719
L604.15 -55.1499
L657.365 -51.7008
L710.58 -50.1703
L763.795 -48.1446
L817.01 -47.0821
L870.225 -46.4112
L923.44 -46.2341
L976.655 -45.4682
L1029.87 -45.0932
L1083.09 -44.5626
L1136.3 -44.6604
L1189.52 -44.5824
L1242.73 -44.3748
L1295.95 -44.5781
L1349.16 -44.4695
L1402.38 -44.3245
L1455.59 -44.1912
L1508.81 -44.0053
L1562.02 -44.1501
L1615.24 -44.1148
L1615.24 -44.1148
L1615.24 -44.1148
L1562.02 -44.1501
L1508.81 -44.0053
L1455.59 -44.1912
L1402.38 -44.3245
L1349.16 -44.4695
L1295.95 -44.5781
L1242.73 -44.3748
L1189.52 -44.5824
L1136.3 -44.6604
L1083.09 -44.5626
L1029.87 -45.0932
L976.655 -45.4682
L923.44 -46.2341
L870.225 -46.4112
L817.01 -47.0821
L763.795 -48.1446
L710.58 -50.1703
L657.365 -51.7008
L604.15 -55.1499
L550.935 -54.4719
L497.72 -53.1594
L444.505 -56.2201
L391.29 -66.0265
L338.075 -91.93
L284.86 -96.3852
L231.645 -96.4303
L178.43 -98.2779
L125.215 -148.953
L72 -58.5185
z
" id="m7825b74ef9" style="stroke:#000000;stroke-opacity:0.5;stroke-width:0.1;"/>
    </defs>
    <g clip-path="url(#p7ff5b81e1d)">
     <use style="fill:#0000ff;fill-opacity:0.5;stroke:#000000;stroke-opacity:0.5;stroke-width:0.1;" x="0.0" xlink:href="#m7825b74ef9" y="432.0"/>
    </g>
   </g>
   <g id="PolyCollection_9">
    <defs>
     <path d="
M72 -56.9907
L72 -49.8999
L125.215 -85.7199
L178.43 -78.4357
L231.645 -112.383
L284.86 -102.109
L338.075 -61.8099
L391.29 -50.782
L444.505 -47.7077
L497.72 -46.5172
L550.935 -45.9548
L604.15 -46.3594
L657.365 -45.2101
L710.58 -44.6174
L763.795 -44.4107
L817.01 -44.2031
L870.225 -44.2505
L923.44 -82.8753
L976.655 -126.116
L1029.87 -53.8746
L1083.09 -43.7312
L1136.3 -43.6537
L1189.52 -43.6122
L1242.73 -43.5838
L1295.95 -43.5572
L1349.16 -43.5277
L1402.38 -43.4952
L1455.59 -43.4934
L1508.81 -43.4716
L1562.02 -43.452
L1615.24 -43.4907
L1615.24 -43.6961
L1615.24 -43.6961
L1562.02 -43.6123
L1508.81 -43.6385
L1455.59 -43.6816
L1402.38 -43.712
L1349.16 -43.7527
L1295.95 -43.7939
L1242.73 -43.8431
L1189.52 -43.9015
L1136.3 -43.999
L1083.09 -44.1584
L1029.87 -57.6032
L976.655 -153.587
L923.44 -96.0399
L870.225 -44.8921
L817.01 -44.8925
L763.795 -45.2919
L710.58 -45.4777
L657.365 -46.4895
L604.15 -48.5865
L550.935 -47.7583
L497.72 -48.2678
L444.505 -50.7152
L391.29 -54.9984
L338.075 -74.723
L284.86 -129.194
L231.645 -150.181
L178.43 -95.9156
L125.215 -122.49
L72 -56.9907
z
" id="mae5c6a315d" style="stroke:#000000;stroke-opacity:0.5;stroke-width:0.1;"/>
    </defs>
    <g clip-path="url(#p7ff5b81e1d)">
     <use style="fill:#ff0000;fill-opacity:0.5;stroke:#000000;stroke-opacity:0.5;stroke-width:0.1;" x="0.0" xlink:href="#mae5c6a315d" y="432.0"/>
    </g>
   </g>
   <g id="PolyCollection_10">
    <defs>
     <path d="
M72 -58.8962
L72 -58.8962
L125.215 -140.068
L178.43 -87.1987
L231.645 -104.33
L284.86 -110.203
L338.075 -92.2237
L391.29 -72.3805
L444.505 -56.8234
L497.72 -52.3796
L550.935 -51.7163
L604.15 -53.835
L657.365 -50.1041
L710.58 -48.1735
L763.795 -47.8993
L817.01 -46.9614
L870.225 -46.2607
L923.44 -46.0413
L976.655 -45.0122
L1029.87 -45.0887
L1083.09 -44.877
L1136.3 -44.5318
L1189.52 -44.7005
L1242.73 -44.4921
L1295.95 -44.2901
L1349.16 -44.2408
L1402.38 -44.0871
L1455.59 -44.0436
L1508.81 -44.0713
L1562.02 -43.7954
L1615.24 -43.8636
L1615.24 -43.8636
L1615.24 -43.8636
L1562.02 -43.7954
L1508.81 -44.0713
L1455.59 -44.0436
L1402.38 -44.0871
L1349.16 -44.2408
L1295.95 -44.2901
L1242.73 -44.4921
L1189.52 -44.7005
L1136.3 -44.5318
L1083.09 -44.877
L1029.87 -45.0887
L976.655 -45.0122
L923.44 -46.0413
L870.225 -46.2607
L817.01 -46.9614
L763.795 -47.8993
L710.58 -48.1735
L657.365 -50.1041
L604.15 -53.835
L550.935 -51.7163
L497.72 -52.3796
L444.505 -56.8234
L391.29 -72.3805
L338.075 -92.2237
L284.86 -110.203
L231.645 -104.33
L178.43 -87.1987
L125.215 -140.068
L72 -58.8962
z
" id="md734fe2d71" style="stroke:#000000;stroke-opacity:0.5;stroke-width:0.1;"/>
    </defs>
    <g clip-path="url(#p7ff5b81e1d)">
     <use style="fill:#0000ff;fill-opacity:0.5;stroke:#000000;stroke-opacity:0.5;stroke-width:0.1;" x="0.0" xlink:href="#md734fe2d71" y="432.0"/>
    </g>
   </g>
   <g id="PolyCollection_11">
    <defs>
     <path d="
M72 -56.5758
L72 -49.7509
L125.215 -85.1507
L178.43 -79.6368
L231.645 -100.809
L284.86 -88.9081
L338.075 -64.5325
L391.29 -57.0497
L444.505 -52.3748
L497.72 -49.2437
L550.935 -48.4849
L604.15 -48.6455
L657.365 -47.3676
L710.58 -46.5784
L763.795 -46.0937
L817.01 -45.6025
L870.225 -45.5095
L923.44 -82.9687
L976.655 -124.946
L1029.87 -54.3357
L1083.09 -44.4867
L1136.3 -44.3193
L1189.52 -44.1836
L1242.73 -44.0824
L1295.95 -44.0342
L1349.16 -43.9165
L1402.38 -43.8561
L1455.59 -43.8152
L1508.81 -43.7829
L1562.02 -43.7234
L1615.24 -43.781
L1615.24 -44.1484
L1615.24 -44.1484
L1562.02 -44.1072
L1508.81 -44.1536
L1455.59 -44.2296
L1402.38 -44.2873
L1349.16 -44.4185
L1295.95 -44.5755
L1242.73 -44.7521
L1189.52 -44.863
L1136.3 -45.0555
L1083.09 -45.3575
L1029.87 -58.4665
L976.655 -149.881
L923.44 -95.4603
L870.225 -47.1947
L817.01 -47.235
L763.795 -47.7235
L710.58 -48.2943
L657.365 -49.8191
L604.15 -52.5415
L550.935 -51.4677
L497.72 -53.0336
L444.505 -57.6083
L391.29 -65.3566
L338.075 -76.6294
L284.86 -112.636
L231.645 -130.654
L178.43 -98.5577
L125.215 -109.093
L72 -56.5758
z
" id="m63e4ff7985" style="stroke:#000000;stroke-opacity:0.5;stroke-width:0.1;"/>
    </defs>
    <g clip-path="url(#p7ff5b81e1d)">
     <use style="fill:#ff0000;fill-opacity:0.5;stroke:#000000;stroke-opacity:0.5;stroke-width:0.1;" x="0.0" xlink:href="#m63e4ff7985" y="432.0"/>
    </g>
   </g>
   <g id="PolyCollection_12">
    <defs>
     <path d="
M72 -56.356
L72 -56.356
L125.215 -123.738
L178.43 -104.559
L231.645 -104.913
L284.86 -84.914
L338.075 -71.0049
L391.29 -76.5075
L444.505 -66.3762
L497.72 -55.8029
L550.935 -55.9825
L604.15 -53.9856
L657.365 -54.7775
L710.58 -54.2929
L763.795 -53.7374
L817.01 -50.7784
L870.225 -48.6294
L923.44 -47.951
L976.655 -47.3891
L1029.87 -46.1832
L1083.09 -45.8032
L1136.3 -45.9924
L1189.52 -46.1485
L1242.73 -45.3025
L1295.95 -45.2208
L1349.16 -45.3859
L1402.38 -45.1959
L1455.59 -45.1929
L1508.81 -44.774
L1562.02 -44.927
L1615.24 -44.7167
L1615.24 -44.7167
L1615.24 -44.7167
L1562.02 -44.927
L1508.81 -44.774
L1455.59 -45.1929
L1402.38 -45.1959
L1349.16 -45.3859
L1295.95 -45.2208
L1242.73 -45.3025
L1189.52 -46.1485
L1136.3 -45.9924
L1083.09 -45.8032
L1029.87 -46.1832
L976.655 -47.3891
L923.44 -47.951
L870.225 -48.6294
L817.01 -50.7784
L763.795 -53.7374
L710.58 -54.2929
L657.365 -54.7775
L604.15 -53.9856
L550.935 -55.9825
L497.72 -55.8029
L444.505 -66.3762
L391.29 -76.5075
L338.075 -71.0049
L284.86 -84.914
L231.645 -104.913
L178.43 -104.559
L125.215 -123.738
L72 -56.356
z
" id="m9ca3990263" style="stroke:#000000;stroke-opacity:0.5;stroke-width:0.1;"/>
    </defs>
    <g clip-path="url(#p7ff5b81e1d)">
     <use style="fill:#0000ff;fill-opacity:0.5;stroke:#000000;stroke-opacity:0.5;stroke-width:0.1;" x="0.0" xlink:href="#m9ca3990263" y="432.0"/>
    </g>
   </g>
   <g id="PolyCollection_13">
    <defs>
     <path d="
M72 -57.1703
L72 -49.6782
L125.215 -86.536
L178.43 -81.9234
L231.645 -100.491
L284.86 -89.6074
L338.075 -62.2774
L391.29 -52.8757
L444.505 -49.6119
L497.72 -47.8657
L550.935 -47.0618
L604.15 -47.2156
L657.365 -46.2112
L710.58 -45.5087
L763.795 -45.2341
L817.01 -45.0329
L870.225 -44.9961
L923.44 -92.8724
L976.655 -146.798
L1029.87 -56.8043
L1083.09 -44.3373
L1136.3 -44.1662
L1189.52 -44.0648
L1242.73 -44.0297
L1295.95 -43.9634
L1349.16 -43.903
L1402.38 -43.8602
L1455.59 -43.8102
L1508.81 -43.7444
L1562.02 -43.7136
L1615.24 -43.7249
L1615.24 -44.0809
L1615.24 -44.0809
L1562.02 -44.0195
L1508.81 -44.0985
L1455.59 -44.1697
L1402.38 -44.248
L1349.16 -44.3097
L1295.95 -44.3733
L1242.73 -44.4831
L1189.52 -44.6247
L1136.3 -44.7671
L1083.09 -44.9661
L1029.87 -60.7825
L976.655 -173.001
L923.44 -106.016
L870.225 -46.2429
L817.01 -46.1336
L763.795 -46.4546
L710.58 -47.1285
L657.365 -48.2177
L604.15 -50.4093
L550.935 -49.711
L497.72 -50.6756
L444.505 -53.1154
L391.29 -57.1631
L338.075 -71.4163
L284.86 -112.443
L231.645 -127.454
L178.43 -98.6802
L125.215 -112.669
L72 -57.1703
z
" id="m5dfdf56c5c" style="stroke:#000000;stroke-opacity:0.5;stroke-width:0.1;"/>
    </defs>
    <g clip-path="url(#p7ff5b81e1d)">
     <use style="fill:#ff0000;fill-opacity:0.5;stroke:#000000;stroke-opacity:0.5;stroke-width:0.1;" x="0.0" xlink:href="#m5dfdf56c5c" y="432.0"/>
    </g>
   </g>
   <g id="PolyCollection_14">
    <defs>
     <path d="
M72 -59.2956
L72 -59.2956
L125.215 -139.83
L178.43 -101.865
L231.645 -109.554
L284.86 -100.27
L338.075 -84.1453
L391.29 -67.5418
L444.505 -54.7633
L497.72 -52.6195
L550.935 -52.8582
L604.15 -52.5874
L657.365 -51.2399
L710.58 -50.1485
L763.795 -48.5585
L817.01 -47.1476
L870.225 -46.1646
L923.44 -46.4584
L976.655 -45.904
L1029.87 -45.3449
L1083.09 -45.0434
L1136.3 -45.5742
L1189.52 -44.6784
L1242.73 -44.1816
L1295.95 -44.2169
L1349.16 -44.6959
L1402.38 -44.7989
L1455.59 -44.5394
L1508.81 -44.416
L1562.02 -44.1254
L1615.24 -43.8465
L1615.24 -43.8465
L1615.24 -43.8465
L1562.02 -44.1254
L1508.81 -44.416
L1455.59 -44.5394
L1402.38 -44.7989
L1349.16 -44.6959
L1295.95 -44.2169
L1242.73 -44.1816
L1189.52 -44.6784
L1136.3 -45.5742
L1083.09 -45.0434
L1029.87 -45.3449
L976.655 -45.904
L923.44 -46.4584
L870.225 -46.1646
L817.01 -47.1476
L763.795 -48.5585
L710.58 -50.1485
L657.365 -51.2399
L604.15 -52.5874
L550.935 -52.8582
L497.72 -52.6195
L444.505 -54.7633
L391.29 -67.5418
L338.075 -84.1453
L284.86 -100.27
L231.645 -109.554
L178.43 -101.865
L125.215 -139.83
L72 -59.2956
z
" id="m2dd2e1ec79" style="stroke:#000000;stroke-opacity:0.5;stroke-width:0.1;"/>
    </defs>
    <g clip-path="url(#p7ff5b81e1d)">
     <use style="fill:#0000ff;fill-opacity:0.5;stroke:#000000;stroke-opacity:0.5;stroke-width:0.1;" x="0.0" xlink:href="#m2dd2e1ec79" y="432.0"/>
    </g>
   </g>
   <g id="PolyCollection_15">
    <defs>
     <path d="
M72 -51.0398
L72 -46.8147
L125.215 -63.4317
L178.43 -89.8101
L231.645 -149.557
L284.86 -127.456
L338.075 -66.0697
L391.29 -55.2505
L444.505 -52.3066
L497.72 -48.1637
L550.935 -46.0622
L604.15 -45.6652
L657.365 -44.8658
L710.58 -44.2942
L763.795 -44.0562
L817.01 -44.0722
L870.225 -43.9802
L923.44 -54.3438
L976.655 -65.8725
L1029.87 -46.3463
L1083.09 -43.6711
L1136.3 -43.6278
L1189.52 -43.5575
L1242.73 -43.5315
L1295.95 -43.5094
L1349.16 -43.491
L1402.38 -43.4416
L1455.59 -43.4293
L1508.81 -43.4191
L1562.02 -43.4061
L1615.24 -43.3816
L1615.24 -43.6563
L1615.24 -43.6563
L1562.02 -43.6154
L1508.81 -43.6311
L1455.59 -43.688
L1402.38 -43.7466
L1349.16 -43.7763
L1295.95 -43.8099
L1242.73 -43.8683
L1189.52 -43.9915
L1136.3 -44.0224
L1083.09 -44.0562
L1029.87 -48.8282
L976.655 -82.1686
L923.44 -62.2475
L870.225 -44.7221
L817.01 -44.8589
L763.795 -45.2051
L710.58 -45.4534
L657.365 -46.0745
L604.15 -47.444
L550.935 -48.0514
L497.72 -51.626
L444.505 -58.0177
L391.29 -61.7121
L338.075 -81.591
L284.86 -158.131
L231.645 -187.737
L178.43 -119.319
L125.215 -82.5499
L72 -51.0398
z
" id="m70b8085fd1" style="stroke:#000000;stroke-opacity:0.5;stroke-width:0.1;"/>
    </defs>
    <g clip-path="url(#p7ff5b81e1d)">
     <use style="fill:#ff0000;fill-opacity:0.5;stroke:#000000;stroke-opacity:0.5;stroke-width:0.1;" x="0.0" xlink:href="#m70b8085fd1" y="432.0"/>
    </g>
   </g>
   <g id="PolyCollection_16">
    <defs>
     <path d="
M72 -49.298
L72 -49.298
L125.215 -78.9498
L178.43 -93.351
L231.645 -149.547
L284.86 -170.939
L338.075 -88.2372
L391.29 -59.8401
L444.505 -56.3759
L497.72 -53.5717
L550.935 -48.6385
L604.15 -47.2146
L657.365 -45.6472
L710.58 -45.5173
L763.795 -44.7395
L817.01 -44.6934
L870.225 -44.8143
L923.44 -44.5457
L976.655 -44.16
L1029.87 -44.1804
L1083.09 -44.2275
L1136.3 -43.9244
L1189.52 -43.8696
L1242.73 -43.9465
L1295.95 -43.9498
L1349.16 -43.7233
L1402.38 -43.7706
L1455.59 -43.7964
L1508.81 -43.7145
L1562.02 -43.7208
L1615.24 -43.7011
L1615.24 -43.7011
L1615.24 -43.7011
L1562.02 -43.7208
L1508.81 -43.7145
L1455.59 -43.7964
L1402.38 -43.7706
L1349.16 -43.7233
L1295.95 -43.9498
L1242.73 -43.9465
L1189.52 -43.8696
L1136.3 -43.9244
L1083.09 -44.2275
L1029.87 -44.1804
L976.655 -44.16
L923.44 -44.5457
L870.225 -44.8143
L817.01 -44.6934
L763.795 -44.7395
L710.58 -45.5173
L657.365 -45.6472
L604.15 -47.2146
L550.935 -48.6385
L497.72 -53.5717
L444.505 -56.3759
L391.29 -59.8401
L338.075 -88.2372
L284.86 -170.939
L231.645 -149.547
L178.43 -93.351
L125.215 -78.9498
L72 -49.298
z
" id="m616a92d4a6" style="stroke:#000000;stroke-opacity:0.5;stroke-width:0.1;"/>
    </defs>
    <g clip-path="url(#p7ff5b81e1d)">
     <use style="fill:#0000ff;fill-opacity:0.5;stroke:#000000;stroke-opacity:0.5;stroke-width:0.1;" x="0.0" xlink:href="#m616a92d4a6" y="432.0"/>
    </g>
   </g>
   <g id="PolyCollection_17">
    <defs>
     <path d="
M72 -102.076
L72 -76.6228
L125.215 -317.215
L178.43 -99.381
L231.645 -49.3037
L284.86 -45.7389
L338.075 -44.4206
L391.29 -43.8235
L444.505 -43.6261
L497.72 -43.577
L550.935 -43.5826
L604.15 -43.5367
L657.365 -43.4211
L710.58 -43.3428
L763.795 -43.3387
L817.01 -43.3194
L870.225 -43.2986
L923.44 -43.3089
L976.655 -43.3208
L1029.87 -43.2706
L1083.09 -43.2574
L1136.3 -43.2518
L1189.52 -43.2436
L1242.73 -43.2384
L1295.95 -43.2338
L1349.16 -43.2297
L1402.38 -43.2296
L1455.59 -43.2261
L1508.81 -43.2211
L1562.02 -43.2194
L1615.24 -43.2188
L1615.24 -43.287
L1615.24 -43.287
L1562.02 -43.2934
L1508.81 -43.3008
L1455.59 -43.3171
L1402.38 -43.3278
L1349.16 -43.3217
L1295.95 -43.3253
L1242.73 -43.3386
L1189.52 -43.3659
L1136.3 -43.3933
L1083.09 -43.379
L1029.87 -43.4415
L976.655 -43.8369
L923.44 -43.6423
L870.225 -43.4929
L817.01 -43.5558
L763.795 -43.5973
L710.58 -43.6363
L657.365 -43.8409
L604.15 -44.3117
L550.935 -44.1741
L497.72 -44.3215
L444.505 -44.7163
L391.29 -45.4139
L338.075 -46.858
L284.86 -50.325
L231.645 -60.1754
L178.43 -121.645
L125.215 -355.782
L72 -102.076
z
" id="m2b3d098c11" style="stroke:#000000;stroke-opacity:0.5;stroke-width:0.1;"/>
    </defs>
    <g clip-path="url(#p7ff5b81e1d)">
     <use style="fill:#ff0000;fill-opacity:0.5;stroke:#000000;stroke-opacity:0.5;stroke-width:0.1;" x="0.0" xlink:href="#m2b3d098c11" y="432.0"/>
    </g>
   </g>
   <g id="PolyCollection_18">
    <defs>
     <path d="
M72 -89.9492
L72 -89.9492
L125.215 -361.192
L178.43 -97.0898
L231.645 -48.2735
L284.86 -45.2259
L338.075 -44.4279
L391.29 -44.1336
L444.505 -43.8088
L497.72 -43.7563
L550.935 -43.7329
L604.15 -43.9759
L657.365 -43.6392
L710.58 -43.4424
L763.795 -43.4267
L817.01 -43.4402
L870.225 -43.3789
L923.44 -43.4219
L976.655 -43.3699
L1029.87 -43.3186
L1083.09 -43.3342
L1136.3 -43.3622
L1189.52 -43.3074
L1242.73 -43.3041
L1295.95 -43.2917
L1349.16 -43.2983
L1402.38 -43.3122
L1455.59 -43.2679
L1508.81 -43.2718
L1562.02 -43.2789
L1615.24 -43.2638
L1615.24 -43.2638
L1615.24 -43.2638
L1562.02 -43.2789
L1508.81 -43.2718
L1455.59 -43.2679
L1402.38 -43.3122
L1349.16 -43.2983
L1295.95 -43.2917
L1242.73 -43.3041
L1189.52 -43.3074
L1136.3 -43.3622
L1083.09 -43.3342
L1029.87 -43.3186
L976.655 -43.3699
L923.44 -43.4219
L870.225 -43.3789
L817.01 -43.4402
L763.795 -43.4267
L710.58 -43.4424
L657.365 -43.6392
L604.15 -43.9759
L550.935 -43.7329
L497.72 -43.7563
L444.505 -43.8088
L391.29 -44.1336
L338.075 -44.4279
L284.86 -45.2259
L231.645 -48.2735
L178.43 -97.0898
L125.215 -361.192
L72 -89.9492
z
" id="mcf8ff56854" style="stroke:#000000;stroke-opacity:0.5;stroke-width:0.1;"/>
    </defs>
    <g clip-path="url(#p7ff5b81e1d)">
     <use style="fill:#0000ff;fill-opacity:0.5;stroke:#000000;stroke-opacity:0.5;stroke-width:0.1;" x="0.0" xlink:href="#mcf8ff56854" y="432.0"/>
    </g>
   </g>
   <g id="PolyCollection_19">
    <defs>
     <path d="
M72 -65.1922
L72 -55.0268
L125.215 -117.178
L178.43 -86.3499
L231.645 -97.951
L284.86 -95.2935
L338.075 -64.5255
L391.29 -54.5389
L444.505 -50.6161
L497.72 -48.2971
L550.935 -47.1021
L604.15 -46.8228
L657.365 -45.7089
L710.58 -45.0997
L763.795 -44.8235
L817.01 -44.2551
L870.225 -44.4259
L923.44 -65.234
L976.655 -88.5121
L1029.87 -49.4573
L1083.09 -43.9795
L1136.3 -43.874
L1189.52 -43.7997
L1242.73 -43.7758
L1295.95 -43.7191
L1349.16 -43.6723
L1402.38 -43.6136
L1455.59 -43.5969
L1508.81 -43.5544
L1562.02 -43.5231
L1615.24 -43.548
L1615.24 -43.8378
L1615.24 -43.8378
L1562.02 -43.8526
L1508.81 -43.876
L1455.59 -43.8753
L1402.38 -43.9403
L1349.16 -43.9982
L1295.95 -44.0592
L1242.73 -44.1361
L1189.52 -44.2791
L1136.3 -44.3609
L1083.09 -44.4944
L1029.87 -51.7438
L976.655 -103.384
L923.44 -72.6398
L870.225 -45.4841
L817.01 -45.9118
L763.795 -45.8004
L710.58 -46.2409
L657.365 -47.3867
L604.15 -49.0744
L550.935 -49.287
L497.72 -52.1365
L444.505 -57.0551
L391.29 -61.0261
L338.075 -77.1514
L284.86 -120.96
L231.645 -130.255
L178.43 -103.119
L125.215 -158.083
L72 -65.1922
z
" id="mce8ddc0b0e" style="stroke:#000000;stroke-opacity:0.5;stroke-width:0.1;"/>
    </defs>
    <g clip-path="url(#p7ff5b81e1d)">
     <use style="fill:#ff0000;fill-opacity:0.5;stroke:#000000;stroke-opacity:0.5;stroke-width:0.1;" x="0.0" xlink:href="#mce8ddc0b0e" y="432.0"/>
    </g>
   </g>
   <g id="PolyCollection_20">
    <defs>
     <path d="
M72 -68.3083
L72 -68.3083
L125.215 -186.643
L178.43 -105.091
L231.645 -100.906
L284.86 -91.5476
L338.075 -67.8452
L391.29 -57.3159
L444.505 -54.7317
L497.72 -50.8142
L550.935 -50.7924
L604.15 -51.4425
L657.365 -48.1069
L710.58 -47.748
L763.795 -46.5753
L817.01 -45.4895
L870.225 -46.1382
L923.44 -45.868
L976.655 -45.2711
L1029.87 -44.6542
L1083.09 -44.6879
L1136.3 -44.623
L1189.52 -44.1508
L1242.73 -44.2595
L1295.95 -44.1685
L1349.16 -44.2229
L1402.38 -44.3822
L1455.59 -44.0298
L1508.81 -43.7834
L1562.02 -43.6481
L1615.24 -43.8182
L1615.24 -43.8182
L1615.24 -43.8182
L1562.02 -43.6481
L1508.81 -43.7834
L1455.59 -44.0298
L1402.38 -44.3822
L1349.16 -44.2229
L1295.95 -44.1685
L1242.73 -44.2595
L1189.52 -44.1508
L1136.3 -44.623
L1083.09 -44.6879
L1029.87 -44.6542
L976.655 -45.2711
L923.44 -45.868
L870.225 -46.1382
L817.01 -45.4895
L763.795 -46.5753
L710.58 -47.748
L657.365 -48.1069
L604.15 -51.4425
L550.935 -50.7924
L497.72 -50.8142
L444.505 -54.7317
L391.29 -57.3159
L338.075 -67.8452
L284.86 -91.5476
L231.645 -100.906
L178.43 -105.091
L125.215 -186.643
L72 -68.3083
z
" id="m428b6daa2f" style="stroke:#000000;stroke-opacity:0.5;stroke-width:0.1;"/>
    </defs>
    <g clip-path="url(#p7ff5b81e1d)">
     <use style="fill:#0000ff;fill-opacity:0.5;stroke:#000000;stroke-opacity:0.5;stroke-width:0.1;" x="0.0" xlink:href="#m428b6daa2f" y="432.0"/>
    </g>
   </g>
   <g id="line2d_1">
    <path clip-path="url(#p7ff5b81e1d)" d="
M72 382.753
L125.215 359.759
L178.43 341.908
L231.645 283.665
L284.86 302.979
L338.075 359.116
L391.29 370.506
L444.505 374.367
L497.72 381.256
L550.935 384.187
L577 384.113" style="fill:none;stroke:#ff0000;stroke-linecap:square;"/>
   </g>
   <g id="line2d_2">
    <path clip-path="url(#p7ff5b81e1d)" d="
M72 381.738
L125.215 357.891
L178.43 353.833
L231.645 287.983
L284.86 265.553
L338.075 336.34
L391.29 368.579
L444.505 371.658
L497.72 372.725
L550.935 379.915
L577 381.241" style="fill:none;stroke:#0000ff;stroke-linecap:square;"/>
   </g>
   <g id="line2d_3">
    <path clip-path="url(#p7ff5b81e1d)" d="
M72 373.984
L125.215 297.135
L178.43 340.433
L231.645 321.632
L284.86 329.727
L338.075 362.872
L391.29 376.25
L444.505 380.998
L497.72 383.364
L550.935 384.446
L577 384.324" style="fill:none;stroke:#ff0000;stroke-linecap:square;"/>
   </g>
   <g id="line2d_4">
    <path clip-path="url(#p7ff5b81e1d)" d="
M72 367.37
L125.215 245.208
L178.43 328.263
L231.645 339.707
L284.86 346.987
L338.075 352.623
L391.29 368.091
L444.505 376.777
L497.72 378.553
L550.935 380.049
L577 380.833" style="fill:none;stroke:#0000ff;stroke-linecap:square;"/>
   </g>
   <g id="line2d_5">
    <path clip-path="url(#p7ff5b81e1d)" d="
M72 377.36
L125.215 325.54
L178.43 339.537
L231.645 320.67
L284.86 335.33
L338.075 360.704
L391.29 367.593
L444.505 373.704
L497.72 377.98
L550.935 379.878
L577 380.021" style="fill:none;stroke:#ff0000;stroke-linecap:square;"/>
   </g>
   <g id="line2d_6">
    <path clip-path="url(#p7ff5b81e1d)" d="
M72 376.582
L125.215 330.972
L178.43 339.59
L231.645 321.787
L284.86 340.979
L338.075 359.075
L391.29 364.621
L444.505 372.682
L497.72 371.594
L550.935 373.978
L577 374.358" style="fill:none;stroke:#0000ff;stroke-linecap:square;"/>
   </g>
   <g id="line2d_7">
    <path clip-path="url(#p7ff5b81e1d)" d="
M72 378.31
L125.215 326.774
L178.43 343.886
L231.645 315.059
L284.86 327.048
L338.075 363.948
L391.29 377.196
L444.505 381.536
L497.72 383.561
L550.935 384.335
L577 383.964" style="fill:none;stroke:#ff0000;stroke-linecap:square;"/>
   </g>
   <g id="line2d_8">
    <path clip-path="url(#p7ff5b81e1d)" d="
M72 373.481
L125.215 283.047
L178.43 333.722
L231.645 335.57
L284.86 335.615
L338.075 340.07
L391.29 365.974
L444.505 375.78
L497.72 378.841
L550.935 377.528
L577 377.196" style="fill:none;stroke:#0000ff;stroke-linecap:square;"/>
   </g>
   <g id="line2d_9">
    <path clip-path="url(#p7ff5b81e1d)" d="
M72 378.555
L125.215 327.895
L178.43 344.824
L231.645 300.718
L284.86 316.349
L338.075 363.734
L391.29 379.11
L444.505 382.789
L497.72 384.608
L550.935 385.143
L577 384.842" style="fill:none;stroke:#ff0000;stroke-linecap:square;"/>
   </g>
   <g id="line2d_10">
    <path clip-path="url(#p7ff5b81e1d)" d="
M72 373.104
L125.215 291.932
L178.43 344.801
L231.645 327.67
L284.86 321.797
L338.075 339.776
L391.29 359.62
L444.505 375.177
L497.72 379.62
L550.935 380.284
L577 379.246" style="fill:none;stroke:#0000ff;stroke-linecap:square;"/>
   </g>
   <g id="line2d_11">
    <path clip-path="url(#p7ff5b81e1d)" d="
M72 378.837
L125.215 334.878
L178.43 342.903
L231.645 316.269
L284.86 331.228
L338.075 361.419
L391.29 370.797
L444.505 377.008
L497.72 380.861
L550.935 382.024
L577 381.721" style="fill:none;stroke:#ff0000;stroke-linecap:square;"/>
   </g>
   <g id="line2d_12">
    <path clip-path="url(#p7ff5b81e1d)" d="
M72 375.644
L125.215 308.262
L178.43 327.441
L231.645 327.087
L284.86 347.086
L338.075 360.995
L391.29 355.492
L444.505 365.624
L497.72 376.197
L550.935 376.018
L577 376.996" style="fill:none;stroke:#0000ff;stroke-linecap:square;"/>
   </g>
   <g id="line2d_13">
    <path clip-path="url(#p7ff5b81e1d)" d="
M72 378.576
L125.215 332.398
L178.43 341.698
L231.645 318.028
L284.86 330.975
L338.075 365.153
L391.29 376.981
L444.505 380.636
L497.72 382.729
L550.935 383.614
L577 383.405" style="fill:none;stroke:#ff0000;stroke-linecap:square;"/>
   </g>
   <g id="line2d_14">
    <path clip-path="url(#p7ff5b81e1d)" d="
M72 372.704
L125.215 292.17
L178.43 330.135
L231.645 322.446
L284.86 331.73
L338.075 347.855
L391.29 364.458
L444.505 377.237
L497.72 379.38
L550.935 379.142
L577 379.274" style="fill:none;stroke:#0000ff;stroke-linecap:square;"/>
   </g>
   <g id="line2d_15">
    <path clip-path="url(#p7ff5b81e1d)" d="
M72 383.073
L125.215 359.009
L178.43 327.436
L231.645 263.353
L284.86 289.207
L338.075 358.17
L391.29 373.519
L444.505 376.838
L497.72 382.105
L550.935 384.943
L577 385.189" style="fill:none;stroke:#ff0000;stroke-linecap:square;"/>
   </g>
   <g id="line2d_16">
    <path clip-path="url(#p7ff5b81e1d)" d="
M72 382.702
L125.215 353.05
L178.43 338.649
L231.645 282.453
L284.86 261.061
L338.075 343.763
L391.29 372.16
L444.505 375.624
L497.72 378.428
L550.935 383.361
L577 384.059" style="fill:none;stroke:#0000ff;stroke-linecap:square;"/>
   </g>
   <g id="line2d_17">
    <path clip-path="url(#p7ff5b81e1d)" d="
M72 342.651
L125.215 95.5019
L178.43 321.487
L231.645 377.26
L284.86 383.968
L338.075 386.361
L391.29 387.381
L444.505 387.829
L497.72 388.051
L550.935 388.122
L577 388.099" style="fill:none;stroke:#ff0000;stroke-linecap:square;"/>
   </g>
   <g id="line2d_18">
    <path clip-path="url(#p7ff5b81e1d)" d="
M72 342.051
L125.215 70.8079
L178.43 334.91
L231.645 383.726
L284.86 386.774
L338.075 387.572
L391.29 387.866
L444.505 388.191
L497.72 388.244
L550.935 388.267
L577 388.148" style="fill:none;stroke:#0000ff;stroke-linecap:square;"/>
   </g>
   <g id="line2d_19">
    <path clip-path="url(#p7ff5b81e1d)" d="
M72 371.891
L125.215 294.369
L178.43 337.266
L231.645 317.897
L284.86 323.873
L338.075 361.162
L391.29 374.218
L444.505 378.164
L497.72 381.783
L550.935 383.805
L577 383.926" style="fill:none;stroke:#ff0000;stroke-linecap:square;"/>
   </g>
   <g id="line2d_20">
    <path clip-path="url(#p7ff5b81e1d)" d="
M72 363.692
L125.215 245.357
L178.43 326.909
L231.645 331.094
L284.86 340.452
L338.075 364.155
L391.29 374.684
L444.505 377.268
L497.72 381.186
L550.935 381.208
L577 380.889" style="fill:none;stroke:#0000ff;stroke-linecap:square;"/>
   </g>
   <g id="patch_3">
    <path d="
M72 43.2
L518.4 43.2" style="fill:none;stroke:#000000;stroke-linecap:square;stroke-linejoin:miter;"/>
   </g>
   <g id="patch_4">
    <path d="
M518.4 388.8
L518.4 43.2" style="fill:none;stroke:#000000;stroke-linecap:square;stroke-linejoin:miter;"/>
   </g>
   <g id="patch_5">
    <path d="
M72 388.8
L518.4 388.8" style="fill:none;stroke:#000000;stroke-linecap:square;stroke-linejoin:miter;"/>
   </g>
   <g id="patch_6">
    <path d="
M72 388.8
L72 43.2" style="fill:none;stroke:#000000;stroke-linecap:square;stroke-linejoin:miter;"/>
   </g>
   <g id="matplotlib.axis_1">
    <g id="xtick_1">
     <g id="line2d_21">
      <defs>
       <path d="
M0 0
L0 -4" id="m93b0483c22" style="stroke:#000000;stroke-width:0.5;"/>
      </defs>
      <g>
       <use style="stroke:#000000;stroke-width:0.5;" x="72.0" xlink:href="#m93b0483c22" y="388.8"/>
      </g>
     </g>
     <g id="line2d_22">
      <defs>
       <path d="
M0 0
L0 4" id="m741efc42ff" style="stroke:#000000;stroke-width:0.5;"/>
      </defs>
      <g>
       <use style="stroke:#000000;stroke-width:0.5;" x="72.0" xlink:href="#m741efc42ff" y="43.2"/>
      </g>
     </g>
     <g id="text_1">
      <!-- 0 -->
      <defs>
       <path d="
M31.7812 66.4062
Q24.1719 66.4062 20.3281 58.9062
Q16.5 51.4219 16.5 36.375
Q16.5 21.3906 20.3281 13.8906
Q24.1719 6.39062 31.7812 6.39062
Q39.4531 6.39062 43.2812 13.8906
Q47.125 21.3906 47.125 36.375
Q47.125 51.4219 43.2812 58.9062
Q39.4531 66.4062 31.7812 66.4062
M31.7812 74.2188
Q44.0469 74.2188 50.5156 64.5156
Q56.9844 54.8281 56.9844 36.375
Q56.9844 17.9688 50.5156 8.26562
Q44.0469 -1.42188 31.7812 -1.42188
Q19.5312 -1.42188 13.0625 8.26562
Q6.59375 17.9688 6.59375 36.375
Q6.59375 54.8281 13.0625 64.5156
Q19.5312 74.2188 31.7812 74.2188" id="BitstreamVeraSans-Roman-30"/>
      </defs>
      <g transform="translate(68.9765625 401.918125)scale(0.12 -0.12)">
       <use xlink:href="#BitstreamVeraSans-Roman-30"/>
      </g>
     </g>
    </g>
    <g id="xtick_2">
     <g id="line2d_23">
      <g>
       <use style="stroke:#000000;stroke-width:0.5;" x="161.28" xlink:href="#m93b0483c22" y="388.8"/>
      </g>
     </g>
     <g id="line2d_24">
      <g>
       <use style="stroke:#000000;stroke-width:0.5;" x="161.28" xlink:href="#m741efc42ff" y="43.2"/>
      </g>
     </g>
     <g id="text_2">
      <!-- 10 -->
      <defs>
       <path d="
M12.4062 8.29688
L28.5156 8.29688
L28.5156 63.9219
L10.9844 60.4062
L10.9844 69.3906
L28.4219 72.9062
L38.2812 72.9062
L38.2812 8.29688
L54.3906 8.29688
L54.3906 0
L12.4062 0
z
" id="BitstreamVeraSans-Roman-31"/>
      </defs>
      <g transform="translate(154.7025 401.918125)scale(0.12 -0.12)">
       <use xlink:href="#BitstreamVeraSans-Roman-31"/>
       <use x="63.623046875" xlink:href="#BitstreamVeraSans-Roman-30"/>
      </g>
     </g>
    </g>
    <g id="xtick_3">
     <g id="line2d_25">
      <g>
       <use style="stroke:#000000;stroke-width:0.5;" x="250.56" xlink:href="#m93b0483c22" y="388.8"/>
      </g>
     </g>
     <g id="line2d_26">
      <g>
       <use style="stroke:#000000;stroke-width:0.5;" x="250.56" xlink:href="#m741efc42ff" y="43.2"/>
      </g>
     </g>
     <g id="text_3">
      <!-- 20 -->
      <defs>
       <path d="
M19.1875 8.29688
L53.6094 8.29688
L53.6094 0
L7.32812 0
L7.32812 8.29688
Q12.9375 14.1094 22.625 23.8906
Q32.3281 33.6875 34.8125 36.5312
Q39.5469 41.8438 41.4219 45.5312
Q43.3125 49.2188 43.3125 52.7812
Q43.3125 58.5938 39.2344 62.25
Q35.1562 65.9219 28.6094 65.9219
Q23.9688 65.9219 18.8125 64.3125
Q13.6719 62.7031 7.8125 59.4219
L7.8125 69.3906
Q13.7656 71.7812 18.9375 73
Q24.125 74.2188 28.4219 74.2188
Q39.75 74.2188 46.4844 68.5469
Q53.2188 62.8906 53.2188 53.4219
Q53.2188 48.9219 51.5312 44.8906
Q49.8594 40.875 45.4062 35.4062
Q44.1875 33.9844 37.6406 27.2188
Q31.1094 20.4531 19.1875 8.29688" id="BitstreamVeraSans-Roman-32"/>
      </defs>
      <g transform="translate(243.763125 401.918125)scale(0.12 -0.12)">
       <use xlink:href="#BitstreamVeraSans-Roman-32"/>
       <use x="63.623046875" xlink:href="#BitstreamVeraSans-Roman-30"/>
      </g>
     </g>
    </g>
    <g id="xtick_4">
     <g id="line2d_27">
      <g>
       <use style="stroke:#000000;stroke-width:0.5;" x="339.84" xlink:href="#m93b0483c22" y="388.8"/>
      </g>
     </g>
     <g id="line2d_28">
      <g>
       <use style="stroke:#000000;stroke-width:0.5;" x="339.84" xlink:href="#m741efc42ff" y="43.2"/>
      </g>
     </g>
     <g id="text_4">
      <!-- 30 -->
      <defs>
       <path d="
M40.5781 39.3125
Q47.6562 37.7969 51.625 33
Q55.6094 28.2188 55.6094 21.1875
Q55.6094 10.4062 48.1875 4.48438
Q40.7656 -1.42188 27.0938 -1.42188
Q22.5156 -1.42188 17.6562 -0.515625
Q12.7969 0.390625 7.625 2.20312
L7.625 11.7188
Q11.7188 9.32812 16.5938 8.10938
Q21.4844 6.89062 26.8125 6.89062
Q36.0781 6.89062 40.9375 10.5469
Q45.7969 14.2031 45.7969 21.1875
Q45.7969 27.6406 41.2812 31.2656
Q36.7656 34.9062 28.7188 34.9062
L20.2188 34.9062
L20.2188 43.0156
L29.1094 43.0156
Q36.375 43.0156 40.2344 45.9219
Q44.0938 48.8281 44.0938 54.2969
Q44.0938 59.9062 40.1094 62.9062
Q36.1406 65.9219 28.7188 65.9219
Q24.6562 65.9219 20.0156 65.0312
Q15.375 64.1562 9.8125 62.3125
L9.8125 71.0938
Q15.4375 72.6562 20.3438 73.4375
Q25.25 74.2188 29.5938 74.2188
Q40.8281 74.2188 47.3594 69.1094
Q53.9062 64.0156 53.9062 55.3281
Q53.9062 49.2656 50.4375 45.0938
Q46.9688 40.9219 40.5781 39.3125" id="BitstreamVeraSans-Roman-33"/>
      </defs>
      <g transform="translate(333.0609375 401.918125)scale(0.12 -0.12)">
       <use xlink:href="#BitstreamVeraSans-Roman-33"/>
       <use x="63.623046875" xlink:href="#BitstreamVeraSans-Roman-30"/>
      </g>
     </g>
    </g>
    <g id="xtick_5">
     <g id="line2d_29">
      <g>
       <use style="stroke:#000000;stroke-width:0.5;" x="429.12" xlink:href="#m93b0483c22" y="388.8"/>
      </g>
     </g>
     <g id="line2d_30">
      <g>
       <use style="stroke:#000000;stroke-width:0.5;" x="429.12" xlink:href="#m741efc42ff" y="43.2"/>
      </g>
     </g>
     <g id="text_5">
      <!-- 40 -->
      <defs>
       <path d="
M37.7969 64.3125
L12.8906 25.3906
L37.7969 25.3906
z

M35.2031 72.9062
L47.6094 72.9062
L47.6094 25.3906
L58.0156 25.3906
L58.0156 17.1875
L47.6094 17.1875
L47.6094 0
L37.7969 0
L37.7969 17.1875
L4.89062 17.1875
L4.89062 26.7031
z
" id="BitstreamVeraSans-Roman-34"/>
      </defs>
      <g transform="translate(422.176875 401.918125)scale(0.12 -0.12)">
       <use xlink:href="#BitstreamVeraSans-Roman-34"/>
       <use x="63.623046875" xlink:href="#BitstreamVeraSans-Roman-30"/>
      </g>
     </g>
    </g>
    <g id="xtick_6">
     <g id="line2d_31">
      <g>
       <use style="stroke:#000000;stroke-width:0.5;" x="518.4" xlink:href="#m93b0483c22" y="388.8"/>
      </g>
     </g>
     <g id="line2d_32">
      <g>
       <use style="stroke:#000000;stroke-width:0.5;" x="518.4" xlink:href="#m741efc42ff" y="43.2"/>
      </g>
     </g>
     <g id="text_6">
      <!-- 50 -->
      <defs>
       <path d="
M10.7969 72.9062
L49.5156 72.9062
L49.5156 64.5938
L19.8281 64.5938
L19.8281 46.7344
Q21.9688 47.4688 24.1094 47.8281
Q26.2656 48.1875 28.4219 48.1875
Q40.625 48.1875 47.75 41.5
Q54.8906 34.8125 54.8906 23.3906
Q54.8906 11.625 47.5625 5.09375
Q40.2344 -1.42188 26.9062 -1.42188
Q22.3125 -1.42188 17.5469 -0.640625
Q12.7969 0.140625 7.71875 1.70312
L7.71875 11.625
Q12.1094 9.23438 16.7969 8.0625
Q21.4844 6.89062 26.7031 6.89062
Q35.1562 6.89062 40.0781 11.3281
Q45.0156 15.7656 45.0156 23.3906
Q45.0156 31 40.0781 35.4375
Q35.1562 39.8906 26.7031 39.8906
Q22.75 39.8906 18.8125 39.0156
Q14.8906 38.1406 10.7969 36.2812
z
" id="BitstreamVeraSans-Roman-35"/>
      </defs>
      <g transform="translate(511.6265625 401.918125)scale(0.12 -0.12)">
       <use xlink:href="#BitstreamVeraSans-Roman-35"/>
       <use x="63.623046875" xlink:href="#BitstreamVeraSans-Roman-30"/>
      </g>
     </g>
    </g>
    <g id="text_7">
     <!-- Freq (Hz) -->
     <defs>
      <path id="BitstreamVeraSans-Roman-20"/>
      <path d="
M8.01562 75.875
L15.8281 75.875
Q23.1406 64.3594 26.7812 53.3125
Q30.4219 42.2812 30.4219 31.3906
Q30.4219 20.4531 26.7812 9.375
Q23.1406 -1.70312 15.8281 -13.1875
L8.01562 -13.1875
Q14.5 -2 17.7031 9.0625
Q20.9062 20.125 20.9062 31.3906
Q20.9062 42.6719 17.7031 53.6562
Q14.5 64.6562 8.01562 75.875" id="BitstreamVeraSans-Roman-29"/>
      <path d="
M31 75.875
Q24.4688 64.6562 21.2812 53.6562
Q18.1094 42.6719 18.1094 31.3906
Q18.1094 20.125 21.3125 9.0625
Q24.5156 -2 31 -13.1875
L23.1875 -13.1875
Q15.875 -1.70312 12.2344 9.375
Q8.59375 20.4531 8.59375 31.3906
Q8.59375 42.2812 12.2031 53.3125
Q15.8281 64.3594 23.1875 75.875
z
" id="BitstreamVeraSans-Roman-28"/>
      <path d="
M5.51562 54.6875
L48.1875 54.6875
L48.1875 46.4844
L14.4062 7.17188
L48.1875 7.17188
L48.1875 0
L4.29688 0
L4.29688 8.20312
L38.0938 47.5156
L5.51562 47.5156
z
" id="BitstreamVeraSans-Roman-7a"/>
      <path d="
M9.8125 72.9062
L51.7031 72.9062
L51.7031 64.5938
L19.6719 64.5938
L19.6719 43.1094
L48.5781 43.1094
L48.5781 34.8125
L19.6719 34.8125
L19.6719 0
L9.8125 0
z
" id="BitstreamVeraSans-Roman-46"/>
      <path d="
M56.2031 29.5938
L56.2031 25.2031
L14.8906 25.2031
Q15.4844 15.9219 20.4844 11.0625
Q25.4844 6.20312 34.4219 6.20312
Q39.5938 6.20312 44.4531 7.46875
Q49.3125 8.73438 54.1094 11.2812
L54.1094 2.78125
Q49.2656 0.734375 44.1875 -0.34375
Q39.1094 -1.42188 33.8906 -1.42188
Q20.7969 -1.42188 13.1562 6.1875
Q5.51562 13.8125 5.51562 26.8125
Q5.51562 40.2344 12.7656 48.1094
Q20.0156 56 32.3281 56
Q43.3594 56 49.7812 48.8906
Q56.2031 41.7969 56.2031 29.5938
M47.2188 32.2344
Q47.125 39.5938 43.0938 43.9844
Q39.0625 48.3906 32.4219 48.3906
Q24.9062 48.3906 20.3906 44.1406
Q15.875 39.8906 15.1875 32.1719
z
" id="BitstreamVeraSans-Roman-65"/>
      <path d="
M9.8125 72.9062
L19.6719 72.9062
L19.6719 43.0156
L55.5156 43.0156
L55.5156 72.9062
L65.375 72.9062
L65.375 0
L55.5156 0
L55.5156 34.7188
L19.6719 34.7188
L19.6719 0
L9.8125 0
z
" id="BitstreamVeraSans-Roman-48"/>
      <path d="
M41.1094 46.2969
Q39.5938 47.1719 37.8125 47.5781
Q36.0312 48 33.8906 48
Q26.2656 48 22.1875 43.0469
Q18.1094 38.0938 18.1094 28.8125
L18.1094 0
L9.07812 0
L9.07812 54.6875
L18.1094 54.6875
L18.1094 46.1875
Q20.9531 51.1719 25.4844 53.5781
Q30.0312 56 36.5312 56
Q37.4531 56 38.5781 55.875
Q39.7031 55.7656 41.0625 55.5156
z
" id="BitstreamVeraSans-Roman-72"/>
      <path d="
M14.7969 27.2969
Q14.7969 17.3906 18.875 11.75
Q22.9531 6.10938 30.0781 6.10938
Q37.2031 6.10938 41.2969 11.75
Q45.4062 17.3906 45.4062 27.2969
Q45.4062 37.2031 41.2969 42.8438
Q37.2031 48.4844 30.0781 48.4844
Q22.9531 48.4844 18.875 42.8438
Q14.7969 37.2031 14.7969 27.2969
M45.4062 8.20312
Q42.5781 3.32812 38.25 0.953125
Q33.9375 -1.42188 27.875 -1.42188
Q17.9688 -1.42188 11.7344 6.48438
Q5.51562 14.4062 5.51562 27.2969
Q5.51562 40.1875 11.7344 48.0938
Q17.9688 56 27.875 56
Q33.9375 56 38.25 53.625
Q42.5781 51.2656 45.4062 46.3906
L45.4062 54.6875
L54.3906 54.6875
L54.3906 -20.7969
L45.4062 -20.7969
z
" id="BitstreamVeraSans-Roman-71"/>
     </defs>
     <g transform="translate(268.6171875 418.531875)scale(0.12 -0.12)">
      <use xlink:href="#BitstreamVeraSans-Roman-46"/>
      <use x="50.26953125" xlink:href="#BitstreamVeraSans-Roman-72"/>
      <use x="89.1328125" xlink:href="#BitstreamVeraSans-Roman-65"/>
      <use x="150.65625" xlink:href="#BitstreamVeraSans-Roman-71"/>
      <use x="214.1328125" xlink:href="#BitstreamVeraSans-Roman-20"/>
      <use x="245.919921875" xlink:href="#BitstreamVeraSans-Roman-28"/>
      <use x="284.93359375" xlink:href="#BitstreamVeraSans-Roman-48"/>
      <use x="360.12890625" xlink:href="#BitstreamVeraSans-Roman-7a"/>
      <use x="412.619140625" xlink:href="#BitstreamVeraSans-Roman-29"/>
     </g>
    </g>
   </g>
   <g id="matplotlib.axis_2">
    <g id="ytick_1">
     <g id="line2d_33">
      <defs>
       <path d="
M0 0
L4 0" id="m728421d6d4" style="stroke:#000000;stroke-width:0.5;"/>
      </defs>
      <g>
       <use style="stroke:#000000;stroke-width:0.5;" x="72.0" xlink:href="#m728421d6d4" y="388.8"/>
      </g>
     </g>
     <g id="line2d_34">
      <defs>
       <path d="
M0 0
L-4 0" id="mcb0005524f" style="stroke:#000000;stroke-width:0.5;"/>
      </defs>
      <g>
       <use style="stroke:#000000;stroke-width:0.5;" x="518.4" xlink:href="#mcb0005524f" y="388.8"/>
      </g>
     </g>
     <g id="text_8">
      <!-- 0.00 -->
      <defs>
       <path d="
M10.6875 12.4062
L21 12.4062
L21 0
L10.6875 0
z
" id="BitstreamVeraSans-Roman-2e"/>
      </defs>
      <g transform="translate(42.869375 392.11125)scale(0.12 -0.12)">
       <use xlink:href="#BitstreamVeraSans-Roman-30"/>
       <use x="63.623046875" xlink:href="#BitstreamVeraSans-Roman-2e"/>
       <use x="95.41015625" xlink:href="#BitstreamVeraSans-Roman-30"/>
       <use x="159.033203125" xlink:href="#BitstreamVeraSans-Roman-30"/>
      </g>
     </g>
    </g>
    <g id="ytick_2">
     <g id="line2d_35">
      <g>
       <use style="stroke:#000000;stroke-width:0.5;" x="72.0" xlink:href="#m728421d6d4" y="345.6"/>
      </g>
     </g>
     <g id="line2d_36">
      <g>
       <use style="stroke:#000000;stroke-width:0.5;" x="518.4" xlink:href="#mcb0005524f" y="345.6"/>
      </g>
     </g>
     <g id="text_9">
      <!-- 0.05 -->
      <g transform="translate(43.120625 348.91125)scale(0.12 -0.12)">
       <use xlink:href="#BitstreamVeraSans-Roman-30"/>
       <use x="63.623046875" xlink:href="#BitstreamVeraSans-Roman-2e"/>
       <use x="95.41015625" xlink:href="#BitstreamVeraSans-Roman-30"/>
       <use x="159.033203125" xlink:href="#BitstreamVeraSans-Roman-35"/>
      </g>
     </g>
    </g>
    <g id="ytick_3">
     <g id="line2d_37">
      <g>
       <use style="stroke:#000000;stroke-width:0.5;" x="72.0" xlink:href="#m728421d6d4" y="302.4"/>
      </g>
     </g>
     <g id="line2d_38">
      <g>
       <use style="stroke:#000000;stroke-width:0.5;" x="518.4" xlink:href="#mcb0005524f" y="302.4"/>
      </g>
     </g>
     <g id="text_10">
      <!-- 0.10 -->
      <g transform="translate(42.869375 305.71125)scale(0.12 -0.12)">
       <use xlink:href="#BitstreamVeraSans-Roman-30"/>
       <use x="63.623046875" xlink:href="#BitstreamVeraSans-Roman-2e"/>
       <use x="95.41015625" xlink:href="#BitstreamVeraSans-Roman-31"/>
       <use x="159.033203125" xlink:href="#BitstreamVeraSans-Roman-30"/>
      </g>
     </g>
    </g>
    <g id="ytick_4">
     <g id="line2d_39">
      <g>
       <use style="stroke:#000000;stroke-width:0.5;" x="72.0" xlink:href="#m728421d6d4" y="259.2"/>
      </g>
     </g>
     <g id="line2d_40">
      <g>
       <use style="stroke:#000000;stroke-width:0.5;" x="518.4" xlink:href="#mcb0005524f" y="259.2"/>
      </g>
     </g>
     <g id="text_11">
      <!-- 0.15 -->
      <g transform="translate(43.120625 262.51125)scale(0.12 -0.12)">
       <use xlink:href="#BitstreamVeraSans-Roman-30"/>
       <use x="63.623046875" xlink:href="#BitstreamVeraSans-Roman-2e"/>
       <use x="95.41015625" xlink:href="#BitstreamVeraSans-Roman-31"/>
       <use x="159.033203125" xlink:href="#BitstreamVeraSans-Roman-35"/>
      </g>
     </g>
    </g>
    <g id="ytick_5">
     <g id="line2d_41">
      <g>
       <use style="stroke:#000000;stroke-width:0.5;" x="72.0" xlink:href="#m728421d6d4" y="216.0"/>
      </g>
     </g>
     <g id="line2d_42">
      <g>
       <use style="stroke:#000000;stroke-width:0.5;" x="518.4" xlink:href="#mcb0005524f" y="216.0"/>
      </g>
     </g>
     <g id="text_12">
      <!-- 0.20 -->
      <g transform="translate(42.869375 219.31125)scale(0.12 -0.12)">
       <use xlink:href="#BitstreamVeraSans-Roman-30"/>
       <use x="63.623046875" xlink:href="#BitstreamVeraSans-Roman-2e"/>
       <use x="95.41015625" xlink:href="#BitstreamVeraSans-Roman-32"/>
       <use x="159.033203125" xlink:href="#BitstreamVeraSans-Roman-30"/>
      </g>
     </g>
    </g>
    <g id="ytick_6">
     <g id="line2d_43">
      <g>
       <use style="stroke:#000000;stroke-width:0.5;" x="72.0" xlink:href="#m728421d6d4" y="172.8"/>
      </g>
     </g>
     <g id="line2d_44">
      <g>
       <use style="stroke:#000000;stroke-width:0.5;" x="518.4" xlink:href="#mcb0005524f" y="172.8"/>
      </g>
     </g>
     <g id="text_13">
      <!-- 0.25 -->
      <g transform="translate(43.120625 176.11125)scale(0.12 -0.12)">
       <use xlink:href="#BitstreamVeraSans-Roman-30"/>
       <use x="63.623046875" xlink:href="#BitstreamVeraSans-Roman-2e"/>
       <use x="95.41015625" xlink:href="#BitstreamVeraSans-Roman-32"/>
       <use x="159.033203125" xlink:href="#BitstreamVeraSans-Roman-35"/>
      </g>
     </g>
    </g>
    <g id="ytick_7">
     <g id="line2d_45">
      <g>
       <use style="stroke:#000000;stroke-width:0.5;" x="72.0" xlink:href="#m728421d6d4" y="129.6"/>
      </g>
     </g>
     <g id="line2d_46">
      <g>
       <use style="stroke:#000000;stroke-width:0.5;" x="518.4" xlink:href="#mcb0005524f" y="129.6"/>
      </g>
     </g>
     <g id="text_14">
      <!-- 0.30 -->
      <g transform="translate(42.869375 132.91125)scale(0.12 -0.12)">
       <use xlink:href="#BitstreamVeraSans-Roman-30"/>
       <use x="63.623046875" xlink:href="#BitstreamVeraSans-Roman-2e"/>
       <use x="95.41015625" xlink:href="#BitstreamVeraSans-Roman-33"/>
       <use x="159.033203125" xlink:href="#BitstreamVeraSans-Roman-30"/>
      </g>
     </g>
    </g>
    <g id="ytick_8">
     <g id="line2d_47">
      <g>
       <use style="stroke:#000000;stroke-width:0.5;" x="72.0" xlink:href="#m728421d6d4" y="86.4"/>
      </g>
     </g>
     <g id="line2d_48">
      <g>
       <use style="stroke:#000000;stroke-width:0.5;" x="518.4" xlink:href="#mcb0005524f" y="86.4"/>
      </g>
     </g>
     <g id="text_15">
      <!-- 0.35 -->
      <g transform="translate(43.120625 89.71125)scale(0.12 -0.12)">
       <use xlink:href="#BitstreamVeraSans-Roman-30"/>
       <use x="63.623046875" xlink:href="#BitstreamVeraSans-Roman-2e"/>
       <use x="95.41015625" xlink:href="#BitstreamVeraSans-Roman-33"/>
       <use x="159.033203125" xlink:href="#BitstreamVeraSans-Roman-35"/>
      </g>
     </g>
    </g>
    <g id="ytick_9">
     <g id="line2d_49">
      <g>
       <use style="stroke:#000000;stroke-width:0.5;" x="72.0" xlink:href="#m728421d6d4" y="43.2"/>
      </g>
     </g>
     <g id="line2d_50">
      <g>
       <use style="stroke:#000000;stroke-width:0.5;" x="518.4" xlink:href="#mcb0005524f" y="43.2"/>
      </g>
     </g>
     <g id="text_16">
      <!-- 0.40 -->
      <g transform="translate(42.869375 46.51125)scale(0.12 -0.12)">
       <use xlink:href="#BitstreamVeraSans-Roman-30"/>
       <use x="63.623046875" xlink:href="#BitstreamVeraSans-Roman-2e"/>
       <use x="95.41015625" xlink:href="#BitstreamVeraSans-Roman-34"/>
       <use x="159.033203125" xlink:href="#BitstreamVeraSans-Roman-30"/>
      </g>
     </g>
    </g>
    <g id="text_17">
     <!-- Normalized PSD -->
     <defs>
      <path d="
M9.8125 72.9062
L23.0938 72.9062
L55.4219 11.9219
L55.4219 72.9062
L64.9844 72.9062
L64.9844 0
L51.7031 0
L19.3906 60.9844
L19.3906 0
L9.8125 0
z
" id="BitstreamVeraSans-Roman-4e"/>
      <path d="
M52 44.1875
Q55.375 50.25 60.0625 53.125
Q64.75 56 71.0938 56
Q79.6406 56 84.2812 50.0156
Q88.9219 44.0469 88.9219 33.0156
L88.9219 0
L79.8906 0
L79.8906 32.7188
Q79.8906 40.5781 77.0938 44.375
Q74.3125 48.1875 68.6094 48.1875
Q61.625 48.1875 57.5625 43.5469
Q53.5156 38.9219 53.5156 30.9062
L53.5156 0
L44.4844 0
L44.4844 32.7188
Q44.4844 40.625 41.7031 44.4062
Q38.9219 48.1875 33.1094 48.1875
Q26.2188 48.1875 22.1562 43.5312
Q18.1094 38.875 18.1094 30.9062
L18.1094 0
L9.07812 0
L9.07812 54.6875
L18.1094 54.6875
L18.1094 46.1875
Q21.1875 51.2188 25.4844 53.6094
Q29.7812 56 35.6875 56
Q41.6562 56 45.8281 52.9688
Q50 49.9531 52 44.1875" id="BitstreamVeraSans-Roman-6d"/>
      <path d="
M30.6094 48.3906
Q23.3906 48.3906 19.1875 42.75
Q14.9844 37.1094 14.9844 27.2969
Q14.9844 17.4844 19.1562 11.8438
Q23.3438 6.20312 30.6094 6.20312
Q37.7969 6.20312 41.9844 11.8594
Q46.1875 17.5312 46.1875 27.2969
Q46.1875 37.0156 41.9844 42.7031
Q37.7969 48.3906 30.6094 48.3906
M30.6094 56
Q42.3281 56 49.0156 48.375
Q55.7188 40.7656 55.7188 27.2969
Q55.7188 13.875 49.0156 6.21875
Q42.3281 -1.42188 30.6094 -1.42188
Q18.8438 -1.42188 12.1719 6.21875
Q5.51562 13.875 5.51562 27.2969
Q5.51562 40.7656 12.1719 48.375
Q18.8438 56 30.6094 56" id="BitstreamVeraSans-Roman-6f"/>
      <path d="
M9.42188 75.9844
L18.4062 75.9844
L18.4062 0
L9.42188 0
z
" id="BitstreamVeraSans-Roman-6c"/>
      <path d="
M19.6719 64.7969
L19.6719 37.4062
L32.0781 37.4062
Q38.9688 37.4062 42.7188 40.9688
Q46.4844 44.5312 46.4844 51.125
Q46.4844 57.6719 42.7188 61.2344
Q38.9688 64.7969 32.0781 64.7969
z

M9.8125 72.9062
L32.0781 72.9062
Q44.3438 72.9062 50.6094 67.3594
Q56.8906 61.8125 56.8906 51.125
Q56.8906 40.3281 50.6094 34.8125
Q44.3438 29.2969 32.0781 29.2969
L19.6719 29.2969
L19.6719 0
L9.8125 0
z
" id="BitstreamVeraSans-Roman-50"/>
      <path d="
M19.6719 64.7969
L19.6719 8.10938
L31.5938 8.10938
Q46.6875 8.10938 53.6875 14.9375
Q60.6875 21.7812 60.6875 36.5312
Q60.6875 51.1719 53.6875 57.9844
Q46.6875 64.7969 31.5938 64.7969
z

M9.8125 72.9062
L30.0781 72.9062
Q51.2656 72.9062 61.1719 64.0938
Q71.0938 55.2812 71.0938 36.5312
Q71.0938 17.6719 61.125 8.82812
Q51.1719 0 30.0781 0
L9.8125 0
z
" id="BitstreamVeraSans-Roman-44"/>
      <path d="
M53.5156 70.5156
L53.5156 60.8906
Q47.9062 63.5781 42.9219 64.8906
Q37.9375 66.2188 33.2969 66.2188
Q25.25 66.2188 20.875 63.0938
Q16.5 59.9688 16.5 54.2031
Q16.5 49.3594 19.4062 46.8906
Q22.3125 44.4375 30.4219 42.9219
L36.375 41.7031
Q47.4062 39.5938 52.6562 34.2969
Q57.9062 29 57.9062 20.125
Q57.9062 9.51562 50.7969 4.04688
Q43.7031 -1.42188 29.9844 -1.42188
Q24.8125 -1.42188 18.9688 -0.25
Q13.1406 0.921875 6.89062 3.21875
L6.89062 13.375
Q12.8906 10.0156 18.6562 8.29688
Q24.4219 6.59375 29.9844 6.59375
Q38.4219 6.59375 43.0156 9.90625
Q47.6094 13.2344 47.6094 19.3906
Q47.6094 24.75 44.3125 27.7812
Q41.0156 30.8125 33.5 32.3281
L27.4844 33.5
Q16.4531 35.6875 11.5156 40.375
Q6.59375 45.0625 6.59375 53.4219
Q6.59375 63.0938 13.4062 68.6562
Q20.2188 74.2188 32.1719 74.2188
Q37.3125 74.2188 42.625 73.2812
Q47.9531 72.3594 53.5156 70.5156" id="BitstreamVeraSans-Roman-53"/>
      <path d="
M9.42188 54.6875
L18.4062 54.6875
L18.4062 0
L9.42188 0
z

M9.42188 75.9844
L18.4062 75.9844
L18.4062 64.5938
L9.42188 64.5938
z
" id="BitstreamVeraSans-Roman-69"/>
      <path d="
M45.4062 46.3906
L45.4062 75.9844
L54.3906 75.9844
L54.3906 0
L45.4062 0
L45.4062 8.20312
Q42.5781 3.32812 38.25 0.953125
Q33.9375 -1.42188 27.875 -1.42188
Q17.9688 -1.42188 11.7344 6.48438
Q5.51562 14.4062 5.51562 27.2969
Q5.51562 40.1875 11.7344 48.0938
Q17.9688 56 27.875 56
Q33.9375 56 38.25 53.625
Q42.5781 51.2656 45.4062 46.3906
M14.7969 27.2969
Q14.7969 17.3906 18.875 11.75
Q22.9531 6.10938 30.0781 6.10938
Q37.2031 6.10938 41.2969 11.75
Q45.4062 17.3906 45.4062 27.2969
Q45.4062 37.2031 41.2969 42.8438
Q37.2031 48.4844 30.0781 48.4844
Q22.9531 48.4844 18.875 42.8438
Q14.7969 37.2031 14.7969 27.2969" id="BitstreamVeraSans-Roman-64"/>
      <path d="
M34.2812 27.4844
Q23.3906 27.4844 19.1875 25
Q14.9844 22.5156 14.9844 16.5
Q14.9844 11.7188 18.1406 8.90625
Q21.2969 6.10938 26.7031 6.10938
Q34.1875 6.10938 38.7031 11.4062
Q43.2188 16.7031 43.2188 25.4844
L43.2188 27.4844
z

M52.2031 31.2031
L52.2031 0
L43.2188 0
L43.2188 8.29688
Q40.1406 3.32812 35.5469 0.953125
Q30.9531 -1.42188 24.3125 -1.42188
Q15.9219 -1.42188 10.9531 3.29688
Q6 8.01562 6 15.9219
Q6 25.1406 12.1719 29.8281
Q18.3594 34.5156 30.6094 34.5156
L43.2188 34.5156
L43.2188 35.4062
Q43.2188 41.6094 39.1406 45
Q35.0625 48.3906 27.6875 48.3906
Q23 48.3906 18.5469 47.2656
Q14.1094 46.1406 10.0156 43.8906
L10.0156 52.2031
Q14.9375 54.1094 19.5781 55.0469
Q24.2188 56 28.6094 56
Q40.4844 56 46.3438 49.8438
Q52.2031 43.7031 52.2031 31.2031" id="BitstreamVeraSans-Roman-61"/>
     </defs>
     <g transform="translate(35.37375 263.6259375)rotate(-90.0)scale(0.12 -0.12)">
      <use xlink:href="#BitstreamVeraSans-Roman-4e"/>
      <use x="74.8046875" xlink:href="#BitstreamVeraSans-Roman-6f"/>
      <use x="135.986328125" xlink:href="#BitstreamVeraSans-Roman-72"/>
      <use x="175.349609375" xlink:href="#BitstreamVeraSans-Roman-6d"/>
      <use x="272.76171875" xlink:href="#BitstreamVeraSans-Roman-61"/>
      <use x="334.041015625" xlink:href="#BitstreamVeraSans-Roman-6c"/>
      <use x="361.82421875" xlink:href="#BitstreamVeraSans-Roman-69"/>
      <use x="389.607421875" xlink:href="#BitstreamVeraSans-Roman-7a"/>
      <use x="442.09765625" xlink:href="#BitstreamVeraSans-Roman-65"/>
      <use x="503.62109375" xlink:href="#BitstreamVeraSans-Roman-64"/>
      <use x="567.09765625" xlink:href="#BitstreamVeraSans-Roman-20"/>
      <use x="598.884765625" xlink:href="#BitstreamVeraSans-Roman-50"/>
      <use x="659.1875" xlink:href="#BitstreamVeraSans-Roman-53"/>
      <use x="722.6640625" xlink:href="#BitstreamVeraSans-Roman-44"/>
     </g>
    </g>
   </g>
   <g id="text_18">
    <!-- Channel 84- Successful Trial-Averaged PSD -->
    <defs>
     <path d="
M37.1094 75.9844
L37.1094 68.5
L28.5156 68.5
Q23.6875 68.5 21.7969 66.5469
Q19.9219 64.5938 19.9219 59.5156
L19.9219 54.6875
L34.7188 54.6875
L34.7188 47.7031
L19.9219 47.7031
L19.9219 0
L10.8906 0
L10.8906 47.7031
L2.29688 47.7031
L2.29688 54.6875
L10.8906 54.6875
L10.8906 58.5
Q10.8906 67.625 15.1406 71.7969
Q19.3906 75.9844 28.6094 75.9844
z
" id="BitstreamVeraSans-Roman-66"/>
     <path d="
M54.8906 33.0156
L54.8906 0
L45.9062 0
L45.9062 32.7188
Q45.9062 40.4844 42.875 44.3281
Q39.8438 48.1875 33.7969 48.1875
Q26.5156 48.1875 22.3125 43.5469
Q18.1094 38.9219 18.1094 30.9062
L18.1094 0
L9.07812 0
L9.07812 54.6875
L18.1094 54.6875
L18.1094 46.1875
Q21.3438 51.125 25.7031 53.5625
Q30.0781 56 35.7969 56
Q45.2188 56 50.0469 50.1719
Q54.8906 44.3438 54.8906 33.0156" id="BitstreamVeraSans-Roman-6e"/>
     <path d="
M31.7812 34.625
Q24.75 34.625 20.7188 30.8594
Q16.7031 27.0938 16.7031 20.5156
Q16.7031 13.9219 20.7188 10.1562
Q24.75 6.39062 31.7812 6.39062
Q38.8125 6.39062 42.8594 10.1719
Q46.9219 13.9688 46.9219 20.5156
Q46.9219 27.0938 42.8906 30.8594
Q38.875 34.625 31.7812 34.625
M21.9219 38.8125
Q15.5781 40.375 12.0312 44.7188
Q8.5 49.0781 8.5 55.3281
Q8.5 64.0625 14.7188 69.1406
Q20.9531 74.2188 31.7812 74.2188
Q42.6719 74.2188 48.875 69.1406
Q55.0781 64.0625 55.0781 55.3281
Q55.0781 49.0781 51.5312 44.7188
Q48 40.375 41.7031 38.8125
Q48.8281 37.1562 52.7969 32.3125
Q56.7812 27.4844 56.7812 20.5156
Q56.7812 9.90625 50.3125 4.23438
Q43.8438 -1.42188 31.7812 -1.42188
Q19.7344 -1.42188 13.25 4.23438
Q6.78125 9.90625 6.78125 20.5156
Q6.78125 27.4844 10.7812 32.3125
Q14.7969 37.1562 21.9219 38.8125
M18.3125 54.3906
Q18.3125 48.7344 21.8438 45.5625
Q25.3906 42.3906 31.7812 42.3906
Q38.1406 42.3906 41.7188 45.5625
Q45.3125 48.7344 45.3125 54.3906
Q45.3125 60.0625 41.7188 63.2344
Q38.1406 66.4062 31.7812 66.4062
Q25.3906 66.4062 21.8438 63.2344
Q18.3125 60.0625 18.3125 54.3906" id="BitstreamVeraSans-Roman-38"/>
     <path d="
M64.4062 67.2812
L64.4062 56.8906
Q59.4219 61.5312 53.7812 63.8125
Q48.1406 66.1094 41.7969 66.1094
Q29.2969 66.1094 22.6562 58.4688
Q16.0156 50.8281 16.0156 36.375
Q16.0156 21.9688 22.6562 14.3281
Q29.2969 6.6875 41.7969 6.6875
Q48.1406 6.6875 53.7812 8.98438
Q59.4219 11.2812 64.4062 15.9219
L64.4062 5.60938
Q59.2344 2.09375 53.4375 0.328125
Q47.6562 -1.42188 41.2188 -1.42188
Q24.6562 -1.42188 15.125 8.70312
Q5.60938 18.8438 5.60938 36.375
Q5.60938 53.9531 15.125 64.0781
Q24.6562 74.2188 41.2188 74.2188
Q47.75 74.2188 53.5312 72.4844
Q59.3281 70.75 64.4062 67.2812" id="BitstreamVeraSans-Roman-43"/>
     <path d="
M54.8906 33.0156
L54.8906 0
L45.9062 0
L45.9062 32.7188
Q45.9062 40.4844 42.875 44.3281
Q39.8438 48.1875 33.7969 48.1875
Q26.5156 48.1875 22.3125 43.5469
Q18.1094 38.9219 18.1094 30.9062
L18.1094 0
L9.07812 0
L9.07812 75.9844
L18.1094 75.9844
L18.1094 46.1875
Q21.3438 51.125 25.7031 53.5625
Q30.0781 56 35.7969 56
Q45.2188 56 50.0469 50.1719
Q54.8906 44.3438 54.8906 33.0156" id="BitstreamVeraSans-Roman-68"/>
     <path d="
M34.1875 63.1875
L20.7969 26.9062
L47.6094 26.9062
z

M28.6094 72.9062
L39.7969 72.9062
L67.5781 0
L57.3281 0
L50.6875 18.7031
L17.8281 18.7031
L11.1875 0
L0.78125 0
z
" id="BitstreamVeraSans-Roman-41"/>
     <path d="
M2.98438 54.6875
L12.5 54.6875
L29.5938 8.79688
L46.6875 54.6875
L56.2031 54.6875
L35.6875 0
L23.4844 0
z
" id="BitstreamVeraSans-Roman-76"/>
     <path d="
M-0.296875 72.9062
L61.375 72.9062
L61.375 64.5938
L35.5 64.5938
L35.5 0
L25.5938 0
L25.5938 64.5938
L-0.296875 64.5938
z
" id="BitstreamVeraSans-Roman-54"/>
     <path d="
M45.4062 27.9844
Q45.4062 37.75 41.375 43.1094
Q37.3594 48.4844 30.0781 48.4844
Q22.8594 48.4844 18.8281 43.1094
Q14.7969 37.75 14.7969 27.9844
Q14.7969 18.2656 18.8281 12.8906
Q22.8594 7.51562 30.0781 7.51562
Q37.3594 7.51562 41.375 12.8906
Q45.4062 18.2656 45.4062 27.9844
M54.3906 6.78125
Q54.3906 -7.17188 48.1875 -13.9844
Q42 -20.7969 29.2031 -20.7969
Q24.4688 -20.7969 20.2656 -20.0938
Q16.0625 -19.3906 12.1094 -17.9219
L12.1094 -9.1875
Q16.0625 -11.3281 19.9219 -12.3438
Q23.7812 -13.375 27.7812 -13.375
Q36.625 -13.375 41.0156 -8.76562
Q45.4062 -4.15625 45.4062 5.17188
L45.4062 9.625
Q42.625 4.78125 38.2812 2.39062
Q33.9375 0 27.875 0
Q17.8281 0 11.6719 7.65625
Q5.51562 15.3281 5.51562 27.9844
Q5.51562 40.6719 11.6719 48.3281
Q17.8281 56 27.875 56
Q33.9375 56 38.2812 53.6094
Q42.625 51.2188 45.4062 46.3906
L45.4062 54.6875
L54.3906 54.6875
z
" id="BitstreamVeraSans-Roman-67"/>
     <path d="
M8.5 21.5781
L8.5 54.6875
L17.4844 54.6875
L17.4844 21.9219
Q17.4844 14.1562 20.5 10.2656
Q23.5312 6.39062 29.5938 6.39062
Q36.8594 6.39062 41.0781 11.0312
Q45.3125 15.6719 45.3125 23.6875
L45.3125 54.6875
L54.2969 54.6875
L54.2969 0
L45.3125 0
L45.3125 8.40625
Q42.0469 3.42188 37.7188 1
Q33.4062 -1.42188 27.6875 -1.42188
Q18.2656 -1.42188 13.375 4.4375
Q8.5 10.2969 8.5 21.5781" id="BitstreamVeraSans-Roman-75"/>
     <path d="
M44.2812 53.0781
L44.2812 44.5781
Q40.4844 46.5312 36.375 47.5
Q32.2812 48.4844 27.875 48.4844
Q21.1875 48.4844 17.8438 46.4375
Q14.5 44.3906 14.5 40.2812
Q14.5 37.1562 16.8906 35.375
Q19.2812 33.5938 26.5156 31.9844
L29.5938 31.2969
Q39.1562 29.25 43.1875 25.5156
Q47.2188 21.7812 47.2188 15.0938
Q47.2188 7.46875 41.1875 3.01562
Q35.1562 -1.42188 24.6094 -1.42188
Q20.2188 -1.42188 15.4531 -0.5625
Q10.6875 0.296875 5.42188 2
L5.42188 11.2812
Q10.4062 8.6875 15.2344 7.39062
Q20.0625 6.10938 24.8125 6.10938
Q31.1562 6.10938 34.5625 8.28125
Q37.9844 10.4531 37.9844 14.4062
Q37.9844 18.0625 35.5156 20.0156
Q33.0625 21.9688 24.7031 23.7812
L21.5781 24.5156
Q13.2344 26.2656 9.51562 29.9062
Q5.8125 33.5469 5.8125 39.8906
Q5.8125 47.6094 11.2812 51.7969
Q16.75 56 26.8125 56
Q31.7812 56 36.1719 55.2656
Q40.5781 54.5469 44.2812 53.0781" id="BitstreamVeraSans-Roman-73"/>
     <path d="
M48.7812 52.5938
L48.7812 44.1875
Q44.9688 46.2969 41.1406 47.3438
Q37.3125 48.3906 33.4062 48.3906
Q24.6562 48.3906 19.8125 42.8438
Q14.9844 37.3125 14.9844 27.2969
Q14.9844 17.2812 19.8125 11.7344
Q24.6562 6.20312 33.4062 6.20312
Q37.3125 6.20312 41.1406 7.25
Q44.9688 8.29688 48.7812 10.4062
L48.7812 2.09375
Q45.0156 0.34375 40.9844 -0.53125
Q36.9688 -1.42188 32.4219 -1.42188
Q20.0625 -1.42188 12.7812 6.34375
Q5.51562 14.1094 5.51562 27.2969
Q5.51562 40.6719 12.8594 48.3281
Q20.2188 56 33.0156 56
Q37.1562 56 41.1094 55.1406
Q45.0625 54.2969 48.7812 52.5938" id="BitstreamVeraSans-Roman-63"/>
     <path d="
M4.89062 31.3906
L31.2031 31.3906
L31.2031 23.3906
L4.89062 23.3906
z
" id="BitstreamVeraSans-Roman-2d"/>
    </defs>
    <g transform="translate(141.33375 38.2)scale(0.144 -0.144)">
     <use xlink:href="#BitstreamVeraSans-Roman-43"/>
     <use x="69.82421875" xlink:href="#BitstreamVeraSans-Roman-68"/>
     <use x="133.203125" xlink:href="#BitstreamVeraSans-Roman-61"/>
     <use x="194.482421875" xlink:href="#BitstreamVeraSans-Roman-6e"/>
     <use x="257.861328125" xlink:href="#BitstreamVeraSans-Roman-6e"/>
     <use x="321.240234375" xlink:href="#BitstreamVeraSans-Roman-65"/>
     <use x="382.763671875" xlink:href="#BitstreamVeraSans-Roman-6c"/>
     <use x="410.546875" xlink:href="#BitstreamVeraSans-Roman-20"/>
     <use x="442.333984375" xlink:href="#BitstreamVeraSans-Roman-38"/>
     <use x="505.95703125" xlink:href="#BitstreamVeraSans-Roman-34"/>
     <use x="569.580078125" xlink:href="#BitstreamVeraSans-Roman-2d"/>
     <use x="605.6640625" xlink:href="#BitstreamVeraSans-Roman-20"/>
     <use x="637.451171875" xlink:href="#BitstreamVeraSans-Roman-53"/>
     <use x="700.927734375" xlink:href="#BitstreamVeraSans-Roman-75"/>
     <use x="764.306640625" xlink:href="#BitstreamVeraSans-Roman-63"/>
     <use x="819.287109375" xlink:href="#BitstreamVeraSans-Roman-63"/>
     <use x="874.267578125" xlink:href="#BitstreamVeraSans-Roman-65"/>
     <use x="935.791015625" xlink:href="#BitstreamVeraSans-Roman-73"/>
     <use x="987.890625" xlink:href="#BitstreamVeraSans-Roman-73"/>
     <use x="1039.99023438" xlink:href="#BitstreamVeraSans-Roman-66"/>
     <use x="1075.1953125" xlink:href="#BitstreamVeraSans-Roman-75"/>
     <use x="1138.57421875" xlink:href="#BitstreamVeraSans-Roman-6c"/>
     <use x="1166.35742188" xlink:href="#BitstreamVeraSans-Roman-20"/>
     <use x="1198.14453125" xlink:href="#BitstreamVeraSans-Roman-54"/>
     <use x="1244.47851562" xlink:href="#BitstreamVeraSans-Roman-72"/>
     <use x="1285.59179688" xlink:href="#BitstreamVeraSans-Roman-69"/>
     <use x="1313.375" xlink:href="#BitstreamVeraSans-Roman-61"/>
     <use x="1374.65429688" xlink:href="#BitstreamVeraSans-Roman-6c"/>
     <use x="1402.4375" xlink:href="#BitstreamVeraSans-Roman-2d"/>
     <use x="1436.27148438" xlink:href="#BitstreamVeraSans-Roman-41"/>
     <use x="1498.8046875" xlink:href="#BitstreamVeraSans-Roman-76"/>
     <use x="1557.984375" xlink:href="#BitstreamVeraSans-Roman-65"/>
     <use x="1619.5078125" xlink:href="#BitstreamVeraSans-Roman-72"/>
     <use x="1660.62109375" xlink:href="#BitstreamVeraSans-Roman-61"/>
     <use x="1721.90039062" xlink:href="#BitstreamVeraSans-Roman-67"/>
     <use x="1785.37695312" xlink:href="#BitstreamVeraSans-Roman-65"/>
     <use x="1846.90039062" xlink:href="#BitstreamVeraSans-Roman-64"/>
     <use x="1910.37695312" xlink:href="#BitstreamVeraSans-Roman-20"/>
     <use x="1942.1640625" xlink:href="#BitstreamVeraSans-Roman-50"/>
     <use x="2002.46679688" xlink:href="#BitstreamVeraSans-Roman-53"/>
     <use x="2065.94335938" xlink:href="#BitstreamVeraSans-Roman-44"/>
    </g>
   </g>
   <g id="legend_1">
    <g id="patch_7">
     <path d="
M363.337 477.45
L511.2 477.45
L511.2 50.4
L363.337 50.4
z
" style="fill:#ffffff;stroke:#000000;stroke-linejoin:miter;"/>
    </g>
    <g id="line2d_51">
     <path d="
M373.417 62.0617
L393.577 62.0617" style="fill:none;stroke:#ff0000;stroke-linecap:square;"/>
    </g>
    <g id="line2d_52"/>
    <g id="text_19">
     <!-- Stress Trials -->
     <defs>
      <path d="
M18.3125 70.2188
L18.3125 54.6875
L36.8125 54.6875
L36.8125 47.7031
L18.3125 47.7031
L18.3125 18.0156
Q18.3125 11.3281 20.1406 9.42188
Q21.9688 7.51562 27.5938 7.51562
L36.8125 7.51562
L36.8125 0
L27.5938 0
Q17.1875 0 13.2344 3.875
Q9.28125 7.76562 9.28125 18.0156
L9.28125 47.7031
L2.6875 47.7031
L2.6875 54.6875
L9.28125 54.6875
L9.28125 70.2188
z
" id="BitstreamVeraSans-Roman-74"/>
     </defs>
     <g transform="translate(409.41675 67.10175)scale(0.144 -0.144)">
      <use xlink:href="#BitstreamVeraSans-Roman-53"/>
      <use x="63.4765625" xlink:href="#BitstreamVeraSans-Roman-74"/>
      <use x="102.685546875" xlink:href="#BitstreamVeraSans-Roman-72"/>
      <use x="141.548828125" xlink:href="#BitstreamVeraSans-Roman-65"/>
      <use x="203.072265625" xlink:href="#BitstreamVeraSans-Roman-73"/>
      <use x="255.171875" xlink:href="#BitstreamVeraSans-Roman-73"/>
      <use x="307.271484375" xlink:href="#BitstreamVeraSans-Roman-20"/>
      <use x="339.05859375" xlink:href="#BitstreamVeraSans-Roman-54"/>
      <use x="385.392578125" xlink:href="#BitstreamVeraSans-Roman-72"/>
      <use x="426.505859375" xlink:href="#BitstreamVeraSans-Roman-69"/>
      <use x="454.2890625" xlink:href="#BitstreamVeraSans-Roman-61"/>
      <use x="515.568359375" xlink:href="#BitstreamVeraSans-Roman-6c"/>
      <use x="543.3515625" xlink:href="#BitstreamVeraSans-Roman-73"/>
     </g>
    </g>
    <g id="line2d_53">
     <path d="
M373.417 83.1982
L393.577 83.1982" style="fill:none;stroke:#0000ff;stroke-linecap:square;"/>
    </g>
    <g id="line2d_54"/>
    <g id="text_20">
     <!-- Regular Trials -->
     <defs>
      <path d="
M44.3906 34.1875
Q47.5625 33.1094 50.5625 29.5938
Q53.5625 26.0781 56.5938 19.9219
L66.6094 0
L56 0
L46.6875 18.7031
Q43.0625 26.0312 39.6719 28.4219
Q36.2812 30.8125 30.4219 30.8125
L19.6719 30.8125
L19.6719 0
L9.8125 0
L9.8125 72.9062
L32.0781 72.9062
Q44.5781 72.9062 50.7344 67.6719
Q56.8906 62.4531 56.8906 51.9062
Q56.8906 45.0156 53.6875 40.4688
Q50.4844 35.9375 44.3906 34.1875
M19.6719 64.7969
L19.6719 38.9219
L32.0781 38.9219
Q39.2031 38.9219 42.8438 42.2188
Q46.4844 45.5156 46.4844 51.9062
Q46.4844 58.2969 42.8438 61.5469
Q39.2031 64.7969 32.0781 64.7969
z
" id="BitstreamVeraSans-Roman-52"/>
     </defs>
     <g transform="translate(409.41675 88.23825)scale(0.144 -0.144)">
      <use xlink:href="#BitstreamVeraSans-Roman-52"/>
      <use x="64.982421875" xlink:href="#BitstreamVeraSans-Roman-65"/>
      <use x="126.505859375" xlink:href="#BitstreamVeraSans-Roman-67"/>
      <use x="189.982421875" xlink:href="#BitstreamVeraSans-Roman-75"/>
      <use x="253.361328125" xlink:href="#BitstreamVeraSans-Roman-6c"/>
      <use x="281.14453125" xlink:href="#BitstreamVeraSans-Roman-61"/>
      <use x="342.423828125" xlink:href="#BitstreamVeraSans-Roman-72"/>
      <use x="383.537109375" xlink:href="#BitstreamVeraSans-Roman-20"/>
      <use x="415.32421875" xlink:href="#BitstreamVeraSans-Roman-54"/>
      <use x="461.658203125" xlink:href="#BitstreamVeraSans-Roman-72"/>
      <use x="502.771484375" xlink:href="#BitstreamVeraSans-Roman-69"/>
      <use x="530.5546875" xlink:href="#BitstreamVeraSans-Roman-61"/>
      <use x="591.833984375" xlink:href="#BitstreamVeraSans-Roman-6c"/>
      <use x="619.6171875" xlink:href="#BitstreamVeraSans-Roman-73"/>
     </g>
    </g>
    <g id="line2d_55">
     <path d="
M373.417 104.335
L393.577 104.335" style="fill:none;stroke:#ff0000;stroke-linecap:square;"/>
    </g>
    <g id="line2d_56"/>
    <g id="text_21">
     <!-- Stress Trials -->
     <g transform="translate(409.41675 109.37475)scale(0.144 -0.144)">
      <use xlink:href="#BitstreamVeraSans-Roman-53"/>
      <use x="63.4765625" xlink:href="#BitstreamVeraSans-Roman-74"/>
      <use x="102.685546875" xlink:href="#BitstreamVeraSans-Roman-72"/>
      <use x="141.548828125" xlink:href="#BitstreamVeraSans-Roman-65"/>
      <use x="203.072265625" xlink:href="#BitstreamVeraSans-Roman-73"/>
      <use x="255.171875" xlink:href="#BitstreamVeraSans-Roman-73"/>
      <use x="307.271484375" xlink:href="#BitstreamVeraSans-Roman-20"/>
      <use x="339.05859375" xlink:href="#BitstreamVeraSans-Roman-54"/>
      <use x="385.392578125" xlink:href="#BitstreamVeraSans-Roman-72"/>
      <use x="426.505859375" xlink:href="#BitstreamVeraSans-Roman-69"/>
      <use x="454.2890625" xlink:href="#BitstreamVeraSans-Roman-61"/>
      <use x="515.568359375" xlink:href="#BitstreamVeraSans-Roman-6c"/>
      <use x="543.3515625" xlink:href="#BitstreamVeraSans-Roman-73"/>
     </g>
    </g>
    <g id="line2d_57">
     <path d="
M373.417 125.471
L393.577 125.471" style="fill:none;stroke:#0000ff;stroke-linecap:square;"/>
    </g>
    <g id="line2d_58"/>
    <g id="text_22">
     <!-- Regular Trials -->
     <g transform="translate(409.41675 130.51125)scale(0.144 -0.144)">
      <use xlink:href="#BitstreamVeraSans-Roman-52"/>
      <use x="64.982421875" xlink:href="#BitstreamVeraSans-Roman-65"/>
      <use x="126.505859375" xlink:href="#BitstreamVeraSans-Roman-67"/>
      <use x="189.982421875" xlink:href="#BitstreamVeraSans-Roman-75"/>
      <use x="253.361328125" xlink:href="#BitstreamVeraSans-Roman-6c"/>
      <use x="281.14453125" xlink:href="#BitstreamVeraSans-Roman-61"/>
      <use x="342.423828125" xlink:href="#BitstreamVeraSans-Roman-72"/>
      <use x="383.537109375" xlink:href="#BitstreamVeraSans-Roman-20"/>
      <use x="415.32421875" xlink:href="#BitstreamVeraSans-Roman-54"/>
      <use x="461.658203125" xlink:href="#BitstreamVeraSans-Roman-72"/>
      <use x="502.771484375" xlink:href="#BitstreamVeraSans-Roman-69"/>
      <use x="530.5546875" xlink:href="#BitstreamVeraSans-Roman-61"/>
      <use x="591.833984375" xlink:href="#BitstreamVeraSans-Roman-6c"/>
      <use x="619.6171875" xlink:href="#BitstreamVeraSans-Roman-73"/>
     </g>
    </g>
    <g id="line2d_59">
     <path d="
M373.417 146.608
L393.577 146.608" style="fill:none;stroke:#ff0000;stroke-linecap:square;"/>
    </g>
    <g id="line2d_60"/>
    <g id="text_23">
     <!-- Stress Trials -->
     <g transform="translate(409.41675 151.64775)scale(0.144 -0.144)">
      <use xlink:href="#BitstreamVeraSans-Roman-53"/>
      <use x="63.4765625" xlink:href="#BitstreamVeraSans-Roman-74"/>
      <use x="102.685546875" xlink:href="#BitstreamVeraSans-Roman-72"/>
      <use x="141.548828125" xlink:href="#BitstreamVeraSans-Roman-65"/>
      <use x="203.072265625" xlink:href="#BitstreamVeraSans-Roman-73"/>
      <use x="255.171875" xlink:href="#BitstreamVeraSans-Roman-73"/>
      <use x="307.271484375" xlink:href="#BitstreamVeraSans-Roman-20"/>
      <use x="339.05859375" xlink:href="#BitstreamVeraSans-Roman-54"/>
      <use x="385.392578125" xlink:href="#BitstreamVeraSans-Roman-72"/>
      <use x="426.505859375" xlink:href="#BitstreamVeraSans-Roman-69"/>
      <use x="454.2890625" xlink:href="#BitstreamVeraSans-Roman-61"/>
      <use x="515.568359375" xlink:href="#BitstreamVeraSans-Roman-6c"/>
      <use x="543.3515625" xlink:href="#BitstreamVeraSans-Roman-73"/>
     </g>
    </g>
    <g id="line2d_61">
     <path d="
M373.417 167.744
L393.577 167.744" style="fill:none;stroke:#0000ff;stroke-linecap:square;"/>
    </g>
    <g id="line2d_62"/>
    <g id="text_24">
     <!-- Regular Trials -->
     <g transform="translate(409.41675 172.78425)scale(0.144 -0.144)">
      <use xlink:href="#BitstreamVeraSans-Roman-52"/>
      <use x="64.982421875" xlink:href="#BitstreamVeraSans-Roman-65"/>
      <use x="126.505859375" xlink:href="#BitstreamVeraSans-Roman-67"/>
      <use x="189.982421875" xlink:href="#BitstreamVeraSans-Roman-75"/>
      <use x="253.361328125" xlink:href="#BitstreamVeraSans-Roman-6c"/>
      <use x="281.14453125" xlink:href="#BitstreamVeraSans-Roman-61"/>
      <use x="342.423828125" xlink:href="#BitstreamVeraSans-Roman-72"/>
      <use x="383.537109375" xlink:href="#BitstreamVeraSans-Roman-20"/>
      <use x="415.32421875" xlink:href="#BitstreamVeraSans-Roman-54"/>
      <use x="461.658203125" xlink:href="#BitstreamVeraSans-Roman-72"/>
      <use x="502.771484375" xlink:href="#BitstreamVeraSans-Roman-69"/>
      <use x="530.5546875" xlink:href="#BitstreamVeraSans-Roman-61"/>
      <use x="591.833984375" xlink:href="#BitstreamVeraSans-Roman-6c"/>
      <use x="619.6171875" xlink:href="#BitstreamVeraSans-Roman-73"/>
     </g>
    </g>
    <g id="line2d_63">
     <path d="
M373.417 188.881
L393.577 188.881" style="fill:none;stroke:#ff0000;stroke-linecap:square;"/>
    </g>
    <g id="line2d_64"/>
    <g id="text_25">
     <!-- Stress Trials -->
     <g transform="translate(409.41675 193.92075)scale(0.144 -0.144)">
      <use xlink:href="#BitstreamVeraSans-Roman-53"/>
      <use x="63.4765625" xlink:href="#BitstreamVeraSans-Roman-74"/>
      <use x="102.685546875" xlink:href="#BitstreamVeraSans-Roman-72"/>
      <use x="141.548828125" xlink:href="#BitstreamVeraSans-Roman-65"/>
      <use x="203.072265625" xlink:href="#BitstreamVeraSans-Roman-73"/>
      <use x="255.171875" xlink:href="#BitstreamVeraSans-Roman-73"/>
      <use x="307.271484375" xlink:href="#BitstreamVeraSans-Roman-20"/>
      <use x="339.05859375" xlink:href="#BitstreamVeraSans-Roman-54"/>
      <use x="385.392578125" xlink:href="#BitstreamVeraSans-Roman-72"/>
      <use x="426.505859375" xlink:href="#BitstreamVeraSans-Roman-69"/>
      <use x="454.2890625" xlink:href="#BitstreamVeraSans-Roman-61"/>
      <use x="515.568359375" xlink:href="#BitstreamVeraSans-Roman-6c"/>
      <use x="543.3515625" xlink:href="#BitstreamVeraSans-Roman-73"/>
     </g>
    </g>
    <g id="line2d_65">
     <path d="
M373.417 210.017
L393.577 210.017" style="fill:none;stroke:#0000ff;stroke-linecap:square;"/>
    </g>
    <g id="line2d_66"/>
    <g id="text_26">
     <!-- Regular Trials -->
     <g transform="translate(409.41675 215.05725)scale(0.144 -0.144)">
      <use xlink:href="#BitstreamVeraSans-Roman-52"/>
      <use x="64.982421875" xlink:href="#BitstreamVeraSans-Roman-65"/>
      <use x="126.505859375" xlink:href="#BitstreamVeraSans-Roman-67"/>
      <use x="189.982421875" xlink:href="#BitstreamVeraSans-Roman-75"/>
      <use x="253.361328125" xlink:href="#BitstreamVeraSans-Roman-6c"/>
      <use x="281.14453125" xlink:href="#BitstreamVeraSans-Roman-61"/>
      <use x="342.423828125" xlink:href="#BitstreamVeraSans-Roman-72"/>
      <use x="383.537109375" xlink:href="#BitstreamVeraSans-Roman-20"/>
      <use x="415.32421875" xlink:href="#BitstreamVeraSans-Roman-54"/>
      <use x="461.658203125" xlink:href="#BitstreamVeraSans-Roman-72"/>
      <use x="502.771484375" xlink:href="#BitstreamVeraSans-Roman-69"/>
      <use x="530.5546875" xlink:href="#BitstreamVeraSans-Roman-61"/>
      <use x="591.833984375" xlink:href="#BitstreamVeraSans-Roman-6c"/>
      <use x="619.6171875" xlink:href="#BitstreamVeraSans-Roman-73"/>
     </g>
    </g>
    <g id="line2d_67">
     <path d="
M373.417 231.154
L393.577 231.154" style="fill:none;stroke:#ff0000;stroke-linecap:square;"/>
    </g>
    <g id="line2d_68"/>
    <g id="text_27">
     <!-- Stress Trials -->
     <g transform="translate(409.41675 236.19375)scale(0.144 -0.144)">
      <use xlink:href="#BitstreamVeraSans-Roman-53"/>
      <use x="63.4765625" xlink:href="#BitstreamVeraSans-Roman-74"/>
      <use x="102.685546875" xlink:href="#BitstreamVeraSans-Roman-72"/>
      <use x="141.548828125" xlink:href="#BitstreamVeraSans-Roman-65"/>
      <use x="203.072265625" xlink:href="#BitstreamVeraSans-Roman-73"/>
      <use x="255.171875" xlink:href="#BitstreamVeraSans-Roman-73"/>
      <use x="307.271484375" xlink:href="#BitstreamVeraSans-Roman-20"/>
      <use x="339.05859375" xlink:href="#BitstreamVeraSans-Roman-54"/>
      <use x="385.392578125" xlink:href="#BitstreamVeraSans-Roman-72"/>
      <use x="426.505859375" xlink:href="#BitstreamVeraSans-Roman-69"/>
      <use x="454.2890625" xlink:href="#BitstreamVeraSans-Roman-61"/>
      <use x="515.568359375" xlink:href="#BitstreamVeraSans-Roman-6c"/>
      <use x="543.3515625" xlink:href="#BitstreamVeraSans-Roman-73"/>
     </g>
    </g>
    <g id="line2d_69">
     <path d="
M373.417 252.29
L393.577 252.29" style="fill:none;stroke:#0000ff;stroke-linecap:square;"/>
    </g>
    <g id="line2d_70"/>
    <g id="text_28">
     <!-- Regular Trials -->
     <g transform="translate(409.41675 257.33025)scale(0.144 -0.144)">
      <use xlink:href="#BitstreamVeraSans-Roman-52"/>
      <use x="64.982421875" xlink:href="#BitstreamVeraSans-Roman-65"/>
      <use x="126.505859375" xlink:href="#BitstreamVeraSans-Roman-67"/>
      <use x="189.982421875" xlink:href="#BitstreamVeraSans-Roman-75"/>
      <use x="253.361328125" xlink:href="#BitstreamVeraSans-Roman-6c"/>
      <use x="281.14453125" xlink:href="#BitstreamVeraSans-Roman-61"/>
      <use x="342.423828125" xlink:href="#BitstreamVeraSans-Roman-72"/>
      <use x="383.537109375" xlink:href="#BitstreamVeraSans-Roman-20"/>
      <use x="415.32421875" xlink:href="#BitstreamVeraSans-Roman-54"/>
      <use x="461.658203125" xlink:href="#BitstreamVeraSans-Roman-72"/>
      <use x="502.771484375" xlink:href="#BitstreamVeraSans-Roman-69"/>
      <use x="530.5546875" xlink:href="#BitstreamVeraSans-Roman-61"/>
      <use x="591.833984375" xlink:href="#BitstreamVeraSans-Roman-6c"/>
      <use x="619.6171875" xlink:href="#BitstreamVeraSans-Roman-73"/>
     </g>
    </g>
    <g id="line2d_71">
     <path d="
M373.417 273.427
L393.577 273.427" style="fill:none;stroke:#ff0000;stroke-linecap:square;"/>
    </g>
    <g id="line2d_72"/>
    <g id="text_29">
     <!-- Stress Trials -->
     <g transform="translate(409.41675 278.46675)scale(0.144 -0.144)">
      <use xlink:href="#BitstreamVeraSans-Roman-53"/>
      <use x="63.4765625" xlink:href="#BitstreamVeraSans-Roman-74"/>
      <use x="102.685546875" xlink:href="#BitstreamVeraSans-Roman-72"/>
      <use x="141.548828125" xlink:href="#BitstreamVeraSans-Roman-65"/>
      <use x="203.072265625" xlink:href="#BitstreamVeraSans-Roman-73"/>
      <use x="255.171875" xlink:href="#BitstreamVeraSans-Roman-73"/>
      <use x="307.271484375" xlink:href="#BitstreamVeraSans-Roman-20"/>
      <use x="339.05859375" xlink:href="#BitstreamVeraSans-Roman-54"/>
      <use x="385.392578125" xlink:href="#BitstreamVeraSans-Roman-72"/>
      <use x="426.505859375" xlink:href="#BitstreamVeraSans-Roman-69"/>
      <use x="454.2890625" xlink:href="#BitstreamVeraSans-Roman-61"/>
      <use x="515.568359375" xlink:href="#BitstreamVeraSans-Roman-6c"/>
      <use x="543.3515625" xlink:href="#BitstreamVeraSans-Roman-73"/>
     </g>
    </g>
    <g id="line2d_73">
     <path d="
M373.417 294.563
L393.577 294.563" style="fill:none;stroke:#0000ff;stroke-linecap:square;"/>
    </g>
    <g id="line2d_74"/>
    <g id="text_30">
     <!-- Regular Trials -->
     <g transform="translate(409.41675 299.60325)scale(0.144 -0.144)">
      <use xlink:href="#BitstreamVeraSans-Roman-52"/>
      <use x="64.982421875" xlink:href="#BitstreamVeraSans-Roman-65"/>
      <use x="126.505859375" xlink:href="#BitstreamVeraSans-Roman-67"/>
      <use x="189.982421875" xlink:href="#BitstreamVeraSans-Roman-75"/>
      <use x="253.361328125" xlink:href="#BitstreamVeraSans-Roman-6c"/>
      <use x="281.14453125" xlink:href="#BitstreamVeraSans-Roman-61"/>
      <use x="342.423828125" xlink:href="#BitstreamVeraSans-Roman-72"/>
      <use x="383.537109375" xlink:href="#BitstreamVeraSans-Roman-20"/>
      <use x="415.32421875" xlink:href="#BitstreamVeraSans-Roman-54"/>
      <use x="461.658203125" xlink:href="#BitstreamVeraSans-Roman-72"/>
      <use x="502.771484375" xlink:href="#BitstreamVeraSans-Roman-69"/>
      <use x="530.5546875" xlink:href="#BitstreamVeraSans-Roman-61"/>
      <use x="591.833984375" xlink:href="#BitstreamVeraSans-Roman-6c"/>
      <use x="619.6171875" xlink:href="#BitstreamVeraSans-Roman-73"/>
     </g>
    </g>
    <g id="line2d_75">
     <path d="
M373.417 315.7
L393.577 315.7" style="fill:none;stroke:#ff0000;stroke-linecap:square;"/>
    </g>
    <g id="line2d_76"/>
    <g id="text_31">
     <!-- Stress Trials -->
     <g transform="translate(409.41675 320.73975)scale(0.144 -0.144)">
      <use xlink:href="#BitstreamVeraSans-Roman-53"/>
      <use x="63.4765625" xlink:href="#BitstreamVeraSans-Roman-74"/>
      <use x="102.685546875" xlink:href="#BitstreamVeraSans-Roman-72"/>
      <use x="141.548828125" xlink:href="#BitstreamVeraSans-Roman-65"/>
      <use x="203.072265625" xlink:href="#BitstreamVeraSans-Roman-73"/>
      <use x="255.171875" xlink:href="#BitstreamVeraSans-Roman-73"/>
      <use x="307.271484375" xlink:href="#BitstreamVeraSans-Roman-20"/>
      <use x="339.05859375" xlink:href="#BitstreamVeraSans-Roman-54"/>
      <use x="385.392578125" xlink:href="#BitstreamVeraSans-Roman-72"/>
      <use x="426.505859375" xlink:href="#BitstreamVeraSans-Roman-69"/>
      <use x="454.2890625" xlink:href="#BitstreamVeraSans-Roman-61"/>
      <use x="515.568359375" xlink:href="#BitstreamVeraSans-Roman-6c"/>
      <use x="543.3515625" xlink:href="#BitstreamVeraSans-Roman-73"/>
     </g>
    </g>
    <g id="line2d_77">
     <path d="
M373.417 336.836
L393.577 336.836" style="fill:none;stroke:#0000ff;stroke-linecap:square;"/>
    </g>
    <g id="line2d_78"/>
    <g id="text_32">
     <!-- Regular Trials -->
     <g transform="translate(409.41675 341.87625)scale(0.144 -0.144)">
      <use xlink:href="#BitstreamVeraSans-Roman-52"/>
      <use x="64.982421875" xlink:href="#BitstreamVeraSans-Roman-65"/>
      <use x="126.505859375" xlink:href="#BitstreamVeraSans-Roman-67"/>
      <use x="189.982421875" xlink:href="#BitstreamVeraSans-Roman-75"/>
      <use x="253.361328125" xlink:href="#BitstreamVeraSans-Roman-6c"/>
      <use x="281.14453125" xlink:href="#BitstreamVeraSans-Roman-61"/>
      <use x="342.423828125" xlink:href="#BitstreamVeraSans-Roman-72"/>
      <use x="383.537109375" xlink:href="#BitstreamVeraSans-Roman-20"/>
      <use x="415.32421875" xlink:href="#BitstreamVeraSans-Roman-54"/>
      <use x="461.658203125" xlink:href="#BitstreamVeraSans-Roman-72"/>
      <use x="502.771484375" xlink:href="#BitstreamVeraSans-Roman-69"/>
      <use x="530.5546875" xlink:href="#BitstreamVeraSans-Roman-61"/>
      <use x="591.833984375" xlink:href="#BitstreamVeraSans-Roman-6c"/>
      <use x="619.6171875" xlink:href="#BitstreamVeraSans-Roman-73"/>
     </g>
    </g>
    <g id="line2d_79">
     <path d="
M373.417 357.973
L393.577 357.973" style="fill:none;stroke:#ff0000;stroke-linecap:square;"/>
    </g>
    <g id="line2d_80"/>
    <g id="text_33">
     <!-- Stress Trials -->
     <g transform="translate(409.41675 363.01275)scale(0.144 -0.144)">
      <use xlink:href="#BitstreamVeraSans-Roman-53"/>
      <use x="63.4765625" xlink:href="#BitstreamVeraSans-Roman-74"/>
      <use x="102.685546875" xlink:href="#BitstreamVeraSans-Roman-72"/>
      <use x="141.548828125" xlink:href="#BitstreamVeraSans-Roman-65"/>
      <use x="203.072265625" xlink:href="#BitstreamVeraSans-Roman-73"/>
      <use x="255.171875" xlink:href="#BitstreamVeraSans-Roman-73"/>
      <use x="307.271484375" xlink:href="#BitstreamVeraSans-Roman-20"/>
      <use x="339.05859375" xlink:href="#BitstreamVeraSans-Roman-54"/>
      <use x="385.392578125" xlink:href="#BitstreamVeraSans-Roman-72"/>
      <use x="426.505859375" xlink:href="#BitstreamVeraSans-Roman-69"/>
      <use x="454.2890625" xlink:href="#BitstreamVeraSans-Roman-61"/>
      <use x="515.568359375" xlink:href="#BitstreamVeraSans-Roman-6c"/>
      <use x="543.3515625" xlink:href="#BitstreamVeraSans-Roman-73"/>
     </g>
    </g>
    <g id="line2d_81">
     <path d="
M373.417 379.109
L393.577 379.109" style="fill:none;stroke:#0000ff;stroke-linecap:square;"/>
    </g>
    <g id="line2d_82"/>
    <g id="text_34">
     <!-- Regular Trials -->
     <g transform="translate(409.41675 384.14925)scale(0.144 -0.144)">
      <use xlink:href="#BitstreamVeraSans-Roman-52"/>
      <use x="64.982421875" xlink:href="#BitstreamVeraSans-Roman-65"/>
      <use x="126.505859375" xlink:href="#BitstreamVeraSans-Roman-67"/>
      <use x="189.982421875" xlink:href="#BitstreamVeraSans-Roman-75"/>
      <use x="253.361328125" xlink:href="#BitstreamVeraSans-Roman-6c"/>
      <use x="281.14453125" xlink:href="#BitstreamVeraSans-Roman-61"/>
      <use x="342.423828125" xlink:href="#BitstreamVeraSans-Roman-72"/>
      <use x="383.537109375" xlink:href="#BitstreamVeraSans-Roman-20"/>
      <use x="415.32421875" xlink:href="#BitstreamVeraSans-Roman-54"/>
      <use x="461.658203125" xlink:href="#BitstreamVeraSans-Roman-72"/>
      <use x="502.771484375" xlink:href="#BitstreamVeraSans-Roman-69"/>
      <use x="530.5546875" xlink:href="#BitstreamVeraSans-Roman-61"/>
      <use x="591.833984375" xlink:href="#BitstreamVeraSans-Roman-6c"/>
      <use x="619.6171875" xlink:href="#BitstreamVeraSans-Roman-73"/>
     </g>
    </g>
    <g id="line2d_83">
     <path d="
M373.417 400.246
L393.577 400.246" style="fill:none;stroke:#ff0000;stroke-linecap:square;"/>
    </g>
    <g id="line2d_84"/>
    <g id="text_35">
     <!-- Stress Trials -->
     <g transform="translate(409.41675 405.28575)scale(0.144 -0.144)">
      <use xlink:href="#BitstreamVeraSans-Roman-53"/>
      <use x="63.4765625" xlink:href="#BitstreamVeraSans-Roman-74"/>
      <use x="102.685546875" xlink:href="#BitstreamVeraSans-Roman-72"/>
      <use x="141.548828125" xlink:href="#BitstreamVeraSans-Roman-65"/>
      <use x="203.072265625" xlink:href="#BitstreamVeraSans-Roman-73"/>
      <use x="255.171875" xlink:href="#BitstreamVeraSans-Roman-73"/>
      <use x="307.271484375" xlink:href="#BitstreamVeraSans-Roman-20"/>
      <use x="339.05859375" xlink:href="#BitstreamVeraSans-Roman-54"/>
      <use x="385.392578125" xlink:href="#BitstreamVeraSans-Roman-72"/>
      <use x="426.505859375" xlink:href="#BitstreamVeraSans-Roman-69"/>
      <use x="454.2890625" xlink:href="#BitstreamVeraSans-Roman-61"/>
      <use x="515.568359375" xlink:href="#BitstreamVeraSans-Roman-6c"/>
      <use x="543.3515625" xlink:href="#BitstreamVeraSans-Roman-73"/>
     </g>
    </g>
    <g id="line2d_85">
     <path d="
M373.417 421.382
L393.577 421.382" style="fill:none;stroke:#0000ff;stroke-linecap:square;"/>
    </g>
    <g id="line2d_86"/>
    <g id="text_36">
     <!-- Regular Trials -->
     <g transform="translate(409.41675 426.42225)scale(0.144 -0.144)">
      <use xlink:href="#BitstreamVeraSans-Roman-52"/>
      <use x="64.982421875" xlink:href="#BitstreamVeraSans-Roman-65"/>
      <use x="126.505859375" xlink:href="#BitstreamVeraSans-Roman-67"/>
      <use x="189.982421875" xlink:href="#BitstreamVeraSans-Roman-75"/>
      <use x="253.361328125" xlink:href="#BitstreamVeraSans-Roman-6c"/>
      <use x="281.14453125" xlink:href="#BitstreamVeraSans-Roman-61"/>
      <use x="342.423828125" xlink:href="#BitstreamVeraSans-Roman-72"/>
      <use x="383.537109375" xlink:href="#BitstreamVeraSans-Roman-20"/>
      <use x="415.32421875" xlink:href="#BitstreamVeraSans-Roman-54"/>
      <use x="461.658203125" xlink:href="#BitstreamVeraSans-Roman-72"/>
      <use x="502.771484375" xlink:href="#BitstreamVeraSans-Roman-69"/>
      <use x="530.5546875" xlink:href="#BitstreamVeraSans-Roman-61"/>
      <use x="591.833984375" xlink:href="#BitstreamVeraSans-Roman-6c"/>
      <use x="619.6171875" xlink:href="#BitstreamVeraSans-Roman-73"/>
     </g>
    </g>
    <g id="line2d_87">
     <path d="
M373.417 442.519" style="fill:none;stroke:#ff0000;stroke-linecap:square;"/>
    </g>
    <g id="line2d_88"/>
    <g id="text_37">
     <!-- Stress Trials -->
     <g transform="translate(409.41675 447.55875)scale(0.144 -0.144)">
      <use xlink:href="#BitstreamVeraSans-Roman-53"/>
      <use x="63.4765625" xlink:href="#BitstreamVeraSans-Roman-74"/>
      <use x="102.685546875" xlink:href="#BitstreamVeraSans-Roman-72"/>
      <use x="141.548828125" xlink:href="#BitstreamVeraSans-Roman-65"/>
      <use x="203.072265625" xlink:href="#BitstreamVeraSans-Roman-73"/>
      <use x="255.171875" xlink:href="#BitstreamVeraSans-Roman-73"/>
      <use x="307.271484375" xlink:href="#BitstreamVeraSans-Roman-20"/>
      <use x="339.05859375" xlink:href="#BitstreamVeraSans-Roman-54"/>
      <use x="385.392578125" xlink:href="#BitstreamVeraSans-Roman-72"/>
      <use x="426.505859375" xlink:href="#BitstreamVeraSans-Roman-69"/>
      <use x="454.2890625" xlink:href="#BitstreamVeraSans-Roman-61"/>
      <use x="515.568359375" xlink:href="#BitstreamVeraSans-Roman-6c"/>
      <use x="543.3515625" xlink:href="#BitstreamVeraSans-Roman-73"/>
     </g>
    </g>
    <g id="line2d_89">
     <path d="
M373.417 463.655" style="fill:none;stroke:#0000ff;stroke-linecap:square;"/>
    </g>
    <g id="line2d_90"/>
    <g id="text_38">
     <!-- Regular Trials -->
     <g transform="translate(409.41675 468.69525)scale(0.144 -0.144)">
      <use xlink:href="#BitstreamVeraSans-Roman-52"/>
      <use x="64.982421875" xlink:href="#BitstreamVeraSans-Roman-65"/>
      <use x="126.505859375" xlink:href="#BitstreamVeraSans-Roman-67"/>
      <use x="189.982421875" xlink:href="#BitstreamVeraSans-Roman-75"/>
      <use x="253.361328125" xlink:href="#BitstreamVeraSans-Roman-6c"/>
      <use x="281.14453125" xlink:href="#BitstreamVeraSans-Roman-61"/>
      <use x="342.423828125" xlink:href="#BitstreamVeraSans-Roman-72"/>
      <use x="383.537109375" xlink:href="#BitstreamVeraSans-Roman-20"/>
      <use x="415.32421875" xlink:href="#BitstreamVeraSans-Roman-54"/>
      <use x="461.658203125" xlink:href="#BitstreamVeraSans-Roman-72"/>
      <use x="502.771484375" xlink:href="#BitstreamVeraSans-Roman-69"/>
      <use x="530.5546875" xlink:href="#BitstreamVeraSans-Roman-61"/>
      <use x="591.833984375" xlink:href="#BitstreamVeraSans-Roman-6c"/>
      <use x="619.6171875" xlink:href="#BitstreamVeraSans-Roman-73"/>
     </g>
    </g>
   </g>
  </g>
 </g>
 <defs>
  <clipPath id="p7ff5b81e1d">
   <rect height="345.6" width="446.4" x="72.0" y="43.2"/>
  </clipPath>
 </defs>
</svg>
