<?xml version="1.0" encoding="utf-8" standalone="no"?>
<!DOCTYPE svg PUBLIC "-//W3C//DTD SVG 1.1//EN"
  "http://www.w3.org/Graphics/SVG/1.1/DTD/svg11.dtd">
<!-- Created with matplotlib (http://matplotlib.org/) -->
<svg height="432pt" version="1.1" viewBox="0 0 576 432" width="576pt" xmlns="http://www.w3.org/2000/svg" xmlns:xlink="http://www.w3.org/1999/xlink">
 <defs>
  <style type="text/css">
*{stroke-linecap:butt;stroke-linejoin:round;}
  </style>
 </defs>
 <g id="figure_1">
  <g id="patch_1">
   <path d="
M0 432
L576 432
L576 0
L0 0
z
" style="fill:#ffffff;"/>
  </g>
  <g id="axes_1">
   <g id="patch_2">
    <path d="
M72 388.8
L518.4 388.8
L518.4 43.2
L72 43.2
z
" style="fill:#ffffff;"/>
   </g>
   <g id="line2d_1">
    <path clip-path="url(#p7ff5b81e1d)" d="
M72 198.244
L73.116 227.116
L74.232 126.063
L75.348 206.905
L76.464 241.552
L77.58 163.597
L78.696 212.68
L79.812 232.89
L80.928 238.665
L82.044 230.003
L83.16 241.552
L84.276 238.665
L85.392 152.048
L86.508 140.499
L87.624 258.875
L88.74 140.499
L89.856 224.229
L90.972 204.018
L92.088 160.71
L93.204 253.101
L94.32 186.695
L95.436 149.161
L96.552 238.665
L97.668 192.469
L98.784 247.326
L99.9 232.89
L101.016 230.003
L102.132 149.161
L103.248 273.311
L104.364 146.274
L105.48 279.086
L106.596 293.522
L107.712 128.95
L108.828 258.875
L109.944 201.131
L111.06 290.635
L112.176 198.244
L113.292 206.905
L114.408 166.484
L115.524 290.635
L116.64 296.409
L117.756 227.116
L118.872 189.582
L119.988 218.454
L121.104 307.958
L122.22 244.439
L123.336 316.62
L124.452 296.409
L125.568 247.326
L126.684 154.935
L127.8 172.259
L128.916 305.071
L130.032 232.89
L131.148 232.89
L132.264 189.582
L133.38 331.056
L134.496 328.168
L135.612 316.62
L136.728 281.973
L137.844 276.198
L138.96 218.454
L140.076 299.296
L141.192 299.296
L142.308 209.792
L143.424 224.229
L144.54 293.522
L145.656 221.341
L146.772 261.762
L147.888 279.086
L149.004 322.394
L150.12 198.244
L151.236 134.725
L152.352 253.101
L153.468 250.214
L154.584 281.973
L155.7 215.567
L156.816 264.65
L157.932 307.958
L159.048 302.183
L160.164 331.056
L161.28 273.311
L162.396 250.214
L163.512 296.409
L164.628 313.732
L165.744 307.958
L166.86 307.958
L167.976 281.973
L169.092 175.146
L170.208 206.905
L171.324 221.341
L172.44 264.65
L173.556 204.018
L174.672 310.845
L175.788 264.65
L176.904 281.973
L178.02 302.183
L179.136 310.845
L180.252 290.635
L181.368 322.394
L182.484 296.409
L183.6 333.943
L184.716 319.507
L185.832 189.582
L186.948 175.146
L188.064 293.522
L189.18 345.492
L190.296 339.717
L191.412 339.717
L192.528 215.567
L193.644 336.83
L194.76 339.717
L195.876 336.83
L196.992 204.018
L198.108 345.492
L199.224 241.552
L200.34 319.507
L201.456 175.146
L203.688 342.605
L204.804 322.394
L205.92 183.808
L207.036 351.266
L208.152 276.198
L209.268 342.605
L210.384 345.492
L211.5 279.086
L212.616 354.153
L213.732 198.244
L214.848 299.296
L215.964 290.635
L217.08 354.153
L218.196 354.153
L219.312 351.266
L220.428 253.101
L221.544 241.552
L222.66 354.153
L223.776 215.567
L224.892 169.371
L226.008 351.266
L227.124 359.928
L228.24 345.492
L229.356 287.747
L230.472 281.973
L231.588 351.266
L232.704 331.056
L233.82 157.823
L234.936 204.018
L236.052 192.469
L237.168 359.928
L238.284 296.409
L239.4 359.928
L240.516 354.153
L241.632 354.153
L242.748 351.266
L243.864 215.567
L244.98 232.89
L247.212 359.928
L248.328 354.153
L249.444 172.259
L250.56 296.409
L251.676 302.183
L252.792 299.296
L253.908 302.183
L255.024 218.454
L256.14 302.183
L257.256 299.296
L258.372 192.469
L259.488 299.296
L260.604 276.198
L261.72 368.589
L262.836 331.056
L263.952 241.552
L265.068 325.281
L266.184 331.056
L267.3 371.477
L268.416 354.153
L269.532 362.815
L270.648 325.281
L271.764 313.732
L273.996 374.364
L275.112 345.492
L276.228 368.589
L277.344 331.056
L278.46 279.086
L279.576 195.356
L280.692 322.394
L281.808 284.86
L282.924 328.168
L284.04 362.815
L285.156 339.717
L286.272 365.702
L287.388 287.747
L288.504 365.702
L289.62 325.281
L290.736 290.635
L291.852 357.041
L292.968 336.83
L294.084 232.89
L295.2 166.484
L296.316 357.041
L297.432 310.845
L298.548 273.311
L299.664 351.266
L300.78 261.762
L301.896 354.153
L303.012 365.702
L304.128 362.815
L305.244 365.702
L306.36 322.394
L307.476 359.928
L308.592 354.153
L309.708 351.266
L310.824 313.732
L311.94 362.815
L313.056 319.507
L314.172 215.567
L315.288 336.83
L316.404 305.071
L317.52 354.153
L318.636 357.041
L319.752 357.041
L320.868 354.153
L321.984 178.033
L323.1 180.92
L324.216 345.492
L325.332 354.153
L326.448 354.153
L327.564 336.83
L328.68 351.266
L329.796 357.041
L330.912 351.266
L332.028 212.68
L333.144 276.198
L334.26 351.266
L335.376 293.522
L336.492 348.379
L337.608 209.792
L338.724 357.041
L339.84 351.266
L340.956 371.477
L342.072 322.394
L343.188 354.153
L344.304 342.605
L345.42 221.341
L346.536 357.041
L347.652 342.605
L348.768 362.815
L349.884 357.041
L351 267.537
L352.116 336.83
L353.232 359.928
L354.348 345.492
L355.464 357.041
L356.58 357.041
L357.696 178.033
L358.812 362.815
L359.928 365.702
L361.044 264.65
L362.16 218.454
L363.276 305.071
L364.392 333.943
L365.508 354.153
L366.624 322.394
L367.74 221.341
L368.856 357.041
L369.972 299.296
L371.088 354.153
L372.204 359.928
L373.32 206.905
L374.436 342.605
L375.552 362.815
L376.668 371.477
L377.784 290.635
L378.9 365.702
L380.016 359.928
L381.132 365.702
L382.248 279.086
L383.364 368.589
L384.48 267.537
L385.596 339.717
L386.712 365.702
L387.828 333.943
L388.944 354.153
L390.06 368.589
L391.176 218.454
L392.292 290.635
L393.408 351.266
L394.524 368.589
L395.64 276.198
L396.756 368.589
L397.872 368.589
L398.988 261.762
L400.104 357.041
L401.22 313.732
L402.336 368.589
L403.452 362.815
L404.568 368.589
L405.684 348.379
L406.8 368.589
L407.916 365.702
L409.032 345.492
L410.148 169.371
L411.264 230.003
L412.38 368.589
L414.612 362.815
L415.728 284.86
L416.844 374.364
L417.96 195.356
L419.076 201.131
L420.192 336.83
L421.308 371.477
L422.424 368.589
L423.54 362.815
L424.656 371.477
L425.772 359.928
L426.888 296.409
L428.004 293.522
L429.12 339.717
L430.236 215.567
L431.352 365.702
L432.468 230.003
L433.584 374.364
L434.7 333.943
L435.816 354.153
L436.932 331.056
L438.048 166.484
L439.164 336.83
L440.28 371.477
L441.396 368.589
L442.512 357.041
L443.628 333.943
L444.744 267.537
L445.86 302.183
L446.976 362.815
L448.092 195.356
L449.208 336.83
L450.324 371.477
L451.44 325.281
L452.556 371.477
L453.672 359.928
L454.788 371.477
L455.904 284.86
L457.02 238.665
L458.136 267.537
L459.252 374.364
L460.368 201.131
L461.484 374.364
L462.6 371.477
L463.716 374.364
L464.832 371.477
L465.948 371.477
L467.064 374.364
L468.18 201.131
L469.296 354.153
L470.412 354.153
L471.528 374.364
L472.644 192.469
L473.76 238.665
L474.876 359.928
L475.992 201.131
L477.108 374.364
L478.224 365.702
L479.34 371.477
L480.456 247.326
L481.572 368.589
L482.688 362.815
L483.804 253.101
L484.92 374.364
L486.036 359.928
L487.152 371.477
L490.5 371.477
L491.616 374.364
L492.732 293.522
L493.848 374.364
L494.964 371.477
L496.08 374.364
L497.196 261.762
L498.312 371.477
L499.428 279.086
L500.544 374.364
L501.66 371.477
L502.776 371.477
L503.892 374.364
L505.008 371.477
L506.124 365.702
L507.24 374.364
L508.356 371.477
L509.472 374.364
L510.588 328.168
L511.704 374.364
L512.82 250.214
L513.936 336.83
L515.052 374.364
L516.168 345.492
L517.284 371.477
L517.284 371.477" style="fill:none;stroke:#0000ff;stroke-linecap:square;"/>
   </g>
   <g id="line2d_2">
    <path clip-path="url(#p7ff5b81e1d)" d="
M72 141.943
L73.116 191.314
L75.348 191.314
L76.464 158.4
L77.58 109.029
L78.696 109.029
L79.812 141.943
L80.928 158.4
L82.044 125.486
L83.16 158.4
L84.276 125.486
L85.392 191.314
L86.508 207.771
L87.624 158.4
L88.74 207.771
L89.856 92.5714
L90.972 207.771
L92.088 76.1143
L93.204 158.4
L94.32 109.029
L95.436 224.229
L96.552 207.771
L97.668 109.029
L98.784 125.486
L99.9 224.229
L101.016 224.229
L102.132 207.771
L103.248 174.857
L104.364 207.771
L105.48 158.4
L106.596 174.857
L107.712 207.771
L108.828 125.486
L109.944 109.029
L111.06 174.857
L112.176 224.229
L113.292 109.029
L114.408 224.229
L115.524 191.314
L116.64 191.314
L117.756 125.486
L118.872 224.229
L119.988 141.943
L121.104 174.857
L122.22 224.229
L123.336 207.771
L124.452 158.4
L125.568 224.229
L126.684 224.229
L127.8 109.029
L128.916 174.857
L130.032 109.029
L131.148 109.029
L132.264 240.686
L133.38 174.857
L135.612 174.857
L136.728 191.314
L137.844 141.943
L138.96 207.771
L140.076 174.857
L141.192 158.4
L142.308 125.486
L143.424 125.486
L144.54 191.314
L145.656 240.686
L146.772 240.686
L147.888 158.4
L149.004 158.4
L150.12 109.029
L151.236 207.771
L152.352 141.943
L153.468 141.943
L154.584 224.229
L155.7 125.486
L156.816 207.771
L157.932 158.4
L159.048 141.943
L160.164 158.4
L161.28 125.486
L162.396 141.943
L163.512 207.771
L164.628 158.4
L165.744 191.314
L166.86 141.943
L167.976 207.771
L169.092 92.5714
L170.208 158.4
L171.324 158.4
L172.44 240.686
L173.556 158.4
L174.672 141.943
L175.788 240.686
L176.904 207.771
L178.02 207.771
L179.136 125.486
L180.252 207.771
L181.368 158.4
L182.484 207.771
L183.6 158.4
L184.716 191.314
L185.832 125.486
L186.948 92.5714
L188.064 224.229
L189.18 125.486
L190.296 141.943
L191.412 141.943
L192.528 240.686
L193.644 158.4
L194.76 125.486
L195.876 141.943
L196.992 141.943
L198.108 125.486
L199.224 240.686
L200.34 125.486
L201.456 92.5714
L202.572 141.943
L204.804 141.943
L205.92 125.486
L207.036 158.4
L208.152 141.943
L213.732 141.943
L214.848 207.771
L215.964 158.4
L219.312 158.4
L220.428 240.686
L221.544 141.943
L222.66 141.943
L223.776 224.229
L224.892 224.229
L226.008 158.4
L227.124 174.857
L228.24 141.943
L229.356 207.771
L230.472 207.771
L231.588 158.4
L233.82 224.229
L236.052 224.229
L237.168 141.943
L238.284 141.943
L239.4 158.4
L242.748 158.4
L243.864 224.229
L244.98 240.686
L246.096 207.771
L247.212 141.943
L248.328 158.4
L249.444 224.229
L250.56 207.771
L251.676 207.771
L252.792 141.943
L253.908 207.771
L255.024 125.486
L256.14 207.771
L257.256 207.771
L258.372 141.943
L259.488 207.771
L260.604 141.943
L261.72 141.943
L262.836 158.4
L263.952 125.486
L265.068 141.943
L266.184 141.943
L267.3 125.486
L268.416 141.943
L269.532 125.486
L270.648 141.943
L272.88 141.943
L273.996 109.029
L275.112 191.314
L276.228 141.943
L277.344 141.943
L278.46 224.229
L279.576 141.943
L280.692 224.229
L281.808 207.771
L282.924 224.229
L284.04 158.4
L285.156 174.857
L286.272 125.486
L287.388 224.229
L288.504 174.857
L289.62 158.4
L290.736 224.229
L291.852 158.4
L292.968 174.857
L294.084 158.4
L295.2 224.229
L296.316 158.4
L297.432 174.857
L298.548 158.4
L301.896 158.4
L303.012 125.486
L306.36 174.857
L307.476 141.943
L308.592 158.4
L309.708 158.4
L310.824 174.857
L311.94 141.943
L313.056 207.771
L314.172 207.771
L315.288 174.857
L316.404 207.771
L317.52 174.857
L319.752 141.943
L320.868 174.857
L321.984 224.229
L323.1 224.229
L324.216 174.857
L325.332 174.857
L326.448 158.4
L327.564 174.857
L328.68 158.4
L329.796 158.4
L330.912 174.857
L332.028 158.4
L333.144 207.771
L334.26 174.857
L335.376 207.771
L336.492 158.4
L340.956 158.4
L342.072 191.314
L343.188 158.4
L344.304 207.771
L345.42 158.4
L346.536 158.4
L347.652 207.771
L348.768 158.4
L351 158.4
L352.116 191.314
L354.348 158.4
L355.464 158.4
L356.58 174.857
L357.696 224.229
L358.812 174.857
L359.928 174.857
L361.044 207.771
L362.16 158.4
L363.276 158.4
L364.392 191.314
L365.508 158.4
L366.624 174.857
L367.74 207.771
L368.856 174.857
L369.972 207.771
L371.088 174.857
L373.32 141.943
L374.436 207.771
L375.552 158.4
L376.668 174.857
L378.9 141.943
L380.016 158.4
L381.132 141.943
L382.248 207.771
L383.364 174.857
L384.48 207.771
L385.596 191.314
L386.712 125.486
L387.828 207.771
L388.944 158.4
L390.06 141.943
L391.176 158.4
L392.292 158.4
L393.408 191.314
L394.524 125.486
L395.64 207.771
L396.756 125.486
L397.872 141.943
L398.988 207.771
L400.104 191.314
L401.22 207.771
L402.336 125.486
L403.452 191.314
L404.568 125.486
L405.684 174.857
L406.8 141.943
L407.916 158.4
L410.148 224.229
L411.264 158.4
L412.38 174.857
L413.496 158.4
L414.612 158.4
L415.728 207.771
L416.844 174.857
L417.96 158.4
L419.076 224.229
L421.308 158.4
L422.424 191.314
L423.54 158.4
L428.004 158.4
L429.12 191.314
L431.352 125.486
L432.468 224.229
L433.584 191.314
L434.7 207.771
L435.816 158.4
L436.932 207.771
L438.048 224.229
L439.164 174.857
L440.28 191.314
L441.396 158.4
L442.512 207.771
L443.628 174.857
L444.744 224.229
L446.976 158.4
L448.092 158.4
L449.208 174.857
L450.324 174.857
L451.44 207.771
L452.556 158.4
L453.672 191.314
L454.788 158.4
L457.02 158.4
L458.136 224.229
L459.252 141.943
L460.368 158.4
L461.484 141.943
L462.6 174.857
L463.716 141.943
L464.832 141.943
L465.948 191.314
L468.18 158.4
L469.296 207.771
L470.412 158.4
L472.644 158.4
L473.76 224.229
L474.876 158.4
L475.992 158.4
L477.108 125.486
L478.224 207.771
L479.34 191.314
L480.456 207.771
L481.572 141.943
L482.688 141.943
L483.804 158.4
L484.92 141.943
L486.036 207.771
L487.152 141.943
L489.384 141.943
L490.5 158.4
L491.616 191.314
L492.732 158.4
L493.848 141.943
L494.964 141.943
L496.08 158.4
L499.428 158.4
L500.544 141.943
L502.776 174.857
L503.892 141.943
L505.008 141.943
L506.124 158.4
L507.24 125.486
L508.356 191.314
L509.472 141.943
L510.588 174.857
L511.704 141.943
L512.82 207.771
L513.936 207.771
L516.168 174.857
L517.284 174.857
L517.284 174.857" style="fill:none;stroke:#ff0000;stroke-linecap:square;"/>
   </g>
   <g id="patch_3">
    <path d="
M72 43.2
L518.4 43.2" style="fill:none;stroke:#000000;stroke-linecap:square;stroke-linejoin:miter;"/>
   </g>
   <g id="patch_4">
    <path d="
M518.4 388.8
L518.4 43.2" style="fill:none;stroke:#000000;stroke-linecap:square;stroke-linejoin:miter;"/>
   </g>
   <g id="patch_5">
    <path d="
M72 388.8
L518.4 388.8" style="fill:none;stroke:#000000;stroke-linecap:square;stroke-linejoin:miter;"/>
   </g>
   <g id="patch_6">
    <path d="
M72 388.8
L72 43.2" style="fill:none;stroke:#000000;stroke-linecap:square;stroke-linejoin:miter;"/>
   </g>
   <g id="matplotlib.axis_1">
    <g id="xtick_1">
     <g id="line2d_3">
      <defs>
       <path d="
M0 0
L0 -4" id="m93b0483c22" style="stroke:#000000;stroke-width:0.5;"/>
      </defs>
      <g>
       <use style="stroke:#000000;stroke-width:0.5;" x="72.0" xlink:href="#m93b0483c22" y="388.8"/>
      </g>
     </g>
     <g id="line2d_4">
      <defs>
       <path d="
M0 0
L0 4" id="m741efc42ff" style="stroke:#000000;stroke-width:0.5;"/>
      </defs>
      <g>
       <use style="stroke:#000000;stroke-width:0.5;" x="72.0" xlink:href="#m741efc42ff" y="43.2"/>
      </g>
     </g>
     <g id="text_1">
      <!-- 0 -->
      <defs>
       <path d="
M31.7812 66.4062
Q24.1719 66.4062 20.3281 58.9062
Q16.5 51.4219 16.5 36.375
Q16.5 21.3906 20.3281 13.8906
Q24.1719 6.39062 31.7812 6.39062
Q39.4531 6.39062 43.2812 13.8906
Q47.125 21.3906 47.125 36.375
Q47.125 51.4219 43.2812 58.9062
Q39.4531 66.4062 31.7812 66.4062
M31.7812 74.2188
Q44.0469 74.2188 50.5156 64.5156
Q56.9844 54.8281 56.9844 36.375
Q56.9844 17.9688 50.5156 8.26562
Q44.0469 -1.42188 31.7812 -1.42188
Q19.5312 -1.42188 13.0625 8.26562
Q6.59375 17.9688 6.59375 36.375
Q6.59375 54.8281 13.0625 64.5156
Q19.5312 74.2188 31.7812 74.2188" id="BitstreamVeraSans-Roman-30"/>
      </defs>
      <g transform="translate(68.9765625 401.918125)scale(0.12 -0.12)">
       <use xlink:href="#BitstreamVeraSans-Roman-30"/>
      </g>
     </g>
    </g>
    <g id="xtick_2">
     <g id="line2d_5">
      <g>
       <use style="stroke:#000000;stroke-width:0.5;" x="127.8" xlink:href="#m93b0483c22" y="388.8"/>
      </g>
     </g>
     <g id="line2d_6">
      <g>
       <use style="stroke:#000000;stroke-width:0.5;" x="127.8" xlink:href="#m741efc42ff" y="43.2"/>
      </g>
     </g>
     <g id="text_2">
      <!-- 50 -->
      <defs>
       <path d="
M10.7969 72.9062
L49.5156 72.9062
L49.5156 64.5938
L19.8281 64.5938
L19.8281 46.7344
Q21.9688 47.4688 24.1094 47.8281
Q26.2656 48.1875 28.4219 48.1875
Q40.625 48.1875 47.75 41.5
Q54.8906 34.8125 54.8906 23.3906
Q54.8906 11.625 47.5625 5.09375
Q40.2344 -1.42188 26.9062 -1.42188
Q22.3125 -1.42188 17.5469 -0.640625
Q12.7969 0.140625 7.71875 1.70312
L7.71875 11.625
Q12.1094 9.23438 16.7969 8.0625
Q21.4844 6.89062 26.7031 6.89062
Q35.1562 6.89062 40.0781 11.3281
Q45.0156 15.7656 45.0156 23.3906
Q45.0156 31 40.0781 35.4375
Q35.1562 39.8906 26.7031 39.8906
Q22.75 39.8906 18.8125 39.0156
Q14.8906 38.1406 10.7969 36.2812
z
" id="BitstreamVeraSans-Roman-35"/>
      </defs>
      <g transform="translate(121.0265625 401.918125)scale(0.12 -0.12)">
       <use xlink:href="#BitstreamVeraSans-Roman-35"/>
       <use x="63.623046875" xlink:href="#BitstreamVeraSans-Roman-30"/>
      </g>
     </g>
    </g>
    <g id="xtick_3">
     <g id="line2d_7">
      <g>
       <use style="stroke:#000000;stroke-width:0.5;" x="183.6" xlink:href="#m93b0483c22" y="388.8"/>
      </g>
     </g>
     <g id="line2d_8">
      <g>
       <use style="stroke:#000000;stroke-width:0.5;" x="183.6" xlink:href="#m741efc42ff" y="43.2"/>
      </g>
     </g>
     <g id="text_3">
      <!-- 100 -->
      <defs>
       <path d="
M12.4062 8.29688
L28.5156 8.29688
L28.5156 63.9219
L10.9844 60.4062
L10.9844 69.3906
L28.4219 72.9062
L38.2812 72.9062
L38.2812 8.29688
L54.3906 8.29688
L54.3906 0
L12.4062 0
z
" id="BitstreamVeraSans-Roman-31"/>
      </defs>
      <g transform="translate(173.205 401.918125)scale(0.12 -0.12)">
       <use xlink:href="#BitstreamVeraSans-Roman-31"/>
       <use x="63.623046875" xlink:href="#BitstreamVeraSans-Roman-30"/>
       <use x="127.24609375" xlink:href="#BitstreamVeraSans-Roman-30"/>
      </g>
     </g>
    </g>
    <g id="xtick_4">
     <g id="line2d_9">
      <g>
       <use style="stroke:#000000;stroke-width:0.5;" x="239.4" xlink:href="#m93b0483c22" y="388.8"/>
      </g>
     </g>
     <g id="line2d_10">
      <g>
       <use style="stroke:#000000;stroke-width:0.5;" x="239.4" xlink:href="#m741efc42ff" y="43.2"/>
      </g>
     </g>
     <g id="text_4">
      <!-- 150 -->
      <g transform="translate(229.005 401.918125)scale(0.12 -0.12)">
       <use xlink:href="#BitstreamVeraSans-Roman-31"/>
       <use x="63.623046875" xlink:href="#BitstreamVeraSans-Roman-35"/>
       <use x="127.24609375" xlink:href="#BitstreamVeraSans-Roman-30"/>
      </g>
     </g>
    </g>
    <g id="xtick_5">
     <g id="line2d_11">
      <g>
       <use style="stroke:#000000;stroke-width:0.5;" x="295.2" xlink:href="#m93b0483c22" y="388.8"/>
      </g>
     </g>
     <g id="line2d_12">
      <g>
       <use style="stroke:#000000;stroke-width:0.5;" x="295.2" xlink:href="#m741efc42ff" y="43.2"/>
      </g>
     </g>
     <g id="text_5">
      <!-- 200 -->
      <defs>
       <path d="
M19.1875 8.29688
L53.6094 8.29688
L53.6094 0
L7.32812 0
L7.32812 8.29688
Q12.9375 14.1094 22.625 23.8906
Q32.3281 33.6875 34.8125 36.5312
Q39.5469 41.8438 41.4219 45.5312
Q43.3125 49.2188 43.3125 52.7812
Q43.3125 58.5938 39.2344 62.25
Q35.1562 65.9219 28.6094 65.9219
Q23.9688 65.9219 18.8125 64.3125
Q13.6719 62.7031 7.8125 59.4219
L7.8125 69.3906
Q13.7656 71.7812 18.9375 73
Q24.125 74.2188 28.4219 74.2188
Q39.75 74.2188 46.4844 68.5469
Q53.2188 62.8906 53.2188 53.4219
Q53.2188 48.9219 51.5312 44.8906
Q49.8594 40.875 45.4062 35.4062
Q44.1875 33.9844 37.6406 27.2188
Q31.1094 20.4531 19.1875 8.29688" id="BitstreamVeraSans-Roman-32"/>
      </defs>
      <g transform="translate(284.585625 401.918125)scale(0.12 -0.12)">
       <use xlink:href="#BitstreamVeraSans-Roman-32"/>
       <use x="63.623046875" xlink:href="#BitstreamVeraSans-Roman-30"/>
       <use x="127.24609375" xlink:href="#BitstreamVeraSans-Roman-30"/>
      </g>
     </g>
    </g>
    <g id="xtick_6">
     <g id="line2d_13">
      <g>
       <use style="stroke:#000000;stroke-width:0.5;" x="351.0" xlink:href="#m93b0483c22" y="388.8"/>
      </g>
     </g>
     <g id="line2d_14">
      <g>
       <use style="stroke:#000000;stroke-width:0.5;" x="351.0" xlink:href="#m741efc42ff" y="43.2"/>
      </g>
     </g>
     <g id="text_6">
      <!-- 250 -->
      <g transform="translate(340.385625 401.918125)scale(0.12 -0.12)">
       <use xlink:href="#BitstreamVeraSans-Roman-32"/>
       <use x="63.623046875" xlink:href="#BitstreamVeraSans-Roman-35"/>
       <use x="127.24609375" xlink:href="#BitstreamVeraSans-Roman-30"/>
      </g>
     </g>
    </g>
    <g id="xtick_7">
     <g id="line2d_15">
      <g>
       <use style="stroke:#000000;stroke-width:0.5;" x="406.8" xlink:href="#m93b0483c22" y="388.8"/>
      </g>
     </g>
     <g id="line2d_16">
      <g>
       <use style="stroke:#000000;stroke-width:0.5;" x="406.8" xlink:href="#m741efc42ff" y="43.2"/>
      </g>
     </g>
     <g id="text_7">
      <!-- 300 -->
      <defs>
       <path d="
M40.5781 39.3125
Q47.6562 37.7969 51.625 33
Q55.6094 28.2188 55.6094 21.1875
Q55.6094 10.4062 48.1875 4.48438
Q40.7656 -1.42188 27.0938 -1.42188
Q22.5156 -1.42188 17.6562 -0.515625
Q12.7969 0.390625 7.625 2.20312
L7.625 11.7188
Q11.7188 9.32812 16.5938 8.10938
Q21.4844 6.89062 26.8125 6.89062
Q36.0781 6.89062 40.9375 10.5469
Q45.7969 14.2031 45.7969 21.1875
Q45.7969 27.6406 41.2812 31.2656
Q36.7656 34.9062 28.7188 34.9062
L20.2188 34.9062
L20.2188 43.0156
L29.1094 43.0156
Q36.375 43.0156 40.2344 45.9219
Q44.0938 48.8281 44.0938 54.2969
Q44.0938 59.9062 40.1094 62.9062
Q36.1406 65.9219 28.7188 65.9219
Q24.6562 65.9219 20.0156 65.0312
Q15.375 64.1562 9.8125 62.3125
L9.8125 71.0938
Q15.4375 72.6562 20.3438 73.4375
Q25.25 74.2188 29.5938 74.2188
Q40.8281 74.2188 47.3594 69.1094
Q53.9062 64.0156 53.9062 55.3281
Q53.9062 49.2656 50.4375 45.0938
Q46.9688 40.9219 40.5781 39.3125" id="BitstreamVeraSans-Roman-33"/>
      </defs>
      <g transform="translate(396.2034375 401.918125)scale(0.12 -0.12)">
       <use xlink:href="#BitstreamVeraSans-Roman-33"/>
       <use x="63.623046875" xlink:href="#BitstreamVeraSans-Roman-30"/>
       <use x="127.24609375" xlink:href="#BitstreamVeraSans-Roman-30"/>
      </g>
     </g>
    </g>
    <g id="xtick_8">
     <g id="line2d_17">
      <g>
       <use style="stroke:#000000;stroke-width:0.5;" x="462.6" xlink:href="#m93b0483c22" y="388.8"/>
      </g>
     </g>
     <g id="line2d_18">
      <g>
       <use style="stroke:#000000;stroke-width:0.5;" x="462.6" xlink:href="#m741efc42ff" y="43.2"/>
      </g>
     </g>
     <g id="text_8">
      <!-- 350 -->
      <g transform="translate(452.0034375 401.918125)scale(0.12 -0.12)">
       <use xlink:href="#BitstreamVeraSans-Roman-33"/>
       <use x="63.623046875" xlink:href="#BitstreamVeraSans-Roman-35"/>
       <use x="127.24609375" xlink:href="#BitstreamVeraSans-Roman-30"/>
      </g>
     </g>
    </g>
    <g id="xtick_9">
     <g id="line2d_19">
      <g>
       <use style="stroke:#000000;stroke-width:0.5;" x="518.4" xlink:href="#m93b0483c22" y="388.8"/>
      </g>
     </g>
     <g id="line2d_20">
      <g>
       <use style="stroke:#000000;stroke-width:0.5;" x="518.4" xlink:href="#m741efc42ff" y="43.2"/>
      </g>
     </g>
     <g id="text_9">
      <!-- 400 -->
      <defs>
       <path d="
M37.7969 64.3125
L12.8906 25.3906
L37.7969 25.3906
z

M35.2031 72.9062
L47.6094 72.9062
L47.6094 25.3906
L58.0156 25.3906
L58.0156 17.1875
L47.6094 17.1875
L47.6094 0
L37.7969 0
L37.7969 17.1875
L4.89062 17.1875
L4.89062 26.7031
z
" id="BitstreamVeraSans-Roman-34"/>
      </defs>
      <g transform="translate(507.639375 401.918125)scale(0.12 -0.12)">
       <use xlink:href="#BitstreamVeraSans-Roman-34"/>
       <use x="63.623046875" xlink:href="#BitstreamVeraSans-Roman-30"/>
       <use x="127.24609375" xlink:href="#BitstreamVeraSans-Roman-30"/>
      </g>
     </g>
    </g>
    <g id="text_10">
     <!-- Num Epochs -->
     <defs>
      <path id="BitstreamVeraSans-Roman-20"/>
      <path d="
M9.8125 72.9062
L23.0938 72.9062
L55.4219 11.9219
L55.4219 72.9062
L64.9844 72.9062
L64.9844 0
L51.7031 0
L19.3906 60.9844
L19.3906 0
L9.8125 0
z
" id="BitstreamVeraSans-Roman-4e"/>
      <path d="
M52 44.1875
Q55.375 50.25 60.0625 53.125
Q64.75 56 71.0938 56
Q79.6406 56 84.2812 50.0156
Q88.9219 44.0469 88.9219 33.0156
L88.9219 0
L79.8906 0
L79.8906 32.7188
Q79.8906 40.5781 77.0938 44.375
Q74.3125 48.1875 68.6094 48.1875
Q61.625 48.1875 57.5625 43.5469
Q53.5156 38.9219 53.5156 30.9062
L53.5156 0
L44.4844 0
L44.4844 32.7188
Q44.4844 40.625 41.7031 44.4062
Q38.9219 48.1875 33.1094 48.1875
Q26.2188 48.1875 22.1562 43.5312
Q18.1094 38.875 18.1094 30.9062
L18.1094 0
L9.07812 0
L9.07812 54.6875
L18.1094 54.6875
L18.1094 46.1875
Q21.1875 51.2188 25.4844 53.6094
Q29.7812 56 35.6875 56
Q41.6562 56 45.8281 52.9688
Q50 49.9531 52 44.1875" id="BitstreamVeraSans-Roman-6d"/>
      <path d="
M30.6094 48.3906
Q23.3906 48.3906 19.1875 42.75
Q14.9844 37.1094 14.9844 27.2969
Q14.9844 17.4844 19.1562 11.8438
Q23.3438 6.20312 30.6094 6.20312
Q37.7969 6.20312 41.9844 11.8594
Q46.1875 17.5312 46.1875 27.2969
Q46.1875 37.0156 41.9844 42.7031
Q37.7969 48.3906 30.6094 48.3906
M30.6094 56
Q42.3281 56 49.0156 48.375
Q55.7188 40.7656 55.7188 27.2969
Q55.7188 13.875 49.0156 6.21875
Q42.3281 -1.42188 30.6094 -1.42188
Q18.8438 -1.42188 12.1719 6.21875
Q5.51562 13.875 5.51562 27.2969
Q5.51562 40.7656 12.1719 48.375
Q18.8438 56 30.6094 56" id="BitstreamVeraSans-Roman-6f"/>
      <path d="
M9.8125 72.9062
L55.9062 72.9062
L55.9062 64.5938
L19.6719 64.5938
L19.6719 43.0156
L54.3906 43.0156
L54.3906 34.7188
L19.6719 34.7188
L19.6719 8.29688
L56.7812 8.29688
L56.7812 0
L9.8125 0
z
" id="BitstreamVeraSans-Roman-45"/>
      <path d="
M48.7812 52.5938
L48.7812 44.1875
Q44.9688 46.2969 41.1406 47.3438
Q37.3125 48.3906 33.4062 48.3906
Q24.6562 48.3906 19.8125 42.8438
Q14.9844 37.3125 14.9844 27.2969
Q14.9844 17.2812 19.8125 11.7344
Q24.6562 6.20312 33.4062 6.20312
Q37.3125 6.20312 41.1406 7.25
Q44.9688 8.29688 48.7812 10.4062
L48.7812 2.09375
Q45.0156 0.34375 40.9844 -0.53125
Q36.9688 -1.42188 32.4219 -1.42188
Q20.0625 -1.42188 12.7812 6.34375
Q5.51562 14.1094 5.51562 27.2969
Q5.51562 40.6719 12.8594 48.3281
Q20.2188 56 33.0156 56
Q37.1562 56 41.1094 55.1406
Q45.0625 54.2969 48.7812 52.5938" id="BitstreamVeraSans-Roman-63"/>
      <path d="
M8.5 21.5781
L8.5 54.6875
L17.4844 54.6875
L17.4844 21.9219
Q17.4844 14.1562 20.5 10.2656
Q23.5312 6.39062 29.5938 6.39062
Q36.8594 6.39062 41.0781 11.0312
Q45.3125 15.6719 45.3125 23.6875
L45.3125 54.6875
L54.2969 54.6875
L54.2969 0
L45.3125 0
L45.3125 8.40625
Q42.0469 3.42188 37.7188 1
Q33.4062 -1.42188 27.6875 -1.42188
Q18.2656 -1.42188 13.375 4.4375
Q8.5 10.2969 8.5 21.5781" id="BitstreamVeraSans-Roman-75"/>
      <path d="
M44.2812 53.0781
L44.2812 44.5781
Q40.4844 46.5312 36.375 47.5
Q32.2812 48.4844 27.875 48.4844
Q21.1875 48.4844 17.8438 46.4375
Q14.5 44.3906 14.5 40.2812
Q14.5 37.1562 16.8906 35.375
Q19.2812 33.5938 26.5156 31.9844
L29.5938 31.2969
Q39.1562 29.25 43.1875 25.5156
Q47.2188 21.7812 47.2188 15.0938
Q47.2188 7.46875 41.1875 3.01562
Q35.1562 -1.42188 24.6094 -1.42188
Q20.2188 -1.42188 15.4531 -0.5625
Q10.6875 0.296875 5.42188 2
L5.42188 11.2812
Q10.4062 8.6875 15.2344 7.39062
Q20.0625 6.10938 24.8125 6.10938
Q31.1562 6.10938 34.5625 8.28125
Q37.9844 10.4531 37.9844 14.4062
Q37.9844 18.0625 35.5156 20.0156
Q33.0625 21.9688 24.7031 23.7812
L21.5781 24.5156
Q13.2344 26.2656 9.51562 29.9062
Q5.8125 33.5469 5.8125 39.8906
Q5.8125 47.6094 11.2812 51.7969
Q16.75 56 26.8125 56
Q31.7812 56 36.1719 55.2656
Q40.5781 54.5469 44.2812 53.0781" id="BitstreamVeraSans-Roman-73"/>
      <path d="
M18.1094 8.20312
L18.1094 -20.7969
L9.07812 -20.7969
L9.07812 54.6875
L18.1094 54.6875
L18.1094 46.3906
Q20.9531 51.2656 25.2656 53.625
Q29.5938 56 35.5938 56
Q45.5625 56 51.7812 48.0938
Q58.0156 40.1875 58.0156 27.2969
Q58.0156 14.4062 51.7812 6.48438
Q45.5625 -1.42188 35.5938 -1.42188
Q29.5938 -1.42188 25.2656 0.953125
Q20.9531 3.32812 18.1094 8.20312
M48.6875 27.2969
Q48.6875 37.2031 44.6094 42.8438
Q40.5312 48.4844 33.4062 48.4844
Q26.2656 48.4844 22.1875 42.8438
Q18.1094 37.2031 18.1094 27.2969
Q18.1094 17.3906 22.1875 11.75
Q26.2656 6.10938 33.4062 6.10938
Q40.5312 6.10938 44.6094 11.75
Q48.6875 17.3906 48.6875 27.2969" id="BitstreamVeraSans-Roman-70"/>
      <path d="
M54.8906 33.0156
L54.8906 0
L45.9062 0
L45.9062 32.7188
Q45.9062 40.4844 42.875 44.3281
Q39.8438 48.1875 33.7969 48.1875
Q26.5156 48.1875 22.3125 43.5469
Q18.1094 38.9219 18.1094 30.9062
L18.1094 0
L9.07812 0
L9.07812 75.9844
L18.1094 75.9844
L18.1094 46.1875
Q21.3438 51.125 25.7031 53.5625
Q30.0781 56 35.7969 56
Q45.2188 56 50.0469 50.1719
Q54.8906 44.3438 54.8906 33.0156" id="BitstreamVeraSans-Roman-68"/>
     </defs>
     <g transform="translate(257.95125 418.531875)scale(0.12 -0.12)">
      <use xlink:href="#BitstreamVeraSans-Roman-4e"/>
      <use x="74.8046875" xlink:href="#BitstreamVeraSans-Roman-75"/>
      <use x="138.18359375" xlink:href="#BitstreamVeraSans-Roman-6d"/>
      <use x="235.595703125" xlink:href="#BitstreamVeraSans-Roman-20"/>
      <use x="267.3828125" xlink:href="#BitstreamVeraSans-Roman-45"/>
      <use x="330.56640625" xlink:href="#BitstreamVeraSans-Roman-70"/>
      <use x="394.04296875" xlink:href="#BitstreamVeraSans-Roman-6f"/>
      <use x="455.224609375" xlink:href="#BitstreamVeraSans-Roman-63"/>
      <use x="510.205078125" xlink:href="#BitstreamVeraSans-Roman-68"/>
      <use x="573.583984375" xlink:href="#BitstreamVeraSans-Roman-73"/>
     </g>
    </g>
   </g>
   <g id="matplotlib.axis_2">
    <g id="ytick_1">
     <g id="line2d_21">
      <defs>
       <path d="
M0 0
L4 0" id="m728421d6d4" style="stroke:#000000;stroke-width:0.5;"/>
      </defs>
      <g>
       <use style="stroke:#000000;stroke-width:0.5;" x="72.0" xlink:href="#m728421d6d4" y="388.8"/>
      </g>
     </g>
     <g id="line2d_22">
      <defs>
       <path d="
M0 0
L-4 0" id="mcb0005524f" style="stroke:#000000;stroke-width:0.5;"/>
      </defs>
      <g>
       <use style="stroke:#000000;stroke-width:0.5;" x="518.4" xlink:href="#mcb0005524f" y="388.8"/>
      </g>
     </g>
     <g id="text_11">
      <!-- 0 -->
      <g transform="translate(61.953125 392.11125)scale(0.12 -0.12)">
       <use xlink:href="#BitstreamVeraSans-Roman-30"/>
      </g>
     </g>
    </g>
    <g id="ytick_2">
     <g id="line2d_23">
      <g>
       <use style="stroke:#000000;stroke-width:0.5;" x="72.0" xlink:href="#m728421d6d4" y="339.428571429"/>
      </g>
     </g>
     <g id="line2d_24">
      <g>
       <use style="stroke:#000000;stroke-width:0.5;" x="518.4" xlink:href="#mcb0005524f" y="339.428571429"/>
      </g>
     </g>
     <g id="text_12">
      <!-- 10 -->
      <g transform="translate(54.845 342.739821429)scale(0.12 -0.12)">
       <use xlink:href="#BitstreamVeraSans-Roman-31"/>
       <use x="63.623046875" xlink:href="#BitstreamVeraSans-Roman-30"/>
      </g>
     </g>
    </g>
    <g id="ytick_3">
     <g id="line2d_25">
      <g>
       <use style="stroke:#000000;stroke-width:0.5;" x="72.0" xlink:href="#m728421d6d4" y="290.057142857"/>
      </g>
     </g>
     <g id="line2d_26">
      <g>
       <use style="stroke:#000000;stroke-width:0.5;" x="518.4" xlink:href="#mcb0005524f" y="290.057142857"/>
      </g>
     </g>
     <g id="text_13">
      <!-- 20 -->
      <g transform="translate(54.40625 293.368392857)scale(0.12 -0.12)">
       <use xlink:href="#BitstreamVeraSans-Roman-32"/>
       <use x="63.623046875" xlink:href="#BitstreamVeraSans-Roman-30"/>
      </g>
     </g>
    </g>
    <g id="ytick_4">
     <g id="line2d_27">
      <g>
       <use style="stroke:#000000;stroke-width:0.5;" x="72.0" xlink:href="#m728421d6d4" y="240.685714286"/>
      </g>
     </g>
     <g id="line2d_28">
      <g>
       <use style="stroke:#000000;stroke-width:0.5;" x="518.4" xlink:href="#mcb0005524f" y="240.685714286"/>
      </g>
     </g>
     <g id="text_14">
      <!-- 30 -->
      <g transform="translate(54.441875 243.996964286)scale(0.12 -0.12)">
       <use xlink:href="#BitstreamVeraSans-Roman-33"/>
       <use x="63.623046875" xlink:href="#BitstreamVeraSans-Roman-30"/>
      </g>
     </g>
    </g>
    <g id="ytick_5">
     <g id="line2d_29">
      <g>
       <use style="stroke:#000000;stroke-width:0.5;" x="72.0" xlink:href="#m728421d6d4" y="191.314285714"/>
      </g>
     </g>
     <g id="line2d_30">
      <g>
       <use style="stroke:#000000;stroke-width:0.5;" x="518.4" xlink:href="#mcb0005524f" y="191.314285714"/>
      </g>
     </g>
     <g id="text_15">
      <!-- 40 -->
      <g transform="translate(54.11375 194.625535714)scale(0.12 -0.12)">
       <use xlink:href="#BitstreamVeraSans-Roman-34"/>
       <use x="63.623046875" xlink:href="#BitstreamVeraSans-Roman-30"/>
      </g>
     </g>
    </g>
    <g id="ytick_6">
     <g id="line2d_31">
      <g>
       <use style="stroke:#000000;stroke-width:0.5;" x="72.0" xlink:href="#m728421d6d4" y="141.942857143"/>
      </g>
     </g>
     <g id="line2d_32">
      <g>
       <use style="stroke:#000000;stroke-width:0.5;" x="518.4" xlink:href="#mcb0005524f" y="141.942857143"/>
      </g>
     </g>
     <g id="text_16">
      <!-- 50 -->
      <g transform="translate(54.453125 145.254107143)scale(0.12 -0.12)">
       <use xlink:href="#BitstreamVeraSans-Roman-35"/>
       <use x="63.623046875" xlink:href="#BitstreamVeraSans-Roman-30"/>
      </g>
     </g>
    </g>
    <g id="ytick_7">
     <g id="line2d_33">
      <g>
       <use style="stroke:#000000;stroke-width:0.5;" x="72.0" xlink:href="#m728421d6d4" y="92.5714285714"/>
      </g>
     </g>
     <g id="line2d_34">
      <g>
       <use style="stroke:#000000;stroke-width:0.5;" x="518.4" xlink:href="#mcb0005524f" y="92.5714285714"/>
      </g>
     </g>
     <g id="text_17">
      <!-- 60 -->
      <defs>
       <path d="
M33.0156 40.375
Q26.375 40.375 22.4844 35.8281
Q18.6094 31.2969 18.6094 23.3906
Q18.6094 15.5312 22.4844 10.9531
Q26.375 6.39062 33.0156 6.39062
Q39.6562 6.39062 43.5312 10.9531
Q47.4062 15.5312 47.4062 23.3906
Q47.4062 31.2969 43.5312 35.8281
Q39.6562 40.375 33.0156 40.375
M52.5938 71.2969
L52.5938 62.3125
Q48.875 64.0625 45.0938 64.9844
Q41.3125 65.9219 37.5938 65.9219
Q27.8281 65.9219 22.6719 59.3281
Q17.5312 52.7344 16.7969 39.4062
Q19.6719 43.6562 24.0156 45.9219
Q28.375 48.1875 33.5938 48.1875
Q44.5781 48.1875 50.9531 41.5156
Q57.3281 34.8594 57.3281 23.3906
Q57.3281 12.1562 50.6875 5.35938
Q44.0469 -1.42188 33.0156 -1.42188
Q20.3594 -1.42188 13.6719 8.26562
Q6.98438 17.9688 6.98438 36.375
Q6.98438 53.6562 15.1875 63.9375
Q23.3906 74.2188 37.2031 74.2188
Q40.9219 74.2188 44.7031 73.4844
Q48.4844 72.75 52.5938 71.2969" id="BitstreamVeraSans-Roman-36"/>
      </defs>
      <g transform="translate(54.365 95.8826785714)scale(0.12 -0.12)">
       <use xlink:href="#BitstreamVeraSans-Roman-36"/>
       <use x="63.623046875" xlink:href="#BitstreamVeraSans-Roman-30"/>
      </g>
     </g>
    </g>
    <g id="ytick_8">
     <g id="line2d_35">
      <g>
       <use style="stroke:#000000;stroke-width:0.5;" x="72.0" xlink:href="#m728421d6d4" y="43.2"/>
      </g>
     </g>
     <g id="line2d_36">
      <g>
       <use style="stroke:#000000;stroke-width:0.5;" x="518.4" xlink:href="#mcb0005524f" y="43.2"/>
      </g>
     </g>
     <g id="text_18">
      <!-- 70 -->
      <defs>
       <path d="
M8.20312 72.9062
L55.0781 72.9062
L55.0781 68.7031
L28.6094 0
L18.3125 0
L43.2188 64.5938
L8.20312 64.5938
z
" id="BitstreamVeraSans-Roman-37"/>
      </defs>
      <g transform="translate(54.51125 46.51125)scale(0.12 -0.12)">
       <use xlink:href="#BitstreamVeraSans-Roman-37"/>
       <use x="63.623046875" xlink:href="#BitstreamVeraSans-Roman-30"/>
      </g>
     </g>
    </g>
    <g id="text_19">
     <!-- Percent Error -->
     <defs>
      <path d="
M19.6719 64.7969
L19.6719 37.4062
L32.0781 37.4062
Q38.9688 37.4062 42.7188 40.9688
Q46.4844 44.5312 46.4844 51.125
Q46.4844 57.6719 42.7188 61.2344
Q38.9688 64.7969 32.0781 64.7969
z

M9.8125 72.9062
L32.0781 72.9062
Q44.3438 72.9062 50.6094 67.3594
Q56.8906 61.8125 56.8906 51.125
Q56.8906 40.3281 50.6094 34.8125
Q44.3438 29.2969 32.0781 29.2969
L19.6719 29.2969
L19.6719 0
L9.8125 0
z
" id="BitstreamVeraSans-Roman-50"/>
      <path d="
M56.2031 29.5938
L56.2031 25.2031
L14.8906 25.2031
Q15.4844 15.9219 20.4844 11.0625
Q25.4844 6.20312 34.4219 6.20312
Q39.5938 6.20312 44.4531 7.46875
Q49.3125 8.73438 54.1094 11.2812
L54.1094 2.78125
Q49.2656 0.734375 44.1875 -0.34375
Q39.1094 -1.42188 33.8906 -1.42188
Q20.7969 -1.42188 13.1562 6.1875
Q5.51562 13.8125 5.51562 26.8125
Q5.51562 40.2344 12.7656 48.1094
Q20.0156 56 32.3281 56
Q43.3594 56 49.7812 48.8906
Q56.2031 41.7969 56.2031 29.5938
M47.2188 32.2344
Q47.125 39.5938 43.0938 43.9844
Q39.0625 48.3906 32.4219 48.3906
Q24.9062 48.3906 20.3906 44.1406
Q15.875 39.8906 15.1875 32.1719
z
" id="BitstreamVeraSans-Roman-65"/>
      <path d="
M18.3125 70.2188
L18.3125 54.6875
L36.8125 54.6875
L36.8125 47.7031
L18.3125 47.7031
L18.3125 18.0156
Q18.3125 11.3281 20.1406 9.42188
Q21.9688 7.51562 27.5938 7.51562
L36.8125 7.51562
L36.8125 0
L27.5938 0
Q17.1875 0 13.2344 3.875
Q9.28125 7.76562 9.28125 18.0156
L9.28125 47.7031
L2.6875 47.7031
L2.6875 54.6875
L9.28125 54.6875
L9.28125 70.2188
z
" id="BitstreamVeraSans-Roman-74"/>
      <path d="
M54.8906 33.0156
L54.8906 0
L45.9062 0
L45.9062 32.7188
Q45.9062 40.4844 42.875 44.3281
Q39.8438 48.1875 33.7969 48.1875
Q26.5156 48.1875 22.3125 43.5469
Q18.1094 38.9219 18.1094 30.9062
L18.1094 0
L9.07812 0
L9.07812 54.6875
L18.1094 54.6875
L18.1094 46.1875
Q21.3438 51.125 25.7031 53.5625
Q30.0781 56 35.7969 56
Q45.2188 56 50.0469 50.1719
Q54.8906 44.3438 54.8906 33.0156" id="BitstreamVeraSans-Roman-6e"/>
      <path d="
M41.1094 46.2969
Q39.5938 47.1719 37.8125 47.5781
Q36.0312 48 33.8906 48
Q26.2656 48 22.1875 43.0469
Q18.1094 38.0938 18.1094 28.8125
L18.1094 0
L9.07812 0
L9.07812 54.6875
L18.1094 54.6875
L18.1094 46.1875
Q20.9531 51.1719 25.4844 53.5781
Q30.0312 56 36.5312 56
Q37.4531 56 38.5781 55.875
Q39.7031 55.7656 41.0625 55.5156
z
" id="BitstreamVeraSans-Roman-72"/>
     </defs>
     <g transform="translate(46.618125 255.0984375)rotate(-90.0)scale(0.12 -0.12)">
      <use xlink:href="#BitstreamVeraSans-Roman-50"/>
      <use x="56.677734375" xlink:href="#BitstreamVeraSans-Roman-65"/>
      <use x="118.201171875" xlink:href="#BitstreamVeraSans-Roman-72"/>
      <use x="157.064453125" xlink:href="#BitstreamVeraSans-Roman-63"/>
      <use x="212.044921875" xlink:href="#BitstreamVeraSans-Roman-65"/>
      <use x="273.568359375" xlink:href="#BitstreamVeraSans-Roman-6e"/>
      <use x="336.947265625" xlink:href="#BitstreamVeraSans-Roman-74"/>
      <use x="376.15625" xlink:href="#BitstreamVeraSans-Roman-20"/>
      <use x="407.943359375" xlink:href="#BitstreamVeraSans-Roman-45"/>
      <use x="471.126953125" xlink:href="#BitstreamVeraSans-Roman-72"/>
      <use x="510.490234375" xlink:href="#BitstreamVeraSans-Roman-72"/>
      <use x="549.353515625" xlink:href="#BitstreamVeraSans-Roman-6f"/>
      <use x="610.53515625" xlink:href="#BitstreamVeraSans-Roman-72"/>
     </g>
    </g>
   </g>
   <g id="legend_1">
    <g id="patch_7">
     <path d="
M362.837 96.993
L511.2 96.993
L511.2 50.4
L362.837 50.4
z
" style="fill:#ffffff;stroke:#000000;stroke-linejoin:miter;"/>
    </g>
    <g id="line2d_37">
     <path d="
M372.917 62.0617
L393.077 62.0617" style="fill:none;stroke:#0000ff;stroke-linecap:square;"/>
    </g>
    <g id="line2d_38"/>
    <g id="text_20">
     <!-- Training Error -->
     <defs>
      <path d="
M34.2812 27.4844
Q23.3906 27.4844 19.1875 25
Q14.9844 22.5156 14.9844 16.5
Q14.9844 11.7188 18.1406 8.90625
Q21.2969 6.10938 26.7031 6.10938
Q34.1875 6.10938 38.7031 11.4062
Q43.2188 16.7031 43.2188 25.4844
L43.2188 27.4844
z

M52.2031 31.2031
L52.2031 0
L43.2188 0
L43.2188 8.29688
Q40.1406 3.32812 35.5469 0.953125
Q30.9531 -1.42188 24.3125 -1.42188
Q15.9219 -1.42188 10.9531 3.29688
Q6 8.01562 6 15.9219
Q6 25.1406 12.1719 29.8281
Q18.3594 34.5156 30.6094 34.5156
L43.2188 34.5156
L43.2188 35.4062
Q43.2188 41.6094 39.1406 45
Q35.0625 48.3906 27.6875 48.3906
Q23 48.3906 18.5469 47.2656
Q14.1094 46.1406 10.0156 43.8906
L10.0156 52.2031
Q14.9375 54.1094 19.5781 55.0469
Q24.2188 56 28.6094 56
Q40.4844 56 46.3438 49.8438
Q52.2031 43.7031 52.2031 31.2031" id="BitstreamVeraSans-Roman-61"/>
      <path d="
M9.42188 54.6875
L18.4062 54.6875
L18.4062 0
L9.42188 0
z

M9.42188 75.9844
L18.4062 75.9844
L18.4062 64.5938
L9.42188 64.5938
z
" id="BitstreamVeraSans-Roman-69"/>
      <path d="
M-0.296875 72.9062
L61.375 72.9062
L61.375 64.5938
L35.5 64.5938
L35.5 0
L25.5938 0
L25.5938 64.5938
L-0.296875 64.5938
z
" id="BitstreamVeraSans-Roman-54"/>
      <path d="
M45.4062 27.9844
Q45.4062 37.75 41.375 43.1094
Q37.3594 48.4844 30.0781 48.4844
Q22.8594 48.4844 18.8281 43.1094
Q14.7969 37.75 14.7969 27.9844
Q14.7969 18.2656 18.8281 12.8906
Q22.8594 7.51562 30.0781 7.51562
Q37.3594 7.51562 41.375 12.8906
Q45.4062 18.2656 45.4062 27.9844
M54.3906 6.78125
Q54.3906 -7.17188 48.1875 -13.9844
Q42 -20.7969 29.2031 -20.7969
Q24.4688 -20.7969 20.2656 -20.0938
Q16.0625 -19.3906 12.1094 -17.9219
L12.1094 -9.1875
Q16.0625 -11.3281 19.9219 -12.3438
Q23.7812 -13.375 27.7812 -13.375
Q36.625 -13.375 41.0156 -8.76562
Q45.4062 -4.15625 45.4062 5.17188
L45.4062 9.625
Q42.625 4.78125 38.2812 2.39062
Q33.9375 0 27.875 0
Q17.8281 0 11.6719 7.65625
Q5.51562 15.3281 5.51562 27.9844
Q5.51562 40.6719 11.6719 48.3281
Q17.8281 56 27.875 56
Q33.9375 56 38.2812 53.6094
Q42.625 51.2188 45.4062 46.3906
L45.4062 54.6875
L54.3906 54.6875
z
" id="BitstreamVeraSans-Roman-67"/>
     </defs>
     <g transform="translate(408.91725 67.10175)scale(0.144 -0.144)">
      <use xlink:href="#BitstreamVeraSans-Roman-54"/>
      <use x="46.333984375" xlink:href="#BitstreamVeraSans-Roman-72"/>
      <use x="87.447265625" xlink:href="#BitstreamVeraSans-Roman-61"/>
      <use x="148.7265625" xlink:href="#BitstreamVeraSans-Roman-69"/>
      <use x="176.509765625" xlink:href="#BitstreamVeraSans-Roman-6e"/>
      <use x="239.888671875" xlink:href="#BitstreamVeraSans-Roman-69"/>
      <use x="267.671875" xlink:href="#BitstreamVeraSans-Roman-6e"/>
      <use x="331.05078125" xlink:href="#BitstreamVeraSans-Roman-67"/>
      <use x="394.52734375" xlink:href="#BitstreamVeraSans-Roman-20"/>
      <use x="426.314453125" xlink:href="#BitstreamVeraSans-Roman-45"/>
      <use x="489.498046875" xlink:href="#BitstreamVeraSans-Roman-72"/>
      <use x="528.861328125" xlink:href="#BitstreamVeraSans-Roman-72"/>
      <use x="567.724609375" xlink:href="#BitstreamVeraSans-Roman-6f"/>
      <use x="628.90625" xlink:href="#BitstreamVeraSans-Roman-72"/>
     </g>
    </g>
    <g id="line2d_39">
     <path d="
M372.917 83.1982
L393.077 83.1982" style="fill:none;stroke:#ff0000;stroke-linecap:square;"/>
    </g>
    <g id="line2d_40"/>
    <g id="text_21">
     <!-- Test set Error -->
     <g transform="translate(408.91725 88.23825)scale(0.144 -0.144)">
      <use xlink:href="#BitstreamVeraSans-Roman-54"/>
      <use x="44.083984375" xlink:href="#BitstreamVeraSans-Roman-65"/>
      <use x="105.607421875" xlink:href="#BitstreamVeraSans-Roman-73"/>
      <use x="157.70703125" xlink:href="#BitstreamVeraSans-Roman-74"/>
      <use x="196.916015625" xlink:href="#BitstreamVeraSans-Roman-20"/>
      <use x="228.703125" xlink:href="#BitstreamVeraSans-Roman-73"/>
      <use x="280.802734375" xlink:href="#BitstreamVeraSans-Roman-65"/>
      <use x="342.326171875" xlink:href="#BitstreamVeraSans-Roman-74"/>
      <use x="381.53515625" xlink:href="#BitstreamVeraSans-Roman-20"/>
      <use x="413.322265625" xlink:href="#BitstreamVeraSans-Roman-45"/>
      <use x="476.505859375" xlink:href="#BitstreamVeraSans-Roman-72"/>
      <use x="515.869140625" xlink:href="#BitstreamVeraSans-Roman-72"/>
      <use x="554.732421875" xlink:href="#BitstreamVeraSans-Roman-6f"/>
      <use x="615.9140625" xlink:href="#BitstreamVeraSans-Roman-72"/>
     </g>
    </g>
   </g>
  </g>
 </g>
 <defs>
  <clipPath id="p7ff5b81e1d">
   <rect height="345.6" width="446.4" x="72.0" y="43.2"/>
  </clipPath>
 </defs>
</svg>
