<?xml version="1.0" encoding="utf-8" standalone="no"?>
<!DOCTYPE svg PUBLIC "-//W3C//DTD SVG 1.1//EN"
  "http://www.w3.org/Graphics/SVG/1.1/DTD/svg11.dtd">
<!-- Created with matplotlib (http://matplotlib.org/) -->
<svg height="432pt" version="1.1" viewBox="0 0 576 432" width="576pt" xmlns="http://www.w3.org/2000/svg" xmlns:xlink="http://www.w3.org/1999/xlink">
 <defs>
  <style type="text/css">
*{stroke-linecap:butt;stroke-linejoin:round;}
  </style>
 </defs>
 <g id="figure_1">
  <g id="patch_1">
   <path d="
M0 432
L576 432
L576 0
L0 0
z
" style="fill:#ffffff;"/>
  </g>
  <g id="axes_1">
   <g id="patch_2">
    <path d="
M72 388.8
L518.4 388.8
L518.4 43.2
L72 43.2
z
" style="fill:#ffffff;"/>
   </g>
   <g id="PolyCollection_1">
    <defs>
     <path d="
M72 -53.7399
L72 -48.27
L125.215 -72.4453
L178.43 -91.7129
L231.645 -151.147
L284.86 -126.745
L338.075 -72.1055
L391.29 -59.613
L444.505 -55.1106
L497.72 -50.0092
L550.935 -47.6481
L604.15 -47.3357
L657.365 -45.6032
L710.58 -44.7383
L763.795 -44.3841
L817.01 -44.096
L870.225 -43.9117
L923.44 -43.7896
L976.655 -43.7342
L1029.87 -43.6405
L1083.09 -43.5821
L1136.3 -43.5411
L1189.52 -43.5101
L1242.73 -43.4575
L1295.95 -43.423
L1349.16 -43.4023
L1402.38 -43.3837
L1455.59 -43.3804
L1508.81 -43.3759
L1562.02 -43.3482
L1615.24 -43.3988
L1615.24 -43.5879
L1615.24 -43.5879
L1562.02 -43.4848
L1508.81 -43.4918
L1455.59 -43.5396
L1402.38 -43.5785
L1349.16 -43.6062
L1295.95 -43.6312
L1242.73 -43.6657
L1189.52 -43.6999
L1136.3 -43.7691
L1083.09 -43.8355
L1029.87 -43.9629
L976.655 -44.0659
L923.44 -44.2064
L870.225 -44.46
L817.01 -44.6993
L763.795 -45.0424
L710.58 -45.5107
L657.365 -47.0719
L604.15 -50.0744
L550.935 -49.9739
L497.72 -54.296
L444.505 -63.7863
L391.29 -71.1728
L338.075 -84.3917
L284.86 -150.755
L231.645 -181.867
L178.43 -117.58
L125.215 -94.8079
L72 -53.7399
z
" id="m3407389816" style="stroke:#000000;stroke-opacity:0.5;stroke-width:0.1;"/>
    </defs>
    <g clip-path="url(#p7ff5b81e1d)">
     <use style="fill:#ff0000;fill-opacity:0.5;stroke:#000000;stroke-opacity:0.5;stroke-width:0.1;" x="0.0" xlink:href="#m3407389816" y="432.0"/>
    </g>
   </g>
   <g id="PolyCollection_2">
    <defs>
     <path d="
M72 -53.638
L72 -48.7991
L125.215 -76.8363
L178.43 -90.7493
L231.645 -151.415
L284.86 -127.659
L338.075 -69.9068
L391.29 -58.5499
L444.505 -54.5134
L497.72 -49.8981
L550.935 -47.7478
L604.15 -48.2806
L657.365 -45.9791
L710.58 -44.7447
L763.795 -44.3402
L817.01 -44.1717
L870.225 -43.9986
L923.44 -43.8689
L976.655 -43.7577
L1029.87 -43.676
L1083.09 -43.616
L1136.3 -43.5742
L1189.52 -43.5282
L1242.73 -43.4986
L1295.95 -43.4744
L1349.16 -43.4387
L1402.38 -43.4255
L1455.59 -43.4168
L1508.81 -43.397
L1562.02 -43.3771
L1615.24 -43.4591
L1615.24 -43.5996
L1615.24 -43.5996
L1562.02 -43.5157
L1508.81 -43.5396
L1455.59 -43.5308
L1402.38 -43.5599
L1349.16 -43.5954
L1295.95 -43.6529
L1242.73 -43.6972
L1189.52 -43.7318
L1136.3 -43.8245
L1083.09 -43.9049
L1029.87 -44.0141
L976.655 -44.1225
L923.44 -44.2764
L870.225 -44.4523
L817.01 -44.7647
L763.795 -45.2522
L710.58 -45.8341
L657.365 -47.4694
L604.15 -50.9636
L550.935 -50.1469
L497.72 -54.6255
L444.505 -63.7348
L391.29 -69.4152
L338.075 -82.5113
L284.86 -151.156
L231.645 -180.175
L178.43 -116.764
L125.215 -95.4206
L72 -53.638
z
" id="ma4628889e8" style="stroke:#000000;stroke-opacity:0.5;stroke-width:0.1;"/>
    </defs>
    <g clip-path="url(#p7ff5b81e1d)">
     <use style="fill:#0000ff;fill-opacity:0.5;stroke:#000000;stroke-opacity:0.5;stroke-width:0.1;" x="0.0" xlink:href="#ma4628889e8" y="432.0"/>
    </g>
   </g>
   <g id="PolyCollection_3">
    <defs>
     <path d="
M72 -71.5176
L72 -59.0085
L125.215 -146.541
L178.43 -93.7992
L231.645 -100.015
L284.86 -92.3065
L338.075 -65.4188
L391.29 -54.0281
L444.505 -49.8817
L497.72 -47.9551
L550.935 -47.0074
L604.15 -47.0193
L657.365 -46.0986
L710.58 -45.2426
L763.795 -44.8166
L817.01 -44.6171
L870.225 -44.4162
L923.44 -44.217
L976.655 -44.0258
L1029.87 -43.8954
L1083.09 -43.86
L1136.3 -43.7672
L1189.52 -43.7336
L1242.73 -43.6827
L1295.95 -43.6141
L1349.16 -43.5434
L1402.38 -43.5254
L1455.59 -43.4989
L1508.81 -43.4708
L1562.02 -43.4704
L1615.24 -43.5201
L1615.24 -43.701
L1615.24 -43.701
L1562.02 -43.669
L1508.81 -43.6949
L1455.59 -43.7405
L1402.38 -43.7889
L1349.16 -43.8774
L1295.95 -43.9394
L1242.73 -43.9931
L1189.52 -44.0862
L1136.3 -44.14
L1083.09 -44.2631
L1029.87 -44.3877
L976.655 -44.624
L923.44 -44.7998
L870.225 -45.1521
L817.01 -45.581
L763.795 -45.9333
L710.58 -46.6095
L657.365 -47.8128
L604.15 -49.9023
L550.935 -49.4974
L497.72 -50.9093
L444.505 -54.3139
L391.29 -61.1134
L338.075 -79.1387
L284.86 -121.322
L231.645 -129.948
L178.43 -113.504
L125.215 -202.232
L72 -71.5176
z
" id="m9c8b0754ed" style="stroke:#000000;stroke-opacity:0.5;stroke-width:0.1;"/>
    </defs>
    <g clip-path="url(#p7ff5b81e1d)">
     <use style="fill:#ff0000;fill-opacity:0.5;stroke:#000000;stroke-opacity:0.5;stroke-width:0.1;" x="0.0" xlink:href="#m9c8b0754ed" y="432.0"/>
    </g>
   </g>
   <g id="PolyCollection_4">
    <defs>
     <path d="
M72 -68.5479
L72 -59.1254
L125.215 -158.764
L178.43 -96.7194
L231.645 -101.348
L284.86 -89.6418
L338.075 -65.0098
L391.29 -55.5454
L444.505 -50.7094
L497.72 -48.5031
L550.935 -47.5077
L604.15 -48.0515
L657.365 -46.3886
L710.58 -45.3984
L763.795 -44.9829
L817.01 -44.7724
L870.225 -44.4854
L923.44 -44.3279
L976.655 -44.139
L1029.87 -44.0006
L1083.09 -43.9499
L1136.3 -43.8615
L1189.52 -43.7489
L1242.73 -43.6838
L1295.95 -43.6597
L1349.16 -43.6272
L1402.38 -43.5968
L1455.59 -43.5775
L1508.81 -43.5199
L1562.02 -43.5087
L1615.24 -43.5645
L1615.24 -43.7655
L1615.24 -43.7655
L1562.02 -43.7101
L1508.81 -43.7626
L1455.59 -43.7982
L1402.38 -43.8228
L1349.16 -43.8327
L1295.95 -43.9101
L1242.73 -43.9783
L1189.52 -44.0774
L1136.3 -44.2201
L1083.09 -44.3786
L1029.87 -44.5813
L976.655 -44.6904
L923.44 -44.9605
L870.225 -45.2371
L817.01 -45.6079
L763.795 -46.1958
L710.58 -46.929
L657.365 -48.3512
L604.15 -50.617
L550.935 -50.426
L497.72 -51.8509
L444.505 -54.993
L391.29 -61.7838
L338.075 -77.2299
L284.86 -109.829
L231.645 -125.086
L178.43 -116.666
L125.215 -195.993
L72 -68.5479
z
" id="mde6115ec18" style="stroke:#000000;stroke-opacity:0.5;stroke-width:0.1;"/>
    </defs>
    <g clip-path="url(#p7ff5b81e1d)">
     <use style="fill:#0000ff;fill-opacity:0.5;stroke:#000000;stroke-opacity:0.5;stroke-width:0.1;" x="0.0" xlink:href="#mde6115ec18" y="432.0"/>
    </g>
   </g>
   <g id="PolyCollection_5">
    <defs>
     <path d="
M72 -60.9484
L72 -52.656
L125.215 -105.358
L178.43 -89.8442
L231.645 -106.208
L284.86 -90.8274
L338.075 -69.3946
L391.29 -63.498
L444.505 -57.4359
L497.72 -53.1001
L550.935 -51.1808
L604.15 -51.699
L657.365 -50.2061
L710.58 -49.3909
L763.795 -49.0643
L817.01 -48.6088
L870.225 -48.0108
L923.44 -48.0326
L976.655 -47.3577
L1029.87 -46.7912
L1083.09 -46.5971
L1136.3 -46.6933
L1189.52 -46.32
L1242.73 -46.093
L1295.95 -46.0267
L1349.16 -45.8156
L1402.38 -45.5324
L1455.59 -45.3783
L1508.81 -45.2711
L1562.02 -45.0315
L1615.24 -44.9464
L1615.24 -46.4679
L1615.24 -46.4679
L1562.02 -46.678
L1508.81 -46.7263
L1455.59 -46.9809
L1402.38 -47.1263
L1349.16 -47.4406
L1295.95 -47.7045
L1242.73 -47.9629
L1189.52 -48.5786
L1136.3 -48.9833
L1083.09 -49.1917
L1029.87 -49.0909
L976.655 -49.4074
L923.44 -50.7328
L870.225 -51.4722
L817.01 -51.9752
L763.795 -52.0776
L710.58 -52.9525
L657.365 -54.1291
L604.15 -56.5277
L550.935 -56.5969
L497.72 -58.9169
L444.505 -64.8407
L391.29 -72.5808
L338.075 -83.3092
L284.86 -110.179
L231.645 -127.779
L178.43 -108.052
L125.215 -130.032
L72 -60.9484
z
" id="mba1d8f26e8" style="stroke:#000000;stroke-opacity:0.5;stroke-width:0.1;"/>
    </defs>
    <g clip-path="url(#p7ff5b81e1d)">
     <use style="fill:#ff0000;fill-opacity:0.5;stroke:#000000;stroke-opacity:0.5;stroke-width:0.1;" x="0.0" xlink:href="#mba1d8f26e8" y="432.0"/>
    </g>
   </g>
   <g id="PolyCollection_6">
    <defs>
     <path d="
M72 -59.8565
L72 -53.5371
L125.215 -101.7
L178.43 -88.8506
L231.645 -106.436
L284.86 -91.8281
L338.075 -68.0364
L391.29 -62.5028
L444.505 -57.2713
L497.72 -53.5292
L550.935 -52.1596
L604.15 -52.3834
L657.365 -50.9031
L710.58 -49.5874
L763.795 -49.4046
L817.01 -48.9792
L870.225 -48.3812
L923.44 -48.1202
L976.655 -47.7436
L1029.87 -47.1171
L1083.09 -46.9507
L1136.3 -46.6679
L1189.52 -46.342
L1242.73 -45.874
L1295.95 -45.9859
L1349.16 -45.5696
L1402.38 -45.4157
L1455.59 -45.326
L1508.81 -45.1642
L1562.02 -45.0718
L1615.24 -45.0797
L1615.24 -45.995
L1615.24 -45.995
L1562.02 -46.2097
L1508.81 -46.468
L1455.59 -46.8305
L1402.38 -47.1606
L1349.16 -47.2246
L1295.95 -47.481
L1242.73 -47.6602
L1189.52 -47.9679
L1136.3 -48.4489
L1083.09 -49.1481
L1029.87 -49.5413
L976.655 -50.1725
L923.44 -50.318
L870.225 -51.1808
L817.01 -52.1406
L763.795 -52.3337
L710.58 -53.1924
L657.365 -55.0933
L604.15 -57.6666
L550.935 -56.3021
L497.72 -59.3345
L444.505 -64.9266
L391.29 -71.6645
L338.075 -80.1815
L284.86 -108.118
L231.645 -132.725
L178.43 -109.71
L125.215 -128.687
L72 -59.8565
z
" id="mdb65cea51b" style="stroke:#000000;stroke-opacity:0.5;stroke-width:0.1;"/>
    </defs>
    <g clip-path="url(#p7ff5b81e1d)">
     <use style="fill:#0000ff;fill-opacity:0.5;stroke:#000000;stroke-opacity:0.5;stroke-width:0.1;" x="0.0" xlink:href="#mdb65cea51b" y="432.0"/>
    </g>
   </g>
   <g id="PolyCollection_7">
    <defs>
     <path d="
M72 -64.2245
L72 -53.5329
L125.215 -113.737
L178.43 -94.5368
L231.645 -117.07
L284.86 -105.31
L338.075 -68.5526
L391.29 -54.6231
L444.505 -50.6838
L497.72 -48.8483
L550.935 -47.9935
L604.15 -48.2338
L657.365 -46.8682
L710.58 -45.8224
L763.795 -45.3217
L817.01 -44.9865
L870.225 -44.813
L923.44 -44.6695
L976.655 -44.4315
L1029.87 -44.2359
L1083.09 -44.1155
L1136.3 -44.0571
L1189.52 -43.9695
L1242.73 -43.9256
L1295.95 -43.8945
L1349.16 -43.8272
L1402.38 -43.7529
L1455.59 -43.7241
L1508.81 -43.6865
L1562.02 -43.6338
L1615.24 -43.6976
L1615.24 -44.0347
L1615.24 -44.0347
L1562.02 -43.9296
L1508.81 -43.9766
L1455.59 -44.0824
L1402.38 -44.1526
L1349.16 -44.1868
L1295.95 -44.3811
L1242.73 -44.4825
L1189.52 -44.5605
L1136.3 -44.6077
L1083.09 -44.6986
L1029.87 -44.8244
L976.655 -45.1814
L923.44 -45.4665
L870.225 -45.7456
L817.01 -46.3535
L763.795 -47.0586
L710.58 -47.6936
L657.365 -48.9022
L604.15 -51.8142
L550.935 -50.5328
L497.72 -52.1802
L444.505 -55.349
L391.29 -61.6459
L338.075 -82.4837
L284.86 -132.818
L231.645 -151.099
L178.43 -117.909
L125.215 -154.315
L72 -64.2245
z
" id="m7291d4c32f" style="stroke:#000000;stroke-opacity:0.5;stroke-width:0.1;"/>
    </defs>
    <g clip-path="url(#p7ff5b81e1d)">
     <use style="fill:#ff0000;fill-opacity:0.5;stroke:#000000;stroke-opacity:0.5;stroke-width:0.1;" x="0.0" xlink:href="#m7291d4c32f" y="432.0"/>
    </g>
   </g>
   <g id="PolyCollection_8">
    <defs>
     <path d="
M72 -62.976
L72 -54.9441
L125.215 -123.666
L178.43 -97.8658
L231.645 -118.723
L284.86 -98.504
L338.075 -66.2994
L391.29 -54.9354
L444.505 -51.2322
L497.72 -48.9234
L550.935 -48.0792
L604.15 -49.4126
L657.365 -47.3492
L710.58 -46.0176
L763.795 -45.685
L817.01 -45.2379
L870.225 -44.8884
L923.44 -44.668
L976.655 -44.5487
L1029.87 -44.4469
L1083.09 -44.2973
L1136.3 -44.1527
L1189.52 -44.1009
L1242.73 -44.0149
L1295.95 -43.9423
L1349.16 -43.8798
L1402.38 -43.8445
L1455.59 -43.7948
L1508.81 -43.7268
L1562.02 -43.6823
L1615.24 -43.7544
L1615.24 -44.0687
L1615.24 -44.0687
L1562.02 -43.9675
L1508.81 -44.0552
L1455.59 -44.1309
L1402.38 -44.1579
L1349.16 -44.1889
L1295.95 -44.2581
L1242.73 -44.3976
L1189.52 -44.6058
L1136.3 -44.7953
L1083.09 -44.8808
L1029.87 -45.1261
L976.655 -45.2991
L923.44 -45.5249
L870.225 -45.8661
L817.01 -46.4707
L763.795 -47.1778
L710.58 -47.6753
L657.365 -49.502
L604.15 -53.0492
L550.935 -51.4509
L497.72 -52.7913
L444.505 -55.9145
L391.29 -62.968
L338.075 -79.4221
L284.86 -121.633
L231.645 -143.014
L178.43 -121.743
L125.215 -157.467
L72 -62.976
z
" id="m3f8410f2eb" style="stroke:#000000;stroke-opacity:0.5;stroke-width:0.1;"/>
    </defs>
    <g clip-path="url(#p7ff5b81e1d)">
     <use style="fill:#0000ff;fill-opacity:0.5;stroke:#000000;stroke-opacity:0.5;stroke-width:0.1;" x="0.0" xlink:href="#m3f8410f2eb" y="432.0"/>
    </g>
   </g>
   <g id="PolyCollection_9">
    <defs>
     <path d="
M72 -62.6729
L72 -52.9531
L125.215 -113.977
L178.43 -92.0736
L231.645 -129.742
L284.86 -113.994
L338.075 -65.8799
L391.29 -52.4727
L444.505 -49.1028
L497.72 -47.4577
L550.935 -46.8131
L604.15 -47.1318
L657.365 -45.8081
L710.58 -44.8593
L763.795 -44.7557
L817.01 -44.5209
L870.225 -44.3318
L923.44 -44.142
L976.655 -44.0451
L1029.87 -43.9398
L1083.09 -43.8569
L1136.3 -43.7808
L1189.52 -43.764
L1242.73 -43.7257
L1295.95 -43.6488
L1349.16 -43.6206
L1402.38 -43.5788
L1455.59 -43.5548
L1508.81 -43.5354
L1562.02 -43.5383
L1615.24 -43.5521
L1615.24 -43.8471
L1615.24 -43.8471
L1562.02 -43.7457
L1508.81 -43.7691
L1455.59 -43.8191
L1402.38 -43.874
L1349.16 -43.9126
L1295.95 -43.9677
L1242.73 -44.0175
L1189.52 -44.1086
L1136.3 -44.1749
L1083.09 -44.2738
L1029.87 -44.432
L976.655 -44.5842
L923.44 -44.7002
L870.225 -44.9067
L817.01 -45.3122
L763.795 -45.601
L710.58 -46.1682
L657.365 -47.1175
L604.15 -49.9022
L550.935 -48.8788
L497.72 -49.895
L444.505 -52.3158
L391.29 -57.325
L338.075 -79.6682
L284.86 -140.806
L231.645 -167.01
L178.43 -114.34
L125.215 -155.05
L72 -62.6729
z
" id="m205bbe61d5" style="stroke:#000000;stroke-opacity:0.5;stroke-width:0.1;"/>
    </defs>
    <g clip-path="url(#p7ff5b81e1d)">
     <use style="fill:#ff0000;fill-opacity:0.5;stroke:#000000;stroke-opacity:0.5;stroke-width:0.1;" x="0.0" xlink:href="#m205bbe61d5" y="432.0"/>
    </g>
   </g>
   <g id="PolyCollection_10">
    <defs>
     <path d="
M72 -63.6688
L72 -54.0867
L125.215 -121.373
L178.43 -92.9651
L231.645 -130.725
L284.86 -107.833
L338.075 -64.0142
L391.29 -52.3141
L444.505 -49.0753
L497.72 -47.4547
L550.935 -47.0404
L604.15 -47.7113
L657.365 -45.7342
L710.58 -44.9798
L763.795 -44.6788
L817.01 -44.4322
L870.225 -44.3104
L923.44 -44.1957
L976.655 -44.0471
L1029.87 -43.9565
L1083.09 -43.842
L1136.3 -43.8195
L1189.52 -43.7431
L1242.73 -43.7135
L1295.95 -43.6784
L1349.16 -43.6334
L1402.38 -43.6026
L1455.59 -43.5901
L1508.81 -43.5334
L1562.02 -43.5169
L1615.24 -43.6143
L1615.24 -43.8515
L1615.24 -43.8515
L1562.02 -43.7475
L1508.81 -43.7658
L1455.59 -43.8107
L1402.38 -43.8514
L1349.16 -43.9017
L1295.95 -43.9878
L1242.73 -44.0276
L1189.52 -44.1719
L1136.3 -44.2052
L1083.09 -44.2661
L1029.87 -44.4382
L976.655 -44.5773
L923.44 -44.6624
L870.225 -44.9037
L817.01 -45.1486
L763.795 -45.6475
L710.58 -46.0188
L657.365 -47.6699
L604.15 -50.4085
L550.935 -48.9717
L497.72 -49.8583
L444.505 -52.2313
L391.29 -57.0767
L338.075 -75.6647
L284.86 -133.894
L231.645 -160.792
L178.43 -116.076
L125.215 -166.071
L72 -63.6688
z
" id="me424b28280" style="stroke:#000000;stroke-opacity:0.5;stroke-width:0.1;"/>
    </defs>
    <g clip-path="url(#p7ff5b81e1d)">
     <use style="fill:#0000ff;fill-opacity:0.5;stroke:#000000;stroke-opacity:0.5;stroke-width:0.1;" x="0.0" xlink:href="#me424b28280" y="432.0"/>
    </g>
   </g>
   <g id="PolyCollection_11">
    <defs>
     <path d="
M72 -61.2956
L72 -53.2394
L125.215 -111.501
L178.43 -91.8575
L231.645 -111.446
L284.86 -96.9037
L338.075 -70.2739
L391.29 -60.6881
L444.505 -54.9907
L497.72 -51.3209
L550.935 -49.9158
L604.15 -50.4788
L657.365 -48.6196
L710.58 -47.3084
L763.795 -46.8121
L817.01 -46.3072
L870.225 -45.847
L923.44 -45.5483
L976.655 -45.2191
L1029.87 -45.021
L1083.09 -44.7644
L1136.3 -44.5361
L1189.52 -44.4406
L1242.73 -44.4119
L1295.95 -44.2505
L1349.16 -44.1803
L1402.38 -44.0971
L1455.59 -44.0294
L1508.81 -43.944
L1562.02 -43.8931
L1615.24 -43.9176
L1615.24 -44.3853
L1615.24 -44.3853
L1562.02 -44.3572
L1508.81 -44.3402
L1455.59 -44.5292
L1402.38 -44.6302
L1349.16 -44.7517
L1295.95 -44.8853
L1242.73 -44.8866
L1189.52 -45.202
L1136.3 -45.4767
L1083.09 -45.6368
L1029.87 -45.9844
L976.655 -46.501
L923.44 -46.914
L870.225 -47.5101
L817.01 -48.3071
L763.795 -49.1198
L710.58 -49.8485
L657.365 -51.2486
L604.15 -53.8944
L550.935 -53.4906
L497.72 -56.113
L444.505 -61.4697
L391.29 -68.5745
L338.075 -81.6149
L284.86 -119.797
L231.645 -140.218
L178.43 -118.119
L125.215 -139.548
L72 -61.2956
z
" id="m1f45443c68" style="stroke:#000000;stroke-opacity:0.5;stroke-width:0.1;"/>
    </defs>
    <g clip-path="url(#p7ff5b81e1d)">
     <use style="fill:#ff0000;fill-opacity:0.5;stroke:#000000;stroke-opacity:0.5;stroke-width:0.1;" x="0.0" xlink:href="#m1f45443c68" y="432.0"/>
    </g>
   </g>
   <g id="PolyCollection_12">
    <defs>
     <path d="
M72 -60.6544
L72 -53.938
L125.215 -111.138
L178.43 -92.7276
L231.645 -115.693
L284.86 -97.679
L338.075 -66.5456
L391.29 -59.1202
L444.505 -54.7235
L497.72 -51.8531
L550.935 -50.3447
L604.15 -50.8571
L657.365 -48.8683
L710.58 -47.5656
L763.795 -47.0738
L817.01 -46.8045
L870.225 -46.2473
L923.44 -45.8605
L976.655 -45.4593
L1029.87 -45.0514
L1083.09 -44.7467
L1136.3 -44.6477
L1189.52 -44.5744
L1242.73 -44.4341
L1295.95 -44.3619
L1349.16 -44.2526
L1402.38 -44.0957
L1455.59 -44.0197
L1508.81 -44.0024
L1562.02 -43.9215
L1615.24 -44.0371
L1615.24 -44.4765
L1615.24 -44.4765
L1562.02 -44.408
L1508.81 -44.4792
L1455.59 -44.6437
L1402.38 -44.7368
L1349.16 -44.8288
L1295.95 -44.9976
L1242.73 -45.146
L1189.52 -45.3924
L1136.3 -45.7874
L1083.09 -46.0228
L1029.87 -46.3345
L976.655 -46.6825
L923.44 -47.1258
L870.225 -47.7793
L817.01 -48.4936
L763.795 -49.0466
L710.58 -50.1826
L657.365 -52.1105
L604.15 -55.7001
L550.935 -54.0775
L497.72 -56.108
L444.505 -61.356
L391.29 -68.3739
L338.075 -79.6399
L284.86 -115.222
L231.645 -144.396
L178.43 -116.167
L125.215 -136.456
L72 -60.6544
z
" id="md5d6f93ad0" style="stroke:#000000;stroke-opacity:0.5;stroke-width:0.1;"/>
    </defs>
    <g clip-path="url(#p7ff5b81e1d)">
     <use style="fill:#0000ff;fill-opacity:0.5;stroke:#000000;stroke-opacity:0.5;stroke-width:0.1;" x="0.0" xlink:href="#md5d6f93ad0" y="432.0"/>
    </g>
   </g>
   <g id="PolyCollection_13">
    <defs>
     <path d="
M72 -64.4305
L72 -53.653
L125.215 -111.124
L178.43 -99.6535
L231.645 -118.013
L284.86 -102.321
L338.075 -67.697
L391.29 -55.1363
L444.505 -51.3525
L497.72 -49.7837
L550.935 -48.643
L604.15 -49.0892
L657.365 -47.4648
L710.58 -46.2833
L763.795 -46.0015
L817.01 -45.5807
L870.225 -45.3299
L923.44 -45.1484
L976.655 -44.9456
L1029.87 -44.6958
L1083.09 -44.5868
L1136.3 -44.4526
L1189.52 -44.3672
L1242.73 -44.3064
L1295.95 -44.1403
L1349.16 -44.0551
L1402.38 -44.0078
L1455.59 -44.0207
L1508.81 -43.9697
L1562.02 -43.8878
L1615.24 -43.935
L1615.24 -44.2919
L1615.24 -44.2919
L1562.02 -44.2462
L1508.81 -44.3481
L1455.59 -44.3782
L1402.38 -44.5178
L1349.16 -44.531
L1295.95 -44.7903
L1242.73 -44.9979
L1189.52 -45.1669
L1136.3 -45.2887
L1083.09 -45.439
L1029.87 -45.7547
L976.655 -46.0716
L923.44 -46.2631
L870.225 -46.4597
L817.01 -46.9445
L763.795 -47.4596
L710.58 -48.297
L657.365 -49.6318
L604.15 -52.1096
L550.935 -51.5
L497.72 -53.0795
L444.505 -56.2308
L391.29 -61.2756
L338.075 -78.3416
L284.86 -125.317
L231.645 -153.69
L178.43 -123.147
L125.215 -144.04
L72 -64.4305
z
" id="maa2fb4003a" style="stroke:#000000;stroke-opacity:0.5;stroke-width:0.1;"/>
    </defs>
    <g clip-path="url(#p7ff5b81e1d)">
     <use style="fill:#ff0000;fill-opacity:0.5;stroke:#000000;stroke-opacity:0.5;stroke-width:0.1;" x="0.0" xlink:href="#maa2fb4003a" y="432.0"/>
    </g>
   </g>
   <g id="PolyCollection_14">
    <defs>
     <path d="
M72 -61.0436
L72 -54.0921
L125.215 -116.052
L178.43 -99.1632
L231.645 -120.708
L284.86 -96.9261
L338.075 -66.5762
L391.29 -55.9505
L444.505 -51.8964
L497.72 -49.8354
L550.935 -48.8833
L604.15 -49.6535
L657.365 -47.5967
L710.58 -46.5657
L763.795 -46.0825
L817.01 -45.8016
L870.225 -45.4342
L923.44 -45.0851
L976.655 -44.9009
L1029.87 -44.7251
L1083.09 -44.5873
L1136.3 -44.462
L1189.52 -44.4078
L1242.73 -44.2657
L1295.95 -44.1929
L1349.16 -44.0915
L1402.38 -44.0222
L1455.59 -43.9943
L1508.81 -43.9387
L1562.02 -43.8873
L1615.24 -43.9386
L1615.24 -44.3257
L1615.24 -44.3257
L1562.02 -44.2121
L1508.81 -44.3236
L1455.59 -44.4014
L1402.38 -44.5301
L1349.16 -44.618
L1295.95 -44.7232
L1242.73 -44.8924
L1189.52 -45.0684
L1136.3 -45.2576
L1083.09 -45.4113
L1029.87 -45.6826
L976.655 -45.8925
L923.44 -46.2368
L870.225 -46.6273
L817.01 -46.9758
L763.795 -47.3477
L710.58 -48.1949
L657.365 -49.7261
L604.15 -52.6989
L550.935 -52.1328
L497.72 -53.3786
L444.505 -56.6125
L391.29 -63.2154
L338.075 -79.8964
L284.86 -121.365
L231.645 -145.27
L178.43 -126.957
L125.215 -146.621
L72 -61.0436
z
" id="m998a17ba88" style="stroke:#000000;stroke-opacity:0.5;stroke-width:0.1;"/>
    </defs>
    <g clip-path="url(#p7ff5b81e1d)">
     <use style="fill:#0000ff;fill-opacity:0.5;stroke:#000000;stroke-opacity:0.5;stroke-width:0.1;" x="0.0" xlink:href="#m998a17ba88" y="432.0"/>
    </g>
   </g>
   <g id="PolyCollection_15">
    <defs>
     <path d="
M72 -52.6826
L72 -47.123
L125.215 -66.7349
L178.43 -95.1542
L231.645 -158.176
L284.86 -127.906
L338.075 -67.6856
L391.29 -55.6417
L444.505 -52.0264
L497.72 -48.094
L550.935 -46.2343
L604.15 -45.7082
L657.365 -44.7216
L710.58 -44.397
L763.795 -44.1985
L817.01 -44.0515
L870.225 -43.9416
L923.44 -43.8515
L976.655 -43.775
L1029.87 -43.7482
L1083.09 -43.6629
L1136.3 -43.6388
L1189.52 -43.6097
L1242.73 -43.5288
L1295.95 -43.5304
L1349.16 -43.4908
L1402.38 -43.4796
L1455.59 -43.4758
L1508.81 -43.4302
L1562.02 -43.4015
L1615.24 -43.4264
L1615.24 -43.6622
L1615.24 -43.6622
L1562.02 -43.6606
L1508.81 -43.709
L1455.59 -43.713
L1402.38 -43.7609
L1349.16 -43.8449
L1295.95 -43.8592
L1242.73 -43.928
L1189.52 -44.0169
L1136.3 -44.1082
L1083.09 -44.2603
L1029.87 -44.3069
L976.655 -44.3786
L923.44 -44.5581
L870.225 -44.687
L817.01 -44.925
L763.795 -45.2932
L710.58 -45.4141
L657.365 -46.4525
L604.15 -48.0195
L550.935 -48.4185
L497.72 -51.4981
L444.505 -58.3358
L391.29 -63.9242
L338.075 -82.9454
L284.86 -165.079
L231.645 -197.23
L178.43 -128.964
L125.215 -87.8516
L72 -52.6826
z
" id="m0ae8bd8445" style="stroke:#000000;stroke-opacity:0.5;stroke-width:0.1;"/>
    </defs>
    <g clip-path="url(#p7ff5b81e1d)">
     <use style="fill:#ff0000;fill-opacity:0.5;stroke:#000000;stroke-opacity:0.5;stroke-width:0.1;" x="0.0" xlink:href="#m0ae8bd8445" y="432.0"/>
    </g>
   </g>
   <g id="PolyCollection_16">
    <defs>
     <path d="
M72 -51.1675
L72 -47.5604
L125.215 -65.501
L178.43 -96.7849
L231.645 -163.988
L284.86 -135.18
L338.075 -68.0681
L391.29 -55.2325
L444.505 -52.2236
L497.72 -48.3451
L550.935 -46.3429
L604.15 -45.8681
L657.365 -44.8945
L710.58 -44.4047
L763.795 -44.2475
L817.01 -44.065
L870.225 -43.9579
L923.44 -43.879
L976.655 -43.8172
L1029.87 -43.7343
L1083.09 -43.6898
L1136.3 -43.6538
L1189.52 -43.5926
L1242.73 -43.5614
L1295.95 -43.5568
L1349.16 -43.5088
L1402.38 -43.4717
L1455.59 -43.4546
L1508.81 -43.4386
L1562.02 -43.4217
L1615.24 -43.4329
L1615.24 -43.631
L1615.24 -43.631
L1562.02 -43.606
L1508.81 -43.6473
L1455.59 -43.6861
L1402.38 -43.7057
L1349.16 -43.7224
L1295.95 -43.7818
L1242.73 -43.843
L1189.52 -43.9537
L1136.3 -43.9841
L1083.09 -44.0804
L1029.87 -44.1982
L976.655 -44.3418
L923.44 -44.4797
L870.225 -44.6338
L817.01 -44.8141
L763.795 -45.0439
L710.58 -45.3329
L657.365 -46.0213
L604.15 -47.3307
L550.935 -48.2241
L497.72 -51.5041
L444.505 -57.9953
L391.29 -61.6872
L338.075 -81.6964
L284.86 -162.855
L231.645 -197.863
L178.43 -126.023
L125.215 -84.7047
L72 -51.1675
z
" id="mca54fc620c" style="stroke:#000000;stroke-opacity:0.5;stroke-width:0.1;"/>
    </defs>
    <g clip-path="url(#p7ff5b81e1d)">
     <use style="fill:#0000ff;fill-opacity:0.5;stroke:#000000;stroke-opacity:0.5;stroke-width:0.1;" x="0.0" xlink:href="#mca54fc620c" y="432.0"/>
    </g>
   </g>
   <g id="PolyCollection_17">
    <defs>
     <path d="
M72 -100.109
L72 -80.888
L125.215 -326.786
L178.43 -100.004
L231.645 -48.0888
L284.86 -44.8842
L338.075 -44.0608
L391.29 -43.6164
L444.505 -43.5023
L497.72 -43.4926
L550.935 -43.5176
L604.15 -43.5885
L657.365 -43.4183
L710.58 -43.3299
L763.795 -43.3256
L817.01 -43.3211
L870.225 -43.3022
L923.44 -43.2946
L976.655 -43.2814
L1029.87 -43.2685
L1083.09 -43.2646
L1136.3 -43.2691
L1189.52 -43.2578
L1242.73 -43.247
L1295.95 -43.2466
L1349.16 -43.247
L1402.38 -43.247
L1455.59 -43.2395
L1508.81 -43.2336
L1562.02 -43.2321
L1615.24 -43.2306
L1615.24 -43.2615
L1615.24 -43.2615
L1562.02 -43.2631
L1508.81 -43.2693
L1455.59 -43.2875
L1402.38 -43.2953
L1349.16 -43.2891
L1295.95 -43.2883
L1242.73 -43.3009
L1189.52 -43.3205
L1136.3 -43.3467
L1083.09 -43.3308
L1029.87 -43.3564
L976.655 -43.3662
L923.44 -43.3784
L870.225 -43.4117
L817.01 -43.455
L763.795 -43.4986
L710.58 -43.5332
L657.365 -43.6872
L604.15 -44.0041
L550.935 -43.8776
L497.72 -43.9492
L444.505 -44.2526
L391.29 -44.8454
L338.075 -45.8084
L284.86 -48.8811
L231.645 -56.8478
L178.43 -117.809
L125.215 -358.907
L72 -100.109
z
" id="m3043757d1d" style="stroke:#000000;stroke-opacity:0.5;stroke-width:0.1;"/>
    </defs>
    <g clip-path="url(#p7ff5b81e1d)">
     <use style="fill:#ff0000;fill-opacity:0.5;stroke:#000000;stroke-opacity:0.5;stroke-width:0.1;" x="0.0" xlink:href="#m3043757d1d" y="432.0"/>
    </g>
   </g>
   <g id="PolyCollection_18">
    <defs>
     <path d="
M72 -103.557
L72 -86.9153
L125.215 -330.675
L178.43 -97.6322
L231.645 -47.9145
L284.86 -45.0785
L338.075 -44.136
L391.29 -43.6718
L444.505 -43.6226
L497.72 -43.539
L550.935 -43.5735
L604.15 -43.6919
L657.365 -43.463
L710.58 -43.364
L763.795 -43.3679
L817.01 -43.3582
L870.225 -43.3382
L923.44 -43.3163
L976.655 -43.3024
L1029.87 -43.2904
L1083.09 -43.2816
L1136.3 -43.3049
L1189.52 -43.2777
L1242.73 -43.2607
L1295.95 -43.2597
L1349.16 -43.2578
L1402.38 -43.2579
L1455.59 -43.2516
L1508.81 -43.2462
L1562.02 -43.2455
L1615.24 -43.244
L1615.24 -43.2771
L1615.24 -43.2771
L1562.02 -43.2832
L1508.81 -43.2884
L1455.59 -43.3045
L1402.38 -43.3091
L1349.16 -43.303
L1295.95 -43.315
L1242.73 -43.3168
L1189.52 -43.3373
L1136.3 -43.3722
L1083.09 -43.3568
L1029.87 -43.3536
L976.655 -43.3804
L923.44 -43.4178
L870.225 -43.4636
L817.01 -43.4813
L763.795 -43.4816
L710.58 -43.504
L657.365 -43.6962
L604.15 -44.1454
L550.935 -43.9183
L497.72 -43.89
L444.505 -44.0895
L391.29 -44.477
L338.075 -45.3979
L284.86 -47.5866
L231.645 -53.5713
L178.43 -113.497
L125.215 -356.826
L72 -103.557
z
" id="m529aaf8fdc" style="stroke:#000000;stroke-opacity:0.5;stroke-width:0.1;"/>
    </defs>
    <g clip-path="url(#p7ff5b81e1d)">
     <use style="fill:#0000ff;fill-opacity:0.5;stroke:#000000;stroke-opacity:0.5;stroke-width:0.1;" x="0.0" xlink:href="#m529aaf8fdc" y="432.0"/>
    </g>
   </g>
   <g id="line2d_1">
    <path clip-path="url(#p7ff5b81e1d)" d="
M72 380.995
L125.215 348.373
L178.43 327.354
L231.645 265.493
L284.86 293.25
L338.075 353.751
L391.29 366.607
L444.505 372.552
L497.72 379.847
L550.935 383.189
L577 383.241" style="fill:none;stroke:#ff0000;stroke-linecap:square;"/>
   </g>
   <g id="line2d_2">
    <path clip-path="url(#p7ff5b81e1d)" d="
M72 380.781
L125.215 345.872
L178.43 328.243
L231.645 266.205
L284.86 292.592
L338.075 355.791
L391.29 368.017
L444.505 372.876
L497.72 379.738
L550.935 383.053
L577 382.722" style="fill:none;stroke:#0000ff;stroke-linecap:square;"/>
   </g>
   <g id="line2d_3">
    <path clip-path="url(#p7ff5b81e1d)" d="
M72 366.737
L125.215 257.614
L178.43 328.348
L231.645 317.019
L284.86 325.186
L338.075 359.721
L391.29 374.429
L444.505 379.902
L497.72 382.568
L550.935 383.748
L577 383.646" style="fill:none;stroke:#ff0000;stroke-linecap:square;"/>
   </g>
   <g id="line2d_4">
    <path clip-path="url(#p7ff5b81e1d)" d="
M72 368.163
L125.215 254.622
L178.43 325.307
L231.645 318.783
L284.86 332.265
L338.075 360.88
L391.29 373.335
L444.505 379.149
L497.72 381.823
L550.935 383.033
L577 382.853" style="fill:none;stroke:#0000ff;stroke-linecap:square;"/>
   </g>
   <g id="line2d_5">
    <path clip-path="url(#p7ff5b81e1d)" d="
M72 375.198
L125.215 314.305
L178.43 333.052
L231.645 315.006
L284.86 331.497
L338.075 355.648
L391.29 363.961
L444.505 370.862
L497.72 375.992
L550.935 378.111
L577 378.001" style="fill:none;stroke:#ff0000;stroke-linecap:square;"/>
   </g>
   <g id="line2d_6">
    <path clip-path="url(#p7ff5b81e1d)" d="
M72 375.303
L125.215 316.806
L178.43 332.72
L231.645 312.42
L284.86 332.027
L338.075 357.891
L391.29 364.916
L444.505 370.901
L497.72 375.568
L550.935 377.769
L577 377.38" style="fill:none;stroke:#0000ff;stroke-linecap:square;"/>
   </g>
   <g id="line2d_7">
    <path clip-path="url(#p7ff5b81e1d)" d="
M72 373.121
L125.215 297.974
L178.43 325.777
L231.645 297.916
L284.86 312.936
L338.075 356.482
L391.29 373.866
L444.505 378.984
L497.72 381.486
L550.935 382.737
L577 382.364" style="fill:none;stroke:#ff0000;stroke-linecap:square;"/>
   </g>
   <g id="line2d_8">
    <path clip-path="url(#p7ff5b81e1d)" d="
M72 373.04
L125.215 291.434
L178.43 322.196
L231.645 301.132
L284.86 321.932
L338.075 359.139
L391.29 373.048
L444.505 378.427
L497.72 381.143
L550.935 382.235
L577 381.517" style="fill:none;stroke:#0000ff;stroke-linecap:square;"/>
   </g>
   <g id="line2d_9">
    <path clip-path="url(#p7ff5b81e1d)" d="
M72 374.187
L125.215 297.486
L178.43 328.793
L231.645 283.624
L284.86 304.6
L338.075 359.226
L391.29 377.101
L444.505 381.291
L497.72 383.324
L550.935 384.154
L577 383.825" style="fill:none;stroke:#ff0000;stroke-linecap:square;"/>
   </g>
   <g id="line2d_10">
    <path clip-path="url(#p7ff5b81e1d)" d="
M72 373.122
L125.215 288.278
L178.43 327.479
L231.645 286.241
L284.86 311.137
L338.075 362.161
L391.29 377.305
L444.505 381.347
L497.72 383.344
L550.935 383.994
L577 383.478" style="fill:none;stroke:#0000ff;stroke-linecap:square;"/>
   </g>
   <g id="line2d_11">
    <path clip-path="url(#p7ff5b81e1d)" d="
M72 374.732
L125.215 306.476
L178.43 327.012
L231.645 306.168
L284.86 323.65
L338.075 356.056
L391.29 367.369
L444.505 373.77
L497.72 378.283
L550.935 380.297
L577 380.06" style="fill:none;stroke:#ff0000;stroke-linecap:square;"/>
   </g>
   <g id="line2d_12">
    <path clip-path="url(#p7ff5b81e1d)" d="
M72 374.704
L125.215 308.203
L178.43 327.553
L231.645 301.955
L284.86 325.549
L338.075 358.907
L391.29 368.253
L444.505 373.96
L497.72 378.019
L550.935 379.789
L577 379.266" style="fill:none;stroke:#0000ff;stroke-linecap:square;"/>
   </g>
   <g id="line2d_13">
    <path clip-path="url(#p7ff5b81e1d)" d="
M72 372.958
L125.215 304.418
L178.43 320.6
L231.645 296.149
L284.86 318.181
L338.075 358.981
L391.29 373.794
L444.505 378.208
L497.72 380.568
L550.935 381.929
L577 381.67" style="fill:none;stroke:#ff0000;stroke-linecap:square;"/>
   </g>
   <g id="line2d_14">
    <path clip-path="url(#p7ff5b81e1d)" d="
M72 374.432
L125.215 300.663
L178.43 318.94
L231.645 299.011
L284.86 322.854
L338.075 358.764
L391.29 372.417
L444.505 377.746
L497.72 380.393
L550.935 381.492
L577 381.165" style="fill:none;stroke:#0000ff;stroke-linecap:square;"/>
   </g>
   <g id="line2d_15">
    <path clip-path="url(#p7ff5b81e1d)" d="
M72 382.097
L125.215 354.707
L178.43 319.941
L231.645 254.297
L284.86 285.508
L338.075 356.685
L391.29 372.217
L444.505 376.819
L497.72 382.204
L550.935 384.674
L577 384.9" style="fill:none;stroke:#ff0000;stroke-linecap:square;"/>
   </g>
   <g id="line2d_16">
    <path clip-path="url(#p7ff5b81e1d)" d="
M72 382.636
L125.215 356.897
L178.43 320.596
L231.645 251.074
L284.86 282.983
L338.075 357.118
L391.29 373.54
L444.505 376.891
L497.72 382.075
L550.935 384.717
L577 385.052" style="fill:none;stroke:#0000ff;stroke-linecap:square;"/>
   </g>
   <g id="line2d_17">
    <path clip-path="url(#p7ff5b81e1d)" d="
M72 341.501
L125.215 89.1536
L178.43 323.094
L231.645 379.532
L284.86 385.117
L338.075 387.065
L391.29 387.769
L444.505 388.123
L497.72 388.279
L550.935 388.302
L577 388.254" style="fill:none;stroke:#ff0000;stroke-linecap:square;"/>
   </g>
   <g id="line2d_18">
    <path clip-path="url(#p7ff5b81e1d)" d="
M72 336.764
L125.215 88.2493
L178.43 326.435
L231.645 381.257
L284.86 385.667
L338.075 387.233
L391.29 387.926
L444.505 388.144
L497.72 388.286
L550.935 388.254
L577 388.17" style="fill:none;stroke:#0000ff;stroke-linecap:square;"/>
   </g>
   <g id="patch_3">
    <path d="
M72 43.2
L518.4 43.2" style="fill:none;stroke:#000000;stroke-linecap:square;stroke-linejoin:miter;"/>
   </g>
   <g id="patch_4">
    <path d="
M518.4 388.8
L518.4 43.2" style="fill:none;stroke:#000000;stroke-linecap:square;stroke-linejoin:miter;"/>
   </g>
   <g id="patch_5">
    <path d="
M72 388.8
L518.4 388.8" style="fill:none;stroke:#000000;stroke-linecap:square;stroke-linejoin:miter;"/>
   </g>
   <g id="patch_6">
    <path d="
M72 388.8
L72 43.2" style="fill:none;stroke:#000000;stroke-linecap:square;stroke-linejoin:miter;"/>
   </g>
   <g id="matplotlib.axis_1">
    <g id="xtick_1">
     <g id="line2d_19">
      <defs>
       <path d="
M0 0
L0 -4" id="m93b0483c22" style="stroke:#000000;stroke-width:0.5;"/>
      </defs>
      <g>
       <use style="stroke:#000000;stroke-width:0.5;" x="72.0" xlink:href="#m93b0483c22" y="388.8"/>
      </g>
     </g>
     <g id="line2d_20">
      <defs>
       <path d="
M0 0
L0 4" id="m741efc42ff" style="stroke:#000000;stroke-width:0.5;"/>
      </defs>
      <g>
       <use style="stroke:#000000;stroke-width:0.5;" x="72.0" xlink:href="#m741efc42ff" y="43.2"/>
      </g>
     </g>
     <g id="text_1">
      <!-- 0 -->
      <defs>
       <path d="
M31.7812 66.4062
Q24.1719 66.4062 20.3281 58.9062
Q16.5 51.4219 16.5 36.375
Q16.5 21.3906 20.3281 13.8906
Q24.1719 6.39062 31.7812 6.39062
Q39.4531 6.39062 43.2812 13.8906
Q47.125 21.3906 47.125 36.375
Q47.125 51.4219 43.2812 58.9062
Q39.4531 66.4062 31.7812 66.4062
M31.7812 74.2188
Q44.0469 74.2188 50.5156 64.5156
Q56.9844 54.8281 56.9844 36.375
Q56.9844 17.9688 50.5156 8.26562
Q44.0469 -1.42188 31.7812 -1.42188
Q19.5312 -1.42188 13.0625 8.26562
Q6.59375 17.9688 6.59375 36.375
Q6.59375 54.8281 13.0625 64.5156
Q19.5312 74.2188 31.7812 74.2188" id="BitstreamVeraSans-Roman-30"/>
      </defs>
      <g transform="translate(68.9765625 401.918125)scale(0.12 -0.12)">
       <use xlink:href="#BitstreamVeraSans-Roman-30"/>
      </g>
     </g>
    </g>
    <g id="xtick_2">
     <g id="line2d_21">
      <g>
       <use style="stroke:#000000;stroke-width:0.5;" x="161.28" xlink:href="#m93b0483c22" y="388.8"/>
      </g>
     </g>
     <g id="line2d_22">
      <g>
       <use style="stroke:#000000;stroke-width:0.5;" x="161.28" xlink:href="#m741efc42ff" y="43.2"/>
      </g>
     </g>
     <g id="text_2">
      <!-- 10 -->
      <defs>
       <path d="
M12.4062 8.29688
L28.5156 8.29688
L28.5156 63.9219
L10.9844 60.4062
L10.9844 69.3906
L28.4219 72.9062
L38.2812 72.9062
L38.2812 8.29688
L54.3906 8.29688
L54.3906 0
L12.4062 0
z
" id="BitstreamVeraSans-Roman-31"/>
      </defs>
      <g transform="translate(154.7025 401.918125)scale(0.12 -0.12)">
       <use xlink:href="#BitstreamVeraSans-Roman-31"/>
       <use x="63.623046875" xlink:href="#BitstreamVeraSans-Roman-30"/>
      </g>
     </g>
    </g>
    <g id="xtick_3">
     <g id="line2d_23">
      <g>
       <use style="stroke:#000000;stroke-width:0.5;" x="250.56" xlink:href="#m93b0483c22" y="388.8"/>
      </g>
     </g>
     <g id="line2d_24">
      <g>
       <use style="stroke:#000000;stroke-width:0.5;" x="250.56" xlink:href="#m741efc42ff" y="43.2"/>
      </g>
     </g>
     <g id="text_3">
      <!-- 20 -->
      <defs>
       <path d="
M19.1875 8.29688
L53.6094 8.29688
L53.6094 0
L7.32812 0
L7.32812 8.29688
Q12.9375 14.1094 22.625 23.8906
Q32.3281 33.6875 34.8125 36.5312
Q39.5469 41.8438 41.4219 45.5312
Q43.3125 49.2188 43.3125 52.7812
Q43.3125 58.5938 39.2344 62.25
Q35.1562 65.9219 28.6094 65.9219
Q23.9688 65.9219 18.8125 64.3125
Q13.6719 62.7031 7.8125 59.4219
L7.8125 69.3906
Q13.7656 71.7812 18.9375 73
Q24.125 74.2188 28.4219 74.2188
Q39.75 74.2188 46.4844 68.5469
Q53.2188 62.8906 53.2188 53.4219
Q53.2188 48.9219 51.5312 44.8906
Q49.8594 40.875 45.4062 35.4062
Q44.1875 33.9844 37.6406 27.2188
Q31.1094 20.4531 19.1875 8.29688" id="BitstreamVeraSans-Roman-32"/>
      </defs>
      <g transform="translate(243.763125 401.918125)scale(0.12 -0.12)">
       <use xlink:href="#BitstreamVeraSans-Roman-32"/>
       <use x="63.623046875" xlink:href="#BitstreamVeraSans-Roman-30"/>
      </g>
     </g>
    </g>
    <g id="xtick_4">
     <g id="line2d_25">
      <g>
       <use style="stroke:#000000;stroke-width:0.5;" x="339.84" xlink:href="#m93b0483c22" y="388.8"/>
      </g>
     </g>
     <g id="line2d_26">
      <g>
       <use style="stroke:#000000;stroke-width:0.5;" x="339.84" xlink:href="#m741efc42ff" y="43.2"/>
      </g>
     </g>
     <g id="text_4">
      <!-- 30 -->
      <defs>
       <path d="
M40.5781 39.3125
Q47.6562 37.7969 51.625 33
Q55.6094 28.2188 55.6094 21.1875
Q55.6094 10.4062 48.1875 4.48438
Q40.7656 -1.42188 27.0938 -1.42188
Q22.5156 -1.42188 17.6562 -0.515625
Q12.7969 0.390625 7.625 2.20312
L7.625 11.7188
Q11.7188 9.32812 16.5938 8.10938
Q21.4844 6.89062 26.8125 6.89062
Q36.0781 6.89062 40.9375 10.5469
Q45.7969 14.2031 45.7969 21.1875
Q45.7969 27.6406 41.2812 31.2656
Q36.7656 34.9062 28.7188 34.9062
L20.2188 34.9062
L20.2188 43.0156
L29.1094 43.0156
Q36.375 43.0156 40.2344 45.9219
Q44.0938 48.8281 44.0938 54.2969
Q44.0938 59.9062 40.1094 62.9062
Q36.1406 65.9219 28.7188 65.9219
Q24.6562 65.9219 20.0156 65.0312
Q15.375 64.1562 9.8125 62.3125
L9.8125 71.0938
Q15.4375 72.6562 20.3438 73.4375
Q25.25 74.2188 29.5938 74.2188
Q40.8281 74.2188 47.3594 69.1094
Q53.9062 64.0156 53.9062 55.3281
Q53.9062 49.2656 50.4375 45.0938
Q46.9688 40.9219 40.5781 39.3125" id="BitstreamVeraSans-Roman-33"/>
      </defs>
      <g transform="translate(333.0609375 401.918125)scale(0.12 -0.12)">
       <use xlink:href="#BitstreamVeraSans-Roman-33"/>
       <use x="63.623046875" xlink:href="#BitstreamVeraSans-Roman-30"/>
      </g>
     </g>
    </g>
    <g id="xtick_5">
     <g id="line2d_27">
      <g>
       <use style="stroke:#000000;stroke-width:0.5;" x="429.12" xlink:href="#m93b0483c22" y="388.8"/>
      </g>
     </g>
     <g id="line2d_28">
      <g>
       <use style="stroke:#000000;stroke-width:0.5;" x="429.12" xlink:href="#m741efc42ff" y="43.2"/>
      </g>
     </g>
     <g id="text_5">
      <!-- 40 -->
      <defs>
       <path d="
M37.7969 64.3125
L12.8906 25.3906
L37.7969 25.3906
z

M35.2031 72.9062
L47.6094 72.9062
L47.6094 25.3906
L58.0156 25.3906
L58.0156 17.1875
L47.6094 17.1875
L47.6094 0
L37.7969 0
L37.7969 17.1875
L4.89062 17.1875
L4.89062 26.7031
z
" id="BitstreamVeraSans-Roman-34"/>
      </defs>
      <g transform="translate(422.176875 401.918125)scale(0.12 -0.12)">
       <use xlink:href="#BitstreamVeraSans-Roman-34"/>
       <use x="63.623046875" xlink:href="#BitstreamVeraSans-Roman-30"/>
      </g>
     </g>
    </g>
    <g id="xtick_6">
     <g id="line2d_29">
      <g>
       <use style="stroke:#000000;stroke-width:0.5;" x="518.4" xlink:href="#m93b0483c22" y="388.8"/>
      </g>
     </g>
     <g id="line2d_30">
      <g>
       <use style="stroke:#000000;stroke-width:0.5;" x="518.4" xlink:href="#m741efc42ff" y="43.2"/>
      </g>
     </g>
     <g id="text_6">
      <!-- 50 -->
      <defs>
       <path d="
M10.7969 72.9062
L49.5156 72.9062
L49.5156 64.5938
L19.8281 64.5938
L19.8281 46.7344
Q21.9688 47.4688 24.1094 47.8281
Q26.2656 48.1875 28.4219 48.1875
Q40.625 48.1875 47.75 41.5
Q54.8906 34.8125 54.8906 23.3906
Q54.8906 11.625 47.5625 5.09375
Q40.2344 -1.42188 26.9062 -1.42188
Q22.3125 -1.42188 17.5469 -0.640625
Q12.7969 0.140625 7.71875 1.70312
L7.71875 11.625
Q12.1094 9.23438 16.7969 8.0625
Q21.4844 6.89062 26.7031 6.89062
Q35.1562 6.89062 40.0781 11.3281
Q45.0156 15.7656 45.0156 23.3906
Q45.0156 31 40.0781 35.4375
Q35.1562 39.8906 26.7031 39.8906
Q22.75 39.8906 18.8125 39.0156
Q14.8906 38.1406 10.7969 36.2812
z
" id="BitstreamVeraSans-Roman-35"/>
      </defs>
      <g transform="translate(511.6265625 401.918125)scale(0.12 -0.12)">
       <use xlink:href="#BitstreamVeraSans-Roman-35"/>
       <use x="63.623046875" xlink:href="#BitstreamVeraSans-Roman-30"/>
      </g>
     </g>
    </g>
    <g id="text_7">
     <!-- Freq (Hz) -->
     <defs>
      <path id="BitstreamVeraSans-Roman-20"/>
      <path d="
M8.01562 75.875
L15.8281 75.875
Q23.1406 64.3594 26.7812 53.3125
Q30.4219 42.2812 30.4219 31.3906
Q30.4219 20.4531 26.7812 9.375
Q23.1406 -1.70312 15.8281 -13.1875
L8.01562 -13.1875
Q14.5 -2 17.7031 9.0625
Q20.9062 20.125 20.9062 31.3906
Q20.9062 42.6719 17.7031 53.6562
Q14.5 64.6562 8.01562 75.875" id="BitstreamVeraSans-Roman-29"/>
      <path d="
M31 75.875
Q24.4688 64.6562 21.2812 53.6562
Q18.1094 42.6719 18.1094 31.3906
Q18.1094 20.125 21.3125 9.0625
Q24.5156 -2 31 -13.1875
L23.1875 -13.1875
Q15.875 -1.70312 12.2344 9.375
Q8.59375 20.4531 8.59375 31.3906
Q8.59375 42.2812 12.2031 53.3125
Q15.8281 64.3594 23.1875 75.875
z
" id="BitstreamVeraSans-Roman-28"/>
      <path d="
M5.51562 54.6875
L48.1875 54.6875
L48.1875 46.4844
L14.4062 7.17188
L48.1875 7.17188
L48.1875 0
L4.29688 0
L4.29688 8.20312
L38.0938 47.5156
L5.51562 47.5156
z
" id="BitstreamVeraSans-Roman-7a"/>
      <path d="
M9.8125 72.9062
L51.7031 72.9062
L51.7031 64.5938
L19.6719 64.5938
L19.6719 43.1094
L48.5781 43.1094
L48.5781 34.8125
L19.6719 34.8125
L19.6719 0
L9.8125 0
z
" id="BitstreamVeraSans-Roman-46"/>
      <path d="
M56.2031 29.5938
L56.2031 25.2031
L14.8906 25.2031
Q15.4844 15.9219 20.4844 11.0625
Q25.4844 6.20312 34.4219 6.20312
Q39.5938 6.20312 44.4531 7.46875
Q49.3125 8.73438 54.1094 11.2812
L54.1094 2.78125
Q49.2656 0.734375 44.1875 -0.34375
Q39.1094 -1.42188 33.8906 -1.42188
Q20.7969 -1.42188 13.1562 6.1875
Q5.51562 13.8125 5.51562 26.8125
Q5.51562 40.2344 12.7656 48.1094
Q20.0156 56 32.3281 56
Q43.3594 56 49.7812 48.8906
Q56.2031 41.7969 56.2031 29.5938
M47.2188 32.2344
Q47.125 39.5938 43.0938 43.9844
Q39.0625 48.3906 32.4219 48.3906
Q24.9062 48.3906 20.3906 44.1406
Q15.875 39.8906 15.1875 32.1719
z
" id="BitstreamVeraSans-Roman-65"/>
      <path d="
M9.8125 72.9062
L19.6719 72.9062
L19.6719 43.0156
L55.5156 43.0156
L55.5156 72.9062
L65.375 72.9062
L65.375 0
L55.5156 0
L55.5156 34.7188
L19.6719 34.7188
L19.6719 0
L9.8125 0
z
" id="BitstreamVeraSans-Roman-48"/>
      <path d="
M41.1094 46.2969
Q39.5938 47.1719 37.8125 47.5781
Q36.0312 48 33.8906 48
Q26.2656 48 22.1875 43.0469
Q18.1094 38.0938 18.1094 28.8125
L18.1094 0
L9.07812 0
L9.07812 54.6875
L18.1094 54.6875
L18.1094 46.1875
Q20.9531 51.1719 25.4844 53.5781
Q30.0312 56 36.5312 56
Q37.4531 56 38.5781 55.875
Q39.7031 55.7656 41.0625 55.5156
z
" id="BitstreamVeraSans-Roman-72"/>
      <path d="
M14.7969 27.2969
Q14.7969 17.3906 18.875 11.75
Q22.9531 6.10938 30.0781 6.10938
Q37.2031 6.10938 41.2969 11.75
Q45.4062 17.3906 45.4062 27.2969
Q45.4062 37.2031 41.2969 42.8438
Q37.2031 48.4844 30.0781 48.4844
Q22.9531 48.4844 18.875 42.8438
Q14.7969 37.2031 14.7969 27.2969
M45.4062 8.20312
Q42.5781 3.32812 38.25 0.953125
Q33.9375 -1.42188 27.875 -1.42188
Q17.9688 -1.42188 11.7344 6.48438
Q5.51562 14.4062 5.51562 27.2969
Q5.51562 40.1875 11.7344 48.0938
Q17.9688 56 27.875 56
Q33.9375 56 38.25 53.625
Q42.5781 51.2656 45.4062 46.3906
L45.4062 54.6875
L54.3906 54.6875
L54.3906 -20.7969
L45.4062 -20.7969
z
" id="BitstreamVeraSans-Roman-71"/>
     </defs>
     <g transform="translate(268.6171875 418.531875)scale(0.12 -0.12)">
      <use xlink:href="#BitstreamVeraSans-Roman-46"/>
      <use x="50.26953125" xlink:href="#BitstreamVeraSans-Roman-72"/>
      <use x="89.1328125" xlink:href="#BitstreamVeraSans-Roman-65"/>
      <use x="150.65625" xlink:href="#BitstreamVeraSans-Roman-71"/>
      <use x="214.1328125" xlink:href="#BitstreamVeraSans-Roman-20"/>
      <use x="245.919921875" xlink:href="#BitstreamVeraSans-Roman-28"/>
      <use x="284.93359375" xlink:href="#BitstreamVeraSans-Roman-48"/>
      <use x="360.12890625" xlink:href="#BitstreamVeraSans-Roman-7a"/>
      <use x="412.619140625" xlink:href="#BitstreamVeraSans-Roman-29"/>
     </g>
    </g>
   </g>
   <g id="matplotlib.axis_2">
    <g id="ytick_1">
     <g id="line2d_31">
      <defs>
       <path d="
M0 0
L4 0" id="m728421d6d4" style="stroke:#000000;stroke-width:0.5;"/>
      </defs>
      <g>
       <use style="stroke:#000000;stroke-width:0.5;" x="72.0" xlink:href="#m728421d6d4" y="388.8"/>
      </g>
     </g>
     <g id="line2d_32">
      <defs>
       <path d="
M0 0
L-4 0" id="mcb0005524f" style="stroke:#000000;stroke-width:0.5;"/>
      </defs>
      <g>
       <use style="stroke:#000000;stroke-width:0.5;" x="518.4" xlink:href="#mcb0005524f" y="388.8"/>
      </g>
     </g>
     <g id="text_8">
      <!-- 0.00 -->
      <defs>
       <path d="
M10.6875 12.4062
L21 12.4062
L21 0
L10.6875 0
z
" id="BitstreamVeraSans-Roman-2e"/>
      </defs>
      <g transform="translate(42.869375 392.11125)scale(0.12 -0.12)">
       <use xlink:href="#BitstreamVeraSans-Roman-30"/>
       <use x="63.623046875" xlink:href="#BitstreamVeraSans-Roman-2e"/>
       <use x="95.41015625" xlink:href="#BitstreamVeraSans-Roman-30"/>
       <use x="159.033203125" xlink:href="#BitstreamVeraSans-Roman-30"/>
      </g>
     </g>
    </g>
    <g id="ytick_2">
     <g id="line2d_33">
      <g>
       <use style="stroke:#000000;stroke-width:0.5;" x="72.0" xlink:href="#m728421d6d4" y="345.6"/>
      </g>
     </g>
     <g id="line2d_34">
      <g>
       <use style="stroke:#000000;stroke-width:0.5;" x="518.4" xlink:href="#mcb0005524f" y="345.6"/>
      </g>
     </g>
     <g id="text_9">
      <!-- 0.05 -->
      <g transform="translate(43.120625 348.91125)scale(0.12 -0.12)">
       <use xlink:href="#BitstreamVeraSans-Roman-30"/>
       <use x="63.623046875" xlink:href="#BitstreamVeraSans-Roman-2e"/>
       <use x="95.41015625" xlink:href="#BitstreamVeraSans-Roman-30"/>
       <use x="159.033203125" xlink:href="#BitstreamVeraSans-Roman-35"/>
      </g>
     </g>
    </g>
    <g id="ytick_3">
     <g id="line2d_35">
      <g>
       <use style="stroke:#000000;stroke-width:0.5;" x="72.0" xlink:href="#m728421d6d4" y="302.4"/>
      </g>
     </g>
     <g id="line2d_36">
      <g>
       <use style="stroke:#000000;stroke-width:0.5;" x="518.4" xlink:href="#mcb0005524f" y="302.4"/>
      </g>
     </g>
     <g id="text_10">
      <!-- 0.10 -->
      <g transform="translate(42.869375 305.71125)scale(0.12 -0.12)">
       <use xlink:href="#BitstreamVeraSans-Roman-30"/>
       <use x="63.623046875" xlink:href="#BitstreamVeraSans-Roman-2e"/>
       <use x="95.41015625" xlink:href="#BitstreamVeraSans-Roman-31"/>
       <use x="159.033203125" xlink:href="#BitstreamVeraSans-Roman-30"/>
      </g>
     </g>
    </g>
    <g id="ytick_4">
     <g id="line2d_37">
      <g>
       <use style="stroke:#000000;stroke-width:0.5;" x="72.0" xlink:href="#m728421d6d4" y="259.2"/>
      </g>
     </g>
     <g id="line2d_38">
      <g>
       <use style="stroke:#000000;stroke-width:0.5;" x="518.4" xlink:href="#mcb0005524f" y="259.2"/>
      </g>
     </g>
     <g id="text_11">
      <!-- 0.15 -->
      <g transform="translate(43.120625 262.51125)scale(0.12 -0.12)">
       <use xlink:href="#BitstreamVeraSans-Roman-30"/>
       <use x="63.623046875" xlink:href="#BitstreamVeraSans-Roman-2e"/>
       <use x="95.41015625" xlink:href="#BitstreamVeraSans-Roman-31"/>
       <use x="159.033203125" xlink:href="#BitstreamVeraSans-Roman-35"/>
      </g>
     </g>
    </g>
    <g id="ytick_5">
     <g id="line2d_39">
      <g>
       <use style="stroke:#000000;stroke-width:0.5;" x="72.0" xlink:href="#m728421d6d4" y="216.0"/>
      </g>
     </g>
     <g id="line2d_40">
      <g>
       <use style="stroke:#000000;stroke-width:0.5;" x="518.4" xlink:href="#mcb0005524f" y="216.0"/>
      </g>
     </g>
     <g id="text_12">
      <!-- 0.20 -->
      <g transform="translate(42.869375 219.31125)scale(0.12 -0.12)">
       <use xlink:href="#BitstreamVeraSans-Roman-30"/>
       <use x="63.623046875" xlink:href="#BitstreamVeraSans-Roman-2e"/>
       <use x="95.41015625" xlink:href="#BitstreamVeraSans-Roman-32"/>
       <use x="159.033203125" xlink:href="#BitstreamVeraSans-Roman-30"/>
      </g>
     </g>
    </g>
    <g id="ytick_6">
     <g id="line2d_41">
      <g>
       <use style="stroke:#000000;stroke-width:0.5;" x="72.0" xlink:href="#m728421d6d4" y="172.8"/>
      </g>
     </g>
     <g id="line2d_42">
      <g>
       <use style="stroke:#000000;stroke-width:0.5;" x="518.4" xlink:href="#mcb0005524f" y="172.8"/>
      </g>
     </g>
     <g id="text_13">
      <!-- 0.25 -->
      <g transform="translate(43.120625 176.11125)scale(0.12 -0.12)">
       <use xlink:href="#BitstreamVeraSans-Roman-30"/>
       <use x="63.623046875" xlink:href="#BitstreamVeraSans-Roman-2e"/>
       <use x="95.41015625" xlink:href="#BitstreamVeraSans-Roman-32"/>
       <use x="159.033203125" xlink:href="#BitstreamVeraSans-Roman-35"/>
      </g>
     </g>
    </g>
    <g id="ytick_7">
     <g id="line2d_43">
      <g>
       <use style="stroke:#000000;stroke-width:0.5;" x="72.0" xlink:href="#m728421d6d4" y="129.6"/>
      </g>
     </g>
     <g id="line2d_44">
      <g>
       <use style="stroke:#000000;stroke-width:0.5;" x="518.4" xlink:href="#mcb0005524f" y="129.6"/>
      </g>
     </g>
     <g id="text_14">
      <!-- 0.30 -->
      <g transform="translate(42.869375 132.91125)scale(0.12 -0.12)">
       <use xlink:href="#BitstreamVeraSans-Roman-30"/>
       <use x="63.623046875" xlink:href="#BitstreamVeraSans-Roman-2e"/>
       <use x="95.41015625" xlink:href="#BitstreamVeraSans-Roman-33"/>
       <use x="159.033203125" xlink:href="#BitstreamVeraSans-Roman-30"/>
      </g>
     </g>
    </g>
    <g id="ytick_8">
     <g id="line2d_45">
      <g>
       <use style="stroke:#000000;stroke-width:0.5;" x="72.0" xlink:href="#m728421d6d4" y="86.4"/>
      </g>
     </g>
     <g id="line2d_46">
      <g>
       <use style="stroke:#000000;stroke-width:0.5;" x="518.4" xlink:href="#mcb0005524f" y="86.4"/>
      </g>
     </g>
     <g id="text_15">
      <!-- 0.35 -->
      <g transform="translate(43.120625 89.71125)scale(0.12 -0.12)">
       <use xlink:href="#BitstreamVeraSans-Roman-30"/>
       <use x="63.623046875" xlink:href="#BitstreamVeraSans-Roman-2e"/>
       <use x="95.41015625" xlink:href="#BitstreamVeraSans-Roman-33"/>
       <use x="159.033203125" xlink:href="#BitstreamVeraSans-Roman-35"/>
      </g>
     </g>
    </g>
    <g id="ytick_9">
     <g id="line2d_47">
      <g>
       <use style="stroke:#000000;stroke-width:0.5;" x="72.0" xlink:href="#m728421d6d4" y="43.2"/>
      </g>
     </g>
     <g id="line2d_48">
      <g>
       <use style="stroke:#000000;stroke-width:0.5;" x="518.4" xlink:href="#mcb0005524f" y="43.2"/>
      </g>
     </g>
     <g id="text_16">
      <!-- 0.40 -->
      <g transform="translate(42.869375 46.51125)scale(0.12 -0.12)">
       <use xlink:href="#BitstreamVeraSans-Roman-30"/>
       <use x="63.623046875" xlink:href="#BitstreamVeraSans-Roman-2e"/>
       <use x="95.41015625" xlink:href="#BitstreamVeraSans-Roman-34"/>
       <use x="159.033203125" xlink:href="#BitstreamVeraSans-Roman-30"/>
      </g>
     </g>
    </g>
    <g id="text_17">
     <!-- Normalized PSD -->
     <defs>
      <path d="
M9.8125 72.9062
L23.0938 72.9062
L55.4219 11.9219
L55.4219 72.9062
L64.9844 72.9062
L64.9844 0
L51.7031 0
L19.3906 60.9844
L19.3906 0
L9.8125 0
z
" id="BitstreamVeraSans-Roman-4e"/>
      <path d="
M52 44.1875
Q55.375 50.25 60.0625 53.125
Q64.75 56 71.0938 56
Q79.6406 56 84.2812 50.0156
Q88.9219 44.0469 88.9219 33.0156
L88.9219 0
L79.8906 0
L79.8906 32.7188
Q79.8906 40.5781 77.0938 44.375
Q74.3125 48.1875 68.6094 48.1875
Q61.625 48.1875 57.5625 43.5469
Q53.5156 38.9219 53.5156 30.9062
L53.5156 0
L44.4844 0
L44.4844 32.7188
Q44.4844 40.625 41.7031 44.4062
Q38.9219 48.1875 33.1094 48.1875
Q26.2188 48.1875 22.1562 43.5312
Q18.1094 38.875 18.1094 30.9062
L18.1094 0
L9.07812 0
L9.07812 54.6875
L18.1094 54.6875
L18.1094 46.1875
Q21.1875 51.2188 25.4844 53.6094
Q29.7812 56 35.6875 56
Q41.6562 56 45.8281 52.9688
Q50 49.9531 52 44.1875" id="BitstreamVeraSans-Roman-6d"/>
      <path d="
M30.6094 48.3906
Q23.3906 48.3906 19.1875 42.75
Q14.9844 37.1094 14.9844 27.2969
Q14.9844 17.4844 19.1562 11.8438
Q23.3438 6.20312 30.6094 6.20312
Q37.7969 6.20312 41.9844 11.8594
Q46.1875 17.5312 46.1875 27.2969
Q46.1875 37.0156 41.9844 42.7031
Q37.7969 48.3906 30.6094 48.3906
M30.6094 56
Q42.3281 56 49.0156 48.375
Q55.7188 40.7656 55.7188 27.2969
Q55.7188 13.875 49.0156 6.21875
Q42.3281 -1.42188 30.6094 -1.42188
Q18.8438 -1.42188 12.1719 6.21875
Q5.51562 13.875 5.51562 27.2969
Q5.51562 40.7656 12.1719 48.375
Q18.8438 56 30.6094 56" id="BitstreamVeraSans-Roman-6f"/>
      <path d="
M9.42188 75.9844
L18.4062 75.9844
L18.4062 0
L9.42188 0
z
" id="BitstreamVeraSans-Roman-6c"/>
      <path d="
M19.6719 64.7969
L19.6719 37.4062
L32.0781 37.4062
Q38.9688 37.4062 42.7188 40.9688
Q46.4844 44.5312 46.4844 51.125
Q46.4844 57.6719 42.7188 61.2344
Q38.9688 64.7969 32.0781 64.7969
z

M9.8125 72.9062
L32.0781 72.9062
Q44.3438 72.9062 50.6094 67.3594
Q56.8906 61.8125 56.8906 51.125
Q56.8906 40.3281 50.6094 34.8125
Q44.3438 29.2969 32.0781 29.2969
L19.6719 29.2969
L19.6719 0
L9.8125 0
z
" id="BitstreamVeraSans-Roman-50"/>
      <path d="
M19.6719 64.7969
L19.6719 8.10938
L31.5938 8.10938
Q46.6875 8.10938 53.6875 14.9375
Q60.6875 21.7812 60.6875 36.5312
Q60.6875 51.1719 53.6875 57.9844
Q46.6875 64.7969 31.5938 64.7969
z

M9.8125 72.9062
L30.0781 72.9062
Q51.2656 72.9062 61.1719 64.0938
Q71.0938 55.2812 71.0938 36.5312
Q71.0938 17.6719 61.125 8.82812
Q51.1719 0 30.0781 0
L9.8125 0
z
" id="BitstreamVeraSans-Roman-44"/>
      <path d="
M53.5156 70.5156
L53.5156 60.8906
Q47.9062 63.5781 42.9219 64.8906
Q37.9375 66.2188 33.2969 66.2188
Q25.25 66.2188 20.875 63.0938
Q16.5 59.9688 16.5 54.2031
Q16.5 49.3594 19.4062 46.8906
Q22.3125 44.4375 30.4219 42.9219
L36.375 41.7031
Q47.4062 39.5938 52.6562 34.2969
Q57.9062 29 57.9062 20.125
Q57.9062 9.51562 50.7969 4.04688
Q43.7031 -1.42188 29.9844 -1.42188
Q24.8125 -1.42188 18.9688 -0.25
Q13.1406 0.921875 6.89062 3.21875
L6.89062 13.375
Q12.8906 10.0156 18.6562 8.29688
Q24.4219 6.59375 29.9844 6.59375
Q38.4219 6.59375 43.0156 9.90625
Q47.6094 13.2344 47.6094 19.3906
Q47.6094 24.75 44.3125 27.7812
Q41.0156 30.8125 33.5 32.3281
L27.4844 33.5
Q16.4531 35.6875 11.5156 40.375
Q6.59375 45.0625 6.59375 53.4219
Q6.59375 63.0938 13.4062 68.6562
Q20.2188 74.2188 32.1719 74.2188
Q37.3125 74.2188 42.625 73.2812
Q47.9531 72.3594 53.5156 70.5156" id="BitstreamVeraSans-Roman-53"/>
      <path d="
M9.42188 54.6875
L18.4062 54.6875
L18.4062 0
L9.42188 0
z

M9.42188 75.9844
L18.4062 75.9844
L18.4062 64.5938
L9.42188 64.5938
z
" id="BitstreamVeraSans-Roman-69"/>
      <path d="
M45.4062 46.3906
L45.4062 75.9844
L54.3906 75.9844
L54.3906 0
L45.4062 0
L45.4062 8.20312
Q42.5781 3.32812 38.25 0.953125
Q33.9375 -1.42188 27.875 -1.42188
Q17.9688 -1.42188 11.7344 6.48438
Q5.51562 14.4062 5.51562 27.2969
Q5.51562 40.1875 11.7344 48.0938
Q17.9688 56 27.875 56
Q33.9375 56 38.25 53.625
Q42.5781 51.2656 45.4062 46.3906
M14.7969 27.2969
Q14.7969 17.3906 18.875 11.75
Q22.9531 6.10938 30.0781 6.10938
Q37.2031 6.10938 41.2969 11.75
Q45.4062 17.3906 45.4062 27.2969
Q45.4062 37.2031 41.2969 42.8438
Q37.2031 48.4844 30.0781 48.4844
Q22.9531 48.4844 18.875 42.8438
Q14.7969 37.2031 14.7969 27.2969" id="BitstreamVeraSans-Roman-64"/>
      <path d="
M34.2812 27.4844
Q23.3906 27.4844 19.1875 25
Q14.9844 22.5156 14.9844 16.5
Q14.9844 11.7188 18.1406 8.90625
Q21.2969 6.10938 26.7031 6.10938
Q34.1875 6.10938 38.7031 11.4062
Q43.2188 16.7031 43.2188 25.4844
L43.2188 27.4844
z

M52.2031 31.2031
L52.2031 0
L43.2188 0
L43.2188 8.29688
Q40.1406 3.32812 35.5469 0.953125
Q30.9531 -1.42188 24.3125 -1.42188
Q15.9219 -1.42188 10.9531 3.29688
Q6 8.01562 6 15.9219
Q6 25.1406 12.1719 29.8281
Q18.3594 34.5156 30.6094 34.5156
L43.2188 34.5156
L43.2188 35.4062
Q43.2188 41.6094 39.1406 45
Q35.0625 48.3906 27.6875 48.3906
Q23 48.3906 18.5469 47.2656
Q14.1094 46.1406 10.0156 43.8906
L10.0156 52.2031
Q14.9375 54.1094 19.5781 55.0469
Q24.2188 56 28.6094 56
Q40.4844 56 46.3438 49.8438
Q52.2031 43.7031 52.2031 31.2031" id="BitstreamVeraSans-Roman-61"/>
     </defs>
     <g transform="translate(35.37375 263.6259375)rotate(-90.0)scale(0.12 -0.12)">
      <use xlink:href="#BitstreamVeraSans-Roman-4e"/>
      <use x="74.8046875" xlink:href="#BitstreamVeraSans-Roman-6f"/>
      <use x="135.986328125" xlink:href="#BitstreamVeraSans-Roman-72"/>
      <use x="175.349609375" xlink:href="#BitstreamVeraSans-Roman-6d"/>
      <use x="272.76171875" xlink:href="#BitstreamVeraSans-Roman-61"/>
      <use x="334.041015625" xlink:href="#BitstreamVeraSans-Roman-6c"/>
      <use x="361.82421875" xlink:href="#BitstreamVeraSans-Roman-69"/>
      <use x="389.607421875" xlink:href="#BitstreamVeraSans-Roman-7a"/>
      <use x="442.09765625" xlink:href="#BitstreamVeraSans-Roman-65"/>
      <use x="503.62109375" xlink:href="#BitstreamVeraSans-Roman-64"/>
      <use x="567.09765625" xlink:href="#BitstreamVeraSans-Roman-20"/>
      <use x="598.884765625" xlink:href="#BitstreamVeraSans-Roman-50"/>
      <use x="659.1875" xlink:href="#BitstreamVeraSans-Roman-53"/>
      <use x="722.6640625" xlink:href="#BitstreamVeraSans-Roman-44"/>
     </g>
    </g>
   </g>
   <g id="text_18">
    <!-- Channel 82- Successful Trial-Averaged PSD -->
    <defs>
     <path d="
M37.1094 75.9844
L37.1094 68.5
L28.5156 68.5
Q23.6875 68.5 21.7969 66.5469
Q19.9219 64.5938 19.9219 59.5156
L19.9219 54.6875
L34.7188 54.6875
L34.7188 47.7031
L19.9219 47.7031
L19.9219 0
L10.8906 0
L10.8906 47.7031
L2.29688 47.7031
L2.29688 54.6875
L10.8906 54.6875
L10.8906 58.5
Q10.8906 67.625 15.1406 71.7969
Q19.3906 75.9844 28.6094 75.9844
z
" id="BitstreamVeraSans-Roman-66"/>
     <path d="
M54.8906 33.0156
L54.8906 0
L45.9062 0
L45.9062 32.7188
Q45.9062 40.4844 42.875 44.3281
Q39.8438 48.1875 33.7969 48.1875
Q26.5156 48.1875 22.3125 43.5469
Q18.1094 38.9219 18.1094 30.9062
L18.1094 0
L9.07812 0
L9.07812 54.6875
L18.1094 54.6875
L18.1094 46.1875
Q21.3438 51.125 25.7031 53.5625
Q30.0781 56 35.7969 56
Q45.2188 56 50.0469 50.1719
Q54.8906 44.3438 54.8906 33.0156" id="BitstreamVeraSans-Roman-6e"/>
     <path d="
M31.7812 34.625
Q24.75 34.625 20.7188 30.8594
Q16.7031 27.0938 16.7031 20.5156
Q16.7031 13.9219 20.7188 10.1562
Q24.75 6.39062 31.7812 6.39062
Q38.8125 6.39062 42.8594 10.1719
Q46.9219 13.9688 46.9219 20.5156
Q46.9219 27.0938 42.8906 30.8594
Q38.875 34.625 31.7812 34.625
M21.9219 38.8125
Q15.5781 40.375 12.0312 44.7188
Q8.5 49.0781 8.5 55.3281
Q8.5 64.0625 14.7188 69.1406
Q20.9531 74.2188 31.7812 74.2188
Q42.6719 74.2188 48.875 69.1406
Q55.0781 64.0625 55.0781 55.3281
Q55.0781 49.0781 51.5312 44.7188
Q48 40.375 41.7031 38.8125
Q48.8281 37.1562 52.7969 32.3125
Q56.7812 27.4844 56.7812 20.5156
Q56.7812 9.90625 50.3125 4.23438
Q43.8438 -1.42188 31.7812 -1.42188
Q19.7344 -1.42188 13.25 4.23438
Q6.78125 9.90625 6.78125 20.5156
Q6.78125 27.4844 10.7812 32.3125
Q14.7969 37.1562 21.9219 38.8125
M18.3125 54.3906
Q18.3125 48.7344 21.8438 45.5625
Q25.3906 42.3906 31.7812 42.3906
Q38.1406 42.3906 41.7188 45.5625
Q45.3125 48.7344 45.3125 54.3906
Q45.3125 60.0625 41.7188 63.2344
Q38.1406 66.4062 31.7812 66.4062
Q25.3906 66.4062 21.8438 63.2344
Q18.3125 60.0625 18.3125 54.3906" id="BitstreamVeraSans-Roman-38"/>
     <path d="
M64.4062 67.2812
L64.4062 56.8906
Q59.4219 61.5312 53.7812 63.8125
Q48.1406 66.1094 41.7969 66.1094
Q29.2969 66.1094 22.6562 58.4688
Q16.0156 50.8281 16.0156 36.375
Q16.0156 21.9688 22.6562 14.3281
Q29.2969 6.6875 41.7969 6.6875
Q48.1406 6.6875 53.7812 8.98438
Q59.4219 11.2812 64.4062 15.9219
L64.4062 5.60938
Q59.2344 2.09375 53.4375 0.328125
Q47.6562 -1.42188 41.2188 -1.42188
Q24.6562 -1.42188 15.125 8.70312
Q5.60938 18.8438 5.60938 36.375
Q5.60938 53.9531 15.125 64.0781
Q24.6562 74.2188 41.2188 74.2188
Q47.75 74.2188 53.5312 72.4844
Q59.3281 70.75 64.4062 67.2812" id="BitstreamVeraSans-Roman-43"/>
     <path d="
M54.8906 33.0156
L54.8906 0
L45.9062 0
L45.9062 32.7188
Q45.9062 40.4844 42.875 44.3281
Q39.8438 48.1875 33.7969 48.1875
Q26.5156 48.1875 22.3125 43.5469
Q18.1094 38.9219 18.1094 30.9062
L18.1094 0
L9.07812 0
L9.07812 75.9844
L18.1094 75.9844
L18.1094 46.1875
Q21.3438 51.125 25.7031 53.5625
Q30.0781 56 35.7969 56
Q45.2188 56 50.0469 50.1719
Q54.8906 44.3438 54.8906 33.0156" id="BitstreamVeraSans-Roman-68"/>
     <path d="
M34.1875 63.1875
L20.7969 26.9062
L47.6094 26.9062
z

M28.6094 72.9062
L39.7969 72.9062
L67.5781 0
L57.3281 0
L50.6875 18.7031
L17.8281 18.7031
L11.1875 0
L0.78125 0
z
" id="BitstreamVeraSans-Roman-41"/>
     <path d="
M2.98438 54.6875
L12.5 54.6875
L29.5938 8.79688
L46.6875 54.6875
L56.2031 54.6875
L35.6875 0
L23.4844 0
z
" id="BitstreamVeraSans-Roman-76"/>
     <path d="
M-0.296875 72.9062
L61.375 72.9062
L61.375 64.5938
L35.5 64.5938
L35.5 0
L25.5938 0
L25.5938 64.5938
L-0.296875 64.5938
z
" id="BitstreamVeraSans-Roman-54"/>
     <path d="
M45.4062 27.9844
Q45.4062 37.75 41.375 43.1094
Q37.3594 48.4844 30.0781 48.4844
Q22.8594 48.4844 18.8281 43.1094
Q14.7969 37.75 14.7969 27.9844
Q14.7969 18.2656 18.8281 12.8906
Q22.8594 7.51562 30.0781 7.51562
Q37.3594 7.51562 41.375 12.8906
Q45.4062 18.2656 45.4062 27.9844
M54.3906 6.78125
Q54.3906 -7.17188 48.1875 -13.9844
Q42 -20.7969 29.2031 -20.7969
Q24.4688 -20.7969 20.2656 -20.0938
Q16.0625 -19.3906 12.1094 -17.9219
L12.1094 -9.1875
Q16.0625 -11.3281 19.9219 -12.3438
Q23.7812 -13.375 27.7812 -13.375
Q36.625 -13.375 41.0156 -8.76562
Q45.4062 -4.15625 45.4062 5.17188
L45.4062 9.625
Q42.625 4.78125 38.2812 2.39062
Q33.9375 0 27.875 0
Q17.8281 0 11.6719 7.65625
Q5.51562 15.3281 5.51562 27.9844
Q5.51562 40.6719 11.6719 48.3281
Q17.8281 56 27.875 56
Q33.9375 56 38.2812 53.6094
Q42.625 51.2188 45.4062 46.3906
L45.4062 54.6875
L54.3906 54.6875
z
" id="BitstreamVeraSans-Roman-67"/>
     <path d="
M8.5 21.5781
L8.5 54.6875
L17.4844 54.6875
L17.4844 21.9219
Q17.4844 14.1562 20.5 10.2656
Q23.5312 6.39062 29.5938 6.39062
Q36.8594 6.39062 41.0781 11.0312
Q45.3125 15.6719 45.3125 23.6875
L45.3125 54.6875
L54.2969 54.6875
L54.2969 0
L45.3125 0
L45.3125 8.40625
Q42.0469 3.42188 37.7188 1
Q33.4062 -1.42188 27.6875 -1.42188
Q18.2656 -1.42188 13.375 4.4375
Q8.5 10.2969 8.5 21.5781" id="BitstreamVeraSans-Roman-75"/>
     <path d="
M44.2812 53.0781
L44.2812 44.5781
Q40.4844 46.5312 36.375 47.5
Q32.2812 48.4844 27.875 48.4844
Q21.1875 48.4844 17.8438 46.4375
Q14.5 44.3906 14.5 40.2812
Q14.5 37.1562 16.8906 35.375
Q19.2812 33.5938 26.5156 31.9844
L29.5938 31.2969
Q39.1562 29.25 43.1875 25.5156
Q47.2188 21.7812 47.2188 15.0938
Q47.2188 7.46875 41.1875 3.01562
Q35.1562 -1.42188 24.6094 -1.42188
Q20.2188 -1.42188 15.4531 -0.5625
Q10.6875 0.296875 5.42188 2
L5.42188 11.2812
Q10.4062 8.6875 15.2344 7.39062
Q20.0625 6.10938 24.8125 6.10938
Q31.1562 6.10938 34.5625 8.28125
Q37.9844 10.4531 37.9844 14.4062
Q37.9844 18.0625 35.5156 20.0156
Q33.0625 21.9688 24.7031 23.7812
L21.5781 24.5156
Q13.2344 26.2656 9.51562 29.9062
Q5.8125 33.5469 5.8125 39.8906
Q5.8125 47.6094 11.2812 51.7969
Q16.75 56 26.8125 56
Q31.7812 56 36.1719 55.2656
Q40.5781 54.5469 44.2812 53.0781" id="BitstreamVeraSans-Roman-73"/>
     <path d="
M48.7812 52.5938
L48.7812 44.1875
Q44.9688 46.2969 41.1406 47.3438
Q37.3125 48.3906 33.4062 48.3906
Q24.6562 48.3906 19.8125 42.8438
Q14.9844 37.3125 14.9844 27.2969
Q14.9844 17.2812 19.8125 11.7344
Q24.6562 6.20312 33.4062 6.20312
Q37.3125 6.20312 41.1406 7.25
Q44.9688 8.29688 48.7812 10.4062
L48.7812 2.09375
Q45.0156 0.34375 40.9844 -0.53125
Q36.9688 -1.42188 32.4219 -1.42188
Q20.0625 -1.42188 12.7812 6.34375
Q5.51562 14.1094 5.51562 27.2969
Q5.51562 40.6719 12.8594 48.3281
Q20.2188 56 33.0156 56
Q37.1562 56 41.1094 55.1406
Q45.0625 54.2969 48.7812 52.5938" id="BitstreamVeraSans-Roman-63"/>
     <path d="
M4.89062 31.3906
L31.2031 31.3906
L31.2031 23.3906
L4.89062 23.3906
z
" id="BitstreamVeraSans-Roman-2d"/>
    </defs>
    <g transform="translate(141.33375 38.2)scale(0.144 -0.144)">
     <use xlink:href="#BitstreamVeraSans-Roman-43"/>
     <use x="69.82421875" xlink:href="#BitstreamVeraSans-Roman-68"/>
     <use x="133.203125" xlink:href="#BitstreamVeraSans-Roman-61"/>
     <use x="194.482421875" xlink:href="#BitstreamVeraSans-Roman-6e"/>
     <use x="257.861328125" xlink:href="#BitstreamVeraSans-Roman-6e"/>
     <use x="321.240234375" xlink:href="#BitstreamVeraSans-Roman-65"/>
     <use x="382.763671875" xlink:href="#BitstreamVeraSans-Roman-6c"/>
     <use x="410.546875" xlink:href="#BitstreamVeraSans-Roman-20"/>
     <use x="442.333984375" xlink:href="#BitstreamVeraSans-Roman-38"/>
     <use x="505.95703125" xlink:href="#BitstreamVeraSans-Roman-32"/>
     <use x="569.580078125" xlink:href="#BitstreamVeraSans-Roman-2d"/>
     <use x="605.6640625" xlink:href="#BitstreamVeraSans-Roman-20"/>
     <use x="637.451171875" xlink:href="#BitstreamVeraSans-Roman-53"/>
     <use x="700.927734375" xlink:href="#BitstreamVeraSans-Roman-75"/>
     <use x="764.306640625" xlink:href="#BitstreamVeraSans-Roman-63"/>
     <use x="819.287109375" xlink:href="#BitstreamVeraSans-Roman-63"/>
     <use x="874.267578125" xlink:href="#BitstreamVeraSans-Roman-65"/>
     <use x="935.791015625" xlink:href="#BitstreamVeraSans-Roman-73"/>
     <use x="987.890625" xlink:href="#BitstreamVeraSans-Roman-73"/>
     <use x="1039.99023438" xlink:href="#BitstreamVeraSans-Roman-66"/>
     <use x="1075.1953125" xlink:href="#BitstreamVeraSans-Roman-75"/>
     <use x="1138.57421875" xlink:href="#BitstreamVeraSans-Roman-6c"/>
     <use x="1166.35742188" xlink:href="#BitstreamVeraSans-Roman-20"/>
     <use x="1198.14453125" xlink:href="#BitstreamVeraSans-Roman-54"/>
     <use x="1244.47851562" xlink:href="#BitstreamVeraSans-Roman-72"/>
     <use x="1285.59179688" xlink:href="#BitstreamVeraSans-Roman-69"/>
     <use x="1313.375" xlink:href="#BitstreamVeraSans-Roman-61"/>
     <use x="1374.65429688" xlink:href="#BitstreamVeraSans-Roman-6c"/>
     <use x="1402.4375" xlink:href="#BitstreamVeraSans-Roman-2d"/>
     <use x="1436.27148438" xlink:href="#BitstreamVeraSans-Roman-41"/>
     <use x="1498.8046875" xlink:href="#BitstreamVeraSans-Roman-76"/>
     <use x="1557.984375" xlink:href="#BitstreamVeraSans-Roman-65"/>
     <use x="1619.5078125" xlink:href="#BitstreamVeraSans-Roman-72"/>
     <use x="1660.62109375" xlink:href="#BitstreamVeraSans-Roman-61"/>
     <use x="1721.90039062" xlink:href="#BitstreamVeraSans-Roman-67"/>
     <use x="1785.37695312" xlink:href="#BitstreamVeraSans-Roman-65"/>
     <use x="1846.90039062" xlink:href="#BitstreamVeraSans-Roman-64"/>
     <use x="1910.37695312" xlink:href="#BitstreamVeraSans-Roman-20"/>
     <use x="1942.1640625" xlink:href="#BitstreamVeraSans-Roman-50"/>
     <use x="2002.46679688" xlink:href="#BitstreamVeraSans-Roman-53"/>
     <use x="2065.94335938" xlink:href="#BitstreamVeraSans-Roman-44"/>
    </g>
   </g>
   <g id="legend_1">
    <g id="patch_7">
     <path d="
M363.337 435.177
L511.2 435.177
L511.2 50.4
L363.337 50.4
z
" style="fill:#ffffff;stroke:#000000;stroke-linejoin:miter;"/>
    </g>
    <g id="line2d_49">
     <path d="
M373.417 62.0617
L393.577 62.0617" style="fill:none;stroke:#ff0000;stroke-linecap:square;"/>
    </g>
    <g id="line2d_50"/>
    <g id="text_19">
     <!-- Stress Trials -->
     <defs>
      <path d="
M18.3125 70.2188
L18.3125 54.6875
L36.8125 54.6875
L36.8125 47.7031
L18.3125 47.7031
L18.3125 18.0156
Q18.3125 11.3281 20.1406 9.42188
Q21.9688 7.51562 27.5938 7.51562
L36.8125 7.51562
L36.8125 0
L27.5938 0
Q17.1875 0 13.2344 3.875
Q9.28125 7.76562 9.28125 18.0156
L9.28125 47.7031
L2.6875 47.7031
L2.6875 54.6875
L9.28125 54.6875
L9.28125 70.2188
z
" id="BitstreamVeraSans-Roman-74"/>
     </defs>
     <g transform="translate(409.41675 67.10175)scale(0.144 -0.144)">
      <use xlink:href="#BitstreamVeraSans-Roman-53"/>
      <use x="63.4765625" xlink:href="#BitstreamVeraSans-Roman-74"/>
      <use x="102.685546875" xlink:href="#BitstreamVeraSans-Roman-72"/>
      <use x="141.548828125" xlink:href="#BitstreamVeraSans-Roman-65"/>
      <use x="203.072265625" xlink:href="#BitstreamVeraSans-Roman-73"/>
      <use x="255.171875" xlink:href="#BitstreamVeraSans-Roman-73"/>
      <use x="307.271484375" xlink:href="#BitstreamVeraSans-Roman-20"/>
      <use x="339.05859375" xlink:href="#BitstreamVeraSans-Roman-54"/>
      <use x="385.392578125" xlink:href="#BitstreamVeraSans-Roman-72"/>
      <use x="426.505859375" xlink:href="#BitstreamVeraSans-Roman-69"/>
      <use x="454.2890625" xlink:href="#BitstreamVeraSans-Roman-61"/>
      <use x="515.568359375" xlink:href="#BitstreamVeraSans-Roman-6c"/>
      <use x="543.3515625" xlink:href="#BitstreamVeraSans-Roman-73"/>
     </g>
    </g>
    <g id="line2d_51">
     <path d="
M373.417 83.1982
L393.577 83.1982" style="fill:none;stroke:#0000ff;stroke-linecap:square;"/>
    </g>
    <g id="line2d_52"/>
    <g id="text_20">
     <!-- Regular Trials -->
     <defs>
      <path d="
M44.3906 34.1875
Q47.5625 33.1094 50.5625 29.5938
Q53.5625 26.0781 56.5938 19.9219
L66.6094 0
L56 0
L46.6875 18.7031
Q43.0625 26.0312 39.6719 28.4219
Q36.2812 30.8125 30.4219 30.8125
L19.6719 30.8125
L19.6719 0
L9.8125 0
L9.8125 72.9062
L32.0781 72.9062
Q44.5781 72.9062 50.7344 67.6719
Q56.8906 62.4531 56.8906 51.9062
Q56.8906 45.0156 53.6875 40.4688
Q50.4844 35.9375 44.3906 34.1875
M19.6719 64.7969
L19.6719 38.9219
L32.0781 38.9219
Q39.2031 38.9219 42.8438 42.2188
Q46.4844 45.5156 46.4844 51.9062
Q46.4844 58.2969 42.8438 61.5469
Q39.2031 64.7969 32.0781 64.7969
z
" id="BitstreamVeraSans-Roman-52"/>
     </defs>
     <g transform="translate(409.41675 88.23825)scale(0.144 -0.144)">
      <use xlink:href="#BitstreamVeraSans-Roman-52"/>
      <use x="64.982421875" xlink:href="#BitstreamVeraSans-Roman-65"/>
      <use x="126.505859375" xlink:href="#BitstreamVeraSans-Roman-67"/>
      <use x="189.982421875" xlink:href="#BitstreamVeraSans-Roman-75"/>
      <use x="253.361328125" xlink:href="#BitstreamVeraSans-Roman-6c"/>
      <use x="281.14453125" xlink:href="#BitstreamVeraSans-Roman-61"/>
      <use x="342.423828125" xlink:href="#BitstreamVeraSans-Roman-72"/>
      <use x="383.537109375" xlink:href="#BitstreamVeraSans-Roman-20"/>
      <use x="415.32421875" xlink:href="#BitstreamVeraSans-Roman-54"/>
      <use x="461.658203125" xlink:href="#BitstreamVeraSans-Roman-72"/>
      <use x="502.771484375" xlink:href="#BitstreamVeraSans-Roman-69"/>
      <use x="530.5546875" xlink:href="#BitstreamVeraSans-Roman-61"/>
      <use x="591.833984375" xlink:href="#BitstreamVeraSans-Roman-6c"/>
      <use x="619.6171875" xlink:href="#BitstreamVeraSans-Roman-73"/>
     </g>
    </g>
    <g id="line2d_53">
     <path d="
M373.417 104.335
L393.577 104.335" style="fill:none;stroke:#ff0000;stroke-linecap:square;"/>
    </g>
    <g id="line2d_54"/>
    <g id="text_21">
     <!-- Stress Trials -->
     <g transform="translate(409.41675 109.37475)scale(0.144 -0.144)">
      <use xlink:href="#BitstreamVeraSans-Roman-53"/>
      <use x="63.4765625" xlink:href="#BitstreamVeraSans-Roman-74"/>
      <use x="102.685546875" xlink:href="#BitstreamVeraSans-Roman-72"/>
      <use x="141.548828125" xlink:href="#BitstreamVeraSans-Roman-65"/>
      <use x="203.072265625" xlink:href="#BitstreamVeraSans-Roman-73"/>
      <use x="255.171875" xlink:href="#BitstreamVeraSans-Roman-73"/>
      <use x="307.271484375" xlink:href="#BitstreamVeraSans-Roman-20"/>
      <use x="339.05859375" xlink:href="#BitstreamVeraSans-Roman-54"/>
      <use x="385.392578125" xlink:href="#BitstreamVeraSans-Roman-72"/>
      <use x="426.505859375" xlink:href="#BitstreamVeraSans-Roman-69"/>
      <use x="454.2890625" xlink:href="#BitstreamVeraSans-Roman-61"/>
      <use x="515.568359375" xlink:href="#BitstreamVeraSans-Roman-6c"/>
      <use x="543.3515625" xlink:href="#BitstreamVeraSans-Roman-73"/>
     </g>
    </g>
    <g id="line2d_55">
     <path d="
M373.417 125.471
L393.577 125.471" style="fill:none;stroke:#0000ff;stroke-linecap:square;"/>
    </g>
    <g id="line2d_56"/>
    <g id="text_22">
     <!-- Regular Trials -->
     <g transform="translate(409.41675 130.51125)scale(0.144 -0.144)">
      <use xlink:href="#BitstreamVeraSans-Roman-52"/>
      <use x="64.982421875" xlink:href="#BitstreamVeraSans-Roman-65"/>
      <use x="126.505859375" xlink:href="#BitstreamVeraSans-Roman-67"/>
      <use x="189.982421875" xlink:href="#BitstreamVeraSans-Roman-75"/>
      <use x="253.361328125" xlink:href="#BitstreamVeraSans-Roman-6c"/>
      <use x="281.14453125" xlink:href="#BitstreamVeraSans-Roman-61"/>
      <use x="342.423828125" xlink:href="#BitstreamVeraSans-Roman-72"/>
      <use x="383.537109375" xlink:href="#BitstreamVeraSans-Roman-20"/>
      <use x="415.32421875" xlink:href="#BitstreamVeraSans-Roman-54"/>
      <use x="461.658203125" xlink:href="#BitstreamVeraSans-Roman-72"/>
      <use x="502.771484375" xlink:href="#BitstreamVeraSans-Roman-69"/>
      <use x="530.5546875" xlink:href="#BitstreamVeraSans-Roman-61"/>
      <use x="591.833984375" xlink:href="#BitstreamVeraSans-Roman-6c"/>
      <use x="619.6171875" xlink:href="#BitstreamVeraSans-Roman-73"/>
     </g>
    </g>
    <g id="line2d_57">
     <path d="
M373.417 146.608
L393.577 146.608" style="fill:none;stroke:#ff0000;stroke-linecap:square;"/>
    </g>
    <g id="line2d_58"/>
    <g id="text_23">
     <!-- Stress Trials -->
     <g transform="translate(409.41675 151.64775)scale(0.144 -0.144)">
      <use xlink:href="#BitstreamVeraSans-Roman-53"/>
      <use x="63.4765625" xlink:href="#BitstreamVeraSans-Roman-74"/>
      <use x="102.685546875" xlink:href="#BitstreamVeraSans-Roman-72"/>
      <use x="141.548828125" xlink:href="#BitstreamVeraSans-Roman-65"/>
      <use x="203.072265625" xlink:href="#BitstreamVeraSans-Roman-73"/>
      <use x="255.171875" xlink:href="#BitstreamVeraSans-Roman-73"/>
      <use x="307.271484375" xlink:href="#BitstreamVeraSans-Roman-20"/>
      <use x="339.05859375" xlink:href="#BitstreamVeraSans-Roman-54"/>
      <use x="385.392578125" xlink:href="#BitstreamVeraSans-Roman-72"/>
      <use x="426.505859375" xlink:href="#BitstreamVeraSans-Roman-69"/>
      <use x="454.2890625" xlink:href="#BitstreamVeraSans-Roman-61"/>
      <use x="515.568359375" xlink:href="#BitstreamVeraSans-Roman-6c"/>
      <use x="543.3515625" xlink:href="#BitstreamVeraSans-Roman-73"/>
     </g>
    </g>
    <g id="line2d_59">
     <path d="
M373.417 167.744
L393.577 167.744" style="fill:none;stroke:#0000ff;stroke-linecap:square;"/>
    </g>
    <g id="line2d_60"/>
    <g id="text_24">
     <!-- Regular Trials -->
     <g transform="translate(409.41675 172.78425)scale(0.144 -0.144)">
      <use xlink:href="#BitstreamVeraSans-Roman-52"/>
      <use x="64.982421875" xlink:href="#BitstreamVeraSans-Roman-65"/>
      <use x="126.505859375" xlink:href="#BitstreamVeraSans-Roman-67"/>
      <use x="189.982421875" xlink:href="#BitstreamVeraSans-Roman-75"/>
      <use x="253.361328125" xlink:href="#BitstreamVeraSans-Roman-6c"/>
      <use x="281.14453125" xlink:href="#BitstreamVeraSans-Roman-61"/>
      <use x="342.423828125" xlink:href="#BitstreamVeraSans-Roman-72"/>
      <use x="383.537109375" xlink:href="#BitstreamVeraSans-Roman-20"/>
      <use x="415.32421875" xlink:href="#BitstreamVeraSans-Roman-54"/>
      <use x="461.658203125" xlink:href="#BitstreamVeraSans-Roman-72"/>
      <use x="502.771484375" xlink:href="#BitstreamVeraSans-Roman-69"/>
      <use x="530.5546875" xlink:href="#BitstreamVeraSans-Roman-61"/>
      <use x="591.833984375" xlink:href="#BitstreamVeraSans-Roman-6c"/>
      <use x="619.6171875" xlink:href="#BitstreamVeraSans-Roman-73"/>
     </g>
    </g>
    <g id="line2d_61">
     <path d="
M373.417 188.881
L393.577 188.881" style="fill:none;stroke:#ff0000;stroke-linecap:square;"/>
    </g>
    <g id="line2d_62"/>
    <g id="text_25">
     <!-- Stress Trials -->
     <g transform="translate(409.41675 193.92075)scale(0.144 -0.144)">
      <use xlink:href="#BitstreamVeraSans-Roman-53"/>
      <use x="63.4765625" xlink:href="#BitstreamVeraSans-Roman-74"/>
      <use x="102.685546875" xlink:href="#BitstreamVeraSans-Roman-72"/>
      <use x="141.548828125" xlink:href="#BitstreamVeraSans-Roman-65"/>
      <use x="203.072265625" xlink:href="#BitstreamVeraSans-Roman-73"/>
      <use x="255.171875" xlink:href="#BitstreamVeraSans-Roman-73"/>
      <use x="307.271484375" xlink:href="#BitstreamVeraSans-Roman-20"/>
      <use x="339.05859375" xlink:href="#BitstreamVeraSans-Roman-54"/>
      <use x="385.392578125" xlink:href="#BitstreamVeraSans-Roman-72"/>
      <use x="426.505859375" xlink:href="#BitstreamVeraSans-Roman-69"/>
      <use x="454.2890625" xlink:href="#BitstreamVeraSans-Roman-61"/>
      <use x="515.568359375" xlink:href="#BitstreamVeraSans-Roman-6c"/>
      <use x="543.3515625" xlink:href="#BitstreamVeraSans-Roman-73"/>
     </g>
    </g>
    <g id="line2d_63">
     <path d="
M373.417 210.017
L393.577 210.017" style="fill:none;stroke:#0000ff;stroke-linecap:square;"/>
    </g>
    <g id="line2d_64"/>
    <g id="text_26">
     <!-- Regular Trials -->
     <g transform="translate(409.41675 215.05725)scale(0.144 -0.144)">
      <use xlink:href="#BitstreamVeraSans-Roman-52"/>
      <use x="64.982421875" xlink:href="#BitstreamVeraSans-Roman-65"/>
      <use x="126.505859375" xlink:href="#BitstreamVeraSans-Roman-67"/>
      <use x="189.982421875" xlink:href="#BitstreamVeraSans-Roman-75"/>
      <use x="253.361328125" xlink:href="#BitstreamVeraSans-Roman-6c"/>
      <use x="281.14453125" xlink:href="#BitstreamVeraSans-Roman-61"/>
      <use x="342.423828125" xlink:href="#BitstreamVeraSans-Roman-72"/>
      <use x="383.537109375" xlink:href="#BitstreamVeraSans-Roman-20"/>
      <use x="415.32421875" xlink:href="#BitstreamVeraSans-Roman-54"/>
      <use x="461.658203125" xlink:href="#BitstreamVeraSans-Roman-72"/>
      <use x="502.771484375" xlink:href="#BitstreamVeraSans-Roman-69"/>
      <use x="530.5546875" xlink:href="#BitstreamVeraSans-Roman-61"/>
      <use x="591.833984375" xlink:href="#BitstreamVeraSans-Roman-6c"/>
      <use x="619.6171875" xlink:href="#BitstreamVeraSans-Roman-73"/>
     </g>
    </g>
    <g id="line2d_65">
     <path d="
M373.417 231.154
L393.577 231.154" style="fill:none;stroke:#ff0000;stroke-linecap:square;"/>
    </g>
    <g id="line2d_66"/>
    <g id="text_27">
     <!-- Stress Trials -->
     <g transform="translate(409.41675 236.19375)scale(0.144 -0.144)">
      <use xlink:href="#BitstreamVeraSans-Roman-53"/>
      <use x="63.4765625" xlink:href="#BitstreamVeraSans-Roman-74"/>
      <use x="102.685546875" xlink:href="#BitstreamVeraSans-Roman-72"/>
      <use x="141.548828125" xlink:href="#BitstreamVeraSans-Roman-65"/>
      <use x="203.072265625" xlink:href="#BitstreamVeraSans-Roman-73"/>
      <use x="255.171875" xlink:href="#BitstreamVeraSans-Roman-73"/>
      <use x="307.271484375" xlink:href="#BitstreamVeraSans-Roman-20"/>
      <use x="339.05859375" xlink:href="#BitstreamVeraSans-Roman-54"/>
      <use x="385.392578125" xlink:href="#BitstreamVeraSans-Roman-72"/>
      <use x="426.505859375" xlink:href="#BitstreamVeraSans-Roman-69"/>
      <use x="454.2890625" xlink:href="#BitstreamVeraSans-Roman-61"/>
      <use x="515.568359375" xlink:href="#BitstreamVeraSans-Roman-6c"/>
      <use x="543.3515625" xlink:href="#BitstreamVeraSans-Roman-73"/>
     </g>
    </g>
    <g id="line2d_67">
     <path d="
M373.417 252.29
L393.577 252.29" style="fill:none;stroke:#0000ff;stroke-linecap:square;"/>
    </g>
    <g id="line2d_68"/>
    <g id="text_28">
     <!-- Regular Trials -->
     <g transform="translate(409.41675 257.33025)scale(0.144 -0.144)">
      <use xlink:href="#BitstreamVeraSans-Roman-52"/>
      <use x="64.982421875" xlink:href="#BitstreamVeraSans-Roman-65"/>
      <use x="126.505859375" xlink:href="#BitstreamVeraSans-Roman-67"/>
      <use x="189.982421875" xlink:href="#BitstreamVeraSans-Roman-75"/>
      <use x="253.361328125" xlink:href="#BitstreamVeraSans-Roman-6c"/>
      <use x="281.14453125" xlink:href="#BitstreamVeraSans-Roman-61"/>
      <use x="342.423828125" xlink:href="#BitstreamVeraSans-Roman-72"/>
      <use x="383.537109375" xlink:href="#BitstreamVeraSans-Roman-20"/>
      <use x="415.32421875" xlink:href="#BitstreamVeraSans-Roman-54"/>
      <use x="461.658203125" xlink:href="#BitstreamVeraSans-Roman-72"/>
      <use x="502.771484375" xlink:href="#BitstreamVeraSans-Roman-69"/>
      <use x="530.5546875" xlink:href="#BitstreamVeraSans-Roman-61"/>
      <use x="591.833984375" xlink:href="#BitstreamVeraSans-Roman-6c"/>
      <use x="619.6171875" xlink:href="#BitstreamVeraSans-Roman-73"/>
     </g>
    </g>
    <g id="line2d_69">
     <path d="
M373.417 273.427
L393.577 273.427" style="fill:none;stroke:#ff0000;stroke-linecap:square;"/>
    </g>
    <g id="line2d_70"/>
    <g id="text_29">
     <!-- Stress Trials -->
     <g transform="translate(409.41675 278.46675)scale(0.144 -0.144)">
      <use xlink:href="#BitstreamVeraSans-Roman-53"/>
      <use x="63.4765625" xlink:href="#BitstreamVeraSans-Roman-74"/>
      <use x="102.685546875" xlink:href="#BitstreamVeraSans-Roman-72"/>
      <use x="141.548828125" xlink:href="#BitstreamVeraSans-Roman-65"/>
      <use x="203.072265625" xlink:href="#BitstreamVeraSans-Roman-73"/>
      <use x="255.171875" xlink:href="#BitstreamVeraSans-Roman-73"/>
      <use x="307.271484375" xlink:href="#BitstreamVeraSans-Roman-20"/>
      <use x="339.05859375" xlink:href="#BitstreamVeraSans-Roman-54"/>
      <use x="385.392578125" xlink:href="#BitstreamVeraSans-Roman-72"/>
      <use x="426.505859375" xlink:href="#BitstreamVeraSans-Roman-69"/>
      <use x="454.2890625" xlink:href="#BitstreamVeraSans-Roman-61"/>
      <use x="515.568359375" xlink:href="#BitstreamVeraSans-Roman-6c"/>
      <use x="543.3515625" xlink:href="#BitstreamVeraSans-Roman-73"/>
     </g>
    </g>
    <g id="line2d_71">
     <path d="
M373.417 294.563
L393.577 294.563" style="fill:none;stroke:#0000ff;stroke-linecap:square;"/>
    </g>
    <g id="line2d_72"/>
    <g id="text_30">
     <!-- Regular Trials -->
     <g transform="translate(409.41675 299.60325)scale(0.144 -0.144)">
      <use xlink:href="#BitstreamVeraSans-Roman-52"/>
      <use x="64.982421875" xlink:href="#BitstreamVeraSans-Roman-65"/>
      <use x="126.505859375" xlink:href="#BitstreamVeraSans-Roman-67"/>
      <use x="189.982421875" xlink:href="#BitstreamVeraSans-Roman-75"/>
      <use x="253.361328125" xlink:href="#BitstreamVeraSans-Roman-6c"/>
      <use x="281.14453125" xlink:href="#BitstreamVeraSans-Roman-61"/>
      <use x="342.423828125" xlink:href="#BitstreamVeraSans-Roman-72"/>
      <use x="383.537109375" xlink:href="#BitstreamVeraSans-Roman-20"/>
      <use x="415.32421875" xlink:href="#BitstreamVeraSans-Roman-54"/>
      <use x="461.658203125" xlink:href="#BitstreamVeraSans-Roman-72"/>
      <use x="502.771484375" xlink:href="#BitstreamVeraSans-Roman-69"/>
      <use x="530.5546875" xlink:href="#BitstreamVeraSans-Roman-61"/>
      <use x="591.833984375" xlink:href="#BitstreamVeraSans-Roman-6c"/>
      <use x="619.6171875" xlink:href="#BitstreamVeraSans-Roman-73"/>
     </g>
    </g>
    <g id="line2d_73">
     <path d="
M373.417 315.7
L393.577 315.7" style="fill:none;stroke:#ff0000;stroke-linecap:square;"/>
    </g>
    <g id="line2d_74"/>
    <g id="text_31">
     <!-- Stress Trials -->
     <g transform="translate(409.41675 320.73975)scale(0.144 -0.144)">
      <use xlink:href="#BitstreamVeraSans-Roman-53"/>
      <use x="63.4765625" xlink:href="#BitstreamVeraSans-Roman-74"/>
      <use x="102.685546875" xlink:href="#BitstreamVeraSans-Roman-72"/>
      <use x="141.548828125" xlink:href="#BitstreamVeraSans-Roman-65"/>
      <use x="203.072265625" xlink:href="#BitstreamVeraSans-Roman-73"/>
      <use x="255.171875" xlink:href="#BitstreamVeraSans-Roman-73"/>
      <use x="307.271484375" xlink:href="#BitstreamVeraSans-Roman-20"/>
      <use x="339.05859375" xlink:href="#BitstreamVeraSans-Roman-54"/>
      <use x="385.392578125" xlink:href="#BitstreamVeraSans-Roman-72"/>
      <use x="426.505859375" xlink:href="#BitstreamVeraSans-Roman-69"/>
      <use x="454.2890625" xlink:href="#BitstreamVeraSans-Roman-61"/>
      <use x="515.568359375" xlink:href="#BitstreamVeraSans-Roman-6c"/>
      <use x="543.3515625" xlink:href="#BitstreamVeraSans-Roman-73"/>
     </g>
    </g>
    <g id="line2d_75">
     <path d="
M373.417 336.836
L393.577 336.836" style="fill:none;stroke:#0000ff;stroke-linecap:square;"/>
    </g>
    <g id="line2d_76"/>
    <g id="text_32">
     <!-- Regular Trials -->
     <g transform="translate(409.41675 341.87625)scale(0.144 -0.144)">
      <use xlink:href="#BitstreamVeraSans-Roman-52"/>
      <use x="64.982421875" xlink:href="#BitstreamVeraSans-Roman-65"/>
      <use x="126.505859375" xlink:href="#BitstreamVeraSans-Roman-67"/>
      <use x="189.982421875" xlink:href="#BitstreamVeraSans-Roman-75"/>
      <use x="253.361328125" xlink:href="#BitstreamVeraSans-Roman-6c"/>
      <use x="281.14453125" xlink:href="#BitstreamVeraSans-Roman-61"/>
      <use x="342.423828125" xlink:href="#BitstreamVeraSans-Roman-72"/>
      <use x="383.537109375" xlink:href="#BitstreamVeraSans-Roman-20"/>
      <use x="415.32421875" xlink:href="#BitstreamVeraSans-Roman-54"/>
      <use x="461.658203125" xlink:href="#BitstreamVeraSans-Roman-72"/>
      <use x="502.771484375" xlink:href="#BitstreamVeraSans-Roman-69"/>
      <use x="530.5546875" xlink:href="#BitstreamVeraSans-Roman-61"/>
      <use x="591.833984375" xlink:href="#BitstreamVeraSans-Roman-6c"/>
      <use x="619.6171875" xlink:href="#BitstreamVeraSans-Roman-73"/>
     </g>
    </g>
    <g id="line2d_77">
     <path d="
M373.417 357.973
L393.577 357.973" style="fill:none;stroke:#ff0000;stroke-linecap:square;"/>
    </g>
    <g id="line2d_78"/>
    <g id="text_33">
     <!-- Stress Trials -->
     <g transform="translate(409.41675 363.01275)scale(0.144 -0.144)">
      <use xlink:href="#BitstreamVeraSans-Roman-53"/>
      <use x="63.4765625" xlink:href="#BitstreamVeraSans-Roman-74"/>
      <use x="102.685546875" xlink:href="#BitstreamVeraSans-Roman-72"/>
      <use x="141.548828125" xlink:href="#BitstreamVeraSans-Roman-65"/>
      <use x="203.072265625" xlink:href="#BitstreamVeraSans-Roman-73"/>
      <use x="255.171875" xlink:href="#BitstreamVeraSans-Roman-73"/>
      <use x="307.271484375" xlink:href="#BitstreamVeraSans-Roman-20"/>
      <use x="339.05859375" xlink:href="#BitstreamVeraSans-Roman-54"/>
      <use x="385.392578125" xlink:href="#BitstreamVeraSans-Roman-72"/>
      <use x="426.505859375" xlink:href="#BitstreamVeraSans-Roman-69"/>
      <use x="454.2890625" xlink:href="#BitstreamVeraSans-Roman-61"/>
      <use x="515.568359375" xlink:href="#BitstreamVeraSans-Roman-6c"/>
      <use x="543.3515625" xlink:href="#BitstreamVeraSans-Roman-73"/>
     </g>
    </g>
    <g id="line2d_79">
     <path d="
M373.417 379.109
L393.577 379.109" style="fill:none;stroke:#0000ff;stroke-linecap:square;"/>
    </g>
    <g id="line2d_80"/>
    <g id="text_34">
     <!-- Regular Trials -->
     <g transform="translate(409.41675 384.14925)scale(0.144 -0.144)">
      <use xlink:href="#BitstreamVeraSans-Roman-52"/>
      <use x="64.982421875" xlink:href="#BitstreamVeraSans-Roman-65"/>
      <use x="126.505859375" xlink:href="#BitstreamVeraSans-Roman-67"/>
      <use x="189.982421875" xlink:href="#BitstreamVeraSans-Roman-75"/>
      <use x="253.361328125" xlink:href="#BitstreamVeraSans-Roman-6c"/>
      <use x="281.14453125" xlink:href="#BitstreamVeraSans-Roman-61"/>
      <use x="342.423828125" xlink:href="#BitstreamVeraSans-Roman-72"/>
      <use x="383.537109375" xlink:href="#BitstreamVeraSans-Roman-20"/>
      <use x="415.32421875" xlink:href="#BitstreamVeraSans-Roman-54"/>
      <use x="461.658203125" xlink:href="#BitstreamVeraSans-Roman-72"/>
      <use x="502.771484375" xlink:href="#BitstreamVeraSans-Roman-69"/>
      <use x="530.5546875" xlink:href="#BitstreamVeraSans-Roman-61"/>
      <use x="591.833984375" xlink:href="#BitstreamVeraSans-Roman-6c"/>
      <use x="619.6171875" xlink:href="#BitstreamVeraSans-Roman-73"/>
     </g>
    </g>
    <g id="line2d_81">
     <path d="
M373.417 400.246
L393.577 400.246" style="fill:none;stroke:#ff0000;stroke-linecap:square;"/>
    </g>
    <g id="line2d_82"/>
    <g id="text_35">
     <!-- Stress Trials -->
     <g transform="translate(409.41675 405.28575)scale(0.144 -0.144)">
      <use xlink:href="#BitstreamVeraSans-Roman-53"/>
      <use x="63.4765625" xlink:href="#BitstreamVeraSans-Roman-74"/>
      <use x="102.685546875" xlink:href="#BitstreamVeraSans-Roman-72"/>
      <use x="141.548828125" xlink:href="#BitstreamVeraSans-Roman-65"/>
      <use x="203.072265625" xlink:href="#BitstreamVeraSans-Roman-73"/>
      <use x="255.171875" xlink:href="#BitstreamVeraSans-Roman-73"/>
      <use x="307.271484375" xlink:href="#BitstreamVeraSans-Roman-20"/>
      <use x="339.05859375" xlink:href="#BitstreamVeraSans-Roman-54"/>
      <use x="385.392578125" xlink:href="#BitstreamVeraSans-Roman-72"/>
      <use x="426.505859375" xlink:href="#BitstreamVeraSans-Roman-69"/>
      <use x="454.2890625" xlink:href="#BitstreamVeraSans-Roman-61"/>
      <use x="515.568359375" xlink:href="#BitstreamVeraSans-Roman-6c"/>
      <use x="543.3515625" xlink:href="#BitstreamVeraSans-Roman-73"/>
     </g>
    </g>
    <g id="line2d_83">
     <path d="
M373.417 421.382
L393.577 421.382" style="fill:none;stroke:#0000ff;stroke-linecap:square;"/>
    </g>
    <g id="line2d_84"/>
    <g id="text_36">
     <!-- Regular Trials -->
     <g transform="translate(409.41675 426.42225)scale(0.144 -0.144)">
      <use xlink:href="#BitstreamVeraSans-Roman-52"/>
      <use x="64.982421875" xlink:href="#BitstreamVeraSans-Roman-65"/>
      <use x="126.505859375" xlink:href="#BitstreamVeraSans-Roman-67"/>
      <use x="189.982421875" xlink:href="#BitstreamVeraSans-Roman-75"/>
      <use x="253.361328125" xlink:href="#BitstreamVeraSans-Roman-6c"/>
      <use x="281.14453125" xlink:href="#BitstreamVeraSans-Roman-61"/>
      <use x="342.423828125" xlink:href="#BitstreamVeraSans-Roman-72"/>
      <use x="383.537109375" xlink:href="#BitstreamVeraSans-Roman-20"/>
      <use x="415.32421875" xlink:href="#BitstreamVeraSans-Roman-54"/>
      <use x="461.658203125" xlink:href="#BitstreamVeraSans-Roman-72"/>
      <use x="502.771484375" xlink:href="#BitstreamVeraSans-Roman-69"/>
      <use x="530.5546875" xlink:href="#BitstreamVeraSans-Roman-61"/>
      <use x="591.833984375" xlink:href="#BitstreamVeraSans-Roman-6c"/>
      <use x="619.6171875" xlink:href="#BitstreamVeraSans-Roman-73"/>
     </g>
    </g>
   </g>
  </g>
 </g>
 <defs>
  <clipPath id="p7ff5b81e1d">
   <rect height="345.6" width="446.4" x="72.0" y="43.2"/>
  </clipPath>
 </defs>
</svg>
