<?xml version="1.0" encoding="utf-8" standalone="no"?>
<!DOCTYPE svg PUBLIC "-//W3C//DTD SVG 1.1//EN"
  "http://www.w3.org/Graphics/SVG/1.1/DTD/svg11.dtd">
<!-- Created with matplotlib (http://matplotlib.org/) -->
<svg height="432pt" version="1.1" viewBox="0 0 576 432" width="576pt" xmlns="http://www.w3.org/2000/svg" xmlns:xlink="http://www.w3.org/1999/xlink">
 <defs>
  <style type="text/css">
*{stroke-linecap:butt;stroke-linejoin:round;}
  </style>
 </defs>
 <g id="figure_1">
  <g id="patch_1">
   <path d="
M0 432
L576 432
L576 0
L0 0
z
" style="fill:#ffffff;"/>
  </g>
  <g id="axes_1">
   <g id="patch_2">
    <path d="
M72 388.8
L274.909 388.8
L274.909 43.2
L72 43.2
z
" style="fill:#ffffff;"/>
   </g>
   <g id="line2d_1">
    <path clip-path="url(#p346f55e68c)" d="
M72 340.895
L78.7636 330.63
L85.5273 289.568
L92.2909 327.208
L99.0545 337.473
L105.818 316.943
L112.582 334.051
L119.345 344.317
L126.109 344.317
L132.873 316.943
L139.636 269.038
L146.4 323.786
L153.164 316.943
L159.927 347.739
L166.691 337.473
L173.455 323.786
L180.218 337.473
L186.982 327.208
L193.745 354.582
L200.509 347.739
L207.273 337.473
L214.036 354.582
L220.8 340.895
L227.564 340.895
L234.327 358.004
L241.091 358.004
L247.855 347.739
L254.618 354.582
L261.382 310.099" style="fill:none;stroke:#ff0000;stroke-linecap:square;"/>
   </g>
   <g id="line2d_2">
    <path clip-path="url(#p346f55e68c)" d="
M72 292.99
L78.7636 265.616
L85.5273 269.038
L92.2909 231.398
L99.0545 282.725
L105.818 272.459
L112.582 265.616
L119.345 258.772
L126.109 275.881
L132.873 234.82
L139.636 265.616
L146.4 282.725
L153.164 258.772
L159.927 303.255
L166.691 303.255
L173.455 327.208
L180.218 310.099
L186.982 296.412
L193.745 310.099
L200.509 327.208
L207.273 292.99
L214.036 299.834
L220.8 316.943
L227.564 275.881
L234.327 313.521
L241.091 303.255
L247.855 313.521
L254.618 299.834
L261.382 310.099" style="fill:none;stroke:#ff0800;stroke-linecap:square;"/>
   </g>
   <g id="line2d_3">
    <path clip-path="url(#p346f55e68c)" d="
M72 166.384
L78.7636 166.384
L85.5273 135.588
L92.2909 125.323
L99.0545 108.214
L105.818 152.697
L112.582 139.01
L119.345 67.1525
L126.109 132.166
L132.873 145.853
L139.636 135.588
L146.4 139.01
L153.164 125.323
L159.927 152.697
L166.691 73.996
L173.455 166.384
L180.218 111.636
L186.982 121.901
L193.745 101.37
L200.509 145.853
L207.273 115.057
L214.036 101.37
L220.8 132.166
L227.564 104.792
L234.327 80.8396
L241.091 142.432
L247.855 125.323
L254.618 115.057
L261.382 152.697" style="fill:none;stroke:#ff1000;stroke-linecap:square;"/>
   </g>
   <g id="line2d_4">
    <path clip-path="url(#p346f55e68c)" d="
M72 351.16
L78.7636 351.16
L85.5273 364.848
L92.2909 351.16
L99.0545 368.269
L105.818 364.848
L112.582 351.16
L119.345 385.378
L126.109 361.426
L132.873 361.426
L139.636 347.739
L146.4 364.848
L153.164 320.364
L159.927 330.63
L166.691 337.473
L173.455 337.473
L180.218 334.051
L186.982 347.739
L193.745 347.739
L200.509 334.051
L207.273 340.895
L214.036 323.786
L220.8 296.412
L227.564 334.051
L234.327 334.051
L241.091 358.004
L247.855 347.739
L254.618 361.426
L261.382 354.582" style="fill:none;stroke:#ff1800;stroke-linecap:square;"/>
   </g>
   <g id="line2d_5">
    <path clip-path="url(#p346f55e68c)" d="
M72 316.943
L78.7636 351.16
L85.5273 327.208
L92.2909 323.786
L99.0545 354.582
L105.818 344.317
L112.582 361.426
L119.345 334.051
L126.109 351.16
L132.873 323.786
L139.636 299.834
L146.4 275.881
L153.164 313.521
L159.927 303.255
L166.691 279.303
L173.455 306.677
L180.218 320.364
L186.982 310.099
L193.745 313.521
L200.509 313.521
L207.273 258.772
L214.036 292.99
L220.8 303.255
L227.564 323.786
L234.327 337.473
L241.091 330.63
L247.855 347.739
L254.618 337.473
L261.382 334.051" style="fill:none;stroke:#ff2100;stroke-linecap:square;"/>
   </g>
   <g id="line2d_6">
    <path clip-path="url(#p346f55e68c)" d="
M72 347.739
L78.7636 368.269
L85.5273 361.426
L92.2909 364.848
L99.0545 368.269
L105.818 364.848
L112.582 361.426
L119.345 354.582
L126.109 361.426
L132.873 358.004
L139.636 361.426
L146.4 351.16
L153.164 368.269
L159.927 344.317
L166.691 364.848
L173.455 371.691
L180.218 371.691
L186.982 340.895
L193.745 378.535
L200.509 358.004
L207.273 354.582
L214.036 358.004
L220.8 347.739
L227.564 364.848
L234.327 358.004
L241.091 340.895
L247.855 354.582
L254.618 361.426
L261.382 358.004" style="fill:none;stroke:#ff2900;stroke-linecap:square;"/>
   </g>
   <g id="line2d_7">
    <path clip-path="url(#p346f55e68c)" d="
M72 344.317
L78.7636 337.473
L85.5273 330.63
L92.2909 337.473
L99.0545 344.317
L105.818 340.895
L112.582 330.63
L119.345 334.051
L126.109 340.895
L132.873 337.473
L139.636 327.208
L146.4 327.208
L153.164 327.208
L159.927 351.16
L166.691 358.004
L173.455 330.63
L180.218 354.582
L186.982 344.317
L193.745 358.004
L200.509 344.317
L207.273 337.473
L214.036 351.16
L220.8 323.786
L227.564 344.317
L234.327 358.004
L241.091 323.786
L247.855 340.895
L254.618 306.677
L261.382 313.521" style="fill:none;stroke:#ff3100;stroke-linecap:square;"/>
   </g>
   <g id="line2d_8">
    <path clip-path="url(#p346f55e68c)" d="
M72 299.834
L78.7636 306.677
L85.5273 323.786
L92.2909 316.943
L99.0545 327.208
L105.818 310.099
L112.582 306.677
L119.345 299.834
L126.109 272.459
L132.873 306.677
L139.636 306.677
L146.4 292.99
L153.164 306.677
L159.927 347.739
L166.691 368.269
L173.455 385.378
L180.218 385.378
L186.982 378.535
L193.745 388.8
L200.509 385.378
L207.273 378.535
L214.036 371.691
L220.8 378.535
L227.564 381.956
L234.327 388.8
L241.091 385.378
L247.855 385.378
L254.618 381.956
L261.382 381.956" style="fill:none;stroke:#ff3900;stroke-linecap:square;"/>
   </g>
   <g id="line2d_9">
    <path clip-path="url(#p346f55e68c)" d="
M72 292.99
L78.7636 316.943
L85.5273 323.786
L92.2909 310.099
L99.0545 303.255
L105.818 313.521
L112.582 316.943
L119.345 313.521
L126.109 330.63
L132.873 306.677
L139.636 340.895
L146.4 330.63
L153.164 364.848
L159.927 375.113
L166.691 340.895
L173.455 340.895
L180.218 354.582
L186.982 340.895
L193.745 337.473
L200.509 354.582
L207.273 320.364
L214.036 344.317
L220.8 344.317
L227.564 344.317
L234.327 320.364
L241.091 344.317
L247.855 316.943
L254.618 299.834
L261.382 313.521" style="fill:none;stroke:#ff4200;stroke-linecap:square;"/>
   </g>
   <g id="line2d_10">
    <path clip-path="url(#p346f55e68c)" d="
M72 323.786
L78.7636 320.364
L85.5273 344.317
L92.2909 351.16
L99.0545 310.099
L105.818 299.834
L112.582 299.834
L119.345 323.786
L126.109 368.269
L132.873 351.16
L139.636 375.113
L146.4 371.691
L153.164 375.113
L159.927 371.691
L166.691 381.956
L173.455 368.269
L180.218 364.848
L186.982 378.535
L193.745 364.848
L200.509 364.848
L207.273 361.426
L214.036 340.895
L220.8 327.208
L227.564 351.16
L234.327 347.739
L241.091 340.895
L247.855 323.786
L254.618 347.739
L261.382 354.582" style="fill:none;stroke:#ff4a00;stroke-linecap:square;"/>
   </g>
   <g id="line2d_11">
    <path clip-path="url(#p346f55e68c)" d="
M72 316.943
L78.7636 354.582
L85.5273 337.473
L92.2909 337.473
L99.0545 354.582
L105.818 368.269
L112.582 378.535
L119.345 364.848
L126.109 368.269
L132.873 330.63
L139.636 316.943
L146.4 310.099
L153.164 292.99
L159.927 279.303
L166.691 227.976
L173.455 241.663
L180.218 227.976
L186.982 241.663
L193.745 282.725
L200.509 296.412
L207.273 289.568
L214.036 292.99
L220.8 340.895
L227.564 330.63
L234.327 327.208
L241.091 286.147
L247.855 251.929
L254.618 231.398
L261.382 193.758" style="fill:none;stroke:#ff5200;stroke-linecap:square;"/>
   </g>
   <g id="line2d_12">
    <path clip-path="url(#p346f55e68c)" d="
M72 258.772
L78.7636 214.289
L85.5273 227.976
L92.2909 258.772
L99.0545 265.616
L105.818 269.038
L112.582 241.663
L119.345 227.976
L126.109 275.881
L132.873 234.82
L139.636 214.289
L146.4 221.133
L153.164 265.616
L159.927 265.616
L166.691 296.412
L173.455 286.147
L180.218 286.147
L186.982 299.834
L193.745 275.881
L200.509 286.147
L207.273 265.616
L214.036 275.881
L220.8 265.616
L227.564 279.303
L234.327 262.194
L241.091 279.303
L247.855 296.412
L254.618 269.038
L261.382 279.303" style="fill:none;stroke:#ff5a00;stroke-linecap:square;"/>
   </g>
   <g id="line2d_13">
    <path clip-path="url(#p346f55e68c)" d="
M72 296.412
L78.7636 337.473
L85.5273 296.412
L92.2909 306.677
L99.0545 340.895
L105.818 313.521
L112.582 361.426
L119.345 351.16
L126.109 364.848
L132.873 368.269
L139.636 347.739
L146.4 368.269
L153.164 375.113
L159.927 378.535
L166.691 381.956
L173.455 378.535
L180.218 371.691
L186.982 375.113
L193.745 375.113
L200.509 354.582
L207.273 351.16
L214.036 358.004
L220.8 364.848
L227.564 347.739
L234.327 358.004
L241.091 368.269
L247.855 354.582
L254.618 351.16
L261.382 351.16" style="fill:none;stroke:#ff6300;stroke-linecap:square;"/>
   </g>
   <g id="line2d_14">
    <path clip-path="url(#p346f55e68c)" d="
M72 248.507
L78.7636 269.038
L85.5273 258.772
L92.2909 269.038
L99.0545 258.772
L105.818 238.242
L112.582 255.35
L119.345 227.976
L126.109 217.711
L132.873 166.384
L139.636 190.337
L146.4 251.929
L153.164 162.962
L159.927 139.01
L166.691 190.337
L173.455 125.323
L180.218 118.479
L186.982 145.853
L193.745 128.745
L200.509 176.65
L207.273 132.166
L214.036 234.82
L220.8 193.758
L227.564 210.867
L234.327 241.663
L241.091 262.194
L247.855 227.976
L254.618 251.929
L261.382 275.881" style="fill:none;stroke:#ff6b00;stroke-linecap:square;"/>
   </g>
   <g id="line2d_15">
    <path clip-path="url(#p346f55e68c)" d="
M72 361.426
L78.7636 347.739
L85.5273 354.582
L92.2909 316.943
L99.0545 337.473
L105.818 316.943
L112.582 330.63
L119.345 330.63
L126.109 334.051
L132.873 323.786
L139.636 358.004
L146.4 334.051
L153.164 344.317
L159.927 368.269
L166.691 354.582
L173.455 347.739
L180.218 344.317
L186.982 344.317
L193.745 371.691
L200.509 358.004
L207.273 354.582
L214.036 361.426
L220.8 354.582
L227.564 354.582
L234.327 358.004
L241.091 358.004
L247.855 361.426
L254.618 351.16
L261.382 358.004" style="fill:none;stroke:#ff7300;stroke-linecap:square;"/>
   </g>
   <g id="line2d_16">
    <path clip-path="url(#p346f55e68c)" d="
M72 310.099
L78.7636 279.303
L85.5273 299.834
L92.2909 327.208
L99.0545 316.943
L105.818 330.63
L112.582 323.786
L119.345 334.051
L126.109 310.099
L132.873 296.412
L139.636 296.412
L146.4 282.725
L153.164 265.616
L159.927 289.568
L166.691 282.725
L173.455 238.242
L180.218 282.725
L186.982 289.568
L193.745 282.725
L200.509 296.412
L207.273 306.677
L214.036 289.568
L220.8 330.63
L227.564 330.63
L234.327 323.786
L241.091 327.208
L247.855 334.051
L254.618 316.943
L261.382 299.834" style="fill:none;stroke:#ff7b00;stroke-linecap:square;"/>
   </g>
   <g id="line2d_17">
    <path clip-path="url(#p346f55e68c)" d="
M72 262.194
L78.7636 245.085
L85.5273 310.099
L92.2909 275.881
L99.0545 289.568
L105.818 265.616
L112.582 296.412
L119.345 279.303
L126.109 289.568
L132.873 306.677
L139.636 272.459
L146.4 289.568
L153.164 269.038
L159.927 289.568
L166.691 299.834
L173.455 262.194
L180.218 286.147
L186.982 275.881
L193.745 255.35
L200.509 245.085
L207.273 217.711
L214.036 245.085
L220.8 245.085
L227.564 221.133
L234.327 234.82
L241.091 275.881
L247.855 234.82
L254.618 296.412
L261.382 258.772" style="fill:none;stroke:#ff8400;stroke-linecap:square;"/>
   </g>
   <g id="line2d_18">
    <path clip-path="url(#p346f55e68c)" d="
M72 368.269
L78.7636 371.691
L85.5273 385.378
L92.2909 378.535
L99.0545 368.269
L105.818 385.378
L112.582 381.956
L119.345 385.378
L126.109 368.269
L132.873 378.535
L139.636 375.113
L146.4 378.535
L153.164 371.691
L159.927 358.004
L166.691 361.426
L173.455 368.269
L180.218 364.848
L186.982 358.004
L193.745 358.004
L200.509 358.004
L207.273 354.582
L214.036 368.269
L220.8 361.426
L227.564 354.582
L234.327 358.004
L241.091 378.535
L247.855 375.113
L254.618 337.473
L261.382 358.004" style="fill:none;stroke:#ff8c00;stroke-linecap:square;"/>
   </g>
   <g id="line2d_19">
    <path clip-path="url(#p346f55e68c)" d="
M72 368.269
L78.7636 371.691
L85.5273 358.004
L92.2909 361.426
L99.0545 358.004
L105.818 361.426
L112.582 337.473
L119.345 361.426
L126.109 371.691
L132.873 351.16
L139.636 361.426
L146.4 364.848
L153.164 354.582
L159.927 371.691
L166.691 354.582
L173.455 344.317
L180.218 337.473
L186.982 351.16
L193.745 340.895
L200.509 351.16
L207.273 351.16
L214.036 330.63
L220.8 323.786
L227.564 337.473
L234.327 351.16
L241.091 351.16
L247.855 340.895
L254.618 334.051
L261.382 358.004" style="fill:none;stroke:#ff9400;stroke-linecap:square;"/>
   </g>
   <g id="line2d_20">
    <path clip-path="url(#p346f55e68c)" d="
M72 368.269
L78.7636 368.269
L85.5273 361.426
L92.2909 361.426
L99.0545 358.004
L105.818 371.691
L112.582 361.426
L119.345 364.848
L126.109 368.269
L132.873 368.269
L139.636 368.269
L146.4 344.317
L153.164 364.848
L159.927 347.739
L166.691 364.848
L173.455 368.269
L180.218 371.691
L186.982 368.269
L193.745 371.691
L200.509 371.691
L207.273 368.269
L214.036 361.426
L220.8 375.113
L227.564 378.535
L234.327 371.691
L241.091 371.691
L247.855 378.535
L254.618 364.848
L261.382 368.269" style="fill:none;stroke:#ff9c00;stroke-linecap:square;"/>
   </g>
   <g id="line2d_21">
    <path clip-path="url(#p346f55e68c)" d="
M72 251.929
L78.7636 227.976
L85.5273 234.82
L92.2909 234.82
L99.0545 238.242
L105.818 251.929
L112.582 193.758
L119.345 272.459
L126.109 265.616
L132.873 265.616
L139.636 166.384
L146.4 214.289
L153.164 145.853
L159.927 156.119
L166.691 145.853
L173.455 159.541
L180.218 193.758
L186.982 204.024
L193.745 149.275
L200.509 193.758
L207.273 227.976
L214.036 200.602
L220.8 275.881
L227.564 251.929
L234.327 251.929
L241.091 275.881
L247.855 269.038
L254.618 269.038
L261.382 289.568" style="fill:none;stroke:#ffa500;stroke-linecap:square;"/>
   </g>
   <g id="line2d_22">
    <path clip-path="url(#p346f55e68c)" d="
M72 334.051
L78.7636 340.895
L85.5273 286.147
L92.2909 334.051
L99.0545 327.208
L105.818 354.582
L112.582 327.208
L119.345 320.364
L126.109 289.568
L132.873 313.521
L139.636 310.099
L146.4 327.208
L153.164 351.16
L159.927 337.473
L166.691 323.786
L173.455 303.255
L180.218 337.473
L186.982 351.16
L193.745 313.521
L200.509 347.739
L207.273 313.521
L214.036 337.473
L220.8 344.317
L227.564 330.63
L234.327 344.317
L241.091 340.895
L247.855 310.099
L254.618 337.473
L261.382 340.895" style="fill:none;stroke:#ffad00;stroke-linecap:square;"/>
   </g>
   <g id="line2d_23">
    <path clip-path="url(#p346f55e68c)" d="
M72 313.521
L78.7636 275.881
L85.5273 258.772
L92.2909 269.038
L99.0545 282.725
L105.818 282.725
L112.582 292.99
L119.345 292.99
L126.109 289.568
L132.873 241.663
L139.636 279.303
L146.4 282.725
L153.164 289.568
L159.927 289.568
L166.691 289.568
L173.455 299.834
L180.218 334.051
L186.982 320.364
L193.745 313.521
L200.509 320.364
L207.273 323.786
L214.036 344.317
L220.8 327.208
L227.564 334.051
L234.327 347.739
L241.091 358.004
L247.855 344.317
L254.618 340.895
L261.382 303.255" style="fill:none;stroke:#ffb500;stroke-linecap:square;"/>
   </g>
   <g id="line2d_24">
    <path clip-path="url(#p346f55e68c)" d="
M72 364.848
L78.7636 368.269
L85.5273 361.426
L92.2909 351.16
L99.0545 364.848
L105.818 378.535
L112.582 364.848
L119.345 347.739
L126.109 368.269
L132.873 358.004
L139.636 361.426
L146.4 344.317
L153.164 310.099
L159.927 330.63
L166.691 337.473
L173.455 320.364
L180.218 344.317
L186.982 320.364
L193.745 330.63
L200.509 347.739
L207.273 340.895
L214.036 354.582
L220.8 337.473
L227.564 368.269
L234.327 358.004
L241.091 344.317
L247.855 371.691
L254.618 358.004
L261.382 361.426" style="fill:none;stroke:#ffbd00;stroke-linecap:square;"/>
   </g>
   <g id="line2d_25">
    <path clip-path="url(#p346f55e68c)" d="
M72 330.63
L78.7636 320.364
L85.5273 316.943
L92.2909 330.63
L99.0545 320.364
L105.818 327.208
L112.582 334.051
L119.345 323.786
L126.109 337.473
L132.873 334.051
L139.636 316.943
L146.4 323.786
L153.164 347.739
L159.927 344.317
L166.691 337.473
L173.455 327.208
L180.218 313.521
L186.982 330.63
L193.745 303.255
L200.509 316.943
L207.273 330.63
L214.036 330.63
L220.8 320.364
L227.564 306.677
L234.327 323.786
L241.091 351.16
L247.855 286.147
L254.618 306.677
L261.382 269.038" style="fill:none;stroke:#ffc600;stroke-linecap:square;"/>
   </g>
   <g id="line2d_26">
    <path clip-path="url(#p346f55e68c)" d="
M72 371.691
L78.7636 361.426
L85.5273 344.317
L92.2909 375.113
L99.0545 358.004
L105.818 358.004
L112.582 364.848
L119.345 375.113
L126.109 351.16
L132.873 364.848
L139.636 368.269
L146.4 354.582
L153.164 354.582
L159.927 354.582
L166.691 334.051
L173.455 354.582
L180.218 375.113
L186.982 371.691
L193.745 368.269
L200.509 347.739
L207.273 358.004
L214.036 351.16
L220.8 334.051
L227.564 364.848
L234.327 358.004
L241.091 337.473
L247.855 371.691
L254.618 354.582
L261.382 334.051" style="fill:none;stroke:#ffce00;stroke-linecap:square;"/>
   </g>
   <g id="line2d_27">
    <path clip-path="url(#p346f55e68c)" d="
M72 368.269
L78.7636 368.269
L85.5273 358.004
L92.2909 375.113
L99.0545 344.317
L105.818 351.16
L112.582 364.848
L119.345 354.582
L126.109 375.113
L132.873 361.426
L139.636 340.895
L146.4 354.582
L153.164 371.691
L159.927 364.848
L166.691 381.956
L173.455 358.004
L180.218 368.269
L186.982 371.691
L193.745 375.113
L200.509 368.269
L207.273 368.269
L214.036 354.582
L220.8 347.739
L227.564 375.113
L234.327 368.269
L241.091 358.004
L247.855 371.691
L254.618 361.426
L261.382 351.16" style="fill:none;stroke:#ffd600;stroke-linecap:square;"/>
   </g>
   <g id="line2d_28">
    <path clip-path="url(#p346f55e68c)" d="
M72 279.303
L78.7636 224.554
L85.5273 258.772
L92.2909 272.459
L99.0545 255.35
L105.818 286.147
L112.582 245.085
L119.345 255.35
L126.109 241.663
L132.873 224.554
L139.636 169.806
L146.4 169.806
L153.164 149.275
L159.927 97.9485
L166.691 118.479
L173.455 186.915
L180.218 248.507
L186.982 248.507
L193.745 258.772
L200.509 289.568
L207.273 282.725
L214.036 306.677
L220.8 327.208
L227.564 323.786
L234.327 340.895
L241.091 334.051
L247.855 334.051
L254.618 340.895
L261.382 330.63" style="fill:none;stroke:#ffde00;stroke-linecap:square;"/>
   </g>
   <g id="line2d_29">
    <path clip-path="url(#p346f55e68c)" d="
M72 347.739
L78.7636 364.848
L85.5273 361.426
L92.2909 371.691
L99.0545 378.535
L105.818 354.582
L112.582 351.16
L119.345 368.269
L126.109 368.269
L132.873 371.691
L139.636 361.426
L146.4 371.691
L153.164 361.426
L159.927 368.269
L166.691 368.269
L173.455 371.691
L180.218 361.426
L186.982 358.004
L193.745 371.691
L200.509 364.848
L207.273 351.16
L214.036 361.426
L220.8 354.582
L227.564 358.004
L234.327 361.426
L241.091 364.848
L247.855 364.848
L254.618 371.691
L261.382 375.113" style="fill:none;stroke:#ffe700;stroke-linecap:square;"/>
   </g>
   <g id="line2d_30">
    <path clip-path="url(#p346f55e68c)" d="
M72 299.834
L78.7636 286.147
L85.5273 299.834
L92.2909 279.303
L99.0545 320.364
L105.818 286.147
L112.582 289.568
L119.345 303.255
L126.109 337.473
L132.873 330.63
L139.636 327.208
L146.4 289.568
L153.164 313.521
L159.927 306.677
L166.691 286.147
L173.455 258.772
L180.218 292.99
L186.982 299.834
L193.745 299.834
L200.509 303.255
L207.273 289.568
L214.036 292.99
L220.8 296.412
L227.564 296.412
L234.327 313.521
L241.091 292.99
L247.855 275.881
L254.618 282.725
L261.382 303.255" style="fill:none;stroke:#ffef00;stroke-linecap:square;"/>
   </g>
   <g id="line2d_31">
    <path clip-path="url(#p346f55e68c)" d="
M72 371.691
L78.7636 385.378
L85.5273 368.269
L92.2909 351.16
L99.0545 364.848
L105.818 375.113
L112.582 358.004
L119.345 347.739
L126.109 375.113
L132.873 358.004
L139.636 368.269
L146.4 358.004
L153.164 368.269
L159.927 358.004
L166.691 364.848
L173.455 364.848
L180.218 375.113
L186.982 361.426
L193.745 361.426
L200.509 358.004
L207.273 361.426
L214.036 368.269
L220.8 344.317
L227.564 351.16
L234.327 361.426
L241.091 344.317
L247.855 371.691
L254.618 344.317
L261.382 340.895" style="fill:none;stroke:#fff700;stroke-linecap:square;"/>
   </g>
   <g id="patch_3">
    <path d="
M72 43.2
L274.909 43.2" style="fill:none;stroke:#000000;stroke-linecap:square;stroke-linejoin:miter;"/>
   </g>
   <g id="patch_4">
    <path d="
M274.909 388.8
L274.909 43.2" style="fill:none;stroke:#000000;stroke-linecap:square;stroke-linejoin:miter;"/>
   </g>
   <g id="patch_5">
    <path d="
M72 388.8
L274.909 388.8" style="fill:none;stroke:#000000;stroke-linecap:square;stroke-linejoin:miter;"/>
   </g>
   <g id="patch_6">
    <path d="
M72 388.8
L72 43.2" style="fill:none;stroke:#000000;stroke-linecap:square;stroke-linejoin:miter;"/>
   </g>
   <g id="matplotlib.axis_1">
    <g id="xtick_1">
     <g id="line2d_32">
      <defs>
       <path d="
M0 0
L0 -4" id="m93b0483c22" style="stroke:#000000;stroke-width:0.5;"/>
      </defs>
      <g>
       <use style="stroke:#000000;stroke-width:0.5;" x="72.0" xlink:href="#m93b0483c22" y="388.8"/>
      </g>
     </g>
     <g id="line2d_33">
      <defs>
       <path d="
M0 0
L0 4" id="m741efc42ff" style="stroke:#000000;stroke-width:0.5;"/>
      </defs>
      <g>
       <use style="stroke:#000000;stroke-width:0.5;" x="72.0" xlink:href="#m741efc42ff" y="43.2"/>
      </g>
     </g>
     <g id="text_1">
      <!-- −1.0 -->
      <defs>
       <path d="
M10.5938 35.5
L73.1875 35.5
L73.1875 27.2031
L10.5938 27.2031
z
" id="BitstreamVeraSans-Roman-2212"/>
       <path d="
M31.7812 66.4062
Q24.1719 66.4062 20.3281 58.9062
Q16.5 51.4219 16.5 36.375
Q16.5 21.3906 20.3281 13.8906
Q24.1719 6.39062 31.7812 6.39062
Q39.4531 6.39062 43.2812 13.8906
Q47.125 21.3906 47.125 36.375
Q47.125 51.4219 43.2812 58.9062
Q39.4531 66.4062 31.7812 66.4062
M31.7812 74.2188
Q44.0469 74.2188 50.5156 64.5156
Q56.9844 54.8281 56.9844 36.375
Q56.9844 17.9688 50.5156 8.26562
Q44.0469 -1.42188 31.7812 -1.42188
Q19.5312 -1.42188 13.0625 8.26562
Q6.59375 17.9688 6.59375 36.375
Q6.59375 54.8281 13.0625 64.5156
Q19.5312 74.2188 31.7812 74.2188" id="BitstreamVeraSans-Roman-30"/>
       <path d="
M12.4062 8.29688
L28.5156 8.29688
L28.5156 63.9219
L10.9844 60.4062
L10.9844 69.3906
L28.4219 72.9062
L38.2812 72.9062
L38.2812 8.29688
L54.3906 8.29688
L54.3906 0
L12.4062 0
z
" id="BitstreamVeraSans-Roman-31"/>
       <path d="
M10.6875 12.4062
L21 12.4062
L21 0
L10.6875 0
z
" id="BitstreamVeraSans-Roman-2e"/>
      </defs>
      <g transform="translate(58.464375 401.918125)scale(0.12 -0.12)">
       <use xlink:href="#BitstreamVeraSans-Roman-2212"/>
       <use x="83.7890625" xlink:href="#BitstreamVeraSans-Roman-31"/>
       <use x="147.412109375" xlink:href="#BitstreamVeraSans-Roman-2e"/>
       <use x="179.19921875" xlink:href="#BitstreamVeraSans-Roman-30"/>
      </g>
     </g>
    </g>
    <g id="xtick_2">
     <g id="line2d_34">
      <g>
       <use style="stroke:#000000;stroke-width:0.5;" x="105.818181818" xlink:href="#m93b0483c22" y="388.8"/>
      </g>
     </g>
     <g id="line2d_35">
      <g>
       <use style="stroke:#000000;stroke-width:0.5;" x="105.818181818" xlink:href="#m741efc42ff" y="43.2"/>
      </g>
     </g>
     <g id="text_2">
      <!-- −0.5 -->
      <defs>
       <path d="
M10.7969 72.9062
L49.5156 72.9062
L49.5156 64.5938
L19.8281 64.5938
L19.8281 46.7344
Q21.9688 47.4688 24.1094 47.8281
Q26.2656 48.1875 28.4219 48.1875
Q40.625 48.1875 47.75 41.5
Q54.8906 34.8125 54.8906 23.3906
Q54.8906 11.625 47.5625 5.09375
Q40.2344 -1.42188 26.9062 -1.42188
Q22.3125 -1.42188 17.5469 -0.640625
Q12.7969 0.140625 7.71875 1.70312
L7.71875 11.625
Q12.1094 9.23438 16.7969 8.0625
Q21.4844 6.89062 26.7031 6.89062
Q35.1562 6.89062 40.0781 11.3281
Q45.0156 15.7656 45.0156 23.3906
Q45.0156 31 40.0781 35.4375
Q35.1562 39.8906 26.7031 39.8906
Q22.75 39.8906 18.8125 39.0156
Q14.8906 38.1406 10.7969 36.2812
z
" id="BitstreamVeraSans-Roman-35"/>
      </defs>
      <g transform="translate(92.4081818182 401.918125)scale(0.12 -0.12)">
       <use xlink:href="#BitstreamVeraSans-Roman-2212"/>
       <use x="83.7890625" xlink:href="#BitstreamVeraSans-Roman-30"/>
       <use x="147.412109375" xlink:href="#BitstreamVeraSans-Roman-2e"/>
       <use x="179.19921875" xlink:href="#BitstreamVeraSans-Roman-35"/>
      </g>
     </g>
    </g>
    <g id="xtick_3">
     <g id="line2d_36">
      <g>
       <use style="stroke:#000000;stroke-width:0.5;" x="139.636363636" xlink:href="#m93b0483c22" y="388.8"/>
      </g>
     </g>
     <g id="line2d_37">
      <g>
       <use style="stroke:#000000;stroke-width:0.5;" x="139.636363636" xlink:href="#m741efc42ff" y="43.2"/>
      </g>
     </g>
     <g id="text_3">
      <!-- 0.0 -->
      <g transform="translate(130.888551136 401.918125)scale(0.12 -0.12)">
       <use xlink:href="#BitstreamVeraSans-Roman-30"/>
       <use x="63.623046875" xlink:href="#BitstreamVeraSans-Roman-2e"/>
       <use x="95.41015625" xlink:href="#BitstreamVeraSans-Roman-30"/>
      </g>
     </g>
    </g>
    <g id="xtick_4">
     <g id="line2d_38">
      <g>
       <use style="stroke:#000000;stroke-width:0.5;" x="173.454545455" xlink:href="#m93b0483c22" y="388.8"/>
      </g>
     </g>
     <g id="line2d_39">
      <g>
       <use style="stroke:#000000;stroke-width:0.5;" x="173.454545455" xlink:href="#m741efc42ff" y="43.2"/>
      </g>
     </g>
     <g id="text_4">
      <!-- 0.5 -->
      <g transform="translate(164.832357955 401.918125)scale(0.12 -0.12)">
       <use xlink:href="#BitstreamVeraSans-Roman-30"/>
       <use x="63.623046875" xlink:href="#BitstreamVeraSans-Roman-2e"/>
       <use x="95.41015625" xlink:href="#BitstreamVeraSans-Roman-35"/>
      </g>
     </g>
    </g>
    <g id="xtick_5">
     <g id="line2d_40">
      <g>
       <use style="stroke:#000000;stroke-width:0.5;" x="207.272727273" xlink:href="#m93b0483c22" y="388.8"/>
      </g>
     </g>
     <g id="line2d_41">
      <g>
       <use style="stroke:#000000;stroke-width:0.5;" x="207.272727273" xlink:href="#m741efc42ff" y="43.2"/>
      </g>
     </g>
     <g id="text_5">
      <!-- 1.0 -->
      <g transform="translate(198.788352273 401.918125)scale(0.12 -0.12)">
       <use xlink:href="#BitstreamVeraSans-Roman-31"/>
       <use x="63.623046875" xlink:href="#BitstreamVeraSans-Roman-2e"/>
       <use x="95.41015625" xlink:href="#BitstreamVeraSans-Roman-30"/>
      </g>
     </g>
    </g>
    <g id="xtick_6">
     <g id="line2d_42">
      <g>
       <use style="stroke:#000000;stroke-width:0.5;" x="241.090909091" xlink:href="#m93b0483c22" y="388.8"/>
      </g>
     </g>
     <g id="line2d_43">
      <g>
       <use style="stroke:#000000;stroke-width:0.5;" x="241.090909091" xlink:href="#m741efc42ff" y="43.2"/>
      </g>
     </g>
     <g id="text_6">
      <!-- 1.5 -->
      <g transform="translate(232.732159091 401.918125)scale(0.12 -0.12)">
       <use xlink:href="#BitstreamVeraSans-Roman-31"/>
       <use x="63.623046875" xlink:href="#BitstreamVeraSans-Roman-2e"/>
       <use x="95.41015625" xlink:href="#BitstreamVeraSans-Roman-35"/>
      </g>
     </g>
    </g>
    <g id="xtick_7">
     <g id="line2d_44">
      <g>
       <use style="stroke:#000000;stroke-width:0.5;" x="274.909090909" xlink:href="#m93b0483c22" y="388.8"/>
      </g>
     </g>
     <g id="line2d_45">
      <g>
       <use style="stroke:#000000;stroke-width:0.5;" x="274.909090909" xlink:href="#m741efc42ff" y="43.2"/>
      </g>
     </g>
     <g id="text_7">
      <!-- 2.0 -->
      <defs>
       <path d="
M19.1875 8.29688
L53.6094 8.29688
L53.6094 0
L7.32812 0
L7.32812 8.29688
Q12.9375 14.1094 22.625 23.8906
Q32.3281 33.6875 34.8125 36.5312
Q39.5469 41.8438 41.4219 45.5312
Q43.3125 49.2188 43.3125 52.7812
Q43.3125 58.5938 39.2344 62.25
Q35.1562 65.9219 28.6094 65.9219
Q23.9688 65.9219 18.8125 64.3125
Q13.6719 62.7031 7.8125 59.4219
L7.8125 69.3906
Q13.7656 71.7812 18.9375 73
Q24.125 74.2188 28.4219 74.2188
Q39.75 74.2188 46.4844 68.5469
Q53.2188 62.8906 53.2188 53.4219
Q53.2188 48.9219 51.5312 44.8906
Q49.8594 40.875 45.4062 35.4062
Q44.1875 33.9844 37.6406 27.2188
Q31.1094 20.4531 19.1875 8.29688" id="BitstreamVeraSans-Roman-32"/>
      </defs>
      <g transform="translate(266.205340909 401.918125)scale(0.12 -0.12)">
       <use xlink:href="#BitstreamVeraSans-Roman-32"/>
       <use x="63.623046875" xlink:href="#BitstreamVeraSans-Roman-2e"/>
       <use x="95.41015625" xlink:href="#BitstreamVeraSans-Roman-30"/>
      </g>
     </g>
    </g>
    <g id="text_8">
     <!-- Time (s) -->
     <defs>
      <path id="BitstreamVeraSans-Roman-20"/>
      <path d="
M8.01562 75.875
L15.8281 75.875
Q23.1406 64.3594 26.7812 53.3125
Q30.4219 42.2812 30.4219 31.3906
Q30.4219 20.4531 26.7812 9.375
Q23.1406 -1.70312 15.8281 -13.1875
L8.01562 -13.1875
Q14.5 -2 17.7031 9.0625
Q20.9062 20.125 20.9062 31.3906
Q20.9062 42.6719 17.7031 53.6562
Q14.5 64.6562 8.01562 75.875" id="BitstreamVeraSans-Roman-29"/>
      <path d="
M31 75.875
Q24.4688 64.6562 21.2812 53.6562
Q18.1094 42.6719 18.1094 31.3906
Q18.1094 20.125 21.3125 9.0625
Q24.5156 -2 31 -13.1875
L23.1875 -13.1875
Q15.875 -1.70312 12.2344 9.375
Q8.59375 20.4531 8.59375 31.3906
Q8.59375 42.2812 12.2031 53.3125
Q15.8281 64.3594 23.1875 75.875
z
" id="BitstreamVeraSans-Roman-28"/>
      <path d="
M9.42188 54.6875
L18.4062 54.6875
L18.4062 0
L9.42188 0
z

M9.42188 75.9844
L18.4062 75.9844
L18.4062 64.5938
L9.42188 64.5938
z
" id="BitstreamVeraSans-Roman-69"/>
      <path d="
M52 44.1875
Q55.375 50.25 60.0625 53.125
Q64.75 56 71.0938 56
Q79.6406 56 84.2812 50.0156
Q88.9219 44.0469 88.9219 33.0156
L88.9219 0
L79.8906 0
L79.8906 32.7188
Q79.8906 40.5781 77.0938 44.375
Q74.3125 48.1875 68.6094 48.1875
Q61.625 48.1875 57.5625 43.5469
Q53.5156 38.9219 53.5156 30.9062
L53.5156 0
L44.4844 0
L44.4844 32.7188
Q44.4844 40.625 41.7031 44.4062
Q38.9219 48.1875 33.1094 48.1875
Q26.2188 48.1875 22.1562 43.5312
Q18.1094 38.875 18.1094 30.9062
L18.1094 0
L9.07812 0
L9.07812 54.6875
L18.1094 54.6875
L18.1094 46.1875
Q21.1875 51.2188 25.4844 53.6094
Q29.7812 56 35.6875 56
Q41.6562 56 45.8281 52.9688
Q50 49.9531 52 44.1875" id="BitstreamVeraSans-Roman-6d"/>
      <path d="
M56.2031 29.5938
L56.2031 25.2031
L14.8906 25.2031
Q15.4844 15.9219 20.4844 11.0625
Q25.4844 6.20312 34.4219 6.20312
Q39.5938 6.20312 44.4531 7.46875
Q49.3125 8.73438 54.1094 11.2812
L54.1094 2.78125
Q49.2656 0.734375 44.1875 -0.34375
Q39.1094 -1.42188 33.8906 -1.42188
Q20.7969 -1.42188 13.1562 6.1875
Q5.51562 13.8125 5.51562 26.8125
Q5.51562 40.2344 12.7656 48.1094
Q20.0156 56 32.3281 56
Q43.3594 56 49.7812 48.8906
Q56.2031 41.7969 56.2031 29.5938
M47.2188 32.2344
Q47.125 39.5938 43.0938 43.9844
Q39.0625 48.3906 32.4219 48.3906
Q24.9062 48.3906 20.3906 44.1406
Q15.875 39.8906 15.1875 32.1719
z
" id="BitstreamVeraSans-Roman-65"/>
      <path d="
M-0.296875 72.9062
L61.375 72.9062
L61.375 64.5938
L35.5 64.5938
L35.5 0
L25.5938 0
L25.5938 64.5938
L-0.296875 64.5938
z
" id="BitstreamVeraSans-Roman-54"/>
      <path d="
M44.2812 53.0781
L44.2812 44.5781
Q40.4844 46.5312 36.375 47.5
Q32.2812 48.4844 27.875 48.4844
Q21.1875 48.4844 17.8438 46.4375
Q14.5 44.3906 14.5 40.2812
Q14.5 37.1562 16.8906 35.375
Q19.2812 33.5938 26.5156 31.9844
L29.5938 31.2969
Q39.1562 29.25 43.1875 25.5156
Q47.2188 21.7812 47.2188 15.0938
Q47.2188 7.46875 41.1875 3.01562
Q35.1562 -1.42188 24.6094 -1.42188
Q20.2188 -1.42188 15.4531 -0.5625
Q10.6875 0.296875 5.42188 2
L5.42188 11.2812
Q10.4062 8.6875 15.2344 7.39062
Q20.0625 6.10938 24.8125 6.10938
Q31.1562 6.10938 34.5625 8.28125
Q37.9844 10.4531 37.9844 14.4062
Q37.9844 18.0625 35.5156 20.0156
Q33.0625 21.9688 24.7031 23.7812
L21.5781 24.5156
Q13.2344 26.2656 9.51562 29.9062
Q5.8125 33.5469 5.8125 39.8906
Q5.8125 47.6094 11.2812 51.7969
Q16.75 56 26.8125 56
Q31.7812 56 36.1719 55.2656
Q40.5781 54.5469 44.2812 53.0781" id="BitstreamVeraSans-Roman-73"/>
     </defs>
     <g transform="translate(149.557670455 418.531875)scale(0.12 -0.12)">
      <use xlink:href="#BitstreamVeraSans-Roman-54"/>
      <use x="57.958984375" xlink:href="#BitstreamVeraSans-Roman-69"/>
      <use x="85.7421875" xlink:href="#BitstreamVeraSans-Roman-6d"/>
      <use x="183.154296875" xlink:href="#BitstreamVeraSans-Roman-65"/>
      <use x="244.677734375" xlink:href="#BitstreamVeraSans-Roman-20"/>
      <use x="276.46484375" xlink:href="#BitstreamVeraSans-Roman-28"/>
      <use x="315.478515625" xlink:href="#BitstreamVeraSans-Roman-73"/>
      <use x="367.578125" xlink:href="#BitstreamVeraSans-Roman-29"/>
     </g>
    </g>
   </g>
   <g id="matplotlib.axis_2">
    <g id="ytick_1">
     <g id="line2d_46">
      <defs>
       <path d="
M0 0
L4 0" id="m728421d6d4" style="stroke:#000000;stroke-width:0.5;"/>
      </defs>
      <g>
       <use style="stroke:#000000;stroke-width:0.5;" x="72.0" xlink:href="#m728421d6d4" y="388.8"/>
      </g>
     </g>
     <g id="line2d_47">
      <defs>
       <path d="
M0 0
L-4 0" id="mcb0005524f" style="stroke:#000000;stroke-width:0.5;"/>
      </defs>
      <g>
       <use style="stroke:#000000;stroke-width:0.5;" x="274.909090909" xlink:href="#mcb0005524f" y="388.8"/>
      </g>
     </g>
     <g id="text_9">
      <!-- 0 -->
      <g transform="translate(61.953125 392.11125)scale(0.12 -0.12)">
       <use xlink:href="#BitstreamVeraSans-Roman-30"/>
      </g>
     </g>
    </g>
    <g id="ytick_2">
     <g id="line2d_48">
      <g>
       <use style="stroke:#000000;stroke-width:0.5;" x="72.0" xlink:href="#m728421d6d4" y="319.68"/>
      </g>
     </g>
     <g id="line2d_49">
      <g>
       <use style="stroke:#000000;stroke-width:0.5;" x="274.909090909" xlink:href="#mcb0005524f" y="319.68"/>
      </g>
     </g>
     <g id="text_10">
      <!-- 2 -->
      <g transform="translate(62.44625 322.99125)scale(0.12 -0.12)">
       <use xlink:href="#BitstreamVeraSans-Roman-32"/>
      </g>
     </g>
    </g>
    <g id="ytick_3">
     <g id="line2d_50">
      <g>
       <use style="stroke:#000000;stroke-width:0.5;" x="72.0" xlink:href="#m728421d6d4" y="250.56"/>
      </g>
     </g>
     <g id="line2d_51">
      <g>
       <use style="stroke:#000000;stroke-width:0.5;" x="274.909090909" xlink:href="#mcb0005524f" y="250.56"/>
      </g>
     </g>
     <g id="text_11">
      <!-- 4 -->
      <defs>
       <path d="
M37.7969 64.3125
L12.8906 25.3906
L37.7969 25.3906
z

M35.2031 72.9062
L47.6094 72.9062
L47.6094 25.3906
L58.0156 25.3906
L58.0156 17.1875
L47.6094 17.1875
L47.6094 0
L37.7969 0
L37.7969 17.1875
L4.89062 17.1875
L4.89062 26.7031
z
" id="BitstreamVeraSans-Roman-34"/>
      </defs>
      <g transform="translate(61.625 253.87125)scale(0.12 -0.12)">
       <use xlink:href="#BitstreamVeraSans-Roman-34"/>
      </g>
     </g>
    </g>
    <g id="ytick_4">
     <g id="line2d_52">
      <g>
       <use style="stroke:#000000;stroke-width:0.5;" x="72.0" xlink:href="#m728421d6d4" y="181.44"/>
      </g>
     </g>
     <g id="line2d_53">
      <g>
       <use style="stroke:#000000;stroke-width:0.5;" x="274.909090909" xlink:href="#mcb0005524f" y="181.44"/>
      </g>
     </g>
     <g id="text_12">
      <!-- 6 -->
      <defs>
       <path d="
M33.0156 40.375
Q26.375 40.375 22.4844 35.8281
Q18.6094 31.2969 18.6094 23.3906
Q18.6094 15.5312 22.4844 10.9531
Q26.375 6.39062 33.0156 6.39062
Q39.6562 6.39062 43.5312 10.9531
Q47.4062 15.5312 47.4062 23.3906
Q47.4062 31.2969 43.5312 35.8281
Q39.6562 40.375 33.0156 40.375
M52.5938 71.2969
L52.5938 62.3125
Q48.875 64.0625 45.0938 64.9844
Q41.3125 65.9219 37.5938 65.9219
Q27.8281 65.9219 22.6719 59.3281
Q17.5312 52.7344 16.7969 39.4062
Q19.6719 43.6562 24.0156 45.9219
Q28.375 48.1875 33.5938 48.1875
Q44.5781 48.1875 50.9531 41.5156
Q57.3281 34.8594 57.3281 23.3906
Q57.3281 12.1562 50.6875 5.35938
Q44.0469 -1.42188 33.0156 -1.42188
Q20.3594 -1.42188 13.6719 8.26562
Q6.98438 17.9688 6.98438 36.375
Q6.98438 53.6562 15.1875 63.9375
Q23.3906 74.2188 37.2031 74.2188
Q40.9219 74.2188 44.7031 73.4844
Q48.4844 72.75 52.5938 71.2969" id="BitstreamVeraSans-Roman-36"/>
      </defs>
      <g transform="translate(61.95875 184.75125)scale(0.12 -0.12)">
       <use xlink:href="#BitstreamVeraSans-Roman-36"/>
      </g>
     </g>
    </g>
    <g id="ytick_5">
     <g id="line2d_54">
      <g>
       <use style="stroke:#000000;stroke-width:0.5;" x="72.0" xlink:href="#m728421d6d4" y="112.32"/>
      </g>
     </g>
     <g id="line2d_55">
      <g>
       <use style="stroke:#000000;stroke-width:0.5;" x="274.909090909" xlink:href="#mcb0005524f" y="112.32"/>
      </g>
     </g>
     <g id="text_13">
      <!-- 8 -->
      <defs>
       <path d="
M31.7812 34.625
Q24.75 34.625 20.7188 30.8594
Q16.7031 27.0938 16.7031 20.5156
Q16.7031 13.9219 20.7188 10.1562
Q24.75 6.39062 31.7812 6.39062
Q38.8125 6.39062 42.8594 10.1719
Q46.9219 13.9688 46.9219 20.5156
Q46.9219 27.0938 42.8906 30.8594
Q38.875 34.625 31.7812 34.625
M21.9219 38.8125
Q15.5781 40.375 12.0312 44.7188
Q8.5 49.0781 8.5 55.3281
Q8.5 64.0625 14.7188 69.1406
Q20.9531 74.2188 31.7812 74.2188
Q42.6719 74.2188 48.875 69.1406
Q55.0781 64.0625 55.0781 55.3281
Q55.0781 49.0781 51.5312 44.7188
Q48 40.375 41.7031 38.8125
Q48.8281 37.1562 52.7969 32.3125
Q56.7812 27.4844 56.7812 20.5156
Q56.7812 9.90625 50.3125 4.23438
Q43.8438 -1.42188 31.7812 -1.42188
Q19.7344 -1.42188 13.25 4.23438
Q6.78125 9.90625 6.78125 20.5156
Q6.78125 27.4844 10.7812 32.3125
Q14.7969 37.1562 21.9219 38.8125
M18.3125 54.3906
Q18.3125 48.7344 21.8438 45.5625
Q25.3906 42.3906 31.7812 42.3906
Q38.1406 42.3906 41.7188 45.5625
Q45.3125 48.7344 45.3125 54.3906
Q45.3125 60.0625 41.7188 63.2344
Q38.1406 66.4062 31.7812 66.4062
Q25.3906 66.4062 21.8438 63.2344
Q18.3125 60.0625 18.3125 54.3906" id="BitstreamVeraSans-Roman-38"/>
      </defs>
      <g transform="translate(62.0 115.63125)scale(0.12 -0.12)">
       <use xlink:href="#BitstreamVeraSans-Roman-38"/>
      </g>
     </g>
    </g>
    <g id="ytick_6">
     <g id="line2d_56">
      <g>
       <use style="stroke:#000000;stroke-width:0.5;" x="72.0" xlink:href="#m728421d6d4" y="43.2"/>
      </g>
     </g>
     <g id="line2d_57">
      <g>
       <use style="stroke:#000000;stroke-width:0.5;" x="274.909090909" xlink:href="#mcb0005524f" y="43.2"/>
      </g>
     </g>
     <g id="text_14">
      <!-- 10 -->
      <g transform="translate(54.845 46.51125)scale(0.12 -0.12)">
       <use xlink:href="#BitstreamVeraSans-Roman-31"/>
       <use x="63.623046875" xlink:href="#BitstreamVeraSans-Roman-30"/>
      </g>
     </g>
    </g>
    <g id="text_15">
     <!-- Firing Rate (Hz) -->
     <defs>
      <path d="
M54.8906 33.0156
L54.8906 0
L45.9062 0
L45.9062 32.7188
Q45.9062 40.4844 42.875 44.3281
Q39.8438 48.1875 33.7969 48.1875
Q26.5156 48.1875 22.3125 43.5469
Q18.1094 38.9219 18.1094 30.9062
L18.1094 0
L9.07812 0
L9.07812 54.6875
L18.1094 54.6875
L18.1094 46.1875
Q21.3438 51.125 25.7031 53.5625
Q30.0781 56 35.7969 56
Q45.2188 56 50.0469 50.1719
Q54.8906 44.3438 54.8906 33.0156" id="BitstreamVeraSans-Roman-6e"/>
      <path d="
M34.2812 27.4844
Q23.3906 27.4844 19.1875 25
Q14.9844 22.5156 14.9844 16.5
Q14.9844 11.7188 18.1406 8.90625
Q21.2969 6.10938 26.7031 6.10938
Q34.1875 6.10938 38.7031 11.4062
Q43.2188 16.7031 43.2188 25.4844
L43.2188 27.4844
z

M52.2031 31.2031
L52.2031 0
L43.2188 0
L43.2188 8.29688
Q40.1406 3.32812 35.5469 0.953125
Q30.9531 -1.42188 24.3125 -1.42188
Q15.9219 -1.42188 10.9531 3.29688
Q6 8.01562 6 15.9219
Q6 25.1406 12.1719 29.8281
Q18.3594 34.5156 30.6094 34.5156
L43.2188 34.5156
L43.2188 35.4062
Q43.2188 41.6094 39.1406 45
Q35.0625 48.3906 27.6875 48.3906
Q23 48.3906 18.5469 47.2656
Q14.1094 46.1406 10.0156 43.8906
L10.0156 52.2031
Q14.9375 54.1094 19.5781 55.0469
Q24.2188 56 28.6094 56
Q40.4844 56 46.3438 49.8438
Q52.2031 43.7031 52.2031 31.2031" id="BitstreamVeraSans-Roman-61"/>
      <path d="
M5.51562 54.6875
L48.1875 54.6875
L48.1875 46.4844
L14.4062 7.17188
L48.1875 7.17188
L48.1875 0
L4.29688 0
L4.29688 8.20312
L38.0938 47.5156
L5.51562 47.5156
z
" id="BitstreamVeraSans-Roman-7a"/>
      <path d="
M9.8125 72.9062
L51.7031 72.9062
L51.7031 64.5938
L19.6719 64.5938
L19.6719 43.1094
L48.5781 43.1094
L48.5781 34.8125
L19.6719 34.8125
L19.6719 0
L9.8125 0
z
" id="BitstreamVeraSans-Roman-46"/>
      <path d="
M44.3906 34.1875
Q47.5625 33.1094 50.5625 29.5938
Q53.5625 26.0781 56.5938 19.9219
L66.6094 0
L56 0
L46.6875 18.7031
Q43.0625 26.0312 39.6719 28.4219
Q36.2812 30.8125 30.4219 30.8125
L19.6719 30.8125
L19.6719 0
L9.8125 0
L9.8125 72.9062
L32.0781 72.9062
Q44.5781 72.9062 50.7344 67.6719
Q56.8906 62.4531 56.8906 51.9062
Q56.8906 45.0156 53.6875 40.4688
Q50.4844 35.9375 44.3906 34.1875
M19.6719 64.7969
L19.6719 38.9219
L32.0781 38.9219
Q39.2031 38.9219 42.8438 42.2188
Q46.4844 45.5156 46.4844 51.9062
Q46.4844 58.2969 42.8438 61.5469
Q39.2031 64.7969 32.0781 64.7969
z
" id="BitstreamVeraSans-Roman-52"/>
      <path d="
M45.4062 27.9844
Q45.4062 37.75 41.375 43.1094
Q37.3594 48.4844 30.0781 48.4844
Q22.8594 48.4844 18.8281 43.1094
Q14.7969 37.75 14.7969 27.9844
Q14.7969 18.2656 18.8281 12.8906
Q22.8594 7.51562 30.0781 7.51562
Q37.3594 7.51562 41.375 12.8906
Q45.4062 18.2656 45.4062 27.9844
M54.3906 6.78125
Q54.3906 -7.17188 48.1875 -13.9844
Q42 -20.7969 29.2031 -20.7969
Q24.4688 -20.7969 20.2656 -20.0938
Q16.0625 -19.3906 12.1094 -17.9219
L12.1094 -9.1875
Q16.0625 -11.3281 19.9219 -12.3438
Q23.7812 -13.375 27.7812 -13.375
Q36.625 -13.375 41.0156 -8.76562
Q45.4062 -4.15625 45.4062 5.17188
L45.4062 9.625
Q42.625 4.78125 38.2812 2.39062
Q33.9375 0 27.875 0
Q17.8281 0 11.6719 7.65625
Q5.51562 15.3281 5.51562 27.9844
Q5.51562 40.6719 11.6719 48.3281
Q17.8281 56 27.875 56
Q33.9375 56 38.2812 53.6094
Q42.625 51.2188 45.4062 46.3906
L45.4062 54.6875
L54.3906 54.6875
z
" id="BitstreamVeraSans-Roman-67"/>
      <path d="
M41.1094 46.2969
Q39.5938 47.1719 37.8125 47.5781
Q36.0312 48 33.8906 48
Q26.2656 48 22.1875 43.0469
Q18.1094 38.0938 18.1094 28.8125
L18.1094 0
L9.07812 0
L9.07812 54.6875
L18.1094 54.6875
L18.1094 46.1875
Q20.9531 51.1719 25.4844 53.5781
Q30.0312 56 36.5312 56
Q37.4531 56 38.5781 55.875
Q39.7031 55.7656 41.0625 55.5156
z
" id="BitstreamVeraSans-Roman-72"/>
      <path d="
M18.3125 70.2188
L18.3125 54.6875
L36.8125 54.6875
L36.8125 47.7031
L18.3125 47.7031
L18.3125 18.0156
Q18.3125 11.3281 20.1406 9.42188
Q21.9688 7.51562 27.5938 7.51562
L36.8125 7.51562
L36.8125 0
L27.5938 0
Q17.1875 0 13.2344 3.875
Q9.28125 7.76562 9.28125 18.0156
L9.28125 47.7031
L2.6875 47.7031
L2.6875 54.6875
L9.28125 54.6875
L9.28125 70.2188
z
" id="BitstreamVeraSans-Roman-74"/>
      <path d="
M9.8125 72.9062
L19.6719 72.9062
L19.6719 43.0156
L55.5156 43.0156
L55.5156 72.9062
L65.375 72.9062
L65.375 0
L55.5156 0
L55.5156 34.7188
L19.6719 34.7188
L19.6719 0
L9.8125 0
z
" id="BitstreamVeraSans-Roman-48"/>
     </defs>
     <g transform="translate(47.349375 261.8240625)rotate(-90.0)scale(0.12 -0.12)">
      <use xlink:href="#BitstreamVeraSans-Roman-46"/>
      <use x="50.26953125" xlink:href="#BitstreamVeraSans-Roman-69"/>
      <use x="78.052734375" xlink:href="#BitstreamVeraSans-Roman-72"/>
      <use x="119.166015625" xlink:href="#BitstreamVeraSans-Roman-69"/>
      <use x="146.94921875" xlink:href="#BitstreamVeraSans-Roman-6e"/>
      <use x="210.328125" xlink:href="#BitstreamVeraSans-Roman-67"/>
      <use x="273.8046875" xlink:href="#BitstreamVeraSans-Roman-20"/>
      <use x="305.591796875" xlink:href="#BitstreamVeraSans-Roman-52"/>
      <use x="372.82421875" xlink:href="#BitstreamVeraSans-Roman-61"/>
      <use x="434.103515625" xlink:href="#BitstreamVeraSans-Roman-74"/>
      <use x="473.3125" xlink:href="#BitstreamVeraSans-Roman-65"/>
      <use x="534.8359375" xlink:href="#BitstreamVeraSans-Roman-20"/>
      <use x="566.623046875" xlink:href="#BitstreamVeraSans-Roman-28"/>
      <use x="605.63671875" xlink:href="#BitstreamVeraSans-Roman-48"/>
      <use x="680.83203125" xlink:href="#BitstreamVeraSans-Roman-7a"/>
      <use x="733.322265625" xlink:href="#BitstreamVeraSans-Roman-29"/>
     </g>
    </g>
   </g>
   <g id="text_16">
    <!-- Stress -->
    <defs>
     <path d="
M53.5156 70.5156
L53.5156 60.8906
Q47.9062 63.5781 42.9219 64.8906
Q37.9375 66.2188 33.2969 66.2188
Q25.25 66.2188 20.875 63.0938
Q16.5 59.9688 16.5 54.2031
Q16.5 49.3594 19.4062 46.8906
Q22.3125 44.4375 30.4219 42.9219
L36.375 41.7031
Q47.4062 39.5938 52.6562 34.2969
Q57.9062 29 57.9062 20.125
Q57.9062 9.51562 50.7969 4.04688
Q43.7031 -1.42188 29.9844 -1.42188
Q24.8125 -1.42188 18.9688 -0.25
Q13.1406 0.921875 6.89062 3.21875
L6.89062 13.375
Q12.8906 10.0156 18.6562 8.29688
Q24.4219 6.59375 29.9844 6.59375
Q38.4219 6.59375 43.0156 9.90625
Q47.6094 13.2344 47.6094 19.3906
Q47.6094 24.75 44.3125 27.7812
Q41.0156 30.8125 33.5 32.3281
L27.4844 33.5
Q16.4531 35.6875 11.5156 40.375
Q6.59375 45.0625 6.59375 53.4219
Q6.59375 63.0938 13.4062 68.6562
Q20.2188 74.2188 32.1719 74.2188
Q37.3125 74.2188 42.625 73.2812
Q47.9531 72.3594 53.5156 70.5156" id="BitstreamVeraSans-Roman-53"/>
    </defs>
    <g transform="translate(152.157170455 38.2)scale(0.144 -0.144)">
     <use xlink:href="#BitstreamVeraSans-Roman-53"/>
     <use x="63.4765625" xlink:href="#BitstreamVeraSans-Roman-74"/>
     <use x="102.685546875" xlink:href="#BitstreamVeraSans-Roman-72"/>
     <use x="141.548828125" xlink:href="#BitstreamVeraSans-Roman-65"/>
     <use x="203.072265625" xlink:href="#BitstreamVeraSans-Roman-73"/>
     <use x="255.171875" xlink:href="#BitstreamVeraSans-Roman-73"/>
    </g>
   </g>
  </g>
  <g id="axes_2">
   <g id="patch_7">
    <path d="
M315.491 388.8
L518.4 388.8
L518.4 43.2
L315.491 43.2
z
" style="fill:#ffffff;"/>
   </g>
   <g id="line2d_58">
    <path clip-path="url(#pc565ddf9d5)" d="
M315.491 151.2
L322.255 280.8
L329.018 86.4
L335.782 302.4
L342.545 237.6
L349.309 259.2
L356.073 367.2
L362.836 345.6
L369.6 216
L376.364 367.2
L383.127 216
L389.891 367.2
L396.655 324
L403.418 388.8
L410.182 367.2
L416.945 345.6
L423.709 345.6
L430.473 367.2
L437.236 237.6
L444 280.8
L450.764 388.8
L457.527 280.8
L464.291 194.4
L471.055 259.2
L477.818 324
L484.582 280.8
L491.345 216
L498.109 345.6
L504.873 302.4" style="fill:none;stroke:#ff0000;stroke-linecap:square;"/>
   </g>
   <g id="line2d_59">
    <path clip-path="url(#pc565ddf9d5)" d="
M315.491 151.2
L322.255 280.8
L329.018 86.4
L335.782 302.4
L342.545 237.6
L349.309 259.2
L356.073 367.2
L362.836 345.6
L369.6 216
L376.364 367.2
L383.127 216
L389.891 367.2
L396.655 324
L403.418 388.8
L410.182 367.2
L416.945 345.6
L423.709 345.6
L430.473 367.2
L437.236 237.6
L444 280.8
L450.764 388.8
L457.527 280.8
L464.291 194.4
L471.055 259.2
L477.818 324
L484.582 280.8
L491.345 216
L498.109 345.6
L504.873 302.4" style="fill:none;stroke:#ff0800;stroke-linecap:square;"/>
   </g>
   <g id="line2d_60">
    <path clip-path="url(#pc565ddf9d5)" d="
M315.491 151.2
L322.255 280.8
L329.018 86.4
L335.782 302.4
L342.545 237.6
L349.309 259.2
L356.073 367.2
L362.836 345.6
L369.6 216
L376.364 367.2
L383.127 216
L389.891 367.2
L396.655 324
L403.418 388.8
L410.182 367.2
L416.945 345.6
L423.709 345.6
L430.473 367.2
L437.236 237.6
L444 280.8
L450.764 388.8
L457.527 280.8
L464.291 194.4
L471.055 259.2
L477.818 324
L484.582 280.8
L491.345 216
L498.109 345.6
L504.873 302.4" style="fill:none;stroke:#ff1000;stroke-linecap:square;"/>
   </g>
   <g id="line2d_61">
    <path clip-path="url(#pc565ddf9d5)" d="
M315.491 151.2
L322.255 280.8
L329.018 86.4
L335.782 302.4
L342.545 237.6
L349.309 259.2
L356.073 367.2
L362.836 345.6
L369.6 216
L376.364 367.2
L383.127 216
L389.891 367.2
L396.655 324
L403.418 388.8
L410.182 367.2
L416.945 345.6
L423.709 345.6
L430.473 367.2
L437.236 237.6
L444 280.8
L450.764 388.8
L457.527 280.8
L464.291 194.4
L471.055 259.2
L477.818 324
L484.582 280.8
L491.345 216
L498.109 345.6
L504.873 302.4" style="fill:none;stroke:#ff1800;stroke-linecap:square;"/>
   </g>
   <g id="line2d_62">
    <path clip-path="url(#pc565ddf9d5)" d="
M315.491 151.2
L322.255 280.8
L329.018 86.4
L335.782 302.4
L342.545 237.6
L349.309 259.2
L356.073 367.2
L362.836 345.6
L369.6 216
L376.364 367.2
L383.127 216
L389.891 367.2
L396.655 324
L403.418 388.8
L410.182 367.2
L416.945 345.6
L423.709 345.6
L430.473 367.2
L437.236 237.6
L444 280.8
L450.764 388.8
L457.527 280.8
L464.291 194.4
L471.055 259.2
L477.818 324
L484.582 280.8
L491.345 216
L498.109 345.6
L504.873 302.4" style="fill:none;stroke:#ff2100;stroke-linecap:square;"/>
   </g>
   <g id="line2d_63">
    <path clip-path="url(#pc565ddf9d5)" d="
M315.491 151.2
L322.255 280.8
L329.018 86.4
L335.782 302.4
L342.545 237.6
L349.309 259.2
L356.073 367.2
L362.836 345.6
L369.6 216
L376.364 367.2
L383.127 216
L389.891 367.2
L396.655 324
L403.418 388.8
L410.182 367.2
L416.945 345.6
L423.709 345.6
L430.473 367.2
L437.236 237.6
L444 280.8
L450.764 388.8
L457.527 280.8
L464.291 194.4
L471.055 259.2
L477.818 324
L484.582 280.8
L491.345 216
L498.109 345.6
L504.873 302.4" style="fill:none;stroke:#ff2900;stroke-linecap:square;"/>
   </g>
   <g id="line2d_64">
    <path clip-path="url(#pc565ddf9d5)" d="
M315.491 151.2
L322.255 280.8
L329.018 86.4
L335.782 302.4
L342.545 237.6
L349.309 259.2
L356.073 367.2
L362.836 345.6
L369.6 216
L376.364 367.2
L383.127 216
L389.891 367.2
L396.655 324
L403.418 388.8
L410.182 367.2
L416.945 345.6
L423.709 345.6
L430.473 367.2
L437.236 237.6
L444 280.8
L450.764 388.8
L457.527 280.8
L464.291 194.4
L471.055 259.2
L477.818 324
L484.582 280.8
L491.345 216
L498.109 345.6
L504.873 302.4" style="fill:none;stroke:#ff3100;stroke-linecap:square;"/>
   </g>
   <g id="line2d_65">
    <path clip-path="url(#pc565ddf9d5)" d="
M315.491 151.2
L322.255 280.8
L329.018 86.4
L335.782 302.4
L342.545 237.6
L349.309 259.2
L356.073 367.2
L362.836 345.6
L369.6 216
L376.364 367.2
L383.127 216
L389.891 367.2
L396.655 324
L403.418 388.8
L410.182 367.2
L416.945 345.6
L423.709 345.6
L430.473 367.2
L437.236 237.6
L444 280.8
L450.764 388.8
L457.527 280.8
L464.291 194.4
L471.055 259.2
L477.818 324
L484.582 280.8
L491.345 216
L498.109 345.6
L504.873 302.4" style="fill:none;stroke:#ff3900;stroke-linecap:square;"/>
   </g>
   <g id="line2d_66">
    <path clip-path="url(#pc565ddf9d5)" d="
M315.491 151.2
L322.255 280.8
L329.018 86.4
L335.782 302.4
L342.545 237.6
L349.309 259.2
L356.073 367.2
L362.836 345.6
L369.6 216
L376.364 367.2
L383.127 216
L389.891 367.2
L396.655 324
L403.418 388.8
L410.182 367.2
L416.945 345.6
L423.709 345.6
L430.473 367.2
L437.236 237.6
L444 280.8
L450.764 388.8
L457.527 280.8
L464.291 194.4
L471.055 259.2
L477.818 324
L484.582 280.8
L491.345 216
L498.109 345.6
L504.873 302.4" style="fill:none;stroke:#ff4200;stroke-linecap:square;"/>
   </g>
   <g id="line2d_67">
    <path clip-path="url(#pc565ddf9d5)" d="
M315.491 151.2
L322.255 280.8
L329.018 86.4
L335.782 302.4
L342.545 237.6
L349.309 259.2
L356.073 367.2
L362.836 345.6
L369.6 216
L376.364 367.2
L383.127 216
L389.891 367.2
L396.655 324
L403.418 388.8
L410.182 367.2
L416.945 345.6
L423.709 345.6
L430.473 367.2
L437.236 237.6
L444 280.8
L450.764 388.8
L457.527 280.8
L464.291 194.4
L471.055 259.2
L477.818 324
L484.582 280.8
L491.345 216
L498.109 345.6
L504.873 302.4" style="fill:none;stroke:#ff4a00;stroke-linecap:square;"/>
   </g>
   <g id="line2d_68">
    <path clip-path="url(#pc565ddf9d5)" d="
M315.491 151.2
L322.255 280.8
L329.018 86.4
L335.782 302.4
L342.545 237.6
L349.309 259.2
L356.073 367.2
L362.836 345.6
L369.6 216
L376.364 367.2
L383.127 216
L389.891 367.2
L396.655 324
L403.418 388.8
L410.182 367.2
L416.945 345.6
L423.709 345.6
L430.473 367.2
L437.236 237.6
L444 280.8
L450.764 388.8
L457.527 280.8
L464.291 194.4
L471.055 259.2
L477.818 324
L484.582 280.8
L491.345 216
L498.109 345.6
L504.873 302.4" style="fill:none;stroke:#ff5200;stroke-linecap:square;"/>
   </g>
   <g id="line2d_69">
    <path clip-path="url(#pc565ddf9d5)" d="
M315.491 151.2
L322.255 280.8
L329.018 86.4
L335.782 302.4
L342.545 237.6
L349.309 259.2
L356.073 367.2
L362.836 345.6
L369.6 216
L376.364 367.2
L383.127 216
L389.891 367.2
L396.655 324
L403.418 388.8
L410.182 367.2
L416.945 345.6
L423.709 345.6
L430.473 367.2
L437.236 237.6
L444 280.8
L450.764 388.8
L457.527 280.8
L464.291 194.4
L471.055 259.2
L477.818 324
L484.582 280.8
L491.345 216
L498.109 345.6
L504.873 302.4" style="fill:none;stroke:#ff5a00;stroke-linecap:square;"/>
   </g>
   <g id="line2d_70">
    <path clip-path="url(#pc565ddf9d5)" d="
M315.491 151.2
L322.255 280.8
L329.018 86.4
L335.782 302.4
L342.545 237.6
L349.309 259.2
L356.073 367.2
L362.836 345.6
L369.6 216
L376.364 367.2
L383.127 216
L389.891 367.2
L396.655 324
L403.418 388.8
L410.182 367.2
L416.945 345.6
L423.709 345.6
L430.473 367.2
L437.236 237.6
L444 280.8
L450.764 388.8
L457.527 280.8
L464.291 194.4
L471.055 259.2
L477.818 324
L484.582 280.8
L491.345 216
L498.109 345.6
L504.873 302.4" style="fill:none;stroke:#ff6300;stroke-linecap:square;"/>
   </g>
   <g id="line2d_71">
    <path clip-path="url(#pc565ddf9d5)" d="
M315.491 151.2
L322.255 280.8
L329.018 86.4
L335.782 302.4
L342.545 237.6
L349.309 259.2
L356.073 367.2
L362.836 345.6
L369.6 216
L376.364 367.2
L383.127 216
L389.891 367.2
L396.655 324
L403.418 388.8
L410.182 367.2
L416.945 345.6
L423.709 345.6
L430.473 367.2
L437.236 237.6
L444 280.8
L450.764 388.8
L457.527 280.8
L464.291 194.4
L471.055 259.2
L477.818 324
L484.582 280.8
L491.345 216
L498.109 345.6
L504.873 302.4" style="fill:none;stroke:#ff6b00;stroke-linecap:square;"/>
   </g>
   <g id="line2d_72">
    <path clip-path="url(#pc565ddf9d5)" d="
M315.491 151.2
L322.255 280.8
L329.018 86.4
L335.782 302.4
L342.545 237.6
L349.309 259.2
L356.073 367.2
L362.836 345.6
L369.6 216
L376.364 367.2
L383.127 216
L389.891 367.2
L396.655 324
L403.418 388.8
L410.182 367.2
L416.945 345.6
L423.709 345.6
L430.473 367.2
L437.236 237.6
L444 280.8
L450.764 388.8
L457.527 280.8
L464.291 194.4
L471.055 259.2
L477.818 324
L484.582 280.8
L491.345 216
L498.109 345.6
L504.873 302.4" style="fill:none;stroke:#ff7300;stroke-linecap:square;"/>
   </g>
   <g id="line2d_73">
    <path clip-path="url(#pc565ddf9d5)" d="
M315.491 151.2
L322.255 280.8
L329.018 86.4
L335.782 302.4
L342.545 237.6
L349.309 259.2
L356.073 367.2
L362.836 345.6
L369.6 216
L376.364 367.2
L383.127 216
L389.891 367.2
L396.655 324
L403.418 388.8
L410.182 367.2
L416.945 345.6
L423.709 345.6
L430.473 367.2
L437.236 237.6
L444 280.8
L450.764 388.8
L457.527 280.8
L464.291 194.4
L471.055 259.2
L477.818 324
L484.582 280.8
L491.345 216
L498.109 345.6
L504.873 302.4" style="fill:none;stroke:#ff7b00;stroke-linecap:square;"/>
   </g>
   <g id="line2d_74">
    <path clip-path="url(#pc565ddf9d5)" d="
M315.491 151.2
L322.255 280.8
L329.018 86.4
L335.782 302.4
L342.545 237.6
L349.309 259.2
L356.073 367.2
L362.836 345.6
L369.6 216
L376.364 367.2
L383.127 216
L389.891 367.2
L396.655 324
L403.418 388.8
L410.182 367.2
L416.945 345.6
L423.709 345.6
L430.473 367.2
L437.236 237.6
L444 280.8
L450.764 388.8
L457.527 280.8
L464.291 194.4
L471.055 259.2
L477.818 324
L484.582 280.8
L491.345 216
L498.109 345.6
L504.873 302.4" style="fill:none;stroke:#ff8400;stroke-linecap:square;"/>
   </g>
   <g id="line2d_75">
    <path clip-path="url(#pc565ddf9d5)" d="
M315.491 151.2
L322.255 280.8
L329.018 86.4
L335.782 302.4
L342.545 237.6
L349.309 259.2
L356.073 367.2
L362.836 345.6
L369.6 216
L376.364 367.2
L383.127 216
L389.891 367.2
L396.655 324
L403.418 388.8
L410.182 367.2
L416.945 345.6
L423.709 345.6
L430.473 367.2
L437.236 237.6
L444 280.8
L450.764 388.8
L457.527 280.8
L464.291 194.4
L471.055 259.2
L477.818 324
L484.582 280.8
L491.345 216
L498.109 345.6
L504.873 302.4" style="fill:none;stroke:#ff8c00;stroke-linecap:square;"/>
   </g>
   <g id="line2d_76">
    <path clip-path="url(#pc565ddf9d5)" d="
M315.491 151.2
L322.255 280.8
L329.018 86.4
L335.782 302.4
L342.545 237.6
L349.309 259.2
L356.073 367.2
L362.836 345.6
L369.6 216
L376.364 367.2
L383.127 216
L389.891 367.2
L396.655 324
L403.418 388.8
L410.182 367.2
L416.945 345.6
L423.709 345.6
L430.473 367.2
L437.236 237.6
L444 280.8
L450.764 388.8
L457.527 280.8
L464.291 194.4
L471.055 259.2
L477.818 324
L484.582 280.8
L491.345 216
L498.109 345.6
L504.873 302.4" style="fill:none;stroke:#ff9400;stroke-linecap:square;"/>
   </g>
   <g id="line2d_77">
    <path clip-path="url(#pc565ddf9d5)" d="
M315.491 151.2
L322.255 280.8
L329.018 86.4
L335.782 302.4
L342.545 237.6
L349.309 259.2
L356.073 367.2
L362.836 345.6
L369.6 216
L376.364 367.2
L383.127 216
L389.891 367.2
L396.655 324
L403.418 388.8
L410.182 367.2
L416.945 345.6
L423.709 345.6
L430.473 367.2
L437.236 237.6
L444 280.8
L450.764 388.8
L457.527 280.8
L464.291 194.4
L471.055 259.2
L477.818 324
L484.582 280.8
L491.345 216
L498.109 345.6
L504.873 302.4" style="fill:none;stroke:#ff9c00;stroke-linecap:square;"/>
   </g>
   <g id="line2d_78">
    <path clip-path="url(#pc565ddf9d5)" d="
M315.491 151.2
L322.255 280.8
L329.018 86.4
L335.782 302.4
L342.545 237.6
L349.309 259.2
L356.073 367.2
L362.836 345.6
L369.6 216
L376.364 367.2
L383.127 216
L389.891 367.2
L396.655 324
L403.418 388.8
L410.182 367.2
L416.945 345.6
L423.709 345.6
L430.473 367.2
L437.236 237.6
L444 280.8
L450.764 388.8
L457.527 280.8
L464.291 194.4
L471.055 259.2
L477.818 324
L484.582 280.8
L491.345 216
L498.109 345.6
L504.873 302.4" style="fill:none;stroke:#ffa500;stroke-linecap:square;"/>
   </g>
   <g id="line2d_79">
    <path clip-path="url(#pc565ddf9d5)" d="
M315.491 151.2
L322.255 280.8
L329.018 86.4
L335.782 302.4
L342.545 237.6
L349.309 259.2
L356.073 367.2
L362.836 345.6
L369.6 216
L376.364 367.2
L383.127 216
L389.891 367.2
L396.655 324
L403.418 388.8
L410.182 367.2
L416.945 345.6
L423.709 345.6
L430.473 367.2
L437.236 237.6
L444 280.8
L450.764 388.8
L457.527 280.8
L464.291 194.4
L471.055 259.2
L477.818 324
L484.582 280.8
L491.345 216
L498.109 345.6
L504.873 302.4" style="fill:none;stroke:#ffad00;stroke-linecap:square;"/>
   </g>
   <g id="line2d_80">
    <path clip-path="url(#pc565ddf9d5)" d="
M315.491 151.2
L322.255 280.8
L329.018 86.4
L335.782 302.4
L342.545 237.6
L349.309 259.2
L356.073 367.2
L362.836 345.6
L369.6 216
L376.364 367.2
L383.127 216
L389.891 367.2
L396.655 324
L403.418 388.8
L410.182 367.2
L416.945 345.6
L423.709 345.6
L430.473 367.2
L437.236 237.6
L444 280.8
L450.764 388.8
L457.527 280.8
L464.291 194.4
L471.055 259.2
L477.818 324
L484.582 280.8
L491.345 216
L498.109 345.6
L504.873 302.4" style="fill:none;stroke:#ffb500;stroke-linecap:square;"/>
   </g>
   <g id="line2d_81">
    <path clip-path="url(#pc565ddf9d5)" d="
M315.491 151.2
L322.255 280.8
L329.018 86.4
L335.782 302.4
L342.545 237.6
L349.309 259.2
L356.073 367.2
L362.836 345.6
L369.6 216
L376.364 367.2
L383.127 216
L389.891 367.2
L396.655 324
L403.418 388.8
L410.182 367.2
L416.945 345.6
L423.709 345.6
L430.473 367.2
L437.236 237.6
L444 280.8
L450.764 388.8
L457.527 280.8
L464.291 194.4
L471.055 259.2
L477.818 324
L484.582 280.8
L491.345 216
L498.109 345.6
L504.873 302.4" style="fill:none;stroke:#ffbd00;stroke-linecap:square;"/>
   </g>
   <g id="line2d_82">
    <path clip-path="url(#pc565ddf9d5)" d="
M315.491 151.2
L322.255 280.8
L329.018 86.4
L335.782 302.4
L342.545 237.6
L349.309 259.2
L356.073 367.2
L362.836 345.6
L369.6 216
L376.364 367.2
L383.127 216
L389.891 367.2
L396.655 324
L403.418 388.8
L410.182 367.2
L416.945 345.6
L423.709 345.6
L430.473 367.2
L437.236 237.6
L444 280.8
L450.764 388.8
L457.527 280.8
L464.291 194.4
L471.055 259.2
L477.818 324
L484.582 280.8
L491.345 216
L498.109 345.6
L504.873 302.4" style="fill:none;stroke:#ffc600;stroke-linecap:square;"/>
   </g>
   <g id="line2d_83">
    <path clip-path="url(#pc565ddf9d5)" d="
M315.491 151.2
L322.255 280.8
L329.018 86.4
L335.782 302.4
L342.545 237.6
L349.309 259.2
L356.073 367.2
L362.836 345.6
L369.6 216
L376.364 367.2
L383.127 216
L389.891 367.2
L396.655 324
L403.418 388.8
L410.182 367.2
L416.945 345.6
L423.709 345.6
L430.473 367.2
L437.236 237.6
L444 280.8
L450.764 388.8
L457.527 280.8
L464.291 194.4
L471.055 259.2
L477.818 324
L484.582 280.8
L491.345 216
L498.109 345.6
L504.873 302.4" style="fill:none;stroke:#ffce00;stroke-linecap:square;"/>
   </g>
   <g id="line2d_84">
    <path clip-path="url(#pc565ddf9d5)" d="
M315.491 151.2
L322.255 280.8
L329.018 86.4
L335.782 302.4
L342.545 237.6
L349.309 259.2
L356.073 367.2
L362.836 345.6
L369.6 216
L376.364 367.2
L383.127 216
L389.891 367.2
L396.655 324
L403.418 388.8
L410.182 367.2
L416.945 345.6
L423.709 345.6
L430.473 367.2
L437.236 237.6
L444 280.8
L450.764 388.8
L457.527 280.8
L464.291 194.4
L471.055 259.2
L477.818 324
L484.582 280.8
L491.345 216
L498.109 345.6
L504.873 302.4" style="fill:none;stroke:#ffd600;stroke-linecap:square;"/>
   </g>
   <g id="line2d_85">
    <path clip-path="url(#pc565ddf9d5)" d="
M315.491 151.2
L322.255 280.8
L329.018 86.4
L335.782 302.4
L342.545 237.6
L349.309 259.2
L356.073 367.2
L362.836 345.6
L369.6 216
L376.364 367.2
L383.127 216
L389.891 367.2
L396.655 324
L403.418 388.8
L410.182 367.2
L416.945 345.6
L423.709 345.6
L430.473 367.2
L437.236 237.6
L444 280.8
L450.764 388.8
L457.527 280.8
L464.291 194.4
L471.055 259.2
L477.818 324
L484.582 280.8
L491.345 216
L498.109 345.6
L504.873 302.4" style="fill:none;stroke:#ffde00;stroke-linecap:square;"/>
   </g>
   <g id="line2d_86">
    <path clip-path="url(#pc565ddf9d5)" d="
M315.491 151.2
L322.255 280.8
L329.018 86.4
L335.782 302.4
L342.545 237.6
L349.309 259.2
L356.073 367.2
L362.836 345.6
L369.6 216
L376.364 367.2
L383.127 216
L389.891 367.2
L396.655 324
L403.418 388.8
L410.182 367.2
L416.945 345.6
L423.709 345.6
L430.473 367.2
L437.236 237.6
L444 280.8
L450.764 388.8
L457.527 280.8
L464.291 194.4
L471.055 259.2
L477.818 324
L484.582 280.8
L491.345 216
L498.109 345.6
L504.873 302.4" style="fill:none;stroke:#ffe700;stroke-linecap:square;"/>
   </g>
   <g id="line2d_87">
    <path clip-path="url(#pc565ddf9d5)" d="
M315.491 151.2
L322.255 280.8
L329.018 86.4
L335.782 302.4
L342.545 237.6
L349.309 259.2
L356.073 367.2
L362.836 345.6
L369.6 216
L376.364 367.2
L383.127 216
L389.891 367.2
L396.655 324
L403.418 388.8
L410.182 367.2
L416.945 345.6
L423.709 345.6
L430.473 367.2
L437.236 237.6
L444 280.8
L450.764 388.8
L457.527 280.8
L464.291 194.4
L471.055 259.2
L477.818 324
L484.582 280.8
L491.345 216
L498.109 345.6
L504.873 302.4" style="fill:none;stroke:#ffef00;stroke-linecap:square;"/>
   </g>
   <g id="line2d_88">
    <path clip-path="url(#pc565ddf9d5)" d="
M315.491 151.2
L322.255 280.8
L329.018 86.4
L335.782 302.4
L342.545 237.6
L349.309 259.2
L356.073 367.2
L362.836 345.6
L369.6 216
L376.364 367.2
L383.127 216
L389.891 367.2
L396.655 324
L403.418 388.8
L410.182 367.2
L416.945 345.6
L423.709 345.6
L430.473 367.2
L437.236 237.6
L444 280.8
L450.764 388.8
L457.527 280.8
L464.291 194.4
L471.055 259.2
L477.818 324
L484.582 280.8
L491.345 216
L498.109 345.6
L504.873 302.4" style="fill:none;stroke:#fff700;stroke-linecap:square;"/>
   </g>
   <g id="patch_8">
    <path d="
M315.491 43.2
L518.4 43.2" style="fill:none;stroke:#000000;stroke-linecap:square;stroke-linejoin:miter;"/>
   </g>
   <g id="patch_9">
    <path d="
M518.4 388.8
L518.4 43.2" style="fill:none;stroke:#000000;stroke-linecap:square;stroke-linejoin:miter;"/>
   </g>
   <g id="patch_10">
    <path d="
M315.491 388.8
L518.4 388.8" style="fill:none;stroke:#000000;stroke-linecap:square;stroke-linejoin:miter;"/>
   </g>
   <g id="patch_11">
    <path d="
M315.491 388.8
L315.491 43.2" style="fill:none;stroke:#000000;stroke-linecap:square;stroke-linejoin:miter;"/>
   </g>
   <g id="matplotlib.axis_3">
    <g id="xtick_8">
     <g id="line2d_89">
      <g>
       <use style="stroke:#000000;stroke-width:0.5;" x="315.490909091" xlink:href="#m93b0483c22" y="388.8"/>
      </g>
     </g>
     <g id="line2d_90">
      <g>
       <use style="stroke:#000000;stroke-width:0.5;" x="315.490909091" xlink:href="#m741efc42ff" y="43.2"/>
      </g>
     </g>
     <g id="text_17">
      <!-- −1.0 -->
      <g transform="translate(301.955284091 401.918125)scale(0.12 -0.12)">
       <use xlink:href="#BitstreamVeraSans-Roman-2212"/>
       <use x="83.7890625" xlink:href="#BitstreamVeraSans-Roman-31"/>
       <use x="147.412109375" xlink:href="#BitstreamVeraSans-Roman-2e"/>
       <use x="179.19921875" xlink:href="#BitstreamVeraSans-Roman-30"/>
      </g>
     </g>
    </g>
    <g id="xtick_9">
     <g id="line2d_91">
      <g>
       <use style="stroke:#000000;stroke-width:0.5;" x="349.309090909" xlink:href="#m93b0483c22" y="388.8"/>
      </g>
     </g>
     <g id="line2d_92">
      <g>
       <use style="stroke:#000000;stroke-width:0.5;" x="349.309090909" xlink:href="#m741efc42ff" y="43.2"/>
      </g>
     </g>
     <g id="text_18">
      <!-- −0.5 -->
      <g transform="translate(335.899090909 401.918125)scale(0.12 -0.12)">
       <use xlink:href="#BitstreamVeraSans-Roman-2212"/>
       <use x="83.7890625" xlink:href="#BitstreamVeraSans-Roman-30"/>
       <use x="147.412109375" xlink:href="#BitstreamVeraSans-Roman-2e"/>
       <use x="179.19921875" xlink:href="#BitstreamVeraSans-Roman-35"/>
      </g>
     </g>
    </g>
    <g id="xtick_10">
     <g id="line2d_93">
      <g>
       <use style="stroke:#000000;stroke-width:0.5;" x="383.127272727" xlink:href="#m93b0483c22" y="388.8"/>
      </g>
     </g>
     <g id="line2d_94">
      <g>
       <use style="stroke:#000000;stroke-width:0.5;" x="383.127272727" xlink:href="#m741efc42ff" y="43.2"/>
      </g>
     </g>
     <g id="text_19">
      <!-- 0.0 -->
      <g transform="translate(374.379460227 401.918125)scale(0.12 -0.12)">
       <use xlink:href="#BitstreamVeraSans-Roman-30"/>
       <use x="63.623046875" xlink:href="#BitstreamVeraSans-Roman-2e"/>
       <use x="95.41015625" xlink:href="#BitstreamVeraSans-Roman-30"/>
      </g>
     </g>
    </g>
    <g id="xtick_11">
     <g id="line2d_95">
      <g>
       <use style="stroke:#000000;stroke-width:0.5;" x="416.945454545" xlink:href="#m93b0483c22" y="388.8"/>
      </g>
     </g>
     <g id="line2d_96">
      <g>
       <use style="stroke:#000000;stroke-width:0.5;" x="416.945454545" xlink:href="#m741efc42ff" y="43.2"/>
      </g>
     </g>
     <g id="text_20">
      <!-- 0.5 -->
      <g transform="translate(408.323267045 401.918125)scale(0.12 -0.12)">
       <use xlink:href="#BitstreamVeraSans-Roman-30"/>
       <use x="63.623046875" xlink:href="#BitstreamVeraSans-Roman-2e"/>
       <use x="95.41015625" xlink:href="#BitstreamVeraSans-Roman-35"/>
      </g>
     </g>
    </g>
    <g id="xtick_12">
     <g id="line2d_97">
      <g>
       <use style="stroke:#000000;stroke-width:0.5;" x="450.763636364" xlink:href="#m93b0483c22" y="388.8"/>
      </g>
     </g>
     <g id="line2d_98">
      <g>
       <use style="stroke:#000000;stroke-width:0.5;" x="450.763636364" xlink:href="#m741efc42ff" y="43.2"/>
      </g>
     </g>
     <g id="text_21">
      <!-- 1.0 -->
      <g transform="translate(442.279261364 401.918125)scale(0.12 -0.12)">
       <use xlink:href="#BitstreamVeraSans-Roman-31"/>
       <use x="63.623046875" xlink:href="#BitstreamVeraSans-Roman-2e"/>
       <use x="95.41015625" xlink:href="#BitstreamVeraSans-Roman-30"/>
      </g>
     </g>
    </g>
    <g id="xtick_13">
     <g id="line2d_99">
      <g>
       <use style="stroke:#000000;stroke-width:0.5;" x="484.581818182" xlink:href="#m93b0483c22" y="388.8"/>
      </g>
     </g>
     <g id="line2d_100">
      <g>
       <use style="stroke:#000000;stroke-width:0.5;" x="484.581818182" xlink:href="#m741efc42ff" y="43.2"/>
      </g>
     </g>
     <g id="text_22">
      <!-- 1.5 -->
      <g transform="translate(476.223068182 401.918125)scale(0.12 -0.12)">
       <use xlink:href="#BitstreamVeraSans-Roman-31"/>
       <use x="63.623046875" xlink:href="#BitstreamVeraSans-Roman-2e"/>
       <use x="95.41015625" xlink:href="#BitstreamVeraSans-Roman-35"/>
      </g>
     </g>
    </g>
    <g id="xtick_14">
     <g id="line2d_101">
      <g>
       <use style="stroke:#000000;stroke-width:0.5;" x="518.4" xlink:href="#m93b0483c22" y="388.8"/>
      </g>
     </g>
     <g id="line2d_102">
      <g>
       <use style="stroke:#000000;stroke-width:0.5;" x="518.4" xlink:href="#m741efc42ff" y="43.2"/>
      </g>
     </g>
     <g id="text_23">
      <!-- 2.0 -->
      <g transform="translate(509.69625 401.918125)scale(0.12 -0.12)">
       <use xlink:href="#BitstreamVeraSans-Roman-32"/>
       <use x="63.623046875" xlink:href="#BitstreamVeraSans-Roman-2e"/>
       <use x="95.41015625" xlink:href="#BitstreamVeraSans-Roman-30"/>
      </g>
     </g>
    </g>
    <g id="text_24">
     <!-- Time (s) -->
     <g transform="translate(393.048579545 418.531875)scale(0.12 -0.12)">
      <use xlink:href="#BitstreamVeraSans-Roman-54"/>
      <use x="57.958984375" xlink:href="#BitstreamVeraSans-Roman-69"/>
      <use x="85.7421875" xlink:href="#BitstreamVeraSans-Roman-6d"/>
      <use x="183.154296875" xlink:href="#BitstreamVeraSans-Roman-65"/>
      <use x="244.677734375" xlink:href="#BitstreamVeraSans-Roman-20"/>
      <use x="276.46484375" xlink:href="#BitstreamVeraSans-Roman-28"/>
      <use x="315.478515625" xlink:href="#BitstreamVeraSans-Roman-73"/>
      <use x="367.578125" xlink:href="#BitstreamVeraSans-Roman-29"/>
     </g>
    </g>
   </g>
   <g id="matplotlib.axis_4">
    <g id="ytick_7">
     <g id="line2d_103">
      <g>
       <use style="stroke:#000000;stroke-width:0.5;" x="315.490909091" xlink:href="#m728421d6d4" y="388.8"/>
      </g>
     </g>
     <g id="line2d_104">
      <g>
       <use style="stroke:#000000;stroke-width:0.5;" x="518.4" xlink:href="#mcb0005524f" y="388.8"/>
      </g>
     </g>
     <g id="text_25">
      <!-- 0.2 -->
      <g transform="translate(294.400284091 392.11125)scale(0.12 -0.12)">
       <use xlink:href="#BitstreamVeraSans-Roman-30"/>
       <use x="63.623046875" xlink:href="#BitstreamVeraSans-Roman-2e"/>
       <use x="95.41015625" xlink:href="#BitstreamVeraSans-Roman-32"/>
      </g>
     </g>
    </g>
    <g id="ytick_8">
     <g id="line2d_105">
      <g>
       <use style="stroke:#000000;stroke-width:0.5;" x="315.490909091" xlink:href="#m728421d6d4" y="345.6"/>
      </g>
     </g>
     <g id="line2d_106">
      <g>
       <use style="stroke:#000000;stroke-width:0.5;" x="518.4" xlink:href="#mcb0005524f" y="345.6"/>
      </g>
     </g>
     <g id="text_26">
      <!-- 0.4 -->
      <g transform="translate(293.871534091 348.91125)scale(0.12 -0.12)">
       <use xlink:href="#BitstreamVeraSans-Roman-30"/>
       <use x="63.623046875" xlink:href="#BitstreamVeraSans-Roman-2e"/>
       <use x="95.41015625" xlink:href="#BitstreamVeraSans-Roman-34"/>
      </g>
     </g>
    </g>
    <g id="ytick_9">
     <g id="line2d_107">
      <g>
       <use style="stroke:#000000;stroke-width:0.5;" x="315.490909091" xlink:href="#m728421d6d4" y="302.4"/>
      </g>
     </g>
     <g id="line2d_108">
      <g>
       <use style="stroke:#000000;stroke-width:0.5;" x="518.4" xlink:href="#mcb0005524f" y="302.4"/>
      </g>
     </g>
     <g id="text_27">
      <!-- 0.6 -->
      <g transform="translate(293.954034091 305.71125)scale(0.12 -0.12)">
       <use xlink:href="#BitstreamVeraSans-Roman-30"/>
       <use x="63.623046875" xlink:href="#BitstreamVeraSans-Roman-2e"/>
       <use x="95.41015625" xlink:href="#BitstreamVeraSans-Roman-36"/>
      </g>
     </g>
    </g>
    <g id="ytick_10">
     <g id="line2d_109">
      <g>
       <use style="stroke:#000000;stroke-width:0.5;" x="315.490909091" xlink:href="#m728421d6d4" y="259.2"/>
      </g>
     </g>
     <g id="line2d_110">
      <g>
       <use style="stroke:#000000;stroke-width:0.5;" x="518.4" xlink:href="#mcb0005524f" y="259.2"/>
      </g>
     </g>
     <g id="text_28">
      <!-- 0.8 -->
      <g transform="translate(294.019659091 262.51125)scale(0.12 -0.12)">
       <use xlink:href="#BitstreamVeraSans-Roman-30"/>
       <use x="63.623046875" xlink:href="#BitstreamVeraSans-Roman-2e"/>
       <use x="95.41015625" xlink:href="#BitstreamVeraSans-Roman-38"/>
      </g>
     </g>
    </g>
    <g id="ytick_11">
     <g id="line2d_111">
      <g>
       <use style="stroke:#000000;stroke-width:0.5;" x="315.490909091" xlink:href="#m728421d6d4" y="216.0"/>
      </g>
     </g>
     <g id="line2d_112">
      <g>
       <use style="stroke:#000000;stroke-width:0.5;" x="518.4" xlink:href="#mcb0005524f" y="216.0"/>
      </g>
     </g>
     <g id="text_29">
      <!-- 1.0 -->
      <g transform="translate(294.522159091 219.31125)scale(0.12 -0.12)">
       <use xlink:href="#BitstreamVeraSans-Roman-31"/>
       <use x="63.623046875" xlink:href="#BitstreamVeraSans-Roman-2e"/>
       <use x="95.41015625" xlink:href="#BitstreamVeraSans-Roman-30"/>
      </g>
     </g>
    </g>
    <g id="ytick_12">
     <g id="line2d_113">
      <g>
       <use style="stroke:#000000;stroke-width:0.5;" x="315.490909091" xlink:href="#m728421d6d4" y="172.8"/>
      </g>
     </g>
     <g id="line2d_114">
      <g>
       <use style="stroke:#000000;stroke-width:0.5;" x="518.4" xlink:href="#mcb0005524f" y="172.8"/>
      </g>
     </g>
     <g id="text_30">
      <!-- 1.2 -->
      <g transform="translate(294.927159091 176.11125)scale(0.12 -0.12)">
       <use xlink:href="#BitstreamVeraSans-Roman-31"/>
       <use x="63.623046875" xlink:href="#BitstreamVeraSans-Roman-2e"/>
       <use x="95.41015625" xlink:href="#BitstreamVeraSans-Roman-32"/>
      </g>
     </g>
    </g>
    <g id="ytick_13">
     <g id="line2d_115">
      <g>
       <use style="stroke:#000000;stroke-width:0.5;" x="315.490909091" xlink:href="#m728421d6d4" y="129.6"/>
      </g>
     </g>
     <g id="line2d_116">
      <g>
       <use style="stroke:#000000;stroke-width:0.5;" x="518.4" xlink:href="#mcb0005524f" y="129.6"/>
      </g>
     </g>
     <g id="text_31">
      <!-- 1.4 -->
      <g transform="translate(294.398409091 132.91125)scale(0.12 -0.12)">
       <use xlink:href="#BitstreamVeraSans-Roman-31"/>
       <use x="63.623046875" xlink:href="#BitstreamVeraSans-Roman-2e"/>
       <use x="95.41015625" xlink:href="#BitstreamVeraSans-Roman-34"/>
      </g>
     </g>
    </g>
    <g id="ytick_14">
     <g id="line2d_117">
      <g>
       <use style="stroke:#000000;stroke-width:0.5;" x="315.490909091" xlink:href="#m728421d6d4" y="86.4"/>
      </g>
     </g>
     <g id="line2d_118">
      <g>
       <use style="stroke:#000000;stroke-width:0.5;" x="518.4" xlink:href="#mcb0005524f" y="86.4"/>
      </g>
     </g>
     <g id="text_32">
      <!-- 1.6 -->
      <g transform="translate(294.480909091 89.71125)scale(0.12 -0.12)">
       <use xlink:href="#BitstreamVeraSans-Roman-31"/>
       <use x="63.623046875" xlink:href="#BitstreamVeraSans-Roman-2e"/>
       <use x="95.41015625" xlink:href="#BitstreamVeraSans-Roman-36"/>
      </g>
     </g>
    </g>
    <g id="ytick_15">
     <g id="line2d_119">
      <g>
       <use style="stroke:#000000;stroke-width:0.5;" x="315.490909091" xlink:href="#m728421d6d4" y="43.2"/>
      </g>
     </g>
     <g id="line2d_120">
      <g>
       <use style="stroke:#000000;stroke-width:0.5;" x="518.4" xlink:href="#mcb0005524f" y="43.2"/>
      </g>
     </g>
     <g id="text_33">
      <!-- 1.8 -->
      <g transform="translate(294.546534091 46.51125)scale(0.12 -0.12)">
       <use xlink:href="#BitstreamVeraSans-Roman-31"/>
       <use x="63.623046875" xlink:href="#BitstreamVeraSans-Roman-2e"/>
       <use x="95.41015625" xlink:href="#BitstreamVeraSans-Roman-38"/>
      </g>
     </g>
    </g>
   </g>
   <g id="text_34">
    <!-- Regular -->
    <defs>
     <path d="
M8.5 21.5781
L8.5 54.6875
L17.4844 54.6875
L17.4844 21.9219
Q17.4844 14.1562 20.5 10.2656
Q23.5312 6.39062 29.5938 6.39062
Q36.8594 6.39062 41.0781 11.0312
Q45.3125 15.6719 45.3125 23.6875
L45.3125 54.6875
L54.2969 54.6875
L54.2969 0
L45.3125 0
L45.3125 8.40625
Q42.0469 3.42188 37.7188 1
Q33.4062 -1.42188 27.6875 -1.42188
Q18.2656 -1.42188 13.375 4.4375
Q8.5 10.2969 8.5 21.5781" id="BitstreamVeraSans-Roman-75"/>
     <path d="
M9.42188 75.9844
L18.4062 75.9844
L18.4062 0
L9.42188 0
z
" id="BitstreamVeraSans-Roman-6c"/>
    </defs>
    <g transform="translate(390.036579545 38.2)scale(0.144 -0.144)">
     <use xlink:href="#BitstreamVeraSans-Roman-52"/>
     <use x="64.982421875" xlink:href="#BitstreamVeraSans-Roman-65"/>
     <use x="126.505859375" xlink:href="#BitstreamVeraSans-Roman-67"/>
     <use x="189.982421875" xlink:href="#BitstreamVeraSans-Roman-75"/>
     <use x="253.361328125" xlink:href="#BitstreamVeraSans-Roman-6c"/>
     <use x="281.14453125" xlink:href="#BitstreamVeraSans-Roman-61"/>
     <use x="342.423828125" xlink:href="#BitstreamVeraSans-Roman-72"/>
    </g>
   </g>
  </g>
 </g>
 <defs>
  <clipPath id="p346f55e68c">
   <rect height="345.6" width="202.909090909" x="72.0" y="43.2"/>
  </clipPath>
  <clipPath id="pc565ddf9d5">
   <rect height="345.6" width="202.909090909" x="315.490909091" y="43.2"/>
  </clipPath>
 </defs>
</svg>
