<?xml version="1.0" encoding="utf-8" standalone="no"?>
<!DOCTYPE svg PUBLIC "-//W3C//DTD SVG 1.1//EN"
  "http://www.w3.org/Graphics/SVG/1.1/DTD/svg11.dtd">
<!-- Created with matplotlib (http://matplotlib.org/) -->
<svg height="432pt" version="1.1" viewBox="0 0 576 432" width="576pt" xmlns="http://www.w3.org/2000/svg" xmlns:xlink="http://www.w3.org/1999/xlink">
 <defs>
  <style type="text/css">
*{stroke-linecap:butt;stroke-linejoin:round;}
  </style>
 </defs>
 <g id="figure_1">
  <g id="patch_1">
   <path d="
M0 432
L576 432
L576 0
L0 0
z
" style="fill:#ffffff;"/>
  </g>
  <g id="axes_1">
   <g id="patch_2">
    <path d="
M72 388.8
L518.4 388.8
L518.4 43.2
L72 43.2
z
" style="fill:#ffffff;"/>
   </g>
   <g id="line2d_1">
    <path clip-path="url(#p7ff5b81e1d)" d="
M72 388.8
L72.6386 216
L73.2773 158.4
L74.5545 158.4
L75.1931 129.6
L78.3863 129.6
L79.0249 43.2
L81.5794 43.2
L82.218 388.8
L82.8567 43.2
L92.4361 43.2
L93.0747 388.8
L94.9906 388.8
L95.6292 216
L96.2678 158.4
L96.9064 129.6
L97.5451 112.32
L98.8223 112.32
L99.4609 100.8
L100.1 43.2
L101.377 43.2
L102.015 92.5714
L102.654 100.8
L103.293 158.4
L103.931 181.44
L104.57 216
L107.124 216
L107.763 273.6
L108.402 273.6
L109.04 158.4
L109.679 216
L110.318 158.4
L110.956 158.4
L111.595 129.6
L112.233 129.6
L112.872 112.32
L113.511 181.44
L114.149 158.4
L114.788 158.4
L115.427 141.943
L116.065 158.4
L116.704 112.32
L117.981 112.32
L118.62 129.6
L119.258 129.6
L119.897 158.4
L120.536 43.2
L125.006 43.2
L125.645 216
L126.283 158.4
L126.922 129.6
L128.199 129.6
L128.838 181.44
L129.476 181.44
L130.115 158.4
L130.754 141.943
L132.031 141.943
L132.67 92.5714
L133.308 92.5714
L133.947 100.8
L134.585 112.32
L135.224 100.8
L135.863 43.2
L136.501 43.2
L137.14 112.32
L137.779 129.6
L138.417 112.32
L139.056 112.32
L139.694 129.6
L140.333 158.4
L141.61 158.4
L142.249 216
L144.803 216
L145.442 388.8
L146.719 388.8
L147.358 216
L147.997 216
L148.635 273.6
L150.551 273.6
L151.19 216
L153.744 216
L154.383 388.8
L155.021 388.8
L155.66 43.2
L156.299 216
L156.937 273.6
L157.576 273.6
L158.215 216
L158.853 216
L159.492 181.44
L160.13 216
L160.769 216
L161.408 240.686
L162.046 216
L162.685 240.686
L163.324 216
L166.517 216
L167.155 158.4
L167.794 191.314
L168.433 141.943
L169.071 158.4
L169.71 141.943
L170.348 141.943
L170.987 100.8
L171.626 92.5714
L172.264 100.8
L174.18 100.8
L174.819 43.2
L175.458 43.2
L176.735 141.943
L177.373 172.8
L178.012 158.4
L178.651 196.8
L179.289 181.44
L179.928 200.291
L181.844 200.291
L182.482 231.709
L184.398 137.455
L185.037 168.873
L185.676 146.88
L186.314 181.44
L186.953 181.44
L187.591 196.8
L188.23 216
L188.869 216
L189.507 191.314
L190.146 240.686
L190.785 273.6
L191.423 331.2
L192.062 273.6
L192.7 290.057
L193.339 240.686
L195.255 240.686
L195.894 290.057
L196.532 259.2
L197.171 240.686
L197.809 259.2
L198.448 216
L199.725 216
L200.364 240.686
L201.003 191.314
L201.641 191.314
L202.28 216
L202.918 191.314
L203.557 240.686
L204.196 240.686
L204.834 216
L205.473 216
L206.112 250.56
L207.389 250.56
L208.027 302.4
L208.666 250.56
L209.305 181.44
L209.943 158.4
L210.582 100.8
L211.221 92.5714
L211.859 86.4
L212.498 86.4
L213.136 81.6
L213.775 43.2
L221.439 43.2
L222.077 86.4
L223.355 86.4
L223.993 92.5714
L224.632 141.943
L225.27 141.943
L225.909 158.4
L226.548 141.943
L227.186 141.943
L227.825 129.6
L228.464 120
L229.102 81.6
L230.379 81.6
L231.018 77.76
L231.657 43.2
L234.85 43.2
L235.488 74.6182
L238.682 74.6182
L239.32 106.036
L241.875 106.036
L242.513 74.6182
L245.068 74.6182
L245.706 106.036
L246.345 74.6182
L246.984 77.76
L252.093 77.76
L252.731 43.2
L259.118 43.2
L259.756 74.6182
L260.395 74.6182
L261.033 77.76
L266.142 77.76
L266.781 43.2
L267.42 77.76
L268.058 74.6182
L269.974 74.6182
L270.613 106.036
L273.167 106.036
L273.806 137.455
L274.445 106.036
L275.083 106.036
L275.722 112.32
L276.999 112.32
L277.638 77.76
L278.276 77.76
L278.915 112.32
L281.47 112.32
L282.108 120
L282.747 112.32
L283.385 112.32
L284.024 120
L285.301 120
L285.94 81.6
L286.579 81.6
L287.217 120
L287.856 81.6
L288.494 81.6
L289.133 112.32
L289.772 112.32
L290.41 146.88
L291.049 137.455
L295.519 137.455
L296.158 106.036
L298.074 106.036
L298.712 137.455
L299.351 137.455
L299.99 168.873
L300.628 168.873
L301.267 137.455
L303.183 137.455
L303.821 168.873
L304.46 137.455
L305.099 137.455
L305.737 106.036
L306.376 112.32
L307.653 112.32
L308.292 120
L308.93 120
L309.569 158.4
L311.485 158.4
L312.762 235.2
L313.401 216
L314.039 181.44
L314.678 181.44
L315.317 200.291
L317.871 200.291
L318.51 216
L319.148 196.8
L319.787 196.8
L320.426 235.2
L321.703 235.2
L322.342 196.8
L322.98 196.8
L323.619 158.4
L324.258 196.8
L324.896 158.4
L325.535 146.88
L326.173 137.455
L326.812 106.036
L328.728 106.036
L329.367 112.32
L330.005 146.88
L333.837 146.88
L334.476 112.32
L335.114 112.32
L335.753 146.88
L336.391 137.455
L337.03 106.036
L337.669 137.455
L338.307 112.32
L339.585 112.32
L340.223 120
L341.5 196.8
L342.139 196.8
L342.778 158.4
L343.416 196.8
L344.055 196.8
L344.694 158.4
L345.332 146.88
L346.609 146.88
L347.248 137.455
L347.887 106.036
L348.525 106.036
L349.164 112.32
L349.803 112.32
L350.441 77.76
L351.08 112.32
L351.718 112.32
L352.357 120
L352.996 129.6
L353.634 129.6
L354.273 172.8
L355.55 172.8
L356.189 158.4
L356.827 158.4
L357.466 196.8
L358.105 196.8
L358.743 216
L359.382 196.8
L360.021 216
L360.659 216
L361.298 181.44
L363.852 181.44
L364.491 158.4
L365.13 120
L365.768 112.32
L366.407 112.32
L367.045 77.76
L368.961 77.76
L369.6 43.2
L378.541 43.2
L379.179 74.6182
L380.457 74.6182
L381.095 106.036
L382.373 106.036
L383.011 137.455
L385.566 137.455
L386.204 106.036
L387.482 106.036
L388.12 77.76
L388.759 81.6
L389.397 81.6
L390.036 43.2
L392.591 43.2
L393.229 86.4
L394.506 86.4
L395.145 81.6
L395.784 81.6
L396.422 86.4
L398.338 86.4
L398.977 129.6
L399.615 120
L400.254 81.6
L401.531 158.4
L402.17 158.4
L402.809 146.88
L403.447 137.455
L404.086 137.455
L404.724 168.873
L405.363 181.44
L406.002 158.4
L406.64 172.8
L407.279 172.8
L408.556 86.4
L409.195 92.5714
L411.111 92.5714
L411.749 43.2
L413.665 43.2
L414.304 77.76
L414.942 77.76
L415.581 81.6
L416.22 77.76
L420.69 77.76
L421.329 43.2
L423.883 43.2
L424.522 77.76
L427.076 77.76
L428.354 146.88
L428.992 168.873
L429.631 200.291
L430.27 216
L430.908 216
L431.547 196.8
L435.379 196.8
L436.656 120
L437.294 112.32
L437.933 120
L438.572 112.32
L440.488 112.32
L441.126 120
L442.403 43.2
L443.042 43.2
L443.681 81.6
L444.319 81.6
L444.958 77.76
L446.235 77.76
L446.874 112.32
L447.512 112.32
L448.151 106.036
L450.067 106.036
L450.706 74.6182
L451.344 106.036
L453.26 106.036
L453.899 74.6182
L456.453 74.6182
L457.092 106.036
L459.008 106.036
L459.646 137.455
L460.285 137.455
L460.924 168.873
L463.478 168.873
L464.117 137.455
L464.755 137.455
L465.394 106.036
L466.033 137.455
L466.671 112.32
L472.419 112.32
L473.058 77.76
L474.335 137.455
L474.973 106.036
L475.612 137.455
L477.528 137.455
L478.167 168.873
L480.082 168.873
L481.36 106.036
L481.998 106.036
L482.637 74.6182
L483.276 74.6182
L483.914 106.036
L484.553 106.036
L485.191 74.6182
L489.662 74.6182
L490.3 106.036
L490.939 74.6182
L492.216 74.6182
L493.494 137.455
L496.687 137.455
L497.325 106.036
L499.88 106.036
L500.518 74.6182
L503.712 74.6182
L504.989 137.455
L506.266 137.455
L506.905 106.036
L510.736 106.036
L512.014 43.2
L513.291 106.036
L513.93 106.036
L515.207 168.873
L518.4 168.873
L518.4 168.873" style="fill:none;stroke:#0000ff;stroke-linecap:square;"/>
   </g>
   <g id="line2d_2">
    <path clip-path="url(#p7ff5b81e1d)" d="
M72 388.8
L72.6386 388.8
L73.2773 388.8
L73.9159 43.2
L74.5545 216
L75.1931 216
L75.8318 158.4
L76.4704 216
L77.109 181.44
L77.7476 216
L78.3863 240.686
L79.0249 259.2
L79.6635 235.2
L80.3021 250.56
L81.5794 250.56
L82.218 231.709
L82.8567 250.56
L83.4953 216
L84.1339 250.56
L84.7725 250.56
L85.4112 235.2
L86.0498 216
L86.6884 259.2
L87.327 259.2
L87.9657 302.4
L88.6043 302.4
L89.2429 345.6
L89.8815 350.4
L90.5202 388.8
L94.3519 388.8
L94.9906 354.24
L95.6292 350.4
L96.2678 345.6
L96.9064 339.429
L97.5451 331.2
L98.1837 331.2
L98.8223 273.6
L99.4609 250.56
L100.738 181.44
L101.377 112.32
L102.015 129.6
L102.654 112.32
L103.293 112.32
L103.931 158.4
L104.57 191.314
L107.124 191.314
L107.763 172.8
L108.402 216
L109.04 216
L109.679 240.686
L110.318 259.2
L110.956 259.2
L111.595 240.686
L112.233 191.314
L112.872 216
L113.511 216
L114.149 250.56
L114.788 250.56
L115.427 216
L116.065 250.56
L116.704 273.6
L117.342 273.6
L117.981 216
L118.62 240.686
L119.258 240.686
L119.897 259.2
L120.536 259.2
L121.174 235.2
L121.813 235.2
L122.452 216
L123.09 216
L124.367 146.88
L125.006 146.88
L125.645 120
L126.283 129.6
L126.922 92.5714
L128.199 92.5714
L128.838 100.8
L129.476 158.4
L130.115 112.32
L130.754 129.6
L131.392 216
L133.308 216
L133.947 250.56
L134.585 273.6
L135.224 319.68
L135.863 331.2
L137.14 331.2
L137.779 290.057
L138.417 273.6
L139.056 331.2
L139.694 339.429
L140.972 259.2
L141.61 216
L142.249 196.8
L144.803 196.8
L145.442 181.44
L146.081 181.44
L146.719 146.88
L147.358 158.4
L147.997 196.8
L148.635 216
L150.551 216
L151.19 196.8
L152.467 273.6
L153.744 273.6
L154.383 250.56
L155.66 250.56
L156.299 273.6
L156.937 259.2
L157.576 259.2
L158.215 290.057
L158.853 290.057
L159.492 273.6
L160.13 250.56
L160.769 250.56
L161.408 302.4
L162.046 273.6
L162.685 302.4
L163.324 319.68
L167.155 319.68
L167.794 388.8
L169.71 388.8
L170.348 302.4
L170.987 319.68
L171.626 302.4
L172.264 319.68
L175.458 319.68
L176.096 302.4
L176.735 302.4
L177.373 388.8
L185.037 388.8
L185.676 43.2
L188.869 43.2
L189.507 129.6
L190.146 129.6
L190.785 181.44
L192.062 181.44
L192.7 216
L194.616 216
L195.255 302.4
L195.894 302.4
L196.532 273.6
L197.171 302.4
L197.809 273.6
L199.725 273.6
L200.364 302.4
L201.641 302.4
L202.28 273.6
L202.918 302.4
L204.196 302.4
L204.834 319.68
L205.473 319.68
L206.112 273.6
L207.389 273.6
L208.027 290.057
L208.666 331.2
L209.305 331.2
L209.943 319.68
L210.582 319.68
L211.221 302.4
L211.859 273.6
L212.498 273.6
L213.136 388.8
L218.884 388.8
L219.523 216
L220.161 216
L220.8 43.2
L221.439 158.4
L223.355 158.4
L223.993 129.6
L225.27 129.6
L225.909 112.32
L226.548 129.6
L227.186 129.6
L227.825 158.4
L228.464 43.2
L232.295 43.2
L232.934 388.8
L246.345 388.8
L246.984 43.2
L253.37 43.2
L254.009 388.8
L281.47 388.8
L282.747 43.2
L290.41 43.2
L291.049 388.8
L305.737 388.8
L306.376 43.2
L314.678 43.2
L315.317 388.8
L318.51 388.8
L319.148 216
L324.896 216
L325.535 43.2
L326.173 388.8
L328.728 388.8
L329.367 43.2
L335.753 43.2
L336.391 388.8
L358.105 388.8
L358.743 273.6
L359.382 216
L360.021 43.2
L363.852 43.2
L364.491 216
L365.13 216
L365.768 388.8
L387.482 388.8
L388.12 43.2
L388.759 216
L391.952 216
L392.591 273.6
L394.506 273.6
L395.145 388.8
L405.363 388.8
L406.002 216
L406.64 158.4
L408.556 158.4
L409.195 216
L411.749 216
L412.388 158.4
L413.027 216
L413.665 388.8
L430.908 388.8
L431.547 216
L436.656 216
L437.294 43.2
L447.512 43.2
L448.151 388.8
L466.033 388.8
L466.671 43.2
L473.058 43.2
L473.696 388.8
L518.4 388.8
L518.4 388.8" style="fill:none;stroke:#ff0000;stroke-linecap:square;"/>
   </g>
   <g id="patch_3">
    <path d="
M72 43.2
L518.4 43.2" style="fill:none;stroke:#000000;stroke-linecap:square;stroke-linejoin:miter;"/>
   </g>
   <g id="patch_4">
    <path d="
M518.4 388.8
L518.4 43.2" style="fill:none;stroke:#000000;stroke-linecap:square;stroke-linejoin:miter;"/>
   </g>
   <g id="patch_5">
    <path d="
M72 388.8
L518.4 388.8" style="fill:none;stroke:#000000;stroke-linecap:square;stroke-linejoin:miter;"/>
   </g>
   <g id="patch_6">
    <path d="
M72 388.8
L72 43.2" style="fill:none;stroke:#000000;stroke-linecap:square;stroke-linejoin:miter;"/>
   </g>
   <g id="matplotlib.axis_1">
    <g id="xtick_1">
     <g id="line2d_3">
      <defs>
       <path d="
M0 0
L0 -4" id="m93b0483c22" style="stroke:#000000;stroke-width:0.5;"/>
      </defs>
      <g>
       <use style="stroke:#000000;stroke-width:0.5;" x="135.224034335" xlink:href="#m93b0483c22" y="388.8"/>
      </g>
     </g>
     <g id="line2d_4">
      <defs>
       <path d="
M0 0
L0 4" id="m741efc42ff" style="stroke:#000000;stroke-width:0.5;"/>
      </defs>
      <g>
       <use style="stroke:#000000;stroke-width:0.5;" x="135.224034335" xlink:href="#m741efc42ff" y="43.2"/>
      </g>
     </g>
     <g id="text_1">
      <!-- 100 -->
      <defs>
       <path d="
M31.7812 66.4062
Q24.1719 66.4062 20.3281 58.9062
Q16.5 51.4219 16.5 36.375
Q16.5 21.3906 20.3281 13.8906
Q24.1719 6.39062 31.7812 6.39062
Q39.4531 6.39062 43.2812 13.8906
Q47.125 21.3906 47.125 36.375
Q47.125 51.4219 43.2812 58.9062
Q39.4531 66.4062 31.7812 66.4062
M31.7812 74.2188
Q44.0469 74.2188 50.5156 64.5156
Q56.9844 54.8281 56.9844 36.375
Q56.9844 17.9688 50.5156 8.26562
Q44.0469 -1.42188 31.7812 -1.42188
Q19.5312 -1.42188 13.0625 8.26562
Q6.59375 17.9688 6.59375 36.375
Q6.59375 54.8281 13.0625 64.5156
Q19.5312 74.2188 31.7812 74.2188" id="BitstreamVeraSans-Roman-30"/>
       <path d="
M12.4062 8.29688
L28.5156 8.29688
L28.5156 63.9219
L10.9844 60.4062
L10.9844 69.3906
L28.4219 72.9062
L38.2812 72.9062
L38.2812 8.29688
L54.3906 8.29688
L54.3906 0
L12.4062 0
z
" id="BitstreamVeraSans-Roman-31"/>
      </defs>
      <g transform="translate(124.829034335 401.918125)scale(0.12 -0.12)">
       <use xlink:href="#BitstreamVeraSans-Roman-31"/>
       <use x="63.623046875" xlink:href="#BitstreamVeraSans-Roman-30"/>
       <use x="127.24609375" xlink:href="#BitstreamVeraSans-Roman-30"/>
      </g>
     </g>
    </g>
    <g id="xtick_2">
     <g id="line2d_5">
      <g>
       <use style="stroke:#000000;stroke-width:0.5;" x="199.086695279" xlink:href="#m93b0483c22" y="388.8"/>
      </g>
     </g>
     <g id="line2d_6">
      <g>
       <use style="stroke:#000000;stroke-width:0.5;" x="199.086695279" xlink:href="#m741efc42ff" y="43.2"/>
      </g>
     </g>
     <g id="text_2">
      <!-- 200 -->
      <defs>
       <path d="
M19.1875 8.29688
L53.6094 8.29688
L53.6094 0
L7.32812 0
L7.32812 8.29688
Q12.9375 14.1094 22.625 23.8906
Q32.3281 33.6875 34.8125 36.5312
Q39.5469 41.8438 41.4219 45.5312
Q43.3125 49.2188 43.3125 52.7812
Q43.3125 58.5938 39.2344 62.25
Q35.1562 65.9219 28.6094 65.9219
Q23.9688 65.9219 18.8125 64.3125
Q13.6719 62.7031 7.8125 59.4219
L7.8125 69.3906
Q13.7656 71.7812 18.9375 73
Q24.125 74.2188 28.4219 74.2188
Q39.75 74.2188 46.4844 68.5469
Q53.2188 62.8906 53.2188 53.4219
Q53.2188 48.9219 51.5312 44.8906
Q49.8594 40.875 45.4062 35.4062
Q44.1875 33.9844 37.6406 27.2188
Q31.1094 20.4531 19.1875 8.29688" id="BitstreamVeraSans-Roman-32"/>
      </defs>
      <g transform="translate(188.472320279 401.918125)scale(0.12 -0.12)">
       <use xlink:href="#BitstreamVeraSans-Roman-32"/>
       <use x="63.623046875" xlink:href="#BitstreamVeraSans-Roman-30"/>
       <use x="127.24609375" xlink:href="#BitstreamVeraSans-Roman-30"/>
      </g>
     </g>
    </g>
    <g id="xtick_3">
     <g id="line2d_7">
      <g>
       <use style="stroke:#000000;stroke-width:0.5;" x="262.949356223" xlink:href="#m93b0483c22" y="388.8"/>
      </g>
     </g>
     <g id="line2d_8">
      <g>
       <use style="stroke:#000000;stroke-width:0.5;" x="262.949356223" xlink:href="#m741efc42ff" y="43.2"/>
      </g>
     </g>
     <g id="text_3">
      <!-- 300 -->
      <defs>
       <path d="
M40.5781 39.3125
Q47.6562 37.7969 51.625 33
Q55.6094 28.2188 55.6094 21.1875
Q55.6094 10.4062 48.1875 4.48438
Q40.7656 -1.42188 27.0938 -1.42188
Q22.5156 -1.42188 17.6562 -0.515625
Q12.7969 0.390625 7.625 2.20312
L7.625 11.7188
Q11.7188 9.32812 16.5938 8.10938
Q21.4844 6.89062 26.8125 6.89062
Q36.0781 6.89062 40.9375 10.5469
Q45.7969 14.2031 45.7969 21.1875
Q45.7969 27.6406 41.2812 31.2656
Q36.7656 34.9062 28.7188 34.9062
L20.2188 34.9062
L20.2188 43.0156
L29.1094 43.0156
Q36.375 43.0156 40.2344 45.9219
Q44.0938 48.8281 44.0938 54.2969
Q44.0938 59.9062 40.1094 62.9062
Q36.1406 65.9219 28.7188 65.9219
Q24.6562 65.9219 20.0156 65.0312
Q15.375 64.1562 9.8125 62.3125
L9.8125 71.0938
Q15.4375 72.6562 20.3438 73.4375
Q25.25 74.2188 29.5938 74.2188
Q40.8281 74.2188 47.3594 69.1094
Q53.9062 64.0156 53.9062 55.3281
Q53.9062 49.2656 50.4375 45.0938
Q46.9688 40.9219 40.5781 39.3125" id="BitstreamVeraSans-Roman-33"/>
      </defs>
      <g transform="translate(252.352793723 401.918125)scale(0.12 -0.12)">
       <use xlink:href="#BitstreamVeraSans-Roman-33"/>
       <use x="63.623046875" xlink:href="#BitstreamVeraSans-Roman-30"/>
       <use x="127.24609375" xlink:href="#BitstreamVeraSans-Roman-30"/>
      </g>
     </g>
    </g>
    <g id="xtick_4">
     <g id="line2d_9">
      <g>
       <use style="stroke:#000000;stroke-width:0.5;" x="326.812017167" xlink:href="#m93b0483c22" y="388.8"/>
      </g>
     </g>
     <g id="line2d_10">
      <g>
       <use style="stroke:#000000;stroke-width:0.5;" x="326.812017167" xlink:href="#m741efc42ff" y="43.2"/>
      </g>
     </g>
     <g id="text_4">
      <!-- 400 -->
      <defs>
       <path d="
M37.7969 64.3125
L12.8906 25.3906
L37.7969 25.3906
z

M35.2031 72.9062
L47.6094 72.9062
L47.6094 25.3906
L58.0156 25.3906
L58.0156 17.1875
L47.6094 17.1875
L47.6094 0
L37.7969 0
L37.7969 17.1875
L4.89062 17.1875
L4.89062 26.7031
z
" id="BitstreamVeraSans-Roman-34"/>
      </defs>
      <g transform="translate(316.051392167 401.918125)scale(0.12 -0.12)">
       <use xlink:href="#BitstreamVeraSans-Roman-34"/>
       <use x="63.623046875" xlink:href="#BitstreamVeraSans-Roman-30"/>
       <use x="127.24609375" xlink:href="#BitstreamVeraSans-Roman-30"/>
      </g>
     </g>
    </g>
    <g id="xtick_5">
     <g id="line2d_11">
      <g>
       <use style="stroke:#000000;stroke-width:0.5;" x="390.674678112" xlink:href="#m93b0483c22" y="388.8"/>
      </g>
     </g>
     <g id="line2d_12">
      <g>
       <use style="stroke:#000000;stroke-width:0.5;" x="390.674678112" xlink:href="#m741efc42ff" y="43.2"/>
      </g>
     </g>
     <g id="text_5">
      <!-- 500 -->
      <defs>
       <path d="
M10.7969 72.9062
L49.5156 72.9062
L49.5156 64.5938
L19.8281 64.5938
L19.8281 46.7344
Q21.9688 47.4688 24.1094 47.8281
Q26.2656 48.1875 28.4219 48.1875
Q40.625 48.1875 47.75 41.5
Q54.8906 34.8125 54.8906 23.3906
Q54.8906 11.625 47.5625 5.09375
Q40.2344 -1.42188 26.9062 -1.42188
Q22.3125 -1.42188 17.5469 -0.640625
Q12.7969 0.140625 7.71875 1.70312
L7.71875 11.625
Q12.1094 9.23438 16.7969 8.0625
Q21.4844 6.89062 26.7031 6.89062
Q35.1562 6.89062 40.0781 11.3281
Q45.0156 15.7656 45.0156 23.3906
Q45.0156 31 40.0781 35.4375
Q35.1562 39.8906 26.7031 39.8906
Q22.75 39.8906 18.8125 39.0156
Q14.8906 38.1406 10.7969 36.2812
z
" id="BitstreamVeraSans-Roman-35"/>
      </defs>
      <g transform="translate(380.083740612 401.918125)scale(0.12 -0.12)">
       <use xlink:href="#BitstreamVeraSans-Roman-35"/>
       <use x="63.623046875" xlink:href="#BitstreamVeraSans-Roman-30"/>
       <use x="127.24609375" xlink:href="#BitstreamVeraSans-Roman-30"/>
      </g>
     </g>
    </g>
    <g id="xtick_6">
     <g id="line2d_13">
      <g>
       <use style="stroke:#000000;stroke-width:0.5;" x="454.537339056" xlink:href="#m93b0483c22" y="388.8"/>
      </g>
     </g>
     <g id="line2d_14">
      <g>
       <use style="stroke:#000000;stroke-width:0.5;" x="454.537339056" xlink:href="#m741efc42ff" y="43.2"/>
      </g>
     </g>
     <g id="text_6">
      <!-- 600 -->
      <defs>
       <path d="
M33.0156 40.375
Q26.375 40.375 22.4844 35.8281
Q18.6094 31.2969 18.6094 23.3906
Q18.6094 15.5312 22.4844 10.9531
Q26.375 6.39062 33.0156 6.39062
Q39.6562 6.39062 43.5312 10.9531
Q47.4062 15.5312 47.4062 23.3906
Q47.4062 31.2969 43.5312 35.8281
Q39.6562 40.375 33.0156 40.375
M52.5938 71.2969
L52.5938 62.3125
Q48.875 64.0625 45.0938 64.9844
Q41.3125 65.9219 37.5938 65.9219
Q27.8281 65.9219 22.6719 59.3281
Q17.5312 52.7344 16.7969 39.4062
Q19.6719 43.6562 24.0156 45.9219
Q28.375 48.1875 33.5938 48.1875
Q44.5781 48.1875 50.9531 41.5156
Q57.3281 34.8594 57.3281 23.3906
Q57.3281 12.1562 50.6875 5.35938
Q44.0469 -1.42188 33.0156 -1.42188
Q20.3594 -1.42188 13.6719 8.26562
Q6.98438 17.9688 6.98438 36.375
Q6.98438 53.6562 15.1875 63.9375
Q23.3906 74.2188 37.2031 74.2188
Q40.9219 74.2188 44.7031 73.4844
Q48.4844 72.75 52.5938 71.2969" id="BitstreamVeraSans-Roman-36"/>
      </defs>
      <g transform="translate(443.902339056 401.918125)scale(0.12 -0.12)">
       <use xlink:href="#BitstreamVeraSans-Roman-36"/>
       <use x="63.623046875" xlink:href="#BitstreamVeraSans-Roman-30"/>
       <use x="127.24609375" xlink:href="#BitstreamVeraSans-Roman-30"/>
      </g>
     </g>
    </g>
    <g id="xtick_7">
     <g id="line2d_15">
      <g>
       <use style="stroke:#000000;stroke-width:0.5;" x="518.4" xlink:href="#m93b0483c22" y="388.8"/>
      </g>
     </g>
     <g id="line2d_16">
      <g>
       <use style="stroke:#000000;stroke-width:0.5;" x="518.4" xlink:href="#m741efc42ff" y="43.2"/>
      </g>
     </g>
     <g id="text_7">
      <!-- 700 -->
      <defs>
       <path d="
M8.20312 72.9062
L55.0781 72.9062
L55.0781 68.7031
L28.6094 0
L18.3125 0
L43.2188 64.5938
L8.20312 64.5938
z
" id="BitstreamVeraSans-Roman-37"/>
      </defs>
      <g transform="translate(507.838125 401.918125)scale(0.12 -0.12)">
       <use xlink:href="#BitstreamVeraSans-Roman-37"/>
       <use x="63.623046875" xlink:href="#BitstreamVeraSans-Roman-30"/>
       <use x="127.24609375" xlink:href="#BitstreamVeraSans-Roman-30"/>
      </g>
     </g>
    </g>
    <g id="text_8">
     <!-- Trials -->
     <defs>
      <path d="
M34.2812 27.4844
Q23.3906 27.4844 19.1875 25
Q14.9844 22.5156 14.9844 16.5
Q14.9844 11.7188 18.1406 8.90625
Q21.2969 6.10938 26.7031 6.10938
Q34.1875 6.10938 38.7031 11.4062
Q43.2188 16.7031 43.2188 25.4844
L43.2188 27.4844
z

M52.2031 31.2031
L52.2031 0
L43.2188 0
L43.2188 8.29688
Q40.1406 3.32812 35.5469 0.953125
Q30.9531 -1.42188 24.3125 -1.42188
Q15.9219 -1.42188 10.9531 3.29688
Q6 8.01562 6 15.9219
Q6 25.1406 12.1719 29.8281
Q18.3594 34.5156 30.6094 34.5156
L43.2188 34.5156
L43.2188 35.4062
Q43.2188 41.6094 39.1406 45
Q35.0625 48.3906 27.6875 48.3906
Q23 48.3906 18.5469 47.2656
Q14.1094 46.1406 10.0156 43.8906
L10.0156 52.2031
Q14.9375 54.1094 19.5781 55.0469
Q24.2188 56 28.6094 56
Q40.4844 56 46.3438 49.8438
Q52.2031 43.7031 52.2031 31.2031" id="BitstreamVeraSans-Roman-61"/>
      <path d="
M9.42188 75.9844
L18.4062 75.9844
L18.4062 0
L9.42188 0
z
" id="BitstreamVeraSans-Roman-6c"/>
      <path d="
M9.42188 54.6875
L18.4062 54.6875
L18.4062 0
L9.42188 0
z

M9.42188 75.9844
L18.4062 75.9844
L18.4062 64.5938
L9.42188 64.5938
z
" id="BitstreamVeraSans-Roman-69"/>
      <path d="
M-0.296875 72.9062
L61.375 72.9062
L61.375 64.5938
L35.5 64.5938
L35.5 0
L25.5938 0
L25.5938 64.5938
L-0.296875 64.5938
z
" id="BitstreamVeraSans-Roman-54"/>
      <path d="
M41.1094 46.2969
Q39.5938 47.1719 37.8125 47.5781
Q36.0312 48 33.8906 48
Q26.2656 48 22.1875 43.0469
Q18.1094 38.0938 18.1094 28.8125
L18.1094 0
L9.07812 0
L9.07812 54.6875
L18.1094 54.6875
L18.1094 46.1875
Q20.9531 51.1719 25.4844 53.5781
Q30.0312 56 36.5312 56
Q37.4531 56 38.5781 55.875
Q39.7031 55.7656 41.0625 55.5156
z
" id="BitstreamVeraSans-Roman-72"/>
      <path d="
M44.2812 53.0781
L44.2812 44.5781
Q40.4844 46.5312 36.375 47.5
Q32.2812 48.4844 27.875 48.4844
Q21.1875 48.4844 17.8438 46.4375
Q14.5 44.3906 14.5 40.2812
Q14.5 37.1562 16.8906 35.375
Q19.2812 33.5938 26.5156 31.9844
L29.5938 31.2969
Q39.1562 29.25 43.1875 25.5156
Q47.2188 21.7812 47.2188 15.0938
Q47.2188 7.46875 41.1875 3.01562
Q35.1562 -1.42188 24.6094 -1.42188
Q20.2188 -1.42188 15.4531 -0.5625
Q10.6875 0.296875 5.42188 2
L5.42188 11.2812
Q10.4062 8.6875 15.2344 7.39062
Q20.0625 6.10938 24.8125 6.10938
Q31.1562 6.10938 34.5625 8.28125
Q37.9844 10.4531 37.9844 14.4062
Q37.9844 18.0625 35.5156 20.0156
Q33.0625 21.9688 24.7031 23.7812
L21.5781 24.5156
Q13.2344 26.2656 9.51562 29.9062
Q5.8125 33.5469 5.8125 39.8906
Q5.8125 47.6094 11.2812 51.7969
Q16.75 56 26.8125 56
Q31.7812 56 36.1719 55.2656
Q40.5781 54.5469 44.2812 53.0781" id="BitstreamVeraSans-Roman-73"/>
     </defs>
     <g transform="translate(280.0921875 418.531875)scale(0.12 -0.12)">
      <use xlink:href="#BitstreamVeraSans-Roman-54"/>
      <use x="46.333984375" xlink:href="#BitstreamVeraSans-Roman-72"/>
      <use x="87.447265625" xlink:href="#BitstreamVeraSans-Roman-69"/>
      <use x="115.23046875" xlink:href="#BitstreamVeraSans-Roman-61"/>
      <use x="176.509765625" xlink:href="#BitstreamVeraSans-Roman-6c"/>
      <use x="204.29296875" xlink:href="#BitstreamVeraSans-Roman-73"/>
     </g>
    </g>
   </g>
   <g id="matplotlib.axis_2">
    <g id="ytick_1">
     <g id="line2d_17">
      <defs>
       <path d="
M0 0
L4 0" id="m728421d6d4" style="stroke:#000000;stroke-width:0.5;"/>
      </defs>
      <g>
       <use style="stroke:#000000;stroke-width:0.5;" x="72.0" xlink:href="#m728421d6d4" y="388.8"/>
      </g>
     </g>
     <g id="line2d_18">
      <defs>
       <path d="
M0 0
L-4 0" id="mcb0005524f" style="stroke:#000000;stroke-width:0.5;"/>
      </defs>
      <g>
       <use style="stroke:#000000;stroke-width:0.5;" x="518.4" xlink:href="#mcb0005524f" y="388.8"/>
      </g>
     </g>
     <g id="text_9">
      <!-- 0.0 -->
      <defs>
       <path d="
M10.6875 12.4062
L21 12.4062
L21 0
L10.6875 0
z
" id="BitstreamVeraSans-Roman-2e"/>
      </defs>
      <g transform="translate(50.504375 392.11125)scale(0.12 -0.12)">
       <use xlink:href="#BitstreamVeraSans-Roman-30"/>
       <use x="63.623046875" xlink:href="#BitstreamVeraSans-Roman-2e"/>
       <use x="95.41015625" xlink:href="#BitstreamVeraSans-Roman-30"/>
      </g>
     </g>
    </g>
    <g id="ytick_2">
     <g id="line2d_19">
      <g>
       <use style="stroke:#000000;stroke-width:0.5;" x="72.0" xlink:href="#m728421d6d4" y="319.68"/>
      </g>
     </g>
     <g id="line2d_20">
      <g>
       <use style="stroke:#000000;stroke-width:0.5;" x="518.4" xlink:href="#mcb0005524f" y="319.68"/>
      </g>
     </g>
     <g id="text_10">
      <!-- 0.2 -->
      <g transform="translate(50.909375 322.99125)scale(0.12 -0.12)">
       <use xlink:href="#BitstreamVeraSans-Roman-30"/>
       <use x="63.623046875" xlink:href="#BitstreamVeraSans-Roman-2e"/>
       <use x="95.41015625" xlink:href="#BitstreamVeraSans-Roman-32"/>
      </g>
     </g>
    </g>
    <g id="ytick_3">
     <g id="line2d_21">
      <g>
       <use style="stroke:#000000;stroke-width:0.5;" x="72.0" xlink:href="#m728421d6d4" y="250.56"/>
      </g>
     </g>
     <g id="line2d_22">
      <g>
       <use style="stroke:#000000;stroke-width:0.5;" x="518.4" xlink:href="#mcb0005524f" y="250.56"/>
      </g>
     </g>
     <g id="text_11">
      <!-- 0.4 -->
      <g transform="translate(50.380625 253.87125)scale(0.12 -0.12)">
       <use xlink:href="#BitstreamVeraSans-Roman-30"/>
       <use x="63.623046875" xlink:href="#BitstreamVeraSans-Roman-2e"/>
       <use x="95.41015625" xlink:href="#BitstreamVeraSans-Roman-34"/>
      </g>
     </g>
    </g>
    <g id="ytick_4">
     <g id="line2d_23">
      <g>
       <use style="stroke:#000000;stroke-width:0.5;" x="72.0" xlink:href="#m728421d6d4" y="181.44"/>
      </g>
     </g>
     <g id="line2d_24">
      <g>
       <use style="stroke:#000000;stroke-width:0.5;" x="518.4" xlink:href="#mcb0005524f" y="181.44"/>
      </g>
     </g>
     <g id="text_12">
      <!-- 0.6 -->
      <g transform="translate(50.463125 184.75125)scale(0.12 -0.12)">
       <use xlink:href="#BitstreamVeraSans-Roman-30"/>
       <use x="63.623046875" xlink:href="#BitstreamVeraSans-Roman-2e"/>
       <use x="95.41015625" xlink:href="#BitstreamVeraSans-Roman-36"/>
      </g>
     </g>
    </g>
    <g id="ytick_5">
     <g id="line2d_25">
      <g>
       <use style="stroke:#000000;stroke-width:0.5;" x="72.0" xlink:href="#m728421d6d4" y="112.32"/>
      </g>
     </g>
     <g id="line2d_26">
      <g>
       <use style="stroke:#000000;stroke-width:0.5;" x="518.4" xlink:href="#mcb0005524f" y="112.32"/>
      </g>
     </g>
     <g id="text_13">
      <!-- 0.8 -->
      <defs>
       <path d="
M31.7812 34.625
Q24.75 34.625 20.7188 30.8594
Q16.7031 27.0938 16.7031 20.5156
Q16.7031 13.9219 20.7188 10.1562
Q24.75 6.39062 31.7812 6.39062
Q38.8125 6.39062 42.8594 10.1719
Q46.9219 13.9688 46.9219 20.5156
Q46.9219 27.0938 42.8906 30.8594
Q38.875 34.625 31.7812 34.625
M21.9219 38.8125
Q15.5781 40.375 12.0312 44.7188
Q8.5 49.0781 8.5 55.3281
Q8.5 64.0625 14.7188 69.1406
Q20.9531 74.2188 31.7812 74.2188
Q42.6719 74.2188 48.875 69.1406
Q55.0781 64.0625 55.0781 55.3281
Q55.0781 49.0781 51.5312 44.7188
Q48 40.375 41.7031 38.8125
Q48.8281 37.1562 52.7969 32.3125
Q56.7812 27.4844 56.7812 20.5156
Q56.7812 9.90625 50.3125 4.23438
Q43.8438 -1.42188 31.7812 -1.42188
Q19.7344 -1.42188 13.25 4.23438
Q6.78125 9.90625 6.78125 20.5156
Q6.78125 27.4844 10.7812 32.3125
Q14.7969 37.1562 21.9219 38.8125
M18.3125 54.3906
Q18.3125 48.7344 21.8438 45.5625
Q25.3906 42.3906 31.7812 42.3906
Q38.1406 42.3906 41.7188 45.5625
Q45.3125 48.7344 45.3125 54.3906
Q45.3125 60.0625 41.7188 63.2344
Q38.1406 66.4062 31.7812 66.4062
Q25.3906 66.4062 21.8438 63.2344
Q18.3125 60.0625 18.3125 54.3906" id="BitstreamVeraSans-Roman-38"/>
      </defs>
      <g transform="translate(50.52875 115.63125)scale(0.12 -0.12)">
       <use xlink:href="#BitstreamVeraSans-Roman-30"/>
       <use x="63.623046875" xlink:href="#BitstreamVeraSans-Roman-2e"/>
       <use x="95.41015625" xlink:href="#BitstreamVeraSans-Roman-38"/>
      </g>
     </g>
    </g>
    <g id="ytick_6">
     <g id="line2d_27">
      <g>
       <use style="stroke:#000000;stroke-width:0.5;" x="72.0" xlink:href="#m728421d6d4" y="43.2"/>
      </g>
     </g>
     <g id="line2d_28">
      <g>
       <use style="stroke:#000000;stroke-width:0.5;" x="518.4" xlink:href="#mcb0005524f" y="43.2"/>
      </g>
     </g>
     <g id="text_14">
      <!-- 1.0 -->
      <g transform="translate(51.03125 46.51125)scale(0.12 -0.12)">
       <use xlink:href="#BitstreamVeraSans-Roman-31"/>
       <use x="63.623046875" xlink:href="#BitstreamVeraSans-Roman-2e"/>
       <use x="95.41015625" xlink:href="#BitstreamVeraSans-Roman-30"/>
      </g>
     </g>
    </g>
   </g>
   <g id="text_15">
    <!-- Free-Choice Trials -->
    <defs>
     <path id="BitstreamVeraSans-Roman-20"/>
     <path d="
M30.6094 48.3906
Q23.3906 48.3906 19.1875 42.75
Q14.9844 37.1094 14.9844 27.2969
Q14.9844 17.4844 19.1562 11.8438
Q23.3438 6.20312 30.6094 6.20312
Q37.7969 6.20312 41.9844 11.8594
Q46.1875 17.5312 46.1875 27.2969
Q46.1875 37.0156 41.9844 42.7031
Q37.7969 48.3906 30.6094 48.3906
M30.6094 56
Q42.3281 56 49.0156 48.375
Q55.7188 40.7656 55.7188 27.2969
Q55.7188 13.875 49.0156 6.21875
Q42.3281 -1.42188 30.6094 -1.42188
Q18.8438 -1.42188 12.1719 6.21875
Q5.51562 13.875 5.51562 27.2969
Q5.51562 40.7656 12.1719 48.375
Q18.8438 56 30.6094 56" id="BitstreamVeraSans-Roman-6f"/>
     <path d="
M9.8125 72.9062
L51.7031 72.9062
L51.7031 64.5938
L19.6719 64.5938
L19.6719 43.1094
L48.5781 43.1094
L48.5781 34.8125
L19.6719 34.8125
L19.6719 0
L9.8125 0
z
" id="BitstreamVeraSans-Roman-46"/>
     <path d="
M64.4062 67.2812
L64.4062 56.8906
Q59.4219 61.5312 53.7812 63.8125
Q48.1406 66.1094 41.7969 66.1094
Q29.2969 66.1094 22.6562 58.4688
Q16.0156 50.8281 16.0156 36.375
Q16.0156 21.9688 22.6562 14.3281
Q29.2969 6.6875 41.7969 6.6875
Q48.1406 6.6875 53.7812 8.98438
Q59.4219 11.2812 64.4062 15.9219
L64.4062 5.60938
Q59.2344 2.09375 53.4375 0.328125
Q47.6562 -1.42188 41.2188 -1.42188
Q24.6562 -1.42188 15.125 8.70312
Q5.60938 18.8438 5.60938 36.375
Q5.60938 53.9531 15.125 64.0781
Q24.6562 74.2188 41.2188 74.2188
Q47.75 74.2188 53.5312 72.4844
Q59.3281 70.75 64.4062 67.2812" id="BitstreamVeraSans-Roman-43"/>
     <path d="
M4.89062 31.3906
L31.2031 31.3906
L31.2031 23.3906
L4.89062 23.3906
z
" id="BitstreamVeraSans-Roman-2d"/>
     <path d="
M56.2031 29.5938
L56.2031 25.2031
L14.8906 25.2031
Q15.4844 15.9219 20.4844 11.0625
Q25.4844 6.20312 34.4219 6.20312
Q39.5938 6.20312 44.4531 7.46875
Q49.3125 8.73438 54.1094 11.2812
L54.1094 2.78125
Q49.2656 0.734375 44.1875 -0.34375
Q39.1094 -1.42188 33.8906 -1.42188
Q20.7969 -1.42188 13.1562 6.1875
Q5.51562 13.8125 5.51562 26.8125
Q5.51562 40.2344 12.7656 48.1094
Q20.0156 56 32.3281 56
Q43.3594 56 49.7812 48.8906
Q56.2031 41.7969 56.2031 29.5938
M47.2188 32.2344
Q47.125 39.5938 43.0938 43.9844
Q39.0625 48.3906 32.4219 48.3906
Q24.9062 48.3906 20.3906 44.1406
Q15.875 39.8906 15.1875 32.1719
z
" id="BitstreamVeraSans-Roman-65"/>
     <path d="
M48.7812 52.5938
L48.7812 44.1875
Q44.9688 46.2969 41.1406 47.3438
Q37.3125 48.3906 33.4062 48.3906
Q24.6562 48.3906 19.8125 42.8438
Q14.9844 37.3125 14.9844 27.2969
Q14.9844 17.2812 19.8125 11.7344
Q24.6562 6.20312 33.4062 6.20312
Q37.3125 6.20312 41.1406 7.25
Q44.9688 8.29688 48.7812 10.4062
L48.7812 2.09375
Q45.0156 0.34375 40.9844 -0.53125
Q36.9688 -1.42188 32.4219 -1.42188
Q20.0625 -1.42188 12.7812 6.34375
Q5.51562 14.1094 5.51562 27.2969
Q5.51562 40.6719 12.8594 48.3281
Q20.2188 56 33.0156 56
Q37.1562 56 41.1094 55.1406
Q45.0625 54.2969 48.7812 52.5938" id="BitstreamVeraSans-Roman-63"/>
     <path d="
M54.8906 33.0156
L54.8906 0
L45.9062 0
L45.9062 32.7188
Q45.9062 40.4844 42.875 44.3281
Q39.8438 48.1875 33.7969 48.1875
Q26.5156 48.1875 22.3125 43.5469
Q18.1094 38.9219 18.1094 30.9062
L18.1094 0
L9.07812 0
L9.07812 75.9844
L18.1094 75.9844
L18.1094 46.1875
Q21.3438 51.125 25.7031 53.5625
Q30.0781 56 35.7969 56
Q45.2188 56 50.0469 50.1719
Q54.8906 44.3438 54.8906 33.0156" id="BitstreamVeraSans-Roman-68"/>
    </defs>
    <g transform="translate(232.543125 38.2)scale(0.144 -0.144)">
     <use xlink:href="#BitstreamVeraSans-Roman-46"/>
     <use x="50.26953125" xlink:href="#BitstreamVeraSans-Roman-72"/>
     <use x="89.1328125" xlink:href="#BitstreamVeraSans-Roman-65"/>
     <use x="150.65625" xlink:href="#BitstreamVeraSans-Roman-65"/>
     <use x="212.1796875" xlink:href="#BitstreamVeraSans-Roman-2d"/>
     <use x="248.263671875" xlink:href="#BitstreamVeraSans-Roman-43"/>
     <use x="318.087890625" xlink:href="#BitstreamVeraSans-Roman-68"/>
     <use x="381.466796875" xlink:href="#BitstreamVeraSans-Roman-6f"/>
     <use x="442.6484375" xlink:href="#BitstreamVeraSans-Roman-69"/>
     <use x="470.431640625" xlink:href="#BitstreamVeraSans-Roman-63"/>
     <use x="525.412109375" xlink:href="#BitstreamVeraSans-Roman-65"/>
     <use x="586.935546875" xlink:href="#BitstreamVeraSans-Roman-20"/>
     <use x="618.72265625" xlink:href="#BitstreamVeraSans-Roman-54"/>
     <use x="665.056640625" xlink:href="#BitstreamVeraSans-Roman-72"/>
     <use x="706.169921875" xlink:href="#BitstreamVeraSans-Roman-69"/>
     <use x="733.953125" xlink:href="#BitstreamVeraSans-Roman-61"/>
     <use x="795.232421875" xlink:href="#BitstreamVeraSans-Roman-6c"/>
     <use x="823.015625" xlink:href="#BitstreamVeraSans-Roman-73"/>
    </g>
   </g>
   <g id="legend_1">
    <g id="patch_7">
     <path d="
M334.094 96.993
L511.2 96.993
L511.2 50.4
L334.094 50.4
z
" style="fill:#ffffff;stroke:#000000;stroke-linejoin:miter;"/>
    </g>
    <g id="line2d_29">
     <path d="
M344.174 62.0617
L364.334 62.0617" style="fill:none;stroke:#0000ff;stroke-linecap:square;"/>
    </g>
    <g id="line2d_30"/>
    <g id="text_16">
     <!-- High-value target -->
     <defs>
      <path d="
M2.98438 54.6875
L12.5 54.6875
L29.5938 8.79688
L46.6875 54.6875
L56.2031 54.6875
L35.6875 0
L23.4844 0
z
" id="BitstreamVeraSans-Roman-76"/>
      <path d="
M45.4062 27.9844
Q45.4062 37.75 41.375 43.1094
Q37.3594 48.4844 30.0781 48.4844
Q22.8594 48.4844 18.8281 43.1094
Q14.7969 37.75 14.7969 27.9844
Q14.7969 18.2656 18.8281 12.8906
Q22.8594 7.51562 30.0781 7.51562
Q37.3594 7.51562 41.375 12.8906
Q45.4062 18.2656 45.4062 27.9844
M54.3906 6.78125
Q54.3906 -7.17188 48.1875 -13.9844
Q42 -20.7969 29.2031 -20.7969
Q24.4688 -20.7969 20.2656 -20.0938
Q16.0625 -19.3906 12.1094 -17.9219
L12.1094 -9.1875
Q16.0625 -11.3281 19.9219 -12.3438
Q23.7812 -13.375 27.7812 -13.375
Q36.625 -13.375 41.0156 -8.76562
Q45.4062 -4.15625 45.4062 5.17188
L45.4062 9.625
Q42.625 4.78125 38.2812 2.39062
Q33.9375 0 27.875 0
Q17.8281 0 11.6719 7.65625
Q5.51562 15.3281 5.51562 27.9844
Q5.51562 40.6719 11.6719 48.3281
Q17.8281 56 27.875 56
Q33.9375 56 38.2812 53.6094
Q42.625 51.2188 45.4062 46.3906
L45.4062 54.6875
L54.3906 54.6875
z
" id="BitstreamVeraSans-Roman-67"/>
      <path d="
M8.5 21.5781
L8.5 54.6875
L17.4844 54.6875
L17.4844 21.9219
Q17.4844 14.1562 20.5 10.2656
Q23.5312 6.39062 29.5938 6.39062
Q36.8594 6.39062 41.0781 11.0312
Q45.3125 15.6719 45.3125 23.6875
L45.3125 54.6875
L54.2969 54.6875
L54.2969 0
L45.3125 0
L45.3125 8.40625
Q42.0469 3.42188 37.7188 1
Q33.4062 -1.42188 27.6875 -1.42188
Q18.2656 -1.42188 13.375 4.4375
Q8.5 10.2969 8.5 21.5781" id="BitstreamVeraSans-Roman-75"/>
      <path d="
M18.3125 70.2188
L18.3125 54.6875
L36.8125 54.6875
L36.8125 47.7031
L18.3125 47.7031
L18.3125 18.0156
Q18.3125 11.3281 20.1406 9.42188
Q21.9688 7.51562 27.5938 7.51562
L36.8125 7.51562
L36.8125 0
L27.5938 0
Q17.1875 0 13.2344 3.875
Q9.28125 7.76562 9.28125 18.0156
L9.28125 47.7031
L2.6875 47.7031
L2.6875 54.6875
L9.28125 54.6875
L9.28125 70.2188
z
" id="BitstreamVeraSans-Roman-74"/>
      <path d="
M9.8125 72.9062
L19.6719 72.9062
L19.6719 43.0156
L55.5156 43.0156
L55.5156 72.9062
L65.375 72.9062
L65.375 0
L55.5156 0
L55.5156 34.7188
L19.6719 34.7188
L19.6719 0
L9.8125 0
z
" id="BitstreamVeraSans-Roman-48"/>
     </defs>
     <g transform="translate(380.1735 67.10175)scale(0.144 -0.144)">
      <use xlink:href="#BitstreamVeraSans-Roman-48"/>
      <use x="75.1953125" xlink:href="#BitstreamVeraSans-Roman-69"/>
      <use x="102.978515625" xlink:href="#BitstreamVeraSans-Roman-67"/>
      <use x="166.455078125" xlink:href="#BitstreamVeraSans-Roman-68"/>
      <use x="229.833984375" xlink:href="#BitstreamVeraSans-Roman-2d"/>
      <use x="263.29296875" xlink:href="#BitstreamVeraSans-Roman-76"/>
      <use x="322.47265625" xlink:href="#BitstreamVeraSans-Roman-61"/>
      <use x="383.751953125" xlink:href="#BitstreamVeraSans-Roman-6c"/>
      <use x="411.53515625" xlink:href="#BitstreamVeraSans-Roman-75"/>
      <use x="474.9140625" xlink:href="#BitstreamVeraSans-Roman-65"/>
      <use x="536.4375" xlink:href="#BitstreamVeraSans-Roman-20"/>
      <use x="568.224609375" xlink:href="#BitstreamVeraSans-Roman-74"/>
      <use x="607.43359375" xlink:href="#BitstreamVeraSans-Roman-61"/>
      <use x="668.712890625" xlink:href="#BitstreamVeraSans-Roman-72"/>
      <use x="708.076171875" xlink:href="#BitstreamVeraSans-Roman-67"/>
      <use x="771.552734375" xlink:href="#BitstreamVeraSans-Roman-65"/>
      <use x="833.076171875" xlink:href="#BitstreamVeraSans-Roman-74"/>
     </g>
    </g>
    <g id="line2d_31">
     <path d="
M344.174 83.1982
L364.334 83.1982" style="fill:none;stroke:#ff0000;stroke-linecap:square;"/>
    </g>
    <g id="line2d_32"/>
    <g id="text_17">
     <!-- Low-value target -->
     <defs>
      <path d="
M4.20312 54.6875
L13.1875 54.6875
L24.4219 12.0156
L35.5938 54.6875
L46.1875 54.6875
L57.4219 12.0156
L68.6094 54.6875
L77.5938 54.6875
L63.2812 0
L52.6875 0
L40.9219 44.8281
L29.1094 0
L18.5 0
z
" id="BitstreamVeraSans-Roman-77"/>
      <path d="
M9.8125 72.9062
L19.6719 72.9062
L19.6719 8.29688
L55.1719 8.29688
L55.1719 0
L9.8125 0
z
" id="BitstreamVeraSans-Roman-4c"/>
     </defs>
     <g transform="translate(380.1735 88.23825)scale(0.144 -0.144)">
      <use xlink:href="#BitstreamVeraSans-Roman-4c"/>
      <use x="53.962890625" xlink:href="#BitstreamVeraSans-Roman-6f"/>
      <use x="115.14453125" xlink:href="#BitstreamVeraSans-Roman-77"/>
      <use x="196.931640625" xlink:href="#BitstreamVeraSans-Roman-2d"/>
      <use x="230.390625" xlink:href="#BitstreamVeraSans-Roman-76"/>
      <use x="289.5703125" xlink:href="#BitstreamVeraSans-Roman-61"/>
      <use x="350.849609375" xlink:href="#BitstreamVeraSans-Roman-6c"/>
      <use x="378.6328125" xlink:href="#BitstreamVeraSans-Roman-75"/>
      <use x="442.01171875" xlink:href="#BitstreamVeraSans-Roman-65"/>
      <use x="503.53515625" xlink:href="#BitstreamVeraSans-Roman-20"/>
      <use x="535.322265625" xlink:href="#BitstreamVeraSans-Roman-74"/>
      <use x="574.53125" xlink:href="#BitstreamVeraSans-Roman-61"/>
      <use x="635.810546875" xlink:href="#BitstreamVeraSans-Roman-72"/>
      <use x="675.173828125" xlink:href="#BitstreamVeraSans-Roman-67"/>
      <use x="738.650390625" xlink:href="#BitstreamVeraSans-Roman-65"/>
      <use x="800.173828125" xlink:href="#BitstreamVeraSans-Roman-74"/>
     </g>
    </g>
   </g>
  </g>
 </g>
 <defs>
  <clipPath id="p7ff5b81e1d">
   <rect height="345.6" width="446.4" x="72.0" y="43.2"/>
  </clipPath>
 </defs>
</svg>
