<?xml version="1.0" encoding="utf-8" standalone="no"?>
<!DOCTYPE svg PUBLIC "-//W3C//DTD SVG 1.1//EN"
  "http://www.w3.org/Graphics/SVG/1.1/DTD/svg11.dtd">
<!-- Created with matplotlib (http://matplotlib.org/) -->
<svg height="441pt" version="1.1" viewBox="0 0 585 441" width="585pt" xmlns="http://www.w3.org/2000/svg" xmlns:xlink="http://www.w3.org/1999/xlink">
 <defs>
  <style type="text/css">
*{stroke-linecap:butt;stroke-linejoin:round;}
  </style>
 </defs>
 <g id="figure_1">
  <g id="patch_1">
   <path d="
M0 441
L585 441
L585 0
L0 0
z
" style="fill:#ffffff;"/>
  </g>
  <g id="axes_1">
   <g id="patch_2">
    <path d="
M73.125 204.464
L279.205 204.464
L279.205 44.1
L73.125 44.1
z
" style="fill:#ffffff;"/>
   </g>
   <g id="line2d_1">
    <path clip-path="url(#p82c402b4a7)" d="
M73.125 51.3893
L78.277 124.282
L83.429 148.579
L88.581 124.282
L93.733 138.86
L98.8849 148.579
L104.037 155.521
L109.189 160.728
L114.341 164.778
L119.493 153.439
L124.645 157.415
L129.797 160.728
L134.949 163.532
L140.101 165.935
L145.253 168.017
L150.405 160.728
L155.557 162.872
L160.709 156.679
L165.861 158.81
L171.013 153.439
L176.165 160.728
L181.317 153.439
L186.469 146.15
L191.621 153.439
L196.773 146.15
L201.925 138.86
L207.077 138.86
L212.229 138.86
L217.381 138.86
L222.533 146.15
L227.685 146.15
L232.837 138.86
L237.989 138.86
L243.141 138.86
L248.293 138.86
L253.445 146.15
L258.597 146.15
L263.749 153.439" style="fill:none;stroke:#0000ff;stroke-linecap:square;"/>
   </g>
   <g id="line2d_2">
    <path clip-path="url(#p82c402b4a7)" d="
M73.125 51.3893
L78.277 51.3893
L83.429 51.3893
L88.581 51.3893
L93.733 80.5463
L98.8849 75.6868
L104.037 72.2157
L109.189 69.6124
L114.341 67.5876
L119.493 65.9678
L124.645 64.6424
L129.797 63.538
L134.949 62.6035
L140.101 61.8025
L145.253 61.1083
L150.405 60.5008
L155.557 59.9649
L160.709 59.4884
L165.861 59.0622
L171.013 58.6785
L176.165 58.6785
L181.317 58.6785
L186.469 58.6785
L191.621 58.6785
L196.773 51.3893
L201.925 51.3893
L207.077 51.3893
L212.229 51.3893
L217.381 51.3893
L222.533 51.3893" style="fill:none;stroke:#ff0000;stroke-linecap:square;"/>
   </g>
   <g id="patch_3">
    <path d="
M73.125 44.1
L279.205 44.1" style="fill:none;stroke:#000000;stroke-linecap:square;stroke-linejoin:miter;"/>
   </g>
   <g id="patch_4">
    <path d="
M279.205 204.464
L279.205 44.1" style="fill:none;stroke:#000000;stroke-linecap:square;stroke-linejoin:miter;"/>
   </g>
   <g id="patch_5">
    <path d="
M73.125 204.464
L279.205 204.464" style="fill:none;stroke:#000000;stroke-linecap:square;stroke-linejoin:miter;"/>
   </g>
   <g id="patch_6">
    <path d="
M73.125 204.464
L73.125 44.1" style="fill:none;stroke:#000000;stroke-linecap:square;stroke-linejoin:miter;"/>
   </g>
   <g id="matplotlib.axis_1">
    <g id="xtick_1">
     <g id="line2d_3">
      <defs>
       <path d="
M0 0
L0 4" id="m741efc42ff" style="stroke:#000000;stroke-width:0.5;"/>
      </defs>
      <g>
       <use style="stroke:#000000;stroke-width:0.5;" x="73.125" xlink:href="#m741efc42ff" y="204.463636364"/>
      </g>
     </g>
     <g id="text_1">
      <!-- 0 -->
      <defs>
       <path d="
M31.7812 66.4062
Q24.1719 66.4062 20.3281 58.9062
Q16.5 51.4219 16.5 36.375
Q16.5 21.3906 20.3281 13.8906
Q24.1719 6.39062 31.7812 6.39062
Q39.4531 6.39062 43.2812 13.8906
Q47.125 21.3906 47.125 36.375
Q47.125 51.4219 43.2812 58.9062
Q39.4531 66.4062 31.7812 66.4062
M31.7812 74.2188
Q44.0469 74.2188 50.5156 64.5156
Q56.9844 54.8281 56.9844 36.375
Q56.9844 17.9688 50.5156 8.26562
Q44.0469 -1.42188 31.7812 -1.42188
Q19.5312 -1.42188 13.0625 8.26562
Q6.59375 17.9688 6.59375 36.375
Q6.59375 54.8281 13.0625 64.5156
Q19.5312 74.2188 31.7812 74.2188" id="BitstreamVeraSans-Roman-30"/>
      </defs>
      <g transform="translate(70.1015625 221.581761364)scale(0.12 -0.12)">
       <use xlink:href="#BitstreamVeraSans-Roman-30"/>
      </g>
     </g>
    </g>
    <g id="xtick_2">
     <g id="line2d_4">
      <g>
       <use style="stroke:#000000;stroke-width:0.5;" x="98.8849431818" xlink:href="#m741efc42ff" y="204.463636364"/>
      </g>
     </g>
     <g id="text_2">
      <!-- 5 -->
      <defs>
       <path d="
M10.7969 72.9062
L49.5156 72.9062
L49.5156 64.5938
L19.8281 64.5938
L19.8281 46.7344
Q21.9688 47.4688 24.1094 47.8281
Q26.2656 48.1875 28.4219 48.1875
Q40.625 48.1875 47.75 41.5
Q54.8906 34.8125 54.8906 23.3906
Q54.8906 11.625 47.5625 5.09375
Q40.2344 -1.42188 26.9062 -1.42188
Q22.3125 -1.42188 17.5469 -0.640625
Q12.7969 0.140625 7.71875 1.70312
L7.71875 11.625
Q12.1094 9.23438 16.7969 8.0625
Q21.4844 6.89062 26.7031 6.89062
Q35.1562 6.89062 40.0781 11.3281
Q45.0156 15.7656 45.0156 23.3906
Q45.0156 31 40.0781 35.4375
Q35.1562 39.8906 26.7031 39.8906
Q22.75 39.8906 18.8125 39.0156
Q14.8906 38.1406 10.7969 36.2812
z
" id="BitstreamVeraSans-Roman-35"/>
      </defs>
      <g transform="translate(96.0546306818 221.581761364)scale(0.12 -0.12)">
       <use xlink:href="#BitstreamVeraSans-Roman-35"/>
      </g>
     </g>
    </g>
    <g id="xtick_3">
     <g id="line2d_5">
      <g>
       <use style="stroke:#000000;stroke-width:0.5;" x="124.644886364" xlink:href="#m741efc42ff" y="204.463636364"/>
      </g>
     </g>
     <g id="text_3">
      <!-- 10 -->
      <defs>
       <path d="
M12.4062 8.29688
L28.5156 8.29688
L28.5156 63.9219
L10.9844 60.4062
L10.9844 69.3906
L28.4219 72.9062
L38.2812 72.9062
L38.2812 8.29688
L54.3906 8.29688
L54.3906 0
L12.4062 0
z
" id="BitstreamVeraSans-Roman-31"/>
      </defs>
      <g transform="translate(118.067386364 221.581761364)scale(0.12 -0.12)">
       <use xlink:href="#BitstreamVeraSans-Roman-31"/>
       <use x="63.623046875" xlink:href="#BitstreamVeraSans-Roman-30"/>
      </g>
     </g>
    </g>
    <g id="xtick_4">
     <g id="line2d_6">
      <g>
       <use style="stroke:#000000;stroke-width:0.5;" x="150.404829545" xlink:href="#m741efc42ff" y="204.463636364"/>
      </g>
     </g>
     <g id="text_4">
      <!-- 15 -->
      <g transform="translate(143.952954545 221.581761364)scale(0.12 -0.12)">
       <use xlink:href="#BitstreamVeraSans-Roman-31"/>
       <use x="63.623046875" xlink:href="#BitstreamVeraSans-Roman-35"/>
      </g>
     </g>
    </g>
    <g id="xtick_5">
     <g id="line2d_7">
      <g>
       <use style="stroke:#000000;stroke-width:0.5;" x="176.164772727" xlink:href="#m741efc42ff" y="204.463636364"/>
      </g>
     </g>
     <g id="text_5">
      <!-- 20 -->
      <defs>
       <path d="
M19.1875 8.29688
L53.6094 8.29688
L53.6094 0
L7.32812 0
L7.32812 8.29688
Q12.9375 14.1094 22.625 23.8906
Q32.3281 33.6875 34.8125 36.5312
Q39.5469 41.8438 41.4219 45.5312
Q43.3125 49.2188 43.3125 52.7812
Q43.3125 58.5938 39.2344 62.25
Q35.1562 65.9219 28.6094 65.9219
Q23.9688 65.9219 18.8125 64.3125
Q13.6719 62.7031 7.8125 59.4219
L7.8125 69.3906
Q13.7656 71.7812 18.9375 73
Q24.125 74.2188 28.4219 74.2188
Q39.75 74.2188 46.4844 68.5469
Q53.2188 62.8906 53.2188 53.4219
Q53.2188 48.9219 51.5312 44.8906
Q49.8594 40.875 45.4062 35.4062
Q44.1875 33.9844 37.6406 27.2188
Q31.1094 20.4531 19.1875 8.29688" id="BitstreamVeraSans-Roman-32"/>
      </defs>
      <g transform="translate(169.367897727 221.581761364)scale(0.12 -0.12)">
       <use xlink:href="#BitstreamVeraSans-Roman-32"/>
       <use x="63.623046875" xlink:href="#BitstreamVeraSans-Roman-30"/>
      </g>
     </g>
    </g>
    <g id="xtick_6">
     <g id="line2d_8">
      <g>
       <use style="stroke:#000000;stroke-width:0.5;" x="201.924715909" xlink:href="#m741efc42ff" y="204.463636364"/>
      </g>
     </g>
     <g id="text_6">
      <!-- 25 -->
      <g transform="translate(195.253465909 221.581761364)scale(0.12 -0.12)">
       <use xlink:href="#BitstreamVeraSans-Roman-32"/>
       <use x="63.623046875" xlink:href="#BitstreamVeraSans-Roman-35"/>
      </g>
     </g>
    </g>
    <g id="xtick_7">
     <g id="line2d_9">
      <g>
       <use style="stroke:#000000;stroke-width:0.5;" x="227.684659091" xlink:href="#m741efc42ff" y="204.463636364"/>
      </g>
     </g>
     <g id="text_7">
      <!-- 30 -->
      <defs>
       <path d="
M40.5781 39.3125
Q47.6562 37.7969 51.625 33
Q55.6094 28.2188 55.6094 21.1875
Q55.6094 10.4062 48.1875 4.48438
Q40.7656 -1.42188 27.0938 -1.42188
Q22.5156 -1.42188 17.6562 -0.515625
Q12.7969 0.390625 7.625 2.20312
L7.625 11.7188
Q11.7188 9.32812 16.5938 8.10938
Q21.4844 6.89062 26.8125 6.89062
Q36.0781 6.89062 40.9375 10.5469
Q45.7969 14.2031 45.7969 21.1875
Q45.7969 27.6406 41.2812 31.2656
Q36.7656 34.9062 28.7188 34.9062
L20.2188 34.9062
L20.2188 43.0156
L29.1094 43.0156
Q36.375 43.0156 40.2344 45.9219
Q44.0938 48.8281 44.0938 54.2969
Q44.0938 59.9062 40.1094 62.9062
Q36.1406 65.9219 28.7188 65.9219
Q24.6562 65.9219 20.0156 65.0312
Q15.375 64.1562 9.8125 62.3125
L9.8125 71.0938
Q15.4375 72.6562 20.3438 73.4375
Q25.25 74.2188 29.5938 74.2188
Q40.8281 74.2188 47.3594 69.1094
Q53.9062 64.0156 53.9062 55.3281
Q53.9062 49.2656 50.4375 45.0938
Q46.9688 40.9219 40.5781 39.3125" id="BitstreamVeraSans-Roman-33"/>
      </defs>
      <g transform="translate(220.905596591 221.581761364)scale(0.12 -0.12)">
       <use xlink:href="#BitstreamVeraSans-Roman-33"/>
       <use x="63.623046875" xlink:href="#BitstreamVeraSans-Roman-30"/>
      </g>
     </g>
    </g>
    <g id="xtick_8">
     <g id="line2d_10">
      <g>
       <use style="stroke:#000000;stroke-width:0.5;" x="253.444602273" xlink:href="#m741efc42ff" y="204.463636364"/>
      </g>
     </g>
     <g id="text_8">
      <!-- 35 -->
      <g transform="translate(246.791164773 221.581761364)scale(0.12 -0.12)">
       <use xlink:href="#BitstreamVeraSans-Roman-33"/>
       <use x="63.623046875" xlink:href="#BitstreamVeraSans-Roman-35"/>
      </g>
     </g>
    </g>
    <g id="xtick_9">
     <g id="line2d_11">
      <g>
       <use style="stroke:#000000;stroke-width:0.5;" x="279.204545455" xlink:href="#m741efc42ff" y="204.463636364"/>
      </g>
     </g>
     <g id="text_9">
      <!-- 40 -->
      <defs>
       <path d="
M37.7969 64.3125
L12.8906 25.3906
L37.7969 25.3906
z

M35.2031 72.9062
L47.6094 72.9062
L47.6094 25.3906
L58.0156 25.3906
L58.0156 17.1875
L47.6094 17.1875
L47.6094 0
L37.7969 0
L37.7969 17.1875
L4.89062 17.1875
L4.89062 26.7031
z
" id="BitstreamVeraSans-Roman-34"/>
      </defs>
      <g transform="translate(272.261420455 221.581761364)scale(0.12 -0.12)">
       <use xlink:href="#BitstreamVeraSans-Roman-34"/>
       <use x="63.623046875" xlink:href="#BitstreamVeraSans-Roman-30"/>
      </g>
     </g>
    </g>
    <g id="text_10">
     <!-- Trials -->
     <defs>
      <path d="
M34.2812 27.4844
Q23.3906 27.4844 19.1875 25
Q14.9844 22.5156 14.9844 16.5
Q14.9844 11.7188 18.1406 8.90625
Q21.2969 6.10938 26.7031 6.10938
Q34.1875 6.10938 38.7031 11.4062
Q43.2188 16.7031 43.2188 25.4844
L43.2188 27.4844
z

M52.2031 31.2031
L52.2031 0
L43.2188 0
L43.2188 8.29688
Q40.1406 3.32812 35.5469 0.953125
Q30.9531 -1.42188 24.3125 -1.42188
Q15.9219 -1.42188 10.9531 3.29688
Q6 8.01562 6 15.9219
Q6 25.1406 12.1719 29.8281
Q18.3594 34.5156 30.6094 34.5156
L43.2188 34.5156
L43.2188 35.4062
Q43.2188 41.6094 39.1406 45
Q35.0625 48.3906 27.6875 48.3906
Q23 48.3906 18.5469 47.2656
Q14.1094 46.1406 10.0156 43.8906
L10.0156 52.2031
Q14.9375 54.1094 19.5781 55.0469
Q24.2188 56 28.6094 56
Q40.4844 56 46.3438 49.8438
Q52.2031 43.7031 52.2031 31.2031" id="BitstreamVeraSans-Roman-61"/>
      <path d="
M9.42188 75.9844
L18.4062 75.9844
L18.4062 0
L9.42188 0
z
" id="BitstreamVeraSans-Roman-6c"/>
      <path d="
M9.42188 54.6875
L18.4062 54.6875
L18.4062 0
L9.42188 0
z

M9.42188 75.9844
L18.4062 75.9844
L18.4062 64.5938
L9.42188 64.5938
z
" id="BitstreamVeraSans-Roman-69"/>
      <path d="
M-0.296875 72.9062
L61.375 72.9062
L61.375 64.5938
L35.5 64.5938
L35.5 0
L25.5938 0
L25.5938 64.5938
L-0.296875 64.5938
z
" id="BitstreamVeraSans-Roman-54"/>
      <path d="
M41.1094 46.2969
Q39.5938 47.1719 37.8125 47.5781
Q36.0312 48 33.8906 48
Q26.2656 48 22.1875 43.0469
Q18.1094 38.0938 18.1094 28.8125
L18.1094 0
L9.07812 0
L9.07812 54.6875
L18.1094 54.6875
L18.1094 46.1875
Q20.9531 51.1719 25.4844 53.5781
Q30.0312 56 36.5312 56
Q37.4531 56 38.5781 55.875
Q39.7031 55.7656 41.0625 55.5156
z
" id="BitstreamVeraSans-Roman-72"/>
      <path d="
M44.2812 53.0781
L44.2812 44.5781
Q40.4844 46.5312 36.375 47.5
Q32.2812 48.4844 27.875 48.4844
Q21.1875 48.4844 17.8438 46.4375
Q14.5 44.3906 14.5 40.2812
Q14.5 37.1562 16.8906 35.375
Q19.2812 33.5938 26.5156 31.9844
L29.5938 31.2969
Q39.1562 29.25 43.1875 25.5156
Q47.2188 21.7812 47.2188 15.0938
Q47.2188 7.46875 41.1875 3.01562
Q35.1562 -1.42188 24.6094 -1.42188
Q20.2188 -1.42188 15.4531 -0.5625
Q10.6875 0.296875 5.42188 2
L5.42188 11.2812
Q10.4062 8.6875 15.2344 7.39062
Q20.0625 6.10938 24.8125 6.10938
Q31.1562 6.10938 34.5625 8.28125
Q37.9844 10.4531 37.9844 14.4062
Q37.9844 18.0625 35.5156 20.0156
Q33.0625 21.9688 24.7031 23.7812
L21.5781 24.5156
Q13.2344 26.2656 9.51562 29.9062
Q5.8125 33.5469 5.8125 39.8906
Q5.8125 47.6094 11.2812 51.7969
Q16.75 56 26.8125 56
Q31.7812 56 36.1719 55.2656
Q40.5781 54.5469 44.2812 53.0781" id="BitstreamVeraSans-Roman-73"/>
     </defs>
     <g transform="translate(161.056960227 238.195511364)scale(0.12 -0.12)">
      <use xlink:href="#BitstreamVeraSans-Roman-54"/>
      <use x="46.333984375" xlink:href="#BitstreamVeraSans-Roman-72"/>
      <use x="87.447265625" xlink:href="#BitstreamVeraSans-Roman-69"/>
      <use x="115.23046875" xlink:href="#BitstreamVeraSans-Roman-61"/>
      <use x="176.509765625" xlink:href="#BitstreamVeraSans-Roman-6c"/>
      <use x="204.29296875" xlink:href="#BitstreamVeraSans-Roman-73"/>
     </g>
    </g>
   </g>
   <g id="matplotlib.axis_2">
    <g id="ytick_1">
     <g id="line2d_12">
      <defs>
       <path d="
M0 0
L-4 0" id="mcb0005524f" style="stroke:#000000;stroke-width:0.5;"/>
      </defs>
      <g>
       <use style="stroke:#000000;stroke-width:0.5;" x="73.125" xlink:href="#mcb0005524f" y="197.174380165"/>
      </g>
     </g>
     <g id="text_11">
      <!-- 0.0 -->
      <defs>
       <path d="
M10.6875 12.4062
L21 12.4062
L21 0
L10.6875 0
z
" id="BitstreamVeraSans-Roman-2e"/>
      </defs>
      <g transform="translate(47.629375 200.485630165)scale(0.12 -0.12)">
       <use xlink:href="#BitstreamVeraSans-Roman-30"/>
       <use x="63.623046875" xlink:href="#BitstreamVeraSans-Roman-2e"/>
       <use x="95.41015625" xlink:href="#BitstreamVeraSans-Roman-30"/>
      </g>
     </g>
    </g>
    <g id="ytick_2">
     <g id="line2d_13">
      <g>
       <use style="stroke:#000000;stroke-width:0.5;" x="73.125" xlink:href="#mcb0005524f" y="168.017355372"/>
      </g>
     </g>
     <g id="text_12">
      <!-- 0.2 -->
      <g transform="translate(48.034375 171.328605372)scale(0.12 -0.12)">
       <use xlink:href="#BitstreamVeraSans-Roman-30"/>
       <use x="63.623046875" xlink:href="#BitstreamVeraSans-Roman-2e"/>
       <use x="95.41015625" xlink:href="#BitstreamVeraSans-Roman-32"/>
      </g>
     </g>
    </g>
    <g id="ytick_3">
     <g id="line2d_14">
      <g>
       <use style="stroke:#000000;stroke-width:0.5;" x="73.125" xlink:href="#mcb0005524f" y="138.860330579"/>
      </g>
     </g>
     <g id="text_13">
      <!-- 0.4 -->
      <g transform="translate(47.505625 142.171580579)scale(0.12 -0.12)">
       <use xlink:href="#BitstreamVeraSans-Roman-30"/>
       <use x="63.623046875" xlink:href="#BitstreamVeraSans-Roman-2e"/>
       <use x="95.41015625" xlink:href="#BitstreamVeraSans-Roman-34"/>
      </g>
     </g>
    </g>
    <g id="ytick_4">
     <g id="line2d_15">
      <g>
       <use style="stroke:#000000;stroke-width:0.5;" x="73.125" xlink:href="#mcb0005524f" y="109.703305785"/>
      </g>
     </g>
     <g id="text_14">
      <!-- 0.6 -->
      <defs>
       <path d="
M33.0156 40.375
Q26.375 40.375 22.4844 35.8281
Q18.6094 31.2969 18.6094 23.3906
Q18.6094 15.5312 22.4844 10.9531
Q26.375 6.39062 33.0156 6.39062
Q39.6562 6.39062 43.5312 10.9531
Q47.4062 15.5312 47.4062 23.3906
Q47.4062 31.2969 43.5312 35.8281
Q39.6562 40.375 33.0156 40.375
M52.5938 71.2969
L52.5938 62.3125
Q48.875 64.0625 45.0938 64.9844
Q41.3125 65.9219 37.5938 65.9219
Q27.8281 65.9219 22.6719 59.3281
Q17.5312 52.7344 16.7969 39.4062
Q19.6719 43.6562 24.0156 45.9219
Q28.375 48.1875 33.5938 48.1875
Q44.5781 48.1875 50.9531 41.5156
Q57.3281 34.8594 57.3281 23.3906
Q57.3281 12.1562 50.6875 5.35938
Q44.0469 -1.42188 33.0156 -1.42188
Q20.3594 -1.42188 13.6719 8.26562
Q6.98438 17.9688 6.98438 36.375
Q6.98438 53.6562 15.1875 63.9375
Q23.3906 74.2188 37.2031 74.2188
Q40.9219 74.2188 44.7031 73.4844
Q48.4844 72.75 52.5938 71.2969" id="BitstreamVeraSans-Roman-36"/>
      </defs>
      <g transform="translate(47.588125 113.014555785)scale(0.12 -0.12)">
       <use xlink:href="#BitstreamVeraSans-Roman-30"/>
       <use x="63.623046875" xlink:href="#BitstreamVeraSans-Roman-2e"/>
       <use x="95.41015625" xlink:href="#BitstreamVeraSans-Roman-36"/>
      </g>
     </g>
    </g>
    <g id="ytick_5">
     <g id="line2d_16">
      <g>
       <use style="stroke:#000000;stroke-width:0.5;" x="73.125" xlink:href="#mcb0005524f" y="80.5462809917"/>
      </g>
     </g>
     <g id="text_15">
      <!-- 0.8 -->
      <defs>
       <path d="
M31.7812 34.625
Q24.75 34.625 20.7188 30.8594
Q16.7031 27.0938 16.7031 20.5156
Q16.7031 13.9219 20.7188 10.1562
Q24.75 6.39062 31.7812 6.39062
Q38.8125 6.39062 42.8594 10.1719
Q46.9219 13.9688 46.9219 20.5156
Q46.9219 27.0938 42.8906 30.8594
Q38.875 34.625 31.7812 34.625
M21.9219 38.8125
Q15.5781 40.375 12.0312 44.7188
Q8.5 49.0781 8.5 55.3281
Q8.5 64.0625 14.7188 69.1406
Q20.9531 74.2188 31.7812 74.2188
Q42.6719 74.2188 48.875 69.1406
Q55.0781 64.0625 55.0781 55.3281
Q55.0781 49.0781 51.5312 44.7188
Q48 40.375 41.7031 38.8125
Q48.8281 37.1562 52.7969 32.3125
Q56.7812 27.4844 56.7812 20.5156
Q56.7812 9.90625 50.3125 4.23438
Q43.8438 -1.42188 31.7812 -1.42188
Q19.7344 -1.42188 13.25 4.23438
Q6.78125 9.90625 6.78125 20.5156
Q6.78125 27.4844 10.7812 32.3125
Q14.7969 37.1562 21.9219 38.8125
M18.3125 54.3906
Q18.3125 48.7344 21.8438 45.5625
Q25.3906 42.3906 31.7812 42.3906
Q38.1406 42.3906 41.7188 45.5625
Q45.3125 48.7344 45.3125 54.3906
Q45.3125 60.0625 41.7188 63.2344
Q38.1406 66.4062 31.7812 66.4062
Q25.3906 66.4062 21.8438 63.2344
Q18.3125 60.0625 18.3125 54.3906" id="BitstreamVeraSans-Roman-38"/>
      </defs>
      <g transform="translate(47.65375 83.8575309917)scale(0.12 -0.12)">
       <use xlink:href="#BitstreamVeraSans-Roman-30"/>
       <use x="63.623046875" xlink:href="#BitstreamVeraSans-Roman-2e"/>
       <use x="95.41015625" xlink:href="#BitstreamVeraSans-Roman-38"/>
      </g>
     </g>
    </g>
    <g id="ytick_6">
     <g id="line2d_17">
      <g>
       <use style="stroke:#000000;stroke-width:0.5;" x="73.125" xlink:href="#mcb0005524f" y="51.3892561983"/>
      </g>
     </g>
     <g id="text_16">
      <!-- 1.0 -->
      <g transform="translate(48.15625 54.7005061983)scale(0.12 -0.12)">
       <use xlink:href="#BitstreamVeraSans-Roman-31"/>
       <use x="63.623046875" xlink:href="#BitstreamVeraSans-Roman-2e"/>
       <use x="95.41015625" xlink:href="#BitstreamVeraSans-Roman-30"/>
      </g>
     </g>
    </g>
    <g id="text_17">
     <!-- Probability Best Choice -->
     <defs>
      <path id="BitstreamVeraSans-Roman-20"/>
      <path d="
M54.8906 33.0156
L54.8906 0
L45.9062 0
L45.9062 32.7188
Q45.9062 40.4844 42.875 44.3281
Q39.8438 48.1875 33.7969 48.1875
Q26.5156 48.1875 22.3125 43.5469
Q18.1094 38.9219 18.1094 30.9062
L18.1094 0
L9.07812 0
L9.07812 75.9844
L18.1094 75.9844
L18.1094 46.1875
Q21.3438 51.125 25.7031 53.5625
Q30.0781 56 35.7969 56
Q45.2188 56 50.0469 50.1719
Q54.8906 44.3438 54.8906 33.0156" id="BitstreamVeraSans-Roman-68"/>
      <path d="
M30.6094 48.3906
Q23.3906 48.3906 19.1875 42.75
Q14.9844 37.1094 14.9844 27.2969
Q14.9844 17.4844 19.1562 11.8438
Q23.3438 6.20312 30.6094 6.20312
Q37.7969 6.20312 41.9844 11.8594
Q46.1875 17.5312 46.1875 27.2969
Q46.1875 37.0156 41.9844 42.7031
Q37.7969 48.3906 30.6094 48.3906
M30.6094 56
Q42.3281 56 49.0156 48.375
Q55.7188 40.7656 55.7188 27.2969
Q55.7188 13.875 49.0156 6.21875
Q42.3281 -1.42188 30.6094 -1.42188
Q18.8438 -1.42188 12.1719 6.21875
Q5.51562 13.875 5.51562 27.2969
Q5.51562 40.7656 12.1719 48.375
Q18.8438 56 30.6094 56" id="BitstreamVeraSans-Roman-6f"/>
      <path d="
M19.6719 64.7969
L19.6719 37.4062
L32.0781 37.4062
Q38.9688 37.4062 42.7188 40.9688
Q46.4844 44.5312 46.4844 51.125
Q46.4844 57.6719 42.7188 61.2344
Q38.9688 64.7969 32.0781 64.7969
z

M9.8125 72.9062
L32.0781 72.9062
Q44.3438 72.9062 50.6094 67.3594
Q56.8906 61.8125 56.8906 51.125
Q56.8906 40.3281 50.6094 34.8125
Q44.3438 29.2969 32.0781 29.2969
L19.6719 29.2969
L19.6719 0
L9.8125 0
z
" id="BitstreamVeraSans-Roman-50"/>
      <path d="
M64.4062 67.2812
L64.4062 56.8906
Q59.4219 61.5312 53.7812 63.8125
Q48.1406 66.1094 41.7969 66.1094
Q29.2969 66.1094 22.6562 58.4688
Q16.0156 50.8281 16.0156 36.375
Q16.0156 21.9688 22.6562 14.3281
Q29.2969 6.6875 41.7969 6.6875
Q48.1406 6.6875 53.7812 8.98438
Q59.4219 11.2812 64.4062 15.9219
L64.4062 5.60938
Q59.2344 2.09375 53.4375 0.328125
Q47.6562 -1.42188 41.2188 -1.42188
Q24.6562 -1.42188 15.125 8.70312
Q5.60938 18.8438 5.60938 36.375
Q5.60938 53.9531 15.125 64.0781
Q24.6562 74.2188 41.2188 74.2188
Q47.75 74.2188 53.5312 72.4844
Q59.3281 70.75 64.4062 67.2812" id="BitstreamVeraSans-Roman-43"/>
      <path d="
M19.6719 34.8125
L19.6719 8.10938
L35.5 8.10938
Q43.4531 8.10938 47.2812 11.4062
Q51.125 14.7031 51.125 21.4844
Q51.125 28.3281 47.2812 31.5625
Q43.4531 34.8125 35.5 34.8125
z

M19.6719 64.7969
L19.6719 42.8281
L34.2812 42.8281
Q41.5 42.8281 45.0312 45.5312
Q48.5781 48.25 48.5781 53.8125
Q48.5781 59.3281 45.0312 62.0625
Q41.5 64.7969 34.2812 64.7969
z

M9.8125 72.9062
L35.0156 72.9062
Q46.2969 72.9062 52.3906 68.2188
Q58.5 63.5312 58.5 54.8906
Q58.5 48.1875 55.375 44.2344
Q52.25 40.2812 46.1875 39.3125
Q53.4688 37.75 57.5 32.7812
Q61.5312 27.8281 61.5312 20.4062
Q61.5312 10.6406 54.8906 5.3125
Q48.25 0 35.9844 0
L9.8125 0
z
" id="BitstreamVeraSans-Roman-42"/>
      <path d="
M32.1719 -5.07812
Q28.375 -14.8438 24.75 -17.8125
Q21.1406 -20.7969 15.0938 -20.7969
L7.90625 -20.7969
L7.90625 -13.2812
L13.1875 -13.2812
Q16.8906 -13.2812 18.9375 -11.5156
Q21 -9.76562 23.4844 -3.21875
L25.0938 0.875
L2.98438 54.6875
L12.5 54.6875
L29.5938 11.9219
L46.6875 54.6875
L56.2031 54.6875
z
" id="BitstreamVeraSans-Roman-79"/>
      <path d="
M56.2031 29.5938
L56.2031 25.2031
L14.8906 25.2031
Q15.4844 15.9219 20.4844 11.0625
Q25.4844 6.20312 34.4219 6.20312
Q39.5938 6.20312 44.4531 7.46875
Q49.3125 8.73438 54.1094 11.2812
L54.1094 2.78125
Q49.2656 0.734375 44.1875 -0.34375
Q39.1094 -1.42188 33.8906 -1.42188
Q20.7969 -1.42188 13.1562 6.1875
Q5.51562 13.8125 5.51562 26.8125
Q5.51562 40.2344 12.7656 48.1094
Q20.0156 56 32.3281 56
Q43.3594 56 49.7812 48.8906
Q56.2031 41.7969 56.2031 29.5938
M47.2188 32.2344
Q47.125 39.5938 43.0938 43.9844
Q39.0625 48.3906 32.4219 48.3906
Q24.9062 48.3906 20.3906 44.1406
Q15.875 39.8906 15.1875 32.1719
z
" id="BitstreamVeraSans-Roman-65"/>
      <path d="
M18.3125 70.2188
L18.3125 54.6875
L36.8125 54.6875
L36.8125 47.7031
L18.3125 47.7031
L18.3125 18.0156
Q18.3125 11.3281 20.1406 9.42188
Q21.9688 7.51562 27.5938 7.51562
L36.8125 7.51562
L36.8125 0
L27.5938 0
Q17.1875 0 13.2344 3.875
Q9.28125 7.76562 9.28125 18.0156
L9.28125 47.7031
L2.6875 47.7031
L2.6875 54.6875
L9.28125 54.6875
L9.28125 70.2188
z
" id="BitstreamVeraSans-Roman-74"/>
      <path d="
M48.7812 52.5938
L48.7812 44.1875
Q44.9688 46.2969 41.1406 47.3438
Q37.3125 48.3906 33.4062 48.3906
Q24.6562 48.3906 19.8125 42.8438
Q14.9844 37.3125 14.9844 27.2969
Q14.9844 17.2812 19.8125 11.7344
Q24.6562 6.20312 33.4062 6.20312
Q37.3125 6.20312 41.1406 7.25
Q44.9688 8.29688 48.7812 10.4062
L48.7812 2.09375
Q45.0156 0.34375 40.9844 -0.53125
Q36.9688 -1.42188 32.4219 -1.42188
Q20.0625 -1.42188 12.7812 6.34375
Q5.51562 14.1094 5.51562 27.2969
Q5.51562 40.6719 12.8594 48.3281
Q20.2188 56 33.0156 56
Q37.1562 56 41.1094 55.1406
Q45.0625 54.2969 48.7812 52.5938" id="BitstreamVeraSans-Roman-63"/>
      <path d="
M48.6875 27.2969
Q48.6875 37.2031 44.6094 42.8438
Q40.5312 48.4844 33.4062 48.4844
Q26.2656 48.4844 22.1875 42.8438
Q18.1094 37.2031 18.1094 27.2969
Q18.1094 17.3906 22.1875 11.75
Q26.2656 6.10938 33.4062 6.10938
Q40.5312 6.10938 44.6094 11.75
Q48.6875 17.3906 48.6875 27.2969
M18.1094 46.3906
Q20.9531 51.2656 25.2656 53.625
Q29.5938 56 35.5938 56
Q45.5625 56 51.7812 48.0938
Q58.0156 40.1875 58.0156 27.2969
Q58.0156 14.4062 51.7812 6.48438
Q45.5625 -1.42188 35.5938 -1.42188
Q29.5938 -1.42188 25.2656 0.953125
Q20.9531 3.32812 18.1094 8.20312
L18.1094 0
L9.07812 0
L9.07812 75.9844
L18.1094 75.9844
z
" id="BitstreamVeraSans-Roman-62"/>
     </defs>
     <g transform="translate(40.01 193.098068182)rotate(-90.0)scale(0.12 -0.12)">
      <use xlink:href="#BitstreamVeraSans-Roman-50"/>
      <use x="58.552734375" xlink:href="#BitstreamVeraSans-Roman-72"/>
      <use x="97.416015625" xlink:href="#BitstreamVeraSans-Roman-6f"/>
      <use x="158.59765625" xlink:href="#BitstreamVeraSans-Roman-62"/>
      <use x="222.07421875" xlink:href="#BitstreamVeraSans-Roman-61"/>
      <use x="283.353515625" xlink:href="#BitstreamVeraSans-Roman-62"/>
      <use x="346.830078125" xlink:href="#BitstreamVeraSans-Roman-69"/>
      <use x="374.61328125" xlink:href="#BitstreamVeraSans-Roman-6c"/>
      <use x="402.396484375" xlink:href="#BitstreamVeraSans-Roman-69"/>
      <use x="430.1796875" xlink:href="#BitstreamVeraSans-Roman-74"/>
      <use x="469.388671875" xlink:href="#BitstreamVeraSans-Roman-79"/>
      <use x="528.568359375" xlink:href="#BitstreamVeraSans-Roman-20"/>
      <use x="560.35546875" xlink:href="#BitstreamVeraSans-Roman-42"/>
      <use x="628.958984375" xlink:href="#BitstreamVeraSans-Roman-65"/>
      <use x="690.482421875" xlink:href="#BitstreamVeraSans-Roman-73"/>
      <use x="742.58203125" xlink:href="#BitstreamVeraSans-Roman-74"/>
      <use x="781.791015625" xlink:href="#BitstreamVeraSans-Roman-20"/>
      <use x="813.578125" xlink:href="#BitstreamVeraSans-Roman-43"/>
      <use x="883.40234375" xlink:href="#BitstreamVeraSans-Roman-68"/>
      <use x="946.78125" xlink:href="#BitstreamVeraSans-Roman-6f"/>
      <use x="1007.96289062" xlink:href="#BitstreamVeraSans-Roman-69"/>
      <use x="1035.74609375" xlink:href="#BitstreamVeraSans-Roman-63"/>
      <use x="1090.7265625" xlink:href="#BitstreamVeraSans-Roman-65"/>
     </g>
    </g>
   </g>
   <g id="text_18">
    <!-- Low vs. Mid -->
    <defs>
     <path d="
M2.98438 54.6875
L12.5 54.6875
L29.5938 8.79688
L46.6875 54.6875
L56.2031 54.6875
L35.6875 0
L23.4844 0
z
" id="BitstreamVeraSans-Roman-76"/>
     <path d="
M4.20312 54.6875
L13.1875 54.6875
L24.4219 12.0156
L35.5938 54.6875
L46.1875 54.6875
L57.4219 12.0156
L68.6094 54.6875
L77.5938 54.6875
L63.2812 0
L52.6875 0
L40.9219 44.8281
L29.1094 0
L18.5 0
z
" id="BitstreamVeraSans-Roman-77"/>
     <path d="
M9.8125 72.9062
L24.5156 72.9062
L43.1094 23.2969
L61.8125 72.9062
L76.5156 72.9062
L76.5156 0
L66.8906 0
L66.8906 64.0156
L48.0938 14.0156
L38.1875 14.0156
L19.3906 64.0156
L19.3906 0
L9.8125 0
z
" id="BitstreamVeraSans-Roman-4d"/>
     <path d="
M9.8125 72.9062
L19.6719 72.9062
L19.6719 8.29688
L55.1719 8.29688
L55.1719 0
L9.8125 0
z
" id="BitstreamVeraSans-Roman-4c"/>
     <path d="
M45.4062 46.3906
L45.4062 75.9844
L54.3906 75.9844
L54.3906 0
L45.4062 0
L45.4062 8.20312
Q42.5781 3.32812 38.25 0.953125
Q33.9375 -1.42188 27.875 -1.42188
Q17.9688 -1.42188 11.7344 6.48438
Q5.51562 14.4062 5.51562 27.2969
Q5.51562 40.1875 11.7344 48.0938
Q17.9688 56 27.875 56
Q33.9375 56 38.25 53.625
Q42.5781 51.2656 45.4062 46.3906
M14.7969 27.2969
Q14.7969 17.3906 18.875 11.75
Q22.9531 6.10938 30.0781 6.10938
Q37.2031 6.10938 41.2969 11.75
Q45.4062 17.3906 45.4062 27.2969
Q45.4062 37.2031 41.2969 42.8438
Q37.2031 48.4844 30.0781 48.4844
Q22.9531 48.4844 18.875 42.8438
Q14.7969 37.2031 14.7969 27.2969" id="BitstreamVeraSans-Roman-64"/>
    </defs>
    <g transform="translate(134.979647727 39.1)scale(0.144 -0.144)">
     <use xlink:href="#BitstreamVeraSans-Roman-4c"/>
     <use x="53.962890625" xlink:href="#BitstreamVeraSans-Roman-6f"/>
     <use x="115.14453125" xlink:href="#BitstreamVeraSans-Roman-77"/>
     <use x="196.931640625" xlink:href="#BitstreamVeraSans-Roman-20"/>
     <use x="228.71875" xlink:href="#BitstreamVeraSans-Roman-76"/>
     <use x="287.8984375" xlink:href="#BitstreamVeraSans-Roman-73"/>
     <use x="339.998046875" xlink:href="#BitstreamVeraSans-Roman-2e"/>
     <use x="371.78515625" xlink:href="#BitstreamVeraSans-Roman-20"/>
     <use x="403.572265625" xlink:href="#BitstreamVeraSans-Roman-4d"/>
     <use x="489.8515625" xlink:href="#BitstreamVeraSans-Roman-69"/>
     <use x="517.634765625" xlink:href="#BitstreamVeraSans-Roman-64"/>
    </g>
   </g>
   <g id="legend_1">
    <g id="patch_7">
     <path d="
M164.209 97.893
L272.005 97.893
L272.005 51.3
L164.209 51.3
z
" style="fill:#ffffff;stroke:#000000;stroke-linejoin:miter;"/>
    </g>
    <g id="line2d_18">
     <path d="
M174.289 62.9617
L194.449 62.9617" style="fill:none;stroke:#0000ff;stroke-linecap:square;"/>
    </g>
    <g id="line2d_19"/>
    <g id="text_19">
     <!-- Block A -->
     <defs>
      <path d="
M34.1875 63.1875
L20.7969 26.9062
L47.6094 26.9062
z

M28.6094 72.9062
L39.7969 72.9062
L67.5781 0
L57.3281 0
L50.6875 18.7031
L17.8281 18.7031
L11.1875 0
L0.78125 0
z
" id="BitstreamVeraSans-Roman-41"/>
      <path d="
M9.07812 75.9844
L18.1094 75.9844
L18.1094 31.1094
L44.9219 54.6875
L56.3906 54.6875
L27.3906 29.1094
L57.625 0
L45.9062 0
L18.1094 26.7031
L18.1094 0
L9.07812 0
z
" id="BitstreamVeraSans-Roman-6b"/>
     </defs>
     <g transform="translate(210.289295455 68.00175)scale(0.144 -0.144)">
      <use xlink:href="#BitstreamVeraSans-Roman-42"/>
      <use x="68.603515625" xlink:href="#BitstreamVeraSans-Roman-6c"/>
      <use x="96.38671875" xlink:href="#BitstreamVeraSans-Roman-6f"/>
      <use x="157.568359375" xlink:href="#BitstreamVeraSans-Roman-63"/>
      <use x="212.548828125" xlink:href="#BitstreamVeraSans-Roman-6b"/>
      <use x="270.458984375" xlink:href="#BitstreamVeraSans-Roman-20"/>
      <use x="302.24609375" xlink:href="#BitstreamVeraSans-Roman-41"/>
     </g>
    </g>
    <g id="line2d_20">
     <path d="
M174.289 84.0982
L194.449 84.0982" style="fill:none;stroke:#ff0000;stroke-linecap:square;"/>
    </g>
    <g id="line2d_21"/>
    <g id="text_20">
     <!-- Block A' -->
     <defs>
      <path d="
M17.9219 72.9062
L17.9219 45.7969
L9.625 45.7969
L9.625 72.9062
z
" id="BitstreamVeraSans-Roman-27"/>
     </defs>
     <g transform="translate(210.289295455 89.13825)scale(0.144 -0.144)">
      <use xlink:href="#BitstreamVeraSans-Roman-42"/>
      <use x="68.603515625" xlink:href="#BitstreamVeraSans-Roman-6c"/>
      <use x="96.38671875" xlink:href="#BitstreamVeraSans-Roman-6f"/>
      <use x="157.568359375" xlink:href="#BitstreamVeraSans-Roman-63"/>
      <use x="212.548828125" xlink:href="#BitstreamVeraSans-Roman-6b"/>
      <use x="270.458984375" xlink:href="#BitstreamVeraSans-Roman-20"/>
      <use x="302.24609375" xlink:href="#BitstreamVeraSans-Roman-41"/>
      <use x="370.654296875" xlink:href="#BitstreamVeraSans-Roman-27"/>
     </g>
    </g>
   </g>
  </g>
  <g id="axes_2">
   <g id="patch_8">
    <path d="
M320.42 204.464
L526.5 204.464
L526.5 44.1
L320.42 44.1
z
" style="fill:#ffffff;"/>
   </g>
   <g id="line2d_22">
    <path clip-path="url(#pbe1cca2777)" d="
M320.42 51.3893
L325.572 124.282
L330.724 148.579
L335.876 160.728
L341.028 168.017
L346.18 148.579
L351.332 155.521
L356.484 160.728
L361.636 164.778
L366.788 153.439
L371.94 144.162
L377.092 136.431
L382.244 129.889
L387.396 124.282
L392.548 119.422
L397.7 115.17
L402.852 119.994
L408.004 124.282
L413.156 128.118
L418.308 131.571
L423.46 131.571
L428.612 124.282
L433.764 116.993
L438.916 109.703
L444.068 102.414
L449.22 102.414
L454.372 95.1248
L459.524 87.8355
L464.676 80.5463
L469.828 80.5463
L474.98 87.8355
L480.132 87.8355
L485.284 87.8355
L490.436 87.8355
L495.588 87.8355
L500.74 87.8355
L505.892 80.5463" style="fill:none;stroke:#0000ff;stroke-linecap:square;"/>
   </g>
   <g id="line2d_23">
    <path clip-path="url(#pbe1cca2777)" d="
M320.42 51.3893
L325.572 51.3893
L330.724 51.3893
L335.876 51.3893
L341.028 51.3893
L346.18 51.3893
L351.332 51.3893
L356.484 51.3893
L361.636 51.3893
L366.788 51.3893
L371.94 51.3893
L377.092 51.3893
L382.244 51.3893
L387.396 51.3893
L392.548 51.3893
L397.7 51.3893
L402.852 51.3893
L408.004 51.3893
L413.156 51.3893
L418.308 51.3893
L423.46 51.3893
L428.612 51.3893
L433.764 51.3893
L438.916 51.3893
L444.068 51.3893
L449.22 51.3893" style="fill:none;stroke:#ff0000;stroke-linecap:square;"/>
   </g>
   <g id="patch_9">
    <path d="
M320.42 44.1
L526.5 44.1" style="fill:none;stroke:#000000;stroke-linecap:square;stroke-linejoin:miter;"/>
   </g>
   <g id="patch_10">
    <path d="
M526.5 204.464
L526.5 44.1" style="fill:none;stroke:#000000;stroke-linecap:square;stroke-linejoin:miter;"/>
   </g>
   <g id="patch_11">
    <path d="
M320.42 204.464
L526.5 204.464" style="fill:none;stroke:#000000;stroke-linecap:square;stroke-linejoin:miter;"/>
   </g>
   <g id="patch_12">
    <path d="
M320.42 204.464
L320.42 44.1" style="fill:none;stroke:#000000;stroke-linecap:square;stroke-linejoin:miter;"/>
   </g>
   <g id="matplotlib.axis_3">
    <g id="xtick_10">
     <g id="line2d_24">
      <g>
       <use style="stroke:#000000;stroke-width:0.5;" x="320.420454545" xlink:href="#m741efc42ff" y="204.463636364"/>
      </g>
     </g>
     <g id="text_21">
      <!-- 0 -->
      <g transform="translate(317.397017045 221.581761364)scale(0.12 -0.12)">
       <use xlink:href="#BitstreamVeraSans-Roman-30"/>
      </g>
     </g>
    </g>
    <g id="xtick_11">
     <g id="line2d_25">
      <g>
       <use style="stroke:#000000;stroke-width:0.5;" x="346.180397727" xlink:href="#m741efc42ff" y="204.463636364"/>
      </g>
     </g>
     <g id="text_22">
      <!-- 5 -->
      <g transform="translate(343.350085227 221.581761364)scale(0.12 -0.12)">
       <use xlink:href="#BitstreamVeraSans-Roman-35"/>
      </g>
     </g>
    </g>
    <g id="xtick_12">
     <g id="line2d_26">
      <g>
       <use style="stroke:#000000;stroke-width:0.5;" x="371.940340909" xlink:href="#m741efc42ff" y="204.463636364"/>
      </g>
     </g>
     <g id="text_23">
      <!-- 10 -->
      <g transform="translate(365.362840909 221.581761364)scale(0.12 -0.12)">
       <use xlink:href="#BitstreamVeraSans-Roman-31"/>
       <use x="63.623046875" xlink:href="#BitstreamVeraSans-Roman-30"/>
      </g>
     </g>
    </g>
    <g id="xtick_13">
     <g id="line2d_27">
      <g>
       <use style="stroke:#000000;stroke-width:0.5;" x="397.700284091" xlink:href="#m741efc42ff" y="204.463636364"/>
      </g>
     </g>
     <g id="text_24">
      <!-- 15 -->
      <g transform="translate(391.248409091 221.581761364)scale(0.12 -0.12)">
       <use xlink:href="#BitstreamVeraSans-Roman-31"/>
       <use x="63.623046875" xlink:href="#BitstreamVeraSans-Roman-35"/>
      </g>
     </g>
    </g>
    <g id="xtick_14">
     <g id="line2d_28">
      <g>
       <use style="stroke:#000000;stroke-width:0.5;" x="423.460227273" xlink:href="#m741efc42ff" y="204.463636364"/>
      </g>
     </g>
     <g id="text_25">
      <!-- 20 -->
      <g transform="translate(416.663352273 221.581761364)scale(0.12 -0.12)">
       <use xlink:href="#BitstreamVeraSans-Roman-32"/>
       <use x="63.623046875" xlink:href="#BitstreamVeraSans-Roman-30"/>
      </g>
     </g>
    </g>
    <g id="xtick_15">
     <g id="line2d_29">
      <g>
       <use style="stroke:#000000;stroke-width:0.5;" x="449.220170455" xlink:href="#m741efc42ff" y="204.463636364"/>
      </g>
     </g>
     <g id="text_26">
      <!-- 25 -->
      <g transform="translate(442.548920455 221.581761364)scale(0.12 -0.12)">
       <use xlink:href="#BitstreamVeraSans-Roman-32"/>
       <use x="63.623046875" xlink:href="#BitstreamVeraSans-Roman-35"/>
      </g>
     </g>
    </g>
    <g id="xtick_16">
     <g id="line2d_30">
      <g>
       <use style="stroke:#000000;stroke-width:0.5;" x="474.980113636" xlink:href="#m741efc42ff" y="204.463636364"/>
      </g>
     </g>
     <g id="text_27">
      <!-- 30 -->
      <g transform="translate(468.201051136 221.581761364)scale(0.12 -0.12)">
       <use xlink:href="#BitstreamVeraSans-Roman-33"/>
       <use x="63.623046875" xlink:href="#BitstreamVeraSans-Roman-30"/>
      </g>
     </g>
    </g>
    <g id="xtick_17">
     <g id="line2d_31">
      <g>
       <use style="stroke:#000000;stroke-width:0.5;" x="500.740056818" xlink:href="#m741efc42ff" y="204.463636364"/>
      </g>
     </g>
     <g id="text_28">
      <!-- 35 -->
      <g transform="translate(494.086619318 221.581761364)scale(0.12 -0.12)">
       <use xlink:href="#BitstreamVeraSans-Roman-33"/>
       <use x="63.623046875" xlink:href="#BitstreamVeraSans-Roman-35"/>
      </g>
     </g>
    </g>
    <g id="xtick_18">
     <g id="line2d_32">
      <g>
       <use style="stroke:#000000;stroke-width:0.5;" x="526.5" xlink:href="#m741efc42ff" y="204.463636364"/>
      </g>
     </g>
     <g id="text_29">
      <!-- 40 -->
      <g transform="translate(519.556875 221.581761364)scale(0.12 -0.12)">
       <use xlink:href="#BitstreamVeraSans-Roman-34"/>
       <use x="63.623046875" xlink:href="#BitstreamVeraSans-Roman-30"/>
      </g>
     </g>
    </g>
    <g id="text_30">
     <!-- Trials -->
     <g transform="translate(408.352414773 238.195511364)scale(0.12 -0.12)">
      <use xlink:href="#BitstreamVeraSans-Roman-54"/>
      <use x="46.333984375" xlink:href="#BitstreamVeraSans-Roman-72"/>
      <use x="87.447265625" xlink:href="#BitstreamVeraSans-Roman-69"/>
      <use x="115.23046875" xlink:href="#BitstreamVeraSans-Roman-61"/>
      <use x="176.509765625" xlink:href="#BitstreamVeraSans-Roman-6c"/>
      <use x="204.29296875" xlink:href="#BitstreamVeraSans-Roman-73"/>
     </g>
    </g>
   </g>
   <g id="matplotlib.axis_4">
    <g id="ytick_7">
     <g id="line2d_33">
      <g>
       <use style="stroke:#000000;stroke-width:0.5;" x="320.420454545" xlink:href="#mcb0005524f" y="197.174380165"/>
      </g>
     </g>
     <g id="text_31">
      <!-- 0.0 -->
      <g transform="translate(294.924829545 200.485630165)scale(0.12 -0.12)">
       <use xlink:href="#BitstreamVeraSans-Roman-30"/>
       <use x="63.623046875" xlink:href="#BitstreamVeraSans-Roman-2e"/>
       <use x="95.41015625" xlink:href="#BitstreamVeraSans-Roman-30"/>
      </g>
     </g>
    </g>
    <g id="ytick_8">
     <g id="line2d_34">
      <g>
       <use style="stroke:#000000;stroke-width:0.5;" x="320.420454545" xlink:href="#mcb0005524f" y="168.017355372"/>
      </g>
     </g>
     <g id="text_32">
      <!-- 0.2 -->
      <g transform="translate(295.329829545 171.328605372)scale(0.12 -0.12)">
       <use xlink:href="#BitstreamVeraSans-Roman-30"/>
       <use x="63.623046875" xlink:href="#BitstreamVeraSans-Roman-2e"/>
       <use x="95.41015625" xlink:href="#BitstreamVeraSans-Roman-32"/>
      </g>
     </g>
    </g>
    <g id="ytick_9">
     <g id="line2d_35">
      <g>
       <use style="stroke:#000000;stroke-width:0.5;" x="320.420454545" xlink:href="#mcb0005524f" y="138.860330579"/>
      </g>
     </g>
     <g id="text_33">
      <!-- 0.4 -->
      <g transform="translate(294.801079545 142.171580579)scale(0.12 -0.12)">
       <use xlink:href="#BitstreamVeraSans-Roman-30"/>
       <use x="63.623046875" xlink:href="#BitstreamVeraSans-Roman-2e"/>
       <use x="95.41015625" xlink:href="#BitstreamVeraSans-Roman-34"/>
      </g>
     </g>
    </g>
    <g id="ytick_10">
     <g id="line2d_36">
      <g>
       <use style="stroke:#000000;stroke-width:0.5;" x="320.420454545" xlink:href="#mcb0005524f" y="109.703305785"/>
      </g>
     </g>
     <g id="text_34">
      <!-- 0.6 -->
      <g transform="translate(294.883579545 113.014555785)scale(0.12 -0.12)">
       <use xlink:href="#BitstreamVeraSans-Roman-30"/>
       <use x="63.623046875" xlink:href="#BitstreamVeraSans-Roman-2e"/>
       <use x="95.41015625" xlink:href="#BitstreamVeraSans-Roman-36"/>
      </g>
     </g>
    </g>
    <g id="ytick_11">
     <g id="line2d_37">
      <g>
       <use style="stroke:#000000;stroke-width:0.5;" x="320.420454545" xlink:href="#mcb0005524f" y="80.5462809917"/>
      </g>
     </g>
     <g id="text_35">
      <!-- 0.8 -->
      <g transform="translate(294.949204545 83.8575309917)scale(0.12 -0.12)">
       <use xlink:href="#BitstreamVeraSans-Roman-30"/>
       <use x="63.623046875" xlink:href="#BitstreamVeraSans-Roman-2e"/>
       <use x="95.41015625" xlink:href="#BitstreamVeraSans-Roman-38"/>
      </g>
     </g>
    </g>
    <g id="ytick_12">
     <g id="line2d_38">
      <g>
       <use style="stroke:#000000;stroke-width:0.5;" x="320.420454545" xlink:href="#mcb0005524f" y="51.3892561983"/>
      </g>
     </g>
     <g id="text_36">
      <!-- 1.0 -->
      <g transform="translate(295.451704545 54.7005061983)scale(0.12 -0.12)">
       <use xlink:href="#BitstreamVeraSans-Roman-31"/>
       <use x="63.623046875" xlink:href="#BitstreamVeraSans-Roman-2e"/>
       <use x="95.41015625" xlink:href="#BitstreamVeraSans-Roman-30"/>
      </g>
     </g>
    </g>
    <g id="text_37">
     <!-- Probability Best Choice -->
     <g transform="translate(287.305454545 193.098068182)rotate(-90.0)scale(0.12 -0.12)">
      <use xlink:href="#BitstreamVeraSans-Roman-50"/>
      <use x="58.552734375" xlink:href="#BitstreamVeraSans-Roman-72"/>
      <use x="97.416015625" xlink:href="#BitstreamVeraSans-Roman-6f"/>
      <use x="158.59765625" xlink:href="#BitstreamVeraSans-Roman-62"/>
      <use x="222.07421875" xlink:href="#BitstreamVeraSans-Roman-61"/>
      <use x="283.353515625" xlink:href="#BitstreamVeraSans-Roman-62"/>
      <use x="346.830078125" xlink:href="#BitstreamVeraSans-Roman-69"/>
      <use x="374.61328125" xlink:href="#BitstreamVeraSans-Roman-6c"/>
      <use x="402.396484375" xlink:href="#BitstreamVeraSans-Roman-69"/>
      <use x="430.1796875" xlink:href="#BitstreamVeraSans-Roman-74"/>
      <use x="469.388671875" xlink:href="#BitstreamVeraSans-Roman-79"/>
      <use x="528.568359375" xlink:href="#BitstreamVeraSans-Roman-20"/>
      <use x="560.35546875" xlink:href="#BitstreamVeraSans-Roman-42"/>
      <use x="628.958984375" xlink:href="#BitstreamVeraSans-Roman-65"/>
      <use x="690.482421875" xlink:href="#BitstreamVeraSans-Roman-73"/>
      <use x="742.58203125" xlink:href="#BitstreamVeraSans-Roman-74"/>
      <use x="781.791015625" xlink:href="#BitstreamVeraSans-Roman-20"/>
      <use x="813.578125" xlink:href="#BitstreamVeraSans-Roman-43"/>
      <use x="883.40234375" xlink:href="#BitstreamVeraSans-Roman-68"/>
      <use x="946.78125" xlink:href="#BitstreamVeraSans-Roman-6f"/>
      <use x="1007.96289062" xlink:href="#BitstreamVeraSans-Roman-69"/>
      <use x="1035.74609375" xlink:href="#BitstreamVeraSans-Roman-63"/>
      <use x="1090.7265625" xlink:href="#BitstreamVeraSans-Roman-65"/>
     </g>
    </g>
   </g>
   <g id="text_38">
    <!-- Low vs. High -->
    <defs>
     <path d="
M45.4062 27.9844
Q45.4062 37.75 41.375 43.1094
Q37.3594 48.4844 30.0781 48.4844
Q22.8594 48.4844 18.8281 43.1094
Q14.7969 37.75 14.7969 27.9844
Q14.7969 18.2656 18.8281 12.8906
Q22.8594 7.51562 30.0781 7.51562
Q37.3594 7.51562 41.375 12.8906
Q45.4062 18.2656 45.4062 27.9844
M54.3906 6.78125
Q54.3906 -7.17188 48.1875 -13.9844
Q42 -20.7969 29.2031 -20.7969
Q24.4688 -20.7969 20.2656 -20.0938
Q16.0625 -19.3906 12.1094 -17.9219
L12.1094 -9.1875
Q16.0625 -11.3281 19.9219 -12.3438
Q23.7812 -13.375 27.7812 -13.375
Q36.625 -13.375 41.0156 -8.76562
Q45.4062 -4.15625 45.4062 5.17188
L45.4062 9.625
Q42.625 4.78125 38.2812 2.39062
Q33.9375 0 27.875 0
Q17.8281 0 11.6719 7.65625
Q5.51562 15.3281 5.51562 27.9844
Q5.51562 40.6719 11.6719 48.3281
Q17.8281 56 27.875 56
Q33.9375 56 38.2812 53.6094
Q42.625 51.2188 45.4062 46.3906
L45.4062 54.6875
L54.3906 54.6875
z
" id="BitstreamVeraSans-Roman-67"/>
     <path d="
M9.8125 72.9062
L19.6719 72.9062
L19.6719 43.0156
L55.5156 43.0156
L55.5156 72.9062
L65.375 72.9062
L65.375 0
L55.5156 0
L55.5156 34.7188
L19.6719 34.7188
L19.6719 0
L9.8125 0
z
" id="BitstreamVeraSans-Roman-48"/>
    </defs>
    <g transform="translate(378.465852273 39.1)scale(0.144 -0.144)">
     <use xlink:href="#BitstreamVeraSans-Roman-4c"/>
     <use x="53.962890625" xlink:href="#BitstreamVeraSans-Roman-6f"/>
     <use x="115.14453125" xlink:href="#BitstreamVeraSans-Roman-77"/>
     <use x="196.931640625" xlink:href="#BitstreamVeraSans-Roman-20"/>
     <use x="228.71875" xlink:href="#BitstreamVeraSans-Roman-76"/>
     <use x="287.8984375" xlink:href="#BitstreamVeraSans-Roman-73"/>
     <use x="339.998046875" xlink:href="#BitstreamVeraSans-Roman-2e"/>
     <use x="371.78515625" xlink:href="#BitstreamVeraSans-Roman-20"/>
     <use x="403.572265625" xlink:href="#BitstreamVeraSans-Roman-48"/>
     <use x="478.767578125" xlink:href="#BitstreamVeraSans-Roman-69"/>
     <use x="506.55078125" xlink:href="#BitstreamVeraSans-Roman-67"/>
     <use x="570.02734375" xlink:href="#BitstreamVeraSans-Roman-68"/>
    </g>
   </g>
   <g id="legend_2">
    <g id="patch_13">
     <path d="
M411.505 97.893
L519.3 97.893
L519.3 51.3
L411.505 51.3
z
" style="fill:#ffffff;stroke:#000000;stroke-linejoin:miter;"/>
    </g>
    <g id="line2d_39">
     <path d="
M421.585 62.9617
L441.745 62.9617" style="fill:none;stroke:#0000ff;stroke-linecap:square;"/>
    </g>
    <g id="line2d_40"/>
    <g id="text_39">
     <!-- Block A -->
     <g transform="translate(457.58475 68.00175)scale(0.144 -0.144)">
      <use xlink:href="#BitstreamVeraSans-Roman-42"/>
      <use x="68.603515625" xlink:href="#BitstreamVeraSans-Roman-6c"/>
      <use x="96.38671875" xlink:href="#BitstreamVeraSans-Roman-6f"/>
      <use x="157.568359375" xlink:href="#BitstreamVeraSans-Roman-63"/>
      <use x="212.548828125" xlink:href="#BitstreamVeraSans-Roman-6b"/>
      <use x="270.458984375" xlink:href="#BitstreamVeraSans-Roman-20"/>
      <use x="302.24609375" xlink:href="#BitstreamVeraSans-Roman-41"/>
     </g>
    </g>
    <g id="line2d_41">
     <path d="
M421.585 84.0982
L441.745 84.0982" style="fill:none;stroke:#ff0000;stroke-linecap:square;"/>
    </g>
    <g id="line2d_42"/>
    <g id="text_40">
     <!-- Block A' -->
     <g transform="translate(457.58475 89.13825)scale(0.144 -0.144)">
      <use xlink:href="#BitstreamVeraSans-Roman-42"/>
      <use x="68.603515625" xlink:href="#BitstreamVeraSans-Roman-6c"/>
      <use x="96.38671875" xlink:href="#BitstreamVeraSans-Roman-6f"/>
      <use x="157.568359375" xlink:href="#BitstreamVeraSans-Roman-63"/>
      <use x="212.548828125" xlink:href="#BitstreamVeraSans-Roman-6b"/>
      <use x="270.458984375" xlink:href="#BitstreamVeraSans-Roman-20"/>
      <use x="302.24609375" xlink:href="#BitstreamVeraSans-Roman-41"/>
      <use x="370.654296875" xlink:href="#BitstreamVeraSans-Roman-27"/>
     </g>
    </g>
   </g>
  </g>
  <g id="axes_3">
   <g id="patch_14">
    <path d="
M73.125 396.9
L279.205 396.9
L279.205 236.536
L73.125 236.536
z
" style="fill:#ffffff;"/>
   </g>
   <g id="line2d_43">
    <path clip-path="url(#p1b7b43d6de)" d="
M73.125 243.826
L79.013 243.826
L84.901 292.421
L90.789 280.272
L96.6769 272.983
L102.565 268.123
L108.453 264.652
L114.341 262.049
L120.229 260.024
L126.117 258.404
L132.005 270.332
L137.893 268.123
L143.781 277.468
L149.669 275.065
L155.557 272.983
L161.445 280.272
L167.333 286.704
L173.221 292.421
L179.109 297.536
L184.997 294.85
L190.885 294.85
L196.773 294.85
L202.661 287.561
L208.549 287.561
L214.437 287.561
L220.325 287.561
L226.213 287.561
L232.101 287.561
L237.989 287.561
L243.877 287.561
L249.765 280.272
L255.653 280.272" style="fill:none;stroke:#0000ff;stroke-linecap:square;"/>
   </g>
   <g id="line2d_44">
    <path clip-path="url(#p1b7b43d6de)" d="
M73.125 243.826
L79.013 243.826
L84.901 292.421
L90.789 316.718
L96.6769 302.14
L102.565 292.421
L108.453 285.479
L114.341 280.272
L120.229 292.421
L126.117 287.561
L132.005 296.838
L137.893 304.569
L143.781 299.897
L149.669 295.892
L155.557 292.421
L161.445 298.495
L167.333 295.279
L173.221 292.421
L179.109 289.863
L184.997 287.561
L190.885 287.561
L196.773 294.85
L202.661 287.561
L208.549 287.561
L214.437 287.561
L220.325 287.561
L226.213 287.561
L232.101 287.561
L237.989 280.272
L243.877 280.272
L249.765 272.983
L255.653 265.693
L261.541 265.693
L267.429 265.693
L273.317 265.693" style="fill:none;stroke:#ff0000;stroke-linecap:square;"/>
   </g>
   <g id="patch_15">
    <path d="
M73.125 236.536
L279.205 236.536" style="fill:none;stroke:#000000;stroke-linecap:square;stroke-linejoin:miter;"/>
   </g>
   <g id="patch_16">
    <path d="
M279.205 396.9
L279.205 236.536" style="fill:none;stroke:#000000;stroke-linecap:square;stroke-linejoin:miter;"/>
   </g>
   <g id="patch_17">
    <path d="
M73.125 396.9
L279.205 396.9" style="fill:none;stroke:#000000;stroke-linecap:square;stroke-linejoin:miter;"/>
   </g>
   <g id="patch_18">
    <path d="
M73.125 396.9
L73.125 236.536" style="fill:none;stroke:#000000;stroke-linecap:square;stroke-linejoin:miter;"/>
   </g>
   <g id="matplotlib.axis_5">
    <g id="xtick_19">
     <g id="line2d_45">
      <g>
       <use style="stroke:#000000;stroke-width:0.5;" x="73.125" xlink:href="#m741efc42ff" y="396.9"/>
      </g>
     </g>
     <g id="text_41">
      <!-- 0 -->
      <g transform="translate(70.1015625 414.018125)scale(0.12 -0.12)">
       <use xlink:href="#BitstreamVeraSans-Roman-30"/>
      </g>
     </g>
    </g>
    <g id="xtick_20">
     <g id="line2d_46">
      <g>
       <use style="stroke:#000000;stroke-width:0.5;" x="102.564935065" xlink:href="#m741efc42ff" y="396.9"/>
      </g>
     </g>
     <g id="text_42">
      <!-- 5 -->
      <g transform="translate(99.7346225649 414.018125)scale(0.12 -0.12)">
       <use xlink:href="#BitstreamVeraSans-Roman-35"/>
      </g>
     </g>
    </g>
    <g id="xtick_21">
     <g id="line2d_47">
      <g>
       <use style="stroke:#000000;stroke-width:0.5;" x="132.00487013" xlink:href="#m741efc42ff" y="396.9"/>
      </g>
     </g>
     <g id="text_43">
      <!-- 10 -->
      <g transform="translate(125.42737013 414.018125)scale(0.12 -0.12)">
       <use xlink:href="#BitstreamVeraSans-Roman-31"/>
       <use x="63.623046875" xlink:href="#BitstreamVeraSans-Roman-30"/>
      </g>
     </g>
    </g>
    <g id="xtick_22">
     <g id="line2d_48">
      <g>
       <use style="stroke:#000000;stroke-width:0.5;" x="161.444805195" xlink:href="#m741efc42ff" y="396.9"/>
      </g>
     </g>
     <g id="text_44">
      <!-- 15 -->
      <g transform="translate(154.992930195 414.018125)scale(0.12 -0.12)">
       <use xlink:href="#BitstreamVeraSans-Roman-31"/>
       <use x="63.623046875" xlink:href="#BitstreamVeraSans-Roman-35"/>
      </g>
     </g>
    </g>
    <g id="xtick_23">
     <g id="line2d_49">
      <g>
       <use style="stroke:#000000;stroke-width:0.5;" x="190.88474026" xlink:href="#m741efc42ff" y="396.9"/>
      </g>
     </g>
     <g id="text_45">
      <!-- 20 -->
      <g transform="translate(184.08786526 414.018125)scale(0.12 -0.12)">
       <use xlink:href="#BitstreamVeraSans-Roman-32"/>
       <use x="63.623046875" xlink:href="#BitstreamVeraSans-Roman-30"/>
      </g>
     </g>
    </g>
    <g id="xtick_24">
     <g id="line2d_50">
      <g>
       <use style="stroke:#000000;stroke-width:0.5;" x="220.324675325" xlink:href="#m741efc42ff" y="396.9"/>
      </g>
     </g>
     <g id="text_46">
      <!-- 25 -->
      <g transform="translate(213.653425325 414.018125)scale(0.12 -0.12)">
       <use xlink:href="#BitstreamVeraSans-Roman-32"/>
       <use x="63.623046875" xlink:href="#BitstreamVeraSans-Roman-35"/>
      </g>
     </g>
    </g>
    <g id="xtick_25">
     <g id="line2d_51">
      <g>
       <use style="stroke:#000000;stroke-width:0.5;" x="249.76461039" xlink:href="#m741efc42ff" y="396.9"/>
      </g>
     </g>
     <g id="text_47">
      <!-- 30 -->
      <g transform="translate(242.98554789 414.018125)scale(0.12 -0.12)">
       <use xlink:href="#BitstreamVeraSans-Roman-33"/>
       <use x="63.623046875" xlink:href="#BitstreamVeraSans-Roman-30"/>
      </g>
     </g>
    </g>
    <g id="xtick_26">
     <g id="line2d_52">
      <g>
       <use style="stroke:#000000;stroke-width:0.5;" x="279.204545455" xlink:href="#m741efc42ff" y="396.9"/>
      </g>
     </g>
     <g id="text_48">
      <!-- 35 -->
      <g transform="translate(272.551107955 414.018125)scale(0.12 -0.12)">
       <use xlink:href="#BitstreamVeraSans-Roman-33"/>
       <use x="63.623046875" xlink:href="#BitstreamVeraSans-Roman-35"/>
      </g>
     </g>
    </g>
    <g id="text_49">
     <!-- Trials -->
     <g transform="translate(161.056960227 430.631875)scale(0.12 -0.12)">
      <use xlink:href="#BitstreamVeraSans-Roman-54"/>
      <use x="46.333984375" xlink:href="#BitstreamVeraSans-Roman-72"/>
      <use x="87.447265625" xlink:href="#BitstreamVeraSans-Roman-69"/>
      <use x="115.23046875" xlink:href="#BitstreamVeraSans-Roman-61"/>
      <use x="176.509765625" xlink:href="#BitstreamVeraSans-Roman-6c"/>
      <use x="204.29296875" xlink:href="#BitstreamVeraSans-Roman-73"/>
     </g>
    </g>
   </g>
   <g id="matplotlib.axis_6">
    <g id="ytick_13">
     <g id="line2d_53">
      <g>
       <use style="stroke:#000000;stroke-width:0.5;" x="73.125" xlink:href="#mcb0005524f" y="389.610743802"/>
      </g>
     </g>
     <g id="text_50">
      <!-- 0.0 -->
      <g transform="translate(47.629375 392.921993802)scale(0.12 -0.12)">
       <use xlink:href="#BitstreamVeraSans-Roman-30"/>
       <use x="63.623046875" xlink:href="#BitstreamVeraSans-Roman-2e"/>
       <use x="95.41015625" xlink:href="#BitstreamVeraSans-Roman-30"/>
      </g>
     </g>
    </g>
    <g id="ytick_14">
     <g id="line2d_54">
      <g>
       <use style="stroke:#000000;stroke-width:0.5;" x="73.125" xlink:href="#mcb0005524f" y="360.453719008"/>
      </g>
     </g>
     <g id="text_51">
      <!-- 0.2 -->
      <g transform="translate(48.034375 363.764969008)scale(0.12 -0.12)">
       <use xlink:href="#BitstreamVeraSans-Roman-30"/>
       <use x="63.623046875" xlink:href="#BitstreamVeraSans-Roman-2e"/>
       <use x="95.41015625" xlink:href="#BitstreamVeraSans-Roman-32"/>
      </g>
     </g>
    </g>
    <g id="ytick_15">
     <g id="line2d_55">
      <g>
       <use style="stroke:#000000;stroke-width:0.5;" x="73.125" xlink:href="#mcb0005524f" y="331.296694215"/>
      </g>
     </g>
     <g id="text_52">
      <!-- 0.4 -->
      <g transform="translate(47.505625 334.607944215)scale(0.12 -0.12)">
       <use xlink:href="#BitstreamVeraSans-Roman-30"/>
       <use x="63.623046875" xlink:href="#BitstreamVeraSans-Roman-2e"/>
       <use x="95.41015625" xlink:href="#BitstreamVeraSans-Roman-34"/>
      </g>
     </g>
    </g>
    <g id="ytick_16">
     <g id="line2d_56">
      <g>
       <use style="stroke:#000000;stroke-width:0.5;" x="73.125" xlink:href="#mcb0005524f" y="302.139669421"/>
      </g>
     </g>
     <g id="text_53">
      <!-- 0.6 -->
      <g transform="translate(47.588125 305.450919421)scale(0.12 -0.12)">
       <use xlink:href="#BitstreamVeraSans-Roman-30"/>
       <use x="63.623046875" xlink:href="#BitstreamVeraSans-Roman-2e"/>
       <use x="95.41015625" xlink:href="#BitstreamVeraSans-Roman-36"/>
      </g>
     </g>
    </g>
    <g id="ytick_17">
     <g id="line2d_57">
      <g>
       <use style="stroke:#000000;stroke-width:0.5;" x="73.125" xlink:href="#mcb0005524f" y="272.982644628"/>
      </g>
     </g>
     <g id="text_54">
      <!-- 0.8 -->
      <g transform="translate(47.65375 276.293894628)scale(0.12 -0.12)">
       <use xlink:href="#BitstreamVeraSans-Roman-30"/>
       <use x="63.623046875" xlink:href="#BitstreamVeraSans-Roman-2e"/>
       <use x="95.41015625" xlink:href="#BitstreamVeraSans-Roman-38"/>
      </g>
     </g>
    </g>
    <g id="ytick_18">
     <g id="line2d_58">
      <g>
       <use style="stroke:#000000;stroke-width:0.5;" x="73.125" xlink:href="#mcb0005524f" y="243.825619835"/>
      </g>
     </g>
     <g id="text_55">
      <!-- 1.0 -->
      <g transform="translate(48.15625 247.136869835)scale(0.12 -0.12)">
       <use xlink:href="#BitstreamVeraSans-Roman-31"/>
       <use x="63.623046875" xlink:href="#BitstreamVeraSans-Roman-2e"/>
       <use x="95.41015625" xlink:href="#BitstreamVeraSans-Roman-30"/>
      </g>
     </g>
    </g>
    <g id="text_56">
     <!-- Probability Best Choice -->
     <g transform="translate(40.01 385.534431818)rotate(-90.0)scale(0.12 -0.12)">
      <use xlink:href="#BitstreamVeraSans-Roman-50"/>
      <use x="58.552734375" xlink:href="#BitstreamVeraSans-Roman-72"/>
      <use x="97.416015625" xlink:href="#BitstreamVeraSans-Roman-6f"/>
      <use x="158.59765625" xlink:href="#BitstreamVeraSans-Roman-62"/>
      <use x="222.07421875" xlink:href="#BitstreamVeraSans-Roman-61"/>
      <use x="283.353515625" xlink:href="#BitstreamVeraSans-Roman-62"/>
      <use x="346.830078125" xlink:href="#BitstreamVeraSans-Roman-69"/>
      <use x="374.61328125" xlink:href="#BitstreamVeraSans-Roman-6c"/>
      <use x="402.396484375" xlink:href="#BitstreamVeraSans-Roman-69"/>
      <use x="430.1796875" xlink:href="#BitstreamVeraSans-Roman-74"/>
      <use x="469.388671875" xlink:href="#BitstreamVeraSans-Roman-79"/>
      <use x="528.568359375" xlink:href="#BitstreamVeraSans-Roman-20"/>
      <use x="560.35546875" xlink:href="#BitstreamVeraSans-Roman-42"/>
      <use x="628.958984375" xlink:href="#BitstreamVeraSans-Roman-65"/>
      <use x="690.482421875" xlink:href="#BitstreamVeraSans-Roman-73"/>
      <use x="742.58203125" xlink:href="#BitstreamVeraSans-Roman-74"/>
      <use x="781.791015625" xlink:href="#BitstreamVeraSans-Roman-20"/>
      <use x="813.578125" xlink:href="#BitstreamVeraSans-Roman-43"/>
      <use x="883.40234375" xlink:href="#BitstreamVeraSans-Roman-68"/>
      <use x="946.78125" xlink:href="#BitstreamVeraSans-Roman-6f"/>
      <use x="1007.96289062" xlink:href="#BitstreamVeraSans-Roman-69"/>
      <use x="1035.74609375" xlink:href="#BitstreamVeraSans-Roman-63"/>
      <use x="1090.7265625" xlink:href="#BitstreamVeraSans-Roman-65"/>
     </g>
    </g>
   </g>
   <g id="text_57">
    <!-- Mid vs. High -->
    <g transform="translate(132.566522727 231.536363636)scale(0.144 -0.144)">
     <use xlink:href="#BitstreamVeraSans-Roman-4d"/>
     <use x="86.279296875" xlink:href="#BitstreamVeraSans-Roman-69"/>
     <use x="114.0625" xlink:href="#BitstreamVeraSans-Roman-64"/>
     <use x="177.5390625" xlink:href="#BitstreamVeraSans-Roman-20"/>
     <use x="209.326171875" xlink:href="#BitstreamVeraSans-Roman-76"/>
     <use x="268.505859375" xlink:href="#BitstreamVeraSans-Roman-73"/>
     <use x="320.60546875" xlink:href="#BitstreamVeraSans-Roman-2e"/>
     <use x="352.392578125" xlink:href="#BitstreamVeraSans-Roman-20"/>
     <use x="384.1796875" xlink:href="#BitstreamVeraSans-Roman-48"/>
     <use x="459.375" xlink:href="#BitstreamVeraSans-Roman-69"/>
     <use x="487.158203125" xlink:href="#BitstreamVeraSans-Roman-67"/>
     <use x="550.634765625" xlink:href="#BitstreamVeraSans-Roman-68"/>
    </g>
   </g>
   <g id="legend_3">
    <g id="patch_19">
     <path d="
M164.209 290.329
L272.005 290.329
L272.005 243.736
L164.209 243.736
z
" style="fill:#ffffff;stroke:#000000;stroke-linejoin:miter;"/>
    </g>
    <g id="line2d_59">
     <path d="
M174.289 255.398
L194.449 255.398" style="fill:none;stroke:#0000ff;stroke-linecap:square;"/>
    </g>
    <g id="line2d_60"/>
    <g id="text_58">
     <!-- Block A -->
     <g transform="translate(210.289295455 260.438113636)scale(0.144 -0.144)">
      <use xlink:href="#BitstreamVeraSans-Roman-42"/>
      <use x="68.603515625" xlink:href="#BitstreamVeraSans-Roman-6c"/>
      <use x="96.38671875" xlink:href="#BitstreamVeraSans-Roman-6f"/>
      <use x="157.568359375" xlink:href="#BitstreamVeraSans-Roman-63"/>
      <use x="212.548828125" xlink:href="#BitstreamVeraSans-Roman-6b"/>
      <use x="270.458984375" xlink:href="#BitstreamVeraSans-Roman-20"/>
      <use x="302.24609375" xlink:href="#BitstreamVeraSans-Roman-41"/>
     </g>
    </g>
    <g id="line2d_61">
     <path d="
M174.289 276.535
L194.449 276.535" style="fill:none;stroke:#ff0000;stroke-linecap:square;"/>
    </g>
    <g id="line2d_62"/>
    <g id="text_59">
     <!-- Block A' -->
     <g transform="translate(210.289295455 281.574613636)scale(0.144 -0.144)">
      <use xlink:href="#BitstreamVeraSans-Roman-42"/>
      <use x="68.603515625" xlink:href="#BitstreamVeraSans-Roman-6c"/>
      <use x="96.38671875" xlink:href="#BitstreamVeraSans-Roman-6f"/>
      <use x="157.568359375" xlink:href="#BitstreamVeraSans-Roman-63"/>
      <use x="212.548828125" xlink:href="#BitstreamVeraSans-Roman-6b"/>
      <use x="270.458984375" xlink:href="#BitstreamVeraSans-Roman-20"/>
      <use x="302.24609375" xlink:href="#BitstreamVeraSans-Roman-41"/>
      <use x="370.654296875" xlink:href="#BitstreamVeraSans-Roman-27"/>
     </g>
    </g>
   </g>
  </g>
  <g id="axes_4">
   <g id="patch_20">
    <path d="
M320.42 396.9
L526.5 396.9
L526.5 236.536
L320.42 236.536
z
" style="fill:#ffffff;"/>
   </g>
   <g id="line2d_63">
    <path clip-path="url(#p7723b9bf4e)" d="
M320.42 243.826
L322.138 243.826
L323.855 292.421
L325.572 316.718
L327.29 331.297
L329.007 316.718
L330.724 306.305
L332.442 316.718
L334.159 324.817
L335.876 316.718
L337.594 323.345
L339.311 328.867
L341.028 322.325
L342.746 327.131
L344.463 331.297
L346.18 334.941
L347.898 338.157
L349.615 341.016
L351.332 335.9
L353.05 331.297
L354.767 338.586
L356.484 345.875
L358.202 338.586
L359.919 338.586
L361.636 338.586
L363.354 338.586
L365.071 338.586
L366.788 331.297
L368.506 331.297
L370.223 331.297
L371.94 324.007
L373.658 316.718
L375.375 316.718
L377.092 309.429
L378.81 302.14
L380.527 294.85
L382.244 294.85
L383.962 294.85
L385.679 302.14
L387.396 302.14
L389.114 302.14
L390.831 302.14
L392.548 309.429
L394.266 309.429
L395.983 302.14
L397.7 302.14
L399.418 309.429
L401.135 316.718
L402.852 309.429
L404.57 309.429
L406.287 309.429
L408.004 316.718
L409.722 324.007
L411.439 324.007
L413.156 324.007
L414.874 324.007
L416.591 316.718
L418.308 309.429
L420.026 309.429
L421.743 309.429
L423.46 309.429
L425.178 309.429
L426.895 309.429
L428.612 302.14
L430.33 309.429
L432.047 316.718
L433.764 309.429
L435.482 302.14
L437.199 302.14
L438.916 302.14
L440.634 302.14
L442.351 294.85
L444.068 287.561
L445.786 287.561
L447.503 294.85
L449.22 302.14
L450.938 309.429
L452.655 309.429
L454.372 302.14
L456.089 302.14
L457.807 294.85
L459.524 287.561
L461.241 287.561
L462.959 287.561
L464.676 287.561
L466.393 280.272
L468.111 280.272
L469.828 280.272
L471.545 287.561
L473.263 287.561
L474.98 287.561
L476.697 287.561
L478.415 287.561
L480.132 287.561
L481.849 280.272
L483.567 272.983
L485.284 265.693
L487.001 265.693
L488.719 272.983
L490.436 280.272
L492.153 287.561
L493.871 287.561
L495.588 280.272
L497.305 280.272
L499.023 280.272
L500.74 287.561
L502.457 294.85" style="fill:none;stroke:#0000ff;stroke-linecap:square;"/>
   </g>
   <g id="line2d_64">
    <path clip-path="url(#p7723b9bf4e)" d="
M320.42 243.826
L322.138 243.826
L323.855 243.826
L325.572 243.826
L327.29 243.826
L329.007 243.826
L330.724 264.652
L332.442 280.272
L334.159 276.222
L335.876 272.983
L337.594 270.332
L339.311 268.123
L341.028 266.254
L342.746 264.652
L344.463 263.264
L346.18 262.049
L347.898 269.552
L349.615 268.123
L351.332 266.844
L353.05 265.693
L354.767 265.693
L356.484 272.983
L358.202 272.983
L359.919 272.983
L361.636 280.272
L363.354 280.272
L365.071 280.272
L366.788 272.983
L368.506 272.983
L370.223 272.983
L371.94 272.983
L373.658 272.983
L375.375 272.983
L377.092 272.983
L378.81 272.983
L380.527 272.983
L382.244 272.983
L383.962 272.983
L385.679 272.983
L387.396 272.983
L389.114 272.983
L390.831 265.693
L392.548 265.693
L394.266 265.693
L395.983 258.404
L397.7 258.404
L399.418 251.115
L401.135 251.115
L402.852 251.115
L404.57 251.115
L406.287 251.115
L408.004 251.115
L409.722 258.404
L411.439 258.404
L413.156 258.404
L414.874 258.404
L416.591 251.115
L418.308 251.115
L420.026 251.115
L421.743 251.115
L423.46 251.115
L425.178 251.115
L426.895 251.115
L428.612 251.115
L430.33 251.115
L432.047 258.404
L433.764 258.404
L435.482 258.404
L437.199 258.404
L438.916 258.404
L440.634 258.404
L442.351 258.404
L444.068 251.115
L445.786 251.115
L447.503 251.115
L449.22 251.115
L450.938 251.115
L452.655 251.115
L454.372 251.115
L456.089 251.115
L457.807 251.115
L459.524 251.115
L461.241 251.115
L462.959 251.115
L464.676 251.115
L466.393 243.826
L468.111 243.826
L469.828 243.826
L471.545 243.826
L473.263 243.826
L474.98 243.826" style="fill:none;stroke:#ff0000;stroke-linecap:square;"/>
   </g>
   <g id="patch_21">
    <path d="
M320.42 236.536
L526.5 236.536" style="fill:none;stroke:#000000;stroke-linecap:square;stroke-linejoin:miter;"/>
   </g>
   <g id="patch_22">
    <path d="
M526.5 396.9
L526.5 236.536" style="fill:none;stroke:#000000;stroke-linecap:square;stroke-linejoin:miter;"/>
   </g>
   <g id="patch_23">
    <path d="
M320.42 396.9
L526.5 396.9" style="fill:none;stroke:#000000;stroke-linecap:square;stroke-linejoin:miter;"/>
   </g>
   <g id="patch_24">
    <path d="
M320.42 396.9
L320.42 236.536" style="fill:none;stroke:#000000;stroke-linecap:square;stroke-linejoin:miter;"/>
   </g>
   <g id="matplotlib.axis_7">
    <g id="xtick_27">
     <g id="line2d_65">
      <g>
       <use style="stroke:#000000;stroke-width:0.5;" x="320.420454545" xlink:href="#m741efc42ff" y="396.9"/>
      </g>
     </g>
     <g id="text_60">
      <!-- 0 -->
      <g transform="translate(317.397017045 414.018125)scale(0.12 -0.12)">
       <use xlink:href="#BitstreamVeraSans-Roman-30"/>
      </g>
     </g>
    </g>
    <g id="xtick_28">
     <g id="line2d_66">
      <g>
       <use style="stroke:#000000;stroke-width:0.5;" x="354.767045455" xlink:href="#m741efc42ff" y="396.9"/>
      </g>
     </g>
     <g id="text_61">
      <!-- 20 -->
      <g transform="translate(347.970170455 414.018125)scale(0.12 -0.12)">
       <use xlink:href="#BitstreamVeraSans-Roman-32"/>
       <use x="63.623046875" xlink:href="#BitstreamVeraSans-Roman-30"/>
      </g>
     </g>
    </g>
    <g id="xtick_29">
     <g id="line2d_67">
      <g>
       <use style="stroke:#000000;stroke-width:0.5;" x="389.113636364" xlink:href="#m741efc42ff" y="396.9"/>
      </g>
     </g>
     <g id="text_62">
      <!-- 40 -->
      <g transform="translate(382.170511364 414.018125)scale(0.12 -0.12)">
       <use xlink:href="#BitstreamVeraSans-Roman-34"/>
       <use x="63.623046875" xlink:href="#BitstreamVeraSans-Roman-30"/>
      </g>
     </g>
    </g>
    <g id="xtick_30">
     <g id="line2d_68">
      <g>
       <use style="stroke:#000000;stroke-width:0.5;" x="423.460227273" xlink:href="#m741efc42ff" y="396.9"/>
      </g>
     </g>
     <g id="text_63">
      <!-- 60 -->
      <g transform="translate(416.642727273 414.018125)scale(0.12 -0.12)">
       <use xlink:href="#BitstreamVeraSans-Roman-36"/>
       <use x="63.623046875" xlink:href="#BitstreamVeraSans-Roman-30"/>
      </g>
     </g>
    </g>
    <g id="xtick_31">
     <g id="line2d_69">
      <g>
       <use style="stroke:#000000;stroke-width:0.5;" x="457.806818182" xlink:href="#m741efc42ff" y="396.9"/>
      </g>
     </g>
     <g id="text_64">
      <!-- 80 -->
      <g transform="translate(450.977130682 414.018125)scale(0.12 -0.12)">
       <use xlink:href="#BitstreamVeraSans-Roman-38"/>
       <use x="63.623046875" xlink:href="#BitstreamVeraSans-Roman-30"/>
      </g>
     </g>
    </g>
    <g id="xtick_32">
     <g id="line2d_70">
      <g>
       <use style="stroke:#000000;stroke-width:0.5;" x="492.153409091" xlink:href="#m741efc42ff" y="396.9"/>
      </g>
     </g>
     <g id="text_65">
      <!-- 100 -->
      <g transform="translate(481.758409091 414.018125)scale(0.12 -0.12)">
       <use xlink:href="#BitstreamVeraSans-Roman-31"/>
       <use x="63.623046875" xlink:href="#BitstreamVeraSans-Roman-30"/>
       <use x="127.24609375" xlink:href="#BitstreamVeraSans-Roman-30"/>
      </g>
     </g>
    </g>
    <g id="xtick_33">
     <g id="line2d_71">
      <g>
       <use style="stroke:#000000;stroke-width:0.5;" x="526.5" xlink:href="#m741efc42ff" y="396.9"/>
      </g>
     </g>
     <g id="text_66">
      <!-- 120 -->
      <g transform="translate(516.105 414.018125)scale(0.12 -0.12)">
       <use xlink:href="#BitstreamVeraSans-Roman-31"/>
       <use x="63.623046875" xlink:href="#BitstreamVeraSans-Roman-32"/>
       <use x="127.24609375" xlink:href="#BitstreamVeraSans-Roman-30"/>
      </g>
     </g>
    </g>
    <g id="text_67">
     <!-- Trials -->
     <g transform="translate(408.352414773 430.631875)scale(0.12 -0.12)">
      <use xlink:href="#BitstreamVeraSans-Roman-54"/>
      <use x="46.333984375" xlink:href="#BitstreamVeraSans-Roman-72"/>
      <use x="87.447265625" xlink:href="#BitstreamVeraSans-Roman-69"/>
      <use x="115.23046875" xlink:href="#BitstreamVeraSans-Roman-61"/>
      <use x="176.509765625" xlink:href="#BitstreamVeraSans-Roman-6c"/>
      <use x="204.29296875" xlink:href="#BitstreamVeraSans-Roman-73"/>
     </g>
    </g>
   </g>
   <g id="matplotlib.axis_8">
    <g id="ytick_19">
     <g id="line2d_72">
      <g>
       <use style="stroke:#000000;stroke-width:0.5;" x="320.420454545" xlink:href="#mcb0005524f" y="389.610743802"/>
      </g>
     </g>
     <g id="text_68">
      <!-- 0.0 -->
      <g transform="translate(294.924829545 392.921993802)scale(0.12 -0.12)">
       <use xlink:href="#BitstreamVeraSans-Roman-30"/>
       <use x="63.623046875" xlink:href="#BitstreamVeraSans-Roman-2e"/>
       <use x="95.41015625" xlink:href="#BitstreamVeraSans-Roman-30"/>
      </g>
     </g>
    </g>
    <g id="ytick_20">
     <g id="line2d_73">
      <g>
       <use style="stroke:#000000;stroke-width:0.5;" x="320.420454545" xlink:href="#mcb0005524f" y="360.453719008"/>
      </g>
     </g>
     <g id="text_69">
      <!-- 0.2 -->
      <g transform="translate(295.329829545 363.764969008)scale(0.12 -0.12)">
       <use xlink:href="#BitstreamVeraSans-Roman-30"/>
       <use x="63.623046875" xlink:href="#BitstreamVeraSans-Roman-2e"/>
       <use x="95.41015625" xlink:href="#BitstreamVeraSans-Roman-32"/>
      </g>
     </g>
    </g>
    <g id="ytick_21">
     <g id="line2d_74">
      <g>
       <use style="stroke:#000000;stroke-width:0.5;" x="320.420454545" xlink:href="#mcb0005524f" y="331.296694215"/>
      </g>
     </g>
     <g id="text_70">
      <!-- 0.4 -->
      <g transform="translate(294.801079545 334.607944215)scale(0.12 -0.12)">
       <use xlink:href="#BitstreamVeraSans-Roman-30"/>
       <use x="63.623046875" xlink:href="#BitstreamVeraSans-Roman-2e"/>
       <use x="95.41015625" xlink:href="#BitstreamVeraSans-Roman-34"/>
      </g>
     </g>
    </g>
    <g id="ytick_22">
     <g id="line2d_75">
      <g>
       <use style="stroke:#000000;stroke-width:0.5;" x="320.420454545" xlink:href="#mcb0005524f" y="302.139669421"/>
      </g>
     </g>
     <g id="text_71">
      <!-- 0.6 -->
      <g transform="translate(294.883579545 305.450919421)scale(0.12 -0.12)">
       <use xlink:href="#BitstreamVeraSans-Roman-30"/>
       <use x="63.623046875" xlink:href="#BitstreamVeraSans-Roman-2e"/>
       <use x="95.41015625" xlink:href="#BitstreamVeraSans-Roman-36"/>
      </g>
     </g>
    </g>
    <g id="ytick_23">
     <g id="line2d_76">
      <g>
       <use style="stroke:#000000;stroke-width:0.5;" x="320.420454545" xlink:href="#mcb0005524f" y="272.982644628"/>
      </g>
     </g>
     <g id="text_72">
      <!-- 0.8 -->
      <g transform="translate(294.949204545 276.293894628)scale(0.12 -0.12)">
       <use xlink:href="#BitstreamVeraSans-Roman-30"/>
       <use x="63.623046875" xlink:href="#BitstreamVeraSans-Roman-2e"/>
       <use x="95.41015625" xlink:href="#BitstreamVeraSans-Roman-38"/>
      </g>
     </g>
    </g>
    <g id="ytick_24">
     <g id="line2d_77">
      <g>
       <use style="stroke:#000000;stroke-width:0.5;" x="320.420454545" xlink:href="#mcb0005524f" y="243.825619835"/>
      </g>
     </g>
     <g id="text_73">
      <!-- 1.0 -->
      <g transform="translate(295.451704545 247.136869835)scale(0.12 -0.12)">
       <use xlink:href="#BitstreamVeraSans-Roman-31"/>
       <use x="63.623046875" xlink:href="#BitstreamVeraSans-Roman-2e"/>
       <use x="95.41015625" xlink:href="#BitstreamVeraSans-Roman-30"/>
      </g>
     </g>
    </g>
    <g id="text_74">
     <!-- Probability Best Choice -->
     <g transform="translate(287.305454545 385.534431818)rotate(-90.0)scale(0.12 -0.12)">
      <use xlink:href="#BitstreamVeraSans-Roman-50"/>
      <use x="58.552734375" xlink:href="#BitstreamVeraSans-Roman-72"/>
      <use x="97.416015625" xlink:href="#BitstreamVeraSans-Roman-6f"/>
      <use x="158.59765625" xlink:href="#BitstreamVeraSans-Roman-62"/>
      <use x="222.07421875" xlink:href="#BitstreamVeraSans-Roman-61"/>
      <use x="283.353515625" xlink:href="#BitstreamVeraSans-Roman-62"/>
      <use x="346.830078125" xlink:href="#BitstreamVeraSans-Roman-69"/>
      <use x="374.61328125" xlink:href="#BitstreamVeraSans-Roman-6c"/>
      <use x="402.396484375" xlink:href="#BitstreamVeraSans-Roman-69"/>
      <use x="430.1796875" xlink:href="#BitstreamVeraSans-Roman-74"/>
      <use x="469.388671875" xlink:href="#BitstreamVeraSans-Roman-79"/>
      <use x="528.568359375" xlink:href="#BitstreamVeraSans-Roman-20"/>
      <use x="560.35546875" xlink:href="#BitstreamVeraSans-Roman-42"/>
      <use x="628.958984375" xlink:href="#BitstreamVeraSans-Roman-65"/>
      <use x="690.482421875" xlink:href="#BitstreamVeraSans-Roman-73"/>
      <use x="742.58203125" xlink:href="#BitstreamVeraSans-Roman-74"/>
      <use x="781.791015625" xlink:href="#BitstreamVeraSans-Roman-20"/>
      <use x="813.578125" xlink:href="#BitstreamVeraSans-Roman-43"/>
      <use x="883.40234375" xlink:href="#BitstreamVeraSans-Roman-68"/>
      <use x="946.78125" xlink:href="#BitstreamVeraSans-Roman-6f"/>
      <use x="1007.96289062" xlink:href="#BitstreamVeraSans-Roman-69"/>
      <use x="1035.74609375" xlink:href="#BitstreamVeraSans-Roman-63"/>
      <use x="1090.7265625" xlink:href="#BitstreamVeraSans-Roman-65"/>
     </g>
    </g>
   </g>
   <g id="text_75">
    <!-- All Choices -->
    <g transform="translate(384.460977273 231.536363636)scale(0.144 -0.144)">
     <use xlink:href="#BitstreamVeraSans-Roman-41"/>
     <use x="68.408203125" xlink:href="#BitstreamVeraSans-Roman-6c"/>
     <use x="96.19140625" xlink:href="#BitstreamVeraSans-Roman-6c"/>
     <use x="123.974609375" xlink:href="#BitstreamVeraSans-Roman-20"/>
     <use x="155.76171875" xlink:href="#BitstreamVeraSans-Roman-43"/>
     <use x="225.5859375" xlink:href="#BitstreamVeraSans-Roman-68"/>
     <use x="288.96484375" xlink:href="#BitstreamVeraSans-Roman-6f"/>
     <use x="350.146484375" xlink:href="#BitstreamVeraSans-Roman-69"/>
     <use x="377.9296875" xlink:href="#BitstreamVeraSans-Roman-63"/>
     <use x="432.91015625" xlink:href="#BitstreamVeraSans-Roman-65"/>
     <use x="494.43359375" xlink:href="#BitstreamVeraSans-Roman-73"/>
    </g>
   </g>
   <g id="legend_4">
    <g id="patch_25">
     <path d="
M411.505 290.329
L519.3 290.329
L519.3 243.736
L411.505 243.736
z
" style="fill:#ffffff;stroke:#000000;stroke-linejoin:miter;"/>
    </g>
    <g id="line2d_78">
     <path d="
M421.585 255.398
L441.745 255.398" style="fill:none;stroke:#0000ff;stroke-linecap:square;"/>
    </g>
    <g id="line2d_79"/>
    <g id="text_76">
     <!-- Block A -->
     <g transform="translate(457.58475 260.438113636)scale(0.144 -0.144)">
      <use xlink:href="#BitstreamVeraSans-Roman-42"/>
      <use x="68.603515625" xlink:href="#BitstreamVeraSans-Roman-6c"/>
      <use x="96.38671875" xlink:href="#BitstreamVeraSans-Roman-6f"/>
      <use x="157.568359375" xlink:href="#BitstreamVeraSans-Roman-63"/>
      <use x="212.548828125" xlink:href="#BitstreamVeraSans-Roman-6b"/>
      <use x="270.458984375" xlink:href="#BitstreamVeraSans-Roman-20"/>
      <use x="302.24609375" xlink:href="#BitstreamVeraSans-Roman-41"/>
     </g>
    </g>
    <g id="line2d_80">
     <path d="
M421.585 276.535
L441.745 276.535" style="fill:none;stroke:#ff0000;stroke-linecap:square;"/>
    </g>
    <g id="line2d_81"/>
    <g id="text_77">
     <!-- Block A' -->
     <g transform="translate(457.58475 281.574613636)scale(0.144 -0.144)">
      <use xlink:href="#BitstreamVeraSans-Roman-42"/>
      <use x="68.603515625" xlink:href="#BitstreamVeraSans-Roman-6c"/>
      <use x="96.38671875" xlink:href="#BitstreamVeraSans-Roman-6f"/>
      <use x="157.568359375" xlink:href="#BitstreamVeraSans-Roman-63"/>
      <use x="212.548828125" xlink:href="#BitstreamVeraSans-Roman-6b"/>
      <use x="270.458984375" xlink:href="#BitstreamVeraSans-Roman-20"/>
      <use x="302.24609375" xlink:href="#BitstreamVeraSans-Roman-41"/>
      <use x="370.654296875" xlink:href="#BitstreamVeraSans-Roman-27"/>
     </g>
    </g>
   </g>
  </g>
 </g>
 <defs>
  <clipPath id="p7723b9bf4e">
   <rect height="160.363636364" width="206.079545455" x="320.420454545" y="236.536363636"/>
  </clipPath>
  <clipPath id="p82c402b4a7">
   <rect height="160.363636364" width="206.079545455" x="73.125" y="44.1"/>
  </clipPath>
  <clipPath id="p1b7b43d6de">
   <rect height="160.363636364" width="206.079545455" x="73.125" y="236.536363636"/>
  </clipPath>
  <clipPath id="pbe1cca2777">
   <rect height="160.363636364" width="206.079545455" x="320.420454545" y="44.1"/>
  </clipPath>
 </defs>
</svg>
