<?xml version="1.0" encoding="utf-8" standalone="no"?>
<!DOCTYPE svg PUBLIC "-//W3C//DTD SVG 1.1//EN"
  "http://www.w3.org/Graphics/SVG/1.1/DTD/svg11.dtd">
<!-- Created with matplotlib (http://matplotlib.org/) -->
<svg height="432pt" version="1.1" viewBox="0 0 576 432" width="576pt" xmlns="http://www.w3.org/2000/svg" xmlns:xlink="http://www.w3.org/1999/xlink">
 <defs>
  <style type="text/css">
*{stroke-linecap:butt;stroke-linejoin:round;}
  </style>
 </defs>
 <g id="figure_1">
  <g id="patch_1">
   <path d="
M0 432
L576 432
L576 0
L0 0
z
" style="fill:#ffffff;"/>
  </g>
  <g id="axes_1">
   <g id="patch_2">
    <path d="
M72 388.8
L518.4 388.8
L518.4 43.2
L72 43.2
z
" style="fill:#ffffff;"/>
   </g>
   <g id="LineCollection_1">
    <path clip-path="url(#p7ff5b81e1d)" d="
M89.856 326.279
L89.856 286.513" style="fill:none;stroke:#0000ff;"/>
    <path clip-path="url(#p7ff5b81e1d)" d="
M107.712 323.305
L107.712 283.521" style="fill:none;stroke:#0000ff;"/>
    <path clip-path="url(#p7ff5b81e1d)" d="
M125.568 333.185
L125.568 293.529" style="fill:none;stroke:#0000ff;"/>
    <path clip-path="url(#p7ff5b81e1d)" d="
M143.424 329.018
L143.424 263.71" style="fill:none;stroke:#0000ff;"/>
    <path clip-path="url(#p7ff5b81e1d)" d="
M161.28 340.477
L161.28 275.482" style="fill:none;stroke:#0000ff;"/>
    <path clip-path="url(#p7ff5b81e1d)" d="
M179.136 352.409
L179.136 315.957" style="fill:none;stroke:#0000ff;"/>
    <path clip-path="url(#p7ff5b81e1d)" d="
M196.992 321.24
L196.992 240.033" style="fill:none;stroke:#0000ff;"/>
    <path clip-path="url(#p7ff5b81e1d)" d="
M214.848 363.884
L214.848 321.556" style="fill:none;stroke:#0000ff;"/>
    <path clip-path="url(#p7ff5b81e1d)" d="
M232.704 368.196
L232.704 302.432" style="fill:none;stroke:#0000ff;"/>
    <path clip-path="url(#p7ff5b81e1d)" d="
M250.56 369.643
L250.56 286.997" style="fill:none;stroke:#0000ff;"/>
    <path clip-path="url(#p7ff5b81e1d)" d="
M268.416 325.62
L268.416 163.98" style="fill:none;stroke:#0000ff;"/>
    <path clip-path="url(#p7ff5b81e1d)" d="
M286.272 381.475
L286.272 198.639" style="fill:none;stroke:#0000ff;"/>
    <path clip-path="url(#p7ff5b81e1d)" style="fill:none;stroke:#0000ff;"/>
    <path clip-path="url(#p7ff5b81e1d)" style="fill:none;stroke:#0000ff;"/>
    <path clip-path="url(#p7ff5b81e1d)" style="fill:none;stroke:#0000ff;"/>
    <path clip-path="url(#p7ff5b81e1d)" style="fill:none;stroke:#0000ff;"/>
    <path clip-path="url(#p7ff5b81e1d)" d="
M375.552 388.8
L375.552 388.8" style="fill:none;stroke:#0000ff;"/>
    <path clip-path="url(#p7ff5b81e1d)" d="
M393.408 388.8
L393.408 388.8" style="fill:none;stroke:#0000ff;"/>
    <path clip-path="url(#p7ff5b81e1d)" d="
M411.264 388.8
L411.264 388.8" style="fill:none;stroke:#0000ff;"/>
    <path clip-path="url(#p7ff5b81e1d)" d="
M429.12 388.8
L429.12 388.8" style="fill:none;stroke:#0000ff;"/>
    <path clip-path="url(#p7ff5b81e1d)" style="fill:none;stroke:#0000ff;"/>
    <path clip-path="url(#p7ff5b81e1d)" style="fill:none;stroke:#0000ff;"/>
    <path clip-path="url(#p7ff5b81e1d)" style="fill:none;stroke:#0000ff;"/>
   </g>
   <g id="LineCollection_2">
    <path clip-path="url(#p7ff5b81e1d)" d="
M89.856 361.579
L89.856 338.139" style="fill:none;stroke:#008000;"/>
    <path clip-path="url(#p7ff5b81e1d)" d="
M107.712 353.186
L107.712 330.107" style="fill:none;stroke:#008000;"/>
    <path clip-path="url(#p7ff5b81e1d)" d="
M125.568 362.424
L125.568 341.655" style="fill:none;stroke:#008000;"/>
    <path clip-path="url(#p7ff5b81e1d)" d="
M143.424 344.193
L143.424 290.035" style="fill:none;stroke:#008000;"/>
    <path clip-path="url(#p7ff5b81e1d)" d="
M161.28 362.978
L161.28 331.912" style="fill:none;stroke:#008000;"/>
    <path clip-path="url(#p7ff5b81e1d)" d="
M179.136 376.542
L179.136 356.461" style="fill:none;stroke:#008000;"/>
    <path clip-path="url(#p7ff5b81e1d)" d="
M196.992 362.654
L196.992 319.494" style="fill:none;stroke:#008000;"/>
    <path clip-path="url(#p7ff5b81e1d)" d="
M214.848 372.469
L214.848 333.425" style="fill:none;stroke:#008000;"/>
    <path clip-path="url(#p7ff5b81e1d)" d="
M232.704 388.591
L232.704 378.375" style="fill:none;stroke:#008000;"/>
    <path clip-path="url(#p7ff5b81e1d)" d="
M250.56 382.656
L250.56 355.067" style="fill:none;stroke:#008000;"/>
    <path clip-path="url(#p7ff5b81e1d)" style="fill:none;stroke:#008000;"/>
    <path clip-path="url(#p7ff5b81e1d)" style="fill:none;stroke:#008000;"/>
    <path clip-path="url(#p7ff5b81e1d)" style="fill:none;stroke:#008000;"/>
    <path clip-path="url(#p7ff5b81e1d)" style="fill:none;stroke:#008000;"/>
    <path clip-path="url(#p7ff5b81e1d)" d="
M339.84 305.086
L339.84 57.7944" style="fill:none;stroke:#008000;"/>
    <path clip-path="url(#p7ff5b81e1d)" style="fill:none;stroke:#008000;"/>
    <path clip-path="url(#p7ff5b81e1d)" style="fill:none;stroke:#008000;"/>
    <path clip-path="url(#p7ff5b81e1d)" style="fill:none;stroke:#008000;"/>
    <path clip-path="url(#p7ff5b81e1d)" style="fill:none;stroke:#008000;"/>
    <path clip-path="url(#p7ff5b81e1d)" style="fill:none;stroke:#008000;"/>
    <path clip-path="url(#p7ff5b81e1d)" style="fill:none;stroke:#008000;"/>
    <path clip-path="url(#p7ff5b81e1d)" style="fill:none;stroke:#008000;"/>
    <path clip-path="url(#p7ff5b81e1d)" style="fill:none;stroke:#008000;"/>
   </g>
   <g id="line2d_1">
    <defs>
     <path d="
M3 1.83697e-16
L-3 -1.83697e-16" id="mdde457ef1d" style="stroke:#0000ff;stroke-width:0.5;"/>
    </defs>
    <g clip-path="url(#p7ff5b81e1d)">
     <use style="fill:#0000ff;stroke:#0000ff;stroke-width:0.5;" x="89.856" xlink:href="#mdde457ef1d" y="326.279324505"/>
     <use style="fill:#0000ff;stroke:#0000ff;stroke-width:0.5;" x="107.712" xlink:href="#mdde457ef1d" y="323.304913344"/>
     <use style="fill:#0000ff;stroke:#0000ff;stroke-width:0.5;" x="125.568" xlink:href="#mdde457ef1d" y="333.185492371"/>
     <use style="fill:#0000ff;stroke:#0000ff;stroke-width:0.5;" x="143.424" xlink:href="#mdde457ef1d" y="329.018055211"/>
     <use style="fill:#0000ff;stroke:#0000ff;stroke-width:0.5;" x="161.28" xlink:href="#mdde457ef1d" y="340.476733371"/>
     <use style="fill:#0000ff;stroke:#0000ff;stroke-width:0.5;" x="179.136" xlink:href="#mdde457ef1d" y="352.409153015"/>
     <use style="fill:#0000ff;stroke:#0000ff;stroke-width:0.5;" x="196.992" xlink:href="#mdde457ef1d" y="321.239908956"/>
     <use style="fill:#0000ff;stroke:#0000ff;stroke-width:0.5;" x="214.848" xlink:href="#mdde457ef1d" y="363.883591378"/>
     <use style="fill:#0000ff;stroke:#0000ff;stroke-width:0.5;" x="232.704" xlink:href="#mdde457ef1d" y="368.196412861"/>
     <use style="fill:#0000ff;stroke:#0000ff;stroke-width:0.5;" x="250.56" xlink:href="#mdde457ef1d" y="369.643233175"/>
     <use style="fill:#0000ff;stroke:#0000ff;stroke-width:0.5;" x="268.416" xlink:href="#mdde457ef1d" y="325.619799554"/>
     <use style="fill:#0000ff;stroke:#0000ff;stroke-width:0.5;" x="286.272" xlink:href="#mdde457ef1d" y="381.475264709"/>
     <use style="fill:#0000ff;stroke:#0000ff;stroke-width:0.5;" x="375.552" xlink:href="#mdde457ef1d" y="388.8"/>
     <use style="fill:#0000ff;stroke:#0000ff;stroke-width:0.5;" x="393.408" xlink:href="#mdde457ef1d" y="388.8"/>
     <use style="fill:#0000ff;stroke:#0000ff;stroke-width:0.5;" x="411.264" xlink:href="#mdde457ef1d" y="388.8"/>
     <use style="fill:#0000ff;stroke:#0000ff;stroke-width:0.5;" x="429.12" xlink:href="#mdde457ef1d" y="388.8"/>
    </g>
   </g>
   <g id="line2d_2">
    <g clip-path="url(#p7ff5b81e1d)">
     <use style="fill:#0000ff;stroke:#0000ff;stroke-width:0.5;" x="89.856" xlink:href="#mdde457ef1d" y="286.512566032"/>
     <use style="fill:#0000ff;stroke:#0000ff;stroke-width:0.5;" x="107.712" xlink:href="#mdde457ef1d" y="283.52138126"/>
     <use style="fill:#0000ff;stroke:#0000ff;stroke-width:0.5;" x="125.568" xlink:href="#mdde457ef1d" y="293.528817119"/>
     <use style="fill:#0000ff;stroke:#0000ff;stroke-width:0.5;" x="143.424" xlink:href="#mdde457ef1d" y="263.709755255"/>
     <use style="fill:#0000ff;stroke:#0000ff;stroke-width:0.5;" x="161.28" xlink:href="#mdde457ef1d" y="275.482123771"/>
     <use style="fill:#0000ff;stroke:#0000ff;stroke-width:0.5;" x="179.136" xlink:href="#mdde457ef1d" y="315.956561271"/>
     <use style="fill:#0000ff;stroke:#0000ff;stroke-width:0.5;" x="196.992" xlink:href="#mdde457ef1d" y="240.032818316"/>
     <use style="fill:#0000ff;stroke:#0000ff;stroke-width:0.5;" x="214.848" xlink:href="#mdde457ef1d" y="321.556408622"/>
     <use style="fill:#0000ff;stroke:#0000ff;stroke-width:0.5;" x="232.704" xlink:href="#mdde457ef1d" y="302.432158567"/>
     <use style="fill:#0000ff;stroke:#0000ff;stroke-width:0.5;" x="250.56" xlink:href="#mdde457ef1d" y="286.996766825"/>
     <use style="fill:#0000ff;stroke:#0000ff;stroke-width:0.5;" x="268.416" xlink:href="#mdde457ef1d" y="163.980200446"/>
     <use style="fill:#0000ff;stroke:#0000ff;stroke-width:0.5;" x="286.272" xlink:href="#mdde457ef1d" y="198.639021005"/>
     <use style="fill:#0000ff;stroke:#0000ff;stroke-width:0.5;" x="375.552" xlink:href="#mdde457ef1d" y="388.8"/>
     <use style="fill:#0000ff;stroke:#0000ff;stroke-width:0.5;" x="393.408" xlink:href="#mdde457ef1d" y="388.8"/>
     <use style="fill:#0000ff;stroke:#0000ff;stroke-width:0.5;" x="411.264" xlink:href="#mdde457ef1d" y="388.8"/>
     <use style="fill:#0000ff;stroke:#0000ff;stroke-width:0.5;" x="429.12" xlink:href="#mdde457ef1d" y="388.8"/>
    </g>
   </g>
   <g id="line2d_3">
    <path clip-path="url(#p7ff5b81e1d)" d="
M89.856 306.396
L107.712 303.413
L125.568 313.357
L143.424 296.364
L161.28 307.979
L179.136 334.183
L196.992 280.636
L214.848 342.72
L232.704 335.314
L250.56 328.32
L268.416 244.8
L286.272 290.057
M375.552 388.8
L393.408 388.8
L411.264 388.8
L429.12 388.8" style="fill:none;stroke:#0000ff;stroke-linecap:square;"/>
   </g>
   <g id="line2d_4">
    <defs>
     <path d="
M3 1.83697e-16
L-3 -1.83697e-16" id="m1ef3793437" style="stroke:#008000;stroke-width:0.5;"/>
    </defs>
    <g clip-path="url(#p7ff5b81e1d)">
     <use style="fill:#008000;stroke:#008000;stroke-width:0.5;" x="89.856" xlink:href="#m1ef3793437" y="361.578552117"/>
     <use style="fill:#008000;stroke:#008000;stroke-width:0.5;" x="107.712" xlink:href="#m1ef3793437" y="353.186280896"/>
     <use style="fill:#008000;stroke:#008000;stroke-width:0.5;" x="125.568" xlink:href="#m1ef3793437" y="362.424072231"/>
     <use style="fill:#008000;stroke:#008000;stroke-width:0.5;" x="143.424" xlink:href="#m1ef3793437" y="344.193031359"/>
     <use style="fill:#008000;stroke:#008000;stroke-width:0.5;" x="161.28" xlink:href="#m1ef3793437" y="362.978079429"/>
     <use style="fill:#008000;stroke:#008000;stroke-width:0.5;" x="179.136" xlink:href="#m1ef3793437" y="376.54198644"/>
     <use style="fill:#008000;stroke:#008000;stroke-width:0.5;" x="196.992" xlink:href="#m1ef3793437" y="362.654424855"/>
     <use style="fill:#008000;stroke:#008000;stroke-width:0.5;" x="214.848" xlink:href="#m1ef3793437" y="372.469030376"/>
     <use style="fill:#008000;stroke:#008000;stroke-width:0.5;" x="232.704" xlink:href="#m1ef3793437" y="388.59141138"/>
     <use style="fill:#008000;stroke:#008000;stroke-width:0.5;" x="250.56" xlink:href="#m1ef3793437" y="382.655618053"/>
     <use style="fill:#008000;stroke:#008000;stroke-width:0.5;" x="339.84" xlink:href="#m1ef3793437" y="305.085614884"/>
    </g>
   </g>
   <g id="line2d_5">
    <g clip-path="url(#p7ff5b81e1d)">
     <use style="fill:#008000;stroke:#008000;stroke-width:0.5;" x="89.856" xlink:href="#m1ef3793437" y="338.139295905"/>
     <use style="fill:#008000;stroke:#008000;stroke-width:0.5;" x="107.712" xlink:href="#m1ef3793437" y="330.107410251"/>
     <use style="fill:#008000;stroke:#008000;stroke-width:0.5;" x="125.568" xlink:href="#m1ef3793437" y="341.655075473"/>
     <use style="fill:#008000;stroke:#008000;stroke-width:0.5;" x="143.424" xlink:href="#m1ef3793437" y="290.03537071"/>
     <use style="fill:#008000;stroke:#008000;stroke-width:0.5;" x="161.28" xlink:href="#m1ef3793437" y="331.912328639"/>
     <use style="fill:#008000;stroke:#008000;stroke-width:0.5;" x="179.136" xlink:href="#m1ef3793437" y="356.460818755"/>
     <use style="fill:#008000;stroke:#008000;stroke-width:0.5;" x="196.992" xlink:href="#m1ef3793437" y="319.494146574"/>
     <use style="fill:#008000;stroke:#008000;stroke-width:0.5;" x="214.848" xlink:href="#m1ef3793437" y="333.424847175"/>
     <use style="fill:#008000;stroke:#008000;stroke-width:0.5;" x="232.704" xlink:href="#m1ef3793437" y="378.374742466"/>
     <use style="fill:#008000;stroke:#008000;stroke-width:0.5;" x="250.56" xlink:href="#m1ef3793437" y="355.06745887"/>
     <use style="fill:#008000;stroke:#008000;stroke-width:0.5;" x="339.84" xlink:href="#m1ef3793437" y="57.7943851162"/>
    </g>
   </g>
   <g id="line2d_6">
    <path clip-path="url(#p7ff5b81e1d)" d="
M89.856 349.859
L107.712 341.647
L125.568 352.04
L143.424 317.114
L161.28 347.445
L179.136 366.501
L196.992 341.074
L214.848 352.947
L232.704 383.483
L250.56 368.862
M339.84 181.44" style="fill:none;stroke:#008000;stroke-linecap:square;"/>
   </g>
   <g id="line2d_7">
    <path clip-path="url(#p7ff5b81e1d)" d="
M89.856 306.896
L107.712 306.896
L125.568 306.896
L143.424 306.896
L161.28 306.896
L179.136 306.896
L196.992 306.896
L214.848 306.896
L232.704 306.896
L250.56 306.896
L268.416 306.896
L286.272 306.896
L304.128 306.896
L321.984 306.896
L339.84 306.896
L357.696 306.896
L375.552 306.896
L393.408 306.896
L411.264 306.896
L429.12 306.896
L446.976 306.896
L464.832 306.896
L482.688 306.896" style="fill:none;stroke:#0000ff;stroke-linecap:square;"/>
   </g>
   <g id="line2d_8">
    <path clip-path="url(#p7ff5b81e1d)" d="
M89.856 341.918
L107.712 341.918
L125.568 341.918
L143.424 341.918
L161.28 341.918
L179.136 341.918
L196.992 341.918
L214.848 341.918
L232.704 341.918
L250.56 341.918
L268.416 341.918
L286.272 341.918
L304.128 341.918
L321.984 341.918
L339.84 341.918
L357.696 341.918
L375.552 341.918
L393.408 341.918
L411.264 341.918
L429.12 341.918
L446.976 341.918
L464.832 341.918
L482.688 341.918" style="fill:none;stroke:#008000;stroke-linecap:square;"/>
   </g>
   <g id="line2d_9">
    <path clip-path="url(#p7ff5b81e1d)" d="
M89.856 255.497
L107.712 255.497
L125.568 255.497
L143.424 255.497
L161.28 255.497
L179.136 255.497
L196.992 255.497
L214.848 255.497
L232.704 255.497
L250.56 255.497
L268.416 255.497
L286.272 255.497
L304.128 255.497
L321.984 255.497
L339.84 255.497
L357.696 255.497
L375.552 255.497
L393.408 255.497
L411.264 255.497
L429.12 255.497
L446.976 255.497
L464.832 255.497
L482.688 255.497" style="fill:none;stroke:#bf00bf;stroke-linecap:square;"/>
   </g>
   <g id="line2d_10">
    <path clip-path="url(#p7ff5b81e1d)" d="
M89.856 306.103
L107.712 306.103
L125.568 306.103
L143.424 306.103
L161.28 306.103
L179.136 306.103
L196.992 306.103
L214.848 306.103
L232.704 306.103
L250.56 306.103
L268.416 306.103
L286.272 306.103
L304.128 306.103
L321.984 306.103
L339.84 306.103
L357.696 306.103
L375.552 306.103
L393.408 306.103
L411.264 306.103
L429.12 306.103
L446.976 306.103
L464.832 306.103
L482.688 306.103" style="fill:none;stroke:#00bfbf;stroke-linecap:square;"/>
   </g>
   <g id="line2d_11">
    <path clip-path="url(#p7ff5b81e1d)" d="
M89.856 316.859
L107.712 316.859
L125.568 316.859
L143.424 316.859
L161.28 316.859
L179.136 316.859
L196.992 316.859
L214.848 316.859
L232.704 316.859
L250.56 316.859
L268.416 316.859
L286.272 316.859
L304.128 316.859
L321.984 316.859
L339.84 316.859
L357.696 316.859
L375.552 316.859
L393.408 316.859
L411.264 316.859
L429.12 316.859
L446.976 316.859
L464.832 316.859
L482.688 316.859" style="fill:none;stroke:#000000;stroke-linecap:square;"/>
   </g>
   <g id="line2d_12">
    <path clip-path="url(#p7ff5b81e1d)" d="
M89.856 317.705
L107.712 317.705
L125.568 317.705
L143.424 317.705
L161.28 317.705
L179.136 317.705
L196.992 317.705
L214.848 317.705
L232.704 317.705
L250.56 317.705
L268.416 317.705
L286.272 317.705
L304.128 317.705
L321.984 317.705
L339.84 317.705
L357.696 317.705
L375.552 317.705
L393.408 317.705
L411.264 317.705
L429.12 317.705
L446.976 317.705
L464.832 317.705
L482.688 317.705" style="fill:none;stroke:#bfbf00;stroke-linecap:square;"/>
   </g>
   <g id="line2d_13">
    <path clip-path="url(#p7ff5b81e1d)" d="
M89.856 349.303
L107.712 349.303
L125.568 349.303
L143.424 349.303
L161.28 349.303
L179.136 349.303
L196.992 349.303
L214.848 349.303
L232.704 349.303
L250.56 349.303
L268.416 349.303
L286.272 349.303
L304.128 349.303
L321.984 349.303
L339.84 349.303
L357.696 349.303
L375.552 349.303
L393.408 349.303
L411.264 349.303
L429.12 349.303
L446.976 349.303
L464.832 349.303
L482.688 349.303" style="fill:none;stroke:#ff0000;stroke-linecap:square;"/>
   </g>
   <g id="patch_3">
    <path d="
M72 43.2
L518.4 43.2" style="fill:none;stroke:#000000;stroke-linecap:square;stroke-linejoin:miter;"/>
   </g>
   <g id="patch_4">
    <path d="
M518.4 388.8
L518.4 43.2" style="fill:none;stroke:#000000;stroke-linecap:square;stroke-linejoin:miter;"/>
   </g>
   <g id="patch_5">
    <path d="
M72 388.8
L518.4 388.8" style="fill:none;stroke:#000000;stroke-linecap:square;stroke-linejoin:miter;"/>
   </g>
   <g id="patch_6">
    <path d="
M72 388.8
L72 43.2" style="fill:none;stroke:#000000;stroke-linecap:square;stroke-linejoin:miter;"/>
   </g>
   <g id="matplotlib.axis_1">
    <g id="xtick_1">
     <g id="line2d_14">
      <defs>
       <path d="
M0 0
L0 -4" id="m93b0483c22" style="stroke:#000000;stroke-width:0.5;"/>
      </defs>
      <g>
       <use style="stroke:#000000;stroke-width:0.5;" x="72.0" xlink:href="#m93b0483c22" y="388.8"/>
      </g>
     </g>
     <g id="line2d_15">
      <defs>
       <path d="
M0 0
L0 4" id="m741efc42ff" style="stroke:#000000;stroke-width:0.5;"/>
      </defs>
      <g>
       <use style="stroke:#000000;stroke-width:0.5;" x="72.0" xlink:href="#m741efc42ff" y="43.2"/>
      </g>
     </g>
     <g id="text_1">
      <!-- 0 -->
      <defs>
       <path d="
M31.7812 66.4062
Q24.1719 66.4062 20.3281 58.9062
Q16.5 51.4219 16.5 36.375
Q16.5 21.3906 20.3281 13.8906
Q24.1719 6.39062 31.7812 6.39062
Q39.4531 6.39062 43.2812 13.8906
Q47.125 21.3906 47.125 36.375
Q47.125 51.4219 43.2812 58.9062
Q39.4531 66.4062 31.7812 66.4062
M31.7812 74.2188
Q44.0469 74.2188 50.5156 64.5156
Q56.9844 54.8281 56.9844 36.375
Q56.9844 17.9688 50.5156 8.26562
Q44.0469 -1.42188 31.7812 -1.42188
Q19.5312 -1.42188 13.0625 8.26562
Q6.59375 17.9688 6.59375 36.375
Q6.59375 54.8281 13.0625 64.5156
Q19.5312 74.2188 31.7812 74.2188" id="BitstreamVeraSans-Roman-30"/>
      </defs>
      <g transform="translate(68.9765625 401.918125)scale(0.12 -0.12)">
       <use xlink:href="#BitstreamVeraSans-Roman-30"/>
      </g>
     </g>
    </g>
    <g id="xtick_2">
     <g id="line2d_16">
      <g>
       <use style="stroke:#000000;stroke-width:0.5;" x="161.28" xlink:href="#m93b0483c22" y="388.8"/>
      </g>
     </g>
     <g id="line2d_17">
      <g>
       <use style="stroke:#000000;stroke-width:0.5;" x="161.28" xlink:href="#m741efc42ff" y="43.2"/>
      </g>
     </g>
     <g id="text_2">
      <!-- 5 -->
      <defs>
       <path d="
M10.7969 72.9062
L49.5156 72.9062
L49.5156 64.5938
L19.8281 64.5938
L19.8281 46.7344
Q21.9688 47.4688 24.1094 47.8281
Q26.2656 48.1875 28.4219 48.1875
Q40.625 48.1875 47.75 41.5
Q54.8906 34.8125 54.8906 23.3906
Q54.8906 11.625 47.5625 5.09375
Q40.2344 -1.42188 26.9062 -1.42188
Q22.3125 -1.42188 17.5469 -0.640625
Q12.7969 0.140625 7.71875 1.70312
L7.71875 11.625
Q12.1094 9.23438 16.7969 8.0625
Q21.4844 6.89062 26.7031 6.89062
Q35.1562 6.89062 40.0781 11.3281
Q45.0156 15.7656 45.0156 23.3906
Q45.0156 31 40.0781 35.4375
Q35.1562 39.8906 26.7031 39.8906
Q22.75 39.8906 18.8125 39.0156
Q14.8906 38.1406 10.7969 36.2812
z
" id="BitstreamVeraSans-Roman-35"/>
      </defs>
      <g transform="translate(158.4496875 401.918125)scale(0.12 -0.12)">
       <use xlink:href="#BitstreamVeraSans-Roman-35"/>
      </g>
     </g>
    </g>
    <g id="xtick_3">
     <g id="line2d_18">
      <g>
       <use style="stroke:#000000;stroke-width:0.5;" x="250.56" xlink:href="#m93b0483c22" y="388.8"/>
      </g>
     </g>
     <g id="line2d_19">
      <g>
       <use style="stroke:#000000;stroke-width:0.5;" x="250.56" xlink:href="#m741efc42ff" y="43.2"/>
      </g>
     </g>
     <g id="text_3">
      <!-- 10 -->
      <defs>
       <path d="
M12.4062 8.29688
L28.5156 8.29688
L28.5156 63.9219
L10.9844 60.4062
L10.9844 69.3906
L28.4219 72.9062
L38.2812 72.9062
L38.2812 8.29688
L54.3906 8.29688
L54.3906 0
L12.4062 0
z
" id="BitstreamVeraSans-Roman-31"/>
      </defs>
      <g transform="translate(243.9825 401.918125)scale(0.12 -0.12)">
       <use xlink:href="#BitstreamVeraSans-Roman-31"/>
       <use x="63.623046875" xlink:href="#BitstreamVeraSans-Roman-30"/>
      </g>
     </g>
    </g>
    <g id="xtick_4">
     <g id="line2d_20">
      <g>
       <use style="stroke:#000000;stroke-width:0.5;" x="339.84" xlink:href="#m93b0483c22" y="388.8"/>
      </g>
     </g>
     <g id="line2d_21">
      <g>
       <use style="stroke:#000000;stroke-width:0.5;" x="339.84" xlink:href="#m741efc42ff" y="43.2"/>
      </g>
     </g>
     <g id="text_4">
      <!-- 15 -->
      <g transform="translate(333.388125 401.918125)scale(0.12 -0.12)">
       <use xlink:href="#BitstreamVeraSans-Roman-31"/>
       <use x="63.623046875" xlink:href="#BitstreamVeraSans-Roman-35"/>
      </g>
     </g>
    </g>
    <g id="xtick_5">
     <g id="line2d_22">
      <g>
       <use style="stroke:#000000;stroke-width:0.5;" x="429.12" xlink:href="#m93b0483c22" y="388.8"/>
      </g>
     </g>
     <g id="line2d_23">
      <g>
       <use style="stroke:#000000;stroke-width:0.5;" x="429.12" xlink:href="#m741efc42ff" y="43.2"/>
      </g>
     </g>
     <g id="text_5">
      <!-- 20 -->
      <defs>
       <path d="
M19.1875 8.29688
L53.6094 8.29688
L53.6094 0
L7.32812 0
L7.32812 8.29688
Q12.9375 14.1094 22.625 23.8906
Q32.3281 33.6875 34.8125 36.5312
Q39.5469 41.8438 41.4219 45.5312
Q43.3125 49.2188 43.3125 52.7812
Q43.3125 58.5938 39.2344 62.25
Q35.1562 65.9219 28.6094 65.9219
Q23.9688 65.9219 18.8125 64.3125
Q13.6719 62.7031 7.8125 59.4219
L7.8125 69.3906
Q13.7656 71.7812 18.9375 73
Q24.125 74.2188 28.4219 74.2188
Q39.75 74.2188 46.4844 68.5469
Q53.2188 62.8906 53.2188 53.4219
Q53.2188 48.9219 51.5312 44.8906
Q49.8594 40.875 45.4062 35.4062
Q44.1875 33.9844 37.6406 27.2188
Q31.1094 20.4531 19.1875 8.29688" id="BitstreamVeraSans-Roman-32"/>
      </defs>
      <g transform="translate(422.323125 401.918125)scale(0.12 -0.12)">
       <use xlink:href="#BitstreamVeraSans-Roman-32"/>
       <use x="63.623046875" xlink:href="#BitstreamVeraSans-Roman-30"/>
      </g>
     </g>
    </g>
    <g id="xtick_6">
     <g id="line2d_24">
      <g>
       <use style="stroke:#000000;stroke-width:0.5;" x="518.4" xlink:href="#m93b0483c22" y="388.8"/>
      </g>
     </g>
     <g id="line2d_25">
      <g>
       <use style="stroke:#000000;stroke-width:0.5;" x="518.4" xlink:href="#m741efc42ff" y="43.2"/>
      </g>
     </g>
     <g id="text_6">
      <!-- 25 -->
      <g transform="translate(511.72875 401.918125)scale(0.12 -0.12)">
       <use xlink:href="#BitstreamVeraSans-Roman-32"/>
       <use x="63.623046875" xlink:href="#BitstreamVeraSans-Roman-35"/>
      </g>
     </g>
    </g>
    <g id="text_7">
     <!-- Trials post-IC trial with stimulation -->
     <defs>
      <path id="BitstreamVeraSans-Roman-20"/>
      <path d="
M9.8125 72.9062
L19.6719 72.9062
L19.6719 0
L9.8125 0
z
" id="BitstreamVeraSans-Roman-49"/>
      <path d="
M64.4062 67.2812
L64.4062 56.8906
Q59.4219 61.5312 53.7812 63.8125
Q48.1406 66.1094 41.7969 66.1094
Q29.2969 66.1094 22.6562 58.4688
Q16.0156 50.8281 16.0156 36.375
Q16.0156 21.9688 22.6562 14.3281
Q29.2969 6.6875 41.7969 6.6875
Q48.1406 6.6875 53.7812 8.98438
Q59.4219 11.2812 64.4062 15.9219
L64.4062 5.60938
Q59.2344 2.09375 53.4375 0.328125
Q47.6562 -1.42188 41.2188 -1.42188
Q24.6562 -1.42188 15.125 8.70312
Q5.60938 18.8438 5.60938 36.375
Q5.60938 53.9531 15.125 64.0781
Q24.6562 74.2188 41.2188 74.2188
Q47.75 74.2188 53.5312 72.4844
Q59.3281 70.75 64.4062 67.2812" id="BitstreamVeraSans-Roman-43"/>
      <path d="
M52 44.1875
Q55.375 50.25 60.0625 53.125
Q64.75 56 71.0938 56
Q79.6406 56 84.2812 50.0156
Q88.9219 44.0469 88.9219 33.0156
L88.9219 0
L79.8906 0
L79.8906 32.7188
Q79.8906 40.5781 77.0938 44.375
Q74.3125 48.1875 68.6094 48.1875
Q61.625 48.1875 57.5625 43.5469
Q53.5156 38.9219 53.5156 30.9062
L53.5156 0
L44.4844 0
L44.4844 32.7188
Q44.4844 40.625 41.7031 44.4062
Q38.9219 48.1875 33.1094 48.1875
Q26.2188 48.1875 22.1562 43.5312
Q18.1094 38.875 18.1094 30.9062
L18.1094 0
L9.07812 0
L9.07812 54.6875
L18.1094 54.6875
L18.1094 46.1875
Q21.1875 51.2188 25.4844 53.6094
Q29.7812 56 35.6875 56
Q41.6562 56 45.8281 52.9688
Q50 49.9531 52 44.1875" id="BitstreamVeraSans-Roman-6d"/>
      <path d="
M54.8906 33.0156
L54.8906 0
L45.9062 0
L45.9062 32.7188
Q45.9062 40.4844 42.875 44.3281
Q39.8438 48.1875 33.7969 48.1875
Q26.5156 48.1875 22.3125 43.5469
Q18.1094 38.9219 18.1094 30.9062
L18.1094 0
L9.07812 0
L9.07812 54.6875
L18.1094 54.6875
L18.1094 46.1875
Q21.3438 51.125 25.7031 53.5625
Q30.0781 56 35.7969 56
Q45.2188 56 50.0469 50.1719
Q54.8906 44.3438 54.8906 33.0156" id="BitstreamVeraSans-Roman-6e"/>
      <path d="
M34.2812 27.4844
Q23.3906 27.4844 19.1875 25
Q14.9844 22.5156 14.9844 16.5
Q14.9844 11.7188 18.1406 8.90625
Q21.2969 6.10938 26.7031 6.10938
Q34.1875 6.10938 38.7031 11.4062
Q43.2188 16.7031 43.2188 25.4844
L43.2188 27.4844
z

M52.2031 31.2031
L52.2031 0
L43.2188 0
L43.2188 8.29688
Q40.1406 3.32812 35.5469 0.953125
Q30.9531 -1.42188 24.3125 -1.42188
Q15.9219 -1.42188 10.9531 3.29688
Q6 8.01562 6 15.9219
Q6 25.1406 12.1719 29.8281
Q18.3594 34.5156 30.6094 34.5156
L43.2188 34.5156
L43.2188 35.4062
Q43.2188 41.6094 39.1406 45
Q35.0625 48.3906 27.6875 48.3906
Q23 48.3906 18.5469 47.2656
Q14.1094 46.1406 10.0156 43.8906
L10.0156 52.2031
Q14.9375 54.1094 19.5781 55.0469
Q24.2188 56 28.6094 56
Q40.4844 56 46.3438 49.8438
Q52.2031 43.7031 52.2031 31.2031" id="BitstreamVeraSans-Roman-61"/>
      <path d="
M30.6094 48.3906
Q23.3906 48.3906 19.1875 42.75
Q14.9844 37.1094 14.9844 27.2969
Q14.9844 17.4844 19.1562 11.8438
Q23.3438 6.20312 30.6094 6.20312
Q37.7969 6.20312 41.9844 11.8594
Q46.1875 17.5312 46.1875 27.2969
Q46.1875 37.0156 41.9844 42.7031
Q37.7969 48.3906 30.6094 48.3906
M30.6094 56
Q42.3281 56 49.0156 48.375
Q55.7188 40.7656 55.7188 27.2969
Q55.7188 13.875 49.0156 6.21875
Q42.3281 -1.42188 30.6094 -1.42188
Q18.8438 -1.42188 12.1719 6.21875
Q5.51562 13.875 5.51562 27.2969
Q5.51562 40.7656 12.1719 48.375
Q18.8438 56 30.6094 56" id="BitstreamVeraSans-Roman-6f"/>
      <path d="
M9.42188 75.9844
L18.4062 75.9844
L18.4062 0
L9.42188 0
z
" id="BitstreamVeraSans-Roman-6c"/>
      <path d="
M9.42188 54.6875
L18.4062 54.6875
L18.4062 0
L9.42188 0
z

M9.42188 75.9844
L18.4062 75.9844
L18.4062 64.5938
L9.42188 64.5938
z
" id="BitstreamVeraSans-Roman-69"/>
      <path d="
M4.89062 31.3906
L31.2031 31.3906
L31.2031 23.3906
L4.89062 23.3906
z
" id="BitstreamVeraSans-Roman-2d"/>
      <path d="
M4.20312 54.6875
L13.1875 54.6875
L24.4219 12.0156
L35.5938 54.6875
L46.1875 54.6875
L57.4219 12.0156
L68.6094 54.6875
L77.5938 54.6875
L63.2812 0
L52.6875 0
L40.9219 44.8281
L29.1094 0
L18.5 0
z
" id="BitstreamVeraSans-Roman-77"/>
      <path d="
M-0.296875 72.9062
L61.375 72.9062
L61.375 64.5938
L35.5 64.5938
L35.5 0
L25.5938 0
L25.5938 64.5938
L-0.296875 64.5938
z
" id="BitstreamVeraSans-Roman-54"/>
      <path d="
M18.3125 70.2188
L18.3125 54.6875
L36.8125 54.6875
L36.8125 47.7031
L18.3125 47.7031
L18.3125 18.0156
Q18.3125 11.3281 20.1406 9.42188
Q21.9688 7.51562 27.5938 7.51562
L36.8125 7.51562
L36.8125 0
L27.5938 0
Q17.1875 0 13.2344 3.875
Q9.28125 7.76562 9.28125 18.0156
L9.28125 47.7031
L2.6875 47.7031
L2.6875 54.6875
L9.28125 54.6875
L9.28125 70.2188
z
" id="BitstreamVeraSans-Roman-74"/>
      <path d="
M8.5 21.5781
L8.5 54.6875
L17.4844 54.6875
L17.4844 21.9219
Q17.4844 14.1562 20.5 10.2656
Q23.5312 6.39062 29.5938 6.39062
Q36.8594 6.39062 41.0781 11.0312
Q45.3125 15.6719 45.3125 23.6875
L45.3125 54.6875
L54.2969 54.6875
L54.2969 0
L45.3125 0
L45.3125 8.40625
Q42.0469 3.42188 37.7188 1
Q33.4062 -1.42188 27.6875 -1.42188
Q18.2656 -1.42188 13.375 4.4375
Q8.5 10.2969 8.5 21.5781" id="BitstreamVeraSans-Roman-75"/>
      <path d="
M41.1094 46.2969
Q39.5938 47.1719 37.8125 47.5781
Q36.0312 48 33.8906 48
Q26.2656 48 22.1875 43.0469
Q18.1094 38.0938 18.1094 28.8125
L18.1094 0
L9.07812 0
L9.07812 54.6875
L18.1094 54.6875
L18.1094 46.1875
Q20.9531 51.1719 25.4844 53.5781
Q30.0312 56 36.5312 56
Q37.4531 56 38.5781 55.875
Q39.7031 55.7656 41.0625 55.5156
z
" id="BitstreamVeraSans-Roman-72"/>
      <path d="
M44.2812 53.0781
L44.2812 44.5781
Q40.4844 46.5312 36.375 47.5
Q32.2812 48.4844 27.875 48.4844
Q21.1875 48.4844 17.8438 46.4375
Q14.5 44.3906 14.5 40.2812
Q14.5 37.1562 16.8906 35.375
Q19.2812 33.5938 26.5156 31.9844
L29.5938 31.2969
Q39.1562 29.25 43.1875 25.5156
Q47.2188 21.7812 47.2188 15.0938
Q47.2188 7.46875 41.1875 3.01562
Q35.1562 -1.42188 24.6094 -1.42188
Q20.2188 -1.42188 15.4531 -0.5625
Q10.6875 0.296875 5.42188 2
L5.42188 11.2812
Q10.4062 8.6875 15.2344 7.39062
Q20.0625 6.10938 24.8125 6.10938
Q31.1562 6.10938 34.5625 8.28125
Q37.9844 10.4531 37.9844 14.4062
Q37.9844 18.0625 35.5156 20.0156
Q33.0625 21.9688 24.7031 23.7812
L21.5781 24.5156
Q13.2344 26.2656 9.51562 29.9062
Q5.8125 33.5469 5.8125 39.8906
Q5.8125 47.6094 11.2812 51.7969
Q16.75 56 26.8125 56
Q31.7812 56 36.1719 55.2656
Q40.5781 54.5469 44.2812 53.0781" id="BitstreamVeraSans-Roman-73"/>
      <path d="
M18.1094 8.20312
L18.1094 -20.7969
L9.07812 -20.7969
L9.07812 54.6875
L18.1094 54.6875
L18.1094 46.3906
Q20.9531 51.2656 25.2656 53.625
Q29.5938 56 35.5938 56
Q45.5625 56 51.7812 48.0938
Q58.0156 40.1875 58.0156 27.2969
Q58.0156 14.4062 51.7812 6.48438
Q45.5625 -1.42188 35.5938 -1.42188
Q29.5938 -1.42188 25.2656 0.953125
Q20.9531 3.32812 18.1094 8.20312
M48.6875 27.2969
Q48.6875 37.2031 44.6094 42.8438
Q40.5312 48.4844 33.4062 48.4844
Q26.2656 48.4844 22.1875 42.8438
Q18.1094 37.2031 18.1094 27.2969
Q18.1094 17.3906 22.1875 11.75
Q26.2656 6.10938 33.4062 6.10938
Q40.5312 6.10938 44.6094 11.75
Q48.6875 17.3906 48.6875 27.2969" id="BitstreamVeraSans-Roman-70"/>
      <path d="
M54.8906 33.0156
L54.8906 0
L45.9062 0
L45.9062 32.7188
Q45.9062 40.4844 42.875 44.3281
Q39.8438 48.1875 33.7969 48.1875
Q26.5156 48.1875 22.3125 43.5469
Q18.1094 38.9219 18.1094 30.9062
L18.1094 0
L9.07812 0
L9.07812 75.9844
L18.1094 75.9844
L18.1094 46.1875
Q21.3438 51.125 25.7031 53.5625
Q30.0781 56 35.7969 56
Q45.2188 56 50.0469 50.1719
Q54.8906 44.3438 54.8906 33.0156" id="BitstreamVeraSans-Roman-68"/>
     </defs>
     <g transform="translate(193.4128125 418.531875)scale(0.12 -0.12)">
      <use xlink:href="#BitstreamVeraSans-Roman-54"/>
      <use x="46.333984375" xlink:href="#BitstreamVeraSans-Roman-72"/>
      <use x="87.447265625" xlink:href="#BitstreamVeraSans-Roman-69"/>
      <use x="115.23046875" xlink:href="#BitstreamVeraSans-Roman-61"/>
      <use x="176.509765625" xlink:href="#BitstreamVeraSans-Roman-6c"/>
      <use x="204.29296875" xlink:href="#BitstreamVeraSans-Roman-73"/>
      <use x="256.392578125" xlink:href="#BitstreamVeraSans-Roman-20"/>
      <use x="288.1796875" xlink:href="#BitstreamVeraSans-Roman-70"/>
      <use x="351.65625" xlink:href="#BitstreamVeraSans-Roman-6f"/>
      <use x="412.837890625" xlink:href="#BitstreamVeraSans-Roman-73"/>
      <use x="464.9375" xlink:href="#BitstreamVeraSans-Roman-74"/>
      <use x="504.146484375" xlink:href="#BitstreamVeraSans-Roman-2d"/>
      <use x="540.23046875" xlink:href="#BitstreamVeraSans-Roman-49"/>
      <use x="569.72265625" xlink:href="#BitstreamVeraSans-Roman-43"/>
      <use x="639.546875" xlink:href="#BitstreamVeraSans-Roman-20"/>
      <use x="671.333984375" xlink:href="#BitstreamVeraSans-Roman-74"/>
      <use x="710.54296875" xlink:href="#BitstreamVeraSans-Roman-72"/>
      <use x="751.65625" xlink:href="#BitstreamVeraSans-Roman-69"/>
      <use x="779.439453125" xlink:href="#BitstreamVeraSans-Roman-61"/>
      <use x="840.71875" xlink:href="#BitstreamVeraSans-Roman-6c"/>
      <use x="868.501953125" xlink:href="#BitstreamVeraSans-Roman-20"/>
      <use x="900.2890625" xlink:href="#BitstreamVeraSans-Roman-77"/>
      <use x="982.076171875" xlink:href="#BitstreamVeraSans-Roman-69"/>
      <use x="1009.859375" xlink:href="#BitstreamVeraSans-Roman-74"/>
      <use x="1049.06835938" xlink:href="#BitstreamVeraSans-Roman-68"/>
      <use x="1112.44726562" xlink:href="#BitstreamVeraSans-Roman-20"/>
      <use x="1144.234375" xlink:href="#BitstreamVeraSans-Roman-73"/>
      <use x="1196.33398438" xlink:href="#BitstreamVeraSans-Roman-74"/>
      <use x="1235.54296875" xlink:href="#BitstreamVeraSans-Roman-69"/>
      <use x="1263.32617188" xlink:href="#BitstreamVeraSans-Roman-6d"/>
      <use x="1360.73828125" xlink:href="#BitstreamVeraSans-Roman-75"/>
      <use x="1424.1171875" xlink:href="#BitstreamVeraSans-Roman-6c"/>
      <use x="1451.90039062" xlink:href="#BitstreamVeraSans-Roman-61"/>
      <use x="1513.1796875" xlink:href="#BitstreamVeraSans-Roman-74"/>
      <use x="1552.38867188" xlink:href="#BitstreamVeraSans-Roman-69"/>
      <use x="1580.171875" xlink:href="#BitstreamVeraSans-Roman-6f"/>
      <use x="1641.35351562" xlink:href="#BitstreamVeraSans-Roman-6e"/>
     </g>
    </g>
   </g>
   <g id="matplotlib.axis_2">
    <g id="ytick_1">
     <g id="line2d_26">
      <defs>
       <path d="
M0 0
L4 0" id="m728421d6d4" style="stroke:#000000;stroke-width:0.5;"/>
      </defs>
      <g>
       <use style="stroke:#000000;stroke-width:0.5;" x="72.0" xlink:href="#m728421d6d4" y="388.8"/>
      </g>
     </g>
     <g id="line2d_27">
      <defs>
       <path d="
M0 0
L-4 0" id="mcb0005524f" style="stroke:#000000;stroke-width:0.5;"/>
      </defs>
      <g>
       <use style="stroke:#000000;stroke-width:0.5;" x="518.4" xlink:href="#mcb0005524f" y="388.8"/>
      </g>
     </g>
     <g id="text_8">
      <!-- 0.0 -->
      <defs>
       <path d="
M10.6875 12.4062
L21 12.4062
L21 0
L10.6875 0
z
" id="BitstreamVeraSans-Roman-2e"/>
      </defs>
      <g transform="translate(50.504375 392.11125)scale(0.12 -0.12)">
       <use xlink:href="#BitstreamVeraSans-Roman-30"/>
       <use x="63.623046875" xlink:href="#BitstreamVeraSans-Roman-2e"/>
       <use x="95.41015625" xlink:href="#BitstreamVeraSans-Roman-30"/>
      </g>
     </g>
    </g>
    <g id="ytick_2">
     <g id="line2d_28">
      <g>
       <use style="stroke:#000000;stroke-width:0.5;" x="72.0" xlink:href="#m728421d6d4" y="319.68"/>
      </g>
     </g>
     <g id="line2d_29">
      <g>
       <use style="stroke:#000000;stroke-width:0.5;" x="518.4" xlink:href="#mcb0005524f" y="319.68"/>
      </g>
     </g>
     <g id="text_9">
      <!-- 0.1 -->
      <g transform="translate(50.815625 322.99125)scale(0.12 -0.12)">
       <use xlink:href="#BitstreamVeraSans-Roman-30"/>
       <use x="63.623046875" xlink:href="#BitstreamVeraSans-Roman-2e"/>
       <use x="95.41015625" xlink:href="#BitstreamVeraSans-Roman-31"/>
      </g>
     </g>
    </g>
    <g id="ytick_3">
     <g id="line2d_30">
      <g>
       <use style="stroke:#000000;stroke-width:0.5;" x="72.0" xlink:href="#m728421d6d4" y="250.56"/>
      </g>
     </g>
     <g id="line2d_31">
      <g>
       <use style="stroke:#000000;stroke-width:0.5;" x="518.4" xlink:href="#mcb0005524f" y="250.56"/>
      </g>
     </g>
     <g id="text_10">
      <!-- 0.2 -->
      <g transform="translate(50.909375 253.87125)scale(0.12 -0.12)">
       <use xlink:href="#BitstreamVeraSans-Roman-30"/>
       <use x="63.623046875" xlink:href="#BitstreamVeraSans-Roman-2e"/>
       <use x="95.41015625" xlink:href="#BitstreamVeraSans-Roman-32"/>
      </g>
     </g>
    </g>
    <g id="ytick_4">
     <g id="line2d_32">
      <g>
       <use style="stroke:#000000;stroke-width:0.5;" x="72.0" xlink:href="#m728421d6d4" y="181.44"/>
      </g>
     </g>
     <g id="line2d_33">
      <g>
       <use style="stroke:#000000;stroke-width:0.5;" x="518.4" xlink:href="#mcb0005524f" y="181.44"/>
      </g>
     </g>
     <g id="text_11">
      <!-- 0.3 -->
      <defs>
       <path d="
M40.5781 39.3125
Q47.6562 37.7969 51.625 33
Q55.6094 28.2188 55.6094 21.1875
Q55.6094 10.4062 48.1875 4.48438
Q40.7656 -1.42188 27.0938 -1.42188
Q22.5156 -1.42188 17.6562 -0.515625
Q12.7969 0.390625 7.625 2.20312
L7.625 11.7188
Q11.7188 9.32812 16.5938 8.10938
Q21.4844 6.89062 26.8125 6.89062
Q36.0781 6.89062 40.9375 10.5469
Q45.7969 14.2031 45.7969 21.1875
Q45.7969 27.6406 41.2812 31.2656
Q36.7656 34.9062 28.7188 34.9062
L20.2188 34.9062
L20.2188 43.0156
L29.1094 43.0156
Q36.375 43.0156 40.2344 45.9219
Q44.0938 48.8281 44.0938 54.2969
Q44.0938 59.9062 40.1094 62.9062
Q36.1406 65.9219 28.7188 65.9219
Q24.6562 65.9219 20.0156 65.0312
Q15.375 64.1562 9.8125 62.3125
L9.8125 71.0938
Q15.4375 72.6562 20.3438 73.4375
Q25.25 74.2188 29.5938 74.2188
Q40.8281 74.2188 47.3594 69.1094
Q53.9062 64.0156 53.9062 55.3281
Q53.9062 49.2656 50.4375 45.0938
Q46.9688 40.9219 40.5781 39.3125" id="BitstreamVeraSans-Roman-33"/>
      </defs>
      <g transform="translate(50.669375 184.75125)scale(0.12 -0.12)">
       <use xlink:href="#BitstreamVeraSans-Roman-30"/>
       <use x="63.623046875" xlink:href="#BitstreamVeraSans-Roman-2e"/>
       <use x="95.41015625" xlink:href="#BitstreamVeraSans-Roman-33"/>
      </g>
     </g>
    </g>
    <g id="ytick_5">
     <g id="line2d_34">
      <g>
       <use style="stroke:#000000;stroke-width:0.5;" x="72.0" xlink:href="#m728421d6d4" y="112.32"/>
      </g>
     </g>
     <g id="line2d_35">
      <g>
       <use style="stroke:#000000;stroke-width:0.5;" x="518.4" xlink:href="#mcb0005524f" y="112.32"/>
      </g>
     </g>
     <g id="text_12">
      <!-- 0.4 -->
      <defs>
       <path d="
M37.7969 64.3125
L12.8906 25.3906
L37.7969 25.3906
z

M35.2031 72.9062
L47.6094 72.9062
L47.6094 25.3906
L58.0156 25.3906
L58.0156 17.1875
L47.6094 17.1875
L47.6094 0
L37.7969 0
L37.7969 17.1875
L4.89062 17.1875
L4.89062 26.7031
z
" id="BitstreamVeraSans-Roman-34"/>
      </defs>
      <g transform="translate(50.380625 115.63125)scale(0.12 -0.12)">
       <use xlink:href="#BitstreamVeraSans-Roman-30"/>
       <use x="63.623046875" xlink:href="#BitstreamVeraSans-Roman-2e"/>
       <use x="95.41015625" xlink:href="#BitstreamVeraSans-Roman-34"/>
      </g>
     </g>
    </g>
    <g id="ytick_6">
     <g id="line2d_36">
      <g>
       <use style="stroke:#000000;stroke-width:0.5;" x="72.0" xlink:href="#m728421d6d4" y="43.2"/>
      </g>
     </g>
     <g id="line2d_37">
      <g>
       <use style="stroke:#000000;stroke-width:0.5;" x="518.4" xlink:href="#mcb0005524f" y="43.2"/>
      </g>
     </g>
     <g id="text_13">
      <!-- 0.5 -->
      <g transform="translate(50.755625 46.51125)scale(0.12 -0.12)">
       <use xlink:href="#BitstreamVeraSans-Roman-30"/>
       <use x="63.623046875" xlink:href="#BitstreamVeraSans-Roman-2e"/>
       <use x="95.41015625" xlink:href="#BitstreamVeraSans-Roman-35"/>
      </g>
     </g>
    </g>
    <g id="text_14">
     <!-- Probability of Selecting Low-Value Target -->
     <defs>
      <path d="
M9.8125 72.9062
L19.6719 72.9062
L19.6719 8.29688
L55.1719 8.29688
L55.1719 0
L9.8125 0
z
" id="BitstreamVeraSans-Roman-4c"/>
      <path d="
M19.6719 64.7969
L19.6719 37.4062
L32.0781 37.4062
Q38.9688 37.4062 42.7188 40.9688
Q46.4844 44.5312 46.4844 51.125
Q46.4844 57.6719 42.7188 61.2344
Q38.9688 64.7969 32.0781 64.7969
z

M9.8125 72.9062
L32.0781 72.9062
Q44.3438 72.9062 50.6094 67.3594
Q56.8906 61.8125 56.8906 51.125
Q56.8906 40.3281 50.6094 34.8125
Q44.3438 29.2969 32.0781 29.2969
L19.6719 29.2969
L19.6719 0
L9.8125 0
z
" id="BitstreamVeraSans-Roman-50"/>
      <path d="
M53.5156 70.5156
L53.5156 60.8906
Q47.9062 63.5781 42.9219 64.8906
Q37.9375 66.2188 33.2969 66.2188
Q25.25 66.2188 20.875 63.0938
Q16.5 59.9688 16.5 54.2031
Q16.5 49.3594 19.4062 46.8906
Q22.3125 44.4375 30.4219 42.9219
L36.375 41.7031
Q47.4062 39.5938 52.6562 34.2969
Q57.9062 29 57.9062 20.125
Q57.9062 9.51562 50.7969 4.04688
Q43.7031 -1.42188 29.9844 -1.42188
Q24.8125 -1.42188 18.9688 -0.25
Q13.1406 0.921875 6.89062 3.21875
L6.89062 13.375
Q12.8906 10.0156 18.6562 8.29688
Q24.4219 6.59375 29.9844 6.59375
Q38.4219 6.59375 43.0156 9.90625
Q47.6094 13.2344 47.6094 19.3906
Q47.6094 24.75 44.3125 27.7812
Q41.0156 30.8125 33.5 32.3281
L27.4844 33.5
Q16.4531 35.6875 11.5156 40.375
Q6.59375 45.0625 6.59375 53.4219
Q6.59375 63.0938 13.4062 68.6562
Q20.2188 74.2188 32.1719 74.2188
Q37.3125 74.2188 42.625 73.2812
Q47.9531 72.3594 53.5156 70.5156" id="BitstreamVeraSans-Roman-53"/>
      <path d="
M28.6094 0
L0.78125 72.9062
L11.0781 72.9062
L34.1875 11.5312
L57.3281 72.9062
L67.5781 72.9062
L39.7969 0
z
" id="BitstreamVeraSans-Roman-56"/>
      <path d="
M32.1719 -5.07812
Q28.375 -14.8438 24.75 -17.8125
Q21.1406 -20.7969 15.0938 -20.7969
L7.90625 -20.7969
L7.90625 -13.2812
L13.1875 -13.2812
Q16.8906 -13.2812 18.9375 -11.5156
Q21 -9.76562 23.4844 -3.21875
L25.0938 0.875
L2.98438 54.6875
L12.5 54.6875
L29.5938 11.9219
L46.6875 54.6875
L56.2031 54.6875
z
" id="BitstreamVeraSans-Roman-79"/>
      <path d="
M56.2031 29.5938
L56.2031 25.2031
L14.8906 25.2031
Q15.4844 15.9219 20.4844 11.0625
Q25.4844 6.20312 34.4219 6.20312
Q39.5938 6.20312 44.4531 7.46875
Q49.3125 8.73438 54.1094 11.2812
L54.1094 2.78125
Q49.2656 0.734375 44.1875 -0.34375
Q39.1094 -1.42188 33.8906 -1.42188
Q20.7969 -1.42188 13.1562 6.1875
Q5.51562 13.8125 5.51562 26.8125
Q5.51562 40.2344 12.7656 48.1094
Q20.0156 56 32.3281 56
Q43.3594 56 49.7812 48.8906
Q56.2031 41.7969 56.2031 29.5938
M47.2188 32.2344
Q47.125 39.5938 43.0938 43.9844
Q39.0625 48.3906 32.4219 48.3906
Q24.9062 48.3906 20.3906 44.1406
Q15.875 39.8906 15.1875 32.1719
z
" id="BitstreamVeraSans-Roman-65"/>
      <path d="
M45.4062 27.9844
Q45.4062 37.75 41.375 43.1094
Q37.3594 48.4844 30.0781 48.4844
Q22.8594 48.4844 18.8281 43.1094
Q14.7969 37.75 14.7969 27.9844
Q14.7969 18.2656 18.8281 12.8906
Q22.8594 7.51562 30.0781 7.51562
Q37.3594 7.51562 41.375 12.8906
Q45.4062 18.2656 45.4062 27.9844
M54.3906 6.78125
Q54.3906 -7.17188 48.1875 -13.9844
Q42 -20.7969 29.2031 -20.7969
Q24.4688 -20.7969 20.2656 -20.0938
Q16.0625 -19.3906 12.1094 -17.9219
L12.1094 -9.1875
Q16.0625 -11.3281 19.9219 -12.3438
Q23.7812 -13.375 27.7812 -13.375
Q36.625 -13.375 41.0156 -8.76562
Q45.4062 -4.15625 45.4062 5.17188
L45.4062 9.625
Q42.625 4.78125 38.2812 2.39062
Q33.9375 0 27.875 0
Q17.8281 0 11.6719 7.65625
Q5.51562 15.3281 5.51562 27.9844
Q5.51562 40.6719 11.6719 48.3281
Q17.8281 56 27.875 56
Q33.9375 56 38.2812 53.6094
Q42.625 51.2188 45.4062 46.3906
L45.4062 54.6875
L54.3906 54.6875
z
" id="BitstreamVeraSans-Roman-67"/>
      <path d="
M37.1094 75.9844
L37.1094 68.5
L28.5156 68.5
Q23.6875 68.5 21.7969 66.5469
Q19.9219 64.5938 19.9219 59.5156
L19.9219 54.6875
L34.7188 54.6875
L34.7188 47.7031
L19.9219 47.7031
L19.9219 0
L10.8906 0
L10.8906 47.7031
L2.29688 47.7031
L2.29688 54.6875
L10.8906 54.6875
L10.8906 58.5
Q10.8906 67.625 15.1406 71.7969
Q19.3906 75.9844 28.6094 75.9844
z
" id="BitstreamVeraSans-Roman-66"/>
      <path d="
M48.7812 52.5938
L48.7812 44.1875
Q44.9688 46.2969 41.1406 47.3438
Q37.3125 48.3906 33.4062 48.3906
Q24.6562 48.3906 19.8125 42.8438
Q14.9844 37.3125 14.9844 27.2969
Q14.9844 17.2812 19.8125 11.7344
Q24.6562 6.20312 33.4062 6.20312
Q37.3125 6.20312 41.1406 7.25
Q44.9688 8.29688 48.7812 10.4062
L48.7812 2.09375
Q45.0156 0.34375 40.9844 -0.53125
Q36.9688 -1.42188 32.4219 -1.42188
Q20.0625 -1.42188 12.7812 6.34375
Q5.51562 14.1094 5.51562 27.2969
Q5.51562 40.6719 12.8594 48.3281
Q20.2188 56 33.0156 56
Q37.1562 56 41.1094 55.1406
Q45.0625 54.2969 48.7812 52.5938" id="BitstreamVeraSans-Roman-63"/>
      <path d="
M48.6875 27.2969
Q48.6875 37.2031 44.6094 42.8438
Q40.5312 48.4844 33.4062 48.4844
Q26.2656 48.4844 22.1875 42.8438
Q18.1094 37.2031 18.1094 27.2969
Q18.1094 17.3906 22.1875 11.75
Q26.2656 6.10938 33.4062 6.10938
Q40.5312 6.10938 44.6094 11.75
Q48.6875 17.3906 48.6875 27.2969
M18.1094 46.3906
Q20.9531 51.2656 25.2656 53.625
Q29.5938 56 35.5938 56
Q45.5625 56 51.7812 48.0938
Q58.0156 40.1875 58.0156 27.2969
Q58.0156 14.4062 51.7812 6.48438
Q45.5625 -1.42188 35.5938 -1.42188
Q29.5938 -1.42188 25.2656 0.953125
Q20.9531 3.32812 18.1094 8.20312
L18.1094 0
L9.07812 0
L9.07812 75.9844
L18.1094 75.9844
z
" id="BitstreamVeraSans-Roman-62"/>
     </defs>
     <g transform="translate(42.885 337.44375)rotate(-90.0)scale(0.12 -0.12)">
      <use xlink:href="#BitstreamVeraSans-Roman-50"/>
      <use x="58.552734375" xlink:href="#BitstreamVeraSans-Roman-72"/>
      <use x="97.416015625" xlink:href="#BitstreamVeraSans-Roman-6f"/>
      <use x="158.59765625" xlink:href="#BitstreamVeraSans-Roman-62"/>
      <use x="222.07421875" xlink:href="#BitstreamVeraSans-Roman-61"/>
      <use x="283.353515625" xlink:href="#BitstreamVeraSans-Roman-62"/>
      <use x="346.830078125" xlink:href="#BitstreamVeraSans-Roman-69"/>
      <use x="374.61328125" xlink:href="#BitstreamVeraSans-Roman-6c"/>
      <use x="402.396484375" xlink:href="#BitstreamVeraSans-Roman-69"/>
      <use x="430.1796875" xlink:href="#BitstreamVeraSans-Roman-74"/>
      <use x="469.388671875" xlink:href="#BitstreamVeraSans-Roman-79"/>
      <use x="528.568359375" xlink:href="#BitstreamVeraSans-Roman-20"/>
      <use x="560.35546875" xlink:href="#BitstreamVeraSans-Roman-6f"/>
      <use x="621.537109375" xlink:href="#BitstreamVeraSans-Roman-66"/>
      <use x="656.7421875" xlink:href="#BitstreamVeraSans-Roman-20"/>
      <use x="688.529296875" xlink:href="#BitstreamVeraSans-Roman-53"/>
      <use x="752.005859375" xlink:href="#BitstreamVeraSans-Roman-65"/>
      <use x="813.529296875" xlink:href="#BitstreamVeraSans-Roman-6c"/>
      <use x="841.3125" xlink:href="#BitstreamVeraSans-Roman-65"/>
      <use x="902.8359375" xlink:href="#BitstreamVeraSans-Roman-63"/>
      <use x="957.81640625" xlink:href="#BitstreamVeraSans-Roman-74"/>
      <use x="997.025390625" xlink:href="#BitstreamVeraSans-Roman-69"/>
      <use x="1024.80859375" xlink:href="#BitstreamVeraSans-Roman-6e"/>
      <use x="1088.1875" xlink:href="#BitstreamVeraSans-Roman-67"/>
      <use x="1151.6640625" xlink:href="#BitstreamVeraSans-Roman-20"/>
      <use x="1183.45117188" xlink:href="#BitstreamVeraSans-Roman-4c"/>
      <use x="1237.4140625" xlink:href="#BitstreamVeraSans-Roman-6f"/>
      <use x="1298.59570312" xlink:href="#BitstreamVeraSans-Roman-77"/>
      <use x="1380.3828125" xlink:href="#BitstreamVeraSans-Roman-2d"/>
      <use x="1410.59179688" xlink:href="#BitstreamVeraSans-Roman-56"/>
      <use x="1471.25" xlink:href="#BitstreamVeraSans-Roman-61"/>
      <use x="1532.52929688" xlink:href="#BitstreamVeraSans-Roman-6c"/>
      <use x="1560.3125" xlink:href="#BitstreamVeraSans-Roman-75"/>
      <use x="1623.69140625" xlink:href="#BitstreamVeraSans-Roman-65"/>
      <use x="1685.21484375" xlink:href="#BitstreamVeraSans-Roman-20"/>
      <use x="1717.00195312" xlink:href="#BitstreamVeraSans-Roman-54"/>
      <use x="1761.5859375" xlink:href="#BitstreamVeraSans-Roman-61"/>
      <use x="1822.86523438" xlink:href="#BitstreamVeraSans-Roman-72"/>
      <use x="1862.22851562" xlink:href="#BitstreamVeraSans-Roman-67"/>
      <use x="1925.70507812" xlink:href="#BitstreamVeraSans-Roman-65"/>
      <use x="1987.22851562" xlink:href="#BitstreamVeraSans-Roman-74"/>
     </g>
    </g>
   </g>
   <g id="text_15">
    <!-- Low-Value Target Selection -->
    <g transform="translate(199.645875 38.2)scale(0.144 -0.144)">
     <use xlink:href="#BitstreamVeraSans-Roman-4c"/>
     <use x="53.962890625" xlink:href="#BitstreamVeraSans-Roman-6f"/>
     <use x="115.14453125" xlink:href="#BitstreamVeraSans-Roman-77"/>
     <use x="196.931640625" xlink:href="#BitstreamVeraSans-Roman-2d"/>
     <use x="227.140625" xlink:href="#BitstreamVeraSans-Roman-56"/>
     <use x="287.798828125" xlink:href="#BitstreamVeraSans-Roman-61"/>
     <use x="349.078125" xlink:href="#BitstreamVeraSans-Roman-6c"/>
     <use x="376.861328125" xlink:href="#BitstreamVeraSans-Roman-75"/>
     <use x="440.240234375" xlink:href="#BitstreamVeraSans-Roman-65"/>
     <use x="501.763671875" xlink:href="#BitstreamVeraSans-Roman-20"/>
     <use x="533.55078125" xlink:href="#BitstreamVeraSans-Roman-54"/>
     <use x="578.134765625" xlink:href="#BitstreamVeraSans-Roman-61"/>
     <use x="639.4140625" xlink:href="#BitstreamVeraSans-Roman-72"/>
     <use x="678.77734375" xlink:href="#BitstreamVeraSans-Roman-67"/>
     <use x="742.25390625" xlink:href="#BitstreamVeraSans-Roman-65"/>
     <use x="803.77734375" xlink:href="#BitstreamVeraSans-Roman-74"/>
     <use x="842.986328125" xlink:href="#BitstreamVeraSans-Roman-20"/>
     <use x="874.7734375" xlink:href="#BitstreamVeraSans-Roman-53"/>
     <use x="938.25" xlink:href="#BitstreamVeraSans-Roman-65"/>
     <use x="999.7734375" xlink:href="#BitstreamVeraSans-Roman-6c"/>
     <use x="1027.55664062" xlink:href="#BitstreamVeraSans-Roman-65"/>
     <use x="1089.08007812" xlink:href="#BitstreamVeraSans-Roman-63"/>
     <use x="1144.06054688" xlink:href="#BitstreamVeraSans-Roman-74"/>
     <use x="1183.26953125" xlink:href="#BitstreamVeraSans-Roman-69"/>
     <use x="1211.05273438" xlink:href="#BitstreamVeraSans-Roman-6f"/>
     <use x="1272.234375" xlink:href="#BitstreamVeraSans-Roman-6e"/>
    </g>
   </g>
   <g id="legend_1">
    <g id="patch_7">
     <path d="
M338.969 244.948
L511.2 244.948
L511.2 50.4
L338.969 50.4
z
" style="fill:#ffffff;stroke:#000000;stroke-linejoin:miter;"/>
    </g>
    <g id="line2d_38">
     <path d="
M349.049 62.0617
L369.209 62.0617" style="fill:none;stroke:#0000ff;stroke-linecap:square;"/>
    </g>
    <g id="line2d_39"/>
    <g id="text_16">
     <!-- Stim overall avg -->
     <defs>
      <path d="
M2.98438 54.6875
L12.5 54.6875
L29.5938 8.79688
L46.6875 54.6875
L56.2031 54.6875
L35.6875 0
L23.4844 0
z
" id="BitstreamVeraSans-Roman-76"/>
     </defs>
     <g transform="translate(385.04925 67.10175)scale(0.144 -0.144)">
      <use xlink:href="#BitstreamVeraSans-Roman-53"/>
      <use x="63.4765625" xlink:href="#BitstreamVeraSans-Roman-74"/>
      <use x="102.685546875" xlink:href="#BitstreamVeraSans-Roman-69"/>
      <use x="130.46875" xlink:href="#BitstreamVeraSans-Roman-6d"/>
      <use x="227.880859375" xlink:href="#BitstreamVeraSans-Roman-20"/>
      <use x="259.66796875" xlink:href="#BitstreamVeraSans-Roman-6f"/>
      <use x="320.849609375" xlink:href="#BitstreamVeraSans-Roman-76"/>
      <use x="380.029296875" xlink:href="#BitstreamVeraSans-Roman-65"/>
      <use x="441.552734375" xlink:href="#BitstreamVeraSans-Roman-72"/>
      <use x="482.666015625" xlink:href="#BitstreamVeraSans-Roman-61"/>
      <use x="543.9453125" xlink:href="#BitstreamVeraSans-Roman-6c"/>
      <use x="571.728515625" xlink:href="#BitstreamVeraSans-Roman-6c"/>
      <use x="599.51171875" xlink:href="#BitstreamVeraSans-Roman-20"/>
      <use x="631.298828125" xlink:href="#BitstreamVeraSans-Roman-61"/>
      <use x="692.578125" xlink:href="#BitstreamVeraSans-Roman-76"/>
      <use x="751.7578125" xlink:href="#BitstreamVeraSans-Roman-67"/>
     </g>
    </g>
    <g id="line2d_40">
     <path d="
M349.049 83.1983
L369.209 83.1983" style="fill:none;stroke:#008000;stroke-linecap:square;"/>
    </g>
    <g id="line2d_41"/>
    <g id="text_17">
     <!-- Sham overal avg -->
     <g transform="translate(385.04925 88.23825)scale(0.144 -0.144)">
      <use xlink:href="#BitstreamVeraSans-Roman-53"/>
      <use x="63.4765625" xlink:href="#BitstreamVeraSans-Roman-68"/>
      <use x="126.85546875" xlink:href="#BitstreamVeraSans-Roman-61"/>
      <use x="188.134765625" xlink:href="#BitstreamVeraSans-Roman-6d"/>
      <use x="285.546875" xlink:href="#BitstreamVeraSans-Roman-20"/>
      <use x="317.333984375" xlink:href="#BitstreamVeraSans-Roman-6f"/>
      <use x="378.515625" xlink:href="#BitstreamVeraSans-Roman-76"/>
      <use x="437.6953125" xlink:href="#BitstreamVeraSans-Roman-65"/>
      <use x="499.21875" xlink:href="#BitstreamVeraSans-Roman-72"/>
      <use x="540.33203125" xlink:href="#BitstreamVeraSans-Roman-61"/>
      <use x="601.611328125" xlink:href="#BitstreamVeraSans-Roman-6c"/>
      <use x="629.39453125" xlink:href="#BitstreamVeraSans-Roman-20"/>
      <use x="661.181640625" xlink:href="#BitstreamVeraSans-Roman-61"/>
      <use x="722.4609375" xlink:href="#BitstreamVeraSans-Roman-76"/>
      <use x="781.640625" xlink:href="#BitstreamVeraSans-Roman-67"/>
     </g>
    </g>
    <g id="line2d_42">
     <path d="
M349.049 104.335
L369.209 104.335" style="fill:none;stroke:#bf00bf;stroke-linecap:square;"/>
    </g>
    <g id="line2d_43"/>
    <g id="text_18">
     <!-- Trials 0-100 -->
     <g transform="translate(385.04925 109.37475)scale(0.144 -0.144)">
      <use xlink:href="#BitstreamVeraSans-Roman-54"/>
      <use x="46.333984375" xlink:href="#BitstreamVeraSans-Roman-72"/>
      <use x="87.447265625" xlink:href="#BitstreamVeraSans-Roman-69"/>
      <use x="115.23046875" xlink:href="#BitstreamVeraSans-Roman-61"/>
      <use x="176.509765625" xlink:href="#BitstreamVeraSans-Roman-6c"/>
      <use x="204.29296875" xlink:href="#BitstreamVeraSans-Roman-73"/>
      <use x="256.392578125" xlink:href="#BitstreamVeraSans-Roman-20"/>
      <use x="288.1796875" xlink:href="#BitstreamVeraSans-Roman-30"/>
      <use x="351.802734375" xlink:href="#BitstreamVeraSans-Roman-2d"/>
      <use x="387.88671875" xlink:href="#BitstreamVeraSans-Roman-31"/>
      <use x="451.509765625" xlink:href="#BitstreamVeraSans-Roman-30"/>
      <use x="515.1328125" xlink:href="#BitstreamVeraSans-Roman-30"/>
     </g>
    </g>
    <g id="line2d_44">
     <path d="
M349.049 125.471
L369.209 125.471" style="fill:none;stroke:#00bfbf;stroke-linecap:square;"/>
    </g>
    <g id="line2d_45"/>
    <g id="text_19">
     <!-- Trials 100-200 -->
     <g transform="translate(385.04925 130.51125)scale(0.144 -0.144)">
      <use xlink:href="#BitstreamVeraSans-Roman-54"/>
      <use x="46.333984375" xlink:href="#BitstreamVeraSans-Roman-72"/>
      <use x="87.447265625" xlink:href="#BitstreamVeraSans-Roman-69"/>
      <use x="115.23046875" xlink:href="#BitstreamVeraSans-Roman-61"/>
      <use x="176.509765625" xlink:href="#BitstreamVeraSans-Roman-6c"/>
      <use x="204.29296875" xlink:href="#BitstreamVeraSans-Roman-73"/>
      <use x="256.392578125" xlink:href="#BitstreamVeraSans-Roman-20"/>
      <use x="288.1796875" xlink:href="#BitstreamVeraSans-Roman-31"/>
      <use x="351.802734375" xlink:href="#BitstreamVeraSans-Roman-30"/>
      <use x="415.42578125" xlink:href="#BitstreamVeraSans-Roman-30"/>
      <use x="479.048828125" xlink:href="#BitstreamVeraSans-Roman-2d"/>
      <use x="515.1328125" xlink:href="#BitstreamVeraSans-Roman-32"/>
      <use x="578.755859375" xlink:href="#BitstreamVeraSans-Roman-30"/>
      <use x="642.37890625" xlink:href="#BitstreamVeraSans-Roman-30"/>
     </g>
    </g>
    <g id="line2d_46">
     <path d="
M349.049 146.608
L369.209 146.608" style="fill:none;stroke:#000000;stroke-linecap:square;"/>
    </g>
    <g id="line2d_47"/>
    <g id="text_20">
     <!-- Trials 200-300 -->
     <g transform="translate(385.04925 151.64775)scale(0.144 -0.144)">
      <use xlink:href="#BitstreamVeraSans-Roman-54"/>
      <use x="46.333984375" xlink:href="#BitstreamVeraSans-Roman-72"/>
      <use x="87.447265625" xlink:href="#BitstreamVeraSans-Roman-69"/>
      <use x="115.23046875" xlink:href="#BitstreamVeraSans-Roman-61"/>
      <use x="176.509765625" xlink:href="#BitstreamVeraSans-Roman-6c"/>
      <use x="204.29296875" xlink:href="#BitstreamVeraSans-Roman-73"/>
      <use x="256.392578125" xlink:href="#BitstreamVeraSans-Roman-20"/>
      <use x="288.1796875" xlink:href="#BitstreamVeraSans-Roman-32"/>
      <use x="351.802734375" xlink:href="#BitstreamVeraSans-Roman-30"/>
      <use x="415.42578125" xlink:href="#BitstreamVeraSans-Roman-30"/>
      <use x="479.048828125" xlink:href="#BitstreamVeraSans-Roman-2d"/>
      <use x="515.1328125" xlink:href="#BitstreamVeraSans-Roman-33"/>
      <use x="578.755859375" xlink:href="#BitstreamVeraSans-Roman-30"/>
      <use x="642.37890625" xlink:href="#BitstreamVeraSans-Roman-30"/>
     </g>
    </g>
    <g id="line2d_48">
     <path d="
M349.049 167.744
L369.209 167.744" style="fill:none;stroke:#bfbf00;stroke-linecap:square;"/>
    </g>
    <g id="line2d_49"/>
    <g id="text_21">
     <!-- Trials 300-400 -->
     <g transform="translate(385.04925 172.78425)scale(0.144 -0.144)">
      <use xlink:href="#BitstreamVeraSans-Roman-54"/>
      <use x="46.333984375" xlink:href="#BitstreamVeraSans-Roman-72"/>
      <use x="87.447265625" xlink:href="#BitstreamVeraSans-Roman-69"/>
      <use x="115.23046875" xlink:href="#BitstreamVeraSans-Roman-61"/>
      <use x="176.509765625" xlink:href="#BitstreamVeraSans-Roman-6c"/>
      <use x="204.29296875" xlink:href="#BitstreamVeraSans-Roman-73"/>
      <use x="256.392578125" xlink:href="#BitstreamVeraSans-Roman-20"/>
      <use x="288.1796875" xlink:href="#BitstreamVeraSans-Roman-33"/>
      <use x="351.802734375" xlink:href="#BitstreamVeraSans-Roman-30"/>
      <use x="415.42578125" xlink:href="#BitstreamVeraSans-Roman-30"/>
      <use x="479.048828125" xlink:href="#BitstreamVeraSans-Roman-2d"/>
      <use x="515.1328125" xlink:href="#BitstreamVeraSans-Roman-34"/>
      <use x="578.755859375" xlink:href="#BitstreamVeraSans-Roman-30"/>
      <use x="642.37890625" xlink:href="#BitstreamVeraSans-Roman-30"/>
     </g>
    </g>
    <g id="line2d_50">
     <path d="
M349.049 188.881
L369.209 188.881" style="fill:none;stroke:#ff0000;stroke-linecap:square;"/>
    </g>
    <g id="line2d_51"/>
    <g id="text_22">
     <!-- Trials 400-500 -->
     <g transform="translate(385.04925 193.92075)scale(0.144 -0.144)">
      <use xlink:href="#BitstreamVeraSans-Roman-54"/>
      <use x="46.333984375" xlink:href="#BitstreamVeraSans-Roman-72"/>
      <use x="87.447265625" xlink:href="#BitstreamVeraSans-Roman-69"/>
      <use x="115.23046875" xlink:href="#BitstreamVeraSans-Roman-61"/>
      <use x="176.509765625" xlink:href="#BitstreamVeraSans-Roman-6c"/>
      <use x="204.29296875" xlink:href="#BitstreamVeraSans-Roman-73"/>
      <use x="256.392578125" xlink:href="#BitstreamVeraSans-Roman-20"/>
      <use x="288.1796875" xlink:href="#BitstreamVeraSans-Roman-34"/>
      <use x="351.802734375" xlink:href="#BitstreamVeraSans-Roman-30"/>
      <use x="415.42578125" xlink:href="#BitstreamVeraSans-Roman-30"/>
      <use x="479.048828125" xlink:href="#BitstreamVeraSans-Roman-2d"/>
      <use x="515.1328125" xlink:href="#BitstreamVeraSans-Roman-35"/>
      <use x="578.755859375" xlink:href="#BitstreamVeraSans-Roman-30"/>
      <use x="642.37890625" xlink:href="#BitstreamVeraSans-Roman-30"/>
     </g>
    </g>
    <g id="LineCollection_3">
     <path d="
M349.049 217.217
L349.049 202.817" style="fill:none;stroke:#0000ff;"/>
     <path d="
M369.209 217.217
L369.209 202.817" style="fill:none;stroke:#0000ff;"/>
    </g>
    <g id="line2d_52">
     <g>
      <use style="fill:#0000ff;stroke:#0000ff;stroke-width:0.5;" x="349.04925" xlink:href="#mdde457ef1d" y="217.21725"/>
      <use style="fill:#0000ff;stroke:#0000ff;stroke-width:0.5;" x="369.20925" xlink:href="#mdde457ef1d" y="217.21725"/>
     </g>
    </g>
    <g id="line2d_53">
     <g>
      <use style="fill:#0000ff;stroke:#0000ff;stroke-width:0.5;" x="349.04925" xlink:href="#mdde457ef1d" y="202.81725"/>
      <use style="fill:#0000ff;stroke:#0000ff;stroke-width:0.5;" x="369.20925" xlink:href="#mdde457ef1d" y="202.81725"/>
     </g>
    </g>
    <g id="line2d_54">
     <path d="
M349.049 210.017
L369.209 210.017" style="fill:none;stroke:#0000ff;stroke-linecap:square;"/>
    </g>
    <g id="line2d_55"/>
    <g id="text_23">
     <!-- Stim -->
     <g transform="translate(385.04925 215.05725)scale(0.144 -0.144)">
      <use xlink:href="#BitstreamVeraSans-Roman-53"/>
      <use x="63.4765625" xlink:href="#BitstreamVeraSans-Roman-74"/>
      <use x="102.685546875" xlink:href="#BitstreamVeraSans-Roman-69"/>
      <use x="130.46875" xlink:href="#BitstreamVeraSans-Roman-6d"/>
     </g>
    </g>
    <g id="LineCollection_4">
     <path d="
M349.049 238.354
L349.049 223.954" style="fill:none;stroke:#008000;"/>
     <path d="
M369.209 238.354
L369.209 223.954" style="fill:none;stroke:#008000;"/>
    </g>
    <g id="line2d_56">
     <g>
      <use style="fill:#008000;stroke:#008000;stroke-width:0.5;" x="349.04925" xlink:href="#m1ef3793437" y="238.35375"/>
      <use style="fill:#008000;stroke:#008000;stroke-width:0.5;" x="369.20925" xlink:href="#m1ef3793437" y="238.35375"/>
     </g>
    </g>
    <g id="line2d_57">
     <g>
      <use style="fill:#008000;stroke:#008000;stroke-width:0.5;" x="349.04925" xlink:href="#m1ef3793437" y="223.95375"/>
      <use style="fill:#008000;stroke:#008000;stroke-width:0.5;" x="369.20925" xlink:href="#m1ef3793437" y="223.95375"/>
     </g>
    </g>
    <g id="line2d_58">
     <path d="
M349.049 231.154
L369.209 231.154" style="fill:none;stroke:#008000;stroke-linecap:square;"/>
    </g>
    <g id="line2d_59"/>
    <g id="text_24">
     <!-- Sham -->
     <g transform="translate(385.04925 236.19375)scale(0.144 -0.144)">
      <use xlink:href="#BitstreamVeraSans-Roman-53"/>
      <use x="63.4765625" xlink:href="#BitstreamVeraSans-Roman-68"/>
      <use x="126.85546875" xlink:href="#BitstreamVeraSans-Roman-61"/>
      <use x="188.134765625" xlink:href="#BitstreamVeraSans-Roman-6d"/>
     </g>
    </g>
   </g>
  </g>
 </g>
 <defs>
  <clipPath id="p7ff5b81e1d">
   <rect height="345.6" width="446.4" x="72.0" y="43.2"/>
  </clipPath>
 </defs>
</svg>
