<?xml version="1.0" encoding="utf-8" standalone="no"?>
<!DOCTYPE svg PUBLIC "-//W3C//DTD SVG 1.1//EN"
  "http://www.w3.org/Graphics/SVG/1.1/DTD/svg11.dtd">
<!-- Created with matplotlib (http://matplotlib.org/) -->
<svg height="432pt" version="1.1" viewBox="0 0 576 432" width="576pt" xmlns="http://www.w3.org/2000/svg" xmlns:xlink="http://www.w3.org/1999/xlink">
 <defs>
  <style type="text/css">
*{stroke-linecap:butt;stroke-linejoin:round;}
  </style>
 </defs>
 <g id="figure_1">
  <g id="patch_1">
   <path d="
M0 432
L576 432
L576 0
L0 0
z
" style="fill:#ffffff;"/>
  </g>
  <g id="axes_1">
   <g id="patch_2">
    <path d="
M72 388.8
L518.4 388.8
L518.4 43.2
L72 43.2
z
" style="fill:#ffffff;"/>
   </g>
   <g id="line2d_1">
    <path clip-path="url(#p7ff5b81e1d)" d="
M72 214.185
L72.0744 139.317
L72.0744 139.317
L72.0744 139.317
L72.1488 148.754
L72.2232 107.23
L72.2976 134.284
L72.372 121.072
L72.4464 134.284
L72.5208 278.987
L72.744 119.184
L72.8184 133.654
L72.8928 126.105
L73.0416 150.012
L73.116 86.4685
L73.1904 171.403
L73.2648 117.926
L73.3392 150.641
L73.4136 105.343
L73.5624 183.357
L73.6368 117.926
L73.7856 198.456
L73.86 87.0977
L74.0088 166.999
L74.0832 90.8725
L74.1576 148.754
L74.232 137.429
L74.3808 185.244
L74.5296 216.072
L74.604 214.814
L74.6784 203.49
L74.7528 246.901
L74.8272 230.543
L74.9016 168.257
L74.976 216.072
L75.0504 197.198
L75.1248 216.702
L75.1992 152.529
L75.348 202.86
L75.4224 198.456
L75.4968 200.344
L75.5712 245.013
L75.6456 216.072
L75.72 235.576
L75.8688 165.741
L75.9432 182.728
L76.0176 216.072
L76.092 153.787
L76.1664 202.231
L76.2408 165.112
L76.3152 200.344
L76.3896 152.529
L76.5384 221.735
L76.6128 207.894
L76.6872 166.999
L76.7616 186.503
L76.836 229.285
L76.9104 139.317
L76.9848 182.099
L77.0592 187.132
L77.1336 230.543
L77.2824 152.529
L77.4312 197.827
L77.5056 152.529
L77.6544 199.086
L77.8032 121.701
L77.8776 166.999
L77.952 106.601
L78.0264 146.866
L78.1008 138.688
L78.1752 137.429
L78.2496 199.086
L78.324 183.986
L78.4728 140.575
L78.5472 183.357
L78.6216 165.112
L78.696 106.601
L78.8448 178.324
L78.9192 124.217
L79.068 197.827
L79.1424 119.813
L79.2912 183.986
L79.3656 152.529
L79.44 167.628
L79.5144 199.715
L79.6632 138.688
L79.7376 168.257
L79.812 136.171
L79.8864 197.827
L79.9608 171.403
L80.0352 199.086
L80.1096 150.641
L80.184 170.774
L80.2584 163.853
L80.4072 88.3559
L80.6304 169.516
L80.7048 119.813
L80.8536 185.244
L81.0024 138.058
L81.0768 166.37
L81.1512 155.045
L81.2256 151.9
L81.3 181.469
L81.3744 168.257
L81.4488 134.284
L81.5232 139.946
L81.5976 180.211
L81.672 153.158
L81.7464 168.887
L81.8208 231.801
L81.8952 170.145
L81.9696 197.198
L82.044 154.416
L82.2672 361.405
L82.4904 189.019
L82.5648 147.496
L82.6392 214.185
L82.7136 187.761
L82.788 166.37
L82.8624 170.145
L82.9368 233.059
L83.0112 229.285
L83.16 137.429
L83.3088 241.867
L83.4576 166.37
L83.532 201.602
L83.6808 151.271
L83.904 232.43
L83.9784 135.542
L84.1272 228.655
L84.276 119.813
L84.3504 195.311
L84.4248 183.986
L84.4992 120.442
L84.648 199.086
L84.7224 151.9
L84.9456 247.53
L85.02 119.813
L85.1688 213.556
L85.2432 151.9
L85.3176 165.741
L85.4664 246.271
L85.6152 118.555
L85.6896 229.285
L85.764 206.635
L85.8384 129.25
L85.9872 211.668
L86.0616 200.973
L86.136 165.112
L86.2848 219.218
L86.3592 202.231
L86.4336 118.555
L86.508 233.059
L86.5824 211.668
L86.6568 220.477
L86.7312 163.224
L86.8056 231.801
L86.88 202.86
L87.0288 163.853
L87.1776 244.384
L87.3264 166.999
L87.4008 228.655
L87.4752 204.748
L87.624 120.442
L87.7728 201.602
L87.8472 185.244
L87.9216 129.88
L87.996 186.503
L88.0704 167.628
L88.1448 136.171
L88.2192 200.973
L88.2936 195.311
L88.368 121.701
L88.5168 248.788
L88.74 154.416
L88.8888 246.901
L88.9632 153.787
L89.112 228.026
L89.1864 213.556
L89.2608 136.8
L89.3352 202.86
L89.4096 201.602
L89.484 164.483
L89.6328 200.973
L89.7072 217.331
L89.856 150.641
L89.9304 248.788
L90.0048 216.702
L90.0792 200.973
L90.1536 121.072
L90.3024 248.159
L90.4512 122.33
L90.5256 216.072
L90.6 181.469
L90.6744 104.714
L90.7488 196.569
L90.8232 189.648
L90.8976 231.801
L90.972 150.012
L91.0464 245.013
L91.1208 206.006
L91.1952 198.456
L91.2696 165.741
L91.4184 233.059
L91.5672 167.628
L91.6416 182.728
L91.716 200.344
L91.8648 136.171
L91.9392 166.37
L92.0136 154.416
L92.088 153.158
L92.2368 216.072
L92.3112 214.814
L92.3856 136.8
L92.46 230.543
L92.5344 198.456
L92.6088 188.39
L92.6832 135.542
L92.7576 229.914
L92.832 200.973
L92.9064 132.396
L93.0552 214.814
L93.1296 228.655
L93.2784 166.37
L93.3528 228.026
L93.5016 146.866
L93.576 203.49
L93.6504 170.145
L93.7248 178.324
L93.7992 187.132
L93.8736 228.655
L94.0968 119.813
L94.1712 250.046
L94.2456 198.456
L94.32 117.926
L94.4688 212.298
L94.6176 133.025
L94.692 221.735
L94.7664 217.96
L94.8408 208.523
L94.9152 135.542
L94.9896 219.218
L95.064 195.94
L95.1384 199.715
L95.2128 171.403
L95.2872 196.569
L95.436 133.654
L95.5848 228.655
L95.6592 153.787
L95.7336 165.741
L95.808 246.271
L95.8824 215.443
L96.0312 122.33
L96.1056 183.357
L96.18 164.483
L96.2544 122.33
L96.3288 212.927
L96.4032 183.986
L96.4776 169.516
L96.6264 219.218
L96.7008 199.715
L96.7752 135.542
L96.924 202.231
L96.9984 199.086
L97.0728 164.483
L97.2216 248.159
L97.3704 183.986
L97.4448 187.132
L97.5192 233.689
L97.668 136.171
L97.7424 219.847
L97.8168 212.298
L97.9656 166.37
L98.04 197.827
L98.1144 190.278
L98.1888 212.298
L98.2632 150.641
L98.3376 230.543
L98.412 216.702
L98.5608 148.125
L98.7096 194.682
L98.784 120.442
L98.9328 229.285
L99.0072 213.556
L99.0816 139.317
L99.2304 233.059
L99.3792 117.297
L99.6024 351.968
L99.6768 167.628
L99.7512 185.874
L99.8256 150.641
L99.9744 215.443
L100.123 170.774
L100.198 181.469
L100.272 216.702
L100.346 168.257
L100.495 204.748
L100.57 210.41
L100.644 170.145
L100.718 182.099
L100.867 213.556
L100.942 199.715
L101.016 201.602
L101.09 206.006
L101.165 226.768
L101.239 181.469
L101.314 182.099
L101.462 247.53
L101.537 200.973
L101.611 204.119
L101.76 229.285
L101.834 216.702
L101.909 153.787
L101.983 163.224
L102.058 199.715
L102.132 138.688
L102.206 153.158
L102.355 200.344
L102.43 182.099
L102.653 248.159
L102.802 182.728
L102.876 187.132
L102.95 230.543
L103.025 182.099
L103.099 203.49
L103.322 229.285
L103.397 182.728
L103.62 248.159
L103.694 187.132
L103.769 211.039
L103.843 192.165
L103.918 211.668
L104.066 152.529
L104.215 224.251
L104.29 200.344
L104.364 202.86
L104.438 212.927
L104.662 185.244
L104.736 191.536
L104.81 223.622
L104.885 187.132
L104.959 199.086
L105.108 217.96
L105.182 183.986
L105.257 197.827
L105.331 202.86
L105.48 231.801
L105.554 200.973
L105.629 221.735
L105.703 211.039
L105.778 217.331
L105.852 200.973
L106.001 230.543
L106.075 217.96
L106.15 231.172
L106.224 152.529
L106.298 185.244
L106.373 211.668
L106.447 201.602
L106.522 168.887
L106.596 184.615
L106.745 215.443
L106.819 181.469
L106.968 217.331
L107.042 216.702
L107.117 165.741
L107.191 168.887
L107.266 217.331
L107.34 197.827
L107.414 151.271
L107.489 154.416
L107.563 195.94
L107.638 121.701
L107.712 152.529
L107.786 199.086
L107.861 152.529
L108.084 243.126
L108.158 164.483
L108.233 170.145
L108.382 207.894
L108.456 139.946
L108.53 166.999
L108.605 213.556
L108.679 155.675
L108.902 246.271
L109.051 184.615
L109.274 229.914
L109.349 203.49
L109.423 213.556
L109.498 216.702
L109.572 199.715
L109.646 139.946
L109.721 147.496
L109.795 198.456
L109.87 122.959
L110.093 216.702
L110.167 197.827
L110.242 202.231
L110.39 216.702
L110.539 181.469
L110.614 185.244
L110.688 217.331
L110.762 197.827
L110.837 199.715
L110.911 200.344
L110.986 216.072
L111.06 167.628
L111.134 175.807
L111.209 185.244
L111.283 173.92
L111.358 122.959
L111.432 151.9
L111.506 138.688
L111.581 131.767
L111.804 194.682
L111.878 216.072
L112.102 180.84
L112.176 183.357
L112.25 202.231
L112.325 184.615
L112.399 198.456
L112.474 196.569
L112.548 202.231
L112.697 150.641
L112.771 172.661
L112.846 211.668
L112.92 169.516
L112.994 184.615
L113.069 203.49
L113.143 194.052
L113.218 152.529
L113.292 171.403
L113.366 183.357
L113.441 132.396
L113.515 138.058
L113.738 183.357
L113.813 201.602
L114.036 168.887
L114.11 214.814
L114.259 166.37
L114.408 212.927
L114.482 198.456
L114.557 201.602
L114.706 217.331
L114.854 185.874
L115.003 217.96
L115.078 182.099
L115.152 218.589
L115.226 197.827
L115.301 217.331
L115.375 167.628
L115.45 197.198
L115.524 168.257
L115.673 211.668
L115.747 183.357
L115.896 231.172
L115.97 184.615
L116.045 201.602
L116.119 200.973
L116.194 229.285
L116.268 217.331
L116.342 184.615
L116.491 216.702
L116.566 231.801
L116.64 185.244
L116.714 207.894
L116.789 173.291
L116.863 216.702
L116.938 185.244
L117.012 212.298
L117.086 200.973
L117.161 217.331
L117.235 153.787
L117.31 167.628
L117.384 195.311
L117.458 185.244
L117.533 168.257
L117.682 218.589
L117.756 185.244
L117.83 195.94
L117.905 199.715
L117.979 219.847
L118.054 196.569
L118.128 199.715
L118.351 257.596
L118.426 265.146
L118.5 248.788
L118.574 249.417
L118.798 276.47
L118.872 267.662
L118.946 291.57
L119.17 217.331
L119.393 248.788
L119.467 245.642
L119.542 199.715
L119.69 248.788
L119.765 248.159
L119.839 268.292
L119.914 260.742
L119.988 199.715
L120.062 216.702
L120.137 216.072
L120.211 212.927
L120.286 201.602
L120.509 261.371
L120.806 199.715
L120.881 215.443
L120.955 262
L121.104 198.456
L121.178 200.973
L121.253 202.86
L121.327 228.026
L121.402 183.357
L121.625 244.384
L121.848 198.456
L121.922 199.715
L121.997 218.589
L122.071 216.072
L122.146 216.072
L122.294 229.285
L122.443 184.615
L122.592 202.86
L122.815 183.357
L122.89 204.119
L123.038 129.88
L123.113 173.92
L123.187 117.926
L123.41 215.443
L123.485 186.503
L123.708 244.384
L123.931 175.807
L124.08 229.285
L124.229 188.39
L124.303 199.715
L124.378 199.086
L124.526 182.728
L124.675 224.881
L124.824 182.728
L124.898 185.874
L125.047 138.688
L125.196 179.582
L125.27 171.403
L125.419 216.702
L125.642 167.628
L125.717 213.556
L125.791 136.8
L125.866 168.887
L126.014 198.456
L126.089 182.728
L126.238 224.881
L126.312 223.622
L126.386 170.145
L126.461 199.715
L126.535 168.887
L126.61 180.84
L126.684 185.244
L126.758 199.086
L126.907 168.257
L127.13 214.814
L127.279 168.887
L127.428 214.814
L127.502 185.874
L127.577 204.119
L127.651 203.49
L127.726 207.894
L127.874 168.887
L128.023 216.072
L128.172 187.132
L128.246 227.397
L128.395 151.9
L128.47 170.145
L128.544 165.741
L128.618 149.383
L128.767 217.96
L128.916 212.298
L128.99 187.761
L129.065 199.086
L129.139 228.655
L129.214 124.217
L129.362 203.49
L129.437 178.324
L129.586 213.556
L129.734 215.443
L129.809 153.787
L129.883 183.986
L129.958 196.569
L130.032 172.661
L130.106 183.986
L130.255 217.331
L130.33 215.443
L130.404 168.257
L130.553 216.072
L130.627 211.668
L130.702 168.257
L130.85 214.185
L130.999 184.615
L131.074 223.622
L131.148 208.523
L131.222 200.973
L131.297 165.741
L131.371 182.099
L131.446 193.423
L131.52 173.92
L131.594 183.357
L131.743 221.735
L131.818 183.986
L131.892 200.973
L132.041 234.947
L132.19 185.244
L132.264 194.682
L132.338 222.993
L132.413 195.94
L132.487 197.827
L132.636 200.973
L132.785 168.887
L132.859 181.469
L132.934 217.331
L133.008 150.641
L133.082 182.099
L133.157 187.761
L133.231 166.999
L133.306 168.257
L133.454 198.456
L133.529 152.529
L133.603 168.887
L133.678 212.298
L133.826 182.728
L133.975 212.927
L134.05 156.304
L134.124 180.84
L134.198 183.357
L134.273 214.814
L134.347 182.728
L134.422 185.244
L134.57 229.285
L134.645 183.357
L134.719 197.827
L134.794 202.231
L134.868 214.814
L135.017 168.887
L135.091 199.715
L135.166 198.456
L135.24 153.158
L135.314 165.741
L135.389 216.702
L135.463 196.569
L135.538 199.086
L135.761 251.305
L135.91 232.43
L135.984 263.888
L136.058 246.901
L136.133 262
L136.207 235.576
L136.282 263.258
L136.356 245.642
L136.43 250.046
L136.579 236.205
L136.654 263.888
L136.877 188.39
L137.1 233.059
L137.174 198.456
L137.249 217.96
L137.323 201.602
L137.398 214.185
L137.546 183.357
L137.621 186.503
L137.695 214.814
L137.77 180.84
L137.844 188.39
L137.918 182.728
L137.993 199.086
L138.067 185.244
L138.29 249.417
L138.439 171.403
L138.588 238.093
L138.662 194.682
L138.737 199.715
L138.96 248.159
L139.183 187.132
L139.332 216.072
L139.406 171.403
L139.481 183.357
L139.555 204.748
L139.704 165.741
L139.927 246.901
L140.002 198.456
L140.15 246.271
L140.374 199.715
L140.448 216.072
L140.522 198.456
L140.597 217.331
L140.671 168.887
L140.746 215.443
L140.82 214.185
L141.043 246.901
L141.118 189.019
L141.192 198.456
L141.266 230.543
L141.415 163.853
L141.49 172.032
L141.564 202.86
L141.638 137.429
L141.787 216.072
L141.862 182.728
L141.936 185.874
L142.01 192.165
L142.085 212.298
L142.159 192.794
L142.234 214.185
L142.308 210.41
L142.382 221.735
L142.606 149.383
L142.68 155.675
L142.754 103.455
L142.903 200.973
L142.978 158.82
L143.052 211.668
L143.275 122.33
L143.424 197.827
L143.498 161.966
L143.573 175.807
L143.647 212.298
L143.796 164.483
L143.87 170.145
L143.945 185.874
L144.019 166.37
L144.242 218.589
L144.466 183.986
L144.54 185.244
L144.614 150.641
L144.689 155.675
L144.763 199.086
L144.838 119.813
L144.986 187.761
L145.061 135.542
L145.135 151.271
L145.21 200.973
L145.284 182.099
L145.358 153.787
L145.507 224.881
L145.656 196.569
L145.73 199.715
L145.805 218.589
L145.954 182.099
L146.028 214.185
L146.177 150.012
L146.251 136.8
L146.326 182.728
L146.4 133.654
L146.474 153.787
L146.623 207.894
L146.698 182.728
L146.772 186.503
L146.846 213.556
L146.921 202.231
L147.07 155.045
L147.144 190.907
L147.218 109.747
L147.293 138.058
L147.367 165.112
L147.442 122.33
L147.59 199.715
L147.665 199.715
L147.739 185.244
L147.888 228.026
L147.962 168.257
L148.037 191.536
L148.111 193.423
L148.26 179.582
L148.334 139.317
L148.409 166.999
L148.483 139.946
L148.558 162.595
L148.632 155.045
L148.781 136.171
L148.855 200.344
L148.93 170.774
L149.153 231.172
L149.302 153.787
L149.376 160.079
L149.45 161.966
L149.525 151.271
L149.748 214.185
L149.822 186.503
L149.897 229.914
L149.971 215.443
L150.046 199.086
L150.12 153.787
L150.194 184.615
L150.269 182.099
L150.343 138.058
L150.492 187.132
L150.566 141.833
L150.641 161.966
L150.79 230.543
L150.864 185.244
L150.938 197.827
L151.013 201.602
L151.236 153.787
L151.31 214.814
L151.534 151.271
L151.608 168.257
L151.757 136.8
L151.831 182.728
L151.906 137.429
L152.054 228.655
L152.203 167.628
L152.278 180.84
L152.426 121.701
L152.575 200.973
L152.65 182.099
L152.724 182.728
L152.798 199.715
L152.947 166.999
L153.096 214.185
L153.17 214.814
L153.245 186.503
L153.319 202.231
L153.394 183.357
L153.468 197.198
L153.542 168.887
L153.617 170.145
L153.691 201.602
L153.766 183.357
L153.84 198.456
L153.914 152.529
L153.989 165.112
L154.138 137.429
L154.212 195.94
L154.286 121.072
L154.435 232.43
L154.51 215.443
L154.658 197.198
L154.733 217.331
L154.882 165.741
L155.03 221.106
L155.105 209.781
L155.254 170.145
L155.328 212.298
L155.477 151.271
L155.551 167.628
L155.7 136.171
L155.774 191.536
L155.849 175.178
L156.072 215.443
L156.146 151.271
L156.221 153.787
L156.37 183.986
L156.444 168.887
L156.593 217.331
L156.742 173.291
L156.89 202.86
L157.039 199.086
L157.188 204.119
L157.337 170.145
L157.411 183.357
L157.486 168.887
L157.709 229.285
L157.783 217.331
L158.006 187.761
L158.155 214.814
L158.23 185.244
L158.378 230.543
L158.453 198.456
L158.527 200.973
L158.602 202.86
L158.676 232.43
L158.75 231.801
L158.825 214.185
L158.899 218.589
L159.048 213.556
L159.271 165.741
L159.346 168.887
L159.42 164.483
L159.643 229.285
L159.718 206.006
L159.792 211.668
L159.866 202.86
L159.941 212.298
L160.015 169.516
L160.09 185.244
L160.238 217.331
L160.313 185.244
L160.387 198.456
L160.61 150.012
L160.759 205.377
L160.908 185.874
L160.982 183.986
L161.057 205.377
L161.206 166.37
L161.28 185.874
L161.354 153.787
L161.503 185.874
L161.875 96.5348
L161.95 143.092
L162.024 120.442
L162.173 211.668
L162.247 209.781
L162.322 201.602
L162.47 228.026
L162.545 217.96
L162.619 153.787
L162.768 199.715
L162.917 172.661
L163.066 193.423
L163.14 137.429
L163.214 154.416
L163.289 192.794
L163.363 154.416
L163.438 171.403
L163.586 133.025
L163.661 119.813
L163.735 136.171
L163.81 102.826
L163.958 169.516
L164.033 166.37
L164.107 170.774
L164.182 198.456
L164.33 143.092
L164.479 180.84
L164.554 167.628
L164.628 172.032
L164.702 212.927
L164.777 107.23
L164.851 121.072
L164.926 107.23
L165 113.522
L165.074 136.171
L165.149 74.5147
L165.298 163.853
L165.372 138.058
L165.521 216.072
L165.595 168.887
L165.67 176.436
L165.818 168.887
L165.893 105.343
L165.967 151.271
L166.042 119.813
L166.19 139.317
L166.265 103.455
L166.562 192.165
L166.637 199.715
L166.711 166.999
L166.786 170.145
L166.934 150.641
L167.158 206.635
L167.232 178.953
L167.306 183.986
L167.381 187.132
L167.53 151.9
L167.678 173.92
L167.753 143.721
L167.827 161.966
L167.902 153.787
L167.976 135.542
L168.05 143.092
L168.125 175.178
L168.199 159.449
L168.348 216.072
L168.422 151.9
L168.497 166.999
L168.571 176.436
L168.646 141.204
L168.869 211.668
L168.943 187.761
L169.018 198.456
L169.092 202.231
L169.166 216.702
L169.315 170.774
L169.464 243.755
L169.613 199.715
L169.687 260.113
L169.762 209.781
L169.836 222.364
L169.985 166.37
L170.059 197.827
L170.208 151.271
L170.357 196.569
L170.431 169.516
L170.654 200.344
L170.729 180.84
L170.803 188.39
L170.878 222.364
L170.952 207.894
L171.101 200.344
L171.175 213.556
L171.25 197.827
L171.324 158.191
L171.473 199.086
L171.622 171.403
L171.77 207.264
L171.845 177.065
L171.994 221.106
L172.068 202.231
L172.142 175.178
L172.217 175.807
L172.291 170.774
L172.366 177.695
L172.44 160.079
L172.589 200.973
L172.663 152.529
L172.812 198.456
L172.886 202.231
L172.961 200.344
L173.035 201.602
L173.11 200.344
L173.184 195.94
L173.258 155.675
L173.407 197.198
L173.482 166.999
L173.556 168.887
L173.63 172.032
L173.705 197.198
L173.779 151.271
L173.928 217.331
L174.002 213.556
L174.077 177.695
L174.151 209.152
L174.374 129.88
L174.449 183.357
L174.523 136.171
L174.746 211.039
L174.821 200.973
L175.044 218.589
L175.118 133.654
L175.193 155.675
L175.267 150.641
L175.342 121.072
L175.565 180.84
L175.639 175.807
L175.714 182.728
L175.788 179.582
L175.862 153.158
L176.011 192.794
L176.086 197.827
L176.16 182.728
L176.234 187.132
L176.309 188.39
L176.383 130.509
L176.458 148.125
L176.532 156.304
L176.606 140.575
L176.755 202.231
L176.83 200.344
L176.904 209.781
L177.053 202.231
L177.127 165.112
L177.202 169.516
L177.276 169.516
L177.35 215.443
L177.425 181.469
L177.499 186.503
L177.574 186.503
L177.648 180.211
L177.722 153.158
L177.871 207.894
L177.946 184.615
L178.02 177.065
L178.094 183.357
L178.169 175.178
L178.243 121.701
L178.318 144.35
L178.466 105.343
L178.838 210.41
L178.913 176.436
L178.987 222.993
L179.062 202.86
L179.21 153.787
L179.359 183.357
L179.508 138.688
L179.582 183.357
L179.657 166.37
L179.88 222.364
L179.954 155.045
L180.029 167.628
L180.103 200.973
L180.252 164.483
L180.326 172.032
L180.55 140.575
L180.773 197.198
L180.847 202.86
L180.922 199.715
L180.996 183.357
L181.07 185.874
L181.145 202.231
L181.219 165.112
L181.294 166.37
L181.368 202.86
L181.442 198.456
L181.591 166.999
L181.666 177.695
L181.74 138.688
L181.814 143.092
L181.889 173.92
L181.963 138.688
L182.112 198.456
L182.261 162.595
L182.335 170.145
L182.41 205.377
L182.484 146.866
L182.633 188.39
L182.707 174.549
L182.93 229.285
L183.005 186.503
L183.079 187.132
L183.154 195.311
L183.228 185.244
L183.302 150.641
L183.377 153.787
L183.451 152.529
L183.526 117.926
L183.6 131.138
L183.749 187.132
L183.823 153.158
L183.898 200.344
L183.972 183.357
L184.046 183.357
L184.195 184.615
L184.27 183.986
L184.344 186.503
L184.418 198.456
L184.493 231.172
L184.642 173.291
L184.716 188.39
L184.865 155.045
L184.939 165.741
L185.014 192.165
L185.088 160.708
L185.162 168.257
L185.237 171.403
L185.311 165.741
L185.386 149.383
L185.534 199.086
L185.609 168.887
L185.832 214.185
L185.906 194.052
L186.13 216.702
L186.204 183.357
L186.278 217.331
L186.353 199.086
L186.427 226.768
L186.502 158.82
L186.576 170.145
L186.65 171.403
L186.725 145.608
L186.799 153.787
L187.022 184.615
L187.097 172.032
L187.171 199.086
L187.246 154.416
L187.32 165.112
L187.469 186.503
L187.543 194.682
L187.618 190.278
L187.692 197.827
L187.841 156.304
L187.99 189.019
L188.064 177.695
L188.138 204.748
L188.287 141.833
L188.362 163.224
L188.51 123.588
L188.585 133.025
L188.957 215.443
L189.031 195.94
L189.106 201.602
L189.18 212.927
L189.403 183.357
L189.552 196.569
L189.701 146.237
L189.775 195.94
L189.85 180.211
L190.073 215.443
L190.147 212.298
L190.222 183.986
L190.296 196.569
L190.37 200.973
L190.445 177.065
L190.668 220.477
L190.817 170.774
L190.891 179.582
L190.966 187.761
L191.04 173.92
L191.114 179.582
L191.263 213.556
L191.338 155.675
L191.412 178.953
L191.486 182.728
L191.635 151.271
L191.71 158.82
L191.784 148.754
L192.007 208.523
L192.082 168.887
L192.156 186.503
L192.305 235.576
L192.528 206.006
L192.602 224.251
L192.677 216.702
L192.751 187.761
L192.974 234.947
L193.123 198.456
L193.198 199.715
L193.272 222.993
L193.346 212.927
L193.421 204.748
L193.495 225.51
L193.57 217.331
L193.644 217.331
L193.718 174.549
L193.793 194.682
L193.867 196.569
L193.942 203.49
L194.016 200.344
L194.09 171.403
L194.165 211.039
L194.239 203.49
L194.314 170.774
L194.388 211.668
L194.462 200.344
L194.537 189.019
L194.686 202.231
L194.76 200.973
L194.834 215.443
L194.909 190.907
L194.983 194.052
L195.132 225.51
L195.206 219.847
L195.281 193.423
L195.355 199.715
L195.43 228.026
L195.504 216.702
L195.727 175.178
L195.876 139.317
L195.95 182.728
L196.025 168.887
L196.099 153.158
L196.322 232.43
L196.397 230.543
L196.546 263.888
L196.843 216.072
L197.141 260.742
L197.29 224.251
L197.364 225.51
L197.438 232.43
L197.587 216.702
L197.662 231.801
L197.736 228.026
L197.81 233.689
L197.885 231.172
L198.034 179.582
L198.108 190.278
L198.182 189.648
L198.331 169.516
L198.48 228.655
L198.554 201.602
L198.629 206.006
L198.703 214.814
L198.778 199.715
L198.852 214.185
L198.926 199.086
L199.001 217.331
L199.075 202.231
L199.15 233.059
L199.298 187.761
L199.373 198.456
L199.447 197.198
L199.522 139.946
L199.67 170.145
L199.745 143.092
L199.894 183.357
L199.968 182.099
L200.042 153.787
L200.191 199.715
L200.266 170.145
L200.489 237.463
L200.712 183.357
L200.786 202.86
L200.861 180.211
L200.935 187.132
L201.084 203.49
L201.307 170.774
L201.382 190.907
L201.456 158.191
L201.53 169.516
L201.605 172.032
L201.679 118.555
L201.754 139.317
L201.828 163.224
L201.902 155.675
L202.051 183.357
L202.2 140.575
L202.274 181.469
L202.349 152.529
L202.498 180.211
L202.646 139.946
L202.721 159.449
L202.87 134.284
L203.018 190.278
L203.093 183.357
L203.242 202.86
L203.316 194.682
L203.465 172.032
L203.539 200.344
L203.614 197.827
L203.762 187.132
L203.837 210.41
L203.911 202.231
L203.986 124.217
L204.06 164.483
L204.134 139.317
L204.655 233.689
L204.878 186.503
L204.953 199.715
L205.027 198.456
L205.176 168.257
L205.25 168.887
L205.325 141.833
L205.399 146.237
L205.474 139.317
L205.548 147.496
L205.697 213.556
L205.771 185.874
L205.846 187.761
L205.994 226.768
L206.218 182.728
L206.292 203.49
L206.366 182.728
L206.441 199.715
L206.515 175.807
L206.59 207.894
L206.664 136.171
L206.738 151.271
L206.813 155.675
L206.887 135.542
L207.334 243.755
L207.557 197.827
L207.706 233.059
L207.78 186.503
L207.854 201.602
L208.003 213.556
L208.152 178.324
L208.301 199.086
L208.375 169.516
L208.45 194.052
L208.524 186.503
L208.598 170.774
L208.673 126.734
L208.747 132.396
L208.822 118.555
L208.896 119.184
L208.97 156.933
L209.045 119.813
L209.194 212.298
L209.268 171.403
L209.342 199.715
L209.417 182.728
L209.491 204.119
L209.566 132.396
L209.64 153.787
L209.714 153.158
L209.863 136.8
L209.938 166.37
L210.012 136.171
L210.161 214.185
L210.31 177.695
L210.384 182.728
L210.458 184.615
L210.533 167.628
L210.756 198.456
L210.83 155.045
L210.905 158.82
L210.979 166.999
L211.054 132.396
L211.128 137.429
L211.202 199.715
L211.277 165.741
L211.351 183.986
L211.426 175.178
L211.574 146.866
L211.649 156.304
L211.723 144.35
L211.946 197.827
L212.021 172.032
L212.095 204.748
L212.17 193.423
L212.244 185.244
L212.318 197.827
L212.393 185.874
L212.467 218.589
L212.542 213.556
L212.616 199.715
L212.765 236.205
L212.839 248.159
L213.137 200.344
L213.211 231.172
L213.286 198.456
L213.36 217.331
L213.434 204.748
L213.509 214.185
L213.583 202.86
L213.732 151.9
L213.806 171.403
L213.881 134.913
L214.03 167.628
L214.104 138.058
L214.178 147.496
L214.253 173.291
L214.327 148.754
L214.476 213.556
L214.55 187.761
L214.625 173.92
L214.774 200.973
L214.848 155.675
L214.922 168.257
L214.997 190.907
L215.146 155.675
L215.22 168.887
L215.294 166.37
L215.369 168.257
L215.443 182.728
L215.518 219.847
L215.666 171.403
L215.741 182.728
L215.815 185.244
L215.89 138.058
L216.038 197.827
L216.113 189.019
L216.262 170.774
L216.336 185.244
L216.485 139.317
L216.559 177.065
L216.634 175.178
L216.708 175.178
L216.782 191.536
L216.931 153.158
L217.08 172.032
L217.154 167.628
L217.378 224.881
L217.526 166.37
L217.601 187.132
L217.675 184.615
L217.75 170.145
L217.898 198.456
L217.973 185.244
L218.047 199.086
L218.122 187.761
L218.196 209.781
L218.27 144.35
L218.345 173.92
L218.419 177.695
L218.494 150.641
L218.568 156.933
L218.717 203.49
L218.791 185.874
L219.014 232.43
L219.163 199.715
L219.238 203.49
L219.312 246.271
L219.461 167.628
L219.61 186.503
L219.684 134.913
L219.758 141.204
L219.833 150.012
L219.907 137.429
L220.354 226.768
L220.428 170.774
L220.502 182.099
L220.651 170.774
L220.8 185.874
L220.874 222.993
L220.949 175.807
L221.023 189.019
L221.098 188.39
L221.246 160.708
L221.321 161.966
L221.395 189.019
L221.47 171.403
L221.544 184.615
L221.767 132.396
L221.842 138.058
L221.916 140.575
L221.99 151.271
L222.065 181.469
L222.139 171.403
L222.214 166.999
L222.362 199.715
L222.437 153.787
L222.511 169.516
L222.66 195.311
L222.734 185.874
L222.883 217.331
L223.032 180.84
L223.106 183.357
L223.181 185.874
L223.255 185.244
L223.33 167.628
L223.478 219.847
L223.627 207.894
L223.702 202.86
L223.776 217.331
L223.925 171.403
L223.999 184.615
L224.074 229.914
L224.148 188.39
L224.297 236.205
L224.371 218.589
L224.446 245.013
L224.594 182.099
L224.743 216.702
L224.818 186.503
L224.892 199.715
L224.966 209.152
L225.19 171.403
L225.338 201.602
L225.413 171.403
L225.487 204.748
L225.562 200.344
L225.636 194.052
L225.71 141.833
L225.785 148.754
L225.859 167.628
L225.934 122.959
L226.157 183.986
L226.38 246.271
L226.454 236.205
L226.529 216.072
L226.678 248.788
L226.752 246.901
L226.901 228.655
L226.975 229.914
L227.05 231.801
L227.198 257.596
L227.273 233.059
L227.347 157.562
L227.422 194.682
L227.496 185.874
L227.57 151.271
L227.645 151.9
L227.719 168.887
L227.794 153.158
L228.017 200.973
L228.091 187.132
L228.24 203.49
L228.389 165.741
L228.538 200.973
L228.612 155.675
L228.686 158.82
L228.761 176.436
L228.91 136.171
L228.984 166.37
L229.058 154.416
L229.133 153.787
L229.282 203.49
L229.43 172.032
L229.505 175.178
L229.654 121.072
L229.728 135.542
L229.802 92.1308
L229.951 182.728
L230.026 153.787
L230.174 201.602
L230.398 151.271
L230.472 189.019
L230.546 175.178
L230.695 206.006
L230.993 155.045
L231.067 150.641
L231.216 186.503
L231.29 156.933
L231.365 193.423
L231.439 184.615
L231.514 140.575
L231.588 141.833
L231.662 172.032
L231.737 143.092
L231.96 199.086
L232.034 169.516
L232.183 197.827
L232.258 183.986
L232.332 185.874
L232.555 217.331
L232.63 200.344
L232.704 216.702
L232.927 168.887
L233.002 182.099
L233.076 216.702
L233.225 150.012
L233.299 158.82
L233.448 135.542
L233.82 216.072
L233.969 185.874
L234.043 182.099
L234.118 197.198
L234.192 153.787
L234.266 168.887
L234.341 183.357
L234.415 136.8
L234.564 200.973
L234.713 197.827
L234.787 217.331
L234.862 199.715
L234.936 221.106
L235.085 156.304
L235.159 195.311
L235.234 156.304
L235.308 166.37
L235.382 167.628
L235.457 214.814
L235.606 184.615
L235.754 233.059
L235.978 191.536
L236.052 202.231
L236.126 191.536
L236.424 210.41
L236.498 168.887
L236.573 172.032
L236.647 211.039
L236.722 155.045
L236.945 202.231
L237.019 165.112
L237.242 197.827
L237.317 156.304
L237.391 197.198
L237.466 191.536
L237.54 180.211
L237.614 181.469
L237.689 195.311
L237.763 193.423
L237.838 180.84
L238.061 232.43
L238.21 172.661
L238.358 195.311
L238.433 140.575
L238.507 166.37
L238.582 187.761
L238.656 153.158
L238.805 212.298
L238.879 204.748
L239.028 216.702
L239.102 201.602
L239.177 248.159
L239.251 198.456
L239.326 210.41
L239.549 246.271
L239.772 156.933
L239.846 152.529
L239.921 107.23
L240.07 168.257
L240.144 165.741
L240.218 167.628
L240.293 163.224
L240.442 138.688
L240.516 158.191
L240.59 144.35
L240.739 186.503
L240.814 165.741
L240.888 172.032
L240.962 189.648
L241.111 155.045
L241.334 182.728
L241.409 170.774
L241.483 200.973
L241.632 172.032
L241.706 173.92
L241.781 183.986
L241.855 155.045
L242.004 224.881
L242.153 144.979
L242.227 161.337
L242.376 139.317
L242.822 234.947
L242.971 187.132
L243.046 243.755
L243.269 184.615
L243.418 200.344
L243.492 202.86
L243.566 163.853
L243.641 173.291
L243.715 191.536
L243.79 178.953
L243.864 181.469
L244.013 197.198
L244.162 168.257
L244.31 188.39
L244.459 190.278
L244.534 202.86
L244.608 199.086
L244.682 172.032
L244.757 197.198
L244.831 189.019
L244.906 181.469
L244.98 183.986
L245.054 189.019
L245.129 226.139
L245.278 184.615
L245.352 183.986
L245.426 199.715
L245.501 151.271
L245.575 169.516
L245.65 196.569
L245.724 188.39
L246.022 219.847
L246.096 152.529
L246.17 197.827
L246.245 188.39
L246.319 196.569
L246.394 183.357
L246.468 189.019
L246.542 211.668
L246.691 148.754
L246.766 177.065
L246.84 168.887
L246.914 148.125
L247.063 177.065
L247.138 134.913
L247.286 197.198
L247.361 169.516
L247.435 200.973
L247.658 145.608
L247.807 184.615
L247.956 151.9
L248.03 186.503
L248.105 118.555
L248.254 183.357
L248.402 182.728
L248.551 214.814
L248.7 165.741
L248.849 197.198
L248.998 166.999
L249.072 175.807
L249.146 145.608
L249.221 148.754
L249.295 155.045
L249.37 134.284
L249.518 176.436
L249.593 172.032
L249.742 183.357
L249.816 185.874
L249.89 149.383
L249.965 161.966
L250.039 177.065
L250.114 151.9
L250.337 198.456
L250.486 164.483
L250.56 183.357
L250.709 144.979
L250.783 180.211
L250.858 124.217
L251.081 199.715
L251.155 217.331
L251.453 161.966
L251.527 158.82
L251.602 170.774
L251.676 148.754
L251.75 154.416
L251.825 197.827
L251.899 183.357
L251.974 184.615
L252.122 214.185
L252.271 168.887
L252.42 202.86
L252.494 178.953
L252.569 183.986
L252.718 215.443
L252.866 173.291
L252.941 192.165
L253.09 151.271
L253.164 180.211
L253.238 173.291
L253.387 158.82
L253.462 166.999
L253.536 123.588
L253.61 158.82
L253.685 158.191
L253.759 138.688
L253.908 177.695
L253.982 145.608
L254.131 202.231
L254.206 199.715
L254.28 187.761
L254.354 211.039
L254.429 208.523
L254.578 170.774
L254.726 200.973
L254.801 164.483
L254.875 168.887
L254.95 168.887
L255.024 151.9
L255.173 183.357
L255.247 233.689
L255.396 171.403
L255.545 190.278
L255.619 151.9
L255.768 188.39
L255.842 183.357
L256.066 224.251
L256.289 133.025
L256.586 178.324
L256.661 139.946
L256.735 173.291
L256.884 127.992
L257.033 148.125
L257.107 149.383
L257.256 177.065
L257.33 155.675
L257.479 199.715
L257.628 151.271
L257.702 178.953
L257.777 111.634
L257.851 119.813
L257.926 145.608
L258 126.105
L258.074 139.946
L258.149 178.953
L258.223 151.271
L258.298 155.675
L258.372 178.324
L258.521 151.271
L258.67 214.814
L258.744 188.39
L258.893 211.039
L258.967 185.874
L259.042 187.132
L259.116 183.357
L259.19 192.794
L259.339 151.9
L259.414 168.257
L259.488 155.045
L259.562 155.675
L259.637 166.37
L259.711 200.344
L259.86 180.211
L259.934 192.794
L260.232 103.455
L260.381 133.025
L260.455 105.343
L260.604 153.158
L260.678 138.058
L260.827 182.728
L260.902 165.741
L260.976 169.516
L261.05 200.973
L261.125 170.145
L261.199 184.615
L261.274 200.973
L261.348 189.648
L261.422 142.462
L261.571 180.84
L261.646 183.357
L261.72 154.416
L261.869 179.582
L261.943 151.271
L262.018 151.9
L262.092 169.516
L262.166 136.8
L262.315 197.198
L262.39 136.8
L262.464 151.9
L262.538 154.416
L262.687 114.151
L262.762 114.78
L263.134 204.119
L263.208 199.715
L263.282 153.158
L263.357 165.741
L263.431 172.032
L263.506 135.542
L263.58 153.158
L263.654 190.907
L263.729 177.065
L263.803 177.065
L263.952 229.285
L264.026 214.185
L264.175 189.019
L264.25 204.748
L264.324 201.602
L264.398 161.337
L264.473 175.807
L264.547 200.344
L264.622 121.072
L264.696 138.058
L264.77 165.112
L264.845 120.442
L264.919 142.462
L264.994 163.224
L265.068 154.416
L265.217 199.086
L265.291 197.198
L265.44 169.516
L265.514 196.569
L265.589 167.628
L265.663 180.211
L265.738 204.748
L265.812 202.231
L265.961 244.384
L266.035 222.364
L266.11 233.059
L266.184 229.285
L266.258 191.536
L266.333 222.993
L266.407 185.244
L266.482 201.602
L266.556 182.099
L266.63 187.132
L266.854 215.443
L266.928 217.331
L267.151 274.583
L267.3 233.059
L267.374 246.271
L267.523 222.993
L267.598 230.543
L267.97 113.522
L268.044 126.734
L268.118 131.138
L268.193 106.601
L268.49 185.244
L268.565 154.416
L268.639 178.953
L268.714 158.191
L268.788 163.853
L269.011 212.927
L269.16 189.019
L269.309 226.139
L269.383 216.072
L269.458 187.132
L269.606 208.523
L269.681 212.927
L269.755 187.761
L269.83 209.152
L269.904 165.741
L269.978 207.264
L270.053 160.708
L270.276 210.41
L270.425 200.973
L270.499 202.231
L270.574 197.827
L270.648 175.178
L270.797 212.927
L270.871 185.244
L270.946 198.456
L271.02 174.549
L271.094 180.84
L271.169 89.6142
L271.243 134.284
L271.318 138.688
L271.392 104.085
L271.466 149.383
L271.541 135.542
L271.69 161.966
L271.764 157.562
L271.987 232.43
L272.062 209.781
L272.21 213.556
L272.285 190.278
L272.359 216.702
L272.434 181.469
L272.508 198.456
L272.582 217.96
L272.806 182.728
L272.88 195.94
L272.954 190.278
L273.029 161.966
L273.178 178.953
L273.252 139.946
L273.401 172.032
L273.475 165.741
L273.698 196.569
L273.847 172.661
L273.922 198.456
L274.07 172.661
L274.145 197.198
L274.219 188.39
L274.368 156.933
L274.442 183.357
L274.517 150.012
L274.591 156.304
L274.74 185.244
L274.814 185.244
L274.889 183.986
L274.963 202.231
L275.112 169.516
L275.261 229.285
L275.335 195.94
L275.41 201.602
L275.484 204.119
L275.558 214.185
L275.633 166.37
L275.707 167.628
L275.782 174.549
L275.856 212.927
L275.93 180.84
L276.005 186.503
L276.079 185.874
L276.154 207.894
L276.302 182.099
L276.377 200.344
L276.526 152.529
L276.6 153.158
L276.674 170.774
L276.749 153.787
L276.898 206.006
L276.972 196.569
L277.046 192.165
L277.121 209.152
L277.27 172.661
L277.344 157.562
L277.493 185.874
L277.567 176.436
L277.716 212.298
L277.865 182.728
L278.014 197.198
L278.088 153.787
L278.162 168.257
L278.237 186.503
L278.311 154.416
L278.534 215.443
L278.609 198.456
L278.683 207.264
L278.758 195.94
L278.832 214.185
L278.906 143.721
L278.981 146.237
L279.055 155.675
L279.13 149.383
L279.204 151.271
L279.278 169.516
L279.353 167.628
L279.427 170.774
L279.576 197.198
L279.65 171.403
L279.874 198.456
L279.948 170.145
L280.097 210.41
L280.246 165.741
L280.394 214.814
L280.469 197.198
L280.543 204.748
L280.692 222.993
L280.841 153.787
L280.915 119.813
L280.99 164.483
L281.064 154.416
L281.362 169.516
L281.436 198.456
L281.51 155.045
L281.585 204.119
L281.659 197.198
L281.734 201.602
L281.808 165.741
L281.882 176.436
L281.957 189.648
L282.031 166.999
L282.254 212.927
L282.329 198.456
L282.403 206.006
L282.478 225.51
L282.552 217.96
L282.775 165.741
L282.85 168.257
L282.924 150.641
L282.998 160.079
L283.073 194.682
L283.147 138.058
L283.37 206.635
L283.519 182.728
L283.594 200.344
L283.742 183.357
L283.891 212.927
L284.04 151.271
L284.114 173.291
L284.189 166.999
L284.263 131.138
L284.338 139.317
L284.412 168.257
L284.486 107.859
L284.561 133.654
L284.635 123.588
L284.71 129.25
L284.933 182.728
L285.007 187.761
L285.082 212.927
L285.156 173.291
L285.23 178.953
L285.305 182.728
L285.454 166.999
L285.528 168.257
L285.602 172.661
L285.677 163.224
L285.826 183.986
L285.9 139.946
L286.049 183.357
L286.123 170.145
L286.198 135.542
L286.272 153.787
L286.421 111.005
L286.495 149.383
L286.57 117.926
L286.718 183.357
L286.793 150.641
L286.942 201.602
L287.09 167.628
L287.165 166.37
L287.314 146.237
L287.462 173.92
L287.537 145.608
L287.611 156.304
L287.686 168.257
L287.76 151.271
L287.909 177.695
L287.983 147.496
L288.132 180.84
L288.281 156.933
L288.43 171.403
L288.504 145.608
L288.578 158.82
L288.653 193.423
L288.727 143.092
L288.802 158.82
L288.876 187.132
L288.95 151.9
L289.025 167.628
L289.174 197.827
L289.248 185.874
L289.322 190.907
L289.471 213.556
L289.62 177.695
L289.694 190.278
L289.769 170.774
L289.992 197.827
L290.066 158.191
L290.141 165.112
L290.215 156.933
L290.29 118.555
L290.438 184.615
L290.513 151.271
L290.662 188.39
L290.736 169.516
L290.81 174.549
L290.885 175.178
L290.959 198.456
L291.034 152.529
L291.108 170.145
L291.182 199.715
L291.331 171.403
L291.48 211.039
L291.554 170.145
L291.629 183.357
L291.778 193.423
L291.852 166.37
L292.001 200.973
L292.15 154.416
L292.298 204.119
L292.447 172.661
L292.596 198.456
L292.67 169.516
L292.745 181.469
L292.819 187.761
L292.968 163.853
L293.042 171.403
L293.117 202.86
L293.191 177.695
L293.266 201.602
L293.34 197.827
L293.414 204.119
L293.563 157.562
L293.638 205.377
L293.712 173.92
L293.786 185.874
L293.935 219.218
L294.158 184.615
L294.233 194.052
L294.307 149.383
L294.382 155.045
L294.456 197.198
L294.53 170.774
L294.605 178.324
L294.679 173.92
L294.754 212.298
L294.828 177.065
L294.902 199.715
L294.977 196.569
L295.051 194.682
L295.126 186.503
L295.349 224.881
L295.423 187.132
L295.498 212.298
L295.572 204.119
L295.646 222.993
L295.721 178.324
L295.795 186.503
L295.944 202.86
L296.093 183.986
L296.242 216.072
L296.465 168.887
L296.539 195.311
L296.614 123.588
L296.762 168.257
L296.837 122.959
L296.986 199.086
L297.06 184.615
L297.209 209.152
L297.283 229.285
L297.358 207.894
L297.432 210.41
L297.506 230.543
L297.73 184.615
L297.804 168.887
L297.878 173.92
L297.953 163.853
L298.027 165.741
L298.102 168.887
L298.176 214.814
L298.25 171.403
L298.474 239.98
L298.622 183.357
L298.771 219.847
L298.92 158.191
L299.069 199.715
L299.143 139.317
L299.292 212.298
L299.441 169.516
L299.515 180.211
L299.59 175.178
L299.738 130.509
L299.813 144.979
L299.887 104.714
L299.962 136.171
L300.036 133.025
L300.11 139.317
L300.185 180.211
L300.259 170.145
L300.482 187.761
L300.557 150.012
L300.631 156.304
L300.706 196.569
L300.78 166.999
L300.854 170.774
L300.929 198.456
L301.003 185.244
L301.078 152.529
L301.152 160.708
L301.226 190.907
L301.375 165.112
L301.45 187.761
L301.524 166.999
L301.598 105.343
L301.673 158.191
L301.747 104.714
L301.822 119.813
L301.896 145.608
L301.97 121.701
L302.119 200.973
L302.268 184.615
L302.417 216.072
L302.491 126.105
L302.566 165.112
L302.64 185.874
L302.714 165.741
L302.789 171.403
L302.863 197.198
L302.938 189.648
L303.012 165.112
L303.086 168.887
L303.161 182.728
L303.235 135.542
L303.31 154.416
L303.384 175.178
L303.458 168.887
L303.533 161.337
L303.607 180.84
L303.756 126.105
L303.83 161.337
L303.979 118.555
L304.054 166.999
L304.128 142.462
L304.351 207.264
L304.426 177.065
L304.5 204.748
L304.574 199.715
L304.649 208.523
L304.798 174.549
L304.946 228.026
L305.095 173.291
L305.17 182.099
L305.244 165.741
L305.318 197.827
L305.393 179.582
L305.467 190.907
L305.542 153.158
L305.69 184.615
L305.765 184.615
L305.839 180.84
L305.914 187.761
L305.988 211.668
L306.062 166.999
L306.137 186.503
L306.211 161.337
L306.286 182.099
L306.434 156.304
L306.509 199.715
L306.583 182.099
L306.806 231.801
L306.955 151.271
L307.03 168.257
L307.178 139.946
L307.476 177.065
L307.55 204.119
L307.625 182.099
L307.699 183.357
L307.774 181.469
L307.848 183.357
L307.922 123.588
L307.997 150.012
L308.071 138.058
L308.146 141.204
L308.294 166.37
L308.369 145.608
L308.443 189.648
L308.518 185.874
L308.592 155.045
L308.666 164.483
L308.741 160.079
L308.815 136.8
L308.89 147.496
L308.964 181.469
L309.038 149.383
L309.113 159.449
L309.262 213.556
L309.336 189.019
L309.485 223.622
L309.559 221.735
L309.708 152.529
L309.782 170.145
L309.857 153.158
L310.08 174.549
L310.154 129.88
L310.229 150.641
L310.303 185.874
L310.378 168.887
L310.452 168.887
L310.526 198.456
L310.601 139.946
L310.675 166.999
L310.75 182.728
L310.824 168.887
L310.973 184.615
L311.047 182.099
L311.196 106.601
L311.27 146.237
L311.345 120.442
L311.419 153.158
L311.494 135.542
L311.568 138.688
L311.642 167.628
L311.791 149.383
L311.94 196.569
L312.014 155.675
L312.089 165.741
L312.163 155.045
L312.238 117.297
L312.312 132.396
L312.386 128.621
L312.461 116.667
L312.684 178.324
L312.833 205.377
L312.982 164.483
L313.056 180.211
L313.13 153.787
L313.279 189.648
L313.428 166.37
L313.577 183.357
L313.651 143.721
L313.726 156.304
L313.8 175.807
L313.874 164.483
L313.949 167.628
L314.023 194.052
L314.098 190.907
L314.172 177.065
L314.321 192.794
L314.47 167.628
L314.618 199.086
L314.693 168.887
L314.767 175.807
L314.916 203.49
L314.99 149.383
L315.065 168.257
L315.139 203.49
L315.214 172.032
L315.288 178.953
L315.362 182.099
L315.437 200.344
L315.511 169.516
L315.66 200.973
L315.734 204.748
L315.809 183.986
L315.883 190.278
L315.958 190.907
L316.106 148.754
L316.255 191.536
L316.33 157.562
L316.478 183.357
L316.553 157.562
L316.627 163.853
L316.702 169.516
L316.776 197.827
L316.85 172.032
L316.925 183.986
L316.999 212.927
L317.148 169.516
L317.222 170.145
L317.297 180.84
L317.371 154.416
L317.52 198.456
L317.594 170.145
L317.669 173.92
L317.743 167.628
L317.818 208.523
L317.892 189.648
L318.115 244.384
L318.19 217.331
L318.264 231.172
L318.338 219.847
L318.413 250.046
L318.487 238.093
L318.562 243.755
L318.71 189.648
L318.785 199.715
L318.859 199.086
L318.934 152.529
L319.008 198.456
L319.082 186.503
L319.157 180.211
L319.231 185.874
L319.38 217.331
L319.603 158.191
L319.678 168.257
L319.752 162.595
L319.826 139.946
L319.901 181.469
L319.975 146.237
L320.05 150.012
L320.124 168.257
L320.273 137.429
L320.347 166.37
L320.422 138.058
L320.57 175.178
L320.645 143.092
L320.719 155.045
L320.868 182.728
L320.942 172.032
L321.017 172.661
L321.091 170.774
L321.24 151.271
L321.314 173.92
L321.389 144.979
L321.538 192.794
L321.612 189.019
L321.686 173.291
L321.761 184.615
L321.835 214.814
L321.91 194.682
L321.984 200.973
L322.133 223.622
L322.207 187.761
L322.282 203.49
L322.356 194.052
L322.43 207.894
L322.579 173.92
L322.728 192.794
L322.802 164.483
L322.951 194.682
L323.026 199.715
L323.174 161.966
L323.249 178.324
L323.323 149.383
L323.398 161.337
L323.472 189.648
L323.546 165.112
L323.695 199.086
L323.844 154.416
L323.918 149.383
L323.993 150.641
L324.067 121.701
L324.216 161.337
L324.365 198.456
L324.439 214.185
L324.514 182.728
L324.588 183.357
L324.662 182.728
L324.737 185.874
L324.886 166.999
L324.96 183.986
L325.034 179.582
L325.183 170.774
L325.258 194.682
L325.332 137.429
L325.406 159.449
L325.481 170.145
L325.555 128.621
L325.704 188.39
L325.778 169.516
L326.002 192.165
L326.076 192.794
L326.299 164.483
L326.374 168.887
L326.448 175.807
L326.522 193.423
L326.597 180.211
L326.671 184.615
L326.82 202.231
L326.969 168.887
L327.043 182.728
L327.118 150.012
L327.192 153.787
L327.266 154.416
L327.341 148.754
L327.564 182.099
L327.638 180.211
L327.787 217.331
L327.936 189.648
L328.085 212.298
L328.159 206.635
L328.308 173.291
L328.382 200.973
L328.531 172.661
L328.606 179.582
L328.68 212.927
L328.754 155.045
L328.978 206.006
L329.052 179.582
L329.126 183.357
L329.201 192.165
L329.275 183.357
L329.35 192.165
L329.573 122.33
L329.722 150.641
L329.796 121.072
L329.945 155.045
L330.094 188.39
L330.168 211.668
L330.242 172.661
L330.317 183.357
L330.391 185.244
L330.54 166.999
L330.689 188.39
L330.763 168.257
L330.838 170.774
L330.912 185.874
L331.061 168.887
L331.21 204.748
L331.358 165.112
L331.582 124.217
L331.656 150.641
L331.805 131.138
L331.879 173.291
L331.954 145.608
L332.102 193.423
L332.251 149.383
L332.326 154.416
L332.4 134.913
L332.549 168.257
L332.698 150.012
L332.846 182.728
L332.921 182.728
L333.07 213.556
L333.144 199.086
L333.218 153.787
L333.293 182.728
L333.442 136.8
L333.59 156.933
L333.739 140.575
L333.814 163.224
L333.888 122.959
L334.037 180.84
L334.111 157.562
L334.26 183.986
L334.334 153.787
L334.409 165.112
L334.483 170.774
L334.558 164.483
L334.632 139.317
L334.706 166.999
L334.781 165.112
L334.855 141.833
L334.93 159.449
L335.078 131.138
L335.153 168.257
L335.227 164.483
L335.302 138.058
L335.376 157.562
L335.525 122.959
L335.599 146.866
L335.674 124.846
L336.194 213.556
L336.492 168.257
L336.641 192.165
L336.715 153.158
L336.79 166.37
L336.938 141.204
L337.013 145.608
L337.087 155.045
L337.162 131.767
L337.31 172.032
L337.385 121.701
L337.459 221.106
L337.608 157.562
L337.682 166.37
L337.757 159.449
L337.831 195.311
L337.906 172.032
L337.98 198.456
L338.054 195.94
L338.129 200.344
L338.278 153.787
L338.352 205.377
L338.426 158.191
L338.501 175.178
L338.575 165.741
L338.65 197.827
L338.798 148.754
L338.873 200.973
L338.947 167.628
L339.022 175.178
L339.096 209.152
L339.17 200.973
L339.245 204.119
L339.468 236.205
L339.617 193.423
L339.766 230.543
L339.84 234.318
L339.989 214.814
L340.212 241.238
L340.286 241.238
L340.361 236.834
L340.435 245.013
L340.51 231.801
L340.584 262
L340.658 221.735
L340.733 241.867
L340.807 221.106
L340.882 251.305
L340.956 243.755
L341.03 260.113
L341.179 202.86
L341.254 214.814
L341.328 204.119
L341.402 228.655
L341.477 187.761
L341.551 195.311
L341.626 173.92
L341.7 189.019
L341.774 158.82
L341.849 167.628
L341.923 170.774
L341.998 151.271
L342.146 208.523
L342.221 202.86
L342.37 197.827
L342.444 202.231
L342.518 201.602
L342.593 153.158
L342.742 201.602
L342.89 166.999
L342.965 186.503
L343.114 117.926
L343.262 119.184
L343.411 152.529
L343.486 136.8
L343.634 163.853
L343.709 153.158
L343.783 155.045
L343.858 200.344
L343.932 157.562
L344.006 160.708
L344.155 136.8
L344.304 170.145
L344.378 137.429
L344.453 152.529
L344.527 166.37
L344.676 112.263
L344.75 148.754
L344.825 87.7268
L344.974 152.529
L345.048 122.33
L345.197 169.516
L345.271 103.455
L345.346 140.575
L345.42 111.634
L345.569 165.741
L345.643 133.025
L345.792 157.562
L345.941 119.813
L346.015 167.628
L346.09 121.072
L346.164 136.8
L346.238 166.37
L346.313 137.429
L346.387 138.688
L346.462 182.099
L346.536 107.23
L346.685 177.695
L346.759 139.946
L346.834 200.344
L346.908 183.986
L346.982 151.9
L347.131 192.165
L347.206 159.449
L347.28 162.595
L347.354 164.483
L347.429 162.595
L347.726 104.714
L347.801 169.516
L347.875 163.224
L347.95 155.045
L348.098 195.94
L348.173 151.9
L348.247 155.675
L348.322 178.953
L348.396 123.588
L348.545 185.874
L348.619 166.37
L348.694 168.887
L348.842 192.165
L349.066 183.986
L349.14 138.058
L349.214 152.529
L349.289 182.099
L349.363 153.787
L349.438 154.416
L349.586 177.065
L349.661 165.741
L349.735 175.178
L349.81 201.602
L349.958 155.675
L350.033 196.569
L350.182 151.271
L350.256 155.675
L350.33 163.224
L350.405 127.992
L350.479 161.337
L350.554 155.045
L350.628 133.654
L350.702 153.787
L350.851 120.442
L350.926 154.416
L351 146.866
L351.074 130.509
L351.149 146.866
L351.223 102.197
L351.372 145.608
L351.446 134.913
L351.595 154.416
L351.67 124.217
L351.744 165.112
L351.818 149.383
L351.893 153.158
L352.042 168.887
L352.116 166.37
L352.19 171.403
L352.265 184.615
L352.339 151.9
L352.414 166.37
L352.488 183.357
L352.562 140.575
L352.711 182.099
L352.86 144.35
L353.009 172.661
L353.083 161.337
L353.232 183.357
L353.306 160.079
L353.455 192.165
L353.604 151.271
L353.678 170.774
L353.753 166.999
L353.827 154.416
L353.976 197.198
L354.05 168.257
L354.199 196.569
L354.274 189.019
L354.348 166.37
L354.422 167.628
L354.497 170.145
L354.571 150.641
L354.72 199.715
L354.869 172.032
L355.018 215.443
L355.092 167.628
L355.166 178.324
L355.241 179.582
L355.315 214.185
L355.39 183.986
L355.464 185.244
L355.538 190.907
L355.613 206.006
L355.687 170.774
L355.762 176.436
L355.836 209.781
L355.91 199.086
L355.985 166.999
L356.134 202.231
L356.208 165.112
L356.282 170.774
L356.357 182.728
L356.431 215.443
L356.58 182.728
L356.654 193.423
L356.729 239.351
L356.803 200.973
L356.878 216.702
L356.952 246.271
L357.026 218.589
L357.101 246.271
L357.175 183.986
L357.25 198.456
L357.324 187.132
L357.398 229.914
L357.473 183.986
L357.547 200.344
L357.622 195.311
L357.696 197.198
L357.77 146.866
L357.845 151.271
L357.919 170.774
L357.994 133.654
L358.068 151.271
L358.142 171.403
L358.217 133.654
L358.366 168.887
L358.44 134.284
L358.589 183.357
L358.663 137.429
L358.738 143.092
L358.812 161.337
L358.886 105.343
L359.035 163.853
L359.11 136.8
L359.258 202.86
L359.333 148.125
L359.407 155.045
L359.482 151.271
L359.556 97.164
L359.63 99.6806
L359.705 133.025
L359.779 114.78
L359.854 139.317
L359.928 107.859
L360.077 151.271
L360.151 126.105
L360.226 136.8
L360.3 148.754
L360.374 133.654
L360.523 151.9
L360.598 141.204
L360.746 166.999
L360.97 100.31
L361.044 100.31
L361.342 158.191
L361.416 139.946
L361.49 146.866
L361.565 167.628
L361.788 111.005
L361.937 158.191
L362.086 135.542
L362.16 170.145
L362.234 141.833
L362.309 162.595
L362.458 130.509
L362.606 173.291
L362.681 162.595
L362.904 181.469
L362.978 153.158
L363.127 207.894
L363.202 145.608
L363.425 200.973
L363.574 172.661
L363.648 199.086
L363.722 166.37
L363.797 167.628
L363.871 158.82
L364.02 180.84
L364.094 168.887
L364.169 203.49
L364.318 159.449
L364.392 163.224
L364.541 122.959
L364.615 149.383
L364.69 117.297
L364.838 168.887
L364.913 152.529
L364.987 156.933
L365.062 183.357
L365.136 151.271
L365.21 180.84
L365.285 160.708
L365.359 202.231
L365.434 187.761
L365.508 190.278
L365.582 212.298
L365.657 206.006
L365.806 216.702
L365.88 206.635
L365.954 243.126
L366.029 199.715
L366.103 217.96
L366.326 240.609
L366.401 202.231
L366.475 219.218
L366.698 234.947
L366.922 201.602
L366.996 297.861
L367.07 196.569
L367.145 204.119
L367.219 197.198
L367.368 230.543
L367.517 179.582
L367.591 202.231
L367.814 168.887
L367.963 212.298
L368.038 187.761
L368.112 195.94
L368.261 226.768
L368.335 187.761
L368.484 231.801
L368.558 218.589
L368.633 264.517
L368.707 216.702
L368.782 217.96
L369.005 248.788
L369.154 216.072
L369.302 248.788
L369.451 214.814
L369.526 215.443
L369.6 238.093
L369.674 224.251
L369.749 248.159
L369.898 216.072
L369.972 217.96
L370.046 214.185
L370.121 214.814
L370.195 188.39
L370.27 199.715
L370.493 229.914
L370.567 187.761
L370.642 197.827
L370.716 182.728
L370.79 220.477
L370.865 199.086
L371.088 231.801
L371.311 188.39
L371.46 214.185
L371.534 183.986
L371.758 231.172
L371.832 202.231
L371.906 211.668
L372.13 183.357
L372.278 216.702
L372.353 219.847
L372.427 215.443
L372.576 170.774
L372.65 213.556
L372.799 174.549
L372.948 219.218
L373.022 199.715
L373.097 200.973
L373.171 198.456
L373.246 211.039
L373.32 204.748
L373.394 166.999
L373.543 217.96
L373.618 168.887
L373.692 180.211
L373.841 230.543
L373.99 200.973
L374.213 234.947
L374.287 200.344
L374.362 212.927
L374.436 186.503
L374.51 217.331
L374.659 169.516
L374.734 185.874
L374.808 231.172
L374.882 168.887
L374.957 186.503
L375.031 216.702
L375.106 213.556
L375.18 154.416
L375.254 181.469
L375.329 185.874
L375.403 167.628
L375.478 168.887
L375.552 166.999
L375.626 186.503
L375.701 165.112
L375.85 215.443
L375.998 174.549
L376.147 194.682
L376.222 144.35
L376.296 148.125
L376.37 180.211
L376.519 138.058
L376.594 189.648
L376.668 147.496
L376.742 164.483
L377.114 198.456
L377.263 154.416
L377.338 167.628
L377.412 164.483
L377.486 114.151
L377.561 180.211
L377.635 172.661
L377.71 162.595
L377.858 206.635
L377.933 179.582
L378.007 198.456
L378.23 168.257
L378.379 189.019
L378.454 131.138
L378.528 139.946
L378.602 165.112
L378.677 121.701
L378.826 170.774
L378.9 166.999
L378.974 155.675
L379.049 200.344
L379.123 182.728
L379.198 151.9
L379.346 200.973
L379.421 150.641
L379.495 172.032
L379.57 184.615
L379.644 180.84
L379.718 157.562
L379.867 198.456
L379.942 137.429
L380.016 151.9
L380.09 216.702
L380.165 184.615
L380.239 186.503
L380.388 226.768
L380.537 172.032
L380.686 230.543
L380.76 168.257
L380.834 172.661
L380.983 198.456
L381.058 138.058
L381.206 202.231
L381.43 167.628
L381.504 217.331
L381.578 168.887
L381.653 169.516
L381.727 183.357
L381.876 148.125
L382.025 169.516
L382.099 123.588
L382.174 167.628
L382.248 151.9
L382.397 170.774
L382.471 202.86
L382.62 170.145
L382.694 200.344
L382.843 168.887
L382.918 165.112
L383.066 134.284
L383.215 153.787
L383.29 105.343
L383.438 178.953
L383.513 166.999
L383.81 216.702
L383.885 185.874
L383.959 200.973
L384.034 194.682
L384.108 136.8
L384.257 207.894
L384.331 164.483
L384.406 165.112
L384.48 187.761
L384.554 138.058
L384.629 148.125
L384.703 192.794
L384.778 161.337
L385.001 215.443
L385.15 166.37
L385.224 167.628
L385.298 214.814
L385.447 168.887
L385.522 199.715
L385.67 166.999
L385.745 171.403
L385.819 199.715
L385.894 184.615
L385.968 190.907
L386.042 213.556
L386.266 150.012
L386.414 135.542
L386.489 153.158
L386.563 197.827
L386.638 167.628
L386.712 168.887
L386.786 172.661
L386.861 131.138
L386.935 155.045
L387.01 150.641
L387.084 149.383
L387.158 143.092
L387.233 183.986
L387.307 130.509
L387.53 201.602
L387.605 196.569
L387.679 201.602
L387.754 216.072
L387.828 214.185
L387.902 153.787
L387.977 183.357
L388.051 198.456
L388.126 171.403
L388.2 191.536
L388.274 177.695
L388.349 212.927
L388.423 151.9
L388.498 169.516
L388.646 197.827
L388.721 154.416
L388.87 212.927
L388.944 199.715
L389.018 163.224
L389.167 204.748
L389.242 166.37
L389.465 226.768
L389.539 156.304
L389.614 197.198
L389.688 185.874
L389.762 200.973
L389.837 166.37
L389.986 199.715
L390.134 153.158
L390.283 228.655
L390.358 176.436
L390.506 209.152
L390.581 211.668
L390.953 103.455
L391.027 139.317
L391.102 87.0977
L391.25 139.946
L391.325 134.913
L391.474 184.615
L391.548 168.257
L391.697 213.556
L391.846 151.9
L391.92 171.403
L391.994 163.224
L392.069 109.118
L392.143 179.582
L392.218 141.204
L392.441 214.814
L392.515 153.787
L392.664 210.41
L392.738 207.894
L392.813 216.702
L392.887 187.132
L393.036 251.305
L393.185 229.285
L393.259 234.947
L393.334 261.371
L393.408 236.834
L393.482 260.113
L393.631 207.894
L393.706 214.814
L393.78 216.072
L393.854 242.497
L394.003 199.086
L394.226 256.967
L394.45 200.973
L394.598 245.642
L394.673 200.344
L394.747 217.331
L394.97 278.987
L395.119 277.729
L395.194 233.059
L395.268 251.934
L395.491 234.947
L395.566 168.257
L395.64 174.549
L395.714 206.006
L395.863 155.675
L396.012 187.132
L396.086 151.9
L396.161 152.529
L396.235 183.357
L396.31 122.959
L396.533 196.569
L396.607 153.787
L396.756 200.344
L396.83 156.304
L396.905 157.562
L396.979 165.112
L397.054 160.079
L397.128 139.946
L397.202 168.887
L397.277 165.112
L397.351 154.416
L397.426 155.045
L397.5 199.086
L397.574 151.9
L397.649 166.999
L397.723 182.728
L397.798 135.542
L397.872 151.9
L397.946 183.357
L398.021 153.787
L398.17 186.503
L398.393 154.416
L398.467 211.039
L398.542 138.688
L398.616 166.37
L398.69 183.357
L398.765 121.701
L398.839 138.688
L398.914 165.112
L399.062 139.317
L399.137 199.715
L399.211 182.099
L399.286 185.874
L399.434 210.41
L399.509 212.298
L399.658 185.874
L399.732 183.357
L399.806 150.641
L399.955 194.682
L400.104 151.9
L400.253 180.84
L400.327 151.9
L400.402 155.675
L400.476 180.84
L400.625 151.9
L400.699 185.244
L400.774 138.058
L400.848 151.9
L400.922 198.456
L400.997 155.675
L401.22 231.801
L401.369 175.178
L401.443 176.436
L401.518 201.602
L401.666 154.416
L401.741 182.728
L401.815 151.9
L401.89 153.787
L402.038 180.84
L402.262 153.787
L402.336 153.158
L402.485 197.198
L402.559 147.496
L402.634 161.966
L402.708 180.211
L402.857 144.35
L402.931 163.853
L403.08 142.462
L403.154 163.224
L403.229 150.012
L403.303 153.158
L403.378 154.416
L403.452 149.383
L403.526 153.158
L403.675 190.907
L403.75 165.741
L403.824 170.774
L403.898 198.456
L403.973 138.688
L404.047 164.483
L404.122 172.661
L404.196 158.191
L404.27 161.337
L404.419 197.198
L404.494 151.9
L404.568 166.37
L404.642 170.774
L404.717 136.8
L404.791 150.012
L404.866 198.456
L404.94 139.317
L405.089 199.086
L405.163 199.086
L405.312 165.741
L405.386 186.503
L405.461 137.429
L405.535 151.271
L405.61 181.469
L405.758 149.383
L405.907 192.165
L405.982 153.787
L406.13 202.86
L406.279 172.661
L406.354 196.569
L406.428 183.986
L406.502 122.33
L406.651 197.198
L406.726 139.317
L406.8 155.045
L406.949 168.257
L407.023 155.675
L407.098 195.94
L407.172 186.503
L407.246 211.668
L407.47 137.429
L407.544 143.092
L407.693 162.595
L407.842 187.761
L407.916 229.914
L407.99 170.774
L408.065 178.953
L408.214 199.086
L408.288 152.529
L408.362 170.774
L408.437 196.569
L408.511 137.429
L408.66 188.39
L408.883 168.887
L408.958 202.86
L409.032 183.357
L409.255 225.51
L409.404 180.211
L409.478 186.503
L409.553 202.231
L409.627 169.516
L409.702 183.986
L409.85 216.702
L409.925 184.615
L409.999 186.503
L410.148 233.689
L410.371 183.357
L410.594 134.913
L410.743 168.887
L410.818 133.654
L410.966 195.94
L411.041 167.628
L411.19 229.914
L411.338 195.311
L411.487 216.702
L411.562 231.172
L411.636 185.244
L411.71 202.86
L411.859 219.847
L411.934 182.728
L412.008 212.298
L412.082 195.94
L412.157 224.251
L412.306 153.787
L412.38 166.37
L412.529 136.171
L412.603 151.271
L412.678 105.972
L412.826 183.986
L412.901 168.257
L413.124 198.456
L413.198 173.92
L413.273 179.582
L413.422 190.907
L413.496 181.469
L413.719 209.781
L413.868 153.158
L413.942 151.271
L414.017 120.442
L414.166 168.887
L414.24 153.158
L414.389 184.615
L414.538 156.304
L414.612 185.244
L414.686 181.469
L414.835 160.079
L414.91 206.006
L414.984 168.257
L415.058 184.615
L415.133 184.615
L415.282 140.575
L415.356 167.628
L415.43 138.058
L415.505 148.754
L415.579 157.562
L415.654 146.866
L415.802 170.145
L415.877 214.814
L415.951 180.211
L416.174 214.185
L416.323 164.483
L416.398 187.761
L416.472 184.615
L416.546 166.37
L416.621 171.403
L416.695 212.927
L416.77 168.887
L416.844 202.231
L416.918 198.456
L416.993 215.443
L417.067 185.244
L417.142 197.827
L417.29 184.615
L417.439 212.927
L417.514 200.973
L417.588 204.748
L417.662 135.542
L417.737 152.529
L417.811 180.84
L417.886 106.601
L417.96 135.542
L418.034 168.257
L418.109 136.8
L418.258 202.86
L418.332 168.887
L418.406 179.582
L418.555 199.715
L418.704 163.224
L418.778 199.715
L418.853 183.357
L418.927 155.045
L419.002 178.953
L419.076 263.258
L419.15 90.8725
L419.299 201.602
L419.374 248.159
L419.448 213.556
L419.522 239.351
L419.597 229.285
L419.671 216.702
L419.746 231.172
L419.894 184.615
L419.969 185.874
L420.043 216.072
L420.118 167.628
L420.192 185.874
L420.266 182.728
L420.341 200.973
L420.415 182.728
L420.638 217.331
L420.862 183.357
L420.936 219.218
L421.01 151.9
L421.085 197.198
L421.159 186.503
L421.234 151.271
L421.308 154.416
L421.382 166.999
L421.457 165.741
L421.531 139.317
L421.606 199.086
L421.68 185.874
L421.754 182.099
L422.052 273.954
L422.201 204.748
L422.275 245.642
L422.35 219.218
L422.424 232.43
L422.498 200.344
L422.573 211.668
L422.647 217.331
L422.796 234.947
L422.945 169.516
L423.019 198.456
L423.168 152.529
L423.242 168.887
L423.317 202.231
L423.391 181.469
L423.466 220.477
L423.54 214.185
L423.614 232.43
L423.763 183.357
L423.838 185.244
L423.912 215.443
L424.061 172.661
L424.135 182.099
L424.21 217.331
L424.433 182.728
L424.507 218.589
L424.656 158.82
L424.73 161.966
L424.879 149.383
L425.028 214.814
L425.102 202.231
L425.177 183.357
L425.326 231.172
L425.4 183.986
L425.474 186.503
L425.623 216.702
L425.772 172.032
L425.846 180.84
L425.921 205.377
L425.995 102.197
L426.144 166.999
L426.218 119.813
L426.367 169.516
L426.442 134.284
L426.59 199.086
L426.665 168.257
L426.739 183.357
L426.814 188.39
L426.888 228.655
L426.962 186.503
L427.037 199.715
L427.111 200.344
L427.186 217.331
L427.334 185.244
L427.483 231.172
L427.632 183.986
L427.855 141.204
L428.004 188.39
L428.078 152.529
L428.153 166.999
L428.227 197.827
L428.302 183.986
L428.376 184.615
L428.525 222.993
L428.599 215.443
L428.674 171.403
L428.748 201.602
L428.822 200.344
L428.897 216.702
L428.971 170.774
L429.194 230.543
L429.269 155.675
L429.343 165.112
L429.418 186.503
L429.492 138.058
L429.566 152.529
L429.641 176.436
L429.715 160.708
L429.79 166.37
L429.938 219.847
L430.087 170.145
L430.162 199.086
L430.236 185.244
L430.31 155.045
L430.459 210.41
L430.608 165.112
L430.757 204.119
L430.831 179.582
L430.98 216.072
L431.054 203.49
L431.129 202.86
L431.278 134.913
L431.426 138.688
L431.501 119.813
L431.65 151.271
L431.724 136.171
L431.798 173.92
L431.873 150.641
L431.947 151.271
L432.022 156.304
L432.096 178.324
L432.17 124.217
L432.319 182.728
L432.394 135.542
L432.542 202.231
L432.617 154.416
L432.766 182.728
L432.84 157.562
L432.914 180.84
L432.989 159.449
L433.063 177.695
L433.138 138.058
L433.286 168.257
L433.361 120.442
L433.435 169.516
L433.51 166.999
L433.584 155.045
L433.807 229.914
L433.956 170.774
L434.03 220.477
L434.105 132.396
L434.179 153.787
L434.328 166.999
L434.402 138.688
L434.551 187.132
L434.626 173.291
L434.774 201.602
L434.849 200.344
L434.923 167.628
L434.998 169.516
L435.146 201.602
L435.221 185.874
L435.37 217.331
L435.593 182.099
L435.667 215.443
L435.742 161.966
L435.816 192.794
L435.89 169.516
L435.965 184.615
L436.114 147.496
L436.188 219.847
L436.262 146.866
L436.337 154.416
L436.411 212.927
L436.486 156.933
L436.56 166.999
L436.709 219.218
L436.783 168.887
L437.006 233.059
L437.081 230.543
L437.155 217.331
L437.23 183.986
L437.378 216.072
L437.453 173.291
L437.527 214.814
L437.602 188.39
L437.676 241.867
L437.75 171.403
L437.825 187.132
L437.974 200.344
L438.122 169.516
L438.197 183.357
L438.346 153.787
L438.494 202.231
L438.569 166.999
L438.718 199.715
L438.866 181.469
L438.941 185.874
L439.015 199.715
L439.09 185.874
L439.164 199.086
L439.238 198.456
L439.313 199.086
L439.387 170.774
L439.462 183.986
L439.536 184.615
L439.61 200.973
L439.685 182.728
L439.908 245.642
L439.982 191.536
L440.057 213.556
L440.131 231.172
L440.206 222.364
L440.28 261.371
L440.429 183.357
L440.578 226.768
L440.726 170.774
L440.875 219.847
L440.95 200.344
L441.098 216.072
L441.173 204.119
L441.247 231.801
L441.322 204.119
L441.396 211.039
L441.47 202.86
L441.545 228.026
L441.694 176.436
L441.842 197.827
L441.917 150.641
L441.991 166.37
L442.14 150.012
L442.214 150.641
L442.289 188.39
L442.363 165.112
L442.438 165.741
L442.586 184.615
L442.661 151.9
L442.735 165.112
L442.81 192.165
L442.884 163.853
L442.958 166.37
L443.107 199.086
L443.182 139.946
L443.256 168.257
L443.33 202.86
L443.405 162.595
L443.479 170.774
L443.554 197.198
L443.702 155.045
L443.851 185.244
L443.926 180.211
L444 187.132
L444.074 212.927
L444.149 203.49
L444.298 183.357
L444.446 213.556
L444.521 170.145
L444.595 185.874
L444.67 198.456
L444.744 183.357
L444.893 200.344
L444.967 188.39
L445.042 216.702
L445.116 183.357
L445.19 197.198
L445.265 186.503
L445.339 154.416
L445.414 166.999
L445.488 189.019
L445.562 180.84
L445.637 178.324
L445.786 211.668
L445.86 185.244
L446.158 249.417
L446.306 204.119
L446.381 244.384
L446.455 232.43
L446.53 233.689
L446.678 200.344
L446.753 202.231
L446.827 214.185
L446.976 184.615
L447.199 216.702
L447.274 197.198
L447.348 199.086
L447.422 191.536
L447.497 226.768
L447.646 183.986
L447.794 212.298
L447.869 202.231
L447.943 174.549
L448.018 192.165
L448.092 185.244
L448.166 152.529
L448.315 204.119
L448.39 155.675
L448.464 165.741
L448.613 216.702
L448.687 170.145
L448.91 218.589
L448.985 183.986
L449.059 185.874
L449.208 220.477
L449.282 196.569
L449.357 199.715
L449.506 222.364
L449.58 212.298
L449.654 184.615
L449.803 213.556
L449.952 165.741
L450.026 176.436
L450.101 204.119
L450.175 158.191
L450.25 176.436
L450.324 183.986
L450.473 151.9
L450.547 181.469
L450.622 173.92
L450.77 186.503
L450.919 241.238
L450.994 168.257
L451.068 217.331
L451.142 200.973
L451.217 234.318
L451.44 199.715
L451.514 232.43
L451.589 231.172
L451.663 184.615
L451.738 216.702
L451.812 200.344
L451.886 216.702
L452.035 136.171
L452.11 200.344
L452.258 134.284
L452.333 170.145
L452.407 136.8
L452.63 234.318
L452.705 212.927
L452.779 233.059
L452.854 219.218
L452.928 230.543
L453.002 229.914
L453.077 186.503
L453.151 200.344
L453.226 201.602
L453.3 241.867
L453.449 192.794
L453.523 208.523
L453.598 207.264
L453.672 157.562
L453.746 180.211
L453.895 220.477
L454.044 191.536
L454.118 191.536
L454.193 192.165
L454.267 138.058
L454.416 197.827
L454.49 157.562
L454.714 219.847
L454.862 183.986
L454.937 200.973
L455.011 199.086
L455.086 167.628
L455.309 211.668
L455.383 200.344
L455.458 214.814
L455.532 214.185
L455.606 219.218
L455.755 163.224
L455.904 218.589
L455.978 183.357
L456.202 239.351
L456.276 243.126
L456.35 216.702
L456.425 229.285
L456.499 233.689
L456.574 217.96
L456.648 231.172
L456.722 199.715
L456.797 216.072
L456.871 202.86
L456.946 231.801
L457.094 199.715
L457.169 201.602
L457.243 197.827
L457.318 202.86
L457.392 182.728
L457.466 187.761
L457.541 213.556
L457.615 204.119
L457.69 199.715
L457.913 245.642
L457.987 234.947
L458.062 200.344
L458.136 216.702
L458.21 216.072
L458.285 247.53
L458.434 202.86
L458.657 233.059
L458.731 199.086
L458.806 204.748
L458.88 198.456
L458.954 245.013
L459.029 233.059
L459.103 186.503
L459.326 233.059
L459.401 197.198
L459.475 202.86
L459.55 201.602
L459.698 232.43
L459.773 197.198
L459.847 201.602
L459.922 199.715
L459.996 217.96
L460.07 186.503
L460.294 236.205
L460.368 226.768
L460.517 261.371
L460.666 233.059
L460.74 250.676
L460.814 246.271
L460.889 217.331
L461.038 248.788
L461.112 246.901
L461.186 234.947
L461.261 276.47
L461.335 169.516
L461.41 200.973
L461.484 201.602
L461.558 218.589
L461.633 211.668
L461.782 199.086
L461.856 234.318
L461.93 170.145
L462.005 183.986
L462.154 228.026
L462.228 188.39
L462.302 199.715
L462.377 201.602
L462.451 228.026
L462.6 181.469
L462.749 217.331
L462.898 169.516
L462.972 185.874
L463.046 197.198
L463.121 155.045
L463.195 166.999
L463.344 177.695
L463.418 165.112
L463.567 224.251
L463.642 204.119
L463.79 184.615
L463.865 221.735
L464.014 175.178
L464.162 197.827
L464.311 152.529
L464.46 200.344
L464.534 166.37
L464.758 229.914
L464.832 201.602
L464.906 214.814
L464.981 201.602
L465.055 231.801
L465.13 182.728
L465.204 187.132
L465.278 185.244
L465.353 202.86
L465.427 146.866
L465.502 166.999
L465.65 135.542
L465.874 165.112
L465.948 169.516
L466.097 214.814
L466.171 183.357
L466.394 250.046
L466.543 186.503
L466.692 204.119
L466.766 166.999
L466.841 170.145
L466.99 200.344
L467.064 181.469
L467.213 202.86
L467.287 197.827
L467.436 135.542
L467.51 171.403
L467.585 152.529
L467.734 209.152
L467.882 121.701
L467.957 148.754
L468.031 102.826
L468.106 122.959
L468.18 134.284
L468.254 125.476
L468.403 189.019
L468.478 195.311
L468.552 187.761
L468.626 210.41
L468.775 166.37
L468.924 201.602
L468.998 172.032
L469.073 182.728
L469.147 182.728
L469.296 150.012
L469.37 155.675
L469.445 190.278
L469.519 144.35
L469.594 166.999
L469.668 184.615
L469.742 151.271
L469.817 154.416
L469.891 198.456
L469.966 185.244
L470.04 170.145
L470.189 186.503
L470.263 184.615
L470.561 119.813
L470.635 137.429
L470.71 119.184
L470.858 151.271
L470.933 136.8
L471.082 201.602
L471.23 183.357
L471.379 214.814
L471.454 156.304
L471.528 163.853
L471.602 175.178
L471.677 164.483
L471.9 215.443
L472.049 169.516
L472.198 214.814
L472.272 161.337
L472.346 163.853
L472.421 185.244
L472.495 149.383
L472.57 153.787
L472.718 178.953
L472.793 158.191
L472.942 184.615
L473.016 155.045
L473.09 166.37
L473.165 189.648
L473.239 149.383
L473.462 214.185
L473.537 197.827
L473.611 214.185
L473.686 209.152
L473.76 207.894
L473.909 171.403
L474.058 194.682
L474.132 171.403
L474.355 203.49
L474.504 199.086
L474.578 191.536
L474.653 144.35
L474.727 144.979
L474.802 165.112
L474.95 121.701
L475.025 165.741
L475.099 122.959
L475.248 194.052
L475.322 185.874
L475.397 188.39
L475.471 195.311
L475.694 166.37
L475.769 168.257
L475.843 200.973
L475.918 136.8
L475.992 164.483
L476.141 153.787
L476.215 153.787
L476.29 195.94
L476.364 182.728
L476.438 189.648
L476.513 226.768
L476.587 221.735
L476.736 150.012
L476.885 185.874
L476.959 166.37
L477.108 202.86
L477.257 152.529
L477.406 183.357
L477.48 139.317
L477.554 153.787
L477.629 183.357
L477.703 120.442
L477.852 185.244
L477.926 151.271
L478.001 166.999
L478.075 216.702
L478.15 198.456
L478.224 187.132
L478.298 190.907
L478.373 211.039
L478.522 161.337
L478.596 170.145
L478.67 185.244
L478.745 139.946
L478.894 170.774
L478.968 150.641
L479.042 153.787
L479.117 180.211
L479.191 139.946
L479.266 151.9
L479.34 187.132
L479.489 166.37
L479.563 166.37
L479.638 168.257
L479.712 136.8
L479.786 139.946
L479.861 149.383
L479.935 107.23
L480.01 150.641
L480.084 105.972
L480.233 196.569
L480.307 183.357
L480.382 187.132
L480.456 229.285
L480.53 219.218
L480.605 228.655
L480.679 203.49
L480.828 232.43
L480.902 227.397
L480.977 187.761
L481.051 199.086
L481.126 170.145
L481.2 198.456
L481.274 135.542
L481.349 145.608
L481.423 193.423
L481.498 143.092
L481.721 223.622
L481.944 168.257
L482.018 187.132
L482.093 165.741
L482.167 170.774
L482.242 183.357
L482.316 168.257
L482.39 169.516
L482.465 182.728
L482.614 151.9
L482.688 165.112
L482.762 183.986
L482.837 155.045
L482.986 197.198
L483.06 195.311
L483.134 188.39
L483.358 133.025
L483.506 168.887
L483.581 153.158
L483.73 199.715
L483.878 197.827
L483.953 200.344
L484.027 209.152
L484.176 170.774
L484.325 200.973
L484.474 172.032
L484.622 185.244
L484.697 151.271
L484.846 192.794
L484.92 143.092
L485.069 186.503
L485.143 165.741
L485.218 169.516
L485.292 197.827
L485.366 187.761
L485.515 133.654
L485.59 168.887
L485.664 120.442
L485.813 198.456
L485.887 151.271
L486.11 263.258
L486.185 230.543
L486.259 233.689
L486.408 248.159
L486.482 235.576
L486.557 277.1
L486.631 235.576
L486.706 246.901
L486.78 215.443
L486.854 234.318
L486.929 233.689
L487.003 218.589
L487.078 178.324
L487.152 189.019
L487.226 216.072
L487.375 185.244
L487.598 248.788
L487.673 246.901
L487.822 248.788
L487.896 277.729
L487.97 267.662
L488.045 264.517
L488.194 301.007
L488.342 236.205
L488.417 248.159
L488.566 265.146
L488.64 250.046
L488.714 282.133
L488.938 219.218
L489.012 217.331
L489.086 217.96
L489.161 227.397
L489.235 182.728
L489.31 189.648
L489.384 200.344
L489.458 196.569
L489.533 168.887
L489.607 170.145
L489.682 185.874
L489.756 179.582
L489.83 151.9
L489.905 196.569
L489.979 189.648
L490.054 166.37
L490.202 202.231
L490.277 183.357
L490.351 185.874
L490.426 188.39
L490.5 207.894
L490.574 156.304
L490.798 219.847
L490.872 176.436
L490.946 187.132
L491.095 200.344
L491.17 155.675
L491.318 191.536
L491.467 155.675
L491.542 190.278
L491.69 170.145
L491.765 168.257
L491.839 182.728
L491.914 119.184
L491.988 136.8
L492.062 168.257
L492.137 106.601
L492.211 166.999
L492.286 152.529
L492.36 150.641
L492.509 217.96
L492.583 182.099
L492.658 184.615
L492.806 214.185
L492.881 154.416
L492.955 165.112
L493.104 196.569
L493.178 155.675
L493.327 199.715
L493.476 170.774
L493.625 202.86
L493.699 150.012
L493.774 212.298
L493.848 188.39
L493.922 232.43
L493.997 196.569
L494.071 203.49
L494.146 214.185
L494.22 199.715
L494.294 153.158
L494.518 199.715
L494.592 152.529
L494.741 205.377
L494.815 198.456
L494.89 197.827
L494.964 201.602
L495.038 218.589
L495.113 214.185
L495.187 185.244
L495.262 198.456
L495.41 228.655
L495.485 212.927
L495.559 169.516
L495.634 188.39
L495.708 213.556
L495.782 148.125
L495.857 170.774
L495.931 185.244
L496.006 183.986
L496.08 165.112
L496.229 229.285
L496.303 216.702
L496.378 169.516
L496.452 197.827
L496.601 168.887
L496.675 166.999
L496.75 181.469
L496.824 155.675
L496.898 166.999
L497.047 197.198
L497.122 167.628
L497.345 234.318
L497.419 181.469
L497.494 185.244
L497.568 175.807
L497.642 205.377
L497.717 187.761
L497.866 202.231
L497.94 200.973
L498.014 173.291
L498.089 192.165
L498.163 185.874
L498.238 182.728
L498.312 183.357
L498.461 229.285
L498.61 165.741
L498.758 197.827
L498.833 154.416
L498.907 166.999
L499.056 217.331
L499.205 189.019
L499.279 199.086
L499.354 229.285
L499.428 156.933
L499.502 164.483
L499.577 202.231
L499.726 152.529
L499.874 186.503
L499.949 166.999
L500.098 222.993
L500.172 209.781
L500.246 168.887
L500.321 171.403
L500.395 197.827
L500.544 134.913
L500.618 197.827
L500.693 189.019
L500.767 196.569
L500.842 185.244
L500.916 200.973
L501.065 139.317
L501.139 151.9
L501.214 122.33
L501.288 136.171
L501.362 182.099
L501.437 155.675
L501.511 165.741
L501.66 181.469
L501.734 154.416
L501.883 217.331
L501.958 165.112
L502.032 169.516
L502.181 199.715
L502.33 154.416
L502.404 217.96
L502.553 172.661
L502.702 227.397
L502.776 202.86
L502.85 140.575
L502.925 150.641
L503.074 107.859
L503.148 165.112
L503.222 105.343
L503.371 166.999
L503.446 138.688
L503.52 147.496
L503.594 189.019
L503.669 168.257
L503.818 214.814
L504.115 182.099
L504.19 222.364
L504.264 195.94
L504.338 202.231
L504.413 214.185
L504.487 205.377
L504.71 155.675
L504.785 196.569
L504.859 153.158
L505.008 212.927
L505.082 171.403
L505.157 182.728
L505.231 171.403
L505.306 216.072
L505.454 137.429
L505.529 199.715
L505.603 185.874
L505.678 180.84
L505.752 156.304
L505.826 226.768
L505.901 172.661
L506.05 232.43
L506.273 185.874
L506.347 215.443
L506.422 204.748
L506.496 211.039
L506.57 168.257
L506.645 182.728
L506.719 194.052
L506.794 190.278
L506.868 172.032
L506.942 175.178
L507.017 177.695
L507.091 147.496
L507.166 151.9
L507.24 171.403
L507.314 136.171
L507.389 166.999
L507.463 165.741
L507.538 124.846
L507.686 169.516
L507.761 133.025
L507.835 139.946
L507.91 166.37
L507.984 151.9
L508.058 154.416
L508.207 208.523
L508.282 155.675
L508.43 212.927
L508.579 151.9
L508.654 189.648
L508.728 177.695
L508.802 151.271
L508.951 213.556
L509.026 168.887
L509.174 209.152
L509.249 219.218
L509.323 197.827
L509.398 200.344
L509.472 199.086
L509.472 199.086" style="fill:none;stroke:#0000ff;stroke-linecap:square;"/>
   </g>
   <g id="patch_3">
    <path d="
M72 43.2
L518.4 43.2" style="fill:none;stroke:#000000;stroke-linecap:square;stroke-linejoin:miter;"/>
   </g>
   <g id="patch_4">
    <path d="
M518.4 388.8
L518.4 43.2" style="fill:none;stroke:#000000;stroke-linecap:square;stroke-linejoin:miter;"/>
   </g>
   <g id="patch_5">
    <path d="
M72 388.8
L518.4 388.8" style="fill:none;stroke:#000000;stroke-linecap:square;stroke-linejoin:miter;"/>
   </g>
   <g id="patch_6">
    <path d="
M72 388.8
L72 43.2" style="fill:none;stroke:#000000;stroke-linecap:square;stroke-linejoin:miter;"/>
   </g>
   <g id="matplotlib.axis_1">
    <g id="xtick_1">
     <g id="line2d_2">
      <defs>
       <path d="
M0 0
L0 -4" id="m93b0483c22" style="stroke:#000000;stroke-width:0.5;"/>
      </defs>
      <g>
       <use style="stroke:#000000;stroke-width:0.5;" x="72.0" xlink:href="#m93b0483c22" y="388.8"/>
      </g>
     </g>
     <g id="line2d_3">
      <defs>
       <path d="
M0 0
L0 4" id="m741efc42ff" style="stroke:#000000;stroke-width:0.5;"/>
      </defs>
      <g>
       <use style="stroke:#000000;stroke-width:0.5;" x="72.0" xlink:href="#m741efc42ff" y="43.2"/>
      </g>
     </g>
     <g id="text_1">
      <!-- 0 -->
      <defs>
       <path d="
M31.7812 66.4062
Q24.1719 66.4062 20.3281 58.9062
Q16.5 51.4219 16.5 36.375
Q16.5 21.3906 20.3281 13.8906
Q24.1719 6.39062 31.7812 6.39062
Q39.4531 6.39062 43.2812 13.8906
Q47.125 21.3906 47.125 36.375
Q47.125 51.4219 43.2812 58.9062
Q39.4531 66.4062 31.7812 66.4062
M31.7812 74.2188
Q44.0469 74.2188 50.5156 64.5156
Q56.9844 54.8281 56.9844 36.375
Q56.9844 17.9688 50.5156 8.26562
Q44.0469 -1.42188 31.7812 -1.42188
Q19.5312 -1.42188 13.0625 8.26562
Q6.59375 17.9688 6.59375 36.375
Q6.59375 54.8281 13.0625 64.5156
Q19.5312 74.2188 31.7812 74.2188" id="BitstreamVeraSans-Roman-30"/>
      </defs>
      <g transform="translate(68.9765625 401.918125)scale(0.12 -0.12)">
       <use xlink:href="#BitstreamVeraSans-Roman-30"/>
      </g>
     </g>
    </g>
    <g id="xtick_2">
     <g id="line2d_4">
      <g>
       <use style="stroke:#000000;stroke-width:0.5;" x="146.4" xlink:href="#m93b0483c22" y="388.8"/>
      </g>
     </g>
     <g id="line2d_5">
      <g>
       <use style="stroke:#000000;stroke-width:0.5;" x="146.4" xlink:href="#m741efc42ff" y="43.2"/>
      </g>
     </g>
     <g id="text_2">
      <!-- 1000 -->
      <defs>
       <path d="
M12.4062 8.29688
L28.5156 8.29688
L28.5156 63.9219
L10.9844 60.4062
L10.9844 69.3906
L28.4219 72.9062
L38.2812 72.9062
L38.2812 8.29688
L54.3906 8.29688
L54.3906 0
L12.4062 0
z
" id="BitstreamVeraSans-Roman-31"/>
      </defs>
      <g transform="translate(132.1875 401.918125)scale(0.12 -0.12)">
       <use xlink:href="#BitstreamVeraSans-Roman-31"/>
       <use x="63.623046875" xlink:href="#BitstreamVeraSans-Roman-30"/>
       <use x="127.24609375" xlink:href="#BitstreamVeraSans-Roman-30"/>
       <use x="190.869140625" xlink:href="#BitstreamVeraSans-Roman-30"/>
      </g>
     </g>
    </g>
    <g id="xtick_3">
     <g id="line2d_6">
      <g>
       <use style="stroke:#000000;stroke-width:0.5;" x="220.8" xlink:href="#m93b0483c22" y="388.8"/>
      </g>
     </g>
     <g id="line2d_7">
      <g>
       <use style="stroke:#000000;stroke-width:0.5;" x="220.8" xlink:href="#m741efc42ff" y="43.2"/>
      </g>
     </g>
     <g id="text_3">
      <!-- 2000 -->
      <defs>
       <path d="
M19.1875 8.29688
L53.6094 8.29688
L53.6094 0
L7.32812 0
L7.32812 8.29688
Q12.9375 14.1094 22.625 23.8906
Q32.3281 33.6875 34.8125 36.5312
Q39.5469 41.8438 41.4219 45.5312
Q43.3125 49.2188 43.3125 52.7812
Q43.3125 58.5938 39.2344 62.25
Q35.1562 65.9219 28.6094 65.9219
Q23.9688 65.9219 18.8125 64.3125
Q13.6719 62.7031 7.8125 59.4219
L7.8125 69.3906
Q13.7656 71.7812 18.9375 73
Q24.125 74.2188 28.4219 74.2188
Q39.75 74.2188 46.4844 68.5469
Q53.2188 62.8906 53.2188 53.4219
Q53.2188 48.9219 51.5312 44.8906
Q49.8594 40.875 45.4062 35.4062
Q44.1875 33.9844 37.6406 27.2188
Q31.1094 20.4531 19.1875 8.29688" id="BitstreamVeraSans-Roman-32"/>
      </defs>
      <g transform="translate(206.368125 401.918125)scale(0.12 -0.12)">
       <use xlink:href="#BitstreamVeraSans-Roman-32"/>
       <use x="63.623046875" xlink:href="#BitstreamVeraSans-Roman-30"/>
       <use x="127.24609375" xlink:href="#BitstreamVeraSans-Roman-30"/>
       <use x="190.869140625" xlink:href="#BitstreamVeraSans-Roman-30"/>
      </g>
     </g>
    </g>
    <g id="xtick_4">
     <g id="line2d_8">
      <g>
       <use style="stroke:#000000;stroke-width:0.5;" x="295.2" xlink:href="#m93b0483c22" y="388.8"/>
      </g>
     </g>
     <g id="line2d_9">
      <g>
       <use style="stroke:#000000;stroke-width:0.5;" x="295.2" xlink:href="#m741efc42ff" y="43.2"/>
      </g>
     </g>
     <g id="text_4">
      <!-- 3000 -->
      <defs>
       <path d="
M40.5781 39.3125
Q47.6562 37.7969 51.625 33
Q55.6094 28.2188 55.6094 21.1875
Q55.6094 10.4062 48.1875 4.48438
Q40.7656 -1.42188 27.0938 -1.42188
Q22.5156 -1.42188 17.6562 -0.515625
Q12.7969 0.390625 7.625 2.20312
L7.625 11.7188
Q11.7188 9.32812 16.5938 8.10938
Q21.4844 6.89062 26.8125 6.89062
Q36.0781 6.89062 40.9375 10.5469
Q45.7969 14.2031 45.7969 21.1875
Q45.7969 27.6406 41.2812 31.2656
Q36.7656 34.9062 28.7188 34.9062
L20.2188 34.9062
L20.2188 43.0156
L29.1094 43.0156
Q36.375 43.0156 40.2344 45.9219
Q44.0938 48.8281 44.0938 54.2969
Q44.0938 59.9062 40.1094 62.9062
Q36.1406 65.9219 28.7188 65.9219
Q24.6562 65.9219 20.0156 65.0312
Q15.375 64.1562 9.8125 62.3125
L9.8125 71.0938
Q15.4375 72.6562 20.3438 73.4375
Q25.25 74.2188 29.5938 74.2188
Q40.8281 74.2188 47.3594 69.1094
Q53.9062 64.0156 53.9062 55.3281
Q53.9062 49.2656 50.4375 45.0938
Q46.9688 40.9219 40.5781 39.3125" id="BitstreamVeraSans-Roman-33"/>
      </defs>
      <g transform="translate(280.7859375 401.918125)scale(0.12 -0.12)">
       <use xlink:href="#BitstreamVeraSans-Roman-33"/>
       <use x="63.623046875" xlink:href="#BitstreamVeraSans-Roman-30"/>
       <use x="127.24609375" xlink:href="#BitstreamVeraSans-Roman-30"/>
       <use x="190.869140625" xlink:href="#BitstreamVeraSans-Roman-30"/>
      </g>
     </g>
    </g>
    <g id="xtick_5">
     <g id="line2d_10">
      <g>
       <use style="stroke:#000000;stroke-width:0.5;" x="369.6" xlink:href="#m93b0483c22" y="388.8"/>
      </g>
     </g>
     <g id="line2d_11">
      <g>
       <use style="stroke:#000000;stroke-width:0.5;" x="369.6" xlink:href="#m741efc42ff" y="43.2"/>
      </g>
     </g>
     <g id="text_5">
      <!-- 4000 -->
      <defs>
       <path d="
M37.7969 64.3125
L12.8906 25.3906
L37.7969 25.3906
z

M35.2031 72.9062
L47.6094 72.9062
L47.6094 25.3906
L58.0156 25.3906
L58.0156 17.1875
L47.6094 17.1875
L47.6094 0
L37.7969 0
L37.7969 17.1875
L4.89062 17.1875
L4.89062 26.7031
z
" id="BitstreamVeraSans-Roman-34"/>
      </defs>
      <g transform="translate(355.021875 401.918125)scale(0.12 -0.12)">
       <use xlink:href="#BitstreamVeraSans-Roman-34"/>
       <use x="63.623046875" xlink:href="#BitstreamVeraSans-Roman-30"/>
       <use x="127.24609375" xlink:href="#BitstreamVeraSans-Roman-30"/>
       <use x="190.869140625" xlink:href="#BitstreamVeraSans-Roman-30"/>
      </g>
     </g>
    </g>
    <g id="xtick_6">
     <g id="line2d_12">
      <g>
       <use style="stroke:#000000;stroke-width:0.5;" x="444.0" xlink:href="#m93b0483c22" y="388.8"/>
      </g>
     </g>
     <g id="line2d_13">
      <g>
       <use style="stroke:#000000;stroke-width:0.5;" x="444.0" xlink:href="#m741efc42ff" y="43.2"/>
      </g>
     </g>
     <g id="text_6">
      <!-- 5000 -->
      <defs>
       <path d="
M10.7969 72.9062
L49.5156 72.9062
L49.5156 64.5938
L19.8281 64.5938
L19.8281 46.7344
Q21.9688 47.4688 24.1094 47.8281
Q26.2656 48.1875 28.4219 48.1875
Q40.625 48.1875 47.75 41.5
Q54.8906 34.8125 54.8906 23.3906
Q54.8906 11.625 47.5625 5.09375
Q40.2344 -1.42188 26.9062 -1.42188
Q22.3125 -1.42188 17.5469 -0.640625
Q12.7969 0.140625 7.71875 1.70312
L7.71875 11.625
Q12.1094 9.23438 16.7969 8.0625
Q21.4844 6.89062 26.7031 6.89062
Q35.1562 6.89062 40.0781 11.3281
Q45.0156 15.7656 45.0156 23.3906
Q45.0156 31 40.0781 35.4375
Q35.1562 39.8906 26.7031 39.8906
Q22.75 39.8906 18.8125 39.0156
Q14.8906 38.1406 10.7969 36.2812
z
" id="BitstreamVeraSans-Roman-35"/>
      </defs>
      <g transform="translate(429.5915625 401.918125)scale(0.12 -0.12)">
       <use xlink:href="#BitstreamVeraSans-Roman-35"/>
       <use x="63.623046875" xlink:href="#BitstreamVeraSans-Roman-30"/>
       <use x="127.24609375" xlink:href="#BitstreamVeraSans-Roman-30"/>
       <use x="190.869140625" xlink:href="#BitstreamVeraSans-Roman-30"/>
      </g>
     </g>
    </g>
    <g id="xtick_7">
     <g id="line2d_14">
      <g>
       <use style="stroke:#000000;stroke-width:0.5;" x="518.4" xlink:href="#m93b0483c22" y="388.8"/>
      </g>
     </g>
     <g id="line2d_15">
      <g>
       <use style="stroke:#000000;stroke-width:0.5;" x="518.4" xlink:href="#m741efc42ff" y="43.2"/>
      </g>
     </g>
     <g id="text_7">
      <!-- 6000 -->
      <defs>
       <path d="
M33.0156 40.375
Q26.375 40.375 22.4844 35.8281
Q18.6094 31.2969 18.6094 23.3906
Q18.6094 15.5312 22.4844 10.9531
Q26.375 6.39062 33.0156 6.39062
Q39.6562 6.39062 43.5312 10.9531
Q47.4062 15.5312 47.4062 23.3906
Q47.4062 31.2969 43.5312 35.8281
Q39.6562 40.375 33.0156 40.375
M52.5938 71.2969
L52.5938 62.3125
Q48.875 64.0625 45.0938 64.9844
Q41.3125 65.9219 37.5938 65.9219
Q27.8281 65.9219 22.6719 59.3281
Q17.5312 52.7344 16.7969 39.4062
Q19.6719 43.6562 24.0156 45.9219
Q28.375 48.1875 33.5938 48.1875
Q44.5781 48.1875 50.9531 41.5156
Q57.3281 34.8594 57.3281 23.3906
Q57.3281 12.1562 50.6875 5.35938
Q44.0469 -1.42188 33.0156 -1.42188
Q20.3594 -1.42188 13.6719 8.26562
Q6.98438 17.9688 6.98438 36.375
Q6.98438 53.6562 15.1875 63.9375
Q23.3906 74.2188 37.2031 74.2188
Q40.9219 74.2188 44.7031 73.4844
Q48.4844 72.75 52.5938 71.2969" id="BitstreamVeraSans-Roman-36"/>
      </defs>
      <g transform="translate(503.9475 401.918125)scale(0.12 -0.12)">
       <use xlink:href="#BitstreamVeraSans-Roman-36"/>
       <use x="63.623046875" xlink:href="#BitstreamVeraSans-Roman-30"/>
       <use x="127.24609375" xlink:href="#BitstreamVeraSans-Roman-30"/>
       <use x="190.869140625" xlink:href="#BitstreamVeraSans-Roman-30"/>
      </g>
     </g>
    </g>
   </g>
   <g id="matplotlib.axis_2">
    <g id="ytick_1">
     <g id="line2d_16">
      <defs>
       <path d="
M0 0
L4 0" id="m728421d6d4" style="stroke:#000000;stroke-width:0.5;"/>
      </defs>
      <g>
       <use style="stroke:#000000;stroke-width:0.5;" x="72.0" xlink:href="#m728421d6d4" y="388.8"/>
      </g>
     </g>
     <g id="line2d_17">
      <defs>
       <path d="
M0 0
L-4 0" id="mcb0005524f" style="stroke:#000000;stroke-width:0.5;"/>
      </defs>
      <g>
       <use style="stroke:#000000;stroke-width:0.5;" x="518.4" xlink:href="#mcb0005524f" y="388.8"/>
      </g>
     </g>
     <g id="text_8">
      <!-- 0.26 -->
      <defs>
       <path d="
M10.6875 12.4062
L21 12.4062
L21 0
L10.6875 0
z
" id="BitstreamVeraSans-Roman-2e"/>
      </defs>
      <g transform="translate(42.828125 392.11125)scale(0.12 -0.12)">
       <use xlink:href="#BitstreamVeraSans-Roman-30"/>
       <use x="63.623046875" xlink:href="#BitstreamVeraSans-Roman-2e"/>
       <use x="95.41015625" xlink:href="#BitstreamVeraSans-Roman-32"/>
       <use x="159.033203125" xlink:href="#BitstreamVeraSans-Roman-36"/>
      </g>
     </g>
    </g>
    <g id="ytick_2">
     <g id="line2d_18">
      <g>
       <use style="stroke:#000000;stroke-width:0.5;" x="72.0" xlink:href="#m728421d6d4" y="350.4"/>
      </g>
     </g>
     <g id="line2d_19">
      <g>
       <use style="stroke:#000000;stroke-width:0.5;" x="518.4" xlink:href="#mcb0005524f" y="350.4"/>
      </g>
     </g>
     <g id="text_9">
      <!-- 0.28 -->
      <defs>
       <path d="
M31.7812 34.625
Q24.75 34.625 20.7188 30.8594
Q16.7031 27.0938 16.7031 20.5156
Q16.7031 13.9219 20.7188 10.1562
Q24.75 6.39062 31.7812 6.39062
Q38.8125 6.39062 42.8594 10.1719
Q46.9219 13.9688 46.9219 20.5156
Q46.9219 27.0938 42.8906 30.8594
Q38.875 34.625 31.7812 34.625
M21.9219 38.8125
Q15.5781 40.375 12.0312 44.7188
Q8.5 49.0781 8.5 55.3281
Q8.5 64.0625 14.7188 69.1406
Q20.9531 74.2188 31.7812 74.2188
Q42.6719 74.2188 48.875 69.1406
Q55.0781 64.0625 55.0781 55.3281
Q55.0781 49.0781 51.5312 44.7188
Q48 40.375 41.7031 38.8125
Q48.8281 37.1562 52.7969 32.3125
Q56.7812 27.4844 56.7812 20.5156
Q56.7812 9.90625 50.3125 4.23438
Q43.8438 -1.42188 31.7812 -1.42188
Q19.7344 -1.42188 13.25 4.23438
Q6.78125 9.90625 6.78125 20.5156
Q6.78125 27.4844 10.7812 32.3125
Q14.7969 37.1562 21.9219 38.8125
M18.3125 54.3906
Q18.3125 48.7344 21.8438 45.5625
Q25.3906 42.3906 31.7812 42.3906
Q38.1406 42.3906 41.7188 45.5625
Q45.3125 48.7344 45.3125 54.3906
Q45.3125 60.0625 41.7188 63.2344
Q38.1406 66.4062 31.7812 66.4062
Q25.3906 66.4062 21.8438 63.2344
Q18.3125 60.0625 18.3125 54.3906" id="BitstreamVeraSans-Roman-38"/>
      </defs>
      <g transform="translate(42.89375 353.71125)scale(0.12 -0.12)">
       <use xlink:href="#BitstreamVeraSans-Roman-30"/>
       <use x="63.623046875" xlink:href="#BitstreamVeraSans-Roman-2e"/>
       <use x="95.41015625" xlink:href="#BitstreamVeraSans-Roman-32"/>
       <use x="159.033203125" xlink:href="#BitstreamVeraSans-Roman-38"/>
      </g>
     </g>
    </g>
    <g id="ytick_3">
     <g id="line2d_20">
      <g>
       <use style="stroke:#000000;stroke-width:0.5;" x="72.0" xlink:href="#m728421d6d4" y="312.0"/>
      </g>
     </g>
     <g id="line2d_21">
      <g>
       <use style="stroke:#000000;stroke-width:0.5;" x="518.4" xlink:href="#mcb0005524f" y="312.0"/>
      </g>
     </g>
     <g id="text_10">
      <!-- 0.30 -->
      <g transform="translate(42.869375 315.31125)scale(0.12 -0.12)">
       <use xlink:href="#BitstreamVeraSans-Roman-30"/>
       <use x="63.623046875" xlink:href="#BitstreamVeraSans-Roman-2e"/>
       <use x="95.41015625" xlink:href="#BitstreamVeraSans-Roman-33"/>
       <use x="159.033203125" xlink:href="#BitstreamVeraSans-Roman-30"/>
      </g>
     </g>
    </g>
    <g id="ytick_4">
     <g id="line2d_22">
      <g>
       <use style="stroke:#000000;stroke-width:0.5;" x="72.0" xlink:href="#m728421d6d4" y="273.6"/>
      </g>
     </g>
     <g id="line2d_23">
      <g>
       <use style="stroke:#000000;stroke-width:0.5;" x="518.4" xlink:href="#mcb0005524f" y="273.6"/>
      </g>
     </g>
     <g id="text_11">
      <!-- 0.32 -->
      <g transform="translate(43.274375 276.91125)scale(0.12 -0.12)">
       <use xlink:href="#BitstreamVeraSans-Roman-30"/>
       <use x="63.623046875" xlink:href="#BitstreamVeraSans-Roman-2e"/>
       <use x="95.41015625" xlink:href="#BitstreamVeraSans-Roman-33"/>
       <use x="159.033203125" xlink:href="#BitstreamVeraSans-Roman-32"/>
      </g>
     </g>
    </g>
    <g id="ytick_5">
     <g id="line2d_24">
      <g>
       <use style="stroke:#000000;stroke-width:0.5;" x="72.0" xlink:href="#m728421d6d4" y="235.2"/>
      </g>
     </g>
     <g id="line2d_25">
      <g>
       <use style="stroke:#000000;stroke-width:0.5;" x="518.4" xlink:href="#mcb0005524f" y="235.2"/>
      </g>
     </g>
     <g id="text_12">
      <!-- 0.34 -->
      <g transform="translate(42.745625 238.51125)scale(0.12 -0.12)">
       <use xlink:href="#BitstreamVeraSans-Roman-30"/>
       <use x="63.623046875" xlink:href="#BitstreamVeraSans-Roman-2e"/>
       <use x="95.41015625" xlink:href="#BitstreamVeraSans-Roman-33"/>
       <use x="159.033203125" xlink:href="#BitstreamVeraSans-Roman-34"/>
      </g>
     </g>
    </g>
    <g id="ytick_6">
     <g id="line2d_26">
      <g>
       <use style="stroke:#000000;stroke-width:0.5;" x="72.0" xlink:href="#m728421d6d4" y="196.8"/>
      </g>
     </g>
     <g id="line2d_27">
      <g>
       <use style="stroke:#000000;stroke-width:0.5;" x="518.4" xlink:href="#mcb0005524f" y="196.8"/>
      </g>
     </g>
     <g id="text_13">
      <!-- 0.36 -->
      <g transform="translate(42.828125 200.11125)scale(0.12 -0.12)">
       <use xlink:href="#BitstreamVeraSans-Roman-30"/>
       <use x="63.623046875" xlink:href="#BitstreamVeraSans-Roman-2e"/>
       <use x="95.41015625" xlink:href="#BitstreamVeraSans-Roman-33"/>
       <use x="159.033203125" xlink:href="#BitstreamVeraSans-Roman-36"/>
      </g>
     </g>
    </g>
    <g id="ytick_7">
     <g id="line2d_28">
      <g>
       <use style="stroke:#000000;stroke-width:0.5;" x="72.0" xlink:href="#m728421d6d4" y="158.4"/>
      </g>
     </g>
     <g id="line2d_29">
      <g>
       <use style="stroke:#000000;stroke-width:0.5;" x="518.4" xlink:href="#mcb0005524f" y="158.4"/>
      </g>
     </g>
     <g id="text_14">
      <!-- 0.38 -->
      <g transform="translate(42.89375 161.71125)scale(0.12 -0.12)">
       <use xlink:href="#BitstreamVeraSans-Roman-30"/>
       <use x="63.623046875" xlink:href="#BitstreamVeraSans-Roman-2e"/>
       <use x="95.41015625" xlink:href="#BitstreamVeraSans-Roman-33"/>
       <use x="159.033203125" xlink:href="#BitstreamVeraSans-Roman-38"/>
      </g>
     </g>
    </g>
    <g id="ytick_8">
     <g id="line2d_30">
      <g>
       <use style="stroke:#000000;stroke-width:0.5;" x="72.0" xlink:href="#m728421d6d4" y="120.0"/>
      </g>
     </g>
     <g id="line2d_31">
      <g>
       <use style="stroke:#000000;stroke-width:0.5;" x="518.4" xlink:href="#mcb0005524f" y="120.0"/>
      </g>
     </g>
     <g id="text_15">
      <!-- 0.40 -->
      <g transform="translate(42.869375 123.31125)scale(0.12 -0.12)">
       <use xlink:href="#BitstreamVeraSans-Roman-30"/>
       <use x="63.623046875" xlink:href="#BitstreamVeraSans-Roman-2e"/>
       <use x="95.41015625" xlink:href="#BitstreamVeraSans-Roman-34"/>
       <use x="159.033203125" xlink:href="#BitstreamVeraSans-Roman-30"/>
      </g>
     </g>
    </g>
    <g id="ytick_9">
     <g id="line2d_32">
      <g>
       <use style="stroke:#000000;stroke-width:0.5;" x="72.0" xlink:href="#m728421d6d4" y="81.6"/>
      </g>
     </g>
     <g id="line2d_33">
      <g>
       <use style="stroke:#000000;stroke-width:0.5;" x="518.4" xlink:href="#mcb0005524f" y="81.6"/>
      </g>
     </g>
     <g id="text_16">
      <!-- 0.42 -->
      <g transform="translate(43.274375 84.91125)scale(0.12 -0.12)">
       <use xlink:href="#BitstreamVeraSans-Roman-30"/>
       <use x="63.623046875" xlink:href="#BitstreamVeraSans-Roman-2e"/>
       <use x="95.41015625" xlink:href="#BitstreamVeraSans-Roman-34"/>
       <use x="159.033203125" xlink:href="#BitstreamVeraSans-Roman-32"/>
      </g>
     </g>
    </g>
    <g id="ytick_10">
     <g id="line2d_34">
      <g>
       <use style="stroke:#000000;stroke-width:0.5;" x="72.0" xlink:href="#m728421d6d4" y="43.2"/>
      </g>
     </g>
     <g id="line2d_35">
      <g>
       <use style="stroke:#000000;stroke-width:0.5;" x="518.4" xlink:href="#mcb0005524f" y="43.2"/>
      </g>
     </g>
     <g id="text_17">
      <!-- 0.44 -->
      <g transform="translate(42.745625 46.51125)scale(0.12 -0.12)">
       <use xlink:href="#BitstreamVeraSans-Roman-30"/>
       <use x="63.623046875" xlink:href="#BitstreamVeraSans-Roman-2e"/>
       <use x="95.41015625" xlink:href="#BitstreamVeraSans-Roman-34"/>
       <use x="159.033203125" xlink:href="#BitstreamVeraSans-Roman-34"/>
      </g>
     </g>
    </g>
   </g>
  </g>
 </g>
 <defs>
  <clipPath id="p7ff5b81e1d">
   <rect height="345.6" width="446.4" x="72.0" y="43.2"/>
  </clipPath>
 </defs>
</svg>
